<?xml version="1.0" encoding="UTF-8" standalone="no"?>
<!DOCTYPE svg PUBLIC "-//W3C//DTD SVG 1.1//EN"
 "http://www.w3.org/Graphics/SVG/1.1/DTD/svg11.dtd">
<!-- Generated by graphviz version 2.43.0 (0)
 -->
<!-- Title: output Pages: 1 -->
<svg width="549pt" height="508pt"
 viewBox="0.00 0.00 549.00 508.00" xmlns="http://www.w3.org/2000/svg" xmlns:xlink="http://www.w3.org/1999/xlink">
<g id="graph0" class="graph" transform="scale(1 1) rotate(0) translate(4 504)">
<title>output</title>
<!-- Node1 -->
<g id="Node000001" class="node">
<title>Node1</title>
<g id="a_Node000001"><a xlink:title=" ">
<polygon fill="#999999" stroke="#666666" points="541,-297 493,-297 493,-278 541,-278 541,-297"/>
<text text-anchor="middle" x="517" y="-285" font-family="Ubuntu Mono" font-size="10.00">output</text>
</a>
</g>
</g>
<!-- Node2 -->
<g id="Node000002" class="node">
<title>Node2</title>
<g id="a_Node000002"><a xlink:href="classArith.html#ace57997662b947e376df821b870dc98b" target="_top" xlink:title=" ">
<polygon fill="white" stroke="#666666" points="338,-278 251,-278 251,-259 338,-259 338,-278"/>
<text text-anchor="middle" x="294.5" y="-266" font-family="Ubuntu Mono" font-size="10.00">Arith::initCinfo</text>
</a>
</g>
</g>
<!-- Node1&#45;&gt;Node2 -->
<g id="edge1_Node000001_Node000002" class="edge">
<title>Node1&#45;&gt;Node2</title>
<g id="a_edge1_Node000001_Node000002"><a xlink:title=" ">
<path fill="none" stroke="#63b8ff" d="M482.64,-284.63C444.08,-281.3 380.51,-275.82 338.32,-272.19"/>
<polygon fill="#63b8ff" stroke="#63b8ff" points="482.56,-288.13 492.82,-285.5 483.16,-281.16 482.56,-288.13"/>
</a>
</g>
</g>
<!-- Node19 -->
<g id="Node000019" class="node">
<title>Node19</title>
<g id="a_Node000019"><a xlink:href="classArith.html#a547eba33d7c4fc31452b3909e759dc37" target="_top" xlink:title=" ">
<polygon fill="white" stroke="#666666" points="457,-316 374,-316 374,-297 457,-297 457,-316"/>
<text text-anchor="middle" x="415.5" y="-304" font-family="Ubuntu Mono" font-size="10.00">Arith::process</text>
</a>
</g>
</g>
<!-- Node1&#45;&gt;Node19 -->
<g id="edge18_Node000001_Node000019" class="edge">
<title>Node1&#45;&gt;Node19</title>
<g id="a_edge18_Node000001_Node000019"><a xlink:title=" ">
<path fill="none" stroke="#63b8ff" d="M482.88,-293.82C474.59,-295.41 465.61,-297.12 457.01,-298.77"/>
<polygon fill="#63b8ff" stroke="#63b8ff" points="483.76,-297.22 492.92,-291.91 482.44,-290.34 483.76,-297.22"/>
</a>
</g>
</g>
<!-- Node3 -->
<g id="Node000003" class="node">
<title>Node3</title>
<g id="a_Node000003"><a xlink:href="testAsync_8cpp.html#a02bfd9535ad935ed1e0c5e5004b31c12" target="_top" xlink:title=" ">
<polygon fill="white" stroke="#666666" points="207,-463 116,-463 116,-444 207,-444 207,-463"/>
<text text-anchor="middle" x="161.5" y="-451" font-family="Ubuntu Mono" font-size="10.00">test2ArgSetVec</text>
</a>
</g>
</g>
<!-- Node2&#45;&gt;Node3 -->
<g id="edge2_Node000002_Node000003" class="edge">
<title>Node2&#45;&gt;Node3</title>
<g id="a_edge2_Node000002_Node000003"><a xlink:title=" ">
<path fill="none" stroke="#63b8ff" d="M286.64,-287.7C272.3,-326.95 238.49,-414.44 215,-435.5 211.2,-438.91 206.72,-441.68 202.01,-443.93"/>
<polygon fill="#63b8ff" stroke="#63b8ff" points="289.97,-288.8 290.08,-278.21 283.38,-286.42 289.97,-288.8"/>
</a>
</g>
</g>
<!-- Node4 -->
<g id="Node000004" class="node">
<title>Node4</title>
<g id="a_Node000004"><a xlink:href="testBuiltins_8cpp.html#ab1428045390d120d14e78c3551f2e906" target="_top" xlink:title=" ">
<polygon fill="white" stroke="#666666" points="191,-500 132,-500 132,-481 191,-481 191,-500"/>
<text text-anchor="middle" x="161.5" y="-488" font-family="Ubuntu Mono" font-size="10.00">testArith</text>
</a>
</g>
</g>
<!-- Node2&#45;&gt;Node4 -->
<g id="edge3_Node000002_Node000004" class="edge">
<title>Node2&#45;&gt;Node4</title>
<g id="a_edge3_Node000002_Node000004"><a xlink:title=" ">
<path fill="none" stroke="#63b8ff" d="M286.31,-287.81C267.6,-338.04 218.53,-469.1 215,-472.5 208.48,-478.78 199.67,-482.88 191.13,-485.55"/>
<polygon fill="#63b8ff" stroke="#63b8ff" points="289.7,-288.74 289.91,-278.15 283.14,-286.3 289.7,-288.74"/>
</a>
</g>
</g>
<!-- Node6 -->
<g id="Node000006" class="node">
<title>Node6</title>
<g id="a_Node000006"><a xlink:href="testMsg_8cpp.html#a702283b869ec387b3a13e71e7393e362" target="_top" xlink:title=" ">
<polygon fill="white" stroke="#666666" points="210.5,-426 112.5,-426 112.5,-407 210.5,-407 210.5,-426"/>
<text text-anchor="middle" x="161.5" y="-414" font-family="Ubuntu Mono" font-size="10.00">testAssortedMsg</text>
</a>
</g>
</g>
<!-- Node2&#45;&gt;Node6 -->
<g id="edge5_Node000002_Node000006" class="edge">
<title>Node2&#45;&gt;Node6</title>
<g id="a_edge5_Node000002_Node000006"><a xlink:title=" ">
<path fill="none" stroke="#63b8ff" d="M286.78,-287.77C275.97,-316.02 252.12,-368.55 215,-398.5 210.8,-401.89 205.93,-404.66 200.87,-406.91"/>
<polygon fill="#63b8ff" stroke="#63b8ff" points="290.12,-288.83 290.28,-278.23 283.55,-286.41 290.12,-288.83"/>
</a>
</g>
</g>
<!-- Node8 -->
<g id="Node000008" class="node">
<title>Node8</title>
<g id="a_Node000008"><a xlink:href="testAsync_8cpp.html#a12781c290bf52156517375db5eaab110" target="_top" xlink:title=" ">
<polygon fill="white" stroke="#666666" points="205.5,-389 117.5,-389 117.5,-370 205.5,-370 205.5,-389"/>
<text text-anchor="middle" x="161.5" y="-377" font-family="Ubuntu Mono" font-size="10.00">testCreateMsg</text>
</a>
</g>
</g>
<!-- Node2&#45;&gt;Node8 -->
<g id="edge7_Node000002_Node000008" class="edge">
<title>Node2&#45;&gt;Node8</title>
<g id="a_edge7_Node000002_Node000008"><a xlink:title=" ">
<path fill="none" stroke="#63b8ff" d="M282.49,-286.72C269.02,-307.57 244.34,-341.43 215,-361.5 210.07,-364.87 204.45,-367.67 198.76,-369.97"/>
<polygon fill="#63b8ff" stroke="#63b8ff" points="285.52,-288.48 287.87,-278.15 279.59,-284.76 285.52,-288.48"/>
</a>
</g>
</g>
<!-- Node9 -->
<g id="Node000009" class="node">
<title>Node9</title>
<g id="a_Node000009"><a xlink:href="testBuiltins_8cpp.html#a0b23c31b7503dd93064294b42d4ff085" target="_top" xlink:title=" ">
<polygon fill="white" stroke="#666666" points="202,-352 121,-352 121,-333 202,-333 202,-352"/>
<text text-anchor="middle" x="161.5" y="-340" font-family="Ubuntu Mono" font-size="10.00">testFibonacci</text>
</a>
</g>
</g>
<!-- Node2&#45;&gt;Node9 -->
<g id="edge8_Node000002_Node000009" class="edge">
<title>Node2&#45;&gt;Node9</title>
<g id="a_edge8_Node000002_Node000009"><a xlink:title=" ">
<path fill="none" stroke="#63b8ff" d="M274.08,-284.79C258.79,-296.99 236.53,-313.43 215,-324.5 208.74,-327.72 201.79,-330.56 195.04,-332.99"/>
<polygon fill="#63b8ff" stroke="#63b8ff" points="276.67,-287.19 282.22,-278.17 272.25,-281.76 276.67,-287.19"/>
</a>
</g>
</g>
<!-- Node10 -->
<g id="Node000010" class="node">
<title>Node10</title>
<g id="a_Node000010"><a xlink:href="testAsync_8cpp.html#ae34f7c6c5570c6e570b2b69d74fba402" target="_top" xlink:title=" ">
<polygon fill="white" stroke="#666666" points="188,-315 135,-315 135,-296 188,-296 188,-315"/>
<text text-anchor="middle" x="161.5" y="-303" font-family="Ubuntu Mono" font-size="10.00">testGet</text>
</a>
</g>
</g>
<!-- Node2&#45;&gt;Node10 -->
<g id="edge9_Node000002_Node000010" class="edge">
<title>Node2&#45;&gt;Node10</title>
<g id="a_edge9_Node000002_Node000010"><a xlink:title=" ">
<path fill="none" stroke="#63b8ff" d="M250.02,-280.78C229.55,-286.56 205.84,-293.26 188.26,-298.22"/>
<polygon fill="#63b8ff" stroke="#63b8ff" points="251.09,-284.11 259.76,-278.03 249.19,-277.38 251.09,-284.11"/>
</a>
</g>
</g>
<!-- Node11 -->
<g id="Node000011" class="node">
<title>Node11</title>
<g id="a_Node000011"><a xlink:href="testAsync_8cpp.html#aa84ca82e4ceff1f2d3c79eef5bb2f699" target="_top" xlink:title=" ">
<polygon fill="white" stroke="#666666" points="186.5,-278 136.5,-278 136.5,-259 186.5,-259 186.5,-278"/>
<text text-anchor="middle" x="161.5" y="-266" font-family="Ubuntu Mono" font-size="10.00">testIsA</text>
</a>
</g>
</g>
<!-- Node2&#45;&gt;Node11 -->
<g id="edge10_Node000002_Node000011" class="edge">
<title>Node2&#45;&gt;Node11</title>
<g id="a_edge10_Node000002_Node000011"><a xlink:title=" ">
<path fill="none" stroke="#63b8ff" d="M240.72,-268.5C221.93,-268.5 201.69,-268.5 186.5,-268.5"/>
<polygon fill="#63b8ff" stroke="#63b8ff" points="240.97,-272 250.97,-268.5 240.97,-265 240.97,-272"/>
</a>
</g>
</g>
<!-- Node12 -->
<g id="Node000012" class="node">
<title>Node12</title>
<g id="a_Node000012"><a xlink:href="testAsync_8cpp.html#acacf1d75459344c62faa215a53ea68b5" target="_top" xlink:title=" ">
<polygon fill="white" stroke="#666666" points="213,-241 110,-241 110,-222 213,-222 213,-241"/>
<text text-anchor="middle" x="161.5" y="-229" font-family="Ubuntu Mono" font-size="10.00">testLookupSetGet</text>
</a>
</g>
</g>
<!-- Node2&#45;&gt;Node12 -->
<g id="edge11_Node000002_Node000012" class="edge">
<title>Node2&#45;&gt;Node12</title>
<g id="a_edge11_Node000002_Node000012"><a xlink:title=" ">
<path fill="none" stroke="#63b8ff" d="M249.86,-256.17C232.51,-251.27 212.85,-245.72 196.58,-241.12"/>
<polygon fill="#63b8ff" stroke="#63b8ff" points="249.19,-259.62 259.76,-258.97 251.09,-252.89 249.19,-259.62"/>
</a>
</g>
</g>
<!-- Node13 -->
<g id="Node000013" class="node">
<title>Node13</title>
<g id="a_Node000013"><a xlink:href="testAsync_8cpp.html#ac44591c7444604ba199b0f3c410410d9" target="_top" xlink:title=" ">
<polygon fill="white" stroke="#666666" points="201,-204 122,-204 122,-185 201,-185 201,-204"/>
<text text-anchor="middle" x="161.5" y="-192" font-family="Ubuntu Mono" font-size="10.00">testMsgField</text>
</a>
</g>
</g>
<!-- Node2&#45;&gt;Node13 -->
<g id="edge12_Node000002_Node000013" class="edge">
<title>Node2&#45;&gt;Node13</title>
<g id="a_edge12_Node000002_Node000013"><a xlink:title=" ">
<path fill="none" stroke="#63b8ff" d="M273.71,-252.42C258.38,-240.52 236.23,-224.53 215,-213.5 208.12,-209.92 200.41,-206.73 193.07,-204.02"/>
<polygon fill="#63b8ff" stroke="#63b8ff" points="271.88,-255.43 281.89,-258.88 276.22,-249.94 271.88,-255.43"/>
</a>
</g>
</g>
<!-- Node14 -->
<g id="Node000014" class="node">
<title>Node14</title>
<g id="a_Node000014"><a xlink:href="testAsync_8cpp.html#adeff2e00c34ac98a6804d92045d9bc14" target="_top" xlink:title=" ">
<polygon fill="white" stroke="#666666" points="201.5,-167 121.5,-167 121.5,-148 201.5,-148 201.5,-167"/>
<text text-anchor="middle" x="161.5" y="-155" font-family="Ubuntu Mono" font-size="10.00">testSendMsg</text>
</a>
</g>
</g>
<!-- Node2&#45;&gt;Node14 -->
<g id="edge13_Node000002_Node000014" class="edge">
<title>Node2&#45;&gt;Node14</title>
<g id="a_edge13_Node000002_Node000014"><a xlink:title=" ">
<path fill="none" stroke="#63b8ff" d="M282.17,-250.25C268.56,-229.68 243.89,-196.51 215,-176.5 209.5,-172.69 203.15,-169.56 196.81,-167.01"/>
<polygon fill="#63b8ff" stroke="#63b8ff" points="279.27,-252.21 287.63,-258.72 285.16,-248.42 279.27,-252.21"/>
</a>
</g>
</g>
<!-- Node15 -->
<g id="Node000015" class="node">
<title>Node15</title>
<g id="a_Node000015"><a xlink:href="testAsync_8cpp.html#a15622d9bbd8efd516be27a451d8d3242" target="_top" xlink:title=" ">
<polygon fill="white" stroke="#666666" points="195.5,-130 127.5,-130 127.5,-111 195.5,-111 195.5,-130"/>
<text text-anchor="middle" x="161.5" y="-118" font-family="Ubuntu Mono" font-size="10.00">testSetGet</text>
</a>
</g>
</g>
<!-- Node2&#45;&gt;Node15 -->
<g id="edge14_Node000002_Node000015" class="edge">
<title>Node2&#45;&gt;Node15</title>
<g id="a_edge14_Node000002_Node000015"><a xlink:title=" ">
<path fill="none" stroke="#63b8ff" d="M286.67,-249.46C275.73,-221.53 251.7,-169.53 215,-139.5 209.37,-134.9 202.54,-131.36 195.68,-128.66"/>
<polygon fill="#63b8ff" stroke="#63b8ff" points="283.42,-250.76 290.22,-258.89 289.97,-248.29 283.42,-250.76"/>
</a>
</g>
</g>
<!-- Node16 -->
<g id="Node000016" class="node">
<title>Node16</title>
<g id="a_Node000016"><a xlink:href="testAsync_8cpp.html#a53399e0be4d02cdf1a0b2b0e95762a1c" target="_top" xlink:title=" ">
<polygon fill="white" stroke="#666666" points="215,-93 108,-93 108,-74 215,-74 215,-93"/>
<text text-anchor="middle" x="161.5" y="-81" font-family="Ubuntu Mono" font-size="10.00">testSetGetExtField</text>
</a>
</g>
</g>
<!-- Node2&#45;&gt;Node16 -->
<g id="edge15_Node000002_Node000016" class="edge">
<title>Node2&#45;&gt;Node16</title>
<g id="a_edge15_Node000002_Node000016"><a xlink:title=" ">
<path fill="none" stroke="#63b8ff" d="M289.41,-248.94C281.23,-214.57 259.69,-143.15 215,-102.5 210.77,-98.65 205.7,-95.57 200.4,-93.1"/>
<polygon fill="#63b8ff" stroke="#63b8ff" points="285.99,-249.72 291.6,-258.71 292.82,-248.19 285.99,-249.72"/>
</a>
</g>
</g>
<!-- Node17 -->
<g id="Node000017" class="node">
<title>Node17</title>
<g id="a_Node000017"><a xlink:href="testAsync_8cpp.html#af8b0efc90939c2247b1d6de7987d3c71" target="_top" xlink:title=" ">
<polygon fill="white" stroke="#666666" points="194.5,-56 128.5,-56 128.5,-37 194.5,-37 194.5,-56"/>
<text text-anchor="middle" x="161.5" y="-44" font-family="Ubuntu Mono" font-size="10.00">testStrGet</text>
</a>
</g>
</g>
<!-- Node2&#45;&gt;Node17 -->
<g id="edge16_Node000002_Node000017" class="edge">
<title>Node2&#45;&gt;Node17</title>
<g id="a_edge16_Node000002_Node000017"><a xlink:title=" ">
<path fill="none" stroke="#63b8ff" d="M291.32,-248.87C285.85,-208.87 267.96,-117.32 215,-65.5 209.39,-60.01 202.07,-56.09 194.69,-53.3"/>
<polygon fill="#63b8ff" stroke="#63b8ff" points="287.86,-249.43 292.57,-258.92 294.81,-248.56 287.86,-249.43"/>
</a>
</g>
</g>
<!-- Node18 -->
<g id="Node000018" class="node">
<title>Node18</title>
<g id="a_Node000018"><a xlink:href="testAsync_8cpp.html#adbb0b720827d0faa5b02e7abfa95ca9c" target="_top" xlink:title=" ">
<polygon fill="white" stroke="#666666" points="194,-19 129,-19 129,0 194,0 194,-19"/>
<text text-anchor="middle" x="161.5" y="-7" font-family="Ubuntu Mono" font-size="10.00">testStrSet</text>
</a>
</g>
</g>
<!-- Node2&#45;&gt;Node18 -->
<g id="edge17_Node000002_Node000018" class="edge">
<title>Node2&#45;&gt;Node18</title>
<g id="a_edge17_Node000002_Node000018"><a xlink:title=" ">
<path fill="none" stroke="#63b8ff" d="M292.78,-248.61C290.05,-203.11 277.05,-90.51 215,-27.5 209.32,-21.73 201.72,-17.81 194.06,-15.15"/>
<polygon fill="#63b8ff" stroke="#63b8ff" points="289.29,-248.85 293.27,-258.66 296.28,-248.5 289.29,-248.85"/>
</a>
</g>
</g>
<!-- Node5 -->
<g id="Node000005" class="node">
<title>Node5</title>
<g id="a_Node000005"><a xlink:href="testBuiltins_8cpp.html#a7ab6d854a57ffd12234aa6d0e54e7520" target="_top" xlink:title=" ">
<polygon fill="white" stroke="#666666" points="72,-500 0,-500 0,-481 72,-481 72,-500"/>
<text text-anchor="middle" x="36" y="-488" font-family="Ubuntu Mono" font-size="10.00">testBuiltins</text>
</a>
</g>
</g>
<!-- Node4&#45;&gt;Node5 -->
<g id="edge4_Node000004_Node000005" class="edge">
<title>Node4&#45;&gt;Node5</title>
<g id="a_edge4_Node000004_Node000005"><a xlink:title=" ">
<path fill="none" stroke="#63b8ff" d="M121.8,-490.5C105.9,-490.5 87.61,-490.5 72.1,-490.5"/>
<polygon fill="#63b8ff" stroke="#63b8ff" points="121.86,-494 131.86,-490.5 121.86,-487 121.86,-494"/>
</a>
</g>
</g>
<!-- Node7 -->
<g id="Node000007" class="node">
<title>Node7</title>
<g id="a_Node000007"><a xlink:href="testMsg_8cpp.html#abbd289522f4195e882d3bd397b4ebfb3" target="_top" xlink:title=" ">
<polygon fill="white" stroke="#666666" points="64,-426 8,-426 8,-407 64,-407 64,-426"/>
<text text-anchor="middle" x="36" y="-414" font-family="Ubuntu Mono" font-size="10.00">testMsg</text>
</a>
</g>
</g>
<!-- Node6&#45;&gt;Node7 -->
<g id="edge6_Node000006_Node000007" class="edge">
<title>Node6&#45;&gt;Node7</title>
<g id="a_edge6_Node000006_Node000007"><a xlink:title=" ">
<path fill="none" stroke="#63b8ff" d="M102.28,-416.5C88.95,-416.5 75.39,-416.5 64.11,-416.5"/>
<polygon fill="#63b8ff" stroke="#63b8ff" points="102.4,-420 112.4,-416.5 102.4,-413 102.4,-420"/>
</a>
</g>
</g>
<!-- Node19&#45;&gt;Node2 -->
<g id="edge19_Node000019_Node000002" class="edge">
<title>Node19&#45;&gt;Node2</title>
<g id="a_edge19_Node000019_Node000002"><a xlink:title=" ">
<path fill="none" stroke="#63b8ff" d="M374.79,-293.82C358.71,-288.69 340.46,-282.86 325.52,-278.09"/>
<polygon fill="#63b8ff" stroke="#63b8ff" points="373.88,-297.2 384.47,-296.91 376.01,-290.53 373.88,-297.2"/>
</a>
</g>
</g>
<!-- Node19&#45;&gt;Node4 -->
<g id="edge20_Node000019_Node000004" class="edge">
<title>Node19&#45;&gt;Node4</title>
<g id="a_edge20_Node000019_Node000004"><a xlink:title=" ">
<path fill="none" stroke="#63b8ff" d="M398.27,-323.66C366.16,-356.73 291.04,-429.75 215,-472.5 207.61,-476.66 199.1,-480.08 191.1,-482.79"/>
<polygon fill="#63b8ff" stroke="#63b8ff" points="401.07,-325.8 405.48,-316.16 396.03,-320.95 401.07,-325.8"/>
</a>
</g>
</g>
</g>
</svg>
