<?xml version="1.0" encoding="UTF-8" standalone="no"?>
<!DOCTYPE svg PUBLIC "-//W3C//DTD SVG 1.1//EN"
 "http://www.w3.org/Graphics/SVG/1.1/DTD/svg11.dtd">
<!-- Generated by graphviz version 2.43.0 (0)
 -->
<!-- Title: buildFinfoElement Pages: 1 -->
<svg width="553pt" height="64pt"
 viewBox="0.00 0.00 553.00 64.00" xmlns="http://www.w3.org/2000/svg" xmlns:xlink="http://www.w3.org/1999/xlink">
<g id="graph0" class="graph" transform="scale(1 1) rotate(0) translate(4 60)">
<title>buildFinfoElement</title>
<!-- Node1 -->
<g id="Node000001" class="node">
<title>Node1</title>
<g id="a_Node000001"><a xlink:title=" ">
<polygon fill="#999999" stroke="#666666" points="545,-37 440,-37 440,-18 545,-18 545,-37"/>
<text text-anchor="middle" x="492.5" y="-25" font-family="Ubuntu Mono" font-size="10.00">buildFinfoElement</text>
</a>
</g>
</g>
<!-- Node2 -->
<g id="Node000002" class="node">
<title>Node2</title>
<g id="a_Node000002"><a xlink:href="classCinfo.html#a5735ded022b359ea9253b98acdb63eed" target="_top" xlink:title=" ">
<polygon fill="white" stroke="#666666" points="404,-37 258,-37 258,-18 404,-18 404,-37"/>
<text text-anchor="middle" x="331" y="-25" font-family="Ubuntu Mono" font-size="10.00">Cinfo::makeCinfoElements</text>
</a>
</g>
</g>
<!-- Node1&#45;&gt;Node2 -->
<g id="edge1_Node000001_Node000002" class="edge">
<title>Node1&#45;&gt;Node2</title>
<g id="a_edge1_Node000001_Node000002"><a xlink:title=" ">
<path fill="none" stroke="#63b8ff" d="M429.66,-27.5C421.29,-27.5 412.64,-27.5 404.1,-27.5"/>
<polygon fill="#63b8ff" stroke="#63b8ff" points="429.71,-31 439.71,-27.5 429.71,-24 429.71,-31"/>
</a>
</g>
</g>
<!-- Node3 -->
<g id="Node000003" class="node">
<title>Node3</title>
<g id="a_Node000003"><a xlink:href="main_8cpp.html#a6e304b494f9a324f952d9f2033b2b136" target="_top" xlink:title=" ">
<polygon fill="white" stroke="#666666" points="184.5,-56 152.5,-56 152.5,-37 184.5,-37 184.5,-56"/>
<text text-anchor="middle" x="168.5" y="-44" font-family="Ubuntu Mono" font-size="10.00">init</text>
</a>
</g>
</g>
<!-- Node2&#45;&gt;Node3 -->
<g id="edge2_Node000002_Node000003" class="edge">
<title>Node2&#45;&gt;Node3</title>
<g id="a_edge2_Node000002_Node000003"><a xlink:title=" ">
<path fill="none" stroke="#63b8ff" d="M247.72,-37.24C223.49,-40.11 199.51,-42.95 184.61,-44.71"/>
<polygon fill="#63b8ff" stroke="#63b8ff" points="248.21,-40.71 257.73,-36.06 247.39,-33.76 248.21,-40.71"/>
</a>
</g>
</g>
<!-- Node5 -->
<g id="Node000005" class="node">
<title>Node5</title>
<g id="a_Node000005"><a xlink:href="namespacepymoose.html#ac084ce08f68367317e7c014c61520ac9" target="_top" xlink:title="Initialize shell object.">
<polygon fill="white" stroke="#666666" points="222,-19 115,-19 115,0 222,0 222,-19"/>
<text text-anchor="middle" x="168.5" y="-7" font-family="Ubuntu Mono" font-size="10.00">pymoose::initShell</text>
</a>
</g>
</g>
<!-- Node2&#45;&gt;Node5 -->
<g id="edge4_Node000002_Node000005" class="edge">
<title>Node2&#45;&gt;Node5</title>
<g id="a_edge4_Node000002_Node000005"><a xlink:title=" ">
<path fill="none" stroke="#63b8ff" d="M247.59,-18.26C238.94,-17.29 230.33,-16.32 222.15,-15.4"/>
<polygon fill="#63b8ff" stroke="#63b8ff" points="247.4,-21.76 257.73,-19.4 248.18,-14.8 247.4,-21.76"/>
</a>
</g>
</g>
<!-- Node4 -->
<g id="Node000004" class="node">
<title>Node4</title>
<g id="a_Node000004"><a xlink:href="main_8cpp.html#a3c04138a5bfe5d72780bb7e82a18e627" target="_top" xlink:title=" ">
<polygon fill="white" stroke="#666666" points="60,-56 19,-56 19,-37 60,-37 60,-56"/>
<text text-anchor="middle" x="39.5" y="-44" font-family="Ubuntu Mono" font-size="10.00">main</text>
</a>
</g>
</g>
<!-- Node3&#45;&gt;Node4 -->
<g id="edge3_Node000003_Node000004" class="edge">
<title>Node3&#45;&gt;Node4</title>
<g id="a_edge3_Node000003_Node000004"><a xlink:title=" ">
<path fill="none" stroke="#63b8ff" d="M142.26,-46.5C118.11,-46.5 82.19,-46.5 60.12,-46.5"/>
<polygon fill="#63b8ff" stroke="#63b8ff" points="142.43,-50 152.43,-46.5 142.43,-43 142.43,-50"/>
</a>
</g>
</g>
<!-- Node6 -->
<g id="Node000006" class="node">
<title>Node6</title>
<g id="a_Node000006"><a xlink:href="pymoose_8cpp.html#a8650e41c2375717fa66fb61a653d866e" target="_top" xlink:title=" ">
<polygon fill="white" stroke="#666666" points="79,-19 0,-19 0,0 79,0 79,-19"/>
<text text-anchor="middle" x="39.5" y="-7" font-family="Ubuntu Mono" font-size="10.00">NB_MODULE</text>
</a>
</g>
</g>
<!-- Node5&#45;&gt;Node6 -->
<g id="edge5_Node000005_Node000006" class="edge">
<title>Node5&#45;&gt;Node6</title>
<g id="a_edge5_Node000005_Node000006"><a xlink:title=" ">
<path fill="none" stroke="#63b8ff" d="M104.65,-9.5C96.02,-9.5 87.37,-9.5 79.34,-9.5"/>
<polygon fill="#63b8ff" stroke="#63b8ff" points="104.74,-13 114.74,-9.5 104.74,-6 104.74,-13"/>
</a>
</g>
</g>
</g>
</svg>
