<?xml version="1.0" encoding="UTF-8" standalone="no"?>
<!DOCTYPE svg PUBLIC "-//W3C//DTD SVG 1.1//EN"
 "http://www.w3.org/Graphics/SVG/1.1/DTD/svg11.dtd">
<!-- Generated by graphviz version 2.43.0 (0)
 -->
<!-- Title: DiffAmp::process Pages: 1 -->
<!--zoomable 954 -->

<svg id="main" version="1.1" xmlns="http://www.w3.org/2000/svg" xmlns:xlink="http://www.w3.org/1999/xlink" xml:space="preserve" onload="init(evt)">
<style type="text/css"><![CDATA[
.node, .edge {opacity: 0.7;}
.node.selected, .edge.selected {opacity: 1;}
.edge:hover path { stroke: red; }
.edge:hover polygon { stroke: red; fill: red; }
]]></style>

<defs>
  <circle id="rim" cx="0" cy="0" r="7"/>
  <circle id="rim2" cx="0" cy="0" r="3.5"/>
  <g id="zoomPlus">
    <use xlink:href="#rim" fill="#404040"><set attributeName="fill" to="#808080" begin="zoomplus.mouseover" end="zoomplus.mouseout"/></use>
    <path d="M-4,0h8M0,-4v8" fill="none" stroke="white" stroke-width="1.5" pointer-events="none"/>
  </g>
  <g id="zoomMin">
    <use xlink:href="#rim" fill="#404040"><set attributeName="fill" to="#808080" begin="zoomminus.mouseover" end="zoomminus.mouseout"/></use>
    <path d="M-4,0h8" fill="none" stroke="white" stroke-width="1.5" pointer-events="none"/>
  </g>
  <g id="arrowUp" transform="translate(30 24)">
    <use xlink:href="#rim"/>
    <path pointer-events="none" fill="none" stroke="white" stroke-width="1.5" d="M0,-3.0v7 M-2.5,-0.5L0,-3.0L2.5,-0.5"/>
  </g>
  <g id="arrowRight" transform="rotate(90) translate(36 -43)">
    <use xlink:href="#rim"/>
    <path pointer-events="none" fill="none" stroke="white" stroke-width="1.5" d="M0,-3.0v7 M-2.5,-0.5L0,-3.0L2.5,-0.5"/>
  </g>
  <g id="arrowDown" transform="rotate(180) translate(-30 -48)">
    <use xlink:href="#rim"/>
    <path pointer-events="none" fill="none" stroke="white" stroke-width="1.5" d="M0,-3.0v7 M-2.5,-0.5L0,-3.0L2.5,-0.5"/>
  </g>
  <g id="arrowLeft" transform="rotate(270) translate(-36 17)">
    <use xlink:href="#rim"/>
    <path pointer-events="none" fill="none" stroke="white" stroke-width="1.5" d="M0,-3.0v7 M-2.5,-0.5L0,-3.0L2.5,-0.5"/>
  </g>
  <g id="resetDef">
    <use xlink:href="#rim2" fill="#404040"><set attributeName="fill" to="#808080" begin="reset.mouseover" end="reset.mouseout"/></use>
  </g>
</defs>
<script type="application/ecmascript">
var viewWidth = 1487;
var viewHeight = 954;
var sectionId = 'dynsection-7';
</script>
<script type="application/ecmascript" xlink:href="svg.min.js"/>
<svg id="graph" class="graph">
<g id="viewport">
<title>DiffAmp::process</title>
<!-- Node1 -->
<g id="Node000001" class="node">
<title>Node1</title>
<g id="a_Node000001"><a xlink:title=" ">
<polygon fill="#999999" stroke="#666666" points="100,-831.5 0,-831.5 0,-812.5 100,-812.5 100,-831.5"/>
<text text-anchor="middle" x="50" y="-819.5" font-family="Ubuntu Mono" font-size="10.00">DiffAmp::process</text>
</a>
</g>
</g>
<!-- Node2 -->
<g id="Node000002" class="node">
<title>Node2</title>
<g id="a_Node000002"><a xlink:href="DiffAmp_8cpp.html#a502f6b6b4b9682ab7bc5bdfd828f9016" target="_top" xlink:title=" ">
<polygon fill="white" stroke="#666666" points="214,-897.5 149,-897.5 149,-878.5 214,-878.5 214,-897.5"/>
<text text-anchor="middle" x="181.5" y="-885.5" font-family="Ubuntu Mono" font-size="10.00">outputOut</text>
</a>
</g>
</g>
<!-- Node1&#45;&gt;Node2 -->
<g id="edge1_Node000001_Node000002" class="edge">
<title>Node1&#45;&gt;Node2</title>
<g id="a_edge1_Node000001_Node000002"><a xlink:title=" ">
<path fill="none" stroke="#63b8ff" d="M69.83,-831.6C91.6,-842.69 127.64,-861.06 152.65,-873.81"/>
<polygon fill="#63b8ff" stroke="#63b8ff" points="151.15,-876.97 161.65,-878.39 154.33,-870.73 151.15,-876.97"/>
</a>
</g>
</g>
<!-- Node4 -->
<g id="Node000004" class="node">
<title>Node4</title>
<g id="a_Node000004"><a xlink:href="classSrcFinfo1.html#af6ead5e2fe7259ae6ad46a943ca0284c" target="_top" xlink:title=" ">
<polygon fill="white" stroke="#666666" points="227,-813.5 136,-813.5 136,-794.5 227,-794.5 227,-813.5"/>
<text text-anchor="middle" x="181.5" y="-801.5" font-family="Ubuntu Mono" font-size="10.00">SrcFinfo1::send</text>
</a>
</g>
</g>
<!-- Node1&#45;&gt;Node4 -->
<g id="edge3_Node000001_Node000004" class="edge">
<title>Node1&#45;&gt;Node4</title>
<g id="a_edge3_Node000001_Node000004"><a xlink:title=" ">
<path fill="none" stroke="#63b8ff" d="M100.33,-815.14C108.66,-813.99 117.36,-812.78 125.82,-811.6"/>
<polygon fill="#63b8ff" stroke="#63b8ff" points="126.56,-815.03 135.98,-810.19 125.59,-808.1 126.56,-815.03"/>
</a>
</g>
</g>
<!-- Node3 -->
<g id="Node000003" class="node">
<title>Node3</title>
<g id="a_Node000003"><a xlink:href="classSrcFinfo1.html#a530c4cec4de6226aa2a32c28f8448b7e" target="_top" xlink:title=" ">
<polygon fill="white" stroke="#666666" points="382.5,-945.5 269.5,-945.5 269.5,-926.5 382.5,-926.5 382.5,-945.5"/>
<text text-anchor="middle" x="326" y="-933.5" font-family="Ubuntu Mono" font-size="10.00">SrcFinfo1::SrcFinfo1</text>
</a>
</g>
</g>
<!-- Node2&#45;&gt;Node3 -->
<g id="edge2_Node000002_Node000003" class="edge">
<title>Node2&#45;&gt;Node3</title>
<g id="a_edge2_Node000002_Node000003"><a xlink:title=" ">
<path fill="none" stroke="#63b8ff" d="M206.64,-897.53C222.54,-903.68 243.89,-911.67 263,-918 268.66,-919.87 274.64,-921.74 280.57,-923.53"/>
<polygon fill="#63b8ff" stroke="#63b8ff" points="279.84,-926.97 290.43,-926.45 281.83,-920.26 279.84,-926.97"/>
</a>
</g>
</g>
<!-- Node5 -->
<g id="Node000005" class="node">
<title>Node5</title>
<g id="a_Node000005"><a xlink:href="classEref.html#aca13ad32862935d4a33109785d0f01d7" target="_top" xlink:title=" ">
<polygon fill="white" stroke="#666666" points="1215.5,-758.5 1125.5,-758.5 1125.5,-739.5 1215.5,-739.5 1215.5,-758.5"/>
<text text-anchor="middle" x="1170.5" y="-746.5" font-family="Ubuntu Mono" font-size="10.00">Eref::dataIndex</text>
</a>
</g>
</g>
<!-- Node4&#45;&gt;Node5 -->
<g id="edge4_Node000004_Node000005" class="edge">
<title>Node4&#45;&gt;Node5</title>
<g id="a_edge4_Node000004_Node000005"><a xlink:title=" ">
<path fill="none" stroke="#63b8ff" d="M201.5,-813.57C217.5,-821.19 241.19,-831.46 263,-837 358.55,-861.27 384.92,-861 483.5,-861 483.5,-861 483.5,-861 836.5,-861 946.57,-861 983.67,-884.43 1083,-837 1115.84,-821.32 1143.18,-787.7 1157.86,-766.86"/>
<polygon fill="#63b8ff" stroke="#63b8ff" points="1160.79,-768.78 1163.53,-758.54 1155.01,-764.84 1160.79,-768.78"/>
</a>
</g>
</g>
<!-- Node6 -->
<g id="Node000006" class="node">
<title>Node6</title>
<g id="a_Node000006"><a xlink:href="classEref.html#a47b59ab86165cceb0bde80c76c3f7fa2" target="_top" xlink:title=" ">
<polygon fill="white" stroke="#666666" points="1211.5,-497.5 1129.5,-497.5 1129.5,-478.5 1211.5,-478.5 1211.5,-497.5"/>
<text text-anchor="middle" x="1170.5" y="-485.5" font-family="Ubuntu Mono" font-size="10.00">Eref::element</text>
</a>
</g>
</g>
<!-- Node4&#45;&gt;Node6 -->
<g id="edge5_Node000004_Node000006" class="edge">
<title>Node4&#45;&gt;Node6</title>
<g id="a_edge5_Node000004_Node000006"><a xlink:title=" ">
<path fill="none" stroke="#63b8ff" d="M227.07,-808.58C285.77,-814.2 392.26,-823 483.5,-823 483.5,-823 483.5,-823 836.5,-823 891.44,-823 1042.56,-841.19 1083,-804 1156.58,-736.34 1086.91,-676.66 1119,-582 1128.47,-554.06 1145.7,-524.51 1157.37,-506.16"/>
<polygon fill="#63b8ff" stroke="#63b8ff" points="1160.38,-507.95 1162.9,-497.66 1154.51,-504.13 1160.38,-507.95"/>
</a>
</g>
</g>
<!-- Node7 -->
<g id="Node000007" class="node">
<title>Node7</title>
<g id="a_Node000007"><a xlink:href="classEref.html#a3addb850bc6cbac7771a07de219d909d" target="_top" xlink:title=" ">
<polygon fill="white" stroke="#666666" points="1046.5,-794.5 985.5,-794.5 985.5,-775.5 1046.5,-775.5 1046.5,-794.5"/>
<text text-anchor="middle" x="1016" y="-782.5" font-family="Ubuntu Mono" font-size="10.00">Eref::Eref</text>
</a>
</g>
</g>
<!-- Node4&#45;&gt;Node7 -->
<g id="edge6_Node000004_Node000007" class="edge">
<title>Node4&#45;&gt;Node7</title>
<g id="a_edge6_Node000004_Node000007"><a xlink:title=" ">
<path fill="none" stroke="#63b8ff" d="M227.07,-799.42C285.77,-793.8 392.26,-785 483.5,-785 483.5,-785 483.5,-785 652,-785 769.55,-785 908.51,-785 975.27,-785"/>
<polygon fill="#63b8ff" stroke="#63b8ff" points="975.36,-788.5 985.36,-785 975.36,-781.5 975.36,-788.5"/>
</a>
</g>
</g>
<!-- Node8 -->
<g id="Node000008" class="node">
<title>Node8</title>
<g id="a_Node000008"><a xlink:href="classSrcFinfo.html#aa90db29c818e71d31322c35bfec2f731" target="_top" xlink:title=" ">
<polygon fill="white" stroke="#666666" points="389,-908.5 263,-908.5 263,-889.5 389,-889.5 389,-908.5"/>
<text text-anchor="middle" x="326" y="-896.5" font-family="Ubuntu Mono" font-size="10.00">SrcFinfo::getBindIndex</text>
</a>
</g>
</g>
<!-- Node4&#45;&gt;Node8 -->
<g id="edge7_Node000004_Node000008" class="edge">
<title>Node4&#45;&gt;Node8</title>
<g id="a_edge7_Node000004_Node000008"><a xlink:title=" ">
<path fill="none" stroke="#63b8ff" d="M191.53,-813.95C205.56,-828.93 234.02,-857.39 263,-875 269.73,-879.09 277.27,-882.7 284.72,-885.8"/>
<polygon fill="#63b8ff" stroke="#63b8ff" points="283.44,-889.06 294.03,-889.45 286,-882.55 283.44,-889.06"/>
</a>
</g>
</g>
<!-- Node9 -->
<g id="Node000009" class="node">
<title>Node9</title>
<g id="a_Node000009"><a xlink:href="classElement.html#a8d7debb27e67d5fc97697cddc9d69542" target="_top" xlink:title="Returns index of first data entry on this node.">
<polygon fill="white" stroke="#666666" points="1082.5,-122.5 949.5,-122.5 949.5,-103.5 1082.5,-103.5 1082.5,-122.5"/>
<text text-anchor="middle" x="1016" y="-110.5" font-family="Ubuntu Mono" font-size="10.00">Element::localDataStart</text>
</a>
</g>
</g>
<!-- Node4&#45;&gt;Node9 -->
<g id="edge8_Node000004_Node000009" class="edge">
<title>Node4&#45;&gt;Node9</title>
<g id="a_edge8_Node000004_Node000009"><a xlink:title=" ">
<path fill="none" stroke="#63b8ff" d="M182.62,-794.47C184.14,-717.24 204.72,-197 483.5,-197 483.5,-197 483.5,-197 652,-197 776.03,-197 917.9,-149.88 981.31,-126.22"/>
<polygon fill="#63b8ff" stroke="#63b8ff" points="982.68,-129.44 990.8,-122.64 980.21,-122.9 982.68,-129.44"/>
</a>
</g>
</g>
<!-- Node10 -->
<g id="Node000010" class="node">
<title>Node10</title>
<g id="a_Node000010"><a xlink:href="classEref.html#a5c15b71e3463adaa4623267ada92c898" target="_top" xlink:title=" ">
<polygon fill="white" stroke="#666666" points="373,-737.5 279,-737.5 279,-718.5 373,-718.5 373,-737.5"/>
<text text-anchor="middle" x="326" y="-725.5" font-family="Ubuntu Mono" font-size="10.00">Eref::msgDigest</text>
</a>
</g>
</g>
<!-- Node4&#45;&gt;Node10 -->
<g id="edge9_Node000004_Node000010" class="edge">
<title>Node4&#45;&gt;Node10</title>
<g id="a_edge9_Node000004_Node000010"><a xlink:title=" ">
<path fill="none" stroke="#63b8ff" d="M200.55,-794.37C225.17,-781.24 269.5,-757.6 298.07,-742.36"/>
<polygon fill="#63b8ff" stroke="#63b8ff" points="299.92,-745.34 307.1,-737.55 296.63,-739.16 299.92,-745.34"/>
</a>
</g>
</g>
<!-- Node39 -->
<g id="Node000039" class="node">
<title>Node39</title>
<g id="a_Node000039"><a xlink:href="classElement.html#abee6d5e3b26374c8c196c6065543706d" target="_top" xlink:title="Returns number of local data entries on this node.">
<polygon fill="white" stroke="#666666" points="1083,-85.5 949,-85.5 949,-66.5 1083,-66.5 1083,-85.5"/>
<text text-anchor="middle" x="1016" y="-73.5" font-family="Ubuntu Mono" font-size="10.00">Element::numLocalData</text>
</a>
</g>
</g>
<!-- Node4&#45;&gt;Node39 -->
<g id="edge61_Node000004_Node000039" class="edge">
<title>Node4&#45;&gt;Node39</title>
<g id="a_edge61_Node000004_Node000039"><a xlink:title=" ">
<path fill="none" stroke="#63b8ff" d="M182.99,-794.14C186.5,-726.08 209.25,-325.46 263,-218 324.65,-94.75 345.69,0 483.5,0 483.5,0 483.5,0 652,0 773.62,0 913.4,-41.38 978.32,-63.07"/>
<polygon fill="#63b8ff" stroke="#63b8ff" points="977.49,-66.48 988.08,-66.37 979.73,-59.85 977.49,-66.48"/>
</a>
</g>
</g>
<!-- Node11 -->
<g id="Node000011" class="node">
<title>Node11</title>
<g id="a_Node000011"><a xlink:href="classElement.html#a33610036b72724ca3b7fedaf7e692841" target="_top" xlink:title=" ">
<polygon fill="white" stroke="#666666" points="1059.5,-757.5 972.5,-757.5 972.5,-738.5 1059.5,-738.5 1059.5,-757.5"/>
<text text-anchor="middle" x="1016" y="-745.5" font-family="Ubuntu Mono" font-size="10.00">Element::cinfo</text>
</a>
</g>
</g>
<!-- Node10&#45;&gt;Node11 -->
<g id="edge10_Node000010_Node000011" class="edge">
<title>Node10&#45;&gt;Node11</title>
<g id="a_edge10_Node000010_Node000011"><a xlink:title=" ">
<path fill="none" stroke="#63b8ff" d="M373.21,-729.34C496.27,-732.92 831.41,-742.66 961.95,-746.46"/>
<polygon fill="#63b8ff" stroke="#63b8ff" points="962,-749.96 972.1,-746.75 962.21,-742.96 962,-749.96"/>
</a>
</g>
</g>
<!-- Node12 -->
<g id="Node000012" class="node">
<title>Node12</title>
<g id="a_Node000012"><a xlink:href="classElement.html#af00354d706575077c20c9865f340f93f" target="_top" xlink:title=" ">
<polygon fill="white" stroke="#666666" points="542.5,-718.5 426.5,-718.5 426.5,-699.5 542.5,-699.5 542.5,-718.5"/>
<text text-anchor="middle" x="484.5" y="-706.5" font-family="Ubuntu Mono" font-size="10.00">Element::msgDigest</text>
</a>
</g>
</g>
<!-- Node10&#45;&gt;Node12 -->
<g id="edge11_Node000010_Node000012" class="edge">
<title>Node10&#45;&gt;Node12</title>
<g id="a_edge11_Node000010_Node000012"><a xlink:title=" ">
<path fill="none" stroke="#63b8ff" d="M373.11,-722.4C386.66,-720.76 401.77,-718.92 416.36,-717.15"/>
<polygon fill="#63b8ff" stroke="#63b8ff" points="416.84,-720.62 426.34,-715.94 415.99,-713.67 416.84,-720.62"/>
</a>
</g>
</g>
<!-- Node42 -->
<g id="Node000042" class="node">
<title>Node42</title>
<g id="a_Node000042"><a xlink:href="classCinfo.html#a2fc76e571de8791c7d2e4ca04c770ffb" target="_top" xlink:title=" ">
<polygon fill="white" stroke="#666666" points="544,-681.5 425,-681.5 425,-662.5 544,-662.5 544,-681.5"/>
<text text-anchor="middle" x="484.5" y="-669.5" font-family="Ubuntu Mono" font-size="10.00">Cinfo::numBindIndex</text>
</a>
</g>
</g>
<!-- Node10&#45;&gt;Node42 -->
<g id="edge60_Node000010_Node000042" class="edge">
<title>Node10&#45;&gt;Node42</title>
<g id="a_edge60_Node000010_Node000042"><a xlink:title=" ">
<path fill="none" stroke="#63b8ff" d="M351.45,-718.4C371.21,-710.74 399.77,-699.85 425,-691 430.95,-688.91 437.27,-686.78 443.47,-684.72"/>
<polygon fill="#63b8ff" stroke="#63b8ff" points="444.63,-688.03 453.05,-681.59 442.45,-681.37 444.63,-688.03"/>
</a>
</g>
</g>
<!-- Node13 -->
<g id="Node000013" class="node">
<title>Node13</title>
<g id="a_Node000013"><a xlink:href="classElement.html#a722a219697e0d390675dff185ae8de28" target="_top" xlink:title=" ">
<polygon fill="white" stroke="#666666" points="722,-624.5 580,-624.5 580,-605.5 722,-605.5 722,-624.5"/>
<text text-anchor="middle" x="651" y="-612.5" font-family="Ubuntu Mono" font-size="10.00">Element::digestMessages</text>
</a>
</g>
</g>
<!-- Node12&#45;&gt;Node13 -->
<g id="edge12_Node000012_Node000013" class="edge">
<title>Node12&#45;&gt;Node13</title>
<g id="a_edge12_Node000012_Node000013"><a xlink:title=" ">
<path fill="none" stroke="#63b8ff" d="M523.03,-699.43C530.15,-697.07 537.43,-694.26 544,-691 577.02,-674.63 610.9,-648.36 631.2,-631.39"/>
<polygon fill="#63b8ff" stroke="#63b8ff" points="633.67,-633.88 639.02,-624.74 629.13,-628.55 633.67,-633.88"/>
</a>
</g>
</g>
<!-- Node14 -->
<g id="Node000014" class="node">
<title>Node14</title>
<g id="a_Node000014"><a xlink:href="Element_8cpp.html#af36606da2859789d69ab11f9ae6354e7" target="_top" xlink:title=" ">
<polygon fill="white" stroke="#666666" points="880,-718.5 791,-718.5 791,-699.5 880,-699.5 880,-718.5"/>
<text text-anchor="middle" x="835.5" y="-706.5" font-family="Ubuntu Mono" font-size="10.00">findNumDigest</text>
</a>
</g>
</g>
<!-- Node13&#45;&gt;Node14 -->
<g id="edge13_Node000013_Node000014" class="edge">
<title>Node13&#45;&gt;Node14</title>
<g id="a_edge13_Node000013_Node000014"><a xlink:title=" ">
<path fill="none" stroke="#63b8ff" d="M662.26,-624.51C680.24,-640.66 719.24,-673.39 758,-691 765.16,-694.25 772.98,-696.96 780.79,-699.19"/>
<polygon fill="#63b8ff" stroke="#63b8ff" points="780.07,-702.62 790.63,-701.77 781.85,-695.85 780.07,-702.62"/>
</a>
</g>
</g>
<!-- Node15 -->
<g id="Node000015" class="node">
<title>Node15</title>
<g id="a_Node000015"><a xlink:href="classFuncOrder.html#a1e3804483f62e1b894dbaed343711033" target="_top" xlink:title=" ">
<polygon fill="white" stroke="#666666" points="885,-681.5 786,-681.5 786,-662.5 885,-662.5 885,-681.5"/>
<text text-anchor="middle" x="835.5" y="-669.5" font-family="Ubuntu Mono" font-size="10.00">FuncOrder::index</text>
</a>
</g>
</g>
<!-- Node13&#45;&gt;Node15 -->
<g id="edge14_Node000013_Node000015" class="edge">
<title>Node13&#45;&gt;Node15</title>
<g id="a_edge14_Node000013_Node000015"><a xlink:title=" ">
<path fill="none" stroke="#63b8ff" d="M682.55,-624.54C713.21,-634.12 760.61,-648.92 794.3,-659.45"/>
<polygon fill="#63b8ff" stroke="#63b8ff" points="793.27,-662.79 803.85,-662.43 795.35,-656.11 793.27,-662.79"/>
</a>
</g>
</g>
<!-- Node16 -->
<g id="Node000016" class="node">
<title>Node16</title>
<g id="a_Node000016"><a xlink:href="classElement.html#ae764f4baa2a88e55072eb0a5b15718c4" target="_top" xlink:title="Returns number of data entries across all nodes.">
<polygon fill="white" stroke="#666666" points="1070,-720.5 962,-720.5 962,-701.5 1070,-701.5 1070,-720.5"/>
<text text-anchor="middle" x="1016" y="-708.5" font-family="Ubuntu Mono" font-size="10.00">Element::numData</text>
</a>
</g>
</g>
<!-- Node13&#45;&gt;Node16 -->
<g id="edge15_Node000013_Node000016" class="edge">
<title>Node13&#45;&gt;Node16</title>
<g id="a_edge15_Node000013_Node000016"><a xlink:title=" ">
<path fill="none" stroke="#63b8ff" d="M722.15,-620.21C787.92,-626.04 880.81,-636.96 913,-654 933.85,-665.04 928.84,-680.75 949,-693 951.79,-694.7 954.75,-696.23 957.79,-697.63"/>
<polygon fill="#63b8ff" stroke="#63b8ff" points="956.57,-700.91 967.16,-701.41 959.19,-694.42 956.57,-700.91"/>
</a>
</g>
</g>
<!-- Node17 -->
<g id="Node000017" class="node">
<title>Node17</title>
<g id="a_Node000017"><a xlink:href="classShell.html#a2191e15a0bcd49569fbb297b0724a765" target="_top" xlink:title=" ">
<polygon fill="white" stroke="#666666" points="1220,-235.5 1121,-235.5 1121,-216.5 1220,-216.5 1220,-235.5"/>
<text text-anchor="middle" x="1170.5" y="-223.5" font-family="Ubuntu Mono" font-size="10.00">Shell::numNodes</text>
</a>
</g>
</g>
<!-- Node13&#45;&gt;Node17 -->
<g id="edge16_Node000013_Node000017" class="edge">
<title>Node13&#45;&gt;Node17</title>
<g id="a_edge16_Node000013_Node000017"><a xlink:title=" ">
<path fill="none" stroke="#63b8ff" d="M653.14,-605.42C661.4,-540.91 718.52,-169 949,-57 1002.57,-30.97 1032.19,-25.93 1083,-57 1137.28,-90.19 1158.88,-169.42 1166.23,-206.38"/>
<polygon fill="#63b8ff" stroke="#63b8ff" points="1162.82,-207.2 1168.07,-216.4 1169.7,-205.93 1162.82,-207.2"/>
</a>
</g>
</g>
<!-- Node18 -->
<g id="Node000018" class="node">
<title>Node18</title>
<g id="a_Node000018"><a xlink:href="Element_8cpp.html#ae676123d090f0874314d4469a1f3fe90" target="_top" xlink:title=" ">
<polygon fill="white" stroke="#666666" points="883.5,-605.5 787.5,-605.5 787.5,-586.5 883.5,-586.5 883.5,-605.5"/>
<text text-anchor="middle" x="835.5" y="-593.5" font-family="Ubuntu Mono" font-size="10.00">putFuncsInOrder</text>
</a>
</g>
</g>
<!-- Node13&#45;&gt;Node18 -->
<g id="edge17_Node000013_Node000018" class="edge">
<title>Node13&#45;&gt;Node18</title>
<g id="a_edge17_Node000013_Node000018"><a xlink:title=" ">
<path fill="none" stroke="#63b8ff" d="M722.04,-607.71C740.27,-605.81 759.7,-603.79 777.19,-601.97"/>
<polygon fill="#63b8ff" stroke="#63b8ff" points="777.66,-605.44 787.24,-600.92 776.93,-598.47 777.66,-605.44"/>
</a>
</g>
</g>
<!-- Node29 -->
<g id="Node000029" class="node">
<title>Node29</title>
<g id="a_Node000029"><a xlink:href="classElement.html#a0782085917c558ec4d56be9566688743" target="_top" xlink:title=" ">
<polygon fill="white" stroke="#666666" points="912.5,-568 758.5,-568 758.5,-538 912.5,-538 912.5,-568"/>
<text text-anchor="start" x="766.5" y="-556" font-family="Ubuntu Mono" font-size="10.00">Element::putOffNodeTargets</text>
<text text-anchor="middle" x="835.5" y="-545" font-family="Ubuntu Mono" font-size="10.00">InDigest</text>
</a>
</g>
</g>
<!-- Node13&#45;&gt;Node29 -->
<g id="edge29_Node000013_Node000029" class="edge">
<title>Node13&#45;&gt;Node29</title>
<g id="a_edge29_Node000013_Node000029"><a xlink:title=" ">
<path fill="none" stroke="#63b8ff" d="M678.96,-605.42C700.35,-597.86 731.04,-587.11 758,-578 764.49,-575.81 771.31,-573.54 778.08,-571.3"/>
<polygon fill="#63b8ff" stroke="#63b8ff" points="779.52,-574.51 787.93,-568.06 777.33,-567.86 779.52,-574.51"/>
</a>
</g>
</g>
<!-- Node32 -->
<g id="Node000032" class="node">
<title>Node32</title>
<g id="a_Node000032"><a xlink:href="classElement.html#ae5b80db45c08265b98ff433504fab66b" target="_top" xlink:title=" ">
<polygon fill="white" stroke="#666666" points="913,-328.5 758,-328.5 758,-309.5 913,-309.5 913,-328.5"/>
<text text-anchor="middle" x="835.5" y="-316.5" font-family="Ubuntu Mono" font-size="10.00">Element::putTargetsInDigest</text>
</a>
</g>
</g>
<!-- Node13&#45;&gt;Node32 -->
<g id="edge40_Node000013_Node000032" class="edge">
<title>Node13&#45;&gt;Node32</title>
<g id="a_edge40_Node000013_Node000032"><a xlink:title=" ">
<path fill="none" stroke="#63b8ff" d="M657.87,-605.49C683.82,-563.39 788.58,-393.48 823.27,-337.21"/>
<polygon fill="#63b8ff" stroke="#63b8ff" points="826.3,-338.98 828.56,-328.63 820.34,-335.3 826.3,-338.98"/>
</a>
</g>
</g>
<!-- Node18&#45;&gt;Node11 -->
<g id="edge18_Node000018_Node000011" class="edge">
<title>Node18&#45;&gt;Node11</title>
<g id="a_edge18_Node000018_Node000011"><a xlink:title=" ">
<path fill="none" stroke="#63b8ff" d="M853.61,-605.62C870.51,-615.82 896.19,-633.3 913,-654 936.57,-683.01 920.35,-706 949,-730 953.05,-733.39 957.69,-736.15 962.58,-738.39"/>
<polygon fill="#63b8ff" stroke="#63b8ff" points="961.64,-741.78 972.23,-742.09 964.15,-735.24 961.64,-741.78"/>
</a>
</g>
</g>
<!-- Node19 -->
<g id="Node000019" class="node">
<title>Node19</title>
<g id="a_Node000019"><a xlink:href="classMsg.html#a5be9f4dd643f5f662e8fb3c029273390" target="_top" xlink:title=" ">
<polygon fill="white" stroke="#666666" points="1043.5,-459.5 988.5,-459.5 988.5,-440.5 1043.5,-440.5 1043.5,-459.5"/>
<text text-anchor="middle" x="1016" y="-447.5" font-family="Ubuntu Mono" font-size="10.00">Msg::e1</text>
</a>
</g>
</g>
<!-- Node18&#45;&gt;Node19 -->
<g id="edge19_Node000018_Node000019" class="edge">
<title>Node18&#45;&gt;Node19</title>
<g id="a_edge19_Node000018_Node000019"><a xlink:title=" ">
<path fill="none" stroke="#63b8ff" d="M883.86,-591.95C894.48,-589.07 904.96,-584.43 913,-577 950.15,-542.65 912.49,-504.03 949,-469 956.95,-461.37 967.77,-456.77 978.35,-454.01"/>
<polygon fill="#63b8ff" stroke="#63b8ff" points="979.26,-457.4 988.31,-451.89 977.8,-450.55 979.26,-457.4"/>
</a>
</g>
</g>
<!-- Node20 -->
<g id="Node000020" class="node">
<title>Node20</title>
<g id="a_Node000020"><a xlink:href="classMsg.html#a893ed6b44cd4c529f0f10af38ae6743a" target="_top" xlink:title=" ">
<polygon fill="white" stroke="#666666" points="1043.5,-496.5 988.5,-496.5 988.5,-477.5 1043.5,-477.5 1043.5,-496.5"/>
<text text-anchor="middle" x="1016" y="-484.5" font-family="Ubuntu Mono" font-size="10.00">Msg::e2</text>
</a>
</g>
</g>
<!-- Node18&#45;&gt;Node20 -->
<g id="edge20_Node000018_Node000020" class="edge">
<title>Node18&#45;&gt;Node20</title>
<g id="a_edge20_Node000018_Node000020"><a xlink:title=" ">
<path fill="none" stroke="#63b8ff" d="M883.51,-590.97C894.02,-588.12 904.54,-583.73 913,-577 940.68,-554.96 921.73,-528.55 949,-506 957.36,-499.09 968.1,-494.69 978.49,-491.89"/>
<polygon fill="#63b8ff" stroke="#63b8ff" points="979.27,-495.3 988.25,-489.67 977.72,-488.48 979.27,-495.3"/>
</a>
</g>
</g>
<!-- Node21 -->
<g id="Node000021" class="node">
<title>Node21</title>
<g id="a_Node000021"><a xlink:href="classMsg.html#a1a57001709e44ab056a704c24760c105" target="_top" xlink:title=" ">
<polygon fill="white" stroke="#666666" points="1055.5,-609.5 976.5,-609.5 976.5,-590.5 1055.5,-590.5 1055.5,-609.5"/>
<text text-anchor="middle" x="1016" y="-597.5" font-family="Ubuntu Mono" font-size="10.00">Msg::getMsg</text>
</a>
</g>
</g>
<!-- Node18&#45;&gt;Node21 -->
<g id="edge21_Node000018_Node000021" class="edge">
<title>Node18&#45;&gt;Node21</title>
<g id="a_edge21_Node000018_Node000021"><a xlink:title=" ">
<path fill="none" stroke="#63b8ff" d="M883.87,-597.06C909.28,-597.63 940.56,-598.33 966.2,-598.91"/>
<polygon fill="#63b8ff" stroke="#63b8ff" points="966.36,-602.41 976.44,-599.14 966.52,-595.41 966.36,-602.41"/>
</a>
</g>
</g>
<!-- Node27 -->
<g id="Node000027" class="node">
<title>Node27</title>
<g id="a_Node000027"><a xlink:href="classCinfo.html#aa111a219c2868af6b8d7d181d5714e9d" target="_top" xlink:title=" ">
<polygon fill="white" stroke="#666666" points="1066,-646.5 966,-646.5 966,-627.5 1066,-627.5 1066,-646.5"/>
<text text-anchor="middle" x="1016" y="-634.5" font-family="Ubuntu Mono" font-size="10.00">Cinfo::getOpFunc</text>
</a>
</g>
</g>
<!-- Node18&#45;&gt;Node27 -->
<g id="edge27_Node000018_Node000027" class="edge">
<title>Node18&#45;&gt;Node27</title>
<g id="a_edge27_Node000018_Node000027"><a xlink:title=" ">
<path fill="none" stroke="#63b8ff" d="M877.9,-605.51C903.49,-611.39 936.53,-618.98 963.77,-625.23"/>
<polygon fill="#63b8ff" stroke="#63b8ff" points="962.99,-628.64 973.52,-627.47 964.55,-621.82 962.99,-628.64"/>
</a>
</g>
</g>
<!-- Node28 -->
<g id="Node000028" class="node">
<title>Node28</title>
<g id="a_Node000028"><a xlink:href="classFuncOrder.html#a4551f612b57ed99396fb4f5376c3ec71" target="_top" xlink:title=" ">
<polygon fill="white" stroke="#666666" points="1059.5,-683.5 972.5,-683.5 972.5,-664.5 1059.5,-664.5 1059.5,-683.5"/>
<text text-anchor="middle" x="1016" y="-671.5" font-family="Ubuntu Mono" font-size="10.00">FuncOrder::set</text>
</a>
</g>
</g>
<!-- Node18&#45;&gt;Node28 -->
<g id="edge28_Node000018_Node000028" class="edge">
<title>Node18&#45;&gt;Node28</title>
<g id="a_edge28_Node000018_Node000028"><a xlink:title=" ">
<path fill="none" stroke="#63b8ff" d="M879.75,-605.61C891.05,-609.16 902.88,-613.87 913,-620 932.35,-631.72 929.43,-644.64 949,-656 953.38,-658.54 958.14,-660.74 963.02,-662.63"/>
<polygon fill="#63b8ff" stroke="#63b8ff" points="961.9,-665.95 972.49,-665.91 964.19,-659.33 961.9,-665.95"/>
</a>
</g>
</g>
<!-- Node22 -->
<g id="Node000022" class="node">
<title>Node22</title>
<g id="a_Node000022"><a xlink:href="classObjId.html#a1e5933713d6a73550b0923cf63f5bfd8" target="_top" xlink:title=" ">
<polygon fill="white" stroke="#666666" points="1205.5,-609.5 1135.5,-609.5 1135.5,-590.5 1205.5,-590.5 1205.5,-609.5"/>
<text text-anchor="middle" x="1170.5" y="-597.5" font-family="Ubuntu Mono" font-size="10.00">ObjId::data</text>
</a>
</g>
</g>
<!-- Node21&#45;&gt;Node22 -->
<g id="edge22_Node000021_Node000022" class="edge">
<title>Node21&#45;&gt;Node22</title>
<g id="a_edge22_Node000021_Node000022"><a xlink:title=" ">
<path fill="none" stroke="#63b8ff" d="M1055.88,-600C1077.06,-600 1103.34,-600 1125.3,-600"/>
<polygon fill="#63b8ff" stroke="#63b8ff" points="1125.37,-603.5 1135.37,-600 1125.37,-596.5 1125.37,-603.5"/>
</a>
</g>
</g>
<!-- Node23 -->
<g id="Node000023" class="node">
<title>Node23</title>
<g id="a_Node000023"><a xlink:href="classElement.html#a1978a0a584f1b10ea4a7c67e69880042" target="_top" xlink:title=" ">
<polygon fill="white" stroke="#666666" points="1354.5,-609.5 1269.5,-609.5 1269.5,-590.5 1354.5,-590.5 1354.5,-609.5"/>
<text text-anchor="middle" x="1312" y="-597.5" font-family="Ubuntu Mono" font-size="10.00">Element::data</text>
</a>
</g>
</g>
<!-- Node22&#45;&gt;Node23 -->
<g id="edge23_Node000022_Node000023" class="edge">
<title>Node22&#45;&gt;Node23</title>
<g id="a_edge23_Node000022_Node000023"><a xlink:title=" ">
<path fill="none" stroke="#63b8ff" d="M1205.63,-600C1221.75,-600 1241.34,-600 1259.24,-600"/>
<polygon fill="#63b8ff" stroke="#63b8ff" points="1259.26,-603.5 1269.26,-600 1259.26,-596.5 1259.26,-603.5"/>
</a>
</g>
</g>
<!-- Node24 -->
<g id="Node000024" class="node">
<title>Node24</title>
<g id="a_Node000024"><a xlink:href="classId.html#a574e06330597163aef0ea4c99de7ff4a" target="_top" xlink:title="Synonym for Id::operator()()">
<polygon fill="white" stroke="#666666" points="1348,-572.5 1276,-572.5 1276,-553.5 1348,-553.5 1348,-572.5"/>
<text text-anchor="middle" x="1312" y="-560.5" font-family="Ubuntu Mono" font-size="10.00">Id::element</text>
</a>
</g>
</g>
<!-- Node22&#45;&gt;Node24 -->
<g id="edge24_Node000022_Node000024" class="edge">
<title>Node22&#45;&gt;Node24</title>
<g id="a_edge24_Node000022_Node000024"><a xlink:title=" ">
<path fill="none" stroke="#63b8ff" d="M1205.63,-590.95C1223.76,-586.14 1246.28,-580.16 1265.85,-574.98"/>
<polygon fill="#63b8ff" stroke="#63b8ff" points="1267,-578.29 1275.77,-572.34 1265.21,-571.52 1267,-578.29"/>
</a>
</g>
</g>
<!-- Node26 -->
<g id="Node000026" class="node">
<title>Node26</title>
<g id="a_Node000026"><a xlink:href="classElement.html#a73a0e468a3d6cfd6475fff4a56459075" target="_top" xlink:title=" ">
<polygon fill="white" stroke="#666666" points="1366,-646.5 1258,-646.5 1258,-627.5 1366,-627.5 1366,-646.5"/>
<text text-anchor="middle" x="1312" y="-634.5" font-family="Ubuntu Mono" font-size="10.00">Element::rawIndex</text>
</a>
</g>
</g>
<!-- Node22&#45;&gt;Node26 -->
<g id="edge26_Node000022_Node000026" class="edge">
<title>Node22&#45;&gt;Node26</title>
<g id="a_edge26_Node000022_Node000026"><a xlink:title=" ">
<path fill="none" stroke="#63b8ff" d="M1205.63,-609.05C1223.48,-613.79 1245.6,-619.65 1264.96,-624.79"/>
<polygon fill="#63b8ff" stroke="#63b8ff" points="1264.23,-628.21 1274.79,-627.4 1266.02,-621.45 1264.23,-628.21"/>
</a>
</g>
</g>
<!-- Node25 -->
<g id="Node000025" class="node">
<title>Node25</title>
<g id="a_Node000025"><a xlink:href="classId.html#a2d5e7b4d5d918aadfe45102691c2be27" target="_top" xlink:title=" ">
<polygon fill="white" stroke="#666666" points="1479,-572.5 1402,-572.5 1402,-553.5 1479,-553.5 1479,-572.5"/>
<text text-anchor="middle" x="1440.5" y="-560.5" font-family="Ubuntu Mono" font-size="10.00">Id::elements</text>
</a>
</g>
</g>
<!-- Node24&#45;&gt;Node25 -->
<g id="edge25_Node000024_Node000025" class="edge">
<title>Node24&#45;&gt;Node25</title>
<g id="a_edge25_Node000024_Node000025"><a xlink:title=" ">
<path fill="none" stroke="#63b8ff" d="M1348.24,-563C1361.65,-563 1377.17,-563 1391.56,-563"/>
<polygon fill="#63b8ff" stroke="#63b8ff" points="1391.8,-566.5 1401.8,-563 1391.8,-559.5 1391.8,-566.5"/>
</a>
</g>
</g>
<!-- Node29&#45;&gt;Node7 -->
<g id="edge33_Node000029_Node000007" class="edge">
<title>Node29&#45;&gt;Node7</title>
<g id="a_edge33_Node000029_Node000007"><a xlink:title=" ">
<path fill="none" stroke="#63b8ff" d="M901.17,-568.06C905.56,-570.84 909.58,-574.12 913,-578 969.49,-642.2 890.94,-704.22 949,-767 955.96,-774.52 965.72,-779.02 975.6,-781.67"/>
<polygon fill="#63b8ff" stroke="#63b8ff" points="974.92,-785.11 985.43,-783.76 976.37,-778.26 974.92,-785.11"/>
</a>
</g>
</g>
<!-- Node29&#45;&gt;Node11 -->
<g id="edge30_Node000029_Node000011" class="edge">
<title>Node29&#45;&gt;Node11</title>
<g id="a_edge30_Node000029_Node000011"><a xlink:title=" ">
<path fill="none" stroke="#63b8ff" d="M900.62,-568.01C905.19,-570.79 909.41,-574.09 913,-578 960,-629.09 900.74,-680.09 949,-730 952.92,-734.06 957.66,-737.23 962.78,-739.7"/>
<polygon fill="#63b8ff" stroke="#63b8ff" points="961.72,-743.04 972.3,-743.44 964.27,-736.53 961.72,-743.04"/>
</a>
</g>
</g>
<!-- Node29&#45;&gt;Node16 -->
<g id="edge38_Node000029_Node000016" class="edge">
<title>Node29&#45;&gt;Node16</title>
<g id="a_edge38_Node000029_Node000016"><a xlink:title=" ">
<path fill="none" stroke="#63b8ff" d="M899.96,-568.08C904.73,-570.85 909.17,-574.12 913,-578 950.63,-616.11 910.43,-655.84 949,-693 950.29,-694.25 951.66,-695.41 953.1,-696.49"/>
<polygon fill="#63b8ff" stroke="#63b8ff" points="951.56,-699.65 961.92,-701.87 955.21,-693.68 951.56,-699.65"/>
</a>
</g>
</g>
<!-- Node29&#45;&gt;Node17 -->
<g id="edge39_Node000029_Node000017" class="edge">
<title>Node29&#45;&gt;Node17</title>
<g id="a_edge39_Node000029_Node000017"><a xlink:title=" ">
<path fill="none" stroke="#63b8ff" d="M888.27,-568.01C943.55,-580.57 1030.31,-589.77 1083,-543 1158.41,-476.06 1086.48,-414.44 1119,-319 1128.44,-291.31 1145.67,-262.08 1157.36,-243.95"/>
<polygon fill="#63b8ff" stroke="#63b8ff" points="1160.31,-245.82 1162.89,-235.54 1154.47,-241.97 1160.31,-245.82"/>
</a>
</g>
</g>
<!-- Node29&#45;&gt;Node19 -->
<g id="edge31_Node000029_Node000019" class="edge">
<title>Node29&#45;&gt;Node19</title>
<g id="a_edge31_Node000029_Node000019"><a xlink:title=" ">
<path fill="none" stroke="#63b8ff" d="M852.76,-537.83C873.57,-519.15 911.45,-487.64 949,-469 958.19,-464.43 968.67,-460.79 978.52,-457.97"/>
<polygon fill="#63b8ff" stroke="#63b8ff" points="979.73,-461.27 988.49,-455.31 977.92,-454.5 979.73,-461.27"/>
</a>
</g>
</g>
<!-- Node29&#45;&gt;Node20 -->
<g id="edge32_Node000029_Node000020" class="edge">
<title>Node29&#45;&gt;Node20</title>
<g id="a_edge32_Node000029_Node000020"><a xlink:title=" ">
<path fill="none" stroke="#63b8ff" d="M869.58,-537.99C891.79,-528.21 921.84,-515.55 949,-506 958.52,-502.65 968.95,-499.44 978.66,-496.65"/>
<polygon fill="#63b8ff" stroke="#63b8ff" points="979.77,-499.97 988.44,-493.89 977.87,-493.23 979.77,-499.97"/>
</a>
</g>
</g>
<!-- Node29&#45;&gt;Node21 -->
<g id="edge34_Node000029_Node000021" class="edge">
<title>Node29&#45;&gt;Node21</title>
<g id="a_edge34_Node000029_Node000021"><a xlink:title=" ">
<path fill="none" stroke="#63b8ff" d="M893.47,-568C917.82,-574.41 945.88,-581.8 968.9,-587.86"/>
<polygon fill="#63b8ff" stroke="#63b8ff" points="968.19,-591.29 978.76,-590.46 969.98,-584.53 968.19,-591.29"/>
</a>
</g>
</g>
<!-- Node29&#45;&gt;Node27 -->
<g id="edge35_Node000029_Node000027" class="edge">
<title>Node29&#45;&gt;Node27</title>
<g id="a_edge35_Node000029_Node000027"><a xlink:title=" ">
<path fill="none" stroke="#63b8ff" d="M894.06,-568.04C900.7,-570.86 907.17,-574.15 913,-578 933.24,-591.35 928.43,-606.15 949,-619 951.63,-620.65 954.42,-622.14 957.3,-623.5"/>
<polygon fill="#63b8ff" stroke="#63b8ff" points="956.15,-626.82 966.73,-627.41 958.83,-620.35 956.15,-626.82"/>
</a>
</g>
</g>
<!-- Node30 -->
<g id="Node000030" class="node">
<title>Node30</title>
<g id="a_Node000030"><a xlink:href="classOpFunc.html#acebf5db12a82f08ca7aed646dfc4a99a" target="_top" xlink:title=" ">
<polygon fill="white" stroke="#666666" points="1080,-533.5 952,-533.5 952,-514.5 1080,-514.5 1080,-533.5"/>
<text text-anchor="middle" x="1016" y="-521.5" font-family="Ubuntu Mono" font-size="10.00">OpFunc::makeHopFunc</text>
</a>
</g>
</g>
<!-- Node29&#45;&gt;Node30 -->
<g id="edge36_Node000029_Node000030" class="edge">
<title>Node29&#45;&gt;Node30</title>
<g id="a_edge36_Node000029_Node000030"><a xlink:title=" ">
<path fill="none" stroke="#63b8ff" d="M912.72,-540.62C923.89,-538.8 935.34,-536.94 946.35,-535.15"/>
<polygon fill="#63b8ff" stroke="#63b8ff" points="947.01,-538.59 956.31,-533.53 945.88,-531.68 947.01,-538.59"/>
</a>
</g>
</g>
<!-- Node31 -->
<g id="Node000031" class="node">
<title>Node31</title>
<g id="a_Node000031"><a xlink:href="classMsgDigest.html#aed14727a58012c32839433c2ae957aac" target="_top" xlink:title=" ">
<polygon fill="white" stroke="#666666" points="1079,-422.5 953,-422.5 953,-403.5 1079,-403.5 1079,-422.5"/>
<text text-anchor="middle" x="1016" y="-410.5" font-family="Ubuntu Mono" font-size="10.00">MsgDigest::MsgDigest</text>
</a>
</g>
</g>
<!-- Node29&#45;&gt;Node31 -->
<g id="edge37_Node000029_Node000031" class="edge">
<title>Node29&#45;&gt;Node31</title>
<g id="a_edge37_Node000029_Node000031"><a xlink:title=" ">
<path fill="none" stroke="#63b8ff" d="M846.37,-537.9C863.92,-512.26 903.06,-460.23 949,-432 952.54,-429.82 956.35,-427.89 960.27,-426.16"/>
<polygon fill="#63b8ff" stroke="#63b8ff" points="961.55,-429.42 969.59,-422.53 959,-422.9 961.55,-429.42"/>
</a>
</g>
</g>
<!-- Node32&#45;&gt;Node9 -->
<g id="edge53_Node000032_Node000009" class="edge">
<title>Node32&#45;&gt;Node9</title>
<g id="a_edge53_Node000032_Node000009"><a xlink:title=" ">
<path fill="none" stroke="#63b8ff" d="M844.24,-309.24C858.73,-290.73 890.53,-248.96 913,-211 931.63,-179.53 921.83,-161.48 949,-137 953.47,-132.97 958.66,-129.61 964.14,-126.8"/>
<polygon fill="#63b8ff" stroke="#63b8ff" points="965.86,-129.86 973.55,-122.57 962.99,-123.48 965.86,-129.86"/>
</a>
</g>
</g>
<!-- Node32&#45;&gt;Node17 -->
<g id="edge57_Node000032_Node000017" class="edge">
<title>Node32&#45;&gt;Node17</title>
<g id="a_edge57_Node000032_Node000017"><a xlink:title=" ">
<path fill="none" stroke="#63b8ff" d="M843.63,-309.06C867.15,-276.34 941.2,-173.88 949,-170 1002.31,-143.45 1025.89,-153.13 1083,-170 1109.15,-177.73 1134.83,-196.11 1151.32,-209.71"/>
<polygon fill="#63b8ff" stroke="#63b8ff" points="1149.18,-212.49 1159.07,-216.31 1153.73,-207.16 1149.18,-212.49"/>
</a>
</g>
</g>
<!-- Node32&#45;&gt;Node19 -->
<g id="edge41_Node000032_Node000019" class="edge">
<title>Node32&#45;&gt;Node19</title>
<g id="a_edge41_Node000032_Node000019"><a xlink:title=" ">
<path fill="none" stroke="#63b8ff" d="M843.19,-328.53C858.98,-350.32 900.91,-404.02 949,-432 958.01,-437.24 968.6,-441 978.62,-443.69"/>
<polygon fill="#63b8ff" stroke="#63b8ff" points="977.84,-447.1 988.38,-446.02 979.47,-440.29 977.84,-447.1"/>
</a>
</g>
</g>
<!-- Node32&#45;&gt;Node20 -->
<g id="edge42_Node000032_Node000020" class="edge">
<title>Node32&#45;&gt;Node20</title>
<g id="a_edge42_Node000032_Node000020"><a xlink:title=" ">
<path fill="none" stroke="#63b8ff" d="M840.98,-328.83C853.73,-355.71 892.99,-430.95 949,-469 957.69,-474.91 968.26,-478.88 978.38,-481.55"/>
<polygon fill="#63b8ff" stroke="#63b8ff" points="977.72,-484.99 988.25,-483.81 979.28,-478.17 977.72,-484.99"/>
</a>
</g>
</g>
<!-- Node32&#45;&gt;Node21 -->
<g id="edge51_Node000032_Node000021" class="edge">
<title>Node32&#45;&gt;Node21</title>
<g id="a_edge51_Node000032_Node000021"><a xlink:title=" ">
<path fill="none" stroke="#63b8ff" d="M839.81,-328.72C851.23,-361.36 891.49,-469.2 949,-543 961.48,-559.02 979.01,-573.9 992.86,-584.44"/>
<polygon fill="#63b8ff" stroke="#63b8ff" points="990.82,-587.28 1000.94,-590.41 994.98,-581.65 990.82,-587.28"/>
</a>
</g>
</g>
<!-- Node32&#45;&gt;Node31 -->
<g id="edge54_Node000032_Node000031" class="edge">
<title>Node32&#45;&gt;Node31</title>
<g id="a_edge54_Node000032_Node000031"><a xlink:title=" ">
<path fill="none" stroke="#63b8ff" d="M847.88,-328.58C867.38,-344.54 908.94,-376.62 949,-395 953.29,-396.97 957.85,-398.76 962.48,-400.39"/>
<polygon fill="#63b8ff" stroke="#63b8ff" points="961.43,-403.73 972.02,-403.48 963.59,-397.07 961.43,-403.73"/>
</a>
</g>
</g>
<!-- Node33 -->
<g id="Node000033" class="node">
<title>Node33</title>
<g id="a_Node000033"><a xlink:href="Element_8cpp.html#a57a0a78418a1071569a8d86e7e8b7fc6" target="_top" xlink:title=" ">
<polygon fill="white" stroke="#666666" points="1073,-385.5 959,-385.5 959,-366.5 1073,-366.5 1073,-385.5"/>
<text text-anchor="middle" x="1016" y="-373.5" font-family="Ubuntu Mono" font-size="10.00">filterOffNodeTargets</text>
</a>
</g>
</g>
<!-- Node32&#45;&gt;Node33 -->
<g id="edge43_Node000032_Node000033" class="edge">
<title>Node32&#45;&gt;Node33</title>
<g id="a_edge43_Node000032_Node000033"><a xlink:title=" ">
<path fill="none" stroke="#63b8ff" d="M866.38,-328.54C896.24,-338.08 942.33,-352.79 975.26,-363.31"/>
<polygon fill="#63b8ff" stroke="#63b8ff" points="974.43,-366.72 985.03,-366.43 976.56,-360.05 974.43,-366.72"/>
</a>
</g>
</g>
<!-- Node36 -->
<g id="Node000036" class="node">
<title>Node36</title>
<g id="a_Node000036"><a xlink:href="classElement.html#a695b42ddcfcbedf97d74718b92da5020" target="_top" xlink:title="True if there is a copy of every dataEntry on all nodes.">
<polygon fill="white" stroke="#666666" points="1222,-347.5 1119,-347.5 1119,-328.5 1222,-328.5 1222,-347.5"/>
<text text-anchor="middle" x="1170.5" y="-335.5" font-family="Ubuntu Mono" font-size="10.00">Element::isGlobal</text>
</a>
</g>
</g>
<!-- Node32&#45;&gt;Node36 -->
<g id="edge52_Node000032_Node000036" class="edge">
<title>Node32&#45;&gt;Node36</title>
<g id="a_edge52_Node000032_Node000036"><a xlink:title=" ">
<path fill="none" stroke="#63b8ff" d="M913.32,-323.38C972.68,-326.77 1053.73,-331.39 1108.65,-334.53"/>
<polygon fill="#63b8ff" stroke="#63b8ff" points="1108.75,-338.04 1118.93,-335.11 1109.15,-331.05 1108.75,-338.04"/>
</a>
</g>
</g>
<!-- Node37 -->
<g id="Node000037" class="node">
<title>Node37</title>
<g id="a_Node000037"><a xlink:href="classFuncOrder.html#ac395ecf9872fda11b5636dcec9d6652e" target="_top" xlink:title=" ">
<polygon fill="white" stroke="#666666" points="1062.5,-309.5 969.5,-309.5 969.5,-290.5 1062.5,-290.5 1062.5,-309.5"/>
<text text-anchor="middle" x="1016" y="-297.5" font-family="Ubuntu Mono" font-size="10.00">FuncOrder::func</text>
</a>
</g>
</g>
<!-- Node32&#45;&gt;Node37 -->
<g id="edge50_Node000032_Node000037" class="edge">
<title>Node32&#45;&gt;Node37</title>
<g id="a_edge50_Node000032_Node000037"><a xlink:title=" ">
<path fill="none" stroke="#63b8ff" d="M913.24,-310.83C928.6,-309.2 944.46,-307.51 958.96,-305.97"/>
<polygon fill="#63b8ff" stroke="#63b8ff" points="959.68,-309.41 969.25,-304.87 958.93,-302.45 959.68,-309.41"/>
</a>
</g>
</g>
<!-- Node38 -->
<g id="Node000038" class="node">
<title>Node38</title>
<g id="a_Node000038"><a xlink:href="classShell.html#a4c3608b6ca5fcec63a13b12c49b9d530" target="_top" xlink:title=" ">
<polygon fill="white" stroke="#666666" points="1060,-272.5 972,-272.5 972,-253.5 1060,-253.5 1060,-272.5"/>
<text text-anchor="middle" x="1016" y="-260.5" font-family="Ubuntu Mono" font-size="10.00">Shell::myNode</text>
</a>
</g>
</g>
<!-- Node32&#45;&gt;Node38 -->
<g id="edge55_Node000032_Node000038" class="edge">
<title>Node32&#45;&gt;Node38</title>
<g id="a_edge55_Node000032_Node000038"><a xlink:title=" ">
<path fill="none" stroke="#63b8ff" d="M863.18,-309.49C885.88,-301.52 919.42,-290.02 949,-281 955.41,-279.04 962.2,-277.08 968.9,-275.2"/>
<polygon fill="#63b8ff" stroke="#63b8ff" points="969.87,-278.56 978.58,-272.52 968.01,-271.81 969.87,-278.56"/>
</a>
</g>
</g>
<!-- Node32&#45;&gt;Node39 -->
<g id="edge56_Node000032_Node000039" class="edge">
<title>Node32&#45;&gt;Node39</title>
<g id="a_edge56_Node000032_Node000039"><a xlink:title=" ">
<path fill="none" stroke="#63b8ff" d="M838.43,-309.11C845.84,-273.97 875.71,-154.08 949,-94 950.55,-92.73 952.18,-91.55 953.88,-90.45"/>
<polygon fill="#63b8ff" stroke="#63b8ff" points="955.69,-93.45 962.82,-85.62 952.36,-87.29 955.69,-93.45"/>
</a>
</g>
</g>
<!-- Node40 -->
<g id="Node000040" class="node">
<title>Node40</title>
<g id="a_Node000040"><a xlink:href="classMsg.html#a75bb9c90ff83027b60f24b1d8304128e" target="_top" xlink:title=" ">
<polygon fill="white" stroke="#666666" points="1056,-235.5 976,-235.5 976,-216.5 1056,-216.5 1056,-235.5"/>
<text text-anchor="middle" x="1016" y="-223.5" font-family="Ubuntu Mono" font-size="10.00">Msg::sources</text>
</a>
</g>
</g>
<!-- Node32&#45;&gt;Node40 -->
<g id="edge58_Node000032_Node000040" class="edge">
<title>Node32&#45;&gt;Node40</title>
<g id="a_edge58_Node000032_Node000040"><a xlink:title=" ">
<path fill="none" stroke="#63b8ff" d="M848.22,-309.3C867.88,-293.48 909.26,-262.09 949,-244 954.4,-241.54 960.21,-239.36 966.06,-237.43"/>
<polygon fill="#63b8ff" stroke="#63b8ff" points="967.33,-240.7 975.88,-234.44 965.29,-234.01 967.33,-240.7"/>
</a>
</g>
</g>
<!-- Node41 -->
<g id="Node000041" class="node">
<title>Node41</title>
<g id="a_Node000041"><a xlink:href="classMsg.html#a24399903558da20171f6bd8e317c6c38" target="_top" xlink:title=" ">
<polygon fill="white" stroke="#666666" points="1054.5,-198.5 977.5,-198.5 977.5,-179.5 1054.5,-179.5 1054.5,-198.5"/>
<text text-anchor="middle" x="1016" y="-186.5" font-family="Ubuntu Mono" font-size="10.00">Msg::targets</text>
</a>
</g>
</g>
<!-- Node32&#45;&gt;Node41 -->
<g id="edge59_Node000032_Node000041" class="edge">
<title>Node32&#45;&gt;Node41</title>
<g id="a_edge59_Node000032_Node000041"><a xlink:title=" ">
<path fill="none" stroke="#63b8ff" d="M843.45,-309.23C859.46,-287.44 901.3,-234.61 949,-207 954.8,-203.64 961.25,-200.89 967.78,-198.64"/>
<polygon fill="#63b8ff" stroke="#63b8ff" points="968.82,-201.98 977.35,-195.69 966.76,-195.29 968.82,-201.98"/>
</a>
</g>
</g>
<!-- Node33&#45;&gt;Node5 -->
<g id="edge44_Node000033_Node000005" class="edge">
<title>Node33&#45;&gt;Node5</title>
<g id="a_edge44_Node000033_Node000005"><a xlink:title=" ">
<path fill="none" stroke="#63b8ff" d="M1070.98,-385.6C1075.48,-388.08 1079.6,-391.16 1083,-395 1149.86,-470.48 1092.6,-521.69 1119,-619 1130.04,-659.69 1149.42,-705.17 1160.7,-730.1"/>
<polygon fill="#63b8ff" stroke="#63b8ff" points="1157.63,-731.82 1164.98,-739.45 1164,-728.9 1157.63,-731.82"/>
</a>
</g>
</g>
<!-- Node33&#45;&gt;Node6 -->
<g id="edge45_Node000033_Node000006" class="edge">
<title>Node33&#45;&gt;Node6</title>
<g id="a_edge45_Node000033_Node000006"><a xlink:title=" ">
<path fill="none" stroke="#63b8ff" d="M1062.41,-385.53C1069.58,-388.02 1076.7,-391.13 1083,-395 1114.75,-414.51 1142.28,-448.79 1157.32,-469.83"/>
<polygon fill="#63b8ff" stroke="#63b8ff" points="1154.57,-472.01 1163.15,-478.22 1160.31,-468.01 1154.57,-472.01"/>
</a>
</g>
</g>
<!-- Node33&#45;&gt;Node17 -->
<g id="edge49_Node000033_Node000017" class="edge">
<title>Node33&#45;&gt;Node17</title>
<g id="a_edge49_Node000033_Node000017"><a xlink:title=" ">
<path fill="none" stroke="#63b8ff" d="M1028.5,-366.47C1041.91,-355.23 1064.58,-335.81 1083,-318 1108.95,-292.91 1137.3,-262.04 1154.23,-243.2"/>
<polygon fill="#63b8ff" stroke="#63b8ff" points="1156.89,-245.48 1160.95,-235.69 1151.67,-240.81 1156.89,-245.48"/>
</a>
</g>
</g>
<!-- Node34 -->
<g id="Node000034" class="node">
<title>Node34</title>
<g id="a_Node000034"><a xlink:href="classEref.html#a5dee1e5d3e0a76726286eccbb0ffda24" target="_top" xlink:title=" ">
<polygon fill="white" stroke="#666666" points="1212,-385.5 1129,-385.5 1129,-366.5 1212,-366.5 1212,-385.5"/>
<text text-anchor="middle" x="1170.5" y="-373.5" font-family="Ubuntu Mono" font-size="10.00">Eref::getNode</text>
</a>
</g>
</g>
<!-- Node33&#45;&gt;Node34 -->
<g id="edge46_Node000033_Node000034" class="edge">
<title>Node33&#45;&gt;Node34</title>
<g id="a_edge46_Node000033_Node000034"><a xlink:title=" ">
<path fill="none" stroke="#63b8ff" d="M1073.35,-376C1088.1,-376 1103.91,-376 1118.37,-376"/>
<polygon fill="#63b8ff" stroke="#63b8ff" points="1118.63,-379.5 1128.63,-376 1118.63,-372.5 1118.63,-379.5"/>
</a>
</g>
</g>
<!-- Node33&#45;&gt;Node36 -->
<g id="edge48_Node000033_Node000036" class="edge">
<title>Node33&#45;&gt;Node36</title>
<g id="a_edge48_Node000033_Node000036"><a xlink:title=" ">
<path fill="none" stroke="#63b8ff" d="M1055.48,-366.41C1075.52,-361.42 1100.2,-355.27 1121.48,-349.97"/>
<polygon fill="#63b8ff" stroke="#63b8ff" points="1122.44,-353.33 1131.29,-347.52 1120.74,-346.54 1122.44,-353.33"/>
</a>
</g>
</g>
<!-- Node35 -->
<g id="Node000035" class="node">
<title>Node35</title>
<g id="a_Node000035"><a xlink:href="classElement.html#a6350d721871c508fbf68286a3907e4a1" target="_top" xlink:title="Returns node number of specified dataIndex.">
<polygon fill="white" stroke="#666666" points="1364,-385.5 1260,-385.5 1260,-366.5 1364,-366.5 1364,-385.5"/>
<text text-anchor="middle" x="1312" y="-373.5" font-family="Ubuntu Mono" font-size="10.00">Element::getNode</text>
</a>
</g>
</g>
<!-- Node34&#45;&gt;Node35 -->
<g id="edge47_Node000034_Node000035" class="edge">
<title>Node34&#45;&gt;Node35</title>
<g id="a_edge47_Node000034_Node000035"><a xlink:title=" ">
<path fill="none" stroke="#63b8ff" d="M1212.22,-376C1223.96,-376 1237.04,-376 1249.73,-376"/>
<polygon fill="#63b8ff" stroke="#63b8ff" points="1249.8,-379.5 1259.8,-376 1249.8,-372.5 1249.8,-379.5"/>
</a>
</g>
</g>
</g>
</svg>

<g id="navigator" transform="translate(0 0)" fill="#404254">
  <rect fill="#f2f5e9" fill-opacity="0.5" stroke="#606060" stroke-width=".5" x="0" y="0" width="60" height="60"/>
  <use id="zoomplus" xlink:href="#zoomPlus" x="17" y="9" onmousedown="handleZoom(evt,'in')"/>
  <use id="zoomminus" xlink:href="#zoomMin" x="42" y="9" onmousedown="handleZoom(evt,'out')"/>
  <use id="reset" xlink:href="#resetDef" x="30" y="36" onmousedown="handleReset()"/>
   <use id="arrowup" xlink:href="#arrowUp" x="0" y="0" onmousedown="handlePan(0,-1)"/>
  <use id="arrowright" xlink:href="#arrowRight" x="0" y="0" onmousedown="handlePan(1,0)"/>
  <use id="arrowdown" xlink:href="#arrowDown" x="0" y="0" onmousedown="handlePan(0,1)"/>
  <use id="arrowleft" xlink:href="#arrowLeft" x="0" y="0" onmousedown="handlePan(-1,0)"/>
</g>
<svg viewBox="0 0 15 15" width="100%" height="30px" preserveAspectRatio="xMaxYMin meet">
 <g id="arrow_out" transform="scale(0.3 0.3)">
  <a xlink:href="classDiffAmp_accd2f6a30479d264eb6e33f179fa6d29_cgraph_org.svg" target="_base">
   <rect id="button" ry="5" rx="5" y="6" x="6" height="38" width="38"
        fill="#f2f5e9" fill-opacity="0.5" stroke="#606060" stroke-width="1.0"/>
   <path id="arrow"
     d="M 11.500037,31.436501 C 11.940474,20.09759 22.043105,11.32322 32.158766,21.979434 L 37.068811,17.246167 C 37.068811,17.246167 37.088388,32 37.088388,32 L 22.160133,31.978069 C 22.160133,31.978069 26.997745,27.140456 26.997745,27.140456 C 18.528582,18.264221 13.291696,25.230495 11.500037,31.436501 z"
     style="fill:#404040;"/>
  </a>
 </g>
</svg>

<style type='text/css'>
<![CDATA[
[data-mouse-over-selected='false'] { opacity: 0.7; }
[data-mouse-over-selected='true']  { opacity: 1.0; }
]]>
</style>
<script type="application/ecmascript"><![CDATA[
document.addEventListener('DOMContentLoaded', (event) => {
  highlightEdges();
  highlightAdjacentNodes();
});
]]></script>
</svg>
