<?xml version="1.0" encoding="UTF-8" standalone="no"?>
<!DOCTYPE svg PUBLIC "-//W3C//DTD SVG 1.1//EN"
 "http://www.w3.org/Graphics/SVG/1.1/DTD/svg11.dtd">
<!-- Generated by graphviz version 2.43.0 (0)
 -->
<!-- Title: SwcBranch Pages: 1 -->
<!--zoomable 678 -->

<svg id="main" version="1.1" xmlns="http://www.w3.org/2000/svg" xmlns:xlink="http://www.w3.org/1999/xlink" xml:space="preserve" onload="init(evt)">
<style type="text/css"><![CDATA[
.node, .edge {opacity: 0.7;}
.node.selected, .edge.selected {opacity: 1;}
.edge:hover path { stroke: red; }
.edge:hover polygon { stroke: red; fill: red; }
]]></style>

<defs>
  <circle id="rim" cx="0" cy="0" r="7"/>
  <circle id="rim2" cx="0" cy="0" r="3.5"/>
  <g id="zoomPlus">
    <use xlink:href="#rim" fill="#404040"><set attributeName="fill" to="#808080" begin="zoomplus.mouseover" end="zoomplus.mouseout"/></use>
    <path d="M-4,0h8M0,-4v8" fill="none" stroke="white" stroke-width="1.5" pointer-events="none"/>
  </g>
  <g id="zoomMin">
    <use xlink:href="#rim" fill="#404040"><set attributeName="fill" to="#808080" begin="zoomminus.mouseover" end="zoomminus.mouseout"/></use>
    <path d="M-4,0h8" fill="none" stroke="white" stroke-width="1.5" pointer-events="none"/>
  </g>
  <g id="arrowUp" transform="translate(30 24)">
    <use xlink:href="#rim"/>
    <path pointer-events="none" fill="none" stroke="white" stroke-width="1.5" d="M0,-3.0v7 M-2.5,-0.5L0,-3.0L2.5,-0.5"/>
  </g>
  <g id="arrowRight" transform="rotate(90) translate(36 -43)">
    <use xlink:href="#rim"/>
    <path pointer-events="none" fill="none" stroke="white" stroke-width="1.5" d="M0,-3.0v7 M-2.5,-0.5L0,-3.0L2.5,-0.5"/>
  </g>
  <g id="arrowDown" transform="rotate(180) translate(-30 -48)">
    <use xlink:href="#rim"/>
    <path pointer-events="none" fill="none" stroke="white" stroke-width="1.5" d="M0,-3.0v7 M-2.5,-0.5L0,-3.0L2.5,-0.5"/>
  </g>
  <g id="arrowLeft" transform="rotate(270) translate(-36 17)">
    <use xlink:href="#rim"/>
    <path pointer-events="none" fill="none" stroke="white" stroke-width="1.5" d="M0,-3.0v7 M-2.5,-0.5L0,-3.0L2.5,-0.5"/>
  </g>
  <g id="resetDef">
    <use xlink:href="#rim2" fill="#404040"><set attributeName="fill" to="#808080" begin="reset.mouseover" end="reset.mouseout"/></use>
  </g>
</defs>
<script type="application/ecmascript">
var viewWidth = 189;
var viewHeight = 678;
var sectionId = 'dynsection-0';
</script>
<script type="application/ecmascript" xlink:href="svg.min.js"/>
<svg id="graph" class="graph">
<g id="viewport">
<title>SwcBranch</title>
<!-- Node1 -->
<g id="Node000001" class="node">
<title>Node1</title>
<g id="a_Node000001"><a xlink:title=" ">
<polygon fill="#999999" stroke="transparent" points="145,-139 36,-139 36,0 145,0 145,-139"/>
<text text-anchor="start" x="64" y="-126.5" font-family="Ubuntu Mono" font-size="10.00">SwcBranch</text>
<text text-anchor="start" x="40.5" y="-111.5" font-family="Ubuntu Mono" font-size="10.00">+</text>
<text text-anchor="start" x="53.5" y="-111.5" font-family="Ubuntu Mono" font-size="10.00">electroLength</text>
<text text-anchor="start" x="40.5" y="-96.5" font-family="Ubuntu Mono" font-size="10.00">+</text>
<text text-anchor="start" x="53.5" y="-96.5" font-family="Ubuntu Mono" font-size="10.00">geomLength</text>
<text text-anchor="start" x="40.5" y="-81.5" font-family="Ubuntu Mono" font-size="10.00">+</text>
<text text-anchor="start" x="53.5" y="-81.5" font-family="Ubuntu Mono" font-size="10.00">pathLength</text>
<text text-anchor="start" x="40.5" y="-66.5" font-family="Ubuntu Mono" font-size="10.00">+</text>
<text text-anchor="start" x="53.5" y="-66.5" font-family="Ubuntu Mono" font-size="10.00">r0</text>
<text text-anchor="start" x="40.5" y="-51.5" font-family="Ubuntu Mono" font-size="10.00">+</text>
<text text-anchor="start" x="53.5" y="-51.5" font-family="Ubuntu Mono" font-size="10.00">r1</text>
<text text-anchor="start" x="40.5" y="-36.5" font-family="Ubuntu Mono" font-size="10.00">+</text>
<text text-anchor="start" x="53.5" y="-36.5" font-family="Ubuntu Mono" font-size="10.00">segs_</text>
<text text-anchor="start" x="40.5" y="-21.5" font-family="Ubuntu Mono" font-size="10.00">+</text>
<text text-anchor="start" x="53.5" y="-21.5" font-family="Ubuntu Mono" font-size="10.00">printDiagnostics()</text>
<text text-anchor="start" x="40.5" y="-6.5" font-family="Ubuntu Mono" font-size="10.00">+</text>
<text text-anchor="start" x="53.5" y="-6.5" font-family="Ubuntu Mono" font-size="10.00">SwcBranch()</text>
<polygon fill="#666666" stroke="#666666" points="36.5,-121.5 36.5,-121.5 145.5,-121.5 145.5,-121.5 36.5,-121.5"/>
<polygon fill="#666666" stroke="#666666" points="36.5,-31.5 36.5,-31.5 51.5,-31.5 51.5,-31.5 36.5,-31.5"/>
<polygon fill="#666666" stroke="#666666" points="51.5,-31.5 51.5,-31.5 145.5,-31.5 145.5,-31.5 51.5,-31.5"/>
<polygon fill="none" stroke="#666666" points="36,0 36,-139 145,-139 145,0 36,0"/>
</a>
</g>
</g>
<!-- Node2 -->
<g id="Node000002" class="node">
<title>Node2</title>
<g id="a_Node000002"><a xlink:href="classSwcSegment.html" target="_top" xlink:title=" ">
<polygon fill="white" stroke="transparent" points="181,-670 0,-670 0,-175 181,-175 181,-670"/>
<text text-anchor="start" x="59" y="-657.5" font-family="Ubuntu Mono" font-size="10.00">SwcSegment</text>
<text text-anchor="start" x="4.5" y="-642.5" font-family="Ubuntu Mono" font-size="10.00">+</text>
<text text-anchor="start" x="17.5" y="-642.5" font-family="Ubuntu Mono" font-size="10.00">AXON</text>
<text text-anchor="start" x="4.5" y="-627.5" font-family="Ubuntu Mono" font-size="10.00">+</text>
<text text-anchor="start" x="17.5" y="-627.5" font-family="Ubuntu Mono" font-size="10.00">BASAL</text>
<text text-anchor="start" x="4.5" y="-612.5" font-family="Ubuntu Mono" font-size="10.00">+</text>
<text text-anchor="start" x="17.5" y="-612.5" font-family="Ubuntu Mono" font-size="10.00">CUSTOM</text>
<text text-anchor="start" x="4.5" y="-597.5" font-family="Ubuntu Mono" font-size="10.00">+</text>
<text text-anchor="start" x="17.5" y="-597.5" font-family="Ubuntu Mono" font-size="10.00">DEND</text>
<text text-anchor="start" x="4.5" y="-582.5" font-family="Ubuntu Mono" font-size="10.00">+</text>
<text text-anchor="start" x="17.5" y="-582.5" font-family="Ubuntu Mono" font-size="10.00">END</text>
<text text-anchor="start" x="4.5" y="-567.5" font-family="Ubuntu Mono" font-size="10.00">+</text>
<text text-anchor="start" x="17.5" y="-567.5" font-family="Ubuntu Mono" font-size="10.00">FORK</text>
<text text-anchor="start" x="4.5" y="-552.5" font-family="Ubuntu Mono" font-size="10.00">+</text>
<text text-anchor="start" x="17.5" y="-552.5" font-family="Ubuntu Mono" font-size="10.00">SOMA</text>
<text text-anchor="start" x="4.5" y="-537.5" font-family="Ubuntu Mono" font-size="10.00">+</text>
<text text-anchor="start" x="17.5" y="-537.5" font-family="Ubuntu Mono" font-size="10.00">typeName</text>
<text text-anchor="start" x="4.5" y="-522.5" font-family="Ubuntu Mono" font-size="10.00">+</text>
<text text-anchor="start" x="17.5" y="-522.5" font-family="Ubuntu Mono" font-size="10.00">UNDEF</text>
<text text-anchor="start" x="4.5" y="-507.5" font-family="Ubuntu Mono" font-size="10.00">#</text>
<text text-anchor="start" x="17.5" y="-507.5" font-family="Ubuntu Mono" font-size="10.00">electrotonicDistanceFrom</text>
<text text-anchor="start" x="17.5" y="-496.5" font-family="Ubuntu Mono" font-size="10.00">Soma_</text>
<text text-anchor="start" x="4.5" y="-481.5" font-family="Ubuntu Mono" font-size="10.00">#</text>
<text text-anchor="start" x="17.5" y="-481.5" font-family="Ubuntu Mono" font-size="10.00">geometricalDistanceFromSoma_</text>
<text text-anchor="start" x="4.5" y="-466.5" font-family="Ubuntu Mono" font-size="10.00">#</text>
<text text-anchor="start" x="17.5" y="-466.5" font-family="Ubuntu Mono" font-size="10.00">kids_</text>
<text text-anchor="start" x="4.5" y="-451.5" font-family="Ubuntu Mono" font-size="10.00">#</text>
<text text-anchor="start" x="17.5" y="-451.5" font-family="Ubuntu Mono" font-size="10.00">L_</text>
<text text-anchor="start" x="4.5" y="-436.5" font-family="Ubuntu Mono" font-size="10.00">#</text>
<text text-anchor="start" x="17.5" y="-436.5" font-family="Ubuntu Mono" font-size="10.00">length_</text>
<text text-anchor="start" x="4.5" y="-421.5" font-family="Ubuntu Mono" font-size="10.00">#</text>
<text text-anchor="start" x="17.5" y="-421.5" font-family="Ubuntu Mono" font-size="10.00">myIndex_</text>
<text text-anchor="start" x="4.5" y="-406.5" font-family="Ubuntu Mono" font-size="10.00">#</text>
<text text-anchor="start" x="17.5" y="-406.5" font-family="Ubuntu Mono" font-size="10.00">parent_</text>
<text text-anchor="start" x="4.5" y="-391.5" font-family="Ubuntu Mono" font-size="10.00">#</text>
<text text-anchor="start" x="17.5" y="-391.5" font-family="Ubuntu Mono" font-size="10.00">pathDistanceFromSoma_</text>
<text text-anchor="start" x="4.5" y="-376.5" font-family="Ubuntu Mono" font-size="10.00">#</text>
<text text-anchor="start" x="17.5" y="-376.5" font-family="Ubuntu Mono" font-size="10.00">radius_</text>
<text text-anchor="start" x="4.5" y="-361.5" font-family="Ubuntu Mono" font-size="10.00">#</text>
<text text-anchor="start" x="17.5" y="-361.5" font-family="Ubuntu Mono" font-size="10.00">type_</text>
<text text-anchor="start" x="4.5" y="-346.5" font-family="Ubuntu Mono" font-size="10.00">#</text>
<text text-anchor="start" x="17.5" y="-346.5" font-family="Ubuntu Mono" font-size="10.00">v_</text>
<text text-anchor="start" x="4.5" y="-331.5" font-family="Ubuntu Mono" font-size="10.00">+</text>
<text text-anchor="start" x="17.5" y="-331.5" font-family="Ubuntu Mono" font-size="10.00">addChild()</text>
<text text-anchor="start" x="4.5" y="-316.5" font-family="Ubuntu Mono" font-size="10.00">+</text>
<text text-anchor="start" x="17.5" y="-316.5" font-family="Ubuntu Mono" font-size="10.00">distance()</text>
<text text-anchor="start" x="4.5" y="-301.5" font-family="Ubuntu Mono" font-size="10.00">+</text>
<text text-anchor="start" x="17.5" y="-301.5" font-family="Ubuntu Mono" font-size="10.00">figureOutType()</text>
<text text-anchor="start" x="4.5" y="-286.5" font-family="Ubuntu Mono" font-size="10.00">+</text>
<text text-anchor="start" x="17.5" y="-286.5" font-family="Ubuntu Mono" font-size="10.00">getElecDistFromSoma()</text>
<text text-anchor="start" x="4.5" y="-271.5" font-family="Ubuntu Mono" font-size="10.00">+</text>
<text text-anchor="start" x="17.5" y="-271.5" font-family="Ubuntu Mono" font-size="10.00">getGeomDistFromSoma()</text>
<text text-anchor="start" x="4.5" y="-256.5" font-family="Ubuntu Mono" font-size="10.00">+</text>
<text text-anchor="start" x="17.5" y="-256.5" font-family="Ubuntu Mono" font-size="10.00">getPathDistFromSoma()</text>
<text text-anchor="start" x="4.5" y="-241.5" font-family="Ubuntu Mono" font-size="10.00">+</text>
<text text-anchor="start" x="17.5" y="-241.5" font-family="Ubuntu Mono" font-size="10.00">kids()</text>
<text text-anchor="start" x="4.5" y="-226.5" font-family="Ubuntu Mono" font-size="10.00">+</text>
<text text-anchor="start" x="17.5" y="-226.5" font-family="Ubuntu Mono" font-size="10.00">L()</text>
<text text-anchor="start" x="4.5" y="-211.5" font-family="Ubuntu Mono" font-size="10.00">+</text>
<text text-anchor="start" x="17.5" y="-211.5" font-family="Ubuntu Mono" font-size="10.00">length()</text>
<text text-anchor="start" x="4.5" y="-196.5" font-family="Ubuntu Mono" font-size="10.00">+</text>
<text text-anchor="start" x="17.5" y="-196.5" font-family="Ubuntu Mono" font-size="10.00">myIndex()</text>
<text text-anchor="start" x="17.5" y="-181.5" font-family="Ubuntu Mono" font-size="10.00">and 13 more...</text>
<polygon fill="#666666" stroke="#666666" points="0.5,-652.5 0.5,-652.5 181.5,-652.5 181.5,-652.5 0.5,-652.5"/>
<polygon fill="#666666" stroke="#666666" points="0.5,-341.5 0.5,-341.5 15.5,-341.5 15.5,-341.5 0.5,-341.5"/>
<polygon fill="#666666" stroke="#666666" points="15.5,-341.5 15.5,-341.5 181.5,-341.5 181.5,-341.5 15.5,-341.5"/>
<polygon fill="none" stroke="#666666" points="0,-175 0,-670 181,-670 181,-175 0,-175"/>
</a>
</g>
</g>
<!-- Node2&#45;&gt;Node1 -->
<g id="edge1_Node000001_Node000002" class="edge">
<title>Node2&#45;&gt;Node1</title>
<g id="a_edge1_Node000001_Node000002"><a xlink:title=" ">
<path fill="none" stroke="#63b8ff" d="M90.5,-164.68C90.5,-155.8 90.5,-147.27 90.5,-139.22"/>
<polygon fill="none" stroke="#63b8ff" points="87,-164.86 90.5,-174.86 94,-164.86 87,-164.86"/>
</a>
</g>
</g>
</g>
</svg>

<g id="navigator" transform="translate(0 0)" fill="#404254">
  <rect fill="#f2f5e9" fill-opacity="0.5" stroke="#606060" stroke-width=".5" x="0" y="0" width="60" height="60"/>
  <use id="zoomplus" xlink:href="#zoomPlus" x="17" y="9" onmousedown="handleZoom(evt,'in')"/>
  <use id="zoomminus" xlink:href="#zoomMin" x="42" y="9" onmousedown="handleZoom(evt,'out')"/>
  <use id="reset" xlink:href="#resetDef" x="30" y="36" onmousedown="handleReset()"/>
   <use id="arrowup" xlink:href="#arrowUp" x="0" y="0" onmousedown="handlePan(0,-1)"/>
  <use id="arrowright" xlink:href="#arrowRight" x="0" y="0" onmousedown="handlePan(1,0)"/>
  <use id="arrowdown" xlink:href="#arrowDown" x="0" y="0" onmousedown="handlePan(0,1)"/>
  <use id="arrowleft" xlink:href="#arrowLeft" x="0" y="0" onmousedown="handlePan(-1,0)"/>
</g>
<svg viewBox="0 0 15 15" width="100%" height="30px" preserveAspectRatio="xMaxYMin meet">
 <g id="arrow_out" transform="scale(0.3 0.3)">
  <a xlink:href="classSwcBranch__inherit__graph_org.svg" target="_base">
   <rect id="button" ry="5" rx="5" y="6" x="6" height="38" width="38"
        fill="#f2f5e9" fill-opacity="0.5" stroke="#606060" stroke-width="1.0"/>
   <path id="arrow"
     d="M 11.500037,31.436501 C 11.940474,20.09759 22.043105,11.32322 32.158766,21.979434 L 37.068811,17.246167 C 37.068811,17.246167 37.088388,32 37.088388,32 L 22.160133,31.978069 C 22.160133,31.978069 26.997745,27.140456 26.997745,27.140456 C 18.528582,18.264221 13.291696,25.230495 11.500037,31.436501 z"
     style="fill:#404040;"/>
  </a>
 </g>
</svg>

<style type='text/css'>
<![CDATA[
[data-mouse-over-selected='false'] { opacity: 0.7; }
[data-mouse-over-selected='true']  { opacity: 1.0; }
]]>
</style>
<script type="application/ecmascript"><![CDATA[
document.addEventListener('DOMContentLoaded', (event) => {
  highlightEdges();
  highlightAdjacentNodes();
});
]]></script>
</svg>
