<?xml version="1.0" encoding="UTF-8" standalone="no"?>
<!DOCTYPE svg PUBLIC "-//W3C//DTD SVG 1.1//EN"
 "http://www.w3.org/Graphics/SVG/1.1/DTD/svg11.dtd">
<!-- Generated by graphviz version 2.43.0 (0)
 -->
<!-- Title: HHGateBase::originalGateId Pages: 1 -->
<svg width="1028pt" height="76pt"
 viewBox="0.00 0.00 1028.00 75.50" xmlns="http://www.w3.org/2000/svg" xmlns:xlink="http://www.w3.org/1999/xlink">
<g id="graph0" class="graph" transform="scale(1 1) rotate(0) translate(4 71.5)">
<title>HHGateBase::originalGateId</title>
<!-- Node1 -->
<g id="Node000001" class="node">
<title>Node1</title>
<g id="a_Node000001"><a xlink:title=" ">
<polygon fill="#999999" stroke="#666666" points="1020,-45.5 866,-45.5 866,-26.5 1020,-26.5 1020,-45.5"/>
<text text-anchor="middle" x="943" y="-33.5" font-family="Ubuntu Mono" font-size="10.00">HHGateBase::originalGateId</text>
</a>
</g>
</g>
<!-- Node2 -->
<g id="Node000002" class="node">
<title>Node2</title>
<g id="a_Node000002"><a xlink:href="classHSolveUtils.html#abded29d89bd4fbc7fe23ca4b5fc3fc60" target="_top" xlink:title=" ">
<polygon fill="white" stroke="#666666" points="830,-65.5 723,-65.5 723,-46.5 830,-46.5 830,-65.5"/>
<text text-anchor="middle" x="776.5" y="-53.5" font-family="Ubuntu Mono" font-size="10.00">HSolveUtils::gates</text>
</a>
</g>
</g>
<!-- Node1&#45;&gt;Node2 -->
<g id="edge1_Node000001_Node000002" class="edge">
<title>Node1&#45;&gt;Node2</title>
<g id="a_edge1_Node000001_Node000002"><a xlink:title=" ">
<path fill="none" stroke="#63b8ff" d="M855.46,-46.52C846.89,-47.56 838.38,-48.6 830.31,-49.58"/>
<polygon fill="#63b8ff" stroke="#63b8ff" points="856.02,-49.98 865.53,-45.3 855.18,-43.03 856.02,-49.98"/>
</a>
</g>
</g>
<!-- Node8 -->
<g id="Node000008" class="node">
<title>Node8</title>
<g id="a_Node000008"><a xlink:href="classHSolveUtils.html#a2e2d6f729ab88311b21db26bf26465d2" target="_top" xlink:title=" ">
<polygon fill="white" stroke="#666666" points="828.5,-27.5 724.5,-27.5 724.5,-8.5 828.5,-8.5 828.5,-27.5"/>
<text text-anchor="middle" x="776.5" y="-15.5" font-family="Ubuntu Mono" font-size="10.00">HSolveUtils::rates</text>
</a>
</g>
</g>
<!-- Node1&#45;&gt;Node8 -->
<g id="edge7_Node000001_Node000008" class="edge">
<title>Node1&#45;&gt;Node8</title>
<g id="a_edge7_Node000001_Node000008"><a xlink:title=" ">
<path fill="none" stroke="#63b8ff" d="M855.33,-26.52C846.3,-25.53 837.34,-24.55 828.89,-23.62"/>
<polygon fill="#63b8ff" stroke="#63b8ff" points="855.21,-30.02 865.53,-27.63 855.97,-23.07 855.21,-30.02"/>
</a>
</g>
</g>
<!-- Node3 -->
<g id="Node000003" class="node">
<title>Node3</title>
<g id="a_Node000003"><a xlink:href="classHSolveActive.html#a319c40d53a11edb462d02515183059d1" target="_top" xlink:title=" ">
<polygon fill="white" stroke="#666666" points="679.5,-67.5 541.5,-67.5 541.5,-48.5 679.5,-48.5 679.5,-67.5"/>
<text text-anchor="middle" x="610.5" y="-55.5" font-family="Ubuntu Mono" font-size="10.00">HSolveActive::readGates</text>
</a>
</g>
</g>
<!-- Node2&#45;&gt;Node3 -->
<g id="edge2_Node000002_Node000003" class="edge">
<title>Node2&#45;&gt;Node3</title>
<g id="a_edge2_Node000002_Node000003"><a xlink:title=" ">
<path fill="none" stroke="#63b8ff" d="M712.58,-56.77C701.84,-56.9 690.65,-57.03 679.78,-57.17"/>
<polygon fill="#63b8ff" stroke="#63b8ff" points="712.75,-60.27 722.71,-56.64 712.66,-53.27 712.75,-60.27"/>
</a>
</g>
</g>
<!-- Node4 -->
<g id="Node000004" class="node">
<title>Node4</title>
<g id="a_Node000004"><a xlink:href="classHSolveActive.html#abe1e04be095f6b2e77e0de5ff3c56b3d" target="_top" xlink:title=" ">
<polygon fill="white" stroke="#666666" points="498,-45.5 383,-45.5 383,-26.5 498,-26.5 498,-45.5"/>
<text text-anchor="middle" x="440.5" y="-33.5" font-family="Ubuntu Mono" font-size="10.00">HSolveActive::setup</text>
</a>
</g>
</g>
<!-- Node3&#45;&gt;Node4 -->
<g id="edge3_Node000003_Node000004" class="edge">
<title>Node3&#45;&gt;Node4</title>
<g id="a_edge3_Node000003_Node000004"><a xlink:title=" ">
<path fill="none" stroke="#63b8ff" d="M531.06,-47.73C519.99,-46.28 508.79,-44.81 498.23,-43.43"/>
<polygon fill="#63b8ff" stroke="#63b8ff" points="530.8,-51.22 541.17,-49.05 531.71,-44.28 530.8,-51.22"/>
</a>
</g>
</g>
<!-- Node5 -->
<g id="Node000005" class="node">
<title>Node5</title>
<g id="a_Node000005"><a xlink:href="classHSolve.html#a2e768e9eb17b2c732c9129c018889f79" target="_top" xlink:title=" ">
<polygon fill="white" stroke="#666666" points="347,-45.5 263,-45.5 263,-26.5 347,-26.5 347,-45.5"/>
<text text-anchor="middle" x="305" y="-33.5" font-family="Ubuntu Mono" font-size="10.00">HSolve::setup</text>
</a>
</g>
</g>
<!-- Node4&#45;&gt;Node5 -->
<g id="edge4_Node000004_Node000005" class="edge">
<title>Node4&#45;&gt;Node5</title>
<g id="a_edge4_Node000004_Node000005"><a xlink:title=" ">
<path fill="none" stroke="#63b8ff" d="M372.74,-36C364.07,-36 355.4,-36 347.31,-36"/>
<polygon fill="#63b8ff" stroke="#63b8ff" points="372.88,-39.5 382.88,-36 372.88,-32.5 372.88,-39.5"/>
</a>
</g>
</g>
<!-- Node6 -->
<g id="Node000006" class="node">
<title>Node6</title>
<g id="a_Node000006"><a xlink:href="classHSolve.html#a4d36de840ae2ff289981e77f779eb9dc" target="_top" xlink:title=" ">
<polygon fill="white" stroke="#666666" points="227,-45.5 134,-45.5 134,-26.5 227,-26.5 227,-45.5"/>
<text text-anchor="middle" x="180.5" y="-33.5" font-family="Ubuntu Mono" font-size="10.00">HSolve::setPath</text>
</a>
</g>
</g>
<!-- Node5&#45;&gt;Node6 -->
<g id="edge5_Node000005_Node000006" class="edge">
<title>Node5&#45;&gt;Node6</title>
<g id="a_edge5_Node000005_Node000006"><a xlink:title=" ">
<path fill="none" stroke="#63b8ff" d="M252.77,-36C244.34,-36 235.66,-36 227.37,-36"/>
<polygon fill="#63b8ff" stroke="#63b8ff" points="252.87,-39.5 262.87,-36 252.87,-32.5 252.87,-39.5"/>
</a>
</g>
</g>
<!-- Node7 -->
<g id="Node000007" class="node">
<title>Node7</title>
<g id="a_Node000007"><a xlink:href="classHSolve.html#a3d60964bbc6441f73c04fe702faba848" target="_top" xlink:title="Interface to external channels.">
<polygon fill="white" stroke="#666666" points="98,-45.5 0,-45.5 0,-26.5 98,-26.5 98,-45.5"/>
<text text-anchor="middle" x="49" y="-33.5" font-family="Ubuntu Mono" font-size="10.00">HSolve::initCinfo</text>
</a>
</g>
</g>
<!-- Node6&#45;&gt;Node7 -->
<g id="edge6_Node000006_Node000007" class="edge">
<title>Node6&#45;&gt;Node7</title>
<g id="a_edge6_Node000006_Node000007"><a xlink:title=" ">
<path fill="none" stroke="#63b8ff" d="M123.68,-36C115.24,-36 106.59,-36 98.32,-36"/>
<polygon fill="#63b8ff" stroke="#63b8ff" points="123.84,-39.5 133.84,-36 123.84,-32.5 123.84,-39.5"/>
</a>
</g>
</g>
<!-- Node9 -->
<g id="Node000009" class="node">
<title>Node9</title>
<g id="a_Node000009"><a xlink:href="classHSolveActive.html#a800dacfc45f5f55cb02d634e6dd603a3" target="_top" xlink:title=" ">
<polygon fill="white" stroke="#666666" points="687,-30 534,-30 534,0 687,0 687,-30"/>
<text text-anchor="start" x="542" y="-18" font-family="Ubuntu Mono" font-size="10.00">HSolveActive::createLookup</text>
<text text-anchor="middle" x="610.5" y="-7" font-family="Ubuntu Mono" font-size="10.00">Tables</text>
</a>
</g>
</g>
<!-- Node8&#45;&gt;Node9 -->
<g id="edge8_Node000008_Node000009" class="edge">
<title>Node8&#45;&gt;Node9</title>
<g id="a_edge8_Node000008_Node000009"><a xlink:title=" ">
<path fill="none" stroke="#63b8ff" d="M713.95,-16.87C705.18,-16.71 696.08,-16.55 687.08,-16.38"/>
<polygon fill="#63b8ff" stroke="#63b8ff" points="714,-20.38 724.06,-17.06 714.13,-13.38 714,-20.38"/>
</a>
</g>
</g>
<!-- Node9&#45;&gt;Node4 -->
<g id="edge9_Node000009_Node000004" class="edge">
<title>Node9&#45;&gt;Node4</title>
<g id="a_edge9_Node000009_Node000004"><a xlink:title=" ">
<path fill="none" stroke="#63b8ff" d="M523.68,-25.73C515.01,-26.81 506.36,-27.89 498.1,-28.92"/>
<polygon fill="#63b8ff" stroke="#63b8ff" points="524.37,-29.17 533.85,-24.46 523.5,-22.22 524.37,-29.17"/>
</a>
</g>
</g>
</g>
</svg>
