<?xml version="1.0" encoding="UTF-8" standalone="no"?>
<!DOCTYPE svg PUBLIC "-//W3C//DTD SVG 1.1//EN"
 "http://www.w3.org/Graphics/SVG/1.1/DTD/svg11.dtd">
<!-- Generated by graphviz version 2.43.0 (0)
 -->
<!-- Title: SparseMatrix::set Pages: 1 -->
<!--zoomable 352 -->

<svg id="main" version="1.1" xmlns="http://www.w3.org/2000/svg" xmlns:xlink="http://www.w3.org/1999/xlink" xml:space="preserve" onload="init(evt)">
<style type="text/css"><![CDATA[
.node, .edge {opacity: 0.7;}
.node.selected, .edge.selected {opacity: 1;}
.edge:hover path { stroke: red; }
.edge:hover polygon { stroke: red; fill: red; }
]]></style>

<defs>
  <circle id="rim" cx="0" cy="0" r="7"/>
  <circle id="rim2" cx="0" cy="0" r="3.5"/>
  <g id="zoomPlus">
    <use xlink:href="#rim" fill="#404040"><set attributeName="fill" to="#808080" begin="zoomplus.mouseover" end="zoomplus.mouseout"/></use>
    <path d="M-4,0h8M0,-4v8" fill="none" stroke="white" stroke-width="1.5" pointer-events="none"/>
  </g>
  <g id="zoomMin">
    <use xlink:href="#rim" fill="#404040"><set attributeName="fill" to="#808080" begin="zoomminus.mouseover" end="zoomminus.mouseout"/></use>
    <path d="M-4,0h8" fill="none" stroke="white" stroke-width="1.5" pointer-events="none"/>
  </g>
  <g id="arrowUp" transform="translate(30 24)">
    <use xlink:href="#rim"/>
    <path pointer-events="none" fill="none" stroke="white" stroke-width="1.5" d="M0,-3.0v7 M-2.5,-0.5L0,-3.0L2.5,-0.5"/>
  </g>
  <g id="arrowRight" transform="rotate(90) translate(36 -43)">
    <use xlink:href="#rim"/>
    <path pointer-events="none" fill="none" stroke="white" stroke-width="1.5" d="M0,-3.0v7 M-2.5,-0.5L0,-3.0L2.5,-0.5"/>
  </g>
  <g id="arrowDown" transform="rotate(180) translate(-30 -48)">
    <use xlink:href="#rim"/>
    <path pointer-events="none" fill="none" stroke="white" stroke-width="1.5" d="M0,-3.0v7 M-2.5,-0.5L0,-3.0L2.5,-0.5"/>
  </g>
  <g id="arrowLeft" transform="rotate(270) translate(-36 17)">
    <use xlink:href="#rim"/>
    <path pointer-events="none" fill="none" stroke="white" stroke-width="1.5" d="M0,-3.0v7 M-2.5,-0.5L0,-3.0L2.5,-0.5"/>
  </g>
  <g id="resetDef">
    <use xlink:href="#rim2" fill="#404040"><set attributeName="fill" to="#808080" begin="reset.mouseover" end="reset.mouseout"/></use>
  </g>
</defs>
<script type="application/ecmascript">
var viewWidth = 1682;
var viewHeight = 352;
var sectionId = 'dynsection-22';
</script>
<script type="application/ecmascript" xlink:href="svg.min.js"/>
<svg id="graph" class="graph">
<g id="viewport">
<title>SparseMatrix::set</title>
<!-- Node1 -->
<g id="Node000001" class="node">
<title>Node1</title>
<g id="a_Node000001"><a xlink:title=" ">
<polygon fill="#999999" stroke="#666666" points="1674,-148 1572,-148 1572,-129 1674,-129 1674,-148"/>
<text text-anchor="middle" x="1623" y="-136" font-family="Ubuntu Mono" font-size="10.00">SparseMatrix::set</text>
</a>
</g>
</g>
<!-- Node2 -->
<g id="Node000002" class="node">
<title>Node2</title>
<g id="a_Node000002"><a xlink:href="classStoich.html#a718e97592f762fa5fe91dc773afc750a" target="_top" xlink:title=" ">
<polygon fill="white" stroke="#666666" points="1536,-290 1386,-290 1386,-271 1536,-271 1536,-290"/>
<text text-anchor="middle" x="1461" y="-278" font-family="Ubuntu Mono" font-size="10.00">Stoich::innerInstallReaction</text>
</a>
</g>
</g>
<!-- Node1&#45;&gt;Node2 -->
<g id="edge1_Node000001_Node000002" class="edge">
<title>Node1&#45;&gt;Node2</title>
<g id="a_edge1_Node000001_Node000002"><a xlink:title=" ">
<path fill="none" stroke="#63b8ff" d="M1613.96,-157.52C1601.41,-184.83 1574.55,-234.79 1536,-261.5 1530.44,-265.35 1524.16,-268.42 1517.66,-270.87"/>
<polygon fill="#63b8ff" stroke="#63b8ff" points="1617.21,-158.82 1618.06,-148.26 1610.81,-155.98 1617.21,-158.82"/>
</a>
</g>
</g>
<!-- Node14 -->
<g id="Node000014" class="node">
<title>Node14</title>
<g id="a_Node000014"><a xlink:href="classStoich.html#a6952c6a4bf12b226fb6ebffb71b44de5" target="_top" xlink:title=" ">
<polygon fill="white" stroke="#666666" points="1532.5,-252.5 1389.5,-252.5 1389.5,-222.5 1532.5,-222.5 1532.5,-252.5"/>
<text text-anchor="start" x="1397.5" y="-240.5" font-family="Ubuntu Mono" font-size="10.00">Stoich::installAndUnsched</text>
<text text-anchor="middle" x="1461" y="-229.5" font-family="Ubuntu Mono" font-size="10.00">FuncRate</text>
</a>
</g>
</g>
<!-- Node1&#45;&gt;Node14 -->
<g id="edge13_Node000001_Node000014" class="edge">
<title>Node1&#45;&gt;Node14</title>
<g id="a_edge13_Node000001_Node000014"><a xlink:title=" ">
<path fill="none" stroke="#63b8ff" d="M1606.38,-155.69C1590.23,-172.54 1563.55,-197.89 1536,-213.5 1530.12,-216.83 1523.72,-219.77 1517.22,-222.35"/>
<polygon fill="#63b8ff" stroke="#63b8ff" points="1609.13,-157.87 1613.42,-148.18 1604.02,-153.08 1609.13,-157.87"/>
</a>
</g>
</g>
<!-- Node20 -->
<g id="Node000020" class="node">
<title>Node20</title>
<g id="a_Node000020"><a xlink:href="classStoich.html#aee8cafb68f97a6c9feae551b312334bc" target="_top" xlink:title=" ">
<polygon fill="white" stroke="#666666" points="1522,-204 1400,-204 1400,-185 1522,-185 1522,-204"/>
<text text-anchor="middle" x="1461" y="-192" font-family="Ubuntu Mono" font-size="10.00">Stoich::installEnzyme</text>
</a>
</g>
</g>
<!-- Node1&#45;&gt;Node20 -->
<g id="edge19_Node000001_Node000020" class="edge">
<title>Node1&#45;&gt;Node20</title>
<g id="a_edge19_Node000001_Node000020"><a xlink:title=" ">
<path fill="none" stroke="#63b8ff" d="M1593.8,-152.48C1577.25,-160.3 1555.77,-169.79 1536,-176.5 1526.74,-179.65 1516.64,-182.48 1506.98,-184.91"/>
<polygon fill="#63b8ff" stroke="#63b8ff" points="1595.42,-155.59 1602.92,-148.1 1592.39,-149.27 1595.42,-155.59"/>
</a>
</g>
</g>
<!-- Node24 -->
<g id="Node000024" class="node">
<title>Node24</title>
<g id="a_Node000024"><a xlink:href="classStoich.html#a3cd10d88c35426875c6f2b9dc88e6758" target="_top" xlink:title="This is the internal variant to install the MMenz.">
<polygon fill="white" stroke="#666666" points="1520,-167 1402,-167 1402,-148 1520,-148 1520,-167"/>
<text text-anchor="middle" x="1461" y="-155" font-family="Ubuntu Mono" font-size="10.00">Stoich::installMMenz</text>
</a>
</g>
</g>
<!-- Node1&#45;&gt;Node24 -->
<g id="edge23_Node000001_Node000024" class="edge">
<title>Node1&#45;&gt;Node24</title>
<g id="a_edge23_Node000001_Node000024"><a xlink:title=" ">
<path fill="none" stroke="#63b8ff" d="M1561.6,-145.67C1548.01,-147.29 1533.61,-149 1520.11,-150.6"/>
<polygon fill="#63b8ff" stroke="#63b8ff" points="1562.3,-149.11 1571.81,-144.46 1561.47,-142.16 1562.3,-149.11"/>
</a>
</g>
</g>
<!-- Node28 -->
<g id="Node000028" class="node">
<title>Node28</title>
<g id="a_Node000028"><a xlink:href="classSparseMsg.html#a6b14ede890416b7ed560b7f01374d492" target="_top" xlink:title=" ">
<polygon fill="white" stroke="#666666" points="1519,-130 1403,-130 1403,-111 1519,-111 1519,-130"/>
<text text-anchor="middle" x="1461" y="-118" font-family="Ubuntu Mono" font-size="10.00">SparseMsg::setEntry</text>
</a>
</g>
</g>
<!-- Node1&#45;&gt;Node28 -->
<g id="edge27_Node000001_Node000028" class="edge">
<title>Node1&#45;&gt;Node28</title>
<g id="a_edge27_Node000001_Node000028"><a xlink:title=" ">
<path fill="none" stroke="#63b8ff" d="M1561.84,-131.73C1547.89,-130.16 1533.08,-128.5 1519.26,-126.94"/>
<polygon fill="#63b8ff" stroke="#63b8ff" points="1561.49,-135.21 1571.81,-132.85 1562.27,-128.26 1561.49,-135.21"/>
</a>
</g>
</g>
<!-- Node35 -->
<g id="Node000035" class="node">
<title>Node35</title>
<g id="a_Node000035"><a xlink:href="testAsync_8cpp.html#a8a63d6ea1e230a00457f4c3ea941f880" target="_top" xlink:title=" ">
<polygon fill="white" stroke="#666666" points="1511,-93 1411,-93 1411,-74 1511,-74 1511,-93"/>
<text text-anchor="middle" x="1461" y="-81" font-family="Ubuntu Mono" font-size="10.00">testSparseMatrix</text>
</a>
</g>
</g>
<!-- Node1&#45;&gt;Node35 -->
<g id="edge34_Node000001_Node000035" class="edge">
<title>Node1&#45;&gt;Node35</title>
<g id="a_edge34_Node000001_Node000035"><a xlink:title=" ">
<path fill="none" stroke="#63b8ff" d="M1593.11,-124.63C1576.64,-117.09 1555.46,-108 1536,-101.5 1526.59,-98.36 1516.35,-95.51 1506.56,-93.06"/>
<polygon fill="#63b8ff" stroke="#63b8ff" points="1591.67,-127.82 1602.21,-128.86 1594.62,-121.47 1591.67,-127.82"/>
</a>
</g>
</g>
<!-- Node36 -->
<g id="Node000036" class="node">
<title>Node36</title>
<g id="a_Node000036"><a xlink:href="testAsync_8cpp.html#ad615b48e61b49f66cfdda886c907ed5b" target="_top" xlink:title=" ">
<polygon fill="white" stroke="#666666" points="1514,-56 1408,-56 1408,-37 1514,-37 1514,-56"/>
<text text-anchor="middle" x="1461" y="-44" font-family="Ubuntu Mono" font-size="10.00">testSparseMatrix2</text>
</a>
</g>
</g>
<!-- Node1&#45;&gt;Node36 -->
<g id="edge35_Node000001_Node000036" class="edge">
<title>Node1&#45;&gt;Node36</title>
<g id="a_edge35_Node000001_Node000036"><a xlink:title=" ">
<path fill="none" stroke="#63b8ff" d="M1606.83,-121.38C1590.85,-104.43 1564.16,-78.96 1536,-64.5 1529.18,-61 1521.65,-58.16 1514.08,-55.86"/>
<polygon fill="#63b8ff" stroke="#63b8ff" points="1604.42,-123.94 1613.77,-128.94 1609.58,-119.21 1604.42,-123.94"/>
</a>
</g>
</g>
<!-- Node37 -->
<g id="Node000037" class="node">
<title>Node37</title>
<g id="a_Node000037"><a xlink:href="testAsync_8cpp.html#ae3d23c02a130e8962a59c1688baacd12" target="_top" xlink:title=" ">
<polygon fill="white" stroke="#666666" points="1530,-19 1392,-19 1392,0 1530,0 1530,-19"/>
<text text-anchor="middle" x="1461" y="-7" font-family="Ubuntu Mono" font-size="10.00">testSparseMatrixReorder</text>
</a>
</g>
</g>
<!-- Node1&#45;&gt;Node37 -->
<g id="edge36_Node000001_Node000037" class="edge">
<title>Node1&#45;&gt;Node37</title>
<g id="a_edge36_Node000001_Node000037"><a xlink:title=" ">
<path fill="none" stroke="#63b8ff" d="M1612.55,-119.5C1599.08,-94.44 1571.96,-50.81 1536,-27.5 1530.67,-24.05 1524.74,-21.26 1518.62,-19"/>
<polygon fill="#63b8ff" stroke="#63b8ff" points="1609.61,-121.43 1617.33,-128.7 1615.82,-118.21 1609.61,-121.43"/>
</a>
</g>
</g>
<!-- Node3 -->
<g id="Node000003" class="node">
<title>Node3</title>
<g id="a_Node000003"><a xlink:href="classStoich.html#a4834b255ae58f9cbef18370b15411d26" target="_top" xlink:title=" ">
<polygon fill="white" stroke="#666666" points="1350,-290 1225,-290 1225,-271 1350,-271 1350,-290"/>
<text text-anchor="middle" x="1287.5" y="-278" font-family="Ubuntu Mono" font-size="10.00">Stoich::installReaction</text>
</a>
</g>
</g>
<!-- Node2&#45;&gt;Node3 -->
<g id="edge2_Node000002_Node000003" class="edge">
<title>Node2&#45;&gt;Node3</title>
<g id="a_edge2_Node000002_Node000003"><a xlink:title=" ">
<path fill="none" stroke="#63b8ff" d="M1375.72,-280.5C1367.13,-280.5 1358.52,-280.5 1350.23,-280.5"/>
<polygon fill="#63b8ff" stroke="#63b8ff" points="1375.78,-284 1385.78,-280.5 1375.78,-277 1375.78,-284"/>
</a>
</g>
</g>
<!-- Node4 -->
<g id="Node000004" class="node">
<title>Node4</title>
<g id="a_Node000004"><a xlink:href="classReac.html#a9cdc940efa24585f62bdc57933b3d31f" target="_top" xlink:title=" ">
<polygon fill="white" stroke="#666666" points="1171.5,-290 1079.5,-290 1079.5,-271 1171.5,-271 1171.5,-290"/>
<text text-anchor="middle" x="1125.5" y="-278" font-family="Ubuntu Mono" font-size="10.00">Reac::setSolver</text>
</a>
</g>
</g>
<!-- Node3&#45;&gt;Node4 -->
<g id="edge3_Node000003_Node000004" class="edge">
<title>Node3&#45;&gt;Node4</title>
<g id="a_edge3_Node000003_Node000004"><a xlink:title=" ">
<path fill="none" stroke="#63b8ff" d="M1214.22,-280.5C1199.79,-280.5 1185.03,-280.5 1171.82,-280.5"/>
<polygon fill="#63b8ff" stroke="#63b8ff" points="1214.64,-284 1224.64,-280.5 1214.64,-277 1214.64,-284"/>
</a>
</g>
</g>
<!-- Node5 -->
<g id="Node000005" class="node">
<title>Node5</title>
<g id="a_Node000005"><a xlink:href="classReac.html#aab2f9c8fbeaf29950b58cad7950e2a51" target="_top" xlink:title=" ">
<polygon fill="white" stroke="#666666" points="995.5,-290 907.5,-290 907.5,-271 995.5,-271 995.5,-290"/>
<text text-anchor="middle" x="951.5" y="-278" font-family="Ubuntu Mono" font-size="10.00">Reac::initCinfo</text>
</a>
</g>
</g>
<!-- Node4&#45;&gt;Node5 -->
<g id="edge4_Node000004_Node000005" class="edge">
<title>Node4&#45;&gt;Node5</title>
<g id="a_edge4_Node000004_Node000005"><a xlink:title=" ">
<path fill="none" stroke="#63b8ff" d="M1069.01,-280.5C1045.22,-280.5 1017.84,-280.5 995.61,-280.5"/>
<polygon fill="#63b8ff" stroke="#63b8ff" points="1069.31,-284 1079.31,-280.5 1069.31,-277 1069.31,-284"/>
</a>
</g>
</g>
<!-- Node6 -->
<g id="Node000006" class="node">
<title>Node6</title>
<g id="a_Node000006"><a xlink:href="ReadKkit_8cpp.html#a561c92f10cca29ac656918f73b3ecad0" target="_top" xlink:title=" ">
<polygon fill="white" stroke="#666666" points="835,-325 702,-325 702,-306 835,-306 835,-325"/>
<text text-anchor="middle" x="768.5" y="-313" font-family="Ubuntu Mono" font-size="10.00">findParentComptOfReac</text>
</a>
</g>
</g>
<!-- Node5&#45;&gt;Node6 -->
<g id="edge5_Node000005_Node000006" class="edge">
<title>Node5&#45;&gt;Node6</title>
<g id="a_edge5_Node000005_Node000006"><a xlink:title=" ">
<path fill="none" stroke="#63b8ff" d="M897.19,-290.81C872.42,-295.6 843.16,-301.26 818.89,-305.95"/>
<polygon fill="#63b8ff" stroke="#63b8ff" points="897.99,-294.22 907.15,-288.88 896.66,-287.35 897.99,-294.22"/>
</a>
</g>
</g>
<!-- Node12 -->
<g id="Node000012" class="node">
<title>Node12</title>
<g id="a_Node000012"><a xlink:href="testKinetics_8cpp.html#ad1be508afbede7b4565b0a81e470139a" target="_top" xlink:title=" ">
<polygon fill="white" stroke="#666666" points="841,-288 696,-288 696,-269 841,-269 841,-288"/>
<text text-anchor="middle" x="768.5" y="-276" font-family="Ubuntu Mono" font-size="10.00">testTwoReacGetNeighbors</text>
</a>
</g>
</g>
<!-- Node5&#45;&gt;Node12 -->
<g id="edge11_Node000005_Node000012" class="edge">
<title>Node5&#45;&gt;Node12</title>
<g id="a_edge11_Node000005_Node000012"><a xlink:title=" ">
<path fill="none" stroke="#63b8ff" d="M897.11,-279.91C879.57,-279.72 859.79,-279.5 841.12,-279.29"/>
<polygon fill="#63b8ff" stroke="#63b8ff" points="897.11,-283.41 907.15,-280.02 897.19,-276.41 897.11,-283.41"/>
</a>
</g>
</g>
<!-- Node7 -->
<g id="Node000007" class="node">
<title>Node7</title>
<g id="a_Node000007"><a xlink:href="classReadKkit.html#ad87da584d44e386b27a960a5d5ecbc6f" target="_top" xlink:title=" ">
<polygon fill="white" stroke="#666666" points="660,-325 465,-325 465,-306 660,-306 660,-325"/>
<text text-anchor="middle" x="562.5" y="-313" font-family="Ubuntu Mono" font-size="10.00">ReadKkit::assignReacCompartments</text>
</a>
</g>
</g>
<!-- Node6&#45;&gt;Node7 -->
<g id="edge6_Node000006_Node000007" class="edge">
<title>Node6&#45;&gt;Node7</title>
<g id="a_edge6_Node000006_Node000007"><a xlink:title=" ">
<path fill="none" stroke="#63b8ff" d="M691.71,-315.5C681.45,-315.5 670.81,-315.5 660.24,-315.5"/>
<polygon fill="#63b8ff" stroke="#63b8ff" points="691.83,-319 701.83,-315.5 691.83,-312 691.83,-319"/>
</a>
</g>
</g>
<!-- Node8 -->
<g id="Node000008" class="node">
<title>Node8</title>
<g id="a_Node000008"><a xlink:href="classReadKkit.html#a84a1ef5c83d57d8d111ead9cf48e8e20" target="_top" xlink:title=" ">
<polygon fill="white" stroke="#666666" points="429,-325 340,-325 340,-306 429,-306 429,-325"/>
<text text-anchor="middle" x="384.5" y="-313" font-family="Ubuntu Mono" font-size="10.00">ReadKkit::read</text>
</a>
</g>
</g>
<!-- Node7&#45;&gt;Node8 -->
<g id="edge7_Node000007_Node000008" class="edge">
<title>Node7&#45;&gt;Node8</title>
<g id="a_edge7_Node000007_Node000008"><a xlink:title=" ">
<path fill="none" stroke="#63b8ff" d="M454.6,-315.5C445.69,-315.5 437.06,-315.5 429.09,-315.5"/>
<polygon fill="#63b8ff" stroke="#63b8ff" points="454.75,-319 464.75,-315.5 454.75,-312 454.75,-319"/>
</a>
</g>
</g>
<!-- Node9 -->
<g id="Node000009" class="node">
<title>Node9</title>
<g id="a_Node000009"><a xlink:href="classShell.html#a506ff431369e3bce87f0e6c767fe475c" target="_top" xlink:title="Returns the Id of the loaded model.">
<polygon fill="white" stroke="#666666" points="304,-344 192,-344 192,-325 304,-325 304,-344"/>
<text text-anchor="middle" x="248" y="-332" font-family="Ubuntu Mono" font-size="10.00">Shell::doLoadModel</text>
</a>
</g>
</g>
<!-- Node8&#45;&gt;Node9 -->
<g id="edge8_Node000008_Node000009" class="edge">
<title>Node8&#45;&gt;Node9</title>
<g id="a_edge8_Node000008_Node000009"><a xlink:title=" ">
<path fill="none" stroke="#63b8ff" d="M329.77,-323.09C321.37,-324.28 312.67,-325.51 304.24,-326.7"/>
<polygon fill="#63b8ff" stroke="#63b8ff" points="330.42,-326.53 339.83,-321.67 329.44,-319.6 330.42,-326.53"/>
</a>
</g>
</g>
<!-- Node11 -->
<g id="Node000011" class="node">
<title>Node11</title>
<g id="a_Node000011"><a xlink:href="testKinetics_8cpp.html#a484ee971354e15c7a0dcf17fd1b0a8fa" target="_top" xlink:title=" ">
<polygon fill="white" stroke="#666666" points="288,-307 208,-307 208,-288 288,-288 288,-307"/>
<text text-anchor="middle" x="248" y="-295" font-family="Ubuntu Mono" font-size="10.00">testReadKkit</text>
</a>
</g>
</g>
<!-- Node8&#45;&gt;Node11 -->
<g id="edge10_Node000008_Node000011" class="edge">
<title>Node8&#45;&gt;Node11</title>
<g id="a_edge10_Node000008_Node000011"><a xlink:title=" ">
<path fill="none" stroke="#63b8ff" d="M329.91,-308.33C316.04,-306.47 301.35,-304.51 288.36,-302.77"/>
<polygon fill="#63b8ff" stroke="#63b8ff" points="329.46,-311.8 339.83,-309.66 330.38,-304.86 329.46,-311.8"/>
</a>
</g>
</g>
<!-- Node10 -->
<g id="Node000010" class="node">
<title>Node10</title>
<g id="a_Node000010"><a xlink:href="namespacepymoose.html#a995d880f6c2e5cfb0545ec3640f76eef" target="_top" xlink:title="Model loaders built into Shell, others can be implemented in Python.">
<polygon fill="white" stroke="#666666" points="156,-344 0,-344 0,-325 156,-325 156,-344"/>
<text text-anchor="middle" x="78" y="-332" font-family="Ubuntu Mono" font-size="10.00">pymoose::loadModelInternal</text>
</a>
</g>
</g>
<!-- Node9&#45;&gt;Node10 -->
<g id="edge9_Node000009_Node000010" class="edge">
<title>Node9&#45;&gt;Node10</title>
<g id="a_edge9_Node000009_Node000010"><a xlink:title=" ">
<path fill="none" stroke="#63b8ff" d="M181.85,-334.5C173.41,-334.5 164.7,-334.5 156.09,-334.5"/>
<polygon fill="#63b8ff" stroke="#63b8ff" points="181.99,-338 191.99,-334.5 181.99,-331 181.99,-338"/>
</a>
</g>
</g>
<!-- Node13 -->
<g id="Node000013" class="node">
<title>Node13</title>
<g id="a_Node000013"><a xlink:href="testKinetics_8cpp.html#aa3b1f89bca78db511bbd49a268e25309" target="_top" xlink:title=" ">
<polygon fill="white" stroke="#666666" points="599.5,-288 525.5,-288 525.5,-269 599.5,-269 599.5,-288"/>
<text text-anchor="middle" x="562.5" y="-276" font-family="Ubuntu Mono" font-size="10.00">testKinetics</text>
</a>
</g>
</g>
<!-- Node12&#45;&gt;Node13 -->
<g id="edge12_Node000012_Node000013" class="edge">
<title>Node12&#45;&gt;Node13</title>
<g id="a_edge12_Node000012_Node000013"><a xlink:title=" ">
<path fill="none" stroke="#63b8ff" d="M685.84,-278.5C655.96,-278.5 623.66,-278.5 599.75,-278.5"/>
<polygon fill="#63b8ff" stroke="#63b8ff" points="685.86,-282 695.86,-278.5 685.86,-275 685.86,-282"/>
</a>
</g>
</g>
<!-- Node15 -->
<g id="Node000015" class="node">
<title>Node15</title>
<g id="a_Node000015"><a xlink:href="classStoich.html#ab56684804de4012037cb0c1bc180991d" target="_top" xlink:title=" ">
<polygon fill="white" stroke="#666666" points="1348.5,-247 1226.5,-247 1226.5,-228 1348.5,-228 1348.5,-247"/>
<text text-anchor="middle" x="1287.5" y="-235" font-family="Ubuntu Mono" font-size="10.00">Stoich::zombifyModel</text>
</a>
</g>
</g>
<!-- Node14&#45;&gt;Node15 -->
<g id="edge14_Node000014_Node000015" class="edge">
<title>Node14&#45;&gt;Node15</title>
<g id="a_edge14_Node000014_Node000015"><a xlink:title=" ">
<path fill="none" stroke="#63b8ff" d="M1379.08,-237.5C1368.85,-237.5 1358.53,-237.5 1348.7,-237.5"/>
<polygon fill="#63b8ff" stroke="#63b8ff" points="1379.25,-241 1389.25,-237.5 1379.25,-234 1379.25,-241"/>
</a>
</g>
</g>
<!-- Node16 -->
<g id="Node000016" class="node">
<title>Node16</title>
<g id="a_Node000016"><a xlink:href="classStoich.html#a44698a8a652534dc594bd87f450d93c0" target="_top" xlink:title=" ">
<polygon fill="white" stroke="#666666" points="1170,-247 1081,-247 1081,-228 1170,-228 1170,-247"/>
<text text-anchor="middle" x="1125.5" y="-235" font-family="Ubuntu Mono" font-size="10.00">Stoich::setElist</text>
</a>
</g>
</g>
<!-- Node15&#45;&gt;Node16 -->
<g id="edge15_Node000015_Node000016" class="edge">
<title>Node15&#45;&gt;Node16</title>
<g id="a_edge15_Node000015_Node000016"><a xlink:title=" ">
<path fill="none" stroke="#63b8ff" d="M1216.3,-237.5C1200.69,-237.5 1184.57,-237.5 1170.37,-237.5"/>
<polygon fill="#63b8ff" stroke="#63b8ff" points="1216.47,-241 1226.47,-237.5 1216.47,-234 1216.47,-241"/>
</a>
</g>
</g>
<!-- Node17 -->
<g id="Node000017" class="node">
<title>Node17</title>
<g id="a_Node000017"><a xlink:href="classStoich.html#a0a32cb242e6fd1f6af653a48189feda5" target="_top" xlink:title=" ">
<polygon fill="white" stroke="#666666" points="1026,-247 877,-247 877,-228 1026,-228 1026,-247"/>
<text text-anchor="middle" x="951.5" y="-235" font-family="Ubuntu Mono" font-size="10.00">Stoich::setReacSystemPath</text>
</a>
</g>
</g>
<!-- Node16&#45;&gt;Node17 -->
<g id="edge16_Node000016_Node000017" class="edge">
<title>Node16&#45;&gt;Node17</title>
<g id="a_edge16_Node000016_Node000017"><a xlink:title=" ">
<path fill="none" stroke="#63b8ff" d="M1070.62,-237.5C1056.48,-237.5 1040.98,-237.5 1026,-237.5"/>
<polygon fill="#63b8ff" stroke="#63b8ff" points="1070.65,-241 1080.65,-237.5 1070.65,-234 1070.65,-241"/>
</a>
</g>
</g>
<!-- Node18 -->
<g id="Node000018" class="node">
<title>Node18</title>
<g id="a_Node000018"><a xlink:href="classStoich.html#ad8c6117d11f46222476ef4a464ecdc09" target="_top" xlink:title=" ">
<polygon fill="white" stroke="#666666" points="815.5,-248 721.5,-248 721.5,-229 815.5,-229 815.5,-248"/>
<text text-anchor="middle" x="768.5" y="-236" font-family="Ubuntu Mono" font-size="10.00">Stoich::initCinfo</text>
</a>
</g>
</g>
<!-- Node17&#45;&gt;Node18 -->
<g id="edge17_Node000017_Node000018" class="edge">
<title>Node17&#45;&gt;Node18</title>
<g id="a_edge17_Node000017_Node000018"><a xlink:title=" ">
<path fill="none" stroke="#63b8ff" d="M866.59,-237.96C849.01,-238.06 831.1,-238.16 815.53,-238.25"/>
<polygon fill="#63b8ff" stroke="#63b8ff" points="866.9,-241.46 876.88,-237.91 866.86,-234.46 866.9,-241.46"/>
</a>
</g>
</g>
<!-- Node19 -->
<g id="Node000019" class="node">
<title>Node19</title>
<g id="a_Node000019"><a xlink:href="classStoich.html#aec019d0f2ceb1d021062c1a3e712803a" target="_top" xlink:title=" ">
<polygon fill="white" stroke="#666666" points="813,-211 724,-211 724,-192 813,-192 813,-211"/>
<text text-anchor="middle" x="768.5" y="-199" font-family="Ubuntu Mono" font-size="10.00">Stoich::setPath</text>
</a>
</g>
</g>
<!-- Node17&#45;&gt;Node19 -->
<g id="edge18_Node000017_Node000019" class="edge">
<title>Node17&#45;&gt;Node19</title>
<g id="a_edge18_Node000017_Node000019"><a xlink:title=" ">
<path fill="none" stroke="#63b8ff" d="M892.45,-225.95C866.7,-220.83 836.91,-214.91 813.1,-210.17"/>
<polygon fill="#63b8ff" stroke="#63b8ff" points="891.98,-229.43 902.47,-227.95 893.35,-222.56 891.98,-229.43"/>
</a>
</g>
</g>
<!-- Node21 -->
<g id="Node000021" class="node">
<title>Node21</title>
<g id="a_Node000021"><a xlink:href="classStoich.html#a94c42faac56d3fc658d4ca704b4c56b0" target="_top" xlink:title=" ">
<polygon fill="white" stroke="#666666" points="1348.5,-204 1226.5,-204 1226.5,-185 1348.5,-185 1348.5,-204"/>
<text text-anchor="middle" x="1287.5" y="-192" font-family="Ubuntu Mono" font-size="10.00">Stoich::installEnzyme</text>
</a>
</g>
</g>
<!-- Node20&#45;&gt;Node21 -->
<g id="edge20_Node000020_Node000021" class="edge">
<title>Node20&#45;&gt;Node21</title>
<g id="a_edge20_Node000020_Node000021"><a xlink:title=" ">
<path fill="none" stroke="#63b8ff" d="M1389.34,-194.5C1375.85,-194.5 1361.84,-194.5 1348.71,-194.5"/>
<polygon fill="#63b8ff" stroke="#63b8ff" points="1389.54,-198 1399.54,-194.5 1389.54,-191 1389.54,-198"/>
</a>
</g>
</g>
<!-- Node22 -->
<g id="Node000022" class="node">
<title>Node22</title>
<g id="a_Node000022"><a xlink:href="classEnz.html#a369dd4f9a9e8718d312b91d289edccc4" target="_top" xlink:title=" ">
<polygon fill="white" stroke="#666666" points="1168.5,-204 1082.5,-204 1082.5,-185 1168.5,-185 1168.5,-204"/>
<text text-anchor="middle" x="1125.5" y="-192" font-family="Ubuntu Mono" font-size="10.00">Enz::setSolver</text>
</a>
</g>
</g>
<!-- Node21&#45;&gt;Node22 -->
<g id="edge21_Node000021_Node000022" class="edge">
<title>Node21&#45;&gt;Node22</title>
<g id="a_edge21_Node000021_Node000022"><a xlink:title=" ">
<path fill="none" stroke="#63b8ff" d="M1216.01,-194.5C1199.95,-194.5 1183.36,-194.5 1168.9,-194.5"/>
<polygon fill="#63b8ff" stroke="#63b8ff" points="1216.47,-198 1226.47,-194.5 1216.47,-191 1216.47,-198"/>
</a>
</g>
</g>
<!-- Node23 -->
<g id="Node000023" class="node">
<title>Node23</title>
<g id="a_Node000023"><a xlink:href="classEnz.html#a3e5ca82f4ac57afcbfa71949ce0cf749" target="_top" xlink:title=" ">
<polygon fill="white" stroke="#666666" points="992,-204 911,-204 911,-185 992,-185 992,-204"/>
<text text-anchor="middle" x="951.5" y="-192" font-family="Ubuntu Mono" font-size="10.00">Enz::initCinfo</text>
</a>
</g>
</g>
<!-- Node22&#45;&gt;Node23 -->
<g id="edge22_Node000022_Node000023" class="edge">
<title>Node22&#45;&gt;Node23</title>
<g id="a_edge22_Node000022_Node000023"><a xlink:title=" ">
<path fill="none" stroke="#63b8ff" d="M1072.08,-194.5C1046.34,-194.5 1015.83,-194.5 992.08,-194.5"/>
<polygon fill="#63b8ff" stroke="#63b8ff" points="1072.42,-198 1082.42,-194.5 1072.42,-191 1072.42,-198"/>
</a>
</g>
</g>
<!-- Node25 -->
<g id="Node000025" class="node">
<title>Node25</title>
<g id="a_Node000025"><a xlink:href="classStoich.html#a3a48bf980e4a78ea15a42987f75c44f0" target="_top" xlink:title=" ">
<polygon fill="white" stroke="#666666" points="1346.5,-167 1228.5,-167 1228.5,-148 1346.5,-148 1346.5,-167"/>
<text text-anchor="middle" x="1287.5" y="-155" font-family="Ubuntu Mono" font-size="10.00">Stoich::installMMenz</text>
</a>
</g>
</g>
<!-- Node24&#45;&gt;Node25 -->
<g id="edge24_Node000024_Node000025" class="edge">
<title>Node24&#45;&gt;Node25</title>
<g id="a_edge24_Node000024_Node000025"><a xlink:title=" ">
<path fill="none" stroke="#63b8ff" d="M1391.71,-157.5C1376.74,-157.5 1361.03,-157.5 1346.5,-157.5"/>
<polygon fill="#63b8ff" stroke="#63b8ff" points="1391.94,-161 1401.94,-157.5 1391.94,-154 1391.94,-161"/>
</a>
</g>
</g>
<!-- Node26 -->
<g id="Node000026" class="node">
<title>Node26</title>
<g id="a_Node000026"><a xlink:href="classMMenz.html#ad391949741ca05d043245f9d93d14c7e" target="_top" xlink:title=" ">
<polygon fill="white" stroke="#666666" points="1177.5,-167 1073.5,-167 1073.5,-148 1177.5,-148 1177.5,-167"/>
<text text-anchor="middle" x="1125.5" y="-155" font-family="Ubuntu Mono" font-size="10.00">MMenz::setSolver</text>
</a>
</g>
</g>
<!-- Node25&#45;&gt;Node26 -->
<g id="edge25_Node000025_Node000026" class="edge">
<title>Node25&#45;&gt;Node26</title>
<g id="a_edge25_Node000025_Node000026"><a xlink:title=" ">
<path fill="none" stroke="#63b8ff" d="M1218.01,-157.5C1204.44,-157.5 1190.41,-157.5 1177.53,-157.5"/>
<polygon fill="#63b8ff" stroke="#63b8ff" points="1218.28,-161 1228.28,-157.5 1218.28,-154 1218.28,-161"/>
</a>
</g>
</g>
<!-- Node27 -->
<g id="Node000027" class="node">
<title>Node27</title>
<g id="a_Node000027"><a xlink:href="classMMenz.html#aac1466097d1b877b61236241c572174f" target="_top" xlink:title=" ">
<polygon fill="white" stroke="#666666" points="1001,-167 902,-167 902,-148 1001,-148 1001,-167"/>
<text text-anchor="middle" x="951.5" y="-155" font-family="Ubuntu Mono" font-size="10.00">MMenz::initCinfo</text>
</a>
</g>
</g>
<!-- Node26&#45;&gt;Node27 -->
<g id="edge26_Node000026_Node000027" class="edge">
<title>Node26&#45;&gt;Node27</title>
<g id="a_edge26_Node000026_Node000027"><a xlink:title=" ">
<path fill="none" stroke="#63b8ff" d="M1063.22,-157.5C1042.82,-157.5 1020.39,-157.5 1001.08,-157.5"/>
<polygon fill="#63b8ff" stroke="#63b8ff" points="1063.36,-161 1073.36,-157.5 1063.36,-154 1063.36,-161"/>
</a>
</g>
</g>
<!-- Node29 -->
<g id="Node000029" class="node">
<title>Node29</title>
<g id="a_Node000029"><a xlink:href="classSparseMsg.html#ab0ecf3046d28351986deb6790d2c7668" target="_top" xlink:title=" ">
<polygon fill="white" stroke="#666666" points="1346,-130 1229,-130 1229,-111 1346,-111 1346,-130"/>
<text text-anchor="middle" x="1287.5" y="-118" font-family="Ubuntu Mono" font-size="10.00">SparseMsg::initCinfo</text>
</a>
</g>
</g>
<!-- Node28&#45;&gt;Node29 -->
<g id="edge28_Node000028_Node000029" class="edge">
<title>Node28&#45;&gt;Node29</title>
<g id="a_edge28_Node000028_Node000029"><a xlink:title=" ">
<path fill="none" stroke="#63b8ff" d="M1392.46,-120.5C1377.17,-120.5 1361.08,-120.5 1346.24,-120.5"/>
<polygon fill="#63b8ff" stroke="#63b8ff" points="1392.89,-124 1402.89,-120.5 1392.89,-117 1392.89,-124"/>
</a>
</g>
</g>
<!-- Node30 -->
<g id="Node000030" class="node">
<title>Node30</title>
<g id="a_Node000030"><a xlink:href="classMsg.html#af3de05897dc7602c64678a31c58ebece" target="_top" xlink:title=" ">
<polygon fill="white" stroke="#666666" points="1189,-130 1062,-130 1062,-111 1189,-111 1189,-130"/>
<text text-anchor="middle" x="1125.5" y="-118" font-family="Ubuntu Mono" font-size="10.00">Msg::initMsgManagers</text>
</a>
</g>
</g>
<!-- Node29&#45;&gt;Node30 -->
<g id="edge29_Node000029_Node000030" class="edge">
<title>Node29&#45;&gt;Node30</title>
<g id="a_edge29_Node000029_Node000030"><a xlink:title=" ">
<path fill="none" stroke="#63b8ff" d="M1218.63,-120.5C1208.81,-120.5 1198.75,-120.5 1189.05,-120.5"/>
<polygon fill="#63b8ff" stroke="#63b8ff" points="1218.74,-124 1228.74,-120.5 1218.74,-117 1218.74,-124"/>
</a>
</g>
</g>
<!-- Node31 -->
<g id="Node000031" class="node">
<title>Node31</title>
<g id="a_Node000031"><a xlink:href="main_8cpp.html#a6e304b494f9a324f952d9f2033b2b136" target="_top" xlink:title=" ">
<polygon fill="white" stroke="#666666" points="967.5,-130 935.5,-130 935.5,-111 967.5,-111 967.5,-130"/>
<text text-anchor="middle" x="951.5" y="-118" font-family="Ubuntu Mono" font-size="10.00">init</text>
</a>
</g>
</g>
<!-- Node30&#45;&gt;Node31 -->
<g id="edge30_Node000030_Node000031" class="edge">
<title>Node30&#45;&gt;Node31</title>
<g id="a_edge30_Node000030_Node000031"><a xlink:title=" ">
<path fill="none" stroke="#63b8ff" d="M1051.83,-120.5C1020.42,-120.5 986.57,-120.5 967.61,-120.5"/>
<polygon fill="#63b8ff" stroke="#63b8ff" points="1051.92,-124 1061.92,-120.5 1051.92,-117 1051.92,-124"/>
</a>
</g>
</g>
<!-- Node33 -->
<g id="Node000033" class="node">
<title>Node33</title>
<g id="a_Node000033"><a xlink:href="namespacepymoose.html#ac084ce08f68367317e7c014c61520ac9" target="_top" xlink:title="Initialize shell object.">
<polygon fill="white" stroke="#666666" points="1005,-93 898,-93 898,-74 1005,-74 1005,-93"/>
<text text-anchor="middle" x="951.5" y="-81" font-family="Ubuntu Mono" font-size="10.00">pymoose::initShell</text>
</a>
</g>
</g>
<!-- Node30&#45;&gt;Node33 -->
<g id="edge32_Node000030_Node000033" class="edge">
<title>Node30&#45;&gt;Node33</title>
<g id="a_edge32_Node000030_Node000033"><a xlink:title=" ">
<path fill="none" stroke="#63b8ff" d="M1070.33,-108.85C1046.71,-103.77 1019.35,-97.88 996.94,-93.06"/>
<polygon fill="#63b8ff" stroke="#63b8ff" points="1069.69,-112.29 1080.21,-110.97 1071.17,-105.45 1069.69,-112.29"/>
</a>
</g>
</g>
<!-- Node32 -->
<g id="Node000032" class="node">
<title>Node32</title>
<g id="a_Node000032"><a xlink:href="main_8cpp.html#a3c04138a5bfe5d72780bb7e82a18e627" target="_top" xlink:title=" ">
<polygon fill="white" stroke="#666666" points="789,-130 748,-130 748,-111 789,-111 789,-130"/>
<text text-anchor="middle" x="768.5" y="-118" font-family="Ubuntu Mono" font-size="10.00">main</text>
</a>
</g>
</g>
<!-- Node31&#45;&gt;Node32 -->
<g id="edge31_Node000031_Node000032" class="edge">
<title>Node31&#45;&gt;Node32</title>
<g id="a_edge31_Node000031_Node000032"><a xlink:title=" ">
<path fill="none" stroke="#63b8ff" d="M925.07,-120.5C888.53,-120.5 821.95,-120.5 789.02,-120.5"/>
<polygon fill="#63b8ff" stroke="#63b8ff" points="925.38,-124 935.38,-120.5 925.38,-117 925.38,-124"/>
</a>
</g>
</g>
<!-- Node34 -->
<g id="Node000034" class="node">
<title>Node34</title>
<g id="a_Node000034"><a xlink:href="pymoose_8cpp.html#a8650e41c2375717fa66fb61a653d866e" target="_top" xlink:title=" ">
<polygon fill="white" stroke="#666666" points="808,-93 729,-93 729,-74 808,-74 808,-93"/>
<text text-anchor="middle" x="768.5" y="-81" font-family="Ubuntu Mono" font-size="10.00">NB_MODULE</text>
</a>
</g>
</g>
<!-- Node33&#45;&gt;Node34 -->
<g id="edge33_Node000033_Node000034" class="edge">
<title>Node33&#45;&gt;Node34</title>
<g id="a_edge33_Node000033_Node000034"><a xlink:title=" ">
<path fill="none" stroke="#63b8ff" d="M887.34,-83.5C860.92,-83.5 831.06,-83.5 808.01,-83.5"/>
<polygon fill="#63b8ff" stroke="#63b8ff" points="887.66,-87 897.66,-83.5 887.66,-80 887.66,-87"/>
</a>
</g>
</g>
</g>
</svg>

<g id="navigator" transform="translate(0 0)" fill="#404254">
  <rect fill="#f2f5e9" fill-opacity="0.5" stroke="#606060" stroke-width=".5" x="0" y="0" width="60" height="60"/>
  <use id="zoomplus" xlink:href="#zoomPlus" x="17" y="9" onmousedown="handleZoom(evt,'in')"/>
  <use id="zoomminus" xlink:href="#zoomMin" x="42" y="9" onmousedown="handleZoom(evt,'out')"/>
  <use id="reset" xlink:href="#resetDef" x="30" y="36" onmousedown="handleReset()"/>
   <use id="arrowup" xlink:href="#arrowUp" x="0" y="0" onmousedown="handlePan(0,-1)"/>
  <use id="arrowright" xlink:href="#arrowRight" x="0" y="0" onmousedown="handlePan(1,0)"/>
  <use id="arrowdown" xlink:href="#arrowDown" x="0" y="0" onmousedown="handlePan(0,1)"/>
  <use id="arrowleft" xlink:href="#arrowLeft" x="0" y="0" onmousedown="handlePan(-1,0)"/>
</g>
<svg viewBox="0 0 15 15" width="100%" height="30px" preserveAspectRatio="xMaxYMin meet">
 <g id="arrow_out" transform="scale(0.3 0.3)">
  <a xlink:href="classSparseMatrix_a0dddc631322ef8cae33f24b770bafe60_icgraph_org.svg" target="_base">
   <rect id="button" ry="5" rx="5" y="6" x="6" height="38" width="38"
        fill="#f2f5e9" fill-opacity="0.5" stroke="#606060" stroke-width="1.0"/>
   <path id="arrow"
     d="M 11.500037,31.436501 C 11.940474,20.09759 22.043105,11.32322 32.158766,21.979434 L 37.068811,17.246167 C 37.068811,17.246167 37.088388,32 37.088388,32 L 22.160133,31.978069 C 22.160133,31.978069 26.997745,27.140456 26.997745,27.140456 C 18.528582,18.264221 13.291696,25.230495 11.500037,31.436501 z"
     style="fill:#404040;"/>
  </a>
 </g>
</svg>

<style type='text/css'>
<![CDATA[
[data-mouse-over-selected='false'] { opacity: 0.7; }
[data-mouse-over-selected='true']  { opacity: 1.0; }
]]>
</style>
<script type="application/ecmascript"><![CDATA[
document.addEventListener('DOMContentLoaded', (event) => {
  highlightEdges();
  highlightAdjacentNodes();
});
]]></script>
</svg>
