<?xml version="1.0" encoding="UTF-8" standalone="no"?>
<!DOCTYPE svg PUBLIC "-//W3C//DTD SVG 1.1//EN"
 "http://www.w3.org/Graphics/SVG/1.1/DTD/svg11.dtd">
<!-- Generated by graphviz version 2.43.0 (0)
 -->
<!-- Title: HHGateBase::isOriginalChannel Pages: 1 -->
<!--zoomable 212 -->

<svg id="main" version="1.1" xmlns="http://www.w3.org/2000/svg" xmlns:xlink="http://www.w3.org/1999/xlink" xml:space="preserve" onload="init(evt)">
<style type="text/css"><![CDATA[
.node, .edge {opacity: 0.7;}
.node.selected, .edge.selected {opacity: 1;}
.edge:hover path { stroke: red; }
.edge:hover polygon { stroke: red; fill: red; }
]]></style>

<defs>
  <circle id="rim" cx="0" cy="0" r="7"/>
  <circle id="rim2" cx="0" cy="0" r="3.5"/>
  <g id="zoomPlus">
    <use xlink:href="#rim" fill="#404040"><set attributeName="fill" to="#808080" begin="zoomplus.mouseover" end="zoomplus.mouseout"/></use>
    <path d="M-4,0h8M0,-4v8" fill="none" stroke="white" stroke-width="1.5" pointer-events="none"/>
  </g>
  <g id="zoomMin">
    <use xlink:href="#rim" fill="#404040"><set attributeName="fill" to="#808080" begin="zoomminus.mouseover" end="zoomminus.mouseout"/></use>
    <path d="M-4,0h8" fill="none" stroke="white" stroke-width="1.5" pointer-events="none"/>
  </g>
  <g id="arrowUp" transform="translate(30 24)">
    <use xlink:href="#rim"/>
    <path pointer-events="none" fill="none" stroke="white" stroke-width="1.5" d="M0,-3.0v7 M-2.5,-0.5L0,-3.0L2.5,-0.5"/>
  </g>
  <g id="arrowRight" transform="rotate(90) translate(36 -43)">
    <use xlink:href="#rim"/>
    <path pointer-events="none" fill="none" stroke="white" stroke-width="1.5" d="M0,-3.0v7 M-2.5,-0.5L0,-3.0L2.5,-0.5"/>
  </g>
  <g id="arrowDown" transform="rotate(180) translate(-30 -48)">
    <use xlink:href="#rim"/>
    <path pointer-events="none" fill="none" stroke="white" stroke-width="1.5" d="M0,-3.0v7 M-2.5,-0.5L0,-3.0L2.5,-0.5"/>
  </g>
  <g id="arrowLeft" transform="rotate(270) translate(-36 17)">
    <use xlink:href="#rim"/>
    <path pointer-events="none" fill="none" stroke="white" stroke-width="1.5" d="M0,-3.0v7 M-2.5,-0.5L0,-3.0L2.5,-0.5"/>
  </g>
  <g id="resetDef">
    <use xlink:href="#rim2" fill="#404040"><set attributeName="fill" to="#808080" begin="reset.mouseover" end="reset.mouseout"/></use>
  </g>
</defs>
<script type="application/ecmascript">
var viewWidth = 573;
var viewHeight = 212;
var sectionId = 'dynsection-7';
</script>
<script type="application/ecmascript" xlink:href="svg.min.js"/>
<svg id="graph" class="graph">
<g id="viewport">
<title>HHGateBase::isOriginalChannel</title>
<!-- Node1 -->
<g id="Node000001" class="node">
<title>Node1</title>
<g id="a_Node000001"><a xlink:title=" ">
<polygon fill="#999999" stroke="#666666" points="565,-112 394,-112 394,-93 565,-93 565,-112"/>
<text text-anchor="middle" x="479.5" y="-100" font-family="Ubuntu Mono" font-size="10.00">HHGateBase::isOriginalChannel</text>
</a>
</g>
</g>
<!-- Node2 -->
<g id="Node000002" class="node">
<title>Node2</title>
<g id="a_Node000002"><a xlink:href="classHHChannel.html#af99fd659b088b19e70069c2f41a3c70c" target="_top" xlink:title="Returns true if channel is original, false if copy.">
<polygon fill="white" stroke="#666666" points="348,-167 204,-167 204,-148 348,-148 348,-167"/>
<text text-anchor="middle" x="276" y="-155" font-family="Ubuntu Mono" font-size="10.00">HHChannel::checkOriginal</text>
</a>
</g>
</g>
<!-- Node1&#45;&gt;Node2 -->
<g id="edge1_Node000001_Node000002" class="edge">
<title>Node1&#45;&gt;Node2</title>
<g id="a_edge1_Node000001_Node000002"><a xlink:title=" ">
<path fill="none" stroke="#63b8ff" d="M433.46,-114.79C396.78,-124.81 345.71,-138.74 312.03,-147.94"/>
<polygon fill="#63b8ff" stroke="#63b8ff" points="434.68,-118.09 443.4,-112.08 432.83,-111.34 434.68,-118.09"/>
</a>
</g>
</g>
<!-- Node5 -->
<g id="Node000005" class="node">
<title>Node5</title>
<g id="a_Node000005"><a xlink:href="classHHChannelF.html#ac413e239ddce71cc8da2b84fb2f19bac" target="_top" xlink:title="Returns true if channel is original, false if copy.">
<polygon fill="white" stroke="#666666" points="350.5,-112 201.5,-112 201.5,-93 350.5,-93 350.5,-112"/>
<text text-anchor="middle" x="276" y="-100" font-family="Ubuntu Mono" font-size="10.00">HHChannelF::checkOriginal</text>
</a>
</g>
</g>
<!-- Node1&#45;&gt;Node5 -->
<g id="edge4_Node000001_Node000005" class="edge">
<title>Node1&#45;&gt;Node5</title>
<g id="a_edge4_Node000001_Node000005"><a xlink:title=" ">
<path fill="none" stroke="#63b8ff" d="M383.79,-102.5C372.71,-102.5 361.54,-102.5 350.8,-102.5"/>
<polygon fill="#63b8ff" stroke="#63b8ff" points="383.92,-106 393.92,-102.5 383.92,-99 383.92,-106"/>
</a>
</g>
</g>
<!-- Node8 -->
<g id="Node000008" class="node">
<title>Node8</title>
<g id="a_Node000008"><a xlink:href="classHHChannelF2D.html#a26ad1a4612177e372ccf5b2c92a3c5ed" target="_top" xlink:title="Returns true if channel is original, false if copy.">
<polygon fill="white" stroke="#666666" points="358,-56 194,-56 194,-37 358,-37 358,-56"/>
<text text-anchor="middle" x="276" y="-44" font-family="Ubuntu Mono" font-size="10.00">HHChannelF2D::checkOriginal</text>
</a>
</g>
</g>
<!-- Node1&#45;&gt;Node8 -->
<g id="edge7_Node000001_Node000008" class="edge">
<title>Node1&#45;&gt;Node8</title>
<g id="a_edge7_Node000001_Node000008"><a xlink:title=" ">
<path fill="none" stroke="#63b8ff" d="M433.84,-90.09C396.82,-79.8 344.97,-65.39 311.19,-56"/>
<polygon fill="#63b8ff" stroke="#63b8ff" points="433.29,-93.57 443.86,-92.87 435.16,-86.82 433.29,-93.57"/>
</a>
</g>
</g>
<!-- Node3 -->
<g id="Node000003" class="node">
<title>Node3</title>
<g id="a_Node000003"><a xlink:href="classHHChannel.html#a629f02c43a7893ea95ec1a5c04894d0e" target="_top" xlink:title=" ">
<polygon fill="white" stroke="#666666" points="147.5,-204 10.5,-204 10.5,-185 147.5,-185 147.5,-204"/>
<text text-anchor="middle" x="79" y="-192" font-family="Ubuntu Mono" font-size="10.00">HHChannel::destroyGate</text>
</a>
</g>
</g>
<!-- Node2&#45;&gt;Node3 -->
<g id="edge2_Node000002_Node000003" class="edge">
<title>Node2&#45;&gt;Node3</title>
<g id="a_edge2_Node000002_Node000003"><a xlink:title=" ">
<path fill="none" stroke="#63b8ff" d="M214.66,-168.95C187.64,-174.08 156.13,-180.06 130.39,-184.94"/>
<polygon fill="#63b8ff" stroke="#63b8ff" points="215.61,-172.33 224.78,-167.03 214.31,-165.45 215.61,-172.33"/>
</a>
</g>
</g>
<!-- Node4 -->
<g id="Node000004" class="node">
<title>Node4</title>
<g id="a_Node000004"><a xlink:href="classHHChannel.html#ae0a3ec99ce129c5170c601a022b825ab" target="_top" xlink:title=" ">
<polygon fill="white" stroke="#666666" points="148.5,-167 9.5,-167 9.5,-148 148.5,-148 148.5,-167"/>
<text text-anchor="middle" x="79" y="-155" font-family="Ubuntu Mono" font-size="10.00">HHChannel::vCreateGate</text>
</a>
</g>
</g>
<!-- Node2&#45;&gt;Node4 -->
<g id="edge3_Node000002_Node000004" class="edge">
<title>Node2&#45;&gt;Node4</title>
<g id="a_edge3_Node000002_Node000004"><a xlink:title=" ">
<path fill="none" stroke="#63b8ff" d="M193.56,-157.5C178.66,-157.5 163.24,-157.5 148.76,-157.5"/>
<polygon fill="#63b8ff" stroke="#63b8ff" points="193.77,-161 203.77,-157.5 193.77,-154 193.77,-161"/>
</a>
</g>
</g>
<!-- Node6 -->
<g id="Node000006" class="node">
<title>Node6</title>
<g id="a_Node000006"><a xlink:href="classHHChannelF.html#a62970357640c1dafb904e4d6208a1d54" target="_top" xlink:title=" ">
<polygon fill="white" stroke="#666666" points="150.5,-130 7.5,-130 7.5,-111 150.5,-111 150.5,-130"/>
<text text-anchor="middle" x="79" y="-118" font-family="Ubuntu Mono" font-size="10.00">HHChannelF::destroyGate</text>
</a>
</g>
</g>
<!-- Node5&#45;&gt;Node6 -->
<g id="edge5_Node000005_Node000006" class="edge">
<title>Node5&#45;&gt;Node6</title>
<g id="a_edge5_Node000005_Node000006"><a xlink:title=" ">
<path fill="none" stroke="#63b8ff" d="M191.05,-110.25C177.57,-111.49 163.73,-112.77 150.6,-113.98"/>
<polygon fill="#63b8ff" stroke="#63b8ff" points="191.64,-113.71 201.28,-109.31 191,-106.74 191.64,-113.71"/>
</a>
</g>
</g>
<!-- Node7 -->
<g id="Node000007" class="node">
<title>Node7</title>
<g id="a_Node000007"><a xlink:href="classHHChannelF.html#a8ac8ce4fe69e72dcfe8b04e0fe93fc38" target="_top" xlink:title=" ">
<polygon fill="white" stroke="#666666" points="151,-93 7,-93 7,-74 151,-74 151,-93"/>
<text text-anchor="middle" x="79" y="-81" font-family="Ubuntu Mono" font-size="10.00">HHChannelF::vCreateGate</text>
</a>
</g>
</g>
<!-- Node5&#45;&gt;Node7 -->
<g id="edge6_Node000005_Node000007" class="edge">
<title>Node5&#45;&gt;Node7</title>
<g id="a_edge6_Node000005_Node000007"><a xlink:title=" ">
<path fill="none" stroke="#63b8ff" d="M191.19,-94.33C177.88,-93.04 164.23,-91.71 151.24,-90.44"/>
<polygon fill="#63b8ff" stroke="#63b8ff" points="190.99,-97.83 201.28,-95.32 191.67,-90.86 190.99,-97.83"/>
</a>
</g>
</g>
<!-- Node9 -->
<g id="Node000009" class="node">
<title>Node9</title>
<g id="a_Node000009"><a xlink:href="classHHChannelF2D.html#a758871de6834abe4f1edb1ce4aae79b3" target="_top" xlink:title=" ">
<polygon fill="white" stroke="#666666" points="157.5,-56 0.5,-56 0.5,-37 157.5,-37 157.5,-56"/>
<text text-anchor="middle" x="79" y="-44" font-family="Ubuntu Mono" font-size="10.00">HHChannelF2D::destroyGate</text>
</a>
</g>
</g>
<!-- Node8&#45;&gt;Node9 -->
<g id="edge8_Node000008_Node000009" class="edge">
<title>Node8&#45;&gt;Node9</title>
<g id="a_edge8_Node000008_Node000009"><a xlink:title=" ">
<path fill="none" stroke="#63b8ff" d="M183.78,-46.5C175.03,-46.5 166.22,-46.5 157.62,-46.5"/>
<polygon fill="#63b8ff" stroke="#63b8ff" points="184,-50 194,-46.5 184,-43 184,-50"/>
</a>
</g>
</g>
<!-- Node10 -->
<g id="Node000010" class="node">
<title>Node10</title>
<g id="a_Node000010"><a xlink:href="classHHChannelF2D.html#a2aaaf3f6af2898921c6e67451fcd5573" target="_top" xlink:title=" ">
<polygon fill="white" stroke="#666666" points="158,-19 0,-19 0,0 158,0 158,-19"/>
<text text-anchor="middle" x="79" y="-7" font-family="Ubuntu Mono" font-size="10.00">HHChannelF2D::vCreateGate</text>
</a>
</g>
</g>
<!-- Node8&#45;&gt;Node10 -->
<g id="edge9_Node000008_Node000010" class="edge">
<title>Node8&#45;&gt;Node10</title>
<g id="a_edge9_Node000008_Node000010"><a xlink:title=" ">
<path fill="none" stroke="#63b8ff" d="M214.66,-35.05C187.64,-29.92 156.13,-23.94 130.39,-19.06"/>
<polygon fill="#63b8ff" stroke="#63b8ff" points="214.31,-38.55 224.78,-36.97 215.61,-31.67 214.31,-38.55"/>
</a>
</g>
</g>
</g>
</svg>

<g id="navigator" transform="translate(0 0)" fill="#404254">
  <rect fill="#f2f5e9" fill-opacity="0.5" stroke="#606060" stroke-width=".5" x="0" y="0" width="60" height="60"/>
  <use id="zoomplus" xlink:href="#zoomPlus" x="17" y="9" onmousedown="handleZoom(evt,'in')"/>
  <use id="zoomminus" xlink:href="#zoomMin" x="42" y="9" onmousedown="handleZoom(evt,'out')"/>
  <use id="reset" xlink:href="#resetDef" x="30" y="36" onmousedown="handleReset()"/>
   <use id="arrowup" xlink:href="#arrowUp" x="0" y="0" onmousedown="handlePan(0,-1)"/>
  <use id="arrowright" xlink:href="#arrowRight" x="0" y="0" onmousedown="handlePan(1,0)"/>
  <use id="arrowdown" xlink:href="#arrowDown" x="0" y="0" onmousedown="handlePan(0,1)"/>
  <use id="arrowleft" xlink:href="#arrowLeft" x="0" y="0" onmousedown="handlePan(-1,0)"/>
</g>
<svg viewBox="0 0 15 15" width="100%" height="30px" preserveAspectRatio="xMaxYMin meet">
 <g id="arrow_out" transform="scale(0.3 0.3)">
  <a xlink:href="classHHGateBase_a788b4f944d7e8da7965b65824a7eff10_icgraph_org.svg" target="_base">
   <rect id="button" ry="5" rx="5" y="6" x="6" height="38" width="38"
        fill="#f2f5e9" fill-opacity="0.5" stroke="#606060" stroke-width="1.0"/>
   <path id="arrow"
     d="M 11.500037,31.436501 C 11.940474,20.09759 22.043105,11.32322 32.158766,21.979434 L 37.068811,17.246167 C 37.068811,17.246167 37.088388,32 37.088388,32 L 22.160133,31.978069 C 22.160133,31.978069 26.997745,27.140456 26.997745,27.140456 C 18.528582,18.264221 13.291696,25.230495 11.500037,31.436501 z"
     style="fill:#404040;"/>
  </a>
 </g>
</svg>

<style type='text/css'>
<![CDATA[
[data-mouse-over-selected='false'] { opacity: 0.7; }
[data-mouse-over-selected='true']  { opacity: 1.0; }
]]>
</style>
<script type="application/ecmascript"><![CDATA[
document.addEventListener('DOMContentLoaded', (event) => {
  highlightEdges();
  highlightAdjacentNodes();
});
]]></script>
</svg>
