<?xml version="1.0" encoding="UTF-8" standalone="no"?>
<!DOCTYPE svg PUBLIC "-//W3C//DTD SVG 1.1//EN"
 "http://www.w3.org/Graphics/SVG/1.1/DTD/svg11.dtd">
<!-- Generated by graphviz version 2.43.0 (0)
 -->
<!-- Title: Interpol2D::innerLookup Pages: 1 -->
<!--zoomable 187 -->

<svg id="main" version="1.1" xmlns="http://www.w3.org/2000/svg" xmlns:xlink="http://www.w3.org/1999/xlink" xml:space="preserve" onload="init(evt)">
<style type="text/css"><![CDATA[
.node, .edge {opacity: 0.7;}
.node.selected, .edge.selected {opacity: 1;}
.edge:hover path { stroke: red; }
.edge:hover polygon { stroke: red; fill: red; }
]]></style>

<defs>
  <circle id="rim" cx="0" cy="0" r="7"/>
  <circle id="rim2" cx="0" cy="0" r="3.5"/>
  <g id="zoomPlus">
    <use xlink:href="#rim" fill="#404040"><set attributeName="fill" to="#808080" begin="zoomplus.mouseover" end="zoomplus.mouseout"/></use>
    <path d="M-4,0h8M0,-4v8" fill="none" stroke="white" stroke-width="1.5" pointer-events="none"/>
  </g>
  <g id="zoomMin">
    <use xlink:href="#rim" fill="#404040"><set attributeName="fill" to="#808080" begin="zoomminus.mouseover" end="zoomminus.mouseout"/></use>
    <path d="M-4,0h8" fill="none" stroke="white" stroke-width="1.5" pointer-events="none"/>
  </g>
  <g id="arrowUp" transform="translate(30 24)">
    <use xlink:href="#rim"/>
    <path pointer-events="none" fill="none" stroke="white" stroke-width="1.5" d="M0,-3.0v7 M-2.5,-0.5L0,-3.0L2.5,-0.5"/>
  </g>
  <g id="arrowRight" transform="rotate(90) translate(36 -43)">
    <use xlink:href="#rim"/>
    <path pointer-events="none" fill="none" stroke="white" stroke-width="1.5" d="M0,-3.0v7 M-2.5,-0.5L0,-3.0L2.5,-0.5"/>
  </g>
  <g id="arrowDown" transform="rotate(180) translate(-30 -48)">
    <use xlink:href="#rim"/>
    <path pointer-events="none" fill="none" stroke="white" stroke-width="1.5" d="M0,-3.0v7 M-2.5,-0.5L0,-3.0L2.5,-0.5"/>
  </g>
  <g id="arrowLeft" transform="rotate(270) translate(-36 17)">
    <use xlink:href="#rim"/>
    <path pointer-events="none" fill="none" stroke="white" stroke-width="1.5" d="M0,-3.0v7 M-2.5,-0.5L0,-3.0L2.5,-0.5"/>
  </g>
  <g id="resetDef">
    <use xlink:href="#rim2" fill="#404040"><set attributeName="fill" to="#808080" begin="reset.mouseover" end="reset.mouseout"/></use>
  </g>
</defs>
<script type="application/ecmascript">
var viewWidth = 896;
var viewHeight = 187;
var sectionId = 'dynsection-20';
</script>
<script type="application/ecmascript" xlink:href="svg.min.js"/>
<svg id="graph" class="graph">
<g id="viewport">
<title>Interpol2D::innerLookup</title>
<!-- Node1 -->
<g id="Node000001" class="node">
<title>Node1</title>
<g id="a_Node000001"><a xlink:title=" ">
<polygon fill="#999999" stroke="#666666" points="888,-93 755,-93 755,-74 888,-74 888,-93"/>
<text text-anchor="middle" x="821.5" y="-81" font-family="Ubuntu Mono" font-size="10.00">Interpol2D::innerLookup</text>
</a>
</g>
</g>
<!-- Node2 -->
<g id="Node000002" class="node">
<title>Node2</title>
<g id="a_Node000002"><a xlink:href="classMarkovRateTable.html#abb7424cbfd9f4fc4088cb5c6935a2c61" target="_top" xlink:title=" ">
<polygon fill="white" stroke="#666666" points="719,-178.5 568,-178.5 568,-148.5 719,-148.5 719,-178.5"/>
<text text-anchor="start" x="576" y="-166.5" font-family="Ubuntu Mono" font-size="10.00">MarkovRateTable::lookup2d</text>
<text text-anchor="middle" x="643.5" y="-155.5" font-family="Ubuntu Mono" font-size="10.00">Value</text>
</a>
</g>
</g>
<!-- Node1&#45;&gt;Node2 -->
<g id="edge1_Node000001_Node000002" class="edge">
<title>Node1&#45;&gt;Node2</title>
<g id="a_edge1_Node000001_Node000002"><a xlink:title=" ">
<path fill="none" stroke="#63b8ff" d="M796.34,-98.56C776.19,-110.7 746.43,-127.65 719,-139.5 711.64,-142.68 703.72,-145.67 695.88,-148.39"/>
<polygon fill="#63b8ff" stroke="#63b8ff" points="798.43,-101.39 805.15,-93.2 794.79,-95.41 798.43,-101.39"/>
</a>
</g>
</g>
<!-- Node6 -->
<g id="Node000006" class="node">
<title>Node6</title>
<g id="a_Node000006"><a xlink:href="classHHGate2D.html#af56c7b4fb851c2caf699556e770c048e" target="_top" xlink:title=" ">
<polygon fill="white" stroke="#666666" points="700,-130 587,-130 587,-111 700,-111 700,-130"/>
<text text-anchor="middle" x="643.5" y="-118" font-family="Ubuntu Mono" font-size="10.00">HHGate2D::lookupA</text>
</a>
</g>
</g>
<!-- Node1&#45;&gt;Node6 -->
<g id="edge5_Node000001_Node000006" class="edge">
<title>Node1&#45;&gt;Node6</title>
<g id="a_edge5_Node000001_Node000006"><a xlink:title=" ">
<path fill="none" stroke="#63b8ff" d="M765.07,-95.15C740.9,-100.23 712.9,-106.12 689.98,-110.94"/>
<polygon fill="#63b8ff" stroke="#63b8ff" points="766.11,-98.51 775.18,-93.03 764.67,-91.66 766.11,-98.51"/>
</a>
</g>
</g>
<!-- Node9 -->
<g id="Node000009" class="node">
<title>Node9</title>
<g id="a_Node000009"><a xlink:href="classHHGate2D.html#aa0a2d2d2de2ee91a2af5ad88ea569bd1" target="_top" xlink:title=" ">
<polygon fill="white" stroke="#666666" points="700,-93 587,-93 587,-74 700,-74 700,-93"/>
<text text-anchor="middle" x="643.5" y="-81" font-family="Ubuntu Mono" font-size="10.00">HHGate2D::lookupB</text>
</a>
</g>
</g>
<!-- Node1&#45;&gt;Node9 -->
<g id="edge8_Node000001_Node000009" class="edge">
<title>Node1&#45;&gt;Node9</title>
<g id="a_edge8_Node000001_Node000009"><a xlink:title=" ">
<path fill="none" stroke="#63b8ff" d="M744.73,-83.5C729.8,-83.5 714.4,-83.5 700.28,-83.5"/>
<polygon fill="#63b8ff" stroke="#63b8ff" points="744.96,-87 754.96,-83.5 744.96,-80 744.96,-87"/>
</a>
</g>
</g>
<!-- Node10 -->
<g id="Node000010" class="node">
<title>Node10</title>
<g id="a_Node000010"><a xlink:href="classHHGate2D.html#a2f99fa53be142de5a93f8c4992a81bf8" target="_top" xlink:title=" ">
<polygon fill="white" stroke="#666666" points="708,-56 579,-56 579,-37 708,-37 708,-56"/>
<text text-anchor="middle" x="643.5" y="-44" font-family="Ubuntu Mono" font-size="10.00">HHGate2D::lookupBoth</text>
</a>
</g>
</g>
<!-- Node1&#45;&gt;Node10 -->
<g id="edge10_Node000001_Node000010" class="edge">
<title>Node1&#45;&gt;Node10</title>
<g id="a_edge10_Node000001_Node000010"><a xlink:title=" ">
<path fill="none" stroke="#63b8ff" d="M765.07,-71.85C740.9,-66.77 712.9,-60.88 689.98,-56.06"/>
<polygon fill="#63b8ff" stroke="#63b8ff" points="764.67,-75.34 775.18,-73.97 766.11,-68.49 764.67,-75.34"/>
</a>
</g>
</g>
<!-- Node13 -->
<g id="Node000013" class="node">
<title>Node13</title>
<g id="a_Node000013"><a xlink:href="classInterpol2D.html#a82f25c6be808dd05ae5c7898ef5331e4" target="_top" xlink:title=" ">
<polygon fill="white" stroke="#666666" points="712.5,-19 574.5,-19 574.5,0 712.5,0 712.5,-19"/>
<text text-anchor="middle" x="643.5" y="-7" font-family="Ubuntu Mono" font-size="10.00">Interpol2D::lookupReturn</text>
</a>
</g>
</g>
<!-- Node1&#45;&gt;Node13 -->
<g id="edge13_Node000001_Node000013" class="edge">
<title>Node1&#45;&gt;Node13</title>
<g id="a_edge13_Node000001_Node000013"><a xlink:title=" ">
<path fill="none" stroke="#63b8ff" d="M797.26,-68.32C777.23,-55.83 747.18,-38.45 719,-27.5 710.57,-24.22 701.36,-21.42 692.38,-19.06"/>
<polygon fill="#63b8ff" stroke="#63b8ff" points="795.66,-71.45 805.98,-73.85 799.4,-65.54 795.66,-71.45"/>
</a>
</g>
</g>
<!-- Node3 -->
<g id="Node000003" class="node">
<title>Node3</title>
<g id="a_Node000003"><a xlink:href="classMarkovRateTable.html#a7e21a79a3b05d0ffb1d1b8ca194f1f59" target="_top" xlink:title=" ">
<polygon fill="white" stroke="#666666" points="532,-173 364,-173 364,-154 532,-154 532,-173"/>
<text text-anchor="middle" x="448" y="-161" font-family="Ubuntu Mono" font-size="10.00">MarkovRateTable::updateRates</text>
</a>
</g>
</g>
<!-- Node2&#45;&gt;Node3 -->
<g id="edge2_Node000002_Node000003" class="edge">
<title>Node2&#45;&gt;Node3</title>
<g id="a_edge2_Node000002_Node000003"><a xlink:title=" ">
<path fill="none" stroke="#63b8ff" d="M557.71,-163.5C549.24,-163.5 540.65,-163.5 532.19,-163.5"/>
<polygon fill="#63b8ff" stroke="#63b8ff" points="557.96,-167 567.96,-163.5 557.96,-160 557.96,-167"/>
</a>
</g>
</g>
<!-- Node4 -->
<g id="Node000004" class="node">
<title>Node4</title>
<g id="a_Node000004"><a xlink:href="classMarkovRateTable.html#ac1029cbb9689c01a8f4cc7ec1d92f2d6" target="_top" xlink:title=" ">
<polygon fill="white" stroke="#666666" points="328,-173 184,-173 184,-154 328,-154 328,-173"/>
<text text-anchor="middle" x="256" y="-161" font-family="Ubuntu Mono" font-size="10.00">MarkovRateTable::process</text>
</a>
</g>
</g>
<!-- Node3&#45;&gt;Node4 -->
<g id="edge3_Node000003_Node000004" class="edge">
<title>Node3&#45;&gt;Node4</title>
<g id="a_edge3_Node000003_Node000004"><a xlink:title=" ">
<path fill="none" stroke="#63b8ff" d="M353.87,-163.5C345.27,-163.5 336.65,-163.5 328.29,-163.5"/>
<polygon fill="#63b8ff" stroke="#63b8ff" points="353.94,-167 363.94,-163.5 353.94,-160 353.94,-167"/>
</a>
</g>
</g>
<!-- Node5 -->
<g id="Node000005" class="node">
<title>Node5</title>
<g id="a_Node000005"><a xlink:href="classMarkovRateTable.html#a7e422541cbc6ac60e53e3aa057f69ff5" target="_top" xlink:title=" ">
<polygon fill="white" stroke="#666666" points="148,-173 0,-173 0,-154 148,-154 148,-173"/>
<text text-anchor="middle" x="74" y="-161" font-family="Ubuntu Mono" font-size="10.00">MarkovRateTable::initCinfo</text>
</a>
</g>
</g>
<!-- Node4&#45;&gt;Node5 -->
<g id="edge4_Node000004_Node000005" class="edge">
<title>Node4&#45;&gt;Node5</title>
<g id="a_edge4_Node000004_Node000005"><a xlink:title=" ">
<path fill="none" stroke="#63b8ff" d="M173.63,-163.5C165.18,-163.5 156.63,-163.5 148.28,-163.5"/>
<polygon fill="#63b8ff" stroke="#63b8ff" points="173.86,-167 183.86,-163.5 173.86,-160 173.86,-167"/>
</a>
</g>
</g>
<!-- Node7 -->
<g id="Node000007" class="node">
<title>Node7</title>
<g id="a_Node000007"><a xlink:href="classHHGate2D.html#a2f3690fb810e9629e9a95482518ae042" target="_top" xlink:title=" ">
<polygon fill="white" stroke="#666666" points="506,-130 390,-130 390,-111 506,-111 506,-130"/>
<text text-anchor="middle" x="448" y="-118" font-family="Ubuntu Mono" font-size="10.00">HHGate2D::initCinfo</text>
</a>
</g>
</g>
<!-- Node6&#45;&gt;Node7 -->
<g id="edge6_Node000006_Node000007" class="edge">
<title>Node6&#45;&gt;Node7</title>
<g id="a_edge6_Node000006_Node000007"><a xlink:title=" ">
<path fill="none" stroke="#63b8ff" d="M576.52,-120.5C553.72,-120.5 528.38,-120.5 506.33,-120.5"/>
<polygon fill="#63b8ff" stroke="#63b8ff" points="576.79,-124 586.79,-120.5 576.79,-117 576.79,-124"/>
</a>
</g>
</g>
<!-- Node8 -->
<g id="Node000008" class="node">
<title>Node8</title>
<g id="a_Node000008"><a xlink:href="classHHChannel2D.html#a5800af098b3e10bdf6563db3504e2cae" target="_top" xlink:title=" ">
<polygon fill="white" stroke="#666666" points="322,-130 190,-130 190,-111 322,-111 322,-130"/>
<text text-anchor="middle" x="256" y="-118" font-family="Ubuntu Mono" font-size="10.00">HHChannel2D::initCinfo</text>
</a>
</g>
</g>
<!-- Node7&#45;&gt;Node8 -->
<g id="edge7_Node000007_Node000008" class="edge">
<title>Node7&#45;&gt;Node8</title>
<g id="a_edge7_Node000007_Node000008"><a xlink:title=" ">
<path fill="none" stroke="#63b8ff" d="M379.8,-120.5C361.12,-120.5 340.87,-120.5 322.3,-120.5"/>
<polygon fill="#63b8ff" stroke="#63b8ff" points="379.99,-124 389.99,-120.5 379.99,-117 379.99,-124"/>
</a>
</g>
</g>
<!-- Node9&#45;&gt;Node7 -->
<g id="edge9_Node000009_Node000007" class="edge">
<title>Node9&#45;&gt;Node7</title>
<g id="a_edge9_Node000009_Node000007"><a xlink:title=" ">
<path fill="none" stroke="#63b8ff" d="M582.63,-94.95C555.81,-100.08 524.54,-106.06 499,-110.94"/>
<polygon fill="#63b8ff" stroke="#63b8ff" points="583.5,-98.34 592.67,-93.03 582.19,-91.47 583.5,-98.34"/>
</a>
</g>
</g>
<!-- Node11 -->
<g id="Node000011" class="node">
<title>Node11</title>
<g id="a_Node000011"><a xlink:href="classHHChannel2D.html#a64e960ca945790fe2bcf5dc4eee15da7" target="_top" xlink:title=" ">
<polygon fill="white" stroke="#666666" points="515,-93 381,-93 381,-74 515,-74 515,-93"/>
<text text-anchor="middle" x="448" y="-81" font-family="Ubuntu Mono" font-size="10.00">HHChannel2D::vProcess</text>
</a>
</g>
</g>
<!-- Node10&#45;&gt;Node11 -->
<g id="edge11_Node000010_Node000011" class="edge">
<title>Node10&#45;&gt;Node11</title>
<g id="a_edge11_Node000010_Node000011"><a xlink:title=" ">
<path fill="none" stroke="#63b8ff" d="M582.63,-57.95C555.81,-63.08 524.54,-69.06 499,-73.94"/>
<polygon fill="#63b8ff" stroke="#63b8ff" points="583.5,-61.34 592.67,-56.03 582.19,-54.47 583.5,-61.34"/>
</a>
</g>
</g>
<!-- Node12 -->
<g id="Node000012" class="node">
<title>Node12</title>
<g id="a_Node000012"><a xlink:href="classHHChannel2D.html#a61586448a1588f3a1404ebd607f16a31" target="_top" xlink:title=" ">
<polygon fill="white" stroke="#666666" points="510.5,-56 385.5,-56 385.5,-37 510.5,-37 510.5,-56"/>
<text text-anchor="middle" x="448" y="-44" font-family="Ubuntu Mono" font-size="10.00">HHChannel2D::vReinit</text>
</a>
</g>
</g>
<!-- Node10&#45;&gt;Node12 -->
<g id="edge12_Node000010_Node000012" class="edge">
<title>Node10&#45;&gt;Node12</title>
<g id="a_edge12_Node000010_Node000012"><a xlink:title=" ">
<path fill="none" stroke="#63b8ff" d="M568.69,-46.5C549.55,-46.5 529.14,-46.5 510.69,-46.5"/>
<polygon fill="#63b8ff" stroke="#63b8ff" points="568.87,-50 578.87,-46.5 568.87,-43 568.87,-50"/>
</a>
</g>
</g>
<!-- Node14 -->
<g id="Node000014" class="node">
<title>Node14</title>
<g id="a_Node000014"><a xlink:href="classInterpol2D.html#a4b9c9fad0a71a377f98959de440a4544" target="_top" xlink:title=" ">
<polygon fill="white" stroke="#666666" points="505.5,-19 390.5,-19 390.5,0 505.5,0 505.5,-19"/>
<text text-anchor="middle" x="448" y="-7" font-family="Ubuntu Mono" font-size="10.00">Interpol2D::initCinfo</text>
</a>
</g>
</g>
<!-- Node13&#45;&gt;Node14 -->
<g id="edge14_Node000013_Node000014" class="edge">
<title>Node13&#45;&gt;Node14</title>
<g id="a_edge14_Node000013_Node000014"><a xlink:title=" ">
<path fill="none" stroke="#63b8ff" d="M564.17,-9.5C544.61,-9.5 524.02,-9.5 505.74,-9.5"/>
<polygon fill="#63b8ff" stroke="#63b8ff" points="564.28,-13 574.28,-9.5 564.28,-6 564.28,-13"/>
</a>
</g>
</g>
</g>
</svg>

<g id="navigator" transform="translate(0 0)" fill="#404254">
  <rect fill="#f2f5e9" fill-opacity="0.5" stroke="#606060" stroke-width=".5" x="0" y="0" width="60" height="60"/>
  <use id="zoomplus" xlink:href="#zoomPlus" x="17" y="9" onmousedown="handleZoom(evt,'in')"/>
  <use id="zoomminus" xlink:href="#zoomMin" x="42" y="9" onmousedown="handleZoom(evt,'out')"/>
  <use id="reset" xlink:href="#resetDef" x="30" y="36" onmousedown="handleReset()"/>
   <use id="arrowup" xlink:href="#arrowUp" x="0" y="0" onmousedown="handlePan(0,-1)"/>
  <use id="arrowright" xlink:href="#arrowRight" x="0" y="0" onmousedown="handlePan(1,0)"/>
  <use id="arrowdown" xlink:href="#arrowDown" x="0" y="0" onmousedown="handlePan(0,1)"/>
  <use id="arrowleft" xlink:href="#arrowLeft" x="0" y="0" onmousedown="handlePan(-1,0)"/>
</g>
<svg viewBox="0 0 15 15" width="100%" height="30px" preserveAspectRatio="xMaxYMin meet">
 <g id="arrow_out" transform="scale(0.3 0.3)">
  <a xlink:href="classInterpol2D_a495083e1ffb1cb22909ddd9342de0b5e_icgraph_org.svg" target="_base">
   <rect id="button" ry="5" rx="5" y="6" x="6" height="38" width="38"
        fill="#f2f5e9" fill-opacity="0.5" stroke="#606060" stroke-width="1.0"/>
   <path id="arrow"
     d="M 11.500037,31.436501 C 11.940474,20.09759 22.043105,11.32322 32.158766,21.979434 L 37.068811,17.246167 C 37.068811,17.246167 37.088388,32 37.088388,32 L 22.160133,31.978069 C 22.160133,31.978069 26.997745,27.140456 26.997745,27.140456 C 18.528582,18.264221 13.291696,25.230495 11.500037,31.436501 z"
     style="fill:#404040;"/>
  </a>
 </g>
</svg>

<style type='text/css'>
<![CDATA[
[data-mouse-over-selected='false'] { opacity: 0.7; }
[data-mouse-over-selected='true']  { opacity: 1.0; }
]]>
</style>
<script type="application/ecmascript"><![CDATA[
document.addEventListener('DOMContentLoaded', (event) => {
  highlightEdges();
  highlightAdjacentNodes();
});
]]></script>
</svg>
