<?xml version="1.0" encoding="UTF-8" standalone="no"?>
<!DOCTYPE svg PUBLIC "-//W3C//DTD SVG 1.1//EN"
 "http://www.w3.org/Graphics/SVG/1.1/DTD/svg11.dtd">
<!-- Generated by graphviz version 2.43.0 (0)
 -->
<!-- Title: NeuroNode Pages: 1 -->
<!--zoomable 682 -->

<svg id="main" version="1.1" xmlns="http://www.w3.org/2000/svg" xmlns:xlink="http://www.w3.org/1999/xlink" xml:space="preserve" onload="init(evt)">
<style type="text/css"><![CDATA[
.node, .edge {opacity: 0.7;}
.node.selected, .edge.selected {opacity: 1;}
.edge:hover path { stroke: red; }
.edge:hover polygon { stroke: red; fill: red; }
]]></style>

<defs>
  <circle id="rim" cx="0" cy="0" r="7"/>
  <circle id="rim2" cx="0" cy="0" r="3.5"/>
  <g id="zoomPlus">
    <use xlink:href="#rim" fill="#404040"><set attributeName="fill" to="#808080" begin="zoomplus.mouseover" end="zoomplus.mouseout"/></use>
    <path d="M-4,0h8M0,-4v8" fill="none" stroke="white" stroke-width="1.5" pointer-events="none"/>
  </g>
  <g id="zoomMin">
    <use xlink:href="#rim" fill="#404040"><set attributeName="fill" to="#808080" begin="zoomminus.mouseover" end="zoomminus.mouseout"/></use>
    <path d="M-4,0h8" fill="none" stroke="white" stroke-width="1.5" pointer-events="none"/>
  </g>
  <g id="arrowUp" transform="translate(30 24)">
    <use xlink:href="#rim"/>
    <path pointer-events="none" fill="none" stroke="white" stroke-width="1.5" d="M0,-3.0v7 M-2.5,-0.5L0,-3.0L2.5,-0.5"/>
  </g>
  <g id="arrowRight" transform="rotate(90) translate(36 -43)">
    <use xlink:href="#rim"/>
    <path pointer-events="none" fill="none" stroke="white" stroke-width="1.5" d="M0,-3.0v7 M-2.5,-0.5L0,-3.0L2.5,-0.5"/>
  </g>
  <g id="arrowDown" transform="rotate(180) translate(-30 -48)">
    <use xlink:href="#rim"/>
    <path pointer-events="none" fill="none" stroke="white" stroke-width="1.5" d="M0,-3.0v7 M-2.5,-0.5L0,-3.0L2.5,-0.5"/>
  </g>
  <g id="arrowLeft" transform="rotate(270) translate(-36 17)">
    <use xlink:href="#rim"/>
    <path pointer-events="none" fill="none" stroke="white" stroke-width="1.5" d="M0,-3.0v7 M-2.5,-0.5L0,-3.0L2.5,-0.5"/>
  </g>
  <g id="resetDef">
    <use xlink:href="#rim2" fill="#404040"><set attributeName="fill" to="#808080" begin="reset.mouseover" end="reset.mouseout"/></use>
  </g>
</defs>
<script type="application/ecmascript">
var viewWidth = 180;
var viewHeight = 682;
var sectionId = 'dynsection-0';
</script>
<script type="application/ecmascript" xlink:href="svg.min.js"/>
<svg id="graph" class="graph">
<g id="viewport">
<title>NeuroNode</title>
<!-- Node1 -->
<g id="Node000001" class="node">
<title>Node1</title>
<g id="a_Node000001"><a xlink:title=" ">
<polygon fill="#999999" stroke="transparent" points="172,-349 0,-349 0,0 172,0 172,-349"/>
<text text-anchor="start" x="58.5" y="-336.5" font-family="Ubuntu Mono" font-size="10.00">NeuroNode</text>
<text text-anchor="start" x="6.5" y="-321.5" font-family="Ubuntu Mono" font-size="10.00">&#45;</text>
<text text-anchor="start" x="17" y="-321.5" font-family="Ubuntu Mono" font-size="10.00">children_</text>
<text text-anchor="start" x="6.5" y="-306.5" font-family="Ubuntu Mono" font-size="10.00">&#45;</text>
<text text-anchor="start" x="17" y="-306.5" font-family="Ubuntu Mono" font-size="10.00">elecCompt_</text>
<text text-anchor="start" x="6.5" y="-291.5" font-family="Ubuntu Mono" font-size="10.00">&#45;</text>
<text text-anchor="start" x="17" y="-291.5" font-family="Ubuntu Mono" font-size="10.00">isSphere_</text>
<text text-anchor="start" x="6.5" y="-276.5" font-family="Ubuntu Mono" font-size="10.00">&#45;</text>
<text text-anchor="start" x="17" y="-276.5" font-family="Ubuntu Mono" font-size="10.00">parent_</text>
<text text-anchor="start" x="6.5" y="-261.5" font-family="Ubuntu Mono" font-size="10.00">&#45;</text>
<text text-anchor="start" x="17" y="-261.5" font-family="Ubuntu Mono" font-size="10.00">startFid_</text>
<text text-anchor="start" x="4" y="-246.5" font-family="Ubuntu Mono" font-size="10.00">+</text>
<text text-anchor="start" x="17" y="-246.5" font-family="Ubuntu Mono" font-size="10.00">addChild()</text>
<text text-anchor="start" x="4" y="-231.5" font-family="Ubuntu Mono" font-size="10.00">+</text>
<text text-anchor="start" x="17" y="-231.5" font-family="Ubuntu Mono" font-size="10.00">calculateLength()</text>
<text text-anchor="start" x="4" y="-216.5" font-family="Ubuntu Mono" font-size="10.00">+</text>
<text text-anchor="start" x="17" y="-216.5" font-family="Ubuntu Mono" font-size="10.00">children()</text>
<text text-anchor="start" x="4" y="-201.5" font-family="Ubuntu Mono" font-size="10.00">+</text>
<text text-anchor="start" x="17" y="-201.5" font-family="Ubuntu Mono" font-size="10.00">clearChildren()</text>
<text text-anchor="start" x="4" y="-186.5" font-family="Ubuntu Mono" font-size="10.00">+</text>
<text text-anchor="start" x="17" y="-186.5" font-family="Ubuntu Mono" font-size="10.00">elecCompt()</text>
<text text-anchor="start" x="4" y="-171.5" font-family="Ubuntu Mono" font-size="10.00">+</text>
<text text-anchor="start" x="17" y="-171.5" font-family="Ubuntu Mono" font-size="10.00">findConnectedCompartments()</text>
<text text-anchor="start" x="4" y="-156.5" font-family="Ubuntu Mono" font-size="10.00">+</text>
<text text-anchor="start" x="17" y="-156.5" font-family="Ubuntu Mono" font-size="10.00">innerTraverse()</text>
<text text-anchor="start" x="4" y="-141.5" font-family="Ubuntu Mono" font-size="10.00">+</text>
<text text-anchor="start" x="17" y="-141.5" font-family="Ubuntu Mono" font-size="10.00">isDummyNode()</text>
<text text-anchor="start" x="4" y="-126.5" font-family="Ubuntu Mono" font-size="10.00">+</text>
<text text-anchor="start" x="17" y="-126.5" font-family="Ubuntu Mono" font-size="10.00">isSphere()</text>
<text text-anchor="start" x="4" y="-111.5" font-family="Ubuntu Mono" font-size="10.00">+</text>
<text text-anchor="start" x="17" y="-111.5" font-family="Ubuntu Mono" font-size="10.00">isStartNode()</text>
<text text-anchor="start" x="17" y="-96.5" font-family="Ubuntu Mono" font-size="10.00">and 8 more...</text>
<text text-anchor="start" x="4" y="-81.5" font-family="Ubuntu Mono" font-size="10.00">+</text>
<text text-anchor="start" x="17" y="-81.5" font-family="Ubuntu Mono" font-size="10.00">buildSpinyTree()</text>
<text text-anchor="start" x="4" y="-66.5" font-family="Ubuntu Mono" font-size="10.00">+</text>
<text text-anchor="start" x="17" y="-66.5" font-family="Ubuntu Mono" font-size="10.00">buildTree()</text>
<text text-anchor="start" x="4" y="-51.5" font-family="Ubuntu Mono" font-size="10.00">+</text>
<text text-anchor="start" x="17" y="-51.5" font-family="Ubuntu Mono" font-size="10.00">filterSpines()</text>
<text text-anchor="start" x="4" y="-36.5" font-family="Ubuntu Mono" font-size="10.00">+</text>
<text text-anchor="start" x="17" y="-36.5" font-family="Ubuntu Mono" font-size="10.00">findStartNode()</text>
<text text-anchor="start" x="4" y="-21.5" font-family="Ubuntu Mono" font-size="10.00">+</text>
<text text-anchor="start" x="17" y="-21.5" font-family="Ubuntu Mono" font-size="10.00">removeDisconnectedNodes()</text>
<text text-anchor="start" x="4" y="-6.5" font-family="Ubuntu Mono" font-size="10.00">+</text>
<text text-anchor="start" x="17" y="-6.5" font-family="Ubuntu Mono" font-size="10.00">traverse()</text>
<polygon fill="#666666" stroke="#666666" points="0,-331.5 0,-331.5 172,-331.5 172,-331.5 0,-331.5"/>
<polygon fill="#666666" stroke="#666666" points="0,-256.5 0,-256.5 15,-256.5 15,-256.5 0,-256.5"/>
<polygon fill="#666666" stroke="#666666" points="15,-256.5 15,-256.5 172,-256.5 172,-256.5 15,-256.5"/>
<polygon fill="none" stroke="#666666" points="0,0 0,-349 172,-349 172,0 0,0"/>
</a>
</g>
</g>
<!-- Node2 -->
<g id="Node000002" class="node">
<title>Node2</title>
<g id="a_Node000002"><a xlink:href="classCylBase.html" target="_top" xlink:title=" ">
<polygon fill="white" stroke="transparent" points="141.5,-674 30.5,-674 30.5,-385 141.5,-385 141.5,-674"/>
<text text-anchor="start" x="66.5" y="-661.5" font-family="Ubuntu Mono" font-size="10.00">CylBase</text>
<text text-anchor="start" x="37.5" y="-646.5" font-family="Ubuntu Mono" font-size="10.00">&#45;</text>
<text text-anchor="start" x="48" y="-646.5" font-family="Ubuntu Mono" font-size="10.00">dia_</text>
<text text-anchor="start" x="37.5" y="-631.5" font-family="Ubuntu Mono" font-size="10.00">&#45;</text>
<text text-anchor="start" x="48" y="-631.5" font-family="Ubuntu Mono" font-size="10.00">isCylinder_</text>
<text text-anchor="start" x="37.5" y="-616.5" font-family="Ubuntu Mono" font-size="10.00">&#45;</text>
<text text-anchor="start" x="48" y="-616.5" font-family="Ubuntu Mono" font-size="10.00">length_</text>
<text text-anchor="start" x="37.5" y="-601.5" font-family="Ubuntu Mono" font-size="10.00">&#45;</text>
<text text-anchor="start" x="48" y="-601.5" font-family="Ubuntu Mono" font-size="10.00">numDivs_</text>
<text text-anchor="start" x="37.5" y="-586.5" font-family="Ubuntu Mono" font-size="10.00">&#45;</text>
<text text-anchor="start" x="48" y="-586.5" font-family="Ubuntu Mono" font-size="10.00">x_</text>
<text text-anchor="start" x="37.5" y="-571.5" font-family="Ubuntu Mono" font-size="10.00">&#45;</text>
<text text-anchor="start" x="48" y="-571.5" font-family="Ubuntu Mono" font-size="10.00">y_</text>
<text text-anchor="start" x="37.5" y="-556.5" font-family="Ubuntu Mono" font-size="10.00">&#45;</text>
<text text-anchor="start" x="48" y="-556.5" font-family="Ubuntu Mono" font-size="10.00">z_</text>
<text text-anchor="start" x="35" y="-541.5" font-family="Ubuntu Mono" font-size="10.00">+</text>
<text text-anchor="start" x="48" y="-541.5" font-family="Ubuntu Mono" font-size="10.00">CylBase()</text>
<text text-anchor="start" x="35" y="-526.5" font-family="Ubuntu Mono" font-size="10.00">+</text>
<text text-anchor="start" x="48" y="-526.5" font-family="Ubuntu Mono" font-size="10.00">CylBase()</text>
<text text-anchor="start" x="35" y="-511.5" font-family="Ubuntu Mono" font-size="10.00">+</text>
<text text-anchor="start" x="48" y="-511.5" font-family="Ubuntu Mono" font-size="10.00">getCoordinates()</text>
<text text-anchor="start" x="35" y="-496.5" font-family="Ubuntu Mono" font-size="10.00">+</text>
<text text-anchor="start" x="48" y="-496.5" font-family="Ubuntu Mono" font-size="10.00">getDia()</text>
<text text-anchor="start" x="35" y="-481.5" font-family="Ubuntu Mono" font-size="10.00">+</text>
<text text-anchor="start" x="48" y="-481.5" font-family="Ubuntu Mono" font-size="10.00">getDiffusionArea()</text>
<text text-anchor="start" x="35" y="-466.5" font-family="Ubuntu Mono" font-size="10.00">+</text>
<text text-anchor="start" x="48" y="-466.5" font-family="Ubuntu Mono" font-size="10.00">getIsCylinder()</text>
<text text-anchor="start" x="35" y="-451.5" font-family="Ubuntu Mono" font-size="10.00">+</text>
<text text-anchor="start" x="48" y="-451.5" font-family="Ubuntu Mono" font-size="10.00">getLength()</text>
<text text-anchor="start" x="35" y="-436.5" font-family="Ubuntu Mono" font-size="10.00">+</text>
<text text-anchor="start" x="48" y="-436.5" font-family="Ubuntu Mono" font-size="10.00">getMiddleArea()</text>
<text text-anchor="start" x="35" y="-421.5" font-family="Ubuntu Mono" font-size="10.00">+</text>
<text text-anchor="start" x="48" y="-421.5" font-family="Ubuntu Mono" font-size="10.00">getNumDivs()</text>
<text text-anchor="start" x="35" y="-406.5" font-family="Ubuntu Mono" font-size="10.00">+</text>
<text text-anchor="start" x="48" y="-406.5" font-family="Ubuntu Mono" font-size="10.00">getVoxelLength()</text>
<text text-anchor="start" x="48" y="-391.5" font-family="Ubuntu Mono" font-size="10.00">and 16 more...</text>
<polygon fill="#666666" stroke="#666666" points="31,-656.5 31,-656.5 142,-656.5 142,-656.5 31,-656.5"/>
<polygon fill="#666666" stroke="#666666" points="31,-551.5 31,-551.5 46,-551.5 46,-551.5 31,-551.5"/>
<polygon fill="#666666" stroke="#666666" points="46,-551.5 46,-551.5 142,-551.5 142,-551.5 46,-551.5"/>
<polygon fill="none" stroke="#666666" points="30.5,-385 30.5,-674 141.5,-674 141.5,-385 30.5,-385"/>
</a>
</g>
</g>
<!-- Node2&#45;&gt;Node1 -->
<g id="edge1_Node000001_Node000002" class="edge">
<title>Node2&#45;&gt;Node1</title>
<g id="a_edge1_Node000001_Node000002"><a xlink:title=" ">
<path fill="none" stroke="#63b8ff" d="M86,-374.89C86,-366.32 86,-357.67 86,-349.03"/>
<polygon fill="none" stroke="#63b8ff" points="82.5,-374.92 86,-384.92 89.5,-374.92 82.5,-374.92"/>
</a>
</g>
</g>
</g>
</svg>

<g id="navigator" transform="translate(0 0)" fill="#404254">
  <rect fill="#f2f5e9" fill-opacity="0.5" stroke="#606060" stroke-width=".5" x="0" y="0" width="60" height="60"/>
  <use id="zoomplus" xlink:href="#zoomPlus" x="17" y="9" onmousedown="handleZoom(evt,'in')"/>
  <use id="zoomminus" xlink:href="#zoomMin" x="42" y="9" onmousedown="handleZoom(evt,'out')"/>
  <use id="reset" xlink:href="#resetDef" x="30" y="36" onmousedown="handleReset()"/>
   <use id="arrowup" xlink:href="#arrowUp" x="0" y="0" onmousedown="handlePan(0,-1)"/>
  <use id="arrowright" xlink:href="#arrowRight" x="0" y="0" onmousedown="handlePan(1,0)"/>
  <use id="arrowdown" xlink:href="#arrowDown" x="0" y="0" onmousedown="handlePan(0,1)"/>
  <use id="arrowleft" xlink:href="#arrowLeft" x="0" y="0" onmousedown="handlePan(-1,0)"/>
</g>
<svg viewBox="0 0 15 15" width="100%" height="30px" preserveAspectRatio="xMaxYMin meet">
 <g id="arrow_out" transform="scale(0.3 0.3)">
  <a xlink:href="classNeuroNode__inherit__graph_org.svg" target="_base">
   <rect id="button" ry="5" rx="5" y="6" x="6" height="38" width="38"
        fill="#f2f5e9" fill-opacity="0.5" stroke="#606060" stroke-width="1.0"/>
   <path id="arrow"
     d="M 11.500037,31.436501 C 11.940474,20.09759 22.043105,11.32322 32.158766,21.979434 L 37.068811,17.246167 C 37.068811,17.246167 37.088388,32 37.088388,32 L 22.160133,31.978069 C 22.160133,31.978069 26.997745,27.140456 26.997745,27.140456 C 18.528582,18.264221 13.291696,25.230495 11.500037,31.436501 z"
     style="fill:#404040;"/>
  </a>
 </g>
</svg>

<style type='text/css'>
<![CDATA[
[data-mouse-over-selected='false'] { opacity: 0.7; }
[data-mouse-over-selected='true']  { opacity: 1.0; }
]]>
</style>
<script type="application/ecmascript"><![CDATA[
document.addEventListener('DOMContentLoaded', (event) => {
  highlightEdges();
  highlightAdjacentNodes();
});
]]></script>
</svg>
