<?xml version="1.0" encoding="UTF-8" standalone="no"?>
<!DOCTYPE svg PUBLIC "-//W3C//DTD SVG 1.1//EN"
 "http://www.w3.org/Graphics/SVG/1.1/DTD/svg11.dtd">
<!-- Generated by graphviz version 2.43.0 (0)
 -->
<!-- Title: ZombieHHChannel::vGetX Pages: 1 -->
<svg width="412pt" height="64pt"
 viewBox="0.00 0.00 412.00 64.00" xmlns="http://www.w3.org/2000/svg" xmlns:xlink="http://www.w3.org/1999/xlink">
<g id="graph0" class="graph" transform="scale(1 1) rotate(0) translate(4 60)">
<title>ZombieHHChannel::vGetX</title>
<!-- Node1 -->
<g id="Node000001" class="node">
<title>Node1</title>
<g id="a_Node000001"><a xlink:title=" ">
<polygon fill="#999999" stroke="#666666" points="145,-37 0,-37 0,-18 145,-18 145,-37"/>
<text text-anchor="middle" x="72.5" y="-25" font-family="Ubuntu Mono" font-size="10.00">ZombieHHChannel::vGetX</text>
</a>
</g>
</g>
<!-- Node2 -->
<g id="Node000002" class="node">
<title>Node2</title>
<g id="a_Node000002"><a xlink:href="classHSolve.html#a2f231ba434acf5c715c35efd35219a7e" target="_top" xlink:title=" ">
<polygon fill="white" stroke="#666666" points="261,-56 181,-56 181,-37 261,-37 261,-56"/>
<text text-anchor="middle" x="221" y="-44" font-family="Ubuntu Mono" font-size="10.00">HSolve::getX</text>
</a>
</g>
</g>
<!-- Node1&#45;&gt;Node2 -->
<g id="edge1_Node000001_Node000002" class="edge">
<title>Node1&#45;&gt;Node2</title>
<g id="a_edge1_Node000001_Node000002"><a xlink:title=" ">
<path fill="none" stroke="#63b8ff" d="M145.03,-36.78C153.72,-37.9 162.43,-39.03 170.69,-40.1"/>
<polygon fill="#63b8ff" stroke="#63b8ff" points="170.5,-43.61 180.87,-41.42 171.4,-36.67 170.5,-43.61"/>
</a>
</g>
</g>
<!-- Node4 -->
<g id="Node000004" class="node">
<title>Node4</title>
<g id="a_Node000004"><a xlink:href="classEref.html#aa96699f886e00b8eb3759c71cc8747bb" target="_top" xlink:title=" ">
<polygon fill="white" stroke="#666666" points="246,-19 196,-19 196,0 246,0 246,-19"/>
<text text-anchor="middle" x="221" y="-7" font-family="Ubuntu Mono" font-size="10.00">Eref::id</text>
</a>
</g>
</g>
<!-- Node1&#45;&gt;Node4 -->
<g id="edge3_Node000001_Node000004" class="edge">
<title>Node1&#45;&gt;Node4</title>
<g id="a_edge3_Node000001_Node000004"><a xlink:title=" ">
<path fill="none" stroke="#63b8ff" d="M145.03,-18.71C159.19,-16.97 173.43,-15.22 185.64,-13.72"/>
<polygon fill="#63b8ff" stroke="#63b8ff" points="186.3,-17.17 195.8,-12.47 185.45,-10.22 186.3,-17.17"/>
</a>
</g>
</g>
<!-- Node3 -->
<g id="Node000003" class="node">
<title>Node3</title>
<g id="a_Node000003"><a xlink:href="classHSolve.html#a477abe17043ce185923f054da61c50b3" target="_top" xlink:title=" ">
<polygon fill="white" stroke="#666666" points="404,-56 297,-56 297,-37 404,-37 404,-56"/>
<text text-anchor="middle" x="350.5" y="-44" font-family="Ubuntu Mono" font-size="10.00">HSolve::localIndex</text>
</a>
</g>
</g>
<!-- Node2&#45;&gt;Node3 -->
<g id="edge2_Node000002_Node000003" class="edge">
<title>Node2&#45;&gt;Node3</title>
<g id="a_edge2_Node000002_Node000003"><a xlink:title=" ">
<path fill="none" stroke="#63b8ff" d="M261.29,-46.5C269.39,-46.5 278.11,-46.5 286.81,-46.5"/>
<polygon fill="#63b8ff" stroke="#63b8ff" points="286.96,-50 296.96,-46.5 286.96,-43 286.96,-50"/>
</a>
</g>
</g>
<!-- Node5 -->
<g id="Node000005" class="node">
<title>Node5</title>
<g id="a_Node000005"><a xlink:href="classElement.html#a934907c01faf58e21f545d53a54cfefc" target="_top" xlink:title=" ">
<polygon fill="white" stroke="#666666" points="386.5,-19 314.5,-19 314.5,0 386.5,0 386.5,-19"/>
<text text-anchor="middle" x="350.5" y="-7" font-family="Ubuntu Mono" font-size="10.00">Element::id</text>
</a>
</g>
</g>
<!-- Node4&#45;&gt;Node5 -->
<g id="edge4_Node000004_Node000005" class="edge">
<title>Node4&#45;&gt;Node5</title>
<g id="a_edge4_Node000004_Node000005"><a xlink:title=" ">
<path fill="none" stroke="#63b8ff" d="M246.28,-9.5C262.57,-9.5 284.53,-9.5 304.01,-9.5"/>
<polygon fill="#63b8ff" stroke="#63b8ff" points="304.22,-13 314.22,-9.5 304.22,-6 304.22,-13"/>
</a>
</g>
</g>
</g>
</svg>
