<?xml version="1.0" encoding="UTF-8" standalone="no"?>
<!DOCTYPE svg PUBLIC "-//W3C//DTD SVG 1.1//EN"
 "http://www.w3.org/Graphics/SVG/1.1/DTD/svg11.dtd">
<!-- Generated by graphviz version 2.43.0 (0)
 -->
<!-- Title: CylBase::getLength Pages: 1 -->
<!--zoomable 350 -->

<svg id="main" version="1.1" xmlns="http://www.w3.org/2000/svg" xmlns:xlink="http://www.w3.org/1999/xlink" xml:space="preserve" onload="init(evt)">
<style type="text/css"><![CDATA[
.node, .edge {opacity: 0.7;}
.node.selected, .edge.selected {opacity: 1;}
.edge:hover path { stroke: red; }
.edge:hover polygon { stroke: red; fill: red; }
]]></style>

<defs>
  <circle id="rim" cx="0" cy="0" r="7"/>
  <circle id="rim2" cx="0" cy="0" r="3.5"/>
  <g id="zoomPlus">
    <use xlink:href="#rim" fill="#404040"><set attributeName="fill" to="#808080" begin="zoomplus.mouseover" end="zoomplus.mouseout"/></use>
    <path d="M-4,0h8M0,-4v8" fill="none" stroke="white" stroke-width="1.5" pointer-events="none"/>
  </g>
  <g id="zoomMin">
    <use xlink:href="#rim" fill="#404040"><set attributeName="fill" to="#808080" begin="zoomminus.mouseover" end="zoomminus.mouseout"/></use>
    <path d="M-4,0h8" fill="none" stroke="white" stroke-width="1.5" pointer-events="none"/>
  </g>
  <g id="arrowUp" transform="translate(30 24)">
    <use xlink:href="#rim"/>
    <path pointer-events="none" fill="none" stroke="white" stroke-width="1.5" d="M0,-3.0v7 M-2.5,-0.5L0,-3.0L2.5,-0.5"/>
  </g>
  <g id="arrowRight" transform="rotate(90) translate(36 -43)">
    <use xlink:href="#rim"/>
    <path pointer-events="none" fill="none" stroke="white" stroke-width="1.5" d="M0,-3.0v7 M-2.5,-0.5L0,-3.0L2.5,-0.5"/>
  </g>
  <g id="arrowDown" transform="rotate(180) translate(-30 -48)">
    <use xlink:href="#rim"/>
    <path pointer-events="none" fill="none" stroke="white" stroke-width="1.5" d="M0,-3.0v7 M-2.5,-0.5L0,-3.0L2.5,-0.5"/>
  </g>
  <g id="arrowLeft" transform="rotate(270) translate(-36 17)">
    <use xlink:href="#rim"/>
    <path pointer-events="none" fill="none" stroke="white" stroke-width="1.5" d="M0,-3.0v7 M-2.5,-0.5L0,-3.0L2.5,-0.5"/>
  </g>
  <g id="resetDef">
    <use xlink:href="#rim2" fill="#404040"><set attributeName="fill" to="#808080" begin="reset.mouseover" end="reset.mouseout"/></use>
  </g>
</defs>
<script type="application/ecmascript">
var viewWidth = 1338;
var viewHeight = 350;
var sectionId = 'dynsection-6';
</script>
<script type="application/ecmascript" xlink:href="svg.min.js"/>
<svg id="graph" class="graph">
<g id="viewport">
<title>CylBase::getLength</title>
<!-- Node1 -->
<g id="Node000001" class="node">
<title>Node1</title>
<g id="a_Node000001"><a xlink:title=" ">
<polygon fill="#999999" stroke="#666666" points="1330,-181 1219,-181 1219,-162 1330,-162 1330,-181"/>
<text text-anchor="middle" x="1274.5" y="-169" font-family="Ubuntu Mono" font-size="10.00">CylBase::getLength</text>
</a>
</g>
</g>
<!-- Node2 -->
<g id="Node000002" class="node">
<title>Node2</title>
<g id="a_Node000002"><a xlink:href="classNeuroNode.html#a70b74d5099ec3b1d38c222eebe56bfed" target="_top" xlink:title=" ">
<polygon fill="white" stroke="#666666" points="1175.5,-341 1020.5,-341 1020.5,-322 1175.5,-322 1175.5,-341"/>
<text text-anchor="middle" x="1098" y="-329" font-family="Ubuntu Mono" font-size="10.00">NeuroNode::calculateLength</text>
</a>
</g>
</g>
<!-- Node1&#45;&gt;Node2 -->
<g id="edge1_Node000001_Node000002" class="edge">
<title>Node1&#45;&gt;Node2</title>
<g id="a_edge1_Node000001_Node000002"><a xlink:title=" ">
<path fill="none" stroke="#63b8ff" d="M1265.67,-190.91C1252.83,-220.31 1224.48,-275.95 1183,-306.5 1173.69,-313.36 1162.5,-318.35 1151.38,-321.97"/>
<polygon fill="#63b8ff" stroke="#63b8ff" points="1269.04,-191.93 1269.7,-181.35 1262.59,-189.21 1269.04,-191.93"/>
</a>
</g>
</g>
<!-- Node3 -->
<g id="Node000003" class="node">
<title>Node3</title>
<g id="a_Node000003"><a xlink:href="classNeuroMesh.html#a99dc3d5127a37f2a59d4e9280b0228fd" target="_top" xlink:title=" ">
<polygon fill="white" stroke="#666666" points="975,-342 800,-342 800,-323 975,-323 975,-342"/>
<text text-anchor="middle" x="887.5" y="-330" font-family="Ubuntu Mono" font-size="10.00">NeuroMesh::insertSingleDummy</text>
</a>
</g>
</g>
<!-- Node1&#45;&gt;Node3 -->
<g id="edge25_Node000001_Node000003" class="edge">
<title>Node1&#45;&gt;Node3</title>
<g id="a_edge25_Node000001_Node000003"><a xlink:title=" ">
<path fill="none" stroke="#63b8ff" d="M1262.48,-189.46C1247.46,-212.31 1218.35,-251.24 1183,-271.5 1162.47,-283.27 1023.39,-308.95 943.91,-322.94"/>
<polygon fill="#63b8ff" stroke="#63b8ff" points="1265.43,-191.34 1267.86,-181.02 1259.53,-187.57 1265.43,-191.34"/>
</a>
</g>
</g>
<!-- Node8 -->
<g id="Node000008" class="node">
<title>Node8</title>
<g id="a_Node000008"><a xlink:href="classSpineEntry.html#a2ed636d711a41f78e7289d146dfd2fd3" target="_top" xlink:title=" ">
<polygon fill="white" stroke="#666666" points="1172.5,-262 1023.5,-262 1023.5,-243 1172.5,-243 1172.5,-262"/>
<text text-anchor="middle" x="1098" y="-250" font-family="Ubuntu Mono" font-size="10.00">SpineEntry::diffusionLength</text>
</a>
</g>
</g>
<!-- Node1&#45;&gt;Node8 -->
<g id="edge8_Node000001_Node000008" class="edge">
<title>Node1&#45;&gt;Node8</title>
<g id="a_edge8_Node000001_Node000008"><a xlink:title=" ">
<path fill="none" stroke="#63b8ff" d="M1252.53,-187.13C1234.78,-199.75 1208.26,-217.21 1183,-228.5 1169.84,-234.38 1154.89,-239.2 1141.27,-242.94"/>
<polygon fill="#63b8ff" stroke="#63b8ff" points="1254.91,-189.73 1260.96,-181.03 1250.81,-184.05 1254.91,-189.73"/>
</a>
</g>
</g>
<!-- Node14 -->
<g id="Node000014" class="node">
<title>Node14</title>
<g id="a_Node000014"><a xlink:href="classNeuroMesh.html#ae11ad998776b0f40a46ed1fb72db40c6" target="_top" xlink:title=" ">
<polygon fill="white" stroke="#666666" points="1154.5,-219 1041.5,-219 1041.5,-200 1154.5,-200 1154.5,-219"/>
<text text-anchor="middle" x="1098" y="-207" font-family="Ubuntu Mono" font-size="10.00">NeuroMesh::getAdx</text>
</a>
</g>
</g>
<!-- Node1&#45;&gt;Node14 -->
<g id="edge14_Node000001_Node000014" class="edge">
<title>Node1&#45;&gt;Node14</title>
<g id="a_edge14_Node000001_Node000014"><a xlink:title=" ">
<path fill="none" stroke="#63b8ff" d="M1219.53,-183.25C1194.86,-188.63 1166.01,-194.91 1142.72,-199.98"/>
<polygon fill="#63b8ff" stroke="#63b8ff" points="1220.44,-186.64 1229.47,-181.09 1218.95,-179.8 1220.44,-186.64"/>
</a>
</g>
</g>
<!-- Node16 -->
<g id="Node000016" class="node">
<title>Node16</title>
<g id="a_Node000016"><a xlink:href="classNeuroMesh.html#a05ab531bca2ba6c4f6ca1a7c875f497e" target="_top" xlink:title=" ">
<polygon fill="white" stroke="#666666" points="747,-194 601,-194 601,-175 747,-175 747,-194"/>
<text text-anchor="middle" x="674" y="-182" font-family="Ubuntu Mono" font-size="10.00">NeuroMesh::updateCoords</text>
</a>
</g>
</g>
<!-- Node1&#45;&gt;Node16 -->
<g id="edge29_Node000001_Node000016" class="edge">
<title>Node1&#45;&gt;Node16</title>
<g id="a_edge29_Node000001_Node000016"><a xlink:title=" ">
<path fill="none" stroke="#63b8ff" d="M1208.6,-172.91C1095.91,-175.36 864.86,-180.38 747.24,-182.93"/>
<polygon fill="#63b8ff" stroke="#63b8ff" points="1208.88,-176.4 1218.8,-172.69 1208.73,-169.41 1208.88,-176.4"/>
</a>
</g>
</g>
<!-- Node18 -->
<g id="Node000018" class="node">
<title>Node18</title>
<g id="a_Node000018"><a xlink:href="classNeuroMesh.html#a71aa45e785032672bd4a653c95c1d2fd" target="_top" xlink:title="Inherited virtual func.">
<polygon fill="white" stroke="#666666" points="543,-143 367,-143 367,-124 543,-124 543,-143"/>
<text text-anchor="middle" x="455" y="-131" font-family="Ubuntu Mono" font-size="10.00">NeuroMesh::innerSetNumEntries</text>
</a>
</g>
</g>
<!-- Node1&#45;&gt;Node18 -->
<g id="edge24_Node000001_Node000018" class="edge">
<title>Node1&#45;&gt;Node18</title>
<g id="a_edge24_Node000001_Node000018"><a xlink:title=" ">
<path fill="none" stroke="#63b8ff" d="M1208.77,-168.49C1062.88,-161.71 708.26,-145.23 543.19,-137.55"/>
<polygon fill="#63b8ff" stroke="#63b8ff" points="1208.76,-171.99 1218.91,-168.96 1209.08,-165 1208.76,-171.99"/>
</a>
</g>
</g>
<!-- Node21 -->
<g id="Node000021" class="node">
<title>Node21</title>
<g id="a_Node000021"><a xlink:href="classSpineEntry.html#a0429ac84199b947d7e903d6f551bbca7" target="_top" xlink:title=" ">
<polygon fill="white" stroke="#666666" points="1161,-105 1035,-105 1035,-86 1161,-86 1161,-105"/>
<text text-anchor="middle" x="1098" y="-93" font-family="Ubuntu Mono" font-size="10.00">SpineEntry::setVolume</text>
</a>
</g>
</g>
<!-- Node1&#45;&gt;Node21 -->
<g id="edge26_Node000001_Node000021" class="edge">
<title>Node1&#45;&gt;Node21</title>
<g id="a_edge26_Node000001_Node000021"><a xlink:title=" ">
<path fill="none" stroke="#63b8ff" d="M1250.78,-156.36C1232.94,-145 1207.16,-129.71 1183,-119.5 1169.31,-113.71 1153.79,-108.84 1139.85,-105.03"/>
<polygon fill="#63b8ff" stroke="#63b8ff" points="1249.03,-159.4 1259.33,-161.9 1252.83,-153.53 1249.03,-159.4"/>
</a>
</g>
</g>
<!-- Node24 -->
<g id="Node000024" class="node">
<title>Node24</title>
<g id="a_Node000024"><a xlink:href="classNeuroMesh.html#af927c307d1eaf9cb408f9d7d64ea7172" target="_top" xlink:title=" ">
<polygon fill="white" stroke="#666666" points="1175,-67.5 1021,-67.5 1021,-37.5 1175,-37.5 1175,-67.5"/>
<text text-anchor="start" x="1029" y="-55.5" font-family="Ubuntu Mono" font-size="10.00">NeuroMesh::vSetVolumeNot</text>
<text text-anchor="middle" x="1098" y="-44.5" font-family="Ubuntu Mono" font-size="10.00">Rates</text>
</a>
</g>
</g>
<!-- Node1&#45;&gt;Node24 -->
<g id="edge30_Node000001_Node000024" class="edge">
<title>Node1&#45;&gt;Node24</title>
<g id="a_edge30_Node000001_Node000024"><a xlink:title=" ">
<path fill="none" stroke="#63b8ff" d="M1261.11,-153.56C1245.38,-132.12 1216.26,-96.62 1183,-76.5 1177.29,-73.05 1171.06,-70.07 1164.66,-67.51"/>
<polygon fill="#63b8ff" stroke="#63b8ff" points="1258.34,-155.71 1267.01,-161.8 1264.04,-151.63 1258.34,-155.71"/>
</a>
</g>
</g>
<!-- Node25 -->
<g id="Node000025" class="node">
<title>Node25</title>
<g id="a_Node000025"><a xlink:href="classPsdMesh.html#a2109fadf54e64876cf31aa7a0b33e214" target="_top" xlink:title="Inherited virtual func.">
<polygon fill="white" stroke="#666666" points="1183,-19 1013,-19 1013,0 1183,0 1183,-19"/>
<text text-anchor="middle" x="1098" y="-7" font-family="Ubuntu Mono" font-size="10.00">PsdMesh::vSetVolumeNotRates</text>
</a>
</g>
</g>
<!-- Node1&#45;&gt;Node25 -->
<g id="edge31_Node000001_Node000025" class="edge">
<title>Node1&#45;&gt;Node25</title>
<g id="a_edge31_Node000001_Node000025"><a xlink:title=" ">
<path fill="none" stroke="#63b8ff" d="M1266.76,-151.92C1254.95,-120.67 1227.45,-59.87 1183,-28.5 1177.5,-24.62 1171.34,-21.52 1164.92,-19.04"/>
<polygon fill="#63b8ff" stroke="#63b8ff" points="1263.58,-153.43 1270.28,-161.64 1270.16,-151.05 1263.58,-153.43"/>
</a>
</g>
</g>
<!-- Node2&#45;&gt;Node3 -->
<g id="edge2_Node000002_Node000003" class="edge">
<title>Node2&#45;&gt;Node3</title>
<g id="a_edge2_Node000002_Node000003"><a xlink:title=" ">
<path fill="none" stroke="#63b8ff" d="M1010.2,-331.92C998.66,-331.97 986.83,-332.03 975.29,-332.08"/>
<polygon fill="#63b8ff" stroke="#63b8ff" points="1010.27,-335.42 1020.25,-331.87 1010.23,-328.42 1010.27,-335.42"/>
</a>
</g>
</g>
<!-- Node4 -->
<g id="Node000004" class="node">
<title>Node4</title>
<g id="a_Node000004"><a xlink:href="classNeuroMesh.html#adb349d751b4e32371a1818e2895e26f6" target="_top" xlink:title=" ">
<polygon fill="white" stroke="#666666" points="762,-342 586,-342 586,-323 762,-323 762,-342"/>
<text text-anchor="middle" x="674" y="-330" font-family="Ubuntu Mono" font-size="10.00">NeuroMesh::insertDummyNodes</text>
</a>
</g>
</g>
<!-- Node3&#45;&gt;Node4 -->
<g id="edge3_Node000003_Node000004" class="edge">
<title>Node3&#45;&gt;Node4</title>
<g id="a_edge3_Node000003_Node000004"><a xlink:title=" ">
<path fill="none" stroke="#63b8ff" d="M789.6,-332.5C780.46,-332.5 771.23,-332.5 762.19,-332.5"/>
<polygon fill="#63b8ff" stroke="#63b8ff" points="789.86,-336 799.86,-332.5 789.86,-329 789.86,-336"/>
</a>
</g>
</g>
<!-- Node5 -->
<g id="Node000005" class="node">
<title>Node5</title>
<g id="a_Node000005"><a xlink:href="classNeuroMesh.html#a35e1c3ce3edeae2652b9d5ee2729f9df" target="_top" xlink:title=" ">
<polygon fill="white" stroke="#666666" points="520.5,-294 389.5,-294 389.5,-275 520.5,-275 520.5,-294"/>
<text text-anchor="middle" x="455" y="-282" font-family="Ubuntu Mono" font-size="10.00">NeuroMesh::setSubTree</text>
</a>
</g>
</g>
<!-- Node4&#45;&gt;Node5 -->
<g id="edge4_Node000004_Node000005" class="edge">
<title>Node4&#45;&gt;Node5</title>
<g id="a_edge4_Node000004_Node000005"><a xlink:title=" ">
<path fill="none" stroke="#63b8ff" d="M616.1,-320.92C606.06,-318.82 595.72,-316.63 586,-314.5 555.91,-307.92 521.99,-300.08 496.35,-294.06"/>
<polygon fill="#63b8ff" stroke="#63b8ff" points="615.5,-324.37 626,-322.98 616.92,-317.52 615.5,-324.37"/>
</a>
</g>
</g>
<!-- Node6 -->
<g id="Node000006" class="node">
<title>Node6</title>
<g id="a_Node000006"><a xlink:href="classNeuroMesh.html#a131784a1f5af526113a98464ab4c4357" target="_top" xlink:title=" ">
<polygon fill="white" stroke="#666666" points="119,-237 0,-237 0,-218 119,-218 119,-237"/>
<text text-anchor="middle" x="59.5" y="-225" font-family="Ubuntu Mono" font-size="10.00">NeuroMesh::initCinfo</text>
</a>
</g>
</g>
<!-- Node5&#45;&gt;Node6 -->
<g id="edge5_Node000005_Node000006" class="edge">
<title>Node5&#45;&gt;Node6</title>
<g id="a_edge5_Node000005_Node000006"><a xlink:title=" ">
<path fill="none" stroke="#63b8ff" d="M378.97,-286.29C317.93,-286.19 229.93,-282.48 155,-265.5 127.58,-259.28 97.77,-246.13 79.11,-237.06"/>
<polygon fill="#63b8ff" stroke="#63b8ff" points="379.3,-289.79 389.29,-286.28 379.29,-282.79 379.3,-289.79"/>
</a>
</g>
</g>
<!-- Node7 -->
<g id="Node000007" class="node">
<title>Node7</title>
<g id="a_Node000007"><a xlink:href="classNeuroMesh.html#a5544eb3267ffffc2ba356d50ec2a4633" target="_top" xlink:title=" ">
<polygon fill="white" stroke="#666666" points="315.5,-256 163.5,-256 163.5,-237 315.5,-237 315.5,-256"/>
<text text-anchor="middle" x="239.5" y="-244" font-family="Ubuntu Mono" font-size="10.00">NeuroMesh::setSubTreePath</text>
</a>
</g>
</g>
<!-- Node5&#45;&gt;Node7 -->
<g id="edge6_Node000005_Node000007" class="edge">
<title>Node5&#45;&gt;Node7</title>
<g id="a_edge6_Node000005_Node000007"><a xlink:title=" ">
<path fill="none" stroke="#63b8ff" d="M390.25,-273.15C359.62,-267.7 323.31,-261.24 294.12,-256.04"/>
<polygon fill="#63b8ff" stroke="#63b8ff" points="389.94,-276.65 400.4,-274.96 391.17,-269.76 389.94,-276.65"/>
</a>
</g>
</g>
<!-- Node7&#45;&gt;Node6 -->
<g id="edge7_Node000007_Node000006" class="edge">
<title>Node7&#45;&gt;Node6</title>
<g id="a_edge7_Node000007_Node000006"><a xlink:title=" ">
<path fill="none" stroke="#63b8ff" d="M153.21,-237.4C141.72,-236.17 130.15,-234.93 119.27,-233.77"/>
<polygon fill="#63b8ff" stroke="#63b8ff" points="152.95,-240.89 163.27,-238.47 153.7,-233.93 152.95,-240.89"/>
</a>
</g>
</g>
<!-- Node9 -->
<g id="Node000009" class="node">
<title>Node9</title>
<g id="a_Node000009"><a xlink:href="classSpineMesh.html#abf7db6994f920d5966037928321fe3c5" target="_top" xlink:title=" ">
<polygon fill="white" stroke="#666666" points="964,-305 811,-305 811,-286 964,-286 964,-305"/>
<text text-anchor="middle" x="887.5" y="-293" font-family="Ubuntu Mono" font-size="10.00">SpineMesh::handleSpineList</text>
</a>
</g>
</g>
<!-- Node8&#45;&gt;Node9 -->
<g id="edge9_Node000008_Node000009" class="edge">
<title>Node8&#45;&gt;Node9</title>
<g id="a_edge9_Node000008_Node000009"><a xlink:title=" ">
<path fill="none" stroke="#63b8ff" d="M1040.7,-264.11C1007.47,-270.96 965.93,-279.53 934.64,-285.98"/>
<polygon fill="#63b8ff" stroke="#63b8ff" points="1041.64,-267.49 1050.73,-262.04 1040.23,-260.64 1041.64,-267.49"/>
</a>
</g>
</g>
<!-- Node11 -->
<g id="Node000011" class="node">
<title>Node11</title>
<g id="a_Node000011"><a xlink:href="classSpineMesh.html#a0e2e7d002152dfc0562accc9932e8a00" target="_top" xlink:title=" ">
<polygon fill="white" stroke="#666666" points="968.5,-267.5 806.5,-267.5 806.5,-237.5 968.5,-237.5 968.5,-267.5"/>
<text text-anchor="start" x="814.5" y="-255.5" font-family="Ubuntu Mono" font-size="10.00">SpineMesh::matchNeuroMesh</text>
<text text-anchor="middle" x="887.5" y="-244.5" font-family="Ubuntu Mono" font-size="10.00">Entries</text>
</a>
</g>
</g>
<!-- Node8&#45;&gt;Node11 -->
<g id="edge11_Node000008_Node000011" class="edge">
<title>Node8&#45;&gt;Node11</title>
<g id="a_edge11_Node000008_Node000011"><a xlink:title=" ">
<path fill="none" stroke="#63b8ff" d="M1013.41,-252.5C998.7,-252.5 983.41,-252.5 968.79,-252.5"/>
<polygon fill="#63b8ff" stroke="#63b8ff" points="1013.49,-256 1023.49,-252.5 1013.49,-249 1013.49,-256"/>
</a>
</g>
</g>
<!-- Node10 -->
<g id="Node000010" class="node">
<title>Node10</title>
<g id="a_Node000010"><a xlink:href="classSpineMesh.html#ae7bb51c2e7cf67fe3df6881eb256c4f4" target="_top" xlink:title=" ">
<polygon fill="white" stroke="#666666" points="732.5,-305 615.5,-305 615.5,-286 732.5,-286 732.5,-305"/>
<text text-anchor="middle" x="674" y="-293" font-family="Ubuntu Mono" font-size="10.00">SpineMesh::initCinfo</text>
</a>
</g>
</g>
<!-- Node9&#45;&gt;Node10 -->
<g id="edge10_Node000009_Node000010" class="edge">
<title>Node9&#45;&gt;Node10</title>
<g id="a_edge10_Node000009_Node000010"><a xlink:title=" ">
<path fill="none" stroke="#63b8ff" d="M800.68,-295.5C777.79,-295.5 753.61,-295.5 732.64,-295.5"/>
<polygon fill="#63b8ff" stroke="#63b8ff" points="800.74,-299 810.74,-295.5 800.74,-292 800.74,-299"/>
</a>
</g>
</g>
<!-- Node12 -->
<g id="Node000012" class="node">
<title>Node12</title>
<g id="a_Node000012"><a xlink:href="classNeuroMesh.html#a87f8811cba83e45b1a24c8da92aa0fc0" target="_top" xlink:title=" ">
<polygon fill="white" stroke="#666666" points="758.5,-268 589.5,-268 589.5,-249 758.5,-249 758.5,-268"/>
<text text-anchor="middle" x="674" y="-256" font-family="Ubuntu Mono" font-size="10.00">NeuroMesh::matchMeshEntries</text>
</a>
</g>
</g>
<!-- Node11&#45;&gt;Node12 -->
<g id="edge12_Node000011_Node000012" class="edge">
<title>Node11&#45;&gt;Node12</title>
<g id="a_edge12_Node000011_Node000012"><a xlink:title=" ">
<path fill="none" stroke="#63b8ff" d="M795.94,-255.07C783.59,-255.42 770.95,-255.78 758.72,-256.12"/>
<polygon fill="#63b8ff" stroke="#63b8ff" points="796.34,-258.56 806.24,-254.78 796.14,-251.56 796.34,-258.56"/>
</a>
</g>
</g>
<!-- Node13 -->
<g id="Node000013" class="node">
<title>Node13</title>
<g id="a_Node000013"><a xlink:href="classSpineMesh.html#a64e7b686dbb5cbda0c92b0e4dfc43393" target="_top" xlink:title=" ">
<polygon fill="white" stroke="#666666" points="757.5,-231 590.5,-231 590.5,-212 757.5,-212 757.5,-231"/>
<text text-anchor="middle" x="674" y="-219" font-family="Ubuntu Mono" font-size="10.00">SpineMesh::matchMeshEntries</text>
</a>
</g>
</g>
<!-- Node11&#45;&gt;Node13 -->
<g id="edge13_Node000011_Node000013" class="edge">
<title>Node11&#45;&gt;Node13</title>
<g id="a_edge13_Node000011_Node000013"><a xlink:title=" ">
<path fill="none" stroke="#63b8ff" d="M796.16,-239.26C777.32,-236.5 757.81,-233.64 740.09,-231.04"/>
<polygon fill="#63b8ff" stroke="#63b8ff" points="795.84,-242.75 806.24,-240.74 796.85,-235.82 795.84,-242.75"/>
</a>
</g>
</g>
<!-- Node15 -->
<g id="Node000015" class="node">
<title>Node15</title>
<g id="a_Node000015"><a xlink:href="classNeuroMesh.html#ae5cd8716e7247e87c5a528c35e620954" target="_top" xlink:title="Utility function to set up Stencil for diffusion in NeuroMesh.">
<polygon fill="white" stroke="#666666" points="955,-219 820,-219 820,-200 955,-200 955,-219"/>
<text text-anchor="middle" x="887.5" y="-207" font-family="Ubuntu Mono" font-size="10.00">NeuroMesh::buildStencil</text>
</a>
</g>
</g>
<!-- Node14&#45;&gt;Node15 -->
<g id="edge15_Node000014_Node000015" class="edge">
<title>Node14&#45;&gt;Node15</title>
<g id="a_edge15_Node000014_Node000015"><a xlink:title=" ">
<path fill="none" stroke="#63b8ff" d="M1031.21,-209.5C1006.93,-209.5 979.42,-209.5 955.07,-209.5"/>
<polygon fill="#63b8ff" stroke="#63b8ff" points="1031.4,-213 1041.4,-209.5 1031.4,-206 1031.4,-213"/>
</a>
</g>
</g>
<!-- Node15&#45;&gt;Node16 -->
<g id="edge16_Node000015_Node000016" class="edge">
<title>Node15&#45;&gt;Node16</title>
<g id="a_edge16_Node000015_Node000016"><a xlink:title=" ">
<path fill="none" stroke="#63b8ff" d="M809.68,-200.42C789.27,-198.01 767.31,-195.41 747.16,-193.03"/>
<polygon fill="#63b8ff" stroke="#63b8ff" points="809.53,-203.93 819.87,-201.62 810.35,-196.97 809.53,-203.93"/>
</a>
</g>
</g>
<!-- Node16&#45;&gt;Node5 -->
<g id="edge23_Node000016_Node000005" class="edge">
<title>Node16&#45;&gt;Node5</title>
<g id="a_edge23_Node000016_Node000005"><a xlink:title=" ">
<path fill="none" stroke="#63b8ff" d="M594.01,-198.43C591.22,-199.95 588.54,-201.64 586,-203.5 560.01,-222.59 576.24,-247.75 550,-266.5 541.35,-272.68 531.15,-276.9 520.71,-279.75"/>
<polygon fill="#63b8ff" stroke="#63b8ff" points="595.68,-201.51 603.23,-194.08 592.69,-195.18 595.68,-201.51"/>
</a>
</g>
</g>
<!-- Node17 -->
<g id="Node000017" class="node">
<title>Node17</title>
<g id="a_Node000017"><a xlink:href="classNeuroMesh.html#a79cf7938a69c50fb6a126fe68d29ae8f" target="_top" xlink:title="Virtual func to make a mesh with specified size and numEntries.">
<polygon fill="white" stroke="#666666" points="550,-257 360,-257 360,-238 550,-238 550,-257"/>
<text text-anchor="middle" x="455" y="-245" font-family="Ubuntu Mono" font-size="10.00">NeuroMesh::innerBuildDefaultMesh</text>
</a>
</g>
</g>
<!-- Node16&#45;&gt;Node17 -->
<g id="edge17_Node000016_Node000017" class="edge">
<title>Node16&#45;&gt;Node17</title>
<g id="a_edge17_Node000016_Node000017"><a xlink:title=" ">
<path fill="none" stroke="#63b8ff" d="M607.77,-196.56C600.33,-198.57 592.94,-200.88 586,-203.5 568.88,-209.97 567.01,-216.74 550,-223.5 535.13,-229.41 518.35,-234.24 503.13,-237.98"/>
<polygon fill="#63b8ff" stroke="#63b8ff" points="608.7,-199.93 617.53,-194.07 606.97,-193.15 608.7,-199.93"/>
</a>
</g>
</g>
<!-- Node16&#45;&gt;Node18 -->
<g id="edge18_Node000016_Node000018" class="edge">
<title>Node16&#45;&gt;Node18</title>
<g id="a_edge18_Node000016_Node000018"><a xlink:title=" ">
<path fill="none" stroke="#63b8ff" d="M622.53,-172.64C584.27,-163.65 532.37,-151.45 496.73,-143.07"/>
<polygon fill="#63b8ff" stroke="#63b8ff" points="621.9,-176.09 632.44,-174.97 623.5,-169.27 621.9,-176.09"/>
</a>
</g>
</g>
<!-- Node19 -->
<g id="Node000019" class="node">
<title>Node19</title>
<g id="a_Node000019"><a xlink:href="classNeuroMesh.html#a5a13798b0f4049fc74b1ffbd4622da5d" target="_top" xlink:title=" ">
<polygon fill="white" stroke="#666666" points="311,-219 168,-219 168,-200 311,-200 311,-219"/>
<text text-anchor="middle" x="239.5" y="-207" font-family="Ubuntu Mono" font-size="10.00">NeuroMesh::setDiffLength</text>
</a>
</g>
</g>
<!-- Node16&#45;&gt;Node19 -->
<g id="edge19_Node000016_Node000019" class="edge">
<title>Node16&#45;&gt;Node19</title>
<g id="a_edge19_Node000016_Node000019"><a xlink:title=" ">
<path fill="none" stroke="#63b8ff" d="M590.54,-189.98C577,-190.84 563.11,-191.71 550,-192.5 468.08,-197.41 373.93,-202.51 311.19,-205.82"/>
<polygon fill="#63b8ff" stroke="#63b8ff" points="591.06,-193.45 600.81,-189.32 590.61,-186.47 591.06,-193.45"/>
</a>
</g>
</g>
<!-- Node20 -->
<g id="Node000020" class="node">
<title>Node20</title>
<g id="a_Node000020"><a xlink:href="classNeuroMesh.html#a2fcb1e6932205d672d8e31dd4884da56" target="_top" xlink:title=" ">
<polygon fill="white" stroke="#666666" points="324,-182 155,-182 155,-163 324,-163 324,-182"/>
<text text-anchor="middle" x="239.5" y="-170" font-family="Ubuntu Mono" font-size="10.00">NeuroMesh::setSeparateSpines</text>
</a>
</g>
</g>
<!-- Node16&#45;&gt;Node20 -->
<g id="edge21_Node000016_Node000020" class="edge">
<title>Node16&#45;&gt;Node20</title>
<g id="a_edge21_Node000016_Node000020"><a xlink:title=" ">
<path fill="none" stroke="#63b8ff" d="M590.55,-182.21C514.15,-180.09 401.05,-176.95 324.24,-174.82"/>
<polygon fill="#63b8ff" stroke="#63b8ff" points="590.52,-185.71 600.61,-182.49 590.71,-178.72 590.52,-185.71"/>
</a>
</g>
</g>
<!-- Node19&#45;&gt;Node6 -->
<g id="edge20_Node000019_Node000006" class="edge">
<title>Node19&#45;&gt;Node6</title>
<g id="a_edge20_Node000019_Node000006"><a xlink:title=" ">
<path fill="none" stroke="#63b8ff" d="M157.61,-217.68C144.69,-218.99 131.55,-220.32 119.27,-221.56"/>
<polygon fill="#63b8ff" stroke="#63b8ff" points="158.3,-221.13 167.89,-216.64 157.59,-214.16 158.3,-221.13"/>
</a>
</g>
</g>
<!-- Node20&#45;&gt;Node6 -->
<g id="edge22_Node000020_Node000006" class="edge">
<title>Node20&#45;&gt;Node6</title>
<g id="a_edge22_Node000020_Node000006"><a xlink:title=" ">
<path fill="none" stroke="#63b8ff" d="M181.44,-184.36C172.53,-186.53 163.48,-188.93 155,-191.5 129.96,-199.08 102.06,-210.03 83.1,-217.86"/>
<polygon fill="#63b8ff" stroke="#63b8ff" points="182.46,-187.72 191.38,-182.01 180.85,-180.9 182.46,-187.72"/>
</a>
</g>
</g>
<!-- Node22 -->
<g id="Node000022" class="node">
<title>Node22</title>
<g id="a_Node000022"><a xlink:href="classSpineMesh.html#ae4b57e5a3263c1e018d97f294775ac73" target="_top" xlink:title="Virtual function to assign volume of mesh Entry.">
<polygon fill="white" stroke="#666666" points="977,-105 798,-105 798,-86 977,-86 977,-105"/>
<text text-anchor="middle" x="887.5" y="-93" font-family="Ubuntu Mono" font-size="10.00">SpineMesh::setMeshEntryVolume</text>
</a>
</g>
</g>
<!-- Node21&#45;&gt;Node22 -->
<g id="edge27_Node000021_Node000022" class="edge">
<title>Node21&#45;&gt;Node22</title>
<g id="a_edge27_Node000021_Node000022"><a xlink:title=" ">
<path fill="none" stroke="#63b8ff" d="M1024.34,-95.5C1009.08,-95.5 992.82,-95.5 977.05,-95.5"/>
<polygon fill="#63b8ff" stroke="#63b8ff" points="1024.73,-99 1034.73,-95.5 1024.73,-92 1024.73,-99"/>
</a>
</g>
</g>
<!-- Node23 -->
<g id="Node000023" class="node">
<title>Node23</title>
<g id="a_Node000023"><a xlink:href="classSpineMesh.html#aea134dd6fb52a768e819e8d2574cab69" target="_top" xlink:title="Inherited virtual func.">
<polygon fill="white" stroke="#666666" points="963.5,-67.5 811.5,-67.5 811.5,-37.5 963.5,-37.5 963.5,-67.5"/>
<text text-anchor="start" x="819.5" y="-55.5" font-family="Ubuntu Mono" font-size="10.00">SpineMesh::vSetVolumeNot</text>
<text text-anchor="middle" x="887.5" y="-44.5" font-family="Ubuntu Mono" font-size="10.00">Rates</text>
</a>
</g>
</g>
<!-- Node21&#45;&gt;Node23 -->
<g id="edge28_Node000021_Node000023" class="edge">
<title>Node21&#45;&gt;Node23</title>
<g id="a_edge28_Node000021_Node000023"><a xlink:title=" ">
<path fill="none" stroke="#63b8ff" d="M1040.88,-83.93C1016.4,-78.88 987.38,-72.89 961.26,-67.51"/>
<polygon fill="#63b8ff" stroke="#63b8ff" points="1040.23,-87.36 1050.73,-85.96 1041.64,-80.51 1040.23,-87.36"/>
</a>
</g>
</g>
</g>
</svg>

<g id="navigator" transform="translate(0 0)" fill="#404254">
  <rect fill="#f2f5e9" fill-opacity="0.5" stroke="#606060" stroke-width=".5" x="0" y="0" width="60" height="60"/>
  <use id="zoomplus" xlink:href="#zoomPlus" x="17" y="9" onmousedown="handleZoom(evt,'in')"/>
  <use id="zoomminus" xlink:href="#zoomMin" x="42" y="9" onmousedown="handleZoom(evt,'out')"/>
  <use id="reset" xlink:href="#resetDef" x="30" y="36" onmousedown="handleReset()"/>
   <use id="arrowup" xlink:href="#arrowUp" x="0" y="0" onmousedown="handlePan(0,-1)"/>
  <use id="arrowright" xlink:href="#arrowRight" x="0" y="0" onmousedown="handlePan(1,0)"/>
  <use id="arrowdown" xlink:href="#arrowDown" x="0" y="0" onmousedown="handlePan(0,1)"/>
  <use id="arrowleft" xlink:href="#arrowLeft" x="0" y="0" onmousedown="handlePan(-1,0)"/>
</g>
<svg viewBox="0 0 15 15" width="100%" height="30px" preserveAspectRatio="xMaxYMin meet">
 <g id="arrow_out" transform="scale(0.3 0.3)">
  <a xlink:href="classCylBase_a8ee5f8e88924d3be2cdcc01c23efb2b9_icgraph_org.svg" target="_base">
   <rect id="button" ry="5" rx="5" y="6" x="6" height="38" width="38"
        fill="#f2f5e9" fill-opacity="0.5" stroke="#606060" stroke-width="1.0"/>
   <path id="arrow"
     d="M 11.500037,31.436501 C 11.940474,20.09759 22.043105,11.32322 32.158766,21.979434 L 37.068811,17.246167 C 37.068811,17.246167 37.088388,32 37.088388,32 L 22.160133,31.978069 C 22.160133,31.978069 26.997745,27.140456 26.997745,27.140456 C 18.528582,18.264221 13.291696,25.230495 11.500037,31.436501 z"
     style="fill:#404040;"/>
  </a>
 </g>
</svg>

<style type='text/css'>
<![CDATA[
[data-mouse-over-selected='false'] { opacity: 0.7; }
[data-mouse-over-selected='true']  { opacity: 1.0; }
]]>
</style>
<script type="application/ecmascript"><![CDATA[
document.addEventListener('DOMContentLoaded', (event) => {
  highlightEdges();
  highlightAdjacentNodes();
});
]]></script>
</svg>
