<?xml version="1.0" encoding="UTF-8" standalone="no"?>
<!DOCTYPE svg PUBLIC "-//W3C//DTD SVG 1.1//EN"
 "http://www.w3.org/Graphics/SVG/1.1/DTD/svg11.dtd">
<!-- Generated by graphviz version 2.43.0 (0)
 -->
<!-- Title: Finfo::rttiType Pages: 1 -->
<!--zoomable 444 -->

<svg id="main" version="1.1" xmlns="http://www.w3.org/2000/svg" xmlns:xlink="http://www.w3.org/1999/xlink" xml:space="preserve" onload="init(evt)">
<style type="text/css"><![CDATA[
.node, .edge {opacity: 0.7;}
.node.selected, .edge.selected {opacity: 1;}
.edge:hover path { stroke: red; }
.edge:hover polygon { stroke: red; fill: red; }
]]></style>

<defs>
  <circle id="rim" cx="0" cy="0" r="7"/>
  <circle id="rim2" cx="0" cy="0" r="3.5"/>
  <g id="zoomPlus">
    <use xlink:href="#rim" fill="#404040"><set attributeName="fill" to="#808080" begin="zoomplus.mouseover" end="zoomplus.mouseout"/></use>
    <path d="M-4,0h8M0,-4v8" fill="none" stroke="white" stroke-width="1.5" pointer-events="none"/>
  </g>
  <g id="zoomMin">
    <use xlink:href="#rim" fill="#404040"><set attributeName="fill" to="#808080" begin="zoomminus.mouseover" end="zoomminus.mouseout"/></use>
    <path d="M-4,0h8" fill="none" stroke="white" stroke-width="1.5" pointer-events="none"/>
  </g>
  <g id="arrowUp" transform="translate(30 24)">
    <use xlink:href="#rim"/>
    <path pointer-events="none" fill="none" stroke="white" stroke-width="1.5" d="M0,-3.0v7 M-2.5,-0.5L0,-3.0L2.5,-0.5"/>
  </g>
  <g id="arrowRight" transform="rotate(90) translate(36 -43)">
    <use xlink:href="#rim"/>
    <path pointer-events="none" fill="none" stroke="white" stroke-width="1.5" d="M0,-3.0v7 M-2.5,-0.5L0,-3.0L2.5,-0.5"/>
  </g>
  <g id="arrowDown" transform="rotate(180) translate(-30 -48)">
    <use xlink:href="#rim"/>
    <path pointer-events="none" fill="none" stroke="white" stroke-width="1.5" d="M0,-3.0v7 M-2.5,-0.5L0,-3.0L2.5,-0.5"/>
  </g>
  <g id="arrowLeft" transform="rotate(270) translate(-36 17)">
    <use xlink:href="#rim"/>
    <path pointer-events="none" fill="none" stroke="white" stroke-width="1.5" d="M0,-3.0v7 M-2.5,-0.5L0,-3.0L2.5,-0.5"/>
  </g>
  <g id="resetDef">
    <use xlink:href="#rim2" fill="#404040"><set attributeName="fill" to="#808080" begin="reset.mouseover" end="reset.mouseout"/></use>
  </g>
</defs>
<script type="application/ecmascript">
var viewWidth = 994;
var viewHeight = 444;
var sectionId = 'dynsection-13';
</script>
<script type="application/ecmascript" xlink:href="svg.min.js"/>
<svg id="graph" class="graph">
<g id="viewport">
<title>Finfo::rttiType</title>
<!-- Node1 -->
<g id="Node000001" class="node">
<title>Node1</title>
<g id="a_Node000001"><a xlink:title=" ">
<polygon fill="#999999" stroke="#666666" points="986,-238.5 903,-238.5 903,-219.5 986,-219.5 986,-238.5"/>
<text text-anchor="middle" x="944.5" y="-226.5" font-family="Ubuntu Mono" font-size="10.00">Finfo::rttiType</text>
</a>
</g>
</g>
<!-- Node2 -->
<g id="Node000002" class="node">
<title>Node2</title>
<g id="a_Node000002"><a xlink:href="namespacepymoose.html#acce432e8dae40197d951e2ed17c048be" target="_top" xlink:title=" ">
<polygon fill="white" stroke="#666666" points="867,-435.5 705,-435.5 705,-416.5 867,-416.5 867,-435.5"/>
<text text-anchor="middle" x="786" y="-423.5" font-family="Ubuntu Mono" font-size="10.00">pymoose::createDestFunction</text>
</a>
</g>
</g>
<!-- Node1&#45;&gt;Node2 -->
<g id="edge1_Node000001_Node000002" class="edge">
<title>Node1&#45;&gt;Node2</title>
<g id="a_edge1_Node000001_Node000002"><a xlink:title=" ">
<path fill="none" stroke="#63b8ff" d="M940.99,-248.59C935.16,-285.7 917.14,-366.27 867,-408 862.95,-411.37 858.4,-414.14 853.58,-416.42"/>
<polygon fill="#63b8ff" stroke="#63b8ff" points="944.48,-248.95 942.43,-238.56 937.55,-247.96 944.48,-248.95"/>
</a>
</g>
</g>
<!-- Node3 -->
<g id="Node000003" class="node">
<title>Node3</title>
<g id="a_Node000003"><a xlink:href="namespacepymoose.html#abe1419da80c69cb12d1411b24e487c18" target="_top" xlink:title=" ">
<polygon fill="white" stroke="#666666" points="865,-398.5 707,-398.5 707,-379.5 865,-379.5 865,-398.5"/>
<text text-anchor="middle" x="786" y="-386.5" font-family="Ubuntu Mono" font-size="10.00">pymoose::fieldDocFormatted</text>
</a>
</g>
</g>
<!-- Node1&#45;&gt;Node3 -->
<g id="edge2_Node000001_Node000003" class="edge">
<title>Node1&#45;&gt;Node3</title>
<g id="a_edge2_Node000001_Node000003"><a xlink:title=" ">
<path fill="none" stroke="#63b8ff" d="M938.46,-248.61C929.49,-279.4 907.77,-338.79 867,-370 862.01,-373.82 856.38,-376.89 850.46,-379.35"/>
<polygon fill="#63b8ff" stroke="#63b8ff" points="941.92,-249.24 941.2,-238.67 935.17,-247.38 941.92,-249.24"/>
</a>
</g>
</g>
<!-- Node4 -->
<g id="Node000004" class="node">
<title>Node4</title>
<g id="a_Node000004"><a xlink:href="classpymoose_1_1MooseVec.html#a99a45119cb4a389017413f2713b6b180" target="_top" xlink:title=" ">
<polygon fill="white" stroke="#666666" points="847.5,-361 724.5,-361 724.5,-331 847.5,-331 847.5,-361"/>
<text text-anchor="start" x="732.5" y="-349" font-family="Ubuntu Mono" font-size="10.00">pymoose::MooseVec::</text>
<text text-anchor="middle" x="786" y="-338" font-family="Ubuntu Mono" font-size="10.00">getAttribute</text>
</a>
</g>
</g>
<!-- Node1&#45;&gt;Node4 -->
<g id="edge3_Node000001_Node000004" class="edge">
<title>Node1&#45;&gt;Node4</title>
<g id="a_edge3_Node000001_Node000004"><a xlink:title=" ">
<path fill="none" stroke="#63b8ff" d="M933.02,-247.43C920.12,-268.48 896.29,-302.52 867,-322 861.08,-325.94 854.5,-329.24 847.73,-332.02"/>
<polygon fill="#63b8ff" stroke="#63b8ff" points="936.06,-249.16 938.15,-238.77 930.04,-245.58 936.06,-249.16"/>
</a>
</g>
</g>
<!-- Node5 -->
<g id="Node000005" class="node">
<title>Node5</title>
<g id="a_Node000005"><a xlink:href="namespacepymoose.html#a0819eb362ab7586a5c7450fcfb3fa814" target="_top" xlink:title=" ">
<polygon fill="white" stroke="#666666" points="837,-312.5 735,-312.5 735,-293.5 837,-293.5 837,-312.5"/>
<text text-anchor="middle" x="786" y="-300.5" font-family="Ubuntu Mono" font-size="10.00">pymoose::getDoc</text>
</a>
</g>
</g>
<!-- Node1&#45;&gt;Node5 -->
<g id="edge4_Node000001_Node000005" class="edge">
<title>Node1&#45;&gt;Node5</title>
<g id="a_edge4_Node000001_Node000005"><a xlink:title=" ">
<path fill="none" stroke="#63b8ff" d="M925.22,-245.77C910.52,-258.37 888.8,-275.09 867,-285 857.67,-289.24 847.26,-292.52 837.11,-295.04"/>
<polygon fill="#63b8ff" stroke="#63b8ff" points="927.81,-248.14 933.01,-238.91 923.19,-242.89 927.81,-248.14"/>
</a>
</g>
</g>
<!-- Node6 -->
<g id="Node000006" class="node">
<title>Node6</title>
<g id="a_Node000006"><a xlink:href="namespacepymoose.html#a912dfe811e3de112b50dabefad96a7c8" target="_top" xlink:title=" ">
<polygon fill="white" stroke="#666666" points="858,-275.5 714,-275.5 714,-256.5 858,-256.5 858,-275.5"/>
<text text-anchor="middle" x="786" y="-263.5" font-family="Ubuntu Mono" font-size="10.00">pymoose::getFieldGeneric</text>
</a>
</g>
</g>
<!-- Node1&#45;&gt;Node6 -->
<g id="edge5_Node000001_Node000006" class="edge">
<title>Node1&#45;&gt;Node6</title>
<g id="a_edge5_Node000001_Node000006"><a xlink:title=" ">
<path fill="none" stroke="#63b8ff" d="M896,-240.97C886.41,-243.34 876.39,-245.78 867,-248 855.09,-250.82 842.15,-253.78 830.22,-256.46"/>
<polygon fill="#63b8ff" stroke="#63b8ff" points="896.93,-244.35 905.8,-238.54 895.25,-237.55 896.93,-244.35"/>
</a>
</g>
</g>
<!-- Node7 -->
<g id="Node000007" class="node">
<title>Node7</title>
<g id="a_Node000007"><a xlink:href="namespacepymoose.html#abb2b577afd3a627b9401f746f1e9f07e" target="_top" xlink:title="Common function to get value fiields.">
<polygon fill="white" stroke="#666666" points="853,-238.5 719,-238.5 719,-219.5 853,-219.5 853,-238.5"/>
<text text-anchor="middle" x="786" y="-226.5" font-family="Ubuntu Mono" font-size="10.00">pymoose::getFieldValue</text>
</a>
</g>
</g>
<!-- Node1&#45;&gt;Node7 -->
<g id="edge6_Node000001_Node000007" class="edge">
<title>Node1&#45;&gt;Node7</title>
<g id="a_edge6_Node000001_Node000007"><a xlink:title=" ">
<path fill="none" stroke="#63b8ff" d="M892.55,-229C880.01,-229 866.41,-229 853.27,-229"/>
<polygon fill="#63b8ff" stroke="#63b8ff" points="892.79,-232.5 902.79,-229 892.79,-225.5 892.79,-232.5"/>
</a>
</g>
</g>
<!-- Node8 -->
<g id="Node000008" class="node">
<title>Node8</title>
<g id="a_Node000008"><a xlink:href="structpymoose_1_1LookupField.html#a218ecec40106fc3b0fb7e0bc8ac727f9" target="_top" xlink:title=" ">
<polygon fill="white" stroke="#666666" points="848.5,-201 723.5,-201 723.5,-171 848.5,-171 848.5,-201"/>
<text text-anchor="start" x="731.5" y="-189" font-family="Ubuntu Mono" font-size="10.00">pymoose::LookupField</text>
<text text-anchor="middle" x="786" y="-178" font-family="Ubuntu Mono" font-size="10.00">::LookupField</text>
</a>
</g>
</g>
<!-- Node1&#45;&gt;Node8 -->
<g id="edge7_Node000001_Node000008" class="edge">
<title>Node1&#45;&gt;Node8</title>
<g id="a_edge7_Node000001_Node000008"><a xlink:title=" ">
<path fill="none" stroke="#63b8ff" d="M898.66,-216.68C880.88,-211.79 860.26,-206.13 841.62,-201.01"/>
<polygon fill="#63b8ff" stroke="#63b8ff" points="898.2,-220.18 908.77,-219.46 900.05,-213.43 898.2,-220.18"/>
</a>
</g>
</g>
<!-- Node9 -->
<g id="Node000009" class="node">
<title>Node9</title>
<g id="a_Node000009"><a xlink:href="classpymoose_1_1MooseVec.html#a9a8e5cfcea85511699004778649f25fc" target="_top" xlink:title=" ">
<polygon fill="white" stroke="#666666" points="847.5,-153 724.5,-153 724.5,-123 847.5,-123 847.5,-153"/>
<text text-anchor="start" x="732.5" y="-141" font-family="Ubuntu Mono" font-size="10.00">pymoose::MooseVec::</text>
<text text-anchor="middle" x="786" y="-130" font-family="Ubuntu Mono" font-size="10.00">setAttribute</text>
</a>
</g>
</g>
<!-- Node1&#45;&gt;Node9 -->
<g id="edge8_Node000001_Node000009" class="edge">
<title>Node1&#45;&gt;Node9</title>
<g id="a_edge8_Node000001_Node000009"><a xlink:title=" ">
<path fill="none" stroke="#63b8ff" d="M927.95,-211.71C913.51,-196.61 890.72,-175.13 867,-162 860.91,-158.63 854.29,-155.68 847.56,-153.11"/>
<polygon fill="#63b8ff" stroke="#63b8ff" points="925.69,-214.41 935.07,-219.34 930.81,-209.64 925.69,-214.41"/>
</a>
</g>
</g>
<!-- Node10 -->
<g id="Node000010" class="node">
<title>Node10</title>
<g id="a_Node000010"><a xlink:href="namespacepymoose.html#ae41cc79348c5fa83aefb0f1bc4fe3f94" target="_top" xlink:title=" ">
<polygon fill="white" stroke="#666666" points="857.5,-104.5 714.5,-104.5 714.5,-85.5 857.5,-85.5 857.5,-104.5"/>
<text text-anchor="middle" x="786" y="-92.5" font-family="Ubuntu Mono" font-size="10.00">pymoose::setFieldGeneric</text>
</a>
</g>
</g>
<!-- Node1&#45;&gt;Node10 -->
<g id="edge9_Node000001_Node000010" class="edge">
<title>Node1&#45;&gt;Node10</title>
<g id="a_edge9_Node000001_Node000010"><a xlink:title=" ">
<path fill="none" stroke="#63b8ff" d="M936.03,-209.69C924.97,-183.77 901.76,-138.22 867,-114 861.49,-110.16 855.31,-107.1 848.89,-104.65"/>
<polygon fill="#63b8ff" stroke="#63b8ff" points="932.88,-211.24 939.9,-219.17 939.36,-208.59 932.88,-211.24"/>
</a>
</g>
</g>
<!-- Node11 -->
<g id="Node000011" class="node">
<title>Node11</title>
<g id="a_Node000011"><a xlink:href="classFinfoWrapper.html#a4dd42a926bce49f3e056d6417b9e1d2b" target="_top" xlink:title=" ">
<polygon fill="white" stroke="#666666" points="841,-67.5 731,-67.5 731,-48.5 841,-48.5 841,-67.5"/>
<text text-anchor="middle" x="786" y="-55.5" font-family="Ubuntu Mono" font-size="10.00">FinfoWrapper::type</text>
</a>
</g>
</g>
<!-- Node1&#45;&gt;Node11 -->
<g id="edge10_Node000001_Node000011" class="edge">
<title>Node1&#45;&gt;Node11</title>
<g id="a_edge10_Node000001_Node000011"><a xlink:title=" ">
<path fill="none" stroke="#63b8ff" d="M939.45,-209.52C931.56,-176.64 910.91,-110.38 867,-76 859.49,-70.12 850.43,-66.09 841.15,-63.33"/>
<polygon fill="#63b8ff" stroke="#63b8ff" points="936.04,-210.3 941.65,-219.29 942.87,-208.77 936.04,-210.3"/>
</a>
</g>
</g>
<!-- Node20 -->
<g id="Node000020" class="node">
<title>Node20</title>
<g id="a_Node000020"><a xlink:href="structpymoose_1_1VecLookupField.html#a4db6e59bbbf1bbb9abd0d8d046208291" target="_top" xlink:title=" ">
<polygon fill="white" stroke="#666666" points="857.5,-30 714.5,-30 714.5,0 857.5,0 857.5,-30"/>
<text text-anchor="start" x="722.5" y="-18" font-family="Ubuntu Mono" font-size="10.00">pymoose::VecLookupField</text>
<text text-anchor="middle" x="786" y="-7" font-family="Ubuntu Mono" font-size="10.00">::VecLookupField</text>
</a>
</g>
</g>
<!-- Node1&#45;&gt;Node20 -->
<g id="edge19_Node000001_Node000020" class="edge">
<title>Node1&#45;&gt;Node20</title>
<g id="a_edge19_Node000001_Node000020"><a xlink:title=" ">
<path fill="none" stroke="#63b8ff" d="M941.17,-209.11C935.6,-170.58 917.94,-85.49 867,-39 863.25,-35.58 859.03,-32.64 854.54,-30.13"/>
<polygon fill="#63b8ff" stroke="#63b8ff" points="937.76,-210.02 942.54,-219.48 944.7,-209.11 937.76,-210.02"/>
</a>
</g>
</g>
<!-- Node12 -->
<g id="Node000012" class="node">
<title>Node12</title>
<g id="a_Node000012"><a xlink:href="classFinfo.html#a064594ba24b2c27f32a7599f75326487" target="_top" xlink:title=" ">
<polygon fill="white" stroke="#666666" points="669,-86.5 581,-86.5 581,-67.5 669,-67.5 669,-86.5"/>
<text text-anchor="middle" x="625" y="-74.5" font-family="Ubuntu Mono" font-size="10.00">Finfo::initCinfo</text>
</a>
</g>
</g>
<!-- Node11&#45;&gt;Node12 -->
<g id="edge11_Node000011_Node000012" class="edge">
<title>Node11&#45;&gt;Node12</title>
<g id="a_edge11_Node000011_Node000012"><a xlink:title=" ">
<path fill="none" stroke="#63b8ff" d="M720.64,-65.69C703.27,-67.77 684.89,-69.96 669,-71.86"/>
<polygon fill="#63b8ff" stroke="#63b8ff" points="721.21,-69.15 730.73,-64.49 720.38,-62.2 721.21,-69.15"/>
</a>
</g>
</g>
<!-- Node19 -->
<g id="Node000019" class="node">
<title>Node19</title>
<g id="a_Node000019"><a xlink:href="testAsync_8cpp.html#a47b8501fa90ab1593656908581635d13" target="_top" xlink:title=" ">
<polygon fill="white" stroke="#666666" points="669,-49.5 581,-49.5 581,-30.5 669,-30.5 669,-49.5"/>
<text text-anchor="middle" x="625" y="-37.5" font-family="Ubuntu Mono" font-size="10.00">testFinfoFields</text>
</a>
</g>
</g>
<!-- Node11&#45;&gt;Node19 -->
<g id="edge18_Node000011_Node000019" class="edge">
<title>Node11&#45;&gt;Node19</title>
<g id="a_edge18_Node000011_Node000019"><a xlink:title=" ">
<path fill="none" stroke="#63b8ff" d="M720.64,-50.71C703.27,-48.75 684.89,-46.67 669,-44.87"/>
<polygon fill="#63b8ff" stroke="#63b8ff" points="720.4,-54.21 730.73,-51.86 721.18,-47.25 720.4,-54.21"/>
</a>
</g>
</g>
<!-- Node13 -->
<g id="Node000013" class="node">
<title>Node13</title>
<g id="a_Node000013"><a xlink:href="Cinfo_8cpp.html#a25b781c96b2ec955ad279a65bde0960e" target="_top" xlink:title=" ">
<polygon fill="white" stroke="#666666" points="545,-86.5 440,-86.5 440,-67.5 545,-67.5 545,-86.5"/>
<text text-anchor="middle" x="492.5" y="-74.5" font-family="Ubuntu Mono" font-size="10.00">buildFinfoElement</text>
</a>
</g>
</g>
<!-- Node12&#45;&gt;Node13 -->
<g id="edge12_Node000012_Node000013" class="edge">
<title>Node12&#45;&gt;Node13</title>
<g id="a_edge12_Node000012_Node000013"><a xlink:title=" ">
<path fill="none" stroke="#63b8ff" d="M570.77,-77C562.32,-77 553.59,-77 545.17,-77"/>
<polygon fill="#63b8ff" stroke="#63b8ff" points="570.91,-80.5 580.91,-77 570.91,-73.5 570.91,-80.5"/>
</a>
</g>
</g>
<!-- Node14 -->
<g id="Node000014" class="node">
<title>Node14</title>
<g id="a_Node000014"><a xlink:href="classCinfo.html#a5735ded022b359ea9253b98acdb63eed" target="_top" xlink:title=" ">
<polygon fill="white" stroke="#666666" points="404,-86.5 258,-86.5 258,-67.5 404,-67.5 404,-86.5"/>
<text text-anchor="middle" x="331" y="-74.5" font-family="Ubuntu Mono" font-size="10.00">Cinfo::makeCinfoElements</text>
</a>
</g>
</g>
<!-- Node13&#45;&gt;Node14 -->
<g id="edge13_Node000013_Node000014" class="edge">
<title>Node13&#45;&gt;Node14</title>
<g id="a_edge13_Node000013_Node000014"><a xlink:title=" ">
<path fill="none" stroke="#63b8ff" d="M429.66,-77C421.29,-77 412.64,-77 404.1,-77"/>
<polygon fill="#63b8ff" stroke="#63b8ff" points="429.71,-80.5 439.71,-77 429.71,-73.5 429.71,-80.5"/>
</a>
</g>
</g>
<!-- Node15 -->
<g id="Node000015" class="node">
<title>Node15</title>
<g id="a_Node000015"><a xlink:href="main_8cpp.html#a6e304b494f9a324f952d9f2033b2b136" target="_top" xlink:title=" ">
<polygon fill="white" stroke="#666666" points="184.5,-105.5 152.5,-105.5 152.5,-86.5 184.5,-86.5 184.5,-105.5"/>
<text text-anchor="middle" x="168.5" y="-93.5" font-family="Ubuntu Mono" font-size="10.00">init</text>
</a>
</g>
</g>
<!-- Node14&#45;&gt;Node15 -->
<g id="edge14_Node000014_Node000015" class="edge">
<title>Node14&#45;&gt;Node15</title>
<g id="a_edge14_Node000014_Node000015"><a xlink:title=" ">
<path fill="none" stroke="#63b8ff" d="M247.72,-86.74C223.49,-89.61 199.51,-92.45 184.61,-94.21"/>
<polygon fill="#63b8ff" stroke="#63b8ff" points="248.21,-90.21 257.73,-85.56 247.39,-83.26 248.21,-90.21"/>
</a>
</g>
</g>
<!-- Node17 -->
<g id="Node000017" class="node">
<title>Node17</title>
<g id="a_Node000017"><a xlink:href="namespacepymoose.html#ac084ce08f68367317e7c014c61520ac9" target="_top" xlink:title="Initialize shell object.">
<polygon fill="white" stroke="#666666" points="222,-68.5 115,-68.5 115,-49.5 222,-49.5 222,-68.5"/>
<text text-anchor="middle" x="168.5" y="-56.5" font-family="Ubuntu Mono" font-size="10.00">pymoose::initShell</text>
</a>
</g>
</g>
<!-- Node14&#45;&gt;Node17 -->
<g id="edge16_Node000014_Node000017" class="edge">
<title>Node14&#45;&gt;Node17</title>
<g id="a_edge16_Node000014_Node000017"><a xlink:title=" ">
<path fill="none" stroke="#63b8ff" d="M247.59,-67.76C238.94,-66.79 230.33,-65.82 222.15,-64.9"/>
<polygon fill="#63b8ff" stroke="#63b8ff" points="247.4,-71.26 257.73,-68.9 248.18,-64.3 247.4,-71.26"/>
</a>
</g>
</g>
<!-- Node16 -->
<g id="Node000016" class="node">
<title>Node16</title>
<g id="a_Node000016"><a xlink:href="main_8cpp.html#a3c04138a5bfe5d72780bb7e82a18e627" target="_top" xlink:title=" ">
<polygon fill="white" stroke="#666666" points="60,-105.5 19,-105.5 19,-86.5 60,-86.5 60,-105.5"/>
<text text-anchor="middle" x="39.5" y="-93.5" font-family="Ubuntu Mono" font-size="10.00">main</text>
</a>
</g>
</g>
<!-- Node15&#45;&gt;Node16 -->
<g id="edge15_Node000015_Node000016" class="edge">
<title>Node15&#45;&gt;Node16</title>
<g id="a_edge15_Node000015_Node000016"><a xlink:title=" ">
<path fill="none" stroke="#63b8ff" d="M142.26,-96C118.11,-96 82.19,-96 60.12,-96"/>
<polygon fill="#63b8ff" stroke="#63b8ff" points="142.43,-99.5 152.43,-96 142.43,-92.5 142.43,-99.5"/>
</a>
</g>
</g>
<!-- Node18 -->
<g id="Node000018" class="node">
<title>Node18</title>
<g id="a_Node000018"><a xlink:href="pymoose_8cpp.html#a8650e41c2375717fa66fb61a653d866e" target="_top" xlink:title=" ">
<polygon fill="white" stroke="#666666" points="79,-68.5 0,-68.5 0,-49.5 79,-49.5 79,-68.5"/>
<text text-anchor="middle" x="39.5" y="-56.5" font-family="Ubuntu Mono" font-size="10.00">NB_MODULE</text>
</a>
</g>
</g>
<!-- Node17&#45;&gt;Node18 -->
<g id="edge17_Node000017_Node000018" class="edge">
<title>Node17&#45;&gt;Node18</title>
<g id="a_edge17_Node000017_Node000018"><a xlink:title=" ">
<path fill="none" stroke="#63b8ff" d="M104.65,-59C96.02,-59 87.37,-59 79.34,-59"/>
<polygon fill="#63b8ff" stroke="#63b8ff" points="104.74,-62.5 114.74,-59 104.74,-55.5 104.74,-62.5"/>
</a>
</g>
</g>
</g>
</svg>

<g id="navigator" transform="translate(0 0)" fill="#404254">
  <rect fill="#f2f5e9" fill-opacity="0.5" stroke="#606060" stroke-width=".5" x="0" y="0" width="60" height="60"/>
  <use id="zoomplus" xlink:href="#zoomPlus" x="17" y="9" onmousedown="handleZoom(evt,'in')"/>
  <use id="zoomminus" xlink:href="#zoomMin" x="42" y="9" onmousedown="handleZoom(evt,'out')"/>
  <use id="reset" xlink:href="#resetDef" x="30" y="36" onmousedown="handleReset()"/>
   <use id="arrowup" xlink:href="#arrowUp" x="0" y="0" onmousedown="handlePan(0,-1)"/>
  <use id="arrowright" xlink:href="#arrowRight" x="0" y="0" onmousedown="handlePan(1,0)"/>
  <use id="arrowdown" xlink:href="#arrowDown" x="0" y="0" onmousedown="handlePan(0,1)"/>
  <use id="arrowleft" xlink:href="#arrowLeft" x="0" y="0" onmousedown="handlePan(-1,0)"/>
</g>
<svg viewBox="0 0 15 15" width="100%" height="30px" preserveAspectRatio="xMaxYMin meet">
 <g id="arrow_out" transform="scale(0.3 0.3)">
  <a xlink:href="classFinfo_aead9ffc3d851ba7ee6ebdb954fc2b7e2_icgraph_org.svg" target="_base">
   <rect id="button" ry="5" rx="5" y="6" x="6" height="38" width="38"
        fill="#f2f5e9" fill-opacity="0.5" stroke="#606060" stroke-width="1.0"/>
   <path id="arrow"
     d="M 11.500037,31.436501 C 11.940474,20.09759 22.043105,11.32322 32.158766,21.979434 L 37.068811,17.246167 C 37.068811,17.246167 37.088388,32 37.088388,32 L 22.160133,31.978069 C 22.160133,31.978069 26.997745,27.140456 26.997745,27.140456 C 18.528582,18.264221 13.291696,25.230495 11.500037,31.436501 z"
     style="fill:#404040;"/>
  </a>
 </g>
</svg>

<style type='text/css'>
<![CDATA[
[data-mouse-over-selected='false'] { opacity: 0.7; }
[data-mouse-over-selected='true']  { opacity: 1.0; }
]]>
</style>
<script type="application/ecmascript"><![CDATA[
document.addEventListener('DOMContentLoaded', (event) => {
  highlightEdges();
  highlightAdjacentNodes();
});
]]></script>
</svg>
