<?xml version="1.0" encoding="UTF-8" standalone="no"?>
<!DOCTYPE svg PUBLIC "-//W3C//DTD SVG 1.1//EN"
 "http://www.w3.org/Graphics/SVG/1.1/DTD/svg11.dtd">
<!-- Generated by graphviz version 2.43.0 (0)
 -->
<!-- Title: SpineMesh::buildStencil Pages: 1 -->
<svg width="662pt" height="27pt"
 viewBox="0.00 0.00 662.00 27.00" xmlns="http://www.w3.org/2000/svg" xmlns:xlink="http://www.w3.org/1999/xlink">
<g id="graph0" class="graph" transform="scale(1 1) rotate(0) translate(4 23)">
<title>SpineMesh::buildStencil</title>
<!-- Node1 -->
<g id="Node000001" class="node">
<title>Node1</title>
<g id="a_Node000001"><a xlink:title=" ">
<polygon fill="#999999" stroke="#666666" points="654,-19 521,-19 521,0 654,0 654,-19"/>
<text text-anchor="middle" x="587.5" y="-7" font-family="Ubuntu Mono" font-size="10.00">SpineMesh::buildStencil</text>
</a>
</g>
</g>
<!-- Node2 -->
<g id="Node000002" class="node">
<title>Node2</title>
<g id="a_Node000002"><a xlink:href="classSpineMesh.html#a818ef676dfb6213dc8c232d9734822f3" target="_top" xlink:title=" ">
<polygon fill="white" stroke="#666666" points="485,-19 342,-19 342,0 485,0 485,-19"/>
<text text-anchor="middle" x="413.5" y="-7" font-family="Ubuntu Mono" font-size="10.00">SpineMesh::updateCoords</text>
</a>
</g>
</g>
<!-- Node1&#45;&gt;Node2 -->
<g id="edge1_Node000001_Node000002" class="edge">
<title>Node1&#45;&gt;Node2</title>
<g id="a_edge1_Node000001_Node000002"><a xlink:title=" ">
<path fill="none" stroke="#63b8ff" d="M510.75,-9.5C502.28,-9.5 493.68,-9.5 485.28,-9.5"/>
<polygon fill="#63b8ff" stroke="#63b8ff" points="510.98,-13 520.98,-9.5 510.98,-6 510.98,-13"/>
</a>
</g>
</g>
<!-- Node3 -->
<g id="Node000003" class="node">
<title>Node3</title>
<g id="a_Node000003"><a xlink:href="classSpineMesh.html#abf7db6994f920d5966037928321fe3c5" target="_top" xlink:title=" ">
<polygon fill="white" stroke="#666666" points="306,-19 153,-19 153,0 306,0 306,-19"/>
<text text-anchor="middle" x="229.5" y="-7" font-family="Ubuntu Mono" font-size="10.00">SpineMesh::handleSpineList</text>
</a>
</g>
</g>
<!-- Node2&#45;&gt;Node3 -->
<g id="edge2_Node000002_Node000003" class="edge">
<title>Node2&#45;&gt;Node3</title>
<g id="a_edge2_Node000002_Node000003"><a xlink:title=" ">
<path fill="none" stroke="#63b8ff" d="M331.64,-9.5C323.18,-9.5 314.61,-9.5 306.21,-9.5"/>
<polygon fill="#63b8ff" stroke="#63b8ff" points="331.87,-13 341.87,-9.5 331.87,-6 331.87,-13"/>
</a>
</g>
</g>
<!-- Node4 -->
<g id="Node000004" class="node">
<title>Node4</title>
<g id="a_Node000004"><a xlink:href="classSpineMesh.html#ae7bb51c2e7cf67fe3df6881eb256c4f4" target="_top" xlink:title=" ">
<polygon fill="white" stroke="#666666" points="117,-19 0,-19 0,0 117,0 117,-19"/>
<text text-anchor="middle" x="58.5" y="-7" font-family="Ubuntu Mono" font-size="10.00">SpineMesh::initCinfo</text>
</a>
</g>
</g>
<!-- Node3&#45;&gt;Node4 -->
<g id="edge3_Node000003_Node000004" class="edge">
<title>Node3&#45;&gt;Node4</title>
<g id="a_edge3_Node000003_Node000004"><a xlink:title=" ">
<path fill="none" stroke="#63b8ff" d="M142.7,-9.5C134.01,-9.5 125.33,-9.5 117.04,-9.5"/>
<polygon fill="#63b8ff" stroke="#63b8ff" points="142.9,-13 152.9,-9.5 142.9,-6 142.9,-13"/>
</a>
</g>
</g>
</g>
</svg>
