<?xml version="1.0" encoding="UTF-8" standalone="no"?>
<!DOCTYPE svg PUBLIC "-//W3C//DTD SVG 1.1//EN"
 "http://www.w3.org/Graphics/SVG/1.1/DTD/svg11.dtd">
<!-- Generated by graphviz version 2.43.0 (0)
 -->
<!-- Title: ReadOnlyLookupElementValueFinfo&lt; T, L, F &gt; Pages: 1 -->
<svg width="270pt" height="672pt"
 viewBox="0.00 0.00 270.00 672.00" xmlns="http://www.w3.org/2000/svg" xmlns:xlink="http://www.w3.org/1999/xlink">
<g id="graph0" class="graph" transform="scale(1 1) rotate(0) translate(4 668)">
<title>ReadOnlyLookupElementValueFinfo&lt; T, L, F &gt;</title>
<!-- Node1 -->
<g id="Node000001" class="node">
<title>Node1</title>
<g id="a_Node000001"><a xlink:title=" ">
<polygon fill="#999999" stroke="transparent" points="231,-157 52,-157 52,0 231,0 231,-157"/>
<text text-anchor="start" x="67" y="-144.5" font-family="Ubuntu Mono" font-size="10.00">ReadOnlyLookupElementValue</text>
<text text-anchor="start" x="104" y="-133.5" font-family="Ubuntu Mono" font-size="10.00">Finfo&lt; T, L, F &gt;</text>
<text text-anchor="start" x="140" y="-118.5" font-family="Ubuntu Mono" font-size="10.00"> </text>
<text text-anchor="start" x="56.5" y="-103.5" font-family="Ubuntu Mono" font-size="10.00">+</text>
<text text-anchor="start" x="69.5" y="-103.5" font-family="Ubuntu Mono" font-size="10.00">ReadOnlyLookupElementValue</text>
<text text-anchor="start" x="69.5" y="-92.5" font-family="Ubuntu Mono" font-size="10.00">Finfo()</text>
<text text-anchor="start" x="56.5" y="-77.5" font-family="Ubuntu Mono" font-size="10.00">+</text>
<text text-anchor="start" x="69.5" y="-77.5" font-family="Ubuntu Mono" font-size="10.00">registerFinfo()</text>
<text text-anchor="start" x="56.5" y="-62.5" font-family="Ubuntu Mono" font-size="10.00">+</text>
<text text-anchor="start" x="69.5" y="-62.5" font-family="Ubuntu Mono" font-size="10.00">rttiType()</text>
<text text-anchor="start" x="56.5" y="-47.5" font-family="Ubuntu Mono" font-size="10.00">+</text>
<text text-anchor="start" x="69.5" y="-47.5" font-family="Ubuntu Mono" font-size="10.00">strGet()</text>
<text text-anchor="start" x="56.5" y="-32.5" font-family="Ubuntu Mono" font-size="10.00">+</text>
<text text-anchor="start" x="69.5" y="-32.5" font-family="Ubuntu Mono" font-size="10.00">strSet()</text>
<text text-anchor="start" x="56.5" y="-17.5" font-family="Ubuntu Mono" font-size="10.00">+</text>
<text text-anchor="start" x="69.5" y="-17.5" font-family="Ubuntu Mono" font-size="10.00">~ReadOnlyLookupElementValue</text>
<text text-anchor="start" x="69.5" y="-6.5" font-family="Ubuntu Mono" font-size="10.00">Finfo()</text>
<polygon fill="#666666" stroke="#666666" points="52.5,-128.5 52.5,-128.5 231.5,-128.5 231.5,-128.5 52.5,-128.5"/>
<polygon fill="#666666" stroke="#666666" points="52.5,-113.5 52.5,-113.5 231.5,-113.5 231.5,-113.5 52.5,-113.5"/>
<polygon fill="none" stroke="#666666" points="52,0 52,-157 231,-157 231,0 52,0"/>
</a>
</g>
</g>
<!-- Node2 -->
<g id="Node000002" class="node">
<title>Node2</title>
<g id="a_Node000002"><a xlink:href="classLookupValueFinfoBase.html" target="_top" xlink:title=" ">
<polygon fill="white" stroke="transparent" points="147,-313 0,-313 0,-249 147,-249 147,-313"/>
<text text-anchor="start" x="19" y="-301" font-family="Ubuntu Mono" font-size="10.00">LookupValueFinfoBase</text>
<text text-anchor="start" x="72" y="-286" font-family="Ubuntu Mono" font-size="10.00"> </text>
<text text-anchor="start" x="4.5" y="-271" font-family="Ubuntu Mono" font-size="10.00">+</text>
<text text-anchor="start" x="17.5" y="-271" font-family="Ubuntu Mono" font-size="10.00">LookupValueFinfoBase()</text>
<text text-anchor="start" x="4.5" y="-256" font-family="Ubuntu Mono" font-size="10.00">+</text>
<text text-anchor="start" x="17.5" y="-256" font-family="Ubuntu Mono" font-size="10.00">~LookupValueFinfoBase()</text>
<polygon fill="#666666" stroke="#666666" points="0.5,-296 0.5,-296 147.5,-296 147.5,-296 0.5,-296"/>
<polygon fill="#666666" stroke="#666666" points="0.5,-281 0.5,-281 147.5,-281 147.5,-281 0.5,-281"/>
<polygon fill="none" stroke="#666666" points="0,-249 0,-313 147,-313 147,-249 0,-249"/>
</a>
</g>
</g>
<!-- Node2&#45;&gt;Node1 -->
<g id="edge1_Node000001_Node000002" class="edge">
<title>Node2&#45;&gt;Node1</title>
<g id="a_edge1_Node000001_Node000002"><a xlink:title=" ">
<path fill="none" stroke="#63b8ff" d="M87.39,-239.03C95.37,-215.51 105.66,-185.19 115.11,-157.31"/>
<polygon fill="none" stroke="#63b8ff" points="84.02,-238.08 84.12,-248.67 90.65,-240.33 84.02,-238.08"/>
</a>
</g>
</g>
<!-- Node3 -->
<g id="Node000003" class="node">
<title>Node3</title>
<g id="a_Node000003"><a xlink:href="classFinfo.html" target="_top" xlink:title=" ">
<polygon fill="white" stroke="transparent" points="138.5,-664 24.5,-664 24.5,-405 138.5,-405 138.5,-664"/>
<text text-anchor="start" x="69" y="-651.5" font-family="Ubuntu Mono" font-size="10.00">Finfo</text>
<text text-anchor="start" x="31" y="-636.5" font-family="Ubuntu Mono" font-size="10.00">&#45;</text>
<text text-anchor="start" x="41.5" y="-636.5" font-family="Ubuntu Mono" font-size="10.00">doc_</text>
<text text-anchor="start" x="31" y="-621.5" font-family="Ubuntu Mono" font-size="10.00">&#45;</text>
<text text-anchor="start" x="41.5" y="-621.5" font-family="Ubuntu Mono" font-size="10.00">name_</text>
<text text-anchor="start" x="28.5" y="-606.5" font-family="Ubuntu Mono" font-size="10.00">+</text>
<text text-anchor="start" x="41.5" y="-606.5" font-family="Ubuntu Mono" font-size="10.00">addMsg()</text>
<text text-anchor="start" x="28.5" y="-591.5" font-family="Ubuntu Mono" font-size="10.00">+</text>
<text text-anchor="start" x="41.5" y="-591.5" font-family="Ubuntu Mono" font-size="10.00">checkTarget()</text>
<text text-anchor="start" x="28.5" y="-576.5" font-family="Ubuntu Mono" font-size="10.00">+</text>
<text text-anchor="start" x="41.5" y="-576.5" font-family="Ubuntu Mono" font-size="10.00">docs()</text>
<text text-anchor="start" x="28.5" y="-561.5" font-family="Ubuntu Mono" font-size="10.00">+</text>
<text text-anchor="start" x="41.5" y="-561.5" font-family="Ubuntu Mono" font-size="10.00">Finfo()</text>
<text text-anchor="start" x="28.5" y="-546.5" font-family="Ubuntu Mono" font-size="10.00">+</text>
<text text-anchor="start" x="41.5" y="-546.5" font-family="Ubuntu Mono" font-size="10.00">innerDest()</text>
<text text-anchor="start" x="28.5" y="-531.5" font-family="Ubuntu Mono" font-size="10.00">+</text>
<text text-anchor="start" x="41.5" y="-531.5" font-family="Ubuntu Mono" font-size="10.00">innerSrc()</text>
<text text-anchor="start" x="28.5" y="-516.5" font-family="Ubuntu Mono" font-size="10.00">+</text>
<text text-anchor="start" x="41.5" y="-516.5" font-family="Ubuntu Mono" font-size="10.00">name()</text>
<text text-anchor="start" x="28.5" y="-501.5" font-family="Ubuntu Mono" font-size="10.00">+</text>
<text text-anchor="start" x="41.5" y="-501.5" font-family="Ubuntu Mono" font-size="10.00">postCreationFunc()</text>
<text text-anchor="start" x="28.5" y="-486.5" font-family="Ubuntu Mono" font-size="10.00">+</text>
<text text-anchor="start" x="41.5" y="-486.5" font-family="Ubuntu Mono" font-size="10.00">registerFinfo()</text>
<text text-anchor="start" x="28.5" y="-471.5" font-family="Ubuntu Mono" font-size="10.00">+</text>
<text text-anchor="start" x="41.5" y="-471.5" font-family="Ubuntu Mono" font-size="10.00">rttiType()</text>
<text text-anchor="start" x="28.5" y="-456.5" font-family="Ubuntu Mono" font-size="10.00">+</text>
<text text-anchor="start" x="41.5" y="-456.5" font-family="Ubuntu Mono" font-size="10.00">strGet()</text>
<text text-anchor="start" x="28.5" y="-441.5" font-family="Ubuntu Mono" font-size="10.00">+</text>
<text text-anchor="start" x="41.5" y="-441.5" font-family="Ubuntu Mono" font-size="10.00">strSet()</text>
<text text-anchor="start" x="28.5" y="-426.5" font-family="Ubuntu Mono" font-size="10.00">+</text>
<text text-anchor="start" x="41.5" y="-426.5" font-family="Ubuntu Mono" font-size="10.00">~Finfo()</text>
<text text-anchor="start" x="28.5" y="-411.5" font-family="Ubuntu Mono" font-size="10.00">+</text>
<text text-anchor="start" x="41.5" y="-411.5" font-family="Ubuntu Mono" font-size="10.00">initCinfo()</text>
<polygon fill="#666666" stroke="#666666" points="24.5,-646.5 24.5,-646.5 138.5,-646.5 138.5,-646.5 24.5,-646.5"/>
<polygon fill="#666666" stroke="#666666" points="24.5,-616.5 24.5,-616.5 39.5,-616.5 39.5,-616.5 24.5,-616.5"/>
<polygon fill="#666666" stroke="#666666" points="39.5,-616.5 39.5,-616.5 138.5,-616.5 138.5,-616.5 39.5,-616.5"/>
<polygon fill="none" stroke="#666666" points="24.5,-405 24.5,-664 138.5,-664 138.5,-405 24.5,-405"/>
</a>
</g>
</g>
<!-- Node3&#45;&gt;Node2 -->
<g id="edge2_Node000002_Node000003" class="edge">
<title>Node3&#45;&gt;Node2</title>
<g id="a_edge2_Node000002_Node000003"><a xlink:title=" ">
<path fill="none" stroke="#63b8ff" d="M77.08,-394.44C76.11,-363.96 75.17,-334.54 74.5,-313.45"/>
<polygon fill="none" stroke="#63b8ff" points="73.59,-394.92 77.41,-404.8 80.59,-394.7 73.59,-394.92"/>
</a>
</g>
</g>
<!-- Node4 -->
<g id="Node000004" class="node">
<title>Node4</title>
<g id="a_Node000004"><a xlink:href="classDestFinfo.html" target="_top" xlink:title=" ">
<polygon fill="white" stroke="transparent" points="256,-358 165,-358 165,-204 256,-204 256,-358"/>
<text text-anchor="start" x="187.5" y="-346" font-family="Ubuntu Mono" font-size="10.00">DestFinfo</text>
<text text-anchor="start" x="172" y="-331" font-family="Ubuntu Mono" font-size="10.00">&#45;</text>
<text text-anchor="start" x="182.5" y="-331" font-family="Ubuntu Mono" font-size="10.00">fid_</text>
<text text-anchor="start" x="169.5" y="-316" font-family="Ubuntu Mono" font-size="10.00">+</text>
<text text-anchor="start" x="182.5" y="-316" font-family="Ubuntu Mono" font-size="10.00">DestFinfo()</text>
<text text-anchor="start" x="169.5" y="-301" font-family="Ubuntu Mono" font-size="10.00">+</text>
<text text-anchor="start" x="182.5" y="-301" font-family="Ubuntu Mono" font-size="10.00">getFid()</text>
<text text-anchor="start" x="169.5" y="-286" font-family="Ubuntu Mono" font-size="10.00">+</text>
<text text-anchor="start" x="182.5" y="-286" font-family="Ubuntu Mono" font-size="10.00">getOpFunc()</text>
<text text-anchor="start" x="169.5" y="-271" font-family="Ubuntu Mono" font-size="10.00">+</text>
<text text-anchor="start" x="182.5" y="-271" font-family="Ubuntu Mono" font-size="10.00">registerFinfo()</text>
<text text-anchor="start" x="169.5" y="-256" font-family="Ubuntu Mono" font-size="10.00">+</text>
<text text-anchor="start" x="182.5" y="-256" font-family="Ubuntu Mono" font-size="10.00">rttiType()</text>
<text text-anchor="start" x="169.5" y="-241" font-family="Ubuntu Mono" font-size="10.00">+</text>
<text text-anchor="start" x="182.5" y="-241" font-family="Ubuntu Mono" font-size="10.00">strGet()</text>
<text text-anchor="start" x="169.5" y="-226" font-family="Ubuntu Mono" font-size="10.00">+</text>
<text text-anchor="start" x="182.5" y="-226" font-family="Ubuntu Mono" font-size="10.00">strSet()</text>
<text text-anchor="start" x="169.5" y="-211" font-family="Ubuntu Mono" font-size="10.00">+</text>
<text text-anchor="start" x="182.5" y="-211" font-family="Ubuntu Mono" font-size="10.00">~DestFinfo()</text>
<polygon fill="#666666" stroke="#666666" points="165.5,-341 165.5,-341 256.5,-341 256.5,-341 165.5,-341"/>
<polygon fill="#666666" stroke="#666666" points="165.5,-326 165.5,-326 180.5,-326 180.5,-326 165.5,-326"/>
<polygon fill="#666666" stroke="#666666" points="180.5,-326 180.5,-326 256.5,-326 256.5,-326 180.5,-326"/>
<polygon fill="none" stroke="#666666" points="165,-204 165,-358 256,-358 256,-204 165,-204"/>
</a>
</g>
</g>
<!-- Node3&#45;&gt;Node4 -->
<g id="edge4_Node000004_Node000003" class="edge">
<title>Node3&#45;&gt;Node4</title>
<g id="a_edge4_Node000004_Node000003"><a xlink:title=" ">
<path fill="none" stroke="#63b8ff" d="M143.32,-412.97C152.87,-394.36 162.49,-375.6 171.36,-358.31"/>
<polygon fill="none" stroke="#63b8ff" points="140.09,-411.59 138.64,-422.09 146.32,-414.79 140.09,-411.59"/>
</a>
</g>
</g>
<!-- Node4&#45;&gt;Node1 -->
<g id="edge3_Node000001_Node000004" class="edge">
<title>Node4&#45;&gt;Node1</title>
<g id="a_edge3_Node000001_Node000004"><a xlink:title=" ">
<path fill="none" stroke="#63b8ff" d="M184.32,-203.91C180.37,-192.45 176.27,-180.53 172.24,-168.82"/>
<polygon fill="none" stroke="#63b8ff" points="172.14,-168.55 166.41,-164.17 168.24,-157.2 173.97,-161.57 172.14,-168.55"/>
</a>
</g>
<text text-anchor="middle" x="192.5" y="-178" font-family="Ubuntu Mono" font-size="10.00" fill="grey"> &#45;get_</text>
</g>
<!-- Node5 -->
<g id="Node000005" class="node">
<title>Node5</title>
<g id="a_Node000005"><a xlink:href="classOpFunc.html" target="_top" xlink:title=" ">
<polygon fill="white" stroke="transparent" points="262,-641.5 159,-641.5 159,-427.5 262,-427.5 262,-641.5"/>
<text text-anchor="start" x="192.5" y="-629.5" font-family="Ubuntu Mono" font-size="10.00">OpFunc</text>
<text text-anchor="start" x="166" y="-614.5" font-family="Ubuntu Mono" font-size="10.00">&#45;</text>
<text text-anchor="start" x="176.5" y="-614.5" font-family="Ubuntu Mono" font-size="10.00">opIndex_</text>
<text text-anchor="start" x="163.5" y="-599.5" font-family="Ubuntu Mono" font-size="10.00">+</text>
<text text-anchor="start" x="176.5" y="-599.5" font-family="Ubuntu Mono" font-size="10.00">checkFinfo()</text>
<text text-anchor="start" x="163.5" y="-584.5" font-family="Ubuntu Mono" font-size="10.00">+</text>
<text text-anchor="start" x="176.5" y="-584.5" font-family="Ubuntu Mono" font-size="10.00">makeHopFunc()</text>
<text text-anchor="start" x="163.5" y="-569.5" font-family="Ubuntu Mono" font-size="10.00">+</text>
<text text-anchor="start" x="176.5" y="-569.5" font-family="Ubuntu Mono" font-size="10.00">opBuffer()</text>
<text text-anchor="start" x="163.5" y="-554.5" font-family="Ubuntu Mono" font-size="10.00">+</text>
<text text-anchor="start" x="176.5" y="-554.5" font-family="Ubuntu Mono" font-size="10.00">OpFunc()</text>
<text text-anchor="start" x="163.5" y="-539.5" font-family="Ubuntu Mono" font-size="10.00">+</text>
<text text-anchor="start" x="176.5" y="-539.5" font-family="Ubuntu Mono" font-size="10.00">opIndex()</text>
<text text-anchor="start" x="163.5" y="-524.5" font-family="Ubuntu Mono" font-size="10.00">+</text>
<text text-anchor="start" x="176.5" y="-524.5" font-family="Ubuntu Mono" font-size="10.00">opVecBuffer()</text>
<text text-anchor="start" x="163.5" y="-509.5" font-family="Ubuntu Mono" font-size="10.00">+</text>
<text text-anchor="start" x="176.5" y="-509.5" font-family="Ubuntu Mono" font-size="10.00">rttiType()</text>
<text text-anchor="start" x="163.5" y="-494.5" font-family="Ubuntu Mono" font-size="10.00">+</text>
<text text-anchor="start" x="176.5" y="-494.5" font-family="Ubuntu Mono" font-size="10.00">setIndex()</text>
<text text-anchor="start" x="163.5" y="-479.5" font-family="Ubuntu Mono" font-size="10.00">+</text>
<text text-anchor="start" x="176.5" y="-479.5" font-family="Ubuntu Mono" font-size="10.00">~OpFunc()</text>
<text text-anchor="start" x="163.5" y="-464.5" font-family="Ubuntu Mono" font-size="10.00">+</text>
<text text-anchor="start" x="176.5" y="-464.5" font-family="Ubuntu Mono" font-size="10.00">lookop()</text>
<text text-anchor="start" x="163.5" y="-449.5" font-family="Ubuntu Mono" font-size="10.00">+</text>
<text text-anchor="start" x="176.5" y="-449.5" font-family="Ubuntu Mono" font-size="10.00">rebuildOpIndex()</text>
<text text-anchor="start" x="166" y="-434.5" font-family="Ubuntu Mono" font-size="10.00">&#45;</text>
<text text-anchor="start" x="176.5" y="-434.5" font-family="Ubuntu Mono" font-size="10.00">ops()</text>
<polygon fill="#666666" stroke="#666666" points="159.5,-624.5 159.5,-624.5 262.5,-624.5 262.5,-624.5 159.5,-624.5"/>
<polygon fill="#666666" stroke="#666666" points="159.5,-609.5 159.5,-609.5 174.5,-609.5 174.5,-609.5 159.5,-609.5"/>
<polygon fill="#666666" stroke="#666666" points="174.5,-609.5 174.5,-609.5 262.5,-609.5 262.5,-609.5 174.5,-609.5"/>
<polygon fill="none" stroke="#666666" points="159,-427.5 159,-641.5 262,-641.5 262,-427.5 159,-427.5"/>
</a>
</g>
</g>
<!-- Node5&#45;&gt;Node4 -->
<g id="edge5_Node000004_Node000005" class="edge">
<title>Node5&#45;&gt;Node4</title>
<g id="a_edge5_Node000004_Node000005"><a xlink:title=" ">
<path fill="none" stroke="#63b8ff" d="M210.5,-427.21C210.5,-408.27 210.5,-388.73 210.5,-370.37"/>
<polygon fill="none" stroke="#63b8ff" points="210.5,-370.17 206.5,-364.17 210.5,-358.17 214.5,-364.17 210.5,-370.17"/>
</a>
</g>
<text text-anchor="middle" x="227.5" y="-379" font-family="Ubuntu Mono" font-size="10.00" fill="grey"> &#45;func_</text>
</g>
</g>
</svg>
