<?xml version="1.0" encoding="UTF-8" standalone="no"?>
<!DOCTYPE svg PUBLIC "-//W3C//DTD SVG 1.1//EN"
 "http://www.w3.org/Graphics/SVG/1.1/DTD/svg11.dtd">
<!-- Generated by graphviz version 2.43.0 (0)
 -->
<!-- Title: SpineEntry::positionShaftBase Pages: 1 -->
<svg width="291pt" height="212pt"
 viewBox="0.00 0.00 291.00 212.00" xmlns="http://www.w3.org/2000/svg" xmlns:xlink="http://www.w3.org/1999/xlink">

<svg id="main" version="1.1" xmlns="http://www.w3.org/2000/svg" xmlns:xlink="http://www.w3.org/1999/xlink" xml:space="preserve" onload="init(evt)">
<style type="text/css"><![CDATA[
.node, .edge {opacity: 0.7;}
.node.selected, .edge.selected {opacity: 1;}
.edge:hover path { stroke: red; }
.edge:hover polygon { stroke: red; fill: red; }
]]></style>
<script type="application/ecmascript" xlink:href="svg.min.js"/>
<svg id="graph" class="graph">
<g id="graph0" class="graph" transform="scale(1 1) rotate(0) translate(4 208)">
<title>SpineEntry::positionShaftBase</title>
<!-- Node1 -->
<g id="Node000001" class="node">
<title>Node1</title>
<g id="a_Node000001"><a xlink:title=" ">
<polygon fill="#999999" stroke="#666666" points="162,-111 0,-111 0,-92 162,-92 162,-111"/>
<text text-anchor="middle" x="81" y="-99" font-family="Ubuntu Mono" font-size="10.00">SpineEntry::positionShaftBase</text>
</a>
</g>
</g>
<!-- Node2 -->
<g id="Node000002" class="node">
<title>Node2</title>
<g id="a_Node000002"><a xlink:href="classCylBase.html#af491e3aed441f4ff3ef112346d644ae7" target="_top" xlink:title=" ">
<polygon fill="white" stroke="#666666" points="283,-204 198,-204 198,-185 283,-185 283,-204"/>
<text text-anchor="middle" x="240.5" y="-192" font-family="Ubuntu Mono" font-size="10.00">CylBase::getX</text>
</a>
</g>
</g>
<!-- Node1&#45;&gt;Node2 -->
<g id="edge1_Node000001_Node000002" class="edge">
<title>Node1&#45;&gt;Node2</title>
<g id="a_edge1_Node000001_Node000002"><a xlink:title=" ">
<path fill="none" stroke="#63b8ff" d="M95.13,-111.02C116.19,-126.04 159.1,-155.67 198,-176.5 200.68,-177.94 203.5,-179.35 206.36,-180.72"/>
<polygon fill="#63b8ff" stroke="#63b8ff" points="204.93,-183.91 215.48,-184.88 207.84,-177.54 204.93,-183.91"/>
</a>
</g>
</g>
<!-- Node3 -->
<g id="Node000003" class="node">
<title>Node3</title>
<g id="a_Node000003"><a xlink:href="classCylBase.html#a6f27ed9266877bd74a114d8dcd133ef1" target="_top" xlink:title=" ">
<polygon fill="white" stroke="#666666" points="282.5,-167 198.5,-167 198.5,-148 282.5,-148 282.5,-167"/>
<text text-anchor="middle" x="240.5" y="-155" font-family="Ubuntu Mono" font-size="10.00">CylBase::getY</text>
</a>
</g>
</g>
<!-- Node1&#45;&gt;Node3 -->
<g id="edge2_Node000001_Node000003" class="edge">
<title>Node1&#45;&gt;Node3</title>
<g id="a_edge2_Node000001_Node000003"><a xlink:title=" ">
<path fill="none" stroke="#63b8ff" d="M109.08,-111.13C135.04,-120.36 174.42,-134.36 203.11,-144.56"/>
<polygon fill="#63b8ff" stroke="#63b8ff" points="202.18,-147.95 212.78,-148 204.53,-141.35 202.18,-147.95"/>
</a>
</g>
</g>
<!-- Node4 -->
<g id="Node000004" class="node">
<title>Node4</title>
<g id="a_Node000004"><a xlink:href="classCylBase.html#af7d5df757eec9e32d3d1f8d6d738e2bc" target="_top" xlink:title=" ">
<polygon fill="white" stroke="#666666" points="283,-130 198,-130 198,-111 283,-111 283,-130"/>
<text text-anchor="middle" x="240.5" y="-118" font-family="Ubuntu Mono" font-size="10.00">CylBase::getZ</text>
</a>
</g>
</g>
<!-- Node1&#45;&gt;Node4 -->
<g id="edge3_Node000001_Node000004" class="edge">
<title>Node1&#45;&gt;Node4</title>
<g id="a_edge3_Node000001_Node000004"><a xlink:title=" ">
<path fill="none" stroke="#63b8ff" d="M161.21,-111.06C170.25,-112.15 179.28,-113.24 187.83,-114.27"/>
<polygon fill="#63b8ff" stroke="#63b8ff" points="187.64,-117.77 197.99,-115.49 188.48,-110.82 187.64,-117.77"/>
</a>
</g>
</g>
<!-- Node5 -->
<g id="Node000005" class="node">
<title>Node5</title>
<g id="a_Node000005"><a xlink:href="classCylBase.html#aa9eba2525f9f0fcfa8ddc728402c5445" target="_top" xlink:title=" ">
<polygon fill="white" stroke="#666666" points="282.5,-93 198.5,-93 198.5,-74 282.5,-74 282.5,-93"/>
<text text-anchor="middle" x="240.5" y="-81" font-family="Ubuntu Mono" font-size="10.00">CylBase::setX</text>
</a>
</g>
</g>
<!-- Node1&#45;&gt;Node5 -->
<g id="edge4_Node000001_Node000005" class="edge">
<title>Node1&#45;&gt;Node5</title>
<g id="a_edge4_Node000001_Node000005"><a xlink:title=" ">
<path fill="none" stroke="#63b8ff" d="M162.13,-92.34C170.99,-91.33 179.83,-90.32 188.2,-89.36"/>
<polygon fill="#63b8ff" stroke="#63b8ff" points="188.6,-92.84 198.13,-88.23 187.8,-85.89 188.6,-92.84"/>
</a>
</g>
</g>
<!-- Node6 -->
<g id="Node000006" class="node">
<title>Node6</title>
<g id="a_Node000006"><a xlink:href="classCylBase.html#aa64b2e772df3c8180853ceb9998bf335" target="_top" xlink:title=" ">
<polygon fill="white" stroke="#666666" points="282,-56 199,-56 199,-37 282,-37 282,-56"/>
<text text-anchor="middle" x="240.5" y="-44" font-family="Ubuntu Mono" font-size="10.00">CylBase::setY</text>
</a>
</g>
</g>
<!-- Node1&#45;&gt;Node6 -->
<g id="edge5_Node000001_Node000006" class="edge">
<title>Node1&#45;&gt;Node6</title>
<g id="a_edge5_Node000001_Node000006"><a xlink:title=" ">
<path fill="none" stroke="#63b8ff" d="M109.43,-91.92C135.21,-82.92 173.99,-69.38 202.5,-59.42"/>
<polygon fill="#63b8ff" stroke="#63b8ff" points="203.83,-62.66 212.12,-56.06 201.52,-56.06 203.83,-62.66"/>
</a>
</g>
</g>
<!-- Node7 -->
<g id="Node000007" class="node">
<title>Node7</title>
<g id="a_Node000007"><a xlink:href="classCylBase.html#a7e32f372d601f29f92fcb86a74028188" target="_top" xlink:title=" ">
<polygon fill="white" stroke="#666666" points="282.5,-19 198.5,-19 198.5,0 282.5,0 282.5,-19"/>
<text text-anchor="middle" x="240.5" y="-7" font-family="Ubuntu Mono" font-size="10.00">CylBase::setZ</text>
</a>
</g>
</g>
<!-- Node1&#45;&gt;Node7 -->
<g id="edge6_Node000001_Node000007" class="edge">
<title>Node1&#45;&gt;Node7</title>
<g id="a_edge6_Node000001_Node000007"><a xlink:title=" ">
<path fill="none" stroke="#63b8ff" d="M95.92,-91.89C117.34,-77.3 159.9,-49.09 198,-28.5 201.26,-26.74 204.71,-24.99 208.18,-23.3"/>
<polygon fill="#63b8ff" stroke="#63b8ff" points="209.71,-26.45 217.27,-19.02 206.73,-20.11 209.71,-26.45"/>
</a>
</g>
</g>
</g>
</svg>
</svg>

<style type='text/css'>
<![CDATA[
[data-mouse-over-selected='false'] { opacity: 0.7; }
[data-mouse-over-selected='true']  { opacity: 1.0; }
]]>
</style>
<script type="application/ecmascript"><![CDATA[
document.addEventListener('DOMContentLoaded', (event) => {
  highlightEdges();
  highlightAdjacentNodes();
});
]]></script>
</svg>
