<?xml version="1.0" encoding="UTF-8" standalone="no"?>
<!DOCTYPE svg PUBLIC "-//W3C//DTD SVG 1.1//EN"
 "http://www.w3.org/Graphics/SVG/1.1/DTD/svg11.dtd">
<!-- Generated by graphviz version 2.43.0 (0)
 -->
<!-- Title: Ksolve::initReinit Pages: 1 -->
<!--zoomable 212 -->

<svg id="main" version="1.1" xmlns="http://www.w3.org/2000/svg" xmlns:xlink="http://www.w3.org/1999/xlink" xml:space="preserve" onload="init(evt)">
<style type="text/css"><![CDATA[
.node, .edge {opacity: 0.7;}
.node.selected, .edge.selected {opacity: 1;}
.edge:hover path { stroke: red; }
.edge:hover polygon { stroke: red; fill: red; }
]]></style>

<defs>
  <circle id="rim" cx="0" cy="0" r="7"/>
  <circle id="rim2" cx="0" cy="0" r="3.5"/>
  <g id="zoomPlus">
    <use xlink:href="#rim" fill="#404040"><set attributeName="fill" to="#808080" begin="zoomplus.mouseover" end="zoomplus.mouseout"/></use>
    <path d="M-4,0h8M0,-4v8" fill="none" stroke="white" stroke-width="1.5" pointer-events="none"/>
  </g>
  <g id="zoomMin">
    <use xlink:href="#rim" fill="#404040"><set attributeName="fill" to="#808080" begin="zoomminus.mouseover" end="zoomminus.mouseout"/></use>
    <path d="M-4,0h8" fill="none" stroke="white" stroke-width="1.5" pointer-events="none"/>
  </g>
  <g id="arrowUp" transform="translate(30 24)">
    <use xlink:href="#rim"/>
    <path pointer-events="none" fill="none" stroke="white" stroke-width="1.5" d="M0,-3.0v7 M-2.5,-0.5L0,-3.0L2.5,-0.5"/>
  </g>
  <g id="arrowRight" transform="rotate(90) translate(36 -43)">
    <use xlink:href="#rim"/>
    <path pointer-events="none" fill="none" stroke="white" stroke-width="1.5" d="M0,-3.0v7 M-2.5,-0.5L0,-3.0L2.5,-0.5"/>
  </g>
  <g id="arrowDown" transform="rotate(180) translate(-30 -48)">
    <use xlink:href="#rim"/>
    <path pointer-events="none" fill="none" stroke="white" stroke-width="1.5" d="M0,-3.0v7 M-2.5,-0.5L0,-3.0L2.5,-0.5"/>
  </g>
  <g id="arrowLeft" transform="rotate(270) translate(-36 17)">
    <use xlink:href="#rim"/>
    <path pointer-events="none" fill="none" stroke="white" stroke-width="1.5" d="M0,-3.0v7 M-2.5,-0.5L0,-3.0L2.5,-0.5"/>
  </g>
  <g id="resetDef">
    <use xlink:href="#rim2" fill="#404040"><set attributeName="fill" to="#808080" begin="reset.mouseover" end="reset.mouseout"/></use>
  </g>
</defs>
<script type="application/ecmascript">
var viewWidth = 837;
var viewHeight = 212;
var sectionId = 'dynsection-36';
</script>
<script type="application/ecmascript" xlink:href="svg.min.js"/>
<svg id="graph" class="graph">
<g id="viewport">
<title>Ksolve::initReinit</title>
<!-- Node1 -->
<g id="Node000001" class="node">
<title>Node1</title>
<g id="a_Node000001"><a xlink:title=" ">
<polygon fill="#999999" stroke="#666666" points="100,-55 0,-55 0,-36 100,-36 100,-55"/>
<text text-anchor="middle" x="50" y="-43" font-family="Ubuntu Mono" font-size="10.00">Ksolve::initReinit</text>
</a>
</g>
</g>
<!-- Node2 -->
<g id="Node000002" class="node">
<title>Node2</title>
<g id="a_Node000002"><a xlink:href="classVoxelPools.html#a7fd3f5f0f7a229f2c5c3f752f31b1481" target="_top" xlink:title=" ">
<polygon fill="white" stroke="#666666" points="237,-55 136,-55 136,-36 237,-36 237,-55"/>
<text text-anchor="middle" x="186.5" y="-43" font-family="Ubuntu Mono" font-size="10.00">VoxelPools::reinit</text>
</a>
</g>
</g>
<!-- Node1&#45;&gt;Node2 -->
<g id="edge1_Node000001_Node000002" class="edge">
<title>Node1&#45;&gt;Node2</title>
<g id="a_edge1_Node000001_Node000002"><a xlink:title=" ">
<path fill="none" stroke="#63b8ff" d="M100.32,-45.5C108.53,-45.5 117.12,-45.5 125.56,-45.5"/>
<polygon fill="#63b8ff" stroke="#63b8ff" points="125.74,-49 135.74,-45.5 125.74,-42 125.74,-49"/>
</a>
</g>
</g>
<!-- Node3 -->
<g id="Node000003" class="node">
<title>Node3</title>
<g id="a_Node000003"><a xlink:href="classVoxelPools.html#a6ba67eb7349f43b493a8b22d92bf1e7f" target="_top" xlink:title=" ">
<polygon fill="white" stroke="#666666" points="401,-74 273,-74 273,-55 401,-55 401,-74"/>
<text text-anchor="middle" x="337" y="-62" font-family="Ubuntu Mono" font-size="10.00">VoxelPools::getMethod</text>
</a>
</g>
</g>
<!-- Node2&#45;&gt;Node3 -->
<g id="edge2_Node000002_Node000003" class="edge">
<title>Node2&#45;&gt;Node3</title>
<g id="a_edge2_Node000002_Node000003"><a xlink:title=" ">
<path fill="none" stroke="#63b8ff" d="M237.36,-51.88C245.54,-52.93 254.16,-54.03 262.76,-55.13"/>
<polygon fill="#63b8ff" stroke="#63b8ff" points="262.46,-58.62 272.82,-56.42 263.35,-51.68 262.46,-58.62"/>
</a>
</g>
</g>
<!-- Node15 -->
<g id="Node000015" class="node">
<title>Node15</title>
<g id="a_Node000015"><a xlink:href="classVoxelPoolsBase.html#a6c9c831d491fa62b8baeb84a6d91e2ea" target="_top" xlink:title=" ">
<polygon fill="white" stroke="#666666" points="399.5,-37 274.5,-37 274.5,-18 399.5,-18 399.5,-37"/>
<text text-anchor="middle" x="337" y="-25" font-family="Ubuntu Mono" font-size="10.00">VoxelPoolsBase::reinit</text>
</a>
</g>
</g>
<!-- Node2&#45;&gt;Node15 -->
<g id="edge14_Node000002_Node000015" class="edge">
<title>Node2&#45;&gt;Node15</title>
<g id="a_edge14_Node000002_Node000015"><a xlink:title=" ">
<path fill="none" stroke="#63b8ff" d="M237.36,-39.46C245.99,-38.41 255.12,-37.3 264.2,-36.2"/>
<polygon fill="#63b8ff" stroke="#63b8ff" points="264.89,-39.64 274.4,-34.97 264.05,-32.7 264.89,-39.64"/>
</a>
</g>
</g>
<!-- Node4 -->
<g id="Node000004" class="node">
<title>Node4</title>
<g id="a_Node000004"><a xlink:href="classEref.html#ac605440cdeae71e424022cd849a2866d" target="_top" xlink:title=" ">
<polygon fill="white" stroke="#666666" points="522.5,-148 459.5,-148 459.5,-129 522.5,-129 522.5,-148"/>
<text text-anchor="middle" x="491" y="-136" font-family="Ubuntu Mono" font-size="10.00">Eref::data</text>
</a>
</g>
</g>
<!-- Node3&#45;&gt;Node4 -->
<g id="edge3_Node000003_Node000004" class="edge">
<title>Node3&#45;&gt;Node4</title>
<g id="a_edge3_Node000003_Node000004"><a xlink:title=" ">
<path fill="none" stroke="#63b8ff" d="M357.56,-74.02C383.75,-86.77 430.43,-109.5 460.79,-124.28"/>
<polygon fill="#63b8ff" stroke="#63b8ff" points="459.51,-127.55 470.03,-128.78 462.57,-121.25 459.51,-127.55"/>
</a>
</g>
</g>
<!-- Node10 -->
<g id="Node000010" class="node">
<title>Node10</title>
<g id="a_Node000010"><a xlink:href="classId.html#adac7a40d04024a7b9dcb7eae7b9fdf9b" target="_top" xlink:title=" ">
<polygon fill="white" stroke="#666666" points="516.5,-93 465.5,-93 465.5,-74 516.5,-74 516.5,-93"/>
<text text-anchor="middle" x="491" y="-81" font-family="Ubuntu Mono" font-size="10.00">Id::eref</text>
</a>
</g>
</g>
<!-- Node3&#45;&gt;Node10 -->
<g id="edge9_Node000003_Node000010" class="edge">
<title>Node3&#45;&gt;Node10</title>
<g id="a_edge9_Node000003_Node000010"><a xlink:title=" ">
<path fill="none" stroke="#63b8ff" d="M401.14,-72.39C419.74,-74.72 439.4,-77.18 455.49,-79.19"/>
<polygon fill="#63b8ff" stroke="#63b8ff" points="455.14,-82.67 465.49,-80.44 456,-75.72 455.14,-82.67"/>
</a>
</g>
</g>
<!-- Node13 -->
<g id="Node000013" class="node">
<title>Node13</title>
<g id="a_Node000013"><a xlink:href="classStoich.html#a54ebbdd067902d8548fe078cec65dee9" target="_top" xlink:title=" ">
<polygon fill="white" stroke="#666666" points="541.5,-56 440.5,-56 440.5,-37 541.5,-37 541.5,-56"/>
<text text-anchor="middle" x="491" y="-44" font-family="Ubuntu Mono" font-size="10.00">Stoich::getKsolve</text>
</a>
</g>
</g>
<!-- Node3&#45;&gt;Node13 -->
<g id="edge12_Node000003_Node000013" class="edge">
<title>Node3&#45;&gt;Node13</title>
<g id="a_edge12_Node000003_Node000013"><a xlink:title=" ">
<path fill="none" stroke="#63b8ff" d="M401.14,-57.02C410.73,-55.89 420.59,-54.72 430.1,-53.59"/>
<polygon fill="#63b8ff" stroke="#63b8ff" points="430.74,-57.04 440.26,-52.39 429.91,-50.09 430.74,-57.04"/>
</a>
</g>
</g>
<!-- Node14 -->
<g id="Node000014" class="node">
<title>Node14</title>
<g id="a_Node000014"><a xlink:href="classKsolve.html#a5cd3917437c2e1c25c0ddf63c201f5d3" target="_top" xlink:title="Assigns integration method.">
<polygon fill="white" stroke="#666666" points="545,-19 437,-19 437,0 545,0 545,-19"/>
<text text-anchor="middle" x="491" y="-7" font-family="Ubuntu Mono" font-size="10.00">Ksolve::getMethod</text>
</a>
</g>
</g>
<!-- Node3&#45;&gt;Node14 -->
<g id="edge13_Node000003_Node000014" class="edge">
<title>Node3&#45;&gt;Node14</title>
<g id="a_edge13_Node000003_Node000014"><a xlink:title=" ">
<path fill="none" stroke="#63b8ff" d="M373.35,-54.99C382.47,-52.23 392.19,-49 401,-45.5 417.62,-38.89 420.49,-34.39 437,-27.5 441.15,-25.77 445.53,-24.07 449.92,-22.46"/>
<polygon fill="#63b8ff" stroke="#63b8ff" points="451.21,-25.72 459.46,-19.08 448.87,-19.12 451.21,-25.72"/>
</a>
</g>
</g>
<!-- Node5 -->
<g id="Node000005" class="node">
<title>Node5</title>
<g id="a_Node000005"><a xlink:href="classElement.html#a1978a0a584f1b10ea4a7c67e69880042" target="_top" xlink:title=" ">
<polygon fill="white" stroke="#666666" points="677.5,-204 592.5,-204 592.5,-185 677.5,-185 677.5,-204"/>
<text text-anchor="middle" x="635" y="-192" font-family="Ubuntu Mono" font-size="10.00">Element::data</text>
</a>
</g>
</g>
<!-- Node4&#45;&gt;Node5 -->
<g id="edge4_Node000004_Node000005" class="edge">
<title>Node4&#45;&gt;Node5</title>
<g id="a_edge4_Node000004_Node000005"><a xlink:title=" ">
<path fill="none" stroke="#63b8ff" d="M513.03,-148.02C530.95,-156 557.46,-167.49 581,-176.5 585.53,-178.23 590.3,-179.97 595.06,-181.65"/>
<polygon fill="#63b8ff" stroke="#63b8ff" points="594.1,-185.03 604.7,-184.99 596.4,-178.41 594.1,-185.03"/>
</a>
</g>
</g>
<!-- Node6 -->
<g id="Node000006" class="node">
<title>Node6</title>
<g id="a_Node000006"><a xlink:href="classEref.html#a72bb0cb6e699b5beb80e9f35eb07e392" target="_top" xlink:title=" ">
<polygon fill="white" stroke="#666666" points="683,-167 587,-167 587,-148 683,-148 683,-167"/>
<text text-anchor="middle" x="635" y="-155" font-family="Ubuntu Mono" font-size="10.00">Eref::isDataHere</text>
</a>
</g>
</g>
<!-- Node4&#45;&gt;Node6 -->
<g id="edge5_Node000004_Node000006" class="edge">
<title>Node4&#45;&gt;Node6</title>
<g id="a_edge5_Node000004_Node000006"><a xlink:title=" ">
<path fill="none" stroke="#63b8ff" d="M522.81,-142.62C538.57,-144.73 558.27,-147.37 576.69,-149.83"/>
<polygon fill="#63b8ff" stroke="#63b8ff" points="576.39,-153.32 586.76,-151.18 577.32,-146.38 576.39,-153.32"/>
</a>
</g>
</g>
<!-- Node9 -->
<g id="Node000009" class="node">
<title>Node9</title>
<g id="a_Node000009"><a xlink:href="classElement.html#a73a0e468a3d6cfd6475fff4a56459075" target="_top" xlink:title=" ">
<polygon fill="white" stroke="#666666" points="689,-130 581,-130 581,-111 689,-111 689,-130"/>
<text text-anchor="middle" x="635" y="-118" font-family="Ubuntu Mono" font-size="10.00">Element::rawIndex</text>
</a>
</g>
</g>
<!-- Node4&#45;&gt;Node9 -->
<g id="edge8_Node000004_Node000009" class="edge">
<title>Node4&#45;&gt;Node9</title>
<g id="a_edge8_Node000004_Node000009"><a xlink:title=" ">
<path fill="none" stroke="#63b8ff" d="M522.81,-134.59C536.86,-132.81 554.04,-130.64 570.66,-128.53"/>
<polygon fill="#63b8ff" stroke="#63b8ff" points="571.42,-131.96 580.9,-127.23 570.54,-125.02 571.42,-131.96"/>
</a>
</g>
</g>
<!-- Node7 -->
<g id="Node000007" class="node">
<title>Node7</title>
<g id="a_Node000007"><a xlink:href="classElement.html#a6350d721871c508fbf68286a3907e4a1" target="_top" xlink:title="Returns node number of specified dataIndex.">
<polygon fill="white" stroke="#666666" points="829,-185 725,-185 725,-166 829,-166 829,-185"/>
<text text-anchor="middle" x="777" y="-173" font-family="Ubuntu Mono" font-size="10.00">Element::getNode</text>
</a>
</g>
</g>
<!-- Node6&#45;&gt;Node7 -->
<g id="edge6_Node000006_Node000007" class="edge">
<title>Node6&#45;&gt;Node7</title>
<g id="a_edge6_Node000006_Node000007"><a xlink:title=" ">
<path fill="none" stroke="#63b8ff" d="M683.01,-163.54C693.12,-164.84 703.95,-166.24 714.52,-167.6"/>
<polygon fill="#63b8ff" stroke="#63b8ff" points="714.18,-171.08 724.55,-168.88 715.07,-164.14 714.18,-171.08"/>
</a>
</g>
</g>
<!-- Node8 -->
<g id="Node000008" class="node">
<title>Node8</title>
<g id="a_Node000008"><a xlink:href="classShell.html#a4c3608b6ca5fcec63a13b12c49b9d530" target="_top" xlink:title=" ">
<polygon fill="white" stroke="#666666" points="821,-148 733,-148 733,-129 821,-129 821,-148"/>
<text text-anchor="middle" x="777" y="-136" font-family="Ubuntu Mono" font-size="10.00">Shell::myNode</text>
</a>
</g>
</g>
<!-- Node6&#45;&gt;Node8 -->
<g id="edge7_Node000006_Node000008" class="edge">
<title>Node6&#45;&gt;Node8</title>
<g id="a_edge7_Node000006_Node000008"><a xlink:title=" ">
<path fill="none" stroke="#63b8ff" d="M683.01,-151.12C695.67,-149.4 709.46,-147.53 722.45,-145.77"/>
<polygon fill="#63b8ff" stroke="#63b8ff" points="723.22,-149.2 732.66,-144.38 722.28,-142.26 723.22,-149.2"/>
</a>
</g>
</g>
<!-- Node11 -->
<g id="Node000011" class="node">
<title>Node11</title>
<g id="a_Node000011"><a xlink:href="classId.html#a2d5e7b4d5d918aadfe45102691c2be27" target="_top" xlink:title=" ">
<polygon fill="white" stroke="#666666" points="673.5,-93 596.5,-93 596.5,-74 673.5,-74 673.5,-93"/>
<text text-anchor="middle" x="635" y="-81" font-family="Ubuntu Mono" font-size="10.00">Id::elements</text>
</a>
</g>
</g>
<!-- Node10&#45;&gt;Node11 -->
<g id="edge10_Node000010_Node000011" class="edge">
<title>Node10&#45;&gt;Node11</title>
<g id="a_edge10_Node000010_Node000011"><a xlink:title=" ">
<path fill="none" stroke="#63b8ff" d="M516.73,-83.5C535.91,-83.5 563.05,-83.5 586.4,-83.5"/>
<polygon fill="#63b8ff" stroke="#63b8ff" points="586.48,-87 596.48,-83.5 586.48,-80 586.48,-87"/>
</a>
</g>
</g>
<!-- Node12 -->
<g id="Node000012" class="node">
<title>Node12</title>
<g id="a_Node000012"><a xlink:href="classEref.html#a3addb850bc6cbac7771a07de219d909d" target="_top" xlink:title=" ">
<polygon fill="white" stroke="#666666" points="665.5,-56 604.5,-56 604.5,-37 665.5,-37 665.5,-56"/>
<text text-anchor="middle" x="635" y="-44" font-family="Ubuntu Mono" font-size="10.00">Eref::Eref</text>
</a>
</g>
</g>
<!-- Node10&#45;&gt;Node12 -->
<g id="edge11_Node000010_Node000012" class="edge">
<title>Node10&#45;&gt;Node12</title>
<g id="a_edge11_Node000010_Node000012"><a xlink:title=" ">
<path fill="none" stroke="#63b8ff" d="M516.73,-77.06C538.17,-71.47 569.59,-63.28 594.5,-56.79"/>
<polygon fill="#63b8ff" stroke="#63b8ff" points="595.59,-60.12 604.39,-54.22 593.83,-53.35 595.59,-60.12"/>
</a>
</g>
</g>
</g>
</svg>

<g id="navigator" transform="translate(0 0)" fill="#404254">
  <rect fill="#f2f5e9" fill-opacity="0.5" stroke="#606060" stroke-width=".5" x="0" y="0" width="60" height="60"/>
  <use id="zoomplus" xlink:href="#zoomPlus" x="17" y="9" onmousedown="handleZoom(evt,'in')"/>
  <use id="zoomminus" xlink:href="#zoomMin" x="42" y="9" onmousedown="handleZoom(evt,'out')"/>
  <use id="reset" xlink:href="#resetDef" x="30" y="36" onmousedown="handleReset()"/>
   <use id="arrowup" xlink:href="#arrowUp" x="0" y="0" onmousedown="handlePan(0,-1)"/>
  <use id="arrowright" xlink:href="#arrowRight" x="0" y="0" onmousedown="handlePan(1,0)"/>
  <use id="arrowdown" xlink:href="#arrowDown" x="0" y="0" onmousedown="handlePan(0,1)"/>
  <use id="arrowleft" xlink:href="#arrowLeft" x="0" y="0" onmousedown="handlePan(-1,0)"/>
</g>
<svg viewBox="0 0 15 15" width="100%" height="30px" preserveAspectRatio="xMaxYMin meet">
 <g id="arrow_out" transform="scale(0.3 0.3)">
  <a xlink:href="classKsolve_aeb9312a0b49950cf84b53385e8b64d00_cgraph_org.svg" target="_base">
   <rect id="button" ry="5" rx="5" y="6" x="6" height="38" width="38"
        fill="#f2f5e9" fill-opacity="0.5" stroke="#606060" stroke-width="1.0"/>
   <path id="arrow"
     d="M 11.500037,31.436501 C 11.940474,20.09759 22.043105,11.32322 32.158766,21.979434 L 37.068811,17.246167 C 37.068811,17.246167 37.088388,32 37.088388,32 L 22.160133,31.978069 C 22.160133,31.978069 26.997745,27.140456 26.997745,27.140456 C 18.528582,18.264221 13.291696,25.230495 11.500037,31.436501 z"
     style="fill:#404040;"/>
  </a>
 </g>
</svg>

<style type='text/css'>
<![CDATA[
[data-mouse-over-selected='false'] { opacity: 0.7; }
[data-mouse-over-selected='true']  { opacity: 1.0; }
]]>
</style>
<script type="application/ecmascript"><![CDATA[
document.addEventListener('DOMContentLoaded', (event) => {
  highlightEdges();
  highlightAdjacentNodes();
});
]]></script>
</svg>
