<?xml version="1.0" encoding="UTF-8" standalone="no"?>
<!DOCTYPE svg PUBLIC "-//W3C//DTD SVG 1.1//EN"
 "http://www.w3.org/Graphics/SVG/1.1/DTD/svg11.dtd">
<!-- Generated by graphviz version 2.43.0 (0)
 -->
<!-- Title: FuncTerm::setExpr Pages: 1 -->
<!--zoomable 252 -->

<svg id="main" version="1.1" xmlns="http://www.w3.org/2000/svg" xmlns:xlink="http://www.w3.org/1999/xlink" xml:space="preserve" onload="init(evt)">
<style type="text/css"><![CDATA[
.node, .edge {opacity: 0.7;}
.node.selected, .edge.selected {opacity: 1;}
.edge:hover path { stroke: red; }
.edge:hover polygon { stroke: red; fill: red; }
]]></style>

<defs>
  <circle id="rim" cx="0" cy="0" r="7"/>
  <circle id="rim2" cx="0" cy="0" r="3.5"/>
  <g id="zoomPlus">
    <use xlink:href="#rim" fill="#404040"><set attributeName="fill" to="#808080" begin="zoomplus.mouseover" end="zoomplus.mouseout"/></use>
    <path d="M-4,0h8M0,-4v8" fill="none" stroke="white" stroke-width="1.5" pointer-events="none"/>
  </g>
  <g id="zoomMin">
    <use xlink:href="#rim" fill="#404040"><set attributeName="fill" to="#808080" begin="zoomminus.mouseover" end="zoomminus.mouseout"/></use>
    <path d="M-4,0h8" fill="none" stroke="white" stroke-width="1.5" pointer-events="none"/>
  </g>
  <g id="arrowUp" transform="translate(30 24)">
    <use xlink:href="#rim"/>
    <path pointer-events="none" fill="none" stroke="white" stroke-width="1.5" d="M0,-3.0v7 M-2.5,-0.5L0,-3.0L2.5,-0.5"/>
  </g>
  <g id="arrowRight" transform="rotate(90) translate(36 -43)">
    <use xlink:href="#rim"/>
    <path pointer-events="none" fill="none" stroke="white" stroke-width="1.5" d="M0,-3.0v7 M-2.5,-0.5L0,-3.0L2.5,-0.5"/>
  </g>
  <g id="arrowDown" transform="rotate(180) translate(-30 -48)">
    <use xlink:href="#rim"/>
    <path pointer-events="none" fill="none" stroke="white" stroke-width="1.5" d="M0,-3.0v7 M-2.5,-0.5L0,-3.0L2.5,-0.5"/>
  </g>
  <g id="arrowLeft" transform="rotate(270) translate(-36 17)">
    <use xlink:href="#rim"/>
    <path pointer-events="none" fill="none" stroke="white" stroke-width="1.5" d="M0,-3.0v7 M-2.5,-0.5L0,-3.0L2.5,-0.5"/>
  </g>
  <g id="resetDef">
    <use xlink:href="#rim2" fill="#404040"><set attributeName="fill" to="#808080" begin="reset.mouseover" end="reset.mouseout"/></use>
  </g>
</defs>
<script type="application/ecmascript">
var viewWidth = 1299;
var viewHeight = 252;
var sectionId = 'dynsection-11';
</script>
<script type="application/ecmascript" xlink:href="svg.min.js"/>
<svg id="graph" class="graph">
<g id="viewport">
<title>FuncTerm::setExpr</title>
<!-- Node1 -->
<g id="Node000001" class="node">
<title>Node1</title>
<g id="a_Node000001"><a xlink:title=" ">
<polygon fill="#999999" stroke="#666666" points="1291,-126 1185,-126 1185,-107 1291,-107 1291,-126"/>
<text text-anchor="middle" x="1238" y="-114" font-family="Ubuntu Mono" font-size="10.00">FuncTerm::setExpr</text>
</a>
</g>
</g>
<!-- Node2 -->
<g id="Node000002" class="node">
<title>Node2</title>
<g id="a_Node000002"><a xlink:href="classStoich.html#a2193691f5b33c944bfe09b7792b7ceef" target="_top" xlink:title=" ">
<polygon fill="white" stroke="#666666" points="958,-93 792,-93 792,-74 958,-74 958,-93"/>
<text text-anchor="middle" x="875" y="-81" font-family="Ubuntu Mono" font-size="10.00">Stoich::installAndUnschedFunc</text>
</a>
</g>
</g>
<!-- Node1&#45;&gt;Node2 -->
<g id="edge1_Node000001_Node000002" class="edge">
<title>Node1&#45;&gt;Node2</title>
<g id="a_edge1_Node000001_Node000002"><a xlink:title=" ">
<path fill="none" stroke="#63b8ff" d="M1174.65,-112.32C1125.53,-108.85 1055.33,-103.53 994,-97.5 980.55,-96.18 966.26,-94.61 952.44,-93.02"/>
<polygon fill="#63b8ff" stroke="#63b8ff" points="1174.58,-115.82 1184.8,-113.03 1175.07,-108.84 1174.58,-115.82"/>
</a>
</g>
</g>
<!-- Node9 -->
<g id="Node000009" class="node">
<title>Node9</title>
<g id="a_Node000009"><a xlink:href="classFuncRate.html#a49015caadbbf2286af602a2a556c19ec" target="_top" xlink:title=" ">
<polygon fill="white" stroke="#666666" points="1123.5,-173 1019.5,-173 1019.5,-154 1123.5,-154 1123.5,-173"/>
<text text-anchor="middle" x="1071.5" y="-161" font-family="Ubuntu Mono" font-size="10.00">FuncRate::setExpr</text>
</a>
</g>
</g>
<!-- Node1&#45;&gt;Node9 -->
<g id="edge8_Node000001_Node000009" class="edge">
<title>Node1&#45;&gt;Node9</title>
<g id="a_edge8_Node000001_Node000009"><a xlink:title=" ">
<path fill="none" stroke="#63b8ff" d="M1193.97,-128.79C1166.5,-136.64 1131.42,-146.67 1106.02,-153.92"/>
<polygon fill="#63b8ff" stroke="#63b8ff" points="1195.06,-132.12 1203.71,-126.01 1193.13,-125.39 1195.06,-132.12"/>
</a>
</g>
</g>
<!-- Node12 -->
<g id="Node000012" class="node">
<title>Node12</title>
<g id="a_Node000012"><a xlink:href="classStoich.html#a7b7ea7c9351b13fe48a5557bb037bf01" target="_top" xlink:title=" ">
<polygon fill="white" stroke="#666666" points="940.5,-244 809.5,-244 809.5,-225 940.5,-225 940.5,-244"/>
<text text-anchor="middle" x="875" y="-232" font-family="Ubuntu Mono" font-size="10.00">Stoich::setFunctionExpr</text>
</a>
</g>
</g>
<!-- Node1&#45;&gt;Node12 -->
<g id="edge14_Node000001_Node000012" class="edge">
<title>Node1&#45;&gt;Node12</title>
<g id="a_edge14_Node000001_Node000012"><a xlink:title=" ">
<path fill="none" stroke="#63b8ff" d="M1220.09,-132.97C1203.4,-148.23 1176.47,-170.37 1149,-182.5 1081.58,-212.27 997.42,-225.03 940.5,-230.48"/>
<polygon fill="#63b8ff" stroke="#63b8ff" points="1222.51,-135.49 1227.41,-126.1 1217.72,-130.38 1222.51,-135.49"/>
</a>
</g>
</g>
<!-- Node13 -->
<g id="Node000013" class="node">
<title>Node13</title>
<g id="a_Node000013"><a xlink:href="classFuncTerm.html#a650e636246ea9c3f1c813b6f211a60d0" target="_top" xlink:title=" ">
<polygon fill="white" stroke="#666666" points="1149,-88 994,-88 994,-69 1149,-69 1149,-88"/>
<text text-anchor="middle" x="1071.5" y="-76" font-family="Ubuntu Mono" font-size="10.00">FuncTerm::setReactantIndex</text>
</a>
</g>
</g>
<!-- Node1&#45;&gt;Node13 -->
<g id="edge15_Node000001_Node000013" class="edge">
<title>Node1&#45;&gt;Node13</title>
<g id="a_edge15_Node000001_Node000013"><a xlink:title=" ">
<path fill="none" stroke="#63b8ff" d="M1185.5,-104.6C1162.38,-99.26 1135.47,-93.05 1113.71,-88.02"/>
<polygon fill="#63b8ff" stroke="#63b8ff" points="1184.96,-108.07 1195.49,-106.91 1186.53,-101.25 1184.96,-108.07"/>
</a>
</g>
</g>
<!-- Node16 -->
<g id="Node000016" class="node">
<title>Node16</title>
<g id="a_Node000016"><a xlink:href="testKsolve_8cpp.html#a2a653e989cc8a0aef6260c047c660168" target="_top" xlink:title=" ">
<polygon fill="white" stroke="#666666" points="916,-19 834,-19 834,0 916,0 916,-19"/>
<text text-anchor="middle" x="875" y="-7" font-family="Ubuntu Mono" font-size="10.00">testFuncTerm</text>
</a>
</g>
</g>
<!-- Node1&#45;&gt;Node16 -->
<g id="edge23_Node000001_Node000016" class="edge">
<title>Node1&#45;&gt;Node16</title>
<g id="a_edge23_Node000001_Node000016"><a xlink:title=" ">
<path fill="none" stroke="#63b8ff" d="M1217.53,-100.65C1200.48,-87.59 1174.5,-69.62 1149,-59.5 1070.18,-28.21 970.7,-16.31 916.23,-11.93"/>
<polygon fill="#63b8ff" stroke="#63b8ff" points="1215.56,-103.55 1225.59,-106.96 1219.88,-98.04 1215.56,-103.55"/>
</a>
</g>
</g>
<!-- Node3 -->
<g id="Node000003" class="node">
<title>Node3</title>
<g id="a_Node000003"><a xlink:href="classStoich.html#a76eb61b91eb52a6d439099fb91fed977" target="_top" xlink:title=" ">
<polygon fill="white" stroke="#666666" points="756,-98.5 598,-98.5 598,-68.5 756,-68.5 756,-98.5"/>
<text text-anchor="start" x="606" y="-86.5" font-family="Ubuntu Mono" font-size="10.00">Stoich::zombifyPoolFuncWith</text>
<text text-anchor="middle" x="677" y="-75.5" font-family="Ubuntu Mono" font-size="10.00">Scaling</text>
</a>
</g>
</g>
<!-- Node2&#45;&gt;Node3 -->
<g id="edge2_Node000002_Node000003" class="edge">
<title>Node2&#45;&gt;Node3</title>
<g id="a_edge2_Node000002_Node000003"><a xlink:title=" ">
<path fill="none" stroke="#63b8ff" d="M781.49,-83.5C773.07,-83.5 764.59,-83.5 756.3,-83.5"/>
<polygon fill="#63b8ff" stroke="#63b8ff" points="781.73,-87 791.73,-83.5 781.73,-80 781.73,-87"/>
</a>
</g>
</g>
<!-- Node4 -->
<g id="Node000004" class="node">
<title>Node4</title>
<g id="a_Node000004"><a xlink:href="classStoich.html#ab56684804de4012037cb0c1bc180991d" target="_top" xlink:title=" ">
<polygon fill="white" stroke="#666666" points="562,-141 440,-141 440,-122 562,-122 562,-141"/>
<text text-anchor="middle" x="501" y="-129" font-family="Ubuntu Mono" font-size="10.00">Stoich::zombifyModel</text>
</a>
</g>
</g>
<!-- Node3&#45;&gt;Node4 -->
<g id="edge3_Node000003_Node000004" class="edge">
<title>Node3&#45;&gt;Node4</title>
<g id="a_edge3_Node000003_Node000004"><a xlink:title=" ">
<path fill="none" stroke="#63b8ff" d="M611.49,-101.29C586.14,-108.29 558.05,-116.04 536.67,-121.94"/>
<polygon fill="#63b8ff" stroke="#63b8ff" points="612.71,-104.59 621.42,-98.56 610.85,-97.84 612.71,-104.59"/>
</a>
</g>
</g>
<!-- Node5 -->
<g id="Node000005" class="node">
<title>Node5</title>
<g id="a_Node000005"><a xlink:href="classStoich.html#a44698a8a652534dc594bd87f450d93c0" target="_top" xlink:title=" ">
<polygon fill="white" stroke="#666666" points="404,-141 315,-141 315,-122 404,-122 404,-141"/>
<text text-anchor="middle" x="359.5" y="-129" font-family="Ubuntu Mono" font-size="10.00">Stoich::setElist</text>
</a>
</g>
</g>
<!-- Node4&#45;&gt;Node5 -->
<g id="edge4_Node000004_Node000005" class="edge">
<title>Node4&#45;&gt;Node5</title>
<g id="a_edge4_Node000004_Node000005"><a xlink:title=" ">
<path fill="none" stroke="#63b8ff" d="M429.5,-131.5C420.86,-131.5 412.23,-131.5 404.15,-131.5"/>
<polygon fill="#63b8ff" stroke="#63b8ff" points="429.62,-135 439.62,-131.5 429.62,-128 429.62,-135"/>
</a>
</g>
</g>
<!-- Node6 -->
<g id="Node000006" class="node">
<title>Node6</title>
<g id="a_Node000006"><a xlink:href="classStoich.html#a0a32cb242e6fd1f6af653a48189feda5" target="_top" xlink:title=" ">
<polygon fill="white" stroke="#666666" points="279,-141 130,-141 130,-122 279,-122 279,-141"/>
<text text-anchor="middle" x="204.5" y="-129" font-family="Ubuntu Mono" font-size="10.00">Stoich::setReacSystemPath</text>
</a>
</g>
</g>
<!-- Node5&#45;&gt;Node6 -->
<g id="edge5_Node000005_Node000006" class="edge">
<title>Node5&#45;&gt;Node6</title>
<g id="a_edge5_Node000005_Node000006"><a xlink:title=" ">
<path fill="none" stroke="#63b8ff" d="M304.48,-131.5C296.26,-131.5 287.66,-131.5 279.11,-131.5"/>
<polygon fill="#63b8ff" stroke="#63b8ff" points="304.66,-135 314.66,-131.5 304.66,-128 304.66,-135"/>
</a>
</g>
</g>
<!-- Node7 -->
<g id="Node000007" class="node">
<title>Node7</title>
<g id="a_Node000007"><a xlink:href="classStoich.html#ad8c6117d11f46222476ef4a464ecdc09" target="_top" xlink:title=" ">
<polygon fill="white" stroke="#666666" points="94,-160 0,-160 0,-141 94,-141 94,-160"/>
<text text-anchor="middle" x="47" y="-148" font-family="Ubuntu Mono" font-size="10.00">Stoich::initCinfo</text>
</a>
</g>
</g>
<!-- Node6&#45;&gt;Node7 -->
<g id="edge6_Node000006_Node000007" class="edge">
<title>Node6&#45;&gt;Node7</title>
<g id="a_edge6_Node000006_Node000007"><a xlink:title=" ">
<path fill="none" stroke="#63b8ff" d="M119.64,-141.75C110.97,-142.81 102.39,-143.85 94.36,-144.84"/>
<polygon fill="#63b8ff" stroke="#63b8ff" points="120.35,-145.19 129.85,-140.5 119.5,-138.24 120.35,-145.19"/>
</a>
</g>
</g>
<!-- Node8 -->
<g id="Node000008" class="node">
<title>Node8</title>
<g id="a_Node000008"><a xlink:href="classStoich.html#aec019d0f2ceb1d021062c1a3e712803a" target="_top" xlink:title=" ">
<polygon fill="white" stroke="#666666" points="91.5,-123 2.5,-123 2.5,-104 91.5,-104 91.5,-123"/>
<text text-anchor="middle" x="47" y="-111" font-family="Ubuntu Mono" font-size="10.00">Stoich::setPath</text>
</a>
</g>
</g>
<!-- Node6&#45;&gt;Node8 -->
<g id="edge7_Node000006_Node000008" class="edge">
<title>Node6&#45;&gt;Node8</title>
<g id="a_edge7_Node000006_Node000008"><a xlink:title=" ">
<path fill="none" stroke="#63b8ff" d="M119.76,-121.81C110.11,-120.69 100.57,-119.59 91.76,-118.57"/>
<polygon fill="#63b8ff" stroke="#63b8ff" points="119.51,-125.3 129.85,-122.97 120.32,-118.35 119.51,-125.3"/>
</a>
</g>
</g>
<!-- Node10 -->
<g id="Node000010" class="node">
<title>Node10</title>
<g id="a_Node000010"><a xlink:href="classStoich.html#a6952c6a4bf12b226fb6ebffb71b44de5" target="_top" xlink:title=" ">
<polygon fill="white" stroke="#666666" points="748.5,-146.5 605.5,-146.5 605.5,-116.5 748.5,-116.5 748.5,-146.5"/>
<text text-anchor="start" x="613.5" y="-134.5" font-family="Ubuntu Mono" font-size="10.00">Stoich::installAndUnsched</text>
<text text-anchor="middle" x="677" y="-123.5" font-family="Ubuntu Mono" font-size="10.00">FuncRate</text>
</a>
</g>
</g>
<!-- Node9&#45;&gt;Node10 -->
<g id="edge9_Node000009_Node000010" class="edge">
<title>Node9&#45;&gt;Node10</title>
<g id="a_edge9_Node000009_Node000010"><a xlink:title=" ">
<path fill="none" stroke="#63b8ff" d="M1009.11,-158.49C938.51,-152.74 822.83,-143.31 748.57,-137.25"/>
<polygon fill="#63b8ff" stroke="#63b8ff" points="1008.94,-161.99 1019.19,-159.32 1009.5,-155.02 1008.94,-161.99"/>
</a>
</g>
</g>
<!-- Node11 -->
<g id="Node000011" class="node">
<title>Node11</title>
<g id="a_Node000011"><a xlink:href="classStoich.html#a6d85bca9ec449a768b8b5d22f51e8145" target="_top" xlink:title=" ">
<polygon fill="white" stroke="#666666" points="748.5,-194.5 605.5,-194.5 605.5,-164.5 748.5,-164.5 748.5,-194.5"/>
<text text-anchor="start" x="613.5" y="-182.5" font-family="Ubuntu Mono" font-size="10.00">Stoich::installAndUnsched</text>
<text text-anchor="middle" x="677" y="-171.5" font-family="Ubuntu Mono" font-size="10.00">FuncReac</text>
</a>
</g>
</g>
<!-- Node9&#45;&gt;Node11 -->
<g id="edge11_Node000009_Node000011" class="edge">
<title>Node9&#45;&gt;Node11</title>
<g id="a_edge11_Node000009_Node000011"><a xlink:title=" ">
<path fill="none" stroke="#63b8ff" d="M1009.17,-169.02C992.57,-170.35 974.61,-171.63 958,-172.5 886.74,-176.24 805.17,-177.99 748.52,-178.81"/>
<polygon fill="#63b8ff" stroke="#63b8ff" points="1009.61,-172.49 1019.3,-168.19 1009.04,-165.52 1009.61,-172.49"/>
</a>
</g>
</g>
<!-- Node9&#45;&gt;Node12 -->
<g id="edge13_Node000009_Node000012" class="edge">
<title>Node9&#45;&gt;Node12</title>
<g id="a_edge13_Node000009_Node000012"><a xlink:title=" ">
<path fill="none" stroke="#63b8ff" d="M1040.29,-177.2C1017.84,-187.11 986.33,-200.47 958,-210.5 943.04,-215.8 926.26,-220.86 911.79,-224.96"/>
<polygon fill="#63b8ff" stroke="#63b8ff" points="1041.91,-180.31 1049.62,-173.04 1039.06,-173.91 1041.91,-180.31"/>
</a>
</g>
</g>
<!-- Node10&#45;&gt;Node4 -->
<g id="edge10_Node000010_Node000004" class="edge">
<title>Node10&#45;&gt;Node4</title>
<g id="a_edge10_Node000010_Node000004"><a xlink:title=" ">
<path fill="none" stroke="#63b8ff" d="M595.26,-131.5C584.07,-131.5 572.74,-131.5 562.02,-131.5"/>
<polygon fill="#63b8ff" stroke="#63b8ff" points="595.48,-135 605.48,-131.5 595.48,-128 595.48,-135"/>
</a>
</g>
</g>
<!-- Node11&#45;&gt;Node4 -->
<g id="edge12_Node000011_Node000004" class="edge">
<title>Node11&#45;&gt;Node4</title>
<g id="a_edge12_Node000011_Node000004"><a xlink:title=" ">
<path fill="none" stroke="#63b8ff" d="M611.49,-161.71C586.14,-154.71 558.05,-146.96 536.67,-141.06"/>
<polygon fill="#63b8ff" stroke="#63b8ff" points="610.85,-165.16 621.42,-164.44 612.71,-158.41 610.85,-165.16"/>
</a>
</g>
</g>
<!-- Node13&#45;&gt;Node2 -->
<g id="edge16_Node000013_Node000002" class="edge">
<title>Node13&#45;&gt;Node2</title>
<g id="a_edge16_Node000013_Node000002"><a xlink:title=" ">
<path fill="none" stroke="#63b8ff" d="M983.68,-80.73C975.24,-80.95 966.69,-81.17 958.29,-81.38"/>
<polygon fill="#63b8ff" stroke="#63b8ff" points="984,-84.22 993.91,-80.47 983.82,-77.23 984,-84.22"/>
</a>
</g>
</g>
<!-- Node14 -->
<g id="Node000014" class="node">
<title>Node14</title>
<g id="a_Node000014"><a xlink:href="classFuncTerm.html#a9fe29f8c8e07f90651e497adc9b660c4" target="_top" xlink:title=" ">
<polygon fill="white" stroke="#666666" points="934.5,-56 815.5,-56 815.5,-37 934.5,-37 934.5,-56"/>
<text text-anchor="middle" x="875" y="-44" font-family="Ubuntu Mono" font-size="10.00">FuncTerm::operator=</text>
</a>
</g>
</g>
<!-- Node13&#45;&gt;Node14 -->
<g id="edge17_Node000013_Node000014" class="edge">
<title>Node13&#45;&gt;Node14</title>
<g id="a_edge17_Node000013_Node000014"><a xlink:title=" ">
<path fill="none" stroke="#63b8ff" d="M1002.57,-67.32C980.18,-63.64 955.51,-59.58 933.94,-56.03"/>
<polygon fill="#63b8ff" stroke="#63b8ff" points="1002.23,-70.82 1012.67,-68.99 1003.37,-63.91 1002.23,-70.82"/>
</a>
</g>
</g>
<!-- Node15 -->
<g id="Node000015" class="node">
<title>Node15</title>
<g id="a_Node000015"><a xlink:href="classFuncRate.html#ac6f59b3f0bbcbf0cd6f037dd582a8393" target="_top" xlink:title=" ">
<polygon fill="white" stroke="#666666" points="949.5,-130 800.5,-130 800.5,-111 949.5,-111 949.5,-130"/>
<text text-anchor="middle" x="875" y="-118" font-family="Ubuntu Mono" font-size="10.00">FuncRate::setFuncArgIndex</text>
</a>
</g>
</g>
<!-- Node13&#45;&gt;Node15 -->
<g id="edge18_Node000013_Node000015" class="edge">
<title>Node13&#45;&gt;Node15</title>
<g id="a_edge18_Node000013_Node000015"><a xlink:title=" ">
<path fill="none" stroke="#63b8ff" d="M1016.39,-90.19C986.11,-96.72 948.83,-104.77 920.3,-110.93"/>
<polygon fill="#63b8ff" stroke="#63b8ff" points="1017.33,-93.56 1026.36,-88.03 1015.85,-86.72 1017.33,-93.56"/>
</a>
</g>
</g>
<!-- Node13&#45;&gt;Node16 -->
<g id="edge21_Node000013_Node000016" class="edge">
<title>Node13&#45;&gt;Node16</title>
<g id="a_edge21_Node000013_Node000016"><a xlink:title=" ">
<path fill="none" stroke="#63b8ff" d="M1043.75,-64.44C1021.35,-53.15 988.27,-37.56 958,-27.5 944.58,-23.04 929.56,-19.38 916.08,-16.55"/>
<polygon fill="#63b8ff" stroke="#63b8ff" points="1042.16,-67.56 1052.65,-68.99 1045.34,-61.33 1042.16,-67.56"/>
</a>
</g>
</g>
<!-- Node15&#45;&gt;Node10 -->
<g id="edge19_Node000015_Node000010" class="edge">
<title>Node15&#45;&gt;Node10</title>
<g id="a_edge19_Node000015_Node000010"><a xlink:title=" ">
<path fill="none" stroke="#63b8ff" d="M790.43,-125.19C776.53,-125.97 762.24,-126.77 748.7,-127.53"/>
<polygon fill="#63b8ff" stroke="#63b8ff" points="790.67,-128.68 800.46,-124.63 790.28,-121.69 790.67,-128.68"/>
</a>
</g>
</g>
<!-- Node15&#45;&gt;Node11 -->
<g id="edge20_Node000015_Node000011" class="edge">
<title>Node15&#45;&gt;Node11</title>
<g id="a_edge20_Node000015_Node000011"><a xlink:title=" ">
<path fill="none" stroke="#63b8ff" d="M832.17,-133.09C801.66,-142.28 760.18,-154.76 727.93,-164.47"/>
<polygon fill="#63b8ff" stroke="#63b8ff" points="833.51,-136.34 842.07,-130.11 831.49,-129.64 833.51,-136.34"/>
</a>
</g>
</g>
<!-- Node17 -->
<g id="Node000017" class="node">
<title>Node17</title>
<g id="a_Node000017"><a xlink:href="testKsolve_8cpp.html#a59de32e18c1cbdf71850c5ab93749996" target="_top" xlink:title=" ">
<polygon fill="white" stroke="#666666" points="711,-19 643,-19 643,0 711,0 711,-19"/>
<text text-anchor="middle" x="677" y="-7" font-family="Ubuntu Mono" font-size="10.00">testKsolve</text>
</a>
</g>
</g>
<!-- Node16&#45;&gt;Node17 -->
<g id="edge22_Node000016_Node000017" class="edge">
<title>Node16&#45;&gt;Node17</title>
<g id="a_edge22_Node000016_Node000017"><a xlink:title=" ">
<path fill="none" stroke="#63b8ff" d="M823.74,-9.5C788.39,-9.5 742.08,-9.5 711.25,-9.5"/>
<polygon fill="#63b8ff" stroke="#63b8ff" points="823.86,-13 833.86,-9.5 823.86,-6 823.86,-13"/>
</a>
</g>
</g>
</g>
</svg>

<g id="navigator" transform="translate(0 0)" fill="#404254">
  <rect fill="#f2f5e9" fill-opacity="0.5" stroke="#606060" stroke-width=".5" x="0" y="0" width="60" height="60"/>
  <use id="zoomplus" xlink:href="#zoomPlus" x="17" y="9" onmousedown="handleZoom(evt,'in')"/>
  <use id="zoomminus" xlink:href="#zoomMin" x="42" y="9" onmousedown="handleZoom(evt,'out')"/>
  <use id="reset" xlink:href="#resetDef" x="30" y="36" onmousedown="handleReset()"/>
   <use id="arrowup" xlink:href="#arrowUp" x="0" y="0" onmousedown="handlePan(0,-1)"/>
  <use id="arrowright" xlink:href="#arrowRight" x="0" y="0" onmousedown="handlePan(1,0)"/>
  <use id="arrowdown" xlink:href="#arrowDown" x="0" y="0" onmousedown="handlePan(0,1)"/>
  <use id="arrowleft" xlink:href="#arrowLeft" x="0" y="0" onmousedown="handlePan(-1,0)"/>
</g>
<svg viewBox="0 0 15 15" width="100%" height="30px" preserveAspectRatio="xMaxYMin meet">
 <g id="arrow_out" transform="scale(0.3 0.3)">
  <a xlink:href="classFuncTerm_ae33dad2171770ac642bcd56f6767e53c_icgraph_org.svg" target="_base">
   <rect id="button" ry="5" rx="5" y="6" x="6" height="38" width="38"
        fill="#f2f5e9" fill-opacity="0.5" stroke="#606060" stroke-width="1.0"/>
   <path id="arrow"
     d="M 11.500037,31.436501 C 11.940474,20.09759 22.043105,11.32322 32.158766,21.979434 L 37.068811,17.246167 C 37.068811,17.246167 37.088388,32 37.088388,32 L 22.160133,31.978069 C 22.160133,31.978069 26.997745,27.140456 26.997745,27.140456 C 18.528582,18.264221 13.291696,25.230495 11.500037,31.436501 z"
     style="fill:#404040;"/>
  </a>
 </g>
</svg>

<style type='text/css'>
<![CDATA[
[data-mouse-over-selected='false'] { opacity: 0.7; }
[data-mouse-over-selected='true']  { opacity: 1.0; }
]]>
</style>
<script type="application/ecmascript"><![CDATA[
document.addEventListener('DOMContentLoaded', (event) => {
  highlightEdges();
  highlightAdjacentNodes();
});
]]></script>
</svg>
