<?xml version="1.0" encoding="UTF-8" standalone="no"?>
<!DOCTYPE svg PUBLIC "-//W3C//DTD SVG 1.1//EN"
 "http://www.w3.org/Graphics/SVG/1.1/DTD/svg11.dtd">
<!-- Generated by graphviz version 2.43.0 (0)
 -->
<!-- Title: Ksolve::getR1vec Pages: 1 -->
<svg width="435pt" height="64pt"
 viewBox="0.00 0.00 435.00 64.00" xmlns="http://www.w3.org/2000/svg" xmlns:xlink="http://www.w3.org/1999/xlink">
<g id="graph0" class="graph" transform="scale(1 1) rotate(0) translate(4 60)">
<title>Ksolve::getR1vec</title>
<!-- Node1 -->
<g id="Node000001" class="node">
<title>Node1</title>
<g id="a_Node000001"><a xlink:title="Unlike getNvec, this returns vector of R1 for this reac across voxels.">
<polygon fill="#999999" stroke="#666666" points="427,-37 326,-37 326,-18 427,-18 427,-37"/>
<text text-anchor="middle" x="376.5" y="-25" font-family="Ubuntu Mono" font-size="10.00">Ksolve::getR1vec</text>
</a>
</g>
</g>
<!-- Node2 -->
<g id="Node000002" class="node">
<title>Node2</title>
<g id="a_Node000002"><a xlink:href="classKsolve.html#a9dc4e66a8b3b43cddfb886cd35c9fa73" target="_top" xlink:title="Unlike getNvec, this returns vector of R1 for this reac across voxels.">
<polygon fill="white" stroke="#666666" points="284,-56 139,-56 139,-37 284,-37 284,-56"/>
<text text-anchor="middle" x="211.5" y="-44" font-family="Ubuntu Mono" font-size="10.00">Ksolve::getRateVecFromId</text>
</a>
</g>
</g>
<!-- Node1&#45;&gt;Node2 -->
<g id="edge1_Node000001_Node000002" class="edge">
<title>Node1&#45;&gt;Node2</title>
<g id="a_edge1_Node000001_Node000002"><a xlink:title=" ">
<path fill="none" stroke="#63b8ff" d="M315.66,-34.48C305.42,-35.67 294.7,-36.92 284.19,-38.14"/>
<polygon fill="#63b8ff" stroke="#63b8ff" points="316.18,-37.94 325.71,-33.3 315.37,-30.99 316.18,-37.94"/>
</a>
</g>
</g>
<!-- Node3 -->
<g id="Node000003" class="node">
<title>Node3</title>
<g id="a_Node000003"><a xlink:href="classKsolve.html#a9bb9517ab7e71ffc5b1967623e6bc328" target="_top" xlink:title="Unlike getNvec, this returns vector of R1 for this reac across voxels.">
<polygon fill="white" stroke="#666666" points="290,-19 133,-19 133,0 290,0 290,-19"/>
<text text-anchor="middle" x="211.5" y="-7" font-family="Ubuntu Mono" font-size="10.00">Ksolve::getRateVecFromPath</text>
</a>
</g>
</g>
<!-- Node1&#45;&gt;Node3 -->
<g id="edge2_Node000001_Node000003" class="edge">
<title>Node1&#45;&gt;Node3</title>
<g id="a_edge2_Node000001_Node000003"><a xlink:title=" ">
<path fill="none" stroke="#63b8ff" d="M315.75,-20.9C307.44,-19.98 298.8,-19.03 290.21,-18.08"/>
<polygon fill="#63b8ff" stroke="#63b8ff" points="315.39,-24.38 325.71,-22 316.15,-17.43 315.39,-24.38"/>
</a>
</g>
</g>
<!-- Node4 -->
<g id="Node000004" class="node">
<title>Node4</title>
<g id="a_Node000004"><a xlink:href="classKsolve.html#a55f3a588c1ed27ffd822d7fe7744be32" target="_top" xlink:title=" ">
<polygon fill="white" stroke="#666666" points="97,-19 0,-19 0,0 97,0 97,-19"/>
<text text-anchor="middle" x="48.5" y="-7" font-family="Ubuntu Mono" font-size="10.00">Ksolve::initCinfo</text>
</a>
</g>
</g>
<!-- Node3&#45;&gt;Node4 -->
<g id="edge3_Node000003_Node000004" class="edge">
<title>Node3&#45;&gt;Node4</title>
<g id="a_edge3_Node000003_Node000004"><a xlink:title=" ">
<path fill="none" stroke="#63b8ff" d="M122.81,-9.5C113.95,-9.5 105.22,-9.5 97.03,-9.5"/>
<polygon fill="#63b8ff" stroke="#63b8ff" points="122.83,-13 132.83,-9.5 122.83,-6 122.83,-13"/>
</a>
</g>
</g>
</g>
</svg>
