<?xml version="1.0" encoding="UTF-8" standalone="no"?>
<!DOCTYPE svg PUBLIC "-//W3C//DTD SVG 1.1//EN"
 "http://www.w3.org/Graphics/SVG/1.1/DTD/svg11.dtd">
<!-- Generated by graphviz version 2.43.0 (0)
 -->
<!-- Title: MarkovRateTable::areAnyRates2d Pages: 1 -->
<svg width="1535pt" height="400pt"
 viewBox="0.00 0.00 1535.00 400.09" xmlns="http://www.w3.org/2000/svg" xmlns:xlink="http://www.w3.org/1999/xlink">
<g id="graph0" class="graph" transform="scale(1 1) rotate(0) translate(4 396.09)">
<title>MarkovRateTable::areAnyRates2d</title>
<!-- Node1 -->
<g id="Node000001" class="node">
<title>Node1</title>
<g id="a_Node000001"><a xlink:title=" ">
<polygon fill="#999999" stroke="#666666" points="1527,-200 1346,-200 1346,-181 1527,-181 1527,-200"/>
<text text-anchor="middle" x="1436.5" y="-188" font-family="Ubuntu Mono" font-size="10.00">MarkovRateTable::areAnyRates2d</text>
</a>
</g>
</g>
<!-- Node2 -->
<g id="Node000002" class="node">
<title>Node2</title>
<g id="a_Node000002"><a xlink:href="classMarkovRateTable.html#a4c6b1dbe68018090fbc264c05e899ed1" target="_top" xlink:title=" ">
<polygon fill="white" stroke="#666666" points="1310,-219 1135,-219 1135,-200 1310,-200 1310,-219"/>
<text text-anchor="middle" x="1222.5" y="-207" font-family="Ubuntu Mono" font-size="10.00">MarkovRateTable::areAllRates1d</text>
</a>
</g>
</g>
<!-- Node1&#45;&gt;Node2 -->
<g id="edge1_Node000001_Node000002" class="edge">
<title>Node1&#45;&gt;Node2</title>
<g id="a_edge1_Node000001_Node000002"><a xlink:title=" ">
<path fill="none" stroke="#63b8ff" d="M1335.84,-199.43C1327.23,-200.2 1318.57,-200.98 1310.07,-201.74"/>
<polygon fill="#63b8ff" stroke="#63b8ff" points="1336.25,-202.91 1345.9,-198.53 1335.63,-195.94 1336.25,-202.91"/>
</a>
</g>
</g>
<!-- Node4 -->
<g id="Node000004" class="node">
<title>Node4</title>
<g id="a_Node000004"><a xlink:href="classMarkovSolverBase.html#adfacc80226d6417e728d81f092e15c6c" target="_top" xlink:title=" ">
<polygon fill="white" stroke="#666666" points="887,-229.5 750,-229.5 750,-199.5 887,-199.5 887,-229.5"/>
<text text-anchor="start" x="758" y="-217.5" font-family="Ubuntu Mono" font-size="10.00">MarkovSolverBase::fillup</text>
<text text-anchor="middle" x="818.5" y="-206.5" font-family="Ubuntu Mono" font-size="10.00">Table</text>
</a>
</g>
</g>
<!-- Node1&#45;&gt;Node4 -->
<g id="edge25_Node000001_Node000004" class="edge">
<title>Node1&#45;&gt;Node4</title>
<g id="a_edge25_Node000001_Node000004"><a xlink:title=" ">
<path fill="none" stroke="#63b8ff" d="M1335.38,-189.1C1276.93,-188.71 1201.76,-188.96 1135,-191.5 1049.39,-194.76 950.96,-202.59 887.12,-208.21"/>
<polygon fill="#63b8ff" stroke="#63b8ff" points="1335.7,-192.6 1345.72,-189.17 1335.75,-185.6 1335.7,-192.6"/>
</a>
</g>
</g>
<!-- Node5 -->
<g id="Node000005" class="node">
<title>Node5</title>
<g id="a_Node000005"><a xlink:href="classMarkovSolverBase.html#a7d7019f4bb80b05815ede3c4252d2b51" target="_top" xlink:title=" ">
<polygon fill="white" stroke="#666666" points="687.5,-267 558.5,-267 558.5,-248 687.5,-248 687.5,-267"/>
<text text-anchor="middle" x="623" y="-255" font-family="Ubuntu Mono" font-size="10.00">MarkovSolverBase::init</text>
</a>
</g>
</g>
<!-- Node1&#45;&gt;Node5 -->
<g id="edge26_Node000001_Node000005" class="edge">
<title>Node1&#45;&gt;Node5</title>
<g id="a_edge26_Node000001_Node000005"><a xlink:title=" ">
<path fill="none" stroke="#63b8ff" d="M1422,-208.34C1401.04,-234.73 1358.05,-283.79 1310,-309.5 1225.2,-354.87 1194.43,-345.57 1099,-357.5 939.34,-377.47 886.76,-421.34 737,-362.5 686.9,-342.82 645.81,-289.31 630.47,-267.23"/>
<polygon fill="#63b8ff" stroke="#63b8ff" points="1424.86,-210.37 1428.24,-200.33 1419.34,-206.07 1424.86,-210.37"/>
</a>
</g>
</g>
<!-- Node8 -->
<g id="Node000008" class="node">
<title>Node8</title>
<g id="a_Node000008"><a xlink:href="classMarkovSolverBase.html#a099b652344dd857b876061cd65cdd835" target="_top" xlink:title=" ">
<polygon fill="white" stroke="#666666" points="900,-353.5 737,-353.5 737,-323.5 900,-323.5 900,-353.5"/>
<text text-anchor="start" x="745" y="-341.5" font-family="Ubuntu Mono" font-size="10.00">MarkovSolverBase::setLookup</text>
<text text-anchor="middle" x="818.5" y="-330.5" font-family="Ubuntu Mono" font-size="10.00">Params</text>
</a>
</g>
</g>
<!-- Node1&#45;&gt;Node8 -->
<g id="edge27_Node000001_Node000008" class="edge">
<title>Node1&#45;&gt;Node8</title>
<g id="a_edge27_Node000001_Node000008"><a xlink:title=" ">
<path fill="none" stroke="#63b8ff" d="M1411.41,-205.34C1357.75,-237.4 1223.32,-312.37 1099,-338.5 1033.11,-352.35 956.54,-351.19 900.22,-347.22"/>
<polygon fill="#63b8ff" stroke="#63b8ff" points="1413.42,-208.21 1420.18,-200.04 1409.81,-202.21 1413.42,-208.21"/>
</a>
</g>
</g>
<!-- Node11 -->
<g id="Node000011" class="node">
<title>Node11</title>
<g id="a_Node000011"><a xlink:href="classMarkovSolverBase.html#a8e76d56052495d390e2320fecc0ebf48" target="_top" xlink:title=" ">
<polygon fill="white" stroke="#666666" points="701,-122.5 545,-122.5 545,-92.5 701,-92.5 701,-122.5"/>
<text text-anchor="start" x="553" y="-110.5" font-family="Ubuntu Mono" font-size="10.00">MarkovSolverBase::compute</text>
<text text-anchor="middle" x="623" y="-99.5" font-family="Ubuntu Mono" font-size="10.00">State</text>
</a>
</g>
</g>
<!-- Node1&#45;&gt;Node11 -->
<g id="edge24_Node000001_Node000011" class="edge">
<title>Node1&#45;&gt;Node11</title>
<g id="a_edge24_Node000001_Node000011"><a xlink:title=" ">
<path fill="none" stroke="#63b8ff" d="M1406.93,-176.56C1350.01,-149.65 1217.67,-91.33 1099,-70.5 940.53,-42.68 895.78,-43.52 737,-69.5 710.04,-73.91 680.84,-83.88 658.87,-92.5"/>
<polygon fill="#63b8ff" stroke="#63b8ff" points="1405.51,-179.76 1416.04,-180.91 1408.52,-173.44 1405.51,-179.76"/>
</a>
</g>
</g>
<!-- Node14 -->
<g id="Node000014" class="node">
<title>Node14</title>
<g id="a_Node000014"><a xlink:href="classMarkovRateTable.html#a23f7feb6384187472bada0d273e20ff7" target="_top" xlink:title=" ">
<polygon fill="white" stroke="#666666" points="1310,-19 1135,-19 1135,0 1310,0 1310,-19"/>
<text text-anchor="middle" x="1222.5" y="-7" font-family="Ubuntu Mono" font-size="10.00">MarkovRateTable::areAllRates2d</text>
</a>
</g>
</g>
<!-- Node1&#45;&gt;Node14 -->
<g id="edge23_Node000001_Node000014" class="edge">
<title>Node1&#45;&gt;Node14</title>
<g id="a_edge23_Node000001_Node000014"><a xlink:title=" ">
<path fill="none" stroke="#63b8ff" d="M1425.64,-171.55C1407.39,-138.39 1365.16,-69.92 1310,-33.5 1300.38,-27.15 1289.09,-22.46 1277.9,-19.01"/>
<polygon fill="#63b8ff" stroke="#63b8ff" points="1422.7,-173.48 1430.52,-180.63 1428.87,-170.16 1422.7,-173.48"/>
</a>
</g>
</g>
<!-- Node3 -->
<g id="Node000003" class="node">
<title>Node3</title>
<g id="a_Node000003"><a xlink:href="classMarkovRateTable.html#a331c86f6991b16e98a8d6136ec458f1f" target="_top" xlink:title=" ">
<polygon fill="white" stroke="#666666" points="1099,-267.5 936,-267.5 936,-237.5 1099,-237.5 1099,-267.5"/>
<text text-anchor="start" x="944" y="-255.5" font-family="Ubuntu Mono" font-size="10.00">MarkovRateTable::areAllRates</text>
<text text-anchor="middle" x="1017.5" y="-244.5" font-family="Ubuntu Mono" font-size="10.00">LigandDep</text>
</a>
</g>
</g>
<!-- Node2&#45;&gt;Node3 -->
<g id="edge2_Node000002_Node000003" class="edge">
<title>Node2&#45;&gt;Node3</title>
<g id="a_edge2_Node000002_Node000003"><a xlink:title=" ">
<path fill="none" stroke="#63b8ff" d="M1166.55,-221.14C1142.78,-226.18 1114.66,-232.13 1089.34,-237.49"/>
<polygon fill="#63b8ff" stroke="#63b8ff" points="1167.39,-224.54 1176.45,-219.04 1165.94,-217.69 1167.39,-224.54"/>
</a>
</g>
</g>
<!-- Node2&#45;&gt;Node4 -->
<g id="edge20_Node000002_Node000004" class="edge">
<title>Node2&#45;&gt;Node4</title>
<g id="a_edge20_Node000002_Node000004"><a xlink:title=" ">
<path fill="none" stroke="#63b8ff" d="M1124.58,-210.71C1051.17,-211.62 952.18,-212.85 887.14,-213.66"/>
<polygon fill="#63b8ff" stroke="#63b8ff" points="1124.81,-214.2 1134.77,-210.58 1124.72,-207.2 1124.81,-214.2"/>
</a>
</g>
</g>
<!-- Node2&#45;&gt;Node5 -->
<g id="edge21_Node000002_Node000005" class="edge">
<title>Node2&#45;&gt;Node5</title>
<g id="a_edge21_Node000002_Node000005"><a xlink:title=" ">
<path fill="none" stroke="#63b8ff" d="M1200.79,-225.1C1177.48,-241.6 1137.77,-266.59 1099,-276.5 943.08,-316.35 749.09,-284.47 665.5,-267.01"/>
<polygon fill="#63b8ff" stroke="#63b8ff" points="1203.12,-227.73 1209.17,-219.03 1199.02,-222.06 1203.12,-227.73"/>
</a>
</g>
</g>
<!-- Node2&#45;&gt;Node8 -->
<g id="edge22_Node000002_Node000008" class="edge">
<title>Node2&#45;&gt;Node8</title>
<g id="a_edge22_Node000002_Node000008"><a xlink:title=" ">
<path fill="none" stroke="#63b8ff" d="M1206.61,-226.77C1185.36,-250.07 1143.93,-290.82 1099,-309.5 1035.71,-335.81 957.7,-341.98 900.19,-342.19"/>
<polygon fill="#63b8ff" stroke="#63b8ff" points="1209.45,-228.84 1213.49,-219.05 1204.22,-224.18 1209.45,-228.84"/>
</a>
</g>
</g>
<!-- Node9 -->
<g id="Node000009" class="node">
<title>Node9</title>
<g id="a_Node000009"><a xlink:href="classMarkovRateTable.html#a38fdbcb3ca1b72b50b62a7f00c94c291" target="_top" xlink:title=" ">
<polygon fill="white" stroke="#666666" points="1099,-143.5 936,-143.5 936,-113.5 1099,-113.5 1099,-143.5"/>
<text text-anchor="start" x="944" y="-131.5" font-family="Ubuntu Mono" font-size="10.00">MarkovRateTable::areAllRates</text>
<text text-anchor="middle" x="1017.5" y="-120.5" font-family="Ubuntu Mono" font-size="10.00">VoltageDep</text>
</a>
</g>
</g>
<!-- Node2&#45;&gt;Node9 -->
<g id="edge10_Node000002_Node000009" class="edge">
<title>Node2&#45;&gt;Node9</title>
<g id="a_edge10_Node000002_Node000009"><a xlink:title=" ">
<path fill="none" stroke="#63b8ff" d="M1187.8,-196.05C1151.57,-181.6 1094.12,-158.67 1056.36,-143.61"/>
<polygon fill="#63b8ff" stroke="#63b8ff" points="1186.83,-199.43 1197.42,-199.89 1189.43,-192.93 1186.83,-199.43"/>
</a>
</g>
</g>
<!-- Node2&#45;&gt;Node11 -->
<g id="edge19_Node000002_Node000011" class="edge">
<title>Node2&#45;&gt;Node11</title>
<g id="a_edge19_Node000002_Node000011"><a xlink:title=" ">
<path fill="none" stroke="#63b8ff" d="M1207.96,-191.77C1187.55,-166.7 1146.24,-121.97 1099,-104.5 961.91,-53.79 786.94,-74.74 692.27,-92.43"/>
<polygon fill="#63b8ff" stroke="#63b8ff" points="1205.32,-194.09 1214.28,-199.75 1210.81,-189.74 1205.32,-194.09"/>
</a>
</g>
</g>
<!-- Node3&#45;&gt;Node4 -->
<g id="edge3_Node000003_Node000004" class="edge">
<title>Node3&#45;&gt;Node4</title>
<g id="a_edge3_Node000003_Node000004"><a xlink:title=" ">
<path fill="none" stroke="#63b8ff" d="M928.6,-235.54C914.72,-232.87 900.56,-230.14 887.24,-227.57"/>
<polygon fill="#63b8ff" stroke="#63b8ff" points="928.16,-239.02 938.64,-237.48 929.48,-232.15 928.16,-239.02"/>
</a>
</g>
</g>
<!-- Node3&#45;&gt;Node5 -->
<g id="edge7_Node000003_Node000005" class="edge">
<title>Node3&#45;&gt;Node5</title>
<g id="a_edge7_Node000003_Node000005"><a xlink:title=" ">
<path fill="none" stroke="#63b8ff" d="M925.55,-253.66C852.62,-254.59 752.14,-255.87 687.61,-256.69"/>
<polygon fill="#63b8ff" stroke="#63b8ff" points="925.7,-257.16 935.65,-253.53 925.61,-250.16 925.7,-257.16"/>
</a>
</g>
</g>
<!-- Node3&#45;&gt;Node8 -->
<g id="edge8_Node000003_Node000008" class="edge">
<title>Node3&#45;&gt;Node8</title>
<g id="a_edge8_Node000003_Node000008"><a xlink:title=" ">
<path fill="none" stroke="#63b8ff" d="M972.49,-271.71C936.68,-287.34 886.86,-309.1 853.92,-323.47"/>
<polygon fill="#63b8ff" stroke="#63b8ff" points="973.97,-274.89 981.73,-267.68 971.17,-268.47 973.97,-274.89"/>
</a>
</g>
</g>
<!-- Node4&#45;&gt;Node5 -->
<g id="edge4_Node000004_Node000005" class="edge">
<title>Node4&#45;&gt;Node5</title>
<g id="a_edge4_Node000004_Node000005"><a xlink:title=" ">
<path fill="none" stroke="#63b8ff" d="M740,-231.72C715.07,-237.26 688.35,-243.2 666.85,-247.98"/>
<polygon fill="#63b8ff" stroke="#63b8ff" points="740.82,-235.13 749.82,-229.54 739.3,-228.29 740.82,-235.13"/>
</a>
</g>
</g>
<!-- Node6 -->
<g id="Node000006" class="node">
<title>Node6</title>
<g id="a_Node000006"><a xlink:href="classMarkovSolverBase.html#a8d94098ef919eb390369a92c6d551500" target="_top" xlink:title=" ">
<polygon fill="white" stroke="#666666" points="322,-199 167,-199 167,-180 322,-180 322,-199"/>
<text text-anchor="middle" x="244.5" y="-187" font-family="Ubuntu Mono" font-size="10.00">MarkovSolverBase::initCinfo</text>
</a>
</g>
</g>
<!-- Node5&#45;&gt;Node6 -->
<g id="edge5_Node000005_Node000006" class="edge">
<title>Node5&#45;&gt;Node6</title>
<g id="a_edge5_Node000005_Node000006"><a xlink:title=" ">
<path fill="none" stroke="#63b8ff" d="M559.26,-246.17C486.16,-232.97 366.69,-211.39 298.19,-199.02"/>
<polygon fill="#63b8ff" stroke="#63b8ff" points="558.79,-249.64 569.25,-247.97 560.03,-242.75 558.79,-249.64"/>
</a>
</g>
</g>
<!-- Node7 -->
<g id="Node000007" class="node">
<title>Node7</title>
<g id="a_Node000007"><a xlink:href="classMarkovSolver.html#a780b0cc742d99f1eef6996f08f85bf34" target="_top" xlink:title=" ">
<polygon fill="white" stroke="#666666" points="131,-180 0,-180 0,-161 131,-161 131,-180"/>
<text text-anchor="middle" x="65.5" y="-168" font-family="Ubuntu Mono" font-size="10.00">MarkovSolver::initCinfo</text>
</a>
</g>
</g>
<!-- Node6&#45;&gt;Node7 -->
<g id="edge6_Node000006_Node000007" class="edge">
<title>Node6&#45;&gt;Node7</title>
<g id="a_edge6_Node000006_Node000007"><a xlink:title=" ">
<path fill="none" stroke="#63b8ff" d="M156.75,-180.19C148.09,-179.26 139.4,-178.33 131.03,-177.43"/>
<polygon fill="#63b8ff" stroke="#63b8ff" points="156.58,-183.69 166.89,-181.28 157.33,-176.73 156.58,-183.69"/>
</a>
</g>
</g>
<!-- Node8&#45;&gt;Node5 -->
<g id="edge9_Node000008_Node000005" class="edge">
<title>Node8&#45;&gt;Node5</title>
<g id="a_edge9_Node000008_Node000005"><a xlink:title=" ">
<path fill="none" stroke="#63b8ff" d="M763.74,-319.86C754.76,-316.54 745.58,-313.01 737,-309.5 703.62,-295.84 665.71,-277.87 643.37,-267.03"/>
<polygon fill="#63b8ff" stroke="#63b8ff" points="762.78,-323.23 773.37,-323.37 765.18,-316.65 762.78,-323.23"/>
</a>
</g>
</g>
<!-- Node9&#45;&gt;Node4 -->
<g id="edge11_Node000009_Node000004" class="edge">
<title>Node9&#45;&gt;Node4</title>
<g id="a_edge11_Node000009_Node000004"><a xlink:title=" ">
<path fill="none" stroke="#63b8ff" d="M957.52,-147.29C950.11,-150.36 942.77,-153.77 936,-157.5 918.24,-167.28 917.76,-175.72 900,-185.5 890.37,-190.8 879.58,-195.46 869.11,-199.41"/>
<polygon fill="#63b8ff" stroke="#63b8ff" points="958.88,-150.52 966.89,-143.59 956.3,-144.01 958.88,-150.52"/>
</a>
</g>
</g>
<!-- Node9&#45;&gt;Node5 -->
<g id="edge12_Node000009_Node000005" class="edge">
<title>Node9&#45;&gt;Node5</title>
<g id="a_edge12_Node000009_Node000005"><a xlink:title=" ">
<path fill="none" stroke="#63b8ff" d="M933.22,-145.58C857.64,-161.31 755.27,-183.27 737,-190.5 698.4,-205.77 657.57,-233.19 637.19,-247.77"/>
<polygon fill="#63b8ff" stroke="#63b8ff" points="934.15,-148.96 943.23,-143.5 932.73,-142.11 934.15,-148.96"/>
</a>
</g>
</g>
<!-- Node10 -->
<g id="Node000010" class="node">
<title>Node10</title>
<g id="a_Node000010"><a xlink:href="classMarkovSolverBase.html#a68197571668ace05f447398fe573da79" target="_top" xlink:title=" ">
<polygon fill="white" stroke="#666666" points="889,-143.5 748,-143.5 748,-113.5 889,-113.5 889,-143.5"/>
<text text-anchor="start" x="756" y="-131.5" font-family="Ubuntu Mono" font-size="10.00">MarkovSolverBase::linear</text>
<text text-anchor="middle" x="818.5" y="-120.5" font-family="Ubuntu Mono" font-size="10.00">Interpolate</text>
</a>
</g>
</g>
<!-- Node9&#45;&gt;Node10 -->
<g id="edge13_Node000009_Node000010" class="edge">
<title>Node9&#45;&gt;Node10</title>
<g id="a_edge13_Node000009_Node000010"><a xlink:title=" ">
<path fill="none" stroke="#63b8ff" d="M925.55,-128.5C913.28,-128.5 900.86,-128.5 889.04,-128.5"/>
<polygon fill="#63b8ff" stroke="#63b8ff" points="925.8,-132 935.8,-128.5 925.8,-125 925.8,-132"/>
</a>
</g>
</g>
<!-- Node10&#45;&gt;Node11 -->
<g id="edge14_Node000010_Node000011" class="edge">
<title>Node10&#45;&gt;Node11</title>
<g id="a_edge14_Node000010_Node000011"><a xlink:title=" ">
<path fill="none" stroke="#63b8ff" d="M737.84,-119.85C725.72,-118.54 713.23,-117.18 701.16,-115.87"/>
<polygon fill="#63b8ff" stroke="#63b8ff" points="737.6,-123.35 747.92,-120.95 738.35,-116.39 737.6,-123.35"/>
</a>
</g>
</g>
<!-- Node12 -->
<g id="Node000012" class="node">
<title>Node12</title>
<g id="a_Node000012"><a xlink:href="classMarkovSolverBase.html#afdac9f0fe024e8040b6c55f4e63ee70f" target="_top" xlink:title=" ">
<polygon fill="white" stroke="#666666" points="509,-162 358,-162 358,-143 509,-143 509,-162"/>
<text text-anchor="middle" x="433.5" y="-150" font-family="Ubuntu Mono" font-size="10.00">MarkovSolverBase::process</text>
</a>
</g>
</g>
<!-- Node11&#45;&gt;Node12 -->
<g id="edge15_Node000011_Node000012" class="edge">
<title>Node11&#45;&gt;Node12</title>
<g id="a_edge15_Node000011_Node000012"><a xlink:title=" ">
<path fill="none" stroke="#63b8ff" d="M549.27,-124.96C523.73,-131.08 496,-137.74 474.2,-142.97"/>
<polygon fill="#63b8ff" stroke="#63b8ff" points="550.4,-128.28 559.3,-122.55 548.76,-121.48 550.4,-128.28"/>
</a>
</g>
</g>
<!-- Node12&#45;&gt;Node6 -->
<g id="edge16_Node000012_Node000006" class="edge">
<title>Node12&#45;&gt;Node6</title>
<g id="a_edge16_Node000012_Node000006"><a xlink:title=" ">
<path fill="none" stroke="#63b8ff" d="M374.3,-164.02C348.45,-169.13 318.4,-175.08 293.82,-179.94"/>
<polygon fill="#63b8ff" stroke="#63b8ff" points="375.21,-167.4 384.34,-162.03 373.85,-160.54 375.21,-167.4"/>
</a>
</g>
</g>
<!-- Node13 -->
<g id="Node000013" class="node">
<title>Node13</title>
<g id="a_Node000013"><a xlink:href="classMarkovSolver.html#a3558f886989301ce2cb44bdf96830e28" target="_top" xlink:title=" ">
<polygon fill="white" stroke="#666666" points="308,-162 181,-162 181,-143 308,-143 308,-162"/>
<text text-anchor="middle" x="244.5" y="-150" font-family="Ubuntu Mono" font-size="10.00">MarkovSolver::process</text>
</a>
</g>
</g>
<!-- Node12&#45;&gt;Node13 -->
<g id="edge17_Node000012_Node000013" class="edge">
<title>Node12&#45;&gt;Node13</title>
<g id="a_edge17_Node000012_Node000013"><a xlink:title=" ">
<path fill="none" stroke="#63b8ff" d="M347.66,-152.5C334.34,-152.5 320.78,-152.5 308.07,-152.5"/>
<polygon fill="#63b8ff" stroke="#63b8ff" points="347.79,-156 357.79,-152.5 347.79,-149 347.79,-156"/>
</a>
</g>
</g>
<!-- Node13&#45;&gt;Node7 -->
<g id="edge18_Node000013_Node000007" class="edge">
<title>Node13&#45;&gt;Node7</title>
<g id="a_edge18_Node000013_Node000007"><a xlink:title=" ">
<path fill="none" stroke="#63b8ff" d="M170.33,-159.94C157.39,-161.26 143.99,-162.62 131.29,-163.91"/>
<polygon fill="#63b8ff" stroke="#63b8ff" points="171,-163.39 180.6,-158.9 170.3,-156.43 171,-163.39"/>
</a>
</g>
</g>
</g>
</svg>
