<?xml version="1.0" encoding="UTF-8" standalone="no"?>
<!DOCTYPE svg PUBLIC "-//W3C//DTD SVG 1.1//EN"
 "http://www.w3.org/Graphics/SVG/1.1/DTD/svg11.dtd">
<!-- Generated by graphviz version 2.43.0 (0)
 -->
<!-- Title: PyRun Pages: 1 -->
<!--zoomable 568 -->

<svg id="main" version="1.1" xmlns="http://www.w3.org/2000/svg" xmlns:xlink="http://www.w3.org/1999/xlink" xml:space="preserve" onload="init(evt)">
<style type="text/css"><![CDATA[
.node, .edge {opacity: 0.7;}
.node.selected, .edge.selected {opacity: 1;}
.edge:hover path { stroke: red; }
.edge:hover polygon { stroke: red; fill: red; }
]]></style>

<defs>
  <circle id="rim" cx="0" cy="0" r="7"/>
  <circle id="rim2" cx="0" cy="0" r="3.5"/>
  <g id="zoomPlus">
    <use xlink:href="#rim" fill="#404040"><set attributeName="fill" to="#808080" begin="zoomplus.mouseover" end="zoomplus.mouseout"/></use>
    <path d="M-4,0h8M0,-4v8" fill="none" stroke="white" stroke-width="1.5" pointer-events="none"/>
  </g>
  <g id="zoomMin">
    <use xlink:href="#rim" fill="#404040"><set attributeName="fill" to="#808080" begin="zoomminus.mouseover" end="zoomminus.mouseout"/></use>
    <path d="M-4,0h8" fill="none" stroke="white" stroke-width="1.5" pointer-events="none"/>
  </g>
  <g id="arrowUp" transform="translate(30 24)">
    <use xlink:href="#rim"/>
    <path pointer-events="none" fill="none" stroke="white" stroke-width="1.5" d="M0,-3.0v7 M-2.5,-0.5L0,-3.0L2.5,-0.5"/>
  </g>
  <g id="arrowRight" transform="rotate(90) translate(36 -43)">
    <use xlink:href="#rim"/>
    <path pointer-events="none" fill="none" stroke="white" stroke-width="1.5" d="M0,-3.0v7 M-2.5,-0.5L0,-3.0L2.5,-0.5"/>
  </g>
  <g id="arrowDown" transform="rotate(180) translate(-30 -48)">
    <use xlink:href="#rim"/>
    <path pointer-events="none" fill="none" stroke="white" stroke-width="1.5" d="M0,-3.0v7 M-2.5,-0.5L0,-3.0L2.5,-0.5"/>
  </g>
  <g id="arrowLeft" transform="rotate(270) translate(-36 17)">
    <use xlink:href="#rim"/>
    <path pointer-events="none" fill="none" stroke="white" stroke-width="1.5" d="M0,-3.0v7 M-2.5,-0.5L0,-3.0L2.5,-0.5"/>
  </g>
  <g id="resetDef">
    <use xlink:href="#rim2" fill="#404040"><set attributeName="fill" to="#808080" begin="reset.mouseover" end="reset.mouseout"/></use>
  </g>
</defs>
<script type="application/ecmascript">
var viewWidth = 123;
var viewHeight = 568;
var sectionId = 'dynsection-0';
</script>
<script type="application/ecmascript" xlink:href="svg.min.js"/>
<svg id="graph" class="graph">
<g id="viewport">
<title>PyRun</title>
<!-- Node1 -->
<g id="Node000001" class="node">
<title>Node1</title>
<g id="a_Node000001"><a xlink:title=" ">
<polygon fill="#999999" stroke="transparent" points="108,-334 0,-334 0,0 108,0 108,-334"/>
<text text-anchor="start" x="38.5" y="-322" font-family="Ubuntu Mono" font-size="10.00">PyRun</text>
<text text-anchor="start" x="4" y="-307" font-family="Ubuntu Mono" font-size="10.00">+</text>
<text text-anchor="start" x="17" y="-307" font-family="Ubuntu Mono" font-size="10.00">RUNBOTH</text>
<text text-anchor="start" x="4" y="-292" font-family="Ubuntu Mono" font-size="10.00">+</text>
<text text-anchor="start" x="17" y="-292" font-family="Ubuntu Mono" font-size="10.00">RUNPROC</text>
<text text-anchor="start" x="4" y="-277" font-family="Ubuntu Mono" font-size="10.00">+</text>
<text text-anchor="start" x="17" y="-277" font-family="Ubuntu Mono" font-size="10.00">RUNTRIG</text>
<text text-anchor="start" x="4" y="-262" font-family="Ubuntu Mono" font-size="10.00">#</text>
<text text-anchor="start" x="17" y="-262" font-family="Ubuntu Mono" font-size="10.00">evalOnReinit_</text>
<text text-anchor="start" x="4" y="-247" font-family="Ubuntu Mono" font-size="10.00">#</text>
<text text-anchor="start" x="17" y="-247" font-family="Ubuntu Mono" font-size="10.00">globals_</text>
<text text-anchor="start" x="4" y="-232" font-family="Ubuntu Mono" font-size="10.00">#</text>
<text text-anchor="start" x="17" y="-232" font-family="Ubuntu Mono" font-size="10.00">initcompiled_</text>
<text text-anchor="start" x="4" y="-217" font-family="Ubuntu Mono" font-size="10.00">#</text>
<text text-anchor="start" x="17" y="-217" font-family="Ubuntu Mono" font-size="10.00">locals_</text>
<text text-anchor="start" x="4" y="-202" font-family="Ubuntu Mono" font-size="10.00">#</text>
<text text-anchor="start" x="17" y="-202" font-family="Ubuntu Mono" font-size="10.00">mode_</text>
<text text-anchor="start" x="4" y="-187" font-family="Ubuntu Mono" font-size="10.00">#</text>
<text text-anchor="start" x="17" y="-187" font-family="Ubuntu Mono" font-size="10.00">runcompiled_</text>
<text text-anchor="start" x="4" y="-172" font-family="Ubuntu Mono" font-size="10.00">+</text>
<text text-anchor="start" x="17" y="-172" font-family="Ubuntu Mono" font-size="10.00">getEvalOnReinit()</text>
<text text-anchor="start" x="4" y="-157" font-family="Ubuntu Mono" font-size="10.00">+</text>
<text text-anchor="start" x="17" y="-157" font-family="Ubuntu Mono" font-size="10.00">getGlobals()</text>
<text text-anchor="start" x="4" y="-142" font-family="Ubuntu Mono" font-size="10.00">+</text>
<text text-anchor="start" x="17" y="-142" font-family="Ubuntu Mono" font-size="10.00">getInitString()</text>
<text text-anchor="start" x="4" y="-127" font-family="Ubuntu Mono" font-size="10.00">+</text>
<text text-anchor="start" x="17" y="-127" font-family="Ubuntu Mono" font-size="10.00">getInputVar()</text>
<text text-anchor="start" x="4" y="-112" font-family="Ubuntu Mono" font-size="10.00">+</text>
<text text-anchor="start" x="17" y="-112" font-family="Ubuntu Mono" font-size="10.00">getLocals()</text>
<text text-anchor="start" x="4" y="-97" font-family="Ubuntu Mono" font-size="10.00">+</text>
<text text-anchor="start" x="17" y="-97" font-family="Ubuntu Mono" font-size="10.00">getMode()</text>
<text text-anchor="start" x="4" y="-82" font-family="Ubuntu Mono" font-size="10.00">+</text>
<text text-anchor="start" x="17" y="-82" font-family="Ubuntu Mono" font-size="10.00">getOutputValue()</text>
<text text-anchor="start" x="4" y="-67" font-family="Ubuntu Mono" font-size="10.00">+</text>
<text text-anchor="start" x="17" y="-67" font-family="Ubuntu Mono" font-size="10.00">getOutputVar()</text>
<text text-anchor="start" x="4" y="-52" font-family="Ubuntu Mono" font-size="10.00">+</text>
<text text-anchor="start" x="17" y="-52" font-family="Ubuntu Mono" font-size="10.00">getRunString()</text>
<text text-anchor="start" x="4" y="-37" font-family="Ubuntu Mono" font-size="10.00">+</text>
<text text-anchor="start" x="17" y="-37" font-family="Ubuntu Mono" font-size="10.00">process()</text>
<text text-anchor="start" x="17" y="-22" font-family="Ubuntu Mono" font-size="10.00">and 13 more...</text>
<text text-anchor="start" x="4" y="-7" font-family="Ubuntu Mono" font-size="10.00">+</text>
<text text-anchor="start" x="17" y="-7" font-family="Ubuntu Mono" font-size="10.00">initCinfo()</text>
<polygon fill="#666666" stroke="#666666" points="0,-317 0,-317 108,-317 108,-317 0,-317"/>
<polygon fill="#666666" stroke="#666666" points="0,-182 0,-182 15,-182 15,-182 0,-182"/>
<polygon fill="#666666" stroke="#666666" points="15,-182 15,-182 108,-182 108,-182 15,-182"/>
<polygon fill="none" stroke="#666666" points="0,0 0,-334 108,-334 108,0 0,0"/>
</a>
</g>
</g>
<!-- Node2 -->
<g id="Node000002" class="node">
<title>Node2</title>
<g id="a_Node000002"><a xlink:title=" ">
<polygon fill="white" stroke="transparent" points="83.5,-463 24.5,-463 24.5,-414 83.5,-414 83.5,-463"/>
<text text-anchor="start" x="30" y="-450.5" font-family="Ubuntu Mono" font-size="10.00">std::string</text>
<text text-anchor="start" x="52.5" y="-435.5" font-family="Ubuntu Mono" font-size="10.00"> </text>
<text text-anchor="start" x="52.5" y="-420.5" font-family="Ubuntu Mono" font-size="10.00"> </text>
<polygon fill="#666666" stroke="#666666" points="25,-445.5 25,-445.5 84,-445.5 84,-445.5 25,-445.5"/>
<polygon fill="#666666" stroke="#666666" points="25,-430.5 25,-430.5 84,-430.5 84,-430.5 25,-430.5"/>
<polygon fill="none" stroke="#666666" points="24.5,-414 24.5,-463 83.5,-463 83.5,-414 24.5,-414"/>
</a>
</g>
</g>
<!-- Node2&#45;&gt;Node1 -->
<g id="edge1_Node000001_Node000002" class="edge">
<title>Node2&#45;&gt;Node1</title>
<g id="a_edge1_Node000001_Node000002"><a xlink:title=" ">
<path fill="none" stroke="#63b8ff" d="M54,-413.58C54,-396.88 54,-372.89 54,-346.38"/>
<polygon fill="none" stroke="#63b8ff" points="54,-346.03 50,-340.03 54,-334.03 58,-340.03 54,-346.03"/>
</a>
</g>
<text text-anchor="middle" x="84.5" y="-388" font-family="Ubuntu Mono" font-size="10.00" fill="grey"> #initstr_</text>
<text text-anchor="middle" x="84.5" y="-377" font-family="Ubuntu Mono" font-size="10.00" fill="grey">#inputvar_</text>
<text text-anchor="middle" x="84.5" y="-366" font-family="Ubuntu Mono" font-size="10.00" fill="grey">#outputvar_</text>
<text text-anchor="middle" x="84.5" y="-355" font-family="Ubuntu Mono" font-size="10.00" fill="grey">#runstr_</text>
</g>
<!-- Node3 -->
<g id="Node000003" class="node">
<title>Node3</title>
<g id="a_Node000003"><a xlink:title=" ">
<polygon fill="white" stroke="transparent" points="103,-560 5,-560 5,-500 103,-500 103,-560"/>
<text text-anchor="start" x="10" y="-548" font-family="Ubuntu Mono" font-size="10.00">std::basic_string&lt;</text>
<text text-anchor="start" x="35.5" y="-537" font-family="Ubuntu Mono" font-size="10.00"> Char &gt;</text>
<text text-anchor="start" x="52" y="-522" font-family="Ubuntu Mono" font-size="10.00"> </text>
<text text-anchor="start" x="52" y="-507" font-family="Ubuntu Mono" font-size="10.00"> </text>
<polygon fill="#666666" stroke="#666666" points="5,-532 5,-532 103,-532 103,-532 5,-532"/>
<polygon fill="#666666" stroke="#666666" points="5,-517 5,-517 103,-517 103,-517 5,-517"/>
<polygon fill="none" stroke="#666666" points="5,-500 5,-560 103,-560 103,-500 5,-500"/>
</a>
</g>
</g>
<!-- Node3&#45;&gt;Node2 -->
<g id="edge2_Node000002_Node000003" class="edge">
<title>Node3&#45;&gt;Node2</title>
<g id="a_edge2_Node000002_Node000003"><a xlink:title=" ">
<path fill="none" stroke="#63b8ff" d="M54,-489.41C54,-480.47 54,-471.25 54,-463.21"/>
<polygon fill="none" stroke="#63b8ff" points="50.5,-489.69 54,-499.69 57.5,-489.69 50.5,-489.69"/>
</a>
</g>
</g>
</g>
</svg>

<g id="navigator" transform="translate(0 0)" fill="#404254">
  <rect fill="#f2f5e9" fill-opacity="0.5" stroke="#606060" stroke-width=".5" x="0" y="0" width="60" height="60"/>
  <use id="zoomplus" xlink:href="#zoomPlus" x="17" y="9" onmousedown="handleZoom(evt,'in')"/>
  <use id="zoomminus" xlink:href="#zoomMin" x="42" y="9" onmousedown="handleZoom(evt,'out')"/>
  <use id="reset" xlink:href="#resetDef" x="30" y="36" onmousedown="handleReset()"/>
   <use id="arrowup" xlink:href="#arrowUp" x="0" y="0" onmousedown="handlePan(0,-1)"/>
  <use id="arrowright" xlink:href="#arrowRight" x="0" y="0" onmousedown="handlePan(1,0)"/>
  <use id="arrowdown" xlink:href="#arrowDown" x="0" y="0" onmousedown="handlePan(0,1)"/>
  <use id="arrowleft" xlink:href="#arrowLeft" x="0" y="0" onmousedown="handlePan(-1,0)"/>
</g>
<svg viewBox="0 0 15 15" width="100%" height="30px" preserveAspectRatio="xMaxYMin meet">
 <g id="arrow_out" transform="scale(0.3 0.3)">
  <a xlink:href="classPyRun__coll__graph_org.svg" target="_base">
   <rect id="button" ry="5" rx="5" y="6" x="6" height="38" width="38"
        fill="#f2f5e9" fill-opacity="0.5" stroke="#606060" stroke-width="1.0"/>
   <path id="arrow"
     d="M 11.500037,31.436501 C 11.940474,20.09759 22.043105,11.32322 32.158766,21.979434 L 37.068811,17.246167 C 37.068811,17.246167 37.088388,32 37.088388,32 L 22.160133,31.978069 C 22.160133,31.978069 26.997745,27.140456 26.997745,27.140456 C 18.528582,18.264221 13.291696,25.230495 11.500037,31.436501 z"
     style="fill:#404040;"/>
  </a>
 </g>
</svg>

<style type='text/css'>
<![CDATA[
[data-mouse-over-selected='false'] { opacity: 0.7; }
[data-mouse-over-selected='true']  { opacity: 1.0; }
]]>
</style>
<script type="application/ecmascript"><![CDATA[
document.addEventListener('DOMContentLoaded', (event) => {
  highlightEdges();
  highlightAdjacentNodes();
});
]]></script>
</svg>
