<?xml version="1.0" encoding="UTF-8" standalone="no"?>
<!DOCTYPE svg PUBLIC "-//W3C//DTD SVG 1.1//EN"
 "http://www.w3.org/Graphics/SVG/1.1/DTD/svg11.dtd">
<!-- Generated by graphviz version 2.43.0 (0)
 -->
<!-- Title: Interpol2D::interpolate Pages: 1 -->
<svg width="1075pt" height="233pt"
 viewBox="0.00 0.00 1075.00 233.00" xmlns="http://www.w3.org/2000/svg" xmlns:xlink="http://www.w3.org/1999/xlink">
<g id="graph0" class="graph" transform="scale(1 1) rotate(0) translate(4 229)">
<title>Interpol2D::interpolate</title>
<!-- Node1 -->
<g id="Node000001" class="node">
<title>Node1</title>
<g id="a_Node000001"><a xlink:title=" ">
<polygon fill="#999999" stroke="#666666" points="1067,-162 940,-162 940,-143 1067,-143 1067,-162"/>
<text text-anchor="middle" x="1003.5" y="-150" font-family="Ubuntu Mono" font-size="10.00">Interpol2D::interpolate</text>
</a>
</g>
</g>
<!-- Node2 -->
<g id="Node000002" class="node">
<title>Node2</title>
<g id="a_Node000002"><a xlink:href="classInterpol2D.html#a429f5b5fe95e125a7eed4634616a8b24" target="_top" xlink:title=" ">
<polygon fill="white" stroke="#666666" points="904,-219.5 755,-219.5 755,-189.5 904,-189.5 904,-219.5"/>
<text text-anchor="start" x="763" y="-207.5" font-family="Ubuntu Mono" font-size="10.00">Interpol2D::getInterpolated</text>
<text text-anchor="middle" x="829.5" y="-196.5" font-family="Ubuntu Mono" font-size="10.00">Value</text>
</a>
</g>
</g>
<!-- Node1&#45;&gt;Node2 -->
<g id="edge1_Node000001_Node000002" class="edge">
<title>Node1&#45;&gt;Node2</title>
<g id="a_edge1_Node000001_Node000002"><a xlink:title=" ">
<path fill="none" stroke="#63b8ff" d="M961.32,-164.95C937.02,-172.3 906.1,-181.64 880.42,-189.41"/>
<polygon fill="#63b8ff" stroke="#63b8ff" points="962.39,-168.28 970.95,-162.04 960.37,-161.58 962.39,-168.28"/>
</a>
</g>
</g>
<!-- Node4 -->
<g id="Node000004" class="node">
<title>Node4</title>
<g id="a_Node000004"><a xlink:href="classInterpol2D.html#a495083e1ffb1cb22909ddd9342de0b5e" target="_top" xlink:title=" ">
<polygon fill="white" stroke="#666666" points="896,-141 763,-141 763,-122 896,-122 896,-141"/>
<text text-anchor="middle" x="829.5" y="-129" font-family="Ubuntu Mono" font-size="10.00">Interpol2D::innerLookup</text>
</a>
</g>
</g>
<!-- Node1&#45;&gt;Node4 -->
<g id="edge3_Node000001_Node000004" class="edge">
<title>Node1&#45;&gt;Node4</title>
<g id="a_edge3_Node000001_Node000004"><a xlink:title=" ">
<path fill="none" stroke="#63b8ff" d="M929.79,-143.62C918.65,-142.26 907.2,-140.86 896.22,-139.52"/>
<polygon fill="#63b8ff" stroke="#63b8ff" points="929.57,-147.12 939.92,-144.86 930.42,-140.17 929.57,-147.12"/>
</a>
</g>
</g>
<!-- Node3 -->
<g id="Node000003" class="node">
<title>Node3</title>
<g id="a_Node000003"><a xlink:href="classInterpol2D.html#a4b9c9fad0a71a377f98959de440a4544" target="_top" xlink:title=" ">
<polygon fill="white" stroke="#666666" points="505.5,-225 390.5,-225 390.5,-206 505.5,-206 505.5,-225"/>
<text text-anchor="middle" x="448" y="-213" font-family="Ubuntu Mono" font-size="10.00">Interpol2D::initCinfo</text>
</a>
</g>
</g>
<!-- Node2&#45;&gt;Node3 -->
<g id="edge2_Node000002_Node000003" class="edge">
<title>Node2&#45;&gt;Node3</title>
<g id="a_edge2_Node000002_Node000003"><a xlink:title=" ">
<path fill="none" stroke="#63b8ff" d="M744.77,-213.78C736.08,-214.48 727.37,-215.08 719,-215.5 645.38,-219.19 560.33,-218.35 505.67,-217.15"/>
<polygon fill="#63b8ff" stroke="#63b8ff" points="745.28,-217.25 754.95,-212.91 744.69,-210.27 745.28,-217.25"/>
</a>
</g>
</g>
<!-- Node5 -->
<g id="Node000005" class="node">
<title>Node5</title>
<g id="a_Node000005"><a xlink:href="classMarkovRateTable.html#abb7424cbfd9f4fc4088cb5c6935a2c61" target="_top" xlink:title=" ">
<polygon fill="white" stroke="#666666" points="719,-168.5 568,-168.5 568,-138.5 719,-138.5 719,-168.5"/>
<text text-anchor="start" x="576" y="-156.5" font-family="Ubuntu Mono" font-size="10.00">MarkovRateTable::lookup2d</text>
<text text-anchor="middle" x="643.5" y="-145.5" font-family="Ubuntu Mono" font-size="10.00">Value</text>
</a>
</g>
</g>
<!-- Node4&#45;&gt;Node5 -->
<g id="edge4_Node000004_Node000005" class="edge">
<title>Node4&#45;&gt;Node5</title>
<g id="a_edge4_Node000004_Node000005"><a xlink:title=" ">
<path fill="none" stroke="#63b8ff" d="M752.78,-140.55C741.69,-141.88 730.28,-143.24 719.21,-144.57"/>
<polygon fill="#63b8ff" stroke="#63b8ff" points="753.34,-144.01 762.85,-139.35 752.51,-137.06 753.34,-144.01"/>
</a>
</g>
</g>
<!-- Node9 -->
<g id="Node000009" class="node">
<title>Node9</title>
<g id="a_Node000009"><a xlink:href="classHHGate2D.html#af56c7b4fb851c2caf699556e770c048e" target="_top" xlink:title=" ">
<polygon fill="white" stroke="#666666" points="700,-120 587,-120 587,-101 700,-101 700,-120"/>
<text text-anchor="middle" x="643.5" y="-108" font-family="Ubuntu Mono" font-size="10.00">HHGate2D::lookupA</text>
</a>
</g>
</g>
<!-- Node4&#45;&gt;Node9 -->
<g id="edge8_Node000004_Node000009" class="edge">
<title>Node4&#45;&gt;Node9</title>
<g id="a_edge8_Node000004_Node000009"><a xlink:title=" ">
<path fill="none" stroke="#63b8ff" d="M752.61,-122.84C735.02,-120.83 716.62,-118.73 700.09,-116.84"/>
<polygon fill="#63b8ff" stroke="#63b8ff" points="752.52,-126.35 762.85,-124.01 753.31,-119.4 752.52,-126.35"/>
</a>
</g>
</g>
<!-- Node12 -->
<g id="Node000012" class="node">
<title>Node12</title>
<g id="a_Node000012"><a xlink:href="classHHGate2D.html#aa0a2d2d2de2ee91a2af5ad88ea569bd1" target="_top" xlink:title=" ">
<polygon fill="white" stroke="#666666" points="700,-83 587,-83 587,-64 700,-64 700,-83"/>
<text text-anchor="middle" x="643.5" y="-71" font-family="Ubuntu Mono" font-size="10.00">HHGate2D::lookupB</text>
</a>
</g>
</g>
<!-- Node4&#45;&gt;Node12 -->
<g id="edge11_Node000004_Node000012" class="edge">
<title>Node4&#45;&gt;Node12</title>
<g id="a_edge11_Node000004_Node000012"><a xlink:title=" ">
<path fill="none" stroke="#63b8ff" d="M793.87,-118.24C772.46,-110.27 744.33,-100.22 719,-92.5 708.02,-89.15 696.01,-85.91 684.9,-83.08"/>
<polygon fill="#63b8ff" stroke="#63b8ff" points="792.9,-121.62 803.49,-121.85 795.36,-115.06 792.9,-121.62"/>
</a>
</g>
</g>
<!-- Node13 -->
<g id="Node000013" class="node">
<title>Node13</title>
<g id="a_Node000013"><a xlink:href="classHHGate2D.html#a2f99fa53be142de5a93f8c4992a81bf8" target="_top" xlink:title=" ">
<polygon fill="white" stroke="#666666" points="708,-46 579,-46 579,-27 708,-27 708,-46"/>
<text text-anchor="middle" x="643.5" y="-34" font-family="Ubuntu Mono" font-size="10.00">HHGate2D::lookupBoth</text>
</a>
</g>
</g>
<!-- Node4&#45;&gt;Node13 -->
<g id="edge13_Node000004_Node000013" class="edge">
<title>Node4&#45;&gt;Node13</title>
<g id="a_edge13_Node000004_Node000013"><a xlink:title=" ">
<path fill="none" stroke="#63b8ff" d="M809.75,-115.33C788.91,-98.13 753.6,-71.29 719,-55.5 710.74,-51.73 701.62,-48.62 692.66,-46.09"/>
<polygon fill="#63b8ff" stroke="#63b8ff" points="807.59,-118.08 817.5,-121.83 812.09,-112.72 807.59,-118.08"/>
</a>
</g>
</g>
<!-- Node16 -->
<g id="Node000016" class="node">
<title>Node16</title>
<g id="a_Node000016"><a xlink:href="classInterpol2D.html#a82f25c6be808dd05ae5c7898ef5331e4" target="_top" xlink:title=" ">
<polygon fill="white" stroke="#666666" points="712.5,-206 574.5,-206 574.5,-187 712.5,-187 712.5,-206"/>
<text text-anchor="middle" x="643.5" y="-194" font-family="Ubuntu Mono" font-size="10.00">Interpol2D::lookupReturn</text>
</a>
</g>
</g>
<!-- Node4&#45;&gt;Node16 -->
<g id="edge16_Node000004_Node000016" class="edge">
<title>Node4&#45;&gt;Node16</title>
<g id="a_edge16_Node000004_Node000016"><a xlink:title=" ">
<path fill="none" stroke="#63b8ff" d="M798.91,-145.34C777.13,-155.17 746.63,-168.23 719,-177.5 708.62,-180.98 697.25,-184.18 686.58,-186.92"/>
<polygon fill="#63b8ff" stroke="#63b8ff" points="800.62,-148.4 808.26,-141.07 797.71,-142.04 800.62,-148.4"/>
</a>
</g>
</g>
<!-- Node6 -->
<g id="Node000006" class="node">
<title>Node6</title>
<g id="a_Node000006"><a xlink:href="classMarkovRateTable.html#a7e21a79a3b05d0ffb1d1b8ca194f1f59" target="_top" xlink:title=" ">
<polygon fill="white" stroke="#666666" points="532,-163 364,-163 364,-144 532,-144 532,-163"/>
<text text-anchor="middle" x="448" y="-151" font-family="Ubuntu Mono" font-size="10.00">MarkovRateTable::updateRates</text>
</a>
</g>
</g>
<!-- Node5&#45;&gt;Node6 -->
<g id="edge5_Node000005_Node000006" class="edge">
<title>Node5&#45;&gt;Node6</title>
<g id="a_edge5_Node000005_Node000006"><a xlink:title=" ">
<path fill="none" stroke="#63b8ff" d="M557.71,-153.5C549.24,-153.5 540.65,-153.5 532.19,-153.5"/>
<polygon fill="#63b8ff" stroke="#63b8ff" points="557.96,-157 567.96,-153.5 557.96,-150 557.96,-157"/>
</a>
</g>
</g>
<!-- Node7 -->
<g id="Node000007" class="node">
<title>Node7</title>
<g id="a_Node000007"><a xlink:href="classMarkovRateTable.html#ac1029cbb9689c01a8f4cc7ec1d92f2d6" target="_top" xlink:title=" ">
<polygon fill="white" stroke="#666666" points="328,-163 184,-163 184,-144 328,-144 328,-163"/>
<text text-anchor="middle" x="256" y="-151" font-family="Ubuntu Mono" font-size="10.00">MarkovRateTable::process</text>
</a>
</g>
</g>
<!-- Node6&#45;&gt;Node7 -->
<g id="edge6_Node000006_Node000007" class="edge">
<title>Node6&#45;&gt;Node7</title>
<g id="a_edge6_Node000006_Node000007"><a xlink:title=" ">
<path fill="none" stroke="#63b8ff" d="M353.87,-153.5C345.27,-153.5 336.65,-153.5 328.29,-153.5"/>
<polygon fill="#63b8ff" stroke="#63b8ff" points="353.94,-157 363.94,-153.5 353.94,-150 353.94,-157"/>
</a>
</g>
</g>
<!-- Node8 -->
<g id="Node000008" class="node">
<title>Node8</title>
<g id="a_Node000008"><a xlink:href="classMarkovRateTable.html#a7e422541cbc6ac60e53e3aa057f69ff5" target="_top" xlink:title=" ">
<polygon fill="white" stroke="#666666" points="148,-163 0,-163 0,-144 148,-144 148,-163"/>
<text text-anchor="middle" x="74" y="-151" font-family="Ubuntu Mono" font-size="10.00">MarkovRateTable::initCinfo</text>
</a>
</g>
</g>
<!-- Node7&#45;&gt;Node8 -->
<g id="edge7_Node000007_Node000008" class="edge">
<title>Node7&#45;&gt;Node8</title>
<g id="a_edge7_Node000007_Node000008"><a xlink:title=" ">
<path fill="none" stroke="#63b8ff" d="M173.63,-153.5C165.18,-153.5 156.63,-153.5 148.28,-153.5"/>
<polygon fill="#63b8ff" stroke="#63b8ff" points="173.86,-157 183.86,-153.5 173.86,-150 173.86,-157"/>
</a>
</g>
</g>
<!-- Node10 -->
<g id="Node000010" class="node">
<title>Node10</title>
<g id="a_Node000010"><a xlink:href="classHHGate2D.html#a2f3690fb810e9629e9a95482518ae042" target="_top" xlink:title=" ">
<polygon fill="white" stroke="#666666" points="506,-111 390,-111 390,-92 506,-92 506,-111"/>
<text text-anchor="middle" x="448" y="-99" font-family="Ubuntu Mono" font-size="10.00">HHGate2D::initCinfo</text>
</a>
</g>
</g>
<!-- Node9&#45;&gt;Node10 -->
<g id="edge9_Node000009_Node000010" class="edge">
<title>Node9&#45;&gt;Node10</title>
<g id="a_edge9_Node000009_Node000010"><a xlink:title=" ">
<path fill="none" stroke="#63b8ff" d="M576.52,-107.43C553.72,-106.37 528.38,-105.19 506.33,-104.17"/>
<polygon fill="#63b8ff" stroke="#63b8ff" points="576.64,-110.94 586.79,-107.91 576.96,-103.95 576.64,-110.94"/>
</a>
</g>
</g>
<!-- Node11 -->
<g id="Node000011" class="node">
<title>Node11</title>
<g id="a_Node000011"><a xlink:href="classHHChannel2D.html#a5800af098b3e10bdf6563db3504e2cae" target="_top" xlink:title=" ">
<polygon fill="white" stroke="#666666" points="322,-111 190,-111 190,-92 322,-92 322,-111"/>
<text text-anchor="middle" x="256" y="-99" font-family="Ubuntu Mono" font-size="10.00">HHChannel2D::initCinfo</text>
</a>
</g>
</g>
<!-- Node10&#45;&gt;Node11 -->
<g id="edge10_Node000010_Node000011" class="edge">
<title>Node10&#45;&gt;Node11</title>
<g id="a_edge10_Node000010_Node000011"><a xlink:title=" ">
<path fill="none" stroke="#63b8ff" d="M379.8,-101.5C361.12,-101.5 340.87,-101.5 322.3,-101.5"/>
<polygon fill="#63b8ff" stroke="#63b8ff" points="379.99,-105 389.99,-101.5 379.99,-98 379.99,-105"/>
</a>
</g>
</g>
<!-- Node12&#45;&gt;Node10 -->
<g id="edge12_Node000012_Node000010" class="edge">
<title>Node12&#45;&gt;Node10</title>
<g id="a_edge12_Node000012_Node000010"><a xlink:title=" ">
<path fill="none" stroke="#63b8ff" d="M576.82,-83C553.95,-86.31 528.48,-90 506.33,-93.2"/>
<polygon fill="#63b8ff" stroke="#63b8ff" points="577.4,-86.46 586.79,-81.56 576.39,-79.53 577.4,-86.46"/>
</a>
</g>
</g>
<!-- Node14 -->
<g id="Node000014" class="node">
<title>Node14</title>
<g id="a_Node000014"><a xlink:href="classHHChannel2D.html#a64e960ca945790fe2bcf5dc4eee15da7" target="_top" xlink:title=" ">
<polygon fill="white" stroke="#666666" points="515,-56 381,-56 381,-37 515,-37 515,-56"/>
<text text-anchor="middle" x="448" y="-44" font-family="Ubuntu Mono" font-size="10.00">HHChannel2D::vProcess</text>
</a>
</g>
</g>
<!-- Node13&#45;&gt;Node14 -->
<g id="edge14_Node000013_Node000014" class="edge">
<title>Node13&#45;&gt;Node14</title>
<g id="a_edge14_Node000013_Node000014"><a xlink:title=" ">
<path fill="none" stroke="#63b8ff" d="M568.68,-40.31C551.13,-41.22 532.51,-42.18 515.32,-43.07"/>
<polygon fill="#63b8ff" stroke="#63b8ff" points="569.07,-43.8 578.87,-39.79 568.71,-36.81 569.07,-43.8"/>
</a>
</g>
</g>
<!-- Node15 -->
<g id="Node000015" class="node">
<title>Node15</title>
<g id="a_Node000015"><a xlink:href="classHHChannel2D.html#a61586448a1588f3a1404ebd607f16a31" target="_top" xlink:title=" ">
<polygon fill="white" stroke="#666666" points="510.5,-19 385.5,-19 385.5,0 510.5,0 510.5,-19"/>
<text text-anchor="middle" x="448" y="-7" font-family="Ubuntu Mono" font-size="10.00">HHChannel2D::vReinit</text>
</a>
</g>
</g>
<!-- Node13&#45;&gt;Node15 -->
<g id="edge15_Node000013_Node000015" class="edge">
<title>Node13&#45;&gt;Node15</title>
<g id="a_edge15_Node000013_Node000015"><a xlink:title=" ">
<path fill="none" stroke="#63b8ff" d="M568.96,-26.24C549.74,-23.56 529.22,-20.69 510.69,-18.11"/>
<polygon fill="#63b8ff" stroke="#63b8ff" points="568.49,-29.71 578.87,-27.62 569.45,-22.77 568.49,-29.71"/>
</a>
</g>
</g>
<!-- Node16&#45;&gt;Node3 -->
<g id="edge17_Node000016_Node000003" class="edge">
<title>Node16&#45;&gt;Node3</title>
<g id="a_edge17_Node000016_Node000003"><a xlink:title=" ">
<path fill="none" stroke="#63b8ff" d="M564.17,-204.19C544.61,-206.11 524.02,-208.13 505.74,-209.93"/>
<polygon fill="#63b8ff" stroke="#63b8ff" points="564.67,-207.66 574.28,-203.2 563.98,-200.69 564.67,-207.66"/>
</a>
</g>
</g>
</g>
</svg>
