<?xml version="1.0" encoding="UTF-8" standalone="no"?>
<!DOCTYPE svg PUBLIC "-//W3C//DTD SVG 1.1//EN"
 "http://www.w3.org/Graphics/SVG/1.1/DTD/svg11.dtd">
<!-- Generated by graphviz version 2.43.0 (0)
 -->
<!-- Title: FirstOrder Pages: 1 -->
<svg width="133pt" height="587pt"
 viewBox="0.00 0.00 133.00 587.00" xmlns="http://www.w3.org/2000/svg" xmlns:xlink="http://www.w3.org/1999/xlink">
<g id="graph0" class="graph" transform="scale(1 1) rotate(0) translate(4 583)">
<title>FirstOrder</title>
<!-- Node1 -->
<g id="Node000001" class="node">
<title>Node1</title>
<g id="a_Node000001"><a xlink:title=" ">
<polygon fill="#999999" stroke="transparent" points="125,-109 0,-109 0,0 125,0 125,-109"/>
<text text-anchor="start" x="38.5" y="-96.5" font-family="Ubuntu Mono" font-size="10.00">FirstOrder</text>
<text text-anchor="start" x="7" y="-81.5" font-family="Ubuntu Mono" font-size="10.00">&#45;</text>
<text text-anchor="start" x="17.5" y="-81.5" font-family="Ubuntu Mono" font-size="10.00">y_</text>
<text text-anchor="start" x="4.5" y="-66.5" font-family="Ubuntu Mono" font-size="10.00">+</text>
<text text-anchor="start" x="17.5" y="-66.5" font-family="Ubuntu Mono" font-size="10.00">copyWithVolScaling()</text>
<text text-anchor="start" x="4.5" y="-51.5" font-family="Ubuntu Mono" font-size="10.00">+</text>
<text text-anchor="start" x="17.5" y="-51.5" font-family="Ubuntu Mono" font-size="10.00">FirstOrder()</text>
<text text-anchor="start" x="4.5" y="-36.5" font-family="Ubuntu Mono" font-size="10.00">+</text>
<text text-anchor="start" x="17.5" y="-36.5" font-family="Ubuntu Mono" font-size="10.00">getReactants()</text>
<text text-anchor="start" x="4.5" y="-21.5" font-family="Ubuntu Mono" font-size="10.00">+</text>
<text text-anchor="start" x="17.5" y="-21.5" font-family="Ubuntu Mono" font-size="10.00">operator()()</text>
<text text-anchor="start" x="4.5" y="-6.5" font-family="Ubuntu Mono" font-size="10.00">+</text>
<text text-anchor="start" x="17.5" y="-6.5" font-family="Ubuntu Mono" font-size="10.00">rescaleVolume()</text>
<polygon fill="#666666" stroke="#666666" points="0.5,-91.5 0.5,-91.5 125.5,-91.5 125.5,-91.5 0.5,-91.5"/>
<polygon fill="#666666" stroke="#666666" points="0.5,-76.5 0.5,-76.5 15.5,-76.5 15.5,-76.5 0.5,-76.5"/>
<polygon fill="#666666" stroke="#666666" points="15.5,-76.5 15.5,-76.5 125.5,-76.5 125.5,-76.5 15.5,-76.5"/>
<polygon fill="none" stroke="#666666" points="0,0 0,-109 125,-109 125,0 0,0"/>
</a>
</g>
</g>
<!-- Node2 -->
<g id="Node000002" class="node">
<title>Node2</title>
<g id="a_Node000002"><a xlink:href="classZeroOrder.html" target="_top" xlink:title=" ">
<polygon fill="white" stroke="transparent" points="125,-344 0,-344 0,-145 125,-145 125,-344"/>
<text text-anchor="start" x="38" y="-331.5" font-family="Ubuntu Mono" font-size="10.00">ZeroOrder</text>
<text text-anchor="start" x="4.5" y="-316.5" font-family="Ubuntu Mono" font-size="10.00">#</text>
<text text-anchor="start" x="17.5" y="-316.5" font-family="Ubuntu Mono" font-size="10.00">k_</text>
<text text-anchor="start" x="4.5" y="-301.5" font-family="Ubuntu Mono" font-size="10.00">+</text>
<text text-anchor="start" x="17.5" y="-301.5" font-family="Ubuntu Mono" font-size="10.00">copyWithVolScaling()</text>
<text text-anchor="start" x="4.5" y="-286.5" font-family="Ubuntu Mono" font-size="10.00">+</text>
<text text-anchor="start" x="17.5" y="-286.5" font-family="Ubuntu Mono" font-size="10.00">getR1()</text>
<text text-anchor="start" x="4.5" y="-271.5" font-family="Ubuntu Mono" font-size="10.00">+</text>
<text text-anchor="start" x="17.5" y="-271.5" font-family="Ubuntu Mono" font-size="10.00">getR2()</text>
<text text-anchor="start" x="4.5" y="-256.5" font-family="Ubuntu Mono" font-size="10.00">+</text>
<text text-anchor="start" x="17.5" y="-256.5" font-family="Ubuntu Mono" font-size="10.00">getReactants()</text>
<text text-anchor="start" x="4.5" y="-241.5" font-family="Ubuntu Mono" font-size="10.00">+</text>
<text text-anchor="start" x="17.5" y="-241.5" font-family="Ubuntu Mono" font-size="10.00">operator()()</text>
<text text-anchor="start" x="4.5" y="-226.5" font-family="Ubuntu Mono" font-size="10.00">+</text>
<text text-anchor="start" x="17.5" y="-226.5" font-family="Ubuntu Mono" font-size="10.00">rescaleVolume()</text>
<text text-anchor="start" x="4.5" y="-211.5" font-family="Ubuntu Mono" font-size="10.00">+</text>
<text text-anchor="start" x="17.5" y="-211.5" font-family="Ubuntu Mono" font-size="10.00">setK()</text>
<text text-anchor="start" x="4.5" y="-196.5" font-family="Ubuntu Mono" font-size="10.00">+</text>
<text text-anchor="start" x="17.5" y="-196.5" font-family="Ubuntu Mono" font-size="10.00">setR1()</text>
<text text-anchor="start" x="4.5" y="-181.5" font-family="Ubuntu Mono" font-size="10.00">+</text>
<text text-anchor="start" x="17.5" y="-181.5" font-family="Ubuntu Mono" font-size="10.00">setR2()</text>
<text text-anchor="start" x="4.5" y="-166.5" font-family="Ubuntu Mono" font-size="10.00">+</text>
<text text-anchor="start" x="17.5" y="-166.5" font-family="Ubuntu Mono" font-size="10.00">setRates()</text>
<text text-anchor="start" x="4.5" y="-151.5" font-family="Ubuntu Mono" font-size="10.00">+</text>
<text text-anchor="start" x="17.5" y="-151.5" font-family="Ubuntu Mono" font-size="10.00">ZeroOrder()</text>
<polygon fill="#666666" stroke="#666666" points="0.5,-326.5 0.5,-326.5 125.5,-326.5 125.5,-326.5 0.5,-326.5"/>
<polygon fill="#666666" stroke="#666666" points="0.5,-311.5 0.5,-311.5 15.5,-311.5 15.5,-311.5 0.5,-311.5"/>
<polygon fill="#666666" stroke="#666666" points="15.5,-311.5 15.5,-311.5 125.5,-311.5 125.5,-311.5 15.5,-311.5"/>
<polygon fill="none" stroke="#666666" points="0,-145 0,-344 125,-344 125,-145 0,-145"/>
</a>
</g>
</g>
<!-- Node2&#45;&gt;Node1 -->
<g id="edge1_Node000001_Node000002" class="edge">
<title>Node2&#45;&gt;Node1</title>
<g id="a_edge1_Node000001_Node000002"><a xlink:title=" ">
<path fill="none" stroke="#63b8ff" d="M62.5,-134.54C62.5,-125.84 62.5,-117.31 62.5,-109.27"/>
<polygon fill="none" stroke="#63b8ff" points="59,-134.82 62.5,-144.82 66,-134.82 59,-134.82"/>
</a>
</g>
</g>
<!-- Node3 -->
<g id="Node000003" class="node">
<title>Node3</title>
<g id="a_Node000003"><a xlink:href="classRateTerm.html" target="_top" xlink:title=" ">
<polygon fill="white" stroke="transparent" points="125,-579 0,-579 0,-380 125,-380 125,-579"/>
<text text-anchor="start" x="39.5" y="-566.5" font-family="Ubuntu Mono" font-size="10.00">RateTerm</text>
<text text-anchor="start" x="4.5" y="-551.5" font-family="Ubuntu Mono" font-size="10.00">+</text>
<text text-anchor="start" x="17.5" y="-551.5" font-family="Ubuntu Mono" font-size="10.00">EPSILON</text>
<text text-anchor="start" x="4.5" y="-536.5" font-family="Ubuntu Mono" font-size="10.00">+</text>
<text text-anchor="start" x="17.5" y="-536.5" font-family="Ubuntu Mono" font-size="10.00">copyWithVolScaling()</text>
<text text-anchor="start" x="4.5" y="-521.5" font-family="Ubuntu Mono" font-size="10.00">+</text>
<text text-anchor="start" x="17.5" y="-521.5" font-family="Ubuntu Mono" font-size="10.00">getR1()</text>
<text text-anchor="start" x="4.5" y="-506.5" font-family="Ubuntu Mono" font-size="10.00">+</text>
<text text-anchor="start" x="17.5" y="-506.5" font-family="Ubuntu Mono" font-size="10.00">getR2()</text>
<text text-anchor="start" x="4.5" y="-491.5" font-family="Ubuntu Mono" font-size="10.00">+</text>
<text text-anchor="start" x="17.5" y="-491.5" font-family="Ubuntu Mono" font-size="10.00">getReactants()</text>
<text text-anchor="start" x="4.5" y="-476.5" font-family="Ubuntu Mono" font-size="10.00">+</text>
<text text-anchor="start" x="17.5" y="-476.5" font-family="Ubuntu Mono" font-size="10.00">operator()()</text>
<text text-anchor="start" x="4.5" y="-461.5" font-family="Ubuntu Mono" font-size="10.00">+</text>
<text text-anchor="start" x="17.5" y="-461.5" font-family="Ubuntu Mono" font-size="10.00">RateTerm()</text>
<text text-anchor="start" x="4.5" y="-446.5" font-family="Ubuntu Mono" font-size="10.00">+</text>
<text text-anchor="start" x="17.5" y="-446.5" font-family="Ubuntu Mono" font-size="10.00">rescaleVolume()</text>
<text text-anchor="start" x="4.5" y="-431.5" font-family="Ubuntu Mono" font-size="10.00">+</text>
<text text-anchor="start" x="17.5" y="-431.5" font-family="Ubuntu Mono" font-size="10.00">setR1()</text>
<text text-anchor="start" x="4.5" y="-416.5" font-family="Ubuntu Mono" font-size="10.00">+</text>
<text text-anchor="start" x="17.5" y="-416.5" font-family="Ubuntu Mono" font-size="10.00">setR2()</text>
<text text-anchor="start" x="4.5" y="-401.5" font-family="Ubuntu Mono" font-size="10.00">+</text>
<text text-anchor="start" x="17.5" y="-401.5" font-family="Ubuntu Mono" font-size="10.00">setRates()</text>
<text text-anchor="start" x="4.5" y="-386.5" font-family="Ubuntu Mono" font-size="10.00">+</text>
<text text-anchor="start" x="17.5" y="-386.5" font-family="Ubuntu Mono" font-size="10.00">~RateTerm()</text>
<polygon fill="#666666" stroke="#666666" points="0.5,-561.5 0.5,-561.5 125.5,-561.5 125.5,-561.5 0.5,-561.5"/>
<polygon fill="#666666" stroke="#666666" points="0.5,-546.5 0.5,-546.5 15.5,-546.5 15.5,-546.5 0.5,-546.5"/>
<polygon fill="#666666" stroke="#666666" points="15.5,-546.5 15.5,-546.5 125.5,-546.5 125.5,-546.5 15.5,-546.5"/>
<polygon fill="none" stroke="#666666" points="0,-380 0,-579 125,-579 125,-380 0,-380"/>
</a>
</g>
</g>
<!-- Node3&#45;&gt;Node2 -->
<g id="edge2_Node000002_Node000003" class="edge">
<title>Node3&#45;&gt;Node2</title>
<g id="a_edge2_Node000002_Node000003"><a xlink:title=" ">
<path fill="none" stroke="#63b8ff" d="M62.5,-369.42C62.5,-360.97 62.5,-352.47 62.5,-344.09"/>
<polygon fill="none" stroke="#63b8ff" points="59,-369.69 62.5,-379.69 66,-369.69 59,-369.69"/>
</a>
</g>
</g>
</g>
</svg>
