<?xml version="1.0" encoding="UTF-8" standalone="no"?>
<!DOCTYPE svg PUBLIC "-//W3C//DTD SVG 1.1//EN"
 "http://www.w3.org/Graphics/SVG/1.1/DTD/svg11.dtd">
<!-- Generated by graphviz version 2.43.0 (0)
 -->
<!-- Title: MeshEntry::getNeighbors Pages: 1 -->
<svg width="332pt" height="64pt"
 viewBox="0.00 0.00 332.00 64.00" xmlns="http://www.w3.org/2000/svg" xmlns:xlink="http://www.w3.org/1999/xlink">
<g id="graph0" class="graph" transform="scale(1 1) rotate(0) translate(4 60)">
<title>MeshEntry::getNeighbors</title>
<!-- Node1 -->
<g id="Node000001" class="node">
<title>Node1</title>
<g id="a_Node000001"><a xlink:title=" ">
<polygon fill="#999999" stroke="#666666" points="139,-37 0,-37 0,-18 139,-18 139,-37"/>
<text text-anchor="middle" x="69.5" y="-25" font-family="Ubuntu Mono" font-size="10.00">MeshEntry::getNeighbors</text>
</a>
</g>
</g>
<!-- Node2 -->
<g id="Node000002" class="node">
<title>Node2</title>
<g id="a_Node000002"><a xlink:href="classEref.html#aed748cb72c986c869e4c650dd28d8d02" target="_top" xlink:title=" ">
<polygon fill="white" stroke="#666666" points="294,-56 205,-56 205,-37 294,-37 294,-56"/>
<text text-anchor="middle" x="249.5" y="-44" font-family="Ubuntu Mono" font-size="10.00">Eref::fieldIndex</text>
</a>
</g>
</g>
<!-- Node1&#45;&gt;Node2 -->
<g id="edge1_Node000001_Node000002" class="edge">
<title>Node1&#45;&gt;Node2</title>
<g id="a_edge1_Node000001_Node000002"><a xlink:title=" ">
<path fill="none" stroke="#63b8ff" d="M139.06,-34.82C157.57,-36.79 177.31,-38.9 194.87,-40.78"/>
<polygon fill="#63b8ff" stroke="#63b8ff" points="194.61,-44.27 204.93,-41.85 195.35,-37.31 194.61,-44.27"/>
</a>
</g>
</g>
<!-- Node3 -->
<g id="Node000003" class="node">
<title>Node3</title>
<g id="a_Node000003"><a xlink:href="classChemCompt.html#a426bea293c2987a1cb7cfa8d3fec2ee2" target="_top" xlink:title="Virtual function to return info on Entries connected to this one.">
<polygon fill="white" stroke="#666666" points="324,-19 175,-19 175,0 324,0 324,-19"/>
<text text-anchor="middle" x="249.5" y="-7" font-family="Ubuntu Mono" font-size="10.00">ChemCompt::getNeighbors</text>
</a>
</g>
</g>
<!-- Node1&#45;&gt;Node3 -->
<g id="edge2_Node000001_Node000003" class="edge">
<title>Node1&#45;&gt;Node3</title>
<g id="a_edge2_Node000001_Node000003"><a xlink:title=" ">
<path fill="none" stroke="#63b8ff" d="M139.06,-20.57C147.51,-19.71 156.22,-18.83 164.86,-17.96"/>
<polygon fill="#63b8ff" stroke="#63b8ff" points="165.35,-21.43 174.95,-16.94 164.65,-14.46 165.35,-21.43"/>
</a>
</g>
</g>
</g>
</svg>
