<?xml version="1.0" encoding="UTF-8" standalone="no"?>
<!DOCTYPE svg PUBLIC "-//W3C//DTD SVG 1.1//EN"
 "http://www.w3.org/Graphics/SVG/1.1/DTD/svg11.dtd">
<!-- Generated by graphviz version 2.43.0 (0)
 -->
<!-- Title: EndoMesh::vGetVoxelVolume Pages: 1 -->
<svg width="1098pt" height="150pt"
 viewBox="0.00 0.00 1098.00 149.50" xmlns="http://www.w3.org/2000/svg" xmlns:xlink="http://www.w3.org/1999/xlink">
<g id="graph0" class="graph" transform="scale(1 1) rotate(0) translate(4 145.5)">
<title>EndoMesh::vGetVoxelVolume</title>
<!-- Node1 -->
<g id="Node000001" class="node">
<title>Node1</title>
<g id="a_Node000001"><a xlink:title="Virtual func so that derived classes can pass voxel volume back.">
<polygon fill="#999999" stroke="#666666" points="1090,-63.5 931,-63.5 931,-44.5 1090,-44.5 1090,-63.5"/>
<text text-anchor="middle" x="1010.5" y="-51.5" font-family="Ubuntu Mono" font-size="10.00">EndoMesh::vGetVoxelVolume</text>
</a>
</g>
</g>
<!-- Node2 -->
<g id="Node000002" class="node">
<title>Node2</title>
<g id="a_Node000002"><a xlink:href="classEndoMesh.html#a77e7321f762d13a06de933f335bf50da" target="_top" xlink:title=" ">
<polygon fill="white" stroke="#666666" points="895,-85.5 731,-85.5 731,-66.5 895,-66.5 895,-85.5"/>
<text text-anchor="middle" x="813" y="-73.5" font-family="Ubuntu Mono" font-size="10.00">EndoMesh::matchMeshEntries</text>
</a>
</g>
</g>
<!-- Node1&#45;&gt;Node2 -->
<g id="edge1_Node000001_Node000002" class="edge">
<title>Node1&#45;&gt;Node2</title>
<g id="a_edge1_Node000001_Node000002"><a xlink:title=" ">
<path fill="none" stroke="#63b8ff" d="M920.82,-63.98C912.24,-64.95 903.56,-65.92 895.06,-66.88"/>
<polygon fill="#63b8ff" stroke="#63b8ff" points="921.28,-67.45 930.83,-62.85 920.5,-60.49 921.28,-67.45"/>
</a>
</g>
</g>
<!-- Node10 -->
<g id="Node000010" class="node">
<title>Node10</title>
<g id="a_Node000010"><a xlink:href="classEndoMesh.html#ad2339b22f7490c7cc4615eeadc4934ab" target="_top" xlink:title="Inherited virtual. Returns entire volume of compartment.">
<polygon fill="white" stroke="#666666" points="893.5,-45.5 732.5,-45.5 732.5,-26.5 893.5,-26.5 893.5,-45.5"/>
<text text-anchor="middle" x="813" y="-33.5" font-family="Ubuntu Mono" font-size="10.00">EndoMesh::vGetEntireVolume</text>
</a>
</g>
</g>
<!-- Node1&#45;&gt;Node10 -->
<g id="edge11_Node000001_Node000010" class="edge">
<title>Node1&#45;&gt;Node10</title>
<g id="a_edge11_Node000001_Node000010"><a xlink:title=" ">
<path fill="none" stroke="#63b8ff" d="M920.74,-45.83C911.76,-45 902.67,-44.16 893.79,-43.35"/>
<polygon fill="#63b8ff" stroke="#63b8ff" points="920.55,-49.32 930.83,-46.76 921.19,-42.35 920.55,-49.32"/>
</a>
</g>
</g>
<!-- Node3 -->
<g id="Node000003" class="node">
<title>Node3</title>
<g id="a_Node000003"><a xlink:href="classCylMesh.html#a48c7586a88efb888be82cab3ddd77c6a" target="_top" xlink:title=" ">
<polygon fill="white" stroke="#666666" points="686.5,-141.5 531.5,-141.5 531.5,-122.5 686.5,-122.5 686.5,-141.5"/>
<text text-anchor="middle" x="609" y="-129.5" font-family="Ubuntu Mono" font-size="10.00">CylMesh::matchMeshEntries</text>
</a>
</g>
</g>
<!-- Node2&#45;&gt;Node3 -->
<g id="edge2_Node000002_Node000003" class="edge">
<title>Node2&#45;&gt;Node3</title>
<g id="a_edge2_Node000002_Node000003"><a xlink:title=" ">
<path fill="none" stroke="#63b8ff" d="M775.62,-88.91C752.68,-96.78 722.32,-106.69 695,-114 683.63,-117.04 671.3,-119.9 659.65,-122.4"/>
<polygon fill="#63b8ff" stroke="#63b8ff" points="776.98,-92.14 785.29,-85.57 774.69,-85.53 776.98,-92.14"/>
</a>
</g>
</g>
<!-- Node4 -->
<g id="Node000004" class="node">
<title>Node4</title>
<g id="a_Node000004"><a xlink:href="classCubeMesh.html#a70f68ef447c9887db376e002e4cecaa2" target="_top" xlink:title=" ">
<polygon fill="white" stroke="#666666" points="691,-104.5 527,-104.5 527,-85.5 691,-85.5 691,-104.5"/>
<text text-anchor="middle" x="609" y="-92.5" font-family="Ubuntu Mono" font-size="10.00">CubeMesh::matchMeshEntries</text>
</a>
</g>
</g>
<!-- Node2&#45;&gt;Node4 -->
<g id="edge3_Node000002_Node000004" class="edge">
<title>Node2&#45;&gt;Node4</title>
<g id="a_edge3_Node000002_Node000004"><a xlink:title=" ">
<path fill="none" stroke="#63b8ff" d="M720.55,-84.6C710.73,-85.52 700.8,-86.46 691.12,-87.37"/>
<polygon fill="#63b8ff" stroke="#63b8ff" points="721.08,-88.07 730.71,-83.65 720.43,-81.1 721.08,-88.07"/>
</a>
</g>
</g>
<!-- Node9 -->
<g id="Node000009" class="node">
<title>Node9</title>
<g id="a_Node000009"><a xlink:href="classNeuroMesh.html#a87f8811cba83e45b1a24c8da92aa0fc0" target="_top" xlink:title=" ">
<polygon fill="white" stroke="#666666" points="693.5,-67.5 524.5,-67.5 524.5,-48.5 693.5,-48.5 693.5,-67.5"/>
<text text-anchor="middle" x="609" y="-55.5" font-family="Ubuntu Mono" font-size="10.00">NeuroMesh::matchMeshEntries</text>
</a>
</g>
</g>
<!-- Node2&#45;&gt;Node9 -->
<g id="edge10_Node000002_Node000009" class="edge">
<title>Node2&#45;&gt;Node9</title>
<g id="a_edge10_Node000002_Node000009"><a xlink:title=" ">
<path fill="none" stroke="#63b8ff" d="M720.66,-67.86C711.7,-67.06 702.64,-66.25 693.76,-65.46"/>
<polygon fill="#63b8ff" stroke="#63b8ff" points="720.44,-71.36 730.71,-68.76 721.06,-64.38 720.44,-71.36"/>
</a>
</g>
</g>
<!-- Node5 -->
<g id="Node000005" class="node">
<title>Node5</title>
<g id="a_Node000005"><a xlink:href="classCubeMesh.html#a6fcb94a3d173f908d73f3ca560d740e5" target="_top" xlink:title=" ">
<polygon fill="white" stroke="#666666" points="487,-104.5 298,-104.5 298,-85.5 487,-85.5 487,-104.5"/>
<text text-anchor="middle" x="392.5" y="-92.5" font-family="Ubuntu Mono" font-size="10.00">CubeMesh::matchCubeMeshEntries</text>
</a>
</g>
</g>
<!-- Node4&#45;&gt;Node5 -->
<g id="edge4_Node000004_Node000005" class="edge">
<title>Node4&#45;&gt;Node5</title>
<g id="a_edge4_Node000004_Node000005"><a xlink:title=" ">
<path fill="none" stroke="#63b8ff" d="M516.81,-88.32C507.05,-88.23 497.1,-88.23 487.31,-88.3"/>
<polygon fill="#63b8ff" stroke="#63b8ff" points="516.87,-91.82 526.91,-88.43 516.95,-84.82 516.87,-91.82"/>
</a>
</g>
</g>
<!-- Node5&#45;&gt;Node4 -->
<g id="edge5_Node000005_Node000004" class="edge">
<title>Node5&#45;&gt;Node4</title>
<g id="a_edge5_Node000005_Node000004"><a xlink:title=" ">
<path fill="none" stroke="#63b8ff" d="M497.55,-101.75C507.41,-101.76 517.31,-101.7 526.91,-101.57"/>
<polygon fill="#63b8ff" stroke="#63b8ff" points="497.32,-98.25 487.31,-101.7 497.29,-105.25 497.32,-98.25"/>
</a>
</g>
</g>
<!-- Node6 -->
<g id="Node000006" class="node">
<title>Node6</title>
<g id="a_Node000006"><a xlink:href="testMesh_8cpp.html#aa1be082304257fa19c2b78cc76269402" target="_top" xlink:title=" ">
<polygon fill="white" stroke="#666666" points="251.5,-134 108.5,-134 108.5,-104 251.5,-104 251.5,-134"/>
<text text-anchor="start" x="116.5" y="-122" font-family="Ubuntu Mono" font-size="10.00">testCubeMeshJunctionDiff</text>
<text text-anchor="middle" x="180" y="-111" font-family="Ubuntu Mono" font-size="10.00">SizeMesh</text>
</a>
</g>
</g>
<!-- Node5&#45;&gt;Node6 -->
<g id="edge6_Node000005_Node000006" class="edge">
<title>Node5&#45;&gt;Node6</title>
<g id="a_edge6_Node000005_Node000006"><a xlink:title=" ">
<path fill="none" stroke="#63b8ff" d="M297.84,-105.68C282.27,-107.45 266.37,-109.27 251.5,-110.96"/>
<polygon fill="#63b8ff" stroke="#63b8ff" points="298.46,-109.13 308,-104.52 297.67,-102.18 298.46,-109.13"/>
</a>
</g>
</g>
<!-- Node8 -->
<g id="Node000008" class="node">
<title>Node8</title>
<g id="a_Node000008"><a xlink:href="testMesh_8cpp.html#a36ab78666a2324434478067a6c5295f1" target="_top" xlink:title=" ">
<polygon fill="white" stroke="#666666" points="262,-86 98,-86 98,-56 262,-56 262,-86"/>
<text text-anchor="start" x="106" y="-74" font-family="Ubuntu Mono" font-size="10.00">testCubeMeshJunctionTwoDim</text>
<text text-anchor="middle" x="180" y="-63" font-family="Ubuntu Mono" font-size="10.00">Surface</text>
</a>
</g>
</g>
<!-- Node5&#45;&gt;Node8 -->
<g id="edge8_Node000005_Node000008" class="edge">
<title>Node5&#45;&gt;Node8</title>
<g id="a_edge8_Node000005_Node000008"><a xlink:title=" ">
<path fill="none" stroke="#63b8ff" d="M298.06,-84.35C286.15,-82.99 274.03,-81.61 262.33,-80.27"/>
<polygon fill="#63b8ff" stroke="#63b8ff" points="297.67,-87.82 308,-85.48 298.46,-80.87 297.67,-87.82"/>
</a>
</g>
</g>
<!-- Node7 -->
<g id="Node000007" class="node">
<title>Node7</title>
<g id="a_Node000007"><a xlink:href="testMesh_8cpp.html#a02dc1e0f9b4ca2aaf1c8ad1903d71165" target="_top" xlink:title=" ">
<polygon fill="white" stroke="#666666" points="62,-104.5 0,-104.5 0,-85.5 62,-85.5 62,-104.5"/>
<text text-anchor="middle" x="31" y="-92.5" font-family="Ubuntu Mono" font-size="10.00">testMesh</text>
</a>
</g>
</g>
<!-- Node6&#45;&gt;Node7 -->
<g id="edge7_Node000006_Node000007" class="edge">
<title>Node6&#45;&gt;Node7</title>
<g id="a_edge7_Node000006_Node000007"><a xlink:title=" ">
<path fill="none" stroke="#63b8ff" d="M97.87,-105.75C85.18,-103.68 72.79,-101.66 62.25,-99.94"/>
<polygon fill="#63b8ff" stroke="#63b8ff" points="97.65,-109.26 108.08,-107.42 98.78,-102.36 97.65,-109.26"/>
</a>
</g>
</g>
<!-- Node8&#45;&gt;Node7 -->
<g id="edge9_Node000008_Node000007" class="edge">
<title>Node8&#45;&gt;Node7</title>
<g id="a_edge9_Node000008_Node000007"><a xlink:title=" ">
<path fill="none" stroke="#63b8ff" d="M87.7,-85.91C78.54,-87.4 69.77,-88.83 62.01,-90.1"/>
<polygon fill="#63b8ff" stroke="#63b8ff" points="88.46,-89.33 97.76,-84.26 87.33,-82.42 88.46,-89.33"/>
</a>
</g>
</g>
<!-- Node11 -->
<g id="Node000011" class="node">
<title>Node11</title>
<g id="a_Node000011"><a xlink:href="classEndoMesh.html#a40ab1c68a31df6883d5ac79fa0eba093" target="_top" xlink:title="More inherited virtual funcs: request comes in for mesh stats.">
<polygon fill="white" stroke="#666666" points="695,-30 523,-30 523,0 695,0 695,-30"/>
<text text-anchor="start" x="531" y="-18" font-family="Ubuntu Mono" font-size="10.00">EndoMesh::innerHandleRequest</text>
<text text-anchor="middle" x="609" y="-7" font-family="Ubuntu Mono" font-size="10.00">MeshStats</text>
</a>
</g>
</g>
<!-- Node10&#45;&gt;Node11 -->
<g id="edge12_Node000010_Node000011" class="edge">
<title>Node10&#45;&gt;Node11</title>
<g id="a_edge12_Node000010_Node000011"><a xlink:title=" ">
<path fill="none" stroke="#63b8ff" d="M722.32,-26.68C713.28,-25.74 704.12,-24.78 695.13,-23.85"/>
<polygon fill="#63b8ff" stroke="#63b8ff" points="722.15,-30.18 732.45,-27.73 722.87,-23.22 722.15,-30.18"/>
</a>
</g>
</g>
</g>
</svg>
