<?xml version="1.0" encoding="UTF-8" standalone="no"?>
<!DOCTYPE svg PUBLIC "-//W3C//DTD SVG 1.1//EN"
 "http://www.w3.org/Graphics/SVG/1.1/DTD/svg11.dtd">
<!-- Generated by graphviz version 2.43.0 (0)
 -->
<!-- Title: SparseMsg::tripletFill1 Pages: 1 -->
<!--zoomable 360 -->

<svg id="main" version="1.1" xmlns="http://www.w3.org/2000/svg" xmlns:xlink="http://www.w3.org/1999/xlink" xml:space="preserve" onload="init(evt)">
<style type="text/css"><![CDATA[
.node, .edge {opacity: 0.7;}
.node.selected, .edge.selected {opacity: 1;}
.edge:hover path { stroke: red; }
.edge:hover polygon { stroke: red; fill: red; }
]]></style>

<defs>
  <circle id="rim" cx="0" cy="0" r="7"/>
  <circle id="rim2" cx="0" cy="0" r="3.5"/>
  <g id="zoomPlus">
    <use xlink:href="#rim" fill="#404040"><set attributeName="fill" to="#808080" begin="zoomplus.mouseover" end="zoomplus.mouseout"/></use>
    <path d="M-4,0h8M0,-4v8" fill="none" stroke="white" stroke-width="1.5" pointer-events="none"/>
  </g>
  <g id="zoomMin">
    <use xlink:href="#rim" fill="#404040"><set attributeName="fill" to="#808080" begin="zoomminus.mouseover" end="zoomminus.mouseout"/></use>
    <path d="M-4,0h8" fill="none" stroke="white" stroke-width="1.5" pointer-events="none"/>
  </g>
  <g id="arrowUp" transform="translate(30 24)">
    <use xlink:href="#rim"/>
    <path pointer-events="none" fill="none" stroke="white" stroke-width="1.5" d="M0,-3.0v7 M-2.5,-0.5L0,-3.0L2.5,-0.5"/>
  </g>
  <g id="arrowRight" transform="rotate(90) translate(36 -43)">
    <use xlink:href="#rim"/>
    <path pointer-events="none" fill="none" stroke="white" stroke-width="1.5" d="M0,-3.0v7 M-2.5,-0.5L0,-3.0L2.5,-0.5"/>
  </g>
  <g id="arrowDown" transform="rotate(180) translate(-30 -48)">
    <use xlink:href="#rim"/>
    <path pointer-events="none" fill="none" stroke="white" stroke-width="1.5" d="M0,-3.0v7 M-2.5,-0.5L0,-3.0L2.5,-0.5"/>
  </g>
  <g id="arrowLeft" transform="rotate(270) translate(-36 17)">
    <use xlink:href="#rim"/>
    <path pointer-events="none" fill="none" stroke="white" stroke-width="1.5" d="M0,-3.0v7 M-2.5,-0.5L0,-3.0L2.5,-0.5"/>
  </g>
  <g id="resetDef">
    <use xlink:href="#rim2" fill="#404040"><set attributeName="fill" to="#808080" begin="reset.mouseover" end="reset.mouseout"/></use>
  </g>
</defs>
<script type="application/ecmascript">
var viewWidth = 642;
var viewHeight = 360;
var sectionId = 'dynsection-50';
</script>
<script type="application/ecmascript" xlink:href="svg.min.js"/>
<svg id="graph" class="graph">
<g id="viewport">
<title>SparseMsg::tripletFill1</title>
<!-- Node1 -->
<g id="Node000001" class="node">
<title>Node1</title>
<g id="a_Node000001"><a xlink:title=" ">
<polygon fill="#999999" stroke="#666666" points="125,-203 0,-203 0,-184 125,-184 125,-203"/>
<text text-anchor="middle" x="62.5" y="-191" font-family="Ubuntu Mono" font-size="10.00">SparseMsg::tripletFill1</text>
</a>
</g>
</g>
<!-- Node2 -->
<g id="Node000002" class="node">
<title>Node2</title>
<g id="a_Node000002"><a xlink:href="classSparseMsg.html#a560e49edfe66dce3c4b424f6060622e2" target="_top" xlink:title=" ">
<polygon fill="white" stroke="#666666" points="280,-203 161,-203 161,-184 280,-184 280,-203"/>
<text text-anchor="middle" x="220.5" y="-191" font-family="Ubuntu Mono" font-size="10.00">SparseMsg::tripletFill</text>
</a>
</g>
</g>
<!-- Node1&#45;&gt;Node2 -->
<g id="edge1_Node000001_Node000002" class="edge">
<title>Node1&#45;&gt;Node2</title>
<g id="a_edge1_Node000001_Node000002"><a xlink:title=" ">
<path fill="none" stroke="#63b8ff" d="M125.16,-193.5C133.51,-193.5 142.13,-193.5 150.6,-193.5"/>
<polygon fill="#63b8ff" stroke="#63b8ff" points="150.84,-197 160.84,-193.5 150.84,-190 150.84,-197"/>
</a>
</g>
</g>
<!-- Node3 -->
<g id="Node000003" class="node">
<title>Node3</title>
<g id="a_Node000003"><a xlink:href="classSparseMatrix.html#a6fb0fb48e97c13b49c2b7a0e1a8066dc" target="_top" xlink:title=" ">
<polygon fill="white" stroke="#666666" points="455,-287 324,-287 324,-268 455,-268 455,-287"/>
<text text-anchor="middle" x="389.5" y="-275" font-family="Ubuntu Mono" font-size="10.00">SparseMatrix::tripletFill</text>
</a>
</g>
</g>
<!-- Node2&#45;&gt;Node3 -->
<g id="edge2_Node000002_Node000003" class="edge">
<title>Node2&#45;&gt;Node3</title>
<g id="a_edge2_Node000002_Node000003"><a xlink:title=" ">
<path fill="none" stroke="#63b8ff" d="M240.66,-203.14C270.1,-217.95 326.63,-246.38 360.62,-263.48"/>
<polygon fill="#63b8ff" stroke="#63b8ff" points="359.06,-266.61 369.57,-267.98 362.21,-260.36 359.06,-266.61"/>
</a>
</g>
</g>
<!-- Node5 -->
<g id="Node000005" class="node">
<title>Node5</title>
<g id="a_Node000005"><a xlink:href="classSparseMsg.html#aa6f161e4c1afcdba8f5f4ee0e477a23f" target="_top" xlink:title=" ">
<polygon fill="white" stroke="#666666" points="463,-185 316,-185 316,-166 463,-166 463,-185"/>
<text text-anchor="middle" x="389.5" y="-173" font-family="Ubuntu Mono" font-size="10.00">SparseMsg::updateAfterFill</text>
</a>
</g>
</g>
<!-- Node2&#45;&gt;Node5 -->
<g id="edge4_Node000002_Node000005" class="edge">
<title>Node2&#45;&gt;Node5</title>
<g id="a_edge4_Node000002_Node000005"><a xlink:title=" ">
<path fill="none" stroke="#63b8ff" d="M280.38,-187.15C288.61,-186.27 297.2,-185.34 305.77,-184.42"/>
<polygon fill="#63b8ff" stroke="#63b8ff" points="306.24,-187.89 315.81,-183.33 305.49,-180.93 306.24,-187.89"/>
</a>
</g>
</g>
<!-- Node4 -->
<g id="Node000004" class="node">
<title>Node4</title>
<g id="a_Node000004"><a xlink:href="classSparseMatrix.html#a6ceeff27e7ff6df253e88f3c6a24f820" target="_top" xlink:title=" ">
<polygon fill="white" stroke="#666666" points="627.5,-352 505.5,-352 505.5,-333 627.5,-333 627.5,-352"/>
<text text-anchor="middle" x="566.5" y="-340" font-family="Ubuntu Mono" font-size="10.00">SparseMatrix::setSize</text>
</a>
</g>
</g>
<!-- Node3&#45;&gt;Node4 -->
<g id="edge3_Node000003_Node000004" class="edge">
<title>Node3&#45;&gt;Node4</title>
<g id="a_edge3_Node000003_Node000004"><a xlink:title=" ">
<path fill="none" stroke="#63b8ff" d="M410.15,-287.04C431.63,-297.22 467.22,-313.38 499,-324.5 504.64,-326.47 510.61,-328.36 516.57,-330.12"/>
<polygon fill="#63b8ff" stroke="#63b8ff" points="515.95,-333.59 526.53,-332.96 517.87,-326.86 515.95,-333.59"/>
</a>
</g>
</g>
<!-- Node6 -->
<g id="Node000006" class="node">
<title>Node6</title>
<g id="a_Node000006"><a xlink:href="classMsg.html#a5be9f4dd643f5f662e8fb3c029273390" target="_top" xlink:title=" ">
<polygon fill="white" stroke="#666666" points="594,-315 539,-315 539,-296 594,-296 594,-315"/>
<text text-anchor="middle" x="566.5" y="-303" font-family="Ubuntu Mono" font-size="10.00">Msg::e1</text>
</a>
</g>
</g>
<!-- Node5&#45;&gt;Node6 -->
<g id="edge5_Node000005_Node000006" class="edge">
<title>Node5&#45;&gt;Node6</title>
<g id="a_edge5_Node000005_Node000006"><a xlink:title=" ">
<path fill="none" stroke="#63b8ff" d="M398.55,-185.03C419.36,-209.44 474.98,-273.34 499,-287.5 508.12,-292.88 518.88,-296.69 529.06,-299.37"/>
<polygon fill="#63b8ff" stroke="#63b8ff" points="528.42,-302.82 538.96,-301.7 530.02,-296 528.42,-302.82"/>
</a>
</g>
</g>
<!-- Node7 -->
<g id="Node000007" class="node">
<title>Node7</title>
<g id="a_Node000007"><a xlink:href="classMsg.html#a893ed6b44cd4c529f0f10af38ae6743a" target="_top" xlink:title=" ">
<polygon fill="white" stroke="#666666" points="594,-278 539,-278 539,-259 594,-259 594,-278"/>
<text text-anchor="middle" x="566.5" y="-266" font-family="Ubuntu Mono" font-size="10.00">Msg::e2</text>
</a>
</g>
</g>
<!-- Node5&#45;&gt;Node7 -->
<g id="edge6_Node000005_Node000007" class="edge">
<title>Node5&#45;&gt;Node7</title>
<g id="a_edge6_Node000005_Node000007"><a xlink:title=" ">
<path fill="none" stroke="#63b8ff" d="M401.74,-185.23C420.6,-201.1 460.37,-232.57 499,-250.5 508.44,-254.88 519.14,-258.36 529.16,-261.05"/>
<polygon fill="#63b8ff" stroke="#63b8ff" points="528.33,-264.45 538.88,-263.48 530.03,-257.66 528.33,-264.45"/>
</a>
</g>
</g>
<!-- Node8 -->
<g id="Node000008" class="node">
<title>Node8</title>
<g id="a_Node000008"><a xlink:href="classSparseMatrix.html#a354ec2999a4fa10d5c1127ca769d116b" target="_top" xlink:title=" ">
<polygon fill="white" stroke="#666666" points="628.5,-241 504.5,-241 504.5,-222 628.5,-222 628.5,-241"/>
<text text-anchor="middle" x="566.5" y="-229" font-family="Ubuntu Mono" font-size="10.00">SparseMatrix::getRow</text>
</a>
</g>
</g>
<!-- Node5&#45;&gt;Node8 -->
<g id="edge7_Node000005_Node000008" class="edge">
<title>Node5&#45;&gt;Node8</title>
<g id="a_edge7_Node000005_Node000008"><a xlink:title=" ">
<path fill="none" stroke="#63b8ff" d="M416.19,-185.09C438.07,-193.11 470.4,-204.64 499,-213.5 505.37,-215.47 512.12,-217.44 518.78,-219.32"/>
<polygon fill="#63b8ff" stroke="#63b8ff" points="517.86,-222.69 528.43,-221.98 519.72,-215.94 517.86,-222.69"/>
</a>
</g>
</g>
<!-- Node9 -->
<g id="Node000009" class="node">
<title>Node9</title>
<g id="a_Node000009"><a xlink:href="classElement.html#a8d7debb27e67d5fc97697cddc9d69542" target="_top" xlink:title="Returns index of first data entry on this node.">
<polygon fill="white" stroke="#666666" points="633,-204 500,-204 500,-185 633,-185 633,-204"/>
<text text-anchor="middle" x="566.5" y="-192" font-family="Ubuntu Mono" font-size="10.00">Element::localDataStart</text>
</a>
</g>
</g>
<!-- Node5&#45;&gt;Node9 -->
<g id="edge8_Node000005_Node000009" class="edge">
<title>Node5&#45;&gt;Node9</title>
<g id="a_edge8_Node000005_Node000009"><a xlink:title=" ">
<path fill="none" stroke="#63b8ff" d="M463.2,-183.39C471.9,-184.34 480.81,-185.31 489.56,-186.26"/>
<polygon fill="#63b8ff" stroke="#63b8ff" points="489.42,-189.76 499.74,-187.36 490.18,-182.8 489.42,-189.76"/>
</a>
</g>
</g>
<!-- Node10 -->
<g id="Node000010" class="node">
<title>Node10</title>
<g id="a_Node000010"><a xlink:href="classElement.html#a91ba2615cb1c7a30cca2327d2003f34c" target="_top" xlink:title=" ">
<polygon fill="white" stroke="#666666" points="630.5,-167 502.5,-167 502.5,-148 630.5,-148 630.5,-167"/>
<text text-anchor="middle" x="566.5" y="-155" font-family="Ubuntu Mono" font-size="10.00">Element::markRewired</text>
</a>
</g>
</g>
<!-- Node5&#45;&gt;Node10 -->
<g id="edge9_Node000005_Node000010" class="edge">
<title>Node5&#45;&gt;Node10</title>
<g id="a_edge9_Node000005_Node000010"><a xlink:title=" ">
<path fill="none" stroke="#63b8ff" d="M463.2,-168.02C472.71,-167.04 482.47,-166.04 492,-165.06"/>
<polygon fill="#63b8ff" stroke="#63b8ff" points="492.64,-168.51 502.23,-164.01 491.92,-161.55 492.64,-168.51"/>
</a>
</g>
</g>
<!-- Node11 -->
<g id="Node000011" class="node">
<title>Node11</title>
<g id="a_Node000011"><a xlink:href="classSparseMatrix.html#a2c51cee470d726cf04e262a4038625f5" target="_top" xlink:title=" ">
<polygon fill="white" stroke="#666666" points="626,-130 507,-130 507,-111 626,-111 626,-130"/>
<text text-anchor="middle" x="566.5" y="-118" font-family="Ubuntu Mono" font-size="10.00">SparseMatrix::nRows</text>
</a>
</g>
</g>
<!-- Node5&#45;&gt;Node11 -->
<g id="edge10_Node000005_Node000011" class="edge">
<title>Node5&#45;&gt;Node11</title>
<g id="a_edge10_Node000005_Node000011"><a xlink:title=" ">
<path fill="none" stroke="#63b8ff" d="M418.5,-165.85C440.35,-158.41 471.5,-147.99 499,-139.5 506.18,-137.28 513.82,-135.02 521.27,-132.85"/>
<polygon fill="#63b8ff" stroke="#63b8ff" points="522.26,-136.21 530.9,-130.09 520.33,-129.49 522.26,-136.21"/>
</a>
</g>
</g>
<!-- Node12 -->
<g id="Node000012" class="node">
<title>Node12</title>
<g id="a_Node000012"><a xlink:href="classElement.html#abee6d5e3b26374c8c196c6065543706d" target="_top" xlink:title="Returns number of local data entries on this node.">
<polygon fill="white" stroke="#666666" points="633.5,-93 499.5,-93 499.5,-74 633.5,-74 633.5,-93"/>
<text text-anchor="middle" x="566.5" y="-81" font-family="Ubuntu Mono" font-size="10.00">Element::numLocalData</text>
</a>
</g>
</g>
<!-- Node5&#45;&gt;Node12 -->
<g id="edge11_Node000005_Node000012" class="edge">
<title>Node5&#45;&gt;Node12</title>
<g id="a_edge11_Node000005_Node000012"><a xlink:title=" ">
<path fill="none" stroke="#63b8ff" d="M402.12,-165.86C421.21,-150.45 460.92,-120.21 499,-102.5 503.97,-100.19 509.28,-98.1 514.65,-96.22"/>
<polygon fill="#63b8ff" stroke="#63b8ff" points="515.89,-99.5 524.32,-93.08 513.73,-92.84 515.89,-99.5"/>
</a>
</g>
</g>
<!-- Node13 -->
<g id="Node000013" class="node">
<title>Node13</title>
<g id="a_Node000013"><a xlink:href="classElement.html#a548f821be009798fed2809c69d659f8c" target="_top" xlink:title=" ">
<polygon fill="white" stroke="#666666" points="624.5,-56 508.5,-56 508.5,-37 624.5,-37 624.5,-56"/>
<text text-anchor="middle" x="566.5" y="-44" font-family="Ubuntu Mono" font-size="10.00">Element::resizeField</text>
</a>
</g>
</g>
<!-- Node5&#45;&gt;Node13 -->
<g id="edge12_Node000005_Node000013" class="edge">
<title>Node5&#45;&gt;Node13</title>
<g id="a_edge12_Node000005_Node000013"><a xlink:title=" ">
<path fill="none" stroke="#63b8ff" d="M397.18,-165.94C412.59,-144.61 452.86,-92.86 499,-65.5 502.66,-63.33 506.58,-61.4 510.62,-59.68"/>
<polygon fill="#63b8ff" stroke="#63b8ff" points="512.09,-62.86 520.19,-56.04 509.6,-56.32 512.09,-62.86"/>
</a>
</g>
</g>
<!-- Node14 -->
<g id="Node000014" class="node">
<title>Node14</title>
<g id="a_Node000014"><a xlink:href="classSparseMatrix.html#abd7817874559248caf8bd3fdac8c242f" target="_top" xlink:title=" ">
<polygon fill="white" stroke="#666666" points="634,-19 499,-19 499,0 634,0 634,-19"/>
<text text-anchor="middle" x="566.5" y="-7" font-family="Ubuntu Mono" font-size="10.00">SparseMatrix::transpose</text>
</a>
</g>
</g>
<!-- Node5&#45;&gt;Node14 -->
<g id="edge13_Node000005_Node000014" class="edge">
<title>Node5&#45;&gt;Node14</title>
<g id="a_edge13_Node000005_Node000014"><a xlink:title=" ">
<path fill="none" stroke="#63b8ff" d="M394.8,-165.9C407.05,-139.65 444.8,-66.11 499,-28.5 501.9,-26.49 505.01,-24.69 508.24,-23.08"/>
<polygon fill="#63b8ff" stroke="#63b8ff" points="509.83,-26.2 517.62,-19.02 507.05,-19.78 509.83,-26.2"/>
</a>
</g>
</g>
</g>
</svg>

<g id="navigator" transform="translate(0 0)" fill="#404254">
  <rect fill="#f2f5e9" fill-opacity="0.5" stroke="#606060" stroke-width=".5" x="0" y="0" width="60" height="60"/>
  <use id="zoomplus" xlink:href="#zoomPlus" x="17" y="9" onmousedown="handleZoom(evt,'in')"/>
  <use id="zoomminus" xlink:href="#zoomMin" x="42" y="9" onmousedown="handleZoom(evt,'out')"/>
  <use id="reset" xlink:href="#resetDef" x="30" y="36" onmousedown="handleReset()"/>
   <use id="arrowup" xlink:href="#arrowUp" x="0" y="0" onmousedown="handlePan(0,-1)"/>
  <use id="arrowright" xlink:href="#arrowRight" x="0" y="0" onmousedown="handlePan(1,0)"/>
  <use id="arrowdown" xlink:href="#arrowDown" x="0" y="0" onmousedown="handlePan(0,1)"/>
  <use id="arrowleft" xlink:href="#arrowLeft" x="0" y="0" onmousedown="handlePan(-1,0)"/>
</g>
<svg viewBox="0 0 15 15" width="100%" height="30px" preserveAspectRatio="xMaxYMin meet">
 <g id="arrow_out" transform="scale(0.3 0.3)">
  <a xlink:href="classSparseMsg_a81fe252d7c6517ca142d569b25e3a2fa_cgraph_org.svg" target="_base">
   <rect id="button" ry="5" rx="5" y="6" x="6" height="38" width="38"
        fill="#f2f5e9" fill-opacity="0.5" stroke="#606060" stroke-width="1.0"/>
   <path id="arrow"
     d="M 11.500037,31.436501 C 11.940474,20.09759 22.043105,11.32322 32.158766,21.979434 L 37.068811,17.246167 C 37.068811,17.246167 37.088388,32 37.088388,32 L 22.160133,31.978069 C 22.160133,31.978069 26.997745,27.140456 26.997745,27.140456 C 18.528582,18.264221 13.291696,25.230495 11.500037,31.436501 z"
     style="fill:#404040;"/>
  </a>
 </g>
</svg>

<style type='text/css'>
<![CDATA[
[data-mouse-over-selected='false'] { opacity: 0.7; }
[data-mouse-over-selected='true']  { opacity: 1.0; }
]]>
</style>
<script type="application/ecmascript"><![CDATA[
document.addEventListener('DOMContentLoaded', (event) => {
  highlightEdges();
  highlightAdjacentNodes();
});
]]></script>
</svg>
