<?xml version="1.0" encoding="UTF-8" standalone="no"?>
<!DOCTYPE svg PUBLIC "-//W3C//DTD SVG 1.1//EN"
 "http://www.w3.org/Graphics/SVG/1.1/DTD/svg11.dtd">
<!-- Generated by graphviz version 2.43.0 (0)
 -->
<!-- Title: MarkovSolverBase::reinit Pages: 1 -->
<!--zoomable 926 -->

<svg id="main" version="1.1" xmlns="http://www.w3.org/2000/svg" xmlns:xlink="http://www.w3.org/1999/xlink" xml:space="preserve" onload="init(evt)">
<style type="text/css"><![CDATA[
.node, .edge {opacity: 0.7;}
.node.selected, .edge.selected {opacity: 1;}
.edge:hover path { stroke: red; }
.edge:hover polygon { stroke: red; fill: red; }
]]></style>

<defs>
  <circle id="rim" cx="0" cy="0" r="7"/>
  <circle id="rim2" cx="0" cy="0" r="3.5"/>
  <g id="zoomPlus">
    <use xlink:href="#rim" fill="#404040"><set attributeName="fill" to="#808080" begin="zoomplus.mouseover" end="zoomplus.mouseout"/></use>
    <path d="M-4,0h8M0,-4v8" fill="none" stroke="white" stroke-width="1.5" pointer-events="none"/>
  </g>
  <g id="zoomMin">
    <use xlink:href="#rim" fill="#404040"><set attributeName="fill" to="#808080" begin="zoomminus.mouseover" end="zoomminus.mouseout"/></use>
    <path d="M-4,0h8" fill="none" stroke="white" stroke-width="1.5" pointer-events="none"/>
  </g>
  <g id="arrowUp" transform="translate(30 24)">
    <use xlink:href="#rim"/>
    <path pointer-events="none" fill="none" stroke="white" stroke-width="1.5" d="M0,-3.0v7 M-2.5,-0.5L0,-3.0L2.5,-0.5"/>
  </g>
  <g id="arrowRight" transform="rotate(90) translate(36 -43)">
    <use xlink:href="#rim"/>
    <path pointer-events="none" fill="none" stroke="white" stroke-width="1.5" d="M0,-3.0v7 M-2.5,-0.5L0,-3.0L2.5,-0.5"/>
  </g>
  <g id="arrowDown" transform="rotate(180) translate(-30 -48)">
    <use xlink:href="#rim"/>
    <path pointer-events="none" fill="none" stroke="white" stroke-width="1.5" d="M0,-3.0v7 M-2.5,-0.5L0,-3.0L2.5,-0.5"/>
  </g>
  <g id="arrowLeft" transform="rotate(270) translate(-36 17)">
    <use xlink:href="#rim"/>
    <path pointer-events="none" fill="none" stroke="white" stroke-width="1.5" d="M0,-3.0v7 M-2.5,-0.5L0,-3.0L2.5,-0.5"/>
  </g>
  <g id="resetDef">
    <use xlink:href="#rim2" fill="#404040"><set attributeName="fill" to="#808080" begin="reset.mouseover" end="reset.mouseout"/></use>
  </g>
</defs>
<script type="application/ecmascript">
var viewWidth = 1526;
var viewHeight = 926;
var sectionId = 'dynsection-32';
</script>
<script type="application/ecmascript" xlink:href="svg.min.js"/>
<svg id="graph" class="graph">
<g id="viewport">
<title>MarkovSolverBase::reinit</title>
<!-- Node1 -->
<g id="Node000001" class="node">
<title>Node1</title>
<g id="a_Node000001"><a xlink:title=" ">
<polygon fill="#999999" stroke="#666666" points="139,-449 0,-449 0,-430 139,-430 139,-449"/>
<text text-anchor="middle" x="69.5" y="-437" font-family="Ubuntu Mono" font-size="10.00">MarkovSolverBase::reinit</text>
</a>
</g>
</g>
<!-- Node2 -->
<g id="Node000002" class="node">
<title>Node2</title>
<g id="a_Node000002"><a xlink:href="classSrcFinfo1.html#af6ead5e2fe7259ae6ad46a943ca0284c" target="_top" xlink:title=" ">
<polygon fill="white" stroke="#666666" points="266,-785 175,-785 175,-766 266,-766 266,-785"/>
<text text-anchor="middle" x="220.5" y="-773" font-family="Ubuntu Mono" font-size="10.00">SrcFinfo1::send</text>
</a>
</g>
</g>
<!-- Node1&#45;&gt;Node2 -->
<g id="edge1_Node000001_Node000002" class="edge">
<title>Node1&#45;&gt;Node2</title>
<g id="a_edge1_Node000001_Node000002"><a xlink:title=" ">
<path fill="none" stroke="#63b8ff" d="M74.8,-449.19C95.28,-495.37 183.09,-693.4 210.97,-756.27"/>
<polygon fill="#63b8ff" stroke="#63b8ff" points="207.93,-758.04 215.18,-765.77 214.33,-755.21 207.93,-758.04"/>
</a>
</g>
</g>
<!-- Node41 -->
<g id="Node000041" class="node">
<title>Node41</title>
<g id="a_Node000041"><a xlink:href="MarkovSolverBase_8cpp.html#a0163194aae6c2f446a7ad3eaa2e5ad95" target="_top" xlink:title=" ">
<polygon fill="white" stroke="#666666" points="250,-431 191,-431 191,-412 250,-412 250,-431"/>
<text text-anchor="middle" x="220.5" y="-419" font-family="Ubuntu Mono" font-size="10.00">stateOut</text>
</a>
</g>
</g>
<!-- Node1&#45;&gt;Node41 -->
<g id="edge60_Node000001_Node000041" class="edge">
<title>Node1&#45;&gt;Node41</title>
<g id="a_edge60_Node000001_Node000041"><a xlink:title=" ">
<path fill="none" stroke="#63b8ff" d="M139.33,-431.18C153.51,-429.47 167.96,-427.73 180.62,-426.2"/>
<polygon fill="#63b8ff" stroke="#63b8ff" points="181.28,-429.64 190.79,-424.97 180.44,-422.69 181.28,-429.64"/>
</a>
</g>
</g>
<!-- Node3 -->
<g id="Node000003" class="node">
<title>Node3</title>
<g id="a_Node000003"><a xlink:href="classEref.html#aca13ad32862935d4a33109785d0f01d7" target="_top" xlink:title=" ">
<polygon fill="white" stroke="#666666" points="1254.5,-768 1164.5,-768 1164.5,-749 1254.5,-749 1254.5,-768"/>
<text text-anchor="middle" x="1209.5" y="-756" font-family="Ubuntu Mono" font-size="10.00">Eref::dataIndex</text>
</a>
</g>
</g>
<!-- Node2&#45;&gt;Node3 -->
<g id="edge2_Node000002_Node000003" class="edge">
<title>Node2&#45;&gt;Node3</title>
<g id="a_edge2_Node000002_Node000003"><a xlink:title=" ">
<path fill="none" stroke="#63b8ff" d="M228.94,-785.13C241.86,-801.03 270.12,-832.43 302,-846.5 392.19,-886.3 423.92,-870.5 522.5,-870.5 522.5,-870.5 522.5,-870.5 875.5,-870.5 985.57,-870.5 1022.67,-893.93 1122,-846.5 1154.84,-830.82 1182.18,-797.2 1196.86,-776.36"/>
<polygon fill="#63b8ff" stroke="#63b8ff" points="1199.79,-778.28 1202.53,-768.04 1194.01,-774.34 1199.79,-778.28"/>
</a>
</g>
</g>
<!-- Node4 -->
<g id="Node000004" class="node">
<title>Node4</title>
<g id="a_Node000004"><a xlink:href="classEref.html#a47b59ab86165cceb0bde80c76c3f7fa2" target="_top" xlink:title=" ">
<polygon fill="white" stroke="#666666" points="1250.5,-507 1168.5,-507 1168.5,-488 1250.5,-488 1250.5,-507"/>
<text text-anchor="middle" x="1209.5" y="-495" font-family="Ubuntu Mono" font-size="10.00">Eref::element</text>
</a>
</g>
</g>
<!-- Node2&#45;&gt;Node4 -->
<g id="edge3_Node000002_Node000004" class="edge">
<title>Node2&#45;&gt;Node4</title>
<g id="a_edge3_Node000002_Node000004"><a xlink:title=" ">
<path fill="none" stroke="#63b8ff" d="M247.28,-785.09C262.93,-790.58 283.39,-797.22 302,-801.5 398.45,-823.68 423.54,-832.5 522.5,-832.5 522.5,-832.5 522.5,-832.5 875.5,-832.5 930.44,-832.5 1081.56,-850.69 1122,-813.5 1195.58,-745.84 1125.91,-686.16 1158,-591.5 1167.47,-563.56 1184.7,-534.01 1196.37,-515.66"/>
<polygon fill="#63b8ff" stroke="#63b8ff" points="1199.38,-517.45 1201.9,-507.16 1193.51,-513.63 1199.38,-517.45"/>
</a>
</g>
</g>
<!-- Node5 -->
<g id="Node000005" class="node">
<title>Node5</title>
<g id="a_Node000005"><a xlink:href="classEref.html#a3addb850bc6cbac7771a07de219d909d" target="_top" xlink:title=" ">
<polygon fill="white" stroke="#666666" points="1085.5,-804 1024.5,-804 1024.5,-785 1085.5,-785 1085.5,-804"/>
<text text-anchor="middle" x="1055" y="-792" font-family="Ubuntu Mono" font-size="10.00">Eref::Eref</text>
</a>
</g>
</g>
<!-- Node2&#45;&gt;Node5 -->
<g id="edge4_Node000002_Node000005" class="edge">
<title>Node2&#45;&gt;Node5</title>
<g id="a_edge4_Node000002_Node000005"><a xlink:title=" ">
<path fill="none" stroke="#63b8ff" d="M266.07,-780.08C324.77,-785.7 431.26,-794.5 522.5,-794.5 522.5,-794.5 522.5,-794.5 691,-794.5 808.55,-794.5 947.51,-794.5 1014.27,-794.5"/>
<polygon fill="#63b8ff" stroke="#63b8ff" points="1014.36,-798 1024.36,-794.5 1014.36,-791 1014.36,-798"/>
</a>
</g>
</g>
<!-- Node6 -->
<g id="Node000006" class="node">
<title>Node6</title>
<g id="a_Node000006"><a xlink:href="classSrcFinfo.html#aa90db29c818e71d31322c35bfec2f731" target="_top" xlink:title=" ">
<polygon fill="white" stroke="#666666" points="428,-918 302,-918 302,-899 428,-899 428,-918"/>
<text text-anchor="middle" x="365" y="-906" font-family="Ubuntu Mono" font-size="10.00">SrcFinfo::getBindIndex</text>
</a>
</g>
</g>
<!-- Node2&#45;&gt;Node6 -->
<g id="edge5_Node000002_Node000006" class="edge">
<title>Node2&#45;&gt;Node6</title>
<g id="a_edge5_Node000002_Node000006"><a xlink:title=" ">
<path fill="none" stroke="#63b8ff" d="M226.16,-785.08C236.79,-805.99 264.79,-856.09 302,-884.5 307.36,-888.59 313.51,-892.07 319.8,-895"/>
<polygon fill="#63b8ff" stroke="#63b8ff" points="318.48,-898.24 329.05,-898.9 321.2,-891.79 318.48,-898.24"/>
</a>
</g>
</g>
<!-- Node7 -->
<g id="Node000007" class="node">
<title>Node7</title>
<g id="a_Node000007"><a xlink:href="classElement.html#a8d7debb27e67d5fc97697cddc9d69542" target="_top" xlink:title="Returns index of first data entry on this node.">
<polygon fill="white" stroke="#666666" points="1121.5,-132 988.5,-132 988.5,-113 1121.5,-113 1121.5,-132"/>
<text text-anchor="middle" x="1055" y="-120" font-family="Ubuntu Mono" font-size="10.00">Element::localDataStart</text>
</a>
</g>
</g>
<!-- Node2&#45;&gt;Node7 -->
<g id="edge6_Node000002_Node000007" class="edge">
<title>Node2&#45;&gt;Node7</title>
<g id="a_edge6_Node000002_Node000007"><a xlink:title=" ">
<path fill="none" stroke="#63b8ff" d="M221.96,-765.8C226.05,-691.57 262.37,-216.5 522.5,-216.5 522.5,-216.5 522.5,-216.5 691,-216.5 817.72,-216.5 961.62,-162.15 1023.29,-136.1"/>
<polygon fill="#63b8ff" stroke="#63b8ff" points="1025,-139.18 1032.81,-132.03 1022.24,-132.75 1025,-139.18"/>
</a>
</g>
</g>
<!-- Node8 -->
<g id="Node000008" class="node">
<title>Node8</title>
<g id="a_Node000008"><a xlink:href="classEref.html#a5c15b71e3463adaa4623267ada92c898" target="_top" xlink:title=" ">
<polygon fill="white" stroke="#666666" points="412,-747 318,-747 318,-728 412,-728 412,-747"/>
<text text-anchor="middle" x="365" y="-735" font-family="Ubuntu Mono" font-size="10.00">Eref::msgDigest</text>
</a>
</g>
</g>
<!-- Node2&#45;&gt;Node8 -->
<g id="edge7_Node000002_Node000008" class="edge">
<title>Node2&#45;&gt;Node8</title>
<g id="a_edge7_Node000002_Node000008"><a xlink:title=" ">
<path fill="none" stroke="#63b8ff" d="M257.46,-765.91C275.94,-760.98 298.66,-754.93 318.36,-749.67"/>
<polygon fill="#63b8ff" stroke="#63b8ff" points="319.29,-753.04 328.05,-747.09 317.49,-746.28 319.29,-753.04"/>
</a>
</g>
</g>
<!-- Node37 -->
<g id="Node000037" class="node">
<title>Node37</title>
<g id="a_Node000037"><a xlink:href="classElement.html#abee6d5e3b26374c8c196c6065543706d" target="_top" xlink:title="Returns number of local data entries on this node.">
<polygon fill="white" stroke="#666666" points="1122,-95 988,-95 988,-76 1122,-76 1122,-95"/>
<text text-anchor="middle" x="1055" y="-83" font-family="Ubuntu Mono" font-size="10.00">Element::numLocalData</text>
</a>
</g>
</g>
<!-- Node2&#45;&gt;Node37 -->
<g id="edge59_Node000002_Node000037" class="edge">
<title>Node2&#45;&gt;Node37</title>
<g id="a_edge59_Node000002_Node000037"><a xlink:title=" ">
<path fill="none" stroke="#63b8ff" d="M222.77,-765.8C232,-695.45 288.81,-265.68 302,-241.5 364.51,-126.91 391.97,-47.5 522.5,-47.5 522.5,-47.5 522.5,-47.5 691,-47.5 795.24,-47.5 915.42,-63.19 987.99,-74.41"/>
<polygon fill="#63b8ff" stroke="#63b8ff" points="987.49,-77.87 997.91,-75.96 988.57,-70.96 987.49,-77.87"/>
</a>
</g>
</g>
<!-- Node9 -->
<g id="Node000009" class="node">
<title>Node9</title>
<g id="a_Node000009"><a xlink:href="classElement.html#a33610036b72724ca3b7fedaf7e692841" target="_top" xlink:title=" ">
<polygon fill="white" stroke="#666666" points="1098.5,-767 1011.5,-767 1011.5,-748 1098.5,-748 1098.5,-767"/>
<text text-anchor="middle" x="1055" y="-755" font-family="Ubuntu Mono" font-size="10.00">Element::cinfo</text>
</a>
</g>
</g>
<!-- Node8&#45;&gt;Node9 -->
<g id="edge8_Node000008_Node000009" class="edge">
<title>Node8&#45;&gt;Node9</title>
<g id="a_edge8_Node000008_Node000009"><a xlink:title=" ">
<path fill="none" stroke="#63b8ff" d="M412.21,-738.84C535.27,-742.42 870.41,-752.16 1000.95,-755.96"/>
<polygon fill="#63b8ff" stroke="#63b8ff" points="1001,-759.46 1011.1,-756.25 1001.21,-752.46 1001,-759.46"/>
</a>
</g>
</g>
<!-- Node10 -->
<g id="Node000010" class="node">
<title>Node10</title>
<g id="a_Node000010"><a xlink:href="classElement.html#af00354d706575077c20c9865f340f93f" target="_top" xlink:title=" ">
<polygon fill="white" stroke="#666666" points="581.5,-728 465.5,-728 465.5,-709 581.5,-709 581.5,-728"/>
<text text-anchor="middle" x="523.5" y="-716" font-family="Ubuntu Mono" font-size="10.00">Element::msgDigest</text>
</a>
</g>
</g>
<!-- Node8&#45;&gt;Node10 -->
<g id="edge9_Node000008_Node000010" class="edge">
<title>Node8&#45;&gt;Node10</title>
<g id="a_edge9_Node000008_Node000010"><a xlink:title=" ">
<path fill="none" stroke="#63b8ff" d="M412.11,-731.9C425.66,-730.26 440.77,-728.42 455.36,-726.65"/>
<polygon fill="#63b8ff" stroke="#63b8ff" points="455.84,-730.12 465.34,-725.44 454.99,-723.17 455.84,-730.12"/>
</a>
</g>
</g>
<!-- Node40 -->
<g id="Node000040" class="node">
<title>Node40</title>
<g id="a_Node000040"><a xlink:href="classCinfo.html#a2fc76e571de8791c7d2e4ca04c770ffb" target="_top" xlink:title=" ">
<polygon fill="white" stroke="#666666" points="583,-691 464,-691 464,-672 583,-672 583,-691"/>
<text text-anchor="middle" x="523.5" y="-679" font-family="Ubuntu Mono" font-size="10.00">Cinfo::numBindIndex</text>
</a>
</g>
</g>
<!-- Node8&#45;&gt;Node40 -->
<g id="edge58_Node000008_Node000040" class="edge">
<title>Node8&#45;&gt;Node40</title>
<g id="a_edge58_Node000008_Node000040"><a xlink:title=" ">
<path fill="none" stroke="#63b8ff" d="M390.45,-727.9C410.21,-720.24 438.77,-709.35 464,-700.5 469.95,-698.41 476.27,-696.28 482.47,-694.22"/>
<polygon fill="#63b8ff" stroke="#63b8ff" points="483.63,-697.53 492.05,-691.09 481.45,-690.87 483.63,-697.53"/>
</a>
</g>
</g>
<!-- Node11 -->
<g id="Node000011" class="node">
<title>Node11</title>
<g id="a_Node000011"><a xlink:href="classElement.html#a722a219697e0d390675dff185ae8de28" target="_top" xlink:title=" ">
<polygon fill="white" stroke="#666666" points="761,-634 619,-634 619,-615 761,-615 761,-634"/>
<text text-anchor="middle" x="690" y="-622" font-family="Ubuntu Mono" font-size="10.00">Element::digestMessages</text>
</a>
</g>
</g>
<!-- Node10&#45;&gt;Node11 -->
<g id="edge10_Node000010_Node000011" class="edge">
<title>Node10&#45;&gt;Node11</title>
<g id="a_edge10_Node000010_Node000011"><a xlink:title=" ">
<path fill="none" stroke="#63b8ff" d="M562.03,-708.93C569.15,-706.57 576.43,-703.76 583,-700.5 616.02,-684.13 649.9,-657.86 670.2,-640.89"/>
<polygon fill="#63b8ff" stroke="#63b8ff" points="672.67,-643.38 678.02,-634.24 668.13,-638.05 672.67,-643.38"/>
</a>
</g>
</g>
<!-- Node12 -->
<g id="Node000012" class="node">
<title>Node12</title>
<g id="a_Node000012"><a xlink:href="Element_8cpp.html#af36606da2859789d69ab11f9ae6354e7" target="_top" xlink:title=" ">
<polygon fill="white" stroke="#666666" points="919,-728 830,-728 830,-709 919,-709 919,-728"/>
<text text-anchor="middle" x="874.5" y="-716" font-family="Ubuntu Mono" font-size="10.00">findNumDigest</text>
</a>
</g>
</g>
<!-- Node11&#45;&gt;Node12 -->
<g id="edge11_Node000011_Node000012" class="edge">
<title>Node11&#45;&gt;Node12</title>
<g id="a_edge11_Node000011_Node000012"><a xlink:title=" ">
<path fill="none" stroke="#63b8ff" d="M701.26,-634.01C719.24,-650.16 758.24,-682.89 797,-700.5 804.16,-703.75 811.98,-706.46 819.79,-708.69"/>
<polygon fill="#63b8ff" stroke="#63b8ff" points="819.07,-712.12 829.63,-711.27 820.85,-705.35 819.07,-712.12"/>
</a>
</g>
</g>
<!-- Node13 -->
<g id="Node000013" class="node">
<title>Node13</title>
<g id="a_Node000013"><a xlink:href="classFuncOrder.html#a1e3804483f62e1b894dbaed343711033" target="_top" xlink:title=" ">
<polygon fill="white" stroke="#666666" points="924,-691 825,-691 825,-672 924,-672 924,-691"/>
<text text-anchor="middle" x="874.5" y="-679" font-family="Ubuntu Mono" font-size="10.00">FuncOrder::index</text>
</a>
</g>
</g>
<!-- Node11&#45;&gt;Node13 -->
<g id="edge12_Node000011_Node000013" class="edge">
<title>Node11&#45;&gt;Node13</title>
<g id="a_edge12_Node000011_Node000013"><a xlink:title=" ">
<path fill="none" stroke="#63b8ff" d="M721.55,-634.04C752.21,-643.62 799.61,-658.42 833.3,-668.95"/>
<polygon fill="#63b8ff" stroke="#63b8ff" points="832.27,-672.29 842.85,-671.93 834.35,-665.61 832.27,-672.29"/>
</a>
</g>
</g>
<!-- Node14 -->
<g id="Node000014" class="node">
<title>Node14</title>
<g id="a_Node000014"><a xlink:href="classElement.html#ae764f4baa2a88e55072eb0a5b15718c4" target="_top" xlink:title="Returns number of data entries across all nodes.">
<polygon fill="white" stroke="#666666" points="1109,-730 1001,-730 1001,-711 1109,-711 1109,-730"/>
<text text-anchor="middle" x="1055" y="-718" font-family="Ubuntu Mono" font-size="10.00">Element::numData</text>
</a>
</g>
</g>
<!-- Node11&#45;&gt;Node14 -->
<g id="edge13_Node000011_Node000014" class="edge">
<title>Node11&#45;&gt;Node14</title>
<g id="a_edge13_Node000011_Node000014"><a xlink:title=" ">
<path fill="none" stroke="#63b8ff" d="M761.15,-629.71C826.92,-635.54 919.81,-646.46 952,-663.5 972.85,-674.54 967.84,-690.25 988,-702.5 990.79,-704.2 993.75,-705.73 996.79,-707.13"/>
<polygon fill="#63b8ff" stroke="#63b8ff" points="995.57,-710.41 1006.16,-710.91 998.19,-703.92 995.57,-710.41"/>
</a>
</g>
</g>
<!-- Node15 -->
<g id="Node000015" class="node">
<title>Node15</title>
<g id="a_Node000015"><a xlink:href="classShell.html#a2191e15a0bcd49569fbb297b0724a765" target="_top" xlink:title=" ">
<polygon fill="white" stroke="#666666" points="1259,-245 1160,-245 1160,-226 1259,-226 1259,-245"/>
<text text-anchor="middle" x="1209.5" y="-233" font-family="Ubuntu Mono" font-size="10.00">Shell::numNodes</text>
</a>
</g>
</g>
<!-- Node11&#45;&gt;Node15 -->
<g id="edge14_Node000011_Node000015" class="edge">
<title>Node11&#45;&gt;Node15</title>
<g id="a_edge14_Node000011_Node000015"><a xlink:title=" ">
<path fill="none" stroke="#63b8ff" d="M692.14,-614.93C700.42,-550.45 757.63,-178.72 988,-66.5 1041.54,-40.42 1071.19,-35.43 1122,-66.5 1176.28,-99.69 1197.88,-178.92 1205.23,-215.88"/>
<polygon fill="#63b8ff" stroke="#63b8ff" points="1201.82,-216.7 1207.07,-225.9 1208.7,-215.43 1201.82,-216.7"/>
</a>
</g>
</g>
<!-- Node16 -->
<g id="Node000016" class="node">
<title>Node16</title>
<g id="a_Node000016"><a xlink:href="Element_8cpp.html#ae676123d090f0874314d4469a1f3fe90" target="_top" xlink:title=" ">
<polygon fill="white" stroke="#666666" points="922.5,-615 826.5,-615 826.5,-596 922.5,-596 922.5,-615"/>
<text text-anchor="middle" x="874.5" y="-603" font-family="Ubuntu Mono" font-size="10.00">putFuncsInOrder</text>
</a>
</g>
</g>
<!-- Node11&#45;&gt;Node16 -->
<g id="edge15_Node000011_Node000016" class="edge">
<title>Node11&#45;&gt;Node16</title>
<g id="a_edge15_Node000011_Node000016"><a xlink:title=" ">
<path fill="none" stroke="#63b8ff" d="M761.04,-617.21C779.27,-615.31 798.7,-613.29 816.19,-611.47"/>
<polygon fill="#63b8ff" stroke="#63b8ff" points="816.66,-614.94 826.24,-610.42 815.93,-607.97 816.66,-614.94"/>
</a>
</g>
</g>
<!-- Node27 -->
<g id="Node000027" class="node">
<title>Node27</title>
<g id="a_Node000027"><a xlink:href="classElement.html#a0782085917c558ec4d56be9566688743" target="_top" xlink:title=" ">
<polygon fill="white" stroke="#666666" points="951.5,-577.5 797.5,-577.5 797.5,-547.5 951.5,-547.5 951.5,-577.5"/>
<text text-anchor="start" x="805.5" y="-565.5" font-family="Ubuntu Mono" font-size="10.00">Element::putOffNodeTargets</text>
<text text-anchor="middle" x="874.5" y="-554.5" font-family="Ubuntu Mono" font-size="10.00">InDigest</text>
</a>
</g>
</g>
<!-- Node11&#45;&gt;Node27 -->
<g id="edge27_Node000011_Node000027" class="edge">
<title>Node11&#45;&gt;Node27</title>
<g id="a_edge27_Node000011_Node000027"><a xlink:title=" ">
<path fill="none" stroke="#63b8ff" d="M717.96,-614.92C739.35,-607.36 770.04,-596.61 797,-587.5 803.49,-585.31 810.31,-583.04 817.08,-580.8"/>
<polygon fill="#63b8ff" stroke="#63b8ff" points="818.52,-584.01 826.93,-577.56 816.33,-577.36 818.52,-584.01"/>
</a>
</g>
</g>
<!-- Node30 -->
<g id="Node000030" class="node">
<title>Node30</title>
<g id="a_Node000030"><a xlink:href="classElement.html#ae5b80db45c08265b98ff433504fab66b" target="_top" xlink:title=" ">
<polygon fill="white" stroke="#666666" points="952,-338 797,-338 797,-319 952,-319 952,-338"/>
<text text-anchor="middle" x="874.5" y="-326" font-family="Ubuntu Mono" font-size="10.00">Element::putTargetsInDigest</text>
</a>
</g>
</g>
<!-- Node11&#45;&gt;Node30 -->
<g id="edge38_Node000011_Node000030" class="edge">
<title>Node11&#45;&gt;Node30</title>
<g id="a_edge38_Node000011_Node000030"><a xlink:title=" ">
<path fill="none" stroke="#63b8ff" d="M696.87,-614.99C722.82,-572.89 827.58,-402.98 862.27,-346.71"/>
<polygon fill="#63b8ff" stroke="#63b8ff" points="865.3,-348.48 867.56,-338.13 859.34,-344.8 865.3,-348.48"/>
</a>
</g>
</g>
<!-- Node16&#45;&gt;Node9 -->
<g id="edge16_Node000016_Node000009" class="edge">
<title>Node16&#45;&gt;Node9</title>
<g id="a_edge16_Node000016_Node000009"><a xlink:title=" ">
<path fill="none" stroke="#63b8ff" d="M892.61,-615.12C909.51,-625.32 935.19,-642.8 952,-663.5 975.57,-692.51 959.35,-715.5 988,-739.5 992.05,-742.89 996.69,-745.65 1001.58,-747.89"/>
<polygon fill="#63b8ff" stroke="#63b8ff" points="1000.64,-751.28 1011.23,-751.59 1003.15,-744.74 1000.64,-751.28"/>
</a>
</g>
</g>
<!-- Node17 -->
<g id="Node000017" class="node">
<title>Node17</title>
<g id="a_Node000017"><a xlink:href="classMsg.html#a5be9f4dd643f5f662e8fb3c029273390" target="_top" xlink:title=" ">
<polygon fill="white" stroke="#666666" points="1082.5,-469 1027.5,-469 1027.5,-450 1082.5,-450 1082.5,-469"/>
<text text-anchor="middle" x="1055" y="-457" font-family="Ubuntu Mono" font-size="10.00">Msg::e1</text>
</a>
</g>
</g>
<!-- Node16&#45;&gt;Node17 -->
<g id="edge17_Node000016_Node000017" class="edge">
<title>Node16&#45;&gt;Node17</title>
<g id="a_edge17_Node000016_Node000017"><a xlink:title=" ">
<path fill="none" stroke="#63b8ff" d="M922.86,-601.45C933.48,-598.57 943.96,-593.93 952,-586.5 989.15,-552.15 951.49,-513.53 988,-478.5 995.95,-470.87 1006.77,-466.27 1017.35,-463.51"/>
<polygon fill="#63b8ff" stroke="#63b8ff" points="1018.26,-466.9 1027.31,-461.39 1016.8,-460.05 1018.26,-466.9"/>
</a>
</g>
</g>
<!-- Node18 -->
<g id="Node000018" class="node">
<title>Node18</title>
<g id="a_Node000018"><a xlink:href="classMsg.html#a893ed6b44cd4c529f0f10af38ae6743a" target="_top" xlink:title=" ">
<polygon fill="white" stroke="#666666" points="1082.5,-506 1027.5,-506 1027.5,-487 1082.5,-487 1082.5,-506"/>
<text text-anchor="middle" x="1055" y="-494" font-family="Ubuntu Mono" font-size="10.00">Msg::e2</text>
</a>
</g>
</g>
<!-- Node16&#45;&gt;Node18 -->
<g id="edge18_Node000016_Node000018" class="edge">
<title>Node16&#45;&gt;Node18</title>
<g id="a_edge18_Node000016_Node000018"><a xlink:title=" ">
<path fill="none" stroke="#63b8ff" d="M922.51,-600.47C933.02,-597.62 943.54,-593.23 952,-586.5 979.68,-564.46 960.73,-538.05 988,-515.5 996.36,-508.59 1007.1,-504.19 1017.49,-501.39"/>
<polygon fill="#63b8ff" stroke="#63b8ff" points="1018.27,-504.8 1027.25,-499.17 1016.72,-497.98 1018.27,-504.8"/>
</a>
</g>
</g>
<!-- Node19 -->
<g id="Node000019" class="node">
<title>Node19</title>
<g id="a_Node000019"><a xlink:href="classMsg.html#a1a57001709e44ab056a704c24760c105" target="_top" xlink:title=" ">
<polygon fill="white" stroke="#666666" points="1094.5,-619 1015.5,-619 1015.5,-600 1094.5,-600 1094.5,-619"/>
<text text-anchor="middle" x="1055" y="-607" font-family="Ubuntu Mono" font-size="10.00">Msg::getMsg</text>
</a>
</g>
</g>
<!-- Node16&#45;&gt;Node19 -->
<g id="edge19_Node000016_Node000019" class="edge">
<title>Node16&#45;&gt;Node19</title>
<g id="a_edge19_Node000016_Node000019"><a xlink:title=" ">
<path fill="none" stroke="#63b8ff" d="M922.87,-606.56C948.28,-607.13 979.56,-607.83 1005.2,-608.41"/>
<polygon fill="#63b8ff" stroke="#63b8ff" points="1005.36,-611.91 1015.44,-608.64 1005.52,-604.91 1005.36,-611.91"/>
</a>
</g>
</g>
<!-- Node25 -->
<g id="Node000025" class="node">
<title>Node25</title>
<g id="a_Node000025"><a xlink:href="classCinfo.html#aa111a219c2868af6b8d7d181d5714e9d" target="_top" xlink:title=" ">
<polygon fill="white" stroke="#666666" points="1105,-656 1005,-656 1005,-637 1105,-637 1105,-656"/>
<text text-anchor="middle" x="1055" y="-644" font-family="Ubuntu Mono" font-size="10.00">Cinfo::getOpFunc</text>
</a>
</g>
</g>
<!-- Node16&#45;&gt;Node25 -->
<g id="edge25_Node000016_Node000025" class="edge">
<title>Node16&#45;&gt;Node25</title>
<g id="a_edge25_Node000016_Node000025"><a xlink:title=" ">
<path fill="none" stroke="#63b8ff" d="M916.9,-615.01C942.49,-620.89 975.53,-628.48 1002.77,-634.73"/>
<polygon fill="#63b8ff" stroke="#63b8ff" points="1001.99,-638.14 1012.52,-636.97 1003.55,-631.32 1001.99,-638.14"/>
</a>
</g>
</g>
<!-- Node26 -->
<g id="Node000026" class="node">
<title>Node26</title>
<g id="a_Node000026"><a xlink:href="classFuncOrder.html#a4551f612b57ed99396fb4f5376c3ec71" target="_top" xlink:title=" ">
<polygon fill="white" stroke="#666666" points="1098.5,-693 1011.5,-693 1011.5,-674 1098.5,-674 1098.5,-693"/>
<text text-anchor="middle" x="1055" y="-681" font-family="Ubuntu Mono" font-size="10.00">FuncOrder::set</text>
</a>
</g>
</g>
<!-- Node16&#45;&gt;Node26 -->
<g id="edge26_Node000016_Node000026" class="edge">
<title>Node16&#45;&gt;Node26</title>
<g id="a_edge26_Node000016_Node000026"><a xlink:title=" ">
<path fill="none" stroke="#63b8ff" d="M918.75,-615.11C930.05,-618.66 941.88,-623.37 952,-629.5 971.35,-641.22 968.43,-654.14 988,-665.5 992.38,-668.04 997.14,-670.24 1002.02,-672.13"/>
<polygon fill="#63b8ff" stroke="#63b8ff" points="1000.9,-675.45 1011.49,-675.41 1003.19,-668.83 1000.9,-675.45"/>
</a>
</g>
</g>
<!-- Node20 -->
<g id="Node000020" class="node">
<title>Node20</title>
<g id="a_Node000020"><a xlink:href="classObjId.html#a1e5933713d6a73550b0923cf63f5bfd8" target="_top" xlink:title=" ">
<polygon fill="white" stroke="#666666" points="1244.5,-619 1174.5,-619 1174.5,-600 1244.5,-600 1244.5,-619"/>
<text text-anchor="middle" x="1209.5" y="-607" font-family="Ubuntu Mono" font-size="10.00">ObjId::data</text>
</a>
</g>
</g>
<!-- Node19&#45;&gt;Node20 -->
<g id="edge20_Node000019_Node000020" class="edge">
<title>Node19&#45;&gt;Node20</title>
<g id="a_edge20_Node000019_Node000020"><a xlink:title=" ">
<path fill="none" stroke="#63b8ff" d="M1094.88,-609.5C1116.06,-609.5 1142.34,-609.5 1164.3,-609.5"/>
<polygon fill="#63b8ff" stroke="#63b8ff" points="1164.37,-613 1174.37,-609.5 1164.37,-606 1164.37,-613"/>
</a>
</g>
</g>
<!-- Node21 -->
<g id="Node000021" class="node">
<title>Node21</title>
<g id="a_Node000021"><a xlink:href="classElement.html#a1978a0a584f1b10ea4a7c67e69880042" target="_top" xlink:title=" ">
<polygon fill="white" stroke="#666666" points="1393.5,-619 1308.5,-619 1308.5,-600 1393.5,-600 1393.5,-619"/>
<text text-anchor="middle" x="1351" y="-607" font-family="Ubuntu Mono" font-size="10.00">Element::data</text>
</a>
</g>
</g>
<!-- Node20&#45;&gt;Node21 -->
<g id="edge21_Node000020_Node000021" class="edge">
<title>Node20&#45;&gt;Node21</title>
<g id="a_edge21_Node000020_Node000021"><a xlink:title=" ">
<path fill="none" stroke="#63b8ff" d="M1244.63,-609.5C1260.75,-609.5 1280.34,-609.5 1298.24,-609.5"/>
<polygon fill="#63b8ff" stroke="#63b8ff" points="1298.26,-613 1308.26,-609.5 1298.26,-606 1298.26,-613"/>
</a>
</g>
</g>
<!-- Node22 -->
<g id="Node000022" class="node">
<title>Node22</title>
<g id="a_Node000022"><a xlink:href="classId.html#a574e06330597163aef0ea4c99de7ff4a" target="_top" xlink:title="Synonym for Id::operator()()">
<polygon fill="white" stroke="#666666" points="1387,-582 1315,-582 1315,-563 1387,-563 1387,-582"/>
<text text-anchor="middle" x="1351" y="-570" font-family="Ubuntu Mono" font-size="10.00">Id::element</text>
</a>
</g>
</g>
<!-- Node20&#45;&gt;Node22 -->
<g id="edge22_Node000020_Node000022" class="edge">
<title>Node20&#45;&gt;Node22</title>
<g id="a_edge22_Node000020_Node000022"><a xlink:title=" ">
<path fill="none" stroke="#63b8ff" d="M1244.63,-600.45C1262.76,-595.64 1285.28,-589.66 1304.85,-584.48"/>
<polygon fill="#63b8ff" stroke="#63b8ff" points="1306,-587.79 1314.77,-581.84 1304.21,-581.02 1306,-587.79"/>
</a>
</g>
</g>
<!-- Node24 -->
<g id="Node000024" class="node">
<title>Node24</title>
<g id="a_Node000024"><a xlink:href="classElement.html#a73a0e468a3d6cfd6475fff4a56459075" target="_top" xlink:title=" ">
<polygon fill="white" stroke="#666666" points="1405,-656 1297,-656 1297,-637 1405,-637 1405,-656"/>
<text text-anchor="middle" x="1351" y="-644" font-family="Ubuntu Mono" font-size="10.00">Element::rawIndex</text>
</a>
</g>
</g>
<!-- Node20&#45;&gt;Node24 -->
<g id="edge24_Node000020_Node000024" class="edge">
<title>Node20&#45;&gt;Node24</title>
<g id="a_edge24_Node000020_Node000024"><a xlink:title=" ">
<path fill="none" stroke="#63b8ff" d="M1244.63,-618.55C1262.48,-623.29 1284.6,-629.15 1303.96,-634.29"/>
<polygon fill="#63b8ff" stroke="#63b8ff" points="1303.23,-637.71 1313.79,-636.9 1305.02,-630.95 1303.23,-637.71"/>
</a>
</g>
</g>
<!-- Node23 -->
<g id="Node000023" class="node">
<title>Node23</title>
<g id="a_Node000023"><a xlink:href="classId.html#a2d5e7b4d5d918aadfe45102691c2be27" target="_top" xlink:title=" ">
<polygon fill="white" stroke="#666666" points="1518,-582 1441,-582 1441,-563 1518,-563 1518,-582"/>
<text text-anchor="middle" x="1479.5" y="-570" font-family="Ubuntu Mono" font-size="10.00">Id::elements</text>
</a>
</g>
</g>
<!-- Node22&#45;&gt;Node23 -->
<g id="edge23_Node000022_Node000023" class="edge">
<title>Node22&#45;&gt;Node23</title>
<g id="a_edge23_Node000022_Node000023"><a xlink:title=" ">
<path fill="none" stroke="#63b8ff" d="M1387.24,-572.5C1400.65,-572.5 1416.17,-572.5 1430.56,-572.5"/>
<polygon fill="#63b8ff" stroke="#63b8ff" points="1430.8,-576 1440.8,-572.5 1430.8,-569 1430.8,-576"/>
</a>
</g>
</g>
<!-- Node27&#45;&gt;Node5 -->
<g id="edge31_Node000027_Node000005" class="edge">
<title>Node27&#45;&gt;Node5</title>
<g id="a_edge31_Node000027_Node000005"><a xlink:title=" ">
<path fill="none" stroke="#63b8ff" d="M940.17,-577.56C944.56,-580.34 948.58,-583.62 952,-587.5 1008.49,-651.7 929.94,-713.72 988,-776.5 994.96,-784.02 1004.72,-788.52 1014.6,-791.17"/>
<polygon fill="#63b8ff" stroke="#63b8ff" points="1013.92,-794.61 1024.43,-793.26 1015.37,-787.76 1013.92,-794.61"/>
</a>
</g>
</g>
<!-- Node27&#45;&gt;Node9 -->
<g id="edge28_Node000027_Node000009" class="edge">
<title>Node27&#45;&gt;Node9</title>
<g id="a_edge28_Node000027_Node000009"><a xlink:title=" ">
<path fill="none" stroke="#63b8ff" d="M939.62,-577.51C944.19,-580.29 948.41,-583.59 952,-587.5 999,-638.59 939.74,-689.59 988,-739.5 991.92,-743.56 996.66,-746.73 1001.78,-749.2"/>
<polygon fill="#63b8ff" stroke="#63b8ff" points="1000.72,-752.54 1011.3,-752.94 1003.27,-746.03 1000.72,-752.54"/>
</a>
</g>
</g>
<!-- Node27&#45;&gt;Node14 -->
<g id="edge36_Node000027_Node000014" class="edge">
<title>Node27&#45;&gt;Node14</title>
<g id="a_edge36_Node000027_Node000014"><a xlink:title=" ">
<path fill="none" stroke="#63b8ff" d="M938.96,-577.58C943.73,-580.35 948.17,-583.62 952,-587.5 989.63,-625.61 949.43,-665.34 988,-702.5 989.29,-703.75 990.66,-704.91 992.1,-705.99"/>
<polygon fill="#63b8ff" stroke="#63b8ff" points="990.56,-709.15 1000.92,-711.37 994.21,-703.18 990.56,-709.15"/>
</a>
</g>
</g>
<!-- Node27&#45;&gt;Node15 -->
<g id="edge37_Node000027_Node000015" class="edge">
<title>Node27&#45;&gt;Node15</title>
<g id="a_edge37_Node000027_Node000015"><a xlink:title=" ">
<path fill="none" stroke="#63b8ff" d="M927.51,-577.56C982.81,-590.08 1069.37,-599.18 1122,-552.5 1197.1,-485.88 1125.8,-424.59 1158,-329.5 1167.46,-301.56 1184.69,-272.01 1196.37,-253.66"/>
<polygon fill="#63b8ff" stroke="#63b8ff" points="1199.38,-255.45 1201.89,-245.15 1193.51,-251.63 1199.38,-255.45"/>
</a>
</g>
</g>
<!-- Node27&#45;&gt;Node17 -->
<g id="edge29_Node000027_Node000017" class="edge">
<title>Node27&#45;&gt;Node17</title>
<g id="a_edge29_Node000027_Node000017"><a xlink:title=" ">
<path fill="none" stroke="#63b8ff" d="M891.76,-547.33C912.57,-528.65 950.45,-497.14 988,-478.5 997.19,-473.93 1007.67,-470.29 1017.52,-467.47"/>
<polygon fill="#63b8ff" stroke="#63b8ff" points="1018.73,-470.77 1027.49,-464.81 1016.92,-464 1018.73,-470.77"/>
</a>
</g>
</g>
<!-- Node27&#45;&gt;Node18 -->
<g id="edge30_Node000027_Node000018" class="edge">
<title>Node27&#45;&gt;Node18</title>
<g id="a_edge30_Node000027_Node000018"><a xlink:title=" ">
<path fill="none" stroke="#63b8ff" d="M908.58,-547.49C930.79,-537.71 960.84,-525.05 988,-515.5 997.52,-512.15 1007.95,-508.94 1017.66,-506.15"/>
<polygon fill="#63b8ff" stroke="#63b8ff" points="1018.77,-509.47 1027.44,-503.39 1016.87,-502.73 1018.77,-509.47"/>
</a>
</g>
</g>
<!-- Node27&#45;&gt;Node19 -->
<g id="edge32_Node000027_Node000019" class="edge">
<title>Node27&#45;&gt;Node19</title>
<g id="a_edge32_Node000027_Node000019"><a xlink:title=" ">
<path fill="none" stroke="#63b8ff" d="M932.47,-577.5C956.82,-583.91 984.88,-591.3 1007.9,-597.36"/>
<polygon fill="#63b8ff" stroke="#63b8ff" points="1007.19,-600.79 1017.76,-599.96 1008.98,-594.03 1007.19,-600.79"/>
</a>
</g>
</g>
<!-- Node27&#45;&gt;Node25 -->
<g id="edge33_Node000027_Node000025" class="edge">
<title>Node27&#45;&gt;Node25</title>
<g id="a_edge33_Node000027_Node000025"><a xlink:title=" ">
<path fill="none" stroke="#63b8ff" d="M933.06,-577.54C939.7,-580.36 946.17,-583.65 952,-587.5 972.24,-600.85 967.43,-615.65 988,-628.5 990.63,-630.15 993.42,-631.64 996.3,-633"/>
<polygon fill="#63b8ff" stroke="#63b8ff" points="995.15,-636.32 1005.73,-636.91 997.83,-629.85 995.15,-636.32"/>
</a>
</g>
</g>
<!-- Node28 -->
<g id="Node000028" class="node">
<title>Node28</title>
<g id="a_Node000028"><a xlink:href="classOpFunc.html#acebf5db12a82f08ca7aed646dfc4a99a" target="_top" xlink:title=" ">
<polygon fill="white" stroke="#666666" points="1119,-543 991,-543 991,-524 1119,-524 1119,-543"/>
<text text-anchor="middle" x="1055" y="-531" font-family="Ubuntu Mono" font-size="10.00">OpFunc::makeHopFunc</text>
</a>
</g>
</g>
<!-- Node27&#45;&gt;Node28 -->
<g id="edge34_Node000027_Node000028" class="edge">
<title>Node27&#45;&gt;Node28</title>
<g id="a_edge34_Node000027_Node000028"><a xlink:title=" ">
<path fill="none" stroke="#63b8ff" d="M951.72,-550.12C962.89,-548.3 974.34,-546.44 985.35,-544.65"/>
<polygon fill="#63b8ff" stroke="#63b8ff" points="986.01,-548.09 995.31,-543.03 984.88,-541.18 986.01,-548.09"/>
</a>
</g>
</g>
<!-- Node29 -->
<g id="Node000029" class="node">
<title>Node29</title>
<g id="a_Node000029"><a xlink:href="classMsgDigest.html#aed14727a58012c32839433c2ae957aac" target="_top" xlink:title=" ">
<polygon fill="white" stroke="#666666" points="1118,-432 992,-432 992,-413 1118,-413 1118,-432"/>
<text text-anchor="middle" x="1055" y="-420" font-family="Ubuntu Mono" font-size="10.00">MsgDigest::MsgDigest</text>
</a>
</g>
</g>
<!-- Node27&#45;&gt;Node29 -->
<g id="edge35_Node000027_Node000029" class="edge">
<title>Node27&#45;&gt;Node29</title>
<g id="a_edge35_Node000027_Node000029"><a xlink:title=" ">
<path fill="none" stroke="#63b8ff" d="M885.37,-547.4C902.92,-521.76 942.06,-469.73 988,-441.5 991.54,-439.32 995.35,-437.39 999.27,-435.66"/>
<polygon fill="#63b8ff" stroke="#63b8ff" points="1000.55,-438.92 1008.59,-432.03 998,-432.4 1000.55,-438.92"/>
</a>
</g>
</g>
<!-- Node30&#45;&gt;Node7 -->
<g id="edge51_Node000030_Node000007" class="edge">
<title>Node30&#45;&gt;Node7</title>
<g id="a_edge51_Node000030_Node000007"><a xlink:title=" ">
<path fill="none" stroke="#63b8ff" d="M884.45,-318.82C899.77,-301.91 931.35,-265.43 952,-230.5 972.67,-195.53 958.48,-174.4 988,-146.5 992.26,-142.48 997.24,-139.12 1002.53,-136.31"/>
<polygon fill="#63b8ff" stroke="#63b8ff" points="1004.03,-139.48 1011.64,-132.11 1001.09,-133.12 1004.03,-139.48"/>
</a>
</g>
</g>
<!-- Node30&#45;&gt;Node15 -->
<g id="edge55_Node000030_Node000015" class="edge">
<title>Node30&#45;&gt;Node15</title>
<g id="a_edge55_Node000030_Node000015"><a xlink:title=" ">
<path fill="none" stroke="#63b8ff" d="M883.23,-318.86C897.17,-301.4 927.4,-263.31 952,-230.5 968.43,-208.59 963.63,-192.98 988,-180.5 1041.01,-153.35 1064.82,-163.86 1122,-180.5 1148.05,-188.08 1173.74,-206.13 1190.27,-219.5"/>
<polygon fill="#63b8ff" stroke="#63b8ff" points="1188.11,-222.26 1198.03,-225.98 1192.6,-216.88 1188.11,-222.26"/>
</a>
</g>
</g>
<!-- Node30&#45;&gt;Node17 -->
<g id="edge39_Node000030_Node000017" class="edge">
<title>Node30&#45;&gt;Node17</title>
<g id="a_edge39_Node000030_Node000017"><a xlink:title=" ">
<path fill="none" stroke="#63b8ff" d="M882.19,-338.03C897.98,-359.82 939.91,-413.52 988,-441.5 997.01,-446.74 1007.6,-450.5 1017.62,-453.19"/>
<polygon fill="#63b8ff" stroke="#63b8ff" points="1016.84,-456.6 1027.38,-455.52 1018.47,-449.79 1016.84,-456.6"/>
</a>
</g>
</g>
<!-- Node30&#45;&gt;Node18 -->
<g id="edge40_Node000030_Node000018" class="edge">
<title>Node30&#45;&gt;Node18</title>
<g id="a_edge40_Node000030_Node000018"><a xlink:title=" ">
<path fill="none" stroke="#63b8ff" d="M879.98,-338.33C892.73,-365.21 931.99,-440.45 988,-478.5 996.69,-484.41 1007.26,-488.38 1017.38,-491.05"/>
<polygon fill="#63b8ff" stroke="#63b8ff" points="1016.72,-494.49 1027.25,-493.31 1018.28,-487.67 1016.72,-494.49"/>
</a>
</g>
</g>
<!-- Node30&#45;&gt;Node19 -->
<g id="edge49_Node000030_Node000019" class="edge">
<title>Node30&#45;&gt;Node19</title>
<g id="a_edge49_Node000030_Node000019"><a xlink:title=" ">
<path fill="none" stroke="#63b8ff" d="M878.81,-338.22C890.23,-370.86 930.49,-478.7 988,-552.5 1000.48,-568.52 1018.01,-583.4 1031.86,-593.94"/>
<polygon fill="#63b8ff" stroke="#63b8ff" points="1029.82,-596.78 1039.94,-599.91 1033.98,-591.15 1029.82,-596.78"/>
</a>
</g>
</g>
<!-- Node30&#45;&gt;Node29 -->
<g id="edge52_Node000030_Node000029" class="edge">
<title>Node30&#45;&gt;Node29</title>
<g id="a_edge52_Node000030_Node000029"><a xlink:title=" ">
<path fill="none" stroke="#63b8ff" d="M886.88,-338.08C906.38,-354.04 947.94,-386.12 988,-404.5 992.29,-406.47 996.85,-408.26 1001.48,-409.89"/>
<polygon fill="#63b8ff" stroke="#63b8ff" points="1000.43,-413.23 1011.02,-412.98 1002.59,-406.57 1000.43,-413.23"/>
</a>
</g>
</g>
<!-- Node31 -->
<g id="Node000031" class="node">
<title>Node31</title>
<g id="a_Node000031"><a xlink:href="Element_8cpp.html#a57a0a78418a1071569a8d86e7e8b7fc6" target="_top" xlink:title=" ">
<polygon fill="white" stroke="#666666" points="1112,-395 998,-395 998,-376 1112,-376 1112,-395"/>
<text text-anchor="middle" x="1055" y="-383" font-family="Ubuntu Mono" font-size="10.00">filterOffNodeTargets</text>
</a>
</g>
</g>
<!-- Node30&#45;&gt;Node31 -->
<g id="edge41_Node000030_Node000031" class="edge">
<title>Node30&#45;&gt;Node31</title>
<g id="a_edge41_Node000030_Node000031"><a xlink:title=" ">
<path fill="none" stroke="#63b8ff" d="M905.38,-338.04C935.24,-347.58 981.33,-362.29 1014.26,-372.81"/>
<polygon fill="#63b8ff" stroke="#63b8ff" points="1013.43,-376.22 1024.03,-375.93 1015.56,-369.55 1013.43,-376.22"/>
</a>
</g>
</g>
<!-- Node34 -->
<g id="Node000034" class="node">
<title>Node34</title>
<g id="a_Node000034"><a xlink:href="classElement.html#a695b42ddcfcbedf97d74718b92da5020" target="_top" xlink:title="True if there is a copy of every dataEntry on all nodes.">
<polygon fill="white" stroke="#666666" points="1261,-357 1158,-357 1158,-338 1261,-338 1261,-357"/>
<text text-anchor="middle" x="1209.5" y="-345" font-family="Ubuntu Mono" font-size="10.00">Element::isGlobal</text>
</a>
</g>
</g>
<!-- Node30&#45;&gt;Node34 -->
<g id="edge50_Node000030_Node000034" class="edge">
<title>Node30&#45;&gt;Node34</title>
<g id="a_edge50_Node000030_Node000034"><a xlink:title=" ">
<path fill="none" stroke="#63b8ff" d="M952.32,-332.88C1011.68,-336.27 1092.73,-340.89 1147.65,-344.03"/>
<polygon fill="#63b8ff" stroke="#63b8ff" points="1147.75,-347.54 1157.93,-344.61 1148.15,-340.55 1147.75,-347.54"/>
</a>
</g>
</g>
<!-- Node35 -->
<g id="Node000035" class="node">
<title>Node35</title>
<g id="a_Node000035"><a xlink:href="classFuncOrder.html#ac395ecf9872fda11b5636dcec9d6652e" target="_top" xlink:title=" ">
<polygon fill="white" stroke="#666666" points="1101.5,-319 1008.5,-319 1008.5,-300 1101.5,-300 1101.5,-319"/>
<text text-anchor="middle" x="1055" y="-307" font-family="Ubuntu Mono" font-size="10.00">FuncOrder::func</text>
</a>
</g>
</g>
<!-- Node30&#45;&gt;Node35 -->
<g id="edge48_Node000030_Node000035" class="edge">
<title>Node30&#45;&gt;Node35</title>
<g id="a_edge48_Node000030_Node000035"><a xlink:title=" ">
<path fill="none" stroke="#63b8ff" d="M952.24,-320.33C967.6,-318.7 983.46,-317.01 997.96,-315.47"/>
<polygon fill="#63b8ff" stroke="#63b8ff" points="998.68,-318.91 1008.25,-314.37 997.93,-311.95 998.68,-318.91"/>
</a>
</g>
</g>
<!-- Node36 -->
<g id="Node000036" class="node">
<title>Node36</title>
<g id="a_Node000036"><a xlink:href="classShell.html#a4c3608b6ca5fcec63a13b12c49b9d530" target="_top" xlink:title=" ">
<polygon fill="white" stroke="#666666" points="1099,-282 1011,-282 1011,-263 1099,-263 1099,-282"/>
<text text-anchor="middle" x="1055" y="-270" font-family="Ubuntu Mono" font-size="10.00">Shell::myNode</text>
</a>
</g>
</g>
<!-- Node30&#45;&gt;Node36 -->
<g id="edge53_Node000030_Node000036" class="edge">
<title>Node30&#45;&gt;Node36</title>
<g id="a_edge53_Node000030_Node000036"><a xlink:title=" ">
<path fill="none" stroke="#63b8ff" d="M903.61,-318.93C926.31,-311.28 959.12,-300.4 988,-291.5 995.21,-289.28 1002.89,-286.99 1010.36,-284.81"/>
<polygon fill="#63b8ff" stroke="#63b8ff" points="1011.38,-288.16 1020.01,-282.02 1009.43,-281.44 1011.38,-288.16"/>
</a>
</g>
</g>
<!-- Node30&#45;&gt;Node37 -->
<g id="edge54_Node000030_Node000037" class="edge">
<title>Node30&#45;&gt;Node37</title>
<g id="a_edge54_Node000030_Node000037"><a xlink:title=" ">
<path fill="none" stroke="#63b8ff" d="M877.48,-318.69C885.03,-283.83 915.34,-164.82 988,-104.5 990.05,-102.8 992.24,-101.25 994.53,-99.84"/>
<polygon fill="#63b8ff" stroke="#63b8ff" points="996.53,-102.76 1003.82,-95.07 993.32,-96.53 996.53,-102.76"/>
</a>
</g>
</g>
<!-- Node38 -->
<g id="Node000038" class="node">
<title>Node38</title>
<g id="a_Node000038"><a xlink:href="classMsg.html#a75bb9c90ff83027b60f24b1d8304128e" target="_top" xlink:title=" ">
<polygon fill="white" stroke="#666666" points="1095,-245 1015,-245 1015,-226 1095,-226 1095,-245"/>
<text text-anchor="middle" x="1055" y="-233" font-family="Ubuntu Mono" font-size="10.00">Msg::sources</text>
</a>
</g>
</g>
<!-- Node30&#45;&gt;Node38 -->
<g id="edge56_Node000030_Node000038" class="edge">
<title>Node30&#45;&gt;Node38</title>
<g id="a_edge56_Node000030_Node000038"><a xlink:title=" ">
<path fill="none" stroke="#63b8ff" d="M887.59,-318.75C907.45,-303.17 948.71,-272.57 988,-254.5 993.41,-252.01 999.23,-249.77 1005.08,-247.77"/>
<polygon fill="#63b8ff" stroke="#63b8ff" points="1006.44,-251.02 1014.9,-244.65 1004.31,-244.34 1006.44,-251.02"/>
</a>
</g>
</g>
<!-- Node39 -->
<g id="Node000039" class="node">
<title>Node39</title>
<g id="a_Node000039"><a xlink:href="classMsg.html#a24399903558da20171f6bd8e317c6c38" target="_top" xlink:title=" ">
<polygon fill="white" stroke="#666666" points="1093.5,-208 1016.5,-208 1016.5,-189 1093.5,-189 1093.5,-208"/>
<text text-anchor="middle" x="1055" y="-196" font-family="Ubuntu Mono" font-size="10.00">Msg::targets</text>
</a>
</g>
</g>
<!-- Node30&#45;&gt;Node39 -->
<g id="edge57_Node000030_Node000039" class="edge">
<title>Node30&#45;&gt;Node39</title>
<g id="a_edge57_Node000030_Node000039"><a xlink:title=" ">
<path fill="none" stroke="#63b8ff" d="M882.5,-318.87C898.61,-297.38 940.64,-245.22 988,-217.5 993.81,-214.1 1000.26,-211.28 1006.8,-208.94"/>
<polygon fill="#63b8ff" stroke="#63b8ff" points="1007.92,-212.26 1016.36,-205.85 1005.77,-205.59 1007.92,-212.26"/>
</a>
</g>
</g>
<!-- Node31&#45;&gt;Node3 -->
<g id="edge42_Node000031_Node000003" class="edge">
<title>Node31&#45;&gt;Node3</title>
<g id="a_edge42_Node000031_Node000003"><a xlink:title=" ">
<path fill="none" stroke="#63b8ff" d="M1109.98,-395.1C1114.48,-397.58 1118.6,-400.66 1122,-404.5 1188.86,-479.98 1131.6,-531.19 1158,-628.5 1169.04,-669.19 1188.42,-714.67 1199.7,-739.6"/>
<polygon fill="#63b8ff" stroke="#63b8ff" points="1196.63,-741.32 1203.98,-748.95 1203,-738.4 1196.63,-741.32"/>
</a>
</g>
</g>
<!-- Node31&#45;&gt;Node4 -->
<g id="edge43_Node000031_Node000004" class="edge">
<title>Node31&#45;&gt;Node4</title>
<g id="a_edge43_Node000031_Node000004"><a xlink:title=" ">
<path fill="none" stroke="#63b8ff" d="M1101.41,-395.03C1108.58,-397.52 1115.7,-400.63 1122,-404.5 1153.75,-424.01 1181.28,-458.29 1196.32,-479.33"/>
<polygon fill="#63b8ff" stroke="#63b8ff" points="1193.57,-481.51 1202.15,-487.72 1199.31,-477.51 1193.57,-481.51"/>
</a>
</g>
</g>
<!-- Node31&#45;&gt;Node15 -->
<g id="edge47_Node000031_Node000015" class="edge">
<title>Node31&#45;&gt;Node15</title>
<g id="a_edge47_Node000031_Node000015"><a xlink:title=" ">
<path fill="none" stroke="#63b8ff" d="M1068.03,-375.79C1081.53,-364.73 1103.9,-345.94 1122,-328.5 1148.28,-303.17 1176.73,-271.72 1193.57,-252.65"/>
<polygon fill="#63b8ff" stroke="#63b8ff" points="1196.26,-254.88 1200.23,-245.06 1191,-250.27 1196.26,-254.88"/>
</a>
</g>
</g>
<!-- Node32 -->
<g id="Node000032" class="node">
<title>Node32</title>
<g id="a_Node000032"><a xlink:href="classEref.html#a5dee1e5d3e0a76726286eccbb0ffda24" target="_top" xlink:title=" ">
<polygon fill="white" stroke="#666666" points="1251,-395 1168,-395 1168,-376 1251,-376 1251,-395"/>
<text text-anchor="middle" x="1209.5" y="-383" font-family="Ubuntu Mono" font-size="10.00">Eref::getNode</text>
</a>
</g>
</g>
<!-- Node31&#45;&gt;Node32 -->
<g id="edge44_Node000031_Node000032" class="edge">
<title>Node31&#45;&gt;Node32</title>
<g id="a_edge44_Node000031_Node000032"><a xlink:title=" ">
<path fill="none" stroke="#63b8ff" d="M1112.35,-385.5C1127.1,-385.5 1142.91,-385.5 1157.37,-385.5"/>
<polygon fill="#63b8ff" stroke="#63b8ff" points="1157.63,-389 1167.63,-385.5 1157.63,-382 1157.63,-389"/>
</a>
</g>
</g>
<!-- Node31&#45;&gt;Node34 -->
<g id="edge46_Node000031_Node000034" class="edge">
<title>Node31&#45;&gt;Node34</title>
<g id="a_edge46_Node000031_Node000034"><a xlink:title=" ">
<path fill="none" stroke="#63b8ff" d="M1094.48,-375.91C1114.52,-370.92 1139.2,-364.77 1160.48,-359.47"/>
<polygon fill="#63b8ff" stroke="#63b8ff" points="1161.44,-362.83 1170.29,-357.02 1159.74,-356.04 1161.44,-362.83"/>
</a>
</g>
</g>
<!-- Node33 -->
<g id="Node000033" class="node">
<title>Node33</title>
<g id="a_Node000033"><a xlink:href="classElement.html#a6350d721871c508fbf68286a3907e4a1" target="_top" xlink:title="Returns node number of specified dataIndex.">
<polygon fill="white" stroke="#666666" points="1403,-395 1299,-395 1299,-376 1403,-376 1403,-395"/>
<text text-anchor="middle" x="1351" y="-383" font-family="Ubuntu Mono" font-size="10.00">Element::getNode</text>
</a>
</g>
</g>
<!-- Node32&#45;&gt;Node33 -->
<g id="edge45_Node000032_Node000033" class="edge">
<title>Node32&#45;&gt;Node33</title>
<g id="a_edge45_Node000032_Node000033"><a xlink:title=" ">
<path fill="none" stroke="#63b8ff" d="M1251.22,-385.5C1262.96,-385.5 1276.04,-385.5 1288.73,-385.5"/>
<polygon fill="#63b8ff" stroke="#63b8ff" points="1288.8,-389 1298.8,-385.5 1288.8,-382 1288.8,-389"/>
</a>
</g>
</g>
<!-- Node42 -->
<g id="Node000042" class="node">
<title>Node42</title>
<g id="a_Node000042"><a xlink:href="classSrcFinfo1.html#a530c4cec4de6226aa2a32c28f8448b7e" target="_top" xlink:title=" ">
<polygon fill="white" stroke="#666666" points="421.5,-19 308.5,-19 308.5,0 421.5,0 421.5,-19"/>
<text text-anchor="middle" x="365" y="-7" font-family="Ubuntu Mono" font-size="10.00">SrcFinfo1::SrcFinfo1</text>
</a>
</g>
</g>
<!-- Node41&#45;&gt;Node42 -->
<g id="edge61_Node000041_Node000042" class="edge">
<title>Node41&#45;&gt;Node42</title>
<g id="a_edge61_Node000041_Node000042"><a xlink:title=" ">
<path fill="none" stroke="#63b8ff" d="M222.27,-411.82C226.74,-357.8 250.96,-93.73 302,-33.5 305.19,-29.74 309.04,-26.56 313.25,-23.88"/>
<polygon fill="#63b8ff" stroke="#63b8ff" points="315.12,-26.85 322.28,-19.05 311.81,-20.68 315.12,-26.85"/>
</a>
</g>
</g>
</g>
</svg>

<g id="navigator" transform="translate(0 0)" fill="#404254">
  <rect fill="#f2f5e9" fill-opacity="0.5" stroke="#606060" stroke-width=".5" x="0" y="0" width="60" height="60"/>
  <use id="zoomplus" xlink:href="#zoomPlus" x="17" y="9" onmousedown="handleZoom(evt,'in')"/>
  <use id="zoomminus" xlink:href="#zoomMin" x="42" y="9" onmousedown="handleZoom(evt,'out')"/>
  <use id="reset" xlink:href="#resetDef" x="30" y="36" onmousedown="handleReset()"/>
   <use id="arrowup" xlink:href="#arrowUp" x="0" y="0" onmousedown="handlePan(0,-1)"/>
  <use id="arrowright" xlink:href="#arrowRight" x="0" y="0" onmousedown="handlePan(1,0)"/>
  <use id="arrowdown" xlink:href="#arrowDown" x="0" y="0" onmousedown="handlePan(0,1)"/>
  <use id="arrowleft" xlink:href="#arrowLeft" x="0" y="0" onmousedown="handlePan(-1,0)"/>
</g>
<svg viewBox="0 0 15 15" width="100%" height="30px" preserveAspectRatio="xMaxYMin meet">
 <g id="arrow_out" transform="scale(0.3 0.3)">
  <a xlink:href="classMarkovSolverBase_aa480faf1207517e7a8c1a54d09dd5e97_cgraph_org.svg" target="_base">
   <rect id="button" ry="5" rx="5" y="6" x="6" height="38" width="38"
        fill="#f2f5e9" fill-opacity="0.5" stroke="#606060" stroke-width="1.0"/>
   <path id="arrow"
     d="M 11.500037,31.436501 C 11.940474,20.09759 22.043105,11.32322 32.158766,21.979434 L 37.068811,17.246167 C 37.068811,17.246167 37.088388,32 37.088388,32 L 22.160133,31.978069 C 22.160133,31.978069 26.997745,27.140456 26.997745,27.140456 C 18.528582,18.264221 13.291696,25.230495 11.500037,31.436501 z"
     style="fill:#404040;"/>
  </a>
 </g>
</svg>

<style type='text/css'>
<![CDATA[
[data-mouse-over-selected='false'] { opacity: 0.7; }
[data-mouse-over-selected='true']  { opacity: 1.0; }
]]>
</style>
<script type="application/ecmascript"><![CDATA[
document.addEventListener('DOMContentLoaded', (event) => {
  highlightEdges();
  highlightAdjacentNodes();
});
]]></script>
</svg>
