<?xml version="1.0" encoding="UTF-8" standalone="no"?>
<!DOCTYPE svg PUBLIC "-//W3C//DTD SVG 1.1//EN"
 "http://www.w3.org/Graphics/SVG/1.1/DTD/svg11.dtd">
<!-- Generated by graphviz version 2.43.0 (0)
 -->
<!-- Title: SocketStreamer::process Pages: 1 -->
<!--zoomable 94 -->

<svg id="main" version="1.1" xmlns="http://www.w3.org/2000/svg" xmlns:xlink="http://www.w3.org/1999/xlink" xml:space="preserve" onload="init(evt)">
<style type="text/css"><![CDATA[
.node, .edge {opacity: 0.7;}
.node.selected, .edge.selected {opacity: 1;}
.edge:hover path { stroke: red; }
.edge:hover polygon { stroke: red; fill: red; }
]]></style>

<defs>
  <circle id="rim" cx="0" cy="0" r="7"/>
  <circle id="rim2" cx="0" cy="0" r="3.5"/>
  <g id="zoomPlus">
    <use xlink:href="#rim" fill="#404040"><set attributeName="fill" to="#808080" begin="zoomplus.mouseover" end="zoomplus.mouseout"/></use>
    <path d="M-4,0h8M0,-4v8" fill="none" stroke="white" stroke-width="1.5" pointer-events="none"/>
  </g>
  <g id="zoomMin">
    <use xlink:href="#rim" fill="#404040"><set attributeName="fill" to="#808080" begin="zoomminus.mouseover" end="zoomminus.mouseout"/></use>
    <path d="M-4,0h8" fill="none" stroke="white" stroke-width="1.5" pointer-events="none"/>
  </g>
  <g id="arrowUp" transform="translate(30 24)">
    <use xlink:href="#rim"/>
    <path pointer-events="none" fill="none" stroke="white" stroke-width="1.5" d="M0,-3.0v7 M-2.5,-0.5L0,-3.0L2.5,-0.5"/>
  </g>
  <g id="arrowRight" transform="rotate(90) translate(36 -43)">
    <use xlink:href="#rim"/>
    <path pointer-events="none" fill="none" stroke="white" stroke-width="1.5" d="M0,-3.0v7 M-2.5,-0.5L0,-3.0L2.5,-0.5"/>
  </g>
  <g id="arrowDown" transform="rotate(180) translate(-30 -48)">
    <use xlink:href="#rim"/>
    <path pointer-events="none" fill="none" stroke="white" stroke-width="1.5" d="M0,-3.0v7 M-2.5,-0.5L0,-3.0L2.5,-0.5"/>
  </g>
  <g id="arrowLeft" transform="rotate(270) translate(-36 17)">
    <use xlink:href="#rim"/>
    <path pointer-events="none" fill="none" stroke="white" stroke-width="1.5" d="M0,-3.0v7 M-2.5,-0.5L0,-3.0L2.5,-0.5"/>
  </g>
  <g id="resetDef">
    <use xlink:href="#rim2" fill="#404040"><set attributeName="fill" to="#808080" begin="reset.mouseover" end="reset.mouseout"/></use>
  </g>
</defs>
<script type="application/ecmascript">
var viewWidth = 1144;
var viewHeight = 94;
var sectionId = 'dynsection-24';
</script>
<script type="application/ecmascript" xlink:href="svg.min.js"/>
<svg id="graph" class="graph">
<g id="viewport">
<title>SocketStreamer::process</title>
<!-- Node1 -->
<g id="Node000001" class="node">
<title>Node1</title>
<g id="a_Node000001"><a xlink:title="This function is called at its clock tick.">
<polygon fill="#999999" stroke="#666666" points="137,-58 0,-58 0,-39 137,-39 137,-58"/>
<text text-anchor="middle" x="68.5" y="-46" font-family="Ubuntu Mono" font-size="10.00">SocketStreamer::process</text>
</a>
</g>
</g>
<!-- Node2 -->
<g id="Node000002" class="node">
<title>Node2</title>
<g id="a_Node000002"><a xlink:href="classSocketStreamer.html#ae63fbcfe1e01ac0e90d60f464b5bdb85" target="_top" xlink:title=" ">
<polygon fill="white" stroke="#666666" points="307,-58 173,-58 173,-39 307,-39 307,-58"/>
<text text-anchor="middle" x="240" y="-46" font-family="Ubuntu Mono" font-size="10.00">SocketStreamer::stream</text>
</a>
</g>
</g>
<!-- Node1&#45;&gt;Node2 -->
<g id="edge1_Node000001_Node000002" class="edge">
<title>Node1&#45;&gt;Node2</title>
<g id="a_edge1_Node000001_Node000002"><a xlink:title=" ">
<path fill="none" stroke="#63b8ff" d="M137.47,-48.5C145.78,-48.5 154.32,-48.5 162.75,-48.5"/>
<polygon fill="#63b8ff" stroke="#63b8ff" points="162.95,-52 172.95,-48.5 162.95,-45 162.95,-52"/>
</a>
</g>
</g>
<!-- Node3 -->
<g id="Node000003" class="node">
<title>Node3</title>
<g id="a_Node000003"><a xlink:href="classSocketStreamer.html#a5b918fc4d0734d766b2d82b895d7854a" target="_top" xlink:title=" ">
<polygon fill="white" stroke="#666666" points="501,-58 343,-58 343,-39 501,-39 501,-58"/>
<text text-anchor="middle" x="422" y="-46" font-family="Ubuntu Mono" font-size="10.00">SocketStreamer::streamData</text>
</a>
</g>
</g>
<!-- Node2&#45;&gt;Node3 -->
<g id="edge2_Node000002_Node000003" class="edge">
<title>Node2&#45;&gt;Node3</title>
<g id="a_edge2_Node000002_Node000003"><a xlink:title=" ">
<path fill="none" stroke="#63b8ff" d="M307,-48.5C315.37,-48.5 324.03,-48.5 332.68,-48.5"/>
<polygon fill="#63b8ff" stroke="#63b8ff" points="332.79,-52 342.79,-48.5 332.79,-45 332.79,-52"/>
</a>
</g>
</g>
<!-- Node4 -->
<g id="Node000004" class="node">
<title>Node4</title>
<g id="a_Node000004"><a xlink:href="classSocketStreamer.html#a5894d113adfdb55912c0e7ad3cf33b56" target="_top" xlink:title=" ">
<polygon fill="white" stroke="#666666" points="693.5,-85.5 547.5,-85.5 547.5,-55.5 693.5,-55.5 693.5,-85.5"/>
<text text-anchor="start" x="555.5" y="-73.5" font-family="Ubuntu Mono" font-size="10.00">SocketStreamer::addString</text>
<text text-anchor="middle" x="620.5" y="-62.5" font-family="Ubuntu Mono" font-size="10.00">ToDoubleVec</text>
</a>
</g>
</g>
<!-- Node3&#45;&gt;Node4 -->
<g id="edge3_Node000003_Node000004" class="edge">
<title>Node3&#45;&gt;Node4</title>
<g id="a_edge3_Node000003_Node000004"><a xlink:title=" ">
<path fill="none" stroke="#63b8ff" d="M501.23,-57.26C513.1,-58.59 525.38,-59.96 537.33,-61.3"/>
<polygon fill="#63b8ff" stroke="#63b8ff" points="536.96,-64.78 547.28,-62.41 537.73,-57.82 536.96,-64.78"/>
</a>
</g>
</g>
<!-- Node5 -->
<g id="Node000005" class="node">
<title>Node5</title>
<g id="a_Node000005"><a xlink:href="classSocketStreamer.html#af36c54b2c56e955ef57a27518ebc2d32" target="_top" xlink:title=" ">
<polygon fill="white" stroke="#666666" points="704,-37 537,-37 537,-18 704,-18 704,-37"/>
<text text-anchor="middle" x="620.5" y="-25" font-family="Ubuntu Mono" font-size="10.00">SocketStreamer::dataToStream</text>
</a>
</g>
</g>
<!-- Node3&#45;&gt;Node5 -->
<g id="edge4_Node000003_Node000005" class="edge">
<title>Node3&#45;&gt;Node5</title>
<g id="a_edge4_Node000003_Node000005"><a xlink:title=" ">
<path fill="none" stroke="#63b8ff" d="M501.23,-40.14C509.61,-39.24 518.2,-38.33 526.73,-37.41"/>
<polygon fill="#63b8ff" stroke="#63b8ff" points="527.14,-40.89 536.71,-36.35 526.39,-33.93 527.14,-40.89"/>
</a>
</g>
</g>
<!-- Node6 -->
<g id="Node000006" class="node">
<title>Node6</title>
<g id="a_Node000006"><a xlink:href="classTable.html#a29547ce2fe562669b428692a937dd172" target="_top" xlink:title=" ">
<polygon fill="white" stroke="#666666" points="844,-37 740,-37 740,-18 844,-18 844,-37"/>
<text text-anchor="middle" x="792" y="-25" font-family="Ubuntu Mono" font-size="10.00">Table::collectData</text>
</a>
</g>
</g>
<!-- Node5&#45;&gt;Node6 -->
<g id="edge5_Node000005_Node000006" class="edge">
<title>Node5&#45;&gt;Node6</title>
<g id="a_edge5_Node000005_Node000006"><a xlink:title=" ">
<path fill="none" stroke="#63b8ff" d="M704.26,-27.5C712.77,-27.5 721.31,-27.5 729.53,-27.5"/>
<polygon fill="#63b8ff" stroke="#63b8ff" points="729.74,-31 739.74,-27.5 729.74,-24 729.74,-31"/>
</a>
</g>
</g>
<!-- Node7 -->
<g id="Node000007" class="node">
<title>Node7</title>
<g id="a_Node000007"><a xlink:href="classTable.html#a7329dce7415115f145edda28fc9b8eec" target="_top" xlink:title=" ">
<polygon fill="white" stroke="#666666" points="987,-56 880,-56 880,-37 987,-37 987,-56"/>
<text text-anchor="middle" x="933.5" y="-44" font-family="Ubuntu Mono" font-size="10.00">Table::clearAllVecs</text>
</a>
</g>
</g>
<!-- Node6&#45;&gt;Node7 -->
<g id="edge6_Node000006_Node000007" class="edge">
<title>Node6&#45;&gt;Node7</title>
<g id="a_edge6_Node000006_Node000007"><a xlink:title=" ">
<path fill="none" stroke="#63b8ff" d="M844.15,-34.47C852.54,-35.61 861.31,-36.8 869.93,-37.98"/>
<polygon fill="#63b8ff" stroke="#63b8ff" points="869.57,-41.46 879.95,-39.34 870.51,-34.53 869.57,-41.46"/>
</a>
</g>
</g>
<!-- Node9 -->
<g id="Node000009" class="node">
<title>Node9</title>
<g id="a_Node000009"><a xlink:href="classTableBase.html#ac012d3d3c34dc3e6cfecf40b8a7f62fe" target="_top" xlink:title=" ">
<polygon fill="white" stroke="#666666" points="978,-19 889,-19 889,0 978,0 978,-19"/>
<text text-anchor="middle" x="933.5" y="-7" font-family="Ubuntu Mono" font-size="10.00">TableBase::vec</text>
</a>
</g>
</g>
<!-- Node6&#45;&gt;Node9 -->
<g id="edge8_Node000006_Node000009" class="edge">
<title>Node6&#45;&gt;Node9</title>
<g id="a_edge8_Node000006_Node000009"><a xlink:title=" ">
<path fill="none" stroke="#63b8ff" d="M844.15,-20.9C855.35,-19.46 867.23,-17.92 878.53,-16.46"/>
<polygon fill="#63b8ff" stroke="#63b8ff" points="879.23,-19.9 888.7,-15.15 878.34,-12.96 879.23,-19.9"/>
</a>
</g>
</g>
<!-- Node8 -->
<g id="Node000008" class="node">
<title>Node8</title>
<g id="a_Node000008"><a xlink:href="classTableBase.html#aa09e17d475b3eda3d9c568baaa93ec27" target="_top" xlink:title=" ">
<polygon fill="white" stroke="#666666" points="1136,-56 1023,-56 1023,-37 1136,-37 1136,-56"/>
<text text-anchor="middle" x="1079.5" y="-44" font-family="Ubuntu Mono" font-size="10.00">TableBase::clearVec</text>
</a>
</g>
</g>
<!-- Node7&#45;&gt;Node8 -->
<g id="edge7_Node000007_Node000008" class="edge">
<title>Node7&#45;&gt;Node8</title>
<g id="a_edge7_Node000007_Node000008"><a xlink:title=" ">
<path fill="none" stroke="#63b8ff" d="M987.3,-46.5C995.52,-46.5 1004.1,-46.5 1012.56,-46.5"/>
<polygon fill="#63b8ff" stroke="#63b8ff" points="1012.8,-50 1022.8,-46.5 1012.8,-43 1012.8,-50"/>
</a>
</g>
</g>
</g>
</svg>

<g id="navigator" transform="translate(0 0)" fill="#404254">
  <rect fill="#f2f5e9" fill-opacity="0.5" stroke="#606060" stroke-width=".5" x="0" y="0" width="60" height="60"/>
  <use id="zoomplus" xlink:href="#zoomPlus" x="17" y="9" onmousedown="handleZoom(evt,'in')"/>
  <use id="zoomminus" xlink:href="#zoomMin" x="42" y="9" onmousedown="handleZoom(evt,'out')"/>
  <use id="reset" xlink:href="#resetDef" x="30" y="36" onmousedown="handleReset()"/>
   <use id="arrowup" xlink:href="#arrowUp" x="0" y="0" onmousedown="handlePan(0,-1)"/>
  <use id="arrowright" xlink:href="#arrowRight" x="0" y="0" onmousedown="handlePan(1,0)"/>
  <use id="arrowdown" xlink:href="#arrowDown" x="0" y="0" onmousedown="handlePan(0,1)"/>
  <use id="arrowleft" xlink:href="#arrowLeft" x="0" y="0" onmousedown="handlePan(-1,0)"/>
</g>
<svg viewBox="0 0 15 15" width="100%" height="30px" preserveAspectRatio="xMaxYMin meet">
 <g id="arrow_out" transform="scale(0.3 0.3)">
  <a xlink:href="classSocketStreamer_abdfc8d64f02012857a993f72d4836ceb_cgraph_org.svg" target="_base">
   <rect id="button" ry="5" rx="5" y="6" x="6" height="38" width="38"
        fill="#f2f5e9" fill-opacity="0.5" stroke="#606060" stroke-width="1.0"/>
   <path id="arrow"
     d="M 11.500037,31.436501 C 11.940474,20.09759 22.043105,11.32322 32.158766,21.979434 L 37.068811,17.246167 C 37.068811,17.246167 37.088388,32 37.088388,32 L 22.160133,31.978069 C 22.160133,31.978069 26.997745,27.140456 26.997745,27.140456 C 18.528582,18.264221 13.291696,25.230495 11.500037,31.436501 z"
     style="fill:#404040;"/>
  </a>
 </g>
</svg>

<style type='text/css'>
<![CDATA[
[data-mouse-over-selected='false'] { opacity: 0.7; }
[data-mouse-over-selected='true']  { opacity: 1.0; }
]]>
</style>
<script type="application/ecmascript"><![CDATA[
document.addEventListener('DOMContentLoaded', (event) => {
  highlightEdges();
  highlightAdjacentNodes();
});
]]></script>
</svg>
