<?xml version="1.0" encoding="UTF-8" standalone="no"?>
<!DOCTYPE svg PUBLIC "-//W3C//DTD SVG 1.1//EN"
 "http://www.w3.org/Graphics/SVG/1.1/DTD/svg11.dtd">
<!-- Generated by graphviz version 2.43.0 (0)
 -->
<!-- Title: NeuroMesh::getDiffusionArea Pages: 1 -->
<svg width="510pt" height="138pt"
 viewBox="0.00 0.00 510.00 138.00" xmlns="http://www.w3.org/2000/svg" xmlns:xlink="http://www.w3.org/1999/xlink">
<g id="graph0" class="graph" transform="scale(1 1) rotate(0) translate(4 134)">
<title>NeuroMesh::getDiffusionArea</title>
<!-- Node1 -->
<g id="Node000001" class="node">
<title>Node1</title>
<g id="a_Node000001"><a xlink:title="Virtual function to return diffusion X&#45;section area.">
<polygon fill="#999999" stroke="#666666" points="160,-74 0,-74 0,-55 160,-55 160,-74"/>
<text text-anchor="middle" x="80" y="-62" font-family="Ubuntu Mono" font-size="10.00">NeuroMesh::getDiffusionArea</text>
</a>
</g>
</g>
<!-- Node2 -->
<g id="Node000002" class="node">
<title>Node2</title>
<g id="a_Node000002"><a xlink:href="classCylBase.html#abb8d94642f60b69fa70e425fe03b6aeb" target="_top" xlink:title=" ">
<polygon fill="white" stroke="#666666" points="341,-130 197,-130 197,-111 341,-111 341,-130"/>
<text text-anchor="middle" x="269" y="-118" font-family="Ubuntu Mono" font-size="10.00">CylBase::getDiffusionArea</text>
</a>
</g>
</g>
<!-- Node1&#45;&gt;Node2 -->
<g id="edge1_Node000001_Node000002" class="edge">
<title>Node1&#45;&gt;Node2</title>
<g id="a_edge1_Node000001_Node000002"><a xlink:title=" ">
<path fill="none" stroke="#63b8ff" d="M108.24,-74.13C131.43,-82.18 165.71,-93.72 196,-102.5 202.98,-104.52 210.37,-106.53 217.66,-108.42"/>
<polygon fill="#63b8ff" stroke="#63b8ff" points="216.94,-111.85 227.49,-110.93 218.67,-105.07 216.94,-111.85"/>
</a>
</g>
</g>
<!-- Node3 -->
<g id="Node000003" class="node">
<title>Node3</title>
<g id="a_Node000003"><a xlink:href="classMeshCompt.html#a0852f23b48db2fa5ec925a640b43d516" target="_top" xlink:title="Looks up stencil to return vector of indices of coupled voxels.">
<polygon fill="white" stroke="#666666" points="342,-93 196,-93 196,-74 342,-74 342,-93"/>
<text text-anchor="middle" x="269" y="-81" font-family="Ubuntu Mono" font-size="10.00">MeshCompt::getNeighbors</text>
</a>
</g>
</g>
<!-- Node1&#45;&gt;Node3 -->
<g id="edge2_Node000001_Node000003" class="edge">
<title>Node1&#45;&gt;Node3</title>
<g id="a_edge2_Node000001_Node000003"><a xlink:title=" ">
<path fill="none" stroke="#63b8ff" d="M160.03,-72.53C168.56,-73.4 177.25,-74.28 185.81,-75.15"/>
<polygon fill="#63b8ff" stroke="#63b8ff" points="185.48,-78.63 195.79,-76.16 186.19,-71.67 185.48,-78.63"/>
</a>
</g>
</g>
<!-- Node5 -->
<g id="Node000005" class="node">
<title>Node5</title>
<g id="a_Node000005"><a xlink:href="classNeuroNode.html#a1e96ea764e9c00e07133aec18c638a17" target="_top" xlink:title=" ">
<polygon fill="white" stroke="#666666" points="323.5,-56 214.5,-56 214.5,-37 323.5,-37 323.5,-56"/>
<text text-anchor="middle" x="269" y="-44" font-family="Ubuntu Mono" font-size="10.00">NeuroNode::parent</text>
</a>
</g>
</g>
<!-- Node1&#45;&gt;Node5 -->
<g id="edge4_Node000001_Node000005" class="edge">
<title>Node1&#45;&gt;Node5</title>
<g id="a_edge4_Node000001_Node000005"><a xlink:title=" ">
<path fill="none" stroke="#63b8ff" d="M160.03,-56.89C174.79,-55.47 190.04,-54 204.27,-52.63"/>
<polygon fill="#63b8ff" stroke="#63b8ff" points="204.81,-56.1 214.43,-51.66 204.14,-49.13 204.81,-56.1"/>
</a>
</g>
</g>
<!-- Node6 -->
<g id="Node000006" class="node">
<title>Node6</title>
<g id="a_Node000006"><a xlink:href="classNeuroNode.html#a43f60efefe682bd8070a3113284b67ad" target="_top" xlink:title=" ">
<polygon fill="white" stroke="#666666" points="326,-19 212,-19 212,0 326,0 326,-19"/>
<text text-anchor="middle" x="269" y="-7" font-family="Ubuntu Mono" font-size="10.00">NeuroNode::startFid</text>
</a>
</g>
</g>
<!-- Node1&#45;&gt;Node6 -->
<g id="edge5_Node000001_Node000006" class="edge">
<title>Node1&#45;&gt;Node6</title>
<g id="a_edge5_Node000001_Node000006"><a xlink:title=" ">
<path fill="none" stroke="#63b8ff" d="M110.19,-54.96C133.37,-47.48 166.65,-36.96 196,-28.5 203.95,-26.21 212.42,-23.88 220.66,-21.67"/>
<polygon fill="#63b8ff" stroke="#63b8ff" points="221.78,-24.99 230.54,-19.04 219.98,-18.22 221.78,-24.99"/>
</a>
</g>
</g>
<!-- Node4 -->
<g id="Node000004" class="node">
<title>Node4</title>
<g id="a_Node000004"><a xlink:href="classSparseMatrix.html#a354ec2999a4fa10d5c1127ca769d116b" target="_top" xlink:title=" ">
<polygon fill="white" stroke="#666666" points="502,-93 378,-93 378,-74 502,-74 502,-93"/>
<text text-anchor="middle" x="440" y="-81" font-family="Ubuntu Mono" font-size="10.00">SparseMatrix::getRow</text>
</a>
</g>
</g>
<!-- Node3&#45;&gt;Node4 -->
<g id="edge3_Node000003_Node000004" class="edge">
<title>Node3&#45;&gt;Node4</title>
<g id="a_edge3_Node000003_Node000004"><a xlink:title=" ">
<path fill="none" stroke="#63b8ff" d="M342.16,-83.5C350.64,-83.5 359.3,-83.5 367.77,-83.5"/>
<polygon fill="#63b8ff" stroke="#63b8ff" points="367.98,-87 377.98,-83.5 367.98,-80 367.98,-87"/>
</a>
</g>
</g>
</g>
</svg>
