<?xml version="1.0" encoding="UTF-8" standalone="no"?>
<!DOCTYPE svg PUBLIC "-//W3C//DTD SVG 1.1//EN"
 "http://www.w3.org/Graphics/SVG/1.1/DTD/svg11.dtd">
<!-- Generated by graphviz version 2.43.0 (0)
 -->
<!-- Title: Ksolve::getR1 Pages: 1 -->
<svg width="390pt" height="64pt"
 viewBox="0.00 0.00 390.00 64.00" xmlns="http://www.w3.org/2000/svg" xmlns:xlink="http://www.w3.org/1999/xlink">
<g id="graph0" class="graph" transform="scale(1 1) rotate(0) translate(4 60)">
<title>Ksolve::getR1</title>
<!-- Node1 -->
<g id="Node000001" class="node">
<title>Node1</title>
<g id="a_Node000001"><a xlink:title=" ">
<polygon fill="#999999" stroke="#666666" points="84,-37 0,-37 0,-18 84,-18 84,-37"/>
<text text-anchor="middle" x="42" y="-25" font-family="Ubuntu Mono" font-size="10.00">Ksolve::getR1</text>
</a>
</g>
</g>
<!-- Node2 -->
<g id="Node000002" class="node">
<title>Node2</title>
<g id="a_Node000002"><a xlink:href="classVoxelPoolsBase.html#a2c4c0263d71fccd67d8a3b377d11e3da" target="_top" xlink:title=" ">
<polygon fill="white" stroke="#666666" points="248,-56 120,-56 120,-37 248,-37 248,-56"/>
<text text-anchor="middle" x="184" y="-44" font-family="Ubuntu Mono" font-size="10.00">VoxelPoolsBase::getR1</text>
</a>
</g>
</g>
<!-- Node1&#45;&gt;Node2 -->
<g id="edge1_Node000001_Node000002" class="edge">
<title>Node1&#45;&gt;Node2</title>
<g id="a_edge1_Node000001_Node000002"><a xlink:title=" ">
<path fill="none" stroke="#63b8ff" d="M84.25,-33.1C92.39,-34.2 101.17,-35.39 110.01,-36.59"/>
<polygon fill="#63b8ff" stroke="#63b8ff" points="109.6,-40.07 119.98,-37.95 110.54,-33.13 109.6,-40.07"/>
</a>
</g>
</g>
<!-- Node4 -->
<g id="Node000004" class="node">
<title>Node4</title>
<g id="a_Node000004"><a xlink:href="classKsolve.html#a9a51c8793b9f082cc2207b9ebe6d0252" target="_top" xlink:title=" ">
<polygon fill="white" stroke="#666666" points="246.5,-19 121.5,-19 121.5,0 246.5,0 246.5,-19"/>
<text text-anchor="middle" x="184" y="-7" font-family="Ubuntu Mono" font-size="10.00">Ksolve::getVoxelIndex</text>
</a>
</g>
</g>
<!-- Node1&#45;&gt;Node4 -->
<g id="edge3_Node000001_Node000004" class="edge">
<title>Node1&#45;&gt;Node4</title>
<g id="a_edge3_Node000001_Node000004"><a xlink:title=" ">
<path fill="none" stroke="#63b8ff" d="M84.25,-22.2C92.78,-21.1 102,-19.91 111.26,-18.72"/>
<polygon fill="#63b8ff" stroke="#63b8ff" points="111.82,-22.18 121.29,-17.43 110.92,-15.24 111.82,-22.18"/>
</a>
</g>
</g>
<!-- Node3 -->
<g id="Node000003" class="node">
<title>Node3</title>
<g id="a_Node000003"><a xlink:href="classRateTerm.html#a59765605f8379adff7e8d53f9fa691e3" target="_top" xlink:title="Used by Zombie to return rate terms.">
<polygon fill="white" stroke="#666666" points="382,-56 284,-56 284,-37 382,-37 382,-56"/>
<text text-anchor="middle" x="333" y="-44" font-family="Ubuntu Mono" font-size="10.00">RateTerm::getR1</text>
</a>
</g>
</g>
<!-- Node2&#45;&gt;Node3 -->
<g id="edge2_Node000002_Node000003" class="edge">
<title>Node2&#45;&gt;Node3</title>
<g id="a_edge2_Node000002_Node000003"><a xlink:title=" ">
<path fill="none" stroke="#63b8ff" d="M248.19,-46.5C256.71,-46.5 265.42,-46.5 273.85,-46.5"/>
<polygon fill="#63b8ff" stroke="#63b8ff" points="273.96,-50 283.96,-46.5 273.96,-43 273.96,-50"/>
</a>
</g>
</g>
<!-- Node5 -->
<g id="Node000005" class="node">
<title>Node5</title>
<g id="a_Node000005"><a xlink:href="classEref.html#aca13ad32862935d4a33109785d0f01d7" target="_top" xlink:title=" ">
<polygon fill="white" stroke="#666666" points="378,-19 288,-19 288,0 378,0 378,-19"/>
<text text-anchor="middle" x="333" y="-7" font-family="Ubuntu Mono" font-size="10.00">Eref::dataIndex</text>
</a>
</g>
</g>
<!-- Node4&#45;&gt;Node5 -->
<g id="edge4_Node000004_Node000005" class="edge">
<title>Node4&#45;&gt;Node5</title>
<g id="a_edge4_Node000004_Node000005"><a xlink:title=" ">
<path fill="none" stroke="#63b8ff" d="M246.92,-9.5C257.05,-9.5 267.48,-9.5 277.42,-9.5"/>
<polygon fill="#63b8ff" stroke="#63b8ff" points="277.57,-13 287.57,-9.5 277.57,-6 277.57,-13"/>
</a>
</g>
</g>
</g>
</svg>
