<?xml version="1.0" encoding="UTF-8" standalone="no"?>
<!DOCTYPE svg PUBLIC "-//W3C//DTD SVG 1.1//EN"
 "http://www.w3.org/Graphics/SVG/1.1/DTD/svg11.dtd">
<!-- Generated by graphviz version 2.43.0 (0)
 -->
<!-- Title: MarkovRateTable::getSize Pages: 1 -->
<svg width="693pt" height="64pt"
 viewBox="0.00 0.00 693.00 64.00" xmlns="http://www.w3.org/2000/svg" xmlns:xlink="http://www.w3.org/1999/xlink">
<g id="graph0" class="graph" transform="scale(1 1) rotate(0) translate(4 60)">
<title>MarkovRateTable::getSize</title>
<!-- Node1 -->
<g id="Node000001" class="node">
<title>Node1</title>
<g id="a_Node000001"><a xlink:title=" ">
<polygon fill="#999999" stroke="#666666" points="685,-37 542,-37 542,-18 685,-18 685,-37"/>
<text text-anchor="middle" x="613.5" y="-25" font-family="Ubuntu Mono" font-size="10.00">MarkovRateTable::getSize</text>
</a>
</g>
</g>
<!-- Node2 -->
<g id="Node000002" class="node">
<title>Node2</title>
<g id="a_Node000002"><a xlink:href="classMarkovSolverBase.html#a7d7019f4bb80b05815ede3c4252d2b51" target="_top" xlink:title=" ">
<polygon fill="white" stroke="#666666" points="496.5,-56 367.5,-56 367.5,-37 496.5,-37 496.5,-56"/>
<text text-anchor="middle" x="432" y="-44" font-family="Ubuntu Mono" font-size="10.00">MarkovSolverBase::init</text>
</a>
</g>
</g>
<!-- Node1&#45;&gt;Node2 -->
<g id="edge1_Node000001_Node000002" class="edge">
<title>Node1&#45;&gt;Node2</title>
<g id="a_edge1_Node000001_Node000002"><a xlink:title=" ">
<path fill="none" stroke="#63b8ff" d="M531.59,-36.06C519.86,-37.31 507.94,-38.57 496.62,-39.77"/>
<polygon fill="#63b8ff" stroke="#63b8ff" points="532.24,-39.52 541.81,-34.98 531.5,-32.55 532.24,-39.52"/>
</a>
</g>
</g>
<!-- Node5 -->
<g id="Node000005" class="node">
<title>Node5</title>
<g id="a_Node000005"><a xlink:href="classMarkovRateTable.html#a7e422541cbc6ac60e53e3aa057f69ff5" target="_top" xlink:title=" ">
<polygon fill="white" stroke="#666666" points="506,-19 358,-19 358,0 506,0 506,-19"/>
<text text-anchor="middle" x="432" y="-7" font-family="Ubuntu Mono" font-size="10.00">MarkovRateTable::initCinfo</text>
</a>
</g>
</g>
<!-- Node1&#45;&gt;Node5 -->
<g id="edge4_Node000001_Node000005" class="edge">
<title>Node1&#45;&gt;Node5</title>
<g id="a_edge4_Node000001_Node000005"><a xlink:title=" ">
<path fill="none" stroke="#63b8ff" d="M531.6,-19.39C523.16,-18.54 514.62,-17.68 506.28,-16.85"/>
<polygon fill="#63b8ff" stroke="#63b8ff" points="531.52,-22.9 541.81,-20.41 532.21,-15.93 531.52,-22.9"/>
</a>
</g>
</g>
<!-- Node3 -->
<g id="Node000003" class="node">
<title>Node3</title>
<g id="a_Node000003"><a xlink:href="classMarkovSolverBase.html#a8d94098ef919eb390369a92c6d551500" target="_top" xlink:title=" ">
<polygon fill="white" stroke="#666666" points="322,-56 167,-56 167,-37 322,-37 322,-56"/>
<text text-anchor="middle" x="244.5" y="-44" font-family="Ubuntu Mono" font-size="10.00">MarkovSolverBase::initCinfo</text>
</a>
</g>
</g>
<!-- Node2&#45;&gt;Node3 -->
<g id="edge2_Node000002_Node000003" class="edge">
<title>Node2&#45;&gt;Node3</title>
<g id="a_edge2_Node000002_Node000003"><a xlink:title=" ">
<path fill="none" stroke="#63b8ff" d="M357.37,-46.5C345.78,-46.5 333.78,-46.5 322.13,-46.5"/>
<polygon fill="#63b8ff" stroke="#63b8ff" points="357.42,-50 367.42,-46.5 357.42,-43 357.42,-50"/>
</a>
</g>
</g>
<!-- Node4 -->
<g id="Node000004" class="node">
<title>Node4</title>
<g id="a_Node000004"><a xlink:href="classMarkovSolver.html#a780b0cc742d99f1eef6996f08f85bf34" target="_top" xlink:title=" ">
<polygon fill="white" stroke="#666666" points="131,-56 0,-56 0,-37 131,-37 131,-56"/>
<text text-anchor="middle" x="65.5" y="-44" font-family="Ubuntu Mono" font-size="10.00">MarkovSolver::initCinfo</text>
</a>
</g>
</g>
<!-- Node3&#45;&gt;Node4 -->
<g id="edge3_Node000003_Node000004" class="edge">
<title>Node3&#45;&gt;Node4</title>
<g id="a_edge3_Node000003_Node000004"><a xlink:title=" ">
<path fill="none" stroke="#63b8ff" d="M156.75,-46.5C148.09,-46.5 139.4,-46.5 131.03,-46.5"/>
<polygon fill="#63b8ff" stroke="#63b8ff" points="156.89,-50 166.89,-46.5 156.89,-43 156.89,-50"/>
</a>
</g>
</g>
</g>
</svg>
