<?xml version="1.0" encoding="UTF-8" standalone="no"?>
<!DOCTYPE svg PUBLIC "-//W3C//DTD SVG 1.1//EN"
 "http://www.w3.org/Graphics/SVG/1.1/DTD/svg11.dtd">
<!-- Generated by graphviz version 2.43.0 (0)
 -->
<!-- Title: RC::reinit Pages: 1 -->
<svg width="1449pt" height="954pt"
 viewBox="0.00 0.00 1449.00 953.50" xmlns="http://www.w3.org/2000/svg" xmlns:xlink="http://www.w3.org/1999/xlink">
<g id="graph0" class="graph" transform="scale(1 1) rotate(0) translate(4 949.5)">
<title>RC::reinit</title>
<!-- Node1 -->
<g id="Node000001" class="node">
<title>Node1</title>
<g id="a_Node000001"><a xlink:title=" ">
<polygon fill="#999999" stroke="#666666" points="62,-831.5 0,-831.5 0,-812.5 62,-812.5 62,-831.5"/>
<text text-anchor="middle" x="31" y="-819.5" font-family="Ubuntu Mono" font-size="10.00">RC::reinit</text>
</a>
</g>
</g>
<!-- Node2 -->
<g id="Node000002" class="node">
<title>Node2</title>
<g id="a_Node000002"><a xlink:href="RC_8cpp.html#a502f6b6b4b9682ab7bc5bdfd828f9016" target="_top" xlink:title=" ">
<polygon fill="white" stroke="#666666" points="176,-897.5 111,-897.5 111,-878.5 176,-878.5 176,-897.5"/>
<text text-anchor="middle" x="143.5" y="-885.5" font-family="Ubuntu Mono" font-size="10.00">outputOut</text>
</a>
</g>
</g>
<!-- Node1&#45;&gt;Node2 -->
<g id="edge1_Node000001_Node000002" class="edge">
<title>Node1&#45;&gt;Node2</title>
<g id="a_edge1_Node000001_Node000002"><a xlink:title=" ">
<path fill="none" stroke="#63b8ff" d="M48.3,-831.74C66.61,-842.67 96.51,-860.53 117.71,-873.2"/>
<polygon fill="#63b8ff" stroke="#63b8ff" points="116.11,-876.31 126.49,-878.44 119.7,-870.3 116.11,-876.31"/>
</a>
</g>
</g>
<!-- Node4 -->
<g id="Node000004" class="node">
<title>Node4</title>
<g id="a_Node000004"><a xlink:href="classSrcFinfo1.html#af6ead5e2fe7259ae6ad46a943ca0284c" target="_top" xlink:title=" ">
<polygon fill="white" stroke="#666666" points="189,-813.5 98,-813.5 98,-794.5 189,-794.5 189,-813.5"/>
<text text-anchor="middle" x="143.5" y="-801.5" font-family="Ubuntu Mono" font-size="10.00">SrcFinfo1::send</text>
</a>
</g>
</g>
<!-- Node1&#45;&gt;Node4 -->
<g id="edge3_Node000001_Node000004" class="edge">
<title>Node1&#45;&gt;Node4</title>
<g id="a_edge3_Node000001_Node000004"><a xlink:title=" ">
<path fill="none" stroke="#63b8ff" d="M62.19,-817.08C70.18,-815.78 79.05,-814.34 87.9,-812.89"/>
<polygon fill="#63b8ff" stroke="#63b8ff" points="88.53,-816.34 97.83,-811.28 87.4,-809.43 88.53,-816.34"/>
</a>
</g>
</g>
<!-- Node3 -->
<g id="Node000003" class="node">
<title>Node3</title>
<g id="a_Node000003"><a xlink:href="classSrcFinfo1.html#a530c4cec4de6226aa2a32c28f8448b7e" target="_top" xlink:title=" ">
<polygon fill="white" stroke="#666666" points="344.5,-945.5 231.5,-945.5 231.5,-926.5 344.5,-926.5 344.5,-945.5"/>
<text text-anchor="middle" x="288" y="-933.5" font-family="Ubuntu Mono" font-size="10.00">SrcFinfo1::SrcFinfo1</text>
</a>
</g>
</g>
<!-- Node2&#45;&gt;Node3 -->
<g id="edge2_Node000002_Node000003" class="edge">
<title>Node2&#45;&gt;Node3</title>
<g id="a_edge2_Node000002_Node000003"><a xlink:title=" ">
<path fill="none" stroke="#63b8ff" d="M168.64,-897.53C184.54,-903.68 205.89,-911.67 225,-918 230.66,-919.87 236.64,-921.74 242.57,-923.53"/>
<polygon fill="#63b8ff" stroke="#63b8ff" points="241.84,-926.97 252.43,-926.45 243.83,-920.26 241.84,-926.97"/>
</a>
</g>
</g>
<!-- Node5 -->
<g id="Node000005" class="node">
<title>Node5</title>
<g id="a_Node000005"><a xlink:href="classEref.html#aca13ad32862935d4a33109785d0f01d7" target="_top" xlink:title=" ">
<polygon fill="white" stroke="#666666" points="1177.5,-758.5 1087.5,-758.5 1087.5,-739.5 1177.5,-739.5 1177.5,-758.5"/>
<text text-anchor="middle" x="1132.5" y="-746.5" font-family="Ubuntu Mono" font-size="10.00">Eref::dataIndex</text>
</a>
</g>
</g>
<!-- Node4&#45;&gt;Node5 -->
<g id="edge4_Node000004_Node000005" class="edge">
<title>Node4&#45;&gt;Node5</title>
<g id="a_edge4_Node000004_Node000005"><a xlink:title=" ">
<path fill="none" stroke="#63b8ff" d="M163.5,-813.57C179.5,-821.19 203.19,-831.46 225,-837 320.55,-861.27 346.92,-861 445.5,-861 445.5,-861 445.5,-861 798.5,-861 908.57,-861 945.67,-884.43 1045,-837 1077.84,-821.32 1105.18,-787.7 1119.86,-766.86"/>
<polygon fill="#63b8ff" stroke="#63b8ff" points="1122.79,-768.78 1125.53,-758.54 1117.01,-764.84 1122.79,-768.78"/>
</a>
</g>
</g>
<!-- Node6 -->
<g id="Node000006" class="node">
<title>Node6</title>
<g id="a_Node000006"><a xlink:href="classEref.html#a47b59ab86165cceb0bde80c76c3f7fa2" target="_top" xlink:title=" ">
<polygon fill="white" stroke="#666666" points="1173.5,-497.5 1091.5,-497.5 1091.5,-478.5 1173.5,-478.5 1173.5,-497.5"/>
<text text-anchor="middle" x="1132.5" y="-485.5" font-family="Ubuntu Mono" font-size="10.00">Eref::element</text>
</a>
</g>
</g>
<!-- Node4&#45;&gt;Node6 -->
<g id="edge5_Node000004_Node000006" class="edge">
<title>Node4&#45;&gt;Node6</title>
<g id="a_edge5_Node000004_Node000006"><a xlink:title=" ">
<path fill="none" stroke="#63b8ff" d="M189.07,-808.58C247.77,-814.2 354.26,-823 445.5,-823 445.5,-823 445.5,-823 798.5,-823 853.44,-823 1004.56,-841.19 1045,-804 1118.58,-736.34 1048.91,-676.66 1081,-582 1090.47,-554.06 1107.7,-524.51 1119.37,-506.16"/>
<polygon fill="#63b8ff" stroke="#63b8ff" points="1122.38,-507.95 1124.9,-497.66 1116.51,-504.13 1122.38,-507.95"/>
</a>
</g>
</g>
<!-- Node7 -->
<g id="Node000007" class="node">
<title>Node7</title>
<g id="a_Node000007"><a xlink:href="classEref.html#a3addb850bc6cbac7771a07de219d909d" target="_top" xlink:title=" ">
<polygon fill="white" stroke="#666666" points="1008.5,-794.5 947.5,-794.5 947.5,-775.5 1008.5,-775.5 1008.5,-794.5"/>
<text text-anchor="middle" x="978" y="-782.5" font-family="Ubuntu Mono" font-size="10.00">Eref::Eref</text>
</a>
</g>
</g>
<!-- Node4&#45;&gt;Node7 -->
<g id="edge6_Node000004_Node000007" class="edge">
<title>Node4&#45;&gt;Node7</title>
<g id="a_edge6_Node000004_Node000007"><a xlink:title=" ">
<path fill="none" stroke="#63b8ff" d="M189.07,-799.42C247.77,-793.8 354.26,-785 445.5,-785 445.5,-785 445.5,-785 614,-785 731.55,-785 870.51,-785 937.27,-785"/>
<polygon fill="#63b8ff" stroke="#63b8ff" points="937.36,-788.5 947.36,-785 937.36,-781.5 937.36,-788.5"/>
</a>
</g>
</g>
<!-- Node8 -->
<g id="Node000008" class="node">
<title>Node8</title>
<g id="a_Node000008"><a xlink:href="classSrcFinfo.html#aa90db29c818e71d31322c35bfec2f731" target="_top" xlink:title=" ">
<polygon fill="white" stroke="#666666" points="351,-908.5 225,-908.5 225,-889.5 351,-889.5 351,-908.5"/>
<text text-anchor="middle" x="288" y="-896.5" font-family="Ubuntu Mono" font-size="10.00">SrcFinfo::getBindIndex</text>
</a>
</g>
</g>
<!-- Node4&#45;&gt;Node8 -->
<g id="edge7_Node000004_Node000008" class="edge">
<title>Node4&#45;&gt;Node8</title>
<g id="a_edge7_Node000004_Node000008"><a xlink:title=" ">
<path fill="none" stroke="#63b8ff" d="M153.53,-813.95C167.56,-828.93 196.02,-857.39 225,-875 231.73,-879.09 239.27,-882.7 246.72,-885.8"/>
<polygon fill="#63b8ff" stroke="#63b8ff" points="245.44,-889.06 256.03,-889.45 248,-882.55 245.44,-889.06"/>
</a>
</g>
</g>
<!-- Node9 -->
<g id="Node000009" class="node">
<title>Node9</title>
<g id="a_Node000009"><a xlink:href="classElement.html#a8d7debb27e67d5fc97697cddc9d69542" target="_top" xlink:title="Returns index of first data entry on this node.">
<polygon fill="white" stroke="#666666" points="1044.5,-122.5 911.5,-122.5 911.5,-103.5 1044.5,-103.5 1044.5,-122.5"/>
<text text-anchor="middle" x="978" y="-110.5" font-family="Ubuntu Mono" font-size="10.00">Element::localDataStart</text>
</a>
</g>
</g>
<!-- Node4&#45;&gt;Node9 -->
<g id="edge8_Node000004_Node000009" class="edge">
<title>Node4&#45;&gt;Node9</title>
<g id="a_edge8_Node000004_Node000009"><a xlink:title=" ">
<path fill="none" stroke="#63b8ff" d="M144.62,-794.47C146.14,-717.24 166.72,-197 445.5,-197 445.5,-197 445.5,-197 614,-197 738.03,-197 879.9,-149.88 943.31,-126.22"/>
<polygon fill="#63b8ff" stroke="#63b8ff" points="944.68,-129.44 952.8,-122.64 942.21,-122.9 944.68,-129.44"/>
</a>
</g>
</g>
<!-- Node10 -->
<g id="Node000010" class="node">
<title>Node10</title>
<g id="a_Node000010"><a xlink:href="classEref.html#a5c15b71e3463adaa4623267ada92c898" target="_top" xlink:title=" ">
<polygon fill="white" stroke="#666666" points="335,-737.5 241,-737.5 241,-718.5 335,-718.5 335,-737.5"/>
<text text-anchor="middle" x="288" y="-725.5" font-family="Ubuntu Mono" font-size="10.00">Eref::msgDigest</text>
</a>
</g>
</g>
<!-- Node4&#45;&gt;Node10 -->
<g id="edge9_Node000004_Node000010" class="edge">
<title>Node4&#45;&gt;Node10</title>
<g id="a_edge9_Node000004_Node000010"><a xlink:title=" ">
<path fill="none" stroke="#63b8ff" d="M162.55,-794.37C187.17,-781.24 231.5,-757.6 260.07,-742.36"/>
<polygon fill="#63b8ff" stroke="#63b8ff" points="261.92,-745.34 269.1,-737.55 258.63,-739.16 261.92,-745.34"/>
</a>
</g>
</g>
<!-- Node39 -->
<g id="Node000039" class="node">
<title>Node39</title>
<g id="a_Node000039"><a xlink:href="classElement.html#abee6d5e3b26374c8c196c6065543706d" target="_top" xlink:title="Returns number of local data entries on this node.">
<polygon fill="white" stroke="#666666" points="1045,-85.5 911,-85.5 911,-66.5 1045,-66.5 1045,-85.5"/>
<text text-anchor="middle" x="978" y="-73.5" font-family="Ubuntu Mono" font-size="10.00">Element::numLocalData</text>
</a>
</g>
</g>
<!-- Node4&#45;&gt;Node39 -->
<g id="edge61_Node000004_Node000039" class="edge">
<title>Node4&#45;&gt;Node39</title>
<g id="a_edge61_Node000004_Node000039"><a xlink:title=" ">
<path fill="none" stroke="#63b8ff" d="M144.99,-794.14C148.5,-726.08 171.25,-325.46 225,-218 286.65,-94.75 307.69,0 445.5,0 445.5,0 445.5,0 614,0 735.62,0 875.4,-41.38 940.32,-63.07"/>
<polygon fill="#63b8ff" stroke="#63b8ff" points="939.49,-66.48 950.08,-66.37 941.73,-59.85 939.49,-66.48"/>
</a>
</g>
</g>
<!-- Node11 -->
<g id="Node000011" class="node">
<title>Node11</title>
<g id="a_Node000011"><a xlink:href="classElement.html#a33610036b72724ca3b7fedaf7e692841" target="_top" xlink:title=" ">
<polygon fill="white" stroke="#666666" points="1021.5,-757.5 934.5,-757.5 934.5,-738.5 1021.5,-738.5 1021.5,-757.5"/>
<text text-anchor="middle" x="978" y="-745.5" font-family="Ubuntu Mono" font-size="10.00">Element::cinfo</text>
</a>
</g>
</g>
<!-- Node10&#45;&gt;Node11 -->
<g id="edge10_Node000010_Node000011" class="edge">
<title>Node10&#45;&gt;Node11</title>
<g id="a_edge10_Node000010_Node000011"><a xlink:title=" ">
<path fill="none" stroke="#63b8ff" d="M335.21,-729.34C458.27,-732.92 793.41,-742.66 923.95,-746.46"/>
<polygon fill="#63b8ff" stroke="#63b8ff" points="924,-749.96 934.1,-746.75 924.21,-742.96 924,-749.96"/>
</a>
</g>
</g>
<!-- Node12 -->
<g id="Node000012" class="node">
<title>Node12</title>
<g id="a_Node000012"><a xlink:href="classElement.html#af00354d706575077c20c9865f340f93f" target="_top" xlink:title=" ">
<polygon fill="white" stroke="#666666" points="504.5,-718.5 388.5,-718.5 388.5,-699.5 504.5,-699.5 504.5,-718.5"/>
<text text-anchor="middle" x="446.5" y="-706.5" font-family="Ubuntu Mono" font-size="10.00">Element::msgDigest</text>
</a>
</g>
</g>
<!-- Node10&#45;&gt;Node12 -->
<g id="edge11_Node000010_Node000012" class="edge">
<title>Node10&#45;&gt;Node12</title>
<g id="a_edge11_Node000010_Node000012"><a xlink:title=" ">
<path fill="none" stroke="#63b8ff" d="M335.11,-722.4C348.66,-720.76 363.77,-718.92 378.36,-717.15"/>
<polygon fill="#63b8ff" stroke="#63b8ff" points="378.84,-720.62 388.34,-715.94 377.99,-713.67 378.84,-720.62"/>
</a>
</g>
</g>
<!-- Node42 -->
<g id="Node000042" class="node">
<title>Node42</title>
<g id="a_Node000042"><a xlink:href="classCinfo.html#a2fc76e571de8791c7d2e4ca04c770ffb" target="_top" xlink:title=" ">
<polygon fill="white" stroke="#666666" points="506,-681.5 387,-681.5 387,-662.5 506,-662.5 506,-681.5"/>
<text text-anchor="middle" x="446.5" y="-669.5" font-family="Ubuntu Mono" font-size="10.00">Cinfo::numBindIndex</text>
</a>
</g>
</g>
<!-- Node10&#45;&gt;Node42 -->
<g id="edge60_Node000010_Node000042" class="edge">
<title>Node10&#45;&gt;Node42</title>
<g id="a_edge60_Node000010_Node000042"><a xlink:title=" ">
<path fill="none" stroke="#63b8ff" d="M313.45,-718.4C333.21,-710.74 361.77,-699.85 387,-691 392.95,-688.91 399.27,-686.78 405.47,-684.72"/>
<polygon fill="#63b8ff" stroke="#63b8ff" points="406.63,-688.03 415.05,-681.59 404.45,-681.37 406.63,-688.03"/>
</a>
</g>
</g>
<!-- Node13 -->
<g id="Node000013" class="node">
<title>Node13</title>
<g id="a_Node000013"><a xlink:href="classElement.html#a722a219697e0d390675dff185ae8de28" target="_top" xlink:title=" ">
<polygon fill="white" stroke="#666666" points="684,-624.5 542,-624.5 542,-605.5 684,-605.5 684,-624.5"/>
<text text-anchor="middle" x="613" y="-612.5" font-family="Ubuntu Mono" font-size="10.00">Element::digestMessages</text>
</a>
</g>
</g>
<!-- Node12&#45;&gt;Node13 -->
<g id="edge12_Node000012_Node000013" class="edge">
<title>Node12&#45;&gt;Node13</title>
<g id="a_edge12_Node000012_Node000013"><a xlink:title=" ">
<path fill="none" stroke="#63b8ff" d="M485.03,-699.43C492.15,-697.07 499.43,-694.26 506,-691 539.02,-674.63 572.9,-648.36 593.2,-631.39"/>
<polygon fill="#63b8ff" stroke="#63b8ff" points="595.67,-633.88 601.02,-624.74 591.13,-628.55 595.67,-633.88"/>
</a>
</g>
</g>
<!-- Node14 -->
<g id="Node000014" class="node">
<title>Node14</title>
<g id="a_Node000014"><a xlink:href="Element_8cpp.html#af36606da2859789d69ab11f9ae6354e7" target="_top" xlink:title=" ">
<polygon fill="white" stroke="#666666" points="842,-718.5 753,-718.5 753,-699.5 842,-699.5 842,-718.5"/>
<text text-anchor="middle" x="797.5" y="-706.5" font-family="Ubuntu Mono" font-size="10.00">findNumDigest</text>
</a>
</g>
</g>
<!-- Node13&#45;&gt;Node14 -->
<g id="edge13_Node000013_Node000014" class="edge">
<title>Node13&#45;&gt;Node14</title>
<g id="a_edge13_Node000013_Node000014"><a xlink:title=" ">
<path fill="none" stroke="#63b8ff" d="M624.26,-624.51C642.24,-640.66 681.24,-673.39 720,-691 727.16,-694.25 734.98,-696.96 742.79,-699.19"/>
<polygon fill="#63b8ff" stroke="#63b8ff" points="742.07,-702.62 752.63,-701.77 743.85,-695.85 742.07,-702.62"/>
</a>
</g>
</g>
<!-- Node15 -->
<g id="Node000015" class="node">
<title>Node15</title>
<g id="a_Node000015"><a xlink:href="classFuncOrder.html#a1e3804483f62e1b894dbaed343711033" target="_top" xlink:title=" ">
<polygon fill="white" stroke="#666666" points="847,-681.5 748,-681.5 748,-662.5 847,-662.5 847,-681.5"/>
<text text-anchor="middle" x="797.5" y="-669.5" font-family="Ubuntu Mono" font-size="10.00">FuncOrder::index</text>
</a>
</g>
</g>
<!-- Node13&#45;&gt;Node15 -->
<g id="edge14_Node000013_Node000015" class="edge">
<title>Node13&#45;&gt;Node15</title>
<g id="a_edge14_Node000013_Node000015"><a xlink:title=" ">
<path fill="none" stroke="#63b8ff" d="M644.55,-624.54C675.21,-634.12 722.61,-648.92 756.3,-659.45"/>
<polygon fill="#63b8ff" stroke="#63b8ff" points="755.27,-662.79 765.85,-662.43 757.35,-656.11 755.27,-662.79"/>
</a>
</g>
</g>
<!-- Node16 -->
<g id="Node000016" class="node">
<title>Node16</title>
<g id="a_Node000016"><a xlink:href="classElement.html#ae764f4baa2a88e55072eb0a5b15718c4" target="_top" xlink:title="Returns number of data entries across all nodes.">
<polygon fill="white" stroke="#666666" points="1032,-720.5 924,-720.5 924,-701.5 1032,-701.5 1032,-720.5"/>
<text text-anchor="middle" x="978" y="-708.5" font-family="Ubuntu Mono" font-size="10.00">Element::numData</text>
</a>
</g>
</g>
<!-- Node13&#45;&gt;Node16 -->
<g id="edge15_Node000013_Node000016" class="edge">
<title>Node13&#45;&gt;Node16</title>
<g id="a_edge15_Node000013_Node000016"><a xlink:title=" ">
<path fill="none" stroke="#63b8ff" d="M684.15,-620.21C749.92,-626.04 842.81,-636.96 875,-654 895.85,-665.04 890.84,-680.75 911,-693 913.79,-694.7 916.75,-696.23 919.79,-697.63"/>
<polygon fill="#63b8ff" stroke="#63b8ff" points="918.57,-700.91 929.16,-701.41 921.19,-694.42 918.57,-700.91"/>
</a>
</g>
</g>
<!-- Node17 -->
<g id="Node000017" class="node">
<title>Node17</title>
<g id="a_Node000017"><a xlink:href="classShell.html#a2191e15a0bcd49569fbb297b0724a765" target="_top" xlink:title=" ">
<polygon fill="white" stroke="#666666" points="1182,-235.5 1083,-235.5 1083,-216.5 1182,-216.5 1182,-235.5"/>
<text text-anchor="middle" x="1132.5" y="-223.5" font-family="Ubuntu Mono" font-size="10.00">Shell::numNodes</text>
</a>
</g>
</g>
<!-- Node13&#45;&gt;Node17 -->
<g id="edge16_Node000013_Node000017" class="edge">
<title>Node13&#45;&gt;Node17</title>
<g id="a_edge16_Node000013_Node000017"><a xlink:title=" ">
<path fill="none" stroke="#63b8ff" d="M615.14,-605.42C623.4,-540.91 680.52,-169 911,-57 964.57,-30.97 994.19,-25.93 1045,-57 1099.28,-90.19 1120.88,-169.42 1128.23,-206.38"/>
<polygon fill="#63b8ff" stroke="#63b8ff" points="1124.82,-207.2 1130.07,-216.4 1131.7,-205.93 1124.82,-207.2"/>
</a>
</g>
</g>
<!-- Node18 -->
<g id="Node000018" class="node">
<title>Node18</title>
<g id="a_Node000018"><a xlink:href="Element_8cpp.html#ae676123d090f0874314d4469a1f3fe90" target="_top" xlink:title=" ">
<polygon fill="white" stroke="#666666" points="845.5,-605.5 749.5,-605.5 749.5,-586.5 845.5,-586.5 845.5,-605.5"/>
<text text-anchor="middle" x="797.5" y="-593.5" font-family="Ubuntu Mono" font-size="10.00">putFuncsInOrder</text>
</a>
</g>
</g>
<!-- Node13&#45;&gt;Node18 -->
<g id="edge17_Node000013_Node000018" class="edge">
<title>Node13&#45;&gt;Node18</title>
<g id="a_edge17_Node000013_Node000018"><a xlink:title=" ">
<path fill="none" stroke="#63b8ff" d="M684.04,-607.71C702.27,-605.81 721.7,-603.79 739.19,-601.97"/>
<polygon fill="#63b8ff" stroke="#63b8ff" points="739.66,-605.44 749.24,-600.92 738.93,-598.47 739.66,-605.44"/>
</a>
</g>
</g>
<!-- Node29 -->
<g id="Node000029" class="node">
<title>Node29</title>
<g id="a_Node000029"><a xlink:href="classElement.html#a0782085917c558ec4d56be9566688743" target="_top" xlink:title=" ">
<polygon fill="white" stroke="#666666" points="874.5,-568 720.5,-568 720.5,-538 874.5,-538 874.5,-568"/>
<text text-anchor="start" x="728.5" y="-556" font-family="Ubuntu Mono" font-size="10.00">Element::putOffNodeTargets</text>
<text text-anchor="middle" x="797.5" y="-545" font-family="Ubuntu Mono" font-size="10.00">InDigest</text>
</a>
</g>
</g>
<!-- Node13&#45;&gt;Node29 -->
<g id="edge29_Node000013_Node000029" class="edge">
<title>Node13&#45;&gt;Node29</title>
<g id="a_edge29_Node000013_Node000029"><a xlink:title=" ">
<path fill="none" stroke="#63b8ff" d="M640.96,-605.42C662.35,-597.86 693.04,-587.11 720,-578 726.49,-575.81 733.31,-573.54 740.08,-571.3"/>
<polygon fill="#63b8ff" stroke="#63b8ff" points="741.52,-574.51 749.93,-568.06 739.33,-567.86 741.52,-574.51"/>
</a>
</g>
</g>
<!-- Node32 -->
<g id="Node000032" class="node">
<title>Node32</title>
<g id="a_Node000032"><a xlink:href="classElement.html#ae5b80db45c08265b98ff433504fab66b" target="_top" xlink:title=" ">
<polygon fill="white" stroke="#666666" points="875,-328.5 720,-328.5 720,-309.5 875,-309.5 875,-328.5"/>
<text text-anchor="middle" x="797.5" y="-316.5" font-family="Ubuntu Mono" font-size="10.00">Element::putTargetsInDigest</text>
</a>
</g>
</g>
<!-- Node13&#45;&gt;Node32 -->
<g id="edge40_Node000013_Node000032" class="edge">
<title>Node13&#45;&gt;Node32</title>
<g id="a_edge40_Node000013_Node000032"><a xlink:title=" ">
<path fill="none" stroke="#63b8ff" d="M619.87,-605.49C645.82,-563.39 750.58,-393.48 785.27,-337.21"/>
<polygon fill="#63b8ff" stroke="#63b8ff" points="788.3,-338.98 790.56,-328.63 782.34,-335.3 788.3,-338.98"/>
</a>
</g>
</g>
<!-- Node18&#45;&gt;Node11 -->
<g id="edge18_Node000018_Node000011" class="edge">
<title>Node18&#45;&gt;Node11</title>
<g id="a_edge18_Node000018_Node000011"><a xlink:title=" ">
<path fill="none" stroke="#63b8ff" d="M815.61,-605.62C832.51,-615.82 858.19,-633.3 875,-654 898.57,-683.01 882.35,-706 911,-730 915.05,-733.39 919.69,-736.15 924.58,-738.39"/>
<polygon fill="#63b8ff" stroke="#63b8ff" points="923.64,-741.78 934.23,-742.09 926.15,-735.24 923.64,-741.78"/>
</a>
</g>
</g>
<!-- Node19 -->
<g id="Node000019" class="node">
<title>Node19</title>
<g id="a_Node000019"><a xlink:href="classMsg.html#a5be9f4dd643f5f662e8fb3c029273390" target="_top" xlink:title=" ">
<polygon fill="white" stroke="#666666" points="1005.5,-459.5 950.5,-459.5 950.5,-440.5 1005.5,-440.5 1005.5,-459.5"/>
<text text-anchor="middle" x="978" y="-447.5" font-family="Ubuntu Mono" font-size="10.00">Msg::e1</text>
</a>
</g>
</g>
<!-- Node18&#45;&gt;Node19 -->
<g id="edge19_Node000018_Node000019" class="edge">
<title>Node18&#45;&gt;Node19</title>
<g id="a_edge19_Node000018_Node000019"><a xlink:title=" ">
<path fill="none" stroke="#63b8ff" d="M845.86,-591.95C856.48,-589.07 866.96,-584.43 875,-577 912.15,-542.65 874.49,-504.03 911,-469 918.95,-461.37 929.77,-456.77 940.35,-454.01"/>
<polygon fill="#63b8ff" stroke="#63b8ff" points="941.26,-457.4 950.31,-451.89 939.8,-450.55 941.26,-457.4"/>
</a>
</g>
</g>
<!-- Node20 -->
<g id="Node000020" class="node">
<title>Node20</title>
<g id="a_Node000020"><a xlink:href="classMsg.html#a893ed6b44cd4c529f0f10af38ae6743a" target="_top" xlink:title=" ">
<polygon fill="white" stroke="#666666" points="1005.5,-496.5 950.5,-496.5 950.5,-477.5 1005.5,-477.5 1005.5,-496.5"/>
<text text-anchor="middle" x="978" y="-484.5" font-family="Ubuntu Mono" font-size="10.00">Msg::e2</text>
</a>
</g>
</g>
<!-- Node18&#45;&gt;Node20 -->
<g id="edge20_Node000018_Node000020" class="edge">
<title>Node18&#45;&gt;Node20</title>
<g id="a_edge20_Node000018_Node000020"><a xlink:title=" ">
<path fill="none" stroke="#63b8ff" d="M845.51,-590.97C856.02,-588.12 866.54,-583.73 875,-577 902.68,-554.96 883.73,-528.55 911,-506 919.36,-499.09 930.1,-494.69 940.49,-491.89"/>
<polygon fill="#63b8ff" stroke="#63b8ff" points="941.27,-495.3 950.25,-489.67 939.72,-488.48 941.27,-495.3"/>
</a>
</g>
</g>
<!-- Node21 -->
<g id="Node000021" class="node">
<title>Node21</title>
<g id="a_Node000021"><a xlink:href="classMsg.html#a1a57001709e44ab056a704c24760c105" target="_top" xlink:title=" ">
<polygon fill="white" stroke="#666666" points="1017.5,-609.5 938.5,-609.5 938.5,-590.5 1017.5,-590.5 1017.5,-609.5"/>
<text text-anchor="middle" x="978" y="-597.5" font-family="Ubuntu Mono" font-size="10.00">Msg::getMsg</text>
</a>
</g>
</g>
<!-- Node18&#45;&gt;Node21 -->
<g id="edge21_Node000018_Node000021" class="edge">
<title>Node18&#45;&gt;Node21</title>
<g id="a_edge21_Node000018_Node000021"><a xlink:title=" ">
<path fill="none" stroke="#63b8ff" d="M845.87,-597.06C871.28,-597.63 902.56,-598.33 928.2,-598.91"/>
<polygon fill="#63b8ff" stroke="#63b8ff" points="928.36,-602.41 938.44,-599.14 928.52,-595.41 928.36,-602.41"/>
</a>
</g>
</g>
<!-- Node27 -->
<g id="Node000027" class="node">
<title>Node27</title>
<g id="a_Node000027"><a xlink:href="classCinfo.html#aa111a219c2868af6b8d7d181d5714e9d" target="_top" xlink:title=" ">
<polygon fill="white" stroke="#666666" points="1028,-646.5 928,-646.5 928,-627.5 1028,-627.5 1028,-646.5"/>
<text text-anchor="middle" x="978" y="-634.5" font-family="Ubuntu Mono" font-size="10.00">Cinfo::getOpFunc</text>
</a>
</g>
</g>
<!-- Node18&#45;&gt;Node27 -->
<g id="edge27_Node000018_Node000027" class="edge">
<title>Node18&#45;&gt;Node27</title>
<g id="a_edge27_Node000018_Node000027"><a xlink:title=" ">
<path fill="none" stroke="#63b8ff" d="M839.9,-605.51C865.49,-611.39 898.53,-618.98 925.77,-625.23"/>
<polygon fill="#63b8ff" stroke="#63b8ff" points="924.99,-628.64 935.52,-627.47 926.55,-621.82 924.99,-628.64"/>
</a>
</g>
</g>
<!-- Node28 -->
<g id="Node000028" class="node">
<title>Node28</title>
<g id="a_Node000028"><a xlink:href="classFuncOrder.html#a4551f612b57ed99396fb4f5376c3ec71" target="_top" xlink:title=" ">
<polygon fill="white" stroke="#666666" points="1021.5,-683.5 934.5,-683.5 934.5,-664.5 1021.5,-664.5 1021.5,-683.5"/>
<text text-anchor="middle" x="978" y="-671.5" font-family="Ubuntu Mono" font-size="10.00">FuncOrder::set</text>
</a>
</g>
</g>
<!-- Node18&#45;&gt;Node28 -->
<g id="edge28_Node000018_Node000028" class="edge">
<title>Node18&#45;&gt;Node28</title>
<g id="a_edge28_Node000018_Node000028"><a xlink:title=" ">
<path fill="none" stroke="#63b8ff" d="M841.75,-605.61C853.05,-609.16 864.88,-613.87 875,-620 894.35,-631.72 891.43,-644.64 911,-656 915.38,-658.54 920.14,-660.74 925.02,-662.63"/>
<polygon fill="#63b8ff" stroke="#63b8ff" points="923.9,-665.95 934.49,-665.91 926.19,-659.33 923.9,-665.95"/>
</a>
</g>
</g>
<!-- Node22 -->
<g id="Node000022" class="node">
<title>Node22</title>
<g id="a_Node000022"><a xlink:href="classObjId.html#a1e5933713d6a73550b0923cf63f5bfd8" target="_top" xlink:title=" ">
<polygon fill="white" stroke="#666666" points="1167.5,-609.5 1097.5,-609.5 1097.5,-590.5 1167.5,-590.5 1167.5,-609.5"/>
<text text-anchor="middle" x="1132.5" y="-597.5" font-family="Ubuntu Mono" font-size="10.00">ObjId::data</text>
</a>
</g>
</g>
<!-- Node21&#45;&gt;Node22 -->
<g id="edge22_Node000021_Node000022" class="edge">
<title>Node21&#45;&gt;Node22</title>
<g id="a_edge22_Node000021_Node000022"><a xlink:title=" ">
<path fill="none" stroke="#63b8ff" d="M1017.88,-600C1039.06,-600 1065.34,-600 1087.3,-600"/>
<polygon fill="#63b8ff" stroke="#63b8ff" points="1087.37,-603.5 1097.37,-600 1087.37,-596.5 1087.37,-603.5"/>
</a>
</g>
</g>
<!-- Node23 -->
<g id="Node000023" class="node">
<title>Node23</title>
<g id="a_Node000023"><a xlink:href="classElement.html#a1978a0a584f1b10ea4a7c67e69880042" target="_top" xlink:title=" ">
<polygon fill="white" stroke="#666666" points="1316.5,-609.5 1231.5,-609.5 1231.5,-590.5 1316.5,-590.5 1316.5,-609.5"/>
<text text-anchor="middle" x="1274" y="-597.5" font-family="Ubuntu Mono" font-size="10.00">Element::data</text>
</a>
</g>
</g>
<!-- Node22&#45;&gt;Node23 -->
<g id="edge23_Node000022_Node000023" class="edge">
<title>Node22&#45;&gt;Node23</title>
<g id="a_edge23_Node000022_Node000023"><a xlink:title=" ">
<path fill="none" stroke="#63b8ff" d="M1167.63,-600C1183.75,-600 1203.34,-600 1221.24,-600"/>
<polygon fill="#63b8ff" stroke="#63b8ff" points="1221.26,-603.5 1231.26,-600 1221.26,-596.5 1221.26,-603.5"/>
</a>
</g>
</g>
<!-- Node24 -->
<g id="Node000024" class="node">
<title>Node24</title>
<g id="a_Node000024"><a xlink:href="classId.html#a574e06330597163aef0ea4c99de7ff4a" target="_top" xlink:title="Synonym for Id::operator()()">
<polygon fill="white" stroke="#666666" points="1310,-572.5 1238,-572.5 1238,-553.5 1310,-553.5 1310,-572.5"/>
<text text-anchor="middle" x="1274" y="-560.5" font-family="Ubuntu Mono" font-size="10.00">Id::element</text>
</a>
</g>
</g>
<!-- Node22&#45;&gt;Node24 -->
<g id="edge24_Node000022_Node000024" class="edge">
<title>Node22&#45;&gt;Node24</title>
<g id="a_edge24_Node000022_Node000024"><a xlink:title=" ">
<path fill="none" stroke="#63b8ff" d="M1167.63,-590.95C1185.76,-586.14 1208.28,-580.16 1227.85,-574.98"/>
<polygon fill="#63b8ff" stroke="#63b8ff" points="1229,-578.29 1237.77,-572.34 1227.21,-571.52 1229,-578.29"/>
</a>
</g>
</g>
<!-- Node26 -->
<g id="Node000026" class="node">
<title>Node26</title>
<g id="a_Node000026"><a xlink:href="classElement.html#a73a0e468a3d6cfd6475fff4a56459075" target="_top" xlink:title=" ">
<polygon fill="white" stroke="#666666" points="1328,-646.5 1220,-646.5 1220,-627.5 1328,-627.5 1328,-646.5"/>
<text text-anchor="middle" x="1274" y="-634.5" font-family="Ubuntu Mono" font-size="10.00">Element::rawIndex</text>
</a>
</g>
</g>
<!-- Node22&#45;&gt;Node26 -->
<g id="edge26_Node000022_Node000026" class="edge">
<title>Node22&#45;&gt;Node26</title>
<g id="a_edge26_Node000022_Node000026"><a xlink:title=" ">
<path fill="none" stroke="#63b8ff" d="M1167.63,-609.05C1185.48,-613.79 1207.6,-619.65 1226.96,-624.79"/>
<polygon fill="#63b8ff" stroke="#63b8ff" points="1226.23,-628.21 1236.79,-627.4 1228.02,-621.45 1226.23,-628.21"/>
</a>
</g>
</g>
<!-- Node25 -->
<g id="Node000025" class="node">
<title>Node25</title>
<g id="a_Node000025"><a xlink:href="classId.html#a2d5e7b4d5d918aadfe45102691c2be27" target="_top" xlink:title=" ">
<polygon fill="white" stroke="#666666" points="1441,-572.5 1364,-572.5 1364,-553.5 1441,-553.5 1441,-572.5"/>
<text text-anchor="middle" x="1402.5" y="-560.5" font-family="Ubuntu Mono" font-size="10.00">Id::elements</text>
</a>
</g>
</g>
<!-- Node24&#45;&gt;Node25 -->
<g id="edge25_Node000024_Node000025" class="edge">
<title>Node24&#45;&gt;Node25</title>
<g id="a_edge25_Node000024_Node000025"><a xlink:title=" ">
<path fill="none" stroke="#63b8ff" d="M1310.24,-563C1323.65,-563 1339.17,-563 1353.56,-563"/>
<polygon fill="#63b8ff" stroke="#63b8ff" points="1353.8,-566.5 1363.8,-563 1353.8,-559.5 1353.8,-566.5"/>
</a>
</g>
</g>
<!-- Node29&#45;&gt;Node7 -->
<g id="edge33_Node000029_Node000007" class="edge">
<title>Node29&#45;&gt;Node7</title>
<g id="a_edge33_Node000029_Node000007"><a xlink:title=" ">
<path fill="none" stroke="#63b8ff" d="M863.17,-568.06C867.56,-570.84 871.58,-574.12 875,-578 931.49,-642.2 852.94,-704.22 911,-767 917.96,-774.52 927.72,-779.02 937.6,-781.67"/>
<polygon fill="#63b8ff" stroke="#63b8ff" points="936.92,-785.11 947.43,-783.76 938.37,-778.26 936.92,-785.11"/>
</a>
</g>
</g>
<!-- Node29&#45;&gt;Node11 -->
<g id="edge30_Node000029_Node000011" class="edge">
<title>Node29&#45;&gt;Node11</title>
<g id="a_edge30_Node000029_Node000011"><a xlink:title=" ">
<path fill="none" stroke="#63b8ff" d="M862.62,-568.01C867.19,-570.79 871.41,-574.09 875,-578 922,-629.09 862.74,-680.09 911,-730 914.92,-734.06 919.66,-737.23 924.78,-739.7"/>
<polygon fill="#63b8ff" stroke="#63b8ff" points="923.72,-743.04 934.3,-743.44 926.27,-736.53 923.72,-743.04"/>
</a>
</g>
</g>
<!-- Node29&#45;&gt;Node16 -->
<g id="edge38_Node000029_Node000016" class="edge">
<title>Node29&#45;&gt;Node16</title>
<g id="a_edge38_Node000029_Node000016"><a xlink:title=" ">
<path fill="none" stroke="#63b8ff" d="M861.96,-568.08C866.73,-570.85 871.17,-574.12 875,-578 912.63,-616.11 872.43,-655.84 911,-693 912.29,-694.25 913.66,-695.41 915.1,-696.49"/>
<polygon fill="#63b8ff" stroke="#63b8ff" points="913.56,-699.65 923.92,-701.87 917.21,-693.68 913.56,-699.65"/>
</a>
</g>
</g>
<!-- Node29&#45;&gt;Node17 -->
<g id="edge39_Node000029_Node000017" class="edge">
<title>Node29&#45;&gt;Node17</title>
<g id="a_edge39_Node000029_Node000017"><a xlink:title=" ">
<path fill="none" stroke="#63b8ff" d="M850.27,-568.01C905.55,-580.57 992.31,-589.77 1045,-543 1120.41,-476.06 1048.48,-414.44 1081,-319 1090.44,-291.31 1107.67,-262.08 1119.36,-243.95"/>
<polygon fill="#63b8ff" stroke="#63b8ff" points="1122.31,-245.82 1124.89,-235.54 1116.47,-241.97 1122.31,-245.82"/>
</a>
</g>
</g>
<!-- Node29&#45;&gt;Node19 -->
<g id="edge31_Node000029_Node000019" class="edge">
<title>Node29&#45;&gt;Node19</title>
<g id="a_edge31_Node000029_Node000019"><a xlink:title=" ">
<path fill="none" stroke="#63b8ff" d="M814.76,-537.83C835.57,-519.15 873.45,-487.64 911,-469 920.19,-464.43 930.67,-460.79 940.52,-457.97"/>
<polygon fill="#63b8ff" stroke="#63b8ff" points="941.73,-461.27 950.49,-455.31 939.92,-454.5 941.73,-461.27"/>
</a>
</g>
</g>
<!-- Node29&#45;&gt;Node20 -->
<g id="edge32_Node000029_Node000020" class="edge">
<title>Node29&#45;&gt;Node20</title>
<g id="a_edge32_Node000029_Node000020"><a xlink:title=" ">
<path fill="none" stroke="#63b8ff" d="M831.58,-537.99C853.79,-528.21 883.84,-515.55 911,-506 920.52,-502.65 930.95,-499.44 940.66,-496.65"/>
<polygon fill="#63b8ff" stroke="#63b8ff" points="941.77,-499.97 950.44,-493.89 939.87,-493.23 941.77,-499.97"/>
</a>
</g>
</g>
<!-- Node29&#45;&gt;Node21 -->
<g id="edge34_Node000029_Node000021" class="edge">
<title>Node29&#45;&gt;Node21</title>
<g id="a_edge34_Node000029_Node000021"><a xlink:title=" ">
<path fill="none" stroke="#63b8ff" d="M855.47,-568C879.82,-574.41 907.88,-581.8 930.9,-587.86"/>
<polygon fill="#63b8ff" stroke="#63b8ff" points="930.19,-591.29 940.76,-590.46 931.98,-584.53 930.19,-591.29"/>
</a>
</g>
</g>
<!-- Node29&#45;&gt;Node27 -->
<g id="edge35_Node000029_Node000027" class="edge">
<title>Node29&#45;&gt;Node27</title>
<g id="a_edge35_Node000029_Node000027"><a xlink:title=" ">
<path fill="none" stroke="#63b8ff" d="M856.06,-568.04C862.7,-570.86 869.17,-574.15 875,-578 895.24,-591.35 890.43,-606.15 911,-619 913.63,-620.65 916.42,-622.14 919.3,-623.5"/>
<polygon fill="#63b8ff" stroke="#63b8ff" points="918.15,-626.82 928.73,-627.41 920.83,-620.35 918.15,-626.82"/>
</a>
</g>
</g>
<!-- Node30 -->
<g id="Node000030" class="node">
<title>Node30</title>
<g id="a_Node000030"><a xlink:href="classOpFunc.html#acebf5db12a82f08ca7aed646dfc4a99a" target="_top" xlink:title=" ">
<polygon fill="white" stroke="#666666" points="1042,-533.5 914,-533.5 914,-514.5 1042,-514.5 1042,-533.5"/>
<text text-anchor="middle" x="978" y="-521.5" font-family="Ubuntu Mono" font-size="10.00">OpFunc::makeHopFunc</text>
</a>
</g>
</g>
<!-- Node29&#45;&gt;Node30 -->
<g id="edge36_Node000029_Node000030" class="edge">
<title>Node29&#45;&gt;Node30</title>
<g id="a_edge36_Node000029_Node000030"><a xlink:title=" ">
<path fill="none" stroke="#63b8ff" d="M874.72,-540.62C885.89,-538.8 897.34,-536.94 908.35,-535.15"/>
<polygon fill="#63b8ff" stroke="#63b8ff" points="909.01,-538.59 918.31,-533.53 907.88,-531.68 909.01,-538.59"/>
</a>
</g>
</g>
<!-- Node31 -->
<g id="Node000031" class="node">
<title>Node31</title>
<g id="a_Node000031"><a xlink:href="classMsgDigest.html#aed14727a58012c32839433c2ae957aac" target="_top" xlink:title=" ">
<polygon fill="white" stroke="#666666" points="1041,-422.5 915,-422.5 915,-403.5 1041,-403.5 1041,-422.5"/>
<text text-anchor="middle" x="978" y="-410.5" font-family="Ubuntu Mono" font-size="10.00">MsgDigest::MsgDigest</text>
</a>
</g>
</g>
<!-- Node29&#45;&gt;Node31 -->
<g id="edge37_Node000029_Node000031" class="edge">
<title>Node29&#45;&gt;Node31</title>
<g id="a_edge37_Node000029_Node000031"><a xlink:title=" ">
<path fill="none" stroke="#63b8ff" d="M808.37,-537.9C825.92,-512.26 865.06,-460.23 911,-432 914.54,-429.82 918.35,-427.89 922.27,-426.16"/>
<polygon fill="#63b8ff" stroke="#63b8ff" points="923.55,-429.42 931.59,-422.53 921,-422.9 923.55,-429.42"/>
</a>
</g>
</g>
<!-- Node32&#45;&gt;Node9 -->
<g id="edge53_Node000032_Node000009" class="edge">
<title>Node32&#45;&gt;Node9</title>
<g id="a_edge53_Node000032_Node000009"><a xlink:title=" ">
<path fill="none" stroke="#63b8ff" d="M806.24,-309.24C820.73,-290.73 852.53,-248.96 875,-211 893.63,-179.53 883.83,-161.48 911,-137 915.47,-132.97 920.66,-129.61 926.14,-126.8"/>
<polygon fill="#63b8ff" stroke="#63b8ff" points="927.86,-129.86 935.55,-122.57 924.99,-123.48 927.86,-129.86"/>
</a>
</g>
</g>
<!-- Node32&#45;&gt;Node17 -->
<g id="edge57_Node000032_Node000017" class="edge">
<title>Node32&#45;&gt;Node17</title>
<g id="a_edge57_Node000032_Node000017"><a xlink:title=" ">
<path fill="none" stroke="#63b8ff" d="M805.63,-309.06C829.15,-276.34 903.2,-173.88 911,-170 964.31,-143.45 987.89,-153.13 1045,-170 1071.15,-177.73 1096.83,-196.11 1113.32,-209.71"/>
<polygon fill="#63b8ff" stroke="#63b8ff" points="1111.18,-212.49 1121.07,-216.31 1115.73,-207.16 1111.18,-212.49"/>
</a>
</g>
</g>
<!-- Node32&#45;&gt;Node19 -->
<g id="edge41_Node000032_Node000019" class="edge">
<title>Node32&#45;&gt;Node19</title>
<g id="a_edge41_Node000032_Node000019"><a xlink:title=" ">
<path fill="none" stroke="#63b8ff" d="M805.19,-328.53C820.98,-350.32 862.91,-404.02 911,-432 920.01,-437.24 930.6,-441 940.62,-443.69"/>
<polygon fill="#63b8ff" stroke="#63b8ff" points="939.84,-447.1 950.38,-446.02 941.47,-440.29 939.84,-447.1"/>
</a>
</g>
</g>
<!-- Node32&#45;&gt;Node20 -->
<g id="edge42_Node000032_Node000020" class="edge">
<title>Node32&#45;&gt;Node20</title>
<g id="a_edge42_Node000032_Node000020"><a xlink:title=" ">
<path fill="none" stroke="#63b8ff" d="M802.98,-328.83C815.73,-355.71 854.99,-430.95 911,-469 919.69,-474.91 930.26,-478.88 940.38,-481.55"/>
<polygon fill="#63b8ff" stroke="#63b8ff" points="939.72,-484.99 950.25,-483.81 941.28,-478.17 939.72,-484.99"/>
</a>
</g>
</g>
<!-- Node32&#45;&gt;Node21 -->
<g id="edge51_Node000032_Node000021" class="edge">
<title>Node32&#45;&gt;Node21</title>
<g id="a_edge51_Node000032_Node000021"><a xlink:title=" ">
<path fill="none" stroke="#63b8ff" d="M801.81,-328.72C813.23,-361.36 853.49,-469.2 911,-543 923.48,-559.02 941.01,-573.9 954.86,-584.44"/>
<polygon fill="#63b8ff" stroke="#63b8ff" points="952.82,-587.28 962.94,-590.41 956.98,-581.65 952.82,-587.28"/>
</a>
</g>
</g>
<!-- Node32&#45;&gt;Node31 -->
<g id="edge54_Node000032_Node000031" class="edge">
<title>Node32&#45;&gt;Node31</title>
<g id="a_edge54_Node000032_Node000031"><a xlink:title=" ">
<path fill="none" stroke="#63b8ff" d="M809.88,-328.58C829.38,-344.54 870.94,-376.62 911,-395 915.29,-396.97 919.85,-398.76 924.48,-400.39"/>
<polygon fill="#63b8ff" stroke="#63b8ff" points="923.43,-403.73 934.02,-403.48 925.59,-397.07 923.43,-403.73"/>
</a>
</g>
</g>
<!-- Node33 -->
<g id="Node000033" class="node">
<title>Node33</title>
<g id="a_Node000033"><a xlink:href="Element_8cpp.html#a57a0a78418a1071569a8d86e7e8b7fc6" target="_top" xlink:title=" ">
<polygon fill="white" stroke="#666666" points="1035,-385.5 921,-385.5 921,-366.5 1035,-366.5 1035,-385.5"/>
<text text-anchor="middle" x="978" y="-373.5" font-family="Ubuntu Mono" font-size="10.00">filterOffNodeTargets</text>
</a>
</g>
</g>
<!-- Node32&#45;&gt;Node33 -->
<g id="edge43_Node000032_Node000033" class="edge">
<title>Node32&#45;&gt;Node33</title>
<g id="a_edge43_Node000032_Node000033"><a xlink:title=" ">
<path fill="none" stroke="#63b8ff" d="M828.38,-328.54C858.24,-338.08 904.33,-352.79 937.26,-363.31"/>
<polygon fill="#63b8ff" stroke="#63b8ff" points="936.43,-366.72 947.03,-366.43 938.56,-360.05 936.43,-366.72"/>
</a>
</g>
</g>
<!-- Node36 -->
<g id="Node000036" class="node">
<title>Node36</title>
<g id="a_Node000036"><a xlink:href="classElement.html#a695b42ddcfcbedf97d74718b92da5020" target="_top" xlink:title="True if there is a copy of every dataEntry on all nodes.">
<polygon fill="white" stroke="#666666" points="1184,-347.5 1081,-347.5 1081,-328.5 1184,-328.5 1184,-347.5"/>
<text text-anchor="middle" x="1132.5" y="-335.5" font-family="Ubuntu Mono" font-size="10.00">Element::isGlobal</text>
</a>
</g>
</g>
<!-- Node32&#45;&gt;Node36 -->
<g id="edge52_Node000032_Node000036" class="edge">
<title>Node32&#45;&gt;Node36</title>
<g id="a_edge52_Node000032_Node000036"><a xlink:title=" ">
<path fill="none" stroke="#63b8ff" d="M875.32,-323.38C934.68,-326.77 1015.73,-331.39 1070.65,-334.53"/>
<polygon fill="#63b8ff" stroke="#63b8ff" points="1070.75,-338.04 1080.93,-335.11 1071.15,-331.05 1070.75,-338.04"/>
</a>
</g>
</g>
<!-- Node37 -->
<g id="Node000037" class="node">
<title>Node37</title>
<g id="a_Node000037"><a xlink:href="classFuncOrder.html#ac395ecf9872fda11b5636dcec9d6652e" target="_top" xlink:title=" ">
<polygon fill="white" stroke="#666666" points="1024.5,-309.5 931.5,-309.5 931.5,-290.5 1024.5,-290.5 1024.5,-309.5"/>
<text text-anchor="middle" x="978" y="-297.5" font-family="Ubuntu Mono" font-size="10.00">FuncOrder::func</text>
</a>
</g>
</g>
<!-- Node32&#45;&gt;Node37 -->
<g id="edge50_Node000032_Node000037" class="edge">
<title>Node32&#45;&gt;Node37</title>
<g id="a_edge50_Node000032_Node000037"><a xlink:title=" ">
<path fill="none" stroke="#63b8ff" d="M875.24,-310.83C890.6,-309.2 906.46,-307.51 920.96,-305.97"/>
<polygon fill="#63b8ff" stroke="#63b8ff" points="921.68,-309.41 931.25,-304.87 920.93,-302.45 921.68,-309.41"/>
</a>
</g>
</g>
<!-- Node38 -->
<g id="Node000038" class="node">
<title>Node38</title>
<g id="a_Node000038"><a xlink:href="classShell.html#a4c3608b6ca5fcec63a13b12c49b9d530" target="_top" xlink:title=" ">
<polygon fill="white" stroke="#666666" points="1022,-272.5 934,-272.5 934,-253.5 1022,-253.5 1022,-272.5"/>
<text text-anchor="middle" x="978" y="-260.5" font-family="Ubuntu Mono" font-size="10.00">Shell::myNode</text>
</a>
</g>
</g>
<!-- Node32&#45;&gt;Node38 -->
<g id="edge55_Node000032_Node000038" class="edge">
<title>Node32&#45;&gt;Node38</title>
<g id="a_edge55_Node000032_Node000038"><a xlink:title=" ">
<path fill="none" stroke="#63b8ff" d="M825.18,-309.49C847.88,-301.52 881.42,-290.02 911,-281 917.41,-279.04 924.2,-277.08 930.9,-275.2"/>
<polygon fill="#63b8ff" stroke="#63b8ff" points="931.87,-278.56 940.58,-272.52 930.01,-271.81 931.87,-278.56"/>
</a>
</g>
</g>
<!-- Node32&#45;&gt;Node39 -->
<g id="edge56_Node000032_Node000039" class="edge">
<title>Node32&#45;&gt;Node39</title>
<g id="a_edge56_Node000032_Node000039"><a xlink:title=" ">
<path fill="none" stroke="#63b8ff" d="M800.43,-309.11C807.84,-273.97 837.71,-154.08 911,-94 912.55,-92.73 914.18,-91.55 915.88,-90.45"/>
<polygon fill="#63b8ff" stroke="#63b8ff" points="917.69,-93.45 924.82,-85.62 914.36,-87.29 917.69,-93.45"/>
</a>
</g>
</g>
<!-- Node40 -->
<g id="Node000040" class="node">
<title>Node40</title>
<g id="a_Node000040"><a xlink:href="classMsg.html#a75bb9c90ff83027b60f24b1d8304128e" target="_top" xlink:title=" ">
<polygon fill="white" stroke="#666666" points="1018,-235.5 938,-235.5 938,-216.5 1018,-216.5 1018,-235.5"/>
<text text-anchor="middle" x="978" y="-223.5" font-family="Ubuntu Mono" font-size="10.00">Msg::sources</text>
</a>
</g>
</g>
<!-- Node32&#45;&gt;Node40 -->
<g id="edge58_Node000032_Node000040" class="edge">
<title>Node32&#45;&gt;Node40</title>
<g id="a_edge58_Node000032_Node000040"><a xlink:title=" ">
<path fill="none" stroke="#63b8ff" d="M810.22,-309.3C829.88,-293.48 871.26,-262.09 911,-244 916.4,-241.54 922.21,-239.36 928.06,-237.43"/>
<polygon fill="#63b8ff" stroke="#63b8ff" points="929.33,-240.7 937.88,-234.44 927.29,-234.01 929.33,-240.7"/>
</a>
</g>
</g>
<!-- Node41 -->
<g id="Node000041" class="node">
<title>Node41</title>
<g id="a_Node000041"><a xlink:href="classMsg.html#a24399903558da20171f6bd8e317c6c38" target="_top" xlink:title=" ">
<polygon fill="white" stroke="#666666" points="1016.5,-198.5 939.5,-198.5 939.5,-179.5 1016.5,-179.5 1016.5,-198.5"/>
<text text-anchor="middle" x="978" y="-186.5" font-family="Ubuntu Mono" font-size="10.00">Msg::targets</text>
</a>
</g>
</g>
<!-- Node32&#45;&gt;Node41 -->
<g id="edge59_Node000032_Node000041" class="edge">
<title>Node32&#45;&gt;Node41</title>
<g id="a_edge59_Node000032_Node000041"><a xlink:title=" ">
<path fill="none" stroke="#63b8ff" d="M805.45,-309.23C821.46,-287.44 863.3,-234.61 911,-207 916.8,-203.64 923.25,-200.89 929.78,-198.64"/>
<polygon fill="#63b8ff" stroke="#63b8ff" points="930.82,-201.98 939.35,-195.69 928.76,-195.29 930.82,-201.98"/>
</a>
</g>
</g>
<!-- Node33&#45;&gt;Node5 -->
<g id="edge44_Node000033_Node000005" class="edge">
<title>Node33&#45;&gt;Node5</title>
<g id="a_edge44_Node000033_Node000005"><a xlink:title=" ">
<path fill="none" stroke="#63b8ff" d="M1032.98,-385.6C1037.48,-388.08 1041.6,-391.16 1045,-395 1111.86,-470.48 1054.6,-521.69 1081,-619 1092.04,-659.69 1111.42,-705.17 1122.7,-730.1"/>
<polygon fill="#63b8ff" stroke="#63b8ff" points="1119.63,-731.82 1126.98,-739.45 1126,-728.9 1119.63,-731.82"/>
</a>
</g>
</g>
<!-- Node33&#45;&gt;Node6 -->
<g id="edge45_Node000033_Node000006" class="edge">
<title>Node33&#45;&gt;Node6</title>
<g id="a_edge45_Node000033_Node000006"><a xlink:title=" ">
<path fill="none" stroke="#63b8ff" d="M1024.41,-385.53C1031.58,-388.02 1038.7,-391.13 1045,-395 1076.75,-414.51 1104.28,-448.79 1119.32,-469.83"/>
<polygon fill="#63b8ff" stroke="#63b8ff" points="1116.57,-472.01 1125.15,-478.22 1122.31,-468.01 1116.57,-472.01"/>
</a>
</g>
</g>
<!-- Node33&#45;&gt;Node17 -->
<g id="edge49_Node000033_Node000017" class="edge">
<title>Node33&#45;&gt;Node17</title>
<g id="a_edge49_Node000033_Node000017"><a xlink:title=" ">
<path fill="none" stroke="#63b8ff" d="M990.5,-366.47C1003.91,-355.23 1026.58,-335.81 1045,-318 1070.95,-292.91 1099.3,-262.04 1116.23,-243.2"/>
<polygon fill="#63b8ff" stroke="#63b8ff" points="1118.89,-245.48 1122.95,-235.69 1113.67,-240.81 1118.89,-245.48"/>
</a>
</g>
</g>
<!-- Node34 -->
<g id="Node000034" class="node">
<title>Node34</title>
<g id="a_Node000034"><a xlink:href="classEref.html#a5dee1e5d3e0a76726286eccbb0ffda24" target="_top" xlink:title=" ">
<polygon fill="white" stroke="#666666" points="1174,-385.5 1091,-385.5 1091,-366.5 1174,-366.5 1174,-385.5"/>
<text text-anchor="middle" x="1132.5" y="-373.5" font-family="Ubuntu Mono" font-size="10.00">Eref::getNode</text>
</a>
</g>
</g>
<!-- Node33&#45;&gt;Node34 -->
<g id="edge46_Node000033_Node000034" class="edge">
<title>Node33&#45;&gt;Node34</title>
<g id="a_edge46_Node000033_Node000034"><a xlink:title=" ">
<path fill="none" stroke="#63b8ff" d="M1035.35,-376C1050.1,-376 1065.91,-376 1080.37,-376"/>
<polygon fill="#63b8ff" stroke="#63b8ff" points="1080.63,-379.5 1090.63,-376 1080.63,-372.5 1080.63,-379.5"/>
</a>
</g>
</g>
<!-- Node33&#45;&gt;Node36 -->
<g id="edge48_Node000033_Node000036" class="edge">
<title>Node33&#45;&gt;Node36</title>
<g id="a_edge48_Node000033_Node000036"><a xlink:title=" ">
<path fill="none" stroke="#63b8ff" d="M1017.48,-366.41C1037.52,-361.42 1062.2,-355.27 1083.48,-349.97"/>
<polygon fill="#63b8ff" stroke="#63b8ff" points="1084.44,-353.33 1093.29,-347.52 1082.74,-346.54 1084.44,-353.33"/>
</a>
</g>
</g>
<!-- Node35 -->
<g id="Node000035" class="node">
<title>Node35</title>
<g id="a_Node000035"><a xlink:href="classElement.html#a6350d721871c508fbf68286a3907e4a1" target="_top" xlink:title="Returns node number of specified dataIndex.">
<polygon fill="white" stroke="#666666" points="1326,-385.5 1222,-385.5 1222,-366.5 1326,-366.5 1326,-385.5"/>
<text text-anchor="middle" x="1274" y="-373.5" font-family="Ubuntu Mono" font-size="10.00">Element::getNode</text>
</a>
</g>
</g>
<!-- Node34&#45;&gt;Node35 -->
<g id="edge47_Node000034_Node000035" class="edge">
<title>Node34&#45;&gt;Node35</title>
<g id="a_edge47_Node000034_Node000035"><a xlink:title=" ">
<path fill="none" stroke="#63b8ff" d="M1174.22,-376C1185.96,-376 1199.04,-376 1211.73,-376"/>
<polygon fill="#63b8ff" stroke="#63b8ff" points="1211.8,-379.5 1221.8,-376 1211.8,-372.5 1211.8,-379.5"/>
</a>
</g>
</g>
</g>
</svg>
