<?xml version="1.0" encoding="UTF-8" standalone="no"?>
<!DOCTYPE svg PUBLIC "-//W3C//DTD SVG 1.1//EN"
 "http://www.w3.org/Graphics/SVG/1.1/DTD/svg11.dtd">
<!-- Generated by graphviz version 2.43.0 (0)
 -->
<!-- Title: CubeMesh::setNx Pages: 1 -->
<!--zoomable 156 -->

<svg id="main" version="1.1" xmlns="http://www.w3.org/2000/svg" xmlns:xlink="http://www.w3.org/1999/xlink" xml:space="preserve" onload="init(evt)">
<style type="text/css"><![CDATA[
.node, .edge {opacity: 0.7;}
.node.selected, .edge.selected {opacity: 1;}
.edge:hover path { stroke: red; }
.edge:hover polygon { stroke: red; fill: red; }
]]></style>

<defs>
  <circle id="rim" cx="0" cy="0" r="7"/>
  <circle id="rim2" cx="0" cy="0" r="3.5"/>
  <g id="zoomPlus">
    <use xlink:href="#rim" fill="#404040"><set attributeName="fill" to="#808080" begin="zoomplus.mouseover" end="zoomplus.mouseout"/></use>
    <path d="M-4,0h8M0,-4v8" fill="none" stroke="white" stroke-width="1.5" pointer-events="none"/>
  </g>
  <g id="zoomMin">
    <use xlink:href="#rim" fill="#404040"><set attributeName="fill" to="#808080" begin="zoomminus.mouseover" end="zoomminus.mouseout"/></use>
    <path d="M-4,0h8" fill="none" stroke="white" stroke-width="1.5" pointer-events="none"/>
  </g>
  <g id="arrowUp" transform="translate(30 24)">
    <use xlink:href="#rim"/>
    <path pointer-events="none" fill="none" stroke="white" stroke-width="1.5" d="M0,-3.0v7 M-2.5,-0.5L0,-3.0L2.5,-0.5"/>
  </g>
  <g id="arrowRight" transform="rotate(90) translate(36 -43)">
    <use xlink:href="#rim"/>
    <path pointer-events="none" fill="none" stroke="white" stroke-width="1.5" d="M0,-3.0v7 M-2.5,-0.5L0,-3.0L2.5,-0.5"/>
  </g>
  <g id="arrowDown" transform="rotate(180) translate(-30 -48)">
    <use xlink:href="#rim"/>
    <path pointer-events="none" fill="none" stroke="white" stroke-width="1.5" d="M0,-3.0v7 M-2.5,-0.5L0,-3.0L2.5,-0.5"/>
  </g>
  <g id="arrowLeft" transform="rotate(270) translate(-36 17)">
    <use xlink:href="#rim"/>
    <path pointer-events="none" fill="none" stroke="white" stroke-width="1.5" d="M0,-3.0v7 M-2.5,-0.5L0,-3.0L2.5,-0.5"/>
  </g>
  <g id="resetDef">
    <use xlink:href="#rim2" fill="#404040"><set attributeName="fill" to="#808080" begin="reset.mouseover" end="reset.mouseout"/></use>
  </g>
</defs>
<script type="application/ecmascript">
var viewWidth = 858;
var viewHeight = 156;
var sectionId = 'dynsection-76';
</script>
<script type="application/ecmascript" xlink:href="svg.min.js"/>
<svg id="graph" class="graph">
<g id="viewport">
<title>CubeMesh::setNx</title>
<!-- Node1 -->
<g id="Node000001" class="node">
<title>Node1</title>
<g id="a_Node000001"><a xlink:title=" ">
<polygon fill="#999999" stroke="#666666" points="102,-56 0,-56 0,-37 102,-37 102,-56"/>
<text text-anchor="middle" x="51" y="-44" font-family="Ubuntu Mono" font-size="10.00">CubeMesh::setNx</text>
</a>
</g>
</g>
<!-- Node2 -->
<g id="Node000002" class="node">
<title>Node2</title>
<g id="a_Node000002"><a xlink:href="classCubeMesh.html#af13c8ae7776a0188d695921274f7a226" target="_top" xlink:title=" ">
<polygon fill="white" stroke="#666666" points="279,-56 138,-56 138,-37 279,-37 279,-56"/>
<text text-anchor="middle" x="208.5" y="-44" font-family="Ubuntu Mono" font-size="10.00">CubeMesh::updateCoords</text>
</a>
</g>
</g>
<!-- Node1&#45;&gt;Node2 -->
<g id="edge1_Node000001_Node000002" class="edge">
<title>Node1&#45;&gt;Node2</title>
<g id="a_edge1_Node000001_Node000002"><a xlink:title=" ">
<path fill="none" stroke="#63b8ff" d="M102.06,-46.5C110.29,-46.5 119,-46.5 127.74,-46.5"/>
<polygon fill="#63b8ff" stroke="#63b8ff" points="127.99,-50 137.99,-46.5 127.99,-43 127.99,-50"/>
</a>
</g>
</g>
<!-- Node3 -->
<g id="Node000003" class="node">
<title>Node3</title>
<g id="a_Node000003"><a xlink:href="classCubeMesh.html#a15fd949e84856e14321830ce459258d4" target="_top" xlink:title=" ">
<polygon fill="white" stroke="#666666" points="465.5,-93 334.5,-93 334.5,-74 465.5,-74 465.5,-93"/>
<text text-anchor="middle" x="400" y="-81" font-family="Ubuntu Mono" font-size="10.00">CubeMesh::buildStencil</text>
</a>
</g>
</g>
<!-- Node2&#45;&gt;Node3 -->
<g id="edge2_Node000002_Node000003" class="edge">
<title>Node2&#45;&gt;Node3</title>
<g id="a_edge2_Node000002_Node000003"><a xlink:title=" ">
<path fill="none" stroke="#63b8ff" d="M258.3,-56.03C283.29,-60.91 313.91,-66.89 340.19,-72.02"/>
<polygon fill="#63b8ff" stroke="#63b8ff" points="339.55,-75.46 350.04,-73.94 340.89,-68.59 339.55,-75.46"/>
</a>
</g>
</g>
<!-- Node11 -->
<g id="Node000011" class="node">
<title>Node11</title>
<g id="a_Node000011"><a xlink:href="classCubeMesh.html#a2600b87978c8fe50c2417405d97c0b7e" target="_top" xlink:title=" ">
<polygon fill="white" stroke="#666666" points="485,-56 315,-56 315,-37 485,-37 485,-56"/>
<text text-anchor="middle" x="400" y="-44" font-family="Ubuntu Mono" font-size="10.00">CubeMesh::fillThreeDimSurface</text>
</a>
</g>
</g>
<!-- Node2&#45;&gt;Node11 -->
<g id="edge10_Node000002_Node000011" class="edge">
<title>Node2&#45;&gt;Node11</title>
<g id="a_edge10_Node000002_Node000011"><a xlink:title=" ">
<path fill="none" stroke="#63b8ff" d="M279.26,-46.5C287.6,-46.5 296.22,-46.5 304.84,-46.5"/>
<polygon fill="#63b8ff" stroke="#63b8ff" points="304.93,-50 314.93,-46.5 304.93,-43 304.93,-50"/>
</a>
</g>
</g>
<!-- Node12 -->
<g id="Node000012" class="node">
<title>Node12</title>
<g id="a_Node000012"><a xlink:href="CubeMesh_8cpp.html#a1b465be483a3d91e6c4d8e8ec03cfbdd" target="_top" xlink:title=" ">
<polygon fill="white" stroke="#666666" points="448.5,-19 351.5,-19 351.5,0 448.5,0 448.5,-19"/>
<text text-anchor="middle" x="400" y="-7" font-family="Ubuntu Mono" font-size="10.00">swapIfBackward</text>
</a>
</g>
</g>
<!-- Node2&#45;&gt;Node12 -->
<g id="edge11_Node000002_Node000012" class="edge">
<title>Node2&#45;&gt;Node12</title>
<g id="a_edge11_Node000002_Node000012"><a xlink:title=" ">
<path fill="none" stroke="#63b8ff" d="M258.3,-36.97C283.68,-32.02 314.86,-25.93 341.42,-20.74"/>
<polygon fill="#63b8ff" stroke="#63b8ff" points="342.2,-24.16 351.35,-18.8 340.86,-17.29 342.2,-24.16"/>
</a>
</g>
</g>
<!-- Node4 -->
<g id="Node000004" class="node">
<title>Node4</title>
<g id="a_Node000004"><a xlink:href="classMeshCompt.html#a781b9a02f4af37458eda4ffb1a6e615d" target="_top" xlink:title=" ">
<polygon fill="white" stroke="#666666" points="664.5,-148 544.5,-148 544.5,-129 664.5,-129 664.5,-148"/>
<text text-anchor="middle" x="604.5" y="-136" font-family="Ubuntu Mono" font-size="10.00">MeshCompt::addRow</text>
</a>
</g>
</g>
<!-- Node3&#45;&gt;Node4 -->
<g id="edge3_Node000003_Node000004" class="edge">
<title>Node3&#45;&gt;Node4</title>
<g id="a_edge3_Node000003_Node000004"><a xlink:title=" ">
<path fill="none" stroke="#63b8ff" d="M429.42,-93C453.61,-100.91 489.37,-112.19 521,-120.5 529.25,-122.67 538.02,-124.78 546.64,-126.75"/>
<polygon fill="#63b8ff" stroke="#63b8ff" points="546.13,-130.23 556.65,-129 547.66,-123.39 546.13,-130.23"/>
</a>
</g>
</g>
<!-- Node6 -->
<g id="Node000006" class="node">
<title>Node6</title>
<g id="a_Node000006"><a xlink:href="classEcol.html#a90dd204aed1bf7007c92d3c0aace8fb0" target="_top" xlink:title=" ">
<polygon fill="white" stroke="#666666" points="636,-111 573,-111 573,-92 636,-92 636,-111"/>
<text text-anchor="middle" x="604.5" y="-99" font-family="Ubuntu Mono" font-size="10.00">Ecol::Ecol</text>
</a>
</g>
</g>
<!-- Node3&#45;&gt;Node6 -->
<g id="edge5_Node000003_Node000006" class="edge">
<title>Node3&#45;&gt;Node6</title>
<g id="a_edge5_Node000003_Node000006"><a xlink:title=" ">
<path fill="none" stroke="#63b8ff" d="M465.63,-89.24C497.45,-92.07 534.84,-95.4 562.65,-97.87"/>
<polygon fill="#63b8ff" stroke="#63b8ff" points="562.54,-101.37 572.81,-98.77 563.16,-94.4 562.54,-101.37"/>
</a>
</g>
</g>
<!-- Node7 -->
<g id="Node000007" class="node">
<title>Node7</title>
<g id="a_Node000007"><a xlink:href="classMeshCompt.html#a2a9074af295cab3af79ee77f68a16257" target="_top" xlink:title="virtual func implemented here.">
<polygon fill="white" stroke="#666666" points="688,-74 521,-74 521,-55 688,-55 688,-74"/>
<text text-anchor="middle" x="604.5" y="-62" font-family="Ubuntu Mono" font-size="10.00">MeshCompt::innerResetStencil</text>
</a>
</g>
</g>
<!-- Node3&#45;&gt;Node7 -->
<g id="edge6_Node000003_Node000007" class="edge">
<title>Node3&#45;&gt;Node7</title>
<g id="a_edge6_Node000003_Node000007"><a xlink:title=" ">
<path fill="none" stroke="#63b8ff" d="M465.63,-77.44C480.06,-76.08 495.64,-74.62 510.95,-73.18"/>
<polygon fill="#63b8ff" stroke="#63b8ff" points="511.33,-76.66 520.96,-72.24 510.68,-69.69 511.33,-76.66"/>
</a>
</g>
</g>
<!-- Node8 -->
<g id="Node000008" class="node">
<title>Node8</title>
<g id="a_Node000008"><a xlink:href="classMeshCompt.html#a3dc8eb0fdcddcf79579584e1060c83b0" target="_top" xlink:title=" ">
<polygon fill="white" stroke="#666666" points="679,-37 530,-37 530,-18 679,-18 679,-37"/>
<text text-anchor="middle" x="604.5" y="-25" font-family="Ubuntu Mono" font-size="10.00">MeshCompt::setStencilSize</text>
</a>
</g>
</g>
<!-- Node3&#45;&gt;Node8 -->
<g id="edge7_Node000003_Node000008" class="edge">
<title>Node3&#45;&gt;Node8</title>
<g id="a_edge7_Node000003_Node000008"><a xlink:title=" ">
<path fill="none" stroke="#63b8ff" d="M456.29,-73.92C465.99,-71.6 475.89,-68.81 485,-65.5 502,-59.32 504.04,-52.81 521,-46.5 527.99,-43.9 535.46,-41.58 542.93,-39.54"/>
<polygon fill="#63b8ff" stroke="#63b8ff" points="543.91,-42.9 552.72,-37.01 542.16,-36.13 543.91,-42.9"/>
</a>
</g>
</g>
<!-- Node5 -->
<g id="Node000005" class="node">
<title>Node5</title>
<g id="a_Node000005"><a xlink:href="classSparseMatrix.html#a873cc36079017efce916136e0bc50c20" target="_top" xlink:title=" ">
<polygon fill="white" stroke="#666666" points="850,-148 724,-148 724,-129 850,-129 850,-148"/>
<text text-anchor="middle" x="787" y="-136" font-family="Ubuntu Mono" font-size="10.00">SparseMatrix::addRow</text>
</a>
</g>
</g>
<!-- Node4&#45;&gt;Node5 -->
<g id="edge4_Node000004_Node000005" class="edge">
<title>Node4&#45;&gt;Node5</title>
<g id="a_edge4_Node000004_Node000005"><a xlink:title=" ">
<path fill="none" stroke="#63b8ff" d="M664.6,-138.5C680.35,-138.5 697.55,-138.5 713.91,-138.5"/>
<polygon fill="#63b8ff" stroke="#63b8ff" points="713.97,-142 723.97,-138.5 713.97,-135 713.97,-142"/>
</a>
</g>
</g>
<!-- Node9 -->
<g id="Node000009" class="node">
<title>Node9</title>
<g id="a_Node000009"><a xlink:href="classSparseMatrix.html#aabc77208663f5a59bb2bbb0559b614f7" target="_top" xlink:title=" ">
<polygon fill="white" stroke="#666666" points="842.5,-56 731.5,-56 731.5,-37 842.5,-37 842.5,-56"/>
<text text-anchor="middle" x="787" y="-44" font-family="Ubuntu Mono" font-size="10.00">SparseMatrix::clear</text>
</a>
</g>
</g>
<!-- Node8&#45;&gt;Node9 -->
<g id="edge8_Node000008_Node000009" class="edge">
<title>Node8&#45;&gt;Node9</title>
<g id="a_edge8_Node000008_Node000009"><a xlink:title=" ">
<path fill="none" stroke="#63b8ff" d="M679.18,-35.26C693.08,-36.72 707.53,-38.24 721.14,-39.67"/>
<polygon fill="#63b8ff" stroke="#63b8ff" points="721.05,-43.18 731.36,-40.75 721.78,-36.22 721.05,-43.18"/>
</a>
</g>
</g>
<!-- Node10 -->
<g id="Node000010" class="node">
<title>Node10</title>
<g id="a_Node000010"><a xlink:href="classSparseMatrix.html#a6ceeff27e7ff6df253e88f3c6a24f820" target="_top" xlink:title=" ">
<polygon fill="white" stroke="#666666" points="848,-19 726,-19 726,0 848,0 848,-19"/>
<text text-anchor="middle" x="787" y="-7" font-family="Ubuntu Mono" font-size="10.00">SparseMatrix::setSize</text>
</a>
</g>
</g>
<!-- Node8&#45;&gt;Node10 -->
<g id="edge9_Node000008_Node000010" class="edge">
<title>Node8&#45;&gt;Node10</title>
<g id="a_edge9_Node000008_Node000010"><a xlink:title=" ">
<path fill="none" stroke="#63b8ff" d="M679.18,-20.15C691.29,-18.95 703.81,-17.7 715.83,-16.5"/>
<polygon fill="#63b8ff" stroke="#63b8ff" points="716.18,-19.98 725.79,-15.5 715.49,-13.01 716.18,-19.98"/>
</a>
</g>
</g>
</g>
</svg>

<g id="navigator" transform="translate(0 0)" fill="#404254">
  <rect fill="#f2f5e9" fill-opacity="0.5" stroke="#606060" stroke-width=".5" x="0" y="0" width="60" height="60"/>
  <use id="zoomplus" xlink:href="#zoomPlus" x="17" y="9" onmousedown="handleZoom(evt,'in')"/>
  <use id="zoomminus" xlink:href="#zoomMin" x="42" y="9" onmousedown="handleZoom(evt,'out')"/>
  <use id="reset" xlink:href="#resetDef" x="30" y="36" onmousedown="handleReset()"/>
   <use id="arrowup" xlink:href="#arrowUp" x="0" y="0" onmousedown="handlePan(0,-1)"/>
  <use id="arrowright" xlink:href="#arrowRight" x="0" y="0" onmousedown="handlePan(1,0)"/>
  <use id="arrowdown" xlink:href="#arrowDown" x="0" y="0" onmousedown="handlePan(0,1)"/>
  <use id="arrowleft" xlink:href="#arrowLeft" x="0" y="0" onmousedown="handlePan(-1,0)"/>
</g>
<svg viewBox="0 0 15 15" width="100%" height="30px" preserveAspectRatio="xMaxYMin meet">
 <g id="arrow_out" transform="scale(0.3 0.3)">
  <a xlink:href="classCubeMesh_ade604c64045021368b07ae2721798d9d_cgraph_org.svg" target="_base">
   <rect id="button" ry="5" rx="5" y="6" x="6" height="38" width="38"
        fill="#f2f5e9" fill-opacity="0.5" stroke="#606060" stroke-width="1.0"/>
   <path id="arrow"
     d="M 11.500037,31.436501 C 11.940474,20.09759 22.043105,11.32322 32.158766,21.979434 L 37.068811,17.246167 C 37.068811,17.246167 37.088388,32 37.088388,32 L 22.160133,31.978069 C 22.160133,31.978069 26.997745,27.140456 26.997745,27.140456 C 18.528582,18.264221 13.291696,25.230495 11.500037,31.436501 z"
     style="fill:#404040;"/>
  </a>
 </g>
</svg>

<style type='text/css'>
<![CDATA[
[data-mouse-over-selected='false'] { opacity: 0.7; }
[data-mouse-over-selected='true']  { opacity: 1.0; }
]]>
</style>
<script type="application/ecmascript"><![CDATA[
document.addEventListener('DOMContentLoaded', (event) => {
  highlightEdges();
  highlightAdjacentNodes();
});
]]></script>
</svg>
