<?xml version="1.0" encoding="UTF-8" standalone="no"?>
<!DOCTYPE svg PUBLIC "-//W3C//DTD SVG 1.1//EN"
 "http://www.w3.org/Graphics/SVG/1.1/DTD/svg11.dtd">
<!-- Generated by graphviz version 2.43.0 (0)
 -->
<!-- Title: SetGet2&lt; A1, A2 &gt; Pages: 1 -->
<svg width="117pt" height="625pt"
 viewBox="0.00 0.00 117.00 625.00" xmlns="http://www.w3.org/2000/svg" xmlns:xlink="http://www.w3.org/1999/xlink">
<g id="graph0" class="graph" transform="scale(1 1) rotate(0) translate(4 621)">
<title>SetGet2&lt; A1, A2 &gt;</title>
<!-- Node1 -->
<g id="Node000001" class="node">
<title>Node1</title>
<g id="a_Node000001"><a xlink:title=" ">
<polygon fill="#999999" stroke="transparent" points="106.5,-441 2.5,-441 2.5,-347 106.5,-347 106.5,-441"/>
<text text-anchor="start" x="7.5" y="-429" font-family="Ubuntu Mono" font-size="10.00">SetGet2&lt; A1, A2 &gt;</text>
<text text-anchor="start" x="52.5" y="-414" font-family="Ubuntu Mono" font-size="10.00"> </text>
<text text-anchor="start" x="11.5" y="-399" font-family="Ubuntu Mono" font-size="10.00">+</text>
<text text-anchor="start" x="29.5" y="-399" font-family="Ubuntu Mono" font-size="10.00">SetGet2()</text>
<text text-anchor="start" x="11.5" y="-384" font-family="Ubuntu Mono" font-size="10.00">+</text>
<text text-anchor="start" x="29.5" y="-384" font-family="Ubuntu Mono" font-size="10.00">innerStrSet()</text>
<text text-anchor="start" x="11.5" y="-369" font-family="Ubuntu Mono" font-size="10.00">+</text>
<text text-anchor="start" x="29.5" y="-369" font-family="Ubuntu Mono" font-size="10.00">set()</text>
<text text-anchor="start" x="11.5" y="-354" font-family="Ubuntu Mono" font-size="10.00">+</text>
<text text-anchor="start" x="29.5" y="-354" font-family="Ubuntu Mono" font-size="10.00">setVec()</text>
<polygon fill="#666666" stroke="#666666" points="2.5,-424 2.5,-424 106.5,-424 106.5,-424 2.5,-424"/>
<polygon fill="#666666" stroke="#666666" points="2.5,-409 2.5,-409 106.5,-409 106.5,-409 2.5,-409"/>
<polygon fill="none" stroke="#666666" points="2.5,-347 2.5,-441 106.5,-441 106.5,-347 2.5,-347"/>
</a>
</g>
</g>
<!-- Node3 -->
<g id="Node000003" class="node">
<title>Node3</title>
<g id="a_Node000003"><a xlink:href="classSetGet2.html" target="_top" xlink:title=" ">
<polygon fill="white" stroke="transparent" points="99.5,-300 9.5,-300 9.5,-206 99.5,-206 99.5,-300"/>
<text text-anchor="start" x="14.5" y="-288" font-family="Ubuntu Mono" font-size="10.00">SetGet2&lt; L, A &gt;</text>
<text text-anchor="start" x="52.5" y="-273" font-family="Ubuntu Mono" font-size="10.00"> </text>
<text text-anchor="start" x="15" y="-258" font-family="Ubuntu Mono" font-size="10.00">+</text>
<text text-anchor="start" x="29.5" y="-258" font-family="Ubuntu Mono" font-size="10.00">SetGet2()</text>
<text text-anchor="start" x="15" y="-243" font-family="Ubuntu Mono" font-size="10.00">+</text>
<text text-anchor="start" x="29.5" y="-243" font-family="Ubuntu Mono" font-size="10.00">innerStrSet()</text>
<text text-anchor="start" x="15" y="-228" font-family="Ubuntu Mono" font-size="10.00">+</text>
<text text-anchor="start" x="29.5" y="-228" font-family="Ubuntu Mono" font-size="10.00">set()</text>
<text text-anchor="start" x="15" y="-213" font-family="Ubuntu Mono" font-size="10.00">+</text>
<text text-anchor="start" x="29.5" y="-213" font-family="Ubuntu Mono" font-size="10.00">setVec()</text>
<polygon fill="#666666" stroke="#666666" points="9.5,-283 9.5,-283 99.5,-283 99.5,-283 9.5,-283"/>
<polygon fill="#666666" stroke="#666666" points="9.5,-268 9.5,-268 99.5,-268 99.5,-268 9.5,-268"/>
<polygon fill="none" stroke="#666666" points="9.5,-206 9.5,-300 99.5,-300 99.5,-206 9.5,-206"/>
</a>
</g>
</g>
<!-- Node1&#45;&gt;Node3 -->
<g id="edge2_Node000001_Node000003" class="edge">
<title>Node1&#45;&gt;Node3</title>
<g id="a_edge2_Node000001_Node000003"><a xlink:title=" ">
<path fill="none" stroke="orange" d="M54.5,-336.67C54.5,-324.51 54.5,-311.79 54.5,-300.08"/>
<polygon fill="orange" stroke="orange" points="51,-336.71 54.5,-346.72 58,-336.72 51,-336.71"/>
</a>
</g>
<text text-anchor="middle" x="76.5" y="-321" font-family="Ubuntu Mono" font-size="10.00" fill="grey"> &lt; L, A &gt;</text>
</g>
<!-- Node2 -->
<g id="Node000002" class="node">
<title>Node2</title>
<g id="a_Node000002"><a xlink:href="classSetGet.html" target="_top" xlink:title=" ">
<polygon fill="white" stroke="transparent" points="103,-617 6,-617 6,-478 103,-478 103,-617"/>
<text text-anchor="start" x="38" y="-604.5" font-family="Ubuntu Mono" font-size="10.00">SetGet</text>
<text text-anchor="start" x="53" y="-589.5" font-family="Ubuntu Mono" font-size="10.00"> </text>
<text text-anchor="start" x="10.5" y="-574.5" font-family="Ubuntu Mono" font-size="10.00">+</text>
<text text-anchor="start" x="23.5" y="-574.5" font-family="Ubuntu Mono" font-size="10.00">checkOpClass()</text>
<text text-anchor="start" x="10.5" y="-559.5" font-family="Ubuntu Mono" font-size="10.00">+</text>
<text text-anchor="start" x="23.5" y="-559.5" font-family="Ubuntu Mono" font-size="10.00">SetGet()</text>
<text text-anchor="start" x="10.5" y="-544.5" font-family="Ubuntu Mono" font-size="10.00">+</text>
<text text-anchor="start" x="23.5" y="-544.5" font-family="Ubuntu Mono" font-size="10.00">~SetGet()</text>
<text text-anchor="start" x="10.5" y="-529.5" font-family="Ubuntu Mono" font-size="10.00">+</text>
<text text-anchor="start" x="23.5" y="-529.5" font-family="Ubuntu Mono" font-size="10.00">checkSet()</text>
<text text-anchor="start" x="10.5" y="-514.5" font-family="Ubuntu Mono" font-size="10.00">+</text>
<text text-anchor="start" x="23.5" y="-514.5" font-family="Ubuntu Mono" font-size="10.00">dispatchGet()</text>
<text text-anchor="start" x="10.5" y="-499.5" font-family="Ubuntu Mono" font-size="10.00">+</text>
<text text-anchor="start" x="23.5" y="-499.5" font-family="Ubuntu Mono" font-size="10.00">strGet()</text>
<text text-anchor="start" x="10.5" y="-484.5" font-family="Ubuntu Mono" font-size="10.00">+</text>
<text text-anchor="start" x="23.5" y="-484.5" font-family="Ubuntu Mono" font-size="10.00">strSet()</text>
<polygon fill="#666666" stroke="#666666" points="6.5,-599.5 6.5,-599.5 103.5,-599.5 103.5,-599.5 6.5,-599.5"/>
<polygon fill="#666666" stroke="#666666" points="6.5,-584.5 6.5,-584.5 103.5,-584.5 103.5,-584.5 6.5,-584.5"/>
<polygon fill="none" stroke="#666666" points="6,-478 6,-617 103,-617 103,-478 6,-478"/>
</a>
</g>
</g>
<!-- Node2&#45;&gt;Node1 -->
<g id="edge1_Node000001_Node000002" class="edge">
<title>Node2&#45;&gt;Node1</title>
<g id="a_edge1_Node000001_Node000002"><a xlink:title=" ">
<path fill="none" stroke="#63b8ff" d="M54.5,-467.67C54.5,-458.65 54.5,-449.69 54.5,-441.3"/>
<polygon fill="none" stroke="#63b8ff" points="51,-467.84 54.5,-477.84 58,-467.84 51,-467.84"/>
</a>
</g>
</g>
<!-- Node4 -->
<g id="Node000004" class="node">
<title>Node4</title>
<g id="a_Node000004"><a xlink:href="classLookupField.html" target="_top" xlink:title=" ">
<polygon fill="white" stroke="transparent" points="109,-169 0,-169 0,0 109,0 109,-169"/>
<text text-anchor="start" x="5.5" y="-156.5" font-family="Ubuntu Mono" font-size="10.00">LookupField&lt; L, A &gt;</text>
<text text-anchor="start" x="53" y="-141.5" font-family="Ubuntu Mono" font-size="10.00"> </text>
<text text-anchor="start" x="10" y="-126.5" font-family="Ubuntu Mono" font-size="10.00">+</text>
<text text-anchor="start" x="28.5" y="-126.5" font-family="Ubuntu Mono" font-size="10.00">LookupField()</text>
<text text-anchor="start" x="10" y="-111.5" font-family="Ubuntu Mono" font-size="10.00">+</text>
<text text-anchor="start" x="28.5" y="-111.5" font-family="Ubuntu Mono" font-size="10.00">get()</text>
<text text-anchor="start" x="10" y="-96.5" font-family="Ubuntu Mono" font-size="10.00">+</text>
<text text-anchor="start" x="28.5" y="-96.5" font-family="Ubuntu Mono" font-size="10.00">getVec()</text>
<text text-anchor="start" x="10" y="-81.5" font-family="Ubuntu Mono" font-size="10.00">+</text>
<text text-anchor="start" x="28.5" y="-81.5" font-family="Ubuntu Mono" font-size="10.00">innerStrGet()</text>
<text text-anchor="start" x="10" y="-66.5" font-family="Ubuntu Mono" font-size="10.00">+</text>
<text text-anchor="start" x="28.5" y="-66.5" font-family="Ubuntu Mono" font-size="10.00">innerStrSet()</text>
<text text-anchor="start" x="10" y="-51.5" font-family="Ubuntu Mono" font-size="10.00">+</text>
<text text-anchor="start" x="28.5" y="-51.5" font-family="Ubuntu Mono" font-size="10.00">set()</text>
<text text-anchor="start" x="10" y="-36.5" font-family="Ubuntu Mono" font-size="10.00">+</text>
<text text-anchor="start" x="28.5" y="-36.5" font-family="Ubuntu Mono" font-size="10.00">setRepeat()</text>
<text text-anchor="start" x="10" y="-21.5" font-family="Ubuntu Mono" font-size="10.00">+</text>
<text text-anchor="start" x="28.5" y="-21.5" font-family="Ubuntu Mono" font-size="10.00">setVec()</text>
<text text-anchor="start" x="10" y="-6.5" font-family="Ubuntu Mono" font-size="10.00">+</text>
<text text-anchor="start" x="28.5" y="-6.5" font-family="Ubuntu Mono" font-size="10.00">setVec()</text>
<polygon fill="#666666" stroke="#666666" points="0.5,-151.5 0.5,-151.5 109.5,-151.5 109.5,-151.5 0.5,-151.5"/>
<polygon fill="#666666" stroke="#666666" points="0.5,-136.5 0.5,-136.5 109.5,-136.5 109.5,-136.5 0.5,-136.5"/>
<polygon fill="none" stroke="#666666" points="0,0 0,-169 109,-169 109,0 0,0"/>
</a>
</g>
</g>
<!-- Node3&#45;&gt;Node4 -->
<g id="edge3_Node000003_Node000004" class="edge">
<title>Node3&#45;&gt;Node4</title>
<g id="a_edge3_Node000003_Node000004"><a xlink:title=" ">
<path fill="none" stroke="#63b8ff" d="M54.5,-195.51C54.5,-187.04 54.5,-178.15 54.5,-169.25"/>
<polygon fill="none" stroke="#63b8ff" points="51,-195.62 54.5,-205.62 58,-195.62 51,-195.62"/>
</a>
</g>
</g>
</g>
</svg>
