<?xml version="1.0" encoding="UTF-8" standalone="no"?>
<!DOCTYPE svg PUBLIC "-//W3C//DTD SVG 1.1//EN"
 "http://www.w3.org/Graphics/SVG/1.1/DTD/svg11.dtd">
<!-- Generated by graphviz version 2.43.0 (0)
 -->
<!-- Title: NeuroNode Pages: 1 -->
<!--zoomable 945 -->

<svg id="main" version="1.1" xmlns="http://www.w3.org/2000/svg" xmlns:xlink="http://www.w3.org/1999/xlink" xml:space="preserve" onload="init(evt)">
<style type="text/css"><![CDATA[
.node, .edge {opacity: 0.7;}
.node.selected, .edge.selected {opacity: 1;}
.edge:hover path { stroke: red; }
.edge:hover polygon { stroke: red; fill: red; }
]]></style>

<defs>
  <circle id="rim" cx="0" cy="0" r="7"/>
  <circle id="rim2" cx="0" cy="0" r="3.5"/>
  <g id="zoomPlus">
    <use xlink:href="#rim" fill="#404040"><set attributeName="fill" to="#808080" begin="zoomplus.mouseover" end="zoomplus.mouseout"/></use>
    <path d="M-4,0h8M0,-4v8" fill="none" stroke="white" stroke-width="1.5" pointer-events="none"/>
  </g>
  <g id="zoomMin">
    <use xlink:href="#rim" fill="#404040"><set attributeName="fill" to="#808080" begin="zoomminus.mouseover" end="zoomminus.mouseout"/></use>
    <path d="M-4,0h8" fill="none" stroke="white" stroke-width="1.5" pointer-events="none"/>
  </g>
  <g id="arrowUp" transform="translate(30 24)">
    <use xlink:href="#rim"/>
    <path pointer-events="none" fill="none" stroke="white" stroke-width="1.5" d="M0,-3.0v7 M-2.5,-0.5L0,-3.0L2.5,-0.5"/>
  </g>
  <g id="arrowRight" transform="rotate(90) translate(36 -43)">
    <use xlink:href="#rim"/>
    <path pointer-events="none" fill="none" stroke="white" stroke-width="1.5" d="M0,-3.0v7 M-2.5,-0.5L0,-3.0L2.5,-0.5"/>
  </g>
  <g id="arrowDown" transform="rotate(180) translate(-30 -48)">
    <use xlink:href="#rim"/>
    <path pointer-events="none" fill="none" stroke="white" stroke-width="1.5" d="M0,-3.0v7 M-2.5,-0.5L0,-3.0L2.5,-0.5"/>
  </g>
  <g id="arrowLeft" transform="rotate(270) translate(-36 17)">
    <use xlink:href="#rim"/>
    <path pointer-events="none" fill="none" stroke="white" stroke-width="1.5" d="M0,-3.0v7 M-2.5,-0.5L0,-3.0L2.5,-0.5"/>
  </g>
  <g id="resetDef">
    <use xlink:href="#rim2" fill="#404040"><set attributeName="fill" to="#808080" begin="reset.mouseover" end="reset.mouseout"/></use>
  </g>
</defs>
<script type="application/ecmascript">
var viewWidth = 386;
var viewHeight = 945;
var sectionId = 'dynsection-1';
</script>
<script type="application/ecmascript" xlink:href="svg.min.js"/>
<svg id="graph" class="graph">
<g id="viewport">
<title>NeuroNode</title>
<!-- Node1 -->
<g id="Node000001" class="node">
<title>Node1</title>
<g id="a_Node000001"><a xlink:title=" ">
<polygon fill="#999999" stroke="transparent" points="274.5,-319 102.5,-319 102.5,0 274.5,0 274.5,-319"/>
<text text-anchor="start" x="161" y="-306.5" font-family="Ubuntu Mono" font-size="10.00">NeuroNode</text>
<text text-anchor="start" x="109" y="-291.5" font-family="Ubuntu Mono" font-size="10.00">&#45;</text>
<text text-anchor="start" x="119.5" y="-291.5" font-family="Ubuntu Mono" font-size="10.00">isSphere_</text>
<text text-anchor="start" x="109" y="-276.5" font-family="Ubuntu Mono" font-size="10.00">&#45;</text>
<text text-anchor="start" x="119.5" y="-276.5" font-family="Ubuntu Mono" font-size="10.00">parent_</text>
<text text-anchor="start" x="109" y="-261.5" font-family="Ubuntu Mono" font-size="10.00">&#45;</text>
<text text-anchor="start" x="119.5" y="-261.5" font-family="Ubuntu Mono" font-size="10.00">startFid_</text>
<text text-anchor="start" x="106.5" y="-246.5" font-family="Ubuntu Mono" font-size="10.00">+</text>
<text text-anchor="start" x="119.5" y="-246.5" font-family="Ubuntu Mono" font-size="10.00">addChild()</text>
<text text-anchor="start" x="106.5" y="-231.5" font-family="Ubuntu Mono" font-size="10.00">+</text>
<text text-anchor="start" x="119.5" y="-231.5" font-family="Ubuntu Mono" font-size="10.00">calculateLength()</text>
<text text-anchor="start" x="106.5" y="-216.5" font-family="Ubuntu Mono" font-size="10.00">+</text>
<text text-anchor="start" x="119.5" y="-216.5" font-family="Ubuntu Mono" font-size="10.00">children()</text>
<text text-anchor="start" x="106.5" y="-201.5" font-family="Ubuntu Mono" font-size="10.00">+</text>
<text text-anchor="start" x="119.5" y="-201.5" font-family="Ubuntu Mono" font-size="10.00">clearChildren()</text>
<text text-anchor="start" x="106.5" y="-186.5" font-family="Ubuntu Mono" font-size="10.00">+</text>
<text text-anchor="start" x="119.5" y="-186.5" font-family="Ubuntu Mono" font-size="10.00">elecCompt()</text>
<text text-anchor="start" x="106.5" y="-171.5" font-family="Ubuntu Mono" font-size="10.00">+</text>
<text text-anchor="start" x="119.5" y="-171.5" font-family="Ubuntu Mono" font-size="10.00">findConnectedCompartments()</text>
<text text-anchor="start" x="106.5" y="-156.5" font-family="Ubuntu Mono" font-size="10.00">+</text>
<text text-anchor="start" x="119.5" y="-156.5" font-family="Ubuntu Mono" font-size="10.00">innerTraverse()</text>
<text text-anchor="start" x="106.5" y="-141.5" font-family="Ubuntu Mono" font-size="10.00">+</text>
<text text-anchor="start" x="119.5" y="-141.5" font-family="Ubuntu Mono" font-size="10.00">isDummyNode()</text>
<text text-anchor="start" x="106.5" y="-126.5" font-family="Ubuntu Mono" font-size="10.00">+</text>
<text text-anchor="start" x="119.5" y="-126.5" font-family="Ubuntu Mono" font-size="10.00">isSphere()</text>
<text text-anchor="start" x="106.5" y="-111.5" font-family="Ubuntu Mono" font-size="10.00">+</text>
<text text-anchor="start" x="119.5" y="-111.5" font-family="Ubuntu Mono" font-size="10.00">isStartNode()</text>
<text text-anchor="start" x="119.5" y="-96.5" font-family="Ubuntu Mono" font-size="10.00">and 8 more...</text>
<text text-anchor="start" x="106.5" y="-81.5" font-family="Ubuntu Mono" font-size="10.00">+</text>
<text text-anchor="start" x="119.5" y="-81.5" font-family="Ubuntu Mono" font-size="10.00">buildSpinyTree()</text>
<text text-anchor="start" x="106.5" y="-66.5" font-family="Ubuntu Mono" font-size="10.00">+</text>
<text text-anchor="start" x="119.5" y="-66.5" font-family="Ubuntu Mono" font-size="10.00">buildTree()</text>
<text text-anchor="start" x="106.5" y="-51.5" font-family="Ubuntu Mono" font-size="10.00">+</text>
<text text-anchor="start" x="119.5" y="-51.5" font-family="Ubuntu Mono" font-size="10.00">filterSpines()</text>
<text text-anchor="start" x="106.5" y="-36.5" font-family="Ubuntu Mono" font-size="10.00">+</text>
<text text-anchor="start" x="119.5" y="-36.5" font-family="Ubuntu Mono" font-size="10.00">findStartNode()</text>
<text text-anchor="start" x="106.5" y="-21.5" font-family="Ubuntu Mono" font-size="10.00">+</text>
<text text-anchor="start" x="119.5" y="-21.5" font-family="Ubuntu Mono" font-size="10.00">removeDisconnectedNodes()</text>
<text text-anchor="start" x="106.5" y="-6.5" font-family="Ubuntu Mono" font-size="10.00">+</text>
<text text-anchor="start" x="119.5" y="-6.5" font-family="Ubuntu Mono" font-size="10.00">traverse()</text>
<polygon fill="#666666" stroke="#666666" points="102.5,-301.5 102.5,-301.5 274.5,-301.5 274.5,-301.5 102.5,-301.5"/>
<polygon fill="#666666" stroke="#666666" points="102.5,-256.5 102.5,-256.5 117.5,-256.5 117.5,-256.5 102.5,-256.5"/>
<polygon fill="#666666" stroke="#666666" points="117.5,-256.5 117.5,-256.5 274.5,-256.5 274.5,-256.5 117.5,-256.5"/>
<polygon fill="none" stroke="#666666" points="102.5,0 102.5,-319 274.5,-319 274.5,0 102.5,0"/>
</a>
</g>
</g>
<!-- Node2 -->
<g id="Node000002" class="node">
<title>Node2</title>
<g id="a_Node000002"><a xlink:href="classCylBase.html" target="_top" xlink:title=" ">
<polygon fill="white" stroke="transparent" points="111,-700 0,-700 0,-411 111,-411 111,-700"/>
<text text-anchor="start" x="36" y="-687.5" font-family="Ubuntu Mono" font-size="10.00">CylBase</text>
<text text-anchor="start" x="7" y="-672.5" font-family="Ubuntu Mono" font-size="10.00">&#45;</text>
<text text-anchor="start" x="17.5" y="-672.5" font-family="Ubuntu Mono" font-size="10.00">dia_</text>
<text text-anchor="start" x="7" y="-657.5" font-family="Ubuntu Mono" font-size="10.00">&#45;</text>
<text text-anchor="start" x="17.5" y="-657.5" font-family="Ubuntu Mono" font-size="10.00">isCylinder_</text>
<text text-anchor="start" x="7" y="-642.5" font-family="Ubuntu Mono" font-size="10.00">&#45;</text>
<text text-anchor="start" x="17.5" y="-642.5" font-family="Ubuntu Mono" font-size="10.00">length_</text>
<text text-anchor="start" x="7" y="-627.5" font-family="Ubuntu Mono" font-size="10.00">&#45;</text>
<text text-anchor="start" x="17.5" y="-627.5" font-family="Ubuntu Mono" font-size="10.00">numDivs_</text>
<text text-anchor="start" x="7" y="-612.5" font-family="Ubuntu Mono" font-size="10.00">&#45;</text>
<text text-anchor="start" x="17.5" y="-612.5" font-family="Ubuntu Mono" font-size="10.00">x_</text>
<text text-anchor="start" x="7" y="-597.5" font-family="Ubuntu Mono" font-size="10.00">&#45;</text>
<text text-anchor="start" x="17.5" y="-597.5" font-family="Ubuntu Mono" font-size="10.00">y_</text>
<text text-anchor="start" x="7" y="-582.5" font-family="Ubuntu Mono" font-size="10.00">&#45;</text>
<text text-anchor="start" x="17.5" y="-582.5" font-family="Ubuntu Mono" font-size="10.00">z_</text>
<text text-anchor="start" x="4.5" y="-567.5" font-family="Ubuntu Mono" font-size="10.00">+</text>
<text text-anchor="start" x="17.5" y="-567.5" font-family="Ubuntu Mono" font-size="10.00">CylBase()</text>
<text text-anchor="start" x="4.5" y="-552.5" font-family="Ubuntu Mono" font-size="10.00">+</text>
<text text-anchor="start" x="17.5" y="-552.5" font-family="Ubuntu Mono" font-size="10.00">CylBase()</text>
<text text-anchor="start" x="4.5" y="-537.5" font-family="Ubuntu Mono" font-size="10.00">+</text>
<text text-anchor="start" x="17.5" y="-537.5" font-family="Ubuntu Mono" font-size="10.00">getCoordinates()</text>
<text text-anchor="start" x="4.5" y="-522.5" font-family="Ubuntu Mono" font-size="10.00">+</text>
<text text-anchor="start" x="17.5" y="-522.5" font-family="Ubuntu Mono" font-size="10.00">getDia()</text>
<text text-anchor="start" x="4.5" y="-507.5" font-family="Ubuntu Mono" font-size="10.00">+</text>
<text text-anchor="start" x="17.5" y="-507.5" font-family="Ubuntu Mono" font-size="10.00">getDiffusionArea()</text>
<text text-anchor="start" x="4.5" y="-492.5" font-family="Ubuntu Mono" font-size="10.00">+</text>
<text text-anchor="start" x="17.5" y="-492.5" font-family="Ubuntu Mono" font-size="10.00">getIsCylinder()</text>
<text text-anchor="start" x="4.5" y="-477.5" font-family="Ubuntu Mono" font-size="10.00">+</text>
<text text-anchor="start" x="17.5" y="-477.5" font-family="Ubuntu Mono" font-size="10.00">getLength()</text>
<text text-anchor="start" x="4.5" y="-462.5" font-family="Ubuntu Mono" font-size="10.00">+</text>
<text text-anchor="start" x="17.5" y="-462.5" font-family="Ubuntu Mono" font-size="10.00">getMiddleArea()</text>
<text text-anchor="start" x="4.5" y="-447.5" font-family="Ubuntu Mono" font-size="10.00">+</text>
<text text-anchor="start" x="17.5" y="-447.5" font-family="Ubuntu Mono" font-size="10.00">getNumDivs()</text>
<text text-anchor="start" x="4.5" y="-432.5" font-family="Ubuntu Mono" font-size="10.00">+</text>
<text text-anchor="start" x="17.5" y="-432.5" font-family="Ubuntu Mono" font-size="10.00">getVoxelLength()</text>
<text text-anchor="start" x="17.5" y="-417.5" font-family="Ubuntu Mono" font-size="10.00">and 16 more...</text>
<polygon fill="#666666" stroke="#666666" points="0.5,-682.5 0.5,-682.5 111.5,-682.5 111.5,-682.5 0.5,-682.5"/>
<polygon fill="#666666" stroke="#666666" points="0.5,-577.5 0.5,-577.5 15.5,-577.5 15.5,-577.5 0.5,-577.5"/>
<polygon fill="#666666" stroke="#666666" points="15.5,-577.5 15.5,-577.5 111.5,-577.5 111.5,-577.5 15.5,-577.5"/>
<polygon fill="none" stroke="#666666" points="0,-411 0,-700 111,-700 111,-411 0,-411"/>
</a>
</g>
</g>
<!-- Node2&#45;&gt;Node1 -->
<g id="edge1_Node000001_Node000002" class="edge">
<title>Node2&#45;&gt;Node1</title>
<g id="a_edge1_Node000001_Node000002"><a xlink:title=" ">
<path fill="none" stroke="#63b8ff" d="M107.19,-401.38C116.29,-374.42 125.78,-346.3 134.93,-319.2"/>
<polygon fill="none" stroke="#63b8ff" points="103.87,-400.27 103.99,-410.86 110.5,-402.51 103.87,-400.27"/>
</a>
</g>
</g>
<!-- Node3 -->
<g id="Node000003" class="node">
<title>Node3</title>
<g id="a_Node000003"><a xlink:title=" ">
<polygon fill="white" stroke="transparent" points="247.5,-585.5 129.5,-585.5 129.5,-525.5 247.5,-525.5 247.5,-585.5"/>
<text text-anchor="start" x="134.5" y="-573.5" font-family="Ubuntu Mono" font-size="10.00">std::vector&lt; unsigned</text>
<text text-anchor="start" x="174.5" y="-562.5" font-family="Ubuntu Mono" font-size="10.00"> int &gt;</text>
<text text-anchor="start" x="146" y="-547.5" font-family="Ubuntu Mono" font-size="10.00">+</text>
<text text-anchor="start" x="171.5" y="-547.5" font-family="Ubuntu Mono" font-size="10.00">elements</text>
<text text-anchor="start" x="186.5" y="-532.5" font-family="Ubuntu Mono" font-size="10.00"> </text>
<polygon fill="#666666" stroke="#666666" points="129.5,-557.5 129.5,-557.5 247.5,-557.5 247.5,-557.5 129.5,-557.5"/>
<polygon fill="#666666" stroke="#666666" points="129.5,-542.5 129.5,-542.5 169.5,-542.5 169.5,-542.5 129.5,-542.5"/>
<polygon fill="#666666" stroke="#666666" points="169.5,-542.5 169.5,-542.5 247.5,-542.5 247.5,-542.5 169.5,-542.5"/>
<polygon fill="none" stroke="#666666" points="129.5,-525.5 129.5,-585.5 247.5,-585.5 247.5,-525.5 129.5,-525.5"/>
</a>
</g>
</g>
<!-- Node3&#45;&gt;Node1 -->
<g id="edge2_Node000001_Node000003" class="edge">
<title>Node3&#45;&gt;Node1</title>
<g id="a_edge2_Node000001_Node000003"><a xlink:title=" ">
<path fill="none" stroke="#63b8ff" d="M188.5,-525.21C188.5,-483.9 188.5,-405.34 188.5,-331.68"/>
<polygon fill="none" stroke="#63b8ff" points="188.5,-331.43 184.5,-325.43 188.5,-319.43 192.5,-325.43 188.5,-331.43"/>
</a>
</g>
<text text-anchor="middle" x="214.5" y="-340" font-family="Ubuntu Mono" font-size="10.00" fill="grey"> &#45;children_</text>
</g>
<!-- Node4 -->
<g id="Node000004" class="node">
<title>Node4</title>
<g id="a_Node000004"><a xlink:title=" ">
<polygon fill="white" stroke="transparent" points="234,-841 143,-841 143,-792 234,-792 234,-841"/>
<text text-anchor="start" x="148.5" y="-828.5" font-family="Ubuntu Mono" font-size="10.00">std::vector&lt; T &gt;</text>
<text text-anchor="start" x="187" y="-813.5" font-family="Ubuntu Mono" font-size="10.00"> </text>
<text text-anchor="start" x="187" y="-798.5" font-family="Ubuntu Mono" font-size="10.00"> </text>
<polygon fill="#666666" stroke="#666666" points="143.5,-823.5 143.5,-823.5 234.5,-823.5 234.5,-823.5 143.5,-823.5"/>
<polygon fill="#666666" stroke="#666666" points="143.5,-808.5 143.5,-808.5 234.5,-808.5 234.5,-808.5 143.5,-808.5"/>
<polygon fill="none" stroke="#666666" points="143,-792 143,-841 234,-841 234,-792 143,-792"/>
</a>
</g>
</g>
<!-- Node4&#45;&gt;Node3 -->
<g id="edge3_Node000003_Node000004" class="edge">
<title>Node4&#45;&gt;Node3</title>
<g id="a_edge3_Node000003_Node000004"><a xlink:title=" ">
<path fill="none" stroke="orange" d="M188.5,-781.37C188.5,-730.11 188.5,-634.12 188.5,-585.83"/>
<polygon fill="orange" stroke="orange" points="185,-781.6 188.5,-791.6 192,-781.6 185,-781.6"/>
</a>
</g>
<text text-anchor="middle" x="231.5" y="-766" font-family="Ubuntu Mono" font-size="10.00" fill="grey"> &lt; unsigned int &gt;</text>
</g>
<!-- Node5 -->
<g id="Node000005" class="node">
<title>Node5</title>
<g id="a_Node000005"><a xlink:title=" ">
<polygon fill="white" stroke="transparent" points="197,-937 180,-937 180,-888 197,-888 197,-937"/>
<text text-anchor="start" x="185.5" y="-924.5" font-family="Ubuntu Mono" font-size="10.00">T</text>
<text text-anchor="start" x="187" y="-909.5" font-family="Ubuntu Mono" font-size="10.00"> </text>
<text text-anchor="start" x="187" y="-894.5" font-family="Ubuntu Mono" font-size="10.00"> </text>
<polygon fill="#666666" stroke="#666666" points="180.5,-919.5 180.5,-919.5 197.5,-919.5 197.5,-919.5 180.5,-919.5"/>
<polygon fill="#666666" stroke="#666666" points="180.5,-904.5 180.5,-904.5 197.5,-904.5 197.5,-904.5 180.5,-904.5"/>
<polygon fill="none" stroke="#666666" points="180,-888 180,-937 197,-937 197,-888 180,-888"/>
</a>
</g>
</g>
<!-- Node5&#45;&gt;Node4 -->
<g id="edge4_Node000004_Node000005" class="edge">
<title>Node5&#45;&gt;Node4</title>
<g id="a_edge4_Node000004_Node000005"><a xlink:title=" ">
<path fill="none" stroke="#63b8ff" d="M188.5,-887.78C188.5,-877.32 188.5,-864.79 188.5,-853.23"/>
<polygon fill="none" stroke="#63b8ff" points="188.5,-853.21 184.5,-847.21 188.5,-841.21 192.5,-847.21 188.5,-853.21"/>
</a>
</g>
<text text-anchor="middle" x="217.5" y="-862" font-family="Ubuntu Mono" font-size="10.00" fill="grey"> +elements</text>
</g>
<!-- Node6 -->
<g id="Node000006" class="node">
<title>Node6</title>
<g id="a_Node000006"><a xlink:href="classId.html" target="_top" xlink:title=" ">
<polygon fill="white" stroke="transparent" points="377.5,-745 265.5,-745 265.5,-366 377.5,-366 377.5,-745"/>
<text text-anchor="start" x="316.5" y="-732.5" font-family="Ubuntu Mono" font-size="10.00">Id</text>
<text text-anchor="start" x="272" y="-717.5" font-family="Ubuntu Mono" font-size="10.00">&#45;</text>
<text text-anchor="start" x="282.5" y="-717.5" font-family="Ubuntu Mono" font-size="10.00">id_</text>
<text text-anchor="start" x="269.5" y="-702.5" font-family="Ubuntu Mono" font-size="10.00">+</text>
<text text-anchor="start" x="282.5" y="-702.5" font-family="Ubuntu Mono" font-size="10.00">bindIdToElement()</text>
<text text-anchor="start" x="269.5" y="-687.5" font-family="Ubuntu Mono" font-size="10.00">+</text>
<text text-anchor="start" x="282.5" y="-687.5" font-family="Ubuntu Mono" font-size="10.00">destroy()</text>
<text text-anchor="start" x="269.5" y="-672.5" font-family="Ubuntu Mono" font-size="10.00">+</text>
<text text-anchor="start" x="282.5" y="-672.5" font-family="Ubuntu Mono" font-size="10.00">element()</text>
<text text-anchor="start" x="269.5" y="-657.5" font-family="Ubuntu Mono" font-size="10.00">+</text>
<text text-anchor="start" x="282.5" y="-657.5" font-family="Ubuntu Mono" font-size="10.00">eref()</text>
<text text-anchor="start" x="269.5" y="-642.5" font-family="Ubuntu Mono" font-size="10.00">+</text>
<text text-anchor="start" x="282.5" y="-642.5" font-family="Ubuntu Mono" font-size="10.00">Id()</text>
<text text-anchor="start" x="269.5" y="-627.5" font-family="Ubuntu Mono" font-size="10.00">+</text>
<text text-anchor="start" x="282.5" y="-627.5" font-family="Ubuntu Mono" font-size="10.00">Id()</text>
<text text-anchor="start" x="269.5" y="-612.5" font-family="Ubuntu Mono" font-size="10.00">+</text>
<text text-anchor="start" x="282.5" y="-612.5" font-family="Ubuntu Mono" font-size="10.00">Id()</text>
<text text-anchor="start" x="269.5" y="-597.5" font-family="Ubuntu Mono" font-size="10.00">+</text>
<text text-anchor="start" x="282.5" y="-597.5" font-family="Ubuntu Mono" font-size="10.00">Id()</text>
<text text-anchor="start" x="269.5" y="-582.5" font-family="Ubuntu Mono" font-size="10.00">+</text>
<text text-anchor="start" x="282.5" y="-582.5" font-family="Ubuntu Mono" font-size="10.00">operator!=()</text>
<text text-anchor="start" x="269.5" y="-567.5" font-family="Ubuntu Mono" font-size="10.00">+</text>
<text text-anchor="start" x="282.5" y="-567.5" font-family="Ubuntu Mono" font-size="10.00">operator&lt;()</text>
<text text-anchor="start" x="269.5" y="-552.5" font-family="Ubuntu Mono" font-size="10.00">+</text>
<text text-anchor="start" x="282.5" y="-552.5" font-family="Ubuntu Mono" font-size="10.00">operator==()</text>
<text text-anchor="start" x="269.5" y="-537.5" font-family="Ubuntu Mono" font-size="10.00">+</text>
<text text-anchor="start" x="282.5" y="-537.5" font-family="Ubuntu Mono" font-size="10.00">path()</text>
<text text-anchor="start" x="269.5" y="-522.5" font-family="Ubuntu Mono" font-size="10.00">+</text>
<text text-anchor="start" x="282.5" y="-522.5" font-family="Ubuntu Mono" font-size="10.00">value()</text>
<text text-anchor="start" x="269.5" y="-507.5" font-family="Ubuntu Mono" font-size="10.00">+</text>
<text text-anchor="start" x="282.5" y="-507.5" font-family="Ubuntu Mono" font-size="10.00">zeroOut()</text>
<text text-anchor="start" x="269.5" y="-492.5" font-family="Ubuntu Mono" font-size="10.00">+</text>
<text text-anchor="start" x="282.5" y="-492.5" font-family="Ubuntu Mono" font-size="10.00">~Id()</text>
<text text-anchor="start" x="269.5" y="-477.5" font-family="Ubuntu Mono" font-size="10.00">+</text>
<text text-anchor="start" x="282.5" y="-477.5" font-family="Ubuntu Mono" font-size="10.00">clearAllElements()</text>
<text text-anchor="start" x="269.5" y="-462.5" font-family="Ubuntu Mono" font-size="10.00">+</text>
<text text-anchor="start" x="282.5" y="-462.5" font-family="Ubuntu Mono" font-size="10.00">id2str()</text>
<text text-anchor="start" x="269.5" y="-447.5" font-family="Ubuntu Mono" font-size="10.00">+</text>
<text text-anchor="start" x="282.5" y="-447.5" font-family="Ubuntu Mono" font-size="10.00">isValid()</text>
<text text-anchor="start" x="269.5" y="-432.5" font-family="Ubuntu Mono" font-size="10.00">+</text>
<text text-anchor="start" x="282.5" y="-432.5" font-family="Ubuntu Mono" font-size="10.00">isValid()</text>
<text text-anchor="start" x="269.5" y="-417.5" font-family="Ubuntu Mono" font-size="10.00">+</text>
<text text-anchor="start" x="282.5" y="-417.5" font-family="Ubuntu Mono" font-size="10.00">nextId()</text>
<text text-anchor="start" x="269.5" y="-402.5" font-family="Ubuntu Mono" font-size="10.00">+</text>
<text text-anchor="start" x="282.5" y="-402.5" font-family="Ubuntu Mono" font-size="10.00">numIds()</text>
<text text-anchor="start" x="269.5" y="-387.5" font-family="Ubuntu Mono" font-size="10.00">+</text>
<text text-anchor="start" x="282.5" y="-387.5" font-family="Ubuntu Mono" font-size="10.00">str2Id()</text>
<text text-anchor="start" x="272" y="-372.5" font-family="Ubuntu Mono" font-size="10.00">&#45;</text>
<text text-anchor="start" x="282.5" y="-372.5" font-family="Ubuntu Mono" font-size="10.00">elements()</text>
<polygon fill="#666666" stroke="#666666" points="265.5,-727.5 265.5,-727.5 377.5,-727.5 377.5,-727.5 265.5,-727.5"/>
<polygon fill="#666666" stroke="#666666" points="265.5,-712.5 265.5,-712.5 280.5,-712.5 280.5,-712.5 265.5,-712.5"/>
<polygon fill="#666666" stroke="#666666" points="280.5,-712.5 280.5,-712.5 377.5,-712.5 377.5,-712.5 280.5,-712.5"/>
<polygon fill="none" stroke="#666666" points="265.5,-366 265.5,-745 377.5,-745 377.5,-366 265.5,-366"/>
</a>
</g>
</g>
<!-- Node6&#45;&gt;Node1 -->
<g id="edge5_Node000001_Node000006" class="edge">
<title>Node6&#45;&gt;Node1</title>
<g id="a_edge5_Node000001_Node000006"><a xlink:title=" ">
<path fill="none" stroke="#63b8ff" d="M265.48,-388.55C259.01,-369.39 252.41,-349.83 245.92,-330.61"/>
<polygon fill="none" stroke="#63b8ff" points="245.85,-330.39 240.14,-325.99 242.01,-319.02 247.72,-323.43 245.85,-330.39"/>
</a>
</g>
<text text-anchor="middle" x="283" y="-340" font-family="Ubuntu Mono" font-size="10.00" fill="grey"> &#45;elecCompt_</text>
</g>
</g>
</svg>

<g id="navigator" transform="translate(0 0)" fill="#404254">
  <rect fill="#f2f5e9" fill-opacity="0.5" stroke="#606060" stroke-width=".5" x="0" y="0" width="60" height="60"/>
  <use id="zoomplus" xlink:href="#zoomPlus" x="17" y="9" onmousedown="handleZoom(evt,'in')"/>
  <use id="zoomminus" xlink:href="#zoomMin" x="42" y="9" onmousedown="handleZoom(evt,'out')"/>
  <use id="reset" xlink:href="#resetDef" x="30" y="36" onmousedown="handleReset()"/>
   <use id="arrowup" xlink:href="#arrowUp" x="0" y="0" onmousedown="handlePan(0,-1)"/>
  <use id="arrowright" xlink:href="#arrowRight" x="0" y="0" onmousedown="handlePan(1,0)"/>
  <use id="arrowdown" xlink:href="#arrowDown" x="0" y="0" onmousedown="handlePan(0,1)"/>
  <use id="arrowleft" xlink:href="#arrowLeft" x="0" y="0" onmousedown="handlePan(-1,0)"/>
</g>
<svg viewBox="0 0 15 15" width="100%" height="30px" preserveAspectRatio="xMaxYMin meet">
 <g id="arrow_out" transform="scale(0.3 0.3)">
  <a xlink:href="classNeuroNode__coll__graph_org.svg" target="_base">
   <rect id="button" ry="5" rx="5" y="6" x="6" height="38" width="38"
        fill="#f2f5e9" fill-opacity="0.5" stroke="#606060" stroke-width="1.0"/>
   <path id="arrow"
     d="M 11.500037,31.436501 C 11.940474,20.09759 22.043105,11.32322 32.158766,21.979434 L 37.068811,17.246167 C 37.068811,17.246167 37.088388,32 37.088388,32 L 22.160133,31.978069 C 22.160133,31.978069 26.997745,27.140456 26.997745,27.140456 C 18.528582,18.264221 13.291696,25.230495 11.500037,31.436501 z"
     style="fill:#404040;"/>
  </a>
 </g>
</svg>

<style type='text/css'>
<![CDATA[
[data-mouse-over-selected='false'] { opacity: 0.7; }
[data-mouse-over-selected='true']  { opacity: 1.0; }
]]>
</style>
<script type="application/ecmascript"><![CDATA[
document.addEventListener('DOMContentLoaded', (event) => {
  highlightEdges();
  highlightAdjacentNodes();
});
]]></script>
</svg>
