<?xml version="1.0" encoding="UTF-8" standalone="no"?>
<!DOCTYPE svg PUBLIC "-//W3C//DTD SVG 1.1//EN"
 "http://www.w3.org/Graphics/SVG/1.1/DTD/svg11.dtd">
<!-- Generated by graphviz version 2.43.0 (0)
 -->
<!-- Title: SynChan Pages: 1 -->
<!--zoomable 1482 -->

<svg id="main" version="1.1" xmlns="http://www.w3.org/2000/svg" xmlns:xlink="http://www.w3.org/1999/xlink" xml:space="preserve" onload="init(evt)">
<style type="text/css"><![CDATA[
.node, .edge {opacity: 0.7;}
.node.selected, .edge.selected {opacity: 1;}
.edge:hover path { stroke: red; }
.edge:hover polygon { stroke: red; fill: red; }
]]></style>

<defs>
  <circle id="rim" cx="0" cy="0" r="7"/>
  <circle id="rim2" cx="0" cy="0" r="3.5"/>
  <g id="zoomPlus">
    <use xlink:href="#rim" fill="#404040"><set attributeName="fill" to="#808080" begin="zoomplus.mouseover" end="zoomplus.mouseout"/></use>
    <path d="M-4,0h8M0,-4v8" fill="none" stroke="white" stroke-width="1.5" pointer-events="none"/>
  </g>
  <g id="zoomMin">
    <use xlink:href="#rim" fill="#404040"><set attributeName="fill" to="#808080" begin="zoomminus.mouseover" end="zoomminus.mouseout"/></use>
    <path d="M-4,0h8" fill="none" stroke="white" stroke-width="1.5" pointer-events="none"/>
  </g>
  <g id="arrowUp" transform="translate(30 24)">
    <use xlink:href="#rim"/>
    <path pointer-events="none" fill="none" stroke="white" stroke-width="1.5" d="M0,-3.0v7 M-2.5,-0.5L0,-3.0L2.5,-0.5"/>
  </g>
  <g id="arrowRight" transform="rotate(90) translate(36 -43)">
    <use xlink:href="#rim"/>
    <path pointer-events="none" fill="none" stroke="white" stroke-width="1.5" d="M0,-3.0v7 M-2.5,-0.5L0,-3.0L2.5,-0.5"/>
  </g>
  <g id="arrowDown" transform="rotate(180) translate(-30 -48)">
    <use xlink:href="#rim"/>
    <path pointer-events="none" fill="none" stroke="white" stroke-width="1.5" d="M0,-3.0v7 M-2.5,-0.5L0,-3.0L2.5,-0.5"/>
  </g>
  <g id="arrowLeft" transform="rotate(270) translate(-36 17)">
    <use xlink:href="#rim"/>
    <path pointer-events="none" fill="none" stroke="white" stroke-width="1.5" d="M0,-3.0v7 M-2.5,-0.5L0,-3.0L2.5,-0.5"/>
  </g>
  <g id="resetDef">
    <use xlink:href="#rim2" fill="#404040"><set attributeName="fill" to="#808080" begin="reset.mouseover" end="reset.mouseout"/></use>
  </g>
</defs>
<script type="application/ecmascript">
var viewWidth = 142;
var viewHeight = 1482;
var sectionId = 'dynsection-0';
</script>
<script type="application/ecmascript" xlink:href="svg.min.js"/>
<svg id="graph" class="graph">
<g id="viewport">
<title>SynChan</title>
<!-- Node1 -->
<g id="Node000001" class="node">
<title>Node1</title>
<g id="a_Node000001"><a xlink:title=" ">
<polygon fill="#999999" stroke="transparent" points="134,-839 0,-839 0,-415 134,-415 134,-839"/>
<text text-anchor="start" x="45.5" y="-827" font-family="Ubuntu Mono" font-size="10.00">SynChan</text>
<text text-anchor="start" x="4" y="-812" font-family="Ubuntu Mono" font-size="10.00">#</text>
<text text-anchor="start" x="17" y="-812" font-family="Ubuntu Mono" font-size="10.00">activation_</text>
<text text-anchor="start" x="4" y="-797" font-family="Ubuntu Mono" font-size="10.00">#</text>
<text text-anchor="start" x="17" y="-797" font-family="Ubuntu Mono" font-size="10.00">dt_</text>
<text text-anchor="start" x="4" y="-782" font-family="Ubuntu Mono" font-size="10.00">#</text>
<text text-anchor="start" x="17" y="-782" font-family="Ubuntu Mono" font-size="10.00">norm_</text>
<text text-anchor="start" x="4" y="-767" font-family="Ubuntu Mono" font-size="10.00">#</text>
<text text-anchor="start" x="17" y="-767" font-family="Ubuntu Mono" font-size="10.00">normalizeWeights_</text>
<text text-anchor="start" x="4" y="-752" font-family="Ubuntu Mono" font-size="10.00">#</text>
<text text-anchor="start" x="17" y="-752" font-family="Ubuntu Mono" font-size="10.00">tau1_</text>
<text text-anchor="start" x="4" y="-737" font-family="Ubuntu Mono" font-size="10.00">#</text>
<text text-anchor="start" x="17" y="-737" font-family="Ubuntu Mono" font-size="10.00">tau2_</text>
<text text-anchor="start" x="4" y="-722" font-family="Ubuntu Mono" font-size="10.00">#</text>
<text text-anchor="start" x="17" y="-722" font-family="Ubuntu Mono" font-size="10.00">X_</text>
<text text-anchor="start" x="4" y="-707" font-family="Ubuntu Mono" font-size="10.00">#</text>
<text text-anchor="start" x="17" y="-707" font-family="Ubuntu Mono" font-size="10.00">xconst1_</text>
<text text-anchor="start" x="4" y="-692" font-family="Ubuntu Mono" font-size="10.00">#</text>
<text text-anchor="start" x="17" y="-692" font-family="Ubuntu Mono" font-size="10.00">xconst2_</text>
<text text-anchor="start" x="4" y="-677" font-family="Ubuntu Mono" font-size="10.00">#</text>
<text text-anchor="start" x="17" y="-677" font-family="Ubuntu Mono" font-size="10.00">Y_</text>
<text text-anchor="start" x="4" y="-662" font-family="Ubuntu Mono" font-size="10.00">#</text>
<text text-anchor="start" x="17" y="-662" font-family="Ubuntu Mono" font-size="10.00">yconst1_</text>
<text text-anchor="start" x="4" y="-647" font-family="Ubuntu Mono" font-size="10.00">#</text>
<text text-anchor="start" x="17" y="-647" font-family="Ubuntu Mono" font-size="10.00">yconst2_</text>
<text text-anchor="start" x="4" y="-632" font-family="Ubuntu Mono" font-size="10.00">+</text>
<text text-anchor="start" x="17" y="-632" font-family="Ubuntu Mono" font-size="10.00">activation()</text>
<text text-anchor="start" x="4" y="-617" font-family="Ubuntu Mono" font-size="10.00">+</text>
<text text-anchor="start" x="17" y="-617" font-family="Ubuntu Mono" font-size="10.00">calcGk()</text>
<text text-anchor="start" x="4" y="-602" font-family="Ubuntu Mono" font-size="10.00">+</text>
<text text-anchor="start" x="17" y="-602" font-family="Ubuntu Mono" font-size="10.00">getNormalizeWeights()</text>
<text text-anchor="start" x="4" y="-587" font-family="Ubuntu Mono" font-size="10.00">+</text>
<text text-anchor="start" x="17" y="-587" font-family="Ubuntu Mono" font-size="10.00">getTau1()</text>
<text text-anchor="start" x="4" y="-572" font-family="Ubuntu Mono" font-size="10.00">+</text>
<text text-anchor="start" x="17" y="-572" font-family="Ubuntu Mono" font-size="10.00">getTau2()</text>
<text text-anchor="start" x="4" y="-557" font-family="Ubuntu Mono" font-size="10.00">+</text>
<text text-anchor="start" x="17" y="-557" font-family="Ubuntu Mono" font-size="10.00">normalizeGbar()</text>
<text text-anchor="start" x="4" y="-542" font-family="Ubuntu Mono" font-size="10.00">+</text>
<text text-anchor="start" x="17" y="-542" font-family="Ubuntu Mono" font-size="10.00">setNormalizeWeights()</text>
<text text-anchor="start" x="4" y="-527" font-family="Ubuntu Mono" font-size="10.00">+</text>
<text text-anchor="start" x="17" y="-527" font-family="Ubuntu Mono" font-size="10.00">setTau1()</text>
<text text-anchor="start" x="4" y="-512" font-family="Ubuntu Mono" font-size="10.00">+</text>
<text text-anchor="start" x="17" y="-512" font-family="Ubuntu Mono" font-size="10.00">setTau2()</text>
<text text-anchor="start" x="4" y="-497" font-family="Ubuntu Mono" font-size="10.00">+</text>
<text text-anchor="start" x="17" y="-497" font-family="Ubuntu Mono" font-size="10.00">SynChan()</text>
<text text-anchor="start" x="4" y="-482" font-family="Ubuntu Mono" font-size="10.00">+</text>
<text text-anchor="start" x="17" y="-482" font-family="Ubuntu Mono" font-size="10.00">vProcess()</text>
<text text-anchor="start" x="4" y="-467" font-family="Ubuntu Mono" font-size="10.00">+</text>
<text text-anchor="start" x="17" y="-467" font-family="Ubuntu Mono" font-size="10.00">vReinit()</text>
<text text-anchor="start" x="4" y="-452" font-family="Ubuntu Mono" font-size="10.00">+</text>
<text text-anchor="start" x="17" y="-452" font-family="Ubuntu Mono" font-size="10.00">vSetGbar()</text>
<text text-anchor="start" x="4" y="-437" font-family="Ubuntu Mono" font-size="10.00">+</text>
<text text-anchor="start" x="17" y="-437" font-family="Ubuntu Mono" font-size="10.00">~SynChan()</text>
<text text-anchor="start" x="4" y="-422" font-family="Ubuntu Mono" font-size="10.00">+</text>
<text text-anchor="start" x="17" y="-422" font-family="Ubuntu Mono" font-size="10.00">initCinfo()</text>
<polygon fill="#666666" stroke="#666666" points="0,-822 0,-822 134,-822 134,-822 0,-822"/>
<polygon fill="#666666" stroke="#666666" points="0,-642 0,-642 15,-642 15,-642 0,-642"/>
<polygon fill="#666666" stroke="#666666" points="15,-642 15,-642 134,-642 134,-642 15,-642"/>
<polygon fill="none" stroke="#666666" points="0,-415 0,-839 134,-839 134,-415 0,-415"/>
</a>
</g>
</g>
<!-- Node4 -->
<g id="Node000004" class="node">
<title>Node4</title>
<g id="a_Node000004"><a xlink:href="classNMDAChan.html" target="_top" xlink:title=" ">
<polygon fill="white" stroke="transparent" points="121.5,-379 12.5,-379 12.5,0 121.5,0 121.5,-379"/>
<text text-anchor="start" x="39.5" y="-366.5" font-family="Ubuntu Mono" font-size="10.00">NMDAChan</text>
<text text-anchor="start" x="19.5" y="-351.5" font-family="Ubuntu Mono" font-size="10.00">&#45;</text>
<text text-anchor="start" x="30" y="-351.5" font-family="Ubuntu Mono" font-size="10.00">Cin_</text>
<text text-anchor="start" x="19.5" y="-336.5" font-family="Ubuntu Mono" font-size="10.00">&#45;</text>
<text text-anchor="start" x="30" y="-336.5" font-family="Ubuntu Mono" font-size="10.00">CMg_</text>
<text text-anchor="start" x="19.5" y="-321.5" font-family="Ubuntu Mono" font-size="10.00">&#45;</text>
<text text-anchor="start" x="30" y="-321.5" font-family="Ubuntu Mono" font-size="10.00">condFraction_</text>
<text text-anchor="start" x="19.5" y="-306.5" font-family="Ubuntu Mono" font-size="10.00">&#45;</text>
<text text-anchor="start" x="30" y="-306.5" font-family="Ubuntu Mono" font-size="10.00">const_</text>
<text text-anchor="start" x="19.5" y="-291.5" font-family="Ubuntu Mono" font-size="10.00">&#45;</text>
<text text-anchor="start" x="30" y="-291.5" font-family="Ubuntu Mono" font-size="10.00">Cout_</text>
<text text-anchor="start" x="19.5" y="-276.5" font-family="Ubuntu Mono" font-size="10.00">&#45;</text>
<text text-anchor="start" x="30" y="-276.5" font-family="Ubuntu Mono" font-size="10.00">ICa_</text>
<text text-anchor="start" x="19.5" y="-261.5" font-family="Ubuntu Mono" font-size="10.00">&#45;</text>
<text text-anchor="start" x="30" y="-261.5" font-family="Ubuntu Mono" font-size="10.00">intCaOffset_</text>
<text text-anchor="start" x="19.5" y="-246.5" font-family="Ubuntu Mono" font-size="10.00">&#45;</text>
<text text-anchor="start" x="30" y="-246.5" font-family="Ubuntu Mono" font-size="10.00">intCaScale_</text>
<text text-anchor="start" x="19.5" y="-231.5" font-family="Ubuntu Mono" font-size="10.00">&#45;</text>
<text text-anchor="start" x="30" y="-231.5" font-family="Ubuntu Mono" font-size="10.00">KMg_A_</text>
<text text-anchor="start" x="19.5" y="-216.5" font-family="Ubuntu Mono" font-size="10.00">&#45;</text>
<text text-anchor="start" x="30" y="-216.5" font-family="Ubuntu Mono" font-size="10.00">KMg_B_</text>
<text text-anchor="start" x="19.5" y="-201.5" font-family="Ubuntu Mono" font-size="10.00">&#45;</text>
<text text-anchor="start" x="30" y="-201.5" font-family="Ubuntu Mono" font-size="10.00">temperature_</text>
<text text-anchor="start" x="19.5" y="-186.5" font-family="Ubuntu Mono" font-size="10.00">&#45;</text>
<text text-anchor="start" x="30" y="-186.5" font-family="Ubuntu Mono" font-size="10.00">valency_</text>
<text text-anchor="start" x="17" y="-171.5" font-family="Ubuntu Mono" font-size="10.00">+</text>
<text text-anchor="start" x="30" y="-171.5" font-family="Ubuntu Mono" font-size="10.00">assignIntCa()</text>
<text text-anchor="start" x="17" y="-156.5" font-family="Ubuntu Mono" font-size="10.00">+</text>
<text text-anchor="start" x="30" y="-156.5" font-family="Ubuntu Mono" font-size="10.00">getCMg()</text>
<text text-anchor="start" x="17" y="-141.5" font-family="Ubuntu Mono" font-size="10.00">+</text>
<text text-anchor="start" x="30" y="-141.5" font-family="Ubuntu Mono" font-size="10.00">getCondFraction()</text>
<text text-anchor="start" x="17" y="-126.5" font-family="Ubuntu Mono" font-size="10.00">+</text>
<text text-anchor="start" x="30" y="-126.5" font-family="Ubuntu Mono" font-size="10.00">getExtCa()</text>
<text text-anchor="start" x="17" y="-111.5" font-family="Ubuntu Mono" font-size="10.00">+</text>
<text text-anchor="start" x="30" y="-111.5" font-family="Ubuntu Mono" font-size="10.00">getICa()</text>
<text text-anchor="start" x="17" y="-96.5" font-family="Ubuntu Mono" font-size="10.00">+</text>
<text text-anchor="start" x="30" y="-96.5" font-family="Ubuntu Mono" font-size="10.00">getIntCa()</text>
<text text-anchor="start" x="17" y="-81.5" font-family="Ubuntu Mono" font-size="10.00">+</text>
<text text-anchor="start" x="30" y="-81.5" font-family="Ubuntu Mono" font-size="10.00">getIntCaOffset()</text>
<text text-anchor="start" x="17" y="-66.5" font-family="Ubuntu Mono" font-size="10.00">+</text>
<text text-anchor="start" x="30" y="-66.5" font-family="Ubuntu Mono" font-size="10.00">getIntCaScale()</text>
<text text-anchor="start" x="17" y="-51.5" font-family="Ubuntu Mono" font-size="10.00">+</text>
<text text-anchor="start" x="30" y="-51.5" font-family="Ubuntu Mono" font-size="10.00">getKMg_A()</text>
<text text-anchor="start" x="17" y="-36.5" font-family="Ubuntu Mono" font-size="10.00">+</text>
<text text-anchor="start" x="30" y="-36.5" font-family="Ubuntu Mono" font-size="10.00">getKMg_B()</text>
<text text-anchor="start" x="30" y="-21.5" font-family="Ubuntu Mono" font-size="10.00">and 16 more...</text>
<text text-anchor="start" x="17" y="-6.5" font-family="Ubuntu Mono" font-size="10.00">+</text>
<text text-anchor="start" x="30" y="-6.5" font-family="Ubuntu Mono" font-size="10.00">initCinfo()</text>
<polygon fill="#666666" stroke="#666666" points="13,-361.5 13,-361.5 122,-361.5 122,-361.5 13,-361.5"/>
<polygon fill="#666666" stroke="#666666" points="13,-181.5 13,-181.5 28,-181.5 28,-181.5 13,-181.5"/>
<polygon fill="#666666" stroke="#666666" points="28,-181.5 28,-181.5 122,-181.5 122,-181.5 28,-181.5"/>
<polygon fill="none" stroke="#666666" points="12.5,0 12.5,-379 121.5,-379 121.5,0 12.5,0"/>
</a>
</g>
</g>
<!-- Node1&#45;&gt;Node4 -->
<g id="edge3_Node000001_Node000004" class="edge">
<title>Node1&#45;&gt;Node4</title>
<g id="a_edge3_Node000001_Node000004"><a xlink:title=" ">
<path fill="none" stroke="#63b8ff" d="M67,-404.88C67,-396.3 67,-387.73 67,-379.22"/>
<polygon fill="none" stroke="#63b8ff" points="63.5,-404.95 67,-414.95 70.5,-404.95 63.5,-404.95"/>
</a>
</g>
</g>
<!-- Node2 -->
<g id="Node000002" class="node">
<title>Node2</title>
<g id="a_Node000002"><a xlink:href="classChanCommon.html" target="_top" xlink:title=" ">
<polygon fill="white" stroke="transparent" points="124.5,-1179 9.5,-1179 9.5,-875 124.5,-875 124.5,-1179"/>
<text text-anchor="start" x="32.5" y="-1167" font-family="Ubuntu Mono" font-size="10.00">ChanCommon</text>
<text text-anchor="start" x="14" y="-1152" font-family="Ubuntu Mono" font-size="10.00">#</text>
<text text-anchor="start" x="27" y="-1152" font-family="Ubuntu Mono" font-size="10.00">Vm_</text>
<text text-anchor="start" x="16.5" y="-1137" font-family="Ubuntu Mono" font-size="10.00">&#45;</text>
<text text-anchor="start" x="27" y="-1137" font-family="Ubuntu Mono" font-size="10.00">Ek_</text>
<text text-anchor="start" x="16.5" y="-1122" font-family="Ubuntu Mono" font-size="10.00">&#45;</text>
<text text-anchor="start" x="27" y="-1122" font-family="Ubuntu Mono" font-size="10.00">Gbar_</text>
<text text-anchor="start" x="16.5" y="-1107" font-family="Ubuntu Mono" font-size="10.00">&#45;</text>
<text text-anchor="start" x="27" y="-1107" font-family="Ubuntu Mono" font-size="10.00">Gk_</text>
<text text-anchor="start" x="16.5" y="-1092" font-family="Ubuntu Mono" font-size="10.00">&#45;</text>
<text text-anchor="start" x="27" y="-1092" font-family="Ubuntu Mono" font-size="10.00">Ik_</text>
<text text-anchor="start" x="16.5" y="-1077" font-family="Ubuntu Mono" font-size="10.00">&#45;</text>
<text text-anchor="start" x="27" y="-1077" font-family="Ubuntu Mono" font-size="10.00">modulation_</text>
<text text-anchor="start" x="14" y="-1062" font-family="Ubuntu Mono" font-size="10.00">+</text>
<text text-anchor="start" x="27" y="-1062" font-family="Ubuntu Mono" font-size="10.00">ChanCommon()</text>
<text text-anchor="start" x="14" y="-1047" font-family="Ubuntu Mono" font-size="10.00">+</text>
<text text-anchor="start" x="27" y="-1047" font-family="Ubuntu Mono" font-size="10.00">getGbar()</text>
<text text-anchor="start" x="14" y="-1032" font-family="Ubuntu Mono" font-size="10.00">+</text>
<text text-anchor="start" x="27" y="-1032" font-family="Ubuntu Mono" font-size="10.00">getVm()</text>
<text text-anchor="start" x="14" y="-1017" font-family="Ubuntu Mono" font-size="10.00">+</text>
<text text-anchor="start" x="27" y="-1017" font-family="Ubuntu Mono" font-size="10.00">sendProcessMsgs()</text>
<text text-anchor="start" x="14" y="-1002" font-family="Ubuntu Mono" font-size="10.00">+</text>
<text text-anchor="start" x="27" y="-1002" font-family="Ubuntu Mono" font-size="10.00">sendReinitMsgs()</text>
<text text-anchor="start" x="14" y="-987" font-family="Ubuntu Mono" font-size="10.00">+</text>
<text text-anchor="start" x="27" y="-987" font-family="Ubuntu Mono" font-size="10.00">updateIk()</text>
<text text-anchor="start" x="14" y="-972" font-family="Ubuntu Mono" font-size="10.00">+</text>
<text text-anchor="start" x="27" y="-972" font-family="Ubuntu Mono" font-size="10.00">vGetEk()</text>
<text text-anchor="start" x="14" y="-957" font-family="Ubuntu Mono" font-size="10.00">+</text>
<text text-anchor="start" x="27" y="-957" font-family="Ubuntu Mono" font-size="10.00">vGetGbar()</text>
<text text-anchor="start" x="14" y="-942" font-family="Ubuntu Mono" font-size="10.00">+</text>
<text text-anchor="start" x="27" y="-942" font-family="Ubuntu Mono" font-size="10.00">vGetGk()</text>
<text text-anchor="start" x="14" y="-927" font-family="Ubuntu Mono" font-size="10.00">+</text>
<text text-anchor="start" x="27" y="-927" font-family="Ubuntu Mono" font-size="10.00">vGetIk()</text>
<text text-anchor="start" x="27" y="-912" font-family="Ubuntu Mono" font-size="10.00">and 8 more...</text>
<text text-anchor="start" x="14" y="-897" font-family="Ubuntu Mono" font-size="10.00">+</text>
<text text-anchor="start" x="27" y="-897" font-family="Ubuntu Mono" font-size="10.00">initCinfo()</text>
<text text-anchor="start" x="14" y="-882" font-family="Ubuntu Mono" font-size="10.00">#</text>
<text text-anchor="start" x="27" y="-882" font-family="Ubuntu Mono" font-size="10.00">getModulation()</text>
<polygon fill="#666666" stroke="#666666" points="10,-1162 10,-1162 125,-1162 125,-1162 10,-1162"/>
<polygon fill="#666666" stroke="#666666" points="10,-1072 10,-1072 25,-1072 25,-1072 10,-1072"/>
<polygon fill="#666666" stroke="#666666" points="25,-1072 25,-1072 125,-1072 125,-1072 25,-1072"/>
<polygon fill="none" stroke="#666666" points="9.5,-875 9.5,-1179 124.5,-1179 124.5,-875 9.5,-875"/>
</a>
</g>
</g>
<!-- Node2&#45;&gt;Node1 -->
<g id="edge1_Node000001_Node000002" class="edge">
<title>Node2&#45;&gt;Node1</title>
<g id="a_edge1_Node000001_Node000002"><a xlink:title=" ">
<path fill="none" stroke="#63b8ff" d="M67,-864.71C67,-856.26 67,-847.71 67,-839.14"/>
<polygon fill="none" stroke="#63b8ff" points="63.5,-864.97 67,-874.97 70.5,-864.97 63.5,-864.97"/>
</a>
</g>
</g>
<!-- Node3 -->
<g id="Node000003" class="node">
<title>Node3</title>
<g id="a_Node000003"><a xlink:href="classChanBase.html" target="_top" xlink:title=" ">
<polygon fill="white" stroke="transparent" points="117,-1474 17,-1474 17,-1215 117,-1215 117,-1474"/>
<text text-anchor="start" x="42.5" y="-1461.5" font-family="Ubuntu Mono" font-size="10.00">ChanBase</text>
<text text-anchor="start" x="65" y="-1446.5" font-family="Ubuntu Mono" font-size="10.00"> </text>
<text text-anchor="start" x="21" y="-1431.5" font-family="Ubuntu Mono" font-size="10.00">+</text>
<text text-anchor="start" x="34" y="-1431.5" font-family="Ubuntu Mono" font-size="10.00">ChanBase()</text>
<text text-anchor="start" x="21" y="-1416.5" font-family="Ubuntu Mono" font-size="10.00">+</text>
<text text-anchor="start" x="34" y="-1416.5" font-family="Ubuntu Mono" font-size="10.00">getEk()</text>
<text text-anchor="start" x="21" y="-1401.5" font-family="Ubuntu Mono" font-size="10.00">+</text>
<text text-anchor="start" x="34" y="-1401.5" font-family="Ubuntu Mono" font-size="10.00">getGbar()</text>
<text text-anchor="start" x="21" y="-1386.5" font-family="Ubuntu Mono" font-size="10.00">+</text>
<text text-anchor="start" x="34" y="-1386.5" font-family="Ubuntu Mono" font-size="10.00">getGk()</text>
<text text-anchor="start" x="21" y="-1371.5" font-family="Ubuntu Mono" font-size="10.00">+</text>
<text text-anchor="start" x="34" y="-1371.5" font-family="Ubuntu Mono" font-size="10.00">getIk()</text>
<text text-anchor="start" x="21" y="-1356.5" font-family="Ubuntu Mono" font-size="10.00">+</text>
<text text-anchor="start" x="34" y="-1356.5" font-family="Ubuntu Mono" font-size="10.00">getModulation()</text>
<text text-anchor="start" x="21" y="-1341.5" font-family="Ubuntu Mono" font-size="10.00">+</text>
<text text-anchor="start" x="34" y="-1341.5" font-family="Ubuntu Mono" font-size="10.00">handleVm()</text>
<text text-anchor="start" x="21" y="-1326.5" font-family="Ubuntu Mono" font-size="10.00">+</text>
<text text-anchor="start" x="34" y="-1326.5" font-family="Ubuntu Mono" font-size="10.00">process()</text>
<text text-anchor="start" x="21" y="-1311.5" font-family="Ubuntu Mono" font-size="10.00">+</text>
<text text-anchor="start" x="34" y="-1311.5" font-family="Ubuntu Mono" font-size="10.00">reinit()</text>
<text text-anchor="start" x="21" y="-1296.5" font-family="Ubuntu Mono" font-size="10.00">+</text>
<text text-anchor="start" x="34" y="-1296.5" font-family="Ubuntu Mono" font-size="10.00">setEk()</text>
<text text-anchor="start" x="34" y="-1281.5" font-family="Ubuntu Mono" font-size="10.00">and 18 more...</text>
<text text-anchor="start" x="21" y="-1266.5" font-family="Ubuntu Mono" font-size="10.00">+</text>
<text text-anchor="start" x="34" y="-1266.5" font-family="Ubuntu Mono" font-size="10.00">channelOut()</text>
<text text-anchor="start" x="21" y="-1251.5" font-family="Ubuntu Mono" font-size="10.00">+</text>
<text text-anchor="start" x="34" y="-1251.5" font-family="Ubuntu Mono" font-size="10.00">IkOut()</text>
<text text-anchor="start" x="21" y="-1236.5" font-family="Ubuntu Mono" font-size="10.00">+</text>
<text text-anchor="start" x="34" y="-1236.5" font-family="Ubuntu Mono" font-size="10.00">initCinfo()</text>
<text text-anchor="start" x="21" y="-1221.5" font-family="Ubuntu Mono" font-size="10.00">+</text>
<text text-anchor="start" x="34" y="-1221.5" font-family="Ubuntu Mono" font-size="10.00">permeability()</text>
<polygon fill="#666666" stroke="#666666" points="17,-1456.5 17,-1456.5 117,-1456.5 117,-1456.5 17,-1456.5"/>
<polygon fill="#666666" stroke="#666666" points="17,-1441.5 17,-1441.5 117,-1441.5 117,-1441.5 17,-1441.5"/>
<polygon fill="none" stroke="#666666" points="17,-1215 17,-1474 117,-1474 117,-1215 17,-1215"/>
</a>
</g>
</g>
<!-- Node3&#45;&gt;Node2 -->
<g id="edge2_Node000002_Node000003" class="edge">
<title>Node3&#45;&gt;Node2</title>
<g id="a_edge2_Node000002_Node000003"><a xlink:title=" ">
<path fill="none" stroke="#63b8ff" d="M67,-1204.47C67,-1196.04 67,-1187.54 67,-1179.06"/>
<polygon fill="none" stroke="#63b8ff" points="63.5,-1204.72 67,-1214.72 70.5,-1204.72 63.5,-1204.72"/>
</a>
</g>
</g>
</g>
</svg>

<g id="navigator" transform="translate(0 0)" fill="#404254">
  <rect fill="#f2f5e9" fill-opacity="0.5" stroke="#606060" stroke-width=".5" x="0" y="0" width="60" height="60"/>
  <use id="zoomplus" xlink:href="#zoomPlus" x="17" y="9" onmousedown="handleZoom(evt,'in')"/>
  <use id="zoomminus" xlink:href="#zoomMin" x="42" y="9" onmousedown="handleZoom(evt,'out')"/>
  <use id="reset" xlink:href="#resetDef" x="30" y="36" onmousedown="handleReset()"/>
   <use id="arrowup" xlink:href="#arrowUp" x="0" y="0" onmousedown="handlePan(0,-1)"/>
  <use id="arrowright" xlink:href="#arrowRight" x="0" y="0" onmousedown="handlePan(1,0)"/>
  <use id="arrowdown" xlink:href="#arrowDown" x="0" y="0" onmousedown="handlePan(0,1)"/>
  <use id="arrowleft" xlink:href="#arrowLeft" x="0" y="0" onmousedown="handlePan(-1,0)"/>
</g>
<svg viewBox="0 0 15 15" width="100%" height="30px" preserveAspectRatio="xMaxYMin meet">
 <g id="arrow_out" transform="scale(0.3 0.3)">
  <a xlink:href="classSynChan__inherit__graph_org.svg" target="_base">
   <rect id="button" ry="5" rx="5" y="6" x="6" height="38" width="38"
        fill="#f2f5e9" fill-opacity="0.5" stroke="#606060" stroke-width="1.0"/>
   <path id="arrow"
     d="M 11.500037,31.436501 C 11.940474,20.09759 22.043105,11.32322 32.158766,21.979434 L 37.068811,17.246167 C 37.068811,17.246167 37.088388,32 37.088388,32 L 22.160133,31.978069 C 22.160133,31.978069 26.997745,27.140456 26.997745,27.140456 C 18.528582,18.264221 13.291696,25.230495 11.500037,31.436501 z"
     style="fill:#404040;"/>
  </a>
 </g>
</svg>

<style type='text/css'>
<![CDATA[
[data-mouse-over-selected='false'] { opacity: 0.7; }
[data-mouse-over-selected='true']  { opacity: 1.0; }
]]>
</style>
<script type="application/ecmascript"><![CDATA[
document.addEventListener('DOMContentLoaded', (event) => {
  highlightEdges();
  highlightAdjacentNodes();
});
]]></script>
</svg>
