<?xml version="1.0" encoding="UTF-8" standalone="no"?>
<!DOCTYPE svg PUBLIC "-//W3C//DTD SVG 1.1//EN"
 "http://www.w3.org/Graphics/SVG/1.1/DTD/svg11.dtd">
<!-- Generated by graphviz version 2.43.0 (0)
 -->
<!-- Title: HHChannelBase::getYpower Pages: 1 -->
<!--zoomable 175 -->

<svg id="main" version="1.1" xmlns="http://www.w3.org/2000/svg" xmlns:xlink="http://www.w3.org/1999/xlink" xml:space="preserve" onload="init(evt)">
<style type="text/css"><![CDATA[
.node, .edge {opacity: 0.7;}
.node.selected, .edge.selected {opacity: 1;}
.edge:hover path { stroke: red; }
.edge:hover polygon { stroke: red; fill: red; }
]]></style>

<defs>
  <circle id="rim" cx="0" cy="0" r="7"/>
  <circle id="rim2" cx="0" cy="0" r="3.5"/>
  <g id="zoomPlus">
    <use xlink:href="#rim" fill="#404040"><set attributeName="fill" to="#808080" begin="zoomplus.mouseover" end="zoomplus.mouseout"/></use>
    <path d="M-4,0h8M0,-4v8" fill="none" stroke="white" stroke-width="1.5" pointer-events="none"/>
  </g>
  <g id="zoomMin">
    <use xlink:href="#rim" fill="#404040"><set attributeName="fill" to="#808080" begin="zoomminus.mouseover" end="zoomminus.mouseout"/></use>
    <path d="M-4,0h8" fill="none" stroke="white" stroke-width="1.5" pointer-events="none"/>
  </g>
  <g id="arrowUp" transform="translate(30 24)">
    <use xlink:href="#rim"/>
    <path pointer-events="none" fill="none" stroke="white" stroke-width="1.5" d="M0,-3.0v7 M-2.5,-0.5L0,-3.0L2.5,-0.5"/>
  </g>
  <g id="arrowRight" transform="rotate(90) translate(36 -43)">
    <use xlink:href="#rim"/>
    <path pointer-events="none" fill="none" stroke="white" stroke-width="1.5" d="M0,-3.0v7 M-2.5,-0.5L0,-3.0L2.5,-0.5"/>
  </g>
  <g id="arrowDown" transform="rotate(180) translate(-30 -48)">
    <use xlink:href="#rim"/>
    <path pointer-events="none" fill="none" stroke="white" stroke-width="1.5" d="M0,-3.0v7 M-2.5,-0.5L0,-3.0L2.5,-0.5"/>
  </g>
  <g id="arrowLeft" transform="rotate(270) translate(-36 17)">
    <use xlink:href="#rim"/>
    <path pointer-events="none" fill="none" stroke="white" stroke-width="1.5" d="M0,-3.0v7 M-2.5,-0.5L0,-3.0L2.5,-0.5"/>
  </g>
  <g id="resetDef">
    <use xlink:href="#rim2" fill="#404040"><set attributeName="fill" to="#808080" begin="reset.mouseover" end="reset.mouseout"/></use>
  </g>
</defs>
<script type="application/ecmascript">
var viewWidth = 1075;
var viewHeight = 175;
var sectionId = 'dynsection-15';
</script>
<script type="application/ecmascript" xlink:href="svg.min.js"/>
<svg id="graph" class="graph">
<g id="viewport">
<title>HHChannelBase::getYpower</title>
<!-- Node1 -->
<g id="Node000001" class="node">
<title>Node1</title>
<g id="a_Node000001"><a xlink:title=" ">
<polygon fill="#999999" stroke="#666666" points="1067,-102 914,-102 914,-83 1067,-83 1067,-102"/>
<text text-anchor="middle" x="990.5" y="-90" font-family="Ubuntu Mono" font-size="10.00">HHChannelBase::getYpower</text>
</a>
</g>
</g>
<!-- Node2 -->
<g id="Node000002" class="node">
<title>Node2</title>
<g id="a_Node000002"><a xlink:href="classHHChannel2D.html#a5800af098b3e10bdf6563db3504e2cae" target="_top" xlink:title=" ">
<polygon fill="white" stroke="#666666" points="687,-167 555,-167 555,-148 687,-148 687,-167"/>
<text text-anchor="middle" x="621" y="-155" font-family="Ubuntu Mono" font-size="10.00">HHChannel2D::initCinfo</text>
</a>
</g>
</g>
<!-- Node1&#45;&gt;Node2 -->
<g id="edge1_Node000001_Node000002" class="edge">
<title>Node1&#45;&gt;Node2</title>
<g id="a_edge1_Node000001_Node000002"><a xlink:title=" ">
<path fill="none" stroke="#63b8ff" d="M925.56,-103.81C854.91,-116.31 742.36,-136.21 675.98,-147.95"/>
<polygon fill="#63b8ff" stroke="#63b8ff" points="926.43,-107.21 935.67,-102.02 925.21,-100.32 926.43,-107.21"/>
</a>
</g>
</g>
<!-- Node3 -->
<g id="Node000003" class="node">
<title>Node3</title>
<g id="a_Node000003"><a xlink:href="classHHChannelBase.html#a953c3941d807e2e680ddb5dcb62abb17" target="_top" xlink:title=" ">
<polygon fill="white" stroke="#666666" points="878,-102 735,-102 735,-83 878,-83 878,-102"/>
<text text-anchor="middle" x="806.5" y="-90" font-family="Ubuntu Mono" font-size="10.00">HHChannelBase::initCinfo</text>
</a>
</g>
</g>
<!-- Node1&#45;&gt;Node3 -->
<g id="edge2_Node000001_Node000003" class="edge">
<title>Node1&#45;&gt;Node3</title>
<g id="a_edge2_Node000001_Node000003"><a xlink:title=" ">
<path fill="none" stroke="#63b8ff" d="M903.86,-92.5C895.27,-92.5 886.61,-92.5 878.2,-92.5"/>
<polygon fill="#63b8ff" stroke="#63b8ff" points="903.9,-96 913.9,-92.5 903.9,-89 903.9,-96"/>
</a>
</g>
</g>
<!-- Node13 -->
<g id="Node000013" class="node">
<title>Node13</title>
<g id="a_Node000013"><a xlink:href="classHHChannelBase.html#a8a7d720cbe717c42de49cefeb599c89f" target="_top" xlink:title=" ">
<polygon fill="white" stroke="#666666" points="691,-19 551,-19 551,0 691,0 691,-19"/>
<text text-anchor="middle" x="621" y="-7" font-family="Ubuntu Mono" font-size="10.00">HHChannelBase::zombify</text>
</a>
</g>
</g>
<!-- Node1&#45;&gt;Node13 -->
<g id="edge13_Node000001_Node000013" class="edge">
<title>Node1&#45;&gt;Node13</title>
<g id="a_edge13_Node000001_Node000013"><a xlink:title=" ">
<path fill="none" stroke="#63b8ff" d="M937.4,-80.73C864.06,-64.17 731.8,-34.3 664.23,-19.04"/>
<polygon fill="#63b8ff" stroke="#63b8ff" points="936.82,-84.19 947.34,-82.98 938.36,-77.36 936.82,-84.19"/>
</a>
</g>
</g>
<!-- Node3&#45;&gt;Node2 -->
<g id="edge6_Node000003_Node000002" class="edge">
<title>Node3&#45;&gt;Node2</title>
<g id="a_edge6_Node000003_Node000002"><a xlink:title=" ">
<path fill="none" stroke="#63b8ff" d="M777.63,-106.51C756.46,-116.73 726.43,-130.33 699,-139.5 689.5,-142.68 679.15,-145.51 669.22,-147.93"/>
<polygon fill="#63b8ff" stroke="#63b8ff" points="779.24,-109.62 786.68,-102.09 776.16,-103.33 779.24,-109.62"/>
</a>
</g>
</g>
<!-- Node4 -->
<g id="Node000004" class="node">
<title>Node4</title>
<g id="a_Node000004"><a xlink:href="classHHChannel.html#a8b1b7177a3d0b0c06b671d9d1242a4ec" target="_top" xlink:title=" ">
<polygon fill="white" stroke="#666666" points="680.5,-130 561.5,-130 561.5,-111 680.5,-111 680.5,-130"/>
<text text-anchor="middle" x="621" y="-118" font-family="Ubuntu Mono" font-size="10.00">HHChannel::initCinfo</text>
</a>
</g>
</g>
<!-- Node3&#45;&gt;Node4 -->
<g id="edge3_Node000003_Node000004" class="edge">
<title>Node3&#45;&gt;Node4</title>
<g id="a_edge3_Node000003_Node000004"><a xlink:title=" ">
<path fill="none" stroke="#63b8ff" d="M733.05,-103.56C715.72,-106.2 697.43,-108.99 680.8,-111.53"/>
<polygon fill="#63b8ff" stroke="#63b8ff" points="733.76,-106.99 743.12,-102.02 732.71,-100.07 733.76,-106.99"/>
</a>
</g>
</g>
<!-- Node7 -->
<g id="Node000007" class="node">
<title>Node7</title>
<g id="a_Node000007"><a xlink:href="classHHChannelF.html#af43d8d675a9077568a5d4a0f8f1990b1" target="_top" xlink:title=" ">
<polygon fill="white" stroke="#666666" points="683,-93 559,-93 559,-74 683,-74 683,-93"/>
<text text-anchor="middle" x="621" y="-81" font-family="Ubuntu Mono" font-size="10.00">HHChannelF::initCinfo</text>
</a>
</g>
</g>
<!-- Node3&#45;&gt;Node7 -->
<g id="edge7_Node000003_Node000007" class="edge">
<title>Node3&#45;&gt;Node7</title>
<g id="a_edge7_Node000003_Node000007"><a xlink:title=" ">
<path fill="none" stroke="#63b8ff" d="M724.72,-88.54C710.75,-87.85 696.43,-87.15 683.08,-86.5"/>
<polygon fill="#63b8ff" stroke="#63b8ff" points="724.66,-92.04 734.82,-89.03 725,-85.05 724.66,-92.04"/>
</a>
</g>
</g>
<!-- Node8 -->
<g id="Node000008" class="node">
<title>Node8</title>
<g id="a_Node000008"><a xlink:href="classZombieHHChannel.html#a053651075b45b62fe292f13cf25cc4fa" target="_top" xlink:title=" ">
<polygon fill="white" stroke="#666666" points="699,-56 543,-56 543,-37 699,-37 699,-56"/>
<text text-anchor="middle" x="621" y="-44" font-family="Ubuntu Mono" font-size="10.00">ZombieHHChannel::initCinfo</text>
</a>
</g>
</g>
<!-- Node3&#45;&gt;Node8 -->
<g id="edge8_Node000003_Node000008" class="edge">
<title>Node3&#45;&gt;Node8</title>
<g id="a_edge8_Node000003_Node000008"><a xlink:title=" ">
<path fill="none" stroke="#63b8ff" d="M758.13,-80.42C739.68,-75.74 718.36,-70.34 699,-65.5 686.58,-62.39 673.02,-59.04 660.79,-56.02"/>
<polygon fill="#63b8ff" stroke="#63b8ff" points="757.5,-83.87 768.06,-82.95 759.23,-77.09 757.5,-83.87"/>
</a>
</g>
</g>
<!-- Node5 -->
<g id="Node000005" class="node">
<title>Node5</title>
<g id="a_Node000005"><a xlink:href="classHSolve.html#a423981576f253b33c6e9091cb3ae0ea6" target="_top" xlink:title=" ">
<polygon fill="white" stroke="#666666" points="507,-102 399,-102 399,-83 507,-83 507,-102"/>
<text text-anchor="middle" x="453" y="-90" font-family="Ubuntu Mono" font-size="10.00">HSolve::unzombify</text>
</a>
</g>
</g>
<!-- Node4&#45;&gt;Node5 -->
<g id="edge4_Node000004_Node000005" class="edge">
<title>Node4&#45;&gt;Node5</title>
<g id="a_edge4_Node000004_Node000005"><a xlink:title=" ">
<path fill="none" stroke="#63b8ff" d="M553.35,-109.26C537.96,-106.66 521.78,-103.93 507.05,-101.45"/>
<polygon fill="#63b8ff" stroke="#63b8ff" points="552.89,-112.73 563.34,-110.94 554.06,-105.83 552.89,-112.73"/>
</a>
</g>
</g>
<!-- Node6 -->
<g id="Node000006" class="node">
<title>Node6</title>
<g id="a_Node000006"><a xlink:href="classHSolve.html#a1fadf7cb757bf5669e45b6a95433e1ee" target="_top" xlink:title=" ">
<polygon fill="white" stroke="#666666" points="363,-102 263,-102 263,-83 363,-83 363,-102"/>
<text text-anchor="middle" x="313" y="-90" font-family="Ubuntu Mono" font-size="10.00">HSolve::~HSolve</text>
</a>
</g>
</g>
<!-- Node5&#45;&gt;Node6 -->
<g id="edge5_Node000005_Node000006" class="edge">
<title>Node5&#45;&gt;Node6</title>
<g id="a_edge5_Node000005_Node000006"><a xlink:title=" ">
<path fill="none" stroke="#63b8ff" d="M388.39,-92.5C379.91,-92.5 371.33,-92.5 363.15,-92.5"/>
<polygon fill="#63b8ff" stroke="#63b8ff" points="388.65,-96 398.65,-92.5 388.65,-89 388.65,-96"/>
</a>
</g>
</g>
<!-- Node9 -->
<g id="Node000009" class="node">
<title>Node9</title>
<g id="a_Node000009"><a xlink:href="classHSolve.html#aa86d341407e0eb9928b085c9df38b06c" target="_top" xlink:title=" ">
<polygon fill="white" stroke="#666666" points="501,-37 405,-37 405,-18 501,-18 501,-37"/>
<text text-anchor="middle" x="453" y="-25" font-family="Ubuntu Mono" font-size="10.00">HSolve::zombify</text>
</a>
</g>
</g>
<!-- Node8&#45;&gt;Node9 -->
<g id="edge9_Node000008_Node000009" class="edge">
<title>Node8&#45;&gt;Node9</title>
<g id="a_edge9_Node000008_Node000009"><a xlink:title=" ">
<path fill="none" stroke="#63b8ff" d="M532.81,-36.52C521.91,-35.27 511.11,-34.04 501.15,-32.9"/>
<polygon fill="#63b8ff" stroke="#63b8ff" points="532.5,-40.01 542.83,-37.67 533.29,-33.05 532.5,-40.01"/>
</a>
</g>
</g>
<!-- Node10 -->
<g id="Node000010" class="node">
<title>Node10</title>
<g id="a_Node000010"><a xlink:href="classHSolve.html#a2e768e9eb17b2c732c9129c018889f79" target="_top" xlink:title=" ">
<polygon fill="white" stroke="#666666" points="355,-37 271,-37 271,-18 355,-18 355,-37"/>
<text text-anchor="middle" x="313" y="-25" font-family="Ubuntu Mono" font-size="10.00">HSolve::setup</text>
</a>
</g>
</g>
<!-- Node9&#45;&gt;Node10 -->
<g id="edge10_Node000009_Node000010" class="edge">
<title>Node9&#45;&gt;Node10</title>
<g id="a_edge10_Node000009_Node000010"><a xlink:title=" ">
<path fill="none" stroke="#63b8ff" d="M394.52,-27.5C381.38,-27.5 367.66,-27.5 355.36,-27.5"/>
<polygon fill="#63b8ff" stroke="#63b8ff" points="394.89,-31 404.89,-27.5 394.89,-24 394.89,-31"/>
</a>
</g>
</g>
<!-- Node11 -->
<g id="Node000011" class="node">
<title>Node11</title>
<g id="a_Node000011"><a xlink:href="classHSolve.html#a4d36de840ae2ff289981e77f779eb9dc" target="_top" xlink:title=" ">
<polygon fill="white" stroke="#666666" points="227,-37 134,-37 134,-18 227,-18 227,-37"/>
<text text-anchor="middle" x="180.5" y="-25" font-family="Ubuntu Mono" font-size="10.00">HSolve::setPath</text>
</a>
</g>
</g>
<!-- Node10&#45;&gt;Node11 -->
<g id="edge11_Node000010_Node000011" class="edge">
<title>Node10&#45;&gt;Node11</title>
<g id="a_edge11_Node000010_Node000011"><a xlink:title=" ">
<path fill="none" stroke="#63b8ff" d="M260.71,-27.5C249.6,-27.5 237.92,-27.5 227.05,-27.5"/>
<polygon fill="#63b8ff" stroke="#63b8ff" points="260.71,-31 270.71,-27.5 260.71,-24 260.71,-31"/>
</a>
</g>
</g>
<!-- Node12 -->
<g id="Node000012" class="node">
<title>Node12</title>
<g id="a_Node000012"><a xlink:href="classHSolve.html#a3d60964bbc6441f73c04fe702faba848" target="_top" xlink:title="Interface to external channels.">
<polygon fill="white" stroke="#666666" points="98,-37 0,-37 0,-18 98,-18 98,-37"/>
<text text-anchor="middle" x="49" y="-25" font-family="Ubuntu Mono" font-size="10.00">HSolve::initCinfo</text>
</a>
</g>
</g>
<!-- Node11&#45;&gt;Node12 -->
<g id="edge12_Node000011_Node000012" class="edge">
<title>Node11&#45;&gt;Node12</title>
<g id="a_edge12_Node000011_Node000012"><a xlink:title=" ">
<path fill="none" stroke="#63b8ff" d="M123.68,-27.5C115.24,-27.5 106.59,-27.5 98.32,-27.5"/>
<polygon fill="#63b8ff" stroke="#63b8ff" points="123.84,-31 133.84,-27.5 123.84,-24 123.84,-31"/>
</a>
</g>
</g>
<!-- Node13&#45;&gt;Node5 -->
<g id="edge14_Node000013_Node000005" class="edge">
<title>Node13&#45;&gt;Node5</title>
<g id="a_edge14_Node000013_Node000005"><a xlink:title=" ">
<path fill="none" stroke="#63b8ff" d="M556.7,-22.1C551.99,-23.7 547.37,-25.49 543,-27.5 511.35,-42.02 479.72,-68.75 464.08,-82.99"/>
<polygon fill="#63b8ff" stroke="#63b8ff" points="557.95,-25.38 566.46,-19.07 555.87,-18.69 557.95,-25.38"/>
</a>
</g>
</g>
<!-- Node13&#45;&gt;Node9 -->
<g id="edge15_Node000013_Node000009" class="edge">
<title>Node13&#45;&gt;Node9</title>
<g id="a_edge15_Node000013_Node000009"><a xlink:title=" ">
<path fill="none" stroke="#63b8ff" d="M540.31,-18.14C526.85,-19.6 513.28,-21.07 501,-22.4"/>
<polygon fill="#63b8ff" stroke="#63b8ff" points="541,-21.59 550.56,-17.03 540.24,-14.63 541,-21.59"/>
</a>
</g>
</g>
</g>
</svg>

<g id="navigator" transform="translate(0 0)" fill="#404254">
  <rect fill="#f2f5e9" fill-opacity="0.5" stroke="#606060" stroke-width=".5" x="0" y="0" width="60" height="60"/>
  <use id="zoomplus" xlink:href="#zoomPlus" x="17" y="9" onmousedown="handleZoom(evt,'in')"/>
  <use id="zoomminus" xlink:href="#zoomMin" x="42" y="9" onmousedown="handleZoom(evt,'out')"/>
  <use id="reset" xlink:href="#resetDef" x="30" y="36" onmousedown="handleReset()"/>
   <use id="arrowup" xlink:href="#arrowUp" x="0" y="0" onmousedown="handlePan(0,-1)"/>
  <use id="arrowright" xlink:href="#arrowRight" x="0" y="0" onmousedown="handlePan(1,0)"/>
  <use id="arrowdown" xlink:href="#arrowDown" x="0" y="0" onmousedown="handlePan(0,1)"/>
  <use id="arrowleft" xlink:href="#arrowLeft" x="0" y="0" onmousedown="handlePan(-1,0)"/>
</g>
<svg viewBox="0 0 15 15" width="100%" height="30px" preserveAspectRatio="xMaxYMin meet">
 <g id="arrow_out" transform="scale(0.3 0.3)">
  <a xlink:href="classHHChannelBase_a2f3b2bfdb43c308fe1e6c3d5e206f5f6_icgraph_org.svg" target="_base">
   <rect id="button" ry="5" rx="5" y="6" x="6" height="38" width="38"
        fill="#f2f5e9" fill-opacity="0.5" stroke="#606060" stroke-width="1.0"/>
   <path id="arrow"
     d="M 11.500037,31.436501 C 11.940474,20.09759 22.043105,11.32322 32.158766,21.979434 L 37.068811,17.246167 C 37.068811,17.246167 37.088388,32 37.088388,32 L 22.160133,31.978069 C 22.160133,31.978069 26.997745,27.140456 26.997745,27.140456 C 18.528582,18.264221 13.291696,25.230495 11.500037,31.436501 z"
     style="fill:#404040;"/>
  </a>
 </g>
</svg>

<style type='text/css'>
<![CDATA[
[data-mouse-over-selected='false'] { opacity: 0.7; }
[data-mouse-over-selected='true']  { opacity: 1.0; }
]]>
</style>
<script type="application/ecmascript"><![CDATA[
document.addEventListener('DOMContentLoaded', (event) => {
  highlightEdges();
  highlightAdjacentNodes();
});
]]></script>
</svg>
