<?xml version="1.0" encoding="UTF-8" standalone="no"?>
<!DOCTYPE svg PUBLIC "-//W3C//DTD SVG 1.1//EN"
 "http://www.w3.org/Graphics/SVG/1.1/DTD/svg11.dtd">
<!-- Generated by graphviz version 2.43.0 (0)
 -->
<!-- Title: SpineMesh::setMeshEntryVolume Pages: 1 -->
<svg width="496pt" height="397pt"
 viewBox="0.00 0.00 496.00 397.00" xmlns="http://www.w3.org/2000/svg" xmlns:xlink="http://www.w3.org/1999/xlink">

<svg id="main" version="1.1" xmlns="http://www.w3.org/2000/svg" xmlns:xlink="http://www.w3.org/1999/xlink" xml:space="preserve" onload="init(evt)">
<style type="text/css"><![CDATA[
.node, .edge {opacity: 0.7;}
.node.selected, .edge.selected {opacity: 1;}
.edge:hover path { stroke: red; }
.edge:hover polygon { stroke: red; fill: red; }
]]></style>
<script type="application/ecmascript" xlink:href="svg.min.js"/>
<svg id="graph" class="graph">
<g id="graph0" class="graph" transform="scale(1 1) rotate(0) translate(4 393)">
<title>SpineMesh::setMeshEntryVolume</title>
<!-- Node1 -->
<g id="Node000001" class="node">
<title>Node1</title>
<g id="a_Node000001"><a xlink:title="Virtual function to assign volume of mesh Entry.">
<polygon fill="#999999" stroke="#666666" points="179,-204 0,-204 0,-185 179,-185 179,-204"/>
<text text-anchor="middle" x="89.5" y="-192" font-family="Ubuntu Mono" font-size="10.00">SpineMesh::setMeshEntryVolume</text>
</a>
</g>
</g>
<!-- Node2 -->
<g id="Node000002" class="node">
<title>Node2</title>
<g id="a_Node000002"><a xlink:href="classSpineEntry.html#a0429ac84199b947d7e903d6f551bbca7" target="_top" xlink:title=" ">
<polygon fill="white" stroke="#666666" points="341,-204 215,-204 215,-185 341,-185 341,-204"/>
<text text-anchor="middle" x="278" y="-192" font-family="Ubuntu Mono" font-size="10.00">SpineEntry::setVolume</text>
</a>
</g>
</g>
<!-- Node1&#45;&gt;Node2 -->
<g id="edge1_Node000001_Node000002" class="edge">
<title>Node1&#45;&gt;Node2</title>
<g id="a_edge1_Node000001_Node000002"><a xlink:title=" ">
<path fill="none" stroke="#63b8ff" d="M179.11,-194.5C187.73,-194.5 196.4,-194.5 204.83,-194.5"/>
<polygon fill="#63b8ff" stroke="#63b8ff" points="204.97,-198 214.97,-194.5 204.97,-191 204.97,-198"/>
</a>
</g>
</g>
<!-- Node3 -->
<g id="Node000003" class="node">
<title>Node3</title>
<g id="a_Node000003"><a xlink:href="classCylBase.html#ad96655884be493cdaf02d69a10d6b196" target="_top" xlink:title=" ">
<polygon fill="white" stroke="#666666" points="480,-389 385,-389 385,-370 480,-370 480,-389"/>
<text text-anchor="middle" x="432.5" y="-377" font-family="Ubuntu Mono" font-size="10.00">CylBase::getDia</text>
</a>
</g>
</g>
<!-- Node2&#45;&gt;Node3 -->
<g id="edge2_Node000002_Node000003" class="edge">
<title>Node2&#45;&gt;Node3</title>
<g id="a_edge2_Node000002_Node000003"><a xlink:title=" ">
<path fill="none" stroke="#63b8ff" d="M281.91,-204.03C291.03,-232.38 321.83,-316.92 377,-361.5 378.57,-362.77 380.23,-363.95 381.96,-365.05"/>
<polygon fill="#63b8ff" stroke="#63b8ff" points="380.6,-368.28 391.07,-369.88 383.88,-362.1 380.6,-368.28"/>
</a>
</g>
</g>
<!-- Node4 -->
<g id="Node000004" class="node">
<title>Node4</title>
<g id="a_Node000004"><a xlink:href="classCylBase.html#a8ee5f8e88924d3be2cdcc01c23efb2b9" target="_top" xlink:title=" ">
<polygon fill="white" stroke="#666666" points="488,-352 377,-352 377,-333 488,-333 488,-352"/>
<text text-anchor="middle" x="432.5" y="-340" font-family="Ubuntu Mono" font-size="10.00">CylBase::getLength</text>
</a>
</g>
</g>
<!-- Node2&#45;&gt;Node4 -->
<g id="edge3_Node000002_Node000004" class="edge">
<title>Node2&#45;&gt;Node4</title>
<g id="a_edge3_Node000002_Node000004"><a xlink:title=" ">
<path fill="none" stroke="#63b8ff" d="M283.69,-204.25C295.73,-228.3 330.14,-290.91 377,-324.5 379.06,-325.97 381.24,-327.33 383.5,-328.58"/>
<polygon fill="#63b8ff" stroke="#63b8ff" points="382.02,-331.75 392.55,-332.9 385.03,-325.43 382.02,-331.75"/>
</a>
</g>
</g>
<!-- Node5 -->
<g id="Node000005" class="node">
<title>Node5</title>
<g id="a_Node000005"><a xlink:href="classCylBase.html#af491e3aed441f4ff3ef112346d644ae7" target="_top" xlink:title=" ">
<polygon fill="white" stroke="#666666" points="475,-315 390,-315 390,-296 475,-296 475,-315"/>
<text text-anchor="middle" x="432.5" y="-303" font-family="Ubuntu Mono" font-size="10.00">CylBase::getX</text>
</a>
</g>
</g>
<!-- Node2&#45;&gt;Node5 -->
<g id="edge4_Node000002_Node000005" class="edge">
<title>Node2&#45;&gt;Node5</title>
<g id="a_edge4_Node000002_Node000005"><a xlink:title=" ">
<path fill="none" stroke="#63b8ff" d="M286.59,-204.11C301.81,-222.78 337.95,-264.14 377,-287.5 379.78,-289.16 382.73,-290.69 385.77,-292.1"/>
<polygon fill="#63b8ff" stroke="#63b8ff" points="384.46,-295.35 395.04,-295.94 387.14,-288.88 384.46,-295.35"/>
</a>
</g>
</g>
<!-- Node6 -->
<g id="Node000006" class="node">
<title>Node6</title>
<g id="a_Node000006"><a xlink:href="classCylBase.html#a6f27ed9266877bd74a114d8dcd133ef1" target="_top" xlink:title=" ">
<polygon fill="white" stroke="#666666" points="474.5,-278 390.5,-278 390.5,-259 474.5,-259 474.5,-278"/>
<text text-anchor="middle" x="432.5" y="-266" font-family="Ubuntu Mono" font-size="10.00">CylBase::getY</text>
</a>
</g>
</g>
<!-- Node2&#45;&gt;Node6 -->
<g id="edge5_Node000002_Node000006" class="edge">
<title>Node2&#45;&gt;Node6</title>
<g id="a_edge5_Node000002_Node000006"><a xlink:title=" ">
<path fill="none" stroke="#63b8ff" d="M293.79,-204.2C312.56,-216.22 346.21,-236.79 377,-250.5 381.05,-252.3 385.34,-254.03 389.67,-255.64"/>
<polygon fill="#63b8ff" stroke="#63b8ff" points="388.51,-258.94 399.11,-258.98 390.85,-252.34 388.51,-258.94"/>
</a>
</g>
</g>
<!-- Node7 -->
<g id="Node000007" class="node">
<title>Node7</title>
<g id="a_Node000007"><a xlink:href="classCylBase.html#af7d5df757eec9e32d3d1f8d6d738e2bc" target="_top" xlink:title=" ">
<polygon fill="white" stroke="#666666" points="475,-241 390,-241 390,-222 475,-222 475,-241"/>
<text text-anchor="middle" x="432.5" y="-229" font-family="Ubuntu Mono" font-size="10.00">CylBase::getZ</text>
</a>
</g>
</g>
<!-- Node2&#45;&gt;Node7 -->
<g id="edge6_Node000002_Node000007" class="edge">
<title>Node2&#45;&gt;Node7</title>
<g id="a_edge6_Node000002_Node000007"><a xlink:title=" ">
<path fill="none" stroke="#63b8ff" d="M318.27,-204.03C337.76,-208.76 361.51,-214.52 382.21,-219.54"/>
<polygon fill="#63b8ff" stroke="#63b8ff" points="381.55,-222.98 392.1,-221.94 383.2,-216.18 381.55,-222.98"/>
</a>
</g>
</g>
<!-- Node8 -->
<g id="Node000008" class="node">
<title>Node8</title>
<g id="a_Node000008"><a xlink:href="classCylBase.html#ad71cf34c5cc9298508ac5a3a49495c1b" target="_top" xlink:title=" ">
<polygon fill="white" stroke="#666666" points="479.5,-204 385.5,-204 385.5,-185 479.5,-185 479.5,-204"/>
<text text-anchor="middle" x="432.5" y="-192" font-family="Ubuntu Mono" font-size="10.00">CylBase::setDia</text>
</a>
</g>
</g>
<!-- Node2&#45;&gt;Node8 -->
<g id="edge7_Node000002_Node000008" class="edge">
<title>Node2&#45;&gt;Node8</title>
<g id="a_edge7_Node000002_Node000008"><a xlink:title=" ">
<path fill="none" stroke="#63b8ff" d="M341.03,-194.5C352.39,-194.5 364.19,-194.5 375.37,-194.5"/>
<polygon fill="#63b8ff" stroke="#63b8ff" points="375.43,-198 385.43,-194.5 375.43,-191 375.43,-198"/>
</a>
</g>
</g>
<!-- Node9 -->
<g id="Node000009" class="node">
<title>Node9</title>
<g id="a_Node000009"><a xlink:href="classCylBase.html#a2f3e181306038e72e051d44644f2464c" target="_top" xlink:title=" ">
<polygon fill="white" stroke="#666666" points="487.5,-167 377.5,-167 377.5,-148 487.5,-148 487.5,-167"/>
<text text-anchor="middle" x="432.5" y="-155" font-family="Ubuntu Mono" font-size="10.00">CylBase::setLength</text>
</a>
</g>
</g>
<!-- Node2&#45;&gt;Node9 -->
<g id="edge8_Node000002_Node000009" class="edge">
<title>Node2&#45;&gt;Node9</title>
<g id="a_edge8_Node000002_Node000009"><a xlink:title=" ">
<path fill="none" stroke="#63b8ff" d="M318.27,-184.97C337.76,-180.24 361.51,-174.48 382.21,-169.46"/>
<polygon fill="#63b8ff" stroke="#63b8ff" points="383.2,-172.82 392.1,-167.06 381.55,-166.02 383.2,-172.82"/>
</a>
</g>
</g>
<!-- Node10 -->
<g id="Node000010" class="node">
<title>Node10</title>
<g id="a_Node000010"><a xlink:href="classCylBase.html#aa9eba2525f9f0fcfa8ddc728402c5445" target="_top" xlink:title=" ">
<polygon fill="white" stroke="#666666" points="474.5,-130 390.5,-130 390.5,-111 474.5,-111 474.5,-130"/>
<text text-anchor="middle" x="432.5" y="-118" font-family="Ubuntu Mono" font-size="10.00">CylBase::setX</text>
</a>
</g>
</g>
<!-- Node2&#45;&gt;Node10 -->
<g id="edge9_Node000002_Node000010" class="edge">
<title>Node2&#45;&gt;Node10</title>
<g id="a_edge9_Node000002_Node000010"><a xlink:title=" ">
<path fill="none" stroke="#63b8ff" d="M294.18,-184.87C313.08,-173.14 346.58,-153.21 377,-139.5 381.68,-137.39 386.66,-135.37 391.64,-133.48"/>
<polygon fill="#63b8ff" stroke="#63b8ff" points="392.94,-136.73 401.14,-130.02 390.55,-130.15 392.94,-136.73"/>
</a>
</g>
</g>
<!-- Node11 -->
<g id="Node000011" class="node">
<title>Node11</title>
<g id="a_Node000011"><a xlink:href="classCylBase.html#aa64b2e772df3c8180853ceb9998bf335" target="_top" xlink:title=" ">
<polygon fill="white" stroke="#666666" points="474,-93 391,-93 391,-74 474,-74 474,-93"/>
<text text-anchor="middle" x="432.5" y="-81" font-family="Ubuntu Mono" font-size="10.00">CylBase::setY</text>
</a>
</g>
</g>
<!-- Node2&#45;&gt;Node11 -->
<g id="edge10_Node000002_Node000011" class="edge">
<title>Node2&#45;&gt;Node11</title>
<g id="a_edge10_Node000002_Node000011"><a xlink:title=" ">
<path fill="none" stroke="#63b8ff" d="M286.89,-184.77C302.34,-166.28 338.48,-125.84 377,-102.5 380.37,-100.46 384,-98.59 387.72,-96.9"/>
<polygon fill="#63b8ff" stroke="#63b8ff" points="389.16,-100.09 397.07,-93.04 386.49,-93.62 389.16,-100.09"/>
</a>
</g>
</g>
<!-- Node12 -->
<g id="Node000012" class="node">
<title>Node12</title>
<g id="a_Node000012"><a xlink:href="classCylBase.html#a7e32f372d601f29f92fcb86a74028188" target="_top" xlink:title=" ">
<polygon fill="white" stroke="#666666" points="474.5,-56 390.5,-56 390.5,-37 474.5,-37 474.5,-56"/>
<text text-anchor="middle" x="432.5" y="-44" font-family="Ubuntu Mono" font-size="10.00">CylBase::setZ</text>
</a>
</g>
</g>
<!-- Node2&#45;&gt;Node12 -->
<g id="edge11_Node000002_Node000012" class="edge">
<title>Node2&#45;&gt;Node12</title>
<g id="a_edge11_Node000002_Node000012"><a xlink:title=" ">
<path fill="none" stroke="#63b8ff" d="M283.74,-184.87C295.91,-161.12 330.58,-99.22 377,-65.5 379.63,-63.59 382.48,-61.85 385.44,-60.28"/>
<polygon fill="#63b8ff" stroke="#63b8ff" points="386.96,-63.44 394.56,-56.05 384.01,-57.09 386.96,-63.44"/>
</a>
</g>
</g>
<!-- Node13 -->
<g id="Node000013" class="node">
<title>Node13</title>
<g id="a_Node000013"><a xlink:href="classCylBase.html#acdbbd3c619e3463a83c6e9c508a66249" target="_top" xlink:title="Returns vol of current node. Usually needs to refer to parent.">
<polygon fill="white" stroke="#666666" points="482,-19 383,-19 383,0 482,0 482,-19"/>
<text text-anchor="middle" x="432.5" y="-7" font-family="Ubuntu Mono" font-size="10.00">CylBase::volume</text>
</a>
</g>
</g>
<!-- Node2&#45;&gt;Node13 -->
<g id="edge12_Node000002_Node000013" class="edge">
<title>Node2&#45;&gt;Node13</title>
<g id="a_edge12_Node000002_Node000013"><a xlink:title=" ">
<path fill="none" stroke="#63b8ff" d="M282.09,-184.66C291.52,-156.21 322.64,-73.04 377,-28.5 379.14,-26.74 381.46,-25.15 383.88,-23.69"/>
<polygon fill="#63b8ff" stroke="#63b8ff" points="385.71,-26.69 393.04,-19.03 382.54,-20.45 385.71,-26.69"/>
</a>
</g>
</g>
</g>
</svg>
</svg>

<style type='text/css'>
<![CDATA[
[data-mouse-over-selected='false'] { opacity: 0.7; }
[data-mouse-over-selected='true']  { opacity: 1.0; }
]]>
</style>
<script type="application/ecmascript"><![CDATA[
document.addEventListener('DOMContentLoaded', (event) => {
  highlightEdges();
  highlightAdjacentNodes();
});
]]></script>
</svg>
