<?xml version="1.0" encoding="UTF-8" standalone="no"?>
<!DOCTYPE svg PUBLIC "-//W3C//DTD SVG 1.1//EN"
 "http://www.w3.org/Graphics/SVG/1.1/DTD/svg11.dtd">
<!-- Generated by graphviz version 2.43.0 (0)
 -->
<!-- Title: pymoose::MooseVec::path Pages: 1 -->
<svg width="1121pt" height="631pt"
 viewBox="0.00 0.00 1121.00 630.72" xmlns="http://www.w3.org/2000/svg" xmlns:xlink="http://www.w3.org/1999/xlink">
<g id="graph0" class="graph" transform="scale(1 1) rotate(0) translate(4 626.72)">
<title>pymoose::MooseVec::path</title>
<!-- Node1 -->
<g id="Node000001" class="node">
<title>Node1</title>
<g id="a_Node000001"><a xlink:title=" ">
<polygon fill="#999999" stroke="#666666" points="145,-336 0,-336 0,-317 145,-317 145,-336"/>
<text text-anchor="middle" x="72.5" y="-324" font-family="Ubuntu Mono" font-size="10.00">pymoose::MooseVec::path</text>
</a>
</g>
</g>
<!-- Node2 -->
<g id="Node000002" class="node">
<title>Node2</title>
<g id="a_Node000002"><a xlink:href="classObjId.html#a4d6f6e6b6f3c279334cf9f10a277df49" target="_top" xlink:title=" ">
<polygon fill="white" stroke="#666666" points="251,-336 181,-336 181,-317 251,-317 251,-336"/>
<text text-anchor="middle" x="216" y="-324" font-family="Ubuntu Mono" font-size="10.00">ObjId::path</text>
</a>
</g>
</g>
<!-- Node1&#45;&gt;Node2 -->
<g id="edge1_Node000001_Node000002" class="edge">
<title>Node1&#45;&gt;Node2</title>
<g id="a_edge1_Node000001_Node000002"><a xlink:title=" ">
<path fill="none" stroke="#63b8ff" d="M145.08,-326.5C153.85,-326.5 162.61,-326.5 170.8,-326.5"/>
<polygon fill="#63b8ff" stroke="#63b8ff" points="170.85,-330 180.85,-326.5 170.85,-323 170.85,-330"/>
</a>
</g>
</g>
<!-- Node3 -->
<g id="Node000003" class="node">
<title>Node3</title>
<g id="a_Node000003"><a xlink:href="classObjId.html#a76a3d4b89944235a24eff983030a5e91" target="_top" xlink:title=" ">
<polygon fill="white" stroke="#666666" points="492,-606 424,-606 424,-587 492,-587 492,-606"/>
<text text-anchor="middle" x="458" y="-594" font-family="Ubuntu Mono" font-size="10.00">ObjId::eref</text>
</a>
</g>
</g>
<!-- Node2&#45;&gt;Node3 -->
<g id="edge2_Node000002_Node000003" class="edge">
<title>Node2&#45;&gt;Node3</title>
<g id="a_edge2_Node000002_Node000003"><a xlink:title=" ">
<path fill="none" stroke="#63b8ff" d="M222.03,-336.36C240.98,-372.57 311.57,-499.94 403,-572.5 407.79,-576.3 413.27,-579.63 418.87,-582.51"/>
<polygon fill="#63b8ff" stroke="#63b8ff" points="417.75,-585.85 428.29,-586.91 420.72,-579.51 417.75,-585.85"/>
</a>
</g>
</g>
<!-- Node7 -->
<g id="Node000007" class="node">
<title>Node7</title>
<g id="a_Node000007"><a xlink:href="classNeutral.html#a93bee6d27f95c8c4c7eb3640cd883a98" target="_top" xlink:title=" ">
<polygon fill="white" stroke="#666666" points="367,-317 287,-317 287,-298 367,-298 367,-317"/>
<text text-anchor="middle" x="327" y="-305" font-family="Ubuntu Mono" font-size="10.00">Neutral::path</text>
</a>
</g>
</g>
<!-- Node2&#45;&gt;Node7 -->
<g id="edge6_Node000002_Node000007" class="edge">
<title>Node2&#45;&gt;Node7</title>
<g id="a_edge6_Node000002_Node000007"><a xlink:title=" ">
<path fill="none" stroke="#63b8ff" d="M251.19,-320.54C259.36,-319.12 268.23,-317.57 276.92,-316.05"/>
<polygon fill="#63b8ff" stroke="#63b8ff" points="277.74,-319.47 286.99,-314.3 276.54,-312.57 277.74,-319.47"/>
</a>
</g>
</g>
<!-- Node4 -->
<g id="Node000004" class="node">
<title>Node4</title>
<g id="a_Node000004"><a xlink:href="classId.html#a574e06330597163aef0ea4c99de7ff4a" target="_top" xlink:title="Synonym for Id::operator()()">
<polygon fill="white" stroke="#666666" points="982,-568 910,-568 910,-549 982,-549 982,-568"/>
<text text-anchor="middle" x="946" y="-556" font-family="Ubuntu Mono" font-size="10.00">Id::element</text>
</a>
</g>
</g>
<!-- Node3&#45;&gt;Node4 -->
<g id="edge3_Node000003_Node000004" class="edge">
<title>Node3&#45;&gt;Node4</title>
<g id="a_edge3_Node000003_Node000004"><a xlink:title=" ">
<path fill="none" stroke="#63b8ff" d="M492.08,-605.2C508.97,-609.21 529.94,-613.51 549,-615.5 629.45,-623.9 650.8,-626 731,-615.5 794.7,-607.16 866.42,-585.42 908.55,-571.33"/>
<polygon fill="#63b8ff" stroke="#63b8ff" points="909.74,-574.62 918.09,-568.1 907.5,-567.99 909.74,-574.62"/>
</a>
</g>
</g>
<!-- Node6 -->
<g id="Node000006" class="node">
<title>Node6</title>
<g id="a_Node000006"><a xlink:href="classEref.html#a3addb850bc6cbac7771a07de219d909d" target="_top" xlink:title=" ">
<polygon fill="white" stroke="#666666" points="670.5,-606 609.5,-606 609.5,-587 670.5,-587 670.5,-606"/>
<text text-anchor="middle" x="640" y="-594" font-family="Ubuntu Mono" font-size="10.00">Eref::Eref</text>
</a>
</g>
</g>
<!-- Node3&#45;&gt;Node6 -->
<g id="edge5_Node000003_Node000006" class="edge">
<title>Node3&#45;&gt;Node6</title>
<g id="a_edge5_Node000003_Node000006"><a xlink:title=" ">
<path fill="none" stroke="#63b8ff" d="M492.01,-596.5C522.2,-596.5 566.9,-596.5 599.08,-596.5"/>
<polygon fill="#63b8ff" stroke="#63b8ff" points="599.48,-600 609.48,-596.5 599.48,-593 599.48,-600"/>
</a>
</g>
</g>
<!-- Node5 -->
<g id="Node000005" class="node">
<title>Node5</title>
<g id="a_Node000005"><a xlink:href="classId.html#a2d5e7b4d5d918aadfe45102691c2be27" target="_top" xlink:title=" ">
<polygon fill="white" stroke="#666666" points="1113,-568 1036,-568 1036,-549 1113,-549 1113,-568"/>
<text text-anchor="middle" x="1074.5" y="-556" font-family="Ubuntu Mono" font-size="10.00">Id::elements</text>
</a>
</g>
</g>
<!-- Node4&#45;&gt;Node5 -->
<g id="edge4_Node000004_Node000005" class="edge">
<title>Node4&#45;&gt;Node5</title>
<g id="a_edge4_Node000004_Node000005"><a xlink:title=" ">
<path fill="none" stroke="#63b8ff" d="M982.24,-558.5C995.65,-558.5 1011.17,-558.5 1025.56,-558.5"/>
<polygon fill="#63b8ff" stroke="#63b8ff" points="1025.8,-562 1035.8,-558.5 1025.8,-555 1025.8,-562"/>
</a>
</g>
</g>
<!-- Node7&#45;&gt;Node3 -->
<g id="edge10_Node000007_Node000003" class="edge">
<title>Node7&#45;&gt;Node3</title>
<g id="a_edge10_Node000007_Node000003"><a xlink:title=" ">
<path fill="none" stroke="#63b8ff" d="M330.77,-317.06C337.18,-339.25 353.56,-395.99 367,-443.5 383.2,-500.78 364.09,-527.45 403,-572.5 406.39,-576.43 410.55,-579.74 415.04,-582.53"/>
<polygon fill="#63b8ff" stroke="#63b8ff" points="413.5,-585.67 423.97,-587.26 416.78,-579.49 413.5,-585.67"/>
</a>
</g>
</g>
<!-- Node8 -->
<g id="Node000008" class="node">
<title>Node8</title>
<g id="a_Node000008"><a xlink:href="classEref.html#a47b59ab86165cceb0bde80c76c3f7fa2" target="_top" xlink:title=" ">
<polygon fill="white" stroke="#666666" points="499,-428 417,-428 417,-409 499,-409 499,-428"/>
<text text-anchor="middle" x="458" y="-416" font-family="Ubuntu Mono" font-size="10.00">Eref::element</text>
</a>
</g>
</g>
<!-- Node7&#45;&gt;Node8 -->
<g id="edge7_Node000007_Node000008" class="edge">
<title>Node7&#45;&gt;Node8</title>
<g id="a_edge7_Node000007_Node000008"><a xlink:title=" ">
<path fill="none" stroke="#63b8ff" d="M333.25,-317.18C343.92,-335.98 369.95,-377.55 403,-400.5 405.21,-402.03 407.55,-403.44 409.99,-404.74"/>
<polygon fill="#63b8ff" stroke="#63b8ff" points="408.53,-407.92 419.07,-408.95 411.47,-401.57 408.53,-407.92"/>
</a>
</g>
</g>
<!-- Node9 -->
<g id="Node000009" class="node">
<title>Node9</title>
<g id="a_Node000009"><a xlink:href="classObjId.html#ad87d6d712e4bceb381d1d324aa137d6e" target="_top" xlink:title=" ">
<polygon fill="white" stroke="#666666" points="856,-568 767,-568 767,-549 856,-549 856,-568"/>
<text text-anchor="middle" x="811.5" y="-556" font-family="Ubuntu Mono" font-size="10.00">ObjId::element</text>
</a>
</g>
</g>
<!-- Node7&#45;&gt;Node9 -->
<g id="edge8_Node000007_Node000009" class="edge">
<title>Node7&#45;&gt;Node9</title>
<g id="a_edge8_Node000007_Node000009"><a xlink:title=" ">
<path fill="none" stroke="#63b8ff" d="M330.24,-317.02C338.98,-353.37 371.84,-482.77 403,-509.5 454.98,-554.08 658.6,-559.34 756.87,-559.19"/>
<polygon fill="#63b8ff" stroke="#63b8ff" points="756.91,-562.69 766.89,-559.16 756.88,-555.69 756.91,-562.69"/>
</a>
</g>
</g>
<!-- Node10 -->
<g id="Node000010" class="node">
<title>Node10</title>
<g id="a_Node000010"><a xlink:href="classEref.html#aed748cb72c986c869e4c650dd28d8d02" target="_top" xlink:title=" ">
<polygon fill="white" stroke="#666666" points="502.5,-391 413.5,-391 413.5,-372 502.5,-372 502.5,-391"/>
<text text-anchor="middle" x="458" y="-379" font-family="Ubuntu Mono" font-size="10.00">Eref::fieldIndex</text>
</a>
</g>
</g>
<!-- Node7&#45;&gt;Node10 -->
<g id="edge11_Node000007_Node000010" class="edge">
<title>Node7&#45;&gt;Node10</title>
<g id="a_edge11_Node000007_Node000010"><a xlink:title=" ">
<path fill="none" stroke="#63b8ff" d="M338.44,-317.03C352.3,-329.24 377.94,-350.4 403,-363.5 406.3,-365.23 409.81,-366.83 413.38,-368.32"/>
<polygon fill="#63b8ff" stroke="#63b8ff" points="412.31,-371.66 422.9,-371.98 414.82,-365.13 412.31,-371.66"/>
</a>
</g>
</g>
<!-- Node11 -->
<g id="Node000011" class="node">
<title>Node11</title>
<g id="a_Node000011"><a xlink:href="classElement.html#a3c07cf6355e6127827ce67682e3bb2a0" target="_top" xlink:title=" ">
<polygon fill="white" stroke="#666666" points="513,-465 403,-465 403,-446 513,-446 513,-465"/>
<text text-anchor="middle" x="458" y="-453" font-family="Ubuntu Mono" font-size="10.00">Element::findCaller</text>
</a>
</g>
</g>
<!-- Node7&#45;&gt;Node11 -->
<g id="edge12_Node000007_Node000011" class="edge">
<title>Node7&#45;&gt;Node11</title>
<g id="a_edge12_Node000007_Node000011"><a xlink:title=" ">
<path fill="none" stroke="#63b8ff" d="M330.93,-317.25C338.65,-341.29 361.82,-403.89 403,-437.5 404.58,-438.79 406.25,-439.99 408,-441.1"/>
<polygon fill="#63b8ff" stroke="#63b8ff" points="406.72,-444.38 417.19,-445.99 410.01,-438.21 406.72,-444.38"/>
</a>
</g>
</g>
<!-- Node15 -->
<g id="Node000015" class="node">
<title>Node15</title>
<g id="a_Node000015"><a xlink:href="classMsg.html#a1a57001709e44ab056a704c24760c105" target="_top" xlink:title=" ">
<polygon fill="white" stroke="#666666" points="679.5,-530 600.5,-530 600.5,-511 679.5,-511 679.5,-530"/>
<text text-anchor="middle" x="640" y="-518" font-family="Ubuntu Mono" font-size="10.00">Msg::getMsg</text>
</a>
</g>
</g>
<!-- Node7&#45;&gt;Node15 -->
<g id="edge27_Node000007_Node000015" class="edge">
<title>Node7&#45;&gt;Node15</title>
<g id="a_edge27_Node000007_Node000015"><a xlink:title=" ">
<path fill="none" stroke="#63b8ff" d="M329.27,-317.3C333.58,-346.4 350.46,-432.82 403,-474.5 456.54,-516.97 538.13,-523.93 589.98,-523.43"/>
<polygon fill="#63b8ff" stroke="#63b8ff" points="590.33,-526.93 600.26,-523.23 590.19,-519.93 590.33,-526.93"/>
</a>
</g>
</g>
<!-- Node22 -->
<g id="Node000022" class="node">
<title>Node22</title>
<g id="a_Node000022"><a xlink:href="classCinfo.html#a7642d2a9ffe54cc8008df39de171ab63" target="_top" xlink:title=" ">
<polygon fill="white" stroke="#666666" points="503,-317 413,-317 413,-298 503,-298 503,-317"/>
<text text-anchor="middle" x="458" y="-305" font-family="Ubuntu Mono" font-size="10.00">Cinfo::findFinfo</text>
</a>
</g>
</g>
<!-- Node7&#45;&gt;Node22 -->
<g id="edge24_Node000007_Node000022" class="edge">
<title>Node7&#45;&gt;Node22</title>
<g id="a_edge24_Node000007_Node000022"><a xlink:title=" ">
<path fill="none" stroke="#63b8ff" d="M367.05,-307.5C378.18,-307.5 390.51,-307.5 402.38,-307.5"/>
<polygon fill="#63b8ff" stroke="#63b8ff" points="402.66,-311 412.66,-307.5 402.66,-304 402.66,-311"/>
</a>
</g>
</g>
<!-- Node23 -->
<g id="Node000023" class="node">
<title>Node23</title>
<g id="a_Node000023"><a xlink:href="classMsg.html#a326ed96ece35f632b16de59838db6c29" target="_top" xlink:title=" ">
<polygon fill="white" stroke="#666666" points="511,-280 405,-280 405,-261 511,-261 511,-280"/>
<text text-anchor="middle" x="458" y="-268" font-family="Ubuntu Mono" font-size="10.00">Msg::findOtherEnd</text>
</a>
</g>
</g>
<!-- Node7&#45;&gt;Node23 -->
<g id="edge25_Node000007_Node000023" class="edge">
<title>Node7&#45;&gt;Node23</title>
<g id="a_edge25_Node000007_Node000023"><a xlink:title=" ">
<path fill="none" stroke="#63b8ff" d="M361.22,-297.97C377.2,-293.39 396.55,-287.84 413.67,-282.93"/>
<polygon fill="#63b8ff" stroke="#63b8ff" points="414.8,-286.25 423.44,-280.12 412.87,-279.52 414.8,-286.25"/>
</a>
</g>
</g>
<!-- Node24 -->
<g id="Node000024" class="node">
<title>Node24</title>
<g id="a_Node000024"><a xlink:href="classDestFinfo.html#a6efef23ddcfbaef03eca8aa75fdd98cd" target="_top" xlink:title=" ">
<polygon fill="white" stroke="#666666" points="507.5,-243 408.5,-243 408.5,-224 507.5,-224 507.5,-243"/>
<text text-anchor="middle" x="458" y="-231" font-family="Ubuntu Mono" font-size="10.00">DestFinfo::getFid</text>
</a>
</g>
</g>
<!-- Node7&#45;&gt;Node24 -->
<g id="edge26_Node000007_Node000024" class="edge">
<title>Node7&#45;&gt;Node24</title>
<g id="a_edge26_Node000007_Node000024"><a xlink:title=" ">
<path fill="none" stroke="#63b8ff" d="M338.99,-297.81C353.02,-285.83 378.44,-265.46 403,-252.5 406.96,-250.41 411.21,-248.46 415.51,-246.68"/>
<polygon fill="#63b8ff" stroke="#63b8ff" points="416.86,-249.91 424.93,-243.04 414.34,-243.38 416.86,-249.91"/>
</a>
</g>
</g>
<!-- Node25 -->
<g id="Node000025" class="node">
<title>Node25</title>
<g id="a_Node000025"><a xlink:href="classElement.html#a1a2068a4e70da0f951bc3e73b758ef4a" target="_top" xlink:title=" ">
<polygon fill="white" stroke="#666666" points="512,-206 404,-206 404,-187 512,-187 512,-206"/>
<text text-anchor="middle" x="458" y="-194" font-family="Ubuntu Mono" font-size="10.00">Element::getName</text>
</a>
</g>
</g>
<!-- Node7&#45;&gt;Node25 -->
<g id="edge28_Node000007_Node000025" class="edge">
<title>Node7&#45;&gt;Node25</title>
<g id="a_edge28_Node000007_Node000025"><a xlink:title=" ">
<path fill="none" stroke="#63b8ff" d="M333.31,-297.97C344.09,-279.47 370.29,-238.49 403,-215.5 405.72,-213.59 408.66,-211.85 411.71,-210.27"/>
<polygon fill="#63b8ff" stroke="#63b8ff" points="413.41,-213.34 421.07,-206.02 410.52,-206.97 413.41,-213.34"/>
</a>
</g>
</g>
<!-- Node26 -->
<g id="Node000026" class="node">
<title>Node26</title>
<g id="a_Node000026"><a xlink:href="classElement.html#a8489d936deee408d78042cf199694bb5" target="_top" xlink:title=" ">
<polygon fill="white" stroke="#666666" points="512.5,-169 403.5,-169 403.5,-150 512.5,-150 512.5,-169"/>
<text text-anchor="middle" x="458" y="-157" font-family="Ubuntu Mono" font-size="10.00">Element::hasFields</text>
</a>
</g>
</g>
<!-- Node7&#45;&gt;Node26 -->
<g id="edge29_Node000007_Node000026" class="edge">
<title>Node7&#45;&gt;Node26</title>
<g id="a_edge29_Node000007_Node000026"><a xlink:title=" ">
<path fill="none" stroke="#63b8ff" d="M330.99,-297.86C338.83,-274.1 362.28,-212.19 403,-178.5 405.04,-176.81 407.25,-175.26 409.56,-173.85"/>
<polygon fill="#63b8ff" stroke="#63b8ff" points="411.58,-176.75 418.87,-169.05 408.38,-170.52 411.58,-176.75"/>
</a>
</g>
</g>
<!-- Node27 -->
<g id="Node000027" class="node">
<title>Node27</title>
<g id="a_Node000027"><a xlink:href="classId.html#ac094968605676d63b55ca33b7e318948" target="_top" xlink:title=" ">
<polygon fill="white" stroke="#666666" points="660.5,-112 619.5,-112 619.5,-93 660.5,-93 660.5,-112"/>
<text text-anchor="middle" x="640" y="-100" font-family="Ubuntu Mono" font-size="10.00">Id::Id</text>
</a>
</g>
</g>
<!-- Node7&#45;&gt;Node27 -->
<g id="edge30_Node000007_Node000027" class="edge">
<title>Node7&#45;&gt;Node27</title>
<g id="a_edge30_Node000007_Node000027"><a xlink:title=" ">
<path fill="none" stroke="#63b8ff" d="M329.23,-297.68C333.45,-268.56 350.09,-182.15 403,-141.5 434.87,-117.02 553.42,-107.26 609.39,-103.96"/>
<polygon fill="#63b8ff" stroke="#63b8ff" points="609.6,-107.45 619.39,-103.4 609.21,-100.46 609.6,-107.45"/>
</a>
</g>
</g>
<!-- Node28 -->
<g id="Node000028" class="node">
<title>Node28</title>
<g id="a_Node000028"><a xlink:href="classObjId.html#aad3d714ee57757ed3754a58edc9ad4a9" target="_top" xlink:title=" ">
<polygon fill="white" stroke="#666666" points="495,-93 421,-93 421,-74 495,-74 495,-93"/>
<text text-anchor="middle" x="458" y="-81" font-family="Ubuntu Mono" font-size="10.00">ObjId::ObjId</text>
</a>
</g>
</g>
<!-- Node7&#45;&gt;Node28 -->
<g id="edge31_Node000007_Node000028" class="edge">
<title>Node7&#45;&gt;Node28</title>
<g id="a_edge31_Node000007_Node000028"><a xlink:title=" ">
<path fill="none" stroke="#63b8ff" d="M329,-297.78C332.73,-266.21 348.58,-165.26 403,-107.5 406.56,-103.72 410.82,-100.5 415.36,-97.76"/>
<polygon fill="#63b8ff" stroke="#63b8ff" points="417.1,-100.81 424.35,-93.08 413.86,-94.6 417.1,-100.81"/>
</a>
</g>
</g>
<!-- Node29 -->
<g id="Node000029" class="node">
<title>Node29</title>
<g id="a_Node000029"><a xlink:href="classEref.html#ab305a4ab972b50443b7d35cfd516861a" target="_top" xlink:title=" ">
<polygon fill="white" stroke="#666666" points="490.5,-354 425.5,-354 425.5,-335 490.5,-335 490.5,-354"/>
<text text-anchor="middle" x="458" y="-342" font-family="Ubuntu Mono" font-size="10.00">Eref::objId</text>
</a>
</g>
</g>
<!-- Node7&#45;&gt;Node29 -->
<g id="edge33_Node000007_Node000029" class="edge">
<title>Node7&#45;&gt;Node29</title>
<g id="a_edge33_Node000007_Node000029"><a xlink:title=" ">
<path fill="none" stroke="#63b8ff" d="M361.22,-317.03C377.7,-321.75 397.76,-327.51 415.26,-332.53"/>
<polygon fill="#63b8ff" stroke="#63b8ff" points="414.65,-335.99 425.23,-335.39 416.58,-329.27 414.65,-335.99"/>
</a>
</g>
</g>
<!-- Node31 -->
<g id="Node000031" class="node">
<title>Node31</title>
<g id="a_Node000031"><a xlink:href="classId.html#a6a4a7d5c9e8524644febc6b6e8dc1ab9" target="_top" xlink:title=" ">
<polygon fill="white" stroke="#666666" points="500.5,-56 415.5,-56 415.5,-37 500.5,-37 500.5,-56"/>
<text text-anchor="middle" x="458" y="-44" font-family="Ubuntu Mono" font-size="10.00">Id::operator!=</text>
</a>
</g>
</g>
<!-- Node7&#45;&gt;Node31 -->
<g id="edge36_Node000007_Node000031" class="edge">
<title>Node7&#45;&gt;Node31</title>
<g id="a_edge36_Node000007_Node000031"><a xlink:title=" ">
<path fill="none" stroke="#63b8ff" d="M328.07,-297.65C328.87,-261.49 336.49,-134.57 403,-65.5 404.4,-64.05 405.91,-62.71 407.51,-61.47"/>
<polygon fill="#63b8ff" stroke="#63b8ff" points="409.51,-64.35 416.15,-56.1 405.81,-58.41 409.51,-64.35"/>
</a>
</g>
</g>
<!-- Node32 -->
<g id="Node000032" class="node">
<title>Node32</title>
<g id="a_Node000032"><a xlink:href="classObjId.html#a6a7e5a3ee84c58803fe025943941e67e" target="_top" xlink:title=" ">
<polygon fill="white" stroke="#666666" points="511,-19 405,-19 405,0 511,0 511,-19"/>
<text text-anchor="middle" x="458" y="-7" font-family="Ubuntu Mono" font-size="10.00">ObjId::operator==</text>
</a>
</g>
</g>
<!-- Node7&#45;&gt;Node32 -->
<g id="edge37_Node000007_Node000032" class="edge">
<title>Node7&#45;&gt;Node32</title>
<g id="a_edge37_Node000007_Node000032"><a xlink:title=" ">
<path fill="none" stroke="#63b8ff" d="M327.55,-297.77C326.26,-258.31 326.75,-108.47 403,-27.5 403.9,-26.55 404.84,-25.65 405.83,-24.8"/>
<polygon fill="#63b8ff" stroke="#63b8ff" points="407.85,-27.65 414.16,-19.14 403.92,-21.86 407.85,-27.65"/>
</a>
</g>
</g>
<!-- Node9&#45;&gt;Node4 -->
<g id="edge9_Node000009_Node000004" class="edge">
<title>Node9&#45;&gt;Node4</title>
<g id="a_edge9_Node000009_Node000004"><a xlink:title=" ">
<path fill="none" stroke="#63b8ff" d="M856.25,-558.5C870.07,-558.5 885.37,-558.5 899.31,-558.5"/>
<polygon fill="#63b8ff" stroke="#63b8ff" points="899.67,-562 909.67,-558.5 899.67,-555 899.67,-562"/>
</a>
</g>
</g>
<!-- Node12 -->
<g id="Node000012" class="node">
<title>Node12</title>
<g id="a_Node000012"><a xlink:href="classMsg.html#a5be9f4dd643f5f662e8fb3c029273390" target="_top" xlink:title=" ">
<polygon fill="white" stroke="#666666" points="667.5,-493 612.5,-493 612.5,-474 667.5,-474 667.5,-493"/>
<text text-anchor="middle" x="640" y="-481" font-family="Ubuntu Mono" font-size="10.00">Msg::e1</text>
</a>
</g>
</g>
<!-- Node11&#45;&gt;Node12 -->
<g id="edge13_Node000011_Node000012" class="edge">
<title>Node11&#45;&gt;Node12</title>
<g id="a_edge13_Node000011_Node000012"><a xlink:title=" ">
<path fill="none" stroke="#63b8ff" d="M513.01,-463.9C541.77,-468.37 576.4,-473.76 602.07,-477.76"/>
<polygon fill="#63b8ff" stroke="#63b8ff" points="601.71,-481.24 612.13,-479.32 602.79,-474.32 601.71,-481.24"/>
</a>
</g>
</g>
<!-- Node13 -->
<g id="Node000013" class="node">
<title>Node13</title>
<g id="a_Node000013"><a xlink:href="classMsg.html#a893ed6b44cd4c529f0f10af38ae6743a" target="_top" xlink:title=" ">
<polygon fill="white" stroke="#666666" points="667.5,-456 612.5,-456 612.5,-437 667.5,-437 667.5,-456"/>
<text text-anchor="middle" x="640" y="-444" font-family="Ubuntu Mono" font-size="10.00">Msg::e2</text>
</a>
</g>
</g>
<!-- Node11&#45;&gt;Node13 -->
<g id="edge14_Node000011_Node000013" class="edge">
<title>Node11&#45;&gt;Node13</title>
<g id="a_edge14_Node000011_Node000013"><a xlink:title=" ">
<path fill="none" stroke="#63b8ff" d="M513.01,-452.8C541.77,-451.36 576.4,-449.63 602.07,-448.35"/>
<polygon fill="#63b8ff" stroke="#63b8ff" points="602.32,-451.84 612.13,-447.84 601.97,-444.85 602.32,-451.84"/>
</a>
</g>
</g>
<!-- Node14 -->
<g id="Node000014" class="node">
<title>Node14</title>
<g id="a_Node000014"><a xlink:href="classElement.html#a0f7aa6c77f30cb8865cdd0a0dde03854" target="_top" xlink:title=" ">
<polygon fill="white" stroke="#666666" points="699,-419 581,-419 581,-400 699,-400 699,-419"/>
<text text-anchor="middle" x="640" y="-407" font-family="Ubuntu Mono" font-size="10.00">Element::findBinding</text>
</a>
</g>
</g>
<!-- Node11&#45;&gt;Node14 -->
<g id="edge15_Node000011_Node000014" class="edge">
<title>Node11&#45;&gt;Node14</title>
<g id="a_edge15_Node000011_Node000014"><a xlink:title=" ">
<path fill="none" stroke="#63b8ff" d="M488.42,-446C505.92,-440.52 528.61,-433.7 549,-428.5 559.08,-425.93 569.87,-423.43 580.34,-421.14"/>
<polygon fill="#63b8ff" stroke="#63b8ff" points="581.21,-424.54 590.25,-419.02 579.74,-417.69 581.21,-424.54"/>
</a>
</g>
</g>
<!-- Node11&#45;&gt;Node15 -->
<g id="edge16_Node000011_Node000015" class="edge">
<title>Node11&#45;&gt;Node15</title>
<g id="a_edge16_Node000011_Node000015"><a xlink:title=" ">
<path fill="none" stroke="#63b8ff" d="M474,-465.04C491.4,-475.69 521.24,-492.7 549,-502.5 562.05,-507.11 576.61,-510.66 590.14,-513.34"/>
<polygon fill="#63b8ff" stroke="#63b8ff" points="589.78,-516.84 600.26,-515.23 591.07,-509.96 589.78,-516.84"/>
</a>
</g>
</g>
<!-- Node19 -->
<g id="Node000019" class="node">
<title>Node19</title>
<g id="a_Node000019"><a xlink:href="classMsgFuncBinding.html#ad0172d166d6629ed092500ea64473eb5" target="_top" xlink:title=" ">
<polygon fill="white" stroke="#666666" points="731,-382 549,-382 549,-363 731,-363 731,-382"/>
<text text-anchor="middle" x="640" y="-370" font-family="Ubuntu Mono" font-size="10.00">MsgFuncBinding::MsgFuncBinding</text>
</a>
</g>
</g>
<!-- Node11&#45;&gt;Node19 -->
<g id="edge21_Node000011_Node000019" class="edge">
<title>Node11&#45;&gt;Node19</title>
<g id="a_edge21_Node000011_Node000019"><a xlink:title=" ">
<path fill="none" stroke="#63b8ff" d="M497.25,-445.9C502.8,-443.63 508.24,-440.86 513,-437.5 534.22,-422.54 526.97,-405.23 549,-391.5 552.41,-389.37 556.02,-387.48 559.75,-385.8"/>
<polygon fill="#63b8ff" stroke="#63b8ff" points="561.25,-388.97 569.26,-382.04 558.67,-382.47 561.25,-388.97"/>
</a>
</g>
</g>
<!-- Node21 -->
<g id="Node000021" class="node">
<title>Node21</title>
<g id="a_Node000021"><a xlink:href="classObjId.html#ab6b120d314aab5abc3ea8bb7ead5ae41" target="_top" xlink:title=" ">
<polygon fill="white" stroke="#666666" points="677,-345 603,-345 603,-326 677,-326 677,-345"/>
<text text-anchor="middle" x="640" y="-333" font-family="Ubuntu Mono" font-size="10.00">ObjId::ObjId</text>
</a>
</g>
</g>
<!-- Node11&#45;&gt;Node21 -->
<g id="edge23_Node000011_Node000021" class="edge">
<title>Node11&#45;&gt;Node21</title>
<g id="a_edge23_Node000011_Node000021"><a xlink:title=" ">
<path fill="none" stroke="#63b8ff" d="M500.28,-445.91C504.91,-443.67 509.28,-440.9 513,-437.5 542.65,-410.34 517.86,-379.93 549,-354.5 561.16,-344.57 577.25,-339.46 592.47,-336.94"/>
<polygon fill="#63b8ff" stroke="#63b8ff" points="593.34,-340.36 602.8,-335.58 592.43,-333.42 593.34,-340.36"/>
</a>
</g>
</g>
<!-- Node16 -->
<g id="Node000016" class="node">
<title>Node16</title>
<g id="a_Node000016"><a xlink:href="classObjId.html#a1e5933713d6a73550b0923cf63f5bfd8" target="_top" xlink:title=" ">
<polygon fill="white" stroke="#666666" points="846.5,-530 776.5,-530 776.5,-511 846.5,-511 846.5,-530"/>
<text text-anchor="middle" x="811.5" y="-518" font-family="Ubuntu Mono" font-size="10.00">ObjId::data</text>
</a>
</g>
</g>
<!-- Node15&#45;&gt;Node16 -->
<g id="edge17_Node000015_Node000016" class="edge">
<title>Node15&#45;&gt;Node16</title>
<g id="a_edge17_Node000015_Node000016"><a xlink:title=" ">
<path fill="none" stroke="#63b8ff" d="M679.89,-520.5C705.6,-520.5 739.37,-520.5 766.13,-520.5"/>
<polygon fill="#63b8ff" stroke="#63b8ff" points="766.39,-524 776.39,-520.5 766.39,-517 766.39,-524"/>
</a>
</g>
</g>
<!-- Node16&#45;&gt;Node4 -->
<g id="edge19_Node000016_Node000004" class="edge">
<title>Node16&#45;&gt;Node4</title>
<g id="a_edge19_Node000016_Node000004"><a xlink:title=" ">
<path fill="none" stroke="#63b8ff" d="M845.94,-530.09C862.88,-534.95 883.66,-540.91 901.81,-546.11"/>
<polygon fill="#63b8ff" stroke="#63b8ff" points="901,-549.52 911.58,-548.91 902.93,-542.79 901,-549.52"/>
</a>
</g>
</g>
<!-- Node17 -->
<g id="Node000017" class="node">
<title>Node17</title>
<g id="a_Node000017"><a xlink:href="classElement.html#a1978a0a584f1b10ea4a7c67e69880042" target="_top" xlink:title=" ">
<polygon fill="white" stroke="#666666" points="988.5,-531 903.5,-531 903.5,-512 988.5,-512 988.5,-531"/>
<text text-anchor="middle" x="946" y="-519" font-family="Ubuntu Mono" font-size="10.00">Element::data</text>
</a>
</g>
</g>
<!-- Node16&#45;&gt;Node17 -->
<g id="edge18_Node000016_Node000017" class="edge">
<title>Node16&#45;&gt;Node17</title>
<g id="a_edge18_Node000016_Node000017"><a xlink:title=" ">
<path fill="none" stroke="#63b8ff" d="M846.62,-520.76C860.84,-520.86 877.66,-520.99 893.33,-521.11"/>
<polygon fill="#63b8ff" stroke="#63b8ff" points="893.4,-524.61 903.43,-521.19 893.45,-517.61 893.4,-524.61"/>
</a>
</g>
</g>
<!-- Node18 -->
<g id="Node000018" class="node">
<title>Node18</title>
<g id="a_Node000018"><a xlink:href="classElement.html#a73a0e468a3d6cfd6475fff4a56459075" target="_top" xlink:title=" ">
<polygon fill="white" stroke="#666666" points="1000,-494 892,-494 892,-475 1000,-475 1000,-494"/>
<text text-anchor="middle" x="946" y="-482" font-family="Ubuntu Mono" font-size="10.00">Element::rawIndex</text>
</a>
</g>
</g>
<!-- Node16&#45;&gt;Node18 -->
<g id="edge20_Node000016_Node000018" class="edge">
<title>Node16&#45;&gt;Node18</title>
<g id="a_edge20_Node000016_Node000018"><a xlink:title=" ">
<path fill="none" stroke="#63b8ff" d="M846.62,-511.23C862.77,-506.84 882.29,-501.54 899.66,-496.82"/>
<polygon fill="#63b8ff" stroke="#63b8ff" points="900.87,-500.12 909.61,-494.12 899.04,-493.36 900.87,-500.12"/>
</a>
</g>
</g>
<!-- Node20 -->
<g id="Node000020" class="node">
<title>Node20</title>
<g id="a_Node000020"><a xlink:href="classObjId.html#a02a8374ceddca0d8f4a672005aef8ffc" target="_top" xlink:title=" ">
<polygon fill="white" stroke="#666666" points="848.5,-382 774.5,-382 774.5,-363 848.5,-363 848.5,-382"/>
<text text-anchor="middle" x="811.5" y="-370" font-family="Ubuntu Mono" font-size="10.00">ObjId::ObjId</text>
</a>
</g>
</g>
<!-- Node19&#45;&gt;Node20 -->
<g id="edge22_Node000019_Node000020" class="edge">
<title>Node19&#45;&gt;Node20</title>
<g id="a_edge22_Node000019_Node000020"><a xlink:title=" ">
<path fill="none" stroke="#63b8ff" d="M731.21,-372.5C742.71,-372.5 754.08,-372.5 764.46,-372.5"/>
<polygon fill="#63b8ff" stroke="#63b8ff" points="764.48,-376 774.48,-372.5 764.48,-369 764.48,-376"/>
</a>
</g>
</g>
<!-- Node28&#45;&gt;Node27 -->
<g id="edge32_Node000028_Node000027" class="edge">
<title>Node28&#45;&gt;Node27</title>
<g id="a_edge32_Node000028_Node000027"><a xlink:title=" ">
<path fill="none" stroke="#63b8ff" d="M495.43,-87.34C528.87,-90.88 577.85,-96.04 609.07,-99.34"/>
<polygon fill="#63b8ff" stroke="#63b8ff" points="609.01,-102.85 619.32,-100.42 609.74,-95.89 609.01,-102.85"/>
</a>
</g>
</g>
<!-- Node29&#45;&gt;Node21 -->
<g id="edge35_Node000029_Node000021" class="edge">
<title>Node29&#45;&gt;Node21</title>
<g id="a_edge35_Node000029_Node000021"><a xlink:title=" ">
<path fill="none" stroke="#63b8ff" d="M490.77,-342.91C519.09,-341.5 560.9,-339.41 592.9,-337.81"/>
<polygon fill="#63b8ff" stroke="#63b8ff" points="593.1,-341.3 602.91,-337.3 592.75,-334.31 593.1,-341.3"/>
</a>
</g>
</g>
<!-- Node30 -->
<g id="Node000030" class="node">
<title>Node30</title>
<g id="a_Node000030"><a xlink:href="classElement.html#a934907c01faf58e21f545d53a54cfefc" target="_top" xlink:title=" ">
<polygon fill="white" stroke="#666666" points="676,-308 604,-308 604,-289 676,-289 676,-308"/>
<text text-anchor="middle" x="640" y="-296" font-family="Ubuntu Mono" font-size="10.00">Element::id</text>
</a>
</g>
</g>
<!-- Node29&#45;&gt;Node30 -->
<g id="edge34_Node000029_Node000030" class="edge">
<title>Node29&#45;&gt;Node30</title>
<g id="a_edge34_Node000029_Node000030"><a xlink:title=" ">
<path fill="none" stroke="#63b8ff" d="M488.42,-335C505.92,-329.52 528.61,-322.7 549,-317.5 563.44,-313.82 579.32,-310.29 593.66,-307.3"/>
<polygon fill="#63b8ff" stroke="#63b8ff" points="594.7,-310.66 603.8,-305.22 593.3,-303.8 594.7,-310.66"/>
</a>
</g>
</g>
<!-- Node33 -->
<g id="Node000033" class="node">
<title>Node33</title>
<g id="a_Node000033"><a xlink:href="classId.html#a38206d79367649ab0056b93e6da3b789" target="_top" xlink:title=" ">
<polygon fill="white" stroke="#666666" points="684.5,-19 595.5,-19 595.5,0 684.5,0 684.5,-19"/>
<text text-anchor="middle" x="640" y="-7" font-family="Ubuntu Mono" font-size="10.00">Id::operator==</text>
</a>
</g>
</g>
<!-- Node32&#45;&gt;Node33 -->
<g id="edge38_Node000032_Node000033" class="edge">
<title>Node32&#45;&gt;Node33</title>
<g id="a_edge38_Node000032_Node000033"><a xlink:title=" ">
<path fill="none" stroke="#63b8ff" d="M511.06,-9.5C534.31,-9.5 561.68,-9.5 585.14,-9.5"/>
<polygon fill="#63b8ff" stroke="#63b8ff" points="585.26,-13 595.26,-9.5 585.26,-6 585.26,-13"/>
</a>
</g>
</g>
</g>
</svg>
