<?xml version="1.0" encoding="UTF-8" standalone="no"?>
<!DOCTYPE svg PUBLIC "-//W3C//DTD SVG 1.1//EN"
 "http://www.w3.org/Graphics/SVG/1.1/DTD/svg11.dtd">
<!-- Generated by graphviz version 2.43.0 (0)
 -->
<!-- Title: MMEnzymeBase::setKm Pages: 1 -->
<svg width="325pt" height="64pt"
 viewBox="0.00 0.00 325.00 64.00" xmlns="http://www.w3.org/2000/svg" xmlns:xlink="http://www.w3.org/1999/xlink">
<g id="graph0" class="graph" transform="scale(1 1) rotate(0) translate(4 60)">
<title>MMEnzymeBase::setKm</title>
<!-- Node1 -->
<g id="Node000001" class="node">
<title>Node1</title>
<g id="a_Node000001"><a xlink:title=" ">
<polygon fill="#999999" stroke="#666666" points="317,-37 182,-37 182,-18 317,-18 317,-37"/>
<text text-anchor="middle" x="249.5" y="-25" font-family="Ubuntu Mono" font-size="10.00">MMEnzymeBase::setKm</text>
</a>
</g>
</g>
<!-- Node2 -->
<g id="Node000002" class="node">
<title>Node2</title>
<g id="a_Node000002"><a xlink:href="classMMEnzymeBase.html#abbb0f107f94834cd81792bc6ad63aa3b" target="_top" xlink:title="Used by Zombie to assign rate terms.">
<polygon fill="white" stroke="#666666" points="138.5,-56 7.5,-56 7.5,-37 138.5,-37 138.5,-56"/>
<text text-anchor="middle" x="73" y="-44" font-family="Ubuntu Mono" font-size="10.00">MMEnzymeBase::setR1</text>
</a>
</g>
</g>
<!-- Node1&#45;&gt;Node2 -->
<g id="edge1_Node000001_Node000002" class="edge">
<title>Node1&#45;&gt;Node2</title>
<g id="a_edge1_Node000001_Node000002"><a xlink:title=" ">
<path fill="none" stroke="#63b8ff" d="M171.56,-35.88C160.62,-37.07 149.46,-38.28 138.78,-39.45"/>
<polygon fill="#63b8ff" stroke="#63b8ff" points="171.97,-39.35 181.53,-34.79 171.21,-32.39 171.97,-39.35"/>
</a>
</g>
</g>
<!-- Node3 -->
<g id="Node000003" class="node">
<title>Node3</title>
<g id="a_Node000003"><a xlink:href="classMMEnzymeBase.html#a17f0f7659bae0ce980177c347532b93b" target="_top" xlink:title=" ">
<polygon fill="white" stroke="#666666" points="146,-19 0,-19 0,0 146,0 146,-19"/>
<text text-anchor="middle" x="73" y="-7" font-family="Ubuntu Mono" font-size="10.00">MMEnzymeBase::setRates</text>
</a>
</g>
</g>
<!-- Node1&#45;&gt;Node3 -->
<g id="edge2_Node000001_Node000003" class="edge">
<title>Node1&#45;&gt;Node3</title>
<g id="a_edge2_Node000001_Node000003"><a xlink:title=" ">
<path fill="none" stroke="#63b8ff" d="M171.34,-19.54C162.92,-18.67 154.37,-17.79 146.01,-16.93"/>
<polygon fill="#63b8ff" stroke="#63b8ff" points="171.23,-23.05 181.53,-20.59 171.94,-16.08 171.23,-23.05"/>
</a>
</g>
</g>
</g>
</svg>
