<?xml version="1.0" encoding="UTF-8" standalone="no"?>
<!DOCTYPE svg PUBLIC "-//W3C//DTD SVG 1.1//EN"
 "http://www.w3.org/Graphics/SVG/1.1/DTD/svg11.dtd">
<!-- Generated by graphviz version 2.43.0 (0)
 -->
<!-- Title: CylBase::getDia Pages: 1 -->
<!--zoomable 335 -->

<svg id="main" version="1.1" xmlns="http://www.w3.org/2000/svg" xmlns:xlink="http://www.w3.org/1999/xlink" xml:space="preserve" onload="init(evt)">
<style type="text/css"><![CDATA[
.node, .edge {opacity: 0.7;}
.node.selected, .edge.selected {opacity: 1;}
.edge:hover path { stroke: red; }
.edge:hover polygon { stroke: red; fill: red; }
]]></style>

<defs>
  <circle id="rim" cx="0" cy="0" r="7"/>
  <circle id="rim2" cx="0" cy="0" r="3.5"/>
  <g id="zoomPlus">
    <use xlink:href="#rim" fill="#404040"><set attributeName="fill" to="#808080" begin="zoomplus.mouseover" end="zoomplus.mouseout"/></use>
    <path d="M-4,0h8M0,-4v8" fill="none" stroke="white" stroke-width="1.5" pointer-events="none"/>
  </g>
  <g id="zoomMin">
    <use xlink:href="#rim" fill="#404040"><set attributeName="fill" to="#808080" begin="zoomminus.mouseover" end="zoomminus.mouseout"/></use>
    <path d="M-4,0h8" fill="none" stroke="white" stroke-width="1.5" pointer-events="none"/>
  </g>
  <g id="arrowUp" transform="translate(30 24)">
    <use xlink:href="#rim"/>
    <path pointer-events="none" fill="none" stroke="white" stroke-width="1.5" d="M0,-3.0v7 M-2.5,-0.5L0,-3.0L2.5,-0.5"/>
  </g>
  <g id="arrowRight" transform="rotate(90) translate(36 -43)">
    <use xlink:href="#rim"/>
    <path pointer-events="none" fill="none" stroke="white" stroke-width="1.5" d="M0,-3.0v7 M-2.5,-0.5L0,-3.0L2.5,-0.5"/>
  </g>
  <g id="arrowDown" transform="rotate(180) translate(-30 -48)">
    <use xlink:href="#rim"/>
    <path pointer-events="none" fill="none" stroke="white" stroke-width="1.5" d="M0,-3.0v7 M-2.5,-0.5L0,-3.0L2.5,-0.5"/>
  </g>
  <g id="arrowLeft" transform="rotate(270) translate(-36 17)">
    <use xlink:href="#rim"/>
    <path pointer-events="none" fill="none" stroke="white" stroke-width="1.5" d="M0,-3.0v7 M-2.5,-0.5L0,-3.0L2.5,-0.5"/>
  </g>
  <g id="resetDef">
    <use xlink:href="#rim2" fill="#404040"><set attributeName="fill" to="#808080" begin="reset.mouseover" end="reset.mouseout"/></use>
  </g>
</defs>
<script type="application/ecmascript">
var viewWidth = 1078;
var viewHeight = 335;
var sectionId = 'dynsection-4';
</script>
<script type="application/ecmascript" xlink:href="svg.min.js"/>
<svg id="graph" class="graph">
<g id="viewport">
<title>CylBase::getDia</title>
<!-- Node1 -->
<g id="Node000001" class="node">
<title>Node1</title>
<g id="a_Node000001"><a xlink:title=" ">
<polygon fill="#999999" stroke="#666666" points="1070,-179 975,-179 975,-160 1070,-160 1070,-179"/>
<text text-anchor="middle" x="1022.5" y="-167" font-family="Ubuntu Mono" font-size="10.00">CylBase::getDia</text>
</a>
</g>
</g>
<!-- Node2 -->
<g id="Node000002" class="node">
<title>Node2</title>
<g id="a_Node000002"><a xlink:href="classNeuroNode.html#a404d2f350d2feaa18e9fa37b2a2349f1" target="_top" xlink:title=" ">
<polygon fill="white" stroke="#666666" points="923,-327 779,-327 779,-308 923,-308 923,-327"/>
<text text-anchor="middle" x="851" y="-315" font-family="Ubuntu Mono" font-size="10.00">NeuroNode::findStartNode</text>
</a>
</g>
</g>
<!-- Node1&#45;&gt;Node2 -->
<g id="edge1_Node000001_Node000002" class="edge">
<title>Node1&#45;&gt;Node2</title>
<g id="a_edge1_Node000001_Node000002"><a xlink:title=" ">
<path fill="none" stroke="#63b8ff" d="M1014.8,-188.98C1003.78,-217.94 978.97,-271.88 939,-299.5 934.05,-302.92 928.59,-305.72 922.89,-308"/>
<polygon fill="#63b8ff" stroke="#63b8ff" points="1018.22,-189.81 1018.35,-179.21 1011.64,-187.42 1018.22,-189.81"/>
</a>
</g>
</g>
<!-- Node7 -->
<g id="Node000007" class="node">
<title>Node7</title>
<g id="a_Node000007"><a xlink:href="classPsdMesh.html#a52f73354e225e22cb9596837e8edd926" target="_top" xlink:title="Virtual function to return coords of mesh Entry.">
<polygon fill="white" stroke="#666666" points="921,-290 781,-290 781,-271 921,-271 921,-290"/>
<text text-anchor="middle" x="851" y="-278" font-family="Ubuntu Mono" font-size="10.00">PsdMesh::getCoordinates</text>
</a>
</g>
</g>
<!-- Node1&#45;&gt;Node7 -->
<g id="edge7_Node000001_Node000007" class="edge">
<title>Node1&#45;&gt;Node7</title>
<g id="a_edge7_Node000001_Node000007"><a xlink:title=" ">
<path fill="none" stroke="#63b8ff" d="M1010.54,-187.76C996.68,-209.2 970.73,-244.14 939,-262.5 933.13,-265.9 926.7,-268.66 920.09,-270.91"/>
<polygon fill="#63b8ff" stroke="#63b8ff" points="1013.54,-189.57 1015.88,-179.23 1007.61,-185.85 1013.54,-189.57"/>
</a>
</g>
</g>
<!-- Node8 -->
<g id="Node000008" class="node">
<title>Node8</title>
<g id="a_Node000008"><a xlink:href="classNeuroMesh.html#a71aa45e785032672bd4a653c95c1d2fd" target="_top" xlink:title="Inherited virtual func.">
<polygon fill="white" stroke="#666666" points="939,-253 763,-253 763,-234 939,-234 939,-253"/>
<text text-anchor="middle" x="851" y="-241" font-family="Ubuntu Mono" font-size="10.00">NeuroMesh::innerSetNumEntries</text>
</a>
</g>
</g>
<!-- Node1&#45;&gt;Node8 -->
<g id="edge8_Node000001_Node000008" class="edge">
<title>Node1&#45;&gt;Node8</title>
<g id="a_edge8_Node000001_Node000008"><a xlink:title=" ">
<path fill="none" stroke="#63b8ff" d="M1002.6,-185.53C986.64,-198.25 962.68,-215.49 939,-225.5 930.9,-228.93 922.1,-231.72 913.3,-233.99"/>
<polygon fill="#63b8ff" stroke="#63b8ff" points="1005.05,-188.05 1010.59,-179.01 1000.63,-182.63 1005.05,-188.05"/>
</a>
</g>
</g>
<!-- Node9 -->
<g id="Node000009" class="node">
<title>Node9</title>
<g id="a_Node000009"><a xlink:href="classSpineEntry.html#a5b7f056b01931bf094e7e814c335a767" target="_top" xlink:title=" ">
<polygon fill="white" stroke="#666666" points="913.5,-216 788.5,-216 788.5,-197 913.5,-197 913.5,-216"/>
<text text-anchor="middle" x="851" y="-204" font-family="Ubuntu Mono" font-size="10.00">SpineEntry::psdCoords</text>
</a>
</g>
</g>
<!-- Node1&#45;&gt;Node9 -->
<g id="edge9_Node000001_Node000009" class="edge">
<title>Node1&#45;&gt;Node9</title>
<g id="a_edge9_Node000001_Node000009"><a xlink:title=" ">
<path fill="none" stroke="#63b8ff" d="M970.93,-181.34C960.38,-183.75 949.34,-186.24 939,-188.5 926.04,-191.33 911.97,-194.29 899,-196.98"/>
<polygon fill="#63b8ff" stroke="#63b8ff" points="971.88,-184.71 980.84,-179.05 970.31,-177.89 971.88,-184.71"/>
</a>
</g>
</g>
<!-- Node11 -->
<g id="Node000011" class="node">
<title>Node11</title>
<g id="a_Node000011"><a xlink:href="classSpineEntry.html#a22b2d8e3fd0ba94cbaa0363f790941be" target="_top" xlink:title=" ">
<polygon fill="white" stroke="#666666" points="909,-179 793,-179 793,-160 909,-160 909,-179"/>
<text text-anchor="middle" x="851" y="-167" font-family="Ubuntu Mono" font-size="10.00">SpineEntry::rootArea</text>
</a>
</g>
</g>
<!-- Node1&#45;&gt;Node11 -->
<g id="edge12_Node000001_Node000011" class="edge">
<title>Node1&#45;&gt;Node11</title>
<g id="a_edge12_Node000001_Node000011"><a xlink:title=" ">
<path fill="none" stroke="#63b8ff" d="M964.73,-169.5C946.85,-169.5 927.09,-169.5 909.18,-169.5"/>
<polygon fill="#63b8ff" stroke="#63b8ff" points="964.73,-173 974.73,-169.5 964.73,-166 964.73,-173"/>
</a>
</g>
</g>
<!-- Node17 -->
<g id="Node000017" class="node">
<title>Node17</title>
<g id="a_Node000017"><a xlink:href="classSpineEntry.html#a0429ac84199b947d7e903d6f551bbca7" target="_top" xlink:title=" ">
<polygon fill="white" stroke="#666666" points="914,-142 788,-142 788,-123 914,-123 914,-142"/>
<text text-anchor="middle" x="851" y="-130" font-family="Ubuntu Mono" font-size="10.00">SpineEntry::setVolume</text>
</a>
</g>
</g>
<!-- Node1&#45;&gt;Node17 -->
<g id="edge18_Node000001_Node000017" class="edge">
<title>Node1&#45;&gt;Node17</title>
<g id="a_edge18_Node000001_Node000017"><a xlink:title=" ">
<path fill="none" stroke="#63b8ff" d="M970.93,-157.66C960.38,-155.25 949.34,-152.76 939,-150.5 926.04,-147.67 911.97,-144.71 899,-142.02"/>
<polygon fill="#63b8ff" stroke="#63b8ff" points="970.31,-161.11 980.84,-159.95 971.88,-154.29 970.31,-161.11"/>
</a>
</g>
</g>
<!-- Node20 -->
<g id="Node000020" class="node">
<title>Node20</title>
<g id="a_Node000020"><a xlink:href="classSpineEntry.html#ab962d187d8d3ff486c7382b073ca3e91" target="_top" xlink:title=" ">
<polygon fill="white" stroke="#666666" points="918,-105 784,-105 784,-86 918,-86 918,-105"/>
<text text-anchor="middle" x="851" y="-93" font-family="Ubuntu Mono" font-size="10.00">SpineEntry::spineCoords</text>
</a>
</g>
</g>
<!-- Node1&#45;&gt;Node20 -->
<g id="edge21_Node000001_Node000020" class="edge">
<title>Node1&#45;&gt;Node20</title>
<g id="a_edge21_Node000001_Node000020"><a xlink:title=" ">
<path fill="none" stroke="#63b8ff" d="M1002.6,-153.47C986.64,-140.75 962.68,-123.51 939,-113.5 930.9,-110.07 922.1,-107.28 913.3,-105.01"/>
<polygon fill="#63b8ff" stroke="#63b8ff" points="1000.63,-156.37 1010.59,-159.99 1005.05,-150.95 1000.63,-156.37"/>
</a>
</g>
</g>
<!-- Node22 -->
<g id="Node000022" class="node">
<title>Node22</title>
<g id="a_Node000022"><a xlink:href="classNeuroMesh.html#af927c307d1eaf9cb408f9d7d64ea7172" target="_top" xlink:title=" ">
<polygon fill="white" stroke="#666666" points="928,-67.5 774,-67.5 774,-37.5 928,-37.5 928,-67.5"/>
<text text-anchor="start" x="782" y="-55.5" font-family="Ubuntu Mono" font-size="10.00">NeuroMesh::vSetVolumeNot</text>
<text text-anchor="middle" x="851" y="-44.5" font-family="Ubuntu Mono" font-size="10.00">Rates</text>
</a>
</g>
</g>
<!-- Node1&#45;&gt;Node22 -->
<g id="edge23_Node000001_Node000022" class="edge">
<title>Node1&#45;&gt;Node22</title>
<g id="a_edge23_Node000001_Node000022"><a xlink:title=" ">
<path fill="none" stroke="#63b8ff" d="M1010.14,-151.3C996.03,-130.18 969.98,-95.8 939,-76.5 933.55,-73.1 927.61,-70.18 921.48,-67.66"/>
<polygon fill="#63b8ff" stroke="#63b8ff" points="1007.39,-153.48 1015.76,-159.97 1013.26,-149.67 1007.39,-153.48"/>
</a>
</g>
</g>
<!-- Node23 -->
<g id="Node000023" class="node">
<title>Node23</title>
<g id="a_Node000023"><a xlink:href="classPsdMesh.html#a2109fadf54e64876cf31aa7a0b33e214" target="_top" xlink:title="Inherited virtual func.">
<polygon fill="white" stroke="#666666" points="936,-19 766,-19 766,0 936,0 936,-19"/>
<text text-anchor="middle" x="851" y="-7" font-family="Ubuntu Mono" font-size="10.00">PsdMesh::vSetVolumeNotRates</text>
</a>
</g>
</g>
<!-- Node1&#45;&gt;Node23 -->
<g id="edge24_Node000001_Node000023" class="edge">
<title>Node1&#45;&gt;Node23</title>
<g id="a_edge24_Node000001_Node000023"><a xlink:title=" ">
<path fill="none" stroke="#63b8ff" d="M1015.81,-150.18C1005.68,-119.35 981.49,-59.36 939,-28.5 933.75,-24.68 927.87,-21.61 921.73,-19.13"/>
<polygon fill="#63b8ff" stroke="#63b8ff" points="1012.48,-151.28 1018.81,-159.77 1019.16,-149.18 1012.48,-151.28"/>
</a>
</g>
</g>
<!-- Node3 -->
<g id="Node000003" class="node">
<title>Node3</title>
<g id="a_Node000003"><a xlink:href="classNeuroNode.html#a3f4fe78639e7175e0a9e157c937fe4f7" target="_top" xlink:title=" ">
<polygon fill="white" stroke="#666666" points="698.5,-321 576.5,-321 576.5,-302 698.5,-302 698.5,-321"/>
<text text-anchor="middle" x="637.5" y="-309" font-family="Ubuntu Mono" font-size="10.00">NeuroNode::buildTree</text>
</a>
</g>
</g>
<!-- Node2&#45;&gt;Node3 -->
<g id="edge2_Node000002_Node000003" class="edge">
<title>Node2&#45;&gt;Node3</title>
<g id="a_edge2_Node000002_Node000003"><a xlink:title=" ">
<path fill="none" stroke="#63b8ff" d="M768.77,-315.2C745.48,-314.54 720.52,-313.83 698.73,-313.21"/>
<polygon fill="#63b8ff" stroke="#63b8ff" points="768.89,-318.7 778.99,-315.49 769.09,-311.7 768.89,-318.7"/>
</a>
</g>
</g>
<!-- Node4 -->
<g id="Node000004" class="node">
<title>Node4</title>
<g id="a_Node000004"><a xlink:href="classNeuroMesh.html#a35e1c3ce3edeae2652b9d5ee2729f9df" target="_top" xlink:title=" ">
<polygon fill="white" stroke="#666666" points="493,-277 362,-277 362,-258 493,-258 493,-277"/>
<text text-anchor="middle" x="427.5" y="-265" font-family="Ubuntu Mono" font-size="10.00">NeuroMesh::setSubTree</text>
</a>
</g>
</g>
<!-- Node3&#45;&gt;Node4 -->
<g id="edge3_Node000003_Node000004" class="edge">
<title>Node3&#45;&gt;Node4</title>
<g id="a_edge3_Node000003_Node000004"><a xlink:title=" ">
<path fill="none" stroke="#63b8ff" d="M581.23,-299.81C547.58,-292.69 505.14,-283.71 473.54,-277.03"/>
<polygon fill="#63b8ff" stroke="#63b8ff" points="580.86,-303.31 591.37,-301.95 582.31,-296.46 580.86,-303.31"/>
</a>
</g>
</g>
<!-- Node5 -->
<g id="Node000005" class="node">
<title>Node5</title>
<g id="a_Node000005"><a xlink:href="classNeuroMesh.html#a131784a1f5af526113a98464ab4c4357" target="_top" xlink:title=" ">
<polygon fill="white" stroke="#666666" points="119,-277 0,-277 0,-258 119,-258 119,-277"/>
<text text-anchor="middle" x="59.5" y="-265" font-family="Ubuntu Mono" font-size="10.00">NeuroMesh::initCinfo</text>
</a>
</g>
</g>
<!-- Node4&#45;&gt;Node5 -->
<g id="edge4_Node000004_Node000005" class="edge">
<title>Node4&#45;&gt;Node5</title>
<g id="a_edge4_Node000004_Node000005"><a xlink:title=" ">
<path fill="none" stroke="#63b8ff" d="M351.57,-267.5C282.73,-267.5 182.1,-267.5 119.01,-267.5"/>
<polygon fill="#63b8ff" stroke="#63b8ff" points="351.91,-271 361.91,-267.5 351.91,-264 351.91,-271"/>
</a>
</g>
</g>
<!-- Node6 -->
<g id="Node000006" class="node">
<title>Node6</title>
<g id="a_Node000006"><a xlink:href="classNeuroMesh.html#a5544eb3267ffffc2ba356d50ec2a4633" target="_top" xlink:title=" ">
<polygon fill="white" stroke="#666666" points="307,-258 155,-258 155,-239 307,-239 307,-258"/>
<text text-anchor="middle" x="231" y="-246" font-family="Ubuntu Mono" font-size="10.00">NeuroMesh::setSubTreePath</text>
</a>
</g>
</g>
<!-- Node4&#45;&gt;Node6 -->
<g id="edge5_Node000004_Node000006" class="edge">
<title>Node4&#45;&gt;Node6</title>
<g id="a_edge5_Node000004_Node000006"><a xlink:title=" ">
<path fill="none" stroke="#63b8ff" d="M351.76,-260.2C337.17,-258.77 321.86,-257.28 307.26,-255.85"/>
<polygon fill="#63b8ff" stroke="#63b8ff" points="351.44,-263.68 361.73,-261.17 352.12,-256.72 351.44,-263.68"/>
</a>
</g>
</g>
<!-- Node6&#45;&gt;Node5 -->
<g id="edge6_Node000006_Node000005" class="edge">
<title>Node6&#45;&gt;Node5</title>
<g id="a_edge6_Node000006_Node000005"><a xlink:title=" ">
<path fill="none" stroke="#63b8ff" d="M144.56,-258.08C135.93,-259.04 127.31,-260.01 119.06,-260.94"/>
<polygon fill="#63b8ff" stroke="#63b8ff" points="145.12,-261.54 154.67,-256.94 144.34,-254.58 145.12,-261.54"/>
</a>
</g>
</g>
<!-- Node10 -->
<g id="Node000010" class="node">
<title>Node10</title>
<g id="a_Node000010"><a xlink:href="classNeuroMesh.html#a0e774aa59d4aafb215c2723d2040830a" target="_top" xlink:title=" ">
<polygon fill="white" stroke="#666666" points="720,-271 555,-271 555,-252 720,-252 720,-271"/>
<text text-anchor="middle" x="637.5" y="-259" font-family="Ubuntu Mono" font-size="10.00">NeuroMesh::transmitSpineInfo</text>
</a>
</g>
</g>
<!-- Node9&#45;&gt;Node10 -->
<g id="edge10_Node000009_Node000010" class="edge">
<title>Node9&#45;&gt;Node10</title>
<g id="a_edge10_Node000009_Node000010"><a xlink:title=" ">
<path fill="none" stroke="#63b8ff" d="M791.92,-218.28C782.22,-220.51 772.29,-222.94 763,-225.5 746.74,-229.97 743.15,-232.62 727,-237.5 710.24,-242.56 691.54,-247.71 675.66,-251.93"/>
<polygon fill="#63b8ff" stroke="#63b8ff" points="792.92,-221.64 801.91,-216.04 791.39,-214.81 792.92,-221.64"/>
</a>
</g>
</g>
<!-- Node10&#45;&gt;Node4 -->
<g id="edge11_Node000010_Node000004" class="edge">
<title>Node10&#45;&gt;Node4</title>
<g id="a_edge11_Node000010_Node000004"><a xlink:title=" ">
<path fill="none" stroke="#63b8ff" d="M544.72,-264.15C527.34,-264.65 509.5,-265.16 493.17,-265.63"/>
<polygon fill="#63b8ff" stroke="#63b8ff" points="544.99,-267.64 554.89,-263.85 544.79,-260.64 544.99,-267.64"/>
</a>
</g>
</g>
<!-- Node12 -->
<g id="Node000012" class="node">
<title>Node12</title>
<g id="a_Node000012"><a xlink:href="classSpineMesh.html#abf7db6994f920d5966037928321fe3c5" target="_top" xlink:title=" ">
<polygon fill="white" stroke="#666666" points="714,-228 561,-228 561,-209 714,-209 714,-228"/>
<text text-anchor="middle" x="637.5" y="-216" font-family="Ubuntu Mono" font-size="10.00">SpineMesh::handleSpineList</text>
</a>
</g>
</g>
<!-- Node11&#45;&gt;Node12 -->
<g id="edge13_Node000011_Node000012" class="edge">
<title>Node11&#45;&gt;Node12</title>
<g id="a_edge13_Node000011_Node000012"><a xlink:title=" ">
<path fill="none" stroke="#63b8ff" d="M792.98,-181.25C782.96,-183.52 772.65,-185.98 763,-188.5 746.81,-192.73 743.19,-195.3 727,-199.5 713.92,-202.9 699.64,-206.15 686.44,-208.98"/>
<polygon fill="#63b8ff" stroke="#63b8ff" points="793.87,-184.64 802.88,-179.06 792.35,-177.81 793.87,-184.64"/>
</a>
</g>
</g>
<!-- Node14 -->
<g id="Node000014" class="node">
<title>Node14</title>
<g id="a_Node000014"><a xlink:href="classSpineMesh.html#a0e2e7d002152dfc0562accc9932e8a00" target="_top" xlink:title=" ">
<polygon fill="white" stroke="#666666" points="718.5,-190.5 556.5,-190.5 556.5,-160.5 718.5,-160.5 718.5,-190.5"/>
<text text-anchor="start" x="564.5" y="-178.5" font-family="Ubuntu Mono" font-size="10.00">SpineMesh::matchNeuroMesh</text>
<text text-anchor="middle" x="637.5" y="-167.5" font-family="Ubuntu Mono" font-size="10.00">Entries</text>
</a>
</g>
</g>
<!-- Node11&#45;&gt;Node14 -->
<g id="edge15_Node000011_Node000014" class="edge">
<title>Node11&#45;&gt;Node14</title>
<g id="a_edge15_Node000011_Node000014"><a xlink:title=" ">
<path fill="none" stroke="#63b8ff" d="M782.68,-171.41C762.37,-171.99 739.87,-172.62 718.81,-173.22"/>
<polygon fill="#63b8ff" stroke="#63b8ff" points="782.87,-174.91 792.77,-171.12 782.67,-167.91 782.87,-174.91"/>
</a>
</g>
</g>
<!-- Node13 -->
<g id="Node000013" class="node">
<title>Node13</title>
<g id="a_Node000013"><a xlink:href="classSpineMesh.html#ae7bb51c2e7cf67fe3df6881eb256c4f4" target="_top" xlink:title=" ">
<polygon fill="white" stroke="#666666" points="486,-228 369,-228 369,-209 486,-209 486,-228"/>
<text text-anchor="middle" x="427.5" y="-216" font-family="Ubuntu Mono" font-size="10.00">SpineMesh::initCinfo</text>
</a>
</g>
</g>
<!-- Node12&#45;&gt;Node13 -->
<g id="edge14_Node000012_Node000013" class="edge">
<title>Node12&#45;&gt;Node13</title>
<g id="a_edge14_Node000012_Node000013"><a xlink:title=" ">
<path fill="none" stroke="#63b8ff" d="M550.61,-218.5C528.9,-218.5 506.12,-218.5 486.18,-218.5"/>
<polygon fill="#63b8ff" stroke="#63b8ff" points="550.82,-222 560.82,-218.5 550.82,-215 550.82,-222"/>
</a>
</g>
</g>
<!-- Node15 -->
<g id="Node000015" class="node">
<title>Node15</title>
<g id="a_Node000015"><a xlink:href="classNeuroMesh.html#a87f8811cba83e45b1a24c8da92aa0fc0" target="_top" xlink:title=" ">
<polygon fill="white" stroke="#666666" points="512,-188 343,-188 343,-169 512,-169 512,-188"/>
<text text-anchor="middle" x="427.5" y="-176" font-family="Ubuntu Mono" font-size="10.00">NeuroMesh::matchMeshEntries</text>
</a>
</g>
</g>
<!-- Node14&#45;&gt;Node15 -->
<g id="edge16_Node000014_Node000015" class="edge">
<title>Node14&#45;&gt;Node15</title>
<g id="a_edge16_Node000014_Node000015"><a xlink:title=" ">
<path fill="none" stroke="#63b8ff" d="M546.07,-176.8C534.75,-176.97 523.22,-177.13 512.02,-177.3"/>
<polygon fill="#63b8ff" stroke="#63b8ff" points="546.43,-180.3 556.38,-176.66 546.33,-173.3 546.43,-180.3"/>
</a>
</g>
</g>
<!-- Node16 -->
<g id="Node000016" class="node">
<title>Node16</title>
<g id="a_Node000016"><a xlink:href="classSpineMesh.html#a64e7b686dbb5cbda0c92b0e4dfc43393" target="_top" xlink:title=" ">
<polygon fill="white" stroke="#666666" points="511,-151 344,-151 344,-132 511,-132 511,-151"/>
<text text-anchor="middle" x="427.5" y="-139" font-family="Ubuntu Mono" font-size="10.00">SpineMesh::matchMeshEntries</text>
</a>
</g>
</g>
<!-- Node14&#45;&gt;Node16 -->
<g id="edge17_Node000014_Node000016" class="edge">
<title>Node14&#45;&gt;Node16</title>
<g id="a_edge17_Node000014_Node000016"><a xlink:title=" ">
<path fill="none" stroke="#63b8ff" d="M546.49,-160.79C526.21,-157.47 505.2,-154.04 486.63,-151"/>
<polygon fill="#63b8ff" stroke="#63b8ff" points="545.95,-164.24 556.38,-162.4 547.07,-157.34 545.95,-164.24"/>
</a>
</g>
</g>
<!-- Node18 -->
<g id="Node000018" class="node">
<title>Node18</title>
<g id="a_Node000018"><a xlink:href="classSpineMesh.html#ae4b57e5a3263c1e018d97f294775ac73" target="_top" xlink:title="Virtual function to assign volume of mesh Entry.">
<polygon fill="white" stroke="#666666" points="727,-142 548,-142 548,-123 727,-123 727,-142"/>
<text text-anchor="middle" x="637.5" y="-130" font-family="Ubuntu Mono" font-size="10.00">SpineMesh::setMeshEntryVolume</text>
</a>
</g>
</g>
<!-- Node17&#45;&gt;Node18 -->
<g id="edge19_Node000017_Node000018" class="edge">
<title>Node17&#45;&gt;Node18</title>
<g id="a_edge19_Node000017_Node000018"><a xlink:title=" ">
<path fill="none" stroke="#63b8ff" d="M777.52,-132.5C761.33,-132.5 743.98,-132.5 727.22,-132.5"/>
<polygon fill="#63b8ff" stroke="#63b8ff" points="777.97,-136 787.97,-132.5 777.97,-129 777.97,-136"/>
</a>
</g>
</g>
<!-- Node19 -->
<g id="Node000019" class="node">
<title>Node19</title>
<g id="a_Node000019"><a xlink:href="classSpineMesh.html#aea134dd6fb52a768e819e8d2574cab69" target="_top" xlink:title="Inherited virtual func.">
<polygon fill="white" stroke="#666666" points="713.5,-104.5 561.5,-104.5 561.5,-74.5 713.5,-74.5 713.5,-104.5"/>
<text text-anchor="start" x="569.5" y="-92.5" font-family="Ubuntu Mono" font-size="10.00">SpineMesh::vSetVolumeNot</text>
<text text-anchor="middle" x="637.5" y="-81.5" font-family="Ubuntu Mono" font-size="10.00">Rates</text>
</a>
</g>
</g>
<!-- Node17&#45;&gt;Node19 -->
<g id="edge20_Node000017_Node000019" class="edge">
<title>Node17&#45;&gt;Node19</title>
<g id="a_edge20_Node000017_Node000019"><a xlink:title=" ">
<path fill="none" stroke="#63b8ff" d="M793.08,-120.93C768.24,-115.88 738.8,-109.89 712.31,-104.51"/>
<polygon fill="#63b8ff" stroke="#63b8ff" points="792.56,-124.39 803.06,-122.96 793.96,-117.53 792.56,-124.39"/>
</a>
</g>
</g>
<!-- Node21 -->
<g id="Node000021" class="node">
<title>Node21</title>
<g id="a_Node000021"><a xlink:href="classSpineMesh.html#aff83d4c8a3df79fff5f4703c77cabe81" target="_top" xlink:title="Virtual function to return coords of mesh Entry.">
<polygon fill="white" stroke="#666666" points="712.5,-56 562.5,-56 562.5,-37 712.5,-37 712.5,-56"/>
<text text-anchor="middle" x="637.5" y="-44" font-family="Ubuntu Mono" font-size="10.00">SpineMesh::getCoordinates</text>
</a>
</g>
</g>
<!-- Node20&#45;&gt;Node21 -->
<g id="edge22_Node000020_Node000021" class="edge">
<title>Node20&#45;&gt;Node21</title>
<g id="a_edge22_Node000020_Node000021"><a xlink:title=" ">
<path fill="none" stroke="#63b8ff" d="M792.98,-83.75C782.96,-81.48 772.65,-79.02 763,-76.5 746.81,-72.27 743.19,-69.7 727,-65.5 713.92,-62.1 699.64,-58.85 686.44,-56.02"/>
<polygon fill="#63b8ff" stroke="#63b8ff" points="792.35,-87.19 802.88,-85.94 793.87,-80.36 792.35,-87.19"/>
</a>
</g>
</g>
</g>
</svg>

<g id="navigator" transform="translate(0 0)" fill="#404254">
  <rect fill="#f2f5e9" fill-opacity="0.5" stroke="#606060" stroke-width=".5" x="0" y="0" width="60" height="60"/>
  <use id="zoomplus" xlink:href="#zoomPlus" x="17" y="9" onmousedown="handleZoom(evt,'in')"/>
  <use id="zoomminus" xlink:href="#zoomMin" x="42" y="9" onmousedown="handleZoom(evt,'out')"/>
  <use id="reset" xlink:href="#resetDef" x="30" y="36" onmousedown="handleReset()"/>
   <use id="arrowup" xlink:href="#arrowUp" x="0" y="0" onmousedown="handlePan(0,-1)"/>
  <use id="arrowright" xlink:href="#arrowRight" x="0" y="0" onmousedown="handlePan(1,0)"/>
  <use id="arrowdown" xlink:href="#arrowDown" x="0" y="0" onmousedown="handlePan(0,1)"/>
  <use id="arrowleft" xlink:href="#arrowLeft" x="0" y="0" onmousedown="handlePan(-1,0)"/>
</g>
<svg viewBox="0 0 15 15" width="100%" height="30px" preserveAspectRatio="xMaxYMin meet">
 <g id="arrow_out" transform="scale(0.3 0.3)">
  <a xlink:href="classCylBase_ad96655884be493cdaf02d69a10d6b196_icgraph_org.svg" target="_base">
   <rect id="button" ry="5" rx="5" y="6" x="6" height="38" width="38"
        fill="#f2f5e9" fill-opacity="0.5" stroke="#606060" stroke-width="1.0"/>
   <path id="arrow"
     d="M 11.500037,31.436501 C 11.940474,20.09759 22.043105,11.32322 32.158766,21.979434 L 37.068811,17.246167 C 37.068811,17.246167 37.088388,32 37.088388,32 L 22.160133,31.978069 C 22.160133,31.978069 26.997745,27.140456 26.997745,27.140456 C 18.528582,18.264221 13.291696,25.230495 11.500037,31.436501 z"
     style="fill:#404040;"/>
  </a>
 </g>
</svg>

<style type='text/css'>
<![CDATA[
[data-mouse-over-selected='false'] { opacity: 0.7; }
[data-mouse-over-selected='true']  { opacity: 1.0; }
]]>
</style>
<script type="application/ecmascript"><![CDATA[
document.addEventListener('DOMContentLoaded', (event) => {
  highlightEdges();
  highlightAdjacentNodes();
});
]]></script>
</svg>
