<?xml version="1.0" encoding="UTF-8" standalone="no"?>
<!DOCTYPE svg PUBLIC "-//W3C//DTD SVG 1.1//EN"
 "http://www.w3.org/Graphics/SVG/1.1/DTD/svg11.dtd">
<!-- Generated by graphviz version 2.43.0 (0)
 -->
<!-- Title: TableBase::compareVec Pages: 1 -->
<svg width="363pt" height="101pt"
 viewBox="0.00 0.00 363.00 101.00" xmlns="http://www.w3.org/2000/svg" xmlns:xlink="http://www.w3.org/1999/xlink">

<svg id="main" version="1.1" xmlns="http://www.w3.org/2000/svg" xmlns:xlink="http://www.w3.org/1999/xlink" xml:space="preserve" onload="init(evt)">
<style type="text/css"><![CDATA[
.node, .edge {opacity: 0.7;}
.node.selected, .edge.selected {opacity: 1;}
.edge:hover path { stroke: red; }
.edge:hover polygon { stroke: red; fill: red; }
]]></style>
<script type="application/ecmascript" xlink:href="svg.min.js"/>
<svg id="graph" class="graph">
<g id="graph0" class="graph" transform="scale(1 1) rotate(0) translate(4 97)">
<title>TableBase::compareVec</title>
<!-- Node1 -->
<g id="Node000001" class="node">
<title>Node1</title>
<g id="a_Node000001"><a xlink:title=" ">
<polygon fill="#999999" stroke="#666666" points="132,-56 0,-56 0,-37 132,-37 132,-56"/>
<text text-anchor="middle" x="66" y="-44" font-family="Ubuntu Mono" font-size="10.00">TableBase::compareVec</text>
</a>
</g>
</g>
<!-- Node2 -->
<g id="Node000002" class="node">
<title>Node2</title>
<g id="a_Node000002"><a xlink:href="TableBase_8cpp.html#a8e66e7071bf8ce034c44b8f7de9d39e7" target="_top" xlink:title=" ">
<polygon fill="white" stroke="#666666" points="355,-93 284,-93 284,-74 355,-74 355,-93"/>
<text text-anchor="middle" x="319.5" y="-81" font-family="Ubuntu Mono" font-size="10.00">getRMSDiff</text>
</a>
</g>
</g>
<!-- Node1&#45;&gt;Node2 -->
<g id="edge1_Node000001_Node000002" class="edge">
<title>Node1&#45;&gt;Node2</title>
<g id="a_edge1_Node000001_Node000002"><a xlink:title=" ">
<path fill="none" stroke="#63b8ff" d="M114.16,-56.05C131.1,-59.3 150.36,-62.79 168,-65.5 203.36,-70.93 243.62,-75.67 273.59,-78.92"/>
<polygon fill="#63b8ff" stroke="#63b8ff" points="273.42,-82.43 283.74,-80.01 274.17,-75.47 273.42,-82.43"/>
</a>
</g>
</g>
<!-- Node3 -->
<g id="Node000003" class="node">
<title>Node3</title>
<g id="a_Node000003"><a xlink:href="TableBase_8cpp.html#a77cb2199e31471ec402d7ece683669ff" target="_top" xlink:title=" ">
<polygon fill="white" stroke="#666666" points="248,-56 168,-56 168,-37 248,-37 248,-56"/>
<text text-anchor="middle" x="208" y="-44" font-family="Ubuntu Mono" font-size="10.00">getRMSRatio</text>
</a>
</g>
</g>
<!-- Node1&#45;&gt;Node3 -->
<g id="edge2_Node000001_Node000003" class="edge">
<title>Node1&#45;&gt;Node3</title>
<g id="a_edge2_Node000001_Node000003"><a xlink:title=" ">
<path fill="none" stroke="#63b8ff" d="M132.08,-46.5C140.62,-46.5 149.25,-46.5 157.47,-46.5"/>
<polygon fill="#63b8ff" stroke="#63b8ff" points="157.62,-50 167.62,-46.5 157.62,-43 157.62,-50"/>
</a>
</g>
</g>
<!-- Node5 -->
<g id="Node000005" class="node">
<title>Node5</title>
<g id="a_Node000005"><a xlink:href="TableBase_8cpp.html#a9ad12134d50c64457217952275a52324" target="_top" xlink:title=" ">
<polygon fill="white" stroke="#666666" points="234.5,-19 181.5,-19 181.5,0 234.5,0 234.5,-19"/>
<text text-anchor="middle" x="208" y="-7" font-family="Ubuntu Mono" font-size="10.00">headop</text>
</a>
</g>
</g>
<!-- Node1&#45;&gt;Node5 -->
<g id="edge5_Node000001_Node000005" class="edge">
<title>Node1&#45;&gt;Node5</title>
<g id="a_edge5_Node000001_Node000005"><a xlink:title=" ">
<path fill="none" stroke="#63b8ff" d="M103.05,-36.97C124.08,-31.41 150.5,-24.43 171.44,-18.9"/>
<polygon fill="#63b8ff" stroke="#63b8ff" points="172.46,-22.25 181.23,-16.31 170.67,-15.48 172.46,-22.25"/>
</a>
</g>
</g>
<!-- Node3&#45;&gt;Node2 -->
<g id="edge4_Node000003_Node000002" class="edge">
<title>Node3&#45;&gt;Node2</title>
<g id="a_edge4_Node000003_Node000002"><a xlink:title=" ">
<path fill="none" stroke="#63b8ff" d="M237.2,-56.03C250.38,-60.48 266.27,-65.85 280.49,-70.66"/>
<polygon fill="#63b8ff" stroke="#63b8ff" points="279.42,-73.99 290.02,-73.88 281.66,-67.36 279.42,-73.99"/>
</a>
</g>
</g>
<!-- Node4 -->
<g id="Node000004" class="node">
<title>Node4</title>
<g id="a_Node000004"><a xlink:href="TableBase_8cpp.html#ad7cb53836168d6b944847d22bbc43f6a" target="_top" xlink:title=" ">
<polygon fill="white" stroke="#666666" points="346.5,-56 292.5,-56 292.5,-37 346.5,-37 346.5,-56"/>
<text text-anchor="middle" x="319.5" y="-44" font-family="Ubuntu Mono" font-size="10.00">getRMS</text>
</a>
</g>
</g>
<!-- Node3&#45;&gt;Node4 -->
<g id="edge3_Node000003_Node000004" class="edge">
<title>Node3&#45;&gt;Node4</title>
<g id="a_edge3_Node000003_Node000004"><a xlink:title=" ">
<path fill="none" stroke="#63b8ff" d="M248.22,-46.5C259.29,-46.5 271.28,-46.5 282.17,-46.5"/>
<polygon fill="#63b8ff" stroke="#63b8ff" points="282.21,-50 292.21,-46.5 282.21,-43 282.21,-50"/>
</a>
</g>
</g>
</g>
</svg>
</svg>

<style type='text/css'>
<![CDATA[
[data-mouse-over-selected='false'] { opacity: 0.7; }
[data-mouse-over-selected='true']  { opacity: 1.0; }
]]>
</style>
<script type="application/ecmascript"><![CDATA[
document.addEventListener('DOMContentLoaded', (event) => {
  highlightEdges();
  highlightAdjacentNodes();
});
]]></script>
</svg>
