<?xml version="1.0" encoding="UTF-8" standalone="no"?>
<!DOCTYPE svg PUBLIC "-//W3C//DTD SVG 1.1//EN"
 "http://www.w3.org/Graphics/SVG/1.1/DTD/svg11.dtd">
<!-- Generated by graphviz version 2.43.0 (0)
 -->
<!-- Title: ZombieCaConc::vSetTau Pages: 1 -->
<svg width="436pt" height="101pt"
 viewBox="0.00 0.00 436.00 101.00" xmlns="http://www.w3.org/2000/svg" xmlns:xlink="http://www.w3.org/1999/xlink">

<svg id="main" version="1.1" xmlns="http://www.w3.org/2000/svg" xmlns:xlink="http://www.w3.org/1999/xlink" xml:space="preserve" onload="init(evt)">
<style type="text/css"><![CDATA[
.node, .edge {opacity: 0.7;}
.node.selected, .edge.selected {opacity: 1;}
.edge:hover path { stroke: red; }
.edge:hover polygon { stroke: red; fill: red; }
]]></style>
<script type="application/ecmascript" xlink:href="svg.min.js"/>
<svg id="graph" class="graph">
<g id="graph0" class="graph" transform="scale(1 1) rotate(0) translate(4 97)">
<title>ZombieCaConc::vSetTau</title>
<!-- Node1 -->
<g id="Node000001" class="node">
<title>Node1</title>
<g id="a_Node000001"><a xlink:title=" ">
<polygon fill="#999999" stroke="#666666" points="135,-74 0,-74 0,-55 135,-55 135,-74"/>
<text text-anchor="middle" x="67.5" y="-62" font-family="Ubuntu Mono" font-size="10.00">ZombieCaConc::vSetTau</text>
</a>
</g>
</g>
<!-- Node2 -->
<g id="Node000002" class="node">
<title>Node2</title>
<g id="a_Node000002"><a xlink:href="classEref.html#aa96699f886e00b8eb3759c71cc8747bb" target="_top" xlink:title=" ">
<polygon fill="white" stroke="#666666" points="243.5,-93 193.5,-93 193.5,-74 243.5,-74 243.5,-93"/>
<text text-anchor="middle" x="218.5" y="-81" font-family="Ubuntu Mono" font-size="10.00">Eref::id</text>
</a>
</g>
</g>
<!-- Node1&#45;&gt;Node2 -->
<g id="edge1_Node000001_Node000002" class="edge">
<title>Node1&#45;&gt;Node2</title>
<g id="a_edge1_Node000001_Node000002"><a xlink:title=" ">
<path fill="none" stroke="#63b8ff" d="M135.16,-73C151.7,-75.11 168.77,-77.29 183.05,-79.11"/>
<polygon fill="#63b8ff" stroke="#63b8ff" points="183.01,-82.63 193.37,-80.42 183.89,-75.69 183.01,-82.63"/>
</a>
</g>
</g>
<!-- Node4 -->
<g id="Node000004" class="node">
<title>Node4</title>
<g id="a_Node000004"><a xlink:href="classHSolve.html#a31cddc0e8bd3ec9ef1a9effb9ef46e7a" target="_top" xlink:title=" ">
<polygon fill="white" stroke="#666666" points="266,-56 171,-56 171,-37 266,-37 266,-56"/>
<text text-anchor="middle" x="218.5" y="-44" font-family="Ubuntu Mono" font-size="10.00">HSolve::setTauB</text>
</a>
</g>
</g>
<!-- Node1&#45;&gt;Node4 -->
<g id="edge3_Node000001_Node000004" class="edge">
<title>Node1&#45;&gt;Node4</title>
<g id="a_edge3_Node000001_Node000004"><a xlink:title=" ">
<path fill="none" stroke="#63b8ff" d="M135.16,-56.45C143.75,-55.41 152.48,-54.35 160.89,-53.34"/>
<polygon fill="#63b8ff" stroke="#63b8ff" points="161.45,-56.8 170.96,-52.12 160.61,-49.85 161.45,-56.8"/>
</a>
</g>
</g>
<!-- Node3 -->
<g id="Node000003" class="node">
<title>Node3</title>
<g id="a_Node000003"><a xlink:href="classElement.html#a934907c01faf58e21f545d53a54cfefc" target="_top" xlink:title=" ">
<polygon fill="white" stroke="#666666" points="401,-93 329,-93 329,-74 401,-74 401,-93"/>
<text text-anchor="middle" x="365" y="-81" font-family="Ubuntu Mono" font-size="10.00">Element::id</text>
</a>
</g>
</g>
<!-- Node2&#45;&gt;Node3 -->
<g id="edge2_Node000002_Node000003" class="edge">
<title>Node2&#45;&gt;Node3</title>
<g id="a_edge2_Node000002_Node000003"><a xlink:title=" ">
<path fill="none" stroke="#63b8ff" d="M243.69,-83.5C264.07,-83.5 293.8,-83.5 318.61,-83.5"/>
<polygon fill="#63b8ff" stroke="#63b8ff" points="318.9,-87 328.9,-83.5 318.9,-80 318.9,-87"/>
</a>
</g>
</g>
<!-- Node5 -->
<g id="Node000005" class="node">
<title>Node5</title>
<g id="a_Node000005"><a xlink:href="classHSolve.html#a477abe17043ce185923f054da61c50b3" target="_top" xlink:title=" ">
<polygon fill="white" stroke="#666666" points="418.5,-56 311.5,-56 311.5,-37 418.5,-37 418.5,-56"/>
<text text-anchor="middle" x="365" y="-44" font-family="Ubuntu Mono" font-size="10.00">HSolve::localIndex</text>
</a>
</g>
</g>
<!-- Node4&#45;&gt;Node5 -->
<g id="edge4_Node000004_Node000005" class="edge">
<title>Node4&#45;&gt;Node5</title>
<g id="a_edge4_Node000004_Node000005"><a xlink:title=" ">
<path fill="none" stroke="#63b8ff" d="M266.02,-46.5C277.18,-46.5 289.29,-46.5 301.07,-46.5"/>
<polygon fill="#63b8ff" stroke="#63b8ff" points="301.3,-50 311.3,-46.5 301.3,-43 301.3,-50"/>
</a>
</g>
</g>
<!-- Node6 -->
<g id="Node000006" class="node">
<title>Node6</title>
<g id="a_Node000006"><a xlink:href="structCaConcStruct.html#a79f672903d4b8a335b63144288dc33b0" target="_top" xlink:title=" ">
<polygon fill="white" stroke="#666666" points="428,-19 302,-19 302,0 428,0 428,-19"/>
<text text-anchor="middle" x="365" y="-7" font-family="Ubuntu Mono" font-size="10.00">CaConcStruct::setTauB</text>
</a>
</g>
</g>
<!-- Node4&#45;&gt;Node6 -->
<g id="edge5_Node000004_Node000006" class="edge">
<title>Node4&#45;&gt;Node6</title>
<g id="a_edge5_Node000004_Node000006"><a xlink:title=" ">
<path fill="none" stroke="#63b8ff" d="M256.71,-36.97C275.01,-32.29 297.27,-26.59 316.76,-21.6"/>
<polygon fill="#63b8ff" stroke="#63b8ff" points="317.84,-24.93 326.66,-19.06 316.11,-18.15 317.84,-24.93"/>
</a>
</g>
</g>
</g>
</svg>
</svg>

<style type='text/css'>
<![CDATA[
[data-mouse-over-selected='false'] { opacity: 0.7; }
[data-mouse-over-selected='true']  { opacity: 1.0; }
]]>
</style>
<script type="application/ecmascript"><![CDATA[
document.addEventListener('DOMContentLoaded', (event) => {
  highlightEdges();
  highlightAdjacentNodes();
});
]]></script>
</svg>
