<?xml version="1.0" encoding="UTF-8" standalone="no"?>
<!DOCTYPE svg PUBLIC "-//W3C//DTD SVG 1.1//EN"
 "http://www.w3.org/Graphics/SVG/1.1/DTD/svg11.dtd">
<!-- Generated by graphviz version 2.43.0 (0)
 -->
<!-- Title: SynHandlerBase Pages: 1 -->
<!--zoomable 652 -->

<svg id="main" version="1.1" xmlns="http://www.w3.org/2000/svg" xmlns:xlink="http://www.w3.org/1999/xlink" xml:space="preserve" onload="init(evt)">
<style type="text/css"><![CDATA[
.node, .edge {opacity: 0.7;}
.node.selected, .edge.selected {opacity: 1;}
.edge:hover path { stroke: red; }
.edge:hover polygon { stroke: red; fill: red; }
]]></style>

<defs>
  <circle id="rim" cx="0" cy="0" r="7"/>
  <circle id="rim2" cx="0" cy="0" r="3.5"/>
  <g id="zoomPlus">
    <use xlink:href="#rim" fill="#404040"><set attributeName="fill" to="#808080" begin="zoomplus.mouseover" end="zoomplus.mouseout"/></use>
    <path d="M-4,0h8M0,-4v8" fill="none" stroke="white" stroke-width="1.5" pointer-events="none"/>
  </g>
  <g id="zoomMin">
    <use xlink:href="#rim" fill="#404040"><set attributeName="fill" to="#808080" begin="zoomminus.mouseover" end="zoomminus.mouseout"/></use>
    <path d="M-4,0h8" fill="none" stroke="white" stroke-width="1.5" pointer-events="none"/>
  </g>
  <g id="arrowUp" transform="translate(30 24)">
    <use xlink:href="#rim"/>
    <path pointer-events="none" fill="none" stroke="white" stroke-width="1.5" d="M0,-3.0v7 M-2.5,-0.5L0,-3.0L2.5,-0.5"/>
  </g>
  <g id="arrowRight" transform="rotate(90) translate(36 -43)">
    <use xlink:href="#rim"/>
    <path pointer-events="none" fill="none" stroke="white" stroke-width="1.5" d="M0,-3.0v7 M-2.5,-0.5L0,-3.0L2.5,-0.5"/>
  </g>
  <g id="arrowDown" transform="rotate(180) translate(-30 -48)">
    <use xlink:href="#rim"/>
    <path pointer-events="none" fill="none" stroke="white" stroke-width="1.5" d="M0,-3.0v7 M-2.5,-0.5L0,-3.0L2.5,-0.5"/>
  </g>
  <g id="arrowLeft" transform="rotate(270) translate(-36 17)">
    <use xlink:href="#rim"/>
    <path pointer-events="none" fill="none" stroke="white" stroke-width="1.5" d="M0,-3.0v7 M-2.5,-0.5L0,-3.0L2.5,-0.5"/>
  </g>
  <g id="resetDef">
    <use xlink:href="#rim2" fill="#404040"><set attributeName="fill" to="#808080" begin="reset.mouseover" end="reset.mouseout"/></use>
  </g>
</defs>
<script type="application/ecmascript">
var viewWidth = 571;
var viewHeight = 652;
var sectionId = 'dynsection-0';
</script>
<script type="application/ecmascript" xlink:href="svg.min.js"/>
<svg id="graph" class="graph">
<g id="viewport">
<title>SynHandlerBase</title>
<!-- Node1 -->
<g id="Node000001" class="node">
<title>Node1</title>
<g id="a_Node000001"><a xlink:title=" ">
<polygon fill="#999999" stroke="transparent" points="354,-644 239,-644 239,-415 354,-415 354,-644"/>
<text text-anchor="start" x="256.5" y="-631.5" font-family="Ubuntu Mono" font-size="10.00">SynHandlerBase</text>
<text text-anchor="start" x="295" y="-616.5" font-family="Ubuntu Mono" font-size="10.00"> </text>
<text text-anchor="start" x="243.5" y="-601.5" font-family="Ubuntu Mono" font-size="10.00">+</text>
<text text-anchor="start" x="256.5" y="-601.5" font-family="Ubuntu Mono" font-size="10.00">addSpike()</text>
<text text-anchor="start" x="243.5" y="-586.5" font-family="Ubuntu Mono" font-size="10.00">+</text>
<text text-anchor="start" x="256.5" y="-586.5" font-family="Ubuntu Mono" font-size="10.00">addSynapse()</text>
<text text-anchor="start" x="243.5" y="-571.5" font-family="Ubuntu Mono" font-size="10.00">+</text>
<text text-anchor="start" x="256.5" y="-571.5" font-family="Ubuntu Mono" font-size="10.00">dropSynapse()</text>
<text text-anchor="start" x="243.5" y="-556.5" font-family="Ubuntu Mono" font-size="10.00">+</text>
<text text-anchor="start" x="256.5" y="-556.5" font-family="Ubuntu Mono" font-size="10.00">getNumSynapses()</text>
<text text-anchor="start" x="243.5" y="-541.5" font-family="Ubuntu Mono" font-size="10.00">+</text>
<text text-anchor="start" x="256.5" y="-541.5" font-family="Ubuntu Mono" font-size="10.00">getSynapse()</text>
<text text-anchor="start" x="243.5" y="-526.5" font-family="Ubuntu Mono" font-size="10.00">+</text>
<text text-anchor="start" x="256.5" y="-526.5" font-family="Ubuntu Mono" font-size="10.00">getTopSpike()</text>
<text text-anchor="start" x="243.5" y="-511.5" font-family="Ubuntu Mono" font-size="10.00">+</text>
<text text-anchor="start" x="256.5" y="-511.5" font-family="Ubuntu Mono" font-size="10.00">process()</text>
<text text-anchor="start" x="243.5" y="-496.5" font-family="Ubuntu Mono" font-size="10.00">+</text>
<text text-anchor="start" x="256.5" y="-496.5" font-family="Ubuntu Mono" font-size="10.00">rangeWarning()</text>
<text text-anchor="start" x="243.5" y="-481.5" font-family="Ubuntu Mono" font-size="10.00">+</text>
<text text-anchor="start" x="256.5" y="-481.5" font-family="Ubuntu Mono" font-size="10.00">reinit()</text>
<text text-anchor="start" x="243.5" y="-466.5" font-family="Ubuntu Mono" font-size="10.00">+</text>
<text text-anchor="start" x="256.5" y="-466.5" font-family="Ubuntu Mono" font-size="10.00">setNumSynapses()</text>
<text text-anchor="start" x="256.5" y="-451.5" font-family="Ubuntu Mono" font-size="10.00">and 7 more...</text>
<text text-anchor="start" x="243.5" y="-436.5" font-family="Ubuntu Mono" font-size="10.00">+</text>
<text text-anchor="start" x="256.5" y="-436.5" font-family="Ubuntu Mono" font-size="10.00">activationOut()</text>
<text text-anchor="start" x="243.5" y="-421.5" font-family="Ubuntu Mono" font-size="10.00">+</text>
<text text-anchor="start" x="256.5" y="-421.5" font-family="Ubuntu Mono" font-size="10.00">initCinfo()</text>
<polygon fill="#666666" stroke="#666666" points="239.5,-626.5 239.5,-626.5 354.5,-626.5 354.5,-626.5 239.5,-626.5"/>
<polygon fill="#666666" stroke="#666666" points="239.5,-611.5 239.5,-611.5 354.5,-611.5 354.5,-611.5 239.5,-611.5"/>
<polygon fill="none" stroke="#666666" points="239,-415 239,-644 354,-644 354,-415 239,-415"/>
</a>
</g>
</g>
<!-- Node2 -->
<g id="Node000002" class="node">
<title>Node2</title>
<g id="a_Node000002"><a xlink:href="classGraupnerBrunel2012CaPlasticitySynHandler.html" target="_top" xlink:title=" ">
<polygon fill="white" stroke="transparent" points="169,-377 0,-377 0,-2 169,-2 169,-377"/>
<text text-anchor="start" x="5.5" y="-364.5" font-family="Ubuntu Mono" font-size="10.00">GraupnerBrunel2012CaPlasticity</text>
<text text-anchor="start" x="56.5" y="-353.5" font-family="Ubuntu Mono" font-size="10.00">SynHandler</text>
<text text-anchor="start" x="21.5" y="-338.5" font-family="Ubuntu Mono" font-size="10.00">&#45;</text>
<text text-anchor="start" x="46.5" y="-338.5" font-family="Ubuntu Mono" font-size="10.00">bistable_</text>
<text text-anchor="start" x="21.5" y="-323.5" font-family="Ubuntu Mono" font-size="10.00">&#45;</text>
<text text-anchor="start" x="46.5" y="-323.5" font-family="Ubuntu Mono" font-size="10.00">Ca_</text>
<text text-anchor="start" x="21.5" y="-308.5" font-family="Ubuntu Mono" font-size="10.00">&#45;</text>
<text text-anchor="start" x="46.5" y="-308.5" font-family="Ubuntu Mono" font-size="10.00">CaInit_</text>
<text text-anchor="start" x="21.5" y="-293.5" font-family="Ubuntu Mono" font-size="10.00">&#45;</text>
<text text-anchor="start" x="46.5" y="-293.5" font-family="Ubuntu Mono" font-size="10.00">CaPost_</text>
<text text-anchor="start" x="21.5" y="-278.5" font-family="Ubuntu Mono" font-size="10.00">&#45;</text>
<text text-anchor="start" x="46.5" y="-278.5" font-family="Ubuntu Mono" font-size="10.00">CaPre_</text>
<text text-anchor="start" x="21.5" y="-263.5" font-family="Ubuntu Mono" font-size="10.00">&#45;</text>
<text text-anchor="start" x="46.5" y="-263.5" font-family="Ubuntu Mono" font-size="10.00">delayD_</text>
<text text-anchor="start" x="21.5" y="-248.5" font-family="Ubuntu Mono" font-size="10.00">&#45;</text>
<text text-anchor="start" x="46.5" y="-248.5" font-family="Ubuntu Mono" font-size="10.00">delayDPreEvents_</text>
<text text-anchor="start" x="21.5" y="-233.5" font-family="Ubuntu Mono" font-size="10.00">&#45;</text>
<text text-anchor="start" x="46.5" y="-233.5" font-family="Ubuntu Mono" font-size="10.00">dist_</text>
<text text-anchor="start" x="21.5" y="-218.5" font-family="Ubuntu Mono" font-size="10.00">&#45;</text>
<text text-anchor="start" x="46.5" y="-218.5" font-family="Ubuntu Mono" font-size="10.00">events_</text>
<text text-anchor="start" x="21.5" y="-203.5" font-family="Ubuntu Mono" font-size="10.00">&#45;</text>
<text text-anchor="start" x="46.5" y="-203.5" font-family="Ubuntu Mono" font-size="10.00">gammaD_</text>
<text text-anchor="start" x="46.5" y="-188.5" font-family="Ubuntu Mono" font-size="10.00">and 16 more...</text>
<text text-anchor="start" x="19" y="-173.5" font-family="Ubuntu Mono" font-size="10.00">+</text>
<text text-anchor="start" x="46.5" y="-173.5" font-family="Ubuntu Mono" font-size="10.00">addPostSpike()</text>
<text text-anchor="start" x="19" y="-158.5" font-family="Ubuntu Mono" font-size="10.00">+</text>
<text text-anchor="start" x="46.5" y="-158.5" font-family="Ubuntu Mono" font-size="10.00">addSpike()</text>
<text text-anchor="start" x="19" y="-143.5" font-family="Ubuntu Mono" font-size="10.00">+</text>
<text text-anchor="start" x="46.5" y="-143.5" font-family="Ubuntu Mono" font-size="10.00">addSynapse()</text>
<text text-anchor="start" x="19" y="-128.5" font-family="Ubuntu Mono" font-size="10.00">+</text>
<text text-anchor="start" x="46.5" y="-128.5" font-family="Ubuntu Mono" font-size="10.00">dropSynapse()</text>
<text text-anchor="start" x="19" y="-113.5" font-family="Ubuntu Mono" font-size="10.00">+</text>
<text text-anchor="start" x="46.5" y="-113.5" font-family="Ubuntu Mono" font-size="10.00">getBistable()</text>
<text text-anchor="start" x="19" y="-98.5" font-family="Ubuntu Mono" font-size="10.00">+</text>
<text text-anchor="start" x="46.5" y="-98.5" font-family="Ubuntu Mono" font-size="10.00">getCa()</text>
<text text-anchor="start" x="19" y="-83.5" font-family="Ubuntu Mono" font-size="10.00">+</text>
<text text-anchor="start" x="46.5" y="-83.5" font-family="Ubuntu Mono" font-size="10.00">getCaInit()</text>
<text text-anchor="start" x="19" y="-68.5" font-family="Ubuntu Mono" font-size="10.00">+</text>
<text text-anchor="start" x="46.5" y="-68.5" font-family="Ubuntu Mono" font-size="10.00">getCaPost()</text>
<text text-anchor="start" x="19" y="-53.5" font-family="Ubuntu Mono" font-size="10.00">+</text>
<text text-anchor="start" x="46.5" y="-53.5" font-family="Ubuntu Mono" font-size="10.00">getCaPre()</text>
<text text-anchor="start" x="19" y="-38.5" font-family="Ubuntu Mono" font-size="10.00">+</text>
<text text-anchor="start" x="46.5" y="-38.5" font-family="Ubuntu Mono" font-size="10.00">getDelayD()</text>
<text text-anchor="start" x="46.5" y="-23.5" font-family="Ubuntu Mono" font-size="10.00">and 40 more...</text>
<text text-anchor="start" x="19" y="-8.5" font-family="Ubuntu Mono" font-size="10.00">+</text>
<text text-anchor="start" x="46.5" y="-8.5" font-family="Ubuntu Mono" font-size="10.00">initCinfo()</text>
<polygon fill="#666666" stroke="#666666" points="0.5,-348.5 0.5,-348.5 169.5,-348.5 169.5,-348.5 0.5,-348.5"/>
<polygon fill="#666666" stroke="#666666" points="0.5,-183.5 0.5,-183.5 44.5,-183.5 44.5,-183.5 0.5,-183.5"/>
<polygon fill="#666666" stroke="#666666" points="44.5,-183.5 44.5,-183.5 169.5,-183.5 169.5,-183.5 44.5,-183.5"/>
<polygon fill="none" stroke="#666666" points="0,-2 0,-377 169,-377 169,-2 0,-2"/>
</a>
</g>
</g>
<!-- Node1&#45;&gt;Node2 -->
<g id="edge1_Node000001_Node000002" class="edge">
<title>Node1&#45;&gt;Node2</title>
<g id="a_edge1_Node000001_Node000002"><a xlink:title=" ">
<path fill="none" stroke="#63b8ff" d="M232.32,-453.4C213.91,-430.27 194.5,-404.23 178.5,-379 175.37,-374.06 172.26,-369 169.18,-363.86"/>
<polygon fill="none" stroke="#63b8ff" points="229.8,-455.85 238.79,-461.46 235.26,-451.47 229.8,-455.85"/>
</a>
</g>
</g>
<!-- Node3 -->
<g id="Node000003" class="node">
<title>Node3</title>
<g id="a_Node000003"><a xlink:href="classSTDPSynHandler.html" target="_top" xlink:title=" ">
<polygon fill="white" stroke="transparent" points="281.5,-364 187.5,-364 187.5,-15 281.5,-15 281.5,-364"/>
<text text-anchor="start" x="193.5" y="-351.5" font-family="Ubuntu Mono" font-size="10.00">STDPSynHandler</text>
<text text-anchor="start" x="194" y="-336.5" font-family="Ubuntu Mono" font-size="10.00">&#45;</text>
<text text-anchor="start" x="204.5" y="-336.5" font-family="Ubuntu Mono" font-size="10.00">aMinus0_</text>
<text text-anchor="start" x="194" y="-321.5" font-family="Ubuntu Mono" font-size="10.00">&#45;</text>
<text text-anchor="start" x="204.5" y="-321.5" font-family="Ubuntu Mono" font-size="10.00">aMinus_</text>
<text text-anchor="start" x="194" y="-306.5" font-family="Ubuntu Mono" font-size="10.00">&#45;</text>
<text text-anchor="start" x="204.5" y="-306.5" font-family="Ubuntu Mono" font-size="10.00">aPlus0_</text>
<text text-anchor="start" x="194" y="-291.5" font-family="Ubuntu Mono" font-size="10.00">&#45;</text>
<text text-anchor="start" x="204.5" y="-291.5" font-family="Ubuntu Mono" font-size="10.00">events_</text>
<text text-anchor="start" x="194" y="-276.5" font-family="Ubuntu Mono" font-size="10.00">&#45;</text>
<text text-anchor="start" x="204.5" y="-276.5" font-family="Ubuntu Mono" font-size="10.00">postEvents_</text>
<text text-anchor="start" x="194" y="-261.5" font-family="Ubuntu Mono" font-size="10.00">&#45;</text>
<text text-anchor="start" x="204.5" y="-261.5" font-family="Ubuntu Mono" font-size="10.00">synapses_</text>
<text text-anchor="start" x="194" y="-246.5" font-family="Ubuntu Mono" font-size="10.00">&#45;</text>
<text text-anchor="start" x="204.5" y="-246.5" font-family="Ubuntu Mono" font-size="10.00">tauMinus_</text>
<text text-anchor="start" x="194" y="-231.5" font-family="Ubuntu Mono" font-size="10.00">&#45;</text>
<text text-anchor="start" x="204.5" y="-231.5" font-family="Ubuntu Mono" font-size="10.00">tauPlus_</text>
<text text-anchor="start" x="194" y="-216.5" font-family="Ubuntu Mono" font-size="10.00">&#45;</text>
<text text-anchor="start" x="204.5" y="-216.5" font-family="Ubuntu Mono" font-size="10.00">weightMax_</text>
<text text-anchor="start" x="194" y="-201.5" font-family="Ubuntu Mono" font-size="10.00">&#45;</text>
<text text-anchor="start" x="204.5" y="-201.5" font-family="Ubuntu Mono" font-size="10.00">weightMin_</text>
<text text-anchor="start" x="191.5" y="-186.5" font-family="Ubuntu Mono" font-size="10.00">+</text>
<text text-anchor="start" x="204.5" y="-186.5" font-family="Ubuntu Mono" font-size="10.00">addPostSpike()</text>
<text text-anchor="start" x="191.5" y="-171.5" font-family="Ubuntu Mono" font-size="10.00">+</text>
<text text-anchor="start" x="204.5" y="-171.5" font-family="Ubuntu Mono" font-size="10.00">addSpike()</text>
<text text-anchor="start" x="191.5" y="-156.5" font-family="Ubuntu Mono" font-size="10.00">+</text>
<text text-anchor="start" x="204.5" y="-156.5" font-family="Ubuntu Mono" font-size="10.00">addSynapse()</text>
<text text-anchor="start" x="191.5" y="-141.5" font-family="Ubuntu Mono" font-size="10.00">+</text>
<text text-anchor="start" x="204.5" y="-141.5" font-family="Ubuntu Mono" font-size="10.00">dropSynapse()</text>
<text text-anchor="start" x="191.5" y="-126.5" font-family="Ubuntu Mono" font-size="10.00">+</text>
<text text-anchor="start" x="204.5" y="-126.5" font-family="Ubuntu Mono" font-size="10.00">getAMinus()</text>
<text text-anchor="start" x="191.5" y="-111.5" font-family="Ubuntu Mono" font-size="10.00">+</text>
<text text-anchor="start" x="204.5" y="-111.5" font-family="Ubuntu Mono" font-size="10.00">getAMinus0()</text>
<text text-anchor="start" x="191.5" y="-96.5" font-family="Ubuntu Mono" font-size="10.00">+</text>
<text text-anchor="start" x="204.5" y="-96.5" font-family="Ubuntu Mono" font-size="10.00">getAPlus0()</text>
<text text-anchor="start" x="191.5" y="-81.5" font-family="Ubuntu Mono" font-size="10.00">+</text>
<text text-anchor="start" x="204.5" y="-81.5" font-family="Ubuntu Mono" font-size="10.00">getTauMinus()</text>
<text text-anchor="start" x="191.5" y="-66.5" font-family="Ubuntu Mono" font-size="10.00">+</text>
<text text-anchor="start" x="204.5" y="-66.5" font-family="Ubuntu Mono" font-size="10.00">getTauPlus()</text>
<text text-anchor="start" x="191.5" y="-51.5" font-family="Ubuntu Mono" font-size="10.00">+</text>
<text text-anchor="start" x="204.5" y="-51.5" font-family="Ubuntu Mono" font-size="10.00">getTopSpike()</text>
<text text-anchor="start" x="204.5" y="-36.5" font-family="Ubuntu Mono" font-size="10.00">and 17 more...</text>
<text text-anchor="start" x="191.5" y="-21.5" font-family="Ubuntu Mono" font-size="10.00">+</text>
<text text-anchor="start" x="204.5" y="-21.5" font-family="Ubuntu Mono" font-size="10.00">initCinfo()</text>
<polygon fill="#666666" stroke="#666666" points="187.5,-346.5 187.5,-346.5 281.5,-346.5 281.5,-346.5 187.5,-346.5"/>
<polygon fill="#666666" stroke="#666666" points="187.5,-196.5 187.5,-196.5 202.5,-196.5 202.5,-196.5 187.5,-196.5"/>
<polygon fill="#666666" stroke="#666666" points="202.5,-196.5 202.5,-196.5 281.5,-196.5 281.5,-196.5 202.5,-196.5"/>
<polygon fill="none" stroke="#666666" points="187.5,-15 187.5,-364 281.5,-364 281.5,-15 187.5,-15"/>
</a>
</g>
</g>
<!-- Node1&#45;&gt;Node3 -->
<g id="edge2_Node000001_Node000003" class="edge">
<title>Node1&#45;&gt;Node3</title>
<g id="a_edge2_Node000001_Node000003"><a xlink:title=" ">
<path fill="none" stroke="#63b8ff" d="M273.76,-404.52C271.34,-391.32 268.84,-377.72 266.34,-364.07"/>
<polygon fill="none" stroke="#63b8ff" points="270.35,-405.34 275.6,-414.54 277.23,-404.07 270.35,-405.34"/>
</a>
</g>
</g>
<!-- Node4 -->
<g id="Node000004" class="node">
<title>Node4</title>
<g id="a_Node000004"><a xlink:href="classSeqSynHandler.html" target="_top" xlink:title=" ">
<polygon fill="white" stroke="transparent" points="417.5,-379 299.5,-379 299.5,0 417.5,0 417.5,-379"/>
<text text-anchor="start" x="321" y="-366.5" font-family="Ubuntu Mono" font-size="10.00">SeqSynHandler</text>
<text text-anchor="start" x="306" y="-351.5" font-family="Ubuntu Mono" font-size="10.00">&#45;</text>
<text text-anchor="start" x="316.5" y="-351.5" font-family="Ubuntu Mono" font-size="10.00">baseScale_</text>
<text text-anchor="start" x="306" y="-336.5" font-family="Ubuntu Mono" font-size="10.00">&#45;</text>
<text text-anchor="start" x="316.5" y="-336.5" font-family="Ubuntu Mono" font-size="10.00">events_</text>
<text text-anchor="start" x="306" y="-321.5" font-family="Ubuntu Mono" font-size="10.00">&#45;</text>
<text text-anchor="start" x="316.5" y="-321.5" font-family="Ubuntu Mono" font-size="10.00">history_</text>
<text text-anchor="start" x="306" y="-306.5" font-family="Ubuntu Mono" font-size="10.00">&#45;</text>
<text text-anchor="start" x="316.5" y="-306.5" font-family="Ubuntu Mono" font-size="10.00">historyTime_</text>
<text text-anchor="start" x="306" y="-291.5" font-family="Ubuntu Mono" font-size="10.00">&#45;</text>
<text text-anchor="start" x="316.5" y="-291.5" font-family="Ubuntu Mono" font-size="10.00">kernel_</text>
<text text-anchor="start" x="306" y="-276.5" font-family="Ubuntu Mono" font-size="10.00">&#45;</text>
<text text-anchor="start" x="316.5" y="-276.5" font-family="Ubuntu Mono" font-size="10.00">kernelEquation_</text>
<text text-anchor="start" x="306" y="-261.5" font-family="Ubuntu Mono" font-size="10.00">&#45;</text>
<text text-anchor="start" x="316.5" y="-261.5" font-family="Ubuntu Mono" font-size="10.00">kernelWidth_</text>
<text text-anchor="start" x="306" y="-246.5" font-family="Ubuntu Mono" font-size="10.00">&#45;</text>
<text text-anchor="start" x="316.5" y="-246.5" font-family="Ubuntu Mono" font-size="10.00">latestSpikes_</text>
<text text-anchor="start" x="306" y="-231.5" font-family="Ubuntu Mono" font-size="10.00">&#45;</text>
<text text-anchor="start" x="316.5" y="-231.5" font-family="Ubuntu Mono" font-size="10.00">plasticityScale_</text>
<text text-anchor="start" x="306" y="-216.5" font-family="Ubuntu Mono" font-size="10.00">&#45;</text>
<text text-anchor="start" x="316.5" y="-216.5" font-family="Ubuntu Mono" font-size="10.00">seqActivation_</text>
<text text-anchor="start" x="316.5" y="-201.5" font-family="Ubuntu Mono" font-size="10.00">and 7 more...</text>
<text text-anchor="start" x="303.5" y="-186.5" font-family="Ubuntu Mono" font-size="10.00">+</text>
<text text-anchor="start" x="316.5" y="-186.5" font-family="Ubuntu Mono" font-size="10.00">addSpike()</text>
<text text-anchor="start" x="303.5" y="-171.5" font-family="Ubuntu Mono" font-size="10.00">+</text>
<text text-anchor="start" x="316.5" y="-171.5" font-family="Ubuntu Mono" font-size="10.00">addSynapse()</text>
<text text-anchor="start" x="303.5" y="-156.5" font-family="Ubuntu Mono" font-size="10.00">+</text>
<text text-anchor="start" x="316.5" y="-156.5" font-family="Ubuntu Mono" font-size="10.00">dropSynapse()</text>
<text text-anchor="start" x="303.5" y="-141.5" font-family="Ubuntu Mono" font-size="10.00">+</text>
<text text-anchor="start" x="316.5" y="-141.5" font-family="Ubuntu Mono" font-size="10.00">fixSynapseOrder()</text>
<text text-anchor="start" x="303.5" y="-126.5" font-family="Ubuntu Mono" font-size="10.00">+</text>
<text text-anchor="start" x="316.5" y="-126.5" font-family="Ubuntu Mono" font-size="10.00">getBaseScale()</text>
<text text-anchor="start" x="303.5" y="-111.5" font-family="Ubuntu Mono" font-size="10.00">+</text>
<text text-anchor="start" x="316.5" y="-111.5" font-family="Ubuntu Mono" font-size="10.00">getHistory()</text>
<text text-anchor="start" x="303.5" y="-96.5" font-family="Ubuntu Mono" font-size="10.00">+</text>
<text text-anchor="start" x="316.5" y="-96.5" font-family="Ubuntu Mono" font-size="10.00">getHistoryTime()</text>
<text text-anchor="start" x="303.5" y="-81.5" font-family="Ubuntu Mono" font-size="10.00">+</text>
<text text-anchor="start" x="316.5" y="-81.5" font-family="Ubuntu Mono" font-size="10.00">getKernel()</text>
<text text-anchor="start" x="303.5" y="-66.5" font-family="Ubuntu Mono" font-size="10.00">+</text>
<text text-anchor="start" x="316.5" y="-66.5" font-family="Ubuntu Mono" font-size="10.00">getKernelEquation()</text>
<text text-anchor="start" x="303.5" y="-51.5" font-family="Ubuntu Mono" font-size="10.00">+</text>
<text text-anchor="start" x="316.5" y="-51.5" font-family="Ubuntu Mono" font-size="10.00">getKernelWidth()</text>
<text text-anchor="start" x="316.5" y="-36.5" font-family="Ubuntu Mono" font-size="10.00">and 30 more...</text>
<text text-anchor="start" x="303.5" y="-21.5" font-family="Ubuntu Mono" font-size="10.00">+</text>
<text text-anchor="start" x="316.5" y="-21.5" font-family="Ubuntu Mono" font-size="10.00">initCinfo()</text>
<text text-anchor="start" x="306" y="-6.5" font-family="Ubuntu Mono" font-size="10.00">&#45;</text>
<text text-anchor="start" x="316.5" y="-6.5" font-family="Ubuntu Mono" font-size="10.00">updateKernel()</text>
<polygon fill="#666666" stroke="#666666" points="299.5,-361.5 299.5,-361.5 417.5,-361.5 417.5,-361.5 299.5,-361.5"/>
<polygon fill="#666666" stroke="#666666" points="299.5,-196.5 299.5,-196.5 314.5,-196.5 314.5,-196.5 299.5,-196.5"/>
<polygon fill="#666666" stroke="#666666" points="314.5,-196.5 314.5,-196.5 417.5,-196.5 417.5,-196.5 314.5,-196.5"/>
<polygon fill="none" stroke="#666666" points="299.5,0 299.5,-379 417.5,-379 417.5,0 299.5,0"/>
</a>
</g>
</g>
<!-- Node1&#45;&gt;Node4 -->
<g id="edge3_Node000001_Node000004" class="edge">
<title>Node1&#45;&gt;Node4</title>
<g id="a_edge3_Node000001_Node000004"><a xlink:title=" ">
<path fill="none" stroke="#63b8ff" d="M319.25,-404.48C320.78,-396.16 322.33,-387.69 323.9,-379.15"/>
<polygon fill="none" stroke="#63b8ff" points="315.77,-404.07 317.4,-414.54 322.65,-405.34 315.77,-404.07"/>
</a>
</g>
</g>
<!-- Node5 -->
<g id="Node000005" class="node">
<title>Node5</title>
<g id="a_Node000005"><a xlink:href="classSimpleSynHandler.html" target="_top" xlink:title=" ">
<polygon fill="white" stroke="transparent" points="563,-311.5 436,-311.5 436,-67.5 563,-67.5 563,-311.5"/>
<text text-anchor="start" x="454.5" y="-299.5" font-family="Ubuntu Mono" font-size="10.00">SimpleSynHandler</text>
<text text-anchor="start" x="443" y="-284.5" font-family="Ubuntu Mono" font-size="10.00">&#45;</text>
<text text-anchor="start" x="453.5" y="-284.5" font-family="Ubuntu Mono" font-size="10.00">events_</text>
<text text-anchor="start" x="443" y="-269.5" font-family="Ubuntu Mono" font-size="10.00">&#45;</text>
<text text-anchor="start" x="453.5" y="-269.5" font-family="Ubuntu Mono" font-size="10.00">synapses_</text>
<text text-anchor="start" x="440.5" y="-254.5" font-family="Ubuntu Mono" font-size="10.00">+</text>
<text text-anchor="start" x="453.5" y="-254.5" font-family="Ubuntu Mono" font-size="10.00">addSpike()</text>
<text text-anchor="start" x="440.5" y="-239.5" font-family="Ubuntu Mono" font-size="10.00">+</text>
<text text-anchor="start" x="453.5" y="-239.5" font-family="Ubuntu Mono" font-size="10.00">addSynapse()</text>
<text text-anchor="start" x="440.5" y="-224.5" font-family="Ubuntu Mono" font-size="10.00">+</text>
<text text-anchor="start" x="453.5" y="-224.5" font-family="Ubuntu Mono" font-size="10.00">dropSynapse()</text>
<text text-anchor="start" x="440.5" y="-209.5" font-family="Ubuntu Mono" font-size="10.00">+</text>
<text text-anchor="start" x="453.5" y="-209.5" font-family="Ubuntu Mono" font-size="10.00">getTopSpike()</text>
<text text-anchor="start" x="440.5" y="-194.5" font-family="Ubuntu Mono" font-size="10.00">+</text>
<text text-anchor="start" x="453.5" y="-194.5" font-family="Ubuntu Mono" font-size="10.00">operator=()</text>
<text text-anchor="start" x="440.5" y="-179.5" font-family="Ubuntu Mono" font-size="10.00">+</text>
<text text-anchor="start" x="453.5" y="-179.5" font-family="Ubuntu Mono" font-size="10.00">SimpleSynHandler()</text>
<text text-anchor="start" x="440.5" y="-164.5" font-family="Ubuntu Mono" font-size="10.00">+</text>
<text text-anchor="start" x="453.5" y="-164.5" font-family="Ubuntu Mono" font-size="10.00">vGetNumSynapses()</text>
<text text-anchor="start" x="440.5" y="-149.5" font-family="Ubuntu Mono" font-size="10.00">+</text>
<text text-anchor="start" x="453.5" y="-149.5" font-family="Ubuntu Mono" font-size="10.00">vGetSynapse()</text>
<text text-anchor="start" x="440.5" y="-134.5" font-family="Ubuntu Mono" font-size="10.00">+</text>
<text text-anchor="start" x="453.5" y="-134.5" font-family="Ubuntu Mono" font-size="10.00">vProcess()</text>
<text text-anchor="start" x="440.5" y="-119.5" font-family="Ubuntu Mono" font-size="10.00">+</text>
<text text-anchor="start" x="453.5" y="-119.5" font-family="Ubuntu Mono" font-size="10.00">vReinit()</text>
<text text-anchor="start" x="440.5" y="-104.5" font-family="Ubuntu Mono" font-size="10.00">+</text>
<text text-anchor="start" x="453.5" y="-104.5" font-family="Ubuntu Mono" font-size="10.00">vSetNumSynapses()</text>
<text text-anchor="start" x="440.5" y="-89.5" font-family="Ubuntu Mono" font-size="10.00">+</text>
<text text-anchor="start" x="453.5" y="-89.5" font-family="Ubuntu Mono" font-size="10.00">~SimpleSynHandler()</text>
<text text-anchor="start" x="440.5" y="-74.5" font-family="Ubuntu Mono" font-size="10.00">+</text>
<text text-anchor="start" x="453.5" y="-74.5" font-family="Ubuntu Mono" font-size="10.00">initCinfo()</text>
<polygon fill="#666666" stroke="#666666" points="436.5,-294.5 436.5,-294.5 563.5,-294.5 563.5,-294.5 436.5,-294.5"/>
<polygon fill="#666666" stroke="#666666" points="436.5,-264.5 436.5,-264.5 451.5,-264.5 451.5,-264.5 436.5,-264.5"/>
<polygon fill="#666666" stroke="#666666" points="451.5,-264.5 451.5,-264.5 563.5,-264.5 563.5,-264.5 451.5,-264.5"/>
<polygon fill="none" stroke="#666666" points="436,-67.5 436,-311.5 563,-311.5 563,-67.5 436,-67.5"/>
</a>
</g>
</g>
<!-- Node1&#45;&gt;Node5 -->
<g id="edge4_Node000001_Node000005" class="edge">
<title>Node1&#45;&gt;Node5</title>
<g id="a_edge4_Node000001_Node000005"><a xlink:title=" ">
<path fill="none" stroke="#63b8ff" d="M361.09,-464.2C383.87,-439.12 408.31,-409.16 426.5,-379 439.09,-358.11 450.23,-334.67 459.77,-311.61"/>
<polygon fill="none" stroke="#63b8ff" points="358.28,-462.1 354.09,-471.83 363.43,-466.83 358.28,-462.1"/>
</a>
</g>
</g>
</g>
</svg>

<g id="navigator" transform="translate(0 0)" fill="#404254">
  <rect fill="#f2f5e9" fill-opacity="0.5" stroke="#606060" stroke-width=".5" x="0" y="0" width="60" height="60"/>
  <use id="zoomplus" xlink:href="#zoomPlus" x="17" y="9" onmousedown="handleZoom(evt,'in')"/>
  <use id="zoomminus" xlink:href="#zoomMin" x="42" y="9" onmousedown="handleZoom(evt,'out')"/>
  <use id="reset" xlink:href="#resetDef" x="30" y="36" onmousedown="handleReset()"/>
   <use id="arrowup" xlink:href="#arrowUp" x="0" y="0" onmousedown="handlePan(0,-1)"/>
  <use id="arrowright" xlink:href="#arrowRight" x="0" y="0" onmousedown="handlePan(1,0)"/>
  <use id="arrowdown" xlink:href="#arrowDown" x="0" y="0" onmousedown="handlePan(0,1)"/>
  <use id="arrowleft" xlink:href="#arrowLeft" x="0" y="0" onmousedown="handlePan(-1,0)"/>
</g>
<svg viewBox="0 0 15 15" width="100%" height="30px" preserveAspectRatio="xMaxYMin meet">
 <g id="arrow_out" transform="scale(0.3 0.3)">
  <a xlink:href="classSynHandlerBase__inherit__graph_org.svg" target="_base">
   <rect id="button" ry="5" rx="5" y="6" x="6" height="38" width="38"
        fill="#f2f5e9" fill-opacity="0.5" stroke="#606060" stroke-width="1.0"/>
   <path id="arrow"
     d="M 11.500037,31.436501 C 11.940474,20.09759 22.043105,11.32322 32.158766,21.979434 L 37.068811,17.246167 C 37.068811,17.246167 37.088388,32 37.088388,32 L 22.160133,31.978069 C 22.160133,31.978069 26.997745,27.140456 26.997745,27.140456 C 18.528582,18.264221 13.291696,25.230495 11.500037,31.436501 z"
     style="fill:#404040;"/>
  </a>
 </g>
</svg>

<style type='text/css'>
<![CDATA[
[data-mouse-over-selected='false'] { opacity: 0.7; }
[data-mouse-over-selected='true']  { opacity: 1.0; }
]]>
</style>
<script type="application/ecmascript"><![CDATA[
document.addEventListener('DOMContentLoaded', (event) => {
  highlightEdges();
  highlightAdjacentNodes();
});
]]></script>
</svg>
