<?xml version="1.0" encoding="UTF-8" standalone="no"?>
<!DOCTYPE svg PUBLIC "-//W3C//DTD SVG 1.1//EN"
 "http://www.w3.org/Graphics/SVG/1.1/DTD/svg11.dtd">
<!-- Generated by graphviz version 2.43.0 (0)
 -->
<!-- Title: MarkovRateTable::initCinfo Pages: 1 -->
<svg width="717pt" height="1077pt"
 viewBox="0.00 0.00 717.00 1077.00" xmlns="http://www.w3.org/2000/svg" xmlns:xlink="http://www.w3.org/1999/xlink">
<g id="graph0" class="graph" transform="scale(1 1) rotate(0) translate(4 1073)">
<title>MarkovRateTable::initCinfo</title>
<!-- Node1 -->
<g id="Node000001" class="node">
<title>Node1</title>
<g id="a_Node000001"><a xlink:title=" ">
<polygon fill="#999999" stroke="#666666" points="148,-499 0,-499 0,-480 148,-480 148,-499"/>
<text text-anchor="middle" x="74" y="-487" font-family="Ubuntu Mono" font-size="10.00">MarkovRateTable::initCinfo</text>
</a>
</g>
</g>
<!-- Node2 -->
<g id="Node000002" class="node">
<title>Node2</title>
<g id="a_Node000002"><a xlink:href="classCinfo.html#ac9f6af2943b20ce3b02c1adc84504cd2" target="_top" xlink:title=" ">
<polygon fill="white" stroke="#666666" points="535,-1032 461,-1032 461,-1013 535,-1013 535,-1032"/>
<text text-anchor="middle" x="498" y="-1020" font-family="Ubuntu Mono" font-size="10.00">Cinfo::Cinfo</text>
</a>
</g>
</g>
<!-- Node1&#45;&gt;Node2 -->
<g id="edge1_Node000001_Node000002" class="edge">
<title>Node1&#45;&gt;Node2</title>
<g id="a_edge1_Node000001_Node000002"><a xlink:title=" ">
<path fill="none" stroke="#63b8ff" d="M74.98,-499.01C75.38,-546.26 82.92,-758.5 184,-883.5 252.01,-967.6 381.41,-1002.37 450.62,-1015.44"/>
<polygon fill="#63b8ff" stroke="#63b8ff" points="450.32,-1018.95 460.78,-1017.29 451.57,-1012.06 450.32,-1018.95"/>
</a>
</g>
</g>
<!-- Node8 -->
<g id="Node000008" class="node">
<title>Node8</title>
<g id="a_Node000008"><a xlink:href="classDestFinfo.html#a200c3d77c0c62f54de9cb3fb0ff30d25" target="_top" xlink:title=" ">
<polygon fill="white" stroke="#666666" points="556,-995 440,-995 440,-976 556,-976 556,-995"/>
<text text-anchor="middle" x="498" y="-983" font-family="Ubuntu Mono" font-size="10.00">DestFinfo::DestFinfo</text>
</a>
</g>
</g>
<!-- Node1&#45;&gt;Node8 -->
<g id="edge4_Node000001_Node000008" class="edge">
<title>Node1&#45;&gt;Node8</title>
<g id="a_edge4_Node000001_Node000008"><a xlink:title=" ">
<path fill="none" stroke="#63b8ff" d="M79.81,-499.12C92.82,-524.02 131.26,-590.86 184,-622.5 260.17,-668.19 319.72,-596.27 380,-661.5 472.63,-761.75 325.08,-864.69 416,-966.5 420.07,-971.06 425,-974.62 430.4,-977.41"/>
<polygon fill="#63b8ff" stroke="#63b8ff" points="429.29,-980.74 439.87,-981.39 432.01,-974.29 429.29,-980.74"/>
</a>
</g>
</g>
<!-- Node10 -->
<g id="Node000010" class="node">
<title>Node10</title>
<g id="a_Node000010"><a xlink:href="classMarkovRateTable.html#addf573a2bc6a6094715fafd7930ba1a0" target="_top" xlink:title=" ">
<polygon fill="white" stroke="#666666" points="371.5,-874 192.5,-874 192.5,-855 371.5,-855 371.5,-874"/>
<text text-anchor="middle" x="282" y="-862" font-family="Ubuntu Mono" font-size="10.00">MarkovRateTable::getLigandConc</text>
</a>
</g>
</g>
<!-- Node1&#45;&gt;Node10 -->
<g id="edge6_Node000001_Node000010" class="edge">
<title>Node1&#45;&gt;Node10</title>
<g id="a_edge6_Node000001_Node000010"><a xlink:title=" ">
<path fill="none" stroke="#63b8ff" d="M74.64,-499.04C73.45,-545.4 74.76,-748.94 184,-846.5 185.16,-847.53 186.36,-848.52 187.59,-849.45"/>
<polygon fill="#63b8ff" stroke="#63b8ff" points="185.88,-852.51 196.19,-854.94 189.65,-846.61 185.88,-852.51"/>
</a>
</g>
</g>
<!-- Node11 -->
<g id="Node000011" class="node">
<title>Node11</title>
<g id="a_Node000011"><a xlink:href="classMarkovRateTable.html#a984c7bc38f56c5507a1df9b85d00c2ad" target="_top" xlink:title=" ">
<polygon fill="white" stroke="#666666" points="347,-837 217,-837 217,-818 347,-818 347,-837"/>
<text text-anchor="middle" x="282" y="-825" font-family="Ubuntu Mono" font-size="10.00">MarkovRateTable::getQ</text>
</a>
</g>
</g>
<!-- Node1&#45;&gt;Node11 -->
<g id="edge7_Node000001_Node000011" class="edge">
<title>Node1&#45;&gt;Node11</title>
<g id="a_edge7_Node000001_Node000011"><a xlink:title=" ">
<path fill="none" stroke="#63b8ff" d="M75.02,-499.22C75.69,-543 84.56,-723.51 184,-809.5 190.73,-815.32 198.72,-819.52 207.19,-822.52"/>
<polygon fill="#63b8ff" stroke="#63b8ff" points="206.32,-825.91 216.91,-825.41 208.32,-819.2 206.32,-825.91"/>
</a>
</g>
</g>
<!-- Node12 -->
<g id="Node000012" class="node">
<title>Node12</title>
<g id="a_Node000012"><a xlink:href="classMarkovRateTable.html#affffb1132ce09a33e335290ce44853d0" target="_top" xlink:title=" ">
<polygon fill="white" stroke="#666666" points="353.5,-800 210.5,-800 210.5,-781 353.5,-781 353.5,-800"/>
<text text-anchor="middle" x="282" y="-788" font-family="Ubuntu Mono" font-size="10.00">MarkovRateTable::getSize</text>
</a>
</g>
</g>
<!-- Node1&#45;&gt;Node12 -->
<g id="edge8_Node000001_Node000012" class="edge">
<title>Node1&#45;&gt;Node12</title>
<g id="a_edge8_Node000001_Node000012"><a xlink:title=" ">
<path fill="none" stroke="#63b8ff" d="M75.5,-499.2C78.15,-539.84 94.1,-697.8 184,-772.5 189.01,-776.67 194.68,-779.99 200.7,-782.63"/>
<polygon fill="#63b8ff" stroke="#63b8ff" points="199.8,-786.03 210.39,-786.25 202.24,-779.48 199.8,-786.03"/>
</a>
</g>
</g>
<!-- Node13 -->
<g id="Node000013" class="node">
<title>Node13</title>
<g id="a_Node000013"><a xlink:href="classMarkovRateTable.html#aef7800742f351f547dd7efc1fe1ee360" target="_top" xlink:title=" ">
<polygon fill="white" stroke="#666666" points="351.5,-763 212.5,-763 212.5,-744 351.5,-744 351.5,-763"/>
<text text-anchor="middle" x="282" y="-751" font-family="Ubuntu Mono" font-size="10.00">MarkovRateTable::getVm</text>
</a>
</g>
</g>
<!-- Node1&#45;&gt;Node13 -->
<g id="edge9_Node000001_Node000013" class="edge">
<title>Node1&#45;&gt;Node13</title>
<g id="a_edge9_Node000001_Node000013"><a xlink:title=" ">
<path fill="none" stroke="#63b8ff" d="M76.11,-499.2C80.92,-536.52 103.54,-671.94 184,-735.5 189.68,-739.99 196.13,-743.49 202.95,-746.2"/>
<polygon fill="#63b8ff" stroke="#63b8ff" points="201.82,-749.51 212.42,-749.42 204.08,-742.89 201.82,-749.51"/>
</a>
</g>
</g>
<!-- Node14 -->
<g id="Node000014" class="node">
<title>Node14</title>
<g id="a_Node000014"><a xlink:href="classMarkovRateTable.html#ab9dc3a34b53a8544e3153ab38ec00229" target="_top" xlink:title=" ">
<polygon fill="white" stroke="#666666" points="380,-726 184,-726 184,-707 380,-707 380,-726"/>
<text text-anchor="middle" x="282" y="-714" font-family="Ubuntu Mono" font-size="10.00">MarkovRateTable::handleLigandConc</text>
</a>
</g>
</g>
<!-- Node1&#45;&gt;Node14 -->
<g id="edge10_Node000001_Node000014" class="edge">
<title>Node1&#45;&gt;Node14</title>
<g id="a_edge10_Node000001_Node000014"><a xlink:title=" ">
<path fill="none" stroke="#63b8ff" d="M76.95,-499.36C84.19,-533.29 112.93,-645.94 184,-698.5 185.85,-699.87 187.77,-701.14 189.74,-702.32"/>
<polygon fill="#63b8ff" stroke="#63b8ff" points="188.27,-705.5 198.76,-706.97 191.48,-699.28 188.27,-705.5"/>
</a>
</g>
</g>
<!-- Node15 -->
<g id="Node000015" class="node">
<title>Node15</title>
<g id="a_Node000015"><a xlink:href="classMarkovRateTable.html#a418adbdae6ab58b11dd4f73a007cb76a" target="_top" xlink:title=" ">
<polygon fill="white" stroke="#666666" points="360,-689 204,-689 204,-670 360,-670 360,-689"/>
<text text-anchor="middle" x="282" y="-677" font-family="Ubuntu Mono" font-size="10.00">MarkovRateTable::handleVm</text>
</a>
</g>
</g>
<!-- Node1&#45;&gt;Node15 -->
<g id="edge11_Node000001_Node000015" class="edge">
<title>Node1&#45;&gt;Node15</title>
<g id="a_edge11_Node000001_Node000015"><a xlink:title=" ">
<path fill="none" stroke="#63b8ff" d="M78.42,-499.19C89.08,-527.95 124.63,-613.46 184,-655.5 190.32,-659.98 197.39,-663.62 204.75,-666.59"/>
<polygon fill="#63b8ff" stroke="#63b8ff" points="203.6,-669.89 214.19,-670 205.98,-663.31 203.6,-669.89"/>
</a>
</g>
</g>
<!-- Node16 -->
<g id="Node000016" class="node">
<title>Node16</title>
<g id="a_Node000016"><a xlink:href="classMarkovRateTable.html#ae2ab48213b424d6d4432374fa71b99d0" target="_top" xlink:title=" ">
<polygon fill="white" stroke="#666666" points="343,-1039 221,-1039 221,-1020 343,-1020 343,-1039"/>
<text text-anchor="middle" x="282" y="-1027" font-family="Ubuntu Mono" font-size="10.00">MarkovRateTable::init</text>
</a>
</g>
</g>
<!-- Node1&#45;&gt;Node16 -->
<g id="edge12_Node000001_Node000016" class="edge">
<title>Node1&#45;&gt;Node16</title>
<g id="a_edge12_Node000001_Node000016"><a xlink:title=" ">
<path fill="none" stroke="#63b8ff" d="M76.11,-499.39C83.22,-561.29 123.96,-895.15 184,-975.5 198.08,-994.34 220.78,-1007.49 240.68,-1016.09"/>
<polygon fill="#63b8ff" stroke="#63b8ff" points="239.59,-1019.43 250.17,-1019.96 242.23,-1012.94 239.59,-1019.43"/>
</a>
</g>
</g>
<!-- Node18 -->
<g id="Node000018" class="node">
<title>Node18</title>
<g id="a_Node000018"><a xlink:href="classNeutral.html#a70fe1de93fce8611988faacd5cc96dd3" target="_top" xlink:title=" ">
<polygon fill="#fff0f0" stroke="red" points="332,-613 232,-613 232,-594 332,-594 332,-613"/>
<text text-anchor="middle" x="282" y="-601" font-family="Ubuntu Mono" font-size="10.00">Neutral::initCinfo</text>
</a>
</g>
</g>
<!-- Node1&#45;&gt;Node18 -->
<g id="edge14_Node000001_Node000018" class="edge">
<title>Node1&#45;&gt;Node18</title>
<g id="a_edge14_Node000001_Node000018"><a xlink:title=" ">
<path fill="none" stroke="#63b8ff" d="M83.6,-499.01C100.81,-517.45 141.48,-558.09 184,-579.5 195.73,-585.41 209.01,-589.92 221.89,-593.34"/>
<polygon fill="#63b8ff" stroke="#63b8ff" points="221.08,-596.75 231.63,-595.76 222.76,-589.95 221.08,-596.75"/>
</a>
</g>
</g>
<!-- Node158 -->
<g id="Node000158" class="node">
<title>Node158</title>
<g id="a_Node000158"><a xlink:href="classValueFinfo.html#afc85efa500f5640f0ef55da08396bbf8" target="_top" xlink:title=" ">
<polygon fill="white" stroke="#666666" points="560.5,-206 435.5,-206 435.5,-187 560.5,-187 560.5,-206"/>
<text text-anchor="middle" x="498" y="-194" font-family="Ubuntu Mono" font-size="10.00">ValueFinfo::ValueFinfo</text>
</a>
</g>
</g>
<!-- Node1&#45;&gt;Node158 -->
<g id="edge55_Node000001_Node000158" class="edge">
<title>Node1&#45;&gt;Node158</title>
<g id="a_edge55_Node000001_Node000158"><a xlink:title=" ">
<path fill="none" stroke="#63b8ff" d="M89.34,-499C137.32,-529.5 293.97,-618.55 380,-541.5 434.29,-492.87 367.66,-270.05 416,-215.5 418.96,-212.16 422.39,-209.34 426.14,-206.98"/>
<polygon fill="#63b8ff" stroke="#63b8ff" points="428.06,-209.93 435.35,-202.25 424.86,-203.7 428.06,-209.93"/>
</a>
</g>
</g>
<!-- Node159 -->
<g id="Node000159" class="node">
<title>Node159</title>
<g id="a_Node000159"><a xlink:href="MarkovRateTable_8cpp.html#a3fe91921a03013267ce3a128cbbe141a" target="_top" xlink:title=" ">
<polygon fill="#fff0f0" stroke="red" points="538,-169 458,-169 458,-150 538,-150 538,-169"/>
<text text-anchor="middle" x="498" y="-157" font-family="Ubuntu Mono" font-size="10.00">instRatesOut</text>
</a>
</g>
</g>
<!-- Node1&#45;&gt;Node159 -->
<g id="edge38_Node000001_Node000159" class="edge">
<title>Node1&#45;&gt;Node159</title>
<g id="a_edge38_Node000001_Node000159"><a xlink:title=" ">
<path fill="none" stroke="#63b8ff" d="M116.42,-499.03C190.67,-515.03 342.23,-542.37 380,-508.5 434.92,-459.25 367.11,-233.74 416,-178.5 424.15,-169.29 435.84,-164.1 447.82,-161.29"/>
<polygon fill="#63b8ff" stroke="#63b8ff" points="448.67,-164.69 457.87,-159.44 447.4,-157.8 448.67,-164.69"/>
</a>
</g>
</g>
<!-- Node160 -->
<g id="Node000160" class="node">
<title>Node160</title>
<g id="a_Node000160"><a xlink:href="classOpFunc1.html#abc0aeb50c1657a6777c508d17c872809" target="_top" xlink:title=" ">
<polygon fill="white" stroke="#666666" points="335.5,-499 228.5,-499 228.5,-480 335.5,-480 335.5,-499"/>
<text text-anchor="middle" x="282" y="-487" font-family="Ubuntu Mono" font-size="10.00">OpFunc1::OpFunc1</text>
</a>
</g>
</g>
<!-- Node1&#45;&gt;Node160 -->
<g id="edge39_Node000001_Node000160" class="edge">
<title>Node1&#45;&gt;Node160</title>
<g id="a_edge39_Node000001_Node000160"><a xlink:title=" ">
<path fill="none" stroke="#63b8ff" d="M148.21,-489.5C171.07,-489.5 196.07,-489.5 218.16,-489.5"/>
<polygon fill="#63b8ff" stroke="#63b8ff" points="218.41,-493 228.41,-489.5 218.41,-486 218.41,-493"/>
</a>
</g>
</g>
<!-- Node161 -->
<g id="Node000161" class="node">
<title>Node161</title>
<g id="a_Node000161"><a xlink:href="classOpFunc3.html#af3f80dade56ee547536462751a5a3800" target="_top" xlink:title=" ">
<polygon fill="white" stroke="#666666" points="335.5,-462 228.5,-462 228.5,-443 335.5,-443 335.5,-462"/>
<text text-anchor="middle" x="282" y="-450" font-family="Ubuntu Mono" font-size="10.00">OpFunc3::OpFunc3</text>
</a>
</g>
</g>
<!-- Node1&#45;&gt;Node161 -->
<g id="edge40_Node000001_Node000161" class="edge">
<title>Node1&#45;&gt;Node161</title>
<g id="a_edge40_Node000001_Node000161"><a xlink:title=" ">
<path fill="none" stroke="#63b8ff" d="M128.05,-479.97C155.67,-475.01 189.61,-468.91 218.5,-463.73"/>
<polygon fill="#63b8ff" stroke="#63b8ff" points="219.26,-467.14 228.49,-461.93 218.03,-460.26 219.26,-467.14"/>
</a>
</g>
</g>
<!-- Node162 -->
<g id="Node000162" class="node">
<title>Node162</title>
<g id="a_Node000162"><a xlink:href="classOpFunc4.html#abf3a6e6b3042086eba970ae19372b507" target="_top" xlink:title=" ">
<polygon fill="white" stroke="#666666" points="335.5,-425 228.5,-425 228.5,-406 335.5,-406 335.5,-425"/>
<text text-anchor="middle" x="282" y="-413" font-family="Ubuntu Mono" font-size="10.00">OpFunc4::OpFunc4</text>
</a>
</g>
</g>
<!-- Node1&#45;&gt;Node162 -->
<g id="edge41_Node000001_Node000162" class="edge">
<title>Node1&#45;&gt;Node162</title>
<g id="a_edge41_Node000001_Node000162"><a xlink:title=" ">
<path fill="none" stroke="#63b8ff" d="M90.65,-479.87C111.3,-467.57 149.11,-446.46 184,-434.5 194.92,-430.75 206.8,-427.66 218.39,-425.15"/>
<polygon fill="#63b8ff" stroke="#63b8ff" points="219.37,-428.52 228.46,-423.08 217.96,-421.66 219.37,-428.52"/>
</a>
</g>
</g>
<!-- Node163 -->
<g id="Node000163" class="node">
<title>Node163</title>
<g id="a_Node000163"><a xlink:href="classMarkovRateTable.html#ac1029cbb9689c01a8f4cc7ec1d92f2d6" target="_top" xlink:title=" ">
<polygon fill="#fff0f0" stroke="red" points="354,-388 210,-388 210,-369 354,-369 354,-388"/>
<text text-anchor="middle" x="282" y="-376" font-family="Ubuntu Mono" font-size="10.00">MarkovRateTable::process</text>
</a>
</g>
</g>
<!-- Node1&#45;&gt;Node163 -->
<g id="edge42_Node000001_Node000163" class="edge">
<title>Node1&#45;&gt;Node163</title>
<g id="a_edge42_Node000001_Node000163"><a xlink:title=" ">
<path fill="none" stroke="#63b8ff" d="M83.2,-479.88C100.01,-460.83 140.46,-418.38 184,-397.5 189.2,-395 194.71,-392.84 200.36,-390.95"/>
<polygon fill="#63b8ff" stroke="#63b8ff" points="201.41,-394.29 209.96,-388.04 199.38,-387.59 201.41,-394.29"/>
</a>
</g>
</g>
<!-- Node199 -->
<g id="Node000199" class="node">
<title>Node199</title>
<g id="a_Node000199"><a xlink:href="classProcOpFunc.html#a09abf4cb6cd3d1ed513fee1ed18054f4" target="_top" xlink:title=" ">
<polygon fill="white" stroke="#666666" points="350.5,-351 213.5,-351 213.5,-332 350.5,-332 350.5,-351"/>
<text text-anchor="middle" x="282" y="-339" font-family="Ubuntu Mono" font-size="10.00">ProcOpFunc::ProcOpFunc</text>
</a>
</g>
</g>
<!-- Node1&#45;&gt;Node199 -->
<g id="edge44_Node000001_Node000199" class="edge">
<title>Node1&#45;&gt;Node199</title>
<g id="a_edge44_Node000001_Node000199"><a xlink:title=" ">
<path fill="none" stroke="#63b8ff" d="M80.08,-479.81C93.46,-455.36 132.18,-390.95 184,-360.5 190.01,-356.97 196.56,-354.07 203.33,-351.71"/>
<polygon fill="#63b8ff" stroke="#63b8ff" points="204.83,-354.91 213.35,-348.61 202.76,-348.22 204.83,-354.91"/>
</a>
</g>
</g>
<!-- Node200 -->
<g id="Node000200" class="node">
<title>Node200</title>
<g id="a_Node000200"><a xlink:href="classReadOnlyValueFinfo.html#a45da388415fe4e2aebb7fc6eb8e16b07" target="_top" xlink:title=" ">
<polygon fill="white" stroke="#666666" points="342.5,-313.5 221.5,-313.5 221.5,-283.5 342.5,-283.5 342.5,-313.5"/>
<text text-anchor="start" x="229.5" y="-301.5" font-family="Ubuntu Mono" font-size="10.00">ReadOnlyValueFinfo</text>
<text text-anchor="middle" x="282" y="-290.5" font-family="Ubuntu Mono" font-size="10.00">::ReadOnlyValueFinfo</text>
</a>
</g>
</g>
<!-- Node1&#45;&gt;Node200 -->
<g id="edge45_Node000001_Node000200" class="edge">
<title>Node1&#45;&gt;Node200</title>
<g id="a_edge45_Node000001_Node000200"><a xlink:title=" ">
<path fill="none" stroke="#63b8ff" d="M78.44,-479.84C89.15,-451.15 124.84,-365.83 184,-323.5 192.22,-317.62 201.71,-313.12 211.47,-309.68"/>
<polygon fill="#63b8ff" stroke="#63b8ff" points="212.79,-312.93 221.27,-306.58 210.68,-306.25 212.79,-312.93"/>
</a>
</g>
</g>
<!-- Node201 -->
<g id="Node000201" class="node">
<title>Node201</title>
<g id="a_Node000201"><a xlink:href="classMarkovRateTable.html#a86be0c89271e9d7ce307f57d76c8b7ee" target="_top" xlink:title=" ">
<polygon fill="#fff0f0" stroke="red" points="348,-265 216,-265 216,-246 348,-246 348,-265"/>
<text text-anchor="middle" x="282" y="-253" font-family="Ubuntu Mono" font-size="10.00">MarkovRateTable::reinit</text>
</a>
</g>
</g>
<!-- Node1&#45;&gt;Node201 -->
<g id="edge46_Node000001_Node000201" class="edge">
<title>Node1&#45;&gt;Node201</title>
<g id="a_edge46_Node000001_Node000201"><a xlink:title=" ">
<path fill="none" stroke="#63b8ff" d="M76.78,-479.86C83.61,-445.67 111.57,-329.28 184,-274.5 190.69,-269.44 198.36,-265.62 206.39,-262.75"/>
<polygon fill="#63b8ff" stroke="#63b8ff" points="207.43,-266.09 215.95,-259.8 205.37,-259.41 207.43,-266.09"/>
</a>
</g>
</g>
<!-- Node204 -->
<g id="Node000204" class="node">
<title>Node204</title>
<g id="a_Node000204"><a xlink:href="classMarkovRateTable.html#afa5b42a065f975cef3c0eb566b26a78b" target="_top" xlink:title=" ">
<polygon fill="#fff0f0" stroke="red" points="376,-228 188,-228 188,-209 376,-209 376,-228"/>
<text text-anchor="middle" x="282" y="-216" font-family="Ubuntu Mono" font-size="10.00">MarkovRateTable::setConstantRate</text>
</a>
</g>
</g>
<!-- Node1&#45;&gt;Node204 -->
<g id="edge48_Node000001_Node000204" class="edge">
<title>Node1&#45;&gt;Node204</title>
<g id="a_edge48_Node000001_Node000204"><a xlink:title=" ">
<path fill="none" stroke="#63b8ff" d="M76.01,-479.85C80.53,-442.11 102.33,-303.28 184,-237.5 186.05,-235.85 188.2,-234.33 190.43,-232.93"/>
<polygon fill="#63b8ff" stroke="#63b8ff" points="192.25,-235.93 199.4,-228.11 188.94,-229.76 192.25,-235.93"/>
</a>
</g>
</g>
<!-- Node211 -->
<g id="Node000211" class="node">
<title>Node211</title>
<g id="a_Node000211"><a xlink:href="classMarkovRateTable.html#a1539666fe03289a5dcfa184d2b1df00a" target="_top" xlink:title=" ">
<polygon fill="#fff0f0" stroke="red" points="355,-190.5 209,-190.5 209,-160.5 355,-160.5 355,-190.5"/>
<text text-anchor="start" x="217" y="-178.5" font-family="Ubuntu Mono" font-size="10.00">MarkovRateTable::setInt2d</text>
<text text-anchor="middle" x="282" y="-167.5" font-family="Ubuntu Mono" font-size="10.00">ChildTable</text>
</a>
</g>
</g>
<!-- Node1&#45;&gt;Node211 -->
<g id="edge49_Node000001_Node000211" class="edge">
<title>Node1&#45;&gt;Node211</title>
<g id="a_edge49_Node000001_Node000211"><a xlink:title=" ">
<path fill="none" stroke="#63b8ff" d="M75.57,-479.77C78.49,-438.95 95.39,-279.99 184,-200.5 188.56,-196.41 193.7,-192.97 199.18,-190.08"/>
<polygon fill="#63b8ff" stroke="#63b8ff" points="201.05,-193.08 208.68,-185.72 198.13,-186.71 201.05,-193.08"/>
</a>
</g>
</g>
<!-- Node215 -->
<g id="Node000215" class="node">
<title>Node215</title>
<g id="a_Node000215"><a xlink:href="classMarkovRateTable.html#a2e476e391c73fc7ed0072cec24b14ba8" target="_top" xlink:title=" ">
<polygon fill="white" stroke="#666666" points="371,-142 193,-142 193,-123 371,-123 371,-142"/>
<text text-anchor="middle" x="282" y="-130" font-family="Ubuntu Mono" font-size="10.00">MarkovRateTable::setLigandConc</text>
</a>
</g>
</g>
<!-- Node1&#45;&gt;Node215 -->
<g id="edge50_Node000001_Node000215" class="edge">
<title>Node1&#45;&gt;Node215</title>
<g id="a_edge50_Node000001_Node000215"><a xlink:title=" ">
<path fill="none" stroke="#63b8ff" d="M74.84,-479.88C74.68,-434.91 80.27,-243.61 184,-151.5 185.72,-149.97 187.53,-148.55 189.4,-147.23"/>
<polygon fill="#63b8ff" stroke="#63b8ff" points="191.26,-150.2 198.06,-142.07 187.68,-144.19 191.26,-150.2"/>
</a>
</g>
</g>
<!-- Node216 -->
<g id="Node000216" class="node">
<title>Node216</title>
<g id="a_Node000216"><a xlink:href="classMarkovRateTable.html#a41d243ae21cc5f37a5c52834ea9a1cbd" target="_top" xlink:title=" ">
<polygon fill="white" stroke="#666666" points="351,-105 213,-105 213,-86 351,-86 351,-105"/>
<text text-anchor="middle" x="282" y="-93" font-family="Ubuntu Mono" font-size="10.00">MarkovRateTable::setVm</text>
</a>
</g>
</g>
<!-- Node1&#45;&gt;Node216 -->
<g id="edge51_Node000001_Node000216" class="edge">
<title>Node1&#45;&gt;Node216</title>
<g id="a_edge51_Node000001_Node000216"><a xlink:title=" ">
<path fill="none" stroke="#63b8ff" d="M76.4,-479.93C84.43,-426.53 126.2,-165.86 184,-113.5 189.59,-108.44 196.12,-104.59 203.1,-101.68"/>
<polygon fill="#63b8ff" stroke="#63b8ff" points="204.58,-104.87 212.87,-98.27 202.27,-98.26 204.58,-104.87"/>
</a>
</g>
</g>
<!-- Node217 -->
<g id="Node000217" class="node">
<title>Node217</title>
<g id="a_Node000217"><a xlink:href="classMarkovRateTable.html#ac18b829a771e1790f089e2528e08c3ef" target="_top" xlink:title=" ">
<polygon fill="#fff0f0" stroke="red" points="360.5,-67.5 203.5,-67.5 203.5,-37.5 360.5,-37.5 360.5,-67.5"/>
<text text-anchor="start" x="211.5" y="-55.5" font-family="Ubuntu Mono" font-size="10.00">MarkovRateTable::setVtChild</text>
<text text-anchor="middle" x="282" y="-44.5" font-family="Ubuntu Mono" font-size="10.00">Table</text>
</a>
</g>
</g>
<!-- Node1&#45;&gt;Node217 -->
<g id="edge52_Node000001_Node000217" class="edge">
<title>Node1&#45;&gt;Node217</title>
<g id="a_edge52_Node000001_Node000217"><a xlink:title=" ">
<path fill="none" stroke="#63b8ff" d="M76.22,-479.81C83.5,-423.27 123.1,-136.46 184,-76.5 187.13,-73.42 190.59,-70.71 194.28,-68.34"/>
<polygon fill="#63b8ff" stroke="#63b8ff" points="196.21,-71.27 203.27,-63.37 192.83,-65.14 196.21,-71.27"/>
</a>
</g>
</g>
<!-- Node218 -->
<g id="Node000218" class="node">
<title>Node218</title>
<g id="a_Node000218"><a xlink:href="classSharedFinfo.html#a64b94efcbd56f0e785f92d027541ae29" target="_top" xlink:title=" ">
<polygon fill="white" stroke="#666666" points="351,-19 213,-19 213,0 351,0 351,-19"/>
<text text-anchor="middle" x="282" y="-7" font-family="Ubuntu Mono" font-size="10.00">SharedFinfo::SharedFinfo</text>
</a>
</g>
</g>
<!-- Node1&#45;&gt;Node218 -->
<g id="edge53_Node000001_Node000218" class="edge">
<title>Node1&#45;&gt;Node218</title>
<g id="a_edge53_Node000001_Node000218"><a xlink:title=" ">
<path fill="none" stroke="#63b8ff" d="M75.88,-479.85C81.59,-419.52 115.25,-94.64 184,-28.5 189.44,-23.27 195.88,-19.27 202.81,-16.24"/>
<polygon fill="#63b8ff" stroke="#63b8ff" points="204.33,-19.41 212.51,-12.68 201.92,-12.84 204.33,-19.41"/>
</a>
</g>
</g>
<!-- Node3 -->
<g id="Node000003" class="node">
<title>Node3</title>
<g id="a_Node000003"><a xlink:href="classCinfo.html#a4f32262aa0cc7c19bc520885a5dc9509" target="_top" xlink:title=" ">
<polygon fill="white" stroke="#666666" points="709,-1013 616,-1013 616,-994 709,-994 709,-1013"/>
<text text-anchor="middle" x="662.5" y="-1001" font-family="Ubuntu Mono" font-size="10.00">Cinfo::cinfoMap</text>
</a>
</g>
</g>
<!-- Node2&#45;&gt;Node3 -->
<g id="edge2_Node000002_Node000003" class="edge">
<title>Node2&#45;&gt;Node3</title>
<g id="a_edge2_Node000002_Node000003"><a xlink:title=" ">
<path fill="none" stroke="#63b8ff" d="M535.06,-1018.28C555.83,-1015.85 582.38,-1012.75 605.78,-1010.01"/>
<polygon fill="#63b8ff" stroke="#63b8ff" points="606.41,-1013.47 615.93,-1008.83 605.6,-1006.51 606.41,-1013.47"/>
</a>
</g>
</g>
<!-- Node4 -->
<g id="Node000004" class="node">
<title>Node4</title>
<g id="a_Node000004"><a xlink:href="classCinfo.html#a794a4e6f88c66438308ca177d9c92751" target="_top" xlink:title=" ">
<polygon fill="#fff0f0" stroke="red" points="694.5,-1050 630.5,-1050 630.5,-1031 694.5,-1031 694.5,-1050"/>
<text text-anchor="middle" x="662.5" y="-1038" font-family="Ubuntu Mono" font-size="10.00">Cinfo::init</text>
</a>
</g>
</g>
<!-- Node2&#45;&gt;Node4 -->
<g id="edge3_Node000002_Node000004" class="edge">
<title>Node2&#45;&gt;Node4</title>
<g id="a_edge3_Node000002_Node000004"><a xlink:title=" ">
<path fill="none" stroke="#63b8ff" d="M535.06,-1026.49C560.32,-1029.29 594.13,-1033.04 620.42,-1035.95"/>
<polygon fill="#63b8ff" stroke="#63b8ff" points="620.14,-1039.44 630.46,-1037.06 620.91,-1032.48 620.14,-1039.44"/>
</a>
</g>
</g>
<!-- Node9 -->
<g id="Node000009" class="node">
<title>Node9</title>
<g id="a_Node000009"><a xlink:href="classFinfo.html#a1988dedc8761bf072a396354fe2d1672" target="_top" xlink:title=" ">
<polygon fill="white" stroke="#666666" points="698,-563 627,-563 627,-544 698,-544 698,-563"/>
<text text-anchor="middle" x="662.5" y="-551" font-family="Ubuntu Mono" font-size="10.00">Finfo::Finfo</text>
</a>
</g>
</g>
<!-- Node8&#45;&gt;Node9 -->
<g id="edge5_Node000008_Node000009" class="edge">
<title>Node8&#45;&gt;Node9</title>
<g id="a_edge5_Node000008_Node000009"><a xlink:title=" ">
<path fill="none" stroke="#63b8ff" d="M556.1,-980.83C565.05,-977.81 573.48,-973.26 580,-966.5 635.52,-908.97 655.67,-648.1 660.35,-573.49"/>
<polygon fill="#63b8ff" stroke="#63b8ff" points="663.87,-573.37 660.98,-563.17 656.88,-572.94 663.87,-573.37"/>
</a>
</g>
</g>
<!-- Node17 -->
<g id="Node000017" class="node">
<title>Node17</title>
<g id="a_Node000017"><a xlink:href="MarkovRateTable_8h.html#a2721ae7216332a68b2c04b38b187481e" target="_top" xlink:title=" ">
<polygon fill="white" stroke="#666666" points="521,-1069 475,-1069 475,-1050 521,-1050 521,-1069"/>
<text text-anchor="middle" x="498" y="-1057" font-family="Ubuntu Mono" font-size="10.00">resize</text>
</a>
</g>
</g>
<!-- Node16&#45;&gt;Node17 -->
<g id="edge13_Node000016_Node000017" class="edge">
<title>Node16&#45;&gt;Node17</title>
<g id="a_edge13_Node000016_Node000017"><a xlink:title=" ">
<path fill="none" stroke="#63b8ff" d="M343.18,-1037.94C382.61,-1043.46 432.61,-1050.47 464.7,-1054.97"/>
<polygon fill="#63b8ff" stroke="#63b8ff" points="464.47,-1058.47 474.86,-1056.4 465.44,-1051.54 464.47,-1058.47"/>
</a>
</g>
</g>
<!-- Node18&#45;&gt;Node2 -->
<g id="edge16_Node000018_Node000002" class="edge">
<title>Node18&#45;&gt;Node2</title>
<g id="a_edge16_Node000018_Node000002"><a xlink:title=" ">
<path fill="none" stroke="#63b8ff" d="M312.8,-613.05C335.2,-621.89 364.58,-637.35 380,-661.5 421.24,-726.1 364.98,-947.3 416,-1004.5 424.78,-1014.34 437.63,-1019.44 450.53,-1021.94"/>
<polygon fill="#63b8ff" stroke="#63b8ff" points="450.4,-1025.46 460.8,-1023.43 451.4,-1018.53 450.4,-1025.46"/>
</a>
</g>
</g>
<!-- Node18&#45;&gt;Node8 -->
<g id="edge17_Node000018_Node000008" class="edge">
<title>Node18&#45;&gt;Node8</title>
<g id="a_edge17_Node000018_Node000008"><a xlink:title=" ">
<path fill="none" stroke="#63b8ff" d="M332.19,-604.41C349.74,-607.33 368.09,-613.84 380,-627.5 479.57,-741.71 315.74,-852.9 416,-966.5 420.04,-971.08 424.96,-974.66 430.35,-977.46"/>
<polygon fill="#63b8ff" stroke="#63b8ff" points="429.23,-980.78 439.8,-981.45 431.95,-974.33 429.23,-980.78"/>
</a>
</g>
</g>
<!-- Node19 -->
<g id="Node000019" class="node">
<title>Node19</title>
<g id="a_Node000019"><a xlink:href="classNeutral.html#a9914118f1eab1c69e28d0e814e5b5824" target="_top" xlink:title=" ">
<polygon fill="white" stroke="#666666" points="572.5,-280 423.5,-280 423.5,-261 572.5,-261 572.5,-280"/>
<text text-anchor="middle" x="498" y="-268" font-family="Ubuntu Mono" font-size="10.00">Neutral::blockNodeBalance</text>
</a>
</g>
</g>
<!-- Node18&#45;&gt;Node19 -->
<g id="edge15_Node000018_Node000019" class="edge">
<title>Node18&#45;&gt;Node19</title>
<g id="a_edge15_Node000018_Node000019"><a xlink:title=" ">
<path fill="none" stroke="#63b8ff" d="M332.06,-602.48C349.59,-599.55 367.97,-593.06 380,-579.5 466.21,-482.36 329.2,-386.11 416,-289.5 417.06,-288.32 418.17,-287.22 419.33,-286.17"/>
<polygon fill="#63b8ff" stroke="#63b8ff" points="421.63,-288.82 427.68,-280.12 417.53,-283.15 421.63,-288.82"/>
</a>
</g>
</g>
<!-- Node20 -->
<g id="Node000020" class="node">
<title>Node20</title>
<g id="a_Node000020"><a xlink:href="classNeutral.html#aa2c79f5c59b166602381680987c84165" target="_top" xlink:title=" ">
<polygon fill="#fff0f0" stroke="red" points="545.5,-243 450.5,-243 450.5,-224 545.5,-224 545.5,-243"/>
<text text-anchor="middle" x="498" y="-231" font-family="Ubuntu Mono" font-size="10.00">Neutral::destroy</text>
</a>
</g>
</g>
<!-- Node18&#45;&gt;Node20 -->
<g id="edge18_Node000018_Node000020" class="edge">
<title>Node18&#45;&gt;Node20</title>
<g id="a_edge18_Node000018_Node000020"><a xlink:title=" ">
<path fill="none" stroke="#63b8ff" d="M332.16,-602.57C349.71,-599.65 368.06,-593.14 380,-579.5 476.29,-469.48 319.04,-361.94 416,-252.5 422.47,-245.2 431.16,-240.43 440.46,-237.36"/>
<polygon fill="#63b8ff" stroke="#63b8ff" points="441.53,-240.7 450.29,-234.74 439.73,-233.93 441.53,-240.7"/>
</a>
</g>
</g>
<!-- Node51 -->
<g id="Node000051" class="node">
<title>Node51</title>
<g id="a_Node000051"><a xlink:href="classElementValueFinfo.html#a920b84a2ae5d17c07322009467413ca1" target="_top" xlink:title=" ">
<polygon fill="white" stroke="#666666" points="555,-957.5 441,-957.5 441,-927.5 555,-927.5 555,-957.5"/>
<text text-anchor="start" x="449" y="-945.5" font-family="Ubuntu Mono" font-size="10.00">ElementValueFinfo::</text>
<text text-anchor="middle" x="498" y="-934.5" font-family="Ubuntu Mono" font-size="10.00">ElementValueFinfo</text>
</a>
</g>
</g>
<!-- Node18&#45;&gt;Node51 -->
<g id="edge19_Node000018_Node000051" class="edge">
<title>Node18&#45;&gt;Node51</title>
<g id="a_edge19_Node000018_Node000051"><a xlink:title=" ">
<path fill="none" stroke="#63b8ff" d="M332.07,-604.52C349.6,-607.45 367.97,-613.94 380,-627.5 466.48,-724.99 331.76,-819.07 416,-918.5 420.29,-923.57 425.6,-927.59 431.43,-930.79"/>
<polygon fill="#63b8ff" stroke="#63b8ff" points="430.4,-934.17 440.95,-935.15 433.32,-927.8 430.4,-934.17"/>
</a>
</g>
</g>
<!-- Node52 -->
<g id="Node000052" class="node">
<title>Node52</title>
<g id="a_Node000052"><a xlink:href="classEpFunc0.html#a65a165d2b5236827e20b5f84536e3ecb" target="_top" xlink:title=" ">
<polygon fill="white" stroke="#666666" points="550,-909 446,-909 446,-890 550,-890 550,-909"/>
<text text-anchor="middle" x="498" y="-897" font-family="Ubuntu Mono" font-size="10.00">EpFunc0::EpFunc0</text>
</a>
</g>
</g>
<!-- Node18&#45;&gt;Node52 -->
<g id="edge20_Node000018_Node000052" class="edge">
<title>Node18&#45;&gt;Node52</title>
<g id="a_edge20_Node000018_Node000052"><a xlink:title=" ">
<path fill="none" stroke="#63b8ff" d="M332.19,-604.67C349.63,-607.64 367.91,-614.11 380,-627.5 456.42,-712.12 338.58,-797.8 416,-881.5 421.56,-887.51 428.65,-891.75 436.32,-894.69"/>
<polygon fill="#63b8ff" stroke="#63b8ff" points="435.29,-898.04 445.88,-897.67 437.38,-891.35 435.29,-898.04"/>
</a>
</g>
</g>
<!-- Node53 -->
<g id="Node000053" class="node">
<title>Node53</title>
<g id="a_Node000053"><a xlink:href="classEpFunc1.html#aa6a9cc9446afac48f3e2f51a116766c0" target="_top" xlink:title=" ">
<polygon fill="white" stroke="#666666" points="550,-872 446,-872 446,-853 550,-853 550,-872"/>
<text text-anchor="middle" x="498" y="-860" font-family="Ubuntu Mono" font-size="10.00">EpFunc1::EpFunc1</text>
</a>
</g>
</g>
<!-- Node18&#45;&gt;Node53 -->
<g id="edge21_Node000018_Node000053" class="edge">
<title>Node18&#45;&gt;Node53</title>
<g id="a_edge21_Node000018_Node000053"><a xlink:title=" ">
<path fill="none" stroke="#63b8ff" d="M332.03,-604.83C349.44,-607.81 367.75,-614.25 380,-627.5 446.38,-699.28 348.77,-773.52 416,-844.5 421.5,-850.31 428.43,-854.45 435.91,-857.36"/>
<polygon fill="#63b8ff" stroke="#63b8ff" points="435.01,-860.75 445.6,-860.43 437.13,-854.08 435.01,-860.75"/>
</a>
</g>
</g>
<!-- Node54 -->
<g id="Node000054" class="node">
<title>Node54</title>
<g id="a_Node000054"><a xlink:href="classEpFunc2.html#a449f38ac36c9f1fdc9cc7a244841bbee" target="_top" xlink:title=" ">
<polygon fill="white" stroke="#666666" points="550,-835 446,-835 446,-816 550,-816 550,-835"/>
<text text-anchor="middle" x="498" y="-823" font-family="Ubuntu Mono" font-size="10.00">EpFunc2::EpFunc2</text>
</a>
</g>
</g>
<!-- Node18&#45;&gt;Node54 -->
<g id="edge22_Node000018_Node000054" class="edge">
<title>Node18&#45;&gt;Node54</title>
<g id="a_edge22_Node000018_Node000054"><a xlink:title=" ">
<path fill="none" stroke="#63b8ff" d="M332.05,-605.09C349.36,-608.11 367.59,-614.52 380,-627.5 436.37,-686.48 358.93,-749.2 416,-807.5 421.6,-813.22 428.58,-817.3 436.08,-820.19"/>
<polygon fill="#63b8ff" stroke="#63b8ff" points="435.21,-823.59 445.8,-823.25 437.31,-816.91 435.21,-823.59"/>
</a>
</g>
</g>
<!-- Node55 -->
<g id="Node000055" class="node">
<title>Node55</title>
<g id="a_Node000055"><a xlink:href="classEpFunc3.html#a17dc91b7c23ff8ed38f968e673375c25" target="_top" xlink:title=" ">
<polygon fill="white" stroke="#666666" points="550,-798 446,-798 446,-779 550,-779 550,-798"/>
<text text-anchor="middle" x="498" y="-786" font-family="Ubuntu Mono" font-size="10.00">EpFunc3::EpFunc3</text>
</a>
</g>
</g>
<!-- Node18&#45;&gt;Node55 -->
<g id="edge23_Node000018_Node000055" class="edge">
<title>Node18&#45;&gt;Node55</title>
<g id="a_edge23_Node000018_Node000055"><a xlink:title=" ">
<path fill="none" stroke="#63b8ff" d="M332.21,-605.5C349.34,-608.6 367.4,-614.95 380,-627.5 426.44,-673.75 369.01,-724.81 416,-770.5 421.66,-776.01 428.62,-779.98 436.05,-782.83"/>
<polygon fill="#63b8ff" stroke="#63b8ff" points="435.07,-786.19 445.66,-785.86 437.18,-779.51 435.07,-786.19"/>
</a>
</g>
</g>
<!-- Node56 -->
<g id="Node000056" class="node">
<title>Node56</title>
<g id="a_Node000056"><a xlink:href="classNeutral.html#a2baaa0ca5d06deb02b5a20dd26eb2c6c" target="_top" xlink:title=" ">
<polygon fill="white" stroke="#666666" points="578,-761 418,-761 418,-742 578,-742 578,-761"/>
<text text-anchor="middle" x="498" y="-749" font-family="Ubuntu Mono" font-size="10.00">Neutral::generalNodeBalance</text>
</a>
</g>
</g>
<!-- Node18&#45;&gt;Node56 -->
<g id="edge24_Node000018_Node000056" class="edge">
<title>Node18&#45;&gt;Node56</title>
<g id="a_edge24_Node000018_Node000056"><a xlink:title=" ">
<path fill="none" stroke="#63b8ff" d="M332.18,-606.16C349.1,-609.35 367.03,-615.59 380,-627.5 416.64,-661.16 378.96,-700.28 416,-733.5 417.17,-734.55 418.39,-735.55 419.66,-736.49"/>
<polygon fill="#63b8ff" stroke="#63b8ff" points="418.17,-739.68 428.52,-741.94 421.84,-733.72 418.17,-739.68"/>
</a>
</g>
</g>
<!-- Node26 -->
<g id="Node000026" class="node">
<title>Node26</title>
<g id="a_Node000026"><a xlink:href="classNeutral.html#adfa2d6bebf99a0edf034775aaa25c5e6" target="_top" xlink:title=" ">
<polygon fill="#fff0f0" stroke="red" points="555.5,-724 440.5,-724 440.5,-705 555.5,-705 555.5,-724"/>
<text text-anchor="middle" x="498" y="-712" font-family="Ubuntu Mono" font-size="10.00">Neutral::getChildren</text>
</a>
</g>
</g>
<!-- Node18&#45;&gt;Node26 -->
<g id="edge25_Node000018_Node000026" class="edge">
<title>Node18&#45;&gt;Node26</title>
<g id="a_edge25_Node000018_Node000026"><a xlink:title=" ">
<path fill="none" stroke="#63b8ff" d="M332.47,-607.53C348.93,-610.89 366.5,-616.89 380,-627.5 407.19,-648.88 388.55,-675.45 416,-696.5 420.43,-699.9 425.37,-702.68 430.58,-704.95"/>
<polygon fill="#63b8ff" stroke="#63b8ff" points="429.57,-708.31 440.16,-708.52 432.01,-701.75 429.57,-708.31"/>
</a>
</g>
</g>
<!-- Node57 -->
<g id="Node000057" class="node">
<title>Node57</title>
<g id="a_Node000057"><a xlink:href="classNeutral.html#a91602cb96e211f185ae85c02ffc081be" target="_top" xlink:title=" ">
<polygon fill="#fff0f0" stroke="red" points="548.5,-687 447.5,-687 447.5,-668 548.5,-668 548.5,-687"/>
<text text-anchor="middle" x="498" y="-675" font-family="Ubuntu Mono" font-size="10.00">Neutral::getClass</text>
</a>
</g>
</g>
<!-- Node18&#45;&gt;Node57 -->
<g id="edge26_Node000018_Node000057" class="edge">
<title>Node18&#45;&gt;Node57</title>
<g id="a_edge26_Node000018_Node000057"><a xlink:title=" ">
<path fill="none" stroke="#63b8ff" d="M332.04,-610.81C347.94,-614.43 365.26,-619.74 380,-627.5 398.94,-637.47 396.94,-649.75 416,-659.5 422.69,-662.92 430.01,-665.69 437.44,-667.94"/>
<polygon fill="#63b8ff" stroke="#63b8ff" points="436.64,-671.35 447.21,-670.61 438.48,-664.6 436.64,-671.35"/>
</a>
</g>
</g>
<!-- Node59 -->
<g id="Node000059" class="node">
<title>Node59</title>
<g id="a_Node000059"><a xlink:href="classNeutral.html#abe6b34eb0f9783ec836d9096cafeff12" target="_top" xlink:title="Information function to return names of all DestFinfos.">
<polygon fill="#fff0f0" stroke="red" points="560.5,-650 435.5,-650 435.5,-631 560.5,-631 560.5,-650"/>
<text text-anchor="middle" x="498" y="-638" font-family="Ubuntu Mono" font-size="10.00">Neutral::getDestFields</text>
</a>
</g>
</g>
<!-- Node18&#45;&gt;Node59 -->
<g id="edge27_Node000018_Node000059" class="edge">
<title>Node18&#45;&gt;Node59</title>
<g id="a_edge27_Node000018_Node000059"><a xlink:title=" ">
<path fill="none" stroke="#63b8ff" d="M332.1,-611.99C361.6,-617.09 399.52,-623.65 431.55,-629.18"/>
<polygon fill="#63b8ff" stroke="#63b8ff" points="431.28,-632.69 441.73,-630.94 432.47,-625.79 431.28,-632.69"/>
</a>
</g>
</g>
<!-- Node62 -->
<g id="Node000062" class="node">
<title>Node62</title>
<g id="a_Node000062"><a xlink:href="classNeutral.html#a3b8747ab78837f78ef8130807b8de0fa" target="_top" xlink:title="Returns dt associated with this object based on its clock tick.">
<polygon fill="#fff0f0" stroke="red" points="541,-613 455,-613 455,-594 541,-594 541,-613"/>
<text text-anchor="middle" x="498" y="-601" font-family="Ubuntu Mono" font-size="10.00">Neutral::getDt</text>
</a>
</g>
</g>
<!-- Node18&#45;&gt;Node62 -->
<g id="edge28_Node000018_Node000062" class="edge">
<title>Node18&#45;&gt;Node62</title>
<g id="a_edge28_Node000018_Node000062"><a xlink:title=" ">
<path fill="none" stroke="#63b8ff" d="M332.1,-603.5C365.76,-603.5 410.36,-603.5 444.69,-603.5"/>
<polygon fill="#63b8ff" stroke="#63b8ff" points="444.99,-607 454.99,-603.5 444.99,-600 444.99,-607"/>
</a>
</g>
</g>
<!-- Node91 -->
<g id="Node000091" class="node">
<title>Node91</title>
<g id="a_Node000091"><a xlink:href="classNeutral.html#af9a9493d31ec12e2e7b002212f13979a" target="_top" xlink:title="fieldIndex specifies field entry if FieldElement. Otherwise zero">
<polygon fill="#fff0f0" stroke="red" points="560.5,-576 435.5,-576 435.5,-557 560.5,-557 560.5,-576"/>
<text text-anchor="middle" x="498" y="-564" font-family="Ubuntu Mono" font-size="10.00">Neutral::getFieldIndex</text>
</a>
</g>
</g>
<!-- Node18&#45;&gt;Node91 -->
<g id="edge29_Node000018_Node000091" class="edge">
<title>Node18&#45;&gt;Node91</title>
<g id="a_edge29_Node000018_Node000091"><a xlink:title=" ">
<path fill="none" stroke="#63b8ff" d="M332.1,-595.01C361.6,-589.91 399.52,-583.35 431.55,-577.82"/>
<polygon fill="#63b8ff" stroke="#63b8ff" points="432.47,-581.21 441.73,-576.06 431.28,-574.31 432.47,-581.21"/>
</a>
</g>
</g>
<!-- Node92 -->
<g id="Node000092" class="node">
<title>Node92</title>
<g id="a_Node000092"><a xlink:href="classNeutral.html#ad99308d75d8fe040563d26e2abc09dbc" target="_top" xlink:title="Id is the Id of the object, converted to unsigned int.">
<polygon fill="#fff0f0" stroke="red" points="539.5,-539 456.5,-539 456.5,-520 539.5,-520 539.5,-539"/>
<text text-anchor="middle" x="498" y="-527" font-family="Ubuntu Mono" font-size="10.00">Neutral::getId</text>
</a>
</g>
</g>
<!-- Node18&#45;&gt;Node92 -->
<g id="edge30_Node000018_Node000092" class="edge">
<title>Node18&#45;&gt;Node92</title>
<g id="a_edge30_Node000018_Node000092"><a xlink:title=" ">
<path fill="none" stroke="#63b8ff" d="M332.47,-595.94C348.22,-592.32 365.36,-587.06 380,-579.5 398.76,-569.81 397.18,-558.07 416,-548.5 425.37,-543.73 435.95,-540.14 446.3,-537.44"/>
<polygon fill="#63b8ff" stroke="#63b8ff" points="447.19,-540.83 456.11,-535.12 445.57,-534.02 447.19,-540.83"/>
</a>
</g>
</g>
<!-- Node94 -->
<g id="Node000094" class="node">
<title>Node94</title>
<g id="a_Node000094"><a xlink:href="classNeutral.html#ace36d1d6562095fc8f4c1015cfe7b78e" target="_top" xlink:title=" ">
<polygon fill="#fff0f0" stroke="red" points="570.5,-502 425.5,-502 425.5,-483 570.5,-483 570.5,-502"/>
<text text-anchor="middle" x="498" y="-490" font-family="Ubuntu Mono" font-size="10.00">Neutral::getIncomingMsgs</text>
</a>
</g>
</g>
<!-- Node18&#45;&gt;Node94 -->
<g id="edge31_Node000018_Node000094" class="edge">
<title>Node18&#45;&gt;Node94</title>
<g id="a_edge31_Node000018_Node000094"><a xlink:title=" ">
<path fill="none" stroke="#63b8ff" d="M332.43,-599.42C348.89,-596.06 366.47,-590.07 380,-579.5 406.95,-558.45 388.93,-532.39 416,-511.5 418.36,-509.68 420.86,-508.03 423.47,-506.53"/>
<polygon fill="#63b8ff" stroke="#63b8ff" points="425.26,-509.56 432.71,-502.02 422.19,-503.27 425.26,-509.56"/>
</a>
</g>
</g>
<!-- Node97 -->
<g id="Node000097" class="node">
<title>Node97</title>
<g id="a_Node000097"><a xlink:href="classNeutral.html#a58a3e0eb03adeacdb408d83566c21f28" target="_top" xlink:title="Index is the dataIndex of the object.">
<polygon fill="#fff0f0" stroke="red" points="548.5,-465 447.5,-465 447.5,-446 548.5,-446 548.5,-465"/>
<text text-anchor="middle" x="498" y="-453" font-family="Ubuntu Mono" font-size="10.00">Neutral::getIndex</text>
</a>
</g>
</g>
<!-- Node18&#45;&gt;Node97 -->
<g id="edge32_Node000018_Node000097" class="edge">
<title>Node18&#45;&gt;Node97</title>
<g id="a_edge32_Node000018_Node000097"><a xlink:title=" ">
<path fill="none" stroke="#63b8ff" d="M332.16,-600.82C349.08,-597.63 367.01,-591.39 380,-579.5 416.38,-546.18 379.42,-507.6 416,-474.5 422.17,-468.92 429.66,-464.89 437.57,-461.99"/>
<polygon fill="#63b8ff" stroke="#63b8ff" points="438.82,-465.27 447.36,-458.99 436.77,-458.57 438.82,-465.27"/>
</a>
</g>
</g>
<!-- Node98 -->
<g id="Node000098" class="node">
<title>Node98</title>
<g id="a_Node000098"><a xlink:href="classNeutral.html#afd9ceac0b4ee764763bd900c9b430bc2" target="_top" xlink:title=" ">
<polygon fill="#fff0f0" stroke="red" points="580,-428 416,-428 416,-409 580,-409 580,-428"/>
<text text-anchor="middle" x="498" y="-416" font-family="Ubuntu Mono" font-size="10.00">Neutral::getMsgDestFunctions</text>
</a>
</g>
</g>
<!-- Node18&#45;&gt;Node98 -->
<g id="edge33_Node000018_Node000098" class="edge">
<title>Node18&#45;&gt;Node98</title>
<g id="a_edge33_Node000018_Node000098"><a xlink:title=" ">
<path fill="none" stroke="#63b8ff" d="M332.2,-601.48C349.33,-598.38 367.39,-592.04 380,-579.5 426.17,-533.59 369.55,-483.12 416,-437.5 417.47,-436.06 419.02,-434.72 420.65,-433.47"/>
<polygon fill="#63b8ff" stroke="#63b8ff" points="422.74,-436.29 429.34,-428 419.02,-430.37 422.74,-436.29"/>
</a>
</g>
</g>
<!-- Node102 -->
<g id="Node000102" class="node">
<title>Node102</title>
<g id="a_Node000102"><a xlink:href="classNeutral.html#a3ae4401b14809a2995f2bb2304250b52" target="_top" xlink:title=" ">
<polygon fill="#fff0f0" stroke="red" points="559,-391 437,-391 437,-372 559,-372 559,-391"/>
<text text-anchor="middle" x="498" y="-379" font-family="Ubuntu Mono" font-size="10.00">Neutral::getMsgDests</text>
</a>
</g>
</g>
<!-- Node18&#45;&gt;Node102 -->
<g id="edge34_Node000018_Node000102" class="edge">
<title>Node18&#45;&gt;Node102</title>
<g id="a_edge34_Node000018_Node000102"><a xlink:title=" ">
<path fill="none" stroke="#63b8ff" d="M332.04,-601.91C349.36,-598.88 367.59,-592.47 380,-579.5 436.1,-520.87 359.54,-458.79 416,-400.5 419.4,-396.99 423.32,-394.07 427.56,-391.66"/>
<polygon fill="#63b8ff" stroke="#63b8ff" points="429.09,-394.8 436.64,-387.37 426.1,-388.47 429.09,-394.8"/>
</a>
</g>
</g>
<!-- Node103 -->
<g id="Node000103" class="node">
<title>Node103</title>
<g id="a_Node000103"><a xlink:href="classNeutral.html#ae10b61740b9b9cf7b25cd1ca2d7cd7c2" target="_top" xlink:title=" ">
<polygon fill="#fff0f0" stroke="red" points="550,-354 446,-354 446,-335 550,-335 550,-354"/>
<text text-anchor="middle" x="498" y="-342" font-family="Ubuntu Mono" font-size="10.00">Neutral::getName</text>
</a>
</g>
</g>
<!-- Node18&#45;&gt;Node103 -->
<g id="edge35_Node000018_Node000103" class="edge">
<title>Node18&#45;&gt;Node103</title>
<g id="a_edge35_Node000018_Node000103"><a xlink:title=" ">
<path fill="none" stroke="#63b8ff" d="M332.02,-602.17C349.44,-599.19 367.75,-592.74 380,-579.5 446.1,-508.07 349.46,-434.53 416,-363.5 421.62,-357.5 428.74,-353.24 436.41,-350.22"/>
<polygon fill="#63b8ff" stroke="#63b8ff" points="437.54,-353.53 445.99,-347.14 435.4,-346.87 437.54,-353.53"/>
</a>
</g>
</g>
<!-- Node104 -->
<g id="Node000104" class="node">
<title>Node104</title>
<g id="a_Node000104"><a xlink:href="classNeutral.html#a56224f109c11e5f632569a728c565a8e" target="_top" xlink:title=" ">
<polygon fill="#fff0f0" stroke="red" points="560,-317 436,-317 436,-298 560,-298 560,-317"/>
<text text-anchor="middle" x="498" y="-305" font-family="Ubuntu Mono" font-size="10.00">Neutral::getNeighbors</text>
</a>
</g>
</g>
<!-- Node18&#45;&gt;Node104 -->
<g id="edge36_Node000018_Node000104" class="edge">
<title>Node18&#45;&gt;Node104</title>
<g id="a_edge36_Node000018_Node000104"><a xlink:title=" ">
<path fill="none" stroke="#63b8ff" d="M332.19,-602.32C349.63,-599.36 367.9,-592.89 380,-579.5 456.15,-495.23 339.34,-410.31 416,-326.5 419.16,-323.05 422.81,-320.17 426.78,-317.77"/>
<polygon fill="#63b8ff" stroke="#63b8ff" points="428.52,-320.81 435.93,-313.24 425.41,-314.54 428.52,-320.81"/>
</a>
</g>
</g>
<!-- Node18&#45;&gt;Node158 -->
<g id="edge37_Node000018_Node000158" class="edge">
<title>Node18&#45;&gt;Node158</title>
<g id="a_edge37_Node000018_Node000158"><a xlink:title=" ">
<path fill="none" stroke="#63b8ff" d="M332.24,-602.63C349.8,-599.72 368.14,-593.21 380,-579.5 486.39,-456.58 308.87,-337.77 416,-215.5 418.94,-212.14 422.36,-209.31 426.09,-206.94"/>
<polygon fill="#63b8ff" stroke="#63b8ff" points="428.01,-209.89 435.29,-202.2 424.8,-203.67 428.01,-209.89"/>
</a>
</g>
</g>
<!-- Node163&#45;&gt;Node159 -->
<g id="edge43_Node000163_Node000159" class="edge">
<title>Node163&#45;&gt;Node159</title>
<g id="a_edge43_Node000163_Node000159"><a xlink:title=" ">
<path fill="none" stroke="#63b8ff" d="M354.15,-375.55C363.79,-372.39 372.81,-367.6 380,-360.5 438.65,-302.54 358.73,-237.82 416,-178.5 424.47,-169.73 436.15,-164.68 448.01,-161.85"/>
<polygon fill="#63b8ff" stroke="#63b8ff" points="448.78,-165.26 457.95,-159.96 447.47,-158.39 448.78,-165.26"/>
</a>
</g>
</g>
<!-- Node201&#45;&gt;Node159 -->
<g id="edge47_Node000201_Node000159" class="edge">
<title>Node201&#45;&gt;Node159</title>
<g id="a_edge47_Node000201_Node000159"><a xlink:title=" ">
<path fill="none" stroke="#63b8ff" d="M348.09,-251.2C359.4,-248.35 370.55,-244.01 380,-237.5 405.3,-220.07 391.12,-196.51 416,-178.5 425.32,-171.75 436.68,-167.36 447.92,-164.52"/>
<polygon fill="#63b8ff" stroke="#63b8ff" points="448.67,-167.94 457.7,-162.4 447.18,-161.1 448.67,-167.94"/>
</a>
</g>
</g>
<!-- Node218&#45;&gt;Node9 -->
<g id="edge54_Node000218_Node000009" class="edge">
<title>Node218&#45;&gt;Node9</title>
<g id="a_edge54_Node000218_Node000009"><a xlink:title=" ">
<path fill="none" stroke="#63b8ff" d="M349.16,-19.05C418.78,-32.87 525.65,-65.57 580,-140.5 626.84,-205.08 653.06,-459.88 659.77,-533.49"/>
<polygon fill="#63b8ff" stroke="#63b8ff" points="656.3,-534.04 660.68,-543.69 663.27,-533.42 656.3,-534.04"/>
</a>
</g>
</g>
</g>
</svg>
