<?xml version="1.0" encoding="UTF-8" standalone="no"?>
<!DOCTYPE svg PUBLIC "-//W3C//DTD SVG 1.1//EN"
 "http://www.w3.org/Graphics/SVG/1.1/DTD/svg11.dtd">
<!-- Generated by graphviz version 2.43.0 (0)
 -->
<!-- Title: Stoich::convertIdToFuncIndex Pages: 1 -->
<!--zoomable 83 -->

<svg id="main" version="1.1" xmlns="http://www.w3.org/2000/svg" xmlns:xlink="http://www.w3.org/1999/xlink" xml:space="preserve" onload="init(evt)">
<style type="text/css"><![CDATA[
.node, .edge {opacity: 0.7;}
.node.selected, .edge.selected {opacity: 1;}
.edge:hover path { stroke: red; }
.edge:hover polygon { stroke: red; fill: red; }
]]></style>

<defs>
  <circle id="rim" cx="0" cy="0" r="7"/>
  <circle id="rim2" cx="0" cy="0" r="3.5"/>
  <g id="zoomPlus">
    <use xlink:href="#rim" fill="#404040"><set attributeName="fill" to="#808080" begin="zoomplus.mouseover" end="zoomplus.mouseout"/></use>
    <path d="M-4,0h8M0,-4v8" fill="none" stroke="white" stroke-width="1.5" pointer-events="none"/>
  </g>
  <g id="zoomMin">
    <use xlink:href="#rim" fill="#404040"><set attributeName="fill" to="#808080" begin="zoomminus.mouseover" end="zoomminus.mouseout"/></use>
    <path d="M-4,0h8" fill="none" stroke="white" stroke-width="1.5" pointer-events="none"/>
  </g>
  <g id="arrowUp" transform="translate(30 24)">
    <use xlink:href="#rim"/>
    <path pointer-events="none" fill="none" stroke="white" stroke-width="1.5" d="M0,-3.0v7 M-2.5,-0.5L0,-3.0L2.5,-0.5"/>
  </g>
  <g id="arrowRight" transform="rotate(90) translate(36 -43)">
    <use xlink:href="#rim"/>
    <path pointer-events="none" fill="none" stroke="white" stroke-width="1.5" d="M0,-3.0v7 M-2.5,-0.5L0,-3.0L2.5,-0.5"/>
  </g>
  <g id="arrowDown" transform="rotate(180) translate(-30 -48)">
    <use xlink:href="#rim"/>
    <path pointer-events="none" fill="none" stroke="white" stroke-width="1.5" d="M0,-3.0v7 M-2.5,-0.5L0,-3.0L2.5,-0.5"/>
  </g>
  <g id="arrowLeft" transform="rotate(270) translate(-36 17)">
    <use xlink:href="#rim"/>
    <path pointer-events="none" fill="none" stroke="white" stroke-width="1.5" d="M0,-3.0v7 M-2.5,-0.5L0,-3.0L2.5,-0.5"/>
  </g>
  <g id="resetDef">
    <use xlink:href="#rim2" fill="#404040"><set attributeName="fill" to="#808080" begin="reset.mouseover" end="reset.mouseout"/></use>
  </g>
</defs>
<script type="application/ecmascript">
var viewWidth = 1160;
var viewHeight = 83;
var sectionId = 'dynsection-11';
</script>
<script type="application/ecmascript" xlink:href="svg.min.js"/>
<svg id="graph" class="graph">
<g id="viewport">
<title>Stoich::convertIdToFuncIndex</title>
<!-- Node1 -->
<g id="Node000001" class="node">
<title>Node1</title>
<g id="a_Node000001"><a xlink:title=" ">
<polygon fill="#999999" stroke="#666666" points="1152,-37 994,-37 994,-18 1152,-18 1152,-37"/>
<text text-anchor="middle" x="1073" y="-25" font-family="Ubuntu Mono" font-size="10.00">Stoich::convertIdToFuncIndex</text>
</a>
</g>
</g>
<!-- Node2 -->
<g id="Node000002" class="node">
<title>Node2</title>
<g id="a_Node000002"><a xlink:href="classStoich.html#a2193691f5b33c944bfe09b7792b7ceef" target="_top" xlink:title=" ">
<polygon fill="white" stroke="#666666" points="958,-56 792,-56 792,-37 958,-37 958,-56"/>
<text text-anchor="middle" x="875" y="-44" font-family="Ubuntu Mono" font-size="10.00">Stoich::installAndUnschedFunc</text>
</a>
</g>
</g>
<!-- Node1&#45;&gt;Node2 -->
<g id="edge1_Node000001_Node000002" class="edge">
<title>Node1&#45;&gt;Node2</title>
<g id="a_edge1_Node000001_Node000002"><a xlink:title=" ">
<path fill="none" stroke="#63b8ff" d="M983.99,-36.03C975.42,-36.86 966.76,-37.7 958.26,-38.53"/>
<polygon fill="#63b8ff" stroke="#63b8ff" points="984.36,-39.51 993.97,-35.06 983.68,-32.55 984.36,-39.51"/>
</a>
</g>
</g>
<!-- Node9 -->
<g id="Node000009" class="node">
<title>Node9</title>
<g id="a_Node000009"><a xlink:href="classStoich.html#a7b7ea7c9351b13fe48a5557bb037bf01" target="_top" xlink:title=" ">
<polygon fill="white" stroke="#666666" points="940.5,-19 809.5,-19 809.5,0 940.5,0 940.5,-19"/>
<text text-anchor="middle" x="875" y="-7" font-family="Ubuntu Mono" font-size="10.00">Stoich::setFunctionExpr</text>
</a>
</g>
</g>
<!-- Node1&#45;&gt;Node9 -->
<g id="edge8_Node000001_Node000009" class="edge">
<title>Node1&#45;&gt;Node9</title>
<g id="a_edge8_Node000001_Node000009"><a xlink:title=" ">
<path fill="none" stroke="#63b8ff" d="M983.92,-19.41C969.32,-18.07 954.42,-16.7 940.53,-15.43"/>
<polygon fill="#63b8ff" stroke="#63b8ff" points="983.69,-22.9 993.97,-20.33 984.33,-15.93 983.69,-22.9"/>
</a>
</g>
</g>
<!-- Node3 -->
<g id="Node000003" class="node">
<title>Node3</title>
<g id="a_Node000003"><a xlink:href="classStoich.html#a76eb61b91eb52a6d439099fb91fed977" target="_top" xlink:title=" ">
<polygon fill="white" stroke="#666666" points="756,-61.5 598,-61.5 598,-31.5 756,-31.5 756,-61.5"/>
<text text-anchor="start" x="606" y="-49.5" font-family="Ubuntu Mono" font-size="10.00">Stoich::zombifyPoolFuncWith</text>
<text text-anchor="middle" x="677" y="-38.5" font-family="Ubuntu Mono" font-size="10.00">Scaling</text>
</a>
</g>
</g>
<!-- Node2&#45;&gt;Node3 -->
<g id="edge2_Node000002_Node000003" class="edge">
<title>Node2&#45;&gt;Node3</title>
<g id="a_edge2_Node000002_Node000003"><a xlink:title=" ">
<path fill="none" stroke="#63b8ff" d="M781.49,-46.5C773.07,-46.5 764.59,-46.5 756.3,-46.5"/>
<polygon fill="#63b8ff" stroke="#63b8ff" points="781.73,-50 791.73,-46.5 781.73,-43 781.73,-50"/>
</a>
</g>
</g>
<!-- Node4 -->
<g id="Node000004" class="node">
<title>Node4</title>
<g id="a_Node000004"><a xlink:href="classStoich.html#ab56684804de4012037cb0c1bc180991d" target="_top" xlink:title=" ">
<polygon fill="white" stroke="#666666" points="562,-56 440,-56 440,-37 562,-37 562,-56"/>
<text text-anchor="middle" x="501" y="-44" font-family="Ubuntu Mono" font-size="10.00">Stoich::zombifyModel</text>
</a>
</g>
</g>
<!-- Node3&#45;&gt;Node4 -->
<g id="edge3_Node000003_Node000004" class="edge">
<title>Node3&#45;&gt;Node4</title>
<g id="a_edge3_Node000003_Node000004"><a xlink:title=" ">
<path fill="none" stroke="#63b8ff" d="M587.73,-46.5C579.06,-46.5 570.4,-46.5 562.1,-46.5"/>
<polygon fill="#63b8ff" stroke="#63b8ff" points="587.91,-50 597.91,-46.5 587.91,-43 587.91,-50"/>
</a>
</g>
</g>
<!-- Node5 -->
<g id="Node000005" class="node">
<title>Node5</title>
<g id="a_Node000005"><a xlink:href="classStoich.html#a44698a8a652534dc594bd87f450d93c0" target="_top" xlink:title=" ">
<polygon fill="white" stroke="#666666" points="404,-56 315,-56 315,-37 404,-37 404,-56"/>
<text text-anchor="middle" x="359.5" y="-44" font-family="Ubuntu Mono" font-size="10.00">Stoich::setElist</text>
</a>
</g>
</g>
<!-- Node4&#45;&gt;Node5 -->
<g id="edge4_Node000004_Node000005" class="edge">
<title>Node4&#45;&gt;Node5</title>
<g id="a_edge4_Node000004_Node000005"><a xlink:title=" ">
<path fill="none" stroke="#63b8ff" d="M429.5,-46.5C420.86,-46.5 412.23,-46.5 404.15,-46.5"/>
<polygon fill="#63b8ff" stroke="#63b8ff" points="429.62,-50 439.62,-46.5 429.62,-43 429.62,-50"/>
</a>
</g>
</g>
<!-- Node6 -->
<g id="Node000006" class="node">
<title>Node6</title>
<g id="a_Node000006"><a xlink:href="classStoich.html#a0a32cb242e6fd1f6af653a48189feda5" target="_top" xlink:title=" ">
<polygon fill="white" stroke="#666666" points="279,-56 130,-56 130,-37 279,-37 279,-56"/>
<text text-anchor="middle" x="204.5" y="-44" font-family="Ubuntu Mono" font-size="10.00">Stoich::setReacSystemPath</text>
</a>
</g>
</g>
<!-- Node5&#45;&gt;Node6 -->
<g id="edge5_Node000005_Node000006" class="edge">
<title>Node5&#45;&gt;Node6</title>
<g id="a_edge5_Node000005_Node000006"><a xlink:title=" ">
<path fill="none" stroke="#63b8ff" d="M304.48,-46.5C296.26,-46.5 287.66,-46.5 279.11,-46.5"/>
<polygon fill="#63b8ff" stroke="#63b8ff" points="304.66,-50 314.66,-46.5 304.66,-43 304.66,-50"/>
</a>
</g>
</g>
<!-- Node7 -->
<g id="Node000007" class="node">
<title>Node7</title>
<g id="a_Node000007"><a xlink:href="classStoich.html#ad8c6117d11f46222476ef4a464ecdc09" target="_top" xlink:title=" ">
<polygon fill="white" stroke="#666666" points="94,-75 0,-75 0,-56 94,-56 94,-75"/>
<text text-anchor="middle" x="47" y="-63" font-family="Ubuntu Mono" font-size="10.00">Stoich::initCinfo</text>
</a>
</g>
</g>
<!-- Node6&#45;&gt;Node7 -->
<g id="edge6_Node000006_Node000007" class="edge">
<title>Node6&#45;&gt;Node7</title>
<g id="a_edge6_Node000006_Node000007"><a xlink:title=" ">
<path fill="none" stroke="#63b8ff" d="M119.64,-56.75C110.97,-57.81 102.39,-58.85 94.36,-59.84"/>
<polygon fill="#63b8ff" stroke="#63b8ff" points="120.35,-60.19 129.85,-55.5 119.5,-53.24 120.35,-60.19"/>
</a>
</g>
</g>
<!-- Node8 -->
<g id="Node000008" class="node">
<title>Node8</title>
<g id="a_Node000008"><a xlink:href="classStoich.html#aec019d0f2ceb1d021062c1a3e712803a" target="_top" xlink:title=" ">
<polygon fill="white" stroke="#666666" points="91.5,-38 2.5,-38 2.5,-19 91.5,-19 91.5,-38"/>
<text text-anchor="middle" x="47" y="-26" font-family="Ubuntu Mono" font-size="10.00">Stoich::setPath</text>
</a>
</g>
</g>
<!-- Node6&#45;&gt;Node8 -->
<g id="edge7_Node000006_Node000008" class="edge">
<title>Node6&#45;&gt;Node8</title>
<g id="a_edge7_Node000006_Node000008"><a xlink:title=" ">
<path fill="none" stroke="#63b8ff" d="M119.76,-36.81C110.11,-35.69 100.57,-34.59 91.76,-33.57"/>
<polygon fill="#63b8ff" stroke="#63b8ff" points="119.51,-40.3 129.85,-37.97 120.32,-33.35 119.51,-40.3"/>
</a>
</g>
</g>
</g>
</svg>

<g id="navigator" transform="translate(0 0)" fill="#404254">
  <rect fill="#f2f5e9" fill-opacity="0.5" stroke="#606060" stroke-width=".5" x="0" y="0" width="60" height="60"/>
  <use id="zoomplus" xlink:href="#zoomPlus" x="17" y="9" onmousedown="handleZoom(evt,'in')"/>
  <use id="zoomminus" xlink:href="#zoomMin" x="42" y="9" onmousedown="handleZoom(evt,'out')"/>
  <use id="reset" xlink:href="#resetDef" x="30" y="36" onmousedown="handleReset()"/>
   <use id="arrowup" xlink:href="#arrowUp" x="0" y="0" onmousedown="handlePan(0,-1)"/>
  <use id="arrowright" xlink:href="#arrowRight" x="0" y="0" onmousedown="handlePan(1,0)"/>
  <use id="arrowdown" xlink:href="#arrowDown" x="0" y="0" onmousedown="handlePan(0,1)"/>
  <use id="arrowleft" xlink:href="#arrowLeft" x="0" y="0" onmousedown="handlePan(-1,0)"/>
</g>
<svg viewBox="0 0 15 15" width="100%" height="30px" preserveAspectRatio="xMaxYMin meet">
 <g id="arrow_out" transform="scale(0.3 0.3)">
  <a xlink:href="classStoich_a881b0d5817dcc709ce9d0f2169bc7150_icgraph_org.svg" target="_base">
   <rect id="button" ry="5" rx="5" y="6" x="6" height="38" width="38"
        fill="#f2f5e9" fill-opacity="0.5" stroke="#606060" stroke-width="1.0"/>
   <path id="arrow"
     d="M 11.500037,31.436501 C 11.940474,20.09759 22.043105,11.32322 32.158766,21.979434 L 37.068811,17.246167 C 37.068811,17.246167 37.088388,32 37.088388,32 L 22.160133,31.978069 C 22.160133,31.978069 26.997745,27.140456 26.997745,27.140456 C 18.528582,18.264221 13.291696,25.230495 11.500037,31.436501 z"
     style="fill:#404040;"/>
  </a>
 </g>
</svg>

<style type='text/css'>
<![CDATA[
[data-mouse-over-selected='false'] { opacity: 0.7; }
[data-mouse-over-selected='true']  { opacity: 1.0; }
]]>
</style>
<script type="application/ecmascript"><![CDATA[
document.addEventListener('DOMContentLoaded', (event) => {
  highlightEdges();
  highlightAdjacentNodes();
});
]]></script>
</svg>
