<?xml version="1.0" encoding="UTF-8" standalone="no"?>
<!DOCTYPE svg PUBLIC "-//W3C//DTD SVG 1.1//EN"
 "http://www.w3.org/Graphics/SVG/1.1/DTD/svg11.dtd">
<!-- Generated by graphviz version 2.43.0 (0)
 -->
<!-- Title: FuncTerm::setTarget Pages: 1 -->
<!--zoomable 193 -->

<svg id="main" version="1.1" xmlns="http://www.w3.org/2000/svg" xmlns:xlink="http://www.w3.org/1999/xlink" xml:space="preserve" onload="init(evt)">
<style type="text/css"><![CDATA[
.node, .edge {opacity: 0.7;}
.node.selected, .edge.selected {opacity: 1;}
.edge:hover path { stroke: red; }
.edge:hover polygon { stroke: red; fill: red; }
]]></style>

<defs>
  <circle id="rim" cx="0" cy="0" r="7"/>
  <circle id="rim2" cx="0" cy="0" r="3.5"/>
  <g id="zoomPlus">
    <use xlink:href="#rim" fill="#404040"><set attributeName="fill" to="#808080" begin="zoomplus.mouseover" end="zoomplus.mouseout"/></use>
    <path d="M-4,0h8M0,-4v8" fill="none" stroke="white" stroke-width="1.5" pointer-events="none"/>
  </g>
  <g id="zoomMin">
    <use xlink:href="#rim" fill="#404040"><set attributeName="fill" to="#808080" begin="zoomminus.mouseover" end="zoomminus.mouseout"/></use>
    <path d="M-4,0h8" fill="none" stroke="white" stroke-width="1.5" pointer-events="none"/>
  </g>
  <g id="arrowUp" transform="translate(30 24)">
    <use xlink:href="#rim"/>
    <path pointer-events="none" fill="none" stroke="white" stroke-width="1.5" d="M0,-3.0v7 M-2.5,-0.5L0,-3.0L2.5,-0.5"/>
  </g>
  <g id="arrowRight" transform="rotate(90) translate(36 -43)">
    <use xlink:href="#rim"/>
    <path pointer-events="none" fill="none" stroke="white" stroke-width="1.5" d="M0,-3.0v7 M-2.5,-0.5L0,-3.0L2.5,-0.5"/>
  </g>
  <g id="arrowDown" transform="rotate(180) translate(-30 -48)">
    <use xlink:href="#rim"/>
    <path pointer-events="none" fill="none" stroke="white" stroke-width="1.5" d="M0,-3.0v7 M-2.5,-0.5L0,-3.0L2.5,-0.5"/>
  </g>
  <g id="arrowLeft" transform="rotate(270) translate(-36 17)">
    <use xlink:href="#rim"/>
    <path pointer-events="none" fill="none" stroke="white" stroke-width="1.5" d="M0,-3.0v7 M-2.5,-0.5L0,-3.0L2.5,-0.5"/>
  </g>
  <g id="resetDef">
    <use xlink:href="#rim2" fill="#404040"><set attributeName="fill" to="#808080" begin="reset.mouseover" end="reset.mouseout"/></use>
  </g>
</defs>
<script type="application/ecmascript">
var viewWidth = 1323;
var viewHeight = 193;
var sectionId = 'dynsection-14';
</script>
<script type="application/ecmascript" xlink:href="svg.min.js"/>
<svg id="graph" class="graph">
<g id="viewport">
<title>FuncTerm::setTarget</title>
<!-- Node1 -->
<g id="Node000001" class="node">
<title>Node1</title>
<g id="a_Node000001"><a xlink:title=" ">
<polygon fill="#999999" stroke="#666666" points="1315,-56 1201,-56 1201,-37 1315,-37 1315,-56"/>
<text text-anchor="middle" x="1258" y="-44" font-family="Ubuntu Mono" font-size="10.00">FuncTerm::setTarget</text>
</a>
</g>
</g>
<!-- Node2 -->
<g id="Node000002" class="node">
<title>Node2</title>
<g id="a_Node000002"><a xlink:href="classFuncRate.html#af72315bca742d4225e0674e64b871ac4" target="_top" xlink:title=" ">
<polygon fill="white" stroke="#666666" points="1138.5,-117 1025.5,-117 1025.5,-98 1138.5,-98 1138.5,-117"/>
<text text-anchor="middle" x="1082" y="-105" font-family="Ubuntu Mono" font-size="10.00">FuncRate::FuncRate</text>
</a>
</g>
</g>
<!-- Node1&#45;&gt;Node2 -->
<g id="edge1_Node000001_Node000002" class="edge">
<title>Node1&#45;&gt;Node2</title>
<g id="a_edge1_Node000001_Node000002"><a xlink:title=" ">
<path fill="none" stroke="#63b8ff" d="M1220.11,-59.43C1187.23,-70.96 1139.86,-87.57 1110.28,-97.94"/>
<polygon fill="#63b8ff" stroke="#63b8ff" points="1221.53,-62.64 1229.81,-56.03 1219.22,-56.04 1221.53,-62.64"/>
</a>
</g>
</g>
<!-- Node13 -->
<g id="Node000013" class="node">
<title>Node13</title>
<g id="a_Node000013"><a xlink:href="classStoich.html#a2193691f5b33c944bfe09b7792b7ceef" target="_top" xlink:title=" ">
<polygon fill="white" stroke="#666666" points="1165,-56 999,-56 999,-37 1165,-37 1165,-56"/>
<text text-anchor="middle" x="1082" y="-44" font-family="Ubuntu Mono" font-size="10.00">Stoich::installAndUnschedFunc</text>
</a>
</g>
</g>
<!-- Node1&#45;&gt;Node13 -->
<g id="edge13_Node000001_Node000013" class="edge">
<title>Node1&#45;&gt;Node13</title>
<g id="a_edge13_Node000001_Node000013"><a xlink:title=" ">
<path fill="none" stroke="#63b8ff" d="M1190.9,-46.5C1182.49,-46.5 1173.81,-46.5 1165.2,-46.5"/>
<polygon fill="#63b8ff" stroke="#63b8ff" points="1190.99,-50 1200.99,-46.5 1190.99,-43 1190.99,-50"/>
</a>
</g>
</g>
<!-- Node15 -->
<g id="Node000015" class="node">
<title>Node15</title>
<g id="a_Node000015"><a xlink:href="classFuncRate.html#a8168995cc92e7e0591009ccfe1dcac44" target="_top" xlink:title=" ">
<polygon fill="white" stroke="#666666" points="1147.5,-19 1016.5,-19 1016.5,0 1147.5,0 1147.5,-19"/>
<text text-anchor="middle" x="1082" y="-7" font-family="Ubuntu Mono" font-size="10.00">FuncRate::setReactants</text>
</a>
</g>
</g>
<!-- Node1&#45;&gt;Node15 -->
<g id="edge16_Node000001_Node000015" class="edge">
<title>Node1&#45;&gt;Node15</title>
<g id="a_edge16_Node000001_Node000015"><a xlink:title=" ">
<path fill="none" stroke="#63b8ff" d="M1202.2,-34.85C1178.3,-29.77 1150.63,-23.88 1127.96,-19.06"/>
<polygon fill="#63b8ff" stroke="#63b8ff" points="1201.68,-38.32 1212.19,-36.97 1203.14,-31.47 1201.68,-38.32"/>
</a>
</g>
</g>
<!-- Node3 -->
<g id="Node000003" class="node">
<title>Node3</title>
<g id="a_Node000003"><a xlink:href="classFuncRate.html#a1a1d41e75591df8cbb3b5192a346400b" target="_top" xlink:title=" ">
<polygon fill="white" stroke="#666666" points="963,-176 799,-176 799,-157 963,-157 963,-176"/>
<text text-anchor="middle" x="881" y="-164" font-family="Ubuntu Mono" font-size="10.00">FuncRate::copyWithVolScaling</text>
</a>
</g>
</g>
<!-- Node2&#45;&gt;Node3 -->
<g id="edge2_Node000002_Node000003" class="edge">
<title>Node2&#45;&gt;Node3</title>
<g id="a_edge2_Node000002_Node000003"><a xlink:title=" ">
<path fill="none" stroke="#63b8ff" d="M1046.48,-120.68C1023.14,-129.3 991.48,-140.42 963,-148.5 952.19,-151.57 940.45,-154.44 929.35,-156.94"/>
<polygon fill="#63b8ff" stroke="#63b8ff" points="1047.8,-123.92 1055.95,-117.15 1045.36,-117.36 1047.8,-123.92"/>
</a>
</g>
</g>
<!-- Node4 -->
<g id="Node000004" class="node">
<title>Node4</title>
<g id="a_Node000004"><a xlink:href="classFuncReac.html#ad5a28a20a1d5fd5d78a8b7b3b1586750" target="_top" xlink:title=" ">
<polygon fill="white" stroke="#666666" points="939,-139 823,-139 823,-120 939,-120 939,-139"/>
<text text-anchor="middle" x="881" y="-127" font-family="Ubuntu Mono" font-size="10.00">FuncReac::FuncReac</text>
</a>
</g>
</g>
<!-- Node2&#45;&gt;Node4 -->
<g id="edge3_Node000002_Node000004" class="edge">
<title>Node2&#45;&gt;Node4</title>
<g id="a_edge3_Node000002_Node000004"><a xlink:title=" ">
<path fill="none" stroke="#63b8ff" d="M1015.31,-114.76C990.66,-117.49 962.87,-120.56 939.07,-123.19"/>
<polygon fill="#63b8ff" stroke="#63b8ff" points="1015.75,-118.24 1025.3,-113.66 1014.98,-111.28 1015.75,-118.24"/>
</a>
</g>
</g>
<!-- Node12 -->
<g id="Node000012" class="node">
<title>Node12</title>
<g id="a_Node000012"><a xlink:href="classStoich.html#a6952c6a4bf12b226fb6ebffb71b44de5" target="_top" xlink:title=" ">
<polygon fill="white" stroke="#666666" points="752,-99.5 609,-99.5 609,-69.5 752,-69.5 752,-99.5"/>
<text text-anchor="start" x="617" y="-87.5" font-family="Ubuntu Mono" font-size="10.00">Stoich::installAndUnsched</text>
<text text-anchor="middle" x="680.5" y="-76.5" font-family="Ubuntu Mono" font-size="10.00">FuncRate</text>
</a>
</g>
</g>
<!-- Node2&#45;&gt;Node12 -->
<g id="edge11_Node000002_Node000012" class="edge">
<title>Node2&#45;&gt;Node12</title>
<g id="a_edge11_Node000002_Node000012"><a xlink:title=" ">
<path fill="none" stroke="#63b8ff" d="M1015.07,-103.7C942.53,-99.53 826.38,-92.84 752.05,-88.56"/>
<polygon fill="#63b8ff" stroke="#63b8ff" points="1015.27,-107.22 1025.45,-104.3 1015.67,-100.23 1015.27,-107.22"/>
</a>
</g>
</g>
<!-- Node5 -->
<g id="Node000005" class="node">
<title>Node5</title>
<g id="a_Node000005"><a xlink:href="classFuncReac.html#a260022d0af68d05324d2546ebcdb3d7c" target="_top" xlink:title=" ">
<polygon fill="white" stroke="#666666" points="763,-185 598,-185 598,-166 763,-166 763,-185"/>
<text text-anchor="middle" x="680.5" y="-173" font-family="Ubuntu Mono" font-size="10.00">FuncReac::copyWithVolScaling</text>
</a>
</g>
</g>
<!-- Node4&#45;&gt;Node5 -->
<g id="edge4_Node000004_Node000005" class="edge">
<title>Node4&#45;&gt;Node5</title>
<g id="a_edge4_Node000004_Node000005"><a xlink:title=" ">
<path fill="none" stroke="#63b8ff" d="M828.94,-141.33C795.89,-148.99 753.44,-158.83 722.58,-165.98"/>
<polygon fill="#63b8ff" stroke="#63b8ff" points="829.92,-144.7 838.87,-139.03 828.34,-137.88 829.92,-144.7"/>
</a>
</g>
</g>
<!-- Node6 -->
<g id="Node000006" class="node">
<title>Node6</title>
<g id="a_Node000006"><a xlink:href="classStoich.html#a6d85bca9ec449a768b8b5d22f51e8145" target="_top" xlink:title=" ">
<polygon fill="white" stroke="#666666" points="752,-147.5 609,-147.5 609,-117.5 752,-117.5 752,-147.5"/>
<text text-anchor="start" x="617" y="-135.5" font-family="Ubuntu Mono" font-size="10.00">Stoich::installAndUnsched</text>
<text text-anchor="middle" x="680.5" y="-124.5" font-family="Ubuntu Mono" font-size="10.00">FuncReac</text>
</a>
</g>
</g>
<!-- Node4&#45;&gt;Node6 -->
<g id="edge5_Node000004_Node000006" class="edge">
<title>Node4&#45;&gt;Node6</title>
<g id="a_edge5_Node000004_Node000006"><a xlink:title=" ">
<path fill="none" stroke="#63b8ff" d="M812.59,-130.52C793.18,-130.81 771.96,-131.13 752.36,-131.43"/>
<polygon fill="#63b8ff" stroke="#63b8ff" points="812.91,-134.01 822.85,-130.36 812.8,-127.02 812.91,-134.01"/>
</a>
</g>
</g>
<!-- Node7 -->
<g id="Node000007" class="node">
<title>Node7</title>
<g id="a_Node000007"><a xlink:href="classStoich.html#ab56684804de4012037cb0c1bc180991d" target="_top" xlink:title=" ">
<polygon fill="white" stroke="#666666" points="562,-94 440,-94 440,-75 562,-75 562,-94"/>
<text text-anchor="middle" x="501" y="-82" font-family="Ubuntu Mono" font-size="10.00">Stoich::zombifyModel</text>
</a>
</g>
</g>
<!-- Node6&#45;&gt;Node7 -->
<g id="edge6_Node000006_Node000007" class="edge">
<title>Node6&#45;&gt;Node7</title>
<g id="a_edge6_Node000006_Node000007"><a xlink:title=" ">
<path fill="none" stroke="#63b8ff" d="M614.04,-114.8C588.09,-107.78 559.28,-99.99 537.37,-94.06"/>
<polygon fill="#63b8ff" stroke="#63b8ff" points="613.26,-118.21 623.82,-117.44 615.09,-111.46 613.26,-118.21"/>
</a>
</g>
</g>
<!-- Node8 -->
<g id="Node000008" class="node">
<title>Node8</title>
<g id="a_Node000008"><a xlink:href="classStoich.html#a44698a8a652534dc594bd87f450d93c0" target="_top" xlink:title=" ">
<polygon fill="white" stroke="#666666" points="404,-94 315,-94 315,-75 404,-75 404,-94"/>
<text text-anchor="middle" x="359.5" y="-82" font-family="Ubuntu Mono" font-size="10.00">Stoich::setElist</text>
</a>
</g>
</g>
<!-- Node7&#45;&gt;Node8 -->
<g id="edge7_Node000007_Node000008" class="edge">
<title>Node7&#45;&gt;Node8</title>
<g id="a_edge7_Node000007_Node000008"><a xlink:title=" ">
<path fill="none" stroke="#63b8ff" d="M429.5,-84.5C420.86,-84.5 412.23,-84.5 404.15,-84.5"/>
<polygon fill="#63b8ff" stroke="#63b8ff" points="429.62,-88 439.62,-84.5 429.62,-81 429.62,-88"/>
</a>
</g>
</g>
<!-- Node9 -->
<g id="Node000009" class="node">
<title>Node9</title>
<g id="a_Node000009"><a xlink:href="classStoich.html#a0a32cb242e6fd1f6af653a48189feda5" target="_top" xlink:title=" ">
<polygon fill="white" stroke="#666666" points="279,-94 130,-94 130,-75 279,-75 279,-94"/>
<text text-anchor="middle" x="204.5" y="-82" font-family="Ubuntu Mono" font-size="10.00">Stoich::setReacSystemPath</text>
</a>
</g>
</g>
<!-- Node8&#45;&gt;Node9 -->
<g id="edge8_Node000008_Node000009" class="edge">
<title>Node8&#45;&gt;Node9</title>
<g id="a_edge8_Node000008_Node000009"><a xlink:title=" ">
<path fill="none" stroke="#63b8ff" d="M304.48,-84.5C296.26,-84.5 287.66,-84.5 279.11,-84.5"/>
<polygon fill="#63b8ff" stroke="#63b8ff" points="304.66,-88 314.66,-84.5 304.66,-81 304.66,-88"/>
</a>
</g>
</g>
<!-- Node10 -->
<g id="Node000010" class="node">
<title>Node10</title>
<g id="a_Node000010"><a xlink:href="classStoich.html#ad8c6117d11f46222476ef4a464ecdc09" target="_top" xlink:title=" ">
<polygon fill="white" stroke="#666666" points="94,-113 0,-113 0,-94 94,-94 94,-113"/>
<text text-anchor="middle" x="47" y="-101" font-family="Ubuntu Mono" font-size="10.00">Stoich::initCinfo</text>
</a>
</g>
</g>
<!-- Node9&#45;&gt;Node10 -->
<g id="edge9_Node000009_Node000010" class="edge">
<title>Node9&#45;&gt;Node10</title>
<g id="a_edge9_Node000009_Node000010"><a xlink:title=" ">
<path fill="none" stroke="#63b8ff" d="M119.64,-94.75C110.97,-95.81 102.39,-96.85 94.36,-97.84"/>
<polygon fill="#63b8ff" stroke="#63b8ff" points="120.35,-98.19 129.85,-93.5 119.5,-91.24 120.35,-98.19"/>
</a>
</g>
</g>
<!-- Node11 -->
<g id="Node000011" class="node">
<title>Node11</title>
<g id="a_Node000011"><a xlink:href="classStoich.html#aec019d0f2ceb1d021062c1a3e712803a" target="_top" xlink:title=" ">
<polygon fill="white" stroke="#666666" points="91.5,-76 2.5,-76 2.5,-57 91.5,-57 91.5,-76"/>
<text text-anchor="middle" x="47" y="-64" font-family="Ubuntu Mono" font-size="10.00">Stoich::setPath</text>
</a>
</g>
</g>
<!-- Node9&#45;&gt;Node11 -->
<g id="edge10_Node000009_Node000011" class="edge">
<title>Node9&#45;&gt;Node11</title>
<g id="a_edge10_Node000009_Node000011"><a xlink:title=" ">
<path fill="none" stroke="#63b8ff" d="M119.76,-74.81C110.11,-73.69 100.57,-72.59 91.76,-71.57"/>
<polygon fill="#63b8ff" stroke="#63b8ff" points="119.51,-78.3 129.85,-75.97 120.32,-71.35 119.51,-78.3"/>
</a>
</g>
</g>
<!-- Node12&#45;&gt;Node7 -->
<g id="edge12_Node000012_Node000007" class="edge">
<title>Node12&#45;&gt;Node7</title>
<g id="a_edge12_Node000012_Node000007"><a xlink:title=" ">
<path fill="none" stroke="#63b8ff" d="M598.6,-84.5C586.33,-84.5 573.85,-84.5 562.12,-84.5"/>
<polygon fill="#63b8ff" stroke="#63b8ff" points="598.84,-88 608.84,-84.5 598.84,-81 598.84,-88"/>
</a>
</g>
</g>
<!-- Node14 -->
<g id="Node000014" class="node">
<title>Node14</title>
<g id="a_Node000014"><a xlink:href="classStoich.html#a76eb61b91eb52a6d439099fb91fed977" target="_top" xlink:title=" ">
<polygon fill="white" stroke="#666666" points="960,-58.5 802,-58.5 802,-28.5 960,-28.5 960,-58.5"/>
<text text-anchor="start" x="810" y="-46.5" font-family="Ubuntu Mono" font-size="10.00">Stoich::zombifyPoolFuncWith</text>
<text text-anchor="middle" x="881" y="-35.5" font-family="Ubuntu Mono" font-size="10.00">Scaling</text>
</a>
</g>
</g>
<!-- Node13&#45;&gt;Node14 -->
<g id="edge14_Node000013_Node000014" class="edge">
<title>Node13&#45;&gt;Node14</title>
<g id="a_edge14_Node000013_Node000014"><a xlink:title=" ">
<path fill="none" stroke="#63b8ff" d="M988.91,-45.11C979.26,-44.97 969.53,-44.82 960.06,-44.68"/>
<polygon fill="#63b8ff" stroke="#63b8ff" points="988.86,-48.61 998.91,-45.26 988.96,-41.61 988.86,-48.61"/>
</a>
</g>
</g>
<!-- Node14&#45;&gt;Node7 -->
<g id="edge15_Node000014_Node000007" class="edge">
<title>Node14&#45;&gt;Node7</title>
<g id="a_edge15_Node000014_Node000007"><a xlink:title=" ">
<path fill="none" stroke="#63b8ff" d="M791.58,-44.65C735.78,-46.4 662.35,-50.6 598,-60.5 576.44,-63.82 552.64,-69.75 534.14,-74.89"/>
<polygon fill="#63b8ff" stroke="#63b8ff" points="791.89,-48.14 801.79,-44.35 791.69,-41.14 791.89,-48.14"/>
</a>
</g>
</g>
</g>
</svg>

<g id="navigator" transform="translate(0 0)" fill="#404254">
  <rect fill="#f2f5e9" fill-opacity="0.5" stroke="#606060" stroke-width=".5" x="0" y="0" width="60" height="60"/>
  <use id="zoomplus" xlink:href="#zoomPlus" x="17" y="9" onmousedown="handleZoom(evt,'in')"/>
  <use id="zoomminus" xlink:href="#zoomMin" x="42" y="9" onmousedown="handleZoom(evt,'out')"/>
  <use id="reset" xlink:href="#resetDef" x="30" y="36" onmousedown="handleReset()"/>
   <use id="arrowup" xlink:href="#arrowUp" x="0" y="0" onmousedown="handlePan(0,-1)"/>
  <use id="arrowright" xlink:href="#arrowRight" x="0" y="0" onmousedown="handlePan(1,0)"/>
  <use id="arrowdown" xlink:href="#arrowDown" x="0" y="0" onmousedown="handlePan(0,1)"/>
  <use id="arrowleft" xlink:href="#arrowLeft" x="0" y="0" onmousedown="handlePan(-1,0)"/>
</g>
<svg viewBox="0 0 15 15" width="100%" height="30px" preserveAspectRatio="xMaxYMin meet">
 <g id="arrow_out" transform="scale(0.3 0.3)">
  <a xlink:href="classFuncTerm_a2c3b133e6b60af6a92e8fb2e4dc456e9_icgraph_org.svg" target="_base">
   <rect id="button" ry="5" rx="5" y="6" x="6" height="38" width="38"
        fill="#f2f5e9" fill-opacity="0.5" stroke="#606060" stroke-width="1.0"/>
   <path id="arrow"
     d="M 11.500037,31.436501 C 11.940474,20.09759 22.043105,11.32322 32.158766,21.979434 L 37.068811,17.246167 C 37.068811,17.246167 37.088388,32 37.088388,32 L 22.160133,31.978069 C 22.160133,31.978069 26.997745,27.140456 26.997745,27.140456 C 18.528582,18.264221 13.291696,25.230495 11.500037,31.436501 z"
     style="fill:#404040;"/>
  </a>
 </g>
</svg>

<style type='text/css'>
<![CDATA[
[data-mouse-over-selected='false'] { opacity: 0.7; }
[data-mouse-over-selected='true']  { opacity: 1.0; }
]]>
</style>
<script type="application/ecmascript"><![CDATA[
document.addEventListener('DOMContentLoaded', (event) => {
  highlightEdges();
  highlightAdjacentNodes();
});
]]></script>
</svg>
