<?xml version="1.0" encoding="UTF-8" standalone="no"?>
<!DOCTYPE svg PUBLIC "-//W3C//DTD SVG 1.1//EN"
 "http://www.w3.org/Graphics/SVG/1.1/DTD/svg11.dtd">
<!-- Generated by graphviz version 2.43.0 (0)
 -->
<!-- Title: FieldElement Pages: 1 -->
<svg width="137pt" height="622pt"
 viewBox="0.00 0.00 137.00 622.00" xmlns="http://www.w3.org/2000/svg" xmlns:xlink="http://www.w3.org/1999/xlink">
<g id="graph0" class="graph" transform="scale(1 1) rotate(0) translate(4 618)">
<title>FieldElement</title>
<!-- Node1 -->
<g id="Node000001" class="node">
<title>Node1</title>
<g id="a_Node000001"><a xlink:title=" ">
<polygon fill="#999999" stroke="transparent" points="118,-214 11,-214 11,0 118,0 118,-214"/>
<text text-anchor="start" x="33" y="-202" font-family="Ubuntu Mono" font-size="10.00">FieldElement</text>
<text text-anchor="start" x="18" y="-187" font-family="Ubuntu Mono" font-size="10.00">&#45;</text>
<text text-anchor="start" x="28.5" y="-187" font-family="Ubuntu Mono" font-size="10.00">fef_</text>
<text text-anchor="start" x="18" y="-172" font-family="Ubuntu Mono" font-size="10.00">&#45;</text>
<text text-anchor="start" x="28.5" y="-172" font-family="Ubuntu Mono" font-size="10.00">parent_</text>
<text text-anchor="start" x="15.5" y="-157" font-family="Ubuntu Mono" font-size="10.00">+</text>
<text text-anchor="start" x="28.5" y="-157" font-family="Ubuntu Mono" font-size="10.00">copyElement()</text>
<text text-anchor="start" x="15.5" y="-142" font-family="Ubuntu Mono" font-size="10.00">+</text>
<text text-anchor="start" x="28.5" y="-142" font-family="Ubuntu Mono" font-size="10.00">data()</text>
<text text-anchor="start" x="15.5" y="-127" font-family="Ubuntu Mono" font-size="10.00">+</text>
<text text-anchor="start" x="28.5" y="-127" font-family="Ubuntu Mono" font-size="10.00">FieldElement()</text>
<text text-anchor="start" x="15.5" y="-112" font-family="Ubuntu Mono" font-size="10.00">+</text>
<text text-anchor="start" x="28.5" y="-112" font-family="Ubuntu Mono" font-size="10.00">getNode()</text>
<text text-anchor="start" x="15.5" y="-97" font-family="Ubuntu Mono" font-size="10.00">+</text>
<text text-anchor="start" x="28.5" y="-97" font-family="Ubuntu Mono" font-size="10.00">getNumOnNode()</text>
<text text-anchor="start" x="15.5" y="-82" font-family="Ubuntu Mono" font-size="10.00">+</text>
<text text-anchor="start" x="28.5" y="-82" font-family="Ubuntu Mono" font-size="10.00">hasFields()</text>
<text text-anchor="start" x="15.5" y="-67" font-family="Ubuntu Mono" font-size="10.00">+</text>
<text text-anchor="start" x="28.5" y="-67" font-family="Ubuntu Mono" font-size="10.00">isGlobal()</text>
<text text-anchor="start" x="15.5" y="-52" font-family="Ubuntu Mono" font-size="10.00">+</text>
<text text-anchor="start" x="28.5" y="-52" font-family="Ubuntu Mono" font-size="10.00">localDataStart()</text>
<text text-anchor="start" x="15.5" y="-37" font-family="Ubuntu Mono" font-size="10.00">+</text>
<text text-anchor="start" x="28.5" y="-37" font-family="Ubuntu Mono" font-size="10.00">numData()</text>
<text text-anchor="start" x="15.5" y="-22" font-family="Ubuntu Mono" font-size="10.00">+</text>
<text text-anchor="start" x="28.5" y="-22" font-family="Ubuntu Mono" font-size="10.00">numField()</text>
<text text-anchor="start" x="28.5" y="-7" font-family="Ubuntu Mono" font-size="10.00">and 8 more...</text>
<polygon fill="#666666" stroke="#666666" points="11.5,-197 11.5,-197 118.5,-197 118.5,-197 11.5,-197"/>
<polygon fill="#666666" stroke="#666666" points="11.5,-167 11.5,-167 26.5,-167 26.5,-167 11.5,-167"/>
<polygon fill="#666666" stroke="#666666" points="26.5,-167 26.5,-167 118.5,-167 118.5,-167 26.5,-167"/>
<polygon fill="none" stroke="#666666" points="11,0 11,-214 118,-214 118,0 11,0"/>
</a>
</g>
</g>
<!-- Node2 -->
<g id="Node000002" class="node">
<title>Node2</title>
<g id="a_Node000002"><a xlink:href="classElement.html" target="_top" xlink:title=" ">
<polygon fill="white" stroke="transparent" points="129,-614 0,-614 0,-250 129,-250 129,-614"/>
<text text-anchor="start" x="44.5" y="-602" font-family="Ubuntu Mono" font-size="10.00">Element</text>
<text text-anchor="start" x="7" y="-587" font-family="Ubuntu Mono" font-size="10.00">&#45;</text>
<text text-anchor="start" x="17.5" y="-587" font-family="Ubuntu Mono" font-size="10.00">cinfo_</text>
<text text-anchor="start" x="7" y="-572" font-family="Ubuntu Mono" font-size="10.00">&#45;</text>
<text text-anchor="start" x="17.5" y="-572" font-family="Ubuntu Mono" font-size="10.00">id_</text>
<text text-anchor="start" x="7" y="-557" font-family="Ubuntu Mono" font-size="10.00">&#45;</text>
<text text-anchor="start" x="17.5" y="-557" font-family="Ubuntu Mono" font-size="10.00">isDoomed_</text>
<text text-anchor="start" x="7" y="-542" font-family="Ubuntu Mono" font-size="10.00">&#45;</text>
<text text-anchor="start" x="17.5" y="-542" font-family="Ubuntu Mono" font-size="10.00">isRewired_</text>
<text text-anchor="start" x="7" y="-527" font-family="Ubuntu Mono" font-size="10.00">&#45;</text>
<text text-anchor="start" x="17.5" y="-527" font-family="Ubuntu Mono" font-size="10.00">m_</text>
<text text-anchor="start" x="7" y="-512" font-family="Ubuntu Mono" font-size="10.00">&#45;</text>
<text text-anchor="start" x="17.5" y="-512" font-family="Ubuntu Mono" font-size="10.00">msgBinding_</text>
<text text-anchor="start" x="7" y="-497" font-family="Ubuntu Mono" font-size="10.00">&#45;</text>
<text text-anchor="start" x="17.5" y="-497" font-family="Ubuntu Mono" font-size="10.00">msgDigest_</text>
<text text-anchor="start" x="7" y="-482" font-family="Ubuntu Mono" font-size="10.00">&#45;</text>
<text text-anchor="start" x="17.5" y="-482" font-family="Ubuntu Mono" font-size="10.00">name_</text>
<text text-anchor="start" x="7" y="-467" font-family="Ubuntu Mono" font-size="10.00">&#45;</text>
<text text-anchor="start" x="17.5" y="-467" font-family="Ubuntu Mono" font-size="10.00">tick_</text>
<text text-anchor="start" x="4.5" y="-452" font-family="Ubuntu Mono" font-size="10.00">+</text>
<text text-anchor="start" x="17.5" y="-452" font-family="Ubuntu Mono" font-size="10.00">addMsg()</text>
<text text-anchor="start" x="4.5" y="-437" font-family="Ubuntu Mono" font-size="10.00">+</text>
<text text-anchor="start" x="17.5" y="-437" font-family="Ubuntu Mono" font-size="10.00">addMsgAndFunc()</text>
<text text-anchor="start" x="4.5" y="-422" font-family="Ubuntu Mono" font-size="10.00">+</text>
<text text-anchor="start" x="17.5" y="-422" font-family="Ubuntu Mono" font-size="10.00">cinfo()</text>
<text text-anchor="start" x="4.5" y="-407" font-family="Ubuntu Mono" font-size="10.00">+</text>
<text text-anchor="start" x="17.5" y="-407" font-family="Ubuntu Mono" font-size="10.00">clearAllMsgs()</text>
<text text-anchor="start" x="4.5" y="-392" font-family="Ubuntu Mono" font-size="10.00">+</text>
<text text-anchor="start" x="17.5" y="-392" font-family="Ubuntu Mono" font-size="10.00">clearBinding()</text>
<text text-anchor="start" x="4.5" y="-377" font-family="Ubuntu Mono" font-size="10.00">+</text>
<text text-anchor="start" x="17.5" y="-377" font-family="Ubuntu Mono" font-size="10.00">copyElement()</text>
<text text-anchor="start" x="4.5" y="-362" font-family="Ubuntu Mono" font-size="10.00">+</text>
<text text-anchor="start" x="17.5" y="-362" font-family="Ubuntu Mono" font-size="10.00">data()</text>
<text text-anchor="start" x="4.5" y="-347" font-family="Ubuntu Mono" font-size="10.00">+</text>
<text text-anchor="start" x="17.5" y="-347" font-family="Ubuntu Mono" font-size="10.00">digestMessages()</text>
<text text-anchor="start" x="4.5" y="-332" font-family="Ubuntu Mono" font-size="10.00">+</text>
<text text-anchor="start" x="17.5" y="-332" font-family="Ubuntu Mono" font-size="10.00">dropAllMsgsFromSrc()</text>
<text text-anchor="start" x="4.5" y="-317" font-family="Ubuntu Mono" font-size="10.00">+</text>
<text text-anchor="start" x="17.5" y="-317" font-family="Ubuntu Mono" font-size="10.00">dropMsg()</text>
<text text-anchor="start" x="17.5" y="-302" font-family="Ubuntu Mono" font-size="10.00">and 44 more...</text>
<text text-anchor="start" x="4.5" y="-287" font-family="Ubuntu Mono" font-size="10.00">+</text>
<text text-anchor="start" x="17.5" y="-287" font-family="Ubuntu Mono" font-size="10.00">destroyElementTree()</text>
<text text-anchor="start" x="7" y="-272" font-family="Ubuntu Mono" font-size="10.00">&#45;</text>
<text text-anchor="start" x="17.5" y="-272" font-family="Ubuntu Mono" font-size="10.00">getInputs()</text>
<text text-anchor="start" x="7" y="-257" font-family="Ubuntu Mono" font-size="10.00">&#45;</text>
<text text-anchor="start" x="17.5" y="-257" font-family="Ubuntu Mono" font-size="10.00">getOutputs()</text>
<polygon fill="#666666" stroke="#666666" points="0.5,-597 0.5,-597 129.5,-597 129.5,-597 0.5,-597"/>
<polygon fill="#666666" stroke="#666666" points="0.5,-462 0.5,-462 15.5,-462 15.5,-462 0.5,-462"/>
<polygon fill="#666666" stroke="#666666" points="15.5,-462 15.5,-462 129.5,-462 129.5,-462 15.5,-462"/>
<polygon fill="none" stroke="#666666" points="0,-250 0,-614 129,-614 129,-250 0,-250"/>
</a>
</g>
</g>
<!-- Node2&#45;&gt;Node1 -->
<g id="edge1_Node000001_Node000002" class="edge">
<title>Node2&#45;&gt;Node1</title>
<g id="a_edge1_Node000001_Node000002"><a xlink:title=" ">
<path fill="none" stroke="#63b8ff" d="M64.5,-239.52C64.5,-230.92 64.5,-222.43 64.5,-214.16"/>
<polygon fill="none" stroke="#63b8ff" points="61,-239.67 64.5,-249.67 68,-239.67 61,-239.67"/>
</a>
</g>
</g>
</g>
</svg>
