<?xml version="1.0" encoding="UTF-8" standalone="no"?>
<!DOCTYPE svg PUBLIC "-//W3C//DTD SVG 1.1//EN"
 "http://www.w3.org/Graphics/SVG/1.1/DTD/svg11.dtd">
<!-- Generated by graphviz version 2.43.0 (0)
 -->
<!-- Title: BidirectionalReaction Pages: 1 -->
<svg width="150pt" height="457pt"
 viewBox="0.00 0.00 150.00 457.00" xmlns="http://www.w3.org/2000/svg" xmlns:xlink="http://www.w3.org/1999/xlink">
<g id="graph0" class="graph" transform="scale(1 1) rotate(0) translate(4 453)">
<title>BidirectionalReaction</title>
<!-- Node1 -->
<g id="Node000001" class="node">
<title>Node1</title>
<g id="a_Node000001"><a xlink:title=" ">
<polygon fill="#999999" stroke="transparent" points="142,-214 0,-214 0,0 142,0 142,-214"/>
<text text-anchor="start" x="18.5" y="-202" font-family="Ubuntu Mono" font-size="10.00">BidirectionalReaction</text>
<text text-anchor="start" x="6.5" y="-187" font-family="Ubuntu Mono" font-size="10.00">&#45;</text>
<text text-anchor="start" x="17" y="-187" font-family="Ubuntu Mono" font-size="10.00">backward_</text>
<text text-anchor="start" x="6.5" y="-172" font-family="Ubuntu Mono" font-size="10.00">&#45;</text>
<text text-anchor="start" x="17" y="-172" font-family="Ubuntu Mono" font-size="10.00">forward_</text>
<text text-anchor="start" x="4" y="-157" font-family="Ubuntu Mono" font-size="10.00">+</text>
<text text-anchor="start" x="17" y="-157" font-family="Ubuntu Mono" font-size="10.00">BidirectionalReaction()</text>
<text text-anchor="start" x="4" y="-142" font-family="Ubuntu Mono" font-size="10.00">+</text>
<text text-anchor="start" x="17" y="-142" font-family="Ubuntu Mono" font-size="10.00">copyWithVolScaling()</text>
<text text-anchor="start" x="4" y="-127" font-family="Ubuntu Mono" font-size="10.00">+</text>
<text text-anchor="start" x="17" y="-127" font-family="Ubuntu Mono" font-size="10.00">getR1()</text>
<text text-anchor="start" x="4" y="-112" font-family="Ubuntu Mono" font-size="10.00">+</text>
<text text-anchor="start" x="17" y="-112" font-family="Ubuntu Mono" font-size="10.00">getR2()</text>
<text text-anchor="start" x="4" y="-97" font-family="Ubuntu Mono" font-size="10.00">+</text>
<text text-anchor="start" x="17" y="-97" font-family="Ubuntu Mono" font-size="10.00">getReactants()</text>
<text text-anchor="start" x="4" y="-82" font-family="Ubuntu Mono" font-size="10.00">+</text>
<text text-anchor="start" x="17" y="-82" font-family="Ubuntu Mono" font-size="10.00">operator()()</text>
<text text-anchor="start" x="4" y="-67" font-family="Ubuntu Mono" font-size="10.00">+</text>
<text text-anchor="start" x="17" y="-67" font-family="Ubuntu Mono" font-size="10.00">rescaleVolume()</text>
<text text-anchor="start" x="4" y="-52" font-family="Ubuntu Mono" font-size="10.00">+</text>
<text text-anchor="start" x="17" y="-52" font-family="Ubuntu Mono" font-size="10.00">setR1()</text>
<text text-anchor="start" x="4" y="-37" font-family="Ubuntu Mono" font-size="10.00">+</text>
<text text-anchor="start" x="17" y="-37" font-family="Ubuntu Mono" font-size="10.00">setR2()</text>
<text text-anchor="start" x="4" y="-22" font-family="Ubuntu Mono" font-size="10.00">+</text>
<text text-anchor="start" x="17" y="-22" font-family="Ubuntu Mono" font-size="10.00">setRates()</text>
<text text-anchor="start" x="4" y="-7" font-family="Ubuntu Mono" font-size="10.00">+</text>
<text text-anchor="start" x="17" y="-7" font-family="Ubuntu Mono" font-size="10.00">~BidirectionalReaction()</text>
<polygon fill="#666666" stroke="#666666" points="0,-197 0,-197 142,-197 142,-197 0,-197"/>
<polygon fill="#666666" stroke="#666666" points="0,-167 0,-167 15,-167 15,-167 0,-167"/>
<polygon fill="#666666" stroke="#666666" points="15,-167 15,-167 142,-167 142,-167 15,-167"/>
<polygon fill="none" stroke="#666666" points="0,0 0,-214 142,-214 142,0 0,0"/>
</a>
</g>
</g>
<!-- Node2 -->
<g id="Node000002" class="node">
<title>Node2</title>
<g id="a_Node000002"><a xlink:href="classRateTerm.html" target="_top" xlink:title=" ">
<polygon fill="white" stroke="transparent" points="133.5,-449 8.5,-449 8.5,-250 133.5,-250 133.5,-449"/>
<text text-anchor="start" x="48" y="-436.5" font-family="Ubuntu Mono" font-size="10.00">RateTerm</text>
<text text-anchor="start" x="13" y="-421.5" font-family="Ubuntu Mono" font-size="10.00">+</text>
<text text-anchor="start" x="26" y="-421.5" font-family="Ubuntu Mono" font-size="10.00">EPSILON</text>
<text text-anchor="start" x="13" y="-406.5" font-family="Ubuntu Mono" font-size="10.00">+</text>
<text text-anchor="start" x="26" y="-406.5" font-family="Ubuntu Mono" font-size="10.00">copyWithVolScaling()</text>
<text text-anchor="start" x="13" y="-391.5" font-family="Ubuntu Mono" font-size="10.00">+</text>
<text text-anchor="start" x="26" y="-391.5" font-family="Ubuntu Mono" font-size="10.00">getR1()</text>
<text text-anchor="start" x="13" y="-376.5" font-family="Ubuntu Mono" font-size="10.00">+</text>
<text text-anchor="start" x="26" y="-376.5" font-family="Ubuntu Mono" font-size="10.00">getR2()</text>
<text text-anchor="start" x="13" y="-361.5" font-family="Ubuntu Mono" font-size="10.00">+</text>
<text text-anchor="start" x="26" y="-361.5" font-family="Ubuntu Mono" font-size="10.00">getReactants()</text>
<text text-anchor="start" x="13" y="-346.5" font-family="Ubuntu Mono" font-size="10.00">+</text>
<text text-anchor="start" x="26" y="-346.5" font-family="Ubuntu Mono" font-size="10.00">operator()()</text>
<text text-anchor="start" x="13" y="-331.5" font-family="Ubuntu Mono" font-size="10.00">+</text>
<text text-anchor="start" x="26" y="-331.5" font-family="Ubuntu Mono" font-size="10.00">RateTerm()</text>
<text text-anchor="start" x="13" y="-316.5" font-family="Ubuntu Mono" font-size="10.00">+</text>
<text text-anchor="start" x="26" y="-316.5" font-family="Ubuntu Mono" font-size="10.00">rescaleVolume()</text>
<text text-anchor="start" x="13" y="-301.5" font-family="Ubuntu Mono" font-size="10.00">+</text>
<text text-anchor="start" x="26" y="-301.5" font-family="Ubuntu Mono" font-size="10.00">setR1()</text>
<text text-anchor="start" x="13" y="-286.5" font-family="Ubuntu Mono" font-size="10.00">+</text>
<text text-anchor="start" x="26" y="-286.5" font-family="Ubuntu Mono" font-size="10.00">setR2()</text>
<text text-anchor="start" x="13" y="-271.5" font-family="Ubuntu Mono" font-size="10.00">+</text>
<text text-anchor="start" x="26" y="-271.5" font-family="Ubuntu Mono" font-size="10.00">setRates()</text>
<text text-anchor="start" x="13" y="-256.5" font-family="Ubuntu Mono" font-size="10.00">+</text>
<text text-anchor="start" x="26" y="-256.5" font-family="Ubuntu Mono" font-size="10.00">~RateTerm()</text>
<polygon fill="#666666" stroke="#666666" points="9,-431.5 9,-431.5 134,-431.5 134,-431.5 9,-431.5"/>
<polygon fill="#666666" stroke="#666666" points="9,-416.5 9,-416.5 24,-416.5 24,-416.5 9,-416.5"/>
<polygon fill="#666666" stroke="#666666" points="24,-416.5 24,-416.5 134,-416.5 134,-416.5 24,-416.5"/>
<polygon fill="none" stroke="#666666" points="8.5,-250 8.5,-449 133.5,-449 133.5,-250 8.5,-250"/>
</a>
</g>
</g>
<!-- Node2&#45;&gt;Node1 -->
<g id="edge1_Node000001_Node000002" class="edge">
<title>Node2&#45;&gt;Node1</title>
<g id="a_edge1_Node000001_Node000002"><a xlink:title=" ">
<path fill="none" stroke="#63b8ff" d="M71,-239.97C71,-231.39 71,-222.74 71,-214.18"/>
<polygon fill="none" stroke="#63b8ff" points="67.5,-239.99 71,-249.99 74.5,-239.99 67.5,-239.99"/>
</a>
</g>
</g>
</g>
</svg>
