<?xml version="1.0" encoding="UTF-8" standalone="no"?>
<!DOCTYPE svg PUBLIC "-//W3C//DTD SVG 1.1//EN"
 "http://www.w3.org/Graphics/SVG/1.1/DTD/svg11.dtd">
<!-- Generated by graphviz version 2.43.0 (0)
 -->
<!-- Title: VectorTable::setDiv Pages: 1 -->
<svg width="526pt" height="64pt"
 viewBox="0.00 0.00 526.00 64.00" xmlns="http://www.w3.org/2000/svg" xmlns:xlink="http://www.w3.org/1999/xlink">
<g id="graph0" class="graph" transform="scale(1 1) rotate(0) translate(4 60)">
<title>VectorTable::setDiv</title>
<!-- Node1 -->
<g id="Node000001" class="node">
<title>Node1</title>
<g id="a_Node000001"><a xlink:title=" ">
<polygon fill="#999999" stroke="#666666" points="518,-37 408,-37 408,-18 518,-18 518,-37"/>
<text text-anchor="middle" x="463" y="-25" font-family="Ubuntu Mono" font-size="10.00">VectorTable::setDiv</text>
</a>
</g>
</g>
<!-- Node2 -->
<g id="Node000002" class="node">
<title>Node2</title>
<g id="a_Node000002"><a xlink:href="classVectorTable.html#a145104ca3f2c51b12331ef0169e323b1" target="_top" xlink:title=" ">
<polygon fill="white" stroke="#666666" points="338,-56 218,-56 218,-37 338,-37 338,-56"/>
<text text-anchor="middle" x="278" y="-44" font-family="Ubuntu Mono" font-size="10.00">VectorTable::initCinfo</text>
</a>
</g>
</g>
<!-- Node1&#45;&gt;Node2 -->
<g id="edge1_Node000001_Node000002" class="edge">
<title>Node1&#45;&gt;Node2</title>
<g id="a_edge1_Node000001_Node000002"><a xlink:title=" ">
<path fill="none" stroke="#63b8ff" d="M397.41,-34.21C378.17,-36.2 357.19,-38.38 338.31,-40.34"/>
<polygon fill="#63b8ff" stroke="#63b8ff" points="398,-37.66 407.59,-33.15 397.28,-30.7 398,-37.66"/>
</a>
</g>
</g>
<!-- Node3 -->
<g id="Node000003" class="node">
<title>Node3</title>
<g id="a_Node000003"><a xlink:href="classMarkovRateTable.html#afa5b42a065f975cef3c0eb566b26a78b" target="_top" xlink:title=" ">
<polygon fill="white" stroke="#666666" points="372,-19 184,-19 184,0 372,0 372,-19"/>
<text text-anchor="middle" x="278" y="-7" font-family="Ubuntu Mono" font-size="10.00">MarkovRateTable::setConstantRate</text>
</a>
</g>
</g>
<!-- Node1&#45;&gt;Node3 -->
<g id="edge2_Node000001_Node000003" class="edge">
<title>Node1&#45;&gt;Node3</title>
<g id="a_edge2_Node000001_Node000003"><a xlink:title=" ">
<path fill="none" stroke="#63b8ff" d="M397.43,-21.15C389.26,-20.35 380.77,-19.51 372.27,-18.67"/>
<polygon fill="#63b8ff" stroke="#63b8ff" points="397.29,-24.65 407.59,-22.15 397.98,-17.69 397.29,-24.65"/>
</a>
</g>
</g>
<!-- Node4 -->
<g id="Node000004" class="node">
<title>Node4</title>
<g id="a_Node000004"><a xlink:href="classMarkovRateTable.html#a7e422541cbc6ac60e53e3aa057f69ff5" target="_top" xlink:title=" ">
<polygon fill="white" stroke="#666666" points="148,-19 0,-19 0,0 148,0 148,-19"/>
<text text-anchor="middle" x="74" y="-7" font-family="Ubuntu Mono" font-size="10.00">MarkovRateTable::initCinfo</text>
</a>
</g>
</g>
<!-- Node3&#45;&gt;Node4 -->
<g id="edge3_Node000003_Node000004" class="edge">
<title>Node3&#45;&gt;Node4</title>
<g id="a_edge3_Node000003_Node000004"><a xlink:title=" ">
<path fill="none" stroke="#63b8ff" d="M173.83,-9.5C165.17,-9.5 156.54,-9.5 148.18,-9.5"/>
<polygon fill="#63b8ff" stroke="#63b8ff" points="173.98,-13 183.98,-9.5 173.98,-6 173.98,-13"/>
</a>
</g>
</g>
</g>
</svg>
