<?xml version="1.0" encoding="UTF-8" standalone="no"?>
<!DOCTYPE svg PUBLIC "-//W3C//DTD SVG 1.1//EN"
 "http://www.w3.org/Graphics/SVG/1.1/DTD/svg11.dtd">
<!-- Generated by graphviz version 2.43.0 (0)
 -->
<!-- Title: Msg::deleteMsg Pages: 1 -->
<svg width="580pt" height="101pt"
 viewBox="0.00 0.00 580.00 101.00" xmlns="http://www.w3.org/2000/svg" xmlns:xlink="http://www.w3.org/1999/xlink">
<g id="graph0" class="graph" transform="scale(1 1) rotate(0) translate(4 97)">
<title>Msg::deleteMsg</title>
<!-- Node1 -->
<g id="Node000001" class="node">
<title>Node1</title>
<g id="a_Node000001"><a xlink:title=" ">
<polygon fill="#999999" stroke="#666666" points="94,-56 0,-56 0,-37 94,-37 94,-56"/>
<text text-anchor="middle" x="47" y="-44" font-family="Ubuntu Mono" font-size="10.00">Msg::deleteMsg</text>
</a>
</g>
</g>
<!-- Node2 -->
<g id="Node000002" class="node">
<title>Node2</title>
<g id="a_Node000002"><a xlink:href="classMsg.html#a1a57001709e44ab056a704c24760c105" target="_top" xlink:title=" ">
<polygon fill="white" stroke="#666666" points="209,-56 130,-56 130,-37 209,-37 209,-56"/>
<text text-anchor="middle" x="169.5" y="-44" font-family="Ubuntu Mono" font-size="10.00">Msg::getMsg</text>
</a>
</g>
</g>
<!-- Node1&#45;&gt;Node2 -->
<g id="edge1_Node000001_Node000002" class="edge">
<title>Node1&#45;&gt;Node2</title>
<g id="a_edge1_Node000001_Node000002"><a xlink:title=" ">
<path fill="none" stroke="#63b8ff" d="M94.24,-46.5C102.55,-46.5 111.23,-46.5 119.61,-46.5"/>
<polygon fill="#63b8ff" stroke="#63b8ff" points="119.63,-50 129.63,-46.5 119.63,-43 119.63,-50"/>
</a>
</g>
</g>
<!-- Node3 -->
<g id="Node000003" class="node">
<title>Node3</title>
<g id="a_Node000003"><a xlink:href="classObjId.html#a1e5933713d6a73550b0923cf63f5bfd8" target="_top" xlink:title=" ">
<polygon fill="white" stroke="#666666" points="315,-56 245,-56 245,-37 315,-37 315,-56"/>
<text text-anchor="middle" x="280" y="-44" font-family="Ubuntu Mono" font-size="10.00">ObjId::data</text>
</a>
</g>
</g>
<!-- Node2&#45;&gt;Node3 -->
<g id="edge2_Node000002_Node000003" class="edge">
<title>Node2&#45;&gt;Node3</title>
<g id="a_edge2_Node000002_Node000003"><a xlink:title=" ">
<path fill="none" stroke="#63b8ff" d="M209.06,-46.5C217.37,-46.5 226.23,-46.5 234.74,-46.5"/>
<polygon fill="#63b8ff" stroke="#63b8ff" points="234.89,-50 244.89,-46.5 234.89,-43 234.89,-50"/>
</a>
</g>
</g>
<!-- Node4 -->
<g id="Node000004" class="node">
<title>Node4</title>
<g id="a_Node000004"><a xlink:href="classElement.html#a1978a0a584f1b10ea4a7c67e69880042" target="_top" xlink:title=" ">
<polygon fill="white" stroke="#666666" points="447.5,-93 362.5,-93 362.5,-74 447.5,-74 447.5,-93"/>
<text text-anchor="middle" x="405" y="-81" font-family="Ubuntu Mono" font-size="10.00">Element::data</text>
</a>
</g>
</g>
<!-- Node3&#45;&gt;Node4 -->
<g id="edge3_Node000003_Node000004" class="edge">
<title>Node3&#45;&gt;Node4</title>
<g id="a_edge3_Node000003_Node000004"><a xlink:title=" ">
<path fill="none" stroke="#63b8ff" d="M312.68,-56.03C327.77,-60.57 346.02,-66.06 362.22,-70.93"/>
<polygon fill="#63b8ff" stroke="#63b8ff" points="361.42,-74.35 372,-73.88 363.44,-67.64 361.42,-74.35"/>
</a>
</g>
</g>
<!-- Node5 -->
<g id="Node000005" class="node">
<title>Node5</title>
<g id="a_Node000005"><a xlink:href="classId.html#a574e06330597163aef0ea4c99de7ff4a" target="_top" xlink:title="Synonym for Id::operator()()">
<polygon fill="white" stroke="#666666" points="441,-56 369,-56 369,-37 441,-37 441,-56"/>
<text text-anchor="middle" x="405" y="-44" font-family="Ubuntu Mono" font-size="10.00">Id::element</text>
</a>
</g>
</g>
<!-- Node3&#45;&gt;Node5 -->
<g id="edge4_Node000003_Node000005" class="edge">
<title>Node3&#45;&gt;Node5</title>
<g id="a_edge4_Node000003_Node000005"><a xlink:title=" ">
<path fill="none" stroke="#63b8ff" d="M315.26,-46.5C328.65,-46.5 344.19,-46.5 358.49,-46.5"/>
<polygon fill="#63b8ff" stroke="#63b8ff" points="358.64,-50 368.64,-46.5 358.64,-43 358.64,-50"/>
</a>
</g>
</g>
<!-- Node7 -->
<g id="Node000007" class="node">
<title>Node7</title>
<g id="a_Node000007"><a xlink:href="classElement.html#a73a0e468a3d6cfd6475fff4a56459075" target="_top" xlink:title=" ">
<polygon fill="white" stroke="#666666" points="459,-19 351,-19 351,0 459,0 459,-19"/>
<text text-anchor="middle" x="405" y="-7" font-family="Ubuntu Mono" font-size="10.00">Element::rawIndex</text>
</a>
</g>
</g>
<!-- Node3&#45;&gt;Node7 -->
<g id="edge6_Node000003_Node000007" class="edge">
<title>Node3&#45;&gt;Node7</title>
<g id="a_edge6_Node000003_Node000007"><a xlink:title=" ">
<path fill="none" stroke="#63b8ff" d="M312.68,-36.97C327.77,-32.43 346.02,-26.94 362.22,-22.07"/>
<polygon fill="#63b8ff" stroke="#63b8ff" points="363.44,-25.36 372,-19.12 361.42,-18.65 363.44,-25.36"/>
</a>
</g>
</g>
<!-- Node6 -->
<g id="Node000006" class="node">
<title>Node6</title>
<g id="a_Node000006"><a xlink:href="classId.html#a2d5e7b4d5d918aadfe45102691c2be27" target="_top" xlink:title=" ">
<polygon fill="white" stroke="#666666" points="572,-56 495,-56 495,-37 572,-37 572,-56"/>
<text text-anchor="middle" x="533.5" y="-44" font-family="Ubuntu Mono" font-size="10.00">Id::elements</text>
</a>
</g>
</g>
<!-- Node5&#45;&gt;Node6 -->
<g id="edge5_Node000005_Node000006" class="edge">
<title>Node5&#45;&gt;Node6</title>
<g id="a_edge5_Node000005_Node000006"><a xlink:title=" ">
<path fill="none" stroke="#63b8ff" d="M441.24,-46.5C454.65,-46.5 470.17,-46.5 484.56,-46.5"/>
<polygon fill="#63b8ff" stroke="#63b8ff" points="484.8,-50 494.8,-46.5 484.8,-43 484.8,-50"/>
</a>
</g>
</g>
</g>
</svg>
