<?xml version="1.0" encoding="UTF-8" standalone="no"?>
<!DOCTYPE svg PUBLIC "-//W3C//DTD SVG 1.1//EN"
 "http://www.w3.org/Graphics/SVG/1.1/DTD/svg11.dtd">
<!-- Generated by graphviz version 2.43.0 (0)
 -->
<!-- Title: OneToAllMsg Pages: 1 -->
<svg width="591pt" height="1946pt"
 viewBox="0.00 0.00 591.00 1946.00" xmlns="http://www.w3.org/2000/svg" xmlns:xlink="http://www.w3.org/1999/xlink">
<g id="graph0" class="graph" transform="scale(1 1) rotate(0) translate(4 1942)">
<title>OneToAllMsg</title>
<!-- Node1 -->
<g id="Node000001" class="node">
<title>Node1</title>
<g id="a_Node000001"><a xlink:title=" ">
<polygon fill="#999999" stroke="transparent" points="100,-244 0,-244 0,0 100,0 100,-244"/>
<text text-anchor="start" x="18" y="-232" font-family="Ubuntu Mono" font-size="10.00">OneToAllMsg</text>
<text text-anchor="start" x="6.5" y="-217" font-family="Ubuntu Mono" font-size="10.00">&#45;</text>
<text text-anchor="start" x="17" y="-217" font-family="Ubuntu Mono" font-size="10.00">i1_</text>
<text text-anchor="start" x="6.5" y="-202" font-family="Ubuntu Mono" font-size="10.00">&#45;</text>
<text text-anchor="start" x="17" y="-202" font-family="Ubuntu Mono" font-size="10.00">msg_</text>
<text text-anchor="start" x="4" y="-187" font-family="Ubuntu Mono" font-size="10.00">+</text>
<text text-anchor="start" x="17" y="-187" font-family="Ubuntu Mono" font-size="10.00">copy()</text>
<text text-anchor="start" x="4" y="-172" font-family="Ubuntu Mono" font-size="10.00">+</text>
<text text-anchor="start" x="17" y="-172" font-family="Ubuntu Mono" font-size="10.00">findOtherEnd()</text>
<text text-anchor="start" x="4" y="-157" font-family="Ubuntu Mono" font-size="10.00">+</text>
<text text-anchor="start" x="17" y="-157" font-family="Ubuntu Mono" font-size="10.00">firstTgt()</text>
<text text-anchor="start" x="4" y="-142" font-family="Ubuntu Mono" font-size="10.00">+</text>
<text text-anchor="start" x="17" y="-142" font-family="Ubuntu Mono" font-size="10.00">getI1()</text>
<text text-anchor="start" x="4" y="-127" font-family="Ubuntu Mono" font-size="10.00">+</text>
<text text-anchor="start" x="17" y="-127" font-family="Ubuntu Mono" font-size="10.00">managerId()</text>
<text text-anchor="start" x="4" y="-112" font-family="Ubuntu Mono" font-size="10.00">+</text>
<text text-anchor="start" x="17" y="-112" font-family="Ubuntu Mono" font-size="10.00">OneToAllMsg()</text>
<text text-anchor="start" x="4" y="-97" font-family="Ubuntu Mono" font-size="10.00">+</text>
<text text-anchor="start" x="17" y="-97" font-family="Ubuntu Mono" font-size="10.00">setI1()</text>
<text text-anchor="start" x="4" y="-82" font-family="Ubuntu Mono" font-size="10.00">+</text>
<text text-anchor="start" x="17" y="-82" font-family="Ubuntu Mono" font-size="10.00">sources()</text>
<text text-anchor="start" x="4" y="-67" font-family="Ubuntu Mono" font-size="10.00">+</text>
<text text-anchor="start" x="17" y="-67" font-family="Ubuntu Mono" font-size="10.00">targets()</text>
<text text-anchor="start" x="4" y="-52" font-family="Ubuntu Mono" font-size="10.00">+</text>
<text text-anchor="start" x="17" y="-52" font-family="Ubuntu Mono" font-size="10.00">~OneToAllMsg()</text>
<text text-anchor="start" x="4" y="-37" font-family="Ubuntu Mono" font-size="10.00">+</text>
<text text-anchor="start" x="17" y="-37" font-family="Ubuntu Mono" font-size="10.00">initCinfo()</text>
<text text-anchor="start" x="4" y="-22" font-family="Ubuntu Mono" font-size="10.00">+</text>
<text text-anchor="start" x="17" y="-22" font-family="Ubuntu Mono" font-size="10.00">lookupMsg()</text>
<text text-anchor="start" x="4" y="-7" font-family="Ubuntu Mono" font-size="10.00">+</text>
<text text-anchor="start" x="17" y="-7" font-family="Ubuntu Mono" font-size="10.00">numMsg()</text>
<polygon fill="#666666" stroke="#666666" points="0,-227 0,-227 100,-227 100,-227 0,-227"/>
<polygon fill="#666666" stroke="#666666" points="0,-197 0,-197 15,-197 15,-197 0,-197"/>
<polygon fill="#666666" stroke="#666666" points="15,-197 15,-197 100,-197 100,-197 15,-197"/>
<polygon fill="none" stroke="#666666" points="0,0 0,-244 100,-244 100,0 0,0"/>
</a>
</g>
</g>
<!-- Node2 -->
<g id="Node000002" class="node">
<title>Node2</title>
<g id="a_Node000002"><a xlink:href="classMsg.html" target="_top" xlink:title=" ">
<polygon fill="white" stroke="transparent" points="202.5,-585 81.5,-585 81.5,-281 202.5,-281 202.5,-585"/>
<text text-anchor="start" x="132" y="-573" font-family="Ubuntu Mono" font-size="10.00">Msg</text>
<text text-anchor="start" x="86" y="-558" font-family="Ubuntu Mono" font-size="10.00">#</text>
<text text-anchor="start" x="99" y="-558" font-family="Ubuntu Mono" font-size="10.00">lastTrump_</text>
<text text-anchor="start" x="86" y="-543" font-family="Ubuntu Mono" font-size="10.00">+</text>
<text text-anchor="start" x="99" y="-543" font-family="Ubuntu Mono" font-size="10.00">copy()</text>
<text text-anchor="start" x="86" y="-528" font-family="Ubuntu Mono" font-size="10.00">+</text>
<text text-anchor="start" x="99" y="-528" font-family="Ubuntu Mono" font-size="10.00">e1()</text>
<text text-anchor="start" x="86" y="-513" font-family="Ubuntu Mono" font-size="10.00">+</text>
<text text-anchor="start" x="99" y="-513" font-family="Ubuntu Mono" font-size="10.00">e2()</text>
<text text-anchor="start" x="86" y="-498" font-family="Ubuntu Mono" font-size="10.00">+</text>
<text text-anchor="start" x="99" y="-498" font-family="Ubuntu Mono" font-size="10.00">findOtherEnd()</text>
<text text-anchor="start" x="86" y="-483" font-family="Ubuntu Mono" font-size="10.00">+</text>
<text text-anchor="start" x="99" y="-483" font-family="Ubuntu Mono" font-size="10.00">firstTgt()</text>
<text text-anchor="start" x="86" y="-468" font-family="Ubuntu Mono" font-size="10.00">+</text>
<text text-anchor="start" x="99" y="-468" font-family="Ubuntu Mono" font-size="10.00">getAdjacent()</text>
<text text-anchor="start" x="86" y="-453" font-family="Ubuntu Mono" font-size="10.00">+</text>
<text text-anchor="start" x="99" y="-453" font-family="Ubuntu Mono" font-size="10.00">getDestFieldsOnE1()</text>
<text text-anchor="start" x="86" y="-438" font-family="Ubuntu Mono" font-size="10.00">+</text>
<text text-anchor="start" x="99" y="-438" font-family="Ubuntu Mono" font-size="10.00">getDestFieldsOnE2()</text>
<text text-anchor="start" x="86" y="-423" font-family="Ubuntu Mono" font-size="10.00">+</text>
<text text-anchor="start" x="99" y="-423" font-family="Ubuntu Mono" font-size="10.00">getE1()</text>
<text text-anchor="start" x="86" y="-408" font-family="Ubuntu Mono" font-size="10.00">+</text>
<text text-anchor="start" x="99" y="-408" font-family="Ubuntu Mono" font-size="10.00">getE2()</text>
<text text-anchor="start" x="99" y="-393" font-family="Ubuntu Mono" font-size="10.00">and 8 more...</text>
<text text-anchor="start" x="86" y="-378" font-family="Ubuntu Mono" font-size="10.00">+</text>
<text text-anchor="start" x="99" y="-378" font-family="Ubuntu Mono" font-size="10.00">clearAllMsgs()</text>
<text text-anchor="start" x="86" y="-363" font-family="Ubuntu Mono" font-size="10.00">+</text>
<text text-anchor="start" x="99" y="-363" font-family="Ubuntu Mono" font-size="10.00">deleteMsg()</text>
<text text-anchor="start" x="86" y="-348" font-family="Ubuntu Mono" font-size="10.00">+</text>
<text text-anchor="start" x="99" y="-348" font-family="Ubuntu Mono" font-size="10.00">getMsg()</text>
<text text-anchor="start" x="86" y="-333" font-family="Ubuntu Mono" font-size="10.00">+</text>
<text text-anchor="start" x="99" y="-333" font-family="Ubuntu Mono" font-size="10.00">initCinfo()</text>
<text text-anchor="start" x="86" y="-318" font-family="Ubuntu Mono" font-size="10.00">+</text>
<text text-anchor="start" x="99" y="-318" font-family="Ubuntu Mono" font-size="10.00">initMsgManagers()</text>
<text text-anchor="start" x="86" y="-303" font-family="Ubuntu Mono" font-size="10.00">+</text>
<text text-anchor="start" x="99" y="-303" font-family="Ubuntu Mono" font-size="10.00">isLastTrump()</text>
<text text-anchor="start" x="86" y="-288" font-family="Ubuntu Mono" font-size="10.00">+</text>
<text text-anchor="start" x="99" y="-288" font-family="Ubuntu Mono" font-size="10.00">lastMsg()</text>
<polygon fill="#666666" stroke="#666666" points="82,-568 82,-568 203,-568 203,-568 82,-568"/>
<polygon fill="#666666" stroke="#666666" points="82,-553 82,-553 97,-553 97,-553 82,-553"/>
<polygon fill="#666666" stroke="#666666" points="97,-553 97,-553 203,-553 203,-553 97,-553"/>
<polygon fill="none" stroke="#666666" points="81.5,-281 81.5,-585 202.5,-585 202.5,-281 81.5,-281"/>
</a>
</g>
</g>
<!-- Node2&#45;&gt;Node1 -->
<g id="edge1_Node000001_Node000002" class="edge">
<title>Node2&#45;&gt;Node1</title>
<g id="a_edge1_Node000001_Node000002"><a xlink:title=" ">
<path fill="none" stroke="#63b8ff" d="M94.04,-270.92C91.37,-261.94 88.7,-252.99 86.08,-244.2"/>
<polygon fill="none" stroke="#63b8ff" points="90.74,-272.08 96.94,-280.67 97.44,-270.09 90.74,-272.08"/>
</a>
</g>
</g>
<!-- Node2&#45;&gt;Node2 -->
<g id="edge16_Node000002_Node000002" class="edge">
<title>Node2&#45;&gt;Node2</title>
<g id="a_edge16_Node000002_Node000002"><a xlink:title=" ">
<path fill="none" stroke="#63b8ff" d="M202.56,-462.88C213.14,-458.9 220.5,-448.94 220.5,-433 220.5,-423.04 217.63,-415.41 212.89,-410.12"/>
<polygon fill="none" stroke="#63b8ff" points="212.49,-409.85 205.28,-409.8 202.56,-403.12 209.77,-403.18 212.49,-409.85"/>
</a>
</g>
<text text-anchor="middle" x="246" y="-430.5" font-family="Ubuntu Mono" font-size="10.00" fill="grey"> &#45;lastMsg_</text>
</g>
<!-- Node3 -->
<g id="Node000003" class="node">
<title>Node3</title>
<g id="a_Node000003"><a xlink:href="classObjId.html" target="_top" xlink:title=" ">
<polygon fill="white" stroke="transparent" points="287.5,-947 200.5,-947 200.5,-673 287.5,-673 287.5,-947"/>
<text text-anchor="start" x="231.5" y="-935" font-family="Ubuntu Mono" font-size="10.00">ObjId</text>
<text text-anchor="start" x="205" y="-920" font-family="Ubuntu Mono" font-size="10.00">+</text>
<text text-anchor="start" x="218" y="-920" font-family="Ubuntu Mono" font-size="10.00">dataIndex</text>
<text text-anchor="start" x="205" y="-905" font-family="Ubuntu Mono" font-size="10.00">+</text>
<text text-anchor="start" x="218" y="-905" font-family="Ubuntu Mono" font-size="10.00">fieldIndex</text>
<text text-anchor="start" x="205" y="-890" font-family="Ubuntu Mono" font-size="10.00">+</text>
<text text-anchor="start" x="218" y="-890" font-family="Ubuntu Mono" font-size="10.00">bad()</text>
<text text-anchor="start" x="205" y="-875" font-family="Ubuntu Mono" font-size="10.00">+</text>
<text text-anchor="start" x="218" y="-875" font-family="Ubuntu Mono" font-size="10.00">data()</text>
<text text-anchor="start" x="205" y="-860" font-family="Ubuntu Mono" font-size="10.00">+</text>
<text text-anchor="start" x="218" y="-860" font-family="Ubuntu Mono" font-size="10.00">element()</text>
<text text-anchor="start" x="205" y="-845" font-family="Ubuntu Mono" font-size="10.00">+</text>
<text text-anchor="start" x="218" y="-845" font-family="Ubuntu Mono" font-size="10.00">eref()</text>
<text text-anchor="start" x="205" y="-830" font-family="Ubuntu Mono" font-size="10.00">+</text>
<text text-anchor="start" x="218" y="-830" font-family="Ubuntu Mono" font-size="10.00">isDataHere()</text>
<text text-anchor="start" x="205" y="-815" font-family="Ubuntu Mono" font-size="10.00">+</text>
<text text-anchor="start" x="218" y="-815" font-family="Ubuntu Mono" font-size="10.00">isGlobal()</text>
<text text-anchor="start" x="205" y="-800" font-family="Ubuntu Mono" font-size="10.00">+</text>
<text text-anchor="start" x="218" y="-800" font-family="Ubuntu Mono" font-size="10.00">isOffNode()</text>
<text text-anchor="start" x="205" y="-785" font-family="Ubuntu Mono" font-size="10.00">+</text>
<text text-anchor="start" x="218" y="-785" font-family="Ubuntu Mono" font-size="10.00">ObjId()</text>
<text text-anchor="start" x="205" y="-770" font-family="Ubuntu Mono" font-size="10.00">+</text>
<text text-anchor="start" x="218" y="-770" font-family="Ubuntu Mono" font-size="10.00">ObjId()</text>
<text text-anchor="start" x="205" y="-755" font-family="Ubuntu Mono" font-size="10.00">+</text>
<text text-anchor="start" x="218" y="-755" font-family="Ubuntu Mono" font-size="10.00">ObjId()</text>
<text text-anchor="start" x="205" y="-740" font-family="Ubuntu Mono" font-size="10.00">+</text>
<text text-anchor="start" x="218" y="-740" font-family="Ubuntu Mono" font-size="10.00">ObjId()</text>
<text text-anchor="start" x="205" y="-725" font-family="Ubuntu Mono" font-size="10.00">+</text>
<text text-anchor="start" x="218" y="-725" font-family="Ubuntu Mono" font-size="10.00">operator!=()</text>
<text text-anchor="start" x="205" y="-710" font-family="Ubuntu Mono" font-size="10.00">+</text>
<text text-anchor="start" x="218" y="-710" font-family="Ubuntu Mono" font-size="10.00">operator&lt;()</text>
<text text-anchor="start" x="205" y="-695" font-family="Ubuntu Mono" font-size="10.00">+</text>
<text text-anchor="start" x="218" y="-695" font-family="Ubuntu Mono" font-size="10.00">operator==()</text>
<text text-anchor="start" x="205" y="-680" font-family="Ubuntu Mono" font-size="10.00">+</text>
<text text-anchor="start" x="218" y="-680" font-family="Ubuntu Mono" font-size="10.00">path()</text>
<polygon fill="#666666" stroke="#666666" points="201,-930 201,-930 288,-930 288,-930 201,-930"/>
<polygon fill="#666666" stroke="#666666" points="201,-900 201,-900 216,-900 216,-900 201,-900"/>
<polygon fill="#666666" stroke="#666666" points="216,-900 216,-900 288,-900 288,-900 216,-900"/>
<polygon fill="none" stroke="#666666" points="200.5,-673 200.5,-947 287.5,-947 287.5,-673 200.5,-673"/>
</a>
</g>
</g>
<!-- Node3&#45;&gt;Node2 -->
<g id="edge2_Node000002_Node000003" class="edge">
<title>Node3&#45;&gt;Node2</title>
<g id="a_edge2_Node000002_Node000003"><a xlink:title=" ">
<path fill="none" stroke="#63b8ff" d="M206.96,-672.82C200.24,-648.11 193.17,-622.11 186.26,-596.73"/>
<polygon fill="none" stroke="#63b8ff" points="186.25,-596.7 180.82,-591.96 183.1,-585.12 188.54,-589.86 186.25,-596.7"/>
</a>
</g>
<text text-anchor="middle" x="211" y="-611.5" font-family="Ubuntu Mono" font-size="10.00" fill="grey"> #mid_</text>
</g>
<!-- Node4 -->
<g id="Node000004" class="node">
<title>Node4</title>
<g id="a_Node000004"><a xlink:href="classId.html" target="_top" xlink:title=" ">
<polygon fill="white" stroke="transparent" points="218,-1440.5 106,-1440.5 106,-1061.5 218,-1061.5 218,-1440.5"/>
<text text-anchor="start" x="157" y="-1428" font-family="Ubuntu Mono" font-size="10.00">Id</text>
<text text-anchor="start" x="112.5" y="-1413" font-family="Ubuntu Mono" font-size="10.00">&#45;</text>
<text text-anchor="start" x="123" y="-1413" font-family="Ubuntu Mono" font-size="10.00">id_</text>
<text text-anchor="start" x="110" y="-1398" font-family="Ubuntu Mono" font-size="10.00">+</text>
<text text-anchor="start" x="123" y="-1398" font-family="Ubuntu Mono" font-size="10.00">bindIdToElement()</text>
<text text-anchor="start" x="110" y="-1383" font-family="Ubuntu Mono" font-size="10.00">+</text>
<text text-anchor="start" x="123" y="-1383" font-family="Ubuntu Mono" font-size="10.00">destroy()</text>
<text text-anchor="start" x="110" y="-1368" font-family="Ubuntu Mono" font-size="10.00">+</text>
<text text-anchor="start" x="123" y="-1368" font-family="Ubuntu Mono" font-size="10.00">element()</text>
<text text-anchor="start" x="110" y="-1353" font-family="Ubuntu Mono" font-size="10.00">+</text>
<text text-anchor="start" x="123" y="-1353" font-family="Ubuntu Mono" font-size="10.00">eref()</text>
<text text-anchor="start" x="110" y="-1338" font-family="Ubuntu Mono" font-size="10.00">+</text>
<text text-anchor="start" x="123" y="-1338" font-family="Ubuntu Mono" font-size="10.00">Id()</text>
<text text-anchor="start" x="110" y="-1323" font-family="Ubuntu Mono" font-size="10.00">+</text>
<text text-anchor="start" x="123" y="-1323" font-family="Ubuntu Mono" font-size="10.00">Id()</text>
<text text-anchor="start" x="110" y="-1308" font-family="Ubuntu Mono" font-size="10.00">+</text>
<text text-anchor="start" x="123" y="-1308" font-family="Ubuntu Mono" font-size="10.00">Id()</text>
<text text-anchor="start" x="110" y="-1293" font-family="Ubuntu Mono" font-size="10.00">+</text>
<text text-anchor="start" x="123" y="-1293" font-family="Ubuntu Mono" font-size="10.00">Id()</text>
<text text-anchor="start" x="110" y="-1278" font-family="Ubuntu Mono" font-size="10.00">+</text>
<text text-anchor="start" x="123" y="-1278" font-family="Ubuntu Mono" font-size="10.00">operator!=()</text>
<text text-anchor="start" x="110" y="-1263" font-family="Ubuntu Mono" font-size="10.00">+</text>
<text text-anchor="start" x="123" y="-1263" font-family="Ubuntu Mono" font-size="10.00">operator&lt;()</text>
<text text-anchor="start" x="110" y="-1248" font-family="Ubuntu Mono" font-size="10.00">+</text>
<text text-anchor="start" x="123" y="-1248" font-family="Ubuntu Mono" font-size="10.00">operator==()</text>
<text text-anchor="start" x="110" y="-1233" font-family="Ubuntu Mono" font-size="10.00">+</text>
<text text-anchor="start" x="123" y="-1233" font-family="Ubuntu Mono" font-size="10.00">path()</text>
<text text-anchor="start" x="110" y="-1218" font-family="Ubuntu Mono" font-size="10.00">+</text>
<text text-anchor="start" x="123" y="-1218" font-family="Ubuntu Mono" font-size="10.00">value()</text>
<text text-anchor="start" x="110" y="-1203" font-family="Ubuntu Mono" font-size="10.00">+</text>
<text text-anchor="start" x="123" y="-1203" font-family="Ubuntu Mono" font-size="10.00">zeroOut()</text>
<text text-anchor="start" x="110" y="-1188" font-family="Ubuntu Mono" font-size="10.00">+</text>
<text text-anchor="start" x="123" y="-1188" font-family="Ubuntu Mono" font-size="10.00">~Id()</text>
<text text-anchor="start" x="110" y="-1173" font-family="Ubuntu Mono" font-size="10.00">+</text>
<text text-anchor="start" x="123" y="-1173" font-family="Ubuntu Mono" font-size="10.00">clearAllElements()</text>
<text text-anchor="start" x="110" y="-1158" font-family="Ubuntu Mono" font-size="10.00">+</text>
<text text-anchor="start" x="123" y="-1158" font-family="Ubuntu Mono" font-size="10.00">id2str()</text>
<text text-anchor="start" x="110" y="-1143" font-family="Ubuntu Mono" font-size="10.00">+</text>
<text text-anchor="start" x="123" y="-1143" font-family="Ubuntu Mono" font-size="10.00">isValid()</text>
<text text-anchor="start" x="110" y="-1128" font-family="Ubuntu Mono" font-size="10.00">+</text>
<text text-anchor="start" x="123" y="-1128" font-family="Ubuntu Mono" font-size="10.00">isValid()</text>
<text text-anchor="start" x="110" y="-1113" font-family="Ubuntu Mono" font-size="10.00">+</text>
<text text-anchor="start" x="123" y="-1113" font-family="Ubuntu Mono" font-size="10.00">nextId()</text>
<text text-anchor="start" x="110" y="-1098" font-family="Ubuntu Mono" font-size="10.00">+</text>
<text text-anchor="start" x="123" y="-1098" font-family="Ubuntu Mono" font-size="10.00">numIds()</text>
<text text-anchor="start" x="110" y="-1083" font-family="Ubuntu Mono" font-size="10.00">+</text>
<text text-anchor="start" x="123" y="-1083" font-family="Ubuntu Mono" font-size="10.00">str2Id()</text>
<text text-anchor="start" x="112.5" y="-1068" font-family="Ubuntu Mono" font-size="10.00">&#45;</text>
<text text-anchor="start" x="123" y="-1068" font-family="Ubuntu Mono" font-size="10.00">elements()</text>
<polygon fill="#666666" stroke="#666666" points="106,-1423 106,-1423 218,-1423 218,-1423 106,-1423"/>
<polygon fill="#666666" stroke="#666666" points="106,-1408 106,-1408 121,-1408 121,-1408 106,-1408"/>
<polygon fill="#666666" stroke="#666666" points="121,-1408 121,-1408 218,-1408 218,-1408 121,-1408"/>
<polygon fill="none" stroke="#666666" points="106,-1061.5 106,-1440.5 218,-1440.5 218,-1061.5 106,-1061.5"/>
</a>
</g>
</g>
<!-- Node4&#45;&gt;Node1 -->
<g id="edge17_Node000001_Node000004" class="edge">
<title>Node4&#45;&gt;Node1</title>
<g id="a_edge17_Node000001_Node000004"><a xlink:title=" ">
<path fill="none" stroke="#63b8ff" d="M106.11,-1061.32C98.76,-1033.2 91.78,-1004.44 86,-977 51.41,-812.84 32.38,-770.74 35,-603 36.83,-485.88 41.17,-352.75 44.71,-256.45"/>
<polygon fill="none" stroke="#63b8ff" points="44.72,-256.29 40.94,-250.15 45.16,-244.3 48.94,-250.44 44.72,-256.29"/>
</a>
</g>
<text text-anchor="middle" x="67.5" y="-611.5" font-family="Ubuntu Mono" font-size="10.00" fill="grey"> &#45;managerId_</text>
</g>
<!-- Node4&#45;&gt;Node2 -->
<g id="edge15_Node000002_Node000004" class="edge">
<title>Node4&#45;&gt;Node2</title>
<g id="a_edge15_Node000002_Node000004"><a xlink:title=" ">
<path fill="none" stroke="#63b8ff" d="M114.23,-1061.45C108.75,-1033.31 104.04,-1004.51 101,-977 84.72,-829.45 86.64,-790.75 101,-643 102.46,-627.97 104.5,-612.42 106.89,-596.89"/>
<polygon fill="none" stroke="#63b8ff" points="106.89,-596.88 103.89,-590.32 108.79,-585.03 111.79,-591.58 106.89,-596.88"/>
</a>
</g>
<text text-anchor="middle" x="146" y="-807.5" font-family="Ubuntu Mono" font-size="10.00" fill="grey"> #msgManagerId_</text>
</g>
<!-- Node4&#45;&gt;Node3 -->
<g id="edge3_Node000003_Node000004" class="edge">
<title>Node4&#45;&gt;Node3</title>
<g id="a_edge3_Node000003_Node000004"><a xlink:title=" ">
<path fill="none" stroke="#63b8ff" d="M197.25,-1061.28C203.63,-1027.13 210.2,-991.96 216.32,-959.18"/>
<polygon fill="none" stroke="#63b8ff" points="216.35,-959.01 213.52,-952.38 218.56,-947.21 221.39,-953.85 216.35,-959.01"/>
</a>
</g>
<text text-anchor="middle" x="218.5" y="-998" font-family="Ubuntu Mono" font-size="10.00" fill="grey"> +id</text>
</g>
<!-- Node5 -->
<g id="Node000005" class="node">
<title>Node5</title>
<g id="a_Node000005"><a xlink:href="classElement.html" target="_top" xlink:title=" ">
<polygon fill="white" stroke="transparent" points="434.5,-977 305.5,-977 305.5,-643 434.5,-643 434.5,-977"/>
<text text-anchor="start" x="350" y="-965" font-family="Ubuntu Mono" font-size="10.00">Element</text>
<text text-anchor="start" x="312.5" y="-950" font-family="Ubuntu Mono" font-size="10.00">&#45;</text>
<text text-anchor="start" x="323" y="-950" font-family="Ubuntu Mono" font-size="10.00">isDoomed_</text>
<text text-anchor="start" x="312.5" y="-935" font-family="Ubuntu Mono" font-size="10.00">&#45;</text>
<text text-anchor="start" x="323" y="-935" font-family="Ubuntu Mono" font-size="10.00">isRewired_</text>
<text text-anchor="start" x="312.5" y="-920" font-family="Ubuntu Mono" font-size="10.00">&#45;</text>
<text text-anchor="start" x="323" y="-920" font-family="Ubuntu Mono" font-size="10.00">m_</text>
<text text-anchor="start" x="312.5" y="-905" font-family="Ubuntu Mono" font-size="10.00">&#45;</text>
<text text-anchor="start" x="323" y="-905" font-family="Ubuntu Mono" font-size="10.00">msgBinding_</text>
<text text-anchor="start" x="312.5" y="-890" font-family="Ubuntu Mono" font-size="10.00">&#45;</text>
<text text-anchor="start" x="323" y="-890" font-family="Ubuntu Mono" font-size="10.00">msgDigest_</text>
<text text-anchor="start" x="312.5" y="-875" font-family="Ubuntu Mono" font-size="10.00">&#45;</text>
<text text-anchor="start" x="323" y="-875" font-family="Ubuntu Mono" font-size="10.00">name_</text>
<text text-anchor="start" x="312.5" y="-860" font-family="Ubuntu Mono" font-size="10.00">&#45;</text>
<text text-anchor="start" x="323" y="-860" font-family="Ubuntu Mono" font-size="10.00">tick_</text>
<text text-anchor="start" x="310" y="-845" font-family="Ubuntu Mono" font-size="10.00">+</text>
<text text-anchor="start" x="323" y="-845" font-family="Ubuntu Mono" font-size="10.00">addMsg()</text>
<text text-anchor="start" x="310" y="-830" font-family="Ubuntu Mono" font-size="10.00">+</text>
<text text-anchor="start" x="323" y="-830" font-family="Ubuntu Mono" font-size="10.00">addMsgAndFunc()</text>
<text text-anchor="start" x="310" y="-815" font-family="Ubuntu Mono" font-size="10.00">+</text>
<text text-anchor="start" x="323" y="-815" font-family="Ubuntu Mono" font-size="10.00">cinfo()</text>
<text text-anchor="start" x="310" y="-800" font-family="Ubuntu Mono" font-size="10.00">+</text>
<text text-anchor="start" x="323" y="-800" font-family="Ubuntu Mono" font-size="10.00">clearAllMsgs()</text>
<text text-anchor="start" x="310" y="-785" font-family="Ubuntu Mono" font-size="10.00">+</text>
<text text-anchor="start" x="323" y="-785" font-family="Ubuntu Mono" font-size="10.00">clearBinding()</text>
<text text-anchor="start" x="310" y="-770" font-family="Ubuntu Mono" font-size="10.00">+</text>
<text text-anchor="start" x="323" y="-770" font-family="Ubuntu Mono" font-size="10.00">copyElement()</text>
<text text-anchor="start" x="310" y="-755" font-family="Ubuntu Mono" font-size="10.00">+</text>
<text text-anchor="start" x="323" y="-755" font-family="Ubuntu Mono" font-size="10.00">data()</text>
<text text-anchor="start" x="310" y="-740" font-family="Ubuntu Mono" font-size="10.00">+</text>
<text text-anchor="start" x="323" y="-740" font-family="Ubuntu Mono" font-size="10.00">digestMessages()</text>
<text text-anchor="start" x="310" y="-725" font-family="Ubuntu Mono" font-size="10.00">+</text>
<text text-anchor="start" x="323" y="-725" font-family="Ubuntu Mono" font-size="10.00">dropAllMsgsFromSrc()</text>
<text text-anchor="start" x="310" y="-710" font-family="Ubuntu Mono" font-size="10.00">+</text>
<text text-anchor="start" x="323" y="-710" font-family="Ubuntu Mono" font-size="10.00">dropMsg()</text>
<text text-anchor="start" x="323" y="-695" font-family="Ubuntu Mono" font-size="10.00">and 44 more...</text>
<text text-anchor="start" x="310" y="-680" font-family="Ubuntu Mono" font-size="10.00">+</text>
<text text-anchor="start" x="323" y="-680" font-family="Ubuntu Mono" font-size="10.00">destroyElementTree()</text>
<text text-anchor="start" x="312.5" y="-665" font-family="Ubuntu Mono" font-size="10.00">&#45;</text>
<text text-anchor="start" x="323" y="-665" font-family="Ubuntu Mono" font-size="10.00">getInputs()</text>
<text text-anchor="start" x="312.5" y="-650" font-family="Ubuntu Mono" font-size="10.00">&#45;</text>
<text text-anchor="start" x="323" y="-650" font-family="Ubuntu Mono" font-size="10.00">getOutputs()</text>
<polygon fill="#666666" stroke="#666666" points="306,-960 306,-960 435,-960 435,-960 306,-960"/>
<polygon fill="#666666" stroke="#666666" points="306,-855 306,-855 321,-855 321,-855 306,-855"/>
<polygon fill="#666666" stroke="#666666" points="321,-855 321,-855 435,-855 435,-855 321,-855"/>
<polygon fill="none" stroke="#666666" points="305.5,-643 305.5,-977 434.5,-977 434.5,-643 305.5,-643"/>
</a>
</g>
</g>
<!-- Node4&#45;&gt;Node5 -->
<g id="edge5_Node000005_Node000004" class="edge">
<title>Node4&#45;&gt;Node5</title>
<g id="a_edge5_Node000005_Node000004"><a xlink:title=" ">
<path fill="none" stroke="#63b8ff" d="M218.03,-1138.21C242.4,-1088.98 271.04,-1030.32 296,-977 297.39,-974.02 298.8,-971.01 300.21,-967.97"/>
<polygon fill="none" stroke="#63b8ff" points="300.3,-967.78 299.18,-960.66 305.33,-956.89 306.45,-964.01 300.3,-967.78"/>
</a>
</g>
<text text-anchor="middle" x="297" y="-998" font-family="Ubuntu Mono" font-size="10.00" fill="grey"> &#45;id_</text>
</g>
<!-- Node5&#45;&gt;Node2 -->
<g id="edge4_Node000002_Node000005" class="edge">
<title>Node5&#45;&gt;Node2</title>
<g id="a_edge4_Node000002_Node000005"><a xlink:title=" ">
<path fill="none" stroke="#63b8ff" d="M305.38,-659.79C302.31,-654.07 299.17,-648.45 296,-643 270.92,-599.91 238.76,-555.04 210.32,-517.97"/>
<polygon fill="none" stroke="#63b8ff" points="210.13,-517.72 203.3,-515.42 202.8,-508.23 209.63,-510.53 210.13,-517.72"/>
</a>
</g>
<text text-anchor="middle" x="300.5" y="-617" font-family="Ubuntu Mono" font-size="10.00" fill="grey"> #e1_</text>
<text text-anchor="middle" x="300.5" y="-606" font-family="Ubuntu Mono" font-size="10.00" fill="grey">#e2_</text>
</g>
<!-- Node6 -->
<g id="Node000006" class="node">
<title>Node6</title>
<g id="a_Node000006"><a xlink:href="classCinfo.html" target="_top" xlink:title=" ">
<polygon fill="white" stroke="transparent" points="433.5,-1478 306.5,-1478 306.5,-1024 433.5,-1024 433.5,-1478"/>
<text text-anchor="start" x="357.5" y="-1466" font-family="Ubuntu Mono" font-size="10.00">Cinfo</text>
<text text-anchor="start" x="313.5" y="-1451" font-family="Ubuntu Mono" font-size="10.00">&#45;</text>
<text text-anchor="start" x="324" y="-1451" font-family="Ubuntu Mono" font-size="10.00">banCreation_</text>
<text text-anchor="start" x="313.5" y="-1436" font-family="Ubuntu Mono" font-size="10.00">&#45;</text>
<text text-anchor="start" x="324" y="-1436" font-family="Ubuntu Mono" font-size="10.00">destFinfos_</text>
<text text-anchor="start" x="313.5" y="-1421" font-family="Ubuntu Mono" font-size="10.00">&#45;</text>
<text text-anchor="start" x="324" y="-1421" font-family="Ubuntu Mono" font-size="10.00">fieldElementFinfos_</text>
<text text-anchor="start" x="313.5" y="-1406" font-family="Ubuntu Mono" font-size="10.00">&#45;</text>
<text text-anchor="start" x="324" y="-1406" font-family="Ubuntu Mono" font-size="10.00">finfoMap_</text>
<text text-anchor="start" x="313.5" y="-1391" font-family="Ubuntu Mono" font-size="10.00">&#45;</text>
<text text-anchor="start" x="324" y="-1391" font-family="Ubuntu Mono" font-size="10.00">funcs_</text>
<text text-anchor="start" x="313.5" y="-1376" font-family="Ubuntu Mono" font-size="10.00">&#45;</text>
<text text-anchor="start" x="324" y="-1376" font-family="Ubuntu Mono" font-size="10.00">lookupFinfos_</text>
<text text-anchor="start" x="313.5" y="-1361" font-family="Ubuntu Mono" font-size="10.00">&#45;</text>
<text text-anchor="start" x="324" y="-1361" font-family="Ubuntu Mono" font-size="10.00">name_</text>
<text text-anchor="start" x="313.5" y="-1346" font-family="Ubuntu Mono" font-size="10.00">&#45;</text>
<text text-anchor="start" x="324" y="-1346" font-family="Ubuntu Mono" font-size="10.00">numBindIndex_</text>
<text text-anchor="start" x="313.5" y="-1331" font-family="Ubuntu Mono" font-size="10.00">&#45;</text>
<text text-anchor="start" x="324" y="-1331" font-family="Ubuntu Mono" font-size="10.00">postCreationFinfos_</text>
<text text-anchor="start" x="313.5" y="-1316" font-family="Ubuntu Mono" font-size="10.00">&#45;</text>
<text text-anchor="start" x="324" y="-1316" font-family="Ubuntu Mono" font-size="10.00">sharedFinfos_</text>
<text text-anchor="start" x="313.5" y="-1301" font-family="Ubuntu Mono" font-size="10.00">&#45;</text>
<text text-anchor="start" x="324" y="-1301" font-family="Ubuntu Mono" font-size="10.00">srcFinfos_</text>
<text text-anchor="start" x="313.5" y="-1286" font-family="Ubuntu Mono" font-size="10.00">&#45;</text>
<text text-anchor="start" x="324" y="-1286" font-family="Ubuntu Mono" font-size="10.00">valueFinfos_</text>
<text text-anchor="start" x="313.5" y="-1271" font-family="Ubuntu Mono" font-size="10.00">&#45;</text>
<text text-anchor="start" x="324" y="-1271" font-family="Ubuntu Mono" font-size="10.00">numCoreOpFunc_</text>
<text text-anchor="start" x="311" y="-1256" font-family="Ubuntu Mono" font-size="10.00">+</text>
<text text-anchor="start" x="324" y="-1256" font-family="Ubuntu Mono" font-size="10.00">banCreation()</text>
<text text-anchor="start" x="311" y="-1241" font-family="Ubuntu Mono" font-size="10.00">+</text>
<text text-anchor="start" x="324" y="-1241" font-family="Ubuntu Mono" font-size="10.00">baseCinfo()</text>
<text text-anchor="start" x="311" y="-1226" font-family="Ubuntu Mono" font-size="10.00">+</text>
<text text-anchor="start" x="324" y="-1226" font-family="Ubuntu Mono" font-size="10.00">Cinfo()</text>
<text text-anchor="start" x="311" y="-1211" font-family="Ubuntu Mono" font-size="10.00">+</text>
<text text-anchor="start" x="324" y="-1211" font-family="Ubuntu Mono" font-size="10.00">Cinfo()</text>
<text text-anchor="start" x="311" y="-1196" font-family="Ubuntu Mono" font-size="10.00">+</text>
<text text-anchor="start" x="324" y="-1196" font-family="Ubuntu Mono" font-size="10.00">Cinfo()</text>
<text text-anchor="start" x="311" y="-1181" font-family="Ubuntu Mono" font-size="10.00">+</text>
<text text-anchor="start" x="324" y="-1181" font-family="Ubuntu Mono" font-size="10.00">destFinfoName()</text>
<text text-anchor="start" x="311" y="-1166" font-family="Ubuntu Mono" font-size="10.00">+</text>
<text text-anchor="start" x="324" y="-1166" font-family="Ubuntu Mono" font-size="10.00">dinfo()</text>
<text text-anchor="start" x="311" y="-1151" font-family="Ubuntu Mono" font-size="10.00">+</text>
<text text-anchor="start" x="324" y="-1151" font-family="Ubuntu Mono" font-size="10.00">findFinfo()</text>
<text text-anchor="start" x="311" y="-1136" font-family="Ubuntu Mono" font-size="10.00">+</text>
<text text-anchor="start" x="324" y="-1136" font-family="Ubuntu Mono" font-size="10.00">findFinfoWrapper()</text>
<text text-anchor="start" x="311" y="-1121" font-family="Ubuntu Mono" font-size="10.00">+</text>
<text text-anchor="start" x="324" y="-1121" font-family="Ubuntu Mono" font-size="10.00">finfoMap()</text>
<text text-anchor="start" x="324" y="-1106" font-family="Ubuntu Mono" font-size="10.00">and 31 more...</text>
<text text-anchor="start" x="311" y="-1091" font-family="Ubuntu Mono" font-size="10.00">+</text>
<text text-anchor="start" x="324" y="-1091" font-family="Ubuntu Mono" font-size="10.00">find()</text>
<text text-anchor="start" x="311" y="-1076" font-family="Ubuntu Mono" font-size="10.00">+</text>
<text text-anchor="start" x="324" y="-1076" font-family="Ubuntu Mono" font-size="10.00">initCinfo()</text>
<text text-anchor="start" x="311" y="-1061" font-family="Ubuntu Mono" font-size="10.00">+</text>
<text text-anchor="start" x="324" y="-1061" font-family="Ubuntu Mono" font-size="10.00">makeCinfoElements()</text>
<text text-anchor="start" x="311" y="-1046" font-family="Ubuntu Mono" font-size="10.00">+</text>
<text text-anchor="start" x="324" y="-1046" font-family="Ubuntu Mono" font-size="10.00">rebuildOpIndex()</text>
<text text-anchor="start" x="313.5" y="-1031" font-family="Ubuntu Mono" font-size="10.00">&#45;</text>
<text text-anchor="start" x="324" y="-1031" font-family="Ubuntu Mono" font-size="10.00">cinfoMap()</text>
<polygon fill="#666666" stroke="#666666" points="307,-1461 307,-1461 434,-1461 434,-1461 307,-1461"/>
<polygon fill="#666666" stroke="#666666" points="307,-1266 307,-1266 322,-1266 322,-1266 307,-1266"/>
<polygon fill="#666666" stroke="#666666" points="322,-1266 322,-1266 434,-1266 434,-1266 322,-1266"/>
<polygon fill="none" stroke="#666666" points="306.5,-1024 306.5,-1478 433.5,-1478 433.5,-1024 306.5,-1024"/>
</a>
</g>
</g>
<!-- Node6&#45;&gt;Node5 -->
<g id="edge6_Node000005_Node000006" class="edge">
<title>Node6&#45;&gt;Node5</title>
<g id="a_edge6_Node000005_Node000006"><a xlink:title=" ">
<path fill="none" stroke="#63b8ff" d="M370,-1023.75C370,-1012.27 370,-1000.81 370,-989.5"/>
<polygon fill="none" stroke="#63b8ff" points="370,-989.3 366,-983.3 370,-977.3 374,-983.3 370,-989.3"/>
</a>
</g>
<text text-anchor="middle" x="388.5" y="-998" font-family="Ubuntu Mono" font-size="10.00" fill="grey"> &#45;cinfo_</text>
</g>
<!-- Node6&#45;&gt;Node6 -->
<g id="edge7_Node000006_Node000006" class="edge">
<title>Node6&#45;&gt;Node6</title>
<g id="a_edge7_Node000006_Node000006"><a xlink:title=" ">
<path fill="none" stroke="#63b8ff" d="M433.56,-1294.57C444.17,-1288.47 451.5,-1273.95 451.5,-1251 451.5,-1235.22 448.04,-1223.43 442.42,-1215.62"/>
<polygon fill="none" stroke="#63b8ff" points="442.38,-1215.57 435.25,-1214.44 433.56,-1207.43 440.68,-1208.56 442.38,-1215.57"/>
</a>
</g>
<text text-anchor="middle" x="482" y="-1248.5" font-family="Ubuntu Mono" font-size="10.00" fill="grey"> &#45;baseCinfo_</text>
</g>
<!-- Node7 -->
<g id="Node000007" class="node">
<title>Node7</title>
<g id="a_Node000007"><a xlink:href="classDinfoBase.html" target="_top" xlink:title=" ">
<polygon fill="white" stroke="transparent" points="373,-1724 275,-1724 275,-1525 373,-1525 373,-1724"/>
<text text-anchor="start" x="298.5" y="-1711.5" font-family="Ubuntu Mono" font-size="10.00">DinfoBase</text>
<text text-anchor="start" x="281.5" y="-1696.5" font-family="Ubuntu Mono" font-size="10.00">&#45;</text>
<text text-anchor="start" x="292" y="-1696.5" font-family="Ubuntu Mono" font-size="10.00">isOneZombie_</text>
<text text-anchor="start" x="279" y="-1681.5" font-family="Ubuntu Mono" font-size="10.00">+</text>
<text text-anchor="start" x="292" y="-1681.5" font-family="Ubuntu Mono" font-size="10.00">allocData()</text>
<text text-anchor="start" x="279" y="-1666.5" font-family="Ubuntu Mono" font-size="10.00">+</text>
<text text-anchor="start" x="292" y="-1666.5" font-family="Ubuntu Mono" font-size="10.00">assignData()</text>
<text text-anchor="start" x="279" y="-1651.5" font-family="Ubuntu Mono" font-size="10.00">+</text>
<text text-anchor="start" x="292" y="-1651.5" font-family="Ubuntu Mono" font-size="10.00">copyData()</text>
<text text-anchor="start" x="279" y="-1636.5" font-family="Ubuntu Mono" font-size="10.00">+</text>
<text text-anchor="start" x="292" y="-1636.5" font-family="Ubuntu Mono" font-size="10.00">destroyData()</text>
<text text-anchor="start" x="279" y="-1621.5" font-family="Ubuntu Mono" font-size="10.00">+</text>
<text text-anchor="start" x="292" y="-1621.5" font-family="Ubuntu Mono" font-size="10.00">DinfoBase()</text>
<text text-anchor="start" x="279" y="-1606.5" font-family="Ubuntu Mono" font-size="10.00">+</text>
<text text-anchor="start" x="292" y="-1606.5" font-family="Ubuntu Mono" font-size="10.00">DinfoBase()</text>
<text text-anchor="start" x="279" y="-1591.5" font-family="Ubuntu Mono" font-size="10.00">+</text>
<text text-anchor="start" x="292" y="-1591.5" font-family="Ubuntu Mono" font-size="10.00">isA()</text>
<text text-anchor="start" x="279" y="-1576.5" font-family="Ubuntu Mono" font-size="10.00">+</text>
<text text-anchor="start" x="292" y="-1576.5" font-family="Ubuntu Mono" font-size="10.00">isOneZombie()</text>
<text text-anchor="start" x="279" y="-1561.5" font-family="Ubuntu Mono" font-size="10.00">+</text>
<text text-anchor="start" x="292" y="-1561.5" font-family="Ubuntu Mono" font-size="10.00">size()</text>
<text text-anchor="start" x="279" y="-1546.5" font-family="Ubuntu Mono" font-size="10.00">+</text>
<text text-anchor="start" x="292" y="-1546.5" font-family="Ubuntu Mono" font-size="10.00">sizeIncrement()</text>
<text text-anchor="start" x="279" y="-1531.5" font-family="Ubuntu Mono" font-size="10.00">+</text>
<text text-anchor="start" x="292" y="-1531.5" font-family="Ubuntu Mono" font-size="10.00">~DinfoBase()</text>
<polygon fill="#666666" stroke="#666666" points="275,-1706.5 275,-1706.5 373,-1706.5 373,-1706.5 275,-1706.5"/>
<polygon fill="#666666" stroke="#666666" points="275,-1691.5 275,-1691.5 290,-1691.5 290,-1691.5 275,-1691.5"/>
<polygon fill="#666666" stroke="#666666" points="290,-1691.5 290,-1691.5 373,-1691.5 373,-1691.5 290,-1691.5"/>
<polygon fill="none" stroke="#666666" points="275,-1525 275,-1724 373,-1724 373,-1525 275,-1525"/>
</a>
</g>
</g>
<!-- Node7&#45;&gt;Node6 -->
<g id="edge8_Node000006_Node000007" class="edge">
<title>Node7&#45;&gt;Node6</title>
<g id="a_edge8_Node000006_Node000007"><a xlink:title=" ">
<path fill="none" stroke="#63b8ff" d="M336.21,-1524.92C337.58,-1513.8 339.03,-1502.13 340.51,-1490.15"/>
<polygon fill="none" stroke="#63b8ff" points="340.53,-1489.98 337.3,-1483.54 342.01,-1478.07 345.24,-1484.52 340.53,-1489.98"/>
</a>
</g>
<text text-anchor="middle" x="357.5" y="-1499" font-family="Ubuntu Mono" font-size="10.00" fill="grey"> &#45;dinfo_</text>
</g>
<!-- Node8 -->
<g id="Node000008" class="node">
<title>Node8</title>
<g id="a_Node000008"><a xlink:title=" ">
<polygon fill="white" stroke="transparent" points="507,-1654.5 391,-1654.5 391,-1594.5 507,-1594.5 507,-1654.5"/>
<text text-anchor="start" x="396" y="-1642.5" font-family="Ubuntu Mono" font-size="10.00">std::map&lt; std::string,</text>
<text text-anchor="start" x="417" y="-1631.5" font-family="Ubuntu Mono" font-size="10.00"> std::string &gt;</text>
<text text-anchor="start" x="447" y="-1616.5" font-family="Ubuntu Mono" font-size="10.00"> </text>
<text text-anchor="start" x="447" y="-1601.5" font-family="Ubuntu Mono" font-size="10.00"> </text>
<polygon fill="#666666" stroke="#666666" points="391,-1626.5 391,-1626.5 507,-1626.5 507,-1626.5 391,-1626.5"/>
<polygon fill="#666666" stroke="#666666" points="391,-1611.5 391,-1611.5 507,-1611.5 507,-1611.5 391,-1611.5"/>
<polygon fill="none" stroke="#666666" points="391,-1594.5 391,-1654.5 507,-1654.5 507,-1594.5 391,-1594.5"/>
</a>
</g>
</g>
<!-- Node8&#45;&gt;Node6 -->
<g id="edge9_Node000006_Node000008" class="edge">
<title>Node8&#45;&gt;Node6</title>
<g id="a_edge9_Node000006_Node000008"><a xlink:title=" ">
<path fill="none" stroke="#63b8ff" d="M442.8,-1594.35C437.56,-1569.72 429.52,-1531.88 420.65,-1490.2"/>
<polygon fill="none" stroke="#63b8ff" points="420.63,-1490.08 415.47,-1485.05 418.13,-1478.35 423.29,-1483.38 420.63,-1490.08"/>
</a>
</g>
<text text-anchor="middle" x="439" y="-1499" font-family="Ubuntu Mono" font-size="10.00" fill="grey"> &#45;doc_</text>
</g>
<!-- Node9 -->
<g id="Node000009" class="node">
<title>Node9</title>
<g id="a_Node000009"><a xlink:title=" ">
<polygon fill="white" stroke="transparent" points="429.5,-1831 370.5,-1831 370.5,-1782 429.5,-1782 429.5,-1831"/>
<text text-anchor="start" x="376" y="-1818.5" font-family="Ubuntu Mono" font-size="10.00">std::string</text>
<text text-anchor="start" x="398.5" y="-1803.5" font-family="Ubuntu Mono" font-size="10.00"> </text>
<text text-anchor="start" x="398.5" y="-1788.5" font-family="Ubuntu Mono" font-size="10.00"> </text>
<polygon fill="#666666" stroke="#666666" points="371,-1813.5 371,-1813.5 430,-1813.5 430,-1813.5 371,-1813.5"/>
<polygon fill="#666666" stroke="#666666" points="371,-1798.5 371,-1798.5 430,-1798.5 430,-1798.5 371,-1798.5"/>
<polygon fill="none" stroke="#666666" points="370.5,-1782 370.5,-1831 429.5,-1831 429.5,-1782 370.5,-1782"/>
</a>
</g>
</g>
<!-- Node9&#45;&gt;Node8 -->
<g id="edge10_Node000008_Node000009" class="edge">
<title>Node9&#45;&gt;Node8</title>
<g id="a_edge10_Node000008_Node000009"><a xlink:title=" ">
<path fill="none" stroke="#63b8ff" d="M406.26,-1781.97C409.46,-1770 413.42,-1755.22 417,-1742 423.81,-1716.89 431.53,-1688.77 437.68,-1666.44"/>
<polygon fill="none" stroke="#63b8ff" points="437.73,-1666.26 435.47,-1659.41 440.93,-1654.69 443.19,-1661.54 437.73,-1666.26"/>
</a>
</g>
<text text-anchor="middle" x="446" y="-1756" font-family="Ubuntu Mono" font-size="10.00" fill="grey"> +elements</text>
<text text-anchor="middle" x="446" y="-1745" font-family="Ubuntu Mono" font-size="10.00" fill="grey">+keys</text>
</g>
<!-- Node10 -->
<g id="Node000010" class="node">
<title>Node10</title>
<g id="a_Node000010"><a xlink:title=" ">
<polygon fill="white" stroke="transparent" points="449,-1938 351,-1938 351,-1878 449,-1878 449,-1938"/>
<text text-anchor="start" x="356" y="-1926" font-family="Ubuntu Mono" font-size="10.00">std::basic_string&lt;</text>
<text text-anchor="start" x="381.5" y="-1915" font-family="Ubuntu Mono" font-size="10.00"> Char &gt;</text>
<text text-anchor="start" x="398" y="-1900" font-family="Ubuntu Mono" font-size="10.00"> </text>
<text text-anchor="start" x="398" y="-1885" font-family="Ubuntu Mono" font-size="10.00"> </text>
<polygon fill="#666666" stroke="#666666" points="351,-1910 351,-1910 449,-1910 449,-1910 351,-1910"/>
<polygon fill="#666666" stroke="#666666" points="351,-1895 351,-1895 449,-1895 449,-1895 351,-1895"/>
<polygon fill="none" stroke="#666666" points="351,-1878 351,-1938 449,-1938 449,-1878 351,-1878"/>
</a>
</g>
</g>
<!-- Node10&#45;&gt;Node9 -->
<g id="edge11_Node000009_Node000010" class="edge">
<title>Node10&#45;&gt;Node9</title>
<g id="a_edge11_Node000009_Node000010"><a xlink:title=" ">
<path fill="none" stroke="#63b8ff" d="M400,-1867.8C400,-1855.38 400,-1842.03 400,-1831.06"/>
<polygon fill="none" stroke="#63b8ff" points="396.5,-1867.95 400,-1877.95 403.5,-1867.95 396.5,-1867.95"/>
</a>
</g>
</g>
<!-- Node11 -->
<g id="Node000011" class="node">
<title>Node11</title>
<g id="a_Node000011"><a xlink:title=" ">
<polygon fill="white" stroke="transparent" points="542.5,-1831 447.5,-1831 447.5,-1782 542.5,-1782 542.5,-1831"/>
<text text-anchor="start" x="453" y="-1818.5" font-family="Ubuntu Mono" font-size="10.00">std::map&lt; K, T &gt;</text>
<text text-anchor="start" x="493.5" y="-1803.5" font-family="Ubuntu Mono" font-size="10.00"> </text>
<text text-anchor="start" x="493.5" y="-1788.5" font-family="Ubuntu Mono" font-size="10.00"> </text>
<polygon fill="#666666" stroke="#666666" points="448,-1813.5 448,-1813.5 543,-1813.5 543,-1813.5 448,-1813.5"/>
<polygon fill="#666666" stroke="#666666" points="448,-1798.5 448,-1798.5 543,-1798.5 543,-1798.5 448,-1798.5"/>
<polygon fill="none" stroke="#666666" points="447.5,-1782 447.5,-1831 542.5,-1831 542.5,-1782 447.5,-1782"/>
</a>
</g>
</g>
<!-- Node11&#45;&gt;Node8 -->
<g id="edge12_Node000008_Node000011" class="edge">
<title>Node11&#45;&gt;Node8</title>
<g id="a_edge12_Node000008_Node000011"><a xlink:title=" ">
<path fill="none" stroke="orange" d="M486.47,-1772.12C477.85,-1738.41 464.68,-1686.84 456.46,-1654.7"/>
<polygon fill="orange" stroke="orange" points="483.12,-1773.15 488.99,-1781.97 489.9,-1771.41 483.12,-1773.15"/>
</a>
</g>
<text text-anchor="start" x="484" y="-1756" font-family="Ubuntu Mono" font-size="10.00" fill="grey"> &lt; std::string, std</text>
<text text-anchor="middle" x="526.5" y="-1745" font-family="Ubuntu Mono" font-size="10.00" fill="grey">::string &gt;</text>
</g>
<!-- Node12 -->
<g id="Node000012" class="node">
<title>Node12</title>
<g id="a_Node000012"><a xlink:title=" ">
<polygon fill="white" stroke="transparent" points="493.5,-1932.5 476.5,-1932.5 476.5,-1883.5 493.5,-1883.5 493.5,-1932.5"/>
<text text-anchor="start" x="482" y="-1920" font-family="Ubuntu Mono" font-size="10.00">K</text>
<text text-anchor="start" x="483.5" y="-1905" font-family="Ubuntu Mono" font-size="10.00"> </text>
<text text-anchor="start" x="483.5" y="-1890" font-family="Ubuntu Mono" font-size="10.00"> </text>
<polygon fill="#666666" stroke="#666666" points="477,-1915 477,-1915 494,-1915 494,-1915 477,-1915"/>
<polygon fill="#666666" stroke="#666666" points="477,-1900 477,-1900 494,-1900 494,-1900 477,-1900"/>
<polygon fill="none" stroke="#666666" points="476.5,-1883.5 476.5,-1932.5 493.5,-1932.5 493.5,-1883.5 476.5,-1883.5"/>
</a>
</g>
</g>
<!-- Node12&#45;&gt;Node11 -->
<g id="edge13_Node000011_Node000012" class="edge">
<title>Node12&#45;&gt;Node11</title>
<g id="a_edge13_Node000011_Node000012"><a xlink:title=" ">
<path fill="none" stroke="#63b8ff" d="M484.36,-1883.23C484.35,-1872.71 484.7,-1860.2 486,-1849 486.22,-1847.08 486.49,-1845.11 486.8,-1843.14"/>
<polygon fill="none" stroke="#63b8ff" points="486.85,-1842.86 484.02,-1836.23 489.05,-1831.07 491.88,-1837.7 486.85,-1842.86"/>
</a>
</g>
<text text-anchor="middle" x="503" y="-1852" font-family="Ubuntu Mono" font-size="10.00" fill="grey"> +keys</text>
</g>
<!-- Node13 -->
<g id="Node000013" class="node">
<title>Node13</title>
<g id="a_Node000013"><a xlink:title=" ">
<polygon fill="white" stroke="transparent" points="550.5,-1932.5 533.5,-1932.5 533.5,-1883.5 550.5,-1883.5 550.5,-1932.5"/>
<text text-anchor="start" x="539" y="-1920" font-family="Ubuntu Mono" font-size="10.00">T</text>
<text text-anchor="start" x="540.5" y="-1905" font-family="Ubuntu Mono" font-size="10.00"> </text>
<text text-anchor="start" x="540.5" y="-1890" font-family="Ubuntu Mono" font-size="10.00"> </text>
<polygon fill="#666666" stroke="#666666" points="534,-1915 534,-1915 551,-1915 551,-1915 534,-1915"/>
<polygon fill="#666666" stroke="#666666" points="534,-1900 534,-1900 551,-1900 551,-1900 534,-1900"/>
<polygon fill="none" stroke="#666666" points="533.5,-1883.5 533.5,-1932.5 550.5,-1932.5 550.5,-1883.5 533.5,-1883.5"/>
</a>
</g>
</g>
<!-- Node13&#45;&gt;Node11 -->
<g id="edge14_Node000011_Node000013" class="edge">
<title>Node13&#45;&gt;Node11</title>
<g id="a_edge14_Node000011_Node000013"><a xlink:title=" ">
<path fill="none" stroke="#63b8ff" d="M534.16,-1883.45C530.32,-1872.75 525.37,-1860.04 520,-1849 518.84,-1846.6 517.58,-1844.16 516.26,-1841.73"/>
<polygon fill="none" stroke="#63b8ff" points="516.22,-1841.66 509.78,-1838.42 510.29,-1831.23 516.74,-1834.47 516.22,-1841.66"/>
</a>
</g>
<text text-anchor="middle" x="554" y="-1852" font-family="Ubuntu Mono" font-size="10.00" fill="grey"> +elements</text>
</g>
</g>
</svg>
