<?xml version="1.0" encoding="UTF-8" standalone="no"?>
<!DOCTYPE svg PUBLIC "-//W3C//DTD SVG 1.1//EN"
 "http://www.w3.org/Graphics/SVG/1.1/DTD/svg11.dtd">
<!-- Generated by graphviz version 2.43.0 (0)
 -->
<!-- Title: Stoich::getRateTerms Pages: 1 -->
<svg width="778pt" height="285pt"
 viewBox="0.00 0.00 778.00 285.00" xmlns="http://www.w3.org/2000/svg" xmlns:xlink="http://www.w3.org/1999/xlink">
<g id="graph0" class="graph" transform="scale(1 1) rotate(0) translate(4 281)">
<title>Stoich::getRateTerms</title>
<!-- Node1 -->
<g id="Node000001" class="node">
<title>Node1</title>
<g id="a_Node000001"><a xlink:title="Returns a reference to the entire rates_ vector.">
<polygon fill="#999999" stroke="#666666" points="770,-148 650,-148 650,-129 770,-129 770,-148"/>
<text text-anchor="middle" x="710" y="-136" font-family="Ubuntu Mono" font-size="10.00">Stoich::getRateTerms</text>
</a>
</g>
</g>
<!-- Node2 -->
<g id="Node000002" class="node">
<title>Node2</title>
<g id="a_Node000002"><a xlink:href="classGsolve.html#ad15ab23459af91a514ab945914a639ea" target="_top" xlink:title=" ">
<polygon fill="white" stroke="#666666" points="614,-277 454,-277 454,-258 614,-258 614,-277"/>
<text text-anchor="middle" x="534" y="-265" font-family="Ubuntu Mono" font-size="10.00">Gsolve::fillIncrementFuncDep</text>
</a>
</g>
</g>
<!-- Node1&#45;&gt;Node2 -->
<g id="edge1_Node000001_Node000002" class="edge">
<title>Node1&#45;&gt;Node2</title>
<g id="a_edge1_Node000001_Node000002"><a xlink:title=" ">
<path fill="none" stroke="#63b8ff" d="M697.34,-156.55C681.31,-179.95 650.29,-220.49 614,-243.5 604.19,-249.72 592.69,-254.4 581.53,-257.9"/>
<polygon fill="#63b8ff" stroke="#63b8ff" points="700.26,-158.47 702.91,-148.21 694.44,-154.58 700.26,-158.47"/>
</a>
</g>
</g>
<!-- Node3 -->
<g id="Node000003" class="node">
<title>Node3</title>
<g id="a_Node000003"><a xlink:href="classGsolve.html#a20e6c958da9b8a188b3ae503adfc0a36" target="_top" xlink:title=" ">
<polygon fill="white" stroke="#666666" points="418,-239 267,-239 267,-220 418,-220 418,-239"/>
<text text-anchor="middle" x="342.5" y="-227" font-family="Ubuntu Mono" font-size="10.00">Gsolve::rebuildGssaSystem</text>
</a>
</g>
</g>
<!-- Node1&#45;&gt;Node3 -->
<g id="edge5_Node000001_Node000003" class="edge">
<title>Node1&#45;&gt;Node3</title>
<g id="a_edge5_Node000001_Node000003"><a xlink:title=" ">
<path fill="none" stroke="#63b8ff" d="M693.01,-155.4C675.47,-172.68 645.58,-198.64 614,-210.5 550.98,-234.17 473.96,-237.33 418.25,-235.5"/>
<polygon fill="#63b8ff" stroke="#63b8ff" points="695.63,-157.72 700.16,-148.15 690.65,-152.81 695.63,-157.72"/>
</a>
</g>
</g>
<!-- Node6 -->
<g id="Node000006" class="node">
<title>Node6</title>
<g id="a_Node000006"><a xlink:href="classVoxelPoolsBase.html#a836b1e7b77b9be1016061a28022800b2" target="_top" xlink:title=" ">
<polygon fill="white" stroke="#666666" points="606.5,-201.5 461.5,-201.5 461.5,-171.5 606.5,-171.5 606.5,-201.5"/>
<text text-anchor="start" x="469.5" y="-189.5" font-family="Ubuntu Mono" font-size="10.00">VoxelPoolsBase::scaleVols</text>
<text text-anchor="middle" x="534" y="-178.5" font-family="Ubuntu Mono" font-size="10.00">BufsRates</text>
</a>
</g>
</g>
<!-- Node1&#45;&gt;Node6 -->
<g id="edge6_Node000001_Node000006" class="edge">
<title>Node1&#45;&gt;Node6</title>
<g id="a_edge6_Node000001_Node000006"><a xlink:title=" ">
<path fill="none" stroke="#63b8ff" d="M664.45,-150.79C641.65,-157.08 613.69,-164.79 589.6,-171.44"/>
<polygon fill="#63b8ff" stroke="#63b8ff" points="665.5,-154.13 674.21,-148.1 663.64,-147.38 665.5,-154.13"/>
</a>
</g>
</g>
<!-- Node9 -->
<g id="Node000009" class="node">
<title>Node9</title>
<g id="a_Node000009"><a xlink:href="classGssaVoxelPools.html#a1a4ecc59c4d07dfb139574c44d74196f" target="_top" xlink:title=" ">
<polygon fill="white" stroke="#666666" points="609.5,-153.5 458.5,-153.5 458.5,-123.5 609.5,-123.5 609.5,-153.5"/>
<text text-anchor="start" x="466.5" y="-141.5" font-family="Ubuntu Mono" font-size="10.00">GssaVoxelPools::setVolume</text>
<text text-anchor="middle" x="534" y="-130.5" font-family="Ubuntu Mono" font-size="10.00">AndDependencies</text>
</a>
</g>
</g>
<!-- Node1&#45;&gt;Node9 -->
<g id="edge9_Node000001_Node000009" class="edge">
<title>Node1&#45;&gt;Node9</title>
<g id="a_edge9_Node000001_Node000009"><a xlink:title=" ">
<path fill="none" stroke="#63b8ff" d="M639.47,-138.5C629.62,-138.5 619.46,-138.5 609.51,-138.5"/>
<polygon fill="#63b8ff" stroke="#63b8ff" points="639.61,-142 649.61,-138.5 639.61,-135 639.61,-142"/>
</a>
</g>
</g>
<!-- Node11 -->
<g id="Node000011" class="node">
<title>Node11</title>
<g id="a_Node000011"><a xlink:href="classVoxelPools.html#afe65f03338ce56fdcd4bdc506fa65baf" target="_top" xlink:title="Handles volume change and subsequent cascading updates.">
<polygon fill="white" stroke="#666666" points="607,-67.5 461,-67.5 461,-37.5 607,-37.5 607,-67.5"/>
<text text-anchor="start" x="469" y="-55.5" font-family="Ubuntu Mono" font-size="10.00">VoxelPools::setVolumeAnd</text>
<text text-anchor="middle" x="534" y="-44.5" font-family="Ubuntu Mono" font-size="10.00">Dependencies</text>
</a>
</g>
</g>
<!-- Node1&#45;&gt;Node11 -->
<g id="edge12_Node000001_Node000011" class="edge">
<title>Node1&#45;&gt;Node11</title>
<g id="a_edge12_Node000001_Node000011"><a xlink:title=" ">
<path fill="none" stroke="#63b8ff" d="M688.74,-122.83C670.15,-109.07 641.43,-89.3 614,-76.5 606.99,-73.23 599.42,-70.27 591.84,-67.63"/>
<polygon fill="#63b8ff" stroke="#63b8ff" points="686.67,-125.65 696.76,-128.87 690.88,-120.06 686.67,-125.65"/>
</a>
</g>
</g>
<!-- Node14 -->
<g id="Node000014" class="node">
<title>Node14</title>
<g id="a_Node000014"><a xlink:href="classGsolve.html#a921766c55ce81931a99d04e891c13dee" target="_top" xlink:title=" ">
<polygon fill="white" stroke="#666666" points="605,-105 463,-105 463,-86 605,-86 605,-105"/>
<text text-anchor="middle" x="534" y="-93" font-family="Ubuntu Mono" font-size="10.00">Gsolve::updateRateTerms</text>
</a>
</g>
</g>
<!-- Node1&#45;&gt;Node14 -->
<g id="edge15_Node000001_Node000014" class="edge">
<title>Node1&#45;&gt;Node14</title>
<g id="a_edge15_Node000001_Node000014"><a xlink:title=" ">
<path fill="none" stroke="#63b8ff" d="M661.83,-126.47C646.58,-122.61 629.58,-118.34 614,-114.5 601.4,-111.39 587.65,-108.07 575.21,-105.08"/>
<polygon fill="#63b8ff" stroke="#63b8ff" points="661.02,-129.88 671.57,-128.94 662.74,-123.09 661.02,-129.88"/>
</a>
</g>
</g>
<!-- Node15 -->
<g id="Node000015" class="node">
<title>Node15</title>
<g id="a_Node000015"><a xlink:href="classKsolve.html#a7032139dace0251d41bcbc02f912759f" target="_top" xlink:title=" ">
<polygon fill="white" stroke="#666666" points="604.5,-19 463.5,-19 463.5,0 604.5,0 604.5,-19"/>
<text text-anchor="middle" x="534" y="-7" font-family="Ubuntu Mono" font-size="10.00">Ksolve::updateRateTerms</text>
</a>
</g>
</g>
<!-- Node1&#45;&gt;Node15 -->
<g id="edge17_Node000001_Node000015" class="edge">
<title>Node1&#45;&gt;Node15</title>
<g id="a_edge17_Node000001_Node000015"><a xlink:title=" ">
<path fill="none" stroke="#63b8ff" d="M698.23,-119.99C682.8,-95.21 652.05,-51.68 614,-28.5 607.62,-24.61 600.49,-21.52 593.2,-19.06"/>
<polygon fill="#63b8ff" stroke="#63b8ff" points="695.37,-122.03 703.54,-128.78 701.36,-118.41 695.37,-122.03"/>
</a>
</g>
</g>
<!-- Node2&#45;&gt;Node3 -->
<g id="edge2_Node000002_Node000003" class="edge">
<title>Node2&#45;&gt;Node3</title>
<g id="a_edge2_Node000002_Node000003"><a xlink:title=" ">
<path fill="none" stroke="#63b8ff" d="M475.11,-255.89C448.15,-250.49 416.49,-244.14 390.97,-239.02"/>
<polygon fill="#63b8ff" stroke="#63b8ff" points="474.69,-259.38 485.18,-257.91 476.06,-252.51 474.69,-259.38"/>
</a>
</g>
</g>
<!-- Node4 -->
<g id="Node000004" class="node">
<title>Node4</title>
<g id="a_Node000004"><a xlink:href="classGsolve.html#a65bd2d080e751fc5c26730742b526b0f" target="_top" xlink:title=" ">
<polygon fill="white" stroke="#666666" points="223.5,-236 141.5,-236 141.5,-217 223.5,-217 223.5,-236"/>
<text text-anchor="middle" x="182.5" y="-224" font-family="Ubuntu Mono" font-size="10.00">Gsolve::reinit</text>
</a>
</g>
</g>
<!-- Node3&#45;&gt;Node4 -->
<g id="edge3_Node000003_Node000004" class="edge">
<title>Node3&#45;&gt;Node4</title>
<g id="a_edge3_Node000003_Node000004"><a xlink:title=" ">
<path fill="none" stroke="#63b8ff" d="M256.57,-227.89C245.11,-227.67 233.82,-227.46 223.67,-227.26"/>
<polygon fill="#63b8ff" stroke="#63b8ff" points="256.6,-231.39 266.66,-228.08 256.73,-224.39 256.6,-231.39"/>
</a>
</g>
</g>
<!-- Node5 -->
<g id="Node000005" class="node">
<title>Node5</title>
<g id="a_Node000005"><a xlink:href="classGsolve.html#a957882fd0d9709d0bf6b8baf869330c5" target="_top" xlink:title=" ">
<polygon fill="white" stroke="#666666" points="98,-196 0,-196 0,-177 98,-177 98,-196"/>
<text text-anchor="middle" x="49" y="-184" font-family="Ubuntu Mono" font-size="10.00">Gsolve::initCinfo</text>
</a>
</g>
</g>
<!-- Node4&#45;&gt;Node5 -->
<g id="edge4_Node000004_Node000005" class="edge">
<title>Node4&#45;&gt;Node5</title>
<g id="a_edge4_Node000004_Node000005"><a xlink:title=" ">
<path fill="none" stroke="#63b8ff" d="M140.35,-213.98C121.26,-208.17 98.92,-201.38 81.24,-196"/>
<polygon fill="#63b8ff" stroke="#63b8ff" points="139.42,-217.36 150,-216.92 141.45,-210.66 139.42,-217.36"/>
</a>
</g>
</g>
<!-- Node7 -->
<g id="Node000007" class="node">
<title>Node7</title>
<g id="a_Node000007"><a xlink:href="classStoich.html#a7cc2e02786fe7253be61adf68c1a3ed5" target="_top" xlink:title="Used to handle run&#45;time size updates for spines.">
<polygon fill="white" stroke="#666666" points="415.5,-196 269.5,-196 269.5,-177 415.5,-177 415.5,-196"/>
<text text-anchor="middle" x="342.5" y="-184" font-family="Ubuntu Mono" font-size="10.00">Stoich::scaleBufsAndRates</text>
</a>
</g>
</g>
<!-- Node6&#45;&gt;Node7 -->
<g id="edge7_Node000006_Node000007" class="edge">
<title>Node6&#45;&gt;Node7</title>
<g id="a_edge7_Node000006_Node000007"><a xlink:title=" ">
<path fill="none" stroke="#63b8ff" d="M451.06,-186.5C439.25,-186.5 427.16,-186.5 415.56,-186.5"/>
<polygon fill="#63b8ff" stroke="#63b8ff" points="451.36,-190 461.36,-186.5 451.36,-183 451.36,-190"/>
</a>
</g>
</g>
<!-- Node8 -->
<g id="Node000008" class="node">
<title>Node8</title>
<g id="a_Node000008"><a xlink:href="classStoich.html#ad8c6117d11f46222476ef4a464ecdc09" target="_top" xlink:title=" ">
<polygon fill="white" stroke="#666666" points="229.5,-196 135.5,-196 135.5,-177 229.5,-177 229.5,-196"/>
<text text-anchor="middle" x="182.5" y="-184" font-family="Ubuntu Mono" font-size="10.00">Stoich::initCinfo</text>
</a>
</g>
</g>
<!-- Node7&#45;&gt;Node8 -->
<g id="edge8_Node000007_Node000008" class="edge">
<title>Node7&#45;&gt;Node8</title>
<g id="a_edge8_Node000007_Node000008"><a xlink:title=" ">
<path fill="none" stroke="#63b8ff" d="M259.28,-186.5C249.12,-186.5 239.03,-186.5 229.68,-186.5"/>
<polygon fill="#63b8ff" stroke="#63b8ff" points="259.44,-190 269.44,-186.5 259.44,-183 259.44,-190"/>
</a>
</g>
</g>
<!-- Node10 -->
<g id="Node000010" class="node">
<title>Node10</title>
<g id="a_Node000010"><a xlink:href="classGsolve.html#a0c9b99f7f533fd7a76be35c50cd572a9" target="_top" xlink:title=" ">
<polygon fill="white" stroke="#666666" points="408,-148 277,-148 277,-129 408,-129 408,-148"/>
<text text-anchor="middle" x="342.5" y="-136" font-family="Ubuntu Mono" font-size="10.00">Gsolve::updateVoxelVol</text>
</a>
</g>
</g>
<!-- Node9&#45;&gt;Node10 -->
<g id="edge10_Node000009_Node000010" class="edge">
<title>Node9&#45;&gt;Node10</title>
<g id="a_edge10_Node000009_Node000010"><a xlink:title=" ">
<path fill="none" stroke="#63b8ff" d="M448.19,-138.5C434.78,-138.5 421.09,-138.5 408.23,-138.5"/>
<polygon fill="#63b8ff" stroke="#63b8ff" points="448.38,-142 458.38,-138.5 448.38,-135 448.38,-142"/>
</a>
</g>
</g>
<!-- Node10&#45;&gt;Node5 -->
<g id="edge11_Node000010_Node000005" class="edge">
<title>Node10&#45;&gt;Node5</title>
<g id="a_edge11_Node000010_Node000005"><a xlink:title=" ">
<path fill="none" stroke="#63b8ff" d="M266.73,-148.07C227.17,-153.44 177.84,-160.64 134,-168.5 120.2,-170.97 105.21,-174.06 91.76,-176.97"/>
<polygon fill="#63b8ff" stroke="#63b8ff" points="267.38,-151.51 276.83,-146.71 266.45,-144.57 267.38,-151.51"/>
</a>
</g>
</g>
<!-- Node12 -->
<g id="Node000012" class="node">
<title>Node12</title>
<g id="a_Node000012"><a xlink:href="classKsolve.html#a1febe5af0cafdabe1a2db07ef46a5b83" target="_top" xlink:title=" ">
<polygon fill="white" stroke="#666666" points="408,-41 277,-41 277,-22 408,-22 408,-41"/>
<text text-anchor="middle" x="342.5" y="-29" font-family="Ubuntu Mono" font-size="10.00">Ksolve::updateVoxelVol</text>
</a>
</g>
</g>
<!-- Node11&#45;&gt;Node12 -->
<g id="edge13_Node000011_Node000012" class="edge">
<title>Node11&#45;&gt;Node12</title>
<g id="a_edge13_Node000011_Node000012"><a xlink:title=" ">
<path fill="none" stroke="#63b8ff" d="M450.54,-43.36C436.31,-41.78 421.7,-40.17 408.03,-38.65"/>
<polygon fill="#63b8ff" stroke="#63b8ff" points="450.49,-46.88 460.82,-44.5 451.26,-39.92 450.49,-46.88"/>
</a>
</g>
</g>
<!-- Node13 -->
<g id="Node000013" class="node">
<title>Node13</title>
<g id="a_Node000013"><a xlink:href="classKsolve.html#a55f3a588c1ed27ffd822d7fe7744be32" target="_top" xlink:title=" ">
<polygon fill="white" stroke="#666666" points="231,-41 134,-41 134,-22 231,-22 231,-41"/>
<text text-anchor="middle" x="182.5" y="-29" font-family="Ubuntu Mono" font-size="10.00">Ksolve::initCinfo</text>
</a>
</g>
</g>
<!-- Node12&#45;&gt;Node13 -->
<g id="edge14_Node000012_Node000013" class="edge">
<title>Node12&#45;&gt;Node13</title>
<g id="a_edge14_Node000012_Node000013"><a xlink:title=" ">
<path fill="none" stroke="#63b8ff" d="M266.74,-31.5C254.73,-31.5 242.59,-31.5 231.43,-31.5"/>
<polygon fill="#63b8ff" stroke="#63b8ff" points="266.78,-35 276.78,-31.5 266.78,-28 266.78,-35"/>
</a>
</g>
</g>
<!-- Node14&#45;&gt;Node10 -->
<g id="edge16_Node000014_Node000010" class="edge">
<title>Node14&#45;&gt;Node10</title>
<g id="a_edge16_Node000014_Node000010"><a xlink:title=" ">
<path fill="none" stroke="#63b8ff" d="M481.05,-107.29C450.98,-114.11 413.63,-122.59 385.44,-128.98"/>
<polygon fill="#63b8ff" stroke="#63b8ff" points="481.97,-110.67 490.94,-105.04 480.42,-103.84 481.97,-110.67"/>
</a>
</g>
</g>
<!-- Node15&#45;&gt;Node12 -->
<g id="edge18_Node000015_Node000012" class="edge">
<title>Node15&#45;&gt;Node12</title>
<g id="a_edge18_Node000015_Node000012"><a xlink:title=" ">
<path fill="none" stroke="#63b8ff" d="M452.98,-18.79C438,-20.53 422.52,-22.33 408.08,-24"/>
<polygon fill="#63b8ff" stroke="#63b8ff" points="453.71,-22.23 463.24,-17.6 452.91,-15.27 453.71,-22.23"/>
</a>
</g>
</g>
</g>
</svg>
