<?xml version="1.0" encoding="UTF-8" standalone="no"?>
<!DOCTYPE svg PUBLIC "-//W3C//DTD SVG 1.1//EN"
 "http://www.w3.org/Graphics/SVG/1.1/DTD/svg11.dtd">
<!-- Generated by graphviz version 2.43.0 (0)
 -->
<!-- Title: GetHopFunc::op Pages: 1 -->
<svg width="678pt" height="138pt"
 viewBox="0.00 0.00 678.00 138.00" xmlns="http://www.w3.org/2000/svg" xmlns:xlink="http://www.w3.org/1999/xlink">
<g id="graph0" class="graph" transform="scale(1 1) rotate(0) translate(4 134)">
<title>GetHopFunc::op</title>
<!-- Node1 -->
<g id="Node000001" class="node">
<title>Node1</title>
<g id="a_Node000001"><a xlink:title=" ">
<polygon fill="#999999" stroke="#666666" points="94,-74 0,-74 0,-55 94,-55 94,-74"/>
<text text-anchor="middle" x="47" y="-62" font-family="Ubuntu Mono" font-size="10.00">GetHopFunc::op</text>
</a>
</g>
</g>
<!-- Node2 -->
<g id="Node000002" class="node">
<title>Node2</title>
<g id="a_Node000002"><a xlink:href="classHopIndex.html#a996cb8631df25fb3f37f687c9274bd45" target="_top" xlink:title=" ">
<polygon fill="white" stroke="#666666" points="247,-93 130,-93 130,-74 247,-74 247,-93"/>
<text text-anchor="middle" x="188.5" y="-81" font-family="Ubuntu Mono" font-size="10.00">HopIndex::bindIndex</text>
</a>
</g>
</g>
<!-- Node1&#45;&gt;Node2 -->
<g id="edge1_Node000001_Node000002" class="edge">
<title>Node1&#45;&gt;Node2</title>
<g id="a_edge1_Node000001_Node000002"><a xlink:title=" ">
<path fill="none" stroke="#63b8ff" d="M94.06,-70.77C102.28,-71.89 110.99,-73.08 119.66,-74.26"/>
<polygon fill="#63b8ff" stroke="#63b8ff" points="119.41,-77.76 129.79,-75.64 120.35,-70.82 119.41,-77.76"/>
</a>
</g>
</g>
<!-- Node3 -->
<g id="Node000003" class="node">
<title>Node3</title>
<g id="a_Node000003"><a xlink:href="HopFunc_8cpp.html#afe48babbfee7e5f6ab5e5d615c4f9b63" target="_top" xlink:title=" ">
<polygon fill="white" stroke="#666666" points="223,-56 154,-56 154,-37 223,-37 223,-56"/>
<text text-anchor="middle" x="188.5" y="-44" font-family="Ubuntu Mono" font-size="10.00">remoteGet</text>
</a>
</g>
</g>
<!-- Node1&#45;&gt;Node3 -->
<g id="edge2_Node000001_Node000003" class="edge">
<title>Node1&#45;&gt;Node3</title>
<g id="a_edge2_Node000001_Node000003"><a xlink:title=" ">
<path fill="none" stroke="#63b8ff" d="M94.06,-58.56C110.08,-56.49 127.98,-54.18 143.8,-52.14"/>
<polygon fill="#63b8ff" stroke="#63b8ff" points="144.38,-55.59 153.85,-50.84 143.49,-48.65 144.38,-55.59"/>
</a>
</g>
</g>
<!-- Node4 -->
<g id="Node000004" class="node">
<title>Node4</title>
<g id="a_Node000004"><a xlink:href="classObjId.html#a1e5933713d6a73550b0923cf63f5bfd8" target="_top" xlink:title=" ">
<polygon fill="white" stroke="#666666" points="383,-93 313,-93 313,-74 383,-74 383,-93"/>
<text text-anchor="middle" x="348" y="-81" font-family="Ubuntu Mono" font-size="10.00">ObjId::data</text>
</a>
</g>
</g>
<!-- Node3&#45;&gt;Node4 -->
<g id="edge3_Node000003_Node000004" class="edge">
<title>Node3&#45;&gt;Node4</title>
<g id="a_edge3_Node000003_Node000004"><a xlink:title=" ">
<path fill="none" stroke="#63b8ff" d="M223.29,-54.44C246.56,-59.91 277.72,-67.23 302.95,-73.15"/>
<polygon fill="#63b8ff" stroke="#63b8ff" points="302.46,-76.63 313,-75.51 304.06,-69.82 302.46,-76.63"/>
</a>
</g>
</g>
<!-- Node9 -->
<g id="Node000009" class="node">
<title>Node9</title>
<g id="a_Node000009"><a xlink:href="classObjId.html#ab6b120d314aab5abc3ea8bb7ead5ae41" target="_top" xlink:title=" ">
<polygon fill="white" stroke="#666666" points="385,-56 311,-56 311,-37 385,-37 385,-56"/>
<text text-anchor="middle" x="348" y="-44" font-family="Ubuntu Mono" font-size="10.00">ObjId::ObjId</text>
</a>
</g>
</g>
<!-- Node3&#45;&gt;Node9 -->
<g id="edge8_Node000003_Node000009" class="edge">
<title>Node3&#45;&gt;Node9</title>
<g id="a_edge8_Node000003_Node000009"><a xlink:title=" ">
<path fill="none" stroke="#63b8ff" d="M223.29,-46.5C245.83,-46.5 275.76,-46.5 300.53,-46.5"/>
<polygon fill="#63b8ff" stroke="#63b8ff" points="300.8,-50 310.8,-46.5 300.8,-43 300.8,-50"/>
</a>
</g>
</g>
<!-- Node10 -->
<g id="Node000010" class="node">
<title>Node10</title>
<g id="a_Node000010"><a xlink:href="classPostMaster.html#a9eb60484a716ec073eac9688eec2db97" target="_top" xlink:title="Blocking call to get a value from a remote node.">
<polygon fill="white" stroke="#666666" points="413,-19 283,-19 283,0 413,0 413,-19"/>
<text text-anchor="middle" x="348" y="-7" font-family="Ubuntu Mono" font-size="10.00">PostMaster::remoteGet</text>
</a>
</g>
</g>
<!-- Node3&#45;&gt;Node10 -->
<g id="edge9_Node000003_Node000010" class="edge">
<title>Node3&#45;&gt;Node10</title>
<g id="a_edge9_Node000003_Node000010"><a xlink:title=" ">
<path fill="none" stroke="#63b8ff" d="M223.29,-38.56C244.56,-33.56 272.42,-27.02 296.32,-21.41"/>
<polygon fill="#63b8ff" stroke="#63b8ff" points="297.35,-24.76 306.28,-19.07 295.75,-17.95 297.35,-24.76"/>
</a>
</g>
</g>
<!-- Node5 -->
<g id="Node000005" class="node">
<title>Node5</title>
<g id="a_Node000005"><a xlink:href="classElement.html#a1978a0a584f1b10ea4a7c67e69880042" target="_top" xlink:title=" ">
<polygon fill="white" stroke="#666666" points="545.5,-130 460.5,-130 460.5,-111 545.5,-111 545.5,-130"/>
<text text-anchor="middle" x="503" y="-118" font-family="Ubuntu Mono" font-size="10.00">Element::data</text>
</a>
</g>
</g>
<!-- Node4&#45;&gt;Node5 -->
<g id="edge4_Node000004_Node000005" class="edge">
<title>Node4&#45;&gt;Node5</title>
<g id="a_edge4_Node000004_Node000005"><a xlink:title=" ">
<path fill="none" stroke="#63b8ff" d="M383.34,-91.8C403.83,-96.76 430.19,-103.13 452.86,-108.62"/>
<polygon fill="#63b8ff" stroke="#63b8ff" points="452.11,-112.04 462.65,-110.98 453.75,-105.23 452.11,-112.04"/>
</a>
</g>
</g>
<!-- Node6 -->
<g id="Node000006" class="node">
<title>Node6</title>
<g id="a_Node000006"><a xlink:href="classId.html#a574e06330597163aef0ea4c99de7ff4a" target="_top" xlink:title="Synonym for Id::operator()()">
<polygon fill="white" stroke="#666666" points="539,-93 467,-93 467,-74 539,-74 539,-93"/>
<text text-anchor="middle" x="503" y="-81" font-family="Ubuntu Mono" font-size="10.00">Id::element</text>
</a>
</g>
</g>
<!-- Node4&#45;&gt;Node6 -->
<g id="edge5_Node000004_Node000006" class="edge">
<title>Node4&#45;&gt;Node6</title>
<g id="a_edge5_Node000004_Node000006"><a xlink:title=" ">
<path fill="none" stroke="#63b8ff" d="M383.34,-83.5C405.06,-83.5 433.37,-83.5 456.89,-83.5"/>
<polygon fill="#63b8ff" stroke="#63b8ff" points="456.98,-87 466.98,-83.5 456.98,-80 456.98,-87"/>
</a>
</g>
</g>
<!-- Node8 -->
<g id="Node000008" class="node">
<title>Node8</title>
<g id="a_Node000008"><a xlink:href="classElement.html#a73a0e468a3d6cfd6475fff4a56459075" target="_top" xlink:title=" ">
<polygon fill="white" stroke="#666666" points="557,-56 449,-56 449,-37 557,-37 557,-56"/>
<text text-anchor="middle" x="503" y="-44" font-family="Ubuntu Mono" font-size="10.00">Element::rawIndex</text>
</a>
</g>
</g>
<!-- Node4&#45;&gt;Node8 -->
<g id="edge7_Node000004_Node000008" class="edge">
<title>Node4&#45;&gt;Node8</title>
<g id="a_edge7_Node000004_Node000008"><a xlink:title=" ">
<path fill="none" stroke="#63b8ff" d="M383.34,-75.2C403.83,-70.24 430.19,-63.87 452.86,-58.38"/>
<polygon fill="#63b8ff" stroke="#63b8ff" points="453.75,-61.77 462.65,-56.02 452.11,-54.96 453.75,-61.77"/>
</a>
</g>
</g>
<!-- Node7 -->
<g id="Node000007" class="node">
<title>Node7</title>
<g id="a_Node000007"><a xlink:href="classId.html#a2d5e7b4d5d918aadfe45102691c2be27" target="_top" xlink:title=" ">
<polygon fill="white" stroke="#666666" points="670,-93 593,-93 593,-74 670,-74 670,-93"/>
<text text-anchor="middle" x="631.5" y="-81" font-family="Ubuntu Mono" font-size="10.00">Id::elements</text>
</a>
</g>
</g>
<!-- Node6&#45;&gt;Node7 -->
<g id="edge6_Node000006_Node000007" class="edge">
<title>Node6&#45;&gt;Node7</title>
<g id="a_edge6_Node000006_Node000007"><a xlink:title=" ">
<path fill="none" stroke="#63b8ff" d="M539.24,-83.5C552.65,-83.5 568.17,-83.5 582.56,-83.5"/>
<polygon fill="#63b8ff" stroke="#63b8ff" points="582.8,-87 592.8,-83.5 582.8,-80 582.8,-87"/>
</a>
</g>
</g>
</g>
</svg>
