<?xml version="1.0" encoding="UTF-8" standalone="no"?>
<!DOCTYPE svg PUBLIC "-//W3C//DTD SVG 1.1//EN"
 "http://www.w3.org/Graphics/SVG/1.1/DTD/svg11.dtd">
<!-- Generated by graphviz version 2.43.0 (0)
 -->
<!-- Title: FuncTerm::operator= Pages: 1 -->
<!--zoomable 155 -->

<svg id="main" version="1.1" xmlns="http://www.w3.org/2000/svg" xmlns:xlink="http://www.w3.org/1999/xlink" xml:space="preserve" onload="init(evt)">
<style type="text/css"><![CDATA[
.node, .edge {opacity: 0.7;}
.node.selected, .edge.selected {opacity: 1;}
.edge:hover path { stroke: red; }
.edge:hover polygon { stroke: red; fill: red; }
]]></style>

<defs>
  <circle id="rim" cx="0" cy="0" r="7"/>
  <circle id="rim2" cx="0" cy="0" r="3.5"/>
  <g id="zoomPlus">
    <use xlink:href="#rim" fill="#404040"><set attributeName="fill" to="#808080" begin="zoomplus.mouseover" end="zoomplus.mouseout"/></use>
    <path d="M-4,0h8M0,-4v8" fill="none" stroke="white" stroke-width="1.5" pointer-events="none"/>
  </g>
  <g id="zoomMin">
    <use xlink:href="#rim" fill="#404040"><set attributeName="fill" to="#808080" begin="zoomminus.mouseover" end="zoomminus.mouseout"/></use>
    <path d="M-4,0h8" fill="none" stroke="white" stroke-width="1.5" pointer-events="none"/>
  </g>
  <g id="arrowUp" transform="translate(30 24)">
    <use xlink:href="#rim"/>
    <path pointer-events="none" fill="none" stroke="white" stroke-width="1.5" d="M0,-3.0v7 M-2.5,-0.5L0,-3.0L2.5,-0.5"/>
  </g>
  <g id="arrowRight" transform="rotate(90) translate(36 -43)">
    <use xlink:href="#rim"/>
    <path pointer-events="none" fill="none" stroke="white" stroke-width="1.5" d="M0,-3.0v7 M-2.5,-0.5L0,-3.0L2.5,-0.5"/>
  </g>
  <g id="arrowDown" transform="rotate(180) translate(-30 -48)">
    <use xlink:href="#rim"/>
    <path pointer-events="none" fill="none" stroke="white" stroke-width="1.5" d="M0,-3.0v7 M-2.5,-0.5L0,-3.0L2.5,-0.5"/>
  </g>
  <g id="arrowLeft" transform="rotate(270) translate(-36 17)">
    <use xlink:href="#rim"/>
    <path pointer-events="none" fill="none" stroke="white" stroke-width="1.5" d="M0,-3.0v7 M-2.5,-0.5L0,-3.0L2.5,-0.5"/>
  </g>
  <g id="resetDef">
    <use xlink:href="#rim2" fill="#404040"><set attributeName="fill" to="#808080" begin="reset.mouseover" end="reset.mouseout"/></use>
  </g>
</defs>
<script type="application/ecmascript">
var viewWidth = 1038;
var viewHeight = 155;
var sectionId = 'dynsection-9';
</script>
<script type="application/ecmascript" xlink:href="svg.min.js"/>
<svg id="graph" class="graph">
<g id="viewport">
<title>FuncTerm::operator=</title>
<!-- Node1 -->
<g id="Node000001" class="node">
<title>Node1</title>
<g id="a_Node000001"><a xlink:title=" ">
<polygon fill="#999999" stroke="#666666" points="119,-93.5 0,-93.5 0,-74.5 119,-74.5 119,-93.5"/>
<text text-anchor="middle" x="59.5" y="-81.5" font-family="Ubuntu Mono" font-size="10.00">FuncTerm::operator=</text>
</a>
</g>
</g>
<!-- Node2 -->
<g id="Node000002" class="node">
<title>Node2</title>
<g id="a_Node000002"><a xlink:href="classFuncTerm.html#a650e636246ea9c3f1c813b6f211a60d0" target="_top" xlink:title=" ">
<polygon fill="white" stroke="#666666" points="310,-93.5 155,-93.5 155,-74.5 310,-74.5 310,-93.5"/>
<text text-anchor="middle" x="232.5" y="-81.5" font-family="Ubuntu Mono" font-size="10.00">FuncTerm::setReactantIndex</text>
</a>
</g>
</g>
<!-- Node1&#45;&gt;Node2 -->
<g id="edge1_Node000001_Node000002" class="edge">
<title>Node1&#45;&gt;Node2</title>
<g id="a_edge1_Node000001_Node000002"><a xlink:title=" ">
<path fill="none" stroke="#63b8ff" d="M119.35,-84C127.54,-84 136.1,-84 144.67,-84"/>
<polygon fill="#63b8ff" stroke="#63b8ff" points="144.73,-87.5 154.73,-84 144.73,-80.5 144.73,-87.5"/>
</a>
</g>
</g>
<!-- Node3 -->
<g id="Node000003" class="node">
<title>Node3</title>
<g id="a_Node000003"><a xlink:href="classmoose_1_1MooseParser.html#a75b50eeb657e3e00f0a49f448c0be032" target="_top" xlink:title=" ">
<polygon fill="white" stroke="#666666" points="464,-147 346,-147 346,-117 464,-117 464,-147"/>
<text text-anchor="start" x="354" y="-135" font-family="Ubuntu Mono" font-size="10.00">moose::MooseParser</text>
<text text-anchor="middle" x="405" y="-124" font-family="Ubuntu Mono" font-size="10.00">::ClearAll</text>
</a>
</g>
</g>
<!-- Node2&#45;&gt;Node3 -->
<g id="edge2_Node000002_Node000003" class="edge">
<title>Node2&#45;&gt;Node3</title>
<g id="a_edge2_Node000002_Node000003"><a xlink:title=" ">
<path fill="none" stroke="#63b8ff" d="M267.59,-93.6C288.53,-99.49 315.99,-107.22 340.78,-114.2"/>
<polygon fill="#63b8ff" stroke="#63b8ff" points="339.92,-117.6 350.49,-116.94 341.82,-110.86 339.92,-117.6"/>
</a>
</g>
</g>
<!-- Node5 -->
<g id="Node000005" class="node">
<title>Node5</title>
<g id="a_Node000005"><a xlink:href="classmoose_1_1MooseParser.html#a8c846212a3d039e827b5600ba2904a3c" target="_top" xlink:title=" ">
<polygon fill="white" stroke="#666666" points="464,-99 346,-99 346,-69 464,-69 464,-99"/>
<text text-anchor="start" x="354" y="-87" font-family="Ubuntu Mono" font-size="10.00">moose::MooseParser</text>
<text text-anchor="middle" x="405" y="-76" font-family="Ubuntu Mono" font-size="10.00">::DefineVar</text>
</a>
</g>
</g>
<!-- Node2&#45;&gt;Node5 -->
<g id="edge4_Node000002_Node000005" class="edge">
<title>Node2&#45;&gt;Node5</title>
<g id="a_edge4_Node000002_Node000005"><a xlink:title=" ">
<path fill="none" stroke="#63b8ff" d="M310.27,-84C318.75,-84 327.35,-84 335.72,-84"/>
<polygon fill="#63b8ff" stroke="#63b8ff" points="335.79,-87.5 345.79,-84 335.79,-80.5 335.79,-87.5"/>
</a>
</g>
</g>
<!-- Node6 -->
<g id="Node000006" class="node">
<title>Node6</title>
<g id="a_Node000006"><a xlink:href="classFuncTerm.html#ae33dad2171770ac642bcd56f6767e53c" target="_top" xlink:title=" ">
<polygon fill="white" stroke="#666666" points="458,-50.5 352,-50.5 352,-31.5 458,-31.5 458,-50.5"/>
<text text-anchor="middle" x="405" y="-38.5" font-family="Ubuntu Mono" font-size="10.00">FuncTerm::setExpr</text>
</a>
</g>
</g>
<!-- Node2&#45;&gt;Node6 -->
<g id="edge5_Node000002_Node000006" class="edge">
<title>Node2&#45;&gt;Node6</title>
<g id="a_edge5_Node000002_Node000006"><a xlink:title=" ">
<path fill="none" stroke="#63b8ff" d="M271.34,-74.46C296.39,-68.14 329.46,-59.8 356.31,-53.03"/>
<polygon fill="#63b8ff" stroke="#63b8ff" points="357.43,-56.36 366.27,-50.52 355.71,-49.57 357.43,-56.36"/>
</a>
</g>
</g>
<!-- Node4 -->
<g id="Node000004" class="node">
<title>Node4</title>
<g id="a_Node000004"><a xlink:href="classmoose_1_1MooseParser.html#adb779a361b6a03a4f284552a876c1d58" target="_top" xlink:title=" ">
<polygon fill="white" stroke="#666666" points="618,-147 500,-147 500,-117 618,-117 618,-147"/>
<text text-anchor="start" x="508" y="-135" font-family="Ubuntu Mono" font-size="10.00">moose::MooseParser</text>
<text text-anchor="middle" x="559" y="-124" font-family="Ubuntu Mono" font-size="10.00">::ClearVariables</text>
</a>
</g>
</g>
<!-- Node3&#45;&gt;Node4 -->
<g id="edge3_Node000003_Node000004" class="edge">
<title>Node3&#45;&gt;Node4</title>
<g id="a_edge3_Node000003_Node000004"><a xlink:title=" ">
<path fill="none" stroke="#63b8ff" d="M464.33,-132C472.61,-132 481.17,-132 489.62,-132"/>
<polygon fill="#63b8ff" stroke="#63b8ff" points="489.82,-135.5 499.82,-132 489.82,-128.5 489.82,-135.5"/>
</a>
</g>
</g>
<!-- Node7 -->
<g id="Node000007" class="node">
<title>Node7</title>
<g id="a_Node000007"><a xlink:href="classmoose_1_1MooseParser.html#a04e7bbb1c453e6a7e5d64a1b573ada63" target="_top" xlink:title=" ">
<polygon fill="white" stroke="#666666" points="618,-78 500,-78 500,-48 618,-48 618,-78"/>
<text text-anchor="start" x="508" y="-66" font-family="Ubuntu Mono" font-size="10.00">moose::MooseParser</text>
<text text-anchor="middle" x="559" y="-55" font-family="Ubuntu Mono" font-size="10.00">::SetExpr</text>
</a>
</g>
</g>
<!-- Node6&#45;&gt;Node7 -->
<g id="edge6_Node000006_Node000007" class="edge">
<title>Node6&#45;&gt;Node7</title>
<g id="a_edge6_Node000006_Node000007"><a xlink:title=" ">
<path fill="none" stroke="#63b8ff" d="M458.31,-48.57C468.46,-50.04 479.24,-51.6 489.82,-53.13"/>
<polygon fill="#63b8ff" stroke="#63b8ff" points="489.47,-56.62 499.86,-54.59 490.47,-49.69 489.47,-56.62"/>
</a>
</g>
</g>
<!-- Node12 -->
<g id="Node000012" class="node">
<title>Node12</title>
<g id="a_Node000012"><a xlink:href="FuncTerm_8cpp.html#a8dc230d56c66041eabde94cf00a45495" target="_top" xlink:title=" ">
<polygon fill="white" stroke="#666666" points="591.5,-27.5 526.5,-27.5 526.5,-8.5 591.5,-8.5 591.5,-27.5"/>
<text text-anchor="middle" x="559" y="-15.5" font-family="Ubuntu Mono" font-size="10.00">showError</text>
</a>
</g>
</g>
<!-- Node6&#45;&gt;Node12 -->
<g id="edge11_Node000006_Node000012" class="edge">
<title>Node6&#45;&gt;Node12</title>
<g id="a_edge11_Node000006_Node000012"><a xlink:title=" ">
<path fill="none" stroke="#63b8ff" d="M458.31,-33.08C477.26,-30.22 498.4,-27.02 516.31,-24.31"/>
<polygon fill="#63b8ff" stroke="#63b8ff" points="517.08,-27.73 526.45,-22.77 516.04,-20.81 517.08,-27.73"/>
</a>
</g>
</g>
<!-- Node8 -->
<g id="Node000008" class="node">
<title>Node8</title>
<g id="a_Node000008"><a xlink:href="classmoose_1_1MooseParser.html#aa1b46c84478a8111466f9a5f838fca9f" target="_top" xlink:title=" ">
<polygon fill="white" stroke="#666666" points="798,-126 680,-126 680,-96 798,-96 798,-126"/>
<text text-anchor="start" x="688" y="-114" font-family="Ubuntu Mono" font-size="10.00">moose::MooseParser</text>
<text text-anchor="middle" x="739" y="-103" font-family="Ubuntu Mono" font-size="10.00">::CompileExpr</text>
</a>
</g>
</g>
<!-- Node7&#45;&gt;Node8 -->
<g id="edge7_Node000007_Node000008" class="edge">
<title>Node7&#45;&gt;Node8</title>
<g id="a_edge7_Node000007_Node000008"><a xlink:title=" ">
<path fill="none" stroke="#63b8ff" d="M615.83,-78.06C633.81,-82.9 653.89,-88.32 672.5,-93.34"/>
<polygon fill="#63b8ff" stroke="#63b8ff" points="671.8,-96.77 682.37,-96 673.62,-90.01 671.8,-96.77"/>
</a>
</g>
</g>
<!-- Node10 -->
<g id="Node000010" class="node">
<title>Node10</title>
<g id="a_Node000010"><a xlink:href="classmoose_1_1MooseParser.html#a16a2bc7f1e0e566a6c921b5876966031" target="_top" xlink:title=" ">
<polygon fill="white" stroke="#666666" points="798,-78 680,-78 680,-48 798,-48 798,-78"/>
<text text-anchor="start" x="688" y="-66" font-family="Ubuntu Mono" font-size="10.00">moose::MooseParser</text>
<text text-anchor="middle" x="739" y="-55" font-family="Ubuntu Mono" font-size="10.00">::Reformat</text>
</a>
</g>
</g>
<!-- Node7&#45;&gt;Node10 -->
<g id="edge9_Node000007_Node000010" class="edge">
<title>Node7&#45;&gt;Node10</title>
<g id="a_edge9_Node000007_Node000010"><a xlink:title=" ">
<path fill="none" stroke="#63b8ff" d="M618.28,-63C634.66,-63 652.61,-63 669.52,-63"/>
<polygon fill="#63b8ff" stroke="#63b8ff" points="669.89,-66.5 679.89,-63 669.89,-59.5 669.89,-66.5"/>
</a>
</g>
</g>
<!-- Node9 -->
<g id="Node000009" class="node">
<title>Node9</title>
<g id="a_Node000009"><a xlink:href="structmoose_1_1Parser_1_1ParserException.html#ad1f40fc5b35263f7df106530f4ebb184" target="_top" xlink:title=" ">
<polygon fill="white" stroke="#666666" points="1030,-126 860,-126 860,-96 1030,-96 1030,-126"/>
<text text-anchor="start" x="868" y="-114" font-family="Ubuntu Mono" font-size="10.00">moose::Parser::ParserException</text>
<text text-anchor="middle" x="945" y="-103" font-family="Ubuntu Mono" font-size="10.00">::ParserException</text>
</a>
</g>
</g>
<!-- Node8&#45;&gt;Node9 -->
<g id="edge8_Node000008_Node000009" class="edge">
<title>Node8&#45;&gt;Node9</title>
<g id="a_edge8_Node000008_Node000009"><a xlink:title=" ">
<path fill="none" stroke="#63b8ff" d="M798.19,-111C814.23,-111 832.06,-111 849.6,-111"/>
<polygon fill="#63b8ff" stroke="#63b8ff" points="849.87,-114.5 859.87,-111 849.87,-107.5 849.87,-114.5"/>
</a>
</g>
</g>
<!-- Node11 -->
<g id="Node000011" class="node">
<title>Node11</title>
<g id="a_Node000011"><a xlink:href="namespacemoose.html#a094027dde11a826fee7ce73b7211ebd9" target="_top" xlink:title=" ">
<polygon fill="white" stroke="#666666" points="1008.5,-72.5 881.5,-72.5 881.5,-53.5 1008.5,-53.5 1008.5,-72.5"/>
<text text-anchor="middle" x="945" y="-60.5" font-family="Ubuntu Mono" font-size="10.00">moose::str_replace_all</text>
</a>
</g>
</g>
<!-- Node10&#45;&gt;Node11 -->
<g id="edge10_Node000010_Node000011" class="edge">
<title>Node10&#45;&gt;Node11</title>
<g id="a_edge10_Node000010_Node000011"><a xlink:title=" ">
<path fill="none" stroke="#63b8ff" d="M798.19,-63C820.96,-63 847.33,-63 871.33,-63"/>
<polygon fill="#63b8ff" stroke="#63b8ff" points="871.46,-66.5 881.46,-63 871.46,-59.5 871.46,-66.5"/>
</a>
</g>
</g>
<!-- Node13 -->
<g id="Node000013" class="node">
<title>Node13</title>
<g id="a_Node000013"><a xlink:href="structmoose_1_1Parser_1_1ParserException.html#ac9c3c6f3dc862c7f00bf0273e0af34af" target="_top" xlink:title=" ">
<polygon fill="white" stroke="#666666" points="824,-30 654,-30 654,0 824,0 824,-30"/>
<text text-anchor="start" x="662" y="-18" font-family="Ubuntu Mono" font-size="10.00">moose::Parser::ParserException</text>
<text text-anchor="middle" x="739" y="-7" font-family="Ubuntu Mono" font-size="10.00">::GetMsg</text>
</a>
</g>
</g>
<!-- Node12&#45;&gt;Node13 -->
<g id="edge12_Node000012_Node000013" class="edge">
<title>Node12&#45;&gt;Node13</title>
<g id="a_edge12_Node000012_Node000013"><a xlink:title=" ">
<path fill="none" stroke="#63b8ff" d="M591.82,-17.46C606.57,-17.22 624.95,-16.91 643.65,-16.59"/>
<polygon fill="#63b8ff" stroke="#63b8ff" points="643.8,-20.09 653.74,-16.42 643.69,-13.09 643.8,-20.09"/>
</a>
</g>
</g>
</g>
</svg>

<g id="navigator" transform="translate(0 0)" fill="#404254">
  <rect fill="#f2f5e9" fill-opacity="0.5" stroke="#606060" stroke-width=".5" x="0" y="0" width="60" height="60"/>
  <use id="zoomplus" xlink:href="#zoomPlus" x="17" y="9" onmousedown="handleZoom(evt,'in')"/>
  <use id="zoomminus" xlink:href="#zoomMin" x="42" y="9" onmousedown="handleZoom(evt,'out')"/>
  <use id="reset" xlink:href="#resetDef" x="30" y="36" onmousedown="handleReset()"/>
   <use id="arrowup" xlink:href="#arrowUp" x="0" y="0" onmousedown="handlePan(0,-1)"/>
  <use id="arrowright" xlink:href="#arrowRight" x="0" y="0" onmousedown="handlePan(1,0)"/>
  <use id="arrowdown" xlink:href="#arrowDown" x="0" y="0" onmousedown="handlePan(0,1)"/>
  <use id="arrowleft" xlink:href="#arrowLeft" x="0" y="0" onmousedown="handlePan(-1,0)"/>
</g>
<svg viewBox="0 0 15 15" width="100%" height="30px" preserveAspectRatio="xMaxYMin meet">
 <g id="arrow_out" transform="scale(0.3 0.3)">
  <a xlink:href="classFuncTerm_a9fe29f8c8e07f90651e497adc9b660c4_cgraph_org.svg" target="_base">
   <rect id="button" ry="5" rx="5" y="6" x="6" height="38" width="38"
        fill="#f2f5e9" fill-opacity="0.5" stroke="#606060" stroke-width="1.0"/>
   <path id="arrow"
     d="M 11.500037,31.436501 C 11.940474,20.09759 22.043105,11.32322 32.158766,21.979434 L 37.068811,17.246167 C 37.068811,17.246167 37.088388,32 37.088388,32 L 22.160133,31.978069 C 22.160133,31.978069 26.997745,27.140456 26.997745,27.140456 C 18.528582,18.264221 13.291696,25.230495 11.500037,31.436501 z"
     style="fill:#404040;"/>
  </a>
 </g>
</svg>

<style type='text/css'>
<![CDATA[
[data-mouse-over-selected='false'] { opacity: 0.7; }
[data-mouse-over-selected='true']  { opacity: 1.0; }
]]>
</style>
<script type="application/ecmascript"><![CDATA[
document.addEventListener('DOMContentLoaded', (event) => {
  highlightEdges();
  highlightAdjacentNodes();
});
]]></script>
</svg>
