<?xml version="1.0" encoding="UTF-8" standalone="no"?>
<!DOCTYPE svg PUBLIC "-//W3C//DTD SVG 1.1//EN"
 "http://www.w3.org/Graphics/SVG/1.1/DTD/svg11.dtd">
<!-- Generated by graphviz version 2.43.0 (0)
 -->
<!-- Title: Vec::crossProduct Pages: 1 -->
<svg width="1104pt" height="369pt"
 viewBox="0.00 0.00 1104.00 369.00" xmlns="http://www.w3.org/2000/svg" xmlns:xlink="http://www.w3.org/1999/xlink">
<g id="graph0" class="graph" transform="scale(1 1) rotate(0) translate(4 365)">
<title>Vec::crossProduct</title>
<!-- Node1 -->
<g id="Node000001" class="node">
<title>Node1</title>
<g id="a_Node000001"><a xlink:title=" ">
<polygon fill="#999999" stroke="#666666" points="1096,-181 994,-181 994,-162 1096,-162 1096,-181"/>
<text text-anchor="middle" x="1045" y="-169" font-family="Ubuntu Mono" font-size="10.00">Vec::crossProduct</text>
</a>
</g>
</g>
<!-- Node2 -->
<g id="Node000002" class="node">
<title>Node2</title>
<g id="a_Node000002"><a xlink:href="Neuron_8cpp.html#a397ddaebb557c76db33c5fa0656027d0" target="_top" xlink:title=" ">
<polygon fill="white" stroke="#666666" points="940,-241 860,-241 860,-222 940,-222 940,-241"/>
<text text-anchor="middle" x="900" y="-229" font-family="Ubuntu Mono" font-size="10.00">coordSystem</text>
</a>
</g>
</g>
<!-- Node1&#45;&gt;Node2 -->
<g id="edge1_Node000001_Node000002" class="edge">
<title>Node1&#45;&gt;Node2</title>
<g id="a_edge1_Node000001_Node000002"><a xlink:title=" ">
<path fill="none" stroke="#63b8ff" d="M1012.03,-184.91C985.32,-196.12 947.87,-211.83 924.03,-221.84"/>
<polygon fill="#63b8ff" stroke="#63b8ff" points="1013.47,-188.1 1021.34,-181.01 1010.77,-181.65 1013.47,-188.1"/>
</a>
</g>
</g>
<!-- Node6 -->
<g id="Node000006" class="node">
<title>Node6</title>
<g id="a_Node000006"><a xlink:href="classVec.html#a8fc75e9d530bb96ef7d39688c7928479" target="_top" xlink:title="Generates vectors u and v to form a mutually orthogonal system.">
<polygon fill="white" stroke="#666666" points="958,-181 842,-181 842,-162 958,-162 958,-181"/>
<text text-anchor="middle" x="900" y="-169" font-family="Ubuntu Mono" font-size="10.00">Vec::orthogonalAxes</text>
</a>
</g>
</g>
<!-- Node1&#45;&gt;Node6 -->
<g id="edge5_Node000001_Node000006" class="edge">
<title>Node1&#45;&gt;Node6</title>
<g id="a_edge5_Node000001_Node000006"><a xlink:title=" ">
<path fill="none" stroke="#63b8ff" d="M983.75,-171.5C975.25,-171.5 966.53,-171.5 958.08,-171.5"/>
<polygon fill="#63b8ff" stroke="#63b8ff" points="983.99,-175 993.99,-171.5 983.99,-168 983.99,-175"/>
</a>
</g>
</g>
<!-- Node21 -->
<g id="Node000021" class="node">
<title>Node21</title>
<g id="a_Node000021"><a xlink:href="testMesh_8cpp.html#a47fa2b16091c5c01a70d725ad2ba29b3" target="_top" xlink:title=" ">
<polygon fill="white" stroke="#666666" points="742.5,-116 689.5,-116 689.5,-97 742.5,-97 742.5,-116"/>
<text text-anchor="middle" x="716" y="-104" font-family="Ubuntu Mono" font-size="10.00">testVec</text>
</a>
</g>
</g>
<!-- Node1&#45;&gt;Node21 -->
<g id="edge22_Node000001_Node000021" class="edge">
<title>Node1&#45;&gt;Node21</title>
<g id="a_edge22_Node000001_Node000021"><a xlink:title=" ">
<path fill="none" stroke="#63b8ff" d="M988.85,-159.84C978.6,-157.71 967.98,-155.52 958,-153.5 879.66,-137.66 786.79,-119.81 742.7,-111.39"/>
<polygon fill="#63b8ff" stroke="#63b8ff" points="988.44,-163.33 998.94,-161.95 989.87,-156.48 988.44,-163.33"/>
</a>
</g>
</g>
<!-- Node3 -->
<g id="Node000003" class="node">
<title>Node3</title>
<g id="a_Node000003"><a xlink:href="classNeuron.html#a5c9ddeba1b1718038a4dbe14a185a4af" target="_top" xlink:title=" ">
<polygon fill="white" stroke="#666666" points="776,-336 656,-336 656,-317 776,-317 776,-336"/>
<text text-anchor="middle" x="716" y="-324" font-family="Ubuntu Mono" font-size="10.00">Neuron::installSpines</text>
</a>
</g>
</g>
<!-- Node2&#45;&gt;Node3 -->
<g id="edge2_Node000002_Node000003" class="edge">
<title>Node2&#45;&gt;Node3</title>
<g id="a_edge2_Node000002_Node000003"><a xlink:title=" ">
<path fill="none" stroke="#63b8ff" d="M874.37,-246.23C855.78,-257.17 829.56,-272.25 806,-284.5 783.26,-296.32 756.61,-308.71 738.44,-316.94"/>
<polygon fill="#63b8ff" stroke="#63b8ff" points="876.26,-249.18 883.08,-241.07 872.69,-243.15 876.26,-249.18"/>
</a>
</g>
</g>
<!-- Node4 -->
<g id="Node000004" class="node">
<title>Node4</title>
<g id="a_Node000004"><a xlink:href="classNeuron.html#ae6ffb87ff245f2f4eaaa0c1e5a1b6e39" target="_top" xlink:title=" ">
<polygon fill="white" stroke="#666666" points="577.5,-361 420.5,-361 420.5,-342 577.5,-342 577.5,-361"/>
<text text-anchor="middle" x="499" y="-349" font-family="Ubuntu Mono" font-size="10.00">Neuron::setSpineDistribution</text>
</a>
</g>
</g>
<!-- Node3&#45;&gt;Node4 -->
<g id="edge3_Node000003_Node000004" class="edge">
<title>Node3&#45;&gt;Node4</title>
<g id="a_edge3_Node000003_Node000004"><a xlink:title=" ">
<path fill="none" stroke="#63b8ff" d="M645.86,-334.54C624.18,-337.06 600.09,-339.86 577.85,-342.45"/>
<polygon fill="#63b8ff" stroke="#63b8ff" points="646.44,-338 655.97,-333.36 645.63,-331.04 646.44,-338"/>
</a>
</g>
</g>
<!-- Node5 -->
<g id="Node000005" class="node">
<title>Node5</title>
<g id="a_Node000005"><a xlink:href="classNeuron.html#a81197d09a302f2420430fe3f7874926f" target="_top" xlink:title=" ">
<polygon fill="white" stroke="#666666" points="337,-361 238,-361 238,-342 337,-342 337,-361"/>
<text text-anchor="middle" x="287.5" y="-349" font-family="Ubuntu Mono" font-size="10.00">Neuron::initCinfo</text>
</a>
</g>
</g>
<!-- Node4&#45;&gt;Node5 -->
<g id="edge4_Node000004_Node000005" class="edge">
<title>Node4&#45;&gt;Node5</title>
<g id="a_edge4_Node000004_Node000005"><a xlink:title=" ">
<path fill="none" stroke="#63b8ff" d="M410.07,-351.5C385.14,-351.5 358.9,-351.5 337.21,-351.5"/>
<polygon fill="#63b8ff" stroke="#63b8ff" points="410.29,-355 420.29,-351.5 410.29,-348 410.29,-355"/>
</a>
</g>
</g>
<!-- Node7 -->
<g id="Node000007" class="node">
<title>Node7</title>
<g id="a_Node000007"><a xlink:href="classPresynMesh.html#a0d7cf0dfe0762d661e5610f4edfaffba" target="_top" xlink:title=" ">
<polygon fill="white" stroke="#666666" points="799.5,-275 632.5,-275 632.5,-256 799.5,-256 799.5,-275"/>
<text text-anchor="middle" x="716" y="-263" font-family="Ubuntu Mono" font-size="10.00">PresynMesh::buildOnDendrites</text>
</a>
</g>
</g>
<!-- Node6&#45;&gt;Node7 -->
<g id="edge6_Node000006_Node000007" class="edge">
<title>Node6&#45;&gt;Node7</title>
<g id="a_edge6_Node000006_Node000007"><a xlink:title=" ">
<path fill="none" stroke="#63b8ff" d="M871.19,-185.86C833.59,-205.28 767.56,-239.39 735.5,-255.94"/>
<polygon fill="#63b8ff" stroke="#63b8ff" points="873.27,-188.73 880.55,-181.03 870.06,-182.51 873.27,-188.73"/>
</a>
</g>
</g>
<!-- Node9 -->
<g id="Node000009" class="node">
<title>Node9</title>
<g id="a_Node000009"><a xlink:href="classCylBase.html#afb7f14b8bb133072656c780053b36de8" target="_top" xlink:title=" ">
<polygon fill="white" stroke="#666666" points="805,-190 627,-190 627,-171 805,-171 805,-190"/>
<text text-anchor="middle" x="716" y="-178" font-family="Ubuntu Mono" font-size="10.00">CylBase::matchCubeMeshEntries</text>
</a>
</g>
</g>
<!-- Node6&#45;&gt;Node9 -->
<g id="edge8_Node000006_Node000009" class="edge">
<title>Node6&#45;&gt;Node9</title>
<g id="a_edge8_Node000006_Node000009"><a xlink:title=" ">
<path fill="none" stroke="#63b8ff" d="M831.88,-174.82C823.19,-175.25 814.18,-175.69 805.22,-176.14"/>
<polygon fill="#63b8ff" stroke="#63b8ff" points="832.1,-178.31 841.91,-174.32 831.75,-171.32 832.1,-178.31"/>
</a>
</g>
</g>
<!-- Node19 -->
<g id="Node000019" class="node">
<title>Node19</title>
<g id="a_Node000019"><a xlink:href="classCylMesh.html#aec216c19764ec8489d8e45c29fdf1c67" target="_top" xlink:title=" ">
<polygon fill="white" stroke="#666666" points="806,-153 626,-153 626,-134 806,-134 806,-153"/>
<text text-anchor="middle" x="716" y="-141" font-family="Ubuntu Mono" font-size="10.00">CylMesh::matchCubeMeshEntries</text>
</a>
</g>
</g>
<!-- Node6&#45;&gt;Node19 -->
<g id="edge18_Node000006_Node000019" class="edge">
<title>Node6&#45;&gt;Node19</title>
<g id="a_edge18_Node000006_Node000019"><a xlink:title=" ">
<path fill="none" stroke="#63b8ff" d="M831.88,-161.17C814.55,-158.51 795.98,-155.65 778.93,-153.03"/>
<polygon fill="#63b8ff" stroke="#63b8ff" points="831.5,-164.66 841.91,-162.72 832.56,-157.74 831.5,-164.66"/>
</a>
</g>
</g>
<!-- Node6&#45;&gt;Node21 -->
<g id="edge20_Node000006_Node000021" class="edge">
<title>Node6&#45;&gt;Node21</title>
<g id="a_edge20_Node000006_Node000021"><a xlink:title=" ">
<path fill="none" stroke="#63b8ff" d="M874.62,-156.89C856.31,-146.5 830.31,-132.93 806,-124.5 785.3,-117.32 760.84,-112.63 742.8,-109.84"/>
<polygon fill="#63b8ff" stroke="#63b8ff" points="873.04,-160.02 883.44,-162 876.54,-153.96 873.04,-160.02"/>
</a>
</g>
</g>
<!-- Node8 -->
<g id="Node000008" class="node">
<title>Node8</title>
<g id="a_Node000008"><a xlink:href="classPresynMesh.html#a52795d3835decd603599f6d60c6f28a4" target="_top" xlink:title="We assume the bouton to be a hemisphere.">
<polygon fill="white" stroke="#666666" points="560.5,-324 437.5,-324 437.5,-305 560.5,-305 560.5,-324"/>
<text text-anchor="middle" x="499" y="-312" font-family="Ubuntu Mono" font-size="10.00">PresynMesh::initCinfo</text>
</a>
</g>
</g>
<!-- Node7&#45;&gt;Node8 -->
<g id="edge7_Node000007_Node000008" class="edge">
<title>Node7&#45;&gt;Node8</title>
<g id="a_edge7_Node000007_Node000008"><a xlink:title=" ">
<path fill="none" stroke="#63b8ff" d="M666.57,-277.45C643.43,-283.08 615.32,-289.79 590,-295.5 575.82,-298.7 560.35,-302.02 546.3,-304.98"/>
<polygon fill="#63b8ff" stroke="#63b8ff" points="667.6,-280.8 676.49,-275.03 665.95,-274 667.6,-280.8"/>
</a>
</g>
</g>
<!-- Node10 -->
<g id="Node000010" class="node">
<title>Node10</title>
<g id="a_Node000010"><a xlink:href="classSpineEntry.html#a6c26fdb102625853e77a48f0ed16de81" target="_top" xlink:title=" ">
<polygon fill="white" stroke="#666666" points="577,-286.5 421,-286.5 421,-256.5 577,-256.5 577,-286.5"/>
<text text-anchor="start" x="429" y="-274.5" font-family="Ubuntu Mono" font-size="10.00">SpineEntry::matchCubeMesh</text>
<text text-anchor="middle" x="499" y="-263.5" font-family="Ubuntu Mono" font-size="10.00">Entries</text>
</a>
</g>
</g>
<!-- Node9&#45;&gt;Node10 -->
<g id="edge9_Node000009_Node000010" class="edge">
<title>Node9&#45;&gt;Node10</title>
<g id="a_edge9_Node000009_Node000010"><a xlink:title=" ">
<path fill="none" stroke="#63b8ff" d="M691.13,-195.45C666.55,-210.33 626.75,-232.98 590,-247.5 581.73,-250.77 572.86,-253.74 564.02,-256.39"/>
<polygon fill="#63b8ff" stroke="#63b8ff" points="693.07,-198.37 699.77,-190.17 689.42,-192.4 693.07,-198.37"/>
</a>
</g>
</g>
<!-- Node11 -->
<g id="Node000011" class="node">
<title>Node11</title>
<g id="a_Node000011"><a xlink:href="classNeuroMesh.html#aac516e44929a7cb01361bceae4b7e134" target="_top" xlink:title=" ">
<polygon fill="white" stroke="#666666" points="579,-238.5 419,-238.5 419,-208.5 579,-208.5 579,-238.5"/>
<text text-anchor="start" x="427" y="-226.5" font-family="Ubuntu Mono" font-size="10.00">NeuroMesh::matchCubeMesh</text>
<text text-anchor="middle" x="499" y="-215.5" font-family="Ubuntu Mono" font-size="10.00">Entries</text>
</a>
</g>
</g>
<!-- Node9&#45;&gt;Node11 -->
<g id="edge10_Node000009_Node000011" class="edge">
<title>Node9&#45;&gt;Node11</title>
<g id="a_edge10_Node000009_Node000011"><a xlink:title=" ">
<path fill="none" stroke="#63b8ff" d="M657.47,-192.01C632.15,-197.07 602.08,-203.08 575.03,-208.49"/>
<polygon fill="#63b8ff" stroke="#63b8ff" points="658.17,-195.44 667.28,-190.04 656.79,-188.57 658.17,-195.44"/>
</a>
</g>
</g>
<!-- Node13 -->
<g id="Node000013" class="node">
<title>Node13</title>
<g id="a_Node000013"><a xlink:href="classPsdMesh.html#aa8e9d9838c04dcb37e9b870c7b6ae85a" target="_top" xlink:title=" ">
<polygon fill="white" stroke="#666666" points="590,-190 408,-190 408,-171 590,-171 590,-190"/>
<text text-anchor="middle" x="499" y="-178" font-family="Ubuntu Mono" font-size="10.00">PsdMesh::matchCubeMeshEntries</text>
</a>
</g>
</g>
<!-- Node9&#45;&gt;Node13 -->
<g id="edge12_Node000009_Node000013" class="edge">
<title>Node9&#45;&gt;Node13</title>
<g id="a_edge12_Node000009_Node000013"><a xlink:title=" ">
<path fill="none" stroke="#63b8ff" d="M616.88,-180.5C607.93,-180.5 598.89,-180.5 590.02,-180.5"/>
<polygon fill="#63b8ff" stroke="#63b8ff" points="616.93,-184 626.93,-180.5 616.93,-177 616.93,-184"/>
</a>
</g>
</g>
<!-- Node15 -->
<g id="Node000015" class="node">
<title>Node15</title>
<g id="a_Node000015"><a xlink:href="classSpineEntry.html#abf8c0252287ffe7d4fce31ad4ce7e278" target="_top" xlink:title="Returns Id of head electrical compartment.">
<polygon fill="white" stroke="#666666" points="577,-152.5 421,-152.5 421,-122.5 577,-122.5 577,-152.5"/>
<text text-anchor="start" x="429" y="-140.5" font-family="Ubuntu Mono" font-size="10.00">SpineEntry::matchCubeMesh</text>
<text text-anchor="middle" x="499" y="-129.5" font-family="Ubuntu Mono" font-size="10.00">EntriesToHead</text>
</a>
</g>
</g>
<!-- Node9&#45;&gt;Node15 -->
<g id="edge14_Node000009_Node000015" class="edge">
<title>Node9&#45;&gt;Node15</title>
<g id="a_edge14_Node000009_Node000015"><a xlink:title=" ">
<path fill="none" stroke="#63b8ff" d="M657.47,-168.99C632.15,-163.93 602.08,-157.92 575.03,-152.51"/>
<polygon fill="#63b8ff" stroke="#63b8ff" points="656.79,-172.43 667.28,-170.96 658.17,-165.56 656.79,-172.43"/>
</a>
</g>
</g>
<!-- Node18 -->
<g id="Node000018" class="node">
<title>Node18</title>
<g id="a_Node000018"><a xlink:href="classSpineEntry.html#a46afd2a760fd0674f389fa7b9ca642c3" target="_top" xlink:title=" ">
<polygon fill="white" stroke="#666666" points="577,-104.5 421,-104.5 421,-74.5 577,-74.5 577,-104.5"/>
<text text-anchor="start" x="429" y="-92.5" font-family="Ubuntu Mono" font-size="10.00">SpineEntry::matchCubeMesh</text>
<text text-anchor="middle" x="499" y="-81.5" font-family="Ubuntu Mono" font-size="10.00">EntriesToPSD</text>
</a>
</g>
</g>
<!-- Node9&#45;&gt;Node18 -->
<g id="edge17_Node000009_Node000018" class="edge">
<title>Node9&#45;&gt;Node18</title>
<g id="a_edge17_Node000009_Node000018"><a xlink:title=" ">
<path fill="none" stroke="#63b8ff" d="M633.78,-166.87C631.09,-165.55 628.49,-164.09 626,-162.5 603.22,-147.95 612.32,-128.73 590,-113.5 584.92,-110.04 579.37,-107.07 573.6,-104.53"/>
<polygon fill="#63b8ff" stroke="#63b8ff" points="632.62,-170.19 643.19,-170.93 635.39,-163.76 632.62,-170.19"/>
</a>
</g>
</g>
<!-- Node12 -->
<g id="Node000012" class="node">
<title>Node12</title>
<g id="a_Node000012"><a xlink:href="classNeuroMesh.html#a87f8811cba83e45b1a24c8da92aa0fc0" target="_top" xlink:title=" ">
<polygon fill="white" stroke="#666666" points="372,-233 203,-233 203,-214 372,-214 372,-233"/>
<text text-anchor="middle" x="287.5" y="-221" font-family="Ubuntu Mono" font-size="10.00">NeuroMesh::matchMeshEntries</text>
</a>
</g>
</g>
<!-- Node11&#45;&gt;Node12 -->
<g id="edge11_Node000011_Node000012" class="edge">
<title>Node11&#45;&gt;Node12</title>
<g id="a_edge11_Node000011_Node000012"><a xlink:title=" ">
<path fill="none" stroke="#63b8ff" d="M408.66,-223.5C396.5,-223.5 384.06,-223.5 372.01,-223.5"/>
<polygon fill="#63b8ff" stroke="#63b8ff" points="408.8,-227 418.8,-223.5 408.8,-220 408.8,-227"/>
</a>
</g>
</g>
<!-- Node14 -->
<g id="Node000014" class="node">
<title>Node14</title>
<g id="a_Node000014"><a xlink:href="classPsdMesh.html#a2bfc08990d7ba7c781bcc5907f4a0ce2" target="_top" xlink:title=" ">
<polygon fill="white" stroke="#666666" points="366,-190 209,-190 209,-171 366,-171 366,-190"/>
<text text-anchor="middle" x="287.5" y="-178" font-family="Ubuntu Mono" font-size="10.00">PsdMesh::matchMeshEntries</text>
</a>
</g>
</g>
<!-- Node13&#45;&gt;Node14 -->
<g id="edge13_Node000013_Node000014" class="edge">
<title>Node13&#45;&gt;Node14</title>
<g id="a_edge13_Node000013_Node000014"><a xlink:title=" ">
<path fill="none" stroke="#63b8ff" d="M397.82,-180.5C387.23,-180.5 376.58,-180.5 366.3,-180.5"/>
<polygon fill="#63b8ff" stroke="#63b8ff" points="397.94,-184 407.94,-180.5 397.94,-177 397.94,-184"/>
</a>
</g>
</g>
<!-- Node16 -->
<g id="Node000016" class="node">
<title>Node16</title>
<g id="a_Node000016"><a xlink:href="classSpineMesh.html#a7b08bf7693ab9d3040dea6c3cb4c4981" target="_top" xlink:title=" ">
<polygon fill="white" stroke="#666666" points="366.5,-152.5 208.5,-152.5 208.5,-122.5 366.5,-122.5 366.5,-152.5"/>
<text text-anchor="start" x="216.5" y="-140.5" font-family="Ubuntu Mono" font-size="10.00">SpineMesh::matchCubeMesh</text>
<text text-anchor="middle" x="287.5" y="-129.5" font-family="Ubuntu Mono" font-size="10.00">Entries</text>
</a>
</g>
</g>
<!-- Node15&#45;&gt;Node16 -->
<g id="edge15_Node000015_Node000016" class="edge">
<title>Node15&#45;&gt;Node16</title>
<g id="a_edge15_Node000015_Node000016"><a xlink:title=" ">
<path fill="none" stroke="#63b8ff" d="M410.8,-137.5C396.11,-137.5 380.94,-137.5 366.51,-137.5"/>
<polygon fill="#63b8ff" stroke="#63b8ff" points="410.88,-141 420.88,-137.5 410.88,-134 410.88,-141"/>
</a>
</g>
</g>
<!-- Node17 -->
<g id="Node000017" class="node">
<title>Node17</title>
<g id="a_Node000017"><a xlink:href="classSpineMesh.html#a64e7b686dbb5cbda0c92b0e4dfc43393" target="_top" xlink:title=" ">
<polygon fill="white" stroke="#666666" points="167,-147 0,-147 0,-128 167,-128 167,-147"/>
<text text-anchor="middle" x="83.5" y="-135" font-family="Ubuntu Mono" font-size="10.00">SpineMesh::matchMeshEntries</text>
</a>
</g>
</g>
<!-- Node16&#45;&gt;Node17 -->
<g id="edge16_Node000016_Node000017" class="edge">
<title>Node16&#45;&gt;Node17</title>
<g id="a_edge16_Node000016_Node000017"><a xlink:title=" ">
<path fill="none" stroke="#63b8ff" d="M198.15,-137.5C187.82,-137.5 177.32,-137.5 167.07,-137.5"/>
<polygon fill="#63b8ff" stroke="#63b8ff" points="198.4,-141 208.4,-137.5 198.4,-134 198.4,-141"/>
</a>
</g>
</g>
<!-- Node20 -->
<g id="Node000020" class="node">
<title>Node20</title>
<g id="a_Node000020"><a xlink:href="classCylMesh.html#a48c7586a88efb888be82cab3ddd77c6a" target="_top" xlink:title=" ">
<polygon fill="white" stroke="#666666" points="576.5,-56 421.5,-56 421.5,-37 576.5,-37 576.5,-56"/>
<text text-anchor="middle" x="499" y="-44" font-family="Ubuntu Mono" font-size="10.00">CylMesh::matchMeshEntries</text>
</a>
</g>
</g>
<!-- Node19&#45;&gt;Node20 -->
<g id="edge19_Node000019_Node000020" class="edge">
<title>Node19&#45;&gt;Node20</title>
<g id="a_edge19_Node000019_Node000020"><a xlink:title=" ">
<path fill="none" stroke="#63b8ff" d="M634.54,-129.71C631.57,-128.15 628.71,-126.42 626,-124.5 600.94,-106.74 615.08,-83.24 590,-65.5 584.52,-61.63 578.42,-58.51 572.05,-56.02"/>
<polygon fill="#63b8ff" stroke="#63b8ff" points="633.2,-132.95 643.75,-133.91 636.1,-126.58 633.2,-132.95"/>
</a>
</g>
</g>
<!-- Node22 -->
<g id="Node000022" class="node">
<title>Node22</title>
<g id="a_Node000022"><a xlink:href="testMesh_8cpp.html#a02dc1e0f9b4ca2aaf1c8ad1903d71165" target="_top" xlink:title=" ">
<polygon fill="white" stroke="#666666" points="530,-19 468,-19 468,0 530,0 530,-19"/>
<text text-anchor="middle" x="499" y="-7" font-family="Ubuntu Mono" font-size="10.00">testMesh</text>
</a>
</g>
</g>
<!-- Node21&#45;&gt;Node22 -->
<g id="edge21_Node000021_Node000022" class="edge">
<title>Node21&#45;&gt;Node22</title>
<g id="a_edge21_Node000021_Node000022"><a xlink:title=" ">
<path fill="none" stroke="#63b8ff" d="M694.86,-90.46C671.16,-72.39 629.95,-43.48 590,-27.5 570.91,-19.87 548.21,-15.35 530.38,-12.76"/>
<polygon fill="#63b8ff" stroke="#63b8ff" points="693,-93.44 703.05,-96.8 697.29,-87.91 693,-93.44"/>
</a>
</g>
</g>
</g>
</svg>
