<?xml version="1.0" encoding="UTF-8" standalone="no"?>
<!DOCTYPE svg PUBLIC "-//W3C//DTD SVG 1.1//EN"
 "http://www.w3.org/Graphics/SVG/1.1/DTD/svg11.dtd">
<!-- Generated by graphviz version 2.43.0 (0)
 -->
<!-- Title: SynHandlerBase::rangeWarning Pages: 1 -->
<!--zoomable 161 -->

<svg id="main" version="1.1" xmlns="http://www.w3.org/2000/svg" xmlns:xlink="http://www.w3.org/1999/xlink" xml:space="preserve" onload="init(evt)">
<style type="text/css"><![CDATA[
.node, .edge {opacity: 0.7;}
.node.selected, .edge.selected {opacity: 1;}
.edge:hover path { stroke: red; }
.edge:hover polygon { stroke: red; fill: red; }
]]></style>

<defs>
  <circle id="rim" cx="0" cy="0" r="7"/>
  <circle id="rim2" cx="0" cy="0" r="3.5"/>
  <g id="zoomPlus">
    <use xlink:href="#rim" fill="#404040"><set attributeName="fill" to="#808080" begin="zoomplus.mouseover" end="zoomplus.mouseout"/></use>
    <path d="M-4,0h8M0,-4v8" fill="none" stroke="white" stroke-width="1.5" pointer-events="none"/>
  </g>
  <g id="zoomMin">
    <use xlink:href="#rim" fill="#404040"><set attributeName="fill" to="#808080" begin="zoomminus.mouseover" end="zoomminus.mouseout"/></use>
    <path d="M-4,0h8" fill="none" stroke="white" stroke-width="1.5" pointer-events="none"/>
  </g>
  <g id="arrowUp" transform="translate(30 24)">
    <use xlink:href="#rim"/>
    <path pointer-events="none" fill="none" stroke="white" stroke-width="1.5" d="M0,-3.0v7 M-2.5,-0.5L0,-3.0L2.5,-0.5"/>
  </g>
  <g id="arrowRight" transform="rotate(90) translate(36 -43)">
    <use xlink:href="#rim"/>
    <path pointer-events="none" fill="none" stroke="white" stroke-width="1.5" d="M0,-3.0v7 M-2.5,-0.5L0,-3.0L2.5,-0.5"/>
  </g>
  <g id="arrowDown" transform="rotate(180) translate(-30 -48)">
    <use xlink:href="#rim"/>
    <path pointer-events="none" fill="none" stroke="white" stroke-width="1.5" d="M0,-3.0v7 M-2.5,-0.5L0,-3.0L2.5,-0.5"/>
  </g>
  <g id="arrowLeft" transform="rotate(270) translate(-36 17)">
    <use xlink:href="#rim"/>
    <path pointer-events="none" fill="none" stroke="white" stroke-width="1.5" d="M0,-3.0v7 M-2.5,-0.5L0,-3.0L2.5,-0.5"/>
  </g>
  <g id="resetDef">
    <use xlink:href="#rim2" fill="#404040"><set attributeName="fill" to="#808080" begin="reset.mouseover" end="reset.mouseout"/></use>
  </g>
</defs>
<script type="application/ecmascript">
var viewWidth = 600;
var viewHeight = 161;
var sectionId = 'dynsection-16';
</script>
<script type="application/ecmascript" xlink:href="svg.min.js"/>
<svg id="graph" class="graph">
<g id="viewport">
<title>SynHandlerBase::rangeWarning</title>
<!-- Node1 -->
<g id="Node000001" class="node">
<title>Node1</title>
<g id="a_Node000001"><a xlink:title=" ">
<polygon fill="#999999" stroke="#666666" points="592,-77 422,-77 422,-58 592,-58 592,-77"/>
<text text-anchor="middle" x="507" y="-65" font-family="Ubuntu Mono" font-size="10.00">SynHandlerBase::rangeWarning</text>
</a>
</g>
</g>
<!-- Node2 -->
<g id="Node000002" class="node">
<title>Node2</title>
<g id="a_Node000002"><a xlink:href="classGraupnerBrunel2012CaPlasticitySynHandler.html#acbd9fd42f2681933c753ee4ab405a7c8" target="_top" xlink:title=" ">
<polygon fill="white" stroke="#666666" points="386,-152.5 211,-152.5 211,-122.5 386,-122.5 386,-152.5"/>
<text text-anchor="start" x="219" y="-140.5" font-family="Ubuntu Mono" font-size="10.00">GraupnerBrunel2012CaPlasticity</text>
<text text-anchor="middle" x="298.5" y="-129.5" font-family="Ubuntu Mono" font-size="10.00">SynHandler::setTauCa</text>
</a>
</g>
</g>
<!-- Node1&#45;&gt;Node2 -->
<g id="edge1_Node000001_Node000002" class="edge">
<title>Node1&#45;&gt;Node2</title>
<g id="a_edge1_Node000001_Node000002"><a xlink:title=" ">
<path fill="none" stroke="#63b8ff" d="M473.45,-80.94C449.49,-90.61 415.99,-103.62 386,-113.5 376.68,-116.57 366.7,-119.59 356.96,-122.39"/>
<polygon fill="#63b8ff" stroke="#63b8ff" points="474.83,-84.16 482.78,-77.16 472.2,-77.67 474.83,-84.16"/>
</a>
</g>
</g>
<!-- Node4 -->
<g id="Node000004" class="node">
<title>Node4</title>
<g id="a_Node000004"><a xlink:href="classSTDPSynHandler.html#aa2694a802115aa5b65f95ce9d66b7294" target="_top" xlink:title=" ">
<polygon fill="white" stroke="#666666" points="381,-56 216,-56 216,-37 381,-37 381,-56"/>
<text text-anchor="middle" x="298.5" y="-44" font-family="Ubuntu Mono" font-size="10.00">STDPSynHandler::setTauMinus</text>
</a>
</g>
</g>
<!-- Node1&#45;&gt;Node4 -->
<g id="edge3_Node000001_Node000004" class="edge">
<title>Node1&#45;&gt;Node4</title>
<g id="a_edge3_Node000001_Node000004"><a xlink:title=" ">
<path fill="none" stroke="#63b8ff" d="M411.61,-57.9C401.45,-56.87 391.17,-55.82 381.18,-54.81"/>
<polygon fill="#63b8ff" stroke="#63b8ff" points="411.41,-61.4 421.71,-58.93 412.12,-54.43 411.41,-61.4"/>
</a>
</g>
</g>
<!-- Node6 -->
<g id="Node000006" class="node">
<title>Node6</title>
<g id="a_Node000006"><a xlink:href="classSTDPSynHandler.html#a741b9da47859811277c2a69c6518f844" target="_top" xlink:title=" ">
<polygon fill="white" stroke="#666666" points="376.5,-19 220.5,-19 220.5,0 376.5,0 376.5,-19"/>
<text text-anchor="middle" x="298.5" y="-7" font-family="Ubuntu Mono" font-size="10.00">STDPSynHandler::setTauPlus</text>
</a>
</g>
</g>
<!-- Node1&#45;&gt;Node6 -->
<g id="edge5_Node000001_Node000006" class="edge">
<title>Node1&#45;&gt;Node6</title>
<g id="a_edge5_Node000001_Node000006"><a xlink:title=" ">
<path fill="none" stroke="#63b8ff" d="M470.43,-54.43C446.72,-46.02 414.76,-35.26 386,-27.5 374.6,-24.42 362.23,-21.57 350.5,-19.08"/>
<polygon fill="#63b8ff" stroke="#63b8ff" points="469.45,-57.8 480.05,-57.87 471.81,-51.21 469.45,-57.8"/>
</a>
</g>
</g>
<!-- Node7 -->
<g id="Node000007" class="node">
<title>Node7</title>
<g id="a_Node000007"><a xlink:href="classGraupnerBrunel2012CaPlasticitySynHandler.html#aa7d9c50e84c95780ef60563ac891cd02" target="_top" xlink:title=" ">
<polygon fill="white" stroke="#666666" points="386,-104.5 211,-104.5 211,-74.5 386,-74.5 386,-104.5"/>
<text text-anchor="start" x="219" y="-92.5" font-family="Ubuntu Mono" font-size="10.00">GraupnerBrunel2012CaPlasticity</text>
<text text-anchor="middle" x="298.5" y="-81.5" font-family="Ubuntu Mono" font-size="10.00">SynHandler::setTauSyn</text>
</a>
</g>
</g>
<!-- Node1&#45;&gt;Node7 -->
<g id="edge7_Node000001_Node000007" class="edge">
<title>Node1&#45;&gt;Node7</title>
<g id="a_edge7_Node000001_Node000007"><a xlink:title=" ">
<path fill="none" stroke="#63b8ff" d="M411.76,-77.54C403.25,-78.45 394.65,-79.36 386.2,-80.26"/>
<polygon fill="#63b8ff" stroke="#63b8ff" points="412.14,-81.02 421.71,-76.48 411.4,-74.06 412.14,-81.02"/>
</a>
</g>
</g>
<!-- Node3 -->
<g id="Node000003" class="node">
<title>Node3</title>
<g id="a_Node000003"><a xlink:href="classGraupnerBrunel2012CaPlasticitySynHandler.html#ae1431942fcd0a790402f22042a427aad" target="_top" xlink:title=" ">
<polygon fill="white" stroke="#666666" points="175,-113.5 0,-113.5 0,-83.5 175,-83.5 175,-113.5"/>
<text text-anchor="start" x="8" y="-101.5" font-family="Ubuntu Mono" font-size="10.00">GraupnerBrunel2012CaPlasticity</text>
<text text-anchor="middle" x="87.5" y="-90.5" font-family="Ubuntu Mono" font-size="10.00">SynHandler::initCinfo</text>
</a>
</g>
</g>
<!-- Node2&#45;&gt;Node3 -->
<g id="edge2_Node000002_Node000003" class="edge">
<title>Node2&#45;&gt;Node3</title>
<g id="a_edge2_Node000002_Node000003"><a xlink:title=" ">
<path fill="none" stroke="#63b8ff" d="M206.94,-120.6C194.3,-118.24 181.39,-115.83 168.96,-113.51"/>
<polygon fill="#63b8ff" stroke="#63b8ff" points="206.52,-124.08 216.99,-122.48 207.81,-117.2 206.52,-124.08"/>
</a>
</g>
</g>
<!-- Node5 -->
<g id="Node000005" class="node">
<title>Node5</title>
<g id="a_Node000005"><a xlink:href="classSTDPSynHandler.html#acf8fa8af063775b3c862b3909f4ae934" target="_top" xlink:title=" ">
<polygon fill="white" stroke="#666666" points="160.5,-47 14.5,-47 14.5,-28 160.5,-28 160.5,-47"/>
<text text-anchor="middle" x="87.5" y="-35" font-family="Ubuntu Mono" font-size="10.00">STDPSynHandler::initCinfo</text>
</a>
</g>
</g>
<!-- Node4&#45;&gt;Node5 -->
<g id="edge4_Node000004_Node000005" class="edge">
<title>Node4&#45;&gt;Node5</title>
<g id="a_edge4_Node000004_Node000005"><a xlink:title=" ">
<path fill="none" stroke="#63b8ff" d="M205.47,-42.54C190.45,-41.89 175.08,-41.23 160.63,-40.61"/>
<polygon fill="#63b8ff" stroke="#63b8ff" points="205.66,-46.05 215.8,-42.98 205.96,-39.05 205.66,-46.05"/>
</a>
</g>
</g>
<!-- Node6&#45;&gt;Node5 -->
<g id="edge6_Node000006_Node000005" class="edge">
<title>Node6&#45;&gt;Node5</title>
<g id="a_edge6_Node000006_Node000005"><a xlink:title=" ">
<path fill="none" stroke="#63b8ff" d="M216.47,-20.36C197.75,-22.86 177.97,-25.51 159.71,-27.96"/>
<polygon fill="#63b8ff" stroke="#63b8ff" points="217,-23.82 226.45,-19.02 216.07,-16.88 217,-23.82"/>
</a>
</g>
</g>
<!-- Node7&#45;&gt;Node3 -->
<g id="edge8_Node000007_Node000003" class="edge">
<title>Node7&#45;&gt;Node3</title>
<g id="a_edge8_Node000007_Node000003"><a xlink:title=" ">
<path fill="none" stroke="#63b8ff" d="M200.97,-93.66C192.41,-94.03 183.77,-94.4 175.29,-94.76"/>
<polygon fill="#63b8ff" stroke="#63b8ff" points="201.14,-97.15 210.98,-93.23 200.84,-90.16 201.14,-97.15"/>
</a>
</g>
</g>
</g>
</svg>

<g id="navigator" transform="translate(0 0)" fill="#404254">
  <rect fill="#f2f5e9" fill-opacity="0.5" stroke="#606060" stroke-width=".5" x="0" y="0" width="60" height="60"/>
  <use id="zoomplus" xlink:href="#zoomPlus" x="17" y="9" onmousedown="handleZoom(evt,'in')"/>
  <use id="zoomminus" xlink:href="#zoomMin" x="42" y="9" onmousedown="handleZoom(evt,'out')"/>
  <use id="reset" xlink:href="#resetDef" x="30" y="36" onmousedown="handleReset()"/>
   <use id="arrowup" xlink:href="#arrowUp" x="0" y="0" onmousedown="handlePan(0,-1)"/>
  <use id="arrowright" xlink:href="#arrowRight" x="0" y="0" onmousedown="handlePan(1,0)"/>
  <use id="arrowdown" xlink:href="#arrowDown" x="0" y="0" onmousedown="handlePan(0,1)"/>
  <use id="arrowleft" xlink:href="#arrowLeft" x="0" y="0" onmousedown="handlePan(-1,0)"/>
</g>
<svg viewBox="0 0 15 15" width="100%" height="30px" preserveAspectRatio="xMaxYMin meet">
 <g id="arrow_out" transform="scale(0.3 0.3)">
  <a xlink:href="classSynHandlerBase_a0dab0883f0962f0afde8efdba67def0d_icgraph_org.svg" target="_base">
   <rect id="button" ry="5" rx="5" y="6" x="6" height="38" width="38"
        fill="#f2f5e9" fill-opacity="0.5" stroke="#606060" stroke-width="1.0"/>
   <path id="arrow"
     d="M 11.500037,31.436501 C 11.940474,20.09759 22.043105,11.32322 32.158766,21.979434 L 37.068811,17.246167 C 37.068811,17.246167 37.088388,32 37.088388,32 L 22.160133,31.978069 C 22.160133,31.978069 26.997745,27.140456 26.997745,27.140456 C 18.528582,18.264221 13.291696,25.230495 11.500037,31.436501 z"
     style="fill:#404040;"/>
  </a>
 </g>
</svg>

<style type='text/css'>
<![CDATA[
[data-mouse-over-selected='false'] { opacity: 0.7; }
[data-mouse-over-selected='true']  { opacity: 1.0; }
]]>
</style>
<script type="application/ecmascript"><![CDATA[
document.addEventListener('DOMContentLoaded', (event) => {
  highlightEdges();
  highlightAdjacentNodes();
});
]]></script>
</svg>
