<?xml version="1.0" encoding="UTF-8" standalone="no"?>
<!DOCTYPE svg PUBLIC "-//W3C//DTD SVG 1.1//EN"
 "http://www.w3.org/Graphics/SVG/1.1/DTD/svg11.dtd">
<!-- Generated by graphviz version 2.43.0 (0)
 -->
<!-- Title: FuncReac Pages: 1 -->
<!--zoomable 855 -->

<svg id="main" version="1.1" xmlns="http://www.w3.org/2000/svg" xmlns:xlink="http://www.w3.org/1999/xlink" xml:space="preserve" onload="init(evt)">
<style type="text/css"><![CDATA[
.node, .edge {opacity: 0.7;}
.node.selected, .edge.selected {opacity: 1;}
.edge:hover path { stroke: red; }
.edge:hover polygon { stroke: red; fill: red; }
]]></style>

<defs>
  <circle id="rim" cx="0" cy="0" r="7"/>
  <circle id="rim2" cx="0" cy="0" r="3.5"/>
  <g id="zoomPlus">
    <use xlink:href="#rim" fill="#404040"><set attributeName="fill" to="#808080" begin="zoomplus.mouseover" end="zoomplus.mouseout"/></use>
    <path d="M-4,0h8M0,-4v8" fill="none" stroke="white" stroke-width="1.5" pointer-events="none"/>
  </g>
  <g id="zoomMin">
    <use xlink:href="#rim" fill="#404040"><set attributeName="fill" to="#808080" begin="zoomminus.mouseover" end="zoomminus.mouseout"/></use>
    <path d="M-4,0h8" fill="none" stroke="white" stroke-width="1.5" pointer-events="none"/>
  </g>
  <g id="arrowUp" transform="translate(30 24)">
    <use xlink:href="#rim"/>
    <path pointer-events="none" fill="none" stroke="white" stroke-width="1.5" d="M0,-3.0v7 M-2.5,-0.5L0,-3.0L2.5,-0.5"/>
  </g>
  <g id="arrowRight" transform="rotate(90) translate(36 -43)">
    <use xlink:href="#rim"/>
    <path pointer-events="none" fill="none" stroke="white" stroke-width="1.5" d="M0,-3.0v7 M-2.5,-0.5L0,-3.0L2.5,-0.5"/>
  </g>
  <g id="arrowDown" transform="rotate(180) translate(-30 -48)">
    <use xlink:href="#rim"/>
    <path pointer-events="none" fill="none" stroke="white" stroke-width="1.5" d="M0,-3.0v7 M-2.5,-0.5L0,-3.0L2.5,-0.5"/>
  </g>
  <g id="arrowLeft" transform="rotate(270) translate(-36 17)">
    <use xlink:href="#rim"/>
    <path pointer-events="none" fill="none" stroke="white" stroke-width="1.5" d="M0,-3.0v7 M-2.5,-0.5L0,-3.0L2.5,-0.5"/>
  </g>
  <g id="resetDef">
    <use xlink:href="#rim2" fill="#404040"><set attributeName="fill" to="#808080" begin="reset.mouseover" end="reset.mouseout"/></use>
  </g>
</defs>
<script type="application/ecmascript">
var viewWidth = 297;
var viewHeight = 855;
var sectionId = 'dynsection-1';
</script>
<script type="application/ecmascript" xlink:href="svg.min.js"/>
<svg id="graph" class="graph">
<g id="viewport">
<title>FuncReac</title>
<!-- Node1 -->
<g id="Node000001" class="node">
<title>Node1</title>
<g id="a_Node000001"><a xlink:title=" ">
<polygon fill="#999999" stroke="transparent" points="194,-124 69,-124 69,0 194,0 194,-124"/>
<text text-anchor="start" x="108.5" y="-112" font-family="Ubuntu Mono" font-size="10.00">FuncReac</text>
<text text-anchor="start" x="76" y="-97" font-family="Ubuntu Mono" font-size="10.00">&#45;</text>
<text text-anchor="start" x="86.5" y="-97" font-family="Ubuntu Mono" font-size="10.00">numSubstrates_</text>
<text text-anchor="start" x="73.5" y="-82" font-family="Ubuntu Mono" font-size="10.00">+</text>
<text text-anchor="start" x="86.5" y="-82" font-family="Ubuntu Mono" font-size="10.00">copyWithVolScaling()</text>
<text text-anchor="start" x="73.5" y="-67" font-family="Ubuntu Mono" font-size="10.00">+</text>
<text text-anchor="start" x="86.5" y="-67" font-family="Ubuntu Mono" font-size="10.00">FuncReac()</text>
<text text-anchor="start" x="73.5" y="-52" font-family="Ubuntu Mono" font-size="10.00">+</text>
<text text-anchor="start" x="86.5" y="-52" font-family="Ubuntu Mono" font-size="10.00">getReactants()</text>
<text text-anchor="start" x="73.5" y="-37" font-family="Ubuntu Mono" font-size="10.00">+</text>
<text text-anchor="start" x="86.5" y="-37" font-family="Ubuntu Mono" font-size="10.00">operator()()</text>
<text text-anchor="start" x="73.5" y="-22" font-family="Ubuntu Mono" font-size="10.00">+</text>
<text text-anchor="start" x="86.5" y="-22" font-family="Ubuntu Mono" font-size="10.00">rescaleVolume()</text>
<text text-anchor="start" x="73.5" y="-7" font-family="Ubuntu Mono" font-size="10.00">+</text>
<text text-anchor="start" x="86.5" y="-7" font-family="Ubuntu Mono" font-size="10.00">setReactants()</text>
<polygon fill="#666666" stroke="#666666" points="69.5,-107 69.5,-107 194.5,-107 194.5,-107 69.5,-107"/>
<polygon fill="#666666" stroke="#666666" points="69.5,-92 69.5,-92 84.5,-92 84.5,-92 69.5,-92"/>
<polygon fill="#666666" stroke="#666666" points="84.5,-92 84.5,-92 194.5,-92 194.5,-92 84.5,-92"/>
<polygon fill="none" stroke="#666666" points="69,0 69,-124 194,-124 194,0 69,0"/>
</a>
</g>
</g>
<!-- Node2 -->
<g id="Node000002" class="node">
<title>Node2</title>
<g id="a_Node000002"><a xlink:href="classFuncRate.html" target="_top" xlink:title=" ">
<polygon fill="white" stroke="transparent" points="125,-385 0,-385 0,-171 125,-171 125,-385"/>
<text text-anchor="start" x="40" y="-373" font-family="Ubuntu Mono" font-size="10.00">FuncRate</text>
<text text-anchor="start" x="4.5" y="-358" font-family="Ubuntu Mono" font-size="10.00">#</text>
<text text-anchor="start" x="17.5" y="-358" font-family="Ubuntu Mono" font-size="10.00">func_</text>
<text text-anchor="start" x="4.5" y="-343" font-family="Ubuntu Mono" font-size="10.00">#</text>
<text text-anchor="start" x="17.5" y="-343" font-family="Ubuntu Mono" font-size="10.00">funcVolPower_</text>
<text text-anchor="start" x="4.5" y="-328" font-family="Ubuntu Mono" font-size="10.00">#</text>
<text text-anchor="start" x="17.5" y="-328" font-family="Ubuntu Mono" font-size="10.00">k_</text>
<text text-anchor="start" x="4.5" y="-313" font-family="Ubuntu Mono" font-size="10.00">+</text>
<text text-anchor="start" x="17.5" y="-313" font-family="Ubuntu Mono" font-size="10.00">copyWithVolScaling()</text>
<text text-anchor="start" x="4.5" y="-298" font-family="Ubuntu Mono" font-size="10.00">+</text>
<text text-anchor="start" x="17.5" y="-298" font-family="Ubuntu Mono" font-size="10.00">FuncRate()</text>
<text text-anchor="start" x="4.5" y="-283" font-family="Ubuntu Mono" font-size="10.00">+</text>
<text text-anchor="start" x="17.5" y="-283" font-family="Ubuntu Mono" font-size="10.00">getExpr()</text>
<text text-anchor="start" x="4.5" y="-268" font-family="Ubuntu Mono" font-size="10.00">+</text>
<text text-anchor="start" x="17.5" y="-268" font-family="Ubuntu Mono" font-size="10.00">getFuncArgIndex()</text>
<text text-anchor="start" x="4.5" y="-253" font-family="Ubuntu Mono" font-size="10.00">+</text>
<text text-anchor="start" x="17.5" y="-253" font-family="Ubuntu Mono" font-size="10.00">getR1()</text>
<text text-anchor="start" x="4.5" y="-238" font-family="Ubuntu Mono" font-size="10.00">+</text>
<text text-anchor="start" x="17.5" y="-238" font-family="Ubuntu Mono" font-size="10.00">getReactants()</text>
<text text-anchor="start" x="4.5" y="-223" font-family="Ubuntu Mono" font-size="10.00">+</text>
<text text-anchor="start" x="17.5" y="-223" font-family="Ubuntu Mono" font-size="10.00">operator()()</text>
<text text-anchor="start" x="4.5" y="-208" font-family="Ubuntu Mono" font-size="10.00">+</text>
<text text-anchor="start" x="17.5" y="-208" font-family="Ubuntu Mono" font-size="10.00">setExpr()</text>
<text text-anchor="start" x="4.5" y="-193" font-family="Ubuntu Mono" font-size="10.00">+</text>
<text text-anchor="start" x="17.5" y="-193" font-family="Ubuntu Mono" font-size="10.00">setFuncArgIndex()</text>
<text text-anchor="start" x="4.5" y="-178" font-family="Ubuntu Mono" font-size="10.00">+</text>
<text text-anchor="start" x="17.5" y="-178" font-family="Ubuntu Mono" font-size="10.00">setReactants()</text>
<polygon fill="#666666" stroke="#666666" points="0.5,-368 0.5,-368 125.5,-368 125.5,-368 0.5,-368"/>
<polygon fill="#666666" stroke="#666666" points="0.5,-323 0.5,-323 15.5,-323 15.5,-323 0.5,-323"/>
<polygon fill="#666666" stroke="#666666" points="15.5,-323 15.5,-323 125.5,-323 125.5,-323 15.5,-323"/>
<polygon fill="none" stroke="#666666" points="0,-171 0,-385 125,-385 125,-171 0,-171"/>
</a>
</g>
</g>
<!-- Node2&#45;&gt;Node1 -->
<g id="edge1_Node000001_Node000002" class="edge">
<title>Node2&#45;&gt;Node1</title>
<g id="a_edge1_Node000001_Node000002"><a xlink:title=" ">
<path fill="none" stroke="#63b8ff" d="M99.85,-161.15C103.97,-148.37 108.04,-135.77 111.81,-124.07"/>
<polygon fill="none" stroke="#63b8ff" points="96.43,-160.35 96.7,-170.94 103.1,-162.5 96.43,-160.35"/>
</a>
</g>
</g>
<!-- Node3 -->
<g id="Node000003" class="node">
<title>Node3</title>
<g id="a_Node000003"><a xlink:href="classExternReac.html" target="_top" xlink:title=" ">
<polygon fill="white" stroke="transparent" points="125,-601 0,-601 0,-432 125,-432 125,-601"/>
<text text-anchor="start" x="35" y="-588.5" font-family="Ubuntu Mono" font-size="10.00">ExternReac</text>
<text text-anchor="start" x="61" y="-573.5" font-family="Ubuntu Mono" font-size="10.00"> </text>
<text text-anchor="start" x="4.5" y="-558.5" font-family="Ubuntu Mono" font-size="10.00">+</text>
<text text-anchor="start" x="17.5" y="-558.5" font-family="Ubuntu Mono" font-size="10.00">copyWithVolScaling()</text>
<text text-anchor="start" x="4.5" y="-543.5" font-family="Ubuntu Mono" font-size="10.00">+</text>
<text text-anchor="start" x="17.5" y="-543.5" font-family="Ubuntu Mono" font-size="10.00">getR1()</text>
<text text-anchor="start" x="4.5" y="-528.5" font-family="Ubuntu Mono" font-size="10.00">+</text>
<text text-anchor="start" x="17.5" y="-528.5" font-family="Ubuntu Mono" font-size="10.00">getR2()</text>
<text text-anchor="start" x="4.5" y="-513.5" font-family="Ubuntu Mono" font-size="10.00">+</text>
<text text-anchor="start" x="17.5" y="-513.5" font-family="Ubuntu Mono" font-size="10.00">getReactants()</text>
<text text-anchor="start" x="4.5" y="-498.5" font-family="Ubuntu Mono" font-size="10.00">+</text>
<text text-anchor="start" x="17.5" y="-498.5" font-family="Ubuntu Mono" font-size="10.00">operator()()</text>
<text text-anchor="start" x="4.5" y="-483.5" font-family="Ubuntu Mono" font-size="10.00">+</text>
<text text-anchor="start" x="17.5" y="-483.5" font-family="Ubuntu Mono" font-size="10.00">rescaleVolume()</text>
<text text-anchor="start" x="4.5" y="-468.5" font-family="Ubuntu Mono" font-size="10.00">+</text>
<text text-anchor="start" x="17.5" y="-468.5" font-family="Ubuntu Mono" font-size="10.00">setR1()</text>
<text text-anchor="start" x="4.5" y="-453.5" font-family="Ubuntu Mono" font-size="10.00">+</text>
<text text-anchor="start" x="17.5" y="-453.5" font-family="Ubuntu Mono" font-size="10.00">setR2()</text>
<text text-anchor="start" x="4.5" y="-438.5" font-family="Ubuntu Mono" font-size="10.00">+</text>
<text text-anchor="start" x="17.5" y="-438.5" font-family="Ubuntu Mono" font-size="10.00">setRates()</text>
<polygon fill="#666666" stroke="#666666" points="0.5,-583.5 0.5,-583.5 125.5,-583.5 125.5,-583.5 0.5,-583.5"/>
<polygon fill="#666666" stroke="#666666" points="0.5,-568.5 0.5,-568.5 125.5,-568.5 125.5,-568.5 0.5,-568.5"/>
<polygon fill="none" stroke="#666666" points="0,-432 0,-601 125,-601 125,-432 0,-432"/>
</a>
</g>
</g>
<!-- Node3&#45;&gt;Node2 -->
<g id="edge2_Node000002_Node000003" class="edge">
<title>Node3&#45;&gt;Node2</title>
<g id="a_edge2_Node000002_Node000003"><a xlink:title=" ">
<path fill="none" stroke="#63b8ff" d="M62.5,-421.47C62.5,-409.61 62.5,-397.42 62.5,-385.39"/>
<polygon fill="none" stroke="#63b8ff" points="59,-421.79 62.5,-431.79 66,-421.79 59,-421.79"/>
</a>
</g>
</g>
<!-- Node4 -->
<g id="Node000004" class="node">
<title>Node4</title>
<g id="a_Node000004"><a xlink:href="classRateTerm.html" target="_top" xlink:title=" ">
<polygon fill="white" stroke="transparent" points="125,-847 0,-847 0,-648 125,-648 125,-847"/>
<text text-anchor="start" x="39.5" y="-834.5" font-family="Ubuntu Mono" font-size="10.00">RateTerm</text>
<text text-anchor="start" x="4.5" y="-819.5" font-family="Ubuntu Mono" font-size="10.00">+</text>
<text text-anchor="start" x="17.5" y="-819.5" font-family="Ubuntu Mono" font-size="10.00">EPSILON</text>
<text text-anchor="start" x="4.5" y="-804.5" font-family="Ubuntu Mono" font-size="10.00">+</text>
<text text-anchor="start" x="17.5" y="-804.5" font-family="Ubuntu Mono" font-size="10.00">copyWithVolScaling()</text>
<text text-anchor="start" x="4.5" y="-789.5" font-family="Ubuntu Mono" font-size="10.00">+</text>
<text text-anchor="start" x="17.5" y="-789.5" font-family="Ubuntu Mono" font-size="10.00">getR1()</text>
<text text-anchor="start" x="4.5" y="-774.5" font-family="Ubuntu Mono" font-size="10.00">+</text>
<text text-anchor="start" x="17.5" y="-774.5" font-family="Ubuntu Mono" font-size="10.00">getR2()</text>
<text text-anchor="start" x="4.5" y="-759.5" font-family="Ubuntu Mono" font-size="10.00">+</text>
<text text-anchor="start" x="17.5" y="-759.5" font-family="Ubuntu Mono" font-size="10.00">getReactants()</text>
<text text-anchor="start" x="4.5" y="-744.5" font-family="Ubuntu Mono" font-size="10.00">+</text>
<text text-anchor="start" x="17.5" y="-744.5" font-family="Ubuntu Mono" font-size="10.00">operator()()</text>
<text text-anchor="start" x="4.5" y="-729.5" font-family="Ubuntu Mono" font-size="10.00">+</text>
<text text-anchor="start" x="17.5" y="-729.5" font-family="Ubuntu Mono" font-size="10.00">RateTerm()</text>
<text text-anchor="start" x="4.5" y="-714.5" font-family="Ubuntu Mono" font-size="10.00">+</text>
<text text-anchor="start" x="17.5" y="-714.5" font-family="Ubuntu Mono" font-size="10.00">rescaleVolume()</text>
<text text-anchor="start" x="4.5" y="-699.5" font-family="Ubuntu Mono" font-size="10.00">+</text>
<text text-anchor="start" x="17.5" y="-699.5" font-family="Ubuntu Mono" font-size="10.00">setR1()</text>
<text text-anchor="start" x="4.5" y="-684.5" font-family="Ubuntu Mono" font-size="10.00">+</text>
<text text-anchor="start" x="17.5" y="-684.5" font-family="Ubuntu Mono" font-size="10.00">setR2()</text>
<text text-anchor="start" x="4.5" y="-669.5" font-family="Ubuntu Mono" font-size="10.00">+</text>
<text text-anchor="start" x="17.5" y="-669.5" font-family="Ubuntu Mono" font-size="10.00">setRates()</text>
<text text-anchor="start" x="4.5" y="-654.5" font-family="Ubuntu Mono" font-size="10.00">+</text>
<text text-anchor="start" x="17.5" y="-654.5" font-family="Ubuntu Mono" font-size="10.00">~RateTerm()</text>
<polygon fill="#666666" stroke="#666666" points="0.5,-829.5 0.5,-829.5 125.5,-829.5 125.5,-829.5 0.5,-829.5"/>
<polygon fill="#666666" stroke="#666666" points="0.5,-814.5 0.5,-814.5 15.5,-814.5 15.5,-814.5 0.5,-814.5"/>
<polygon fill="#666666" stroke="#666666" points="15.5,-814.5 15.5,-814.5 125.5,-814.5 125.5,-814.5 15.5,-814.5"/>
<polygon fill="none" stroke="#666666" points="0,-648 0,-847 125,-847 125,-648 0,-648"/>
</a>
</g>
</g>
<!-- Node4&#45;&gt;Node3 -->
<g id="edge3_Node000003_Node000004" class="edge">
<title>Node4&#45;&gt;Node3</title>
<g id="a_edge3_Node000003_Node000004"><a xlink:title=" ">
<path fill="none" stroke="#63b8ff" d="M62.5,-637.51C62.5,-625.31 62.5,-613.03 62.5,-601.23"/>
<polygon fill="none" stroke="#63b8ff" points="59,-637.72 62.5,-647.72 66,-637.72 59,-637.72"/>
</a>
</g>
</g>
<!-- Node5 -->
<g id="Node000005" class="node">
<title>Node5</title>
<g id="a_Node000005"><a xlink:title=" ">
<polygon fill="white" stroke="transparent" points="261.5,-308 143.5,-308 143.5,-248 261.5,-248 261.5,-308"/>
<text text-anchor="start" x="148.5" y="-296" font-family="Ubuntu Mono" font-size="10.00">std::vector&lt; unsigned</text>
<text text-anchor="start" x="188.5" y="-285" font-family="Ubuntu Mono" font-size="10.00"> int &gt;</text>
<text text-anchor="start" x="160" y="-270" font-family="Ubuntu Mono" font-size="10.00">+</text>
<text text-anchor="start" x="185.5" y="-270" font-family="Ubuntu Mono" font-size="10.00">elements</text>
<text text-anchor="start" x="200.5" y="-255" font-family="Ubuntu Mono" font-size="10.00"> </text>
<polygon fill="#666666" stroke="#666666" points="143.5,-280 143.5,-280 261.5,-280 261.5,-280 143.5,-280"/>
<polygon fill="#666666" stroke="#666666" points="143.5,-265 143.5,-265 183.5,-265 183.5,-265 143.5,-265"/>
<polygon fill="#666666" stroke="#666666" points="183.5,-265 183.5,-265 261.5,-265 261.5,-265 183.5,-265"/>
<polygon fill="none" stroke="#666666" points="143.5,-248 143.5,-308 261.5,-308 261.5,-248 143.5,-248"/>
</a>
</g>
</g>
<!-- Node5&#45;&gt;Node1 -->
<g id="edge4_Node000001_Node000005" class="edge">
<title>Node5&#45;&gt;Node1</title>
<g id="a_edge4_Node000001_Node000005"><a xlink:title=" ">
<path fill="none" stroke="#63b8ff" d="M192.78,-247.69C183.28,-219.06 168.44,-174.33 155.74,-136.05"/>
<polygon fill="none" stroke="#63b8ff" points="155.65,-135.8 149.97,-131.36 151.87,-124.41 157.56,-128.84 155.65,-135.8"/>
</a>
</g>
<text text-anchor="middle" x="170.5" y="-145" font-family="Ubuntu Mono" font-size="10.00" fill="grey"> &#45;v_</text>
</g>
<!-- Node6 -->
<g id="Node000006" class="node">
<title>Node6</title>
<g id="a_Node000006"><a xlink:title=" ">
<polygon fill="white" stroke="transparent" points="248,-541 157,-541 157,-492 248,-492 248,-541"/>
<text text-anchor="start" x="162.5" y="-528.5" font-family="Ubuntu Mono" font-size="10.00">std::vector&lt; T &gt;</text>
<text text-anchor="start" x="201" y="-513.5" font-family="Ubuntu Mono" font-size="10.00"> </text>
<text text-anchor="start" x="201" y="-498.5" font-family="Ubuntu Mono" font-size="10.00"> </text>
<polygon fill="#666666" stroke="#666666" points="157.5,-523.5 157.5,-523.5 248.5,-523.5 248.5,-523.5 157.5,-523.5"/>
<polygon fill="#666666" stroke="#666666" points="157.5,-508.5 157.5,-508.5 248.5,-508.5 248.5,-508.5 157.5,-508.5"/>
<polygon fill="none" stroke="#666666" points="157,-492 157,-541 248,-541 248,-492 157,-492"/>
</a>
</g>
</g>
<!-- Node6&#45;&gt;Node5 -->
<g id="edge5_Node000005_Node000006" class="edge">
<title>Node6&#45;&gt;Node5</title>
<g id="a_edge5_Node000005_Node000006"><a xlink:title=" ">
<path fill="none" stroke="orange" d="M202.5,-481.8C202.5,-435.33 202.5,-352.34 202.5,-308.31"/>
<polygon fill="orange" stroke="orange" points="199,-481.96 202.5,-491.96 206,-481.96 199,-481.96"/>
</a>
</g>
<text text-anchor="middle" x="245.5" y="-406" font-family="Ubuntu Mono" font-size="10.00" fill="grey"> &lt; unsigned int &gt;</text>
</g>
<!-- Node7 -->
<g id="Node000007" class="node">
<title>Node7</title>
<g id="a_Node000007"><a xlink:title=" ">
<polygon fill="white" stroke="transparent" points="211,-772 194,-772 194,-723 211,-723 211,-772"/>
<text text-anchor="start" x="199.5" y="-759.5" font-family="Ubuntu Mono" font-size="10.00">T</text>
<text text-anchor="start" x="201" y="-744.5" font-family="Ubuntu Mono" font-size="10.00"> </text>
<text text-anchor="start" x="201" y="-729.5" font-family="Ubuntu Mono" font-size="10.00"> </text>
<polygon fill="#666666" stroke="#666666" points="194.5,-754.5 194.5,-754.5 211.5,-754.5 211.5,-754.5 194.5,-754.5"/>
<polygon fill="#666666" stroke="#666666" points="194.5,-739.5 194.5,-739.5 211.5,-739.5 211.5,-739.5 194.5,-739.5"/>
<polygon fill="none" stroke="#666666" points="194,-723 194,-772 211,-772 211,-723 194,-723"/>
</a>
</g>
</g>
<!-- Node7&#45;&gt;Node6 -->
<g id="edge6_Node000006_Node000007" class="edge">
<title>Node7&#45;&gt;Node6</title>
<g id="a_edge6_Node000006_Node000007"><a xlink:title=" ">
<path fill="none" stroke="#63b8ff" d="M202.5,-722.86C202.5,-682.55 202.5,-600.34 202.5,-553.08"/>
<polygon fill="none" stroke="#63b8ff" points="202.5,-553.02 198.5,-547.02 202.5,-541.02 206.5,-547.02 202.5,-553.02"/>
</a>
</g>
<text text-anchor="middle" x="231.5" y="-622" font-family="Ubuntu Mono" font-size="10.00" fill="grey"> +elements</text>
</g>
</g>
</svg>

<g id="navigator" transform="translate(0 0)" fill="#404254">
  <rect fill="#f2f5e9" fill-opacity="0.5" stroke="#606060" stroke-width=".5" x="0" y="0" width="60" height="60"/>
  <use id="zoomplus" xlink:href="#zoomPlus" x="17" y="9" onmousedown="handleZoom(evt,'in')"/>
  <use id="zoomminus" xlink:href="#zoomMin" x="42" y="9" onmousedown="handleZoom(evt,'out')"/>
  <use id="reset" xlink:href="#resetDef" x="30" y="36" onmousedown="handleReset()"/>
   <use id="arrowup" xlink:href="#arrowUp" x="0" y="0" onmousedown="handlePan(0,-1)"/>
  <use id="arrowright" xlink:href="#arrowRight" x="0" y="0" onmousedown="handlePan(1,0)"/>
  <use id="arrowdown" xlink:href="#arrowDown" x="0" y="0" onmousedown="handlePan(0,1)"/>
  <use id="arrowleft" xlink:href="#arrowLeft" x="0" y="0" onmousedown="handlePan(-1,0)"/>
</g>
<svg viewBox="0 0 15 15" width="100%" height="30px" preserveAspectRatio="xMaxYMin meet">
 <g id="arrow_out" transform="scale(0.3 0.3)">
  <a xlink:href="classFuncReac__coll__graph_org.svg" target="_base">
   <rect id="button" ry="5" rx="5" y="6" x="6" height="38" width="38"
        fill="#f2f5e9" fill-opacity="0.5" stroke="#606060" stroke-width="1.0"/>
   <path id="arrow"
     d="M 11.500037,31.436501 C 11.940474,20.09759 22.043105,11.32322 32.158766,21.979434 L 37.068811,17.246167 C 37.068811,17.246167 37.088388,32 37.088388,32 L 22.160133,31.978069 C 22.160133,31.978069 26.997745,27.140456 26.997745,27.140456 C 18.528582,18.264221 13.291696,25.230495 11.500037,31.436501 z"
     style="fill:#404040;"/>
  </a>
 </g>
</svg>

<style type='text/css'>
<![CDATA[
[data-mouse-over-selected='false'] { opacity: 0.7; }
[data-mouse-over-selected='true']  { opacity: 1.0; }
]]>
</style>
<script type="application/ecmascript"><![CDATA[
document.addEventListener('DOMContentLoaded', (event) => {
  highlightEdges();
  highlightAdjacentNodes();
});
]]></script>
</svg>
