<?xml version="1.0" encoding="UTF-8" standalone="no"?>
<!DOCTYPE svg PUBLIC "-//W3C//DTD SVG 1.1//EN"
 "http://www.w3.org/Graphics/SVG/1.1/DTD/svg11.dtd">
<!-- Generated by graphviz version 2.43.0 (0)
 -->
<!-- Title: SpineMesh::vSetVolumeNotRates Pages: 1 -->
<!--zoomable 397 -->

<svg id="main" version="1.1" xmlns="http://www.w3.org/2000/svg" xmlns:xlink="http://www.w3.org/1999/xlink" xml:space="preserve" onload="init(evt)">
<style type="text/css"><![CDATA[
.node, .edge {opacity: 0.7;}
.node.selected, .edge.selected {opacity: 1;}
.edge:hover path { stroke: red; }
.edge:hover polygon { stroke: red; fill: red; }
]]></style>

<defs>
  <circle id="rim" cx="0" cy="0" r="7"/>
  <circle id="rim2" cx="0" cy="0" r="3.5"/>
  <g id="zoomPlus">
    <use xlink:href="#rim" fill="#404040"><set attributeName="fill" to="#808080" begin="zoomplus.mouseover" end="zoomplus.mouseout"/></use>
    <path d="M-4,0h8M0,-4v8" fill="none" stroke="white" stroke-width="1.5" pointer-events="none"/>
  </g>
  <g id="zoomMin">
    <use xlink:href="#rim" fill="#404040"><set attributeName="fill" to="#808080" begin="zoomminus.mouseover" end="zoomminus.mouseout"/></use>
    <path d="M-4,0h8" fill="none" stroke="white" stroke-width="1.5" pointer-events="none"/>
  </g>
  <g id="arrowUp" transform="translate(30 24)">
    <use xlink:href="#rim"/>
    <path pointer-events="none" fill="none" stroke="white" stroke-width="1.5" d="M0,-3.0v7 M-2.5,-0.5L0,-3.0L2.5,-0.5"/>
  </g>
  <g id="arrowRight" transform="rotate(90) translate(36 -43)">
    <use xlink:href="#rim"/>
    <path pointer-events="none" fill="none" stroke="white" stroke-width="1.5" d="M0,-3.0v7 M-2.5,-0.5L0,-3.0L2.5,-0.5"/>
  </g>
  <g id="arrowDown" transform="rotate(180) translate(-30 -48)">
    <use xlink:href="#rim"/>
    <path pointer-events="none" fill="none" stroke="white" stroke-width="1.5" d="M0,-3.0v7 M-2.5,-0.5L0,-3.0L2.5,-0.5"/>
  </g>
  <g id="arrowLeft" transform="rotate(270) translate(-36 17)">
    <use xlink:href="#rim"/>
    <path pointer-events="none" fill="none" stroke="white" stroke-width="1.5" d="M0,-3.0v7 M-2.5,-0.5L0,-3.0L2.5,-0.5"/>
  </g>
  <g id="resetDef">
    <use xlink:href="#rim2" fill="#404040"><set attributeName="fill" to="#808080" begin="reset.mouseover" end="reset.mouseout"/></use>
  </g>
</defs>
<script type="application/ecmascript">
var viewWidth = 507;
var viewHeight = 397;
var sectionId = 'dynsection-31';
</script>
<script type="application/ecmascript" xlink:href="svg.min.js"/>
<svg id="graph" class="graph">
<g id="viewport">
<title>SpineMesh::vSetVolumeNotRates</title>
<!-- Node1 -->
<g id="Node000001" class="node">
<title>Node1</title>
<g id="a_Node000001"><a xlink:title="Inherited virtual func.">
<polygon fill="#999999" stroke="#666666" points="152,-190.5 0,-190.5 0,-160.5 152,-160.5 152,-190.5"/>
<text text-anchor="start" x="8" y="-178.5" font-family="Ubuntu Mono" font-size="10.00">SpineMesh::vSetVolumeNot</text>
<text text-anchor="middle" x="76" y="-167.5" font-family="Ubuntu Mono" font-size="10.00">Rates</text>
</a>
</g>
</g>
<!-- Node2 -->
<g id="Node000002" class="node">
<title>Node2</title>
<g id="a_Node000002"><a xlink:href="classSpineEntry.html#a0429ac84199b947d7e903d6f551bbca7" target="_top" xlink:title=" ">
<polygon fill="white" stroke="#666666" points="333,-204 207,-204 207,-185 333,-185 333,-204"/>
<text text-anchor="middle" x="270" y="-192" font-family="Ubuntu Mono" font-size="10.00">SpineEntry::setVolume</text>
</a>
</g>
</g>
<!-- Node1&#45;&gt;Node2 -->
<g id="edge1_Node000001_Node000002" class="edge">
<title>Node1&#45;&gt;Node2</title>
<g id="a_edge1_Node000001_Node000002"><a xlink:title=" ">
<path fill="none" stroke="#63b8ff" d="M152.06,-182.93C166.76,-184.38 182.14,-185.9 196.75,-187.35"/>
<polygon fill="#63b8ff" stroke="#63b8ff" points="196.42,-190.83 206.71,-188.34 197.11,-183.87 196.42,-190.83"/>
</a>
</g>
</g>
<!-- Node14 -->
<g id="Node000014" class="node">
<title>Node14</title>
<g id="a_Node000014"><a xlink:href="classSpineMesh.html#abb8be59e0dc2ad7b73dbe901056ac8c2" target="_top" xlink:title="Inherited virtual func.">
<polygon fill="white" stroke="#666666" points="352,-167 188,-167 188,-148 352,-148 352,-167"/>
<text text-anchor="middle" x="270" y="-155" font-family="Ubuntu Mono" font-size="10.00">SpineMesh::vGetEntireVolume</text>
</a>
</g>
</g>
<!-- Node1&#45;&gt;Node14 -->
<g id="edge13_Node000001_Node000014" class="edge">
<title>Node1&#45;&gt;Node14</title>
<g id="a_edge13_Node000001_Node000014"><a xlink:title=" ">
<path fill="none" stroke="#63b8ff" d="M152.06,-168.46C160.52,-167.67 169.22,-166.85 177.86,-166.04"/>
<polygon fill="#63b8ff" stroke="#63b8ff" points="178.34,-169.52 187.97,-165.1 177.68,-162.55 178.34,-169.52"/>
</a>
</g>
</g>
<!-- Node3 -->
<g id="Node000003" class="node">
<title>Node3</title>
<g id="a_Node000003"><a xlink:href="classCylBase.html#ad96655884be493cdaf02d69a10d6b196" target="_top" xlink:title=" ">
<polygon fill="white" stroke="#666666" points="491,-389 396,-389 396,-370 491,-370 491,-389"/>
<text text-anchor="middle" x="443.5" y="-377" font-family="Ubuntu Mono" font-size="10.00">CylBase::getDia</text>
</a>
</g>
</g>
<!-- Node2&#45;&gt;Node3 -->
<g id="edge2_Node000002_Node000003" class="edge">
<title>Node2&#45;&gt;Node3</title>
<g id="a_edge2_Node000002_Node000003"><a xlink:title=" ">
<path fill="none" stroke="#63b8ff" d="M275.02,-204.04C287.44,-232.38 328.06,-316.93 388,-361.5 389.85,-362.88 391.81,-364.15 393.85,-365.33"/>
<polygon fill="#63b8ff" stroke="#63b8ff" points="392.65,-368.64 403.17,-369.92 395.74,-362.36 392.65,-368.64"/>
</a>
</g>
</g>
<!-- Node4 -->
<g id="Node000004" class="node">
<title>Node4</title>
<g id="a_Node000004"><a xlink:href="classCylBase.html#a8ee5f8e88924d3be2cdcc01c23efb2b9" target="_top" xlink:title=" ">
<polygon fill="white" stroke="#666666" points="499,-352 388,-352 388,-333 499,-333 499,-352"/>
<text text-anchor="middle" x="443.5" y="-340" font-family="Ubuntu Mono" font-size="10.00">CylBase::getLength</text>
</a>
</g>
</g>
<!-- Node2&#45;&gt;Node4 -->
<g id="edge3_Node000002_Node000004" class="edge">
<title>Node2&#45;&gt;Node4</title>
<g id="a_edge3_Node000002_Node000004"><a xlink:title=" ">
<path fill="none" stroke="#63b8ff" d="M277.1,-204.22C292.63,-228.19 336.14,-290.63 388,-324.5 390.42,-326.08 393,-327.54 395.66,-328.88"/>
<polygon fill="#63b8ff" stroke="#63b8ff" points="394.39,-332.14 404.95,-332.98 397.22,-325.74 394.39,-332.14"/>
</a>
</g>
</g>
<!-- Node5 -->
<g id="Node000005" class="node">
<title>Node5</title>
<g id="a_Node000005"><a xlink:href="classCylBase.html#af491e3aed441f4ff3ef112346d644ae7" target="_top" xlink:title=" ">
<polygon fill="white" stroke="#666666" points="486,-315 401,-315 401,-296 486,-296 486,-315"/>
<text text-anchor="middle" x="443.5" y="-303" font-family="Ubuntu Mono" font-size="10.00">CylBase::getX</text>
</a>
</g>
</g>
<!-- Node2&#45;&gt;Node5 -->
<g id="edge4_Node000002_Node000005" class="edge">
<title>Node2&#45;&gt;Node5</title>
<g id="a_edge4_Node000002_Node000005"><a xlink:title=" ">
<path fill="none" stroke="#63b8ff" d="M280.47,-204.01C299.36,-222.5 343.71,-263.57 388,-287.5 391.12,-289.19 394.42,-290.75 397.8,-292.19"/>
<polygon fill="#63b8ff" stroke="#63b8ff" points="396.84,-295.57 407.43,-295.95 399.38,-289.05 396.84,-295.57"/>
</a>
</g>
</g>
<!-- Node6 -->
<g id="Node000006" class="node">
<title>Node6</title>
<g id="a_Node000006"><a xlink:href="classCylBase.html#a6f27ed9266877bd74a114d8dcd133ef1" target="_top" xlink:title=" ">
<polygon fill="white" stroke="#666666" points="485.5,-278 401.5,-278 401.5,-259 485.5,-259 485.5,-278"/>
<text text-anchor="middle" x="443.5" y="-266" font-family="Ubuntu Mono" font-size="10.00">CylBase::getY</text>
</a>
</g>
</g>
<!-- Node2&#45;&gt;Node6 -->
<g id="edge5_Node000002_Node000006" class="edge">
<title>Node2&#45;&gt;Node6</title>
<g id="a_edge5_Node000002_Node000006"><a xlink:title=" ">
<path fill="none" stroke="#63b8ff" d="M289.32,-204.17C312.07,-215.96 352.28,-236.12 388,-250.5 392.45,-252.29 397.14,-254.04 401.84,-255.71"/>
<polygon fill="#63b8ff" stroke="#63b8ff" points="400.82,-259.06 411.41,-258.99 403.09,-252.44 400.82,-259.06"/>
</a>
</g>
</g>
<!-- Node7 -->
<g id="Node000007" class="node">
<title>Node7</title>
<g id="a_Node000007"><a xlink:href="classCylBase.html#af7d5df757eec9e32d3d1f8d6d738e2bc" target="_top" xlink:title=" ">
<polygon fill="white" stroke="#666666" points="486,-241 401,-241 401,-222 486,-222 486,-241"/>
<text text-anchor="middle" x="443.5" y="-229" font-family="Ubuntu Mono" font-size="10.00">CylBase::getZ</text>
</a>
</g>
</g>
<!-- Node2&#45;&gt;Node7 -->
<g id="edge6_Node000002_Node000007" class="edge">
<title>Node2&#45;&gt;Node7</title>
<g id="a_edge6_Node000002_Node000007"><a xlink:title=" ">
<path fill="none" stroke="#63b8ff" d="M315.17,-204.03C338.27,-209.01 366.68,-215.14 390.8,-220.35"/>
<polygon fill="#63b8ff" stroke="#63b8ff" points="390.33,-223.83 400.84,-222.51 391.81,-216.98 390.33,-223.83"/>
</a>
</g>
</g>
<!-- Node8 -->
<g id="Node000008" class="node">
<title>Node8</title>
<g id="a_Node000008"><a xlink:href="classCylBase.html#ad71cf34c5cc9298508ac5a3a49495c1b" target="_top" xlink:title=" ">
<polygon fill="white" stroke="#666666" points="490.5,-204 396.5,-204 396.5,-185 490.5,-185 490.5,-204"/>
<text text-anchor="middle" x="443.5" y="-192" font-family="Ubuntu Mono" font-size="10.00">CylBase::setDia</text>
</a>
</g>
</g>
<!-- Node2&#45;&gt;Node8 -->
<g id="edge7_Node000002_Node000008" class="edge">
<title>Node2&#45;&gt;Node8</title>
<g id="a_edge7_Node000002_Node000008"><a xlink:title=" ">
<path fill="none" stroke="#63b8ff" d="M333.4,-194.5C350.61,-194.5 369.18,-194.5 386.03,-194.5"/>
<polygon fill="#63b8ff" stroke="#63b8ff" points="386.28,-198 396.28,-194.5 386.28,-191 386.28,-198"/>
</a>
</g>
</g>
<!-- Node9 -->
<g id="Node000009" class="node">
<title>Node9</title>
<g id="a_Node000009"><a xlink:href="classCylBase.html#a2f3e181306038e72e051d44644f2464c" target="_top" xlink:title=" ">
<polygon fill="white" stroke="#666666" points="498.5,-167 388.5,-167 388.5,-148 498.5,-148 498.5,-167"/>
<text text-anchor="middle" x="443.5" y="-155" font-family="Ubuntu Mono" font-size="10.00">CylBase::setLength</text>
</a>
</g>
</g>
<!-- Node2&#45;&gt;Node9 -->
<g id="edge8_Node000002_Node000009" class="edge">
<title>Node2&#45;&gt;Node9</title>
<g id="a_edge8_Node000002_Node000009"><a xlink:title=" ">
<path fill="none" stroke="#63b8ff" d="M315.17,-184.97C337.48,-180.16 364.76,-174.27 388.33,-169.19"/>
<polygon fill="#63b8ff" stroke="#63b8ff" points="389.15,-172.59 398.19,-167.06 387.67,-165.75 389.15,-172.59"/>
</a>
</g>
</g>
<!-- Node10 -->
<g id="Node000010" class="node">
<title>Node10</title>
<g id="a_Node000010"><a xlink:href="classCylBase.html#aa9eba2525f9f0fcfa8ddc728402c5445" target="_top" xlink:title=" ">
<polygon fill="white" stroke="#666666" points="485.5,-130 401.5,-130 401.5,-111 485.5,-111 485.5,-130"/>
<text text-anchor="middle" x="443.5" y="-118" font-family="Ubuntu Mono" font-size="10.00">CylBase::setX</text>
</a>
</g>
</g>
<!-- Node2&#45;&gt;Node10 -->
<g id="edge9_Node000002_Node000010" class="edge">
<title>Node2&#45;&gt;Node10</title>
<g id="a_edge9_Node000002_Node000010"><a xlink:title=" ">
<path fill="none" stroke="#63b8ff" d="M332.14,-184.97C339.06,-182.72 345.84,-179.94 352,-176.5 372.04,-165.32 368.65,-151.83 388,-139.5 391.14,-137.5 394.52,-135.68 398,-134.03"/>
<polygon fill="#63b8ff" stroke="#63b8ff" points="399.53,-137.18 407.36,-130.05 396.79,-130.74 399.53,-137.18"/>
</a>
</g>
</g>
<!-- Node11 -->
<g id="Node000011" class="node">
<title>Node11</title>
<g id="a_Node000011"><a xlink:href="classCylBase.html#aa64b2e772df3c8180853ceb9998bf335" target="_top" xlink:title=" ">
<polygon fill="white" stroke="#666666" points="485,-93 402,-93 402,-74 485,-74 485,-93"/>
<text text-anchor="middle" x="443.5" y="-81" font-family="Ubuntu Mono" font-size="10.00">CylBase::setY</text>
</a>
</g>
</g>
<!-- Node2&#45;&gt;Node11 -->
<g id="edge10_Node000002_Node000011" class="edge">
<title>Node2&#45;&gt;Node11</title>
<g id="a_edge10_Node000002_Node000011"><a xlink:title=" ">
<path fill="none" stroke="#63b8ff" d="M333.37,-186.81C340.07,-184.23 346.46,-180.87 352,-176.5 380.71,-153.84 360.67,-126.8 388,-102.5 389.9,-100.81 391.96,-99.27 394.13,-97.86"/>
<polygon fill="#63b8ff" stroke="#63b8ff" points="395.8,-100.94 402.92,-93.09 392.46,-94.79 395.8,-100.94"/>
</a>
</g>
</g>
<!-- Node12 -->
<g id="Node000012" class="node">
<title>Node12</title>
<g id="a_Node000012"><a xlink:href="classCylBase.html#a7e32f372d601f29f92fcb86a74028188" target="_top" xlink:title=" ">
<polygon fill="white" stroke="#666666" points="485.5,-56 401.5,-56 401.5,-37 485.5,-37 485.5,-56"/>
<text text-anchor="middle" x="443.5" y="-44" font-family="Ubuntu Mono" font-size="10.00">CylBase::setZ</text>
</a>
</g>
</g>
<!-- Node2&#45;&gt;Node12 -->
<g id="edge11_Node000002_Node000012" class="edge">
<title>Node2&#45;&gt;Node12</title>
<g id="a_edge11_Node000002_Node000012"><a xlink:title=" ">
<path fill="none" stroke="#63b8ff" d="M333.18,-187.87C340.08,-185.13 346.56,-181.44 352,-176.5 390.37,-141.61 351.73,-102.57 388,-65.5 389.42,-64.05 390.95,-62.71 392.58,-61.47"/>
<polygon fill="#63b8ff" stroke="#63b8ff" points="394.64,-64.32 401.32,-56.1 390.97,-58.35 394.64,-64.32"/>
</a>
</g>
</g>
<!-- Node13 -->
<g id="Node000013" class="node">
<title>Node13</title>
<g id="a_Node000013"><a xlink:href="classCylBase.html#acdbbd3c619e3463a83c6e9c508a66249" target="_top" xlink:title="Returns vol of current node. Usually needs to refer to parent.">
<polygon fill="white" stroke="#666666" points="493,-19 394,-19 394,0 493,0 493,-19"/>
<text text-anchor="middle" x="443.5" y="-7" font-family="Ubuntu Mono" font-size="10.00">CylBase::volume</text>
</a>
</g>
</g>
<!-- Node2&#45;&gt;Node13 -->
<g id="edge12_Node000002_Node000013" class="edge">
<title>Node2&#45;&gt;Node13</title>
<g id="a_edge12_Node000002_Node000013"><a xlink:title=" ">
<path fill="none" stroke="#63b8ff" d="M333.14,-188.42C340.13,-185.6 346.65,-181.74 352,-176.5 400.34,-129.11 342.5,-78.63 388,-28.5 389.2,-27.17 390.51,-25.94 391.88,-24.79"/>
<polygon fill="#63b8ff" stroke="#63b8ff" points="394.08,-27.54 400.5,-19.12 390.23,-21.69 394.08,-27.54"/>
</a>
</g>
</g>
</g>
</svg>

<g id="navigator" transform="translate(0 0)" fill="#404254">
  <rect fill="#f2f5e9" fill-opacity="0.5" stroke="#606060" stroke-width=".5" x="0" y="0" width="60" height="60"/>
  <use id="zoomplus" xlink:href="#zoomPlus" x="17" y="9" onmousedown="handleZoom(evt,'in')"/>
  <use id="zoomminus" xlink:href="#zoomMin" x="42" y="9" onmousedown="handleZoom(evt,'out')"/>
  <use id="reset" xlink:href="#resetDef" x="30" y="36" onmousedown="handleReset()"/>
   <use id="arrowup" xlink:href="#arrowUp" x="0" y="0" onmousedown="handlePan(0,-1)"/>
  <use id="arrowright" xlink:href="#arrowRight" x="0" y="0" onmousedown="handlePan(1,0)"/>
  <use id="arrowdown" xlink:href="#arrowDown" x="0" y="0" onmousedown="handlePan(0,1)"/>
  <use id="arrowleft" xlink:href="#arrowLeft" x="0" y="0" onmousedown="handlePan(-1,0)"/>
</g>
<svg viewBox="0 0 15 15" width="100%" height="30px" preserveAspectRatio="xMaxYMin meet">
 <g id="arrow_out" transform="scale(0.3 0.3)">
  <a xlink:href="classSpineMesh_aea134dd6fb52a768e819e8d2574cab69_cgraph_org.svg" target="_base">
   <rect id="button" ry="5" rx="5" y="6" x="6" height="38" width="38"
        fill="#f2f5e9" fill-opacity="0.5" stroke="#606060" stroke-width="1.0"/>
   <path id="arrow"
     d="M 11.500037,31.436501 C 11.940474,20.09759 22.043105,11.32322 32.158766,21.979434 L 37.068811,17.246167 C 37.068811,17.246167 37.088388,32 37.088388,32 L 22.160133,31.978069 C 22.160133,31.978069 26.997745,27.140456 26.997745,27.140456 C 18.528582,18.264221 13.291696,25.230495 11.500037,31.436501 z"
     style="fill:#404040;"/>
  </a>
 </g>
</svg>

<style type='text/css'>
<![CDATA[
[data-mouse-over-selected='false'] { opacity: 0.7; }
[data-mouse-over-selected='true']  { opacity: 1.0; }
]]>
</style>
<script type="application/ecmascript"><![CDATA[
document.addEventListener('DOMContentLoaded', (event) => {
  highlightEdges();
  highlightAdjacentNodes();
});
]]></script>
</svg>
