<?xml version="1.0" encoding="UTF-8" standalone="no"?>
<!DOCTYPE svg PUBLIC "-//W3C//DTD SVG 1.1//EN"
 "http://www.w3.org/Graphics/SVG/1.1/DTD/svg11.dtd">
<!-- Generated by graphviz version 2.43.0 (0)
 -->
<!-- Title: Neuron::evalExprForElist Pages: 1 -->
<!--zoomable 176 -->

<svg id="main" version="1.1" xmlns="http://www.w3.org/2000/svg" xmlns:xlink="http://www.w3.org/1999/xlink" xml:space="preserve" onload="init(evt)">
<style type="text/css"><![CDATA[
.node, .edge {opacity: 0.7;}
.node.selected, .edge.selected {opacity: 1;}
.edge:hover path { stroke: red; }
.edge:hover polygon { stroke: red; fill: red; }
]]></style>

<defs>
  <circle id="rim" cx="0" cy="0" r="7"/>
  <circle id="rim2" cx="0" cy="0" r="3.5"/>
  <g id="zoomPlus">
    <use xlink:href="#rim" fill="#404040"><set attributeName="fill" to="#808080" begin="zoomplus.mouseover" end="zoomplus.mouseout"/></use>
    <path d="M-4,0h8M0,-4v8" fill="none" stroke="white" stroke-width="1.5" pointer-events="none"/>
  </g>
  <g id="zoomMin">
    <use xlink:href="#rim" fill="#404040"><set attributeName="fill" to="#808080" begin="zoomminus.mouseover" end="zoomminus.mouseout"/></use>
    <path d="M-4,0h8" fill="none" stroke="white" stroke-width="1.5" pointer-events="none"/>
  </g>
  <g id="arrowUp" transform="translate(30 24)">
    <use xlink:href="#rim"/>
    <path pointer-events="none" fill="none" stroke="white" stroke-width="1.5" d="M0,-3.0v7 M-2.5,-0.5L0,-3.0L2.5,-0.5"/>
  </g>
  <g id="arrowRight" transform="rotate(90) translate(36 -43)">
    <use xlink:href="#rim"/>
    <path pointer-events="none" fill="none" stroke="white" stroke-width="1.5" d="M0,-3.0v7 M-2.5,-0.5L0,-3.0L2.5,-0.5"/>
  </g>
  <g id="arrowDown" transform="rotate(180) translate(-30 -48)">
    <use xlink:href="#rim"/>
    <path pointer-events="none" fill="none" stroke="white" stroke-width="1.5" d="M0,-3.0v7 M-2.5,-0.5L0,-3.0L2.5,-0.5"/>
  </g>
  <g id="arrowLeft" transform="rotate(270) translate(-36 17)">
    <use xlink:href="#rim"/>
    <path pointer-events="none" fill="none" stroke="white" stroke-width="1.5" d="M0,-3.0v7 M-2.5,-0.5L0,-3.0L2.5,-0.5"/>
  </g>
  <g id="resetDef">
    <use xlink:href="#rim2" fill="#404040"><set attributeName="fill" to="#808080" begin="reset.mouseover" end="reset.mouseout"/></use>
  </g>
</defs>
<script type="application/ecmascript">
var viewWidth = 638;
var viewHeight = 176;
var sectionId = 'dynsection-8';
</script>
<script type="application/ecmascript" xlink:href="svg.min.js"/>
<svg id="graph" class="graph">
<g id="viewport">
<title>Neuron::evalExprForElist</title>
<!-- Node1 -->
<g id="Node000001" class="node">
<title>Node1</title>
<g id="a_Node000001"><a xlink:title=" ">
<polygon fill="#999999" stroke="#666666" points="630,-56 493,-56 493,-37 630,-37 630,-56"/>
<text text-anchor="middle" x="561.5" y="-44" font-family="Ubuntu Mono" font-size="10.00">Neuron::evalExprForElist</text>
</a>
</g>
</g>
<!-- Node2 -->
<g id="Node000002" class="node">
<title>Node2</title>
<g id="a_Node000002"><a xlink:href="classNeuron.html#a16e992d3d50696b5d9e5bded202398b8" target="_top" xlink:title=" ">
<polygon fill="white" stroke="#666666" points="450.5,-112 347.5,-112 347.5,-93 450.5,-93 450.5,-112"/>
<text text-anchor="middle" x="399" y="-100" font-family="Ubuntu Mono" font-size="10.00">Neuron::buildElist</text>
</a>
</g>
</g>
<!-- Node1&#45;&gt;Node2 -->
<g id="edge1_Node000001_Node000002" class="edge">
<title>Node1&#45;&gt;Node2</title>
<g id="a_edge1_Node000001_Node000002"><a xlink:title=" ">
<path fill="none" stroke="#63b8ff" d="M523.4,-59.44C494.03,-69.69 453.68,-83.77 427.23,-93"/>
<polygon fill="#63b8ff" stroke="#63b8ff" points="524.62,-62.73 532.91,-56.13 522.31,-56.12 524.62,-62.73"/>
</a>
</g>
</g>
<!-- Node7 -->
<g id="Node000007" class="node">
<title>Node7</title>
<g id="a_Node000007"><a xlink:href="classNeuron.html#ab691922aeaca232edf5ac050abad7ded" target="_top" xlink:title=" ">
<polygon fill="white" stroke="#666666" points="457,-56 341,-56 341,-37 457,-37 457,-56"/>
<text text-anchor="middle" x="399" y="-44" font-family="Ubuntu Mono" font-size="10.00">Neuron::getExprElist</text>
</a>
</g>
</g>
<!-- Node1&#45;&gt;Node7 -->
<g id="edge8_Node000001_Node000007" class="edge">
<title>Node1&#45;&gt;Node7</title>
<g id="a_edge8_Node000001_Node000007"><a xlink:title=" ">
<path fill="none" stroke="#63b8ff" d="M482.78,-46.5C474.13,-46.5 465.44,-46.5 457.12,-46.5"/>
<polygon fill="#63b8ff" stroke="#63b8ff" points="482.9,-50 492.9,-46.5 482.9,-43 482.9,-50"/>
</a>
</g>
</g>
<!-- Node8 -->
<g id="Node000008" class="node">
<title>Node8</title>
<g id="a_Node000008"><a xlink:href="classNeuron.html#a224304593cd2509d1ea0acc182148630" target="_top" xlink:title=" ">
<polygon fill="white" stroke="#666666" points="454,-19 344,-19 344,0 454,0 454,-19"/>
<text text-anchor="middle" x="399" y="-7" font-family="Ubuntu Mono" font-size="10.00">Neuron::getExprVal</text>
</a>
</g>
</g>
<!-- Node1&#45;&gt;Node8 -->
<g id="edge10_Node000001_Node000008" class="edge">
<title>Node1&#45;&gt;Node8</title>
<g id="a_edge10_Node000001_Node000008"><a xlink:title=" ">
<path fill="none" stroke="#63b8ff" d="M509.36,-34.71C487.45,-29.66 462.19,-23.84 441.47,-19.06"/>
<polygon fill="#63b8ff" stroke="#63b8ff" points="508.64,-38.14 519.17,-36.97 510.21,-31.31 508.64,-38.14"/>
</a>
</g>
</g>
<!-- Node3 -->
<g id="Node000003" class="node">
<title>Node3</title>
<g id="a_Node000003"><a xlink:href="classNeuron.html#a3bfd45614804470cba50d1862683eea8" target="_top" xlink:title=" ">
<polygon fill="white" stroke="#666666" points="305,-168 135,-168 135,-149 305,-149 305,-168"/>
<text text-anchor="middle" x="220" y="-156" font-family="Ubuntu Mono" font-size="10.00">Neuron::setChannelDistribution</text>
</a>
</g>
</g>
<!-- Node2&#45;&gt;Node3 -->
<g id="edge2_Node000002_Node000003" class="edge">
<title>Node2&#45;&gt;Node3</title>
<g id="a_edge2_Node000002_Node000003"><a xlink:title=" ">
<path fill="none" stroke="#63b8ff" d="M368.31,-116.2C350.29,-124.12 326.65,-133.81 305,-140.5 294.6,-143.71 283.3,-146.56 272.46,-148.98"/>
<polygon fill="#63b8ff" stroke="#63b8ff" points="369.99,-119.29 377.7,-112.02 367.14,-112.89 369.99,-119.29"/>
</a>
</g>
</g>
<!-- Node5 -->
<g id="Node000005" class="node">
<title>Node5</title>
<g id="a_Node000005"><a xlink:href="classNeuron.html#a16b48cc319ac10558c2ccb1d2c9ca75a" target="_top" xlink:title=" ">
<polygon fill="white" stroke="#666666" points="303.5,-131 136.5,-131 136.5,-112 303.5,-112 303.5,-131"/>
<text text-anchor="middle" x="220" y="-119" font-family="Ubuntu Mono" font-size="10.00">Neuron::setPassiveDistribution</text>
</a>
</g>
</g>
<!-- Node2&#45;&gt;Node5 -->
<g id="edge4_Node000002_Node000005" class="edge">
<title>Node2&#45;&gt;Node5</title>
<g id="a_edge4_Node000002_Node000005"><a xlink:title=" ">
<path fill="none" stroke="#63b8ff" d="M337.17,-109.03C326.42,-110.18 315.05,-111.4 303.81,-112.61"/>
<polygon fill="#63b8ff" stroke="#63b8ff" points="337.71,-112.49 347.28,-107.94 336.96,-105.53 337.71,-112.49"/>
</a>
</g>
</g>
<!-- Node6 -->
<g id="Node000006" class="node">
<title>Node6</title>
<g id="a_Node000006"><a xlink:href="classNeuron.html#ae6ffb87ff245f2f4eaaa0c1e5a1b6e39" target="_top" xlink:title=" ">
<polygon fill="white" stroke="#666666" points="298.5,-94 141.5,-94 141.5,-75 298.5,-75 298.5,-94"/>
<text text-anchor="middle" x="220" y="-82" font-family="Ubuntu Mono" font-size="10.00">Neuron::setSpineDistribution</text>
</a>
</g>
</g>
<!-- Node2&#45;&gt;Node6 -->
<g id="edge6_Node000002_Node000006" class="edge">
<title>Node2&#45;&gt;Node6</title>
<g id="a_edge6_Node000002_Node000006"><a xlink:title=" ">
<path fill="none" stroke="#63b8ff" d="M337.12,-96.31C324.78,-95.05 311.64,-93.72 298.8,-92.41"/>
<polygon fill="#63b8ff" stroke="#63b8ff" points="336.98,-99.81 347.28,-97.34 337.68,-92.85 336.98,-99.81"/>
</a>
</g>
</g>
<!-- Node4 -->
<g id="Node000004" class="node">
<title>Node4</title>
<g id="a_Node000004"><a xlink:href="classNeuron.html#a81197d09a302f2420430fe3f7874926f" target="_top" xlink:title=" ">
<polygon fill="white" stroke="#666666" points="99,-94 0,-94 0,-75 99,-75 99,-94"/>
<text text-anchor="middle" x="49.5" y="-82" font-family="Ubuntu Mono" font-size="10.00">Neuron::initCinfo</text>
</a>
</g>
</g>
<!-- Node3&#45;&gt;Node4 -->
<g id="edge3_Node000003_Node000004" class="edge">
<title>Node3&#45;&gt;Node4</title>
<g id="a_edge3_Node000003_Node000004"><a xlink:title=" ">
<path fill="none" stroke="#63b8ff" d="M150.87,-146.2C145.42,-144.52 140.07,-142.63 135,-140.5 106.61,-128.56 77.55,-106.77 62,-94.18"/>
<polygon fill="#63b8ff" stroke="#63b8ff" points="150.16,-149.64 160.74,-148.99 152.07,-142.9 150.16,-149.64"/>
</a>
</g>
</g>
<!-- Node5&#45;&gt;Node4 -->
<g id="edge5_Node000005_Node000004" class="edge">
<title>Node5&#45;&gt;Node4</title>
<g id="a_edge5_Node000005_Node000004"><a xlink:title=" ">
<path fill="none" stroke="#63b8ff" d="M164.11,-109.82C154.41,-107.73 144.41,-105.57 135,-103.5 121.19,-100.47 106.13,-97.1 92.6,-94.05"/>
<polygon fill="#63b8ff" stroke="#63b8ff" points="163.57,-113.28 174.08,-111.96 165.04,-106.44 163.57,-113.28"/>
</a>
</g>
</g>
<!-- Node6&#45;&gt;Node4 -->
<g id="edge7_Node000006_Node000004" class="edge">
<title>Node6&#45;&gt;Node4</title>
<g id="a_edge7_Node000006_Node000004"><a xlink:title=" ">
<path fill="none" stroke="#63b8ff" d="M131.08,-84.5C120.1,-84.5 109.2,-84.5 99.14,-84.5"/>
<polygon fill="#63b8ff" stroke="#63b8ff" points="131.16,-88 141.16,-84.5 131.16,-81 131.16,-88"/>
</a>
</g>
</g>
<!-- Node7&#45;&gt;Node4 -->
<g id="edge9_Node000007_Node000004" class="edge">
<title>Node7&#45;&gt;Node4</title>
<g id="a_edge9_Node000007_Node000004"><a xlink:title=" ">
<path fill="none" stroke="#63b8ff" d="M330.8,-49.13C277.5,-51.81 201.21,-56.97 135,-66.5 120.15,-68.64 104.01,-71.85 89.85,-74.97"/>
<polygon fill="#63b8ff" stroke="#63b8ff" points="330.99,-52.62 340.81,-48.64 330.65,-45.63 330.99,-52.62"/>
</a>
</g>
</g>
<!-- Node8&#45;&gt;Node4 -->
<g id="edge11_Node000008_Node000004" class="edge">
<title>Node8&#45;&gt;Node4</title>
<g id="a_edge11_Node000008_Node000004"><a xlink:title=" ">
<path fill="none" stroke="#63b8ff" d="M333.82,-13.44C279.91,-17.95 201.27,-27.36 135,-46.5 110.74,-53.51 84.45,-66.21 67.75,-74.99"/>
<polygon fill="#63b8ff" stroke="#63b8ff" points="334.24,-16.92 343.93,-12.63 333.68,-9.94 334.24,-16.92"/>
</a>
</g>
</g>
</g>
</svg>

<g id="navigator" transform="translate(0 0)" fill="#404254">
  <rect fill="#f2f5e9" fill-opacity="0.5" stroke="#606060" stroke-width=".5" x="0" y="0" width="60" height="60"/>
  <use id="zoomplus" xlink:href="#zoomPlus" x="17" y="9" onmousedown="handleZoom(evt,'in')"/>
  <use id="zoomminus" xlink:href="#zoomMin" x="42" y="9" onmousedown="handleZoom(evt,'out')"/>
  <use id="reset" xlink:href="#resetDef" x="30" y="36" onmousedown="handleReset()"/>
   <use id="arrowup" xlink:href="#arrowUp" x="0" y="0" onmousedown="handlePan(0,-1)"/>
  <use id="arrowright" xlink:href="#arrowRight" x="0" y="0" onmousedown="handlePan(1,0)"/>
  <use id="arrowdown" xlink:href="#arrowDown" x="0" y="0" onmousedown="handlePan(0,1)"/>
  <use id="arrowleft" xlink:href="#arrowLeft" x="0" y="0" onmousedown="handlePan(-1,0)"/>
</g>
<svg viewBox="0 0 15 15" width="100%" height="30px" preserveAspectRatio="xMaxYMin meet">
 <g id="arrow_out" transform="scale(0.3 0.3)">
  <a xlink:href="classNeuron_a8824baf3c8d43aa38e3aaa9a3b32073e_icgraph_org.svg" target="_base">
   <rect id="button" ry="5" rx="5" y="6" x="6" height="38" width="38"
        fill="#f2f5e9" fill-opacity="0.5" stroke="#606060" stroke-width="1.0"/>
   <path id="arrow"
     d="M 11.500037,31.436501 C 11.940474,20.09759 22.043105,11.32322 32.158766,21.979434 L 37.068811,17.246167 C 37.068811,17.246167 37.088388,32 37.088388,32 L 22.160133,31.978069 C 22.160133,31.978069 26.997745,27.140456 26.997745,27.140456 C 18.528582,18.264221 13.291696,25.230495 11.500037,31.436501 z"
     style="fill:#404040;"/>
  </a>
 </g>
</svg>

<style type='text/css'>
<![CDATA[
[data-mouse-over-selected='false'] { opacity: 0.7; }
[data-mouse-over-selected='true']  { opacity: 1.0; }
]]>
</style>
<script type="application/ecmascript"><![CDATA[
document.addEventListener('DOMContentLoaded', (event) => {
  highlightEdges();
  highlightAdjacentNodes();
});
]]></script>
</svg>
