<?xml version="1.0" encoding="UTF-8" standalone="no"?>
<!DOCTYPE svg PUBLIC "-//W3C//DTD SVG 1.1//EN"
 "http://www.w3.org/Graphics/SVG/1.1/DTD/svg11.dtd">
<!-- Generated by graphviz version 2.43.0 (0)
 -->
<!-- Title: Stoich::getEnzK3 Pages: 1 -->
<svg width="561pt" height="101pt"
 viewBox="0.00 0.00 561.00 101.00" xmlns="http://www.w3.org/2000/svg" xmlns:xlink="http://www.w3.org/1999/xlink">
<g id="graph0" class="graph" transform="scale(1 1) rotate(0) translate(4 97)">
<title>Stoich::getEnzK3</title>
<!-- Node1 -->
<g id="Node000001" class="node">
<title>Node1</title>
<g id="a_Node000001"><a xlink:title="Get rate k3, aka kcat, for enzyme.">
<polygon fill="#999999" stroke="#666666" points="98,-55 0,-55 0,-36 98,-36 98,-55"/>
<text text-anchor="middle" x="49" y="-43" font-family="Ubuntu Mono" font-size="10.00">Stoich::getEnzK3</text>
</a>
</g>
</g>
<!-- Node2 -->
<g id="Node000002" class="node">
<title>Node2</title>
<g id="a_Node000002"><a xlink:href="classStoich.html#a4d6ead42de3f2b8f6e9d2c6d305e95ef" target="_top" xlink:title=" ">
<polygon fill="white" stroke="#666666" points="249,-74 134,-74 134,-55 249,-55 249,-74"/>
<text text-anchor="middle" x="191.5" y="-62" font-family="Ubuntu Mono" font-size="10.00">Stoich::getR1offset1</text>
</a>
</g>
</g>
<!-- Node1&#45;&gt;Node2 -->
<g id="edge1_Node000001_Node000002" class="edge">
<title>Node1&#45;&gt;Node2</title>
<g id="a_edge1_Node000001_Node000002"><a xlink:title=" ">
<path fill="none" stroke="#63b8ff" d="M98.35,-52.04C106.57,-53.15 115.23,-54.32 123.82,-55.48"/>
<polygon fill="#63b8ff" stroke="#63b8ff" points="123.46,-58.97 133.83,-56.84 124.39,-52.03 123.46,-58.97"/>
</a>
</g>
</g>
<!-- Node7 -->
<g id="Node000007" class="node">
<title>Node7</title>
<g id="a_Node000007"><a xlink:href="classStoich.html#a458909a88e7567997387a6bd9d33322e" target="_top" xlink:title=" ">
<polygon fill="white" stroke="#666666" points="249,-37 134,-37 134,-18 249,-18 249,-37"/>
<text text-anchor="middle" x="191.5" y="-25" font-family="Ubuntu Mono" font-size="10.00">Stoich::getR1offset2</text>
</a>
</g>
</g>
<!-- Node1&#45;&gt;Node7 -->
<g id="edge6_Node000001_Node000007" class="edge">
<title>Node1&#45;&gt;Node7</title>
<g id="a_edge6_Node000001_Node000007"><a xlink:title=" ">
<path fill="none" stroke="#63b8ff" d="M98.35,-39.31C106.57,-38.25 115.23,-37.14 123.82,-36.04"/>
<polygon fill="#63b8ff" stroke="#63b8ff" points="124.36,-39.5 133.83,-34.76 123.47,-32.56 124.36,-39.5"/>
</a>
</g>
</g>
<!-- Node3 -->
<g id="Node000003" class="node">
<title>Node3</title>
<g id="a_Node000003"><a xlink:href="classStoich.html#aec594bfef9a6dc7c12bb6683bbbdaccb" target="_top" xlink:title=" ">
<polygon fill="white" stroke="#666666" points="445,-93 285,-93 285,-74 445,-74 445,-93"/>
<text text-anchor="middle" x="365" y="-81" font-family="Ubuntu Mono" font-size="10.00">Stoich::convertIdToReacIndex</text>
</a>
</g>
</g>
<!-- Node2&#45;&gt;Node3 -->
<g id="edge2_Node000002_Node000003" class="edge">
<title>Node2&#45;&gt;Node3</title>
<g id="a_edge2_Node000002_Node000003"><a xlink:title=" ">
<path fill="none" stroke="#63b8ff" d="M249.13,-70.77C257.34,-71.68 265.94,-72.64 274.6,-73.6"/>
<polygon fill="#63b8ff" stroke="#63b8ff" points="274.44,-77.1 284.77,-74.72 275.21,-70.14 274.44,-77.1"/>
</a>
</g>
</g>
<!-- Node4 -->
<g id="Node000004" class="node">
<title>Node4</title>
<g id="a_Node000004"><a xlink:href="classRateTerm.html#a59765605f8379adff7e8d53f9fa691e3" target="_top" xlink:title="Used by Zombie to return rate terms.">
<polygon fill="white" stroke="#666666" points="414,-56 316,-56 316,-37 414,-37 414,-56"/>
<text text-anchor="middle" x="365" y="-44" font-family="Ubuntu Mono" font-size="10.00">RateTerm::getR1</text>
</a>
</g>
</g>
<!-- Node2&#45;&gt;Node4 -->
<g id="edge3_Node000002_Node000004" class="edge">
<title>Node2&#45;&gt;Node4</title>
<g id="a_edge3_Node000002_Node000004"><a xlink:title=" ">
<path fill="none" stroke="#63b8ff" d="M249.13,-58.56C267.32,-56.65 287.5,-54.53 305.8,-52.61"/>
<polygon fill="#63b8ff" stroke="#63b8ff" points="306.18,-56.09 315.76,-51.56 305.45,-49.13 306.18,-56.09"/>
</a>
</g>
</g>
<!-- Node5 -->
<g id="Node000005" class="node">
<title>Node5</title>
<g id="a_Node000005"><a xlink:href="classEref.html#aa96699f886e00b8eb3759c71cc8747bb" target="_top" xlink:title=" ">
<polygon fill="white" stroke="#666666" points="390,-19 340,-19 340,0 390,0 390,-19"/>
<text text-anchor="middle" x="365" y="-7" font-family="Ubuntu Mono" font-size="10.00">Eref::id</text>
</a>
</g>
</g>
<!-- Node2&#45;&gt;Node5 -->
<g id="edge4_Node000002_Node000005" class="edge">
<title>Node2&#45;&gt;Node5</title>
<g id="a_edge4_Node000002_Node000005"><a xlink:title=" ">
<path fill="none" stroke="#63b8ff" d="M225.37,-54.98C233.2,-52.45 241.47,-49.56 249,-46.5 265.57,-39.76 268.19,-34.63 285,-28.5 299.4,-23.25 315.8,-19.03 329.91,-15.92"/>
<polygon fill="#63b8ff" stroke="#63b8ff" points="330.67,-19.34 339.73,-13.85 329.22,-12.49 330.67,-19.34"/>
</a>
</g>
</g>
<!-- Node6 -->
<g id="Node000006" class="node">
<title>Node6</title>
<g id="a_Node000006"><a xlink:href="classElement.html#a934907c01faf58e21f545d53a54cfefc" target="_top" xlink:title=" ">
<polygon fill="white" stroke="#666666" points="553,-19 481,-19 481,0 553,0 553,-19"/>
<text text-anchor="middle" x="517" y="-7" font-family="Ubuntu Mono" font-size="10.00">Element::id</text>
</a>
</g>
</g>
<!-- Node5&#45;&gt;Node6 -->
<g id="edge5_Node000005_Node000006" class="edge">
<title>Node5&#45;&gt;Node6</title>
<g id="a_edge5_Node000005_Node000006"><a xlink:title=" ">
<path fill="none" stroke="#63b8ff" d="M390.1,-9.5C411.74,-9.5 444.09,-9.5 470.57,-9.5"/>
<polygon fill="#63b8ff" stroke="#63b8ff" points="470.77,-13 480.77,-9.5 470.77,-6 470.77,-13"/>
</a>
</g>
</g>
<!-- Node7&#45;&gt;Node3 -->
<g id="edge7_Node000007_Node000003" class="edge">
<title>Node7&#45;&gt;Node3</title>
<g id="a_edge7_Node000007_Node000003"><a xlink:title=" ">
<path fill="none" stroke="#63b8ff" d="M223.92,-37.07C232.18,-39.85 241.01,-43.07 249,-46.5 265.63,-53.63 268.04,-59.21 285,-65.5 290.8,-67.65 296.94,-69.59 303.13,-71.33"/>
<polygon fill="#63b8ff" stroke="#63b8ff" points="302.29,-74.73 312.85,-73.91 304.08,-67.96 302.29,-74.73"/>
</a>
</g>
</g>
<!-- Node7&#45;&gt;Node4 -->
<g id="edge8_Node000007_Node000004" class="edge">
<title>Node7&#45;&gt;Node4</title>
<g id="a_edge8_Node000007_Node000004"><a xlink:title=" ">
<path fill="none" stroke="#63b8ff" d="M249.13,-33.77C267.32,-35.79 287.5,-38.02 305.8,-40.05"/>
<polygon fill="#63b8ff" stroke="#63b8ff" points="305.43,-43.53 315.76,-41.16 306.2,-36.58 305.43,-43.53"/>
</a>
</g>
</g>
<!-- Node7&#45;&gt;Node5 -->
<g id="edge9_Node000007_Node000005" class="edge">
<title>Node7&#45;&gt;Node5</title>
<g id="a_edge9_Node000007_Node000005"><a xlink:title=" ">
<path fill="none" stroke="#63b8ff" d="M249.13,-21.56C275.87,-18.75 306.89,-15.49 329.95,-13.07"/>
<polygon fill="#63b8ff" stroke="#63b8ff" points="330.36,-16.55 339.94,-12.03 329.63,-9.59 330.36,-16.55"/>
</a>
</g>
</g>
</g>
</svg>
