<?xml version="1.0" encoding="UTF-8" standalone="no"?>
<!DOCTYPE svg PUBLIC "-//W3C//DTD SVG 1.1//EN"
 "http://www.w3.org/Graphics/SVG/1.1/DTD/svg11.dtd">
<!-- Generated by graphviz version 2.43.0 (0)
 -->
<!-- Title: HHGateF::setAlpha Pages: 1 -->
<!--zoomable 738 -->

<svg id="main" version="1.1" xmlns="http://www.w3.org/2000/svg" xmlns:xlink="http://www.w3.org/1999/xlink" xml:space="preserve" onload="init(evt)">
<style type="text/css"><![CDATA[
.node, .edge {opacity: 0.7;}
.node.selected, .edge.selected {opacity: 1;}
.edge:hover path { stroke: red; }
.edge:hover polygon { stroke: red; fill: red; }
]]></style>

<defs>
  <circle id="rim" cx="0" cy="0" r="7"/>
  <circle id="rim2" cx="0" cy="0" r="3.5"/>
  <g id="zoomPlus">
    <use xlink:href="#rim" fill="#404040"><set attributeName="fill" to="#808080" begin="zoomplus.mouseover" end="zoomplus.mouseout"/></use>
    <path d="M-4,0h8M0,-4v8" fill="none" stroke="white" stroke-width="1.5" pointer-events="none"/>
  </g>
  <g id="zoomMin">
    <use xlink:href="#rim" fill="#404040"><set attributeName="fill" to="#808080" begin="zoomminus.mouseover" end="zoomminus.mouseout"/></use>
    <path d="M-4,0h8" fill="none" stroke="white" stroke-width="1.5" pointer-events="none"/>
  </g>
  <g id="arrowUp" transform="translate(30 24)">
    <use xlink:href="#rim"/>
    <path pointer-events="none" fill="none" stroke="white" stroke-width="1.5" d="M0,-3.0v7 M-2.5,-0.5L0,-3.0L2.5,-0.5"/>
  </g>
  <g id="arrowRight" transform="rotate(90) translate(36 -43)">
    <use xlink:href="#rim"/>
    <path pointer-events="none" fill="none" stroke="white" stroke-width="1.5" d="M0,-3.0v7 M-2.5,-0.5L0,-3.0L2.5,-0.5"/>
  </g>
  <g id="arrowDown" transform="rotate(180) translate(-30 -48)">
    <use xlink:href="#rim"/>
    <path pointer-events="none" fill="none" stroke="white" stroke-width="1.5" d="M0,-3.0v7 M-2.5,-0.5L0,-3.0L2.5,-0.5"/>
  </g>
  <g id="arrowLeft" transform="rotate(270) translate(-36 17)">
    <use xlink:href="#rim"/>
    <path pointer-events="none" fill="none" stroke="white" stroke-width="1.5" d="M0,-3.0v7 M-2.5,-0.5L0,-3.0L2.5,-0.5"/>
  </g>
  <g id="resetDef">
    <use xlink:href="#rim2" fill="#404040"><set attributeName="fill" to="#808080" begin="reset.mouseover" end="reset.mouseout"/></use>
  </g>
</defs>
<script type="application/ecmascript">
var viewWidth = 1256;
var viewHeight = 738;
var sectionId = 'dynsection-11';
</script>
<script type="application/ecmascript" xlink:href="svg.min.js"/>
<svg id="graph" class="graph">
<g id="viewport">
<title>HHGateF::setAlpha</title>
<!-- Node1 -->
<g id="Node000001" class="node">
<title>Node1</title>
<g id="a_Node000001"><a xlink:title="Set the expression for evaluating alpha.">
<polygon fill="#999999" stroke="#666666" points="109,-38 0,-38 0,-19 109,-19 109,-38"/>
<text text-anchor="middle" x="54.5" y="-26" font-family="Ubuntu Mono" font-size="10.00">HHGateF::setAlpha</text>
</a>
</g>
</g>
<!-- Node2 -->
<g id="Node000002" class="node">
<title>Node2</title>
<g id="a_Node000002"><a xlink:href="classHHGateBase.html#af5ec33b1a27dff42b92dd43ad2d2f0fa" target="_top" xlink:title=" ">
<polygon fill="white" stroke="#666666" points="297,-57 145,-57 145,-38 297,-38 297,-57"/>
<text text-anchor="middle" x="221" y="-45" font-family="Ubuntu Mono" font-size="10.00">HHGateBase::checkOriginal</text>
</a>
</g>
</g>
<!-- Node1&#45;&gt;Node2 -->
<g id="edge1_Node000001_Node000002" class="edge">
<title>Node1&#45;&gt;Node2</title>
<g id="a_edge1_Node000001_Node000002"><a xlink:title=" ">
<path fill="none" stroke="#63b8ff" d="M109.36,-34.72C117.51,-35.66 126.09,-36.65 134.7,-37.65"/>
<polygon fill="#63b8ff" stroke="#63b8ff" points="134.48,-41.15 144.82,-38.82 135.28,-34.19 134.48,-41.15"/>
</a>
</g>
</g>
<!-- Node36 -->
<g id="Node000036" class="node">
<title>Node36</title>
<g id="a_Node000036"><a xlink:href="classEref.html#aa96699f886e00b8eb3759c71cc8747bb" target="_top" xlink:title=" ">
<polygon fill="white" stroke="#666666" points="384.5,-19 334.5,-19 334.5,0 384.5,0 384.5,-19"/>
<text text-anchor="middle" x="359.5" y="-7" font-family="Ubuntu Mono" font-size="10.00">Eref::id</text>
</a>
</g>
</g>
<!-- Node1&#45;&gt;Node36 -->
<g id="edge43_Node000001_Node000036" class="edge">
<title>Node1&#45;&gt;Node36</title>
<g id="a_edge43_Node000001_Node000036"><a xlink:title=" ">
<path fill="none" stroke="#63b8ff" d="M109.32,-25.13C171.53,-21.22 272.04,-14.92 324.37,-11.64"/>
<polygon fill="#63b8ff" stroke="#63b8ff" points="324.71,-15.13 334.47,-11.01 324.27,-8.14 324.71,-15.13"/>
</a>
</g>
</g>
<!-- Node3 -->
<g id="Node000003" class="node">
<title>Node3</title>
<g id="a_Node000003"><a xlink:href="classId.html#a38206d79367649ab0056b93e6da3b789" target="_top" xlink:title=" ">
<polygon fill="white" stroke="#666666" points="819.5,-95 730.5,-95 730.5,-76 819.5,-76 819.5,-95"/>
<text text-anchor="middle" x="775" y="-83" font-family="Ubuntu Mono" font-size="10.00">Id::operator==</text>
</a>
</g>
</g>
<!-- Node2&#45;&gt;Node3 -->
<g id="edge2_Node000002_Node000003" class="edge">
<title>Node2&#45;&gt;Node3</title>
<g id="a_edge2_Node000002_Node000003"><a xlink:title=" ">
<path fill="none" stroke="#63b8ff" d="M297.02,-52.66C410.05,-60.45 621.29,-74.99 720.26,-81.8"/>
<polygon fill="#63b8ff" stroke="#63b8ff" points="720.11,-85.3 730.33,-82.49 720.6,-78.32 720.11,-85.3"/>
</a>
</g>
</g>
<!-- Node4 -->
<g id="Node000004" class="node">
<title>Node4</title>
<g id="a_Node000004"><a xlink:href="classId.html#ad0984685af5a98bc7aa429b03a97bd01" target="_top" xlink:title=" ">
<polygon fill="white" stroke="#666666" points="386,-410 333,-410 333,-391 386,-391 386,-410"/>
<text text-anchor="middle" x="359.5" y="-398" font-family="Ubuntu Mono" font-size="10.00">Id::path</text>
</a>
</g>
</g>
<!-- Node2&#45;&gt;Node4 -->
<g id="edge3_Node000002_Node000004" class="edge">
<title>Node2&#45;&gt;Node4</title>
<g id="a_edge3_Node000002_Node000004"><a xlink:title=" ">
<path fill="none" stroke="#63b8ff" d="M225.79,-57.31C244.39,-105.41 326.06,-316.62 351.15,-381.48"/>
<polygon fill="#63b8ff" stroke="#63b8ff" points="347.92,-382.84 354.79,-390.9 354.45,-380.31 347.92,-382.84"/>
</a>
</g>
</g>
<!-- Node5 -->
<g id="Node000005" class="node">
<title>Node5</title>
<g id="a_Node000005"><a xlink:href="classId.html#adac7a40d04024a7b9dcb7eae7b9fdf9b" target="_top" xlink:title=" ">
<polygon fill="white" stroke="#666666" points="618.5,-730 567.5,-730 567.5,-711 618.5,-711 618.5,-730"/>
<text text-anchor="middle" x="593" y="-718" font-family="Ubuntu Mono" font-size="10.00">Id::eref</text>
</a>
</g>
</g>
<!-- Node4&#45;&gt;Node5 -->
<g id="edge4_Node000004_Node000005" class="edge">
<title>Node4&#45;&gt;Node5</title>
<g id="a_edge4_Node000004_Node000005"><a xlink:title=" ">
<path fill="none" stroke="#63b8ff" d="M363.33,-410.01C376.14,-451.34 432.6,-617.16 538,-702.5 543.62,-707.05 550.45,-710.48 557.33,-713.04"/>
<polygon fill="#63b8ff" stroke="#63b8ff" points="556.72,-716.52 567.31,-716.22 558.84,-709.85 556.72,-716.52"/>
</a>
</g>
</g>
<!-- Node8 -->
<g id="Node000008" class="node">
<title>Node8</title>
<g id="a_Node000008"><a xlink:href="classNeutral.html#a93bee6d27f95c8c4c7eb3640cd883a98" target="_top" xlink:title=" ">
<polygon fill="white" stroke="#666666" points="502,-410 422,-410 422,-391 502,-391 502,-410"/>
<text text-anchor="middle" x="462" y="-398" font-family="Ubuntu Mono" font-size="10.00">Neutral::path</text>
</a>
</g>
</g>
<!-- Node4&#45;&gt;Node8 -->
<g id="edge7_Node000004_Node000008" class="edge">
<title>Node4&#45;&gt;Node8</title>
<g id="a_edge7_Node000004_Node000008"><a xlink:title=" ">
<path fill="none" stroke="#63b8ff" d="M386.12,-400.5C393.9,-400.5 402.71,-400.5 411.5,-400.5"/>
<polygon fill="#63b8ff" stroke="#63b8ff" points="411.74,-404 421.74,-400.5 411.74,-397 411.74,-404"/>
</a>
</g>
</g>
<!-- Node6 -->
<g id="Node000006" class="node">
<title>Node6</title>
<g id="a_Node000006"><a xlink:href="classId.html#a2d5e7b4d5d918aadfe45102691c2be27" target="_top" xlink:title=" ">
<polygon fill="white" stroke="#666666" points="1248,-693 1171,-693 1171,-674 1248,-674 1248,-693"/>
<text text-anchor="middle" x="1209.5" y="-681" font-family="Ubuntu Mono" font-size="10.00">Id::elements</text>
</a>
</g>
</g>
<!-- Node5&#45;&gt;Node6 -->
<g id="edge5_Node000005_Node000006" class="edge">
<title>Node5&#45;&gt;Node6</title>
<g id="a_edge5_Node000005_Node000006"><a xlink:title=" ">
<path fill="none" stroke="#63b8ff" d="M618.85,-719C711.36,-713.43 1036.79,-693.84 1160.39,-686.4"/>
<polygon fill="#63b8ff" stroke="#63b8ff" points="1160.9,-689.87 1170.67,-685.78 1160.48,-682.89 1160.9,-689.87"/>
</a>
</g>
</g>
<!-- Node7 -->
<g id="Node000007" class="node">
<title>Node7</title>
<g id="a_Node000007"><a xlink:href="classEref.html#a3addb850bc6cbac7771a07de219d909d" target="_top" xlink:title=" ">
<polygon fill="white" stroke="#666666" points="805.5,-693 744.5,-693 744.5,-674 805.5,-674 805.5,-693"/>
<text text-anchor="middle" x="775" y="-681" font-family="Ubuntu Mono" font-size="10.00">Eref::Eref</text>
</a>
</g>
</g>
<!-- Node5&#45;&gt;Node7 -->
<g id="edge6_Node000005_Node000007" class="edge">
<title>Node5&#45;&gt;Node7</title>
<g id="a_edge6_Node000005_Node000007"><a xlink:title=" ">
<path fill="none" stroke="#63b8ff" d="M618.65,-715.43C648.45,-709.31 698.97,-698.92 734.29,-691.66"/>
<polygon fill="#63b8ff" stroke="#63b8ff" points="735.18,-695.05 744.27,-689.61 733.77,-688.2 735.18,-695.05"/>
</a>
</g>
</g>
<!-- Node9 -->
<g id="Node000009" class="node">
<title>Node9</title>
<g id="a_Node000009"><a xlink:href="classEref.html#a47b59ab86165cceb0bde80c76c3f7fa2" target="_top" xlink:title=" ">
<polygon fill="white" stroke="#666666" points="634,-543 552,-543 552,-524 634,-524 634,-543"/>
<text text-anchor="middle" x="593" y="-531" font-family="Ubuntu Mono" font-size="10.00">Eref::element</text>
</a>
</g>
</g>
<!-- Node8&#45;&gt;Node9 -->
<g id="edge8_Node000008_Node000009" class="edge">
<title>Node8&#45;&gt;Node9</title>
<g id="a_edge8_Node000008_Node000009"><a xlink:title=" ">
<path fill="none" stroke="#63b8ff" d="M467.42,-410.27C477.28,-431.13 503.01,-480.44 538,-509.5 542.65,-513.36 548.02,-516.72 553.54,-519.6"/>
<polygon fill="#63b8ff" stroke="#63b8ff" points="552.31,-522.89 562.85,-524 555.3,-516.56 552.31,-522.89"/>
</a>
</g>
</g>
<!-- Node10 -->
<g id="Node000010" class="node">
<title>Node10</title>
<g id="a_Node000010"><a xlink:href="classObjId.html#ad87d6d712e4bceb381d1d324aa137d6e" target="_top" xlink:title=" ">
<polygon fill="white" stroke="#666666" points="991,-579 902,-579 902,-560 991,-560 991,-579"/>
<text text-anchor="middle" x="946.5" y="-567" font-family="Ubuntu Mono" font-size="10.00">ObjId::element</text>
</a>
</g>
</g>
<!-- Node8&#45;&gt;Node10 -->
<g id="edge9_Node000008_Node000010" class="edge">
<title>Node8&#45;&gt;Node10</title>
<g id="a_edge9_Node000008_Node000010"><a xlink:title=" ">
<path fill="none" stroke="#63b8ff" d="M471.68,-410.32C484.69,-424.42 510.66,-450.29 538,-464.5 655.65,-525.65 811.29,-552.87 891.93,-563.53"/>
<polygon fill="#63b8ff" stroke="#63b8ff" points="891.49,-567 901.86,-564.81 892.39,-560.06 891.49,-567"/>
</a>
</g>
</g>
<!-- Node12 -->
<g id="Node000012" class="node">
<title>Node12</title>
<g id="a_Node000012"><a xlink:href="classObjId.html#a76a3d4b89944235a24eff983030a5e91" target="_top" xlink:title=" ">
<polygon fill="white" stroke="#666666" points="627,-693 559,-693 559,-674 627,-674 627,-693"/>
<text text-anchor="middle" x="593" y="-681" font-family="Ubuntu Mono" font-size="10.00">ObjId::eref</text>
</a>
</g>
</g>
<!-- Node8&#45;&gt;Node12 -->
<g id="edge12_Node000008_Node000012" class="edge">
<title>Node8&#45;&gt;Node12</title>
<g id="a_edge12_Node000008_Node000012"><a xlink:title=" ">
<path fill="none" stroke="#63b8ff" d="M465.15,-410.06C475.37,-455.24 519.38,-646.01 538,-665.5 541.24,-668.89 545.12,-671.64 549.31,-673.87"/>
<polygon fill="#63b8ff" stroke="#63b8ff" points="548.26,-677.23 558.83,-677.98 551.04,-670.8 548.26,-677.23"/>
</a>
</g>
</g>
<!-- Node13 -->
<g id="Node000013" class="node">
<title>Node13</title>
<g id="a_Node000013"><a xlink:href="classEref.html#aed748cb72c986c869e4c650dd28d8d02" target="_top" xlink:title=" ">
<polygon fill="white" stroke="#666666" points="637.5,-355 548.5,-355 548.5,-336 637.5,-336 637.5,-355"/>
<text text-anchor="middle" x="593" y="-343" font-family="Ubuntu Mono" font-size="10.00">Eref::fieldIndex</text>
</a>
</g>
</g>
<!-- Node8&#45;&gt;Node13 -->
<g id="edge15_Node000008_Node000013" class="edge">
<title>Node8&#45;&gt;Node13</title>
<g id="a_edge15_Node000008_Node000013"><a xlink:title=" ">
<path fill="none" stroke="#63b8ff" d="M480.57,-390.98C495.57,-383.06 517.86,-371.78 538,-363.5 542.23,-361.76 546.69,-360.06 551.16,-358.45"/>
<polygon fill="#63b8ff" stroke="#63b8ff" points="552.6,-361.66 560.89,-355.06 550.3,-355.05 552.6,-361.66"/>
</a>
</g>
</g>
<!-- Node14 -->
<g id="Node000014" class="node">
<title>Node14</title>
<g id="a_Node000014"><a xlink:href="classElement.html#a3c07cf6355e6127827ce67682e3bb2a0" target="_top" xlink:title=" ">
<polygon fill="white" stroke="#666666" points="648,-429 538,-429 538,-410 648,-410 648,-429"/>
<text text-anchor="middle" x="593" y="-417" font-family="Ubuntu Mono" font-size="10.00">Element::findCaller</text>
</a>
</g>
</g>
<!-- Node8&#45;&gt;Node14 -->
<g id="edge16_Node000008_Node000014" class="edge">
<title>Node8&#45;&gt;Node14</title>
<g id="a_edge16_Node000008_Node000014"><a xlink:title=" ">
<path fill="none" stroke="#63b8ff" d="M502.05,-406.25C510.24,-407.46 519.09,-408.76 527.92,-410.06"/>
<polygon fill="#63b8ff" stroke="#63b8ff" points="527.44,-413.53 537.85,-411.52 528.46,-406.6 527.44,-413.53"/>
</a>
</g>
</g>
<!-- Node18 -->
<g id="Node000018" class="node">
<title>Node18</title>
<g id="a_Node000018"><a xlink:href="classMsg.html#a1a57001709e44ab056a704c24760c105" target="_top" xlink:title=" ">
<polygon fill="white" stroke="#666666" points="814.5,-485 735.5,-485 735.5,-466 814.5,-466 814.5,-485"/>
<text text-anchor="middle" x="775" y="-473" font-family="Ubuntu Mono" font-size="10.00">Msg::getMsg</text>
</a>
</g>
</g>
<!-- Node8&#45;&gt;Node18 -->
<g id="edge31_Node000008_Node000018" class="edge">
<title>Node8&#45;&gt;Node18</title>
<g id="a_edge31_Node000008_Node000018"><a xlink:title=" ">
<path fill="none" stroke="#63b8ff" d="M478.8,-410.04C493.59,-418.54 516.56,-430.66 538,-437.5 600.8,-457.55 676.53,-467.34 724.96,-471.9"/>
<polygon fill="#63b8ff" stroke="#63b8ff" points="724.89,-475.4 735.17,-472.82 725.52,-468.43 724.89,-475.4"/>
</a>
</g>
</g>
<!-- Node25 -->
<g id="Node000025" class="node">
<title>Node25</title>
<g id="a_Node000025"><a xlink:href="classCinfo.html#a7642d2a9ffe54cc8008df39de171ab63" target="_top" xlink:title=" ">
<polygon fill="white" stroke="#666666" points="638,-318 548,-318 548,-299 638,-299 638,-318"/>
<text text-anchor="middle" x="593" y="-306" font-family="Ubuntu Mono" font-size="10.00">Cinfo::findFinfo</text>
</a>
</g>
</g>
<!-- Node8&#45;&gt;Node25 -->
<g id="edge28_Node000008_Node000025" class="edge">
<title>Node8&#45;&gt;Node25</title>
<g id="a_edge28_Node000008_Node000025"><a xlink:title=" ">
<path fill="none" stroke="#63b8ff" d="M470.25,-390.92C482.55,-375.29 509,-344.29 538,-326.5 540.61,-324.9 543.38,-323.42 546.24,-322.06"/>
<polygon fill="#63b8ff" stroke="#63b8ff" points="547.7,-325.24 555.54,-318.11 544.96,-318.8 547.7,-325.24"/>
</a>
</g>
</g>
<!-- Node26 -->
<g id="Node000026" class="node">
<title>Node26</title>
<g id="a_Node000026"><a xlink:href="classMsg.html#a326ed96ece35f632b16de59838db6c29" target="_top" xlink:title=" ">
<polygon fill="white" stroke="#666666" points="646,-281 540,-281 540,-262 646,-262 646,-281"/>
<text text-anchor="middle" x="593" y="-269" font-family="Ubuntu Mono" font-size="10.00">Msg::findOtherEnd</text>
</a>
</g>
</g>
<!-- Node8&#45;&gt;Node26 -->
<g id="edge29_Node000008_Node000026" class="edge">
<title>Node8&#45;&gt;Node26</title>
<g id="a_edge29_Node000008_Node000026"><a xlink:title=" ">
<path fill="none" stroke="#63b8ff" d="M466.88,-390.93C476.01,-369.55 500.95,-317.62 538,-289.5 539.82,-288.12 541.76,-286.84 543.77,-285.65"/>
<polygon fill="#63b8ff" stroke="#63b8ff" points="545.6,-288.65 552.97,-281.05 542.46,-282.39 545.6,-288.65"/>
</a>
</g>
</g>
<!-- Node27 -->
<g id="Node000027" class="node">
<title>Node27</title>
<g id="a_Node000027"><a xlink:href="classDestFinfo.html#a6efef23ddcfbaef03eca8aa75fdd98cd" target="_top" xlink:title=" ">
<polygon fill="white" stroke="#666666" points="642.5,-244 543.5,-244 543.5,-225 642.5,-225 642.5,-244"/>
<text text-anchor="middle" x="593" y="-232" font-family="Ubuntu Mono" font-size="10.00">DestFinfo::getFid</text>
</a>
</g>
</g>
<!-- Node8&#45;&gt;Node27 -->
<g id="edge30_Node000008_Node000027" class="edge">
<title>Node8&#45;&gt;Node27</title>
<g id="a_edge30_Node000008_Node000027"><a xlink:title=" ">
<path fill="none" stroke="#63b8ff" d="M465.14,-390.97C471.48,-364.88 492.63,-291.63 538,-252.5 539.49,-251.22 541.07,-250.02 542.72,-248.92"/>
<polygon fill="#63b8ff" stroke="#63b8ff" points="544.43,-251.97 551.47,-244.05 541.03,-245.86 544.43,-251.97"/>
</a>
</g>
</g>
<!-- Node28 -->
<g id="Node000028" class="node">
<title>Node28</title>
<g id="a_Node000028"><a xlink:href="classElement.html#a1a2068a4e70da0f951bc3e73b758ef4a" target="_top" xlink:title=" ">
<polygon fill="white" stroke="#666666" points="647,-207 539,-207 539,-188 647,-188 647,-207"/>
<text text-anchor="middle" x="593" y="-195" font-family="Ubuntu Mono" font-size="10.00">Element::getName</text>
</a>
</g>
</g>
<!-- Node8&#45;&gt;Node28 -->
<g id="edge32_Node000008_Node000028" class="edge">
<title>Node8&#45;&gt;Node28</title>
<g id="a_edge32_Node000008_Node000028"><a xlink:title=" ">
<path fill="none" stroke="#63b8ff" d="M464.08,-390.87C468,-360.54 484.17,-266.02 538,-215.5 539.26,-214.31 540.61,-213.21 542.01,-212.17"/>
<polygon fill="#63b8ff" stroke="#63b8ff" points="543.86,-215.14 550.65,-207.01 540.27,-209.14 543.86,-215.14"/>
</a>
</g>
</g>
<!-- Node29 -->
<g id="Node000029" class="node">
<title>Node29</title>
<g id="a_Node000029"><a xlink:href="classElement.html#a8489d936deee408d78042cf199694bb5" target="_top" xlink:title=" ">
<polygon fill="white" stroke="#666666" points="647.5,-170 538.5,-170 538.5,-151 647.5,-151 647.5,-170"/>
<text text-anchor="middle" x="593" y="-158" font-family="Ubuntu Mono" font-size="10.00">Element::hasFields</text>
</a>
</g>
</g>
<!-- Node8&#45;&gt;Node29 -->
<g id="edge33_Node000008_Node000029" class="edge">
<title>Node8&#45;&gt;Node29</title>
<g id="a_edge33_Node000008_Node000029"><a xlink:title=" ">
<path fill="none" stroke="#63b8ff" d="M463.34,-390.95C465.05,-356.99 475.45,-240.8 538,-178.5 539.07,-177.43 540.21,-176.43 541.4,-175.48"/>
<polygon fill="#63b8ff" stroke="#63b8ff" points="543.35,-178.39 549.91,-170.07 539.59,-172.49 543.35,-178.39"/>
</a>
</g>
</g>
<!-- Node30 -->
<g id="Node000030" class="node">
<title>Node30</title>
<g id="a_Node000030"><a xlink:href="classId.html#ac094968605676d63b55ca33b7e318948" target="_top" xlink:title=" ">
<polygon fill="white" stroke="#666666" points="795.5,-617 754.5,-617 754.5,-598 795.5,-598 795.5,-617"/>
<text text-anchor="middle" x="775" y="-605" font-family="Ubuntu Mono" font-size="10.00">Id::Id</text>
</a>
</g>
</g>
<!-- Node8&#45;&gt;Node30 -->
<g id="edge34_Node000008_Node000030" class="edge">
<title>Node8&#45;&gt;Node30</title>
<g id="a_edge34_Node000008_Node000030"><a xlink:title=" ">
<path fill="none" stroke="#63b8ff" d="M463.51,-410.41C465.74,-442.48 477.49,-543.85 538,-588.5 599.47,-633.87 696.08,-623.37 744.41,-614.22"/>
<polygon fill="#63b8ff" stroke="#63b8ff" points="745.11,-617.65 754.23,-612.25 743.74,-610.78 745.11,-617.65"/>
</a>
</g>
</g>
<!-- Node31 -->
<g id="Node000031" class="node">
<title>Node31</title>
<g id="a_Node000031"><a xlink:href="classObjId.html#aad3d714ee57757ed3754a58edc9ad4a9" target="_top" xlink:title=" ">
<polygon fill="white" stroke="#666666" points="630,-656 556,-656 556,-637 630,-637 630,-656"/>
<text text-anchor="middle" x="593" y="-644" font-family="Ubuntu Mono" font-size="10.00">ObjId::ObjId</text>
</a>
</g>
</g>
<!-- Node8&#45;&gt;Node31 -->
<g id="edge35_Node000008_Node000031" class="edge">
<title>Node8&#45;&gt;Node31</title>
<g id="a_edge35_Node000008_Node000031"><a xlink:title=" ">
<path fill="none" stroke="#63b8ff" d="M463.59,-410.31C466.11,-444.16 478.8,-557.56 538,-622.5 541.45,-626.29 545.62,-629.51 550.08,-632.25"/>
<polygon fill="#63b8ff" stroke="#63b8ff" points="548.45,-635.35 558.93,-636.93 551.72,-629.16 548.45,-635.35"/>
</a>
</g>
</g>
<!-- Node32 -->
<g id="Node000032" class="node">
<title>Node32</title>
<g id="a_Node000032"><a xlink:href="classEref.html#ab305a4ab972b50443b7d35cfd516861a" target="_top" xlink:title=" ">
<polygon fill="white" stroke="#666666" points="625.5,-392 560.5,-392 560.5,-373 625.5,-373 625.5,-392"/>
<text text-anchor="middle" x="593" y="-380" font-family="Ubuntu Mono" font-size="10.00">Eref::objId</text>
</a>
</g>
</g>
<!-- Node8&#45;&gt;Node32 -->
<g id="edge37_Node000008_Node000032" class="edge">
<title>Node8&#45;&gt;Node32</title>
<g id="a_edge37_Node000008_Node000032"><a xlink:title=" ">
<path fill="none" stroke="#63b8ff" d="M502.05,-395.05C517.24,-392.93 534.66,-390.5 550.11,-388.35"/>
<polygon fill="#63b8ff" stroke="#63b8ff" points="551.01,-391.75 560.43,-386.91 550.04,-384.82 551.01,-391.75"/>
</a>
</g>
</g>
<!-- Node34 -->
<g id="Node000034" class="node">
<title>Node34</title>
<g id="a_Node000034"><a xlink:href="classId.html#a6a4a7d5c9e8524644febc6b6e8dc1ab9" target="_top" xlink:title=" ">
<polygon fill="white" stroke="#666666" points="635.5,-580 550.5,-580 550.5,-561 635.5,-561 635.5,-580"/>
<text text-anchor="middle" x="593" y="-568" font-family="Ubuntu Mono" font-size="10.00">Id::operator!=</text>
</a>
</g>
</g>
<!-- Node8&#45;&gt;Node34 -->
<g id="edge40_Node000008_Node000034" class="edge">
<title>Node8&#45;&gt;Node34</title>
<g id="a_edge40_Node000008_Node000034"><a xlink:title=" ">
<path fill="none" stroke="#63b8ff" d="M465.11,-410.18C471.38,-436.69 492.39,-511.17 538,-551.5 539.92,-553.2 542,-554.75 544.2,-556.16"/>
<polygon fill="#63b8ff" stroke="#63b8ff" points="542.62,-559.29 553.09,-560.96 545.95,-553.13 542.62,-559.29"/>
</a>
</g>
</g>
<!-- Node35 -->
<g id="Node000035" class="node">
<title>Node35</title>
<g id="a_Node000035"><a xlink:href="classObjId.html#a6a7e5a3ee84c58803fe025943941e67e" target="_top" xlink:title=" ">
<polygon fill="white" stroke="#666666" points="646,-133 540,-133 540,-114 646,-114 646,-133"/>
<text text-anchor="middle" x="593" y="-121" font-family="Ubuntu Mono" font-size="10.00">ObjId::operator==</text>
</a>
</g>
</g>
<!-- Node8&#45;&gt;Node35 -->
<g id="edge41_Node000008_Node000035" class="edge">
<title>Node8&#45;&gt;Node35</title>
<g id="a_edge41_Node000008_Node000035"><a xlink:title=" ">
<path fill="none" stroke="#63b8ff" d="M462.8,-390.98C462.54,-353.66 466.64,-215.76 538,-141.5 538.92,-140.54 539.9,-139.63 540.92,-138.77"/>
<polygon fill="#63b8ff" stroke="#63b8ff" points="543.1,-141.52 549.49,-133.07 539.23,-135.69 543.1,-141.52"/>
</a>
</g>
</g>
<!-- Node11 -->
<g id="Node000011" class="node">
<title>Node11</title>
<g id="a_Node000011"><a xlink:href="classId.html#a574e06330597163aef0ea4c99de7ff4a" target="_top" xlink:title="Synonym for Id::operator()()">
<polygon fill="white" stroke="#666666" points="1117,-617 1045,-617 1045,-598 1117,-598 1117,-617"/>
<text text-anchor="middle" x="1081" y="-605" font-family="Ubuntu Mono" font-size="10.00">Id::element</text>
</a>
</g>
</g>
<!-- Node10&#45;&gt;Node11 -->
<g id="edge10_Node000010_Node000011" class="edge">
<title>Node10&#45;&gt;Node11</title>
<g id="a_edge10_Node000010_Node000011"><a xlink:title=" ">
<path fill="none" stroke="#63b8ff" d="M980.94,-579.09C997.88,-583.95 1018.66,-589.91 1036.81,-595.11"/>
<polygon fill="#63b8ff" stroke="#63b8ff" points="1036,-598.52 1046.58,-597.91 1037.93,-591.79 1036,-598.52"/>
</a>
</g>
</g>
<!-- Node11&#45;&gt;Node6 -->
<g id="edge11_Node000011_Node000006" class="edge">
<title>Node11&#45;&gt;Node6</title>
<g id="a_edge11_Node000011_Node000006"><a xlink:title=" ">
<path fill="none" stroke="#63b8ff" d="M1098.02,-617.13C1119.69,-630.15 1158.55,-653.49 1183.93,-668.74"/>
<polygon fill="#63b8ff" stroke="#63b8ff" points="1182.23,-671.8 1192.61,-673.95 1185.84,-665.8 1182.23,-671.8"/>
</a>
</g>
</g>
<!-- Node12&#45;&gt;Node7 -->
<g id="edge14_Node000012_Node000007" class="edge">
<title>Node12&#45;&gt;Node7</title>
<g id="a_edge14_Node000012_Node000007"><a xlink:title=" ">
<path fill="none" stroke="#63b8ff" d="M627.01,-683.5C657.2,-683.5 701.9,-683.5 734.08,-683.5"/>
<polygon fill="#63b8ff" stroke="#63b8ff" points="734.48,-687 744.48,-683.5 734.48,-680 734.48,-687"/>
</a>
</g>
</g>
<!-- Node12&#45;&gt;Node11 -->
<g id="edge13_Node000012_Node000011" class="edge">
<title>Node12&#45;&gt;Node11</title>
<g id="a_edge13_Node000012_Node000011"><a xlink:title=" ">
<path fill="none" stroke="#63b8ff" d="M627.26,-676.42C644.21,-672.92 665.16,-668.76 684,-665.5 810.6,-643.58 960.91,-623.07 1034.63,-613.36"/>
<polygon fill="#63b8ff" stroke="#63b8ff" points="1035.48,-616.78 1044.94,-612.01 1034.57,-609.84 1035.48,-616.78"/>
</a>
</g>
</g>
<!-- Node15 -->
<g id="Node000015" class="node">
<title>Node15</title>
<g id="a_Node000015"><a xlink:href="classMsg.html#a5be9f4dd643f5f662e8fb3c029273390" target="_top" xlink:title=" ">
<polygon fill="white" stroke="#666666" points="802.5,-448 747.5,-448 747.5,-429 802.5,-429 802.5,-448"/>
<text text-anchor="middle" x="775" y="-436" font-family="Ubuntu Mono" font-size="10.00">Msg::e1</text>
</a>
</g>
</g>
<!-- Node14&#45;&gt;Node15 -->
<g id="edge17_Node000014_Node000015" class="edge">
<title>Node14&#45;&gt;Node15</title>
<g id="a_edge17_Node000014_Node000015"><a xlink:title=" ">
<path fill="none" stroke="#63b8ff" d="M648.01,-425.2C676.77,-428.24 711.4,-431.89 737.07,-434.6"/>
<polygon fill="#63b8ff" stroke="#63b8ff" points="736.82,-438.09 747.13,-435.66 737.55,-431.13 736.82,-438.09"/>
</a>
</g>
</g>
<!-- Node16 -->
<g id="Node000016" class="node">
<title>Node16</title>
<g id="a_Node000016"><a xlink:href="classMsg.html#a893ed6b44cd4c529f0f10af38ae6743a" target="_top" xlink:title=" ">
<polygon fill="white" stroke="#666666" points="802.5,-411 747.5,-411 747.5,-392 802.5,-392 802.5,-411"/>
<text text-anchor="middle" x="775" y="-399" font-family="Ubuntu Mono" font-size="10.00">Msg::e2</text>
</a>
</g>
</g>
<!-- Node14&#45;&gt;Node16 -->
<g id="edge18_Node000014_Node000016" class="edge">
<title>Node14&#45;&gt;Node16</title>
<g id="a_edge18_Node000014_Node000016"><a xlink:title=" ">
<path fill="none" stroke="#63b8ff" d="M648.01,-414.1C676.77,-411.22 711.4,-407.76 737.07,-405.19"/>
<polygon fill="#63b8ff" stroke="#63b8ff" points="737.53,-408.66 747.13,-404.19 736.83,-401.7 737.53,-408.66"/>
</a>
</g>
</g>
<!-- Node17 -->
<g id="Node000017" class="node">
<title>Node17</title>
<g id="a_Node000017"><a xlink:href="classElement.html#a0f7aa6c77f30cb8865cdd0a0dde03854" target="_top" xlink:title=" ">
<polygon fill="white" stroke="#666666" points="834,-374 716,-374 716,-355 834,-355 834,-374"/>
<text text-anchor="middle" x="775" y="-362" font-family="Ubuntu Mono" font-size="10.00">Element::findBinding</text>
</a>
</g>
</g>
<!-- Node14&#45;&gt;Node17 -->
<g id="edge19_Node000014_Node000017" class="edge">
<title>Node14&#45;&gt;Node17</title>
<g id="a_edge19_Node000014_Node000017"><a xlink:title=" ">
<path fill="none" stroke="#63b8ff" d="M623.4,-409.91C631.45,-407.08 640.13,-403.84 648,-400.5 664.47,-393.52 667.08,-388.31 684,-382.5 691.02,-380.09 698.47,-377.96 705.95,-376.09"/>
<polygon fill="#63b8ff" stroke="#63b8ff" points="706.85,-379.48 715.78,-373.78 705.24,-372.66 706.85,-379.48"/>
</a>
</g>
</g>
<!-- Node14&#45;&gt;Node18 -->
<g id="edge20_Node000014_Node000018" class="edge">
<title>Node14&#45;&gt;Node18</title>
<g id="a_edge20_Node000014_Node000018"><a xlink:title=" ">
<path fill="none" stroke="#63b8ff" d="M616.2,-429.17C638.36,-438.72 670.92,-452.47 684,-456.5 697.13,-460.55 711.61,-464.02 725.04,-466.85"/>
<polygon fill="#63b8ff" stroke="#63b8ff" points="724.57,-470.33 735.06,-468.89 725.96,-463.47 724.57,-470.33"/>
</a>
</g>
</g>
<!-- Node22 -->
<g id="Node000022" class="node">
<title>Node22</title>
<g id="a_Node000022"><a xlink:href="classMsgFuncBinding.html#ad0172d166d6629ed092500ea64473eb5" target="_top" xlink:title=" ">
<polygon fill="white" stroke="#666666" points="866,-337 684,-337 684,-318 866,-318 866,-337"/>
<text text-anchor="middle" x="775" y="-325" font-family="Ubuntu Mono" font-size="10.00">MsgFuncBinding::MsgFuncBinding</text>
</a>
</g>
</g>
<!-- Node14&#45;&gt;Node22 -->
<g id="edge25_Node000014_Node000022" class="edge">
<title>Node14&#45;&gt;Node22</title>
<g id="a_edge25_Node000014_Node000022"><a xlink:title=" ">
<path fill="none" stroke="#63b8ff" d="M631.4,-409.97C637.3,-407.47 643.07,-404.36 648,-400.5 670.99,-382.48 659.79,-361.86 684,-345.5 686.27,-343.96 688.65,-342.55 691.1,-341.26"/>
<polygon fill="#63b8ff" stroke="#63b8ff" points="692.64,-344.4 700.27,-337.05 689.73,-338.04 692.64,-344.4"/>
</a>
</g>
</g>
<!-- Node24 -->
<g id="Node000024" class="node">
<title>Node24</title>
<g id="a_Node000024"><a xlink:href="classObjId.html#ab6b120d314aab5abc3ea8bb7ead5ae41" target="_top" xlink:title=" ">
<polygon fill="white" stroke="#666666" points="812,-300 738,-300 738,-281 812,-281 812,-300"/>
<text text-anchor="middle" x="775" y="-288" font-family="Ubuntu Mono" font-size="10.00">ObjId::ObjId</text>
</a>
</g>
</g>
<!-- Node14&#45;&gt;Node24 -->
<g id="edge27_Node000014_Node000024" class="edge">
<title>Node14&#45;&gt;Node24</title>
<g id="a_edge27_Node000014_Node000024"><a xlink:title=" ">
<path fill="none" stroke="#63b8ff" d="M634.05,-409.91C639.16,-407.45 644,-404.37 648,-400.5 679.58,-370 650.35,-336.71 684,-308.5 696.01,-298.44 712.06,-293.45 727.29,-291.12"/>
<polygon fill="#63b8ff" stroke="#63b8ff" points="728.12,-294.55 737.64,-289.9 727.3,-287.6 728.12,-294.55"/>
</a>
</g>
</g>
<!-- Node19 -->
<g id="Node000019" class="node">
<title>Node19</title>
<g id="a_Node000019"><a xlink:href="classObjId.html#a1e5933713d6a73550b0923cf63f5bfd8" target="_top" xlink:title=" ">
<polygon fill="white" stroke="#666666" points="981.5,-513 911.5,-513 911.5,-494 981.5,-494 981.5,-513"/>
<text text-anchor="middle" x="946.5" y="-501" font-family="Ubuntu Mono" font-size="10.00">ObjId::data</text>
</a>
</g>
</g>
<!-- Node18&#45;&gt;Node19 -->
<g id="edge21_Node000018_Node000019" class="edge">
<title>Node18&#45;&gt;Node19</title>
<g id="a_edge21_Node000018_Node000019"><a xlink:title=" ">
<path fill="none" stroke="#63b8ff" d="M814.89,-481.92C840.71,-486.19 874.67,-491.8 901.49,-496.23"/>
<polygon fill="#63b8ff" stroke="#63b8ff" points="900.95,-499.69 911.39,-497.86 902.09,-492.78 900.95,-499.69"/>
</a>
</g>
</g>
<!-- Node19&#45;&gt;Node11 -->
<g id="edge23_Node000019_Node000011" class="edge">
<title>Node19&#45;&gt;Node11</title>
<g id="a_edge23_Node000019_Node000011"><a xlink:title=" ">
<path fill="none" stroke="#63b8ff" d="M959.73,-513.1C982.6,-531.05 1032.07,-569.88 1059.91,-591.73"/>
<polygon fill="#63b8ff" stroke="#63b8ff" points="1057.77,-594.5 1067.8,-597.93 1062.1,-589 1057.77,-594.5"/>
</a>
</g>
</g>
<!-- Node20 -->
<g id="Node000020" class="node">
<title>Node20</title>
<g id="a_Node000020"><a xlink:href="classElement.html#a1978a0a584f1b10ea4a7c67e69880042" target="_top" xlink:title=" ">
<polygon fill="white" stroke="#666666" points="1123.5,-532 1038.5,-532 1038.5,-513 1123.5,-513 1123.5,-532"/>
<text text-anchor="middle" x="1081" y="-520" font-family="Ubuntu Mono" font-size="10.00">Element::data</text>
</a>
</g>
</g>
<!-- Node19&#45;&gt;Node20 -->
<g id="edge22_Node000019_Node000020" class="edge">
<title>Node19&#45;&gt;Node20</title>
<g id="a_edge22_Node000019_Node000020"><a xlink:title=" ">
<path fill="none" stroke="#63b8ff" d="M981.62,-508.39C995.84,-510.43 1012.66,-512.84 1028.33,-515.09"/>
<polygon fill="#63b8ff" stroke="#63b8ff" points="1028.03,-518.58 1038.43,-516.54 1029.02,-511.65 1028.03,-518.58"/>
</a>
</g>
</g>
<!-- Node21 -->
<g id="Node000021" class="node">
<title>Node21</title>
<g id="a_Node000021"><a xlink:href="classElement.html#a73a0e468a3d6cfd6475fff4a56459075" target="_top" xlink:title=" ">
<polygon fill="white" stroke="#666666" points="1135,-495 1027,-495 1027,-476 1135,-476 1135,-495"/>
<text text-anchor="middle" x="1081" y="-483" font-family="Ubuntu Mono" font-size="10.00">Element::rawIndex</text>
</a>
</g>
</g>
<!-- Node19&#45;&gt;Node21 -->
<g id="edge24_Node000019_Node000021" class="edge">
<title>Node19&#45;&gt;Node21</title>
<g id="a_edge24_Node000019_Node000021"><a xlink:title=" ">
<path fill="none" stroke="#63b8ff" d="M981.62,-498.86C992.4,-497.4 1004.69,-495.73 1016.83,-494.08"/>
<polygon fill="#63b8ff" stroke="#63b8ff" points="1017.52,-497.52 1026.96,-492.71 1016.58,-490.58 1017.52,-497.52"/>
</a>
</g>
</g>
<!-- Node23 -->
<g id="Node000023" class="node">
<title>Node23</title>
<g id="a_Node000023"><a xlink:href="classObjId.html#a02a8374ceddca0d8f4a672005aef8ffc" target="_top" xlink:title=" ">
<polygon fill="white" stroke="#666666" points="983.5,-337 909.5,-337 909.5,-318 983.5,-318 983.5,-337"/>
<text text-anchor="middle" x="946.5" y="-325" font-family="Ubuntu Mono" font-size="10.00">ObjId::ObjId</text>
</a>
</g>
</g>
<!-- Node22&#45;&gt;Node23 -->
<g id="edge26_Node000022_Node000023" class="edge">
<title>Node22&#45;&gt;Node23</title>
<g id="a_edge26_Node000022_Node000023"><a xlink:title=" ">
<path fill="none" stroke="#63b8ff" d="M866.21,-327.5C877.71,-327.5 889.08,-327.5 899.46,-327.5"/>
<polygon fill="#63b8ff" stroke="#63b8ff" points="899.48,-331 909.48,-327.5 899.48,-324 899.48,-331"/>
</a>
</g>
</g>
<!-- Node31&#45;&gt;Node30 -->
<g id="edge36_Node000031_Node000030" class="edge">
<title>Node31&#45;&gt;Node30</title>
<g id="a_edge36_Node000031_Node000030"><a xlink:title=" ">
<path fill="none" stroke="#63b8ff" d="M630.43,-638.61C664.02,-631.33 713.27,-620.66 744.48,-613.9"/>
<polygon fill="#63b8ff" stroke="#63b8ff" points="745.29,-617.3 754.32,-611.76 743.8,-610.46 745.29,-617.3"/>
</a>
</g>
</g>
<!-- Node32&#45;&gt;Node24 -->
<g id="edge39_Node000032_Node000024" class="edge">
<title>Node32&#45;&gt;Node24</title>
<g id="a_edge39_Node000032_Node000024"><a xlink:title=" ">
<path fill="none" stroke="#63b8ff" d="M625.76,-375.17C633.55,-372.37 641.51,-368.59 648,-363.5 670.99,-345.48 659.79,-324.86 684,-308.5 696.76,-299.87 712.73,-295.2 727.65,-292.71"/>
<polygon fill="#63b8ff" stroke="#63b8ff" points="728.33,-296.15 737.76,-291.33 727.38,-289.22 728.33,-296.15"/>
</a>
</g>
</g>
<!-- Node33 -->
<g id="Node000033" class="node">
<title>Node33</title>
<g id="a_Node000033"><a xlink:href="classElement.html#a934907c01faf58e21f545d53a54cfefc" target="_top" xlink:title=" ">
<polygon fill="white" stroke="#666666" points="811,-132 739,-132 739,-113 811,-113 811,-132"/>
<text text-anchor="middle" x="775" y="-120" font-family="Ubuntu Mono" font-size="10.00">Element::id</text>
</a>
</g>
</g>
<!-- Node32&#45;&gt;Node33 -->
<g id="edge38_Node000032_Node000033" class="edge">
<title>Node32&#45;&gt;Node33</title>
<g id="a_edge38_Node000032_Node000033"><a xlink:title=" ">
<path fill="none" stroke="#63b8ff" d="M625.68,-376.35C633.74,-373.53 641.85,-369.44 648,-363.5 679.58,-333 664.58,-310.88 684,-271.5 708.15,-222.52 743.05,-168.45 761.49,-140.88"/>
<polygon fill="#63b8ff" stroke="#63b8ff" points="764.6,-142.53 767.28,-132.28 758.79,-138.62 764.6,-142.53"/>
</a>
</g>
</g>
<!-- Node35&#45;&gt;Node3 -->
<g id="edge42_Node000035_Node000003" class="edge">
<title>Node35&#45;&gt;Node3</title>
<g id="a_edge42_Node000035_Node000003"><a xlink:title=" ">
<path fill="none" stroke="#63b8ff" d="M636.08,-113.95C651.18,-110.58 668.34,-106.81 684,-103.5 695.81,-101.01 708.52,-98.41 720.56,-95.99"/>
<polygon fill="#63b8ff" stroke="#63b8ff" points="721.35,-99.4 730.47,-94.01 719.98,-92.54 721.35,-99.4"/>
</a>
</g>
</g>
<!-- Node36&#45;&gt;Node33 -->
<g id="edge44_Node000036_Node000033" class="edge">
<title>Node36&#45;&gt;Node33</title>
<g id="a_edge44_Node000036_Node000033"><a xlink:title=" ">
<path fill="none" stroke="#63b8ff" d="M384.68,-17.2C438.25,-34.11 571.1,-75.22 684,-103.5 698.46,-107.12 714.34,-110.63 728.68,-113.62"/>
<polygon fill="#63b8ff" stroke="#63b8ff" points="728.31,-117.12 738.81,-115.71 729.72,-110.26 728.31,-117.12"/>
</a>
</g>
</g>
</g>
</svg>

<g id="navigator" transform="translate(0 0)" fill="#404254">
  <rect fill="#f2f5e9" fill-opacity="0.5" stroke="#606060" stroke-width=".5" x="0" y="0" width="60" height="60"/>
  <use id="zoomplus" xlink:href="#zoomPlus" x="17" y="9" onmousedown="handleZoom(evt,'in')"/>
  <use id="zoomminus" xlink:href="#zoomMin" x="42" y="9" onmousedown="handleZoom(evt,'out')"/>
  <use id="reset" xlink:href="#resetDef" x="30" y="36" onmousedown="handleReset()"/>
   <use id="arrowup" xlink:href="#arrowUp" x="0" y="0" onmousedown="handlePan(0,-1)"/>
  <use id="arrowright" xlink:href="#arrowRight" x="0" y="0" onmousedown="handlePan(1,0)"/>
  <use id="arrowdown" xlink:href="#arrowDown" x="0" y="0" onmousedown="handlePan(0,1)"/>
  <use id="arrowleft" xlink:href="#arrowLeft" x="0" y="0" onmousedown="handlePan(-1,0)"/>
</g>
<svg viewBox="0 0 15 15" width="100%" height="30px" preserveAspectRatio="xMaxYMin meet">
 <g id="arrow_out" transform="scale(0.3 0.3)">
  <a xlink:href="classHHGateF_a02d457b68e6d3b416c10e8ac5efe9d65_cgraph_org.svg" target="_base">
   <rect id="button" ry="5" rx="5" y="6" x="6" height="38" width="38"
        fill="#f2f5e9" fill-opacity="0.5" stroke="#606060" stroke-width="1.0"/>
   <path id="arrow"
     d="M 11.500037,31.436501 C 11.940474,20.09759 22.043105,11.32322 32.158766,21.979434 L 37.068811,17.246167 C 37.068811,17.246167 37.088388,32 37.088388,32 L 22.160133,31.978069 C 22.160133,31.978069 26.997745,27.140456 26.997745,27.140456 C 18.528582,18.264221 13.291696,25.230495 11.500037,31.436501 z"
     style="fill:#404040;"/>
  </a>
 </g>
</svg>

<style type='text/css'>
<![CDATA[
[data-mouse-over-selected='false'] { opacity: 0.7; }
[data-mouse-over-selected='true']  { opacity: 1.0; }
]]>
</style>
<script type="application/ecmascript"><![CDATA[
document.addEventListener('DOMContentLoaded', (event) => {
  highlightEdges();
  highlightAdjacentNodes();
});
]]></script>
</svg>
