<?xml version="1.0" encoding="UTF-8" standalone="no"?>
<!DOCTYPE svg PUBLIC "-//W3C//DTD SVG 1.1//EN"
 "http://www.w3.org/Graphics/SVG/1.1/DTD/svg11.dtd">
<!-- Generated by graphviz version 2.43.0 (0)
 -->
<!-- Title: StochNOrder Pages: 1 -->
<svg width="133pt" height="702pt"
 viewBox="0.00 0.00 133.00 702.00" xmlns="http://www.w3.org/2000/svg" xmlns:xlink="http://www.w3.org/1999/xlink">
<g id="graph0" class="graph" transform="scale(1 1) rotate(0) translate(4 698)">
<title>StochNOrder</title>
<!-- Node1 -->
<g id="Node000001" class="node">
<title>Node1</title>
<g id="a_Node000001"><a xlink:title=" ">
<polygon fill="#999999" stroke="transparent" points="125,-79 0,-79 0,0 125,0 125,-79"/>
<text text-anchor="start" x="32" y="-66.5" font-family="Ubuntu Mono" font-size="10.00">StochNOrder</text>
<text text-anchor="start" x="61" y="-51.5" font-family="Ubuntu Mono" font-size="10.00"> </text>
<text text-anchor="start" x="4.5" y="-36.5" font-family="Ubuntu Mono" font-size="10.00">+</text>
<text text-anchor="start" x="17.5" y="-36.5" font-family="Ubuntu Mono" font-size="10.00">copyWithVolScaling()</text>
<text text-anchor="start" x="4.5" y="-21.5" font-family="Ubuntu Mono" font-size="10.00">+</text>
<text text-anchor="start" x="17.5" y="-21.5" font-family="Ubuntu Mono" font-size="10.00">operator()()</text>
<text text-anchor="start" x="4.5" y="-6.5" font-family="Ubuntu Mono" font-size="10.00">+</text>
<text text-anchor="start" x="17.5" y="-6.5" font-family="Ubuntu Mono" font-size="10.00">StochNOrder()</text>
<polygon fill="#666666" stroke="#666666" points="0.5,-61.5 0.5,-61.5 125.5,-61.5 125.5,-61.5 0.5,-61.5"/>
<polygon fill="#666666" stroke="#666666" points="0.5,-46.5 0.5,-46.5 125.5,-46.5 125.5,-46.5 0.5,-46.5"/>
<polygon fill="none" stroke="#666666" points="0,0 0,-79 125,-79 125,0 0,0"/>
</a>
</g>
</g>
<!-- Node2 -->
<g id="Node000002" class="node">
<title>Node2</title>
<g id="a_Node000002"><a xlink:href="classNOrder.html" target="_top" xlink:title=" ">
<polygon fill="white" stroke="transparent" points="125,-224 0,-224 0,-115 125,-115 125,-224"/>
<text text-anchor="start" x="45.5" y="-211.5" font-family="Ubuntu Mono" font-size="10.00">NOrder</text>
<text text-anchor="start" x="4.5" y="-196.5" font-family="Ubuntu Mono" font-size="10.00">#</text>
<text text-anchor="start" x="17.5" y="-196.5" font-family="Ubuntu Mono" font-size="10.00">v_</text>
<text text-anchor="start" x="4.5" y="-181.5" font-family="Ubuntu Mono" font-size="10.00">+</text>
<text text-anchor="start" x="17.5" y="-181.5" font-family="Ubuntu Mono" font-size="10.00">copyWithVolScaling()</text>
<text text-anchor="start" x="4.5" y="-166.5" font-family="Ubuntu Mono" font-size="10.00">+</text>
<text text-anchor="start" x="17.5" y="-166.5" font-family="Ubuntu Mono" font-size="10.00">getReactants()</text>
<text text-anchor="start" x="4.5" y="-151.5" font-family="Ubuntu Mono" font-size="10.00">+</text>
<text text-anchor="start" x="17.5" y="-151.5" font-family="Ubuntu Mono" font-size="10.00">NOrder()</text>
<text text-anchor="start" x="4.5" y="-136.5" font-family="Ubuntu Mono" font-size="10.00">+</text>
<text text-anchor="start" x="17.5" y="-136.5" font-family="Ubuntu Mono" font-size="10.00">operator()()</text>
<text text-anchor="start" x="4.5" y="-121.5" font-family="Ubuntu Mono" font-size="10.00">+</text>
<text text-anchor="start" x="17.5" y="-121.5" font-family="Ubuntu Mono" font-size="10.00">rescaleVolume()</text>
<polygon fill="#666666" stroke="#666666" points="0.5,-206.5 0.5,-206.5 125.5,-206.5 125.5,-206.5 0.5,-206.5"/>
<polygon fill="#666666" stroke="#666666" points="0.5,-191.5 0.5,-191.5 15.5,-191.5 15.5,-191.5 0.5,-191.5"/>
<polygon fill="#666666" stroke="#666666" points="15.5,-191.5 15.5,-191.5 125.5,-191.5 125.5,-191.5 15.5,-191.5"/>
<polygon fill="none" stroke="#666666" points="0,-115 0,-224 125,-224 125,-115 0,-115"/>
</a>
</g>
</g>
<!-- Node2&#45;&gt;Node1 -->
<g id="edge1_Node000001_Node000002" class="edge">
<title>Node2&#45;&gt;Node1</title>
<g id="a_edge1_Node000001_Node000002"><a xlink:title=" ">
<path fill="none" stroke="#63b8ff" d="M62.5,-104.7C62.5,-95.93 62.5,-87.16 62.5,-79.03"/>
<polygon fill="none" stroke="#63b8ff" points="59,-104.96 62.5,-114.96 66,-104.96 59,-104.96"/>
</a>
</g>
</g>
<!-- Node3 -->
<g id="Node000003" class="node">
<title>Node3</title>
<g id="a_Node000003"><a xlink:href="classZeroOrder.html" target="_top" xlink:title=" ">
<polygon fill="white" stroke="transparent" points="125,-459 0,-459 0,-260 125,-260 125,-459"/>
<text text-anchor="start" x="38" y="-446.5" font-family="Ubuntu Mono" font-size="10.00">ZeroOrder</text>
<text text-anchor="start" x="4.5" y="-431.5" font-family="Ubuntu Mono" font-size="10.00">#</text>
<text text-anchor="start" x="17.5" y="-431.5" font-family="Ubuntu Mono" font-size="10.00">k_</text>
<text text-anchor="start" x="4.5" y="-416.5" font-family="Ubuntu Mono" font-size="10.00">+</text>
<text text-anchor="start" x="17.5" y="-416.5" font-family="Ubuntu Mono" font-size="10.00">copyWithVolScaling()</text>
<text text-anchor="start" x="4.5" y="-401.5" font-family="Ubuntu Mono" font-size="10.00">+</text>
<text text-anchor="start" x="17.5" y="-401.5" font-family="Ubuntu Mono" font-size="10.00">getR1()</text>
<text text-anchor="start" x="4.5" y="-386.5" font-family="Ubuntu Mono" font-size="10.00">+</text>
<text text-anchor="start" x="17.5" y="-386.5" font-family="Ubuntu Mono" font-size="10.00">getR2()</text>
<text text-anchor="start" x="4.5" y="-371.5" font-family="Ubuntu Mono" font-size="10.00">+</text>
<text text-anchor="start" x="17.5" y="-371.5" font-family="Ubuntu Mono" font-size="10.00">getReactants()</text>
<text text-anchor="start" x="4.5" y="-356.5" font-family="Ubuntu Mono" font-size="10.00">+</text>
<text text-anchor="start" x="17.5" y="-356.5" font-family="Ubuntu Mono" font-size="10.00">operator()()</text>
<text text-anchor="start" x="4.5" y="-341.5" font-family="Ubuntu Mono" font-size="10.00">+</text>
<text text-anchor="start" x="17.5" y="-341.5" font-family="Ubuntu Mono" font-size="10.00">rescaleVolume()</text>
<text text-anchor="start" x="4.5" y="-326.5" font-family="Ubuntu Mono" font-size="10.00">+</text>
<text text-anchor="start" x="17.5" y="-326.5" font-family="Ubuntu Mono" font-size="10.00">setK()</text>
<text text-anchor="start" x="4.5" y="-311.5" font-family="Ubuntu Mono" font-size="10.00">+</text>
<text text-anchor="start" x="17.5" y="-311.5" font-family="Ubuntu Mono" font-size="10.00">setR1()</text>
<text text-anchor="start" x="4.5" y="-296.5" font-family="Ubuntu Mono" font-size="10.00">+</text>
<text text-anchor="start" x="17.5" y="-296.5" font-family="Ubuntu Mono" font-size="10.00">setR2()</text>
<text text-anchor="start" x="4.5" y="-281.5" font-family="Ubuntu Mono" font-size="10.00">+</text>
<text text-anchor="start" x="17.5" y="-281.5" font-family="Ubuntu Mono" font-size="10.00">setRates()</text>
<text text-anchor="start" x="4.5" y="-266.5" font-family="Ubuntu Mono" font-size="10.00">+</text>
<text text-anchor="start" x="17.5" y="-266.5" font-family="Ubuntu Mono" font-size="10.00">ZeroOrder()</text>
<polygon fill="#666666" stroke="#666666" points="0.5,-441.5 0.5,-441.5 125.5,-441.5 125.5,-441.5 0.5,-441.5"/>
<polygon fill="#666666" stroke="#666666" points="0.5,-426.5 0.5,-426.5 15.5,-426.5 15.5,-426.5 0.5,-426.5"/>
<polygon fill="#666666" stroke="#666666" points="15.5,-426.5 15.5,-426.5 125.5,-426.5 125.5,-426.5 15.5,-426.5"/>
<polygon fill="none" stroke="#666666" points="0,-260 0,-459 125,-459 125,-260 0,-260"/>
</a>
</g>
</g>
<!-- Node3&#45;&gt;Node2 -->
<g id="edge2_Node000002_Node000003" class="edge">
<title>Node3&#45;&gt;Node2</title>
<g id="a_edge2_Node000002_Node000003"><a xlink:title=" ">
<path fill="none" stroke="#63b8ff" d="M62.5,-249.54C62.5,-240.84 62.5,-232.31 62.5,-224.27"/>
<polygon fill="none" stroke="#63b8ff" points="59,-249.82 62.5,-259.82 66,-249.82 59,-249.82"/>
</a>
</g>
</g>
<!-- Node4 -->
<g id="Node000004" class="node">
<title>Node4</title>
<g id="a_Node000004"><a xlink:href="classRateTerm.html" target="_top" xlink:title=" ">
<polygon fill="white" stroke="transparent" points="125,-694 0,-694 0,-495 125,-495 125,-694"/>
<text text-anchor="start" x="39.5" y="-681.5" font-family="Ubuntu Mono" font-size="10.00">RateTerm</text>
<text text-anchor="start" x="4.5" y="-666.5" font-family="Ubuntu Mono" font-size="10.00">+</text>
<text text-anchor="start" x="17.5" y="-666.5" font-family="Ubuntu Mono" font-size="10.00">EPSILON</text>
<text text-anchor="start" x="4.5" y="-651.5" font-family="Ubuntu Mono" font-size="10.00">+</text>
<text text-anchor="start" x="17.5" y="-651.5" font-family="Ubuntu Mono" font-size="10.00">copyWithVolScaling()</text>
<text text-anchor="start" x="4.5" y="-636.5" font-family="Ubuntu Mono" font-size="10.00">+</text>
<text text-anchor="start" x="17.5" y="-636.5" font-family="Ubuntu Mono" font-size="10.00">getR1()</text>
<text text-anchor="start" x="4.5" y="-621.5" font-family="Ubuntu Mono" font-size="10.00">+</text>
<text text-anchor="start" x="17.5" y="-621.5" font-family="Ubuntu Mono" font-size="10.00">getR2()</text>
<text text-anchor="start" x="4.5" y="-606.5" font-family="Ubuntu Mono" font-size="10.00">+</text>
<text text-anchor="start" x="17.5" y="-606.5" font-family="Ubuntu Mono" font-size="10.00">getReactants()</text>
<text text-anchor="start" x="4.5" y="-591.5" font-family="Ubuntu Mono" font-size="10.00">+</text>
<text text-anchor="start" x="17.5" y="-591.5" font-family="Ubuntu Mono" font-size="10.00">operator()()</text>
<text text-anchor="start" x="4.5" y="-576.5" font-family="Ubuntu Mono" font-size="10.00">+</text>
<text text-anchor="start" x="17.5" y="-576.5" font-family="Ubuntu Mono" font-size="10.00">RateTerm()</text>
<text text-anchor="start" x="4.5" y="-561.5" font-family="Ubuntu Mono" font-size="10.00">+</text>
<text text-anchor="start" x="17.5" y="-561.5" font-family="Ubuntu Mono" font-size="10.00">rescaleVolume()</text>
<text text-anchor="start" x="4.5" y="-546.5" font-family="Ubuntu Mono" font-size="10.00">+</text>
<text text-anchor="start" x="17.5" y="-546.5" font-family="Ubuntu Mono" font-size="10.00">setR1()</text>
<text text-anchor="start" x="4.5" y="-531.5" font-family="Ubuntu Mono" font-size="10.00">+</text>
<text text-anchor="start" x="17.5" y="-531.5" font-family="Ubuntu Mono" font-size="10.00">setR2()</text>
<text text-anchor="start" x="4.5" y="-516.5" font-family="Ubuntu Mono" font-size="10.00">+</text>
<text text-anchor="start" x="17.5" y="-516.5" font-family="Ubuntu Mono" font-size="10.00">setRates()</text>
<text text-anchor="start" x="4.5" y="-501.5" font-family="Ubuntu Mono" font-size="10.00">+</text>
<text text-anchor="start" x="17.5" y="-501.5" font-family="Ubuntu Mono" font-size="10.00">~RateTerm()</text>
<polygon fill="#666666" stroke="#666666" points="0.5,-676.5 0.5,-676.5 125.5,-676.5 125.5,-676.5 0.5,-676.5"/>
<polygon fill="#666666" stroke="#666666" points="0.5,-661.5 0.5,-661.5 15.5,-661.5 15.5,-661.5 0.5,-661.5"/>
<polygon fill="#666666" stroke="#666666" points="15.5,-661.5 15.5,-661.5 125.5,-661.5 125.5,-661.5 15.5,-661.5"/>
<polygon fill="none" stroke="#666666" points="0,-495 0,-694 125,-694 125,-495 0,-495"/>
</a>
</g>
</g>
<!-- Node4&#45;&gt;Node3 -->
<g id="edge3_Node000003_Node000004" class="edge">
<title>Node4&#45;&gt;Node3</title>
<g id="a_edge3_Node000003_Node000004"><a xlink:title=" ">
<path fill="none" stroke="#63b8ff" d="M62.5,-484.42C62.5,-475.97 62.5,-467.47 62.5,-459.09"/>
<polygon fill="none" stroke="#63b8ff" points="59,-484.69 62.5,-494.69 66,-484.69 59,-484.69"/>
</a>
</g>
</g>
</g>
</svg>
