<?xml version="1.0" encoding="UTF-8" standalone="no"?>
<!DOCTYPE svg PUBLIC "-//W3C//DTD SVG 1.1//EN"
 "http://www.w3.org/Graphics/SVG/1.1/DTD/svg11.dtd">
<!-- Generated by graphviz version 2.43.0 (0)
 -->
<!-- Title: HHGateF::setInf Pages: 1 -->
<svg width="1241pt" height="738pt"
 viewBox="0.00 0.00 1241.00 738.00" xmlns="http://www.w3.org/2000/svg" xmlns:xlink="http://www.w3.org/1999/xlink">
<g id="graph0" class="graph" transform="scale(1 1) rotate(0) translate(4 734)">
<title>HHGateF::setInf</title>
<!-- Node1 -->
<g id="Node000001" class="node">
<title>Node1</title>
<g id="a_Node000001"><a xlink:title="Set the expression for evaluating inf.">
<polygon fill="#999999" stroke="#666666" points="94,-38 0,-38 0,-19 94,-19 94,-38"/>
<text text-anchor="middle" x="47" y="-26" font-family="Ubuntu Mono" font-size="10.00">HHGateF::setInf</text>
</a>
</g>
</g>
<!-- Node2 -->
<g id="Node000002" class="node">
<title>Node2</title>
<g id="a_Node000002"><a xlink:href="classHHGateBase.html#af5ec33b1a27dff42b92dd43ad2d2f0fa" target="_top" xlink:title=" ">
<polygon fill="white" stroke="#666666" points="282,-57 130,-57 130,-38 282,-38 282,-57"/>
<text text-anchor="middle" x="206" y="-45" font-family="Ubuntu Mono" font-size="10.00">HHGateBase::checkOriginal</text>
</a>
</g>
</g>
<!-- Node1&#45;&gt;Node2 -->
<g id="edge1_Node000001_Node000002" class="edge">
<title>Node1&#45;&gt;Node2</title>
<g id="a_edge1_Node000001_Node000002"><a xlink:title=" ">
<path fill="none" stroke="#63b8ff" d="M94.26,-34.1C102.41,-35.08 111.12,-36.14 119.94,-37.21"/>
<polygon fill="#63b8ff" stroke="#63b8ff" points="119.57,-40.69 129.92,-38.41 120.41,-33.74 119.57,-40.69"/>
</a>
</g>
</g>
<!-- Node36 -->
<g id="Node000036" class="node">
<title>Node36</title>
<g id="a_Node000036"><a xlink:href="classEref.html#aa96699f886e00b8eb3759c71cc8747bb" target="_top" xlink:title=" ">
<polygon fill="white" stroke="#666666" points="369.5,-19 319.5,-19 319.5,0 369.5,0 369.5,-19"/>
<text text-anchor="middle" x="344.5" y="-7" font-family="Ubuntu Mono" font-size="10.00">Eref::id</text>
</a>
</g>
</g>
<!-- Node1&#45;&gt;Node36 -->
<g id="edge43_Node000001_Node000036" class="edge">
<title>Node1&#45;&gt;Node36</title>
<g id="a_edge43_Node000001_Node000036"><a xlink:title=" ">
<path fill="none" stroke="#63b8ff" d="M94.17,-25.53C153.7,-21.7 255.87,-15.13 309.05,-11.71"/>
<polygon fill="#63b8ff" stroke="#63b8ff" points="309.56,-15.19 319.32,-11.05 309.11,-8.2 309.56,-15.19"/>
</a>
</g>
</g>
<!-- Node3 -->
<g id="Node000003" class="node">
<title>Node3</title>
<g id="a_Node000003"><a xlink:href="classId.html#a38206d79367649ab0056b93e6da3b789" target="_top" xlink:title=" ">
<polygon fill="white" stroke="#666666" points="804.5,-95 715.5,-95 715.5,-76 804.5,-76 804.5,-95"/>
<text text-anchor="middle" x="760" y="-83" font-family="Ubuntu Mono" font-size="10.00">Id::operator==</text>
</a>
</g>
</g>
<!-- Node2&#45;&gt;Node3 -->
<g id="edge2_Node000002_Node000003" class="edge">
<title>Node2&#45;&gt;Node3</title>
<g id="a_edge2_Node000002_Node000003"><a xlink:title=" ">
<path fill="none" stroke="#63b8ff" d="M282.02,-52.66C395.05,-60.45 606.29,-74.99 705.26,-81.8"/>
<polygon fill="#63b8ff" stroke="#63b8ff" points="705.11,-85.3 715.33,-82.49 705.6,-78.32 705.11,-85.3"/>
</a>
</g>
</g>
<!-- Node4 -->
<g id="Node000004" class="node">
<title>Node4</title>
<g id="a_Node000004"><a xlink:href="classId.html#ad0984685af5a98bc7aa429b03a97bd01" target="_top" xlink:title=" ">
<polygon fill="white" stroke="#666666" points="371,-410 318,-410 318,-391 371,-391 371,-410"/>
<text text-anchor="middle" x="344.5" y="-398" font-family="Ubuntu Mono" font-size="10.00">Id::path</text>
</a>
</g>
</g>
<!-- Node2&#45;&gt;Node4 -->
<g id="edge3_Node000002_Node000004" class="edge">
<title>Node2&#45;&gt;Node4</title>
<g id="a_edge3_Node000002_Node000004"><a xlink:title=" ">
<path fill="none" stroke="#63b8ff" d="M210.79,-57.31C229.39,-105.41 311.06,-316.62 336.15,-381.48"/>
<polygon fill="#63b8ff" stroke="#63b8ff" points="332.92,-382.84 339.79,-390.9 339.45,-380.31 332.92,-382.84"/>
</a>
</g>
</g>
<!-- Node5 -->
<g id="Node000005" class="node">
<title>Node5</title>
<g id="a_Node000005"><a xlink:href="classId.html#adac7a40d04024a7b9dcb7eae7b9fdf9b" target="_top" xlink:title=" ">
<polygon fill="white" stroke="#666666" points="603.5,-730 552.5,-730 552.5,-711 603.5,-711 603.5,-730"/>
<text text-anchor="middle" x="578" y="-718" font-family="Ubuntu Mono" font-size="10.00">Id::eref</text>
</a>
</g>
</g>
<!-- Node4&#45;&gt;Node5 -->
<g id="edge4_Node000004_Node000005" class="edge">
<title>Node4&#45;&gt;Node5</title>
<g id="a_edge4_Node000004_Node000005"><a xlink:title=" ">
<path fill="none" stroke="#63b8ff" d="M348.33,-410.01C361.14,-451.34 417.6,-617.16 523,-702.5 528.62,-707.05 535.45,-710.48 542.33,-713.04"/>
<polygon fill="#63b8ff" stroke="#63b8ff" points="541.72,-716.52 552.31,-716.22 543.84,-709.85 541.72,-716.52"/>
</a>
</g>
</g>
<!-- Node8 -->
<g id="Node000008" class="node">
<title>Node8</title>
<g id="a_Node000008"><a xlink:href="classNeutral.html#a93bee6d27f95c8c4c7eb3640cd883a98" target="_top" xlink:title=" ">
<polygon fill="white" stroke="#666666" points="487,-410 407,-410 407,-391 487,-391 487,-410"/>
<text text-anchor="middle" x="447" y="-398" font-family="Ubuntu Mono" font-size="10.00">Neutral::path</text>
</a>
</g>
</g>
<!-- Node4&#45;&gt;Node8 -->
<g id="edge7_Node000004_Node000008" class="edge">
<title>Node4&#45;&gt;Node8</title>
<g id="a_edge7_Node000004_Node000008"><a xlink:title=" ">
<path fill="none" stroke="#63b8ff" d="M371.12,-400.5C378.9,-400.5 387.71,-400.5 396.5,-400.5"/>
<polygon fill="#63b8ff" stroke="#63b8ff" points="396.74,-404 406.74,-400.5 396.74,-397 396.74,-404"/>
</a>
</g>
</g>
<!-- Node6 -->
<g id="Node000006" class="node">
<title>Node6</title>
<g id="a_Node000006"><a xlink:href="classId.html#a2d5e7b4d5d918aadfe45102691c2be27" target="_top" xlink:title=" ">
<polygon fill="white" stroke="#666666" points="1233,-693 1156,-693 1156,-674 1233,-674 1233,-693"/>
<text text-anchor="middle" x="1194.5" y="-681" font-family="Ubuntu Mono" font-size="10.00">Id::elements</text>
</a>
</g>
</g>
<!-- Node5&#45;&gt;Node6 -->
<g id="edge5_Node000005_Node000006" class="edge">
<title>Node5&#45;&gt;Node6</title>
<g id="a_edge5_Node000005_Node000006"><a xlink:title=" ">
<path fill="none" stroke="#63b8ff" d="M603.85,-719C696.36,-713.43 1021.79,-693.84 1145.39,-686.4"/>
<polygon fill="#63b8ff" stroke="#63b8ff" points="1145.9,-689.87 1155.67,-685.78 1145.48,-682.89 1145.9,-689.87"/>
</a>
</g>
</g>
<!-- Node7 -->
<g id="Node000007" class="node">
<title>Node7</title>
<g id="a_Node000007"><a xlink:href="classEref.html#a3addb850bc6cbac7771a07de219d909d" target="_top" xlink:title=" ">
<polygon fill="white" stroke="#666666" points="790.5,-693 729.5,-693 729.5,-674 790.5,-674 790.5,-693"/>
<text text-anchor="middle" x="760" y="-681" font-family="Ubuntu Mono" font-size="10.00">Eref::Eref</text>
</a>
</g>
</g>
<!-- Node5&#45;&gt;Node7 -->
<g id="edge6_Node000005_Node000007" class="edge">
<title>Node5&#45;&gt;Node7</title>
<g id="a_edge6_Node000005_Node000007"><a xlink:title=" ">
<path fill="none" stroke="#63b8ff" d="M603.65,-715.43C633.45,-709.31 683.97,-698.92 719.29,-691.66"/>
<polygon fill="#63b8ff" stroke="#63b8ff" points="720.18,-695.05 729.27,-689.61 718.77,-688.2 720.18,-695.05"/>
</a>
</g>
</g>
<!-- Node9 -->
<g id="Node000009" class="node">
<title>Node9</title>
<g id="a_Node000009"><a xlink:href="classEref.html#a47b59ab86165cceb0bde80c76c3f7fa2" target="_top" xlink:title=" ">
<polygon fill="white" stroke="#666666" points="619,-543 537,-543 537,-524 619,-524 619,-543"/>
<text text-anchor="middle" x="578" y="-531" font-family="Ubuntu Mono" font-size="10.00">Eref::element</text>
</a>
</g>
</g>
<!-- Node8&#45;&gt;Node9 -->
<g id="edge8_Node000008_Node000009" class="edge">
<title>Node8&#45;&gt;Node9</title>
<g id="a_edge8_Node000008_Node000009"><a xlink:title=" ">
<path fill="none" stroke="#63b8ff" d="M452.42,-410.27C462.28,-431.13 488.01,-480.44 523,-509.5 527.65,-513.36 533.02,-516.72 538.54,-519.6"/>
<polygon fill="#63b8ff" stroke="#63b8ff" points="537.31,-522.89 547.85,-524 540.3,-516.56 537.31,-522.89"/>
</a>
</g>
</g>
<!-- Node10 -->
<g id="Node000010" class="node">
<title>Node10</title>
<g id="a_Node000010"><a xlink:href="classObjId.html#ad87d6d712e4bceb381d1d324aa137d6e" target="_top" xlink:title=" ">
<polygon fill="white" stroke="#666666" points="976,-579 887,-579 887,-560 976,-560 976,-579"/>
<text text-anchor="middle" x="931.5" y="-567" font-family="Ubuntu Mono" font-size="10.00">ObjId::element</text>
</a>
</g>
</g>
<!-- Node8&#45;&gt;Node10 -->
<g id="edge9_Node000008_Node000010" class="edge">
<title>Node8&#45;&gt;Node10</title>
<g id="a_edge9_Node000008_Node000010"><a xlink:title=" ">
<path fill="none" stroke="#63b8ff" d="M456.68,-410.32C469.69,-424.42 495.66,-450.29 523,-464.5 640.65,-525.65 796.29,-552.87 876.93,-563.53"/>
<polygon fill="#63b8ff" stroke="#63b8ff" points="876.49,-567 886.86,-564.81 877.39,-560.06 876.49,-567"/>
</a>
</g>
</g>
<!-- Node12 -->
<g id="Node000012" class="node">
<title>Node12</title>
<g id="a_Node000012"><a xlink:href="classObjId.html#a76a3d4b89944235a24eff983030a5e91" target="_top" xlink:title=" ">
<polygon fill="white" stroke="#666666" points="612,-693 544,-693 544,-674 612,-674 612,-693"/>
<text text-anchor="middle" x="578" y="-681" font-family="Ubuntu Mono" font-size="10.00">ObjId::eref</text>
</a>
</g>
</g>
<!-- Node8&#45;&gt;Node12 -->
<g id="edge12_Node000008_Node000012" class="edge">
<title>Node8&#45;&gt;Node12</title>
<g id="a_edge12_Node000008_Node000012"><a xlink:title=" ">
<path fill="none" stroke="#63b8ff" d="M450.15,-410.06C460.37,-455.24 504.38,-646.01 523,-665.5 526.24,-668.89 530.12,-671.64 534.31,-673.87"/>
<polygon fill="#63b8ff" stroke="#63b8ff" points="533.26,-677.23 543.83,-677.98 536.04,-670.8 533.26,-677.23"/>
</a>
</g>
</g>
<!-- Node13 -->
<g id="Node000013" class="node">
<title>Node13</title>
<g id="a_Node000013"><a xlink:href="classEref.html#aed748cb72c986c869e4c650dd28d8d02" target="_top" xlink:title=" ">
<polygon fill="white" stroke="#666666" points="622.5,-355 533.5,-355 533.5,-336 622.5,-336 622.5,-355"/>
<text text-anchor="middle" x="578" y="-343" font-family="Ubuntu Mono" font-size="10.00">Eref::fieldIndex</text>
</a>
</g>
</g>
<!-- Node8&#45;&gt;Node13 -->
<g id="edge15_Node000008_Node000013" class="edge">
<title>Node8&#45;&gt;Node13</title>
<g id="a_edge15_Node000008_Node000013"><a xlink:title=" ">
<path fill="none" stroke="#63b8ff" d="M465.57,-390.98C480.57,-383.06 502.86,-371.78 523,-363.5 527.23,-361.76 531.69,-360.06 536.16,-358.45"/>
<polygon fill="#63b8ff" stroke="#63b8ff" points="537.6,-361.66 545.89,-355.06 535.3,-355.05 537.6,-361.66"/>
</a>
</g>
</g>
<!-- Node14 -->
<g id="Node000014" class="node">
<title>Node14</title>
<g id="a_Node000014"><a xlink:href="classElement.html#a3c07cf6355e6127827ce67682e3bb2a0" target="_top" xlink:title=" ">
<polygon fill="white" stroke="#666666" points="633,-429 523,-429 523,-410 633,-410 633,-429"/>
<text text-anchor="middle" x="578" y="-417" font-family="Ubuntu Mono" font-size="10.00">Element::findCaller</text>
</a>
</g>
</g>
<!-- Node8&#45;&gt;Node14 -->
<g id="edge16_Node000008_Node000014" class="edge">
<title>Node8&#45;&gt;Node14</title>
<g id="a_edge16_Node000008_Node000014"><a xlink:title=" ">
<path fill="none" stroke="#63b8ff" d="M487.05,-406.25C495.24,-407.46 504.09,-408.76 512.92,-410.06"/>
<polygon fill="#63b8ff" stroke="#63b8ff" points="512.44,-413.53 522.85,-411.52 513.46,-406.6 512.44,-413.53"/>
</a>
</g>
</g>
<!-- Node18 -->
<g id="Node000018" class="node">
<title>Node18</title>
<g id="a_Node000018"><a xlink:href="classMsg.html#a1a57001709e44ab056a704c24760c105" target="_top" xlink:title=" ">
<polygon fill="white" stroke="#666666" points="799.5,-485 720.5,-485 720.5,-466 799.5,-466 799.5,-485"/>
<text text-anchor="middle" x="760" y="-473" font-family="Ubuntu Mono" font-size="10.00">Msg::getMsg</text>
</a>
</g>
</g>
<!-- Node8&#45;&gt;Node18 -->
<g id="edge31_Node000008_Node000018" class="edge">
<title>Node8&#45;&gt;Node18</title>
<g id="a_edge31_Node000008_Node000018"><a xlink:title=" ">
<path fill="none" stroke="#63b8ff" d="M463.8,-410.04C478.59,-418.54 501.56,-430.66 523,-437.5 585.8,-457.55 661.53,-467.34 709.96,-471.9"/>
<polygon fill="#63b8ff" stroke="#63b8ff" points="709.89,-475.4 720.17,-472.82 710.52,-468.43 709.89,-475.4"/>
</a>
</g>
</g>
<!-- Node25 -->
<g id="Node000025" class="node">
<title>Node25</title>
<g id="a_Node000025"><a xlink:href="classCinfo.html#a7642d2a9ffe54cc8008df39de171ab63" target="_top" xlink:title=" ">
<polygon fill="white" stroke="#666666" points="623,-318 533,-318 533,-299 623,-299 623,-318"/>
<text text-anchor="middle" x="578" y="-306" font-family="Ubuntu Mono" font-size="10.00">Cinfo::findFinfo</text>
</a>
</g>
</g>
<!-- Node8&#45;&gt;Node25 -->
<g id="edge28_Node000008_Node000025" class="edge">
<title>Node8&#45;&gt;Node25</title>
<g id="a_edge28_Node000008_Node000025"><a xlink:title=" ">
<path fill="none" stroke="#63b8ff" d="M455.25,-390.92C467.55,-375.29 494,-344.29 523,-326.5 525.61,-324.9 528.38,-323.42 531.24,-322.06"/>
<polygon fill="#63b8ff" stroke="#63b8ff" points="532.7,-325.24 540.54,-318.11 529.96,-318.8 532.7,-325.24"/>
</a>
</g>
</g>
<!-- Node26 -->
<g id="Node000026" class="node">
<title>Node26</title>
<g id="a_Node000026"><a xlink:href="classMsg.html#a326ed96ece35f632b16de59838db6c29" target="_top" xlink:title=" ">
<polygon fill="white" stroke="#666666" points="631,-281 525,-281 525,-262 631,-262 631,-281"/>
<text text-anchor="middle" x="578" y="-269" font-family="Ubuntu Mono" font-size="10.00">Msg::findOtherEnd</text>
</a>
</g>
</g>
<!-- Node8&#45;&gt;Node26 -->
<g id="edge29_Node000008_Node000026" class="edge">
<title>Node8&#45;&gt;Node26</title>
<g id="a_edge29_Node000008_Node000026"><a xlink:title=" ">
<path fill="none" stroke="#63b8ff" d="M451.88,-390.93C461.01,-369.55 485.95,-317.62 523,-289.5 524.82,-288.12 526.76,-286.84 528.77,-285.65"/>
<polygon fill="#63b8ff" stroke="#63b8ff" points="530.6,-288.65 537.97,-281.05 527.46,-282.39 530.6,-288.65"/>
</a>
</g>
</g>
<!-- Node27 -->
<g id="Node000027" class="node">
<title>Node27</title>
<g id="a_Node000027"><a xlink:href="classDestFinfo.html#a6efef23ddcfbaef03eca8aa75fdd98cd" target="_top" xlink:title=" ">
<polygon fill="white" stroke="#666666" points="627.5,-244 528.5,-244 528.5,-225 627.5,-225 627.5,-244"/>
<text text-anchor="middle" x="578" y="-232" font-family="Ubuntu Mono" font-size="10.00">DestFinfo::getFid</text>
</a>
</g>
</g>
<!-- Node8&#45;&gt;Node27 -->
<g id="edge30_Node000008_Node000027" class="edge">
<title>Node8&#45;&gt;Node27</title>
<g id="a_edge30_Node000008_Node000027"><a xlink:title=" ">
<path fill="none" stroke="#63b8ff" d="M450.14,-390.97C456.48,-364.88 477.63,-291.63 523,-252.5 524.49,-251.22 526.07,-250.02 527.72,-248.92"/>
<polygon fill="#63b8ff" stroke="#63b8ff" points="529.43,-251.97 536.47,-244.05 526.03,-245.86 529.43,-251.97"/>
</a>
</g>
</g>
<!-- Node28 -->
<g id="Node000028" class="node">
<title>Node28</title>
<g id="a_Node000028"><a xlink:href="classElement.html#a1a2068a4e70da0f951bc3e73b758ef4a" target="_top" xlink:title=" ">
<polygon fill="white" stroke="#666666" points="632,-207 524,-207 524,-188 632,-188 632,-207"/>
<text text-anchor="middle" x="578" y="-195" font-family="Ubuntu Mono" font-size="10.00">Element::getName</text>
</a>
</g>
</g>
<!-- Node8&#45;&gt;Node28 -->
<g id="edge32_Node000008_Node000028" class="edge">
<title>Node8&#45;&gt;Node28</title>
<g id="a_edge32_Node000008_Node000028"><a xlink:title=" ">
<path fill="none" stroke="#63b8ff" d="M449.08,-390.87C453,-360.54 469.17,-266.02 523,-215.5 524.26,-214.31 525.61,-213.21 527.01,-212.17"/>
<polygon fill="#63b8ff" stroke="#63b8ff" points="528.86,-215.14 535.65,-207.01 525.27,-209.14 528.86,-215.14"/>
</a>
</g>
</g>
<!-- Node29 -->
<g id="Node000029" class="node">
<title>Node29</title>
<g id="a_Node000029"><a xlink:href="classElement.html#a8489d936deee408d78042cf199694bb5" target="_top" xlink:title=" ">
<polygon fill="white" stroke="#666666" points="632.5,-170 523.5,-170 523.5,-151 632.5,-151 632.5,-170"/>
<text text-anchor="middle" x="578" y="-158" font-family="Ubuntu Mono" font-size="10.00">Element::hasFields</text>
</a>
</g>
</g>
<!-- Node8&#45;&gt;Node29 -->
<g id="edge33_Node000008_Node000029" class="edge">
<title>Node8&#45;&gt;Node29</title>
<g id="a_edge33_Node000008_Node000029"><a xlink:title=" ">
<path fill="none" stroke="#63b8ff" d="M448.34,-390.95C450.05,-356.99 460.45,-240.8 523,-178.5 524.07,-177.43 525.21,-176.43 526.4,-175.48"/>
<polygon fill="#63b8ff" stroke="#63b8ff" points="528.35,-178.39 534.91,-170.07 524.59,-172.49 528.35,-178.39"/>
</a>
</g>
</g>
<!-- Node30 -->
<g id="Node000030" class="node">
<title>Node30</title>
<g id="a_Node000030"><a xlink:href="classId.html#ac094968605676d63b55ca33b7e318948" target="_top" xlink:title=" ">
<polygon fill="white" stroke="#666666" points="780.5,-617 739.5,-617 739.5,-598 780.5,-598 780.5,-617"/>
<text text-anchor="middle" x="760" y="-605" font-family="Ubuntu Mono" font-size="10.00">Id::Id</text>
</a>
</g>
</g>
<!-- Node8&#45;&gt;Node30 -->
<g id="edge34_Node000008_Node000030" class="edge">
<title>Node8&#45;&gt;Node30</title>
<g id="a_edge34_Node000008_Node000030"><a xlink:title=" ">
<path fill="none" stroke="#63b8ff" d="M448.51,-410.41C450.74,-442.48 462.49,-543.85 523,-588.5 584.47,-633.87 681.08,-623.37 729.41,-614.22"/>
<polygon fill="#63b8ff" stroke="#63b8ff" points="730.11,-617.65 739.23,-612.25 728.74,-610.78 730.11,-617.65"/>
</a>
</g>
</g>
<!-- Node31 -->
<g id="Node000031" class="node">
<title>Node31</title>
<g id="a_Node000031"><a xlink:href="classObjId.html#aad3d714ee57757ed3754a58edc9ad4a9" target="_top" xlink:title=" ">
<polygon fill="white" stroke="#666666" points="615,-656 541,-656 541,-637 615,-637 615,-656"/>
<text text-anchor="middle" x="578" y="-644" font-family="Ubuntu Mono" font-size="10.00">ObjId::ObjId</text>
</a>
</g>
</g>
<!-- Node8&#45;&gt;Node31 -->
<g id="edge35_Node000008_Node000031" class="edge">
<title>Node8&#45;&gt;Node31</title>
<g id="a_edge35_Node000008_Node000031"><a xlink:title=" ">
<path fill="none" stroke="#63b8ff" d="M448.59,-410.31C451.11,-444.16 463.8,-557.56 523,-622.5 526.45,-626.29 530.62,-629.51 535.08,-632.25"/>
<polygon fill="#63b8ff" stroke="#63b8ff" points="533.45,-635.35 543.93,-636.93 536.72,-629.16 533.45,-635.35"/>
</a>
</g>
</g>
<!-- Node32 -->
<g id="Node000032" class="node">
<title>Node32</title>
<g id="a_Node000032"><a xlink:href="classEref.html#ab305a4ab972b50443b7d35cfd516861a" target="_top" xlink:title=" ">
<polygon fill="white" stroke="#666666" points="610.5,-392 545.5,-392 545.5,-373 610.5,-373 610.5,-392"/>
<text text-anchor="middle" x="578" y="-380" font-family="Ubuntu Mono" font-size="10.00">Eref::objId</text>
</a>
</g>
</g>
<!-- Node8&#45;&gt;Node32 -->
<g id="edge37_Node000008_Node000032" class="edge">
<title>Node8&#45;&gt;Node32</title>
<g id="a_edge37_Node000008_Node000032"><a xlink:title=" ">
<path fill="none" stroke="#63b8ff" d="M487.05,-395.05C502.24,-392.93 519.66,-390.5 535.11,-388.35"/>
<polygon fill="#63b8ff" stroke="#63b8ff" points="536.01,-391.75 545.43,-386.91 535.04,-384.82 536.01,-391.75"/>
</a>
</g>
</g>
<!-- Node34 -->
<g id="Node000034" class="node">
<title>Node34</title>
<g id="a_Node000034"><a xlink:href="classId.html#a6a4a7d5c9e8524644febc6b6e8dc1ab9" target="_top" xlink:title=" ">
<polygon fill="white" stroke="#666666" points="620.5,-580 535.5,-580 535.5,-561 620.5,-561 620.5,-580"/>
<text text-anchor="middle" x="578" y="-568" font-family="Ubuntu Mono" font-size="10.00">Id::operator!=</text>
</a>
</g>
</g>
<!-- Node8&#45;&gt;Node34 -->
<g id="edge40_Node000008_Node000034" class="edge">
<title>Node8&#45;&gt;Node34</title>
<g id="a_edge40_Node000008_Node000034"><a xlink:title=" ">
<path fill="none" stroke="#63b8ff" d="M450.11,-410.18C456.38,-436.69 477.39,-511.17 523,-551.5 524.92,-553.2 527,-554.75 529.2,-556.16"/>
<polygon fill="#63b8ff" stroke="#63b8ff" points="527.62,-559.29 538.09,-560.96 530.95,-553.13 527.62,-559.29"/>
</a>
</g>
</g>
<!-- Node35 -->
<g id="Node000035" class="node">
<title>Node35</title>
<g id="a_Node000035"><a xlink:href="classObjId.html#a6a7e5a3ee84c58803fe025943941e67e" target="_top" xlink:title=" ">
<polygon fill="white" stroke="#666666" points="631,-133 525,-133 525,-114 631,-114 631,-133"/>
<text text-anchor="middle" x="578" y="-121" font-family="Ubuntu Mono" font-size="10.00">ObjId::operator==</text>
</a>
</g>
</g>
<!-- Node8&#45;&gt;Node35 -->
<g id="edge41_Node000008_Node000035" class="edge">
<title>Node8&#45;&gt;Node35</title>
<g id="a_edge41_Node000008_Node000035"><a xlink:title=" ">
<path fill="none" stroke="#63b8ff" d="M447.8,-390.98C447.54,-353.66 451.64,-215.76 523,-141.5 523.92,-140.54 524.9,-139.63 525.92,-138.77"/>
<polygon fill="#63b8ff" stroke="#63b8ff" points="528.1,-141.52 534.49,-133.07 524.23,-135.69 528.1,-141.52"/>
</a>
</g>
</g>
<!-- Node11 -->
<g id="Node000011" class="node">
<title>Node11</title>
<g id="a_Node000011"><a xlink:href="classId.html#a574e06330597163aef0ea4c99de7ff4a" target="_top" xlink:title="Synonym for Id::operator()()">
<polygon fill="white" stroke="#666666" points="1102,-617 1030,-617 1030,-598 1102,-598 1102,-617"/>
<text text-anchor="middle" x="1066" y="-605" font-family="Ubuntu Mono" font-size="10.00">Id::element</text>
</a>
</g>
</g>
<!-- Node10&#45;&gt;Node11 -->
<g id="edge10_Node000010_Node000011" class="edge">
<title>Node10&#45;&gt;Node11</title>
<g id="a_edge10_Node000010_Node000011"><a xlink:title=" ">
<path fill="none" stroke="#63b8ff" d="M965.94,-579.09C982.88,-583.95 1003.66,-589.91 1021.81,-595.11"/>
<polygon fill="#63b8ff" stroke="#63b8ff" points="1021,-598.52 1031.58,-597.91 1022.93,-591.79 1021,-598.52"/>
</a>
</g>
</g>
<!-- Node11&#45;&gt;Node6 -->
<g id="edge11_Node000011_Node000006" class="edge">
<title>Node11&#45;&gt;Node6</title>
<g id="a_edge11_Node000011_Node000006"><a xlink:title=" ">
<path fill="none" stroke="#63b8ff" d="M1083.02,-617.13C1104.69,-630.15 1143.55,-653.49 1168.93,-668.74"/>
<polygon fill="#63b8ff" stroke="#63b8ff" points="1167.23,-671.8 1177.61,-673.95 1170.84,-665.8 1167.23,-671.8"/>
</a>
</g>
</g>
<!-- Node12&#45;&gt;Node7 -->
<g id="edge14_Node000012_Node000007" class="edge">
<title>Node12&#45;&gt;Node7</title>
<g id="a_edge14_Node000012_Node000007"><a xlink:title=" ">
<path fill="none" stroke="#63b8ff" d="M612.01,-683.5C642.2,-683.5 686.9,-683.5 719.08,-683.5"/>
<polygon fill="#63b8ff" stroke="#63b8ff" points="719.48,-687 729.48,-683.5 719.48,-680 719.48,-687"/>
</a>
</g>
</g>
<!-- Node12&#45;&gt;Node11 -->
<g id="edge13_Node000012_Node000011" class="edge">
<title>Node12&#45;&gt;Node11</title>
<g id="a_edge13_Node000012_Node000011"><a xlink:title=" ">
<path fill="none" stroke="#63b8ff" d="M612.26,-676.42C629.21,-672.92 650.16,-668.76 669,-665.5 795.6,-643.58 945.91,-623.07 1019.63,-613.36"/>
<polygon fill="#63b8ff" stroke="#63b8ff" points="1020.48,-616.78 1029.94,-612.01 1019.57,-609.84 1020.48,-616.78"/>
</a>
</g>
</g>
<!-- Node15 -->
<g id="Node000015" class="node">
<title>Node15</title>
<g id="a_Node000015"><a xlink:href="classMsg.html#a5be9f4dd643f5f662e8fb3c029273390" target="_top" xlink:title=" ">
<polygon fill="white" stroke="#666666" points="787.5,-448 732.5,-448 732.5,-429 787.5,-429 787.5,-448"/>
<text text-anchor="middle" x="760" y="-436" font-family="Ubuntu Mono" font-size="10.00">Msg::e1</text>
</a>
</g>
</g>
<!-- Node14&#45;&gt;Node15 -->
<g id="edge17_Node000014_Node000015" class="edge">
<title>Node14&#45;&gt;Node15</title>
<g id="a_edge17_Node000014_Node000015"><a xlink:title=" ">
<path fill="none" stroke="#63b8ff" d="M633.01,-425.2C661.77,-428.24 696.4,-431.89 722.07,-434.6"/>
<polygon fill="#63b8ff" stroke="#63b8ff" points="721.82,-438.09 732.13,-435.66 722.55,-431.13 721.82,-438.09"/>
</a>
</g>
</g>
<!-- Node16 -->
<g id="Node000016" class="node">
<title>Node16</title>
<g id="a_Node000016"><a xlink:href="classMsg.html#a893ed6b44cd4c529f0f10af38ae6743a" target="_top" xlink:title=" ">
<polygon fill="white" stroke="#666666" points="787.5,-411 732.5,-411 732.5,-392 787.5,-392 787.5,-411"/>
<text text-anchor="middle" x="760" y="-399" font-family="Ubuntu Mono" font-size="10.00">Msg::e2</text>
</a>
</g>
</g>
<!-- Node14&#45;&gt;Node16 -->
<g id="edge18_Node000014_Node000016" class="edge">
<title>Node14&#45;&gt;Node16</title>
<g id="a_edge18_Node000014_Node000016"><a xlink:title=" ">
<path fill="none" stroke="#63b8ff" d="M633.01,-414.1C661.77,-411.22 696.4,-407.76 722.07,-405.19"/>
<polygon fill="#63b8ff" stroke="#63b8ff" points="722.53,-408.66 732.13,-404.19 721.83,-401.7 722.53,-408.66"/>
</a>
</g>
</g>
<!-- Node17 -->
<g id="Node000017" class="node">
<title>Node17</title>
<g id="a_Node000017"><a xlink:href="classElement.html#a0f7aa6c77f30cb8865cdd0a0dde03854" target="_top" xlink:title=" ">
<polygon fill="white" stroke="#666666" points="819,-374 701,-374 701,-355 819,-355 819,-374"/>
<text text-anchor="middle" x="760" y="-362" font-family="Ubuntu Mono" font-size="10.00">Element::findBinding</text>
</a>
</g>
</g>
<!-- Node14&#45;&gt;Node17 -->
<g id="edge19_Node000014_Node000017" class="edge">
<title>Node14&#45;&gt;Node17</title>
<g id="a_edge19_Node000014_Node000017"><a xlink:title=" ">
<path fill="none" stroke="#63b8ff" d="M608.4,-409.91C616.45,-407.08 625.13,-403.84 633,-400.5 649.47,-393.52 652.08,-388.31 669,-382.5 676.02,-380.09 683.47,-377.96 690.95,-376.09"/>
<polygon fill="#63b8ff" stroke="#63b8ff" points="691.85,-379.48 700.78,-373.78 690.24,-372.66 691.85,-379.48"/>
</a>
</g>
</g>
<!-- Node14&#45;&gt;Node18 -->
<g id="edge20_Node000014_Node000018" class="edge">
<title>Node14&#45;&gt;Node18</title>
<g id="a_edge20_Node000014_Node000018"><a xlink:title=" ">
<path fill="none" stroke="#63b8ff" d="M601.2,-429.17C623.36,-438.72 655.92,-452.47 669,-456.5 682.13,-460.55 696.61,-464.02 710.04,-466.85"/>
<polygon fill="#63b8ff" stroke="#63b8ff" points="709.57,-470.33 720.06,-468.89 710.96,-463.47 709.57,-470.33"/>
</a>
</g>
</g>
<!-- Node22 -->
<g id="Node000022" class="node">
<title>Node22</title>
<g id="a_Node000022"><a xlink:href="classMsgFuncBinding.html#ad0172d166d6629ed092500ea64473eb5" target="_top" xlink:title=" ">
<polygon fill="white" stroke="#666666" points="851,-337 669,-337 669,-318 851,-318 851,-337"/>
<text text-anchor="middle" x="760" y="-325" font-family="Ubuntu Mono" font-size="10.00">MsgFuncBinding::MsgFuncBinding</text>
</a>
</g>
</g>
<!-- Node14&#45;&gt;Node22 -->
<g id="edge25_Node000014_Node000022" class="edge">
<title>Node14&#45;&gt;Node22</title>
<g id="a_edge25_Node000014_Node000022"><a xlink:title=" ">
<path fill="none" stroke="#63b8ff" d="M616.4,-409.97C622.3,-407.47 628.07,-404.36 633,-400.5 655.99,-382.48 644.79,-361.86 669,-345.5 671.27,-343.96 673.65,-342.55 676.1,-341.26"/>
<polygon fill="#63b8ff" stroke="#63b8ff" points="677.64,-344.4 685.27,-337.05 674.73,-338.04 677.64,-344.4"/>
</a>
</g>
</g>
<!-- Node24 -->
<g id="Node000024" class="node">
<title>Node24</title>
<g id="a_Node000024"><a xlink:href="classObjId.html#ab6b120d314aab5abc3ea8bb7ead5ae41" target="_top" xlink:title=" ">
<polygon fill="white" stroke="#666666" points="797,-300 723,-300 723,-281 797,-281 797,-300"/>
<text text-anchor="middle" x="760" y="-288" font-family="Ubuntu Mono" font-size="10.00">ObjId::ObjId</text>
</a>
</g>
</g>
<!-- Node14&#45;&gt;Node24 -->
<g id="edge27_Node000014_Node000024" class="edge">
<title>Node14&#45;&gt;Node24</title>
<g id="a_edge27_Node000014_Node000024"><a xlink:title=" ">
<path fill="none" stroke="#63b8ff" d="M619.05,-409.91C624.16,-407.45 629,-404.37 633,-400.5 664.58,-370 635.35,-336.71 669,-308.5 681.01,-298.44 697.06,-293.45 712.29,-291.12"/>
<polygon fill="#63b8ff" stroke="#63b8ff" points="713.12,-294.55 722.64,-289.9 712.3,-287.6 713.12,-294.55"/>
</a>
</g>
</g>
<!-- Node19 -->
<g id="Node000019" class="node">
<title>Node19</title>
<g id="a_Node000019"><a xlink:href="classObjId.html#a1e5933713d6a73550b0923cf63f5bfd8" target="_top" xlink:title=" ">
<polygon fill="white" stroke="#666666" points="966.5,-513 896.5,-513 896.5,-494 966.5,-494 966.5,-513"/>
<text text-anchor="middle" x="931.5" y="-501" font-family="Ubuntu Mono" font-size="10.00">ObjId::data</text>
</a>
</g>
</g>
<!-- Node18&#45;&gt;Node19 -->
<g id="edge21_Node000018_Node000019" class="edge">
<title>Node18&#45;&gt;Node19</title>
<g id="a_edge21_Node000018_Node000019"><a xlink:title=" ">
<path fill="none" stroke="#63b8ff" d="M799.89,-481.92C825.71,-486.19 859.67,-491.8 886.49,-496.23"/>
<polygon fill="#63b8ff" stroke="#63b8ff" points="885.95,-499.69 896.39,-497.86 887.09,-492.78 885.95,-499.69"/>
</a>
</g>
</g>
<!-- Node19&#45;&gt;Node11 -->
<g id="edge23_Node000019_Node000011" class="edge">
<title>Node19&#45;&gt;Node11</title>
<g id="a_edge23_Node000019_Node000011"><a xlink:title=" ">
<path fill="none" stroke="#63b8ff" d="M944.73,-513.1C967.6,-531.05 1017.07,-569.88 1044.91,-591.73"/>
<polygon fill="#63b8ff" stroke="#63b8ff" points="1042.77,-594.5 1052.8,-597.93 1047.1,-589 1042.77,-594.5"/>
</a>
</g>
</g>
<!-- Node20 -->
<g id="Node000020" class="node">
<title>Node20</title>
<g id="a_Node000020"><a xlink:href="classElement.html#a1978a0a584f1b10ea4a7c67e69880042" target="_top" xlink:title=" ">
<polygon fill="white" stroke="#666666" points="1108.5,-532 1023.5,-532 1023.5,-513 1108.5,-513 1108.5,-532"/>
<text text-anchor="middle" x="1066" y="-520" font-family="Ubuntu Mono" font-size="10.00">Element::data</text>
</a>
</g>
</g>
<!-- Node19&#45;&gt;Node20 -->
<g id="edge22_Node000019_Node000020" class="edge">
<title>Node19&#45;&gt;Node20</title>
<g id="a_edge22_Node000019_Node000020"><a xlink:title=" ">
<path fill="none" stroke="#63b8ff" d="M966.62,-508.39C980.84,-510.43 997.66,-512.84 1013.33,-515.09"/>
<polygon fill="#63b8ff" stroke="#63b8ff" points="1013.03,-518.58 1023.43,-516.54 1014.02,-511.65 1013.03,-518.58"/>
</a>
</g>
</g>
<!-- Node21 -->
<g id="Node000021" class="node">
<title>Node21</title>
<g id="a_Node000021"><a xlink:href="classElement.html#a73a0e468a3d6cfd6475fff4a56459075" target="_top" xlink:title=" ">
<polygon fill="white" stroke="#666666" points="1120,-495 1012,-495 1012,-476 1120,-476 1120,-495"/>
<text text-anchor="middle" x="1066" y="-483" font-family="Ubuntu Mono" font-size="10.00">Element::rawIndex</text>
</a>
</g>
</g>
<!-- Node19&#45;&gt;Node21 -->
<g id="edge24_Node000019_Node000021" class="edge">
<title>Node19&#45;&gt;Node21</title>
<g id="a_edge24_Node000019_Node000021"><a xlink:title=" ">
<path fill="none" stroke="#63b8ff" d="M966.62,-498.86C977.4,-497.4 989.69,-495.73 1001.83,-494.08"/>
<polygon fill="#63b8ff" stroke="#63b8ff" points="1002.52,-497.52 1011.96,-492.71 1001.58,-490.58 1002.52,-497.52"/>
</a>
</g>
</g>
<!-- Node23 -->
<g id="Node000023" class="node">
<title>Node23</title>
<g id="a_Node000023"><a xlink:href="classObjId.html#a02a8374ceddca0d8f4a672005aef8ffc" target="_top" xlink:title=" ">
<polygon fill="white" stroke="#666666" points="968.5,-337 894.5,-337 894.5,-318 968.5,-318 968.5,-337"/>
<text text-anchor="middle" x="931.5" y="-325" font-family="Ubuntu Mono" font-size="10.00">ObjId::ObjId</text>
</a>
</g>
</g>
<!-- Node22&#45;&gt;Node23 -->
<g id="edge26_Node000022_Node000023" class="edge">
<title>Node22&#45;&gt;Node23</title>
<g id="a_edge26_Node000022_Node000023"><a xlink:title=" ">
<path fill="none" stroke="#63b8ff" d="M851.21,-327.5C862.71,-327.5 874.08,-327.5 884.46,-327.5"/>
<polygon fill="#63b8ff" stroke="#63b8ff" points="884.48,-331 894.48,-327.5 884.48,-324 884.48,-331"/>
</a>
</g>
</g>
<!-- Node31&#45;&gt;Node30 -->
<g id="edge36_Node000031_Node000030" class="edge">
<title>Node31&#45;&gt;Node30</title>
<g id="a_edge36_Node000031_Node000030"><a xlink:title=" ">
<path fill="none" stroke="#63b8ff" d="M615.43,-638.61C649.02,-631.33 698.27,-620.66 729.48,-613.9"/>
<polygon fill="#63b8ff" stroke="#63b8ff" points="730.29,-617.3 739.32,-611.76 728.8,-610.46 730.29,-617.3"/>
</a>
</g>
</g>
<!-- Node32&#45;&gt;Node24 -->
<g id="edge39_Node000032_Node000024" class="edge">
<title>Node32&#45;&gt;Node24</title>
<g id="a_edge39_Node000032_Node000024"><a xlink:title=" ">
<path fill="none" stroke="#63b8ff" d="M610.76,-375.17C618.55,-372.37 626.51,-368.59 633,-363.5 655.99,-345.48 644.79,-324.86 669,-308.5 681.76,-299.87 697.73,-295.2 712.65,-292.71"/>
<polygon fill="#63b8ff" stroke="#63b8ff" points="713.33,-296.15 722.76,-291.33 712.38,-289.22 713.33,-296.15"/>
</a>
</g>
</g>
<!-- Node33 -->
<g id="Node000033" class="node">
<title>Node33</title>
<g id="a_Node000033"><a xlink:href="classElement.html#a934907c01faf58e21f545d53a54cfefc" target="_top" xlink:title=" ">
<polygon fill="white" stroke="#666666" points="796,-132 724,-132 724,-113 796,-113 796,-132"/>
<text text-anchor="middle" x="760" y="-120" font-family="Ubuntu Mono" font-size="10.00">Element::id</text>
</a>
</g>
</g>
<!-- Node32&#45;&gt;Node33 -->
<g id="edge38_Node000032_Node000033" class="edge">
<title>Node32&#45;&gt;Node33</title>
<g id="a_edge38_Node000032_Node000033"><a xlink:title=" ">
<path fill="none" stroke="#63b8ff" d="M610.68,-376.35C618.74,-373.53 626.85,-369.44 633,-363.5 664.58,-333 649.58,-310.88 669,-271.5 693.15,-222.52 728.05,-168.45 746.49,-140.88"/>
<polygon fill="#63b8ff" stroke="#63b8ff" points="749.6,-142.53 752.28,-132.28 743.79,-138.62 749.6,-142.53"/>
</a>
</g>
</g>
<!-- Node35&#45;&gt;Node3 -->
<g id="edge42_Node000035_Node000003" class="edge">
<title>Node35&#45;&gt;Node3</title>
<g id="a_edge42_Node000035_Node000003"><a xlink:title=" ">
<path fill="none" stroke="#63b8ff" d="M621.08,-113.95C636.18,-110.58 653.34,-106.81 669,-103.5 680.81,-101.01 693.52,-98.41 705.56,-95.99"/>
<polygon fill="#63b8ff" stroke="#63b8ff" points="706.35,-99.4 715.47,-94.01 704.98,-92.54 706.35,-99.4"/>
</a>
</g>
</g>
<!-- Node36&#45;&gt;Node33 -->
<g id="edge44_Node000036_Node000033" class="edge">
<title>Node36&#45;&gt;Node33</title>
<g id="a_edge44_Node000036_Node000033"><a xlink:title=" ">
<path fill="none" stroke="#63b8ff" d="M369.68,-17.2C423.25,-34.11 556.1,-75.22 669,-103.5 683.46,-107.12 699.34,-110.63 713.68,-113.62"/>
<polygon fill="#63b8ff" stroke="#63b8ff" points="713.31,-117.12 723.81,-115.71 714.72,-110.26 713.31,-117.12"/>
</a>
</g>
</g>
</g>
</svg>
