<?xml version="1.0" encoding="UTF-8" standalone="no"?>
<!DOCTYPE svg PUBLIC "-//W3C//DTD SVG 1.1//EN"
 "http://www.w3.org/Graphics/SVG/1.1/DTD/svg11.dtd">
<!-- Generated by graphviz version 2.43.0 (0)
 -->
<!-- Title: DestFinfo::registerFinfo Pages: 1 -->
<svg width="297pt" height="175pt"
 viewBox="0.00 0.00 297.00 175.00" xmlns="http://www.w3.org/2000/svg" xmlns:xlink="http://www.w3.org/1999/xlink">
<g id="graph0" class="graph" transform="scale(1 1) rotate(0) translate(4 171)">
<title>DestFinfo::registerFinfo</title>
<!-- Node1 -->
<g id="Node000001" class="node">
<title>Node1</title>
<g id="a_Node000001"><a xlink:title=" ">
<polygon fill="#999999" stroke="#666666" points="131,-93 0,-93 0,-74 131,-74 131,-93"/>
<text text-anchor="middle" x="65.5" y="-81" font-family="Ubuntu Mono" font-size="10.00">DestFinfo::registerFinfo</text>
</a>
</g>
</g>
<!-- Node2 -->
<g id="Node000002" class="node">
<title>Node2</title>
<g id="a_Node000002"><a xlink:href="classCinfo.html#a16faec7c24a0b85ec5bfb9e0d8f4d480" target="_top" xlink:title=" ">
<polygon fill="white" stroke="#666666" points="276.5,-167 179.5,-167 179.5,-148 276.5,-148 276.5,-167"/>
<text text-anchor="middle" x="228" y="-155" font-family="Ubuntu Mono" font-size="10.00">Cinfo::baseCinfo</text>
</a>
</g>
</g>
<!-- Node1&#45;&gt;Node2 -->
<g id="edge1_Node000001_Node000002" class="edge">
<title>Node1&#45;&gt;Node2</title>
<g id="a_edge1_Node000001_Node000002"><a xlink:title=" ">
<path fill="none" stroke="#63b8ff" d="M81.31,-93.1C100.47,-105.2 135.17,-126.05 167,-139.5 171.46,-141.39 176.19,-143.16 180.95,-144.8"/>
<polygon fill="#63b8ff" stroke="#63b8ff" points="180.11,-148.21 190.7,-147.99 182.28,-141.56 180.11,-148.21"/>
</a>
</g>
</g>
<!-- Node3 -->
<g id="Node000003" class="node">
<title>Node3</title>
<g id="a_Node000003"><a xlink:href="classCinfo.html#a7642d2a9ffe54cc8008df39de171ab63" target="_top" xlink:title=" ">
<polygon fill="white" stroke="#666666" points="273,-130 183,-130 183,-111 273,-111 273,-130"/>
<text text-anchor="middle" x="228" y="-118" font-family="Ubuntu Mono" font-size="10.00">Cinfo::findFinfo</text>
</a>
</g>
</g>
<!-- Node1&#45;&gt;Node3 -->
<g id="edge2_Node000001_Node000003" class="edge">
<title>Node1&#45;&gt;Node3</title>
<g id="a_edge2_Node000001_Node000003"><a xlink:title=" ">
<path fill="none" stroke="#63b8ff" d="M107.83,-93.03C128.53,-97.8 153.79,-103.62 175.72,-108.68"/>
<polygon fill="#63b8ff" stroke="#63b8ff" points="175,-112.1 185.53,-110.94 176.57,-105.28 175,-112.1"/>
</a>
</g>
</g>
<!-- Node4 -->
<g id="Node000004" class="node">
<title>Node4</title>
<g id="a_Node000004"><a xlink:href="classFinfo.html#a61d1ed4e356444e2c94611a419b3440a" target="_top" xlink:title=" ">
<polygon fill="white" stroke="#666666" points="265,-93 191,-93 191,-74 265,-74 265,-93"/>
<text text-anchor="middle" x="228" y="-81" font-family="Ubuntu Mono" font-size="10.00">Finfo::name</text>
</a>
</g>
</g>
<!-- Node1&#45;&gt;Node4 -->
<g id="edge3_Node000001_Node000004" class="edge">
<title>Node1&#45;&gt;Node4</title>
<g id="a_edge3_Node000001_Node000004"><a xlink:title=" ">
<path fill="none" stroke="#63b8ff" d="M131.32,-83.5C147.72,-83.5 165.01,-83.5 180.32,-83.5"/>
<polygon fill="#63b8ff" stroke="#63b8ff" points="180.56,-87 190.56,-83.5 180.56,-80 180.56,-87"/>
</a>
</g>
</g>
<!-- Node5 -->
<g id="Node000005" class="node">
<title>Node5</title>
<g id="a_Node000005"><a xlink:href="classCinfo.html#a7b4b3313726edb5deb8be291dd4e791c" target="_top" xlink:title=" ">
<polygon fill="white" stroke="#666666" points="283.5,-56 172.5,-56 172.5,-37 283.5,-37 283.5,-56"/>
<text text-anchor="middle" x="228" y="-44" font-family="Ubuntu Mono" font-size="10.00">Cinfo::overrideFunc</text>
</a>
</g>
</g>
<!-- Node1&#45;&gt;Node5 -->
<g id="edge4_Node000001_Node000005" class="edge">
<title>Node1&#45;&gt;Node5</title>
<g id="a_edge4_Node000001_Node000005"><a xlink:title=" ">
<path fill="none" stroke="#63b8ff" d="M107.83,-73.97C128.53,-69.2 153.79,-63.38 175.72,-58.32"/>
<polygon fill="#63b8ff" stroke="#63b8ff" points="176.57,-61.72 185.53,-56.06 175,-54.9 176.57,-61.72"/>
</a>
</g>
</g>
<!-- Node6 -->
<g id="Node000006" class="node">
<title>Node6</title>
<g id="a_Node000006"><a xlink:href="classCinfo.html#ab9ab1f3a1308974db78f0c11f180054c" target="_top" xlink:title=" ">
<polygon fill="white" stroke="#666666" points="289,-19 167,-19 167,0 289,0 289,-19"/>
<text text-anchor="middle" x="228" y="-7" font-family="Ubuntu Mono" font-size="10.00">Cinfo::registerOpFunc</text>
</a>
</g>
</g>
<!-- Node1&#45;&gt;Node6 -->
<g id="edge5_Node000001_Node000006" class="edge">
<title>Node1&#45;&gt;Node6</title>
<g id="a_edge5_Node000001_Node000006"><a xlink:title=" ">
<path fill="none" stroke="#63b8ff" d="M81.7,-73.96C100.99,-62.15 135.54,-41.94 167,-28.5 172.15,-26.3 177.64,-24.22 183.13,-22.3"/>
<polygon fill="#63b8ff" stroke="#63b8ff" points="184.57,-25.51 192.94,-19.02 182.35,-18.87 184.57,-25.51"/>
</a>
</g>
</g>
</g>
</svg>
