<?xml version="1.0" encoding="UTF-8" standalone="no"?>
<!DOCTYPE svg PUBLIC "-//W3C//DTD SVG 1.1//EN"
 "http://www.w3.org/Graphics/SVG/1.1/DTD/svg11.dtd">
<!-- Generated by graphviz version 2.43.0 (0)
 -->
<!-- Title: DiffPoolVec Pages: 1 -->
<svg width="126pt" height="573pt"
 viewBox="0.00 0.00 126.00 573.00" xmlns="http://www.w3.org/2000/svg" xmlns:xlink="http://www.w3.org/1999/xlink">
<g id="graph0" class="graph" transform="scale(1 1) rotate(0) translate(4 569)">
<title>DiffPoolVec</title>
<!-- Node1 -->
<g id="Node000001" class="node">
<title>Node1</title>
<g id="a_Node000001"><a xlink:title=" ">
<polygon fill="#999999" stroke="transparent" points="109.5,-244 8.5,-244 8.5,0 109.5,0 109.5,-244"/>
<text text-anchor="start" x="31.5" y="-232" font-family="Ubuntu Mono" font-size="10.00">DiffPoolVec</text>
<text text-anchor="start" x="15.5" y="-217" font-family="Ubuntu Mono" font-size="10.00">&#45;</text>
<text text-anchor="start" x="26" y="-217" font-family="Ubuntu Mono" font-size="10.00">diffConst_</text>
<text text-anchor="start" x="15.5" y="-202" font-family="Ubuntu Mono" font-size="10.00">&#45;</text>
<text text-anchor="start" x="26" y="-202" font-family="Ubuntu Mono" font-size="10.00">id_</text>
<text text-anchor="start" x="15.5" y="-187" font-family="Ubuntu Mono" font-size="10.00">&#45;</text>
<text text-anchor="start" x="26" y="-187" font-family="Ubuntu Mono" font-size="10.00">motorConst_</text>
<text text-anchor="start" x="15.5" y="-172" font-family="Ubuntu Mono" font-size="10.00">&#45;</text>
<text text-anchor="start" x="26" y="-172" font-family="Ubuntu Mono" font-size="10.00">ops_</text>
<text text-anchor="start" x="13" y="-157" font-family="Ubuntu Mono" font-size="10.00">+</text>
<text text-anchor="start" x="26" y="-157" font-family="Ubuntu Mono" font-size="10.00">advance()</text>
<text text-anchor="start" x="13" y="-142" font-family="Ubuntu Mono" font-size="10.00">+</text>
<text text-anchor="start" x="26" y="-142" font-family="Ubuntu Mono" font-size="10.00">DiffPoolVec()</text>
<text text-anchor="start" x="13" y="-127" font-family="Ubuntu Mono" font-size="10.00">+</text>
<text text-anchor="start" x="26" y="-127" font-family="Ubuntu Mono" font-size="10.00">getConcInit()</text>
<text text-anchor="start" x="13" y="-112" font-family="Ubuntu Mono" font-size="10.00">+</text>
<text text-anchor="start" x="26" y="-112" font-family="Ubuntu Mono" font-size="10.00">getDiffConst()</text>
<text text-anchor="start" x="13" y="-97" font-family="Ubuntu Mono" font-size="10.00">+</text>
<text text-anchor="start" x="26" y="-97" font-family="Ubuntu Mono" font-size="10.00">getId()</text>
<text text-anchor="start" x="13" y="-82" font-family="Ubuntu Mono" font-size="10.00">+</text>
<text text-anchor="start" x="26" y="-82" font-family="Ubuntu Mono" font-size="10.00">getMotorConst()</text>
<text text-anchor="start" x="13" y="-67" font-family="Ubuntu Mono" font-size="10.00">+</text>
<text text-anchor="start" x="26" y="-67" font-family="Ubuntu Mono" font-size="10.00">getN()</text>
<text text-anchor="start" x="13" y="-52" font-family="Ubuntu Mono" font-size="10.00">+</text>
<text text-anchor="start" x="26" y="-52" font-family="Ubuntu Mono" font-size="10.00">getNumVoxels()</text>
<text text-anchor="start" x="13" y="-37" font-family="Ubuntu Mono" font-size="10.00">+</text>
<text text-anchor="start" x="26" y="-37" font-family="Ubuntu Mono" font-size="10.00">getNvec()</text>
<text text-anchor="start" x="13" y="-22" font-family="Ubuntu Mono" font-size="10.00">+</text>
<text text-anchor="start" x="26" y="-22" font-family="Ubuntu Mono" font-size="10.00">getPrev()</text>
<text text-anchor="start" x="26" y="-7" font-family="Ubuntu Mono" font-size="10.00">and 12 more...</text>
<polygon fill="#666666" stroke="#666666" points="9,-227 9,-227 110,-227 110,-227 9,-227"/>
<polygon fill="#666666" stroke="#666666" points="9,-167 9,-167 24,-167 24,-167 9,-167"/>
<polygon fill="#666666" stroke="#666666" points="24,-167 24,-167 110,-167 110,-167 24,-167"/>
<polygon fill="none" stroke="#666666" points="8.5,0 8.5,-244 109.5,-244 109.5,0 8.5,0"/>
</a>
</g>
</g>
<!-- Node2 -->
<g id="Node000002" class="node">
<title>Node2</title>
<g id="a_Node000002"><a xlink:title=" ">
<polygon fill="white" stroke="transparent" points="118,-373 0,-373 0,-324 118,-324 118,-373"/>
<text text-anchor="start" x="5" y="-360.5" font-family="Ubuntu Mono" font-size="10.00">std::vector&lt; double &gt;</text>
<text text-anchor="start" x="16.5" y="-345.5" font-family="Ubuntu Mono" font-size="10.00">+</text>
<text text-anchor="start" x="42" y="-345.5" font-family="Ubuntu Mono" font-size="10.00">elements</text>
<text text-anchor="start" x="57" y="-330.5" font-family="Ubuntu Mono" font-size="10.00"> </text>
<polygon fill="#666666" stroke="#666666" points="0,-355.5 0,-355.5 118,-355.5 118,-355.5 0,-355.5"/>
<polygon fill="#666666" stroke="#666666" points="0,-340.5 0,-340.5 40,-340.5 40,-340.5 0,-340.5"/>
<polygon fill="#666666" stroke="#666666" points="40,-340.5 40,-340.5 118,-340.5 118,-340.5 40,-340.5"/>
<polygon fill="none" stroke="#666666" points="0,-324 0,-373 118,-373 118,-324 0,-324"/>
</a>
</g>
</g>
<!-- Node2&#45;&gt;Node1 -->
<g id="edge1_Node000001_Node000002" class="edge">
<title>Node2&#45;&gt;Node1</title>
<g id="a_edge1_Node000001_Node000002"><a xlink:title=" ">
<path fill="none" stroke="#63b8ff" d="M59,-323.9C59,-306.86 59,-282.35 59,-256.26"/>
<polygon fill="none" stroke="#63b8ff" points="59,-256.19 55,-250.19 59,-244.19 63,-250.19 59,-256.19"/>
</a>
</g>
<text text-anchor="middle" x="84.5" y="-298" font-family="Ubuntu Mono" font-size="10.00" fill="grey"> &#45;concInit_</text>
<text text-anchor="middle" x="84.5" y="-287" font-family="Ubuntu Mono" font-size="10.00" fill="grey">&#45;diagVal_</text>
<text text-anchor="middle" x="84.5" y="-276" font-family="Ubuntu Mono" font-size="10.00" fill="grey">&#45;n_</text>
<text text-anchor="middle" x="84.5" y="-265" font-family="Ubuntu Mono" font-size="10.00" fill="grey">&#45;prev_</text>
</g>
<!-- Node3 -->
<g id="Node000003" class="node">
<title>Node3</title>
<g id="a_Node000003"><a xlink:title=" ">
<polygon fill="white" stroke="transparent" points="104.5,-469 13.5,-469 13.5,-420 104.5,-420 104.5,-469"/>
<text text-anchor="start" x="19" y="-456.5" font-family="Ubuntu Mono" font-size="10.00">std::vector&lt; T &gt;</text>
<text text-anchor="start" x="57.5" y="-441.5" font-family="Ubuntu Mono" font-size="10.00"> </text>
<text text-anchor="start" x="57.5" y="-426.5" font-family="Ubuntu Mono" font-size="10.00"> </text>
<polygon fill="#666666" stroke="#666666" points="14,-451.5 14,-451.5 105,-451.5 105,-451.5 14,-451.5"/>
<polygon fill="#666666" stroke="#666666" points="14,-436.5 14,-436.5 105,-436.5 105,-436.5 14,-436.5"/>
<polygon fill="none" stroke="#666666" points="13.5,-420 13.5,-469 104.5,-469 104.5,-420 13.5,-420"/>
</a>
</g>
</g>
<!-- Node3&#45;&gt;Node2 -->
<g id="edge2_Node000002_Node000003" class="edge">
<title>Node3&#45;&gt;Node2</title>
<g id="a_edge2_Node000002_Node000003"><a xlink:title=" ">
<path fill="none" stroke="orange" d="M59,-409.6C59,-397.54 59,-384.23 59,-373.21"/>
<polygon fill="orange" stroke="orange" points="55.5,-409.78 59,-419.78 62.5,-409.78 55.5,-409.78"/>
</a>
</g>
<text text-anchor="middle" x="88.5" y="-394" font-family="Ubuntu Mono" font-size="10.00" fill="grey"> &lt; double &gt;</text>
</g>
<!-- Node4 -->
<g id="Node000004" class="node">
<title>Node4</title>
<g id="a_Node000004"><a xlink:title=" ">
<polygon fill="white" stroke="transparent" points="67.5,-565 50.5,-565 50.5,-516 67.5,-516 67.5,-565"/>
<text text-anchor="start" x="56" y="-552.5" font-family="Ubuntu Mono" font-size="10.00">T</text>
<text text-anchor="start" x="57.5" y="-537.5" font-family="Ubuntu Mono" font-size="10.00"> </text>
<text text-anchor="start" x="57.5" y="-522.5" font-family="Ubuntu Mono" font-size="10.00"> </text>
<polygon fill="#666666" stroke="#666666" points="51,-547.5 51,-547.5 68,-547.5 68,-547.5 51,-547.5"/>
<polygon fill="#666666" stroke="#666666" points="51,-532.5 51,-532.5 68,-532.5 68,-532.5 51,-532.5"/>
<polygon fill="none" stroke="#666666" points="50.5,-516 50.5,-565 67.5,-565 67.5,-516 50.5,-516"/>
</a>
</g>
</g>
<!-- Node4&#45;&gt;Node3 -->
<g id="edge3_Node000003_Node000004" class="edge">
<title>Node4&#45;&gt;Node3</title>
<g id="a_edge3_Node000003_Node000004"><a xlink:title=" ">
<path fill="none" stroke="#63b8ff" d="M59,-515.78C59,-505.32 59,-492.79 59,-481.23"/>
<polygon fill="none" stroke="#63b8ff" points="59,-481.21 55,-475.21 59,-469.21 63,-475.21 59,-481.21"/>
</a>
</g>
<text text-anchor="middle" x="88" y="-490" font-family="Ubuntu Mono" font-size="10.00" fill="grey"> +elements</text>
</g>
</g>
</svg>
