<?xml version="1.0" encoding="UTF-8" standalone="no"?>
<!DOCTYPE svg PUBLIC "-//W3C//DTD SVG 1.1//EN"
 "http://www.w3.org/Graphics/SVG/1.1/DTD/svg11.dtd">
<!-- Generated by graphviz version 2.43.0 (0)
 -->
<!-- Title: Stoich::convertRatesToStochasticForm Pages: 1 -->
<svg width="775pt" height="148pt"
 viewBox="0.00 0.00 775.00 147.50" xmlns="http://www.w3.org/2000/svg" xmlns:xlink="http://www.w3.org/1999/xlink">
<g id="graph0" class="graph" transform="scale(1 1) rotate(0) translate(4 143.5)">
<title>Stoich::convertRatesToStochasticForm</title>
<!-- Node1 -->
<g id="Node000001" class="node">
<title>Node1</title>
<g id="a_Node000001"><a xlink:title=" ">
<polygon fill="#999999" stroke="#666666" points="203,-83.5 0,-83.5 0,-64.5 203,-64.5 203,-83.5"/>
<text text-anchor="middle" x="101.5" y="-71.5" font-family="Ubuntu Mono" font-size="10.00">Stoich::convertRatesToStochasticForm</text>
</a>
</g>
</g>
<!-- Node2 -->
<g id="Node000002" class="node">
<title>Node2</title>
<g id="a_Node000002"><a xlink:href="classRateTerm.html#a59765605f8379adff7e8d53f9fa691e3" target="_top" xlink:title="Used by Zombie to return rate terms.">
<polygon fill="white" stroke="#666666" points="361,-139.5 263,-139.5 263,-120.5 361,-120.5 361,-139.5"/>
<text text-anchor="middle" x="312" y="-127.5" font-family="Ubuntu Mono" font-size="10.00">RateTerm::getR1</text>
</a>
</g>
</g>
<!-- Node1&#45;&gt;Node2 -->
<g id="edge1_Node000001_Node000002" class="edge">
<title>Node1&#45;&gt;Node2</title>
<g id="a_edge1_Node000001_Node000002"><a xlink:title=" ">
<path fill="none" stroke="#63b8ff" d="M135.81,-83.54C163.41,-91.38 203.68,-102.67 239,-112 246.53,-113.99 254.52,-116.04 262.34,-118.02"/>
<polygon fill="#63b8ff" stroke="#63b8ff" points="261.54,-121.43 272.09,-120.47 263.25,-114.64 261.54,-121.43"/>
</a>
</g>
</g>
<!-- Node3 -->
<g id="Node000003" class="node">
<title>Node3</title>
<g id="a_Node000003"><a xlink:href="classRateTerm.html#af4d74f9d0b9e5c0d5dd42536e99c73d1" target="_top" xlink:title=" ">
<polygon fill="white" stroke="#666666" points="379,-102.5 245,-102.5 245,-83.5 379,-83.5 379,-102.5"/>
<text text-anchor="middle" x="312" y="-90.5" font-family="Ubuntu Mono" font-size="10.00">RateTerm::getReactants</text>
</a>
</g>
</g>
<!-- Node1&#45;&gt;Node3 -->
<g id="edge2_Node000001_Node000003" class="edge">
<title>Node1&#45;&gt;Node3</title>
<g id="a_edge2_Node000001_Node000003"><a xlink:title=" ">
<path fill="none" stroke="#63b8ff" d="M203.09,-83.17C213.71,-84.13 224.38,-85.11 234.66,-86.04"/>
<polygon fill="#63b8ff" stroke="#63b8ff" points="234.52,-89.55 244.8,-86.97 235.16,-82.57 234.52,-89.55"/>
</a>
</g>
</g>
<!-- Node4 -->
<g id="Node000004" class="node">
<title>Node4</title>
<g id="a_Node000004"><a xlink:href="classStochNOrder.html#af72c72a8a3d6b1da91c89c432b5feb78" target="_top" xlink:title=" ">
<polygon fill="white" stroke="#666666" points="385,-65.5 239,-65.5 239,-46.5 385,-46.5 385,-65.5"/>
<text text-anchor="middle" x="312" y="-53.5" font-family="Ubuntu Mono" font-size="10.00">StochNOrder::StochNOrder</text>
</a>
</g>
</g>
<!-- Node1&#45;&gt;Node4 -->
<g id="edge3_Node000001_Node000004" class="edge">
<title>Node1&#45;&gt;Node4</title>
<g id="a_edge3_Node000001_Node000004"><a xlink:title=" ">
<path fill="none" stroke="#63b8ff" d="M203.09,-65.32C211.67,-64.57 220.29,-63.83 228.72,-63.1"/>
<polygon fill="#63b8ff" stroke="#63b8ff" points="229.21,-66.57 238.87,-62.23 228.61,-59.6 229.21,-66.57"/>
</a>
</g>
</g>
<!-- Node7 -->
<g id="Node000007" class="node">
<title>Node7</title>
<g id="a_Node000007"><a xlink:href="classStochSecondOrderSingleSubstrate.html#a015b49a89b945a2355ff095442bf00fc" target="_top" xlink:title=" ">
<polygon fill="white" stroke="#666666" points="609,-30 421,-30 421,0 609,0 609,-30"/>
<text text-anchor="start" x="429" y="-18" font-family="Ubuntu Mono" font-size="10.00">StochSecondOrderSingleSubstrate</text>
<text text-anchor="middle" x="515" y="-7" font-family="Ubuntu Mono" font-size="10.00">::StochSecondOrderSingleSubstrate</text>
</a>
</g>
</g>
<!-- Node1&#45;&gt;Node7 -->
<g id="edge6_Node000001_Node000007" class="edge">
<title>Node1&#45;&gt;Node7</title>
<g id="a_edge6_Node000001_Node000007"><a xlink:title=" ">
<path fill="none" stroke="#63b8ff" d="M131.44,-64.48C158.83,-55.87 201.26,-43.57 239,-37 295.29,-27.21 358.84,-21.76 410.65,-18.74"/>
<polygon fill="#63b8ff" stroke="#63b8ff" points="411.07,-22.22 420.85,-18.17 410.67,-15.23 411.07,-22.22"/>
</a>
</g>
</g>
<!-- Node5 -->
<g id="Node000005" class="node">
<title>Node5</title>
<g id="a_Node000005"><a xlink:href="classNOrder.html#adfee440fb72270cdfc207a4a1f26eda4" target="_top" xlink:title=" ">
<polygon fill="white" stroke="#666666" points="561,-67.5 469,-67.5 469,-48.5 561,-48.5 561,-67.5"/>
<text text-anchor="middle" x="515" y="-55.5" font-family="Ubuntu Mono" font-size="10.00">NOrder::NOrder</text>
</a>
</g>
</g>
<!-- Node4&#45;&gt;Node5 -->
<g id="edge4_Node000004_Node000005" class="edge">
<title>Node4&#45;&gt;Node5</title>
<g id="a_edge4_Node000004_Node000005"><a xlink:title=" ">
<path fill="none" stroke="#63b8ff" d="M385.28,-56.72C409.49,-56.96 436.07,-57.22 458.76,-57.45"/>
<polygon fill="#63b8ff" stroke="#63b8ff" points="458.85,-60.95 468.89,-57.55 458.92,-53.95 458.85,-60.95"/>
</a>
</g>
</g>
<!-- Node6 -->
<g id="Node000006" class="node">
<title>Node6</title>
<g id="a_Node000006"><a xlink:href="classZeroOrder.html#ad578154a7360bc42bd883465270b8dbf" target="_top" xlink:title=" ">
<polygon fill="white" stroke="#666666" points="767,-45.5 645,-45.5 645,-26.5 767,-26.5 767,-45.5"/>
<text text-anchor="middle" x="706" y="-33.5" font-family="Ubuntu Mono" font-size="10.00">ZeroOrder::ZeroOrder</text>
</a>
</g>
</g>
<!-- Node5&#45;&gt;Node6 -->
<g id="edge5_Node000005_Node000006" class="edge">
<title>Node5&#45;&gt;Node6</title>
<g id="a_edge5_Node000005_Node000006"><a xlink:title=" ">
<path fill="none" stroke="#63b8ff" d="M561.27,-52.73C583.25,-50.17 610.16,-47.04 634.73,-44.18"/>
<polygon fill="#63b8ff" stroke="#63b8ff" points="635.2,-47.65 644.73,-43.02 634.39,-40.7 635.2,-47.65"/>
</a>
</g>
</g>
<!-- Node7&#45;&gt;Node6 -->
<g id="edge7_Node000007_Node000006" class="edge">
<title>Node7&#45;&gt;Node6</title>
<g id="a_edge7_Node000007_Node000006"><a xlink:title=" ">
<path fill="none" stroke="#63b8ff" d="M609.12,-25.35C617.73,-26.3 626.35,-27.26 634.71,-28.19"/>
<polygon fill="#63b8ff" stroke="#63b8ff" points="634.42,-31.68 644.75,-29.31 635.2,-24.72 634.42,-31.68"/>
</a>
</g>
</g>
</g>
</svg>
