<?xml version="1.0" encoding="UTF-8" standalone="no"?>
<!DOCTYPE svg PUBLIC "-//W3C//DTD SVG 1.1//EN"
 "http://www.w3.org/Graphics/SVG/1.1/DTD/svg11.dtd">
<!-- Generated by graphviz version 2.43.0 (0)
 -->
<!-- Title: TableBase::getVecSize Pages: 1 -->
<!--zoomable 730 -->

<svg id="main" version="1.1" xmlns="http://www.w3.org/2000/svg" xmlns:xlink="http://www.w3.org/1999/xlink" xml:space="preserve" onload="init(evt)">
<style type="text/css"><![CDATA[
.node, .edge {opacity: 0.7;}
.node.selected, .edge.selected {opacity: 1;}
.edge:hover path { stroke: red; }
.edge:hover polygon { stroke: red; fill: red; }
]]></style>

<defs>
  <circle id="rim" cx="0" cy="0" r="7"/>
  <circle id="rim2" cx="0" cy="0" r="3.5"/>
  <g id="zoomPlus">
    <use xlink:href="#rim" fill="#404040"><set attributeName="fill" to="#808080" begin="zoomplus.mouseover" end="zoomplus.mouseout"/></use>
    <path d="M-4,0h8M0,-4v8" fill="none" stroke="white" stroke-width="1.5" pointer-events="none"/>
  </g>
  <g id="zoomMin">
    <use xlink:href="#rim" fill="#404040"><set attributeName="fill" to="#808080" begin="zoomminus.mouseover" end="zoomminus.mouseout"/></use>
    <path d="M-4,0h8" fill="none" stroke="white" stroke-width="1.5" pointer-events="none"/>
  </g>
  <g id="arrowUp" transform="translate(30 24)">
    <use xlink:href="#rim"/>
    <path pointer-events="none" fill="none" stroke="white" stroke-width="1.5" d="M0,-3.0v7 M-2.5,-0.5L0,-3.0L2.5,-0.5"/>
  </g>
  <g id="arrowRight" transform="rotate(90) translate(36 -43)">
    <use xlink:href="#rim"/>
    <path pointer-events="none" fill="none" stroke="white" stroke-width="1.5" d="M0,-3.0v7 M-2.5,-0.5L0,-3.0L2.5,-0.5"/>
  </g>
  <g id="arrowDown" transform="rotate(180) translate(-30 -48)">
    <use xlink:href="#rim"/>
    <path pointer-events="none" fill="none" stroke="white" stroke-width="1.5" d="M0,-3.0v7 M-2.5,-0.5L0,-3.0L2.5,-0.5"/>
  </g>
  <g id="arrowLeft" transform="rotate(270) translate(-36 17)">
    <use xlink:href="#rim"/>
    <path pointer-events="none" fill="none" stroke="white" stroke-width="1.5" d="M0,-3.0v7 M-2.5,-0.5L0,-3.0L2.5,-0.5"/>
  </g>
  <g id="resetDef">
    <use xlink:href="#rim2" fill="#404040"><set attributeName="fill" to="#808080" begin="reset.mouseover" end="reset.mouseout"/></use>
  </g>
</defs>
<script type="application/ecmascript">
var viewWidth = 947;
var viewHeight = 730;
var sectionId = 'dynsection-9';
</script>
<script type="application/ecmascript" xlink:href="svg.min.js"/>
<svg id="graph" class="graph">
<g id="viewport">
<title>TableBase::getVecSize</title>
<!-- Node1 -->
<g id="Node000001" class="node">
<title>Node1</title>
<g id="a_Node000001"><a xlink:title=" ">
<polygon fill="#999999" stroke="#666666" points="939,-481 814,-481 814,-462 939,-462 939,-481"/>
<text text-anchor="middle" x="876.5" y="-469" font-family="Ubuntu Mono" font-size="10.00">TableBase::getVecSize</text>
</a>
</g>
</g>
<!-- Node2 -->
<g id="Node000002" class="node">
<title>Node2</title>
<g id="a_Node000002"><a xlink:href="classTableBase.html#a743b983e93984115449360b4def6a17c" target="_top" xlink:title=" ">
<polygon fill="white" stroke="#666666" points="770,-555 657,-555 657,-536 770,-536 770,-555"/>
<text text-anchor="middle" x="713.5" y="-543" font-family="Ubuntu Mono" font-size="10.00">TableBase::initCinfo</text>
</a>
</g>
</g>
<!-- Node1&#45;&gt;Node2 -->
<g id="edge1_Node000001_Node000002" class="edge">
<title>Node1&#45;&gt;Node2</title>
<g id="a_edge1_Node000001_Node000002"><a xlink:title=" ">
<path fill="none" stroke="#63b8ff" d="M845.45,-485.31C813.38,-500.05 763.42,-523.01 735.39,-535.9"/>
<polygon fill="#63b8ff" stroke="#63b8ff" points="847.16,-488.38 854.78,-481.02 844.23,-482.02 847.16,-488.38"/>
</a>
</g>
</g>
<!-- Node9 -->
<g id="Node000009" class="node">
<title>Node9</title>
<g id="a_Node000009"><a xlink:href="classTable.html#a634e518a132bb27cd948d318ab90a879" target="_top" xlink:title=" ">
<polygon fill="white" stroke="#666666" points="756.5,-481 670.5,-481 670.5,-462 756.5,-462 756.5,-481"/>
<text text-anchor="middle" x="713.5" y="-469" font-family="Ubuntu Mono" font-size="10.00">Table::process</text>
</a>
</g>
</g>
<!-- Node1&#45;&gt;Node9 -->
<g id="edge8_Node000001_Node000009" class="edge">
<title>Node1&#45;&gt;Node9</title>
<g id="a_edge8_Node000001_Node000009"><a xlink:title=" ">
<path fill="none" stroke="#63b8ff" d="M803.37,-471.5C787.49,-471.5 771.17,-471.5 756.92,-471.5"/>
<polygon fill="#63b8ff" stroke="#63b8ff" points="803.71,-475 813.71,-471.5 803.71,-468 803.71,-475"/>
</a>
</g>
</g>
<!-- Node10 -->
<g id="Node000010" class="node">
<title>Node10</title>
<g id="a_Node000010"><a xlink:href="classStreamer.html#aaa83549da537721524b419d75f021155" target="_top" xlink:title="This function prepares data to be written to a file.">
<polygon fill="white" stroke="#666666" points="778,-426 649,-426 649,-407 778,-407 778,-426"/>
<text text-anchor="middle" x="713.5" y="-414" font-family="Ubuntu Mono" font-size="10.00">Streamer::zipWithTime</text>
</a>
</g>
</g>
<!-- Node1&#45;&gt;Node10 -->
<g id="edge10_Node000001_Node000010" class="edge">
<title>Node1&#45;&gt;Node10</title>
<g id="a_edge10_Node000001_Node000010"><a xlink:title=" ">
<path fill="none" stroke="#63b8ff" d="M837.62,-458.56C808.46,-448.6 768.83,-435.06 742.49,-426.06"/>
<polygon fill="#63b8ff" stroke="#63b8ff" points="836.86,-462 847.46,-461.92 839.12,-455.37 836.86,-462"/>
</a>
</g>
</g>
<!-- Node3 -->
<g id="Node000003" class="node">
<title>Node3</title>
<g id="a_Node000003"><a xlink:href="classInterpol.html#a61a7a1a821ccd6ef218390259564f15c" target="_top" xlink:title=" ">
<polygon fill="white" stroke="#666666" points="593,-518 492,-518 492,-499 593,-499 593,-518"/>
<text text-anchor="middle" x="542.5" y="-506" font-family="Ubuntu Mono" font-size="10.00">Interpol::initCinfo</text>
</a>
</g>
</g>
<!-- Node2&#45;&gt;Node3 -->
<g id="edge2_Node000002_Node000003" class="edge">
<title>Node2&#45;&gt;Node3</title>
<g id="a_edge2_Node000002_Node000003"><a xlink:title=" ">
<path fill="none" stroke="#63b8ff" d="M658.97,-533.78C635.82,-528.71 609.08,-522.86 587.17,-518.06"/>
<polygon fill="#63b8ff" stroke="#63b8ff" points="658.46,-537.25 668.98,-535.97 659.96,-530.41 658.46,-537.25"/>
</a>
</g>
</g>
<!-- Node4 -->
<g id="Node000004" class="node">
<title>Node4</title>
<g id="a_Node000004"><a xlink:href="classSocketStreamer.html#a8f6995482d6f639362e1508b37297404" target="_top" xlink:title=" ">
<polygon fill="white" stroke="#666666" points="613,-668 472,-668 472,-649 613,-649 613,-668"/>
<text text-anchor="middle" x="542.5" y="-656" font-family="Ubuntu Mono" font-size="10.00">SocketStreamer::initCinfo</text>
</a>
</g>
</g>
<!-- Node2&#45;&gt;Node4 -->
<g id="edge3_Node000002_Node000004" class="edge">
<title>Node2&#45;&gt;Node4</title>
<g id="a_edge3_Node000002_Node000004"><a xlink:title=" ">
<path fill="none" stroke="#63b8ff" d="M698.8,-563.25C681.24,-584.76 648.77,-620.59 613,-640.5 606.9,-643.89 600.14,-646.66 593.31,-648.92"/>
<polygon fill="#63b8ff" stroke="#63b8ff" points="701.68,-565.25 705.18,-555.25 696.2,-560.89 701.68,-565.25"/>
</a>
</g>
</g>
<!-- Node5 -->
<g id="Node000005" class="node">
<title>Node5</title>
<g id="a_Node000005"><a xlink:href="classStimulusTable.html#a511798470c8a03e18c4bcc03d3f5abbf" target="_top" xlink:title=" ">
<polygon fill="white" stroke="#666666" points="608.5,-631 476.5,-631 476.5,-612 608.5,-612 608.5,-631"/>
<text text-anchor="middle" x="542.5" y="-619" font-family="Ubuntu Mono" font-size="10.00">StimulusTable::initCinfo</text>
</a>
</g>
</g>
<!-- Node2&#45;&gt;Node5 -->
<g id="edge4_Node000002_Node000005" class="edge">
<title>Node2&#45;&gt;Node5</title>
<g id="a_edge4_Node000002_Node000005"><a xlink:title=" ">
<path fill="none" stroke="#63b8ff" d="M687.25,-560.03C667.44,-571.11 638.96,-586.31 613,-597.5 600.57,-602.86 586.52,-607.89 574.32,-611.95"/>
<polygon fill="#63b8ff" stroke="#63b8ff" points="688.98,-563.08 695.97,-555.11 685.54,-556.98 688.98,-563.08"/>
</a>
</g>
</g>
<!-- Node6 -->
<g id="Node000006" class="node">
<title>Node6</title>
<g id="a_Node000006"><a xlink:href="classStreamer.html#ac907f2b6e6605333f338367f2712e7e3" target="_top" xlink:title=" ">
<polygon fill="white" stroke="#666666" points="436,-444 327,-444 327,-425 436,-425 436,-444"/>
<text text-anchor="middle" x="381.5" y="-432" font-family="Ubuntu Mono" font-size="10.00">Streamer::initCinfo</text>
</a>
</g>
</g>
<!-- Node2&#45;&gt;Node6 -->
<g id="edge5_Node000002_Node000006" class="edge">
<title>Node2&#45;&gt;Node6</title>
<g id="a_edge5_Node000002_Node000006"><a xlink:title=" ">
<path fill="none" stroke="#63b8ff" d="M679.67,-558.62C631.19,-575.76 538.97,-599.7 472,-564.5 421.79,-538.11 394.26,-469.4 385.56,-444.06"/>
<polygon fill="#63b8ff" stroke="#63b8ff" points="681.13,-561.81 689.32,-555.09 678.73,-555.23 681.13,-561.81"/>
</a>
</g>
</g>
<!-- Node7 -->
<g id="Node000007" class="node">
<title>Node7</title>
<g id="a_Node000007"><a xlink:href="classTable.html#a510dd5d32479feb8100fc46ee5245240" target="_top" xlink:title=" ">
<polygon fill="white" stroke="#666666" points="587,-481 498,-481 498,-462 587,-462 587,-481"/>
<text text-anchor="middle" x="542.5" y="-469" font-family="Ubuntu Mono" font-size="10.00">Table::initCinfo</text>
</a>
</g>
</g>
<!-- Node2&#45;&gt;Node7 -->
<g id="edge6_Node000002_Node000007" class="edge">
<title>Node2&#45;&gt;Node7</title>
<g id="a_edge6_Node000002_Node000007"><a xlink:title=" ">
<path fill="none" stroke="#63b8ff" d="M689.3,-530.59C669.62,-518.46 640.31,-501.6 613,-490.5 604.08,-486.87 594.23,-483.71 584.83,-481.06"/>
<polygon fill="#63b8ff" stroke="#63b8ff" points="687.55,-533.62 697.88,-535.96 691.26,-527.69 687.55,-533.62"/>
</a>
</g>
</g>
<!-- Node8 -->
<g id="Node000008" class="node">
<title>Node8</title>
<g id="a_Node000008"><a xlink:href="classTimeTable.html#ac4c9635d822ba8716e350bce976401f1" target="_top" xlink:title=" ">
<polygon fill="white" stroke="#666666" points="599.5,-555 485.5,-555 485.5,-536 599.5,-536 599.5,-555"/>
<text text-anchor="middle" x="542.5" y="-543" font-family="Ubuntu Mono" font-size="10.00">TimeTable::initCinfo</text>
</a>
</g>
</g>
<!-- Node2&#45;&gt;Node8 -->
<g id="edge7_Node000002_Node000008" class="edge">
<title>Node2&#45;&gt;Node8</title>
<g id="a_edge7_Node000002_Node000008"><a xlink:title=" ">
<path fill="none" stroke="#63b8ff" d="M646.62,-545.5C631.06,-545.5 614.61,-545.5 599.54,-545.5"/>
<polygon fill="#63b8ff" stroke="#63b8ff" points="646.69,-549 656.69,-545.5 646.69,-542 646.69,-549"/>
</a>
</g>
</g>
<!-- Node9&#45;&gt;Node7 -->
<g id="edge9_Node000009_Node000007" class="edge">
<title>Node9&#45;&gt;Node7</title>
<g id="a_edge9_Node000009_Node000007"><a xlink:title=" ">
<path fill="none" stroke="#63b8ff" d="M660.19,-471.5C636.79,-471.5 609.52,-471.5 587.23,-471.5"/>
<polygon fill="#63b8ff" stroke="#63b8ff" points="660.29,-475 670.29,-471.5 660.29,-468 660.29,-475"/>
</a>
</g>
</g>
<!-- Node11 -->
<g id="Node000011" class="node">
<title>Node11</title>
<g id="a_Node000011"><a xlink:href="classStreamer.html#ac45645f5e157ff2c4001a1009f974d9e" target="_top" xlink:title="This function is called from Shell when simulation is called to write the left&#45;over data to streamer ...">
<polygon fill="white" stroke="#666666" points="596,-370 489,-370 489,-351 596,-351 596,-370"/>
<text text-anchor="middle" x="542.5" y="-358" font-family="Ubuntu Mono" font-size="10.00">Streamer::cleanUp</text>
</a>
</g>
</g>
<!-- Node10&#45;&gt;Node11 -->
<g id="edge11_Node000010_Node000011" class="edge">
<title>Node10&#45;&gt;Node11</title>
<g id="a_edge11_Node000010_Node000011"><a xlink:title=" ">
<path fill="none" stroke="#63b8ff" d="M679.92,-403.01C660.65,-395.29 635.65,-385.73 613,-378.5 603.5,-375.47 593.15,-372.57 583.41,-370.02"/>
<polygon fill="#63b8ff" stroke="#63b8ff" points="678.86,-406.35 689.44,-406.85 681.48,-399.86 678.86,-406.35"/>
</a>
</g>
</g>
<!-- Node39 -->
<g id="Node000039" class="node">
<title>Node39</title>
<g id="a_Node000039"><a xlink:href="classStreamer.html#adb699461306fc3a1ddcf32f6ce7763b3" target="_top" xlink:title="This function is called at its clock tick.">
<polygon fill="white" stroke="#666666" points="595,-444 490,-444 490,-425 595,-425 595,-444"/>
<text text-anchor="middle" x="542.5" y="-432" font-family="Ubuntu Mono" font-size="10.00">Streamer::process</text>
</a>
</g>
</g>
<!-- Node10&#45;&gt;Node39 -->
<g id="edge47_Node000010_Node000039" class="edge">
<title>Node10&#45;&gt;Node39</title>
<g id="a_edge47_Node000010_Node000039"><a xlink:title=" ">
<path fill="none" stroke="#63b8ff" d="M638.56,-424.38C623.91,-425.94 608.83,-427.54 595.12,-429"/>
<polygon fill="#63b8ff" stroke="#63b8ff" points="639.04,-427.84 648.61,-423.31 638.29,-420.88 639.04,-427.84"/>
</a>
</g>
</g>
<!-- Node40 -->
<g id="Node000040" class="node">
<title>Node40</title>
<g id="a_Node000040"><a xlink:href="classStreamer.html#a6fb99b503325b2696fec74672090807e" target="_top" xlink:title="Reinit.">
<polygon fill="white" stroke="#666666" points="589,-407 496,-407 496,-388 589,-388 589,-407"/>
<text text-anchor="middle" x="542.5" y="-395" font-family="Ubuntu Mono" font-size="10.00">Streamer::reinit</text>
</a>
</g>
</g>
<!-- Node10&#45;&gt;Node40 -->
<g id="edge49_Node000010_Node000040" class="edge">
<title>Node10&#45;&gt;Node40</title>
<g id="a_edge49_Node000010_Node000040"><a xlink:title=" ">
<path fill="none" stroke="#63b8ff" d="M638.27,-408.15C621.52,-406.27 604.22,-404.33 589.06,-402.62"/>
<polygon fill="#63b8ff" stroke="#63b8ff" points="638.28,-411.68 648.61,-409.32 639.06,-404.72 638.28,-411.68"/>
</a>
</g>
</g>
<!-- Node12 -->
<g id="Node000012" class="node">
<title>Node12</title>
<g id="a_Node000012"><a xlink:href="classShell.html#adcded58cf909ca4df04af1b88dac4901" target="_top" xlink:title=" ">
<polygon fill="white" stroke="#666666" points="422.5,-370 340.5,-370 340.5,-351 422.5,-351 422.5,-370"/>
<text text-anchor="middle" x="381.5" y="-358" font-family="Ubuntu Mono" font-size="10.00">Shell::doStart</text>
</a>
</g>
</g>
<!-- Node11&#45;&gt;Node12 -->
<g id="edge12_Node000011_Node000012" class="edge">
<title>Node11&#45;&gt;Node12</title>
<g id="a_edge12_Node000011_Node000012"><a xlink:title=" ">
<path fill="none" stroke="#63b8ff" d="M478.93,-360.5C459.97,-360.5 439.67,-360.5 422.61,-360.5"/>
<polygon fill="#63b8ff" stroke="#63b8ff" points="479,-364 489,-360.5 479,-357 479,-364"/>
</a>
</g>
</g>
<!-- Node13 -->
<g id="Node000013" class="node">
<title>Node13</title>
<g id="a_Node000013"><a xlink:href="testMsg_8cpp.html#a54ea8605933a0f2d273e5c7bb10a390d" target="_top" xlink:title=" ">
<polygon fill="white" stroke="#666666" points="265.5,-722 173.5,-722 173.5,-703 265.5,-703 265.5,-722"/>
<text text-anchor="middle" x="219.5" y="-710" font-family="Ubuntu Mono" font-size="10.00">benchmarkMsg</text>
</a>
</g>
</g>
<!-- Node12&#45;&gt;Node13 -->
<g id="edge13_Node000012_Node000013" class="edge">
<title>Node12&#45;&gt;Node13</title>
<g id="a_edge13_Node000012_Node000013"><a xlink:title=" ">
<path fill="none" stroke="#63b8ff" d="M359.08,-376.68C347.61,-386.58 334.37,-400.25 327,-415.5 272.62,-528.08 373.87,-600.88 291,-694.5 284.39,-701.97 275.14,-706.55 265.52,-709.3"/>
<polygon fill="#63b8ff" stroke="#63b8ff" points="361.5,-379.23 367.01,-370.18 357.06,-373.82 361.5,-379.23"/>
</a>
</g>
</g>
<!-- Node14 -->
<g id="Node000014" class="node">
<title>Node14</title>
<g id="a_Node000014"><a xlink:href="classReadKkit.html#a1491eaffbb56f52d1e168fd5b58b53db" target="_top" xlink:title=" ">
<polygon fill="white" stroke="#666666" points="261,-685 178,-685 178,-666 261,-666 261,-685"/>
<text text-anchor="middle" x="219.5" y="-673" font-family="Ubuntu Mono" font-size="10.00">ReadKkit::run</text>
</a>
</g>
</g>
<!-- Node12&#45;&gt;Node14 -->
<g id="edge14_Node000012_Node000014" class="edge">
<title>Node12&#45;&gt;Node14</title>
<g id="a_edge14_Node000012_Node000014"><a xlink:title=" ">
<path fill="none" stroke="#63b8ff" d="M359.19,-376.74C347.76,-386.65 334.51,-400.32 327,-415.5 278.76,-512.95 363.86,-576.78 291,-657.5 283.3,-666.03 272.16,-670.77 261.01,-673.34"/>
<polygon fill="#63b8ff" stroke="#63b8ff" points="361.61,-379.28 367.09,-370.22 357.15,-373.89 361.61,-379.28"/>
</a>
</g>
</g>
<!-- Node16 -->
<g id="Node000016" class="node">
<title>Node16</title>
<g id="a_Node000016"><a xlink:href="namespacepymoose.html#aeb8f138bffd660be625851c64ece0e94" target="_top" xlink:title=" ">
<polygon fill="white" stroke="#666666" points="264.5,-648 174.5,-648 174.5,-629 264.5,-629 264.5,-648"/>
<text text-anchor="middle" x="219.5" y="-636" font-family="Ubuntu Mono" font-size="10.00">pymoose::start</text>
</a>
</g>
</g>
<!-- Node12&#45;&gt;Node16 -->
<g id="edge16_Node000012_Node000016" class="edge">
<title>Node12&#45;&gt;Node16</title>
<g id="a_edge16_Node000012_Node000016"><a xlink:title=" ">
<path fill="none" stroke="#63b8ff" d="M359.34,-376.82C347.96,-386.75 334.71,-400.42 327,-415.5 284.88,-497.86 353.87,-552.65 291,-620.5 284.05,-628.01 274.43,-632.56 264.54,-635.29"/>
<polygon fill="#63b8ff" stroke="#63b8ff" points="361.75,-379.36 367.19,-370.27 357.27,-373.98 361.75,-379.36"/>
</a>
</g>
</g>
<!-- Node17 -->
<g id="Node000017" class="node">
<title>Node17</title>
<g id="a_Node000017"><a xlink:href="testDiffusion_8cpp.html#a7a195f69ab90f31794c50ab37f0520b9" target="_top" xlink:title=" ">
<polygon fill="white" stroke="#666666" points="267,-537 172,-537 172,-518 267,-518 267,-537"/>
<text text-anchor="middle" x="219.5" y="-525" font-family="Ubuntu Mono" font-size="10.00">testCalcJunction</text>
</a>
</g>
</g>
<!-- Node12&#45;&gt;Node17 -->
<g id="edge17_Node000012_Node000017" class="edge">
<title>Node12&#45;&gt;Node17</title>
<g id="a_edge17_Node000012_Node000017"><a xlink:title=" ">
<path fill="none" stroke="#63b8ff" d="M360.83,-377.05C349.71,-387.22 336.24,-401.05 327,-415.5 302.91,-453.2 324.41,-479.75 291,-509.5 284.3,-515.46 275.9,-519.51 267.25,-522.23"/>
<polygon fill="#63b8ff" stroke="#63b8ff" points="363.25,-379.58 368.41,-370.33 358.61,-374.34 363.25,-379.58"/>
</a>
</g>
</g>
<!-- Node19 -->
<g id="Node000019" class="node">
<title>Node19</title>
<g id="a_Node000019"><a xlink:href="testDiffusion_8cpp.html#a1d6246d49507e6abd2cf028040a79d3e" target="_top" xlink:title=" ">
<polygon fill="white" stroke="#666666" points="258,-500 181,-500 181,-481 258,-481 258,-500"/>
<text text-anchor="middle" x="219.5" y="-488" font-family="Ubuntu Mono" font-size="10.00">testCellDiffn</text>
</a>
</g>
</g>
<!-- Node12&#45;&gt;Node19 -->
<g id="edge19_Node000012_Node000019" class="edge">
<title>Node12&#45;&gt;Node19</title>
<g id="a_edge19_Node000012_Node000019"><a xlink:title=" ">
<path fill="none" stroke="#63b8ff" d="M362.66,-377C351.76,-387.51 337.88,-401.69 327,-415.5 308.45,-439.03 315.23,-454.88 291,-472.5 281.5,-479.41 269.6,-483.67 258.29,-486.3"/>
<polygon fill="#63b8ff" stroke="#63b8ff" points="365.13,-379.48 369.98,-370.06 360.31,-374.4 365.13,-379.48"/>
</a>
</g>
</g>
<!-- Node20 -->
<g id="Node000020" class="node">
<title>Node20</title>
<g id="a_Node000020"><a xlink:href="testDiffusion_8cpp.html#a2dc040eac718807eca494285edbe4456" target="_top" xlink:title=" ">
<polygon fill="white" stroke="#666666" points="256.5,-426 182.5,-426 182.5,-407 256.5,-407 256.5,-426"/>
<text text-anchor="middle" x="219.5" y="-414" font-family="Ubuntu Mono" font-size="10.00">testCylDiffn</text>
</a>
</g>
</g>
<!-- Node12&#45;&gt;Node20 -->
<g id="edge21_Node000012_Node000020" class="edge">
<title>Node12&#45;&gt;Node20</title>
<g id="a_edge21_Node000012_Node000020"><a xlink:title=" ">
<path fill="none" stroke="#63b8ff" d="M349.97,-374.27C332.84,-381.7 310.96,-390.72 291,-397.5 279.96,-401.25 267.75,-404.76 256.63,-407.72"/>
<polygon fill="#63b8ff" stroke="#63b8ff" points="351.71,-377.33 359.46,-370.1 348.89,-370.92 351.71,-377.33"/>
</a>
</g>
</g>
<!-- Node21 -->
<g id="Node000021" class="node">
<title>Node21</title>
<g id="a_Node000021"><a xlink:href="testDiffusion_8cpp.html#a238b7de92925883788a1b3a0b4ad9c53" target="_top" xlink:title=" ">
<polygon fill="white" stroke="#666666" points="283,-389 156,-389 156,-370 283,-370 283,-389"/>
<text text-anchor="middle" x="219.5" y="-377" font-family="Ubuntu Mono" font-size="10.00">testCylDiffnWithStoich</text>
</a>
</g>
</g>
<!-- Node12&#45;&gt;Node21 -->
<g id="edge23_Node000012_Node000021" class="edge">
<title>Node12&#45;&gt;Node21</title>
<g id="a_edge23_Node000012_Node000021"><a xlink:title=" ">
<path fill="none" stroke="#63b8ff" d="M330.12,-366.48C315.27,-368.25 298.83,-370.2 283.29,-372.04"/>
<polygon fill="#63b8ff" stroke="#63b8ff" points="330.61,-369.95 340.13,-365.29 329.78,-363 330.61,-369.95"/>
</a>
</g>
</g>
<!-- Node22 -->
<g id="Node000022" class="node">
<title>Node22</title>
<g id="a_Node000022"><a xlink:href="testBuiltins_8cpp.html#a0b23c31b7503dd93064294b42d4ff085" target="_top" xlink:title=" ">
<polygon fill="white" stroke="#666666" points="260,-463 179,-463 179,-444 260,-444 260,-463"/>
<text text-anchor="middle" x="219.5" y="-451" font-family="Ubuntu Mono" font-size="10.00">testFibonacci</text>
</a>
</g>
</g>
<!-- Node12&#45;&gt;Node22 -->
<g id="edge25_Node000012_Node000022" class="edge">
<title>Node12&#45;&gt;Node22</title>
<g id="a_edge25_Node000012_Node000022"><a xlink:title=" ">
<path fill="none" stroke="#63b8ff" d="M364.22,-377.71C347.4,-394.53 319.63,-419.7 291,-434.5 281.43,-439.45 270.44,-443.2 260.03,-446.02"/>
<polygon fill="#63b8ff" stroke="#63b8ff" points="367.07,-379.81 371.56,-370.21 362.06,-374.92 367.07,-379.81"/>
</a>
</g>
</g>
<!-- Node23 -->
<g id="Node000023" class="node">
<title>Node23</title>
<g id="a_Node000023"><a xlink:href="testBuiltins_8cpp.html#ae0e71e5c15d8c5e9258b1c3bc4df7ce8" target="_top" xlink:title=" ">
<polygon fill="white" stroke="#666666" points="256,-56 183,-56 183,-37 256,-37 256,-56"/>
<text text-anchor="middle" x="219.5" y="-44" font-family="Ubuntu Mono" font-size="10.00">testGetMsg</text>
</a>
</g>
</g>
<!-- Node12&#45;&gt;Node23 -->
<g id="edge26_Node000012_Node000023" class="edge">
<title>Node12&#45;&gt;Node23</title>
<g id="a_edge26_Node000012_Node000023"><a xlink:title=" ">
<path fill="none" stroke="#63b8ff" d="M380.74,-340.79C380.27,-287.86 371.39,-141.46 291,-64.5 281.69,-55.59 268.61,-50.92 256.24,-48.53"/>
<polygon fill="#63b8ff" stroke="#63b8ff" points="377.24,-340.86 380.74,-350.86 384.24,-340.87 377.24,-340.86"/>
</a>
</g>
</g>
<!-- Node25 -->
<g id="Node000025" class="node">
<title>Node25</title>
<g id="a_Node000025"><a xlink:href="testKinetics_8cpp.html#aecb5ba8faf06279dca27fa2fe90d620e" target="_top" xlink:title=" ">
<polygon fill="white" stroke="#666666" points="273.5,-315 165.5,-315 165.5,-296 273.5,-296 273.5,-315"/>
<text text-anchor="middle" x="219.5" y="-303" font-family="Ubuntu Mono" font-size="10.00">testMMenzProcess</text>
</a>
</g>
</g>
<!-- Node12&#45;&gt;Node25 -->
<g id="edge28_Node000012_Node000025" class="edge">
<title>Node12&#45;&gt;Node25</title>
<g id="a_edge28_Node000012_Node000025"><a xlink:title=" ">
<path fill="none" stroke="#63b8ff" d="M350.35,-346.78C333.18,-339.28 311.14,-330.2 291,-323.5 281.77,-320.43 271.71,-317.58 262.16,-315.09"/>
<polygon fill="#63b8ff" stroke="#63b8ff" points="349.28,-350.13 359.84,-350.98 352.11,-343.73 349.28,-350.13"/>
</a>
</g>
</g>
<!-- Node27 -->
<g id="Node000027" class="node">
<title>Node27</title>
<g id="a_Node000027"><a xlink:href="testBuiltins_8cpp.html#ae0ef11dccb7ea317c737e2b6c18f7a82" target="_top" xlink:title=" ">
<polygon fill="white" stroke="#666666" points="269,-352 170,-352 170,-333 269,-333 269,-352"/>
<text text-anchor="middle" x="219.5" y="-340" font-family="Ubuntu Mono" font-size="10.00">testMpiFibonacci</text>
</a>
</g>
</g>
<!-- Node12&#45;&gt;Node27 -->
<g id="edge30_Node000012_Node000027" class="edge">
<title>Node12&#45;&gt;Node27</title>
<g id="a_edge30_Node000012_Node000027"><a xlink:title=" ">
<path fill="none" stroke="#63b8ff" d="M329.94,-354.81C310.51,-352.63 288.38,-350.14 269.14,-347.97"/>
<polygon fill="#63b8ff" stroke="#63b8ff" points="329.8,-358.32 340.13,-355.96 330.58,-351.36 329.8,-358.32"/>
</a>
</g>
</g>
<!-- Node28 -->
<g id="Node000028" class="node">
<title>Node28</title>
<g id="a_Node000028"><a xlink:href="testKsolve_8cpp.html#a5c674b9e01f6de9aa1bc59b30b478732" target="_top" xlink:title=" ">
<polygon fill="white" stroke="#666666" points="263.5,-278 175.5,-278 175.5,-259 263.5,-259 263.5,-278"/>
<text text-anchor="middle" x="219.5" y="-266" font-family="Ubuntu Mono" font-size="10.00">testRunGsolve</text>
</a>
</g>
</g>
<!-- Node12&#45;&gt;Node28 -->
<g id="edge31_Node000012_Node000028" class="edge">
<title>Node12&#45;&gt;Node28</title>
<g id="a_edge31_Node000012_Node000028"><a xlink:title=" ">
<path fill="none" stroke="#63b8ff" d="M364.53,-343.48C347.77,-326.59 319.88,-301.19 291,-286.5 282.55,-282.21 273.01,-278.88 263.73,-276.33"/>
<polygon fill="#63b8ff" stroke="#63b8ff" points="362.35,-346.25 371.82,-350.99 367.37,-341.38 362.35,-346.25"/>
</a>
</g>
</g>
<!-- Node30 -->
<g id="Node000030" class="node">
<title>Node30</title>
<g id="a_Node000030"><a xlink:href="testKsolve_8cpp.html#ac26dd54083d1323f446df615420b29c4" target="_top" xlink:title=" ">
<polygon fill="white" stroke="#666666" points="263,-204 176,-204 176,-185 263,-185 263,-204"/>
<text text-anchor="middle" x="219.5" y="-192" font-family="Ubuntu Mono" font-size="10.00">testRunKsolve</text>
</a>
</g>
</g>
<!-- Node12&#45;&gt;Node30 -->
<g id="edge33_Node000012_Node000030" class="edge">
<title>Node12&#45;&gt;Node30</title>
<g id="a_edge33_Node000012_Node000030"><a xlink:title=" ">
<path fill="none" stroke="#63b8ff" d="M374.3,-341.27C363.03,-309.42 336.06,-245.94 291,-212.5 282.88,-206.48 272.96,-202.46 263.14,-199.79"/>
<polygon fill="#63b8ff" stroke="#63b8ff" points="371,-342.42 377.53,-350.77 377.63,-340.17 371,-342.42"/>
</a>
</g>
</g>
<!-- Node31 -->
<g id="Node000031" class="node">
<title>Node31</title>
<g id="a_Node000031"><a xlink:href="testKsolve_8cpp.html#a9668b431312f7fdd499139cd42e12084" target="_top" xlink:title=" ">
<polygon fill="white" stroke="#666666" points="291,-241 148,-241 148,-222 291,-222 291,-241"/>
<text text-anchor="middle" x="219.5" y="-229" font-family="Ubuntu Mono" font-size="10.00">testRunKsolveWithLSODA</text>
</a>
</g>
</g>
<!-- Node12&#45;&gt;Node31 -->
<g id="edge35_Node000012_Node000031" class="edge">
<title>Node12&#45;&gt;Node31</title>
<g id="a_edge35_Node000012_Node000031"><a xlink:title=" ">
<path fill="none" stroke="#63b8ff" d="M370.62,-341.89C356.39,-316.96 327.77,-273.13 291,-249.5 285.69,-246.09 279.76,-243.32 273.66,-241.08"/>
<polygon fill="#63b8ff" stroke="#63b8ff" points="367.6,-343.67 375.5,-350.73 373.73,-340.29 367.6,-343.67"/>
</a>
</g>
</g>
<!-- Node32 -->
<g id="Node000032" class="node">
<title>Node32</title>
<g id="a_Node000032"><a xlink:href="testKsolve_8cpp.html#ae6e4d05873e453809a5efca4f3784664" target="_top" xlink:title=" ">
<polygon fill="white" stroke="#666666" points="263,-167 176,-167 176,-148 263,-148 263,-167"/>
<text text-anchor="middle" x="219.5" y="-155" font-family="Ubuntu Mono" font-size="10.00">testSetupReac</text>
</a>
</g>
</g>
<!-- Node12&#45;&gt;Node32 -->
<g id="edge36_Node000012_Node000032" class="edge">
<title>Node12&#45;&gt;Node32</title>
<g id="a_edge36_Node000012_Node000032"><a xlink:title=" ">
<path fill="none" stroke="#63b8ff" d="M376.71,-340.83C368.33,-302.84 344.56,-219.27 291,-175.5 283.08,-169.03 273.11,-164.85 263.18,-162.16"/>
<polygon fill="#63b8ff" stroke="#63b8ff" points="373.29,-341.59 378.75,-350.66 380.14,-340.16 373.29,-341.59"/>
</a>
</g>
</g>
<!-- Node33 -->
<g id="Node000033" class="node">
<title>Node33</title>
<g id="a_Node000033"><a xlink:href="testShell_8cpp.html#ae735a0a41a973dd5976fee234f11149c" target="_top" xlink:title=" ">
<polygon fill="white" stroke="#666666" points="268.5,-19 170.5,-19 170.5,0 268.5,0 268.5,-19"/>
<text text-anchor="middle" x="219.5" y="-7" font-family="Ubuntu Mono" font-size="10.00">testShellAddMsg</text>
</a>
</g>
</g>
<!-- Node12&#45;&gt;Node33 -->
<g id="edge38_Node000012_Node000033" class="edge">
<title>Node12&#45;&gt;Node33</title>
<g id="a_edge38_Node000012_Node000033"><a xlink:title=" ">
<path fill="none" stroke="#63b8ff" d="M377.82,-340.74C368.68,-276.13 336.71,-72.64 291,-27.5 284.89,-21.46 277.05,-17.37 268.83,-14.6"/>
<polygon fill="#63b8ff" stroke="#63b8ff" points="374.38,-341.39 379.22,-350.82 381.31,-340.43 374.38,-341.39"/>
</a>
</g>
</g>
<!-- Node35 -->
<g id="Node000035" class="node">
<title>Node35</title>
<g id="a_Node000035"><a xlink:href="testShell_8cpp.html#a3eaf344e86ebe20b236b5be097348477" target="_top" xlink:title=" ">
<polygon fill="white" stroke="#666666" points="276,-130 163,-130 163,-111 276,-111 276,-130"/>
<text text-anchor="middle" x="219.5" y="-118" font-family="Ubuntu Mono" font-size="10.00">testShellParserStart</text>
</a>
</g>
</g>
<!-- Node12&#45;&gt;Node35 -->
<g id="edge40_Node000012_Node000035" class="edge">
<title>Node12&#45;&gt;Node35</title>
<g id="a_edge40_Node000012_Node000035"><a xlink:title=" ">
<path fill="none" stroke="#63b8ff" d="M378.44,-340.61C372.84,-297.1 353.3,-193.01 291,-138.5 286.63,-134.67 281.55,-131.64 276.16,-129.24"/>
<polygon fill="#63b8ff" stroke="#63b8ff" points="374.99,-341.22 379.63,-350.75 381.94,-340.41 374.99,-341.22"/>
</a>
</g>
</g>
<!-- Node36 -->
<g id="Node000036" class="node">
<title>Node36</title>
<g id="a_Node000036"><a xlink:href="testDiffusion_8cpp.html#a79f4c431fe1f8a466545f2a3bce7ab54" target="_top" xlink:title=" ">
<polygon fill="white" stroke="#666666" points="272,-611 167,-611 167,-592 272,-592 272,-611"/>
<text text-anchor="middle" x="219.5" y="-599" font-family="Ubuntu Mono" font-size="10.00">testSmallCellDiffn</text>
</a>
</g>
</g>
<!-- Node12&#45;&gt;Node36 -->
<g id="edge41_Node000012_Node000036" class="edge">
<title>Node12&#45;&gt;Node36</title>
<g id="a_edge41_Node000012_Node000036"><a xlink:title=" ">
<path fill="none" stroke="#63b8ff" d="M359.55,-376.93C348.24,-386.9 334.99,-400.57 327,-415.5 290.97,-482.83 343.94,-528.46 291,-583.5 285.83,-588.87 279.3,-592.72 272.31,-595.47"/>
<polygon fill="#63b8ff" stroke="#63b8ff" points="361.96,-379.47 367.35,-370.35 357.45,-374.12 361.96,-379.47"/>
</a>
</g>
</g>
<!-- Node37 -->
<g id="Node000037" class="node">
<title>Node37</title>
<g id="a_Node000037"><a xlink:href="testBuiltins_8cpp.html#a987c1d1f431aee2c2693bbcc26e09ff6" target="_top" xlink:title=" ">
<polygon fill="white" stroke="#666666" points="249.5,-93 189.5,-93 189.5,-74 249.5,-74 249.5,-93"/>
<text text-anchor="middle" x="219.5" y="-81" font-family="Ubuntu Mono" font-size="10.00">testStats</text>
</a>
</g>
</g>
<!-- Node12&#45;&gt;Node37 -->
<g id="edge43_Node000012_Node000037" class="edge">
<title>Node12&#45;&gt;Node37</title>
<g id="a_edge43_Node000012_Node000037"><a xlink:title=" ">
<path fill="none" stroke="#63b8ff" d="M379.75,-340.68C376.8,-292.27 362.29,-167.12 291,-101.5 279.85,-91.23 263.66,-86.64 249.61,-84.65"/>
<polygon fill="#63b8ff" stroke="#63b8ff" points="376.26,-340.97 380.26,-350.78 383.25,-340.62 376.26,-340.97"/>
</a>
</g>
</g>
<!-- Node38 -->
<g id="Node000038" class="node">
<title>Node38</title>
<g id="a_Node000038"><a xlink:href="testDiffusion_8cpp.html#a4ddcfaa56acb38180d6cfd73e8261cb4" target="_top" xlink:title=" ">
<polygon fill="white" stroke="#666666" points="277.5,-574 161.5,-574 161.5,-555 277.5,-555 277.5,-574"/>
<text text-anchor="middle" x="219.5" y="-562" font-family="Ubuntu Mono" font-size="10.00">testTaperingCylDiffn</text>
</a>
</g>
</g>
<!-- Node12&#45;&gt;Node38 -->
<g id="edge45_Node000012_Node000038" class="edge">
<title>Node12&#45;&gt;Node38</title>
<g id="a_edge45_Node000012_Node000038"><a xlink:title=" ">
<path fill="none" stroke="#63b8ff" d="M360.3,-376.73C349,-386.79 335.52,-400.62 327,-415.5 297,-467.9 334.08,-504.19 291,-546.5 287.12,-550.31 282.56,-553.34 277.65,-555.76"/>
<polygon fill="#63b8ff" stroke="#63b8ff" points="362.72,-379.26 368.04,-370.1 358.17,-373.94 362.72,-379.26"/>
</a>
</g>
</g>
<!-- Node15 -->
<g id="Node000015" class="node">
<title>Node15</title>
<g id="a_Node000015"><a xlink:href="testKinetics_8cpp.html#a484ee971354e15c7a0dcf17fd1b0a8fa" target="_top" xlink:title=" ">
<polygon fill="white" stroke="#666666" points="96,-685 16,-685 16,-666 96,-666 96,-685"/>
<text text-anchor="middle" x="56" y="-673" font-family="Ubuntu Mono" font-size="10.00">testReadKkit</text>
</a>
</g>
</g>
<!-- Node14&#45;&gt;Node15 -->
<g id="edge15_Node000014_Node000015" class="edge">
<title>Node14&#45;&gt;Node15</title>
<g id="a_edge15_Node000014_Node000015"><a xlink:title=" ">
<path fill="none" stroke="#63b8ff" d="M167.44,-675.5C144.35,-675.5 117.51,-675.5 96.07,-675.5"/>
<polygon fill="#63b8ff" stroke="#63b8ff" points="167.75,-679 177.75,-675.5 167.75,-672 167.75,-679"/>
</a>
</g>
</g>
<!-- Node18 -->
<g id="Node000018" class="node">
<title>Node18</title>
<g id="a_Node000018"><a xlink:href="testDiffusion_8cpp.html#a839cef97ff91dc606a720be9cdc18709" target="_top" xlink:title=" ">
<polygon fill="white" stroke="#666666" points="95.5,-518 16.5,-518 16.5,-499 95.5,-499 95.5,-518"/>
<text text-anchor="middle" x="56" y="-506" font-family="Ubuntu Mono" font-size="10.00">testDiffusion</text>
</a>
</g>
</g>
<!-- Node17&#45;&gt;Node18 -->
<g id="edge18_Node000017_Node000018" class="edge">
<title>Node17&#45;&gt;Node18</title>
<g id="a_edge18_Node000017_Node000018"><a xlink:title=" ">
<path fill="none" stroke="#63b8ff" d="M161.64,-520.81C139.82,-518.24 115.44,-515.38 95.71,-513.05"/>
<polygon fill="#63b8ff" stroke="#63b8ff" points="161.45,-524.31 171.79,-522 162.26,-517.36 161.45,-524.31"/>
</a>
</g>
</g>
<!-- Node19&#45;&gt;Node18 -->
<g id="edge20_Node000019_Node000018" class="edge">
<title>Node19&#45;&gt;Node18</title>
<g id="a_edge20_Node000019_Node000018"><a xlink:title=" ">
<path fill="none" stroke="#63b8ff" d="M170.39,-495.86C146.56,-498.52 118.16,-501.68 95.75,-504.18"/>
<polygon fill="#63b8ff" stroke="#63b8ff" points="171.08,-499.31 180.64,-494.72 170.31,-492.35 171.08,-499.31"/>
</a>
</g>
</g>
<!-- Node20&#45;&gt;Node18 -->
<g id="edge22_Node000020_Node000018" class="edge">
<title>Node20&#45;&gt;Node18</title>
<g id="a_edge22_Node000020_Node000018"><a xlink:title=" ">
<path fill="none" stroke="#63b8ff" d="M172.53,-425.16C164.13,-427.6 155.62,-430.66 148,-434.5 114.17,-451.53 81.46,-482.88 66.1,-498.75"/>
<polygon fill="#63b8ff" stroke="#63b8ff" points="173.5,-428.53 182.28,-422.59 171.71,-421.76 173.5,-428.53"/>
</a>
</g>
</g>
<!-- Node21&#45;&gt;Node18 -->
<g id="edge24_Node000021_Node000018" class="edge">
<title>Node21&#45;&gt;Node18</title>
<g id="a_edge24_Node000021_Node000018"><a xlink:title=" ">
<path fill="none" stroke="#63b8ff" d="M156.12,-393.01C153.3,-394.36 150.58,-395.86 148,-397.5 105.96,-424.27 74.07,-476.96 62.12,-498.73"/>
<polygon fill="#63b8ff" stroke="#63b8ff" points="157.51,-396.22 165.37,-389.12 154.79,-389.77 157.51,-396.22"/>
</a>
</g>
</g>
<!-- Node24 -->
<g id="Node000024" class="node">
<title>Node24</title>
<g id="a_Node000024"><a xlink:href="testBuiltins_8cpp.html#a71c9f0da70769f975f229b1b749c609b" target="_top" xlink:title=" ">
<polygon fill="white" stroke="#666666" points="111,-75 1,-75 1,-56 111,-56 111,-75"/>
<text text-anchor="middle" x="56" y="-63" font-family="Ubuntu Mono" font-size="10.00">testBuiltinsProcess</text>
</a>
</g>
</g>
<!-- Node23&#45;&gt;Node24 -->
<g id="edge27_Node000023_Node000024" class="edge">
<title>Node23&#45;&gt;Node24</title>
<g id="a_edge27_Node000023_Node000024"><a xlink:title=" ">
<path fill="none" stroke="#63b8ff" d="M172.68,-51.89C153.53,-54.14 131.12,-56.78 111.16,-59.13"/>
<polygon fill="#63b8ff" stroke="#63b8ff" points="173.14,-55.36 182.66,-50.72 172.32,-48.41 173.14,-55.36"/>
</a>
</g>
</g>
<!-- Node26 -->
<g id="Node000026" class="node">
<title>Node26</title>
<g id="a_Node000026"><a xlink:href="testKinetics_8cpp.html#afb125a1c8f70a2522c78d767e4b199ae" target="_top" xlink:title=" ">
<polygon fill="white" stroke="#666666" points="112,-315 0,-315 0,-296 112,-296 112,-315"/>
<text text-anchor="middle" x="56" y="-303" font-family="Ubuntu Mono" font-size="10.00">testKineticsProcess</text>
</a>
</g>
</g>
<!-- Node25&#45;&gt;Node26 -->
<g id="edge29_Node000025_Node000026" class="edge">
<title>Node25&#45;&gt;Node26</title>
<g id="a_edge29_Node000025_Node000026"><a xlink:title=" ">
<path fill="none" stroke="#63b8ff" d="M155.03,-305.5C140.88,-305.5 125.99,-305.5 112.21,-305.5"/>
<polygon fill="#63b8ff" stroke="#63b8ff" points="155.17,-309 165.17,-305.5 155.17,-302 155.17,-309"/>
</a>
</g>
</g>
<!-- Node29 -->
<g id="Node000029" class="node">
<title>Node29</title>
<g id="a_Node000029"><a xlink:href="testKsolve_8cpp.html#a59de32e18c1cbdf71850c5ab93749996" target="_top" xlink:title=" ">
<polygon fill="white" stroke="#666666" points="90,-204 22,-204 22,-185 90,-185 90,-204"/>
<text text-anchor="middle" x="56" y="-192" font-family="Ubuntu Mono" font-size="10.00">testKsolve</text>
</a>
</g>
</g>
<!-- Node28&#45;&gt;Node29 -->
<g id="edge32_Node000028_Node000029" class="edge">
<title>Node28&#45;&gt;Node29</title>
<g id="a_edge32_Node000028_Node000029"><a xlink:title=" ">
<path fill="none" stroke="#63b8ff" d="M165.37,-255.91C159.42,-254 153.53,-251.86 148,-249.5 118.63,-236.96 87.4,-216.25 70.23,-204.14"/>
<polygon fill="#63b8ff" stroke="#63b8ff" points="164.76,-259.39 175.35,-258.93 166.79,-252.69 164.76,-259.39"/>
</a>
</g>
</g>
<!-- Node30&#45;&gt;Node29 -->
<g id="edge34_Node000030_Node000029" class="edge">
<title>Node30&#45;&gt;Node29</title>
<g id="a_edge34_Node000030_Node000029"><a xlink:title=" ">
<path fill="none" stroke="#63b8ff" d="M165.61,-194.5C140.72,-194.5 111.8,-194.5 90.06,-194.5"/>
<polygon fill="#63b8ff" stroke="#63b8ff" points="165.65,-198 175.64,-194.5 165.64,-191 165.65,-198"/>
</a>
</g>
</g>
<!-- Node32&#45;&gt;Node29 -->
<g id="edge37_Node000032_Node000029" class="edge">
<title>Node32&#45;&gt;Node29</title>
<g id="a_edge37_Node000032_Node000029"><a xlink:title=" ">
<path fill="none" stroke="#63b8ff" d="M167.12,-169.27C141.89,-175.05 112.23,-181.85 90.05,-186.93"/>
<polygon fill="#63b8ff" stroke="#63b8ff" points="167.94,-172.67 176.91,-167.03 166.38,-165.85 167.94,-172.67"/>
</a>
</g>
</g>
<!-- Node34 -->
<g id="Node000034" class="node">
<title>Node34</title>
<g id="a_Node000034"><a xlink:href="testShell_8cpp.html#a39b69e92ca3f7b92223ebc9b1940bff7" target="_top" xlink:title=" ">
<polygon fill="white" stroke="#666666" points="94.5,-19 17.5,-19 17.5,0 94.5,0 94.5,-19"/>
<text text-anchor="middle" x="56" y="-7" font-family="Ubuntu Mono" font-size="10.00">testMpiShell</text>
</a>
</g>
</g>
<!-- Node33&#45;&gt;Node34 -->
<g id="edge39_Node000033_Node000034" class="edge">
<title>Node33&#45;&gt;Node34</title>
<g id="a_edge39_Node000033_Node000034"><a xlink:title=" ">
<path fill="none" stroke="#63b8ff" d="M160.29,-9.5C138.4,-9.5 114.11,-9.5 94.58,-9.5"/>
<polygon fill="#63b8ff" stroke="#63b8ff" points="160.48,-13 170.48,-9.5 160.48,-6 160.48,-13"/>
</a>
</g>
</g>
<!-- Node36&#45;&gt;Node18 -->
<g id="edge42_Node000036_Node000018" class="edge">
<title>Node36&#45;&gt;Node18</title>
<g id="a_edge42_Node000036_Node000018"><a xlink:title=" ">
<path fill="none" stroke="#63b8ff" d="M159.74,-588.64C155.69,-587.11 151.74,-585.4 148,-583.5 113.86,-566.17 81.04,-534.14 65.83,-518.13"/>
<polygon fill="#63b8ff" stroke="#63b8ff" points="158.72,-591.99 169.31,-591.92 160.99,-585.37 158.72,-591.99"/>
</a>
</g>
</g>
<!-- Node37&#45;&gt;Node24 -->
<g id="edge44_Node000037_Node000024" class="edge">
<title>Node37&#45;&gt;Node24</title>
<g id="a_edge44_Node000037_Node000024"><a xlink:title=" ">
<path fill="none" stroke="#63b8ff" d="M179.06,-79.1C158.64,-76.83 133.4,-74.01 111.17,-71.54"/>
<polygon fill="#63b8ff" stroke="#63b8ff" points="178.93,-82.61 189.25,-80.24 179.7,-75.65 178.93,-82.61"/>
</a>
</g>
</g>
<!-- Node38&#45;&gt;Node18 -->
<g id="edge46_Node000038_Node000018" class="edge">
<title>Node38&#45;&gt;Node18</title>
<g id="a_edge46_Node000038_Node000018"><a xlink:title=" ">
<path fill="none" stroke="#63b8ff" d="M166.85,-552.24C160.46,-550.45 154.05,-548.52 148,-546.5 123.32,-538.25 95.87,-526.4 77.63,-518.13"/>
<polygon fill="#63b8ff" stroke="#63b8ff" points="166.26,-555.7 176.83,-554.93 168.08,-548.95 166.26,-555.7"/>
</a>
</g>
</g>
<!-- Node39&#45;&gt;Node6 -->
<g id="edge48_Node000039_Node000006" class="edge">
<title>Node39&#45;&gt;Node6</title>
<g id="a_edge48_Node000039_Node000006"><a xlink:title=" ">
<path fill="none" stroke="#63b8ff" d="M479.58,-434.5C465.21,-434.5 450.03,-434.5 436.05,-434.5"/>
<polygon fill="#63b8ff" stroke="#63b8ff" points="479.88,-438 489.88,-434.5 479.88,-431 479.88,-438"/>
</a>
</g>
</g>
<!-- Node40&#45;&gt;Node6 -->
<g id="edge50_Node000040_Node000006" class="edge">
<title>Node40&#45;&gt;Node6</title>
<g id="a_edge50_Node000040_Node000006"><a xlink:title=" ">
<path fill="none" stroke="#63b8ff" d="M490.55,-409.36C468.91,-414.39 444.02,-420.18 423.58,-424.94"/>
<polygon fill="#63b8ff" stroke="#63b8ff" points="491.61,-412.7 500.55,-407.03 490.02,-405.89 491.61,-412.7"/>
</a>
</g>
</g>
</g>
</svg>

<g id="navigator" transform="translate(0 0)" fill="#404254">
  <rect fill="#f2f5e9" fill-opacity="0.5" stroke="#606060" stroke-width=".5" x="0" y="0" width="60" height="60"/>
  <use id="zoomplus" xlink:href="#zoomPlus" x="17" y="9" onmousedown="handleZoom(evt,'in')"/>
  <use id="zoomminus" xlink:href="#zoomMin" x="42" y="9" onmousedown="handleZoom(evt,'out')"/>
  <use id="reset" xlink:href="#resetDef" x="30" y="36" onmousedown="handleReset()"/>
   <use id="arrowup" xlink:href="#arrowUp" x="0" y="0" onmousedown="handlePan(0,-1)"/>
  <use id="arrowright" xlink:href="#arrowRight" x="0" y="0" onmousedown="handlePan(1,0)"/>
  <use id="arrowdown" xlink:href="#arrowDown" x="0" y="0" onmousedown="handlePan(0,1)"/>
  <use id="arrowleft" xlink:href="#arrowLeft" x="0" y="0" onmousedown="handlePan(-1,0)"/>
</g>
<svg viewBox="0 0 15 15" width="100%" height="30px" preserveAspectRatio="xMaxYMin meet">
 <g id="arrow_out" transform="scale(0.3 0.3)">
  <a xlink:href="classTableBase_aa94d6dc4f65f9b3fbd0f1a26fd452818_icgraph_org.svg" target="_base">
   <rect id="button" ry="5" rx="5" y="6" x="6" height="38" width="38"
        fill="#f2f5e9" fill-opacity="0.5" stroke="#606060" stroke-width="1.0"/>
   <path id="arrow"
     d="M 11.500037,31.436501 C 11.940474,20.09759 22.043105,11.32322 32.158766,21.979434 L 37.068811,17.246167 C 37.068811,17.246167 37.088388,32 37.088388,32 L 22.160133,31.978069 C 22.160133,31.978069 26.997745,27.140456 26.997745,27.140456 C 18.528582,18.264221 13.291696,25.230495 11.500037,31.436501 z"
     style="fill:#404040;"/>
  </a>
 </g>
</svg>

<style type='text/css'>
<![CDATA[
[data-mouse-over-selected='false'] { opacity: 0.7; }
[data-mouse-over-selected='true']  { opacity: 1.0; }
]]>
</style>
<script type="application/ecmascript"><![CDATA[
document.addEventListener('DOMContentLoaded', (event) => {
  highlightEdges();
  highlightAdjacentNodes();
});
]]></script>
</svg>
