<?xml version="1.0" encoding="UTF-8" standalone="no"?>
<!DOCTYPE svg PUBLIC "-//W3C//DTD SVG 1.1//EN"
 "http://www.w3.org/Graphics/SVG/1.1/DTD/svg11.dtd">
<!-- Generated by graphviz version 2.43.0 (0)
 -->
<!-- Title: VectorTable Pages: 1 -->
<!--zoomable 585 -->

<svg id="main" version="1.1" xmlns="http://www.w3.org/2000/svg" xmlns:xlink="http://www.w3.org/1999/xlink" xml:space="preserve" onload="init(evt)">
<style type="text/css"><![CDATA[
.node, .edge {opacity: 0.7;}
.node.selected, .edge.selected {opacity: 1;}
.edge:hover path { stroke: red; }
.edge:hover polygon { stroke: red; fill: red; }
]]></style>

<defs>
  <circle id="rim" cx="0" cy="0" r="7"/>
  <circle id="rim2" cx="0" cy="0" r="3.5"/>
  <g id="zoomPlus">
    <use xlink:href="#rim" fill="#404040"><set attributeName="fill" to="#808080" begin="zoomplus.mouseover" end="zoomplus.mouseout"/></use>
    <path d="M-4,0h8M0,-4v8" fill="none" stroke="white" stroke-width="1.5" pointer-events="none"/>
  </g>
  <g id="zoomMin">
    <use xlink:href="#rim" fill="#404040"><set attributeName="fill" to="#808080" begin="zoomminus.mouseover" end="zoomminus.mouseout"/></use>
    <path d="M-4,0h8" fill="none" stroke="white" stroke-width="1.5" pointer-events="none"/>
  </g>
  <g id="arrowUp" transform="translate(30 24)">
    <use xlink:href="#rim"/>
    <path pointer-events="none" fill="none" stroke="white" stroke-width="1.5" d="M0,-3.0v7 M-2.5,-0.5L0,-3.0L2.5,-0.5"/>
  </g>
  <g id="arrowRight" transform="rotate(90) translate(36 -43)">
    <use xlink:href="#rim"/>
    <path pointer-events="none" fill="none" stroke="white" stroke-width="1.5" d="M0,-3.0v7 M-2.5,-0.5L0,-3.0L2.5,-0.5"/>
  </g>
  <g id="arrowDown" transform="rotate(180) translate(-30 -48)">
    <use xlink:href="#rim"/>
    <path pointer-events="none" fill="none" stroke="white" stroke-width="1.5" d="M0,-3.0v7 M-2.5,-0.5L0,-3.0L2.5,-0.5"/>
  </g>
  <g id="arrowLeft" transform="rotate(270) translate(-36 17)">
    <use xlink:href="#rim"/>
    <path pointer-events="none" fill="none" stroke="white" stroke-width="1.5" d="M0,-3.0v7 M-2.5,-0.5L0,-3.0L2.5,-0.5"/>
  </g>
  <g id="resetDef">
    <use xlink:href="#rim2" fill="#404040"><set attributeName="fill" to="#808080" begin="reset.mouseover" end="reset.mouseout"/></use>
  </g>
</defs>
<script type="application/ecmascript">
var viewWidth = 126;
var viewHeight = 585;
var sectionId = 'dynsection-0';
</script>
<script type="application/ecmascript" xlink:href="svg.min.js"/>
<svg id="graph" class="graph">
<g id="viewport">
<title>VectorTable</title>
<!-- Node1 -->
<g id="Node000001" class="node">
<title>Node1</title>
<g id="a_Node000001"><a xlink:title=" ">
<polygon fill="#999999" stroke="transparent" points="109.5,-289 8.5,-289 8.5,0 109.5,0 109.5,-289"/>
<text text-anchor="start" x="31" y="-276.5" font-family="Ubuntu Mono" font-size="10.00">VectorTable</text>
<text text-anchor="start" x="15.5" y="-261.5" font-family="Ubuntu Mono" font-size="10.00">&#45;</text>
<text text-anchor="start" x="26" y="-261.5" font-family="Ubuntu Mono" font-size="10.00">invDx_</text>
<text text-anchor="start" x="15.5" y="-246.5" font-family="Ubuntu Mono" font-size="10.00">&#45;</text>
<text text-anchor="start" x="26" y="-246.5" font-family="Ubuntu Mono" font-size="10.00">xDivs_</text>
<text text-anchor="start" x="15.5" y="-231.5" font-family="Ubuntu Mono" font-size="10.00">&#45;</text>
<text text-anchor="start" x="26" y="-231.5" font-family="Ubuntu Mono" font-size="10.00">xMax_</text>
<text text-anchor="start" x="15.5" y="-216.5" font-family="Ubuntu Mono" font-size="10.00">&#45;</text>
<text text-anchor="start" x="26" y="-216.5" font-family="Ubuntu Mono" font-size="10.00">xMin_</text>
<text text-anchor="start" x="13" y="-201.5" font-family="Ubuntu Mono" font-size="10.00">+</text>
<text text-anchor="start" x="26" y="-201.5" font-family="Ubuntu Mono" font-size="10.00">getDiv()</text>
<text text-anchor="start" x="13" y="-186.5" font-family="Ubuntu Mono" font-size="10.00">+</text>
<text text-anchor="start" x="26" y="-186.5" font-family="Ubuntu Mono" font-size="10.00">getInvDx()</text>
<text text-anchor="start" x="13" y="-171.5" font-family="Ubuntu Mono" font-size="10.00">+</text>
<text text-anchor="start" x="26" y="-171.5" font-family="Ubuntu Mono" font-size="10.00">getMax()</text>
<text text-anchor="start" x="13" y="-156.5" font-family="Ubuntu Mono" font-size="10.00">+</text>
<text text-anchor="start" x="26" y="-156.5" font-family="Ubuntu Mono" font-size="10.00">getMin()</text>
<text text-anchor="start" x="13" y="-141.5" font-family="Ubuntu Mono" font-size="10.00">+</text>
<text text-anchor="start" x="26" y="-141.5" font-family="Ubuntu Mono" font-size="10.00">getTable()</text>
<text text-anchor="start" x="13" y="-126.5" font-family="Ubuntu Mono" font-size="10.00">+</text>
<text text-anchor="start" x="26" y="-126.5" font-family="Ubuntu Mono" font-size="10.00">lookupByIndex()</text>
<text text-anchor="start" x="13" y="-111.5" font-family="Ubuntu Mono" font-size="10.00">+</text>
<text text-anchor="start" x="26" y="-111.5" font-family="Ubuntu Mono" font-size="10.00">lookupByValue()</text>
<text text-anchor="start" x="13" y="-96.5" font-family="Ubuntu Mono" font-size="10.00">+</text>
<text text-anchor="start" x="26" y="-96.5" font-family="Ubuntu Mono" font-size="10.00">setDiv()</text>
<text text-anchor="start" x="13" y="-81.5" font-family="Ubuntu Mono" font-size="10.00">+</text>
<text text-anchor="start" x="26" y="-81.5" font-family="Ubuntu Mono" font-size="10.00">setMax()</text>
<text text-anchor="start" x="13" y="-66.5" font-family="Ubuntu Mono" font-size="10.00">+</text>
<text text-anchor="start" x="26" y="-66.5" font-family="Ubuntu Mono" font-size="10.00">setMin()</text>
<text text-anchor="start" x="13" y="-51.5" font-family="Ubuntu Mono" font-size="10.00">+</text>
<text text-anchor="start" x="26" y="-51.5" font-family="Ubuntu Mono" font-size="10.00">setTable()</text>
<text text-anchor="start" x="13" y="-36.5" font-family="Ubuntu Mono" font-size="10.00">+</text>
<text text-anchor="start" x="26" y="-36.5" font-family="Ubuntu Mono" font-size="10.00">tableIsEmpty()</text>
<text text-anchor="start" x="13" y="-21.5" font-family="Ubuntu Mono" font-size="10.00">+</text>
<text text-anchor="start" x="26" y="-21.5" font-family="Ubuntu Mono" font-size="10.00">VectorTable()</text>
<text text-anchor="start" x="13" y="-6.5" font-family="Ubuntu Mono" font-size="10.00">+</text>
<text text-anchor="start" x="26" y="-6.5" font-family="Ubuntu Mono" font-size="10.00">initCinfo()</text>
<polygon fill="#666666" stroke="#666666" points="9,-271.5 9,-271.5 110,-271.5 110,-271.5 9,-271.5"/>
<polygon fill="#666666" stroke="#666666" points="9,-211.5 9,-211.5 24,-211.5 24,-211.5 9,-211.5"/>
<polygon fill="#666666" stroke="#666666" points="24,-211.5 24,-211.5 110,-211.5 110,-211.5 24,-211.5"/>
<polygon fill="none" stroke="#666666" points="8.5,0 8.5,-289 109.5,-289 109.5,0 8.5,0"/>
</a>
</g>
</g>
<!-- Node2 -->
<g id="Node000002" class="node">
<title>Node2</title>
<g id="a_Node000002"><a xlink:title=" ">
<polygon fill="white" stroke="transparent" points="118,-385 0,-385 0,-336 118,-336 118,-385"/>
<text text-anchor="start" x="5" y="-372.5" font-family="Ubuntu Mono" font-size="10.00">std::vector&lt; double &gt;</text>
<text text-anchor="start" x="16.5" y="-357.5" font-family="Ubuntu Mono" font-size="10.00">+</text>
<text text-anchor="start" x="42" y="-357.5" font-family="Ubuntu Mono" font-size="10.00">elements</text>
<text text-anchor="start" x="57" y="-342.5" font-family="Ubuntu Mono" font-size="10.00"> </text>
<polygon fill="#666666" stroke="#666666" points="0,-367.5 0,-367.5 118,-367.5 118,-367.5 0,-367.5"/>
<polygon fill="#666666" stroke="#666666" points="0,-352.5 0,-352.5 40,-352.5 40,-352.5 0,-352.5"/>
<polygon fill="#666666" stroke="#666666" points="40,-352.5 40,-352.5 118,-352.5 118,-352.5 40,-352.5"/>
<polygon fill="none" stroke="#666666" points="0,-336 0,-385 118,-385 118,-336 0,-336"/>
</a>
</g>
</g>
<!-- Node2&#45;&gt;Node1 -->
<g id="edge1_Node000001_Node000002" class="edge">
<title>Node2&#45;&gt;Node1</title>
<g id="a_edge1_Node000001_Node000002"><a xlink:title=" ">
<path fill="none" stroke="#63b8ff" d="M59,-335.78C59,-326.28 59,-314.49 59,-301.47"/>
<polygon fill="none" stroke="#63b8ff" points="59,-301.19 55,-295.19 59,-289.19 63,-295.19 59,-301.19"/>
</a>
</g>
<text text-anchor="middle" x="77.5" y="-310" font-family="Ubuntu Mono" font-size="10.00" fill="grey"> &#45;table_</text>
</g>
<!-- Node3 -->
<g id="Node000003" class="node">
<title>Node3</title>
<g id="a_Node000003"><a xlink:title=" ">
<polygon fill="white" stroke="transparent" points="104.5,-481 13.5,-481 13.5,-432 104.5,-432 104.5,-481"/>
<text text-anchor="start" x="19" y="-468.5" font-family="Ubuntu Mono" font-size="10.00">std::vector&lt; T &gt;</text>
<text text-anchor="start" x="57.5" y="-453.5" font-family="Ubuntu Mono" font-size="10.00"> </text>
<text text-anchor="start" x="57.5" y="-438.5" font-family="Ubuntu Mono" font-size="10.00"> </text>
<polygon fill="#666666" stroke="#666666" points="14,-463.5 14,-463.5 105,-463.5 105,-463.5 14,-463.5"/>
<polygon fill="#666666" stroke="#666666" points="14,-448.5 14,-448.5 105,-448.5 105,-448.5 14,-448.5"/>
<polygon fill="none" stroke="#666666" points="13.5,-432 13.5,-481 104.5,-481 104.5,-432 13.5,-432"/>
</a>
</g>
</g>
<!-- Node3&#45;&gt;Node2 -->
<g id="edge2_Node000002_Node000003" class="edge">
<title>Node3&#45;&gt;Node2</title>
<g id="a_edge2_Node000002_Node000003"><a xlink:title=" ">
<path fill="none" stroke="orange" d="M59,-421.6C59,-409.54 59,-396.23 59,-385.21"/>
<polygon fill="orange" stroke="orange" points="55.5,-421.78 59,-431.78 62.5,-421.78 55.5,-421.78"/>
</a>
</g>
<text text-anchor="middle" x="88.5" y="-406" font-family="Ubuntu Mono" font-size="10.00" fill="grey"> &lt; double &gt;</text>
</g>
<!-- Node4 -->
<g id="Node000004" class="node">
<title>Node4</title>
<g id="a_Node000004"><a xlink:title=" ">
<polygon fill="white" stroke="transparent" points="67.5,-577 50.5,-577 50.5,-528 67.5,-528 67.5,-577"/>
<text text-anchor="start" x="56" y="-564.5" font-family="Ubuntu Mono" font-size="10.00">T</text>
<text text-anchor="start" x="57.5" y="-549.5" font-family="Ubuntu Mono" font-size="10.00"> </text>
<text text-anchor="start" x="57.5" y="-534.5" font-family="Ubuntu Mono" font-size="10.00"> </text>
<polygon fill="#666666" stroke="#666666" points="51,-559.5 51,-559.5 68,-559.5 68,-559.5 51,-559.5"/>
<polygon fill="#666666" stroke="#666666" points="51,-544.5 51,-544.5 68,-544.5 68,-544.5 51,-544.5"/>
<polygon fill="none" stroke="#666666" points="50.5,-528 50.5,-577 67.5,-577 67.5,-528 50.5,-528"/>
</a>
</g>
</g>
<!-- Node4&#45;&gt;Node3 -->
<g id="edge3_Node000003_Node000004" class="edge">
<title>Node4&#45;&gt;Node3</title>
<g id="a_edge3_Node000003_Node000004"><a xlink:title=" ">
<path fill="none" stroke="#63b8ff" d="M59,-527.78C59,-517.32 59,-504.79 59,-493.23"/>
<polygon fill="none" stroke="#63b8ff" points="59,-493.21 55,-487.21 59,-481.21 63,-487.21 59,-493.21"/>
</a>
</g>
<text text-anchor="middle" x="88" y="-502" font-family="Ubuntu Mono" font-size="10.00" fill="grey"> +elements</text>
</g>
</g>
</svg>

<g id="navigator" transform="translate(0 0)" fill="#404254">
  <rect fill="#f2f5e9" fill-opacity="0.5" stroke="#606060" stroke-width=".5" x="0" y="0" width="60" height="60"/>
  <use id="zoomplus" xlink:href="#zoomPlus" x="17" y="9" onmousedown="handleZoom(evt,'in')"/>
  <use id="zoomminus" xlink:href="#zoomMin" x="42" y="9" onmousedown="handleZoom(evt,'out')"/>
  <use id="reset" xlink:href="#resetDef" x="30" y="36" onmousedown="handleReset()"/>
   <use id="arrowup" xlink:href="#arrowUp" x="0" y="0" onmousedown="handlePan(0,-1)"/>
  <use id="arrowright" xlink:href="#arrowRight" x="0" y="0" onmousedown="handlePan(1,0)"/>
  <use id="arrowdown" xlink:href="#arrowDown" x="0" y="0" onmousedown="handlePan(0,1)"/>
  <use id="arrowleft" xlink:href="#arrowLeft" x="0" y="0" onmousedown="handlePan(-1,0)"/>
</g>
<svg viewBox="0 0 15 15" width="100%" height="30px" preserveAspectRatio="xMaxYMin meet">
 <g id="arrow_out" transform="scale(0.3 0.3)">
  <a xlink:href="classVectorTable__coll__graph_org.svg" target="_base">
   <rect id="button" ry="5" rx="5" y="6" x="6" height="38" width="38"
        fill="#f2f5e9" fill-opacity="0.5" stroke="#606060" stroke-width="1.0"/>
   <path id="arrow"
     d="M 11.500037,31.436501 C 11.940474,20.09759 22.043105,11.32322 32.158766,21.979434 L 37.068811,17.246167 C 37.068811,17.246167 37.088388,32 37.088388,32 L 22.160133,31.978069 C 22.160133,31.978069 26.997745,27.140456 26.997745,27.140456 C 18.528582,18.264221 13.291696,25.230495 11.500037,31.436501 z"
     style="fill:#404040;"/>
  </a>
 </g>
</svg>

<style type='text/css'>
<![CDATA[
[data-mouse-over-selected='false'] { opacity: 0.7; }
[data-mouse-over-selected='true']  { opacity: 1.0; }
]]>
</style>
<script type="application/ecmascript"><![CDATA[
document.addEventListener('DOMContentLoaded', (event) => {
  highlightEdges();
  highlightAdjacentNodes();
});
]]></script>
</svg>
