<?xml version="1.0" encoding="UTF-8" standalone="no"?>
<!DOCTYPE svg PUBLIC "-//W3C//DTD SVG 1.1//EN"
 "http://www.w3.org/Graphics/SVG/1.1/DTD/svg11.dtd">
<!-- Generated by graphviz version 2.43.0 (0)
 -->
<!-- Title: NeuroMesh::getElecComptList Pages: 1 -->
<svg width="495pt" height="46pt"
 viewBox="0.00 0.00 495.00 46.00" xmlns="http://www.w3.org/2000/svg" xmlns:xlink="http://www.w3.org/1999/xlink">
<g id="graph0" class="graph" transform="scale(1 1) rotate(0) translate(4 42)">
<title>NeuroMesh::getElecComptList</title>
<!-- Node1 -->
<g id="Node000001" class="node">
<title>Node1</title>
<g id="a_Node000001"><a xlink:title=" ">
<polygon fill="#999999" stroke="#666666" points="487,-19 323,-19 323,0 487,0 487,-19"/>
<text text-anchor="middle" x="405" y="-7" font-family="Ubuntu Mono" font-size="10.00">NeuroMesh::getElecComptList</text>
</a>
</g>
</g>
<!-- Node2 -->
<g id="Node000002" class="node">
<title>Node2</title>
<g id="a_Node000002"><a xlink:href="classNeuroMesh.html#ad4b0daae8e17bb41b630d8d03296fe9d" target="_top" xlink:title=" ">
<polygon fill="white" stroke="#666666" points="287,-38 155,-38 155,-19 287,-19 287,-38"/>
<text text-anchor="middle" x="221" y="-26" font-family="Ubuntu Mono" font-size="10.00">NeuroMesh::getSubTree</text>
</a>
</g>
</g>
<!-- Node1&#45;&gt;Node2 -->
<g id="edge1_Node000001_Node000002" class="edge">
<title>Node1&#45;&gt;Node2</title>
<g id="a_edge1_Node000001_Node000002"><a xlink:title=" ">
<path fill="none" stroke="#63b8ff" d="M312.73,-19.03C304.1,-19.93 295.48,-20.83 287.17,-21.7"/>
<polygon fill="#63b8ff" stroke="#63b8ff" points="313.26,-22.49 322.85,-17.97 312.54,-15.53 313.26,-22.49"/>
</a>
</g>
</g>
<!-- Node3 -->
<g id="Node000003" class="node">
<title>Node3</title>
<g id="a_Node000003"><a xlink:href="classNeuroMesh.html#a131784a1f5af526113a98464ab4c4357" target="_top" xlink:title=" ">
<polygon fill="white" stroke="#666666" points="119,-19 0,-19 0,0 119,0 119,-19"/>
<text text-anchor="middle" x="59.5" y="-7" font-family="Ubuntu Mono" font-size="10.00">NeuroMesh::initCinfo</text>
</a>
</g>
</g>
<!-- Node1&#45;&gt;Node3 -->
<g id="edge3_Node000001_Node000003" class="edge">
<title>Node1&#45;&gt;Node3</title>
<g id="a_edge3_Node000001_Node000003"><a xlink:title=" ">
<path fill="none" stroke="#63b8ff" d="M312.51,-9.5C251.12,-9.5 172.07,-9.5 119.02,-9.5"/>
<polygon fill="#63b8ff" stroke="#63b8ff" points="312.6,-13 322.6,-9.5 312.6,-6 312.6,-13"/>
</a>
</g>
</g>
<!-- Node2&#45;&gt;Node3 -->
<g id="edge2_Node000002_Node000003" class="edge">
<title>Node2&#45;&gt;Node3</title>
<g id="a_edge2_Node000002_Node000003"><a xlink:title=" ">
<path fill="none" stroke="#63b8ff" d="M144.64,-19.52C136.06,-18.5 127.4,-17.47 119.08,-16.48"/>
<polygon fill="#63b8ff" stroke="#63b8ff" points="144.32,-23.01 154.67,-20.72 145.15,-16.06 144.32,-23.01"/>
</a>
</g>
</g>
</g>
</svg>
