<?xml version="1.0" encoding="UTF-8" standalone="no"?>
<!DOCTYPE svg PUBLIC "-//W3C//DTD SVG 1.1//EN"
 "http://www.w3.org/Graphics/SVG/1.1/DTD/svg11.dtd">
<!-- Generated by graphviz version 2.43.0 (0)
 -->
<!-- Title: Cinfo::getNumLookupFinfo Pages: 1 -->
<svg width="475pt" height="78pt"
 viewBox="0.00 0.00 475.00 77.98" xmlns="http://www.w3.org/2000/svg" xmlns:xlink="http://www.w3.org/1999/xlink">
<g id="graph0" class="graph" transform="scale(1 1) rotate(0) translate(4 73.98)">
<title>Cinfo::getNumLookupFinfo</title>
<!-- Node1 -->
<g id="Node000001" class="node">
<title>Node1</title>
<g id="a_Node000001"><a xlink:title=" ">
<polygon fill="#999999" stroke="#666666" points="467,-38 321,-38 321,-19 467,-19 467,-38"/>
<text text-anchor="middle" x="394" y="-26" font-family="Ubuntu Mono" font-size="10.00">Cinfo::getNumLookupFinfo</text>
</a>
</g>
</g>
<!-- Node1&#45;&gt;Node1 -->
<g id="edge6_Node000001_Node000001" class="edge">
<title>Node1&#45;&gt;Node1</title>
<g id="a_edge6_Node000001_Node000001"><a xlink:title=" ">
<path fill="none" stroke="#63b8ff" d="M425.81,-46.45C424.9,-51.82 414.3,-56 394,-56 363.79,-56 355.05,-46.73 367.8,-38.08"/>
<polygon fill="#63b8ff" stroke="#63b8ff" points="428.68,-44.44 420.2,-38.08 422.86,-48.34 428.68,-44.44"/>
</a>
</g>
</g>
<!-- Node2 -->
<g id="Node000002" class="node">
<title>Node2</title>
<g id="a_Node000002"><a xlink:href="namespacepymoose.html#a06c3f217d1fa8e01896f19be2fc6354d" target="_top" xlink:title="Get a map of field names to Finfo*.">
<polygon fill="white" stroke="#666666" points="127,-56 0,-56 0,-37 127,-37 127,-56"/>
<text text-anchor="middle" x="63.5" y="-44" font-family="Ubuntu Mono" font-size="10.00">pymoose::getFinfoDict</text>
</a>
</g>
</g>
<!-- Node1&#45;&gt;Node2 -->
<g id="edge1_Node000001_Node000002" class="edge">
<title>Node1&#45;&gt;Node2</title>
<g id="a_edge1_Node000001_Node000002"><a xlink:title=" ">
<path fill="none" stroke="#63b8ff" d="M362.57,-41.95C341.31,-50.59 312,-61 285,-65.5 222.65,-75.88 149.39,-65.08 104.98,-56.03"/>
<polygon fill="#63b8ff" stroke="#63b8ff" points="364.14,-45.09 372.02,-38.01 361.45,-38.62 364.14,-45.09"/>
</a>
</g>
</g>
<!-- Node3 -->
<g id="Node000003" class="node">
<title>Node3</title>
<g id="a_Node000003"><a xlink:href="classCinfo.html#a28d135a32244ab12066e5becb5d9fdcd" target="_top" xlink:title=" ">
<polygon fill="white" stroke="#666666" points="285,-38 163,-38 163,-19 285,-19 285,-38"/>
<text text-anchor="middle" x="224" y="-26" font-family="Ubuntu Mono" font-size="10.00">Cinfo::getLookupFinfo</text>
</a>
</g>
</g>
<!-- Node1&#45;&gt;Node3 -->
<g id="edge2_Node000001_Node000003" class="edge">
<title>Node1&#45;&gt;Node3</title>
<g id="a_edge2_Node000001_Node000003"><a xlink:title=" ">
<path fill="none" stroke="#63b8ff" d="M310.67,-28.5C302.03,-28.5 293.37,-28.5 285.04,-28.5"/>
<polygon fill="#63b8ff" stroke="#63b8ff" points="310.78,-32 320.78,-28.5 310.78,-25 310.78,-32"/>
</a>
</g>
</g>
<!-- Node4 -->
<g id="Node000004" class="node">
<title>Node4</title>
<g id="a_Node000004"><a xlink:href="testAsync_8cpp.html#ade22665845b65d460acd04732cb67bbe" target="_top" xlink:title=" ">
<polygon fill="white" stroke="#666666" points="108,-19 19,-19 19,0 108,0 108,-19"/>
<text text-anchor="middle" x="63.5" y="-7" font-family="Ubuntu Mono" font-size="10.00">testCinfoFields</text>
</a>
</g>
</g>
<!-- Node1&#45;&gt;Node4 -->
<g id="edge7_Node000001_Node000004" class="edge">
<title>Node1&#45;&gt;Node4</title>
<g id="a_edge7_Node000001_Node000004"><a xlink:title=" ">
<path fill="none" stroke="#63b8ff" d="M339.2,-17.14C321.97,-14.01 302.76,-11.05 285,-9.5 223.79,-4.16 152.66,-5.51 108.11,-7.27"/>
<polygon fill="#63b8ff" stroke="#63b8ff" points="338.62,-20.59 349.09,-18.99 339.91,-13.71 338.62,-20.59"/>
</a>
</g>
</g>
<!-- Node3&#45;&gt;Node2 -->
<g id="edge3_Node000003_Node000002" class="edge">
<title>Node3&#45;&gt;Node2</title>
<g id="a_edge3_Node000003_Node000002"><a xlink:title=" ">
<path fill="none" stroke="#63b8ff" d="M152.42,-36.52C143.97,-37.47 135.4,-38.45 127.07,-39.39"/>
<polygon fill="#63b8ff" stroke="#63b8ff" points="153.08,-39.96 162.63,-35.36 152.29,-33.01 153.08,-39.96"/>
</a>
</g>
</g>
<!-- Node3&#45;&gt;Node3 -->
<g id="edge4_Node000003_Node000003" class="edge">
<title>Node3&#45;&gt;Node3</title>
<g id="a_edge4_Node000003_Node000003"><a xlink:title=" ">
<path fill="none" stroke="#63b8ff" d="M253.87,-46.82C252.62,-52.01 242.66,-56 224,-56 195.56,-56 187.34,-46.73 199.34,-38.08"/>
<polygon fill="#63b8ff" stroke="#63b8ff" points="256.79,-44.88 248.66,-38.08 250.77,-48.47 256.79,-44.88"/>
</a>
</g>
</g>
<!-- Node3&#45;&gt;Node4 -->
<g id="edge5_Node000003_Node000004" class="edge">
<title>Node3&#45;&gt;Node4</title>
<g id="a_edge5_Node000003_Node000004"><a xlink:title=" ">
<path fill="none" stroke="#63b8ff" d="M152.37,-20.03C137.42,-18.24 122.06,-16.4 108.44,-14.77"/>
<polygon fill="#63b8ff" stroke="#63b8ff" points="152.28,-23.55 162.63,-21.26 153.11,-16.6 152.28,-23.55"/>
</a>
</g>
</g>
</g>
</svg>
