<?xml version="1.0" encoding="UTF-8" standalone="no"?>
<!DOCTYPE svg PUBLIC "-//W3C//DTD SVG 1.1//EN"
 "http://www.w3.org/Graphics/SVG/1.1/DTD/svg11.dtd">
<!-- Generated by graphviz version 2.43.0 (0)
 -->
<!-- Title: Neutral::parent Pages: 1 -->
<!--zoomable 486 -->

<svg id="main" version="1.1" xmlns="http://www.w3.org/2000/svg" xmlns:xlink="http://www.w3.org/1999/xlink" xml:space="preserve" onload="init(evt)">
<style type="text/css"><![CDATA[
.node, .edge {opacity: 0.7;}
.node.selected, .edge.selected {opacity: 1;}
.edge:hover path { stroke: red; }
.edge:hover polygon { stroke: red; fill: red; }
]]></style>

<defs>
  <circle id="rim" cx="0" cy="0" r="7"/>
  <circle id="rim2" cx="0" cy="0" r="3.5"/>
  <g id="zoomPlus">
    <use xlink:href="#rim" fill="#404040"><set attributeName="fill" to="#808080" begin="zoomplus.mouseover" end="zoomplus.mouseout"/></use>
    <path d="M-4,0h8M0,-4v8" fill="none" stroke="white" stroke-width="1.5" pointer-events="none"/>
  </g>
  <g id="zoomMin">
    <use xlink:href="#rim" fill="#404040"><set attributeName="fill" to="#808080" begin="zoomminus.mouseover" end="zoomminus.mouseout"/></use>
    <path d="M-4,0h8" fill="none" stroke="white" stroke-width="1.5" pointer-events="none"/>
  </g>
  <g id="arrowUp" transform="translate(30 24)">
    <use xlink:href="#rim"/>
    <path pointer-events="none" fill="none" stroke="white" stroke-width="1.5" d="M0,-3.0v7 M-2.5,-0.5L0,-3.0L2.5,-0.5"/>
  </g>
  <g id="arrowRight" transform="rotate(90) translate(36 -43)">
    <use xlink:href="#rim"/>
    <path pointer-events="none" fill="none" stroke="white" stroke-width="1.5" d="M0,-3.0v7 M-2.5,-0.5L0,-3.0L2.5,-0.5"/>
  </g>
  <g id="arrowDown" transform="rotate(180) translate(-30 -48)">
    <use xlink:href="#rim"/>
    <path pointer-events="none" fill="none" stroke="white" stroke-width="1.5" d="M0,-3.0v7 M-2.5,-0.5L0,-3.0L2.5,-0.5"/>
  </g>
  <g id="arrowLeft" transform="rotate(270) translate(-36 17)">
    <use xlink:href="#rim"/>
    <path pointer-events="none" fill="none" stroke="white" stroke-width="1.5" d="M0,-3.0v7 M-2.5,-0.5L0,-3.0L2.5,-0.5"/>
  </g>
  <g id="resetDef">
    <use xlink:href="#rim2" fill="#404040"><set attributeName="fill" to="#808080" begin="reset.mouseover" end="reset.mouseout"/></use>
  </g>
</defs>
<script type="application/ecmascript">
var viewWidth = 970;
var viewHeight = 486;
var sectionId = 'dynsection-64';
</script>
<script type="application/ecmascript" xlink:href="svg.min.js"/>
<svg id="graph" class="graph">
<g id="viewport">
<title>Neutral::parent</title>
<!-- Node1 -->
<g id="Node000001" class="node">
<title>Node1</title>
<g id="a_Node000001"><a xlink:title=" ">
<polygon fill="#999999" stroke="#666666" points="90,-319 0,-319 0,-300 90,-300 90,-319"/>
<text text-anchor="middle" x="45" y="-307" font-family="Ubuntu Mono" font-size="10.00">Neutral::parent</text>
</a>
</g>
</g>
<!-- Node2 -->
<g id="Node000002" class="node">
<title>Node2</title>
<g id="a_Node000002"><a xlink:href="classEref.html#ab305a4ab972b50443b7d35cfd516861a" target="_top" xlink:title=" ">
<polygon fill="white" stroke="#666666" points="203.5,-440 138.5,-440 138.5,-421 203.5,-421 203.5,-440"/>
<text text-anchor="middle" x="171" y="-428" font-family="Ubuntu Mono" font-size="10.00">Eref::objId</text>
</a>
</g>
</g>
<!-- Node1&#45;&gt;Node2 -->
<g id="edge1_Node000001_Node000002" class="edge">
<title>Node1&#45;&gt;Node2</title>
<g id="a_edge1_Node000001_Node000002"><a xlink:title=" ">
<path fill="none" stroke="#63b8ff" d="M56.15,-319.4C77.32,-340.07 126.43,-387.99 152.7,-413.62"/>
<polygon fill="#63b8ff" stroke="#63b8ff" points="150.46,-416.32 160.06,-420.8 155.35,-411.31 150.46,-416.32"/>
</a>
</g>
</g>
<!-- Node5 -->
<g id="Node000005" class="node">
<title>Node5</title>
<g id="a_Node000005"><a xlink:href="classNeutral.html#a8a2d75efefccf058e1dbb02c5a609dbc" target="_top" xlink:title=" ">
<polygon fill="white" stroke="#666666" points="216,-207 126,-207 126,-188 216,-188 216,-207"/>
<text text-anchor="middle" x="171" y="-195" font-family="Ubuntu Mono" font-size="10.00">Neutral::parent</text>
</a>
</g>
</g>
<!-- Node1&#45;&gt;Node5 -->
<g id="edge4_Node000001_Node000005" class="edge">
<title>Node1&#45;&gt;Node5</title>
<g id="a_edge4_Node000001_Node000005"><a xlink:title=" ">
<path fill="none" stroke="#63b8ff" d="M56.57,-299.95C77.71,-280.86 125.42,-237.77 151.73,-214.01"/>
<polygon fill="#63b8ff" stroke="#63b8ff" points="154.38,-216.33 159.45,-207.02 149.69,-211.13 154.38,-216.33"/>
</a>
</g>
</g>
<!-- Node3 -->
<g id="Node000003" class="node">
<title>Node3</title>
<g id="a_Node000003"><a xlink:href="classElement.html#a934907c01faf58e21f545d53a54cfefc" target="_top" xlink:title=" ">
<polygon fill="white" stroke="#666666" points="343,-478 271,-478 271,-459 343,-459 343,-478"/>
<text text-anchor="middle" x="307" y="-466" font-family="Ubuntu Mono" font-size="10.00">Element::id</text>
</a>
</g>
</g>
<!-- Node2&#45;&gt;Node3 -->
<g id="edge2_Node000002_Node000003" class="edge">
<title>Node2&#45;&gt;Node3</title>
<g id="a_edge2_Node000002_Node000003"><a xlink:title=" ">
<path fill="none" stroke="#63b8ff" d="M203.76,-439.51C221.29,-444.48 243.32,-450.72 262.44,-456.15"/>
<polygon fill="#63b8ff" stroke="#63b8ff" points="261.55,-459.53 272.13,-458.89 263.46,-452.8 261.55,-459.53"/>
</a>
</g>
</g>
<!-- Node4 -->
<g id="Node000004" class="node">
<title>Node4</title>
<g id="a_Node000004"><a xlink:href="classObjId.html#ab6b120d314aab5abc3ea8bb7ead5ae41" target="_top" xlink:title=" ">
<polygon fill="white" stroke="#666666" points="526,-467 452,-467 452,-448 526,-448 526,-467"/>
<text text-anchor="middle" x="489" y="-455" font-family="Ubuntu Mono" font-size="10.00">ObjId::ObjId</text>
</a>
</g>
</g>
<!-- Node2&#45;&gt;Node4 -->
<g id="edge3_Node000002_Node000004" class="edge">
<title>Node2&#45;&gt;Node4</title>
<g id="a_edge3_Node000002_Node000004"><a xlink:title=" ">
<path fill="none" stroke="#63b8ff" d="M203.75,-433.21C259.9,-438.01 376.95,-448.01 441.97,-453.57"/>
<polygon fill="#63b8ff" stroke="#63b8ff" points="441.68,-457.05 451.94,-454.42 442.27,-450.08 441.68,-457.05"/>
</a>
</g>
</g>
<!-- Node6 -->
<g id="Node000006" class="node">
<title>Node6</title>
<g id="a_Node000006"><a xlink:href="classObjId.html#ad87d6d712e4bceb381d1d324aa137d6e" target="_top" xlink:title=" ">
<polygon fill="white" stroke="#666666" points="705,-208 616,-208 616,-189 705,-189 705,-208"/>
<text text-anchor="middle" x="660.5" y="-196" font-family="Ubuntu Mono" font-size="10.00">ObjId::element</text>
</a>
</g>
</g>
<!-- Node5&#45;&gt;Node6 -->
<g id="edge5_Node000005_Node000006" class="edge">
<title>Node5&#45;&gt;Node6</title>
<g id="a_edge5_Node000005_Node000006"><a xlink:title=" ">
<path fill="none" stroke="#63b8ff" d="M216.12,-197.59C305.67,-197.77 508.48,-198.19 605.64,-198.39"/>
<polygon fill="#63b8ff" stroke="#63b8ff" points="605.82,-201.89 615.83,-198.41 605.84,-194.89 605.82,-201.89"/>
</a>
</g>
</g>
<!-- Node9 -->
<g id="Node000009" class="node">
<title>Node9</title>
<g id="a_Node000009"><a xlink:href="classElement.html#a3c07cf6355e6127827ce67682e3bb2a0" target="_top" xlink:title=" ">
<polygon fill="white" stroke="#666666" points="362,-301 252,-301 252,-282 362,-282 362,-301"/>
<text text-anchor="middle" x="307" y="-289" font-family="Ubuntu Mono" font-size="10.00">Element::findCaller</text>
</a>
</g>
</g>
<!-- Node5&#45;&gt;Node9 -->
<g id="edge8_Node000005_Node000009" class="edge">
<title>Node5&#45;&gt;Node9</title>
<g id="a_edge8_Node000005_Node000009"><a xlink:title=" ">
<path fill="none" stroke="#63b8ff" d="M185.84,-207.21C209.13,-223.54 256.34,-256.66 284.15,-276.17"/>
<polygon fill="#63b8ff" stroke="#63b8ff" points="282.24,-279.11 292.44,-281.99 286.26,-273.38 282.24,-279.11"/>
</a>
</g>
</g>
<!-- Node13 -->
<g id="Node000013" class="node">
<title>Node13</title>
<g id="a_Node000013"><a xlink:href="classMsg.html#a1a57001709e44ab056a704c24760c105" target="_top" xlink:title=" ">
<polygon fill="white" stroke="#666666" points="528.5,-245 449.5,-245 449.5,-226 528.5,-226 528.5,-245"/>
<text text-anchor="middle" x="489" y="-233" font-family="Ubuntu Mono" font-size="10.00">Msg::getMsg</text>
</a>
</g>
</g>
<!-- Node5&#45;&gt;Node13 -->
<g id="edge23_Node000005_Node000013" class="edge">
<title>Node5&#45;&gt;Node13</title>
<g id="a_edge23_Node000005_Node000013"><a xlink:title=" ">
<path fill="none" stroke="#63b8ff" d="M216.34,-205.84C227.92,-207.86 240.41,-209.9 252,-211.5 316.61,-220.43 391.61,-227.49 439.41,-231.59"/>
<polygon fill="#63b8ff" stroke="#63b8ff" points="439.21,-235.08 449.47,-232.44 439.81,-228.11 439.21,-235.08"/>
</a>
</g>
</g>
<!-- Node19 -->
<g id="Node000019" class="node">
<title>Node19</title>
<g id="a_Node000019"><a xlink:href="classCinfo.html#a7642d2a9ffe54cc8008df39de171ab63" target="_top" xlink:title=" ">
<polygon fill="white" stroke="#666666" points="352,-169 262,-169 262,-150 352,-150 352,-169"/>
<text text-anchor="middle" x="307" y="-157" font-family="Ubuntu Mono" font-size="10.00">Cinfo::findFinfo</text>
</a>
</g>
</g>
<!-- Node5&#45;&gt;Node19 -->
<g id="edge20_Node000005_Node000019" class="edge">
<title>Node5&#45;&gt;Node19</title>
<g id="a_edge20_Node000005_Node000019"><a xlink:title=" ">
<path fill="none" stroke="#63b8ff" d="M205.81,-187.91C223.03,-183.03 244.16,-177.04 262.57,-171.82"/>
<polygon fill="#63b8ff" stroke="#63b8ff" points="263.53,-175.18 272.2,-169.09 261.62,-168.45 263.53,-175.18"/>
</a>
</g>
</g>
<!-- Node20 -->
<g id="Node000020" class="node">
<title>Node20</title>
<g id="a_Node000020"><a xlink:href="classMsg.html#a326ed96ece35f632b16de59838db6c29" target="_top" xlink:title=" ">
<polygon fill="white" stroke="#666666" points="360,-132 254,-132 254,-113 360,-113 360,-132"/>
<text text-anchor="middle" x="307" y="-120" font-family="Ubuntu Mono" font-size="10.00">Msg::findOtherEnd</text>
</a>
</g>
</g>
<!-- Node5&#45;&gt;Node20 -->
<g id="edge21_Node000005_Node000020" class="edge">
<title>Node5&#45;&gt;Node20</title>
<g id="a_edge21_Node000005_Node000020"><a xlink:title=" ">
<path fill="none" stroke="#63b8ff" d="M183.22,-187.84C198.1,-175.45 225.55,-153.95 252,-140.5 255.37,-138.79 258.94,-137.18 262.57,-135.7"/>
<polygon fill="#63b8ff" stroke="#63b8ff" points="264.13,-138.85 272.24,-132.03 261.65,-132.3 264.13,-138.85"/>
</a>
</g>
</g>
<!-- Node21 -->
<g id="Node000021" class="node">
<title>Node21</title>
<g id="a_Node000021"><a xlink:href="classDestFinfo.html#a6efef23ddcfbaef03eca8aa75fdd98cd" target="_top" xlink:title=" ">
<polygon fill="white" stroke="#666666" points="356.5,-95 257.5,-95 257.5,-76 356.5,-76 356.5,-95"/>
<text text-anchor="middle" x="307" y="-83" font-family="Ubuntu Mono" font-size="10.00">DestFinfo::getFid</text>
</a>
</g>
</g>
<!-- Node5&#45;&gt;Node21 -->
<g id="edge22_Node000005_Node000021" class="edge">
<title>Node5&#45;&gt;Node21</title>
<g id="a_edge22_Node000005_Node000021"><a xlink:title=" ">
<path fill="none" stroke="#63b8ff" d="M177.74,-187.72C189.37,-168.75 217.54,-126.76 252,-103.5 254.26,-101.97 256.67,-100.56 259.16,-99.27"/>
<polygon fill="#63b8ff" stroke="#63b8ff" points="260.78,-102.38 268.43,-95.05 257.88,-96 260.78,-102.38"/>
</a>
</g>
</g>
<!-- Node22 -->
<g id="Node000022" class="node">
<title>Node22</title>
<g id="a_Node000022"><a xlink:href="classId.html#ac094968605676d63b55ca33b7e318948" target="_top" xlink:title=" ">
<polygon fill="white" stroke="#666666" points="509.5,-38 468.5,-38 468.5,-19 509.5,-19 509.5,-38"/>
<text text-anchor="middle" x="489" y="-26" font-family="Ubuntu Mono" font-size="10.00">Id::Id</text>
</a>
</g>
</g>
<!-- Node5&#45;&gt;Node22 -->
<g id="edge24_Node000005_Node000022" class="edge">
<title>Node5&#45;&gt;Node22</title>
<g id="a_edge24_Node000005_Node000022"><a xlink:title=" ">
<path fill="none" stroke="#63b8ff" d="M174.75,-187.96C182.39,-163.28 206.42,-97.09 252,-66.5 315.75,-23.71 410.62,-22.92 458.33,-25.77"/>
<polygon fill="#63b8ff" stroke="#63b8ff" points="458.09,-29.27 468.31,-26.47 458.58,-22.28 458.09,-29.27"/>
</a>
</g>
</g>
<!-- Node23 -->
<g id="Node000023" class="node">
<title>Node23</title>
<g id="a_Node000023"><a xlink:href="classObjId.html#aad3d714ee57757ed3754a58edc9ad4a9" target="_top" xlink:title=" ">
<polygon fill="white" stroke="#666666" points="344,-19 270,-19 270,0 344,0 344,-19"/>
<text text-anchor="middle" x="307" y="-7" font-family="Ubuntu Mono" font-size="10.00">ObjId::ObjId</text>
</a>
</g>
</g>
<!-- Node5&#45;&gt;Node23 -->
<g id="edge25_Node000005_Node000023" class="edge">
<title>Node5&#45;&gt;Node23</title>
<g id="a_edge25_Node000005_Node000023"><a xlink:title=" ">
<path fill="none" stroke="#63b8ff" d="M174.18,-187.99C180.96,-160.46 204.13,-79.7 252,-33.5 255.97,-29.67 260.65,-26.39 265.57,-23.6"/>
<polygon fill="#63b8ff" stroke="#63b8ff" points="267.21,-26.69 274.59,-19.09 264.08,-20.43 267.21,-26.69"/>
</a>
</g>
</g>
<!-- Node24 -->
<g id="Node000024" class="node">
<title>Node24</title>
<g id="a_Node000024"><a xlink:href="classObjId.html#a61e59651f6ea4b95b1e81b3b8c2801d0" target="_top" xlink:title=" ">
<polygon fill="white" stroke="#666666" points="357.5,-393 256.5,-393 256.5,-374 357.5,-374 357.5,-393"/>
<text text-anchor="middle" x="307" y="-381" font-family="Ubuntu Mono" font-size="10.00">ObjId::operator!=</text>
</a>
</g>
</g>
<!-- Node5&#45;&gt;Node24 -->
<g id="edge27_Node000005_Node000024" class="edge">
<title>Node5&#45;&gt;Node24</title>
<g id="a_edge27_Node000005_Node000024"><a xlink:title=" ">
<path fill="none" stroke="#63b8ff" d="M175.34,-207.18C184.42,-232.44 211.6,-301.49 252,-346.5 259.65,-355.02 269.65,-362.57 278.96,-368.59"/>
<polygon fill="#63b8ff" stroke="#63b8ff" points="277.22,-371.63 287.57,-373.87 280.88,-365.66 277.22,-371.63"/>
</a>
</g>
</g>
<!-- Node26 -->
<g id="Node000026" class="node">
<title>Node26</title>
<g id="a_Node000026"><a xlink:href="classId.html#a38206d79367649ab0056b93e6da3b789" target="_top" xlink:title=" ">
<polygon fill="white" stroke="#666666" points="351.5,-338 262.5,-338 262.5,-319 351.5,-319 351.5,-338"/>
<text text-anchor="middle" x="307" y="-326" font-family="Ubuntu Mono" font-size="10.00">Id::operator==</text>
</a>
</g>
</g>
<!-- Node5&#45;&gt;Node26 -->
<g id="edge29_Node000005_Node000026" class="edge">
<title>Node5&#45;&gt;Node26</title>
<g id="a_edge29_Node000005_Node000026"><a xlink:title=" ">
<path fill="none" stroke="#63b8ff" d="M176.32,-207.11C186.46,-228.58 213.79,-280.79 252,-309.5 254.46,-311.35 257.12,-313.03 259.89,-314.56"/>
<polygon fill="#63b8ff" stroke="#63b8ff" points="258.49,-317.77 269.02,-318.92 261.5,-311.45 258.49,-317.77"/>
</a>
</g>
</g>
<!-- Node7 -->
<g id="Node000007" class="node">
<title>Node7</title>
<g id="a_Node000007"><a xlink:href="classId.html#a574e06330597163aef0ea4c99de7ff4a" target="_top" xlink:title="Synonym for Id::operator()()">
<polygon fill="white" stroke="#666666" points="831,-208 759,-208 759,-189 831,-189 831,-208"/>
<text text-anchor="middle" x="795" y="-196" font-family="Ubuntu Mono" font-size="10.00">Id::element</text>
</a>
</g>
</g>
<!-- Node6&#45;&gt;Node7 -->
<g id="edge6_Node000006_Node000007" class="edge">
<title>Node6&#45;&gt;Node7</title>
<g id="a_edge6_Node000006_Node000007"><a xlink:title=" ">
<path fill="none" stroke="#63b8ff" d="M705.25,-198.5C719.07,-198.5 734.37,-198.5 748.31,-198.5"/>
<polygon fill="#63b8ff" stroke="#63b8ff" points="748.67,-202 758.67,-198.5 748.67,-195 748.67,-202"/>
</a>
</g>
</g>
<!-- Node8 -->
<g id="Node000008" class="node">
<title>Node8</title>
<g id="a_Node000008"><a xlink:href="classId.html#a2d5e7b4d5d918aadfe45102691c2be27" target="_top" xlink:title=" ">
<polygon fill="white" stroke="#666666" points="962,-208 885,-208 885,-189 962,-189 962,-208"/>
<text text-anchor="middle" x="923.5" y="-196" font-family="Ubuntu Mono" font-size="10.00">Id::elements</text>
</a>
</g>
</g>
<!-- Node7&#45;&gt;Node8 -->
<g id="edge7_Node000007_Node000008" class="edge">
<title>Node7&#45;&gt;Node8</title>
<g id="a_edge7_Node000007_Node000008"><a xlink:title=" ">
<path fill="none" stroke="#63b8ff" d="M831.24,-198.5C844.65,-198.5 860.17,-198.5 874.56,-198.5"/>
<polygon fill="#63b8ff" stroke="#63b8ff" points="874.8,-202 884.8,-198.5 874.8,-195 874.8,-202"/>
</a>
</g>
</g>
<!-- Node9&#45;&gt;Node4 -->
<g id="edge19_Node000009_Node000004" class="edge">
<title>Node9&#45;&gt;Node4</title>
<g id="a_edge19_Node000009_Node000004"><a xlink:title=" ">
<path fill="none" stroke="#63b8ff" d="M350.55,-301.03C354.79,-303.28 358.73,-306.06 362,-309.5 403.28,-352.97 354.09,-398.68 398,-439.5 409.77,-450.45 426.25,-455.56 441.89,-457.74"/>
<polygon fill="#63b8ff" stroke="#63b8ff" points="441.68,-461.24 451.99,-458.78 442.4,-454.27 441.68,-461.24"/>
</a>
</g>
</g>
<!-- Node10 -->
<g id="Node000010" class="node">
<title>Node10</title>
<g id="a_Node000010"><a xlink:href="classMsg.html#a5be9f4dd643f5f662e8fb3c029273390" target="_top" xlink:title=" ">
<polygon fill="white" stroke="#666666" points="516.5,-393 461.5,-393 461.5,-374 516.5,-374 516.5,-393"/>
<text text-anchor="middle" x="489" y="-381" font-family="Ubuntu Mono" font-size="10.00">Msg::e1</text>
</a>
</g>
</g>
<!-- Node9&#45;&gt;Node10 -->
<g id="edge9_Node000009_Node000010" class="edge">
<title>Node9&#45;&gt;Node10</title>
<g id="a_edge9_Node000009_Node000010"><a xlink:title=" ">
<path fill="none" stroke="#63b8ff" d="M347.35,-301.11C352.57,-303.36 357.62,-306.12 362,-309.5 385.14,-327.33 373.88,-348.01 398,-364.5 413.5,-375.1 433.75,-379.97 451.12,-382.14"/>
<polygon fill="#63b8ff" stroke="#63b8ff" points="451.19,-385.66 461.49,-383.17 451.88,-378.7 451.19,-385.66"/>
</a>
</g>
</g>
<!-- Node11 -->
<g id="Node000011" class="node">
<title>Node11</title>
<g id="a_Node000011"><a xlink:href="classMsg.html#a893ed6b44cd4c529f0f10af38ae6743a" target="_top" xlink:title=" ">
<polygon fill="white" stroke="#666666" points="516.5,-356 461.5,-356 461.5,-337 516.5,-337 516.5,-356"/>
<text text-anchor="middle" x="489" y="-344" font-family="Ubuntu Mono" font-size="10.00">Msg::e2</text>
</a>
</g>
</g>
<!-- Node9&#45;&gt;Node11 -->
<g id="edge10_Node000009_Node000011" class="edge">
<title>Node9&#45;&gt;Node11</title>
<g id="a_edge10_Node000009_Node000011"><a xlink:title=" ">
<path fill="none" stroke="#63b8ff" d="M339.12,-301.04C346.68,-303.58 354.7,-306.47 362,-309.5 378.53,-316.35 381.11,-321.6 398,-327.5 415.11,-333.47 434.73,-337.88 451.27,-340.94"/>
<polygon fill="#63b8ff" stroke="#63b8ff" points="450.67,-344.39 461.13,-342.67 451.89,-337.5 450.67,-344.39"/>
</a>
</g>
</g>
<!-- Node12 -->
<g id="Node000012" class="node">
<title>Node12</title>
<g id="a_Node000012"><a xlink:href="classElement.html#a0f7aa6c77f30cb8865cdd0a0dde03854" target="_top" xlink:title=" ">
<polygon fill="white" stroke="#666666" points="548,-319 430,-319 430,-300 548,-300 548,-319"/>
<text text-anchor="middle" x="489" y="-307" font-family="Ubuntu Mono" font-size="10.00">Element::findBinding</text>
</a>
</g>
</g>
<!-- Node9&#45;&gt;Node12 -->
<g id="edge11_Node000009_Node000012" class="edge">
<title>Node9&#45;&gt;Node12</title>
<g id="a_edge11_Node000009_Node000012"><a xlink:title=" ">
<path fill="none" stroke="#63b8ff" d="M362.01,-296.9C380.18,-298.72 400.69,-300.77 419.81,-302.68"/>
<polygon fill="#63b8ff" stroke="#63b8ff" points="419.66,-306.18 429.96,-303.7 420.36,-299.22 419.66,-306.18"/>
</a>
</g>
</g>
<!-- Node9&#45;&gt;Node13 -->
<g id="edge12_Node000009_Node000013" class="edge">
<title>Node9&#45;&gt;Node13</title>
<g id="a_edge12_Node000009_Node000013"><a xlink:title=" ">
<path fill="none" stroke="#63b8ff" d="M327.59,-281.87C345.54,-273.37 373.04,-261.18 398,-253.5 411.23,-249.43 425.84,-246.05 439.38,-243.36"/>
<polygon fill="#63b8ff" stroke="#63b8ff" points="440.31,-246.75 449.48,-241.44 439,-239.87 440.31,-246.75"/>
</a>
</g>
</g>
<!-- Node17 -->
<g id="Node000017" class="node">
<title>Node17</title>
<g id="a_Node000017"><a xlink:href="classMsgFuncBinding.html#ad0172d166d6629ed092500ea64473eb5" target="_top" xlink:title=" ">
<polygon fill="white" stroke="#666666" points="580,-282 398,-282 398,-263 580,-263 580,-282"/>
<text text-anchor="middle" x="489" y="-270" font-family="Ubuntu Mono" font-size="10.00">MsgFuncBinding::MsgFuncBinding</text>
</a>
</g>
</g>
<!-- Node9&#45;&gt;Node17 -->
<g id="edge17_Node000009_Node000017" class="edge">
<title>Node9&#45;&gt;Node17</title>
<g id="a_edge17_Node000009_Node000017"><a xlink:title=" ">
<path fill="none" stroke="#63b8ff" d="M362.01,-285.8C370.21,-284.93 378.89,-284.02 387.7,-283.09"/>
<polygon fill="#63b8ff" stroke="#63b8ff" points="388.11,-286.56 397.68,-282.03 387.37,-279.6 388.11,-286.56"/>
</a>
</g>
</g>
<!-- Node14 -->
<g id="Node000014" class="node">
<title>Node14</title>
<g id="a_Node000014"><a xlink:href="classObjId.html#a1e5933713d6a73550b0923cf63f5bfd8" target="_top" xlink:title=" ">
<polygon fill="white" stroke="#666666" points="695.5,-245 625.5,-245 625.5,-226 695.5,-226 695.5,-245"/>
<text text-anchor="middle" x="660.5" y="-233" font-family="Ubuntu Mono" font-size="10.00">ObjId::data</text>
</a>
</g>
</g>
<!-- Node13&#45;&gt;Node14 -->
<g id="edge13_Node000013_Node000014" class="edge">
<title>Node13&#45;&gt;Node14</title>
<g id="a_edge13_Node000013_Node000014"><a xlink:title=" ">
<path fill="none" stroke="#63b8ff" d="M528.89,-235.5C554.6,-235.5 588.37,-235.5 615.13,-235.5"/>
<polygon fill="#63b8ff" stroke="#63b8ff" points="615.39,-239 625.39,-235.5 615.39,-232 615.39,-239"/>
</a>
</g>
</g>
<!-- Node14&#45;&gt;Node7 -->
<g id="edge15_Node000014_Node000007" class="edge">
<title>Node14&#45;&gt;Node7</title>
<g id="a_edge15_Node000014_Node000007"><a xlink:title=" ">
<path fill="none" stroke="#63b8ff" d="M695.62,-225.97C712.03,-221.39 731.91,-215.84 749.49,-210.93"/>
<polygon fill="#63b8ff" stroke="#63b8ff" points="750.84,-214.19 759.53,-208.12 748.96,-207.44 750.84,-214.19"/>
</a>
</g>
</g>
<!-- Node15 -->
<g id="Node000015" class="node">
<title>Node15</title>
<g id="a_Node000015"><a xlink:href="classElement.html#a1978a0a584f1b10ea4a7c67e69880042" target="_top" xlink:title=" ">
<polygon fill="white" stroke="#666666" points="837.5,-245 752.5,-245 752.5,-226 837.5,-226 837.5,-245"/>
<text text-anchor="middle" x="795" y="-233" font-family="Ubuntu Mono" font-size="10.00">Element::data</text>
</a>
</g>
</g>
<!-- Node14&#45;&gt;Node15 -->
<g id="edge14_Node000014_Node000015" class="edge">
<title>Node14&#45;&gt;Node15</title>
<g id="a_edge14_Node000014_Node000015"><a xlink:title=" ">
<path fill="none" stroke="#63b8ff" d="M695.62,-235.5C709.84,-235.5 726.66,-235.5 742.33,-235.5"/>
<polygon fill="#63b8ff" stroke="#63b8ff" points="742.43,-239 752.43,-235.5 742.43,-232 742.43,-239"/>
</a>
</g>
</g>
<!-- Node16 -->
<g id="Node000016" class="node">
<title>Node16</title>
<g id="a_Node000016"><a xlink:href="classElement.html#a73a0e468a3d6cfd6475fff4a56459075" target="_top" xlink:title=" ">
<polygon fill="white" stroke="#666666" points="849,-282 741,-282 741,-263 849,-263 849,-282"/>
<text text-anchor="middle" x="795" y="-270" font-family="Ubuntu Mono" font-size="10.00">Element::rawIndex</text>
</a>
</g>
</g>
<!-- Node14&#45;&gt;Node16 -->
<g id="edge16_Node000014_Node000016" class="edge">
<title>Node14&#45;&gt;Node16</title>
<g id="a_edge16_Node000014_Node000016"><a xlink:title=" ">
<path fill="none" stroke="#63b8ff" d="M695.62,-245.03C712.03,-249.61 731.91,-255.16 749.49,-260.07"/>
<polygon fill="#63b8ff" stroke="#63b8ff" points="748.96,-263.56 759.53,-262.88 750.84,-256.81 748.96,-263.56"/>
</a>
</g>
</g>
<!-- Node18 -->
<g id="Node000018" class="node">
<title>Node18</title>
<g id="a_Node000018"><a xlink:href="classObjId.html#a02a8374ceddca0d8f4a672005aef8ffc" target="_top" xlink:title=" ">
<polygon fill="white" stroke="#666666" points="697.5,-282 623.5,-282 623.5,-263 697.5,-263 697.5,-282"/>
<text text-anchor="middle" x="660.5" y="-270" font-family="Ubuntu Mono" font-size="10.00">ObjId::ObjId</text>
</a>
</g>
</g>
<!-- Node17&#45;&gt;Node18 -->
<g id="edge18_Node000017_Node000018" class="edge">
<title>Node17&#45;&gt;Node18</title>
<g id="a_edge18_Node000017_Node000018"><a xlink:title=" ">
<path fill="none" stroke="#63b8ff" d="M580.21,-272.5C591.71,-272.5 603.08,-272.5 613.46,-272.5"/>
<polygon fill="#63b8ff" stroke="#63b8ff" points="613.48,-276 623.48,-272.5 613.48,-269 613.48,-276"/>
</a>
</g>
</g>
<!-- Node23&#45;&gt;Node22 -->
<g id="edge26_Node000023_Node000022" class="edge">
<title>Node23&#45;&gt;Node22</title>
<g id="a_edge26_Node000023_Node000022"><a xlink:title=" ">
<path fill="none" stroke="#63b8ff" d="M344.43,-13.34C377.87,-16.88 426.85,-22.04 458.07,-25.34"/>
<polygon fill="#63b8ff" stroke="#63b8ff" points="458.01,-28.85 468.32,-26.42 458.74,-21.89 458.01,-28.85"/>
</a>
</g>
</g>
<!-- Node25 -->
<g id="Node000025" class="node">
<title>Node25</title>
<g id="a_Node000025"><a xlink:href="classId.html#a6a4a7d5c9e8524644febc6b6e8dc1ab9" target="_top" xlink:title=" ">
<polygon fill="white" stroke="#666666" points="531.5,-430 446.5,-430 446.5,-411 531.5,-411 531.5,-430"/>
<text text-anchor="middle" x="489" y="-418" font-family="Ubuntu Mono" font-size="10.00">Id::operator!=</text>
</a>
</g>
</g>
<!-- Node24&#45;&gt;Node25 -->
<g id="edge28_Node000024_Node000025" class="edge">
<title>Node24&#45;&gt;Node25</title>
<g id="a_edge28_Node000024_Node000025"><a xlink:title=" ">
<path fill="none" stroke="#63b8ff" d="M354.35,-393.03C379.46,-398.19 410.54,-404.58 436.41,-409.9"/>
<polygon fill="#63b8ff" stroke="#63b8ff" points="435.91,-413.37 446.41,-411.95 437.32,-406.51 435.91,-413.37"/>
</a>
</g>
</g>
</g>
</svg>

<g id="navigator" transform="translate(0 0)" fill="#404254">
  <rect fill="#f2f5e9" fill-opacity="0.5" stroke="#606060" stroke-width=".5" x="0" y="0" width="60" height="60"/>
  <use id="zoomplus" xlink:href="#zoomPlus" x="17" y="9" onmousedown="handleZoom(evt,'in')"/>
  <use id="zoomminus" xlink:href="#zoomMin" x="42" y="9" onmousedown="handleZoom(evt,'out')"/>
  <use id="reset" xlink:href="#resetDef" x="30" y="36" onmousedown="handleReset()"/>
   <use id="arrowup" xlink:href="#arrowUp" x="0" y="0" onmousedown="handlePan(0,-1)"/>
  <use id="arrowright" xlink:href="#arrowRight" x="0" y="0" onmousedown="handlePan(1,0)"/>
  <use id="arrowdown" xlink:href="#arrowDown" x="0" y="0" onmousedown="handlePan(0,1)"/>
  <use id="arrowleft" xlink:href="#arrowLeft" x="0" y="0" onmousedown="handlePan(-1,0)"/>
</g>
<svg viewBox="0 0 15 15" width="100%" height="30px" preserveAspectRatio="xMaxYMin meet">
 <g id="arrow_out" transform="scale(0.3 0.3)">
  <a xlink:href="classNeutral_adb4bf1f5f07dcc7daf38fec7c4d0278d_cgraph_org.svg" target="_base">
   <rect id="button" ry="5" rx="5" y="6" x="6" height="38" width="38"
        fill="#f2f5e9" fill-opacity="0.5" stroke="#606060" stroke-width="1.0"/>
   <path id="arrow"
     d="M 11.500037,31.436501 C 11.940474,20.09759 22.043105,11.32322 32.158766,21.979434 L 37.068811,17.246167 C 37.068811,17.246167 37.088388,32 37.088388,32 L 22.160133,31.978069 C 22.160133,31.978069 26.997745,27.140456 26.997745,27.140456 C 18.528582,18.264221 13.291696,25.230495 11.500037,31.436501 z"
     style="fill:#404040;"/>
  </a>
 </g>
</svg>

<style type='text/css'>
<![CDATA[
[data-mouse-over-selected='false'] { opacity: 0.7; }
[data-mouse-over-selected='true']  { opacity: 1.0; }
]]>
</style>
<script type="application/ecmascript"><![CDATA[
document.addEventListener('DOMContentLoaded', (event) => {
  highlightEdges();
  highlightAdjacentNodes();
});
]]></script>
</svg>
