<?xml version="1.0" encoding="UTF-8" standalone="no"?>
<!DOCTYPE svg PUBLIC "-//W3C//DTD SVG 1.1//EN"
 "http://www.w3.org/Graphics/SVG/1.1/DTD/svg11.dtd">
<!-- Generated by graphviz version 2.43.0 (0)
 -->
<!-- Title: moose::MooseParser::MooseParser Pages: 1 -->
<!--zoomable 354 -->

<svg id="main" version="1.1" xmlns="http://www.w3.org/2000/svg" xmlns:xlink="http://www.w3.org/1999/xlink" xml:space="preserve" onload="init(evt)">
<style type="text/css"><![CDATA[
.node, .edge {opacity: 0.7;}
.node.selected, .edge.selected {opacity: 1;}
.edge:hover path { stroke: red; }
.edge:hover polygon { stroke: red; fill: red; }
]]></style>

<defs>
  <circle id="rim" cx="0" cy="0" r="7"/>
  <circle id="rim2" cx="0" cy="0" r="3.5"/>
  <g id="zoomPlus">
    <use xlink:href="#rim" fill="#404040"><set attributeName="fill" to="#808080" begin="zoomplus.mouseover" end="zoomplus.mouseout"/></use>
    <path d="M-4,0h8M0,-4v8" fill="none" stroke="white" stroke-width="1.5" pointer-events="none"/>
  </g>
  <g id="zoomMin">
    <use xlink:href="#rim" fill="#404040"><set attributeName="fill" to="#808080" begin="zoomminus.mouseover" end="zoomminus.mouseout"/></use>
    <path d="M-4,0h8" fill="none" stroke="white" stroke-width="1.5" pointer-events="none"/>
  </g>
  <g id="arrowUp" transform="translate(30 24)">
    <use xlink:href="#rim"/>
    <path pointer-events="none" fill="none" stroke="white" stroke-width="1.5" d="M0,-3.0v7 M-2.5,-0.5L0,-3.0L2.5,-0.5"/>
  </g>
  <g id="arrowRight" transform="rotate(90) translate(36 -43)">
    <use xlink:href="#rim"/>
    <path pointer-events="none" fill="none" stroke="white" stroke-width="1.5" d="M0,-3.0v7 M-2.5,-0.5L0,-3.0L2.5,-0.5"/>
  </g>
  <g id="arrowDown" transform="rotate(180) translate(-30 -48)">
    <use xlink:href="#rim"/>
    <path pointer-events="none" fill="none" stroke="white" stroke-width="1.5" d="M0,-3.0v7 M-2.5,-0.5L0,-3.0L2.5,-0.5"/>
  </g>
  <g id="arrowLeft" transform="rotate(270) translate(-36 17)">
    <use xlink:href="#rim"/>
    <path pointer-events="none" fill="none" stroke="white" stroke-width="1.5" d="M0,-3.0v7 M-2.5,-0.5L0,-3.0L2.5,-0.5"/>
  </g>
  <g id="resetDef">
    <use xlink:href="#rim2" fill="#404040"><set attributeName="fill" to="#808080" begin="reset.mouseover" end="reset.mouseout"/></use>
  </g>
</defs>
<script type="application/ecmascript">
var viewWidth = 973;
var viewHeight = 354;
var sectionId = 'dynsection-2';
</script>
<script type="application/ecmascript" xlink:href="svg.min.js"/>
<svg id="graph" class="graph">
<g id="viewport">
<title>moose::MooseParser::MooseParser</title>
<!-- Node1 -->
<g id="Node000001" class="node">
<title>Node1</title>
<g id="a_Node000001"><a xlink:title=" ">
<polygon fill="#999999" stroke="#666666" points="118,-150 0,-150 0,-120 118,-120 118,-150"/>
<text text-anchor="start" x="8" y="-138" font-family="Ubuntu Mono" font-size="10.00">moose::MooseParser</text>
<text text-anchor="middle" x="59" y="-127" font-family="Ubuntu Mono" font-size="10.00">::MooseParser</text>
</a>
</g>
</g>
<!-- Node2 -->
<g id="Node000002" class="node">
<title>Node2</title>
<g id="a_Node000002"><a xlink:href="namespacemoose.html#a70f63f832b8b5b24cd41cde150a9ffb5" target="_top" xlink:title=" ">
<polygon fill="white" stroke="#666666" points="269.5,-216.5 156.5,-216.5 156.5,-197.5 269.5,-197.5 269.5,-216.5"/>
<text text-anchor="middle" x="213" y="-204.5" font-family="Ubuntu Mono" font-size="10.00">moose::init_symtab</text>
</a>
</g>
</g>
<!-- Node1&#45;&gt;Node2 -->
<g id="edge1_Node000001_Node000002" class="edge">
<title>Node1&#45;&gt;Node2</title>
<g id="a_edge1_Node000001_Node000002"><a xlink:title=" ">
<path fill="none" stroke="#63b8ff" d="M91.86,-150.09C118.57,-162.74 156.41,-180.67 182.45,-193"/>
<polygon fill="#63b8ff" stroke="#63b8ff" points="181.27,-196.31 191.8,-197.43 184.26,-189.99 181.27,-196.31"/>
</a>
</g>
</g>
<!-- Node14 -->
<g id="Node000014" class="node">
<title>Node14</title>
<g id="a_Node000014"><a xlink:href="classmoose_1_1MooseParser.html#a04e7bbb1c453e6a7e5d64a1b573ada63" target="_top" xlink:title=" ">
<polygon fill="white" stroke="#666666" points="272,-78 154,-78 154,-48 272,-48 272,-78"/>
<text text-anchor="start" x="162" y="-66" font-family="Ubuntu Mono" font-size="10.00">moose::MooseParser</text>
<text text-anchor="middle" x="213" y="-55" font-family="Ubuntu Mono" font-size="10.00">::SetExpr</text>
</a>
</g>
</g>
<!-- Node1&#45;&gt;Node14 -->
<g id="edge17_Node000001_Node000014" class="edge">
<title>Node1&#45;&gt;Node14</title>
<g id="a_edge17_Node000001_Node000014"><a xlink:title=" ">
<path fill="none" stroke="#63b8ff" d="M91.86,-119.91C114.87,-109.01 146.13,-94.2 170.99,-82.43"/>
<polygon fill="#63b8ff" stroke="#63b8ff" points="172.64,-85.52 180.18,-78.07 169.64,-79.19 172.64,-85.52"/>
</a>
</g>
</g>
<!-- Node3 -->
<g id="Node000003" class="node">
<title>Node3</title>
<g id="a_Node000003"><a xlink:href="classmoose_1_1MooseParser.html#a0906048fecbed9887e89b0014f7a8b75" target="_top" xlink:title=" ">
<polygon fill="white" stroke="#666666" points="434.5,-346 316.5,-346 316.5,-316 434.5,-316 434.5,-346"/>
<text text-anchor="start" x="324.5" y="-334" font-family="Ubuntu Mono" font-size="10.00">moose::MooseParser</text>
<text text-anchor="middle" x="375.5" y="-323" font-family="Ubuntu Mono" font-size="10.00">::Fmod</text>
</a>
</g>
</g>
<!-- Node2&#45;&gt;Node3 -->
<g id="edge2_Node000002_Node000003" class="edge">
<title>Node2&#45;&gt;Node3</title>
<g id="a_edge2_Node000002_Node000003"><a xlink:title=" ">
<path fill="none" stroke="#63b8ff" d="M220.64,-216.68C234.6,-236.36 268.97,-281.35 308,-307 310.4,-308.58 312.93,-310.07 315.52,-311.48"/>
<polygon fill="#63b8ff" stroke="#63b8ff" points="314.06,-314.66 324.58,-315.94 317.16,-308.38 314.06,-314.66"/>
</a>
</g>
</g>
<!-- Node4 -->
<g id="Node000004" class="node">
<title>Node4</title>
<g id="a_Node000004"><a xlink:href="classmoose_1_1MooseParser.html#a9537cddb74b0925aecd58e2abee01b9e" target="_top" xlink:title=" ">
<polygon fill="white" stroke="#666666" points="443,-297.5 308,-297.5 308,-278.5 443,-278.5 443,-297.5"/>
<text text-anchor="middle" x="375.5" y="-285.5" font-family="Ubuntu Mono" font-size="10.00">moose::MooseParser::Ln</text>
</a>
</g>
</g>
<!-- Node2&#45;&gt;Node4 -->
<g id="edge3_Node000002_Node000004" class="edge">
<title>Node2&#45;&gt;Node4</title>
<g id="a_edge3_Node000002_Node000004"><a xlink:title=" ">
<path fill="none" stroke="#63b8ff" d="M227.84,-216.6C245.75,-228.74 278.21,-249.77 308,-264 316.46,-268.04 325.79,-271.81 334.72,-275.1"/>
<polygon fill="#63b8ff" stroke="#63b8ff" points="333.59,-278.42 344.19,-278.48 335.95,-271.83 333.59,-278.42"/>
</a>
</g>
</g>
<!-- Node5 -->
<g id="Node000005" class="node">
<title>Node5</title>
<g id="a_Node000005"><a xlink:href="classmoose_1_1MooseParser.html#a759e3c03cdc0b4235e1051729a4d2d10" target="_top" xlink:title=" ">
<polygon fill="white" stroke="#666666" points="623,-263 505,-263 505,-233 623,-233 623,-263"/>
<text text-anchor="start" x="513" y="-251" font-family="Ubuntu Mono" font-size="10.00">moose::MooseParser</text>
<text text-anchor="middle" x="564" y="-240" font-family="Ubuntu Mono" font-size="10.00">::Rand</text>
</a>
</g>
</g>
<!-- Node2&#45;&gt;Node5 -->
<g id="edge4_Node000002_Node000005" class="edge">
<title>Node2&#45;&gt;Node5</title>
<g id="a_edge4_Node000002_Node000005"><a xlink:title=" ">
<path fill="none" stroke="#63b8ff" d="M245.46,-216.57C263.58,-221.7 286.88,-227.63 308,-231 370.85,-241.03 443.32,-245.16 494.9,-246.85"/>
<polygon fill="#63b8ff" stroke="#63b8ff" points="494.83,-250.35 504.93,-247.15 495.05,-243.35 494.83,-250.35"/>
</a>
</g>
</g>
<!-- Node8 -->
<g id="Node000008" class="node">
<title>Node8</title>
<g id="a_Node000008"><a xlink:href="classmoose_1_1MooseParser.html#a8ef92e102bf19d2fb52f5757989e0e09" target="_top" xlink:title=" ">
<polygon fill="white" stroke="#666666" points="434.5,-222 316.5,-222 316.5,-192 434.5,-192 434.5,-222"/>
<text text-anchor="start" x="324.5" y="-210" font-family="Ubuntu Mono" font-size="10.00">moose::MooseParser</text>
<text text-anchor="middle" x="375.5" y="-199" font-family="Ubuntu Mono" font-size="10.00">::Rand2</text>
</a>
</g>
</g>
<!-- Node2&#45;&gt;Node8 -->
<g id="edge7_Node000002_Node000008" class="edge">
<title>Node2&#45;&gt;Node8</title>
<g id="a_edge7_Node000002_Node000008"><a xlink:title=" ">
<path fill="none" stroke="#63b8ff" d="M269.68,-207C281.5,-207 294.1,-207 306.31,-207"/>
<polygon fill="#63b8ff" stroke="#63b8ff" points="306.46,-210.5 316.46,-207 306.46,-203.5 306.46,-210.5"/>
</a>
</g>
</g>
<!-- Node10 -->
<g id="Node000010" class="node">
<title>Node10</title>
<g id="a_Node000010"><a xlink:href="classmoose_1_1MooseParser.html#ac33152a32b843e683075a0693c3cca43" target="_top" xlink:title=" ">
<polygon fill="white" stroke="#666666" points="434.5,-126 316.5,-126 316.5,-96 434.5,-96 434.5,-126"/>
<text text-anchor="start" x="324.5" y="-114" font-family="Ubuntu Mono" font-size="10.00">moose::MooseParser</text>
<text text-anchor="middle" x="375.5" y="-103" font-family="Ubuntu Mono" font-size="10.00">::SRand</text>
</a>
</g>
</g>
<!-- Node2&#45;&gt;Node10 -->
<g id="edge10_Node000002_Node000010" class="edge">
<title>Node2&#45;&gt;Node10</title>
<g id="a_edge10_Node000002_Node000010"><a xlink:title=" ">
<path fill="none" stroke="#63b8ff" d="M224.25,-197.42C240.77,-182.4 274.81,-153.13 308,-135 311.2,-133.25 314.56,-131.58 317.99,-130"/>
<polygon fill="#63b8ff" stroke="#63b8ff" points="319.41,-133.2 327.2,-126.02 316.63,-126.78 319.41,-133.2"/>
</a>
</g>
</g>
<!-- Node13 -->
<g id="Node000013" class="node">
<title>Node13</title>
<g id="a_Node000013"><a xlink:href="classmoose_1_1MooseParser.html#abd34b9a95e9af87d5e7357707f3ada47" target="_top" xlink:title=" ">
<polygon fill="white" stroke="#666666" points="434.5,-174 316.5,-174 316.5,-144 434.5,-144 434.5,-174"/>
<text text-anchor="start" x="324.5" y="-162" font-family="Ubuntu Mono" font-size="10.00">moose::MooseParser</text>
<text text-anchor="middle" x="375.5" y="-151" font-family="Ubuntu Mono" font-size="10.00">::SRand2</text>
</a>
</g>
</g>
<!-- Node2&#45;&gt;Node13 -->
<g id="edge14_Node000002_Node000013" class="edge">
<title>Node2&#45;&gt;Node13</title>
<g id="a_edge14_Node000002_Node000013"><a xlink:title=" ">
<path fill="none" stroke="#63b8ff" d="M246.09,-197.4C265.62,-191.56 291.19,-183.91 314.37,-176.98"/>
<polygon fill="#63b8ff" stroke="#63b8ff" points="315.56,-180.28 324.13,-174.06 313.55,-173.58 315.56,-180.28"/>
</a>
</g>
</g>
<!-- Node6 -->
<g id="Node000006" class="node">
<title>Node6</title>
<g id="a_Node000006"><a xlink:href="namespacemoose.html#ae65f9d4e187c732b37450b5cb8dab7a7" target="_top" xlink:title="Generate a random double between 0 and 1.">
<polygon fill="white" stroke="#666666" points="791.5,-210.5 700.5,-210.5 700.5,-191.5 791.5,-191.5 791.5,-210.5"/>
<text text-anchor="middle" x="746" y="-198.5" font-family="Ubuntu Mono" font-size="10.00">moose::mtrand</text>
</a>
</g>
</g>
<!-- Node5&#45;&gt;Node6 -->
<g id="edge5_Node000005_Node000006" class="edge">
<title>Node5&#45;&gt;Node6</title>
<g id="a_edge5_Node000005_Node000006"><a xlink:title=" ">
<path fill="none" stroke="#63b8ff" d="M622.45,-233C647.01,-226.59 675.3,-219.2 698.51,-213.14"/>
<polygon fill="#63b8ff" stroke="#63b8ff" points="699.66,-216.46 708.45,-210.54 697.89,-209.68 699.66,-216.46"/>
</a>
</g>
</g>
<!-- Node7 -->
<g id="Node000007" class="node">
<title>Node7</title>
<g id="a_Node000007"><a xlink:href="classmoose_1_1RNG.html#a6fec47558673d4d721a6918bb43b3fd3" target="_top" xlink:title="Return a uniformly distributed random number between 0 and 1 (exclusive).">
<polygon fill="white" stroke="#666666" points="965,-210.5 843,-210.5 843,-191.5 965,-191.5 965,-210.5"/>
<text text-anchor="middle" x="904" y="-198.5" font-family="Ubuntu Mono" font-size="10.00">moose::RNG::uniform</text>
</a>
</g>
</g>
<!-- Node6&#45;&gt;Node7 -->
<g id="edge6_Node000006_Node000007" class="edge">
<title>Node6&#45;&gt;Node7</title>
<g id="a_edge6_Node000006_Node000007"><a xlink:title=" ">
<path fill="none" stroke="#63b8ff" d="M791.7,-201C804.53,-201 818.83,-201 832.79,-201"/>
<polygon fill="#63b8ff" stroke="#63b8ff" points="832.88,-204.5 842.88,-201 832.88,-197.5 832.88,-204.5"/>
</a>
</g>
</g>
<!-- Node9 -->
<g id="Node000009" class="node">
<title>Node9</title>
<g id="a_Node000009"><a xlink:href="namespacemoose.html#a3b5a06b338fff99abea362c7d26feb7a" target="_top" xlink:title=" ">
<polygon fill="white" stroke="#666666" points="609.5,-210.5 518.5,-210.5 518.5,-191.5 609.5,-191.5 609.5,-210.5"/>
<text text-anchor="middle" x="564" y="-198.5" font-family="Ubuntu Mono" font-size="10.00">moose::mtrand</text>
</a>
</g>
</g>
<!-- Node8&#45;&gt;Node9 -->
<g id="edge8_Node000008_Node000009" class="edge">
<title>Node8&#45;&gt;Node9</title>
<g id="a_edge8_Node000008_Node000009"><a xlink:title=" ">
<path fill="none" stroke="#63b8ff" d="M434.74,-205.13C458.1,-204.37 484.88,-203.51 507.91,-202.77"/>
<polygon fill="#63b8ff" stroke="#63b8ff" points="508.32,-206.26 518.2,-202.44 508.1,-199.26 508.32,-206.26"/>
</a>
</g>
</g>
<!-- Node9&#45;&gt;Node6 -->
<g id="edge9_Node000009_Node000006" class="edge">
<title>Node9&#45;&gt;Node6</title>
<g id="a_edge9_Node000009_Node000006"><a xlink:title=" ">
<path fill="none" stroke="#63b8ff" d="M609.96,-201C634.21,-201 664.34,-201 689.99,-201"/>
<polygon fill="#63b8ff" stroke="#63b8ff" points="690.3,-204.5 700.3,-201 690.3,-197.5 690.3,-204.5"/>
</a>
</g>
</g>
<!-- Node10&#45;&gt;Node6 -->
<g id="edge11_Node000010_Node000006" class="edge">
<title>Node10&#45;&gt;Node6</title>
<g id="a_edge11_Node000010_Node000006"><a xlink:title=" ">
<path fill="none" stroke="#63b8ff" d="M434.62,-105.58C492,-102.72 580.79,-105.14 649,-138 669.67,-147.96 666.12,-161.97 685,-175 691.91,-179.77 699.83,-183.95 707.61,-187.49"/>
<polygon fill="#63b8ff" stroke="#63b8ff" points="706.37,-190.76 716.94,-191.48 709.12,-184.33 706.37,-190.76"/>
</a>
</g>
</g>
<!-- Node11 -->
<g id="Node000011" class="node">
<title>Node11</title>
<g id="a_Node000011"><a xlink:href="namespacemoose.html#a016d92a21244e86231ea80932c1c9175" target="_top" xlink:title="Seed seed for RNG.">
<polygon fill="white" stroke="#666666" points="610,-165.5 518,-165.5 518,-146.5 610,-146.5 610,-165.5"/>
<text text-anchor="middle" x="564" y="-153.5" font-family="Ubuntu Mono" font-size="10.00">moose::mtseed</text>
</a>
</g>
</g>
<!-- Node10&#45;&gt;Node11 -->
<g id="edge12_Node000010_Node000011" class="edge">
<title>Node10&#45;&gt;Node11</title>
<g id="a_edge12_Node000010_Node000011"><a xlink:title=" ">
<path fill="none" stroke="#63b8ff" d="M434.74,-125.05C459.99,-131.15 489.25,-138.2 513.44,-144.04"/>
<polygon fill="#63b8ff" stroke="#63b8ff" points="512.92,-147.52 523.47,-146.46 514.57,-140.71 512.92,-147.52"/>
</a>
</g>
</g>
<!-- Node12 -->
<g id="Node000012" class="node">
<title>Node12</title>
<g id="a_Node000012"><a xlink:href="classmoose_1_1RNG.html#ad310f016166b1548e23fb8f3b54f83d7" target="_top" xlink:title="If seed if 0 then set seed to a random number else set seed to the given number.">
<polygon fill="white" stroke="#666666" points="807,-165.5 685,-165.5 685,-146.5 807,-146.5 807,-165.5"/>
<text text-anchor="middle" x="746" y="-153.5" font-family="Ubuntu Mono" font-size="10.00">moose::RNG::setSeed</text>
</a>
</g>
</g>
<!-- Node11&#45;&gt;Node12 -->
<g id="edge13_Node000011_Node000012" class="edge">
<title>Node11&#45;&gt;Node12</title>
<g id="a_edge13_Node000011_Node000012"><a xlink:title=" ">
<path fill="none" stroke="#63b8ff" d="M610.42,-156C629.93,-156 653.18,-156 674.82,-156"/>
<polygon fill="#63b8ff" stroke="#63b8ff" points="674.96,-159.5 684.96,-156 674.96,-152.5 674.96,-159.5"/>
</a>
</g>
</g>
<!-- Node13&#45;&gt;Node9 -->
<g id="edge15_Node000013_Node000009" class="edge">
<title>Node13&#45;&gt;Node9</title>
<g id="a_edge15_Node000013_Node000009"><a xlink:title=" ">
<path fill="none" stroke="#63b8ff" d="M434.74,-172.12C459.06,-177.59 487.09,-183.9 510.73,-189.23"/>
<polygon fill="#63b8ff" stroke="#63b8ff" points="510.04,-192.66 520.57,-191.44 511.58,-185.83 510.04,-192.66"/>
</a>
</g>
</g>
<!-- Node13&#45;&gt;Node11 -->
<g id="edge16_Node000013_Node000011" class="edge">
<title>Node13&#45;&gt;Node11</title>
<g id="a_edge16_Node000013_Node000011"><a xlink:title=" ">
<path fill="none" stroke="#63b8ff" d="M434.74,-158.06C458.01,-157.69 484.67,-157.26 507.64,-156.89"/>
<polygon fill="#63b8ff" stroke="#63b8ff" points="507.96,-160.39 517.91,-156.73 507.85,-153.39 507.96,-160.39"/>
</a>
</g>
</g>
<!-- Node15 -->
<g id="Node000015" class="node">
<title>Node15</title>
<g id="a_Node000015"><a xlink:href="classmoose_1_1MooseParser.html#aa1b46c84478a8111466f9a5f838fca9f" target="_top" xlink:title=" ">
<polygon fill="white" stroke="#666666" points="434.5,-78 316.5,-78 316.5,-48 434.5,-48 434.5,-78"/>
<text text-anchor="start" x="324.5" y="-66" font-family="Ubuntu Mono" font-size="10.00">moose::MooseParser</text>
<text text-anchor="middle" x="375.5" y="-55" font-family="Ubuntu Mono" font-size="10.00">::CompileExpr</text>
</a>
</g>
</g>
<!-- Node14&#45;&gt;Node15 -->
<g id="edge18_Node000014_Node000015" class="edge">
<title>Node14&#45;&gt;Node15</title>
<g id="a_edge18_Node000014_Node000015"><a xlink:title=" ">
<path fill="none" stroke="#63b8ff" d="M272.4,-63C283.38,-63 294.95,-63 306.2,-63"/>
<polygon fill="#63b8ff" stroke="#63b8ff" points="306.41,-66.5 316.41,-63 306.41,-59.5 306.41,-66.5"/>
</a>
</g>
</g>
<!-- Node17 -->
<g id="Node000017" class="node">
<title>Node17</title>
<g id="a_Node000017"><a xlink:href="classmoose_1_1MooseParser.html#a16a2bc7f1e0e566a6c921b5876966031" target="_top" xlink:title=" ">
<polygon fill="white" stroke="#666666" points="434.5,-30 316.5,-30 316.5,0 434.5,0 434.5,-30"/>
<text text-anchor="start" x="324.5" y="-18" font-family="Ubuntu Mono" font-size="10.00">moose::MooseParser</text>
<text text-anchor="middle" x="375.5" y="-7" font-family="Ubuntu Mono" font-size="10.00">::Reformat</text>
</a>
</g>
</g>
<!-- Node14&#45;&gt;Node17 -->
<g id="edge20_Node000014_Node000017" class="edge">
<title>Node14&#45;&gt;Node17</title>
<g id="a_edge20_Node000014_Node000017"><a xlink:title=" ">
<path fill="none" stroke="#63b8ff" d="M264.34,-47.94C280.33,-43.16 298.16,-37.83 314.74,-32.87"/>
<polygon fill="#63b8ff" stroke="#63b8ff" points="315.76,-36.22 324.34,-30 313.75,-29.51 315.76,-36.22"/>
</a>
</g>
</g>
<!-- Node16 -->
<g id="Node000016" class="node">
<title>Node16</title>
<g id="a_Node000016"><a xlink:href="structmoose_1_1Parser_1_1ParserException.html#ad1f40fc5b35263f7df106530f4ebb184" target="_top" xlink:title=" ">
<polygon fill="white" stroke="#666666" points="649,-78 479,-78 479,-48 649,-48 649,-78"/>
<text text-anchor="start" x="487" y="-66" font-family="Ubuntu Mono" font-size="10.00">moose::Parser::ParserException</text>
<text text-anchor="middle" x="564" y="-55" font-family="Ubuntu Mono" font-size="10.00">::ParserException</text>
</a>
</g>
</g>
<!-- Node15&#45;&gt;Node16 -->
<g id="edge19_Node000015_Node000016" class="edge">
<title>Node15&#45;&gt;Node16</title>
<g id="a_edge19_Node000015_Node000016"><a xlink:title=" ">
<path fill="none" stroke="#63b8ff" d="M434.74,-63C445.57,-63 457.14,-63 468.72,-63"/>
<polygon fill="#63b8ff" stroke="#63b8ff" points="468.89,-66.5 478.89,-63 468.89,-59.5 468.89,-66.5"/>
</a>
</g>
</g>
<!-- Node18 -->
<g id="Node000018" class="node">
<title>Node18</title>
<g id="a_Node000018"><a xlink:href="namespacemoose.html#a094027dde11a826fee7ce73b7211ebd9" target="_top" xlink:title=" ">
<polygon fill="white" stroke="#666666" points="627.5,-24.5 500.5,-24.5 500.5,-5.5 627.5,-5.5 627.5,-24.5"/>
<text text-anchor="middle" x="564" y="-12.5" font-family="Ubuntu Mono" font-size="10.00">moose::str_replace_all</text>
</a>
</g>
</g>
<!-- Node17&#45;&gt;Node18 -->
<g id="edge21_Node000017_Node000018" class="edge">
<title>Node17&#45;&gt;Node18</title>
<g id="a_edge21_Node000017_Node000018"><a xlink:title=" ">
<path fill="none" stroke="#63b8ff" d="M434.74,-15C452.33,-15 471.85,-15 490.26,-15"/>
<polygon fill="#63b8ff" stroke="#63b8ff" points="490.35,-18.5 500.35,-15 490.35,-11.5 490.35,-18.5"/>
</a>
</g>
</g>
</g>
</svg>

<g id="navigator" transform="translate(0 0)" fill="#404254">
  <rect fill="#f2f5e9" fill-opacity="0.5" stroke="#606060" stroke-width=".5" x="0" y="0" width="60" height="60"/>
  <use id="zoomplus" xlink:href="#zoomPlus" x="17" y="9" onmousedown="handleZoom(evt,'in')"/>
  <use id="zoomminus" xlink:href="#zoomMin" x="42" y="9" onmousedown="handleZoom(evt,'out')"/>
  <use id="reset" xlink:href="#resetDef" x="30" y="36" onmousedown="handleReset()"/>
   <use id="arrowup" xlink:href="#arrowUp" x="0" y="0" onmousedown="handlePan(0,-1)"/>
  <use id="arrowright" xlink:href="#arrowRight" x="0" y="0" onmousedown="handlePan(1,0)"/>
  <use id="arrowdown" xlink:href="#arrowDown" x="0" y="0" onmousedown="handlePan(0,1)"/>
  <use id="arrowleft" xlink:href="#arrowLeft" x="0" y="0" onmousedown="handlePan(-1,0)"/>
</g>
<svg viewBox="0 0 15 15" width="100%" height="30px" preserveAspectRatio="xMaxYMin meet">
 <g id="arrow_out" transform="scale(0.3 0.3)">
  <a xlink:href="classmoose_1_1MooseParser_aa2bed4e582d8e4ce947fffa6042a649c_cgraph_org.svg" target="_base">
   <rect id="button" ry="5" rx="5" y="6" x="6" height="38" width="38"
        fill="#f2f5e9" fill-opacity="0.5" stroke="#606060" stroke-width="1.0"/>
   <path id="arrow"
     d="M 11.500037,31.436501 C 11.940474,20.09759 22.043105,11.32322 32.158766,21.979434 L 37.068811,17.246167 C 37.068811,17.246167 37.088388,32 37.088388,32 L 22.160133,31.978069 C 22.160133,31.978069 26.997745,27.140456 26.997745,27.140456 C 18.528582,18.264221 13.291696,25.230495 11.500037,31.436501 z"
     style="fill:#404040;"/>
  </a>
 </g>
</svg>

<style type='text/css'>
<![CDATA[
[data-mouse-over-selected='false'] { opacity: 0.7; }
[data-mouse-over-selected='true']  { opacity: 1.0; }
]]>
</style>
<script type="application/ecmascript"><![CDATA[
document.addEventListener('DOMContentLoaded', (event) => {
  highlightEdges();
  highlightAdjacentNodes();
});
]]></script>
</svg>
