<?xml version="1.0" encoding="UTF-8" standalone="no"?>
<!DOCTYPE svg PUBLIC "-//W3C//DTD SVG 1.1//EN"
 "http://www.w3.org/Graphics/SVG/1.1/DTD/svg11.dtd">
<!-- Generated by graphviz version 2.43.0 (0)
 -->
<!-- Title: SparseMsg::transpose Pages: 1 -->
<svg width="303pt" height="138pt"
 viewBox="0.00 0.00 303.00 138.00" xmlns="http://www.w3.org/2000/svg" xmlns:xlink="http://www.w3.org/1999/xlink">

<svg id="main" version="1.1" xmlns="http://www.w3.org/2000/svg" xmlns:xlink="http://www.w3.org/1999/xlink" xml:space="preserve" onload="init(evt)">
<style type="text/css"><![CDATA[
.node, .edge {opacity: 0.7;}
.node.selected, .edge.selected {opacity: 1;}
.edge:hover path { stroke: red; }
.edge:hover polygon { stroke: red; fill: red; }
]]></style>
<script type="application/ecmascript" xlink:href="svg.min.js"/>
<svg id="graph" class="graph">
<g id="graph0" class="graph" transform="scale(1 1) rotate(0) translate(4 134)">
<title>SparseMsg::transpose</title>
<!-- Node1 -->
<g id="Node000001" class="node">
<title>Node1</title>
<g id="a_Node000001"><a xlink:title=" ">
<polygon fill="#999999" stroke="#666666" points="124,-74 0,-74 0,-55 124,-55 124,-74"/>
<text text-anchor="middle" x="62" y="-62" font-family="Ubuntu Mono" font-size="10.00">SparseMsg::transpose</text>
</a>
</g>
</g>
<!-- Node2 -->
<g id="Node000002" class="node">
<title>Node2</title>
<g id="a_Node000002"><a xlink:href="classMsg.html#a5be9f4dd643f5f662e8fb3c029273390" target="_top" xlink:title=" ">
<polygon fill="white" stroke="#666666" points="255,-130 200,-130 200,-111 255,-111 255,-130"/>
<text text-anchor="middle" x="227.5" y="-118" font-family="Ubuntu Mono" font-size="10.00">Msg::e1</text>
</a>
</g>
</g>
<!-- Node1&#45;&gt;Node2 -->
<g id="edge1_Node000001_Node000002" class="edge">
<title>Node1&#45;&gt;Node2</title>
<g id="a_edge1_Node000001_Node000002"><a xlink:title=" ">
<path fill="none" stroke="#63b8ff" d="M85.48,-74.11C104.98,-82.26 134.07,-93.94 160,-102.5 169.61,-105.67 180.13,-108.71 189.91,-111.36"/>
<polygon fill="#63b8ff" stroke="#63b8ff" points="189.21,-114.8 199.77,-113.97 191,-108.03 189.21,-114.8"/>
</a>
</g>
</g>
<!-- Node3 -->
<g id="Node000003" class="node">
<title>Node3</title>
<g id="a_Node000003"><a xlink:href="classMsg.html#a893ed6b44cd4c529f0f10af38ae6743a" target="_top" xlink:title=" ">
<polygon fill="white" stroke="#666666" points="255,-93 200,-93 200,-74 255,-74 255,-93"/>
<text text-anchor="middle" x="227.5" y="-81" font-family="Ubuntu Mono" font-size="10.00">Msg::e2</text>
</a>
</g>
</g>
<!-- Node1&#45;&gt;Node3 -->
<g id="edge2_Node000001_Node000003" class="edge">
<title>Node1&#45;&gt;Node3</title>
<g id="a_edge2_Node000001_Node000003"><a xlink:title=" ">
<path fill="none" stroke="#63b8ff" d="M124.35,-71.63C146.37,-74.19 170.49,-76.99 189.77,-79.23"/>
<polygon fill="#63b8ff" stroke="#63b8ff" points="189.6,-82.74 199.94,-80.41 190.41,-75.78 189.6,-82.74"/>
</a>
</g>
</g>
<!-- Node4 -->
<g id="Node000004" class="node">
<title>Node4</title>
<g id="a_Node000004"><a xlink:href="classElement.html#a91ba2615cb1c7a30cca2327d2003f34c" target="_top" xlink:title=" ">
<polygon fill="white" stroke="#666666" points="291.5,-56 163.5,-56 163.5,-37 291.5,-37 291.5,-56"/>
<text text-anchor="middle" x="227.5" y="-44" font-family="Ubuntu Mono" font-size="10.00">Element::markRewired</text>
</a>
</g>
</g>
<!-- Node1&#45;&gt;Node4 -->
<g id="edge3_Node000001_Node000004" class="edge">
<title>Node1&#45;&gt;Node4</title>
<g id="a_edge3_Node000001_Node000004"><a xlink:title=" ">
<path fill="none" stroke="#63b8ff" d="M124.35,-57.75C133.83,-56.7 143.7,-55.62 153.41,-54.55"/>
<polygon fill="#63b8ff" stroke="#63b8ff" points="153.89,-58.02 163.45,-53.44 153.12,-51.06 153.89,-58.02"/>
</a>
</g>
</g>
<!-- Node5 -->
<g id="Node000005" class="node">
<title>Node5</title>
<g id="a_Node000005"><a xlink:href="classSparseMatrix.html#abd7817874559248caf8bd3fdac8c242f" target="_top" xlink:title=" ">
<polygon fill="white" stroke="#666666" points="295,-19 160,-19 160,0 295,0 295,-19"/>
<text text-anchor="middle" x="227.5" y="-7" font-family="Ubuntu Mono" font-size="10.00">SparseMatrix::transpose</text>
</a>
</g>
</g>
<!-- Node1&#45;&gt;Node5 -->
<g id="edge4_Node000001_Node000005" class="edge">
<title>Node1&#45;&gt;Node5</title>
<g id="a_edge4_Node000001_Node000005"><a xlink:title=" ">
<path fill="none" stroke="#63b8ff" d="M87.13,-54.95C106.65,-47.38 134.91,-36.73 160,-28.5 166.9,-26.24 174.26,-23.98 181.46,-21.86"/>
<polygon fill="#63b8ff" stroke="#63b8ff" points="182.51,-25.2 191.14,-19.05 180.56,-18.47 182.51,-25.2"/>
</a>
</g>
</g>
</g>
</svg>
</svg>

<style type='text/css'>
<![CDATA[
[data-mouse-over-selected='false'] { opacity: 0.7; }
[data-mouse-over-selected='true']  { opacity: 1.0; }
]]>
</style>
<script type="application/ecmascript"><![CDATA[
document.addEventListener('DOMContentLoaded', (event) => {
  highlightEdges();
  highlightAdjacentNodes();
});
]]></script>
</svg>
