<?xml version="1.0" encoding="UTF-8" standalone="no"?>
<!DOCTYPE svg PUBLIC "-//W3C//DTD SVG 1.1//EN"
 "http://www.w3.org/Graphics/SVG/1.1/DTD/svg11.dtd">
<!-- Generated by graphviz version 2.43.0 (0)
 -->
<!-- Title: Gsolve::fillIncrementFuncDep Pages: 1 -->
<!--zoomable 175 -->

<svg id="main" version="1.1" xmlns="http://www.w3.org/2000/svg" xmlns:xlink="http://www.w3.org/1999/xlink" xml:space="preserve" onload="init(evt)">
<style type="text/css"><![CDATA[
.node, .edge {opacity: 0.7;}
.node.selected, .edge.selected {opacity: 1;}
.edge:hover path { stroke: red; }
.edge:hover polygon { stroke: red; fill: red; }
]]></style>

<defs>
  <circle id="rim" cx="0" cy="0" r="7"/>
  <circle id="rim2" cx="0" cy="0" r="3.5"/>
  <g id="zoomPlus">
    <use xlink:href="#rim" fill="#404040"><set attributeName="fill" to="#808080" begin="zoomplus.mouseover" end="zoomplus.mouseout"/></use>
    <path d="M-4,0h8M0,-4v8" fill="none" stroke="white" stroke-width="1.5" pointer-events="none"/>
  </g>
  <g id="zoomMin">
    <use xlink:href="#rim" fill="#404040"><set attributeName="fill" to="#808080" begin="zoomminus.mouseover" end="zoomminus.mouseout"/></use>
    <path d="M-4,0h8" fill="none" stroke="white" stroke-width="1.5" pointer-events="none"/>
  </g>
  <g id="arrowUp" transform="translate(30 24)">
    <use xlink:href="#rim"/>
    <path pointer-events="none" fill="none" stroke="white" stroke-width="1.5" d="M0,-3.0v7 M-2.5,-0.5L0,-3.0L2.5,-0.5"/>
  </g>
  <g id="arrowRight" transform="rotate(90) translate(36 -43)">
    <use xlink:href="#rim"/>
    <path pointer-events="none" fill="none" stroke="white" stroke-width="1.5" d="M0,-3.0v7 M-2.5,-0.5L0,-3.0L2.5,-0.5"/>
  </g>
  <g id="arrowDown" transform="rotate(180) translate(-30 -48)">
    <use xlink:href="#rim"/>
    <path pointer-events="none" fill="none" stroke="white" stroke-width="1.5" d="M0,-3.0v7 M-2.5,-0.5L0,-3.0L2.5,-0.5"/>
  </g>
  <g id="arrowLeft" transform="rotate(270) translate(-36 17)">
    <use xlink:href="#rim"/>
    <path pointer-events="none" fill="none" stroke="white" stroke-width="1.5" d="M0,-3.0v7 M-2.5,-0.5L0,-3.0L2.5,-0.5"/>
  </g>
  <g id="resetDef">
    <use xlink:href="#rim2" fill="#404040"><set attributeName="fill" to="#808080" begin="reset.mouseover" end="reset.mouseout"/></use>
  </g>
</defs>
<script type="application/ecmascript">
var viewWidth = 544;
var viewHeight = 175;
var sectionId = 'dynsection-5';
</script>
<script type="application/ecmascript" xlink:href="svg.min.js"/>
<svg id="graph" class="graph">
<g id="viewport">
<title>Gsolve::fillIncrementFuncDep</title>
<!-- Node1 -->
<g id="Node000001" class="node">
<title>Node1</title>
<g id="a_Node000001"><a xlink:title=" ">
<polygon fill="#999999" stroke="#666666" points="160,-93 0,-93 0,-74 160,-74 160,-93"/>
<text text-anchor="middle" x="80" y="-81" font-family="Ubuntu Mono" font-size="10.00">Gsolve::fillIncrementFuncDep</text>
</a>
</g>
</g>
<!-- Node2 -->
<g id="Node000002" class="node">
<title>Node2</title>
<g id="a_Node000002"><a xlink:href="classFuncRate.html#af3420f38903797f90d7ee2e07d1bf004" target="_top" xlink:title=" ">
<polygon fill="white" stroke="#666666" points="345,-167 196,-167 196,-148 345,-148 345,-167"/>
<text text-anchor="middle" x="270.5" y="-155" font-family="Ubuntu Mono" font-size="10.00">FuncRate::getFuncArgIndex</text>
</a>
</g>
</g>
<!-- Node1&#45;&gt;Node2 -->
<g id="edge1_Node000001_Node000002" class="edge">
<title>Node1&#45;&gt;Node2</title>
<g id="a_edge1_Node000001_Node000002"><a xlink:title=" ">
<path fill="none" stroke="#63b8ff" d="M97.65,-93.02C119.59,-105.22 159.66,-126.37 196,-139.5 201.84,-141.61 208.03,-143.55 214.23,-145.32"/>
<polygon fill="#63b8ff" stroke="#63b8ff" points="213.39,-148.72 223.96,-147.95 215.22,-141.96 213.39,-148.72"/>
</a>
</g>
</g>
<!-- Node4 -->
<g id="Node000004" class="node">
<title>Node4</title>
<g id="a_Node000004"><a xlink:href="classStoich.html#ab73081eaab28cb65be3ceb376f559e73" target="_top" xlink:title=" ">
<polygon fill="white" stroke="#666666" points="336,-130 205,-130 205,-111 336,-111 336,-130"/>
<text text-anchor="middle" x="270.5" y="-118" font-family="Ubuntu Mono" font-size="10.00">Stoich::getNumAllPools</text>
</a>
</g>
</g>
<!-- Node1&#45;&gt;Node4 -->
<g id="edge3_Node000001_Node000004" class="edge">
<title>Node1&#45;&gt;Node4</title>
<g id="a_edge3_Node000001_Node000004"><a xlink:title=" ">
<path fill="none" stroke="#63b8ff" d="M129.54,-93.03C154.29,-97.89 184.59,-103.83 210.66,-108.95"/>
<polygon fill="#63b8ff" stroke="#63b8ff" points="210.31,-112.45 220.79,-110.94 211.66,-105.58 210.31,-112.45"/>
</a>
</g>
</g>
<!-- Node5 -->
<g id="Node000005" class="node">
<title>Node5</title>
<g id="a_Node000005"><a xlink:href="classStoich.html#a39d1868cebe3c20837e974cbb1d336de" target="_top" xlink:title=" ">
<polygon fill="white" stroke="#666666" points="330,-93 211,-93 211,-74 330,-74 330,-93"/>
<text text-anchor="middle" x="270.5" y="-81" font-family="Ubuntu Mono" font-size="10.00">Stoich::getNumRates</text>
</a>
</g>
</g>
<!-- Node1&#45;&gt;Node5 -->
<g id="edge4_Node000001_Node000005" class="edge">
<title>Node1&#45;&gt;Node5</title>
<g id="a_edge4_Node000001_Node000005"><a xlink:title=" ">
<path fill="none" stroke="#63b8ff" d="M160.12,-83.5C173.56,-83.5 187.41,-83.5 200.56,-83.5"/>
<polygon fill="#63b8ff" stroke="#63b8ff" points="200.93,-87 210.93,-83.5 200.93,-80 200.93,-87"/>
</a>
</g>
</g>
<!-- Node6 -->
<g id="Node000006" class="node">
<title>Node6</title>
<g id="a_Node000006"><a xlink:href="classStoich.html#a05ba653fd2112861f21bd2c27b3a76a3" target="_top" xlink:title="Returns a reference to the entire rates_ vector.">
<polygon fill="white" stroke="#666666" points="330.5,-56 210.5,-56 210.5,-37 330.5,-37 330.5,-56"/>
<text text-anchor="middle" x="270.5" y="-44" font-family="Ubuntu Mono" font-size="10.00">Stoich::getRateTerms</text>
</a>
</g>
</g>
<!-- Node1&#45;&gt;Node6 -->
<g id="edge5_Node000001_Node000006" class="edge">
<title>Node1&#45;&gt;Node6</title>
<g id="a_edge5_Node000001_Node000006"><a xlink:title=" ">
<path fill="none" stroke="#63b8ff" d="M129.54,-73.97C154.29,-69.11 184.59,-63.17 210.66,-58.05"/>
<polygon fill="#63b8ff" stroke="#63b8ff" points="211.66,-61.42 220.79,-56.06 210.31,-54.55 211.66,-61.42"/>
</a>
</g>
</g>
<!-- Node7 -->
<g id="Node000007" class="node">
<title>Node7</title>
<g id="a_Node000007"><a xlink:href="classSparseMatrix.html#a354ec2999a4fa10d5c1127ca769d116b" target="_top" xlink:title=" ">
<polygon fill="white" stroke="#666666" points="332.5,-19 208.5,-19 208.5,0 332.5,0 332.5,-19"/>
<text text-anchor="middle" x="270.5" y="-7" font-family="Ubuntu Mono" font-size="10.00">SparseMatrix::getRow</text>
</a>
</g>
</g>
<!-- Node1&#45;&gt;Node7 -->
<g id="edge6_Node000001_Node000007" class="edge">
<title>Node1&#45;&gt;Node7</title>
<g id="a_edge6_Node000001_Node000007"><a xlink:title=" ">
<path fill="none" stroke="#63b8ff" d="M98.47,-73.83C120.62,-61.88 160.24,-41.54 196,-28.5 202.73,-26.05 209.91,-23.78 217.04,-21.73"/>
<polygon fill="#63b8ff" stroke="#63b8ff" points="217.99,-25.1 226.71,-19.07 216.14,-18.35 217.99,-25.1"/>
</a>
</g>
</g>
<!-- Node3 -->
<g id="Node000003" class="node">
<title>Node3</title>
<g id="a_Node000003"><a xlink:href="classFuncTerm.html#a45407a743aaa9d06fa04ae6a6fd08a7b" target="_top" xlink:title=" ">
<polygon fill="white" stroke="#666666" points="536,-167 381,-167 381,-148 536,-148 536,-167"/>
<text text-anchor="middle" x="458.5" y="-155" font-family="Ubuntu Mono" font-size="10.00">FuncTerm::getReactantIndex</text>
</a>
</g>
</g>
<!-- Node2&#45;&gt;Node3 -->
<g id="edge2_Node000002_Node000003" class="edge">
<title>Node2&#45;&gt;Node3</title>
<g id="a_edge2_Node000002_Node000003"><a xlink:title=" ">
<path fill="none" stroke="#63b8ff" d="M345.01,-157.5C353.48,-157.5 362.17,-157.5 370.79,-157.5"/>
<polygon fill="#63b8ff" stroke="#63b8ff" points="370.86,-161 380.86,-157.5 370.86,-154 370.86,-161"/>
</a>
</g>
</g>
</g>
</svg>

<g id="navigator" transform="translate(0 0)" fill="#404254">
  <rect fill="#f2f5e9" fill-opacity="0.5" stroke="#606060" stroke-width=".5" x="0" y="0" width="60" height="60"/>
  <use id="zoomplus" xlink:href="#zoomPlus" x="17" y="9" onmousedown="handleZoom(evt,'in')"/>
  <use id="zoomminus" xlink:href="#zoomMin" x="42" y="9" onmousedown="handleZoom(evt,'out')"/>
  <use id="reset" xlink:href="#resetDef" x="30" y="36" onmousedown="handleReset()"/>
   <use id="arrowup" xlink:href="#arrowUp" x="0" y="0" onmousedown="handlePan(0,-1)"/>
  <use id="arrowright" xlink:href="#arrowRight" x="0" y="0" onmousedown="handlePan(1,0)"/>
  <use id="arrowdown" xlink:href="#arrowDown" x="0" y="0" onmousedown="handlePan(0,1)"/>
  <use id="arrowleft" xlink:href="#arrowLeft" x="0" y="0" onmousedown="handlePan(-1,0)"/>
</g>
<svg viewBox="0 0 15 15" width="100%" height="30px" preserveAspectRatio="xMaxYMin meet">
 <g id="arrow_out" transform="scale(0.3 0.3)">
  <a xlink:href="classGsolve_ad15ab23459af91a514ab945914a639ea_cgraph_org.svg" target="_base">
   <rect id="button" ry="5" rx="5" y="6" x="6" height="38" width="38"
        fill="#f2f5e9" fill-opacity="0.5" stroke="#606060" stroke-width="1.0"/>
   <path id="arrow"
     d="M 11.500037,31.436501 C 11.940474,20.09759 22.043105,11.32322 32.158766,21.979434 L 37.068811,17.246167 C 37.068811,17.246167 37.088388,32 37.088388,32 L 22.160133,31.978069 C 22.160133,31.978069 26.997745,27.140456 26.997745,27.140456 C 18.528582,18.264221 13.291696,25.230495 11.500037,31.436501 z"
     style="fill:#404040;"/>
  </a>
 </g>
</svg>

<style type='text/css'>
<![CDATA[
[data-mouse-over-selected='false'] { opacity: 0.7; }
[data-mouse-over-selected='true']  { opacity: 1.0; }
]]>
</style>
<script type="application/ecmascript"><![CDATA[
document.addEventListener('DOMContentLoaded', (event) => {
  highlightEdges();
  highlightAdjacentNodes();
});
]]></script>
</svg>
