<?xml version="1.0" encoding="UTF-8" standalone="no"?>
<!DOCTYPE svg PUBLIC "-//W3C//DTD SVG 1.1//EN"
 "http://www.w3.org/Graphics/SVG/1.1/DTD/svg11.dtd">
<!-- Generated by graphviz version 2.43.0 (0)
 -->
<!-- Title: FuncRate::FuncRate Pages: 1 -->
<svg width="273pt" height="64pt"
 viewBox="0.00 0.00 273.00 64.00" xmlns="http://www.w3.org/2000/svg" xmlns:xlink="http://www.w3.org/1999/xlink">
<g id="graph0" class="graph" transform="scale(1 1) rotate(0) translate(4 60)">
<title>FuncRate::FuncRate</title>
<!-- Node1 -->
<g id="Node000001" class="node">
<title>Node1</title>
<g id="a_Node000001"><a xlink:title=" ">
<polygon fill="#999999" stroke="#666666" points="113,-37 0,-37 0,-18 113,-18 113,-37"/>
<text text-anchor="middle" x="56.5" y="-25" font-family="Ubuntu Mono" font-size="10.00">FuncRate::FuncRate</text>
</a>
</g>
</g>
<!-- Node2 -->
<g id="Node000002" class="node">
<title>Node2</title>
<g id="a_Node000002"><a xlink:href="classFuncTerm.html#a3aff33ff21e2a6be5fc25af1b26db124" target="_top" xlink:title=" ">
<polygon fill="white" stroke="#666666" points="265,-56 149,-56 149,-37 265,-37 265,-56"/>
<text text-anchor="middle" x="207" y="-44" font-family="Ubuntu Mono" font-size="10.00">FuncTerm::FuncTerm</text>
</a>
</g>
</g>
<!-- Node1&#45;&gt;Node2 -->
<g id="edge1_Node000001_Node000002" class="edge">
<title>Node1&#45;&gt;Node2</title>
<g id="a_edge1_Node000001_Node000002"><a xlink:title=" ">
<path fill="none" stroke="#63b8ff" d="M113.22,-34.63C121.62,-35.7 130.36,-36.82 138.96,-37.92"/>
<polygon fill="#63b8ff" stroke="#63b8ff" points="138.62,-41.41 148.98,-39.2 139.5,-34.46 138.62,-41.41"/>
</a>
</g>
</g>
<!-- Node3 -->
<g id="Node000003" class="node">
<title>Node3</title>
<g id="a_Node000003"><a xlink:href="classFuncTerm.html#a2c3b133e6b60af6a92e8fb2e4dc456e9" target="_top" xlink:title=" ">
<polygon fill="white" stroke="#666666" points="264,-19 150,-19 150,0 264,0 264,-19"/>
<text text-anchor="middle" x="207" y="-7" font-family="Ubuntu Mono" font-size="10.00">FuncTerm::setTarget</text>
</a>
</g>
</g>
<!-- Node1&#45;&gt;Node3 -->
<g id="edge2_Node000001_Node000003" class="edge">
<title>Node1&#45;&gt;Node3</title>
<g id="a_edge2_Node000001_Node000003"><a xlink:title=" ">
<path fill="none" stroke="#63b8ff" d="M113.22,-20.75C121.95,-19.69 131.04,-18.59 139.98,-17.5"/>
<polygon fill="#63b8ff" stroke="#63b8ff" points="140.46,-20.97 149.97,-16.29 139.62,-14.02 140.46,-20.97"/>
</a>
</g>
</g>
</g>
</svg>
