<?xml version="1.0" encoding="UTF-8" standalone="no"?>
<!DOCTYPE svg PUBLIC "-//W3C//DTD SVG 1.1//EN"
 "http://www.w3.org/Graphics/SVG/1.1/DTD/svg11.dtd">
<!-- Generated by graphviz version 2.43.0 (0)
 -->
<!-- Title: ChanCommon::sendReinitMsgs Pages: 1 -->
<svg width="495pt" height="325pt"
 viewBox="0.00 0.00 495.00 325.00" xmlns="http://www.w3.org/2000/svg" xmlns:xlink="http://www.w3.org/1999/xlink">

<svg id="main" version="1.1" xmlns="http://www.w3.org/2000/svg" xmlns:xlink="http://www.w3.org/1999/xlink" xml:space="preserve" onload="init(evt)">
<style type="text/css"><![CDATA[
.node, .edge {opacity: 0.7;}
.node.selected, .edge.selected {opacity: 1;}
.edge:hover path { stroke: red; }
.edge:hover polygon { stroke: red; fill: red; }
]]></style>
<script type="application/ecmascript" xlink:href="svg.min.js"/>
<svg id="graph" class="graph">
<g id="graph0" class="graph" transform="scale(1 1) rotate(0) translate(4 321)">
<title>ChanCommon::sendReinitMsgs</title>
<!-- Node1 -->
<g id="Node000001" class="node">
<title>Node1</title>
<g id="a_Node000001"><a xlink:title=" ">
<polygon fill="#999999" stroke="#666666" points="487,-167 318,-167 318,-148 487,-148 487,-167"/>
<text text-anchor="middle" x="402.5" y="-155" font-family="Ubuntu Mono" font-size="10.00">ChanCommon::sendReinitMsgs</text>
</a>
</g>
</g>
<!-- Node2 -->
<g id="Node000002" class="node">
<title>Node2</title>
<g id="a_Node000002"><a xlink:href="classMarkovChannel.html#aa6f0cc5bd632d6f13f64980fafc7a541" target="_top" xlink:title=" ">
<polygon fill="white" stroke="#666666" points="282,-317 149,-317 149,-298 282,-298 282,-317"/>
<text text-anchor="middle" x="215.5" y="-305" font-family="Ubuntu Mono" font-size="10.00">MarkovChannel::vReinit</text>
</a>
</g>
</g>
<!-- Node1&#45;&gt;Node2 -->
<g id="edge1_Node000001_Node000002" class="edge">
<title>Node1&#45;&gt;Node2</title>
<g id="a_edge1_Node000001_Node000002"><a xlink:title=" ">
<path fill="none" stroke="#63b8ff" d="M390.01,-175.79C371.06,-204.43 330.49,-259.66 282,-289.5 276.48,-292.9 270.3,-295.67 264.01,-297.92"/>
<polygon fill="#63b8ff" stroke="#63b8ff" points="393.09,-177.47 395.59,-167.17 387.22,-173.67 393.09,-177.47"/>
</a>
</g>
</g>
<!-- Node3 -->
<g id="Node000003" class="node">
<title>Node3</title>
<g id="a_Node000003"><a xlink:href="classLeakage.html#a558d13b93c902a33852b9a8d0b3c643f" target="_top" xlink:title=" ">
<polygon fill="white" stroke="#666666" points="264.5,-280 166.5,-280 166.5,-261 264.5,-261 264.5,-280"/>
<text text-anchor="middle" x="215.5" y="-268" font-family="Ubuntu Mono" font-size="10.00">Leakage::vReinit</text>
</a>
</g>
</g>
<!-- Node1&#45;&gt;Node3 -->
<g id="edge2_Node000001_Node000003" class="edge">
<title>Node1&#45;&gt;Node3</title>
<g id="a_edge2_Node000001_Node000003"><a xlink:title=" ">
<path fill="none" stroke="#63b8ff" d="M385.11,-174.19C363.39,-195.37 323.04,-231.66 282,-252.5 275.38,-255.86 268.05,-258.66 260.76,-260.97"/>
<polygon fill="#63b8ff" stroke="#63b8ff" points="387.59,-176.65 392.23,-167.12 382.66,-171.68 387.59,-176.65"/>
</a>
</g>
</g>
<!-- Node4 -->
<g id="Node000004" class="node">
<title>Node4</title>
<g id="a_Node000004"><a xlink:href="classMgBlock.html#a554de727c4ba471b71094ebd6bd25152" target="_top" xlink:title=" ">
<polygon fill="white" stroke="#666666" points="265,-243 166,-243 166,-224 265,-224 265,-243"/>
<text text-anchor="middle" x="215.5" y="-231" font-family="Ubuntu Mono" font-size="10.00">MgBlock::vReinit</text>
</a>
</g>
</g>
<!-- Node1&#45;&gt;Node4 -->
<g id="edge3_Node000001_Node000004" class="edge">
<title>Node1&#45;&gt;Node4</title>
<g id="a_edge3_Node000001_Node000004"><a xlink:title=" ">
<path fill="none" stroke="#63b8ff" d="M371.21,-171.27C347.17,-182.06 312.65,-197.23 282,-209.5 269.52,-214.5 255.55,-219.67 243.72,-223.93"/>
<polygon fill="#63b8ff" stroke="#63b8ff" points="372.82,-174.38 380.5,-167.09 369.95,-168 372.82,-174.38"/>
</a>
</g>
</g>
<!-- Node5 -->
<g id="Node000005" class="node">
<title>Node5</title>
<g id="a_Node000005"><a xlink:href="classNMDAChan.html#a09ab79110384cbabe964d065b0caf9d4" target="_top" xlink:title=" ">
<polygon fill="white" stroke="#666666" points="113,-186 0,-186 0,-167 113,-167 113,-186"/>
<text text-anchor="middle" x="56.5" y="-174" font-family="Ubuntu Mono" font-size="10.00">NMDAChan::vReinit</text>
</a>
</g>
</g>
<!-- Node1&#45;&gt;Node5 -->
<g id="edge4_Node000001_Node000005" class="edge">
<title>Node1&#45;&gt;Node5</title>
<g id="a_edge4_Node000001_Node000005"><a xlink:title=" ">
<path fill="none" stroke="#63b8ff" d="M342.99,-168.69C323.65,-171.88 301.97,-174.92 282,-176.5 224.69,-181.03 158.89,-180.34 113.41,-178.94"/>
<polygon fill="#63b8ff" stroke="#63b8ff" points="343.6,-172.14 352.87,-167.01 342.42,-165.24 343.6,-172.14"/>
</a>
</g>
</g>
<!-- Node6 -->
<g id="Node000006" class="node">
<title>Node6</title>
<g id="a_Node000006"><a xlink:href="classSynChan.html#af40098320568b64bfe54ad9ac5c6f80d" target="_top" xlink:title=" ">
<polygon fill="white" stroke="#666666" points="265.5,-167 165.5,-167 165.5,-148 265.5,-148 265.5,-167"/>
<text text-anchor="middle" x="215.5" y="-155" font-family="Ubuntu Mono" font-size="10.00">SynChan::vReinit</text>
</a>
</g>
</g>
<!-- Node1&#45;&gt;Node6 -->
<g id="edge5_Node000001_Node000006" class="edge">
<title>Node1&#45;&gt;Node6</title>
<g id="a_edge5_Node000001_Node000006"><a xlink:title=" ">
<path fill="none" stroke="#63b8ff" d="M307.83,-157.5C293.22,-157.5 278.65,-157.5 265.58,-157.5"/>
<polygon fill="#63b8ff" stroke="#63b8ff" points="307.93,-161 317.93,-157.5 307.93,-154 307.93,-161"/>
</a>
</g>
</g>
<!-- Node7 -->
<g id="Node000007" class="node">
<title>Node7</title>
<g id="a_Node000007"><a xlink:href="classHHChannel.html#a6aff0899c46ba1dc65bb99835e90924a" target="_top" xlink:title=" ">
<polygon fill="white" stroke="#666666" points="271.5,-130 159.5,-130 159.5,-111 271.5,-111 271.5,-130"/>
<text text-anchor="middle" x="215.5" y="-118" font-family="Ubuntu Mono" font-size="10.00">HHChannel::vReinit</text>
</a>
</g>
</g>
<!-- Node1&#45;&gt;Node7 -->
<g id="edge7_Node000001_Node000007" class="edge">
<title>Node1&#45;&gt;Node7</title>
<g id="a_edge7_Node000001_Node000007"><a xlink:title=" ">
<path fill="none" stroke="#63b8ff" d="M343.92,-145.98C318.35,-140.87 288.62,-134.92 264.3,-130.06"/>
<polygon fill="#63b8ff" stroke="#63b8ff" points="343.37,-149.44 353.86,-147.97 344.74,-142.58 343.37,-149.44"/>
</a>
</g>
</g>
<!-- Node8 -->
<g id="Node000008" class="node">
<title>Node8</title>
<g id="a_Node000008"><a xlink:href="classHHChannel2D.html#a61586448a1588f3a1404ebd607f16a31" target="_top" xlink:title=" ">
<polygon fill="white" stroke="#666666" points="278,-93 153,-93 153,-74 278,-74 278,-93"/>
<text text-anchor="middle" x="215.5" y="-81" font-family="Ubuntu Mono" font-size="10.00">HHChannel2D::vReinit</text>
</a>
</g>
</g>
<!-- Node1&#45;&gt;Node8 -->
<g id="edge8_Node000001_Node000008" class="edge">
<title>Node1&#45;&gt;Node8</title>
<g id="a_edge8_Node000001_Node000008"><a xlink:title=" ">
<path fill="none" stroke="#63b8ff" d="M373.65,-143.24C349.75,-131.36 314.16,-114.49 282,-102.5 272.68,-99.03 262.43,-95.79 252.85,-93"/>
<polygon fill="#63b8ff" stroke="#63b8ff" points="372.32,-146.49 382.83,-147.85 375.46,-140.24 372.32,-146.49"/>
</a>
</g>
</g>
<!-- Node9 -->
<g id="Node000009" class="node">
<title>Node9</title>
<g id="a_Node000009"><a xlink:href="classHHChannelF.html#abadb64d9ec5f357f2da1b8af6f341ea1" target="_top" xlink:title=" ">
<polygon fill="white" stroke="#666666" points="274,-56 157,-56 157,-37 274,-37 274,-56"/>
<text text-anchor="middle" x="215.5" y="-44" font-family="Ubuntu Mono" font-size="10.00">HHChannelF::vReinit</text>
</a>
</g>
</g>
<!-- Node1&#45;&gt;Node9 -->
<g id="edge9_Node000001_Node000009" class="edge">
<title>Node1&#45;&gt;Node9</title>
<g id="a_edge9_Node000001_Node000009"><a xlink:title=" ">
<path fill="none" stroke="#63b8ff" d="M384.33,-140.87C362.31,-120.4 322.17,-85.87 282,-65.5 274.61,-61.75 266.36,-58.63 258.28,-56.08"/>
<polygon fill="#63b8ff" stroke="#63b8ff" points="382.17,-143.64 391.84,-147.97 386.97,-138.56 382.17,-143.64"/>
</a>
</g>
</g>
<!-- Node10 -->
<g id="Node000010" class="node">
<title>Node10</title>
<g id="a_Node000010"><a xlink:href="classHHChannelF2D.html#ac3f41718ccca01121f9bc7ba933566bc" target="_top" xlink:title=" ">
<polygon fill="white" stroke="#666666" points="281,-19 150,-19 150,0 281,0 281,-19"/>
<text text-anchor="middle" x="215.5" y="-7" font-family="Ubuntu Mono" font-size="10.00">HHChannelF2D::vReinit</text>
</a>
</g>
</g>
<!-- Node1&#45;&gt;Node10 -->
<g id="edge10_Node000001_Node000010" class="edge">
<title>Node1&#45;&gt;Node10</title>
<g id="a_edge10_Node000001_Node000010"><a xlink:title=" ">
<path fill="none" stroke="#63b8ff" d="M389.58,-139.3C370.3,-111.32 329.61,-57.89 282,-28.5 275.75,-24.64 268.69,-21.54 261.57,-19.05"/>
<polygon fill="#63b8ff" stroke="#63b8ff" points="386.78,-141.41 395.27,-147.74 392.58,-137.5 386.78,-141.41"/>
</a>
</g>
</g>
<!-- Node6&#45;&gt;Node5 -->
<g id="edge6_Node000006_Node000005" class="edge">
<title>Node6&#45;&gt;Node5</title>
<g id="a_edge6_Node000006_Node000005"><a xlink:title=" ">
<path fill="none" stroke="#63b8ff" d="M154.95,-164.71C141.23,-166.37 126.68,-168.13 113.14,-169.77"/>
<polygon fill="#63b8ff" stroke="#63b8ff" points="155.75,-168.14 165.25,-163.46 154.91,-161.19 155.75,-168.14"/>
</a>
</g>
</g>
</g>
</svg>
</svg>

<style type='text/css'>
<![CDATA[
[data-mouse-over-selected='false'] { opacity: 0.7; }
[data-mouse-over-selected='true']  { opacity: 1.0; }
]]>
</style>
<script type="application/ecmascript"><![CDATA[
document.addEventListener('DOMContentLoaded', (event) => {
  highlightEdges();
  highlightAdjacentNodes();
});
]]></script>
</svg>
