<?xml version="1.0" encoding="UTF-8" standalone="no"?>
<!DOCTYPE svg PUBLIC "-//W3C//DTD SVG 1.1//EN"
 "http://www.w3.org/Graphics/SVG/1.1/DTD/svg11.dtd">
<!-- Generated by graphviz version 2.43.0 (0)
 -->
<!-- Title: NeuroMesh::getStartVoxelInCompt Pages: 1 -->
<svg width="496pt" height="64pt"
 viewBox="0.00 0.00 496.00 64.00" xmlns="http://www.w3.org/2000/svg" xmlns:xlink="http://www.w3.org/1999/xlink">
<g id="graph0" class="graph" transform="scale(1 1) rotate(0) translate(4 60)">
<title>NeuroMesh::getStartVoxelInCompt</title>
<!-- Node1 -->
<g id="Node000001" class="node">
<title>Node1</title>
<g id="a_Node000001"><a xlink:title=" ">
<polygon fill="#999999" stroke="#666666" points="143,-42.5 0,-42.5 0,-12.5 143,-12.5 143,-42.5"/>
<text text-anchor="start" x="8" y="-30.5" font-family="Ubuntu Mono" font-size="10.00">NeuroMesh::getStartVoxel</text>
<text text-anchor="middle" x="71.5" y="-19.5" font-family="Ubuntu Mono" font-size="10.00">InCompt</text>
</a>
</g>
</g>
<!-- Node2 -->
<g id="Node000002" class="node">
<title>Node2</title>
<g id="a_Node000002"><a xlink:href="classNeuroNode.html#a4943fb2e254169fa5aad788c67bd0a75" target="_top" xlink:title=" ">
<polygon fill="white" stroke="#666666" points="329,-56 179,-56 179,-37 329,-37 329,-56"/>
<text text-anchor="middle" x="254" y="-44" font-family="Ubuntu Mono" font-size="10.00">NeuroNode::isDummyNode</text>
</a>
</g>
</g>
<!-- Node1&#45;&gt;Node2 -->
<g id="edge1_Node000001_Node000002" class="edge">
<title>Node1&#45;&gt;Node2</title>
<g id="a_edge1_Node000001_Node000002"><a xlink:title=" ">
<path fill="none" stroke="#63b8ff" d="M143.06,-34.93C151.52,-35.82 160.22,-36.73 168.84,-37.64"/>
<polygon fill="#63b8ff" stroke="#63b8ff" points="168.6,-41.14 178.91,-38.7 169.34,-34.17 168.6,-41.14"/>
</a>
</g>
</g>
<!-- Node4 -->
<g id="Node000004" class="node">
<title>Node4</title>
<g id="a_Node000004"><a xlink:href="classNeuroNode.html#a43f60efefe682bd8070a3113284b67ad" target="_top" xlink:title=" ">
<polygon fill="white" stroke="#666666" points="311,-19 197,-19 197,0 311,0 311,-19"/>
<text text-anchor="middle" x="254" y="-7" font-family="Ubuntu Mono" font-size="10.00">NeuroNode::startFid</text>
</a>
</g>
</g>
<!-- Node1&#45;&gt;Node4 -->
<g id="edge3_Node000001_Node000004" class="edge">
<title>Node1&#45;&gt;Node4</title>
<g id="a_edge3_Node000001_Node000004"><a xlink:title=" ">
<path fill="none" stroke="#63b8ff" d="M143.06,-20.46C157.38,-19.04 172.4,-17.54 186.57,-16.12"/>
<polygon fill="#63b8ff" stroke="#63b8ff" points="187.12,-19.59 196.72,-15.11 186.42,-12.62 187.12,-19.59"/>
</a>
</g>
</g>
<!-- Node3 -->
<g id="Node000003" class="node">
<title>Node3</title>
<g id="a_Node000003"><a xlink:href="classCylBase.html#a1fa6d6203b2286cc3d0b26b6ec8e5176" target="_top" xlink:title=" ">
<polygon fill="white" stroke="#666666" points="488,-56 365,-56 365,-37 488,-37 488,-56"/>
<text text-anchor="middle" x="426.5" y="-44" font-family="Ubuntu Mono" font-size="10.00">CylBase::getNumDivs</text>
</a>
</g>
</g>
<!-- Node2&#45;&gt;Node3 -->
<g id="edge2_Node000002_Node000003" class="edge">
<title>Node2&#45;&gt;Node3</title>
<g id="a_edge2_Node000002_Node000003"><a xlink:title=" ">
<path fill="none" stroke="#63b8ff" d="M329.29,-46.5C337.71,-46.5 346.28,-46.5 354.65,-46.5"/>
<polygon fill="#63b8ff" stroke="#63b8ff" points="354.75,-50 364.75,-46.5 354.75,-43 354.75,-50"/>
</a>
</g>
</g>
</g>
</svg>
