<?xml version="1.0" encoding="UTF-8" standalone="no"?>
<!DOCTYPE svg PUBLIC "-//W3C//DTD SVG 1.1//EN"
 "http://www.w3.org/Graphics/SVG/1.1/DTD/svg11.dtd">
<!-- Generated by graphviz version 2.43.0 (0)
 -->
<!-- Title: OpFunc2::OpFunc2 Pages: 1 -->
<svg width="1018pt" height="1065pt"
 viewBox="0.00 0.00 1018.00 1064.71" xmlns="http://www.w3.org/2000/svg" xmlns:xlink="http://www.w3.org/1999/xlink">
<g id="graph0" class="graph" transform="scale(1 1) rotate(0) translate(4 1060.71)">
<title>OpFunc2::OpFunc2</title>
<!-- Node1 -->
<g id="Node000001" class="node">
<title>Node1</title>
<g id="a_Node000001"><a xlink:title=" ">
<polygon fill="#999999" stroke="#666666" points="1010,-298 903,-298 903,-279 1010,-279 1010,-298"/>
<text text-anchor="middle" x="956.5" y="-286" font-family="Ubuntu Mono" font-size="10.00">OpFunc2::OpFunc2</text>
</a>
</g>
</g>
<!-- Node2 -->
<g id="Node000002" class="node">
<title>Node2</title>
<g id="a_Node000002"><a xlink:href="classmoose_1_1CompartmentBase.html#ac8948ff4655adb71da12b8aa21462122" target="_top" xlink:title=" ">
<polygon fill="white" stroke="#666666" points="863,-957.5 716,-957.5 716,-927.5 863,-927.5 863,-957.5"/>
<text text-anchor="start" x="724" y="-945.5" font-family="Ubuntu Mono" font-size="10.00">moose::CompartmentBase</text>
<text text-anchor="middle" x="789.5" y="-934.5" font-family="Ubuntu Mono" font-size="10.00">::initCinfo</text>
</a>
</g>
</g>
<!-- Node1&#45;&gt;Node2 -->
<g id="edge1_Node000001_Node000002" class="edge">
<title>Node1&#45;&gt;Node2</title>
<g id="a_edge1_Node000001_Node000002"><a xlink:title=" ">
<path fill="none" stroke="#63b8ff" d="M951.86,-308.23C940.8,-367.45 905.94,-548.65 867,-696.5 843.7,-784.95 808.81,-889.07 795.71,-927.38"/>
<polygon fill="#63b8ff" stroke="#63b8ff" points="955.36,-308.53 953.75,-298.06 948.48,-307.25 955.36,-308.53"/>
</a>
</g>
</g>
<!-- Node4 -->
<g id="Node000004" class="node">
<title>Node4</title>
<g id="a_Node000004"><a xlink:href="classSymCompartment.html#a0cc18476081046e605602f9ec745650c" target="_top" xlink:title=" ">
<polygon fill="white" stroke="#666666" points="494,-1043 341,-1043 341,-1024 494,-1024 494,-1043"/>
<text text-anchor="middle" x="417.5" y="-1031" font-family="Ubuntu Mono" font-size="10.00">SymCompartment::initCinfo</text>
</a>
</g>
</g>
<!-- Node1&#45;&gt;Node4 -->
<g id="edge14_Node000001_Node000004" class="edge">
<title>Node1&#45;&gt;Node4</title>
<g id="a_edge14_Node000001_Node000004"><a xlink:title=" ">
<path fill="none" stroke="#63b8ff" d="M955.79,-308.43C956.88,-409.63 956.66,-865.74 867,-966.5 764.16,-1082.07 554.95,-1059.7 463.26,-1043.05"/>
<polygon fill="#63b8ff" stroke="#63b8ff" points="959.29,-308.31 955.67,-298.35 952.29,-308.39 959.29,-308.31"/>
</a>
</g>
</g>
<!-- Node25 -->
<g id="Node000025" class="node">
<title>Node25</title>
<g id="a_Node000025"><a xlink:href="classIzhikevichNrn.html#ae794907e4ccd2389fac0aabeb40313c4" target="_top" xlink:title=" ">
<polygon fill="white" stroke="#666666" points="854.5,-687 724.5,-687 724.5,-668 854.5,-668 854.5,-687"/>
<text text-anchor="middle" x="789.5" y="-675" font-family="Ubuntu Mono" font-size="10.00">IzhikevichNrn::initCinfo</text>
</a>
</g>
</g>
<!-- Node1&#45;&gt;Node25 -->
<g id="edge10_Node000001_Node000025" class="edge">
<title>Node1&#45;&gt;Node25</title>
<g id="a_edge10_Node000001_Node000025"><a xlink:title=" ">
<path fill="none" stroke="#63b8ff" d="M953.5,-308.25C946.07,-377.64 917.86,-608.79 867,-659.5 863.42,-663.06 859.29,-665.97 854.82,-668.34"/>
<polygon fill="#63b8ff" stroke="#63b8ff" points="956.99,-308.53 954.55,-298.22 950.03,-307.81 956.99,-308.53"/>
</a>
</g>
</g>
<!-- Node26 -->
<g id="Node000026" class="node">
<title>Node26</title>
<g id="a_Node000026"><a xlink:href="classMarkovSolverBase.html#a8d94098ef919eb390369a92c6d551500" target="_top" xlink:title=" ">
<polygon fill="white" stroke="#666666" points="867,-650 712,-650 712,-631 867,-631 867,-650"/>
<text text-anchor="middle" x="789.5" y="-638" font-family="Ubuntu Mono" font-size="10.00">MarkovSolverBase::initCinfo</text>
</a>
</g>
</g>
<!-- Node1&#45;&gt;Node26 -->
<g id="edge11_Node000001_Node000026" class="edge">
<title>Node1&#45;&gt;Node26</title>
<g id="a_edge11_Node000001_Node000026"><a xlink:title=" ">
<path fill="none" stroke="#63b8ff" d="M952.93,-308.35C944.12,-373.25 913.15,-577.62 867,-622.5 863.58,-625.83 859.66,-628.58 855.45,-630.86"/>
<polygon fill="#63b8ff" stroke="#63b8ff" points="956.42,-308.6 954.27,-298.23 949.48,-307.68 956.42,-308.6"/>
</a>
</g>
</g>
<!-- Node28 -->
<g id="Node000028" class="node">
<title>Node28</title>
<g id="a_Node000028"><a xlink:href="classNeuron.html#a81197d09a302f2420430fe3f7874926f" target="_top" xlink:title=" ">
<polygon fill="white" stroke="#666666" points="839,-613 740,-613 740,-594 839,-594 839,-613"/>
<text text-anchor="middle" x="789.5" y="-601" font-family="Ubuntu Mono" font-size="10.00">Neuron::initCinfo</text>
</a>
</g>
</g>
<!-- Node1&#45;&gt;Node28 -->
<g id="edge13_Node000001_Node000028" class="edge">
<title>Node1&#45;&gt;Node28</title>
<g id="a_edge13_Node000001_Node000028"><a xlink:title=" ">
<path fill="none" stroke="#63b8ff" d="M955.92,-308.35C955.9,-361.65 948.14,-508.98 867,-585.5 859.36,-592.71 849.39,-597.21 839.19,-599.98"/>
<polygon fill="#63b8ff" stroke="#63b8ff" points="959.42,-308.17 955.82,-298.21 952.42,-308.24 959.42,-308.17"/>
</a>
</g>
</g>
<!-- Node29 -->
<g id="Node000029" class="node">
<title>Node29</title>
<g id="a_Node000029"><a xlink:href="classArith.html#ace57997662b947e376df821b870dc98b" target="_top" xlink:title=" ">
<polygon fill="white" stroke="#666666" points="833,-576 746,-576 746,-557 833,-557 833,-576"/>
<text text-anchor="middle" x="789.5" y="-564" font-family="Ubuntu Mono" font-size="10.00">Arith::initCinfo</text>
</a>
</g>
</g>
<!-- Node1&#45;&gt;Node29 -->
<g id="edge15_Node000001_Node000029" class="edge">
<title>Node1&#45;&gt;Node29</title>
<g id="a_edge15_Node000001_Node000029"><a xlink:title=" ">
<path fill="none" stroke="#63b8ff" d="M944.59,-306.88C912.64,-360.72 820.01,-516.78 796.16,-556.97"/>
<polygon fill="#63b8ff" stroke="#63b8ff" points="947.73,-308.46 949.82,-298.07 941.71,-304.88 947.73,-308.46"/>
</a>
</g>
</g>
<!-- Node46 -->
<g id="Node000046" class="node">
<title>Node46</title>
<g id="a_Node000046"><a xlink:href="classTableBase.html#a743b983e93984115449360b4def6a17c" target="_top" xlink:title=" ">
<polygon fill="white" stroke="#666666" points="846,-317 733,-317 733,-298 846,-298 846,-317"/>
<text text-anchor="middle" x="789.5" y="-305" font-family="Ubuntu Mono" font-size="10.00">TableBase::initCinfo</text>
</a>
</g>
</g>
<!-- Node1&#45;&gt;Node46 -->
<g id="edge32_Node000001_Node000046" class="edge">
<title>Node1&#45;&gt;Node46</title>
<g id="a_edge32_Node000001_Node000046"><a xlink:title=" ">
<path fill="none" stroke="#63b8ff" d="M892.89,-295.71C877.49,-297.48 861.11,-299.37 846.07,-301.1"/>
<polygon fill="#63b8ff" stroke="#63b8ff" points="893.31,-299.19 902.84,-294.56 892.5,-292.23 893.31,-299.19"/>
</a>
</g>
</g>
<!-- Node53 -->
<g id="Node000053" class="node">
<title>Node53</title>
<g id="a_Node000053"><a xlink:href="classPulseGen.html#a530cf5676b9787486826b5fa29e5b3b6" target="_top" xlink:title=" ">
<polygon fill="white" stroke="#666666" points="844.5,-280 734.5,-280 734.5,-261 844.5,-261 844.5,-280"/>
<text text-anchor="middle" x="789.5" y="-268" font-family="Ubuntu Mono" font-size="10.00">PulseGen::initCinfo</text>
</a>
</g>
</g>
<!-- Node1&#45;&gt;Node53 -->
<g id="edge39_Node000001_Node000053" class="edge">
<title>Node1&#45;&gt;Node53</title>
<g id="a_edge39_Node000001_Node000053"><a xlink:title=" ">
<path fill="none" stroke="#63b8ff" d="M892.62,-281.64C876.82,-279.92 859.99,-278.08 844.65,-276.41"/>
<polygon fill="#63b8ff" stroke="#63b8ff" points="892.52,-285.15 902.84,-282.76 893.28,-278.19 892.52,-285.15"/>
</a>
</g>
</g>
<!-- Node54 -->
<g id="Node000054" class="node">
<title>Node54</title>
<g id="a_Node000054"><a xlink:href="classEnz.html#a3e5ca82f4ac57afcbfa71949ce0cf749" target="_top" xlink:title=" ">
<polygon fill="white" stroke="#666666" points="830,-243 749,-243 749,-224 830,-224 830,-243"/>
<text text-anchor="middle" x="789.5" y="-231" font-family="Ubuntu Mono" font-size="10.00">Enz::initCinfo</text>
</a>
</g>
</g>
<!-- Node1&#45;&gt;Node54 -->
<g id="edge40_Node000001_Node000054" class="edge">
<title>Node1&#45;&gt;Node54</title>
<g id="a_edge40_Node000001_Node000054"><a xlink:title=" ">
<path fill="none" stroke="#63b8ff" d="M925,-274.83C908.12,-267.59 886.64,-258.9 867,-252.5 855.16,-248.64 842.07,-245.13 830.12,-242.2"/>
<polygon fill="#63b8ff" stroke="#63b8ff" points="923.79,-278.12 934.36,-278.9 926.58,-271.71 923.79,-278.12"/>
</a>
</g>
</g>
<!-- Node55 -->
<g id="Node000055" class="node">
<title>Node55</title>
<g id="a_Node000055"><a xlink:href="classStoich.html#ad8c6117d11f46222476ef4a464ecdc09" target="_top" xlink:title=" ">
<polygon fill="white" stroke="#666666" points="836.5,-206 742.5,-206 742.5,-187 836.5,-187 836.5,-206"/>
<text text-anchor="middle" x="789.5" y="-194" font-family="Ubuntu Mono" font-size="10.00">Stoich::initCinfo</text>
</a>
</g>
</g>
<!-- Node1&#45;&gt;Node55 -->
<g id="edge41_Node000001_Node000055" class="edge">
<title>Node1&#45;&gt;Node55</title>
<g id="a_edge41_Node000001_Node000055"><a xlink:title=" ">
<path fill="none" stroke="#63b8ff" d="M939.46,-271.4C922.86,-254.72 895.43,-229.82 867,-215.5 857.59,-210.76 846.92,-207.15 836.6,-204.43"/>
<polygon fill="#63b8ff" stroke="#63b8ff" points="937.21,-274.11 946.69,-278.85 942.23,-269.24 937.21,-274.11"/>
</a>
</g>
</g>
<!-- Node56 -->
<g id="Node000056" class="node">
<title>Node56</title>
<g id="a_Node000056"><a xlink:href="classPresynMesh.html#a52795d3835decd603599f6d60c6f28a4" target="_top" xlink:title="We assume the bouton to be a hemisphere.">
<polygon fill="white" stroke="#666666" points="851,-169 728,-169 728,-150 851,-150 851,-169"/>
<text text-anchor="middle" x="789.5" y="-157" font-family="Ubuntu Mono" font-size="10.00">PresynMesh::initCinfo</text>
</a>
</g>
</g>
<!-- Node1&#45;&gt;Node56 -->
<g id="edge42_Node000001_Node000056" class="edge">
<title>Node1&#45;&gt;Node56</title>
<g id="a_edge42_Node000001_Node000056"><a xlink:title=" ">
<path fill="none" stroke="#63b8ff" d="M945.76,-270.03C931.73,-245.28 903.47,-201.79 867,-178.5 860.89,-174.6 854.03,-171.49 846.99,-169.03"/>
<polygon fill="#63b8ff" stroke="#63b8ff" points="942.7,-271.72 950.58,-278.8 948.83,-268.35 942.7,-271.72"/>
</a>
</g>
</g>
<!-- Node57 -->
<g id="Node000057" class="node">
<title>Node57</title>
<g id="a_Node000057"><a xlink:href="classSparseMsg.html#ab0ecf3046d28351986deb6790d2c7668" target="_top" xlink:title=" ">
<polygon fill="white" stroke="#666666" points="848,-132 731,-132 731,-113 848,-113 848,-132"/>
<text text-anchor="middle" x="789.5" y="-120" font-family="Ubuntu Mono" font-size="10.00">SparseMsg::initCinfo</text>
</a>
</g>
</g>
<!-- Node1&#45;&gt;Node57 -->
<g id="edge43_Node000001_Node000057" class="edge">
<title>Node1&#45;&gt;Node57</title>
<g id="a_edge43_Node000001_Node000057"><a xlink:title=" ">
<path fill="none" stroke="#63b8ff" d="M949.28,-268.95C938.11,-237.14 911.58,-174.43 867,-141.5 861.39,-137.35 854.97,-134.11 848.3,-131.56"/>
<polygon fill="#63b8ff" stroke="#63b8ff" points="946.09,-270.45 952.59,-278.82 952.72,-268.22 946.09,-270.45"/>
</a>
</g>
</g>
<!-- Node63 -->
<g id="Node000063" class="node">
<title>Node63</title>
<g id="a_Node000063"><a xlink:href="classShell.html#a907372fb6d91df75ff6a682da3d60487" target="_top" xlink:title=" ">
<polygon fill="white" stroke="#666666" points="833.5,-95 745.5,-95 745.5,-76 833.5,-76 833.5,-95"/>
<text text-anchor="middle" x="789.5" y="-83" font-family="Ubuntu Mono" font-size="10.00">Shell::initCinfo</text>
</a>
</g>
</g>
<!-- Node1&#45;&gt;Node63 -->
<g id="edge47_Node000001_Node000063" class="edge">
<title>Node1&#45;&gt;Node63</title>
<g id="a_edge47_Node000001_Node000063"><a xlink:title=" ">
<path fill="none" stroke="#63b8ff" d="M951.7,-268.42C943.43,-230.36 920.08,-147.68 867,-104.5 857.55,-96.81 845.43,-92.18 833.63,-89.39"/>
<polygon fill="#63b8ff" stroke="#63b8ff" points="948.38,-269.61 953.81,-278.7 955.23,-268.21 948.38,-269.61"/>
</a>
</g>
</g>
<!-- Node64 -->
<g id="Node000064" class="node">
<title>Node64</title>
<g id="a_Node000064"><a xlink:href="classPoolBase.html#ab1f8c9dd618b024f576b9cfb9872ac41" target="_top" xlink:title=" ">
<polygon fill="white" stroke="#666666" points="866.5,-56 712.5,-56 712.5,-37 866.5,-37 866.5,-56"/>
<text text-anchor="middle" x="789.5" y="-44" font-family="Ubuntu Mono" font-size="10.00">PoolBase::initPoolBaseCinfo</text>
</a>
</g>
</g>
<!-- Node1&#45;&gt;Node64 -->
<g id="edge49_Node000001_Node000064" class="edge">
<title>Node1&#45;&gt;Node64</title>
<g id="a_edge49_Node000001_Node000064"><a xlink:title=" ">
<path fill="none" stroke="#63b8ff" d="M953.43,-268.79C947.84,-225.64 928.41,-122.34 867,-67.5 861.56,-62.64 855.09,-58.89 848.25,-56"/>
<polygon fill="#63b8ff" stroke="#63b8ff" points="949.97,-269.32 954.62,-278.83 956.92,-268.49 949.97,-269.32"/>
</a>
</g>
</g>
<!-- Node3 -->
<g id="Node000003" class="node">
<title>Node3</title>
<g id="a_Node000003"><a xlink:href="classmoose_1_1Compartment.html#aa5bd02bc40798f360f386c918ec52f2d" target="_top" xlink:title=" ">
<polygon fill="white" stroke="#666666" points="664.5,-1005.5 541.5,-1005.5 541.5,-975.5 664.5,-975.5 664.5,-1005.5"/>
<text text-anchor="start" x="549.5" y="-993.5" font-family="Ubuntu Mono" font-size="10.00">moose::Compartment</text>
<text text-anchor="middle" x="603" y="-982.5" font-family="Ubuntu Mono" font-size="10.00">::initCinfo</text>
</a>
</g>
</g>
<!-- Node2&#45;&gt;Node3 -->
<g id="edge2_Node000002_Node000003" class="edge">
<title>Node2&#45;&gt;Node3</title>
<g id="a_edge2_Node000002_Node000003"><a xlink:title=" ">
<path fill="none" stroke="#63b8ff" d="M720.93,-960.08C701.48,-965.14 680.45,-970.61 661.67,-975.5"/>
<polygon fill="#63b8ff" stroke="#63b8ff" points="721.83,-963.46 730.63,-957.56 720.07,-956.69 721.83,-963.46"/>
</a>
</g>
</g>
<!-- Node20 -->
<g id="Node000020" class="node">
<title>Node20</title>
<g id="a_Node000020"><a xlink:href="classZombieCompartment.html#a12aa5199ad8afd5f6da20814c12c3b65" target="_top" xlink:title=" ">
<polygon fill="white" stroke="#666666" points="667,-957.5 539,-957.5 539,-927.5 667,-927.5 667,-957.5"/>
<text text-anchor="start" x="547" y="-945.5" font-family="Ubuntu Mono" font-size="10.00">ZombieCompartment::</text>
<text text-anchor="middle" x="603" y="-934.5" font-family="Ubuntu Mono" font-size="10.00">initCinfo</text>
</a>
</g>
</g>
<!-- Node2&#45;&gt;Node20 -->
<g id="edge8_Node000002_Node000020" class="edge">
<title>Node2&#45;&gt;Node20</title>
<g id="a_edge8_Node000002_Node000020"><a xlink:title=" ">
<path fill="none" stroke="#63b8ff" d="M705.54,-942.5C692.61,-942.5 679.42,-942.5 667.03,-942.5"/>
<polygon fill="#63b8ff" stroke="#63b8ff" points="705.85,-946 715.85,-942.5 705.85,-939 705.85,-946"/>
</a>
</g>
</g>
<!-- Node3&#45;&gt;Node4 -->
<g id="edge3_Node000003_Node000004" class="edge">
<title>Node3&#45;&gt;Node4</title>
<g id="a_edge3_Node000003_Node000004"><a xlink:title=" ">
<path fill="none" stroke="#63b8ff" d="M531.42,-1007.04C506.93,-1012.78 480.31,-1019.02 459.07,-1023.99"/>
<polygon fill="#63b8ff" stroke="#63b8ff" points="532.47,-1010.39 541.41,-1004.7 530.87,-1003.57 532.47,-1010.39"/>
</a>
</g>
</g>
<!-- Node11 -->
<g id="Node000011" class="node">
<title>Node11</title>
<g id="a_Node000011"><a xlink:href="classmoose_1_1IntFireBase.html#afc83677d7097cb48a5c8de1934880183" target="_top" xlink:title=" ">
<polygon fill="#fff0f0" stroke="red" points="472.5,-1005.5 362.5,-1005.5 362.5,-975.5 472.5,-975.5 472.5,-1005.5"/>
<text text-anchor="start" x="370.5" y="-993.5" font-family="Ubuntu Mono" font-size="10.00">moose::IntFireBase</text>
<text text-anchor="middle" x="417.5" y="-982.5" font-family="Ubuntu Mono" font-size="10.00">::initCinfo</text>
</a>
</g>
</g>
<!-- Node3&#45;&gt;Node11 -->
<g id="edge6_Node000003_Node000011" class="edge">
<title>Node3&#45;&gt;Node11</title>
<g id="a_edge6_Node000003_Node000011"><a xlink:title=" ">
<path fill="none" stroke="#63b8ff" d="M531.34,-990.5C511.82,-990.5 490.95,-990.5 472.54,-990.5"/>
<polygon fill="#63b8ff" stroke="#63b8ff" points="531.41,-994 541.41,-990.5 531.41,-987 531.41,-994"/>
</a>
</g>
</g>
<!-- Node18 -->
<g id="Node000018" class="node">
<title>Node18</title>
<g id="a_Node000018"><a xlink:href="classHSolve.html#a423981576f253b33c6e9091cb3ae0ea6" target="_top" xlink:title=" ">
<polygon fill="#fff0f0" stroke="red" points="471.5,-957 363.5,-957 363.5,-938 471.5,-938 471.5,-957"/>
<text text-anchor="middle" x="417.5" y="-945" font-family="Ubuntu Mono" font-size="10.00">HSolve::unzombify</text>
</a>
</g>
</g>
<!-- Node3&#45;&gt;Node18 -->
<g id="edge7_Node000003_Node000018" class="edge">
<title>Node3&#45;&gt;Node18</title>
<g id="a_edge7_Node000003_Node000018"><a xlink:title=" ">
<path fill="none" stroke="#63b8ff" d="M531.42,-973.96C506.93,-968.22 480.31,-961.98 459.07,-957.01"/>
<polygon fill="#63b8ff" stroke="#63b8ff" points="530.87,-977.43 541.41,-976.3 532.47,-970.61 530.87,-977.43"/>
</a>
</g>
</g>
<!-- Node5 -->
<g id="Node000005" class="node">
<title>Node5</title>
<g id="a_Node000005"><a xlink:href="classReadCell.html#a1113d754c8abecf8a46850596bd074bd" target="_top" xlink:title=" ">
<polygon fill="white" stroke="#666666" points="305,-1043 147,-1043 147,-1024 305,-1024 305,-1043"/>
<text text-anchor="middle" x="226" y="-1031" font-family="Ubuntu Mono" font-size="10.00">ReadCell::buildCompartment</text>
</a>
</g>
</g>
<!-- Node4&#45;&gt;Node5 -->
<g id="edge4_Node000004_Node000005" class="edge">
<title>Node4&#45;&gt;Node5</title>
<g id="a_edge4_Node000004_Node000005"><a xlink:title=" ">
<path fill="none" stroke="#63b8ff" d="M330.51,-1033.5C322.03,-1033.5 313.46,-1033.5 305.07,-1033.5"/>
<polygon fill="#63b8ff" stroke="#63b8ff" points="330.79,-1037 340.79,-1033.5 330.79,-1030 330.79,-1037"/>
</a>
</g>
</g>
<!-- Node6 -->
<g id="Node000006" class="node">
<title>Node6</title>
<g id="a_Node000006"><a xlink:href="classReadCell.html#ad6fca0463a6f2ea2b09d8aadb5578afc" target="_top" xlink:title=" ">
<polygon fill="#fff0f0" stroke="red" points="111,-1043 0,-1043 0,-1024 111,-1024 111,-1043"/>
<text text-anchor="middle" x="55.5" y="-1031" font-family="Ubuntu Mono" font-size="10.00">ReadCell::readData</text>
</a>
</g>
</g>
<!-- Node5&#45;&gt;Node6 -->
<g id="edge5_Node000005_Node000006" class="edge">
<title>Node5&#45;&gt;Node6</title>
<g id="a_edge5_Node000005_Node000006"><a xlink:title=" ">
<path fill="none" stroke="#63b8ff" d="M136.5,-1033.5C127.84,-1033.5 119.25,-1033.5 111.08,-1033.5"/>
<polygon fill="#63b8ff" stroke="#63b8ff" points="136.67,-1037 146.67,-1033.5 136.67,-1030 136.67,-1037"/>
</a>
</g>
</g>
<!-- Node21 -->
<g id="Node000021" class="node">
<title>Node21</title>
<g id="a_Node000021"><a xlink:href="classHSolve.html#aa86d341407e0eb9928b085c9df38b06c" target="_top" xlink:title=" ">
<polygon fill="#fff0f0" stroke="red" points="465.5,-920 369.5,-920 369.5,-901 465.5,-901 465.5,-920"/>
<text text-anchor="middle" x="417.5" y="-908" font-family="Ubuntu Mono" font-size="10.00">HSolve::zombify</text>
</a>
</g>
</g>
<!-- Node20&#45;&gt;Node21 -->
<g id="edge9_Node000020_Node000021" class="edge">
<title>Node20&#45;&gt;Node21</title>
<g id="a_edge9_Node000020_Node000021"><a xlink:title=" ">
<path fill="none" stroke="#63b8ff" d="M528.84,-929.74C507.51,-926.02 484.78,-922.06 465.53,-918.7"/>
<polygon fill="#63b8ff" stroke="#63b8ff" points="528.4,-933.22 538.85,-931.49 529.6,-926.32 528.4,-933.22"/>
</a>
</g>
</g>
<!-- Node27 -->
<g id="Node000027" class="node">
<title>Node27</title>
<g id="a_Node000027"><a xlink:href="classMarkovSolver.html#a780b0cc742d99f1eef6996f08f85bf34" target="_top" xlink:title=" ">
<polygon fill="white" stroke="#666666" points="668.5,-909 537.5,-909 537.5,-890 668.5,-890 668.5,-909"/>
<text text-anchor="middle" x="603" y="-897" font-family="Ubuntu Mono" font-size="10.00">MarkovSolver::initCinfo</text>
</a>
</g>
</g>
<!-- Node26&#45;&gt;Node27 -->
<g id="edge12_Node000026_Node000027" class="edge">
<title>Node26&#45;&gt;Node27</title>
<g id="a_edge12_Node000026_Node000027"><a xlink:title=" ">
<path fill="none" stroke="#63b8ff" d="M715.85,-655.8C714.5,-656.95 713.21,-658.18 712,-659.5 644.3,-733.04 743.64,-807.91 676,-881.5 672.95,-884.82 669.39,-887.57 665.51,-889.84"/>
<polygon fill="#63b8ff" stroke="#63b8ff" points="717.96,-658.6 724.22,-650.05 714,-652.83 717.96,-658.6"/>
</a>
</g>
</g>
<!-- Node30 -->
<g id="Node000030" class="node">
<title>Node30</title>
<g id="a_Node000030"><a xlink:href="testAsync_8cpp.html#a02bfd9535ad935ed1e0c5e5004b31c12" target="_top" xlink:title=" ">
<polygon fill="white" stroke="#666666" points="648.5,-872 557.5,-872 557.5,-853 648.5,-853 648.5,-872"/>
<text text-anchor="middle" x="603" y="-860" font-family="Ubuntu Mono" font-size="10.00">test2ArgSetVec</text>
</a>
</g>
</g>
<!-- Node29&#45;&gt;Node30 -->
<g id="edge16_Node000029_Node000030" class="edge">
<title>Node29&#45;&gt;Node30</title>
<g id="a_edge16_Node000029_Node000030"><a xlink:title=" ">
<path fill="none" stroke="#63b8ff" d="M735.8,-570.86C726.79,-573.86 718.32,-578.48 712,-585.5 634.26,-671.89 753.67,-758.05 676,-844.5 668.94,-852.36 659.01,-857.03 648.78,-859.75"/>
<polygon fill="#63b8ff" stroke="#63b8ff" points="736.95,-574.18 745.71,-568.21 735.14,-567.42 736.95,-574.18"/>
</a>
</g>
</g>
<!-- Node31 -->
<g id="Node000031" class="node">
<title>Node31</title>
<g id="a_Node000031"><a xlink:href="testBuiltins_8cpp.html#ab1428045390d120d14e78c3551f2e906" target="_top" xlink:title=" ">
<polygon fill="white" stroke="#666666" points="632.5,-835 573.5,-835 573.5,-816 632.5,-816 632.5,-835"/>
<text text-anchor="middle" x="603" y="-823" font-family="Ubuntu Mono" font-size="10.00">testArith</text>
</a>
</g>
</g>
<!-- Node29&#45;&gt;Node31 -->
<g id="edge17_Node000029_Node000031" class="edge">
<title>Node29&#45;&gt;Node31</title>
<g id="a_edge17_Node000029_Node000031"><a xlink:title=" ">
<path fill="none" stroke="#63b8ff" d="M735.93,-570.98C726.91,-573.97 718.4,-578.55 712,-585.5 644.3,-659.04 743.64,-733.91 676,-807.5 665.1,-819.36 647.68,-823.93 632.7,-825.5"/>
<polygon fill="#63b8ff" stroke="#63b8ff" points="737.08,-574.29 745.83,-568.33 735.27,-567.53 737.08,-574.29"/>
</a>
</g>
</g>
<!-- Node33 -->
<g id="Node000033" class="node">
<title>Node33</title>
<g id="a_Node000033"><a xlink:href="testMsg_8cpp.html#a702283b869ec387b3a13e71e7393e362" target="_top" xlink:title=" ">
<polygon fill="white" stroke="#666666" points="652,-798 554,-798 554,-779 652,-779 652,-798"/>
<text text-anchor="middle" x="603" y="-786" font-family="Ubuntu Mono" font-size="10.00">testAssortedMsg</text>
</a>
</g>
</g>
<!-- Node29&#45;&gt;Node33 -->
<g id="edge19_Node000029_Node000033" class="edge">
<title>Node29&#45;&gt;Node33</title>
<g id="a_edge19_Node000029_Node000033"><a xlink:title=" ">
<path fill="none" stroke="#63b8ff" d="M735.81,-571.24C726.88,-574.21 718.44,-578.72 712,-585.5 654.31,-646.23 733.65,-709.73 676,-770.5 669.62,-777.23 661.13,-781.6 652.22,-784.4"/>
<polygon fill="#63b8ff" stroke="#63b8ff" points="736.88,-574.57 745.61,-568.58 735.05,-567.82 736.88,-574.57"/>
</a>
</g>
</g>
<!-- Node35 -->
<g id="Node000035" class="node">
<title>Node35</title>
<g id="a_Node000035"><a xlink:href="testAsync_8cpp.html#a12781c290bf52156517375db5eaab110" target="_top" xlink:title=" ">
<polygon fill="white" stroke="#666666" points="647,-761 559,-761 559,-742 647,-742 647,-761"/>
<text text-anchor="middle" x="603" y="-749" font-family="Ubuntu Mono" font-size="10.00">testCreateMsg</text>
</a>
</g>
</g>
<!-- Node29&#45;&gt;Node35 -->
<g id="edge21_Node000029_Node000035" class="edge">
<title>Node29&#45;&gt;Node35</title>
<g id="a_edge21_Node000029_Node000035"><a xlink:title=" ">
<path fill="none" stroke="#63b8ff" d="M736.06,-571.48C727.11,-574.43 718.59,-578.88 712,-585.5 664.25,-633.48 723.72,-685.48 676,-733.5 668.28,-741.27 657.75,-745.86 647.13,-748.53"/>
<polygon fill="#63b8ff" stroke="#63b8ff" points="737.13,-574.82 745.87,-568.83 735.3,-568.06 737.13,-574.82"/>
</a>
</g>
</g>
<!-- Node36 -->
<g id="Node000036" class="node">
<title>Node36</title>
<g id="a_Node000036"><a xlink:href="testBuiltins_8cpp.html#a0b23c31b7503dd93064294b42d4ff085" target="_top" xlink:title=" ">
<polygon fill="white" stroke="#666666" points="643.5,-724 562.5,-724 562.5,-705 643.5,-705 643.5,-724"/>
<text text-anchor="middle" x="603" y="-712" font-family="Ubuntu Mono" font-size="10.00">testFibonacci</text>
</a>
</g>
</g>
<!-- Node29&#45;&gt;Node36 -->
<g id="edge22_Node000029_Node000036" class="edge">
<title>Node29&#45;&gt;Node36</title>
<g id="a_edge22_Node000029_Node000036"><a xlink:title=" ">
<path fill="none" stroke="#63b8ff" d="M736.17,-571.98C727.28,-574.9 718.76,-579.2 712,-585.5 674.06,-620.86 713.91,-661.11 676,-696.5 667.24,-704.68 655.34,-709.29 643.74,-711.85"/>
<polygon fill="#63b8ff" stroke="#63b8ff" points="737.15,-575.34 745.88,-569.33 735.31,-568.59 737.15,-575.34"/>
</a>
</g>
</g>
<!-- Node37 -->
<g id="Node000037" class="node">
<title>Node37</title>
<g id="a_Node000037"><a xlink:href="testAsync_8cpp.html#ae34f7c6c5570c6e570b2b69d74fba402" target="_top" xlink:title=" ">
<polygon fill="white" stroke="#666666" points="629.5,-687 576.5,-687 576.5,-668 629.5,-668 629.5,-687"/>
<text text-anchor="middle" x="603" y="-675" font-family="Ubuntu Mono" font-size="10.00">testGet</text>
</a>
</g>
</g>
<!-- Node29&#45;&gt;Node37 -->
<g id="edge23_Node000029_Node000037" class="edge">
<title>Node29&#45;&gt;Node37</title>
<g id="a_edge23_Node000029_Node000037"><a xlink:title=" ">
<path fill="none" stroke="#63b8ff" d="M735.99,-573.05C727.35,-575.87 718.95,-579.87 712,-585.5 683.58,-608.52 704.4,-636.46 676,-659.5 662.99,-670.05 644.63,-674.53 629.7,-676.38"/>
<polygon fill="#63b8ff" stroke="#63b8ff" points="737.09,-576.37 745.79,-570.33 735.22,-569.63 737.09,-576.37"/>
</a>
</g>
</g>
<!-- Node38 -->
<g id="Node000038" class="node">
<title>Node38</title>
<g id="a_Node000038"><a xlink:href="testAsync_8cpp.html#aa84ca82e4ceff1f2d3c79eef5bb2f699" target="_top" xlink:title=" ">
<polygon fill="white" stroke="#666666" points="628,-650 578,-650 578,-631 628,-631 628,-650"/>
<text text-anchor="middle" x="603" y="-638" font-family="Ubuntu Mono" font-size="10.00">testIsA</text>
</a>
</g>
</g>
<!-- Node29&#45;&gt;Node38 -->
<g id="edge24_Node000029_Node000038" class="edge">
<title>Node29&#45;&gt;Node38</title>
<g id="a_edge24_Node000029_Node000038"><a xlink:title=" ">
<path fill="none" stroke="#63b8ff" d="M736.18,-575.35C727.78,-577.93 719.42,-581.24 712,-585.5 692.1,-596.93 695.89,-611.06 676,-622.5 661.37,-630.92 642.86,-635.43 628.27,-637.84"/>
<polygon fill="#63b8ff" stroke="#63b8ff" points="737.28,-578.68 746,-572.66 735.43,-571.93 737.28,-578.68"/>
</a>
</g>
</g>
<!-- Node39 -->
<g id="Node000039" class="node">
<title>Node39</title>
<g id="a_Node000039"><a xlink:href="testAsync_8cpp.html#acacf1d75459344c62faa215a53ea68b5" target="_top" xlink:title=" ">
<polygon fill="white" stroke="#666666" points="654.5,-613 551.5,-613 551.5,-594 654.5,-594 654.5,-613"/>
<text text-anchor="middle" x="603" y="-601" font-family="Ubuntu Mono" font-size="10.00">testLookupSetGet</text>
</a>
</g>
</g>
<!-- Node29&#45;&gt;Node39 -->
<g id="edge25_Node000029_Node000039" class="edge">
<title>Node29&#45;&gt;Node39</title>
<g id="a_edge25_Node000029_Node000039"><a xlink:title=" ">
<path fill="none" stroke="#63b8ff" d="M735.81,-577.07C709.22,-582.4 677.23,-588.81 651.42,-593.99"/>
<polygon fill="#63b8ff" stroke="#63b8ff" points="736.59,-580.48 745.71,-575.08 735.22,-573.62 736.59,-580.48"/>
</a>
</g>
</g>
<!-- Node40 -->
<g id="Node000040" class="node">
<title>Node40</title>
<g id="a_Node000040"><a xlink:href="testAsync_8cpp.html#ac44591c7444604ba199b0f3c410410d9" target="_top" xlink:title=" ">
<polygon fill="white" stroke="#666666" points="642.5,-576 563.5,-576 563.5,-557 642.5,-557 642.5,-576"/>
<text text-anchor="middle" x="603" y="-564" font-family="Ubuntu Mono" font-size="10.00">testMsgField</text>
</a>
</g>
</g>
<!-- Node29&#45;&gt;Node40 -->
<g id="edge26_Node000029_Node000040" class="edge">
<title>Node29&#45;&gt;Node40</title>
<g id="a_edge26_Node000029_Node000040"><a xlink:title=" ">
<path fill="none" stroke="#63b8ff" d="M735.54,-566.5C705.95,-566.5 669.73,-566.5 642.79,-566.5"/>
<polygon fill="#63b8ff" stroke="#63b8ff" points="735.71,-570 745.71,-566.5 735.71,-563 735.71,-570"/>
</a>
</g>
</g>
<!-- Node41 -->
<g id="Node000041" class="node">
<title>Node41</title>
<g id="a_Node000041"><a xlink:href="testAsync_8cpp.html#adeff2e00c34ac98a6804d92045d9bc14" target="_top" xlink:title=" ">
<polygon fill="white" stroke="#666666" points="643,-539 563,-539 563,-520 643,-520 643,-539"/>
<text text-anchor="middle" x="603" y="-527" font-family="Ubuntu Mono" font-size="10.00">testSendMsg</text>
</a>
</g>
</g>
<!-- Node29&#45;&gt;Node41 -->
<g id="edge27_Node000029_Node000041" class="edge">
<title>Node29&#45;&gt;Node41</title>
<g id="a_edge27_Node000029_Node000041"><a xlink:title=" ">
<path fill="none" stroke="#63b8ff" d="M735.58,-555.89C706.1,-549.97 670.02,-542.74 643.1,-537.34"/>
<polygon fill="#63b8ff" stroke="#63b8ff" points="735.22,-559.38 745.71,-557.92 736.59,-552.52 735.22,-559.38"/>
</a>
</g>
</g>
<!-- Node42 -->
<g id="Node000042" class="node">
<title>Node42</title>
<g id="a_Node000042"><a xlink:href="testAsync_8cpp.html#a15622d9bbd8efd516be27a451d8d3242" target="_top" xlink:title=" ">
<polygon fill="white" stroke="#666666" points="637,-502 569,-502 569,-483 637,-483 637,-502"/>
<text text-anchor="middle" x="603" y="-490" font-family="Ubuntu Mono" font-size="10.00">testSetGet</text>
</a>
</g>
</g>
<!-- Node29&#45;&gt;Node42 -->
<g id="edge28_Node000029_Node000042" class="edge">
<title>Node29&#45;&gt;Node42</title>
<g id="a_edge28_Node000029_Node000042"><a xlink:title=" ">
<path fill="none" stroke="#63b8ff" d="M762.55,-551.99C740.16,-539.92 706.66,-522.91 676,-511.5 663.52,-506.85 649.43,-502.87 637.04,-499.77"/>
<polygon fill="#63b8ff" stroke="#63b8ff" points="760.98,-555.12 771.43,-556.83 764.33,-548.97 760.98,-555.12"/>
</a>
</g>
</g>
<!-- Node43 -->
<g id="Node000043" class="node">
<title>Node43</title>
<g id="a_Node000043"><a xlink:href="testAsync_8cpp.html#a53399e0be4d02cdf1a0b2b0e95762a1c" target="_top" xlink:title=" ">
<polygon fill="white" stroke="#666666" points="656.5,-465 549.5,-465 549.5,-446 656.5,-446 656.5,-465"/>
<text text-anchor="middle" x="603" y="-453" font-family="Ubuntu Mono" font-size="10.00">testSetGetExtField</text>
</a>
</g>
</g>
<!-- Node29&#45;&gt;Node43 -->
<g id="edge29_Node000029_Node000043" class="edge">
<title>Node29&#45;&gt;Node43</title>
<g id="a_edge29_Node000029_Node000043"><a xlink:title=" ">
<path fill="none" stroke="#63b8ff" d="M772.61,-549.66C752.16,-528.98 714.66,-494.22 676,-474.5 668.51,-470.68 660.19,-467.58 651.93,-465.07"/>
<polygon fill="#63b8ff" stroke="#63b8ff" points="770.1,-552.1 779.57,-556.84 775.12,-547.23 770.1,-552.1"/>
</a>
</g>
</g>
<!-- Node44 -->
<g id="Node000044" class="node">
<title>Node44</title>
<g id="a_Node000044"><a xlink:href="testAsync_8cpp.html#af8b0efc90939c2247b1d6de7987d3c71" target="_top" xlink:title=" ">
<polygon fill="white" stroke="#666666" points="636,-428 570,-428 570,-409 636,-409 636,-428"/>
<text text-anchor="middle" x="603" y="-416" font-family="Ubuntu Mono" font-size="10.00">testStrGet</text>
</a>
</g>
</g>
<!-- Node29&#45;&gt;Node44 -->
<g id="edge30_Node000029_Node000044" class="edge">
<title>Node29&#45;&gt;Node44</title>
<g id="a_edge30_Node000029_Node000044"><a xlink:title=" ">
<path fill="none" stroke="#63b8ff" d="M777.39,-547.77C759.62,-519.48 722.06,-466.11 676,-437.5 664.03,-430.06 649.2,-425.52 636.12,-422.75"/>
<polygon fill="#63b8ff" stroke="#63b8ff" points="774.62,-549.96 782.83,-556.65 780.59,-546.3 774.62,-549.96"/>
</a>
</g>
</g>
<!-- Node45 -->
<g id="Node000045" class="node">
<title>Node45</title>
<g id="a_Node000045"><a xlink:href="testAsync_8cpp.html#adbb0b720827d0faa5b02e7abfa95ca9c" target="_top" xlink:title=" ">
<polygon fill="white" stroke="#666666" points="635.5,-391 570.5,-391 570.5,-372 635.5,-372 635.5,-391"/>
<text text-anchor="middle" x="603" y="-379" font-family="Ubuntu Mono" font-size="10.00">testStrSet</text>
</a>
</g>
</g>
<!-- Node29&#45;&gt;Node45 -->
<g id="edge31_Node000029_Node000045" class="edge">
<title>Node29&#45;&gt;Node45</title>
<g id="a_edge31_Node000029_Node000045"><a xlink:title=" ">
<path fill="none" stroke="#63b8ff" d="M780.97,-547.39C766.25,-512.6 730.31,-439 676,-400.5 664.19,-392.13 648.93,-387.44 635.5,-384.82"/>
<polygon fill="#63b8ff" stroke="#63b8ff" points="777.82,-548.93 784.85,-556.85 784.29,-546.27 777.82,-548.93"/>
</a>
</g>
</g>
<!-- Node32 -->
<g id="Node000032" class="node">
<title>Node32</title>
<g id="a_Node000032"><a xlink:href="testBuiltins_8cpp.html#a7ab6d854a57ffd12234aa6d0e54e7520" target="_top" xlink:title=" ">
<polygon fill="white" stroke="#666666" points="453.5,-835 381.5,-835 381.5,-816 453.5,-816 453.5,-835"/>
<text text-anchor="middle" x="417.5" y="-823" font-family="Ubuntu Mono" font-size="10.00">testBuiltins</text>
</a>
</g>
</g>
<!-- Node31&#45;&gt;Node32 -->
<g id="edge18_Node000031_Node000032" class="edge">
<title>Node31&#45;&gt;Node32</title>
<g id="a_edge18_Node000031_Node000032"><a xlink:title=" ">
<path fill="none" stroke="#63b8ff" d="M563.3,-825.5C530.86,-825.5 484.93,-825.5 453.56,-825.5"/>
<polygon fill="#63b8ff" stroke="#63b8ff" points="563.33,-829 573.33,-825.5 563.33,-822 563.33,-829"/>
</a>
</g>
</g>
<!-- Node34 -->
<g id="Node000034" class="node">
<title>Node34</title>
<g id="a_Node000034"><a xlink:href="testMsg_8cpp.html#abbd289522f4195e882d3bd397b4ebfb3" target="_top" xlink:title=" ">
<polygon fill="white" stroke="#666666" points="445.5,-798 389.5,-798 389.5,-779 445.5,-779 445.5,-798"/>
<text text-anchor="middle" x="417.5" y="-786" font-family="Ubuntu Mono" font-size="10.00">testMsg</text>
</a>
</g>
</g>
<!-- Node33&#45;&gt;Node34 -->
<g id="edge20_Node000033_Node000034" class="edge">
<title>Node33&#45;&gt;Node34</title>
<g id="a_edge20_Node000033_Node000034"><a xlink:title=" ">
<path fill="none" stroke="#63b8ff" d="M543.4,-788.5C510.61,-788.5 471.29,-788.5 445.65,-788.5"/>
<polygon fill="#63b8ff" stroke="#63b8ff" points="543.79,-792 553.79,-788.5 543.79,-785 543.79,-792"/>
</a>
</g>
</g>
<!-- Node47 -->
<g id="Node000047" class="node">
<title>Node47</title>
<g id="a_Node000047"><a xlink:href="classInterpol.html#a61a7a1a821ccd6ef218390259564f15c" target="_top" xlink:title=" ">
<polygon fill="white" stroke="#666666" points="653.5,-354 552.5,-354 552.5,-335 653.5,-335 653.5,-354"/>
<text text-anchor="middle" x="603" y="-342" font-family="Ubuntu Mono" font-size="10.00">Interpol::initCinfo</text>
</a>
</g>
</g>
<!-- Node46&#45;&gt;Node47 -->
<g id="edge33_Node000046_Node000047" class="edge">
<title>Node46&#45;&gt;Node47</title>
<g id="a_edge33_Node000046_Node000047"><a xlink:title=" ">
<path fill="none" stroke="#63b8ff" d="M731.08,-319.02C705.58,-324.13 675.92,-330.08 651.67,-334.94"/>
<polygon fill="#63b8ff" stroke="#63b8ff" points="731.87,-322.43 740.99,-317.03 730.49,-315.56 731.87,-322.43"/>
</a>
</g>
</g>
<!-- Node48 -->
<g id="Node000048" class="node">
<title>Node48</title>
<g id="a_Node000048"><a xlink:href="classSocketStreamer.html#a8f6995482d6f639362e1508b37297404" target="_top" xlink:title=" ">
<polygon fill="white" stroke="#666666" points="673.5,-317 532.5,-317 532.5,-298 673.5,-298 673.5,-317"/>
<text text-anchor="middle" x="603" y="-305" font-family="Ubuntu Mono" font-size="10.00">SocketStreamer::initCinfo</text>
</a>
</g>
</g>
<!-- Node46&#45;&gt;Node48 -->
<g id="edge34_Node000046_Node000048" class="edge">
<title>Node46&#45;&gt;Node48</title>
<g id="a_edge34_Node000046_Node000048"><a xlink:title=" ">
<path fill="none" stroke="#63b8ff" d="M722.62,-307.5C706.7,-307.5 689.63,-307.5 673.55,-307.5"/>
<polygon fill="#63b8ff" stroke="#63b8ff" points="722.89,-311 732.89,-307.5 722.89,-304 722.89,-311"/>
</a>
</g>
</g>
<!-- Node49 -->
<g id="Node000049" class="node">
<title>Node49</title>
<g id="a_Node000049"><a xlink:href="classStimulusTable.html#a511798470c8a03e18c4bcc03d3f5abbf" target="_top" xlink:title=" ">
<polygon fill="white" stroke="#666666" points="669,-280 537,-280 537,-261 669,-261 669,-280"/>
<text text-anchor="middle" x="603" y="-268" font-family="Ubuntu Mono" font-size="10.00">StimulusTable::initCinfo</text>
</a>
</g>
</g>
<!-- Node46&#45;&gt;Node49 -->
<g id="edge35_Node000046_Node000049" class="edge">
<title>Node46&#45;&gt;Node49</title>
<g id="a_edge35_Node000046_Node000049"><a xlink:title=" ">
<path fill="none" stroke="#63b8ff" d="M731.08,-295.98C705.58,-290.87 675.92,-284.92 651.67,-280.06"/>
<polygon fill="#63b8ff" stroke="#63b8ff" points="730.49,-299.44 740.99,-297.97 731.87,-292.57 730.49,-299.44"/>
</a>
</g>
</g>
<!-- Node50 -->
<g id="Node000050" class="node">
<title>Node50</title>
<g id="a_Node000050"><a xlink:href="classStreamer.html#ac907f2b6e6605333f338367f2712e7e3" target="_top" xlink:title=" ">
<polygon fill="white" stroke="#666666" points="657.5,-243 548.5,-243 548.5,-224 657.5,-224 657.5,-243"/>
<text text-anchor="middle" x="603" y="-231" font-family="Ubuntu Mono" font-size="10.00">Streamer::initCinfo</text>
</a>
</g>
</g>
<!-- Node46&#45;&gt;Node50 -->
<g id="edge36_Node000046_Node000050" class="edge">
<title>Node46&#45;&gt;Node50</title>
<g id="a_edge36_Node000046_Node000050"><a xlink:title=" ">
<path fill="none" stroke="#63b8ff" d="M723.05,-294.82C719.22,-293.25 715.51,-291.48 712,-289.5 692.03,-278.2 695.81,-264.07 676,-252.5 669.41,-248.65 662.04,-245.57 654.59,-243.1"/>
<polygon fill="#63b8ff" stroke="#63b8ff" points="722.16,-298.22 732.75,-298.34 724.55,-291.64 722.16,-298.22"/>
</a>
</g>
</g>
<!-- Node51 -->
<g id="Node000051" class="node">
<title>Node51</title>
<g id="a_Node000051"><a xlink:href="classTable.html#a510dd5d32479feb8100fc46ee5245240" target="_top" xlink:title=" ">
<polygon fill="white" stroke="#666666" points="647.5,-206 558.5,-206 558.5,-187 647.5,-187 647.5,-206"/>
<text text-anchor="middle" x="603" y="-194" font-family="Ubuntu Mono" font-size="10.00">Table::initCinfo</text>
</a>
</g>
</g>
<!-- Node46&#45;&gt;Node51 -->
<g id="edge37_Node000046_Node000051" class="edge">
<title>Node46&#45;&gt;Node51</title>
<g id="a_edge37_Node000046_Node000051"><a xlink:title=" ">
<path fill="none" stroke="#63b8ff" d="M723.47,-296.71C719.39,-294.69 715.51,-292.31 712,-289.5 683.44,-266.66 704.25,-238.72 676,-215.5 667.91,-208.85 657.73,-204.51 647.6,-201.68"/>
<polygon fill="#63b8ff" stroke="#63b8ff" points="722.12,-299.94 732.7,-300.58 724.83,-293.49 722.12,-299.94"/>
</a>
</g>
</g>
<!-- Node52 -->
<g id="Node000052" class="node">
<title>Node52</title>
<g id="a_Node000052"><a xlink:href="classTimeTable.html#ac4c9635d822ba8716e350bce976401f1" target="_top" xlink:title=" ">
<polygon fill="white" stroke="#666666" points="660,-169 546,-169 546,-150 660,-150 660,-169"/>
<text text-anchor="middle" x="603" y="-157" font-family="Ubuntu Mono" font-size="10.00">TimeTable::initCinfo</text>
</a>
</g>
</g>
<!-- Node46&#45;&gt;Node52 -->
<g id="edge38_Node000046_Node000052" class="edge">
<title>Node46&#45;&gt;Node52</title>
<g id="a_edge38_Node000046_Node000052"><a xlink:title=" ">
<path fill="none" stroke="#63b8ff" d="M723.43,-297.48C719.29,-295.28 715.42,-292.65 712,-289.5 673.85,-254.37 713.68,-214.14 676,-178.5 671.4,-174.15 665.92,-170.76 660.07,-168.14"/>
<polygon fill="#63b8ff" stroke="#63b8ff" points="722.27,-300.79 732.84,-301.61 725.09,-294.39 722.27,-300.79"/>
</a>
</g>
</g>
<!-- Node58 -->
<g id="Node000058" class="node">
<title>Node58</title>
<g id="a_Node000058"><a xlink:href="classMsg.html#af3de05897dc7602c64678a31c58ebece" target="_top" xlink:title=" ">
<polygon fill="white" stroke="#666666" points="666.5,-132 539.5,-132 539.5,-113 666.5,-113 666.5,-132"/>
<text text-anchor="middle" x="603" y="-120" font-family="Ubuntu Mono" font-size="10.00">Msg::initMsgManagers</text>
</a>
</g>
</g>
<!-- Node57&#45;&gt;Node58 -->
<g id="edge44_Node000057_Node000058" class="edge">
<title>Node57&#45;&gt;Node58</title>
<g id="a_edge44_Node000057_Node000058"><a xlink:title=" ">
<path fill="none" stroke="#63b8ff" d="M720.65,-122.5C702.97,-122.5 684.01,-122.5 666.62,-122.5"/>
<polygon fill="#63b8ff" stroke="#63b8ff" points="720.88,-126 730.88,-122.5 720.88,-119 720.88,-126"/>
</a>
</g>
</g>
<!-- Node59 -->
<g id="Node000059" class="node">
<title>Node59</title>
<g id="a_Node000059"><a xlink:href="main_8cpp.html#a6e304b494f9a324f952d9f2033b2b136" target="_top" xlink:title=" ">
<polygon fill="#fff0f0" stroke="red" points="433.5,-95 401.5,-95 401.5,-76 433.5,-76 433.5,-95"/>
<text text-anchor="middle" x="417.5" y="-83" font-family="Ubuntu Mono" font-size="10.00">init</text>
</a>
</g>
</g>
<!-- Node58&#45;&gt;Node59 -->
<g id="edge45_Node000058_Node000059" class="edge">
<title>Node58&#45;&gt;Node59</title>
<g id="a_edge45_Node000058_Node000059"><a xlink:title=" ">
<path fill="none" stroke="#63b8ff" d="M544.64,-110.93C506.02,-103.15 457.9,-93.44 433.78,-88.58"/>
<polygon fill="#63b8ff" stroke="#63b8ff" points="544.25,-114.43 554.74,-112.97 545.63,-107.56 544.25,-114.43"/>
</a>
</g>
</g>
<!-- Node61 -->
<g id="Node000061" class="node">
<title>Node61</title>
<g id="a_Node000061"><a xlink:href="namespacepymoose.html#ac084ce08f68367317e7c014c61520ac9" target="_top" xlink:title="Initialize shell object.">
<polygon fill="#fff0f0" stroke="red" points="471,-132 364,-132 364,-113 471,-113 471,-132"/>
<text text-anchor="middle" x="417.5" y="-120" font-family="Ubuntu Mono" font-size="10.00">pymoose::initShell</text>
</a>
</g>
</g>
<!-- Node58&#45;&gt;Node61 -->
<g id="edge46_Node000058_Node000061" class="edge">
<title>Node58&#45;&gt;Node61</title>
<g id="a_edge46_Node000058_Node000061"><a xlink:title=" ">
<path fill="none" stroke="#63b8ff" d="M529.32,-122.5C509.87,-122.5 489.22,-122.5 471.09,-122.5"/>
<polygon fill="#63b8ff" stroke="#63b8ff" points="529.36,-126 539.36,-122.5 529.36,-119 529.36,-126"/>
</a>
</g>
</g>
<!-- Node63&#45;&gt;Node59 -->
<g id="edge48_Node000063_Node000059" class="edge">
<title>Node63&#45;&gt;Node59</title>
<g id="a_edge48_Node000063_Node000059"><a xlink:title=" ">
<path fill="none" stroke="#63b8ff" d="M735.24,-85.5C649.18,-85.5 484.05,-85.5 433.55,-85.5"/>
<polygon fill="#63b8ff" stroke="#63b8ff" points="735.33,-89 745.33,-85.5 735.33,-82 735.33,-89"/>
</a>
</g>
</g>
<!-- Node65 -->
<g id="Node000065" class="node">
<title>Node65</title>
<g id="a_Node000065"><a xlink:href="classPoolBase.html#aa1dccbc9ddb85bc4be60826c59ae5fd5" target="_top" xlink:title=" ">
<polygon fill="white" stroke="#666666" points="676,-56 530,-56 530,-37 676,-37 676,-56"/>
<text text-anchor="middle" x="603" y="-44" font-family="Ubuntu Mono" font-size="10.00">PoolBase::initBufPoolCinfo</text>
</a>
</g>
</g>
<!-- Node64&#45;&gt;Node65 -->
<g id="edge50_Node000064_Node000065" class="edge">
<title>Node64&#45;&gt;Node65</title>
<g id="a_edge50_Node000064_Node000065"><a xlink:title=" ">
<path fill="none" stroke="#63b8ff" d="M702.19,-46.5C693.45,-46.5 684.64,-46.5 676.08,-46.5"/>
<polygon fill="#63b8ff" stroke="#63b8ff" points="702.39,-50 712.39,-46.5 702.39,-43 702.39,-50"/>
</a>
</g>
</g>
<!-- Node66 -->
<g id="Node000066" class="node">
<title>Node66</title>
<g id="a_Node000066"><a xlink:href="classPoolBase.html#ac24e395c1def55e706526d5031e8f528" target="_top" xlink:title=" ">
<polygon fill="white" stroke="#666666" points="668,-19 538,-19 538,0 668,0 668,-19"/>
<text text-anchor="middle" x="603" y="-7" font-family="Ubuntu Mono" font-size="10.00">PoolBase::initPoolCinfo</text>
</a>
</g>
</g>
<!-- Node64&#45;&gt;Node66 -->
<g id="edge51_Node000064_Node000066" class="edge">
<title>Node64&#45;&gt;Node66</title>
<g id="a_edge51_Node000064_Node000066"><a xlink:title=" ">
<path fill="none" stroke="#63b8ff" d="M731.08,-34.98C705.58,-29.87 675.92,-23.92 651.67,-19.06"/>
<polygon fill="#63b8ff" stroke="#63b8ff" points="730.49,-38.44 740.99,-36.97 731.87,-31.57 730.49,-38.44"/>
</a>
</g>
</g>
</g>
</svg>
