<?xml version="1.0" encoding="UTF-8" standalone="no"?>
<!DOCTYPE svg PUBLIC "-//W3C//DTD SVG 1.1//EN"
 "http://www.w3.org/Graphics/SVG/1.1/DTD/svg11.dtd">
<!-- Generated by graphviz version 2.43.0 (0)
 -->
<!-- Title: FieldElement::numField Pages: 1 -->
<svg width="416pt" height="113pt"
 viewBox="0.00 0.00 416.00 112.50" xmlns="http://www.w3.org/2000/svg" xmlns:xlink="http://www.w3.org/1999/xlink">

<svg id="main" version="1.1" xmlns="http://www.w3.org/2000/svg" xmlns:xlink="http://www.w3.org/1999/xlink" xml:space="preserve" onload="init(evt)">
<style type="text/css"><![CDATA[
.node, .edge {opacity: 0.7;}
.node.selected, .edge.selected {opacity: 1;}
.edge:hover path { stroke: red; }
.edge:hover polygon { stroke: red; fill: red; }
]]></style>
<script type="application/ecmascript" xlink:href="svg.min.js"/>
<svg id="graph" class="graph">
<g id="graph0" class="graph" transform="scale(1 1) rotate(0) translate(4 108.5)">
<title>FieldElement::numField</title>
<!-- Node1 -->
<g id="Node000001" class="node">
<title>Node1</title>
<g id="a_Node000001"><a xlink:title="Virtual: Returns number of field entries for specified data.">
<polygon fill="#999999" stroke="#666666" points="131,-67.5 0,-67.5 0,-48.5 131,-48.5 131,-67.5"/>
<text text-anchor="middle" x="65.5" y="-55.5" font-family="Ubuntu Mono" font-size="10.00">FieldElement::numField</text>
</a>
</g>
</g>
<!-- Node2 -->
<g id="Node000002" class="node">
<title>Node2</title>
<g id="a_Node000002"><a xlink:href="classElement.html#a1978a0a584f1b10ea4a7c67e69880042" target="_top" xlink:title=" ">
<polygon fill="white" stroke="#666666" points="273.5,-104.5 188.5,-104.5 188.5,-85.5 273.5,-85.5 273.5,-104.5"/>
<text text-anchor="middle" x="231" y="-92.5" font-family="Ubuntu Mono" font-size="10.00">Element::data</text>
</a>
</g>
</g>
<!-- Node1&#45;&gt;Node2 -->
<g id="edge1_Node000001_Node000002" class="edge">
<title>Node1&#45;&gt;Node2</title>
<g id="a_edge1_Node000001_Node000002"><a xlink:title=" ">
<path fill="none" stroke="#63b8ff" d="M108.61,-67.53C129.86,-72.34 155.82,-78.21 178.28,-83.3"/>
<polygon fill="#63b8ff" stroke="#63b8ff" points="177.79,-86.77 188.32,-85.57 179.34,-79.95 177.79,-86.77"/>
</a>
</g>
</g>
<!-- Node3 -->
<g id="Node000003" class="node">
<title>Node3</title>
<g id="a_Node000003"><a xlink:href="classId.html#a574e06330597163aef0ea4c99de7ff4a" target="_top" xlink:title="Synonym for Id::operator()()">
<polygon fill="white" stroke="#666666" points="267,-67.5 195,-67.5 195,-48.5 267,-48.5 267,-67.5"/>
<text text-anchor="middle" x="231" y="-55.5" font-family="Ubuntu Mono" font-size="10.00">Id::element</text>
</a>
</g>
</g>
<!-- Node1&#45;&gt;Node3 -->
<g id="edge2_Node000001_Node000003" class="edge">
<title>Node1&#45;&gt;Node3</title>
<g id="a_edge2_Node000001_Node000003"><a xlink:title=" ">
<path fill="none" stroke="#63b8ff" d="M131.12,-58C148.99,-58 167.99,-58 184.52,-58"/>
<polygon fill="#63b8ff" stroke="#63b8ff" points="184.99,-61.5 194.99,-58 184.99,-54.5 184.99,-61.5"/>
</a>
</g>
</g>
<!-- Node5 -->
<g id="Node000005" class="node">
<title>Node5</title>
<g id="a_Node000005"><a xlink:href="classFieldElementFinfoBase.html#a869f88c77ab9641652f8800251d007a3" target="_top" xlink:title="virtual func to get size of Field array, using char* for parent">
<polygon fill="white" stroke="#666666" points="295,-30 167,-30 167,0 295,0 295,-30"/>
<text text-anchor="start" x="175" y="-18" font-family="Ubuntu Mono" font-size="10.00">FieldElementFinfoBase</text>
<text text-anchor="middle" x="231" y="-7" font-family="Ubuntu Mono" font-size="10.00">::getNumField</text>
</a>
</g>
</g>
<!-- Node1&#45;&gt;Node5 -->
<g id="edge4_Node000001_Node000005" class="edge">
<title>Node1&#45;&gt;Node5</title>
<g id="a_edge4_Node000001_Node000005"><a xlink:title=" ">
<path fill="none" stroke="#63b8ff" d="M102.79,-48.46C120.57,-43.78 142.57,-37.99 163.24,-32.56"/>
<polygon fill="#63b8ff" stroke="#63b8ff" points="164.16,-35.93 172.94,-30.01 162.38,-29.16 164.16,-35.93"/>
</a>
</g>
</g>
<!-- Node4 -->
<g id="Node000004" class="node">
<title>Node4</title>
<g id="a_Node000004"><a xlink:href="classId.html#a2d5e7b4d5d918aadfe45102691c2be27" target="_top" xlink:title=" ">
<polygon fill="white" stroke="#666666" points="408,-67.5 331,-67.5 331,-48.5 408,-48.5 408,-67.5"/>
<text text-anchor="middle" x="369.5" y="-55.5" font-family="Ubuntu Mono" font-size="10.00">Id::elements</text>
</a>
</g>
</g>
<!-- Node3&#45;&gt;Node4 -->
<g id="edge3_Node000003_Node000004" class="edge">
<title>Node3&#45;&gt;Node4</title>
<g id="a_edge3_Node000003_Node000004"><a xlink:title=" ">
<path fill="none" stroke="#63b8ff" d="M267.15,-58C283.4,-58 302.94,-58 320.51,-58"/>
<polygon fill="#63b8ff" stroke="#63b8ff" points="320.59,-61.5 330.59,-58 320.59,-54.5 320.59,-61.5"/>
</a>
</g>
</g>
</g>
</svg>
</svg>

<style type='text/css'>
<![CDATA[
[data-mouse-over-selected='false'] { opacity: 0.7; }
[data-mouse-over-selected='true']  { opacity: 1.0; }
]]>
</style>
<script type="application/ecmascript"><![CDATA[
document.addEventListener('DOMContentLoaded', (event) => {
  highlightEdges();
  highlightAdjacentNodes();
});
]]></script>
</svg>
