<?xml version="1.0" encoding="UTF-8" standalone="no"?>
<!DOCTYPE svg PUBLIC "-//W3C//DTD SVG 1.1//EN"
 "http://www.w3.org/Graphics/SVG/1.1/DTD/svg11.dtd">
<!-- Generated by graphviz version 2.43.0 (0)
 -->
<!-- Title: Neutral::getNeighbors Pages: 1 -->
<svg width="1206pt" height="861pt"
 viewBox="0.00 0.00 1206.00 861.35" xmlns="http://www.w3.org/2000/svg" xmlns:xlink="http://www.w3.org/1999/xlink">
<g id="graph0" class="graph" transform="scale(1 1) rotate(0) translate(4 857.35)">
<title>Neutral::getNeighbors</title>
<!-- Node1 -->
<g id="Node000001" class="node">
<title>Node1</title>
<g id="a_Node000001"><a xlink:title=" ">
<polygon fill="#999999" stroke="#666666" points="124,-657.35 0,-657.35 0,-638.35 124,-638.35 124,-657.35"/>
<text text-anchor="middle" x="62" y="-645.35" font-family="Ubuntu Mono" font-size="10.00">Neutral::getNeighbors</text>
</a>
</g>
</g>
<!-- Node2 -->
<g id="Node000002" class="node">
<title>Node2</title>
<g id="a_Node000002"><a xlink:href="classElement.html#a33610036b72724ca3b7fedaf7e692841" target="_top" xlink:title=" ">
<polygon fill="white" stroke="#666666" points="267.5,-751.35 180.5,-751.35 180.5,-732.35 267.5,-732.35 267.5,-751.35"/>
<text text-anchor="middle" x="224" y="-739.35" font-family="Ubuntu Mono" font-size="10.00">Element::cinfo</text>
</a>
</g>
</g>
<!-- Node1&#45;&gt;Node2 -->
<g id="edge1_Node000001_Node000002" class="edge">
<title>Node1&#45;&gt;Node2</title>
<g id="a_edge1_Node000001_Node000002"><a xlink:title=" ">
<path fill="none" stroke="#63b8ff" d="M72.57,-657.48C89.03,-673.51 124.36,-705.68 160,-723.85 163.71,-725.74 167.64,-727.46 171.66,-729.01"/>
<polygon fill="#63b8ff" stroke="#63b8ff" points="170.53,-732.33 181.12,-732.35 172.86,-725.73 170.53,-732.33"/>
</a>
</g>
</g>
<!-- Node3 -->
<g id="Node000003" class="node">
<title>Node3</title>
<g id="a_Node000003"><a xlink:href="classEref.html#a47b59ab86165cceb0bde80c76c3f7fa2" target="_top" xlink:title=" ">
<polygon fill="white" stroke="#666666" points="574.5,-816.35 492.5,-816.35 492.5,-797.35 574.5,-797.35 574.5,-816.35"/>
<text text-anchor="middle" x="533.5" y="-804.35" font-family="Ubuntu Mono" font-size="10.00">Eref::element</text>
</a>
</g>
</g>
<!-- Node1&#45;&gt;Node3 -->
<g id="edge2_Node000001_Node000003" class="edge">
<title>Node1&#45;&gt;Node3</title>
<g id="a_edge2_Node000001_Node000003"><a xlink:title=" ">
<path fill="none" stroke="#63b8ff" d="M124.27,-648.57C203.17,-652.45 341.06,-669.6 433,-738.85 454.87,-755.33 446.58,-773.13 469,-788.85 473.23,-791.82 477.94,-794.3 482.83,-796.37"/>
<polygon fill="#63b8ff" stroke="#63b8ff" points="481.78,-799.72 492.38,-799.88 484.2,-793.14 481.78,-799.72"/>
</a>
</g>
</g>
<!-- Node4 -->
<g id="Node000004" class="node">
<title>Node4</title>
<g id="a_Node000004"><a xlink:href="classCinfo.html#a7642d2a9ffe54cc8008df39de171ab63" target="_top" xlink:title=" ">
<polygon fill="white" stroke="#666666" points="578.5,-779.35 488.5,-779.35 488.5,-760.35 578.5,-760.35 578.5,-779.35"/>
<text text-anchor="middle" x="533.5" y="-767.35" font-family="Ubuntu Mono" font-size="10.00">Cinfo::findFinfo</text>
</a>
</g>
</g>
<!-- Node1&#45;&gt;Node4 -->
<g id="edge3_Node000001_Node000004" class="edge">
<title>Node1&#45;&gt;Node4</title>
<g id="a_edge3_Node000001_Node000004"><a xlink:title=" ">
<path fill="none" stroke="#63b8ff" d="M91.57,-638.32C158.42,-617.93 327.35,-577.78 433,-652.85 471.17,-679.97 434.72,-719.97 469,-751.85 471.98,-754.63 475.36,-756.98 478.97,-758.97"/>
<polygon fill="#63b8ff" stroke="#63b8ff" points="477.76,-762.26 488.31,-763.22 480.66,-755.89 477.76,-762.26"/>
</a>
</g>
</g>
<!-- Node5 -->
<g id="Node000005" class="node">
<title>Node5</title>
<g id="a_Node000005"><a xlink:href="classElement.html#abec0b4d9c993bd1eb92b24563d9d8534" target="_top" xlink:title=" ">
<polygon fill="white" stroke="#666666" points="288,-197.35 160,-197.35 160,-178.35 288,-178.35 288,-197.35"/>
<text text-anchor="middle" x="224" y="-185.35" font-family="Ubuntu Mono" font-size="10.00">Element::getNeighbors</text>
</a>
</g>
</g>
<!-- Node1&#45;&gt;Node5 -->
<g id="edge4_Node000001_Node000005" class="edge">
<title>Node1&#45;&gt;Node5</title>
<g id="a_edge4_Node000001_Node000005"><a xlink:title=" ">
<path fill="none" stroke="#63b8ff" d="M66.34,-638.25C86.23,-581.07 189.05,-285.45 216.34,-206.99"/>
<polygon fill="#63b8ff" stroke="#63b8ff" points="219.7,-208 219.68,-197.41 213.09,-205.7 219.7,-208"/>
</a>
</g>
</g>
<!-- Node26 -->
<g id="Node000026" class="node">
<title>Node26</title>
<g id="a_Node000026"><a xlink:href="classEref.html#aa96699f886e00b8eb3759c71cc8747bb" target="_top" xlink:title=" ">
<polygon fill="white" stroke="#666666" points="249,-65.35 199,-65.35 199,-46.35 249,-46.35 249,-65.35"/>
<text text-anchor="middle" x="224" y="-53.35" font-family="Ubuntu Mono" font-size="10.00">Eref::id</text>
</a>
</g>
</g>
<!-- Node1&#45;&gt;Node26 -->
<g id="edge32_Node000001_Node000026" class="edge">
<title>Node1&#45;&gt;Node26</title>
<g id="a_edge32_Node000001_Node000026"><a xlink:title=" ">
<path fill="none" stroke="#63b8ff" d="M63.85,-638.1C68.49,-587.45 93.05,-349.9 160,-168.85 173.1,-133.44 196.16,-95.8 210.46,-74.14"/>
<polygon fill="#63b8ff" stroke="#63b8ff" points="213.5,-75.88 216.16,-65.63 207.69,-71.98 213.5,-75.88"/>
</a>
</g>
</g>
<!-- Node27 -->
<g id="Node000027" class="node">
<title>Node27</title>
<g id="a_Node000027"><a xlink:href="classId.html#ad0984685af5a98bc7aa429b03a97bd01" target="_top" xlink:title=" ">
<polygon fill="white" stroke="#666666" points="250.5,-714.35 197.5,-714.35 197.5,-695.35 250.5,-695.35 250.5,-714.35"/>
<text text-anchor="middle" x="224" y="-702.35" font-family="Ubuntu Mono" font-size="10.00">Id::path</text>
</a>
</g>
</g>
<!-- Node1&#45;&gt;Node27 -->
<g id="edge34_Node000001_Node000027" class="edge">
<title>Node1&#45;&gt;Node27</title>
<g id="a_edge34_Node000001_Node000027"><a xlink:title=" ">
<path fill="none" stroke="#63b8ff" d="M89.78,-657.39C116.72,-666.99 158.38,-681.83 187.94,-692.36"/>
<polygon fill="#63b8ff" stroke="#63b8ff" points="186.86,-695.69 197.46,-695.75 189.21,-689.1 186.86,-695.69"/>
</a>
</g>
</g>
<!-- Node6 -->
<g id="Node000006" class="node">
<title>Node6</title>
<g id="a_Node000006"><a xlink:href="classSharedFinfo.html#aa73f2e562b1d54450ec27249bb48337e" target="_top" xlink:title=" ">
<polygon fill="white" stroke="#666666" points="429,-234.35 328,-234.35 328,-215.35 429,-215.35 429,-234.35"/>
<text text-anchor="middle" x="378.5" y="-222.35" font-family="Ubuntu Mono" font-size="10.00">SharedFinfo::dest</text>
</a>
</g>
</g>
<!-- Node5&#45;&gt;Node6 -->
<g id="edge5_Node000005_Node000006" class="edge">
<title>Node5&#45;&gt;Node6</title>
<g id="a_edge5_Node000005_Node000006"><a xlink:title=" ">
<path fill="none" stroke="#63b8ff" d="M264.27,-197.38C283.76,-202.11 307.51,-207.87 328.21,-212.89"/>
<polygon fill="#63b8ff" stroke="#63b8ff" points="327.55,-216.34 338.1,-215.29 329.2,-209.53 327.55,-216.34"/>
</a>
</g>
</g>
<!-- Node7 -->
<g id="Node000007" class="node">
<title>Node7</title>
<g id="a_Node000007"><a xlink:href="classElement.html#a01e45f128db9727df0042ef067fd300b" target="_top" xlink:title=" ">
<polygon fill="white" stroke="#666666" points="433,-160.35 324,-160.35 324,-141.35 433,-141.35 433,-160.35"/>
<text text-anchor="middle" x="378.5" y="-148.35" font-family="Ubuntu Mono" font-size="10.00">Element::getInputs</text>
</a>
</g>
</g>
<!-- Node5&#45;&gt;Node7 -->
<g id="edge6_Node000005_Node000007" class="edge">
<title>Node5&#45;&gt;Node7</title>
<g id="a_edge6_Node000005_Node000007"><a xlink:title=" ">
<path fill="none" stroke="#63b8ff" d="M264.27,-178.32C283.76,-173.6 307.51,-167.83 328.21,-162.81"/>
<polygon fill="#63b8ff" stroke="#63b8ff" points="329.2,-166.17 338.1,-160.41 327.55,-159.37 329.2,-166.17"/>
</a>
</g>
</g>
<!-- Node22 -->
<g id="Node000022" class="node">
<title>Node22</title>
<g id="a_Node000022"><a xlink:href="classElement.html#a33dde5b9a02ed1aba6f26d292f0db1bd" target="_top" xlink:title=" ">
<polygon fill="white" stroke="#666666" points="592,-65.35 475,-65.35 475,-46.35 592,-46.35 592,-65.35"/>
<text text-anchor="middle" x="533.5" y="-53.35" font-family="Ubuntu Mono" font-size="10.00">Element::getOutputs</text>
</a>
</g>
</g>
<!-- Node5&#45;&gt;Node22 -->
<g id="edge24_Node000005_Node000022" class="edge">
<title>Node5&#45;&gt;Node22</title>
<g id="a_edge24_Node000005_Node000022"><a xlink:title=" ">
<path fill="none" stroke="#63b8ff" d="M240.02,-178.32C259.07,-166.47 293.16,-146.08 324,-131.85 380.68,-105.71 449.13,-82.22 491.74,-68.49"/>
<polygon fill="#63b8ff" stroke="#63b8ff" points="493.02,-71.76 501.48,-65.38 490.89,-65.09 493.02,-71.76"/>
</a>
</g>
</g>
<!-- Node25 -->
<g id="Node000025" class="node">
<title>Node25</title>
<g id="a_Node000025"><a xlink:href="classSharedFinfo.html#a4b27b66e435ac303d5c04e9e3d6cbff7" target="_top" xlink:title=" ">
<polygon fill="white" stroke="#666666" points="426,-197.35 331,-197.35 331,-178.35 426,-178.35 426,-197.35"/>
<text text-anchor="middle" x="378.5" y="-185.35" font-family="Ubuntu Mono" font-size="10.00">SharedFinfo::src</text>
</a>
</g>
</g>
<!-- Node5&#45;&gt;Node25 -->
<g id="edge31_Node000005_Node000025" class="edge">
<title>Node5&#45;&gt;Node25</title>
<g id="a_edge31_Node000005_Node000025"><a xlink:title=" ">
<path fill="none" stroke="#63b8ff" d="M288.35,-187.85C299.03,-187.85 310.06,-187.85 320.56,-187.85"/>
<polygon fill="#63b8ff" stroke="#63b8ff" points="320.86,-191.35 330.86,-187.85 320.86,-184.35 320.86,-191.35"/>
</a>
</g>
</g>
<!-- Node8 -->
<g id="Node000008" class="node">
<title>Node8</title>
<g id="a_Node000008"><a xlink:href="classMsg.html#a5be9f4dd643f5f662e8fb3c029273390" target="_top" xlink:title=" ">
<polygon fill="white" stroke="#666666" points="752.5,-140.35 697.5,-140.35 697.5,-121.35 752.5,-121.35 752.5,-140.35"/>
<text text-anchor="middle" x="725" y="-128.35" font-family="Ubuntu Mono" font-size="10.00">Msg::e1</text>
</a>
</g>
</g>
<!-- Node7&#45;&gt;Node8 -->
<g id="edge7_Node000007_Node000008" class="edge">
<title>Node7&#45;&gt;Node8</title>
<g id="a_edge7_Node000007_Node000008"><a xlink:title=" ">
<path fill="none" stroke="#63b8ff" d="M433.44,-146.4C445.16,-145.49 457.49,-144.6 469,-143.85 546.48,-138.85 637.3,-134.61 686.95,-132.43"/>
<polygon fill="#63b8ff" stroke="#63b8ff" points="687.35,-135.91 697.19,-131.98 687.04,-128.92 687.35,-135.91"/>
</a>
</g>
</g>
<!-- Node9 -->
<g id="Node000009" class="node">
<title>Node9</title>
<g id="a_Node000009"><a xlink:href="classMsg.html#a893ed6b44cd4c529f0f10af38ae6743a" target="_top" xlink:title=" ">
<polygon fill="white" stroke="#666666" points="752.5,-178.35 697.5,-178.35 697.5,-159.35 752.5,-159.35 752.5,-178.35"/>
<text text-anchor="middle" x="725" y="-166.35" font-family="Ubuntu Mono" font-size="10.00">Msg::e2</text>
</a>
</g>
</g>
<!-- Node7&#45;&gt;Node9 -->
<g id="edge8_Node000007_Node000009" class="edge">
<title>Node7&#45;&gt;Node9</title>
<g id="a_edge8_Node000007_Node000009"><a xlink:title=" ">
<path fill="none" stroke="#63b8ff" d="M433,-148.74C477.29,-147.5 541.81,-146.86 598,-150.85 628.09,-152.99 661.91,-157.97 686.93,-162.15"/>
<polygon fill="#63b8ff" stroke="#63b8ff" points="686.64,-165.65 697.08,-163.88 687.81,-158.75 686.64,-165.65"/>
</a>
</g>
</g>
<!-- Node10 -->
<g id="Node000010" class="node">
<title>Node10</title>
<g id="a_Node000010"><a xlink:href="classDestFinfo.html#a6efef23ddcfbaef03eca8aa75fdd98cd" target="_top" xlink:title=" ">
<polygon fill="white" stroke="#666666" points="583,-255.35 484,-255.35 484,-236.35 583,-236.35 583,-255.35"/>
<text text-anchor="middle" x="533.5" y="-243.35" font-family="Ubuntu Mono" font-size="10.00">DestFinfo::getFid</text>
</a>
</g>
</g>
<!-- Node7&#45;&gt;Node10 -->
<g id="edge9_Node000007_Node000010" class="edge">
<title>Node7&#45;&gt;Node10</title>
<g id="a_edge9_Node000007_Node000010"><a xlink:title=" ">
<path fill="none" stroke="#63b8ff" d="M418.16,-160.45C423.43,-162.71 428.55,-165.48 433,-168.85 455.68,-186.07 446.64,-204.22 469,-221.85 474.28,-226.02 480.37,-229.52 486.64,-232.45"/>
<polygon fill="#63b8ff" stroke="#63b8ff" points="485.31,-235.69 495.88,-236.34 488.02,-229.23 485.31,-235.69"/>
</a>
</g>
</g>
<!-- Node11 -->
<g id="Node000011" class="node">
<title>Node11</title>
<g id="a_Node000011"><a xlink:href="classElement.html#ab4b3b46f036eccad622c2e1a67b9d3a7" target="_top" xlink:title=" ">
<polygon fill="white" stroke="#666666" points="598,-179.35 469,-179.35 469,-160.35 598,-160.35 598,-179.35"/>
<text text-anchor="middle" x="533.5" y="-167.35" font-family="Ubuntu Mono" font-size="10.00">Element::getInputMsgs</text>
</a>
</g>
</g>
<!-- Node7&#45;&gt;Node11 -->
<g id="edge10_Node000007_Node000011" class="edge">
<title>Node7&#45;&gt;Node11</title>
<g id="a_edge10_Node000007_Node000011"><a xlink:title=" ">
<path fill="none" stroke="#63b8ff" d="M433.01,-157.5C441.31,-158.53 450.01,-159.61 458.66,-160.68"/>
<polygon fill="#63b8ff" stroke="#63b8ff" points="458.42,-164.18 468.77,-161.94 459.28,-157.23 458.42,-164.18"/>
</a>
</g>
</g>
<!-- Node13 -->
<g id="Node000013" class="node">
<title>Node13</title>
<g id="a_Node000013"><a xlink:href="classMsg.html#a1a57001709e44ab056a704c24760c105" target="_top" xlink:title=" ">
<polygon fill="white" stroke="#666666" points="764.5,-231.35 685.5,-231.35 685.5,-212.35 764.5,-212.35 764.5,-231.35"/>
<text text-anchor="middle" x="725" y="-219.35" font-family="Ubuntu Mono" font-size="10.00">Msg::getMsg</text>
</a>
</g>
</g>
<!-- Node7&#45;&gt;Node13 -->
<g id="edge22_Node000007_Node000013" class="edge">
<title>Node7&#45;&gt;Node13</title>
<g id="a_edge22_Node000007_Node000013"><a xlink:title=" ">
<path fill="none" stroke="#63b8ff" d="M410.66,-160.39C418.07,-162.92 425.88,-165.8 433,-168.85 449.63,-175.98 451.77,-182.35 469,-187.85 538.46,-210.03 623.03,-217.75 675.19,-220.43"/>
<polygon fill="#63b8ff" stroke="#63b8ff" points="675.34,-223.94 685.5,-220.92 675.67,-216.95 675.34,-223.94"/>
</a>
</g>
</g>
<!-- Node21 -->
<g id="Node000021" class="node">
<title>Node21</title>
<g id="a_Node000021"><a xlink:href="classElement.html#a934907c01faf58e21f545d53a54cfefc" target="_top" xlink:title=" ">
<polygon fill="white" stroke="#666666" points="761,-28.35 689,-28.35 689,-9.35 761,-9.35 761,-28.35"/>
<text text-anchor="middle" x="725" y="-16.35" font-family="Ubuntu Mono" font-size="10.00">Element::id</text>
</a>
</g>
</g>
<!-- Node7&#45;&gt;Node21 -->
<g id="edge23_Node000007_Node000021" class="edge">
<title>Node7&#45;&gt;Node21</title>
<g id="a_edge23_Node000007_Node000021"><a xlink:title=" ">
<path fill="none" stroke="#63b8ff" d="M383.62,-141.3C394.04,-118.45 423.88,-60.79 469,-36.85 535.16,-1.75 624.9,-5.1 678.38,-11.47"/>
<polygon fill="#63b8ff" stroke="#63b8ff" points="678.22,-14.97 688.58,-12.77 679.1,-8.03 678.22,-14.97"/>
</a>
</g>
</g>
<!-- Node11&#45;&gt;Node8 -->
<g id="edge11_Node000011_Node000008" class="edge">
<title>Node11&#45;&gt;Node8</title>
<g id="a_edge11_Node000011_Node000008"><a xlink:title=" ">
<path fill="none" stroke="#63b8ff" d="M580.86,-160.31C613.59,-153.57 656.87,-144.67 687.23,-138.42"/>
<polygon fill="#63b8ff" stroke="#63b8ff" points="688.31,-141.77 697.4,-136.33 686.9,-134.92 688.31,-141.77"/>
</a>
</g>
</g>
<!-- Node11&#45;&gt;Node9 -->
<g id="edge12_Node000011_Node000009" class="edge">
<title>Node11&#45;&gt;Node9</title>
<g id="a_edge12_Node000011_Node000009"><a xlink:title=" ">
<path fill="none" stroke="#63b8ff" d="M598.13,-169.52C627.67,-169.36 661.75,-169.18 687,-169.05"/>
<polygon fill="#63b8ff" stroke="#63b8ff" points="687.25,-172.55 697.23,-168.99 687.22,-165.55 687.25,-172.55"/>
</a>
</g>
</g>
<!-- Node12 -->
<g id="Node000012" class="node">
<title>Node12</title>
<g id="a_Node000012"><a xlink:href="classElement.html#a0f7aa6c77f30cb8865cdd0a0dde03854" target="_top" xlink:title=" ">
<polygon fill="white" stroke="#666666" points="784,-398.35 666,-398.35 666,-379.35 784,-379.35 784,-398.35"/>
<text text-anchor="middle" x="725" y="-386.35" font-family="Ubuntu Mono" font-size="10.00">Element::findBinding</text>
</a>
</g>
</g>
<!-- Node11&#45;&gt;Node12 -->
<g id="edge13_Node000011_Node000012" class="edge">
<title>Node11&#45;&gt;Node12</title>
<g id="a_edge13_Node000011_Node000012"><a xlink:title=" ">
<path fill="none" stroke="#63b8ff" d="M548.54,-179.54C562.63,-189.88 584.18,-207.41 598,-226.85 622,-260.63 609.49,-279.44 634,-312.85 652.25,-337.73 680.26,-359.69 700.17,-373.52"/>
<polygon fill="#63b8ff" stroke="#63b8ff" points="698.45,-376.58 708.69,-379.29 702.37,-370.78 698.45,-376.58"/>
</a>
</g>
</g>
<!-- Node11&#45;&gt;Node13 -->
<g id="edge14_Node000011_Node000013" class="edge">
<title>Node11&#45;&gt;Node13</title>
<g id="a_edge14_Node000011_Node000013"><a xlink:title=" ">
<path fill="none" stroke="#63b8ff" d="M569.26,-179.39C600.15,-187.87 645.49,-200.31 679.11,-209.54"/>
<polygon fill="#63b8ff" stroke="#63b8ff" points="678.57,-213.02 689.14,-212.29 680.43,-206.27 678.57,-213.02"/>
</a>
</g>
</g>
<!-- Node19 -->
<g id="Node000019" class="node">
<title>Node19</title>
<g id="a_Node000019"><a xlink:href="classMsgFuncBinding.html#ad0172d166d6629ed092500ea64473eb5" target="_top" xlink:title=" ">
<polygon fill="white" stroke="#666666" points="816,-304.35 634,-304.35 634,-285.35 816,-285.35 816,-304.35"/>
<text text-anchor="middle" x="725" y="-292.35" font-family="Ubuntu Mono" font-size="10.00">MsgFuncBinding::MsgFuncBinding</text>
</a>
</g>
</g>
<!-- Node11&#45;&gt;Node19 -->
<g id="edge20_Node000011_Node000019" class="edge">
<title>Node11&#45;&gt;Node19</title>
<g id="a_edge20_Node000011_Node000019"><a xlink:title=" ">
<path fill="none" stroke="#63b8ff" d="M547.51,-179.41C566.34,-193.15 602.39,-219.11 634,-239.85 655.51,-253.97 680.52,-269.16 698.71,-279.99"/>
<polygon fill="#63b8ff" stroke="#63b8ff" points="697.16,-283.14 707.54,-285.23 700.73,-277.12 697.16,-283.14"/>
</a>
</g>
</g>
<!-- Node14 -->
<g id="Node000014" class="node">
<title>Node14</title>
<g id="a_Node000014"><a xlink:href="classObjId.html#a1e5933713d6a73550b0923cf63f5bfd8" target="_top" xlink:title=" ">
<polygon fill="white" stroke="#666666" points="931.5,-239.35 861.5,-239.35 861.5,-220.35 931.5,-220.35 931.5,-239.35"/>
<text text-anchor="middle" x="896.5" y="-227.35" font-family="Ubuntu Mono" font-size="10.00">ObjId::data</text>
</a>
</g>
</g>
<!-- Node13&#45;&gt;Node14 -->
<g id="edge15_Node000013_Node000014" class="edge">
<title>Node13&#45;&gt;Node14</title>
<g id="a_edge15_Node000013_Node000014"><a xlink:title=" ">
<path fill="none" stroke="#63b8ff" d="M764.89,-223.69C790.6,-224.9 824.37,-226.5 851.13,-227.76"/>
<polygon fill="#63b8ff" stroke="#63b8ff" points="851.23,-231.27 861.39,-228.24 851.56,-224.28 851.23,-231.27"/>
</a>
</g>
</g>
<!-- Node15 -->
<g id="Node000015" class="node">
<title>Node15</title>
<g id="a_Node000015"><a xlink:href="classElement.html#a1978a0a584f1b10ea4a7c67e69880042" target="_top" xlink:title=" ">
<polygon fill="white" stroke="#666666" points="1073.5,-258.35 988.5,-258.35 988.5,-239.35 1073.5,-239.35 1073.5,-258.35"/>
<text text-anchor="middle" x="1031" y="-246.35" font-family="Ubuntu Mono" font-size="10.00">Element::data</text>
</a>
</g>
</g>
<!-- Node14&#45;&gt;Node15 -->
<g id="edge16_Node000014_Node000015" class="edge">
<title>Node14&#45;&gt;Node15</title>
<g id="a_edge16_Node000014_Node000015"><a xlink:title=" ">
<path fill="none" stroke="#63b8ff" d="M931.62,-234.75C945.84,-236.78 962.66,-239.2 978.33,-241.44"/>
<polygon fill="#63b8ff" stroke="#63b8ff" points="978.03,-244.94 988.43,-242.89 979.02,-238.01 978.03,-244.94"/>
</a>
</g>
</g>
<!-- Node16 -->
<g id="Node000016" class="node">
<title>Node16</title>
<g id="a_Node000016"><a xlink:href="classId.html#a574e06330597163aef0ea4c99de7ff4a" target="_top" xlink:title="Synonym for Id::operator()()">
<polygon fill="white" stroke="#666666" points="1067,-658.35 995,-658.35 995,-639.35 1067,-639.35 1067,-658.35"/>
<text text-anchor="middle" x="1031" y="-646.35" font-family="Ubuntu Mono" font-size="10.00">Id::element</text>
</a>
</g>
</g>
<!-- Node14&#45;&gt;Node16 -->
<g id="edge17_Node000014_Node000016" class="edge">
<title>Node14&#45;&gt;Node16</title>
<g id="a_edge17_Node000014_Node000016"><a xlink:title=" ">
<path fill="none" stroke="#63b8ff" d="M909.66,-239.52C919.57,-248.05 933.16,-261.35 941,-275.85 1007.53,-398.84 1024.8,-571.09 1028.86,-628.99"/>
<polygon fill="#63b8ff" stroke="#63b8ff" points="1025.38,-629.52 1029.52,-639.27 1032.37,-629.07 1025.38,-629.52"/>
</a>
</g>
</g>
<!-- Node18 -->
<g id="Node000018" class="node">
<title>Node18</title>
<g id="a_Node000018"><a xlink:href="classElement.html#a73a0e468a3d6cfd6475fff4a56459075" target="_top" xlink:title=" ">
<polygon fill="white" stroke="#666666" points="1085,-221.35 977,-221.35 977,-202.35 1085,-202.35 1085,-221.35"/>
<text text-anchor="middle" x="1031" y="-209.35" font-family="Ubuntu Mono" font-size="10.00">Element::rawIndex</text>
</a>
</g>
</g>
<!-- Node14&#45;&gt;Node18 -->
<g id="edge19_Node000014_Node000018" class="edge">
<title>Node14&#45;&gt;Node18</title>
<g id="a_edge19_Node000014_Node000018"><a xlink:title=" ">
<path fill="none" stroke="#63b8ff" d="M931.62,-225.22C942.4,-223.75 954.69,-222.08 966.83,-220.43"/>
<polygon fill="#63b8ff" stroke="#63b8ff" points="967.52,-223.87 976.96,-219.06 966.58,-216.94 967.52,-223.87"/>
</a>
</g>
</g>
<!-- Node17 -->
<g id="Node000017" class="node">
<title>Node17</title>
<g id="a_Node000017"><a xlink:href="classId.html#a2d5e7b4d5d918aadfe45102691c2be27" target="_top" xlink:title=" ">
<polygon fill="white" stroke="#666666" points="1198,-723.35 1121,-723.35 1121,-704.35 1198,-704.35 1198,-723.35"/>
<text text-anchor="middle" x="1159.5" y="-711.35" font-family="Ubuntu Mono" font-size="10.00">Id::elements</text>
</a>
</g>
</g>
<!-- Node16&#45;&gt;Node17 -->
<g id="edge18_Node000016_Node000017" class="edge">
<title>Node16&#45;&gt;Node17</title>
<g id="a_edge18_Node000016_Node000017"><a xlink:title=" ">
<path fill="none" stroke="#63b8ff" d="M1050.67,-658.44C1071.78,-669.29 1106.38,-687.07 1130.68,-699.56"/>
<polygon fill="#63b8ff" stroke="#63b8ff" points="1129.26,-702.77 1139.76,-704.22 1132.46,-696.54 1129.26,-702.77"/>
</a>
</g>
</g>
<!-- Node20 -->
<g id="Node000020" class="node">
<title>Node20</title>
<g id="a_Node000020"><a xlink:href="classObjId.html#a02a8374ceddca0d8f4a672005aef8ffc" target="_top" xlink:title=" ">
<polygon fill="white" stroke="#666666" points="933.5,-304.35 859.5,-304.35 859.5,-285.35 933.5,-285.35 933.5,-304.35"/>
<text text-anchor="middle" x="896.5" y="-292.35" font-family="Ubuntu Mono" font-size="10.00">ObjId::ObjId</text>
</a>
</g>
</g>
<!-- Node19&#45;&gt;Node20 -->
<g id="edge21_Node000019_Node000020" class="edge">
<title>Node19&#45;&gt;Node20</title>
<g id="a_edge21_Node000019_Node000020"><a xlink:title=" ">
<path fill="none" stroke="#63b8ff" d="M816.21,-294.85C827.71,-294.85 839.08,-294.85 849.46,-294.85"/>
<polygon fill="#63b8ff" stroke="#63b8ff" points="849.48,-298.35 859.48,-294.85 849.48,-291.35 849.48,-298.35"/>
</a>
</g>
</g>
<!-- Node22&#45;&gt;Node8 -->
<g id="edge25_Node000022_Node000008" class="edge">
<title>Node22&#45;&gt;Node8</title>
<g id="a_edge25_Node000022_Node000008"><a xlink:title=" ">
<path fill="none" stroke="#63b8ff" d="M566.19,-65.37C576.68,-69.15 588.17,-74.01 598,-79.85 616.15,-90.64 615.13,-101.39 634,-110.85 650.47,-119.11 670.33,-123.99 687.19,-126.85"/>
<polygon fill="#63b8ff" stroke="#63b8ff" points="686.84,-130.34 697.25,-128.39 687.89,-123.42 686.84,-130.34"/>
</a>
</g>
</g>
<!-- Node22&#45;&gt;Node9 -->
<g id="edge26_Node000022_Node000009" class="edge">
<title>Node22&#45;&gt;Node9</title>
<g id="a_edge26_Node000022_Node000009"><a xlink:title=" ">
<path fill="none" stroke="#63b8ff" d="M544.16,-65.44C567.04,-88.06 623.38,-143.26 634,-148.85 650.3,-157.45 670.14,-162.35 687.04,-165.15"/>
<polygon fill="#63b8ff" stroke="#63b8ff" points="686.72,-168.65 697.12,-166.64 687.74,-161.72 686.72,-168.65"/>
</a>
</g>
</g>
<!-- Node22&#45;&gt;Node13 -->
<g id="edge28_Node000022_Node000013" class="edge">
<title>Node22&#45;&gt;Node13</title>
<g id="a_edge28_Node000022_Node000013"><a xlink:title=" ">
<path fill="none" stroke="#63b8ff" d="M540.92,-65.66C558.93,-92.94 610.17,-168.89 634,-186.85 646.51,-196.28 661.87,-203.49 676.35,-208.85"/>
<polygon fill="#63b8ff" stroke="#63b8ff" points="675.58,-212.29 686.18,-212.26 677.88,-205.67 675.58,-212.29"/>
</a>
</g>
</g>
<!-- Node22&#45;&gt;Node21 -->
<g id="edge30_Node000022_Node000021" class="edge">
<title>Node22&#45;&gt;Node21</title>
<g id="a_edge30_Node000022_Node000021"><a xlink:title=" ">
<path fill="none" stroke="#63b8ff" d="M583.3,-46.32C612.7,-40.58 649.88,-33.32 678.64,-27.71"/>
<polygon fill="#63b8ff" stroke="#63b8ff" points="679.68,-31.07 688.83,-25.72 678.34,-24.2 679.68,-31.07"/>
</a>
</g>
</g>
<!-- Node23 -->
<g id="Node000023" class="node">
<title>Node23</title>
<g id="a_Node000023"><a xlink:href="classSrcFinfo.html#aa90db29c818e71d31322c35bfec2f731" target="_top" xlink:title=" ">
<polygon fill="white" stroke="#666666" points="788,-102.35 662,-102.35 662,-83.35 788,-83.35 788,-102.35"/>
<text text-anchor="middle" x="725" y="-90.35" font-family="Ubuntu Mono" font-size="10.00">SrcFinfo::getBindIndex</text>
</a>
</g>
</g>
<!-- Node22&#45;&gt;Node23 -->
<g id="edge27_Node000022_Node000023" class="edge">
<title>Node22&#45;&gt;Node23</title>
<g id="a_edge27_Node000022_Node000023"><a xlink:title=" ">
<path fill="none" stroke="#63b8ff" d="M583.3,-65.38C608.29,-70.26 638.91,-76.24 665.19,-81.37"/>
<polygon fill="#63b8ff" stroke="#63b8ff" points="664.55,-84.81 675.04,-83.29 665.89,-77.94 664.55,-84.81"/>
</a>
</g>
</g>
<!-- Node24 -->
<g id="Node000024" class="node">
<title>Node24</title>
<g id="a_Node000024"><a xlink:href="classElement.html#a80f025a43225fb9b30a793a7af6b5e43" target="_top" xlink:title=" ">
<polygon fill="white" stroke="#666666" points="795,-65.35 655,-65.35 655,-46.35 795,-46.35 795,-65.35"/>
<text text-anchor="middle" x="725" y="-53.35" font-family="Ubuntu Mono" font-size="10.00">Element::getMsgAndFunc</text>
</a>
</g>
</g>
<!-- Node22&#45;&gt;Node24 -->
<g id="edge29_Node000022_Node000024" class="edge">
<title>Node22&#45;&gt;Node24</title>
<g id="a_edge29_Node000022_Node000024"><a xlink:title=" ">
<path fill="none" stroke="#63b8ff" d="M592.13,-55.85C608.69,-55.85 627.06,-55.85 644.69,-55.85"/>
<polygon fill="#63b8ff" stroke="#63b8ff" points="644.97,-59.35 654.97,-55.85 644.97,-52.35 644.97,-59.35"/>
</a>
</g>
</g>
<!-- Node26&#45;&gt;Node21 -->
<g id="edge33_Node000026_Node000021" class="edge">
<title>Node26&#45;&gt;Node21</title>
<g id="a_edge33_Node000026_Node000021"><a xlink:title=" ">
<path fill="none" stroke="#63b8ff" d="M249.32,-48.89C292.89,-36.81 387.37,-12.45 469,-3.85 526.02,2.16 540.77,-0.46 598,-3.85 624.82,-5.44 654.68,-8.92 678.6,-12.13"/>
<polygon fill="#63b8ff" stroke="#63b8ff" points="678.41,-15.64 688.8,-13.53 679.37,-8.7 678.41,-15.64"/>
</a>
</g>
</g>
<!-- Node28 -->
<g id="Node000028" class="node">
<title>Node28</title>
<g id="a_Node000028"><a xlink:href="classId.html#adac7a40d04024a7b9dcb7eae7b9fdf9b" target="_top" xlink:title=" ">
<polygon fill="white" stroke="#666666" points="559,-853.35 508,-853.35 508,-834.35 559,-834.35 559,-853.35"/>
<text text-anchor="middle" x="533.5" y="-841.35" font-family="Ubuntu Mono" font-size="10.00">Id::eref</text>
</a>
</g>
</g>
<!-- Node27&#45;&gt;Node28 -->
<g id="edge35_Node000027_Node000028" class="edge">
<title>Node27&#45;&gt;Node28</title>
<g id="a_edge35_Node000027_Node000028"><a xlink:title=" ">
<path fill="none" stroke="#63b8ff" d="M250.59,-711.19C262.22,-714.42 276.02,-718.74 288,-723.85 372.94,-760.07 383.76,-790.35 469,-825.85 478.26,-829.71 488.62,-833.04 498.24,-835.74"/>
<polygon fill="#63b8ff" stroke="#63b8ff" points="497.35,-839.13 507.92,-838.33 499.16,-832.37 497.35,-839.13"/>
</a>
</g>
</g>
<!-- Node30 -->
<g id="Node000030" class="node">
<title>Node30</title>
<g id="a_Node000030"><a xlink:href="classNeutral.html#a93bee6d27f95c8c4c7eb3640cd883a98" target="_top" xlink:title=" ">
<polygon fill="white" stroke="#666666" points="418.5,-554.35 338.5,-554.35 338.5,-535.35 418.5,-535.35 418.5,-554.35"/>
<text text-anchor="middle" x="378.5" y="-542.35" font-family="Ubuntu Mono" font-size="10.00">Neutral::path</text>
</a>
</g>
</g>
<!-- Node27&#45;&gt;Node30 -->
<g id="edge38_Node000027_Node000030" class="edge">
<title>Node27&#45;&gt;Node30</title>
<g id="a_edge38_Node000027_Node000030"><a xlink:title=" ">
<path fill="none" stroke="#63b8ff" d="M234.08,-695.32C259.03,-669.15 328.87,-595.88 360.97,-562.19"/>
<polygon fill="#63b8ff" stroke="#63b8ff" points="363.91,-564.19 368.27,-554.53 358.84,-559.36 363.91,-564.19"/>
</a>
</g>
</g>
<!-- Node28&#45;&gt;Node17 -->
<g id="edge36_Node000028_Node000017" class="edge">
<title>Node28&#45;&gt;Node17</title>
<g id="a_edge36_Node000028_Node000017"><a xlink:title=" ">
<path fill="none" stroke="#63b8ff" d="M559.01,-839.26C607.94,-830.04 721.16,-808.5 816,-788.85 921.38,-767.02 1044.55,-739.58 1110.69,-724.68"/>
<polygon fill="#63b8ff" stroke="#63b8ff" points="1111.82,-728.01 1120.8,-722.4 1110.28,-721.19 1111.82,-728.01"/>
</a>
</g>
</g>
<!-- Node29 -->
<g id="Node000029" class="node">
<title>Node29</title>
<g id="a_Node000029"><a xlink:href="classEref.html#a3addb850bc6cbac7771a07de219d909d" target="_top" xlink:title=" ">
<polygon fill="white" stroke="#666666" points="755.5,-779.35 694.5,-779.35 694.5,-760.35 755.5,-760.35 755.5,-779.35"/>
<text text-anchor="middle" x="725" y="-767.35" font-family="Ubuntu Mono" font-size="10.00">Eref::Eref</text>
</a>
</g>
</g>
<!-- Node28&#45;&gt;Node29 -->
<g id="edge37_Node000028_Node000029" class="edge">
<title>Node28&#45;&gt;Node29</title>
<g id="a_edge37_Node000028_Node000029"><a xlink:title=" ">
<path fill="none" stroke="#63b8ff" d="M559.18,-837.73C571.05,-834.57 585.39,-830.41 598,-825.85 632.33,-813.43 670.48,-795.93 695.71,-783.82"/>
<polygon fill="#63b8ff" stroke="#63b8ff" points="697.23,-786.97 704.71,-779.46 694.18,-780.67 697.23,-786.97"/>
</a>
</g>
</g>
<!-- Node30&#45;&gt;Node3 -->
<g id="edge39_Node000030_Node000003" class="edge">
<title>Node30&#45;&gt;Node3</title>
<g id="a_edge39_Node000030_Node000003"><a xlink:title=" ">
<path fill="none" stroke="#63b8ff" d="M385.05,-554.39C395.6,-572.86 418.8,-615.05 433,-652.85 454.99,-711.39 425.17,-744.26 469,-788.85 472.92,-792.84 477.64,-795.96 482.73,-798.4"/>
<polygon fill="#63b8ff" stroke="#63b8ff" points="481.59,-801.71 492.18,-802.09 484.14,-795.19 481.59,-801.71"/>
</a>
</g>
</g>
<!-- Node30&#45;&gt;Node4 -->
<g id="edge53_Node000030_Node000004" class="edge">
<title>Node30&#45;&gt;Node4</title>
<g id="a_edge53_Node000030_Node000004"><a xlink:title=" ">
<path fill="none" stroke="#63b8ff" d="M388.85,-554.44C400.79,-567.2 421.31,-590.94 433,-614.85 460.65,-671.41 424.91,-706.91 469,-751.85 471.98,-754.89 475.43,-757.42 479.15,-759.54"/>
<polygon fill="#63b8ff" stroke="#63b8ff" points="477.69,-762.72 488.24,-763.75 480.63,-756.37 477.69,-762.72"/>
</a>
</g>
</g>
<!-- Node30&#45;&gt;Node10 -->
<g id="edge55_Node000030_Node000010" class="edge">
<title>Node30&#45;&gt;Node10</title>
<g id="a_edge55_Node000030_Node000010"><a xlink:title=" ">
<path fill="none" stroke="#63b8ff" d="M379.77,-535.34C381.35,-496.75 392.39,-350.12 469,-269.85 472.67,-266.01 477.02,-262.77 481.69,-260.05"/>
<polygon fill="#63b8ff" stroke="#63b8ff" points="483.59,-263.02 490.98,-255.43 480.47,-256.75 483.59,-263.02"/>
</a>
</g>
</g>
<!-- Node30&#45;&gt;Node13 -->
<g id="edge56_Node000030_Node000013" class="edge">
<title>Node30&#45;&gt;Node13</title>
<g id="a_edge56_Node000030_Node000013"><a xlink:title=" ">
<path fill="none" stroke="#63b8ff" d="M380.13,-534.86C382.99,-498.21 397.89,-369.78 469,-302.85 512.62,-261.8 540.92,-281.99 598,-263.85 627.88,-254.36 661.56,-243.1 686.57,-234.64"/>
<polygon fill="#63b8ff" stroke="#63b8ff" points="687.7,-237.95 696.05,-231.42 685.45,-231.32 687.7,-237.95"/>
</a>
</g>
</g>
<!-- Node31 -->
<g id="Node000031" class="node">
<title>Node31</title>
<g id="a_Node000031"><a xlink:href="classObjId.html#ad87d6d712e4bceb381d1d324aa137d6e" target="_top" xlink:title=" ">
<polygon fill="white" stroke="#666666" points="941,-611.35 852,-611.35 852,-592.35 941,-592.35 941,-611.35"/>
<text text-anchor="middle" x="896.5" y="-599.35" font-family="Ubuntu Mono" font-size="10.00">ObjId::element</text>
</a>
</g>
</g>
<!-- Node30&#45;&gt;Node31 -->
<g id="edge40_Node000030_Node000031" class="edge">
<title>Node30&#45;&gt;Node31</title>
<g id="a_edge40_Node000030_Node000031"><a xlink:title=" ">
<path fill="none" stroke="#63b8ff" d="M418.57,-546.32C495.22,-549.61 670.52,-559.26 816,-582.85 827.26,-584.68 839.29,-587.23 850.49,-589.87"/>
<polygon fill="#63b8ff" stroke="#63b8ff" points="849.96,-593.35 860.5,-592.31 851.61,-586.55 849.96,-593.35"/>
</a>
</g>
</g>
<!-- Node32 -->
<g id="Node000032" class="node">
<title>Node32</title>
<g id="a_Node000032"><a xlink:href="classObjId.html#a76a3d4b89944235a24eff983030a5e91" target="_top" xlink:title=" ">
<polygon fill="white" stroke="#666666" points="567.5,-705.35 499.5,-705.35 499.5,-686.35 567.5,-686.35 567.5,-705.35"/>
<text text-anchor="middle" x="533.5" y="-693.35" font-family="Ubuntu Mono" font-size="10.00">ObjId::eref</text>
</a>
</g>
</g>
<!-- Node30&#45;&gt;Node32 -->
<g id="edge42_Node000030_Node000032" class="edge">
<title>Node30&#45;&gt;Node32</title>
<g id="a_edge42_Node000030_Node000032"><a xlink:title=" ">
<path fill="none" stroke="#63b8ff" d="M387.55,-554.52C398.41,-567.75 418.12,-592.42 433,-614.85 450.83,-641.72 443.6,-657.98 469,-677.85 474.96,-682.51 482.06,-685.97 489.33,-688.53"/>
<polygon fill="#63b8ff" stroke="#63b8ff" points="488.66,-691.98 499.24,-691.49 490.67,-685.27 488.66,-691.98"/>
</a>
</g>
</g>
<!-- Node33 -->
<g id="Node000033" class="node">
<title>Node33</title>
<g id="a_Node000033"><a xlink:href="classEref.html#aed748cb72c986c869e4c650dd28d8d02" target="_top" xlink:title=" ">
<polygon fill="white" stroke="#666666" points="578,-479.35 489,-479.35 489,-460.35 578,-460.35 578,-479.35"/>
<text text-anchor="middle" x="533.5" y="-467.35" font-family="Ubuntu Mono" font-size="10.00">Eref::fieldIndex</text>
</a>
</g>
</g>
<!-- Node30&#45;&gt;Node33 -->
<g id="edge45_Node000030_Node000033" class="edge">
<title>Node30&#45;&gt;Node33</title>
<g id="a_edge45_Node000030_Node000033"><a xlink:title=" ">
<path fill="none" stroke="#63b8ff" d="M391.88,-535.31C408.56,-522.84 439.59,-501.05 469,-487.85 473.17,-485.98 477.58,-484.26 482.06,-482.68"/>
<polygon fill="#63b8ff" stroke="#63b8ff" points="483.49,-485.89 491.9,-479.45 481.31,-479.24 483.49,-485.89"/>
</a>
</g>
</g>
<!-- Node34 -->
<g id="Node000034" class="node">
<title>Node34</title>
<g id="a_Node000034"><a xlink:href="classElement.html#a3c07cf6355e6127827ce67682e3bb2a0" target="_top" xlink:title=" ">
<polygon fill="white" stroke="#666666" points="588.5,-405.35 478.5,-405.35 478.5,-386.35 588.5,-386.35 588.5,-405.35"/>
<text text-anchor="middle" x="533.5" y="-393.35" font-family="Ubuntu Mono" font-size="10.00">Element::findCaller</text>
</a>
</g>
</g>
<!-- Node30&#45;&gt;Node34 -->
<g id="edge46_Node000030_Node000034" class="edge">
<title>Node30&#45;&gt;Node34</title>
<g id="a_edge46_Node000030_Node000034"><a xlink:title=" ">
<path fill="none" stroke="#63b8ff" d="M383.28,-535.25C393.35,-511 423.17,-446.84 469,-413.85 471.08,-412.36 473.27,-410.99 475.55,-409.73"/>
<polygon fill="#63b8ff" stroke="#63b8ff" points="477.13,-412.86 484.68,-405.43 474.14,-406.53 477.13,-412.86"/>
</a>
</g>
</g>
<!-- Node36 -->
<g id="Node000036" class="node">
<title>Node36</title>
<g id="a_Node000036"><a xlink:href="classMsg.html#a326ed96ece35f632b16de59838db6c29" target="_top" xlink:title=" ">
<polygon fill="white" stroke="#666666" points="586.5,-442.35 480.5,-442.35 480.5,-423.35 586.5,-423.35 586.5,-442.35"/>
<text text-anchor="middle" x="533.5" y="-430.35" font-family="Ubuntu Mono" font-size="10.00">Msg::findOtherEnd</text>
</a>
</g>
</g>
<!-- Node30&#45;&gt;Node36 -->
<g id="edge54_Node000030_Node000036" class="edge">
<title>Node30&#45;&gt;Node36</title>
<g id="a_edge54_Node000030_Node000036"><a xlink:title=" ">
<path fill="none" stroke="#63b8ff" d="M385.92,-535.25C399.14,-516.21 431.38,-473.56 469,-450.85 471.8,-449.17 474.76,-447.63 477.81,-446.23"/>
<polygon fill="#63b8ff" stroke="#63b8ff" points="479.22,-449.44 487.18,-442.45 476.6,-442.95 479.22,-449.44"/>
</a>
</g>
</g>
<!-- Node37 -->
<g id="Node000037" class="node">
<title>Node37</title>
<g id="a_Node000037"><a xlink:href="classElement.html#a1a2068a4e70da0f951bc3e73b758ef4a" target="_top" xlink:title=" ">
<polygon fill="white" stroke="#666666" points="587.5,-368.35 479.5,-368.35 479.5,-349.35 587.5,-349.35 587.5,-368.35"/>
<text text-anchor="middle" x="533.5" y="-356.35" font-family="Ubuntu Mono" font-size="10.00">Element::getName</text>
</a>
</g>
</g>
<!-- Node30&#45;&gt;Node37 -->
<g id="edge57_Node000030_Node000037" class="edge">
<title>Node30&#45;&gt;Node37</title>
<g id="a_edge57_Node000030_Node000037"><a xlink:title=" ">
<path fill="none" stroke="#63b8ff" d="M381.79,-535.16C389.12,-506.37 414.73,-420.63 469,-376.85 470.57,-375.58 472.23,-374.41 473.95,-373.31"/>
<polygon fill="#63b8ff" stroke="#63b8ff" points="475.83,-376.28 483.02,-368.49 472.54,-370.09 475.83,-376.28"/>
</a>
</g>
</g>
<!-- Node38 -->
<g id="Node000038" class="node">
<title>Node38</title>
<g id="a_Node000038"><a xlink:href="classElement.html#a8489d936deee408d78042cf199694bb5" target="_top" xlink:title=" ">
<polygon fill="white" stroke="#666666" points="588,-331.35 479,-331.35 479,-312.35 588,-312.35 588,-331.35"/>
<text text-anchor="middle" x="533.5" y="-319.35" font-family="Ubuntu Mono" font-size="10.00">Element::hasFields</text>
</a>
</g>
</g>
<!-- Node30&#45;&gt;Node38 -->
<g id="edge58_Node000030_Node000038" class="edge">
<title>Node30&#45;&gt;Node38</title>
<g id="a_edge58_Node000030_Node000038"><a xlink:title=" ">
<path fill="none" stroke="#63b8ff" d="M380.81,-534.99C385.73,-502.04 406.1,-394.76 469,-339.85 470.34,-338.69 471.74,-337.6 473.2,-336.58"/>
<polygon fill="#63b8ff" stroke="#63b8ff" points="475.18,-339.48 482.11,-331.47 471.7,-333.41 475.18,-339.48"/>
</a>
</g>
</g>
<!-- Node39 -->
<g id="Node000039" class="node">
<title>Node39</title>
<g id="a_Node000039"><a xlink:href="classId.html#ac094968605676d63b55ca33b7e318948" target="_top" xlink:title=" ">
<polygon fill="white" stroke="#666666" points="745.5,-611.35 704.5,-611.35 704.5,-592.35 745.5,-592.35 745.5,-611.35"/>
<text text-anchor="middle" x="725" y="-599.35" font-family="Ubuntu Mono" font-size="10.00">Id::Id</text>
</a>
</g>
</g>
<!-- Node30&#45;&gt;Node39 -->
<g id="edge59_Node000030_Node000039" class="edge">
<title>Node30&#45;&gt;Node39</title>
<g id="a_edge59_Node000030_Node000039"><a xlink:title=" ">
<path fill="none" stroke="#63b8ff" d="M390.37,-554.53C406.28,-567.99 437.48,-591.74 469,-600.85 547.68,-623.61 645.82,-613.99 694.2,-606.91"/>
<polygon fill="#63b8ff" stroke="#63b8ff" points="694.94,-610.34 704.29,-605.37 693.88,-603.42 694.94,-610.34"/>
</a>
</g>
</g>
<!-- Node40 -->
<g id="Node000040" class="node">
<title>Node40</title>
<g id="a_Node000040"><a xlink:href="classObjId.html#aad3d714ee57757ed3754a58edc9ad4a9" target="_top" xlink:title=" ">
<polygon fill="white" stroke="#666666" points="570.5,-592.35 496.5,-592.35 496.5,-573.35 570.5,-573.35 570.5,-592.35"/>
<text text-anchor="middle" x="533.5" y="-580.35" font-family="Ubuntu Mono" font-size="10.00">ObjId::ObjId</text>
</a>
</g>
</g>
<!-- Node30&#45;&gt;Node40 -->
<g id="edge60_Node000030_Node000040" class="edge">
<title>Node30&#45;&gt;Node40</title>
<g id="a_edge60_Node000030_Node000040"><a xlink:title=" ">
<path fill="none" stroke="#63b8ff" d="M418.11,-554.44C438.91,-559.61 464.72,-566.02 486.55,-571.44"/>
<polygon fill="#63b8ff" stroke="#63b8ff" points="485.72,-574.84 496.27,-573.85 487.41,-568.05 485.72,-574.84"/>
</a>
</g>
</g>
<!-- Node41 -->
<g id="Node000041" class="node">
<title>Node41</title>
<g id="a_Node000041"><a xlink:href="classEref.html#ab305a4ab972b50443b7d35cfd516861a" target="_top" xlink:title=" ">
<polygon fill="white" stroke="#666666" points="566,-516.35 501,-516.35 501,-497.35 566,-497.35 566,-516.35"/>
<text text-anchor="middle" x="533.5" y="-504.35" font-family="Ubuntu Mono" font-size="10.00">Eref::objId</text>
</a>
</g>
</g>
<!-- Node30&#45;&gt;Node41 -->
<g id="edge62_Node000030_Node000041" class="edge">
<title>Node30&#45;&gt;Node41</title>
<g id="a_edge62_Node000030_Node000041"><a xlink:title=" ">
<path fill="none" stroke="#63b8ff" d="M418.11,-535.26C440.22,-529.77 467.98,-522.88 490.61,-517.26"/>
<polygon fill="#63b8ff" stroke="#63b8ff" points="491.75,-520.58 500.61,-514.77 490.06,-513.79 491.75,-520.58"/>
</a>
</g>
</g>
<!-- Node42 -->
<g id="Node000042" class="node">
<title>Node42</title>
<g id="a_Node000042"><a xlink:href="classId.html#a6a4a7d5c9e8524644febc6b6e8dc1ab9" target="_top" xlink:title=" ">
<polygon fill="white" stroke="#666666" points="576,-742.35 491,-742.35 491,-723.35 576,-723.35 576,-742.35"/>
<text text-anchor="middle" x="533.5" y="-730.35" font-family="Ubuntu Mono" font-size="10.00">Id::operator!=</text>
</a>
</g>
</g>
<!-- Node30&#45;&gt;Node42 -->
<g id="edge65_Node000030_Node000042" class="edge">
<title>Node30&#45;&gt;Node42</title>
<g id="a_edge65_Node000030_Node000042"><a xlink:title=" ">
<path fill="none" stroke="#63b8ff" d="M388.53,-554.61C400.12,-567.54 420.26,-591.48 433,-614.85 455.61,-656.33 434.46,-682.63 469,-714.85 472.63,-718.24 476.85,-721 481.36,-723.24"/>
<polygon fill="#63b8ff" stroke="#63b8ff" points="480.34,-726.6 490.92,-727.16 483,-720.13 480.34,-726.6"/>
</a>
</g>
</g>
<!-- Node43 -->
<g id="Node000043" class="node">
<title>Node43</title>
<g id="a_Node000043"><a xlink:href="classObjId.html#a6a7e5a3ee84c58803fe025943941e67e" target="_top" xlink:title=" ">
<polygon fill="white" stroke="#666666" points="586.5,-668.35 480.5,-668.35 480.5,-649.35 586.5,-649.35 586.5,-668.35"/>
<text text-anchor="middle" x="533.5" y="-656.35" font-family="Ubuntu Mono" font-size="10.00">ObjId::operator==</text>
</a>
</g>
</g>
<!-- Node30&#45;&gt;Node43 -->
<g id="edge66_Node000030_Node000043" class="edge">
<title>Node30&#45;&gt;Node43</title>
<g id="a_edge66_Node000030_Node000043"><a xlink:title=" ">
<path fill="none" stroke="#63b8ff" d="M386.83,-554.6C400.9,-572.73 433.49,-611.85 469,-634.85 475.32,-638.95 482.45,-642.5 489.58,-645.51"/>
<polygon fill="#63b8ff" stroke="#63b8ff" points="488.65,-648.91 499.24,-649.3 491.21,-642.39 488.65,-648.91"/>
</a>
</g>
</g>
<!-- Node31&#45;&gt;Node16 -->
<g id="edge41_Node000031_Node000016" class="edge">
<title>Node31&#45;&gt;Node16</title>
<g id="a_edge41_Node000031_Node000016"><a xlink:title=" ">
<path fill="none" stroke="#63b8ff" d="M924.31,-611.36C944.12,-618.39 971.31,-628.04 993.16,-635.78"/>
<polygon fill="#63b8ff" stroke="#63b8ff" points="992.18,-639.15 1002.77,-639.19 994.52,-632.55 992.18,-639.15"/>
</a>
</g>
</g>
<!-- Node32&#45;&gt;Node16 -->
<g id="edge43_Node000032_Node000016" class="edge">
<title>Node32&#45;&gt;Node16</title>
<g id="a_edge43_Node000032_Node000016"><a xlink:title=" ">
<path fill="none" stroke="#63b8ff" d="M567.92,-694.28C620.7,-691.63 726.55,-685.71 816,-676.85 874.51,-671.06 941.7,-661.85 984.94,-655.58"/>
<polygon fill="#63b8ff" stroke="#63b8ff" points="985.47,-659.04 994.86,-654.14 984.46,-652.12 985.47,-659.04"/>
</a>
</g>
</g>
<!-- Node32&#45;&gt;Node29 -->
<g id="edge44_Node000032_Node000029" class="edge">
<title>Node32&#45;&gt;Node29</title>
<g id="a_edge44_Node000032_Node000029"><a xlink:title=" ">
<path fill="none" stroke="#63b8ff" d="M567.71,-704.97C577.54,-707.88 588.28,-711.29 598,-714.85 631.83,-727.25 669.58,-744.15 694.86,-755.93"/>
<polygon fill="#63b8ff" stroke="#63b8ff" points="693.69,-759.25 704.23,-760.33 696.66,-752.91 693.69,-759.25"/>
</a>
</g>
</g>
<!-- Node34&#45;&gt;Node8 -->
<g id="edge47_Node000034_Node000008" class="edge">
<title>Node34&#45;&gt;Node8</title>
<g id="a_edge47_Node000034_Node000008"><a xlink:title=" ">
<path fill="none" stroke="#63b8ff" d="M585.86,-386.35C590.42,-383.86 594.59,-380.75 598,-376.85 665.25,-299.97 563.63,-223.89 634,-149.85 647.49,-135.66 668.7,-130.7 687.15,-129.39"/>
<polygon fill="#63b8ff" stroke="#63b8ff" points="687.47,-132.88 697.33,-129 687.2,-125.89 687.47,-132.88"/>
</a>
</g>
</g>
<!-- Node34&#45;&gt;Node9 -->
<g id="edge48_Node000034_Node000009" class="edge">
<title>Node34&#45;&gt;Node9</title>
<g id="a_edge48_Node000034_Node000009"><a xlink:title=" ">
<path fill="none" stroke="#63b8ff" d="M585.36,-386.35C590.08,-383.87 594.42,-380.75 598,-376.85 651.37,-318.64 582.72,-262.91 634,-202.85 647.36,-187.21 668.7,-178.75 687.25,-174.18"/>
<polygon fill="#63b8ff" stroke="#63b8ff" points="688.17,-177.56 697.2,-172.02 686.69,-170.72 688.17,-177.56"/>
</a>
</g>
</g>
<!-- Node34&#45;&gt;Node12 -->
<g id="edge49_Node000034_Node000012" class="edge">
<title>Node34&#45;&gt;Node12</title>
<g id="a_edge49_Node000034_Node000012"><a xlink:title=" ">
<path fill="none" stroke="#63b8ff" d="M588.55,-393.86C609.52,-393.08 633.76,-392.19 655.9,-391.37"/>
<polygon fill="#63b8ff" stroke="#63b8ff" points="656.04,-394.87 665.9,-391 655.78,-387.87 656.04,-394.87"/>
</a>
</g>
</g>
<!-- Node34&#45;&gt;Node13 -->
<g id="edge50_Node000034_Node000013" class="edge">
<title>Node34&#45;&gt;Node13</title>
<g id="a_edge50_Node000034_Node000013"><a xlink:title=" ">
<path fill="none" stroke="#63b8ff" d="M583.89,-386.29C589.06,-383.83 593.91,-380.74 598,-376.85 632.56,-344.04 603.8,-312.72 634,-275.85 648.62,-258.01 670.79,-244.6 689.47,-235.62"/>
<polygon fill="#63b8ff" stroke="#63b8ff" points="690.95,-238.79 698.59,-231.44 688.04,-232.42 690.95,-238.79"/>
</a>
</g>
</g>
<!-- Node34&#45;&gt;Node19 -->
<g id="edge51_Node000034_Node000019" class="edge">
<title>Node34&#45;&gt;Node19</title>
<g id="a_edge51_Node000034_Node000019"><a xlink:title=" ">
<path fill="none" stroke="#63b8ff" d="M572.76,-386.33C581.24,-383.7 590.06,-380.53 598,-376.85 637.86,-358.39 679.78,-328.75 703.81,-310.62"/>
<polygon fill="#63b8ff" stroke="#63b8ff" points="706,-313.35 711.82,-304.5 701.75,-307.79 706,-313.35"/>
</a>
</g>
</g>
<!-- Node35 -->
<g id="Node000035" class="node">
<title>Node35</title>
<g id="a_Node000035"><a xlink:href="classObjId.html#ab6b120d314aab5abc3ea8bb7ead5ae41" target="_top" xlink:title=" ">
<polygon fill="white" stroke="#666666" points="762,-479.35 688,-479.35 688,-460.35 762,-460.35 762,-479.35"/>
<text text-anchor="middle" x="725" y="-467.35" font-family="Ubuntu Mono" font-size="10.00">ObjId::ObjId</text>
</a>
</g>
</g>
<!-- Node34&#45;&gt;Node35 -->
<g id="edge52_Node000034_Node000035" class="edge">
<title>Node34&#45;&gt;Node35</title>
<g id="a_edge52_Node000034_Node000035"><a xlink:title=" ">
<path fill="none" stroke="#63b8ff" d="M571.72,-405.45C580.42,-407.95 589.6,-410.81 598,-413.85 632.33,-426.28 670.48,-443.77 695.71,-455.89"/>
<polygon fill="#63b8ff" stroke="#63b8ff" points="694.18,-459.04 704.71,-460.25 697.23,-452.74 694.18,-459.04"/>
</a>
</g>
</g>
<!-- Node40&#45;&gt;Node39 -->
<g id="edge61_Node000040_Node000039" class="edge">
<title>Node40&#45;&gt;Node39</title>
<g id="a_edge61_Node000040_Node000039"><a xlink:title=" ">
<path fill="none" stroke="#63b8ff" d="M570.59,-586.47C606.44,-590.07 660.77,-595.51 694.23,-598.87"/>
<polygon fill="#63b8ff" stroke="#63b8ff" points="694.01,-602.36 704.31,-599.88 694.71,-595.4 694.01,-602.36"/>
</a>
</g>
</g>
<!-- Node41&#45;&gt;Node21 -->
<g id="edge63_Node000041_Node000021" class="edge">
<title>Node41&#45;&gt;Node21</title>
<g id="a_edge63_Node000041_Node000021"><a xlink:title=" ">
<path fill="none" stroke="#63b8ff" d="M566.13,-504.77C577.9,-502.32 590.26,-497.43 598,-487.85 661.21,-409.67 567.21,-112.01 634,-36.85 645.13,-24.33 662.31,-19.05 678.68,-17.19"/>
<polygon fill="#63b8ff" stroke="#63b8ff" points="679,-20.68 688.71,-16.44 678.48,-13.7 679,-20.68"/>
</a>
</g>
</g>
<!-- Node41&#45;&gt;Node35 -->
<g id="edge64_Node000041_Node000035" class="edge">
<title>Node41&#45;&gt;Node35</title>
<g id="a_edge64_Node000041_Node000035"><a xlink:title=" ">
<path fill="none" stroke="#63b8ff" d="M566.22,-500.66C596.81,-494.69 643.44,-485.58 678.09,-478.82"/>
<polygon fill="#63b8ff" stroke="#63b8ff" points="678.83,-482.24 687.97,-476.89 677.49,-475.37 678.83,-482.24"/>
</a>
</g>
</g>
<!-- Node44 -->
<g id="Node000044" class="node">
<title>Node44</title>
<g id="a_Node000044"><a xlink:href="classId.html#a38206d79367649ab0056b93e6da3b789" target="_top" xlink:title=" ">
<polygon fill="white" stroke="#666666" points="769.5,-667.35 680.5,-667.35 680.5,-648.35 769.5,-648.35 769.5,-667.35"/>
<text text-anchor="middle" x="725" y="-655.35" font-family="Ubuntu Mono" font-size="10.00">Id::operator==</text>
</a>
</g>
</g>
<!-- Node43&#45;&gt;Node44 -->
<g id="edge67_Node000043_Node000044" class="edge">
<title>Node43&#45;&gt;Node44</title>
<g id="a_edge67_Node000043_Node000044"><a xlink:title=" ">
<path fill="none" stroke="#63b8ff" d="M586.53,-658.58C612.55,-658.44 644.01,-658.27 670.26,-658.14"/>
<polygon fill="#63b8ff" stroke="#63b8ff" points="670.43,-661.64 680.41,-658.08 670.4,-654.64 670.43,-661.64"/>
</a>
</g>
</g>
</g>
</svg>
