<?xml version="1.0" encoding="UTF-8" standalone="no"?>
<!DOCTYPE svg PUBLIC "-//W3C//DTD SVG 1.1//EN"
 "http://www.w3.org/Graphics/SVG/1.1/DTD/svg11.dtd">
<!-- Generated by graphviz version 2.43.0 (0)
 -->
<!-- Title: SingleMsg::firstTgt Pages: 1 -->
<svg width="233pt" height="64pt"
 viewBox="0.00 0.00 233.00 64.00" xmlns="http://www.w3.org/2000/svg" xmlns:xlink="http://www.w3.org/1999/xlink">
<g id="graph0" class="graph" transform="scale(1 1) rotate(0) translate(4 60)">
<title>SingleMsg::firstTgt</title>
<!-- Node1 -->
<g id="Node000001" class="node">
<title>Node1</title>
<g id="a_Node000001"><a xlink:title=" ">
<polygon fill="#999999" stroke="#666666" points="107,-37 0,-37 0,-18 107,-18 107,-37"/>
<text text-anchor="middle" x="53.5" y="-25" font-family="Ubuntu Mono" font-size="10.00">SingleMsg::firstTgt</text>
</a>
</g>
</g>
<!-- Node2 -->
<g id="Node000002" class="node">
<title>Node2</title>
<g id="a_Node000002"><a xlink:href="classEref.html#a47b59ab86165cceb0bde80c76c3f7fa2" target="_top" xlink:title=" ">
<polygon fill="white" stroke="#666666" points="225,-56 143,-56 143,-37 225,-37 225,-56"/>
<text text-anchor="middle" x="184" y="-44" font-family="Ubuntu Mono" font-size="10.00">Eref::element</text>
</a>
</g>
</g>
<!-- Node1&#45;&gt;Node2 -->
<g id="edge1_Node000001_Node000002" class="edge">
<title>Node1&#45;&gt;Node2</title>
<g id="a_edge1_Node000001_Node000002"><a xlink:title=" ">
<path fill="none" stroke="#63b8ff" d="M107.14,-35.28C115.61,-36.54 124.37,-37.83 132.78,-39.07"/>
<polygon fill="#63b8ff" stroke="#63b8ff" points="132.44,-42.56 142.84,-40.56 133.46,-35.64 132.44,-42.56"/>
</a>
</g>
</g>
<!-- Node3 -->
<g id="Node000003" class="node">
<title>Node3</title>
<g id="a_Node000003"><a xlink:href="classEref.html#a3addb850bc6cbac7771a07de219d909d" target="_top" xlink:title=" ">
<polygon fill="white" stroke="#666666" points="214.5,-19 153.5,-19 153.5,0 214.5,0 214.5,-19"/>
<text text-anchor="middle" x="184" y="-7" font-family="Ubuntu Mono" font-size="10.00">Eref::Eref</text>
</a>
</g>
</g>
<!-- Node1&#45;&gt;Node3 -->
<g id="edge2_Node000001_Node000003" class="edge">
<title>Node1&#45;&gt;Node3</title>
<g id="a_edge2_Node000001_Node000003"><a xlink:title=" ">
<path fill="none" stroke="#63b8ff" d="M107.14,-20.13C119.24,-18.43 131.9,-16.66 143.34,-15.05"/>
<polygon fill="#63b8ff" stroke="#63b8ff" points="144.04,-18.49 153.46,-13.64 143.07,-11.56 144.04,-18.49"/>
</a>
</g>
</g>
</g>
</svg>
