<?xml version="1.0" encoding="UTF-8" standalone="no"?>
<!DOCTYPE svg PUBLIC "-//W3C//DTD SVG 1.1//EN"
 "http://www.w3.org/Graphics/SVG/1.1/DTD/svg11.dtd">
<!-- Generated by graphviz version 2.43.0 (0)
 -->
<!-- Title: SwcSegment::OK Pages: 1 -->
<svg width="770pt" height="78pt"
 viewBox="0.00 0.00 770.00 78.48" xmlns="http://www.w3.org/2000/svg" xmlns:xlink="http://www.w3.org/1999/xlink">
<g id="graph0" class="graph" transform="scale(1 1) rotate(0) translate(4 74.48)">
<title>SwcSegment::OK</title>
<!-- Node1 -->
<g id="Node000001" class="node">
<title>Node1</title>
<g id="a_Node000001"><a xlink:title=" ">
<polygon fill="#999999" stroke="#666666" points="762,-33.48 662,-33.48 662,-14.48 762,-14.48 762,-33.48"/>
<text text-anchor="middle" x="712" y="-21.48" font-family="Ubuntu Mono" font-size="10.00">SwcSegment::OK</text>
</a>
</g>
</g>
<!-- Node2 -->
<g id="Node000002" class="node">
<title>Node2</title>
<g id="a_Node000002"><a xlink:href="classReadSwc.html#a542eecd2af5b5e8b4587d6a4ca298607" target="_top" xlink:title=" ">
<polygon fill="white" stroke="#666666" points="441,-70.48 350,-70.48 350,-51.48 441,-51.48 441,-70.48"/>
<text text-anchor="middle" x="395.5" y="-58.48" font-family="Ubuntu Mono" font-size="10.00">ReadSwc::build</text>
</a>
</g>
</g>
<!-- Node1&#45;&gt;Node2 -->
<g id="edge1_Node000001_Node000002" class="edge">
<title>Node1&#45;&gt;Node2</title>
<g id="a_edge1_Node000001_Node000002"><a xlink:title=" ">
<path fill="none" stroke="#63b8ff" d="M661.11,-35.65C649.62,-38.02 637.43,-40.31 626,-41.98 562.12,-51.36 487.5,-56.46 441.11,-58.96"/>
<polygon fill="#63b8ff" stroke="#63b8ff" points="661.92,-39.05 670.98,-33.55 660.47,-32.2 661.92,-39.05"/>
</a>
</g>
</g>
<!-- Node5 -->
<g id="Node000005" class="node">
<title>Node5</title>
<g id="a_Node000005"><a xlink:href="classReadSwc.html#a969abd8c654c82fef8f1ff33dc7c6ae8" target="_top" xlink:title=" ">
<polygon fill="white" stroke="#666666" points="626,-33.48 487,-33.48 487,-14.48 626,-14.48 626,-33.48"/>
<text text-anchor="middle" x="556.5" y="-21.48" font-family="Ubuntu Mono" font-size="10.00">ReadSwc::parseBranches</text>
</a>
</g>
</g>
<!-- Node1&#45;&gt;Node5 -->
<g id="edge4_Node000001_Node000005" class="edge">
<title>Node1&#45;&gt;Node5</title>
<g id="a_edge4_Node000001_Node000005"><a xlink:title=" ">
<path fill="none" stroke="#63b8ff" d="M651.58,-23.98C643.24,-23.98 634.61,-23.98 626.11,-23.98"/>
<polygon fill="#63b8ff" stroke="#63b8ff" points="651.59,-27.48 661.59,-23.98 651.59,-20.48 651.59,-27.48"/>
</a>
</g>
</g>
<!-- Node6 -->
<g id="Node000006" class="node">
<title>Node6</title>
<g id="a_Node000006"><a xlink:href="classReadSwc.html#a17d574342aa712300646c03090de1f44" target="_top" xlink:title=" ">
<polygon fill="white" stroke="#666666" points="451,-33.48 340,-33.48 340,-14.48 451,-14.48 451,-33.48"/>
<text text-anchor="middle" x="395.5" y="-21.48" font-family="Ubuntu Mono" font-size="10.00">ReadSwc::ReadSwc</text>
</a>
</g>
</g>
<!-- Node1&#45;&gt;Node6 -->
<g id="edge7_Node000001_Node000006" class="edge">
<title>Node1&#45;&gt;Node6</title>
<g id="a_edge7_Node000001_Node000006"><a xlink:title=" ">
<path fill="none" stroke="#63b8ff" d="M666.48,-12.1C653.52,-9.17 639.28,-6.45 626,-4.98 564.6,1.79 548.45,1.4 487,-4.98 469.12,-6.84 449.56,-10.71 433.21,-14.48"/>
<polygon fill="#63b8ff" stroke="#63b8ff" points="666.01,-15.59 676.55,-14.48 667.62,-8.77 666.01,-15.59"/>
</a>
</g>
</g>
<!-- Node3 -->
<g id="Node000003" class="node">
<title>Node3</title>
<g id="a_Node000003"><a xlink:href="classShell.html#a506ff431369e3bce87f0e6c767fe475c" target="_top" xlink:title="Returns the Id of the loaded model.">
<polygon fill="white" stroke="#666666" points="304,-51.48 192,-51.48 192,-32.48 304,-32.48 304,-51.48"/>
<text text-anchor="middle" x="248" y="-39.48" font-family="Ubuntu Mono" font-size="10.00">Shell::doLoadModel</text>
</a>
</g>
</g>
<!-- Node2&#45;&gt;Node3 -->
<g id="edge2_Node000002_Node000003" class="edge">
<title>Node2&#45;&gt;Node3</title>
<g id="a_edge2_Node000002_Node000003"><a xlink:title=" ">
<path fill="none" stroke="#63b8ff" d="M339.67,-53.82C328.07,-52.31 315.82,-50.71 304.21,-49.19"/>
<polygon fill="#63b8ff" stroke="#63b8ff" points="339.29,-57.3 349.66,-55.13 340.2,-50.36 339.29,-57.3"/>
</a>
</g>
</g>
<!-- Node4 -->
<g id="Node000004" class="node">
<title>Node4</title>
<g id="a_Node000004"><a xlink:href="namespacepymoose.html#a995d880f6c2e5cfb0545ec3640f76eef" target="_top" xlink:title="Model loaders built into Shell, others can be implemented in Python.">
<polygon fill="white" stroke="#666666" points="156,-51.48 0,-51.48 0,-32.48 156,-32.48 156,-51.48"/>
<text text-anchor="middle" x="78" y="-39.48" font-family="Ubuntu Mono" font-size="10.00">pymoose::loadModelInternal</text>
</a>
</g>
</g>
<!-- Node3&#45;&gt;Node4 -->
<g id="edge3_Node000003_Node000004" class="edge">
<title>Node3&#45;&gt;Node4</title>
<g id="a_edge3_Node000003_Node000004"><a xlink:title=" ">
<path fill="none" stroke="#63b8ff" d="M181.85,-41.98C173.41,-41.98 164.7,-41.98 156.09,-41.98"/>
<polygon fill="#63b8ff" stroke="#63b8ff" points="181.99,-45.48 191.99,-41.98 181.99,-38.48 181.99,-45.48"/>
</a>
</g>
</g>
<!-- Node5&#45;&gt;Node6 -->
<g id="edge5_Node000005_Node000006" class="edge">
<title>Node5&#45;&gt;Node6</title>
<g id="a_edge5_Node000005_Node000006"><a xlink:title=" ">
<path fill="none" stroke="#63b8ff" d="M476.58,-23.98C467.94,-23.98 459.3,-23.98 451.05,-23.98"/>
<polygon fill="#63b8ff" stroke="#63b8ff" points="476.69,-27.48 486.69,-23.98 476.69,-20.48 476.69,-27.48"/>
</a>
</g>
</g>
<!-- Node6&#45;&gt;Node3 -->
<g id="edge6_Node000006_Node000003" class="edge">
<title>Node6&#45;&gt;Node3</title>
<g id="a_edge6_Node000006_Node000003"><a xlink:title=" ">
<path fill="none" stroke="#63b8ff" d="M329.98,-31.97C321.44,-33.02 312.75,-34.1 304.38,-35.13"/>
<polygon fill="#63b8ff" stroke="#63b8ff" points="330.41,-35.44 339.91,-30.74 329.55,-28.49 330.41,-35.44"/>
</a>
</g>
</g>
</g>
</svg>
