<?xml version="1.0" encoding="UTF-8" standalone="no"?>
<!DOCTYPE svg PUBLIC "-//W3C//DTD SVG 1.1//EN"
 "http://www.w3.org/Graphics/SVG/1.1/DTD/svg11.dtd">
<!-- Generated by graphviz version 2.43.0 (0)
 -->
<!-- Title: matchMid::matchMid Pages: 1 -->
<svg width="376pt" height="27pt"
 viewBox="0.00 0.00 376.00 27.00" xmlns="http://www.w3.org/2000/svg" xmlns:xlink="http://www.w3.org/1999/xlink">
<g id="graph0" class="graph" transform="scale(1 1) rotate(0) translate(4 23)">
<title>matchMid::matchMid</title>
<!-- Node1 -->
<g id="Node000001" class="node">
<title>Node1</title>
<g id="a_Node000001"><a xlink:title=" ">
<polygon fill="#999999" stroke="#666666" points="368,-19 248,-19 248,0 368,0 368,-19"/>
<text text-anchor="middle" x="308" y="-7" font-family="Ubuntu Mono" font-size="10.00">matchMid::matchMid</text>
</a>
</g>
</g>
<!-- Node2 -->
<g id="Node000002" class="node">
<title>Node2</title>
<g id="a_Node000002"><a xlink:href="classElement.html#a97ef24cbcdd65e62daac54a70a6c14cf" target="_top" xlink:title=" ">
<polygon fill="white" stroke="#666666" points="212,-19 107,-19 107,0 212,0 212,-19"/>
<text text-anchor="middle" x="159.5" y="-7" font-family="Ubuntu Mono" font-size="10.00">Element::dropMsg</text>
</a>
</g>
</g>
<!-- Node1&#45;&gt;Node2 -->
<g id="edge1_Node000001_Node000002" class="edge">
<title>Node1&#45;&gt;Node2</title>
<g id="a_edge1_Node000001_Node000002"><a xlink:title=" ">
<path fill="none" stroke="#63b8ff" d="M237.83,-9.5C229.25,-9.5 220.6,-9.5 212.34,-9.5"/>
<polygon fill="#63b8ff" stroke="#63b8ff" points="237.84,-13 247.84,-9.5 237.84,-6 237.84,-13"/>
</a>
</g>
</g>
<!-- Node3 -->
<g id="Node000003" class="node">
<title>Node3</title>
<g id="a_Node000003"><a xlink:href="classMsg.html#a715c8aab3c0266c4befaa78b3da7f3b0" target="_top" xlink:title="Destructor.">
<polygon fill="white" stroke="#666666" points="71,-19 0,-19 0,0 71,0 71,-19"/>
<text text-anchor="middle" x="35.5" y="-7" font-family="Ubuntu Mono" font-size="10.00">Msg::~Msg</text>
</a>
</g>
</g>
<!-- Node2&#45;&gt;Node3 -->
<g id="edge2_Node000002_Node000003" class="edge">
<title>Node2&#45;&gt;Node3</title>
<g id="a_edge2_Node000002_Node000003"><a xlink:title=" ">
<path fill="none" stroke="#63b8ff" d="M96.61,-9.5C87.93,-9.5 79.27,-9.5 71.35,-9.5"/>
<polygon fill="#63b8ff" stroke="#63b8ff" points="96.76,-13 106.76,-9.5 96.76,-6 96.76,-13"/>
</a>
</g>
</g>
</g>
</svg>
