<?xml version="1.0" encoding="UTF-8" standalone="no"?>
<!DOCTYPE svg PUBLIC "-//W3C//DTD SVG 1.1//EN"
 "http://www.w3.org/Graphics/SVG/1.1/DTD/svg11.dtd">
<!-- Generated by graphviz version 2.43.0 (0)
 -->
<!-- Title: SynChan::vSetGbar Pages: 1 -->
<svg width="458pt" height="101pt"
 viewBox="0.00 0.00 458.00 101.00" xmlns="http://www.w3.org/2000/svg" xmlns:xlink="http://www.w3.org/1999/xlink">
<g id="graph0" class="graph" transform="scale(1 1) rotate(0) translate(4 97)">
<title>SynChan::vSetGbar</title>
<!-- Node1 -->
<g id="Node000001" class="node">
<title>Node1</title>
<g id="a_Node000001"><a xlink:title=" ">
<polygon fill="#999999" stroke="#666666" points="110,-37 0,-37 0,-18 110,-18 110,-37"/>
<text text-anchor="middle" x="55" y="-25" font-family="Ubuntu Mono" font-size="10.00">SynChan::vSetGbar</text>
</a>
</g>
</g>
<!-- Node2 -->
<g id="Node000002" class="node">
<title>Node2</title>
<g id="a_Node000002"><a xlink:href="classSynChan.html#af8337c15f17d49afaaaced9692b9d3a4" target="_top" xlink:title=" ">
<polygon fill="white" stroke="#666666" points="283,-56 146,-56 146,-37 283,-37 283,-56"/>
<text text-anchor="middle" x="214.5" y="-44" font-family="Ubuntu Mono" font-size="10.00">SynChan::normalizeGbar</text>
</a>
</g>
</g>
<!-- Node1&#45;&gt;Node2 -->
<g id="edge1_Node000001_Node000002" class="edge">
<title>Node1&#45;&gt;Node2</title>
<g id="a_edge1_Node000001_Node000002"><a xlink:title=" ">
<path fill="none" stroke="#63b8ff" d="M110.2,-34.04C118.45,-35.03 127.1,-36.08 135.74,-37.12"/>
<polygon fill="#63b8ff" stroke="#63b8ff" points="135.49,-40.61 145.84,-38.34 136.33,-33.67 135.49,-40.61"/>
</a>
</g>
</g>
<!-- Node6 -->
<g id="Node000006" class="node">
<title>Node6</title>
<g id="a_Node000006"><a xlink:href="classChanCommon.html#ae56f5f4b2cd2a39025dd99ddc3d37043" target="_top" xlink:title=" ">
<polygon fill="white" stroke="#666666" points="283,-19 146,-19 146,0 283,0 283,-19"/>
<text text-anchor="middle" x="214.5" y="-7" font-family="Ubuntu Mono" font-size="10.00">ChanCommon::vSetGbar</text>
</a>
</g>
</g>
<!-- Node1&#45;&gt;Node6 -->
<g id="edge5_Node000001_Node000006" class="edge">
<title>Node1&#45;&gt;Node6</title>
<g id="a_edge5_Node000001_Node000006"><a xlink:title=" ">
<path fill="none" stroke="#63b8ff" d="M110.2,-21.31C118.45,-20.36 127.1,-19.37 135.74,-18.39"/>
<polygon fill="#63b8ff" stroke="#63b8ff" points="136.3,-21.85 145.84,-17.23 135.51,-14.89 136.3,-21.85"/>
</a>
</g>
</g>
<!-- Node3 -->
<g id="Node000003" class="node">
<title>Node3</title>
<g id="a_Node000003"><a xlink:href="doubleEq_8cpp.html#accfeefca4825a69921a3916e4f7538b7" target="_top" xlink:title=" ">
<polygon fill="white" stroke="#666666" points="415.5,-93 353.5,-93 353.5,-74 415.5,-74 415.5,-93"/>
<text text-anchor="middle" x="384.5" y="-81" font-family="Ubuntu Mono" font-size="10.00">doubleEq</text>
</a>
</g>
</g>
<!-- Node2&#45;&gt;Node3 -->
<g id="edge2_Node000002_Node000003" class="edge">
<title>Node2&#45;&gt;Node3</title>
<g id="a_edge2_Node000002_Node000003"><a xlink:title=" ">
<path fill="none" stroke="#63b8ff" d="M258.76,-56.03C284.83,-61.77 317.79,-69.03 343.29,-74.64"/>
<polygon fill="#63b8ff" stroke="#63b8ff" points="342.84,-78.13 353.36,-76.86 344.35,-71.29 342.84,-78.13"/>
</a>
</g>
</g>
<!-- Node4 -->
<g id="Node000004" class="node">
<title>Node4</title>
<g id="a_Node000004"><a xlink:href="classChanCommon.html#a3cfd15c9edef381013aa781d23a4ef8a" target="_top" xlink:title="Utility function to acces Gbar.">
<polygon fill="white" stroke="#666666" points="450,-56 319,-56 319,-37 450,-37 450,-56"/>
<text text-anchor="middle" x="384.5" y="-44" font-family="Ubuntu Mono" font-size="10.00">ChanCommon::getGbar</text>
</a>
</g>
</g>
<!-- Node2&#45;&gt;Node4 -->
<g id="edge3_Node000002_Node000004" class="edge">
<title>Node2&#45;&gt;Node4</title>
<g id="a_edge3_Node000002_Node000004"><a xlink:title=" ">
<path fill="none" stroke="#63b8ff" d="M283.35,-46.5C291.7,-46.5 300.27,-46.5 308.72,-46.5"/>
<polygon fill="#63b8ff" stroke="#63b8ff" points="308.94,-50 318.94,-46.5 308.94,-43 308.94,-50"/>
</a>
</g>
</g>
<!-- Node5 -->
<g id="Node000005" class="node">
<title>Node5</title>
<g id="a_Node000005"><a xlink:href="SynChan_8cpp.html#a09325e4825a5589da1f81929c025b452" target="_top" xlink:title=" ">
<polygon fill="white" stroke="#666666" points="405,-19 364,-19 364,0 405,0 405,-19"/>
<text text-anchor="middle" x="384.5" y="-7" font-family="Ubuntu Mono" font-size="10.00">SynE</text>
</a>
</g>
</g>
<!-- Node2&#45;&gt;Node5 -->
<g id="edge4_Node000002_Node000005" class="edge">
<title>Node2&#45;&gt;Node5</title>
<g id="a_edge4_Node000002_Node000005"><a xlink:title=" ">
<path fill="none" stroke="#63b8ff" d="M258.76,-36.97C288.63,-30.39 327.57,-21.82 353.93,-16.01"/>
<polygon fill="#63b8ff" stroke="#63b8ff" points="354.71,-19.43 363.72,-13.86 353.2,-12.59 354.71,-19.43"/>
</a>
</g>
</g>
</g>
</svg>
