<?xml version="1.0" encoding="UTF-8" standalone="no"?>
<!DOCTYPE svg PUBLIC "-//W3C//DTD SVG 1.1//EN"
 "http://www.w3.org/Graphics/SVG/1.1/DTD/svg11.dtd">
<!-- Generated by graphviz version 2.43.0 (0)
 -->
<!-- Title: NeuroMesh::getNumSegments Pages: 1 -->
<svg width="519pt" height="27pt"
 viewBox="0.00 0.00 519.00 27.00" xmlns="http://www.w3.org/2000/svg" xmlns:xlink="http://www.w3.org/1999/xlink">
<g id="graph0" class="graph" transform="scale(1 1) rotate(0) translate(4 23)">
<title>NeuroMesh::getNumSegments</title>
<!-- Node1 -->
<g id="Node000001" class="node">
<title>Node1</title>
<g id="a_Node000001"><a xlink:title=" ">
<polygon fill="#999999" stroke="#666666" points="166,-19 0,-19 0,0 166,0 166,-19"/>
<text text-anchor="middle" x="83" y="-7" font-family="Ubuntu Mono" font-size="10.00">NeuroMesh::getNumSegments</text>
</a>
</g>
</g>
<!-- Node2 -->
<g id="Node000002" class="node">
<title>Node2</title>
<g id="a_Node000002"><a xlink:href="classNeuroNode.html#a4943fb2e254169fa5aad788c67bd0a75" target="_top" xlink:title=" ">
<polygon fill="white" stroke="#666666" points="352,-19 202,-19 202,0 352,0 352,-19"/>
<text text-anchor="middle" x="277" y="-7" font-family="Ubuntu Mono" font-size="10.00">NeuroNode::isDummyNode</text>
</a>
</g>
</g>
<!-- Node1&#45;&gt;Node2 -->
<g id="edge1_Node000001_Node000002" class="edge">
<title>Node1&#45;&gt;Node2</title>
<g id="a_edge1_Node000001_Node000002"><a xlink:title=" ">
<path fill="none" stroke="#63b8ff" d="M166.26,-9.5C174.65,-9.5 183.19,-9.5 191.61,-9.5"/>
<polygon fill="#63b8ff" stroke="#63b8ff" points="191.8,-13 201.8,-9.5 191.8,-6 191.8,-13"/>
</a>
</g>
</g>
<!-- Node3 -->
<g id="Node000003" class="node">
<title>Node3</title>
<g id="a_Node000003"><a xlink:href="classCylBase.html#a1fa6d6203b2286cc3d0b26b6ec8e5176" target="_top" xlink:title=" ">
<polygon fill="white" stroke="#666666" points="511,-19 388,-19 388,0 511,0 511,-19"/>
<text text-anchor="middle" x="449.5" y="-7" font-family="Ubuntu Mono" font-size="10.00">CylBase::getNumDivs</text>
</a>
</g>
</g>
<!-- Node2&#45;&gt;Node3 -->
<g id="edge2_Node000002_Node000003" class="edge">
<title>Node2&#45;&gt;Node3</title>
<g id="a_edge2_Node000002_Node000003"><a xlink:title=" ">
<path fill="none" stroke="#63b8ff" d="M352.29,-9.5C360.71,-9.5 369.28,-9.5 377.65,-9.5"/>
<polygon fill="#63b8ff" stroke="#63b8ff" points="377.75,-13 387.75,-9.5 377.75,-6 377.75,-13"/>
</a>
</g>
</g>
</g>
</svg>
