<?xml version="1.0" encoding="UTF-8" standalone="no"?>
<!DOCTYPE svg PUBLIC "-//W3C//DTD SVG 1.1//EN"
 "http://www.w3.org/Graphics/SVG/1.1/DTD/svg11.dtd">
<!-- Generated by graphviz version 2.43.0 (0)
 -->
<!-- Title: HHGate::updateTables Pages: 1 -->
<svg width="288pt" height="249pt"
 viewBox="0.00 0.00 288.00 249.00" xmlns="http://www.w3.org/2000/svg" xmlns:xlink="http://www.w3.org/1999/xlink">
<g id="graph0" class="graph" transform="scale(1 1) rotate(0) translate(4 245)">
<title>HHGate::updateTables</title>
<!-- Node1 -->
<g id="Node000001" class="node">
<title>Node1</title>
<g id="a_Node000001"><a xlink:title=" ">
<polygon fill="#999999" stroke="#666666" points="280,-130 155,-130 155,-111 280,-111 280,-130"/>
<text text-anchor="middle" x="217.5" y="-118" font-family="Ubuntu Mono" font-size="10.00">HHGate::updateTables</text>
</a>
</g>
</g>
<!-- Node2 -->
<g id="Node000002" class="node">
<title>Node2</title>
<g id="a_Node000002"><a xlink:href="classHHGate.html#ac5be99e28d5bc76ab5333d11a7256458" target="_top" xlink:title=" ">
<polygon fill="white" stroke="#666666" points="111.5,-241 7.5,-241 7.5,-222 111.5,-222 111.5,-241"/>
<text text-anchor="middle" x="59.5" y="-229" font-family="Ubuntu Mono" font-size="10.00">HHGate::setAlpha</text>
</a>
</g>
</g>
<!-- Node1&#45;&gt;Node2 -->
<g id="edge1_Node000001_Node000002" class="edge">
<title>Node1&#45;&gt;Node2</title>
<g id="a_edge1_Node000001_Node000002"><a xlink:title=" ">
<path fill="none" stroke="#63b8ff" d="M202.65,-137.94C185.24,-158.77 153.41,-193.33 119,-213.5 113.32,-216.83 106.95,-219.6 100.58,-221.9"/>
<polygon fill="#63b8ff" stroke="#63b8ff" points="205.38,-140.14 209,-130.18 199.96,-135.71 205.38,-140.14"/>
</a>
</g>
</g>
<!-- Node3 -->
<g id="Node000003" class="node">
<title>Node3</title>
<g id="a_Node000003"><a xlink:href="classHHGate.html#afabc941732822811b7615279a0981532" target="_top" xlink:title=" ">
<polygon fill="white" stroke="#666666" points="108.5,-204 10.5,-204 10.5,-185 108.5,-185 108.5,-204"/>
<text text-anchor="middle" x="59.5" y="-192" font-family="Ubuntu Mono" font-size="10.00">HHGate::setBeta</text>
</a>
</g>
</g>
<!-- Node1&#45;&gt;Node3 -->
<g id="edge2_Node000001_Node000003" class="edge">
<title>Node1&#45;&gt;Node3</title>
<g id="a_edge2_Node000001_Node000003"><a xlink:title=" ">
<path fill="none" stroke="#63b8ff" d="M193.75,-135.51C174.46,-147.76 145.74,-164.88 119,-176.5 111.69,-179.68 103.64,-182.54 95.92,-184.99"/>
<polygon fill="#63b8ff" stroke="#63b8ff" points="195.65,-138.45 202.17,-130.1 191.86,-132.57 195.65,-138.45"/>
</a>
</g>
</g>
<!-- Node4 -->
<g id="Node000004" class="node">
<title>Node4</title>
<g id="a_Node000004"><a xlink:href="classHHGate.html#a6ecbeb88f8da694dfec21df5806a3a92" target="_top" xlink:title=" ">
<polygon fill="white" stroke="#666666" points="108.5,-167 10.5,-167 10.5,-148 108.5,-148 108.5,-167"/>
<text text-anchor="middle" x="59.5" y="-155" font-family="Ubuntu Mono" font-size="10.00">HHGate::setDivs</text>
</a>
</g>
</g>
<!-- Node1&#45;&gt;Node4 -->
<g id="edge3_Node000001_Node000004" class="edge">
<title>Node1&#45;&gt;Node4</title>
<g id="a_edge3_Node000001_Node000004"><a xlink:title=" ">
<path fill="none" stroke="#63b8ff" d="M166.51,-132.36C145.28,-137.39 120.86,-143.18 100.81,-147.94"/>
<polygon fill="#63b8ff" stroke="#63b8ff" points="167.4,-135.74 176.33,-130.03 165.79,-128.93 167.4,-135.74"/>
</a>
</g>
</g>
<!-- Node5 -->
<g id="Node000005" class="node">
<title>Node5</title>
<g id="a_Node000005"><a xlink:href="classHHGate.html#aaf1876cbef3c9a463d956a902c224ff8" target="_top" xlink:title=" ">
<polygon fill="white" stroke="#666666" points="108,-130 11,-130 11,-111 108,-111 108,-130"/>
<text text-anchor="middle" x="59.5" y="-118" font-family="Ubuntu Mono" font-size="10.00">HHGate::setMax</text>
</a>
</g>
</g>
<!-- Node1&#45;&gt;Node5 -->
<g id="edge4_Node000001_Node000005" class="edge">
<title>Node1&#45;&gt;Node5</title>
<g id="a_edge4_Node000001_Node000005"><a xlink:title=" ">
<path fill="none" stroke="#63b8ff" d="M144.57,-120.5C132.25,-120.5 119.73,-120.5 108.24,-120.5"/>
<polygon fill="#63b8ff" stroke="#63b8ff" points="144.84,-124 154.84,-120.5 144.84,-117 144.84,-124"/>
</a>
</g>
</g>
<!-- Node6 -->
<g id="Node000006" class="node">
<title>Node6</title>
<g id="a_Node000006"><a xlink:href="classHHGate.html#a5921949b1ffa08132280c39ce4e6070c" target="_top" xlink:title=" ">
<polygon fill="white" stroke="#666666" points="106.5,-93 12.5,-93 12.5,-74 106.5,-74 106.5,-93"/>
<text text-anchor="middle" x="59.5" y="-81" font-family="Ubuntu Mono" font-size="10.00">HHGate::setMin</text>
</a>
</g>
</g>
<!-- Node1&#45;&gt;Node6 -->
<g id="edge5_Node000001_Node000006" class="edge">
<title>Node1&#45;&gt;Node6</title>
<g id="a_edge5_Node000001_Node000006"><a xlink:title=" ">
<path fill="none" stroke="#63b8ff" d="M166.51,-108.64C145.28,-103.61 120.86,-97.82 100.81,-93.06"/>
<polygon fill="#63b8ff" stroke="#63b8ff" points="165.79,-112.07 176.33,-110.97 167.4,-105.26 165.79,-112.07"/>
</a>
</g>
</g>
<!-- Node7 -->
<g id="Node000007" class="node">
<title>Node7</title>
<g id="a_Node000007"><a xlink:href="classHHGate.html#a4a4b8433ce126fd2e17602add06d7a85" target="_top" xlink:title=" ">
<polygon fill="white" stroke="#666666" points="119,-56 0,-56 0,-37 119,-37 119,-56"/>
<text text-anchor="middle" x="59.5" y="-44" font-family="Ubuntu Mono" font-size="10.00">HHGate::setMinfinity</text>
</a>
</g>
</g>
<!-- Node1&#45;&gt;Node7 -->
<g id="edge6_Node000001_Node000007" class="edge">
<title>Node1&#45;&gt;Node7</title>
<g id="a_edge6_Node000001_Node000007"><a xlink:title=" ">
<path fill="none" stroke="#63b8ff" d="M193.07,-105.52C173.74,-93.6 145.3,-77.05 119,-65.5 110.98,-61.98 102.1,-58.76 93.73,-56.02"/>
<polygon fill="#63b8ff" stroke="#63b8ff" points="191.45,-108.64 201.78,-110.96 195.15,-102.7 191.45,-108.64"/>
</a>
</g>
</g>
<!-- Node8 -->
<g id="Node000008" class="node">
<title>Node8</title>
<g id="a_Node000008"><a xlink:href="classHHGate.html#a7cefceaa2b6a0314178e5bdaac009e00" target="_top" xlink:title=" ">
<polygon fill="white" stroke="#666666" points="105.5,-19 13.5,-19 13.5,0 105.5,0 105.5,-19"/>
<text text-anchor="middle" x="59.5" y="-7" font-family="Ubuntu Mono" font-size="10.00">HHGate::setTau</text>
</a>
</g>
</g>
<!-- Node1&#45;&gt;Node8 -->
<g id="edge7_Node000001_Node000008" class="edge">
<title>Node1&#45;&gt;Node8</title>
<g id="a_edge7_Node000001_Node000008"><a xlink:title=" ">
<path fill="none" stroke="#63b8ff" d="M202.33,-103.07C184.77,-82.53 152.98,-48.65 119,-28.5 112.66,-24.74 105.49,-21.63 98.4,-19.09"/>
<polygon fill="#63b8ff" stroke="#63b8ff" points="199.84,-105.56 208.95,-110.98 205.21,-101.06 199.84,-105.56"/>
</a>
</g>
</g>
</g>
</svg>
