<?xml version="1.0" encoding="UTF-8" standalone="no"?>
<!DOCTYPE svg PUBLIC "-//W3C//DTD SVG 1.1//EN"
 "http://www.w3.org/Graphics/SVG/1.1/DTD/svg11.dtd">
<!-- Generated by graphviz version 2.43.0 (0)
 -->
<!-- Title: NeuroNode::parent Pages: 1 -->
<svg width="1345pt" height="540pt"
 viewBox="0.00 0.00 1345.00 539.50" xmlns="http://www.w3.org/2000/svg" xmlns:xlink="http://www.w3.org/1999/xlink">
<g id="graph0" class="graph" transform="scale(1 1) rotate(0) translate(4 535.5)">
<title>NeuroNode::parent</title>
<!-- Node1 -->
<g id="Node000001" class="node">
<title>Node1</title>
<g id="a_Node000001"><a xlink:title=" ">
<polygon fill="#999999" stroke="#666666" points="1337,-265 1228,-265 1228,-246 1337,-246 1337,-265"/>
<text text-anchor="middle" x="1282.5" y="-253" font-family="Ubuntu Mono" font-size="10.00">NeuroNode::parent</text>
</a>
</g>
</g>
<!-- Node2 -->
<g id="Node000002" class="node">
<title>Node2</title>
<g id="a_Node000002"><a xlink:href="NeuroNode_8cpp.html#a70d0e5a710a8c502839b5d157f705215" target="_top" xlink:title=" ">
<polygon fill="white" stroke="#666666" points="1141.5,-432 1060.5,-432 1060.5,-413 1141.5,-413 1141.5,-432"/>
<text text-anchor="middle" x="1101" y="-420" font-family="Ubuntu Mono" font-size="10.00">diagnoseTree</text>
</a>
</g>
</g>
<!-- Node1&#45;&gt;Node2 -->
<g id="edge1_Node000001_Node000002" class="edge">
<title>Node1&#45;&gt;Node2</title>
<g id="a_edge1_Node000001_Node000002"><a xlink:title=" ">
<path fill="none" stroke="#63b8ff" d="M1275.69,-274.66C1264.84,-306.94 1238.32,-371.87 1192,-404.5 1177.41,-414.78 1158.36,-419.51 1141.54,-421.58"/>
<polygon fill="#63b8ff" stroke="#63b8ff" points="1279.05,-275.64 1278.77,-265.05 1272.38,-273.5 1279.05,-275.64"/>
</a>
</g>
</g>
<!-- Node8 -->
<g id="Node000008" class="node">
<title>Node8</title>
<g id="a_Node000008"><a xlink:href="classNeuroNode.html#ab36c957a7d9ec6db4c8d8a69cd835d37" target="_top" xlink:title=" ">
<polygon fill="white" stroke="#666666" points="952,-277 820,-277 820,-258 952,-258 952,-277"/>
<text text-anchor="middle" x="886" y="-265" font-family="Ubuntu Mono" font-size="10.00">NeuroNode::filterSpines</text>
</a>
</g>
</g>
<!-- Node1&#45;&gt;Node8 -->
<g id="edge8_Node000001_Node000008" class="edge">
<title>Node1&#45;&gt;Node8</title>
<g id="a_edge8_Node000001_Node000008"><a xlink:title=" ">
<path fill="none" stroke="#63b8ff" d="M1254.15,-241.32C1236.85,-233.15 1213.72,-223.7 1192,-219.5 1112.59,-204.13 1089.32,-203.64 1010,-219.5 993,-222.9 990.11,-228.09 974,-234.5 953.59,-242.62 930.31,-251.43 912.97,-257.9"/>
<polygon fill="#63b8ff" stroke="#63b8ff" points="1253.09,-244.69 1263.62,-245.92 1256.16,-238.4 1253.09,-244.69"/>
</a>
</g>
</g>
<!-- Node9 -->
<g id="Node000009" class="node">
<title>Node9</title>
<g id="a_Node000009"><a xlink:href="classNeuroMesh.html#ae11ad998776b0f40a46ed1fb72db40c6" target="_top" xlink:title=" ">
<polygon fill="white" stroke="#666666" points="1157.5,-469 1044.5,-469 1044.5,-450 1157.5,-450 1157.5,-469"/>
<text text-anchor="middle" x="1101" y="-457" font-family="Ubuntu Mono" font-size="10.00">NeuroMesh::getAdx</text>
</a>
</g>
</g>
<!-- Node1&#45;&gt;Node9 -->
<g id="edge9_Node000001_Node000009" class="edge">
<title>Node1&#45;&gt;Node9</title>
<g id="a_edge9_Node000001_Node000009"><a xlink:title=" ">
<path fill="none" stroke="#63b8ff" d="M1278.05,-274.99C1270.19,-313.36 1247.15,-398.71 1192,-441.5 1182.18,-449.12 1169.99,-453.77 1157.78,-456.55"/>
<polygon fill="#63b8ff" stroke="#63b8ff" points="1281.51,-275.56 1279.96,-265.08 1274.63,-274.24 1281.51,-275.56"/>
</a>
</g>
</g>
<!-- Node11 -->
<g id="Node000011" class="node">
<title>Node11</title>
<g id="a_Node000011"><a xlink:href="classNeuroMesh.html#a05ab531bca2ba6c4f6ca1a7c875f497e" target="_top" xlink:title=" ">
<polygon fill="white" stroke="#666666" points="747,-469 601,-469 601,-450 747,-450 747,-469"/>
<text text-anchor="middle" x="674" y="-457" font-family="Ubuntu Mono" font-size="10.00">NeuroMesh::updateCoords</text>
</a>
</g>
</g>
<!-- Node1&#45;&gt;Node11 -->
<g id="edge34_Node000001_Node000011" class="edge">
<title>Node1&#45;&gt;Node11</title>
<g id="a_edge34_Node000001_Node000011"><a xlink:title=" ">
<path fill="none" stroke="#63b8ff" d="M1280.5,-275.47C1277.02,-320.88 1261.45,-431.54 1192,-478.5 1031.85,-586.79 775.51,-499.54 697.95,-469.02"/>
<polygon fill="#63b8ff" stroke="#63b8ff" points="1284,-275.62 1281.15,-265.41 1277.01,-275.17 1284,-275.62"/>
</a>
</g>
</g>
<!-- Node16 -->
<g id="Node000016" class="node">
<title>Node16</title>
<g id="a_Node000016"><a xlink:href="classNeuroMesh.html#afc83707be240b6c0b49ccaae3c486551" target="_top" xlink:title="Virtual function to return coords of mesh Entry.">
<polygon fill="white" stroke="#666666" points="1177,-358 1025,-358 1025,-339 1177,-339 1177,-358"/>
<text text-anchor="middle" x="1101" y="-346" font-family="Ubuntu Mono" font-size="10.00">NeuroMesh::getCoordinates</text>
</a>
</g>
</g>
<!-- Node1&#45;&gt;Node16 -->
<g id="edge19_Node000001_Node000016" class="edge">
<title>Node1&#45;&gt;Node16</title>
<g id="a_edge19_Node000001_Node000016"><a xlink:title=" ">
<path fill="none" stroke="#63b8ff" d="M1266,-272.8C1249.43,-290.17 1221.53,-316.33 1192,-330.5 1184.82,-333.95 1177.01,-336.73 1169.09,-338.99"/>
<polygon fill="#63b8ff" stroke="#63b8ff" points="1268.94,-274.78 1273.18,-265.07 1263.81,-270.02 1268.94,-274.78"/>
</a>
</g>
</g>
<!-- Node17 -->
<g id="Node000017" class="node">
<title>Node17</title>
<g id="a_Node000017"><a xlink:href="classNeuroMesh.html#a957bff17a5b461240f3c05571de0ead4" target="_top" xlink:title="Virtual function to return diffusion X&#45;section area.">
<polygon fill="white" stroke="#666666" points="1181,-321 1021,-321 1021,-302 1181,-302 1181,-321"/>
<text text-anchor="middle" x="1101" y="-309" font-family="Ubuntu Mono" font-size="10.00">NeuroMesh::getDiffusionArea</text>
</a>
</g>
</g>
<!-- Node1&#45;&gt;Node17 -->
<g id="edge20_Node000001_Node000017" class="edge">
<title>Node1&#45;&gt;Node17</title>
<g id="a_edge20_Node000001_Node000017"><a xlink:title=" ">
<path fill="none" stroke="#63b8ff" d="M1252.53,-269.58C1235.28,-277.52 1212.76,-287.09 1192,-293.5 1181.49,-296.74 1170.11,-299.55 1159.09,-301.91"/>
<polygon fill="#63b8ff" stroke="#63b8ff" points="1254.45,-272.55 1262.03,-265.14 1251.49,-266.21 1254.45,-272.55"/>
</a>
</g>
</g>
<!-- Node18 -->
<g id="Node000018" class="node">
<title>Node18</title>
<g id="a_Node000018"><a xlink:href="classNeuroMesh.html#aa3c76d3a0de019c16ec50e9b71ddcb63" target="_top" xlink:title="Virtual function to return volume of mesh Entry.">
<polygon fill="white" stroke="#666666" points="1192,-395 1010,-395 1010,-376 1192,-376 1192,-395"/>
<text text-anchor="middle" x="1101" y="-383" font-family="Ubuntu Mono" font-size="10.00">NeuroMesh::getMeshEntryVolume</text>
</a>
</g>
</g>
<!-- Node1&#45;&gt;Node18 -->
<g id="edge21_Node000001_Node000018" class="edge">
<title>Node1&#45;&gt;Node18</title>
<g id="a_edge21_Node000001_Node000018"><a xlink:title=" ">
<path fill="none" stroke="#63b8ff" d="M1272.05,-274.18C1258.15,-299.59 1229.72,-344.53 1192,-367.5 1186.42,-370.9 1180.32,-373.67 1174.01,-375.93"/>
<polygon fill="#63b8ff" stroke="#63b8ff" points="1275.22,-275.66 1276.8,-265.18 1269.03,-272.39 1275.22,-275.66"/>
</a>
</g>
</g>
<!-- Node23 -->
<g id="Node000023" class="node">
<title>Node23</title>
<g id="a_Node000023"><a xlink:href="classNeuroMesh.html#ababbd158eb32d21eb52f68b519b73e62" target="_top" xlink:title=" ">
<polygon fill="white" stroke="#666666" points="1173.5,-247 1028.5,-247 1028.5,-228 1173.5,-228 1173.5,-247"/>
<text text-anchor="middle" x="1101" y="-235" font-family="Ubuntu Mono" font-size="10.00">NeuroMesh::indexToSpace</text>
</a>
</g>
</g>
<!-- Node1&#45;&gt;Node23 -->
<g id="edge26_Node000001_Node000023" class="edge">
<title>Node1&#45;&gt;Node23</title>
<g id="a_edge26_Node000001_Node000023"><a xlink:title=" ">
<path fill="none" stroke="#63b8ff" d="M1217.51,-249.08C1203.33,-247.66 1188.22,-246.15 1173.76,-244.7"/>
<polygon fill="#63b8ff" stroke="#63b8ff" points="1217.34,-252.58 1227.64,-250.1 1218.04,-245.62 1217.34,-252.58"/>
</a>
</g>
</g>
<!-- Node24 -->
<g id="Node000024" class="node">
<title>Node24</title>
<g id="a_Node000024"><a xlink:href="classNeuroMesh.html#adb349d751b4e32371a1818e2895e26f6" target="_top" xlink:title=" ">
<polygon fill="white" stroke="#666666" points="762,-222 586,-222 586,-203 762,-203 762,-222"/>
<text text-anchor="middle" x="674" y="-210" font-family="Ubuntu Mono" font-size="10.00">NeuroMesh::insertDummyNodes</text>
</a>
</g>
</g>
<!-- Node1&#45;&gt;Node24 -->
<g id="edge27_Node000001_Node000024" class="edge">
<title>Node1&#45;&gt;Node24</title>
<g id="a_edge27_Node000001_Node000024"><a xlink:title=" ">
<path fill="none" stroke="#63b8ff" d="M1276.68,-236.01C1267.11,-202.09 1242.17,-133.09 1192,-104.5 1013.94,-3.05 752.73,-161.06 689.27,-202.81"/>
<polygon fill="#63b8ff" stroke="#63b8ff" points="1273.3,-236.93 1279.26,-245.69 1280.06,-235.13 1273.3,-236.93"/>
</a>
</g>
</g>
<!-- Node25 -->
<g id="Node000025" class="node">
<title>Node25</title>
<g id="a_Node000025"><a xlink:href="classNeuroMesh.html#aac516e44929a7cb01361bceae4b7e134" target="_top" xlink:title=" ">
<polygon fill="white" stroke="#666666" points="966,-225.5 806,-225.5 806,-195.5 966,-195.5 966,-225.5"/>
<text text-anchor="start" x="814" y="-213.5" font-family="Ubuntu Mono" font-size="10.00">NeuroMesh::matchCubeMesh</text>
<text text-anchor="middle" x="886" y="-202.5" font-family="Ubuntu Mono" font-size="10.00">Entries</text>
</a>
</g>
</g>
<!-- Node1&#45;&gt;Node25 -->
<g id="edge29_Node000001_Node000025" class="edge">
<title>Node1&#45;&gt;Node25</title>
<g id="a_edge29_Node000001_Node000025"><a xlink:title=" ">
<path fill="none" stroke="#63b8ff" d="M1261.52,-239.71C1244.24,-227.13 1218.01,-210.51 1192,-203.5 1117.33,-183.38 1028.63,-188.49 966.19,-196.59"/>
<polygon fill="#63b8ff" stroke="#63b8ff" points="1259.59,-242.64 1269.69,-245.85 1263.8,-237.05 1259.59,-242.64"/>
</a>
</g>
</g>
<!-- Node26 -->
<g id="Node000026" class="node">
<title>Node26</title>
<g id="a_Node000026"><a xlink:href="classNeuroMesh.html#a23d9de4910b03e34288a30fed813fa3f" target="_top" xlink:title=" ">
<polygon fill="white" stroke="#666666" points="1158.5,-133 1043.5,-133 1043.5,-114 1158.5,-114 1158.5,-133"/>
<text text-anchor="middle" x="1101" y="-121" font-family="Ubuntu Mono" font-size="10.00">NeuroMesh::nearest</text>
</a>
</g>
</g>
<!-- Node1&#45;&gt;Node26 -->
<g id="edge31_Node000001_Node000026" class="edge">
<title>Node1&#45;&gt;Node26</title>
<g id="a_edge31_Node000001_Node000026"><a xlink:title=" ">
<path fill="none" stroke="#63b8ff" d="M1271.04,-236.77C1256.5,-212.47 1227.86,-170.47 1192,-147.5 1181.92,-141.05 1170.15,-136.32 1158.51,-132.86"/>
<polygon fill="#63b8ff" stroke="#63b8ff" points="1268.19,-238.82 1276.23,-245.71 1274.24,-235.3 1268.19,-238.82"/>
</a>
</g>
</g>
<!-- Node27 -->
<g id="Node000027" class="node">
<title>Node27</title>
<g id="a_Node000027"><a xlink:href="NeuroNode_8cpp.html#a8074b7f162c9d34921551f23dcb124e0" target="_top" xlink:title=" ">
<polygon fill="white" stroke="#666666" points="1160,-284 1042,-284 1042,-265 1160,-265 1160,-284"/>
<text text-anchor="middle" x="1101" y="-272" font-family="Ubuntu Mono" font-size="10.00">reassignNodeIndices</text>
</a>
</g>
</g>
<!-- Node1&#45;&gt;Node27 -->
<g id="edge32_Node000001_Node000027" class="edge">
<title>Node1&#45;&gt;Node27</title>
<g id="a_edge32_Node000001_Node000027"><a xlink:title=" ">
<path fill="none" stroke="#63b8ff" d="M1217.46,-262.28C1198.79,-264.26 1178.49,-266.4 1160.2,-268.34"/>
<polygon fill="#63b8ff" stroke="#63b8ff" points="1218.07,-265.73 1227.64,-261.2 1217.33,-258.77 1218.07,-265.73"/>
</a>
</g>
</g>
<!-- Node28 -->
<g id="Node000028" class="node">
<title>Node28</title>
<g id="a_Node000028"><a xlink:href="classNeuroMesh.html#ab4ce5f28ef7ad94aba4dbf8f6c5f408f" target="_top" xlink:title=" ">
<polygon fill="white" stroke="#666666" points="972.5,-57 799.5,-57 799.5,-38 972.5,-38 972.5,-57"/>
<text text-anchor="middle" x="886" y="-45" font-family="Ubuntu Mono" font-size="10.00">NeuroMesh::updateShaftParents</text>
</a>
</g>
</g>
<!-- Node1&#45;&gt;Node28 -->
<g id="edge35_Node000001_Node000028" class="edge">
<title>Node1&#45;&gt;Node28</title>
<g id="a_edge35_Node000001_Node000028"><a xlink:title=" ">
<path fill="none" stroke="#63b8ff" d="M1278.4,-235.65C1271.16,-196.65 1249.17,-110.47 1192,-71.5 1113.88,-18.25 996.94,-27.45 932.93,-38"/>
<polygon fill="#63b8ff" stroke="#63b8ff" points="1274.99,-236.46 1280.14,-245.72 1281.89,-235.28 1274.99,-236.46"/>
</a>
</g>
</g>
<!-- Node29 -->
<g id="Node000029" class="node">
<title>Node29</title>
<g id="a_Node000029"><a xlink:href="classNeuroMesh.html#a1f313b79fc22daf70bd1e09f156ce0e9" target="_top" xlink:title="Virtual func so that derived classes can return voxel midpoint.">
<polygon fill="white" stroke="#666666" points="1186,-19 1016,-19 1016,0 1186,0 1186,-19"/>
<text text-anchor="middle" x="1101" y="-7" font-family="Ubuntu Mono" font-size="10.00">NeuroMesh::vGetVoxelMidpoint</text>
</a>
</g>
</g>
<!-- Node1&#45;&gt;Node29 -->
<g id="edge37_Node000001_Node000029" class="edge">
<title>Node1&#45;&gt;Node29</title>
<g id="a_edge37_Node000001_Node000029"><a xlink:title=" ">
<path fill="none" stroke="#63b8ff" d="M1279.4,-235.66C1273.71,-192.25 1254.01,-88.34 1192,-33.5 1184.85,-27.18 1176.22,-22.5 1167.17,-19.03"/>
<polygon fill="#63b8ff" stroke="#63b8ff" points="1275.94,-236.26 1280.6,-245.77 1282.89,-235.43 1275.94,-236.26"/>
</a>
</g>
</g>
<!-- Node3 -->
<g id="Node000003" class="node">
<title>Node3</title>
<g id="a_Node000003"><a xlink:href="classNeuroNode.html#aea2a6aafd3983bceba49a328b0fc9cfc" target="_top" xlink:title=" ">
<polygon fill="white" stroke="#666666" points="945,-432 827,-432 827,-413 945,-413 945,-432"/>
<text text-anchor="middle" x="886" y="-420" font-family="Ubuntu Mono" font-size="10.00">NeuroNode::traverse</text>
</a>
</g>
</g>
<!-- Node2&#45;&gt;Node3 -->
<g id="edge2_Node000002_Node000003" class="edge">
<title>Node2&#45;&gt;Node3</title>
<g id="a_edge2_Node000002_Node000003"><a xlink:title=" ">
<path fill="none" stroke="#63b8ff" d="M1050.17,-422.5C1018.78,-422.5 978.13,-422.5 945.25,-422.5"/>
<polygon fill="#63b8ff" stroke="#63b8ff" points="1050.44,-426 1060.44,-422.5 1050.44,-419 1050.44,-426"/>
</a>
</g>
</g>
<!-- Node4 -->
<g id="Node000004" class="node">
<title>Node4</title>
<g id="a_Node000004"><a xlink:href="classNeuroNode.html#a3f4fe78639e7175e0a9e157c937fe4f7" target="_top" xlink:title=" ">
<polygon fill="white" stroke="#666666" points="735,-429 613,-429 613,-410 735,-410 735,-429"/>
<text text-anchor="middle" x="674" y="-417" font-family="Ubuntu Mono" font-size="10.00">NeuroNode::buildTree</text>
</a>
</g>
</g>
<!-- Node3&#45;&gt;Node4 -->
<g id="edge3_Node000003_Node000004" class="edge">
<title>Node3&#45;&gt;Node4</title>
<g id="a_edge3_Node000003_Node000004"><a xlink:title=" ">
<path fill="none" stroke="#63b8ff" d="M816.53,-421.52C790.29,-421.15 760.57,-420.72 735.16,-420.36"/>
<polygon fill="#63b8ff" stroke="#63b8ff" points="816.73,-425.03 826.78,-421.67 816.83,-418.03 816.73,-425.03"/>
</a>
</g>
</g>
<!-- Node5 -->
<g id="Node000005" class="node">
<title>Node5</title>
<g id="a_Node000005"><a xlink:href="classNeuroMesh.html#a35e1c3ce3edeae2652b9d5ee2729f9df" target="_top" xlink:title=" ">
<polygon fill="white" stroke="#666666" points="520.5,-365 389.5,-365 389.5,-346 520.5,-346 520.5,-365"/>
<text text-anchor="middle" x="455" y="-353" font-family="Ubuntu Mono" font-size="10.00">NeuroMesh::setSubTree</text>
</a>
</g>
</g>
<!-- Node4&#45;&gt;Node5 -->
<g id="edge4_Node000004_Node000005" class="edge">
<title>Node4&#45;&gt;Node5</title>
<g id="a_edge4_Node000004_Node000005"><a xlink:title=" ">
<path fill="none" stroke="#63b8ff" d="M620.49,-407.56C609.07,-404.76 597.09,-401.67 586,-398.5 549.88,-388.19 508.83,-374.22 482.69,-365.05"/>
<polygon fill="#63b8ff" stroke="#63b8ff" points="619.79,-411 630.34,-409.94 621.44,-404.19 619.79,-411"/>
</a>
</g>
</g>
<!-- Node6 -->
<g id="Node000006" class="node">
<title>Node6</title>
<g id="a_Node000006"><a xlink:href="classNeuroMesh.html#a131784a1f5af526113a98464ab4c4357" target="_top" xlink:title=" ">
<polygon fill="white" stroke="#666666" points="119,-403 0,-403 0,-384 119,-384 119,-403"/>
<text text-anchor="middle" x="59.5" y="-391" font-family="Ubuntu Mono" font-size="10.00">NeuroMesh::initCinfo</text>
</a>
</g>
</g>
<!-- Node5&#45;&gt;Node6 -->
<g id="edge5_Node000005_Node000006" class="edge">
<title>Node5&#45;&gt;Node6</title>
<g id="a_edge5_Node000005_Node000006"><a xlink:title=" ">
<path fill="none" stroke="#63b8ff" d="M379.07,-362.74C303.53,-370.03 188.49,-381.14 119.28,-387.82"/>
<polygon fill="#63b8ff" stroke="#63b8ff" points="379.84,-366.18 389.46,-361.73 379.17,-359.21 379.84,-366.18"/>
</a>
</g>
</g>
<!-- Node7 -->
<g id="Node000007" class="node">
<title>Node7</title>
<g id="a_Node000007"><a xlink:href="classNeuroMesh.html#a5544eb3267ffffc2ba356d50ec2a4633" target="_top" xlink:title=" ">
<polygon fill="white" stroke="#666666" points="315.5,-346 163.5,-346 163.5,-327 315.5,-327 315.5,-346"/>
<text text-anchor="middle" x="239.5" y="-334" font-family="Ubuntu Mono" font-size="10.00">NeuroMesh::setSubTreePath</text>
</a>
</g>
</g>
<!-- Node5&#45;&gt;Node7 -->
<g id="edge6_Node000005_Node000007" class="edge">
<title>Node5&#45;&gt;Node7</title>
<g id="a_edge6_Node000005_Node000007"><a xlink:title=" ">
<path fill="none" stroke="#63b8ff" d="M379.12,-348.84C358.6,-347.01 336.34,-345.03 315.79,-343.2"/>
<polygon fill="#63b8ff" stroke="#63b8ff" points="379.09,-352.35 389.36,-349.75 379.71,-345.38 379.09,-352.35"/>
</a>
</g>
</g>
<!-- Node7&#45;&gt;Node6 -->
<g id="edge7_Node000007_Node000006" class="edge">
<title>Node7&#45;&gt;Node6</title>
<g id="a_edge7_Node000007_Node000006"><a xlink:title=" ">
<path fill="none" stroke="#63b8ff" d="M193.64,-348.89C181.09,-352.5 167.48,-356.53 155,-360.5 131.82,-367.87 105.73,-377.05 86.84,-383.86"/>
<polygon fill="#63b8ff" stroke="#63b8ff" points="194.77,-352.21 203.43,-346.11 192.85,-345.48 194.77,-352.21"/>
</a>
</g>
</g>
<!-- Node10 -->
<g id="Node000010" class="node">
<title>Node10</title>
<g id="a_Node000010"><a xlink:href="classNeuroMesh.html#ae5cd8716e7247e87c5a528c35e620954" target="_top" xlink:title="Utility function to set up Stencil for diffusion in NeuroMesh.">
<polygon fill="white" stroke="#666666" points="953.5,-469 818.5,-469 818.5,-450 953.5,-450 953.5,-469"/>
<text text-anchor="middle" x="886" y="-457" font-family="Ubuntu Mono" font-size="10.00">NeuroMesh::buildStencil</text>
</a>
</g>
</g>
<!-- Node9&#45;&gt;Node10 -->
<g id="edge10_Node000009_Node000010" class="edge">
<title>Node9&#45;&gt;Node10</title>
<g id="a_edge10_Node000009_Node000010"><a xlink:title=" ">
<path fill="none" stroke="#63b8ff" d="M1033.99,-459.5C1008.48,-459.5 979.32,-459.5 953.73,-459.5"/>
<polygon fill="#63b8ff" stroke="#63b8ff" points="1034.32,-463 1044.31,-459.5 1034.31,-456 1034.32,-463"/>
</a>
</g>
</g>
<!-- Node10&#45;&gt;Node11 -->
<g id="edge11_Node000010_Node000011" class="edge">
<title>Node10&#45;&gt;Node11</title>
<g id="a_edge11_Node000010_Node000011"><a xlink:title=" ">
<path fill="none" stroke="#63b8ff" d="M807.99,-459.5C788.06,-459.5 766.68,-459.5 747.01,-459.5"/>
<polygon fill="#63b8ff" stroke="#63b8ff" points="808.27,-463 818.27,-459.5 808.27,-456 808.27,-463"/>
</a>
</g>
</g>
<!-- Node11&#45;&gt;Node5 -->
<g id="edge18_Node000011_Node000005" class="edge">
<title>Node11&#45;&gt;Node5</title>
<g id="a_edge18_Node000011_Node000005"><a xlink:title=" ">
<path fill="none" stroke="#63b8ff" d="M600.52,-446.35C595.42,-444.13 590.51,-441.53 586,-438.5 563.27,-423.22 571.93,-404.9 550,-388.5 535.46,-377.62 517.03,-370.12 500.35,-365.05"/>
<polygon fill="#63b8ff" stroke="#63b8ff" points="599.3,-449.63 609.89,-449.96 601.82,-443.1 599.3,-449.63"/>
</a>
</g>
</g>
<!-- Node12 -->
<g id="Node000012" class="node">
<title>Node12</title>
<g id="a_Node000012"><a xlink:href="classNeuroMesh.html#a79cf7938a69c50fb6a126fe68d29ae8f" target="_top" xlink:title="Virtual func to make a mesh with specified size and numEntries.">
<polygon fill="white" stroke="#666666" points="550,-487 360,-487 360,-468 550,-468 550,-487"/>
<text text-anchor="middle" x="455" y="-475" font-family="Ubuntu Mono" font-size="10.00">NeuroMesh::innerBuildDefaultMesh</text>
</a>
</g>
</g>
<!-- Node11&#45;&gt;Node12 -->
<g id="edge12_Node000011_Node000012" class="edge">
<title>Node11&#45;&gt;Node12</title>
<g id="a_edge12_Node000011_Node000012"><a xlink:title=" ">
<path fill="none" stroke="#63b8ff" d="M590.76,-466.32C577.56,-467.42 563.8,-468.56 550.33,-469.68"/>
<polygon fill="#63b8ff" stroke="#63b8ff" points="591.07,-469.81 600.74,-465.49 590.49,-462.83 591.07,-469.81"/>
</a>
</g>
</g>
<!-- Node13 -->
<g id="Node000013" class="node">
<title>Node13</title>
<g id="a_Node000013"><a xlink:href="classNeuroMesh.html#a71aa45e785032672bd4a653c95c1d2fd" target="_top" xlink:title="Inherited virtual func.">
<polygon fill="white" stroke="#666666" points="543,-450 367,-450 367,-431 543,-431 543,-450"/>
<text text-anchor="middle" x="455" y="-438" font-family="Ubuntu Mono" font-size="10.00">NeuroMesh::innerSetNumEntries</text>
</a>
</g>
</g>
<!-- Node11&#45;&gt;Node13 -->
<g id="edge13_Node000011_Node000013" class="edge">
<title>Node11&#45;&gt;Node13</title>
<g id="a_edge13_Node000011_Node000013"><a xlink:title=" ">
<path fill="none" stroke="#63b8ff" d="M590.63,-452.29C575.06,-450.92 558.73,-449.49 543.02,-448.12"/>
<polygon fill="#63b8ff" stroke="#63b8ff" points="590.47,-455.79 600.74,-453.17 591.09,-448.81 590.47,-455.79"/>
</a>
</g>
</g>
<!-- Node14 -->
<g id="Node000014" class="node">
<title>Node14</title>
<g id="a_Node000014"><a xlink:href="classNeuroMesh.html#a5a13798b0f4049fc74b1ffbd4622da5d" target="_top" xlink:title=" ">
<polygon fill="white" stroke="#666666" points="311,-422 168,-422 168,-403 311,-403 311,-422"/>
<text text-anchor="middle" x="239.5" y="-410" font-family="Ubuntu Mono" font-size="10.00">NeuroMesh::setDiffLength</text>
</a>
</g>
</g>
<!-- Node11&#45;&gt;Node14 -->
<g id="edge14_Node000011_Node000014" class="edge">
<title>Node11&#45;&gt;Node14</title>
<g id="a_edge14_Node000011_Node000014"><a xlink:title=" ">
<path fill="none" stroke="#63b8ff" d="M616.73,-447.5C606.41,-444.86 595.81,-441.83 586,-438.5 569.42,-432.87 567.07,-426.41 550,-422.5 469.69,-404.1 374.62,-404.14 311.24,-407.15"/>
<polygon fill="#63b8ff" stroke="#63b8ff" points="615.95,-450.91 626.5,-449.92 617.63,-444.12 615.95,-450.91"/>
</a>
</g>
</g>
<!-- Node15 -->
<g id="Node000015" class="node">
<title>Node15</title>
<g id="a_Node000015"><a xlink:href="classNeuroMesh.html#a2fcb1e6932205d672d8e31dd4884da56" target="_top" xlink:title=" ">
<polygon fill="white" stroke="#666666" points="324,-487 155,-487 155,-468 324,-468 324,-487"/>
<text text-anchor="middle" x="239.5" y="-475" font-family="Ubuntu Mono" font-size="10.00">NeuroMesh::setSeparateSpines</text>
</a>
</g>
</g>
<!-- Node11&#45;&gt;Node15 -->
<g id="edge16_Node000011_Node000015" class="edge">
<title>Node11&#45;&gt;Node15</title>
<g id="a_edge16_Node000011_Node000015"><a xlink:title=" ">
<path fill="none" stroke="#63b8ff" d="M639.47,-472.49C615.08,-481.22 581.02,-491.93 550,-496.5 466.46,-508.79 444.18,-503.15 360,-496.5 336.55,-494.65 310.74,-490.78 289.13,-487.01"/>
<polygon fill="#63b8ff" stroke="#63b8ff" points="640.78,-475.74 648.97,-469.02 638.38,-469.16 640.78,-475.74"/>
</a>
</g>
</g>
<!-- Node14&#45;&gt;Node6 -->
<g id="edge15_Node000014_Node000006" class="edge">
<title>Node14&#45;&gt;Node6</title>
<g id="a_edge15_Node000014_Node000006"><a xlink:title=" ">
<path fill="none" stroke="#63b8ff" d="M157.61,-403.87C144.69,-402.49 131.55,-401.08 119.27,-399.77"/>
<polygon fill="#63b8ff" stroke="#63b8ff" points="157.58,-407.38 167.89,-404.96 158.32,-400.42 157.58,-407.38"/>
</a>
</g>
</g>
<!-- Node15&#45;&gt;Node6 -->
<g id="edge17_Node000015_Node000006" class="edge">
<title>Node15&#45;&gt;Node6</title>
<g id="a_edge17_Node000015_Node000006"><a xlink:title=" ">
<path fill="none" stroke="#63b8ff" d="M208.97,-463.57C172.68,-446.44 112.05,-417.83 80.68,-403.02"/>
<polygon fill="#63b8ff" stroke="#63b8ff" points="207.54,-466.76 218.08,-467.86 210.53,-460.43 207.54,-466.76"/>
</a>
</g>
</g>
<!-- Node19 -->
<g id="Node000019" class="node">
<title>Node19</title>
<g id="a_Node000019"><a xlink:href="classNeuroMesh.html#a448f674cb83dca4432577406e1849ba3" target="_top" xlink:title="Vol of all mesh Entries including abutting diff&#45;coupled voxels.">
<polygon fill="white" stroke="#666666" points="974,-346.5 798,-346.5 798,-316.5 974,-316.5 974,-346.5"/>
<text text-anchor="start" x="806" y="-334.5" font-family="Ubuntu Mono" font-size="10.00">NeuroMesh::extendedMeshEntry</text>
<text text-anchor="middle" x="886" y="-323.5" font-family="Ubuntu Mono" font-size="10.00">Volume</text>
</a>
</g>
</g>
<!-- Node18&#45;&gt;Node19 -->
<g id="edge22_Node000018_Node000019" class="edge">
<title>Node18&#45;&gt;Node19</title>
<g id="a_edge22_Node000018_Node000019"><a xlink:title=" ">
<path fill="none" stroke="#63b8ff" d="M1036.45,-373.82C1027.53,-371.88 1018.5,-369.76 1010,-367.5 993.7,-363.17 990.13,-360.41 974,-355.5 964.11,-352.49 953.53,-349.44 943.29,-346.56"/>
<polygon fill="#63b8ff" stroke="#63b8ff" points="1035.94,-377.29 1046.45,-375.93 1037.38,-370.44 1035.94,-377.29"/>
</a>
</g>
</g>
<!-- Node20 -->
<g id="Node000020" class="node">
<title>Node20</title>
<g id="a_Node000020"><a xlink:href="classSpineMesh.html#a0e2e7d002152dfc0562accc9932e8a00" target="_top" xlink:title=" ">
<polygon fill="white" stroke="#666666" points="967,-394.5 805,-394.5 805,-364.5 967,-364.5 967,-394.5"/>
<text text-anchor="start" x="813" y="-382.5" font-family="Ubuntu Mono" font-size="10.00">SpineMesh::matchNeuroMesh</text>
<text text-anchor="middle" x="886" y="-371.5" font-family="Ubuntu Mono" font-size="10.00">Entries</text>
</a>
</g>
</g>
<!-- Node18&#45;&gt;Node20 -->
<g id="edge23_Node000018_Node000020" class="edge">
<title>Node18&#45;&gt;Node20</title>
<g id="a_edge23_Node000018_Node000020"><a xlink:title=" ">
<path fill="none" stroke="#63b8ff" d="M999.95,-382.68C988.98,-382.37 977.92,-382.06 967.24,-381.76"/>
<polygon fill="#63b8ff" stroke="#63b8ff" points="999.88,-386.18 1009.98,-382.96 1000.08,-379.18 999.88,-386.18"/>
</a>
</g>
</g>
<!-- Node21 -->
<g id="Node000021" class="node">
<title>Node21</title>
<g id="a_Node000021"><a xlink:href="classNeuroMesh.html#a87f8811cba83e45b1a24c8da92aa0fc0" target="_top" xlink:title=" ">
<polygon fill="white" stroke="#666666" points="758.5,-286 589.5,-286 589.5,-267 758.5,-267 758.5,-286"/>
<text text-anchor="middle" x="674" y="-274" font-family="Ubuntu Mono" font-size="10.00">NeuroMesh::matchMeshEntries</text>
</a>
</g>
</g>
<!-- Node20&#45;&gt;Node21 -->
<g id="edge24_Node000020_Node000021" class="edge">
<title>Node20&#45;&gt;Node21</title>
<g id="a_edge24_Node000020_Node000021"><a xlink:title=" ">
<path fill="none" stroke="#63b8ff" d="M811.74,-361.04C807.03,-359.32 802.42,-357.47 798,-355.5 754.43,-336.04 708.52,-302.56 687.2,-286.14"/>
<polygon fill="#63b8ff" stroke="#63b8ff" points="810.89,-364.45 821.48,-364.4 813.17,-357.83 810.89,-364.45"/>
</a>
</g>
</g>
<!-- Node22 -->
<g id="Node000022" class="node">
<title>Node22</title>
<g id="a_Node000022"><a xlink:href="classSpineMesh.html#a64e7b686dbb5cbda0c92b0e4dfc43393" target="_top" xlink:title=" ">
<polygon fill="white" stroke="#666666" points="757.5,-389 590.5,-389 590.5,-370 757.5,-370 757.5,-389"/>
<text text-anchor="middle" x="674" y="-377" font-family="Ubuntu Mono" font-size="10.00">SpineMesh::matchMeshEntries</text>
</a>
</g>
</g>
<!-- Node20&#45;&gt;Node22 -->
<g id="edge25_Node000020_Node000022" class="edge">
<title>Node20&#45;&gt;Node22</title>
<g id="a_edge25_Node000020_Node000022"><a xlink:title=" ">
<path fill="none" stroke="#63b8ff" d="M794.51,-379.5C782.28,-379.5 769.77,-379.5 757.68,-379.5"/>
<polygon fill="#63b8ff" stroke="#63b8ff" points="794.71,-383 804.71,-379.5 794.71,-376 794.71,-383"/>
</a>
</g>
</g>
<!-- Node24&#45;&gt;Node5 -->
<g id="edge28_Node000024_Node000005" class="edge">
<title>Node24&#45;&gt;Node5</title>
<g id="a_edge28_Node000024_Node000005"><a xlink:title=" ">
<path fill="none" stroke="#63b8ff" d="M643.8,-226.52C626.61,-235.12 604.64,-246.71 586,-258.5 540.3,-287.39 490.02,-327.51 467.74,-345.76"/>
<polygon fill="#63b8ff" stroke="#63b8ff" points="645.4,-229.63 652.81,-222.06 642.3,-223.36 645.4,-229.63"/>
</a>
</g>
</g>
<!-- Node25&#45;&gt;Node21 -->
<g id="edge30_Node000025_Node000021" class="edge">
<title>Node25&#45;&gt;Node21</title>
<g id="a_edge30_Node000025_Node000021"><a xlink:title=" ">
<path fill="none" stroke="#63b8ff" d="M827.33,-228.62C787.94,-241.01 737.3,-256.92 705.49,-266.92"/>
<polygon fill="#63b8ff" stroke="#63b8ff" points="828.59,-231.9 837.08,-225.56 826.5,-225.22 828.59,-231.9"/>
</a>
</g>
</g>
<!-- Node27&#45;&gt;Node8 -->
<g id="edge33_Node000027_Node000008" class="edge">
<title>Node27&#45;&gt;Node8</title>
<g id="a_edge33_Node000027_Node000008"><a xlink:title=" ">
<path fill="none" stroke="#63b8ff" d="M1031.5,-272.25C1006.1,-271.41 977.37,-270.47 952.26,-269.64"/>
<polygon fill="#63b8ff" stroke="#63b8ff" points="1031.69,-275.76 1041.8,-272.59 1031.92,-268.76 1031.69,-275.76"/>
</a>
</g>
</g>
<!-- Node28&#45;&gt;Node5 -->
<g id="edge36_Node000028_Node000005" class="edge">
<title>Node28&#45;&gt;Node5</title>
<g id="a_edge36_Node000028_Node000005"><a xlink:title=" ">
<path fill="none" stroke="#63b8ff" d="M831.93,-59.81C820.55,-63.09 808.73,-67 798,-71.5 697.56,-113.66 668.71,-123.61 586,-194.5 529.26,-243.13 478.9,-319.02 462.01,-345.77"/>
<polygon fill="#63b8ff" stroke="#63b8ff" points="833.07,-63.12 841.78,-57.08 831.21,-56.37 833.07,-63.12"/>
</a>
</g>
</g>
</g>
</svg>
