<?xml version="1.0" encoding="UTF-8" standalone="no"?>
<!DOCTYPE svg PUBLIC "-//W3C//DTD SVG 1.1//EN"
 "http://www.w3.org/Graphics/SVG/1.1/DTD/svg11.dtd">
<!-- Generated by graphviz version 2.43.0 (0)
 -->
<!-- Title: Stats Pages: 1 -->
<!--zoomable 660 -->

<svg id="main" version="1.1" xmlns="http://www.w3.org/2000/svg" xmlns:xlink="http://www.w3.org/1999/xlink" xml:space="preserve" onload="init(evt)">
<style type="text/css"><![CDATA[
.node, .edge {opacity: 0.7;}
.node.selected, .edge.selected {opacity: 1;}
.edge:hover path { stroke: red; }
.edge:hover polygon { stroke: red; fill: red; }
]]></style>

<defs>
  <circle id="rim" cx="0" cy="0" r="7"/>
  <circle id="rim2" cx="0" cy="0" r="3.5"/>
  <g id="zoomPlus">
    <use xlink:href="#rim" fill="#404040"><set attributeName="fill" to="#808080" begin="zoomplus.mouseover" end="zoomplus.mouseout"/></use>
    <path d="M-4,0h8M0,-4v8" fill="none" stroke="white" stroke-width="1.5" pointer-events="none"/>
  </g>
  <g id="zoomMin">
    <use xlink:href="#rim" fill="#404040"><set attributeName="fill" to="#808080" begin="zoomminus.mouseover" end="zoomminus.mouseout"/></use>
    <path d="M-4,0h8" fill="none" stroke="white" stroke-width="1.5" pointer-events="none"/>
  </g>
  <g id="arrowUp" transform="translate(30 24)">
    <use xlink:href="#rim"/>
    <path pointer-events="none" fill="none" stroke="white" stroke-width="1.5" d="M0,-3.0v7 M-2.5,-0.5L0,-3.0L2.5,-0.5"/>
  </g>
  <g id="arrowRight" transform="rotate(90) translate(36 -43)">
    <use xlink:href="#rim"/>
    <path pointer-events="none" fill="none" stroke="white" stroke-width="1.5" d="M0,-3.0v7 M-2.5,-0.5L0,-3.0L2.5,-0.5"/>
  </g>
  <g id="arrowDown" transform="rotate(180) translate(-30 -48)">
    <use xlink:href="#rim"/>
    <path pointer-events="none" fill="none" stroke="white" stroke-width="1.5" d="M0,-3.0v7 M-2.5,-0.5L0,-3.0L2.5,-0.5"/>
  </g>
  <g id="arrowLeft" transform="rotate(270) translate(-36 17)">
    <use xlink:href="#rim"/>
    <path pointer-events="none" fill="none" stroke="white" stroke-width="1.5" d="M0,-3.0v7 M-2.5,-0.5L0,-3.0L2.5,-0.5"/>
  </g>
  <g id="resetDef">
    <use xlink:href="#rim2" fill="#404040"><set attributeName="fill" to="#808080" begin="reset.mouseover" end="reset.mouseout"/></use>
  </g>
</defs>
<script type="application/ecmascript">
var viewWidth = 143;
var viewHeight = 660;
var sectionId = 'dynsection-1';
</script>
<script type="application/ecmascript" xlink:href="svg.min.js"/>
<svg id="graph" class="graph">
<g id="viewport">
<title>Stats</title>
<!-- Node1 -->
<g id="Node000001" class="node">
<title>Node1</title>
<g id="a_Node000001"><a xlink:title=" ">
<polygon fill="#999999" stroke="transparent" points="135,-364 0,-364 0,0 135,0 135,-364"/>
<text text-anchor="start" x="55.5" y="-352" font-family="Ubuntu Mono" font-size="10.00">Stats</text>
<text text-anchor="start" x="7" y="-337" font-family="Ubuntu Mono" font-size="10.00">&#45;</text>
<text text-anchor="start" x="17.5" y="-337" font-family="Ubuntu Mono" font-size="10.00">isWindowDirty_</text>
<text text-anchor="start" x="7" y="-322" font-family="Ubuntu Mono" font-size="10.00">&#45;</text>
<text text-anchor="start" x="17.5" y="-322" font-family="Ubuntu Mono" font-size="10.00">lastt_</text>
<text text-anchor="start" x="7" y="-307" font-family="Ubuntu Mono" font-size="10.00">&#45;</text>
<text text-anchor="start" x="17.5" y="-307" font-family="Ubuntu Mono" font-size="10.00">mean_</text>
<text text-anchor="start" x="7" y="-292" font-family="Ubuntu Mono" font-size="10.00">&#45;</text>
<text text-anchor="start" x="17.5" y="-292" font-family="Ubuntu Mono" font-size="10.00">num_</text>
<text text-anchor="start" x="7" y="-277" font-family="Ubuntu Mono" font-size="10.00">&#45;</text>
<text text-anchor="start" x="17.5" y="-277" font-family="Ubuntu Mono" font-size="10.00">sdev_</text>
<text text-anchor="start" x="7" y="-262" font-family="Ubuntu Mono" font-size="10.00">&#45;</text>
<text text-anchor="start" x="17.5" y="-262" font-family="Ubuntu Mono" font-size="10.00">sum_</text>
<text text-anchor="start" x="7" y="-247" font-family="Ubuntu Mono" font-size="10.00">&#45;</text>
<text text-anchor="start" x="17.5" y="-247" font-family="Ubuntu Mono" font-size="10.00">sumsq_</text>
<text text-anchor="start" x="7" y="-232" font-family="Ubuntu Mono" font-size="10.00">&#45;</text>
<text text-anchor="start" x="17.5" y="-232" font-family="Ubuntu Mono" font-size="10.00">wmean_</text>
<text text-anchor="start" x="7" y="-217" font-family="Ubuntu Mono" font-size="10.00">&#45;</text>
<text text-anchor="start" x="17.5" y="-217" font-family="Ubuntu Mono" font-size="10.00">wnum_</text>
<text text-anchor="start" x="7" y="-202" font-family="Ubuntu Mono" font-size="10.00">&#45;</text>
<text text-anchor="start" x="17.5" y="-202" font-family="Ubuntu Mono" font-size="10.00">wsdev_</text>
<text text-anchor="start" x="7" y="-187" font-family="Ubuntu Mono" font-size="10.00">&#45;</text>
<text text-anchor="start" x="17.5" y="-187" font-family="Ubuntu Mono" font-size="10.00">wsum_</text>
<text text-anchor="start" x="4.5" y="-172" font-family="Ubuntu Mono" font-size="10.00">+</text>
<text text-anchor="start" x="17.5" y="-172" font-family="Ubuntu Mono" font-size="10.00">doWindowCalculation()</text>
<text text-anchor="start" x="4.5" y="-157" font-family="Ubuntu Mono" font-size="10.00">+</text>
<text text-anchor="start" x="17.5" y="-157" font-family="Ubuntu Mono" font-size="10.00">getMean()</text>
<text text-anchor="start" x="4.5" y="-142" font-family="Ubuntu Mono" font-size="10.00">+</text>
<text text-anchor="start" x="17.5" y="-142" font-family="Ubuntu Mono" font-size="10.00">getNum()</text>
<text text-anchor="start" x="4.5" y="-127" font-family="Ubuntu Mono" font-size="10.00">+</text>
<text text-anchor="start" x="17.5" y="-127" font-family="Ubuntu Mono" font-size="10.00">getSdev()</text>
<text text-anchor="start" x="4.5" y="-112" font-family="Ubuntu Mono" font-size="10.00">+</text>
<text text-anchor="start" x="17.5" y="-112" font-family="Ubuntu Mono" font-size="10.00">getSum()</text>
<text text-anchor="start" x="4.5" y="-97" font-family="Ubuntu Mono" font-size="10.00">+</text>
<text text-anchor="start" x="17.5" y="-97" font-family="Ubuntu Mono" font-size="10.00">getWindowLength()</text>
<text text-anchor="start" x="4.5" y="-82" font-family="Ubuntu Mono" font-size="10.00">+</text>
<text text-anchor="start" x="17.5" y="-82" font-family="Ubuntu Mono" font-size="10.00">getWmean()</text>
<text text-anchor="start" x="4.5" y="-67" font-family="Ubuntu Mono" font-size="10.00">+</text>
<text text-anchor="start" x="17.5" y="-67" font-family="Ubuntu Mono" font-size="10.00">getWnum()</text>
<text text-anchor="start" x="4.5" y="-52" font-family="Ubuntu Mono" font-size="10.00">+</text>
<text text-anchor="start" x="17.5" y="-52" font-family="Ubuntu Mono" font-size="10.00">getWsdev()</text>
<text text-anchor="start" x="4.5" y="-37" font-family="Ubuntu Mono" font-size="10.00">+</text>
<text text-anchor="start" x="17.5" y="-37" font-family="Ubuntu Mono" font-size="10.00">getWsum()</text>
<text text-anchor="start" x="17.5" y="-22" font-family="Ubuntu Mono" font-size="10.00">and 8 more...</text>
<text text-anchor="start" x="4.5" y="-7" font-family="Ubuntu Mono" font-size="10.00">+</text>
<text text-anchor="start" x="17.5" y="-7" font-family="Ubuntu Mono" font-size="10.00">initCinfo()</text>
<polygon fill="#666666" stroke="#666666" points="0.5,-347 0.5,-347 135.5,-347 135.5,-347 0.5,-347"/>
<polygon fill="#666666" stroke="#666666" points="0.5,-182 0.5,-182 15.5,-182 15.5,-182 0.5,-182"/>
<polygon fill="#666666" stroke="#666666" points="15.5,-182 15.5,-182 135.5,-182 135.5,-182 15.5,-182"/>
<polygon fill="none" stroke="#666666" points="0,0 0,-364 135,-364 135,0 0,0"/>
</a>
</g>
</g>
<!-- Node2 -->
<g id="Node000002" class="node">
<title>Node2</title>
<g id="a_Node000002"><a xlink:title=" ">
<polygon fill="white" stroke="transparent" points="126.5,-460 8.5,-460 8.5,-411 126.5,-411 126.5,-460"/>
<text text-anchor="start" x="13.5" y="-447.5" font-family="Ubuntu Mono" font-size="10.00">std::vector&lt; double &gt;</text>
<text text-anchor="start" x="25" y="-432.5" font-family="Ubuntu Mono" font-size="10.00">+</text>
<text text-anchor="start" x="50.5" y="-432.5" font-family="Ubuntu Mono" font-size="10.00">elements</text>
<text text-anchor="start" x="65.5" y="-417.5" font-family="Ubuntu Mono" font-size="10.00"> </text>
<polygon fill="#666666" stroke="#666666" points="8.5,-442.5 8.5,-442.5 126.5,-442.5 126.5,-442.5 8.5,-442.5"/>
<polygon fill="#666666" stroke="#666666" points="8.5,-427.5 8.5,-427.5 48.5,-427.5 48.5,-427.5 8.5,-427.5"/>
<polygon fill="#666666" stroke="#666666" points="48.5,-427.5 48.5,-427.5 126.5,-427.5 126.5,-427.5 48.5,-427.5"/>
<polygon fill="none" stroke="#666666" points="8.5,-411 8.5,-460 126.5,-460 126.5,-411 8.5,-411"/>
</a>
</g>
</g>
<!-- Node2&#45;&gt;Node1 -->
<g id="edge1_Node000001_Node000002" class="edge">
<title>Node2&#45;&gt;Node1</title>
<g id="a_edge1_Node000001_Node000002"><a xlink:title=" ">
<path fill="none" stroke="#63b8ff" d="M67.5,-410.84C67.5,-401.33 67.5,-389.46 67.5,-376.17"/>
<polygon fill="none" stroke="#63b8ff" points="67.5,-376.14 63.5,-370.14 67.5,-364.14 71.5,-370.14 67.5,-376.14"/>
</a>
</g>
<text text-anchor="middle" x="94.5" y="-385" font-family="Ubuntu Mono" font-size="10.00" fill="grey"> &#45;samples_</text>
</g>
<!-- Node3 -->
<g id="Node000003" class="node">
<title>Node3</title>
<g id="a_Node000003"><a xlink:title=" ">
<polygon fill="white" stroke="transparent" points="113,-556 22,-556 22,-507 113,-507 113,-556"/>
<text text-anchor="start" x="27.5" y="-543.5" font-family="Ubuntu Mono" font-size="10.00">std::vector&lt; T &gt;</text>
<text text-anchor="start" x="66" y="-528.5" font-family="Ubuntu Mono" font-size="10.00"> </text>
<text text-anchor="start" x="66" y="-513.5" font-family="Ubuntu Mono" font-size="10.00"> </text>
<polygon fill="#666666" stroke="#666666" points="22.5,-538.5 22.5,-538.5 113.5,-538.5 113.5,-538.5 22.5,-538.5"/>
<polygon fill="#666666" stroke="#666666" points="22.5,-523.5 22.5,-523.5 113.5,-523.5 113.5,-523.5 22.5,-523.5"/>
<polygon fill="none" stroke="#666666" points="22,-507 22,-556 113,-556 113,-507 22,-507"/>
</a>
</g>
</g>
<!-- Node3&#45;&gt;Node2 -->
<g id="edge2_Node000002_Node000003" class="edge">
<title>Node3&#45;&gt;Node2</title>
<g id="a_edge2_Node000002_Node000003"><a xlink:title=" ">
<path fill="none" stroke="orange" d="M67.5,-496.6C67.5,-484.54 67.5,-471.23 67.5,-460.21"/>
<polygon fill="orange" stroke="orange" points="64,-496.78 67.5,-506.78 71,-496.78 64,-496.78"/>
</a>
</g>
<text text-anchor="middle" x="97" y="-481" font-family="Ubuntu Mono" font-size="10.00" fill="grey"> &lt; double &gt;</text>
</g>
<!-- Node4 -->
<g id="Node000004" class="node">
<title>Node4</title>
<g id="a_Node000004"><a xlink:title=" ">
<polygon fill="white" stroke="transparent" points="76,-652 59,-652 59,-603 76,-603 76,-652"/>
<text text-anchor="start" x="64.5" y="-639.5" font-family="Ubuntu Mono" font-size="10.00">T</text>
<text text-anchor="start" x="66" y="-624.5" font-family="Ubuntu Mono" font-size="10.00"> </text>
<text text-anchor="start" x="66" y="-609.5" font-family="Ubuntu Mono" font-size="10.00"> </text>
<polygon fill="#666666" stroke="#666666" points="59.5,-634.5 59.5,-634.5 76.5,-634.5 76.5,-634.5 59.5,-634.5"/>
<polygon fill="#666666" stroke="#666666" points="59.5,-619.5 59.5,-619.5 76.5,-619.5 76.5,-619.5 59.5,-619.5"/>
<polygon fill="none" stroke="#666666" points="59,-603 59,-652 76,-652 76,-603 59,-603"/>
</a>
</g>
</g>
<!-- Node4&#45;&gt;Node3 -->
<g id="edge3_Node000003_Node000004" class="edge">
<title>Node4&#45;&gt;Node3</title>
<g id="a_edge3_Node000003_Node000004"><a xlink:title=" ">
<path fill="none" stroke="#63b8ff" d="M67.5,-602.78C67.5,-592.32 67.5,-579.79 67.5,-568.23"/>
<polygon fill="none" stroke="#63b8ff" points="67.5,-568.21 63.5,-562.21 67.5,-556.21 71.5,-562.21 67.5,-568.21"/>
</a>
</g>
<text text-anchor="middle" x="96.5" y="-577" font-family="Ubuntu Mono" font-size="10.00" fill="grey"> +elements</text>
</g>
</g>
</svg>

<g id="navigator" transform="translate(0 0)" fill="#404254">
  <rect fill="#f2f5e9" fill-opacity="0.5" stroke="#606060" stroke-width=".5" x="0" y="0" width="60" height="60"/>
  <use id="zoomplus" xlink:href="#zoomPlus" x="17" y="9" onmousedown="handleZoom(evt,'in')"/>
  <use id="zoomminus" xlink:href="#zoomMin" x="42" y="9" onmousedown="handleZoom(evt,'out')"/>
  <use id="reset" xlink:href="#resetDef" x="30" y="36" onmousedown="handleReset()"/>
   <use id="arrowup" xlink:href="#arrowUp" x="0" y="0" onmousedown="handlePan(0,-1)"/>
  <use id="arrowright" xlink:href="#arrowRight" x="0" y="0" onmousedown="handlePan(1,0)"/>
  <use id="arrowdown" xlink:href="#arrowDown" x="0" y="0" onmousedown="handlePan(0,1)"/>
  <use id="arrowleft" xlink:href="#arrowLeft" x="0" y="0" onmousedown="handlePan(-1,0)"/>
</g>
<svg viewBox="0 0 15 15" width="100%" height="30px" preserveAspectRatio="xMaxYMin meet">
 <g id="arrow_out" transform="scale(0.3 0.3)">
  <a xlink:href="classStats__coll__graph_org.svg" target="_base">
   <rect id="button" ry="5" rx="5" y="6" x="6" height="38" width="38"
        fill="#f2f5e9" fill-opacity="0.5" stroke="#606060" stroke-width="1.0"/>
   <path id="arrow"
     d="M 11.500037,31.436501 C 11.940474,20.09759 22.043105,11.32322 32.158766,21.979434 L 37.068811,17.246167 C 37.068811,17.246167 37.088388,32 37.088388,32 L 22.160133,31.978069 C 22.160133,31.978069 26.997745,27.140456 26.997745,27.140456 C 18.528582,18.264221 13.291696,25.230495 11.500037,31.436501 z"
     style="fill:#404040;"/>
  </a>
 </g>
</svg>

<style type='text/css'>
<![CDATA[
[data-mouse-over-selected='false'] { opacity: 0.7; }
[data-mouse-over-selected='true']  { opacity: 1.0; }
]]>
</style>
<script type="application/ecmascript"><![CDATA[
document.addEventListener('DOMContentLoaded', (event) => {
  highlightEdges();
  highlightAdjacentNodes();
});
]]></script>
</svg>
