<?xml version="1.0" encoding="UTF-8" standalone="no"?>
<!DOCTYPE svg PUBLIC "-//W3C//DTD SVG 1.1//EN"
 "http://www.w3.org/Graphics/SVG/1.1/DTD/svg11.dtd">
<!-- Generated by graphviz version 2.43.0 (0)
 -->
<!-- Title: KinSparseMatrix::computeRowRate Pages: 1 -->
<svg width="326pt" height="101pt"
 viewBox="0.00 0.00 326.00 101.00" xmlns="http://www.w3.org/2000/svg" xmlns:xlink="http://www.w3.org/1999/xlink">

<svg id="main" version="1.1" xmlns="http://www.w3.org/2000/svg" xmlns:xlink="http://www.w3.org/1999/xlink" xml:space="preserve" onload="init(evt)">
<style type="text/css"><![CDATA[
.node, .edge {opacity: 0.7;}
.node.selected, .edge.selected {opacity: 1;}
.edge:hover path { stroke: red; }
.edge:hover polygon { stroke: red; fill: red; }
]]></style>
<script type="application/ecmascript" xlink:href="svg.min.js"/>
<svg id="graph" class="graph">
<g id="graph0" class="graph" transform="scale(1 1) rotate(0) translate(4 97)">
<title>KinSparseMatrix::computeRowRate</title>
<!-- Node1 -->
<g id="Node000001" class="node">
<title>Node1</title>
<g id="a_Node000001"><a xlink:title=" ">
<polygon fill="#999999" stroke="#666666" points="146,-61.5 0,-61.5 0,-31.5 146,-31.5 146,-61.5"/>
<text text-anchor="start" x="8" y="-49.5" font-family="Ubuntu Mono" font-size="10.00">KinSparseMatrix::compute</text>
<text text-anchor="middle" x="73" y="-38.5" font-family="Ubuntu Mono" font-size="10.00">RowRate</text>
</a>
</g>
</g>
<!-- Node2 -->
<g id="Node000002" class="node">
<title>Node2</title>
<g id="a_Node000002"><a xlink:href="classSparseMatrix.html#a354ec2999a4fa10d5c1127ca769d116b" target="_top" xlink:title=" ">
<polygon fill="white" stroke="#666666" points="312,-93 188,-93 188,-74 312,-74 312,-93"/>
<text text-anchor="middle" x="250" y="-81" font-family="Ubuntu Mono" font-size="10.00">SparseMatrix::getRow</text>
</a>
</g>
</g>
<!-- Node1&#45;&gt;Node2 -->
<g id="edge1_Node000001_Node000002" class="edge">
<title>Node1&#45;&gt;Node2</title>
<g id="a_edge1_Node000001_Node000002"><a xlink:title=" ">
<path fill="none" stroke="#63b8ff" d="M145.18,-61.55C161.48,-65 178.57,-68.61 194.06,-71.88"/>
<polygon fill="#63b8ff" stroke="#63b8ff" points="193.48,-75.34 203.99,-73.98 194.93,-68.49 193.48,-75.34"/>
</a>
</g>
</g>
<!-- Node3 -->
<g id="Node000003" class="node">
<title>Node3</title>
<g id="a_Node000003"><a xlink:href="classSparseMatrix.html#a34a568e3db0bafd38cf0ccc37cd2086b" target="_top" xlink:title=" ">
<polygon fill="white" stroke="#666666" points="318,-56 182,-56 182,-37 318,-37 318,-56"/>
<text text-anchor="middle" x="250" y="-44" font-family="Ubuntu Mono" font-size="10.00">SparseMatrix::nColumns</text>
</a>
</g>
</g>
<!-- Node1&#45;&gt;Node3 -->
<g id="edge2_Node000001_Node000003" class="edge">
<title>Node1&#45;&gt;Node3</title>
<g id="a_edge2_Node000001_Node000003"><a xlink:title=" ">
<path fill="none" stroke="#63b8ff" d="M146.19,-46.5C154.56,-46.5 163.12,-46.5 171.55,-46.5"/>
<polygon fill="#63b8ff" stroke="#63b8ff" points="171.75,-50 181.75,-46.5 171.75,-43 171.75,-50"/>
</a>
</g>
</g>
<!-- Node4 -->
<g id="Node000004" class="node">
<title>Node4</title>
<g id="a_Node000004"><a xlink:href="classSparseMatrix.html#a2c51cee470d726cf04e262a4038625f5" target="_top" xlink:title=" ">
<polygon fill="white" stroke="#666666" points="309.5,-19 190.5,-19 190.5,0 309.5,0 309.5,-19"/>
<text text-anchor="middle" x="250" y="-7" font-family="Ubuntu Mono" font-size="10.00">SparseMatrix::nRows</text>
</a>
</g>
</g>
<!-- Node1&#45;&gt;Node4 -->
<g id="edge3_Node000001_Node000004" class="edge">
<title>Node1&#45;&gt;Node4</title>
<g id="a_edge3_Node000001_Node000004"><a xlink:title=" ">
<path fill="none" stroke="#63b8ff" d="M145.18,-31.45C161.48,-28 178.57,-24.39 194.06,-21.12"/>
<polygon fill="#63b8ff" stroke="#63b8ff" points="194.93,-24.51 203.99,-19.02 193.48,-17.66 194.93,-24.51"/>
</a>
</g>
</g>
</g>
</svg>
</svg>

<style type='text/css'>
<![CDATA[
[data-mouse-over-selected='false'] { opacity: 0.7; }
[data-mouse-over-selected='true']  { opacity: 1.0; }
]]>
</style>
<script type="application/ecmascript"><![CDATA[
document.addEventListener('DOMContentLoaded', (event) => {
  highlightEdges();
  highlightAdjacentNodes();
});
]]></script>
</svg>
