<?xml version="1.0" encoding="UTF-8" standalone="no"?>
<!DOCTYPE svg PUBLIC "-//W3C//DTD SVG 1.1//EN"
 "http://www.w3.org/Graphics/SVG/1.1/DTD/svg11.dtd">
<!-- Generated by graphviz version 2.43.0 (0)
 -->
<!-- Title: TableBase::vec Pages: 1 -->
<svg width="1183pt" height="364pt"
 viewBox="0.00 0.00 1183.00 364.00" xmlns="http://www.w3.org/2000/svg" xmlns:xlink="http://www.w3.org/1999/xlink">
<g id="graph0" class="graph" transform="scale(1 1) rotate(0) translate(4 360)">
<title>TableBase::vec</title>
<!-- Node1 -->
<g id="Node000001" class="node">
<title>Node1</title>
<g id="a_Node000001"><a xlink:title=" ">
<polygon fill="#999999" stroke="#666666" points="1175,-169 1086,-169 1086,-150 1175,-150 1175,-169"/>
<text text-anchor="middle" x="1130.5" y="-157" font-family="Ubuntu Mono" font-size="10.00">TableBase::vec</text>
</a>
</g>
</g>
<!-- Node2 -->
<g id="Node000002" class="node">
<title>Node2</title>
<g id="a_Node000002"><a xlink:href="classTable.html#a29547ce2fe562669b428692a937dd172" target="_top" xlink:title=" ">
<polygon fill="white" stroke="#666666" points="1035.5,-338 931.5,-338 931.5,-319 1035.5,-319 1035.5,-338"/>
<text text-anchor="middle" x="983.5" y="-326" font-family="Ubuntu Mono" font-size="10.00">Table::collectData</text>
</a>
</g>
</g>
<!-- Node1&#45;&gt;Node2 -->
<g id="edge1_Node000001_Node000002" class="edge">
<title>Node1&#45;&gt;Node2</title>
<g id="a_edge1_Node000001_Node000002"><a xlink:title=" ">
<path fill="none" stroke="#63b8ff" d="M1121.77,-178.62C1109.8,-206.31 1084.52,-257.93 1050,-291.5 1037.92,-303.25 1021.38,-312.55 1007.95,-318.89"/>
<polygon fill="#63b8ff" stroke="#63b8ff" points="1125.05,-179.84 1125.69,-169.26 1118.6,-177.13 1125.05,-179.84"/>
</a>
</g>
</g>
<!-- Node8 -->
<g id="Node000008" class="node">
<title>Node8</title>
<g id="a_Node000008"><a xlink:href="classTable.html#a78b26adc84f379aff58c7d5242e54edf" target="_top" xlink:title=" ">
<polygon fill="white" stroke="#666666" points="1020,-282 947,-282 947,-263 1020,-263 1020,-282"/>
<text text-anchor="middle" x="983.5" y="-270" font-family="Ubuntu Mono" font-size="10.00">Table::input</text>
</a>
</g>
</g>
<!-- Node1&#45;&gt;Node8 -->
<g id="edge7_Node000001_Node000008" class="edge">
<title>Node1&#45;&gt;Node8</title>
<g id="a_edge7_Node000001_Node000008"><a xlink:title=" ">
<path fill="none" stroke="#63b8ff" d="M1117.42,-177.69C1103.36,-197.59 1078.41,-229.21 1050,-248.5 1040.98,-254.62 1030.21,-259.41 1020.03,-263.04"/>
<polygon fill="#63b8ff" stroke="#63b8ff" points="1120.46,-179.44 1123.25,-169.22 1114.7,-175.47 1120.46,-179.44"/>
</a>
</g>
</g>
<!-- Node13 -->
<g id="Node000013" class="node">
<title>Node13</title>
<g id="a_Node000013"><a xlink:href="classTable.html#add72832f99faac8775495eb090e785f2" target="_top" xlink:title="Take the vector from table and timestamp it. It must only be called when packing the data for writing...">
<polygon fill="white" stroke="#666666" points="1047,-169 920,-169 920,-150 1047,-150 1047,-169"/>
<text text-anchor="middle" x="983.5" y="-157" font-family="Ubuntu Mono" font-size="10.00">Table::mergeWithTime</text>
</a>
</g>
</g>
<!-- Node1&#45;&gt;Node13 -->
<g id="edge12_Node000001_Node000013" class="edge">
<title>Node1&#45;&gt;Node13</title>
<g id="a_edge12_Node000001_Node000013"><a xlink:title=" ">
<path fill="none" stroke="#63b8ff" d="M1075.98,-159.5C1066.55,-159.5 1056.65,-159.5 1047,-159.5"/>
<polygon fill="#63b8ff" stroke="#63b8ff" points="1076,-163 1086,-159.5 1076,-156 1076,-163"/>
</a>
</g>
</g>
<!-- Node14 -->
<g id="Node000014" class="node">
<title>Node14</title>
<g id="a_Node000014"><a xlink:href="classTable.html#a634e518a132bb27cd948d318ab90a879" target="_top" xlink:title=" ">
<polygon fill="white" stroke="#666666" points="840.5,-206 754.5,-206 754.5,-187 840.5,-187 840.5,-206"/>
<text text-anchor="middle" x="797.5" y="-194" font-family="Ubuntu Mono" font-size="10.00">Table::process</text>
</a>
</g>
</g>
<!-- Node1&#45;&gt;Node14 -->
<g id="edge18_Node000001_Node000014" class="edge">
<title>Node1&#45;&gt;Node14</title>
<g id="a_edge18_Node000001_Node000014"><a xlink:title=" ">
<path fill="none" stroke="#63b8ff" d="M1112.37,-176.37C1097.34,-189.89 1074.17,-207.84 1050,-215.5 973.4,-239.77 877.39,-219.48 829.16,-206.05"/>
<polygon fill="#63b8ff" stroke="#63b8ff" points="1114.91,-178.78 1119.83,-169.4 1110.14,-173.67 1114.91,-178.78"/>
</a>
</g>
</g>
<!-- Node15 -->
<g id="Node000015" class="node">
<title>Node15</title>
<g id="a_Node000015"><a xlink:href="classTable.html#a040cc5f0464ddfa06356d558381a6f0f" target="_top" xlink:title="Reinitialize.">
<polygon fill="white" stroke="#666666" points="834.5,-169 760.5,-169 760.5,-150 834.5,-150 834.5,-169"/>
<text text-anchor="middle" x="797.5" y="-157" font-family="Ubuntu Mono" font-size="10.00">Table::reinit</text>
</a>
</g>
</g>
<!-- Node1&#45;&gt;Node15 -->
<g id="edge21_Node000001_Node000015" class="edge">
<title>Node1&#45;&gt;Node15</title>
<g id="a_edge21_Node000001_Node000015"><a xlink:title=" ">
<path fill="none" stroke="#63b8ff" d="M1087.54,-147.53C1075.52,-144.63 1062.33,-141.95 1050,-140.5 991.3,-133.58 975.92,-135.81 917,-140.5 889.17,-142.72 858.01,-147.82 834.62,-152.18"/>
<polygon fill="#63b8ff" stroke="#63b8ff" points="1086.77,-150.94 1097.32,-149.99 1088.48,-144.16 1086.77,-150.94"/>
</a>
</g>
</g>
<!-- Node17 -->
<g id="Node000017" class="node">
<title>Node17</title>
<g id="a_Node000017"><a xlink:href="classTimeTable.html#acafcc04dc2f2405aaee8fa72c443e6ee" target="_top" xlink:title=" ">
<polygon fill="white" stroke="#666666" points="1038.5,-56 928.5,-56 928.5,-37 1038.5,-37 1038.5,-56"/>
<text text-anchor="middle" x="983.5" y="-44" font-family="Ubuntu Mono" font-size="10.00">TimeTable::process</text>
</a>
</g>
</g>
<!-- Node1&#45;&gt;Node17 -->
<g id="edge19_Node000001_Node000017" class="edge">
<title>Node1&#45;&gt;Node17</title>
<g id="a_edge19_Node000001_Node000017"><a xlink:title=" ">
<path fill="none" stroke="#63b8ff" d="M1118.81,-140.89C1105.46,-119.3 1080.6,-84.16 1050,-64.5 1044.64,-61.06 1038.63,-58.27 1032.48,-56.01"/>
<polygon fill="#63b8ff" stroke="#63b8ff" points="1115.98,-142.97 1124.12,-149.75 1121.99,-139.37 1115.98,-142.97"/>
</a>
</g>
</g>
<!-- Node19 -->
<g id="Node000019" class="node">
<title>Node19</title>
<g id="a_Node000019"><a xlink:href="classTimeTable.html#ab15a33726c446da42a4b800179436b5a" target="_top" xlink:title=" ">
<polygon fill="white" stroke="#666666" points="1050,-93 917,-93 917,-74 1050,-74 1050,-93"/>
<text text-anchor="middle" x="983.5" y="-81" font-family="Ubuntu Mono" font-size="10.00">TimeTable::setFilename</text>
</a>
</g>
</g>
<!-- Node1&#45;&gt;Node19 -->
<g id="edge22_Node000001_Node000019" class="edge">
<title>Node1&#45;&gt;Node19</title>
<g id="a_edge22_Node000001_Node000019"><a xlink:title=" ">
<path fill="none" stroke="#63b8ff" d="M1108.46,-143.83C1092.87,-132.7 1070.82,-117.95 1050,-107.5 1038.96,-101.96 1026.32,-97.02 1015.11,-93.09"/>
<polygon fill="#63b8ff" stroke="#63b8ff" points="1106.68,-146.86 1116.83,-149.9 1110.79,-141.19 1106.68,-146.86"/>
</a>
</g>
</g>
<!-- Node20 -->
<g id="Node000020" class="node">
<title>Node20</title>
<g id="a_Node000020"><a xlink:href="classTable.html#af1d4537a73f8137f35beba21f986e996" target="_top" xlink:title=" ">
<polygon fill="white" stroke="#666666" points="1020.5,-206 946.5,-206 946.5,-187 1020.5,-187 1020.5,-206"/>
<text text-anchor="middle" x="983.5" y="-194" font-family="Ubuntu Mono" font-size="10.00">Table::spike</text>
</a>
</g>
</g>
<!-- Node1&#45;&gt;Node20 -->
<g id="edge24_Node000001_Node000020" class="edge">
<title>Node1&#45;&gt;Node20</title>
<g id="a_edge24_Node000001_Node000020"><a xlink:title=" ">
<path fill="none" stroke="#63b8ff" d="M1082.3,-171.54C1062.3,-176.65 1039.35,-182.5 1020.71,-187.26"/>
<polygon fill="#63b8ff" stroke="#63b8ff" points="1083.33,-174.89 1092.16,-169.03 1081.6,-168.11 1083.33,-174.89"/>
</a>
</g>
</g>
<!-- Node21 -->
<g id="Node000021" class="node">
<title>Node21</title>
<g id="a_Node000021"><a xlink:href="classTable.html#a1f7a4a2ca5c4b56a12f1ec47b3cc1e62" target="_top" xlink:title=" ">
<polygon fill="white" stroke="#666666" points="1024.5,-19 942.5,-19 942.5,0 1024.5,0 1024.5,-19"/>
<text text-anchor="middle" x="983.5" y="-7" font-family="Ubuntu Mono" font-size="10.00">Table::toJSON</text>
</a>
</g>
</g>
<!-- Node1&#45;&gt;Node21 -->
<g id="edge28_Node000001_Node000021" class="edge">
<title>Node1&#45;&gt;Node21</title>
<g id="a_edge28_Node000001_Node000021"><a xlink:title=" ">
<path fill="none" stroke="#63b8ff" d="M1123.1,-140.05C1112.56,-111.08 1088.76,-56.87 1050,-27.5 1042.67,-21.94 1033.72,-18.1 1024.83,-15.45"/>
<polygon fill="#63b8ff" stroke="#63b8ff" points="1119.91,-141.52 1126.5,-149.81 1126.52,-139.22 1119.91,-141.52"/>
</a>
</g>
</g>
<!-- Node3 -->
<g id="Node000003" class="node">
<title>Node3</title>
<g id="a_Node000003"><a xlink:href="classSocketStreamer.html#af36c54b2c56e955ef57a27518ebc2d32" target="_top" xlink:title=" ">
<polygon fill="white" stroke="#666666" points="881,-356 714,-356 714,-337 881,-337 881,-356"/>
<text text-anchor="middle" x="797.5" y="-344" font-family="Ubuntu Mono" font-size="10.00">SocketStreamer::dataToStream</text>
</a>
</g>
</g>
<!-- Node2&#45;&gt;Node3 -->
<g id="edge2_Node000002_Node000003" class="edge">
<title>Node2&#45;&gt;Node3</title>
<g id="a_edge2_Node000002_Node000003"><a xlink:title=" ">
<path fill="none" stroke="#63b8ff" d="M921.18,-334.5C908.37,-335.75 894.66,-337.09 881.22,-338.41"/>
<polygon fill="#63b8ff" stroke="#63b8ff" points="921.63,-337.97 931.25,-333.51 920.95,-331 921.63,-337.97"/>
</a>
</g>
</g>
<!-- Node4 -->
<g id="Node000004" class="node">
<title>Node4</title>
<g id="a_Node000004"><a xlink:href="classSocketStreamer.html#a5b918fc4d0734d766b2d82b895d7854a" target="_top" xlink:title=" ">
<polygon fill="white" stroke="#666666" points="678,-356 520,-356 520,-337 678,-337 678,-356"/>
<text text-anchor="middle" x="599" y="-344" font-family="Ubuntu Mono" font-size="10.00">SocketStreamer::streamData</text>
</a>
</g>
</g>
<!-- Node3&#45;&gt;Node4 -->
<g id="edge3_Node000003_Node000004" class="edge">
<title>Node3&#45;&gt;Node4</title>
<g id="a_edge3_Node000003_Node000004"><a xlink:title=" ">
<path fill="none" stroke="#63b8ff" d="M703.49,-346.5C695.05,-346.5 686.57,-346.5 678.28,-346.5"/>
<polygon fill="#63b8ff" stroke="#63b8ff" points="703.74,-350 713.74,-346.5 703.74,-343 703.74,-350"/>
</a>
</g>
</g>
<!-- Node5 -->
<g id="Node000005" class="node">
<title>Node5</title>
<g id="a_Node000005"><a xlink:href="classSocketStreamer.html#ae63fbcfe1e01ac0e90d60f464b5bdb85" target="_top" xlink:title=" ">
<polygon fill="white" stroke="#666666" points="484,-356 350,-356 350,-337 484,-337 484,-356"/>
<text text-anchor="middle" x="417" y="-344" font-family="Ubuntu Mono" font-size="10.00">SocketStreamer::stream</text>
</a>
</g>
</g>
<!-- Node4&#45;&gt;Node5 -->
<g id="edge4_Node000004_Node000005" class="edge">
<title>Node4&#45;&gt;Node5</title>
<g id="a_edge4_Node000004_Node000005"><a xlink:title=" ">
<path fill="none" stroke="#63b8ff" d="M509.78,-346.5C501.19,-346.5 492.58,-346.5 484.26,-346.5"/>
<polygon fill="#63b8ff" stroke="#63b8ff" points="509.83,-350 519.83,-346.5 509.83,-343 509.83,-350"/>
</a>
</g>
</g>
<!-- Node6 -->
<g id="Node000006" class="node">
<title>Node6</title>
<g id="a_Node000006"><a xlink:href="classSocketStreamer.html#abdfc8d64f02012857a993f72d4836ceb" target="_top" xlink:title="This function is called at its clock tick.">
<polygon fill="white" stroke="#666666" points="314,-356 177,-356 177,-337 314,-337 314,-356"/>
<text text-anchor="middle" x="245.5" y="-344" font-family="Ubuntu Mono" font-size="10.00">SocketStreamer::process</text>
</a>
</g>
</g>
<!-- Node5&#45;&gt;Node6 -->
<g id="edge5_Node000005_Node000006" class="edge">
<title>Node5&#45;&gt;Node6</title>
<g id="a_edge5_Node000005_Node000006"><a xlink:title=" ">
<path fill="none" stroke="#63b8ff" d="M339.92,-346.5C331.29,-346.5 322.53,-346.5 314.01,-346.5"/>
<polygon fill="#63b8ff" stroke="#63b8ff" points="339.98,-350 349.98,-346.5 339.98,-343 339.98,-350"/>
</a>
</g>
</g>
<!-- Node7 -->
<g id="Node000007" class="node">
<title>Node7</title>
<g id="a_Node000007"><a xlink:href="classSocketStreamer.html#a8f6995482d6f639362e1508b37297404" target="_top" xlink:title=" ">
<polygon fill="white" stroke="#666666" points="141,-356 0,-356 0,-337 141,-337 141,-356"/>
<text text-anchor="middle" x="70.5" y="-344" font-family="Ubuntu Mono" font-size="10.00">SocketStreamer::initCinfo</text>
</a>
</g>
</g>
<!-- Node6&#45;&gt;Node7 -->
<g id="edge6_Node000006_Node000007" class="edge">
<title>Node6&#45;&gt;Node7</title>
<g id="a_edge6_Node000006_Node000007"><a xlink:title=" ">
<path fill="none" stroke="#63b8ff" d="M166.43,-346.5C158.01,-346.5 149.48,-346.5 141.17,-346.5"/>
<polygon fill="#63b8ff" stroke="#63b8ff" points="166.62,-350 176.62,-346.5 166.62,-343 166.62,-350"/>
</a>
</g>
</g>
<!-- Node9 -->
<g id="Node000009" class="node">
<title>Node9</title>
<g id="a_Node000009"><a xlink:href="Table_8cpp.html#a76c2b2c49ec8e71a9e1c1a389f85f507" target="_top" xlink:title=" ">
<polygon fill="white" stroke="#666666" points="834.5,-282 760.5,-282 760.5,-263 834.5,-263 834.5,-282"/>
<text text-anchor="middle" x="797.5" y="-270" font-family="Ubuntu Mono" font-size="10.00">handleInput</text>
</a>
</g>
</g>
<!-- Node8&#45;&gt;Node9 -->
<g id="edge8_Node000008_Node000009" class="edge">
<title>Node8&#45;&gt;Node9</title>
<g id="a_edge8_Node000008_Node000009"><a xlink:title=" ">
<path fill="none" stroke="#63b8ff" d="M936.31,-272.5C904.83,-272.5 863.73,-272.5 834.64,-272.5"/>
<polygon fill="#63b8ff" stroke="#63b8ff" points="936.59,-276 946.59,-272.5 936.59,-269 936.59,-276"/>
</a>
</g>
</g>
<!-- Node11 -->
<g id="Node000011" class="node">
<title>Node11</title>
<g id="a_Node000011"><a xlink:href="testBuiltins_8cpp.html#adeaf62d64a49a43fef929fa5d1c1999e" target="_top" xlink:title=" ">
<polygon fill="white" stroke="#666666" points="828,-319 767,-319 767,-300 828,-300 828,-319"/>
<text text-anchor="middle" x="797.5" y="-307" font-family="Ubuntu Mono" font-size="10.00">testTable</text>
</a>
</g>
</g>
<!-- Node8&#45;&gt;Node11 -->
<g id="edge10_Node000008_Node000011" class="edge">
<title>Node8&#45;&gt;Node11</title>
<g id="a_edge10_Node000008_Node000011"><a xlink:title=" ">
<path fill="none" stroke="#63b8ff" d="M936.46,-281.76C902.58,-288.57 857.51,-297.63 828.25,-303.52"/>
<polygon fill="#63b8ff" stroke="#63b8ff" points="937.47,-285.12 946.59,-279.72 936.09,-278.26 937.47,-285.12"/>
</a>
</g>
</g>
<!-- Node10 -->
<g id="Node000010" class="node">
<title>Node10</title>
<g id="a_Node000010"><a xlink:href="classTable.html#a510dd5d32479feb8100fc46ee5245240" target="_top" xlink:title=" ">
<polygon fill="white" stroke="#666666" points="643.5,-225 554.5,-225 554.5,-206 643.5,-206 643.5,-225"/>
<text text-anchor="middle" x="599" y="-213" font-family="Ubuntu Mono" font-size="10.00">Table::initCinfo</text>
</a>
</g>
</g>
<!-- Node9&#45;&gt;Node10 -->
<g id="edge9_Node000009_Node000010" class="edge">
<title>Node9&#45;&gt;Node10</title>
<g id="a_edge9_Node000009_Node000010"><a xlink:title=" ">
<path fill="none" stroke="#63b8ff" d="M753.8,-260.12C717.52,-249.59 666.19,-234.7 633,-225.07"/>
<polygon fill="#63b8ff" stroke="#63b8ff" points="753.03,-263.53 763.61,-262.96 754.98,-256.81 753.03,-263.53"/>
</a>
</g>
</g>
<!-- Node12 -->
<g id="Node000012" class="node">
<title>Node12</title>
<g id="a_Node000012"><a xlink:href="testBuiltins_8cpp.html#a7ab6d854a57ffd12234aa6d0e54e7520" target="_top" xlink:title=" ">
<polygon fill="white" stroke="#666666" points="635,-319 563,-319 563,-300 635,-300 635,-319"/>
<text text-anchor="middle" x="599" y="-307" font-family="Ubuntu Mono" font-size="10.00">testBuiltins</text>
</a>
</g>
</g>
<!-- Node11&#45;&gt;Node12 -->
<g id="edge11_Node000011_Node000012" class="edge">
<title>Node11&#45;&gt;Node12</title>
<g id="a_edge11_Node000011_Node000012"><a xlink:title=" ">
<path fill="none" stroke="#63b8ff" d="M756.6,-309.5C720.95,-309.5 669.23,-309.5 635.11,-309.5"/>
<polygon fill="#63b8ff" stroke="#63b8ff" points="756.66,-313 766.66,-309.5 756.66,-306 756.66,-313"/>
</a>
</g>
</g>
<!-- Node13&#45;&gt;Node14 -->
<g id="edge13_Node000013_Node000014" class="edge">
<title>Node13&#45;&gt;Node14</title>
<g id="a_edge13_Node000013_Node000014"><a xlink:title=" ">
<path fill="none" stroke="#63b8ff" d="M925.28,-171.01C897.94,-176.5 865.79,-182.97 840.7,-188.01"/>
<polygon fill="#63b8ff" stroke="#63b8ff" points="926,-174.43 935.12,-169.03 924.62,-167.57 926,-174.43"/>
</a>
</g>
</g>
<!-- Node13&#45;&gt;Node15 -->
<g id="edge15_Node000013_Node000015" class="edge">
<title>Node13&#45;&gt;Node15</title>
<g id="a_edge15_Node000013_Node000015"><a xlink:title=" ">
<path fill="none" stroke="#63b8ff" d="M909.8,-159.5C883.97,-159.5 856.02,-159.5 834.59,-159.5"/>
<polygon fill="#63b8ff" stroke="#63b8ff" points="909.95,-163 919.95,-159.5 909.95,-156 909.95,-163"/>
</a>
</g>
</g>
<!-- Node16 -->
<g id="Node000016" class="node">
<title>Node16</title>
<g id="a_Node000016"><a xlink:href="classTable.html#a9a559f2e7beb37b511ee9f88873164f8" target="_top" xlink:title=" ">
<polygon fill="white" stroke="#666666" points="838.5,-132 756.5,-132 756.5,-113 838.5,-113 838.5,-132"/>
<text text-anchor="middle" x="797.5" y="-120" font-family="Ubuntu Mono" font-size="10.00">Table::~Table</text>
</a>
</g>
</g>
<!-- Node13&#45;&gt;Node16 -->
<g id="edge17_Node000013_Node000016" class="edge">
<title>Node13&#45;&gt;Node16</title>
<g id="a_edge17_Node000013_Node000016"><a xlink:title=" ">
<path fill="none" stroke="#63b8ff" d="M925.02,-147.94C896.95,-142.3 863.86,-135.64 838.56,-130.56"/>
<polygon fill="#63b8ff" stroke="#63b8ff" points="924.62,-151.43 935.12,-149.97 926,-144.57 924.62,-151.43"/>
</a>
</g>
</g>
<!-- Node14&#45;&gt;Node10 -->
<g id="edge14_Node000014_Node000010" class="edge">
<title>Node14&#45;&gt;Node10</title>
<g id="a_edge14_Node000014_Node000010"><a xlink:title=" ">
<path fill="none" stroke="#63b8ff" d="M744.06,-201.57C712.74,-204.6 673.43,-208.4 643.79,-211.27"/>
<polygon fill="#63b8ff" stroke="#63b8ff" points="744.73,-205.02 754.35,-200.58 744.06,-198.05 744.73,-205.02"/>
</a>
</g>
</g>
<!-- Node15&#45;&gt;Node10 -->
<g id="edge16_Node000015_Node000010" class="edge">
<title>Node15&#45;&gt;Node10</title>
<g id="a_edge16_Node000015_Node000010"><a xlink:title=" ">
<path fill="none" stroke="#63b8ff" d="M750.42,-169.36C738.5,-172.12 725.73,-175.25 714,-178.5 684.12,-186.77 650.4,-197.95 627.44,-205.85"/>
<polygon fill="#63b8ff" stroke="#63b8ff" points="751.21,-172.77 760.18,-167.14 749.66,-165.95 751.21,-172.77"/>
</a>
</g>
</g>
<!-- Node18 -->
<g id="Node000018" class="node">
<title>Node18</title>
<g id="a_Node000018"><a xlink:href="classTimeTable.html#ac4c9635d822ba8716e350bce976401f1" target="_top" xlink:title=" ">
<polygon fill="white" stroke="#666666" points="854.5,-75 740.5,-75 740.5,-56 854.5,-56 854.5,-75"/>
<text text-anchor="middle" x="797.5" y="-63" font-family="Ubuntu Mono" font-size="10.00">TimeTable::initCinfo</text>
</a>
</g>
</g>
<!-- Node17&#45;&gt;Node18 -->
<g id="edge20_Node000017_Node000018" class="edge">
<title>Node17&#45;&gt;Node18</title>
<g id="a_edge20_Node000017_Node000018"><a xlink:title=" ">
<path fill="none" stroke="#63b8ff" d="M918.29,-53.13C897.52,-55.27 874.68,-57.63 854.56,-59.71"/>
<polygon fill="#63b8ff" stroke="#63b8ff" points="918.7,-56.61 928.29,-52.1 917.98,-49.64 918.7,-56.61"/>
</a>
</g>
</g>
<!-- Node19&#45;&gt;Node18 -->
<g id="edge23_Node000019_Node000018" class="edge">
<title>Node19&#45;&gt;Node18</title>
<g id="a_edge23_Node000019_Node000018"><a xlink:title=" ">
<path fill="none" stroke="#63b8ff" d="M906.71,-76.09C889.3,-74.38 871.09,-72.6 854.68,-71"/>
<polygon fill="#63b8ff" stroke="#63b8ff" points="906.56,-79.59 916.85,-77.08 907.24,-72.62 906.56,-79.59"/>
</a>
</g>
</g>
<!-- Node20&#45;&gt;Node10 -->
<g id="edge25_Node000020_Node000010" class="edge">
<title>Node20&#45;&gt;Node10</title>
<g id="a_edge25_Node000020_Node000010"><a xlink:title=" ">
<path fill="none" stroke="#63b8ff" d="M936.26,-207.02C919.01,-210.45 899.21,-213.81 881,-215.5 797.45,-223.25 699.32,-220.59 643.92,-218"/>
<polygon fill="#63b8ff" stroke="#63b8ff" points="936.99,-210.44 946.09,-205.01 935.59,-203.59 936.99,-210.44"/>
</a>
</g>
</g>
<!-- Node20&#45;&gt;Node14 -->
<g id="edge26_Node000020_Node000014" class="edge">
<title>Node20&#45;&gt;Node14</title>
<g id="a_edge26_Node000020_Node000014"><a xlink:title=" ">
<path fill="none" stroke="#63b8ff" d="M936.13,-196.5C906.76,-196.5 869.08,-196.5 840.57,-196.5"/>
<polygon fill="#63b8ff" stroke="#63b8ff" points="936.15,-200 946.15,-196.5 936.15,-193 936.15,-200"/>
</a>
</g>
</g>
<!-- Node20&#45;&gt;Node15 -->
<g id="edge27_Node000020_Node000015" class="edge">
<title>Node20&#45;&gt;Node15</title>
<g id="a_edge27_Node000020_Node000015"><a xlink:title=" ">
<path fill="none" stroke="#63b8ff" d="M936.31,-187.21C904.87,-180.89 863.86,-172.64 834.78,-166.79"/>
<polygon fill="#63b8ff" stroke="#63b8ff" points="935.65,-190.65 946.15,-189.19 937.03,-183.79 935.65,-190.65"/>
</a>
</g>
</g>
</g>
</svg>
