<?xml version="1.0" encoding="UTF-8" standalone="no"?>
<!DOCTYPE svg PUBLIC "-//W3C//DTD SVG 1.1//EN"
 "http://www.w3.org/Graphics/SVG/1.1/DTD/svg11.dtd">
<!-- Generated by graphviz version 2.43.0 (0)
 -->
<!-- Title: FuncRate Pages: 1 -->
<svg width="133pt" height="837pt"
 viewBox="0.00 0.00 133.00 837.00" xmlns="http://www.w3.org/2000/svg" xmlns:xlink="http://www.w3.org/1999/xlink">
<g id="graph0" class="graph" transform="scale(1 1) rotate(0) translate(4 833)">
<title>FuncRate</title>
<!-- Node1 -->
<g id="Node000001" class="node">
<title>Node1</title>
<g id="a_Node000001"><a xlink:title=" ">
<polygon fill="#999999" stroke="transparent" points="125,-389 0,-389 0,-175 125,-175 125,-389"/>
<text text-anchor="start" x="40" y="-377" font-family="Ubuntu Mono" font-size="10.00">FuncRate</text>
<text text-anchor="start" x="4.5" y="-362" font-family="Ubuntu Mono" font-size="10.00">#</text>
<text text-anchor="start" x="17.5" y="-362" font-family="Ubuntu Mono" font-size="10.00">func_</text>
<text text-anchor="start" x="4.5" y="-347" font-family="Ubuntu Mono" font-size="10.00">#</text>
<text text-anchor="start" x="17.5" y="-347" font-family="Ubuntu Mono" font-size="10.00">funcVolPower_</text>
<text text-anchor="start" x="4.5" y="-332" font-family="Ubuntu Mono" font-size="10.00">#</text>
<text text-anchor="start" x="17.5" y="-332" font-family="Ubuntu Mono" font-size="10.00">k_</text>
<text text-anchor="start" x="4.5" y="-317" font-family="Ubuntu Mono" font-size="10.00">+</text>
<text text-anchor="start" x="17.5" y="-317" font-family="Ubuntu Mono" font-size="10.00">copyWithVolScaling()</text>
<text text-anchor="start" x="4.5" y="-302" font-family="Ubuntu Mono" font-size="10.00">+</text>
<text text-anchor="start" x="17.5" y="-302" font-family="Ubuntu Mono" font-size="10.00">FuncRate()</text>
<text text-anchor="start" x="4.5" y="-287" font-family="Ubuntu Mono" font-size="10.00">+</text>
<text text-anchor="start" x="17.5" y="-287" font-family="Ubuntu Mono" font-size="10.00">getExpr()</text>
<text text-anchor="start" x="4.5" y="-272" font-family="Ubuntu Mono" font-size="10.00">+</text>
<text text-anchor="start" x="17.5" y="-272" font-family="Ubuntu Mono" font-size="10.00">getFuncArgIndex()</text>
<text text-anchor="start" x="4.5" y="-257" font-family="Ubuntu Mono" font-size="10.00">+</text>
<text text-anchor="start" x="17.5" y="-257" font-family="Ubuntu Mono" font-size="10.00">getR1()</text>
<text text-anchor="start" x="4.5" y="-242" font-family="Ubuntu Mono" font-size="10.00">+</text>
<text text-anchor="start" x="17.5" y="-242" font-family="Ubuntu Mono" font-size="10.00">getReactants()</text>
<text text-anchor="start" x="4.5" y="-227" font-family="Ubuntu Mono" font-size="10.00">+</text>
<text text-anchor="start" x="17.5" y="-227" font-family="Ubuntu Mono" font-size="10.00">operator()()</text>
<text text-anchor="start" x="4.5" y="-212" font-family="Ubuntu Mono" font-size="10.00">+</text>
<text text-anchor="start" x="17.5" y="-212" font-family="Ubuntu Mono" font-size="10.00">setExpr()</text>
<text text-anchor="start" x="4.5" y="-197" font-family="Ubuntu Mono" font-size="10.00">+</text>
<text text-anchor="start" x="17.5" y="-197" font-family="Ubuntu Mono" font-size="10.00">setFuncArgIndex()</text>
<text text-anchor="start" x="4.5" y="-182" font-family="Ubuntu Mono" font-size="10.00">+</text>
<text text-anchor="start" x="17.5" y="-182" font-family="Ubuntu Mono" font-size="10.00">setReactants()</text>
<polygon fill="#666666" stroke="#666666" points="0.5,-372 0.5,-372 125.5,-372 125.5,-372 0.5,-372"/>
<polygon fill="#666666" stroke="#666666" points="0.5,-327 0.5,-327 15.5,-327 15.5,-327 0.5,-327"/>
<polygon fill="#666666" stroke="#666666" points="15.5,-327 15.5,-327 125.5,-327 125.5,-327 15.5,-327"/>
<polygon fill="none" stroke="#666666" points="0,-175 0,-389 125,-389 125,-175 0,-175"/>
</a>
</g>
</g>
<!-- Node4 -->
<g id="Node000004" class="node">
<title>Node4</title>
<g id="a_Node000004"><a xlink:href="classFuncReac.html" target="_top" xlink:title=" ">
<polygon fill="white" stroke="transparent" points="125,-139 0,-139 0,0 125,0 125,-139"/>
<text text-anchor="start" x="39.5" y="-126.5" font-family="Ubuntu Mono" font-size="10.00">FuncReac</text>
<text text-anchor="start" x="7" y="-111.5" font-family="Ubuntu Mono" font-size="10.00">&#45;</text>
<text text-anchor="start" x="17.5" y="-111.5" font-family="Ubuntu Mono" font-size="10.00">numSubstrates_</text>
<text text-anchor="start" x="7" y="-96.5" font-family="Ubuntu Mono" font-size="10.00">&#45;</text>
<text text-anchor="start" x="17.5" y="-96.5" font-family="Ubuntu Mono" font-size="10.00">v_</text>
<text text-anchor="start" x="4.5" y="-81.5" font-family="Ubuntu Mono" font-size="10.00">+</text>
<text text-anchor="start" x="17.5" y="-81.5" font-family="Ubuntu Mono" font-size="10.00">copyWithVolScaling()</text>
<text text-anchor="start" x="4.5" y="-66.5" font-family="Ubuntu Mono" font-size="10.00">+</text>
<text text-anchor="start" x="17.5" y="-66.5" font-family="Ubuntu Mono" font-size="10.00">FuncReac()</text>
<text text-anchor="start" x="4.5" y="-51.5" font-family="Ubuntu Mono" font-size="10.00">+</text>
<text text-anchor="start" x="17.5" y="-51.5" font-family="Ubuntu Mono" font-size="10.00">getReactants()</text>
<text text-anchor="start" x="4.5" y="-36.5" font-family="Ubuntu Mono" font-size="10.00">+</text>
<text text-anchor="start" x="17.5" y="-36.5" font-family="Ubuntu Mono" font-size="10.00">operator()()</text>
<text text-anchor="start" x="4.5" y="-21.5" font-family="Ubuntu Mono" font-size="10.00">+</text>
<text text-anchor="start" x="17.5" y="-21.5" font-family="Ubuntu Mono" font-size="10.00">rescaleVolume()</text>
<text text-anchor="start" x="4.5" y="-6.5" font-family="Ubuntu Mono" font-size="10.00">+</text>
<text text-anchor="start" x="17.5" y="-6.5" font-family="Ubuntu Mono" font-size="10.00">setReactants()</text>
<polygon fill="#666666" stroke="#666666" points="0.5,-121.5 0.5,-121.5 125.5,-121.5 125.5,-121.5 0.5,-121.5"/>
<polygon fill="#666666" stroke="#666666" points="0.5,-91.5 0.5,-91.5 15.5,-91.5 15.5,-91.5 0.5,-91.5"/>
<polygon fill="#666666" stroke="#666666" points="15.5,-91.5 15.5,-91.5 125.5,-91.5 125.5,-91.5 15.5,-91.5"/>
<polygon fill="none" stroke="#666666" points="0,0 0,-139 125,-139 125,0 0,0"/>
</a>
</g>
</g>
<!-- Node1&#45;&gt;Node4 -->
<g id="edge3_Node000001_Node000004" class="edge">
<title>Node1&#45;&gt;Node4</title>
<g id="a_edge3_Node000001_Node000004"><a xlink:title=" ">
<path fill="none" stroke="#63b8ff" d="M62.5,-164.58C62.5,-155.89 62.5,-147.3 62.5,-139.05"/>
<polygon fill="none" stroke="#63b8ff" points="59,-164.82 62.5,-174.82 66,-164.82 59,-164.82"/>
</a>
</g>
</g>
<!-- Node2 -->
<g id="Node000002" class="node">
<title>Node2</title>
<g id="a_Node000002"><a xlink:href="classExternReac.html" target="_top" xlink:title=" ">
<polygon fill="white" stroke="transparent" points="125,-594 0,-594 0,-425 125,-425 125,-594"/>
<text text-anchor="start" x="35" y="-581.5" font-family="Ubuntu Mono" font-size="10.00">ExternReac</text>
<text text-anchor="start" x="61" y="-566.5" font-family="Ubuntu Mono" font-size="10.00"> </text>
<text text-anchor="start" x="4.5" y="-551.5" font-family="Ubuntu Mono" font-size="10.00">+</text>
<text text-anchor="start" x="17.5" y="-551.5" font-family="Ubuntu Mono" font-size="10.00">copyWithVolScaling()</text>
<text text-anchor="start" x="4.5" y="-536.5" font-family="Ubuntu Mono" font-size="10.00">+</text>
<text text-anchor="start" x="17.5" y="-536.5" font-family="Ubuntu Mono" font-size="10.00">getR1()</text>
<text text-anchor="start" x="4.5" y="-521.5" font-family="Ubuntu Mono" font-size="10.00">+</text>
<text text-anchor="start" x="17.5" y="-521.5" font-family="Ubuntu Mono" font-size="10.00">getR2()</text>
<text text-anchor="start" x="4.5" y="-506.5" font-family="Ubuntu Mono" font-size="10.00">+</text>
<text text-anchor="start" x="17.5" y="-506.5" font-family="Ubuntu Mono" font-size="10.00">getReactants()</text>
<text text-anchor="start" x="4.5" y="-491.5" font-family="Ubuntu Mono" font-size="10.00">+</text>
<text text-anchor="start" x="17.5" y="-491.5" font-family="Ubuntu Mono" font-size="10.00">operator()()</text>
<text text-anchor="start" x="4.5" y="-476.5" font-family="Ubuntu Mono" font-size="10.00">+</text>
<text text-anchor="start" x="17.5" y="-476.5" font-family="Ubuntu Mono" font-size="10.00">rescaleVolume()</text>
<text text-anchor="start" x="4.5" y="-461.5" font-family="Ubuntu Mono" font-size="10.00">+</text>
<text text-anchor="start" x="17.5" y="-461.5" font-family="Ubuntu Mono" font-size="10.00">setR1()</text>
<text text-anchor="start" x="4.5" y="-446.5" font-family="Ubuntu Mono" font-size="10.00">+</text>
<text text-anchor="start" x="17.5" y="-446.5" font-family="Ubuntu Mono" font-size="10.00">setR2()</text>
<text text-anchor="start" x="4.5" y="-431.5" font-family="Ubuntu Mono" font-size="10.00">+</text>
<text text-anchor="start" x="17.5" y="-431.5" font-family="Ubuntu Mono" font-size="10.00">setRates()</text>
<polygon fill="#666666" stroke="#666666" points="0.5,-576.5 0.5,-576.5 125.5,-576.5 125.5,-576.5 0.5,-576.5"/>
<polygon fill="#666666" stroke="#666666" points="0.5,-561.5 0.5,-561.5 125.5,-561.5 125.5,-561.5 0.5,-561.5"/>
<polygon fill="none" stroke="#666666" points="0,-425 0,-594 125,-594 125,-425 0,-425"/>
</a>
</g>
</g>
<!-- Node2&#45;&gt;Node1 -->
<g id="edge1_Node000001_Node000002" class="edge">
<title>Node2&#45;&gt;Node1</title>
<g id="a_edge1_Node000001_Node000002"><a xlink:title=" ">
<path fill="none" stroke="#63b8ff" d="M62.5,-414.65C62.5,-406.21 62.5,-397.62 62.5,-389.09"/>
<polygon fill="none" stroke="#63b8ff" points="59,-414.85 62.5,-424.85 66,-414.85 59,-414.85"/>
</a>
</g>
</g>
<!-- Node3 -->
<g id="Node000003" class="node">
<title>Node3</title>
<g id="a_Node000003"><a xlink:href="classRateTerm.html" target="_top" xlink:title=" ">
<polygon fill="white" stroke="transparent" points="125,-829 0,-829 0,-630 125,-630 125,-829"/>
<text text-anchor="start" x="39.5" y="-816.5" font-family="Ubuntu Mono" font-size="10.00">RateTerm</text>
<text text-anchor="start" x="4.5" y="-801.5" font-family="Ubuntu Mono" font-size="10.00">+</text>
<text text-anchor="start" x="17.5" y="-801.5" font-family="Ubuntu Mono" font-size="10.00">EPSILON</text>
<text text-anchor="start" x="4.5" y="-786.5" font-family="Ubuntu Mono" font-size="10.00">+</text>
<text text-anchor="start" x="17.5" y="-786.5" font-family="Ubuntu Mono" font-size="10.00">copyWithVolScaling()</text>
<text text-anchor="start" x="4.5" y="-771.5" font-family="Ubuntu Mono" font-size="10.00">+</text>
<text text-anchor="start" x="17.5" y="-771.5" font-family="Ubuntu Mono" font-size="10.00">getR1()</text>
<text text-anchor="start" x="4.5" y="-756.5" font-family="Ubuntu Mono" font-size="10.00">+</text>
<text text-anchor="start" x="17.5" y="-756.5" font-family="Ubuntu Mono" font-size="10.00">getR2()</text>
<text text-anchor="start" x="4.5" y="-741.5" font-family="Ubuntu Mono" font-size="10.00">+</text>
<text text-anchor="start" x="17.5" y="-741.5" font-family="Ubuntu Mono" font-size="10.00">getReactants()</text>
<text text-anchor="start" x="4.5" y="-726.5" font-family="Ubuntu Mono" font-size="10.00">+</text>
<text text-anchor="start" x="17.5" y="-726.5" font-family="Ubuntu Mono" font-size="10.00">operator()()</text>
<text text-anchor="start" x="4.5" y="-711.5" font-family="Ubuntu Mono" font-size="10.00">+</text>
<text text-anchor="start" x="17.5" y="-711.5" font-family="Ubuntu Mono" font-size="10.00">RateTerm()</text>
<text text-anchor="start" x="4.5" y="-696.5" font-family="Ubuntu Mono" font-size="10.00">+</text>
<text text-anchor="start" x="17.5" y="-696.5" font-family="Ubuntu Mono" font-size="10.00">rescaleVolume()</text>
<text text-anchor="start" x="4.5" y="-681.5" font-family="Ubuntu Mono" font-size="10.00">+</text>
<text text-anchor="start" x="17.5" y="-681.5" font-family="Ubuntu Mono" font-size="10.00">setR1()</text>
<text text-anchor="start" x="4.5" y="-666.5" font-family="Ubuntu Mono" font-size="10.00">+</text>
<text text-anchor="start" x="17.5" y="-666.5" font-family="Ubuntu Mono" font-size="10.00">setR2()</text>
<text text-anchor="start" x="4.5" y="-651.5" font-family="Ubuntu Mono" font-size="10.00">+</text>
<text text-anchor="start" x="17.5" y="-651.5" font-family="Ubuntu Mono" font-size="10.00">setRates()</text>
<text text-anchor="start" x="4.5" y="-636.5" font-family="Ubuntu Mono" font-size="10.00">+</text>
<text text-anchor="start" x="17.5" y="-636.5" font-family="Ubuntu Mono" font-size="10.00">~RateTerm()</text>
<polygon fill="#666666" stroke="#666666" points="0.5,-811.5 0.5,-811.5 125.5,-811.5 125.5,-811.5 0.5,-811.5"/>
<polygon fill="#666666" stroke="#666666" points="0.5,-796.5 0.5,-796.5 15.5,-796.5 15.5,-796.5 0.5,-796.5"/>
<polygon fill="#666666" stroke="#666666" points="15.5,-796.5 15.5,-796.5 125.5,-796.5 125.5,-796.5 15.5,-796.5"/>
<polygon fill="none" stroke="#666666" points="0,-630 0,-829 125,-829 125,-630 0,-630"/>
</a>
</g>
</g>
<!-- Node3&#45;&gt;Node2 -->
<g id="edge2_Node000002_Node000003" class="edge">
<title>Node3&#45;&gt;Node2</title>
<g id="a_edge2_Node000002_Node000003"><a xlink:title=" ">
<path fill="none" stroke="#63b8ff" d="M62.5,-619.7C62.5,-611.16 62.5,-602.63 62.5,-594.3"/>
<polygon fill="none" stroke="#63b8ff" points="59,-619.71 62.5,-629.71 66,-619.71 59,-619.71"/>
</a>
</g>
</g>
</g>
</svg>
