<?xml version="1.0" encoding="UTF-8" standalone="no"?>
<!DOCTYPE svg PUBLIC "-//W3C//DTD SVG 1.1//EN"
 "http://www.w3.org/Graphics/SVG/1.1/DTD/svg11.dtd">
<!-- Generated by graphviz version 2.43.0 (0)
 -->
<!-- Title: Streamer::cleanUp Pages: 1 -->
<svg width="1015pt" height="194pt"
 viewBox="0.00 0.00 1015.00 194.00" xmlns="http://www.w3.org/2000/svg" xmlns:xlink="http://www.w3.org/1999/xlink">
<g id="graph0" class="graph" transform="scale(1 1) rotate(0) translate(4 190)">
<title>Streamer::cleanUp</title>
<!-- Node1 -->
<g id="Node000001" class="node">
<title>Node1</title>
<g id="a_Node000001"><a xlink:title="This function is called from Shell when simulation is called to write the left&#45;over data to streamer ...">
<polygon fill="#999999" stroke="#666666" points="107,-93 0,-93 0,-74 107,-74 107,-93"/>
<text text-anchor="middle" x="53.5" y="-81" font-family="Ubuntu Mono" font-size="10.00">Streamer::cleanUp</text>
</a>
</g>
</g>
<!-- Node2 -->
<g id="Node000002" class="node">
<title>Node2</title>
<g id="a_Node000002"><a xlink:href="classStreamerBase.html#abf7df5b1b422e67f40f0c2b4c33d946a" target="_top" xlink:title="Write to a output file in given format.">
<polygon fill="white" stroke="#666666" points="304,-130 143,-130 143,-111 304,-111 304,-130"/>
<text text-anchor="middle" x="223.5" y="-118" font-family="Ubuntu Mono" font-size="10.00">StreamerBase::writeToOutFile</text>
</a>
</g>
</g>
<!-- Node1&#45;&gt;Node2 -->
<g id="edge1_Node000001_Node000002" class="edge">
<title>Node1&#45;&gt;Node2</title>
<g id="a_edge1_Node000001_Node000002"><a xlink:title=" ">
<path fill="none" stroke="#63b8ff" d="M97.76,-93.03C119.53,-97.82 146.11,-103.68 169.13,-108.75"/>
<polygon fill="#63b8ff" stroke="#63b8ff" points="168.57,-112.21 179.09,-110.94 170.08,-105.37 168.57,-112.21"/>
</a>
</g>
</g>
<!-- Node16 -->
<g id="Node000016" class="node">
<title>Node16</title>
<g id="a_Node000016"><a xlink:href="classStreamer.html#aaa83549da537721524b419d75f021155" target="_top" xlink:title="This function prepares data to be written to a file.">
<polygon fill="white" stroke="#666666" points="288,-75 159,-75 159,-56 288,-56 288,-75"/>
<text text-anchor="middle" x="223.5" y="-63" font-family="Ubuntu Mono" font-size="10.00">Streamer::zipWithTime</text>
</a>
</g>
</g>
<!-- Node1&#45;&gt;Node16 -->
<g id="edge16_Node000001_Node000016" class="edge">
<title>Node1&#45;&gt;Node16</title>
<g id="a_edge16_Node000001_Node000016"><a xlink:title=" ">
<path fill="none" stroke="#63b8ff" d="M107.2,-77.85C120.36,-76.44 134.72,-74.91 148.7,-73.41"/>
<polygon fill="#63b8ff" stroke="#63b8ff" points="149.22,-76.87 158.79,-72.33 148.47,-69.91 149.22,-76.87"/>
</a>
</g>
</g>
<!-- Node3 -->
<g id="Node000003" class="node">
<title>Node3</title>
<g id="a_Node000003"><a xlink:href="classStreamerBase.html#a96e077e9a458acb84d9fbec6fc88fdda" target="_top" xlink:title="Write data to csv file. See the documentation of writeToOutfile for details.">
<polygon fill="white" stroke="#666666" points="504,-167 340,-167 340,-148 504,-148 504,-167"/>
<text text-anchor="middle" x="422" y="-155" font-family="Ubuntu Mono" font-size="10.00">StreamerBase::writeToCSVFile</text>
</a>
</g>
</g>
<!-- Node2&#45;&gt;Node3 -->
<g id="edge2_Node000002_Node000003" class="edge">
<title>Node2&#45;&gt;Node3</title>
<g id="a_edge2_Node000002_Node000003"><a xlink:title=" ">
<path fill="none" stroke="#63b8ff" d="M275.1,-130.03C301.13,-134.93 333.05,-140.94 360.38,-146.09"/>
<polygon fill="#63b8ff" stroke="#63b8ff" points="359.75,-149.53 370.23,-147.94 361.05,-142.65 359.75,-149.53"/>
</a>
</g>
</g>
<!-- Node5 -->
<g id="Node000005" class="node">
<title>Node5</title>
<g id="a_Node000005"><a xlink:href="classStreamerBase.html#a67d4903235cdfb7624b6ff15b8edd8e4" target="_top" xlink:title="Write to NPY format. See the documentation of writeToOutfile for more details.">
<polygon fill="white" stroke="#666666" points="504,-130 340,-130 340,-111 504,-111 504,-130"/>
<text text-anchor="middle" x="422" y="-118" font-family="Ubuntu Mono" font-size="10.00">StreamerBase::writeToNPYFile</text>
</a>
</g>
</g>
<!-- Node2&#45;&gt;Node5 -->
<g id="edge4_Node000002_Node000005" class="edge">
<title>Node2&#45;&gt;Node5</title>
<g id="a_edge4_Node000002_Node000005"><a xlink:title=" ">
<path fill="none" stroke="#63b8ff" d="M304.14,-120.5C312.63,-120.5 321.31,-120.5 329.91,-120.5"/>
<polygon fill="#63b8ff" stroke="#63b8ff" points="329.97,-124 339.97,-120.5 329.97,-117 329.97,-124"/>
</a>
</g>
</g>
<!-- Node4 -->
<g id="Node000004" class="node">
<title>Node4</title>
<g id="a_Node000004"><a xlink:href="namespacemoose.html#a34bb86d97bed6458eb2a215e1c55270a" target="_top" xlink:title="Convert a given value to string.">
<polygon fill="white" stroke="#666666" points="648.5,-167 554.5,-167 554.5,-148 648.5,-148 648.5,-167"/>
<text text-anchor="middle" x="601.5" y="-155" font-family="Ubuntu Mono" font-size="10.00">moose::toString</text>
</a>
</g>
</g>
<!-- Node3&#45;&gt;Node4 -->
<g id="edge3_Node000003_Node000004" class="edge">
<title>Node3&#45;&gt;Node4</title>
<g id="a_edge3_Node000003_Node000004"><a xlink:title=" ">
<path fill="none" stroke="#63b8ff" d="M504.22,-157.5C517.63,-157.5 531.26,-157.5 543.9,-157.5"/>
<polygon fill="#63b8ff" stroke="#63b8ff" points="544.25,-161 554.25,-157.5 544.25,-154 544.25,-161"/>
</a>
</g>
</g>
<!-- Node6 -->
<g id="Node000006" class="node">
<title>Node6</title>
<g id="a_Node000006"><a xlink:href="namespacecnpy2.html#aac32c7fd663a3f968fc5b91160562675" target="_top" xlink:title=" ">
<polygon fill="white" stroke="#666666" points="663,-130 540,-130 540,-111 663,-111 663,-130"/>
<text text-anchor="middle" x="601.5" y="-118" font-family="Ubuntu Mono" font-size="10.00">cnpy2::appendNumpy</text>
</a>
</g>
</g>
<!-- Node5&#45;&gt;Node6 -->
<g id="edge5_Node000005_Node000006" class="edge">
<title>Node5&#45;&gt;Node6</title>
<g id="a_edge5_Node000005_Node000006"><a xlink:title=" ">
<path fill="none" stroke="#63b8ff" d="M504.22,-120.5C512.72,-120.5 521.31,-120.5 529.69,-120.5"/>
<polygon fill="#63b8ff" stroke="#63b8ff" points="529.77,-124 539.77,-120.5 529.77,-117 529.77,-124"/>
</a>
</g>
</g>
<!-- Node12 -->
<g id="Node000012" class="node">
<title>Node12</title>
<g id="a_Node000012"><a xlink:href="namespacecnpy2.html#a96817135fed81483ebd20e3e6696b514" target="_top" xlink:title=" ">
<polygon fill="white" stroke="#666666" points="657.5,-93 545.5,-93 545.5,-74 657.5,-74 657.5,-93"/>
<text text-anchor="middle" x="601.5" y="-81" font-family="Ubuntu Mono" font-size="10.00">cnpy2::writeNumpy</text>
</a>
</g>
</g>
<!-- Node5&#45;&gt;Node12 -->
<g id="edge11_Node000005_Node000012" class="edge">
<title>Node5&#45;&gt;Node12</title>
<g id="a_edge11_Node000005_Node000012"><a xlink:title=" ">
<path fill="none" stroke="#63b8ff" d="M468.71,-110.97C491.91,-106.14 520.29,-100.22 544.77,-95.12"/>
<polygon fill="#63b8ff" stroke="#63b8ff" points="545.56,-98.53 554.64,-93.06 544.13,-91.67 545.56,-98.53"/>
</a>
</g>
</g>
<!-- Node7 -->
<g id="Node000007" class="node">
<title>Node7</title>
<g id="a_Node000007"><a xlink:href="namespacecnpy2.html#a5286412a1368ae7bc74df4193a206331" target="_top" xlink:title="Change shape in numpy header.">
<polygon fill="white" stroke="#666666" points="851,-149 699,-149 699,-130 851,-130 851,-149"/>
<text text-anchor="middle" x="775" y="-137" font-family="Ubuntu Mono" font-size="10.00">cnpy2::changeHeaderShape</text>
</a>
</g>
</g>
<!-- Node6&#45;&gt;Node7 -->
<g id="edge6_Node000006_Node000007" class="edge">
<title>Node6&#45;&gt;Node7</title>
<g id="a_edge6_Node000006_Node000007"><a xlink:title=" ">
<path fill="none" stroke="#63b8ff" d="M663.45,-127.25C671.68,-128.16 680.25,-129.11 688.81,-130.06"/>
<polygon fill="#63b8ff" stroke="#63b8ff" points="688.51,-133.55 698.84,-131.17 689.28,-126.59 688.51,-133.55"/>
</a>
</g>
</g>
<!-- Node10 -->
<g id="Node000010" class="node">
<title>Node10</title>
<g id="a_Node000010"><a xlink:href="namespacemoose.html#aaa8177709dd15cbdaa6534a6a2aeb7eb" target="_top" xlink:title=" ">
<polygon fill="white" stroke="#666666" points="828,-112 722,-112 722,-93 828,-93 828,-112"/>
<text text-anchor="middle" x="775" y="-100" font-family="Ubuntu Mono" font-size="10.00">moose::showWarn</text>
</a>
</g>
</g>
<!-- Node6&#45;&gt;Node10 -->
<g id="edge9_Node000006_Node000010" class="edge">
<title>Node6&#45;&gt;Node10</title>
<g id="a_edge9_Node000006_Node000010"><a xlink:title=" ">
<path fill="none" stroke="#63b8ff" d="M663.45,-114.1C679.08,-112.46 695.93,-110.69 711.63,-109.05"/>
<polygon fill="#63b8ff" stroke="#63b8ff" points="712.19,-112.51 721.77,-107.98 711.46,-105.54 712.19,-112.51"/>
</a>
</g>
</g>
<!-- Node8 -->
<g id="Node000008" class="node">
<title>Node8</title>
<g id="a_Node000008"><a xlink:href="namespacecnpy2.html#a9ba4966983f75857a9914d4ed0faa330" target="_top" xlink:title="Parser header from a numpy file. Store it in vector.">
<polygon fill="white" stroke="#666666" points="999.5,-186 894.5,-186 894.5,-167 999.5,-167 999.5,-186"/>
<text text-anchor="middle" x="947" y="-174" font-family="Ubuntu Mono" font-size="10.00">cnpy2::findHeader</text>
</a>
</g>
</g>
<!-- Node7&#45;&gt;Node8 -->
<g id="edge7_Node000007_Node000008" class="edge">
<title>Node7&#45;&gt;Node8</title>
<g id="a_edge7_Node000007_Node000008"><a xlink:title=" ">
<path fill="none" stroke="#63b8ff" d="M819.78,-149.03C841.8,-153.82 868.7,-159.68 892,-164.75"/>
<polygon fill="#63b8ff" stroke="#63b8ff" points="891.56,-168.23 902.07,-166.94 893.05,-161.39 891.56,-168.23"/>
</a>
</g>
</g>
<!-- Node9 -->
<g id="Node000009" class="node">
<title>Node9</title>
<g id="a_Node000009"><a xlink:href="namespacecnpy2.html#a3df316e69c0fbbc0b09020dc2a47b441" target="_top" xlink:title=" ">
<polygon fill="white" stroke="#666666" points="983.5,-149 910.5,-149 910.5,-130 983.5,-130 983.5,-149"/>
<text text-anchor="middle" x="947" y="-137" font-family="Ubuntu Mono" font-size="10.00">cnpy2::split</text>
</a>
</g>
</g>
<!-- Node7&#45;&gt;Node9 -->
<g id="edge8_Node000007_Node000009" class="edge">
<title>Node7&#45;&gt;Node9</title>
<g id="a_edge8_Node000007_Node000009"><a xlink:title=" ">
<path fill="none" stroke="#63b8ff" d="M851.06,-139.5C867.83,-139.5 885.12,-139.5 900.27,-139.5"/>
<polygon fill="#63b8ff" stroke="#63b8ff" points="900.39,-143 910.39,-139.5 900.39,-136 900.39,-143"/>
</a>
</g>
</g>
<!-- Node11 -->
<g id="Node000011" class="node">
<title>Node11</title>
<g id="a_Node000011"><a xlink:href="namespacemoose.html#a294009be1efe8d8936f855e12caae79a" target="_top" xlink:title=" ">
<polygon fill="white" stroke="#666666" points="999,-112 895,-112 895,-93 999,-93 999,-112"/>
<text text-anchor="middle" x="947" y="-100" font-family="Ubuntu Mono" font-size="10.00">moose::__dump__</text>
</a>
</g>
</g>
<!-- Node10&#45;&gt;Node11 -->
<g id="edge10_Node000010_Node000011" class="edge">
<title>Node10&#45;&gt;Node11</title>
<g id="a_edge10_Node000010_Node000011"><a xlink:title=" ">
<path fill="none" stroke="#63b8ff" d="M828.39,-102.5C846.26,-102.5 866.38,-102.5 884.87,-102.5"/>
<polygon fill="#63b8ff" stroke="#63b8ff" points="884.95,-106 894.95,-102.5 884.95,-99 884.95,-106"/>
</a>
</g>
</g>
<!-- Node12&#45;&gt;Node10 -->
<g id="edge12_Node000012_Node000010" class="edge">
<title>Node12&#45;&gt;Node10</title>
<g id="a_edge12_Node000012_Node000010"><a xlink:title=" ">
<path fill="none" stroke="#63b8ff" d="M657.71,-89.62C674.9,-91.52 693.97,-93.63 711.61,-95.59"/>
<polygon fill="#63b8ff" stroke="#63b8ff" points="711.49,-99.1 721.81,-96.72 712.26,-92.14 711.49,-99.1"/>
</a>
</g>
</g>
<!-- Node13 -->
<g id="Node000013" class="node">
<title>Node13</title>
<g id="a_Node000013"><a xlink:href="namespacecnpy2.html#a7a1986336cb2c545270663a80c1ee682" target="_top" xlink:title=" ">
<polygon fill="white" stroke="#666666" points="831,-75 719,-75 719,-56 831,-56 831,-75"/>
<text text-anchor="middle" x="775" y="-63" font-family="Ubuntu Mono" font-size="10.00">cnpy2::writeHeader</text>
</a>
</g>
</g>
<!-- Node12&#45;&gt;Node13 -->
<g id="edge13_Node000012_Node000013" class="edge">
<title>Node12&#45;&gt;Node13</title>
<g id="a_edge13_Node000012_Node000013"><a xlink:title=" ">
<path fill="none" stroke="#63b8ff" d="M657.71,-77.71C673.93,-76 691.82,-74.13 708.61,-72.36"/>
<polygon fill="#63b8ff" stroke="#63b8ff" points="709.32,-75.81 718.9,-71.28 708.59,-68.85 709.32,-75.81"/>
</a>
</g>
</g>
<!-- Node14 -->
<g id="Node000014" class="node">
<title>Node14</title>
<g id="a_Node000014"><a xlink:href="namespacecnpy2.html#a4a02a1f1960c7ce923785e2ba78adc2e" target="_top" xlink:title=" ">
<polygon fill="white" stroke="#666666" points="1007,-75 887,-75 887,-56 1007,-56 1007,-75"/>
<text text-anchor="middle" x="947" y="-63" font-family="Ubuntu Mono" font-size="10.00">cnpy2::BigEndianTest</text>
</a>
</g>
</g>
<!-- Node13&#45;&gt;Node14 -->
<g id="edge14_Node000013_Node000014" class="edge">
<title>Node13&#45;&gt;Node14</title>
<g id="a_edge14_Node000013_Node000014"><a xlink:title=" ">
<path fill="none" stroke="#63b8ff" d="M831.19,-65.5C845.69,-65.5 861.51,-65.5 876.64,-65.5"/>
<polygon fill="#63b8ff" stroke="#63b8ff" points="876.98,-69 886.98,-65.5 876.98,-62 876.98,-69"/>
</a>
</g>
</g>
<!-- Node15 -->
<g id="Node000015" class="node">
<title>Node15</title>
<g id="a_Node000015"><a xlink:href="namespacecnpy2.html#a643bbacbd8e11b87ba0251434b5805bf" target="_top" xlink:title=" ">
<polygon fill="white" stroke="#666666" points="1007,-38 887,-38 887,-19 1007,-19 1007,-38"/>
<text text-anchor="middle" x="947" y="-26" font-family="Ubuntu Mono" font-size="10.00">cnpy2::shapeToString</text>
</a>
</g>
</g>
<!-- Node13&#45;&gt;Node15 -->
<g id="edge15_Node000013_Node000015" class="edge">
<title>Node13&#45;&gt;Node15</title>
<g id="a_edge15_Node000013_Node000015"><a xlink:title=" ">
<path fill="none" stroke="#63b8ff" d="M819.78,-55.97C841.8,-51.18 868.7,-45.32 892,-40.25"/>
<polygon fill="#63b8ff" stroke="#63b8ff" points="893.05,-43.61 902.07,-38.06 891.56,-36.77 893.05,-43.61"/>
</a>
</g>
</g>
<!-- Node17 -->
<g id="Node000017" class="node">
<title>Node17</title>
<g id="a_Node000017"><a xlink:href="classTableBase.html#aa09e17d475b3eda3d9c568baaa93ec27" target="_top" xlink:title=" ">
<polygon fill="white" stroke="#666666" points="478.5,-93 365.5,-93 365.5,-74 478.5,-74 478.5,-93"/>
<text text-anchor="middle" x="422" y="-81" font-family="Ubuntu Mono" font-size="10.00">TableBase::clearVec</text>
</a>
</g>
</g>
<!-- Node16&#45;&gt;Node17 -->
<g id="edge17_Node000016_Node000017" class="edge">
<title>Node16&#45;&gt;Node17</title>
<g id="a_edge17_Node000016_Node000017"><a xlink:title=" ">
<path fill="none" stroke="#63b8ff" d="M288.03,-71.32C309.52,-73.29 333.55,-75.49 355.21,-77.47"/>
<polygon fill="#63b8ff" stroke="#63b8ff" points="355.03,-80.97 365.3,-78.4 355.66,-74 355.03,-80.97"/>
</a>
</g>
</g>
<!-- Node18 -->
<g id="Node000018" class="node">
<title>Node18</title>
<g id="a_Node000018"><a xlink:href="classTableBase.html#aa94d6dc4f65f9b3fbd0f1a26fd452818" target="_top" xlink:title=" ">
<polygon fill="white" stroke="#666666" points="484.5,-56 359.5,-56 359.5,-37 484.5,-37 484.5,-56"/>
<text text-anchor="middle" x="422" y="-44" font-family="Ubuntu Mono" font-size="10.00">TableBase::getVecSize</text>
</a>
</g>
</g>
<!-- Node16&#45;&gt;Node18 -->
<g id="edge18_Node000016_Node000018" class="edge">
<title>Node16&#45;&gt;Node18</title>
<g id="a_edge18_Node000016_Node000018"><a xlink:title=" ">
<path fill="none" stroke="#63b8ff" d="M288.03,-59.36C307.59,-57.47 329.27,-55.37 349.35,-53.43"/>
<polygon fill="#63b8ff" stroke="#63b8ff" points="349.75,-56.91 359.37,-52.46 349.08,-49.94 349.75,-56.91"/>
</a>
</g>
</g>
<!-- Node19 -->
<g id="Node000019" class="node">
<title>Node19</title>
<g id="a_Node000019"><a xlink:href="classTableBase.html#a4a8500587031239b10394d038171248a" target="_top" xlink:title=" ">
<polygon fill="white" stroke="#666666" points="481.5,-19 362.5,-19 362.5,0 481.5,0 481.5,-19"/>
<text text-anchor="middle" x="422" y="-7" font-family="Ubuntu Mono" font-size="10.00">TableBase::getVector</text>
</a>
</g>
</g>
<!-- Node16&#45;&gt;Node19 -->
<g id="edge19_Node000016_Node000019" class="edge">
<title>Node16&#45;&gt;Node19</title>
<g id="a_edge19_Node000016_Node000019"><a xlink:title=" ">
<path fill="none" stroke="#63b8ff" d="M250.88,-55.99C274.14,-47.81 309.06,-36 340,-27.5 347.8,-25.36 356.08,-23.29 364.25,-21.36"/>
<polygon fill="#63b8ff" stroke="#63b8ff" points="365.16,-24.74 374.12,-19.09 363.59,-17.92 365.16,-24.74"/>
</a>
</g>
</g>
</g>
</svg>
