<?xml version="1.0" encoding="UTF-8" standalone="no"?>
<!DOCTYPE svg PUBLIC "-//W3C//DTD SVG 1.1//EN"
 "http://www.w3.org/Graphics/SVG/1.1/DTD/svg11.dtd">
<!-- Generated by graphviz version 2.43.0 (0)
 -->
<!-- Title: DiagonalMsg::setStride Pages: 1 -->
<svg width="723pt" height="101pt"
 viewBox="0.00 0.00 723.00 101.00" xmlns="http://www.w3.org/2000/svg" xmlns:xlink="http://www.w3.org/1999/xlink">
<g id="graph0" class="graph" transform="scale(1 1) rotate(0) translate(4 97)">
<title>DiagonalMsg::setStride</title>
<!-- Node1 -->
<g id="Node000001" class="node">
<title>Node1</title>
<g id="a_Node000001"><a xlink:title=" ">
<polygon fill="#999999" stroke="#666666" points="715,-56 585,-56 585,-37 715,-37 715,-56"/>
<text text-anchor="middle" x="650" y="-44" font-family="Ubuntu Mono" font-size="10.00">DiagonalMsg::setStride</text>
</a>
</g>
</g>
<!-- Node2 -->
<g id="Node000002" class="node">
<title>Node2</title>
<g id="a_Node000002"><a xlink:href="classDiagonalMsg.html#adea517eba59288484947a761fd798077" target="_top" xlink:title=" ">
<polygon fill="white" stroke="#666666" points="540,-93 430,-93 430,-74 540,-74 540,-93"/>
<text text-anchor="middle" x="485" y="-81" font-family="Ubuntu Mono" font-size="10.00">DiagonalMsg::copy</text>
</a>
</g>
</g>
<!-- Node1&#45;&gt;Node2 -->
<g id="edge1_Node000001_Node000002" class="edge">
<title>Node1&#45;&gt;Node2</title>
<g id="a_edge1_Node000001_Node000002"><a xlink:title=" ">
<path fill="none" stroke="#63b8ff" d="M597.07,-58.29C574.81,-63.34 549.16,-69.16 528.12,-73.94"/>
<polygon fill="#63b8ff" stroke="#63b8ff" points="598.05,-61.66 607.02,-56.03 596.5,-54.83 598.05,-61.66"/>
</a>
</g>
</g>
<!-- Node3 -->
<g id="Node000003" class="node">
<title>Node3</title>
<g id="a_Node000003"><a xlink:href="classDiagonalMsg.html#af3faaeb03ba11fdf7e0758c19b60583b" target="_top" xlink:title="Setup function for Element&#45;style access to Msg fields.">
<polygon fill="white" stroke="#666666" points="549,-56 421,-56 421,-37 549,-37 549,-56"/>
<text text-anchor="middle" x="485" y="-44" font-family="Ubuntu Mono" font-size="10.00">DiagonalMsg::initCinfo</text>
</a>
</g>
</g>
<!-- Node1&#45;&gt;Node3 -->
<g id="edge2_Node000001_Node000003" class="edge">
<title>Node1&#45;&gt;Node3</title>
<g id="a_edge2_Node000001_Node000003"><a xlink:title=" ">
<path fill="none" stroke="#63b8ff" d="M574.37,-46.5C565.94,-46.5 557.42,-46.5 549.15,-46.5"/>
<polygon fill="#63b8ff" stroke="#63b8ff" points="574.58,-50 584.58,-46.5 574.58,-43 574.58,-50"/>
</a>
</g>
</g>
<!-- Node9 -->
<g id="Node000009" class="node">
<title>Node9</title>
<g id="a_Node000009"><a xlink:href="testBuiltins_8cpp.html#a0b23c31b7503dd93064294b42d4ff085" target="_top" xlink:title=" ">
<polygon fill="white" stroke="#666666" points="525.5,-19 444.5,-19 444.5,0 525.5,0 525.5,-19"/>
<text text-anchor="middle" x="485" y="-7" font-family="Ubuntu Mono" font-size="10.00">testFibonacci</text>
</a>
</g>
</g>
<!-- Node1&#45;&gt;Node9 -->
<g id="edge8_Node000001_Node000009" class="edge">
<title>Node1&#45;&gt;Node9</title>
<g id="a_edge8_Node000001_Node000009"><a xlink:title=" ">
<path fill="none" stroke="#63b8ff" d="M597.02,-34.7C573.88,-29.45 547.07,-23.36 525.59,-18.49"/>
<polygon fill="#63b8ff" stroke="#63b8ff" points="596.5,-38.17 607.02,-36.97 598.05,-31.34 596.5,-38.17"/>
</a>
</g>
</g>
<!-- Node4 -->
<g id="Node000004" class="node">
<title>Node4</title>
<g id="a_Node000004"><a xlink:href="classMsg.html#af3de05897dc7602c64678a31c58ebece" target="_top" xlink:title=" ">
<polygon fill="white" stroke="#666666" points="385,-56 258,-56 258,-37 385,-37 385,-56"/>
<text text-anchor="middle" x="321.5" y="-44" font-family="Ubuntu Mono" font-size="10.00">Msg::initMsgManagers</text>
</a>
</g>
</g>
<!-- Node3&#45;&gt;Node4 -->
<g id="edge3_Node000003_Node000004" class="edge">
<title>Node3&#45;&gt;Node4</title>
<g id="a_edge3_Node000003_Node000004"><a xlink:title=" ">
<path fill="none" stroke="#63b8ff" d="M410.42,-46.5C401.98,-46.5 393.43,-46.5 385.15,-46.5"/>
<polygon fill="#63b8ff" stroke="#63b8ff" points="410.63,-50 420.63,-46.5 410.63,-43 410.63,-50"/>
</a>
</g>
</g>
<!-- Node5 -->
<g id="Node000005" class="node">
<title>Node5</title>
<g id="a_Node000005"><a xlink:href="main_8cpp.html#a6e304b494f9a324f952d9f2033b2b136" target="_top" xlink:title=" ">
<polygon fill="white" stroke="#666666" points="184.5,-75 152.5,-75 152.5,-56 184.5,-56 184.5,-75"/>
<text text-anchor="middle" x="168.5" y="-63" font-family="Ubuntu Mono" font-size="10.00">init</text>
</a>
</g>
</g>
<!-- Node4&#45;&gt;Node5 -->
<g id="edge4_Node000004_Node000005" class="edge">
<title>Node4&#45;&gt;Node5</title>
<g id="a_edge4_Node000004_Node000005"><a xlink:title=" ">
<path fill="none" stroke="#63b8ff" d="M247.61,-55.67C223.78,-58.67 199.6,-61.71 184.58,-63.6"/>
<polygon fill="#63b8ff" stroke="#63b8ff" points="248.29,-59.11 257.77,-54.39 247.42,-52.17 248.29,-59.11"/>
</a>
</g>
</g>
<!-- Node7 -->
<g id="Node000007" class="node">
<title>Node7</title>
<g id="a_Node000007"><a xlink:href="namespacepymoose.html#ac084ce08f68367317e7c014c61520ac9" target="_top" xlink:title="Initialize shell object.">
<polygon fill="white" stroke="#666666" points="222,-38 115,-38 115,-19 222,-19 222,-38"/>
<text text-anchor="middle" x="168.5" y="-26" font-family="Ubuntu Mono" font-size="10.00">pymoose::initShell</text>
</a>
</g>
</g>
<!-- Node4&#45;&gt;Node7 -->
<g id="edge6_Node000004_Node000007" class="edge">
<title>Node4&#45;&gt;Node7</title>
<g id="a_edge6_Node000004_Node000007"><a xlink:title=" ">
<path fill="none" stroke="#63b8ff" d="M247.72,-37.82C239.11,-36.8 230.45,-35.77 222.2,-34.78"/>
<polygon fill="#63b8ff" stroke="#63b8ff" points="247.43,-41.31 257.77,-39.02 248.26,-34.36 247.43,-41.31"/>
</a>
</g>
</g>
<!-- Node6 -->
<g id="Node000006" class="node">
<title>Node6</title>
<g id="a_Node000006"><a xlink:href="main_8cpp.html#a3c04138a5bfe5d72780bb7e82a18e627" target="_top" xlink:title=" ">
<polygon fill="white" stroke="#666666" points="60,-75 19,-75 19,-56 60,-56 60,-75"/>
<text text-anchor="middle" x="39.5" y="-63" font-family="Ubuntu Mono" font-size="10.00">main</text>
</a>
</g>
</g>
<!-- Node5&#45;&gt;Node6 -->
<g id="edge5_Node000005_Node000006" class="edge">
<title>Node5&#45;&gt;Node6</title>
<g id="a_edge5_Node000005_Node000006"><a xlink:title=" ">
<path fill="none" stroke="#63b8ff" d="M142.26,-65.5C118.11,-65.5 82.19,-65.5 60.12,-65.5"/>
<polygon fill="#63b8ff" stroke="#63b8ff" points="142.43,-69 152.43,-65.5 142.43,-62 142.43,-69"/>
</a>
</g>
</g>
<!-- Node8 -->
<g id="Node000008" class="node">
<title>Node8</title>
<g id="a_Node000008"><a xlink:href="pymoose_8cpp.html#a8650e41c2375717fa66fb61a653d866e" target="_top" xlink:title=" ">
<polygon fill="white" stroke="#666666" points="79,-38 0,-38 0,-19 79,-19 79,-38"/>
<text text-anchor="middle" x="39.5" y="-26" font-family="Ubuntu Mono" font-size="10.00">NB_MODULE</text>
</a>
</g>
</g>
<!-- Node7&#45;&gt;Node8 -->
<g id="edge7_Node000007_Node000008" class="edge">
<title>Node7&#45;&gt;Node8</title>
<g id="a_edge7_Node000007_Node000008"><a xlink:title=" ">
<path fill="none" stroke="#63b8ff" d="M104.65,-28.5C96.02,-28.5 87.37,-28.5 79.34,-28.5"/>
<polygon fill="#63b8ff" stroke="#63b8ff" points="104.74,-32 114.74,-28.5 104.74,-25 104.74,-32"/>
</a>
</g>
</g>
</g>
</svg>
