<?xml version="1.0" encoding="UTF-8" standalone="no"?>
<!DOCTYPE svg PUBLIC "-//W3C//DTD SVG 1.1//EN"
 "http://www.w3.org/Graphics/SVG/1.1/DTD/svg11.dtd">
<!-- Generated by graphviz version 2.43.0 (0)
 -->
<!-- Title: GssaVoxelPools Pages: 1 -->
<!--zoomable 652 -->

<svg id="main" version="1.1" xmlns="http://www.w3.org/2000/svg" xmlns:xlink="http://www.w3.org/1999/xlink" xml:space="preserve" onload="init(evt)">
<style type="text/css"><![CDATA[
.node, .edge {opacity: 0.7;}
.node.selected, .edge.selected {opacity: 1;}
.edge:hover path { stroke: red; }
.edge:hover polygon { stroke: red; fill: red; }
]]></style>

<defs>
  <circle id="rim" cx="0" cy="0" r="7"/>
  <circle id="rim2" cx="0" cy="0" r="3.5"/>
  <g id="zoomPlus">
    <use xlink:href="#rim" fill="#404040"><set attributeName="fill" to="#808080" begin="zoomplus.mouseover" end="zoomplus.mouseout"/></use>
    <path d="M-4,0h8M0,-4v8" fill="none" stroke="white" stroke-width="1.5" pointer-events="none"/>
  </g>
  <g id="zoomMin">
    <use xlink:href="#rim" fill="#404040"><set attributeName="fill" to="#808080" begin="zoomminus.mouseover" end="zoomminus.mouseout"/></use>
    <path d="M-4,0h8" fill="none" stroke="white" stroke-width="1.5" pointer-events="none"/>
  </g>
  <g id="arrowUp" transform="translate(30 24)">
    <use xlink:href="#rim"/>
    <path pointer-events="none" fill="none" stroke="white" stroke-width="1.5" d="M0,-3.0v7 M-2.5,-0.5L0,-3.0L2.5,-0.5"/>
  </g>
  <g id="arrowRight" transform="rotate(90) translate(36 -43)">
    <use xlink:href="#rim"/>
    <path pointer-events="none" fill="none" stroke="white" stroke-width="1.5" d="M0,-3.0v7 M-2.5,-0.5L0,-3.0L2.5,-0.5"/>
  </g>
  <g id="arrowDown" transform="rotate(180) translate(-30 -48)">
    <use xlink:href="#rim"/>
    <path pointer-events="none" fill="none" stroke="white" stroke-width="1.5" d="M0,-3.0v7 M-2.5,-0.5L0,-3.0L2.5,-0.5"/>
  </g>
  <g id="arrowLeft" transform="rotate(270) translate(-36 17)">
    <use xlink:href="#rim"/>
    <path pointer-events="none" fill="none" stroke="white" stroke-width="1.5" d="M0,-3.0v7 M-2.5,-0.5L0,-3.0L2.5,-0.5"/>
  </g>
  <g id="resetDef">
    <use xlink:href="#rim2" fill="#404040"><set attributeName="fill" to="#808080" begin="reset.mouseover" end="reset.mouseout"/></use>
  </g>
</defs>
<script type="application/ecmascript">
var viewWidth = 174;
var viewHeight = 652;
var sectionId = 'dynsection-0';
</script>
<script type="application/ecmascript" xlink:href="svg.min.js"/>
<svg id="graph" class="graph">
<g id="viewport">
<title>GssaVoxelPools</title>
<!-- Node1 -->
<g id="Node000001" class="node">
<title>Node1</title>
<g id="a_Node000001"><a xlink:title=" ">
<polygon fill="#999999" stroke="transparent" points="137,-259 29,-259 29,0 137,0 137,-259"/>
<text text-anchor="start" x="44.5" y="-246.5" font-family="Ubuntu Mono" font-size="10.00">GssaVoxelPools</text>
<text text-anchor="start" x="35.5" y="-231.5" font-family="Ubuntu Mono" font-size="10.00">&#45;</text>
<text text-anchor="start" x="46" y="-231.5" font-family="Ubuntu Mono" font-size="10.00">atot_</text>
<text text-anchor="start" x="35.5" y="-216.5" font-family="Ubuntu Mono" font-size="10.00">&#45;</text>
<text text-anchor="start" x="46" y="-216.5" font-family="Ubuntu Mono" font-size="10.00">numFire_</text>
<text text-anchor="start" x="35.5" y="-201.5" font-family="Ubuntu Mono" font-size="10.00">&#45;</text>
<text text-anchor="start" x="46" y="-201.5" font-family="Ubuntu Mono" font-size="10.00">rng_</text>
<text text-anchor="start" x="35.5" y="-186.5" font-family="Ubuntu Mono" font-size="10.00">&#45;</text>
<text text-anchor="start" x="46" y="-186.5" font-family="Ubuntu Mono" font-size="10.00">t_</text>
<text text-anchor="start" x="35.5" y="-171.5" font-family="Ubuntu Mono" font-size="10.00">&#45;</text>
<text text-anchor="start" x="46" y="-171.5" font-family="Ubuntu Mono" font-size="10.00">v_</text>
<text text-anchor="start" x="33" y="-156.5" font-family="Ubuntu Mono" font-size="10.00">+</text>
<text text-anchor="start" x="46" y="-156.5" font-family="Ubuntu Mono" font-size="10.00">advance()</text>
<text text-anchor="start" x="33" y="-141.5" font-family="Ubuntu Mono" font-size="10.00">+</text>
<text text-anchor="start" x="46" y="-141.5" font-family="Ubuntu Mono" font-size="10.00">advance()</text>
<text text-anchor="start" x="33" y="-126.5" font-family="Ubuntu Mono" font-size="10.00">+</text>
<text text-anchor="start" x="46" y="-126.5" font-family="Ubuntu Mono" font-size="10.00">getReacVelocity()</text>
<text text-anchor="start" x="33" y="-111.5" font-family="Ubuntu Mono" font-size="10.00">+</text>
<text text-anchor="start" x="46" y="-111.5" font-family="Ubuntu Mono" font-size="10.00">GssaVoxelPools()</text>
<text text-anchor="start" x="33" y="-96.5" font-family="Ubuntu Mono" font-size="10.00">+</text>
<text text-anchor="start" x="46" y="-96.5" font-family="Ubuntu Mono" font-size="10.00">numFire()</text>
<text text-anchor="start" x="33" y="-81.5" font-family="Ubuntu Mono" font-size="10.00">+</text>
<text text-anchor="start" x="46" y="-81.5" font-family="Ubuntu Mono" font-size="10.00">pickReac()</text>
<text text-anchor="start" x="33" y="-66.5" font-family="Ubuntu Mono" font-size="10.00">+</text>
<text text-anchor="start" x="46" y="-66.5" font-family="Ubuntu Mono" font-size="10.00">recalcTime()</text>
<text text-anchor="start" x="33" y="-51.5" font-family="Ubuntu Mono" font-size="10.00">+</text>
<text text-anchor="start" x="46" y="-51.5" font-family="Ubuntu Mono" font-size="10.00">refreshAtot()</text>
<text text-anchor="start" x="33" y="-36.5" font-family="Ubuntu Mono" font-size="10.00">+</text>
<text text-anchor="start" x="46" y="-36.5" font-family="Ubuntu Mono" font-size="10.00">reinit()</text>
<text text-anchor="start" x="33" y="-21.5" font-family="Ubuntu Mono" font-size="10.00">+</text>
<text text-anchor="start" x="46" y="-21.5" font-family="Ubuntu Mono" font-size="10.00">setNumReac()</text>
<text text-anchor="start" x="46" y="-6.5" font-family="Ubuntu Mono" font-size="10.00">and 9 more...</text>
<polygon fill="#666666" stroke="#666666" points="29,-241.5 29,-241.5 137,-241.5 137,-241.5 29,-241.5"/>
<polygon fill="#666666" stroke="#666666" points="29,-166.5 29,-166.5 44,-166.5 44,-166.5 29,-166.5"/>
<polygon fill="#666666" stroke="#666666" points="44,-166.5 44,-166.5 137,-166.5 137,-166.5 44,-166.5"/>
<polygon fill="none" stroke="#666666" points="29,0 29,-259 137,-259 137,0 29,0"/>
</a>
</g>
</g>
<!-- Node2 -->
<g id="Node000002" class="node">
<title>Node2</title>
<g id="a_Node000002"><a xlink:href="classVoxelPoolsBase.html" target="_top" xlink:title=" ">
<polygon fill="white" stroke="transparent" points="166,-644 0,-644 0,-295 166,-295 166,-644"/>
<text text-anchor="start" x="44.5" y="-631.5" font-family="Ubuntu Mono" font-size="10.00">VoxelPoolsBase</text>
<text text-anchor="start" x="4" y="-616.5" font-family="Ubuntu Mono" font-size="10.00">#</text>
<text text-anchor="start" x="17" y="-616.5" font-family="Ubuntu Mono" font-size="10.00">numVoxels_</text>
<text text-anchor="start" x="4" y="-601.5" font-family="Ubuntu Mono" font-size="10.00">#</text>
<text text-anchor="start" x="17" y="-601.5" font-family="Ubuntu Mono" font-size="10.00">rates_</text>
<text text-anchor="start" x="4" y="-586.5" font-family="Ubuntu Mono" font-size="10.00">#</text>
<text text-anchor="start" x="17" y="-586.5" font-family="Ubuntu Mono" font-size="10.00">stoichPtr_</text>
<text text-anchor="start" x="6.5" y="-571.5" font-family="Ubuntu Mono" font-size="10.00">&#45;</text>
<text text-anchor="start" x="17" y="-571.5" font-family="Ubuntu Mono" font-size="10.00">Cinit_</text>
<text text-anchor="start" x="6.5" y="-556.5" font-family="Ubuntu Mono" font-size="10.00">&#45;</text>
<text text-anchor="start" x="17" y="-556.5" font-family="Ubuntu Mono" font-size="10.00">proxyComptMap_</text>
<text text-anchor="start" x="6.5" y="-541.5" font-family="Ubuntu Mono" font-size="10.00">&#45;</text>
<text text-anchor="start" x="17" y="-541.5" font-family="Ubuntu Mono" font-size="10.00">proxyPoolVoxels_</text>
<text text-anchor="start" x="6.5" y="-526.5" font-family="Ubuntu Mono" font-size="10.00">&#45;</text>
<text text-anchor="start" x="17" y="-526.5" font-family="Ubuntu Mono" font-size="10.00">proxyTransferIndex_</text>
<text text-anchor="start" x="6.5" y="-511.5" font-family="Ubuntu Mono" font-size="10.00">&#45;</text>
<text text-anchor="start" x="17" y="-511.5" font-family="Ubuntu Mono" font-size="10.00">S_</text>
<text text-anchor="start" x="6.5" y="-496.5" font-family="Ubuntu Mono" font-size="10.00">&#45;</text>
<text text-anchor="start" x="17" y="-496.5" font-family="Ubuntu Mono" font-size="10.00">volume_</text>
<text text-anchor="start" x="6.5" y="-481.5" font-family="Ubuntu Mono" font-size="10.00">&#45;</text>
<text text-anchor="start" x="17" y="-481.5" font-family="Ubuntu Mono" font-size="10.00">xReacScaleProducts_</text>
<text text-anchor="start" x="6.5" y="-466.5" font-family="Ubuntu Mono" font-size="10.00">&#45;</text>
<text text-anchor="start" x="17" y="-466.5" font-family="Ubuntu Mono" font-size="10.00">xReacScaleSubstrates_</text>
<text text-anchor="start" x="4" y="-451.5" font-family="Ubuntu Mono" font-size="10.00">+</text>
<text text-anchor="start" x="17" y="-451.5" font-family="Ubuntu Mono" font-size="10.00">addProxyTransferIndex()</text>
<text text-anchor="start" x="4" y="-436.5" font-family="Ubuntu Mono" font-size="10.00">+</text>
<text text-anchor="start" x="17" y="-436.5" font-family="Ubuntu Mono" font-size="10.00">addProxyVoxy()</text>
<text text-anchor="start" x="4" y="-421.5" font-family="Ubuntu Mono" font-size="10.00">+</text>
<text text-anchor="start" x="17" y="-421.5" font-family="Ubuntu Mono" font-size="10.00">backwardReacVolumeFactor()</text>
<text text-anchor="start" x="4" y="-406.5" font-family="Ubuntu Mono" font-size="10.00">+</text>
<text text-anchor="start" x="17" y="-406.5" font-family="Ubuntu Mono" font-size="10.00">Cinit()</text>
<text text-anchor="start" x="4" y="-391.5" font-family="Ubuntu Mono" font-size="10.00">+</text>
<text text-anchor="start" x="17" y="-391.5" font-family="Ubuntu Mono" font-size="10.00">filterCrossRateTerms()</text>
<text text-anchor="start" x="4" y="-376.5" font-family="Ubuntu Mono" font-size="10.00">+</text>
<text text-anchor="start" x="17" y="-376.5" font-family="Ubuntu Mono" font-size="10.00">forwardReacVolumeFactor()</text>
<text text-anchor="start" x="4" y="-361.5" font-family="Ubuntu Mono" font-size="10.00">+</text>
<text text-anchor="start" x="17" y="-361.5" font-family="Ubuntu Mono" font-size="10.00">getConcInit()</text>
<text text-anchor="start" x="4" y="-346.5" font-family="Ubuntu Mono" font-size="10.00">+</text>
<text text-anchor="start" x="17" y="-346.5" font-family="Ubuntu Mono" font-size="10.00">getDiffConst()</text>
<text text-anchor="start" x="4" y="-331.5" font-family="Ubuntu Mono" font-size="10.00">+</text>
<text text-anchor="start" x="17" y="-331.5" font-family="Ubuntu Mono" font-size="10.00">getN()</text>
<text text-anchor="start" x="4" y="-316.5" font-family="Ubuntu Mono" font-size="10.00">+</text>
<text text-anchor="start" x="17" y="-316.5" font-family="Ubuntu Mono" font-size="10.00">getR1()</text>
<text text-anchor="start" x="17" y="-301.5" font-family="Ubuntu Mono" font-size="10.00">and 28 more...</text>
<polygon fill="#666666" stroke="#666666" points="0,-626.5 0,-626.5 166,-626.5 166,-626.5 0,-626.5"/>
<polygon fill="#666666" stroke="#666666" points="0,-461.5 0,-461.5 15,-461.5 15,-461.5 0,-461.5"/>
<polygon fill="#666666" stroke="#666666" points="15,-461.5 15,-461.5 166,-461.5 166,-461.5 15,-461.5"/>
<polygon fill="none" stroke="#666666" points="0,-295 0,-644 166,-644 166,-295 0,-295"/>
</a>
</g>
</g>
<!-- Node2&#45;&gt;Node1 -->
<g id="edge1_Node000001_Node000002" class="edge">
<title>Node2&#45;&gt;Node1</title>
<g id="a_edge1_Node000001_Node000002"><a xlink:title=" ">
<path fill="none" stroke="#63b8ff" d="M83,-284.32C83,-275.96 83,-267.64 83,-259.45"/>
<polygon fill="none" stroke="#63b8ff" points="79.5,-284.55 83,-294.55 86.5,-284.55 79.5,-284.55"/>
</a>
</g>
</g>
</g>
</svg>

<g id="navigator" transform="translate(0 0)" fill="#404254">
  <rect fill="#f2f5e9" fill-opacity="0.5" stroke="#606060" stroke-width=".5" x="0" y="0" width="60" height="60"/>
  <use id="zoomplus" xlink:href="#zoomPlus" x="17" y="9" onmousedown="handleZoom(evt,'in')"/>
  <use id="zoomminus" xlink:href="#zoomMin" x="42" y="9" onmousedown="handleZoom(evt,'out')"/>
  <use id="reset" xlink:href="#resetDef" x="30" y="36" onmousedown="handleReset()"/>
   <use id="arrowup" xlink:href="#arrowUp" x="0" y="0" onmousedown="handlePan(0,-1)"/>
  <use id="arrowright" xlink:href="#arrowRight" x="0" y="0" onmousedown="handlePan(1,0)"/>
  <use id="arrowdown" xlink:href="#arrowDown" x="0" y="0" onmousedown="handlePan(0,1)"/>
  <use id="arrowleft" xlink:href="#arrowLeft" x="0" y="0" onmousedown="handlePan(-1,0)"/>
</g>
<svg viewBox="0 0 15 15" width="100%" height="30px" preserveAspectRatio="xMaxYMin meet">
 <g id="arrow_out" transform="scale(0.3 0.3)">
  <a xlink:href="classGssaVoxelPools__inherit__graph_org.svg" target="_base">
   <rect id="button" ry="5" rx="5" y="6" x="6" height="38" width="38"
        fill="#f2f5e9" fill-opacity="0.5" stroke="#606060" stroke-width="1.0"/>
   <path id="arrow"
     d="M 11.500037,31.436501 C 11.940474,20.09759 22.043105,11.32322 32.158766,21.979434 L 37.068811,17.246167 C 37.068811,17.246167 37.088388,32 37.088388,32 L 22.160133,31.978069 C 22.160133,31.978069 26.997745,27.140456 26.997745,27.140456 C 18.528582,18.264221 13.291696,25.230495 11.500037,31.436501 z"
     style="fill:#404040;"/>
  </a>
 </g>
</svg>

<style type='text/css'>
<![CDATA[
[data-mouse-over-selected='false'] { opacity: 0.7; }
[data-mouse-over-selected='true']  { opacity: 1.0; }
]]>
</style>
<script type="application/ecmascript"><![CDATA[
document.addEventListener('DOMContentLoaded', (event) => {
  highlightEdges();
  highlightAdjacentNodes();
});
]]></script>
</svg>
