<?xml version="1.0" encoding="UTF-8" standalone="no"?>
<!DOCTYPE svg PUBLIC "-//W3C//DTD SVG 1.1//EN"
 "http://www.w3.org/Graphics/SVG/1.1/DTD/svg11.dtd">
<!-- Generated by graphviz version 2.43.0 (0)
 -->
<!-- Title: HHChannel2D::depValue Pages: 1 -->
<svg width="314pt" height="64pt"
 viewBox="0.00 0.00 314.00 64.00" xmlns="http://www.w3.org/2000/svg" xmlns:xlink="http://www.w3.org/1999/xlink">
<g id="graph0" class="graph" transform="scale(1 1) rotate(0) translate(4 60)">
<title>HHChannel2D::depValue</title>
<!-- Node1 -->
<g id="Node000001" class="node">
<title>Node1</title>
<g id="a_Node000001"><a xlink:title=" ">
<polygon fill="#999999" stroke="#666666" points="306,-37 170,-37 170,-18 306,-18 306,-37"/>
<text text-anchor="middle" x="238" y="-25" font-family="Ubuntu Mono" font-size="10.00">HHChannel2D::depValue</text>
</a>
</g>
</g>
<!-- Node2 -->
<g id="Node000002" class="node">
<title>Node2</title>
<g id="a_Node000002"><a xlink:href="classHHChannel2D.html#a64e960ca945790fe2bcf5dc4eee15da7" target="_top" xlink:title=" ">
<polygon fill="white" stroke="#666666" points="134,-56 0,-56 0,-37 134,-37 134,-56"/>
<text text-anchor="middle" x="67" y="-44" font-family="Ubuntu Mono" font-size="10.00">HHChannel2D::vProcess</text>
</a>
</g>
</g>
<!-- Node1&#45;&gt;Node2 -->
<g id="edge1_Node000001_Node000002" class="edge">
<title>Node1&#45;&gt;Node2</title>
<g id="a_edge1_Node000001_Node000002"><a xlink:title=" ">
<path fill="none" stroke="#63b8ff" d="M159.77,-36.18C151.24,-37.14 142.6,-38.11 134.22,-39.06"/>
<polygon fill="#63b8ff" stroke="#63b8ff" points="160.17,-39.66 169.72,-35.06 159.39,-32.7 160.17,-39.66"/>
</a>
</g>
</g>
<!-- Node3 -->
<g id="Node000003" class="node">
<title>Node3</title>
<g id="a_Node000003"><a xlink:href="classHHChannel2D.html#a61586448a1588f3a1404ebd607f16a31" target="_top" xlink:title=" ">
<polygon fill="white" stroke="#666666" points="129.5,-19 4.5,-19 4.5,0 129.5,0 129.5,-19"/>
<text text-anchor="middle" x="67" y="-7" font-family="Ubuntu Mono" font-size="10.00">HHChannel2D::vReinit</text>
</a>
</g>
</g>
<!-- Node1&#45;&gt;Node3 -->
<g id="edge2_Node000001_Node000003" class="edge">
<title>Node1&#45;&gt;Node3</title>
<g id="a_edge2_Node000001_Node000003"><a xlink:title=" ">
<path fill="none" stroke="#63b8ff" d="M159.69,-19.27C149.59,-18.19 139.36,-17.1 129.57,-16.06"/>
<polygon fill="#63b8ff" stroke="#63b8ff" points="159.41,-22.76 169.72,-20.33 160.15,-15.79 159.41,-22.76"/>
</a>
</g>
</g>
</g>
</svg>
