<?xml version="1.0" encoding="UTF-8" standalone="no"?>
<!DOCTYPE svg PUBLIC "-//W3C//DTD SVG 1.1//EN"
 "http://www.w3.org/Graphics/SVG/1.1/DTD/svg11.dtd">
<!-- Generated by graphviz version 2.43.0 (0)
 -->
<!-- Title: Variable Pages: 1 -->
<svg width="106pt" height="370pt"
 viewBox="0.00 0.00 106.00 370.00" xmlns="http://www.w3.org/2000/svg" xmlns:xlink="http://www.w3.org/1999/xlink">
<g id="graph0" class="graph" transform="scale(1 1) rotate(0) translate(4 366)">
<title>Variable</title>
<!-- Node1 -->
<g id="Node000001" class="node">
<title>Node1</title>
<g id="a_Node000001"><a xlink:title=" ">
<polygon fill="#999999" stroke="transparent" points="87.5,-169 10.5,-169 10.5,0 87.5,0 87.5,-169"/>
<text text-anchor="start" x="29.5" y="-156.5" font-family="Ubuntu Mono" font-size="10.00">Variable</text>
<text text-anchor="start" x="17.5" y="-141.5" font-family="Ubuntu Mono" font-size="10.00">&#45;</text>
<text text-anchor="start" x="28" y="-141.5" font-family="Ubuntu Mono" font-size="10.00">value_</text>
<text text-anchor="start" x="15" y="-126.5" font-family="Ubuntu Mono" font-size="10.00">+</text>
<text text-anchor="start" x="28" y="-126.5" font-family="Ubuntu Mono" font-size="10.00">getName()</text>
<text text-anchor="start" x="15" y="-111.5" font-family="Ubuntu Mono" font-size="10.00">+</text>
<text text-anchor="start" x="28" y="-111.5" font-family="Ubuntu Mono" font-size="10.00">getValue()</text>
<text text-anchor="start" x="15" y="-96.5" font-family="Ubuntu Mono" font-size="10.00">+</text>
<text text-anchor="start" x="28" y="-96.5" font-family="Ubuntu Mono" font-size="10.00">ptr()</text>
<text text-anchor="start" x="15" y="-81.5" font-family="Ubuntu Mono" font-size="10.00">+</text>
<text text-anchor="start" x="28" y="-81.5" font-family="Ubuntu Mono" font-size="10.00">setValue()</text>
<text text-anchor="start" x="15" y="-66.5" font-family="Ubuntu Mono" font-size="10.00">+</text>
<text text-anchor="start" x="28" y="-66.5" font-family="Ubuntu Mono" font-size="10.00">setValue()</text>
<text text-anchor="start" x="15" y="-51.5" font-family="Ubuntu Mono" font-size="10.00">+</text>
<text text-anchor="start" x="28" y="-51.5" font-family="Ubuntu Mono" font-size="10.00">Variable()</text>
<text text-anchor="start" x="15" y="-36.5" font-family="Ubuntu Mono" font-size="10.00">+</text>
<text text-anchor="start" x="28" y="-36.5" font-family="Ubuntu Mono" font-size="10.00">Variable()</text>
<text text-anchor="start" x="15" y="-21.5" font-family="Ubuntu Mono" font-size="10.00">+</text>
<text text-anchor="start" x="28" y="-21.5" font-family="Ubuntu Mono" font-size="10.00">~Variable()</text>
<text text-anchor="start" x="15" y="-6.5" font-family="Ubuntu Mono" font-size="10.00">+</text>
<text text-anchor="start" x="28" y="-6.5" font-family="Ubuntu Mono" font-size="10.00">initCinfo()</text>
<polygon fill="#666666" stroke="#666666" points="11,-151.5 11,-151.5 88,-151.5 88,-151.5 11,-151.5"/>
<polygon fill="#666666" stroke="#666666" points="11,-136.5 11,-136.5 26,-136.5 26,-136.5 11,-136.5"/>
<polygon fill="#666666" stroke="#666666" points="26,-136.5 26,-136.5 88,-136.5 88,-136.5 26,-136.5"/>
<polygon fill="none" stroke="#666666" points="10.5,0 10.5,-169 87.5,-169 87.5,0 10.5,0"/>
</a>
</g>
</g>
<!-- Node2 -->
<g id="Node000002" class="node">
<title>Node2</title>
<g id="a_Node000002"><a xlink:title=" ">
<polygon fill="white" stroke="transparent" points="78.5,-265 19.5,-265 19.5,-216 78.5,-216 78.5,-265"/>
<text text-anchor="start" x="25" y="-252.5" font-family="Ubuntu Mono" font-size="10.00">std::string</text>
<text text-anchor="start" x="47.5" y="-237.5" font-family="Ubuntu Mono" font-size="10.00"> </text>
<text text-anchor="start" x="47.5" y="-222.5" font-family="Ubuntu Mono" font-size="10.00"> </text>
<polygon fill="#666666" stroke="#666666" points="20,-247.5 20,-247.5 79,-247.5 79,-247.5 20,-247.5"/>
<polygon fill="#666666" stroke="#666666" points="20,-232.5 20,-232.5 79,-232.5 79,-232.5 20,-232.5"/>
<polygon fill="none" stroke="#666666" points="19.5,-216 19.5,-265 78.5,-265 78.5,-216 19.5,-216"/>
</a>
</g>
</g>
<!-- Node2&#45;&gt;Node1 -->
<g id="edge1_Node000001_Node000002" class="edge">
<title>Node2&#45;&gt;Node1</title>
<g id="a_edge1_Node000001_Node000002"><a xlink:title=" ">
<path fill="none" stroke="#63b8ff" d="M49,-215.77C49,-206.06 49,-194.12 49,-181.45"/>
<polygon fill="none" stroke="#63b8ff" points="49,-181.13 45,-175.13 49,-169.13 53,-175.13 49,-181.13"/>
</a>
</g>
<text text-anchor="middle" x="69" y="-190" font-family="Ubuntu Mono" font-size="10.00" fill="grey"> &#45;name_</text>
</g>
<!-- Node3 -->
<g id="Node000003" class="node">
<title>Node3</title>
<g id="a_Node000003"><a xlink:title=" ">
<polygon fill="white" stroke="transparent" points="98,-362 0,-362 0,-302 98,-302 98,-362"/>
<text text-anchor="start" x="5" y="-350" font-family="Ubuntu Mono" font-size="10.00">std::basic_string&lt;</text>
<text text-anchor="start" x="30.5" y="-339" font-family="Ubuntu Mono" font-size="10.00"> Char &gt;</text>
<text text-anchor="start" x="47" y="-324" font-family="Ubuntu Mono" font-size="10.00"> </text>
<text text-anchor="start" x="47" y="-309" font-family="Ubuntu Mono" font-size="10.00"> </text>
<polygon fill="#666666" stroke="#666666" points="0,-334 0,-334 98,-334 98,-334 0,-334"/>
<polygon fill="#666666" stroke="#666666" points="0,-319 0,-319 98,-319 98,-319 0,-319"/>
<polygon fill="none" stroke="#666666" points="0,-302 0,-362 98,-362 98,-302 0,-302"/>
</a>
</g>
</g>
<!-- Node3&#45;&gt;Node2 -->
<g id="edge2_Node000002_Node000003" class="edge">
<title>Node3&#45;&gt;Node2</title>
<g id="a_edge2_Node000002_Node000003"><a xlink:title=" ">
<path fill="none" stroke="#63b8ff" d="M49,-291.41C49,-282.47 49,-273.25 49,-265.21"/>
<polygon fill="none" stroke="#63b8ff" points="45.5,-291.69 49,-301.69 52.5,-291.69 45.5,-291.69"/>
</a>
</g>
</g>
</g>
</svg>
