<?xml version="1.0" encoding="UTF-8" standalone="no"?>
<!DOCTYPE svg PUBLIC "-//W3C//DTD SVG 1.1//EN"
 "http://www.w3.org/Graphics/SVG/1.1/DTD/svg11.dtd">
<!-- Generated by graphviz version 2.43.0 (0)
 -->
<!-- Title: SeqSynHandler::setSynapseOrderOption Pages: 1 -->
<!--zoomable 150 -->

<svg id="main" version="1.1" xmlns="http://www.w3.org/2000/svg" xmlns:xlink="http://www.w3.org/1999/xlink" xml:space="preserve" onload="init(evt)">
<style type="text/css"><![CDATA[
.node, .edge {opacity: 0.7;}
.node.selected, .edge.selected {opacity: 1;}
.edge:hover path { stroke: red; }
.edge:hover polygon { stroke: red; fill: red; }
]]></style>

<defs>
  <circle id="rim" cx="0" cy="0" r="7"/>
  <circle id="rim2" cx="0" cy="0" r="3.5"/>
  <g id="zoomPlus">
    <use xlink:href="#rim" fill="#404040"><set attributeName="fill" to="#808080" begin="zoomplus.mouseover" end="zoomplus.mouseout"/></use>
    <path d="M-4,0h8M0,-4v8" fill="none" stroke="white" stroke-width="1.5" pointer-events="none"/>
  </g>
  <g id="zoomMin">
    <use xlink:href="#rim" fill="#404040"><set attributeName="fill" to="#808080" begin="zoomminus.mouseover" end="zoomminus.mouseout"/></use>
    <path d="M-4,0h8" fill="none" stroke="white" stroke-width="1.5" pointer-events="none"/>
  </g>
  <g id="arrowUp" transform="translate(30 24)">
    <use xlink:href="#rim"/>
    <path pointer-events="none" fill="none" stroke="white" stroke-width="1.5" d="M0,-3.0v7 M-2.5,-0.5L0,-3.0L2.5,-0.5"/>
  </g>
  <g id="arrowRight" transform="rotate(90) translate(36 -43)">
    <use xlink:href="#rim"/>
    <path pointer-events="none" fill="none" stroke="white" stroke-width="1.5" d="M0,-3.0v7 M-2.5,-0.5L0,-3.0L2.5,-0.5"/>
  </g>
  <g id="arrowDown" transform="rotate(180) translate(-30 -48)">
    <use xlink:href="#rim"/>
    <path pointer-events="none" fill="none" stroke="white" stroke-width="1.5" d="M0,-3.0v7 M-2.5,-0.5L0,-3.0L2.5,-0.5"/>
  </g>
  <g id="arrowLeft" transform="rotate(270) translate(-36 17)">
    <use xlink:href="#rim"/>
    <path pointer-events="none" fill="none" stroke="white" stroke-width="1.5" d="M0,-3.0v7 M-2.5,-0.5L0,-3.0L2.5,-0.5"/>
  </g>
  <g id="resetDef">
    <use xlink:href="#rim2" fill="#404040"><set attributeName="fill" to="#808080" begin="reset.mouseover" end="reset.mouseout"/></use>
  </g>
</defs>
<script type="application/ecmascript">
var viewWidth = 701;
var viewHeight = 150;
var sectionId = 'dynsection-44';
</script>
<script type="application/ecmascript" xlink:href="svg.min.js"/>
<svg id="graph" class="graph">
<g id="viewport">
<title>SeqSynHandler::setSynapseOrderOption</title>
<!-- Node1 -->
<g id="Node000001" class="node">
<title>Node1</title>
<g id="a_Node000001"><a xlink:title=" ">
<polygon fill="#999999" stroke="#666666" points="153,-79.5 0,-79.5 0,-49.5 153,-49.5 153,-79.5"/>
<text text-anchor="start" x="8" y="-67.5" font-family="Ubuntu Mono" font-size="10.00">SeqSynHandler::setSynapse</text>
<text text-anchor="middle" x="76.5" y="-56.5" font-family="Ubuntu Mono" font-size="10.00">OrderOption</text>
</a>
</g>
</g>
<!-- Node2 -->
<g id="Node000002" class="node">
<title>Node2</title>
<g id="a_Node000002"><a xlink:href="classSeqSynHandler.html#a42ae64205ffe64beb1549591bc600d78" target="_top" xlink:title=" ">
<polygon fill="white" stroke="#666666" points="349,-79.5 189,-79.5 189,-49.5 349,-49.5 349,-79.5"/>
<text text-anchor="start" x="197" y="-67.5" font-family="Ubuntu Mono" font-size="10.00">SeqSynHandler::refillSynapse</text>
<text text-anchor="middle" x="269" y="-56.5" font-family="Ubuntu Mono" font-size="10.00">Order</text>
</a>
</g>
</g>
<!-- Node1&#45;&gt;Node2 -->
<g id="edge1_Node000001_Node000002" class="edge">
<title>Node1&#45;&gt;Node2</title>
<g id="a_edge1_Node000001_Node000002"><a xlink:title=" ">
<path fill="none" stroke="#63b8ff" d="M153.06,-64.5C161.5,-64.5 170.15,-64.5 178.74,-64.5"/>
<polygon fill="#63b8ff" stroke="#63b8ff" points="178.77,-68 188.77,-64.5 178.77,-61 178.77,-68"/>
</a>
</g>
</g>
<!-- Node3 -->
<g id="Node000003" class="node">
<title>Node3</title>
<g id="a_Node000003"><a xlink:href="classSeqSynHandler.html#a61fc81630fafe61943623fd9931d82e6" target="_top" xlink:title=" ">
<polygon fill="white" stroke="#666666" points="535,-141.5 385,-141.5 385,-111.5 535,-111.5 535,-141.5"/>
<text text-anchor="start" x="393" y="-129.5" font-family="Ubuntu Mono" font-size="10.00">SeqSynHandler::fixSynapse</text>
<text text-anchor="middle" x="460" y="-118.5" font-family="Ubuntu Mono" font-size="10.00">Order</text>
</a>
</g>
</g>
<!-- Node2&#45;&gt;Node3 -->
<g id="edge2_Node000002_Node000003" class="edge">
<title>Node2&#45;&gt;Node3</title>
<g id="a_edge2_Node000002_Node000003"><a xlink:title=" ">
<path fill="none" stroke="#63b8ff" d="M315.32,-79.54C336.48,-86.54 362.02,-94.98 385,-102.5 390.67,-104.36 396.59,-106.29 402.51,-108.21"/>
<polygon fill="#63b8ff" stroke="#63b8ff" points="401.81,-111.67 412.41,-111.43 403.98,-105.01 401.81,-111.67"/>
</a>
</g>
</g>
<!-- Node4 -->
<g id="Node000004" class="node">
<title>Node4</title>
<g id="a_Node000004"><a xlink:href="namespacemoose.html#ae65f9d4e187c732b37450b5cb8dab7a7" target="_top" xlink:title="Generate a random double between 0 and 1.">
<polygon fill="white" stroke="#666666" points="505.5,-93 414.5,-93 414.5,-74 505.5,-74 505.5,-93"/>
<text text-anchor="middle" x="460" y="-81" font-family="Ubuntu Mono" font-size="10.00">moose::mtrand</text>
</a>
</g>
</g>
<!-- Node2&#45;&gt;Node4 -->
<g id="edge3_Node000002_Node000004" class="edge">
<title>Node2&#45;&gt;Node4</title>
<g id="a_edge3_Node000002_Node000004"><a xlink:title=" ">
<path fill="none" stroke="#63b8ff" d="M349.06,-72.45C367.57,-74.31 386.9,-76.25 404.09,-77.98"/>
<polygon fill="#63b8ff" stroke="#63b8ff" points="404.19,-81.51 414.49,-79.03 404.89,-74.54 404.19,-81.51"/>
</a>
</g>
</g>
<!-- Node6 -->
<g id="Node000006" class="node">
<title>Node6</title>
<g id="a_Node000006"><a xlink:href="namespacemoose.html#a016d92a21244e86231ea80932c1c9175" target="_top" xlink:title="Seed seed for RNG.">
<polygon fill="white" stroke="#666666" points="506,-56 414,-56 414,-37 506,-37 506,-56"/>
<text text-anchor="middle" x="460" y="-44" font-family="Ubuntu Mono" font-size="10.00">moose::mtseed</text>
</a>
</g>
</g>
<!-- Node2&#45;&gt;Node6 -->
<g id="edge5_Node000002_Node000006" class="edge">
<title>Node2&#45;&gt;Node6</title>
<g id="a_edge5_Node000002_Node000006"><a xlink:title=" ">
<path fill="none" stroke="#63b8ff" d="M349.06,-56.97C367.4,-55.22 386.55,-53.4 403.62,-51.77"/>
<polygon fill="#63b8ff" stroke="#63b8ff" points="404.34,-55.22 413.96,-50.79 403.67,-48.25 404.34,-55.22"/>
</a>
</g>
</g>
<!-- Node8 -->
<g id="Node000008" class="node">
<title>Node8</title>
<g id="a_Node000008"><a xlink:href="SeqSynHandler_8cpp.html#a8833c0aa9d4fb38399082e3ca150fd4c" target="_top" xlink:title=" ">
<polygon fill="white" stroke="#666666" points="499,-19 421,-19 421,0 499,0 499,-19"/>
<text text-anchor="middle" x="460" y="-7" font-family="Ubuntu Mono" font-size="10.00">sort_indexes</text>
</a>
</g>
</g>
<!-- Node2&#45;&gt;Node8 -->
<g id="edge7_Node000002_Node000008" class="edge">
<title>Node2&#45;&gt;Node8</title>
<g id="a_edge7_Node000002_Node000008"><a xlink:title=" ">
<path fill="none" stroke="#63b8ff" d="M314.28,-49.42C335.56,-42.39 361.48,-34.13 385,-27.5 393.32,-25.15 402.22,-22.83 410.86,-20.67"/>
<polygon fill="#63b8ff" stroke="#63b8ff" points="411.96,-24.01 420.84,-18.22 410.29,-17.21 411.96,-24.01"/>
</a>
</g>
</g>
<!-- Node5 -->
<g id="Node000005" class="node">
<title>Node5</title>
<g id="a_Node000005"><a xlink:href="classmoose_1_1RNG.html#a6fec47558673d4d721a6918bb43b3fd3" target="_top" xlink:title="Return a uniformly distributed random number between 0 and 1 (exclusive).">
<polygon fill="white" stroke="#666666" points="693,-93 571,-93 571,-74 693,-74 693,-93"/>
<text text-anchor="middle" x="632" y="-81" font-family="Ubuntu Mono" font-size="10.00">moose::RNG::uniform</text>
</a>
</g>
</g>
<!-- Node4&#45;&gt;Node5 -->
<g id="edge4_Node000004_Node000005" class="edge">
<title>Node4&#45;&gt;Node5</title>
<g id="a_edge4_Node000004_Node000005"><a xlink:title=" ">
<path fill="none" stroke="#63b8ff" d="M505.67,-83.5C522.52,-83.5 542.12,-83.5 560.75,-83.5"/>
<polygon fill="#63b8ff" stroke="#63b8ff" points="560.97,-87 570.97,-83.5 560.97,-80 560.97,-87"/>
</a>
</g>
</g>
<!-- Node7 -->
<g id="Node000007" class="node">
<title>Node7</title>
<g id="a_Node000007"><a xlink:href="classmoose_1_1RNG.html#ad310f016166b1548e23fb8f3b54f83d7" target="_top" xlink:title="If seed if 0 then set seed to a random number else set seed to the given number.">
<polygon fill="white" stroke="#666666" points="693,-56 571,-56 571,-37 693,-37 693,-56"/>
<text text-anchor="middle" x="632" y="-44" font-family="Ubuntu Mono" font-size="10.00">moose::RNG::setSeed</text>
</a>
</g>
</g>
<!-- Node6&#45;&gt;Node7 -->
<g id="edge6_Node000006_Node000007" class="edge">
<title>Node6&#45;&gt;Node7</title>
<g id="a_edge6_Node000006_Node000007"><a xlink:title=" ">
<path fill="none" stroke="#63b8ff" d="M506.11,-46.5C522.88,-46.5 542.32,-46.5 560.8,-46.5"/>
<polygon fill="#63b8ff" stroke="#63b8ff" points="560.94,-50 570.94,-46.5 560.94,-43 560.94,-50"/>
</a>
</g>
</g>
</g>
</svg>

<g id="navigator" transform="translate(0 0)" fill="#404254">
  <rect fill="#f2f5e9" fill-opacity="0.5" stroke="#606060" stroke-width=".5" x="0" y="0" width="60" height="60"/>
  <use id="zoomplus" xlink:href="#zoomPlus" x="17" y="9" onmousedown="handleZoom(evt,'in')"/>
  <use id="zoomminus" xlink:href="#zoomMin" x="42" y="9" onmousedown="handleZoom(evt,'out')"/>
  <use id="reset" xlink:href="#resetDef" x="30" y="36" onmousedown="handleReset()"/>
   <use id="arrowup" xlink:href="#arrowUp" x="0" y="0" onmousedown="handlePan(0,-1)"/>
  <use id="arrowright" xlink:href="#arrowRight" x="0" y="0" onmousedown="handlePan(1,0)"/>
  <use id="arrowdown" xlink:href="#arrowDown" x="0" y="0" onmousedown="handlePan(0,1)"/>
  <use id="arrowleft" xlink:href="#arrowLeft" x="0" y="0" onmousedown="handlePan(-1,0)"/>
</g>
<svg viewBox="0 0 15 15" width="100%" height="30px" preserveAspectRatio="xMaxYMin meet">
 <g id="arrow_out" transform="scale(0.3 0.3)">
  <a xlink:href="classSeqSynHandler_a959ef7c9618b80ecbd90002fbdba524b_cgraph_org.svg" target="_base">
   <rect id="button" ry="5" rx="5" y="6" x="6" height="38" width="38"
        fill="#f2f5e9" fill-opacity="0.5" stroke="#606060" stroke-width="1.0"/>
   <path id="arrow"
     d="M 11.500037,31.436501 C 11.940474,20.09759 22.043105,11.32322 32.158766,21.979434 L 37.068811,17.246167 C 37.068811,17.246167 37.088388,32 37.088388,32 L 22.160133,31.978069 C 22.160133,31.978069 26.997745,27.140456 26.997745,27.140456 C 18.528582,18.264221 13.291696,25.230495 11.500037,31.436501 z"
     style="fill:#404040;"/>
  </a>
 </g>
</svg>

<style type='text/css'>
<![CDATA[
[data-mouse-over-selected='false'] { opacity: 0.7; }
[data-mouse-over-selected='true']  { opacity: 1.0; }
]]>
</style>
<script type="application/ecmascript"><![CDATA[
document.addEventListener('DOMContentLoaded', (event) => {
  highlightEdges();
  highlightAdjacentNodes();
});
]]></script>
</svg>
