<?xml version="1.0" encoding="UTF-8" standalone="no"?>
<!DOCTYPE svg PUBLIC "-//W3C//DTD SVG 1.1//EN"
 "http://www.w3.org/Graphics/SVG/1.1/DTD/svg11.dtd">
<!-- Generated by graphviz version 2.43.0 (0)
 -->
<!-- Title: VectorTable::getMin Pages: 1 -->
<svg width="843pt" height="76pt"
 viewBox="0.00 0.00 843.00 75.50" xmlns="http://www.w3.org/2000/svg" xmlns:xlink="http://www.w3.org/1999/xlink">
<g id="graph0" class="graph" transform="scale(1 1) rotate(0) translate(4 71.5)">
<title>VectorTable::getMin</title>
<!-- Node1 -->
<g id="Node000001" class="node">
<title>Node1</title>
<g id="a_Node000001"><a xlink:title=" ">
<polygon fill="#999999" stroke="#666666" points="835,-45.5 722,-45.5 722,-26.5 835,-26.5 835,-45.5"/>
<text text-anchor="middle" x="778.5" y="-33.5" font-family="Ubuntu Mono" font-size="10.00">VectorTable::getMin</text>
</a>
</g>
</g>
<!-- Node2 -->
<g id="Node000002" class="node">
<title>Node2</title>
<g id="a_Node000002"><a xlink:href="classVectorTable.html#a145104ca3f2c51b12331ef0169e323b1" target="_top" xlink:title=" ">
<polygon fill="white" stroke="#666666" points="664.5,-67.5 544.5,-67.5 544.5,-48.5 664.5,-48.5 664.5,-67.5"/>
<text text-anchor="middle" x="604.5" y="-55.5" font-family="Ubuntu Mono" font-size="10.00">VectorTable::initCinfo</text>
</a>
</g>
</g>
<!-- Node1&#45;&gt;Node2 -->
<g id="edge1_Node000001_Node000002" class="edge">
<title>Node1&#45;&gt;Node2</title>
<g id="a_edge1_Node000001_Node000002"><a xlink:title=" ">
<path fill="none" stroke="#63b8ff" d="M711.64,-44.42C696.17,-46.4 679.77,-48.5 664.62,-50.44"/>
<polygon fill="#63b8ff" stroke="#63b8ff" points="712.18,-47.88 721.66,-43.14 711.29,-40.94 712.18,-47.88"/>
</a>
</g>
</g>
<!-- Node3 -->
<g id="Node000003" class="node">
<title>Node3</title>
<g id="a_Node000003"><a xlink:href="classMarkovSolverBase.html#a099b652344dd857b876061cd65cdd835" target="_top" xlink:title=" ">
<polygon fill="white" stroke="#666666" points="686,-30 523,-30 523,0 686,0 686,-30"/>
<text text-anchor="start" x="531" y="-18" font-family="Ubuntu Mono" font-size="10.00">MarkovSolverBase::setLookup</text>
<text text-anchor="middle" x="604.5" y="-7" font-family="Ubuntu Mono" font-size="10.00">Params</text>
</a>
</g>
</g>
<!-- Node1&#45;&gt;Node3 -->
<g id="edge2_Node000001_Node000003" class="edge">
<title>Node1&#45;&gt;Node3</title>
<g id="a_edge2_Node000001_Node000003"><a xlink:title=" ">
<path fill="none" stroke="#63b8ff" d="M711.61,-27.96C703.25,-26.93 694.61,-25.88 686.05,-24.83"/>
<polygon fill="#63b8ff" stroke="#63b8ff" points="711.31,-31.44 721.66,-29.18 712.15,-24.5 711.31,-31.44"/>
</a>
</g>
</g>
<!-- Node4 -->
<g id="Node000004" class="node">
<title>Node4</title>
<g id="a_Node000004"><a xlink:href="classMarkovSolverBase.html#a7d7019f4bb80b05815ede3c4252d2b51" target="_top" xlink:title=" ">
<polygon fill="white" stroke="#666666" points="487,-24.5 358,-24.5 358,-5.5 487,-5.5 487,-24.5"/>
<text text-anchor="middle" x="422.5" y="-12.5" font-family="Ubuntu Mono" font-size="10.00">MarkovSolverBase::init</text>
</a>
</g>
</g>
<!-- Node3&#45;&gt;Node4 -->
<g id="edge3_Node000003_Node000004" class="edge">
<title>Node3&#45;&gt;Node4</title>
<g id="a_edge3_Node000003_Node000004"><a xlink:title=" ">
<path fill="none" stroke="#63b8ff" d="M512.83,-15C504.18,-15 495.53,-15 487.21,-15"/>
<polygon fill="#63b8ff" stroke="#63b8ff" points="512.98,-18.5 522.98,-15 512.98,-11.5 512.98,-18.5"/>
</a>
</g>
</g>
<!-- Node5 -->
<g id="Node000005" class="node">
<title>Node5</title>
<g id="a_Node000005"><a xlink:href="classMarkovSolverBase.html#a8d94098ef919eb390369a92c6d551500" target="_top" xlink:title=" ">
<polygon fill="white" stroke="#666666" points="322,-24.5 167,-24.5 167,-5.5 322,-5.5 322,-24.5"/>
<text text-anchor="middle" x="244.5" y="-12.5" font-family="Ubuntu Mono" font-size="10.00">MarkovSolverBase::initCinfo</text>
</a>
</g>
</g>
<!-- Node4&#45;&gt;Node5 -->
<g id="edge4_Node000004_Node000005" class="edge">
<title>Node4&#45;&gt;Node5</title>
<g id="a_edge4_Node000004_Node000005"><a xlink:title=" ">
<path fill="none" stroke="#63b8ff" d="M347.75,-15C339.29,-15 330.65,-15 322.15,-15"/>
<polygon fill="#63b8ff" stroke="#63b8ff" points="347.96,-18.5 357.96,-15 347.96,-11.5 347.96,-18.5"/>
</a>
</g>
</g>
<!-- Node6 -->
<g id="Node000006" class="node">
<title>Node6</title>
<g id="a_Node000006"><a xlink:href="classMarkovSolver.html#a780b0cc742d99f1eef6996f08f85bf34" target="_top" xlink:title=" ">
<polygon fill="white" stroke="#666666" points="131,-24.5 0,-24.5 0,-5.5 131,-5.5 131,-24.5"/>
<text text-anchor="middle" x="65.5" y="-12.5" font-family="Ubuntu Mono" font-size="10.00">MarkovSolver::initCinfo</text>
</a>
</g>
</g>
<!-- Node5&#45;&gt;Node6 -->
<g id="edge5_Node000005_Node000006" class="edge">
<title>Node5&#45;&gt;Node6</title>
<g id="a_edge5_Node000005_Node000006"><a xlink:title=" ">
<path fill="none" stroke="#63b8ff" d="M156.75,-15C148.09,-15 139.4,-15 131.03,-15"/>
<polygon fill="#63b8ff" stroke="#63b8ff" points="156.89,-18.5 166.89,-15 156.89,-11.5 156.89,-18.5"/>
</a>
</g>
</g>
</g>
</svg>
