<?xml version="1.0" encoding="UTF-8" standalone="no"?>
<!DOCTYPE svg PUBLIC "-//W3C//DTD SVG 1.1//EN"
 "http://www.w3.org/Graphics/SVG/1.1/DTD/svg11.dtd">
<!-- Generated by graphviz version 2.43.0 (0)
 -->
<!-- Title: OpFunc4Base&lt; A1, A2, A3, A4 &gt; Pages: 1 -->
<svg width="387pt" height="489pt"
 viewBox="0.00 0.00 386.50 489.00" xmlns="http://www.w3.org/2000/svg" xmlns:xlink="http://www.w3.org/1999/xlink">
<g id="graph0" class="graph" transform="scale(1 1) rotate(0) translate(4 485)">
<title>OpFunc4Base&lt; A1, A2, A3, A4 &gt;</title>
<!-- Node1 -->
<g id="Node000001" class="node">
<title>Node1</title>
<g id="a_Node000001"><a xlink:title=" ">
<polygon fill="#999999" stroke="transparent" points="249.5,-231 127.5,-231 127.5,-111 249.5,-111 249.5,-231"/>
<text text-anchor="start" x="132.5" y="-219" font-family="Ubuntu Mono" font-size="10.00">OpFunc4Base&lt; A1, A2,</text>
<text text-anchor="start" x="165.5" y="-208" font-family="Ubuntu Mono" font-size="10.00"> A3, A4 &gt;</text>
<text text-anchor="start" x="186.5" y="-193" font-family="Ubuntu Mono" font-size="10.00"> </text>
<text text-anchor="start" x="137.5" y="-178" font-family="Ubuntu Mono" font-size="10.00">+</text>
<text text-anchor="start" x="156.5" y="-178" font-family="Ubuntu Mono" font-size="10.00">checkFinfo()</text>
<text text-anchor="start" x="137.5" y="-163" font-family="Ubuntu Mono" font-size="10.00">+</text>
<text text-anchor="start" x="156.5" y="-163" font-family="Ubuntu Mono" font-size="10.00">makeHopFunc()</text>
<text text-anchor="start" x="137.5" y="-148" font-family="Ubuntu Mono" font-size="10.00">+</text>
<text text-anchor="start" x="156.5" y="-148" font-family="Ubuntu Mono" font-size="10.00">op()</text>
<text text-anchor="start" x="137.5" y="-133" font-family="Ubuntu Mono" font-size="10.00">+</text>
<text text-anchor="start" x="156.5" y="-133" font-family="Ubuntu Mono" font-size="10.00">opBuffer()</text>
<text text-anchor="start" x="137.5" y="-118" font-family="Ubuntu Mono" font-size="10.00">+</text>
<text text-anchor="start" x="156.5" y="-118" font-family="Ubuntu Mono" font-size="10.00">rttiType()</text>
<polygon fill="#666666" stroke="#666666" points="127.5,-203 127.5,-203 249.5,-203 249.5,-203 127.5,-203"/>
<polygon fill="#666666" stroke="#666666" points="127.5,-188 127.5,-188 249.5,-188 249.5,-188 127.5,-188"/>
<polygon fill="none" stroke="#666666" points="127.5,-111 127.5,-231 249.5,-231 249.5,-111 127.5,-111"/>
</a>
</g>
</g>
<!-- Node3 -->
<g id="Node000003" class="node">
<title>Node3</title>
<g id="a_Node000003"><a xlink:href="classEpFunc4.html" target="_top" xlink:title=" ">
<polygon fill="white" stroke="transparent" points="109,-75 0,-75 0,0 109,0 109,-75"/>
<text text-anchor="start" x="5.5" y="-62.5" font-family="Ubuntu Mono" font-size="10.00">EpFunc4&lt; T, A1, A2,</text>
<text text-anchor="start" x="32" y="-51.5" font-family="Ubuntu Mono" font-size="10.00"> A3, A4 &gt;</text>
<text text-anchor="start" x="16.5" y="-36.5" font-family="Ubuntu Mono" font-size="10.00">&#45;</text>
<text text-anchor="start" x="36.5" y="-36.5" font-family="Ubuntu Mono" font-size="10.00">func_</text>
<text text-anchor="start" x="14" y="-21.5" font-family="Ubuntu Mono" font-size="10.00">+</text>
<text text-anchor="start" x="36.5" y="-21.5" font-family="Ubuntu Mono" font-size="10.00">EpFunc4()</text>
<text text-anchor="start" x="14" y="-6.5" font-family="Ubuntu Mono" font-size="10.00">+</text>
<text text-anchor="start" x="36.5" y="-6.5" font-family="Ubuntu Mono" font-size="10.00">op()</text>
<polygon fill="#666666" stroke="#666666" points="0.5,-46.5 0.5,-46.5 109.5,-46.5 109.5,-46.5 0.5,-46.5"/>
<polygon fill="#666666" stroke="#666666" points="0.5,-31.5 0.5,-31.5 34.5,-31.5 34.5,-31.5 0.5,-31.5"/>
<polygon fill="#666666" stroke="#666666" points="34.5,-31.5 34.5,-31.5 109.5,-31.5 109.5,-31.5 34.5,-31.5"/>
<polygon fill="none" stroke="#666666" points="0,0 0,-75 109,-75 109,0 0,0"/>
</a>
</g>
</g>
<!-- Node1&#45;&gt;Node3 -->
<g id="edge2_Node000001_Node000003" class="edge">
<title>Node1&#45;&gt;Node3</title>
<g id="a_edge2_Node000001_Node000003"><a xlink:title=" ">
<path fill="none" stroke="#63b8ff" d="M120.9,-103.66C110.9,-93.85 100.93,-84.06 91.86,-75.16"/>
<polygon fill="none" stroke="#63b8ff" points="118.58,-106.28 128.16,-110.79 123.48,-101.29 118.58,-106.28"/>
</a>
</g>
</g>
<!-- Node4 -->
<g id="Node000004" class="node">
<title>Node4</title>
<g id="a_Node000004"><a xlink:href="classHopFunc4.html" target="_top" xlink:title=" ">
<polygon fill="white" stroke="transparent" points="250,-75 127,-75 127,0 250,0 250,-75"/>
<text text-anchor="start" x="132.5" y="-62.5" font-family="Ubuntu Mono" font-size="10.00">HopFunc4&lt; A1, A2, A3,</text>
<text text-anchor="start" x="175" y="-51.5" font-family="Ubuntu Mono" font-size="10.00"> A4 &gt;</text>
<text text-anchor="start" x="145.5" y="-36.5" font-family="Ubuntu Mono" font-size="10.00">&#45;</text>
<text text-anchor="start" x="167.5" y="-36.5" font-family="Ubuntu Mono" font-size="10.00">hopIndex_</text>
<text text-anchor="start" x="143" y="-21.5" font-family="Ubuntu Mono" font-size="10.00">+</text>
<text text-anchor="start" x="167.5" y="-21.5" font-family="Ubuntu Mono" font-size="10.00">HopFunc4()</text>
<text text-anchor="start" x="143" y="-6.5" font-family="Ubuntu Mono" font-size="10.00">+</text>
<text text-anchor="start" x="167.5" y="-6.5" font-family="Ubuntu Mono" font-size="10.00">op()</text>
<polygon fill="#666666" stroke="#666666" points="127.5,-46.5 127.5,-46.5 250.5,-46.5 250.5,-46.5 127.5,-46.5"/>
<polygon fill="#666666" stroke="#666666" points="127.5,-31.5 127.5,-31.5 165.5,-31.5 165.5,-31.5 127.5,-31.5"/>
<polygon fill="#666666" stroke="#666666" points="165.5,-31.5 165.5,-31.5 250.5,-31.5 250.5,-31.5 165.5,-31.5"/>
<polygon fill="none" stroke="#666666" points="127,0 127,-75 250,-75 250,0 127,0"/>
</a>
</g>
</g>
<!-- Node1&#45;&gt;Node4 -->
<g id="edge3_Node000001_Node000004" class="edge">
<title>Node1&#45;&gt;Node4</title>
<g id="a_edge3_Node000001_Node000004"><a xlink:title=" ">
<path fill="none" stroke="#63b8ff" d="M188.5,-100.52C188.5,-91.77 188.5,-83.11 188.5,-75.16"/>
<polygon fill="none" stroke="#63b8ff" points="185,-100.79 188.5,-110.79 192,-100.79 185,-100.79"/>
</a>
</g>
</g>
<!-- Node5 -->
<g id="Node000005" class="node">
<title>Node5</title>
<g id="a_Node000005"><a xlink:href="classOpFunc4.html" target="_top" xlink:title=" ">
<polygon fill="white" stroke="transparent" points="378.5,-75 268.5,-75 268.5,0 378.5,0 378.5,-75"/>
<text text-anchor="start" x="273.5" y="-62.5" font-family="Ubuntu Mono" font-size="10.00">OpFunc4&lt; T, A1, A2,</text>
<text text-anchor="start" x="300.5" y="-51.5" font-family="Ubuntu Mono" font-size="10.00"> A3, A4 &gt;</text>
<text text-anchor="start" x="284.5" y="-36.5" font-family="Ubuntu Mono" font-size="10.00">&#45;</text>
<text text-anchor="start" x="304.5" y="-36.5" font-family="Ubuntu Mono" font-size="10.00">func_</text>
<text text-anchor="start" x="282" y="-21.5" font-family="Ubuntu Mono" font-size="10.00">+</text>
<text text-anchor="start" x="304.5" y="-21.5" font-family="Ubuntu Mono" font-size="10.00">op()</text>
<text text-anchor="start" x="282" y="-6.5" font-family="Ubuntu Mono" font-size="10.00">+</text>
<text text-anchor="start" x="304.5" y="-6.5" font-family="Ubuntu Mono" font-size="10.00">OpFunc4()</text>
<polygon fill="#666666" stroke="#666666" points="268.5,-46.5 268.5,-46.5 378.5,-46.5 378.5,-46.5 268.5,-46.5"/>
<polygon fill="#666666" stroke="#666666" points="268.5,-31.5 268.5,-31.5 302.5,-31.5 302.5,-31.5 268.5,-31.5"/>
<polygon fill="#666666" stroke="#666666" points="302.5,-31.5 302.5,-31.5 378.5,-31.5 378.5,-31.5 302.5,-31.5"/>
<polygon fill="none" stroke="#666666" points="268.5,0 268.5,-75 378.5,-75 378.5,0 268.5,0"/>
</a>
</g>
</g>
<!-- Node1&#45;&gt;Node5 -->
<g id="edge4_Node000001_Node000005" class="edge">
<title>Node1&#45;&gt;Node5</title>
<g id="a_edge4_Node000001_Node000005"><a xlink:title=" ">
<path fill="none" stroke="#63b8ff" d="M256.61,-103.66C266.68,-93.85 276.73,-84.06 285.86,-75.16"/>
<polygon fill="none" stroke="#63b8ff" points="254.01,-101.3 249.29,-110.79 258.89,-106.32 254.01,-101.3"/>
</a>
</g>
</g>
<!-- Node2 -->
<g id="Node000002" class="node">
<title>Node2</title>
<g id="a_Node000002"><a xlink:href="classOpFunc.html" target="_top" xlink:title=" ">
<polygon fill="white" stroke="transparent" points="240,-481 137,-481 137,-267 240,-267 240,-481"/>
<text text-anchor="start" x="170.5" y="-469" font-family="Ubuntu Mono" font-size="10.00">OpFunc</text>
<text text-anchor="start" x="144" y="-454" font-family="Ubuntu Mono" font-size="10.00">&#45;</text>
<text text-anchor="start" x="154.5" y="-454" font-family="Ubuntu Mono" font-size="10.00">opIndex_</text>
<text text-anchor="start" x="141.5" y="-439" font-family="Ubuntu Mono" font-size="10.00">+</text>
<text text-anchor="start" x="154.5" y="-439" font-family="Ubuntu Mono" font-size="10.00">checkFinfo()</text>
<text text-anchor="start" x="141.5" y="-424" font-family="Ubuntu Mono" font-size="10.00">+</text>
<text text-anchor="start" x="154.5" y="-424" font-family="Ubuntu Mono" font-size="10.00">makeHopFunc()</text>
<text text-anchor="start" x="141.5" y="-409" font-family="Ubuntu Mono" font-size="10.00">+</text>
<text text-anchor="start" x="154.5" y="-409" font-family="Ubuntu Mono" font-size="10.00">opBuffer()</text>
<text text-anchor="start" x="141.5" y="-394" font-family="Ubuntu Mono" font-size="10.00">+</text>
<text text-anchor="start" x="154.5" y="-394" font-family="Ubuntu Mono" font-size="10.00">OpFunc()</text>
<text text-anchor="start" x="141.5" y="-379" font-family="Ubuntu Mono" font-size="10.00">+</text>
<text text-anchor="start" x="154.5" y="-379" font-family="Ubuntu Mono" font-size="10.00">opIndex()</text>
<text text-anchor="start" x="141.5" y="-364" font-family="Ubuntu Mono" font-size="10.00">+</text>
<text text-anchor="start" x="154.5" y="-364" font-family="Ubuntu Mono" font-size="10.00">opVecBuffer()</text>
<text text-anchor="start" x="141.5" y="-349" font-family="Ubuntu Mono" font-size="10.00">+</text>
<text text-anchor="start" x="154.5" y="-349" font-family="Ubuntu Mono" font-size="10.00">rttiType()</text>
<text text-anchor="start" x="141.5" y="-334" font-family="Ubuntu Mono" font-size="10.00">+</text>
<text text-anchor="start" x="154.5" y="-334" font-family="Ubuntu Mono" font-size="10.00">setIndex()</text>
<text text-anchor="start" x="141.5" y="-319" font-family="Ubuntu Mono" font-size="10.00">+</text>
<text text-anchor="start" x="154.5" y="-319" font-family="Ubuntu Mono" font-size="10.00">~OpFunc()</text>
<text text-anchor="start" x="141.5" y="-304" font-family="Ubuntu Mono" font-size="10.00">+</text>
<text text-anchor="start" x="154.5" y="-304" font-family="Ubuntu Mono" font-size="10.00">lookop()</text>
<text text-anchor="start" x="141.5" y="-289" font-family="Ubuntu Mono" font-size="10.00">+</text>
<text text-anchor="start" x="154.5" y="-289" font-family="Ubuntu Mono" font-size="10.00">rebuildOpIndex()</text>
<text text-anchor="start" x="144" y="-274" font-family="Ubuntu Mono" font-size="10.00">&#45;</text>
<text text-anchor="start" x="154.5" y="-274" font-family="Ubuntu Mono" font-size="10.00">ops()</text>
<polygon fill="#666666" stroke="#666666" points="137.5,-464 137.5,-464 240.5,-464 240.5,-464 137.5,-464"/>
<polygon fill="#666666" stroke="#666666" points="137.5,-449 137.5,-449 152.5,-449 152.5,-449 137.5,-449"/>
<polygon fill="#666666" stroke="#666666" points="152.5,-449 152.5,-449 240.5,-449 240.5,-449 152.5,-449"/>
<polygon fill="none" stroke="#666666" points="137,-267 137,-481 240,-481 240,-267 137,-267"/>
</a>
</g>
</g>
<!-- Node2&#45;&gt;Node1 -->
<g id="edge1_Node000001_Node000002" class="edge">
<title>Node2&#45;&gt;Node1</title>
<g id="a_edge1_Node000001_Node000002"><a xlink:title=" ">
<path fill="none" stroke="#63b8ff" d="M188.5,-256.88C188.5,-248.05 188.5,-239.39 188.5,-231.17"/>
<polygon fill="none" stroke="#63b8ff" points="185,-256.91 188.5,-266.91 192,-256.91 185,-256.91"/>
</a>
</g>
</g>
</g>
</svg>
