<?xml version="1.0" encoding="UTF-8" standalone="no"?>
<!DOCTYPE svg PUBLIC "-//W3C//DTD SVG 1.1//EN"
 "http://www.w3.org/Graphics/SVG/1.1/DTD/svg11.dtd">
<!-- Generated by graphviz version 2.43.0 (0)
 -->
<!-- Title: DifBufferBase::innerDifSourceOut Pages: 1 -->
<svg width="497pt" height="101pt"
 viewBox="0.00 0.00 497.00 101.00" xmlns="http://www.w3.org/2000/svg" xmlns:xlink="http://www.w3.org/1999/xlink">
<g id="graph0" class="graph" transform="scale(1 1) rotate(0) translate(4 97)">
<title>DifBufferBase::innerDifSourceOut</title>
<!-- Node1 -->
<g id="Node000001" class="node">
<title>Node1</title>
<g id="a_Node000001"><a xlink:title=" ">
<polygon fill="#999999" stroke="#666666" points="489,-56 310,-56 310,-37 489,-37 489,-56"/>
<text text-anchor="middle" x="399.5" y="-44" font-family="Ubuntu Mono" font-size="10.00">DifBufferBase::innerDifSourceOut</text>
</a>
</g>
</g>
<!-- Node2 -->
<g id="Node000002" class="node">
<title>Node2</title>
<g id="a_Node000002"><a xlink:href="classDifBufferBase.html#a509264b11f6cbdf352801f1df88dca14" target="_top" xlink:title=" ">
<polygon fill="white" stroke="#666666" points="274,-93 143,-93 143,-74 274,-74 274,-93"/>
<text text-anchor="middle" x="208.5" y="-81" font-family="Ubuntu Mono" font-size="10.00">DifBufferBase::initCinfo</text>
</a>
</g>
</g>
<!-- Node1&#45;&gt;Node2 -->
<g id="edge1_Node000001_Node000002" class="edge">
<title>Node1&#45;&gt;Node2</title>
<g id="a_edge1_Node000001_Node000002"><a xlink:title=" ">
<path fill="none" stroke="#63b8ff" d="M339.67,-58.02C313.56,-63.13 283.17,-69.08 258.34,-73.94"/>
<polygon fill="#63b8ff" stroke="#63b8ff" points="340.69,-61.38 349.83,-56.03 339.34,-54.51 340.69,-61.38"/>
</a>
</g>
</g>
<!-- Node4 -->
<g id="Node000004" class="node">
<title>Node4</title>
<g id="a_Node000004"><a xlink:href="classDifBuffer.html#abbdec3598f440542eabbe726baff484d" target="_top" xlink:title=" ">
<polygon fill="white" stroke="#666666" points="263.5,-56 153.5,-56 153.5,-37 263.5,-37 263.5,-56"/>
<text text-anchor="middle" x="208.5" y="-44" font-family="Ubuntu Mono" font-size="10.00">DifBuffer::vProcess</text>
</a>
</g>
</g>
<!-- Node1&#45;&gt;Node4 -->
<g id="edge3_Node000001_Node000004" class="edge">
<title>Node1&#45;&gt;Node4</title>
<g id="a_edge3_Node000001_Node000004"><a xlink:title=" ">
<path fill="none" stroke="#63b8ff" d="M299.48,-46.5C287.18,-46.5 274.99,-46.5 263.73,-46.5"/>
<polygon fill="#63b8ff" stroke="#63b8ff" points="299.81,-50 309.81,-46.5 299.81,-43 299.81,-50"/>
</a>
</g>
</g>
<!-- Node5 -->
<g id="Node000005" class="node">
<title>Node5</title>
<g id="a_Node000005"><a xlink:href="classDifBuffer.html#a11204c6960808695c36e180cdcfb0b5d" target="_top" xlink:title=" ">
<polygon fill="white" stroke="#666666" points="259,-19 158,-19 158,0 259,0 259,-19"/>
<text text-anchor="middle" x="208.5" y="-7" font-family="Ubuntu Mono" font-size="10.00">DifBuffer::vReinit</text>
</a>
</g>
</g>
<!-- Node1&#45;&gt;Node5 -->
<g id="edge4_Node000001_Node000005" class="edge">
<title>Node1&#45;&gt;Node5</title>
<g id="a_edge4_Node000001_Node000005"><a xlink:title=" ">
<path fill="none" stroke="#63b8ff" d="M339.67,-34.98C313.56,-29.87 283.17,-23.92 258.34,-19.06"/>
<polygon fill="#63b8ff" stroke="#63b8ff" points="339.34,-38.49 349.83,-36.97 340.69,-31.62 339.34,-38.49"/>
</a>
</g>
</g>
<!-- Node3 -->
<g id="Node000003" class="node">
<title>Node3</title>
<g id="a_Node000003"><a xlink:href="classDifBuffer.html#ab8b3e81ed8537930e4a0599f9e01b314" target="_top" xlink:title=" ">
<polygon fill="white" stroke="#666666" points="107,-93 0,-93 0,-74 107,-74 107,-93"/>
<text text-anchor="middle" x="53.5" y="-81" font-family="Ubuntu Mono" font-size="10.00">DifBuffer::initCinfo</text>
</a>
</g>
</g>
<!-- Node2&#45;&gt;Node3 -->
<g id="edge2_Node000002_Node000003" class="edge">
<title>Node2&#45;&gt;Node3</title>
<g id="a_edge2_Node000002_Node000003"><a xlink:title=" ">
<path fill="none" stroke="#63b8ff" d="M132.38,-83.5C123.95,-83.5 115.51,-83.5 107.45,-83.5"/>
<polygon fill="#63b8ff" stroke="#63b8ff" points="132.61,-87 142.61,-83.5 132.61,-80 132.61,-87"/>
</a>
</g>
</g>
</g>
</svg>
