<?xml version="1.0" encoding="UTF-8" standalone="no"?>
<!DOCTYPE svg PUBLIC "-//W3C//DTD SVG 1.1//EN"
 "http://www.w3.org/Graphics/SVG/1.1/DTD/svg11.dtd">
<!-- Generated by graphviz version 2.43.0 (0)
 -->
<!-- Title: Element::findCaller Pages: 1 -->
<svg width="703pt" height="212pt"
 viewBox="0.00 0.00 703.00 212.00" xmlns="http://www.w3.org/2000/svg" xmlns:xlink="http://www.w3.org/1999/xlink">
<g id="graph0" class="graph" transform="scale(1 1) rotate(0) translate(4 208)">
<title>Element::findCaller</title>
<!-- Node1 -->
<g id="Node000001" class="node">
<title>Node1</title>
<g id="a_Node000001"><a xlink:title=" ">
<polygon fill="#999999" stroke="#666666" points="110,-111 0,-111 0,-92 110,-92 110,-111"/>
<text text-anchor="middle" x="55" y="-99" font-family="Ubuntu Mono" font-size="10.00">Element::findCaller</text>
</a>
</g>
</g>
<!-- Node2 -->
<g id="Node000002" class="node">
<title>Node2</title>
<g id="a_Node000002"><a xlink:href="classMsg.html#a5be9f4dd643f5f662e8fb3c029273390" target="_top" xlink:title=" ">
<polygon fill="white" stroke="#666666" points="264.5,-204 209.5,-204 209.5,-185 264.5,-185 264.5,-204"/>
<text text-anchor="middle" x="237" y="-192" font-family="Ubuntu Mono" font-size="10.00">Msg::e1</text>
</a>
</g>
</g>
<!-- Node1&#45;&gt;Node2 -->
<g id="edge1_Node000001_Node000002" class="edge">
<title>Node1&#45;&gt;Node2</title>
<g id="a_edge1_Node000001_Node000002"><a xlink:title=" ">
<path fill="none" stroke="#63b8ff" d="M64.38,-111.07C79.14,-127.29 111.5,-160 146,-176.5 162.55,-184.41 182.41,-188.85 199.26,-191.34"/>
<polygon fill="#63b8ff" stroke="#63b8ff" points="198.94,-194.82 209.31,-192.65 199.84,-187.88 198.94,-194.82"/>
</a>
</g>
</g>
<!-- Node3 -->
<g id="Node000003" class="node">
<title>Node3</title>
<g id="a_Node000003"><a xlink:href="classMsg.html#a893ed6b44cd4c529f0f10af38ae6743a" target="_top" xlink:title=" ">
<polygon fill="white" stroke="#666666" points="264.5,-167 209.5,-167 209.5,-148 264.5,-148 264.5,-167"/>
<text text-anchor="middle" x="237" y="-155" font-family="Ubuntu Mono" font-size="10.00">Msg::e2</text>
</a>
</g>
</g>
<!-- Node1&#45;&gt;Node3 -->
<g id="edge2_Node000001_Node000003" class="edge">
<title>Node1&#45;&gt;Node3</title>
<g id="a_edge2_Node000001_Node000003"><a xlink:title=" ">
<path fill="none" stroke="#63b8ff" d="M75.59,-111.13C93.54,-119.63 121.04,-131.82 146,-139.5 163.12,-144.77 182.55,-148.88 198.97,-151.83"/>
<polygon fill="#63b8ff" stroke="#63b8ff" points="198.81,-155.36 209.26,-153.61 200,-148.46 198.81,-155.36"/>
</a>
</g>
</g>
<!-- Node4 -->
<g id="Node000004" class="node">
<title>Node4</title>
<g id="a_Node000004"><a xlink:href="classElement.html#a0f7aa6c77f30cb8865cdd0a0dde03854" target="_top" xlink:title=" ">
<polygon fill="white" stroke="#666666" points="296,-130 178,-130 178,-111 296,-111 296,-130"/>
<text text-anchor="middle" x="237" y="-118" font-family="Ubuntu Mono" font-size="10.00">Element::findBinding</text>
</a>
</g>
</g>
<!-- Node1&#45;&gt;Node4 -->
<g id="edge3_Node000001_Node000004" class="edge">
<title>Node1&#45;&gt;Node4</title>
<g id="a_edge3_Node000001_Node000004"><a xlink:title=" ">
<path fill="none" stroke="#63b8ff" d="M110.01,-107.2C128.18,-109.12 148.69,-111.28 167.81,-113.3"/>
<polygon fill="#63b8ff" stroke="#63b8ff" points="167.64,-116.8 177.96,-114.37 168.38,-109.84 167.64,-116.8"/>
</a>
</g>
</g>
<!-- Node5 -->
<g id="Node000005" class="node">
<title>Node5</title>
<g id="a_Node000005"><a xlink:href="classMsg.html#a1a57001709e44ab056a704c24760c105" target="_top" xlink:title=" ">
<polygon fill="white" stroke="#666666" points="276.5,-93 197.5,-93 197.5,-74 276.5,-74 276.5,-93"/>
<text text-anchor="middle" x="237" y="-81" font-family="Ubuntu Mono" font-size="10.00">Msg::getMsg</text>
</a>
</g>
</g>
<!-- Node1&#45;&gt;Node5 -->
<g id="edge4_Node000001_Node000005" class="edge">
<title>Node1&#45;&gt;Node5</title>
<g id="a_edge4_Node000001_Node000005"><a xlink:title=" ">
<path fill="none" stroke="#63b8ff" d="M110.01,-96.1C134.54,-93.65 163.35,-90.76 187.22,-88.38"/>
<polygon fill="#63b8ff" stroke="#63b8ff" points="187.87,-91.83 197.47,-87.35 187.17,-84.87 187.87,-91.83"/>
</a>
</g>
</g>
<!-- Node11 -->
<g id="Node000011" class="node">
<title>Node11</title>
<g id="a_Node000011"><a xlink:href="classMsgFuncBinding.html#ad0172d166d6629ed092500ea64473eb5" target="_top" xlink:title=" ">
<polygon fill="white" stroke="#666666" points="328,-56 146,-56 146,-37 328,-37 328,-56"/>
<text text-anchor="middle" x="237" y="-44" font-family="Ubuntu Mono" font-size="10.00">MsgFuncBinding::MsgFuncBinding</text>
</a>
</g>
</g>
<!-- Node1&#45;&gt;Node11 -->
<g id="edge10_Node000001_Node000011" class="edge">
<title>Node1&#45;&gt;Node11</title>
<g id="a_edge10_Node000001_Node000011"><a xlink:title=" ">
<path fill="none" stroke="#63b8ff" d="M75.97,-91.99C93.94,-83.74 121.26,-71.98 146,-64.5 153.51,-62.23 161.45,-60.17 169.39,-58.32"/>
<polygon fill="#63b8ff" stroke="#63b8ff" points="170.42,-61.67 179.42,-56.08 168.89,-54.84 170.42,-61.67"/>
</a>
</g>
</g>
<!-- Node13 -->
<g id="Node000013" class="node">
<title>Node13</title>
<g id="a_Node000013"><a xlink:href="classObjId.html#ab6b120d314aab5abc3ea8bb7ead5ae41" target="_top" xlink:title=" ">
<polygon fill="white" stroke="#666666" points="274,-19 200,-19 200,0 274,0 274,-19"/>
<text text-anchor="middle" x="237" y="-7" font-family="Ubuntu Mono" font-size="10.00">ObjId::ObjId</text>
</a>
</g>
</g>
<!-- Node1&#45;&gt;Node13 -->
<g id="edge12_Node000001_Node000013" class="edge">
<title>Node1&#45;&gt;Node13</title>
<g id="a_edge12_Node000001_Node000013"><a xlink:title=" ">
<path fill="none" stroke="#63b8ff" d="M64.64,-91.8C79.55,-75.72 111.82,-43.71 146,-27.5 159.44,-21.13 175.04,-17.01 189.45,-14.35"/>
<polygon fill="#63b8ff" stroke="#63b8ff" points="190.38,-17.74 199.68,-12.66 189.24,-10.84 190.38,-17.74"/>
</a>
</g>
</g>
<!-- Node6 -->
<g id="Node000006" class="node">
<title>Node6</title>
<g id="a_Node000006"><a xlink:href="classObjId.html#a1e5933713d6a73550b0923cf63f5bfd8" target="_top" xlink:title=" ">
<polygon fill="white" stroke="#666666" points="436,-93 366,-93 366,-74 436,-74 436,-93"/>
<text text-anchor="middle" x="401" y="-81" font-family="Ubuntu Mono" font-size="10.00">ObjId::data</text>
</a>
</g>
</g>
<!-- Node5&#45;&gt;Node6 -->
<g id="edge5_Node000005_Node000006" class="edge">
<title>Node5&#45;&gt;Node6</title>
<g id="a_edge5_Node000005_Node000006"><a xlink:title=" ">
<path fill="none" stroke="#63b8ff" d="M276.8,-83.5C300.56,-83.5 331.02,-83.5 355.72,-83.5"/>
<polygon fill="#63b8ff" stroke="#63b8ff" points="355.91,-87 365.91,-83.5 355.91,-80 355.91,-87"/>
</a>
</g>
</g>
<!-- Node7 -->
<g id="Node000007" class="node">
<title>Node7</title>
<g id="a_Node000007"><a xlink:href="classElement.html#a1978a0a584f1b10ea4a7c67e69880042" target="_top" xlink:title=" ">
<polygon fill="white" stroke="#666666" points="570.5,-130 485.5,-130 485.5,-111 570.5,-111 570.5,-130"/>
<text text-anchor="middle" x="528" y="-118" font-family="Ubuntu Mono" font-size="10.00">Element::data</text>
</a>
</g>
</g>
<!-- Node6&#45;&gt;Node7 -->
<g id="edge6_Node000006_Node000007" class="edge">
<title>Node6&#45;&gt;Node7</title>
<g id="a_edge6_Node000006_Node000007"><a xlink:title=" ">
<path fill="none" stroke="#63b8ff" d="M434.19,-93.03C449.53,-97.57 468.07,-103.06 484.54,-107.93"/>
<polygon fill="#63b8ff" stroke="#63b8ff" points="483.9,-111.39 494.48,-110.88 485.89,-104.68 483.9,-111.39"/>
</a>
</g>
</g>
<!-- Node8 -->
<g id="Node000008" class="node">
<title>Node8</title>
<g id="a_Node000008"><a xlink:href="classId.html#a574e06330597163aef0ea4c99de7ff4a" target="_top" xlink:title="Synonym for Id::operator()()">
<polygon fill="white" stroke="#666666" points="564,-93 492,-93 492,-74 564,-74 564,-93"/>
<text text-anchor="middle" x="528" y="-81" font-family="Ubuntu Mono" font-size="10.00">Id::element</text>
</a>
</g>
</g>
<!-- Node6&#45;&gt;Node8 -->
<g id="edge7_Node000006_Node000008" class="edge">
<title>Node6&#45;&gt;Node8</title>
<g id="a_edge7_Node000006_Node000008"><a xlink:title=" ">
<path fill="none" stroke="#63b8ff" d="M436.16,-83.5C450.14,-83.5 466.51,-83.5 481.48,-83.5"/>
<polygon fill="#63b8ff" stroke="#63b8ff" points="481.58,-87 491.58,-83.5 481.58,-80 481.58,-87"/>
</a>
</g>
</g>
<!-- Node10 -->
<g id="Node000010" class="node">
<title>Node10</title>
<g id="a_Node000010"><a xlink:href="classElement.html#a73a0e468a3d6cfd6475fff4a56459075" target="_top" xlink:title=" ">
<polygon fill="white" stroke="#666666" points="582,-56 474,-56 474,-37 582,-37 582,-56"/>
<text text-anchor="middle" x="528" y="-44" font-family="Ubuntu Mono" font-size="10.00">Element::rawIndex</text>
</a>
</g>
</g>
<!-- Node6&#45;&gt;Node10 -->
<g id="edge9_Node000006_Node000010" class="edge">
<title>Node6&#45;&gt;Node10</title>
<g id="a_edge9_Node000006_Node000010"><a xlink:title=" ">
<path fill="none" stroke="#63b8ff" d="M434.19,-73.97C449.53,-69.43 468.07,-63.94 484.54,-59.07"/>
<polygon fill="#63b8ff" stroke="#63b8ff" points="485.89,-62.32 494.48,-56.12 483.9,-55.61 485.89,-62.32"/>
</a>
</g>
</g>
<!-- Node9 -->
<g id="Node000009" class="node">
<title>Node9</title>
<g id="a_Node000009"><a xlink:href="classId.html#a2d5e7b4d5d918aadfe45102691c2be27" target="_top" xlink:title=" ">
<polygon fill="white" stroke="#666666" points="695,-93 618,-93 618,-74 695,-74 695,-93"/>
<text text-anchor="middle" x="656.5" y="-81" font-family="Ubuntu Mono" font-size="10.00">Id::elements</text>
</a>
</g>
</g>
<!-- Node8&#45;&gt;Node9 -->
<g id="edge8_Node000008_Node000009" class="edge">
<title>Node8&#45;&gt;Node9</title>
<g id="a_edge8_Node000008_Node000009"><a xlink:title=" ">
<path fill="none" stroke="#63b8ff" d="M564.24,-83.5C577.65,-83.5 593.17,-83.5 607.56,-83.5"/>
<polygon fill="#63b8ff" stroke="#63b8ff" points="607.8,-87 617.8,-83.5 607.8,-80 607.8,-87"/>
</a>
</g>
</g>
<!-- Node12 -->
<g id="Node000012" class="node">
<title>Node12</title>
<g id="a_Node000012"><a xlink:href="classObjId.html#a02a8374ceddca0d8f4a672005aef8ffc" target="_top" xlink:title=" ">
<polygon fill="white" stroke="#666666" points="438,-56 364,-56 364,-37 438,-37 438,-56"/>
<text text-anchor="middle" x="401" y="-44" font-family="Ubuntu Mono" font-size="10.00">ObjId::ObjId</text>
</a>
</g>
</g>
<!-- Node11&#45;&gt;Node12 -->
<g id="edge11_Node000011_Node000012" class="edge">
<title>Node11&#45;&gt;Node12</title>
<g id="a_edge11_Node000011_Node000012"><a xlink:title=" ">
<path fill="none" stroke="#63b8ff" d="M328,-46.5C336.91,-46.5 345.67,-46.5 353.85,-46.5"/>
<polygon fill="#63b8ff" stroke="#63b8ff" points="353.86,-50 363.86,-46.5 353.86,-43 353.86,-50"/>
</a>
</g>
</g>
</g>
</svg>
