<?xml version="1.0" encoding="UTF-8" standalone="no"?>
<!DOCTYPE svg PUBLIC "-//W3C//DTD SVG 1.1//EN"
 "http://www.w3.org/Graphics/SVG/1.1/DTD/svg11.dtd">
<!-- Generated by graphviz version 2.43.0 (0)
 -->
<!-- Title: SpikeStats Pages: 1 -->
<svg width="143pt" height="622pt"
 viewBox="0.00 0.00 143.00 622.00" xmlns="http://www.w3.org/2000/svg" xmlns:xlink="http://www.w3.org/1999/xlink">
<g id="graph0" class="graph" transform="scale(1 1) rotate(0) translate(4 618)">
<title>SpikeStats</title>
<!-- Node1 -->
<g id="Node000001" class="node">
<title>Node1</title>
<g id="a_Node000001"><a xlink:title=" ">
<polygon fill="#999999" stroke="transparent" points="114,-199 21,-199 21,0 114,0 114,-199"/>
<text text-anchor="start" x="42" y="-186.5" font-family="Ubuntu Mono" font-size="10.00">SpikeStats</text>
<text text-anchor="start" x="28" y="-171.5" font-family="Ubuntu Mono" font-size="10.00">&#45;</text>
<text text-anchor="start" x="38.5" y="-171.5" font-family="Ubuntu Mono" font-size="10.00">fired_</text>
<text text-anchor="start" x="28" y="-156.5" font-family="Ubuntu Mono" font-size="10.00">&#45;</text>
<text text-anchor="start" x="38.5" y="-156.5" font-family="Ubuntu Mono" font-size="10.00">numSpikes_</text>
<text text-anchor="start" x="28" y="-141.5" font-family="Ubuntu Mono" font-size="10.00">&#45;</text>
<text text-anchor="start" x="38.5" y="-141.5" font-family="Ubuntu Mono" font-size="10.00">threshold_</text>
<text text-anchor="start" x="25.5" y="-126.5" font-family="Ubuntu Mono" font-size="10.00">+</text>
<text text-anchor="start" x="38.5" y="-126.5" font-family="Ubuntu Mono" font-size="10.00">addSpike()</text>
<text text-anchor="start" x="25.5" y="-111.5" font-family="Ubuntu Mono" font-size="10.00">+</text>
<text text-anchor="start" x="38.5" y="-111.5" font-family="Ubuntu Mono" font-size="10.00">addSpike()</text>
<text text-anchor="start" x="25.5" y="-96.5" font-family="Ubuntu Mono" font-size="10.00">+</text>
<text text-anchor="start" x="38.5" y="-96.5" font-family="Ubuntu Mono" font-size="10.00">getThreshold()</text>
<text text-anchor="start" x="25.5" y="-81.5" font-family="Ubuntu Mono" font-size="10.00">+</text>
<text text-anchor="start" x="38.5" y="-81.5" font-family="Ubuntu Mono" font-size="10.00">setThreshold()</text>
<text text-anchor="start" x="25.5" y="-66.5" font-family="Ubuntu Mono" font-size="10.00">+</text>
<text text-anchor="start" x="38.5" y="-66.5" font-family="Ubuntu Mono" font-size="10.00">SpikeStats()</text>
<text text-anchor="start" x="25.5" y="-51.5" font-family="Ubuntu Mono" font-size="10.00">+</text>
<text text-anchor="start" x="38.5" y="-51.5" font-family="Ubuntu Mono" font-size="10.00">Vm()</text>
<text text-anchor="start" x="25.5" y="-36.5" font-family="Ubuntu Mono" font-size="10.00">+</text>
<text text-anchor="start" x="38.5" y="-36.5" font-family="Ubuntu Mono" font-size="10.00">vProcess()</text>
<text text-anchor="start" x="25.5" y="-21.5" font-family="Ubuntu Mono" font-size="10.00">+</text>
<text text-anchor="start" x="38.5" y="-21.5" font-family="Ubuntu Mono" font-size="10.00">vReinit()</text>
<text text-anchor="start" x="25.5" y="-6.5" font-family="Ubuntu Mono" font-size="10.00">+</text>
<text text-anchor="start" x="38.5" y="-6.5" font-family="Ubuntu Mono" font-size="10.00">initCinfo()</text>
<polygon fill="#666666" stroke="#666666" points="21.5,-181.5 21.5,-181.5 114.5,-181.5 114.5,-181.5 21.5,-181.5"/>
<polygon fill="#666666" stroke="#666666" points="21.5,-136.5 21.5,-136.5 36.5,-136.5 36.5,-136.5 21.5,-136.5"/>
<polygon fill="#666666" stroke="#666666" points="36.5,-136.5 36.5,-136.5 114.5,-136.5 114.5,-136.5 36.5,-136.5"/>
<polygon fill="none" stroke="#666666" points="21,0 21,-199 114,-199 114,0 21,0"/>
</a>
</g>
</g>
<!-- Node2 -->
<g id="Node000002" class="node">
<title>Node2</title>
<g id="a_Node000002"><a xlink:href="classStats.html" target="_top" xlink:title=" ">
<polygon fill="white" stroke="transparent" points="135,-614 0,-614 0,-235 135,-235 135,-614"/>
<text text-anchor="start" x="55.5" y="-601.5" font-family="Ubuntu Mono" font-size="10.00">Stats</text>
<text text-anchor="start" x="7" y="-586.5" font-family="Ubuntu Mono" font-size="10.00">&#45;</text>
<text text-anchor="start" x="17.5" y="-586.5" font-family="Ubuntu Mono" font-size="10.00">isWindowDirty_</text>
<text text-anchor="start" x="7" y="-571.5" font-family="Ubuntu Mono" font-size="10.00">&#45;</text>
<text text-anchor="start" x="17.5" y="-571.5" font-family="Ubuntu Mono" font-size="10.00">lastt_</text>
<text text-anchor="start" x="7" y="-556.5" font-family="Ubuntu Mono" font-size="10.00">&#45;</text>
<text text-anchor="start" x="17.5" y="-556.5" font-family="Ubuntu Mono" font-size="10.00">mean_</text>
<text text-anchor="start" x="7" y="-541.5" font-family="Ubuntu Mono" font-size="10.00">&#45;</text>
<text text-anchor="start" x="17.5" y="-541.5" font-family="Ubuntu Mono" font-size="10.00">num_</text>
<text text-anchor="start" x="7" y="-526.5" font-family="Ubuntu Mono" font-size="10.00">&#45;</text>
<text text-anchor="start" x="17.5" y="-526.5" font-family="Ubuntu Mono" font-size="10.00">samples_</text>
<text text-anchor="start" x="7" y="-511.5" font-family="Ubuntu Mono" font-size="10.00">&#45;</text>
<text text-anchor="start" x="17.5" y="-511.5" font-family="Ubuntu Mono" font-size="10.00">sdev_</text>
<text text-anchor="start" x="7" y="-496.5" font-family="Ubuntu Mono" font-size="10.00">&#45;</text>
<text text-anchor="start" x="17.5" y="-496.5" font-family="Ubuntu Mono" font-size="10.00">sum_</text>
<text text-anchor="start" x="7" y="-481.5" font-family="Ubuntu Mono" font-size="10.00">&#45;</text>
<text text-anchor="start" x="17.5" y="-481.5" font-family="Ubuntu Mono" font-size="10.00">sumsq_</text>
<text text-anchor="start" x="7" y="-466.5" font-family="Ubuntu Mono" font-size="10.00">&#45;</text>
<text text-anchor="start" x="17.5" y="-466.5" font-family="Ubuntu Mono" font-size="10.00">wmean_</text>
<text text-anchor="start" x="7" y="-451.5" font-family="Ubuntu Mono" font-size="10.00">&#45;</text>
<text text-anchor="start" x="17.5" y="-451.5" font-family="Ubuntu Mono" font-size="10.00">wnum_</text>
<text text-anchor="start" x="7" y="-436.5" font-family="Ubuntu Mono" font-size="10.00">&#45;</text>
<text text-anchor="start" x="17.5" y="-436.5" font-family="Ubuntu Mono" font-size="10.00">wsdev_</text>
<text text-anchor="start" x="7" y="-421.5" font-family="Ubuntu Mono" font-size="10.00">&#45;</text>
<text text-anchor="start" x="17.5" y="-421.5" font-family="Ubuntu Mono" font-size="10.00">wsum_</text>
<text text-anchor="start" x="4.5" y="-406.5" font-family="Ubuntu Mono" font-size="10.00">+</text>
<text text-anchor="start" x="17.5" y="-406.5" font-family="Ubuntu Mono" font-size="10.00">doWindowCalculation()</text>
<text text-anchor="start" x="4.5" y="-391.5" font-family="Ubuntu Mono" font-size="10.00">+</text>
<text text-anchor="start" x="17.5" y="-391.5" font-family="Ubuntu Mono" font-size="10.00">getMean()</text>
<text text-anchor="start" x="4.5" y="-376.5" font-family="Ubuntu Mono" font-size="10.00">+</text>
<text text-anchor="start" x="17.5" y="-376.5" font-family="Ubuntu Mono" font-size="10.00">getNum()</text>
<text text-anchor="start" x="4.5" y="-361.5" font-family="Ubuntu Mono" font-size="10.00">+</text>
<text text-anchor="start" x="17.5" y="-361.5" font-family="Ubuntu Mono" font-size="10.00">getSdev()</text>
<text text-anchor="start" x="4.5" y="-346.5" font-family="Ubuntu Mono" font-size="10.00">+</text>
<text text-anchor="start" x="17.5" y="-346.5" font-family="Ubuntu Mono" font-size="10.00">getSum()</text>
<text text-anchor="start" x="4.5" y="-331.5" font-family="Ubuntu Mono" font-size="10.00">+</text>
<text text-anchor="start" x="17.5" y="-331.5" font-family="Ubuntu Mono" font-size="10.00">getWindowLength()</text>
<text text-anchor="start" x="4.5" y="-316.5" font-family="Ubuntu Mono" font-size="10.00">+</text>
<text text-anchor="start" x="17.5" y="-316.5" font-family="Ubuntu Mono" font-size="10.00">getWmean()</text>
<text text-anchor="start" x="4.5" y="-301.5" font-family="Ubuntu Mono" font-size="10.00">+</text>
<text text-anchor="start" x="17.5" y="-301.5" font-family="Ubuntu Mono" font-size="10.00">getWnum()</text>
<text text-anchor="start" x="4.5" y="-286.5" font-family="Ubuntu Mono" font-size="10.00">+</text>
<text text-anchor="start" x="17.5" y="-286.5" font-family="Ubuntu Mono" font-size="10.00">getWsdev()</text>
<text text-anchor="start" x="4.5" y="-271.5" font-family="Ubuntu Mono" font-size="10.00">+</text>
<text text-anchor="start" x="17.5" y="-271.5" font-family="Ubuntu Mono" font-size="10.00">getWsum()</text>
<text text-anchor="start" x="17.5" y="-256.5" font-family="Ubuntu Mono" font-size="10.00">and 8 more...</text>
<text text-anchor="start" x="4.5" y="-241.5" font-family="Ubuntu Mono" font-size="10.00">+</text>
<text text-anchor="start" x="17.5" y="-241.5" font-family="Ubuntu Mono" font-size="10.00">initCinfo()</text>
<polygon fill="#666666" stroke="#666666" points="0.5,-596.5 0.5,-596.5 135.5,-596.5 135.5,-596.5 0.5,-596.5"/>
<polygon fill="#666666" stroke="#666666" points="0.5,-416.5 0.5,-416.5 15.5,-416.5 15.5,-416.5 0.5,-416.5"/>
<polygon fill="#666666" stroke="#666666" points="15.5,-416.5 15.5,-416.5 135.5,-416.5 135.5,-416.5 15.5,-416.5"/>
<polygon fill="none" stroke="#666666" points="0,-235 0,-614 135,-614 135,-235 0,-235"/>
</a>
</g>
</g>
<!-- Node2&#45;&gt;Node1 -->
<g id="edge1_Node000001_Node000002" class="edge">
<title>Node2&#45;&gt;Node1</title>
<g id="a_edge1_Node000001_Node000002"><a xlink:title=" ">
<path fill="none" stroke="#63b8ff" d="M67.5,-224.48C67.5,-215.85 67.5,-207.37 67.5,-199.15"/>
<polygon fill="none" stroke="#63b8ff" points="64,-224.67 67.5,-234.68 71,-224.68 64,-224.67"/>
</a>
</g>
</g>
</g>
</svg>
