<?xml version="1.0" encoding="UTF-8" standalone="no"?>
<!DOCTYPE svg PUBLIC "-//W3C//DTD SVG 1.1//EN"
 "http://www.w3.org/Graphics/SVG/1.1/DTD/svg11.dtd">
<!-- Generated by graphviz version 2.43.0 (0)
 -->
<!-- Title: TableBase::compareXplot Pages: 1 -->
<svg width="389pt" height="176pt"
 viewBox="0.00 0.00 389.00 176.00" xmlns="http://www.w3.org/2000/svg" xmlns:xlink="http://www.w3.org/1999/xlink">

<svg id="main" version="1.1" xmlns="http://www.w3.org/2000/svg" xmlns:xlink="http://www.w3.org/1999/xlink" xml:space="preserve" onload="init(evt)">
<style type="text/css"><![CDATA[
.node, .edge {opacity: 0.7;}
.node.selected, .edge.selected {opacity: 1;}
.edge:hover path { stroke: red; }
.edge:hover polygon { stroke: red; fill: red; }
]]></style>
<script type="application/ecmascript" xlink:href="svg.min.js"/>
<svg id="graph" class="graph">
<g id="graph0" class="graph" transform="scale(1 1) rotate(0) translate(4 172)">
<title>TableBase::compareXplot</title>
<!-- Node1 -->
<g id="Node000001" class="node">
<title>Node1</title>
<g id="a_Node000001"><a xlink:title=" ">
<polygon fill="#999999" stroke="#666666" points="140,-111 0,-111 0,-92 140,-92 140,-111"/>
<text text-anchor="middle" x="70" y="-99" font-family="Ubuntu Mono" font-size="10.00">TableBase::compareXplot</text>
</a>
</g>
</g>
<!-- Node2 -->
<g id="Node000002" class="node">
<title>Node2</title>
<g id="a_Node000002"><a xlink:href="TableBase_8cpp.html#a8e66e7071bf8ce034c44b8f7de9d39e7" target="_top" xlink:title=" ">
<polygon fill="white" stroke="#666666" points="377,-168 306,-168 306,-149 377,-149 377,-168"/>
<text text-anchor="middle" x="341.5" y="-156" font-family="Ubuntu Mono" font-size="10.00">getRMSDiff</text>
</a>
</g>
</g>
<!-- Node1&#45;&gt;Node2 -->
<g id="edge1_Node000001_Node000002" class="edge">
<title>Node1&#45;&gt;Node2</title>
<g id="a_edge1_Node000001_Node000002"><a xlink:title=" ">
<path fill="none" stroke="#63b8ff" d="M92.67,-111.03C113.59,-119.82 146.37,-132.53 176,-139.5 215.77,-148.86 262.08,-153.68 295.41,-156.12"/>
<polygon fill="#63b8ff" stroke="#63b8ff" points="295.54,-159.64 305.76,-156.83 296.02,-152.65 295.54,-159.64"/>
</a>
</g>
</g>
<!-- Node3 -->
<g id="Node000003" class="node">
<title>Node3</title>
<g id="a_Node000003"><a xlink:href="TableBase_8cpp.html#a77cb2199e31471ec402d7ece683669ff" target="_top" xlink:title=" ">
<polygon fill="white" stroke="#666666" points="261,-130 181,-130 181,-111 261,-111 261,-130"/>
<text text-anchor="middle" x="221" y="-118" font-family="Ubuntu Mono" font-size="10.00">getRMSRatio</text>
</a>
</g>
</g>
<!-- Node1&#45;&gt;Node3 -->
<g id="edge2_Node000001_Node000003" class="edge">
<title>Node1&#45;&gt;Node3</title>
<g id="a_edge2_Node000001_Node000003"><a xlink:title=" ">
<path fill="none" stroke="#63b8ff" d="M140.27,-110.33C150.64,-111.66 161.16,-113 171,-114.25"/>
<polygon fill="#63b8ff" stroke="#63b8ff" points="170.61,-117.73 180.97,-115.52 171.5,-110.79 170.61,-117.73"/>
</a>
</g>
</g>
<!-- Node5 -->
<g id="Node000005" class="node">
<title>Node5</title>
<g id="a_Node000005"><a xlink:href="TableBase_8cpp.html#a9ad12134d50c64457217952275a52324" target="_top" xlink:title=" ">
<polygon fill="white" stroke="#666666" points="247.5,-93 194.5,-93 194.5,-74 247.5,-74 247.5,-93"/>
<text text-anchor="middle" x="221" y="-81" font-family="Ubuntu Mono" font-size="10.00">headop</text>
</a>
</g>
</g>
<!-- Node1&#45;&gt;Node5 -->
<g id="edge5_Node000001_Node000005" class="edge">
<title>Node1&#45;&gt;Node5</title>
<g id="a_edge5_Node000001_Node000005"><a xlink:title=" ">
<path fill="none" stroke="#63b8ff" d="M140.27,-93.13C155.5,-91.29 171.02,-89.42 184.28,-87.82"/>
<polygon fill="#63b8ff" stroke="#63b8ff" points="184.86,-91.27 194.37,-86.6 184.02,-84.32 184.86,-91.27"/>
</a>
</g>
</g>
<!-- Node6 -->
<g id="Node000006" class="node">
<title>Node6</title>
<g id="a_Node000006"><a xlink:href="TableBase_8cpp.html#adf41c97bc76f1802028ccc8ce6245a38" target="_top" xlink:title=" ">
<polygon fill="white" stroke="#666666" points="266,-56 176,-56 176,-37 266,-37 266,-56"/>
<text text-anchor="middle" x="221" y="-44" font-family="Ubuntu Mono" font-size="10.00">innerLoadXplot</text>
</a>
</g>
</g>
<!-- Node1&#45;&gt;Node6 -->
<g id="edge6_Node000001_Node000006" class="edge">
<title>Node1&#45;&gt;Node6</title>
<g id="a_edge6_Node000001_Node000006"><a xlink:title=" ">
<path fill="none" stroke="#63b8ff" d="M96.95,-91.92C121.24,-82.96 157.71,-69.49 184.64,-59.55"/>
<polygon fill="#63b8ff" stroke="#63b8ff" points="185.92,-62.81 194.09,-56.06 183.5,-56.24 185.92,-62.81"/>
</a>
</g>
</g>
<!-- Node3&#45;&gt;Node2 -->
<g id="edge4_Node000003_Node000002" class="edge">
<title>Node3&#45;&gt;Node2</title>
<g id="a_edge4_Node000003_Node000002"><a xlink:title=" ">
<path fill="none" stroke="#63b8ff" d="M251.9,-130.09C266.78,-134.86 284.96,-140.69 300.97,-145.82"/>
<polygon fill="#63b8ff" stroke="#63b8ff" points="300.02,-149.19 310.61,-148.91 302.15,-142.53 300.02,-149.19"/>
</a>
</g>
</g>
<!-- Node4 -->
<g id="Node000004" class="node">
<title>Node4</title>
<g id="a_Node000004"><a xlink:href="TableBase_8cpp.html#ad7cb53836168d6b944847d22bbc43f6a" target="_top" xlink:title=" ">
<polygon fill="white" stroke="#666666" points="368.5,-130 314.5,-130 314.5,-111 368.5,-111 368.5,-130"/>
<text text-anchor="middle" x="341.5" y="-118" font-family="Ubuntu Mono" font-size="10.00">getRMS</text>
</a>
</g>
</g>
<!-- Node3&#45;&gt;Node4 -->
<g id="edge3_Node000003_Node000004" class="edge">
<title>Node3&#45;&gt;Node4</title>
<g id="a_edge3_Node000003_Node000004"><a xlink:title=" ">
<path fill="none" stroke="#63b8ff" d="M261.13,-120.5C275.1,-120.5 290.76,-120.5 304.45,-120.5"/>
<polygon fill="#63b8ff" stroke="#63b8ff" points="304.48,-124 314.48,-120.5 304.48,-117 304.48,-124"/>
</a>
</g>
</g>
<!-- Node7 -->
<g id="Node000007" class="node">
<title>Node7</title>
<g id="a_Node000007"><a xlink:href="TableBase_8cpp.html#a37eeecd62e24263fbe7689f7102f6467" target="_top" xlink:title=" ">
<polygon fill="white" stroke="#666666" points="378.5,-93 304.5,-93 304.5,-74 378.5,-74 378.5,-93"/>
<text text-anchor="middle" x="341.5" y="-81" font-family="Ubuntu Mono" font-size="10.00">getYcolumn</text>
</a>
</g>
</g>
<!-- Node6&#45;&gt;Node7 -->
<g id="edge7_Node000006_Node000007" class="edge">
<title>Node6&#45;&gt;Node7</title>
<g id="a_edge7_Node000006_Node000007"><a xlink:title=" ">
<path fill="none" stroke="#63b8ff" d="M252.52,-56.03C266.92,-60.52 284.31,-65.95 299.81,-70.8"/>
<polygon fill="#63b8ff" stroke="#63b8ff" points="299.09,-74.24 309.67,-73.88 301.17,-67.55 299.09,-74.24"/>
</a>
</g>
</g>
<!-- Node8 -->
<g id="Node000008" class="node">
<title>Node8</title>
<g id="a_Node000008"><a xlink:href="TableBase_8cpp.html#a20322c00937940c13769b7eee65b900d" target="_top" xlink:title=" ">
<polygon fill="white" stroke="#666666" points="381,-56 302,-56 302,-37 381,-37 381,-56"/>
<text text-anchor="middle" x="341.5" y="-44" font-family="Ubuntu Mono" font-size="10.00">isNamedPlot</text>
</a>
</g>
</g>
<!-- Node6&#45;&gt;Node8 -->
<g id="edge8_Node000006_Node000008" class="edge">
<title>Node6&#45;&gt;Node8</title>
<g id="a_edge8_Node000006_Node000008"><a xlink:title=" ">
<path fill="none" stroke="#63b8ff" d="M266.13,-46.5C274.45,-46.5 283.21,-46.5 291.67,-46.5"/>
<polygon fill="#63b8ff" stroke="#63b8ff" points="291.8,-50 301.8,-46.5 291.8,-43 291.8,-50"/>
</a>
</g>
</g>
<!-- Node9 -->
<g id="Node000009" class="node">
<title>Node9</title>
<g id="a_Node000009"><a xlink:href="namespacemoose.html#aea4faf9be206cc137d29ae514cf6b366" target="_top" xlink:title=" ">
<polygon fill="white" stroke="#666666" points="379.5,-19 303.5,-19 303.5,0 379.5,0 379.5,-19"/>
<text text-anchor="middle" x="341.5" y="-7" font-family="Ubuntu Mono" font-size="10.00">moose::trim</text>
</a>
</g>
</g>
<!-- Node6&#45;&gt;Node9 -->
<g id="edge9_Node000006_Node000009" class="edge">
<title>Node6&#45;&gt;Node9</title>
<g id="a_edge9_Node000006_Node000009"><a xlink:title=" ">
<path fill="none" stroke="#63b8ff" d="M252.52,-36.97C266.92,-32.48 284.31,-27.05 299.81,-22.2"/>
<polygon fill="#63b8ff" stroke="#63b8ff" points="301.17,-25.45 309.67,-19.12 299.09,-18.76 301.17,-25.45"/>
</a>
</g>
</g>
</g>
</svg>
</svg>

<style type='text/css'>
<![CDATA[
[data-mouse-over-selected='false'] { opacity: 0.7; }
[data-mouse-over-selected='true']  { opacity: 1.0; }
]]>
</style>
<script type="application/ecmascript"><![CDATA[
document.addEventListener('DOMContentLoaded', (event) => {
  highlightEdges();
  highlightAdjacentNodes();
});
]]></script>
</svg>
