<?xml version="1.0" encoding="UTF-8" standalone="no"?>
<!DOCTYPE svg PUBLIC "-//W3C//DTD SVG 1.1//EN"
 "http://www.w3.org/Graphics/SVG/1.1/DTD/svg11.dtd">
<!-- Generated by graphviz version 2.43.0 (0)
 -->
<!-- Title: MarkovSolverBase::process Pages: 1 -->
<svg width="517pt" height="64pt"
 viewBox="0.00 0.00 517.00 64.00" xmlns="http://www.w3.org/2000/svg" xmlns:xlink="http://www.w3.org/1999/xlink">
<g id="graph0" class="graph" transform="scale(1 1) rotate(0) translate(4 60)">
<title>MarkovSolverBase::process</title>
<!-- Node1 -->
<g id="Node000001" class="node">
<title>Node1</title>
<g id="a_Node000001"><a xlink:title=" ">
<polygon fill="#999999" stroke="#666666" points="509,-37 358,-37 358,-18 509,-18 509,-37"/>
<text text-anchor="middle" x="433.5" y="-25" font-family="Ubuntu Mono" font-size="10.00">MarkovSolverBase::process</text>
</a>
</g>
</g>
<!-- Node2 -->
<g id="Node000002" class="node">
<title>Node2</title>
<g id="a_Node000002"><a xlink:href="classMarkovSolverBase.html#a8d94098ef919eb390369a92c6d551500" target="_top" xlink:title=" ">
<polygon fill="white" stroke="#666666" points="322,-56 167,-56 167,-37 322,-37 322,-56"/>
<text text-anchor="middle" x="244.5" y="-44" font-family="Ubuntu Mono" font-size="10.00">MarkovSolverBase::initCinfo</text>
</a>
</g>
</g>
<!-- Node1&#45;&gt;Node2 -->
<g id="edge1_Node000001_Node000002" class="edge">
<title>Node1&#45;&gt;Node2</title>
<g id="a_edge1_Node000001_Node000002"><a xlink:title=" ">
<path fill="none" stroke="#63b8ff" d="M347.84,-36.1C339.31,-36.97 330.68,-37.85 322.24,-38.7"/>
<polygon fill="#63b8ff" stroke="#63b8ff" points="348.19,-39.58 357.79,-35.09 347.48,-32.62 348.19,-39.58"/>
</a>
</g>
</g>
<!-- Node4 -->
<g id="Node000004" class="node">
<title>Node4</title>
<g id="a_Node000004"><a xlink:href="classMarkovSolver.html#a3558f886989301ce2cb44bdf96830e28" target="_top" xlink:title=" ">
<polygon fill="white" stroke="#666666" points="308,-19 181,-19 181,0 308,0 308,-19"/>
<text text-anchor="middle" x="244.5" y="-7" font-family="Ubuntu Mono" font-size="10.00">MarkovSolver::process</text>
</a>
</g>
</g>
<!-- Node1&#45;&gt;Node4 -->
<g id="edge3_Node000001_Node000004" class="edge">
<title>Node1&#45;&gt;Node4</title>
<g id="a_edge3_Node000001_Node000004"><a xlink:title=" ">
<path fill="none" stroke="#63b8ff" d="M347.66,-19.33C334.34,-18.05 320.78,-16.75 308.07,-15.52"/>
<polygon fill="#63b8ff" stroke="#63b8ff" points="347.5,-22.83 357.79,-20.31 348.17,-15.87 347.5,-22.83"/>
</a>
</g>
</g>
<!-- Node3 -->
<g id="Node000003" class="node">
<title>Node3</title>
<g id="a_Node000003"><a xlink:href="classMarkovSolver.html#a780b0cc742d99f1eef6996f08f85bf34" target="_top" xlink:title=" ">
<polygon fill="white" stroke="#666666" points="131,-37 0,-37 0,-18 131,-18 131,-37"/>
<text text-anchor="middle" x="65.5" y="-25" font-family="Ubuntu Mono" font-size="10.00">MarkovSolver::initCinfo</text>
</a>
</g>
</g>
<!-- Node2&#45;&gt;Node3 -->
<g id="edge2_Node000002_Node000003" class="edge">
<title>Node2&#45;&gt;Node3</title>
<g id="a_edge2_Node000002_Node000003"><a xlink:title=" ">
<path fill="none" stroke="#63b8ff" d="M156.75,-37.19C148.09,-36.26 139.4,-35.33 131.03,-34.43"/>
<polygon fill="#63b8ff" stroke="#63b8ff" points="156.58,-40.69 166.89,-38.28 157.33,-33.73 156.58,-40.69"/>
</a>
</g>
</g>
<!-- Node4&#45;&gt;Node3 -->
<g id="edge4_Node000004_Node000003" class="edge">
<title>Node4&#45;&gt;Node3</title>
<g id="a_edge4_Node000004_Node000003"><a xlink:title=" ">
<path fill="none" stroke="#63b8ff" d="M170.33,-16.94C157.39,-18.26 143.99,-19.62 131.29,-20.91"/>
<polygon fill="#63b8ff" stroke="#63b8ff" points="171,-20.39 180.6,-15.9 170.3,-13.43 171,-20.39"/>
</a>
</g>
</g>
</g>
</svg>
