<?xml version="1.0" encoding="UTF-8" standalone="no"?>
<!DOCTYPE svg PUBLIC "-//W3C//DTD SVG 1.1//EN"
 "http://www.w3.org/Graphics/SVG/1.1/DTD/svg11.dtd">
<!-- Generated by graphviz version 2.43.0 (0)
 -->
<!-- Title: TgtInfo::TgtInfo Pages: 1 -->
<svg width="287pt" height="27pt"
 viewBox="0.00 0.00 287.00 27.00" xmlns="http://www.w3.org/2000/svg" xmlns:xlink="http://www.w3.org/1999/xlink">
<g id="graph0" class="graph" transform="scale(1 1) rotate(0) translate(4 23)">
<title>TgtInfo::TgtInfo</title>
<!-- Node1 -->
<g id="Node000001" class="node">
<title>Node1</title>
<g id="a_Node000001"><a xlink:title=" ">
<polygon fill="#999999" stroke="#666666" points="92,-19 0,-19 0,0 92,0 92,-19"/>
<text text-anchor="middle" x="46" y="-7" font-family="Ubuntu Mono" font-size="10.00">TgtInfo::TgtInfo</text>
</a>
</g>
</g>
<!-- Node2 -->
<g id="Node000002" class="node">
<title>Node2</title>
<g id="a_Node000002"><a xlink:href="classObjId.html#aad3d714ee57757ed3754a58edc9ad4a9" target="_top" xlink:title=" ">
<polygon fill="white" stroke="#666666" points="202,-19 128,-19 128,0 202,0 202,-19"/>
<text text-anchor="middle" x="165" y="-7" font-family="Ubuntu Mono" font-size="10.00">ObjId::ObjId</text>
</a>
</g>
</g>
<!-- Node1&#45;&gt;Node2 -->
<g id="edge1_Node000001_Node000002" class="edge">
<title>Node1&#45;&gt;Node2</title>
<g id="a_edge1_Node000001_Node000002"><a xlink:title=" ">
<path fill="none" stroke="#63b8ff" d="M92.24,-9.5C100.65,-9.5 109.45,-9.5 117.88,-9.5"/>
<polygon fill="#63b8ff" stroke="#63b8ff" points="117.95,-13 127.95,-9.5 117.95,-6 117.95,-13"/>
</a>
</g>
</g>
<!-- Node3 -->
<g id="Node000003" class="node">
<title>Node3</title>
<g id="a_Node000003"><a xlink:href="classId.html#ac094968605676d63b55ca33b7e318948" target="_top" xlink:title=" ">
<polygon fill="white" stroke="#666666" points="279,-19 238,-19 238,0 279,0 279,-19"/>
<text text-anchor="middle" x="258.5" y="-7" font-family="Ubuntu Mono" font-size="10.00">Id::Id</text>
</a>
</g>
</g>
<!-- Node2&#45;&gt;Node3 -->
<g id="edge2_Node000002_Node000003" class="edge">
<title>Node2&#45;&gt;Node3</title>
<g id="a_edge2_Node000002_Node000003"><a xlink:title=" ">
<path fill="none" stroke="#63b8ff" d="M202.16,-9.5C210.64,-9.5 219.57,-9.5 227.73,-9.5"/>
<polygon fill="#63b8ff" stroke="#63b8ff" points="227.91,-13 237.91,-9.5 227.91,-6 227.91,-13"/>
</a>
</g>
</g>
</g>
</svg>
