<?xml version="1.0" encoding="UTF-8" standalone="no"?>
<!DOCTYPE svg PUBLIC "-//W3C//DTD SVG 1.1//EN"
 "http://www.w3.org/Graphics/SVG/1.1/DTD/svg11.dtd">
<!-- Generated by graphviz version 2.43.0 (0)
 -->
<!-- Title: SparseMsg::setSeed Pages: 1 -->
<!--zoomable 1255 -->

<svg id="main" version="1.1" xmlns="http://www.w3.org/2000/svg" xmlns:xlink="http://www.w3.org/1999/xlink" xml:space="preserve" onload="init(evt)">
<style type="text/css"><![CDATA[
.node, .edge {opacity: 0.7;}
.node.selected, .edge.selected {opacity: 1;}
.edge:hover path { stroke: red; }
.edge:hover polygon { stroke: red; fill: red; }
]]></style>

<defs>
  <circle id="rim" cx="0" cy="0" r="7"/>
  <circle id="rim2" cx="0" cy="0" r="3.5"/>
  <g id="zoomPlus">
    <use xlink:href="#rim" fill="#404040"><set attributeName="fill" to="#808080" begin="zoomplus.mouseover" end="zoomplus.mouseout"/></use>
    <path d="M-4,0h8M0,-4v8" fill="none" stroke="white" stroke-width="1.5" pointer-events="none"/>
  </g>
  <g id="zoomMin">
    <use xlink:href="#rim" fill="#404040"><set attributeName="fill" to="#808080" begin="zoomminus.mouseover" end="zoomminus.mouseout"/></use>
    <path d="M-4,0h8" fill="none" stroke="white" stroke-width="1.5" pointer-events="none"/>
  </g>
  <g id="arrowUp" transform="translate(30 24)">
    <use xlink:href="#rim"/>
    <path pointer-events="none" fill="none" stroke="white" stroke-width="1.5" d="M0,-3.0v7 M-2.5,-0.5L0,-3.0L2.5,-0.5"/>
  </g>
  <g id="arrowRight" transform="rotate(90) translate(36 -43)">
    <use xlink:href="#rim"/>
    <path pointer-events="none" fill="none" stroke="white" stroke-width="1.5" d="M0,-3.0v7 M-2.5,-0.5L0,-3.0L2.5,-0.5"/>
  </g>
  <g id="arrowDown" transform="rotate(180) translate(-30 -48)">
    <use xlink:href="#rim"/>
    <path pointer-events="none" fill="none" stroke="white" stroke-width="1.5" d="M0,-3.0v7 M-2.5,-0.5L0,-3.0L2.5,-0.5"/>
  </g>
  <g id="arrowLeft" transform="rotate(270) translate(-36 17)">
    <use xlink:href="#rim"/>
    <path pointer-events="none" fill="none" stroke="white" stroke-width="1.5" d="M0,-3.0v7 M-2.5,-0.5L0,-3.0L2.5,-0.5"/>
  </g>
  <g id="resetDef">
    <use xlink:href="#rim2" fill="#404040"><set attributeName="fill" to="#808080" begin="reset.mouseover" end="reset.mouseout"/></use>
  </g>
</defs>
<script type="application/ecmascript">
var viewWidth = 1311;
var viewHeight = 1255;
var sectionId = 'dynsection-43';
</script>
<script type="application/ecmascript" xlink:href="svg.min.js"/>
<svg id="graph" class="graph">
<g id="viewport">
<title>SparseMsg::setSeed</title>
<!-- Node1 -->
<g id="Node000001" class="node">
<title>Node1</title>
<g id="a_Node000001"><a xlink:title=" ">
<polygon fill="#999999" stroke="#666666" points="1303,-887 1188,-887 1188,-868 1303,-868 1303,-887"/>
<text text-anchor="middle" x="1245.5" y="-875" font-family="Ubuntu Mono" font-size="10.00">SparseMsg::setSeed</text>
</a>
</g>
</g>
<!-- Node2 -->
<g id="Node000002" class="node">
<title>Node2</title>
<g id="a_Node000002"><a xlink:href="classSparseMsg.html#ab0ecf3046d28351986deb6790d2c7668" target="_top" xlink:title=" ">
<polygon fill="white" stroke="#666666" points="1146,-1057 1029,-1057 1029,-1038 1146,-1038 1146,-1057"/>
<text text-anchor="middle" x="1087.5" y="-1045" font-family="Ubuntu Mono" font-size="10.00">SparseMsg::initCinfo</text>
</a>
</g>
</g>
<!-- Node1&#45;&gt;Node2 -->
<g id="edge1_Node000001_Node000002" class="edge">
<title>Node1&#45;&gt;Node2</title>
<g id="a_edge1_Node000001_Node000002"><a xlink:title=" ">
<path fill="none" stroke="#63b8ff" d="M1228.67,-894.75C1196.1,-930.24 1122.53,-1010.41 1097.24,-1037.98"/>
<polygon fill="#63b8ff" stroke="#63b8ff" points="1231.48,-896.86 1235.67,-887.13 1226.33,-892.13 1231.48,-896.86"/>
</a>
</g>
</g>
<!-- Node8 -->
<g id="Node000008" class="node">
<title>Node8</title>
<g id="a_Node000008"><a xlink:href="classSparseMsg.html#aef132d1f2e4656cc54371f27280e3e1d" target="_top" xlink:title=" ">
<polygon fill="white" stroke="#666666" points="1152,-869 1023,-869 1023,-850 1152,-850 1152,-869"/>
<text text-anchor="middle" x="1087.5" y="-857" font-family="Ubuntu Mono" font-size="10.00">SparseMsg::SparseMsg</text>
</a>
</g>
</g>
<!-- Node1&#45;&gt;Node8 -->
<g id="edge7_Node000001_Node000008" class="edge">
<title>Node1&#45;&gt;Node8</title>
<g id="a_edge7_Node000001_Node000008"><a xlink:title=" ">
<path fill="none" stroke="#63b8ff" d="M1177.55,-869.77C1169.1,-868.8 1160.48,-867.8 1152.08,-866.84"/>
<polygon fill="#63b8ff" stroke="#63b8ff" points="1177.4,-873.28 1187.74,-870.95 1178.21,-866.33 1177.4,-873.28"/>
</a>
</g>
</g>
<!-- Node3 -->
<g id="Node000003" class="node">
<title>Node3</title>
<g id="a_Node000003"><a xlink:href="classMsg.html#af3de05897dc7602c64678a31c58ebece" target="_top" xlink:title=" ">
<polygon fill="white" stroke="#666666" points="987,-1209 860,-1209 860,-1190 987,-1190 987,-1209"/>
<text text-anchor="middle" x="923.5" y="-1197" font-family="Ubuntu Mono" font-size="10.00">Msg::initMsgManagers</text>
</a>
</g>
</g>
<!-- Node2&#45;&gt;Node3 -->
<g id="edge2_Node000002_Node000003" class="edge">
<title>Node2&#45;&gt;Node3</title>
<g id="a_edge2_Node000002_Node000003"><a xlink:title=" ">
<path fill="none" stroke="#63b8ff" d="M1069.03,-1063.89C1035.17,-1095.66 961.56,-1164.73 934.63,-1190"/>
<polygon fill="#63b8ff" stroke="#63b8ff" points="1071.47,-1066.4 1076.37,-1057.01 1066.68,-1061.3 1071.47,-1066.4"/>
</a>
</g>
</g>
<!-- Node4 -->
<g id="Node000004" class="node">
<title>Node4</title>
<g id="a_Node000004"><a xlink:href="main_8cpp.html#a6e304b494f9a324f952d9f2033b2b136" target="_top" xlink:title=" ">
<polygon fill="white" stroke="#666666" points="109,-633 77,-633 77,-614 109,-614 109,-633"/>
<text text-anchor="middle" x="93" y="-621" font-family="Ubuntu Mono" font-size="10.00">init</text>
</a>
</g>
</g>
<!-- Node3&#45;&gt;Node4 -->
<g id="edge3_Node000003_Node000004" class="edge">
<title>Node3&#45;&gt;Node4</title>
<g id="a_edge3_Node000003_Node000004"><a xlink:title=" ">
<path fill="none" stroke="#63b8ff" d="M849.54,-1199.5C780.99,-1199.5 675.53,-1199.5 584,-1199.5 584,-1199.5 584,-1199.5 387.5,-1199.5 241.08,-1199.5 213.31,-1106.01 145,-976.5 112.07,-914.06 97.34,-682.84 94.51,-633"/>
<polygon fill="#63b8ff" stroke="#63b8ff" points="849.8,-1203 859.8,-1199.5 849.8,-1196 849.8,-1203"/>
</a>
</g>
</g>
<!-- Node6 -->
<g id="Node000006" class="node">
<title>Node6</title>
<g id="a_Node000006"><a xlink:href="namespacepymoose.html#ac084ce08f68367317e7c014c61520ac9" target="_top" xlink:title="Initialize shell object.">
<polygon fill="white" stroke="#666666" points="818,-1247 711,-1247 711,-1228 818,-1228 818,-1247"/>
<text text-anchor="middle" x="764.5" y="-1235" font-family="Ubuntu Mono" font-size="10.00">pymoose::initShell</text>
</a>
</g>
</g>
<!-- Node3&#45;&gt;Node6 -->
<g id="edge5_Node000003_Node000006" class="edge">
<title>Node3&#45;&gt;Node6</title>
<g id="a_edge5_Node000003_Node000006"><a xlink:title=" ">
<path fill="none" stroke="#63b8ff" d="M873.05,-1211.47C851.05,-1216.79 825.51,-1222.98 804.83,-1227.98"/>
<polygon fill="#63b8ff" stroke="#63b8ff" points="873.99,-1214.84 882.88,-1209.09 872.34,-1208.04 873.99,-1214.84"/>
</a>
</g>
</g>
<!-- Node5 -->
<g id="Node000005" class="node">
<title>Node5</title>
<g id="a_Node000005"><a xlink:href="main_8cpp.html#a3c04138a5bfe5d72780bb7e82a18e627" target="_top" xlink:title=" ">
<polygon fill="white" stroke="#666666" points="41,-633 0,-633 0,-614 41,-614 41,-633"/>
<text text-anchor="middle" x="20.5" y="-621" font-family="Ubuntu Mono" font-size="10.00">main</text>
</a>
</g>
</g>
<!-- Node4&#45;&gt;Node5 -->
<g id="edge4_Node000004_Node000005" class="edge">
<title>Node4&#45;&gt;Node5</title>
<g id="a_edge4_Node000004_Node000005"><a xlink:title=" ">
<path fill="none" stroke="#63b8ff" d="M66.64,-623.5C58.22,-623.5 48.98,-623.5 41.06,-623.5"/>
<polygon fill="#63b8ff" stroke="#63b8ff" points="66.7,-627 76.7,-623.5 66.7,-620 66.7,-627"/>
</a>
</g>
</g>
<!-- Node7 -->
<g id="Node000007" class="node">
<title>Node7</title>
<g id="a_Node000007"><a xlink:href="pymoose_8cpp.html#a8650e41c2375717fa66fb61a653d866e" target="_top" xlink:title=" ">
<polygon fill="white" stroke="#666666" points="622.5,-1247 543.5,-1247 543.5,-1228 622.5,-1228 622.5,-1247"/>
<text text-anchor="middle" x="583" y="-1235" font-family="Ubuntu Mono" font-size="10.00">NB_MODULE</text>
</a>
</g>
</g>
<!-- Node6&#45;&gt;Node7 -->
<g id="edge6_Node000006_Node000007" class="edge">
<title>Node6&#45;&gt;Node7</title>
<g id="a_edge6_Node000006_Node000007"><a xlink:title=" ">
<path fill="none" stroke="#63b8ff" d="M700.47,-1237.5C674.5,-1237.5 645.25,-1237.5 622.56,-1237.5"/>
<polygon fill="#63b8ff" stroke="#63b8ff" points="700.61,-1241 710.61,-1237.5 700.61,-1234 700.61,-1241"/>
</a>
</g>
</g>
<!-- Node9 -->
<g id="Node000009" class="node">
<title>Node9</title>
<g id="a_Node000009"><a xlink:href="classSparseMsg.html#aa4587791f801348497bebcd060c84d7c" target="_top" xlink:title=" ">
<polygon fill="white" stroke="#666666" points="973,-851 874,-851 874,-832 973,-832 973,-851"/>
<text text-anchor="middle" x="923.5" y="-839" font-family="Ubuntu Mono" font-size="10.00">SparseMsg::copy</text>
</a>
</g>
</g>
<!-- Node8&#45;&gt;Node9 -->
<g id="edge8_Node000008_Node000009" class="edge">
<title>Node8&#45;&gt;Node9</title>
<g id="a_edge8_Node000008_Node000009"><a xlink:title=" ">
<path fill="none" stroke="#63b8ff" d="M1012.74,-851.3C999.29,-849.81 985.58,-848.29 973.1,-846.9"/>
<polygon fill="#63b8ff" stroke="#63b8ff" points="1012.61,-854.81 1022.94,-852.44 1013.39,-847.85 1012.61,-854.81"/>
</a>
</g>
</g>
<!-- Node10 -->
<g id="Node000010" class="node">
<title>Node10</title>
<g id="a_Node000010"><a xlink:href="classShell.html#a98a2b58d38600924754a62c4a1eb9869" target="_top" xlink:title=" ">
<polygon fill="white" stroke="#666666" points="978.5,-530 868.5,-530 868.5,-511 978.5,-511 978.5,-530"/>
<text text-anchor="middle" x="923.5" y="-518" font-family="Ubuntu Mono" font-size="10.00">Shell::innerAddMsg</text>
</a>
</g>
</g>
<!-- Node8&#45;&gt;Node10 -->
<g id="edge9_Node000008_Node000010" class="edge">
<title>Node8&#45;&gt;Node10</title>
<g id="a_edge9_Node000008_Node000010"><a xlink:title=" ">
<path fill="none" stroke="#63b8ff" d="M1077.44,-840.54C1047.38,-777.63 951.54,-577.09 929.19,-530.32"/>
<polygon fill="#63b8ff" stroke="#63b8ff" points="1074.36,-842.21 1081.83,-849.72 1080.67,-839.19 1074.36,-842.21"/>
</a>
</g>
</g>
<!-- Node91 -->
<g id="Node000091" class="node">
<title>Node91</title>
<g id="a_Node000091"><a xlink:href="testAsync_8cpp.html#a5c9622ce2d8da21ebf145351a41856d7" target="_top" xlink:title=" ">
<polygon fill="white" stroke="#666666" points="968,-888 879,-888 879,-869 968,-869 968,-888"/>
<text text-anchor="middle" x="923.5" y="-876" font-family="Ubuntu Mono" font-size="10.00">testSparseMsg</text>
</a>
</g>
</g>
<!-- Node8&#45;&gt;Node91 -->
<g id="edge56_Node000008_Node000091" class="edge">
<title>Node8&#45;&gt;Node91</title>
<g id="a_edge56_Node000008_Node000091"><a xlink:title=" ">
<path fill="none" stroke="#63b8ff" d="M1013,-868.12C997.76,-869.91 982.16,-871.74 968.39,-873.35"/>
<polygon fill="#63b8ff" stroke="#63b8ff" points="1013.41,-871.6 1022.94,-866.95 1012.6,-864.64 1013.41,-871.6"/>
</a>
</g>
</g>
<!-- Node11 -->
<g id="Node000011" class="node">
<title>Node11</title>
<g id="a_Node000011"><a xlink:href="classShell.html#a0c1ec0d744a47edb1ba863e63cebf69f" target="_top" xlink:title=" ">
<polygon fill="white" stroke="#666666" points="823,-149 706,-149 706,-130 823,-130 823,-149"/>
<text text-anchor="middle" x="764.5" y="-137" font-family="Ubuntu Mono" font-size="10.00">Shell::addClockMsgs</text>
</a>
</g>
</g>
<!-- Node10&#45;&gt;Node11 -->
<g id="edge10_Node000010_Node000011" class="edge">
<title>Node10&#45;&gt;Node11</title>
<g id="a_edge10_Node000010_Node000011"><a xlink:title=" ">
<path fill="none" stroke="#63b8ff" d="M914.49,-501.07C886.02,-431.98 790.31,-199.72 769.51,-149.24"/>
<polygon fill="#63b8ff" stroke="#63b8ff" points="911.42,-502.79 918.46,-510.7 917.89,-500.12 911.42,-502.79"/>
</a>
</g>
</g>
<!-- Node15 -->
<g id="Node000015" class="node">
<title>Node15</title>
<g id="a_Node000015"><a xlink:href="classShell.html#a65a582f672762a22cb5ed642e97cd824" target="_top" xlink:title=" ">
<polygon fill="white" stroke="#666666" points="813.5,-613 715.5,-613 715.5,-594 813.5,-594 813.5,-613"/>
<text text-anchor="middle" x="764.5" y="-601" font-family="Ubuntu Mono" font-size="10.00">Shell::doAddMsg</text>
</a>
</g>
</g>
<!-- Node10&#45;&gt;Node15 -->
<g id="edge15_Node000010_Node000015" class="edge">
<title>Node10&#45;&gt;Node15</title>
<g id="a_edge15_Node000010_Node000015"><a xlink:title=" ">
<path fill="none" stroke="#63b8ff" d="M895.27,-534.89C863.33,-551.78 811.25,-579.32 783.78,-593.83"/>
<polygon fill="#63b8ff" stroke="#63b8ff" points="897.29,-537.79 904.49,-530.02 894.01,-531.6 897.29,-537.79"/>
</a>
</g>
</g>
<!-- Node90 -->
<g id="Node000090" class="node">
<title>Node90</title>
<g id="a_Node000090"><a xlink:href="classShell.html#a9e010f7a7f63e28fe2ca4ffdba89653b" target="_top" xlink:title=" ">
<polygon fill="white" stroke="#666666" points="824,-446 705,-446 705,-427 824,-427 824,-446"/>
<text text-anchor="middle" x="764.5" y="-434" font-family="Ubuntu Mono" font-size="10.00">Shell::handleAddMsg</text>
</a>
</g>
</g>
<!-- Node10&#45;&gt;Node90 -->
<g id="edge54_Node000010_Node000090" class="edge">
<title>Node10&#45;&gt;Node90</title>
<g id="a_edge54_Node000010_Node000090"><a xlink:title=" ">
<path fill="none" stroke="#63b8ff" d="M895.63,-506.13C863.53,-488.95 810.73,-460.7 783.3,-446.02"/>
<polygon fill="#63b8ff" stroke="#63b8ff" points="894.02,-509.23 904.49,-510.86 897.32,-503.06 894.02,-509.23"/>
</a>
</g>
</g>
<!-- Node12 -->
<g id="Node000012" class="node">
<title>Node12</title>
<g id="a_Node000012"><a xlink:href="classShell.html#a08347567ba1c0b41d5e103beb4f455b5" target="_top" xlink:title=" ">
<polygon fill="white" stroke="#666666" points="641.5,-19 524.5,-19 524.5,0 641.5,0 641.5,-19"/>
<text text-anchor="middle" x="583" y="-7" font-family="Ubuntu Mono" font-size="10.00">Shell::innerUseClock</text>
</a>
</g>
</g>
<!-- Node11&#45;&gt;Node12 -->
<g id="edge11_Node000011_Node000012" class="edge">
<title>Node11&#45;&gt;Node12</title>
<g id="a_edge11_Node000011_Node000012"><a xlink:title=" ">
<path fill="none" stroke="#63b8ff" d="M752.27,-121.53C736.55,-97.83 705.72,-56.47 669,-33.5 658.99,-27.24 647.31,-22.57 635.87,-19.11"/>
<polygon fill="#63b8ff" stroke="#63b8ff" points="749.35,-123.45 757.72,-129.94 755.23,-119.65 749.35,-123.45"/>
</a>
</g>
</g>
<!-- Node13 -->
<g id="Node000013" class="node">
<title>Node13</title>
<g id="a_Node000013"><a xlink:href="classShell.html#adc528bef77467d1515e62e1adbd12c4e" target="_top" xlink:title=" ">
<polygon fill="white" stroke="#666666" points="451,-19 326,-19 326,0 451,0 451,-19"/>
<text text-anchor="middle" x="388.5" y="-7" font-family="Ubuntu Mono" font-size="10.00">Shell::handleUseClock</text>
</a>
</g>
</g>
<!-- Node12&#45;&gt;Node13 -->
<g id="edge12_Node000012_Node000013" class="edge">
<title>Node12&#45;&gt;Node13</title>
<g id="a_edge12_Node000012_Node000013"><a xlink:title=" ">
<path fill="none" stroke="#63b8ff" d="M514.06,-9.5C493.6,-9.5 471.27,-9.5 451.24,-9.5"/>
<polygon fill="#63b8ff" stroke="#63b8ff" points="514.24,-13 524.24,-9.5 514.24,-6 514.24,-13"/>
</a>
</g>
</g>
<!-- Node14 -->
<g id="Node000014" class="node">
<title>Node14</title>
<g id="a_Node000014"><a xlink:href="classShell.html#a907372fb6d91df75ff6a682da3d60487" target="_top" xlink:title=" ">
<polygon fill="white" stroke="#666666" points="256.5,-57 168.5,-57 168.5,-38 256.5,-38 256.5,-57"/>
<text text-anchor="middle" x="212.5" y="-45" font-family="Ubuntu Mono" font-size="10.00">Shell::initCinfo</text>
</a>
</g>
</g>
<!-- Node13&#45;&gt;Node14 -->
<g id="edge13_Node000013_Node000014" class="edge">
<title>Node13&#45;&gt;Node14</title>
<g id="a_edge13_Node000013_Node000014"><a xlink:title=" ">
<path fill="none" stroke="#63b8ff" d="M333.65,-21.26C308.95,-26.66 280.05,-32.97 256.79,-38.05"/>
<polygon fill="#63b8ff" stroke="#63b8ff" points="334.57,-24.64 343.59,-19.09 333.08,-17.8 334.57,-24.64"/>
</a>
</g>
</g>
<!-- Node14&#45;&gt;Node4 -->
<g id="edge14_Node000014_Node000004" class="edge">
<title>Node14&#45;&gt;Node4</title>
<g id="a_edge14_Node000014_Node000004"><a xlink:title=" ">
<path fill="none" stroke="#63b8ff" d="M207.54,-66.89C188.85,-158.55 109.67,-546.66 96.01,-613.64"/>
<polygon fill="#63b8ff" stroke="#63b8ff" points="210.99,-67.51 209.56,-57.02 204.13,-66.12 210.99,-67.51"/>
</a>
</g>
</g>
<!-- Node16 -->
<g id="Node000016" class="node">
<title>Node16</title>
<g id="a_Node000016"><a xlink:href="classReadCell.html#a755bfe4d36bce9739f78ab4026d2bf18" target="_top" xlink:title=" ">
<polygon fill="white" stroke="#666666" points="669,-1023 497,-1023 497,-1004 669,-1004 669,-1023"/>
<text text-anchor="middle" x="583" y="-1011" font-family="Ubuntu Mono" font-size="10.00">ReadCell::addCanonicalChannel</text>
</a>
</g>
</g>
<!-- Node15&#45;&gt;Node16 -->
<g id="edge16_Node000015_Node000016" class="edge">
<title>Node15&#45;&gt;Node16</title>
<g id="a_edge16_Node000015_Node000016"><a xlink:title=" ">
<path fill="none" stroke="#63b8ff" d="M761.45,-623.39C753.61,-695.41 723.26,-941.17 669,-994.5 665.12,-998.32 660.65,-1001.43 655.83,-1003.98"/>
<polygon fill="#63b8ff" stroke="#63b8ff" points="764.97,-623.35 762.55,-613.04 758.01,-622.61 764.97,-623.35"/>
</a>
</g>
</g>
<!-- Node24 -->
<g id="Node000024" class="node">
<title>Node24</title>
<g id="a_Node000024"><a xlink:href="classReadCell.html#ab1bca79aa0e5a2c95bbc1ff9dc4d2f94" target="_top" xlink:title=" ">
<polygon fill="white" stroke="#666666" points="666.5,-949 499.5,-949 499.5,-930 666.5,-930 666.5,-949"/>
<text text-anchor="middle" x="583" y="-937" font-family="Ubuntu Mono" font-size="10.00">ReadCell::addChannelMessage</text>
</a>
</g>
</g>
<!-- Node15&#45;&gt;Node24 -->
<g id="edge19_Node000015_Node000024" class="edge">
<title>Node15&#45;&gt;Node24</title>
<g id="a_edge19_Node000015_Node000024"><a xlink:title=" ">
<path fill="none" stroke="#63b8ff" d="M763.65,-623.08C762.96,-677.63 753.29,-832.79 669,-915.5 662.54,-921.84 654.55,-926.53 646.06,-929.99"/>
<polygon fill="#63b8ff" stroke="#63b8ff" points="767.15,-623.04 763.68,-613.03 760.15,-623.01 767.15,-623.04"/>
</a>
</g>
</g>
<!-- Node25 -->
<g id="Node000025" class="node">
<title>Node25</title>
<g id="a_Node000025"><a xlink:href="Neuron_8cpp.html#adde4343504c9e307093eea09b3fd8b78" target="_top" xlink:title=" ">
<polygon fill="#fff0f0" stroke="red" points="461,-911 316,-911 316,-892 461,-892 461,-911"/>
<text text-anchor="middle" x="388.5" y="-899" font-family="Ubuntu Mono" font-size="10.00">doClassSpecificMessaging</text>
</a>
</g>
</g>
<!-- Node15&#45;&gt;Node25 -->
<g id="edge34_Node000015_Node000025" class="edge">
<title>Node15&#45;&gt;Node25</title>
<g id="a_edge34_Node000015_Node000025"><a xlink:title=" ">
<path fill="none" stroke="#63b8ff" d="M763.29,-623.19C761.58,-674.05 749.35,-810.23 669,-873.5 602.71,-925.69 498.38,-920.13 437.69,-911.04"/>
<polygon fill="#63b8ff" stroke="#63b8ff" points="766.79,-623.26 763.52,-613.18 759.79,-623.1 766.79,-623.26"/>
</a>
</g>
</g>
<!-- Node29 -->
<g id="Node000029" class="node">
<title>Node29</title>
<g id="a_Node000029"><a xlink:href="classReadKkit.html#a2034f1d21fc64b350d9b0cf738d8fa1a" target="_top" xlink:title=" ">
<polygon fill="white" stroke="#666666" points="441.5,-650 335.5,-650 335.5,-631 441.5,-631 441.5,-650"/>
<text text-anchor="middle" x="388.5" y="-638" font-family="Ubuntu Mono" font-size="10.00">ReadKkit::addmsg</text>
</a>
</g>
</g>
<!-- Node15&#45;&gt;Node29 -->
<g id="edge22_Node000015_Node000029" class="edge">
<title>Node15&#45;&gt;Node29</title>
<g id="a_edge22_Node000015_Node000029"><a xlink:title=" ">
<path fill="none" stroke="#63b8ff" d="M762.7,-623.35C759.57,-671.11 744.23,-792.27 669,-843.5 605.81,-886.53 562.49,-882.93 497,-843.5 422.86,-798.87 397.17,-684.04 391.06,-650.09"/>
<polygon fill="#63b8ff" stroke="#63b8ff" points="766.21,-623.29 763.25,-613.11 759.22,-622.91 766.21,-623.29"/>
</a>
</g>
</g>
<!-- Node34 -->
<g id="Node000034" class="node">
<title>Node34</title>
<g id="a_Node000034"><a xlink:href="classReadCell.html#a834cfe84c39ab54fbf857ab23a6bd7e1" target="_top" xlink:title=" ">
<polygon fill="white" stroke="#666666" points="648,-986 518,-986 518,-967 648,-967 648,-986"/>
<text text-anchor="middle" x="583" y="-974" font-family="Ubuntu Mono" font-size="10.00">ReadCell::addSpikeGen</text>
</a>
</g>
</g>
<!-- Node15&#45;&gt;Node34 -->
<g id="edge24_Node000015_Node000034" class="edge">
<title>Node15&#45;&gt;Node34</title>
<g id="a_edge24_Node000015_Node000034"><a xlink:title=" ">
<path fill="none" stroke="#63b8ff" d="M760.93,-623.24C751.77,-690.61 718.56,-909.93 669,-957.5 663.11,-963.15 655.92,-967.27 648.25,-970.24"/>
<polygon fill="#63b8ff" stroke="#63b8ff" points="764.42,-623.51 762.28,-613.14 757.49,-622.58 764.42,-623.51"/>
</a>
</g>
</g>
<!-- Node35 -->
<g id="Node000035" class="node">
<title>Node35</title>
<g id="a_Node000035"><a xlink:href="Neuron_8cpp.html#ada5cc7cc086896a965af4cc6bba46da1" target="_top" xlink:title=" ">
<polygon fill="#fff0f0" stroke="red" points="614,-835 552,-835 552,-816 614,-816 614,-835"/>
<text text-anchor="middle" x="583" y="-823" font-family="Ubuntu Mono" font-size="10.00">addSpine</text>
</a>
</g>
</g>
<!-- Node15&#45;&gt;Node35 -->
<g id="edge26_Node000015_Node000035" class="edge">
<title>Node15&#45;&gt;Node35</title>
<g id="a_edge26_Node000015_Node000035"><a xlink:title=" ">
<path fill="none" stroke="#63b8ff" d="M760.21,-623.53C752.35,-664.62 728.52,-758.61 669,-806.5 653.68,-818.82 632,-823.53 614.37,-825.18"/>
<polygon fill="#63b8ff" stroke="#63b8ff" points="763.7,-623.88 762.02,-613.42 756.81,-622.65 763.7,-623.88"/>
</a>
</g>
</g>
<!-- Node38 -->
<g id="Node000038" class="node">
<title>Node38</title>
<g id="a_Node000038"><a xlink:href="testMsg_8cpp.html#a54ea8605933a0f2d273e5c7bb10a390d" target="_top" xlink:title=" ">
<polygon fill="white" stroke="#666666" points="629,-798 537,-798 537,-779 629,-779 629,-798"/>
<text text-anchor="middle" x="583" y="-786" font-family="Ubuntu Mono" font-size="10.00">benchmarkMsg</text>
</a>
</g>
</g>
<!-- Node15&#45;&gt;Node38 -->
<g id="edge27_Node000015_Node000038" class="edge">
<title>Node15&#45;&gt;Node38</title>
<g id="a_edge27_Node000015_Node000038"><a xlink:title=" ">
<path fill="none" stroke="#63b8ff" d="M758.07,-623.22C747.29,-658.44 719.77,-731.97 669,-769.5 657.57,-777.95 643.07,-782.76 629.3,-785.45"/>
<polygon fill="#63b8ff" stroke="#63b8ff" points="761.54,-623.81 760.98,-613.23 754.82,-621.85 761.54,-623.81"/>
</a>
</g>
</g>
<!-- Node39 -->
<g id="Node000039" class="node">
<title>Node39</title>
<g id="a_Node000039"><a xlink:href="classReadSwc.html#a542eecd2af5b5e8b4587d6a4ca298607" target="_top" xlink:title=" ">
<polygon fill="#fff0f0" stroke="red" points="628.5,-761 537.5,-761 537.5,-742 628.5,-742 628.5,-761"/>
<text text-anchor="middle" x="583" y="-749" font-family="Ubuntu Mono" font-size="10.00">ReadSwc::build</text>
</a>
</g>
</g>
<!-- Node15&#45;&gt;Node39 -->
<g id="edge28_Node000015_Node000039" class="edge">
<title>Node15&#45;&gt;Node39</title>
<g id="a_edge28_Node000015_Node000039"><a xlink:title=" ">
<path fill="none" stroke="#63b8ff" d="M755.11,-622.4C741.4,-650.97 711.42,-704.75 669,-732.5 657.1,-740.28 642.48,-744.91 628.74,-747.65"/>
<polygon fill="#63b8ff" stroke="#63b8ff" points="758.38,-623.65 759.41,-613.11 752.03,-620.71 758.38,-623.65"/>
</a>
</g>
</g>
<!-- Node40 -->
<g id="Node000040" class="node">
<title>Node40</title>
<g id="a_Node000040"><a xlink:href="classReadCell.html#a1113d754c8abecf8a46850596bd074bd" target="_top" xlink:title=" ">
<polygon fill="#fff0f0" stroke="red" points="662,-724 504,-724 504,-705 662,-705 662,-724"/>
<text text-anchor="middle" x="583" y="-712" font-family="Ubuntu Mono" font-size="10.00">ReadCell::buildCompartment</text>
</a>
</g>
</g>
<!-- Node15&#45;&gt;Node40 -->
<g id="edge29_Node000015_Node000040" class="edge">
<title>Node15&#45;&gt;Node40</title>
<g id="a_edge29_Node000015_Node000040"><a xlink:title=" ">
<path fill="none" stroke="#63b8ff" d="M750.44,-621.17C733.9,-642.23 703.36,-676.91 669,-695.5 661.82,-699.39 653.88,-702.48 645.84,-704.94"/>
<polygon fill="#63b8ff" stroke="#63b8ff" points="753.35,-623.13 756.65,-613.06 747.79,-618.88 753.35,-623.13"/>
</a>
</g>
</g>
<!-- Node41 -->
<g id="Node000041" class="node">
<title>Node41</title>
<g id="a_Node000041"><a xlink:href="classReadKkit.html#a268787a040b52c1a0cd0cf1ecf5292e1" target="_top" xlink:title=" ">
<polygon fill="#fff0f0" stroke="red" points="637,-687 529,-687 529,-668 637,-668 637,-687"/>
<text text-anchor="middle" x="583" y="-675" font-family="Ubuntu Mono" font-size="10.00">ReadKkit::buildEnz</text>
</a>
</g>
</g>
<!-- Node15&#45;&gt;Node41 -->
<g id="edge30_Node000015_Node000041" class="edge">
<title>Node15&#45;&gt;Node41</title>
<g id="a_edge30_Node000015_Node000041"><a xlink:title=" ">
<path fill="none" stroke="#63b8ff" d="M741.77,-618.75C723.22,-631.12 695.43,-648.14 669,-658.5 659,-662.42 648.01,-665.62 637.35,-668.21"/>
<polygon fill="#63b8ff" stroke="#63b8ff" points="743.78,-621.62 750.09,-613.1 739.85,-615.83 743.78,-621.62"/>
</a>
</g>
</g>
<!-- Node43 -->
<g id="Node000043" class="node">
<title>Node43</title>
<g id="a_Node000043"><a xlink:href="classReadKkit.html#ad9fb46d07bff78ec23ef11c10d4ed764" target="_top" xlink:title=" ">
<polygon fill="white" stroke="#666666" points="651,-650 515,-650 515,-631 651,-631 651,-650"/>
<text text-anchor="middle" x="583" y="-638" font-family="Ubuntu Mono" font-size="10.00">ReadKkit::buildSumTotal</text>
</a>
</g>
</g>
<!-- Node15&#45;&gt;Node43 -->
<g id="edge31_Node000015_Node000043" class="edge">
<title>Node15&#45;&gt;Node43</title>
<g id="a_edge31_Node000015_Node000043"><a xlink:title=" ">
<path fill="none" stroke="#63b8ff" d="M707.3,-615.08C682.57,-620.18 653.87,-626.1 630.38,-630.94"/>
<polygon fill="#63b8ff" stroke="#63b8ff" points="708.19,-618.48 717.27,-613.03 706.77,-611.62 708.19,-618.48"/>
</a>
</g>
</g>
<!-- Node44 -->
<g id="Node000044" class="node">
<title>Node44</title>
<g id="a_Node000044"><a xlink:href="namespacepymoose.html#a6e5b0d80b93411c9178b6c0eee779c5b" target="_top" xlink:title="Connect to another ObjId.">
<polygon fill="#fff0f0" stroke="red" points="636,-613 530,-613 530,-594 636,-594 636,-613"/>
<text text-anchor="middle" x="583" y="-601" font-family="Ubuntu Mono" font-size="10.00">pymoose::connect</text>
</a>
</g>
</g>
<!-- Node15&#45;&gt;Node44 -->
<g id="edge33_Node000015_Node000044" class="edge">
<title>Node15&#45;&gt;Node44</title>
<g id="a_edge33_Node000015_Node000044"><a xlink:title=" ">
<path fill="none" stroke="#63b8ff" d="M705.37,-603.5C683.05,-603.5 657.73,-603.5 636.02,-603.5"/>
<polygon fill="#63b8ff" stroke="#63b8ff" points="705.4,-607 715.4,-603.5 705.4,-600 705.4,-607"/>
</a>
</g>
</g>
<!-- Node48 -->
<g id="Node000048" class="node">
<title>Node48</title>
<g id="a_Node000048"><a xlink:href="classReadCspace.html#a3c03888f85cf51cf35f06455125f2a87" target="_top" xlink:title=" ">
<polygon fill="#fff0f0" stroke="red" points="662,-576 504,-576 504,-557 662,-557 662,-576"/>
<text text-anchor="middle" x="583" y="-564" font-family="Ubuntu Mono" font-size="10.00">ReadCspace::expandEnzyme</text>
</a>
</g>
</g>
<!-- Node15&#45;&gt;Node48 -->
<g id="edge35_Node000015_Node000048" class="edge">
<title>Node15&#45;&gt;Node48</title>
<g id="a_edge35_Node000015_Node000048"><a xlink:title=" ">
<path fill="none" stroke="#63b8ff" d="M707.3,-591.92C682.57,-586.82 653.87,-580.9 630.38,-576.06"/>
<polygon fill="#63b8ff" stroke="#63b8ff" points="706.77,-595.38 717.27,-593.97 708.19,-588.52 706.77,-595.38"/>
</a>
</g>
</g>
<!-- Node54 -->
<g id="Node000054" class="node">
<title>Node54</title>
<g id="a_Node000054"><a xlink:href="classReadCspace.html#ac9fe783afae091378e09c55724bc5e1e" target="_top" xlink:title=" ">
<polygon fill="#fff0f0" stroke="red" points="663.5,-539 502.5,-539 502.5,-520 663.5,-520 663.5,-539"/>
<text text-anchor="middle" x="583" y="-527" font-family="Ubuntu Mono" font-size="10.00">ReadCspace::expandReaction</text>
</a>
</g>
</g>
<!-- Node15&#45;&gt;Node54 -->
<g id="edge36_Node000015_Node000054" class="edge">
<title>Node15&#45;&gt;Node54</title>
<g id="a_edge36_Node000015_Node000054"><a xlink:title=" ">
<path fill="none" stroke="#63b8ff" d="M742.16,-588.09C723.66,-575.42 695.72,-557.92 669,-547.5 660.43,-544.16 651.11,-541.39 641.9,-539.1"/>
<polygon fill="#63b8ff" stroke="#63b8ff" points="740.24,-591.02 750.44,-593.87 744.25,-585.28 740.24,-591.02"/>
</a>
</g>
</g>
<!-- Node55 -->
<g id="Node000055" class="node">
<title>Node55</title>
<g id="a_Node000055"><a xlink:href="classReadKkit.html#af8f8e6f2d9dffff1db4e31bbb68fc479" target="_top" xlink:title=" ">
<polygon fill="#fff0f0" stroke="red" points="648.5,-502 517.5,-502 517.5,-483 648.5,-483 648.5,-502"/>
<text text-anchor="middle" x="583" y="-490" font-family="Ubuntu Mono" font-size="10.00">ReadKkit::innerAddMsg</text>
</a>
</g>
</g>
<!-- Node15&#45;&gt;Node55 -->
<g id="edge37_Node000015_Node000055" class="edge">
<title>Node15&#45;&gt;Node55</title>
<g id="a_edge37_Node000015_Node000055"><a xlink:title=" ">
<path fill="none" stroke="#63b8ff" d="M750.52,-585.57C734.06,-564.21 703.6,-529.09 669,-510.5 662.62,-507.07 655.65,-504.3 648.52,-502.05"/>
<polygon fill="#63b8ff" stroke="#63b8ff" points="747.89,-587.9 756.7,-593.79 753.49,-583.7 747.89,-587.9"/>
</a>
</g>
</g>
<!-- Node57 -->
<g id="Node000057" class="node">
<title>Node57</title>
<g id="a_Node000057"><a xlink:href="testMesh_8cpp.html#a9e44cc07b56e61483742d44b0347c0ec" target="_top" xlink:title=" ">
<polygon fill="#fff0f0" stroke="red" points="621,-465 545,-465 545,-446 621,-446 621,-465"/>
<text text-anchor="middle" x="583" y="-453" font-family="Ubuntu Mono" font-size="10.00">makeCompt</text>
</a>
</g>
</g>
<!-- Node15&#45;&gt;Node57 -->
<g id="edge39_Node000015_Node000057" class="edge">
<title>Node15&#45;&gt;Node57</title>
<g id="a_edge39_Node000015_Node000057"><a xlink:title=" ">
<path fill="none" stroke="#63b8ff" d="M755.19,-584.4C741.58,-555.53 711.74,-501.22 669,-473.5 654.95,-464.39 637.11,-459.79 621.4,-457.51"/>
<polygon fill="#63b8ff" stroke="#63b8ff" points="752.13,-586.13 759.46,-593.78 758.5,-583.23 752.13,-586.13"/>
</a>
</g>
</g>
<!-- Node61 -->
<g id="Node000061" class="node">
<title>Node61</title>
<g id="a_Node000061"><a xlink:href="classReadCspace.html#a926cac465519504a57c647866fd5074d" target="_top" xlink:title=" ">
<polygon fill="#fff0f0" stroke="red" points="650,-428 516,-428 516,-409 650,-409 650,-428"/>
<text text-anchor="middle" x="583" y="-416" font-family="Ubuntu Mono" font-size="10.00">ReadCspace::makePlots</text>
</a>
</g>
</g>
<!-- Node15&#45;&gt;Node61 -->
<g id="edge40_Node000015_Node000061" class="edge">
<title>Node15&#45;&gt;Node61</title>
<g id="a_edge40_Node000015_Node000061"><a xlink:title=" ">
<path fill="none" stroke="#63b8ff" d="M758.28,-584.06C747.73,-548.73 720.39,-474.15 669,-436.5 663.28,-432.31 656.8,-429.05 650.02,-426.52"/>
<polygon fill="#63b8ff" stroke="#63b8ff" points="754.92,-585.03 761.02,-593.68 761.65,-583.11 754.92,-585.03"/>
</a>
</g>
</g>
<!-- Node62 -->
<g id="Node000062" class="node">
<title>Node62</title>
<g id="a_Node000062"><a xlink:href="testKsolve_8cpp.html#a8babb7a6c1c6136efc11b6793fc82ded" target="_top" xlink:title=" ">
<polygon fill="#fff0f0" stroke="red" points="626.5,-391 539.5,-391 539.5,-372 626.5,-372 626.5,-391"/>
<text text-anchor="middle" x="583" y="-379" font-family="Ubuntu Mono" font-size="10.00">makeReacTest</text>
</a>
</g>
</g>
<!-- Node15&#45;&gt;Node62 -->
<g id="edge41_Node000015_Node000062" class="edge">
<title>Node15&#45;&gt;Node62</title>
<g id="a_edge41_Node000015_Node000062"><a xlink:title=" ">
<path fill="none" stroke="#63b8ff" d="M755.86,-584.55C736.28,-536.36 684.71,-412.02 669,-399.5 657.09,-390.01 641.34,-385.2 626.64,-382.86"/>
<polygon fill="#63b8ff" stroke="#63b8ff" points="752.63,-585.9 759.63,-593.86 759.12,-583.27 752.63,-585.9"/>
</a>
</g>
</g>
<!-- Node71 -->
<g id="Node000071" class="node">
<title>Node71</title>
<g id="a_Node000071"><a xlink:href="classStoich.html#a44698a8a652534dc594bd87f450d93c0" target="_top" xlink:title=" ">
<polygon fill="#fff0f0" stroke="red" points="627.5,-354 538.5,-354 538.5,-335 627.5,-335 627.5,-354"/>
<text text-anchor="middle" x="583" y="-342" font-family="Ubuntu Mono" font-size="10.00">Stoich::setElist</text>
</a>
</g>
</g>
<!-- Node15&#45;&gt;Node71 -->
<g id="edge42_Node000015_Node000071" class="edge">
<title>Node15&#45;&gt;Node71</title>
<g id="a_edge42_Node000015_Node000071"><a xlink:title=" ">
<path fill="none" stroke="#63b8ff" d="M755.92,-584.22C744.76,-555.82 723.26,-501.07 705,-454.5 688.98,-413.62 702.49,-390.9 669,-362.5 657.61,-352.84 642.32,-347.96 627.84,-345.61"/>
<polygon fill="#63b8ff" stroke="#63b8ff" points="752.75,-585.71 759.66,-593.74 759.26,-583.15 752.75,-585.71"/>
</a>
</g>
</g>
<!-- Node75 -->
<g id="Node000075" class="node">
<title>Node75</title>
<g id="a_Node000075"><a xlink:href="testMsg_8cpp.html#a702283b869ec387b3a13e71e7393e362" target="_top" xlink:title=" ">
<polygon fill="#fff0f0" stroke="red" points="632,-317 534,-317 534,-298 632,-298 632,-317"/>
<text text-anchor="middle" x="583" y="-305" font-family="Ubuntu Mono" font-size="10.00">testAssortedMsg</text>
</a>
</g>
</g>
<!-- Node15&#45;&gt;Node75 -->
<g id="edge43_Node000015_Node000075" class="edge">
<title>Node15&#45;&gt;Node75</title>
<g id="a_edge43_Node000015_Node000075"><a xlink:title=" ">
<path fill="none" stroke="#63b8ff" d="M755.29,-584.44C743.35,-556.33 720.88,-501.93 705,-454.5 686.1,-398.06 712.4,-366.23 669,-325.5 659.1,-316.21 645.66,-311.23 632.38,-308.67"/>
<polygon fill="#63b8ff" stroke="#63b8ff" points="752.17,-586.04 759.32,-593.86 758.61,-583.29 752.17,-586.04"/>
</a>
</g>
</g>
<!-- Node77 -->
<g id="Node000077" class="node">
<title>Node77</title>
<g id="a_Node000077"><a xlink:href="testDiffusion_8cpp.html#a7a195f69ab90f31794c50ab37f0520b9" target="_top" xlink:title=" ">
<polygon fill="#fff0f0" stroke="red" points="630.5,-280 535.5,-280 535.5,-261 630.5,-261 630.5,-280"/>
<text text-anchor="middle" x="583" y="-268" font-family="Ubuntu Mono" font-size="10.00">testCalcJunction</text>
</a>
</g>
</g>
<!-- Node15&#45;&gt;Node77 -->
<g id="edge44_Node000015_Node000077" class="edge">
<title>Node15&#45;&gt;Node77</title>
<g id="a_edge44_Node000015_Node000077"><a xlink:title=" ">
<path fill="none" stroke="#63b8ff" d="M754.93,-584.56C742.52,-556.59 719.49,-502.38 705,-454.5 683.13,-382.24 722.51,-341.75 669,-288.5 658.84,-278.39 644.52,-273.31 630.52,-270.91"/>
<polygon fill="#63b8ff" stroke="#63b8ff" points="751.84,-586.23 759.12,-593.93 758.23,-583.37 751.84,-586.23"/>
</a>
</g>
</g>
<!-- Node78 -->
<g id="Node000078" class="node">
<title>Node78</title>
<g id="a_Node000078"><a xlink:href="testBuiltins_8cpp.html#ae0e71e5c15d8c5e9258b1c3bc4df7ce8" target="_top" xlink:title=" ">
<polygon fill="#fff0f0" stroke="red" points="619.5,-243 546.5,-243 546.5,-224 619.5,-224 619.5,-243"/>
<text text-anchor="middle" x="583" y="-231" font-family="Ubuntu Mono" font-size="10.00">testGetMsg</text>
</a>
</g>
</g>
<!-- Node15&#45;&gt;Node78 -->
<g id="edge45_Node000015_Node000078" class="edge">
<title>Node15&#45;&gt;Node78</title>
<g id="a_edge45_Node000015_Node000078"><a xlink:title=" ">
<path fill="none" stroke="#63b8ff" d="M754.68,-584.63C741.98,-556.75 718.58,-502.65 705,-454.5 680.13,-366.31 732.71,-317.36 669,-251.5 656.41,-238.49 636.95,-233.72 619.82,-232.33"/>
<polygon fill="#63b8ff" stroke="#63b8ff" points="751.62,-586.35 758.98,-593.97 757.98,-583.42 751.62,-586.35"/>
</a>
</g>
</g>
<!-- Node80 -->
<g id="Node000080" class="node">
<title>Node80</title>
<g id="a_Node000080"><a xlink:href="testKinetics_8cpp.html#aecb5ba8faf06279dca27fa2fe90d620e" target="_top" xlink:title=" ">
<polygon fill="#fff0f0" stroke="red" points="637,-206 529,-206 529,-187 637,-187 637,-206"/>
<text text-anchor="middle" x="583" y="-194" font-family="Ubuntu Mono" font-size="10.00">testMMenzProcess</text>
</a>
</g>
</g>
<!-- Node15&#45;&gt;Node80 -->
<g id="edge46_Node000015_Node000080" class="edge">
<title>Node15&#45;&gt;Node80</title>
<g id="a_edge46_Node000015_Node000080"><a xlink:title=" ">
<path fill="none" stroke="#63b8ff" d="M754.51,-584.68C741.6,-556.86 717.93,-502.82 705,-454.5 691.06,-402.4 705.98,-253.76 669,-214.5 660.62,-205.61 649.04,-200.54 637.11,-197.77"/>
<polygon fill="#63b8ff" stroke="#63b8ff" points="751.47,-586.43 758.89,-593.99 757.81,-583.45 751.47,-586.43"/>
</a>
</g>
</g>
<!-- Node82 -->
<g id="Node000082" class="node">
<title>Node82</title>
<g id="a_Node000082"><a xlink:href="testBuiltins_8cpp.html#ae0ef11dccb7ea317c737e2b6c18f7a82" target="_top" xlink:title=" ">
<polygon fill="white" stroke="#666666" points="632.5,-169 533.5,-169 533.5,-150 632.5,-150 632.5,-169"/>
<text text-anchor="middle" x="583" y="-157" font-family="Ubuntu Mono" font-size="10.00">testMpiFibonacci</text>
</a>
</g>
</g>
<!-- Node15&#45;&gt;Node82 -->
<g id="edge47_Node000015_Node000082" class="edge">
<title>Node15&#45;&gt;Node82</title>
<g id="a_edge47_Node000015_Node000082"><a xlink:title=" ">
<path fill="none" stroke="#63b8ff" d="M754.19,-584.3C741.08,-556.4 717.4,-502.71 705,-454.5 689.54,-394.38 711.11,-223.1 669,-177.5 659.69,-167.42 646.25,-162.23 632.81,-159.73"/>
<polygon fill="#63b8ff" stroke="#63b8ff" points="751.2,-586.14 758.66,-593.67 757.51,-583.13 751.2,-586.14"/>
</a>
</g>
</g>
<!-- Node83 -->
<g id="Node000083" class="node">
<title>Node83</title>
<g id="a_Node000083"><a xlink:href="testMsg_8cpp.html#a8a05c92f21ea6a8f5e40649af39f1ce7" target="_top" xlink:title=" ">
<polygon fill="#fff0f0" stroke="red" points="647,-132 519,-132 519,-113 647,-113 647,-132"/>
<text text-anchor="middle" x="583" y="-120" font-family="Ubuntu Mono" font-size="10.00">testMsgElementListing</text>
</a>
</g>
</g>
<!-- Node15&#45;&gt;Node83 -->
<g id="edge48_Node000015_Node000083" class="edge">
<title>Node15&#45;&gt;Node83</title>
<g id="a_edge48_Node000015_Node000083"><a xlink:title=" ">
<path fill="none" stroke="#63b8ff" d="M754.1,-584.32C740.87,-556.45 717.03,-502.8 705,-454.5 688.02,-386.35 716.26,-192.45 669,-140.5 663.11,-134.03 655.53,-129.57 647.32,-126.53"/>
<polygon fill="#63b8ff" stroke="#63b8ff" points="751.11,-586.19 758.6,-593.68 757.42,-583.15 751.11,-586.19"/>
</a>
</g>
</g>
<!-- Node84 -->
<g id="Node000084" class="node">
<title>Node84</title>
<g id="a_Node000084"><a xlink:href="testKinetics_8cpp.html#ab8dc01ba49d4071e77b65e8975eadca8" target="_top" xlink:title=" ">
<polygon fill="#fff0f0" stroke="red" points="647,-95 519,-95 519,-76 647,-76 647,-95"/>
<text text-anchor="middle" x="583" y="-83" font-family="Ubuntu Mono" font-size="10.00">testPoolVolumeScaling</text>
</a>
</g>
</g>
<!-- Node15&#45;&gt;Node84 -->
<g id="edge49_Node000015_Node000084" class="edge">
<title>Node15&#45;&gt;Node84</title>
<g id="a_edge49_Node000015_Node000084"><a xlink:title=" ">
<path fill="none" stroke="#63b8ff" d="M754.02,-584.34C740.69,-556.5 716.74,-502.87 705,-454.5 686.5,-378.3 721.41,-161.82 669,-103.5 663.15,-96.99 655.59,-92.51 647.39,-89.47"/>
<polygon fill="#63b8ff" stroke="#63b8ff" points="751.04,-586.22 758.56,-593.69 757.34,-583.17 751.04,-586.22"/>
</a>
</g>
</g>
<!-- Node85 -->
<g id="Node000085" class="node">
<title>Node85</title>
<g id="a_Node000085"><a xlink:href="testKinetics_8cpp.html#acc92a2f3728a28d0beaf968bc4d3f526" target="_top" xlink:title=" ">
<polygon fill="#fff0f0" stroke="red" points="648.5,-1171 517.5,-1171 517.5,-1152 648.5,-1152 648.5,-1171"/>
<text text-anchor="middle" x="583" y="-1159" font-family="Ubuntu Mono" font-size="10.00">testReacVolumeScaling</text>
</a>
</g>
</g>
<!-- Node15&#45;&gt;Node85 -->
<g id="edge50_Node000015_Node000085" class="edge">
<title>Node15&#45;&gt;Node85</title>
<g id="a_edge50_Node000015_Node000085"><a xlink:title=" ">
<path fill="none" stroke="#63b8ff" d="M762.91,-623.17C759.85,-711.06 743.01,-1066.82 669,-1143.5 663.34,-1149.36 656.29,-1153.55 648.68,-1156.51"/>
<polygon fill="#63b8ff" stroke="#63b8ff" points="766.41,-623.11 763.24,-613 759.41,-622.88 766.41,-623.11"/>
</a>
</g>
</g>
<!-- Node86 -->
<g id="Node000086" class="node">
<title>Node86</title>
<g id="a_Node000086"><a xlink:href="testShell_8cpp.html#ae735a0a41a973dd5976fee234f11149c" target="_top" xlink:title=" ">
<polygon fill="#fff0f0" stroke="red" points="632,-1134 534,-1134 534,-1115 632,-1115 632,-1134"/>
<text text-anchor="middle" x="583" y="-1122" font-family="Ubuntu Mono" font-size="10.00">testShellAddMsg</text>
</a>
</g>
</g>
<!-- Node15&#45;&gt;Node86 -->
<g id="edge51_Node000015_Node000086" class="edge">
<title>Node15&#45;&gt;Node86</title>
<g id="a_edge51_Node000015_Node000086"><a xlink:title=" ">
<path fill="none" stroke="#63b8ff" d="M762.63,-623.16C758.52,-707.26 738.17,-1035.72 669,-1106.5 659.3,-1116.42 645.59,-1121.54 632.01,-1124.02"/>
<polygon fill="#63b8ff" stroke="#63b8ff" points="766.13,-623.31 763.1,-613.16 759.14,-622.98 766.13,-623.31"/>
</a>
</g>
</g>
<!-- Node88 -->
<g id="Node000088" class="node">
<title>Node88</title>
<g id="a_Node000088"><a xlink:href="testBuiltins_8cpp.html#a987c1d1f431aee2c2693bbcc26e09ff6" target="_top" xlink:title=" ">
<polygon fill="#fff0f0" stroke="red" points="613,-1097 553,-1097 553,-1078 613,-1078 613,-1097"/>
<text text-anchor="middle" x="583" y="-1085" font-family="Ubuntu Mono" font-size="10.00">testStats</text>
</a>
</g>
</g>
<!-- Node15&#45;&gt;Node88 -->
<g id="edge52_Node000015_Node000088" class="edge">
<title>Node15&#45;&gt;Node88</title>
<g id="a_edge52_Node000015_Node000088"><a xlink:title=" ">
<path fill="none" stroke="#63b8ff" d="M762.27,-623.42C756.88,-703.85 732.78,-1003.47 669,-1068.5 654.6,-1083.18 631.51,-1087.63 613.03,-1088.57"/>
<polygon fill="#63b8ff" stroke="#63b8ff" points="765.78,-623.4 762.93,-613.2 758.79,-622.95 765.78,-623.4"/>
</a>
</g>
</g>
<!-- Node89 -->
<g id="Node000089" class="node">
<title>Node89</title>
<g id="a_Node000089"><a xlink:href="testKinetics_8cpp.html#ad1be508afbede7b4565b0a81e470139a" target="_top" xlink:title=" ">
<polygon fill="#fff0f0" stroke="red" points="655.5,-1060 510.5,-1060 510.5,-1041 655.5,-1041 655.5,-1060"/>
<text text-anchor="middle" x="583" y="-1048" font-family="Ubuntu Mono" font-size="10.00">testTwoReacGetNeighbors</text>
</a>
</g>
</g>
<!-- Node15&#45;&gt;Node89 -->
<g id="edge53_Node000015_Node000089" class="edge">
<title>Node15&#45;&gt;Node89</title>
<g id="a_edge53_Node000015_Node000089"><a xlink:title=" ">
<path fill="none" stroke="#63b8ff" d="M761.9,-623.28C755.35,-699.44 728.04,-972.31 669,-1031.5 665.05,-1035.46 660.46,-1038.67 655.51,-1041.27"/>
<polygon fill="#63b8ff" stroke="#63b8ff" points="765.4,-623.42 762.75,-613.17 758.43,-622.84 765.4,-623.42"/>
</a>
</g>
</g>
<!-- Node17 -->
<g id="Node000017" class="node">
<title>Node17</title>
<g id="a_Node000017"><a xlink:href="classReadCell.html#a57bf489bf33374c240e0ce93a5ebf30c" target="_top" xlink:title=" ">
<polygon fill="white" stroke="#666666" points="450.5,-987 326.5,-987 326.5,-968 450.5,-968 450.5,-987"/>
<text text-anchor="middle" x="388.5" y="-975" font-family="Ubuntu Mono" font-size="10.00">ReadCell::addChannel</text>
</a>
</g>
</g>
<!-- Node16&#45;&gt;Node17 -->
<g id="edge17_Node000016_Node000017" class="edge">
<title>Node16&#45;&gt;Node17</title>
<g id="a_edge17_Node000016_Node000017"><a xlink:title=" ">
<path fill="none" stroke="#63b8ff" d="M521.09,-1002.11C495.19,-997.27 465.34,-991.68 440.61,-987.06"/>
<polygon fill="#63b8ff" stroke="#63b8ff" points="520.7,-1005.6 531.17,-1003.99 521.98,-998.72 520.7,-1005.6"/>
</a>
</g>
</g>
<!-- Node18 -->
<g id="Node000018" class="node">
<title>Node18</title>
<g id="a_Node000018"><a xlink:href="classReadCell.html#aa5426c07728fb3239a944c146733a263" target="_top" xlink:title=" ">
<polygon fill="#fff0f0" stroke="red" points="280,-968 145,-968 145,-949 280,-949 280,-968"/>
<text text-anchor="middle" x="212.5" y="-956" font-family="Ubuntu Mono" font-size="10.00">ReadCell::buildChannels</text>
</a>
</g>
</g>
<!-- Node17&#45;&gt;Node18 -->
<g id="edge18_Node000017_Node000018" class="edge">
<title>Node17&#45;&gt;Node18</title>
<g id="a_edge18_Node000017_Node000018"><a xlink:title=" ">
<path fill="none" stroke="#63b8ff" d="M315.9,-969.68C304.09,-968.39 291.89,-967.06 280.21,-965.78"/>
<polygon fill="#63b8ff" stroke="#63b8ff" points="315.83,-973.2 326.15,-970.8 316.59,-966.24 315.83,-973.2"/>
</a>
</g>
</g>
<!-- Node24&#45;&gt;Node18 -->
<g id="edge20_Node000024_Node000018" class="edge">
<title>Node24&#45;&gt;Node18</title>
<g id="a_edge20_Node000024_Node000018"><a xlink:title=" ">
<path fill="none" stroke="#63b8ff" d="M489.04,-944.29C423.99,-947.65 338.62,-952.05 280.25,-955.06"/>
<polygon fill="#63b8ff" stroke="#63b8ff" points="489.49,-947.77 499.3,-943.76 489.13,-940.78 489.49,-947.77"/>
</a>
</g>
</g>
<!-- Node24&#45;&gt;Node25 -->
<g id="edge21_Node000024_Node000025" class="edge">
<title>Node24&#45;&gt;Node25</title>
<g id="a_edge21_Node000024_Node000025"><a xlink:title=" ">
<path fill="none" stroke="#63b8ff" d="M523.55,-927.96C496.09,-922.54 463.76,-916.16 437.73,-911.02"/>
<polygon fill="#63b8ff" stroke="#63b8ff" points="522.94,-931.41 533.42,-929.91 524.29,-924.54 522.94,-931.41"/>
</a>
</g>
</g>
<!-- Node30 -->
<g id="Node000030" class="node">
<title>Node30</title>
<g id="a_Node000030"><a xlink:href="classReadKkit.html#a7eb605788fc0533b4f0bf9017fa5e366" target="_top" xlink:title=" ">
<polygon fill="#fff0f0" stroke="red" points="268.5,-650 156.5,-650 156.5,-631 268.5,-631 268.5,-650"/>
<text text-anchor="middle" x="212.5" y="-638" font-family="Ubuntu Mono" font-size="10.00">ReadKkit::readData</text>
</a>
</g>
</g>
<!-- Node29&#45;&gt;Node30 -->
<g id="edge23_Node000029_Node000030" class="edge">
<title>Node29&#45;&gt;Node30</title>
<g id="a_edge23_Node000029_Node000030"><a xlink:title=" ">
<path fill="none" stroke="#63b8ff" d="M325.23,-640.5C306.76,-640.5 286.68,-640.5 268.69,-640.5"/>
<polygon fill="#63b8ff" stroke="#63b8ff" points="325.29,-644 335.29,-640.5 325.29,-637 325.29,-644"/>
</a>
</g>
</g>
<!-- Node34&#45;&gt;Node17 -->
<g id="edge25_Node000034_Node000017" class="edge">
<title>Node34&#45;&gt;Node17</title>
<g id="a_edge25_Node000034_Node000017"><a xlink:title=" ">
<path fill="none" stroke="#63b8ff" d="M507.85,-976.89C488.96,-976.98 468.87,-977.09 450.71,-977.18"/>
<polygon fill="#63b8ff" stroke="#63b8ff" points="507.92,-980.38 517.9,-976.83 507.88,-973.39 507.92,-980.38"/>
</a>
</g>
</g>
<!-- Node43&#45;&gt;Node29 -->
<g id="edge32_Node000043_Node000029" class="edge">
<title>Node43&#45;&gt;Node29</title>
<g id="a_edge32_Node000043_Node000029"><a xlink:title=" ">
<path fill="none" stroke="#63b8ff" d="M504.69,-640.5C483.55,-640.5 461.14,-640.5 441.77,-640.5"/>
<polygon fill="#63b8ff" stroke="#63b8ff" points="504.94,-644 514.94,-640.5 504.94,-637 504.94,-644"/>
</a>
</g>
</g>
<!-- Node55&#45;&gt;Node29 -->
<g id="edge38_Node000055_Node000029" class="edge">
<title>Node55&#45;&gt;Node29</title>
<g id="a_edge38_Node000055_Node000029"><a xlink:title=" ">
<path fill="none" stroke="#63b8ff" d="M507.68,-505.02C503.97,-506.63 500.39,-508.45 497,-510.5 445.64,-541.59 407.6,-606.25 394.48,-630.78"/>
<polygon fill="#63b8ff" stroke="#63b8ff" points="509.02,-508.25 517.11,-501.41 506.52,-501.71 509.02,-508.25"/>
</a>
</g>
</g>
<!-- Node90&#45;&gt;Node14 -->
<g id="edge55_Node000090_Node000014" class="edge">
<title>Node90&#45;&gt;Node14</title>
<g id="a_edge55_Node000090_Node000014"><a xlink:title=" ">
<path fill="none" stroke="#63b8ff" d="M759.88,-416.77C746.22,-343.41 697.17,-89.34 669,-66.5 606.75,-16.03 357.97,-33.52 256.71,-43.03"/>
<polygon fill="#63b8ff" stroke="#63b8ff" points="756.5,-417.74 761.76,-426.93 763.38,-416.46 756.5,-417.74"/>
</a>
</g>
</g>
</g>
</svg>

<g id="navigator" transform="translate(0 0)" fill="#404254">
  <rect fill="#f2f5e9" fill-opacity="0.5" stroke="#606060" stroke-width=".5" x="0" y="0" width="60" height="60"/>
  <use id="zoomplus" xlink:href="#zoomPlus" x="17" y="9" onmousedown="handleZoom(evt,'in')"/>
  <use id="zoomminus" xlink:href="#zoomMin" x="42" y="9" onmousedown="handleZoom(evt,'out')"/>
  <use id="reset" xlink:href="#resetDef" x="30" y="36" onmousedown="handleReset()"/>
   <use id="arrowup" xlink:href="#arrowUp" x="0" y="0" onmousedown="handlePan(0,-1)"/>
  <use id="arrowright" xlink:href="#arrowRight" x="0" y="0" onmousedown="handlePan(1,0)"/>
  <use id="arrowdown" xlink:href="#arrowDown" x="0" y="0" onmousedown="handlePan(0,1)"/>
  <use id="arrowleft" xlink:href="#arrowLeft" x="0" y="0" onmousedown="handlePan(-1,0)"/>
</g>
<svg viewBox="0 0 15 15" width="100%" height="30px" preserveAspectRatio="xMaxYMin meet">
 <g id="arrow_out" transform="scale(0.3 0.3)">
  <a xlink:href="classSparseMsg_af9033c3e88a3d8ed2876fb476419ea79_icgraph_org.svg" target="_base">
   <rect id="button" ry="5" rx="5" y="6" x="6" height="38" width="38"
        fill="#f2f5e9" fill-opacity="0.5" stroke="#606060" stroke-width="1.0"/>
   <path id="arrow"
     d="M 11.500037,31.436501 C 11.940474,20.09759 22.043105,11.32322 32.158766,21.979434 L 37.068811,17.246167 C 37.068811,17.246167 37.088388,32 37.088388,32 L 22.160133,31.978069 C 22.160133,31.978069 26.997745,27.140456 26.997745,27.140456 C 18.528582,18.264221 13.291696,25.230495 11.500037,31.436501 z"
     style="fill:#404040;"/>
  </a>
 </g>
</svg>

<style type='text/css'>
<![CDATA[
[data-mouse-over-selected='false'] { opacity: 0.7; }
[data-mouse-over-selected='true']  { opacity: 1.0; }
]]>
</style>
<script type="application/ecmascript"><![CDATA[
document.addEventListener('DOMContentLoaded', (event) => {
  highlightEdges();
  highlightAdjacentNodes();
});
]]></script>
</svg>
