<?xml version="1.0" encoding="UTF-8" standalone="no"?>
<!DOCTYPE svg PUBLIC "-//W3C//DTD SVG 1.1//EN"
 "http://www.w3.org/Graphics/SVG/1.1/DTD/svg11.dtd">
<!-- Generated by graphviz version 2.43.0 (0)
 -->
<!-- Title: SetGet3::set Pages: 1 -->
<svg width="662pt" height="138pt"
 viewBox="0.00 0.00 662.00 138.00" xmlns="http://www.w3.org/2000/svg" xmlns:xlink="http://www.w3.org/1999/xlink">
<g id="graph0" class="graph" transform="scale(1 1) rotate(0) translate(4 134)">
<title>SetGet3::set</title>
<!-- Node1 -->
<g id="Node000001" class="node">
<title>Node1</title>
<g id="a_Node000001"><a xlink:title=" ">
<polygon fill="#999999" stroke="#666666" points="654,-74 577,-74 577,-55 654,-55 654,-74"/>
<text text-anchor="middle" x="615.5" y="-62" font-family="Ubuntu Mono" font-size="10.00">SetGet3::set</text>
</a>
</g>
</g>
<!-- Node2 -->
<g id="Node000002" class="node">
<title>Node2</title>
<g id="a_Node000002"><a xlink:href="classSetGet3.html#aed64ca61996507755edaca8a0bbcf369" target="_top" xlink:title=" ">
<polygon fill="white" stroke="#666666" points="538,-130 422,-130 422,-111 538,-111 538,-130"/>
<text text-anchor="middle" x="480" y="-118" font-family="Ubuntu Mono" font-size="10.00">SetGet3::innerStrSet</text>
</a>
</g>
</g>
<!-- Node1&#45;&gt;Node2 -->
<g id="edge1_Node000001_Node000002" class="edge">
<title>Node1&#45;&gt;Node2</title>
<g id="a_edge1_Node000001_Node000002"><a xlink:title=" ">
<path fill="none" stroke="#63b8ff" d="M589.3,-79.01C575.36,-86.65 557.55,-95.8 541,-102.5 533.34,-105.6 524.94,-108.44 516.91,-110.91"/>
<polygon fill="#63b8ff" stroke="#63b8ff" points="591.25,-81.93 598.27,-74 587.84,-75.82 591.25,-81.93"/>
</a>
</g>
</g>
<!-- Node3 -->
<g id="Node000003" class="node">
<title>Node3</title>
<g id="a_Node000003"><a xlink:href="classSpine.html#af30012dee4b0c6d910862252650a87de" target="_top" xlink:title=" ">
<polygon fill="white" stroke="#666666" points="541,-93 419,-93 419,-74 541,-74 541,-93"/>
<text text-anchor="middle" x="480" y="-81" font-family="Ubuntu Mono" font-size="10.00">Spine::setShaftLength</text>
</a>
</g>
</g>
<!-- Node1&#45;&gt;Node3 -->
<g id="edge2_Node000001_Node000003" class="edge">
<title>Node1&#45;&gt;Node3</title>
<g id="a_edge2_Node000001_Node000003"><a xlink:title=" ">
<path fill="none" stroke="#63b8ff" d="M567.03,-71.26C558.68,-72.44 549.89,-73.7 541.24,-74.93"/>
<polygon fill="#63b8ff" stroke="#63b8ff" points="567.55,-74.72 576.96,-69.84 566.56,-67.79 567.55,-74.72"/>
</a>
</g>
</g>
<!-- Node7 -->
<g id="Node000007" class="node">
<title>Node7</title>
<g id="a_Node000007"><a xlink:href="testMsg_8cpp.html#a702283b869ec387b3a13e71e7393e362" target="_top" xlink:title=" ">
<polygon fill="white" stroke="#666666" points="529,-56 431,-56 431,-37 529,-37 529,-56"/>
<text text-anchor="middle" x="480" y="-44" font-family="Ubuntu Mono" font-size="10.00">testAssortedMsg</text>
</a>
</g>
</g>
<!-- Node1&#45;&gt;Node7 -->
<g id="edge7_Node000001_Node000007" class="edge">
<title>Node1&#45;&gt;Node7</title>
<g id="a_edge7_Node000001_Node000007"><a xlink:title=" ">
<path fill="none" stroke="#63b8ff" d="M566.94,-58.09C554.7,-56.44 541.52,-54.66 529.24,-53"/>
<polygon fill="#63b8ff" stroke="#63b8ff" points="566.58,-61.57 576.96,-59.44 567.51,-54.63 566.58,-61.57"/>
</a>
</g>
</g>
<!-- Node9 -->
<g id="Node000009" class="node">
<title>Node9</title>
<g id="a_Node000009"><a xlink:href="testShell_8cpp.html#ae735a0a41a973dd5976fee234f11149c" target="_top" xlink:title=" ">
<polygon fill="white" stroke="#666666" points="529,-19 431,-19 431,0 529,0 529,-19"/>
<text text-anchor="middle" x="480" y="-7" font-family="Ubuntu Mono" font-size="10.00">testShellAddMsg</text>
</a>
</g>
</g>
<!-- Node1&#45;&gt;Node9 -->
<g id="edge9_Node000001_Node000009" class="edge">
<title>Node1&#45;&gt;Node9</title>
<g id="a_edge9_Node000001_Node000009"><a xlink:title=" ">
<path fill="none" stroke="#63b8ff" d="M588.71,-50.12C574.84,-42.75 557.28,-33.98 541,-27.5 533.22,-24.4 524.69,-21.54 516.57,-19.05"/>
<polygon fill="#63b8ff" stroke="#63b8ff" points="587.2,-53.29 597.66,-54.96 590.53,-47.13 587.2,-53.29"/>
</a>
</g>
</g>
<!-- Node4 -->
<g id="Node000004" class="node">
<title>Node4</title>
<g id="a_Node000004"><a xlink:href="classSpine.html#aae168e965b5f08a1c29f94ba4c6ccda8" target="_top" xlink:title=" ">
<polygon fill="white" stroke="#666666" points="226,-112 135,-112 135,-93 226,-93 226,-112"/>
<text text-anchor="middle" x="180.5" y="-100" font-family="Ubuntu Mono" font-size="10.00">Spine::initCinfo</text>
</a>
</g>
</g>
<!-- Node3&#45;&gt;Node4 -->
<g id="edge3_Node000003_Node000004" class="edge">
<title>Node3&#45;&gt;Node4</title>
<g id="a_edge3_Node000003_Node000004"><a xlink:title=" ">
<path fill="none" stroke="#63b8ff" d="M429.94,-95.12C414.97,-98.16 398.39,-100.99 383,-102.5 329.21,-107.77 266.95,-106.68 226.04,-104.99"/>
<polygon fill="#63b8ff" stroke="#63b8ff" points="430.96,-98.49 440.02,-93.01 429.52,-91.64 430.96,-98.49"/>
</a>
</g>
</g>
<!-- Node6 -->
<g id="Node000006" class="node">
<title>Node6</title>
<g id="a_Node000006"><a xlink:href="classSpine.html#a7e8be1d21c9da5db3a4a9a9f935d497b" target="_top" xlink:title=" ">
<polygon fill="white" stroke="#666666" points="383,-93 262,-93 262,-74 383,-74 383,-93"/>
<text text-anchor="middle" x="322.5" y="-81" font-family="Ubuntu Mono" font-size="10.00">Spine::setTotalLength</text>
</a>
</g>
</g>
<!-- Node3&#45;&gt;Node6 -->
<g id="edge5_Node000003_Node000006" class="edge">
<title>Node3&#45;&gt;Node6</title>
<g id="a_edge5_Node000003_Node000006"><a xlink:title=" ">
<path fill="none" stroke="#63b8ff" d="M408.61,-83.5C400.12,-83.5 391.52,-83.5 383.2,-83.5"/>
<polygon fill="#63b8ff" stroke="#63b8ff" points="408.88,-87 418.88,-83.5 408.88,-80 408.88,-87"/>
</a>
</g>
</g>
<!-- Node5 -->
<g id="Node000005" class="node">
<title>Node5</title>
<g id="a_Node000005"><a xlink:href="classNeuron.html#a81197d09a302f2420430fe3f7874926f" target="_top" xlink:title=" ">
<polygon fill="white" stroke="#666666" points="99,-112 0,-112 0,-93 99,-93 99,-112"/>
<text text-anchor="middle" x="49.5" y="-100" font-family="Ubuntu Mono" font-size="10.00">Neuron::initCinfo</text>
</a>
</g>
</g>
<!-- Node4&#45;&gt;Node5 -->
<g id="edge4_Node000004_Node000005" class="edge">
<title>Node4&#45;&gt;Node5</title>
<g id="a_edge4_Node000004_Node000005"><a xlink:title=" ">
<path fill="none" stroke="#63b8ff" d="M124.58,-102.5C116.13,-102.5 107.45,-102.5 99.14,-102.5"/>
<polygon fill="#63b8ff" stroke="#63b8ff" points="124.74,-106 134.74,-102.5 124.74,-99 124.74,-106"/>
</a>
</g>
</g>
<!-- Node6&#45;&gt;Node4 -->
<g id="edge6_Node000006_Node000004" class="edge">
<title>Node6&#45;&gt;Node4</title>
<g id="a_edge6_Node000006_Node000004"><a xlink:title=" ">
<path fill="none" stroke="#63b8ff" d="M251.62,-92.98C243,-94.15 234.36,-95.33 226.25,-96.43"/>
<polygon fill="#63b8ff" stroke="#63b8ff" points="252.28,-96.43 261.72,-91.61 251.34,-89.49 252.28,-96.43"/>
</a>
</g>
</g>
<!-- Node8 -->
<g id="Node000008" class="node">
<title>Node8</title>
<g id="a_Node000008"><a xlink:href="testMsg_8cpp.html#abbd289522f4195e882d3bd397b4ebfb3" target="_top" xlink:title=" ">
<polygon fill="white" stroke="#666666" points="350.5,-56 294.5,-56 294.5,-37 350.5,-37 350.5,-56"/>
<text text-anchor="middle" x="322.5" y="-44" font-family="Ubuntu Mono" font-size="10.00">testMsg</text>
</a>
</g>
</g>
<!-- Node7&#45;&gt;Node8 -->
<g id="edge8_Node000007_Node000008" class="edge">
<title>Node7&#45;&gt;Node8</title>
<g id="a_edge8_Node000007_Node000008"><a xlink:title=" ">
<path fill="none" stroke="#63b8ff" d="M420.54,-46.5C396.49,-46.5 369.82,-46.5 350.53,-46.5"/>
<polygon fill="#63b8ff" stroke="#63b8ff" points="420.65,-50 430.65,-46.5 420.65,-43 420.65,-50"/>
</a>
</g>
</g>
<!-- Node10 -->
<g id="Node000010" class="node">
<title>Node10</title>
<g id="a_Node000010"><a xlink:href="testShell_8cpp.html#a39b69e92ca3f7b92223ebc9b1940bff7" target="_top" xlink:title=" ">
<polygon fill="white" stroke="#666666" points="361,-19 284,-19 284,0 361,0 361,-19"/>
<text text-anchor="middle" x="322.5" y="-7" font-family="Ubuntu Mono" font-size="10.00">testMpiShell</text>
</a>
</g>
</g>
<!-- Node9&#45;&gt;Node10 -->
<g id="edge10_Node000009_Node000010" class="edge">
<title>Node9&#45;&gt;Node10</title>
<g id="a_edge10_Node000009_Node000010"><a xlink:title=" ">
<path fill="none" stroke="#63b8ff" d="M420.51,-9.5C400.74,-9.5 379.2,-9.5 361.45,-9.5"/>
<polygon fill="#63b8ff" stroke="#63b8ff" points="420.65,-13 430.65,-9.5 420.65,-6 420.65,-13"/>
</a>
</g>
</g>
</g>
</svg>
