<?xml version="1.0" encoding="UTF-8" standalone="no"?>
<!DOCTYPE svg PUBLIC "-//W3C//DTD SVG 1.1//EN"
 "http://www.w3.org/Graphics/SVG/1.1/DTD/svg11.dtd">
<!-- Generated by graphviz version 2.43.0 (0)
 -->
<!-- Title: SpikeGen::getEdgeTriggered Pages: 1 -->
<svg width="1033pt" height="27pt"
 viewBox="0.00 0.00 1033.00 27.00" xmlns="http://www.w3.org/2000/svg" xmlns:xlink="http://www.w3.org/1999/xlink">
<g id="graph0" class="graph" transform="scale(1 1) rotate(0) translate(4 23)">
<title>SpikeGen::getEdgeTriggered</title>
<!-- Node1 -->
<g id="Node000001" class="node">
<title>Node1</title>
<g id="a_Node000001"><a xlink:title=" ">
<polygon fill="#999999" stroke="#666666" points="1025,-19 872,-19 872,0 1025,0 1025,-19"/>
<text text-anchor="middle" x="948.5" y="-7" font-family="Ubuntu Mono" font-size="10.00">SpikeGen::getEdgeTriggered</text>
</a>
</g>
</g>
<!-- Node2 -->
<g id="Node000002" class="node">
<title>Node2</title>
<g id="a_Node000002"><a xlink:href="classSpikeGen.html#a9f98de819ab1bfaa103dcdb069ac94a3" target="_top" xlink:title=" ">
<polygon fill="white" stroke="#666666" points="836,-19 726,-19 726,0 836,0 836,-19"/>
<text text-anchor="middle" x="781" y="-7" font-family="Ubuntu Mono" font-size="10.00">SpikeGen::initCinfo</text>
</a>
</g>
</g>
<!-- Node1&#45;&gt;Node2 -->
<g id="edge1_Node000001_Node000002" class="edge">
<title>Node1&#45;&gt;Node2</title>
<g id="a_edge1_Node000001_Node000002"><a xlink:title=" ">
<path fill="none" stroke="#63b8ff" d="M861.47,-9.5C852.9,-9.5 844.38,-9.5 836.27,-9.5"/>
<polygon fill="#63b8ff" stroke="#63b8ff" points="861.53,-13 871.53,-9.5 861.53,-6 861.53,-13"/>
</a>
</g>
</g>
<!-- Node3 -->
<g id="Node000003" class="node">
<title>Node3</title>
<g id="a_Node000003"><a xlink:href="classHSolveActive.html#a7b93aa070063129e8f68f02db5583619" target="_top" xlink:title=" ">
<polygon fill="white" stroke="#666666" points="690,-19 534,-19 534,0 690,0 690,-19"/>
<text text-anchor="middle" x="612" y="-7" font-family="Ubuntu Mono" font-size="10.00">HSolveActive::readSynapses</text>
</a>
</g>
</g>
<!-- Node2&#45;&gt;Node3 -->
<g id="edge2_Node000002_Node000003" class="edge">
<title>Node2&#45;&gt;Node3</title>
<g id="a_edge2_Node000002_Node000003"><a xlink:title=" ">
<path fill="none" stroke="#63b8ff" d="M715.68,-9.5C707.27,-9.5 698.59,-9.5 690,-9.5"/>
<polygon fill="#63b8ff" stroke="#63b8ff" points="715.78,-13 725.78,-9.5 715.78,-6 715.78,-13"/>
</a>
</g>
</g>
<!-- Node4 -->
<g id="Node000004" class="node">
<title>Node4</title>
<g id="a_Node000004"><a xlink:href="classHSolveActive.html#abe1e04be095f6b2e77e0de5ff3c56b3d" target="_top" xlink:title=" ">
<polygon fill="white" stroke="#666666" points="498,-19 383,-19 383,0 498,0 498,-19"/>
<text text-anchor="middle" x="440.5" y="-7" font-family="Ubuntu Mono" font-size="10.00">HSolveActive::setup</text>
</a>
</g>
</g>
<!-- Node3&#45;&gt;Node4 -->
<g id="edge3_Node000003_Node000004" class="edge">
<title>Node3&#45;&gt;Node4</title>
<g id="a_edge3_Node000003_Node000004"><a xlink:title=" ">
<path fill="none" stroke="#63b8ff" d="M523.65,-9.5C515.08,-9.5 506.56,-9.5 498.42,-9.5"/>
<polygon fill="#63b8ff" stroke="#63b8ff" points="523.69,-13 533.69,-9.5 523.69,-6 523.69,-13"/>
</a>
</g>
</g>
<!-- Node5 -->
<g id="Node000005" class="node">
<title>Node5</title>
<g id="a_Node000005"><a xlink:href="classHSolve.html#a2e768e9eb17b2c732c9129c018889f79" target="_top" xlink:title=" ">
<polygon fill="white" stroke="#666666" points="347,-19 263,-19 263,0 347,0 347,-19"/>
<text text-anchor="middle" x="305" y="-7" font-family="Ubuntu Mono" font-size="10.00">HSolve::setup</text>
</a>
</g>
</g>
<!-- Node4&#45;&gt;Node5 -->
<g id="edge4_Node000004_Node000005" class="edge">
<title>Node4&#45;&gt;Node5</title>
<g id="a_edge4_Node000004_Node000005"><a xlink:title=" ">
<path fill="none" stroke="#63b8ff" d="M372.74,-9.5C364.07,-9.5 355.4,-9.5 347.31,-9.5"/>
<polygon fill="#63b8ff" stroke="#63b8ff" points="372.88,-13 382.88,-9.5 372.88,-6 372.88,-13"/>
</a>
</g>
</g>
<!-- Node6 -->
<g id="Node000006" class="node">
<title>Node6</title>
<g id="a_Node000006"><a xlink:href="classHSolve.html#a4d36de840ae2ff289981e77f779eb9dc" target="_top" xlink:title=" ">
<polygon fill="white" stroke="#666666" points="227,-19 134,-19 134,0 227,0 227,-19"/>
<text text-anchor="middle" x="180.5" y="-7" font-family="Ubuntu Mono" font-size="10.00">HSolve::setPath</text>
</a>
</g>
</g>
<!-- Node5&#45;&gt;Node6 -->
<g id="edge5_Node000005_Node000006" class="edge">
<title>Node5&#45;&gt;Node6</title>
<g id="a_edge5_Node000005_Node000006"><a xlink:title=" ">
<path fill="none" stroke="#63b8ff" d="M252.77,-9.5C244.34,-9.5 235.66,-9.5 227.37,-9.5"/>
<polygon fill="#63b8ff" stroke="#63b8ff" points="252.87,-13 262.87,-9.5 252.87,-6 252.87,-13"/>
</a>
</g>
</g>
<!-- Node7 -->
<g id="Node000007" class="node">
<title>Node7</title>
<g id="a_Node000007"><a xlink:href="classHSolve.html#a3d60964bbc6441f73c04fe702faba848" target="_top" xlink:title="Interface to external channels.">
<polygon fill="white" stroke="#666666" points="98,-19 0,-19 0,0 98,0 98,-19"/>
<text text-anchor="middle" x="49" y="-7" font-family="Ubuntu Mono" font-size="10.00">HSolve::initCinfo</text>
</a>
</g>
</g>
<!-- Node6&#45;&gt;Node7 -->
<g id="edge6_Node000006_Node000007" class="edge">
<title>Node6&#45;&gt;Node7</title>
<g id="a_edge6_Node000006_Node000007"><a xlink:title=" ">
<path fill="none" stroke="#63b8ff" d="M123.68,-9.5C115.24,-9.5 106.59,-9.5 98.32,-9.5"/>
<polygon fill="#63b8ff" stroke="#63b8ff" points="123.84,-13 133.84,-9.5 123.84,-6 123.84,-13"/>
</a>
</g>
</g>
</g>
</svg>
