<?xml version="1.0" encoding="UTF-8" standalone="no"?>
<!DOCTYPE svg PUBLIC "-//W3C//DTD SVG 1.1//EN"
 "http://www.w3.org/Graphics/SVG/1.1/DTD/svg11.dtd">
<!-- Generated by graphviz version 2.43.0 (0)
 -->
<!-- Title: ChanCommon::vSetGk Pages: 1 -->
<svg width="297pt" height="249pt"
 viewBox="0.00 0.00 297.00 249.00" xmlns="http://www.w3.org/2000/svg" xmlns:xlink="http://www.w3.org/1999/xlink">

<svg id="main" version="1.1" xmlns="http://www.w3.org/2000/svg" xmlns:xlink="http://www.w3.org/1999/xlink" xml:space="preserve" onload="init(evt)">
<style type="text/css"><![CDATA[
.node, .edge {opacity: 0.7;}
.node.selected, .edge.selected {opacity: 1;}
.edge:hover path { stroke: red; }
.edge:hover polygon { stroke: red; fill: red; }
]]></style>
<script type="application/ecmascript" xlink:href="svg.min.js"/>
<svg id="graph" class="graph">
<g id="graph0" class="graph" transform="scale(1 1) rotate(0) translate(4 245)">
<title>ChanCommon::vSetGk</title>
<!-- Node1 -->
<g id="Node000001" class="node">
<title>Node1</title>
<g id="a_Node000001"><a xlink:title=" ">
<polygon fill="#999999" stroke="#666666" points="289,-130 162,-130 162,-111 289,-111 289,-130"/>
<text text-anchor="middle" x="225.5" y="-118" font-family="Ubuntu Mono" font-size="10.00">ChanCommon::vSetGk</text>
</a>
</g>
</g>
<!-- Node2 -->
<g id="Node000002" class="node">
<title>Node2</title>
<g id="a_Node000002"><a xlink:href="classLeakage.html#a64c688e05541a2e423506e88695447ef" target="_top" xlink:title=" ">
<polygon fill="white" stroke="#666666" points="116.5,-241 9.5,-241 9.5,-222 116.5,-222 116.5,-241"/>
<text text-anchor="middle" x="63" y="-229" font-family="Ubuntu Mono" font-size="10.00">Leakage::vProcess</text>
</a>
</g>
</g>
<!-- Node1&#45;&gt;Node2 -->
<g id="edge1_Node000001_Node000002" class="edge">
<title>Node1&#45;&gt;Node2</title>
<g id="a_edge1_Node000001_Node000002"><a xlink:title=" ">
<path fill="none" stroke="#63b8ff" d="M210.53,-138.03C192.94,-158.94 160.81,-193.59 126,-213.5 120.07,-216.89 113.44,-219.69 106.79,-221.99"/>
<polygon fill="#63b8ff" stroke="#63b8ff" points="213.29,-140.18 216.93,-130.24 207.88,-135.74 213.29,-140.18"/>
</a>
</g>
</g>
<!-- Node3 -->
<g id="Node000003" class="node">
<title>Node3</title>
<g id="a_Node000003"><a xlink:href="classHHChannel.html#ae4ae24e811e1d298a9ea5e1129d40c44" target="_top" xlink:title=" ">
<polygon fill="white" stroke="#666666" points="123.5,-204 2.5,-204 2.5,-185 123.5,-185 123.5,-204"/>
<text text-anchor="middle" x="63" y="-192" font-family="Ubuntu Mono" font-size="10.00">HHChannel::vProcess</text>
</a>
</g>
</g>
<!-- Node1&#45;&gt;Node3 -->
<g id="edge2_Node000001_Node000003" class="edge">
<title>Node1&#45;&gt;Node3</title>
<g id="a_edge2_Node000001_Node000003"><a xlink:title=" ">
<path fill="none" stroke="#63b8ff" d="M201.55,-135.61C182.07,-147.91 153.06,-165.07 126,-176.5 118.46,-179.68 110.18,-182.52 102.2,-184.94"/>
<polygon fill="#63b8ff" stroke="#63b8ff" points="203.51,-138.51 210.04,-130.17 199.73,-132.61 203.51,-138.51"/>
</a>
</g>
</g>
<!-- Node4 -->
<g id="Node000004" class="node">
<title>Node4</title>
<g id="a_Node000004"><a xlink:href="classHHChannelF.html#a25e78903e8ef9db5190db05f3491764c" target="_top" xlink:title=" ">
<polygon fill="white" stroke="#666666" points="126,-167 0,-167 0,-148 126,-148 126,-167"/>
<text text-anchor="middle" x="63" y="-155" font-family="Ubuntu Mono" font-size="10.00">HHChannelF::vProcess</text>
</a>
</g>
</g>
<!-- Node1&#45;&gt;Node4 -->
<g id="edge3_Node000001_Node000004" class="edge">
<title>Node1&#45;&gt;Node4</title>
<g id="a_edge3_Node000001_Node000004"><a xlink:title=" ">
<path fill="none" stroke="#63b8ff" d="M173.36,-132.29C151.45,-137.34 126.19,-143.16 105.47,-147.94"/>
<polygon fill="#63b8ff" stroke="#63b8ff" points="174.21,-135.69 183.17,-130.03 172.64,-128.86 174.21,-135.69"/>
</a>
</g>
</g>
<!-- Node5 -->
<g id="Node000005" class="node">
<title>Node5</title>
<g id="a_Node000005"><a xlink:href="classLeakage.html#a558d13b93c902a33852b9a8d0b3c643f" target="_top" xlink:title=" ">
<polygon fill="white" stroke="#666666" points="112,-130 14,-130 14,-111 112,-111 112,-130"/>
<text text-anchor="middle" x="63" y="-118" font-family="Ubuntu Mono" font-size="10.00">Leakage::vReinit</text>
</a>
</g>
</g>
<!-- Node1&#45;&gt;Node5 -->
<g id="edge4_Node000001_Node000005" class="edge">
<title>Node1&#45;&gt;Node5</title>
<g id="a_edge4_Node000001_Node000005"><a xlink:title=" ">
<path fill="none" stroke="#63b8ff" d="M151.8,-120.5C138.37,-120.5 124.65,-120.5 112.18,-120.5"/>
<polygon fill="#63b8ff" stroke="#63b8ff" points="151.99,-124 161.99,-120.5 151.99,-117 151.99,-124"/>
</a>
</g>
</g>
<!-- Node6 -->
<g id="Node000006" class="node">
<title>Node6</title>
<g id="a_Node000006"><a xlink:href="classHHChannel.html#a6aff0899c46ba1dc65bb99835e90924a" target="_top" xlink:title=" ">
<polygon fill="white" stroke="#666666" points="119,-93 7,-93 7,-74 119,-74 119,-93"/>
<text text-anchor="middle" x="63" y="-81" font-family="Ubuntu Mono" font-size="10.00">HHChannel::vReinit</text>
</a>
</g>
</g>
<!-- Node1&#45;&gt;Node6 -->
<g id="edge5_Node000001_Node000006" class="edge">
<title>Node1&#45;&gt;Node6</title>
<g id="a_edge5_Node000001_Node000006"><a xlink:title=" ">
<path fill="none" stroke="#63b8ff" d="M173.36,-108.71C151.45,-103.66 126.19,-97.84 105.47,-93.06"/>
<polygon fill="#63b8ff" stroke="#63b8ff" points="172.64,-112.14 183.17,-110.97 174.21,-105.31 172.64,-112.14"/>
</a>
</g>
</g>
<!-- Node7 -->
<g id="Node000007" class="node">
<title>Node7</title>
<g id="a_Node000007"><a xlink:href="classHHChannelF.html#abadb64d9ec5f357f2da1b8af6f341ea1" target="_top" xlink:title=" ">
<polygon fill="white" stroke="#666666" points="121.5,-56 4.5,-56 4.5,-37 121.5,-37 121.5,-56"/>
<text text-anchor="middle" x="63" y="-44" font-family="Ubuntu Mono" font-size="10.00">HHChannelF::vReinit</text>
</a>
</g>
</g>
<!-- Node1&#45;&gt;Node7 -->
<g id="edge6_Node000001_Node000007" class="edge">
<title>Node1&#45;&gt;Node7</title>
<g id="a_edge6_Node000001_Node000007"><a xlink:title=" ">
<path fill="none" stroke="#63b8ff" d="M201.13,-105.58C181.61,-93.59 152.75,-76.91 126,-65.5 117.72,-61.97 108.56,-58.78 99.87,-56.08"/>
<polygon fill="#63b8ff" stroke="#63b8ff" points="199.31,-108.58 209.65,-110.89 203.01,-102.64 199.31,-108.58"/>
</a>
</g>
</g>
<!-- Node8 -->
<g id="Node000008" class="node">
<title>Node8</title>
<g id="a_Node000008"><a xlink:href="classLeakage.html#a41a3f0070e85927a2ea1f32dcdb17e28" target="_top" xlink:title=" ">
<polygon fill="white" stroke="#666666" points="117,-19 9,-19 9,0 117,0 117,-19"/>
<text text-anchor="middle" x="63" y="-7" font-family="Ubuntu Mono" font-size="10.00">Leakage::vSetGbar</text>
</a>
</g>
</g>
<!-- Node1&#45;&gt;Node8 -->
<g id="edge7_Node000001_Node000008" class="edge">
<title>Node1&#45;&gt;Node8</title>
<g id="a_edge7_Node000001_Node000008"><a xlink:title=" ">
<path fill="none" stroke="#63b8ff" d="M210.44,-103.25C192.76,-82.65 160.54,-48.47 126,-28.5 119.47,-24.72 112.11,-21.62 104.81,-19.1"/>
<polygon fill="#63b8ff" stroke="#63b8ff" points="207.77,-105.52 216.88,-110.92 213.13,-101.02 207.77,-105.52"/>
</a>
</g>
</g>
</g>
</svg>
</svg>

<style type='text/css'>
<![CDATA[
[data-mouse-over-selected='false'] { opacity: 0.7; }
[data-mouse-over-selected='true']  { opacity: 1.0; }
]]>
</style>
<script type="application/ecmascript"><![CDATA[
document.addEventListener('DOMContentLoaded', (event) => {
  highlightEdges();
  highlightAdjacentNodes();
});
]]></script>
</svg>
