<?xml version="1.0" encoding="UTF-8" standalone="no"?>
<!DOCTYPE svg PUBLIC "-//W3C//DTD SVG 1.1//EN"
 "http://www.w3.org/Graphics/SVG/1.1/DTD/svg11.dtd">
<!-- Generated by graphviz version 2.43.0 (0)
 -->
<!-- Title: moose::MooseParser::ParseVariables Pages: 1 -->
<!--zoomable 259 -->

<svg id="main" version="1.1" xmlns="http://www.w3.org/2000/svg" xmlns:xlink="http://www.w3.org/1999/xlink" xml:space="preserve" onload="init(evt)">
<style type="text/css"><![CDATA[
.node, .edge {opacity: 0.7;}
.node.selected, .edge.selected {opacity: 1;}
.edge:hover path { stroke: red; }
.edge:hover polygon { stroke: red; fill: red; }
]]></style>

<defs>
  <circle id="rim" cx="0" cy="0" r="7"/>
  <circle id="rim2" cx="0" cy="0" r="3.5"/>
  <g id="zoomPlus">
    <use xlink:href="#rim" fill="#404040"><set attributeName="fill" to="#808080" begin="zoomplus.mouseover" end="zoomplus.mouseout"/></use>
    <path d="M-4,0h8M0,-4v8" fill="none" stroke="white" stroke-width="1.5" pointer-events="none"/>
  </g>
  <g id="zoomMin">
    <use xlink:href="#rim" fill="#404040"><set attributeName="fill" to="#808080" begin="zoomminus.mouseover" end="zoomminus.mouseout"/></use>
    <path d="M-4,0h8" fill="none" stroke="white" stroke-width="1.5" pointer-events="none"/>
  </g>
  <g id="arrowUp" transform="translate(30 24)">
    <use xlink:href="#rim"/>
    <path pointer-events="none" fill="none" stroke="white" stroke-width="1.5" d="M0,-3.0v7 M-2.5,-0.5L0,-3.0L2.5,-0.5"/>
  </g>
  <g id="arrowRight" transform="rotate(90) translate(36 -43)">
    <use xlink:href="#rim"/>
    <path pointer-events="none" fill="none" stroke="white" stroke-width="1.5" d="M0,-3.0v7 M-2.5,-0.5L0,-3.0L2.5,-0.5"/>
  </g>
  <g id="arrowDown" transform="rotate(180) translate(-30 -48)">
    <use xlink:href="#rim"/>
    <path pointer-events="none" fill="none" stroke="white" stroke-width="1.5" d="M0,-3.0v7 M-2.5,-0.5L0,-3.0L2.5,-0.5"/>
  </g>
  <g id="arrowLeft" transform="rotate(270) translate(-36 17)">
    <use xlink:href="#rim"/>
    <path pointer-events="none" fill="none" stroke="white" stroke-width="1.5" d="M0,-3.0v7 M-2.5,-0.5L0,-3.0L2.5,-0.5"/>
  </g>
  <g id="resetDef">
    <use xlink:href="#rim2" fill="#404040"><set attributeName="fill" to="#808080" begin="reset.mouseover" end="reset.mouseout"/></use>
  </g>
</defs>
<script type="application/ecmascript">
var viewWidth = 973;
var viewHeight = 259;
var sectionId = 'dynsection-17';
</script>
<script type="application/ecmascript" xlink:href="svg.min.js"/>
<svg id="graph" class="graph">
<g id="viewport">
<title>moose::MooseParser::ParseVariables</title>
<!-- Node1 -->
<g id="Node000001" class="node">
<title>Node1</title>
<g id="a_Node000001"><a xlink:title="Internal function to do a first pass of parsing to obtain variable names.">
<polygon fill="#999999" stroke="#666666" points="118,-118.86 0,-118.86 0,-88.86 118,-88.86 118,-118.86"/>
<text text-anchor="start" x="8" y="-106.86" font-family="Ubuntu Mono" font-size="10.00">moose::MooseParser</text>
<text text-anchor="middle" x="59" y="-95.86" font-family="Ubuntu Mono" font-size="10.00">::ParseVariables</text>
</a>
</g>
</g>
<!-- Node2 -->
<g id="Node000002" class="node">
<title>Node2</title>
<g id="a_Node000002"><a xlink:href="namespacemoose.html#a70f63f832b8b5b24cd41cde150a9ffb5" target="_top" xlink:title=" ">
<polygon fill="white" stroke="#666666" points="295.5,-135.36 182.5,-135.36 182.5,-116.36 295.5,-116.36 295.5,-135.36"/>
<text text-anchor="middle" x="239" y="-123.36" font-family="Ubuntu Mono" font-size="10.00">moose::init_symtab</text>
</a>
</g>
</g>
<!-- Node1&#45;&gt;Node2 -->
<g id="edge1_Node000001_Node000002" class="edge">
<title>Node1&#45;&gt;Node2</title>
<g id="a_edge1_Node000001_Node000002"><a xlink:title=" ">
<path fill="none" stroke="#63b8ff" d="M118.28,-111.06C135.49,-113.19 154.44,-115.53 172.09,-117.71"/>
<polygon fill="#63b8ff" stroke="#63b8ff" points="171.96,-121.22 182.31,-118.97 172.81,-114.27 171.96,-121.22"/>
</a>
</g>
</g>
<!-- Node14 -->
<g id="Node000014" class="node">
<title>Node14</title>
<g id="a_Node000014"><a xlink:href="structmoose_1_1Parser_1_1ParserException.html#ad1f40fc5b35263f7df106530f4ebb184" target="_top" xlink:title=" ">
<polygon fill="white" stroke="#666666" points="324,-97.86 154,-97.86 154,-67.86 324,-67.86 324,-97.86"/>
<text text-anchor="start" x="162" y="-85.86" font-family="Ubuntu Mono" font-size="10.00">moose::Parser::ParserException</text>
<text text-anchor="middle" x="239" y="-74.86" font-family="Ubuntu Mono" font-size="10.00">::ParserException</text>
</a>
</g>
</g>
<!-- Node1&#45;&gt;Node14 -->
<g id="edge17_Node000001_Node000014" class="edge">
<title>Node1&#45;&gt;Node14</title>
<g id="a_edge17_Node000001_Node000014"><a xlink:title=" ">
<path fill="none" stroke="#63b8ff" d="M118.28,-96.98C126.45,-96.02 135,-95.01 143.62,-93.99"/>
<polygon fill="#63b8ff" stroke="#63b8ff" points="144.24,-97.44 153.76,-92.8 143.42,-90.49 144.24,-97.44"/>
</a>
</g>
</g>
<!-- Node3 -->
<g id="Node000003" class="node">
<title>Node3</title>
<g id="a_Node000003"><a xlink:href="classmoose_1_1MooseParser.html#a0906048fecbed9887e89b0014f7a8b75" target="_top" xlink:title=" ">
<polygon fill="white" stroke="#666666" points="486.5,-250.86 368.5,-250.86 368.5,-220.86 486.5,-220.86 486.5,-250.86"/>
<text text-anchor="start" x="376.5" y="-238.86" font-family="Ubuntu Mono" font-size="10.00">moose::MooseParser</text>
<text text-anchor="middle" x="427.5" y="-227.86" font-family="Ubuntu Mono" font-size="10.00">::Fmod</text>
</a>
</g>
</g>
<!-- Node2&#45;&gt;Node3 -->
<g id="edge2_Node000002_Node000003" class="edge">
<title>Node2&#45;&gt;Node3</title>
<g id="a_edge2_Node000002_Node000003"><a xlink:title=" ">
<path fill="none" stroke="#63b8ff" d="M251.22,-135.54C271.67,-152.8 316.9,-189.19 360,-211.86 363.29,-213.59 366.73,-215.24 370.24,-216.82"/>
<polygon fill="#63b8ff" stroke="#63b8ff" points="369.07,-220.12 379.65,-220.8 371.8,-213.68 369.07,-220.12"/>
</a>
</g>
</g>
<!-- Node4 -->
<g id="Node000004" class="node">
<title>Node4</title>
<g id="a_Node000004"><a xlink:href="classmoose_1_1MooseParser.html#a9537cddb74b0925aecd58e2abee01b9e" target="_top" xlink:title=" ">
<polygon fill="white" stroke="#666666" points="495,-202.36 360,-202.36 360,-183.36 495,-183.36 495,-202.36"/>
<text text-anchor="middle" x="427.5" y="-190.36" font-family="Ubuntu Mono" font-size="10.00">moose::MooseParser::Ln</text>
</a>
</g>
</g>
<!-- Node2&#45;&gt;Node4 -->
<g id="edge3_Node000002_Node000004" class="edge">
<title>Node2&#45;&gt;Node4</title>
<g id="a_edge3_Node000002_Node000004"><a xlink:title=" ">
<path fill="none" stroke="#63b8ff" d="M261.86,-135.39C285.72,-145.6 325.18,-161.95 360,-173.86 366.56,-176.1 373.55,-178.3 380.44,-180.36"/>
<polygon fill="#63b8ff" stroke="#63b8ff" points="379.82,-183.82 390.4,-183.27 381.78,-177.1 379.82,-183.82"/>
</a>
</g>
</g>
<!-- Node5 -->
<g id="Node000005" class="node">
<title>Node5</title>
<g id="a_Node000005"><a xlink:href="classmoose_1_1MooseParser.html#a759e3c03cdc0b4235e1051729a4d2d10" target="_top" xlink:title=" ">
<polygon fill="white" stroke="#666666" points="649,-30.86 531,-30.86 531,-0.86 649,-0.86 649,-30.86"/>
<text text-anchor="start" x="539" y="-18.86" font-family="Ubuntu Mono" font-size="10.00">moose::MooseParser</text>
<text text-anchor="middle" x="590" y="-7.86" font-family="Ubuntu Mono" font-size="10.00">::Rand</text>
</a>
</g>
</g>
<!-- Node2&#45;&gt;Node5 -->
<g id="edge4_Node000002_Node000005" class="edge">
<title>Node2&#45;&gt;Node5</title>
<g id="a_edge4_Node000002_Node000005"><a xlink:title=" ">
<path fill="none" stroke="#63b8ff" d="M295.68,-120.74C305.87,-117.82 315.85,-113.42 324,-106.86 353.42,-83.16 328.76,-51.1 360,-29.86 406.58,1.83 471.6,2.77 520.45,-2.72"/>
<polygon fill="#63b8ff" stroke="#63b8ff" points="520.27,-6.23 530.62,-3.99 521.13,0.72 520.27,-6.23"/>
</a>
</g>
</g>
<!-- Node8 -->
<g id="Node000008" class="node">
<title>Node8</title>
<g id="a_Node000008"><a xlink:href="classmoose_1_1MooseParser.html#a8ef92e102bf19d2fb52f5757989e0e09" target="_top" xlink:title=" ">
<polygon fill="white" stroke="#666666" points="486.5,-68.86 368.5,-68.86 368.5,-38.86 486.5,-38.86 486.5,-68.86"/>
<text text-anchor="start" x="376.5" y="-56.86" font-family="Ubuntu Mono" font-size="10.00">moose::MooseParser</text>
<text text-anchor="middle" x="427.5" y="-45.86" font-family="Ubuntu Mono" font-size="10.00">::Rand2</text>
</a>
</g>
</g>
<!-- Node2&#45;&gt;Node8 -->
<g id="edge7_Node000002_Node000008" class="edge">
<title>Node2&#45;&gt;Node8</title>
<g id="a_edge7_Node000002_Node000008"><a xlink:title=" ">
<path fill="none" stroke="#63b8ff" d="M295.89,-116.97C305.53,-114.39 315.25,-111.09 324,-106.86 342.5,-97.91 342.09,-87.93 360,-77.86 363.03,-76.15 366.21,-74.53 369.46,-72.99"/>
<polygon fill="#63b8ff" stroke="#63b8ff" points="371.03,-76.13 378.77,-68.89 368.21,-69.72 371.03,-76.13"/>
</a>
</g>
</g>
<!-- Node10 -->
<g id="Node000010" class="node">
<title>Node10</title>
<g id="a_Node000010"><a xlink:href="classmoose_1_1MooseParser.html#ac33152a32b843e683075a0693c3cca43" target="_top" xlink:title=" ">
<polygon fill="white" stroke="#666666" points="486.5,-164.86 368.5,-164.86 368.5,-134.86 486.5,-134.86 486.5,-164.86"/>
<text text-anchor="start" x="376.5" y="-152.86" font-family="Ubuntu Mono" font-size="10.00">moose::MooseParser</text>
<text text-anchor="middle" x="427.5" y="-141.86" font-family="Ubuntu Mono" font-size="10.00">::SRand</text>
</a>
</g>
</g>
<!-- Node2&#45;&gt;Node10 -->
<g id="edge10_Node000002_Node000010" class="edge">
<title>Node2&#45;&gt;Node10</title>
<g id="a_edge10_Node000002_Node000010"><a xlink:title=" ">
<path fill="none" stroke="#63b8ff" d="M295.7,-133.03C315.44,-135.57 337.88,-138.45 358.52,-141.11"/>
<polygon fill="#63b8ff" stroke="#63b8ff" points="358.13,-144.59 368.5,-142.39 359.02,-137.64 358.13,-144.59"/>
</a>
</g>
</g>
<!-- Node13 -->
<g id="Node000013" class="node">
<title>Node13</title>
<g id="a_Node000013"><a xlink:href="classmoose_1_1MooseParser.html#abd34b9a95e9af87d5e7357707f3ada47" target="_top" xlink:title=" ">
<polygon fill="white" stroke="#666666" points="486.5,-116.86 368.5,-116.86 368.5,-86.86 486.5,-86.86 486.5,-116.86"/>
<text text-anchor="start" x="376.5" y="-104.86" font-family="Ubuntu Mono" font-size="10.00">moose::MooseParser</text>
<text text-anchor="middle" x="427.5" y="-93.86" font-family="Ubuntu Mono" font-size="10.00">::SRand2</text>
</a>
</g>
</g>
<!-- Node2&#45;&gt;Node13 -->
<g id="edge14_Node000002_Node000013" class="edge">
<title>Node2&#45;&gt;Node13</title>
<g id="a_edge14_Node000002_Node000013"><a xlink:title=" ">
<path fill="none" stroke="#63b8ff" d="M295.7,-118.69C315.44,-116.15 337.88,-113.26 358.52,-110.6"/>
<polygon fill="#63b8ff" stroke="#63b8ff" points="359.02,-114.07 368.5,-109.32 358.13,-107.13 359.02,-114.07"/>
</a>
</g>
</g>
<!-- Node6 -->
<g id="Node000006" class="node">
<title>Node6</title>
<g id="a_Node000006"><a xlink:href="namespacemoose.html#ae65f9d4e187c732b37450b5cb8dab7a7" target="_top" xlink:title="Generate a random double between 0 and 1.">
<polygon fill="white" stroke="#666666" points="791.5,-73.36 700.5,-73.36 700.5,-54.36 791.5,-54.36 791.5,-73.36"/>
<text text-anchor="middle" x="746" y="-61.36" font-family="Ubuntu Mono" font-size="10.00">moose::mtrand</text>
</a>
</g>
</g>
<!-- Node5&#45;&gt;Node6 -->
<g id="edge5_Node000005_Node000006" class="edge">
<title>Node5&#45;&gt;Node6</title>
<g id="a_edge5_Node000005_Node000006"><a xlink:title=" ">
<path fill="none" stroke="#63b8ff" d="M639.3,-30.91C660.28,-37.45 684.58,-45.02 704.58,-51.26"/>
<polygon fill="#63b8ff" stroke="#63b8ff" points="703.73,-54.66 714.31,-54.29 705.81,-47.98 703.73,-54.66"/>
</a>
</g>
</g>
<!-- Node7 -->
<g id="Node000007" class="node">
<title>Node7</title>
<g id="a_Node000007"><a xlink:href="classmoose_1_1RNG.html#a6fec47558673d4d721a6918bb43b3fd3" target="_top" xlink:title="Return a uniformly distributed random number between 0 and 1 (exclusive).">
<polygon fill="white" stroke="#666666" points="965,-73.36 843,-73.36 843,-54.36 965,-54.36 965,-73.36"/>
<text text-anchor="middle" x="904" y="-61.36" font-family="Ubuntu Mono" font-size="10.00">moose::RNG::uniform</text>
</a>
</g>
</g>
<!-- Node6&#45;&gt;Node7 -->
<g id="edge6_Node000006_Node000007" class="edge">
<title>Node6&#45;&gt;Node7</title>
<g id="a_edge6_Node000006_Node000007"><a xlink:title=" ">
<path fill="none" stroke="#63b8ff" d="M791.7,-63.86C804.53,-63.86 818.83,-63.86 832.79,-63.86"/>
<polygon fill="#63b8ff" stroke="#63b8ff" points="832.88,-67.36 842.88,-63.86 832.88,-60.36 832.88,-67.36"/>
</a>
</g>
</g>
<!-- Node9 -->
<g id="Node000009" class="node">
<title>Node9</title>
<g id="a_Node000009"><a xlink:href="namespacemoose.html#a3b5a06b338fff99abea362c7d26feb7a" target="_top" xlink:title=" ">
<polygon fill="white" stroke="#666666" points="635.5,-73.36 544.5,-73.36 544.5,-54.36 635.5,-54.36 635.5,-73.36"/>
<text text-anchor="middle" x="590" y="-61.36" font-family="Ubuntu Mono" font-size="10.00">moose::mtrand</text>
</a>
</g>
</g>
<!-- Node8&#45;&gt;Node9 -->
<g id="edge8_Node000008_Node000009" class="edge">
<title>Node8&#45;&gt;Node9</title>
<g id="a_edge8_Node000008_Node000009"><a xlink:title=" ">
<path fill="none" stroke="#63b8ff" d="M486.9,-57.5C502.34,-58.46 518.94,-59.49 534.19,-60.44"/>
<polygon fill="#63b8ff" stroke="#63b8ff" points="534.29,-63.95 544.49,-61.08 534.73,-56.97 534.29,-63.95"/>
</a>
</g>
</g>
<!-- Node9&#45;&gt;Node6 -->
<g id="edge9_Node000009_Node000006" class="edge">
<title>Node9&#45;&gt;Node6</title>
<g id="a_edge9_Node000009_Node000006"><a xlink:title=" ">
<path fill="none" stroke="#63b8ff" d="M635.54,-63.86C652.63,-63.86 672.32,-63.86 690.25,-63.86"/>
<polygon fill="#63b8ff" stroke="#63b8ff" points="690.29,-67.36 700.29,-63.86 690.29,-60.36 690.29,-67.36"/>
</a>
</g>
</g>
<!-- Node10&#45;&gt;Node6 -->
<g id="edge11_Node000010_Node000006" class="edge">
<title>Node10&#45;&gt;Node6</title>
<g id="a_edge11_Node000010_Node000006"><a xlink:title=" ">
<path fill="none" stroke="#63b8ff" d="M486.78,-152.72C533.07,-152.65 598.24,-147.18 649,-121.86 669.53,-111.62 665.66,-97.2 685,-84.86 689.59,-81.93 694.65,-79.34 699.81,-77.09"/>
<polygon fill="#63b8ff" stroke="#63b8ff" points="701.16,-80.32 709.16,-73.37 698.57,-73.81 701.16,-80.32"/>
</a>
</g>
</g>
<!-- Node11 -->
<g id="Node000011" class="node">
<title>Node11</title>
<g id="a_Node000011"><a xlink:href="namespacemoose.html#a016d92a21244e86231ea80932c1c9175" target="_top" xlink:title="Seed seed for RNG.">
<polygon fill="white" stroke="#666666" points="636,-113.36 544,-113.36 544,-94.36 636,-94.36 636,-113.36"/>
<text text-anchor="middle" x="590" y="-101.36" font-family="Ubuntu Mono" font-size="10.00">moose::mtseed</text>
</a>
</g>
</g>
<!-- Node10&#45;&gt;Node11 -->
<g id="edge12_Node000010_Node000011" class="edge">
<title>Node10&#45;&gt;Node11</title>
<g id="a_edge12_Node000010_Node000011"><a xlink:title=" ">
<path fill="none" stroke="#63b8ff" d="M481.05,-134.79C502.01,-128.79 525.85,-121.96 545.78,-116.24"/>
<polygon fill="#63b8ff" stroke="#63b8ff" points="546.86,-119.57 555.51,-113.45 544.94,-112.85 546.86,-119.57"/>
</a>
</g>
</g>
<!-- Node12 -->
<g id="Node000012" class="node">
<title>Node12</title>
<g id="a_Node000012"><a xlink:href="classmoose_1_1RNG.html#ad310f016166b1548e23fb8f3b54f83d7" target="_top" xlink:title="If seed if 0 then set seed to a random number else set seed to the given number.">
<polygon fill="white" stroke="#666666" points="807,-113.36 685,-113.36 685,-94.36 807,-94.36 807,-113.36"/>
<text text-anchor="middle" x="746" y="-101.36" font-family="Ubuntu Mono" font-size="10.00">moose::RNG::setSeed</text>
</a>
</g>
</g>
<!-- Node11&#45;&gt;Node12 -->
<g id="edge13_Node000011_Node000012" class="edge">
<title>Node11&#45;&gt;Node12</title>
<g id="a_edge13_Node000011_Node000012"><a xlink:title=" ">
<path fill="none" stroke="#63b8ff" d="M636.37,-103.86C648.34,-103.86 661.55,-103.86 674.51,-103.86"/>
<polygon fill="#63b8ff" stroke="#63b8ff" points="674.82,-107.36 684.82,-103.86 674.82,-100.36 674.82,-107.36"/>
</a>
</g>
</g>
<!-- Node13&#45;&gt;Node9 -->
<g id="edge15_Node000013_Node000009" class="edge">
<title>Node13&#45;&gt;Node9</title>
<g id="a_edge15_Node000013_Node000009"><a xlink:title=" ">
<path fill="none" stroke="#63b8ff" d="M486.9,-88.03C503.82,-84.02 522.15,-79.68 538.54,-75.8"/>
<polygon fill="#63b8ff" stroke="#63b8ff" points="539.55,-79.16 548.47,-73.45 537.93,-72.35 539.55,-79.16"/>
</a>
</g>
</g>
<!-- Node13&#45;&gt;Node11 -->
<g id="edge16_Node000013_Node000011" class="edge">
<title>Node13&#45;&gt;Node11</title>
<g id="a_edge16_Node000013_Node000011"><a xlink:title=" ">
<path fill="none" stroke="#63b8ff" d="M486.9,-102.58C502.19,-102.78 518.63,-102.98 533.75,-103.17"/>
<polygon fill="#63b8ff" stroke="#63b8ff" points="533.94,-106.67 543.98,-103.3 534.03,-99.67 533.94,-106.67"/>
</a>
</g>
</g>
</g>
</svg>

<g id="navigator" transform="translate(0 0)" fill="#404254">
  <rect fill="#f2f5e9" fill-opacity="0.5" stroke="#606060" stroke-width=".5" x="0" y="0" width="60" height="60"/>
  <use id="zoomplus" xlink:href="#zoomPlus" x="17" y="9" onmousedown="handleZoom(evt,'in')"/>
  <use id="zoomminus" xlink:href="#zoomMin" x="42" y="9" onmousedown="handleZoom(evt,'out')"/>
  <use id="reset" xlink:href="#resetDef" x="30" y="36" onmousedown="handleReset()"/>
   <use id="arrowup" xlink:href="#arrowUp" x="0" y="0" onmousedown="handlePan(0,-1)"/>
  <use id="arrowright" xlink:href="#arrowRight" x="0" y="0" onmousedown="handlePan(1,0)"/>
  <use id="arrowdown" xlink:href="#arrowDown" x="0" y="0" onmousedown="handlePan(0,1)"/>
  <use id="arrowleft" xlink:href="#arrowLeft" x="0" y="0" onmousedown="handlePan(-1,0)"/>
</g>
<svg viewBox="0 0 15 15" width="100%" height="30px" preserveAspectRatio="xMaxYMin meet">
 <g id="arrow_out" transform="scale(0.3 0.3)">
  <a xlink:href="classmoose_1_1MooseParser_a8c6459a406eb58ee02ef79317eb6d256_cgraph_org.svg" target="_base">
   <rect id="button" ry="5" rx="5" y="6" x="6" height="38" width="38"
        fill="#f2f5e9" fill-opacity="0.5" stroke="#606060" stroke-width="1.0"/>
   <path id="arrow"
     d="M 11.500037,31.436501 C 11.940474,20.09759 22.043105,11.32322 32.158766,21.979434 L 37.068811,17.246167 C 37.068811,17.246167 37.088388,32 37.088388,32 L 22.160133,31.978069 C 22.160133,31.978069 26.997745,27.140456 26.997745,27.140456 C 18.528582,18.264221 13.291696,25.230495 11.500037,31.436501 z"
     style="fill:#404040;"/>
  </a>
 </g>
</svg>

<style type='text/css'>
<![CDATA[
[data-mouse-over-selected='false'] { opacity: 0.7; }
[data-mouse-over-selected='true']  { opacity: 1.0; }
]]>
</style>
<script type="application/ecmascript"><![CDATA[
document.addEventListener('DOMContentLoaded', (event) => {
  highlightEdges();
  highlightAdjacentNodes();
});
]]></script>
</svg>
