<?xml version="1.0" encoding="UTF-8" standalone="no"?>
<!DOCTYPE svg PUBLIC "-//W3C//DTD SVG 1.1//EN"
 "http://www.w3.org/Graphics/SVG/1.1/DTD/svg11.dtd">
<!-- Generated by graphviz version 2.43.0 (0)
 -->
<!-- Title: HHChannel2D::HHChannel2D Pages: 1 -->
<svg width="460pt" height="27pt"
 viewBox="0.00 0.00 460.00 27.00" xmlns="http://www.w3.org/2000/svg" xmlns:xlink="http://www.w3.org/1999/xlink">
<g id="graph0" class="graph" transform="scale(1 1) rotate(0) translate(4 23)">
<title>HHChannel2D::HHChannel2D</title>
<!-- Node1 -->
<g id="Node000001" class="node">
<title>Node1</title>
<g id="a_Node000001"><a xlink:title=" ">
<polygon fill="#999999" stroke="#666666" points="159,-19 0,-19 0,0 159,0 159,-19"/>
<text text-anchor="middle" x="79.5" y="-7" font-family="Ubuntu Mono" font-size="10.00">HHChannel2D::HHChannel2D</text>
</a>
</g>
</g>
<!-- Node2 -->
<g id="Node000002" class="node">
<title>Node2</title>
<g id="a_Node000002"><a xlink:href="classHHChannelBase.html#a95ae7f77bea86646b8c823dd435c8916" target="_top" xlink:title=" ">
<polygon fill="white" stroke="#666666" points="375,-19 195,-19 195,0 375,0 375,-19"/>
<text text-anchor="middle" x="285" y="-7" font-family="Ubuntu Mono" font-size="10.00">HHChannelBase::HHChannelBase</text>
</a>
</g>
</g>
<!-- Node1&#45;&gt;Node2 -->
<g id="edge1_Node000001_Node000002" class="edge">
<title>Node1&#45;&gt;Node2</title>
<g id="a_edge1_Node000001_Node000002"><a xlink:title=" ">
<path fill="none" stroke="#63b8ff" d="M159.18,-9.5C167.54,-9.5 176.12,-9.5 184.68,-9.5"/>
<polygon fill="#63b8ff" stroke="#63b8ff" points="184.7,-13 194.7,-9.5 184.7,-6 184.7,-13"/>
</a>
</g>
</g>
<!-- Node3 -->
<g id="Node000003" class="node">
<title>Node3</title>
<g id="a_Node000003"><a xlink:href="classId.html#ac094968605676d63b55ca33b7e318948" target="_top" xlink:title=" ">
<polygon fill="white" stroke="#666666" points="452,-19 411,-19 411,0 452,0 452,-19"/>
<text text-anchor="middle" x="431.5" y="-7" font-family="Ubuntu Mono" font-size="10.00">Id::Id</text>
</a>
</g>
</g>
<!-- Node2&#45;&gt;Node3 -->
<g id="edge2_Node000002_Node000003" class="edge">
<title>Node2&#45;&gt;Node3</title>
<g id="a_edge2_Node000002_Node000003"><a xlink:title=" ">
<path fill="none" stroke="#63b8ff" d="M375.05,-9.5C384.2,-9.5 392.98,-9.5 400.74,-9.5"/>
<polygon fill="#63b8ff" stroke="#63b8ff" points="400.97,-13 410.97,-9.5 400.97,-6 400.97,-13"/>
</a>
</g>
</g>
</g>
</svg>
