<?xml version="1.0" encoding="UTF-8" standalone="no"?>
<!DOCTYPE svg PUBLIC "-//W3C//DTD SVG 1.1//EN"
 "http://www.w3.org/Graphics/SVG/1.1/DTD/svg11.dtd">
<!-- Generated by graphviz version 2.43.0 (0)
 -->
<!-- Title: moose::MooseParser::SetExpr Pages: 1 -->
<svg width="486pt" height="86pt"
 viewBox="0.00 0.00 486.00 86.00" xmlns="http://www.w3.org/2000/svg" xmlns:xlink="http://www.w3.org/1999/xlink">

<svg id="main" version="1.1" xmlns="http://www.w3.org/2000/svg" xmlns:xlink="http://www.w3.org/1999/xlink" xml:space="preserve" onload="init(evt)">
<style type="text/css"><![CDATA[
.node, .edge {opacity: 0.7;}
.node.selected, .edge.selected {opacity: 1;}
.edge:hover path { stroke: red; }
.edge:hover polygon { stroke: red; fill: red; }
]]></style>
<script type="application/ecmascript" xlink:href="svg.min.js"/>
<svg id="graph" class="graph">
<g id="graph0" class="graph" transform="scale(1 1) rotate(0) translate(4 82)">
<title>moose::MooseParser::SetExpr</title>
<!-- Node1 -->
<g id="Node000001" class="node">
<title>Node1</title>
<g id="a_Node000001"><a xlink:title=" ">
<polygon fill="#999999" stroke="#666666" points="118,-54 0,-54 0,-24 118,-24 118,-54"/>
<text text-anchor="start" x="8" y="-42" font-family="Ubuntu Mono" font-size="10.00">moose::MooseParser</text>
<text text-anchor="middle" x="59" y="-31" font-family="Ubuntu Mono" font-size="10.00">::SetExpr</text>
</a>
</g>
</g>
<!-- Node2 -->
<g id="Node000002" class="node">
<title>Node2</title>
<g id="a_Node000002"><a xlink:href="classmoose_1_1MooseParser.html#aa1b46c84478a8111466f9a5f838fca9f" target="_top" xlink:title=" ">
<polygon fill="white" stroke="#666666" points="272,-78 154,-78 154,-48 272,-48 272,-78"/>
<text text-anchor="start" x="162" y="-66" font-family="Ubuntu Mono" font-size="10.00">moose::MooseParser</text>
<text text-anchor="middle" x="213" y="-55" font-family="Ubuntu Mono" font-size="10.00">::CompileExpr</text>
</a>
</g>
</g>
<!-- Node1&#45;&gt;Node2 -->
<g id="edge1_Node000001_Node000002" class="edge">
<title>Node1&#45;&gt;Node2</title>
<g id="a_edge1_Node000001_Node000002"><a xlink:title=" ">
<path fill="none" stroke="#63b8ff" d="M118.33,-48.21C126.7,-49.53 135.36,-50.9 143.9,-52.25"/>
<polygon fill="#63b8ff" stroke="#63b8ff" points="143.4,-55.71 153.82,-53.81 144.49,-48.8 143.4,-55.71"/>
</a>
</g>
</g>
<!-- Node4 -->
<g id="Node000004" class="node">
<title>Node4</title>
<g id="a_Node000004"><a xlink:href="classmoose_1_1MooseParser.html#a16a2bc7f1e0e566a6c921b5876966031" target="_top" xlink:title=" ">
<polygon fill="white" stroke="#666666" points="272,-30 154,-30 154,0 272,0 272,-30"/>
<text text-anchor="start" x="162" y="-18" font-family="Ubuntu Mono" font-size="10.00">moose::MooseParser</text>
<text text-anchor="middle" x="213" y="-7" font-family="Ubuntu Mono" font-size="10.00">::Reformat</text>
</a>
</g>
</g>
<!-- Node1&#45;&gt;Node4 -->
<g id="edge3_Node000001_Node000004" class="edge">
<title>Node1&#45;&gt;Node4</title>
<g id="a_edge3_Node000001_Node000004"><a xlink:title=" ">
<path fill="none" stroke="#63b8ff" d="M118.33,-29.79C126.7,-28.47 135.36,-27.1 143.9,-25.75"/>
<polygon fill="#63b8ff" stroke="#63b8ff" points="144.49,-29.2 153.82,-24.19 143.4,-22.29 144.49,-29.2"/>
</a>
</g>
</g>
<!-- Node3 -->
<g id="Node000003" class="node">
<title>Node3</title>
<g id="a_Node000003"><a xlink:href="structmoose_1_1Parser_1_1ParserException.html#ad1f40fc5b35263f7df106530f4ebb184" target="_top" xlink:title=" ">
<polygon fill="white" stroke="#666666" points="478,-78 308,-78 308,-48 478,-48 478,-78"/>
<text text-anchor="start" x="316" y="-66" font-family="Ubuntu Mono" font-size="10.00">moose::Parser::ParserException</text>
<text text-anchor="middle" x="393" y="-55" font-family="Ubuntu Mono" font-size="10.00">::ParserException</text>
</a>
</g>
</g>
<!-- Node2&#45;&gt;Node3 -->
<g id="edge2_Node000002_Node000003" class="edge">
<title>Node2&#45;&gt;Node3</title>
<g id="a_edge2_Node000002_Node000003"><a xlink:title=" ">
<path fill="none" stroke="#63b8ff" d="M272.28,-63C280.45,-63 289,-63 297.62,-63"/>
<polygon fill="#63b8ff" stroke="#63b8ff" points="297.76,-66.5 307.76,-63 297.76,-59.5 297.76,-66.5"/>
</a>
</g>
</g>
<!-- Node5 -->
<g id="Node000005" class="node">
<title>Node5</title>
<g id="a_Node000005"><a xlink:href="namespacemoose.html#a094027dde11a826fee7ce73b7211ebd9" target="_top" xlink:title=" ">
<polygon fill="white" stroke="#666666" points="456.5,-24.5 329.5,-24.5 329.5,-5.5 456.5,-5.5 456.5,-24.5"/>
<text text-anchor="middle" x="393" y="-12.5" font-family="Ubuntu Mono" font-size="10.00">moose::str_replace_all</text>
</a>
</g>
</g>
<!-- Node4&#45;&gt;Node5 -->
<g id="edge4_Node000004_Node000005" class="edge">
<title>Node4&#45;&gt;Node5</title>
<g id="a_edge4_Node000004_Node000005"><a xlink:title=" ">
<path fill="none" stroke="#63b8ff" d="M272.28,-15C287.25,-15 303.55,-15 319.15,-15"/>
<polygon fill="#63b8ff" stroke="#63b8ff" points="319.29,-18.5 329.29,-15 319.29,-11.5 319.29,-18.5"/>
</a>
</g>
</g>
</g>
</svg>
</svg>

<style type='text/css'>
<![CDATA[
[data-mouse-over-selected='false'] { opacity: 0.7; }
[data-mouse-over-selected='true']  { opacity: 1.0; }
]]>
</style>
<script type="application/ecmascript"><![CDATA[
document.addEventListener('DOMContentLoaded', (event) => {
  highlightEdges();
  highlightAdjacentNodes();
});
]]></script>
</svg>
