<?xml version="1.0" encoding="UTF-8" standalone="no"?>
<!DOCTYPE svg PUBLIC "-//W3C//DTD SVG 1.1//EN"
 "http://www.w3.org/Graphics/SVG/1.1/DTD/svg11.dtd">
<!-- Generated by graphviz version 2.43.0 (0)
 -->
<!-- Title: DestFinfo Pages: 1 -->
<svg width="122pt" height="472pt"
 viewBox="0.00 0.00 122.00 472.00" xmlns="http://www.w3.org/2000/svg" xmlns:xlink="http://www.w3.org/1999/xlink">
<g id="graph0" class="graph" transform="scale(1 1) rotate(0) translate(4 468)">
<title>DestFinfo</title>
<!-- Node1 -->
<g id="Node000001" class="node">
<title>Node1</title>
<g id="a_Node000001"><a xlink:title=" ">
<polygon fill="#999999" stroke="transparent" points="102.5,-169 11.5,-169 11.5,0 102.5,0 102.5,-169"/>
<text text-anchor="start" x="34" y="-156.5" font-family="Ubuntu Mono" font-size="10.00">DestFinfo</text>
<text text-anchor="start" x="18.5" y="-141.5" font-family="Ubuntu Mono" font-size="10.00">&#45;</text>
<text text-anchor="start" x="29" y="-141.5" font-family="Ubuntu Mono" font-size="10.00">fid_</text>
<text text-anchor="start" x="18.5" y="-126.5" font-family="Ubuntu Mono" font-size="10.00">&#45;</text>
<text text-anchor="start" x="29" y="-126.5" font-family="Ubuntu Mono" font-size="10.00">func_</text>
<text text-anchor="start" x="16" y="-111.5" font-family="Ubuntu Mono" font-size="10.00">+</text>
<text text-anchor="start" x="29" y="-111.5" font-family="Ubuntu Mono" font-size="10.00">DestFinfo()</text>
<text text-anchor="start" x="16" y="-96.5" font-family="Ubuntu Mono" font-size="10.00">+</text>
<text text-anchor="start" x="29" y="-96.5" font-family="Ubuntu Mono" font-size="10.00">getFid()</text>
<text text-anchor="start" x="16" y="-81.5" font-family="Ubuntu Mono" font-size="10.00">+</text>
<text text-anchor="start" x="29" y="-81.5" font-family="Ubuntu Mono" font-size="10.00">getOpFunc()</text>
<text text-anchor="start" x="16" y="-66.5" font-family="Ubuntu Mono" font-size="10.00">+</text>
<text text-anchor="start" x="29" y="-66.5" font-family="Ubuntu Mono" font-size="10.00">registerFinfo()</text>
<text text-anchor="start" x="16" y="-51.5" font-family="Ubuntu Mono" font-size="10.00">+</text>
<text text-anchor="start" x="29" y="-51.5" font-family="Ubuntu Mono" font-size="10.00">rttiType()</text>
<text text-anchor="start" x="16" y="-36.5" font-family="Ubuntu Mono" font-size="10.00">+</text>
<text text-anchor="start" x="29" y="-36.5" font-family="Ubuntu Mono" font-size="10.00">strGet()</text>
<text text-anchor="start" x="16" y="-21.5" font-family="Ubuntu Mono" font-size="10.00">+</text>
<text text-anchor="start" x="29" y="-21.5" font-family="Ubuntu Mono" font-size="10.00">strSet()</text>
<text text-anchor="start" x="16" y="-6.5" font-family="Ubuntu Mono" font-size="10.00">+</text>
<text text-anchor="start" x="29" y="-6.5" font-family="Ubuntu Mono" font-size="10.00">~DestFinfo()</text>
<polygon fill="#666666" stroke="#666666" points="12,-151.5 12,-151.5 103,-151.5 103,-151.5 12,-151.5"/>
<polygon fill="#666666" stroke="#666666" points="12,-121.5 12,-121.5 27,-121.5 27,-121.5 12,-121.5"/>
<polygon fill="#666666" stroke="#666666" points="27,-121.5 27,-121.5 103,-121.5 103,-121.5 27,-121.5"/>
<polygon fill="none" stroke="#666666" points="11.5,0 11.5,-169 102.5,-169 102.5,0 11.5,0"/>
</a>
</g>
</g>
<!-- Node2 -->
<g id="Node000002" class="node">
<title>Node2</title>
<g id="a_Node000002"><a xlink:href="classFinfo.html" target="_top" xlink:title=" ">
<polygon fill="white" stroke="transparent" points="114,-464 0,-464 0,-205 114,-205 114,-464"/>
<text text-anchor="start" x="44.5" y="-451.5" font-family="Ubuntu Mono" font-size="10.00">Finfo</text>
<text text-anchor="start" x="6.5" y="-436.5" font-family="Ubuntu Mono" font-size="10.00">&#45;</text>
<text text-anchor="start" x="17" y="-436.5" font-family="Ubuntu Mono" font-size="10.00">doc_</text>
<text text-anchor="start" x="6.5" y="-421.5" font-family="Ubuntu Mono" font-size="10.00">&#45;</text>
<text text-anchor="start" x="17" y="-421.5" font-family="Ubuntu Mono" font-size="10.00">name_</text>
<text text-anchor="start" x="4" y="-406.5" font-family="Ubuntu Mono" font-size="10.00">+</text>
<text text-anchor="start" x="17" y="-406.5" font-family="Ubuntu Mono" font-size="10.00">addMsg()</text>
<text text-anchor="start" x="4" y="-391.5" font-family="Ubuntu Mono" font-size="10.00">+</text>
<text text-anchor="start" x="17" y="-391.5" font-family="Ubuntu Mono" font-size="10.00">checkTarget()</text>
<text text-anchor="start" x="4" y="-376.5" font-family="Ubuntu Mono" font-size="10.00">+</text>
<text text-anchor="start" x="17" y="-376.5" font-family="Ubuntu Mono" font-size="10.00">docs()</text>
<text text-anchor="start" x="4" y="-361.5" font-family="Ubuntu Mono" font-size="10.00">+</text>
<text text-anchor="start" x="17" y="-361.5" font-family="Ubuntu Mono" font-size="10.00">Finfo()</text>
<text text-anchor="start" x="4" y="-346.5" font-family="Ubuntu Mono" font-size="10.00">+</text>
<text text-anchor="start" x="17" y="-346.5" font-family="Ubuntu Mono" font-size="10.00">innerDest()</text>
<text text-anchor="start" x="4" y="-331.5" font-family="Ubuntu Mono" font-size="10.00">+</text>
<text text-anchor="start" x="17" y="-331.5" font-family="Ubuntu Mono" font-size="10.00">innerSrc()</text>
<text text-anchor="start" x="4" y="-316.5" font-family="Ubuntu Mono" font-size="10.00">+</text>
<text text-anchor="start" x="17" y="-316.5" font-family="Ubuntu Mono" font-size="10.00">name()</text>
<text text-anchor="start" x="4" y="-301.5" font-family="Ubuntu Mono" font-size="10.00">+</text>
<text text-anchor="start" x="17" y="-301.5" font-family="Ubuntu Mono" font-size="10.00">postCreationFunc()</text>
<text text-anchor="start" x="4" y="-286.5" font-family="Ubuntu Mono" font-size="10.00">+</text>
<text text-anchor="start" x="17" y="-286.5" font-family="Ubuntu Mono" font-size="10.00">registerFinfo()</text>
<text text-anchor="start" x="4" y="-271.5" font-family="Ubuntu Mono" font-size="10.00">+</text>
<text text-anchor="start" x="17" y="-271.5" font-family="Ubuntu Mono" font-size="10.00">rttiType()</text>
<text text-anchor="start" x="4" y="-256.5" font-family="Ubuntu Mono" font-size="10.00">+</text>
<text text-anchor="start" x="17" y="-256.5" font-family="Ubuntu Mono" font-size="10.00">strGet()</text>
<text text-anchor="start" x="4" y="-241.5" font-family="Ubuntu Mono" font-size="10.00">+</text>
<text text-anchor="start" x="17" y="-241.5" font-family="Ubuntu Mono" font-size="10.00">strSet()</text>
<text text-anchor="start" x="4" y="-226.5" font-family="Ubuntu Mono" font-size="10.00">+</text>
<text text-anchor="start" x="17" y="-226.5" font-family="Ubuntu Mono" font-size="10.00">~Finfo()</text>
<text text-anchor="start" x="4" y="-211.5" font-family="Ubuntu Mono" font-size="10.00">+</text>
<text text-anchor="start" x="17" y="-211.5" font-family="Ubuntu Mono" font-size="10.00">initCinfo()</text>
<polygon fill="#666666" stroke="#666666" points="0,-446.5 0,-446.5 114,-446.5 114,-446.5 0,-446.5"/>
<polygon fill="#666666" stroke="#666666" points="0,-416.5 0,-416.5 15,-416.5 15,-416.5 0,-416.5"/>
<polygon fill="#666666" stroke="#666666" points="15,-416.5 15,-416.5 114,-416.5 114,-416.5 15,-416.5"/>
<polygon fill="none" stroke="#666666" points="0,-205 0,-464 114,-464 114,-205 0,-205"/>
</a>
</g>
</g>
<!-- Node2&#45;&gt;Node1 -->
<g id="edge1_Node000001_Node000002" class="edge">
<title>Node2&#45;&gt;Node1</title>
<g id="a_edge1_Node000001_Node000002"><a xlink:title=" ">
<path fill="none" stroke="#63b8ff" d="M57,-194.65C57,-186.06 57,-177.55 57,-169.32"/>
<polygon fill="none" stroke="#63b8ff" points="53.5,-194.78 57,-204.78 60.5,-194.78 53.5,-194.78"/>
</a>
</g>
</g>
</g>
</svg>
