<?xml version="1.0" encoding="UTF-8" standalone="no"?>
<!DOCTYPE svg PUBLIC "-//W3C//DTD SVG 1.1//EN"
 "http://www.w3.org/Graphics/SVG/1.1/DTD/svg11.dtd">
<!-- Generated by graphviz version 2.43.0 (0)
 -->
<!-- Title: Vec::distance Pages: 1 -->
<!--zoomable 271 -->

<svg id="main" version="1.1" xmlns="http://www.w3.org/2000/svg" xmlns:xlink="http://www.w3.org/1999/xlink" xml:space="preserve" onload="init(evt)">
<style type="text/css"><![CDATA[
.node, .edge {opacity: 0.7;}
.node.selected, .edge.selected {opacity: 1;}
.edge:hover path { stroke: red; }
.edge:hover polygon { stroke: red; fill: red; }
]]></style>

<defs>
  <circle id="rim" cx="0" cy="0" r="7"/>
  <circle id="rim2" cx="0" cy="0" r="3.5"/>
  <g id="zoomPlus">
    <use xlink:href="#rim" fill="#404040"><set attributeName="fill" to="#808080" begin="zoomplus.mouseover" end="zoomplus.mouseout"/></use>
    <path d="M-4,0h8M0,-4v8" fill="none" stroke="white" stroke-width="1.5" pointer-events="none"/>
  </g>
  <g id="zoomMin">
    <use xlink:href="#rim" fill="#404040"><set attributeName="fill" to="#808080" begin="zoomminus.mouseover" end="zoomminus.mouseout"/></use>
    <path d="M-4,0h8" fill="none" stroke="white" stroke-width="1.5" pointer-events="none"/>
  </g>
  <g id="arrowUp" transform="translate(30 24)">
    <use xlink:href="#rim"/>
    <path pointer-events="none" fill="none" stroke="white" stroke-width="1.5" d="M0,-3.0v7 M-2.5,-0.5L0,-3.0L2.5,-0.5"/>
  </g>
  <g id="arrowRight" transform="rotate(90) translate(36 -43)">
    <use xlink:href="#rim"/>
    <path pointer-events="none" fill="none" stroke="white" stroke-width="1.5" d="M0,-3.0v7 M-2.5,-0.5L0,-3.0L2.5,-0.5"/>
  </g>
  <g id="arrowDown" transform="rotate(180) translate(-30 -48)">
    <use xlink:href="#rim"/>
    <path pointer-events="none" fill="none" stroke="white" stroke-width="1.5" d="M0,-3.0v7 M-2.5,-0.5L0,-3.0L2.5,-0.5"/>
  </g>
  <g id="arrowLeft" transform="rotate(270) translate(-36 17)">
    <use xlink:href="#rim"/>
    <path pointer-events="none" fill="none" stroke="white" stroke-width="1.5" d="M0,-3.0v7 M-2.5,-0.5L0,-3.0L2.5,-0.5"/>
  </g>
  <g id="resetDef">
    <use xlink:href="#rim2" fill="#404040"><set attributeName="fill" to="#808080" begin="reset.mouseover" end="reset.mouseout"/></use>
  </g>
</defs>
<script type="application/ecmascript">
var viewWidth = 1249;
var viewHeight = 271;
var sectionId = 'dynsection-8';
</script>
<script type="application/ecmascript" xlink:href="svg.min.js"/>
<svg id="graph" class="graph">
<g id="viewport">
<title>Vec::distance</title>
<!-- Node1 -->
<g id="Node000001" class="node">
<title>Node1</title>
<g id="a_Node000001"><a xlink:title=" ">
<polygon fill="#999999" stroke="#666666" points="1241,-97 1160,-97 1160,-78 1241,-78 1241,-97"/>
<text text-anchor="middle" x="1200.5" y="-85" font-family="Ubuntu Mono" font-size="10.00">Vec::distance</text>
</a>
</g>
</g>
<!-- Node2 -->
<g id="Node000002" class="node">
<title>Node2</title>
<g id="a_Node000002"><a xlink:href="classSwcSegment.html#ac122024c107655032f13e8a49e057b38" target="_top" xlink:title=" ">
<polygon fill="white" stroke="#666666" points="1107,-187 980,-187 980,-168 1107,-168 1107,-187"/>
<text text-anchor="middle" x="1043.5" y="-175" font-family="Ubuntu Mono" font-size="10.00">SwcSegment::distance</text>
</a>
</g>
</g>
<!-- Node1&#45;&gt;Node2 -->
<g id="edge1_Node000001_Node000002" class="edge">
<title>Node1&#45;&gt;Node2</title>
<g id="a_edge1_Node000001_Node000002"><a xlink:title=" ">
<path fill="none" stroke="#63b8ff" d="M1184.23,-104.86C1170.03,-120 1147.57,-141.51 1124,-154.5 1113.68,-160.19 1101.82,-164.59 1090.45,-167.95"/>
<polygon fill="#63b8ff" stroke="#63b8ff" points="1187.06,-106.94 1191.22,-97.2 1181.9,-102.22 1187.06,-106.94"/>
</a>
</g>
</g>
<!-- Node15 -->
<g id="Node000015" class="node">
<title>Node15</title>
<g id="a_Node000015"><a xlink:href="classCylBase.html#ae00ad52eb7ecc20efc16f22735c368da" target="_top" xlink:title=" ">
<polygon fill="white" stroke="#666666" points="1093,-23 994,-23 994,-4 1093,-4 1093,-23"/>
<text text-anchor="middle" x="1043.5" y="-11" font-family="Ubuntu Mono" font-size="10.00">CylBase::nearest</text>
</a>
</g>
</g>
<!-- Node1&#45;&gt;Node15 -->
<g id="edge17_Node000001_Node000015" class="edge">
<title>Node1&#45;&gt;Node15</title>
<g id="a_edge17_Node000001_Node000015"><a xlink:title=" ">
<path fill="none" stroke="#63b8ff" d="M1181.49,-70.73C1167,-58.13 1145.57,-41.4 1124,-31.5 1114.35,-27.07 1103.54,-23.69 1093.06,-21.13"/>
<polygon fill="#63b8ff" stroke="#63b8ff" points="1179.38,-73.54 1189.17,-77.59 1184.04,-68.32 1179.38,-73.54"/>
</a>
</g>
</g>
<!-- Node22 -->
<g id="Node000022" class="node">
<title>Node22</title>
<g id="a_Node000022"><a xlink:href="classPsdMesh.html#a80ae3d0a7fc08e4ea046e4a220a9eb51" target="_top" xlink:title=" ">
<polygon fill="white" stroke="#666666" points="1095,-97 992,-97 992,-78 1095,-78 1095,-97"/>
<text text-anchor="middle" x="1043.5" y="-85" font-family="Ubuntu Mono" font-size="10.00">PsdMesh::nearest</text>
</a>
</g>
</g>
<!-- Node1&#45;&gt;Node22 -->
<g id="edge25_Node000001_Node000022" class="edge">
<title>Node1&#45;&gt;Node22</title>
<g id="a_edge25_Node000001_Node000022"><a xlink:title=" ">
<path fill="none" stroke="#63b8ff" d="M1149.95,-87.5C1132.43,-87.5 1112.7,-87.5 1095.09,-87.5"/>
<polygon fill="#63b8ff" stroke="#63b8ff" points="1149.99,-91 1159.99,-87.5 1149.99,-84 1149.99,-91"/>
</a>
</g>
</g>
<!-- Node23 -->
<g id="Node000023" class="node">
<title>Node23</title>
<g id="a_Node000023"><a xlink:href="classSpineMesh.html#a130ffd77713609521a12ce4f389cbe9c" target="_top" xlink:title=" ">
<polygon fill="white" stroke="#666666" points="1100,-60 987,-60 987,-41 1100,-41 1100,-60"/>
<text text-anchor="middle" x="1043.5" y="-48" font-family="Ubuntu Mono" font-size="10.00">SpineMesh::nearest</text>
</a>
</g>
</g>
<!-- Node1&#45;&gt;Node23 -->
<g id="edge26_Node000001_Node000023" class="edge">
<title>Node1&#45;&gt;Node23</title>
<g id="a_edge26_Node000001_Node000023"><a xlink:title=" ">
<path fill="none" stroke="#63b8ff" d="M1152.33,-75.44C1142.95,-73.1 1133.17,-70.69 1124,-68.5 1112.16,-65.67 1099.31,-62.71 1087.45,-60.03"/>
<polygon fill="#63b8ff" stroke="#63b8ff" points="1151.74,-78.91 1162.29,-77.95 1153.45,-72.12 1151.74,-78.91"/>
</a>
</g>
</g>
<!-- Node24 -->
<g id="Node000024" class="node">
<title>Node24</title>
<g id="a_Node000024"><a xlink:href="classSwcSegment.html#a1f6b702844e16427264f799184b38fe3" target="_top" xlink:title=" ">
<polygon fill="white" stroke="#666666" points="1124,-145.5 963,-145.5 963,-115.5 1124,-115.5 1124,-145.5"/>
<text text-anchor="start" x="971" y="-133.5" font-family="Ubuntu Mono" font-size="10.00">SwcSegment::setGeometrical</text>
<text text-anchor="middle" x="1043.5" y="-122.5" font-family="Ubuntu Mono" font-size="10.00">DistanceFromSoma</text>
</a>
</g>
</g>
<!-- Node1&#45;&gt;Node24 -->
<g id="edge27_Node000001_Node000024" class="edge">
<title>Node1&#45;&gt;Node24</title>
<g id="a_edge27_Node000001_Node000024"><a xlink:title=" ">
<path fill="none" stroke="#63b8ff" d="M1155.09,-99.82C1137.48,-104.71 1117.06,-110.37 1098.59,-115.49"/>
<polygon fill="#63b8ff" stroke="#63b8ff" points="1156.4,-103.09 1165.1,-97.04 1154.53,-96.34 1156.4,-103.09"/>
</a>
</g>
</g>
<!-- Node3 -->
<g id="Node000003" class="node">
<title>Node3</title>
<g id="a_Node000003"><a xlink:href="classReadSwc.html#a3ad4713aeaffadd769209d3b89461474" target="_top" xlink:title=" ">
<polygon fill="white" stroke="#666666" points="723,-225 574,-225 574,-206 723,-206 723,-225"/>
<text text-anchor="middle" x="648.5" y="-213" font-family="Ubuntu Mono" font-size="10.00">ReadSwc::cleanZeroLength</text>
</a>
</g>
</g>
<!-- Node2&#45;&gt;Node3 -->
<g id="edge2_Node000002_Node000003" class="edge">
<title>Node2&#45;&gt;Node3</title>
<g id="a_edge2_Node000002_Node000003"><a xlink:title=" ">
<path fill="none" stroke="#63b8ff" d="M981.13,-188.7C963.68,-191.59 944.63,-194.45 927,-196.5 858.17,-204.5 779.31,-209.5 723.29,-212.35"/>
<polygon fill="#63b8ff" stroke="#63b8ff" points="981.91,-192.12 991.19,-187.01 980.75,-185.22 981.91,-192.12"/>
</a>
</g>
</g>
<!-- Node7 -->
<g id="Node000007" class="node">
<title>Node7</title>
<g id="a_Node000007"><a xlink:href="ReadSwc_8cpp.html#ad5114e28e3ab2d4190a950dc2ab24530" target="_top" xlink:title=" ">
<polygon fill="white" stroke="#666666" points="887,-263 811,-263 811,-244 887,-244 887,-263"/>
<text text-anchor="middle" x="849" y="-251" font-family="Ubuntu Mono" font-size="10.00">makeCompt</text>
</a>
</g>
</g>
<!-- Node2&#45;&gt;Node7 -->
<g id="edge6_Node000002_Node000007" class="edge">
<title>Node2&#45;&gt;Node7</title>
<g id="a_edge6_Node000002_Node000007"><a xlink:title=" ">
<path fill="none" stroke="#63b8ff" d="M1013.95,-191.52C990.82,-202.59 957.22,-218.03 927,-229.5 912.99,-234.81 897.24,-239.88 883.65,-243.97"/>
<polygon fill="#63b8ff" stroke="#63b8ff" points="1015.7,-194.56 1023.18,-187.06 1012.66,-188.26 1015.7,-194.56"/>
</a>
</g>
</g>
<!-- Node9 -->
<g id="Node000009" class="node">
<title>Node9</title>
<g id="a_Node000009"><a xlink:href="classReadSwc.html#a7e27d9fe6b7623bc9434d5ab2ffc8e55" target="_top" xlink:title=" ">
<polygon fill="white" stroke="#666666" points="919.5,-187 778.5,-187 778.5,-168 919.5,-168 919.5,-187"/>
<text text-anchor="middle" x="849" y="-175" font-family="Ubuntu Mono" font-size="10.00">ReadSwc::traverseBranch</text>
</a>
</g>
</g>
<!-- Node2&#45;&gt;Node9 -->
<g id="edge9_Node000002_Node000009" class="edge">
<title>Node2&#45;&gt;Node9</title>
<g id="a_edge9_Node000002_Node000009"><a xlink:title=" ">
<path fill="none" stroke="#63b8ff" d="M969.67,-177.5C953.28,-177.5 935.93,-177.5 919.67,-177.5"/>
<polygon fill="#63b8ff" stroke="#63b8ff" points="969.73,-181 979.73,-177.5 969.73,-174 969.73,-181"/>
</a>
</g>
</g>
<!-- Node11 -->
<g id="Node000011" class="node">
<title>Node11</title>
<g id="a_Node000011"><a xlink:href="Neuron_8cpp.html#a26b88a355e49f0d12868e3f92e8fdcdd" target="_top" xlink:title="Recursive function to fill in cumulative distances from soma.">
<polygon fill="white" stroke="#666666" points="927,-132 771,-132 771,-113 927,-113 927,-132"/>
<text text-anchor="middle" x="849" y="-120" font-family="Ubuntu Mono" font-size="10.00">traverseCumulativeDistance</text>
</a>
</g>
</g>
<!-- Node2&#45;&gt;Node11 -->
<g id="edge12_Node000002_Node000011" class="edge">
<title>Node2&#45;&gt;Node11</title>
<g id="a_edge12_Node000002_Node000011"><a xlink:title=" ">
<path fill="none" stroke="#63b8ff" d="M999.02,-165.08C964.01,-155.07 915.51,-141.22 883.47,-132.06"/>
<polygon fill="#63b8ff" stroke="#63b8ff" points="998.39,-168.54 1008.97,-167.92 1000.32,-161.81 998.39,-168.54"/>
</a>
</g>
</g>
<!-- Node4 -->
<g id="Node000004" class="node">
<title>Node4</title>
<g id="a_Node000004"><a xlink:href="classReadSwc.html#a17d574342aa712300646c03090de1f44" target="_top" xlink:title=" ">
<polygon fill="white" stroke="#666666" points="508.5,-225 397.5,-225 397.5,-206 508.5,-206 508.5,-225"/>
<text text-anchor="middle" x="453" y="-213" font-family="Ubuntu Mono" font-size="10.00">ReadSwc::ReadSwc</text>
</a>
</g>
</g>
<!-- Node3&#45;&gt;Node4 -->
<g id="edge3_Node000003_Node000004" class="edge">
<title>Node3&#45;&gt;Node4</title>
<g id="a_edge3_Node000003_Node000004"><a xlink:title=" ">
<path fill="none" stroke="#63b8ff" d="M563.79,-215.5C545.08,-215.5 525.71,-215.5 508.54,-215.5"/>
<polygon fill="#63b8ff" stroke="#63b8ff" points="563.79,-219 573.79,-215.5 563.79,-212 563.79,-219"/>
</a>
</g>
</g>
<!-- Node5 -->
<g id="Node000005" class="node">
<title>Node5</title>
<g id="a_Node000005"><a xlink:href="classShell.html#a506ff431369e3bce87f0e6c767fe475c" target="_top" xlink:title="Returns the Id of the loaded model.">
<polygon fill="white" stroke="#666666" points="324,-243 212,-243 212,-224 324,-224 324,-243"/>
<text text-anchor="middle" x="268" y="-231" font-family="Ubuntu Mono" font-size="10.00">Shell::doLoadModel</text>
</a>
</g>
</g>
<!-- Node4&#45;&gt;Node5 -->
<g id="edge4_Node000004_Node000005" class="edge">
<title>Node4&#45;&gt;Node5</title>
<g id="a_edge4_Node000004_Node000005"><a xlink:title=" ">
<path fill="none" stroke="#63b8ff" d="M386.89,-221.9C366.38,-223.92 343.93,-226.13 324.18,-228.07"/>
<polygon fill="#63b8ff" stroke="#63b8ff" points="387.48,-225.36 397.09,-220.9 386.8,-218.4 387.48,-225.36"/>
</a>
</g>
</g>
<!-- Node6 -->
<g id="Node000006" class="node">
<title>Node6</title>
<g id="a_Node000006"><a xlink:href="namespacepymoose.html#a995d880f6c2e5cfb0545ec3640f76eef" target="_top" xlink:title="Model loaders built into Shell, others can be implemented in Python.">
<polygon fill="white" stroke="#666666" points="156,-243 0,-243 0,-224 156,-224 156,-243"/>
<text text-anchor="middle" x="78" y="-231" font-family="Ubuntu Mono" font-size="10.00">pymoose::loadModelInternal</text>
</a>
</g>
</g>
<!-- Node5&#45;&gt;Node6 -->
<g id="edge5_Node000005_Node000006" class="edge">
<title>Node5&#45;&gt;Node6</title>
<g id="a_edge5_Node000005_Node000006"><a xlink:title=" ">
<path fill="none" stroke="#63b8ff" d="M201.84,-233.5C187.1,-233.5 171.3,-233.5 156.12,-233.5"/>
<polygon fill="#63b8ff" stroke="#63b8ff" points="201.86,-237 211.86,-233.5 201.86,-230 201.86,-237"/>
</a>
</g>
</g>
<!-- Node8 -->
<g id="Node000008" class="node">
<title>Node8</title>
<g id="a_Node000008"><a xlink:href="classReadSwc.html#a542eecd2af5b5e8b4587d6a4ca298607" target="_top" xlink:title=" ">
<polygon fill="white" stroke="#666666" points="498.5,-262 407.5,-262 407.5,-243 498.5,-243 498.5,-262"/>
<text text-anchor="middle" x="453" y="-250" font-family="Ubuntu Mono" font-size="10.00">ReadSwc::build</text>
</a>
</g>
</g>
<!-- Node7&#45;&gt;Node8 -->
<g id="edge7_Node000007_Node000008" class="edge">
<title>Node7&#45;&gt;Node8</title>
<g id="a_edge7_Node000007_Node000008"><a xlink:title=" ">
<path fill="none" stroke="#63b8ff" d="M800.62,-253.38C723.93,-253.19 573.68,-252.8 498.73,-252.61"/>
<polygon fill="#63b8ff" stroke="#63b8ff" points="800.92,-256.88 810.93,-253.41 800.94,-249.88 800.92,-256.88"/>
</a>
</g>
</g>
<!-- Node8&#45;&gt;Node5 -->
<g id="edge8_Node000008_Node000005" class="edge">
<title>Node8&#45;&gt;Node5</title>
<g id="a_edge8_Node000008_Node000005"><a xlink:title=" ">
<path fill="none" stroke="#63b8ff" d="M397.24,-246.81C374.12,-244.41 347.25,-241.62 324.09,-239.22"/>
<polygon fill="#63b8ff" stroke="#63b8ff" points="396.93,-250.3 407.23,-247.85 397.65,-243.34 396.93,-250.3"/>
</a>
</g>
</g>
<!-- Node10 -->
<g id="Node000010" class="node">
<title>Node10</title>
<g id="a_Node000010"><a xlink:href="classReadSwc.html#a969abd8c654c82fef8f1ff33dc7c6ae8" target="_top" xlink:title=" ">
<polygon fill="white" stroke="#666666" points="718,-187 579,-187 579,-168 718,-168 718,-187"/>
<text text-anchor="middle" x="648.5" y="-175" font-family="Ubuntu Mono" font-size="10.00">ReadSwc::parseBranches</text>
</a>
</g>
</g>
<!-- Node9&#45;&gt;Node10 -->
<g id="edge10_Node000009_Node000010" class="edge">
<title>Node9&#45;&gt;Node10</title>
<g id="a_edge10_Node000009_Node000010"><a xlink:title=" ">
<path fill="none" stroke="#63b8ff" d="M768.08,-177.5C751.5,-177.5 734.17,-177.5 718.03,-177.5"/>
<polygon fill="#63b8ff" stroke="#63b8ff" points="768.3,-181 778.3,-177.5 768.3,-174 768.3,-181"/>
</a>
</g>
</g>
<!-- Node10&#45;&gt;Node4 -->
<g id="edge11_Node000010_Node000004" class="edge">
<title>Node10&#45;&gt;Node4</title>
<g id="a_edge11_Node000010_Node000004"><a xlink:title=" ">
<path fill="none" stroke="#63b8ff" d="M588.75,-189.04C561.15,-194.46 528.65,-200.84 502.48,-205.98"/>
<polygon fill="#63b8ff" stroke="#63b8ff" points="589.53,-192.45 598.67,-187.09 588.18,-185.58 589.53,-192.45"/>
</a>
</g>
</g>
<!-- Node11&#45;&gt;Node11 -->
<g id="edge13_Node000011_Node000011" class="edge">
<title>Node11&#45;&gt;Node11</title>
<g id="a_edge13_Node000011_Node000011"><a xlink:title=" ">
<path fill="none" stroke="#63b8ff" d="M885.36,-140.07C884.82,-145.62 872.71,-150 849,-150 814.52,-150 804.55,-140.73 819.1,-132.08"/>
<polygon fill="#63b8ff" stroke="#63b8ff" points="887.91,-137.66 878.9,-132.08 882.46,-142.06 887.91,-137.66"/>
</a>
</g>
</g>
<!-- Node12 -->
<g id="Node000012" class="node">
<title>Node12</title>
<g id="a_Node000012"><a xlink:href="classNeuron.html#aa3a8de3bab22e7cab917694ac2b0a99b" target="_top" xlink:title=" ">
<polygon fill="white" stroke="#666666" points="735,-113 562,-113 562,-94 735,-94 735,-113"/>
<text text-anchor="middle" x="648.5" y="-101" font-family="Ubuntu Mono" font-size="10.00">Neuron::updateSegmentLengths</text>
</a>
</g>
</g>
<!-- Node11&#45;&gt;Node12 -->
<g id="edge14_Node000011_Node000012" class="edge">
<title>Node11&#45;&gt;Node12</title>
<g id="a_edge14_Node000011_Node000012"><a xlink:title=" ">
<path fill="none" stroke="#63b8ff" d="M760.95,-114.17C752.35,-113.35 743.63,-112.51 735.05,-111.69"/>
<polygon fill="#63b8ff" stroke="#63b8ff" points="760.68,-117.66 770.97,-115.13 761.35,-110.69 760.68,-117.66"/>
</a>
</g>
</g>
<!-- Node13 -->
<g id="Node000013" class="node">
<title>Node13</title>
<g id="a_Node000013"><a xlink:href="classNeuron.html#a4ffd2786bf79d17ffe668c4112761728" target="_top" xlink:title="Fills up vector of segments. First entry is soma.">
<polygon fill="white" stroke="#666666" points="526,-113 380,-113 380,-94 526,-94 526,-113"/>
<text text-anchor="middle" x="453" y="-101" font-family="Ubuntu Mono" font-size="10.00">Neuron::buildSegmentTree</text>
</a>
</g>
</g>
<!-- Node12&#45;&gt;Node13 -->
<g id="edge15_Node000012_Node000013" class="edge">
<title>Node12&#45;&gt;Node13</title>
<g id="a_edge15_Node000012_Node000013"><a xlink:title=" ">
<path fill="none" stroke="#63b8ff" d="M551.68,-103.5C543.06,-103.5 534.42,-103.5 526.06,-103.5"/>
<polygon fill="#63b8ff" stroke="#63b8ff" points="551.78,-107 561.78,-103.5 551.78,-100 551.78,-107"/>
</a>
</g>
</g>
<!-- Node14 -->
<g id="Node000014" class="node">
<title>Node14</title>
<g id="a_Node000014"><a xlink:href="classNeuron.html#a81197d09a302f2420430fe3f7874926f" target="_top" xlink:title=" ">
<polygon fill="white" stroke="#666666" points="317.5,-113 218.5,-113 218.5,-94 317.5,-94 317.5,-113"/>
<text text-anchor="middle" x="268" y="-101" font-family="Ubuntu Mono" font-size="10.00">Neuron::initCinfo</text>
</a>
</g>
</g>
<!-- Node13&#45;&gt;Node14 -->
<g id="edge16_Node000013_Node000014" class="edge">
<title>Node13&#45;&gt;Node14</title>
<g id="a_edge16_Node000013_Node000014"><a xlink:title=" ">
<path fill="none" stroke="#63b8ff" d="M369.55,-103.5C351.79,-103.5 333.58,-103.5 317.61,-103.5"/>
<polygon fill="#63b8ff" stroke="#63b8ff" points="369.94,-107 379.94,-103.5 369.94,-100 369.94,-107"/>
</a>
</g>
</g>
<!-- Node16 -->
<g id="Node000016" class="node">
<title>Node16</title>
<g id="a_Node000016"><a xlink:href="classCylBase.html#a480a3143415b6c7af6ce5528c9cedac1" target="_top" xlink:title=" ">
<polygon fill="white" stroke="#666666" points="898.5,-19 799.5,-19 799.5,0 898.5,0 898.5,-19"/>
<text text-anchor="middle" x="849" y="-7" font-family="Ubuntu Mono" font-size="10.00">CylBase::nearest</text>
</a>
</g>
</g>
<!-- Node15&#45;&gt;Node16 -->
<g id="edge18_Node000015_Node000016" class="edge">
<title>Node15&#45;&gt;Node16</title>
<g id="a_edge18_Node000015_Node000016"><a xlink:title=" ">
<path fill="none" stroke="#63b8ff" d="M983.73,-12.28C956.46,-11.71 924.43,-11.05 898.56,-10.51"/>
<polygon fill="#63b8ff" stroke="#63b8ff" points="983.85,-15.78 993.92,-12.49 984,-8.78 983.85,-15.78"/>
</a>
</g>
</g>
<!-- Node21 -->
<g id="Node000021" class="node">
<title>Node21</title>
<g id="a_Node000021"><a xlink:href="classNeuroMesh.html#a23d9de4910b03e34288a30fed813fa3f" target="_top" xlink:title=" ">
<polygon fill="white" stroke="#666666" points="906.5,-56 791.5,-56 791.5,-37 906.5,-37 906.5,-56"/>
<text text-anchor="middle" x="849" y="-44" font-family="Ubuntu Mono" font-size="10.00">NeuroMesh::nearest</text>
</a>
</g>
</g>
<!-- Node15&#45;&gt;Node21 -->
<g id="edge24_Node000015_Node000021" class="edge">
<title>Node15&#45;&gt;Node21</title>
<g id="a_edge24_Node000015_Node000021"><a xlink:title=" ">
<path fill="none" stroke="#63b8ff" d="M983.9,-23.55C959.06,-27.8 930.24,-32.74 905.72,-36.95"/>
<polygon fill="#63b8ff" stroke="#63b8ff" points="984.66,-26.97 993.92,-21.83 983.48,-20.07 984.66,-26.97"/>
</a>
</g>
</g>
<!-- Node17 -->
<g id="Node000017" class="node">
<title>Node17</title>
<g id="a_Node000017"><a xlink:href="classNeuroMesh.html#ab4ce5f28ef7ad94aba4dbf8f6c5f408f" target="_top" xlink:title=" ">
<polygon fill="white" stroke="#666666" points="735,-19 562,-19 562,0 735,0 735,-19"/>
<text text-anchor="middle" x="648.5" y="-7" font-family="Ubuntu Mono" font-size="10.00">NeuroMesh::updateShaftParents</text>
</a>
</g>
</g>
<!-- Node16&#45;&gt;Node17 -->
<g id="edge19_Node000016_Node000017" class="edge">
<title>Node16&#45;&gt;Node17</title>
<g id="a_edge19_Node000016_Node000017"><a xlink:title=" ">
<path fill="none" stroke="#63b8ff" d="M789.15,-9.5C772.19,-9.5 753.33,-9.5 735.1,-9.5"/>
<polygon fill="#63b8ff" stroke="#63b8ff" points="789.44,-13 799.44,-9.5 789.44,-6 789.44,-13"/>
</a>
</g>
</g>
<!-- Node18 -->
<g id="Node000018" class="node">
<title>Node18</title>
<g id="a_Node000018"><a xlink:href="classNeuroMesh.html#a35e1c3ce3edeae2652b9d5ee2729f9df" target="_top" xlink:title=" ">
<polygon fill="white" stroke="#666666" points="518.5,-19 387.5,-19 387.5,0 518.5,0 518.5,-19"/>
<text text-anchor="middle" x="453" y="-7" font-family="Ubuntu Mono" font-size="10.00">NeuroMesh::setSubTree</text>
</a>
</g>
</g>
<!-- Node17&#45;&gt;Node18 -->
<g id="edge20_Node000017_Node000018" class="edge">
<title>Node17&#45;&gt;Node18</title>
<g id="a_edge20_Node000017_Node000018"><a xlink:title=" ">
<path fill="none" stroke="#63b8ff" d="M551.58,-9.5C540.45,-9.5 529.3,-9.5 518.73,-9.5"/>
<polygon fill="#63b8ff" stroke="#63b8ff" points="551.78,-13 561.78,-9.5 551.78,-6 551.78,-13"/>
</a>
</g>
</g>
<!-- Node19 -->
<g id="Node000019" class="node">
<title>Node19</title>
<g id="a_Node000019"><a xlink:href="classNeuroMesh.html#a131784a1f5af526113a98464ab4c4357" target="_top" xlink:title=" ">
<polygon fill="white" stroke="#666666" points="137.5,-38 18.5,-38 18.5,-19 137.5,-19 137.5,-38"/>
<text text-anchor="middle" x="78" y="-26" font-family="Ubuntu Mono" font-size="10.00">NeuroMesh::initCinfo</text>
</a>
</g>
</g>
<!-- Node18&#45;&gt;Node19 -->
<g id="edge21_Node000018_Node000019" class="edge">
<title>Node18&#45;&gt;Node19</title>
<g id="a_edge21_Node000018_Node000019"><a xlink:title=" ">
<path fill="none" stroke="#63b8ff" d="M394.92,-20.78C378.55,-23.53 360.63,-26.09 344,-27.5 273.17,-33.5 191.31,-32.62 137.54,-30.98"/>
<polygon fill="#63b8ff" stroke="#63b8ff" points="395.64,-24.21 404.89,-19.05 394.44,-17.31 395.64,-24.21"/>
</a>
</g>
</g>
<!-- Node20 -->
<g id="Node000020" class="node">
<title>Node20</title>
<g id="a_Node000020"><a xlink:href="classNeuroMesh.html#a5544eb3267ffffc2ba356d50ec2a4633" target="_top" xlink:title=" ">
<polygon fill="white" stroke="#666666" points="344,-19 192,-19 192,0 344,0 344,-19"/>
<text text-anchor="middle" x="268" y="-7" font-family="Ubuntu Mono" font-size="10.00">NeuroMesh::setSubTreePath</text>
</a>
</g>
</g>
<!-- Node18&#45;&gt;Node20 -->
<g id="edge22_Node000018_Node000020" class="edge">
<title>Node18&#45;&gt;Node20</title>
<g id="a_edge22_Node000018_Node000020"><a xlink:title=" ">
<path fill="none" stroke="#63b8ff" d="M377.17,-9.5C366.29,-9.5 355.09,-9.5 344.2,-9.5"/>
<polygon fill="#63b8ff" stroke="#63b8ff" points="377.48,-13 387.48,-9.5 377.48,-6 377.48,-13"/>
</a>
</g>
</g>
<!-- Node20&#45;&gt;Node19 -->
<g id="edge23_Node000020_Node000019" class="edge">
<title>Node20&#45;&gt;Node19</title>
<g id="a_edge23_Node000020_Node000019"><a xlink:title=" ">
<path fill="none" stroke="#63b8ff" d="M181.68,-18.12C166.84,-19.62 151.71,-21.15 137.78,-22.56"/>
<polygon fill="#63b8ff" stroke="#63b8ff" points="182.29,-21.58 191.89,-17.09 181.59,-14.61 182.29,-21.58"/>
</a>
</g>
</g>
<!-- Node24&#45;&gt;Node12 -->
<g id="edge28_Node000024_Node000012" class="edge">
<title>Node24&#45;&gt;Node12</title>
<g id="a_edge28_Node000024_Node000012"><a xlink:title=" ">
<path fill="none" stroke="#63b8ff" d="M977.16,-113.19C960.89,-109.6 943.41,-106.35 927,-104.5 862.97,-97.27 790.1,-97.32 735.1,-99.02"/>
<polygon fill="#63b8ff" stroke="#63b8ff" points="976.58,-116.65 987.11,-115.46 978.14,-109.83 976.58,-116.65"/>
</a>
</g>
</g>
</g>
</svg>

<g id="navigator" transform="translate(0 0)" fill="#404254">
  <rect fill="#f2f5e9" fill-opacity="0.5" stroke="#606060" stroke-width=".5" x="0" y="0" width="60" height="60"/>
  <use id="zoomplus" xlink:href="#zoomPlus" x="17" y="9" onmousedown="handleZoom(evt,'in')"/>
  <use id="zoomminus" xlink:href="#zoomMin" x="42" y="9" onmousedown="handleZoom(evt,'out')"/>
  <use id="reset" xlink:href="#resetDef" x="30" y="36" onmousedown="handleReset()"/>
   <use id="arrowup" xlink:href="#arrowUp" x="0" y="0" onmousedown="handlePan(0,-1)"/>
  <use id="arrowright" xlink:href="#arrowRight" x="0" y="0" onmousedown="handlePan(1,0)"/>
  <use id="arrowdown" xlink:href="#arrowDown" x="0" y="0" onmousedown="handlePan(0,1)"/>
  <use id="arrowleft" xlink:href="#arrowLeft" x="0" y="0" onmousedown="handlePan(-1,0)"/>
</g>
<svg viewBox="0 0 15 15" width="100%" height="30px" preserveAspectRatio="xMaxYMin meet">
 <g id="arrow_out" transform="scale(0.3 0.3)">
  <a xlink:href="classVec_a056e27a8b76e7081c3358553f85a54ec_icgraph_org.svg" target="_base">
   <rect id="button" ry="5" rx="5" y="6" x="6" height="38" width="38"
        fill="#f2f5e9" fill-opacity="0.5" stroke="#606060" stroke-width="1.0"/>
   <path id="arrow"
     d="M 11.500037,31.436501 C 11.940474,20.09759 22.043105,11.32322 32.158766,21.979434 L 37.068811,17.246167 C 37.068811,17.246167 37.088388,32 37.088388,32 L 22.160133,31.978069 C 22.160133,31.978069 26.997745,27.140456 26.997745,27.140456 C 18.528582,18.264221 13.291696,25.230495 11.500037,31.436501 z"
     style="fill:#404040;"/>
  </a>
 </g>
</svg>

<style type='text/css'>
<![CDATA[
[data-mouse-over-selected='false'] { opacity: 0.7; }
[data-mouse-over-selected='true']  { opacity: 1.0; }
]]>
</style>
<script type="application/ecmascript"><![CDATA[
document.addEventListener('DOMContentLoaded', (event) => {
  highlightEdges();
  highlightAdjacentNodes();
});
]]></script>
</svg>
