<?xml version="1.0" encoding="UTF-8" standalone="no"?>
<!DOCTYPE svg PUBLIC "-//W3C//DTD SVG 1.1//EN"
 "http://www.w3.org/Graphics/SVG/1.1/DTD/svg11.dtd">
<!-- Generated by graphviz version 2.43.0 (0)
 -->
<!-- Title: MarkovOdeSolver::initCinfo Pages: 1 -->
<svg width="704pt" height="1102pt"
 viewBox="0.00 0.00 704.00 1102.47" xmlns="http://www.w3.org/2000/svg" xmlns:xlink="http://www.w3.org/1999/xlink">
<g id="graph0" class="graph" transform="scale(1 1) rotate(0) translate(4 1098.47)">
<title>MarkovOdeSolver::initCinfo</title>
<!-- Node1 -->
<g id="Node000001" class="node">
<title>Node1</title>
<g id="a_Node000001"><a xlink:title=" ">
<polygon fill="#999999" stroke="#666666" points="150,-484.47 0,-484.47 0,-465.47 150,-465.47 150,-484.47"/>
<text text-anchor="middle" x="75" y="-472.47" font-family="Ubuntu Mono" font-size="10.00">MarkovOdeSolver::initCinfo</text>
</a>
</g>
</g>
<!-- Node2 -->
<g id="Node000002" class="node">
<title>Node2</title>
<g id="a_Node000002"><a xlink:href="classCinfo.html#ac9f6af2943b20ce3b02c1adc84504cd2" target="_top" xlink:title=" ">
<polygon fill="white" stroke="#666666" points="522,-1076.47 448,-1076.47 448,-1057.47 522,-1057.47 522,-1076.47"/>
<text text-anchor="middle" x="485" y="-1064.47" font-family="Ubuntu Mono" font-size="10.00">Cinfo::Cinfo</text>
</a>
</g>
</g>
<!-- Node1&#45;&gt;Node2 -->
<g id="edge1_Node000001_Node000002" class="edge">
<title>Node1&#45;&gt;Node2</title>
<g id="a_edge1_Node000001_Node000002"><a xlink:title=" ">
<path fill="none" stroke="#63b8ff" d="M75.67,-484.74C74.41,-536.34 74.76,-780.23 186,-926.97 248.41,-1009.29 371.21,-1045.15 438.04,-1059.13"/>
<polygon fill="#63b8ff" stroke="#63b8ff" points="437.38,-1062.56 447.87,-1061.11 438.76,-1055.7 437.38,-1062.56"/>
</a>
</g>
</g>
<!-- Node8 -->
<g id="Node000008" class="node">
<title>Node8</title>
<g id="a_Node000008"><a xlink:href="classDestFinfo.html#a200c3d77c0c62f54de9cb3fb0ff30d25" target="_top" xlink:title=" ">
<polygon fill="white" stroke="#666666" points="543,-1039.47 427,-1039.47 427,-1020.47 543,-1020.47 543,-1039.47"/>
<text text-anchor="middle" x="485" y="-1027.47" font-family="Ubuntu Mono" font-size="10.00">DestFinfo::DestFinfo</text>
</a>
</g>
</g>
<!-- Node1&#45;&gt;Node8 -->
<g id="edge4_Node000001_Node000008" class="edge">
<title>Node1&#45;&gt;Node8</title>
<g id="a_edge4_Node000001_Node000008"><a xlink:title=" ">
<path fill="none" stroke="#63b8ff" d="M76.93,-484.68C81.54,-528.61 105.02,-711.91 186,-832.97 255.51,-936.89 290.65,-957.12 403,-1011.97 407.38,-1014.11 412.02,-1016 416.77,-1017.66"/>
<polygon fill="#63b8ff" stroke="#63b8ff" points="416.04,-1021.1 426.63,-1020.78 418.15,-1014.43 416.04,-1021.1"/>
</a>
</g>
</g>
<!-- Node10 -->
<g id="Node000010" class="node">
<title>Node10</title>
<g id="a_Node000010"><a xlink:href="classMarkovOdeSolver.html#a2dfcfcc215d3c98ae94a22f657342ea5" target="_top" xlink:title=" ">
<polygon fill="white" stroke="#666666" points="360,-823.97 193,-823.97 193,-793.97 360,-793.97 360,-823.97"/>
<text text-anchor="start" x="201" y="-811.97" font-family="Ubuntu Mono" font-size="10.00">MarkovOdeSolver::getAbsolute</text>
<text text-anchor="middle" x="276.5" y="-800.97" font-family="Ubuntu Mono" font-size="10.00">Accuracy</text>
</a>
</g>
</g>
<!-- Node1&#45;&gt;Node10 -->
<g id="edge6_Node000001_Node000010" class="edge">
<title>Node1&#45;&gt;Node10</title>
<g id="a_edge6_Node000001_Node000010"><a xlink:title=" ">
<path fill="none" stroke="#63b8ff" d="M76.34,-484.5C78.35,-526.69 92.26,-698.35 186,-784.97 187.14,-786.03 188.33,-787.04 189.55,-788.01"/>
<polygon fill="#63b8ff" stroke="#63b8ff" points="187.86,-791.09 198.11,-793.78 191.78,-785.29 187.86,-791.09"/>
</a>
</g>
</g>
<!-- Node11 -->
<g id="Node000011" class="node">
<title>Node11</title>
<g id="a_Node000011"><a xlink:href="classMarkovOdeSolver.html#a71c1edf7fd10b1618d41cd3555b12275" target="_top" xlink:title=" ">
<polygon fill="white" stroke="#666666" points="363,-775.47 190,-775.47 190,-756.47 363,-756.47 363,-775.47"/>
<text text-anchor="middle" x="276.5" y="-763.47" font-family="Ubuntu Mono" font-size="10.00">MarkovOdeSolver::getInternalDt</text>
</a>
</g>
</g>
<!-- Node1&#45;&gt;Node11 -->
<g id="edge7_Node000001_Node000011" class="edge">
<title>Node1&#45;&gt;Node11</title>
<g id="a_edge7_Node000001_Node000011"><a xlink:title=" ">
<path fill="none" stroke="#63b8ff" d="M76.71,-484.57C80.18,-524.1 98.93,-675.65 186,-747.97 187.38,-749.12 188.82,-750.2 190.3,-751.22"/>
<polygon fill="#63b8ff" stroke="#63b8ff" points="188.83,-754.41 199.24,-756.4 192.34,-748.36 188.83,-754.41"/>
</a>
</g>
</g>
<!-- Node12 -->
<g id="Node000012" class="node">
<title>Node12</title>
<g id="a_Node000012"><a xlink:href="classMarkovOdeSolver.html#a594b6d0730ca81b031285251dafd8bc0" target="_top" xlink:title=" ">
<polygon fill="white" stroke="#666666" points="367,-738.47 186,-738.47 186,-719.47 367,-719.47 367,-738.47"/>
<text text-anchor="middle" x="276.5" y="-726.47" font-family="Ubuntu Mono" font-size="10.00">MarkovOdeSolver::getIsInitialized</text>
</a>
</g>
</g>
<!-- Node1&#45;&gt;Node12 -->
<g id="edge8_Node000001_Node000012" class="edge">
<title>Node1&#45;&gt;Node12</title>
<g id="a_edge8_Node000001_Node000012"><a xlink:title=" ">
<path fill="none" stroke="#63b8ff" d="M77.35,-484.5C83.01,-520.57 108.19,-649.76 186,-710.97 187.59,-712.22 189.24,-713.39 190.95,-714.48"/>
<polygon fill="#63b8ff" stroke="#63b8ff" points="189.42,-717.64 199.87,-719.36 192.77,-711.49 189.42,-717.64"/>
</a>
</g>
</g>
<!-- Node13 -->
<g id="Node000013" class="node">
<title>Node13</title>
<g id="a_Node000013"><a xlink:href="classMarkovOdeSolver.html#a9d2df6951041fdc6eeea539989cfd0db" target="_top" xlink:title=" ">
<polygon fill="white" stroke="#666666" points="357,-701.47 196,-701.47 196,-682.47 357,-682.47 357,-701.47"/>
<text text-anchor="middle" x="276.5" y="-689.47" font-family="Ubuntu Mono" font-size="10.00">MarkovOdeSolver::getMethod</text>
</a>
</g>
</g>
<!-- Node1&#45;&gt;Node13 -->
<g id="edge9_Node000001_Node000013" class="edge">
<title>Node1&#45;&gt;Node13</title>
<g id="a_edge9_Node000001_Node000013"><a xlink:title=" ">
<path fill="none" stroke="#63b8ff" d="M78.33,-484.71C86.63,-517.22 118.01,-622.72 186,-672.97 188.54,-674.85 191.22,-676.54 194.01,-678.08"/>
<polygon fill="#63b8ff" stroke="#63b8ff" points="192.7,-681.33 203.23,-682.47 195.71,-675.01 192.7,-681.33"/>
</a>
</g>
</g>
<!-- Node14 -->
<g id="Node000014" class="node">
<title>Node14</title>
<g id="a_Node000014"><a xlink:href="classMarkovOdeSolver.html#a91a5dd6774c565efdb3f0f2118da549b" target="_top" xlink:title=" ">
<polygon fill="white" stroke="#666666" points="359,-663.97 194,-663.97 194,-633.97 359,-633.97 359,-663.97"/>
<text text-anchor="start" x="202" y="-651.97" font-family="Ubuntu Mono" font-size="10.00">MarkovOdeSolver::getRelative</text>
<text text-anchor="middle" x="276.5" y="-640.97" font-family="Ubuntu Mono" font-size="10.00">Accuracy</text>
</a>
</g>
</g>
<!-- Node1&#45;&gt;Node14 -->
<g id="edge10_Node000001_Node000014" class="edge">
<title>Node1&#45;&gt;Node14</title>
<g id="a_edge10_Node000001_Node000014"><a xlink:title=" ">
<path fill="none" stroke="#63b8ff" d="M80.3,-484.81C92.59,-511.72 130.56,-587.04 186,-624.97 188.29,-626.53 190.67,-628 193.13,-629.36"/>
<polygon fill="#63b8ff" stroke="#63b8ff" points="191.79,-632.61 202.31,-633.91 194.9,-626.34 191.79,-632.61"/>
</a>
</g>
</g>
<!-- Node15 -->
<g id="Node000015" class="node">
<title>Node15</title>
<g id="a_Node000015"><a xlink:href="classMarkovOdeSolver.html#a4bb2fd6c9958730f8e9511720a02a2af" target="_top" xlink:title=" ">
<polygon fill="white" stroke="#666666" points="351,-615.47 202,-615.47 202,-596.47 351,-596.47 351,-615.47"/>
<text text-anchor="middle" x="276.5" y="-603.47" font-family="Ubuntu Mono" font-size="10.00">MarkovOdeSolver::handleQ</text>
</a>
</g>
</g>
<!-- Node1&#45;&gt;Node15 -->
<g id="edge11_Node000001_Node000015" class="edge">
<title>Node1&#45;&gt;Node15</title>
<g id="a_edge11_Node000001_Node000015"><a xlink:title=" ">
<path fill="none" stroke="#63b8ff" d="M82.36,-484.73C97.42,-507 137.67,-561.65 186,-587.97 189.33,-589.78 192.81,-591.41 196.4,-592.88"/>
<polygon fill="#63b8ff" stroke="#63b8ff" points="195.5,-596.27 206.09,-596.39 197.88,-589.69 195.5,-596.27"/>
</a>
</g>
</g>
<!-- Node16 -->
<g id="Node000016" class="node">
<title>Node16</title>
<g id="a_Node000016"><a xlink:href="classMarkovOdeSolver.html#a4b3cdafb0cb028c056d75ec0802805ca" target="_top" xlink:title=" ">
<polygon fill="white" stroke="#666666" points="339,-578.47 214,-578.47 214,-559.47 339,-559.47 339,-578.47"/>
<text text-anchor="middle" x="276.5" y="-566.47" font-family="Ubuntu Mono" font-size="10.00">MarkovOdeSolver::init</text>
</a>
</g>
</g>
<!-- Node1&#45;&gt;Node16 -->
<g id="edge12_Node000001_Node000016" class="edge">
<title>Node1&#45;&gt;Node16</title>
<g id="a_edge12_Node000001_Node000016"><a xlink:title=" ">
<path fill="none" stroke="#63b8ff" d="M86.66,-484.6C105.34,-500.92 145.83,-533.91 186,-550.97 191.74,-553.41 197.84,-555.52 204.04,-557.36"/>
<polygon fill="#63b8ff" stroke="#63b8ff" points="203.27,-560.77 213.84,-560.01 205.1,-554.02 203.27,-560.77"/>
</a>
</g>
</g>
<!-- Node17 -->
<g id="Node000017" class="node">
<title>Node17</title>
<g id="a_Node000017"><a xlink:href="classNeutral.html#a70fe1de93fce8611988faacd5cc96dd3" target="_top" xlink:title=" ">
<polygon fill="#fff0f0" stroke="red" points="326.5,-541.47 226.5,-541.47 226.5,-522.47 326.5,-522.47 326.5,-541.47"/>
<text text-anchor="middle" x="276.5" y="-529.47" font-family="Ubuntu Mono" font-size="10.00">Neutral::initCinfo</text>
</a>
</g>
</g>
<!-- Node1&#45;&gt;Node17 -->
<g id="edge13_Node000001_Node000017" class="edge">
<title>Node1&#45;&gt;Node17</title>
<g id="a_edge13_Node000001_Node000017"><a xlink:title=" ">
<path fill="none" stroke="#63b8ff" d="M107.22,-484.6C129.2,-491.32 159.34,-500.4 186,-507.97 199.95,-511.93 215.17,-516.08 229.03,-519.79"/>
<polygon fill="#63b8ff" stroke="#63b8ff" points="228.29,-523.21 238.86,-522.4 230.09,-516.45 228.29,-523.21"/>
</a>
</g>
</g>
<!-- Node157 -->
<g id="Node000157" class="node">
<title>Node157</title>
<g id="a_Node000157"><a xlink:href="classValueFinfo.html#afc85efa500f5640f0ef55da08396bbf8" target="_top" xlink:title=" ">
<polygon fill="white" stroke="#666666" points="547.5,-102.47 422.5,-102.47 422.5,-83.47 547.5,-83.47 547.5,-102.47"/>
<text text-anchor="middle" x="485" y="-90.47" font-family="Ubuntu Mono" font-size="10.00">ValueFinfo::ValueFinfo</text>
</a>
</g>
</g>
<!-- Node1&#45;&gt;Node157 -->
<g id="edge55_Node000001_Node000157" class="edge">
<title>Node1&#45;&gt;Node157</title>
<g id="a_edge55_Node000001_Node000157"><a xlink:title=" ">
<path fill="none" stroke="#63b8ff" d="M100.52,-484.56C155.95,-504.45 291.92,-542.97 367,-474.97 427.08,-420.55 349.57,-172.93 403,-111.97 405.95,-108.61 409.36,-105.78 413.09,-103.41"/>
<polygon fill="#63b8ff" stroke="#63b8ff" points="415.01,-106.36 422.29,-98.67 411.8,-100.14 415.01,-106.36"/>
</a>
</g>
</g>
<!-- Node158 -->
<g id="Node000158" class="node">
<title>Node158</title>
<g id="a_Node000158"><a xlink:href="classOpFunc1.html#abc0aeb50c1657a6777c508d17c872809" target="_top" xlink:title=" ">
<polygon fill="white" stroke="#666666" points="330,-465.47 223,-465.47 223,-446.47 330,-446.47 330,-465.47"/>
<text text-anchor="middle" x="276.5" y="-453.47" font-family="Ubuntu Mono" font-size="10.00">OpFunc1::OpFunc1</text>
</a>
</g>
</g>
<!-- Node1&#45;&gt;Node158 -->
<g id="edge41_Node000001_Node000158" class="edge">
<title>Node1&#45;&gt;Node158</title>
<g id="a_edge41_Node000001_Node000158"><a xlink:title=" ">
<path fill="none" stroke="#63b8ff" d="M150,-467.92C170.59,-465.96 192.74,-463.85 212.63,-461.96"/>
<polygon fill="#63b8ff" stroke="#63b8ff" points="213.17,-465.42 222.8,-460.99 212.51,-458.45 213.17,-465.42"/>
</a>
</g>
</g>
<!-- Node159 -->
<g id="Node000159" class="node">
<title>Node159</title>
<g id="a_Node000159"><a xlink:href="classMarkovOdeSolver.html#a071ef64f2b1907497c1968de71c66538" target="_top" xlink:title=" ">
<polygon fill="#fff0f0" stroke="red" points="349.5,-428.47 203.5,-428.47 203.5,-409.47 349.5,-409.47 349.5,-428.47"/>
<text text-anchor="middle" x="276.5" y="-416.47" font-family="Ubuntu Mono" font-size="10.00">MarkovOdeSolver::process</text>
</a>
</g>
</g>
<!-- Node1&#45;&gt;Node159 -->
<g id="edge42_Node000001_Node000159" class="edge">
<title>Node1&#45;&gt;Node159</title>
<g id="a_edge42_Node000001_Node000159"><a xlink:title=" ">
<path fill="none" stroke="#63b8ff" d="M101.52,-465.45C123.65,-457.42 156.65,-445.99 186,-437.97 195.54,-435.36 205.73,-432.9 215.69,-430.67"/>
<polygon fill="#63b8ff" stroke="#63b8ff" points="216.53,-434.07 225.55,-428.51 215.03,-427.23 216.53,-434.07"/>
</a>
</g>
</g>
<!-- Node180 -->
<g id="Node000180" class="node">
<title>Node180</title>
<g id="a_Node000180"><a xlink:href="MarkovOdeSolver_8cpp.html#a02ae8e6fbfbe91e3136936503f62fe2c" target="_top" xlink:title=" ">
<polygon fill="#fff0f0" stroke="red" points="514.5,-65.47 455.5,-65.47 455.5,-46.47 514.5,-46.47 514.5,-65.47"/>
<text text-anchor="middle" x="485" y="-53.47" font-family="Ubuntu Mono" font-size="10.00">stateOut</text>
</a>
</g>
</g>
<!-- Node1&#45;&gt;Node180 -->
<g id="edge54_Node000001_Node000180" class="edge">
<title>Node1&#45;&gt;Node180</title>
<g id="a_edge54_Node000001_Node000180"><a xlink:title=" ">
<path fill="none" stroke="#63b8ff" d="M87.03,-465.41C105.96,-449.54 146.39,-417.82 186,-400.97 261.72,-368.76 311.41,-422.65 367,-361.97 453.84,-267.18 317.02,-170.54 403,-74.97 413.52,-63.28 429.74,-58.1 444.91,-56"/>
<polygon fill="#63b8ff" stroke="#63b8ff" points="445.55,-59.45 455.17,-55 444.87,-52.49 445.55,-59.45"/>
</a>
</g>
</g>
<!-- Node181 -->
<g id="Node000181" class="node">
<title>Node181</title>
<g id="a_Node000181"><a xlink:href="classProcOpFunc.html#a09abf4cb6cd3d1ed513fee1ed18054f4" target="_top" xlink:title=" ">
<polygon fill="white" stroke="#666666" points="345,-352.47 208,-352.47 208,-333.47 345,-333.47 345,-352.47"/>
<text text-anchor="middle" x="276.5" y="-340.47" font-family="Ubuntu Mono" font-size="10.00">ProcOpFunc::ProcOpFunc</text>
</a>
</g>
</g>
<!-- Node1&#45;&gt;Node181 -->
<g id="edge44_Node000001_Node000181" class="edge">
<title>Node1&#45;&gt;Node181</title>
<g id="a_edge44_Node000001_Node000181"><a xlink:title=" ">
<path fill="none" stroke="#63b8ff" d="M83.05,-465.22C98.94,-444 139.76,-393.39 186,-366.97 194.19,-362.29 203.32,-358.5 212.54,-355.43"/>
<polygon fill="#63b8ff" stroke="#63b8ff" points="213.6,-358.76 222.13,-352.48 211.55,-352.07 213.6,-358.76"/>
</a>
</g>
</g>
<!-- Node182 -->
<g id="Node000182" class="node">
<title>Node182</title>
<g id="a_Node000182"><a xlink:href="classReadOnlyValueFinfo.html#a45da388415fe4e2aebb7fc6eb8e16b07" target="_top" xlink:title=" ">
<polygon fill="white" stroke="#666666" points="337,-314.97 216,-314.97 216,-284.97 337,-284.97 337,-314.97"/>
<text text-anchor="start" x="224" y="-302.97" font-family="Ubuntu Mono" font-size="10.00">ReadOnlyValueFinfo</text>
<text text-anchor="middle" x="276.5" y="-291.97" font-family="Ubuntu Mono" font-size="10.00">::ReadOnlyValueFinfo</text>
</a>
</g>
</g>
<!-- Node1&#45;&gt;Node182 -->
<g id="edge45_Node000001_Node000182" class="edge">
<title>Node1&#45;&gt;Node182</title>
<g id="a_edge45_Node000001_Node000182"><a xlink:title=" ">
<path fill="none" stroke="#63b8ff" d="M80.33,-465.16C92.67,-438.32 130.76,-363.19 186,-324.97 192.11,-320.74 198.92,-317.23 205.98,-314.3"/>
<polygon fill="#63b8ff" stroke="#63b8ff" points="207.57,-317.45 215.72,-310.67 205.13,-310.89 207.57,-317.45"/>
</a>
</g>
</g>
<!-- Node183 -->
<g id="Node000183" class="node">
<title>Node183</title>
<g id="a_Node000183"><a xlink:href="classMarkovOdeSolver.html#afd916cfa13581620afcef096d45c0e9d" target="_top" xlink:title=" ">
<polygon fill="#fff0f0" stroke="red" points="343.5,-266.47 209.5,-266.47 209.5,-247.47 343.5,-247.47 343.5,-266.47"/>
<text text-anchor="middle" x="276.5" y="-254.47" font-family="Ubuntu Mono" font-size="10.00">MarkovOdeSolver::reinit</text>
</a>
</g>
</g>
<!-- Node1&#45;&gt;Node183 -->
<g id="edge46_Node000001_Node000183" class="edge">
<title>Node1&#45;&gt;Node183</title>
<g id="a_edge46_Node000001_Node000183"><a xlink:title=" ">
<path fill="none" stroke="#63b8ff" d="M78.31,-465.18C86.57,-432.51 117.8,-326.49 186,-275.97 190.2,-272.86 194.8,-270.23 199.63,-268.02"/>
<polygon fill="#63b8ff" stroke="#63b8ff" points="201.13,-271.19 209.14,-264.25 198.56,-264.68 201.13,-271.19"/>
</a>
</g>
</g>
<!-- Node184 -->
<g id="Node000184" class="node">
<title>Node184</title>
<g id="a_Node000184"><a xlink:href="classMarkovOdeSolver.html#a742e5da60c6f5a9d973c482a3a5aca99" target="_top" xlink:title=" ">
<polygon fill="white" stroke="#666666" points="360,-228.97 193,-228.97 193,-198.97 360,-198.97 360,-228.97"/>
<text text-anchor="start" x="201" y="-216.97" font-family="Ubuntu Mono" font-size="10.00">MarkovOdeSolver::setAbsolute</text>
<text text-anchor="middle" x="276.5" y="-205.97" font-family="Ubuntu Mono" font-size="10.00">Accuracy</text>
</a>
</g>
</g>
<!-- Node1&#45;&gt;Node184 -->
<g id="edge48_Node000001_Node000184" class="edge">
<title>Node1&#45;&gt;Node184</title>
<g id="a_edge48_Node000001_Node000184"><a xlink:title=" ">
<path fill="none" stroke="#63b8ff" d="M77.58,-465.13C83.92,-429.03 110.85,-302.72 186,-238.97 187.99,-237.28 190.09,-235.71 192.27,-234.24"/>
<polygon fill="#63b8ff" stroke="#63b8ff" points="194.21,-237.16 201.06,-229.08 190.67,-231.12 194.21,-237.16"/>
</a>
</g>
</g>
<!-- Node185 -->
<g id="Node000185" class="node">
<title>Node185</title>
<g id="a_Node000185"><a xlink:href="classMarkovOdeSolver.html#ae7b03440bb61ea31638331709a34c463" target="_top" xlink:title=" ">
<polygon fill="white" stroke="#666666" points="363,-180.47 190,-180.47 190,-161.47 363,-161.47 363,-180.47"/>
<text text-anchor="middle" x="276.5" y="-168.47" font-family="Ubuntu Mono" font-size="10.00">MarkovOdeSolver::setInternalDt</text>
</a>
</g>
</g>
<!-- Node1&#45;&gt;Node185 -->
<g id="edge49_Node000001_Node000185" class="edge">
<title>Node1&#45;&gt;Node185</title>
<g id="a_edge49_Node000001_Node000185"><a xlink:title=" ">
<path fill="none" stroke="#63b8ff" d="M76.56,-465.27C79.48,-424.58 96.39,-266.34 186,-189.97 187.82,-188.42 189.73,-186.99 191.72,-185.66"/>
<polygon fill="#63b8ff" stroke="#63b8ff" points="193.88,-188.47 200.89,-180.52 190.45,-182.36 193.88,-188.47"/>
</a>
</g>
</g>
<!-- Node186 -->
<g id="Node000186" class="node">
<title>Node186</title>
<g id="a_Node000186"><a xlink:href="classMarkovOdeSolver.html#a7d02bccbd61536ffa6799bd5fe75f59a" target="_top" xlink:title=" ">
<polygon fill="white" stroke="#666666" points="357,-143.47 196,-143.47 196,-124.47 357,-124.47 357,-143.47"/>
<text text-anchor="middle" x="276.5" y="-131.47" font-family="Ubuntu Mono" font-size="10.00">MarkovOdeSolver::setMethod</text>
</a>
</g>
</g>
<!-- Node1&#45;&gt;Node186 -->
<g id="edge50_Node000001_Node000186" class="edge">
<title>Node1&#45;&gt;Node186</title>
<g id="a_edge50_Node000001_Node000186"><a xlink:title=" ">
<path fill="none" stroke="#63b8ff" d="M76.09,-465.25C77.03,-421.45 86.99,-240.76 186,-152.97 187.74,-151.43 189.57,-150 191.48,-148.68"/>
<polygon fill="#63b8ff" stroke="#63b8ff" points="193.42,-151.6 200.29,-143.54 189.89,-145.56 193.42,-151.6"/>
</a>
</g>
</g>
<!-- Node187 -->
<g id="Node000187" class="node">
<title>Node187</title>
<g id="a_Node000187"><a xlink:href="classMarkovOdeSolver.html#aadc73bb776e88af7b871cdfe29a4a3d5" target="_top" xlink:title=" ">
<polygon fill="white" stroke="#666666" points="358.5,-105.97 194.5,-105.97 194.5,-75.97 358.5,-75.97 358.5,-105.97"/>
<text text-anchor="start" x="202.5" y="-93.97" font-family="Ubuntu Mono" font-size="10.00">MarkovOdeSolver::setRelative</text>
<text text-anchor="middle" x="276.5" y="-82.97" font-family="Ubuntu Mono" font-size="10.00">Accuracy</text>
</a>
</g>
</g>
<!-- Node1&#45;&gt;Node187 -->
<g id="edge51_Node000001_Node000187" class="edge">
<title>Node1&#45;&gt;Node187</title>
<g id="a_edge51_Node000001_Node000187"><a xlink:title=" ">
<path fill="none" stroke="#63b8ff" d="M75.83,-465.27C75.58,-418.98 80.77,-218.61 186,-115.97 187.47,-114.53 189.02,-113.18 190.63,-111.9"/>
<polygon fill="#63b8ff" stroke="#63b8ff" points="192.85,-114.62 199.18,-106.12 188.93,-108.83 192.85,-114.62"/>
</a>
</g>
</g>
<!-- Node188 -->
<g id="Node000188" class="node">
<title>Node188</title>
<g id="a_Node000188"><a xlink:href="classSharedFinfo.html#a64b94efcbd56f0e785f92d027541ae29" target="_top" xlink:title=" ">
<polygon fill="white" stroke="#666666" points="345.5,-47.47 207.5,-47.47 207.5,-28.47 345.5,-28.47 345.5,-47.47"/>
<text text-anchor="middle" x="276.5" y="-35.47" font-family="Ubuntu Mono" font-size="10.00">SharedFinfo::SharedFinfo</text>
</a>
</g>
</g>
<!-- Node1&#45;&gt;Node188 -->
<g id="edge52_Node000001_Node000188" class="edge">
<title>Node1&#45;&gt;Node188</title>
<g id="a_edge52_Node000001_Node000188"><a xlink:title=" ">
<path fill="none" stroke="#63b8ff" d="M77.32,-465.46C85.21,-409.94 127.73,-128.23 186,-66.97 192.28,-60.37 200.08,-55.26 208.43,-51.32"/>
<polygon fill="#63b8ff" stroke="#63b8ff" points="209.78,-54.55 217.67,-47.48 207.09,-48.09 209.78,-54.55"/>
</a>
</g>
</g>
<!-- Node3 -->
<g id="Node000003" class="node">
<title>Node3</title>
<g id="a_Node000003"><a xlink:href="classCinfo.html#a4f32262aa0cc7c19bc520885a5dc9509" target="_top" xlink:title=" ">
<polygon fill="white" stroke="#666666" points="696,-1094.47 603,-1094.47 603,-1075.47 696,-1075.47 696,-1094.47"/>
<text text-anchor="middle" x="649.5" y="-1082.47" font-family="Ubuntu Mono" font-size="10.00">Cinfo::cinfoMap</text>
</a>
</g>
</g>
<!-- Node2&#45;&gt;Node3 -->
<g id="edge2_Node000002_Node000003" class="edge">
<title>Node2&#45;&gt;Node3</title>
<g id="a_edge2_Node000002_Node000003"><a xlink:title=" ">
<path fill="none" stroke="#63b8ff" d="M522.06,-1070.97C542.83,-1073.27 569.38,-1076.21 592.78,-1078.8"/>
<polygon fill="#63b8ff" stroke="#63b8ff" points="592.61,-1082.3 602.93,-1079.92 593.38,-1075.34 592.61,-1082.3"/>
</a>
</g>
</g>
<!-- Node4 -->
<g id="Node000004" class="node">
<title>Node4</title>
<g id="a_Node000004"><a xlink:href="classCinfo.html#a794a4e6f88c66438308ca177d9c92751" target="_top" xlink:title=" ">
<polygon fill="#fff0f0" stroke="red" points="681.5,-1057.47 617.5,-1057.47 617.5,-1038.47 681.5,-1038.47 681.5,-1057.47"/>
<text text-anchor="middle" x="649.5" y="-1045.47" font-family="Ubuntu Mono" font-size="10.00">Cinfo::init</text>
</a>
</g>
</g>
<!-- Node2&#45;&gt;Node4 -->
<g id="edge3_Node000002_Node000004" class="edge">
<title>Node2&#45;&gt;Node4</title>
<g id="a_edge3_Node000002_Node000004"><a xlink:title=" ">
<path fill="none" stroke="#63b8ff" d="M522.06,-1062.75C547.32,-1059.8 581.13,-1055.85 607.42,-1052.77"/>
<polygon fill="#63b8ff" stroke="#63b8ff" points="607.94,-1056.24 617.46,-1051.6 607.12,-1049.28 607.94,-1056.24"/>
</a>
</g>
</g>
<!-- Node9 -->
<g id="Node000009" class="node">
<title>Node9</title>
<g id="a_Node000009"><a xlink:href="classFinfo.html#a1988dedc8761bf072a396354fe2d1672" target="_top" xlink:title=" ">
<polygon fill="white" stroke="#666666" points="685,-533.47 614,-533.47 614,-514.47 685,-514.47 685,-533.47"/>
<text text-anchor="middle" x="649.5" y="-521.47" font-family="Ubuntu Mono" font-size="10.00">Finfo::Finfo</text>
</a>
</g>
</g>
<!-- Node8&#45;&gt;Node9 -->
<g id="edge5_Node000008_Node000009" class="edge">
<title>Node8&#45;&gt;Node9</title>
<g id="a_edge5_Node000008_Node000009"><a xlink:title=" ">
<path fill="none" stroke="#63b8ff" d="M543.23,-1026.21C552.16,-1023.27 560.56,-1018.77 567,-1011.97 632.62,-942.77 645.72,-626.45 648.04,-543.78"/>
<polygon fill="#63b8ff" stroke="#63b8ff" points="651.54,-543.81 648.3,-533.72 644.55,-543.63 651.54,-543.81"/>
</a>
</g>
</g>
<!-- Node17&#45;&gt;Node2 -->
<g id="edge15_Node000017_Node000002" class="edge">
<title>Node17&#45;&gt;Node2</title>
<g id="a_edge15_Node000017_Node000002"><a xlink:title=" ">
<path fill="none" stroke="#63b8ff" d="M326.94,-531.49C341.89,-533.93 356.98,-539.47 367,-550.97 439.9,-634.61 330.5,-964.98 403,-1048.97 411.7,-1059.05 424.68,-1064.2 437.71,-1066.66"/>
<polygon fill="#63b8ff" stroke="#63b8ff" points="437.23,-1070.13 447.62,-1068.06 438.21,-1063.2 437.23,-1070.13"/>
</a>
</g>
</g>
<!-- Node17&#45;&gt;Node8 -->
<g id="edge16_Node000017_Node000008" class="edge">
<title>Node17&#45;&gt;Node8</title>
<g id="a_edge16_Node000017_Node000008"><a xlink:title=" ">
<path fill="none" stroke="#63b8ff" d="M326.9,-531.52C341.85,-533.97 356.95,-539.5 367,-550.97 434.74,-628.24 335.63,-934.38 403,-1011.97 406.99,-1016.57 411.88,-1020.14 417.25,-1022.9"/>
<polygon fill="#63b8ff" stroke="#63b8ff" points="416.1,-1026.21 426.68,-1026.81 418.78,-1019.74 416.1,-1026.21"/>
</a>
</g>
</g>
<!-- Node18 -->
<g id="Node000018" class="node">
<title>Node18</title>
<g id="a_Node000018"><a xlink:href="classNeutral.html#a9914118f1eab1c69e28d0e814e5b5824" target="_top" xlink:title=" ">
<polygon fill="white" stroke="#666666" points="559.5,-632.47 410.5,-632.47 410.5,-613.47 559.5,-613.47 559.5,-632.47"/>
<text text-anchor="middle" x="485" y="-620.47" font-family="Ubuntu Mono" font-size="10.00">Neutral::blockNodeBalance</text>
</a>
</g>
</g>
<!-- Node17&#45;&gt;Node18 -->
<g id="edge14_Node000017_Node000018" class="edge">
<title>Node17&#45;&gt;Node18</title>
<g id="a_edge14_Node000017_Node000018"><a xlink:title=" ">
<path fill="none" stroke="#63b8ff" d="M326.67,-535.45C340.59,-538.21 355.17,-542.95 367,-550.97 390.87,-567.16 379.21,-588.67 403,-604.97 405.26,-606.52 407.63,-607.94 410.09,-609.24"/>
<polygon fill="#63b8ff" stroke="#63b8ff" points="408.74,-612.47 419.29,-613.43 411.64,-606.1 408.74,-612.47"/>
</a>
</g>
</g>
<!-- Node19 -->
<g id="Node000019" class="node">
<title>Node19</title>
<g id="a_Node000019"><a xlink:href="classNeutral.html#aa2c79f5c59b166602381680987c84165" target="_top" xlink:title=" ">
<polygon fill="#fff0f0" stroke="red" points="532.5,-595.47 437.5,-595.47 437.5,-576.47 532.5,-576.47 532.5,-595.47"/>
<text text-anchor="middle" x="485" y="-583.47" font-family="Ubuntu Mono" font-size="10.00">Neutral::destroy</text>
</a>
</g>
</g>
<!-- Node17&#45;&gt;Node19 -->
<g id="edge17_Node000017_Node000019" class="edge">
<title>Node17&#45;&gt;Node19</title>
<g id="a_edge17_Node000017_Node000019"><a xlink:title=" ">
<path fill="none" stroke="#63b8ff" d="M326.76,-540.5C339.98,-543.31 354.16,-546.8 367,-550.97 383.65,-556.37 386.4,-561.39 403,-566.97 410.79,-569.59 419.11,-571.98 427.35,-574.12"/>
<polygon fill="#63b8ff" stroke="#63b8ff" points="426.77,-577.58 437.32,-576.6 428.46,-570.79 426.77,-577.58"/>
</a>
</g>
</g>
<!-- Node50 -->
<g id="Node000050" class="node">
<title>Node50</title>
<g id="a_Node000050"><a xlink:href="classElementValueFinfo.html#a920b84a2ae5d17c07322009467413ca1" target="_top" xlink:title=" ">
<polygon fill="white" stroke="#666666" points="542,-557.97 428,-557.97 428,-527.97 542,-527.97 542,-557.97"/>
<text text-anchor="start" x="436" y="-545.97" font-family="Ubuntu Mono" font-size="10.00">ElementValueFinfo::</text>
<text text-anchor="middle" x="485" y="-534.97" font-family="Ubuntu Mono" font-size="10.00">ElementValueFinfo</text>
</a>
</g>
</g>
<!-- Node17&#45;&gt;Node50 -->
<g id="edge18_Node000017_Node000050" class="edge">
<title>Node17&#45;&gt;Node50</title>
<g id="a_edge18_Node000017_Node000050"><a xlink:title=" ">
<path fill="none" stroke="#63b8ff" d="M326.7,-534.59C353.91,-536.04 388.1,-537.86 417.64,-539.44"/>
<polygon fill="#63b8ff" stroke="#63b8ff" points="417.71,-542.94 427.88,-539.98 418.08,-535.95 417.71,-542.94"/>
</a>
</g>
</g>
<!-- Node51 -->
<g id="Node000051" class="node">
<title>Node51</title>
<g id="a_Node000051"><a xlink:href="classEpFunc0.html#a65a165d2b5236827e20b5f84536e3ecb" target="_top" xlink:title=" ">
<polygon fill="white" stroke="#666666" points="537,-509.47 433,-509.47 433,-490.47 537,-490.47 537,-509.47"/>
<text text-anchor="middle" x="485" y="-497.47" font-family="Ubuntu Mono" font-size="10.00">EpFunc0::EpFunc0</text>
</a>
</g>
</g>
<!-- Node17&#45;&gt;Node51 -->
<g id="edge19_Node000017_Node000051" class="edge">
<title>Node17&#45;&gt;Node51</title>
<g id="a_edge19_Node000017_Node000051"><a xlink:title=" ">
<path fill="none" stroke="#63b8ff" d="M326.7,-524.35C355.42,-519.9 391.92,-514.24 422.52,-509.5"/>
<polygon fill="#63b8ff" stroke="#63b8ff" points="423.31,-512.92 432.66,-507.93 422.24,-506 423.31,-512.92"/>
</a>
</g>
</g>
<!-- Node52 -->
<g id="Node000052" class="node">
<title>Node52</title>
<g id="a_Node000052"><a xlink:href="classEpFunc1.html#aa6a9cc9446afac48f3e2f51a116766c0" target="_top" xlink:title=" ">
<polygon fill="white" stroke="#666666" points="537,-472.47 433,-472.47 433,-453.47 537,-453.47 537,-472.47"/>
<text text-anchor="middle" x="485" y="-460.47" font-family="Ubuntu Mono" font-size="10.00">EpFunc1::EpFunc1</text>
</a>
</g>
</g>
<!-- Node17&#45;&gt;Node52 -->
<g id="edge20_Node000017_Node000052" class="edge">
<title>Node17&#45;&gt;Node52</title>
<g id="a_edge20_Node000017_Node000052"><a xlink:title=" ">
<path fill="none" stroke="#63b8ff" d="M326.02,-522.38C339.64,-518.78 354.21,-514.05 367,-507.97 384.83,-499.5 385.04,-490.16 403,-481.97 409.27,-479.11 416.01,-476.66 422.84,-474.56"/>
<polygon fill="#63b8ff" stroke="#63b8ff" points="424.18,-477.82 432.85,-471.73 422.28,-471.08 424.18,-477.82"/>
</a>
</g>
</g>
<!-- Node53 -->
<g id="Node000053" class="node">
<title>Node53</title>
<g id="a_Node000053"><a xlink:href="classEpFunc2.html#a449f38ac36c9f1fdc9cc7a244841bbee" target="_top" xlink:title=" ">
<polygon fill="white" stroke="#666666" points="537,-435.47 433,-435.47 433,-416.47 537,-416.47 537,-435.47"/>
<text text-anchor="middle" x="485" y="-423.47" font-family="Ubuntu Mono" font-size="10.00">EpFunc2::EpFunc2</text>
</a>
</g>
</g>
<!-- Node17&#45;&gt;Node53 -->
<g id="edge21_Node000017_Node000053" class="edge">
<title>Node17&#45;&gt;Node53</title>
<g id="a_edge21_Node000017_Node000053"><a xlink:title=" ">
<path fill="none" stroke="#63b8ff" d="M326.66,-526.05C340.75,-522.53 355.41,-516.91 367,-507.97 392.54,-488.28 377.15,-464.26 403,-444.97 408.97,-440.52 415.82,-437.09 422.95,-434.45"/>
<polygon fill="#63b8ff" stroke="#63b8ff" points="424.33,-437.68 432.8,-431.32 422.21,-431.01 424.33,-437.68"/>
</a>
</g>
</g>
<!-- Node54 -->
<g id="Node000054" class="node">
<title>Node54</title>
<g id="a_Node000054"><a xlink:href="classEpFunc3.html#a17dc91b7c23ff8ed38f968e673375c25" target="_top" xlink:title=" ">
<polygon fill="white" stroke="#666666" points="537,-398.47 433,-398.47 433,-379.47 537,-379.47 537,-398.47"/>
<text text-anchor="middle" x="485" y="-386.47" font-family="Ubuntu Mono" font-size="10.00">EpFunc3::EpFunc3</text>
</a>
</g>
</g>
<!-- Node17&#45;&gt;Node54 -->
<g id="edge22_Node000017_Node000054" class="edge">
<title>Node17&#45;&gt;Node54</title>
<g id="a_edge22_Node000017_Node000054"><a xlink:title=" ">
<path fill="none" stroke="#63b8ff" d="M326.75,-527.49C341.17,-524.03 355.99,-518.1 367,-507.97 401.77,-475.99 367.73,-439.39 403,-407.97 408.84,-402.77 415.83,-398.92 423.23,-396.08"/>
<polygon fill="#63b8ff" stroke="#63b8ff" points="424.32,-399.4 432.76,-393 422.16,-392.74 424.32,-399.4"/>
</a>
</g>
</g>
<!-- Node55 -->
<g id="Node000055" class="node">
<title>Node55</title>
<g id="a_Node000055"><a xlink:href="classNeutral.html#a2baaa0ca5d06deb02b5a20dd26eb2c6c" target="_top" xlink:title=" ">
<polygon fill="white" stroke="#666666" points="565,-361.47 405,-361.47 405,-342.47 565,-342.47 565,-361.47"/>
<text text-anchor="middle" x="485" y="-349.47" font-family="Ubuntu Mono" font-size="10.00">Neutral::generalNodeBalance</text>
</a>
</g>
</g>
<!-- Node17&#45;&gt;Node55 -->
<g id="edge23_Node000017_Node000055" class="edge">
<title>Node17&#45;&gt;Node55</title>
<g id="a_edge23_Node000017_Node000055"><a xlink:title=" ">
<path fill="none" stroke="#63b8ff" d="M326.85,-528.18C341.43,-524.77 356.33,-518.69 367,-507.97 411.4,-463.34 357.9,-414.89 403,-370.97 404.47,-369.53 406.04,-368.2 407.67,-366.96"/>
<polygon fill="#63b8ff" stroke="#63b8ff" points="409.76,-369.78 416.38,-361.51 406.05,-363.85 409.76,-369.78"/>
</a>
</g>
</g>
<!-- Node25 -->
<g id="Node000025" class="node">
<title>Node25</title>
<g id="a_Node000025"><a xlink:href="classNeutral.html#adfa2d6bebf99a0edf034775aaa25c5e6" target="_top" xlink:title=" ">
<polygon fill="#fff0f0" stroke="red" points="542.5,-324.47 427.5,-324.47 427.5,-305.47 542.5,-305.47 542.5,-324.47"/>
<text text-anchor="middle" x="485" y="-312.47" font-family="Ubuntu Mono" font-size="10.00">Neutral::getChildren</text>
</a>
</g>
</g>
<!-- Node17&#45;&gt;Node25 -->
<g id="edge24_Node000017_Node000025" class="edge">
<title>Node17&#45;&gt;Node25</title>
<g id="a_edge24_Node000017_Node000025"><a xlink:title=" ">
<path fill="none" stroke="#63b8ff" d="M326.73,-528.62C341.48,-525.26 356.51,-519.09 367,-507.97 421.2,-450.53 347.9,-390.54 403,-333.97 407.26,-329.6 412.32,-326.15 417.81,-323.44"/>
<polygon fill="#63b8ff" stroke="#63b8ff" points="419.43,-326.56 427.37,-319.55 416.79,-320.08 419.43,-326.56"/>
</a>
</g>
</g>
<!-- Node56 -->
<g id="Node000056" class="node">
<title>Node56</title>
<g id="a_Node000056"><a xlink:href="classNeutral.html#a91602cb96e211f185ae85c02ffc081be" target="_top" xlink:title=" ">
<polygon fill="#fff0f0" stroke="red" points="535.5,-287.47 434.5,-287.47 434.5,-268.47 535.5,-268.47 535.5,-287.47"/>
<text text-anchor="middle" x="485" y="-275.47" font-family="Ubuntu Mono" font-size="10.00">Neutral::getClass</text>
</a>
</g>
</g>
<!-- Node17&#45;&gt;Node56 -->
<g id="edge25_Node000017_Node000056" class="edge">
<title>Node17&#45;&gt;Node56</title>
<g id="a_edge25_Node000017_Node000056"><a xlink:title=" ">
<path fill="none" stroke="#63b8ff" d="M326.96,-528.84C341.73,-525.49 356.71,-519.27 367,-507.97 431.07,-437.65 337.83,-366.27 403,-296.97 408.9,-290.69 416.45,-286.31 424.56,-283.28"/>
<polygon fill="#63b8ff" stroke="#63b8ff" points="425.74,-286.58 434.27,-280.31 423.69,-279.89 425.74,-286.58"/>
</a>
</g>
</g>
<!-- Node58 -->
<g id="Node000058" class="node">
<title>Node58</title>
<g id="a_Node000058"><a xlink:href="classNeutral.html#abe6b34eb0f9783ec836d9096cafeff12" target="_top" xlink:title="Information function to return names of all DestFinfos.">
<polygon fill="#fff0f0" stroke="red" points="547.5,-250.47 422.5,-250.47 422.5,-231.47 547.5,-231.47 547.5,-250.47"/>
<text text-anchor="middle" x="485" y="-238.47" font-family="Ubuntu Mono" font-size="10.00">Neutral::getDestFields</text>
</a>
</g>
</g>
<!-- Node17&#45;&gt;Node58 -->
<g id="edge26_Node000017_Node000058" class="edge">
<title>Node17&#45;&gt;Node58</title>
<g id="a_edge26_Node000017_Node000058"><a xlink:title=" ">
<path fill="none" stroke="#63b8ff" d="M326.66,-529.09C341.59,-525.78 356.74,-519.51 367,-507.97 440.98,-424.71 327.71,-342.05 403,-259.97 405.97,-256.74 409.37,-254 413.06,-251.7"/>
<polygon fill="#63b8ff" stroke="#63b8ff" points="414.83,-254.72 422.14,-247.05 411.64,-248.49 414.83,-254.72"/>
</a>
</g>
</g>
<!-- Node61 -->
<g id="Node000061" class="node">
<title>Node61</title>
<g id="a_Node000061"><a xlink:href="classNeutral.html#a3b8747ab78837f78ef8130807b8de0fa" target="_top" xlink:title="Returns dt associated with this object based on its clock tick.">
<polygon fill="#fff0f0" stroke="red" points="528,-213.47 442,-213.47 442,-194.47 528,-194.47 528,-213.47"/>
<text text-anchor="middle" x="485" y="-201.47" font-family="Ubuntu Mono" font-size="10.00">Neutral::getDt</text>
</a>
</g>
</g>
<!-- Node17&#45;&gt;Node61 -->
<g id="edge27_Node000017_Node000061" class="edge">
<title>Node17&#45;&gt;Node61</title>
<g id="a_edge27_Node000017_Node000061"><a xlink:title=" ">
<path fill="none" stroke="#63b8ff" d="M326.79,-529.2C341.73,-525.89 356.85,-519.61 367,-507.97 450.92,-411.75 317.57,-317.85 403,-222.97 410.47,-214.67 420.82,-209.65 431.63,-206.69"/>
<polygon fill="#63b8ff" stroke="#63b8ff" points="432.59,-210.06 441.61,-204.51 431.09,-203.22 432.59,-210.06"/>
</a>
</g>
</g>
<!-- Node90 -->
<g id="Node000090" class="node">
<title>Node90</title>
<g id="a_Node000090"><a xlink:href="classNeutral.html#af9a9493d31ec12e2e7b002212f13979a" target="_top" xlink:title="fieldIndex specifies field entry if FieldElement. Otherwise zero">
<polygon fill="#fff0f0" stroke="red" points="547.5,-176.47 422.5,-176.47 422.5,-157.47 547.5,-157.47 547.5,-176.47"/>
<text text-anchor="middle" x="485" y="-164.47" font-family="Ubuntu Mono" font-size="10.00">Neutral::getFieldIndex</text>
</a>
</g>
</g>
<!-- Node17&#45;&gt;Node90 -->
<g id="edge28_Node000017_Node000090" class="edge">
<title>Node17&#45;&gt;Node90</title>
<g id="a_edge28_Node000017_Node000090"><a xlink:title=" ">
<path fill="none" stroke="#63b8ff" d="M326.88,-529.29C341.83,-525.98 356.93,-519.68 367,-507.97 460.87,-398.77 307.41,-293.67 403,-185.97 405.97,-182.63 409.4,-179.82 413.14,-177.46"/>
<polygon fill="#63b8ff" stroke="#63b8ff" points="415.06,-180.4 422.36,-172.73 411.87,-174.18 415.06,-180.4"/>
</a>
</g>
</g>
<!-- Node91 -->
<g id="Node000091" class="node">
<title>Node91</title>
<g id="a_Node000091"><a xlink:href="classNeutral.html#ad99308d75d8fe040563d26e2abc09dbc" target="_top" xlink:title="Id is the Id of the object, converted to unsigned int.">
<polygon fill="#fff0f0" stroke="red" points="526.5,-139.47 443.5,-139.47 443.5,-120.47 526.5,-120.47 526.5,-139.47"/>
<text text-anchor="middle" x="485" y="-127.47" font-family="Ubuntu Mono" font-size="10.00">Neutral::getId</text>
</a>
</g>
</g>
<!-- Node17&#45;&gt;Node91 -->
<g id="edge29_Node000017_Node000091" class="edge">
<title>Node17&#45;&gt;Node91</title>
<g id="a_edge29_Node000017_Node000091"><a xlink:title=" ">
<path fill="none" stroke="#63b8ff" d="M326.96,-529.36C341.91,-526.06 357,-519.74 367,-507.97 470.84,-385.78 297.24,-269.51 403,-148.97 410.74,-140.15 421.72,-135.02 433.1,-132.12"/>
<polygon fill="#63b8ff" stroke="#63b8ff" points="434.02,-135.5 443.14,-130.1 432.65,-128.64 434.02,-135.5"/>
</a>
</g>
</g>
<!-- Node93 -->
<g id="Node000093" class="node">
<title>Node93</title>
<g id="a_Node000093"><a xlink:href="classNeutral.html#ace36d1d6562095fc8f4c1015cfe7b78e" target="_top" xlink:title=" ">
<polygon fill="#fff0f0" stroke="red" points="557.5,-1002.47 412.5,-1002.47 412.5,-983.47 557.5,-983.47 557.5,-1002.47"/>
<text text-anchor="middle" x="485" y="-990.47" font-family="Ubuntu Mono" font-size="10.00">Neutral::getIncomingMsgs</text>
</a>
</g>
</g>
<!-- Node17&#45;&gt;Node93 -->
<g id="edge30_Node000017_Node000093" class="edge">
<title>Node17&#45;&gt;Node93</title>
<g id="a_edge30_Node000017_Node000093"><a xlink:title=" ">
<path fill="none" stroke="#63b8ff" d="M326.86,-531.56C341.8,-534.01 356.91,-539.54 367,-550.97 429.58,-621.86 340.76,-903.78 403,-974.97 403.53,-975.58 404.08,-976.17 404.65,-976.75"/>
<polygon fill="#63b8ff" stroke="#63b8ff" points="402.75,-979.71 412.73,-983.26 407.14,-974.26 402.75,-979.71"/>
</a>
</g>
</g>
<!-- Node96 -->
<g id="Node000096" class="node">
<title>Node96</title>
<g id="a_Node000096"><a xlink:href="classNeutral.html#a58a3e0eb03adeacdb408d83566c21f28" target="_top" xlink:title="Index is the dataIndex of the object.">
<polygon fill="#fff0f0" stroke="red" points="535.5,-965.47 434.5,-965.47 434.5,-946.47 535.5,-946.47 535.5,-965.47"/>
<text text-anchor="middle" x="485" y="-953.47" font-family="Ubuntu Mono" font-size="10.00">Neutral::getIndex</text>
</a>
</g>
</g>
<!-- Node17&#45;&gt;Node96 -->
<g id="edge31_Node000017_Node000096" class="edge">
<title>Node17&#45;&gt;Node96</title>
<g id="a_edge31_Node000017_Node000096"><a xlink:title=" ">
<path fill="none" stroke="#63b8ff" d="M326.8,-531.61C341.74,-534.06 356.86,-539.58 367,-550.97 424.42,-615.49 345.89,-873.18 403,-937.97 408.75,-944.49 416.29,-948.94 424.47,-951.93"/>
<polygon fill="#63b8ff" stroke="#63b8ff" points="423.69,-955.35 434.28,-954.81 425.66,-948.64 423.69,-955.35"/>
</a>
</g>
</g>
<!-- Node97 -->
<g id="Node000097" class="node">
<title>Node97</title>
<g id="a_Node000097"><a xlink:href="classNeutral.html#afd9ceac0b4ee764763bd900c9b430bc2" target="_top" xlink:title=" ">
<polygon fill="#fff0f0" stroke="red" points="567,-928.47 403,-928.47 403,-909.47 567,-909.47 567,-928.47"/>
<text text-anchor="middle" x="485" y="-916.47" font-family="Ubuntu Mono" font-size="10.00">Neutral::getMsgDestFunctions</text>
</a>
</g>
</g>
<!-- Node17&#45;&gt;Node97 -->
<g id="edge32_Node000017_Node000097" class="edge">
<title>Node17&#45;&gt;Node97</title>
<g id="a_edge32_Node000017_Node000097"><a xlink:title=" ">
<path fill="none" stroke="#63b8ff" d="M326.74,-531.67C341.67,-534.12 356.81,-539.63 367,-550.97 471.52,-667.28 299.03,-784.16 403,-900.97 403.65,-901.7 404.32,-902.4 405.01,-903.08"/>
<polygon fill="#63b8ff" stroke="#63b8ff" points="403.12,-906.04 413.16,-909.43 407.42,-900.52 403.12,-906.04"/>
</a>
</g>
</g>
<!-- Node101 -->
<g id="Node000101" class="node">
<title>Node101</title>
<g id="a_Node000101"><a xlink:href="classNeutral.html#a3ae4401b14809a2995f2bb2304250b52" target="_top" xlink:title=" ">
<polygon fill="#fff0f0" stroke="red" points="546,-891.47 424,-891.47 424,-872.47 546,-872.47 546,-891.47"/>
<text text-anchor="middle" x="485" y="-879.47" font-family="Ubuntu Mono" font-size="10.00">Neutral::getMsgDests</text>
</a>
</g>
</g>
<!-- Node17&#45;&gt;Node101 -->
<g id="edge33_Node000017_Node000101" class="edge">
<title>Node17&#45;&gt;Node101</title>
<g id="a_edge33_Node000017_Node000101"><a xlink:title=" ">
<path fill="none" stroke="#63b8ff" d="M326.66,-531.74C341.59,-534.2 356.74,-539.69 367,-550.97 461.22,-654.56 309.27,-759.94 403,-863.97 406.32,-867.66 410.21,-870.68 414.46,-873.14"/>
<polygon fill="#63b8ff" stroke="#63b8ff" points="413.09,-876.36 423.63,-877.46 416.07,-870.03 413.09,-876.36"/>
</a>
</g>
</g>
<!-- Node102 -->
<g id="Node000102" class="node">
<title>Node102</title>
<g id="a_Node000102"><a xlink:href="classNeutral.html#ae10b61740b9b9cf7b25cd1ca2d7cd7c2" target="_top" xlink:title=" ">
<polygon fill="#fff0f0" stroke="red" points="537,-854.47 433,-854.47 433,-835.47 537,-835.47 537,-854.47"/>
<text text-anchor="middle" x="485" y="-842.47" font-family="Ubuntu Mono" font-size="10.00">Neutral::getName</text>
</a>
</g>
</g>
<!-- Node17&#45;&gt;Node102 -->
<g id="edge34_Node000017_Node000102" class="edge">
<title>Node17&#45;&gt;Node102</title>
<g id="a_edge34_Node000017_Node000102"><a xlink:title=" ">
<path fill="none" stroke="#63b8ff" d="M326.56,-531.83C341.48,-534.3 356.65,-539.77 367,-550.97 450.93,-641.85 319.5,-735.69 403,-826.97 408.53,-833.02 415.6,-837.26 423.26,-840.21"/>
<polygon fill="#63b8ff" stroke="#63b8ff" points="422.23,-843.56 432.82,-843.2 424.32,-836.88 422.23,-843.56"/>
</a>
</g>
</g>
<!-- Node103 -->
<g id="Node000103" class="node">
<title>Node103</title>
<g id="a_Node000103"><a xlink:href="classNeutral.html#a56224f109c11e5f632569a728c565a8e" target="_top" xlink:title=" ">
<polygon fill="#fff0f0" stroke="red" points="547,-817.47 423,-817.47 423,-798.47 547,-798.47 547,-817.47"/>
<text text-anchor="middle" x="485" y="-805.47" font-family="Ubuntu Mono" font-size="10.00">Neutral::getNeighbors</text>
</a>
</g>
</g>
<!-- Node17&#45;&gt;Node103 -->
<g id="edge35_Node000017_Node000103" class="edge">
<title>Node17&#45;&gt;Node103</title>
<g id="a_edge35_Node000017_Node000103"><a xlink:title=" ">
<path fill="none" stroke="#63b8ff" d="M326.89,-532.03C341.66,-534.54 356.65,-539.99 367,-550.97 440.66,-629.16 329.71,-711.43 403,-789.97 406.04,-793.23 409.53,-795.96 413.31,-798.25"/>
<polygon fill="#63b8ff" stroke="#63b8ff" points="412.09,-801.55 422.61,-802.82 415.18,-795.27 412.09,-801.55"/>
</a>
</g>
</g>
<!-- Node110 -->
<g id="Node000110" class="node">
<title>Node110</title>
<g id="a_Node000110"><a xlink:href="classNeutral.html#ae8da2420c20c485d9081ffeb376cd153" target="_top" xlink:title=" ">
<polygon fill="#fff0f0" stroke="red" points="545.5,-780.47 424.5,-780.47 424.5,-761.47 545.5,-761.47 545.5,-780.47"/>
<text text-anchor="middle" x="485" y="-768.47" font-family="Ubuntu Mono" font-size="10.00">Neutral::getNumData</text>
</a>
</g>
</g>
<!-- Node17&#45;&gt;Node110 -->
<g id="edge36_Node000017_Node000110" class="edge">
<title>Node17&#45;&gt;Node110</title>
<g id="a_edge36_Node000017_Node000110"><a xlink:title=" ">
<path fill="none" stroke="#63b8ff" d="M326.72,-532.2C341.48,-534.71 356.51,-540.13 367,-550.97 430.42,-616.5 339.9,-687.14 403,-752.97 406.49,-756.61 410.55,-759.6 414.94,-762.03"/>
<polygon fill="#63b8ff" stroke="#63b8ff" points="413.82,-765.37 424.37,-766.3 416.7,-758.99 413.82,-765.37"/>
</a>
</g>
</g>
<!-- Node111 -->
<g id="Node000111" class="node">
<title>Node111</title>
<g id="a_Node000111"><a xlink:href="classNeutral.html#a74a4bec828fb2ef92b88481d42715a61" target="_top" xlink:title=" ">
<polygon fill="#fff0f0" stroke="red" points="545.5,-743.47 424.5,-743.47 424.5,-724.47 545.5,-724.47 545.5,-743.47"/>
<text text-anchor="middle" x="485" y="-731.47" font-family="Ubuntu Mono" font-size="10.00">Neutral::getNumField</text>
</a>
</g>
</g>
<!-- Node17&#45;&gt;Node111 -->
<g id="edge37_Node000017_Node000111" class="edge">
<title>Node17&#45;&gt;Node111</title>
<g id="a_edge37_Node000017_Node000111"><a xlink:title=" ">
<path fill="none" stroke="#63b8ff" d="M326.94,-532.52C341.53,-535.08 356.41,-540.44 367,-550.97 420.22,-603.9 350.03,-662.79 403,-715.97 406.5,-719.48 410.53,-722.38 414.87,-724.76"/>
<polygon fill="#63b8ff" stroke="#63b8ff" points="413.62,-728.03 424.17,-728.95 416.49,-721.65 413.62,-728.03"/>
</a>
</g>
</g>
<!-- Node114 -->
<g id="Node000114" class="node">
<title>Node114</title>
<g id="a_Node000114"><a xlink:href="classNeutral.html#a9f7c3b86a68a1bdb323b5e1ac246bfde" target="_top" xlink:title=" ">
<polygon fill="#fff0f0" stroke="red" points="535,-706.47 435,-706.47 435,-687.47 535,-687.47 535,-706.47"/>
<text text-anchor="middle" x="485" y="-694.47" font-family="Ubuntu Mono" font-size="10.00">Neutral::getObjId</text>
</a>
</g>
</g>
<!-- Node17&#45;&gt;Node114 -->
<g id="edge38_Node000017_Node000114" class="edge">
<title>Node17&#45;&gt;Node114</title>
<g id="a_edge38_Node000017_Node000114"><a xlink:title=" ">
<path fill="none" stroke="#63b8ff" d="M326.57,-532.9C341.14,-535.49 356.1,-540.76 367,-550.97 410.12,-591.38 360.07,-638.36 403,-678.97 409.24,-684.88 416.97,-689.01 425.16,-691.87"/>
<polygon fill="#63b8ff" stroke="#63b8ff" points="424.34,-695.28 434.92,-694.68 426.28,-688.55 424.34,-695.28"/>
</a>
</g>
</g>
<!-- Node115 -->
<g id="Node000115" class="node">
<title>Node115</title>
<g id="a_Node000115"><a xlink:href="classNeutral.html#a9d687793edfff56f864bea03d8117880" target="_top" xlink:title=" ">
<polygon fill="#fff0f0" stroke="red" points="557,-669.47 413,-669.47 413,-650.47 557,-650.47 557,-669.47"/>
<text text-anchor="middle" x="485" y="-657.47" font-family="Ubuntu Mono" font-size="10.00">Neutral::getOutgoingMsgs</text>
</a>
</g>
</g>
<!-- Node17&#45;&gt;Node115 -->
<g id="edge39_Node000017_Node000115" class="edge">
<title>Node17&#45;&gt;Node115</title>
<g id="a_edge39_Node000017_Node000115"><a xlink:title=" ">
<path fill="none" stroke="#63b8ff" d="M326.89,-533.76C341.14,-536.43 355.84,-541.54 367,-550.97 400.22,-579.04 369.91,-613.74 403,-641.97 404.36,-643.13 405.77,-644.21 407.23,-645.24"/>
<polygon fill="#63b8ff" stroke="#63b8ff" points="405.69,-648.39 416.1,-650.4 409.21,-642.34 405.69,-648.39"/>
</a>
</g>
</g>
<!-- Node17&#45;&gt;Node157 -->
<g id="edge40_Node000017_Node000157" class="edge">
<title>Node17&#45;&gt;Node157</title>
<g id="a_edge40_Node000017_Node000157"><a xlink:title=" ">
<path fill="none" stroke="#63b8ff" d="M326.56,-529.51C341.67,-526.24 356.95,-519.91 367,-507.97 423.91,-440.37 345.03,-178.66 403,-111.97 405.93,-108.6 409.34,-105.76 413.06,-103.38"/>
<polygon fill="#63b8ff" stroke="#63b8ff" points="414.98,-106.33 422.25,-98.63 411.76,-100.12 414.98,-106.33"/>
</a>
</g>
</g>
<!-- Node159&#45;&gt;Node180 -->
<g id="edge43_Node000159_Node000180" class="edge">
<title>Node159&#45;&gt;Node180</title>
<g id="a_edge43_Node000159_Node000180"><a xlink:title=" ">
<path fill="none" stroke="#63b8ff" d="M347.47,-409.41C354.88,-405.88 361.65,-401.19 367,-394.97 460.34,-286.47 307.96,-181.98 403,-74.97 413.52,-63.12 429.9,-57.94 445.18,-55.89"/>
<polygon fill="#63b8ff" stroke="#63b8ff" points="445.87,-59.34 455.5,-54.92 445.21,-52.37 445.87,-59.34"/>
</a>
</g>
</g>
<!-- Node183&#45;&gt;Node180 -->
<g id="edge47_Node000183_Node000180" class="edge">
<title>Node183&#45;&gt;Node180</title>
<g id="a_edge47_Node000183_Node000180"><a xlink:title=" ">
<path fill="none" stroke="#63b8ff" d="M343.56,-252.1C352.29,-248.98 360.46,-244.46 367,-237.97 419.67,-185.72 350.88,-127.77 403,-74.97 413.96,-63.86 430.11,-58.75 445.1,-56.54"/>
<polygon fill="#63b8ff" stroke="#63b8ff" points="445.65,-60 455.22,-55.45 444.9,-53.04 445.65,-60"/>
</a>
</g>
</g>
<!-- Node188&#45;&gt;Node9 -->
<g id="edge53_Node000188_Node000009" class="edge">
<title>Node188&#45;&gt;Node9</title>
<g id="a_edge53_Node000188_Node000009"><a xlink:title=" ">
<path fill="none" stroke="#63b8ff" d="M302.4,-28.38C357.4,-8.98 490.47,27.82 567,-36.97 639.8,-98.6 647.62,-421.08 648.42,-504.34"/>
<polygon fill="#63b8ff" stroke="#63b8ff" points="644.92,-504.47 648.49,-514.45 651.92,-504.42 644.92,-504.47"/>
</a>
</g>
</g>
</g>
</svg>
