<?xml version="1.0" encoding="UTF-8" standalone="no"?>
<!DOCTYPE svg PUBLIC "-//W3C//DTD SVG 1.1//EN"
 "http://www.w3.org/Graphics/SVG/1.1/DTD/svg11.dtd">
<!-- Generated by graphviz version 2.43.0 (0)
 -->
<!-- Title: FieldElement::isGlobal Pages: 1 -->
<svg width="386pt" height="64pt"
 viewBox="0.00 0.00 386.00 64.00" xmlns="http://www.w3.org/2000/svg" xmlns:xlink="http://www.w3.org/1999/xlink">
<g id="graph0" class="graph" transform="scale(1 1) rotate(0) translate(4 60)">
<title>FieldElement::isGlobal</title>
<!-- Node1 -->
<g id="Node000001" class="node">
<title>Node1</title>
<g id="a_Node000001"><a xlink:title="Virtual. Returns true if global, ie, if its parent is global.">
<polygon fill="#999999" stroke="#666666" points="126,-37 0,-37 0,-18 126,-18 126,-37"/>
<text text-anchor="middle" x="63" y="-25" font-family="Ubuntu Mono" font-size="10.00">FieldElement::isGlobal</text>
</a>
</g>
</g>
<!-- Node2 -->
<g id="Node000002" class="node">
<title>Node2</title>
<g id="a_Node000002"><a xlink:href="classId.html#a574e06330597163aef0ea4c99de7ff4a" target="_top" xlink:title="Synonym for Id::operator()()">
<polygon fill="white" stroke="#666666" points="249.5,-56 177.5,-56 177.5,-37 249.5,-37 249.5,-56"/>
<text text-anchor="middle" x="213.5" y="-44" font-family="Ubuntu Mono" font-size="10.00">Id::element</text>
</a>
</g>
</g>
<!-- Node1&#45;&gt;Node2 -->
<g id="edge1_Node000001_Node000002" class="edge">
<title>Node1&#45;&gt;Node2</title>
<g id="a_edge1_Node000001_Node000002"><a xlink:title=" ">
<path fill="none" stroke="#63b8ff" d="M126.12,-35.45C139.91,-37.21 154.29,-39.05 167.26,-40.71"/>
<polygon fill="#63b8ff" stroke="#63b8ff" points="166.96,-44.2 177.32,-42 167.84,-37.26 166.96,-44.2"/>
</a>
</g>
</g>
<!-- Node4 -->
<g id="Node000004" class="node">
<title>Node4</title>
<g id="a_Node000004"><a xlink:href="classElement.html#a695b42ddcfcbedf97d74718b92da5020" target="_top" xlink:title="True if there is a copy of every dataEntry on all nodes.">
<polygon fill="white" stroke="#666666" points="265,-19 162,-19 162,0 265,0 265,-19"/>
<text text-anchor="middle" x="213.5" y="-7" font-family="Ubuntu Mono" font-size="10.00">Element::isGlobal</text>
</a>
</g>
</g>
<!-- Node1&#45;&gt;Node4 -->
<g id="edge3_Node000001_Node000004" class="edge">
<title>Node1&#45;&gt;Node4</title>
<g id="a_edge3_Node000001_Node000004"><a xlink:title=" ">
<path fill="none" stroke="#63b8ff" d="M126.12,-19.97C134.59,-18.94 143.28,-17.89 151.74,-16.87"/>
<polygon fill="#63b8ff" stroke="#63b8ff" points="152.39,-20.31 161.89,-15.63 151.55,-13.36 152.39,-20.31"/>
</a>
</g>
</g>
<!-- Node3 -->
<g id="Node000003" class="node">
<title>Node3</title>
<g id="a_Node000003"><a xlink:href="classId.html#a2d5e7b4d5d918aadfe45102691c2be27" target="_top" xlink:title=" ">
<polygon fill="white" stroke="#666666" points="378,-56 301,-56 301,-37 378,-37 378,-56"/>
<text text-anchor="middle" x="339.5" y="-44" font-family="Ubuntu Mono" font-size="10.00">Id::elements</text>
</a>
</g>
</g>
<!-- Node2&#45;&gt;Node3 -->
<g id="edge2_Node000002_Node000003" class="edge">
<title>Node2&#45;&gt;Node3</title>
<g id="a_edge2_Node000002_Node000003"><a xlink:title=" ">
<path fill="none" stroke="#63b8ff" d="M249.7,-46.5C262.37,-46.5 276.88,-46.5 290.46,-46.5"/>
<polygon fill="#63b8ff" stroke="#63b8ff" points="290.61,-50 300.61,-46.5 290.61,-43 290.61,-50"/>
</a>
</g>
</g>
</g>
</svg>
