<?xml version="1.0" encoding="UTF-8" standalone="no"?>
<!DOCTYPE svg PUBLIC "-//W3C//DTD SVG 1.1//EN"
 "http://www.w3.org/Graphics/SVG/1.1/DTD/svg11.dtd">
<!-- Generated by graphviz version 2.43.0 (0)
 -->
<!-- Title: HHChannel::getNumZgates Pages: 1 -->
<svg width="593pt" height="27pt"
 viewBox="0.00 0.00 593.00 27.00" xmlns="http://www.w3.org/2000/svg" xmlns:xlink="http://www.w3.org/1999/xlink">
<g id="graph0" class="graph" transform="scale(1 1) rotate(0) translate(4 23)">
<title>HHChannel::getNumZgates</title>
<!-- Node1 -->
<g id="Node000001" class="node">
<title>Node1</title>
<g id="a_Node000001"><a xlink:title=" ">
<polygon fill="#999999" stroke="#666666" points="585,-19 435,-19 435,0 585,0 585,-19"/>
<text text-anchor="middle" x="510" y="-7" font-family="Ubuntu Mono" font-size="10.00">HHChannel::getNumZgates</text>
</a>
</g>
</g>
<!-- Node2 -->
<g id="Node000002" class="node">
<title>Node2</title>
<g id="a_Node000002"><a xlink:href="classHHChannel.html#a8b1b7177a3d0b0c06b671d9d1242a4ec" target="_top" xlink:title=" ">
<polygon fill="white" stroke="#666666" points="399,-19 280,-19 280,0 399,0 399,-19"/>
<text text-anchor="middle" x="339.5" y="-7" font-family="Ubuntu Mono" font-size="10.00">HHChannel::initCinfo</text>
</a>
</g>
</g>
<!-- Node1&#45;&gt;Node2 -->
<g id="edge1_Node000001_Node000002" class="edge">
<title>Node1&#45;&gt;Node2</title>
<g id="a_edge1_Node000001_Node000002"><a xlink:title=" ">
<path fill="none" stroke="#63b8ff" d="M424.52,-9.5C415.91,-9.5 407.31,-9.5 399.07,-9.5"/>
<polygon fill="#63b8ff" stroke="#63b8ff" points="424.6,-13 434.6,-9.5 424.6,-6 424.6,-13"/>
</a>
</g>
</g>
<!-- Node3 -->
<g id="Node000003" class="node">
<title>Node3</title>
<g id="a_Node000003"><a xlink:href="classHSolve.html#a423981576f253b33c6e9091cb3ae0ea6" target="_top" xlink:title=" ">
<polygon fill="white" stroke="#666666" points="244,-19 136,-19 136,0 244,0 244,-19"/>
<text text-anchor="middle" x="190" y="-7" font-family="Ubuntu Mono" font-size="10.00">HSolve::unzombify</text>
</a>
</g>
</g>
<!-- Node2&#45;&gt;Node3 -->
<g id="edge2_Node000002_Node000003" class="edge">
<title>Node2&#45;&gt;Node3</title>
<g id="a_edge2_Node000002_Node000003"><a xlink:title=" ">
<path fill="none" stroke="#63b8ff" d="M269.51,-9.5C261.02,-9.5 252.46,-9.5 244.26,-9.5"/>
<polygon fill="#63b8ff" stroke="#63b8ff" points="269.78,-13 279.78,-9.5 269.78,-6 269.78,-13"/>
</a>
</g>
</g>
<!-- Node4 -->
<g id="Node000004" class="node">
<title>Node4</title>
<g id="a_Node000004"><a xlink:href="classHSolve.html#a1fadf7cb757bf5669e45b6a95433e1ee" target="_top" xlink:title=" ">
<polygon fill="white" stroke="#666666" points="100,-19 0,-19 0,0 100,0 100,-19"/>
<text text-anchor="middle" x="50" y="-7" font-family="Ubuntu Mono" font-size="10.00">HSolve::~HSolve</text>
</a>
</g>
</g>
<!-- Node3&#45;&gt;Node4 -->
<g id="edge3_Node000003_Node000004" class="edge">
<title>Node3&#45;&gt;Node4</title>
<g id="a_edge3_Node000003_Node000004"><a xlink:title=" ">
<path fill="none" stroke="#63b8ff" d="M125.39,-9.5C116.91,-9.5 108.33,-9.5 100.15,-9.5"/>
<polygon fill="#63b8ff" stroke="#63b8ff" points="125.65,-13 135.65,-9.5 125.65,-6 125.65,-13"/>
</a>
</g>
</g>
</g>
</svg>
