<?xml version="1.0" encoding="UTF-8" standalone="no"?>
<!DOCTYPE svg PUBLIC "-//W3C//DTD SVG 1.1//EN"
 "http://www.w3.org/Graphics/SVG/1.1/DTD/svg11.dtd">
<!-- Generated by graphviz version 2.43.0 (0)
 -->
<!-- Title: EpFunc1&lt; T, A &gt; Pages: 1 -->
<svg width="141pt" height="711pt"
 viewBox="0.00 0.00 141.00 711.00" xmlns="http://www.w3.org/2000/svg" xmlns:xlink="http://www.w3.org/1999/xlink">
<g id="graph0" class="graph" transform="scale(1 1) rotate(0) translate(4 707)">
<title>EpFunc1&lt; T, A &gt;</title>
<!-- Node1 -->
<g id="Node000001" class="node">
<title>Node1</title>
<g id="a_Node000001"><a xlink:title=" ">
<polygon fill="#999999" stroke="transparent" points="106,-276 14,-276 14,-212 106,-212 106,-276"/>
<text text-anchor="start" x="19" y="-264" font-family="Ubuntu Mono" font-size="10.00">EpFunc1&lt; T, A &gt;</text>
<text text-anchor="start" x="26" y="-249" font-family="Ubuntu Mono" font-size="10.00">&#45;</text>
<text text-anchor="start" x="42" y="-249" font-family="Ubuntu Mono" font-size="10.00">func_</text>
<text text-anchor="start" x="23.5" y="-234" font-family="Ubuntu Mono" font-size="10.00">+</text>
<text text-anchor="start" x="42" y="-234" font-family="Ubuntu Mono" font-size="10.00">EpFunc1()</text>
<text text-anchor="start" x="23.5" y="-219" font-family="Ubuntu Mono" font-size="10.00">+</text>
<text text-anchor="start" x="42" y="-219" font-family="Ubuntu Mono" font-size="10.00">op()</text>
<polygon fill="#666666" stroke="#666666" points="14,-259 14,-259 106,-259 106,-259 14,-259"/>
<polygon fill="#666666" stroke="#666666" points="14,-244 14,-244 40,-244 40,-244 14,-244"/>
<polygon fill="#666666" stroke="#666666" points="40,-244 40,-244 106,-244 106,-244 40,-244"/>
<polygon fill="none" stroke="#666666" points="14,-212 14,-276 106,-276 106,-212 14,-212"/>
</a>
</g>
</g>
<!-- Node4 -->
<g id="Node000004" class="node">
<title>Node4</title>
<g id="a_Node000004"><a xlink:href="classEpFunc1.html" target="_top" xlink:title=" ">
<polygon fill="white" stroke="transparent" points="120,-165 0,-165 0,-101 120,-101 120,-165"/>
<text text-anchor="start" x="5" y="-153" font-family="Ubuntu Mono" font-size="10.00">EpFunc1&lt; T, ProcPtr &gt;</text>
<text text-anchor="start" x="19" y="-138" font-family="Ubuntu Mono" font-size="10.00">&#45;</text>
<text text-anchor="start" x="42" y="-138" font-family="Ubuntu Mono" font-size="10.00">func_</text>
<text text-anchor="start" x="16.5" y="-123" font-family="Ubuntu Mono" font-size="10.00">+</text>
<text text-anchor="start" x="42" y="-123" font-family="Ubuntu Mono" font-size="10.00">EpFunc1()</text>
<text text-anchor="start" x="16.5" y="-108" font-family="Ubuntu Mono" font-size="10.00">+</text>
<text text-anchor="start" x="42" y="-108" font-family="Ubuntu Mono" font-size="10.00">op()</text>
<polygon fill="#666666" stroke="#666666" points="0,-148 0,-148 120,-148 120,-148 0,-148"/>
<polygon fill="#666666" stroke="#666666" points="0,-133 0,-133 40,-133 40,-133 0,-133"/>
<polygon fill="#666666" stroke="#666666" points="40,-133 40,-133 120,-133 120,-133 40,-133"/>
<polygon fill="none" stroke="#666666" points="0,-101 0,-165 120,-165 120,-101 0,-101"/>
</a>
</g>
</g>
<!-- Node1&#45;&gt;Node4 -->
<g id="edge3_Node000001_Node000004" class="edge">
<title>Node1&#45;&gt;Node4</title>
<g id="a_edge3_Node000001_Node000004"><a xlink:title=" ">
<path fill="none" stroke="orange" d="M60,-201.49C60,-189.46 60,-176.53 60,-165.24"/>
<polygon fill="orange" stroke="orange" points="56.5,-201.76 60,-211.76 63.5,-201.77 56.5,-201.76"/>
</a>
</g>
<text text-anchor="middle" x="96.5" y="-186" font-family="Ubuntu Mono" font-size="10.00" fill="grey"> &lt; T, ProcPtr &gt;</text>
</g>
<!-- Node2 -->
<g id="Node000002" class="node">
<title>Node2</title>
<g id="a_Node000002"><a xlink:href="classOpFunc1Base.html" target="_top" xlink:title=" ">
<polygon fill="white" stroke="transparent" points="113,-452 7,-452 7,-313 113,-313 113,-452"/>
<text text-anchor="start" x="12" y="-439.5" font-family="Ubuntu Mono" font-size="10.00">OpFunc1Base&lt; A &gt;</text>
<text text-anchor="start" x="58" y="-424.5" font-family="Ubuntu Mono" font-size="10.00"> </text>
<text text-anchor="start" x="13" y="-409.5" font-family="Ubuntu Mono" font-size="10.00">+</text>
<text text-anchor="start" x="28" y="-409.5" font-family="Ubuntu Mono" font-size="10.00">checkFinfo()</text>
<text text-anchor="start" x="13" y="-394.5" font-family="Ubuntu Mono" font-size="10.00">+</text>
<text text-anchor="start" x="28" y="-394.5" font-family="Ubuntu Mono" font-size="10.00">makeHopFunc()</text>
<text text-anchor="start" x="13" y="-379.5" font-family="Ubuntu Mono" font-size="10.00">+</text>
<text text-anchor="start" x="28" y="-379.5" font-family="Ubuntu Mono" font-size="10.00">op()</text>
<text text-anchor="start" x="13" y="-364.5" font-family="Ubuntu Mono" font-size="10.00">+</text>
<text text-anchor="start" x="28" y="-364.5" font-family="Ubuntu Mono" font-size="10.00">opBuffer()</text>
<text text-anchor="start" x="13" y="-349.5" font-family="Ubuntu Mono" font-size="10.00">+</text>
<text text-anchor="start" x="28" y="-349.5" font-family="Ubuntu Mono" font-size="10.00">opVec()</text>
<text text-anchor="start" x="13" y="-334.5" font-family="Ubuntu Mono" font-size="10.00">+</text>
<text text-anchor="start" x="28" y="-334.5" font-family="Ubuntu Mono" font-size="10.00">opVecBuffer()</text>
<text text-anchor="start" x="13" y="-319.5" font-family="Ubuntu Mono" font-size="10.00">+</text>
<text text-anchor="start" x="28" y="-319.5" font-family="Ubuntu Mono" font-size="10.00">rttiType()</text>
<polygon fill="#666666" stroke="#666666" points="7,-434.5 7,-434.5 113,-434.5 113,-434.5 7,-434.5"/>
<polygon fill="#666666" stroke="#666666" points="7,-419.5 7,-419.5 113,-419.5 113,-419.5 7,-419.5"/>
<polygon fill="none" stroke="#666666" points="7,-313 7,-452 113,-452 113,-313 7,-313"/>
</a>
</g>
</g>
<!-- Node2&#45;&gt;Node1 -->
<g id="edge1_Node000001_Node000002" class="edge">
<title>Node2&#45;&gt;Node1</title>
<g id="a_edge1_Node000001_Node000002"><a xlink:title=" ">
<path fill="none" stroke="#63b8ff" d="M60,-302.63C60,-293.27 60,-284.19 60,-276.1"/>
<polygon fill="none" stroke="#63b8ff" points="56.5,-302.85 60,-312.85 63.5,-302.85 56.5,-302.85"/>
</a>
</g>
</g>
<!-- Node3 -->
<g id="Node000003" class="node">
<title>Node3</title>
<g id="a_Node000003"><a xlink:href="classOpFunc.html" target="_top" xlink:title=" ">
<polygon fill="white" stroke="transparent" points="111.5,-703 8.5,-703 8.5,-489 111.5,-489 111.5,-703"/>
<text text-anchor="start" x="42" y="-691" font-family="Ubuntu Mono" font-size="10.00">OpFunc</text>
<text text-anchor="start" x="15.5" y="-676" font-family="Ubuntu Mono" font-size="10.00">&#45;</text>
<text text-anchor="start" x="26" y="-676" font-family="Ubuntu Mono" font-size="10.00">opIndex_</text>
<text text-anchor="start" x="13" y="-661" font-family="Ubuntu Mono" font-size="10.00">+</text>
<text text-anchor="start" x="26" y="-661" font-family="Ubuntu Mono" font-size="10.00">checkFinfo()</text>
<text text-anchor="start" x="13" y="-646" font-family="Ubuntu Mono" font-size="10.00">+</text>
<text text-anchor="start" x="26" y="-646" font-family="Ubuntu Mono" font-size="10.00">makeHopFunc()</text>
<text text-anchor="start" x="13" y="-631" font-family="Ubuntu Mono" font-size="10.00">+</text>
<text text-anchor="start" x="26" y="-631" font-family="Ubuntu Mono" font-size="10.00">opBuffer()</text>
<text text-anchor="start" x="13" y="-616" font-family="Ubuntu Mono" font-size="10.00">+</text>
<text text-anchor="start" x="26" y="-616" font-family="Ubuntu Mono" font-size="10.00">OpFunc()</text>
<text text-anchor="start" x="13" y="-601" font-family="Ubuntu Mono" font-size="10.00">+</text>
<text text-anchor="start" x="26" y="-601" font-family="Ubuntu Mono" font-size="10.00">opIndex()</text>
<text text-anchor="start" x="13" y="-586" font-family="Ubuntu Mono" font-size="10.00">+</text>
<text text-anchor="start" x="26" y="-586" font-family="Ubuntu Mono" font-size="10.00">opVecBuffer()</text>
<text text-anchor="start" x="13" y="-571" font-family="Ubuntu Mono" font-size="10.00">+</text>
<text text-anchor="start" x="26" y="-571" font-family="Ubuntu Mono" font-size="10.00">rttiType()</text>
<text text-anchor="start" x="13" y="-556" font-family="Ubuntu Mono" font-size="10.00">+</text>
<text text-anchor="start" x="26" y="-556" font-family="Ubuntu Mono" font-size="10.00">setIndex()</text>
<text text-anchor="start" x="13" y="-541" font-family="Ubuntu Mono" font-size="10.00">+</text>
<text text-anchor="start" x="26" y="-541" font-family="Ubuntu Mono" font-size="10.00">~OpFunc()</text>
<text text-anchor="start" x="13" y="-526" font-family="Ubuntu Mono" font-size="10.00">+</text>
<text text-anchor="start" x="26" y="-526" font-family="Ubuntu Mono" font-size="10.00">lookop()</text>
<text text-anchor="start" x="13" y="-511" font-family="Ubuntu Mono" font-size="10.00">+</text>
<text text-anchor="start" x="26" y="-511" font-family="Ubuntu Mono" font-size="10.00">rebuildOpIndex()</text>
<text text-anchor="start" x="15.5" y="-496" font-family="Ubuntu Mono" font-size="10.00">&#45;</text>
<text text-anchor="start" x="26" y="-496" font-family="Ubuntu Mono" font-size="10.00">ops()</text>
<polygon fill="#666666" stroke="#666666" points="9,-686 9,-686 112,-686 112,-686 9,-686"/>
<polygon fill="#666666" stroke="#666666" points="9,-671 9,-671 24,-671 24,-671 9,-671"/>
<polygon fill="#666666" stroke="#666666" points="24,-671 24,-671 112,-671 112,-671 24,-671"/>
<polygon fill="none" stroke="#666666" points="8.5,-489 8.5,-703 111.5,-703 111.5,-489 8.5,-489"/>
</a>
</g>
</g>
<!-- Node3&#45;&gt;Node2 -->
<g id="edge2_Node000002_Node000003" class="edge">
<title>Node3&#45;&gt;Node2</title>
<g id="a_edge2_Node000002_Node000003"><a xlink:title=" ">
<path fill="none" stroke="#63b8ff" d="M60,-478.73C60,-469.7 60,-460.79 60,-452.24"/>
<polygon fill="none" stroke="#63b8ff" points="56.5,-478.94 60,-488.94 63.5,-478.94 56.5,-478.94"/>
</a>
</g>
</g>
<!-- Node5 -->
<g id="Node000005" class="node">
<title>Node5</title>
<g id="a_Node000005"><a xlink:href="classProcOpFunc.html" target="_top" xlink:title=" ">
<polygon fill="white" stroke="transparent" points="108,-64 12,-64 12,0 108,0 108,-64"/>
<text text-anchor="start" x="17" y="-52" font-family="Ubuntu Mono" font-size="10.00">ProcOpFunc&lt; T &gt;</text>
<text text-anchor="start" x="58" y="-37" font-family="Ubuntu Mono" font-size="10.00"> </text>
<text text-anchor="start" x="18.5" y="-22" font-family="Ubuntu Mono" font-size="10.00">+</text>
<text text-anchor="start" x="34" y="-22" font-family="Ubuntu Mono" font-size="10.00">ProcOpFunc()</text>
<text text-anchor="start" x="18.5" y="-7" font-family="Ubuntu Mono" font-size="10.00">+</text>
<text text-anchor="start" x="34" y="-7" font-family="Ubuntu Mono" font-size="10.00">rttiType()</text>
<polygon fill="#666666" stroke="#666666" points="12,-47 12,-47 108,-47 108,-47 12,-47"/>
<polygon fill="#666666" stroke="#666666" points="12,-32 12,-32 108,-32 108,-32 12,-32"/>
<polygon fill="none" stroke="#666666" points="12,0 12,-64 108,-64 108,0 12,0"/>
</a>
</g>
</g>
<!-- Node4&#45;&gt;Node5 -->
<g id="edge4_Node000004_Node000005" class="edge">
<title>Node4&#45;&gt;Node5</title>
<g id="a_edge4_Node000004_Node000005"><a xlink:title=" ">
<path fill="none" stroke="#63b8ff" d="M60,-90.78C60,-81.92 60,-72.69 60,-64.28"/>
<polygon fill="none" stroke="#63b8ff" points="56.5,-90.95 60,-100.95 63.5,-90.95 56.5,-90.95"/>
</a>
</g>
</g>
</g>
</svg>
