<?xml version="1.0" encoding="UTF-8" standalone="no"?>
<!DOCTYPE svg PUBLIC "-//W3C//DTD SVG 1.1//EN"
 "http://www.w3.org/Graphics/SVG/1.1/DTD/svg11.dtd">
<!-- Generated by graphviz version 2.43.0 (0)
 -->
<!-- Title: Table Pages: 1 -->
<!--zoomable 902 -->

<svg id="main" version="1.1" xmlns="http://www.w3.org/2000/svg" xmlns:xlink="http://www.w3.org/1999/xlink" xml:space="preserve" onload="init(evt)">
<style type="text/css"><![CDATA[
.node, .edge {opacity: 0.7;}
.node.selected, .edge.selected {opacity: 1;}
.edge:hover path { stroke: red; }
.edge:hover polygon { stroke: red; fill: red; }
]]></style>

<defs>
  <circle id="rim" cx="0" cy="0" r="7"/>
  <circle id="rim2" cx="0" cy="0" r="3.5"/>
  <g id="zoomPlus">
    <use xlink:href="#rim" fill="#404040"><set attributeName="fill" to="#808080" begin="zoomplus.mouseover" end="zoomplus.mouseout"/></use>
    <path d="M-4,0h8M0,-4v8" fill="none" stroke="white" stroke-width="1.5" pointer-events="none"/>
  </g>
  <g id="zoomMin">
    <use xlink:href="#rim" fill="#404040"><set attributeName="fill" to="#808080" begin="zoomminus.mouseover" end="zoomminus.mouseout"/></use>
    <path d="M-4,0h8" fill="none" stroke="white" stroke-width="1.5" pointer-events="none"/>
  </g>
  <g id="arrowUp" transform="translate(30 24)">
    <use xlink:href="#rim"/>
    <path pointer-events="none" fill="none" stroke="white" stroke-width="1.5" d="M0,-3.0v7 M-2.5,-0.5L0,-3.0L2.5,-0.5"/>
  </g>
  <g id="arrowRight" transform="rotate(90) translate(36 -43)">
    <use xlink:href="#rim"/>
    <path pointer-events="none" fill="none" stroke="white" stroke-width="1.5" d="M0,-3.0v7 M-2.5,-0.5L0,-3.0L2.5,-0.5"/>
  </g>
  <g id="arrowDown" transform="rotate(180) translate(-30 -48)">
    <use xlink:href="#rim"/>
    <path pointer-events="none" fill="none" stroke="white" stroke-width="1.5" d="M0,-3.0v7 M-2.5,-0.5L0,-3.0L2.5,-0.5"/>
  </g>
  <g id="arrowLeft" transform="rotate(270) translate(-36 17)">
    <use xlink:href="#rim"/>
    <path pointer-events="none" fill="none" stroke="white" stroke-width="1.5" d="M0,-3.0v7 M-2.5,-0.5L0,-3.0L2.5,-0.5"/>
  </g>
  <g id="resetDef">
    <use xlink:href="#rim2" fill="#404040"><set attributeName="fill" to="#808080" begin="reset.mouseover" end="reset.mouseout"/></use>
  </g>
</defs>
<script type="application/ecmascript">
var viewWidth = 438;
var viewHeight = 902;
var sectionId = 'dynsection-1';
</script>
<script type="application/ecmascript" xlink:href="svg.min.js"/>
<svg id="graph" class="graph">
<g id="viewport">
<title>Table</title>
<!-- Node1 -->
<g id="Node000001" class="node">
<title>Node1</title>
<g id="a_Node000001"><a xlink:title=" ">
<polygon fill="#999999" stroke="transparent" points="320.15,-319 203.15,-319 203.15,0 320.15,0 320.15,-319"/>
<text text-anchor="start" x="249.15" y="-306.5" font-family="Ubuntu Mono" font-size="10.00">Table</text>
<text text-anchor="start" x="210.15" y="-291.5" font-family="Ubuntu Mono" font-size="10.00">&#45;</text>
<text text-anchor="start" x="220.65" y="-291.5" font-family="Ubuntu Mono" font-size="10.00">dt_</text>
<text text-anchor="start" x="210.15" y="-276.5" font-family="Ubuntu Mono" font-size="10.00">&#45;</text>
<text text-anchor="start" x="220.65" y="-276.5" font-family="Ubuntu Mono" font-size="10.00">fired_</text>
<text text-anchor="start" x="210.15" y="-261.5" font-family="Ubuntu Mono" font-size="10.00">&#45;</text>
<text text-anchor="start" x="220.65" y="-261.5" font-family="Ubuntu Mono" font-size="10.00">input_</text>
<text text-anchor="start" x="210.15" y="-246.5" font-family="Ubuntu Mono" font-size="10.00">&#45;</text>
<text text-anchor="start" x="220.65" y="-246.5" font-family="Ubuntu Mono" font-size="10.00">lastN_</text>
<text text-anchor="start" x="210.15" y="-231.5" font-family="Ubuntu Mono" font-size="10.00">&#45;</text>
<text text-anchor="start" x="220.65" y="-231.5" font-family="Ubuntu Mono" font-size="10.00">lastTime_</text>
<text text-anchor="start" x="210.15" y="-216.5" font-family="Ubuntu Mono" font-size="10.00">&#45;</text>
<text text-anchor="start" x="220.65" y="-216.5" font-family="Ubuntu Mono" font-size="10.00">threshold_</text>
<text text-anchor="start" x="210.15" y="-201.5" font-family="Ubuntu Mono" font-size="10.00">&#45;</text>
<text text-anchor="start" x="220.65" y="-201.5" font-family="Ubuntu Mono" font-size="10.00">useFileStreamer_</text>
<text text-anchor="start" x="210.15" y="-186.5" font-family="Ubuntu Mono" font-size="10.00">&#45;</text>
<text text-anchor="start" x="220.65" y="-186.5" font-family="Ubuntu Mono" font-size="10.00">useSpikeMode_</text>
<text text-anchor="start" x="207.65" y="-171.5" font-family="Ubuntu Mono" font-size="10.00">+</text>
<text text-anchor="start" x="220.65" y="-171.5" font-family="Ubuntu Mono" font-size="10.00">clearAllVecs()</text>
<text text-anchor="start" x="207.65" y="-156.5" font-family="Ubuntu Mono" font-size="10.00">+</text>
<text text-anchor="start" x="220.65" y="-156.5" font-family="Ubuntu Mono" font-size="10.00">collectData()</text>
<text text-anchor="start" x="207.65" y="-141.5" font-family="Ubuntu Mono" font-size="10.00">+</text>
<text text-anchor="start" x="220.65" y="-141.5" font-family="Ubuntu Mono" font-size="10.00">getColumnName()</text>
<text text-anchor="start" x="207.65" y="-126.5" font-family="Ubuntu Mono" font-size="10.00">+</text>
<text text-anchor="start" x="220.65" y="-126.5" font-family="Ubuntu Mono" font-size="10.00">getDatafile()</text>
<text text-anchor="start" x="207.65" y="-111.5" font-family="Ubuntu Mono" font-size="10.00">+</text>
<text text-anchor="start" x="220.65" y="-111.5" font-family="Ubuntu Mono" font-size="10.00">getDt()</text>
<text text-anchor="start" x="207.65" y="-96.5" font-family="Ubuntu Mono" font-size="10.00">+</text>
<text text-anchor="start" x="220.65" y="-96.5" font-family="Ubuntu Mono" font-size="10.00">getFormat()</text>
<text text-anchor="start" x="207.65" y="-81.5" font-family="Ubuntu Mono" font-size="10.00">+</text>
<text text-anchor="start" x="220.65" y="-81.5" font-family="Ubuntu Mono" font-size="10.00">getThreshold()</text>
<text text-anchor="start" x="207.65" y="-66.5" font-family="Ubuntu Mono" font-size="10.00">+</text>
<text text-anchor="start" x="220.65" y="-66.5" font-family="Ubuntu Mono" font-size="10.00">getUseSpikeMode()</text>
<text text-anchor="start" x="207.65" y="-51.5" font-family="Ubuntu Mono" font-size="10.00">+</text>
<text text-anchor="start" x="220.65" y="-51.5" font-family="Ubuntu Mono" font-size="10.00">getUseStreamer()</text>
<text text-anchor="start" x="207.65" y="-36.5" font-family="Ubuntu Mono" font-size="10.00">+</text>
<text text-anchor="start" x="220.65" y="-36.5" font-family="Ubuntu Mono" font-size="10.00">input()</text>
<text text-anchor="start" x="220.65" y="-21.5" font-family="Ubuntu Mono" font-size="10.00">and 14 more...</text>
<text text-anchor="start" x="207.65" y="-6.5" font-family="Ubuntu Mono" font-size="10.00">+</text>
<text text-anchor="start" x="220.65" y="-6.5" font-family="Ubuntu Mono" font-size="10.00">initCinfo()</text>
<polygon fill="#666666" stroke="#666666" points="203.65,-301.5 203.65,-301.5 320.65,-301.5 320.65,-301.5 203.65,-301.5"/>
<polygon fill="#666666" stroke="#666666" points="203.65,-181.5 203.65,-181.5 218.65,-181.5 218.65,-181.5 203.65,-181.5"/>
<polygon fill="#666666" stroke="#666666" points="218.65,-181.5 218.65,-181.5 320.65,-181.5 320.65,-181.5 218.65,-181.5"/>
<polygon fill="none" stroke="#666666" points="203.15,0 203.15,-319 320.15,-319 320.15,0 203.15,0"/>
</a>
</g>
</g>
<!-- Node2 -->
<g id="Node000002" class="node">
<title>Node2</title>
<g id="a_Node000002"><a xlink:href="classTableBase.html" target="_top" xlink:title=" ">
<polygon fill="white" stroke="transparent" points="364.15,-595 259.15,-595 259.15,-366 364.15,-366 364.15,-595"/>
<text text-anchor="start" x="287.15" y="-582.5" font-family="Ubuntu Mono" font-size="10.00">TableBase</text>
<text text-anchor="start" x="266.15" y="-567.5" font-family="Ubuntu Mono" font-size="10.00">&#45;</text>
<text text-anchor="start" x="276.65" y="-567.5" font-family="Ubuntu Mono" font-size="10.00">output_</text>
<text text-anchor="start" x="263.65" y="-552.5" font-family="Ubuntu Mono" font-size="10.00">+</text>
<text text-anchor="start" x="276.65" y="-552.5" font-family="Ubuntu Mono" font-size="10.00">clearVec()</text>
<text text-anchor="start" x="263.65" y="-537.5" font-family="Ubuntu Mono" font-size="10.00">+</text>
<text text-anchor="start" x="276.65" y="-537.5" font-family="Ubuntu Mono" font-size="10.00">compareVec()</text>
<text text-anchor="start" x="263.65" y="-522.5" font-family="Ubuntu Mono" font-size="10.00">+</text>
<text text-anchor="start" x="276.65" y="-522.5" font-family="Ubuntu Mono" font-size="10.00">compareXplot()</text>
<text text-anchor="start" x="263.65" y="-507.5" font-family="Ubuntu Mono" font-size="10.00">+</text>
<text text-anchor="start" x="276.65" y="-507.5" font-family="Ubuntu Mono" font-size="10.00">data()</text>
<text text-anchor="start" x="263.65" y="-492.5" font-family="Ubuntu Mono" font-size="10.00">+</text>
<text text-anchor="start" x="276.65" y="-492.5" font-family="Ubuntu Mono" font-size="10.00">getOutputValue()</text>
<text text-anchor="start" x="263.65" y="-477.5" font-family="Ubuntu Mono" font-size="10.00">+</text>
<text text-anchor="start" x="276.65" y="-477.5" font-family="Ubuntu Mono" font-size="10.00">getPlotDump()</text>
<text text-anchor="start" x="263.65" y="-462.5" font-family="Ubuntu Mono" font-size="10.00">+</text>
<text text-anchor="start" x="276.65" y="-462.5" font-family="Ubuntu Mono" font-size="10.00">getVecSize()</text>
<text text-anchor="start" x="263.65" y="-447.5" font-family="Ubuntu Mono" font-size="10.00">+</text>
<text text-anchor="start" x="276.65" y="-447.5" font-family="Ubuntu Mono" font-size="10.00">getVector()</text>
<text text-anchor="start" x="263.65" y="-432.5" font-family="Ubuntu Mono" font-size="10.00">+</text>
<text text-anchor="start" x="276.65" y="-432.5" font-family="Ubuntu Mono" font-size="10.00">getY()</text>
<text text-anchor="start" x="263.65" y="-417.5" font-family="Ubuntu Mono" font-size="10.00">+</text>
<text text-anchor="start" x="276.65" y="-417.5" font-family="Ubuntu Mono" font-size="10.00">interpolate()</text>
<text text-anchor="start" x="276.65" y="-402.5" font-family="Ubuntu Mono" font-size="10.00">and 12 more...</text>
<text text-anchor="start" x="263.65" y="-387.5" font-family="Ubuntu Mono" font-size="10.00">+</text>
<text text-anchor="start" x="276.65" y="-387.5" font-family="Ubuntu Mono" font-size="10.00">initCinfo()</text>
<text text-anchor="start" x="263.65" y="-372.5" font-family="Ubuntu Mono" font-size="10.00">#</text>
<text text-anchor="start" x="276.65" y="-372.5" font-family="Ubuntu Mono" font-size="10.00">vec()</text>
<polygon fill="#666666" stroke="#666666" points="259.65,-577.5 259.65,-577.5 364.65,-577.5 364.65,-577.5 259.65,-577.5"/>
<polygon fill="#666666" stroke="#666666" points="259.65,-562.5 259.65,-562.5 274.65,-562.5 274.65,-562.5 259.65,-562.5"/>
<polygon fill="#666666" stroke="#666666" points="274.65,-562.5 274.65,-562.5 364.65,-562.5 364.65,-562.5 274.65,-562.5"/>
<polygon fill="none" stroke="#666666" points="259.15,-366 259.15,-595 364.15,-595 364.15,-366 259.15,-366"/>
</a>
</g>
</g>
<!-- Node2&#45;&gt;Node1 -->
<g id="edge1_Node000001_Node000002" class="edge">
<title>Node2&#45;&gt;Node1</title>
<g id="a_edge1_Node000001_Node000002"><a xlink:title=" ">
<path fill="none" stroke="#63b8ff" d="M292.24,-355.68C290.36,-343.69 288.44,-331.41 286.52,-319.14"/>
<polygon fill="none" stroke="#63b8ff" points="288.81,-356.35 293.81,-365.68 295.72,-355.26 288.81,-356.35"/>
</a>
</g>
</g>
<!-- Node3 -->
<g id="Node000003" class="node">
<title>Node3</title>
<g id="a_Node000003"><a xlink:title=" ">
<polygon fill="white" stroke="transparent" points="374.65,-691 256.65,-691 256.65,-642 374.65,-642 374.65,-691"/>
<text text-anchor="start" x="261.65" y="-678.5" font-family="Ubuntu Mono" font-size="10.00">std::vector&lt; double &gt;</text>
<text text-anchor="start" x="273.15" y="-663.5" font-family="Ubuntu Mono" font-size="10.00">+</text>
<text text-anchor="start" x="298.65" y="-663.5" font-family="Ubuntu Mono" font-size="10.00">elements</text>
<text text-anchor="start" x="313.65" y="-648.5" font-family="Ubuntu Mono" font-size="10.00"> </text>
<polygon fill="#666666" stroke="#666666" points="256.65,-673.5 256.65,-673.5 374.65,-673.5 374.65,-673.5 256.65,-673.5"/>
<polygon fill="#666666" stroke="#666666" points="256.65,-658.5 256.65,-658.5 296.65,-658.5 296.65,-658.5 256.65,-658.5"/>
<polygon fill="#666666" stroke="#666666" points="296.65,-658.5 296.65,-658.5 374.65,-658.5 374.65,-658.5 296.65,-658.5"/>
<polygon fill="none" stroke="#666666" points="256.65,-642 256.65,-691 374.65,-691 374.65,-642 256.65,-642"/>
</a>
</g>
</g>
<!-- Node3&#45;&gt;Node1 -->
<g id="edge5_Node000001_Node000003" class="edge">
<title>Node3&#45;&gt;Node1</title>
<g id="a_edge5_Node000001_Node000003"><a xlink:title=" ">
<path fill="none" stroke="#63b8ff" d="M342.24,-641.79C354.31,-629.24 367.29,-612.75 373.65,-595 408,-499.19 398.78,-464.63 373.65,-366 363.97,-327.98 345.65,-289.41 326.6,-256.11"/>
<polygon fill="none" stroke="#63b8ff" points="326.45,-255.86 319.97,-252.69 320.4,-245.49 326.88,-248.66 326.45,-255.86"/>
</a>
</g>
<text text-anchor="middle" x="412.65" y="-483.5" font-family="Ubuntu Mono" font-size="10.00" fill="grey"> &#45;data_</text>
<text text-anchor="middle" x="412.65" y="-472.5" font-family="Ubuntu Mono" font-size="10.00" fill="grey">&#45;tvec_</text>
</g>
<!-- Node3&#45;&gt;Node2 -->
<g id="edge2_Node000002_Node000003" class="edge">
<title>Node3&#45;&gt;Node2</title>
<g id="a_edge2_Node000002_Node000003"><a xlink:title=" ">
<path fill="none" stroke="#63b8ff" d="M315.14,-641.82C314.93,-632.24 314.67,-620.38 314.39,-607.49"/>
<polygon fill="none" stroke="#63b8ff" points="314.39,-607.4 310.26,-601.48 314.13,-595.4 318.26,-601.31 314.39,-607.4"/>
</a>
</g>
<text text-anchor="middle" x="329.15" y="-616" font-family="Ubuntu Mono" font-size="10.00" fill="grey"> &#45;vec_</text>
</g>
<!-- Node4 -->
<g id="Node000004" class="node">
<title>Node4</title>
<g id="a_Node000004"><a xlink:title=" ">
<polygon fill="white" stroke="transparent" points="253.15,-792.5 162.15,-792.5 162.15,-743.5 253.15,-743.5 253.15,-792.5"/>
<text text-anchor="start" x="167.65" y="-780" font-family="Ubuntu Mono" font-size="10.00">std::vector&lt; T &gt;</text>
<text text-anchor="start" x="206.15" y="-765" font-family="Ubuntu Mono" font-size="10.00"> </text>
<text text-anchor="start" x="206.15" y="-750" font-family="Ubuntu Mono" font-size="10.00"> </text>
<polygon fill="#666666" stroke="#666666" points="162.65,-775 162.65,-775 253.65,-775 253.65,-775 162.65,-775"/>
<polygon fill="#666666" stroke="#666666" points="162.65,-760 162.65,-760 253.65,-760 253.65,-760 162.65,-760"/>
<polygon fill="none" stroke="#666666" points="162.15,-743.5 162.15,-792.5 253.15,-792.5 253.15,-743.5 162.15,-743.5"/>
</a>
</g>
</g>
<!-- Node4&#45;&gt;Node3 -->
<g id="edge3_Node000003_Node000004" class="edge">
<title>Node4&#45;&gt;Node3</title>
<g id="a_edge3_Node000003_Node000004"><a xlink:title=" ">
<path fill="none" stroke="orange" d="M240.74,-736.51C256.53,-721.97 275.15,-704.82 289.87,-691.26"/>
<polygon fill="orange" stroke="orange" points="238.23,-734.07 233.25,-743.42 242.97,-739.22 238.23,-734.07"/>
</a>
</g>
<text text-anchor="middle" x="297.15" y="-712" font-family="Ubuntu Mono" font-size="10.00" fill="grey"> &lt; double &gt;</text>
</g>
<!-- Node6 -->
<g id="Node000006" class="node">
<title>Node6</title>
<g id="a_Node000006"><a xlink:title=" ">
<polygon fill="white" stroke="transparent" points="241.15,-505 128.15,-505 128.15,-456 241.15,-456 241.15,-505"/>
<text text-anchor="start" x="133.65" y="-492.5" font-family="Ubuntu Mono" font-size="10.00">std::vector&lt; string &gt;</text>
<text text-anchor="start" x="183.15" y="-477.5" font-family="Ubuntu Mono" font-size="10.00"> </text>
<text text-anchor="start" x="183.15" y="-462.5" font-family="Ubuntu Mono" font-size="10.00"> </text>
<polygon fill="#666666" stroke="#666666" points="128.65,-487.5 128.65,-487.5 241.65,-487.5 241.65,-487.5 128.65,-487.5"/>
<polygon fill="#666666" stroke="#666666" points="128.65,-472.5 128.65,-472.5 241.65,-472.5 241.65,-472.5 128.65,-472.5"/>
<polygon fill="none" stroke="#666666" points="128.15,-456 128.15,-505 241.15,-505 241.15,-456 128.15,-456"/>
</a>
</g>
</g>
<!-- Node4&#45;&gt;Node6 -->
<g id="edge9_Node000006_Node000004" class="edge">
<title>Node4&#45;&gt;Node6</title>
<g id="a_edge9_Node000006_Node000004"><a xlink:title=" ">
<path fill="none" stroke="orange" d="M200.38,-733.16C197.83,-720.05 195.22,-704.89 193.65,-691 186.07,-623.9 184.75,-544.04 184.6,-505.15"/>
<polygon fill="orange" stroke="orange" points="196.98,-734.05 202.38,-743.17 203.85,-732.67 196.98,-734.05"/>
</a>
</g>
<text text-anchor="middle" x="220.65" y="-664" font-family="Ubuntu Mono" font-size="10.00" fill="grey"> &lt; string &gt;</text>
</g>
<!-- Node5 -->
<g id="Node000005" class="node">
<title>Node5</title>
<g id="a_Node000005"><a xlink:title=" ">
<polygon fill="white" stroke="transparent" points="216.15,-894 199.15,-894 199.15,-845 216.15,-845 216.15,-894"/>
<text text-anchor="start" x="204.65" y="-881.5" font-family="Ubuntu Mono" font-size="10.00">T</text>
<text text-anchor="start" x="206.15" y="-866.5" font-family="Ubuntu Mono" font-size="10.00"> </text>
<text text-anchor="start" x="206.15" y="-851.5" font-family="Ubuntu Mono" font-size="10.00"> </text>
<polygon fill="#666666" stroke="#666666" points="199.65,-876.5 199.65,-876.5 216.65,-876.5 216.65,-876.5 199.65,-876.5"/>
<polygon fill="#666666" stroke="#666666" points="199.65,-861.5 199.65,-861.5 216.65,-861.5 216.65,-861.5 199.65,-861.5"/>
<polygon fill="none" stroke="#666666" points="199.15,-845 199.15,-894 216.15,-894 216.15,-845 199.15,-845"/>
</a>
</g>
</g>
<!-- Node5&#45;&gt;Node4 -->
<g id="edge4_Node000004_Node000005" class="edge">
<title>Node5&#45;&gt;Node4</title>
<g id="a_edge4_Node000004_Node000005"><a xlink:title=" ">
<path fill="none" stroke="#63b8ff" d="M207.65,-844.92C207.65,-832.99 207.65,-818.25 207.65,-804.94"/>
<polygon fill="none" stroke="#63b8ff" points="207.65,-804.76 203.65,-798.76 207.65,-792.76 211.65,-798.76 207.65,-804.76"/>
</a>
</g>
<text text-anchor="middle" x="236.65" y="-819" font-family="Ubuntu Mono" font-size="10.00" fill="grey"> +elements</text>
</g>
<!-- Node6&#45;&gt;Node1 -->
<g id="edge6_Node000001_Node000006" class="edge">
<title>Node6&#45;&gt;Node1</title>
<g id="a_edge6_Node000001_Node000006"><a xlink:title=" ">
<path fill="none" stroke="#63b8ff" d="M190.38,-455.78C197.01,-428.31 208.55,-380.49 220.44,-331.23"/>
<polygon fill="none" stroke="#63b8ff" points="220.49,-331.03 218.01,-324.26 223.31,-319.36 225.79,-326.13 220.49,-331.03"/>
</a>
</g>
<text text-anchor="middle" x="244.65" y="-340" font-family="Ubuntu Mono" font-size="10.00" fill="grey"> &#45;columns_</text>
</g>
<!-- Node7 -->
<g id="Node000007" class="node">
<title>Node7</title>
<g id="a_Node000007"><a xlink:title=" ">
<polygon fill="white" stroke="transparent" points="79.15,-691 20.15,-691 20.15,-642 79.15,-642 79.15,-691"/>
<text text-anchor="start" x="25.65" y="-678.5" font-family="Ubuntu Mono" font-size="10.00">std::string</text>
<text text-anchor="start" x="48.15" y="-663.5" font-family="Ubuntu Mono" font-size="10.00"> </text>
<text text-anchor="start" x="48.15" y="-648.5" font-family="Ubuntu Mono" font-size="10.00"> </text>
<polygon fill="#666666" stroke="#666666" points="20.65,-673.5 20.65,-673.5 79.65,-673.5 79.65,-673.5 20.65,-673.5"/>
<polygon fill="#666666" stroke="#666666" points="20.65,-658.5 20.65,-658.5 79.65,-658.5 79.65,-658.5 20.65,-658.5"/>
<polygon fill="none" stroke="#666666" points="20.15,-642 20.15,-691 79.15,-691 79.15,-642 20.15,-642"/>
</a>
</g>
</g>
<!-- Node7&#45;&gt;Node1 -->
<g id="edge10_Node000001_Node000007" class="edge">
<title>Node7&#45;&gt;Node1</title>
<g id="a_edge10_Node000001_Node000007"><a xlink:title=" ">
<path fill="none" stroke="#63b8ff" d="M38.58,-641.94C32.88,-628.51 26.54,-611.18 23.65,-595 5.77,-494.81 -18.71,-458.54 23.65,-366 58.14,-290.65 135.41,-232.4 192.6,-197.47"/>
<polygon fill="none" stroke="#63b8ff" points="192.74,-197.39 195.83,-190.87 203.03,-191.22 199.94,-197.74 192.74,-197.39"/>
</a>
</g>
<text text-anchor="middle" x="71.65" y="-500" font-family="Ubuntu Mono" font-size="10.00" fill="grey"> &#45;datafile_</text>
<text text-anchor="middle" x="71.65" y="-489" font-family="Ubuntu Mono" font-size="10.00" fill="grey">&#45;format_</text>
<text text-anchor="start" x="23.65" y="-478" font-family="Ubuntu Mono" font-size="10.00" fill="grey">&#45;tableColumnName</text>
<text text-anchor="middle" x="71.65" y="-467" font-family="Ubuntu Mono" font-size="10.00" fill="grey">_</text>
<text text-anchor="middle" x="71.65" y="-456" font-family="Ubuntu Mono" font-size="10.00" fill="grey">&#45;tablePath_</text>
</g>
<!-- Node7&#45;&gt;Node6 -->
<g id="edge7_Node000006_Node000007" class="edge">
<title>Node7&#45;&gt;Node6</title>
<g id="a_edge7_Node000006_Node000007"><a xlink:title=" ">
<path fill="none" stroke="#63b8ff" d="M72.98,-641.95C85.63,-628.67 101.18,-611.47 113.65,-595 132.82,-569.68 151.76,-539.05 165.24,-516"/>
<polygon fill="none" stroke="#63b8ff" points="165.4,-515.73 164.94,-508.54 171.4,-505.35 171.86,-512.54 165.4,-515.73"/>
</a>
</g>
<text text-anchor="middle" x="127.65" y="-616" font-family="Ubuntu Mono" font-size="10.00" fill="grey"> +elements</text>
</g>
<!-- Node8 -->
<g id="Node000008" class="node">
<title>Node8</title>
<g id="a_Node000008"><a xlink:title=" ">
<polygon fill="white" stroke="transparent" points="98.65,-798 0.65,-798 0.65,-738 98.65,-738 98.65,-798"/>
<text text-anchor="start" x="5.65" y="-786" font-family="Ubuntu Mono" font-size="10.00">std::basic_string&lt;</text>
<text text-anchor="start" x="31.15" y="-775" font-family="Ubuntu Mono" font-size="10.00"> Char &gt;</text>
<text text-anchor="start" x="47.65" y="-760" font-family="Ubuntu Mono" font-size="10.00"> </text>
<text text-anchor="start" x="47.65" y="-745" font-family="Ubuntu Mono" font-size="10.00"> </text>
<polygon fill="#666666" stroke="#666666" points="0.65,-770 0.65,-770 98.65,-770 98.65,-770 0.65,-770"/>
<polygon fill="#666666" stroke="#666666" points="0.65,-755 0.65,-755 98.65,-755 98.65,-755 0.65,-755"/>
<polygon fill="none" stroke="#666666" points="0.65,-738 0.65,-798 98.65,-798 98.65,-738 0.65,-738"/>
</a>
</g>
</g>
<!-- Node8&#45;&gt;Node7 -->
<g id="edge8_Node000007_Node000008" class="edge">
<title>Node8&#45;&gt;Node7</title>
<g id="a_edge8_Node000007_Node000008"><a xlink:title=" ">
<path fill="none" stroke="#63b8ff" d="M49.65,-727.8C49.65,-715.38 49.65,-702.03 49.65,-691.06"/>
<polygon fill="none" stroke="#63b8ff" points="46.15,-727.95 49.65,-737.95 53.15,-727.95 46.15,-727.95"/>
</a>
</g>
</g>
</g>
</svg>

<g id="navigator" transform="translate(0 0)" fill="#404254">
  <rect fill="#f2f5e9" fill-opacity="0.5" stroke="#606060" stroke-width=".5" x="0" y="0" width="60" height="60"/>
  <use id="zoomplus" xlink:href="#zoomPlus" x="17" y="9" onmousedown="handleZoom(evt,'in')"/>
  <use id="zoomminus" xlink:href="#zoomMin" x="42" y="9" onmousedown="handleZoom(evt,'out')"/>
  <use id="reset" xlink:href="#resetDef" x="30" y="36" onmousedown="handleReset()"/>
   <use id="arrowup" xlink:href="#arrowUp" x="0" y="0" onmousedown="handlePan(0,-1)"/>
  <use id="arrowright" xlink:href="#arrowRight" x="0" y="0" onmousedown="handlePan(1,0)"/>
  <use id="arrowdown" xlink:href="#arrowDown" x="0" y="0" onmousedown="handlePan(0,1)"/>
  <use id="arrowleft" xlink:href="#arrowLeft" x="0" y="0" onmousedown="handlePan(-1,0)"/>
</g>
<svg viewBox="0 0 15 15" width="100%" height="30px" preserveAspectRatio="xMaxYMin meet">
 <g id="arrow_out" transform="scale(0.3 0.3)">
  <a xlink:href="classTable__coll__graph_org.svg" target="_base">
   <rect id="button" ry="5" rx="5" y="6" x="6" height="38" width="38"
        fill="#f2f5e9" fill-opacity="0.5" stroke="#606060" stroke-width="1.0"/>
   <path id="arrow"
     d="M 11.500037,31.436501 C 11.940474,20.09759 22.043105,11.32322 32.158766,21.979434 L 37.068811,17.246167 C 37.068811,17.246167 37.088388,32 37.088388,32 L 22.160133,31.978069 C 22.160133,31.978069 26.997745,27.140456 26.997745,27.140456 C 18.528582,18.264221 13.291696,25.230495 11.500037,31.436501 z"
     style="fill:#404040;"/>
  </a>
 </g>
</svg>

<style type='text/css'>
<![CDATA[
[data-mouse-over-selected='false'] { opacity: 0.7; }
[data-mouse-over-selected='true']  { opacity: 1.0; }
]]>
</style>
<script type="application/ecmascript"><![CDATA[
document.addEventListener('DOMContentLoaded', (event) => {
  highlightEdges();
  highlightAdjacentNodes();
});
]]></script>
</svg>
