<?xml version="1.0" encoding="UTF-8" standalone="no"?>
<!DOCTYPE svg PUBLIC "-//W3C//DTD SVG 1.1//EN"
 "http://www.w3.org/Graphics/SVG/1.1/DTD/svg11.dtd">
<!-- Generated by graphviz version 2.43.0 (0)
 -->
<!-- Title: KsolveBase::notifyAddPool Pages: 1 -->
<svg width="691pt" height="101pt"
 viewBox="0.00 0.00 691.00 101.00" xmlns="http://www.w3.org/2000/svg" xmlns:xlink="http://www.w3.org/1999/xlink">
<g id="graph0" class="graph" transform="scale(1 1) rotate(0) translate(4 97)">
<title>KsolveBase::notifyAddPool</title>
<!-- Node1 -->
<g id="Node000001" class="node">
<title>Node1</title>
<g id="a_Node000001"><a xlink:title=" ">
<polygon fill="#999999" stroke="#666666" points="683,-56 536,-56 536,-37 683,-37 683,-56"/>
<text text-anchor="middle" x="609.5" y="-44" font-family="Ubuntu Mono" font-size="10.00">KsolveBase::notifyAddPool</text>
</a>
</g>
</g>
<!-- Node2 -->
<g id="Node000002" class="node">
<title>Node2</title>
<g id="a_Node000002"><a xlink:href="classPoolBase.html#addb687802ffdeff7509160dbfbf9de5a" target="_top" xlink:title=" ">
<polygon fill="white" stroke="#666666" points="496,-93 376,-93 376,-74 496,-74 496,-93"/>
<text text-anchor="middle" x="436" y="-81" font-family="Ubuntu Mono" font-size="10.00">PoolBase::notifyCopy</text>
</a>
</g>
</g>
<!-- Node1&#45;&gt;Node2 -->
<g id="edge1_Node000001_Node000002" class="edge">
<title>Node1&#45;&gt;Node2</title>
<g id="a_edge1_Node000001_Node000002"><a xlink:title=" ">
<path fill="none" stroke="#63b8ff" d="M554.49,-58.15C530.93,-63.23 503.65,-69.12 481.31,-73.94"/>
<polygon fill="#63b8ff" stroke="#63b8ff" points="555.3,-61.56 564.33,-56.03 553.82,-54.72 555.3,-61.56"/>
</a>
</g>
</g>
<!-- Node6 -->
<g id="Node000006" class="node">
<title>Node6</title>
<g id="a_Node000006"><a xlink:href="classPoolBase.html#afa54bfc9e30aab8c3e1ac9deb8df617d" target="_top" xlink:title=" ">
<polygon fill="white" stroke="#666666" points="500,-56 372,-56 372,-37 500,-37 500,-56"/>
<text text-anchor="middle" x="436" y="-44" font-family="Ubuntu Mono" font-size="10.00">PoolBase::notifyCreate</text>
</a>
</g>
</g>
<!-- Node1&#45;&gt;Node6 -->
<g id="edge5_Node000001_Node000006" class="edge">
<title>Node1&#45;&gt;Node6</title>
<g id="a_edge5_Node000001_Node000006"><a xlink:title=" ">
<path fill="none" stroke="#63b8ff" d="M525.69,-46.5C517.08,-46.5 508.43,-46.5 500.08,-46.5"/>
<polygon fill="#63b8ff" stroke="#63b8ff" points="525.77,-50 535.77,-46.5 525.77,-43 525.77,-50"/>
</a>
</g>
</g>
<!-- Node7 -->
<g id="Node000007" class="node">
<title>Node7</title>
<g id="a_Node000007"><a xlink:href="classPoolBase.html#a31ca4d8f4eb21dc21027f93698cd5fdb" target="_top" xlink:title=" ">
<polygon fill="white" stroke="#666666" points="495.5,-19 376.5,-19 376.5,0 495.5,0 495.5,-19"/>
<text text-anchor="middle" x="436" y="-7" font-family="Ubuntu Mono" font-size="10.00">PoolBase::setSolvers</text>
</a>
</g>
</g>
<!-- Node1&#45;&gt;Node7 -->
<g id="edge7_Node000001_Node000007" class="edge">
<title>Node1&#45;&gt;Node7</title>
<g id="a_edge7_Node000001_Node000007"><a xlink:title=" ">
<path fill="none" stroke="#63b8ff" d="M554.49,-34.85C530.93,-29.77 503.65,-23.88 481.31,-19.06"/>
<polygon fill="#63b8ff" stroke="#63b8ff" points="553.82,-38.28 564.33,-36.97 555.3,-31.44 553.82,-38.28"/>
</a>
</g>
</g>
<!-- Node3 -->
<g id="Node000003" class="node">
<title>Node3</title>
<g id="a_Node000003"><a xlink:href="classPoolBase.html#ab1f8c9dd618b024f576b9cfb9872ac41" target="_top" xlink:title=" ">
<polygon fill="white" stroke="#666666" points="336,-56 182,-56 182,-37 336,-37 336,-56"/>
<text text-anchor="middle" x="259" y="-44" font-family="Ubuntu Mono" font-size="10.00">PoolBase::initPoolBaseCinfo</text>
</a>
</g>
</g>
<!-- Node2&#45;&gt;Node3 -->
<g id="edge2_Node000002_Node000003" class="edge">
<title>Node2&#45;&gt;Node3</title>
<g id="a_edge2_Node000002_Node000003"><a xlink:title=" ">
<path fill="none" stroke="#63b8ff" d="M379.89,-71.85C355.85,-66.77 328.01,-60.88 305.22,-56.06"/>
<polygon fill="#63b8ff" stroke="#63b8ff" points="379.43,-75.33 389.93,-73.97 380.87,-68.48 379.43,-75.33"/>
</a>
</g>
</g>
<!-- Node4 -->
<g id="Node000004" class="node">
<title>Node4</title>
<g id="a_Node000004"><a xlink:href="classPoolBase.html#aa1dccbc9ddb85bc4be60826c59ae5fd5" target="_top" xlink:title=" ">
<polygon fill="white" stroke="#666666" points="146,-75 0,-75 0,-56 146,-56 146,-75"/>
<text text-anchor="middle" x="73" y="-63" font-family="Ubuntu Mono" font-size="10.00">PoolBase::initBufPoolCinfo</text>
</a>
</g>
</g>
<!-- Node3&#45;&gt;Node4 -->
<g id="edge3_Node000003_Node000004" class="edge">
<title>Node3&#45;&gt;Node4</title>
<g id="a_edge3_Node000003_Node000004"><a xlink:title=" ">
<path fill="none" stroke="#63b8ff" d="M171.84,-55.4C163.28,-56.28 154.66,-57.17 146.27,-58.04"/>
<polygon fill="#63b8ff" stroke="#63b8ff" points="172.24,-58.87 181.83,-54.37 171.53,-51.91 172.24,-58.87"/>
</a>
</g>
</g>
<!-- Node5 -->
<g id="Node000005" class="node">
<title>Node5</title>
<g id="a_Node000005"><a xlink:href="classPoolBase.html#ac24e395c1def55e706526d5031e8f528" target="_top" xlink:title=" ">
<polygon fill="white" stroke="#666666" points="138,-38 8,-38 8,-19 138,-19 138,-38"/>
<text text-anchor="middle" x="73" y="-26" font-family="Ubuntu Mono" font-size="10.00">PoolBase::initPoolCinfo</text>
</a>
</g>
</g>
<!-- Node3&#45;&gt;Node5 -->
<g id="edge4_Node000003_Node000005" class="edge">
<title>Node3&#45;&gt;Node5</title>
<g id="a_edge4_Node000003_Node000005"><a xlink:title=" ">
<path fill="none" stroke="#63b8ff" d="M171.54,-38.04C160.28,-36.94 148.91,-35.83 138.11,-34.77"/>
<polygon fill="#63b8ff" stroke="#63b8ff" points="171.54,-41.56 181.83,-39.05 172.22,-34.59 171.54,-41.56"/>
</a>
</g>
</g>
<!-- Node6&#45;&gt;Node3 -->
<g id="edge6_Node000006_Node000003" class="edge">
<title>Node6&#45;&gt;Node3</title>
<g id="a_edge6_Node000006_Node000003"><a xlink:title=" ">
<path fill="none" stroke="#63b8ff" d="M361.67,-46.5C353.26,-46.5 344.67,-46.5 336.22,-46.5"/>
<polygon fill="#63b8ff" stroke="#63b8ff" points="361.82,-50 371.82,-46.5 361.82,-43 361.82,-50"/>
</a>
</g>
</g>
<!-- Node7&#45;&gt;Node3 -->
<g id="edge8_Node000007_Node000003" class="edge">
<title>Node7&#45;&gt;Node3</title>
<g id="a_edge8_Node000007_Node000003"><a xlink:title=" ">
<path fill="none" stroke="#63b8ff" d="M379.89,-21.15C355.85,-26.23 328.01,-32.12 305.22,-36.94"/>
<polygon fill="#63b8ff" stroke="#63b8ff" points="380.87,-24.52 389.93,-19.03 379.43,-17.67 380.87,-24.52"/>
</a>
</g>
</g>
</g>
</svg>
