<?xml version="1.0" encoding="UTF-8" standalone="no"?>
<!DOCTYPE svg PUBLIC "-//W3C//DTD SVG 1.1//EN"
 "http://www.w3.org/Graphics/SVG/1.1/DTD/svg11.dtd">
<!-- Generated by graphviz version 2.43.0 (0)
 -->
<!-- Title: OpFunc::ops Pages: 1 -->
<svg width="669pt" height="138pt"
 viewBox="0.00 0.00 669.00 138.00" xmlns="http://www.w3.org/2000/svg" xmlns:xlink="http://www.w3.org/1999/xlink">
<g id="graph0" class="graph" transform="scale(1 1) rotate(0) translate(4 134)">
<title>OpFunc::ops</title>
<!-- Node1 -->
<g id="Node000001" class="node">
<title>Node1</title>
<g id="a_Node000001"><a xlink:title=" ">
<polygon fill="#999999" stroke="#666666" points="661,-74 585,-74 585,-55 661,-55 661,-74"/>
<text text-anchor="middle" x="623" y="-62" font-family="Ubuntu Mono" font-size="10.00">OpFunc::ops</text>
</a>
</g>
</g>
<!-- Node2 -->
<g id="Node000002" class="node">
<title>Node2</title>
<g id="a_Node000002"><a xlink:href="classOpFunc.html#a18f3647377647acf0e7c5720eb1784c5" target="_top" xlink:title=" ">
<polygon fill="white" stroke="#666666" points="528,-130 437,-130 437,-111 528,-111 528,-130"/>
<text text-anchor="middle" x="482.5" y="-118" font-family="Ubuntu Mono" font-size="10.00">OpFunc::lookop</text>
</a>
</g>
</g>
<!-- Node1&#45;&gt;Node2 -->
<g id="edge1_Node000001_Node000002" class="edge">
<title>Node1&#45;&gt;Node2</title>
<g id="a_edge1_Node000001_Node000002"><a xlink:title=" ">
<path fill="none" stroke="#63b8ff" d="M597.05,-79.17C583.22,-86.86 565.53,-96.01 549,-102.5 540.88,-105.69 531.98,-108.54 523.43,-110.98"/>
<polygon fill="#63b8ff" stroke="#63b8ff" points="598.97,-82.1 605.94,-74.13 595.51,-76.01 598.97,-82.1"/>
</a>
</g>
</g>
<!-- Node3 -->
<g id="Node000003" class="node">
<title>Node3</title>
<g id="a_Node000003"><a xlink:href="classOpFunc.html#ab05a9c94927b438a01e1afa2fe42f984" target="_top" xlink:title=" ">
<polygon fill="white" stroke="#666666" points="530,-93 435,-93 435,-74 530,-74 530,-93"/>
<text text-anchor="middle" x="482.5" y="-81" font-family="Ubuntu Mono" font-size="10.00">OpFunc::OpFunc</text>
</a>
</g>
</g>
<!-- Node1&#45;&gt;Node3 -->
<g id="edge2_Node000001_Node000003" class="edge">
<title>Node1&#45;&gt;Node3</title>
<g id="a_edge2_Node000001_Node000003"><a xlink:title=" ">
<path fill="none" stroke="#63b8ff" d="M574.69,-70.99C560.3,-72.96 544.5,-75.13 530.15,-77.1"/>
<polygon fill="#63b8ff" stroke="#63b8ff" points="575.45,-74.42 584.88,-69.59 574.5,-67.48 575.45,-74.42"/>
</a>
</g>
</g>
<!-- Node4 -->
<g id="Node000004" class="node">
<title>Node4</title>
<g id="a_Node000004"><a xlink:href="classOpFunc.html#a7cd6908ea3ddf977b9b8dbe1a2ab509a" target="_top" xlink:title="cleans out the entire Ops vector. Returns size of orig vector.">
<polygon fill="white" stroke="#666666" points="549,-56 416,-56 416,-37 549,-37 549,-56"/>
<text text-anchor="middle" x="482.5" y="-44" font-family="Ubuntu Mono" font-size="10.00">OpFunc::rebuildOpIndex</text>
</a>
</g>
</g>
<!-- Node1&#45;&gt;Node4 -->
<g id="edge3_Node000001_Node000004" class="edge">
<title>Node1&#45;&gt;Node4</title>
<g id="a_edge3_Node000001_Node000004"><a xlink:title=" ">
<path fill="none" stroke="#63b8ff" d="M574.71,-58.35C566.44,-57.28 557.71,-56.14 549.06,-55.02"/>
<polygon fill="#63b8ff" stroke="#63b8ff" points="574.52,-61.86 584.88,-59.68 575.42,-54.92 574.52,-61.86"/>
</a>
</g>
</g>
<!-- Node10 -->
<g id="Node000010" class="node">
<title>Node10</title>
<g id="a_Node000010"><a xlink:href="classOpFunc.html#aeec8dec980a2fa4ee025446dbdff8a8f" target="_top" xlink:title="Used when rebuilding the Fid&#45;&gt;OpFunc mapping.">
<polygon fill="white" stroke="#666666" points="533,-19 432,-19 432,0 533,0 533,-19"/>
<text text-anchor="middle" x="482.5" y="-7" font-family="Ubuntu Mono" font-size="10.00">OpFunc::setIndex</text>
</a>
</g>
</g>
<!-- Node1&#45;&gt;Node10 -->
<g id="edge9_Node000001_Node000010" class="edge">
<title>Node1&#45;&gt;Node10</title>
<g id="a_edge9_Node000001_Node000010"><a xlink:title=" ">
<path fill="none" stroke="#63b8ff" d="M595.83,-50.2C582.14,-43.08 564.95,-34.69 549,-28.5 539.95,-24.99 529.98,-21.77 520.6,-19.03"/>
<polygon fill="#63b8ff" stroke="#63b8ff" points="594.21,-53.3 604.69,-54.88 597.48,-47.11 594.21,-53.3"/>
</a>
</g>
</g>
<!-- Node5 -->
<g id="Node000005" class="node">
<title>Node5</title>
<g id="a_Node000005"><a xlink:href="classCinfo.html#a7a50578faef13fda39a40158bcb181ae" target="_top" xlink:title=" ">
<polygon fill="white" stroke="#666666" points="380,-37 258,-37 258,-18 380,-18 380,-37"/>
<text text-anchor="middle" x="319" y="-25" font-family="Ubuntu Mono" font-size="10.00">Cinfo::rebuildOpIndex</text>
</a>
</g>
</g>
<!-- Node4&#45;&gt;Node5 -->
<g id="edge4_Node000004_Node000005" class="edge">
<title>Node4&#45;&gt;Node5</title>
<g id="a_edge4_Node000004_Node000005"><a xlink:title=" ">
<path fill="none" stroke="#63b8ff" d="M405.78,-37.59C397.19,-36.58 388.52,-35.56 380.17,-34.58"/>
<polygon fill="#63b8ff" stroke="#63b8ff" points="405.47,-41.08 415.81,-38.77 406.29,-34.13 405.47,-41.08"/>
</a>
</g>
</g>
<!-- Node6 -->
<g id="Node000006" class="node">
<title>Node6</title>
<g id="a_Node000006"><a xlink:href="main_8cpp.html#a6e304b494f9a324f952d9f2033b2b136" target="_top" xlink:title=" ">
<polygon fill="white" stroke="#666666" points="184.5,-56 152.5,-56 152.5,-37 184.5,-37 184.5,-56"/>
<text text-anchor="middle" x="168.5" y="-44" font-family="Ubuntu Mono" font-size="10.00">init</text>
</a>
</g>
</g>
<!-- Node5&#45;&gt;Node6 -->
<g id="edge5_Node000005_Node000006" class="edge">
<title>Node5&#45;&gt;Node6</title>
<g id="a_edge5_Node000005_Node000006"><a xlink:title=" ">
<path fill="none" stroke="#63b8ff" d="M247.51,-36.52C223.84,-39.55 199.66,-42.64 184.63,-44.56"/>
<polygon fill="#63b8ff" stroke="#63b8ff" points="248.12,-39.97 257.6,-35.23 247.24,-33.03 248.12,-39.97"/>
</a>
</g>
</g>
<!-- Node8 -->
<g id="Node000008" class="node">
<title>Node8</title>
<g id="a_Node000008"><a xlink:href="namespacepymoose.html#ac084ce08f68367317e7c014c61520ac9" target="_top" xlink:title="Initialize shell object.">
<polygon fill="white" stroke="#666666" points="222,-19 115,-19 115,0 222,0 222,-19"/>
<text text-anchor="middle" x="168.5" y="-7" font-family="Ubuntu Mono" font-size="10.00">pymoose::initShell</text>
</a>
</g>
</g>
<!-- Node5&#45;&gt;Node8 -->
<g id="edge7_Node000005_Node000008" class="edge">
<title>Node5&#45;&gt;Node8</title>
<g id="a_edge7_Node000005_Node000008"><a xlink:title=" ">
<path fill="none" stroke="#63b8ff" d="M247.62,-18.97C239.07,-17.93 230.45,-16.89 222.22,-15.89"/>
<polygon fill="#63b8ff" stroke="#63b8ff" points="247.25,-22.45 257.6,-20.18 248.09,-15.5 247.25,-22.45"/>
</a>
</g>
</g>
<!-- Node7 -->
<g id="Node000007" class="node">
<title>Node7</title>
<g id="a_Node000007"><a xlink:href="main_8cpp.html#a3c04138a5bfe5d72780bb7e82a18e627" target="_top" xlink:title=" ">
<polygon fill="white" stroke="#666666" points="60,-56 19,-56 19,-37 60,-37 60,-56"/>
<text text-anchor="middle" x="39.5" y="-44" font-family="Ubuntu Mono" font-size="10.00">main</text>
</a>
</g>
</g>
<!-- Node6&#45;&gt;Node7 -->
<g id="edge6_Node000006_Node000007" class="edge">
<title>Node6&#45;&gt;Node7</title>
<g id="a_edge6_Node000006_Node000007"><a xlink:title=" ">
<path fill="none" stroke="#63b8ff" d="M142.26,-46.5C118.11,-46.5 82.19,-46.5 60.12,-46.5"/>
<polygon fill="#63b8ff" stroke="#63b8ff" points="142.43,-50 152.43,-46.5 142.43,-43 142.43,-50"/>
</a>
</g>
</g>
<!-- Node9 -->
<g id="Node000009" class="node">
<title>Node9</title>
<g id="a_Node000009"><a xlink:href="pymoose_8cpp.html#a8650e41c2375717fa66fb61a653d866e" target="_top" xlink:title=" ">
<polygon fill="white" stroke="#666666" points="79,-19 0,-19 0,0 79,0 79,-19"/>
<text text-anchor="middle" x="39.5" y="-7" font-family="Ubuntu Mono" font-size="10.00">NB_MODULE</text>
</a>
</g>
</g>
<!-- Node8&#45;&gt;Node9 -->
<g id="edge8_Node000008_Node000009" class="edge">
<title>Node8&#45;&gt;Node9</title>
<g id="a_edge8_Node000008_Node000009"><a xlink:title=" ">
<path fill="none" stroke="#63b8ff" d="M104.65,-9.5C96.02,-9.5 87.37,-9.5 79.34,-9.5"/>
<polygon fill="#63b8ff" stroke="#63b8ff" points="104.74,-13 114.74,-9.5 104.74,-6 104.74,-13"/>
</a>
</g>
</g>
<!-- Node10&#45;&gt;Node5 -->
<g id="edge10_Node000010_Node000005" class="edge">
<title>Node10&#45;&gt;Node5</title>
<g id="a_edge10_Node000010_Node000005"><a xlink:title=" ">
<path fill="none" stroke="#63b8ff" d="M421.57,-16.18C408.03,-17.69 393.66,-19.29 380.12,-20.8"/>
<polygon fill="#63b8ff" stroke="#63b8ff" points="422.18,-19.63 431.73,-15.05 421.4,-12.68 422.18,-19.63"/>
</a>
</g>
</g>
</g>
</svg>
