<?xml version="1.0" encoding="UTF-8" standalone="no"?>
<!DOCTYPE svg PUBLIC "-//W3C//DTD SVG 1.1//EN"
 "http://www.w3.org/Graphics/SVG/1.1/DTD/svg11.dtd">
<!-- Generated by graphviz version 2.43.0 (0)
 -->
<!-- Title: HHChannel Pages: 1 -->
<svg width="543pt" height="2070pt"
 viewBox="0.00 0.00 542.50 2070.00" xmlns="http://www.w3.org/2000/svg" xmlns:xlink="http://www.w3.org/1999/xlink">
<g id="graph0" class="graph" transform="scale(1 1) rotate(0) translate(4 2066)">
<title>HHChannel</title>
<!-- Node1 -->
<g id="Node000001" class="node">
<title>Node1</title>
<g id="a_Node000001"><a xlink:title=" ">
<polygon fill="#999999" stroke="transparent" points="164,-214 55,-214 55,0 164,0 164,-214"/>
<text text-anchor="start" x="82.5" y="-202" font-family="Ubuntu Mono" font-size="10.00">HHChannel</text>
<text text-anchor="start" x="62" y="-187" font-family="Ubuntu Mono" font-size="10.00">&#45;</text>
<text text-anchor="start" x="72.5" y="-187" font-family="Ubuntu Mono" font-size="10.00">conc_</text>
<text text-anchor="start" x="59.5" y="-172" font-family="Ubuntu Mono" font-size="10.00">+</text>
<text text-anchor="start" x="72.5" y="-172" font-family="Ubuntu Mono" font-size="10.00">checkOriginal()</text>
<text text-anchor="start" x="59.5" y="-157" font-family="Ubuntu Mono" font-size="10.00">+</text>
<text text-anchor="start" x="72.5" y="-157" font-family="Ubuntu Mono" font-size="10.00">destroyGate()</text>
<text text-anchor="start" x="59.5" y="-142" font-family="Ubuntu Mono" font-size="10.00">+</text>
<text text-anchor="start" x="72.5" y="-142" font-family="Ubuntu Mono" font-size="10.00">getNumXgates()</text>
<text text-anchor="start" x="59.5" y="-127" font-family="Ubuntu Mono" font-size="10.00">+</text>
<text text-anchor="start" x="72.5" y="-127" font-family="Ubuntu Mono" font-size="10.00">getNumYgates()</text>
<text text-anchor="start" x="59.5" y="-112" font-family="Ubuntu Mono" font-size="10.00">+</text>
<text text-anchor="start" x="72.5" y="-112" font-family="Ubuntu Mono" font-size="10.00">getNumZgates()</text>
<text text-anchor="start" x="59.5" y="-97" font-family="Ubuntu Mono" font-size="10.00">+</text>
<text text-anchor="start" x="72.5" y="-97" font-family="Ubuntu Mono" font-size="10.00">getXgate()</text>
<text text-anchor="start" x="59.5" y="-82" font-family="Ubuntu Mono" font-size="10.00">+</text>
<text text-anchor="start" x="72.5" y="-82" font-family="Ubuntu Mono" font-size="10.00">getYgate()</text>
<text text-anchor="start" x="59.5" y="-67" font-family="Ubuntu Mono" font-size="10.00">+</text>
<text text-anchor="start" x="72.5" y="-67" font-family="Ubuntu Mono" font-size="10.00">getZgate()</text>
<text text-anchor="start" x="59.5" y="-52" font-family="Ubuntu Mono" font-size="10.00">+</text>
<text text-anchor="start" x="72.5" y="-52" font-family="Ubuntu Mono" font-size="10.00">HHChannel()</text>
<text text-anchor="start" x="59.5" y="-37" font-family="Ubuntu Mono" font-size="10.00">+</text>
<text text-anchor="start" x="72.5" y="-37" font-family="Ubuntu Mono" font-size="10.00">innerCreateGate()</text>
<text text-anchor="start" x="72.5" y="-22" font-family="Ubuntu Mono" font-size="10.00">and 10 more...</text>
<text text-anchor="start" x="59.5" y="-7" font-family="Ubuntu Mono" font-size="10.00">+</text>
<text text-anchor="start" x="72.5" y="-7" font-family="Ubuntu Mono" font-size="10.00">initCinfo()</text>
<polygon fill="#666666" stroke="#666666" points="55.5,-197 55.5,-197 164.5,-197 164.5,-197 55.5,-197"/>
<polygon fill="#666666" stroke="#666666" points="55.5,-182 55.5,-182 70.5,-182 70.5,-182 55.5,-182"/>
<polygon fill="#666666" stroke="#666666" points="70.5,-182 70.5,-182 164.5,-182 164.5,-182 70.5,-182"/>
<polygon fill="none" stroke="#666666" points="55,0 55,-214 164,-214 164,0 55,0"/>
</a>
</g>
</g>
<!-- Node2 -->
<g id="Node000002" class="node">
<title>Node2</title>
<g id="a_Node000002"><a xlink:href="classHHChannelBase.html" target="_top" xlink:title=" ">
<polygon fill="white" stroke="transparent" points="145.5,-1319 13.5,-1319 13.5,-715 145.5,-715 145.5,-1319"/>
<text text-anchor="start" x="40" y="-1307" font-family="Ubuntu Mono" font-size="10.00">HHChannelBase</text>
<text text-anchor="start" x="17.5" y="-1292" font-family="Ubuntu Mono" font-size="10.00">#</text>
<text text-anchor="start" x="30.5" y="-1292" font-family="Ubuntu Mono" font-size="10.00">g_</text>
<text text-anchor="start" x="17.5" y="-1277" font-family="Ubuntu Mono" font-size="10.00">#</text>
<text text-anchor="start" x="30.5" y="-1277" font-family="Ubuntu Mono" font-size="10.00">instant_</text>
<text text-anchor="start" x="17.5" y="-1262" font-family="Ubuntu Mono" font-size="10.00">#</text>
<text text-anchor="start" x="30.5" y="-1262" font-family="Ubuntu Mono" font-size="10.00">takeXpower_</text>
<text text-anchor="start" x="17.5" y="-1247" font-family="Ubuntu Mono" font-size="10.00">#</text>
<text text-anchor="start" x="30.5" y="-1247" font-family="Ubuntu Mono" font-size="10.00">takeYpower_</text>
<text text-anchor="start" x="17.5" y="-1232" font-family="Ubuntu Mono" font-size="10.00">#</text>
<text text-anchor="start" x="30.5" y="-1232" font-family="Ubuntu Mono" font-size="10.00">takeZpower_</text>
<text text-anchor="start" x="17.5" y="-1217" font-family="Ubuntu Mono" font-size="10.00">#</text>
<text text-anchor="start" x="30.5" y="-1217" font-family="Ubuntu Mono" font-size="10.00">useConcentration_</text>
<text text-anchor="start" x="17.5" y="-1202" font-family="Ubuntu Mono" font-size="10.00">#</text>
<text text-anchor="start" x="30.5" y="-1202" font-family="Ubuntu Mono" font-size="10.00">X_</text>
<text text-anchor="start" x="17.5" y="-1187" font-family="Ubuntu Mono" font-size="10.00">#</text>
<text text-anchor="start" x="30.5" y="-1187" font-family="Ubuntu Mono" font-size="10.00">xInited_</text>
<text text-anchor="start" x="17.5" y="-1172" font-family="Ubuntu Mono" font-size="10.00">#</text>
<text text-anchor="start" x="30.5" y="-1172" font-family="Ubuntu Mono" font-size="10.00">Xpower_</text>
<text text-anchor="start" x="17.5" y="-1157" font-family="Ubuntu Mono" font-size="10.00">#</text>
<text text-anchor="start" x="30.5" y="-1157" font-family="Ubuntu Mono" font-size="10.00">Y_</text>
<text text-anchor="start" x="17.5" y="-1142" font-family="Ubuntu Mono" font-size="10.00">#</text>
<text text-anchor="start" x="30.5" y="-1142" font-family="Ubuntu Mono" font-size="10.00">yInited_</text>
<text text-anchor="start" x="17.5" y="-1127" font-family="Ubuntu Mono" font-size="10.00">#</text>
<text text-anchor="start" x="30.5" y="-1127" font-family="Ubuntu Mono" font-size="10.00">Ypower_</text>
<text text-anchor="start" x="17.5" y="-1112" font-family="Ubuntu Mono" font-size="10.00">#</text>
<text text-anchor="start" x="30.5" y="-1112" font-family="Ubuntu Mono" font-size="10.00">Z_</text>
<text text-anchor="start" x="17.5" y="-1097" font-family="Ubuntu Mono" font-size="10.00">#</text>
<text text-anchor="start" x="30.5" y="-1097" font-family="Ubuntu Mono" font-size="10.00">zInited_</text>
<text text-anchor="start" x="17.5" y="-1082" font-family="Ubuntu Mono" font-size="10.00">#</text>
<text text-anchor="start" x="30.5" y="-1082" font-family="Ubuntu Mono" font-size="10.00">Zpower_</text>
<text text-anchor="start" x="17.5" y="-1067" font-family="Ubuntu Mono" font-size="10.00">#</text>
<text text-anchor="start" x="30.5" y="-1067" font-family="Ubuntu Mono" font-size="10.00">EPSILON</text>
<text text-anchor="start" x="17.5" y="-1052" font-family="Ubuntu Mono" font-size="10.00">#</text>
<text text-anchor="start" x="30.5" y="-1052" font-family="Ubuntu Mono" font-size="10.00">INSTANT_X</text>
<text text-anchor="start" x="17.5" y="-1037" font-family="Ubuntu Mono" font-size="10.00">#</text>
<text text-anchor="start" x="30.5" y="-1037" font-family="Ubuntu Mono" font-size="10.00">INSTANT_Y</text>
<text text-anchor="start" x="17.5" y="-1022" font-family="Ubuntu Mono" font-size="10.00">#</text>
<text text-anchor="start" x="30.5" y="-1022" font-family="Ubuntu Mono" font-size="10.00">INSTANT_Z</text>
<text text-anchor="start" x="17.5" y="-1007" font-family="Ubuntu Mono" font-size="10.00">+</text>
<text text-anchor="start" x="30.5" y="-1007" font-family="Ubuntu Mono" font-size="10.00">checkOriginal()</text>
<text text-anchor="start" x="17.5" y="-992" font-family="Ubuntu Mono" font-size="10.00">+</text>
<text text-anchor="start" x="30.5" y="-992" font-family="Ubuntu Mono" font-size="10.00">createGate()</text>
<text text-anchor="start" x="17.5" y="-977" font-family="Ubuntu Mono" font-size="10.00">+</text>
<text text-anchor="start" x="30.5" y="-977" font-family="Ubuntu Mono" font-size="10.00">destroyGate()</text>
<text text-anchor="start" x="17.5" y="-962" font-family="Ubuntu Mono" font-size="10.00">+</text>
<text text-anchor="start" x="30.5" y="-962" font-family="Ubuntu Mono" font-size="10.00">getInstant()</text>
<text text-anchor="start" x="17.5" y="-947" font-family="Ubuntu Mono" font-size="10.00">+</text>
<text text-anchor="start" x="30.5" y="-947" font-family="Ubuntu Mono" font-size="10.00">getUseConcentration()</text>
<text text-anchor="start" x="17.5" y="-932" font-family="Ubuntu Mono" font-size="10.00">+</text>
<text text-anchor="start" x="30.5" y="-932" font-family="Ubuntu Mono" font-size="10.00">getX()</text>
<text text-anchor="start" x="17.5" y="-917" font-family="Ubuntu Mono" font-size="10.00">+</text>
<text text-anchor="start" x="30.5" y="-917" font-family="Ubuntu Mono" font-size="10.00">getXgate()</text>
<text text-anchor="start" x="17.5" y="-902" font-family="Ubuntu Mono" font-size="10.00">+</text>
<text text-anchor="start" x="30.5" y="-902" font-family="Ubuntu Mono" font-size="10.00">getXpower()</text>
<text text-anchor="start" x="17.5" y="-887" font-family="Ubuntu Mono" font-size="10.00">+</text>
<text text-anchor="start" x="30.5" y="-887" font-family="Ubuntu Mono" font-size="10.00">getY()</text>
<text text-anchor="start" x="17.5" y="-872" font-family="Ubuntu Mono" font-size="10.00">+</text>
<text text-anchor="start" x="30.5" y="-872" font-family="Ubuntu Mono" font-size="10.00">getYgate()</text>
<text text-anchor="start" x="30.5" y="-857" font-family="Ubuntu Mono" font-size="10.00">and 32 more...</text>
<text text-anchor="start" x="17.5" y="-842" font-family="Ubuntu Mono" font-size="10.00">+</text>
<text text-anchor="start" x="30.5" y="-842" font-family="Ubuntu Mono" font-size="10.00">initCinfo()</text>
<text text-anchor="start" x="17.5" y="-827" font-family="Ubuntu Mono" font-size="10.00">+</text>
<text text-anchor="start" x="30.5" y="-827" font-family="Ubuntu Mono" font-size="10.00">power1()</text>
<text text-anchor="start" x="17.5" y="-812" font-family="Ubuntu Mono" font-size="10.00">+</text>
<text text-anchor="start" x="30.5" y="-812" font-family="Ubuntu Mono" font-size="10.00">power2()</text>
<text text-anchor="start" x="17.5" y="-797" font-family="Ubuntu Mono" font-size="10.00">+</text>
<text text-anchor="start" x="30.5" y="-797" font-family="Ubuntu Mono" font-size="10.00">power3()</text>
<text text-anchor="start" x="17.5" y="-782" font-family="Ubuntu Mono" font-size="10.00">+</text>
<text text-anchor="start" x="30.5" y="-782" font-family="Ubuntu Mono" font-size="10.00">power4()</text>
<text text-anchor="start" x="17.5" y="-767" font-family="Ubuntu Mono" font-size="10.00">+</text>
<text text-anchor="start" x="30.5" y="-767" font-family="Ubuntu Mono" font-size="10.00">powerN()</text>
<text text-anchor="start" x="17.5" y="-752" font-family="Ubuntu Mono" font-size="10.00">+</text>
<text text-anchor="start" x="30.5" y="-752" font-family="Ubuntu Mono" font-size="10.00">selectPower()</text>
<text text-anchor="start" x="17.5" y="-737" font-family="Ubuntu Mono" font-size="10.00">+</text>
<text text-anchor="start" x="30.5" y="-737" font-family="Ubuntu Mono" font-size="10.00">zombify()</text>
<text text-anchor="start" x="17.5" y="-722" font-family="Ubuntu Mono" font-size="10.00">#</text>
<text text-anchor="start" x="30.5" y="-722" font-family="Ubuntu Mono" font-size="10.00">integrate()</text>
<polygon fill="#666666" stroke="#666666" points="13.5,-1302 13.5,-1302 145.5,-1302 145.5,-1302 13.5,-1302"/>
<polygon fill="#666666" stroke="#666666" points="13.5,-1017 13.5,-1017 28.5,-1017 28.5,-1017 13.5,-1017"/>
<polygon fill="#666666" stroke="#666666" points="28.5,-1017 28.5,-1017 145.5,-1017 145.5,-1017 28.5,-1017"/>
<polygon fill="none" stroke="#666666" points="13.5,-715 13.5,-1319 145.5,-1319 145.5,-715 13.5,-715"/>
</a>
</g>
</g>
<!-- Node2&#45;&gt;Node1 -->
<g id="edge1_Node000001_Node000002" class="edge">
<title>Node2&#45;&gt;Node1</title>
<g id="a_edge1_Node000001_Node000002"><a xlink:title=" ">
<path fill="none" stroke="#63b8ff" d="M89.78,-704.76C95.41,-534.35 102.03,-334.06 105.99,-214.27"/>
<polygon fill="none" stroke="#63b8ff" points="86.28,-704.8 89.45,-714.91 93.28,-705.03 86.28,-704.8"/>
</a>
</g>
</g>
<!-- Node3 -->
<g id="Node000003" class="node">
<title>Node3</title>
<g id="a_Node000003"><a xlink:href="classChanCommon.html" target="_top" xlink:title=" ">
<polygon fill="white" stroke="transparent" points="115,-1718.5 0,-1718.5 0,-1414.5 115,-1414.5 115,-1718.5"/>
<text text-anchor="start" x="23" y="-1706.5" font-family="Ubuntu Mono" font-size="10.00">ChanCommon</text>
<text text-anchor="start" x="4.5" y="-1691.5" font-family="Ubuntu Mono" font-size="10.00">#</text>
<text text-anchor="start" x="17.5" y="-1691.5" font-family="Ubuntu Mono" font-size="10.00">Vm_</text>
<text text-anchor="start" x="7" y="-1676.5" font-family="Ubuntu Mono" font-size="10.00">&#45;</text>
<text text-anchor="start" x="17.5" y="-1676.5" font-family="Ubuntu Mono" font-size="10.00">Ek_</text>
<text text-anchor="start" x="7" y="-1661.5" font-family="Ubuntu Mono" font-size="10.00">&#45;</text>
<text text-anchor="start" x="17.5" y="-1661.5" font-family="Ubuntu Mono" font-size="10.00">Gbar_</text>
<text text-anchor="start" x="7" y="-1646.5" font-family="Ubuntu Mono" font-size="10.00">&#45;</text>
<text text-anchor="start" x="17.5" y="-1646.5" font-family="Ubuntu Mono" font-size="10.00">Gk_</text>
<text text-anchor="start" x="7" y="-1631.5" font-family="Ubuntu Mono" font-size="10.00">&#45;</text>
<text text-anchor="start" x="17.5" y="-1631.5" font-family="Ubuntu Mono" font-size="10.00">Ik_</text>
<text text-anchor="start" x="7" y="-1616.5" font-family="Ubuntu Mono" font-size="10.00">&#45;</text>
<text text-anchor="start" x="17.5" y="-1616.5" font-family="Ubuntu Mono" font-size="10.00">modulation_</text>
<text text-anchor="start" x="4.5" y="-1601.5" font-family="Ubuntu Mono" font-size="10.00">+</text>
<text text-anchor="start" x="17.5" y="-1601.5" font-family="Ubuntu Mono" font-size="10.00">ChanCommon()</text>
<text text-anchor="start" x="4.5" y="-1586.5" font-family="Ubuntu Mono" font-size="10.00">+</text>
<text text-anchor="start" x="17.5" y="-1586.5" font-family="Ubuntu Mono" font-size="10.00">getGbar()</text>
<text text-anchor="start" x="4.5" y="-1571.5" font-family="Ubuntu Mono" font-size="10.00">+</text>
<text text-anchor="start" x="17.5" y="-1571.5" font-family="Ubuntu Mono" font-size="10.00">getVm()</text>
<text text-anchor="start" x="4.5" y="-1556.5" font-family="Ubuntu Mono" font-size="10.00">+</text>
<text text-anchor="start" x="17.5" y="-1556.5" font-family="Ubuntu Mono" font-size="10.00">sendProcessMsgs()</text>
<text text-anchor="start" x="4.5" y="-1541.5" font-family="Ubuntu Mono" font-size="10.00">+</text>
<text text-anchor="start" x="17.5" y="-1541.5" font-family="Ubuntu Mono" font-size="10.00">sendReinitMsgs()</text>
<text text-anchor="start" x="4.5" y="-1526.5" font-family="Ubuntu Mono" font-size="10.00">+</text>
<text text-anchor="start" x="17.5" y="-1526.5" font-family="Ubuntu Mono" font-size="10.00">updateIk()</text>
<text text-anchor="start" x="4.5" y="-1511.5" font-family="Ubuntu Mono" font-size="10.00">+</text>
<text text-anchor="start" x="17.5" y="-1511.5" font-family="Ubuntu Mono" font-size="10.00">vGetEk()</text>
<text text-anchor="start" x="4.5" y="-1496.5" font-family="Ubuntu Mono" font-size="10.00">+</text>
<text text-anchor="start" x="17.5" y="-1496.5" font-family="Ubuntu Mono" font-size="10.00">vGetGbar()</text>
<text text-anchor="start" x="4.5" y="-1481.5" font-family="Ubuntu Mono" font-size="10.00">+</text>
<text text-anchor="start" x="17.5" y="-1481.5" font-family="Ubuntu Mono" font-size="10.00">vGetGk()</text>
<text text-anchor="start" x="4.5" y="-1466.5" font-family="Ubuntu Mono" font-size="10.00">+</text>
<text text-anchor="start" x="17.5" y="-1466.5" font-family="Ubuntu Mono" font-size="10.00">vGetIk()</text>
<text text-anchor="start" x="17.5" y="-1451.5" font-family="Ubuntu Mono" font-size="10.00">and 8 more...</text>
<text text-anchor="start" x="4.5" y="-1436.5" font-family="Ubuntu Mono" font-size="10.00">+</text>
<text text-anchor="start" x="17.5" y="-1436.5" font-family="Ubuntu Mono" font-size="10.00">initCinfo()</text>
<text text-anchor="start" x="4.5" y="-1421.5" font-family="Ubuntu Mono" font-size="10.00">#</text>
<text text-anchor="start" x="17.5" y="-1421.5" font-family="Ubuntu Mono" font-size="10.00">getModulation()</text>
<polygon fill="#666666" stroke="#666666" points="0.5,-1701.5 0.5,-1701.5 115.5,-1701.5 115.5,-1701.5 0.5,-1701.5"/>
<polygon fill="#666666" stroke="#666666" points="0.5,-1611.5 0.5,-1611.5 15.5,-1611.5 15.5,-1611.5 0.5,-1611.5"/>
<polygon fill="#666666" stroke="#666666" points="15.5,-1611.5 15.5,-1611.5 115.5,-1611.5 115.5,-1611.5 15.5,-1611.5"/>
<polygon fill="none" stroke="#666666" points="0,-1414.5 0,-1718.5 115,-1718.5 115,-1414.5 0,-1414.5"/>
</a>
</g>
</g>
<!-- Node3&#45;&gt;Node2 -->
<g id="edge2_Node000002_Node000003" class="edge">
<title>Node3&#45;&gt;Node2</title>
<g id="a_edge2_Node000002_Node000003"><a xlink:title=" ">
<path fill="none" stroke="#63b8ff" d="M63.98,-1404.19C65.07,-1377.19 66.22,-1348.43 67.4,-1319.25"/>
<polygon fill="none" stroke="#63b8ff" points="60.47,-1404.31 63.57,-1414.44 67.47,-1404.59 60.47,-1404.31"/>
</a>
</g>
</g>
<!-- Node4 -->
<g id="Node000004" class="node">
<title>Node4</title>
<g id="a_Node000004"><a xlink:href="classChanBase.html" target="_top" xlink:title=" ">
<polygon fill="white" stroke="transparent" points="107.5,-2062 7.5,-2062 7.5,-1803 107.5,-1803 107.5,-2062"/>
<text text-anchor="start" x="33" y="-2049.5" font-family="Ubuntu Mono" font-size="10.00">ChanBase</text>
<text text-anchor="start" x="55.5" y="-2034.5" font-family="Ubuntu Mono" font-size="10.00"> </text>
<text text-anchor="start" x="11.5" y="-2019.5" font-family="Ubuntu Mono" font-size="10.00">+</text>
<text text-anchor="start" x="24.5" y="-2019.5" font-family="Ubuntu Mono" font-size="10.00">ChanBase()</text>
<text text-anchor="start" x="11.5" y="-2004.5" font-family="Ubuntu Mono" font-size="10.00">+</text>
<text text-anchor="start" x="24.5" y="-2004.5" font-family="Ubuntu Mono" font-size="10.00">getEk()</text>
<text text-anchor="start" x="11.5" y="-1989.5" font-family="Ubuntu Mono" font-size="10.00">+</text>
<text text-anchor="start" x="24.5" y="-1989.5" font-family="Ubuntu Mono" font-size="10.00">getGbar()</text>
<text text-anchor="start" x="11.5" y="-1974.5" font-family="Ubuntu Mono" font-size="10.00">+</text>
<text text-anchor="start" x="24.5" y="-1974.5" font-family="Ubuntu Mono" font-size="10.00">getGk()</text>
<text text-anchor="start" x="11.5" y="-1959.5" font-family="Ubuntu Mono" font-size="10.00">+</text>
<text text-anchor="start" x="24.5" y="-1959.5" font-family="Ubuntu Mono" font-size="10.00">getIk()</text>
<text text-anchor="start" x="11.5" y="-1944.5" font-family="Ubuntu Mono" font-size="10.00">+</text>
<text text-anchor="start" x="24.5" y="-1944.5" font-family="Ubuntu Mono" font-size="10.00">getModulation()</text>
<text text-anchor="start" x="11.5" y="-1929.5" font-family="Ubuntu Mono" font-size="10.00">+</text>
<text text-anchor="start" x="24.5" y="-1929.5" font-family="Ubuntu Mono" font-size="10.00">handleVm()</text>
<text text-anchor="start" x="11.5" y="-1914.5" font-family="Ubuntu Mono" font-size="10.00">+</text>
<text text-anchor="start" x="24.5" y="-1914.5" font-family="Ubuntu Mono" font-size="10.00">process()</text>
<text text-anchor="start" x="11.5" y="-1899.5" font-family="Ubuntu Mono" font-size="10.00">+</text>
<text text-anchor="start" x="24.5" y="-1899.5" font-family="Ubuntu Mono" font-size="10.00">reinit()</text>
<text text-anchor="start" x="11.5" y="-1884.5" font-family="Ubuntu Mono" font-size="10.00">+</text>
<text text-anchor="start" x="24.5" y="-1884.5" font-family="Ubuntu Mono" font-size="10.00">setEk()</text>
<text text-anchor="start" x="24.5" y="-1869.5" font-family="Ubuntu Mono" font-size="10.00">and 18 more...</text>
<text text-anchor="start" x="11.5" y="-1854.5" font-family="Ubuntu Mono" font-size="10.00">+</text>
<text text-anchor="start" x="24.5" y="-1854.5" font-family="Ubuntu Mono" font-size="10.00">channelOut()</text>
<text text-anchor="start" x="11.5" y="-1839.5" font-family="Ubuntu Mono" font-size="10.00">+</text>
<text text-anchor="start" x="24.5" y="-1839.5" font-family="Ubuntu Mono" font-size="10.00">IkOut()</text>
<text text-anchor="start" x="11.5" y="-1824.5" font-family="Ubuntu Mono" font-size="10.00">+</text>
<text text-anchor="start" x="24.5" y="-1824.5" font-family="Ubuntu Mono" font-size="10.00">initCinfo()</text>
<text text-anchor="start" x="11.5" y="-1809.5" font-family="Ubuntu Mono" font-size="10.00">+</text>
<text text-anchor="start" x="24.5" y="-1809.5" font-family="Ubuntu Mono" font-size="10.00">permeability()</text>
<polygon fill="#666666" stroke="#666666" points="7.5,-2044.5 7.5,-2044.5 107.5,-2044.5 107.5,-2044.5 7.5,-2044.5"/>
<polygon fill="#666666" stroke="#666666" points="7.5,-2029.5 7.5,-2029.5 107.5,-2029.5 107.5,-2029.5 7.5,-2029.5"/>
<polygon fill="none" stroke="#666666" points="7.5,-1803 7.5,-2062 107.5,-2062 107.5,-1803 7.5,-1803"/>
</a>
</g>
</g>
<!-- Node4&#45;&gt;Node3 -->
<g id="edge3_Node000003_Node000004" class="edge">
<title>Node4&#45;&gt;Node3</title>
<g id="a_edge3_Node000003_Node000004"><a xlink:title=" ">
<path fill="none" stroke="#63b8ff" d="M57.5,-1792.63C57.5,-1768.48 57.5,-1743.24 57.5,-1718.78"/>
<polygon fill="none" stroke="#63b8ff" points="54,-1792.91 57.5,-1802.91 61,-1792.91 54,-1792.91"/>
</a>
</g>
</g>
<!-- Node5 -->
<g id="Node000005" class="node">
<title>Node5</title>
<g id="a_Node000005"><a xlink:href="classId.html" target="_top" xlink:title=" ">
<polygon fill="white" stroke="transparent" points="245.5,-1756 133.5,-1756 133.5,-1377 245.5,-1377 245.5,-1756"/>
<text text-anchor="start" x="184.5" y="-1743.5" font-family="Ubuntu Mono" font-size="10.00">Id</text>
<text text-anchor="start" x="140" y="-1728.5" font-family="Ubuntu Mono" font-size="10.00">&#45;</text>
<text text-anchor="start" x="150.5" y="-1728.5" font-family="Ubuntu Mono" font-size="10.00">id_</text>
<text text-anchor="start" x="137.5" y="-1713.5" font-family="Ubuntu Mono" font-size="10.00">+</text>
<text text-anchor="start" x="150.5" y="-1713.5" font-family="Ubuntu Mono" font-size="10.00">bindIdToElement()</text>
<text text-anchor="start" x="137.5" y="-1698.5" font-family="Ubuntu Mono" font-size="10.00">+</text>
<text text-anchor="start" x="150.5" y="-1698.5" font-family="Ubuntu Mono" font-size="10.00">destroy()</text>
<text text-anchor="start" x="137.5" y="-1683.5" font-family="Ubuntu Mono" font-size="10.00">+</text>
<text text-anchor="start" x="150.5" y="-1683.5" font-family="Ubuntu Mono" font-size="10.00">element()</text>
<text text-anchor="start" x="137.5" y="-1668.5" font-family="Ubuntu Mono" font-size="10.00">+</text>
<text text-anchor="start" x="150.5" y="-1668.5" font-family="Ubuntu Mono" font-size="10.00">eref()</text>
<text text-anchor="start" x="137.5" y="-1653.5" font-family="Ubuntu Mono" font-size="10.00">+</text>
<text text-anchor="start" x="150.5" y="-1653.5" font-family="Ubuntu Mono" font-size="10.00">Id()</text>
<text text-anchor="start" x="137.5" y="-1638.5" font-family="Ubuntu Mono" font-size="10.00">+</text>
<text text-anchor="start" x="150.5" y="-1638.5" font-family="Ubuntu Mono" font-size="10.00">Id()</text>
<text text-anchor="start" x="137.5" y="-1623.5" font-family="Ubuntu Mono" font-size="10.00">+</text>
<text text-anchor="start" x="150.5" y="-1623.5" font-family="Ubuntu Mono" font-size="10.00">Id()</text>
<text text-anchor="start" x="137.5" y="-1608.5" font-family="Ubuntu Mono" font-size="10.00">+</text>
<text text-anchor="start" x="150.5" y="-1608.5" font-family="Ubuntu Mono" font-size="10.00">Id()</text>
<text text-anchor="start" x="137.5" y="-1593.5" font-family="Ubuntu Mono" font-size="10.00">+</text>
<text text-anchor="start" x="150.5" y="-1593.5" font-family="Ubuntu Mono" font-size="10.00">operator!=()</text>
<text text-anchor="start" x="137.5" y="-1578.5" font-family="Ubuntu Mono" font-size="10.00">+</text>
<text text-anchor="start" x="150.5" y="-1578.5" font-family="Ubuntu Mono" font-size="10.00">operator&lt;()</text>
<text text-anchor="start" x="137.5" y="-1563.5" font-family="Ubuntu Mono" font-size="10.00">+</text>
<text text-anchor="start" x="150.5" y="-1563.5" font-family="Ubuntu Mono" font-size="10.00">operator==()</text>
<text text-anchor="start" x="137.5" y="-1548.5" font-family="Ubuntu Mono" font-size="10.00">+</text>
<text text-anchor="start" x="150.5" y="-1548.5" font-family="Ubuntu Mono" font-size="10.00">path()</text>
<text text-anchor="start" x="137.5" y="-1533.5" font-family="Ubuntu Mono" font-size="10.00">+</text>
<text text-anchor="start" x="150.5" y="-1533.5" font-family="Ubuntu Mono" font-size="10.00">value()</text>
<text text-anchor="start" x="137.5" y="-1518.5" font-family="Ubuntu Mono" font-size="10.00">+</text>
<text text-anchor="start" x="150.5" y="-1518.5" font-family="Ubuntu Mono" font-size="10.00">zeroOut()</text>
<text text-anchor="start" x="137.5" y="-1503.5" font-family="Ubuntu Mono" font-size="10.00">+</text>
<text text-anchor="start" x="150.5" y="-1503.5" font-family="Ubuntu Mono" font-size="10.00">~Id()</text>
<text text-anchor="start" x="137.5" y="-1488.5" font-family="Ubuntu Mono" font-size="10.00">+</text>
<text text-anchor="start" x="150.5" y="-1488.5" font-family="Ubuntu Mono" font-size="10.00">clearAllElements()</text>
<text text-anchor="start" x="137.5" y="-1473.5" font-family="Ubuntu Mono" font-size="10.00">+</text>
<text text-anchor="start" x="150.5" y="-1473.5" font-family="Ubuntu Mono" font-size="10.00">id2str()</text>
<text text-anchor="start" x="137.5" y="-1458.5" font-family="Ubuntu Mono" font-size="10.00">+</text>
<text text-anchor="start" x="150.5" y="-1458.5" font-family="Ubuntu Mono" font-size="10.00">isValid()</text>
<text text-anchor="start" x="137.5" y="-1443.5" font-family="Ubuntu Mono" font-size="10.00">+</text>
<text text-anchor="start" x="150.5" y="-1443.5" font-family="Ubuntu Mono" font-size="10.00">isValid()</text>
<text text-anchor="start" x="137.5" y="-1428.5" font-family="Ubuntu Mono" font-size="10.00">+</text>
<text text-anchor="start" x="150.5" y="-1428.5" font-family="Ubuntu Mono" font-size="10.00">nextId()</text>
<text text-anchor="start" x="137.5" y="-1413.5" font-family="Ubuntu Mono" font-size="10.00">+</text>
<text text-anchor="start" x="150.5" y="-1413.5" font-family="Ubuntu Mono" font-size="10.00">numIds()</text>
<text text-anchor="start" x="137.5" y="-1398.5" font-family="Ubuntu Mono" font-size="10.00">+</text>
<text text-anchor="start" x="150.5" y="-1398.5" font-family="Ubuntu Mono" font-size="10.00">str2Id()</text>
<text text-anchor="start" x="140" y="-1383.5" font-family="Ubuntu Mono" font-size="10.00">&#45;</text>
<text text-anchor="start" x="150.5" y="-1383.5" font-family="Ubuntu Mono" font-size="10.00">elements()</text>
<polygon fill="#666666" stroke="#666666" points="133.5,-1738.5 133.5,-1738.5 245.5,-1738.5 245.5,-1738.5 133.5,-1738.5"/>
<polygon fill="#666666" stroke="#666666" points="133.5,-1723.5 133.5,-1723.5 148.5,-1723.5 148.5,-1723.5 133.5,-1723.5"/>
<polygon fill="#666666" stroke="#666666" points="148.5,-1723.5 148.5,-1723.5 245.5,-1723.5 245.5,-1723.5 148.5,-1723.5"/>
<polygon fill="none" stroke="#666666" points="133.5,-1377 133.5,-1756 245.5,-1756 245.5,-1377 133.5,-1377"/>
</a>
</g>
</g>
<!-- Node5&#45;&gt;Node2 -->
<g id="edge4_Node000002_Node000005" class="edge">
<title>Node5&#45;&gt;Node2</title>
<g id="a_edge4_Node000002_Node000005"><a xlink:title=" ">
<path fill="none" stroke="#63b8ff" d="M133.46,-1391.99C130.57,-1380.87 127.89,-1369.81 125.5,-1359 123.49,-1349.87 121.54,-1340.59 119.68,-1331.2"/>
<polygon fill="none" stroke="#63b8ff" points="119.64,-1331.04 114.57,-1325.91 117.35,-1319.26 122.42,-1324.38 119.64,-1331.04"/>
</a>
</g>
<text text-anchor="middle" x="146.5" y="-1345.5" font-family="Ubuntu Mono" font-size="10.00" fill="grey"> #myId_</text>
</g>
<!-- Node6 -->
<g id="Node000006" class="node">
<title>Node6</title>
<g id="a_Node000006"><a xlink:href="classHHGate.html" target="_top" xlink:title=" ">
<polygon fill="white" stroke="transparent" points="282.5,-602 148.5,-602 148.5,-283 282.5,-283 282.5,-602"/>
<text text-anchor="start" x="196" y="-589.5" font-family="Ubuntu Mono" font-size="10.00">HHGate</text>
<text text-anchor="start" x="155" y="-574.5" font-family="Ubuntu Mono" font-size="10.00">&#45;</text>
<text text-anchor="start" x="165.5" y="-574.5" font-family="Ubuntu Mono" font-size="10.00">alphaExpr_</text>
<text text-anchor="start" x="155" y="-559.5" font-family="Ubuntu Mono" font-size="10.00">&#45;</text>
<text text-anchor="start" x="165.5" y="-559.5" font-family="Ubuntu Mono" font-size="10.00">betaExpr_</text>
<text text-anchor="start" x="155" y="-544.5" font-family="Ubuntu Mono" font-size="10.00">&#45;</text>
<text text-anchor="start" x="165.5" y="-544.5" font-family="Ubuntu Mono" font-size="10.00">form_</text>
<text text-anchor="start" x="155" y="-529.5" font-family="Ubuntu Mono" font-size="10.00">&#45;</text>
<text text-anchor="start" x="165.5" y="-529.5" font-family="Ubuntu Mono" font-size="10.00">invDx_</text>
<text text-anchor="start" x="155" y="-514.5" font-family="Ubuntu Mono" font-size="10.00">&#45;</text>
<text text-anchor="start" x="165.5" y="-514.5" font-family="Ubuntu Mono" font-size="10.00">isDirectTable_</text>
<text text-anchor="start" x="155" y="-499.5" font-family="Ubuntu Mono" font-size="10.00">&#45;</text>
<text text-anchor="start" x="165.5" y="-499.5" font-family="Ubuntu Mono" font-size="10.00">lookupByInterpolation_</text>
<text text-anchor="start" x="155" y="-484.5" font-family="Ubuntu Mono" font-size="10.00">&#45;</text>
<text text-anchor="start" x="165.5" y="-484.5" font-family="Ubuntu Mono" font-size="10.00">xmax_</text>
<text text-anchor="start" x="155" y="-469.5" font-family="Ubuntu Mono" font-size="10.00">&#45;</text>
<text text-anchor="start" x="165.5" y="-469.5" font-family="Ubuntu Mono" font-size="10.00">xmin_</text>
<text text-anchor="start" x="152.5" y="-454.5" font-family="Ubuntu Mono" font-size="10.00">+</text>
<text text-anchor="start" x="165.5" y="-454.5" font-family="Ubuntu Mono" font-size="10.00">computeTable()</text>
<text text-anchor="start" x="152.5" y="-439.5" font-family="Ubuntu Mono" font-size="10.00">+</text>
<text text-anchor="start" x="165.5" y="-439.5" font-family="Ubuntu Mono" font-size="10.00">fillFromExpr()</text>
<text text-anchor="start" x="152.5" y="-424.5" font-family="Ubuntu Mono" font-size="10.00">+</text>
<text text-anchor="start" x="165.5" y="-424.5" font-family="Ubuntu Mono" font-size="10.00">getAlpha()</text>
<text text-anchor="start" x="152.5" y="-409.5" font-family="Ubuntu Mono" font-size="10.00">+</text>
<text text-anchor="start" x="165.5" y="-409.5" font-family="Ubuntu Mono" font-size="10.00">getAlphaExpr()</text>
<text text-anchor="start" x="152.5" y="-394.5" font-family="Ubuntu Mono" font-size="10.00">+</text>
<text text-anchor="start" x="165.5" y="-394.5" font-family="Ubuntu Mono" font-size="10.00">getAlphaParms()</text>
<text text-anchor="start" x="152.5" y="-379.5" font-family="Ubuntu Mono" font-size="10.00">+</text>
<text text-anchor="start" x="165.5" y="-379.5" font-family="Ubuntu Mono" font-size="10.00">getBeta()</text>
<text text-anchor="start" x="152.5" y="-364.5" font-family="Ubuntu Mono" font-size="10.00">+</text>
<text text-anchor="start" x="165.5" y="-364.5" font-family="Ubuntu Mono" font-size="10.00">getBetaExpr()</text>
<text text-anchor="start" x="152.5" y="-349.5" font-family="Ubuntu Mono" font-size="10.00">+</text>
<text text-anchor="start" x="165.5" y="-349.5" font-family="Ubuntu Mono" font-size="10.00">getDivs()</text>
<text text-anchor="start" x="152.5" y="-334.5" font-family="Ubuntu Mono" font-size="10.00">+</text>
<text text-anchor="start" x="165.5" y="-334.5" font-family="Ubuntu Mono" font-size="10.00">getForm()</text>
<text text-anchor="start" x="152.5" y="-319.5" font-family="Ubuntu Mono" font-size="10.00">+</text>
<text text-anchor="start" x="165.5" y="-319.5" font-family="Ubuntu Mono" font-size="10.00">getInfExpr()</text>
<text text-anchor="start" x="165.5" y="-304.5" font-family="Ubuntu Mono" font-size="10.00">and 39 more...</text>
<text text-anchor="start" x="152.5" y="-289.5" font-family="Ubuntu Mono" font-size="10.00">+</text>
<text text-anchor="start" x="165.5" y="-289.5" font-family="Ubuntu Mono" font-size="10.00">initCinfo()</text>
<polygon fill="#666666" stroke="#666666" points="148.5,-584.5 148.5,-584.5 282.5,-584.5 282.5,-584.5 148.5,-584.5"/>
<polygon fill="#666666" stroke="#666666" points="148.5,-464.5 148.5,-464.5 163.5,-464.5 163.5,-464.5 148.5,-464.5"/>
<polygon fill="#666666" stroke="#666666" points="163.5,-464.5 163.5,-464.5 282.5,-464.5 282.5,-464.5 163.5,-464.5"/>
<polygon fill="none" stroke="#666666" points="148.5,-283 148.5,-602 282.5,-602 282.5,-283 148.5,-283"/>
</a>
</g>
</g>
<!-- Node5&#45;&gt;Node6 -->
<g id="edge11_Node000006_Node000005" class="edge">
<title>Node5&#45;&gt;Node6</title>
<g id="a_edge11_Node000006_Node000005"><a xlink:title=" ">
<path fill="none" stroke="#63b8ff" d="M184.82,-1376.64C181.72,-1204.21 179.92,-942.33 190.5,-715 192.01,-682.47 194.52,-647.81 197.37,-614.52"/>
<polygon fill="none" stroke="#63b8ff" points="197.4,-614.28 193.93,-607.96 198.44,-602.33 201.9,-608.65 197.4,-614.28"/>
</a>
</g>
<text text-anchor="middle" x="232" y="-1020" font-family="Ubuntu Mono" font-size="10.00" fill="grey"> &#45;originalChanId_</text>
<text text-anchor="middle" x="232" y="-1009" font-family="Ubuntu Mono" font-size="10.00" fill="grey">&#45;originalGateId_</text>
</g>
<!-- Node7 -->
<g id="Node000007" class="node">
<title>Node7</title>
<g id="a_Node000007"><a xlink:href="classHHGateBase.html" target="_top" xlink:title=" ">
<polygon fill="white" stroke="transparent" points="398,-1094 283,-1094 283,-940 398,-940 398,-1094"/>
<text text-anchor="start" x="309.5" y="-1082" font-family="Ubuntu Mono" font-size="10.00">HHGateBase</text>
<text text-anchor="start" x="339" y="-1067" font-family="Ubuntu Mono" font-size="10.00"> </text>
<text text-anchor="start" x="287.5" y="-1052" font-family="Ubuntu Mono" font-size="10.00">+</text>
<text text-anchor="start" x="300.5" y="-1052" font-family="Ubuntu Mono" font-size="10.00">checkOriginal()</text>
<text text-anchor="start" x="287.5" y="-1037" font-family="Ubuntu Mono" font-size="10.00">+</text>
<text text-anchor="start" x="300.5" y="-1037" font-family="Ubuntu Mono" font-size="10.00">HHGateBase()</text>
<text text-anchor="start" x="287.5" y="-1022" font-family="Ubuntu Mono" font-size="10.00">+</text>
<text text-anchor="start" x="300.5" y="-1022" font-family="Ubuntu Mono" font-size="10.00">HHGateBase()</text>
<text text-anchor="start" x="287.5" y="-1007" font-family="Ubuntu Mono" font-size="10.00">+</text>
<text text-anchor="start" x="300.5" y="-1007" font-family="Ubuntu Mono" font-size="10.00">isOriginalChannel()</text>
<text text-anchor="start" x="287.5" y="-992" font-family="Ubuntu Mono" font-size="10.00">+</text>
<text text-anchor="start" x="300.5" y="-992" font-family="Ubuntu Mono" font-size="10.00">isOriginalGate()</text>
<text text-anchor="start" x="287.5" y="-977" font-family="Ubuntu Mono" font-size="10.00">+</text>
<text text-anchor="start" x="300.5" y="-977" font-family="Ubuntu Mono" font-size="10.00">originalChannelId()</text>
<text text-anchor="start" x="287.5" y="-962" font-family="Ubuntu Mono" font-size="10.00">+</text>
<text text-anchor="start" x="300.5" y="-962" font-family="Ubuntu Mono" font-size="10.00">originalGateId()</text>
<text text-anchor="start" x="287.5" y="-947" font-family="Ubuntu Mono" font-size="10.00">+</text>
<text text-anchor="start" x="300.5" y="-947" font-family="Ubuntu Mono" font-size="10.00">initCinfo()</text>
<polygon fill="#666666" stroke="#666666" points="283.5,-1077 283.5,-1077 398.5,-1077 398.5,-1077 283.5,-1077"/>
<polygon fill="#666666" stroke="#666666" points="283.5,-1062 283.5,-1062 398.5,-1062 398.5,-1062 283.5,-1062"/>
<polygon fill="none" stroke="#666666" points="283,-940 283,-1094 398,-1094 398,-940 283,-940"/>
</a>
</g>
</g>
<!-- Node5&#45;&gt;Node7 -->
<g id="edge7_Node000007_Node000005" class="edge">
<title>Node5&#45;&gt;Node7</title>
<g id="a_edge7_Node000007_Node000005"><a xlink:title=" ">
<path fill="none" stroke="#63b8ff" d="M245.58,-1396.28C253.59,-1370.48 261.49,-1344.1 268.5,-1319 288.39,-1247.8 307.7,-1166.2 321.3,-1105.93"/>
<polygon fill="none" stroke="#63b8ff" points="321.32,-1105.88 318.73,-1099.15 323.95,-1094.18 326.53,-1100.91 321.32,-1105.88"/>
</a>
</g>
<text text-anchor="middle" x="307.5" y="-1351" font-family="Ubuntu Mono" font-size="10.00" fill="grey"> #originalChanId_</text>
<text text-anchor="middle" x="307.5" y="-1340" font-family="Ubuntu Mono" font-size="10.00" fill="grey">#originalGateId_</text>
</g>
<!-- Node6&#45;&gt;Node1 -->
<g id="edge5_Node000001_Node000006" class="edge">
<title>Node6&#45;&gt;Node1</title>
<g id="a_edge5_Node000001_Node000006"><a xlink:title=" ">
<path fill="none" stroke="#63b8ff" d="M164.98,-282.56C158.92,-263.48 152.81,-244.26 146.98,-225.91"/>
<polygon fill="none" stroke="#63b8ff" points="146.92,-225.73 141.29,-221.22 143.28,-214.3 148.91,-218.8 146.92,-225.73"/>
</a>
</g>
<text text-anchor="middle" x="180.5" y="-257" font-family="Ubuntu Mono" font-size="10.00" fill="grey"> &#45;xGate_</text>
<text text-anchor="middle" x="180.5" y="-246" font-family="Ubuntu Mono" font-size="10.00" fill="grey">&#45;yGate_</text>
<text text-anchor="middle" x="180.5" y="-235" font-family="Ubuntu Mono" font-size="10.00" fill="grey">&#45;zGate_</text>
</g>
<!-- Node7&#45;&gt;Node6 -->
<g id="edge6_Node000006_Node000007" class="edge">
<title>Node7&#45;&gt;Node6</title>
<g id="a_edge6_Node000006_Node000007"><a xlink:title=" ">
<path fill="none" stroke="#63b8ff" d="M321.77,-930.2C302.88,-843.71 273.3,-708.21 250.13,-602.12"/>
<polygon fill="none" stroke="#63b8ff" points="318.35,-930.95 323.9,-939.98 325.19,-929.46 318.35,-930.95"/>
</a>
</g>
</g>
<!-- Node8 -->
<g id="Node000008" class="node">
<title>Node8</title>
<g id="a_Node000008"><a xlink:title=" ">
<polygon fill="white" stroke="transparent" points="534.5,-1041.5 416.5,-1041.5 416.5,-992.5 534.5,-992.5 534.5,-1041.5"/>
<text text-anchor="start" x="421.5" y="-1029" font-family="Ubuntu Mono" font-size="10.00">std::vector&lt; double &gt;</text>
<text text-anchor="start" x="433" y="-1014" font-family="Ubuntu Mono" font-size="10.00">+</text>
<text text-anchor="start" x="458.5" y="-1014" font-family="Ubuntu Mono" font-size="10.00">elements</text>
<text text-anchor="start" x="473.5" y="-999" font-family="Ubuntu Mono" font-size="10.00"> </text>
<polygon fill="#666666" stroke="#666666" points="416.5,-1024 416.5,-1024 534.5,-1024 534.5,-1024 416.5,-1024"/>
<polygon fill="#666666" stroke="#666666" points="416.5,-1009 416.5,-1009 456.5,-1009 456.5,-1009 416.5,-1009"/>
<polygon fill="#666666" stroke="#666666" points="456.5,-1009 456.5,-1009 534.5,-1009 534.5,-1009 456.5,-1009"/>
<polygon fill="none" stroke="#666666" points="416.5,-992.5 416.5,-1041.5 534.5,-1041.5 534.5,-992.5 416.5,-992.5"/>
</a>
</g>
</g>
<!-- Node8&#45;&gt;Node6 -->
<g id="edge8_Node000006_Node000008" class="edge">
<title>Node8&#45;&gt;Node6</title>
<g id="a_edge8_Node000006_Node000008"><a xlink:title=" ">
<path fill="none" stroke="#63b8ff" d="M473.22,-992.37C467.53,-940.28 449.93,-812.45 406.5,-715 376.91,-648.61 330.12,-581.74 290.26,-530.97"/>
<polygon fill="none" stroke="#63b8ff" points="290.09,-530.77 283.23,-528.55 282.64,-521.36 289.5,-523.58 290.09,-530.77"/>
</a>
</g>
<text text-anchor="middle" x="419.5" y="-689" font-family="Ubuntu Mono" font-size="10.00" fill="grey"> &#45;A_</text>
<text text-anchor="middle" x="419.5" y="-678" font-family="Ubuntu Mono" font-size="10.00" fill="grey">&#45;B_</text>
<text text-anchor="middle" x="419.5" y="-667" font-family="Ubuntu Mono" font-size="10.00" fill="grey">&#45;alpha_</text>
<text text-anchor="middle" x="419.5" y="-656" font-family="Ubuntu Mono" font-size="10.00" fill="grey">&#45;beta_</text>
<text text-anchor="start" x="395.5" y="-645" font-family="Ubuntu Mono" font-size="10.00" fill="grey">&#45;mInfinity</text>
<text text-anchor="middle" x="419.5" y="-634" font-family="Ubuntu Mono" font-size="10.00" fill="grey">_</text>
<text text-anchor="middle" x="419.5" y="-623" font-family="Ubuntu Mono" font-size="10.00" fill="grey">&#45;tau_</text>
</g>
<!-- Node9 -->
<g id="Node000009" class="node">
<title>Node9</title>
<g id="a_Node000009"><a xlink:title=" ">
<polygon fill="white" stroke="transparent" points="521,-1591 430,-1591 430,-1542 521,-1542 521,-1591"/>
<text text-anchor="start" x="435.5" y="-1578.5" font-family="Ubuntu Mono" font-size="10.00">std::vector&lt; T &gt;</text>
<text text-anchor="start" x="474" y="-1563.5" font-family="Ubuntu Mono" font-size="10.00"> </text>
<text text-anchor="start" x="474" y="-1548.5" font-family="Ubuntu Mono" font-size="10.00"> </text>
<polygon fill="#666666" stroke="#666666" points="430.5,-1573.5 430.5,-1573.5 521.5,-1573.5 521.5,-1573.5 430.5,-1573.5"/>
<polygon fill="#666666" stroke="#666666" points="430.5,-1558.5 430.5,-1558.5 521.5,-1558.5 521.5,-1558.5 430.5,-1558.5"/>
<polygon fill="none" stroke="#666666" points="430,-1542 430,-1591 521,-1591 521,-1542 430,-1542"/>
</a>
</g>
</g>
<!-- Node9&#45;&gt;Node8 -->
<g id="edge9_Node000008_Node000009" class="edge">
<title>Node9&#45;&gt;Node8</title>
<g id="a_edge9_Node000008_Node000009"><a xlink:title=" ">
<path fill="none" stroke="orange" d="M475.5,-1531.67C475.5,-1429.98 475.5,-1128.7 475.5,-1041.75"/>
<polygon fill="orange" stroke="orange" points="472,-1531.97 475.5,-1541.97 479,-1531.97 472,-1531.97"/>
</a>
</g>
<text text-anchor="middle" x="505" y="-1345.5" font-family="Ubuntu Mono" font-size="10.00" fill="grey"> &lt; double &gt;</text>
</g>
<!-- Node10 -->
<g id="Node000010" class="node">
<title>Node10</title>
<g id="a_Node000010"><a xlink:title=" ">
<polygon fill="white" stroke="transparent" points="484,-1957 467,-1957 467,-1908 484,-1908 484,-1957"/>
<text text-anchor="start" x="472.5" y="-1944.5" font-family="Ubuntu Mono" font-size="10.00">T</text>
<text text-anchor="start" x="474" y="-1929.5" font-family="Ubuntu Mono" font-size="10.00"> </text>
<text text-anchor="start" x="474" y="-1914.5" font-family="Ubuntu Mono" font-size="10.00"> </text>
<polygon fill="#666666" stroke="#666666" points="467.5,-1939.5 467.5,-1939.5 484.5,-1939.5 484.5,-1939.5 467.5,-1939.5"/>
<polygon fill="#666666" stroke="#666666" points="467.5,-1924.5 467.5,-1924.5 484.5,-1924.5 484.5,-1924.5 467.5,-1924.5"/>
<polygon fill="none" stroke="#666666" points="467,-1908 467,-1957 484,-1957 484,-1908 467,-1908"/>
</a>
</g>
</g>
<!-- Node10&#45;&gt;Node9 -->
<g id="edge10_Node000009_Node000010" class="edge">
<title>Node10&#45;&gt;Node9</title>
<g id="a_edge10_Node000009_Node000010"><a xlink:title=" ">
<path fill="none" stroke="#63b8ff" d="M475.5,-1907.9C475.5,-1845.78 475.5,-1677.43 475.5,-1603.33"/>
<polygon fill="none" stroke="#63b8ff" points="475.5,-1603.05 471.5,-1597.05 475.5,-1591.05 479.5,-1597.05 475.5,-1603.05"/>
</a>
</g>
<text text-anchor="middle" x="504.5" y="-1777" font-family="Ubuntu Mono" font-size="10.00" fill="grey"> +elements</text>
</g>
</g>
</svg>
