<?xml version="1.0" encoding="UTF-8" standalone="no"?>
<!DOCTYPE svg PUBLIC "-//W3C//DTD SVG 1.1//EN"
 "http://www.w3.org/Graphics/SVG/1.1/DTD/svg11.dtd">
<!-- Generated by graphviz version 2.43.0 (0)
 -->
<!-- Title: Streamer::addTable Pages: 1 -->
<!--zoomable 753 -->

<svg id="main" version="1.1" xmlns="http://www.w3.org/2000/svg" xmlns:xlink="http://www.w3.org/1999/xlink" xml:space="preserve" onload="init(evt)">
<style type="text/css"><![CDATA[
.node, .edge {opacity: 0.7;}
.node.selected, .edge.selected {opacity: 1;}
.edge:hover path { stroke: red; }
.edge:hover polygon { stroke: red; fill: red; }
]]></style>

<defs>
  <circle id="rim" cx="0" cy="0" r="7"/>
  <circle id="rim2" cx="0" cy="0" r="3.5"/>
  <g id="zoomPlus">
    <use xlink:href="#rim" fill="#404040"><set attributeName="fill" to="#808080" begin="zoomplus.mouseover" end="zoomplus.mouseout"/></use>
    <path d="M-4,0h8M0,-4v8" fill="none" stroke="white" stroke-width="1.5" pointer-events="none"/>
  </g>
  <g id="zoomMin">
    <use xlink:href="#rim" fill="#404040"><set attributeName="fill" to="#808080" begin="zoomminus.mouseover" end="zoomminus.mouseout"/></use>
    <path d="M-4,0h8" fill="none" stroke="white" stroke-width="1.5" pointer-events="none"/>
  </g>
  <g id="arrowUp" transform="translate(30 24)">
    <use xlink:href="#rim"/>
    <path pointer-events="none" fill="none" stroke="white" stroke-width="1.5" d="M0,-3.0v7 M-2.5,-0.5L0,-3.0L2.5,-0.5"/>
  </g>
  <g id="arrowRight" transform="rotate(90) translate(36 -43)">
    <use xlink:href="#rim"/>
    <path pointer-events="none" fill="none" stroke="white" stroke-width="1.5" d="M0,-3.0v7 M-2.5,-0.5L0,-3.0L2.5,-0.5"/>
  </g>
  <g id="arrowDown" transform="rotate(180) translate(-30 -48)">
    <use xlink:href="#rim"/>
    <path pointer-events="none" fill="none" stroke="white" stroke-width="1.5" d="M0,-3.0v7 M-2.5,-0.5L0,-3.0L2.5,-0.5"/>
  </g>
  <g id="arrowLeft" transform="rotate(270) translate(-36 17)">
    <use xlink:href="#rim"/>
    <path pointer-events="none" fill="none" stroke="white" stroke-width="1.5" d="M0,-3.0v7 M-2.5,-0.5L0,-3.0L2.5,-0.5"/>
  </g>
  <g id="resetDef">
    <use xlink:href="#rim2" fill="#404040"><set attributeName="fill" to="#808080" begin="reset.mouseover" end="reset.mouseout"/></use>
  </g>
</defs>
<script type="application/ecmascript">
var viewWidth = 1216;
var viewHeight = 753;
var sectionId = 'dynsection-2';
</script>
<script type="application/ecmascript" xlink:href="svg.min.js"/>
<svg id="graph" class="graph">
<g id="viewport">
<title>Streamer::addTable</title>
<!-- Node1 -->
<g id="Node000001" class="node">
<title>Node1</title>
<g id="a_Node000001"><a xlink:title="Add a table to streamer.">
<polygon fill="#999999" stroke="#666666" points="111,-297 0,-297 0,-278 111,-278 111,-297"/>
<text text-anchor="middle" x="55.5" y="-285" font-family="Ubuntu Mono" font-size="10.00">Streamer::addTable</text>
</a>
</g>
</g>
<!-- Node2 -->
<g id="Node000002" class="node">
<title>Node2</title>
<g id="a_Node000002"><a xlink:href="classEref.html#ac605440cdeae71e424022cd849a2866d" target="_top" xlink:title=" ">
<polygon fill="white" stroke="#666666" points="918.5,-690 855.5,-690 855.5,-671 918.5,-671 918.5,-690"/>
<text text-anchor="middle" x="887" y="-678" font-family="Ubuntu Mono" font-size="10.00">Eref::data</text>
</a>
</g>
</g>
<!-- Node1&#45;&gt;Node2 -->
<g id="edge1_Node000001_Node000002" class="edge">
<title>Node1&#45;&gt;Node2</title>
<g id="a_edge1_Node000001_Node000002"><a xlink:title=" ">
<path fill="none" stroke="#63b8ff" d="M59.88,-297.15C81.15,-355.84 202.15,-662.5 409,-662.5 409,-662.5 409,-662.5 542,-662.5 651.62,-662.5 780.62,-671.73 845.05,-676.97"/>
<polygon fill="#63b8ff" stroke="#63b8ff" points="844.94,-680.47 855.19,-677.81 845.51,-673.5 844.94,-680.47"/>
</a>
</g>
</g>
<!-- Node8 -->
<g id="Node000008" class="node">
<title>Node8</title>
<g id="a_Node000008"><a xlink:href="classObjId.html#ad87d6d712e4bceb381d1d324aa137d6e" target="_top" xlink:title=" ">
<polygon fill="white" stroke="#666666" points="585.5,-19 496.5,-19 496.5,0 585.5,0 585.5,-19"/>
<text text-anchor="middle" x="541" y="-7" font-family="Ubuntu Mono" font-size="10.00">ObjId::element</text>
</a>
</g>
</g>
<!-- Node1&#45;&gt;Node8 -->
<g id="edge7_Node000001_Node000008" class="edge">
<title>Node1&#45;&gt;Node8</title>
<g id="a_edge7_Node000001_Node000008"><a xlink:title=" ">
<path fill="none" stroke="#63b8ff" d="M111.13,-296.88C170.22,-304.14 265.18,-307.21 334,-267.5 438.21,-207.38 399.48,-127.1 486,-43.5 493.57,-36.19 502.96,-29.62 511.77,-24.25"/>
<polygon fill="#63b8ff" stroke="#63b8ff" points="513.75,-27.15 520.65,-19.11 510.24,-21.09 513.75,-27.15"/>
</a>
</g>
</g>
<!-- Node11 -->
<g id="Node000011" class="node">
<title>Node11</title>
<g id="a_Node000011"><a xlink:href="classObjId.html#a76a3d4b89944235a24eff983030a5e91" target="_top" xlink:title=" ">
<polygon fill="white" stroke="#666666" points="575,-578 507,-578 507,-559 575,-559 575,-578"/>
<text text-anchor="middle" x="541" y="-566" font-family="Ubuntu Mono" font-size="10.00">ObjId::eref</text>
</a>
</g>
</g>
<!-- Node1&#45;&gt;Node11 -->
<g id="edge10_Node000001_Node000011" class="edge">
<title>Node1&#45;&gt;Node11</title>
<g id="a_edge10_Node000001_Node000011"><a xlink:title=" ">
<path fill="none" stroke="#63b8ff" d="M71.85,-297.05C89.83,-308.23 120.54,-327.27 147,-343.5 297.3,-435.66 326.65,-474.06 486,-549.5 490.37,-551.57 495.04,-553.54 499.72,-555.37"/>
<polygon fill="#63b8ff" stroke="#63b8ff" points="498.69,-558.72 509.28,-558.93 501.13,-552.16 498.69,-558.72"/>
</a>
</g>
</g>
<!-- Node13 -->
<g id="Node000013" class="node">
<title>Node13</title>
<g id="a_Node000013"><a xlink:href="classTable.html#af444eb38a101709cce6fde9d1cb538db" target="_top" xlink:title=" ">
<polygon fill="white" stroke="#666666" points="306,-259 175,-259 175,-240 306,-240 306,-259"/>
<text text-anchor="middle" x="240.5" y="-247" font-family="Ubuntu Mono" font-size="10.00">Table::getColumnName</text>
</a>
</g>
</g>
<!-- Node1&#45;&gt;Node13 -->
<g id="edge13_Node000001_Node000013" class="edge">
<title>Node1&#45;&gt;Node13</title>
<g id="a_edge13_Node000001_Node000013"><a xlink:title=" ">
<path fill="none" stroke="#63b8ff" d="M102.68,-277.91C127.26,-272.81 157.69,-266.49 183.6,-261.11"/>
<polygon fill="#63b8ff" stroke="#63b8ff" points="184.57,-264.48 193.65,-259.02 183.15,-257.63 184.57,-264.48"/>
</a>
</g>
</g>
<!-- Node14 -->
<g id="Node000014" class="node">
<title>Node14</title>
<g id="a_Node000014"><a xlink:href="classElement.html#a36586edca71c0070a9a5a8ccc036c333" target="_top" xlink:title=" ">
<polygon fill="white" stroke="#666666" points="290,-222 191,-222 191,-203 290,-203 290,-222"/>
<text text-anchor="middle" x="240.5" y="-210" font-family="Ubuntu Mono" font-size="10.00">Element::getTick</text>
</a>
</g>
</g>
<!-- Node1&#45;&gt;Node14 -->
<g id="edge14_Node000001_Node000014" class="edge">
<title>Node1&#45;&gt;Node14</title>
<g id="a_edge14_Node000001_Node000014"><a xlink:title=" ">
<path fill="none" stroke="#63b8ff" d="M68.59,-277.81C85.23,-264.96 116.62,-242.53 147,-230.5 157.59,-226.31 169.26,-223.06 180.64,-220.56"/>
<polygon fill="#63b8ff" stroke="#63b8ff" points="181.43,-223.97 190.53,-218.55 180.03,-217.11 181.43,-223.97"/>
</a>
</g>
</g>
<!-- Node15 -->
<g id="Node000015" class="node">
<title>Node15</title>
<g id="a_Node000015"><a xlink:href="namespacemoose.html#aad78fa063b75455dd3fff944e784d92b" target="_top" xlink:title=" ">
<polygon fill="white" stroke="#666666" points="334,-185 147,-185 147,-166 334,-166 334,-185"/>
<text text-anchor="middle" x="240.5" y="-173" font-family="Ubuntu Mono" font-size="10.00">moose::moosePathToColumnName</text>
</a>
</g>
</g>
<!-- Node1&#45;&gt;Node15 -->
<g id="edge15_Node000001_Node000015" class="edge">
<title>Node1&#45;&gt;Node15</title>
<g id="a_edge15_Node000001_Node000015"><a xlink:title=" ">
<path fill="none" stroke="#63b8ff" d="M62.66,-277.93C75.67,-258.55 108,-214.72 147,-193.5 150.46,-191.62 154.08,-189.93 157.81,-188.42"/>
<polygon fill="#63b8ff" stroke="#63b8ff" points="159.05,-191.7 167.27,-185.01 156.67,-185.11 159.05,-191.7"/>
</a>
</g>
</g>
<!-- Node16 -->
<g id="Node000016" class="node">
<title>Node16</title>
<g id="a_Node000016"><a xlink:href="classObjId.html#a4d6f6e6b6f3c279334cf9f10a277df49" target="_top" xlink:title=" ">
<polygon fill="white" stroke="#666666" points="275.5,-335 205.5,-335 205.5,-316 275.5,-316 275.5,-335"/>
<text text-anchor="middle" x="240.5" y="-323" font-family="Ubuntu Mono" font-size="10.00">ObjId::path</text>
</a>
</g>
</g>
<!-- Node1&#45;&gt;Node16 -->
<g id="edge16_Node000001_Node000016" class="edge">
<title>Node1&#45;&gt;Node16</title>
<g id="a_edge16_Node000001_Node000016"><a xlink:title=" ">
<path fill="none" stroke="#63b8ff" d="M102.68,-297.09C131.16,-303 167.47,-310.54 195.53,-316.37"/>
<polygon fill="#63b8ff" stroke="#63b8ff" points="194.97,-319.83 205.47,-318.43 196.39,-312.97 194.97,-319.83"/>
</a>
</g>
</g>
<!-- Node3 -->
<g id="Node000003" class="node">
<title>Node3</title>
<g id="a_Node000003"><a xlink:href="classElement.html#a1978a0a584f1b10ea4a7c67e69880042" target="_top" xlink:title=" ">
<polygon fill="white" stroke="#666666" points="1056.5,-690 971.5,-690 971.5,-671 1056.5,-671 1056.5,-690"/>
<text text-anchor="middle" x="1014" y="-678" font-family="Ubuntu Mono" font-size="10.00">Element::data</text>
</a>
</g>
</g>
<!-- Node2&#45;&gt;Node3 -->
<g id="edge2_Node000002_Node000003" class="edge">
<title>Node2&#45;&gt;Node3</title>
<g id="a_edge2_Node000002_Node000003"><a xlink:title=" ">
<path fill="none" stroke="#63b8ff" d="M918.58,-680.5C931.37,-680.5 946.61,-680.5 961.07,-680.5"/>
<polygon fill="#63b8ff" stroke="#63b8ff" points="961.41,-684 971.41,-680.5 961.41,-677 961.41,-684"/>
</a>
</g>
</g>
<!-- Node4 -->
<g id="Node000004" class="node">
<title>Node4</title>
<g id="a_Node000004"><a xlink:href="classEref.html#a72bb0cb6e699b5beb80e9f35eb07e392" target="_top" xlink:title=" ">
<polygon fill="white" stroke="#666666" points="1062,-727 966,-727 966,-708 1062,-708 1062,-727"/>
<text text-anchor="middle" x="1014" y="-715" font-family="Ubuntu Mono" font-size="10.00">Eref::isDataHere</text>
</a>
</g>
</g>
<!-- Node2&#45;&gt;Node4 -->
<g id="edge3_Node000002_Node000004" class="edge">
<title>Node2&#45;&gt;Node4</title>
<g id="a_edge3_Node000002_Node000004"><a xlink:title=" ">
<path fill="none" stroke="#63b8ff" d="M918.58,-689.55C934.29,-694.2 953.67,-699.94 970.79,-705"/>
<polygon fill="#63b8ff" stroke="#63b8ff" points="969.97,-708.41 980.55,-707.9 971.96,-701.7 969.97,-708.41"/>
</a>
</g>
</g>
<!-- Node7 -->
<g id="Node000007" class="node">
<title>Node7</title>
<g id="a_Node000007"><a xlink:href="classElement.html#a73a0e468a3d6cfd6475fff4a56459075" target="_top" xlink:title=" ">
<polygon fill="white" stroke="#666666" points="1068,-653 960,-653 960,-634 1068,-634 1068,-653"/>
<text text-anchor="middle" x="1014" y="-641" font-family="Ubuntu Mono" font-size="10.00">Element::rawIndex</text>
</a>
</g>
</g>
<!-- Node2&#45;&gt;Node7 -->
<g id="edge6_Node000002_Node000007" class="edge">
<title>Node2&#45;&gt;Node7</title>
<g id="a_edge6_Node000002_Node000007"><a xlink:title=" ">
<path fill="none" stroke="#63b8ff" d="M918.58,-671.45C934.29,-666.8 953.67,-661.06 970.79,-656"/>
<polygon fill="#63b8ff" stroke="#63b8ff" points="971.96,-659.3 980.55,-653.1 969.97,-652.59 971.96,-659.3"/>
</a>
</g>
</g>
<!-- Node5 -->
<g id="Node000005" class="node">
<title>Node5</title>
<g id="a_Node000005"><a xlink:href="classElement.html#a6350d721871c508fbf68286a3907e4a1" target="_top" xlink:title="Returns node number of specified dataIndex.">
<polygon fill="white" stroke="#666666" points="1208,-708 1104,-708 1104,-689 1208,-689 1208,-708"/>
<text text-anchor="middle" x="1156" y="-696" font-family="Ubuntu Mono" font-size="10.00">Element::getNode</text>
</a>
</g>
</g>
<!-- Node4&#45;&gt;Node5 -->
<g id="edge4_Node000004_Node000005" class="edge">
<title>Node4&#45;&gt;Node5</title>
<g id="a_edge4_Node000004_Node000005"><a xlink:title=" ">
<path fill="none" stroke="#63b8ff" d="M1062.01,-711.12C1072.12,-709.75 1082.95,-708.28 1093.52,-706.84"/>
<polygon fill="#63b8ff" stroke="#63b8ff" points="1094.11,-710.3 1103.55,-705.48 1093.17,-703.36 1094.11,-710.3"/>
</a>
</g>
</g>
<!-- Node6 -->
<g id="Node000006" class="node">
<title>Node6</title>
<g id="a_Node000006"><a xlink:href="classShell.html#a4c3608b6ca5fcec63a13b12c49b9d530" target="_top" xlink:title=" ">
<polygon fill="white" stroke="#666666" points="1200,-745 1112,-745 1112,-726 1200,-726 1200,-745"/>
<text text-anchor="middle" x="1156" y="-733" font-family="Ubuntu Mono" font-size="10.00">Shell::myNode</text>
</a>
</g>
</g>
<!-- Node4&#45;&gt;Node6 -->
<g id="edge5_Node000004_Node000006" class="edge">
<title>Node4&#45;&gt;Node6</title>
<g id="a_edge5_Node000004_Node000006"><a xlink:title=" ">
<path fill="none" stroke="#63b8ff" d="M1062.01,-723.54C1074.67,-725.17 1088.46,-726.94 1101.45,-728.61"/>
<polygon fill="#63b8ff" stroke="#63b8ff" points="1101.29,-732.12 1111.66,-729.93 1102.19,-725.18 1101.29,-732.12"/>
</a>
</g>
</g>
<!-- Node9 -->
<g id="Node000009" class="node">
<title>Node9</title>
<g id="a_Node000009"><a xlink:href="classId.html#a574e06330597163aef0ea4c99de7ff4a" target="_top" xlink:title="Synonym for Id::operator()()">
<polygon fill="white" stroke="#666666" points="1050,-615 978,-615 978,-596 1050,-596 1050,-615"/>
<text text-anchor="middle" x="1014" y="-603" font-family="Ubuntu Mono" font-size="10.00">Id::element</text>
</a>
</g>
</g>
<!-- Node8&#45;&gt;Node9 -->
<g id="edge8_Node000008_Node000009" class="edge">
<title>Node8&#45;&gt;Node9</title>
<g id="a_edge8_Node000008_Node000009"><a xlink:title=" ">
<path fill="none" stroke="#63b8ff" d="M565.69,-19.13C615.84,-40.36 734.65,-95.2 814,-168.5 946.27,-290.69 997.01,-517.8 1009.63,-585.78"/>
<polygon fill="#63b8ff" stroke="#63b8ff" points="1006.24,-586.7 1011.45,-595.93 1013.13,-585.47 1006.24,-586.7"/>
</a>
</g>
</g>
<!-- Node10 -->
<g id="Node000010" class="node">
<title>Node10</title>
<g id="a_Node000010"><a xlink:href="classId.html#a2d5e7b4d5d918aadfe45102691c2be27" target="_top" xlink:title=" ">
<polygon fill="white" stroke="#666666" points="1194.5,-615 1117.5,-615 1117.5,-596 1194.5,-596 1194.5,-615"/>
<text text-anchor="middle" x="1156" y="-603" font-family="Ubuntu Mono" font-size="10.00">Id::elements</text>
</a>
</g>
</g>
<!-- Node9&#45;&gt;Node10 -->
<g id="edge9_Node000009_Node000010" class="edge">
<title>Node9&#45;&gt;Node10</title>
<g id="a_edge9_Node000009_Node000010"><a xlink:title=" ">
<path fill="none" stroke="#63b8ff" d="M1050.33,-605.5C1067.55,-605.5 1088.52,-605.5 1107.16,-605.5"/>
<polygon fill="#63b8ff" stroke="#63b8ff" points="1107.23,-609 1117.23,-605.5 1107.23,-602 1107.23,-609"/>
</a>
</g>
</g>
<!-- Node11&#45;&gt;Node9 -->
<g id="edge11_Node000011_Node000009" class="edge">
<title>Node11&#45;&gt;Node9</title>
<g id="a_edge11_Node000011_Node000009"><a xlink:title=" ">
<path fill="none" stroke="#63b8ff" d="M575.17,-575.87C592.1,-579.35 613.05,-583.22 632,-585.5 752.82,-600.02 896.45,-604 967.92,-605.09"/>
<polygon fill="#63b8ff" stroke="#63b8ff" points="967.88,-608.59 977.93,-605.23 967.98,-601.59 967.88,-608.59"/>
</a>
</g>
</g>
<!-- Node12 -->
<g id="Node000012" class="node">
<title>Node12</title>
<g id="a_Node000012"><a xlink:href="classEref.html#a3addb850bc6cbac7771a07de219d909d" target="_top" xlink:title=" ">
<polygon fill="white" stroke="#666666" points="753.5,-577 692.5,-577 692.5,-558 753.5,-558 753.5,-577"/>
<text text-anchor="middle" x="723" y="-565" font-family="Ubuntu Mono" font-size="10.00">Eref::Eref</text>
</a>
</g>
</g>
<!-- Node11&#45;&gt;Node12 -->
<g id="edge12_Node000011_Node000012" class="edge">
<title>Node11&#45;&gt;Node12</title>
<g id="a_edge12_Node000011_Node000012"><a xlink:title=" ">
<path fill="none" stroke="#63b8ff" d="M575.01,-568.32C605.2,-568.15 649.9,-567.9 682.08,-567.72"/>
<polygon fill="#63b8ff" stroke="#63b8ff" points="682.49,-571.22 692.48,-567.66 682.46,-564.22 682.49,-571.22"/>
</a>
</g>
</g>
<!-- Node16&#45;&gt;Node11 -->
<g id="edge17_Node000016_Node000011" class="edge">
<title>Node16&#45;&gt;Node11</title>
<g id="a_edge17_Node000016_Node000011"><a xlink:title=" ">
<path fill="none" stroke="#63b8ff" d="M264.47,-335.03C306.69,-353.63 397.15,-398.58 450,-462.5 476.67,-494.75 455.62,-520.72 486,-549.5 489.38,-552.7 493.33,-555.37 497.53,-557.59"/>
<polygon fill="#63b8ff" stroke="#63b8ff" points="496.43,-560.93 506.99,-561.76 499.26,-554.52 496.43,-560.93"/>
</a>
</g>
</g>
<!-- Node17 -->
<g id="Node000017" class="node">
<title>Node17</title>
<g id="a_Node000017"><a xlink:href="classNeutral.html#a93bee6d27f95c8c4c7eb3640cd883a98" target="_top" xlink:title=" ">
<polygon fill="white" stroke="#666666" points="450,-335 370,-335 370,-316 450,-316 450,-335"/>
<text text-anchor="middle" x="410" y="-323" font-family="Ubuntu Mono" font-size="10.00">Neutral::path</text>
</a>
</g>
</g>
<!-- Node16&#45;&gt;Node17 -->
<g id="edge18_Node000016_Node000017" class="edge">
<title>Node16&#45;&gt;Node17</title>
<g id="a_edge18_Node000016_Node000017"><a xlink:title=" ">
<path fill="none" stroke="#63b8ff" d="M275.8,-325.5C299.99,-325.5 332.75,-325.5 359.73,-325.5"/>
<polygon fill="#63b8ff" stroke="#63b8ff" points="359.75,-329 369.75,-325.5 359.75,-322 359.75,-329"/>
</a>
</g>
</g>
<!-- Node17&#45;&gt;Node8 -->
<g id="edge20_Node000017_Node000008" class="edge">
<title>Node17&#45;&gt;Node8</title>
<g id="a_edge20_Node000017_Node000008"><a xlink:title=" ">
<path fill="none" stroke="#63b8ff" d="M434.01,-315.88C440.12,-312.25 446.1,-307.5 450,-301.5 515.49,-200.73 413.93,-129.68 486,-33.5 488.74,-29.85 492.16,-26.74 495.94,-24.09"/>
<polygon fill="#63b8ff" stroke="#63b8ff" points="497.78,-27.07 504.66,-19.02 494.26,-21.02 497.78,-27.07"/>
</a>
</g>
</g>
<!-- Node17&#45;&gt;Node11 -->
<g id="edge21_Node000017_Node000011" class="edge">
<title>Node17&#45;&gt;Node11</title>
<g id="a_edge21_Node000017_Node000011"><a xlink:title=" ">
<path fill="none" stroke="#63b8ff" d="M420.19,-335.23C429.16,-345.28 442.53,-361.82 450,-378.5 481.74,-449.39 434.79,-491.11 486,-549.5 489.23,-553.18 493.22,-556.15 497.55,-558.54"/>
<polygon fill="#63b8ff" stroke="#63b8ff" points="496.24,-561.79 506.8,-562.69 499.11,-555.41 496.24,-561.79"/>
</a>
</g>
</g>
<!-- Node18 -->
<g id="Node000018" class="node">
<title>Node18</title>
<g id="a_Node000018"><a xlink:href="classEref.html#a47b59ab86165cceb0bde80c76c3f7fa2" target="_top" xlink:title=" ">
<polygon fill="white" stroke="#666666" points="582,-354 500,-354 500,-335 582,-335 582,-354"/>
<text text-anchor="middle" x="541" y="-342" font-family="Ubuntu Mono" font-size="10.00">Eref::element</text>
</a>
</g>
</g>
<!-- Node17&#45;&gt;Node18 -->
<g id="edge19_Node000017_Node000018" class="edge">
<title>Node17&#45;&gt;Node18</title>
<g id="a_edge19_Node000017_Node000018"><a xlink:title=" ">
<path fill="none" stroke="#63b8ff" d="M450.05,-331.25C462.58,-333.1 476.64,-335.17 489.84,-337.11"/>
<polygon fill="#63b8ff" stroke="#63b8ff" points="489.34,-340.58 499.74,-338.57 490.36,-333.65 489.34,-340.58"/>
</a>
</g>
</g>
<!-- Node19 -->
<g id="Node000019" class="node">
<title>Node19</title>
<g id="a_Node000019"><a xlink:href="classEref.html#aed748cb72c986c869e4c650dd28d8d02" target="_top" xlink:title=" ">
<polygon fill="white" stroke="#666666" points="585.5,-317 496.5,-317 496.5,-298 585.5,-298 585.5,-317"/>
<text text-anchor="middle" x="541" y="-305" font-family="Ubuntu Mono" font-size="10.00">Eref::fieldIndex</text>
</a>
</g>
</g>
<!-- Node17&#45;&gt;Node19 -->
<g id="edge22_Node000017_Node000019" class="edge">
<title>Node17&#45;&gt;Node19</title>
<g id="a_edge22_Node000017_Node000019"><a xlink:title=" ">
<path fill="none" stroke="#63b8ff" d="M450.05,-320.05C461.41,-318.47 474.02,-316.71 486.11,-315.02"/>
<polygon fill="#63b8ff" stroke="#63b8ff" points="486.7,-318.47 496.12,-313.62 485.73,-311.54 486.7,-318.47"/>
</a>
</g>
</g>
<!-- Node20 -->
<g id="Node000020" class="node">
<title>Node20</title>
<g id="a_Node000020"><a xlink:href="classElement.html#a3c07cf6355e6127827ce67682e3bb2a0" target="_top" xlink:title=" ">
<polygon fill="white" stroke="#666666" points="596,-428 486,-428 486,-409 596,-409 596,-428"/>
<text text-anchor="middle" x="541" y="-416" font-family="Ubuntu Mono" font-size="10.00">Element::findCaller</text>
</a>
</g>
</g>
<!-- Node17&#45;&gt;Node20 -->
<g id="edge23_Node000017_Node000020" class="edge">
<title>Node17&#45;&gt;Node20</title>
<g id="a_edge23_Node000017_Node000020"><a xlink:title=" ">
<path fill="none" stroke="#63b8ff" d="M418.28,-335.03C430.63,-350.58 457.15,-381.47 486,-399.5 489.18,-401.49 492.59,-403.3 496.11,-404.95"/>
<polygon fill="#63b8ff" stroke="#63b8ff" points="494.96,-408.26 505.53,-408.93 497.68,-401.82 494.96,-408.26"/>
</a>
</g>
</g>
<!-- Node24 -->
<g id="Node000024" class="node">
<title>Node24</title>
<g id="a_Node000024"><a xlink:href="classMsg.html#a1a57001709e44ab056a704c24760c105" target="_top" xlink:title=" ">
<polygon fill="white" stroke="#666666" points="762.5,-503 683.5,-503 683.5,-484 762.5,-484 762.5,-503"/>
<text text-anchor="middle" x="723" y="-491" font-family="Ubuntu Mono" font-size="10.00">Msg::getMsg</text>
</a>
</g>
</g>
<!-- Node17&#45;&gt;Node24 -->
<g id="edge38_Node000017_Node000024" class="edge">
<title>Node17&#45;&gt;Node24</title>
<g id="a_edge38_Node000017_Node000024"><a xlink:title=" ">
<path fill="none" stroke="#63b8ff" d="M419.34,-335.11C427.89,-345.34 441.15,-362.24 450,-378.5 471.58,-418.16 449.96,-446.3 486,-473.5 539.84,-514.14 621.6,-510.91 673.38,-503.34"/>
<polygon fill="#63b8ff" stroke="#63b8ff" points="673.98,-506.79 683.32,-501.78 672.9,-499.87 673.98,-506.79"/>
</a>
</g>
</g>
<!-- Node29 -->
<g id="Node000029" class="node">
<title>Node29</title>
<g id="a_Node000029"><a xlink:href="classCinfo.html#a7642d2a9ffe54cc8008df39de171ab63" target="_top" xlink:title=" ">
<polygon fill="white" stroke="#666666" points="586,-243 496,-243 496,-224 586,-224 586,-243"/>
<text text-anchor="middle" x="541" y="-231" font-family="Ubuntu Mono" font-size="10.00">Cinfo::findFinfo</text>
</a>
</g>
</g>
<!-- Node17&#45;&gt;Node29 -->
<g id="edge35_Node000017_Node000029" class="edge">
<title>Node17&#45;&gt;Node29</title>
<g id="a_edge35_Node000017_Node000029"><a xlink:title=" ">
<path fill="none" stroke="#63b8ff" d="M429.91,-315.89C436.66,-311.95 444.06,-307.02 450,-301.5 470.05,-282.85 463.94,-267.73 486,-251.5 487.88,-250.12 489.86,-248.84 491.93,-247.66"/>
<polygon fill="#63b8ff" stroke="#63b8ff" points="493.9,-250.59 501.35,-243.05 490.82,-244.3 493.9,-250.59"/>
</a>
</g>
</g>
<!-- Node30 -->
<g id="Node000030" class="node">
<title>Node30</title>
<g id="a_Node000030"><a xlink:href="classMsg.html#a326ed96ece35f632b16de59838db6c29" target="_top" xlink:title=" ">
<polygon fill="white" stroke="#666666" points="594,-206 488,-206 488,-187 594,-187 594,-206"/>
<text text-anchor="middle" x="541" y="-194" font-family="Ubuntu Mono" font-size="10.00">Msg::findOtherEnd</text>
</a>
</g>
</g>
<!-- Node17&#45;&gt;Node30 -->
<g id="edge36_Node000017_Node000030" class="edge">
<title>Node17&#45;&gt;Node30</title>
<g id="a_edge36_Node000017_Node000030"><a xlink:title=" ">
<path fill="none" stroke="#63b8ff" d="M431.86,-315.9C438.33,-312.14 445.05,-307.31 450,-301.5 477.14,-269.65 455.38,-243.03 486,-214.5 487.27,-213.32 488.61,-212.22 490.02,-211.18"/>
<polygon fill="#63b8ff" stroke="#63b8ff" points="491.87,-214.16 498.67,-206.03 488.29,-208.15 491.87,-214.16"/>
</a>
</g>
</g>
<!-- Node31 -->
<g id="Node000031" class="node">
<title>Node31</title>
<g id="a_Node000031"><a xlink:href="classDestFinfo.html#a6efef23ddcfbaef03eca8aa75fdd98cd" target="_top" xlink:title=" ">
<polygon fill="white" stroke="#666666" points="590.5,-169 491.5,-169 491.5,-150 590.5,-150 590.5,-169"/>
<text text-anchor="middle" x="541" y="-157" font-family="Ubuntu Mono" font-size="10.00">DestFinfo::getFid</text>
</a>
</g>
</g>
<!-- Node17&#45;&gt;Node31 -->
<g id="edge37_Node000017_Node000031" class="edge">
<title>Node17&#45;&gt;Node31</title>
<g id="a_edge37_Node000017_Node000031"><a xlink:title=" ">
<path fill="none" stroke="#63b8ff" d="M432.65,-315.97C439.01,-312.26 445.47,-307.45 450,-301.5 484.77,-255.84 446.22,-218.87 486,-177.5 486.92,-176.54 487.9,-175.63 488.92,-174.77"/>
<polygon fill="#63b8ff" stroke="#63b8ff" points="491.11,-177.52 497.49,-169.07 487.23,-171.69 491.11,-177.52"/>
</a>
</g>
</g>
<!-- Node32 -->
<g id="Node000032" class="node">
<title>Node32</title>
<g id="a_Node000032"><a xlink:href="classElement.html#a1a2068a4e70da0f951bc3e73b758ef4a" target="_top" xlink:title=" ">
<polygon fill="white" stroke="#666666" points="595,-132 487,-132 487,-113 595,-113 595,-132"/>
<text text-anchor="middle" x="541" y="-120" font-family="Ubuntu Mono" font-size="10.00">Element::getName</text>
</a>
</g>
</g>
<!-- Node17&#45;&gt;Node32 -->
<g id="edge39_Node000017_Node000032" class="edge">
<title>Node17&#45;&gt;Node32</title>
<g id="a_edge39_Node000017_Node000032"><a xlink:title=" ">
<path fill="none" stroke="#63b8ff" d="M433.28,-315.9C439.52,-312.23 445.75,-307.45 450,-301.5 492.58,-241.81 436.86,-194.92 486,-140.5 486.88,-139.53 487.8,-138.61 488.78,-137.75"/>
<polygon fill="#63b8ff" stroke="#63b8ff" points="490.81,-140.6 497.02,-132.01 486.81,-134.85 490.81,-140.6"/>
</a>
</g>
</g>
<!-- Node33 -->
<g id="Node000033" class="node">
<title>Node33</title>
<g id="a_Node000033"><a xlink:href="classElement.html#a8489d936deee408d78042cf199694bb5" target="_top" xlink:title=" ">
<polygon fill="white" stroke="#666666" points="595.5,-95 486.5,-95 486.5,-76 595.5,-76 595.5,-95"/>
<text text-anchor="middle" x="541" y="-83" font-family="Ubuntu Mono" font-size="10.00">Element::hasFields</text>
</a>
</g>
</g>
<!-- Node17&#45;&gt;Node33 -->
<g id="edge40_Node000017_Node000033" class="edge">
<title>Node17&#45;&gt;Node33</title>
<g id="a_edge40_Node000017_Node000033"><a xlink:title=" ">
<path fill="none" stroke="#63b8ff" d="M433.84,-315.76C439.94,-312.13 445.96,-307.41 450,-301.5 500.47,-227.65 427.4,-171.07 486,-103.5 486.74,-102.64 487.53,-101.82 488.35,-101.04"/>
<polygon fill="#63b8ff" stroke="#63b8ff" points="490.59,-103.75 496.62,-95.03 486.47,-98.09 490.59,-103.75"/>
</a>
</g>
</g>
<!-- Node34 -->
<g id="Node000034" class="node">
<title>Node34</title>
<g id="a_Node000034"><a xlink:href="classId.html#ac094968605676d63b55ca33b7e318948" target="_top" xlink:title=" ">
<polygon fill="white" stroke="#666666" points="743.5,-197 702.5,-197 702.5,-178 743.5,-178 743.5,-197"/>
<text text-anchor="middle" x="723" y="-185" font-family="Ubuntu Mono" font-size="10.00">Id::Id</text>
</a>
</g>
</g>
<!-- Node17&#45;&gt;Node34 -->
<g id="edge41_Node000017_Node000034" class="edge">
<title>Node17&#45;&gt;Node34</title>
<g id="a_edge41_Node000017_Node000034"><a xlink:title=" ">
<path fill="none" stroke="#63b8ff" d="M433.94,-315.84C440.05,-312.2 446.05,-307.46 450,-301.5 508.4,-213.44 405.83,-135.33 486,-66.5 523.09,-34.66 550.65,-48.25 596,-66.5 647.82,-87.35 690.3,-140.83 710.05,-169.2"/>
<polygon fill="#63b8ff" stroke="#63b8ff" points="707.35,-171.45 715.86,-177.77 713.15,-167.53 707.35,-171.45"/>
</a>
</g>
</g>
<!-- Node35 -->
<g id="Node000035" class="node">
<title>Node35</title>
<g id="a_Node000035"><a xlink:href="classObjId.html#aad3d714ee57757ed3754a58edc9ad4a9" target="_top" xlink:title=" ">
<polygon fill="white" stroke="#666666" points="578,-280 504,-280 504,-261 578,-261 578,-280"/>
<text text-anchor="middle" x="541" y="-268" font-family="Ubuntu Mono" font-size="10.00">ObjId::ObjId</text>
</a>
</g>
</g>
<!-- Node17&#45;&gt;Node35 -->
<g id="edge42_Node000017_Node000035" class="edge">
<title>Node17&#45;&gt;Node35</title>
<g id="a_edge42_Node000017_Node000035"><a xlink:title=" ">
<path fill="none" stroke="#63b8ff" d="M428.57,-315.98C443.57,-308.06 465.86,-296.78 486,-288.5 490.23,-286.76 494.69,-285.06 499.16,-283.45"/>
<polygon fill="#63b8ff" stroke="#63b8ff" points="500.6,-286.66 508.89,-280.06 498.3,-280.05 500.6,-286.66"/>
</a>
</g>
</g>
<!-- Node36 -->
<g id="Node000036" class="node">
<title>Node36</title>
<g id="a_Node000036"><a xlink:href="classEref.html#ab305a4ab972b50443b7d35cfd516861a" target="_top" xlink:title=" ">
<polygon fill="white" stroke="#666666" points="573.5,-391 508.5,-391 508.5,-372 573.5,-372 573.5,-391"/>
<text text-anchor="middle" x="541" y="-379" font-family="Ubuntu Mono" font-size="10.00">Eref::objId</text>
</a>
</g>
</g>
<!-- Node17&#45;&gt;Node36 -->
<g id="edge44_Node000017_Node000036" class="edge">
<title>Node17&#45;&gt;Node36</title>
<g id="a_edge44_Node000017_Node000036"><a xlink:title=" ">
<path fill="none" stroke="#63b8ff" d="M428.9,-335.09C443.92,-342.95 466.06,-354.11 486,-362.5 490.86,-364.54 496.02,-366.56 501.15,-368.46"/>
<polygon fill="#63b8ff" stroke="#63b8ff" points="500.3,-371.87 510.89,-371.98 502.67,-365.29 500.3,-371.87"/>
</a>
</g>
</g>
<!-- Node38 -->
<g id="Node000038" class="node">
<title>Node38</title>
<g id="a_Node000038"><a xlink:href="classId.html#a6a4a7d5c9e8524644febc6b6e8dc1ab9" target="_top" xlink:title=" ">
<polygon fill="white" stroke="#666666" points="583.5,-465 498.5,-465 498.5,-446 583.5,-446 583.5,-465"/>
<text text-anchor="middle" x="541" y="-453" font-family="Ubuntu Mono" font-size="10.00">Id::operator!=</text>
</a>
</g>
</g>
<!-- Node17&#45;&gt;Node38 -->
<g id="edge47_Node000017_Node000038" class="edge">
<title>Node17&#45;&gt;Node38</title>
<g id="a_edge47_Node000017_Node000038"><a xlink:title=" ">
<path fill="none" stroke="#63b8ff" d="M418.42,-335.1C426.45,-345.6 439.5,-362.98 450,-378.5 467,-403.63 462.35,-417.5 486,-436.5 488.25,-438.31 490.69,-439.95 493.24,-441.44"/>
<polygon fill="#63b8ff" stroke="#63b8ff" points="491.73,-444.61 502.24,-445.95 494.87,-438.35 491.73,-444.61"/>
</a>
</g>
</g>
<!-- Node39 -->
<g id="Node000039" class="node">
<title>Node39</title>
<g id="a_Node000039"><a xlink:href="classObjId.html#a6a7e5a3ee84c58803fe025943941e67e" target="_top" xlink:title=" ">
<polygon fill="white" stroke="#666666" points="594,-541 488,-541 488,-522 594,-522 594,-541"/>
<text text-anchor="middle" x="541" y="-529" font-family="Ubuntu Mono" font-size="10.00">ObjId::operator==</text>
</a>
</g>
</g>
<!-- Node17&#45;&gt;Node39 -->
<g id="edge48_Node000017_Node000039" class="edge">
<title>Node17&#45;&gt;Node39</title>
<g id="a_edge48_Node000017_Node000039"><a xlink:title=" ">
<path fill="none" stroke="#63b8ff" d="M419.96,-335.34C428.76,-345.47 442,-362.07 450,-378.5 476.07,-432.01 447.09,-462.45 486,-507.5 489.19,-511.19 493.05,-514.33 497.23,-517.01"/>
<polygon fill="#63b8ff" stroke="#63b8ff" points="495.68,-520.15 506.13,-521.87 499.03,-514.01 495.68,-520.15"/>
</a>
</g>
</g>
<!-- Node21 -->
<g id="Node000021" class="node">
<title>Node21</title>
<g id="a_Node000021"><a xlink:href="classMsg.html#a5be9f4dd643f5f662e8fb3c029273390" target="_top" xlink:title=" ">
<polygon fill="white" stroke="#666666" points="750.5,-466 695.5,-466 695.5,-447 750.5,-447 750.5,-466"/>
<text text-anchor="middle" x="723" y="-454" font-family="Ubuntu Mono" font-size="10.00">Msg::e1</text>
</a>
</g>
</g>
<!-- Node20&#45;&gt;Node21 -->
<g id="edge24_Node000020_Node000021" class="edge">
<title>Node20&#45;&gt;Node21</title>
<g id="a_edge24_Node000020_Node000021"><a xlink:title=" ">
<path fill="none" stroke="#63b8ff" d="M587.42,-428.09C617.75,-434.49 657.12,-442.8 685.43,-448.78"/>
<polygon fill="#63b8ff" stroke="#63b8ff" points="684.82,-452.23 695.33,-450.87 686.26,-445.38 684.82,-452.23"/>
</a>
</g>
</g>
<!-- Node22 -->
<g id="Node000022" class="node">
<title>Node22</title>
<g id="a_Node000022"><a xlink:href="classMsg.html#a893ed6b44cd4c529f0f10af38ae6743a" target="_top" xlink:title=" ">
<polygon fill="white" stroke="#666666" points="750.5,-429 695.5,-429 695.5,-410 750.5,-410 750.5,-429"/>
<text text-anchor="middle" x="723" y="-417" font-family="Ubuntu Mono" font-size="10.00">Msg::e2</text>
</a>
</g>
</g>
<!-- Node20&#45;&gt;Node22 -->
<g id="edge25_Node000020_Node000022" class="edge">
<title>Node20&#45;&gt;Node22</title>
<g id="a_edge25_Node000020_Node000022"><a xlink:title=" ">
<path fill="none" stroke="#63b8ff" d="M596.01,-418.8C624.77,-418.96 659.4,-419.15 685.07,-419.29"/>
<polygon fill="#63b8ff" stroke="#63b8ff" points="685.11,-422.8 695.13,-419.35 685.15,-415.8 685.11,-422.8"/>
</a>
</g>
</g>
<!-- Node23 -->
<g id="Node000023" class="node">
<title>Node23</title>
<g id="a_Node000023"><a xlink:href="classElement.html#a0f7aa6c77f30cb8865cdd0a0dde03854" target="_top" xlink:title=" ">
<polygon fill="white" stroke="#666666" points="782,-392 664,-392 664,-373 782,-373 782,-392"/>
<text text-anchor="middle" x="723" y="-380" font-family="Ubuntu Mono" font-size="10.00">Element::findBinding</text>
</a>
</g>
</g>
<!-- Node20&#45;&gt;Node23 -->
<g id="edge26_Node000020_Node000023" class="edge">
<title>Node20&#45;&gt;Node23</title>
<g id="a_edge26_Node000020_Node000023"><a xlink:title=" ">
<path fill="none" stroke="#63b8ff" d="M589.76,-408.95C612.64,-404.37 640.22,-398.86 664.26,-394.05"/>
<polygon fill="#63b8ff" stroke="#63b8ff" points="665.21,-397.43 674.33,-392.03 663.83,-390.56 665.21,-397.43"/>
</a>
</g>
</g>
<!-- Node20&#45;&gt;Node24 -->
<g id="edge27_Node000020_Node000024" class="edge">
<title>Node20&#45;&gt;Node24</title>
<g id="a_edge27_Node000020_Node000024"><a xlink:title=" ">
<path fill="none" stroke="#63b8ff" d="M578.84,-428.06C584.81,-430.37 590.75,-433.16 596,-436.5 615.62,-449 611.7,-463.14 632,-474.5 644.56,-481.53 659.43,-485.96 673.43,-488.76"/>
<polygon fill="#63b8ff" stroke="#63b8ff" points="672.97,-492.23 683.42,-490.52 674.18,-485.34 672.97,-492.23"/>
</a>
</g>
</g>
<!-- Node26 -->
<g id="Node000026" class="node">
<title>Node26</title>
<g id="a_Node000026"><a xlink:href="classMsgFuncBinding.html#ad0172d166d6629ed092500ea64473eb5" target="_top" xlink:title=" ">
<polygon fill="white" stroke="#666666" points="814,-355 632,-355 632,-336 814,-336 814,-355"/>
<text text-anchor="middle" x="723" y="-343" font-family="Ubuntu Mono" font-size="10.00">MsgFuncBinding::MsgFuncBinding</text>
</a>
</g>
</g>
<!-- Node20&#45;&gt;Node26 -->
<g id="edge32_Node000020_Node000026" class="edge">
<title>Node20&#45;&gt;Node26</title>
<g id="a_edge32_Node000020_Node000026"><a xlink:title=" ">
<path fill="none" stroke="#63b8ff" d="M576.49,-408.96C583.22,-406.39 590.03,-403.26 596,-399.5 615.15,-387.44 612.05,-374.18 632,-363.5 635.46,-361.65 639.08,-359.99 642.81,-358.5"/>
<polygon fill="#63b8ff" stroke="#63b8ff" points="644.01,-361.79 652.25,-355.13 641.65,-355.19 644.01,-361.79"/>
</a>
</g>
</g>
<!-- Node28 -->
<g id="Node000028" class="node">
<title>Node28</title>
<g id="a_Node000028"><a xlink:href="classObjId.html#ab6b120d314aab5abc3ea8bb7ead5ae41" target="_top" xlink:title=" ">
<polygon fill="white" stroke="#666666" points="760,-318 686,-318 686,-299 760,-299 760,-318"/>
<text text-anchor="middle" x="723" y="-306" font-family="Ubuntu Mono" font-size="10.00">ObjId::ObjId</text>
</a>
</g>
</g>
<!-- Node20&#45;&gt;Node28 -->
<g id="edge34_Node000020_Node000028" class="edge">
<title>Node20&#45;&gt;Node28</title>
<g id="a_edge34_Node000020_Node000028"><a xlink:title=" ">
<path fill="none" stroke="#63b8ff" d="M580.92,-408.97C586.38,-406.5 591.61,-403.39 596,-399.5 623.07,-375.5 603.31,-348.54 632,-326.5 644.32,-317.04 660.31,-312.17 675.39,-309.77"/>
<polygon fill="#63b8ff" stroke="#63b8ff" points="676.14,-313.2 685.63,-308.48 675.27,-306.26 676.14,-313.2"/>
</a>
</g>
</g>
<!-- Node25 -->
<g id="Node000025" class="node">
<title>Node25</title>
<g id="a_Node000025"><a xlink:href="classObjId.html#a1e5933713d6a73550b0923cf63f5bfd8" target="_top" xlink:title=" ">
<polygon fill="white" stroke="#666666" points="922,-653 852,-653 852,-634 922,-634 922,-653"/>
<text text-anchor="middle" x="887" y="-641" font-family="Ubuntu Mono" font-size="10.00">ObjId::data</text>
</a>
</g>
</g>
<!-- Node24&#45;&gt;Node25 -->
<g id="edge28_Node000024_Node000025" class="edge">
<title>Node24&#45;&gt;Node25</title>
<g id="a_edge28_Node000024_Node000025"><a xlink:title=" ">
<path fill="none" stroke="#63b8ff" d="M762.85,-494.03C779.92,-495.99 799.37,-500.73 814,-511.5 852.22,-539.62 872.46,-594.36 880.99,-623.74"/>
<polygon fill="#63b8ff" stroke="#63b8ff" points="877.69,-624.92 883.7,-633.65 884.44,-623.08 877.69,-624.92"/>
</a>
</g>
</g>
<!-- Node25&#45;&gt;Node3 -->
<g id="edge29_Node000025_Node000003" class="edge">
<title>Node25&#45;&gt;Node3</title>
<g id="a_edge29_Node000025_Node000003"><a xlink:title=" ">
<path fill="none" stroke="#63b8ff" d="M920.19,-653.03C935.53,-657.57 954.07,-663.06 970.54,-667.93"/>
<polygon fill="#63b8ff" stroke="#63b8ff" points="969.9,-671.39 980.48,-670.88 971.89,-664.68 969.9,-671.39"/>
</a>
</g>
</g>
<!-- Node25&#45;&gt;Node7 -->
<g id="edge31_Node000025_Node000007" class="edge">
<title>Node25&#45;&gt;Node7</title>
<g id="a_edge31_Node000025_Node000007"><a xlink:title=" ">
<path fill="none" stroke="#63b8ff" d="M922.16,-643.5C930.65,-643.5 940.03,-643.5 949.44,-643.5"/>
<polygon fill="#63b8ff" stroke="#63b8ff" points="949.63,-647 959.63,-643.5 949.63,-640 949.63,-647"/>
</a>
</g>
</g>
<!-- Node25&#45;&gt;Node9 -->
<g id="edge30_Node000025_Node000009" class="edge">
<title>Node25&#45;&gt;Node9</title>
<g id="a_edge30_Node000025_Node000009"><a xlink:title=" ">
<path fill="none" stroke="#63b8ff" d="M919.54,-633.91C935.38,-629.1 954.77,-623.2 971.78,-618.03"/>
<polygon fill="#63b8ff" stroke="#63b8ff" points="972.92,-621.34 981.47,-615.09 970.88,-614.65 972.92,-621.34"/>
</a>
</g>
</g>
<!-- Node27 -->
<g id="Node000027" class="node">
<title>Node27</title>
<g id="a_Node000027"><a xlink:href="classObjId.html#a02a8374ceddca0d8f4a672005aef8ffc" target="_top" xlink:title=" ">
<polygon fill="white" stroke="#666666" points="924,-355 850,-355 850,-336 924,-336 924,-355"/>
<text text-anchor="middle" x="887" y="-343" font-family="Ubuntu Mono" font-size="10.00">ObjId::ObjId</text>
</a>
</g>
</g>
<!-- Node26&#45;&gt;Node27 -->
<g id="edge33_Node000026_Node000027" class="edge">
<title>Node26&#45;&gt;Node27</title>
<g id="a_edge33_Node000026_Node000027"><a xlink:title=" ">
<path fill="none" stroke="#63b8ff" d="M814,-345.5C822.91,-345.5 831.67,-345.5 839.85,-345.5"/>
<polygon fill="#63b8ff" stroke="#63b8ff" points="839.86,-349 849.86,-345.5 839.86,-342 839.86,-349"/>
</a>
</g>
</g>
<!-- Node35&#45;&gt;Node34 -->
<g id="edge43_Node000035_Node000034" class="edge">
<title>Node35&#45;&gt;Node34</title>
<g id="a_edge43_Node000035_Node000034"><a xlink:title=" ">
<path fill="none" stroke="#63b8ff" d="M571.42,-260.94C579.47,-258.11 588.14,-254.86 596,-251.5 631.41,-236.36 670.76,-215.73 695.91,-202.03"/>
<polygon fill="#63b8ff" stroke="#63b8ff" points="697.73,-205.02 704.82,-197.14 694.36,-198.88 697.73,-205.02"/>
</a>
</g>
</g>
<!-- Node36&#45;&gt;Node28 -->
<g id="edge46_Node000036_Node000028" class="edge">
<title>Node36&#45;&gt;Node28</title>
<g id="a_edge46_Node000036_Node000028"><a xlink:title=" ">
<path fill="none" stroke="#63b8ff" d="M573.65,-373.02C581.28,-370.27 589.19,-366.79 596,-362.5 615.15,-350.44 612.05,-337.18 632,-326.5 645.36,-319.35 661.2,-315.03 675.85,-312.42"/>
<polygon fill="#63b8ff" stroke="#63b8ff" points="676.41,-315.88 685.75,-310.88 675.33,-308.96 676.41,-315.88"/>
</a>
</g>
</g>
<!-- Node37 -->
<g id="Node000037" class="node">
<title>Node37</title>
<g id="a_Node000037"><a xlink:href="classElement.html#a934907c01faf58e21f545d53a54cfefc" target="_top" xlink:title=" ">
<polygon fill="white" stroke="#666666" points="759,-281 687,-281 687,-262 759,-262 759,-281"/>
<text text-anchor="middle" x="723" y="-269" font-family="Ubuntu Mono" font-size="10.00">Element::id</text>
</a>
</g>
</g>
<!-- Node36&#45;&gt;Node37 -->
<g id="edge45_Node000036_Node000037" class="edge">
<title>Node36&#45;&gt;Node37</title>
<g id="a_edge45_Node000036_Node000037"><a xlink:title=" ">
<path fill="none" stroke="#63b8ff" d="M573.63,-374.9C581.6,-372.08 589.68,-368.1 596,-362.5 623.07,-338.5 603.31,-311.54 632,-289.5 644.75,-279.71 661.43,-274.84 676.96,-272.53"/>
<polygon fill="#63b8ff" stroke="#63b8ff" points="677.43,-276 686.95,-271.36 676.61,-269.05 677.43,-276"/>
</a>
</g>
</g>
<!-- Node40 -->
<g id="Node000040" class="node">
<title>Node40</title>
<g id="a_Node000040"><a xlink:href="classId.html#a38206d79367649ab0056b93e6da3b789" target="_top" xlink:title=" ">
<polygon fill="white" stroke="#666666" points="767.5,-540 678.5,-540 678.5,-521 767.5,-521 767.5,-540"/>
<text text-anchor="middle" x="723" y="-528" font-family="Ubuntu Mono" font-size="10.00">Id::operator==</text>
</a>
</g>
</g>
<!-- Node39&#45;&gt;Node40 -->
<g id="edge49_Node000039_Node000040" class="edge">
<title>Node39&#45;&gt;Node40</title>
<g id="a_edge49_Node000039_Node000040"><a xlink:title=" ">
<path fill="none" stroke="#63b8ff" d="M594.06,-531.21C617.31,-531.08 644.68,-530.93 668.14,-530.8"/>
<polygon fill="#63b8ff" stroke="#63b8ff" points="668.28,-534.3 678.26,-530.74 668.24,-527.3 668.28,-534.3"/>
</a>
</g>
</g>
</g>
</svg>

<g id="navigator" transform="translate(0 0)" fill="#404254">
  <rect fill="#f2f5e9" fill-opacity="0.5" stroke="#606060" stroke-width=".5" x="0" y="0" width="60" height="60"/>
  <use id="zoomplus" xlink:href="#zoomPlus" x="17" y="9" onmousedown="handleZoom(evt,'in')"/>
  <use id="zoomminus" xlink:href="#zoomMin" x="42" y="9" onmousedown="handleZoom(evt,'out')"/>
  <use id="reset" xlink:href="#resetDef" x="30" y="36" onmousedown="handleReset()"/>
   <use id="arrowup" xlink:href="#arrowUp" x="0" y="0" onmousedown="handlePan(0,-1)"/>
  <use id="arrowright" xlink:href="#arrowRight" x="0" y="0" onmousedown="handlePan(1,0)"/>
  <use id="arrowdown" xlink:href="#arrowDown" x="0" y="0" onmousedown="handlePan(0,1)"/>
  <use id="arrowleft" xlink:href="#arrowLeft" x="0" y="0" onmousedown="handlePan(-1,0)"/>
</g>
<svg viewBox="0 0 15 15" width="100%" height="30px" preserveAspectRatio="xMaxYMin meet">
 <g id="arrow_out" transform="scale(0.3 0.3)">
  <a xlink:href="classStreamer_a443ec87c302abbdbb3f55417fcb9d225_cgraph_org.svg" target="_base">
   <rect id="button" ry="5" rx="5" y="6" x="6" height="38" width="38"
        fill="#f2f5e9" fill-opacity="0.5" stroke="#606060" stroke-width="1.0"/>
   <path id="arrow"
     d="M 11.500037,31.436501 C 11.940474,20.09759 22.043105,11.32322 32.158766,21.979434 L 37.068811,17.246167 C 37.068811,17.246167 37.088388,32 37.088388,32 L 22.160133,31.978069 C 22.160133,31.978069 26.997745,27.140456 26.997745,27.140456 C 18.528582,18.264221 13.291696,25.230495 11.500037,31.436501 z"
     style="fill:#404040;"/>
  </a>
 </g>
</svg>

<style type='text/css'>
<![CDATA[
[data-mouse-over-selected='false'] { opacity: 0.7; }
[data-mouse-over-selected='true']  { opacity: 1.0; }
]]>
</style>
<script type="application/ecmascript"><![CDATA[
document.addEventListener('DOMContentLoaded', (event) => {
  highlightEdges();
  highlightAdjacentNodes();
});
]]></script>
</svg>
