<?xml version="1.0" encoding="UTF-8" standalone="no"?>
<!DOCTYPE svg PUBLIC "-//W3C//DTD SVG 1.1//EN"
 "http://www.w3.org/Graphics/SVG/1.1/DTD/svg11.dtd">
<!-- Generated by graphviz version 2.43.0 (0)
 -->
<!-- Title: MarkovChannel::initCinfo Pages: 1 -->
<svg width="1022pt" height="1220pt"
 viewBox="0.00 0.00 1022.00 1220.00" xmlns="http://www.w3.org/2000/svg" xmlns:xlink="http://www.w3.org/1999/xlink">
<g id="graph0" class="graph" transform="scale(1 1) rotate(0) translate(4 1216)">
<title>MarkovChannel::initCinfo</title>
<!-- Node1 -->
<g id="Node000001" class="node">
<title>Node1</title>
<g id="a_Node000001"><a xlink:title=" ">
<polygon fill="#999999" stroke="#666666" points="140,-462 0,-462 0,-443 140,-443 140,-462"/>
<text text-anchor="middle" x="70" y="-450" font-family="Ubuntu Mono" font-size="10.00">MarkovChannel::initCinfo</text>
</a>
</g>
</g>
<!-- Node2 -->
<g id="Node000002" class="node">
<title>Node2</title>
<g id="a_Node000002"><a xlink:href="classCinfo.html#ac9f6af2943b20ce3b02c1adc84504cd2" target="_top" xlink:title=" ">
<polygon fill="white" stroke="#666666" points="695.5,-1194 621.5,-1194 621.5,-1175 695.5,-1175 695.5,-1194"/>
<text text-anchor="middle" x="658.5" y="-1182" font-family="Ubuntu Mono" font-size="10.00">Cinfo::Cinfo</text>
</a>
</g>
</g>
<!-- Node1&#45;&gt;Node2 -->
<g id="edge1_Node000001_Node000002" class="edge">
<title>Node1&#45;&gt;Node2</title>
<g id="a_edge1_Node000001_Node000002"><a xlink:title=" ">
<path fill="none" stroke="#63b8ff" d="M71.36,-462.22C74.18,-532.85 94.7,-967.36 176,-1064.5 285.37,-1195.17 513.17,-1195.56 611.1,-1188.98"/>
<polygon fill="#63b8ff" stroke="#63b8ff" points="611.56,-1192.45 621.28,-1188.24 611.05,-1185.47 611.56,-1192.45"/>
</a>
</g>
</g>
<!-- Node8 -->
<g id="Node000008" class="node">
<title>Node8</title>
<g id="a_Node000008"><a xlink:href="classDestFinfo.html#a200c3d77c0c62f54de9cb3fb0ff30d25" target="_top" xlink:title=" ">
<polygon fill="white" stroke="#666666" points="716.5,-930 600.5,-930 600.5,-911 716.5,-911 716.5,-930"/>
<text text-anchor="middle" x="658.5" y="-918" font-family="Ubuntu Mono" font-size="10.00">DestFinfo::DestFinfo</text>
</a>
</g>
</g>
<!-- Node1&#45;&gt;Node8 -->
<g id="edge5_Node000001_Node000008" class="edge">
<title>Node1&#45;&gt;Node8</title>
<g id="a_edge5_Node000001_Node000008"><a xlink:title=" ">
<path fill="none" stroke="#63b8ff" d="M71.97,-462.03C78.45,-524.58 117.19,-876.66 176,-964.5 273.9,-1110.72 389.12,-1202.63 542,-1115.5 609.64,-1076.95 641.72,-981.51 652.8,-940.14"/>
<polygon fill="#63b8ff" stroke="#63b8ff" points="656.25,-940.77 655.33,-930.21 649.47,-939.04 656.25,-940.77"/>
</a>
</g>
</g>
<!-- Node10 -->
<g id="Node000010" class="node">
<title>Node10</title>
<g id="a_Node000010"><a xlink:href="classMarkovChannel.html#a7c523e85d8c7f0a97927cd92aad6dc6a" target="_top" xlink:title=" ">
<polygon fill="white" stroke="#666666" points="341.5,-708 198.5,-708 198.5,-689 341.5,-689 341.5,-708"/>
<text text-anchor="middle" x="270" y="-696" font-family="Ubuntu Mono" font-size="10.00">MarkovChannel::getGbars</text>
</a>
</g>
</g>
<!-- Node1&#45;&gt;Node10 -->
<g id="edge7_Node000001_Node000010" class="edge">
<title>Node1&#45;&gt;Node10</title>
<g id="a_edge7_Node000001_Node000010"><a xlink:title=" ">
<path fill="none" stroke="#63b8ff" d="M72.35,-462.14C77.82,-497.45 101.78,-620.75 176,-679.5 179.91,-682.6 184.2,-685.23 188.72,-687.46"/>
<polygon fill="#63b8ff" stroke="#63b8ff" points="187.71,-690.83 198.28,-691.5 190.43,-684.38 187.71,-690.83"/>
</a>
</g>
</g>
<!-- Node11 -->
<g id="Node000011" class="node">
<title>Node11</title>
<g id="a_Node000011"><a xlink:href="classMarkovChannel.html#a4c34329c895aa5dd7b1ecf4acf926fe7" target="_top" xlink:title=" ">
<polygon fill="white" stroke="#666666" points="341,-670.5 199,-670.5 199,-640.5 341,-640.5 341,-670.5"/>
<text text-anchor="start" x="207" y="-658.5" font-family="Ubuntu Mono" font-size="10.00">MarkovChannel::getInitial</text>
<text text-anchor="middle" x="270" y="-647.5" font-family="Ubuntu Mono" font-size="10.00">State</text>
</a>
</g>
</g>
<!-- Node1&#45;&gt;Node11 -->
<g id="edge8_Node000001_Node000011" class="edge">
<title>Node1&#45;&gt;Node11</title>
<g id="a_edge8_Node000001_Node000011"><a xlink:title=" ">
<path fill="none" stroke="#63b8ff" d="M73.71,-462.04C82.73,-492.05 114.74,-585.28 176,-631.5 180.14,-634.62 184.64,-637.34 189.36,-639.7"/>
<polygon fill="#63b8ff" stroke="#63b8ff" points="188.1,-642.98 198.66,-643.83 190.94,-636.58 188.1,-642.98"/>
</a>
</g>
</g>
<!-- Node12 -->
<g id="Node000012" class="node">
<title>Node12</title>
<g id="a_Node000012"><a xlink:href="classMarkovChannel.html#a84fcc4b85545d5db01be6df2c5180f0a" target="_top" xlink:title=" ">
<polygon fill="white" stroke="#666666" points="355,-622 185,-622 185,-603 355,-603 355,-622"/>
<text text-anchor="middle" x="270" y="-610" font-family="Ubuntu Mono" font-size="10.00">MarkovChannel::getLigandConc</text>
</a>
</g>
</g>
<!-- Node1&#45;&gt;Node12 -->
<g id="edge9_Node000001_Node000012" class="edge">
<title>Node1&#45;&gt;Node12</title>
<g id="a_edge9_Node000001_Node000012"><a xlink:title=" ">
<path fill="none" stroke="#63b8ff" d="M75.21,-462.3C86.94,-488.34 122.68,-559.61 176,-593.5 179.35,-595.63 182.89,-597.52 186.55,-599.21"/>
<polygon fill="#63b8ff" stroke="#63b8ff" points="185.31,-602.48 195.89,-602.99 187.93,-595.99 185.31,-602.48"/>
</a>
</g>
</g>
<!-- Node13 -->
<g id="Node000013" class="node">
<title>Node13</title>
<g id="a_Node000013"><a xlink:href="classMarkovChannel.html#a4d9c4b87f25f831e7068b2d7e7156e1e" target="_top" xlink:title=" ">
<polygon fill="white" stroke="#666666" points="351.5,-584.5 188.5,-584.5 188.5,-554.5 351.5,-554.5 351.5,-584.5"/>
<text text-anchor="start" x="196.5" y="-572.5" font-family="Ubuntu Mono" font-size="10.00">MarkovChannel::getNumOpen</text>
<text text-anchor="middle" x="270" y="-561.5" font-family="Ubuntu Mono" font-size="10.00">States</text>
</a>
</g>
</g>
<!-- Node1&#45;&gt;Node13 -->
<g id="edge10_Node000001_Node000013" class="edge">
<title>Node1&#45;&gt;Node13</title>
<g id="a_edge10_Node000001_Node000013"><a xlink:title=" ">
<path fill="none" stroke="#63b8ff" d="M78.9,-462.03C95.1,-480.92 134.07,-523.21 176,-545.5 179.54,-547.38 183.24,-549.13 187.03,-550.74"/>
<polygon fill="#63b8ff" stroke="#63b8ff" points="186.04,-554.1 196.63,-554.47 188.58,-547.58 186.04,-554.1"/>
</a>
</g>
</g>
<!-- Node14 -->
<g id="Node000014" class="node">
<title>Node14</title>
<g id="a_Node000014"><a xlink:href="classMarkovChannel.html#a2780ce0bba192493b4038019524f113d" target="_top" xlink:title=" ">
<polygon fill="white" stroke="#666666" points="354,-536 186,-536 186,-517 354,-517 354,-536"/>
<text text-anchor="middle" x="270" y="-524" font-family="Ubuntu Mono" font-size="10.00">MarkovChannel::getNumStates</text>
</a>
</g>
</g>
<!-- Node1&#45;&gt;Node14 -->
<g id="edge11_Node000001_Node000014" class="edge">
<title>Node1&#45;&gt;Node14</title>
<g id="a_edge11_Node000001_Node000014"><a xlink:title=" ">
<path fill="none" stroke="#63b8ff" d="M85.65,-462.14C105.37,-474.69 141.92,-496.42 176,-508.5 182.35,-510.75 189.06,-512.74 195.83,-514.5"/>
<polygon fill="#63b8ff" stroke="#63b8ff" points="195.24,-517.96 205.78,-516.91 196.89,-511.16 195.24,-517.96"/>
</a>
</g>
</g>
<!-- Node15 -->
<g id="Node000015" class="node">
<title>Node15</title>
<g id="a_Node000015"><a xlink:href="classMarkovChannel.html#aec198ce8b6dd0db134d7a422aef315d9" target="_top" xlink:title=" ">
<polygon fill="white" stroke="#666666" points="340,-499 200,-499 200,-480 340,-480 340,-499"/>
<text text-anchor="middle" x="270" y="-487" font-family="Ubuntu Mono" font-size="10.00">MarkovChannel::getState</text>
</a>
</g>
</g>
<!-- Node1&#45;&gt;Node15 -->
<g id="edge12_Node000001_Node000015" class="edge">
<title>Node1&#45;&gt;Node15</title>
<g id="a_edge12_Node000001_Node000015"><a xlink:title=" ">
<path fill="none" stroke="#63b8ff" d="M121.99,-462.03C148.22,-466.93 180.37,-472.94 207.92,-478.09"/>
<polygon fill="#63b8ff" stroke="#63b8ff" points="207.37,-481.54 217.84,-479.94 208.65,-474.66 207.37,-481.54"/>
</a>
</g>
</g>
<!-- Node16 -->
<g id="Node000016" class="node">
<title>Node16</title>
<g id="a_Node000016"><a xlink:href="classMarkovChannel.html#a97ab9e9b273cf4d114be3a4790b8df43" target="_top" xlink:title=" ">
<polygon fill="white" stroke="#666666" points="355.5,-462 184.5,-462 184.5,-443 355.5,-443 355.5,-462"/>
<text text-anchor="middle" x="270" y="-450" font-family="Ubuntu Mono" font-size="10.00">MarkovChannel::getStateLabels</text>
</a>
</g>
</g>
<!-- Node1&#45;&gt;Node16 -->
<g id="edge13_Node000001_Node000016" class="edge">
<title>Node1&#45;&gt;Node16</title>
<g id="a_edge13_Node000001_Node000016"><a xlink:title=" ">
<path fill="none" stroke="#63b8ff" d="M140.25,-452.5C151.29,-452.5 162.88,-452.5 174.38,-452.5"/>
<polygon fill="#63b8ff" stroke="#63b8ff" points="174.46,-456 184.46,-452.5 174.46,-449 174.46,-456"/>
</a>
</g>
</g>
<!-- Node17 -->
<g id="Node000017" class="node">
<title>Node17</title>
<g id="a_Node000017"><a xlink:href="classMarkovChannel.html#a05c755dd3aa8bd8d0c2726e91d162f40" target="_top" xlink:title=" ">
<polygon fill="white" stroke="#666666" points="335.5,-425 204.5,-425 204.5,-406 335.5,-406 335.5,-425"/>
<text text-anchor="middle" x="270" y="-413" font-family="Ubuntu Mono" font-size="10.00">MarkovChannel::getVm</text>
</a>
</g>
</g>
<!-- Node1&#45;&gt;Node17 -->
<g id="edge14_Node000001_Node000017" class="edge">
<title>Node1&#45;&gt;Node17</title>
<g id="a_edge14_Node000001_Node000017"><a xlink:title=" ">
<path fill="none" stroke="#63b8ff" d="M121.99,-442.97C148.22,-438.07 180.37,-432.06 207.92,-426.91"/>
<polygon fill="#63b8ff" stroke="#63b8ff" points="208.65,-430.34 217.84,-425.06 207.37,-423.46 208.65,-430.34"/>
</a>
</g>
</g>
<!-- Node18 -->
<g id="Node000018" class="node">
<title>Node18</title>
<g id="a_Node000018"><a xlink:href="classMarkovChannel.html#aa8084f4c73f953208916556fbc7de306" target="_top" xlink:title=" ">
<polygon fill="white" stroke="#666666" points="364,-388 176,-388 176,-369 364,-369 364,-388"/>
<text text-anchor="middle" x="270" y="-376" font-family="Ubuntu Mono" font-size="10.00">MarkovChannel::handleLigandConc</text>
</a>
</g>
</g>
<!-- Node1&#45;&gt;Node18 -->
<g id="edge15_Node000001_Node000018" class="edge">
<title>Node1&#45;&gt;Node18</title>
<g id="a_edge15_Node000001_Node000018"><a xlink:title=" ">
<path fill="none" stroke="#63b8ff" d="M86.03,-442.88C105.88,-430.6 142.27,-409.51 176,-397.5 183.51,-394.83 191.49,-392.49 199.51,-390.45"/>
<polygon fill="#63b8ff" stroke="#63b8ff" points="200.37,-393.84 209.28,-388.11 198.74,-387.04 200.37,-393.84"/>
</a>
</g>
</g>
<!-- Node19 -->
<g id="Node000019" class="node">
<title>Node19</title>
<g id="a_Node000019"><a xlink:href="classMarkovChannel.html#ab1c77ea8b75a28304abeacec8b6978a6" target="_top" xlink:title=" ">
<polygon fill="white" stroke="#666666" points="348.5,-351 191.5,-351 191.5,-332 348.5,-332 348.5,-351"/>
<text text-anchor="middle" x="270" y="-339" font-family="Ubuntu Mono" font-size="10.00">MarkovChannel::handleState</text>
</a>
</g>
</g>
<!-- Node1&#45;&gt;Node19 -->
<g id="edge16_Node000001_Node000019" class="edge">
<title>Node1&#45;&gt;Node19</title>
<g id="a_edge16_Node000001_Node000019"><a xlink:title=" ">
<path fill="none" stroke="#63b8ff" d="M78.79,-442.75C94.78,-423.47 133.41,-380.5 176,-359.5 180.01,-357.52 184.21,-355.76 188.53,-354.2"/>
<polygon fill="#63b8ff" stroke="#63b8ff" points="189.7,-357.5 198.12,-351.07 187.52,-350.84 189.7,-357.5"/>
</a>
</g>
</g>
<!-- Node20 -->
<g id="Node000020" class="node">
<title>Node20</title>
<g id="a_Node000020"><a xlink:href="classChanBase.html#a636dddba7e9e9a4519362a2a94f190bc" target="_top" xlink:title="Specify the Class Info static variable for initialization.">
<polygon fill="white" stroke="#666666" points="326.5,-784 213.5,-784 213.5,-765 326.5,-765 326.5,-784"/>
<text text-anchor="middle" x="270" y="-772" font-family="Ubuntu Mono" font-size="10.00">ChanBase::initCinfo</text>
</a>
</g>
</g>
<!-- Node1&#45;&gt;Node20 -->
<g id="edge17_Node000001_Node000020" class="edge">
<title>Node1&#45;&gt;Node20</title>
<g id="a_edge17_Node000001_Node000020"><a xlink:title=" ">
<path fill="none" stroke="#63b8ff" d="M71.3,-462.24C73.14,-503.8 86.06,-668 176,-750.5 183.82,-757.68 193.5,-762.77 203.64,-766.37"/>
<polygon fill="#63b8ff" stroke="#63b8ff" points="202.86,-769.79 213.45,-769.38 204.92,-763.1 202.86,-769.79"/>
</a>
</g>
</g>
<!-- Node176 -->
<g id="Node000176" class="node">
<title>Node176</title>
<g id="a_Node000176"><a xlink:href="classValueFinfo.html#afc85efa500f5640f0ef55da08396bbf8" target="_top" xlink:title=" ">
<polygon fill="white" stroke="#666666" points="721,-799 596,-799 596,-780 721,-780 721,-799"/>
<text text-anchor="middle" x="658.5" y="-787" font-family="Ubuntu Mono" font-size="10.00">ValueFinfo::ValueFinfo</text>
</a>
</g>
</g>
<!-- Node1&#45;&gt;Node176 -->
<g id="edge58_Node000001_Node000176" class="edge">
<title>Node1&#45;&gt;Node176</title>
<g id="a_edge58_Node000001_Node000176"><a xlink:title=" ">
<path fill="none" stroke="#63b8ff" d="M71.99,-462.03C79.79,-531.35 138.1,-959.25 400,-1089.5 456.51,-1117.6 493.34,-1129.69 542,-1089.5 607.26,-1035.61 544.91,-980.4 578,-902.5 593.82,-865.24 623.33,-828 641.61,-806.95"/>
<polygon fill="#63b8ff" stroke="#63b8ff" points="644.45,-809.02 648.45,-799.21 639.21,-804.38 644.45,-809.02"/>
</a>
</g>
</g>
<!-- Node177 -->
<g id="Node000177" class="node">
<title>Node177</title>
<g id="a_Node000177"><a xlink:href="classOpFunc1.html#abc0aeb50c1657a6777c508d17c872809" target="_top" xlink:title=" ">
<polygon fill="white" stroke="#666666" points="524.5,-336 417.5,-336 417.5,-317 524.5,-317 524.5,-336"/>
<text text-anchor="middle" x="471" y="-324" font-family="Ubuntu Mono" font-size="10.00">OpFunc1::OpFunc1</text>
</a>
</g>
</g>
<!-- Node1&#45;&gt;Node177 -->
<g id="edge49_Node000001_Node000177" class="edge">
<title>Node1&#45;&gt;Node177</title>
<g id="a_edge49_Node000001_Node000177"><a xlink:title=" ">
<path fill="none" stroke="#63b8ff" d="M71.26,-462.01C72.9,-501.82 85.13,-655.76 176,-717.5 245.11,-764.46 302.14,-773.67 364,-717.5 425.65,-661.52 345.87,-407.78 400,-344.5 402.47,-341.61 405.34,-339.16 408.47,-337.07"/>
<polygon fill="#63b8ff" stroke="#63b8ff" points="410.11,-340.16 417.29,-332.37 406.82,-333.98 410.11,-340.16"/>
</a>
</g>
</g>
<!-- Node193 -->
<g id="Node000193" class="node">
<title>Node193</title>
<g id="a_Node000193"><a xlink:href="classReadOnlyValueFinfo.html#a45da388415fe4e2aebb7fc6eb8e16b07" target="_top" xlink:title=" ">
<polygon fill="white" stroke="#666666" points="330.5,-313.5 209.5,-313.5 209.5,-283.5 330.5,-283.5 330.5,-313.5"/>
<text text-anchor="start" x="217.5" y="-301.5" font-family="Ubuntu Mono" font-size="10.00">ReadOnlyValueFinfo</text>
<text text-anchor="middle" x="270" y="-290.5" font-family="Ubuntu Mono" font-size="10.00">::ReadOnlyValueFinfo</text>
</a>
</g>
</g>
<!-- Node1&#45;&gt;Node193 -->
<g id="edge50_Node000001_Node000193" class="edge">
<title>Node1&#45;&gt;Node193</title>
<g id="a_edge50_Node000001_Node000193"><a xlink:title=" ">
<path fill="none" stroke="#63b8ff" d="M75.89,-442.91C88.74,-418.69 125.99,-354.69 176,-322.5 183.15,-317.89 191.15,-314.17 199.37,-311.16"/>
<polygon fill="#63b8ff" stroke="#63b8ff" points="200.69,-314.41 209.09,-307.95 198.5,-307.76 200.69,-314.41"/>
</a>
</g>
</g>
<!-- Node194 -->
<g id="Node000194" class="node">
<title>Node194</title>
<g id="a_Node000194"><a xlink:href="classMarkovChannel.html#a00493d2172d475b0f298f3a327f63e83" target="_top" xlink:title=" ">
<polygon fill="white" stroke="#666666" points="341,-265 199,-265 199,-246 341,-246 341,-265"/>
<text text-anchor="middle" x="270" y="-253" font-family="Ubuntu Mono" font-size="10.00">MarkovChannel::setGbars</text>
</a>
</g>
</g>
<!-- Node1&#45;&gt;Node194 -->
<g id="edge51_Node000001_Node000194" class="edge">
<title>Node1&#45;&gt;Node194</title>
<g id="a_edge51_Node000001_Node000194"><a xlink:title=" ">
<path fill="none" stroke="#63b8ff" d="M73.63,-442.88C82.41,-412.64 113.79,-318.88 176,-274.5 180.17,-271.53 184.7,-268.99 189.43,-266.84"/>
<polygon fill="#63b8ff" stroke="#63b8ff" points="190.75,-270.08 198.76,-263.15 188.18,-263.57 190.75,-270.08"/>
</a>
</g>
</g>
<!-- Node195 -->
<g id="Node000195" class="node">
<title>Node195</title>
<g id="a_Node000195"><a xlink:href="classMarkovChannel.html#ab8595a2f147d54ee89d17ec8eead9f71" target="_top" xlink:title=" ">
<polygon fill="white" stroke="#666666" points="340.5,-227.5 199.5,-227.5 199.5,-197.5 340.5,-197.5 340.5,-227.5"/>
<text text-anchor="start" x="207.5" y="-215.5" font-family="Ubuntu Mono" font-size="10.00">MarkovChannel::setInitial</text>
<text text-anchor="middle" x="270" y="-204.5" font-family="Ubuntu Mono" font-size="10.00">State</text>
</a>
</g>
</g>
<!-- Node1&#45;&gt;Node195 -->
<g id="edge52_Node000001_Node000195" class="edge">
<title>Node1&#45;&gt;Node195</title>
<g id="a_edge52_Node000001_Node000195"><a xlink:title=" ">
<path fill="none" stroke="#63b8ff" d="M72.69,-442.98C79.21,-409.15 105.96,-293.78 176,-236.5 180.28,-233 185,-230.01 189.99,-227.45"/>
<polygon fill="#63b8ff" stroke="#63b8ff" points="191.54,-230.59 199.21,-223.29 188.66,-224.21 191.54,-230.59"/>
</a>
</g>
</g>
<!-- Node196 -->
<g id="Node000196" class="node">
<title>Node196</title>
<g id="a_Node000196"><a xlink:href="classMarkovChannel.html#a7d7285dda4f6313341720d51864b8c80" target="_top" xlink:title=" ">
<polygon fill="white" stroke="#666666" points="355,-179 185,-179 185,-160 355,-160 355,-179"/>
<text text-anchor="middle" x="270" y="-167" font-family="Ubuntu Mono" font-size="10.00">MarkovChannel::setLigandConc</text>
</a>
</g>
</g>
<!-- Node1&#45;&gt;Node196 -->
<g id="edge53_Node000001_Node000196" class="edge">
<title>Node1&#45;&gt;Node196</title>
<g id="a_edge53_Node000001_Node000196"><a xlink:title=" ">
<path fill="none" stroke="#63b8ff" d="M71.66,-442.97C74.89,-404.38 92.41,-258.47 176,-188.5 177.99,-186.83 180.09,-185.3 182.27,-183.89"/>
<polygon fill="#63b8ff" stroke="#63b8ff" points="184.01,-186.93 191.08,-179.04 180.63,-180.8 184.01,-186.93"/>
</a>
</g>
</g>
<!-- Node197 -->
<g id="Node000197" class="node">
<title>Node197</title>
<g id="a_Node000197"><a xlink:href="classMarkovChannel.html#a562aeeff882505f5108263057e82152d" target="_top" xlink:title=" ">
<polygon fill="white" stroke="#666666" points="351,-141.5 189,-141.5 189,-111.5 351,-111.5 351,-141.5"/>
<text text-anchor="start" x="197" y="-129.5" font-family="Ubuntu Mono" font-size="10.00">MarkovChannel::setNumOpen</text>
<text text-anchor="middle" x="270" y="-118.5" font-family="Ubuntu Mono" font-size="10.00">States</text>
</a>
</g>
</g>
<!-- Node1&#45;&gt;Node197 -->
<g id="edge54_Node000001_Node000197" class="edge">
<title>Node1&#45;&gt;Node197</title>
<g id="a_edge54_Node000001_Node000197"><a xlink:title=" ">
<path fill="none" stroke="#63b8ff" d="M71.25,-442.92C72.85,-401.28 84.95,-234.37 176,-150.5 177.31,-149.3 178.67,-148.15 180.07,-147.06"/>
<polygon fill="#63b8ff" stroke="#63b8ff" points="182.18,-149.86 188.57,-141.41 178.31,-144.03 182.18,-149.86"/>
</a>
</g>
</g>
<!-- Node198 -->
<g id="Node000198" class="node">
<title>Node198</title>
<g id="a_Node000198"><a xlink:href="classMarkovChannel.html#a2f8bbe900071fb3911cc9aa03295c747" target="_top" xlink:title=" ">
<polygon fill="white" stroke="#666666" points="353.5,-93 186.5,-93 186.5,-74 353.5,-74 353.5,-93"/>
<text text-anchor="middle" x="270" y="-81" font-family="Ubuntu Mono" font-size="10.00">MarkovChannel::setNumStates</text>
</a>
</g>
</g>
<!-- Node1&#45;&gt;Node198 -->
<g id="edge55_Node000001_Node000198" class="edge">
<title>Node1&#45;&gt;Node198</title>
<g id="a_edge55_Node000001_Node000198"><a xlink:title=" ">
<path fill="none" stroke="#63b8ff" d="M70.62,-442.89C69.37,-397.07 70.4,-199.01 176,-102.5 177.55,-101.08 179.18,-99.76 180.87,-98.52"/>
<polygon fill="#63b8ff" stroke="#63b8ff" points="183.11,-101.26 189.82,-93.06 179.46,-95.28 183.11,-101.26"/>
</a>
</g>
</g>
<!-- Node199 -->
<g id="Node000199" class="node">
<title>Node199</title>
<g id="a_Node000199"><a xlink:href="classMarkovChannel.html#a4542da7800174e9d11caad0bb219be81" target="_top" xlink:title=" ">
<polygon fill="white" stroke="#666666" points="355,-56 185,-56 185,-37 355,-37 355,-56"/>
<text text-anchor="middle" x="270" y="-44" font-family="Ubuntu Mono" font-size="10.00">MarkovChannel::setStateLabels</text>
</a>
</g>
</g>
<!-- Node1&#45;&gt;Node199 -->
<g id="edge56_Node000001_Node000199" class="edge">
<title>Node1&#45;&gt;Node199</title>
<g id="a_edge56_Node000001_Node000199"><a xlink:title=" ">
<path fill="none" stroke="#63b8ff" d="M72.21,-443C79.3,-388.79 117.22,-119.13 176,-64.5 176.98,-63.59 178,-62.71 179.04,-61.88"/>
<polygon fill="#63b8ff" stroke="#63b8ff" points="181.17,-64.66 187.55,-56.2 177.29,-58.84 181.17,-64.66"/>
</a>
</g>
</g>
<!-- Node200 -->
<g id="Node000200" class="node">
<title>Node200</title>
<g id="a_Node000200"><a xlink:href="classMarkovChannel.html#af4ca0abb9c6dfc89ee076038831b48da" target="_top" xlink:title=" ">
<polygon fill="white" stroke="#666666" points="335,-19 205,-19 205,0 335,0 335,-19"/>
<text text-anchor="middle" x="270" y="-7" font-family="Ubuntu Mono" font-size="10.00">MarkovChannel::setVm</text>
</a>
</g>
</g>
<!-- Node1&#45;&gt;Node200 -->
<g id="edge57_Node000001_Node000200" class="edge">
<title>Node1&#45;&gt;Node200</title>
<g id="a_edge57_Node000001_Node000200"><a xlink:title=" ">
<path fill="none" stroke="#63b8ff" d="M71.99,-442.86C78.08,-385.36 112.36,-87.97 176,-27.5 181.49,-22.28 188.02,-18.36 195.03,-15.43"/>
<polygon fill="#63b8ff" stroke="#63b8ff" points="196.53,-18.62 204.84,-12.04 194.24,-12 196.53,-18.62"/>
</a>
</g>
</g>
<!-- Node3 -->
<g id="Node000003" class="node">
<title>Node3</title>
<g id="a_Node000003"><a xlink:href="classCinfo.html#a4f32262aa0cc7c19bc520885a5dc9509" target="_top" xlink:title=" ">
<polygon fill="white" stroke="#666666" points="868,-1175 775,-1175 775,-1156 868,-1156 868,-1175"/>
<text text-anchor="middle" x="821.5" y="-1163" font-family="Ubuntu Mono" font-size="10.00">Cinfo::cinfoMap</text>
</a>
</g>
</g>
<!-- Node2&#45;&gt;Node3 -->
<g id="edge2_Node000002_Node000003" class="edge">
<title>Node2&#45;&gt;Node3</title>
<g id="a_edge2_Node000002_Node000003"><a xlink:title=" ">
<path fill="none" stroke="#63b8ff" d="M695.63,-1180.24C716.06,-1177.82 742.04,-1174.76 765.01,-1172.05"/>
<polygon fill="#63b8ff" stroke="#63b8ff" points="765.45,-1175.52 774.98,-1170.87 764.63,-1168.57 765.45,-1175.52"/>
</a>
</g>
</g>
<!-- Node4 -->
<g id="Node000004" class="node">
<title>Node4</title>
<g id="a_Node000004"><a xlink:href="classCinfo.html#a794a4e6f88c66438308ca177d9c92751" target="_top" xlink:title=" ">
<polygon fill="white" stroke="#666666" points="853.5,-1212 789.5,-1212 789.5,-1193 853.5,-1193 853.5,-1212"/>
<text text-anchor="middle" x="821.5" y="-1200" font-family="Ubuntu Mono" font-size="10.00">Cinfo::init</text>
</a>
</g>
</g>
<!-- Node2&#45;&gt;Node4 -->
<g id="edge3_Node000002_Node000004" class="edge">
<title>Node2&#45;&gt;Node4</title>
<g id="a_edge3_Node000002_Node000004"><a xlink:title=" ">
<path fill="none" stroke="#63b8ff" d="M695.63,-1188.54C720.4,-1191.31 753.33,-1194.99 779.15,-1197.88"/>
<polygon fill="#63b8ff" stroke="#63b8ff" points="779.05,-1201.39 789.37,-1199.02 779.82,-1194.43 779.05,-1201.39"/>
</a>
</g>
</g>
<!-- Node5 -->
<g id="Node000005" class="node">
<title>Node5</title>
<g id="a_Node000005"><a xlink:href="classCinfo.html#af7df887215d3a7119115d82fb3fff2ba" target="_top" xlink:title=" ">
<polygon fill="#fff0f0" stroke="red" points="1014,-1212 904,-1212 904,-1193 1014,-1193 1014,-1212"/>
<text text-anchor="middle" x="959" y="-1200" font-family="Ubuntu Mono" font-size="10.00">Cinfo::registerFinfo</text>
</a>
</g>
</g>
<!-- Node4&#45;&gt;Node5 -->
<g id="edge4_Node000004_Node000005" class="edge">
<title>Node4&#45;&gt;Node5</title>
<g id="a_edge4_Node000004_Node000005"><a xlink:title=" ">
<path fill="none" stroke="#63b8ff" d="M853.59,-1202.5C865.6,-1202.5 879.8,-1202.5 893.81,-1202.5"/>
<polygon fill="#63b8ff" stroke="#63b8ff" points="893.93,-1206 903.93,-1202.5 893.93,-1199 893.93,-1206"/>
</a>
</g>
</g>
<!-- Node9 -->
<g id="Node000009" class="node">
<title>Node9</title>
<g id="a_Node000009"><a xlink:href="classFinfo.html#a1988dedc8761bf072a396354fe2d1672" target="_top" xlink:title=" ">
<polygon fill="white" stroke="#666666" points="857,-745 786,-745 786,-726 857,-726 857,-745"/>
<text text-anchor="middle" x="821.5" y="-733" font-family="Ubuntu Mono" font-size="10.00">Finfo::Finfo</text>
</a>
</g>
</g>
<!-- Node8&#45;&gt;Node9 -->
<g id="edge6_Node000008_Node000009" class="edge">
<title>Node8&#45;&gt;Node9</title>
<g id="a_edge6_Node000008_Node000009"><a xlink:title=" ">
<path fill="none" stroke="#63b8ff" d="M667.93,-910.81C693.79,-881.09 772.28,-790.91 805.45,-752.79"/>
<polygon fill="#63b8ff" stroke="#63b8ff" points="808.23,-754.93 812.15,-745.09 802.95,-750.34 808.23,-754.93"/>
</a>
</g>
</g>
<!-- Node20&#45;&gt;Node2 -->
<g id="edge20_Node000020_Node000002" class="edge">
<title>Node20&#45;&gt;Node2</title>
<g id="a_edge20_Node000020_Node000002"><a xlink:title=" ">
<path fill="none" stroke="#63b8ff" d="M271.57,-784.09C274.77,-828.94 294.4,-1019.95 400,-1115.5 458.96,-1168.85 554.76,-1181.67 611.4,-1184.33"/>
<polygon fill="#63b8ff" stroke="#63b8ff" points="611.37,-1187.83 621.5,-1184.72 611.64,-1180.84 611.37,-1187.83"/>
</a>
</g>
</g>
<!-- Node20&#45;&gt;Node8 -->
<g id="edge21_Node000020_Node000008" class="edge">
<title>Node20&#45;&gt;Node8</title>
<g id="a_edge21_Node000020_Node000008"><a xlink:title=" ">
<path fill="none" stroke="#63b8ff" d="M271.37,-784.28C273.68,-829.06 289.84,-1015.57 400,-1089.5 452.4,-1124.67 486.19,-1118.96 542,-1089.5 602.93,-1057.34 637.81,-976.97 651.16,-939.85"/>
<polygon fill="#63b8ff" stroke="#63b8ff" points="654.53,-940.81 654.48,-930.21 647.91,-938.52 654.53,-940.81"/>
</a>
</g>
</g>
<!-- Node21 -->
<g id="Node000021" class="node">
<title>Node21</title>
<g id="a_Node000021"><a xlink:href="classChanBase.html#a47abb439c48f25b313e2b6594070d1a7" target="_top" xlink:title=" ">
<polygon fill="white" stroke="#666666" points="534.5,-484 407.5,-484 407.5,-465 534.5,-465 534.5,-484"/>
<text text-anchor="middle" x="471" y="-472" font-family="Ubuntu Mono" font-size="10.00">ChanBase::channelOut</text>
</a>
</g>
</g>
<!-- Node20&#45;&gt;Node21 -->
<g id="edge18_Node000020_Node000021" class="edge">
<title>Node20&#45;&gt;Node21</title>
<g id="a_edge18_Node000020_Node000021"><a xlink:title=" ">
<path fill="none" stroke="#63b8ff" d="M326.93,-770.96C340.82,-767.42 354.45,-761.2 364,-750.5 440.8,-664.45 323.73,-580.02 400,-493.5 401.04,-492.32 402.15,-491.21 403.31,-490.16"/>
<polygon fill="#63b8ff" stroke="#63b8ff" points="405.59,-492.84 411.71,-484.18 401.53,-487.13 405.59,-492.84"/>
</a>
</g>
</g>
<!-- Node23 -->
<g id="Node000023" class="node">
<title>Node23</title>
<g id="a_Node000023"><a xlink:href="classElementValueFinfo.html#a920b84a2ae5d17c07322009467413ca1" target="_top" xlink:title=" ">
<polygon fill="white" stroke="#666666" points="715.5,-667.5 601.5,-667.5 601.5,-637.5 715.5,-637.5 715.5,-667.5"/>
<text text-anchor="start" x="609.5" y="-655.5" font-family="Ubuntu Mono" font-size="10.00">ElementValueFinfo::</text>
<text text-anchor="middle" x="658.5" y="-644.5" font-family="Ubuntu Mono" font-size="10.00">ElementValueFinfo</text>
</a>
</g>
</g>
<!-- Node20&#45;&gt;Node23 -->
<g id="edge22_Node000020_Node000023" class="edge">
<title>Node20&#45;&gt;Node23</title>
<g id="a_edge22_Node000020_Node000023"><a xlink:title=" ">
<path fill="none" stroke="#63b8ff" d="M326.61,-769.44C340.17,-765.87 353.72,-760.01 364,-750.5 400.21,-717 359.86,-674.17 400,-645.5 460.42,-602.34 550.78,-618.11 606.83,-634.52"/>
<polygon fill="#63b8ff" stroke="#63b8ff" points="605.96,-637.91 616.54,-637.47 607.99,-631.22 605.96,-637.91"/>
</a>
</g>
</g>
<!-- Node24 -->
<g id="Node000024" class="node">
<title>Node24</title>
<g id="a_Node000024"><a xlink:href="classChanBase.html#a7e74d61abc548efead13a96ed29a5b82" target="_top" xlink:title=" ">
<polygon fill="white" stroke="#666666" points="520.5,-447 421.5,-447 421.5,-428 520.5,-428 520.5,-447"/>
<text text-anchor="middle" x="471" y="-435" font-family="Ubuntu Mono" font-size="10.00">ChanBase::getEk</text>
</a>
</g>
</g>
<!-- Node20&#45;&gt;Node24 -->
<g id="edge23_Node000020_Node000024" class="edge">
<title>Node20&#45;&gt;Node24</title>
<g id="a_edge23_Node000020_Node000024"><a xlink:title=" ">
<path fill="none" stroke="#63b8ff" d="M326.57,-771.19C340.63,-767.67 354.43,-761.41 364,-750.5 450.81,-651.53 313.81,-556.01 400,-456.5 403.42,-452.56 407.56,-449.39 412.11,-446.86"/>
<polygon fill="#63b8ff" stroke="#63b8ff" points="413.59,-450.03 421.26,-442.72 410.71,-443.65 413.59,-450.03"/>
</a>
</g>
</g>
<!-- Node26 -->
<g id="Node000026" class="node">
<title>Node26</title>
<g id="a_Node000026"><a xlink:href="classChanBase.html#a17ce4e4fec56ad50bd8b97fa45339505" target="_top" xlink:title=" ">
<polygon fill="#fff0f0" stroke="red" points="526,-410 416,-410 416,-391 526,-391 526,-410"/>
<text text-anchor="middle" x="471" y="-398" font-family="Ubuntu Mono" font-size="10.00">ChanBase::getGbar</text>
</a>
</g>
</g>
<!-- Node20&#45;&gt;Node26 -->
<g id="edge25_Node000020_Node000026" class="edge">
<title>Node20&#45;&gt;Node26</title>
<g id="a_edge25_Node000020_Node000026"><a xlink:title=" ">
<path fill="none" stroke="#63b8ff" d="M326.67,-771.27C340.73,-767.76 354.51,-761.47 364,-750.5 460.83,-638.6 303.87,-532.01 400,-419.5 402.03,-417.12 404.33,-415.03 406.82,-413.18"/>
<polygon fill="#63b8ff" stroke="#63b8ff" points="409.09,-415.91 415.94,-407.82 405.54,-409.87 409.09,-415.91"/>
</a>
</g>
</g>
<!-- Node28 -->
<g id="Node000028" class="node">
<title>Node28</title>
<g id="a_Node000028"><a xlink:href="classChanBase.html#ad4887c265e2aaf5d02d6233f6c9b4c7b" target="_top" xlink:title=" ">
<polygon fill="#fff0f0" stroke="red" points="521.5,-373 420.5,-373 420.5,-354 521.5,-354 521.5,-373"/>
<text text-anchor="middle" x="471" y="-361" font-family="Ubuntu Mono" font-size="10.00">ChanBase::getGk</text>
</a>
</g>
</g>
<!-- Node20&#45;&gt;Node28 -->
<g id="edge26_Node000020_Node000028" class="edge">
<title>Node20&#45;&gt;Node28</title>
<g id="a_edge26_Node000020_Node000028"><a xlink:title=" ">
<path fill="none" stroke="#63b8ff" d="M326.75,-771.34C340.8,-767.82 354.57,-761.52 364,-750.5 470.86,-625.65 293.93,-508.02 400,-382.5 403.19,-378.73 407.04,-375.67 411.27,-373.19"/>
<polygon fill="#63b8ff" stroke="#63b8ff" points="412.87,-376.3 420.42,-368.87 409.89,-369.97 412.87,-376.3"/>
</a>
</g>
</g>
<!-- Node30 -->
<g id="Node000030" class="node">
<title>Node30</title>
<g id="a_Node000030"><a xlink:href="classChanBase.html#a284b1719ed6cf2cbdc2e79c5a4ccea3b" target="_top" xlink:title=" ">
<polygon fill="#fff0f0" stroke="red" points="519,-1080 423,-1080 423,-1061 519,-1061 519,-1080"/>
<text text-anchor="middle" x="471" y="-1068" font-family="Ubuntu Mono" font-size="10.00">ChanBase::getIk</text>
</a>
</g>
</g>
<!-- Node20&#45;&gt;Node30 -->
<g id="edge27_Node000020_Node000030" class="edge">
<title>Node20&#45;&gt;Node30</title>
<g id="a_edge27_Node000020_Node000030"><a xlink:title=" ">
<path fill="none" stroke="#63b8ff" d="M272.46,-784.18C279.01,-824.06 309.41,-977.12 400,-1052.5 404,-1055.83 408.53,-1058.55 413.33,-1060.77"/>
<polygon fill="#63b8ff" stroke="#63b8ff" points="412.22,-1064.09 422.8,-1064.47 414.76,-1057.57 412.22,-1064.09"/>
</a>
</g>
</g>
<!-- Node32 -->
<g id="Node000032" class="node">
<title>Node32</title>
<g id="a_Node000032"><a xlink:href="classChanBase.html#af7c5dd8cbc739a833b9c125c3d232f29" target="_top" xlink:title=" ">
<polygon fill="#fff0f0" stroke="red" points="542,-1043 400,-1043 400,-1024 542,-1024 542,-1043"/>
<text text-anchor="middle" x="471" y="-1031" font-family="Ubuntu Mono" font-size="10.00">ChanBase::getModulation</text>
</a>
</g>
</g>
<!-- Node20&#45;&gt;Node32 -->
<g id="edge28_Node000020_Node000032" class="edge">
<title>Node20&#45;&gt;Node32</title>
<g id="a_edge28_Node000020_Node000032"><a xlink:title=" ">
<path fill="none" stroke="#63b8ff" d="M273.18,-784.13C281.96,-820.58 318.25,-951.33 400,-1015.5 401.63,-1016.78 403.34,-1017.97 405.11,-1019.07"/>
<polygon fill="#63b8ff" stroke="#63b8ff" points="403.94,-1022.41 414.43,-1023.93 407.18,-1016.2 403.94,-1022.41"/>
</a>
</g>
</g>
<!-- Node34 -->
<g id="Node000034" class="node">
<title>Node34</title>
<g id="a_Node000034"><a xlink:href="classChanBase.html#afe0d330506bd5c57635d3f9e4c629473" target="_top" xlink:title=" ">
<polygon fill="#fff0f0" stroke="red" points="531.5,-1006 410.5,-1006 410.5,-987 531.5,-987 531.5,-1006"/>
<text text-anchor="middle" x="471" y="-994" font-family="Ubuntu Mono" font-size="10.00">ChanBase::handleVm</text>
</a>
</g>
</g>
<!-- Node20&#45;&gt;Node34 -->
<g id="edge29_Node000020_Node000034" class="edge">
<title>Node20&#45;&gt;Node34</title>
<g id="a_edge29_Node000020_Node000034"><a xlink:title=" ">
<path fill="none" stroke="#63b8ff" d="M274.26,-784.44C285.68,-817.63 327.17,-925.47 400,-978.5 401.9,-979.88 403.89,-981.15 405.95,-982.33"/>
<polygon fill="#63b8ff" stroke="#63b8ff" points="404.86,-985.69 415.39,-986.89 407.91,-979.39 404.86,-985.69"/>
</a>
</g>
</g>
<!-- Node36 -->
<g id="Node000036" class="node">
<title>Node36</title>
<g id="a_Node000036"><a xlink:href="classChanBase.html#ad247c54be6894447b422a7539e952cf7" target="_top" xlink:title=" ">
<polygon fill="#fff0f0" stroke="red" points="520,-969 422,-969 422,-950 520,-950 520,-969"/>
<text text-anchor="middle" x="471" y="-957" font-family="Ubuntu Mono" font-size="10.00">ChanBase::IkOut</text>
</a>
</g>
</g>
<!-- Node20&#45;&gt;Node36 -->
<g id="edge30_Node000020_Node000036" class="edge">
<title>Node20&#45;&gt;Node36</title>
<g id="a_edge30_Node000020_Node000036"><a xlink:title=" ">
<path fill="none" stroke="#63b8ff" d="M275.57,-784.23C289.67,-813.1 335.44,-898.98 400,-941.5 403.82,-944.01 407.96,-946.18 412.27,-948.04"/>
<polygon fill="#63b8ff" stroke="#63b8ff" points="411.3,-951.41 421.89,-951.65 413.76,-944.86 411.3,-951.41"/>
</a>
</g>
</g>
<!-- Node38 -->
<g id="Node000038" class="node">
<title>Node38</title>
<g id="a_Node000038"><a xlink:href="classNeutral.html#a70fe1de93fce8611988faacd5cc96dd3" target="_top" xlink:title=" ">
<polygon fill="#fff0f0" stroke="red" points="521,-673 421,-673 421,-654 521,-654 521,-673"/>
<text text-anchor="middle" x="471" y="-661" font-family="Ubuntu Mono" font-size="10.00">Neutral::initCinfo</text>
</a>
</g>
</g>
<!-- Node20&#45;&gt;Node38 -->
<g id="edge31_Node000020_Node000038" class="edge">
<title>Node20&#45;&gt;Node38</title>
<g id="a_edge31_Node000020_Node000038"><a xlink:title=" ">
<path fill="none" stroke="#63b8ff" d="M326.61,-768.05C339.87,-764.48 353.27,-758.97 364,-750.5 390.84,-729.31 373.29,-703.85 400,-682.5 403.53,-679.68 407.44,-677.28 411.55,-675.23"/>
<polygon fill="#63b8ff" stroke="#63b8ff" points="413,-678.42 420.83,-671.3 410.26,-671.98 413,-678.42"/>
</a>
</g>
</g>
<!-- Node156 -->
<g id="Node000156" class="node">
<title>Node156</title>
<g id="a_Node000156"><a xlink:href="classReadOnlyElementValueFinfo.html#a3b23da3d750c77a21335cbd66535dbe1" target="_top" xlink:title=" ">
<polygon fill="white" stroke="#666666" points="739,-613.5 578,-613.5 578,-583.5 739,-583.5 739,-613.5"/>
<text text-anchor="start" x="586" y="-601.5" font-family="Ubuntu Mono" font-size="10.00">ReadOnlyElementValueFinfo</text>
<text text-anchor="middle" x="658.5" y="-590.5" font-family="Ubuntu Mono" font-size="10.00">::ReadOnlyElementValueFinfo</text>
</a>
</g>
</g>
<!-- Node20&#45;&gt;Node156 -->
<g id="edge41_Node000020_Node000156" class="edge">
<title>Node20&#45;&gt;Node156</title>
<g id="a_edge41_Node000020_Node000156"><a xlink:title=" ">
<path fill="none" stroke="#63b8ff" d="M326.61,-770.07C340.33,-766.51 353.96,-760.5 364,-750.5 408.61,-706.08 351.29,-653.38 400,-613.5 451.24,-571.55 529.2,-573.06 585.91,-581.82"/>
<polygon fill="#63b8ff" stroke="#63b8ff" points="585.45,-585.29 595.89,-583.47 586.59,-578.38 585.45,-585.29"/>
</a>
</g>
</g>
<!-- Node20&#45;&gt;Node177 -->
<g id="edge37_Node000020_Node000177" class="edge">
<title>Node20&#45;&gt;Node177</title>
<g id="a_edge37_Node000020_Node000177"><a xlink:title=" ">
<path fill="none" stroke="#63b8ff" d="M326.81,-771.4C340.87,-767.88 354.62,-761.56 364,-750.5 422.58,-681.42 341.39,-413.56 400,-344.5 402.39,-341.69 405.15,-339.28 408.17,-337.23"/>
<polygon fill="#63b8ff" stroke="#63b8ff" points="410.11,-340.16 417.26,-332.34 406.79,-334 410.11,-340.16"/>
</a>
</g>
</g>
<!-- Node178 -->
<g id="Node000178" class="node">
<title>Node178</title>
<g id="a_Node000178"><a xlink:href="classChanBase.html#a0ac42064c9b59a9e36285ded2af3cc64" target="_top" xlink:title=" ">
<polygon fill="#fff0f0" stroke="red" points="538,-932 404,-932 404,-913 538,-913 538,-932"/>
<text text-anchor="middle" x="471" y="-920" font-family="Ubuntu Mono" font-size="10.00">ChanBase::permeability</text>
</a>
</g>
</g>
<!-- Node20&#45;&gt;Node178 -->
<g id="edge38_Node000020_Node000178" class="edge">
<title>Node20&#45;&gt;Node178</title>
<g id="a_edge38_Node000020_Node000178"><a xlink:title=" ">
<path fill="none" stroke="#63b8ff" d="M277.59,-784.06C294.75,-808.22 343.45,-872.09 400,-904.5 403.18,-906.32 406.55,-907.96 410.02,-909.44"/>
<polygon fill="#63b8ff" stroke="#63b8ff" points="408.79,-912.72 419.38,-912.98 411.26,-906.17 408.79,-912.72"/>
</a>
</g>
</g>
<!-- Node179 -->
<g id="Node000179" class="node">
<title>Node179</title>
<g id="a_Node000179"><a xlink:href="classChanBase.html#a47e2838dcc33e707dfb648c724150d27" target="_top" xlink:title=" ">
<polygon fill="#fff0f0" stroke="red" points="525.5,-895 416.5,-895 416.5,-876 525.5,-876 525.5,-895"/>
<text text-anchor="middle" x="471" y="-883" font-family="Ubuntu Mono" font-size="10.00">ChanBase::process</text>
</a>
</g>
</g>
<!-- Node20&#45;&gt;Node179 -->
<g id="edge39_Node000020_Node000179" class="edge">
<title>Node20&#45;&gt;Node179</title>
<g id="a_edge39_Node000020_Node000179"><a xlink:title=" ">
<path fill="none" stroke="#63b8ff" d="M281.5,-784.22C302.42,-803.08 351.5,-844.78 400,-867.5 404.14,-869.44 408.52,-871.19 412.98,-872.77"/>
<polygon fill="#63b8ff" stroke="#63b8ff" points="412.25,-876.21 422.84,-875.95 414.4,-869.55 412.25,-876.21"/>
</a>
</g>
</g>
<!-- Node181 -->
<g id="Node000181" class="node">
<title>Node181</title>
<g id="a_Node000181"><a xlink:href="classProcOpFunc.html#a09abf4cb6cd3d1ed513fee1ed18054f4" target="_top" xlink:title=" ">
<polygon fill="white" stroke="#666666" points="539.5,-858 402.5,-858 402.5,-839 539.5,-839 539.5,-858"/>
<text text-anchor="middle" x="471" y="-846" font-family="Ubuntu Mono" font-size="10.00">ProcOpFunc::ProcOpFunc</text>
</a>
</g>
</g>
<!-- Node20&#45;&gt;Node181 -->
<g id="edge40_Node000020_Node000181" class="edge">
<title>Node20&#45;&gt;Node181</title>
<g id="a_edge40_Node000020_Node000181"><a xlink:title=" ">
<path fill="none" stroke="#63b8ff" d="M290.29,-784.02C315.18,-796.03 360.05,-816.79 400,-830.5 405.92,-832.53 412.19,-834.45 418.45,-836.23"/>
<polygon fill="#63b8ff" stroke="#63b8ff" points="417.65,-839.65 428.22,-838.91 419.5,-832.89 417.65,-839.65"/>
</a>
</g>
</g>
<!-- Node182 -->
<g id="Node000182" class="node">
<title>Node182</title>
<g id="a_Node000182"><a xlink:href="classChanBase.html#a0f1b1067d2a3507758537e0ef135dd02" target="_top" xlink:title=" ">
<polygon fill="#fff0f0" stroke="red" points="519.5,-821 422.5,-821 422.5,-802 519.5,-802 519.5,-821"/>
<text text-anchor="middle" x="471" y="-809" font-family="Ubuntu Mono" font-size="10.00">ChanBase::reinit</text>
</a>
</g>
</g>
<!-- Node20&#45;&gt;Node182 -->
<g id="edge42_Node000020_Node000182" class="edge">
<title>Node20&#45;&gt;Node182</title>
<g id="a_edge42_Node000020_Node000182"><a xlink:title=" ">
<path fill="none" stroke="#63b8ff" d="M322.25,-784.03C349.73,-789.14 383.7,-795.46 412.14,-800.74"/>
<polygon fill="#63b8ff" stroke="#63b8ff" points="411.87,-804.25 422.34,-802.64 413.15,-797.37 411.87,-804.25"/>
</a>
</g>
</g>
<!-- Node184 -->
<g id="Node000184" class="node">
<title>Node184</title>
<g id="a_Node000184"><a xlink:href="classChanBase.html#ab398afed3726484d5590eb9f8251651d" target="_top" xlink:title=" ">
<polygon fill="#fff0f0" stroke="red" points="520,-784 422,-784 422,-765 520,-765 520,-784"/>
<text text-anchor="middle" x="471" y="-772" font-family="Ubuntu Mono" font-size="10.00">ChanBase::setEk</text>
</a>
</g>
</g>
<!-- Node20&#45;&gt;Node184 -->
<g id="edge43_Node000020_Node000184" class="edge">
<title>Node20&#45;&gt;Node184</title>
<g id="a_edge43_Node000020_Node000184"><a xlink:title=" ">
<path fill="none" stroke="#63b8ff" d="M326.7,-774.5C353.21,-774.5 384.9,-774.5 411.73,-774.5"/>
<polygon fill="#63b8ff" stroke="#63b8ff" points="411.75,-778 421.75,-774.5 411.75,-771 411.75,-778"/>
</a>
</g>
</g>
<!-- Node186 -->
<g id="Node000186" class="node">
<title>Node186</title>
<g id="a_Node000186"><a xlink:href="classChanBase.html#af1ee22625fc9a829ca1290b103d6fb23" target="_top" xlink:title=" ">
<polygon fill="#fff0f0" stroke="red" points="526,-747 416,-747 416,-728 526,-728 526,-747"/>
<text text-anchor="middle" x="471" y="-735" font-family="Ubuntu Mono" font-size="10.00">ChanBase::setGbar</text>
</a>
</g>
</g>
<!-- Node20&#45;&gt;Node186 -->
<g id="edge44_Node000020_Node000186" class="edge">
<title>Node20&#45;&gt;Node186</title>
<g id="a_edge44_Node000020_Node000186"><a xlink:title=" ">
<path fill="none" stroke="#63b8ff" d="M322.25,-764.97C348.61,-760.07 380.93,-754.06 408.61,-748.91"/>
<polygon fill="#63b8ff" stroke="#63b8ff" points="409.39,-752.33 418.58,-747.06 408.11,-745.45 409.39,-752.33"/>
</a>
</g>
</g>
<!-- Node188 -->
<g id="Node000188" class="node">
<title>Node188</title>
<g id="a_Node000188"><a xlink:href="classChanBase.html#a5be7f8c73ae22fe65dfccb18fb67fb00" target="_top" xlink:title=" ">
<polygon fill="#fff0f0" stroke="red" points="521,-710 421,-710 421,-691 521,-691 521,-710"/>
<text text-anchor="middle" x="471" y="-698" font-family="Ubuntu Mono" font-size="10.00">ChanBase::setGk</text>
</a>
</g>
</g>
<!-- Node20&#45;&gt;Node188 -->
<g id="edge45_Node000020_Node000188" class="edge">
<title>Node20&#45;&gt;Node188</title>
<g id="a_edge45_Node000020_Node000188"><a xlink:title=" ">
<path fill="none" stroke="#63b8ff" d="M325.18,-764.96C338.33,-761.46 352.03,-756.76 364,-750.5 382.71,-740.72 381.35,-729.4 400,-719.5 404.29,-717.22 408.88,-715.2 413.58,-713.4"/>
<polygon fill="#63b8ff" stroke="#63b8ff" points="415.01,-716.61 423.32,-710.04 412.73,-710 415.01,-716.61"/>
</a>
</g>
</g>
<!-- Node190 -->
<g id="Node000190" class="node">
<title>Node190</title>
<g id="a_Node000190"><a xlink:href="classChanBase.html#a8fef557fb1049b3d6d6d47397e266275" target="_top" xlink:title=" ">
<polygon fill="#fff0f0" stroke="red" points="541.5,-521 400.5,-521 400.5,-502 541.5,-502 541.5,-521"/>
<text text-anchor="middle" x="471" y="-509" font-family="Ubuntu Mono" font-size="10.00">ChanBase::setModulation</text>
</a>
</g>
</g>
<!-- Node20&#45;&gt;Node190 -->
<g id="edge46_Node000020_Node000190" class="edge">
<title>Node20&#45;&gt;Node190</title>
<g id="a_edge46_Node000020_Node000190"><a xlink:title=" ">
<path fill="none" stroke="#63b8ff" d="M326.74,-770.79C340.63,-767.25 354.31,-761.07 364,-750.5 429.48,-679.09 337.35,-609.4 400,-535.5 403.21,-531.72 407.04,-528.53 411.23,-525.85"/>
<polygon fill="#63b8ff" stroke="#63b8ff" points="413.1,-528.81 420.26,-521.01 409.8,-522.64 413.1,-528.81"/>
</a>
</g>
</g>
<!-- Node192 -->
<g id="Node000192" class="node">
<title>Node192</title>
<g id="a_Node000192"><a xlink:href="classSharedFinfo.html#a64b94efcbd56f0e785f92d027541ae29" target="_top" xlink:title=" ">
<polygon fill="white" stroke="#666666" points="727.5,-562 589.5,-562 589.5,-543 727.5,-543 727.5,-562"/>
<text text-anchor="middle" x="658.5" y="-550" font-family="Ubuntu Mono" font-size="10.00">SharedFinfo::SharedFinfo</text>
</a>
</g>
</g>
<!-- Node20&#45;&gt;Node192 -->
<g id="edge47_Node000020_Node000192" class="edge">
<title>Node20&#45;&gt;Node192</title>
<g id="a_edge47_Node000020_Node000192"><a xlink:title=" ">
<path fill="none" stroke="#63b8ff" d="M326.51,-770.57C340.4,-767.03 354.13,-760.91 364,-750.5 419.54,-691.94 339.55,-625.99 400,-572.5 457.66,-521.48 553.8,-529.9 610.87,-540.98"/>
<polygon fill="#63b8ff" stroke="#63b8ff" points="610.21,-544.42 620.71,-542.99 611.62,-537.56 610.21,-544.42"/>
</a>
</g>
</g>
<!-- Node22 -->
<g id="Node000022" class="node">
<title>Node22</title>
<g id="a_Node000022"><a xlink:href="classSrcFinfo2.html#a5f3c58e70c670d2502f0897a1a016b71" target="_top" xlink:title=" ">
<polygon fill="white" stroke="#666666" points="715,-484 602,-484 602,-465 715,-465 715,-484"/>
<text text-anchor="middle" x="658.5" y="-472" font-family="Ubuntu Mono" font-size="10.00">SrcFinfo2::SrcFinfo2</text>
</a>
</g>
</g>
<!-- Node21&#45;&gt;Node22 -->
<g id="edge19_Node000021_Node000022" class="edge">
<title>Node21&#45;&gt;Node22</title>
<g id="a_edge19_Node000021_Node000022"><a xlink:title=" ">
<path fill="none" stroke="#63b8ff" d="M534.54,-474.5C552.91,-474.5 573.06,-474.5 591.63,-474.5"/>
<polygon fill="#63b8ff" stroke="#63b8ff" points="591.76,-478 601.76,-474.5 591.76,-471 591.76,-478"/>
</a>
</g>
</g>
<!-- Node25 -->
<g id="Node000025" class="node">
<title>Node25</title>
<g id="a_Node000025"><a xlink:href="classChanBase.html#a973db975cf5a3623c7bc4d37d5a0456f" target="_top" xlink:title=" ">
<polygon fill="white" stroke="#666666" points="712,-447 605,-447 605,-428 712,-428 712,-447"/>
<text text-anchor="middle" x="658.5" y="-435" font-family="Ubuntu Mono" font-size="10.00">ChanBase::vGetEk</text>
</a>
</g>
</g>
<!-- Node24&#45;&gt;Node25 -->
<g id="edge24_Node000024_Node000025" class="edge">
<title>Node24&#45;&gt;Node25</title>
<g id="a_edge24_Node000024_Node000025"><a xlink:title=" ">
<path fill="none" stroke="#63b8ff" d="M520.74,-437.5C543.37,-437.5 570.56,-437.5 594.72,-437.5"/>
<polygon fill="#63b8ff" stroke="#63b8ff" points="594.86,-441 604.86,-437.5 594.86,-434 594.86,-441"/>
</a>
</g>
</g>
<!-- Node38&#45;&gt;Node2 -->
<g id="edge32_Node000038_Node000002" class="edge">
<title>Node38&#45;&gt;Node2</title>
<g id="a_edge32_Node000038_Node000002"><a xlink:title=" ">
<path fill="none" stroke="#63b8ff" d="M521,-668.93C528.97,-671.85 536.42,-676.17 542,-682.5 580.13,-725.76 565.05,-883.3 578,-939.5 597.82,-1025.5 634.33,-1124.52 650.02,-1165.36"/>
<polygon fill="#63b8ff" stroke="#63b8ff" points="646.82,-1166.81 653.7,-1174.87 653.35,-1164.28 646.82,-1166.81"/>
</a>
</g>
</g>
<!-- Node38&#45;&gt;Node8 -->
<g id="edge33_Node000038_Node000008" class="edge">
<title>Node38&#45;&gt;Node8</title>
<g id="a_edge33_Node000038_Node000008"><a xlink:title=" ">
<path fill="none" stroke="#63b8ff" d="M521.02,-669.85C528.79,-672.7 536.17,-676.75 542,-682.5 583.45,-723.41 552.78,-756 578,-808.5 595.42,-844.77 624.42,-881.89 642.16,-902.98"/>
<polygon fill="#63b8ff" stroke="#63b8ff" points="639.64,-905.41 648.79,-910.74 644.96,-900.86 639.64,-905.41"/>
</a>
</g>
</g>
<!-- Node38&#45;&gt;Node23 -->
<g id="edge34_Node000038_Node000023" class="edge">
<title>Node38&#45;&gt;Node23</title>
<g id="a_edge34_Node000038_Node000023"><a xlink:title=" ">
<path fill="none" stroke="#63b8ff" d="M521.22,-660.58C542.73,-659.31 568.27,-657.79 591.4,-656.42"/>
<polygon fill="#63b8ff" stroke="#63b8ff" points="591.71,-659.91 601.48,-655.82 591.29,-652.92 591.71,-659.91"/>
</a>
</g>
</g>
<!-- Node38&#45;&gt;Node156 -->
<g id="edge35_Node000038_Node000156" class="edge">
<title>Node38&#45;&gt;Node156</title>
<g id="a_edge35_Node000038_Node000156"><a xlink:title=" ">
<path fill="none" stroke="#63b8ff" d="M499.37,-653.91C526.98,-644.23 570.32,-629.05 604.65,-617.02"/>
<polygon fill="#63b8ff" stroke="#63b8ff" points="606.24,-620.17 614.52,-613.56 603.93,-613.56 606.24,-620.17"/>
</a>
</g>
</g>
<!-- Node38&#45;&gt;Node176 -->
<g id="edge36_Node000038_Node000176" class="edge">
<title>Node38&#45;&gt;Node176</title>
<g id="a_edge36_Node000038_Node000176"><a xlink:title=" ">
<path fill="none" stroke="#63b8ff" d="M519.54,-673.06C527.3,-675.55 535.06,-678.65 542,-682.5 584.37,-705.99 623.43,-748.24 643.46,-772.02"/>
<polygon fill="#63b8ff" stroke="#63b8ff" points="640.88,-774.39 649.95,-779.87 646.28,-769.93 640.88,-774.39"/>
</a>
</g>
</g>
<!-- Node192&#45;&gt;Node9 -->
<g id="edge48_Node000192_Node000009" class="edge">
<title>Node192&#45;&gt;Node9</title>
<g id="a_edge48_Node000192_Node000009"><a xlink:title=" ">
<path fill="none" stroke="#63b8ff" d="M716.66,-562.02C724.72,-565.09 732.46,-569.15 739,-574.5 784.73,-611.95 807.32,-681.65 816.04,-715.72"/>
<polygon fill="#63b8ff" stroke="#63b8ff" points="812.73,-716.91 818.48,-725.81 819.54,-715.27 812.73,-716.91"/>
</a>
</g>
</g>
</g>
</svg>
