<?xml version="1.0" encoding="UTF-8" standalone="no"?>
<!DOCTYPE svg PUBLIC "-//W3C//DTD SVG 1.1//EN"
 "http://www.w3.org/Graphics/SVG/1.1/DTD/svg11.dtd">
<!-- Generated by graphviz version 2.43.0 (0)
 -->
<!-- Title: DiagonalMsg::getStride Pages: 1 -->
<svg width="724pt" height="64pt"
 viewBox="0.00 0.00 724.00 64.00" xmlns="http://www.w3.org/2000/svg" xmlns:xlink="http://www.w3.org/1999/xlink">
<g id="graph0" class="graph" transform="scale(1 1) rotate(0) translate(4 60)">
<title>DiagonalMsg::getStride</title>
<!-- Node1 -->
<g id="Node000001" class="node">
<title>Node1</title>
<g id="a_Node000001"><a xlink:title=" ">
<polygon fill="#999999" stroke="#666666" points="716,-37 585,-37 585,-18 716,-18 716,-37"/>
<text text-anchor="middle" x="650.5" y="-25" font-family="Ubuntu Mono" font-size="10.00">DiagonalMsg::getStride</text>
</a>
</g>
</g>
<!-- Node2 -->
<g id="Node000002" class="node">
<title>Node2</title>
<g id="a_Node000002"><a xlink:href="classDiagonalMsg.html#af3faaeb03ba11fdf7e0758c19b60583b" target="_top" xlink:title="Setup function for Element&#45;style access to Msg fields.">
<polygon fill="white" stroke="#666666" points="549,-37 421,-37 421,-18 549,-18 549,-37"/>
<text text-anchor="middle" x="485" y="-25" font-family="Ubuntu Mono" font-size="10.00">DiagonalMsg::initCinfo</text>
</a>
</g>
</g>
<!-- Node1&#45;&gt;Node2 -->
<g id="edge1_Node000001_Node000002" class="edge">
<title>Node1&#45;&gt;Node2</title>
<g id="a_edge1_Node000001_Node000002"><a xlink:title=" ">
<path fill="none" stroke="#63b8ff" d="M574.84,-27.5C566.23,-27.5 557.52,-27.5 549.08,-27.5"/>
<polygon fill="#63b8ff" stroke="#63b8ff" points="574.88,-31 584.88,-27.5 574.88,-24 574.88,-31"/>
</a>
</g>
</g>
<!-- Node3 -->
<g id="Node000003" class="node">
<title>Node3</title>
<g id="a_Node000003"><a xlink:href="classMsg.html#af3de05897dc7602c64678a31c58ebece" target="_top" xlink:title=" ">
<polygon fill="white" stroke="#666666" points="385,-37 258,-37 258,-18 385,-18 385,-37"/>
<text text-anchor="middle" x="321.5" y="-25" font-family="Ubuntu Mono" font-size="10.00">Msg::initMsgManagers</text>
</a>
</g>
</g>
<!-- Node2&#45;&gt;Node3 -->
<g id="edge2_Node000002_Node000003" class="edge">
<title>Node2&#45;&gt;Node3</title>
<g id="a_edge2_Node000002_Node000003"><a xlink:title=" ">
<path fill="none" stroke="#63b8ff" d="M410.42,-27.5C401.98,-27.5 393.43,-27.5 385.15,-27.5"/>
<polygon fill="#63b8ff" stroke="#63b8ff" points="410.63,-31 420.63,-27.5 410.63,-24 410.63,-31"/>
</a>
</g>
</g>
<!-- Node4 -->
<g id="Node000004" class="node">
<title>Node4</title>
<g id="a_Node000004"><a xlink:href="main_8cpp.html#a6e304b494f9a324f952d9f2033b2b136" target="_top" xlink:title=" ">
<polygon fill="white" stroke="#666666" points="184.5,-56 152.5,-56 152.5,-37 184.5,-37 184.5,-56"/>
<text text-anchor="middle" x="168.5" y="-44" font-family="Ubuntu Mono" font-size="10.00">init</text>
</a>
</g>
</g>
<!-- Node3&#45;&gt;Node4 -->
<g id="edge3_Node000003_Node000004" class="edge">
<title>Node3&#45;&gt;Node4</title>
<g id="a_edge3_Node000003_Node000004"><a xlink:title=" ">
<path fill="none" stroke="#63b8ff" d="M247.61,-36.67C223.78,-39.67 199.6,-42.71 184.58,-44.6"/>
<polygon fill="#63b8ff" stroke="#63b8ff" points="248.29,-40.11 257.77,-35.39 247.42,-33.17 248.29,-40.11"/>
</a>
</g>
</g>
<!-- Node6 -->
<g id="Node000006" class="node">
<title>Node6</title>
<g id="a_Node000006"><a xlink:href="namespacepymoose.html#ac084ce08f68367317e7c014c61520ac9" target="_top" xlink:title="Initialize shell object.">
<polygon fill="white" stroke="#666666" points="222,-19 115,-19 115,0 222,0 222,-19"/>
<text text-anchor="middle" x="168.5" y="-7" font-family="Ubuntu Mono" font-size="10.00">pymoose::initShell</text>
</a>
</g>
</g>
<!-- Node3&#45;&gt;Node6 -->
<g id="edge5_Node000003_Node000006" class="edge">
<title>Node3&#45;&gt;Node6</title>
<g id="a_edge5_Node000003_Node000006"><a xlink:title=" ">
<path fill="none" stroke="#63b8ff" d="M247.72,-18.82C239.11,-17.8 230.45,-16.77 222.2,-15.78"/>
<polygon fill="#63b8ff" stroke="#63b8ff" points="247.43,-22.31 257.77,-20.02 248.26,-15.36 247.43,-22.31"/>
</a>
</g>
</g>
<!-- Node5 -->
<g id="Node000005" class="node">
<title>Node5</title>
<g id="a_Node000005"><a xlink:href="main_8cpp.html#a3c04138a5bfe5d72780bb7e82a18e627" target="_top" xlink:title=" ">
<polygon fill="white" stroke="#666666" points="60,-56 19,-56 19,-37 60,-37 60,-56"/>
<text text-anchor="middle" x="39.5" y="-44" font-family="Ubuntu Mono" font-size="10.00">main</text>
</a>
</g>
</g>
<!-- Node4&#45;&gt;Node5 -->
<g id="edge4_Node000004_Node000005" class="edge">
<title>Node4&#45;&gt;Node5</title>
<g id="a_edge4_Node000004_Node000005"><a xlink:title=" ">
<path fill="none" stroke="#63b8ff" d="M142.26,-46.5C118.11,-46.5 82.19,-46.5 60.12,-46.5"/>
<polygon fill="#63b8ff" stroke="#63b8ff" points="142.43,-50 152.43,-46.5 142.43,-43 142.43,-50"/>
</a>
</g>
</g>
<!-- Node7 -->
<g id="Node000007" class="node">
<title>Node7</title>
<g id="a_Node000007"><a xlink:href="pymoose_8cpp.html#a8650e41c2375717fa66fb61a653d866e" target="_top" xlink:title=" ">
<polygon fill="white" stroke="#666666" points="79,-19 0,-19 0,0 79,0 79,-19"/>
<text text-anchor="middle" x="39.5" y="-7" font-family="Ubuntu Mono" font-size="10.00">NB_MODULE</text>
</a>
</g>
</g>
<!-- Node6&#45;&gt;Node7 -->
<g id="edge6_Node000006_Node000007" class="edge">
<title>Node6&#45;&gt;Node7</title>
<g id="a_edge6_Node000006_Node000007"><a xlink:title=" ">
<path fill="none" stroke="#63b8ff" d="M104.65,-9.5C96.02,-9.5 87.37,-9.5 79.34,-9.5"/>
<polygon fill="#63b8ff" stroke="#63b8ff" points="104.74,-13 114.74,-9.5 104.74,-6 104.74,-13"/>
</a>
</g>
</g>
</g>
</svg>
