<?xml version="1.0" encoding="UTF-8" standalone="no"?>
<!DOCTYPE svg PUBLIC "-//W3C//DTD SVG 1.1//EN"
 "http://www.w3.org/Graphics/SVG/1.1/DTD/svg11.dtd">
<!-- Generated by graphviz version 2.43.0 (0)
 -->
<!-- Title: Vec::operator* Pages: 1 -->
<svg width="794pt" height="46pt"
 viewBox="0.00 0.00 794.00 46.00" xmlns="http://www.w3.org/2000/svg" xmlns:xlink="http://www.w3.org/1999/xlink">
<g id="graph0" class="graph" transform="scale(1 1) rotate(0) translate(4 42)">
<title>Vec::operator*</title>
<!-- Node1 -->
<g id="Node000001" class="node">
<title>Node1</title>
<g id="a_Node000001"><a xlink:title=" ">
<polygon fill="#999999" stroke="#666666" points="786,-38 700,-38 700,-19 786,-19 786,-38"/>
<text text-anchor="middle" x="743" y="-26" font-family="Ubuntu Mono" font-size="10.00">Vec::operator*</text>
</a>
</g>
</g>
<!-- Node2 -->
<g id="Node000002" class="node">
<title>Node2</title>
<g id="a_Node000002"><a xlink:href="Neuron_8cpp.html#ada5cc7cc086896a965af4cc6bba46da1" target="_top" xlink:title=" ">
<polygon fill="white" stroke="#666666" points="546,-38 484,-38 484,-19 546,-19 546,-38"/>
<text text-anchor="middle" x="515" y="-26" font-family="Ubuntu Mono" font-size="10.00">addSpine</text>
</a>
</g>
</g>
<!-- Node1&#45;&gt;Node2 -->
<g id="edge1_Node000001_Node000002" class="edge">
<title>Node1&#45;&gt;Node2</title>
<g id="a_edge1_Node000001_Node000002"><a xlink:title=" ">
<path fill="none" stroke="#63b8ff" d="M689.7,-28.5C645.16,-28.5 582.74,-28.5 546.12,-28.5"/>
<polygon fill="#63b8ff" stroke="#63b8ff" points="689.76,-32 699.76,-28.5 689.76,-25 689.76,-32"/>
</a>
</g>
</g>
<!-- Node6 -->
<g id="Node000006" class="node">
<title>Node6</title>
<g id="a_Node000006"><a xlink:href="Neuron_8cpp.html#adedd864910fac11e1829077444437669" target="_top" xlink:title=" ">
<polygon fill="white" stroke="#666666" points="664,-19 582,-19 582,0 664,0 664,-19"/>
<text text-anchor="middle" x="623" y="-7" font-family="Ubuntu Mono" font-size="10.00">reorientSpine</text>
</a>
</g>
</g>
<!-- Node1&#45;&gt;Node6 -->
<g id="edge5_Node000001_Node000006" class="edge">
<title>Node1&#45;&gt;Node6</title>
<g id="a_edge5_Node000001_Node000006"><a xlink:title=" ">
<path fill="none" stroke="#63b8ff" d="M689.73,-20.08C681.1,-18.69 672.27,-17.27 664,-15.94"/>
<polygon fill="#63b8ff" stroke="#63b8ff" points="689.3,-23.56 699.73,-21.69 690.42,-16.65 689.3,-23.56"/>
</a>
</g>
</g>
<!-- Node3 -->
<g id="Node000003" class="node">
<title>Node3</title>
<g id="a_Node000003"><a xlink:href="classNeuron.html#a5c9ddeba1b1718038a4dbe14a185a4af" target="_top" xlink:title=" ">
<polygon fill="white" stroke="#666666" points="448,-38 328,-38 328,-19 448,-19 448,-38"/>
<text text-anchor="middle" x="388" y="-26" font-family="Ubuntu Mono" font-size="10.00">Neuron::installSpines</text>
</a>
</g>
</g>
<!-- Node2&#45;&gt;Node3 -->
<g id="edge2_Node000002_Node000003" class="edge">
<title>Node2&#45;&gt;Node3</title>
<g id="a_edge2_Node000002_Node000003"><a xlink:title=" ">
<path fill="none" stroke="#63b8ff" d="M473.54,-28.5C465.49,-28.5 456.88,-28.5 448.35,-28.5"/>
<polygon fill="#63b8ff" stroke="#63b8ff" points="473.74,-32 483.74,-28.5 473.74,-25 473.74,-32"/>
</a>
</g>
</g>
<!-- Node4 -->
<g id="Node000004" class="node">
<title>Node4</title>
<g id="a_Node000004"><a xlink:href="classNeuron.html#ae6ffb87ff245f2f4eaaa0c1e5a1b6e39" target="_top" xlink:title=" ">
<polygon fill="white" stroke="#666666" points="292,-38 135,-38 135,-19 292,-19 292,-38"/>
<text text-anchor="middle" x="213.5" y="-26" font-family="Ubuntu Mono" font-size="10.00">Neuron::setSpineDistribution</text>
</a>
</g>
</g>
<!-- Node3&#45;&gt;Node4 -->
<g id="edge3_Node000003_Node000004" class="edge">
<title>Node3&#45;&gt;Node4</title>
<g id="a_edge3_Node000003_Node000004"><a xlink:title=" ">
<path fill="none" stroke="#63b8ff" d="M317.59,-28.5C309.26,-28.5 300.7,-28.5 292.25,-28.5"/>
<polygon fill="#63b8ff" stroke="#63b8ff" points="317.64,-32 327.64,-28.5 317.64,-25 317.64,-32"/>
</a>
</g>
</g>
<!-- Node5 -->
<g id="Node000005" class="node">
<title>Node5</title>
<g id="a_Node000005"><a xlink:href="classNeuron.html#a81197d09a302f2420430fe3f7874926f" target="_top" xlink:title=" ">
<polygon fill="white" stroke="#666666" points="99,-38 0,-38 0,-19 99,-19 99,-38"/>
<text text-anchor="middle" x="49.5" y="-26" font-family="Ubuntu Mono" font-size="10.00">Neuron::initCinfo</text>
</a>
</g>
</g>
<!-- Node4&#45;&gt;Node5 -->
<g id="edge4_Node000004_Node000005" class="edge">
<title>Node4&#45;&gt;Node5</title>
<g id="a_edge4_Node000004_Node000005"><a xlink:title=" ">
<path fill="none" stroke="#63b8ff" d="M124.54,-28.5C115.81,-28.5 107.19,-28.5 99.08,-28.5"/>
<polygon fill="#63b8ff" stroke="#63b8ff" points="124.82,-32 134.82,-28.5 124.82,-25 124.82,-32"/>
</a>
</g>
</g>
<!-- Node6&#45;&gt;Node2 -->
<g id="edge6_Node000006_Node000002" class="edge">
<title>Node6&#45;&gt;Node2</title>
<g id="a_edge6_Node000006_Node000002"><a xlink:title=" ">
<path fill="none" stroke="#63b8ff" d="M572.06,-18.45C563.23,-20.03 554.29,-21.64 546.21,-23.08"/>
<polygon fill="#63b8ff" stroke="#63b8ff" points="572.7,-21.89 581.93,-16.68 571.47,-15 572.7,-21.89"/>
</a>
</g>
</g>
</g>
</svg>
