<?xml version="1.0" encoding="UTF-8" standalone="no"?>
<!DOCTYPE svg PUBLIC "-//W3C//DTD SVG 1.1//EN"
 "http://www.w3.org/Graphics/SVG/1.1/DTD/svg11.dtd">
<!-- Generated by graphviz version 2.43.0 (0)
 -->
<!-- Title: GlobalDataElement Pages: 1 -->
<svg width="415pt" height="1805pt"
 viewBox="0.00 0.00 415.00 1805.00" xmlns="http://www.w3.org/2000/svg" xmlns:xlink="http://www.w3.org/1999/xlink">
<g id="graph0" class="graph" transform="scale(1 1) rotate(0) translate(4 1801)">
<title>GlobalDataElement</title>
<!-- Node1 -->
<g id="Node000001" class="node">
<title>Node1</title>
<g id="a_Node000001"><a xlink:title=" ">
<polygon fill="#999999" stroke="transparent" points="144.5,-199 11.5,-199 11.5,0 144.5,0 144.5,-199"/>
<text text-anchor="start" x="30.5" y="-186.5" font-family="Ubuntu Mono" font-size="10.00">GlobalDataElement</text>
<text text-anchor="start" x="76.5" y="-171.5" font-family="Ubuntu Mono" font-size="10.00"> </text>
<text text-anchor="start" x="16" y="-156.5" font-family="Ubuntu Mono" font-size="10.00">+</text>
<text text-anchor="start" x="29" y="-156.5" font-family="Ubuntu Mono" font-size="10.00">copyElement()</text>
<text text-anchor="start" x="16" y="-141.5" font-family="Ubuntu Mono" font-size="10.00">+</text>
<text text-anchor="start" x="29" y="-141.5" font-family="Ubuntu Mono" font-size="10.00">getNode()</text>
<text text-anchor="start" x="16" y="-126.5" font-family="Ubuntu Mono" font-size="10.00">+</text>
<text text-anchor="start" x="29" y="-126.5" font-family="Ubuntu Mono" font-size="10.00">getNumOnNode()</text>
<text text-anchor="start" x="16" y="-111.5" font-family="Ubuntu Mono" font-size="10.00">+</text>
<text text-anchor="start" x="29" y="-111.5" font-family="Ubuntu Mono" font-size="10.00">GlobalDataElement()</text>
<text text-anchor="start" x="16" y="-96.5" font-family="Ubuntu Mono" font-size="10.00">+</text>
<text text-anchor="start" x="29" y="-96.5" font-family="Ubuntu Mono" font-size="10.00">GlobalDataElement()</text>
<text text-anchor="start" x="16" y="-81.5" font-family="Ubuntu Mono" font-size="10.00">+</text>
<text text-anchor="start" x="29" y="-81.5" font-family="Ubuntu Mono" font-size="10.00">isGlobal()</text>
<text text-anchor="start" x="16" y="-66.5" font-family="Ubuntu Mono" font-size="10.00">+</text>
<text text-anchor="start" x="29" y="-66.5" font-family="Ubuntu Mono" font-size="10.00">localDataStart()</text>
<text text-anchor="start" x="16" y="-51.5" font-family="Ubuntu Mono" font-size="10.00">+</text>
<text text-anchor="start" x="29" y="-51.5" font-family="Ubuntu Mono" font-size="10.00">numData()</text>
<text text-anchor="start" x="16" y="-36.5" font-family="Ubuntu Mono" font-size="10.00">+</text>
<text text-anchor="start" x="29" y="-36.5" font-family="Ubuntu Mono" font-size="10.00">rawIndex()</text>
<text text-anchor="start" x="16" y="-21.5" font-family="Ubuntu Mono" font-size="10.00">+</text>
<text text-anchor="start" x="29" y="-21.5" font-family="Ubuntu Mono" font-size="10.00">startDataIndex()</text>
<text text-anchor="start" x="16" y="-6.5" font-family="Ubuntu Mono" font-size="10.00">+</text>
<text text-anchor="start" x="29" y="-6.5" font-family="Ubuntu Mono" font-size="10.00">~GlobalDataElement()</text>
<polygon fill="#666666" stroke="#666666" points="12,-181.5 12,-181.5 145,-181.5 145,-181.5 12,-181.5"/>
<polygon fill="#666666" stroke="#666666" points="12,-166.5 12,-166.5 145,-166.5 145,-166.5 12,-166.5"/>
<polygon fill="none" stroke="#666666" points="11.5,0 11.5,-199 144.5,-199 144.5,0 11.5,0"/>
</a>
</g>
</g>
<!-- Node2 -->
<g id="Node000002" class="node">
<title>Node2</title>
<g id="a_Node000002"><a xlink:href="classDataElement.html" target="_top" xlink:title=" ">
<polygon fill="white" stroke="transparent" points="135.5,-465 20.5,-465 20.5,-236 135.5,-236 135.5,-465"/>
<text text-anchor="start" x="46.5" y="-452.5" font-family="Ubuntu Mono" font-size="10.00">DataElement</text>
<text text-anchor="start" x="27.5" y="-437.5" font-family="Ubuntu Mono" font-size="10.00">&#45;</text>
<text text-anchor="start" x="38" y="-437.5" font-family="Ubuntu Mono" font-size="10.00">data_</text>
<text text-anchor="start" x="27.5" y="-422.5" font-family="Ubuntu Mono" font-size="10.00">&#45;</text>
<text text-anchor="start" x="38" y="-422.5" font-family="Ubuntu Mono" font-size="10.00">numLocalData_</text>
<text text-anchor="start" x="27.5" y="-407.5" font-family="Ubuntu Mono" font-size="10.00">&#45;</text>
<text text-anchor="start" x="38" y="-407.5" font-family="Ubuntu Mono" font-size="10.00">size_</text>
<text text-anchor="start" x="25" y="-392.5" font-family="Ubuntu Mono" font-size="10.00">+</text>
<text text-anchor="start" x="38" y="-392.5" font-family="Ubuntu Mono" font-size="10.00">data()</text>
<text text-anchor="start" x="25" y="-377.5" font-family="Ubuntu Mono" font-size="10.00">+</text>
<text text-anchor="start" x="38" y="-377.5" font-family="Ubuntu Mono" font-size="10.00">DataElement()</text>
<text text-anchor="start" x="25" y="-362.5" font-family="Ubuntu Mono" font-size="10.00">+</text>
<text text-anchor="start" x="38" y="-362.5" font-family="Ubuntu Mono" font-size="10.00">DataElement()</text>
<text text-anchor="start" x="25" y="-347.5" font-family="Ubuntu Mono" font-size="10.00">+</text>
<text text-anchor="start" x="38" y="-347.5" font-family="Ubuntu Mono" font-size="10.00">hasFields()</text>
<text text-anchor="start" x="25" y="-332.5" font-family="Ubuntu Mono" font-size="10.00">+</text>
<text text-anchor="start" x="38" y="-332.5" font-family="Ubuntu Mono" font-size="10.00">numField()</text>
<text text-anchor="start" x="25" y="-317.5" font-family="Ubuntu Mono" font-size="10.00">+</text>
<text text-anchor="start" x="38" y="-317.5" font-family="Ubuntu Mono" font-size="10.00">numLocalData()</text>
<text text-anchor="start" x="25" y="-302.5" font-family="Ubuntu Mono" font-size="10.00">+</text>
<text text-anchor="start" x="38" y="-302.5" font-family="Ubuntu Mono" font-size="10.00">resize()</text>
<text text-anchor="start" x="25" y="-287.5" font-family="Ubuntu Mono" font-size="10.00">+</text>
<text text-anchor="start" x="38" y="-287.5" font-family="Ubuntu Mono" font-size="10.00">resizeField()</text>
<text text-anchor="start" x="25" y="-272.5" font-family="Ubuntu Mono" font-size="10.00">+</text>
<text text-anchor="start" x="38" y="-272.5" font-family="Ubuntu Mono" font-size="10.00">totNumLocalField()</text>
<text text-anchor="start" x="25" y="-257.5" font-family="Ubuntu Mono" font-size="10.00">+</text>
<text text-anchor="start" x="38" y="-257.5" font-family="Ubuntu Mono" font-size="10.00">zombieSwap()</text>
<text text-anchor="start" x="25" y="-242.5" font-family="Ubuntu Mono" font-size="10.00">+</text>
<text text-anchor="start" x="38" y="-242.5" font-family="Ubuntu Mono" font-size="10.00">~DataElement()</text>
<polygon fill="#666666" stroke="#666666" points="21,-447.5 21,-447.5 136,-447.5 136,-447.5 21,-447.5"/>
<polygon fill="#666666" stroke="#666666" points="21,-402.5 21,-402.5 36,-402.5 36,-402.5 21,-402.5"/>
<polygon fill="#666666" stroke="#666666" points="36,-402.5 36,-402.5 136,-402.5 136,-402.5 36,-402.5"/>
<polygon fill="none" stroke="#666666" points="20.5,-236 20.5,-465 135.5,-465 135.5,-236 20.5,-236"/>
</a>
</g>
</g>
<!-- Node2&#45;&gt;Node1 -->
<g id="edge1_Node000001_Node000002" class="edge">
<title>Node2&#45;&gt;Node1</title>
<g id="a_edge1_Node000001_Node000002"><a xlink:title=" ">
<path fill="none" stroke="#63b8ff" d="M78,-225.81C78,-216.83 78,-207.85 78,-199.05"/>
<polygon fill="none" stroke="#63b8ff" points="74.5,-225.93 78,-235.93 81.5,-225.93 74.5,-225.93"/>
</a>
</g>
</g>
<!-- Node3 -->
<g id="Node000003" class="node">
<title>Node3</title>
<g id="a_Node000003"><a xlink:href="classElement.html" target="_top" xlink:title=" ">
<polygon fill="white" stroke="transparent" points="142.5,-836 13.5,-836 13.5,-502 142.5,-502 142.5,-836"/>
<text text-anchor="start" x="58" y="-824" font-family="Ubuntu Mono" font-size="10.00">Element</text>
<text text-anchor="start" x="20.5" y="-809" font-family="Ubuntu Mono" font-size="10.00">&#45;</text>
<text text-anchor="start" x="31" y="-809" font-family="Ubuntu Mono" font-size="10.00">isDoomed_</text>
<text text-anchor="start" x="20.5" y="-794" font-family="Ubuntu Mono" font-size="10.00">&#45;</text>
<text text-anchor="start" x="31" y="-794" font-family="Ubuntu Mono" font-size="10.00">isRewired_</text>
<text text-anchor="start" x="20.5" y="-779" font-family="Ubuntu Mono" font-size="10.00">&#45;</text>
<text text-anchor="start" x="31" y="-779" font-family="Ubuntu Mono" font-size="10.00">m_</text>
<text text-anchor="start" x="20.5" y="-764" font-family="Ubuntu Mono" font-size="10.00">&#45;</text>
<text text-anchor="start" x="31" y="-764" font-family="Ubuntu Mono" font-size="10.00">msgBinding_</text>
<text text-anchor="start" x="20.5" y="-749" font-family="Ubuntu Mono" font-size="10.00">&#45;</text>
<text text-anchor="start" x="31" y="-749" font-family="Ubuntu Mono" font-size="10.00">msgDigest_</text>
<text text-anchor="start" x="20.5" y="-734" font-family="Ubuntu Mono" font-size="10.00">&#45;</text>
<text text-anchor="start" x="31" y="-734" font-family="Ubuntu Mono" font-size="10.00">name_</text>
<text text-anchor="start" x="20.5" y="-719" font-family="Ubuntu Mono" font-size="10.00">&#45;</text>
<text text-anchor="start" x="31" y="-719" font-family="Ubuntu Mono" font-size="10.00">tick_</text>
<text text-anchor="start" x="18" y="-704" font-family="Ubuntu Mono" font-size="10.00">+</text>
<text text-anchor="start" x="31" y="-704" font-family="Ubuntu Mono" font-size="10.00">addMsg()</text>
<text text-anchor="start" x="18" y="-689" font-family="Ubuntu Mono" font-size="10.00">+</text>
<text text-anchor="start" x="31" y="-689" font-family="Ubuntu Mono" font-size="10.00">addMsgAndFunc()</text>
<text text-anchor="start" x="18" y="-674" font-family="Ubuntu Mono" font-size="10.00">+</text>
<text text-anchor="start" x="31" y="-674" font-family="Ubuntu Mono" font-size="10.00">cinfo()</text>
<text text-anchor="start" x="18" y="-659" font-family="Ubuntu Mono" font-size="10.00">+</text>
<text text-anchor="start" x="31" y="-659" font-family="Ubuntu Mono" font-size="10.00">clearAllMsgs()</text>
<text text-anchor="start" x="18" y="-644" font-family="Ubuntu Mono" font-size="10.00">+</text>
<text text-anchor="start" x="31" y="-644" font-family="Ubuntu Mono" font-size="10.00">clearBinding()</text>
<text text-anchor="start" x="18" y="-629" font-family="Ubuntu Mono" font-size="10.00">+</text>
<text text-anchor="start" x="31" y="-629" font-family="Ubuntu Mono" font-size="10.00">copyElement()</text>
<text text-anchor="start" x="18" y="-614" font-family="Ubuntu Mono" font-size="10.00">+</text>
<text text-anchor="start" x="31" y="-614" font-family="Ubuntu Mono" font-size="10.00">data()</text>
<text text-anchor="start" x="18" y="-599" font-family="Ubuntu Mono" font-size="10.00">+</text>
<text text-anchor="start" x="31" y="-599" font-family="Ubuntu Mono" font-size="10.00">digestMessages()</text>
<text text-anchor="start" x="18" y="-584" font-family="Ubuntu Mono" font-size="10.00">+</text>
<text text-anchor="start" x="31" y="-584" font-family="Ubuntu Mono" font-size="10.00">dropAllMsgsFromSrc()</text>
<text text-anchor="start" x="18" y="-569" font-family="Ubuntu Mono" font-size="10.00">+</text>
<text text-anchor="start" x="31" y="-569" font-family="Ubuntu Mono" font-size="10.00">dropMsg()</text>
<text text-anchor="start" x="31" y="-554" font-family="Ubuntu Mono" font-size="10.00">and 44 more...</text>
<text text-anchor="start" x="18" y="-539" font-family="Ubuntu Mono" font-size="10.00">+</text>
<text text-anchor="start" x="31" y="-539" font-family="Ubuntu Mono" font-size="10.00">destroyElementTree()</text>
<text text-anchor="start" x="20.5" y="-524" font-family="Ubuntu Mono" font-size="10.00">&#45;</text>
<text text-anchor="start" x="31" y="-524" font-family="Ubuntu Mono" font-size="10.00">getInputs()</text>
<text text-anchor="start" x="20.5" y="-509" font-family="Ubuntu Mono" font-size="10.00">&#45;</text>
<text text-anchor="start" x="31" y="-509" font-family="Ubuntu Mono" font-size="10.00">getOutputs()</text>
<polygon fill="#666666" stroke="#666666" points="14,-819 14,-819 143,-819 143,-819 14,-819"/>
<polygon fill="#666666" stroke="#666666" points="14,-714 14,-714 29,-714 29,-714 14,-714"/>
<polygon fill="#666666" stroke="#666666" points="29,-714 29,-714 143,-714 143,-714 29,-714"/>
<polygon fill="none" stroke="#666666" points="13.5,-502 13.5,-836 142.5,-836 142.5,-502 13.5,-502"/>
</a>
</g>
</g>
<!-- Node3&#45;&gt;Node2 -->
<g id="edge2_Node000002_Node000003" class="edge">
<title>Node3&#45;&gt;Node2</title>
<g id="a_edge2_Node000002_Node000003"><a xlink:title=" ">
<path fill="none" stroke="#63b8ff" d="M78,-491.73C78,-482.77 78,-473.89 78,-465.21"/>
<polygon fill="none" stroke="#63b8ff" points="74.5,-491.87 78,-501.87 81.5,-491.87 74.5,-491.87"/>
</a>
</g>
</g>
<!-- Node4 -->
<g id="Node000004" class="node">
<title>Node4</title>
<g id="a_Node000004"><a xlink:href="classId.html" target="_top" xlink:title=" ">
<polygon fill="white" stroke="transparent" points="112,-1299.5 0,-1299.5 0,-920.5 112,-920.5 112,-1299.5"/>
<text text-anchor="start" x="51" y="-1287" font-family="Ubuntu Mono" font-size="10.00">Id</text>
<text text-anchor="start" x="6.5" y="-1272" font-family="Ubuntu Mono" font-size="10.00">&#45;</text>
<text text-anchor="start" x="17" y="-1272" font-family="Ubuntu Mono" font-size="10.00">id_</text>
<text text-anchor="start" x="4" y="-1257" font-family="Ubuntu Mono" font-size="10.00">+</text>
<text text-anchor="start" x="17" y="-1257" font-family="Ubuntu Mono" font-size="10.00">bindIdToElement()</text>
<text text-anchor="start" x="4" y="-1242" font-family="Ubuntu Mono" font-size="10.00">+</text>
<text text-anchor="start" x="17" y="-1242" font-family="Ubuntu Mono" font-size="10.00">destroy()</text>
<text text-anchor="start" x="4" y="-1227" font-family="Ubuntu Mono" font-size="10.00">+</text>
<text text-anchor="start" x="17" y="-1227" font-family="Ubuntu Mono" font-size="10.00">element()</text>
<text text-anchor="start" x="4" y="-1212" font-family="Ubuntu Mono" font-size="10.00">+</text>
<text text-anchor="start" x="17" y="-1212" font-family="Ubuntu Mono" font-size="10.00">eref()</text>
<text text-anchor="start" x="4" y="-1197" font-family="Ubuntu Mono" font-size="10.00">+</text>
<text text-anchor="start" x="17" y="-1197" font-family="Ubuntu Mono" font-size="10.00">Id()</text>
<text text-anchor="start" x="4" y="-1182" font-family="Ubuntu Mono" font-size="10.00">+</text>
<text text-anchor="start" x="17" y="-1182" font-family="Ubuntu Mono" font-size="10.00">Id()</text>
<text text-anchor="start" x="4" y="-1167" font-family="Ubuntu Mono" font-size="10.00">+</text>
<text text-anchor="start" x="17" y="-1167" font-family="Ubuntu Mono" font-size="10.00">Id()</text>
<text text-anchor="start" x="4" y="-1152" font-family="Ubuntu Mono" font-size="10.00">+</text>
<text text-anchor="start" x="17" y="-1152" font-family="Ubuntu Mono" font-size="10.00">Id()</text>
<text text-anchor="start" x="4" y="-1137" font-family="Ubuntu Mono" font-size="10.00">+</text>
<text text-anchor="start" x="17" y="-1137" font-family="Ubuntu Mono" font-size="10.00">operator!=()</text>
<text text-anchor="start" x="4" y="-1122" font-family="Ubuntu Mono" font-size="10.00">+</text>
<text text-anchor="start" x="17" y="-1122" font-family="Ubuntu Mono" font-size="10.00">operator&lt;()</text>
<text text-anchor="start" x="4" y="-1107" font-family="Ubuntu Mono" font-size="10.00">+</text>
<text text-anchor="start" x="17" y="-1107" font-family="Ubuntu Mono" font-size="10.00">operator==()</text>
<text text-anchor="start" x="4" y="-1092" font-family="Ubuntu Mono" font-size="10.00">+</text>
<text text-anchor="start" x="17" y="-1092" font-family="Ubuntu Mono" font-size="10.00">path()</text>
<text text-anchor="start" x="4" y="-1077" font-family="Ubuntu Mono" font-size="10.00">+</text>
<text text-anchor="start" x="17" y="-1077" font-family="Ubuntu Mono" font-size="10.00">value()</text>
<text text-anchor="start" x="4" y="-1062" font-family="Ubuntu Mono" font-size="10.00">+</text>
<text text-anchor="start" x="17" y="-1062" font-family="Ubuntu Mono" font-size="10.00">zeroOut()</text>
<text text-anchor="start" x="4" y="-1047" font-family="Ubuntu Mono" font-size="10.00">+</text>
<text text-anchor="start" x="17" y="-1047" font-family="Ubuntu Mono" font-size="10.00">~Id()</text>
<text text-anchor="start" x="4" y="-1032" font-family="Ubuntu Mono" font-size="10.00">+</text>
<text text-anchor="start" x="17" y="-1032" font-family="Ubuntu Mono" font-size="10.00">clearAllElements()</text>
<text text-anchor="start" x="4" y="-1017" font-family="Ubuntu Mono" font-size="10.00">+</text>
<text text-anchor="start" x="17" y="-1017" font-family="Ubuntu Mono" font-size="10.00">id2str()</text>
<text text-anchor="start" x="4" y="-1002" font-family="Ubuntu Mono" font-size="10.00">+</text>
<text text-anchor="start" x="17" y="-1002" font-family="Ubuntu Mono" font-size="10.00">isValid()</text>
<text text-anchor="start" x="4" y="-987" font-family="Ubuntu Mono" font-size="10.00">+</text>
<text text-anchor="start" x="17" y="-987" font-family="Ubuntu Mono" font-size="10.00">isValid()</text>
<text text-anchor="start" x="4" y="-972" font-family="Ubuntu Mono" font-size="10.00">+</text>
<text text-anchor="start" x="17" y="-972" font-family="Ubuntu Mono" font-size="10.00">nextId()</text>
<text text-anchor="start" x="4" y="-957" font-family="Ubuntu Mono" font-size="10.00">+</text>
<text text-anchor="start" x="17" y="-957" font-family="Ubuntu Mono" font-size="10.00">numIds()</text>
<text text-anchor="start" x="4" y="-942" font-family="Ubuntu Mono" font-size="10.00">+</text>
<text text-anchor="start" x="17" y="-942" font-family="Ubuntu Mono" font-size="10.00">str2Id()</text>
<text text-anchor="start" x="6.5" y="-927" font-family="Ubuntu Mono" font-size="10.00">&#45;</text>
<text text-anchor="start" x="17" y="-927" font-family="Ubuntu Mono" font-size="10.00">elements()</text>
<polygon fill="#666666" stroke="#666666" points="0,-1282 0,-1282 112,-1282 112,-1282 0,-1282"/>
<polygon fill="#666666" stroke="#666666" points="0,-1267 0,-1267 15,-1267 15,-1267 0,-1267"/>
<polygon fill="#666666" stroke="#666666" points="15,-1267 15,-1267 112,-1267 112,-1267 15,-1267"/>
<polygon fill="none" stroke="#666666" points="0,-920.5 0,-1299.5 112,-1299.5 112,-920.5 0,-920.5"/>
</a>
</g>
</g>
<!-- Node4&#45;&gt;Node3 -->
<g id="edge3_Node000003_Node000004" class="edge">
<title>Node4&#45;&gt;Node3</title>
<g id="a_edge3_Node000003_Node000004"><a xlink:title=" ">
<path fill="none" stroke="#63b8ff" d="M65.46,-920.28C66.66,-896.32 67.88,-871.87 69.08,-848.08"/>
<polygon fill="none" stroke="#63b8ff" points="69.08,-848.08 65.38,-841.89 69.68,-836.09 73.37,-842.29 69.08,-848.08"/>
</a>
</g>
<text text-anchor="middle" x="80" y="-857" font-family="Ubuntu Mono" font-size="10.00" fill="grey"> &#45;id_</text>
</g>
<!-- Node5 -->
<g id="Node000005" class="node">
<title>Node5</title>
<g id="a_Node000005"><a xlink:href="classCinfo.html" target="_top" xlink:title=" ">
<polygon fill="white" stroke="transparent" points="257.5,-1337 130.5,-1337 130.5,-883 257.5,-883 257.5,-1337"/>
<text text-anchor="start" x="181.5" y="-1325" font-family="Ubuntu Mono" font-size="10.00">Cinfo</text>
<text text-anchor="start" x="137.5" y="-1310" font-family="Ubuntu Mono" font-size="10.00">&#45;</text>
<text text-anchor="start" x="148" y="-1310" font-family="Ubuntu Mono" font-size="10.00">banCreation_</text>
<text text-anchor="start" x="137.5" y="-1295" font-family="Ubuntu Mono" font-size="10.00">&#45;</text>
<text text-anchor="start" x="148" y="-1295" font-family="Ubuntu Mono" font-size="10.00">destFinfos_</text>
<text text-anchor="start" x="137.5" y="-1280" font-family="Ubuntu Mono" font-size="10.00">&#45;</text>
<text text-anchor="start" x="148" y="-1280" font-family="Ubuntu Mono" font-size="10.00">fieldElementFinfos_</text>
<text text-anchor="start" x="137.5" y="-1265" font-family="Ubuntu Mono" font-size="10.00">&#45;</text>
<text text-anchor="start" x="148" y="-1265" font-family="Ubuntu Mono" font-size="10.00">finfoMap_</text>
<text text-anchor="start" x="137.5" y="-1250" font-family="Ubuntu Mono" font-size="10.00">&#45;</text>
<text text-anchor="start" x="148" y="-1250" font-family="Ubuntu Mono" font-size="10.00">funcs_</text>
<text text-anchor="start" x="137.5" y="-1235" font-family="Ubuntu Mono" font-size="10.00">&#45;</text>
<text text-anchor="start" x="148" y="-1235" font-family="Ubuntu Mono" font-size="10.00">lookupFinfos_</text>
<text text-anchor="start" x="137.5" y="-1220" font-family="Ubuntu Mono" font-size="10.00">&#45;</text>
<text text-anchor="start" x="148" y="-1220" font-family="Ubuntu Mono" font-size="10.00">name_</text>
<text text-anchor="start" x="137.5" y="-1205" font-family="Ubuntu Mono" font-size="10.00">&#45;</text>
<text text-anchor="start" x="148" y="-1205" font-family="Ubuntu Mono" font-size="10.00">numBindIndex_</text>
<text text-anchor="start" x="137.5" y="-1190" font-family="Ubuntu Mono" font-size="10.00">&#45;</text>
<text text-anchor="start" x="148" y="-1190" font-family="Ubuntu Mono" font-size="10.00">postCreationFinfos_</text>
<text text-anchor="start" x="137.5" y="-1175" font-family="Ubuntu Mono" font-size="10.00">&#45;</text>
<text text-anchor="start" x="148" y="-1175" font-family="Ubuntu Mono" font-size="10.00">sharedFinfos_</text>
<text text-anchor="start" x="137.5" y="-1160" font-family="Ubuntu Mono" font-size="10.00">&#45;</text>
<text text-anchor="start" x="148" y="-1160" font-family="Ubuntu Mono" font-size="10.00">srcFinfos_</text>
<text text-anchor="start" x="137.5" y="-1145" font-family="Ubuntu Mono" font-size="10.00">&#45;</text>
<text text-anchor="start" x="148" y="-1145" font-family="Ubuntu Mono" font-size="10.00">valueFinfos_</text>
<text text-anchor="start" x="137.5" y="-1130" font-family="Ubuntu Mono" font-size="10.00">&#45;</text>
<text text-anchor="start" x="148" y="-1130" font-family="Ubuntu Mono" font-size="10.00">numCoreOpFunc_</text>
<text text-anchor="start" x="135" y="-1115" font-family="Ubuntu Mono" font-size="10.00">+</text>
<text text-anchor="start" x="148" y="-1115" font-family="Ubuntu Mono" font-size="10.00">banCreation()</text>
<text text-anchor="start" x="135" y="-1100" font-family="Ubuntu Mono" font-size="10.00">+</text>
<text text-anchor="start" x="148" y="-1100" font-family="Ubuntu Mono" font-size="10.00">baseCinfo()</text>
<text text-anchor="start" x="135" y="-1085" font-family="Ubuntu Mono" font-size="10.00">+</text>
<text text-anchor="start" x="148" y="-1085" font-family="Ubuntu Mono" font-size="10.00">Cinfo()</text>
<text text-anchor="start" x="135" y="-1070" font-family="Ubuntu Mono" font-size="10.00">+</text>
<text text-anchor="start" x="148" y="-1070" font-family="Ubuntu Mono" font-size="10.00">Cinfo()</text>
<text text-anchor="start" x="135" y="-1055" font-family="Ubuntu Mono" font-size="10.00">+</text>
<text text-anchor="start" x="148" y="-1055" font-family="Ubuntu Mono" font-size="10.00">Cinfo()</text>
<text text-anchor="start" x="135" y="-1040" font-family="Ubuntu Mono" font-size="10.00">+</text>
<text text-anchor="start" x="148" y="-1040" font-family="Ubuntu Mono" font-size="10.00">destFinfoName()</text>
<text text-anchor="start" x="135" y="-1025" font-family="Ubuntu Mono" font-size="10.00">+</text>
<text text-anchor="start" x="148" y="-1025" font-family="Ubuntu Mono" font-size="10.00">dinfo()</text>
<text text-anchor="start" x="135" y="-1010" font-family="Ubuntu Mono" font-size="10.00">+</text>
<text text-anchor="start" x="148" y="-1010" font-family="Ubuntu Mono" font-size="10.00">findFinfo()</text>
<text text-anchor="start" x="135" y="-995" font-family="Ubuntu Mono" font-size="10.00">+</text>
<text text-anchor="start" x="148" y="-995" font-family="Ubuntu Mono" font-size="10.00">findFinfoWrapper()</text>
<text text-anchor="start" x="135" y="-980" font-family="Ubuntu Mono" font-size="10.00">+</text>
<text text-anchor="start" x="148" y="-980" font-family="Ubuntu Mono" font-size="10.00">finfoMap()</text>
<text text-anchor="start" x="148" y="-965" font-family="Ubuntu Mono" font-size="10.00">and 31 more...</text>
<text text-anchor="start" x="135" y="-950" font-family="Ubuntu Mono" font-size="10.00">+</text>
<text text-anchor="start" x="148" y="-950" font-family="Ubuntu Mono" font-size="10.00">find()</text>
<text text-anchor="start" x="135" y="-935" font-family="Ubuntu Mono" font-size="10.00">+</text>
<text text-anchor="start" x="148" y="-935" font-family="Ubuntu Mono" font-size="10.00">initCinfo()</text>
<text text-anchor="start" x="135" y="-920" font-family="Ubuntu Mono" font-size="10.00">+</text>
<text text-anchor="start" x="148" y="-920" font-family="Ubuntu Mono" font-size="10.00">makeCinfoElements()</text>
<text text-anchor="start" x="135" y="-905" font-family="Ubuntu Mono" font-size="10.00">+</text>
<text text-anchor="start" x="148" y="-905" font-family="Ubuntu Mono" font-size="10.00">rebuildOpIndex()</text>
<text text-anchor="start" x="137.5" y="-890" font-family="Ubuntu Mono" font-size="10.00">&#45;</text>
<text text-anchor="start" x="148" y="-890" font-family="Ubuntu Mono" font-size="10.00">cinfoMap()</text>
<polygon fill="#666666" stroke="#666666" points="131,-1320 131,-1320 258,-1320 258,-1320 131,-1320"/>
<polygon fill="#666666" stroke="#666666" points="131,-1125 131,-1125 146,-1125 146,-1125 131,-1125"/>
<polygon fill="#666666" stroke="#666666" points="146,-1125 146,-1125 258,-1125 258,-1125 146,-1125"/>
<polygon fill="none" stroke="#666666" points="130.5,-883 130.5,-1337 257.5,-1337 257.5,-883 130.5,-883"/>
</a>
</g>
</g>
<!-- Node5&#45;&gt;Node3 -->
<g id="edge4_Node000003_Node000005" class="edge">
<title>Node5&#45;&gt;Node3</title>
<g id="a_edge4_Node000003_Node000005"><a xlink:title=" ">
<path fill="none" stroke="#63b8ff" d="M134.22,-882.75C131.15,-871.14 128.09,-859.57 125.07,-848.14"/>
<polygon fill="none" stroke="#63b8ff" points="125.01,-847.9 119.61,-843.12 121.94,-836.3 127.34,-841.08 125.01,-847.9"/>
</a>
</g>
<text text-anchor="middle" x="148.5" y="-857" font-family="Ubuntu Mono" font-size="10.00" fill="grey"> &#45;cinfo_</text>
</g>
<!-- Node5&#45;&gt;Node5 -->
<g id="edge5_Node000005_Node000005" class="edge">
<title>Node5&#45;&gt;Node5</title>
<g id="a_edge5_Node000005_Node000005"><a xlink:title=" ">
<path fill="none" stroke="#63b8ff" d="M257.56,-1153.57C268.17,-1147.47 275.5,-1132.95 275.5,-1110 275.5,-1094.22 272.04,-1082.43 266.42,-1074.62"/>
<polygon fill="none" stroke="#63b8ff" points="266.38,-1074.57 259.25,-1073.44 257.56,-1066.43 264.68,-1067.56 266.38,-1074.57"/>
</a>
</g>
<text text-anchor="middle" x="306" y="-1107.5" font-family="Ubuntu Mono" font-size="10.00" fill="grey"> &#45;baseCinfo_</text>
</g>
<!-- Node6 -->
<g id="Node000006" class="node">
<title>Node6</title>
<g id="a_Node000006"><a xlink:href="classDinfoBase.html" target="_top" xlink:title=" ">
<polygon fill="white" stroke="transparent" points="197,-1583 99,-1583 99,-1384 197,-1384 197,-1583"/>
<text text-anchor="start" x="122.5" y="-1570.5" font-family="Ubuntu Mono" font-size="10.00">DinfoBase</text>
<text text-anchor="start" x="105.5" y="-1555.5" font-family="Ubuntu Mono" font-size="10.00">&#45;</text>
<text text-anchor="start" x="116" y="-1555.5" font-family="Ubuntu Mono" font-size="10.00">isOneZombie_</text>
<text text-anchor="start" x="103" y="-1540.5" font-family="Ubuntu Mono" font-size="10.00">+</text>
<text text-anchor="start" x="116" y="-1540.5" font-family="Ubuntu Mono" font-size="10.00">allocData()</text>
<text text-anchor="start" x="103" y="-1525.5" font-family="Ubuntu Mono" font-size="10.00">+</text>
<text text-anchor="start" x="116" y="-1525.5" font-family="Ubuntu Mono" font-size="10.00">assignData()</text>
<text text-anchor="start" x="103" y="-1510.5" font-family="Ubuntu Mono" font-size="10.00">+</text>
<text text-anchor="start" x="116" y="-1510.5" font-family="Ubuntu Mono" font-size="10.00">copyData()</text>
<text text-anchor="start" x="103" y="-1495.5" font-family="Ubuntu Mono" font-size="10.00">+</text>
<text text-anchor="start" x="116" y="-1495.5" font-family="Ubuntu Mono" font-size="10.00">destroyData()</text>
<text text-anchor="start" x="103" y="-1480.5" font-family="Ubuntu Mono" font-size="10.00">+</text>
<text text-anchor="start" x="116" y="-1480.5" font-family="Ubuntu Mono" font-size="10.00">DinfoBase()</text>
<text text-anchor="start" x="103" y="-1465.5" font-family="Ubuntu Mono" font-size="10.00">+</text>
<text text-anchor="start" x="116" y="-1465.5" font-family="Ubuntu Mono" font-size="10.00">DinfoBase()</text>
<text text-anchor="start" x="103" y="-1450.5" font-family="Ubuntu Mono" font-size="10.00">+</text>
<text text-anchor="start" x="116" y="-1450.5" font-family="Ubuntu Mono" font-size="10.00">isA()</text>
<text text-anchor="start" x="103" y="-1435.5" font-family="Ubuntu Mono" font-size="10.00">+</text>
<text text-anchor="start" x="116" y="-1435.5" font-family="Ubuntu Mono" font-size="10.00">isOneZombie()</text>
<text text-anchor="start" x="103" y="-1420.5" font-family="Ubuntu Mono" font-size="10.00">+</text>
<text text-anchor="start" x="116" y="-1420.5" font-family="Ubuntu Mono" font-size="10.00">size()</text>
<text text-anchor="start" x="103" y="-1405.5" font-family="Ubuntu Mono" font-size="10.00">+</text>
<text text-anchor="start" x="116" y="-1405.5" font-family="Ubuntu Mono" font-size="10.00">sizeIncrement()</text>
<text text-anchor="start" x="103" y="-1390.5" font-family="Ubuntu Mono" font-size="10.00">+</text>
<text text-anchor="start" x="116" y="-1390.5" font-family="Ubuntu Mono" font-size="10.00">~DinfoBase()</text>
<polygon fill="#666666" stroke="#666666" points="99,-1565.5 99,-1565.5 197,-1565.5 197,-1565.5 99,-1565.5"/>
<polygon fill="#666666" stroke="#666666" points="99,-1550.5 99,-1550.5 114,-1550.5 114,-1550.5 99,-1550.5"/>
<polygon fill="#666666" stroke="#666666" points="114,-1550.5 114,-1550.5 197,-1550.5 197,-1550.5 114,-1550.5"/>
<polygon fill="none" stroke="#666666" points="99,-1384 99,-1583 197,-1583 197,-1384 99,-1384"/>
</a>
</g>
</g>
<!-- Node6&#45;&gt;Node5 -->
<g id="edge6_Node000005_Node000006" class="edge">
<title>Node6&#45;&gt;Node5</title>
<g id="a_edge6_Node000005_Node000006"><a xlink:title=" ">
<path fill="none" stroke="#63b8ff" d="M160.21,-1383.92C161.58,-1372.8 163.03,-1361.13 164.51,-1349.15"/>
<polygon fill="none" stroke="#63b8ff" points="164.53,-1348.98 161.3,-1342.54 166.01,-1337.07 169.24,-1343.52 164.53,-1348.98"/>
</a>
</g>
<text text-anchor="middle" x="181.5" y="-1358" font-family="Ubuntu Mono" font-size="10.00" fill="grey"> &#45;dinfo_</text>
</g>
<!-- Node7 -->
<g id="Node000007" class="node">
<title>Node7</title>
<g id="a_Node000007"><a xlink:title=" ">
<polygon fill="white" stroke="transparent" points="331,-1513.5 215,-1513.5 215,-1453.5 331,-1453.5 331,-1513.5"/>
<text text-anchor="start" x="220" y="-1501.5" font-family="Ubuntu Mono" font-size="10.00">std::map&lt; std::string,</text>
<text text-anchor="start" x="241" y="-1490.5" font-family="Ubuntu Mono" font-size="10.00"> std::string &gt;</text>
<text text-anchor="start" x="271" y="-1475.5" font-family="Ubuntu Mono" font-size="10.00"> </text>
<text text-anchor="start" x="271" y="-1460.5" font-family="Ubuntu Mono" font-size="10.00"> </text>
<polygon fill="#666666" stroke="#666666" points="215,-1485.5 215,-1485.5 331,-1485.5 331,-1485.5 215,-1485.5"/>
<polygon fill="#666666" stroke="#666666" points="215,-1470.5 215,-1470.5 331,-1470.5 331,-1470.5 215,-1470.5"/>
<polygon fill="none" stroke="#666666" points="215,-1453.5 215,-1513.5 331,-1513.5 331,-1453.5 215,-1453.5"/>
</a>
</g>
</g>
<!-- Node7&#45;&gt;Node5 -->
<g id="edge7_Node000005_Node000007" class="edge">
<title>Node7&#45;&gt;Node5</title>
<g id="a_edge7_Node000005_Node000007"><a xlink:title=" ">
<path fill="none" stroke="#63b8ff" d="M266.8,-1453.35C261.56,-1428.72 253.52,-1390.88 244.65,-1349.2"/>
<polygon fill="none" stroke="#63b8ff" points="244.63,-1349.08 239.47,-1344.05 242.13,-1337.35 247.29,-1342.38 244.63,-1349.08"/>
</a>
</g>
<text text-anchor="middle" x="263" y="-1358" font-family="Ubuntu Mono" font-size="10.00" fill="grey"> &#45;doc_</text>
</g>
<!-- Node8 -->
<g id="Node000008" class="node">
<title>Node8</title>
<g id="a_Node000008"><a xlink:title=" ">
<polygon fill="white" stroke="transparent" points="253.5,-1690 194.5,-1690 194.5,-1641 253.5,-1641 253.5,-1690"/>
<text text-anchor="start" x="200" y="-1677.5" font-family="Ubuntu Mono" font-size="10.00">std::string</text>
<text text-anchor="start" x="222.5" y="-1662.5" font-family="Ubuntu Mono" font-size="10.00"> </text>
<text text-anchor="start" x="222.5" y="-1647.5" font-family="Ubuntu Mono" font-size="10.00"> </text>
<polygon fill="#666666" stroke="#666666" points="195,-1672.5 195,-1672.5 254,-1672.5 254,-1672.5 195,-1672.5"/>
<polygon fill="#666666" stroke="#666666" points="195,-1657.5 195,-1657.5 254,-1657.5 254,-1657.5 195,-1657.5"/>
<polygon fill="none" stroke="#666666" points="194.5,-1641 194.5,-1690 253.5,-1690 253.5,-1641 194.5,-1641"/>
</a>
</g>
</g>
<!-- Node8&#45;&gt;Node7 -->
<g id="edge8_Node000007_Node000008" class="edge">
<title>Node8&#45;&gt;Node7</title>
<g id="a_edge8_Node000007_Node000008"><a xlink:title=" ">
<path fill="none" stroke="#63b8ff" d="M230.26,-1640.97C233.46,-1629 237.42,-1614.22 241,-1601 247.81,-1575.89 255.53,-1547.77 261.68,-1525.44"/>
<polygon fill="none" stroke="#63b8ff" points="261.73,-1525.26 259.47,-1518.41 264.93,-1513.69 267.19,-1520.54 261.73,-1525.26"/>
</a>
</g>
<text text-anchor="middle" x="270" y="-1615" font-family="Ubuntu Mono" font-size="10.00" fill="grey"> +elements</text>
<text text-anchor="middle" x="270" y="-1604" font-family="Ubuntu Mono" font-size="10.00" fill="grey">+keys</text>
</g>
<!-- Node9 -->
<g id="Node000009" class="node">
<title>Node9</title>
<g id="a_Node000009"><a xlink:title=" ">
<polygon fill="white" stroke="transparent" points="273,-1797 175,-1797 175,-1737 273,-1737 273,-1797"/>
<text text-anchor="start" x="180" y="-1785" font-family="Ubuntu Mono" font-size="10.00">std::basic_string&lt;</text>
<text text-anchor="start" x="205.5" y="-1774" font-family="Ubuntu Mono" font-size="10.00"> Char &gt;</text>
<text text-anchor="start" x="222" y="-1759" font-family="Ubuntu Mono" font-size="10.00"> </text>
<text text-anchor="start" x="222" y="-1744" font-family="Ubuntu Mono" font-size="10.00"> </text>
<polygon fill="#666666" stroke="#666666" points="175,-1769 175,-1769 273,-1769 273,-1769 175,-1769"/>
<polygon fill="#666666" stroke="#666666" points="175,-1754 175,-1754 273,-1754 273,-1754 175,-1754"/>
<polygon fill="none" stroke="#666666" points="175,-1737 175,-1797 273,-1797 273,-1737 175,-1737"/>
</a>
</g>
</g>
<!-- Node9&#45;&gt;Node8 -->
<g id="edge9_Node000008_Node000009" class="edge">
<title>Node9&#45;&gt;Node8</title>
<g id="a_edge9_Node000008_Node000009"><a xlink:title=" ">
<path fill="none" stroke="#63b8ff" d="M224,-1726.8C224,-1714.38 224,-1701.03 224,-1690.06"/>
<polygon fill="none" stroke="#63b8ff" points="220.5,-1726.95 224,-1736.95 227.5,-1726.95 220.5,-1726.95"/>
</a>
</g>
</g>
<!-- Node10 -->
<g id="Node000010" class="node">
<title>Node10</title>
<g id="a_Node000010"><a xlink:title=" ">
<polygon fill="white" stroke="transparent" points="366.5,-1690 271.5,-1690 271.5,-1641 366.5,-1641 366.5,-1690"/>
<text text-anchor="start" x="277" y="-1677.5" font-family="Ubuntu Mono" font-size="10.00">std::map&lt; K, T &gt;</text>
<text text-anchor="start" x="317.5" y="-1662.5" font-family="Ubuntu Mono" font-size="10.00"> </text>
<text text-anchor="start" x="317.5" y="-1647.5" font-family="Ubuntu Mono" font-size="10.00"> </text>
<polygon fill="#666666" stroke="#666666" points="272,-1672.5 272,-1672.5 367,-1672.5 367,-1672.5 272,-1672.5"/>
<polygon fill="#666666" stroke="#666666" points="272,-1657.5 272,-1657.5 367,-1657.5 367,-1657.5 272,-1657.5"/>
<polygon fill="none" stroke="#666666" points="271.5,-1641 271.5,-1690 366.5,-1690 366.5,-1641 271.5,-1641"/>
</a>
</g>
</g>
<!-- Node10&#45;&gt;Node7 -->
<g id="edge10_Node000007_Node000010" class="edge">
<title>Node10&#45;&gt;Node7</title>
<g id="a_edge10_Node000007_Node000010"><a xlink:title=" ">
<path fill="none" stroke="orange" d="M310.47,-1631.12C301.85,-1597.41 288.68,-1545.84 280.46,-1513.7"/>
<polygon fill="orange" stroke="orange" points="307.12,-1632.15 312.99,-1640.97 313.9,-1630.41 307.12,-1632.15"/>
</a>
</g>
<text text-anchor="start" x="308" y="-1615" font-family="Ubuntu Mono" font-size="10.00" fill="grey"> &lt; std::string, std</text>
<text text-anchor="middle" x="350.5" y="-1604" font-family="Ubuntu Mono" font-size="10.00" fill="grey">::string &gt;</text>
</g>
<!-- Node11 -->
<g id="Node000011" class="node">
<title>Node11</title>
<g id="a_Node000011"><a xlink:title=" ">
<polygon fill="white" stroke="transparent" points="317.5,-1791.5 300.5,-1791.5 300.5,-1742.5 317.5,-1742.5 317.5,-1791.5"/>
<text text-anchor="start" x="306" y="-1779" font-family="Ubuntu Mono" font-size="10.00">K</text>
<text text-anchor="start" x="307.5" y="-1764" font-family="Ubuntu Mono" font-size="10.00"> </text>
<text text-anchor="start" x="307.5" y="-1749" font-family="Ubuntu Mono" font-size="10.00"> </text>
<polygon fill="#666666" stroke="#666666" points="301,-1774 301,-1774 318,-1774 318,-1774 301,-1774"/>
<polygon fill="#666666" stroke="#666666" points="301,-1759 301,-1759 318,-1759 318,-1759 301,-1759"/>
<polygon fill="none" stroke="#666666" points="300.5,-1742.5 300.5,-1791.5 317.5,-1791.5 317.5,-1742.5 300.5,-1742.5"/>
</a>
</g>
</g>
<!-- Node11&#45;&gt;Node10 -->
<g id="edge11_Node000010_Node000011" class="edge">
<title>Node11&#45;&gt;Node10</title>
<g id="a_edge11_Node000010_Node000011"><a xlink:title=" ">
<path fill="none" stroke="#63b8ff" d="M308.36,-1742.23C308.35,-1731.71 308.7,-1719.2 310,-1708 310.22,-1706.08 310.49,-1704.11 310.8,-1702.14"/>
<polygon fill="none" stroke="#63b8ff" points="310.85,-1701.86 308.02,-1695.23 313.05,-1690.07 315.88,-1696.7 310.85,-1701.86"/>
</a>
</g>
<text text-anchor="middle" x="327" y="-1711" font-family="Ubuntu Mono" font-size="10.00" fill="grey"> +keys</text>
</g>
<!-- Node12 -->
<g id="Node000012" class="node">
<title>Node12</title>
<g id="a_Node000012"><a xlink:title=" ">
<polygon fill="white" stroke="transparent" points="374.5,-1791.5 357.5,-1791.5 357.5,-1742.5 374.5,-1742.5 374.5,-1791.5"/>
<text text-anchor="start" x="363" y="-1779" font-family="Ubuntu Mono" font-size="10.00">T</text>
<text text-anchor="start" x="364.5" y="-1764" font-family="Ubuntu Mono" font-size="10.00"> </text>
<text text-anchor="start" x="364.5" y="-1749" font-family="Ubuntu Mono" font-size="10.00"> </text>
<polygon fill="#666666" stroke="#666666" points="358,-1774 358,-1774 375,-1774 375,-1774 358,-1774"/>
<polygon fill="#666666" stroke="#666666" points="358,-1759 358,-1759 375,-1759 375,-1759 358,-1759"/>
<polygon fill="none" stroke="#666666" points="357.5,-1742.5 357.5,-1791.5 374.5,-1791.5 374.5,-1742.5 357.5,-1742.5"/>
</a>
</g>
</g>
<!-- Node12&#45;&gt;Node10 -->
<g id="edge12_Node000010_Node000012" class="edge">
<title>Node12&#45;&gt;Node10</title>
<g id="a_edge12_Node000010_Node000012"><a xlink:title=" ">
<path fill="none" stroke="#63b8ff" d="M358.16,-1742.45C354.32,-1731.75 349.37,-1719.04 344,-1708 342.84,-1705.6 341.58,-1703.16 340.26,-1700.73"/>
<polygon fill="none" stroke="#63b8ff" points="340.22,-1700.66 333.78,-1697.42 334.29,-1690.23 340.74,-1693.47 340.22,-1700.66"/>
</a>
</g>
<text text-anchor="middle" x="378" y="-1711" font-family="Ubuntu Mono" font-size="10.00" fill="grey"> +elements</text>
</g>
</g>
</svg>
