<?xml version="1.0" encoding="UTF-8" standalone="no"?>
<!DOCTYPE svg PUBLIC "-//W3C//DTD SVG 1.1//EN"
 "http://www.w3.org/Graphics/SVG/1.1/DTD/svg11.dtd">
<!-- Generated by graphviz version 2.43.0 (0)
 -->
<!-- Title: Stoich::getR1offset2 Pages: 1 -->
<svg width="427pt" height="101pt"
 viewBox="0.00 0.00 427.00 101.00" xmlns="http://www.w3.org/2000/svg" xmlns:xlink="http://www.w3.org/1999/xlink">

<svg id="main" version="1.1" xmlns="http://www.w3.org/2000/svg" xmlns:xlink="http://www.w3.org/1999/xlink" xml:space="preserve" onload="init(evt)">
<style type="text/css"><![CDATA[
.node, .edge {opacity: 0.7;}
.node.selected, .edge.selected {opacity: 1;}
.edge:hover path { stroke: red; }
.edge:hover polygon { stroke: red; fill: red; }
]]></style>
<script type="application/ecmascript" xlink:href="svg.min.js"/>
<svg id="graph" class="graph">
<g id="graph0" class="graph" transform="scale(1 1) rotate(0) translate(4 97)">
<title>Stoich::getR1offset2</title>
<!-- Node1 -->
<g id="Node000001" class="node">
<title>Node1</title>
<g id="a_Node000001"><a xlink:title=" ">
<polygon fill="#999999" stroke="#666666" points="115,-56 0,-56 0,-37 115,-37 115,-56"/>
<text text-anchor="middle" x="57.5" y="-44" font-family="Ubuntu Mono" font-size="10.00">Stoich::getR1offset2</text>
</a>
</g>
</g>
<!-- Node2 -->
<g id="Node000002" class="node">
<title>Node2</title>
<g id="a_Node000002"><a xlink:href="classStoich.html#aec594bfef9a6dc7c12bb6683bbbdaccb" target="_top" xlink:title=" ">
<polygon fill="white" stroke="#666666" points="311,-93 151,-93 151,-74 311,-74 311,-93"/>
<text text-anchor="middle" x="231" y="-81" font-family="Ubuntu Mono" font-size="10.00">Stoich::convertIdToReacIndex</text>
</a>
</g>
</g>
<!-- Node1&#45;&gt;Node2 -->
<g id="edge1_Node000001_Node000002" class="edge">
<title>Node1&#45;&gt;Node2</title>
<g id="a_edge1_Node000001_Node000002"><a xlink:title=" ">
<path fill="none" stroke="#63b8ff" d="M102.67,-56.03C124.98,-60.84 152.26,-66.73 175.83,-71.81"/>
<polygon fill="#63b8ff" stroke="#63b8ff" points="175.17,-75.25 185.69,-73.94 176.65,-68.41 175.17,-75.25"/>
</a>
</g>
</g>
<!-- Node3 -->
<g id="Node000003" class="node">
<title>Node3</title>
<g id="a_Node000003"><a xlink:href="classRateTerm.html#a59765605f8379adff7e8d53f9fa691e3" target="_top" xlink:title="Used by Zombie to return rate terms.">
<polygon fill="white" stroke="#666666" points="280,-56 182,-56 182,-37 280,-37 280,-56"/>
<text text-anchor="middle" x="231" y="-44" font-family="Ubuntu Mono" font-size="10.00">RateTerm::getR1</text>
</a>
</g>
</g>
<!-- Node1&#45;&gt;Node3 -->
<g id="edge2_Node000001_Node000003" class="edge">
<title>Node1&#45;&gt;Node3</title>
<g id="a_edge2_Node000001_Node000003"><a xlink:title=" ">
<path fill="none" stroke="#63b8ff" d="M115.13,-46.5C133.24,-46.5 153.31,-46.5 171.55,-46.5"/>
<polygon fill="#63b8ff" stroke="#63b8ff" points="171.76,-50 181.76,-46.5 171.76,-43 171.76,-50"/>
</a>
</g>
</g>
<!-- Node4 -->
<g id="Node000004" class="node">
<title>Node4</title>
<g id="a_Node000004"><a xlink:href="classEref.html#aa96699f886e00b8eb3759c71cc8747bb" target="_top" xlink:title=" ">
<polygon fill="white" stroke="#666666" points="256,-19 206,-19 206,0 256,0 256,-19"/>
<text text-anchor="middle" x="231" y="-7" font-family="Ubuntu Mono" font-size="10.00">Eref::id</text>
</a>
</g>
</g>
<!-- Node1&#45;&gt;Node4 -->
<g id="edge3_Node000001_Node000004" class="edge">
<title>Node1&#45;&gt;Node4</title>
<g id="a_edge3_Node000001_Node000004"><a xlink:title=" ">
<path fill="none" stroke="#63b8ff" d="M102.67,-36.97C131.58,-30.73 168.81,-22.7 195.54,-16.93"/>
<polygon fill="#63b8ff" stroke="#63b8ff" points="196.55,-20.3 205.58,-14.77 195.07,-13.46 196.55,-20.3"/>
</a>
</g>
</g>
<!-- Node5 -->
<g id="Node000005" class="node">
<title>Node5</title>
<g id="a_Node000005"><a xlink:href="classElement.html#a934907c01faf58e21f545d53a54cfefc" target="_top" xlink:title=" ">
<polygon fill="white" stroke="#666666" points="419,-19 347,-19 347,0 419,0 419,-19"/>
<text text-anchor="middle" x="383" y="-7" font-family="Ubuntu Mono" font-size="10.00">Element::id</text>
</a>
</g>
</g>
<!-- Node4&#45;&gt;Node5 -->
<g id="edge4_Node000004_Node000005" class="edge">
<title>Node4&#45;&gt;Node5</title>
<g id="a_edge4_Node000004_Node000005"><a xlink:title=" ">
<path fill="none" stroke="#63b8ff" d="M256.1,-9.5C277.74,-9.5 310.09,-9.5 336.57,-9.5"/>
<polygon fill="#63b8ff" stroke="#63b8ff" points="336.77,-13 346.77,-9.5 336.77,-6 336.77,-13"/>
</a>
</g>
</g>
</g>
</svg>
</svg>

<style type='text/css'>
<![CDATA[
[data-mouse-over-selected='false'] { opacity: 0.7; }
[data-mouse-over-selected='true']  { opacity: 1.0; }
]]>
</style>
<script type="application/ecmascript"><![CDATA[
document.addEventListener('DOMContentLoaded', (event) => {
  highlightEdges();
  highlightAdjacentNodes();
});
]]></script>
</svg>
