<?xml version="1.0" encoding="UTF-8" standalone="no"?>
<!DOCTYPE svg PUBLIC "-//W3C//DTD SVG 1.1//EN"
 "http://www.w3.org/Graphics/SVG/1.1/DTD/svg11.dtd">
<!-- Generated by graphviz version 2.43.0 (0)
 -->
<!-- Title: MMPump Pages: 1 -->
<svg width="83pt" height="222pt"
 viewBox="0.00 0.00 83.00 222.00" xmlns="http://www.w3.org/2000/svg" xmlns:xlink="http://www.w3.org/1999/xlink">
<g id="graph0" class="graph" transform="scale(1 1) rotate(0) translate(4 218)">
<title>MMPump</title>
<!-- Node1 -->
<g id="Node000001" class="node">
<title>Node1</title>
<g id="a_Node000001"><a xlink:title=" ">
<polygon fill="#999999" stroke="transparent" points="75,-214 0,-214 0,0 75,0 75,-214"/>
<text text-anchor="start" x="15" y="-202" font-family="Ubuntu Mono" font-size="10.00">MMPump</text>
<text text-anchor="start" x="7" y="-187" font-family="Ubuntu Mono" font-size="10.00">&#45;</text>
<text text-anchor="start" x="17.5" y="-187" font-family="Ubuntu Mono" font-size="10.00">Kd_</text>
<text text-anchor="start" x="7" y="-172" font-family="Ubuntu Mono" font-size="10.00">&#45;</text>
<text text-anchor="start" x="17.5" y="-172" font-family="Ubuntu Mono" font-size="10.00">Vmax_</text>
<text text-anchor="start" x="4.5" y="-157" font-family="Ubuntu Mono" font-size="10.00">+</text>
<text text-anchor="start" x="17.5" y="-157" font-family="Ubuntu Mono" font-size="10.00">getKd()</text>
<text text-anchor="start" x="4.5" y="-142" font-family="Ubuntu Mono" font-size="10.00">+</text>
<text text-anchor="start" x="17.5" y="-142" font-family="Ubuntu Mono" font-size="10.00">getVal()</text>
<text text-anchor="start" x="4.5" y="-127" font-family="Ubuntu Mono" font-size="10.00">+</text>
<text text-anchor="start" x="17.5" y="-127" font-family="Ubuntu Mono" font-size="10.00">getVmax()</text>
<text text-anchor="start" x="4.5" y="-112" font-family="Ubuntu Mono" font-size="10.00">+</text>
<text text-anchor="start" x="17.5" y="-112" font-family="Ubuntu Mono" font-size="10.00">MMPump()</text>
<text text-anchor="start" x="4.5" y="-97" font-family="Ubuntu Mono" font-size="10.00">+</text>
<text text-anchor="start" x="17.5" y="-97" font-family="Ubuntu Mono" font-size="10.00">process()</text>
<text text-anchor="start" x="4.5" y="-82" font-family="Ubuntu Mono" font-size="10.00">+</text>
<text text-anchor="start" x="17.5" y="-82" font-family="Ubuntu Mono" font-size="10.00">reinit()</text>
<text text-anchor="start" x="4.5" y="-67" font-family="Ubuntu Mono" font-size="10.00">+</text>
<text text-anchor="start" x="17.5" y="-67" font-family="Ubuntu Mono" font-size="10.00">setKd()</text>
<text text-anchor="start" x="4.5" y="-52" font-family="Ubuntu Mono" font-size="10.00">+</text>
<text text-anchor="start" x="17.5" y="-52" font-family="Ubuntu Mono" font-size="10.00">setVal()</text>
<text text-anchor="start" x="4.5" y="-37" font-family="Ubuntu Mono" font-size="10.00">+</text>
<text text-anchor="start" x="17.5" y="-37" font-family="Ubuntu Mono" font-size="10.00">setVmax()</text>
<text text-anchor="start" x="4.5" y="-22" font-family="Ubuntu Mono" font-size="10.00">+</text>
<text text-anchor="start" x="17.5" y="-22" font-family="Ubuntu Mono" font-size="10.00">initCinfo()</text>
<text text-anchor="start" x="4.5" y="-7" font-family="Ubuntu Mono" font-size="10.00">+</text>
<text text-anchor="start" x="17.5" y="-7" font-family="Ubuntu Mono" font-size="10.00">PumpOut()</text>
<polygon fill="#666666" stroke="#666666" points="0.5,-197 0.5,-197 75.5,-197 75.5,-197 0.5,-197"/>
<polygon fill="#666666" stroke="#666666" points="0.5,-167 0.5,-167 15.5,-167 15.5,-167 0.5,-167"/>
<polygon fill="#666666" stroke="#666666" points="15.5,-167 15.5,-167 75.5,-167 75.5,-167 15.5,-167"/>
<polygon fill="none" stroke="#666666" points="0,0 0,-214 75,-214 75,0 0,0"/>
</a>
</g>
</g>
</g>
</svg>
