<?xml version="1.0" encoding="UTF-8" standalone="no"?>
<!DOCTYPE svg PUBLIC "-//W3C//DTD SVG 1.1//EN"
 "http://www.w3.org/Graphics/SVG/1.1/DTD/svg11.dtd">
<!-- Generated by graphviz version 2.43.0 (0)
 -->
<!-- Title: CylMesh Pages: 1 -->
<svg width="195pt" height="1022pt"
 viewBox="0.00 0.00 195.00 1022.00" xmlns="http://www.w3.org/2000/svg" xmlns:xlink="http://www.w3.org/1999/xlink">
<g id="graph0" class="graph" transform="scale(1 1) rotate(0) translate(4 1018)">
<title>CylMesh</title>
<!-- Node1 -->
<g id="Node000001" class="node">
<title>Node1</title>
<g id="a_Node000001"><a xlink:title=" ">
<polygon fill="#999999" stroke="transparent" points="175,-364 12,-364 12,0 175,0 175,-364"/>
<text text-anchor="start" x="72.5" y="-352" font-family="Ubuntu Mono" font-size="10.00">CylMesh</text>
<text text-anchor="start" x="19" y="-337" font-family="Ubuntu Mono" font-size="10.00">&#45;</text>
<text text-anchor="start" x="29.5" y="-337" font-family="Ubuntu Mono" font-size="10.00">diffLength_</text>
<text text-anchor="start" x="19" y="-322" font-family="Ubuntu Mono" font-size="10.00">&#45;</text>
<text text-anchor="start" x="29.5" y="-322" font-family="Ubuntu Mono" font-size="10.00">isToroid_</text>
<text text-anchor="start" x="19" y="-307" font-family="Ubuntu Mono" font-size="10.00">&#45;</text>
<text text-anchor="start" x="29.5" y="-307" font-family="Ubuntu Mono" font-size="10.00">lenSlope_</text>
<text text-anchor="start" x="19" y="-292" font-family="Ubuntu Mono" font-size="10.00">&#45;</text>
<text text-anchor="start" x="29.5" y="-292" font-family="Ubuntu Mono" font-size="10.00">numEntries_</text>
<text text-anchor="start" x="19" y="-277" font-family="Ubuntu Mono" font-size="10.00">&#45;</text>
<text text-anchor="start" x="29.5" y="-277" font-family="Ubuntu Mono" font-size="10.00">r0_</text>
<text text-anchor="start" x="19" y="-262" font-family="Ubuntu Mono" font-size="10.00">&#45;</text>
<text text-anchor="start" x="29.5" y="-262" font-family="Ubuntu Mono" font-size="10.00">r1_</text>
<text text-anchor="start" x="19" y="-247" font-family="Ubuntu Mono" font-size="10.00">&#45;</text>
<text text-anchor="start" x="29.5" y="-247" font-family="Ubuntu Mono" font-size="10.00">rSlope_</text>
<text text-anchor="start" x="19" y="-232" font-family="Ubuntu Mono" font-size="10.00">&#45;</text>
<text text-anchor="start" x="29.5" y="-232" font-family="Ubuntu Mono" font-size="10.00">surfaceGranularity_</text>
<text text-anchor="start" x="19" y="-217" font-family="Ubuntu Mono" font-size="10.00">&#45;</text>
<text text-anchor="start" x="29.5" y="-217" font-family="Ubuntu Mono" font-size="10.00">totLen_</text>
<text text-anchor="start" x="19" y="-202" font-family="Ubuntu Mono" font-size="10.00">&#45;</text>
<text text-anchor="start" x="29.5" y="-202" font-family="Ubuntu Mono" font-size="10.00">useCaps_</text>
<text text-anchor="start" x="29.5" y="-187" font-family="Ubuntu Mono" font-size="10.00">and 6 more...</text>
<text text-anchor="start" x="16.5" y="-172" font-family="Ubuntu Mono" font-size="10.00">+</text>
<text text-anchor="start" x="29.5" y="-172" font-family="Ubuntu Mono" font-size="10.00">buildStencil()</text>
<text text-anchor="start" x="16.5" y="-157" font-family="Ubuntu Mono" font-size="10.00">+</text>
<text text-anchor="start" x="29.5" y="-157" font-family="Ubuntu Mono" font-size="10.00">CylMesh()</text>
<text text-anchor="start" x="16.5" y="-142" font-family="Ubuntu Mono" font-size="10.00">+</text>
<text text-anchor="start" x="29.5" y="-142" font-family="Ubuntu Mono" font-size="10.00">extendedMeshEntryVolume()</text>
<text text-anchor="start" x="16.5" y="-127" font-family="Ubuntu Mono" font-size="10.00">+</text>
<text text-anchor="start" x="29.5" y="-127" font-family="Ubuntu Mono" font-size="10.00">getCoordinates()</text>
<text text-anchor="start" x="16.5" y="-112" font-family="Ubuntu Mono" font-size="10.00">+</text>
<text text-anchor="start" x="29.5" y="-112" font-family="Ubuntu Mono" font-size="10.00">getCoords()</text>
<text text-anchor="start" x="16.5" y="-97" font-family="Ubuntu Mono" font-size="10.00">+</text>
<text text-anchor="start" x="29.5" y="-97" font-family="Ubuntu Mono" font-size="10.00">getDiffLength()</text>
<text text-anchor="start" x="16.5" y="-82" font-family="Ubuntu Mono" font-size="10.00">+</text>
<text text-anchor="start" x="29.5" y="-82" font-family="Ubuntu Mono" font-size="10.00">getDiffusionArea()</text>
<text text-anchor="start" x="16.5" y="-67" font-family="Ubuntu Mono" font-size="10.00">+</text>
<text text-anchor="start" x="29.5" y="-67" font-family="Ubuntu Mono" font-size="10.00">getDiffusionScaling()</text>
<text text-anchor="start" x="16.5" y="-52" font-family="Ubuntu Mono" font-size="10.00">+</text>
<text text-anchor="start" x="29.5" y="-52" font-family="Ubuntu Mono" font-size="10.00">getMeshDimensions()</text>
<text text-anchor="start" x="16.5" y="-37" font-family="Ubuntu Mono" font-size="10.00">+</text>
<text text-anchor="start" x="29.5" y="-37" font-family="Ubuntu Mono" font-size="10.00">getMeshEntryVolume()</text>
<text text-anchor="start" x="29.5" y="-22" font-family="Ubuntu Mono" font-size="10.00">and 45 more...</text>
<text text-anchor="start" x="16.5" y="-7" font-family="Ubuntu Mono" font-size="10.00">+</text>
<text text-anchor="start" x="29.5" y="-7" font-family="Ubuntu Mono" font-size="10.00">initCinfo()</text>
<polygon fill="#666666" stroke="#666666" points="12.5,-347 12.5,-347 175.5,-347 175.5,-347 12.5,-347"/>
<polygon fill="#666666" stroke="#666666" points="12.5,-182 12.5,-182 27.5,-182 27.5,-182 12.5,-182"/>
<polygon fill="#666666" stroke="#666666" points="27.5,-182 27.5,-182 175.5,-182 175.5,-182 27.5,-182"/>
<polygon fill="none" stroke="#666666" points="12,0 12,-364 175,-364 175,0 12,0"/>
</a>
</g>
</g>
<!-- Node2 -->
<g id="Node000002" class="node">
<title>Node2</title>
<g id="a_Node000002"><a xlink:href="classMeshCompt.html" target="_top" xlink:title=" ">
<polygon fill="white" stroke="transparent" points="187,-689 0,-689 0,-400 187,-400 187,-689"/>
<text text-anchor="start" x="64.5" y="-676.5" font-family="Ubuntu Mono" font-size="10.00">MeshCompt</text>
<text text-anchor="start" x="7" y="-661.5" font-family="Ubuntu Mono" font-size="10.00">&#45;</text>
<text text-anchor="start" x="17.5" y="-661.5" font-family="Ubuntu Mono" font-size="10.00">coreStencil_</text>
<text text-anchor="start" x="7" y="-646.5" font-family="Ubuntu Mono" font-size="10.00">&#45;</text>
<text text-anchor="start" x="17.5" y="-646.5" font-family="Ubuntu Mono" font-size="10.00">extendedMeshEntryVolume_</text>
<text text-anchor="start" x="7" y="-631.5" font-family="Ubuntu Mono" font-size="10.00">&#45;</text>
<text text-anchor="start" x="17.5" y="-631.5" font-family="Ubuntu Mono" font-size="10.00">m_</text>
<text text-anchor="start" x="4.5" y="-616.5" font-family="Ubuntu Mono" font-size="10.00">+</text>
<text text-anchor="start" x="17.5" y="-616.5" font-family="Ubuntu Mono" font-size="10.00">addRow()</text>
<text text-anchor="start" x="4.5" y="-601.5" font-family="Ubuntu Mono" font-size="10.00">+</text>
<text text-anchor="start" x="17.5" y="-601.5" font-family="Ubuntu Mono" font-size="10.00">clearExtendedMeshEntryVolume()</text>
<text text-anchor="start" x="4.5" y="-586.5" font-family="Ubuntu Mono" font-size="10.00">+</text>
<text text-anchor="start" x="17.5" y="-586.5" font-family="Ubuntu Mono" font-size="10.00">extendedMeshEntryVolume()</text>
<text text-anchor="start" x="4.5" y="-571.5" font-family="Ubuntu Mono" font-size="10.00">+</text>
<text text-anchor="start" x="17.5" y="-571.5" font-family="Ubuntu Mono" font-size="10.00">extendStencil()</text>
<text text-anchor="start" x="4.5" y="-556.5" font-family="Ubuntu Mono" font-size="10.00">+</text>
<text text-anchor="start" x="17.5" y="-556.5" font-family="Ubuntu Mono" font-size="10.00">getNeighbors()</text>
<text text-anchor="start" x="4.5" y="-541.5" font-family="Ubuntu Mono" font-size="10.00">+</text>
<text text-anchor="start" x="17.5" y="-541.5" font-family="Ubuntu Mono" font-size="10.00">getParentVoxel()</text>
<text text-anchor="start" x="4.5" y="-526.5" font-family="Ubuntu Mono" font-size="10.00">+</text>
<text text-anchor="start" x="17.5" y="-526.5" font-family="Ubuntu Mono" font-size="10.00">getStencil()</text>
<text text-anchor="start" x="4.5" y="-511.5" font-family="Ubuntu Mono" font-size="10.00">+</text>
<text text-anchor="start" x="17.5" y="-511.5" font-family="Ubuntu Mono" font-size="10.00">getStencilRow()</text>
<text text-anchor="start" x="4.5" y="-496.5" font-family="Ubuntu Mono" font-size="10.00">+</text>
<text text-anchor="start" x="17.5" y="-496.5" font-family="Ubuntu Mono" font-size="10.00">getVoxelArea()</text>
<text text-anchor="start" x="4.5" y="-481.5" font-family="Ubuntu Mono" font-size="10.00">+</text>
<text text-anchor="start" x="17.5" y="-481.5" font-family="Ubuntu Mono" font-size="10.00">getVoxelLength()</text>
<text text-anchor="start" x="4.5" y="-466.5" font-family="Ubuntu Mono" font-size="10.00">+</text>
<text text-anchor="start" x="17.5" y="-466.5" font-family="Ubuntu Mono" font-size="10.00">innerGetStencilRate()</text>
<text text-anchor="start" x="4.5" y="-451.5" font-family="Ubuntu Mono" font-size="10.00">+</text>
<text text-anchor="start" x="17.5" y="-451.5" font-family="Ubuntu Mono" font-size="10.00">innerResetStencil()</text>
<text text-anchor="start" x="4.5" y="-436.5" font-family="Ubuntu Mono" font-size="10.00">+</text>
<text text-anchor="start" x="17.5" y="-436.5" font-family="Ubuntu Mono" font-size="10.00">MeshCompt()</text>
<text text-anchor="start" x="4.5" y="-421.5" font-family="Ubuntu Mono" font-size="10.00">+</text>
<text text-anchor="start" x="17.5" y="-421.5" font-family="Ubuntu Mono" font-size="10.00">setStencilSize()</text>
<text text-anchor="start" x="4.5" y="-406.5" font-family="Ubuntu Mono" font-size="10.00">+</text>
<text text-anchor="start" x="17.5" y="-406.5" font-family="Ubuntu Mono" font-size="10.00">~MeshCompt()</text>
<polygon fill="#666666" stroke="#666666" points="0.5,-671.5 0.5,-671.5 187.5,-671.5 187.5,-671.5 0.5,-671.5"/>
<polygon fill="#666666" stroke="#666666" points="0.5,-626.5 0.5,-626.5 15.5,-626.5 15.5,-626.5 0.5,-626.5"/>
<polygon fill="#666666" stroke="#666666" points="15.5,-626.5 15.5,-626.5 187.5,-626.5 187.5,-626.5 15.5,-626.5"/>
<polygon fill="none" stroke="#666666" points="0,-400 0,-689 187,-689 187,-400 0,-400"/>
</a>
</g>
</g>
<!-- Node2&#45;&gt;Node1 -->
<g id="edge1_Node000001_Node000002" class="edge">
<title>Node2&#45;&gt;Node1</title>
<g id="a_edge1_Node000001_Node000002"><a xlink:title=" ">
<path fill="none" stroke="#63b8ff" d="M93.5,-389.72C93.5,-381.27 93.5,-372.73 93.5,-364.2"/>
<polygon fill="none" stroke="#63b8ff" points="90,-389.98 93.5,-399.99 97,-389.99 90,-389.98"/>
</a>
</g>
</g>
<!-- Node3 -->
<g id="Node000003" class="node">
<title>Node3</title>
<g id="a_Node000003"><a xlink:href="classChemCompt.html" target="_top" xlink:title=" ">
<polygon fill="white" stroke="transparent" points="187,-1014 0,-1014 0,-725 187,-725 187,-1014"/>
<text text-anchor="start" x="63.5" y="-1001.5" font-family="Ubuntu Mono" font-size="10.00">ChemCompt</text>
<text text-anchor="start" x="7" y="-986.5" font-family="Ubuntu Mono" font-size="10.00">&#45;</text>
<text text-anchor="start" x="17.5" y="-986.5" font-family="Ubuntu Mono" font-size="10.00">boundaries_</text>
<text text-anchor="start" x="7" y="-971.5" font-family="Ubuntu Mono" font-size="10.00">&#45;</text>
<text text-anchor="start" x="17.5" y="-971.5" font-family="Ubuntu Mono" font-size="10.00">entry_</text>
<text text-anchor="start" x="7" y="-956.5" font-family="Ubuntu Mono" font-size="10.00">&#45;</text>
<text text-anchor="start" x="17.5" y="-956.5" font-family="Ubuntu Mono" font-size="10.00">isMembraneBound_</text>
<text text-anchor="start" x="7" y="-941.5" font-family="Ubuntu Mono" font-size="10.00">&#45;</text>
<text text-anchor="start" x="17.5" y="-941.5" font-family="Ubuntu Mono" font-size="10.00">method_</text>
<text text-anchor="start" x="4.5" y="-926.5" font-family="Ubuntu Mono" font-size="10.00">+</text>
<text text-anchor="start" x="17.5" y="-926.5" font-family="Ubuntu Mono" font-size="10.00">buildDefaultMesh()</text>
<text text-anchor="start" x="4.5" y="-911.5" font-family="Ubuntu Mono" font-size="10.00">+</text>
<text text-anchor="start" x="17.5" y="-911.5" font-family="Ubuntu Mono" font-size="10.00">buildJunction()</text>
<text text-anchor="start" x="4.5" y="-896.5" font-family="Ubuntu Mono" font-size="10.00">+</text>
<text text-anchor="start" x="17.5" y="-896.5" font-family="Ubuntu Mono" font-size="10.00">ChemCompt()</text>
<text text-anchor="start" x="4.5" y="-881.5" font-family="Ubuntu Mono" font-size="10.00">+</text>
<text text-anchor="start" x="17.5" y="-881.5" font-family="Ubuntu Mono" font-size="10.00">clearExtendedMeshEntryVolume()</text>
<text text-anchor="start" x="4.5" y="-866.5" font-family="Ubuntu Mono" font-size="10.00">+</text>
<text text-anchor="start" x="17.5" y="-866.5" font-family="Ubuntu Mono" font-size="10.00">extendedMeshEntryVolume()</text>
<text text-anchor="start" x="4.5" y="-851.5" font-family="Ubuntu Mono" font-size="10.00">+</text>
<text text-anchor="start" x="17.5" y="-851.5" font-family="Ubuntu Mono" font-size="10.00">extendStencil()</text>
<text text-anchor="start" x="4.5" y="-836.5" font-family="Ubuntu Mono" font-size="10.00">+</text>
<text text-anchor="start" x="17.5" y="-836.5" font-family="Ubuntu Mono" font-size="10.00">flipRet()</text>
<text text-anchor="start" x="4.5" y="-821.5" font-family="Ubuntu Mono" font-size="10.00">+</text>
<text text-anchor="start" x="17.5" y="-821.5" font-family="Ubuntu Mono" font-size="10.00">getChildConcs()</text>
<text text-anchor="start" x="4.5" y="-806.5" font-family="Ubuntu Mono" font-size="10.00">+</text>
<text text-anchor="start" x="17.5" y="-806.5" font-family="Ubuntu Mono" font-size="10.00">getCoordinates()</text>
<text text-anchor="start" x="4.5" y="-791.5" font-family="Ubuntu Mono" font-size="10.00">+</text>
<text text-anchor="start" x="17.5" y="-791.5" font-family="Ubuntu Mono" font-size="10.00">getDiffusionArea()</text>
<text text-anchor="start" x="17.5" y="-776.5" font-family="Ubuntu Mono" font-size="10.00">and 43 more...</text>
<text text-anchor="start" x="4.5" y="-761.5" font-family="Ubuntu Mono" font-size="10.00">+</text>
<text text-anchor="start" x="17.5" y="-761.5" font-family="Ubuntu Mono" font-size="10.00">distance()</text>
<text text-anchor="start" x="4.5" y="-746.5" font-family="Ubuntu Mono" font-size="10.00">+</text>
<text text-anchor="start" x="17.5" y="-746.5" font-family="Ubuntu Mono" font-size="10.00">initCinfo()</text>
<text text-anchor="start" x="4.5" y="-731.5" font-family="Ubuntu Mono" font-size="10.00">+</text>
<text text-anchor="start" x="17.5" y="-731.5" font-family="Ubuntu Mono" font-size="10.00">voxelVolOut()</text>
<polygon fill="#666666" stroke="#666666" points="0.5,-996.5 0.5,-996.5 187.5,-996.5 187.5,-996.5 0.5,-996.5"/>
<polygon fill="#666666" stroke="#666666" points="0.5,-936.5 0.5,-936.5 15.5,-936.5 15.5,-936.5 0.5,-936.5"/>
<polygon fill="#666666" stroke="#666666" points="15.5,-936.5 15.5,-936.5 187.5,-936.5 187.5,-936.5 15.5,-936.5"/>
<polygon fill="none" stroke="#666666" points="0,-725 0,-1014 187,-1014 187,-725 0,-725"/>
</a>
</g>
</g>
<!-- Node3&#45;&gt;Node2 -->
<g id="edge2_Node000002_Node000003" class="edge">
<title>Node3&#45;&gt;Node2</title>
<g id="a_edge2_Node000002_Node000003"><a xlink:title=" ">
<path fill="none" stroke="#63b8ff" d="M93.5,-714.9C93.5,-706.32 93.5,-697.72 93.5,-689.18"/>
<polygon fill="none" stroke="#63b8ff" points="90,-714.95 93.5,-724.95 97,-714.95 90,-714.95"/>
</a>
</g>
</g>
</g>
</svg>
