<?xml version="1.0" encoding="UTF-8" standalone="no"?>
<!DOCTYPE svg PUBLIC "-//W3C//DTD SVG 1.1//EN"
 "http://www.w3.org/Graphics/SVG/1.1/DTD/svg11.dtd">
<!-- Generated by graphviz version 2.43.0 (0)
 -->
<!-- Title: DifBuffer::vReinit Pages: 1 -->
<svg width="1577pt" height="928pt"
 viewBox="0.00 0.00 1577.00 927.73" xmlns="http://www.w3.org/2000/svg" xmlns:xlink="http://www.w3.org/1999/xlink">
<g id="graph0" class="graph" transform="scale(1 1) rotate(0) translate(4 923.73)">
<title>DifBuffer::vReinit</title>
<!-- Node1 -->
<g id="Node000001" class="node">
<title>Node1</title>
<g id="a_Node000001"><a xlink:title=" ">
<polygon fill="#999999" stroke="#666666" points="101,-882.73 0,-882.73 0,-863.73 101,-863.73 101,-882.73"/>
<text text-anchor="middle" x="50.5" y="-870.73" font-family="Ubuntu Mono" font-size="10.00">DifBuffer::vReinit</text>
</a>
</g>
</g>
<!-- Node2 -->
<g id="Node000002" class="node">
<title>Node2</title>
<g id="a_Node000002"><a xlink:href="classDifBufferBase.html#acc9d079897e63cf8bc184290dbb1b3cf" target="_top" xlink:title=" ">
<polygon fill="white" stroke="#666666" points="316.5,-882.73 137.5,-882.73 137.5,-863.73 316.5,-863.73 316.5,-882.73"/>
<text text-anchor="middle" x="227" y="-870.73" font-family="Ubuntu Mono" font-size="10.00">DifBufferBase::innerDifSourceOut</text>
</a>
</g>
</g>
<!-- Node1&#45;&gt;Node2 -->
<g id="edge1_Node000001_Node000002" class="edge">
<title>Node1&#45;&gt;Node2</title>
<g id="a_edge1_Node000001_Node000002"><a xlink:title=" ">
<path fill="none" stroke="#63b8ff" d="M101.04,-873.23C109.31,-873.23 118.14,-873.23 127.14,-873.23"/>
<polygon fill="#63b8ff" stroke="#63b8ff" points="127.36,-876.73 137.36,-873.23 127.36,-869.73 127.36,-876.73"/>
</a>
</g>
</g>
<!-- Node4 -->
<g id="Node000004" class="node">
<title>Node4</title>
<g id="a_Node000004"><a xlink:href="classDifBufferBase.html#a78dffa443c3cbcf6b1d1c908a7f523a0" target="_top" xlink:title=" ">
<polygon fill="white" stroke="#666666" points="317,-919.73 137,-919.73 137,-900.73 317,-900.73 317,-919.73"/>
<text text-anchor="middle" x="227" y="-907.73" font-family="Ubuntu Mono" font-size="10.00">DifBufferBase::outerDifSourceOut</text>
</a>
</g>
</g>
<!-- Node1&#45;&gt;Node4 -->
<g id="edge3_Node000001_Node000004" class="edge">
<title>Node1&#45;&gt;Node4</title>
<g id="a_edge3_Node000001_Node000004"><a xlink:title=" ">
<path fill="none" stroke="#63b8ff" d="M93.65,-882.76C107.45,-885.84 122.87,-889.23 137,-892.23 147.05,-894.36 157.75,-896.57 168.12,-898.69"/>
<polygon fill="#63b8ff" stroke="#63b8ff" points="167.43,-902.12 177.93,-900.68 168.82,-895.26 167.43,-902.12"/>
</a>
</g>
</g>
<!-- Node5 -->
<g id="Node000005" class="node">
<title>Node5</title>
<g id="a_Node000005"><a xlink:href="classSrcFinfo2.html#ad3d0323f32a80569e27205624455b0a2" target="_top" xlink:title=" ">
<polygon fill="white" stroke="#666666" points="272.5,-787.73 181.5,-787.73 181.5,-768.73 272.5,-768.73 272.5,-787.73"/>
<text text-anchor="middle" x="227" y="-775.73" font-family="Ubuntu Mono" font-size="10.00">SrcFinfo2::send</text>
</a>
</g>
</g>
<!-- Node1&#45;&gt;Node5 -->
<g id="edge5_Node000001_Node000005" class="edge">
<title>Node1&#45;&gt;Node5</title>
<g id="a_edge5_Node000001_Node000005"><a xlink:title=" ">
<path fill="none" stroke="#63b8ff" d="M69.19,-863.6C99.97,-846.84 163.53,-812.24 199.56,-792.62"/>
<polygon fill="#63b8ff" stroke="#63b8ff" points="201.41,-795.6 208.52,-787.74 198.06,-789.45 201.41,-795.6"/>
</a>
</g>
</g>
<!-- Node3 -->
<g id="Node000003" class="node">
<title>Node3</title>
<g id="a_Node000003"><a xlink:href="classSrcFinfo2.html#a5f3c58e70c670d2502f0897a1a016b71" target="_top" xlink:title=" ">
<polygon fill="white" stroke="#666666" points="472.5,-919.73 359.5,-919.73 359.5,-900.73 472.5,-900.73 472.5,-919.73"/>
<text text-anchor="middle" x="416" y="-907.73" font-family="Ubuntu Mono" font-size="10.00">SrcFinfo2::SrcFinfo2</text>
</a>
</g>
</g>
<!-- Node2&#45;&gt;Node3 -->
<g id="edge2_Node000002_Node000003" class="edge">
<title>Node2&#45;&gt;Node3</title>
<g id="a_edge2_Node000002_Node000003"><a xlink:title=" ">
<path fill="none" stroke="#63b8ff" d="M276.16,-882.76C300.71,-887.61 330.77,-893.56 356.63,-898.68"/>
<polygon fill="#63b8ff" stroke="#63b8ff" points="356.19,-902.16 366.68,-900.67 357.55,-895.29 356.19,-902.16"/>
</a>
</g>
</g>
<!-- Node4&#45;&gt;Node3 -->
<g id="edge4_Node000004_Node000003" class="edge">
<title>Node4&#45;&gt;Node3</title>
<g id="a_edge4_Node000004_Node000003"><a xlink:title=" ">
<path fill="none" stroke="#63b8ff" d="M317.12,-910.23C327.91,-910.23 338.79,-910.23 349.16,-910.23"/>
<polygon fill="#63b8ff" stroke="#63b8ff" points="349.34,-913.73 359.34,-910.23 349.34,-906.73 349.34,-913.73"/>
</a>
</g>
</g>
<!-- Node6 -->
<g id="Node000006" class="node">
<title>Node6</title>
<g id="a_Node000006"><a xlink:href="classEref.html#aca13ad32862935d4a33109785d0f01d7" target="_top" xlink:title=" ">
<polygon fill="white" stroke="#666666" points="1305.5,-785.73 1215.5,-785.73 1215.5,-766.73 1305.5,-766.73 1305.5,-785.73"/>
<text text-anchor="middle" x="1260.5" y="-773.73" font-family="Ubuntu Mono" font-size="10.00">Eref::dataIndex</text>
</a>
</g>
</g>
<!-- Node5&#45;&gt;Node6 -->
<g id="edge6_Node000005_Node000006" class="edge">
<title>Node5&#45;&gt;Node6</title>
<g id="a_edge6_Node000005_Node000006"><a xlink:title=" ">
<path fill="none" stroke="#63b8ff" d="M258.79,-787.74C283.91,-795.16 320.45,-805.2 353,-811.23 449.93,-829.19 474.92,-835.23 573.5,-835.23 573.5,-835.23 573.5,-835.23 926.5,-835.23 1036.57,-835.23 1066.1,-837.48 1173,-811.23 1193.12,-806.29 1214.73,-797.55 1231.31,-790.04"/>
<polygon fill="#63b8ff" stroke="#63b8ff" points="1232.85,-793.18 1240.45,-785.8 1229.91,-786.83 1232.85,-793.18"/>
</a>
</g>
</g>
<!-- Node7 -->
<g id="Node000007" class="node">
<title>Node7</title>
<g id="a_Node000007"><a xlink:href="classEref.html#a47b59ab86165cceb0bde80c76c3f7fa2" target="_top" xlink:title=" ">
<polygon fill="white" stroke="#666666" points="1301.5,-689.73 1219.5,-689.73 1219.5,-670.73 1301.5,-670.73 1301.5,-689.73"/>
<text text-anchor="middle" x="1260.5" y="-677.73" font-family="Ubuntu Mono" font-size="10.00">Eref::element</text>
</a>
</g>
</g>
<!-- Node5&#45;&gt;Node7 -->
<g id="edge7_Node000005_Node000007" class="edge">
<title>Node5&#45;&gt;Node7</title>
<g id="a_edge7_Node000005_Node000007"><a xlink:title=" ">
<path fill="none" stroke="#63b8ff" d="M272.68,-782.26C338.49,-787.84 465.37,-797.23 573.5,-797.23 573.5,-797.23 573.5,-797.23 926.5,-797.23 1036.81,-797.23 1073.94,-816.76 1173,-768.23 1205.51,-752.3 1232.79,-719.05 1247.58,-698.29"/>
<polygon fill="#63b8ff" stroke="#63b8ff" points="1250.51,-700.22 1253.3,-690 1244.75,-696.24 1250.51,-700.22"/>
</a>
</g>
</g>
<!-- Node8 -->
<g id="Node000008" class="node">
<title>Node8</title>
<g id="a_Node000008"><a xlink:href="classEref.html#a3addb850bc6cbac7771a07de219d909d" target="_top" xlink:title=" ">
<polygon fill="white" stroke="#666666" points="1136.5,-721.73 1075.5,-721.73 1075.5,-702.73 1136.5,-702.73 1136.5,-721.73"/>
<text text-anchor="middle" x="1106" y="-709.73" font-family="Ubuntu Mono" font-size="10.00">Eref::Eref</text>
</a>
</g>
</g>
<!-- Node5&#45;&gt;Node8 -->
<g id="edge8_Node000005_Node000008" class="edge">
<title>Node5&#45;&gt;Node8</title>
<g id="a_edge8_Node000005_Node000008"><a xlink:title=" ">
<path fill="none" stroke="#63b8ff" d="M248.11,-768.6C300.43,-744.44 445.66,-683.23 573.5,-683.23 573.5,-683.23 573.5,-683.23 742,-683.23 859.92,-683.23 998.71,-698.62 1065.36,-706.98"/>
<polygon fill="#63b8ff" stroke="#63b8ff" points="1065.06,-710.47 1075.42,-708.26 1065.94,-703.53 1065.06,-710.47"/>
</a>
</g>
</g>
<!-- Node9 -->
<g id="Node000009" class="node">
<title>Node9</title>
<g id="a_Node000009"><a xlink:href="classSrcFinfo.html#aa90db29c818e71d31322c35bfec2f731" target="_top" xlink:title=" ">
<polygon fill="white" stroke="#666666" points="479,-882.73 353,-882.73 353,-863.73 479,-863.73 479,-882.73"/>
<text text-anchor="middle" x="416" y="-870.73" font-family="Ubuntu Mono" font-size="10.00">SrcFinfo::getBindIndex</text>
</a>
</g>
</g>
<!-- Node5&#45;&gt;Node9 -->
<g id="edge9_Node000005_Node000009" class="edge">
<title>Node5&#45;&gt;Node9</title>
<g id="a_edge9_Node000005_Node000009"><a xlink:title=" ">
<path fill="none" stroke="#63b8ff" d="M243.39,-787.95C266.6,-802.39 312.19,-829.87 353,-849.23 361.02,-853.03 369.82,-856.72 378.2,-860.01"/>
<polygon fill="#63b8ff" stroke="#63b8ff" points="377.19,-863.37 387.78,-863.68 379.69,-856.84 377.19,-863.37"/>
</a>
</g>
</g>
<!-- Node10 -->
<g id="Node000010" class="node">
<title>Node10</title>
<g id="a_Node000010"><a xlink:href="classElement.html#a8d7debb27e67d5fc97697cddc9d69542" target="_top" xlink:title="Returns index of first data entry on this node.">
<polygon fill="white" stroke="#666666" points="1172.5,-50.73 1039.5,-50.73 1039.5,-31.73 1172.5,-31.73 1172.5,-50.73"/>
<text text-anchor="middle" x="1106" y="-38.73" font-family="Ubuntu Mono" font-size="10.00">Element::localDataStart</text>
</a>
</g>
</g>
<!-- Node5&#45;&gt;Node10 -->
<g id="edge10_Node000005_Node000010" class="edge">
<title>Node5&#45;&gt;Node10</title>
<g id="a_edge10_Node000005_Node000010"><a xlink:title=" ">
<path fill="none" stroke="#63b8ff" d="M228.44,-768.64C232.63,-688.65 272.52,-135.23 573.5,-135.23 573.5,-135.23 573.5,-135.23 742,-135.23 868.72,-135.23 1012.62,-80.88 1074.29,-54.83"/>
<polygon fill="#63b8ff" stroke="#63b8ff" points="1076,-57.91 1083.81,-50.76 1073.24,-51.47 1076,-57.91"/>
</a>
</g>
</g>
<!-- Node11 -->
<g id="Node000011" class="node">
<title>Node11</title>
<g id="a_Node000011"><a xlink:href="classEref.html#a5c15b71e3463adaa4623267ada92c898" target="_top" xlink:title=" ">
<polygon fill="white" stroke="#666666" points="463,-635.73 369,-635.73 369,-616.73 463,-616.73 463,-635.73"/>
<text text-anchor="middle" x="416" y="-623.73" font-family="Ubuntu Mono" font-size="10.00">Eref::msgDigest</text>
</a>
</g>
</g>
<!-- Node5&#45;&gt;Node11 -->
<g id="edge11_Node000005_Node000011" class="edge">
<title>Node5&#45;&gt;Node11</title>
<g id="a_edge11_Node000005_Node000011"><a xlink:title=" ">
<path fill="none" stroke="#63b8ff" d="M238.36,-768.49C259.36,-748.91 308.7,-703.73 353,-669.23 365.43,-659.54 379.88,-649.46 391.69,-641.5"/>
<polygon fill="#63b8ff" stroke="#63b8ff" points="393.77,-644.32 400.14,-635.86 389.88,-638.5 393.77,-644.32"/>
</a>
</g>
</g>
<!-- Node17 -->
<g id="Node000017" class="node">
<title>Node17</title>
<g id="a_Node000017"><a xlink:href="classElement.html#ae764f4baa2a88e55072eb0a5b15718c4" target="_top" xlink:title="Returns number of data entries across all nodes.">
<polygon fill="white" stroke="#666666" points="1160,-758.73 1052,-758.73 1052,-739.73 1160,-739.73 1160,-758.73"/>
<text text-anchor="middle" x="1106" y="-746.73" font-family="Ubuntu Mono" font-size="10.00">Element::numData</text>
</a>
</g>
</g>
<!-- Node5&#45;&gt;Node17 -->
<g id="edge63_Node000005_Node000017" class="edge">
<title>Node5&#45;&gt;Node17</title>
<g id="a_edge63_Node000005_Node000017"><a xlink:title=" ">
<path fill="none" stroke="#63b8ff" d="M272.68,-774.2C338.49,-768.62 465.37,-759.23 573.5,-759.23 573.5,-759.23 573.5,-759.23 742,-759.23 847.01,-759.23 969.03,-755 1041.48,-752.04"/>
<polygon fill="#63b8ff" stroke="#63b8ff" points="1041.96,-755.52 1051.81,-751.61 1041.67,-748.53 1041.96,-755.52"/>
</a>
</g>
</g>
<!-- Node12 -->
<g id="Node000012" class="node">
<title>Node12</title>
<g id="a_Node000012"><a xlink:href="classElement.html#a33610036b72724ca3b7fedaf7e692841" target="_top" xlink:title=" ">
<polygon fill="white" stroke="#666666" points="1149.5,-647.73 1062.5,-647.73 1062.5,-628.73 1149.5,-628.73 1149.5,-647.73"/>
<text text-anchor="middle" x="1106" y="-635.73" font-family="Ubuntu Mono" font-size="10.00">Element::cinfo</text>
</a>
</g>
</g>
<!-- Node11&#45;&gt;Node12 -->
<g id="edge12_Node000011_Node000012" class="edge">
<title>Node11&#45;&gt;Node12</title>
<g id="a_edge12_Node000011_Node000012"><a xlink:title=" ">
<path fill="none" stroke="#63b8ff" d="M463.21,-627.03C586.27,-629.18 921.41,-635.03 1051.95,-637.3"/>
<polygon fill="#63b8ff" stroke="#63b8ff" points="1052.04,-640.81 1062.1,-637.48 1052.16,-633.81 1052.04,-640.81"/>
</a>
</g>
</g>
<!-- Node13 -->
<g id="Node000013" class="node">
<title>Node13</title>
<g id="a_Node000013"><a xlink:href="classElement.html#af00354d706575077c20c9865f340f93f" target="_top" xlink:title=" ">
<polygon fill="white" stroke="#666666" points="632.5,-616.73 516.5,-616.73 516.5,-597.73 632.5,-597.73 632.5,-616.73"/>
<text text-anchor="middle" x="574.5" y="-604.73" font-family="Ubuntu Mono" font-size="10.00">Element::msgDigest</text>
</a>
</g>
</g>
<!-- Node11&#45;&gt;Node13 -->
<g id="edge13_Node000011_Node000013" class="edge">
<title>Node11&#45;&gt;Node13</title>
<g id="a_edge13_Node000011_Node000013"><a xlink:title=" ">
<path fill="none" stroke="#63b8ff" d="M463.11,-620.63C476.66,-618.99 491.77,-617.15 506.36,-615.38"/>
<polygon fill="#63b8ff" stroke="#63b8ff" points="506.84,-618.85 516.34,-614.17 505.99,-611.9 506.84,-618.85"/>
</a>
</g>
</g>
<!-- Node43 -->
<g id="Node000043" class="node">
<title>Node43</title>
<g id="a_Node000043"><a xlink:href="classCinfo.html#a2fc76e571de8791c7d2e4ca04c770ffb" target="_top" xlink:title=" ">
<polygon fill="white" stroke="#666666" points="634,-579.73 515,-579.73 515,-560.73 634,-560.73 634,-579.73"/>
<text text-anchor="middle" x="574.5" y="-567.73" font-family="Ubuntu Mono" font-size="10.00">Cinfo::numBindIndex</text>
</a>
</g>
</g>
<!-- Node11&#45;&gt;Node43 -->
<g id="edge62_Node000011_Node000043" class="edge">
<title>Node11&#45;&gt;Node43</title>
<g id="a_edge62_Node000011_Node000043"><a xlink:title=" ">
<path fill="none" stroke="#63b8ff" d="M441.45,-616.63C461.21,-608.97 489.77,-598.08 515,-589.23 520.95,-587.14 527.27,-585 533.47,-582.95"/>
<polygon fill="#63b8ff" stroke="#63b8ff" points="534.63,-586.26 543.05,-579.82 532.45,-579.6 534.63,-586.26"/>
</a>
</g>
</g>
<!-- Node14 -->
<g id="Node000014" class="node">
<title>Node14</title>
<g id="a_Node000014"><a xlink:href="classElement.html#a722a219697e0d390675dff185ae8de28" target="_top" xlink:title=" ">
<polygon fill="white" stroke="#666666" points="812,-560.73 670,-560.73 670,-541.73 812,-541.73 812,-560.73"/>
<text text-anchor="middle" x="741" y="-548.73" font-family="Ubuntu Mono" font-size="10.00">Element::digestMessages</text>
</a>
</g>
</g>
<!-- Node13&#45;&gt;Node14 -->
<g id="edge14_Node000013_Node000014" class="edge">
<title>Node13&#45;&gt;Node14</title>
<g id="a_edge14_Node000013_Node000014"><a xlink:title=" ">
<path fill="none" stroke="#63b8ff" d="M607.46,-597.68C616.1,-595.02 625.43,-592.08 634,-589.23 657.75,-581.32 684.26,-571.82 704.83,-564.29"/>
<polygon fill="#63b8ff" stroke="#63b8ff" points="706.23,-567.51 714.41,-560.77 703.82,-560.94 706.23,-567.51"/>
</a>
</g>
</g>
<!-- Node15 -->
<g id="Node000015" class="node">
<title>Node15</title>
<g id="a_Node000015"><a xlink:href="Element_8cpp.html#af36606da2859789d69ab11f9ae6354e7" target="_top" xlink:title=" ">
<polygon fill="white" stroke="#666666" points="970,-616.73 881,-616.73 881,-597.73 970,-597.73 970,-616.73"/>
<text text-anchor="middle" x="925.5" y="-604.73" font-family="Ubuntu Mono" font-size="10.00">findNumDigest</text>
</a>
</g>
</g>
<!-- Node14&#45;&gt;Node15 -->
<g id="edge15_Node000014_Node000015" class="edge">
<title>Node14&#45;&gt;Node15</title>
<g id="a_edge15_Node000014_Node000015"><a xlink:title=" ">
<path fill="none" stroke="#63b8ff" d="M766.16,-560.77C787.48,-568.98 819.51,-580.8 848,-589.23 855.45,-591.43 863.37,-593.55 871.19,-595.5"/>
<polygon fill="#63b8ff" stroke="#63b8ff" points="870.44,-598.92 880.99,-597.89 872.1,-592.12 870.44,-598.92"/>
</a>
</g>
</g>
<!-- Node16 -->
<g id="Node000016" class="node">
<title>Node16</title>
<g id="a_Node000016"><a xlink:href="classFuncOrder.html#a1e3804483f62e1b894dbaed343711033" target="_top" xlink:title=" ">
<polygon fill="white" stroke="#666666" points="975,-579.73 876,-579.73 876,-560.73 975,-560.73 975,-579.73"/>
<text text-anchor="middle" x="925.5" y="-567.73" font-family="Ubuntu Mono" font-size="10.00">FuncOrder::index</text>
</a>
</g>
</g>
<!-- Node14&#45;&gt;Node16 -->
<g id="edge16_Node000014_Node000016" class="edge">
<title>Node14&#45;&gt;Node16</title>
<g id="a_edge16_Node000014_Node000016"><a xlink:title=" ">
<path fill="none" stroke="#63b8ff" d="M812.04,-558.52C829.68,-560.36 848.45,-562.31 865.5,-564.09"/>
<polygon fill="#63b8ff" stroke="#63b8ff" points="865.55,-567.61 875.86,-565.16 866.28,-560.65 865.55,-567.61"/>
</a>
</g>
</g>
<!-- Node14&#45;&gt;Node17 -->
<g id="edge17_Node000014_Node000017" class="edge">
<title>Node14&#45;&gt;Node17</title>
<g id="a_edge17_Node000014_Node000017"><a xlink:title=" ">
<path fill="none" stroke="#63b8ff" d="M754.52,-560.89C793.99,-590.87 920.23,-683.18 1039,-731.23 1043.83,-733.18 1048.94,-735 1054.1,-736.66"/>
<polygon fill="#63b8ff" stroke="#63b8ff" points="1053.43,-740.11 1064.01,-739.67 1055.46,-733.41 1053.43,-740.11"/>
</a>
</g>
</g>
<!-- Node18 -->
<g id="Node000018" class="node">
<title>Node18</title>
<g id="a_Node000018"><a xlink:href="classShell.html#a2191e15a0bcd49569fbb297b0724a765" target="_top" xlink:title=" ">
<polygon fill="white" stroke="#666666" points="1310,-220.73 1211,-220.73 1211,-201.73 1310,-201.73 1310,-220.73"/>
<text text-anchor="middle" x="1260.5" y="-208.73" font-family="Ubuntu Mono" font-size="10.00">Shell::numNodes</text>
</a>
</g>
</g>
<!-- Node14&#45;&gt;Node18 -->
<g id="edge18_Node000014_Node000018" class="edge">
<title>Node14&#45;&gt;Node18</title>
<g id="a_edge18_Node000014_Node000018"><a xlink:title=" ">
<path fill="none" stroke="#63b8ff" d="M743.48,-541.38C753.61,-478.25 818.85,-129.47 1039,-22.23 1092.54,3.85 1122.89,9.95 1173,-22.23 1232.55,-60.46 1251.62,-151.03 1257.29,-191.31"/>
<polygon fill="#63b8ff" stroke="#63b8ff" points="1253.85,-191.98 1258.58,-201.46 1260.79,-191.1 1253.85,-191.98"/>
</a>
</g>
</g>
<!-- Node19 -->
<g id="Node000019" class="node">
<title>Node19</title>
<g id="a_Node000019"><a xlink:href="Element_8cpp.html#ae676123d090f0874314d4469a1f3fe90" target="_top" xlink:title=" ">
<polygon fill="white" stroke="#666666" points="973.5,-542.73 877.5,-542.73 877.5,-523.73 973.5,-523.73 973.5,-542.73"/>
<text text-anchor="middle" x="925.5" y="-530.73" font-family="Ubuntu Mono" font-size="10.00">putFuncsInOrder</text>
</a>
</g>
</g>
<!-- Node14&#45;&gt;Node19 -->
<g id="edge19_Node000014_Node000019" class="edge">
<title>Node14&#45;&gt;Node19</title>
<g id="a_edge19_Node000014_Node000019"><a xlink:title=" ">
<path fill="none" stroke="#63b8ff" d="M812.04,-544.32C830.27,-542.52 849.7,-540.61 867.19,-538.88"/>
<polygon fill="#63b8ff" stroke="#63b8ff" points="867.63,-542.35 877.24,-537.89 866.95,-535.39 867.63,-542.35"/>
</a>
</g>
</g>
<!-- Node30 -->
<g id="Node000030" class="node">
<title>Node30</title>
<g id="a_Node000030"><a xlink:href="classElement.html#a0782085917c558ec4d56be9566688743" target="_top" xlink:title=" ">
<polygon fill="white" stroke="#666666" points="1002.5,-505.23 848.5,-505.23 848.5,-475.23 1002.5,-475.23 1002.5,-505.23"/>
<text text-anchor="start" x="856.5" y="-493.23" font-family="Ubuntu Mono" font-size="10.00">Element::putOffNodeTargets</text>
<text text-anchor="middle" x="925.5" y="-482.23" font-family="Ubuntu Mono" font-size="10.00">InDigest</text>
</a>
</g>
</g>
<!-- Node14&#45;&gt;Node30 -->
<g id="edge31_Node000014_Node000030" class="edge">
<title>Node14&#45;&gt;Node30</title>
<g id="a_edge31_Node000014_Node000030"><a xlink:title=" ">
<path fill="none" stroke="#63b8ff" d="M769.87,-541.67C791.23,-534.36 821.45,-524.08 848,-515.23 854.5,-513.06 861.32,-510.81 868.1,-508.58"/>
<polygon fill="#63b8ff" stroke="#63b8ff" points="869.54,-511.79 877.95,-505.35 867.36,-505.14 869.54,-511.79"/>
</a>
</g>
</g>
<!-- Node33 -->
<g id="Node000033" class="node">
<title>Node33</title>
<g id="a_Node000033"><a xlink:href="classElement.html#ae5b80db45c08265b98ff433504fab66b" target="_top" xlink:title=" ">
<polygon fill="white" stroke="#666666" points="1003,-294.73 848,-294.73 848,-275.73 1003,-275.73 1003,-294.73"/>
<text text-anchor="middle" x="925.5" y="-282.73" font-family="Ubuntu Mono" font-size="10.00">Element::putTargetsInDigest</text>
</a>
</g>
</g>
<!-- Node14&#45;&gt;Node33 -->
<g id="edge42_Node000014_Node000033" class="edge">
<title>Node14&#45;&gt;Node33</title>
<g id="a_edge42_Node000014_Node000033"><a xlink:title=" ">
<path fill="none" stroke="#63b8ff" d="M748.71,-541.45C775.71,-502.09 876.64,-354.98 912.09,-303.31"/>
<polygon fill="#63b8ff" stroke="#63b8ff" points="915.15,-305.05 917.92,-294.82 909.38,-301.09 915.15,-305.05"/>
</a>
</g>
</g>
<!-- Node19&#45;&gt;Node12 -->
<g id="edge20_Node000019_Node000012" class="edge">
<title>Node19&#45;&gt;Node12</title>
<g id="a_edge20_Node000019_Node000012"><a xlink:title=" ">
<path fill="none" stroke="#63b8ff" d="M973.83,-538.48C984.21,-541.32 994.59,-545.65 1003,-552.23 1029.94,-573.29 1012.3,-598.86 1039,-620.23 1043.12,-623.53 1047.81,-626.23 1052.73,-628.43"/>
<polygon fill="#63b8ff" stroke="#63b8ff" points="1051.82,-631.83 1062.42,-632.09 1054.3,-625.28 1051.82,-631.83"/>
</a>
</g>
</g>
<!-- Node20 -->
<g id="Node000020" class="node">
<title>Node20</title>
<g id="a_Node000020"><a xlink:href="classMsg.html#a5be9f4dd643f5f662e8fb3c029273390" target="_top" xlink:title=" ">
<polygon fill="white" stroke="#666666" points="1133.5,-573.73 1078.5,-573.73 1078.5,-554.73 1133.5,-554.73 1133.5,-573.73"/>
<text text-anchor="middle" x="1106" y="-561.73" font-family="Ubuntu Mono" font-size="10.00">Msg::e1</text>
</a>
</g>
</g>
<!-- Node19&#45;&gt;Node20 -->
<g id="edge21_Node000019_Node000020" class="edge">
<title>Node19&#45;&gt;Node20</title>
<g id="a_edge21_Node000019_Node000020"><a xlink:title=" ">
<path fill="none" stroke="#63b8ff" d="M973.87,-541.45C1003.54,-546.61 1041.2,-553.15 1068.54,-557.9"/>
<polygon fill="#63b8ff" stroke="#63b8ff" points="1068.03,-561.36 1078.48,-559.62 1069.22,-554.46 1068.03,-561.36"/>
</a>
</g>
</g>
<!-- Node21 -->
<g id="Node000021" class="node">
<title>Node21</title>
<g id="a_Node000021"><a xlink:href="classMsg.html#a893ed6b44cd4c529f0f10af38ae6743a" target="_top" xlink:title=" ">
<polygon fill="white" stroke="#666666" points="1133.5,-462.73 1078.5,-462.73 1078.5,-443.73 1133.5,-443.73 1133.5,-462.73"/>
<text text-anchor="middle" x="1106" y="-450.73" font-family="Ubuntu Mono" font-size="10.00">Msg::e2</text>
</a>
</g>
</g>
<!-- Node19&#45;&gt;Node21 -->
<g id="edge22_Node000019_Node000021" class="edge">
<title>Node19&#45;&gt;Node21</title>
<g id="a_edge22_Node000019_Node000021"><a xlink:title=" ">
<path fill="none" stroke="#63b8ff" d="M973.7,-526.43C983.86,-523.65 994.18,-519.74 1003,-514.23 1024.14,-501.02 1018.02,-484.68 1039,-471.23 1047.85,-465.56 1058.47,-461.65 1068.57,-458.98"/>
<polygon fill="#63b8ff" stroke="#63b8ff" points="1069.48,-462.36 1078.43,-456.69 1067.89,-455.54 1069.48,-462.36"/>
</a>
</g>
</g>
<!-- Node22 -->
<g id="Node000022" class="node">
<title>Node22</title>
<g id="a_Node000022"><a xlink:href="classMsg.html#a1a57001709e44ab056a704c24760c105" target="_top" xlink:title=" ">
<polygon fill="white" stroke="#666666" points="1145.5,-536.73 1066.5,-536.73 1066.5,-517.73 1145.5,-517.73 1145.5,-536.73"/>
<text text-anchor="middle" x="1106" y="-524.73" font-family="Ubuntu Mono" font-size="10.00">Msg::getMsg</text>
</a>
</g>
</g>
<!-- Node19&#45;&gt;Node22 -->
<g id="edge23_Node000019_Node000022" class="edge">
<title>Node19&#45;&gt;Node22</title>
<g id="a_edge23_Node000019_Node000022"><a xlink:title=" ">
<path fill="none" stroke="#63b8ff" d="M973.87,-531.64C999.28,-530.78 1030.56,-529.73 1056.2,-528.87"/>
<polygon fill="#63b8ff" stroke="#63b8ff" points="1056.56,-532.36 1066.44,-528.52 1056.33,-525.36 1056.56,-532.36"/>
</a>
</g>
</g>
<!-- Node28 -->
<g id="Node000028" class="node">
<title>Node28</title>
<g id="a_Node000028"><a xlink:href="classCinfo.html#aa111a219c2868af6b8d7d181d5714e9d" target="_top" xlink:title=" ">
<polygon fill="white" stroke="#666666" points="1156,-610.73 1056,-610.73 1056,-591.73 1156,-591.73 1156,-610.73"/>
<text text-anchor="middle" x="1106" y="-598.73" font-family="Ubuntu Mono" font-size="10.00">Cinfo::getOpFunc</text>
</a>
</g>
</g>
<!-- Node19&#45;&gt;Node28 -->
<g id="edge29_Node000019_Node000028" class="edge">
<title>Node19&#45;&gt;Node28</title>
<g id="a_edge29_Node000019_Node000028"><a xlink:title=" ">
<path fill="none" stroke="#63b8ff" d="M973.88,-541.33C983.82,-544.03 994,-547.58 1003,-552.23 1021.76,-561.93 1020.36,-573.32 1039,-583.23 1042.5,-585.09 1046.21,-586.77 1050.01,-588.29"/>
<polygon fill="#63b8ff" stroke="#63b8ff" points="1049,-591.64 1059.59,-591.73 1051.36,-585.05 1049,-591.64"/>
</a>
</g>
</g>
<!-- Node29 -->
<g id="Node000029" class="node">
<title>Node29</title>
<g id="a_Node000029"><a xlink:href="classFuncOrder.html#a4551f612b57ed99396fb4f5376c3ec71" target="_top" xlink:title=" ">
<polygon fill="white" stroke="#666666" points="1149.5,-684.73 1062.5,-684.73 1062.5,-665.73 1149.5,-665.73 1149.5,-684.73"/>
<text text-anchor="middle" x="1106" y="-672.73" font-family="Ubuntu Mono" font-size="10.00">FuncOrder::set</text>
</a>
</g>
</g>
<!-- Node19&#45;&gt;Node29 -->
<g id="edge30_Node000019_Node000029" class="edge">
<title>Node19&#45;&gt;Node29</title>
<g id="a_edge30_Node000019_Node000029"><a xlink:title=" ">
<path fill="none" stroke="#63b8ff" d="M973.81,-537.33C984.43,-540.2 994.93,-544.83 1003,-552.23 1039.37,-585.57 1003.02,-623.48 1039,-657.23 1043.06,-661.04 1047.85,-664.05 1052.96,-666.44"/>
<polygon fill="#63b8ff" stroke="#63b8ff" points="1051.83,-669.76 1062.42,-670.1 1054.35,-663.23 1051.83,-669.76"/>
</a>
</g>
</g>
<!-- Node23 -->
<g id="Node000023" class="node">
<title>Node23</title>
<g id="a_Node000023"><a xlink:href="classObjId.html#a1e5933713d6a73550b0923cf63f5bfd8" target="_top" xlink:title=" ">
<polygon fill="white" stroke="#666666" points="1295.5,-536.73 1225.5,-536.73 1225.5,-517.73 1295.5,-517.73 1295.5,-536.73"/>
<text text-anchor="middle" x="1260.5" y="-524.73" font-family="Ubuntu Mono" font-size="10.00">ObjId::data</text>
</a>
</g>
</g>
<!-- Node22&#45;&gt;Node23 -->
<g id="edge24_Node000022_Node000023" class="edge">
<title>Node22&#45;&gt;Node23</title>
<g id="a_edge24_Node000022_Node000023"><a xlink:title=" ">
<path fill="none" stroke="#63b8ff" d="M1145.88,-527.23C1167.06,-527.23 1193.34,-527.23 1215.3,-527.23"/>
<polygon fill="#63b8ff" stroke="#63b8ff" points="1215.37,-530.73 1225.37,-527.23 1215.37,-523.73 1215.37,-530.73"/>
</a>
</g>
</g>
<!-- Node24 -->
<g id="Node000024" class="node">
<title>Node24</title>
<g id="a_Node000024"><a xlink:href="classElement.html#a1978a0a584f1b10ea4a7c67e69880042" target="_top" xlink:title=" ">
<polygon fill="white" stroke="#666666" points="1444.5,-536.73 1359.5,-536.73 1359.5,-517.73 1444.5,-517.73 1444.5,-536.73"/>
<text text-anchor="middle" x="1402" y="-524.73" font-family="Ubuntu Mono" font-size="10.00">Element::data</text>
</a>
</g>
</g>
<!-- Node23&#45;&gt;Node24 -->
<g id="edge25_Node000023_Node000024" class="edge">
<title>Node23&#45;&gt;Node24</title>
<g id="a_edge25_Node000023_Node000024"><a xlink:title=" ">
<path fill="none" stroke="#63b8ff" d="M1295.63,-527.23C1311.75,-527.23 1331.34,-527.23 1349.24,-527.23"/>
<polygon fill="#63b8ff" stroke="#63b8ff" points="1349.26,-530.73 1359.26,-527.23 1349.26,-523.73 1349.26,-530.73"/>
</a>
</g>
</g>
<!-- Node25 -->
<g id="Node000025" class="node">
<title>Node25</title>
<g id="a_Node000025"><a xlink:href="classId.html#a574e06330597163aef0ea4c99de7ff4a" target="_top" xlink:title="Synonym for Id::operator()()">
<polygon fill="white" stroke="#666666" points="1438,-499.73 1366,-499.73 1366,-480.73 1438,-480.73 1438,-499.73"/>
<text text-anchor="middle" x="1402" y="-487.73" font-family="Ubuntu Mono" font-size="10.00">Id::element</text>
</a>
</g>
</g>
<!-- Node23&#45;&gt;Node25 -->
<g id="edge26_Node000023_Node000025" class="edge">
<title>Node23&#45;&gt;Node25</title>
<g id="a_edge26_Node000023_Node000025"><a xlink:title=" ">
<path fill="none" stroke="#63b8ff" d="M1295.63,-518.18C1313.76,-513.37 1336.28,-507.39 1355.85,-502.2"/>
<polygon fill="#63b8ff" stroke="#63b8ff" points="1357,-505.52 1365.77,-499.57 1355.21,-498.75 1357,-505.52"/>
</a>
</g>
</g>
<!-- Node27 -->
<g id="Node000027" class="node">
<title>Node27</title>
<g id="a_Node000027"><a xlink:href="classElement.html#a73a0e468a3d6cfd6475fff4a56459075" target="_top" xlink:title=" ">
<polygon fill="white" stroke="#666666" points="1456,-573.73 1348,-573.73 1348,-554.73 1456,-554.73 1456,-573.73"/>
<text text-anchor="middle" x="1402" y="-561.73" font-family="Ubuntu Mono" font-size="10.00">Element::rawIndex</text>
</a>
</g>
</g>
<!-- Node23&#45;&gt;Node27 -->
<g id="edge28_Node000023_Node000027" class="edge">
<title>Node23&#45;&gt;Node27</title>
<g id="a_edge28_Node000023_Node000027"><a xlink:title=" ">
<path fill="none" stroke="#63b8ff" d="M1295.63,-536.28C1313.48,-541.02 1335.6,-546.88 1354.96,-552.02"/>
<polygon fill="#63b8ff" stroke="#63b8ff" points="1354.23,-555.44 1364.79,-554.62 1356.02,-548.68 1354.23,-555.44"/>
</a>
</g>
</g>
<!-- Node26 -->
<g id="Node000026" class="node">
<title>Node26</title>
<g id="a_Node000026"><a xlink:href="classId.html#a2d5e7b4d5d918aadfe45102691c2be27" target="_top" xlink:title=" ">
<polygon fill="white" stroke="#666666" points="1569,-499.73 1492,-499.73 1492,-480.73 1569,-480.73 1569,-499.73"/>
<text text-anchor="middle" x="1530.5" y="-487.73" font-family="Ubuntu Mono" font-size="10.00">Id::elements</text>
</a>
</g>
</g>
<!-- Node25&#45;&gt;Node26 -->
<g id="edge27_Node000025_Node000026" class="edge">
<title>Node25&#45;&gt;Node26</title>
<g id="a_edge27_Node000025_Node000026"><a xlink:title=" ">
<path fill="none" stroke="#63b8ff" d="M1438.24,-490.23C1451.65,-490.23 1467.17,-490.23 1481.56,-490.23"/>
<polygon fill="#63b8ff" stroke="#63b8ff" points="1481.8,-493.73 1491.8,-490.23 1481.8,-486.73 1481.8,-493.73"/>
</a>
</g>
</g>
<!-- Node30&#45;&gt;Node8 -->
<g id="edge35_Node000030_Node000008" class="edge">
<title>Node30&#45;&gt;Node8</title>
<g id="a_edge35_Node000030_Node000008"><a xlink:title=" ">
<path fill="none" stroke="#63b8ff" d="M991.13,-505.33C995.53,-508.1 999.57,-511.36 1003,-515.23 1056.92,-575.88 983.6,-634.94 1039,-694.23 1045.99,-701.71 1055.77,-706.2 1065.65,-708.85"/>
<polygon fill="#63b8ff" stroke="#63b8ff" points="1064.97,-712.29 1075.48,-710.94 1066.42,-705.44 1064.97,-712.29"/>
</a>
</g>
</g>
<!-- Node30&#45;&gt;Node12 -->
<g id="edge32_Node000030_Node000012" class="edge">
<title>Node30&#45;&gt;Node12</title>
<g id="a_edge32_Node000030_Node000012"><a xlink:title=" ">
<path fill="none" stroke="#63b8ff" d="M989.85,-505.42C994.65,-508.16 999.12,-511.4 1003,-515.23 1038.13,-549.86 1003.02,-586.48 1039,-620.23 1043.06,-624.04 1047.85,-627.05 1052.96,-629.44"/>
<polygon fill="#63b8ff" stroke="#63b8ff" points="1051.83,-632.76 1062.42,-633.1 1054.35,-626.23 1051.83,-632.76"/>
</a>
</g>
</g>
<!-- Node30&#45;&gt;Node17 -->
<g id="edge40_Node000030_Node000017" class="edge">
<title>Node30&#45;&gt;Node17</title>
<g id="a_edge40_Node000030_Node000017"><a xlink:title=" ">
<path fill="none" stroke="#63b8ff" d="M991.62,-505.43C995.85,-508.18 999.72,-511.41 1003,-515.23 1066.44,-589.03 973.75,-659.02 1039,-731.23 1040.23,-732.59 1041.56,-733.86 1042.96,-735.03"/>
<polygon fill="#63b8ff" stroke="#63b8ff" points="1041.43,-738.21 1051.7,-740.78 1045.27,-732.36 1041.43,-738.21"/>
</a>
</g>
</g>
<!-- Node30&#45;&gt;Node18 -->
<g id="edge41_Node000030_Node000018" class="edge">
<title>Node30&#45;&gt;Node18</title>
<g id="a_edge41_Node000030_Node000018"><a xlink:title=" ">
<path fill="none" stroke="#63b8ff" d="M940.7,-475.12C960.76,-454.64 999.36,-418.22 1039,-397.23 1093.82,-368.2 1129.38,-402.33 1173,-358.23 1214.86,-315.91 1168.41,-272.77 1209,-229.23 1209.89,-228.27 1210.84,-227.36 1211.83,-226.51"/>
<polygon fill="#63b8ff" stroke="#63b8ff" points="1213.89,-229.34 1220.19,-220.82 1209.95,-223.55 1213.89,-229.34"/>
</a>
</g>
</g>
<!-- Node30&#45;&gt;Node20 -->
<g id="edge33_Node000030_Node000020" class="edge">
<title>Node30&#45;&gt;Node20</title>
<g id="a_edge33_Node000030_Node000020"><a xlink:title=" ">
<path fill="none" stroke="#63b8ff" d="M981.54,-505.28C988.96,-508.15 996.31,-511.45 1003,-515.23 1021.39,-525.6 1020.36,-536.32 1039,-546.23 1048.03,-551.03 1058.45,-554.64 1068.3,-557.31"/>
<polygon fill="#63b8ff" stroke="#63b8ff" points="1067.74,-560.77 1078.29,-559.77 1069.42,-553.98 1067.74,-560.77"/>
</a>
</g>
</g>
<!-- Node30&#45;&gt;Node21 -->
<g id="edge34_Node000030_Node000021" class="edge">
<title>Node30&#45;&gt;Node21</title>
<g id="a_edge34_Node000030_Node000021"><a xlink:title=" ">
<path fill="none" stroke="#63b8ff" d="M999.1,-475.18C1022.94,-470.24 1048.42,-464.96 1068.41,-460.81"/>
<polygon fill="#63b8ff" stroke="#63b8ff" points="1069.24,-464.21 1078.32,-458.76 1067.82,-457.36 1069.24,-464.21"/>
</a>
</g>
</g>
<!-- Node30&#45;&gt;Node22 -->
<g id="edge36_Node000030_Node000022" class="edge">
<title>Node30&#45;&gt;Node22</title>
<g id="a_edge36_Node000030_Node000022"><a xlink:title=" ">
<path fill="none" stroke="#63b8ff" d="M999.1,-505.28C1018.31,-509.26 1038.58,-513.46 1056.18,-517.11"/>
<polygon fill="#63b8ff" stroke="#63b8ff" points="1055.71,-520.59 1066.21,-519.19 1057.13,-513.73 1055.71,-520.59"/>
</a>
</g>
</g>
<!-- Node30&#45;&gt;Node28 -->
<g id="edge37_Node000030_Node000028" class="edge">
<title>Node30&#45;&gt;Node28</title>
<g id="a_edge37_Node000030_Node000028"><a xlink:title=" ">
<path fill="none" stroke="#63b8ff" d="M987.71,-505.31C993.19,-508.08 998.4,-511.36 1003,-515.23 1029.16,-537.26 1012.3,-561.86 1039,-583.23 1041.43,-585.17 1044.04,-586.9 1046.79,-588.45"/>
<polygon fill="#63b8ff" stroke="#63b8ff" points="1045.39,-591.66 1055.92,-592.78 1048.39,-585.33 1045.39,-591.66"/>
</a>
</g>
</g>
<!-- Node31 -->
<g id="Node000031" class="node">
<title>Node31</title>
<g id="a_Node000031"><a xlink:href="classOpFunc.html#acebf5db12a82f08ca7aed646dfc4a99a" target="_top" xlink:title=" ">
<polygon fill="white" stroke="#666666" points="1170,-499.73 1042,-499.73 1042,-480.73 1170,-480.73 1170,-499.73"/>
<text text-anchor="middle" x="1106" y="-487.73" font-family="Ubuntu Mono" font-size="10.00">OpFunc::makeHopFunc</text>
</a>
</g>
</g>
<!-- Node30&#45;&gt;Node31 -->
<g id="edge38_Node000030_Node000031" class="edge">
<title>Node30&#45;&gt;Node31</title>
<g id="a_edge38_Node000030_Node000031"><a xlink:title=" ">
<path fill="none" stroke="#63b8ff" d="M1002.72,-490.23C1012.32,-490.23 1022.13,-490.23 1031.69,-490.23"/>
<polygon fill="#63b8ff" stroke="#63b8ff" points="1031.94,-493.73 1041.94,-490.23 1031.94,-486.73 1031.94,-493.73"/>
</a>
</g>
</g>
<!-- Node32 -->
<g id="Node000032" class="node">
<title>Node32</title>
<g id="a_Node000032"><a xlink:href="classMsgDigest.html#aed14727a58012c32839433c2ae957aac" target="_top" xlink:title=" ">
<polygon fill="white" stroke="#666666" points="1169,-349.73 1043,-349.73 1043,-330.73 1169,-330.73 1169,-349.73"/>
<text text-anchor="middle" x="1106" y="-337.73" font-family="Ubuntu Mono" font-size="10.00">MsgDigest::MsgDigest</text>
</a>
</g>
</g>
<!-- Node30&#45;&gt;Node32 -->
<g id="edge39_Node000030_Node000032" class="edge">
<title>Node30&#45;&gt;Node32</title>
<g id="a_edge39_Node000030_Node000032"><a xlink:title=" ">
<path fill="none" stroke="#63b8ff" d="M936.43,-474.83C954.08,-448.61 993.35,-395.15 1039,-364.23 1045.18,-360.04 1052.17,-356.49 1059.24,-353.5"/>
<polygon fill="#63b8ff" stroke="#63b8ff" points="1060.8,-356.65 1068.85,-349.77 1058.27,-350.13 1060.8,-356.65"/>
</a>
</g>
</g>
<!-- Node33&#45;&gt;Node10 -->
<g id="edge55_Node000033_Node000010" class="edge">
<title>Node33&#45;&gt;Node10</title>
<g id="a_edge55_Node000033_Node000010"><a xlink:title=" ">
<path fill="none" stroke="#63b8ff" d="M932.44,-275.53C945.81,-253.49 979.01,-197.81 1003,-149.23 1020.98,-112.81 1009.48,-93.13 1039,-65.23 1043.26,-61.2 1048.24,-57.84 1053.53,-55.04"/>
<polygon fill="#63b8ff" stroke="#63b8ff" points="1055.03,-58.21 1062.64,-50.83 1052.09,-51.85 1055.03,-58.21"/>
</a>
</g>
</g>
<!-- Node33&#45;&gt;Node18 -->
<g id="edge59_Node000033_Node000018" class="edge">
<title>Node33&#45;&gt;Node18</title>
<g id="a_edge59_Node000033_Node000018"><a xlink:title=" ">
<path fill="none" stroke="#63b8ff" d="M932.06,-275.43C952.29,-239.93 1021.72,-119.66 1039,-110.23 1091.27,-81.69 1118.9,-85.33 1173,-110.23 1209.87,-127.19 1236.89,-168.48 1250.2,-192.69"/>
<polygon fill="#63b8ff" stroke="#63b8ff" points="1247.15,-194.41 1254.91,-201.61 1253.34,-191.14 1247.15,-194.41"/>
</a>
</g>
</g>
<!-- Node33&#45;&gt;Node20 -->
<g id="edge43_Node000033_Node000020" class="edge">
<title>Node33&#45;&gt;Node20</title>
<g id="a_edge43_Node000033_Node000020"><a xlink:title=" ">
<path fill="none" stroke="#63b8ff" d="M930.53,-294.74C950.33,-341.39 1036.36,-543.94 1039,-546.23 1047.22,-553.37 1058.02,-557.7 1068.5,-560.33"/>
<polygon fill="#63b8ff" stroke="#63b8ff" points="1067.85,-563.77 1078.35,-562.35 1069.26,-556.91 1067.85,-563.77"/>
</a>
</g>
</g>
<!-- Node33&#45;&gt;Node21 -->
<g id="edge44_Node000033_Node000021" class="edge">
<title>Node33&#45;&gt;Node21</title>
<g id="a_edge44_Node000033_Node000021"><a xlink:title=" ">
<path fill="none" stroke="#63b8ff" d="M931.02,-294.95C943.9,-321.54 983.44,-396.04 1039,-434.23 1047.7,-440.21 1058.27,-444.32 1068.38,-447.15"/>
<polygon fill="#63b8ff" stroke="#63b8ff" points="1067.7,-450.59 1078.25,-449.57 1069.37,-443.79 1067.7,-450.59"/>
</a>
</g>
</g>
<!-- Node33&#45;&gt;Node22 -->
<g id="edge53_Node000033_Node000022" class="edge">
<title>Node33&#45;&gt;Node22</title>
<g id="a_edge53_Node000033_Node000022"><a xlink:title=" ">
<path fill="none" stroke="#63b8ff" d="M930.15,-294.94C944.98,-333.96 1001.78,-478.77 1039,-509.23 1044.25,-513.52 1050.44,-516.8 1056.89,-519.29"/>
<polygon fill="#63b8ff" stroke="#63b8ff" points="1055.86,-522.64 1066.45,-522.42 1058.04,-515.99 1055.86,-522.64"/>
</a>
</g>
</g>
<!-- Node33&#45;&gt;Node32 -->
<g id="edge56_Node000033_Node000032" class="edge">
<title>Node33&#45;&gt;Node32</title>
<g id="a_edge56_Node000033_Node000032"><a xlink:title=" ">
<path fill="none" stroke="#63b8ff" d="M955.56,-294.79C978.24,-302.18 1010.55,-312.58 1039,-321.23 1046.22,-323.42 1053.9,-325.69 1061.38,-327.87"/>
<polygon fill="#63b8ff" stroke="#63b8ff" points="1060.45,-331.24 1071.03,-330.66 1062.39,-324.52 1060.45,-331.24"/>
</a>
</g>
</g>
<!-- Node34 -->
<g id="Node000034" class="node">
<title>Node34</title>
<g id="a_Node000034"><a xlink:href="Element_8cpp.html#a57a0a78418a1071569a8d86e7e8b7fc6" target="_top" xlink:title=" ">
<polygon fill="white" stroke="#666666" points="1163,-425.73 1049,-425.73 1049,-406.73 1163,-406.73 1163,-425.73"/>
<text text-anchor="middle" x="1106" y="-413.73" font-family="Ubuntu Mono" font-size="10.00">filterOffNodeTargets</text>
</a>
</g>
</g>
<!-- Node33&#45;&gt;Node34 -->
<g id="edge45_Node000033_Node000034" class="edge">
<title>Node33&#45;&gt;Node34</title>
<g id="a_edge45_Node000033_Node000034"><a xlink:title=" ">
<path fill="none" stroke="#63b8ff" d="M939.63,-294.86C970.19,-317.29 1046.32,-373.17 1083.67,-400.57"/>
<polygon fill="#63b8ff" stroke="#63b8ff" points="1081.72,-403.49 1091.86,-406.58 1085.86,-397.84 1081.72,-403.49"/>
</a>
</g>
</g>
<!-- Node37 -->
<g id="Node000037" class="node">
<title>Node37</title>
<g id="a_Node000037"><a xlink:href="classElement.html#a695b42ddcfcbedf97d74718b92da5020" target="_top" xlink:title="True if there is a copy of every dataEntry on all nodes.">
<polygon fill="white" stroke="#666666" points="1312,-257.73 1209,-257.73 1209,-238.73 1312,-238.73 1312,-257.73"/>
<text text-anchor="middle" x="1260.5" y="-245.73" font-family="Ubuntu Mono" font-size="10.00">Element::isGlobal</text>
</a>
</g>
</g>
<!-- Node33&#45;&gt;Node37 -->
<g id="edge54_Node000033_Node000037" class="edge">
<title>Node33&#45;&gt;Node37</title>
<g id="a_edge54_Node000033_Node000037"><a xlink:title=" ">
<path fill="none" stroke="#63b8ff" d="M930.19,-275.46C941.4,-247.4 978.07,-166.57 1039,-136.23 1092.31,-109.68 1123.87,-102.56 1173,-136.23 1209.56,-161.28 1177.51,-198.04 1209,-229.23 1210.6,-230.81 1212.33,-232.26 1214.18,-233.59"/>
<polygon fill="#63b8ff" stroke="#63b8ff" points="1212.4,-236.61 1222.79,-238.7 1215.97,-230.59 1212.4,-236.61"/>
</a>
</g>
</g>
<!-- Node38 -->
<g id="Node000038" class="node">
<title>Node38</title>
<g id="a_Node000038"><a xlink:href="classFuncOrder.html#ac395ecf9872fda11b5636dcec9d6652e" target="_top" xlink:title=" ">
<polygon fill="white" stroke="#666666" points="1152.5,-312.73 1059.5,-312.73 1059.5,-293.73 1152.5,-293.73 1152.5,-312.73"/>
<text text-anchor="middle" x="1106" y="-300.73" font-family="Ubuntu Mono" font-size="10.00">FuncOrder::func</text>
</a>
</g>
</g>
<!-- Node33&#45;&gt;Node38 -->
<g id="edge52_Node000033_Node000038" class="edge">
<title>Node33&#45;&gt;Node38</title>
<g id="a_edge52_Node000033_Node000038"><a xlink:title=" ">
<path fill="none" stroke="#63b8ff" d="M1003.24,-292.97C1018.6,-294.52 1034.46,-296.12 1048.96,-297.58"/>
<polygon fill="#63b8ff" stroke="#63b8ff" points="1048.95,-301.09 1059.25,-298.61 1049.65,-294.13 1048.95,-301.09"/>
</a>
</g>
</g>
<!-- Node39 -->
<g id="Node000039" class="node">
<title>Node39</title>
<g id="a_Node000039"><a xlink:href="classShell.html#a4c3608b6ca5fcec63a13b12c49b9d530" target="_top" xlink:title=" ">
<polygon fill="white" stroke="#666666" points="1150,-275.73 1062,-275.73 1062,-256.73 1150,-256.73 1150,-275.73"/>
<text text-anchor="middle" x="1106" y="-263.73" font-family="Ubuntu Mono" font-size="10.00">Shell::myNode</text>
</a>
</g>
</g>
<!-- Node33&#45;&gt;Node39 -->
<g id="edge57_Node000033_Node000039" class="edge">
<title>Node33&#45;&gt;Node39</title>
<g id="a_edge57_Node000033_Node000039"><a xlink:title=" ">
<path fill="none" stroke="#63b8ff" d="M1003.24,-277.06C1019.51,-275.33 1036.35,-273.54 1051.54,-271.92"/>
<polygon fill="#63b8ff" stroke="#63b8ff" points="1052.19,-275.37 1061.76,-270.83 1051.45,-268.41 1052.19,-275.37"/>
</a>
</g>
</g>
<!-- Node40 -->
<g id="Node000040" class="node">
<title>Node40</title>
<g id="a_Node000040"><a xlink:href="classElement.html#abee6d5e3b26374c8c196c6065543706d" target="_top" xlink:title="Returns number of local data entries on this node.">
<polygon fill="white" stroke="#666666" points="1173,-238.73 1039,-238.73 1039,-219.73 1173,-219.73 1173,-238.73"/>
<text text-anchor="middle" x="1106" y="-226.73" font-family="Ubuntu Mono" font-size="10.00">Element::numLocalData</text>
</a>
</g>
</g>
<!-- Node33&#45;&gt;Node40 -->
<g id="edge58_Node000033_Node000040" class="edge">
<title>Node33&#45;&gt;Node40</title>
<g id="a_edge58_Node000033_Node000040"><a xlink:title=" ">
<path fill="none" stroke="#63b8ff" d="M953.18,-275.72C975.88,-267.74 1009.42,-256.25 1039,-247.23 1045.41,-245.27 1052.2,-243.31 1058.9,-241.43"/>
<polygon fill="#63b8ff" stroke="#63b8ff" points="1059.87,-244.79 1068.58,-238.75 1058.01,-238.04 1059.87,-244.79"/>
</a>
</g>
</g>
<!-- Node41 -->
<g id="Node000041" class="node">
<title>Node41</title>
<g id="a_Node000041"><a xlink:href="classMsg.html#a75bb9c90ff83027b60f24b1d8304128e" target="_top" xlink:title=" ">
<polygon fill="white" stroke="#666666" points="1146,-201.73 1066,-201.73 1066,-182.73 1146,-182.73 1146,-201.73"/>
<text text-anchor="middle" x="1106" y="-189.73" font-family="Ubuntu Mono" font-size="10.00">Msg::sources</text>
</a>
</g>
</g>
<!-- Node33&#45;&gt;Node41 -->
<g id="edge60_Node000033_Node000041" class="edge">
<title>Node33&#45;&gt;Node41</title>
<g id="a_edge60_Node000033_Node000041"><a xlink:title=" ">
<path fill="none" stroke="#63b8ff" d="M938.22,-275.53C957.88,-259.71 999.26,-228.32 1039,-210.23 1044.4,-207.77 1050.21,-205.59 1056.06,-203.66"/>
<polygon fill="#63b8ff" stroke="#63b8ff" points="1057.33,-206.93 1065.88,-200.67 1055.29,-200.24 1057.33,-206.93"/>
</a>
</g>
</g>
<!-- Node42 -->
<g id="Node000042" class="node">
<title>Node42</title>
<g id="a_Node000042"><a xlink:href="classMsg.html#a24399903558da20171f6bd8e317c6c38" target="_top" xlink:title=" ">
<polygon fill="white" stroke="#666666" points="1144.5,-164.73 1067.5,-164.73 1067.5,-145.73 1144.5,-145.73 1144.5,-164.73"/>
<text text-anchor="middle" x="1106" y="-152.73" font-family="Ubuntu Mono" font-size="10.00">Msg::targets</text>
</a>
</g>
</g>
<!-- Node33&#45;&gt;Node42 -->
<g id="edge61_Node000033_Node000042" class="edge">
<title>Node33&#45;&gt;Node42</title>
<g id="a_edge61_Node000033_Node000042"><a xlink:title=" ">
<path fill="none" stroke="#63b8ff" d="M933.45,-275.46C949.46,-253.67 991.3,-200.84 1039,-173.23 1044.8,-169.87 1051.25,-167.12 1057.78,-164.87"/>
<polygon fill="#63b8ff" stroke="#63b8ff" points="1058.82,-168.21 1067.35,-161.92 1056.76,-161.52 1058.82,-168.21"/>
</a>
</g>
</g>
<!-- Node34&#45;&gt;Node6 -->
<g id="edge46_Node000034_Node000006" class="edge">
<title>Node34&#45;&gt;Node6</title>
<g id="a_edge46_Node000034_Node000006"><a xlink:title=" ">
<path fill="none" stroke="#63b8ff" d="M1162.6,-425.77C1166.48,-428.05 1170.02,-430.83 1173,-434.23 1251.35,-523.6 1167.38,-587.89 1209,-699.23 1217.33,-721.51 1233.04,-743.9 1244.73,-758.75"/>
<polygon fill="#63b8ff" stroke="#63b8ff" points="1242.05,-761 1251.07,-766.56 1247.49,-756.59 1242.05,-761"/>
</a>
</g>
</g>
<!-- Node34&#45;&gt;Node7 -->
<g id="edge47_Node000034_Node000007" class="edge">
<title>Node34&#45;&gt;Node7</title>
<g id="a_edge47_Node000034_Node000007"><a xlink:title=" ">
<path fill="none" stroke="#63b8ff" d="M1161.02,-425.87C1165.4,-428.11 1169.48,-430.86 1173,-434.23 1210.79,-470.36 1191.78,-496.86 1209,-546.23 1223.4,-587.49 1241.83,-635.27 1251.97,-661.16"/>
<polygon fill="#63b8ff" stroke="#63b8ff" points="1248.74,-662.51 1255.66,-670.54 1255.26,-659.95 1248.74,-662.51"/>
</a>
</g>
</g>
<!-- Node34&#45;&gt;Node18 -->
<g id="edge51_Node000034_Node000018" class="edge">
<title>Node34&#45;&gt;Node18</title>
<g id="a_edge51_Node000034_Node000018"><a xlink:title=" ">
<path fill="none" stroke="#63b8ff" d="M1152.32,-406.65C1160.1,-403.21 1167.45,-398.55 1173,-392.23 1221.9,-336.44 1159.92,-284.86 1209,-229.23 1209.74,-228.39 1210.52,-227.59 1211.34,-226.83"/>
<polygon fill="#63b8ff" stroke="#63b8ff" points="1213.45,-229.62 1219.51,-220.93 1209.36,-223.94 1213.45,-229.62"/>
</a>
</g>
</g>
<!-- Node35 -->
<g id="Node000035" class="node">
<title>Node35</title>
<g id="a_Node000035"><a xlink:href="classEref.html#a5dee1e5d3e0a76726286eccbb0ffda24" target="_top" xlink:title=" ">
<polygon fill="white" stroke="#666666" points="1302,-425.73 1219,-425.73 1219,-406.73 1302,-406.73 1302,-425.73"/>
<text text-anchor="middle" x="1260.5" y="-413.73" font-family="Ubuntu Mono" font-size="10.00">Eref::getNode</text>
</a>
</g>
</g>
<!-- Node34&#45;&gt;Node35 -->
<g id="edge48_Node000034_Node000035" class="edge">
<title>Node34&#45;&gt;Node35</title>
<g id="a_edge48_Node000034_Node000035"><a xlink:title=" ">
<path fill="none" stroke="#63b8ff" d="M1163.35,-416.23C1178.1,-416.23 1193.91,-416.23 1208.37,-416.23"/>
<polygon fill="#63b8ff" stroke="#63b8ff" points="1208.63,-419.73 1218.63,-416.23 1208.63,-412.73 1208.63,-419.73"/>
</a>
</g>
</g>
<!-- Node34&#45;&gt;Node37 -->
<g id="edge50_Node000034_Node000037" class="edge">
<title>Node34&#45;&gt;Node37</title>
<g id="a_edge50_Node000034_Node000037"><a xlink:title=" ">
<path fill="none" stroke="#63b8ff" d="M1146.68,-406.72C1155.97,-403.22 1165.38,-398.51 1173,-392.23 1214.67,-357.88 1241.32,-297.88 1252.87,-267.31"/>
<polygon fill="#63b8ff" stroke="#63b8ff" points="1256.19,-268.41 1256.33,-257.82 1249.62,-266.02 1256.19,-268.41"/>
</a>
</g>
</g>
<!-- Node36 -->
<g id="Node000036" class="node">
<title>Node36</title>
<g id="a_Node000036"><a xlink:href="classElement.html#a6350d721871c508fbf68286a3907e4a1" target="_top" xlink:title="Returns node number of specified dataIndex.">
<polygon fill="white" stroke="#666666" points="1454,-425.73 1350,-425.73 1350,-406.73 1454,-406.73 1454,-425.73"/>
<text text-anchor="middle" x="1402" y="-413.73" font-family="Ubuntu Mono" font-size="10.00">Element::getNode</text>
</a>
</g>
</g>
<!-- Node35&#45;&gt;Node36 -->
<g id="edge49_Node000035_Node000036" class="edge">
<title>Node35&#45;&gt;Node36</title>
<g id="a_edge49_Node000035_Node000036"><a xlink:title=" ">
<path fill="none" stroke="#63b8ff" d="M1302.22,-416.23C1313.96,-416.23 1327.04,-416.23 1339.73,-416.23"/>
<polygon fill="#63b8ff" stroke="#63b8ff" points="1339.8,-419.73 1349.8,-416.23 1339.8,-412.73 1339.8,-419.73"/>
</a>
</g>
</g>
</g>
</svg>
