<?xml version="1.0" encoding="UTF-8" standalone="no"?>
<!DOCTYPE svg PUBLIC "-//W3C//DTD SVG 1.1//EN"
 "http://www.w3.org/Graphics/SVG/1.1/DTD/svg11.dtd">
<!-- Generated by graphviz version 2.43.0 (0)
 -->
<!-- Title: HHChannelF::vCreateGate Pages: 1 -->
<!--zoomable 682 -->

<svg id="main" version="1.1" xmlns="http://www.w3.org/2000/svg" xmlns:xlink="http://www.w3.org/1999/xlink" xml:space="preserve" onload="init(evt)">
<style type="text/css"><![CDATA[
.node, .edge {opacity: 0.7;}
.node.selected, .edge.selected {opacity: 1;}
.edge:hover path { stroke: red; }
.edge:hover polygon { stroke: red; fill: red; }
]]></style>

<defs>
  <circle id="rim" cx="0" cy="0" r="7"/>
  <circle id="rim2" cx="0" cy="0" r="3.5"/>
  <g id="zoomPlus">
    <use xlink:href="#rim" fill="#404040"><set attributeName="fill" to="#808080" begin="zoomplus.mouseover" end="zoomplus.mouseout"/></use>
    <path d="M-4,0h8M0,-4v8" fill="none" stroke="white" stroke-width="1.5" pointer-events="none"/>
  </g>
  <g id="zoomMin">
    <use xlink:href="#rim" fill="#404040"><set attributeName="fill" to="#808080" begin="zoomminus.mouseover" end="zoomminus.mouseout"/></use>
    <path d="M-4,0h8" fill="none" stroke="white" stroke-width="1.5" pointer-events="none"/>
  </g>
  <g id="arrowUp" transform="translate(30 24)">
    <use xlink:href="#rim"/>
    <path pointer-events="none" fill="none" stroke="white" stroke-width="1.5" d="M0,-3.0v7 M-2.5,-0.5L0,-3.0L2.5,-0.5"/>
  </g>
  <g id="arrowRight" transform="rotate(90) translate(36 -43)">
    <use xlink:href="#rim"/>
    <path pointer-events="none" fill="none" stroke="white" stroke-width="1.5" d="M0,-3.0v7 M-2.5,-0.5L0,-3.0L2.5,-0.5"/>
  </g>
  <g id="arrowDown" transform="rotate(180) translate(-30 -48)">
    <use xlink:href="#rim"/>
    <path pointer-events="none" fill="none" stroke="white" stroke-width="1.5" d="M0,-3.0v7 M-2.5,-0.5L0,-3.0L2.5,-0.5"/>
  </g>
  <g id="arrowLeft" transform="rotate(270) translate(-36 17)">
    <use xlink:href="#rim"/>
    <path pointer-events="none" fill="none" stroke="white" stroke-width="1.5" d="M0,-3.0v7 M-2.5,-0.5L0,-3.0L2.5,-0.5"/>
  </g>
  <g id="resetDef">
    <use xlink:href="#rim2" fill="#404040"><set attributeName="fill" to="#808080" begin="reset.mouseover" end="reset.mouseout"/></use>
  </g>
</defs>
<script type="application/ecmascript">
var viewWidth = 1487;
var viewHeight = 682;
var sectionId = 'dynsection-10';
</script>
<script type="application/ecmascript" xlink:href="svg.min.js"/>
<svg id="graph" class="graph">
<g id="viewport">
<title>HHChannelF::vCreateGate</title>
<!-- Node1 -->
<g id="Node000001" class="node">
<title>Node1</title>
<g id="a_Node000001"><a xlink:title=" ">
<polygon fill="#999999" stroke="#666666" points="144,-373 0,-373 0,-354 144,-354 144,-373"/>
<text text-anchor="middle" x="72" y="-361" font-family="Ubuntu Mono" font-size="10.00">HHChannelF::vCreateGate</text>
</a>
</g>
</g>
<!-- Node2 -->
<g id="Node000002" class="node">
<title>Node2</title>
<g id="a_Node000002"><a xlink:href="classHHChannelF.html#ac413e239ddce71cc8da2b84fb2f19bac" target="_top" xlink:title="Returns true if channel is original, false if copy.">
<polygon fill="white" stroke="#666666" points="336,-552 187,-552 187,-533 336,-533 336,-552"/>
<text text-anchor="middle" x="261.5" y="-540" font-family="Ubuntu Mono" font-size="10.00">HHChannelF::checkOriginal</text>
</a>
</g>
</g>
<!-- Node1&#45;&gt;Node2 -->
<g id="edge1_Node000001_Node000002" class="edge">
<title>Node1&#45;&gt;Node2</title>
<g id="a_edge1_Node000001_Node000002"><a xlink:title=" ">
<path fill="none" stroke="#63b8ff" d="M83.08,-373.12C113.48,-402.14 204.49,-489.03 242.99,-525.78"/>
<polygon fill="#63b8ff" stroke="#63b8ff" points="240.72,-528.45 250.37,-532.83 245.55,-523.39 240.72,-528.45"/>
</a>
</g>
</g>
<!-- Node5 -->
<g id="Node000005" class="node">
<title>Node5</title>
<g id="a_Node000005"><a xlink:href="classEref.html#aa96699f886e00b8eb3759c71cc8747bb" target="_top" xlink:title=" ">
<polygon fill="white" stroke="#666666" points="684.5,-486 634.5,-486 634.5,-467 684.5,-467 684.5,-486"/>
<text text-anchor="middle" x="659.5" y="-474" font-family="Ubuntu Mono" font-size="10.00">Eref::id</text>
</a>
</g>
</g>
<!-- Node1&#45;&gt;Node5 -->
<g id="edge4_Node000001_Node000005" class="edge">
<title>Node1&#45;&gt;Node5</title>
<g id="a_edge4_Node000001_Node000005"><a xlink:title=" ">
<path fill="none" stroke="#63b8ff" d="M122.41,-373.04C238.26,-395.39 525.02,-450.74 624.14,-469.87"/>
<polygon fill="#63b8ff" stroke="#63b8ff" points="623.73,-473.35 634.21,-471.81 625.06,-466.48 623.73,-473.35"/>
</a>
</g>
</g>
<!-- Node7 -->
<g id="Node000007" class="node">
<title>Node7</title>
<g id="a_Node000007"><a xlink:href="classId.html#a93dba2b91874b368b751a73a035523e0" target="_top" xlink:title=" ">
<polygon fill="white" stroke="#666666" points="282,-317 241,-317 241,-298 282,-298 282,-317"/>
<text text-anchor="middle" x="261.5" y="-305" font-family="Ubuntu Mono" font-size="10.00">Id::Id</text>
</a>
</g>
</g>
<!-- Node1&#45;&gt;Node7 -->
<g id="edge6_Node000001_Node000007" class="edge">
<title>Node1&#45;&gt;Node7</title>
<g id="a_edge6_Node000001_Node000007"><a xlink:title=" ">
<path fill="none" stroke="#63b8ff" d="M97.37,-353.89C118.88,-345.64 151.21,-333.8 180,-325.5 196.66,-320.7 215.56,-316.41 230.87,-313.23"/>
<polygon fill="#63b8ff" stroke="#63b8ff" points="231.71,-316.63 240.81,-311.21 230.32,-309.77 231.71,-316.63"/>
</a>
</g>
</g>
<!-- Node8 -->
<g id="Node000008" class="node">
<title>Node8</title>
<g id="a_Node000008"><a xlink:href="classHHChannelF.html#a4fbf2880bf8db9b9ad5a09bd8ccaed00" target="_top" xlink:title="Inner utility function for creating the gate.">
<polygon fill="white" stroke="#666666" points="343,-354 180,-354 180,-335 343,-335 343,-354"/>
<text text-anchor="middle" x="261.5" y="-342" font-family="Ubuntu Mono" font-size="10.00">HHChannelF::innerCreateGate</text>
</a>
</g>
</g>
<!-- Node1&#45;&gt;Node8 -->
<g id="edge7_Node000001_Node000008" class="edge">
<title>Node1&#45;&gt;Node8</title>
<g id="a_edge7_Node000001_Node000008"><a xlink:title=" ">
<path fill="none" stroke="#63b8ff" d="M144.15,-356.29C152.57,-355.44 161.24,-354.56 169.88,-353.68"/>
<polygon fill="#63b8ff" stroke="#63b8ff" points="170.39,-357.15 179.98,-352.66 169.68,-350.19 170.39,-357.15"/>
</a>
</g>
</g>
<!-- Node11 -->
<g id="Node000011" class="node">
<title>Node11</title>
<g id="a_Node000011"><a xlink:href="classId.html#ad0984685af5a98bc7aa429b03a97bd01" target="_top" xlink:title=" ">
<polygon fill="white" stroke="#666666" points="491,-354 438,-354 438,-335 491,-335 491,-354"/>
<text text-anchor="middle" x="464.5" y="-342" font-family="Ubuntu Mono" font-size="10.00">Id::path</text>
</a>
</g>
</g>
<!-- Node1&#45;&gt;Node11 -->
<g id="edge50_Node000001_Node000011" class="edge">
<title>Node1&#45;&gt;Node11</title>
<g id="a_edge50_Node000001_Node000011"><a xlink:title=" ">
<path fill="none" stroke="#63b8ff" d="M144.17,-366.04C198.68,-367.3 275.69,-367.62 343,-362.5 371.66,-360.32 403.85,-355.38 427.74,-351.23"/>
<polygon fill="#63b8ff" stroke="#63b8ff" points="428.53,-354.64 437.77,-349.45 427.31,-347.75 428.53,-354.64"/>
</a>
</g>
</g>
<!-- Node42 -->
<g id="Node000042" class="node">
<title>Node42</title>
<g id="a_Node000042"><a xlink:href="classId.html#a123c4b585336d50834324026daed286e" target="_top" xlink:title=" ">
<polygon fill="white" stroke="#666666" points="291,-280 232,-280 232,-261 291,-261 291,-280"/>
<text text-anchor="middle" x="261.5" y="-268" font-family="Ubuntu Mono" font-size="10.00">Id::value</text>
</a>
</g>
</g>
<!-- Node1&#45;&gt;Node42 -->
<g id="edge51_Node000001_Node000042" class="edge">
<title>Node1&#45;&gt;Node42</title>
<g id="a_edge51_Node000001_Node000042"><a xlink:title=" ">
<path fill="none" stroke="#63b8ff" d="M83.67,-353.82C101.99,-337.75 141.19,-305.63 180,-288.5 193.05,-282.74 208.13,-278.74 221.69,-276"/>
<polygon fill="#63b8ff" stroke="#63b8ff" points="222.51,-279.4 231.7,-274.14 221.23,-272.52 222.51,-279.4"/>
</a>
</g>
</g>
<!-- Node3 -->
<g id="Node000003" class="node">
<title>Node3</title>
<g id="a_Node000003"><a xlink:href="classHHGateBase.html#a788b4f944d7e8da7965b65824a7eff10" target="_top" xlink:title=" ">
<polygon fill="white" stroke="#666666" points="550,-608 379,-608 379,-589 550,-589 550,-608"/>
<text text-anchor="middle" x="464.5" y="-596" font-family="Ubuntu Mono" font-size="10.00">HHGateBase::isOriginalChannel</text>
</a>
</g>
</g>
<!-- Node2&#45;&gt;Node3 -->
<g id="edge2_Node000002_Node000003" class="edge">
<title>Node2&#45;&gt;Node3</title>
<g id="a_edge2_Node000002_Node000003"><a xlink:title=" ">
<path fill="none" stroke="#63b8ff" d="M297.05,-552.13C330.91,-561.56 382.65,-575.97 419.44,-586.23"/>
<polygon fill="#63b8ff" stroke="#63b8ff" points="418.83,-589.69 429.4,-589 420.7,-582.94 418.83,-589.69"/>
</a>
</g>
</g>
<!-- Node4 -->
<g id="Node000004" class="node">
<title>Node4</title>
<g id="a_Node000004"><a xlink:href="classId.html#a38206d79367649ab0056b93e6da3b789" target="_top" xlink:title=" ">
<polygon fill="white" stroke="#666666" points="1050.5,-674 961.5,-674 961.5,-655 1050.5,-655 1050.5,-674"/>
<text text-anchor="middle" x="1006" y="-662" font-family="Ubuntu Mono" font-size="10.00">Id::operator==</text>
</a>
</g>
</g>
<!-- Node3&#45;&gt;Node4 -->
<g id="edge3_Node000003_Node000004" class="edge">
<title>Node3&#45;&gt;Node4</title>
<g id="a_edge3_Node000003_Node000004"><a xlink:title=" ">
<path fill="none" stroke="#63b8ff" d="M498.35,-608.08C553.63,-623.64 669.01,-653.75 769,-664.5 831.24,-671.19 903.25,-669.89 951.2,-667.76"/>
<polygon fill="#63b8ff" stroke="#63b8ff" points="951.53,-671.25 961.35,-667.28 951.2,-664.26 951.53,-671.25"/>
</a>
</g>
</g>
<!-- Node6 -->
<g id="Node000006" class="node">
<title>Node6</title>
<g id="a_Node000006"><a xlink:href="classElement.html#a934907c01faf58e21f545d53a54cfefc" target="_top" xlink:title=" ">
<polygon fill="white" stroke="#666666" points="1042,-505 970,-505 970,-486 1042,-486 1042,-505"/>
<text text-anchor="middle" x="1006" y="-493" font-family="Ubuntu Mono" font-size="10.00">Element::id</text>
</a>
</g>
</g>
<!-- Node5&#45;&gt;Node6 -->
<g id="edge5_Node000005_Node000006" class="edge">
<title>Node5&#45;&gt;Node6</title>
<g id="a_edge5_Node000005_Node000006"><a xlink:title=" ">
<path fill="none" stroke="#63b8ff" d="M682.42,-486.09C703.97,-494.96 738.04,-507.5 769,-512.5 834.93,-523.15 912.3,-513.42 959.99,-504.9"/>
<polygon fill="#63b8ff" stroke="#63b8ff" points="960.79,-508.31 969.99,-503.05 959.52,-501.42 960.79,-508.31"/>
</a>
</g>
</g>
<!-- Node9 -->
<g id="Node000009" class="node">
<title>Node9</title>
<g id="a_Node000009"><a xlink:href="classHHGateF.html#a27c42d36672cf99c8ac6c69b0b3930d8" target="_top" xlink:title=" ">
<polygon fill="white" stroke="#666666" points="519.5,-298 409.5,-298 409.5,-279 519.5,-279 519.5,-298"/>
<text text-anchor="middle" x="464.5" y="-286" font-family="Ubuntu Mono" font-size="10.00">HHGateF::HHGateF</text>
</a>
</g>
</g>
<!-- Node8&#45;&gt;Node9 -->
<g id="edge8_Node000008_Node000009" class="edge">
<title>Node8&#45;&gt;Node9</title>
<g id="a_edge8_Node000008_Node000009"><a xlink:title=" ">
<path fill="none" stroke="#63b8ff" d="M305.25,-334.97C317.48,-332.09 330.8,-328.81 343,-325.5 370.54,-318.03 401.28,-308.57 424.82,-301.09"/>
<polygon fill="#63b8ff" stroke="#63b8ff" points="425.98,-304.39 434.44,-298.01 423.85,-297.73 425.98,-304.39"/>
</a>
</g>
</g>
<!-- Node8&#45;&gt;Node11 -->
<g id="edge10_Node000008_Node000011" class="edge">
<title>Node8&#45;&gt;Node11</title>
<g id="a_edge10_Node000008_Node000011"><a xlink:title=" ">
<path fill="none" stroke="#63b8ff" d="M343.1,-344.5C372.46,-344.5 404.18,-344.5 427.69,-344.5"/>
<polygon fill="#63b8ff" stroke="#63b8ff" points="427.87,-348 437.87,-344.5 427.87,-341 427.87,-348"/>
</a>
</g>
</g>
<!-- Node10 -->
<g id="Node000010" class="node">
<title>Node10</title>
<g id="a_Node000010"><a xlink:href="classHHGateBase.html#a660b38c0b79b16104afe4524a2ff92ec" target="_top" xlink:title=" ">
<polygon fill="white" stroke="#666666" points="733,-278 586,-278 586,-259 733,-259 733,-278"/>
<text text-anchor="middle" x="659.5" y="-266" font-family="Ubuntu Mono" font-size="10.00">HHGateBase::HHGateBase</text>
</a>
</g>
</g>
<!-- Node9&#45;&gt;Node10 -->
<g id="edge9_Node000009_Node000010" class="edge">
<title>Node9&#45;&gt;Node10</title>
<g id="a_edge9_Node000009_Node000010"><a xlink:title=" ">
<path fill="none" stroke="#63b8ff" d="M519.52,-282.9C536.91,-281.1 556.6,-279.06 575.58,-277.09"/>
<polygon fill="#63b8ff" stroke="#63b8ff" points="576.14,-280.55 585.73,-276.04 575.42,-273.59 576.14,-280.55"/>
</a>
</g>
</g>
<!-- Node12 -->
<g id="Node000012" class="node">
<title>Node12</title>
<g id="a_Node000012"><a xlink:href="classId.html#adac7a40d04024a7b9dcb7eae7b9fdf9b" target="_top" xlink:title=" ">
<polygon fill="white" stroke="#666666" points="849.5,-19 798.5,-19 798.5,0 849.5,0 849.5,-19"/>
<text text-anchor="middle" x="824" y="-7" font-family="Ubuntu Mono" font-size="10.00">Id::eref</text>
</a>
</g>
</g>
<!-- Node11&#45;&gt;Node12 -->
<g id="edge11_Node000011_Node000012" class="edge">
<title>Node11&#45;&gt;Node12</title>
<g id="a_edge11_Node000011_Node000012"><a xlink:title=" ">
<path fill="none" stroke="#63b8ff" d="M491.15,-340.64C554.87,-330.81 716.44,-304.36 733,-286.5 812.02,-201.28 694.7,-116.87 769,-27.5 773.95,-21.54 780.93,-17.55 788.24,-14.87"/>
<polygon fill="#63b8ff" stroke="#63b8ff" points="789.6,-18.12 798.24,-11.97 787.66,-11.39 789.6,-18.12"/>
</a>
</g>
</g>
<!-- Node15 -->
<g id="Node000015" class="node">
<title>Node15</title>
<g id="a_Node000015"><a xlink:href="classNeutral.html#a93bee6d27f95c8c4c7eb3640cd883a98" target="_top" xlink:title=" ">
<polygon fill="white" stroke="#666666" points="699.5,-354 619.5,-354 619.5,-335 699.5,-335 699.5,-354"/>
<text text-anchor="middle" x="659.5" y="-342" font-family="Ubuntu Mono" font-size="10.00">Neutral::path</text>
</a>
</g>
</g>
<!-- Node11&#45;&gt;Node15 -->
<g id="edge14_Node000011_Node000015" class="edge">
<title>Node11&#45;&gt;Node15</title>
<g id="a_edge14_Node000011_Node000015"><a xlink:title=" ">
<path fill="none" stroke="#63b8ff" d="M491.13,-344.5C521.12,-344.5 571.47,-344.5 609.13,-344.5"/>
<polygon fill="#63b8ff" stroke="#63b8ff" points="609.39,-348 619.39,-344.5 609.39,-341 609.39,-348"/>
</a>
</g>
</g>
<!-- Node13 -->
<g id="Node000013" class="node">
<title>Node13</title>
<g id="a_Node000013"><a xlink:href="classId.html#a2d5e7b4d5d918aadfe45102691c2be27" target="_top" xlink:title=" ">
<polygon fill="white" stroke="#666666" points="1479,-94 1402,-94 1402,-75 1479,-75 1479,-94"/>
<text text-anchor="middle" x="1440.5" y="-82" font-family="Ubuntu Mono" font-size="10.00">Id::elements</text>
</a>
</g>
</g>
<!-- Node12&#45;&gt;Node13 -->
<g id="edge12_Node000012_Node000013" class="edge">
<title>Node12&#45;&gt;Node13</title>
<g id="a_edge12_Node000012_Node000013"><a xlink:title=" ">
<path fill="none" stroke="#63b8ff" d="M849.72,-10.74C926.69,-14.87 1168.75,-30 1366,-65.5 1376.12,-67.32 1386.89,-69.8 1396.99,-72.36"/>
<polygon fill="#63b8ff" stroke="#63b8ff" points="1396.24,-75.78 1406.8,-74.93 1398.02,-69.01 1396.24,-75.78"/>
</a>
</g>
</g>
<!-- Node14 -->
<g id="Node000014" class="node">
<title>Node14</title>
<g id="a_Node000014"><a xlink:href="classEref.html#a3addb850bc6cbac7771a07de219d909d" target="_top" xlink:title=" ">
<polygon fill="white" stroke="#666666" points="1036.5,-103 975.5,-103 975.5,-84 1036.5,-84 1036.5,-103"/>
<text text-anchor="middle" x="1006" y="-91" font-family="Ubuntu Mono" font-size="10.00">Eref::Eref</text>
</a>
</g>
</g>
<!-- Node12&#45;&gt;Node14 -->
<g id="edge13_Node000012_Node000014" class="edge">
<title>Node12&#45;&gt;Node14</title>
<g id="a_edge13_Node000012_Node000014"><a xlink:title=" ">
<path fill="none" stroke="#63b8ff" d="M849.5,-16.75C858.86,-19.75 869.54,-23.48 879,-27.5 915.07,-42.84 954.85,-64.53 979.87,-78.8"/>
<polygon fill="#63b8ff" stroke="#63b8ff" points="978.29,-81.92 988.7,-83.87 981.78,-75.86 978.29,-81.92"/>
</a>
</g>
</g>
<!-- Node16 -->
<g id="Node000016" class="node">
<title>Node16</title>
<g id="a_Node000016"><a xlink:href="classEref.html#a47b59ab86165cceb0bde80c76c3f7fa2" target="_top" xlink:title=" ">
<polygon fill="white" stroke="#666666" points="865,-467 783,-467 783,-448 865,-448 865,-467"/>
<text text-anchor="middle" x="824" y="-455" font-family="Ubuntu Mono" font-size="10.00">Eref::element</text>
</a>
</g>
</g>
<!-- Node15&#45;&gt;Node16 -->
<g id="edge15_Node000015_Node000016" class="edge">
<title>Node15&#45;&gt;Node16</title>
<g id="a_edge15_Node000015_Node000016"><a xlink:title=" ">
<path fill="none" stroke="#63b8ff" d="M669.15,-354.1C686.44,-372.76 727.19,-414.22 769,-438.5 772.48,-440.52 776.21,-442.38 780.02,-444.07"/>
<polygon fill="#63b8ff" stroke="#63b8ff" points="778.99,-447.43 789.57,-447.94 781.62,-440.94 778.99,-447.43"/>
</a>
</g>
</g>
<!-- Node17 -->
<g id="Node000017" class="node">
<title>Node17</title>
<g id="a_Node000017"><a xlink:href="classObjId.html#ad87d6d712e4bceb381d1d324aa137d6e" target="_top" xlink:title=" ">
<polygon fill="white" stroke="#666666" points="1222,-336 1133,-336 1133,-317 1222,-317 1222,-336"/>
<text text-anchor="middle" x="1177.5" y="-324" font-family="Ubuntu Mono" font-size="10.00">ObjId::element</text>
</a>
</g>
</g>
<!-- Node15&#45;&gt;Node17 -->
<g id="edge16_Node000015_Node000017" class="edge">
<title>Node15&#45;&gt;Node17</title>
<g id="a_edge16_Node000015_Node000017"><a xlink:title=" ">
<path fill="none" stroke="#63b8ff" d="M699.6,-352.62C776.66,-367.2 953.17,-393.55 1097,-362.5 1116.38,-358.32 1136.72,-349.01 1151.97,-340.9"/>
<polygon fill="#63b8ff" stroke="#63b8ff" points="1153.68,-343.95 1160.76,-336.07 1150.31,-337.82 1153.68,-343.95"/>
</a>
</g>
</g>
<!-- Node19 -->
<g id="Node000019" class="node">
<title>Node19</title>
<g id="a_Node000019"><a xlink:href="classObjId.html#a76a3d4b89944235a24eff983030a5e91" target="_top" xlink:title=" ">
<polygon fill="white" stroke="#666666" points="858,-278 790,-278 790,-259 858,-259 858,-278"/>
<text text-anchor="middle" x="824" y="-266" font-family="Ubuntu Mono" font-size="10.00">ObjId::eref</text>
</a>
</g>
</g>
<!-- Node15&#45;&gt;Node19 -->
<g id="edge19_Node000015_Node000019" class="edge">
<title>Node15&#45;&gt;Node19</title>
<g id="a_edge19_Node000015_Node000019"><a xlink:title=" ">
<path fill="none" stroke="#63b8ff" d="M697.65,-334.88C709.31,-331.16 722.01,-326.37 733,-320.5 750.88,-310.95 751.61,-302.92 769,-292.5 775.15,-288.82 781.97,-285.36 788.63,-282.27"/>
<polygon fill="#63b8ff" stroke="#63b8ff" points="790.45,-285.29 798.18,-278.04 787.62,-278.89 790.45,-285.29"/>
</a>
</g>
</g>
<!-- Node20 -->
<g id="Node000020" class="node">
<title>Node20</title>
<g id="a_Node000020"><a xlink:href="classEref.html#aed748cb72c986c869e4c650dd28d8d02" target="_top" xlink:title=" ">
<polygon fill="white" stroke="#666666" points="868.5,-241 779.5,-241 779.5,-222 868.5,-222 868.5,-241"/>
<text text-anchor="middle" x="824" y="-229" font-family="Ubuntu Mono" font-size="10.00">Eref::fieldIndex</text>
</a>
</g>
</g>
<!-- Node15&#45;&gt;Node20 -->
<g id="edge22_Node000015_Node000020" class="edge">
<title>Node15&#45;&gt;Node20</title>
<g id="a_edge22_Node000015_Node000020"><a xlink:title=" ">
<path fill="none" stroke="#63b8ff" d="M699.5,-337.6C711.27,-334.02 723.55,-328.63 733,-320.5 759.82,-297.42 742.21,-272.61 769,-249.5 770.49,-248.22 772.07,-247.03 773.72,-245.92"/>
<polygon fill="#63b8ff" stroke="#63b8ff" points="775.43,-248.97 782.47,-241.05 772.03,-242.86 775.43,-248.97"/>
</a>
</g>
</g>
<!-- Node21 -->
<g id="Node000021" class="node">
<title>Node21</title>
<g id="a_Node000021"><a xlink:href="classElement.html#a3c07cf6355e6127827ce67682e3bb2a0" target="_top" xlink:title=" ">
<polygon fill="white" stroke="#666666" points="879,-354 769,-354 769,-335 879,-335 879,-354"/>
<text text-anchor="middle" x="824" y="-342" font-family="Ubuntu Mono" font-size="10.00">Element::findCaller</text>
</a>
</g>
</g>
<!-- Node15&#45;&gt;Node21 -->
<g id="edge23_Node000015_Node000021" class="edge">
<title>Node15&#45;&gt;Node21</title>
<g id="a_edge23_Node000015_Node000021"><a xlink:title=" ">
<path fill="none" stroke="#63b8ff" d="M699.84,-344.5C717.51,-344.5 738.84,-344.5 758.74,-344.5"/>
<polygon fill="#63b8ff" stroke="#63b8ff" points="758.99,-348 768.99,-344.5 758.99,-341 758.99,-348"/>
</a>
</g>
</g>
<!-- Node25 -->
<g id="Node000025" class="node">
<title>Node25</title>
<g id="a_Node000025"><a xlink:href="classMsg.html#a1a57001709e44ab056a704c24760c105" target="_top" xlink:title=" ">
<polygon fill="white" stroke="#666666" points="1045.5,-206 966.5,-206 966.5,-187 1045.5,-187 1045.5,-206"/>
<text text-anchor="middle" x="1006" y="-194" font-family="Ubuntu Mono" font-size="10.00">Msg::getMsg</text>
</a>
</g>
</g>
<!-- Node15&#45;&gt;Node25 -->
<g id="edge38_Node000015_Node000025" class="edge">
<title>Node15&#45;&gt;Node25</title>
<g id="a_edge38_Node000015_Node000025"><a xlink:title=" ">
<path fill="none" stroke="#63b8ff" d="M699.6,-338.1C754.71,-328.42 851.61,-308.8 879,-286.5 906.74,-263.91 886.57,-236.22 915,-214.5 926.72,-205.55 941.73,-200.72 956.11,-198.2"/>
<polygon fill="#63b8ff" stroke="#63b8ff" points="957.01,-201.61 966.42,-196.74 956.03,-194.67 957.01,-201.61"/>
</a>
</g>
</g>
<!-- Node32 -->
<g id="Node000032" class="node">
<title>Node32</title>
<g id="a_Node000032"><a xlink:href="classCinfo.html#a7642d2a9ffe54cc8008df39de171ab63" target="_top" xlink:title=" ">
<polygon fill="white" stroke="#666666" points="869,-204 779,-204 779,-185 869,-185 869,-204"/>
<text text-anchor="middle" x="824" y="-192" font-family="Ubuntu Mono" font-size="10.00">Cinfo::findFinfo</text>
</a>
</g>
</g>
<!-- Node15&#45;&gt;Node32 -->
<g id="edge35_Node000015_Node000032" class="edge">
<title>Node15&#45;&gt;Node32</title>
<g id="a_edge35_Node000015_Node000032"><a xlink:title=" ">
<path fill="none" stroke="#63b8ff" d="M699.5,-338.63C711.54,-335.11 723.99,-329.49 733,-320.5 768.81,-284.76 733.22,-248.28 769,-212.5 770.07,-211.43 771.21,-210.42 772.39,-209.48"/>
<polygon fill="#63b8ff" stroke="#63b8ff" points="774.34,-212.39 780.89,-204.06 770.58,-206.48 774.34,-212.39"/>
</a>
</g>
</g>
<!-- Node33 -->
<g id="Node000033" class="node">
<title>Node33</title>
<g id="a_Node000033"><a xlink:href="classMsg.html#a326ed96ece35f632b16de59838db6c29" target="_top" xlink:title=" ">
<polygon fill="white" stroke="#666666" points="877,-167 771,-167 771,-148 877,-148 877,-167"/>
<text text-anchor="middle" x="824" y="-155" font-family="Ubuntu Mono" font-size="10.00">Msg::findOtherEnd</text>
</a>
</g>
</g>
<!-- Node15&#45;&gt;Node33 -->
<g id="edge36_Node000015_Node000033" class="edge">
<title>Node15&#45;&gt;Node33</title>
<g id="a_edge36_Node000015_Node000033"><a xlink:title=" ">
<path fill="none" stroke="#63b8ff" d="M699.55,-339.14C711.73,-335.66 724.26,-329.93 733,-320.5 778.13,-271.79 723.92,-224.26 769,-175.5 769.89,-174.54 770.83,-173.63 771.81,-172.77"/>
<polygon fill="#63b8ff" stroke="#63b8ff" points="773.83,-175.63 780.1,-167.08 769.87,-169.86 773.83,-175.63"/>
</a>
</g>
</g>
<!-- Node34 -->
<g id="Node000034" class="node">
<title>Node34</title>
<g id="a_Node000034"><a xlink:href="classDestFinfo.html#a6efef23ddcfbaef03eca8aa75fdd98cd" target="_top" xlink:title=" ">
<polygon fill="white" stroke="#666666" points="873.5,-130 774.5,-130 774.5,-111 873.5,-111 873.5,-130"/>
<text text-anchor="middle" x="824" y="-118" font-family="Ubuntu Mono" font-size="10.00">DestFinfo::getFid</text>
</a>
</g>
</g>
<!-- Node15&#45;&gt;Node34 -->
<g id="edge37_Node000015_Node000034" class="edge">
<title>Node15&#45;&gt;Node34</title>
<g id="a_edge37_Node000015_Node000034"><a xlink:title=" ">
<path fill="none" stroke="#63b8ff" d="M699.81,-339.38C712.02,-335.92 724.49,-330.14 733,-320.5 787.57,-258.68 714.5,-200.37 769,-138.5 769.75,-137.65 770.54,-136.83 771.37,-136.06"/>
<polygon fill="#63b8ff" stroke="#63b8ff" points="773.6,-138.77 779.67,-130.08 769.51,-133.09 773.6,-138.77"/>
</a>
</g>
</g>
<!-- Node35 -->
<g id="Node000035" class="node">
<title>Node35</title>
<g id="a_Node000035"><a xlink:href="classElement.html#a1a2068a4e70da0f951bc3e73b758ef4a" target="_top" xlink:title=" ">
<polygon fill="white" stroke="#666666" points="878,-93 770,-93 770,-74 878,-74 878,-93"/>
<text text-anchor="middle" x="824" y="-81" font-family="Ubuntu Mono" font-size="10.00">Element::getName</text>
</a>
</g>
</g>
<!-- Node15&#45;&gt;Node35 -->
<g id="edge39_Node000015_Node000035" class="edge">
<title>Node15&#45;&gt;Node35</title>
<g id="a_edge39_Node000015_Node000035"><a xlink:title=" ">
<path fill="none" stroke="#63b8ff" d="M699.62,-339.65C711.96,-336.21 724.56,-330.38 733,-320.5 797.07,-245.5 705,-176.56 769,-101.5 769.63,-100.76 770.29,-100.05 770.98,-99.37"/>
<polygon fill="#63b8ff" stroke="#63b8ff" points="773.4,-101.93 779.3,-93.13 769.2,-96.33 773.4,-101.93"/>
</a>
</g>
</g>
<!-- Node36 -->
<g id="Node000036" class="node">
<title>Node36</title>
<g id="a_Node000036"><a xlink:href="classElement.html#a8489d936deee408d78042cf199694bb5" target="_top" xlink:title=" ">
<polygon fill="white" stroke="#666666" points="878.5,-56 769.5,-56 769.5,-37 878.5,-37 878.5,-56"/>
<text text-anchor="middle" x="824" y="-44" font-family="Ubuntu Mono" font-size="10.00">Element::hasFields</text>
</a>
</g>
</g>
<!-- Node15&#45;&gt;Node36 -->
<g id="edge40_Node000015_Node000036" class="edge">
<title>Node15&#45;&gt;Node36</title>
<g id="a_edge40_Node000015_Node000036"><a xlink:title=" ">
<path fill="none" stroke="#63b8ff" d="M699.75,-339.76C712.1,-336.33 724.68,-330.48 733,-320.5 806.61,-232.28 695.48,-152.79 769,-64.5 769.62,-63.75 770.28,-63.04 770.96,-62.35"/>
<polygon fill="#63b8ff" stroke="#63b8ff" points="773.38,-64.9 779.22,-56.06 769.14,-59.33 773.38,-64.9"/>
</a>
</g>
</g>
<!-- Node37 -->
<g id="Node000037" class="node">
<title>Node37</title>
<g id="a_Node000037"><a xlink:href="classId.html#ac094968605676d63b55ca33b7e318948" target="_top" xlink:title=" ">
<polygon fill="white" stroke="#666666" points="1026.5,-599 985.5,-599 985.5,-580 1026.5,-580 1026.5,-599"/>
<text text-anchor="middle" x="1006" y="-587" font-family="Ubuntu Mono" font-size="10.00">Id::Id</text>
</a>
</g>
</g>
<!-- Node15&#45;&gt;Node37 -->
<g id="edge41_Node000015_Node000037" class="edge">
<title>Node15&#45;&gt;Node37</title>
<g id="a_edge41_Node000015_Node000037"><a xlink:title=" ">
<path fill="none" stroke="#63b8ff" d="M666.84,-354.41C689.76,-390.24 767.13,-511.06 769,-512.5 832.17,-561.16 927.29,-579.7 975.19,-586.25"/>
<polygon fill="#63b8ff" stroke="#63b8ff" points="974.85,-589.73 985.22,-587.53 975.74,-582.79 974.85,-589.73"/>
</a>
</g>
</g>
<!-- Node38 -->
<g id="Node000038" class="node">
<title>Node38</title>
<g id="a_Node000038"><a xlink:href="classObjId.html#aad3d714ee57757ed3754a58edc9ad4a9" target="_top" xlink:title=" ">
<polygon fill="white" stroke="#666666" points="861,-618 787,-618 787,-599 861,-599 861,-618"/>
<text text-anchor="middle" x="824" y="-606" font-family="Ubuntu Mono" font-size="10.00">ObjId::ObjId</text>
</a>
</g>
</g>
<!-- Node15&#45;&gt;Node38 -->
<g id="edge42_Node000015_Node000038" class="edge">
<title>Node15&#45;&gt;Node38</title>
<g id="a_edge42_Node000015_Node000038"><a xlink:title=" ">
<path fill="none" stroke="#63b8ff" d="M668.15,-354.21C682.7,-373.09 714.52,-416.49 733,-457.5 757.1,-510.99 730.56,-540.18 769,-584.5 772.23,-588.23 776.16,-591.4 780.4,-594.1"/>
<polygon fill="#63b8ff" stroke="#63b8ff" points="778.97,-597.31 789.43,-598.99 782.3,-591.15 778.97,-597.31"/>
</a>
</g>
</g>
<!-- Node39 -->
<g id="Node000039" class="node">
<title>Node39</title>
<g id="a_Node000039"><a xlink:href="classEref.html#ab305a4ab972b50443b7d35cfd516861a" target="_top" xlink:title=" ">
<polygon fill="white" stroke="#666666" points="856.5,-430 791.5,-430 791.5,-411 856.5,-411 856.5,-430"/>
<text text-anchor="middle" x="824" y="-418" font-family="Ubuntu Mono" font-size="10.00">Eref::objId</text>
</a>
</g>
</g>
<!-- Node15&#45;&gt;Node39 -->
<g id="edge44_Node000015_Node000039" class="edge">
<title>Node15&#45;&gt;Node39</title>
<g id="a_edge44_Node000015_Node000039"><a xlink:title=" ">
<path fill="none" stroke="#63b8ff" d="M680.02,-354.06C701.68,-364.63 737.71,-382.05 769,-396.5 776.4,-399.92 784.41,-403.52 791.93,-406.88"/>
<polygon fill="#63b8ff" stroke="#63b8ff" points="790.57,-410.1 801.13,-410.95 793.4,-403.7 790.57,-410.1"/>
</a>
</g>
</g>
<!-- Node40 -->
<g id="Node000040" class="node">
<title>Node40</title>
<g id="a_Node000040"><a xlink:href="classId.html#a6a4a7d5c9e8524644febc6b6e8dc1ab9" target="_top" xlink:title=" ">
<polygon fill="white" stroke="#666666" points="866.5,-504 781.5,-504 781.5,-485 866.5,-485 866.5,-504"/>
<text text-anchor="middle" x="824" y="-492" font-family="Ubuntu Mono" font-size="10.00">Id::operator!=</text>
</a>
</g>
</g>
<!-- Node15&#45;&gt;Node40 -->
<g id="edge47_Node000015_Node000040" class="edge">
<title>Node15&#45;&gt;Node40</title>
<g id="a_edge47_Node000015_Node000040"><a xlink:title=" ">
<path fill="none" stroke="#63b8ff" d="M665.99,-354.26C680.02,-378.32 719.58,-441.05 769,-475.5 771.73,-477.4 774.67,-479.13 777.72,-480.71"/>
<polygon fill="#63b8ff" stroke="#63b8ff" points="776.54,-484.01 787.09,-484.95 779.43,-477.64 776.54,-484.01"/>
</a>
</g>
</g>
<!-- Node41 -->
<g id="Node000041" class="node">
<title>Node41</title>
<g id="a_Node000041"><a xlink:href="classObjId.html#a6a7e5a3ee84c58803fe025943941e67e" target="_top" xlink:title=" ">
<polygon fill="white" stroke="#666666" points="877,-655 771,-655 771,-636 877,-636 877,-655"/>
<text text-anchor="middle" x="824" y="-643" font-family="Ubuntu Mono" font-size="10.00">ObjId::operator==</text>
</a>
</g>
</g>
<!-- Node15&#45;&gt;Node41 -->
<g id="edge48_Node000015_Node000041" class="edge">
<title>Node15&#45;&gt;Node41</title>
<g id="a_edge48_Node000015_Node000041"><a xlink:title=" ">
<path fill="none" stroke="#63b8ff" d="M668.41,-354.1C683.38,-372.79 715.92,-415.88 733,-457.5 762.33,-528.94 717.56,-569.89 769,-627.5 769.76,-628.35 770.55,-629.16 771.39,-629.93"/>
<polygon fill="#63b8ff" stroke="#63b8ff" points="769.55,-632.91 779.72,-635.88 773.62,-627.22 769.55,-632.91"/>
</a>
</g>
</g>
<!-- Node18 -->
<g id="Node000018" class="node">
<title>Node18</title>
<g id="a_Node000018"><a xlink:href="classId.html#a574e06330597163aef0ea4c99de7ff4a" target="_top" xlink:title="Synonym for Id::operator()()">
<polygon fill="white" stroke="#666666" points="1348,-168 1276,-168 1276,-149 1348,-149 1348,-168"/>
<text text-anchor="middle" x="1312" y="-156" font-family="Ubuntu Mono" font-size="10.00">Id::element</text>
</a>
</g>
</g>
<!-- Node17&#45;&gt;Node18 -->
<g id="edge17_Node000017_Node000018" class="edge">
<title>Node17&#45;&gt;Node18</title>
<g id="a_edge17_Node000017_Node000018"><a xlink:title=" ">
<path fill="none" stroke="#63b8ff" d="M1186,-316.99C1207.4,-289.85 1268.98,-211.78 1296.92,-176.36"/>
<polygon fill="#63b8ff" stroke="#63b8ff" points="1299.8,-178.35 1303.25,-168.33 1294.31,-174.01 1299.8,-178.35"/>
</a>
</g>
</g>
<!-- Node18&#45;&gt;Node13 -->
<g id="edge18_Node000018_Node000013" class="edge">
<title>Node18&#45;&gt;Node13</title>
<g id="a_edge18_Node000018_Node000013"><a xlink:title=" ">
<path fill="none" stroke="#63b8ff" d="M1344.5,-148.95C1351.74,-146.28 1359.28,-143.11 1366,-139.5 1386.18,-128.65 1406.88,-112.64 1421.15,-100.68"/>
<polygon fill="#63b8ff" stroke="#63b8ff" points="1423.42,-103.34 1428.75,-94.19 1418.88,-98.02 1423.42,-103.34"/>
</a>
</g>
</g>
<!-- Node19&#45;&gt;Node14 -->
<g id="edge21_Node000019_Node000014" class="edge">
<title>Node19&#45;&gt;Node14</title>
<g id="a_edge21_Node000019_Node000014"><a xlink:title=" ">
<path fill="none" stroke="#63b8ff" d="M858.25,-262.01C865.84,-259.22 873.33,-255.22 879,-249.5 913.74,-214.48 883.49,-182.46 915,-144.5 928.87,-127.79 949.72,-115.49 967.86,-107.16"/>
<polygon fill="#63b8ff" stroke="#63b8ff" points="969.27,-110.36 977.04,-103.16 966.48,-103.94 969.27,-110.36"/>
</a>
</g>
</g>
<!-- Node19&#45;&gt;Node18 -->
<g id="edge20_Node000019_Node000018" class="edge">
<title>Node19&#45;&gt;Node18</title>
<g id="a_edge20_Node000019_Node000018"><a xlink:title=" ">
<path fill="none" stroke="#63b8ff" d="M858.02,-261.36C865.53,-258.59 873.04,-254.76 879,-249.5 905.83,-225.84 885.03,-197.03 915,-177.5 971.64,-140.59 1174.5,-149.14 1265.85,-155.11"/>
<polygon fill="#63b8ff" stroke="#63b8ff" points="1265.69,-158.61 1275.9,-155.79 1266.16,-151.62 1265.69,-158.61"/>
</a>
</g>
</g>
<!-- Node22 -->
<g id="Node000022" class="node">
<title>Node22</title>
<g id="a_Node000022"><a xlink:href="classMsg.html#a5be9f4dd643f5f662e8fb3c029273390" target="_top" xlink:title=" ">
<polygon fill="white" stroke="#666666" points="1033.5,-354 978.5,-354 978.5,-335 1033.5,-335 1033.5,-354"/>
<text text-anchor="middle" x="1006" y="-342" font-family="Ubuntu Mono" font-size="10.00">Msg::e1</text>
</a>
</g>
</g>
<!-- Node21&#45;&gt;Node22 -->
<g id="edge24_Node000021_Node000022" class="edge">
<title>Node21&#45;&gt;Node22</title>
<g id="a_edge24_Node000021_Node000022"><a xlink:title=" ">
<path fill="none" stroke="#63b8ff" d="M879.01,-344.5C907.77,-344.5 942.4,-344.5 968.07,-344.5"/>
<polygon fill="#63b8ff" stroke="#63b8ff" points="968.13,-348 978.13,-344.5 968.13,-341 968.13,-348"/>
</a>
</g>
</g>
<!-- Node23 -->
<g id="Node000023" class="node">
<title>Node23</title>
<g id="a_Node000023"><a xlink:href="classMsg.html#a893ed6b44cd4c529f0f10af38ae6743a" target="_top" xlink:title=" ">
<polygon fill="white" stroke="#666666" points="1033.5,-317 978.5,-317 978.5,-298 1033.5,-298 1033.5,-317"/>
<text text-anchor="middle" x="1006" y="-305" font-family="Ubuntu Mono" font-size="10.00">Msg::e2</text>
</a>
</g>
</g>
<!-- Node21&#45;&gt;Node23 -->
<g id="edge25_Node000021_Node000023" class="edge">
<title>Node21&#45;&gt;Node23</title>
<g id="a_edge25_Node000021_Node000023"><a xlink:title=" ">
<path fill="none" stroke="#63b8ff" d="M869.84,-334.93C884.26,-331.89 900.3,-328.52 915,-325.5 932.41,-321.92 951.74,-318.04 968.01,-314.81"/>
<polygon fill="#63b8ff" stroke="#63b8ff" points="969.08,-318.16 978.21,-312.78 967.72,-311.3 969.08,-318.16"/>
</a>
</g>
</g>
<!-- Node24 -->
<g id="Node000024" class="node">
<title>Node24</title>
<g id="a_Node000024"><a xlink:href="classElement.html#a0f7aa6c77f30cb8865cdd0a0dde03854" target="_top" xlink:title=" ">
<polygon fill="white" stroke="#666666" points="1065,-280 947,-280 947,-261 1065,-261 1065,-280"/>
<text text-anchor="middle" x="1006" y="-268" font-family="Ubuntu Mono" font-size="10.00">Element::findBinding</text>
</a>
</g>
</g>
<!-- Node21&#45;&gt;Node24 -->
<g id="edge26_Node000021_Node000024" class="edge">
<title>Node21&#45;&gt;Node24</title>
<g id="a_edge26_Node000021_Node000024"><a xlink:title=" ">
<path fill="none" stroke="#63b8ff" d="M850.84,-334.93C860.05,-331.03 870.29,-326.11 879,-320.5 896.99,-308.9 895.84,-298.04 915,-288.5 921.92,-285.05 929.45,-282.27 937.11,-280.01"/>
<polygon fill="#63b8ff" stroke="#63b8ff" points="938.07,-283.38 946.84,-277.44 936.28,-276.61 938.07,-283.38"/>
</a>
</g>
</g>
<!-- Node21&#45;&gt;Node25 -->
<g id="edge27_Node000021_Node000025" class="edge">
<title>Node21&#45;&gt;Node25</title>
<g id="a_edge27_Node000021_Node000025"><a xlink:title=" ">
<path fill="none" stroke="#63b8ff" d="M858.07,-334.92C865.75,-331.41 873.33,-326.71 879,-320.5 912.55,-283.76 877.61,-247.32 915,-214.5 926.29,-204.59 941.46,-199.54 956.13,-197.11"/>
<polygon fill="#63b8ff" stroke="#63b8ff" points="956.68,-200.57 966.15,-195.82 955.79,-193.63 956.68,-200.57"/>
</a>
</g>
</g>
<!-- Node29 -->
<g id="Node000029" class="node">
<title>Node29</title>
<g id="a_Node000029"><a xlink:href="classMsgFuncBinding.html#ad0172d166d6629ed092500ea64473eb5" target="_top" xlink:title=" ">
<polygon fill="white" stroke="#666666" points="1097,-243 915,-243 915,-224 1097,-224 1097,-243"/>
<text text-anchor="middle" x="1006" y="-231" font-family="Ubuntu Mono" font-size="10.00">MsgFuncBinding::MsgFuncBinding</text>
</a>
</g>
</g>
<!-- Node21&#45;&gt;Node29 -->
<g id="edge32_Node000021_Node000029" class="edge">
<title>Node21&#45;&gt;Node29</title>
<g id="a_edge32_Node000021_Node000029"><a xlink:title=" ">
<path fill="none" stroke="#63b8ff" d="M856.02,-334.92C864.17,-331.34 872.49,-326.61 879,-320.5 904.21,-296.82 887.33,-272.26 915,-251.5 916.81,-250.14 918.7,-248.88 920.65,-247.7"/>
<polygon fill="#63b8ff" stroke="#63b8ff" points="922.28,-250.8 929.56,-243.1 919.07,-244.58 922.28,-250.8"/>
</a>
</g>
</g>
<!-- Node31 -->
<g id="Node000031" class="node">
<title>Node31</title>
<g id="a_Node000031"><a xlink:href="classObjId.html#ab6b120d314aab5abc3ea8bb7ead5ae41" target="_top" xlink:title=" ">
<polygon fill="white" stroke="#666666" points="1043,-430 969,-430 969,-411 1043,-411 1043,-430"/>
<text text-anchor="middle" x="1006" y="-418" font-family="Ubuntu Mono" font-size="10.00">ObjId::ObjId</text>
</a>
</g>
</g>
<!-- Node21&#45;&gt;Node31 -->
<g id="edge34_Node000021_Node000031" class="edge">
<title>Node21&#45;&gt;Node31</title>
<g id="a_edge34_Node000021_Node000031"><a xlink:title=" ">
<path fill="none" stroke="#63b8ff" d="M847.8,-354.13C879.45,-367.49 936.85,-391.73 972.84,-406.92"/>
<polygon fill="#63b8ff" stroke="#63b8ff" points="971.81,-410.29 982.39,-410.95 974.54,-403.84 971.81,-410.29"/>
</a>
</g>
</g>
<!-- Node26 -->
<g id="Node000026" class="node">
<title>Node26</title>
<g id="a_Node000026"><a xlink:href="classObjId.html#a1e5933713d6a73550b0923cf63f5bfd8" target="_top" xlink:title=" ">
<polygon fill="white" stroke="#666666" points="1212.5,-130 1142.5,-130 1142.5,-111 1212.5,-111 1212.5,-130"/>
<text text-anchor="middle" x="1177.5" y="-118" font-family="Ubuntu Mono" font-size="10.00">ObjId::data</text>
</a>
</g>
</g>
<!-- Node25&#45;&gt;Node26 -->
<g id="edge28_Node000025_Node000026" class="edge">
<title>Node25&#45;&gt;Node26</title>
<g id="a_edge28_Node000025_Node000026"><a xlink:title=" ">
<path fill="none" stroke="#63b8ff" d="M1028.47,-186.87C1058.14,-173.57 1111.87,-149.48 1145.78,-134.27"/>
<polygon fill="#63b8ff" stroke="#63b8ff" points="1147.51,-137.33 1155.21,-130.05 1144.65,-130.95 1147.51,-137.33"/>
</a>
</g>
</g>
<!-- Node26&#45;&gt;Node18 -->
<g id="edge30_Node000026_Node000018" class="edge">
<title>Node26&#45;&gt;Node18</title>
<g id="a_edge30_Node000026_Node000018"><a xlink:title=" ">
<path fill="none" stroke="#63b8ff" d="M1211.94,-130.09C1228.88,-134.95 1249.66,-140.91 1267.81,-146.11"/>
<polygon fill="#63b8ff" stroke="#63b8ff" points="1267,-149.52 1277.58,-148.91 1268.93,-142.79 1267,-149.52"/>
</a>
</g>
</g>
<!-- Node27 -->
<g id="Node000027" class="node">
<title>Node27</title>
<g id="a_Node000027"><a xlink:href="classElement.html#a1978a0a584f1b10ea4a7c67e69880042" target="_top" xlink:title=" ">
<polygon fill="white" stroke="#666666" points="1354.5,-131 1269.5,-131 1269.5,-112 1354.5,-112 1354.5,-131"/>
<text text-anchor="middle" x="1312" y="-119" font-family="Ubuntu Mono" font-size="10.00">Element::data</text>
</a>
</g>
</g>
<!-- Node26&#45;&gt;Node27 -->
<g id="edge29_Node000026_Node000027" class="edge">
<title>Node26&#45;&gt;Node27</title>
<g id="a_edge29_Node000026_Node000027"><a xlink:title=" ">
<path fill="none" stroke="#63b8ff" d="M1212.62,-120.76C1226.84,-120.86 1243.66,-120.99 1259.33,-121.11"/>
<polygon fill="#63b8ff" stroke="#63b8ff" points="1259.4,-124.61 1269.43,-121.19 1259.45,-117.61 1259.4,-124.61"/>
</a>
</g>
</g>
<!-- Node28 -->
<g id="Node000028" class="node">
<title>Node28</title>
<g id="a_Node000028"><a xlink:href="classElement.html#a73a0e468a3d6cfd6475fff4a56459075" target="_top" xlink:title=" ">
<polygon fill="white" stroke="#666666" points="1366,-94 1258,-94 1258,-75 1366,-75 1366,-94"/>
<text text-anchor="middle" x="1312" y="-82" font-family="Ubuntu Mono" font-size="10.00">Element::rawIndex</text>
</a>
</g>
</g>
<!-- Node26&#45;&gt;Node28 -->
<g id="edge31_Node000026_Node000028" class="edge">
<title>Node26&#45;&gt;Node28</title>
<g id="a_edge31_Node000026_Node000028"><a xlink:title=" ">
<path fill="none" stroke="#63b8ff" d="M1212.62,-111.23C1228.77,-106.84 1248.29,-101.54 1265.66,-96.82"/>
<polygon fill="#63b8ff" stroke="#63b8ff" points="1266.87,-100.12 1275.61,-94.12 1265.04,-93.36 1266.87,-100.12"/>
</a>
</g>
</g>
<!-- Node30 -->
<g id="Node000030" class="node">
<title>Node30</title>
<g id="a_Node000030"><a xlink:href="classObjId.html#a02a8374ceddca0d8f4a672005aef8ffc" target="_top" xlink:title=" ">
<polygon fill="white" stroke="#666666" points="1214.5,-243 1140.5,-243 1140.5,-224 1214.5,-224 1214.5,-243"/>
<text text-anchor="middle" x="1177.5" y="-231" font-family="Ubuntu Mono" font-size="10.00">ObjId::ObjId</text>
</a>
</g>
</g>
<!-- Node29&#45;&gt;Node30 -->
<g id="edge33_Node000029_Node000030" class="edge">
<title>Node29&#45;&gt;Node30</title>
<g id="a_edge33_Node000029_Node000030"><a xlink:title=" ">
<path fill="none" stroke="#63b8ff" d="M1097.21,-233.5C1108.71,-233.5 1120.08,-233.5 1130.46,-233.5"/>
<polygon fill="#63b8ff" stroke="#63b8ff" points="1130.48,-237 1140.48,-233.5 1130.48,-230 1130.48,-237"/>
</a>
</g>
</g>
<!-- Node38&#45;&gt;Node37 -->
<g id="edge43_Node000038_Node000037" class="edge">
<title>Node38&#45;&gt;Node37</title>
<g id="a_edge43_Node000038_Node000037"><a xlink:title=" ">
<path fill="none" stroke="#63b8ff" d="M861.43,-604.66C894.87,-601.12 943.85,-595.96 975.07,-592.66"/>
<polygon fill="#63b8ff" stroke="#63b8ff" points="975.74,-596.11 985.32,-591.58 975.01,-589.15 975.74,-596.11"/>
</a>
</g>
</g>
<!-- Node39&#45;&gt;Node6 -->
<g id="edge45_Node000039_Node000006" class="edge">
<title>Node39&#45;&gt;Node6</title>
<g id="a_edge45_Node000039_Node000006"><a xlink:title=" ">
<path fill="none" stroke="#63b8ff" d="M855.47,-430.05C863.2,-432.64 871.45,-435.54 879,-438.5 913.1,-451.85 951.29,-469.53 976.59,-481.63"/>
<polygon fill="#63b8ff" stroke="#63b8ff" points="975.1,-484.8 985.62,-485.98 978.13,-478.49 975.1,-484.8"/>
</a>
</g>
</g>
<!-- Node39&#45;&gt;Node31 -->
<g id="edge46_Node000039_Node000031" class="edge">
<title>Node39&#45;&gt;Node31</title>
<g id="a_edge46_Node000039_Node000031"><a xlink:title=" ">
<path fill="none" stroke="#63b8ff" d="M856.77,-420.5C885.09,-420.5 926.9,-420.5 958.9,-420.5"/>
<polygon fill="#63b8ff" stroke="#63b8ff" points="958.91,-424 968.91,-420.5 958.91,-417 958.91,-424"/>
</a>
</g>
</g>
<!-- Node41&#45;&gt;Node4 -->
<g id="edge49_Node000041_Node000004" class="edge">
<title>Node41&#45;&gt;Node4</title>
<g id="a_edge49_Node000041_Node000004"><a xlink:title=" ">
<path fill="none" stroke="#63b8ff" d="M877.06,-651C900.31,-653.45 927.68,-656.34 951.14,-658.81"/>
<polygon fill="#63b8ff" stroke="#63b8ff" points="950.95,-662.31 961.26,-659.88 951.69,-655.35 950.95,-662.31"/>
</a>
</g>
</g>
</g>
</svg>

<g id="navigator" transform="translate(0 0)" fill="#404254">
  <rect fill="#f2f5e9" fill-opacity="0.5" stroke="#606060" stroke-width=".5" x="0" y="0" width="60" height="60"/>
  <use id="zoomplus" xlink:href="#zoomPlus" x="17" y="9" onmousedown="handleZoom(evt,'in')"/>
  <use id="zoomminus" xlink:href="#zoomMin" x="42" y="9" onmousedown="handleZoom(evt,'out')"/>
  <use id="reset" xlink:href="#resetDef" x="30" y="36" onmousedown="handleReset()"/>
   <use id="arrowup" xlink:href="#arrowUp" x="0" y="0" onmousedown="handlePan(0,-1)"/>
  <use id="arrowright" xlink:href="#arrowRight" x="0" y="0" onmousedown="handlePan(1,0)"/>
  <use id="arrowdown" xlink:href="#arrowDown" x="0" y="0" onmousedown="handlePan(0,1)"/>
  <use id="arrowleft" xlink:href="#arrowLeft" x="0" y="0" onmousedown="handlePan(-1,0)"/>
</g>
<svg viewBox="0 0 15 15" width="100%" height="30px" preserveAspectRatio="xMaxYMin meet">
 <g id="arrow_out" transform="scale(0.3 0.3)">
  <a xlink:href="classHHChannelF_a8ac8ce4fe69e72dcfe8b04e0fe93fc38_cgraph_org.svg" target="_base">
   <rect id="button" ry="5" rx="5" y="6" x="6" height="38" width="38"
        fill="#f2f5e9" fill-opacity="0.5" stroke="#606060" stroke-width="1.0"/>
   <path id="arrow"
     d="M 11.500037,31.436501 C 11.940474,20.09759 22.043105,11.32322 32.158766,21.979434 L 37.068811,17.246167 C 37.068811,17.246167 37.088388,32 37.088388,32 L 22.160133,31.978069 C 22.160133,31.978069 26.997745,27.140456 26.997745,27.140456 C 18.528582,18.264221 13.291696,25.230495 11.500037,31.436501 z"
     style="fill:#404040;"/>
  </a>
 </g>
</svg>

<style type='text/css'>
<![CDATA[
[data-mouse-over-selected='false'] { opacity: 0.7; }
[data-mouse-over-selected='true']  { opacity: 1.0; }
]]>
</style>
<script type="application/ecmascript"><![CDATA[
document.addEventListener('DOMContentLoaded', (event) => {
  highlightEdges();
  highlightAdjacentNodes();
});
]]></script>
</svg>
