<?xml version="1.0" encoding="UTF-8" standalone="no"?>
<!DOCTYPE svg PUBLIC "-//W3C//DTD SVG 1.1//EN"
 "http://www.w3.org/Graphics/SVG/1.1/DTD/svg11.dtd">
<!-- Generated by graphviz version 2.43.0 (0)
 -->
<!-- Title: HopIndex::HopIndex Pages: 1 -->
<!--zoomable 695 -->

<svg id="main" version="1.1" xmlns="http://www.w3.org/2000/svg" xmlns:xlink="http://www.w3.org/1999/xlink" xml:space="preserve" onload="init(evt)">
<style type="text/css"><![CDATA[
.node, .edge {opacity: 0.7;}
.node.selected, .edge.selected {opacity: 1;}
.edge:hover path { stroke: red; }
.edge:hover polygon { stroke: red; fill: red; }
]]></style>

<defs>
  <circle id="rim" cx="0" cy="0" r="7"/>
  <circle id="rim2" cx="0" cy="0" r="3.5"/>
  <g id="zoomPlus">
    <use xlink:href="#rim" fill="#404040"><set attributeName="fill" to="#808080" begin="zoomplus.mouseover" end="zoomplus.mouseout"/></use>
    <path d="M-4,0h8M0,-4v8" fill="none" stroke="white" stroke-width="1.5" pointer-events="none"/>
  </g>
  <g id="zoomMin">
    <use xlink:href="#rim" fill="#404040"><set attributeName="fill" to="#808080" begin="zoomminus.mouseover" end="zoomminus.mouseout"/></use>
    <path d="M-4,0h8" fill="none" stroke="white" stroke-width="1.5" pointer-events="none"/>
  </g>
  <g id="arrowUp" transform="translate(30 24)">
    <use xlink:href="#rim"/>
    <path pointer-events="none" fill="none" stroke="white" stroke-width="1.5" d="M0,-3.0v7 M-2.5,-0.5L0,-3.0L2.5,-0.5"/>
  </g>
  <g id="arrowRight" transform="rotate(90) translate(36 -43)">
    <use xlink:href="#rim"/>
    <path pointer-events="none" fill="none" stroke="white" stroke-width="1.5" d="M0,-3.0v7 M-2.5,-0.5L0,-3.0L2.5,-0.5"/>
  </g>
  <g id="arrowDown" transform="rotate(180) translate(-30 -48)">
    <use xlink:href="#rim"/>
    <path pointer-events="none" fill="none" stroke="white" stroke-width="1.5" d="M0,-3.0v7 M-2.5,-0.5L0,-3.0L2.5,-0.5"/>
  </g>
  <g id="arrowLeft" transform="rotate(270) translate(-36 17)">
    <use xlink:href="#rim"/>
    <path pointer-events="none" fill="none" stroke="white" stroke-width="1.5" d="M0,-3.0v7 M-2.5,-0.5L0,-3.0L2.5,-0.5"/>
  </g>
  <g id="resetDef">
    <use xlink:href="#rim2" fill="#404040"><set attributeName="fill" to="#808080" begin="reset.mouseover" end="reset.mouseout"/></use>
  </g>
</defs>
<script type="application/ecmascript">
var viewWidth = 908;
var viewHeight = 695;
var sectionId = 'dynsection-1';
</script>
<script type="application/ecmascript" xlink:href="svg.min.js"/>
<svg id="graph" class="graph">
<g id="viewport">
<title>HopIndex::HopIndex</title>
<!-- Node1 -->
<g id="Node000001" class="node">
<title>Node1</title>
<g id="a_Node000001"><a xlink:title=" ">
<polygon fill="#999999" stroke="#666666" points="900,-314 784,-314 784,-295 900,-295 900,-314"/>
<text text-anchor="middle" x="842" y="-302" font-family="Ubuntu Mono" font-size="10.00">HopIndex::HopIndex</text>
</a>
</g>
</g>
<!-- Node2 -->
<g id="Node000002" class="node">
<title>Node2</title>
<g id="a_Node000002"><a xlink:href="classSetGet0.html#a9c434cf27a8160ebc373d23fc21a68df" target="_top" xlink:title=" ">
<polygon fill="white" stroke="#666666" points="748,-333 671,-333 671,-314 748,-314 748,-333"/>
<text text-anchor="middle" x="709.5" y="-321" font-family="Ubuntu Mono" font-size="10.00">SetGet0::set</text>
</a>
</g>
</g>
<!-- Node1&#45;&gt;Node2 -->
<g id="edge1_Node000001_Node000002" class="edge">
<title>Node1&#45;&gt;Node2</title>
<g id="a_edge1_Node000001_Node000002"><a xlink:title=" ">
<path fill="none" stroke="#63b8ff" d="M773.82,-314.28C765.01,-315.56 756.25,-316.84 748.17,-318.02"/>
<polygon fill="#63b8ff" stroke="#63b8ff" points="774.37,-317.74 783.76,-312.83 773.36,-310.81 774.37,-317.74"/>
</a>
</g>
</g>
<!-- Node36 -->
<g id="Node000036" class="node">
<title>Node36</title>
<g id="a_Node000036"><a xlink:href="testAsync_8cpp.html#a3eb1c9ab70d26acf29b7c8436e3239d8" target="_top" xlink:title=" ">
<polygon fill="white" stroke="#666666" points="748,-296 671,-296 671,-277 748,-277 748,-296"/>
<text text-anchor="middle" x="709.5" y="-284" font-family="Ubuntu Mono" font-size="10.00">testHopFunc</text>
</a>
</g>
</g>
<!-- Node1&#45;&gt;Node36 -->
<g id="edge45_Node000001_Node000036" class="edge">
<title>Node1&#45;&gt;Node36</title>
<g id="a_edge45_Node000001_Node000036"><a xlink:title=" ">
<path fill="none" stroke="#63b8ff" d="M773.82,-295.23C765.01,-294.02 756.25,-292.81 748.17,-291.7"/>
<polygon fill="#63b8ff" stroke="#63b8ff" points="773.38,-298.71 783.76,-296.6 774.33,-291.77 773.38,-298.71"/>
</a>
</g>
</g>
<!-- Node3 -->
<g id="Node000003" class="node">
<title>Node3</title>
<g id="a_Node000003"><a xlink:href="classShell.html#aee1f1dd93c5c847c10ef9562eef9c91a" target="_top" xlink:title=" ">
<polygon fill="white" stroke="#666666" points="618.5,-668 535.5,-668 535.5,-649 618.5,-649 618.5,-668"/>
<text text-anchor="middle" x="577" y="-656" font-family="Ubuntu Mono" font-size="10.00">Shell::destroy</text>
</a>
</g>
</g>
<!-- Node2&#45;&gt;Node3 -->
<g id="edge2_Node000002_Node000003" class="edge">
<title>Node2&#45;&gt;Node3</title>
<g id="a_edge2_Node000002_Node000003"><a xlink:title=" ">
<path fill="none" stroke="#63b8ff" d="M708.46,-343.3C707.41,-394.28 698.48,-532.28 635,-621.5 626.38,-633.61 612.44,-642.76 600.5,-648.94"/>
<polygon fill="#63b8ff" stroke="#63b8ff" points="711.96,-343.08 708.58,-333.04 704.96,-342.99 711.96,-343.08"/>
</a>
</g>
</g>
<!-- Node7 -->
<g id="Node000007" class="node">
<title>Node7</title>
<g id="a_Node000007"><a xlink:href="classShell.html#a00c7730e946b02be84e8824120acfab1" target="_top" xlink:title=" ">
<polygon fill="white" stroke="#666666" points="616.5,-612 537.5,-612 537.5,-593 616.5,-593 616.5,-612"/>
<text text-anchor="middle" x="577" y="-600" font-family="Ubuntu Mono" font-size="10.00">Shell::doQuit</text>
</a>
</g>
</g>
<!-- Node2&#45;&gt;Node7 -->
<g id="edge6_Node000002_Node000007" class="edge">
<title>Node2&#45;&gt;Node7</title>
<g id="a_edge6_Node000002_Node000007"><a xlink:title=" ">
<path fill="none" stroke="#63b8ff" d="M699.71,-342.29C674.3,-396.63 601.3,-552.69 582.47,-592.94"/>
<polygon fill="#63b8ff" stroke="#63b8ff" points="702.94,-343.64 704.01,-333.1 696.6,-340.68 702.94,-343.64"/>
</a>
</g>
</g>
<!-- Node10 -->
<g id="Node000010" class="node">
<title>Node10</title>
<g id="a_Node000010"><a xlink:href="classShell.html#a11a41136a3731f01e7789dd8fc251370" target="_top" xlink:title=" ">
<polygon fill="white" stroke="#666666" points="620.5,-333 533.5,-333 533.5,-314 620.5,-314 620.5,-333"/>
<text text-anchor="middle" x="577" y="-321" font-family="Ubuntu Mono" font-size="10.00">Shell::doReinit</text>
</a>
</g>
</g>
<!-- Node2&#45;&gt;Node10 -->
<g id="edge10_Node000002_Node000010" class="edge">
<title>Node2&#45;&gt;Node10</title>
<g id="a_edge10_Node000002_Node000010"><a xlink:title=" ">
<path fill="none" stroke="#63b8ff" d="M660.54,-323.5C647.49,-323.5 633.45,-323.5 620.71,-323.5"/>
<polygon fill="#63b8ff" stroke="#63b8ff" points="660.75,-327 670.75,-323.5 660.75,-320 660.75,-327"/>
</a>
</g>
</g>
<!-- Node34 -->
<g id="Node000034" class="node">
<title>Node34</title>
<g id="a_Node000034"><a xlink:href="classShell.html#a1aaada83b3e6350f1550125c84584aa8" target="_top" xlink:title=" ">
<polygon fill="white" stroke="#666666" points="617,-296 537,-296 537,-277 617,-277 617,-296"/>
<text text-anchor="middle" x="577" y="-284" font-family="Ubuntu Mono" font-size="10.00">Shell::doStop</text>
</a>
</g>
</g>
<!-- Node2&#45;&gt;Node34 -->
<g id="edge43_Node000002_Node000034" class="edge">
<title>Node2&#45;&gt;Node34</title>
<g id="a_edge43_Node000002_Node000034"><a xlink:title=" ">
<path fill="none" stroke="#63b8ff" d="M665.03,-311.17C647.74,-306.27 628.16,-300.72 611.95,-296.12"/>
<polygon fill="#63b8ff" stroke="#63b8ff" points="664.32,-314.61 674.89,-313.97 666.23,-307.88 664.32,-314.61"/>
</a>
</g>
</g>
<!-- Node35 -->
<g id="Node000035" class="node">
<title>Node35</title>
<g id="a_Node000035"><a xlink:href="classSetGet0.html#a658b28d37d2dffece0495f14ae62b733" target="_top" xlink:title=" ">
<polygon fill="white" stroke="#666666" points="635,-259 519,-259 519,-240 635,-240 635,-259"/>
<text text-anchor="middle" x="577" y="-247" font-family="Ubuntu Mono" font-size="10.00">SetGet0::innerStrSet</text>
</a>
</g>
</g>
<!-- Node2&#45;&gt;Node35 -->
<g id="edge44_Node000002_Node000035" class="edge">
<title>Node2&#45;&gt;Node35</title>
<g id="a_edge44_Node000002_Node000035"><a xlink:title=" ">
<path fill="none" stroke="#63b8ff" d="M676.11,-308.88C674.34,-307.8 672.63,-306.67 671,-305.5 652.37,-292.11 654.43,-280.7 635,-268.5 628.99,-264.73 622.15,-261.62 615.35,-259.09"/>
<polygon fill="#63b8ff" stroke="#63b8ff" points="674.72,-312.11 685.17,-313.87 678.1,-305.98 674.72,-312.11"/>
</a>
</g>
</g>
<!-- Node4 -->
<g id="Node000004" class="node">
<title>Node4</title>
<g id="a_Node000004"><a xlink:href="classShell.html#a907372fb6d91df75ff6a682da3d60487" target="_top" xlink:title=" ">
<polygon fill="white" stroke="#666666" points="455.5,-687 367.5,-687 367.5,-668 455.5,-668 455.5,-687"/>
<text text-anchor="middle" x="411.5" y="-675" font-family="Ubuntu Mono" font-size="10.00">Shell::initCinfo</text>
</a>
</g>
</g>
<!-- Node3&#45;&gt;Node4 -->
<g id="edge3_Node000003_Node000004" class="edge">
<title>Node3&#45;&gt;Node4</title>
<g id="a_edge3_Node000003_Node000004"><a xlink:title=" ">
<path fill="none" stroke="#63b8ff" d="M525.2,-664.4C502.91,-666.99 477.02,-670 455.67,-672.48"/>
<polygon fill="#63b8ff" stroke="#63b8ff" points="525.63,-667.88 535.16,-663.25 524.83,-660.92 525.63,-667.88"/>
</a>
</g>
</g>
<!-- Node5 -->
<g id="Node000005" class="node">
<title>Node5</title>
<g id="a_Node000005"><a xlink:href="main_8cpp.html#a6e304b494f9a324f952d9f2033b2b136" target="_top" xlink:title=" ">
<polygon fill="white" stroke="#666666" points="264,-677 232,-677 232,-658 264,-658 264,-677"/>
<text text-anchor="middle" x="248" y="-665" font-family="Ubuntu Mono" font-size="10.00">init</text>
</a>
</g>
</g>
<!-- Node4&#45;&gt;Node5 -->
<g id="edge4_Node000004_Node000005" class="edge">
<title>Node4&#45;&gt;Node5</title>
<g id="a_edge4_Node000004_Node000005"><a xlink:title=" ">
<path fill="none" stroke="#63b8ff" d="M356.9,-674.18C324.31,-672.16 285.03,-669.73 264.01,-668.43"/>
<polygon fill="#63b8ff" stroke="#63b8ff" points="357.02,-677.7 367.22,-674.82 357.46,-670.71 357.02,-677.7"/>
</a>
</g>
</g>
<!-- Node6 -->
<g id="Node000006" class="node">
<title>Node6</title>
<g id="a_Node000006"><a xlink:href="main_8cpp.html#a3c04138a5bfe5d72780bb7e82a18e627" target="_top" xlink:title=" ">
<polygon fill="white" stroke="#666666" points="98.5,-649 57.5,-649 57.5,-630 98.5,-630 98.5,-649"/>
<text text-anchor="middle" x="78" y="-637" font-family="Ubuntu Mono" font-size="10.00">main</text>
</a>
</g>
</g>
<!-- Node5&#45;&gt;Node6 -->
<g id="edge5_Node000005_Node000006" class="edge">
<title>Node5&#45;&gt;Node6</title>
<g id="a_edge5_Node000005_Node000006"><a xlink:title=" ">
<path fill="none" stroke="#63b8ff" d="M221.83,-663.3C188.17,-657.7 129.22,-647.87 98.65,-642.77"/>
<polygon fill="#63b8ff" stroke="#63b8ff" points="221.36,-666.77 231.79,-664.97 222.51,-659.87 221.36,-666.77"/>
</a>
</g>
</g>
<!-- Node8 -->
<g id="Node000008" class="node">
<title>Node8</title>
<g id="a_Node000008"><a xlink:href="classShell.html#a17bf11dba5120f331674345e28d2b9de" target="_top" xlink:title=" ">
<polygon fill="white" stroke="#666666" points="302.5,-621 193.5,-621 193.5,-602 302.5,-602 302.5,-621"/>
<text text-anchor="middle" x="248" y="-609" font-family="Ubuntu Mono" font-size="10.00">Shell::launchParser</text>
</a>
</g>
</g>
<!-- Node7&#45;&gt;Node8 -->
<g id="edge7_Node000007_Node000008" class="edge">
<title>Node7&#45;&gt;Node8</title>
<g id="a_edge7_Node000007_Node000008"><a xlink:title=" ">
<path fill="none" stroke="#63b8ff" d="M527.19,-603.84C466.99,-605.5 364.99,-608.31 302.64,-610.02"/>
<polygon fill="#63b8ff" stroke="#63b8ff" points="527.3,-607.34 537.2,-603.57 527.11,-600.34 527.3,-607.34"/>
</a>
</g>
</g>
<!-- Node9 -->
<g id="Node000009" class="node">
<title>Node9</title>
<g id="a_Node000009"><a xlink:href="testShell_8cpp.html#a7d1d61bd4dcfece617d4c59af90892e9" target="_top" xlink:title=" ">
<polygon fill="white" stroke="#666666" points="466.5,-650 356.5,-650 356.5,-631 466.5,-631 466.5,-650"/>
<text text-anchor="middle" x="411.5" y="-638" font-family="Ubuntu Mono" font-size="10.00">testShellParserQuit</text>
</a>
</g>
</g>
<!-- Node7&#45;&gt;Node9 -->
<g id="edge9_Node000007_Node000009" class="edge">
<title>Node7&#45;&gt;Node9</title>
<g id="a_edge9_Node000007_Node000009"><a xlink:title=" ">
<path fill="none" stroke="#63b8ff" d="M527.47,-613.78C503.94,-619.25 475.99,-625.74 453.54,-630.96"/>
<polygon fill="#63b8ff" stroke="#63b8ff" points="528.3,-617.18 537.25,-611.51 526.72,-610.36 528.3,-617.18"/>
</a>
</g>
</g>
<!-- Node8&#45;&gt;Node6 -->
<g id="edge8_Node000008_Node000006" class="edge">
<title>Node8&#45;&gt;Node6</title>
<g id="a_edge8_Node000008_Node000006"><a xlink:title=" ">
<path fill="none" stroke="#63b8ff" d="M183.36,-622.11C153.32,-627.11 119.59,-632.73 98.82,-636.2"/>
<polygon fill="#63b8ff" stroke="#63b8ff" points="184.09,-625.53 193.38,-620.44 182.94,-618.63 184.09,-625.53"/>
</a>
</g>
</g>
<!-- Node11 -->
<g id="Node000011" class="node">
<title>Node11</title>
<g id="a_Node000011"><a xlink:href="testMsg_8cpp.html#a54ea8605933a0f2d273e5c7bb10a390d" target="_top" xlink:title=" ">
<polygon fill="white" stroke="#666666" points="457.5,-463 365.5,-463 365.5,-444 457.5,-444 457.5,-463"/>
<text text-anchor="middle" x="411.5" y="-451" font-family="Ubuntu Mono" font-size="10.00">benchmarkMsg</text>
</a>
</g>
</g>
<!-- Node10&#45;&gt;Node11 -->
<g id="edge11_Node000010_Node000011" class="edge">
<title>Node10&#45;&gt;Node11</title>
<g id="a_edge11_Node000010_Node000011"><a xlink:title=" ">
<path fill="none" stroke="#63b8ff" d="M565.81,-341.89C550.94,-366.98 520.9,-411.53 483,-435.5 475.42,-440.29 466.62,-443.81 457.86,-446.4"/>
<polygon fill="#63b8ff" stroke="#63b8ff" points="568.96,-343.44 570.91,-333.03 562.89,-339.95 568.96,-343.44"/>
</a>
</g>
</g>
<!-- Node12 -->
<g id="Node000012" class="node">
<title>Node12</title>
<g id="a_Node000012"><a xlink:href="classReadKkit.html#a84a1ef5c83d57d8d111ead9cf48e8e20" target="_top" xlink:title=" ">
<polygon fill="white" stroke="#666666" points="456,-574 367,-574 367,-555 456,-555 456,-574"/>
<text text-anchor="middle" x="411.5" y="-562" font-family="Ubuntu Mono" font-size="10.00">ReadKkit::read</text>
</a>
</g>
</g>
<!-- Node10&#45;&gt;Node12 -->
<g id="edge12_Node000010_Node000012" class="edge">
<title>Node10&#45;&gt;Node12</title>
<g id="a_edge12_Node000010_Node000012"><a xlink:title=" ">
<path fill="none" stroke="#63b8ff" d="M573.63,-343.49C567.36,-387.23 546.21,-491.85 483,-546.5 475.45,-553.03 465.85,-557.24 456.18,-559.94"/>
<polygon fill="#63b8ff" stroke="#63b8ff" points="577.14,-343.68 574.98,-333.3 570.2,-342.76 577.14,-343.68"/>
</a>
</g>
</g>
<!-- Node16 -->
<g id="Node000016" class="node">
<title>Node16</title>
<g id="a_Node000016"><a xlink:href="classReadKkit.html#a1491eaffbb56f52d1e168fd5b58b53db" target="_top" xlink:title=" ">
<polygon fill="white" stroke="#666666" points="453,-537 370,-537 370,-518 453,-518 453,-537"/>
<text text-anchor="middle" x="411.5" y="-525" font-family="Ubuntu Mono" font-size="10.00">ReadKkit::run</text>
</a>
</g>
</g>
<!-- Node10&#45;&gt;Node16 -->
<g id="edge16_Node000010_Node000016" class="edge">
<title>Node10&#45;&gt;Node16</title>
<g id="a_edge16_Node000010_Node000016"><a xlink:title=" ">
<path fill="none" stroke="#63b8ff" d="M571.85,-343.29C562.78,-381.51 537.49,-465.57 483,-509.5 474.54,-516.32 463.81,-520.59 453.29,-523.25"/>
<polygon fill="#63b8ff" stroke="#63b8ff" points="575.3,-343.92 574.08,-333.39 568.47,-342.38 575.3,-343.92"/>
</a>
</g>
</g>
<!-- Node17 -->
<g id="Node000017" class="node">
<title>Node17</title>
<g id="a_Node000017"><a xlink:href="testDiffusion_8cpp.html#a7a195f69ab90f31794c50ab37f0520b9" target="_top" xlink:title=" ">
<polygon fill="white" stroke="#666666" points="459,-315 364,-315 364,-296 459,-296 459,-315"/>
<text text-anchor="middle" x="411.5" y="-303" font-family="Ubuntu Mono" font-size="10.00">testCalcJunction</text>
</a>
</g>
</g>
<!-- Node10&#45;&gt;Node17 -->
<g id="edge18_Node000010_Node000017" class="edge">
<title>Node10&#45;&gt;Node17</title>
<g id="a_edge18_Node000010_Node000017"><a xlink:title=" ">
<path fill="none" stroke="#63b8ff" d="M523.28,-317.7C502.63,-315.42 479.15,-312.84 459.13,-310.63"/>
<polygon fill="#63b8ff" stroke="#63b8ff" points="523.15,-321.2 533.47,-318.82 523.91,-314.24 523.15,-321.2"/>
</a>
</g>
</g>
<!-- Node19 -->
<g id="Node000019" class="node">
<title>Node19</title>
<g id="a_Node000019"><a xlink:href="testDiffusion_8cpp.html#a1d6246d49507e6abd2cf028040a79d3e" target="_top" xlink:title=" ">
<polygon fill="white" stroke="#666666" points="450,-278 373,-278 373,-259 450,-259 450,-278"/>
<text text-anchor="middle" x="411.5" y="-266" font-family="Ubuntu Mono" font-size="10.00">testCellDiffn</text>
</a>
</g>
</g>
<!-- Node10&#45;&gt;Node19 -->
<g id="edge20_Node000010_Node000019" class="edge">
<title>Node10&#45;&gt;Node19</title>
<g id="a_edge20_Node000010_Node000019"><a xlink:title=" ">
<path fill="none" stroke="#63b8ff" d="M533.07,-310.75C528.28,-309.09 523.51,-307.33 519,-305.5 502.42,-298.79 499.72,-293.86 483,-287.5 472.57,-283.53 460.98,-280.05 450.26,-277.18"/>
<polygon fill="#63b8ff" stroke="#63b8ff" points="532.24,-314.16 542.83,-314 534.45,-307.52 532.24,-314.16"/>
</a>
</g>
</g>
<!-- Node20 -->
<g id="Node000020" class="node">
<title>Node20</title>
<g id="a_Node000020"><a xlink:href="testDiffusion_8cpp.html#a2dc040eac718807eca494285edbe4456" target="_top" xlink:title=" ">
<polygon fill="white" stroke="#666666" points="448.5,-204 374.5,-204 374.5,-185 448.5,-185 448.5,-204"/>
<text text-anchor="middle" x="411.5" y="-192" font-family="Ubuntu Mono" font-size="10.00">testCylDiffn</text>
</a>
</g>
</g>
<!-- Node10&#45;&gt;Node20 -->
<g id="edge22_Node000010_Node000020" class="edge">
<title>Node10&#45;&gt;Node20</title>
<g id="a_edge22_Node000010_Node000020"><a xlink:title=" ">
<path fill="none" stroke="#63b8ff" d="M524.46,-309.85C522.53,-308.53 520.69,-307.08 519,-305.5 486.93,-275.51 515.7,-242.8 483,-213.5 473.56,-205.04 460.74,-200.29 448.61,-197.64"/>
<polygon fill="#63b8ff" stroke="#63b8ff" points="523.03,-313.05 533.47,-314.84 526.43,-306.93 523.03,-313.05"/>
</a>
</g>
</g>
<!-- Node21 -->
<g id="Node000021" class="node">
<title>Node21</title>
<g id="a_Node000021"><a xlink:href="testDiffusion_8cpp.html#a238b7de92925883788a1b3a0b4ad9c53" target="_top" xlink:title=" ">
<polygon fill="white" stroke="#666666" points="475,-389 348,-389 348,-370 475,-370 475,-389"/>
<text text-anchor="middle" x="411.5" y="-377" font-family="Ubuntu Mono" font-size="10.00">testCylDiffnWithStoich</text>
</a>
</g>
</g>
<!-- Node10&#45;&gt;Node21 -->
<g id="edge24_Node000010_Node000021" class="edge">
<title>Node10&#45;&gt;Node21</title>
<g id="a_edge24_Node000010_Node000021"><a xlink:title=" ">
<path fill="none" stroke="#63b8ff" d="M545.5,-337.2C527.54,-344.96 504.24,-354.49 483,-361.5 473.64,-364.59 463.44,-367.47 453.78,-369.98"/>
<polygon fill="#63b8ff" stroke="#63b8ff" points="547.13,-340.31 554.89,-333.1 544.32,-333.9 547.13,-340.31"/>
</a>
</g>
</g>
<!-- Node22 -->
<g id="Node000022" class="node">
<title>Node22</title>
<g id="a_Node000022"><a xlink:href="testBuiltins_8cpp.html#ae0e71e5c15d8c5e9258b1c3bc4df7ce8" target="_top" xlink:title=" ">
<polygon fill="white" stroke="#666666" points="448,-500 375,-500 375,-481 448,-481 448,-500"/>
<text text-anchor="middle" x="411.5" y="-488" font-family="Ubuntu Mono" font-size="10.00">testGetMsg</text>
</a>
</g>
</g>
<!-- Node10&#45;&gt;Node22 -->
<g id="edge26_Node000010_Node000022" class="edge">
<title>Node10&#45;&gt;Node22</title>
<g id="a_edge26_Node000010_Node000022"><a xlink:title=" ">
<path fill="none" stroke="#63b8ff" d="M569.38,-342.87C557.4,-374.94 529,-438.86 483,-472.5 472.91,-479.88 460.07,-484.25 448.13,-486.82"/>
<polygon fill="#63b8ff" stroke="#63b8ff" points="572.73,-343.9 572.82,-333.3 566.14,-341.53 572.73,-343.9"/>
</a>
</g>
</g>
<!-- Node24 -->
<g id="Node000024" class="node">
<title>Node24</title>
<g id="a_Node000024"><a xlink:href="testKinetics_8cpp.html#aecb5ba8faf06279dca27fa2fe90d620e" target="_top" xlink:title=" ">
<polygon fill="white" stroke="#666666" points="465.5,-167 357.5,-167 357.5,-148 465.5,-148 465.5,-167"/>
<text text-anchor="middle" x="411.5" y="-155" font-family="Ubuntu Mono" font-size="10.00">testMMenzProcess</text>
</a>
</g>
</g>
<!-- Node10&#45;&gt;Node24 -->
<g id="edge28_Node000010_Node000024" class="edge">
<title>Node10&#45;&gt;Node24</title>
<g id="a_edge28_Node000010_Node000024"><a xlink:title=" ">
<path fill="none" stroke="#63b8ff" d="M524.36,-310.13C522.44,-308.74 520.64,-307.2 519,-305.5 477.63,-262.71 525.28,-218.4 483,-176.5 478.14,-171.68 472.19,-168.05 465.83,-165.32"/>
<polygon fill="#63b8ff" stroke="#63b8ff" points="522.98,-313.37 533.39,-315.36 526.49,-307.32 522.98,-313.37"/>
</a>
</g>
</g>
<!-- Node26 -->
<g id="Node000026" class="node">
<title>Node26</title>
<g id="a_Node000026"><a xlink:href="testKsolve_8cpp.html#a5c674b9e01f6de9aa1bc59b30b478732" target="_top" xlink:title=" ">
<polygon fill="white" stroke="#666666" points="455.5,-19 367.5,-19 367.5,0 455.5,0 455.5,-19"/>
<text text-anchor="middle" x="411.5" y="-7" font-family="Ubuntu Mono" font-size="10.00">testRunGsolve</text>
</a>
</g>
</g>
<!-- Node10&#45;&gt;Node26 -->
<g id="edge30_Node000010_Node000026" class="edge">
<title>Node10&#45;&gt;Node26</title>
<g id="a_edge30_Node000010_Node000026"><a xlink:title=" ">
<path fill="none" stroke="#63b8ff" d="M524.68,-310.91C522.61,-309.32 520.69,-307.52 519,-305.5 439.04,-209.96 565.6,-120.77 483,-27.5 475.97,-19.56 465.96,-14.89 455.68,-12.2"/>
<polygon fill="#63b8ff" stroke="#63b8ff" points="523.01,-313.99 533.38,-316.14 526.61,-307.99 523.01,-313.99"/>
</a>
</g>
</g>
<!-- Node28 -->
<g id="Node000028" class="node">
<title>Node28</title>
<g id="a_Node000028"><a xlink:href="testKsolve_8cpp.html#ac26dd54083d1323f446df615420b29c4" target="_top" xlink:title=" ">
<polygon fill="white" stroke="#666666" points="455,-130 368,-130 368,-111 455,-111 455,-130"/>
<text text-anchor="middle" x="411.5" y="-118" font-family="Ubuntu Mono" font-size="10.00">testRunKsolve</text>
</a>
</g>
</g>
<!-- Node10&#45;&gt;Node28 -->
<g id="edge32_Node000010_Node000028" class="edge">
<title>Node10&#45;&gt;Node28</title>
<g id="a_edge32_Node000010_Node000028"><a xlink:title=" ">
<path fill="none" stroke="#63b8ff" d="M524.78,-310.65C522.69,-309.12 520.74,-307.41 519,-305.5 468.14,-249.71 535.04,-194.19 483,-139.5 475.66,-131.79 465.55,-127.09 455.27,-124.26"/>
<polygon fill="#63b8ff" stroke="#63b8ff" points="523.04,-313.69 533.44,-315.7 526.57,-307.64 523.04,-313.69"/>
</a>
</g>
</g>
<!-- Node29 -->
<g id="Node000029" class="node">
<title>Node29</title>
<g id="a_Node000029"><a xlink:href="testKsolve_8cpp.html#a9668b431312f7fdd499139cd42e12084" target="_top" xlink:title=" ">
<polygon fill="white" stroke="#666666" points="483,-56 340,-56 340,-37 483,-37 483,-56"/>
<text text-anchor="middle" x="411.5" y="-44" font-family="Ubuntu Mono" font-size="10.00">testRunKsolveWithLSODA</text>
</a>
</g>
</g>
<!-- Node10&#45;&gt;Node29 -->
<g id="edge34_Node000010_Node000029" class="edge">
<title>Node10&#45;&gt;Node29</title>
<g id="a_edge34_Node000010_Node000029"><a xlink:title=" ">
<path fill="none" stroke="#63b8ff" d="M524.73,-310.87C522.64,-309.29 520.71,-307.5 519,-305.5 448.69,-223.13 555.59,-144.87 483,-64.5 479.95,-61.13 476.37,-58.34 472.46,-56.05"/>
<polygon fill="#63b8ff" stroke="#63b8ff" points="523.08,-313.96 533.46,-316.07 526.66,-307.95 523.08,-313.96"/>
</a>
</g>
</g>
<!-- Node30 -->
<g id="Node000030" class="node">
<title>Node30</title>
<g id="a_Node000030"><a xlink:href="testKsolve_8cpp.html#ae6e4d05873e453809a5efca4f3784664" target="_top" xlink:title=" ">
<polygon fill="white" stroke="#666666" points="455,-93 368,-93 368,-74 455,-74 455,-93"/>
<text text-anchor="middle" x="411.5" y="-81" font-family="Ubuntu Mono" font-size="10.00">testSetupReac</text>
</a>
</g>
</g>
<!-- Node10&#45;&gt;Node30 -->
<g id="edge35_Node000010_Node000030" class="edge">
<title>Node10&#45;&gt;Node30</title>
<g id="a_edge35_Node000010_Node000030"><a xlink:title=" ">
<path fill="none" stroke="#63b8ff" d="M524.69,-310.74C522.62,-309.18 520.71,-307.45 519,-305.5 458.31,-236.27 545.6,-169.01 483,-101.5 475.7,-93.63 465.47,-89 455.07,-86.33"/>
<polygon fill="#63b8ff" stroke="#63b8ff" points="522.9,-313.75 533.29,-315.84 526.48,-307.73 522.9,-313.75"/>
</a>
</g>
</g>
<!-- Node31 -->
<g id="Node000031" class="node">
<title>Node31</title>
<g id="a_Node000031"><a xlink:href="testDiffusion_8cpp.html#a79f4c431fe1f8a466545f2a3bce7ab54" target="_top" xlink:title=" ">
<polygon fill="white" stroke="#666666" points="464,-352 359,-352 359,-333 464,-333 464,-352"/>
<text text-anchor="middle" x="411.5" y="-340" font-family="Ubuntu Mono" font-size="10.00">testSmallCellDiffn</text>
</a>
</g>
</g>
<!-- Node10&#45;&gt;Node31 -->
<g id="edge37_Node000010_Node000031" class="edge">
<title>Node10&#45;&gt;Node31</title>
<g id="a_edge37_Node000010_Node000031"><a xlink:title=" ">
<path fill="none" stroke="#63b8ff" d="M523.49,-329.6C504.49,-331.81 483.07,-334.3 464.15,-336.5"/>
<polygon fill="#63b8ff" stroke="#63b8ff" points="523.94,-333.07 533.47,-328.44 523.13,-326.12 523.94,-333.07"/>
</a>
</g>
</g>
<!-- Node32 -->
<g id="Node000032" class="node">
<title>Node32</title>
<g id="a_Node000032"><a xlink:href="testBuiltins_8cpp.html#a987c1d1f431aee2c2693bbcc26e09ff6" target="_top" xlink:title=" ">
<polygon fill="white" stroke="#666666" points="441.5,-426 381.5,-426 381.5,-407 441.5,-407 441.5,-426"/>
<text text-anchor="middle" x="411.5" y="-414" font-family="Ubuntu Mono" font-size="10.00">testStats</text>
</a>
</g>
</g>
<!-- Node10&#45;&gt;Node32 -->
<g id="edge39_Node000010_Node000032" class="edge">
<title>Node10&#45;&gt;Node32</title>
<g id="a_edge39_Node000010_Node000032"><a xlink:title=" ">
<path fill="none" stroke="#63b8ff" d="M559.8,-340.27C542.37,-357.36 513.07,-383.44 483,-398.5 470.12,-404.95 454.74,-409.22 441.63,-411.98"/>
<polygon fill="#63b8ff" stroke="#63b8ff" points="562.34,-342.67 566.93,-333.12 557.39,-337.73 562.34,-342.67"/>
</a>
</g>
</g>
<!-- Node33 -->
<g id="Node000033" class="node">
<title>Node33</title>
<g id="a_Node000033"><a xlink:href="testDiffusion_8cpp.html#a4ddcfaa56acb38180d6cfd73e8261cb4" target="_top" xlink:title=" ">
<polygon fill="white" stroke="#666666" points="469.5,-241 353.5,-241 353.5,-222 469.5,-222 469.5,-241"/>
<text text-anchor="middle" x="411.5" y="-229" font-family="Ubuntu Mono" font-size="10.00">testTaperingCylDiffn</text>
</a>
</g>
</g>
<!-- Node10&#45;&gt;Node33 -->
<g id="edge41_Node000010_Node000033" class="edge">
<title>Node10&#45;&gt;Node33</title>
<g id="a_edge41_Node000010_Node000033"><a xlink:title=" ">
<path fill="none" stroke="#63b8ff" d="M524.73,-309.32C522.74,-308.15 520.81,-306.88 519,-305.5 495.72,-287.85 506.65,-267.65 483,-250.5 477.66,-246.63 471.59,-243.55 465.29,-241.1"/>
<polygon fill="#63b8ff" stroke="#63b8ff" points="523.37,-312.55 533.88,-313.89 526.5,-306.29 523.37,-312.55"/>
</a>
</g>
</g>
<!-- Node13 -->
<g id="Node000013" class="node">
<title>Node13</title>
<g id="a_Node000013"><a xlink:href="classShell.html#a506ff431369e3bce87f0e6c767fe475c" target="_top" xlink:title="Returns the Id of the loaded model.">
<polygon fill="white" stroke="#666666" points="304,-574 192,-574 192,-555 304,-555 304,-574"/>
<text text-anchor="middle" x="248" y="-562" font-family="Ubuntu Mono" font-size="10.00">Shell::doLoadModel</text>
</a>
</g>
</g>
<!-- Node12&#45;&gt;Node13 -->
<g id="edge13_Node000012_Node000013" class="edge">
<title>Node12&#45;&gt;Node13</title>
<g id="a_edge13_Node000012_Node000013"><a xlink:title=" ">
<path fill="none" stroke="#63b8ff" d="M356.54,-564.5C339.64,-564.5 320.98,-564.5 304.02,-564.5"/>
<polygon fill="#63b8ff" stroke="#63b8ff" points="356.8,-568 366.8,-564.5 356.8,-561 356.8,-568"/>
</a>
</g>
</g>
<!-- Node15 -->
<g id="Node000015" class="node">
<title>Node15</title>
<g id="a_Node000015"><a xlink:href="testKinetics_8cpp.html#a484ee971354e15c7a0dcf17fd1b0a8fa" target="_top" xlink:title=" ">
<polygon fill="white" stroke="#666666" points="288,-537 208,-537 208,-518 288,-518 288,-537"/>
<text text-anchor="middle" x="248" y="-525" font-family="Ubuntu Mono" font-size="10.00">testReadKkit</text>
</a>
</g>
</g>
<!-- Node12&#45;&gt;Node15 -->
<g id="edge15_Node000012_Node000015" class="edge">
<title>Node12&#45;&gt;Node15</title>
<g id="a_edge15_Node000012_Node000015"><a xlink:title=" ">
<path fill="none" stroke="#63b8ff" d="M359,-552.7C336.07,-547.45 309.51,-541.36 288.23,-536.49"/>
<polygon fill="#63b8ff" stroke="#63b8ff" points="358.38,-556.15 368.91,-554.97 359.94,-549.33 358.38,-556.15"/>
</a>
</g>
</g>
<!-- Node14 -->
<g id="Node000014" class="node">
<title>Node14</title>
<g id="a_Node000014"><a xlink:href="namespacepymoose.html#a995d880f6c2e5cfb0545ec3640f76eef" target="_top" xlink:title="Model loaders built into Shell, others can be implemented in Python.">
<polygon fill="white" stroke="#666666" points="156,-574 0,-574 0,-555 156,-555 156,-574"/>
<text text-anchor="middle" x="78" y="-562" font-family="Ubuntu Mono" font-size="10.00">pymoose::loadModelInternal</text>
</a>
</g>
</g>
<!-- Node13&#45;&gt;Node14 -->
<g id="edge14_Node000013_Node000014" class="edge">
<title>Node13&#45;&gt;Node14</title>
<g id="a_edge14_Node000013_Node000014"><a xlink:title=" ">
<path fill="none" stroke="#63b8ff" d="M181.85,-564.5C173.41,-564.5 164.7,-564.5 156.09,-564.5"/>
<polygon fill="#63b8ff" stroke="#63b8ff" points="181.99,-568 191.99,-564.5 181.99,-561 181.99,-568"/>
</a>
</g>
</g>
<!-- Node16&#45;&gt;Node15 -->
<g id="edge17_Node000016_Node000015" class="edge">
<title>Node16&#45;&gt;Node15</title>
<g id="a_edge17_Node000016_Node000015"><a xlink:title=" ">
<path fill="none" stroke="#63b8ff" d="M359.44,-527.5C336.35,-527.5 309.51,-527.5 288.07,-527.5"/>
<polygon fill="#63b8ff" stroke="#63b8ff" points="359.75,-531 369.75,-527.5 359.75,-524 359.75,-531"/>
</a>
</g>
</g>
<!-- Node18 -->
<g id="Node000018" class="node">
<title>Node18</title>
<g id="a_Node000018"><a xlink:href="testDiffusion_8cpp.html#a839cef97ff91dc606a720be9cdc18709" target="_top" xlink:title=" ">
<polygon fill="white" stroke="#666666" points="287.5,-296 208.5,-296 208.5,-277 287.5,-277 287.5,-296"/>
<text text-anchor="middle" x="248" y="-284" font-family="Ubuntu Mono" font-size="10.00">testDiffusion</text>
</a>
</g>
</g>
<!-- Node17&#45;&gt;Node18 -->
<g id="edge19_Node000017_Node000018" class="edge">
<title>Node17&#45;&gt;Node18</title>
<g id="a_edge19_Node000017_Node000018"><a xlink:title=" ">
<path fill="none" stroke="#63b8ff" d="M353.64,-298.81C331.82,-296.24 307.44,-293.38 287.71,-291.05"/>
<polygon fill="#63b8ff" stroke="#63b8ff" points="353.45,-302.31 363.79,-300 354.26,-295.36 353.45,-302.31"/>
</a>
</g>
</g>
<!-- Node19&#45;&gt;Node18 -->
<g id="edge21_Node000019_Node000018" class="edge">
<title>Node19&#45;&gt;Node18</title>
<g id="a_edge21_Node000019_Node000018"><a xlink:title=" ">
<path fill="none" stroke="#63b8ff" d="M362.39,-273.86C338.56,-276.52 310.16,-279.68 287.75,-282.18"/>
<polygon fill="#63b8ff" stroke="#63b8ff" points="363.08,-277.31 372.64,-272.72 362.31,-270.35 363.08,-277.31"/>
</a>
</g>
</g>
<!-- Node20&#45;&gt;Node18 -->
<g id="edge23_Node000020_Node000018" class="edge">
<title>Node20&#45;&gt;Node18</title>
<g id="a_edge23_Node000020_Node000018"><a xlink:title=" ">
<path fill="none" stroke="#63b8ff" d="M364.55,-203.93C356.15,-206.47 347.64,-209.62 340,-213.5 306.41,-230.55 273.59,-261.36 258.16,-276.94"/>
<polygon fill="#63b8ff" stroke="#63b8ff" points="365.6,-207.27 374.3,-201.22 363.73,-200.52 365.6,-207.27"/>
</a>
</g>
</g>
<!-- Node21&#45;&gt;Node18 -->
<g id="edge25_Node000021_Node000018" class="edge">
<title>Node21&#45;&gt;Node18</title>
<g id="a_edge25_Node000021_Node000018"><a xlink:title=" ">
<path fill="none" stroke="#63b8ff" d="M351.74,-366.64C347.69,-365.11 343.74,-363.4 340,-361.5 305.86,-344.17 273.04,-312.14 257.83,-296.13"/>
<polygon fill="#63b8ff" stroke="#63b8ff" points="350.72,-369.99 361.31,-369.92 352.99,-363.37 350.72,-369.99"/>
</a>
</g>
</g>
<!-- Node23 -->
<g id="Node000023" class="node">
<title>Node23</title>
<g id="a_Node000023"><a xlink:href="testBuiltins_8cpp.html#a71c9f0da70769f975f229b1b749c609b" target="_top" xlink:title=" ">
<polygon fill="white" stroke="#666666" points="303,-463 193,-463 193,-444 303,-444 303,-463"/>
<text text-anchor="middle" x="248" y="-451" font-family="Ubuntu Mono" font-size="10.00">testBuiltinsProcess</text>
</a>
</g>
</g>
<!-- Node22&#45;&gt;Node23 -->
<g id="edge27_Node000022_Node000023" class="edge">
<title>Node22&#45;&gt;Node23</title>
<g id="a_edge27_Node000022_Node000023"><a xlink:title=" ">
<path fill="none" stroke="#63b8ff" d="M364.68,-480C341.43,-474.68 313.39,-468.25 290.74,-463.06"/>
<polygon fill="#63b8ff" stroke="#63b8ff" points="364.13,-483.47 374.66,-482.29 365.69,-476.64 364.13,-483.47"/>
</a>
</g>
</g>
<!-- Node25 -->
<g id="Node000025" class="node">
<title>Node25</title>
<g id="a_Node000025"><a xlink:href="testKinetics_8cpp.html#afb125a1c8f70a2522c78d767e4b199ae" target="_top" xlink:title=" ">
<polygon fill="white" stroke="#666666" points="304,-167 192,-167 192,-148 304,-148 304,-167"/>
<text text-anchor="middle" x="248" y="-155" font-family="Ubuntu Mono" font-size="10.00">testKineticsProcess</text>
</a>
</g>
</g>
<!-- Node24&#45;&gt;Node25 -->
<g id="edge29_Node000024_Node000025" class="edge">
<title>Node24&#45;&gt;Node25</title>
<g id="a_edge29_Node000024_Node000025"><a xlink:title=" ">
<path fill="none" stroke="#63b8ff" d="M347.03,-157.5C332.88,-157.5 317.99,-157.5 304.21,-157.5"/>
<polygon fill="#63b8ff" stroke="#63b8ff" points="347.17,-161 357.17,-157.5 347.17,-154 347.17,-161"/>
</a>
</g>
</g>
<!-- Node27 -->
<g id="Node000027" class="node">
<title>Node27</title>
<g id="a_Node000027"><a xlink:href="testKsolve_8cpp.html#a59de32e18c1cbdf71850c5ab93749996" target="_top" xlink:title=" ">
<polygon fill="white" stroke="#666666" points="282,-93 214,-93 214,-74 282,-74 282,-93"/>
<text text-anchor="middle" x="248" y="-81" font-family="Ubuntu Mono" font-size="10.00">testKsolve</text>
</a>
</g>
</g>
<!-- Node26&#45;&gt;Node27 -->
<g id="edge31_Node000026_Node000027" class="edge">
<title>Node26&#45;&gt;Node27</title>
<g id="a_edge31_Node000026_Node000027"><a xlink:title=" ">
<path fill="none" stroke="#63b8ff" d="M357.34,-21.22C351.4,-23.08 345.51,-25.16 340,-27.5 310.28,-40.09 278.92,-61.44 261.88,-73.82"/>
<polygon fill="#63b8ff" stroke="#63b8ff" points="358.69,-24.48 367.32,-18.33 356.74,-17.75 358.69,-24.48"/>
</a>
</g>
</g>
<!-- Node28&#45;&gt;Node27 -->
<g id="edge33_Node000028_Node000027" class="edge">
<title>Node28&#45;&gt;Node27</title>
<g id="a_edge33_Node000028_Node000027"><a xlink:title=" ">
<path fill="none" stroke="#63b8ff" d="M359.12,-108.73C333.89,-102.95 304.23,-96.15 282.05,-91.07"/>
<polygon fill="#63b8ff" stroke="#63b8ff" points="358.38,-112.15 368.91,-110.97 359.94,-105.33 358.38,-112.15"/>
</a>
</g>
</g>
<!-- Node30&#45;&gt;Node27 -->
<g id="edge36_Node000030_Node000027" class="edge">
<title>Node30&#45;&gt;Node27</title>
<g id="a_edge36_Node000030_Node000027"><a xlink:title=" ">
<path fill="none" stroke="#63b8ff" d="M357.61,-83.5C332.72,-83.5 303.8,-83.5 282.06,-83.5"/>
<polygon fill="#63b8ff" stroke="#63b8ff" points="357.65,-87 367.64,-83.5 357.64,-80 357.65,-87"/>
</a>
</g>
</g>
<!-- Node31&#45;&gt;Node18 -->
<g id="edge38_Node000031_Node000018" class="edge">
<title>Node31&#45;&gt;Node18</title>
<g id="a_edge38_Node000031_Node000018"><a xlink:title=" ">
<path fill="none" stroke="#63b8ff" d="M358.85,-330.24C352.46,-328.45 346.05,-326.52 340,-324.5 315.32,-316.25 287.87,-304.4 269.63,-296.13"/>
<polygon fill="#63b8ff" stroke="#63b8ff" points="358.26,-333.7 368.83,-332.93 360.08,-326.95 358.26,-333.7"/>
</a>
</g>
</g>
<!-- Node32&#45;&gt;Node23 -->
<g id="edge40_Node000032_Node000023" class="edge">
<title>Node32&#45;&gt;Node23</title>
<g id="a_edge40_Node000032_Node000023"><a xlink:title=" ">
<path fill="none" stroke="#63b8ff" d="M371.24,-425.5C346.78,-431.1 315.35,-438.3 290.48,-444"/>
<polygon fill="#63b8ff" stroke="#63b8ff" points="372.29,-428.85 381.25,-423.2 370.72,-422.02 372.29,-428.85"/>
</a>
</g>
</g>
<!-- Node33&#45;&gt;Node18 -->
<g id="edge42_Node000033_Node000018" class="edge">
<title>Node33&#45;&gt;Node18</title>
<g id="a_edge42_Node000033_Node000018"><a xlink:title=" ">
<path fill="none" stroke="#63b8ff" d="M362.16,-243.75C354.7,-245.86 347.11,-248.14 340,-250.5 316.13,-258.41 289.45,-269.21 271.18,-276.91"/>
<polygon fill="#63b8ff" stroke="#63b8ff" points="363.14,-247.11 371.85,-241.07 361.28,-240.36 363.14,-247.11"/>
</a>
</g>
</g>
</g>
</svg>

<g id="navigator" transform="translate(0 0)" fill="#404254">
  <rect fill="#f2f5e9" fill-opacity="0.5" stroke="#606060" stroke-width=".5" x="0" y="0" width="60" height="60"/>
  <use id="zoomplus" xlink:href="#zoomPlus" x="17" y="9" onmousedown="handleZoom(evt,'in')"/>
  <use id="zoomminus" xlink:href="#zoomMin" x="42" y="9" onmousedown="handleZoom(evt,'out')"/>
  <use id="reset" xlink:href="#resetDef" x="30" y="36" onmousedown="handleReset()"/>
   <use id="arrowup" xlink:href="#arrowUp" x="0" y="0" onmousedown="handlePan(0,-1)"/>
  <use id="arrowright" xlink:href="#arrowRight" x="0" y="0" onmousedown="handlePan(1,0)"/>
  <use id="arrowdown" xlink:href="#arrowDown" x="0" y="0" onmousedown="handlePan(0,1)"/>
  <use id="arrowleft" xlink:href="#arrowLeft" x="0" y="0" onmousedown="handlePan(-1,0)"/>
</g>
<svg viewBox="0 0 15 15" width="100%" height="30px" preserveAspectRatio="xMaxYMin meet">
 <g id="arrow_out" transform="scale(0.3 0.3)">
  <a xlink:href="classHopIndex_a138717199a42330787b062d43a4678ff_icgraph_org.svg" target="_base">
   <rect id="button" ry="5" rx="5" y="6" x="6" height="38" width="38"
        fill="#f2f5e9" fill-opacity="0.5" stroke="#606060" stroke-width="1.0"/>
   <path id="arrow"
     d="M 11.500037,31.436501 C 11.940474,20.09759 22.043105,11.32322 32.158766,21.979434 L 37.068811,17.246167 C 37.068811,17.246167 37.088388,32 37.088388,32 L 22.160133,31.978069 C 22.160133,31.978069 26.997745,27.140456 26.997745,27.140456 C 18.528582,18.264221 13.291696,25.230495 11.500037,31.436501 z"
     style="fill:#404040;"/>
  </a>
 </g>
</svg>

<style type='text/css'>
<![CDATA[
[data-mouse-over-selected='false'] { opacity: 0.7; }
[data-mouse-over-selected='true']  { opacity: 1.0; }
]]>
</style>
<script type="application/ecmascript"><![CDATA[
document.addEventListener('DOMContentLoaded', (event) => {
  highlightEdges();
  highlightAdjacentNodes();
});
]]></script>
</svg>
