<?xml version="1.0" encoding="UTF-8" standalone="no"?>
<!DOCTYPE svg PUBLIC "-//W3C//DTD SVG 1.1//EN"
 "http://www.w3.org/Graphics/SVG/1.1/DTD/svg11.dtd">
<!-- Generated by graphviz version 2.43.0 (0)
 -->
<!-- Title: SparseMatrix::clear Pages: 1 -->
<svg width="1224pt" height="787pt"
 viewBox="0.00 0.00 1224.00 787.00" xmlns="http://www.w3.org/2000/svg" xmlns:xlink="http://www.w3.org/1999/xlink">
<g id="graph0" class="graph" transform="scale(1 1) rotate(0) translate(4 783)">
<title>SparseMatrix::clear</title>
<!-- Node1 -->
<g id="Node000001" class="node">
<title>Node1</title>
<g id="a_Node000001"><a xlink:title=" ">
<polygon fill="#999999" stroke="#666666" points="1216,-390 1105,-390 1105,-371 1216,-371 1216,-390"/>
<text text-anchor="middle" x="1160.5" y="-378" font-family="Ubuntu Mono" font-size="10.00">SparseMatrix::clear</text>
</a>
</g>
</g>
<!-- Node2 -->
<g id="Node000002" class="node">
<title>Node2</title>
<g id="a_Node000002"><a xlink:href="classSparseMsg.html#ad8cfaa7cd4528811b7f1a081f42a9f97" target="_top" xlink:title=" ">
<polygon fill="white" stroke="#666666" points="1041.5,-761 941.5,-761 941.5,-742 1041.5,-742 1041.5,-761"/>
<text text-anchor="middle" x="991.5" y="-749" font-family="Ubuntu Mono" font-size="10.00">SparseMsg::clear</text>
</a>
</g>
</g>
<!-- Node1&#45;&gt;Node2 -->
<g id="edge1_Node000001_Node000002" class="edge">
<title>Node1&#45;&gt;Node2</title>
<g id="a_edge1_Node000001_Node000002"><a xlink:title=" ">
<path fill="none" stroke="#63b8ff" d="M1158.28,-400.32C1154.17,-453.16 1136.92,-599.98 1069,-696.5 1054.6,-716.97 1030.09,-732.62 1012.69,-741.89"/>
<polygon fill="#63b8ff" stroke="#63b8ff" points="1161.78,-400.48 1158.99,-390.26 1154.8,-399.99 1161.78,-400.48"/>
</a>
</g>
</g>
<!-- Node9 -->
<g id="Node000009" class="node">
<title>Node9</title>
<g id="a_Node000009"><a xlink:href="classMeshCompt.html#abb421136c1f46decfb6ec994b01a3453" target="_top" xlink:title="Add boundary voxels to stencil for cross&#45;solver junctions.">
<polygon fill="white" stroke="#666666" points="1065.5,-372 917.5,-372 917.5,-353 1065.5,-353 1065.5,-372"/>
<text text-anchor="middle" x="991.5" y="-360" font-family="Ubuntu Mono" font-size="10.00">MeshCompt::extendStencil</text>
</a>
</g>
</g>
<!-- Node1&#45;&gt;Node9 -->
<g id="edge6_Node000001_Node000009" class="edge">
<title>Node1&#45;&gt;Node9</title>
<g id="a_edge6_Node000001_Node000009"><a xlink:title=" ">
<path fill="none" stroke="#63b8ff" d="M1094.63,-373.51C1085.09,-372.48 1075.21,-371.41 1065.52,-370.37"/>
<polygon fill="#63b8ff" stroke="#63b8ff" points="1094.5,-377.01 1104.82,-374.61 1095.25,-370.05 1094.5,-377.01"/>
</a>
</g>
</g>
<!-- Node12 -->
<g id="Node000012" class="node">
<title>Node12</title>
<g id="a_Node000012"><a xlink:href="classSparseMsg.html#a7919cb74e7e48301d61da03fbe0460ff" target="_top" xlink:title=" ">
<polygon fill="white" stroke="#666666" points="1068,-687 915,-687 915,-668 1068,-668 1068,-687"/>
<text text-anchor="middle" x="991.5" y="-675" font-family="Ubuntu Mono" font-size="10.00">SparseMsg::randomConnect</text>
</a>
</g>
</g>
<!-- Node1&#45;&gt;Node12 -->
<g id="edge9_Node000001_Node000012" class="edge">
<title>Node1&#45;&gt;Node12</title>
<g id="a_edge9_Node000001_Node000012"><a xlink:title=" ">
<path fill="none" stroke="#63b8ff" d="M1149.12,-398.97C1117.28,-455.58 1021.76,-625.46 997.93,-667.84"/>
<polygon fill="#63b8ff" stroke="#63b8ff" points="1152.28,-400.48 1154.13,-390.05 1146.18,-397.05 1152.28,-400.48"/>
</a>
</g>
</g>
<!-- Node99 -->
<g id="Node000099" class="node">
<title>Node99</title>
<g id="a_Node000099"><a xlink:href="classMeshCompt.html#a3dc8eb0fdcddcf79579584e1060c83b0" target="_top" xlink:title=" ">
<polygon fill="white" stroke="#666666" points="1066,-409 917,-409 917,-390 1066,-390 1066,-409"/>
<text text-anchor="middle" x="991.5" y="-397" font-family="Ubuntu Mono" font-size="10.00">MeshCompt::setStencilSize</text>
</a>
</g>
</g>
<!-- Node1&#45;&gt;Node99 -->
<g id="edge21_Node000001_Node000099" class="edge">
<title>Node1&#45;&gt;Node99</title>
<g id="a_edge21_Node000001_Node000099"><a xlink:title=" ">
<path fill="none" stroke="#63b8ff" d="M1094.78,-387.86C1085.39,-388.93 1075.67,-390.04 1066.12,-391.12"/>
<polygon fill="#63b8ff" stroke="#63b8ff" points="1095.28,-391.33 1104.82,-386.72 1094.49,-384.37 1095.28,-391.33"/>
</a>
</g>
</g>
<!-- Node161 -->
<g id="Node000161" class="node">
<title>Node161</title>
<g id="a_Node000161"><a xlink:href="classFastMatrixElim.html#ad534bd7ba1876a591d78fd1bc907441d" target="_top" xlink:title=" ">
<polygon fill="white" stroke="#666666" points="1069,-335 914,-335 914,-316 1069,-316 1069,-335"/>
<text text-anchor="middle" x="991.5" y="-323" font-family="Ubuntu Mono" font-size="10.00">FastMatrixElim::shuffleRows</text>
</a>
</g>
</g>
<!-- Node1&#45;&gt;Node161 -->
<g id="edge50_Node000001_Node000161" class="edge">
<title>Node1&#45;&gt;Node161</title>
<g id="a_edge50_Node000001_Node000161"><a xlink:title=" ">
<path fill="none" stroke="#63b8ff" d="M1128.28,-366.87C1111.01,-359.64 1089.05,-350.95 1069,-344.5 1058.19,-341.02 1046.34,-337.8 1035.28,-335.04"/>
<polygon fill="#63b8ff" stroke="#63b8ff" points="1127.28,-370.25 1137.86,-370.93 1130.02,-363.8 1127.28,-370.25"/>
</a>
</g>
</g>
<!-- Node167 -->
<g id="Node000167" class="node">
<title>Node167</title>
<g id="a_Node000167"><a xlink:href="testAsync_8cpp.html#ad615b48e61b49f66cfdda886c907ed5b" target="_top" xlink:title=" ">
<polygon fill="white" stroke="#666666" points="1044.5,-298 938.5,-298 938.5,-279 1044.5,-279 1044.5,-298"/>
<text text-anchor="middle" x="991.5" y="-286" font-family="Ubuntu Mono" font-size="10.00">testSparseMatrix2</text>
</a>
</g>
</g>
<!-- Node1&#45;&gt;Node167 -->
<g id="edge54_Node000001_Node000167" class="edge">
<title>Node1&#45;&gt;Node167</title>
<g id="a_edge54_Node000001_Node000167"><a xlink:title=" ">
<path fill="none" stroke="#63b8ff" d="M1143.02,-363.42C1125.99,-346.74 1097.9,-321.86 1069,-307.5 1061.28,-303.66 1052.73,-300.57 1044.22,-298.07"/>
<polygon fill="#63b8ff" stroke="#63b8ff" points="1140.9,-366.25 1150.44,-370.86 1145.86,-361.31 1140.9,-366.25"/>
</a>
</g>
</g>
<!-- Node3 -->
<g id="Node000003" class="node">
<title>Node3</title>
<g id="a_Node000003"><a xlink:href="classSparseMsg.html#ab0ecf3046d28351986deb6790d2c7668" target="_top" xlink:title=" ">
<polygon fill="white" stroke="#666666" points="622,-761 505,-761 505,-742 622,-742 622,-761"/>
<text text-anchor="middle" x="563.5" y="-749" font-family="Ubuntu Mono" font-size="10.00">SparseMsg::initCinfo</text>
</a>
</g>
</g>
<!-- Node2&#45;&gt;Node3 -->
<g id="edge2_Node000002_Node000003" class="edge">
<title>Node2&#45;&gt;Node3</title>
<g id="a_edge2_Node000002_Node000003"><a xlink:title=" ">
<path fill="none" stroke="#63b8ff" d="M934.69,-762.82C916.68,-765.97 896.57,-768.94 878,-770.5 792.52,-777.67 770.52,-777.2 685,-770.5 661.35,-768.65 635.33,-764.78 613.54,-761.01"/>
<polygon fill="#63b8ff" stroke="#63b8ff" points="935.52,-766.23 944.74,-761.01 934.28,-759.34 935.52,-766.23"/>
</a>
</g>
</g>
<!-- Node4 -->
<g id="Node000004" class="node">
<title>Node4</title>
<g id="a_Node000004"><a xlink:href="classMsg.html#af3de05897dc7602c64678a31c58ebece" target="_top" xlink:title=" ">
<polygon fill="white" stroke="#666666" points="428,-761 301,-761 301,-742 428,-742 428,-761"/>
<text text-anchor="middle" x="364.5" y="-749" font-family="Ubuntu Mono" font-size="10.00">Msg::initMsgManagers</text>
</a>
</g>
</g>
<!-- Node3&#45;&gt;Node4 -->
<g id="edge3_Node000003_Node000004" class="edge">
<title>Node3&#45;&gt;Node4</title>
<g id="a_edge3_Node000003_Node000004"><a xlink:title=" ">
<path fill="none" stroke="#63b8ff" d="M494.91,-751.5C473.31,-751.5 449.5,-751.5 428.25,-751.5"/>
<polygon fill="#63b8ff" stroke="#63b8ff" points="494.99,-755 504.99,-751.5 494.99,-748 494.99,-755"/>
</a>
</g>
</g>
<!-- Node5 -->
<g id="Node000005" class="node">
<title>Node5</title>
<g id="a_Node000005"><a xlink:href="main_8cpp.html#a6e304b494f9a324f952d9f2033b2b136" target="_top" xlink:title=" ">
<polygon fill="#fff0f0" stroke="red" points="190.5,-742 158.5,-742 158.5,-723 190.5,-723 190.5,-742"/>
<text text-anchor="middle" x="174.5" y="-730" font-family="Ubuntu Mono" font-size="10.00">init</text>
</a>
</g>
</g>
<!-- Node4&#45;&gt;Node5 -->
<g id="edge4_Node000004_Node000005" class="edge">
<title>Node4&#45;&gt;Node5</title>
<g id="a_edge4_Node000004_Node000005"><a xlink:title=" ">
<path fill="none" stroke="#63b8ff" d="M290.66,-744.14C253.85,-740.42 212.48,-736.24 190.74,-734.04"/>
<polygon fill="#63b8ff" stroke="#63b8ff" points="290.6,-747.65 300.9,-745.17 291.3,-740.69 290.6,-747.65"/>
</a>
</g>
</g>
<!-- Node7 -->
<g id="Node000007" class="node">
<title>Node7</title>
<g id="a_Node000007"><a xlink:href="namespacepymoose.html#ac084ce08f68367317e7c014c61520ac9" target="_top" xlink:title="Initialize shell object.">
<polygon fill="#fff0f0" stroke="red" points="228,-779 121,-779 121,-760 228,-760 228,-779"/>
<text text-anchor="middle" x="174.5" y="-767" font-family="Ubuntu Mono" font-size="10.00">pymoose::initShell</text>
</a>
</g>
</g>
<!-- Node4&#45;&gt;Node7 -->
<g id="edge5_Node000004_Node000007" class="edge">
<title>Node4&#45;&gt;Node7</title>
<g id="a_edge5_Node000004_Node000007"><a xlink:title=" ">
<path fill="none" stroke="#63b8ff" d="M290.78,-758.46C269.89,-760.46 247.52,-762.6 228.1,-764.46"/>
<polygon fill="#63b8ff" stroke="#63b8ff" points="291.28,-761.93 300.9,-757.49 290.61,-754.96 291.28,-761.93"/>
</a>
</g>
</g>
<!-- Node10 -->
<g id="Node000010" class="node">
<title>Node10</title>
<g id="a_Node000010"><a xlink:href="testMesh_8cpp.html#a18d83fbb87a6057ceee2198c71f061f5" target="_top" xlink:title=" ">
<polygon fill="white" stroke="#666666" points="251,-317 98,-317 98,-298 251,-298 251,-317"/>
<text text-anchor="middle" x="174.5" y="-305" font-family="Ubuntu Mono" font-size="10.00">testCubeMeshExtendStencil</text>
</a>
</g>
</g>
<!-- Node9&#45;&gt;Node10 -->
<g id="edge7_Node000009_Node000010" class="edge">
<title>Node9&#45;&gt;Node10</title>
<g id="a_edge7_Node000009_Node000010"><a xlink:title=" ">
<path fill="none" stroke="#63b8ff" d="M918.21,-347.79C916.75,-346.76 915.35,-345.67 914,-344.5 880.83,-315.73 909.72,-282.86 878,-252.5 730.07,-110.9 644.01,-137.07 442,-103.5 374.04,-92.21 346.25,-68.36 287,-103.5 211.67,-148.18 183.93,-263.69 177.23,-297.85"/>
<polygon fill="#63b8ff" stroke="#63b8ff" points="916.68,-350.95 927.08,-352.96 920.2,-344.9 916.68,-350.95"/>
</a>
</g>
</g>
<!-- Node11 -->
<g id="Node000011" class="node">
<title>Node11</title>
<g id="a_Node000011"><a xlink:href="testMesh_8cpp.html#a02dc1e0f9b4ca2aaf1c8ad1903d71165" target="_top" xlink:title=" ">
<polygon fill="white" stroke="#666666" points="62,-317 0,-317 0,-298 62,-298 62,-317"/>
<text text-anchor="middle" x="31" y="-305" font-family="Ubuntu Mono" font-size="10.00">testMesh</text>
</a>
</g>
</g>
<!-- Node10&#45;&gt;Node11 -->
<g id="edge8_Node000010_Node000011" class="edge">
<title>Node10&#45;&gt;Node11</title>
<g id="a_edge8_Node000010_Node000011"><a xlink:title=" ">
<path fill="none" stroke="#63b8ff" d="M87.51,-307.5C78.52,-307.5 69.87,-307.5 62.18,-307.5"/>
<polygon fill="#63b8ff" stroke="#63b8ff" points="87.78,-311 97.78,-307.5 87.78,-304 87.78,-311"/>
</a>
</g>
</g>
<!-- Node13 -->
<g id="Node000013" class="node">
<title>Node13</title>
<g id="a_Node000013"><a xlink:href="classSparseMsg.html#ae373bb86ddc8bad9fc343758a7fb0338" target="_top" xlink:title=" ">
<polygon fill="white" stroke="#666666" points="853,-761 710,-761 710,-742 853,-742 853,-761"/>
<text text-anchor="middle" x="781.5" y="-749" font-family="Ubuntu Mono" font-size="10.00">SparseMsg::setProbability</text>
</a>
</g>
</g>
<!-- Node12&#45;&gt;Node13 -->
<g id="edge10_Node000012_Node000013" class="edge">
<title>Node12&#45;&gt;Node13</title>
<g id="a_edge10_Node000012_Node000013"><a xlink:title=" ">
<path fill="none" stroke="#63b8ff" d="M965.94,-692.21C943.7,-704.91 909.67,-722.86 878,-733.5 868,-736.86 857.2,-739.65 846.57,-741.95"/>
<polygon fill="#63b8ff" stroke="#63b8ff" points="967.82,-695.17 974.71,-687.12 964.3,-689.11 967.82,-695.17"/>
</a>
</g>
</g>
<!-- Node14 -->
<g id="Node000014" class="node">
<title>Node14</title>
<g id="a_Node000014"><a xlink:href="classSparseMsg.html#ae4d410a4061ea8c2e9e403b337868f1a" target="_top" xlink:title=" ">
<polygon fill="white" stroke="#666666" points="878,-724 685,-724 685,-705 878,-705 878,-724"/>
<text text-anchor="middle" x="781.5" y="-712" font-family="Ubuntu Mono" font-size="10.00">SparseMsg::setRandomConnectivity</text>
</a>
</g>
</g>
<!-- Node12&#45;&gt;Node14 -->
<g id="edge12_Node000012_Node000014" class="edge">
<title>Node12&#45;&gt;Node14</title>
<g id="a_edge12_Node000012_Node000014"><a xlink:title=" ">
<path fill="none" stroke="#63b8ff" d="M926.9,-688.81C897.9,-693.97 863.94,-700.01 836.24,-704.94"/>
<polygon fill="#63b8ff" stroke="#63b8ff" points="927.7,-692.23 936.93,-687.03 926.48,-685.33 927.7,-692.23"/>
</a>
</g>
</g>
<!-- Node15 -->
<g id="Node000015" class="node">
<title>Node15</title>
<g id="a_Node000015"><a xlink:href="classSparseMsg.html#af9033c3e88a3d8ed2876fb476419ea79" target="_top" xlink:title=" ">
<polygon fill="white" stroke="#666666" points="839,-687 724,-687 724,-668 839,-668 839,-687"/>
<text text-anchor="middle" x="781.5" y="-675" font-family="Ubuntu Mono" font-size="10.00">SparseMsg::setSeed</text>
</a>
</g>
</g>
<!-- Node12&#45;&gt;Node15 -->
<g id="edge14_Node000012_Node000015" class="edge">
<title>Node12&#45;&gt;Node15</title>
<g id="a_edge14_Node000012_Node000015"><a xlink:title=" ">
<path fill="none" stroke="#63b8ff" d="M904.76,-677.5C882.66,-677.5 859.42,-677.5 839.21,-677.5"/>
<polygon fill="#63b8ff" stroke="#63b8ff" points="904.82,-681 914.82,-677.5 904.82,-674 904.82,-681"/>
</a>
</g>
</g>
<!-- Node98 -->
<g id="Node000098" class="node">
<title>Node98</title>
<g id="a_Node000098"><a xlink:href="testAsync_8cpp.html#a5c9622ce2d8da21ebf145351a41856d7" target="_top" xlink:title=" ">
<polygon fill="white" stroke="#666666" points="409,-650 320,-650 320,-631 409,-631 409,-650"/>
<text text-anchor="middle" x="364.5" y="-638" font-family="Ubuntu Mono" font-size="10.00">testSparseMsg</text>
</a>
</g>
</g>
<!-- Node12&#45;&gt;Node98 -->
<g id="edge20_Node000012_Node000098" class="edge">
<title>Node12&#45;&gt;Node98</title>
<g id="a_edge20_Node000012_Node000098"><a xlink:title=" ">
<path fill="none" stroke="#63b8ff" d="M929.3,-666.32C912.71,-663.67 894.71,-661.14 878,-659.5 704.99,-642.52 497.76,-640.39 409.16,-640.33"/>
<polygon fill="#63b8ff" stroke="#63b8ff" points="928.99,-669.82 939.43,-667.98 930.12,-662.91 928.99,-669.82"/>
</a>
</g>
</g>
<!-- Node13&#45;&gt;Node3 -->
<g id="edge11_Node000013_Node000003" class="edge">
<title>Node13&#45;&gt;Node3</title>
<g id="a_edge11_Node000013_Node000003"><a xlink:title=" ">
<path fill="none" stroke="#63b8ff" d="M699.63,-751.5C673.84,-751.5 645.85,-751.5 622.06,-751.5"/>
<polygon fill="#63b8ff" stroke="#63b8ff" points="699.77,-755 709.77,-751.5 699.77,-748 699.77,-755"/>
</a>
</g>
</g>
<!-- Node14&#45;&gt;Node3 -->
<g id="edge13_Node000014_Node000003" class="edge">
<title>Node14&#45;&gt;Node3</title>
<g id="a_edge13_Node000014_Node000003"><a xlink:title=" ">
<path fill="none" stroke="#63b8ff" d="M714.85,-725.75C684.65,-730.92 649.2,-736.99 620.31,-741.94"/>
<polygon fill="#63b8ff" stroke="#63b8ff" points="715.61,-729.17 724.87,-724.03 714.43,-722.27 715.61,-729.17"/>
</a>
</g>
</g>
<!-- Node15&#45;&gt;Node3 -->
<g id="edge15_Node000015_Node000003" class="edge">
<title>Node15&#45;&gt;Node3</title>
<g id="a_edge15_Node000015_Node000003"><a xlink:title=" ">
<path fill="none" stroke="#63b8ff" d="M714.1,-688.64C704.25,-690.89 694.29,-693.5 685,-696.5 646.92,-708.79 604.94,-729.78 581.95,-741.97"/>
<polygon fill="#63b8ff" stroke="#63b8ff" points="714.86,-692.06 723.89,-686.51 713.38,-685.22 714.86,-692.06"/>
</a>
</g>
</g>
<!-- Node16 -->
<g id="Node000016" class="node">
<title>Node16</title>
<g id="a_Node000016"><a xlink:href="classSparseMsg.html#aef132d1f2e4656cc54371f27280e3e1d" target="_top" xlink:title=" ">
<polygon fill="white" stroke="#666666" points="628,-687 499,-687 499,-668 628,-668 628,-687"/>
<text text-anchor="middle" x="563.5" y="-675" font-family="Ubuntu Mono" font-size="10.00">SparseMsg::SparseMsg</text>
</a>
</g>
</g>
<!-- Node15&#45;&gt;Node16 -->
<g id="edge16_Node000015_Node000016" class="edge">
<title>Node15&#45;&gt;Node16</title>
<g id="a_edge16_Node000015_Node000016"><a xlink:title=" ">
<path fill="none" stroke="#63b8ff" d="M713.53,-677.5C686.3,-677.5 654.98,-677.5 628.11,-677.5"/>
<polygon fill="#63b8ff" stroke="#63b8ff" points="713.75,-681 723.75,-677.5 713.75,-674 713.75,-681"/>
</a>
</g>
</g>
<!-- Node17 -->
<g id="Node000017" class="node">
<title>Node17</title>
<g id="a_Node000017"><a xlink:href="classSparseMsg.html#aa4587791f801348497bebcd060c84d7c" target="_top" xlink:title=" ">
<polygon fill="white" stroke="#666666" points="414,-687 315,-687 315,-668 414,-668 414,-687"/>
<text text-anchor="middle" x="364.5" y="-675" font-family="Ubuntu Mono" font-size="10.00">SparseMsg::copy</text>
</a>
</g>
</g>
<!-- Node16&#45;&gt;Node17 -->
<g id="edge17_Node000016_Node000017" class="edge">
<title>Node16&#45;&gt;Node17</title>
<g id="a_edge17_Node000016_Node000017"><a xlink:title=" ">
<path fill="none" stroke="#63b8ff" d="M488.68,-677.5C463.83,-677.5 436.73,-677.5 414.29,-677.5"/>
<polygon fill="#63b8ff" stroke="#63b8ff" points="488.81,-681 498.81,-677.5 488.81,-674 488.81,-681"/>
</a>
</g>
</g>
<!-- Node18 -->
<g id="Node000018" class="node">
<title>Node18</title>
<g id="a_Node000018"><a xlink:href="classShell.html#a98a2b58d38600924754a62c4a1eb9869" target="_top" xlink:title=" ">
<polygon fill="#fff0f0" stroke="red" points="419.5,-724 309.5,-724 309.5,-705 419.5,-705 419.5,-724"/>
<text text-anchor="middle" x="364.5" y="-712" font-family="Ubuntu Mono" font-size="10.00">Shell::innerAddMsg</text>
</a>
</g>
</g>
<!-- Node16&#45;&gt;Node18 -->
<g id="edge18_Node000016_Node000018" class="edge">
<title>Node16&#45;&gt;Node18</title>
<g id="a_edge18_Node000016_Node000018"><a xlink:title=" ">
<path fill="none" stroke="#63b8ff" d="M501.91,-688.88C474.52,-694.02 442.52,-700.03 416.4,-704.94"/>
<polygon fill="#63b8ff" stroke="#63b8ff" points="502.59,-692.31 511.77,-687.03 501.29,-685.43 502.59,-692.31"/>
</a>
</g>
</g>
<!-- Node16&#45;&gt;Node98 -->
<g id="edge19_Node000016_Node000098" class="edge">
<title>Node16&#45;&gt;Node98</title>
<g id="a_edge19_Node000016_Node000098"><a xlink:title=" ">
<path fill="none" stroke="#63b8ff" d="M501.83,-666.1C471.82,-660.47 436.3,-653.8 409.04,-648.68"/>
<polygon fill="#63b8ff" stroke="#63b8ff" points="501.29,-669.57 511.77,-667.97 502.59,-662.69 501.29,-669.57"/>
</a>
</g>
</g>
<!-- Node100 -->
<g id="Node000100" class="node">
<title>Node100</title>
<g id="a_Node000100"><a xlink:href="classCubeMesh.html#a15fd949e84856e14321830ce459258d4" target="_top" xlink:title=" ">
<polygon fill="white" stroke="#666666" points="847,-409 716,-409 716,-390 847,-390 847,-409"/>
<text text-anchor="middle" x="781.5" y="-397" font-family="Ubuntu Mono" font-size="10.00">CubeMesh::buildStencil</text>
</a>
</g>
</g>
<!-- Node99&#45;&gt;Node100 -->
<g id="edge22_Node000099_Node000100" class="edge">
<title>Node99&#45;&gt;Node100</title>
<g id="a_edge22_Node000099_Node000100"><a xlink:title=" ">
<path fill="none" stroke="#63b8ff" d="M906.6,-399.5C886.75,-399.5 865.88,-399.5 847.04,-399.5"/>
<polygon fill="#63b8ff" stroke="#63b8ff" points="906.87,-403 916.87,-399.5 906.87,-396 906.87,-403"/>
</a>
</g>
</g>
<!-- Node128 -->
<g id="Node000128" class="node">
<title>Node128</title>
<g id="a_Node000128"><a xlink:href="classCylMesh.html#a2f481d81c9725d5ec0c323cf703652a6" target="_top" xlink:title=" ">
<polygon fill="white" stroke="#666666" points="842.5,-335 720.5,-335 720.5,-316 842.5,-316 842.5,-335"/>
<text text-anchor="middle" x="781.5" y="-323" font-family="Ubuntu Mono" font-size="10.00">CylMesh::buildStencil</text>
</a>
</g>
</g>
<!-- Node99&#45;&gt;Node128 -->
<g id="edge41_Node000099_Node000128" class="edge">
<title>Node99&#45;&gt;Node128</title>
<g id="a_edge41_Node000099_Node000128"><a xlink:title=" ">
<path fill="none" stroke="#63b8ff" d="M934.09,-387.39C927.27,-385.59 920.45,-383.61 914,-381.5 873.21,-368.13 827.5,-347.25 802.14,-335.12"/>
<polygon fill="#63b8ff" stroke="#63b8ff" points="933.47,-390.84 944.03,-389.91 935.2,-384.06 933.47,-390.84"/>
</a>
</g>
</g>
<!-- Node144 -->
<g id="Node000144" class="node">
<title>Node144</title>
<g id="a_Node000144"><a xlink:href="classNeuroMesh.html#ae5cd8716e7247e87c5a528c35e620954" target="_top" xlink:title="Utility function to set up Stencil for diffusion in NeuroMesh.">
<polygon fill="white" stroke="#666666" points="849,-280 714,-280 714,-261 849,-261 849,-280"/>
<text text-anchor="middle" x="781.5" y="-268" font-family="Ubuntu Mono" font-size="10.00">NeuroMesh::buildStencil</text>
</a>
</g>
</g>
<!-- Node99&#45;&gt;Node144 -->
<g id="edge44_Node000099_Node000144" class="edge">
<title>Node99&#45;&gt;Node144</title>
<g id="a_edge44_Node000099_Node000144"><a xlink:title=" ">
<path fill="none" stroke="#63b8ff" d="M919.01,-385.08C917.27,-383.97 915.6,-382.78 914,-381.5 885.44,-358.66 904.91,-332.26 878,-307.5 863.74,-294.38 844.31,-285.72 826.7,-280.11"/>
<polygon fill="#63b8ff" stroke="#63b8ff" points="917.66,-388.32 928.12,-389.96 920.96,-382.15 917.66,-388.32"/>
</a>
</g>
</g>
<!-- Node153 -->
<g id="Node000153" class="node">
<title>Node153</title>
<g id="a_Node000153"><a xlink:href="classPsdMesh.html#a4a2cdecb918f9bd1b182e1bcbdb4e6d2" target="_top" xlink:title=" ">
<polygon fill="white" stroke="#666666" points="843,-520 720,-520 720,-501 843,-501 843,-520"/>
<text text-anchor="middle" x="781.5" y="-508" font-family="Ubuntu Mono" font-size="10.00">PsdMesh::buildStencil</text>
</a>
</g>
</g>
<!-- Node99&#45;&gt;Node153 -->
<g id="edge46_Node000099_Node000153" class="edge">
<title>Node99&#45;&gt;Node153</title>
<g id="a_edge46_Node000099_Node000153"><a xlink:title=" ">
<path fill="none" stroke="#63b8ff" d="M970.06,-415.21C948.16,-431.53 911.96,-457.07 878,-474.5 857.19,-485.18 832.45,-494.42 813.37,-500.86"/>
<polygon fill="#63b8ff" stroke="#63b8ff" points="972.37,-417.84 978.25,-409.03 968.16,-412.25 972.37,-417.84"/>
</a>
</g>
</g>
<!-- Node157 -->
<g id="Node000157" class="node">
<title>Node157</title>
<g id="a_Node000157"><a xlink:href="classSpineMesh.html#ad8ad99b477713fd04e0d1f7859f9a7f2" target="_top" xlink:title=" ">
<polygon fill="white" stroke="#666666" points="848,-465 715,-465 715,-446 848,-446 848,-465"/>
<text text-anchor="middle" x="781.5" y="-453" font-family="Ubuntu Mono" font-size="10.00">SpineMesh::buildStencil</text>
</a>
</g>
</g>
<!-- Node99&#45;&gt;Node157 -->
<g id="edge48_Node000099_Node000157" class="edge">
<title>Node99&#45;&gt;Node157</title>
<g id="a_edge48_Node000099_Node000157"><a xlink:title=" ">
<path fill="none" stroke="#63b8ff" d="M944.89,-411.78C906.64,-422.08 852.81,-436.57 817.79,-446"/>
<polygon fill="#63b8ff" stroke="#63b8ff" points="946,-415.11 954.74,-409.13 944.18,-408.35 946,-415.11"/>
</a>
</g>
</g>
<!-- Node101 -->
<g id="Node000101" class="node">
<title>Node101</title>
<g id="a_Node000101"><a xlink:href="classCubeMesh.html#ab401f8356c2ba9e2b97b823c06086c88" target="_top" xlink:title=" ">
<polygon fill="white" stroke="#666666" points="649,-446 478,-446 478,-427 649,-427 649,-446"/>
<text text-anchor="middle" x="563.5" y="-434" font-family="Ubuntu Mono" font-size="10.00">CubeMesh::deriveM2sFromS2m</text>
</a>
</g>
</g>
<!-- Node100&#45;&gt;Node101 -->
<g id="edge23_Node000100_Node000101" class="edge">
<title>Node100&#45;&gt;Node101</title>
<g id="a_edge23_Node000100_Node000101"><a xlink:title=" ">
<path fill="none" stroke="#63b8ff" d="M714.85,-410.75C684.65,-415.92 649.2,-421.99 620.31,-426.94"/>
<polygon fill="#63b8ff" stroke="#63b8ff" points="715.61,-414.17 724.87,-409.03 714.43,-407.27 715.61,-414.17"/>
</a>
</g>
</g>
<!-- Node105 -->
<g id="Node000105" class="node">
<title>Node105</title>
<g id="a_Node000105"><a xlink:href="classCubeMesh.html#a2b8cc02c1b8d1526686400cf366591d9" target="_top" xlink:title=" ">
<polygon fill="white" stroke="#666666" points="649,-409 478,-409 478,-390 649,-390 649,-409"/>
<text text-anchor="middle" x="563.5" y="-397" font-family="Ubuntu Mono" font-size="10.00">CubeMesh::deriveS2mFromM2s</text>
</a>
</g>
</g>
<!-- Node100&#45;&gt;Node105 -->
<g id="edge25_Node000100_Node000105" class="edge">
<title>Node100&#45;&gt;Node105</title>
<g id="a_edge25_Node000100_Node000105"><a xlink:title=" ">
<path fill="none" stroke="#63b8ff" d="M705.96,-399.5C687.62,-399.5 667.86,-399.5 649.08,-399.5"/>
<polygon fill="#63b8ff" stroke="#63b8ff" points="705.99,-403 715.99,-399.5 705.99,-396 705.99,-403"/>
</a>
</g>
</g>
<!-- Node107 -->
<g id="Node000107" class="node">
<title>Node107</title>
<g id="a_Node000107"><a xlink:href="classCubeMesh.html#af13c8ae7776a0188d695921274f7a226" target="_top" xlink:title=" ">
<polygon fill="#fff0f0" stroke="red" points="634,-372 493,-372 493,-353 634,-353 634,-372"/>
<text text-anchor="middle" x="563.5" y="-360" font-family="Ubuntu Mono" font-size="10.00">CubeMesh::updateCoords</text>
</a>
</g>
</g>
<!-- Node100&#45;&gt;Node107 -->
<g id="edge27_Node000100_Node000107" class="edge">
<title>Node100&#45;&gt;Node107</title>
<g id="a_edge27_Node000100_Node000107"><a xlink:title=" ">
<path fill="none" stroke="#63b8ff" d="M714.85,-388.25C684.65,-383.08 649.2,-377.01 620.31,-372.06"/>
<polygon fill="#63b8ff" stroke="#63b8ff" points="714.43,-391.73 724.87,-389.97 715.61,-384.83 714.43,-391.73"/>
</a>
</g>
</g>
<!-- Node102 -->
<g id="Node000102" class="node">
<title>Node102</title>
<g id="a_Node000102"><a xlink:href="classCubeMesh.html#af6ab78fba9f09199598656b744d1659f" target="_top" xlink:title=" ">
<polygon fill="#fff0f0" stroke="red" points="442,-613 287,-613 287,-594 442,-594 442,-613"/>
<text text-anchor="middle" x="364.5" y="-601" font-family="Ubuntu Mono" font-size="10.00">CubeMesh::setSpaceToMesh</text>
</a>
</g>
</g>
<!-- Node101&#45;&gt;Node102 -->
<g id="edge24_Node000101_Node000102" class="edge">
<title>Node101&#45;&gt;Node102</title>
<g id="a_edge24_Node000101_Node000102"><a xlink:title=" ">
<path fill="none" stroke="#63b8ff" d="M482.77,-451.48C481.11,-452.72 479.51,-454.06 478,-455.5 434.58,-496.84 485.21,-543.94 442,-585.5 438.56,-588.81 434.63,-591.55 430.41,-593.82"/>
<polygon fill="#63b8ff" stroke="#63b8ff" points="484.97,-454.24 491.63,-446 481.28,-448.28 484.97,-454.24"/>
</a>
</g>
</g>
<!-- Node106 -->
<g id="Node000106" class="node">
<title>Node106</title>
<g id="a_Node000106"><a xlink:href="classCubeMesh.html#a91a7725758ee4a62a49f2a4981671e55" target="_top" xlink:title=" ">
<polygon fill="#fff0f0" stroke="red" points="442,-576 287,-576 287,-557 442,-557 442,-576"/>
<text text-anchor="middle" x="364.5" y="-564" font-family="Ubuntu Mono" font-size="10.00">CubeMesh::setMeshToSpace</text>
</a>
</g>
</g>
<!-- Node105&#45;&gt;Node106 -->
<g id="edge26_Node000105_Node000106" class="edge">
<title>Node105&#45;&gt;Node106</title>
<g id="a_edge26_Node000105_Node000106"><a xlink:title=" ">
<path fill="none" stroke="#63b8ff" d="M482.77,-414.48C481.11,-415.72 479.51,-417.06 478,-418.5 434.58,-459.84 485.21,-506.94 442,-548.5 438.56,-551.81 434.63,-554.55 430.41,-556.82"/>
<polygon fill="#63b8ff" stroke="#63b8ff" points="484.97,-417.24 491.63,-409 481.28,-411.28 484.97,-417.24"/>
</a>
</g>
</g>
<!-- Node108 -->
<g id="Node000108" class="node">
<title>Node108</title>
<g id="a_Node000108"><a xlink:href="classCubeMesh.html#aa096a7e837e8da5fb18b9e463ef9ea20" target="_top" xlink:title=" ">
<polygon fill="white" stroke="#666666" points="427,-243 302,-243 302,-224 427,-224 427,-243"/>
<text text-anchor="middle" x="364.5" y="-231" font-family="Ubuntu Mono" font-size="10.00">CubeMesh::CubeMesh</text>
</a>
</g>
</g>
<!-- Node107&#45;&gt;Node108 -->
<g id="edge28_Node000107_Node000108" class="edge">
<title>Node107&#45;&gt;Node108</title>
<g id="a_edge28_Node000107_Node000108"><a xlink:title=" ">
<path fill="none" stroke="#63b8ff" d="M483.71,-348.76C481.72,-347.45 479.81,-346.04 478,-344.5 444.53,-316.08 474.99,-281.47 442,-252.5 437.58,-248.62 432.48,-245.5 427.07,-243.01"/>
<polygon fill="#63b8ff" stroke="#63b8ff" points="482.45,-352.05 492.9,-353.79 485.81,-345.91 482.45,-352.05"/>
</a>
</g>
</g>
<!-- Node109 -->
<g id="Node000109" class="node">
<title>Node109</title>
<g id="a_Node000109"><a xlink:href="classCubeMesh.html#a4800a01578c9e0c4e1de72ff566ba37e" target="_top" xlink:title=" ">
<polygon fill="#fff0f0" stroke="red" points="438.5,-539 290.5,-539 290.5,-520 438.5,-520 438.5,-539"/>
<text text-anchor="middle" x="364.5" y="-527" font-family="Ubuntu Mono" font-size="10.00">CubeMesh::innerSetCoords</text>
</a>
</g>
</g>
<!-- Node107&#45;&gt;Node109 -->
<g id="edge29_Node000107_Node000109" class="edge">
<title>Node107&#45;&gt;Node109</title>
<g id="a_edge29_Node000107_Node000109"><a xlink:title=" ">
<path fill="none" stroke="#63b8ff" d="M484.09,-376.52C481.95,-378.03 479.91,-379.69 478,-381.5 434.58,-422.84 485.21,-469.94 442,-511.5 438.56,-514.81 434.63,-517.55 430.41,-519.82"/>
<polygon fill="#63b8ff" stroke="#63b8ff" points="485.99,-379.47 492.85,-371.4 482.45,-373.43 485.99,-379.47"/>
</a>
</g>
</g>
<!-- Node116 -->
<g id="Node000116" class="node">
<title>Node116</title>
<g id="a_Node000116"><a xlink:href="classCubeMesh.html#ac3e7d718e78153f76f08331f43149562" target="_top" xlink:title=" ">
<polygon fill="#fff0f0" stroke="red" points="415.5,-206 313.5,-206 313.5,-187 415.5,-187 415.5,-206"/>
<text text-anchor="middle" x="364.5" y="-194" font-family="Ubuntu Mono" font-size="10.00">CubeMesh::setDx</text>
</a>
</g>
</g>
<!-- Node107&#45;&gt;Node116 -->
<g id="edge31_Node000107_Node000116" class="edge">
<title>Node107&#45;&gt;Node116</title>
<g id="a_edge31_Node000107_Node000116"><a xlink:title=" ">
<path fill="none" stroke="#63b8ff" d="M484.11,-349.42C481.96,-347.93 479.91,-346.3 478,-344.5 434.62,-303.74 484.69,-256.98 442,-215.5 434.74,-208.44 425.28,-203.88 415.51,-200.95"/>
<polygon fill="#63b8ff" stroke="#63b8ff" points="482.47,-352.51 492.88,-354.46 485.95,-346.44 482.47,-352.51"/>
</a>
</g>
</g>
<!-- Node117 -->
<g id="Node000117" class="node">
<title>Node117</title>
<g id="a_Node000117"><a xlink:href="classCubeMesh.html#aae715b788f7a6b03670eca28d0d2ddc8" target="_top" xlink:title=" ">
<polygon fill="#fff0f0" stroke="red" points="415.5,-169 313.5,-169 313.5,-150 415.5,-150 415.5,-169"/>
<text text-anchor="middle" x="364.5" y="-157" font-family="Ubuntu Mono" font-size="10.00">CubeMesh::setDy</text>
</a>
</g>
</g>
<!-- Node107&#45;&gt;Node117 -->
<g id="edge32_Node000107_Node000117" class="edge">
<title>Node107&#45;&gt;Node117</title>
<g id="a_edge32_Node000107_Node000117"><a xlink:title=" ">
<path fill="none" stroke="#63b8ff" d="M483.97,-349.57C481.86,-348.04 479.86,-346.35 478,-344.5 424.25,-290.88 495.18,-231.69 442,-177.5 434.93,-170.29 425.55,-165.75 415.8,-162.93"/>
<polygon fill="#63b8ff" stroke="#63b8ff" points="482.24,-352.61 492.62,-354.73 485.82,-346.6 482.24,-352.61"/>
</a>
</g>
</g>
<!-- Node118 -->
<g id="Node000118" class="node">
<title>Node118</title>
<g id="a_Node000118"><a xlink:href="classCubeMesh.html#a40f6661162f75b326a5585992909adf3" target="_top" xlink:title=" ">
<polygon fill="#fff0f0" stroke="red" points="415,-132 314,-132 314,-113 415,-113 415,-132"/>
<text text-anchor="middle" x="364.5" y="-120" font-family="Ubuntu Mono" font-size="10.00">CubeMesh::setDz</text>
</a>
</g>
</g>
<!-- Node107&#45;&gt;Node118 -->
<g id="edge33_Node000107_Node000118" class="edge">
<title>Node107&#45;&gt;Node118</title>
<g id="a_edge33_Node000107_Node000118"><a xlink:title=" ">
<path fill="none" stroke="#63b8ff" d="M484.03,-349.77C481.89,-348.19 479.87,-346.44 478,-344.5 414.05,-278.26 505.24,-207.41 442,-140.5 434.88,-132.96 425.24,-128.32 415.21,-125.51"/>
<polygon fill="#63b8ff" stroke="#63b8ff" points="482.48,-352.92 492.85,-355.1 486.1,-346.93 482.48,-352.92"/>
</a>
</g>
</g>
<!-- Node119 -->
<g id="Node000119" class="node">
<title>Node119</title>
<g id="a_Node000119"><a xlink:href="classCubeMesh.html#ade604c64045021368b07ae2721798d9d" target="_top" xlink:title=" ">
<polygon fill="#fff0f0" stroke="red" points="415.5,-502 313.5,-502 313.5,-483 415.5,-483 415.5,-502"/>
<text text-anchor="middle" x="364.5" y="-490" font-family="Ubuntu Mono" font-size="10.00">CubeMesh::setNx</text>
</a>
</g>
</g>
<!-- Node107&#45;&gt;Node119 -->
<g id="edge34_Node000107_Node000119" class="edge">
<title>Node107&#45;&gt;Node119</title>
<g id="a_edge34_Node000107_Node000119"><a xlink:title=" ">
<path fill="none" stroke="#63b8ff" d="M483.7,-377.18C481.71,-378.51 479.8,-379.94 478,-381.5 444.43,-410.43 475.43,-445.4 442,-474.5 434.59,-480.95 425.3,-485.2 415.77,-487.97"/>
<polygon fill="#63b8ff" stroke="#63b8ff" points="485.84,-379.99 492.86,-372.06 482.42,-373.89 485.84,-379.99"/>
</a>
</g>
</g>
<!-- Node120 -->
<g id="Node000120" class="node">
<title>Node120</title>
<g id="a_Node000120"><a xlink:href="classCubeMesh.html#a7559695bfb38478ea05c751b07c2f94a" target="_top" xlink:title=" ">
<polygon fill="#fff0f0" stroke="red" points="415.5,-465 313.5,-465 313.5,-446 415.5,-446 415.5,-465"/>
<text text-anchor="middle" x="364.5" y="-453" font-family="Ubuntu Mono" font-size="10.00">CubeMesh::setNy</text>
</a>
</g>
</g>
<!-- Node107&#45;&gt;Node120 -->
<g id="edge35_Node000107_Node000120" class="edge">
<title>Node107&#45;&gt;Node120</title>
<g id="a_edge35_Node000107_Node000120"><a xlink:title=" ">
<path fill="none" stroke="#63b8ff" d="M487.05,-376.1C483.89,-377.71 480.86,-379.5 478,-381.5 453.75,-398.46 466.16,-420.42 442,-437.5 434.2,-443.01 424.95,-446.86 415.62,-449.53"/>
<polygon fill="#63b8ff" stroke="#63b8ff" points="488.49,-379.29 496.22,-372.04 485.65,-372.89 488.49,-379.29"/>
</a>
</g>
</g>
<!-- Node121 -->
<g id="Node000121" class="node">
<title>Node121</title>
<g id="a_Node000121"><a xlink:href="classCubeMesh.html#a572d199d288742bcf6006a3b3bf452bc" target="_top" xlink:title=" ">
<polygon fill="#fff0f0" stroke="red" points="415,-428 314,-428 314,-409 415,-409 415,-428"/>
<text text-anchor="middle" x="364.5" y="-416" font-family="Ubuntu Mono" font-size="10.00">CubeMesh::setNz</text>
</a>
</g>
</g>
<!-- Node107&#45;&gt;Node121 -->
<g id="edge36_Node000107_Node000121" class="edge">
<title>Node107&#45;&gt;Node121</title>
<g id="a_edge36_Node000107_Node000121"><a xlink:title=" ">
<path fill="none" stroke="#63b8ff" d="M500.14,-374.55C492.59,-376.58 485.06,-378.89 478,-381.5 461.03,-387.76 458.94,-394.15 442,-400.5 433.31,-403.75 423.84,-406.55 414.62,-408.9"/>
<polygon fill="#63b8ff" stroke="#63b8ff" points="501.21,-377.89 510.03,-372.03 499.48,-371.1 501.21,-377.89"/>
</a>
</g>
</g>
<!-- Node122 -->
<g id="Node000122" class="node">
<title>Node122</title>
<g id="a_Node000122"><a xlink:href="classCubeMesh.html#ac618607b04f4dd8dc6c18fcab16bdabe" target="_top" xlink:title=" ">
<polygon fill="#fff0f0" stroke="red" points="415,-391 314,-391 314,-372 415,-372 415,-391"/>
<text text-anchor="middle" x="364.5" y="-379" font-family="Ubuntu Mono" font-size="10.00">CubeMesh::setX0</text>
</a>
</g>
</g>
<!-- Node107&#45;&gt;Node122 -->
<g id="edge37_Node000107_Node000122" class="edge">
<title>Node107&#45;&gt;Node122</title>
<g id="a_edge37_Node000107_Node000122"><a xlink:title=" ">
<path fill="none" stroke="#63b8ff" d="M482.71,-370.2C459.81,-372.4 435.52,-374.75 415.02,-376.72"/>
<polygon fill="#63b8ff" stroke="#63b8ff" points="483.15,-373.67 492.77,-369.23 482.48,-366.7 483.15,-373.67"/>
</a>
</g>
</g>
<!-- Node123 -->
<g id="Node000123" class="node">
<title>Node123</title>
<g id="a_Node000123"><a xlink:href="classCubeMesh.html#a0889e278ed6e58672bf25de4bb685a5e" target="_top" xlink:title=" ">
<polygon fill="#fff0f0" stroke="red" points="415,-354 314,-354 314,-335 415,-335 415,-354"/>
<text text-anchor="middle" x="364.5" y="-342" font-family="Ubuntu Mono" font-size="10.00">CubeMesh::setX1</text>
</a>
</g>
</g>
<!-- Node107&#45;&gt;Node123 -->
<g id="edge38_Node000107_Node000123" class="edge">
<title>Node107&#45;&gt;Node123</title>
<g id="a_edge38_Node000107_Node000123"><a xlink:title=" ">
<path fill="none" stroke="#63b8ff" d="M482.71,-355.21C459.81,-353.12 435.52,-350.9 415.02,-349.02"/>
<polygon fill="#63b8ff" stroke="#63b8ff" points="482.49,-358.7 492.77,-356.13 483.13,-351.73 482.49,-358.7"/>
</a>
</g>
</g>
<!-- Node124 -->
<g id="Node000124" class="node">
<title>Node124</title>
<g id="a_Node000124"><a xlink:href="classCubeMesh.html#a3e9d88e7c0b053d666343ddebd224625" target="_top" xlink:title=" ">
<polygon fill="#fff0f0" stroke="red" points="415,-317 314,-317 314,-298 415,-298 415,-317"/>
<text text-anchor="middle" x="364.5" y="-305" font-family="Ubuntu Mono" font-size="10.00">CubeMesh::setY0</text>
</a>
</g>
</g>
<!-- Node107&#45;&gt;Node124 -->
<g id="edge39_Node000107_Node000124" class="edge">
<title>Node107&#45;&gt;Node124</title>
<g id="a_edge39_Node000107_Node000124"><a xlink:title=" ">
<path fill="none" stroke="#63b8ff" d="M497.91,-350.52C491.12,-348.73 484.37,-346.73 478,-344.5 461.12,-338.59 458.78,-332.69 442,-326.5 432.11,-322.85 421.25,-319.68 410.9,-317.03"/>
<polygon fill="#63b8ff" stroke="#63b8ff" points="497.3,-353.98 507.84,-352.98 498.98,-347.18 497.3,-353.98"/>
</a>
</g>
</g>
<!-- Node125 -->
<g id="Node000125" class="node">
<title>Node125</title>
<g id="a_Node000125"><a xlink:href="classCubeMesh.html#a28eea4622063757676f54e5d4f0fd994" target="_top" xlink:title=" ">
<polygon fill="#fff0f0" stroke="red" points="415,-280 314,-280 314,-261 415,-261 415,-280"/>
<text text-anchor="middle" x="364.5" y="-268" font-family="Ubuntu Mono" font-size="10.00">CubeMesh::setY1</text>
</a>
</g>
</g>
<!-- Node107&#45;&gt;Node125 -->
<g id="edge40_Node000107_Node000125" class="edge">
<title>Node107&#45;&gt;Node125</title>
<g id="a_edge40_Node000107_Node000125"><a xlink:title=" ">
<path fill="none" stroke="#63b8ff" d="M485.02,-348.74C482.59,-347.45 480.24,-346.04 478,-344.5 453.9,-327.99 465.82,-306.41 442,-289.5 434.08,-283.88 424.66,-279.91 415.2,-277.11"/>
<polygon fill="#63b8ff" stroke="#63b8ff" points="483.57,-351.92 494.12,-352.92 486.49,-345.56 483.57,-351.92"/>
</a>
</g>
</g>
<!-- Node109&#45;&gt;Node10 -->
<g id="edge30_Node000109_Node000010" class="edge">
<title>Node109&#45;&gt;Node10</title>
<g id="a_edge30_Node000109_Node000010"><a xlink:title=" ">
<path fill="none" stroke="#63b8ff" d="M292.67,-515.33C290.7,-514.15 288.81,-512.88 287,-511.5 217.64,-458.68 185.95,-349.76 177.74,-317.02"/>
<polygon fill="#63b8ff" stroke="#63b8ff" points="291.18,-518.5 301.68,-519.91 294.35,-512.26 291.18,-518.5"/>
</a>
</g>
</g>
<!-- Node129 -->
<g id="Node000129" class="node">
<title>Node129</title>
<g id="a_Node000129"><a xlink:href="classCylMesh.html#af0f2c705f23f20f457cf4b2f6425cdce" target="_top" xlink:title="Inherited virtual func.">
<polygon fill="white" stroke="#666666" points="644.5,-335 482.5,-335 482.5,-316 644.5,-316 644.5,-335"/>
<text text-anchor="middle" x="563.5" y="-323" font-family="Ubuntu Mono" font-size="10.00">CylMesh::innerSetNumEntries</text>
</a>
</g>
</g>
<!-- Node128&#45;&gt;Node129 -->
<g id="edge42_Node000128_Node000129" class="edge">
<title>Node128&#45;&gt;Node129</title>
<g id="a_edge42_Node000128_Node000129"><a xlink:title=" ">
<path fill="none" stroke="#63b8ff" d="M710.22,-325.5C689.24,-325.5 666.09,-325.5 644.54,-325.5"/>
<polygon fill="#63b8ff" stroke="#63b8ff" points="710.33,-329 720.33,-325.5 710.33,-322 710.33,-329"/>
</a>
</g>
</g>
<!-- Node130 -->
<g id="Node000130" class="node">
<title>Node130</title>
<g id="a_Node000130"><a xlink:href="classCylMesh.html#ad1154c4549fb9db51fd3899ec60eb73e" target="_top" xlink:title=" ">
<polygon fill="#fff0f0" stroke="red" points="629.5,-298 497.5,-298 497.5,-279 629.5,-279 629.5,-298"/>
<text text-anchor="middle" x="563.5" y="-286" font-family="Ubuntu Mono" font-size="10.00">CylMesh::updateCoords</text>
</a>
</g>
</g>
<!-- Node128&#45;&gt;Node130 -->
<g id="edge43_Node000128_Node000130" class="edge">
<title>Node128&#45;&gt;Node130</title>
<g id="a_edge43_Node000128_Node000130"><a xlink:title=" ">
<path fill="none" stroke="#63b8ff" d="M714.85,-314.25C684.65,-309.08 649.2,-303.01 620.31,-298.06"/>
<polygon fill="#63b8ff" stroke="#63b8ff" points="714.43,-317.73 724.87,-315.97 715.61,-310.83 714.43,-317.73"/>
</a>
</g>
</g>
<!-- Node145 -->
<g id="Node000145" class="node">
<title>Node145</title>
<g id="a_Node000145"><a xlink:href="classNeuroMesh.html#a05ab531bca2ba6c4f6ca1a7c875f497e" target="_top" xlink:title=" ">
<polygon fill="#fff0f0" stroke="red" points="636.5,-261 490.5,-261 490.5,-242 636.5,-242 636.5,-261"/>
<text text-anchor="middle" x="563.5" y="-249" font-family="Ubuntu Mono" font-size="10.00">NeuroMesh::updateCoords</text>
</a>
</g>
</g>
<!-- Node144&#45;&gt;Node145 -->
<g id="edge45_Node000144_Node000145" class="edge">
<title>Node144&#45;&gt;Node145</title>
<g id="a_edge45_Node000144_Node000145"><a xlink:title=" ">
<path fill="none" stroke="#63b8ff" d="M703.74,-263.75C681.98,-261.83 658.36,-259.76 636.86,-257.86"/>
<polygon fill="#63b8ff" stroke="#63b8ff" points="703.66,-267.25 713.93,-264.64 704.28,-260.28 703.66,-267.25"/>
</a>
</g>
</g>
<!-- Node154 -->
<g id="Node000154" class="node">
<title>Node154</title>
<g id="a_Node000154"><a xlink:href="classPsdMesh.html#a150d1196c84c53125752ae2d59380e41" target="_top" xlink:title=" ">
<polygon fill="#fff0f0" stroke="red" points="630.5,-520 496.5,-520 496.5,-501 630.5,-501 630.5,-520"/>
<text text-anchor="middle" x="563.5" y="-508" font-family="Ubuntu Mono" font-size="10.00">PsdMesh::updateCoords</text>
</a>
</g>
</g>
<!-- Node153&#45;&gt;Node154 -->
<g id="edge47_Node000153_Node000154" class="edge">
<title>Node153&#45;&gt;Node154</title>
<g id="a_edge47_Node000153_Node000154"><a xlink:title=" ">
<path fill="none" stroke="#63b8ff" d="M709.48,-510.5C684.16,-510.5 655.76,-510.5 630.84,-510.5"/>
<polygon fill="#63b8ff" stroke="#63b8ff" points="709.76,-514 719.76,-510.5 709.76,-507 709.76,-514"/>
</a>
</g>
</g>
<!-- Node158 -->
<g id="Node000158" class="node">
<title>Node158</title>
<g id="a_Node000158"><a xlink:href="classSpineMesh.html#a818ef676dfb6213dc8c232d9734822f3" target="_top" xlink:title=" ">
<polygon fill="#fff0f0" stroke="red" points="635,-483 492,-483 492,-464 635,-464 635,-483"/>
<text text-anchor="middle" x="563.5" y="-471" font-family="Ubuntu Mono" font-size="10.00">SpineMesh::updateCoords</text>
</a>
</g>
</g>
<!-- Node157&#45;&gt;Node158 -->
<g id="edge49_Node000157_Node000158" class="edge">
<title>Node157&#45;&gt;Node158</title>
<g id="a_edge49_Node000157_Node000158"><a xlink:title=" ">
<path fill="none" stroke="#63b8ff" d="M704.6,-461.83C682.01,-463.71 657.37,-465.76 635.13,-467.61"/>
<polygon fill="#63b8ff" stroke="#63b8ff" points="705.14,-465.29 714.81,-460.97 704.56,-458.32 705.14,-465.29"/>
</a>
</g>
</g>
<!-- Node162 -->
<g id="Node000162" class="node">
<title>Node162</title>
<g id="a_Node000162"><a xlink:href="classFastMatrixElim.html#af840ef3842f9cf41b688245d69f29b3a" target="_top" xlink:title=" ">
<polygon fill="white" stroke="#666666" points="861.5,-56 701.5,-56 701.5,-37 861.5,-37 861.5,-56"/>
<text text-anchor="middle" x="781.5" y="-44" font-family="Ubuntu Mono" font-size="10.00">FastMatrixElim::hinesReorder</text>
</a>
</g>
</g>
<!-- Node161&#45;&gt;Node162 -->
<g id="edge51_Node000161_Node000162" class="edge">
<title>Node161&#45;&gt;Node162</title>
<g id="a_edge51_Node000161_Node000162"><a xlink:title=" ">
<path fill="none" stroke="#63b8ff" d="M916.38,-309.88C915.56,-309.12 914.76,-308.33 914,-307.5 841.75,-229.2 949.66,-149.35 878,-70.5 872.37,-64.3 865.39,-59.6 857.79,-56.04"/>
<polygon fill="#63b8ff" stroke="#63b8ff" points="914.32,-312.71 924.44,-315.85 918.49,-307.09 914.32,-312.71"/>
</a>
</g>
</g>
<!-- Node163 -->
<g id="Node000163" class="node">
<title>Node163</title>
<g id="a_Node000163"><a xlink:href="classDsolve.html#a893e748c8fda3ab595c7692815d0ec59" target="_top" xlink:title=" ">
<polygon fill="#fff0f0" stroke="red" points="603.5,-56 523.5,-56 523.5,-37 603.5,-37 603.5,-56"/>
<text text-anchor="middle" x="563.5" y="-44" font-family="Ubuntu Mono" font-size="10.00">Dsolve::build</text>
</a>
</g>
</g>
<!-- Node162&#45;&gt;Node163 -->
<g id="edge52_Node000162_Node000163" class="edge">
<title>Node162&#45;&gt;Node163</title>
<g id="a_edge52_Node000162_Node000163"><a xlink:title=" ">
<path fill="none" stroke="#63b8ff" d="M691.06,-46.5C660.62,-46.5 628.15,-46.5 603.72,-46.5"/>
<polygon fill="#63b8ff" stroke="#63b8ff" points="691.3,-50 701.3,-46.5 691.3,-43 691.3,-50"/>
</a>
</g>
</g>
<!-- Node166 -->
<g id="Node000166" class="node">
<title>Node166</title>
<g id="a_Node000166"><a xlink:href="testDiffusion_8cpp.html#a74f068d6836fcdefd03bef45a9f2aad0" target="_top" xlink:title=" ">
<polygon fill="#fff0f0" stroke="red" points="617.5,-19 509.5,-19 509.5,0 617.5,0 617.5,-19"/>
<text text-anchor="middle" x="563.5" y="-7" font-family="Ubuntu Mono" font-size="10.00">testFastMatrixElim</text>
</a>
</g>
</g>
<!-- Node162&#45;&gt;Node166 -->
<g id="edge53_Node000162_Node000166" class="edge">
<title>Node162&#45;&gt;Node166</title>
<g id="a_edge53_Node000162_Node000166"><a xlink:title=" ">
<path fill="none" stroke="#63b8ff" d="M714.98,-35.28C683.83,-29.94 647.09,-23.65 617.7,-18.61"/>
<polygon fill="#63b8ff" stroke="#63b8ff" points="714.43,-38.73 724.87,-36.97 715.61,-31.83 714.43,-38.73"/>
</a>
</g>
</g>
</g>
</svg>
