<?xml version="1.0" encoding="UTF-8" standalone="no"?>
<!DOCTYPE svg PUBLIC "-//W3C//DTD SVG 1.1//EN"
 "http://www.w3.org/Graphics/SVG/1.1/DTD/svg11.dtd">
<!-- Generated by graphviz version 2.43.0 (0)
 -->
<!-- Title: Dsolve Pages: 1 -->
<svg width="184pt" height="697pt"
 viewBox="0.00 0.00 184.00 697.00" xmlns="http://www.w3.org/2000/svg" xmlns:xlink="http://www.w3.org/1999/xlink">
<g id="graph0" class="graph" transform="scale(1 1) rotate(0) translate(4 693)">
<title>Dsolve</title>
<!-- Node1 -->
<g id="Node000001" class="node">
<title>Node1</title>
<g id="a_Node000001"><a xlink:title=" ">
<polygon fill="#999999" stroke="transparent" points="176,-424 0,-424 0,0 176,0 176,-424"/>
<text text-anchor="start" x="71" y="-412" font-family="Ubuntu Mono" font-size="10.00">Dsolve</text>
<text text-anchor="start" x="6.5" y="-397" font-family="Ubuntu Mono" font-size="10.00">&#45;</text>
<text text-anchor="start" x="17" y="-397" font-family="Ubuntu Mono" font-size="10.00">channels_</text>
<text text-anchor="start" x="6.5" y="-382" font-family="Ubuntu Mono" font-size="10.00">&#45;</text>
<text text-anchor="start" x="17" y="-382" font-family="Ubuntu Mono" font-size="10.00">dt_</text>
<text text-anchor="start" x="6.5" y="-367" font-family="Ubuntu Mono" font-size="10.00">&#45;</text>
<text text-anchor="start" x="17" y="-367" font-family="Ubuntu Mono" font-size="10.00">junctions_</text>
<text text-anchor="start" x="6.5" y="-352" font-family="Ubuntu Mono" font-size="10.00">&#45;</text>
<text text-anchor="start" x="17" y="-352" font-family="Ubuntu Mono" font-size="10.00">numLocalPools_</text>
<text text-anchor="start" x="6.5" y="-337" font-family="Ubuntu Mono" font-size="10.00">&#45;</text>
<text text-anchor="start" x="17" y="-337" font-family="Ubuntu Mono" font-size="10.00">numTotPools_</text>
<text text-anchor="start" x="6.5" y="-322" font-family="Ubuntu Mono" font-size="10.00">&#45;</text>
<text text-anchor="start" x="17" y="-322" font-family="Ubuntu Mono" font-size="10.00">numVoxels_</text>
<text text-anchor="start" x="6.5" y="-307" font-family="Ubuntu Mono" font-size="10.00">&#45;</text>
<text text-anchor="start" x="17" y="-307" font-family="Ubuntu Mono" font-size="10.00">path_</text>
<text text-anchor="start" x="6.5" y="-292" font-family="Ubuntu Mono" font-size="10.00">&#45;</text>
<text text-anchor="start" x="17" y="-292" font-family="Ubuntu Mono" font-size="10.00">poolMap_</text>
<text text-anchor="start" x="6.5" y="-277" font-family="Ubuntu Mono" font-size="10.00">&#45;</text>
<text text-anchor="start" x="17" y="-277" font-family="Ubuntu Mono" font-size="10.00">poolMapStart_</text>
<text text-anchor="start" x="6.5" y="-262" font-family="Ubuntu Mono" font-size="10.00">&#45;</text>
<text text-anchor="start" x="17" y="-262" font-family="Ubuntu Mono" font-size="10.00">pools_</text>
<text text-anchor="start" x="6.5" y="-247" font-family="Ubuntu Mono" font-size="10.00">&#45;</text>
<text text-anchor="start" x="17" y="-247" font-family="Ubuntu Mono" font-size="10.00">poolStartIndex_</text>
<text text-anchor="start" x="4" y="-232" font-family="Ubuntu Mono" font-size="10.00">+</text>
<text text-anchor="start" x="17" y="-232" font-family="Ubuntu Mono" font-size="10.00">build()</text>
<text text-anchor="start" x="4" y="-217" font-family="Ubuntu Mono" font-size="10.00">+</text>
<text text-anchor="start" x="17" y="-217" font-family="Ubuntu Mono" font-size="10.00">buildMeshJunctions()</text>
<text text-anchor="start" x="4" y="-202" font-family="Ubuntu Mono" font-size="10.00">+</text>
<text text-anchor="start" x="17" y="-202" font-family="Ubuntu Mono" font-size="10.00">buildNeuroMeshJunctions()</text>
<text text-anchor="start" x="4" y="-187" font-family="Ubuntu Mono" font-size="10.00">+</text>
<text text-anchor="start" x="17" y="-187" font-family="Ubuntu Mono" font-size="10.00">calcJnChan()</text>
<text text-anchor="start" x="4" y="-172" font-family="Ubuntu Mono" font-size="10.00">+</text>
<text text-anchor="start" x="17" y="-172" font-family="Ubuntu Mono" font-size="10.00">calcJnDiff()</text>
<text text-anchor="start" x="4" y="-157" font-family="Ubuntu Mono" font-size="10.00">+</text>
<text text-anchor="start" x="17" y="-157" font-family="Ubuntu Mono" font-size="10.00">calcJnXfer()</text>
<text text-anchor="start" x="4" y="-142" font-family="Ubuntu Mono" font-size="10.00">+</text>
<text text-anchor="start" x="17" y="-142" font-family="Ubuntu Mono" font-size="10.00">calcJunction()</text>
<text text-anchor="start" x="4" y="-127" font-family="Ubuntu Mono" font-size="10.00">+</text>
<text text-anchor="start" x="17" y="-127" font-family="Ubuntu Mono" font-size="10.00">calcJunction_chunk()</text>
<text text-anchor="start" x="4" y="-112" font-family="Ubuntu Mono" font-size="10.00">+</text>
<text text-anchor="start" x="17" y="-112" font-family="Ubuntu Mono" font-size="10.00">calcLocalChan()</text>
<text text-anchor="start" x="4" y="-97" font-family="Ubuntu Mono" font-size="10.00">+</text>
<text text-anchor="start" x="17" y="-97" font-family="Ubuntu Mono" font-size="10.00">calcOtherJnChan()</text>
<text text-anchor="start" x="17" y="-82" font-family="Ubuntu Mono" font-size="10.00">and 51 more...</text>
<text text-anchor="start" x="4" y="-67" font-family="Ubuntu Mono" font-size="10.00">+</text>
<text text-anchor="start" x="17" y="-67" font-family="Ubuntu Mono" font-size="10.00">initCinfo()</text>
<text text-anchor="start" x="4" y="-52" font-family="Ubuntu Mono" font-size="10.00">+</text>
<text text-anchor="start" x="17" y="-52" font-family="Ubuntu Mono" font-size="10.00">innerBuildMeshJunctions()</text>
<text text-anchor="start" x="4" y="-37" font-family="Ubuntu Mono" font-size="10.00">+</text>
<text text-anchor="start" x="17" y="-37" font-family="Ubuntu Mono" font-size="10.00">mapChansBetweenDsolves()</text>
<text text-anchor="start" x="4" y="-22" font-family="Ubuntu Mono" font-size="10.00">+</text>
<text text-anchor="start" x="17" y="-22" font-family="Ubuntu Mono" font-size="10.00">mapDiffPoolsBetweenDsolves()</text>
<text text-anchor="start" x="4" y="-7" font-family="Ubuntu Mono" font-size="10.00">+</text>
<text text-anchor="start" x="17" y="-7" font-family="Ubuntu Mono" font-size="10.00">mapXfersBetweenDsolves()</text>
<polygon fill="#666666" stroke="#666666" points="0,-407 0,-407 176,-407 176,-407 0,-407"/>
<polygon fill="#666666" stroke="#666666" points="0,-242 0,-242 15,-242 15,-242 0,-242"/>
<polygon fill="#666666" stroke="#666666" points="15,-242 15,-242 176,-242 176,-242 15,-242"/>
<polygon fill="none" stroke="#666666" points="0,0 0,-424 176,-424 176,0 0,0"/>
</a>
</g>
</g>
<!-- Node2 -->
<g id="Node000002" class="node">
<title>Node2</title>
<g id="a_Node000002"><a xlink:href="classKsolveBase.html" target="_top" xlink:title=" ">
<polygon fill="white" stroke="transparent" points="150.5,-689 25.5,-689 25.5,-460 150.5,-460 150.5,-689"/>
<text text-anchor="start" x="59.5" y="-676.5" font-family="Ubuntu Mono" font-size="10.00">KsolveBase</text>
<text text-anchor="start" x="30" y="-661.5" font-family="Ubuntu Mono" font-size="10.00">#</text>
<text text-anchor="start" x="43" y="-661.5" font-family="Ubuntu Mono" font-size="10.00">compartment_</text>
<text text-anchor="start" x="30" y="-646.5" font-family="Ubuntu Mono" font-size="10.00">#</text>
<text text-anchor="start" x="43" y="-646.5" font-family="Ubuntu Mono" font-size="10.00">isBuilt_</text>
<text text-anchor="start" x="30" y="-631.5" font-family="Ubuntu Mono" font-size="10.00">#</text>
<text text-anchor="start" x="43" y="-631.5" font-family="Ubuntu Mono" font-size="10.00">stoich_</text>
<text text-anchor="start" x="30" y="-616.5" font-family="Ubuntu Mono" font-size="10.00">+</text>
<text text-anchor="start" x="43" y="-616.5" font-family="Ubuntu Mono" font-size="10.00">getBlock()</text>
<text text-anchor="start" x="30" y="-601.5" font-family="Ubuntu Mono" font-size="10.00">+</text>
<text text-anchor="start" x="43" y="-601.5" font-family="Ubuntu Mono" font-size="10.00">getCompartment()</text>
<text text-anchor="start" x="30" y="-586.5" font-family="Ubuntu Mono" font-size="10.00">+</text>
<text text-anchor="start" x="43" y="-586.5" font-family="Ubuntu Mono" font-size="10.00">getConcInit()</text>
<text text-anchor="start" x="30" y="-571.5" font-family="Ubuntu Mono" font-size="10.00">+</text>
<text text-anchor="start" x="43" y="-571.5" font-family="Ubuntu Mono" font-size="10.00">getDiffConst()</text>
<text text-anchor="start" x="30" y="-556.5" font-family="Ubuntu Mono" font-size="10.00">+</text>
<text text-anchor="start" x="43" y="-556.5" font-family="Ubuntu Mono" font-size="10.00">getMotorConst()</text>
<text text-anchor="start" x="30" y="-541.5" font-family="Ubuntu Mono" font-size="10.00">+</text>
<text text-anchor="start" x="43" y="-541.5" font-family="Ubuntu Mono" font-size="10.00">getN()</text>
<text text-anchor="start" x="30" y="-526.5" font-family="Ubuntu Mono" font-size="10.00">+</text>
<text text-anchor="start" x="43" y="-526.5" font-family="Ubuntu Mono" font-size="10.00">getNumLocalVoxels()</text>
<text text-anchor="start" x="30" y="-511.5" font-family="Ubuntu Mono" font-size="10.00">+</text>
<text text-anchor="start" x="43" y="-511.5" font-family="Ubuntu Mono" font-size="10.00">getNumPools()</text>
<text text-anchor="start" x="30" y="-496.5" font-family="Ubuntu Mono" font-size="10.00">+</text>
<text text-anchor="start" x="43" y="-496.5" font-family="Ubuntu Mono" font-size="10.00">getPoolIndex()</text>
<text text-anchor="start" x="30" y="-481.5" font-family="Ubuntu Mono" font-size="10.00">+</text>
<text text-anchor="start" x="43" y="-481.5" font-family="Ubuntu Mono" font-size="10.00">getR1()</text>
<text text-anchor="start" x="43" y="-466.5" font-family="Ubuntu Mono" font-size="10.00">and 24 more...</text>
<polygon fill="#666666" stroke="#666666" points="26,-671.5 26,-671.5 151,-671.5 151,-671.5 26,-671.5"/>
<polygon fill="#666666" stroke="#666666" points="26,-626.5 26,-626.5 41,-626.5 41,-626.5 26,-626.5"/>
<polygon fill="#666666" stroke="#666666" points="41,-626.5 41,-626.5 151,-626.5 151,-626.5 41,-626.5"/>
<polygon fill="none" stroke="#666666" points="25.5,-460 25.5,-689 150.5,-689 150.5,-460 25.5,-460"/>
</a>
</g>
</g>
<!-- Node2&#45;&gt;Node1 -->
<g id="edge1_Node000001_Node000002" class="edge">
<title>Node2&#45;&gt;Node1</title>
<g id="a_edge1_Node000001_Node000002"><a xlink:title=" ">
<path fill="none" stroke="#63b8ff" d="M88,-449.81C88,-441.43 88,-432.87 88,-424.21"/>
<polygon fill="none" stroke="#63b8ff" points="84.5,-449.93 88,-459.93 91.5,-449.93 84.5,-449.93"/>
</a>
</g>
</g>
</g>
</svg>
