<?xml version="1.0" encoding="UTF-8" standalone="no"?>
<!DOCTYPE svg PUBLIC "-//W3C//DTD SVG 1.1//EN"
 "http://www.w3.org/Graphics/SVG/1.1/DTD/svg11.dtd">
<!-- Generated by graphviz version 2.43.0 (0)
 -->
<!-- Title: MarkovRateTable::areAllRatesVoltageDep Pages: 1 -->
<svg width="599pt" height="142pt"
 viewBox="0.00 0.00 599.00 141.50" xmlns="http://www.w3.org/2000/svg" xmlns:xlink="http://www.w3.org/1999/xlink">
<g id="graph0" class="graph" transform="scale(1 1) rotate(0) translate(4 137.5)">
<title>MarkovRateTable::areAllRatesVoltageDep</title>
<!-- Node1 -->
<g id="Node000001" class="node">
<title>Node1</title>
<g id="a_Node000001"><a xlink:title=" ">
<polygon fill="#999999" stroke="#666666" points="163,-78 0,-78 0,-48 163,-48 163,-78"/>
<text text-anchor="start" x="8" y="-66" font-family="Ubuntu Mono" font-size="10.00">MarkovRateTable::areAllRates</text>
<text text-anchor="middle" x="81.5" y="-55" font-family="Ubuntu Mono" font-size="10.00">VoltageDep</text>
</a>
</g>
</g>
<!-- Node2 -->
<g id="Node000002" class="node">
<title>Node2</title>
<g id="a_Node000002"><a xlink:href="classMarkovRateTable.html#a4c6b1dbe68018090fbc264c05e899ed1" target="_top" xlink:title=" ">
<polygon fill="white" stroke="#666666" points="374,-115.5 199,-115.5 199,-96.5 374,-96.5 374,-115.5"/>
<text text-anchor="middle" x="286.5" y="-103.5" font-family="Ubuntu Mono" font-size="10.00">MarkovRateTable::areAllRates1d</text>
</a>
</g>
</g>
<!-- Node1&#45;&gt;Node2 -->
<g id="edge1_Node000001_Node000002" class="edge">
<title>Node1&#45;&gt;Node2</title>
<g id="a_edge1_Node000001_Node000002"><a xlink:title=" ">
<path fill="none" stroke="#63b8ff" d="M153.5,-78.04C178.81,-83.4 206.91,-89.35 230.66,-94.38"/>
<polygon fill="#63b8ff" stroke="#63b8ff" points="230.04,-97.83 240.55,-96.48 231.49,-90.98 230.04,-97.83"/>
</a>
</g>
</g>
<!-- Node5 -->
<g id="Node000005" class="node">
<title>Node5</title>
<g id="a_Node000005"><a xlink:href="classMarkovRateTable.html#af0020d4e1b30fae96f3dcae211dc81d3" target="_top" xlink:title=" ">
<polygon fill="white" stroke="#666666" points="371,-78 202,-78 202,-48 371,-48 371,-78"/>
<text text-anchor="start" x="210" y="-66" font-family="Ubuntu Mono" font-size="10.00">MarkovRateTable::areAnyRates</text>
<text text-anchor="middle" x="286.5" y="-55" font-family="Ubuntu Mono" font-size="10.00">LigandDep</text>
</a>
</g>
</g>
<!-- Node1&#45;&gt;Node5 -->
<g id="edge4_Node000001_Node000005" class="edge">
<title>Node1&#45;&gt;Node5</title>
<g id="a_edge4_Node000001_Node000005"><a xlink:title=" ">
<path fill="none" stroke="#63b8ff" d="M163.02,-63C172.37,-63 181.97,-63 191.48,-63"/>
<polygon fill="#63b8ff" stroke="#63b8ff" points="191.74,-66.5 201.74,-63 191.74,-59.5 191.74,-66.5"/>
</a>
</g>
</g>
<!-- Node6 -->
<g id="Node000006" class="node">
<title>Node6</title>
<g id="a_Node000006"><a xlink:href="classMarkovRateTable.html#a0b85d6dc5f3b660d5eb3f05ec41e1831" target="_top" xlink:title=" ">
<polygon fill="white" stroke="#666666" points="371,-30 202,-30 202,0 371,0 371,-30"/>
<text text-anchor="start" x="210" y="-18" font-family="Ubuntu Mono" font-size="10.00">MarkovRateTable::areAnyRates</text>
<text text-anchor="middle" x="286.5" y="-7" font-family="Ubuntu Mono" font-size="10.00">VoltageDep</text>
</a>
</g>
</g>
<!-- Node1&#45;&gt;Node6 -->
<g id="edge5_Node000001_Node000006" class="edge">
<title>Node1&#45;&gt;Node6</title>
<g id="a_edge5_Node000001_Node000006"><a xlink:title=" ">
<path fill="none" stroke="#63b8ff" d="M146.17,-47.94C167.15,-42.99 190.63,-37.43 212.26,-32.32"/>
<polygon fill="#63b8ff" stroke="#63b8ff" points="213.13,-35.71 222.05,-30 211.52,-28.9 213.13,-35.71"/>
</a>
</g>
</g>
<!-- Node3 -->
<g id="Node000003" class="node">
<title>Node3</title>
<g id="a_Node000003"><a xlink:href="classMarkovRateTable.html#ab0999a63b08a6cbdac7ec210d39f9a4a" target="_top" xlink:title=" ">
<polygon fill="white" stroke="#666666" points="591,-133.5 410,-133.5 410,-114.5 591,-114.5 591,-133.5"/>
<text text-anchor="middle" x="500.5" y="-121.5" font-family="Ubuntu Mono" font-size="10.00">MarkovRateTable::areAnyRates1d</text>
</a>
</g>
</g>
<!-- Node2&#45;&gt;Node3 -->
<g id="edge2_Node000002_Node000003" class="edge">
<title>Node2&#45;&gt;Node3</title>
<g id="a_edge2_Node000002_Node000003"><a xlink:title=" ">
<path fill="none" stroke="#63b8ff" d="M374.03,-113.35C382.51,-114.07 391.16,-114.8 399.75,-115.53"/>
<polygon fill="#63b8ff" stroke="#63b8ff" points="399.54,-119.03 409.8,-116.38 400.13,-112.05 399.54,-119.03"/>
</a>
</g>
</g>
<!-- Node4 -->
<g id="Node000004" class="node">
<title>Node4</title>
<g id="a_Node000004"><a xlink:href="classMarkovRateTable.html#ac59398063dab001df15b2576ae2058f5" target="_top" xlink:title=" ">
<polygon fill="white" stroke="#666666" points="591,-96.5 410,-96.5 410,-77.5 591,-77.5 591,-96.5"/>
<text text-anchor="middle" x="500.5" y="-84.5" font-family="Ubuntu Mono" font-size="10.00">MarkovRateTable::areAnyRates2d</text>
</a>
</g>
</g>
<!-- Node2&#45;&gt;Node4 -->
<g id="edge3_Node000002_Node000004" class="edge">
<title>Node2&#45;&gt;Node4</title>
<g id="a_edge3_Node000002_Node000004"><a xlink:title=" ">
<path fill="none" stroke="#63b8ff" d="M374.03,-98.24C382.51,-97.48 391.16,-96.71 399.75,-95.94"/>
<polygon fill="#63b8ff" stroke="#63b8ff" points="400.15,-99.42 409.8,-95.04 399.53,-92.45 400.15,-99.42"/>
</a>
</g>
</g>
</g>
</svg>
