<?xml version="1.0" encoding="UTF-8" standalone="no"?>
<!DOCTYPE svg PUBLIC "-//W3C//DTD SVG 1.1//EN"
 "http://www.w3.org/Graphics/SVG/1.1/DTD/svg11.dtd">
<!-- Generated by graphviz version 2.43.0 (0)
 -->
<!-- Title: Table::input Pages: 1 -->
<svg width="316pt" height="64pt"
 viewBox="0.00 0.00 316.00 64.00" xmlns="http://www.w3.org/2000/svg" xmlns:xlink="http://www.w3.org/1999/xlink">

<svg id="main" version="1.1" xmlns="http://www.w3.org/2000/svg" xmlns:xlink="http://www.w3.org/1999/xlink" xml:space="preserve" onload="init(evt)">
<style type="text/css"><![CDATA[
.node, .edge {opacity: 0.7;}
.node.selected, .edge.selected {opacity: 1;}
.edge:hover path { stroke: red; }
.edge:hover polygon { stroke: red; fill: red; }
]]></style>
<script type="application/ecmascript" xlink:href="svg.min.js"/>
<svg id="graph" class="graph">
<g id="graph0" class="graph" transform="scale(1 1) rotate(0) translate(4 60)">
<title>Table::input</title>
<!-- Node1 -->
<g id="Node000001" class="node">
<title>Node1</title>
<g id="a_Node000001"><a xlink:title=" ">
<polygon fill="#999999" stroke="#666666" points="308,-37 235,-37 235,-18 308,-18 308,-37"/>
<text text-anchor="middle" x="271.5" y="-25" font-family="Ubuntu Mono" font-size="10.00">Table::input</text>
</a>
</g>
</g>
<!-- Node2 -->
<g id="Node000002" class="node">
<title>Node2</title>
<g id="a_Node000002"><a xlink:href="Table_8cpp.html#a76c2b2c49ec8e71a9e1c1a389f85f507" target="_top" xlink:title=" ">
<polygon fill="white" stroke="#666666" points="199,-56 125,-56 125,-37 199,-37 199,-56"/>
<text text-anchor="middle" x="162" y="-44" font-family="Ubuntu Mono" font-size="10.00">handleInput</text>
</a>
</g>
</g>
<!-- Node1&#45;&gt;Node2 -->
<g id="edge1_Node000001_Node000002" class="edge">
<title>Node1&#45;&gt;Node2</title>
<g id="a_edge1_Node000001_Node000002"><a xlink:title=" ">
<path fill="none" stroke="#63b8ff" d="M224.78,-35.58C216.16,-37.1 207.27,-38.68 199.01,-40.14"/>
<polygon fill="#63b8ff" stroke="#63b8ff" points="225.47,-39.01 234.7,-33.83 224.25,-32.12 225.47,-39.01"/>
</a>
</g>
</g>
<!-- Node4 -->
<g id="Node000004" class="node">
<title>Node4</title>
<g id="a_Node000004"><a xlink:href="testBuiltins_8cpp.html#adeaf62d64a49a43fef929fa5d1c1999e" target="_top" xlink:title=" ">
<polygon fill="white" stroke="#666666" points="192.5,-19 131.5,-19 131.5,0 192.5,0 192.5,-19"/>
<text text-anchor="middle" x="162" y="-7" font-family="Ubuntu Mono" font-size="10.00">testTable</text>
</a>
</g>
</g>
<!-- Node1&#45;&gt;Node4 -->
<g id="edge3_Node000001_Node000004" class="edge">
<title>Node1&#45;&gt;Node4</title>
<g id="a_edge3_Node000001_Node000004"><a xlink:title=" ">
<path fill="none" stroke="#63b8ff" d="M224.51,-19.8C213.69,-17.99 202.43,-16.1 192.55,-14.45"/>
<polygon fill="#63b8ff" stroke="#63b8ff" points="224.26,-23.31 234.7,-21.51 225.42,-16.4 224.26,-23.31"/>
</a>
</g>
</g>
<!-- Node3 -->
<g id="Node000003" class="node">
<title>Node3</title>
<g id="a_Node000003"><a xlink:href="classTable.html#a510dd5d32479feb8100fc46ee5245240" target="_top" xlink:title=" ">
<polygon fill="white" stroke="#666666" points="89,-56 0,-56 0,-37 89,-37 89,-56"/>
<text text-anchor="middle" x="44.5" y="-44" font-family="Ubuntu Mono" font-size="10.00">Table::initCinfo</text>
</a>
</g>
</g>
<!-- Node2&#45;&gt;Node3 -->
<g id="edge2_Node000002_Node000003" class="edge">
<title>Node2&#45;&gt;Node3</title>
<g id="a_edge2_Node000002_Node000003"><a xlink:title=" ">
<path fill="none" stroke="#63b8ff" d="M114.75,-46.5C106.36,-46.5 97.62,-46.5 89.3,-46.5"/>
<polygon fill="#63b8ff" stroke="#63b8ff" points="114.77,-50 124.77,-46.5 114.77,-43 114.77,-50"/>
</a>
</g>
</g>
<!-- Node5 -->
<g id="Node000005" class="node">
<title>Node5</title>
<g id="a_Node000005"><a xlink:href="testBuiltins_8cpp.html#a7ab6d854a57ffd12234aa6d0e54e7520" target="_top" xlink:title=" ">
<polygon fill="white" stroke="#666666" points="80.5,-19 8.5,-19 8.5,0 80.5,0 80.5,-19"/>
<text text-anchor="middle" x="44.5" y="-7" font-family="Ubuntu Mono" font-size="10.00">testBuiltins</text>
</a>
</g>
</g>
<!-- Node4&#45;&gt;Node5 -->
<g id="edge4_Node000004_Node000005" class="edge">
<title>Node4&#45;&gt;Node5</title>
<g id="a_edge4_Node000004_Node000005"><a xlink:title=" ">
<path fill="none" stroke="#63b8ff" d="M121.12,-9.5C108.05,-9.5 93.62,-9.5 80.9,-9.5"/>
<polygon fill="#63b8ff" stroke="#63b8ff" points="121.26,-13 131.26,-9.5 121.26,-6 121.26,-13"/>
</a>
</g>
</g>
</g>
</svg>
</svg>

<style type='text/css'>
<![CDATA[
[data-mouse-over-selected='false'] { opacity: 0.7; }
[data-mouse-over-selected='true']  { opacity: 1.0; }
]]>
</style>
<script type="application/ecmascript"><![CDATA[
document.addEventListener('DOMContentLoaded', (event) => {
  highlightEdges();
  highlightAdjacentNodes();
});
]]></script>
</svg>
