<?xml version="1.0" encoding="UTF-8" standalone="no"?>
<!DOCTYPE svg PUBLIC "-//W3C//DTD SVG 1.1//EN"
 "http://www.w3.org/Graphics/SVG/1.1/DTD/svg11.dtd">
<!-- Generated by graphviz version 2.43.0 (0)
 -->
<!-- Title: Dsolve::mapDiffPoolsBetweenDsolves Pages: 1 -->
<svg width="600pt" height="350pt"
 viewBox="0.00 0.00 600.00 350.00" xmlns="http://www.w3.org/2000/svg" xmlns:xlink="http://www.w3.org/1999/xlink">
<g id="graph0" class="graph" transform="scale(1 1) rotate(0) translate(4 346)">
<title>Dsolve::mapDiffPoolsBetweenDsolves</title>
<!-- Node1 -->
<g id="Node000001" class="node">
<title>Node1</title>
<g id="a_Node000001"><a xlink:title="Sets up map of matching pools for diffusion.">
<polygon fill="#999999" stroke="#666666" points="164,-153.5 0,-153.5 0,-123.5 164,-123.5 164,-153.5"/>
<text text-anchor="start" x="8" y="-141.5" font-family="Ubuntu Mono" font-size="10.00">Dsolve::mapDiffPoolsBetween</text>
<text text-anchor="middle" x="82" y="-130.5" font-family="Ubuntu Mono" font-size="10.00">Dsolves</text>
</a>
</g>
</g>
<!-- Node2 -->
<g id="Node000002" class="node">
<title>Node2</title>
<g id="a_Node000002"><a xlink:href="classEref.html#ac605440cdeae71e424022cd849a2866d" target="_top" xlink:title=" ">
<polygon fill="white" stroke="#666666" points="285.5,-287 222.5,-287 222.5,-268 285.5,-268 285.5,-287"/>
<text text-anchor="middle" x="254" y="-275" font-family="Ubuntu Mono" font-size="10.00">Eref::data</text>
</a>
</g>
</g>
<!-- Node1&#45;&gt;Node2 -->
<g id="edge1_Node000001_Node000002" class="edge">
<title>Node1&#45;&gt;Node2</title>
<g id="a_edge1_Node000001_Node000002"><a xlink:title=" ">
<path fill="none" stroke="#63b8ff" d="M96.3,-153.51C116.93,-176.22 158.6,-219.79 200,-249.5 207.03,-254.55 215.09,-259.27 222.76,-263.35"/>
<polygon fill="#63b8ff" stroke="#63b8ff" points="221.34,-266.55 231.84,-267.98 224.52,-260.32 221.34,-266.55"/>
</a>
</g>
</g>
<!-- Node8 -->
<g id="Node000008" class="node">
<title>Node8</title>
<g id="a_Node000008"><a xlink:href="classId.html#a574e06330597163aef0ea4c99de7ff4a" target="_top" xlink:title="Synonym for Id::operator()()">
<polygon fill="white" stroke="#666666" points="290,-241 218,-241 218,-222 290,-222 290,-241"/>
<text text-anchor="middle" x="254" y="-229" font-family="Ubuntu Mono" font-size="10.00">Id::element</text>
</a>
</g>
</g>
<!-- Node1&#45;&gt;Node8 -->
<g id="edge7_Node000001_Node000008" class="edge">
<title>Node1&#45;&gt;Node8</title>
<g id="a_edge7_Node000001_Node000008"><a xlink:title=" ">
<path fill="none" stroke="#63b8ff" d="M103.75,-153.6C126.52,-169.7 164.58,-195.21 200,-212.5 204.28,-214.59 208.84,-216.57 213.44,-218.41"/>
<polygon fill="#63b8ff" stroke="#63b8ff" points="212.22,-221.69 222.81,-221.97 214.71,-215.15 212.22,-221.69"/>
</a>
</g>
</g>
<!-- Node10 -->
<g id="Node000010" class="node">
<title>Node10</title>
<g id="a_Node000010"><a xlink:href="classId.html#adac7a40d04024a7b9dcb7eae7b9fdf9b" target="_top" xlink:title=" ">
<polygon fill="white" stroke="#666666" points="279.5,-204 228.5,-204 228.5,-185 279.5,-185 279.5,-204"/>
<text text-anchor="middle" x="254" y="-192" font-family="Ubuntu Mono" font-size="10.00">Id::eref</text>
</a>
</g>
</g>
<!-- Node1&#45;&gt;Node10 -->
<g id="edge9_Node000001_Node000010" class="edge">
<title>Node1&#45;&gt;Node10</title>
<g id="a_edge9_Node000001_Node000010"><a xlink:title=" ">
<path fill="none" stroke="#63b8ff" d="M128.56,-153.51C156.86,-162.83 192.67,-174.63 218.59,-183.17"/>
<polygon fill="#63b8ff" stroke="#63b8ff" points="217.76,-186.58 228.36,-186.38 219.95,-179.93 217.76,-186.58"/>
</a>
</g>
</g>
<!-- Node12 -->
<g id="Node000012" class="node">
<title>Node12</title>
<g id="a_Node000012"><a xlink:href="classDiffPoolVec.html#a7e766c12f5bca7d54c9b07a9ca85f2bc" target="_top" xlink:title=" ">
<polygon fill="white" stroke="#666666" points="305.5,-167 202.5,-167 202.5,-148 305.5,-148 305.5,-167"/>
<text text-anchor="middle" x="254" y="-155" font-family="Ubuntu Mono" font-size="10.00">DiffPoolVec::getId</text>
</a>
</g>
</g>
<!-- Node1&#45;&gt;Node12 -->
<g id="edge12_Node000001_Node000012" class="edge">
<title>Node1&#45;&gt;Node12</title>
<g id="a_edge12_Node000001_Node000012"><a xlink:title=" ">
<path fill="none" stroke="#63b8ff" d="M164.02,-147.55C173.46,-148.61 182.97,-149.67 192.08,-150.69"/>
<polygon fill="#63b8ff" stroke="#63b8ff" points="191.84,-154.19 202.17,-151.82 192.62,-147.23 191.84,-154.19"/>
</a>
</g>
</g>
<!-- Node13 -->
<g id="Node000013" class="node">
<title>Node13</title>
<g id="a_Node000013"><a xlink:href="classElement.html#a1a2068a4e70da0f951bc3e73b758ef4a" target="_top" xlink:title=" ">
<polygon fill="white" stroke="#666666" points="308,-130 200,-130 200,-111 308,-111 308,-130"/>
<text text-anchor="middle" x="254" y="-118" font-family="Ubuntu Mono" font-size="10.00">Element::getName</text>
</a>
</g>
</g>
<!-- Node1&#45;&gt;Node13 -->
<g id="edge13_Node000001_Node000013" class="edge">
<title>Node1&#45;&gt;Node13</title>
<g id="a_edge13_Node000001_Node000013"><a xlink:title=" ">
<path fill="none" stroke="#63b8ff" d="M164.02,-129.92C172.65,-129.01 181.34,-128.09 189.72,-127.2"/>
<polygon fill="#63b8ff" stroke="#63b8ff" points="190.2,-130.67 199.78,-126.14 189.47,-123.71 190.2,-130.67"/>
</a>
</g>
</g>
<!-- Node14 -->
<g id="Node000014" class="node">
<title>Node14</title>
<g id="a_Node000014"><a xlink:href="classId.html#ac094968605676d63b55ca33b7e318948" target="_top" xlink:title=" ">
<polygon fill="white" stroke="#666666" points="274.5,-93 233.5,-93 233.5,-74 274.5,-74 274.5,-93"/>
<text text-anchor="middle" x="254" y="-81" font-family="Ubuntu Mono" font-size="10.00">Id::Id</text>
</a>
</g>
</g>
<!-- Node1&#45;&gt;Node14 -->
<g id="edge14_Node000001_Node000014" class="edge">
<title>Node1&#45;&gt;Node14</title>
<g id="a_edge14_Node000001_Node000014"><a xlink:title=" ">
<path fill="none" stroke="#63b8ff" d="M129.45,-123.47C159.48,-113.76 197.65,-101.41 223.56,-93.02"/>
<polygon fill="#63b8ff" stroke="#63b8ff" points="224.75,-96.32 233.19,-89.91 222.6,-89.66 224.75,-96.32"/>
</a>
</g>
</g>
<!-- Node15 -->
<g id="Node000015" class="node">
<title>Node15</title>
<g id="a_Node000015"><a xlink:href="classId.html#a93dba2b91874b368b751a73a035523e0" target="_top" xlink:title=" ">
<polygon fill="white" stroke="#666666" points="274.5,-56 233.5,-56 233.5,-37 274.5,-37 274.5,-56"/>
<text text-anchor="middle" x="254" y="-44" font-family="Ubuntu Mono" font-size="10.00">Id::Id</text>
</a>
</g>
</g>
<!-- Node1&#45;&gt;Node15 -->
<g id="edge15_Node000001_Node000015" class="edge">
<title>Node1&#45;&gt;Node15</title>
<g id="a_edge15_Node000001_Node000015"><a xlink:title=" ">
<path fill="none" stroke="#63b8ff" d="M103.69,-123.28C126.42,-107.08 164.43,-81.49 200,-64.5 207.52,-60.91 215.95,-57.7 223.84,-55.03"/>
<polygon fill="#63b8ff" stroke="#63b8ff" points="224.99,-58.33 233.43,-51.93 222.84,-51.67 224.99,-58.33"/>
</a>
</g>
</g>
<!-- Node16 -->
<g id="Node000016" class="node">
<title>Node16</title>
<g id="a_Node000016"><a xlink:href="classId.html#a6a4a7d5c9e8524644febc6b6e8dc1ab9" target="_top" xlink:title=" ">
<polygon fill="white" stroke="#666666" points="296.5,-19 211.5,-19 211.5,0 296.5,0 296.5,-19"/>
<text text-anchor="middle" x="254" y="-7" font-family="Ubuntu Mono" font-size="10.00">Id::operator!=</text>
</a>
</g>
</g>
<!-- Node1&#45;&gt;Node16 -->
<g id="edge16_Node000001_Node000016" class="edge">
<title>Node1&#45;&gt;Node16</title>
<g id="a_edge16_Node000001_Node000016"><a xlink:title=" ">
<path fill="none" stroke="#63b8ff" d="M95.09,-123.42C114.75,-99.82 155.9,-54.13 200,-27.5 202.66,-25.89 205.48,-24.41 208.38,-23.04"/>
<polygon fill="#63b8ff" stroke="#63b8ff" points="209.98,-26.17 217.82,-19.05 207.25,-19.72 209.98,-26.17"/>
</a>
</g>
</g>
<!-- Node3 -->
<g id="Node000003" class="node">
<title>Node3</title>
<g id="a_Node000003"><a xlink:href="classElement.html#a1978a0a584f1b10ea4a7c67e69880042" target="_top" xlink:title=" ">
<polygon fill="white" stroke="#666666" points="440.5,-342 355.5,-342 355.5,-323 440.5,-323 440.5,-342"/>
<text text-anchor="middle" x="398" y="-330" font-family="Ubuntu Mono" font-size="10.00">Element::data</text>
</a>
</g>
</g>
<!-- Node2&#45;&gt;Node3 -->
<g id="edge2_Node000002_Node000003" class="edge">
<title>Node2&#45;&gt;Node3</title>
<g id="a_edge2_Node000002_Node000003"><a xlink:title=" ">
<path fill="none" stroke="#63b8ff" d="M276.78,-287.03C294.7,-294.76 320.83,-305.76 344,-314.5 348.53,-316.21 353.31,-317.94 358.07,-319.61"/>
<polygon fill="#63b8ff" stroke="#63b8ff" points="357.12,-322.99 367.72,-322.94 359.41,-316.37 357.12,-322.99"/>
</a>
</g>
</g>
<!-- Node4 -->
<g id="Node000004" class="node">
<title>Node4</title>
<g id="a_Node000004"><a xlink:href="classEref.html#a72bb0cb6e699b5beb80e9f35eb07e392" target="_top" xlink:title=" ">
<polygon fill="white" stroke="#666666" points="446,-305 350,-305 350,-286 446,-286 446,-305"/>
<text text-anchor="middle" x="398" y="-293" font-family="Ubuntu Mono" font-size="10.00">Eref::isDataHere</text>
</a>
</g>
</g>
<!-- Node2&#45;&gt;Node4 -->
<g id="edge3_Node000002_Node000004" class="edge">
<title>Node2&#45;&gt;Node4</title>
<g id="a_edge3_Node000002_Node000004"><a xlink:title=" ">
<path fill="none" stroke="#63b8ff" d="M285.81,-281.41C301.57,-283.4 321.27,-285.9 339.69,-288.24"/>
<polygon fill="#63b8ff" stroke="#63b8ff" points="339.4,-291.73 349.76,-289.51 340.28,-284.78 339.4,-291.73"/>
</a>
</g>
</g>
<!-- Node7 -->
<g id="Node000007" class="node">
<title>Node7</title>
<g id="a_Node000007"><a xlink:href="classElement.html#a73a0e468a3d6cfd6475fff4a56459075" target="_top" xlink:title=" ">
<polygon fill="white" stroke="#666666" points="452,-268 344,-268 344,-249 452,-249 452,-268"/>
<text text-anchor="middle" x="398" y="-256" font-family="Ubuntu Mono" font-size="10.00">Element::rawIndex</text>
</a>
</g>
</g>
<!-- Node2&#45;&gt;Node7 -->
<g id="edge6_Node000002_Node000007" class="edge">
<title>Node2&#45;&gt;Node7</title>
<g id="a_edge6_Node000002_Node000007"><a xlink:title=" ">
<path fill="none" stroke="#63b8ff" d="M285.81,-273.38C299.86,-271.5 317.04,-269.2 333.66,-266.98"/>
<polygon fill="#63b8ff" stroke="#63b8ff" points="334.45,-270.4 343.9,-265.61 333.52,-263.46 334.45,-270.4"/>
</a>
</g>
</g>
<!-- Node5 -->
<g id="Node000005" class="node">
<title>Node5</title>
<g id="a_Node000005"><a xlink:href="classElement.html#a6350d721871c508fbf68286a3907e4a1" target="_top" xlink:title="Returns node number of specified dataIndex.">
<polygon fill="white" stroke="#666666" points="592,-323 488,-323 488,-304 592,-304 592,-323"/>
<text text-anchor="middle" x="540" y="-311" font-family="Ubuntu Mono" font-size="10.00">Element::getNode</text>
</a>
</g>
</g>
<!-- Node4&#45;&gt;Node5 -->
<g id="edge4_Node000004_Node000005" class="edge">
<title>Node4&#45;&gt;Node5</title>
<g id="a_edge4_Node000004_Node000005"><a xlink:title=" ">
<path fill="none" stroke="#63b8ff" d="M446.01,-301.54C456.12,-302.84 466.95,-304.24 477.52,-305.6"/>
<polygon fill="#63b8ff" stroke="#63b8ff" points="477.18,-309.08 487.55,-306.88 478.07,-302.14 477.18,-309.08"/>
</a>
</g>
</g>
<!-- Node6 -->
<g id="Node000006" class="node">
<title>Node6</title>
<g id="a_Node000006"><a xlink:href="classShell.html#a4c3608b6ca5fcec63a13b12c49b9d530" target="_top" xlink:title=" ">
<polygon fill="white" stroke="#666666" points="584,-286 496,-286 496,-267 584,-267 584,-286"/>
<text text-anchor="middle" x="540" y="-274" font-family="Ubuntu Mono" font-size="10.00">Shell::myNode</text>
</a>
</g>
</g>
<!-- Node4&#45;&gt;Node6 -->
<g id="edge5_Node000004_Node000006" class="edge">
<title>Node4&#45;&gt;Node6</title>
<g id="a_edge5_Node000004_Node000006"><a xlink:title=" ">
<path fill="none" stroke="#63b8ff" d="M446.01,-289.12C458.67,-287.4 472.46,-285.53 485.45,-283.77"/>
<polygon fill="#63b8ff" stroke="#63b8ff" points="486.22,-287.2 495.66,-282.38 485.28,-280.26 486.22,-287.2"/>
</a>
</g>
</g>
<!-- Node9 -->
<g id="Node000009" class="node">
<title>Node9</title>
<g id="a_Node000009"><a xlink:href="classId.html#a2d5e7b4d5d918aadfe45102691c2be27" target="_top" xlink:title=" ">
<polygon fill="white" stroke="#666666" points="436.5,-231 359.5,-231 359.5,-212 436.5,-212 436.5,-231"/>
<text text-anchor="middle" x="398" y="-219" font-family="Ubuntu Mono" font-size="10.00">Id::elements</text>
</a>
</g>
</g>
<!-- Node8&#45;&gt;Node9 -->
<g id="edge8_Node000008_Node000009" class="edge">
<title>Node8&#45;&gt;Node9</title>
<g id="a_edge8_Node000008_Node000009"><a xlink:title=" ">
<path fill="none" stroke="#63b8ff" d="M290.1,-229.03C307.92,-227.77 329.84,-226.23 349.18,-224.87"/>
<polygon fill="#63b8ff" stroke="#63b8ff" points="349.59,-228.35 359.32,-224.15 349.1,-221.36 349.59,-228.35"/>
</a>
</g>
</g>
<!-- Node10&#45;&gt;Node9 -->
<g id="edge10_Node000010_Node000009" class="edge">
<title>Node10&#45;&gt;Node9</title>
<g id="a_edge10_Node000010_Node000009"><a xlink:title=" ">
<path fill="none" stroke="#63b8ff" d="M279.73,-199.2C298.91,-202.85 326.05,-208.01 349.4,-212.45"/>
<polygon fill="#63b8ff" stroke="#63b8ff" points="349,-215.94 359.48,-214.37 350.31,-209.06 349,-215.94"/>
</a>
</g>
</g>
<!-- Node11 -->
<g id="Node000011" class="node">
<title>Node11</title>
<g id="a_Node000011"><a xlink:href="classEref.html#a3addb850bc6cbac7771a07de219d909d" target="_top" xlink:title=" ">
<polygon fill="white" stroke="#666666" points="428.5,-194 367.5,-194 367.5,-175 428.5,-175 428.5,-194"/>
<text text-anchor="middle" x="398" y="-182" font-family="Ubuntu Mono" font-size="10.00">Eref::Eref</text>
</a>
</g>
</g>
<!-- Node10&#45;&gt;Node11 -->
<g id="edge11_Node000010_Node000011" class="edge">
<title>Node10&#45;&gt;Node11</title>
<g id="a_edge11_Node000010_Node000011"><a xlink:title=" ">
<path fill="none" stroke="#63b8ff" d="M279.73,-192.76C301.08,-191.25 332.31,-189.06 357.17,-187.3"/>
<polygon fill="#63b8ff" stroke="#63b8ff" points="357.66,-190.78 367.39,-186.59 357.17,-183.8 357.66,-190.78"/>
</a>
</g>
</g>
</g>
</svg>
