<?xml version="1.0" encoding="UTF-8" standalone="no"?>
<!DOCTYPE svg PUBLIC "-//W3C//DTD SVG 1.1//EN"
 "http://www.w3.org/Graphics/SVG/1.1/DTD/svg11.dtd">
<!-- Generated by graphviz version 2.43.0 (0)
 -->
<!-- Title: OneToOneDataIndexMsg::copy Pages: 1 -->
<!--zoomable 324 -->

<svg id="main" version="1.1" xmlns="http://www.w3.org/2000/svg" xmlns:xlink="http://www.w3.org/1999/xlink" xml:space="preserve" onload="init(evt)">
<style type="text/css"><![CDATA[
.node, .edge {opacity: 0.7;}
.node.selected, .edge.selected {opacity: 1;}
.edge:hover path { stroke: red; }
.edge:hover polygon { stroke: red; fill: red; }
]]></style>

<defs>
  <circle id="rim" cx="0" cy="0" r="7"/>
  <circle id="rim2" cx="0" cy="0" r="3.5"/>
  <g id="zoomPlus">
    <use xlink:href="#rim" fill="#404040"><set attributeName="fill" to="#808080" begin="zoomplus.mouseover" end="zoomplus.mouseout"/></use>
    <path d="M-4,0h8M0,-4v8" fill="none" stroke="white" stroke-width="1.5" pointer-events="none"/>
  </g>
  <g id="zoomMin">
    <use xlink:href="#rim" fill="#404040"><set attributeName="fill" to="#808080" begin="zoomminus.mouseover" end="zoomminus.mouseout"/></use>
    <path d="M-4,0h8" fill="none" stroke="white" stroke-width="1.5" pointer-events="none"/>
  </g>
  <g id="arrowUp" transform="translate(30 24)">
    <use xlink:href="#rim"/>
    <path pointer-events="none" fill="none" stroke="white" stroke-width="1.5" d="M0,-3.0v7 M-2.5,-0.5L0,-3.0L2.5,-0.5"/>
  </g>
  <g id="arrowRight" transform="rotate(90) translate(36 -43)">
    <use xlink:href="#rim"/>
    <path pointer-events="none" fill="none" stroke="white" stroke-width="1.5" d="M0,-3.0v7 M-2.5,-0.5L0,-3.0L2.5,-0.5"/>
  </g>
  <g id="arrowDown" transform="rotate(180) translate(-30 -48)">
    <use xlink:href="#rim"/>
    <path pointer-events="none" fill="none" stroke="white" stroke-width="1.5" d="M0,-3.0v7 M-2.5,-0.5L0,-3.0L2.5,-0.5"/>
  </g>
  <g id="arrowLeft" transform="rotate(270) translate(-36 17)">
    <use xlink:href="#rim"/>
    <path pointer-events="none" fill="none" stroke="white" stroke-width="1.5" d="M0,-3.0v7 M-2.5,-0.5L0,-3.0L2.5,-0.5"/>
  </g>
  <g id="resetDef">
    <use xlink:href="#rim2" fill="#404040"><set attributeName="fill" to="#808080" begin="reset.mouseover" end="reset.mouseout"/></use>
  </g>
</defs>
<script type="application/ecmascript">
var viewWidth = 1100;
var viewHeight = 324;
var sectionId = 'dynsection-4';
</script>
<script type="application/ecmascript" xlink:href="svg.min.js"/>
<svg id="graph" class="graph">
<g id="viewport">
<title>OneToOneDataIndexMsg::copy</title>
<!-- Node1 -->
<g id="Node000001" class="node">
<title>Node1</title>
<g id="a_Node000001"><a xlink:title=" ">
<polygon fill="#999999" stroke="#666666" points="137,-141.5 0,-141.5 0,-111.5 137,-111.5 137,-141.5"/>
<text text-anchor="start" x="8" y="-129.5" font-family="Ubuntu Mono" font-size="10.00">OneToOneDataIndexMsg</text>
<text text-anchor="middle" x="68.5" y="-118.5" font-family="Ubuntu Mono" font-size="10.00">::copy</text>
</a>
</g>
</g>
<!-- Node2 -->
<g id="Node000002" class="node">
<title>Node2</title>
<g id="a_Node000002"><a xlink:href="classElement.html#a2939c6987ceef653ba246c750d55bf57" target="_top" xlink:title=" ">
<polygon fill="white" stroke="#666666" points="316,-179 173,-179 173,-160 316,-160 316,-179"/>
<text text-anchor="middle" x="244.5" y="-167" font-family="Ubuntu Mono" font-size="10.00">Element::addMsgAndFunc</text>
</a>
</g>
</g>
<!-- Node1&#45;&gt;Node2 -->
<g id="edge1_Node000001_Node000002" class="edge">
<title>Node1&#45;&gt;Node2</title>
<g id="a_edge1_Node000001_Node000002"><a xlink:title=" ">
<path fill="none" stroke="#63b8ff" d="M130.36,-141.54C151.57,-146.78 175.06,-152.59 195.12,-157.54"/>
<polygon fill="#63b8ff" stroke="#63b8ff" points="194.42,-160.98 204.97,-159.98 196.1,-154.18 194.42,-160.98"/>
</a>
</g>
</g>
<!-- Node6 -->
<g id="Node000006" class="node">
<title>Node6</title>
<g id="a_Node000006"><a xlink:href="classMsg.html#a5be9f4dd643f5f662e8fb3c029273390" target="_top" xlink:title=" ">
<polygon fill="white" stroke="#666666" points="272,-93 217,-93 217,-74 272,-74 272,-93"/>
<text text-anchor="middle" x="244.5" y="-81" font-family="Ubuntu Mono" font-size="10.00">Msg::e1</text>
</a>
</g>
</g>
<!-- Node1&#45;&gt;Node6 -->
<g id="edge5_Node000001_Node000006" class="edge">
<title>Node1&#45;&gt;Node6</title>
<g id="a_edge5_Node000001_Node000006"><a xlink:title=" ">
<path fill="none" stroke="#63b8ff" d="M130.36,-111.46C155.91,-105.15 184.77,-98.01 206.95,-92.53"/>
<polygon fill="#63b8ff" stroke="#63b8ff" points="208.08,-95.86 216.95,-90.06 206.4,-89.06 208.08,-95.86"/>
</a>
</g>
</g>
<!-- Node7 -->
<g id="Node000007" class="node">
<title>Node7</title>
<g id="a_Node000007"><a xlink:href="classMsg.html#a893ed6b44cd4c529f0f10af38ae6743a" target="_top" xlink:title=" ">
<polygon fill="white" stroke="#666666" points="272,-56 217,-56 217,-37 272,-37 272,-56"/>
<text text-anchor="middle" x="244.5" y="-44" font-family="Ubuntu Mono" font-size="10.00">Msg::e2</text>
</a>
</g>
</g>
<!-- Node1&#45;&gt;Node7 -->
<g id="edge6_Node000001_Node000007" class="edge">
<title>Node1&#45;&gt;Node7</title>
<g id="a_edge6_Node000001_Node000007"><a xlink:title=" ">
<path fill="none" stroke="#63b8ff" d="M90.73,-111.26C111,-97.34 142.84,-77.07 173,-64.5 183.71,-60.04 195.82,-56.46 206.93,-53.7"/>
<polygon fill="#63b8ff" stroke="#63b8ff" points="207.85,-57.08 216.8,-51.41 206.26,-50.27 207.85,-57.08"/>
</a>
</g>
</g>
<!-- Node8 -->
<g id="Node000008" class="node">
<title>Node8</title>
<g id="a_Node000008"><a xlink:href="classId.html#a574e06330597163aef0ea4c99de7ff4a" target="_top" xlink:title="Synonym for Id::operator()()">
<polygon fill="white" stroke="#666666" points="961,-249 889,-249 889,-230 961,-230 961,-249"/>
<text text-anchor="middle" x="925" y="-237" font-family="Ubuntu Mono" font-size="10.00">Id::element</text>
</a>
</g>
</g>
<!-- Node1&#45;&gt;Node8 -->
<g id="edge7_Node000001_Node000008" class="edge">
<title>Node1&#45;&gt;Node8</title>
<g id="a_edge7_Node000001_Node000008"><a xlink:title=" ">
<path fill="none" stroke="#63b8ff" d="M89.79,-141.63C109.89,-155.87 142.07,-176.73 173,-188.5 286.73,-231.77 320.31,-239.5 442,-239.5 442,-239.5 442,-239.5 621.5,-239.5 712.66,-239.5 819.27,-239.5 878.47,-239.5"/>
<polygon fill="#63b8ff" stroke="#63b8ff" points="878.61,-243 888.61,-239.5 878.61,-236 878.61,-243"/>
</a>
</g>
</g>
<!-- Node10 -->
<g id="Node000010" class="node">
<title>Node10</title>
<g id="a_Node000010"><a xlink:href="classId.html#adac7a40d04024a7b9dcb7eae7b9fdf9b" target="_top" xlink:title=" ">
<polygon fill="white" stroke="#666666" points="270,-287 219,-287 219,-268 270,-268 270,-287"/>
<text text-anchor="middle" x="244.5" y="-275" font-family="Ubuntu Mono" font-size="10.00">Id::eref</text>
</a>
</g>
</g>
<!-- Node1&#45;&gt;Node10 -->
<g id="edge9_Node000001_Node000010" class="edge">
<title>Node1&#45;&gt;Node10</title>
<g id="a_edge9_Node000001_Node000010"><a xlink:title=" ">
<path fill="none" stroke="#63b8ff" d="M77.99,-141.74C93.48,-168.21 128.86,-222.81 173,-253.5 183.7,-260.94 196.9,-266.24 208.97,-269.93"/>
<polygon fill="#63b8ff" stroke="#63b8ff" points="208.2,-273.35 218.77,-272.67 210.08,-266.61 208.2,-273.35"/>
</a>
</g>
</g>
<!-- Node12 -->
<g id="Node000012" class="node">
<title>Node12</title>
<g id="a_Node000012"><a xlink:href="classMsg.html#a269143731802782ca4b74511228543bf" target="_top" xlink:title=" ">
<polygon fill="white" stroke="#666666" points="275.5,-19 213.5,-19 213.5,0 275.5,0 275.5,-19"/>
<text text-anchor="middle" x="244.5" y="-7" font-family="Ubuntu Mono" font-size="10.00">Msg::mid</text>
</a>
</g>
</g>
<!-- Node1&#45;&gt;Node12 -->
<g id="edge12_Node000001_Node000012" class="edge">
<title>Node1&#45;&gt;Node12</title>
<g id="a_edge12_Node000001_Node000012"><a xlink:title=" ">
<path fill="none" stroke="#63b8ff" d="M81.1,-111.25C98.59,-89.34 133.86,-49.22 173,-27.5 182.28,-22.35 193.06,-18.64 203.36,-15.99"/>
<polygon fill="#63b8ff" stroke="#63b8ff" points="204.46,-19.32 213.42,-13.66 202.89,-12.5 204.46,-19.32"/>
</a>
</g>
</g>
<!-- Node13 -->
<g id="Node000013" class="node">
<title>Node13</title>
<g id="a_Node000013"><a xlink:href="classOneToOneDataIndexMsg.html#a74db500cd919bba0d5c128469d4d4480" target="_top" xlink:title=" ">
<polygon fill="white" stroke="#666666" points="316,-141.5 173,-141.5 173,-111.5 316,-111.5 316,-141.5"/>
<text text-anchor="start" x="181" y="-129.5" font-family="Ubuntu Mono" font-size="10.00">OneToOneDataIndexMsg</text>
<text text-anchor="middle" x="244.5" y="-118.5" font-family="Ubuntu Mono" font-size="10.00">::OneToOneDataIndexMsg</text>
</a>
</g>
</g>
<!-- Node1&#45;&gt;Node13 -->
<g id="edge13_Node000001_Node000013" class="edge">
<title>Node1&#45;&gt;Node13</title>
<g id="a_edge13_Node000001_Node000013"><a xlink:title=" ">
<path fill="none" stroke="#63b8ff" d="M137.27,-126.5C145.55,-126.5 154.07,-126.5 162.51,-126.5"/>
<polygon fill="#63b8ff" stroke="#63b8ff" points="162.76,-130 172.75,-126.5 162.75,-123 162.76,-130"/>
</a>
</g>
</g>
<!-- Node3 -->
<g id="Node000003" class="node">
<title>Node3</title>
<g id="a_Node000003"><a xlink:href="classElement.html#a91ba2615cb1c7a30cca2327d2003f34c" target="_top" xlink:title=" ">
<polygon fill="white" stroke="#666666" points="835,-202 707,-202 707,-183 835,-183 835,-202"/>
<text text-anchor="middle" x="771" y="-190" font-family="Ubuntu Mono" font-size="10.00">Element::markRewired</text>
</a>
</g>
</g>
<!-- Node2&#45;&gt;Node3 -->
<g id="edge2_Node000002_Node000003" class="edge">
<title>Node2&#45;&gt;Node3</title>
<g id="a_edge2_Node000002_Node000003"><a xlink:title=" ">
<path fill="none" stroke="#63b8ff" d="M315.3,-179.01C327.51,-180.39 340.11,-181.63 352,-182.5 472.58,-191.28 613.19,-192.87 696.73,-192.91"/>
<polygon fill="#63b8ff" stroke="#63b8ff" points="696.88,-196.41 706.88,-192.9 696.88,-189.41 696.88,-196.41"/>
</a>
</g>
</g>
<!-- Node4 -->
<g id="Node000004" class="node">
<title>Node4</title>
<g id="a_Node000004"><a xlink:href="classMsgFuncBinding.html#ad0172d166d6629ed092500ea64473eb5" target="_top" xlink:title=" ">
<polygon fill="white" stroke="#666666" points="534,-173 352,-173 352,-154 534,-154 534,-173"/>
<text text-anchor="middle" x="443" y="-161" font-family="Ubuntu Mono" font-size="10.00">MsgFuncBinding::MsgFuncBinding</text>
</a>
</g>
</g>
<!-- Node2&#45;&gt;Node4 -->
<g id="edge3_Node000002_Node000004" class="edge">
<title>Node2&#45;&gt;Node4</title>
<g id="a_edge3_Node000002_Node000004"><a xlink:title=" ">
<path fill="none" stroke="#63b8ff" d="M316.16,-167.34C324.47,-167.09 333.06,-166.83 341.67,-166.56"/>
<polygon fill="#63b8ff" stroke="#63b8ff" points="341.88,-170.06 351.77,-166.26 341.67,-163.06 341.88,-170.06"/>
</a>
</g>
</g>
<!-- Node5 -->
<g id="Node000005" class="node">
<title>Node5</title>
<g id="a_Node000005"><a xlink:href="classObjId.html#a02a8374ceddca0d8f4a672005aef8ffc" target="_top" xlink:title=" ">
<polygon fill="white" stroke="#666666" points="657.5,-173 583.5,-173 583.5,-154 657.5,-154 657.5,-173"/>
<text text-anchor="middle" x="620.5" y="-161" font-family="Ubuntu Mono" font-size="10.00">ObjId::ObjId</text>
</a>
</g>
</g>
<!-- Node4&#45;&gt;Node5 -->
<g id="edge4_Node000004_Node000005" class="edge">
<title>Node4&#45;&gt;Node5</title>
<g id="a_edge4_Node000004_Node000005"><a xlink:title=" ">
<path fill="none" stroke="#63b8ff" d="M534.06,-163.5C547.6,-163.5 561.07,-163.5 573.17,-163.5"/>
<polygon fill="#63b8ff" stroke="#63b8ff" points="573.42,-167 583.42,-163.5 573.42,-160 573.42,-167"/>
</a>
</g>
</g>
<!-- Node9 -->
<g id="Node000009" class="node">
<title>Node9</title>
<g id="a_Node000009"><a xlink:href="classId.html#a2d5e7b4d5d918aadfe45102691c2be27" target="_top" xlink:title=" ">
<polygon fill="white" stroke="#666666" points="1092,-287 1015,-287 1015,-268 1092,-268 1092,-287"/>
<text text-anchor="middle" x="1053.5" y="-275" font-family="Ubuntu Mono" font-size="10.00">Id::elements</text>
</a>
</g>
</g>
<!-- Node8&#45;&gt;Node9 -->
<g id="edge8_Node000008_Node000009" class="edge">
<title>Node8&#45;&gt;Node9</title>
<g id="a_edge8_Node000008_Node000009"><a xlink:title=" ">
<path fill="none" stroke="#63b8ff" d="M957.92,-249.09C973.95,-253.9 993.57,-259.8 1010.78,-264.97"/>
<polygon fill="#63b8ff" stroke="#63b8ff" points="1010,-268.39 1020.59,-267.91 1012.02,-261.69 1010,-268.39"/>
</a>
</g>
</g>
<!-- Node10&#45;&gt;Node9 -->
<g id="edge10_Node000010_Node000009" class="edge">
<title>Node10&#45;&gt;Node9</title>
<g id="a_edge10_Node000010_Node000009"><a xlink:title=" ">
<path fill="none" stroke="#63b8ff" d="M270.35,-282.7C291.86,-287.02 323.86,-293 352,-296.5 470.28,-311.21 500.31,-315.5 619.5,-315.5 619.5,-315.5 619.5,-315.5 772,-315.5 854.35,-315.5 949.08,-299.22 1004.69,-287.97"/>
<polygon fill="#63b8ff" stroke="#63b8ff" points="1005.52,-291.37 1014.61,-285.93 1004.11,-284.52 1005.52,-291.37"/>
</a>
</g>
</g>
<!-- Node11 -->
<g id="Node000011" class="node">
<title>Node11</title>
<g id="a_Node000011"><a xlink:href="classEref.html#a3addb850bc6cbac7771a07de219d909d" target="_top" xlink:title=" ">
<polygon fill="white" stroke="#666666" points="473.5,-287 412.5,-287 412.5,-268 473.5,-268 473.5,-287"/>
<text text-anchor="middle" x="443" y="-275" font-family="Ubuntu Mono" font-size="10.00">Eref::Eref</text>
</a>
</g>
</g>
<!-- Node10&#45;&gt;Node11 -->
<g id="edge11_Node000010_Node000011" class="edge">
<title>Node10&#45;&gt;Node11</title>
<g id="a_edge11_Node000010_Node000011"><a xlink:title=" ">
<path fill="none" stroke="#63b8ff" d="M270.39,-277.5C303.57,-277.5 362.68,-277.5 402.12,-277.5"/>
<polygon fill="#63b8ff" stroke="#63b8ff" points="402.19,-281 412.19,-277.5 402.19,-274 402.19,-281"/>
</a>
</g>
</g>
<!-- Node14 -->
<g id="Node000014" class="node">
<title>Node14</title>
<g id="a_Node000014"><a xlink:href="classEref.html#a47b59ab86165cceb0bde80c76c3f7fa2" target="_top" xlink:title=" ">
<polygon fill="white" stroke="#666666" points="484,-99 402,-99 402,-80 484,-80 484,-99"/>
<text text-anchor="middle" x="443" y="-87" font-family="Ubuntu Mono" font-size="10.00">Eref::element</text>
</a>
</g>
</g>
<!-- Node13&#45;&gt;Node14 -->
<g id="edge14_Node000013_Node000014" class="edge">
<title>Node13&#45;&gt;Node14</title>
<g id="a_edge14_Node000013_Node000014"><a xlink:title=" ">
<path fill="none" stroke="#63b8ff" d="M316.16,-113.19C341.27,-108.47 369,-103.25 392.02,-98.91"/>
<polygon fill="#63b8ff" stroke="#63b8ff" points="392.73,-102.34 401.91,-97.05 391.44,-95.46 392.73,-102.34"/>
</a>
</g>
</g>
<!-- Node15 -->
<g id="Node000015" class="node">
<title>Node15</title>
<g id="a_Node000015"><a xlink:href="classMsg.html#af23c81e6efdb16e46039d89f35a97f00" target="_top" xlink:title="Constructor.">
<polygon fill="white" stroke="#666666" points="474.5,-136 411.5,-136 411.5,-117 474.5,-117 474.5,-136"/>
<text text-anchor="middle" x="443" y="-124" font-family="Ubuntu Mono" font-size="10.00">Msg::Msg</text>
</a>
</g>
</g>
<!-- Node13&#45;&gt;Node15 -->
<g id="edge15_Node000013_Node000015" class="edge">
<title>Node13&#45;&gt;Node15</title>
<g id="a_edge15_Node000013_Node000015"><a xlink:title=" ">
<path fill="none" stroke="#63b8ff" d="M316.16,-126.5C344.76,-126.5 376.74,-126.5 401.31,-126.5"/>
<polygon fill="#63b8ff" stroke="#63b8ff" points="401.35,-130 411.35,-126.5 401.35,-123 401.35,-130"/>
</a>
</g>
</g>
<!-- Node19 -->
<g id="Node000019" class="node">
<title>Node19</title>
<g id="a_Node000019"><a xlink:href="classObjId.html#ab6b120d314aab5abc3ea8bb7ead5ae41" target="_top" xlink:title=" ">
<polygon fill="white" stroke="#666666" points="480,-62 406,-62 406,-43 480,-43 480,-62"/>
<text text-anchor="middle" x="443" y="-50" font-family="Ubuntu Mono" font-size="10.00">ObjId::ObjId</text>
</a>
</g>
</g>
<!-- Node13&#45;&gt;Node19 -->
<g id="edge22_Node000013_Node000019" class="edge">
<title>Node13&#45;&gt;Node19</title>
<g id="a_edge22_Node000013_Node000019"><a xlink:title=" ">
<path fill="none" stroke="#63b8ff" d="M297.76,-111.36C304.08,-108.77 310.3,-105.82 316,-102.5 334.5,-91.73 332.84,-80.04 352,-70.5 365.56,-63.75 381.46,-59.53 396.09,-56.89"/>
<polygon fill="#63b8ff" stroke="#63b8ff" points="396.65,-60.35 405.97,-55.31 395.55,-53.43 396.65,-60.35"/>
</a>
</g>
</g>
<!-- Node15&#45;&gt;Node5 -->
<g id="edge21_Node000015_Node000005" class="edge">
<title>Node15&#45;&gt;Node5</title>
<g id="a_edge21_Node000015_Node000005"><a xlink:title=" ">
<path fill="none" stroke="#63b8ff" d="M474.57,-132.94C501.75,-138.67 541.88,-147.14 573.03,-153.7"/>
<polygon fill="#63b8ff" stroke="#63b8ff" points="572.71,-157.21 583.22,-155.85 574.15,-150.36 572.71,-157.21"/>
</a>
</g>
</g>
<!-- Node16 -->
<g id="Node000016" class="node">
<title>Node16</title>
<g id="a_Node000016"><a xlink:href="classElement.html#adc7e3a3053b8874f9041a9aee7a6f857" target="_top" xlink:title=" ">
<polygon fill="white" stroke="#666666" points="671,-136 570,-136 570,-117 671,-117 671,-136"/>
<text text-anchor="middle" x="620.5" y="-124" font-family="Ubuntu Mono" font-size="10.00">Element::addMsg</text>
</a>
</g>
</g>
<!-- Node15&#45;&gt;Node16 -->
<g id="edge16_Node000015_Node000016" class="edge">
<title>Node15&#45;&gt;Node16</title>
<g id="a_edge16_Node000015_Node000016"><a xlink:title=" ">
<path fill="none" stroke="#63b8ff" d="M474.57,-126.5C497.92,-126.5 530.85,-126.5 559.41,-126.5"/>
<polygon fill="#63b8ff" stroke="#63b8ff" points="559.71,-130 569.71,-126.5 559.71,-123 559.71,-130"/>
</a>
</g>
</g>
<!-- Node16&#45;&gt;Node3 -->
<g id="edge20_Node000016_Node000003" class="edge">
<title>Node16&#45;&gt;Node3</title>
<g id="a_edge20_Node000016_Node000003"><a xlink:title=" ">
<path fill="none" stroke="#63b8ff" d="M647.6,-136.09C655.19,-138.99 663.47,-142.27 671,-145.5 695.2,-155.87 722.16,-168.76 741.82,-178.42"/>
<polygon fill="#63b8ff" stroke="#63b8ff" points="740.33,-181.58 750.85,-182.87 743.43,-175.31 740.33,-181.58"/>
</a>
</g>
</g>
<!-- Node17 -->
<g id="Node000017" class="node">
<title>Node17</title>
<g id="a_Node000017"><a xlink:href="classObjId.html#a79e041eb24b2bcfcdf62a488cf7b0572" target="_top" xlink:title=" ">
<polygon fill="white" stroke="#666666" points="804,-146 738,-146 738,-127 804,-127 804,-146"/>
<text text-anchor="middle" x="771" y="-134" font-family="Ubuntu Mono" font-size="10.00">ObjId::bad</text>
</a>
</g>
</g>
<!-- Node16&#45;&gt;Node17 -->
<g id="edge17_Node000016_Node000017" class="edge">
<title>Node16&#45;&gt;Node17</title>
<g id="a_edge17_Node000016_Node000017"><a xlink:title=" ">
<path fill="none" stroke="#63b8ff" d="M671.36,-129.86C689.5,-131.08 709.83,-132.45 727.3,-133.62"/>
<polygon fill="#63b8ff" stroke="#63b8ff" points="727.55,-137.15 737.76,-134.33 728.02,-130.16 727.55,-137.15"/>
</a>
</g>
</g>
<!-- Node17&#45;&gt;Node8 -->
<g id="edge18_Node000017_Node000008" class="edge">
<title>Node17&#45;&gt;Node8</title>
<g id="a_edge18_Node000017_Node000008"><a xlink:title=" ">
<path fill="none" stroke="#63b8ff" d="M788.83,-146.11C801.66,-153.57 819.68,-164.32 835,-174.5 859.1,-190.52 885.79,-210.3 903.6,-223.81"/>
<polygon fill="#63b8ff" stroke="#63b8ff" points="901.5,-226.61 911.57,-229.89 905.74,-221.04 901.5,-226.61"/>
</a>
</g>
</g>
<!-- Node18 -->
<g id="Node000018" class="node">
<title>Node18</title>
<g id="a_Node000018"><a xlink:href="classElement.html#ae764f4baa2a88e55072eb0a5b15718c4" target="_top" xlink:title="Returns number of data entries across all nodes.">
<polygon fill="white" stroke="#666666" points="979,-146 871,-146 871,-127 979,-127 979,-146"/>
<text text-anchor="middle" x="925" y="-134" font-family="Ubuntu Mono" font-size="10.00">Element::numData</text>
</a>
</g>
</g>
<!-- Node17&#45;&gt;Node18 -->
<g id="edge19_Node000017_Node000018" class="edge">
<title>Node17&#45;&gt;Node18</title>
<g id="a_edge19_Node000017_Node000018"><a xlink:title=" ">
<path fill="none" stroke="#63b8ff" d="M804.24,-136.5C820.71,-136.5 841.35,-136.5 860.83,-136.5"/>
<polygon fill="#63b8ff" stroke="#63b8ff" points="860.88,-140 870.88,-136.5 860.88,-133 860.88,-140"/>
</a>
</g>
</g>
</g>
</svg>

<g id="navigator" transform="translate(0 0)" fill="#404254">
  <rect fill="#f2f5e9" fill-opacity="0.5" stroke="#606060" stroke-width=".5" x="0" y="0" width="60" height="60"/>
  <use id="zoomplus" xlink:href="#zoomPlus" x="17" y="9" onmousedown="handleZoom(evt,'in')"/>
  <use id="zoomminus" xlink:href="#zoomMin" x="42" y="9" onmousedown="handleZoom(evt,'out')"/>
  <use id="reset" xlink:href="#resetDef" x="30" y="36" onmousedown="handleReset()"/>
   <use id="arrowup" xlink:href="#arrowUp" x="0" y="0" onmousedown="handlePan(0,-1)"/>
  <use id="arrowright" xlink:href="#arrowRight" x="0" y="0" onmousedown="handlePan(1,0)"/>
  <use id="arrowdown" xlink:href="#arrowDown" x="0" y="0" onmousedown="handlePan(0,1)"/>
  <use id="arrowleft" xlink:href="#arrowLeft" x="0" y="0" onmousedown="handlePan(-1,0)"/>
</g>
<svg viewBox="0 0 15 15" width="100%" height="30px" preserveAspectRatio="xMaxYMin meet">
 <g id="arrow_out" transform="scale(0.3 0.3)">
  <a xlink:href="classOneToOneDataIndexMsg_a03d0a250dc4a29eaea70883d2487242f_cgraph_org.svg" target="_base">
   <rect id="button" ry="5" rx="5" y="6" x="6" height="38" width="38"
        fill="#f2f5e9" fill-opacity="0.5" stroke="#606060" stroke-width="1.0"/>
   <path id="arrow"
     d="M 11.500037,31.436501 C 11.940474,20.09759 22.043105,11.32322 32.158766,21.979434 L 37.068811,17.246167 C 37.068811,17.246167 37.088388,32 37.088388,32 L 22.160133,31.978069 C 22.160133,31.978069 26.997745,27.140456 26.997745,27.140456 C 18.528582,18.264221 13.291696,25.230495 11.500037,31.436501 z"
     style="fill:#404040;"/>
  </a>
 </g>
</svg>

<style type='text/css'>
<![CDATA[
[data-mouse-over-selected='false'] { opacity: 0.7; }
[data-mouse-over-selected='true']  { opacity: 1.0; }
]]>
</style>
<script type="application/ecmascript"><![CDATA[
document.addEventListener('DOMContentLoaded', (event) => {
  highlightEdges();
  highlightAdjacentNodes();
});
]]></script>
</svg>
