<?xml version="1.0" encoding="UTF-8" standalone="no"?>
<!DOCTYPE svg PUBLIC "-//W3C//DTD SVG 1.1//EN"
 "http://www.w3.org/Graphics/SVG/1.1/DTD/svg11.dtd">
<!-- Generated by graphviz version 2.43.0 (0)
 -->
<!-- Title: HopFunc3&lt; A1, A2, A3 &gt; Pages: 1 -->
<svg width="226pt" height="490pt"
 viewBox="0.00 0.00 225.50 490.00" xmlns="http://www.w3.org/2000/svg" xmlns:xlink="http://www.w3.org/1999/xlink">
<g id="graph0" class="graph" transform="scale(1 1) rotate(0) translate(4 486)">
<title>HopFunc3&lt; A1, A2, A3 &gt;</title>
<!-- Node1 -->
<g id="Node000001" class="node">
<title>Node1</title>
<g id="a_Node000001"><a xlink:title=" ">
<polygon fill="#999999" stroke="transparent" points="185.5,-64 54.5,-64 54.5,0 185.5,0 185.5,-64"/>
<text text-anchor="start" x="60" y="-52" font-family="Ubuntu Mono" font-size="10.00">HopFunc3&lt; A1, A2, A3 &gt;</text>
<text text-anchor="start" x="118.5" y="-37" font-family="Ubuntu Mono" font-size="10.00"> </text>
<text text-anchor="start" x="72.5" y="-22" font-family="Ubuntu Mono" font-size="10.00">+</text>
<text text-anchor="start" x="99" y="-22" font-family="Ubuntu Mono" font-size="10.00">HopFunc3()</text>
<text text-anchor="start" x="72.5" y="-7" font-family="Ubuntu Mono" font-size="10.00">+</text>
<text text-anchor="start" x="99" y="-7" font-family="Ubuntu Mono" font-size="10.00">op()</text>
<polygon fill="#666666" stroke="#666666" points="55,-47 55,-47 186,-47 186,-47 55,-47"/>
<polygon fill="#666666" stroke="#666666" points="55,-32 55,-32 186,-32 186,-32 55,-32"/>
<polygon fill="none" stroke="#666666" points="54.5,0 54.5,-64 185.5,-64 185.5,0 54.5,0"/>
</a>
</g>
</g>
<!-- Node2 -->
<g id="Node000002" class="node">
<title>Node2</title>
<g id="a_Node000002"><a xlink:href="classOpFunc3Base.html" target="_top" xlink:title=" ">
<polygon fill="white" stroke="transparent" points="122,-231 0,-231 0,-111 122,-111 122,-231"/>
<text text-anchor="start" x="5" y="-219" font-family="Ubuntu Mono" font-size="10.00">OpFunc3Base&lt; A1, A2,</text>
<text text-anchor="start" x="47" y="-208" font-family="Ubuntu Mono" font-size="10.00"> A3 &gt;</text>
<text text-anchor="start" x="59" y="-193" font-family="Ubuntu Mono" font-size="10.00"> </text>
<text text-anchor="start" x="10" y="-178" font-family="Ubuntu Mono" font-size="10.00">+</text>
<text text-anchor="start" x="29" y="-178" font-family="Ubuntu Mono" font-size="10.00">checkFinfo()</text>
<text text-anchor="start" x="10" y="-163" font-family="Ubuntu Mono" font-size="10.00">+</text>
<text text-anchor="start" x="29" y="-163" font-family="Ubuntu Mono" font-size="10.00">makeHopFunc()</text>
<text text-anchor="start" x="10" y="-148" font-family="Ubuntu Mono" font-size="10.00">+</text>
<text text-anchor="start" x="29" y="-148" font-family="Ubuntu Mono" font-size="10.00">op()</text>
<text text-anchor="start" x="10" y="-133" font-family="Ubuntu Mono" font-size="10.00">+</text>
<text text-anchor="start" x="29" y="-133" font-family="Ubuntu Mono" font-size="10.00">opBuffer()</text>
<text text-anchor="start" x="10" y="-118" font-family="Ubuntu Mono" font-size="10.00">+</text>
<text text-anchor="start" x="29" y="-118" font-family="Ubuntu Mono" font-size="10.00">rttiType()</text>
<polygon fill="#666666" stroke="#666666" points="0,-203 0,-203 122,-203 122,-203 0,-203"/>
<polygon fill="#666666" stroke="#666666" points="0,-188 0,-188 122,-188 122,-188 0,-188"/>
<polygon fill="none" stroke="#666666" points="0,-111 0,-231 122,-231 122,-111 0,-111"/>
</a>
</g>
</g>
<!-- Node2&#45;&gt;Node1 -->
<g id="edge1_Node000001_Node000002" class="edge">
<title>Node2&#45;&gt;Node1</title>
<g id="a_edge1_Node000001_Node000002"><a xlink:title=" ">
<path fill="none" stroke="#63b8ff" d="M90.61,-101.25C96.22,-88.22 101.82,-75.21 106.61,-64.1"/>
<polygon fill="none" stroke="#63b8ff" points="87.28,-100.14 86.54,-110.71 93.71,-102.91 87.28,-100.14"/>
</a>
</g>
</g>
<!-- Node3 -->
<g id="Node000003" class="node">
<title>Node3</title>
<g id="a_Node000003"><a xlink:href="classOpFunc.html" target="_top" xlink:title=" ">
<polygon fill="white" stroke="transparent" points="112.5,-482 9.5,-482 9.5,-268 112.5,-268 112.5,-482"/>
<text text-anchor="start" x="43" y="-470" font-family="Ubuntu Mono" font-size="10.00">OpFunc</text>
<text text-anchor="start" x="16.5" y="-455" font-family="Ubuntu Mono" font-size="10.00">&#45;</text>
<text text-anchor="start" x="27" y="-455" font-family="Ubuntu Mono" font-size="10.00">opIndex_</text>
<text text-anchor="start" x="14" y="-440" font-family="Ubuntu Mono" font-size="10.00">+</text>
<text text-anchor="start" x="27" y="-440" font-family="Ubuntu Mono" font-size="10.00">checkFinfo()</text>
<text text-anchor="start" x="14" y="-425" font-family="Ubuntu Mono" font-size="10.00">+</text>
<text text-anchor="start" x="27" y="-425" font-family="Ubuntu Mono" font-size="10.00">makeHopFunc()</text>
<text text-anchor="start" x="14" y="-410" font-family="Ubuntu Mono" font-size="10.00">+</text>
<text text-anchor="start" x="27" y="-410" font-family="Ubuntu Mono" font-size="10.00">opBuffer()</text>
<text text-anchor="start" x="14" y="-395" font-family="Ubuntu Mono" font-size="10.00">+</text>
<text text-anchor="start" x="27" y="-395" font-family="Ubuntu Mono" font-size="10.00">OpFunc()</text>
<text text-anchor="start" x="14" y="-380" font-family="Ubuntu Mono" font-size="10.00">+</text>
<text text-anchor="start" x="27" y="-380" font-family="Ubuntu Mono" font-size="10.00">opIndex()</text>
<text text-anchor="start" x="14" y="-365" font-family="Ubuntu Mono" font-size="10.00">+</text>
<text text-anchor="start" x="27" y="-365" font-family="Ubuntu Mono" font-size="10.00">opVecBuffer()</text>
<text text-anchor="start" x="14" y="-350" font-family="Ubuntu Mono" font-size="10.00">+</text>
<text text-anchor="start" x="27" y="-350" font-family="Ubuntu Mono" font-size="10.00">rttiType()</text>
<text text-anchor="start" x="14" y="-335" font-family="Ubuntu Mono" font-size="10.00">+</text>
<text text-anchor="start" x="27" y="-335" font-family="Ubuntu Mono" font-size="10.00">setIndex()</text>
<text text-anchor="start" x="14" y="-320" font-family="Ubuntu Mono" font-size="10.00">+</text>
<text text-anchor="start" x="27" y="-320" font-family="Ubuntu Mono" font-size="10.00">~OpFunc()</text>
<text text-anchor="start" x="14" y="-305" font-family="Ubuntu Mono" font-size="10.00">+</text>
<text text-anchor="start" x="27" y="-305" font-family="Ubuntu Mono" font-size="10.00">lookop()</text>
<text text-anchor="start" x="14" y="-290" font-family="Ubuntu Mono" font-size="10.00">+</text>
<text text-anchor="start" x="27" y="-290" font-family="Ubuntu Mono" font-size="10.00">rebuildOpIndex()</text>
<text text-anchor="start" x="16.5" y="-275" font-family="Ubuntu Mono" font-size="10.00">&#45;</text>
<text text-anchor="start" x="27" y="-275" font-family="Ubuntu Mono" font-size="10.00">ops()</text>
<polygon fill="#666666" stroke="#666666" points="10,-465 10,-465 113,-465 113,-465 10,-465"/>
<polygon fill="#666666" stroke="#666666" points="10,-450 10,-450 25,-450 25,-450 10,-450"/>
<polygon fill="#666666" stroke="#666666" points="25,-450 25,-450 113,-450 113,-450 25,-450"/>
<polygon fill="none" stroke="#666666" points="9.5,-268 9.5,-482 112.5,-482 112.5,-268 9.5,-268"/>
</a>
</g>
</g>
<!-- Node3&#45;&gt;Node2 -->
<g id="edge2_Node000002_Node000003" class="edge">
<title>Node3&#45;&gt;Node2</title>
<g id="a_edge2_Node000002_Node000003"><a xlink:title=" ">
<path fill="none" stroke="#63b8ff" d="M61,-257.91C61,-248.69 61,-239.64 61,-231.08"/>
<polygon fill="none" stroke="#63b8ff" points="57.5,-257.97 61,-267.97 64.5,-257.97 57.5,-257.97"/>
</a>
</g>
</g>
<!-- Node4 -->
<g id="Node000004" class="node">
<title>Node4</title>
<g id="a_Node000004"><a xlink:href="classHopIndex.html" target="_top" xlink:title=" ">
<polygon fill="white" stroke="transparent" points="217.5,-218 140.5,-218 140.5,-124 217.5,-124 217.5,-218"/>
<text text-anchor="start" x="156" y="-206" font-family="Ubuntu Mono" font-size="10.00">HopIndex</text>
<text text-anchor="start" x="147.5" y="-191" font-family="Ubuntu Mono" font-size="10.00">&#45;</text>
<text text-anchor="start" x="158" y="-191" font-family="Ubuntu Mono" font-size="10.00">bindIndex_</text>
<text text-anchor="start" x="147.5" y="-176" font-family="Ubuntu Mono" font-size="10.00">&#45;</text>
<text text-anchor="start" x="158" y="-176" font-family="Ubuntu Mono" font-size="10.00">hopType_</text>
<text text-anchor="start" x="145" y="-161" font-family="Ubuntu Mono" font-size="10.00">+</text>
<text text-anchor="start" x="158" y="-161" font-family="Ubuntu Mono" font-size="10.00">bindIndex()</text>
<text text-anchor="start" x="145" y="-146" font-family="Ubuntu Mono" font-size="10.00">+</text>
<text text-anchor="start" x="158" y="-146" font-family="Ubuntu Mono" font-size="10.00">HopIndex()</text>
<text text-anchor="start" x="145" y="-131" font-family="Ubuntu Mono" font-size="10.00">+</text>
<text text-anchor="start" x="158" y="-131" font-family="Ubuntu Mono" font-size="10.00">hopType()</text>
<polygon fill="#666666" stroke="#666666" points="141,-201 141,-201 218,-201 218,-201 141,-201"/>
<polygon fill="#666666" stroke="#666666" points="141,-171 141,-171 156,-171 156,-171 141,-171"/>
<polygon fill="#666666" stroke="#666666" points="156,-171 156,-171 218,-171 218,-171 156,-171"/>
<polygon fill="none" stroke="#666666" points="140.5,-124 140.5,-218 217.5,-218 217.5,-124 140.5,-124"/>
</a>
</g>
</g>
<!-- Node4&#45;&gt;Node1 -->
<g id="edge3_Node000001_Node000004" class="edge">
<title>Node4&#45;&gt;Node1</title>
<g id="a_edge3_Node000001_Node000004"><a xlink:title=" ">
<path fill="none" stroke="#63b8ff" d="M159.19,-124C152.47,-108.39 144.99,-91.03 138.38,-75.69"/>
<polygon fill="none" stroke="#63b8ff" points="138.27,-75.43 132.23,-71.5 133.53,-64.41 139.57,-68.34 138.27,-75.43"/>
</a>
</g>
<text text-anchor="middle" x="174" y="-85" font-family="Ubuntu Mono" font-size="10.00" fill="grey"> &#45;hopIndex_</text>
</g>
</g>
</svg>
