<?xml version="1.0" encoding="UTF-8" standalone="no"?>
<!DOCTYPE svg PUBLIC "-//W3C//DTD SVG 1.1//EN"
 "http://www.w3.org/Graphics/SVG/1.1/DTD/svg11.dtd">
<!-- Generated by graphviz version 2.43.0 (0)
 -->
<!-- Title: StreamerBase::writeToNPYFile Pages: 1 -->
<svg width="675pt" height="175pt"
 viewBox="0.00 0.00 675.00 175.00" xmlns="http://www.w3.org/2000/svg" xmlns:xlink="http://www.w3.org/1999/xlink">
<g id="graph0" class="graph" transform="scale(1 1) rotate(0) translate(4 171)">
<title>StreamerBase::writeToNPYFile</title>
<!-- Node1 -->
<g id="Node000001" class="node">
<title>Node1</title>
<g id="a_Node000001"><a xlink:title="Write to NPY format. See the documentation of writeToOutfile for more details.">
<polygon fill="#999999" stroke="#666666" points="164,-92 0,-92 0,-73 164,-73 164,-92"/>
<text text-anchor="middle" x="82" y="-80" font-family="Ubuntu Mono" font-size="10.00">StreamerBase::writeToNPYFile</text>
</a>
</g>
</g>
<!-- Node2 -->
<g id="Node000002" class="node">
<title>Node2</title>
<g id="a_Node000002"><a xlink:href="namespacecnpy2.html#aac32c7fd663a3f968fc5b91160562675" target="_top" xlink:title=" ">
<polygon fill="white" stroke="#666666" points="323,-111 200,-111 200,-92 323,-92 323,-111"/>
<text text-anchor="middle" x="261.5" y="-99" font-family="Ubuntu Mono" font-size="10.00">cnpy2::appendNumpy</text>
</a>
</g>
</g>
<!-- Node1&#45;&gt;Node2 -->
<g id="edge1_Node000001_Node000002" class="edge">
<title>Node1&#45;&gt;Node2</title>
<g id="a_edge1_Node000001_Node000002"><a xlink:title=" ">
<path fill="none" stroke="#63b8ff" d="M164.22,-91.19C172.72,-92.1 181.31,-93.02 189.69,-93.92"/>
<polygon fill="#63b8ff" stroke="#63b8ff" points="189.45,-97.41 199.77,-95 190.2,-90.45 189.45,-97.41"/>
</a>
</g>
</g>
<!-- Node8 -->
<g id="Node000008" class="node">
<title>Node8</title>
<g id="a_Node000008"><a xlink:href="namespacecnpy2.html#a96817135fed81483ebd20e3e6696b514" target="_top" xlink:title=" ">
<polygon fill="white" stroke="#666666" points="317.5,-74 205.5,-74 205.5,-55 317.5,-55 317.5,-74"/>
<text text-anchor="middle" x="261.5" y="-62" font-family="Ubuntu Mono" font-size="10.00">cnpy2::writeNumpy</text>
</a>
</g>
</g>
<!-- Node1&#45;&gt;Node8 -->
<g id="edge7_Node000001_Node000008" class="edge">
<title>Node1&#45;&gt;Node8</title>
<g id="a_edge7_Node000001_Node000008"><a xlink:title=" ">
<path fill="none" stroke="#63b8ff" d="M164.22,-74.26C174.69,-73.2 185.31,-72.13 195.48,-71.09"/>
<polygon fill="#63b8ff" stroke="#63b8ff" points="195.88,-74.57 205.47,-70.08 195.17,-67.61 195.88,-74.57"/>
</a>
</g>
</g>
<!-- Node3 -->
<g id="Node000003" class="node">
<title>Node3</title>
<g id="a_Node000003"><a xlink:href="namespacecnpy2.html#a5286412a1368ae7bc74df4193a206331" target="_top" xlink:title="Change shape in numpy header.">
<polygon fill="white" stroke="#666666" points="511,-130 359,-130 359,-111 511,-111 511,-130"/>
<text text-anchor="middle" x="435" y="-118" font-family="Ubuntu Mono" font-size="10.00">cnpy2::changeHeaderShape</text>
</a>
</g>
</g>
<!-- Node2&#45;&gt;Node3 -->
<g id="edge2_Node000002_Node000003" class="edge">
<title>Node2&#45;&gt;Node3</title>
<g id="a_edge2_Node000002_Node000003"><a xlink:title=" ">
<path fill="none" stroke="#63b8ff" d="M323.45,-108.25C331.68,-109.16 340.25,-110.11 348.81,-111.06"/>
<polygon fill="#63b8ff" stroke="#63b8ff" points="348.51,-114.55 358.84,-112.17 349.28,-107.59 348.51,-114.55"/>
</a>
</g>
</g>
<!-- Node6 -->
<g id="Node000006" class="node">
<title>Node6</title>
<g id="a_Node000006"><a xlink:href="namespacemoose.html#aaa8177709dd15cbdaa6534a6a2aeb7eb" target="_top" xlink:title=" ">
<polygon fill="white" stroke="#666666" points="488,-93 382,-93 382,-74 488,-74 488,-93"/>
<text text-anchor="middle" x="435" y="-81" font-family="Ubuntu Mono" font-size="10.00">moose::showWarn</text>
</a>
</g>
</g>
<!-- Node2&#45;&gt;Node6 -->
<g id="edge5_Node000002_Node000006" class="edge">
<title>Node2&#45;&gt;Node6</title>
<g id="a_edge5_Node000002_Node000006"><a xlink:title=" ">
<path fill="none" stroke="#63b8ff" d="M323.45,-95.1C339.08,-93.46 355.93,-91.69 371.63,-90.05"/>
<polygon fill="#63b8ff" stroke="#63b8ff" points="372.19,-93.51 381.77,-88.98 371.46,-86.54 372.19,-93.51"/>
</a>
</g>
</g>
<!-- Node4 -->
<g id="Node000004" class="node">
<title>Node4</title>
<g id="a_Node000004"><a xlink:href="namespacecnpy2.html#a9ba4966983f75857a9914d4ed0faa330" target="_top" xlink:title="Parser header from a numpy file. Store it in vector.">
<polygon fill="white" stroke="#666666" points="659.5,-167 554.5,-167 554.5,-148 659.5,-148 659.5,-167"/>
<text text-anchor="middle" x="607" y="-155" font-family="Ubuntu Mono" font-size="10.00">cnpy2::findHeader</text>
</a>
</g>
</g>
<!-- Node3&#45;&gt;Node4 -->
<g id="edge3_Node000003_Node000004" class="edge">
<title>Node3&#45;&gt;Node4</title>
<g id="a_edge3_Node000003_Node000004"><a xlink:title=" ">
<path fill="none" stroke="#63b8ff" d="M479.78,-130.03C501.8,-134.82 528.7,-140.68 552,-145.75"/>
<polygon fill="#63b8ff" stroke="#63b8ff" points="551.56,-149.23 562.07,-147.94 553.05,-142.39 551.56,-149.23"/>
</a>
</g>
</g>
<!-- Node5 -->
<g id="Node000005" class="node">
<title>Node5</title>
<g id="a_Node000005"><a xlink:href="namespacecnpy2.html#a3df316e69c0fbbc0b09020dc2a47b441" target="_top" xlink:title=" ">
<polygon fill="white" stroke="#666666" points="643.5,-130 570.5,-130 570.5,-111 643.5,-111 643.5,-130"/>
<text text-anchor="middle" x="607" y="-118" font-family="Ubuntu Mono" font-size="10.00">cnpy2::split</text>
</a>
</g>
</g>
<!-- Node3&#45;&gt;Node5 -->
<g id="edge4_Node000003_Node000005" class="edge">
<title>Node3&#45;&gt;Node5</title>
<g id="a_edge4_Node000003_Node000005"><a xlink:title=" ">
<path fill="none" stroke="#63b8ff" d="M511.06,-120.5C527.83,-120.5 545.12,-120.5 560.27,-120.5"/>
<polygon fill="#63b8ff" stroke="#63b8ff" points="560.39,-124 570.39,-120.5 560.39,-117 560.39,-124"/>
</a>
</g>
</g>
<!-- Node7 -->
<g id="Node000007" class="node">
<title>Node7</title>
<g id="a_Node000007"><a xlink:href="namespacemoose.html#a294009be1efe8d8936f855e12caae79a" target="_top" xlink:title=" ">
<polygon fill="white" stroke="#666666" points="659,-93 555,-93 555,-74 659,-74 659,-93"/>
<text text-anchor="middle" x="607" y="-81" font-family="Ubuntu Mono" font-size="10.00">moose::__dump__</text>
</a>
</g>
</g>
<!-- Node6&#45;&gt;Node7 -->
<g id="edge6_Node000006_Node000007" class="edge">
<title>Node6&#45;&gt;Node7</title>
<g id="a_edge6_Node000006_Node000007"><a xlink:title=" ">
<path fill="none" stroke="#63b8ff" d="M488.39,-83.5C506.26,-83.5 526.38,-83.5 544.87,-83.5"/>
<polygon fill="#63b8ff" stroke="#63b8ff" points="544.95,-87 554.95,-83.5 544.95,-80 544.95,-87"/>
</a>
</g>
</g>
<!-- Node8&#45;&gt;Node6 -->
<g id="edge8_Node000008_Node000006" class="edge">
<title>Node8&#45;&gt;Node6</title>
<g id="a_edge8_Node000008_Node000006"><a xlink:title=" ">
<path fill="none" stroke="#63b8ff" d="M317.71,-70.62C334.9,-72.52 353.97,-74.63 371.61,-76.59"/>
<polygon fill="#63b8ff" stroke="#63b8ff" points="371.49,-80.1 381.81,-77.72 372.26,-73.14 371.49,-80.1"/>
</a>
</g>
</g>
<!-- Node9 -->
<g id="Node000009" class="node">
<title>Node9</title>
<g id="a_Node000009"><a xlink:href="namespacecnpy2.html#a7a1986336cb2c545270663a80c1ee682" target="_top" xlink:title=" ">
<polygon fill="white" stroke="#666666" points="491,-56 379,-56 379,-37 491,-37 491,-56"/>
<text text-anchor="middle" x="435" y="-44" font-family="Ubuntu Mono" font-size="10.00">cnpy2::writeHeader</text>
</a>
</g>
</g>
<!-- Node8&#45;&gt;Node9 -->
<g id="edge9_Node000008_Node000009" class="edge">
<title>Node8&#45;&gt;Node9</title>
<g id="a_edge9_Node000008_Node000009"><a xlink:title=" ">
<path fill="none" stroke="#63b8ff" d="M317.71,-58.71C333.93,-57 351.82,-55.13 368.61,-53.36"/>
<polygon fill="#63b8ff" stroke="#63b8ff" points="369.32,-56.81 378.9,-52.28 368.59,-49.85 369.32,-56.81"/>
</a>
</g>
</g>
<!-- Node10 -->
<g id="Node000010" class="node">
<title>Node10</title>
<g id="a_Node000010"><a xlink:href="namespacecnpy2.html#a4a02a1f1960c7ce923785e2ba78adc2e" target="_top" xlink:title=" ">
<polygon fill="white" stroke="#666666" points="667,-56 547,-56 547,-37 667,-37 667,-56"/>
<text text-anchor="middle" x="607" y="-44" font-family="Ubuntu Mono" font-size="10.00">cnpy2::BigEndianTest</text>
</a>
</g>
</g>
<!-- Node9&#45;&gt;Node10 -->
<g id="edge10_Node000009_Node000010" class="edge">
<title>Node9&#45;&gt;Node10</title>
<g id="a_edge10_Node000009_Node000010"><a xlink:title=" ">
<path fill="none" stroke="#63b8ff" d="M491.19,-46.5C505.69,-46.5 521.51,-46.5 536.64,-46.5"/>
<polygon fill="#63b8ff" stroke="#63b8ff" points="536.98,-50 546.98,-46.5 536.98,-43 536.98,-50"/>
</a>
</g>
</g>
<!-- Node11 -->
<g id="Node000011" class="node">
<title>Node11</title>
<g id="a_Node000011"><a xlink:href="namespacecnpy2.html#a643bbacbd8e11b87ba0251434b5805bf" target="_top" xlink:title=" ">
<polygon fill="white" stroke="#666666" points="667,-19 547,-19 547,0 667,0 667,-19"/>
<text text-anchor="middle" x="607" y="-7" font-family="Ubuntu Mono" font-size="10.00">cnpy2::shapeToString</text>
</a>
</g>
</g>
<!-- Node9&#45;&gt;Node11 -->
<g id="edge11_Node000009_Node000011" class="edge">
<title>Node9&#45;&gt;Node11</title>
<g id="a_edge11_Node000009_Node000011"><a xlink:title=" ">
<path fill="none" stroke="#63b8ff" d="M479.78,-36.97C501.8,-32.18 528.7,-26.32 552,-21.25"/>
<polygon fill="#63b8ff" stroke="#63b8ff" points="553.05,-24.61 562.07,-19.06 551.56,-17.77 553.05,-24.61"/>
</a>
</g>
</g>
</g>
</svg>
