<?xml version="1.0" encoding="UTF-8" standalone="no"?>
<!DOCTYPE svg PUBLIC "-//W3C//DTD SVG 1.1//EN"
 "http://www.w3.org/Graphics/SVG/1.1/DTD/svg11.dtd">
<!-- Generated by graphviz version 2.43.0 (0)
 -->
<!-- Title: Streamer::zipWithTime Pages: 1 -->
<svg width="298pt" height="101pt"
 viewBox="0.00 0.00 298.00 101.00" xmlns="http://www.w3.org/2000/svg" xmlns:xlink="http://www.w3.org/1999/xlink">
<g id="graph0" class="graph" transform="scale(1 1) rotate(0) translate(4 97)">
<title>Streamer::zipWithTime</title>
<!-- Node1 -->
<g id="Node000001" class="node">
<title>Node1</title>
<g id="a_Node000001"><a xlink:title="This function prepares data to be written to a file.">
<polygon fill="#999999" stroke="#666666" points="129,-56 0,-56 0,-37 129,-37 129,-56"/>
<text text-anchor="middle" x="64.5" y="-44" font-family="Ubuntu Mono" font-size="10.00">Streamer::zipWithTime</text>
</a>
</g>
</g>
<!-- Node2 -->
<g id="Node000002" class="node">
<title>Node2</title>
<g id="a_Node000002"><a xlink:href="classTableBase.html#aa09e17d475b3eda3d9c568baaa93ec27" target="_top" xlink:title=" ">
<polygon fill="white" stroke="#666666" points="284,-93 171,-93 171,-74 284,-74 284,-93"/>
<text text-anchor="middle" x="227.5" y="-81" font-family="Ubuntu Mono" font-size="10.00">TableBase::clearVec</text>
</a>
</g>
</g>
<!-- Node1&#45;&gt;Node2 -->
<g id="edge1_Node000001_Node000002" class="edge">
<title>Node1&#45;&gt;Node2</title>
<g id="a_edge1_Node000001_Node000002"><a xlink:title=" ">
<path fill="none" stroke="#63b8ff" d="M106.96,-56.03C127.73,-60.8 153.06,-66.62 175.06,-71.68"/>
<polygon fill="#63b8ff" stroke="#63b8ff" points="174.37,-75.11 184.9,-73.94 175.94,-68.29 174.37,-75.11"/>
</a>
</g>
</g>
<!-- Node3 -->
<g id="Node000003" class="node">
<title>Node3</title>
<g id="a_Node000003"><a xlink:href="classTableBase.html#aa94d6dc4f65f9b3fbd0f1a26fd452818" target="_top" xlink:title=" ">
<polygon fill="white" stroke="#666666" points="290,-56 165,-56 165,-37 290,-37 290,-56"/>
<text text-anchor="middle" x="227.5" y="-44" font-family="Ubuntu Mono" font-size="10.00">TableBase::getVecSize</text>
</a>
</g>
</g>
<!-- Node1&#45;&gt;Node3 -->
<g id="edge2_Node000001_Node000003" class="edge">
<title>Node1&#45;&gt;Node3</title>
<g id="a_edge2_Node000001_Node000003"><a xlink:title=" ">
<path fill="none" stroke="#63b8ff" d="M129.13,-46.5C137.5,-46.5 146.13,-46.5 154.63,-46.5"/>
<polygon fill="#63b8ff" stroke="#63b8ff" points="154.91,-50 164.91,-46.5 154.91,-43 154.91,-50"/>
</a>
</g>
</g>
<!-- Node4 -->
<g id="Node000004" class="node">
<title>Node4</title>
<g id="a_Node000004"><a xlink:href="classTableBase.html#a4a8500587031239b10394d038171248a" target="_top" xlink:title=" ">
<polygon fill="white" stroke="#666666" points="287,-19 168,-19 168,0 287,0 287,-19"/>
<text text-anchor="middle" x="227.5" y="-7" font-family="Ubuntu Mono" font-size="10.00">TableBase::getVector</text>
</a>
</g>
</g>
<!-- Node1&#45;&gt;Node4 -->
<g id="edge3_Node000001_Node000004" class="edge">
<title>Node1&#45;&gt;Node4</title>
<g id="a_edge3_Node000001_Node000004"><a xlink:title=" ">
<path fill="none" stroke="#63b8ff" d="M106.96,-36.97C127.73,-32.2 153.06,-26.38 175.06,-21.32"/>
<polygon fill="#63b8ff" stroke="#63b8ff" points="175.94,-24.71 184.9,-19.06 174.37,-17.89 175.94,-24.71"/>
</a>
</g>
</g>
</g>
</svg>
