<?xml version="1.0" encoding="UTF-8" standalone="no"?>
<!DOCTYPE svg PUBLIC "-//W3C//DTD SVG 1.1//EN"
 "http://www.w3.org/Graphics/SVG/1.1/DTD/svg11.dtd">
<!-- Generated by graphviz version 2.43.0 (0)
 -->
<!-- Title: SocketStreamer::connect Pages: 1 -->
<svg width="484pt" height="27pt"
 viewBox="0.00 0.00 484.00 27.00" xmlns="http://www.w3.org/2000/svg" xmlns:xlink="http://www.w3.org/1999/xlink">
<g id="graph0" class="graph" transform="scale(1 1) rotate(0) translate(4 23)">
<title>SocketStreamer::connect</title>
<!-- Node1 -->
<g id="Node000001" class="node">
<title>Node1</title>
<g id="a_Node000001"><a xlink:title=" ">
<polygon fill="#999999" stroke="#666666" points="476,-19 338,-19 338,0 476,0 476,-19"/>
<text text-anchor="middle" x="407" y="-7" font-family="Ubuntu Mono" font-size="10.00">SocketStreamer::connect</text>
</a>
</g>
</g>
<!-- Node2 -->
<g id="Node000002" class="node">
<title>Node2</title>
<g id="a_Node000002"><a xlink:href="classSocketStreamer.html#aaa359ded08d03cc9344b47848fd54c7d" target="_top" xlink:title="Reinit. We make sure it is non&#45;blocking.">
<polygon fill="white" stroke="#666666" points="302,-19 177,-19 177,0 302,0 302,-19"/>
<text text-anchor="middle" x="239.5" y="-7" font-family="Ubuntu Mono" font-size="10.00">SocketStreamer::reinit</text>
</a>
</g>
</g>
<!-- Node1&#45;&gt;Node2 -->
<g id="edge1_Node000001_Node000002" class="edge">
<title>Node1&#45;&gt;Node2</title>
<g id="a_edge1_Node000001_Node000002"><a xlink:title=" ">
<path fill="none" stroke="#63b8ff" d="M327.46,-9.5C319,-9.5 310.48,-9.5 302.25,-9.5"/>
<polygon fill="#63b8ff" stroke="#63b8ff" points="327.73,-13 337.73,-9.5 327.73,-6 327.73,-13"/>
</a>
</g>
</g>
<!-- Node3 -->
<g id="Node000003" class="node">
<title>Node3</title>
<g id="a_Node000003"><a xlink:href="classSocketStreamer.html#a8f6995482d6f639362e1508b37297404" target="_top" xlink:title=" ">
<polygon fill="white" stroke="#666666" points="141,-19 0,-19 0,0 141,0 141,-19"/>
<text text-anchor="middle" x="70.5" y="-7" font-family="Ubuntu Mono" font-size="10.00">SocketStreamer::initCinfo</text>
</a>
</g>
</g>
<!-- Node2&#45;&gt;Node3 -->
<g id="edge2_Node000002_Node000003" class="edge">
<title>Node2&#45;&gt;Node3</title>
<g id="a_edge2_Node000002_Node000003"><a xlink:title=" ">
<path fill="none" stroke="#63b8ff" d="M166.59,-9.5C158.14,-9.5 149.54,-9.5 141.12,-9.5"/>
<polygon fill="#63b8ff" stroke="#63b8ff" points="166.79,-13 176.79,-9.5 166.79,-6 166.79,-13"/>
</a>
</g>
</g>
</g>
</svg>
