<?xml version="1.0" encoding="UTF-8" standalone="no"?>
<!DOCTYPE svg PUBLIC "-//W3C//DTD SVG 1.1//EN"
 "http://www.w3.org/Graphics/SVG/1.1/DTD/svg11.dtd">
<!-- Generated by graphviz version 2.43.0 (0)
 -->
<!-- Title: IntFire::getVm Pages: 1 -->
<svg width="364pt" height="175pt"
 viewBox="0.00 0.00 364.00 175.00" xmlns="http://www.w3.org/2000/svg" xmlns:xlink="http://www.w3.org/1999/xlink">
<g id="graph0" class="graph" transform="scale(1 1) rotate(0) translate(4 171)">
<title>IntFire::getVm</title>
<!-- Node1 -->
<g id="Node000001" class="node">
<title>Node1</title>
<g id="a_Node000001"><a xlink:title=" ">
<polygon fill="#999999" stroke="#666666" points="356,-56 270,-56 270,-37 356,-37 356,-56"/>
<text text-anchor="middle" x="313" y="-44" font-family="Ubuntu Mono" font-size="10.00">IntFire::getVm</text>
</a>
</g>
</g>
<!-- Node2 -->
<g id="Node000002" class="node">
<title>Node2</title>
<g id="a_Node000002"><a xlink:href="classIntFire.html#aff3833e9d1cc63f77a391f13779a7e35" target="_top" xlink:title=" ">
<polygon fill="white" stroke="#666666" points="234,-94 139,-94 139,-75 234,-75 234,-94"/>
<text text-anchor="middle" x="186.5" y="-82" font-family="Ubuntu Mono" font-size="10.00">IntFire::initCinfo</text>
</a>
</g>
</g>
<!-- Node1&#45;&gt;Node2 -->
<g id="edge1_Node000001_Node000002" class="edge">
<title>Node1&#45;&gt;Node2</title>
<g id="a_edge1_Node000001_Node000002"><a xlink:title=" ">
<path fill="none" stroke="#63b8ff" d="M270.93,-59.04C253.99,-64.2 234.68,-70.1 218.91,-74.91"/>
<polygon fill="#63b8ff" stroke="#63b8ff" points="272.04,-62.36 280.58,-56.09 270,-55.66 272.04,-62.36"/>
</a>
</g>
</g>
<!-- Node5 -->
<g id="Node000005" class="node">
<title>Node5</title>
<g id="a_Node000005"><a xlink:href="testAsync_8cpp.html#af909cc929cd17f4ce42b63e4a462120d" target="_top" xlink:title=" ">
<polygon fill="white" stroke="#666666" points="94.5,-56 8.5,-56 8.5,-37 94.5,-37 94.5,-56"/>
<text text-anchor="middle" x="51.5" y="-44" font-family="Ubuntu Mono" font-size="10.00">testSendSpike</text>
</a>
</g>
</g>
<!-- Node1&#45;&gt;Node5 -->
<g id="edge7_Node000001_Node000005" class="edge">
<title>Node1&#45;&gt;Node5</title>
<g id="a_edge7_Node000001_Node000005"><a xlink:title=" ">
<path fill="none" stroke="#63b8ff" d="M259.43,-46.5C210.89,-46.5 139.7,-46.5 94.75,-46.5"/>
<polygon fill="#63b8ff" stroke="#63b8ff" points="259.73,-50 269.73,-46.5 259.73,-43 259.73,-50"/>
</a>
</g>
</g>
<!-- Node6 -->
<g id="Node000006" class="node">
<title>Node6</title>
<g id="a_Node000006"><a xlink:href="testAsync_8cpp.html#a4381556b7374a5cb6c4ae7c1e9843276" target="_top" xlink:title=" ">
<polygon fill="white" stroke="#666666" points="103,-19 0,-19 0,0 103,0 103,-19"/>
<text text-anchor="middle" x="51.5" y="-7" font-family="Ubuntu Mono" font-size="10.00">testSetGetDouble</text>
</a>
</g>
</g>
<!-- Node1&#45;&gt;Node6 -->
<g id="edge8_Node000001_Node000006" class="edge">
<title>Node1&#45;&gt;Node6</title>
<g id="a_edge8_Node000001_Node000006"><a xlink:title=" ">
<path fill="none" stroke="#63b8ff" d="M259.74,-39.05C214.14,-32.55 148.36,-23.17 103.22,-16.73"/>
<polygon fill="#63b8ff" stroke="#63b8ff" points="259.34,-42.53 269.73,-40.47 260.32,-35.6 259.34,-42.53"/>
</a>
</g>
</g>
<!-- Node3 -->
<g id="Node000003" class="node">
<title>Node3</title>
<g id="a_Node000003"><a xlink:href="testAsync_8cpp.html#ade22665845b65d460acd04732cb67bbe" target="_top" xlink:title=" ">
<polygon fill="white" stroke="#666666" points="96,-167 7,-167 7,-148 96,-148 96,-167"/>
<text text-anchor="middle" x="51.5" y="-155" font-family="Ubuntu Mono" font-size="10.00">testCinfoFields</text>
</a>
</g>
</g>
<!-- Node2&#45;&gt;Node3 -->
<g id="edge2_Node000002_Node000003" class="edge">
<title>Node2&#45;&gt;Node3</title>
<g id="a_edge2_Node000002_Node000003"><a xlink:title=" ">
<path fill="none" stroke="#63b8ff" d="M165.04,-100.21C148.85,-112.12 125.33,-128.29 103,-139.5 96.76,-142.63 89.84,-145.47 83.18,-147.93"/>
<polygon fill="#63b8ff" stroke="#63b8ff" points="167.31,-102.88 173.23,-94.09 163.12,-97.27 167.31,-102.88"/>
</a>
</g>
</g>
<!-- Node4 -->
<g id="Node000004" class="node">
<title>Node4</title>
<g id="a_Node000004"><a xlink:href="testAsync_8cpp.html#a47b8501fa90ab1593656908581635d13" target="_top" xlink:title=" ">
<polygon fill="white" stroke="#666666" points="95.5,-130 7.5,-130 7.5,-111 95.5,-111 95.5,-130"/>
<text text-anchor="middle" x="51.5" y="-118" font-family="Ubuntu Mono" font-size="10.00">testFinfoFields</text>
</a>
</g>
</g>
<!-- Node2&#45;&gt;Node4 -->
<g id="edge3_Node000002_Node000004" class="edge">
<title>Node2&#45;&gt;Node4</title>
<g id="a_edge3_Node000002_Node000004"><a xlink:title=" ">
<path fill="none" stroke="#63b8ff" d="M140.41,-96.7C123.3,-101.34 104.06,-106.54 87.96,-110.9"/>
<polygon fill="#63b8ff" stroke="#63b8ff" points="141.47,-100.04 150.21,-94.05 139.64,-93.29 141.47,-100.04"/>
</a>
</g>
</g>
<!-- Node2&#45;&gt;Node5 -->
<g id="edge4_Node000002_Node000005" class="edge">
<title>Node2&#45;&gt;Node5</title>
<g id="a_edge4_Node000002_Node000005"><a xlink:title=" ">
<path fill="none" stroke="#63b8ff" d="M142.13,-72.11C123.92,-66.91 103.06,-60.95 86.05,-56.09"/>
<polygon fill="#63b8ff" stroke="#63b8ff" points="141.36,-75.53 151.94,-74.91 143.28,-68.8 141.36,-75.53"/>
</a>
</g>
</g>
<!-- Node2&#45;&gt;Node6 -->
<g id="edge5_Node000002_Node000006" class="edge">
<title>Node2&#45;&gt;Node6</title>
<g id="a_edge5_Node000002_Node000006"><a xlink:title=" ">
<path fill="none" stroke="#63b8ff" d="M165.69,-68.6C149.54,-56.19 125.75,-39.15 103,-27.5 96.87,-24.36 90.06,-21.53 83.49,-19.1"/>
<polygon fill="#63b8ff" stroke="#63b8ff" points="163.79,-71.56 173.83,-74.95 168.1,-66.04 163.79,-71.56"/>
</a>
</g>
</g>
<!-- Node7 -->
<g id="Node000007" class="node">
<title>Node7</title>
<g id="a_Node000007"><a xlink:href="testAsync_8cpp.html#a5c9622ce2d8da21ebf145351a41856d7" target="_top" xlink:title=" ">
<polygon fill="white" stroke="#666666" points="96,-93 7,-93 7,-74 96,-74 96,-93"/>
<text text-anchor="middle" x="51.5" y="-81" font-family="Ubuntu Mono" font-size="10.00">testSparseMsg</text>
</a>
</g>
</g>
<!-- Node2&#45;&gt;Node7 -->
<g id="edge6_Node000002_Node000007" class="edge">
<title>Node2&#45;&gt;Node7</title>
<g id="a_edge6_Node000002_Node000007"><a xlink:title=" ">
<path fill="none" stroke="#63b8ff" d="M128.67,-84.07C117.76,-83.99 106.5,-83.91 96.09,-83.83"/>
<polygon fill="#63b8ff" stroke="#63b8ff" points="128.96,-87.57 138.98,-84.15 129.01,-80.58 128.96,-87.57"/>
</a>
</g>
</g>
</g>
</svg>
