<?xml version="1.0" encoding="UTF-8" standalone="no"?>
<!DOCTYPE svg PUBLIC "-//W3C//DTD SVG 1.1//EN"
 "http://www.w3.org/Graphics/SVG/1.1/DTD/svg11.dtd">
<!-- Generated by graphviz version 2.43.0 (0)
 -->
<!-- Title: Clock::setTickStep Pages: 1 -->
<svg width="489pt" height="101pt"
 viewBox="0.00 0.00 489.00 101.00" xmlns="http://www.w3.org/2000/svg" xmlns:xlink="http://www.w3.org/1999/xlink">

<svg id="main" version="1.1" xmlns="http://www.w3.org/2000/svg" xmlns:xlink="http://www.w3.org/1999/xlink" xml:space="preserve" onload="init(evt)">
<style type="text/css"><![CDATA[
.node, .edge {opacity: 0.7;}
.node.selected, .edge.selected {opacity: 1;}
.edge:hover path { stroke: red; }
.edge:hover polygon { stroke: red; fill: red; }
]]></style>
<script type="application/ecmascript" xlink:href="svg.min.js"/>
<svg id="graph" class="graph">
<g id="graph0" class="graph" transform="scale(1 1) rotate(0) translate(4 97)">
<title>Clock::setTickStep</title>
<!-- Node1 -->
<g id="Node000001" class="node">
<title>Node1</title>
<g id="a_Node000001"><a xlink:title=" ">
<polygon fill="#999999" stroke="#666666" points="481,-56 374,-56 374,-37 481,-37 481,-56"/>
<text text-anchor="middle" x="427.5" y="-44" font-family="Ubuntu Mono" font-size="10.00">Clock::setTickStep</text>
</a>
</g>
</g>
<!-- Node2 -->
<g id="Node000002" class="node">
<title>Node2</title>
<g id="a_Node000002"><a xlink:href="classClock.html#a340c4fcfc35fdff169e8b919b971994d" target="_top" xlink:title=" ">
<polygon fill="white" stroke="#666666" points="338,-56 247,-56 247,-37 338,-37 338,-56"/>
<text text-anchor="middle" x="292.5" y="-44" font-family="Ubuntu Mono" font-size="10.00">Clock::initCinfo</text>
</a>
</g>
</g>
<!-- Node1&#45;&gt;Node2 -->
<g id="edge1_Node000001_Node000002" class="edge">
<title>Node1&#45;&gt;Node2</title>
<g id="a_edge1_Node000001_Node000002"><a xlink:title=" ">
<path fill="none" stroke="#63b8ff" d="M363.9,-46.5C355.29,-46.5 346.59,-46.5 338.38,-46.5"/>
<polygon fill="#63b8ff" stroke="#63b8ff" points="363.93,-50 373.93,-46.5 363.93,-43 363.93,-50"/>
</a>
</g>
</g>
<!-- Node3 -->
<g id="Node000003" class="node">
<title>Node3</title>
<g id="a_Node000003"><a xlink:href="main_8cpp.html#a6e304b494f9a324f952d9f2033b2b136" target="_top" xlink:title=" ">
<polygon fill="white" stroke="#666666" points="178,-93 146,-93 146,-74 178,-74 178,-93"/>
<text text-anchor="middle" x="162" y="-81" font-family="Ubuntu Mono" font-size="10.00">init</text>
</a>
</g>
</g>
<!-- Node2&#45;&gt;Node3 -->
<g id="edge2_Node000002_Node000003" class="edge">
<title>Node2&#45;&gt;Node3</title>
<g id="a_edge2_Node000002_Node000003"><a xlink:title=" ">
<path fill="none" stroke="#63b8ff" d="M248.66,-58.84C224.33,-65.84 195.38,-74.18 178.13,-79.14"/>
<polygon fill="#63b8ff" stroke="#63b8ff" points="249.77,-62.16 258.41,-56.03 247.83,-55.43 249.77,-62.16"/>
</a>
</g>
</g>
<!-- Node5 -->
<g id="Node000005" class="node">
<title>Node5</title>
<g id="a_Node000005"><a xlink:href="testBuiltins_8cpp.html#a0b23c31b7503dd93064294b42d4ff085" target="_top" xlink:title=" ">
<polygon fill="white" stroke="#666666" points="202.5,-56 121.5,-56 121.5,-37 202.5,-37 202.5,-56"/>
<text text-anchor="middle" x="162" y="-44" font-family="Ubuntu Mono" font-size="10.00">testFibonacci</text>
</a>
</g>
</g>
<!-- Node2&#45;&gt;Node5 -->
<g id="edge4_Node000002_Node000005" class="edge">
<title>Node2&#45;&gt;Node5</title>
<g id="a_edge4_Node000002_Node000005"><a xlink:title=" ">
<path fill="none" stroke="#63b8ff" d="M236.63,-46.5C225.26,-46.5 213.49,-46.5 202.78,-46.5"/>
<polygon fill="#63b8ff" stroke="#63b8ff" points="236.92,-50 246.92,-46.5 236.92,-43 236.92,-50"/>
</a>
</g>
</g>
<!-- Node6 -->
<g id="Node000006" class="node">
<title>Node6</title>
<g id="a_Node000006"><a xlink:href="testShell_8cpp.html#ae735a0a41a973dd5976fee234f11149c" target="_top" xlink:title=" ">
<polygon fill="white" stroke="#666666" points="211,-19 113,-19 113,0 211,0 211,-19"/>
<text text-anchor="middle" x="162" y="-7" font-family="Ubuntu Mono" font-size="10.00">testShellAddMsg</text>
</a>
</g>
</g>
<!-- Node2&#45;&gt;Node6 -->
<g id="edge5_Node000002_Node000006" class="edge">
<title>Node2&#45;&gt;Node6</title>
<g id="a_edge5_Node000002_Node000006"><a xlink:title=" ">
<path fill="none" stroke="#63b8ff" d="M248.69,-34.17C231.67,-29.27 212.39,-23.72 196.43,-19.12"/>
<polygon fill="#63b8ff" stroke="#63b8ff" points="247.83,-37.57 258.41,-36.97 249.77,-30.84 247.83,-37.57"/>
</a>
</g>
</g>
<!-- Node4 -->
<g id="Node000004" class="node">
<title>Node4</title>
<g id="a_Node000004"><a xlink:href="main_8cpp.html#a3c04138a5bfe5d72780bb7e82a18e627" target="_top" xlink:title=" ">
<polygon fill="white" stroke="#666666" points="59,-93 18,-93 18,-74 59,-74 59,-93"/>
<text text-anchor="middle" x="38.5" y="-81" font-family="Ubuntu Mono" font-size="10.00">main</text>
</a>
</g>
</g>
<!-- Node3&#45;&gt;Node4 -->
<g id="edge3_Node000003_Node000004" class="edge">
<title>Node3&#45;&gt;Node4</title>
<g id="a_edge3_Node000003_Node000004"><a xlink:title=" ">
<path fill="none" stroke="#63b8ff" d="M135.35,-83.5C112.62,-83.5 79.9,-83.5 59.18,-83.5"/>
<polygon fill="#63b8ff" stroke="#63b8ff" points="135.61,-87 145.61,-83.5 135.61,-80 135.61,-87"/>
</a>
</g>
</g>
<!-- Node7 -->
<g id="Node000007" class="node">
<title>Node7</title>
<g id="a_Node000007"><a xlink:href="testShell_8cpp.html#a39b69e92ca3f7b92223ebc9b1940bff7" target="_top" xlink:title=" ">
<polygon fill="white" stroke="#666666" points="77,-19 0,-19 0,0 77,0 77,-19"/>
<text text-anchor="middle" x="38.5" y="-7" font-family="Ubuntu Mono" font-size="10.00">testMpiShell</text>
</a>
</g>
</g>
<!-- Node6&#45;&gt;Node7 -->
<g id="edge6_Node000006_Node000007" class="edge">
<title>Node6&#45;&gt;Node7</title>
<g id="a_edge6_Node000006_Node000007"><a xlink:title=" ">
<path fill="none" stroke="#63b8ff" d="M102.79,-9.5C94.04,-9.5 85.22,-9.5 77.06,-9.5"/>
<polygon fill="#63b8ff" stroke="#63b8ff" points="102.98,-13 112.98,-9.5 102.98,-6 102.98,-13"/>
</a>
</g>
</g>
</g>
</svg>
</svg>

<style type='text/css'>
<![CDATA[
[data-mouse-over-selected='false'] { opacity: 0.7; }
[data-mouse-over-selected='true']  { opacity: 1.0; }
]]>
</style>
<script type="application/ecmascript"><![CDATA[
document.addEventListener('DOMContentLoaded', (event) => {
  highlightEdges();
  highlightAdjacentNodes();
});
]]></script>
</svg>
