<?xml version="1.0" encoding="UTF-8" standalone="no"?>
<!DOCTYPE svg PUBLIC "-//W3C//DTD SVG 1.1//EN"
 "http://www.w3.org/Graphics/SVG/1.1/DTD/svg11.dtd">
<!-- Generated by graphviz version 2.43.0 (0)
 -->
<!-- Title: Neutral::getParent Pages: 1 -->
<svg width="575pt" height="1743pt"
 viewBox="0.00 0.00 575.00 1743.00" xmlns="http://www.w3.org/2000/svg" xmlns:xlink="http://www.w3.org/1999/xlink">
<g id="graph0" class="graph" transform="scale(1 1) rotate(0) translate(4 1739)">
<title>Neutral::getParent</title>
<!-- Node1 -->
<g id="Node000001" class="node">
<title>Node1</title>
<g id="a_Node000001"><a xlink:title=" ">
<polygon fill="#999999" stroke="#666666" points="567,-851 462,-851 462,-832 567,-832 567,-851"/>
<text text-anchor="middle" x="514.5" y="-839" font-family="Ubuntu Mono" font-size="10.00">Neutral::getParent</text>
</a>
</g>
</g>
<!-- Node2 -->
<g id="Node000002" class="node">
<title>Node2</title>
<g id="a_Node000002"><a xlink:href="classNeutral.html#a70fe1de93fce8611988faacd5cc96dd3" target="_top" xlink:title=" ">
<polygon fill="#fff0f0" stroke="red" points="426,-870 326,-870 326,-851 426,-851 426,-870"/>
<text text-anchor="middle" x="376" y="-858" font-family="Ubuntu Mono" font-size="10.00">Neutral::initCinfo</text>
</a>
</g>
</g>
<!-- Node1&#45;&gt;Node2 -->
<g id="edge1_Node000001_Node000002" class="edge">
<title>Node1&#45;&gt;Node2</title>
<g id="a_edge1_Node000001_Node000002"><a xlink:title=" ">
<path fill="none" stroke="#63b8ff" d="M451.96,-850.07C443.4,-851.26 434.71,-852.47 426.42,-853.62"/>
<polygon fill="#63b8ff" stroke="#63b8ff" points="452.47,-853.53 461.9,-848.68 451.51,-846.6 452.47,-853.53"/>
</a>
</g>
</g>
<!-- Node392 -->
<g id="Node000392" class="node">
<title>Node392</title>
<g id="a_Node000392"><a xlink:href="testShell_8cpp.html#a32672985da4af3ae997e471a0bca8654" target="_top" xlink:title=" ">
<polygon fill="#fff0f0" stroke="red" points="406,-833 346,-833 346,-814 406,-814 406,-833"/>
<text text-anchor="middle" x="376" y="-821" font-family="Ubuntu Mono" font-size="10.00">testCopy</text>
</a>
</g>
</g>
<!-- Node1&#45;&gt;Node392 -->
<g id="edge50_Node000001_Node000392" class="edge">
<title>Node1&#45;&gt;Node392</title>
<g id="a_edge50_Node000001_Node000392"><a xlink:title=" ">
<path fill="none" stroke="#63b8ff" d="M451.58,-833.33C435.73,-831.24 419.42,-829.09 406.11,-827.34"/>
<polygon fill="#63b8ff" stroke="#63b8ff" points="451.52,-836.86 461.9,-834.69 452.44,-829.92 451.52,-836.86"/>
</a>
</g>
</g>
<!-- Node3 -->
<g id="Node000003" class="node">
<title>Node3</title>
<g id="a_Node000003"><a xlink:href="classShell.html#a5dd866132d7790b357e956ab5d71d5ef" target="_top" xlink:title=" ">
<polygon fill="#fff0f0" stroke="red" points="249.5,-1735 175.5,-1735 175.5,-1716 249.5,-1716 249.5,-1735"/>
<text text-anchor="middle" x="212.5" y="-1723" font-family="Ubuntu Mono" font-size="10.00">Shell::adopt</text>
</a>
</g>
</g>
<!-- Node2&#45;&gt;Node3 -->
<g id="edge2_Node000002_Node000003" class="edge">
<title>Node2&#45;&gt;Node3</title>
<g id="a_edge2_Node000002_Node000003"><a xlink:title=" ">
<path fill="none" stroke="#63b8ff" d="M374.38,-880.09C370.36,-1001.04 346.46,-1643.11 290,-1707.5 280.02,-1718.89 264.31,-1723.78 249.72,-1725.68"/>
<polygon fill="#63b8ff" stroke="#63b8ff" points="377.88,-880.16 374.7,-870.05 370.88,-879.93 377.88,-880.16"/>
</a>
</g>
</g>
<!-- Node7 -->
<g id="Node000007" class="node">
<title>Node7</title>
<g id="a_Node000007"><a xlink:href="main_8cpp.html#a6e304b494f9a324f952d9f2033b2b136" target="_top" xlink:title=" ">
<polygon fill="#fff0f0" stroke="red" points="228.5,-1698 196.5,-1698 196.5,-1679 228.5,-1679 228.5,-1698"/>
<text text-anchor="middle" x="212.5" y="-1686" font-family="Ubuntu Mono" font-size="10.00">init</text>
</a>
</g>
</g>
<!-- Node2&#45;&gt;Node7 -->
<g id="edge3_Node000002_Node000007" class="edge">
<title>Node2&#45;&gt;Node7</title>
<g id="a_edge3_Node000002_Node000007"><a xlink:title=" ">
<path fill="none" stroke="#63b8ff" d="M374.27,-880.33C369.76,-998.72 343.99,-1609.21 290,-1670.5 274.76,-1687.8 246.3,-1690.11 228.72,-1689.67"/>
<polygon fill="#63b8ff" stroke="#63b8ff" points="377.78,-880.3 374.65,-870.17 370.78,-880.04 377.78,-880.3"/>
</a>
</g>
</g>
<!-- Node24 -->
<g id="Node000024" class="node">
<title>Node24</title>
<g id="a_Node000024"><a xlink:href="classCinfo.html#acf5e73de17b285176641f7030d36a65e" target="_top" xlink:title=" ">
<polygon fill="#fff0f0" stroke="red" points="257,-1661 168,-1661 168,-1642 257,-1642 257,-1661"/>
<text text-anchor="middle" x="212.5" y="-1649" font-family="Ubuntu Mono" font-size="10.00">Cinfo::initCinfo</text>
</a>
</g>
</g>
<!-- Node2&#45;&gt;Node24 -->
<g id="edge4_Node000002_Node000024" class="edge">
<title>Node2&#45;&gt;Node24</title>
<g id="a_edge4_Node000002_Node000024"><a xlink:title=" ">
<path fill="none" stroke="#63b8ff" d="M374.16,-880.49C369.14,-996.03 341.53,-1575.29 290,-1633.5 281.68,-1642.9 269.46,-1647.87 257.22,-1650.37"/>
<polygon fill="#63b8ff" stroke="#63b8ff" points="377.67,-880.41 374.6,-870.26 370.68,-880.11 377.67,-880.41"/>
</a>
</g>
</g>
<!-- Node25 -->
<g id="Node000025" class="node">
<title>Node25</title>
<g id="a_Node000025"><a xlink:href="classFinfo.html#a064594ba24b2c27f32a7599f75326487" target="_top" xlink:title=" ">
<polygon fill="#fff0f0" stroke="red" points="256.5,-1624 168.5,-1624 168.5,-1605 256.5,-1605 256.5,-1624"/>
<text text-anchor="middle" x="212.5" y="-1612" font-family="Ubuntu Mono" font-size="10.00">Finfo::initCinfo</text>
</a>
</g>
</g>
<!-- Node2&#45;&gt;Node25 -->
<g id="edge5_Node000002_Node000025" class="edge">
<title>Node2&#45;&gt;Node25</title>
<g id="a_edge5_Node000002_Node000025"><a xlink:title=" ">
<path fill="none" stroke="#63b8ff" d="M374.06,-880.22C368.57,-991.83 339.15,-1541.29 290,-1596.5 281.56,-1605.98 269.16,-1610.94 256.79,-1613.43"/>
<polygon fill="#63b8ff" stroke="#63b8ff" points="377.56,-880.21 374.55,-870.06 370.57,-879.88 377.56,-880.21"/>
</a>
</g>
</g>
<!-- Node26 -->
<g id="Node000026" class="node">
<title>Node26</title>
<g id="a_Node000026"><a xlink:href="classTestId.html#a017469fce214c3c71f9f920b459e23a9" target="_top" xlink:title=" ">
<polygon fill="white" stroke="#666666" points="258.5,-1587 166.5,-1587 166.5,-1568 258.5,-1568 258.5,-1587"/>
<text text-anchor="middle" x="212.5" y="-1575" font-family="Ubuntu Mono" font-size="10.00">TestId::initCinfo</text>
</a>
</g>
</g>
<!-- Node2&#45;&gt;Node26 -->
<g id="edge6_Node000002_Node000026" class="edge">
<title>Node2&#45;&gt;Node26</title>
<g id="a_edge6_Node000002_Node000026"><a xlink:title=" ">
<path fill="none" stroke="#63b8ff" d="M373.93,-880.23C367.91,-988.49 336.72,-1507.33 290,-1559.5 281.99,-1568.44 270.45,-1573.37 258.75,-1575.97"/>
<polygon fill="#63b8ff" stroke="#63b8ff" points="377.44,-880.25 374.49,-870.08 370.45,-879.87 377.44,-880.25"/>
</a>
</g>
</g>
<!-- Node27 -->
<g id="Node000027" class="node">
<title>Node27</title>
<g id="a_Node000027"><a xlink:href="classCaConcBase.html#a11b4a454361bd05ad9fa135a931f0e88" target="_top" xlink:title=" ">
<polygon fill="#fff0f0" stroke="red" points="275,-1550 150,-1550 150,-1531 275,-1531 275,-1550"/>
<text text-anchor="middle" x="212.5" y="-1538" font-family="Ubuntu Mono" font-size="10.00">CaConcBase::initCinfo</text>
</a>
</g>
</g>
<!-- Node2&#45;&gt;Node27 -->
<g id="edge7_Node000002_Node000027" class="edge">
<title>Node2&#45;&gt;Node27</title>
<g id="a_edge7_Node000002_Node000027"><a xlink:title=" ">
<path fill="none" stroke="#63b8ff" d="M375.36,-880.29C376.79,-979.81 378.07,-1424.82 290,-1522.5 285.89,-1527.06 280.86,-1530.57 275.36,-1533.27"/>
<polygon fill="#63b8ff" stroke="#63b8ff" points="378.86,-880.07 375.2,-870.13 371.86,-880.19 378.86,-880.07"/>
</a>
</g>
</g>
<!-- Node36 -->
<g id="Node000036" class="node">
<title>Node36</title>
<g id="a_Node000036"><a xlink:href="classChanBase.html#a636dddba7e9e9a4519362a2a94f190bc" target="_top" xlink:title="Specify the Class Info static variable for initialization.">
<polygon fill="#fff0f0" stroke="red" points="269,-1513 156,-1513 156,-1494 269,-1494 269,-1513"/>
<text text-anchor="middle" x="212.5" y="-1501" font-family="Ubuntu Mono" font-size="10.00">ChanBase::initCinfo</text>
</a>
</g>
</g>
<!-- Node2&#45;&gt;Node36 -->
<g id="edge8_Node000002_Node000036" class="edge">
<title>Node2&#45;&gt;Node36</title>
<g id="a_edge8_Node000002_Node000036"><a xlink:title=" ">
<path fill="none" stroke="#63b8ff" d="M375.17,-880.03C375.59,-975.52 372.63,-1392.43 290,-1484.5 284.42,-1490.71 277.16,-1495.04 269.33,-1498.04"/>
<polygon fill="#63b8ff" stroke="#63b8ff" points="378.67,-880 375.11,-870.02 371.67,-880.04 378.67,-880"/>
</a>
</g>
</g>
<!-- Node48 -->
<g id="Node000048" class="node">
<title>Node48</title>
<g id="a_Node000048"><a xlink:href="classmoose_1_1CompartmentBase.html#ac8948ff4655adb71da12b8aa21462122" target="_top" xlink:title=" ">
<polygon fill="#fff0f0" stroke="red" points="286,-1475.5 139,-1475.5 139,-1445.5 286,-1445.5 286,-1475.5"/>
<text text-anchor="start" x="147" y="-1463.5" font-family="Ubuntu Mono" font-size="10.00">moose::CompartmentBase</text>
<text text-anchor="middle" x="212.5" y="-1452.5" font-family="Ubuntu Mono" font-size="10.00">::initCinfo</text>
</a>
</g>
</g>
<!-- Node2&#45;&gt;Node48 -->
<g id="edge9_Node000002_Node000048" class="edge">
<title>Node2&#45;&gt;Node48</title>
<g id="a_edge9_Node000002_Node000048"><a xlink:title=" ">
<path fill="none" stroke="#63b8ff" d="M374.81,-880.13C373.53,-971.01 363.8,-1350.06 290,-1436.5 287.11,-1439.89 283.74,-1442.8 280.07,-1445.31"/>
<polygon fill="#63b8ff" stroke="#63b8ff" points="378.31,-880.14 374.93,-870.1 371.31,-880.06 378.31,-880.14"/>
</a>
</g>
</g>
<!-- Node65 -->
<g id="Node000065" class="node">
<title>Node65</title>
<g id="a_Node000065"><a xlink:href="classDifBufferBase.html#a509264b11f6cbdf352801f1df88dca14" target="_top" xlink:title=" ">
<polygon fill="#fff0f0" stroke="red" points="278,-1427 147,-1427 147,-1408 278,-1408 278,-1427"/>
<text text-anchor="middle" x="212.5" y="-1415" font-family="Ubuntu Mono" font-size="10.00">DifBufferBase::initCinfo</text>
</a>
</g>
</g>
<!-- Node2&#45;&gt;Node65 -->
<g id="edge10_Node000002_Node000065" class="edge">
<title>Node2&#45;&gt;Node65</title>
<g id="a_edge10_Node000002_Node000065"><a xlink:title=" ">
<path fill="none" stroke="#63b8ff" d="M374.72,-880.64C373.07,-969.07 362,-1321.91 290,-1399.5 286.57,-1403.2 282.53,-1406.21 278.13,-1408.64"/>
<polygon fill="#63b8ff" stroke="#63b8ff" points="378.22,-880.44 374.89,-870.38 371.22,-880.32 378.22,-880.44"/>
</a>
</g>
</g>
<!-- Node67 -->
<g id="Node000067" class="node">
<title>Node67</title>
<g id="a_Node000067"><a xlink:href="classDifShellBase.html#a1973a57efdc0162a3a6b36e70ac452a1" target="_top" xlink:title=" ">
<polygon fill="#fff0f0" stroke="red" points="275.5,-1390 149.5,-1390 149.5,-1371 275.5,-1371 275.5,-1390"/>
<text text-anchor="middle" x="212.5" y="-1378" font-family="Ubuntu Mono" font-size="10.00">DifShellBase::initCinfo</text>
</a>
</g>
</g>
<!-- Node2&#45;&gt;Node67 -->
<g id="edge11_Node000002_Node000067" class="edge">
<title>Node2&#45;&gt;Node67</title>
<g id="a_edge11_Node000002_Node000067"><a xlink:title=" ">
<path fill="none" stroke="#63b8ff" d="M374.47,-880.32C371.83,-964.42 357.31,-1290.79 290,-1362.5 285.89,-1366.88 280.94,-1370.28 275.54,-1372.92"/>
<polygon fill="#63b8ff" stroke="#63b8ff" points="377.98,-880.21 374.77,-870.11 370.98,-880 377.98,-880.21"/>
</a>
</g>
</g>
<!-- Node69 -->
<g id="Node000069" class="node">
<title>Node69</title>
<g id="a_Node000069"><a xlink:href="classGapJunction.html#aee12da0d50874d00f3ed5bcf698fd9b1" target="_top" xlink:title=" ">
<polygon fill="white" stroke="#666666" points="273.5,-1353 151.5,-1353 151.5,-1334 273.5,-1334 273.5,-1353"/>
<text text-anchor="middle" x="212.5" y="-1341" font-family="Ubuntu Mono" font-size="10.00">GapJunction::initCinfo</text>
</a>
</g>
</g>
<!-- Node2&#45;&gt;Node69 -->
<g id="edge12_Node000002_Node000069" class="edge">
<title>Node2&#45;&gt;Node69</title>
<g id="a_edge12_Node000002_Node000069"><a xlink:title=" ">
<path fill="none" stroke="#63b8ff" d="M374.18,-880.38C370.45,-960.65 352.53,-1259.75 290,-1325.5 285.39,-1330.34 279.75,-1333.99 273.63,-1336.73"/>
<polygon fill="#63b8ff" stroke="#63b8ff" points="377.68,-880.32 374.63,-870.18 370.69,-880.01 377.68,-880.32"/>
</a>
</g>
</g>
<!-- Node70 -->
<g id="Node000070" class="node">
<title>Node70</title>
<g id="a_Node000070"><a xlink:href="classHHGate.html#a3f79d6db37dc14409b861527effdf727" target="_top" xlink:title=" ">
<polygon fill="#fff0f0" stroke="red" points="263.5,-1316 161.5,-1316 161.5,-1297 263.5,-1297 263.5,-1316"/>
<text text-anchor="middle" x="212.5" y="-1304" font-family="Ubuntu Mono" font-size="10.00">HHGate::initCinfo</text>
</a>
</g>
</g>
<!-- Node2&#45;&gt;Node70 -->
<g id="edge13_Node000002_Node000070" class="edge">
<title>Node2&#45;&gt;Node70</title>
<g id="a_edge13_Node000002_Node000070"><a xlink:title=" ">
<path fill="none" stroke="#63b8ff" d="M373.85,-880.24C369,-956.24 347.81,-1228.63 290,-1288.5 282.99,-1295.76 273.64,-1300.33 263.89,-1303.16"/>
<polygon fill="#63b8ff" stroke="#63b8ff" points="377.35,-880.34 374.47,-870.15 370.36,-879.91 377.35,-880.34"/>
</a>
</g>
</g>
<!-- Node71 -->
<g id="Node000071" class="node">
<title>Node71</title>
<g id="a_Node000071"><a xlink:href="classHHGate2D.html#a2f3690fb810e9629e9a95482518ae042" target="_top" xlink:title=" ">
<polygon fill="#fff0f0" stroke="red" points="270.5,-1279 154.5,-1279 154.5,-1260 270.5,-1260 270.5,-1279"/>
<text text-anchor="middle" x="212.5" y="-1267" font-family="Ubuntu Mono" font-size="10.00">HHGate2D::initCinfo</text>
</a>
</g>
</g>
<!-- Node2&#45;&gt;Node71 -->
<g id="edge14_Node000002_Node000071" class="edge">
<title>Node2&#45;&gt;Node71</title>
<g id="a_edge14_Node000002_Node000071"><a xlink:title=" ">
<path fill="none" stroke="#63b8ff" d="M373.44,-880.35C367.37,-952.22 343.05,-1197.54 290,-1251.5 284.64,-1256.95 277.97,-1260.87 270.81,-1263.68"/>
<polygon fill="#63b8ff" stroke="#63b8ff" points="376.95,-880.27 374.28,-870.02 369.98,-879.7 376.95,-880.27"/>
</a>
</g>
</g>
<!-- Node72 -->
<g id="Node000072" class="node">
<title>Node72</title>
<g id="a_Node000072"><a xlink:href="classHHGateF.html#ab3b1b624f0433714687733a41bd344a7" target="_top" xlink:title=" ">
<polygon fill="#fff0f0" stroke="red" points="266,-1242 159,-1242 159,-1223 266,-1223 266,-1242"/>
<text text-anchor="middle" x="212.5" y="-1230" font-family="Ubuntu Mono" font-size="10.00">HHGateF::initCinfo</text>
</a>
</g>
</g>
<!-- Node2&#45;&gt;Node72 -->
<g id="edge15_Node000002_Node000072" class="edge">
<title>Node2&#45;&gt;Node72</title>
<g id="a_edge15_Node000002_Node000072"><a xlink:title=" ">
<path fill="none" stroke="#63b8ff" d="M372.97,-880.2C365.63,-947.43 338.38,-1166.34 290,-1214.5 283.42,-1221.05 274.94,-1225.38 266.04,-1228.23"/>
<polygon fill="#63b8ff" stroke="#63b8ff" points="376.46,-880.43 374.04,-870.11 369.5,-879.69 376.46,-880.43"/>
</a>
</g>
</g>
<!-- Node74 -->
<g id="Node000074" class="node">
<title>Node74</title>
<g id="a_Node000074"><a xlink:href="classIntFire.html#aff3833e9d1cc63f77a391f13779a7e35" target="_top" xlink:title=" ">
<polygon fill="#fff0f0" stroke="red" points="260,-1205 165,-1205 165,-1186 260,-1186 260,-1205"/>
<text text-anchor="middle" x="212.5" y="-1193" font-family="Ubuntu Mono" font-size="10.00">IntFire::initCinfo</text>
</a>
</g>
</g>
<!-- Node2&#45;&gt;Node74 -->
<g id="edge16_Node000002_Node000074" class="edge">
<title>Node2&#45;&gt;Node74</title>
<g id="a_edge16_Node000002_Node000074"><a xlink:title=" ">
<path fill="none" stroke="#63b8ff" d="M372.38,-880.13C363.68,-942.6 333.71,-1135.12 290,-1177.5 281.97,-1185.29 271.23,-1189.93 260.35,-1192.65"/>
<polygon fill="#63b8ff" stroke="#63b8ff" points="375.88,-880.43 373.76,-870.05 368.94,-879.48 375.88,-880.43"/>
</a>
</g>
</g>
<!-- Node80 -->
<g id="Node000080" class="node">
<title>Node80</title>
<g id="a_Node000080"><a xlink:href="classIzhikevichNrn.html#ae794907e4ccd2389fac0aabeb40313c4" target="_top" xlink:title=" ">
<polygon fill="white" stroke="#666666" points="277.5,-1168 147.5,-1168 147.5,-1149 277.5,-1149 277.5,-1168"/>
<text text-anchor="middle" x="212.5" y="-1156" font-family="Ubuntu Mono" font-size="10.00">IzhikevichNrn::initCinfo</text>
</a>
</g>
</g>
<!-- Node2&#45;&gt;Node80 -->
<g id="edge17_Node000002_Node000080" class="edge">
<title>Node2&#45;&gt;Node80</title>
<g id="a_edge17_Node000002_Node000080"><a xlink:title=" ">
<path fill="none" stroke="#63b8ff" d="M375.27,-880.23C374.84,-931.32 366.29,-1068.92 290,-1140.5 286.32,-1143.95 282.1,-1146.79 277.59,-1149.1"/>
<polygon fill="#63b8ff" stroke="#63b8ff" points="378.77,-880.18 375.26,-870.19 371.77,-880.2 378.77,-880.18"/>
</a>
</g>
</g>
<!-- Node81 -->
<g id="Node000081" class="node">
<title>Node81</title>
<g id="a_Node000081"><a xlink:href="classMarkovOdeSolver.html#a3b0385e0b20fb573b021f8f531b4f2a6" target="_top" xlink:title=" ">
<polygon fill="white" stroke="#666666" points="287.5,-1131 137.5,-1131 137.5,-1112 287.5,-1112 287.5,-1131"/>
<text text-anchor="middle" x="212.5" y="-1119" font-family="Ubuntu Mono" font-size="10.00">MarkovOdeSolver::initCinfo</text>
</a>
</g>
</g>
<!-- Node2&#45;&gt;Node81 -->
<g id="edge18_Node000002_Node000081" class="edge">
<title>Node2&#45;&gt;Node81</title>
<g id="a_edge18_Node000002_Node000081"><a xlink:title=" ">
<path fill="none" stroke="#63b8ff" d="M374.2,-880.39C371.22,-926.85 357.08,-1043.15 290,-1103.5 286.25,-1106.88 281.98,-1109.65 277.43,-1111.93"/>
<polygon fill="#63b8ff" stroke="#63b8ff" points="377.71,-880.33 374.75,-870.16 370.72,-879.96 377.71,-880.33"/>
</a>
</g>
</g>
<!-- Node82 -->
<g id="Node000082" class="node">
<title>Node82</title>
<g id="a_Node000082"><a xlink:href="classMarkovRateTable.html#a7e422541cbc6ac60e53e3aa057f69ff5" target="_top" xlink:title=" ">
<polygon fill="white" stroke="#666666" points="286.5,-1094 138.5,-1094 138.5,-1075 286.5,-1075 286.5,-1094"/>
<text text-anchor="middle" x="212.5" y="-1082" font-family="Ubuntu Mono" font-size="10.00">MarkovRateTable::initCinfo</text>
</a>
</g>
</g>
<!-- Node2&#45;&gt;Node82 -->
<g id="edge19_Node000002_Node000082" class="edge">
<title>Node2&#45;&gt;Node82</title>
<g id="a_edge19_Node000002_Node000082"><a xlink:title=" ">
<path fill="none" stroke="#63b8ff" d="M372.82,-880.13C367.17,-921.31 348.16,-1016.98 290,-1066.5 286.05,-1069.86 281.59,-1072.62 276.86,-1074.88"/>
<polygon fill="#63b8ff" stroke="#63b8ff" points="376.32,-880.41 374.08,-870.05 369.37,-879.54 376.32,-880.41"/>
</a>
</g>
</g>
<!-- Node83 -->
<g id="Node000083" class="node">
<title>Node83</title>
<g id="a_Node000083"><a xlink:href="classMarkovSolverBase.html#a8d94098ef919eb390369a92c6d551500" target="_top" xlink:title=" ">
<polygon fill="#fff0f0" stroke="red" points="290,-1057 135,-1057 135,-1038 290,-1038 290,-1057"/>
<text text-anchor="middle" x="212.5" y="-1045" font-family="Ubuntu Mono" font-size="10.00">MarkovSolverBase::initCinfo</text>
</a>
</g>
</g>
<!-- Node2&#45;&gt;Node83 -->
<g id="edge20_Node000002_Node000083" class="edge">
<title>Node2&#45;&gt;Node83</title>
<g id="a_edge20_Node000002_Node000083"><a xlink:title=" ">
<path fill="none" stroke="#63b8ff" d="M370.79,-880.48C362.18,-916.17 339.09,-990.77 290,-1029.5 285.72,-1032.88 280.9,-1035.64 275.83,-1037.9"/>
<polygon fill="#63b8ff" stroke="#63b8ff" points="374.28,-880.88 373.09,-870.35 367.46,-879.33 374.28,-880.88"/>
</a>
</g>
</g>
<!-- Node85 -->
<g id="Node000085" class="node">
<title>Node85</title>
<g id="a_Node000085"><a xlink:href="classMMPump.html#a60640ebc43838dbb5e18d5bdeb789525" target="_top" xlink:title=" ">
<polygon fill="white" stroke="#666666" points="267.5,-1020 157.5,-1020 157.5,-1001 267.5,-1001 267.5,-1020"/>
<text text-anchor="middle" x="212.5" y="-1008" font-family="Ubuntu Mono" font-size="10.00">MMPump::initCinfo</text>
</a>
</g>
</g>
<!-- Node2&#45;&gt;Node85 -->
<g id="edge21_Node000002_Node000085" class="edge">
<title>Node2&#45;&gt;Node85</title>
<g id="a_edge21_Node000002_Node000085"><a xlink:title=" ">
<path fill="none" stroke="#63b8ff" d="M368.07,-879.76C356.55,-908.89 330.65,-963.79 290,-992.5 283.31,-997.22 275.56,-1000.72 267.6,-1003.31"/>
<polygon fill="#63b8ff" stroke="#63b8ff" points="371.38,-880.88 371.66,-870.29 364.84,-878.4 371.38,-880.88"/>
</a>
</g>
</g>
<!-- Node86 -->
<g id="Node000086" class="node">
<title>Node86</title>
<g id="a_Node000086"><a xlink:href="classNernst.html#a360db3aa204205d217cae8c2cf616230" target="_top" xlink:title=" ">
<polygon fill="white" stroke="#666666" points="260.5,-983 164.5,-983 164.5,-964 260.5,-964 260.5,-983"/>
<text text-anchor="middle" x="212.5" y="-971" font-family="Ubuntu Mono" font-size="10.00">Nernst::initCinfo</text>
</a>
</g>
</g>
<!-- Node2&#45;&gt;Node86 -->
<g id="edge22_Node000002_Node000086" class="edge">
<title>Node2&#45;&gt;Node86</title>
<g id="a_edge22_Node000002_Node000086"><a xlink:title=" ">
<path fill="none" stroke="#63b8ff" d="M362.41,-878.33C347.36,-898.39 320.37,-930.62 290,-949.5 280.07,-955.67 268.42,-960.38 257.25,-963.92"/>
<polygon fill="#63b8ff" stroke="#63b8ff" points="365.38,-880.2 368.45,-870.06 359.73,-876.07 365.38,-880.2"/>
</a>
</g>
</g>
<!-- Node87 -->
<g id="Node000087" class="node">
<title>Node87</title>
<g id="a_Node000087"><a xlink:href="classNeuron.html#a81197d09a302f2420430fe3f7874926f" target="_top" xlink:title=" ">
<polygon fill="white" stroke="#666666" points="99,-889 0,-889 0,-870 99,-870 99,-889"/>
<text text-anchor="middle" x="49.5" y="-877" font-family="Ubuntu Mono" font-size="10.00">Neuron::initCinfo</text>
</a>
</g>
</g>
<!-- Node2&#45;&gt;Node87 -->
<g id="edge23_Node000002_Node000087" class="edge">
<title>Node2&#45;&gt;Node87</title>
<g id="a_edge23_Node000002_Node000087"><a xlink:title=" ">
<path fill="none" stroke="#63b8ff" d="M357.19,-876.78C341.01,-890.39 315.8,-908.76 290,-916.5 224.01,-936.28 202.43,-930.62 135,-916.5 110.08,-911.28 83.52,-898.27 66.97,-889.16"/>
<polygon fill="#63b8ff" stroke="#63b8ff" points="359.53,-879.39 364.78,-870.19 354.94,-874.1 359.53,-879.39"/>
</a>
</g>
</g>
<!-- Node88 -->
<g id="Node000088" class="node">
<title>Node88</title>
<g id="a_Node000088"><a xlink:href="classRandSpike.html#a6b550daabbee559c528a858043586682" target="_top" xlink:title=" ">
<polygon fill="white" stroke="#666666" points="270,-907 155,-907 155,-888 270,-888 270,-907"/>
<text text-anchor="middle" x="212.5" y="-895" font-family="Ubuntu Mono" font-size="10.00">RandSpike::initCinfo</text>
</a>
</g>
</g>
<!-- Node2&#45;&gt;Node88 -->
<g id="edge24_Node000002_Node000088" class="edge">
<title>Node2&#45;&gt;Node88</title>
<g id="a_edge24_Node000002_Node000088"><a xlink:title=" ">
<path fill="none" stroke="#63b8ff" d="M323.55,-872.29C301.5,-877.34 276.08,-883.16 255.23,-887.94"/>
<polygon fill="#63b8ff" stroke="#63b8ff" points="324.44,-875.67 333.41,-870.03 322.88,-868.85 324.44,-875.67"/>
</a>
</g>
</g>
<!-- Node89 -->
<g id="Node000089" class="node">
<title>Node89</title>
<g id="a_Node000089"><a xlink:href="classSpikeGen.html#a9f98de819ab1bfaa103dcdb069ac94a3" target="_top" xlink:title=" ">
<polygon fill="#fff0f0" stroke="red" points="267.5,-870 157.5,-870 157.5,-851 267.5,-851 267.5,-870"/>
<text text-anchor="middle" x="212.5" y="-858" font-family="Ubuntu Mono" font-size="10.00">SpikeGen::initCinfo</text>
</a>
</g>
</g>
<!-- Node2&#45;&gt;Node89 -->
<g id="edge25_Node000002_Node000089" class="edge">
<title>Node2&#45;&gt;Node89</title>
<g id="a_edge25_Node000002_Node000089"><a xlink:title=" ">
<path fill="none" stroke="#63b8ff" d="M315.54,-860.5C299.85,-860.5 282.99,-860.5 267.59,-860.5"/>
<polygon fill="#63b8ff" stroke="#63b8ff" points="315.67,-864 325.67,-860.5 315.67,-857 315.67,-864"/>
</a>
</g>
</g>
<!-- Node92 -->
<g id="Node000092" class="node">
<title>Node92</title>
<g id="a_Node000092"><a xlink:href="classSpine.html#aae168e965b5f08a1c29f94ba4c6ccda8" target="_top" xlink:title=" ">
<polygon fill="white" stroke="#666666" points="258,-833 167,-833 167,-814 258,-814 258,-833"/>
<text text-anchor="middle" x="212.5" y="-821" font-family="Ubuntu Mono" font-size="10.00">Spine::initCinfo</text>
</a>
</g>
</g>
<!-- Node2&#45;&gt;Node92 -->
<g id="edge26_Node000002_Node000092" class="edge">
<title>Node2&#45;&gt;Node92</title>
<g id="a_edge26_Node000002_Node000092"><a xlink:title=" ">
<path fill="none" stroke="#63b8ff" d="M323.55,-848.71C301.5,-843.66 276.08,-837.84 255.23,-833.06"/>
<polygon fill="#63b8ff" stroke="#63b8ff" points="322.88,-852.15 333.41,-850.97 324.44,-845.33 322.88,-852.15"/>
</a>
</g>
</g>
<!-- Node93 -->
<g id="Node000093" class="node">
<title>Node93</title>
<g id="a_Node000093"><a xlink:href="classmoose_1_1VClamp.html#ac4c94c922d17f1558845c6a773cba62f" target="_top" xlink:title=" ">
<polygon fill="white" stroke="#666666" points="283,-796 142,-796 142,-777 283,-777 283,-796"/>
<text text-anchor="middle" x="212.5" y="-784" font-family="Ubuntu Mono" font-size="10.00">moose::VClamp::initCinfo</text>
</a>
</g>
</g>
<!-- Node2&#45;&gt;Node93 -->
<g id="edge28_Node000002_Node000093" class="edge">
<title>Node2&#45;&gt;Node93</title>
<g id="a_edge28_Node000002_Node000093"><a xlink:title=" ">
<path fill="none" stroke="#63b8ff" d="M333.28,-846.69C330.76,-845.39 328.31,-844 326,-842.5 306.75,-830.01 309.9,-816.93 290,-805.5 283.24,-801.62 275.69,-798.52 268.05,-796.05"/>
<polygon fill="#63b8ff" stroke="#63b8ff" points="332.09,-849.99 342.64,-850.96 335,-843.62 332.09,-849.99"/>
</a>
</g>
</g>
<!-- Node94 -->
<g id="Node000094" class="node">
<title>Node94</title>
<g id="a_Node000094"><a xlink:href="classVectorTable.html#a145104ca3f2c51b12331ef0169e323b1" target="_top" xlink:title=" ">
<polygon fill="white" stroke="#666666" points="272.5,-759 152.5,-759 152.5,-740 272.5,-740 272.5,-759"/>
<text text-anchor="middle" x="212.5" y="-747" font-family="Ubuntu Mono" font-size="10.00">VectorTable::initCinfo</text>
</a>
</g>
</g>
<!-- Node2&#45;&gt;Node94 -->
<g id="edge29_Node000002_Node000094" class="edge">
<title>Node2&#45;&gt;Node94</title>
<g id="a_edge29_Node000002_Node000094"><a xlink:title=" ">
<path fill="none" stroke="#63b8ff" d="M330.11,-845.79C328.67,-844.77 327.29,-843.67 326,-842.5 298.87,-817.97 318.42,-791.52 290,-768.5 284.9,-764.37 279.02,-761.11 272.83,-758.56"/>
<polygon fill="#63b8ff" stroke="#63b8ff" points="328.5,-848.91 338.9,-850.94 332.04,-842.87 328.5,-848.91"/>
</a>
</g>
</g>
<!-- Node95 -->
<g id="Node000095" class="node">
<title>Node95</title>
<g id="a_Node000095"><a xlink:href="classArith.html#ace57997662b947e376df821b870dc98b" target="_top" xlink:title=" ">
<polygon fill="#fff0f0" stroke="red" points="256,-722 169,-722 169,-703 256,-703 256,-722"/>
<text text-anchor="middle" x="212.5" y="-710" font-family="Ubuntu Mono" font-size="10.00">Arith::initCinfo</text>
</a>
</g>
</g>
<!-- Node2&#45;&gt;Node95 -->
<g id="edge30_Node000002_Node000095" class="edge">
<title>Node2&#45;&gt;Node95</title>
<g id="a_edge30_Node000002_Node000095"><a xlink:title=" ">
<path fill="none" stroke="#63b8ff" d="M328.91,-845.22C327.89,-844.36 326.92,-843.46 326,-842.5 290.04,-805.13 327.94,-766.86 290,-731.5 280.79,-722.92 268.32,-718.05 256.12,-715.33"/>
<polygon fill="#63b8ff" stroke="#63b8ff" points="327.2,-848.28 337.47,-850.9 331.07,-842.45 327.2,-848.28"/>
</a>
</g>
</g>
<!-- Node110 -->
<g id="Node000110" class="node">
<title>Node110</title>
<g id="a_Node000110"><a xlink:href="classGroup.html#aab691fda2786484042522afdad56c2cb" target="_top" xlink:title=" ">
<polygon fill="white" stroke="#666666" points="259,-685 166,-685 166,-666 259,-666 259,-685"/>
<text text-anchor="middle" x="212.5" y="-673" font-family="Ubuntu Mono" font-size="10.00">Group::initCinfo</text>
</a>
</g>
</g>
<!-- Node2&#45;&gt;Node110 -->
<g id="edge31_Node000002_Node000110" class="edge">
<title>Node2&#45;&gt;Node110</title>
<g id="a_edge31_Node000002_Node000110"><a xlink:title=" ">
<path fill="none" stroke="#63b8ff" d="M328.39,-844.92C327.55,-844.15 326.75,-843.35 326,-842.5 280.92,-792 337.75,-742.48 290,-694.5 281.79,-686.26 270.6,-681.39 259.32,-678.57"/>
<polygon fill="#63b8ff" stroke="#63b8ff" points="326.56,-847.92 336.74,-850.86 330.62,-842.21 326.56,-847.92"/>
</a>
</g>
</g>
<!-- Node111 -->
<g id="Node000111" class="node">
<title>Node111</title>
<g id="a_Node000111"><a xlink:href="classInterpol2D.html#a4b9c9fad0a71a377f98959de440a4544" target="_top" xlink:title=" ">
<polygon fill="white" stroke="#666666" points="270,-648 155,-648 155,-629 270,-629 270,-648"/>
<text text-anchor="middle" x="212.5" y="-636" font-family="Ubuntu Mono" font-size="10.00">Interpol2D::initCinfo</text>
</a>
</g>
</g>
<!-- Node2&#45;&gt;Node111 -->
<g id="edge32_Node000002_Node000111" class="edge">
<title>Node2&#45;&gt;Node111</title>
<g id="a_edge32_Node000002_Node000111"><a xlink:title=" ">
<path fill="none" stroke="#63b8ff" d="M328.33,-844.97C327.51,-844.18 326.73,-843.36 326,-842.5 271.69,-778.73 347.69,-718.23 290,-657.5 284.53,-651.75 277.62,-647.62 270.19,-644.69"/>
<polygon fill="#63b8ff" stroke="#63b8ff" points="326.45,-847.92 336.58,-850.99 330.57,-842.27 326.45,-847.92"/>
</a>
</g>
</g>
<!-- Node112 -->
<g id="Node000112" class="node">
<title>Node112</title>
<g id="a_Node000112"><a xlink:href="classMstring.html#a2d00c378701132a701bd97d47ac4af32" target="_top" xlink:title=" ">
<polygon fill="white" stroke="#666666" points="263,-611 162,-611 162,-592 263,-592 263,-611"/>
<text text-anchor="middle" x="212.5" y="-599" font-family="Ubuntu Mono" font-size="10.00">Mstring::initCinfo</text>
</a>
</g>
</g>
<!-- Node2&#45;&gt;Node112 -->
<g id="edge33_Node000002_Node000112" class="edge">
<title>Node2&#45;&gt;Node112</title>
<g id="a_edge33_Node000002_Node000112"><a xlink:title=" ">
<path fill="none" stroke="#63b8ff" d="M327.91,-844.61C327.24,-843.94 326.61,-843.23 326,-842.5 262.39,-765.39 357.7,-694.04 290,-620.5 282.96,-612.85 273.35,-608.07 263.33,-605.12"/>
<polygon fill="#63b8ff" stroke="#63b8ff" points="325.94,-847.51 336,-850.81 330.19,-841.95 325.94,-847.51"/>
</a>
</g>
</g>
<!-- Node113 -->
<g id="Node000113" class="node">
<title>Node113</title>
<g id="a_Node000113"><a xlink:href="classStats.html#a00b3f78dc12c1816ffe82dacef022bd2" target="_top" xlink:title=" ">
<polygon fill="#fff0f0" stroke="red" points="257,-574 168,-574 168,-555 257,-555 257,-574"/>
<text text-anchor="middle" x="212.5" y="-562" font-family="Ubuntu Mono" font-size="10.00">Stats::initCinfo</text>
</a>
</g>
</g>
<!-- Node2&#45;&gt;Node113 -->
<g id="edge34_Node000002_Node000113" class="edge">
<title>Node2&#45;&gt;Node113</title>
<g id="a_edge34_Node000002_Node000113"><a xlink:title=" ">
<path fill="none" stroke="#63b8ff" d="M327.89,-844.63C327.23,-843.95 326.6,-843.24 326,-842.5 253.06,-752.02 367.74,-669.89 290,-583.5 281.58,-574.14 269.33,-569.06 257.09,-566.38"/>
<polygon fill="#63b8ff" stroke="#63b8ff" points="325.88,-847.51 335.93,-850.87 330.17,-841.97 325.88,-847.51"/>
</a>
</g>
</g>
<!-- Node115 -->
<g id="Node000115" class="node">
<title>Node115</title>
<g id="a_Node000115"><a xlink:href="classTableBase.html#a743b983e93984115449360b4def6a17c" target="_top" xlink:title=" ">
<polygon fill="#fff0f0" stroke="red" points="269,-537 156,-537 156,-518 269,-518 269,-537"/>
<text text-anchor="middle" x="212.5" y="-525" font-family="Ubuntu Mono" font-size="10.00">TableBase::initCinfo</text>
</a>
</g>
</g>
<!-- Node2&#45;&gt;Node115 -->
<g id="edge35_Node000002_Node000115" class="edge">
<title>Node2&#45;&gt;Node115</title>
<g id="a_edge35_Node000002_Node000115"><a xlink:title=" ">
<path fill="none" stroke="#63b8ff" d="M327.87,-844.65C327.22,-843.96 326.59,-843.25 326,-842.5 243.72,-738.61 377.8,-645.77 290,-546.5 284.38,-540.14 276.99,-535.75 269.03,-532.75"/>
<polygon fill="#63b8ff" stroke="#63b8ff" points="325.84,-847.5 335.87,-850.91 330.16,-841.99 325.84,-847.5"/>
</a>
</g>
</g>
<!-- Node122 -->
<g id="Node000122" class="node">
<title>Node122</title>
<g id="a_Node000122"><a xlink:href="classVariable.html#a545d7ff46c8622e472fa07fa6aa8c004" target="_top" xlink:title=" ">
<polygon fill="#fff0f0" stroke="red" points="264.5,-500 160.5,-500 160.5,-481 264.5,-481 264.5,-500"/>
<text text-anchor="middle" x="212.5" y="-488" font-family="Ubuntu Mono" font-size="10.00">Variable::initCinfo</text>
</a>
</g>
</g>
<!-- Node2&#45;&gt;Node122 -->
<g id="edge36_Node000002_Node000122" class="edge">
<title>Node2&#45;&gt;Node122</title>
<g id="a_edge36_Node000002_Node000122"><a xlink:title=" ">
<path fill="none" stroke="#63b8ff" d="M327.86,-844.66C327.21,-843.97 326.59,-843.25 326,-842.5 234.35,-725.19 387.88,-621.66 290,-509.5 283.43,-501.97 274.39,-497.19 264.82,-494.21"/>
<polygon fill="#63b8ff" stroke="#63b8ff" points="325.81,-847.5 335.83,-850.95 330.15,-842.01 325.81,-847.5"/>
</a>
</g>
</g>
<!-- Node124 -->
<g id="Node000124" class="node">
<title>Node124</title>
<g id="a_Node000124"><a xlink:href="classDiffAmp.html#a099293e21f31d8af1daad6b88e2365cc" target="_top" xlink:title=" ">
<polygon fill="white" stroke="#666666" points="264.5,-463 160.5,-463 160.5,-444 264.5,-444 264.5,-463"/>
<text text-anchor="middle" x="212.5" y="-451" font-family="Ubuntu Mono" font-size="10.00">DiffAmp::initCinfo</text>
</a>
</g>
</g>
<!-- Node2&#45;&gt;Node124 -->
<g id="edge37_Node000002_Node000124" class="edge">
<title>Node2&#45;&gt;Node124</title>
<g id="a_edge37_Node000002_Node000124"><a xlink:title=" ">
<path fill="none" stroke="#63b8ff" d="M327.85,-844.67C327.2,-843.97 326.58,-843.25 326,-842.5 275.49,-777.13 343.98,-535.03 290,-472.5 283.47,-464.94 274.45,-460.14 264.88,-457.15"/>
<polygon fill="#63b8ff" stroke="#63b8ff" points="325.78,-847.5 335.79,-850.98 330.14,-842.02 325.78,-847.5"/>
</a>
</g>
</g>
<!-- Node125 -->
<g id="Node000125" class="node">
<title>Node125</title>
<g id="a_Node000125"><a xlink:href="classPIDController.html#a100e03c6e519a77c9684149dce4f4cfe" target="_top" xlink:title=" ">
<polygon fill="white" stroke="#666666" points="276.5,-426 148.5,-426 148.5,-407 276.5,-407 276.5,-426"/>
<text text-anchor="middle" x="212.5" y="-414" font-family="Ubuntu Mono" font-size="10.00">PIDController::initCinfo</text>
</a>
</g>
</g>
<!-- Node2&#45;&gt;Node125 -->
<g id="edge38_Node000002_Node000125" class="edge">
<title>Node2&#45;&gt;Node125</title>
<g id="a_edge38_Node000002_Node000125"><a xlink:title=" ">
<path fill="none" stroke="#63b8ff" d="M327.49,-844.3C326.97,-843.72 326.48,-843.12 326,-842.5 270.8,-770.41 349.03,-504.49 290,-435.5 286.26,-431.13 281.69,-427.69 276.66,-424.98"/>
<polygon fill="#63b8ff" stroke="#63b8ff" points="325.35,-847.07 335.29,-850.72 329.8,-841.66 325.35,-847.07"/>
</a>
</g>
</g>
<!-- Node126 -->
<g id="Node000126" class="node">
<title>Node126</title>
<g id="a_Node000126"><a xlink:href="classPulseGen.html#a530cf5676b9787486826b5fa29e5b3b6" target="_top" xlink:title=" ">
<polygon fill="white" stroke="#666666" points="267.5,-389 157.5,-389 157.5,-370 267.5,-370 267.5,-389"/>
<text text-anchor="middle" x="212.5" y="-377" font-family="Ubuntu Mono" font-size="10.00">PulseGen::initCinfo</text>
</a>
</g>
</g>
<!-- Node2&#45;&gt;Node126 -->
<g id="edge39_Node000002_Node000126" class="edge">
<title>Node2&#45;&gt;Node126</title>
<g id="a_edge39_Node000002_Node000126"><a xlink:title=" ">
<path fill="none" stroke="#63b8ff" d="M327.49,-844.3C326.97,-843.72 326.47,-843.12 326,-842.5 266.11,-763.68 354.08,-473.95 290,-398.5 284.15,-391.62 276.24,-387.02 267.71,-383.99"/>
<polygon fill="#63b8ff" stroke="#63b8ff" points="325.33,-847.06 335.27,-850.74 329.79,-841.67 325.33,-847.06"/>
</a>
</g>
</g>
<!-- Node127 -->
<g id="Node000127" class="node">
<title>Node127</title>
<g id="a_Node000127"><a xlink:href="classRC.html#a27612543091637ec38eee1c504abbd7e" target="_top" xlink:title=" ">
<polygon fill="white" stroke="#666666" points="251,-352 174,-352 174,-333 251,-333 251,-352"/>
<text text-anchor="middle" x="212.5" y="-340" font-family="Ubuntu Mono" font-size="10.00">RC::initCinfo</text>
</a>
</g>
</g>
<!-- Node2&#45;&gt;Node127 -->
<g id="edge40_Node000002_Node000127" class="edge">
<title>Node2&#45;&gt;Node127</title>
<g id="a_edge40_Node000002_Node000127"><a xlink:title=" ">
<path fill="none" stroke="#63b8ff" d="M327.48,-844.31C326.97,-843.73 326.47,-843.12 326,-842.5 261.41,-756.96 359.14,-443.41 290,-361.5 280.47,-350.21 265.36,-345.06 251.08,-342.88"/>
<polygon fill="#63b8ff" stroke="#63b8ff" points="325.32,-847.06 335.25,-850.75 329.79,-841.67 325.32,-847.06"/>
</a>
</g>
</g>
<!-- Node128 -->
<g id="Node000128" class="node">
<title>Node128</title>
<g id="a_Node000128"><a xlink:href="classDsolve.html#a1fabab69cd07bb1806eb0ce6c2dcb836" target="_top" xlink:title=" ">
<polygon fill="white" stroke="#666666" points="261.5,-315 163.5,-315 163.5,-296 261.5,-296 261.5,-315"/>
<text text-anchor="middle" x="212.5" y="-303" font-family="Ubuntu Mono" font-size="10.00">Dsolve::initCinfo</text>
</a>
</g>
</g>
<!-- Node2&#45;&gt;Node128 -->
<g id="edge41_Node000002_Node000128" class="edge">
<title>Node2&#45;&gt;Node128</title>
<g id="a_edge41_Node000002_Node000128"><a xlink:title=" ">
<path fill="none" stroke="#63b8ff" d="M327.48,-844.31C326.96,-843.73 326.47,-843.13 326,-842.5 256.71,-750.23 364.19,-412.88 290,-324.5 282.87,-316.01 272.6,-310.99 261.88,-308.1"/>
<polygon fill="#63b8ff" stroke="#63b8ff" points="325.31,-847.06 335.23,-850.76 329.78,-841.68 325.31,-847.06"/>
</a>
</g>
</g>
<!-- Node22 -->
<g id="Node000022" class="node">
<title>Node22</title>
<g id="a_Node000022"><a xlink:href="classCell.html#a0b9e9376e5b4462c74e7c785e00745d1" target="_top" xlink:title=" ">
<polygon fill="white" stroke="#666666" points="254,-278 171,-278 171,-259 254,-259 254,-278"/>
<text text-anchor="middle" x="212.5" y="-266" font-family="Ubuntu Mono" font-size="10.00">Cell::initCinfo</text>
</a>
</g>
</g>
<!-- Node2&#45;&gt;Node22 -->
<g id="edge42_Node000002_Node000022" class="edge">
<title>Node2&#45;&gt;Node22</title>
<g id="a_edge42_Node000002_Node000022"><a xlink:title=" ">
<path fill="none" stroke="#63b8ff" d="M327.47,-844.31C326.96,-843.73 326.47,-843.13 326,-842.5 252.02,-743.5 369.25,-382.34 290,-287.5 281.23,-277 267.63,-271.8 254.33,-269.37"/>
<polygon fill="#63b8ff" stroke="#63b8ff" points="325.3,-847.05 335.22,-850.78 329.78,-841.68 325.3,-847.05"/>
</a>
</g>
</g>
<!-- Node35 -->
<g id="Node000035" class="node">
<title>Node35</title>
<g id="a_Node000035"><a xlink:href="classHSolve.html#a3d60964bbc6441f73c04fe702faba848" target="_top" xlink:title="Interface to external channels.">
<polygon fill="white" stroke="#666666" points="261.5,-241 163.5,-241 163.5,-222 261.5,-222 261.5,-241"/>
<text text-anchor="middle" x="212.5" y="-229" font-family="Ubuntu Mono" font-size="10.00">HSolve::initCinfo</text>
</a>
</g>
</g>
<!-- Node2&#45;&gt;Node35 -->
<g id="edge43_Node000002_Node000035" class="edge">
<title>Node2&#45;&gt;Node35</title>
<g id="a_edge43_Node000002_Node000035"><a xlink:title=" ">
<path fill="none" stroke="#63b8ff" d="M327.47,-844.32C326.96,-843.73 326.47,-843.13 326,-842.5 247.32,-736.76 374.31,-351.81 290,-250.5 282.82,-241.87 272.39,-236.83 261.53,-233.95"/>
<polygon fill="#63b8ff" stroke="#63b8ff" points="325.29,-847.05 335.2,-850.79 329.78,-841.68 325.29,-847.05"/>
</a>
</g>
</g>
<!-- Node129 -->
<g id="Node000129" class="node">
<title>Node129</title>
<g id="a_Node000129"><a xlink:href="classConcChan.html#a19f04a08f58e5f8d1423ed6969fee13b" target="_top" xlink:title=" ">
<polygon fill="white" stroke="#666666" points="269,-204 156,-204 156,-185 269,-185 269,-204"/>
<text text-anchor="middle" x="212.5" y="-192" font-family="Ubuntu Mono" font-size="10.00">ConcChan::initCinfo</text>
</a>
</g>
</g>
<!-- Node2&#45;&gt;Node129 -->
<g id="edge44_Node000002_Node000129" class="edge">
<title>Node2&#45;&gt;Node129</title>
<g id="a_edge44_Node000002_Node000129"><a xlink:title=" ">
<path fill="none" stroke="#63b8ff" d="M327.47,-844.32C326.96,-843.73 326.47,-843.13 326,-842.5 242.62,-730.03 379.36,-321.28 290,-213.5 284.58,-206.97 277.3,-202.49 269.38,-199.44"/>
<polygon fill="#63b8ff" stroke="#63b8ff" points="325.28,-847.05 335.19,-850.8 329.78,-841.69 325.28,-847.05"/>
</a>
</g>
</g>
<!-- Node130 -->
<g id="Node000130" class="node">
<title>Node130</title>
<g id="a_Node000130"><a xlink:href="classEnzBase.html#af1fc2c11b195775a43ddc1f630029a14" target="_top" xlink:title=" ">
<polygon fill="#fff0f0" stroke="red" points="265,-167 160,-167 160,-148 265,-148 265,-167"/>
<text text-anchor="middle" x="212.5" y="-155" font-family="Ubuntu Mono" font-size="10.00">EnzBase::initCinfo</text>
</a>
</g>
</g>
<!-- Node2&#45;&gt;Node130 -->
<g id="edge45_Node000002_Node000130" class="edge">
<title>Node2&#45;&gt;Node130</title>
<g id="a_edge45_Node000002_Node000130"><a xlink:title=" ">
<path fill="none" stroke="#63b8ff" d="M327.46,-844.32C326.95,-843.74 326.46,-843.13 326,-842.5 237.92,-723.3 384.42,-290.75 290,-176.5 283.64,-168.8 274.68,-163.95 265.13,-160.94"/>
<polygon fill="#63b8ff" stroke="#63b8ff" points="325.27,-847.05 335.18,-850.8 329.77,-841.69 325.27,-847.05"/>
</a>
</g>
</g>
<!-- Node136 -->
<g id="Node000136" class="node">
<title>Node136</title>
<g id="a_Node000136"><a xlink:href="classReac.html#aab2f9c8fbeaf29950b58cad7950e2a51" target="_top" xlink:title=" ">
<polygon fill="#fff0f0" stroke="red" points="256.5,-130 168.5,-130 168.5,-111 256.5,-111 256.5,-130"/>
<text text-anchor="middle" x="212.5" y="-118" font-family="Ubuntu Mono" font-size="10.00">Reac::initCinfo</text>
</a>
</g>
</g>
<!-- Node2&#45;&gt;Node136 -->
<g id="edge46_Node000002_Node000136" class="edge">
<title>Node2&#45;&gt;Node136</title>
<g id="a_edge46_Node000002_Node000136"><a xlink:title=" ">
<path fill="none" stroke="#63b8ff" d="M327.46,-844.32C326.95,-843.74 326.46,-843.13 326,-842.5 233.22,-716.56 389.48,-260.22 290,-139.5 281.82,-129.57 269.33,-124.37 256.8,-121.77"/>
<polygon fill="#63b8ff" stroke="#63b8ff" points="325.26,-847.05 335.17,-850.81 329.77,-841.69 325.26,-847.05"/>
</a>
</g>
</g>
<!-- Node143 -->
<g id="Node000143" class="node">
<title>Node143</title>
<g id="a_Node000143"><a xlink:href="classSpecies.html#a6d6f2e03ce6af3d1b155df568aef3301" target="_top" xlink:title=" ">
<polygon fill="white" stroke="#666666" points="263,-93 162,-93 162,-74 263,-74 263,-93"/>
<text text-anchor="middle" x="212.5" y="-81" font-family="Ubuntu Mono" font-size="10.00">Species::initCinfo</text>
</a>
</g>
</g>
<!-- Node2&#45;&gt;Node143 -->
<g id="edge47_Node000002_Node000143" class="edge">
<title>Node2&#45;&gt;Node143</title>
<g id="a_edge47_Node000002_Node000143"><a xlink:title=" ">
<path fill="none" stroke="#63b8ff" d="M327.46,-844.32C326.95,-843.74 326.46,-843.13 326,-842.5 277.26,-776.16 342.27,-166.09 290,-102.5 283.22,-94.25 273.47,-89.27 263.19,-86.32"/>
<polygon fill="#63b8ff" stroke="#63b8ff" points="325.26,-847.05 335.16,-850.82 329.77,-841.7 325.26,-847.05"/>
</a>
</g>
</g>
<!-- Node144 -->
<g id="Node000144" class="node">
<title>Node144</title>
<g id="a_Node000144"><a xlink:href="classGsolve.html#a957882fd0d9709d0bf6b8baf869330c5" target="_top" xlink:title=" ">
<polygon fill="white" stroke="#666666" points="261.5,-56 163.5,-56 163.5,-37 261.5,-37 261.5,-56"/>
<text text-anchor="middle" x="212.5" y="-44" font-family="Ubuntu Mono" font-size="10.00">Gsolve::initCinfo</text>
</a>
</g>
</g>
<!-- Node2&#45;&gt;Node144 -->
<g id="edge48_Node000002_Node000144" class="edge">
<title>Node2&#45;&gt;Node144</title>
<g id="a_edge48_Node000002_Node000144"><a xlink:title=" ">
<path fill="none" stroke="#63b8ff" d="M327.46,-844.33C326.95,-843.74 326.46,-843.13 326,-842.5 274.91,-772.79 344.8,-132.33 290,-65.5 282.88,-56.82 272.48,-51.76 261.62,-48.87"/>
<polygon fill="#63b8ff" stroke="#63b8ff" points="325.25,-847.05 335.15,-850.82 329.77,-841.7 325.25,-847.05"/>
</a>
</g>
</g>
<!-- Node145 -->
<g id="Node000145" class="node">
<title>Node145</title>
<g id="a_Node000145"><a xlink:href="classKsolve.html#a55f3a588c1ed27ffd822d7fe7744be32" target="_top" xlink:title=" ">
<polygon fill="white" stroke="#666666" points="261,-19 164,-19 164,0 261,0 261,-19"/>
<text text-anchor="middle" x="212.5" y="-7" font-family="Ubuntu Mono" font-size="10.00">Ksolve::initCinfo</text>
</a>
</g>
</g>
<!-- Node2&#45;&gt;Node145 -->
<g id="edge49_Node000002_Node000145" class="edge">
<title>Node2&#45;&gt;Node145</title>
<g id="a_edge49_Node000002_Node000145"><a xlink:title=" ">
<path fill="none" stroke="#63b8ff" d="M327.46,-844.33C326.95,-843.74 326.46,-843.13 326,-842.5 272.56,-769.43 347.33,-98.57 290,-28.5 282.81,-19.71 272.24,-14.62 261.24,-11.76"/>
<polygon fill="#63b8ff" stroke="#63b8ff" points="325.25,-847.05 335.15,-850.83 329.77,-841.7 325.25,-847.05"/>
</a>
</g>
</g>
<!-- Node92&#45;&gt;Node87 -->
<g id="edge27_Node000092_Node000087" class="edge">
<title>Node92&#45;&gt;Node87</title>
<g id="a_edge27_Node000092_Node000087"><a xlink:title=" ">
<path fill="none" stroke="#63b8ff" d="M157.51,-835.69C149.89,-837.76 142.21,-840.05 135,-842.5 112.11,-850.29 86.82,-861.76 69.93,-869.87"/>
<polygon fill="#63b8ff" stroke="#63b8ff" points="158.65,-839.01 167.44,-833.09 156.88,-832.24 158.65,-839.01"/>
</a>
</g>
</g>
</g>
</svg>
