<?xml version="1.0" encoding="UTF-8" standalone="no"?>
<!DOCTYPE svg PUBLIC "-//W3C//DTD SVG 1.1//EN"
 "http://www.w3.org/Graphics/SVG/1.1/DTD/svg11.dtd">
<!-- Generated by graphviz version 2.43.0 (0)
 -->
<!-- Title: FieldElement::numField Pages: 1 -->
<svg width="524pt" height="38pt"
 viewBox="0.00 0.00 524.00 38.00" xmlns="http://www.w3.org/2000/svg" xmlns:xlink="http://www.w3.org/1999/xlink">
<g id="graph0" class="graph" transform="scale(1 1) rotate(0) translate(4 34)">
<title>FieldElement::numField</title>
<!-- Node1 -->
<g id="Node000001" class="node">
<title>Node1</title>
<g id="a_Node000001"><a xlink:title="Virtual: Returns number of field entries for specified data.">
<polygon fill="#999999" stroke="#666666" points="516,-24.5 385,-24.5 385,-5.5 516,-5.5 516,-24.5"/>
<text text-anchor="middle" x="450.5" y="-12.5" font-family="Ubuntu Mono" font-size="10.00">FieldElement::numField</text>
</a>
</g>
</g>
<!-- Node2 -->
<g id="Node000002" class="node">
<title>Node2</title>
<g id="a_Node000002"><a xlink:href="classFieldElement.html#a6263b945d1ccfd607dc168697a000868" target="_top" xlink:title="Virtual: Returns number of field entries on current node.">
<polygon fill="white" stroke="#666666" points="349,-30 200,-30 200,0 349,0 349,-30"/>
<text text-anchor="start" x="208" y="-18" font-family="Ubuntu Mono" font-size="10.00">FieldElement::totNumLocal</text>
<text text-anchor="middle" x="274.5" y="-7" font-family="Ubuntu Mono" font-size="10.00">Field</text>
</a>
</g>
</g>
<!-- Node1&#45;&gt;Node2 -->
<g id="edge1_Node000001_Node000002" class="edge">
<title>Node1&#45;&gt;Node2</title>
<g id="a_edge1_Node000001_Node000002"><a xlink:title=" ">
<path fill="none" stroke="#63b8ff" d="M374.53,-15C366.11,-15 357.54,-15 349.13,-15"/>
<polygon fill="#63b8ff" stroke="#63b8ff" points="374.71,-18.5 384.71,-15 374.71,-11.5 374.71,-18.5"/>
</a>
</g>
</g>
<!-- Node3 -->
<g id="Node000003" class="node">
<title>Node3</title>
<g id="a_Node000003"><a xlink:href="classFieldElement.html#a82f39953eed8e484dc9c27317f2a5537" target="_top" xlink:title="Inherited virtual.">
<polygon fill="white" stroke="#666666" points="164,-24.5 0,-24.5 0,-5.5 164,-5.5 164,-24.5"/>
<text text-anchor="middle" x="82" y="-12.5" font-family="Ubuntu Mono" font-size="10.00">FieldElement::getNumOnNode</text>
</a>
</g>
</g>
<!-- Node2&#45;&gt;Node3 -->
<g id="edge2_Node000002_Node000003" class="edge">
<title>Node2&#45;&gt;Node3</title>
<g id="a_edge2_Node000002_Node000003"><a xlink:title=" ">
<path fill="none" stroke="#63b8ff" d="M189.58,-15C181.1,-15 172.5,-15 164.05,-15"/>
<polygon fill="#63b8ff" stroke="#63b8ff" points="189.85,-18.5 199.85,-15 189.85,-11.5 189.85,-18.5"/>
</a>
</g>
</g>
</g>
</svg>
