<?xml version="1.0" encoding="UTF-8" standalone="no"?>
<!DOCTYPE svg PUBLIC "-//W3C//DTD SVG 1.1//EN"
 "http://www.w3.org/Graphics/SVG/1.1/DTD/svg11.dtd">
<!-- Generated by graphviz version 2.43.0 (0)
 -->
<!-- Title: LookupValueFinfo::strGet Pages: 1 -->
<svg width="357pt" height="64pt"
 viewBox="0.00 0.00 357.00 64.00" xmlns="http://www.w3.org/2000/svg" xmlns:xlink="http://www.w3.org/1999/xlink">
<g id="graph0" class="graph" transform="scale(1 1) rotate(0) translate(4 60)">
<title>LookupValueFinfo::strGet</title>
<!-- Node1 -->
<g id="Node000001" class="node">
<title>Node1</title>
<g id="a_Node000001"><a xlink:title=" ">
<polygon fill="#999999" stroke="#666666" points="138,-37 0,-37 0,-18 138,-18 138,-37"/>
<text text-anchor="middle" x="69" y="-25" font-family="Ubuntu Mono" font-size="10.00">LookupValueFinfo::strGet</text>
</a>
</g>
</g>
<!-- Node2 -->
<g id="Node000002" class="node">
<title>Node2</title>
<g id="a_Node000002"><a xlink:href="classEref.html#ab305a4ab972b50443b7d35cfd516861a" target="_top" xlink:title=" ">
<polygon fill="white" stroke="#666666" points="239,-37 174,-37 174,-18 239,-18 239,-37"/>
<text text-anchor="middle" x="206.5" y="-25" font-family="Ubuntu Mono" font-size="10.00">Eref::objId</text>
</a>
</g>
</g>
<!-- Node1&#45;&gt;Node2 -->
<g id="edge1_Node000001_Node000002" class="edge">
<title>Node1&#45;&gt;Node2</title>
<g id="a_edge1_Node000001_Node000002"><a xlink:title=" ">
<path fill="none" stroke="#63b8ff" d="M138.15,-27.5C146.95,-27.5 155.75,-27.5 163.94,-27.5"/>
<polygon fill="#63b8ff" stroke="#63b8ff" points="163.95,-31 173.95,-27.5 163.95,-24 163.95,-31"/>
</a>
</g>
</g>
<!-- Node3 -->
<g id="Node000003" class="node">
<title>Node3</title>
<g id="a_Node000003"><a xlink:href="classElement.html#a934907c01faf58e21f545d53a54cfefc" target="_top" xlink:title=" ">
<polygon fill="white" stroke="#666666" points="348,-56 276,-56 276,-37 348,-37 348,-56"/>
<text text-anchor="middle" x="312" y="-44" font-family="Ubuntu Mono" font-size="10.00">Element::id</text>
</a>
</g>
</g>
<!-- Node2&#45;&gt;Node3 -->
<g id="edge2_Node000002_Node000003" class="edge">
<title>Node2&#45;&gt;Node3</title>
<g id="a_edge2_Node000002_Node000003"><a xlink:title=" ">
<path fill="none" stroke="#63b8ff" d="M239.12,-33.3C247.58,-34.86 256.9,-36.57 265.94,-38.23"/>
<polygon fill="#63b8ff" stroke="#63b8ff" points="265.5,-41.71 275.97,-40.07 266.76,-34.82 265.5,-41.71"/>
</a>
</g>
</g>
<!-- Node4 -->
<g id="Node000004" class="node">
<title>Node4</title>
<g id="a_Node000004"><a xlink:href="classObjId.html#ab6b120d314aab5abc3ea8bb7ead5ae41" target="_top" xlink:title=" ">
<polygon fill="white" stroke="#666666" points="349,-19 275,-19 275,0 349,0 349,-19"/>
<text text-anchor="middle" x="312" y="-7" font-family="Ubuntu Mono" font-size="10.00">ObjId::ObjId</text>
</a>
</g>
</g>
<!-- Node2&#45;&gt;Node4 -->
<g id="edge3_Node000002_Node000004" class="edge">
<title>Node2&#45;&gt;Node4</title>
<g id="a_edge3_Node000002_Node000004"><a xlink:title=" ">
<path fill="none" stroke="#63b8ff" d="M239.12,-22C247.23,-20.59 256.14,-19.04 264.83,-17.53"/>
<polygon fill="#63b8ff" stroke="#63b8ff" points="265.62,-20.95 274.87,-15.78 264.42,-14.05 265.62,-20.95"/>
</a>
</g>
</g>
</g>
</svg>
