<?xml version="1.0" encoding="UTF-8" standalone="no"?>
<!DOCTYPE svg PUBLIC "-//W3C//DTD SVG 1.1//EN"
 "http://www.w3.org/Graphics/SVG/1.1/DTD/svg11.dtd">
<!-- Generated by graphviz version 2.43.0 (0)
 -->
<!-- Title: ObjId::data Pages: 1 -->
<!--zoomable 1322 -->

<svg id="main" version="1.1" xmlns="http://www.w3.org/2000/svg" xmlns:xlink="http://www.w3.org/1999/xlink" xml:space="preserve" onload="init(evt)">
<style type="text/css"><![CDATA[
.node, .edge {opacity: 0.7;}
.node.selected, .edge.selected {opacity: 1;}
.edge:hover path { stroke: red; }
.edge:hover polygon { stroke: red; fill: red; }
]]></style>

<defs>
  <circle id="rim" cx="0" cy="0" r="7"/>
  <circle id="rim2" cx="0" cy="0" r="3.5"/>
  <g id="zoomPlus">
    <use xlink:href="#rim" fill="#404040"><set attributeName="fill" to="#808080" begin="zoomplus.mouseover" end="zoomplus.mouseout"/></use>
    <path d="M-4,0h8M0,-4v8" fill="none" stroke="white" stroke-width="1.5" pointer-events="none"/>
  </g>
  <g id="zoomMin">
    <use xlink:href="#rim" fill="#404040"><set attributeName="fill" to="#808080" begin="zoomminus.mouseover" end="zoomminus.mouseout"/></use>
    <path d="M-4,0h8" fill="none" stroke="white" stroke-width="1.5" pointer-events="none"/>
  </g>
  <g id="arrowUp" transform="translate(30 24)">
    <use xlink:href="#rim"/>
    <path pointer-events="none" fill="none" stroke="white" stroke-width="1.5" d="M0,-3.0v7 M-2.5,-0.5L0,-3.0L2.5,-0.5"/>
  </g>
  <g id="arrowRight" transform="rotate(90) translate(36 -43)">
    <use xlink:href="#rim"/>
    <path pointer-events="none" fill="none" stroke="white" stroke-width="1.5" d="M0,-3.0v7 M-2.5,-0.5L0,-3.0L2.5,-0.5"/>
  </g>
  <g id="arrowDown" transform="rotate(180) translate(-30 -48)">
    <use xlink:href="#rim"/>
    <path pointer-events="none" fill="none" stroke="white" stroke-width="1.5" d="M0,-3.0v7 M-2.5,-0.5L0,-3.0L2.5,-0.5"/>
  </g>
  <g id="arrowLeft" transform="rotate(270) translate(-36 17)">
    <use xlink:href="#rim"/>
    <path pointer-events="none" fill="none" stroke="white" stroke-width="1.5" d="M0,-3.0v7 M-2.5,-0.5L0,-3.0L2.5,-0.5"/>
  </g>
  <g id="resetDef">
    <use xlink:href="#rim2" fill="#404040"><set attributeName="fill" to="#808080" begin="reset.mouseover" end="reset.mouseout"/></use>
  </g>
</defs>
<script type="application/ecmascript">
var viewWidth = 469;
var viewHeight = 1322;
var sectionId = 'dynsection-9';
</script>
<script type="application/ecmascript" xlink:href="svg.min.js"/>
<svg id="graph" class="graph">
<g id="viewport">
<title>ObjId::data</title>
<!-- Node1 -->
<g id="Node000001" class="node">
<title>Node1</title>
<g id="a_Node000001"><a xlink:title=" ">
<polygon fill="#999999" stroke="#666666" points="461,-463 391,-463 391,-444 461,-444 461,-463"/>
<text text-anchor="middle" x="426" y="-451" font-family="Ubuntu Mono" font-size="10.00">ObjId::data</text>
</a>
</g>
</g>
<!-- Node2 -->
<g id="Node000002" class="node">
<title>Node2</title>
<g id="a_Node000002"><a xlink:href="classSynapse.html#ac77a8a83d4a014bf9b7f950b002a1f70" target="_top" xlink:title=" ">
<polygon fill="white" stroke="#666666" points="339,-1221 195,-1221 195,-1202 339,-1202 339,-1221"/>
<text text-anchor="middle" x="267" y="-1209" font-family="Ubuntu Mono" font-size="10.00">Synapse::addMsgCallback</text>
</a>
</g>
</g>
<!-- Node1&#45;&gt;Node2 -->
<g id="edge1_Node000001_Node000002" class="edge">
<title>Node1&#45;&gt;Node2</title>
<g id="a_edge1_Node000001_Node000002"><a xlink:title=" ">
<path fill="none" stroke="#63b8ff" d="M424.51,-473.34C421.54,-585.6 404.48,-1138.27 355,-1193.5 350.57,-1198.44 345.18,-1202.23 339.27,-1205.11"/>
<polygon fill="#63b8ff" stroke="#63b8ff" points="428.01,-473.2 424.77,-463.11 421.01,-473.02 428.01,-473.2"/>
</a>
</g>
</g>
<!-- Node3 -->
<g id="Node000003" class="node">
<title>Node3</title>
<g id="a_Node000003"><a xlink:href="HopFunc_8cpp.html#aa27d93ddd8e90d543c8462d00cf102e0" target="_top" xlink:title=" ">
<polygon fill="white" stroke="#666666" points="298,-1184 236,-1184 236,-1165 298,-1165 298,-1184"/>
<text text-anchor="middle" x="267" y="-1172" font-family="Ubuntu Mono" font-size="10.00">addToBuf</text>
</a>
</g>
</g>
<!-- Node1&#45;&gt;Node3 -->
<g id="edge2_Node000001_Node000003" class="edge">
<title>Node1&#45;&gt;Node3</title>
<g id="a_edge2_Node000001_Node000003"><a xlink:title=" ">
<path fill="none" stroke="#63b8ff" d="M424.4,-473.35C420.95,-582.28 402.01,-1104.28 355,-1156.5 340.96,-1172.09 317.29,-1176.19 298.18,-1176.62"/>
<polygon fill="#63b8ff" stroke="#63b8ff" points="427.91,-473.24 424.72,-463.14 420.91,-473.02 427.91,-473.24"/>
</a>
</g>
</g>
<!-- Node5 -->
<g id="Node000005" class="node">
<title>Node5</title>
<g id="a_Node000005"><a xlink:href="HopFunc_8cpp.html#ac7954482355f41ae155c329e2d82d1c5" target="_top" xlink:title=" ">
<polygon fill="white" stroke="#666666" points="313,-1147 221,-1147 221,-1128 313,-1128 313,-1147"/>
<text text-anchor="middle" x="267" y="-1135" font-family="Ubuntu Mono" font-size="10.00">dispatchBuffers</text>
</a>
</g>
</g>
<!-- Node1&#45;&gt;Node5 -->
<g id="edge4_Node000001_Node000005" class="edge">
<title>Node1&#45;&gt;Node5</title>
<g id="a_edge4_Node000001_Node000005"><a xlink:title=" ">
<path fill="none" stroke="#63b8ff" d="M421.51,-473.21C411.92,-526.81 383.98,-679.64 355,-805.5 325.45,-933.83 282.08,-1088.01 270.78,-1127.78"/>
<polygon fill="#63b8ff" stroke="#63b8ff" points="425.01,-473.52 423.32,-463.07 418.12,-472.3 425.01,-473.52"/>
</a>
</g>
</g>
<!-- Node14 -->
<g id="Node000014" class="node">
<title>Node14</title>
<g id="a_Node000014"><a xlink:href="classShell.html#adcded58cf909ca4df04af1b88dac4901" target="_top" xlink:title=" ">
<polygon fill="#fff0f0" stroke="red" points="308,-796 226,-796 226,-777 308,-777 308,-796"/>
<text text-anchor="middle" x="267" y="-784" font-family="Ubuntu Mono" font-size="10.00">Shell::doStart</text>
</a>
</g>
</g>
<!-- Node1&#45;&gt;Node14 -->
<g id="edge13_Node000001_Node000014" class="edge">
<title>Node1&#45;&gt;Node14</title>
<g id="a_edge13_Node000001_Node000014"><a xlink:title=" ">
<path fill="none" stroke="#63b8ff" d="M423.35,-473.43C417.78,-535.96 397.54,-726.58 355,-768.5 342.81,-780.52 324.83,-785.5 308.38,-787.28"/>
<polygon fill="#63b8ff" stroke="#63b8ff" points="426.85,-473.57 424.23,-463.31 419.88,-472.97 426.85,-473.57"/>
</a>
</g>
</g>
<!-- Node41 -->
<g id="Node000041" class="node">
<title>Node41</title>
<g id="a_Node000041"><a xlink:href="classSynapse.html#a394a0921a6392eecb0afbde9b3d9cfac" target="_top" xlink:title=" ">
<polygon fill="white" stroke="#666666" points="341,-759 193,-759 193,-740 341,-740 341,-759"/>
<text text-anchor="middle" x="267" y="-747" font-family="Ubuntu Mono" font-size="10.00">Synapse::dropMsgCallback</text>
</a>
</g>
</g>
<!-- Node1&#45;&gt;Node41 -->
<g id="edge30_Node000001_Node000041" class="edge">
<title>Node1&#45;&gt;Node41</title>
<g id="a_edge30_Node000001_Node000041"><a xlink:title=" ">
<path fill="none" stroke="#63b8ff" d="M422.74,-473.29C415.77,-530.66 392.82,-695.26 355,-731.5 350.88,-735.45 346.13,-738.63 341.03,-741.19"/>
<polygon fill="#63b8ff" stroke="#63b8ff" points="426.25,-473.38 423.95,-463.04 419.3,-472.56 426.25,-473.38"/>
</a>
</g>
</g>
<!-- Node42 -->
<g id="Node000042" class="node">
<title>Node42</title>
<g id="a_Node000042"><a xlink:href="classMsg.html#a1a57001709e44ab056a704c24760c105" target="_top" xlink:title=" ">
<polygon fill="#fff0f0" stroke="red" points="306.5,-722 227.5,-722 227.5,-703 306.5,-703 306.5,-722"/>
<text text-anchor="middle" x="267" y="-710" font-family="Ubuntu Mono" font-size="10.00">Msg::getMsg</text>
</a>
</g>
</g>
<!-- Node1&#45;&gt;Node42 -->
<g id="edge31_Node000001_Node000042" class="edge">
<title>Node1&#45;&gt;Node42</title>
<g id="a_edge31_Node000001_Node000042"><a xlink:title=" ">
<path fill="none" stroke="#63b8ff" d="M425.6,-473.25C425.84,-519.37 419.6,-634.79 355,-694.5 342.09,-706.43 323.42,-711.31 306.69,-713.05"/>
<polygon fill="#63b8ff" stroke="#63b8ff" points="429.09,-473.03 425.43,-463.09 422.1,-473.15 429.09,-473.03"/>
</a>
</g>
</g>
<!-- Node161 -->
<g id="Node000161" class="node">
<title>Node161</title>
<g id="a_Node000161"><a xlink:href="classDsolve.html#a7ce4f12c80e58ef623ecba72c92326a8" target="_top" xlink:title=" ">
<polygon fill="#fff0f0" stroke="red" points="355,-685 179,-685 179,-666 355,-666 355,-685"/>
<text text-anchor="middle" x="267" y="-673" font-family="Ubuntu Mono" font-size="10.00">Dsolve::innerBuildMeshJunctions</text>
</a>
</g>
</g>
<!-- Node1&#45;&gt;Node161 -->
<g id="edge32_Node000001_Node000161" class="edge">
<title>Node1&#45;&gt;Node161</title>
<g id="a_edge32_Node000001_Node000161"><a xlink:title=" ">
<path fill="none" stroke="#63b8ff" d="M424.36,-473.54C421.91,-514.68 410.22,-608.86 355,-657.5 351.18,-660.86 346.9,-663.66 342.34,-665.98"/>
<polygon fill="#63b8ff" stroke="#63b8ff" points="427.86,-473.58 424.84,-463.43 420.87,-473.25 427.86,-473.58"/>
</a>
</g>
</g>
<!-- Node453 -->
<g id="Node000453" class="node">
<title>Node453</title>
<g id="a_Node000453"><a xlink:href="Wildcard_8cpp.html#abd9cc885663afb7dcf1615aa865aeac5" target="_top" xlink:title=" ">
<polygon fill="#fff0f0" stroke="red" points="298,-648 236,-648 236,-629 298,-629 298,-648"/>
<text text-anchor="middle" x="267" y="-636" font-family="Ubuntu Mono" font-size="10.00">innerFind</text>
</a>
</g>
</g>
<!-- Node1&#45;&gt;Node453 -->
<g id="edge33_Node000001_Node000453" class="edge">
<title>Node1&#45;&gt;Node453</title>
<g id="a_edge33_Node000001_Node000453"><a xlink:title=" ">
<path fill="none" stroke="#63b8ff" d="M422.67,-473.28C417.4,-508.62 401.2,-582.45 355,-620.5 339.28,-633.44 316.64,-637.82 298.4,-639.03"/>
<polygon fill="#63b8ff" stroke="#63b8ff" points="426.15,-473.64 424.02,-463.26 419.21,-472.7 426.15,-473.64"/>
</a>
</g>
</g>
<!-- Node266 -->
<g id="Node000266" class="node">
<title>Node266</title>
<g id="a_Node000266"><a xlink:href="main_8cpp.html#a3c04138a5bfe5d72780bb7e82a18e627" target="_top" xlink:title=" ">
<polygon fill="white" stroke="#666666" points="287.5,-611 246.5,-611 246.5,-592 287.5,-592 287.5,-611"/>
<text text-anchor="middle" x="267" y="-599" font-family="Ubuntu Mono" font-size="10.00">main</text>
</a>
</g>
</g>
<!-- Node1&#45;&gt;Node266 -->
<g id="edge34_Node000001_Node000266" class="edge">
<title>Node1&#45;&gt;Node266</title>
<g id="a_edge34_Node000001_Node000266"><a xlink:title=" ">
<path fill="none" stroke="#63b8ff" d="M420.18,-472.93C411.96,-501.81 392.36,-555.66 355,-583.5 335.34,-598.15 306.54,-601.55 287.54,-602.02"/>
<polygon fill="#63b8ff" stroke="#63b8ff" points="423.58,-473.75 422.79,-463.18 416.82,-471.94 423.58,-473.75"/>
</a>
</g>
</g>
<!-- Node46 -->
<g id="Node000046" class="node">
<title>Node46</title>
<g id="a_Node000046"><a xlink:href="classReadKkit.html#a84a1ef5c83d57d8d111ead9cf48e8e20" target="_top" xlink:title=" ">
<polygon fill="#fff0f0" stroke="red" points="311.5,-574 222.5,-574 222.5,-555 311.5,-555 311.5,-574"/>
<text text-anchor="middle" x="267" y="-562" font-family="Ubuntu Mono" font-size="10.00">ReadKkit::read</text>
</a>
</g>
</g>
<!-- Node1&#45;&gt;Node46 -->
<g id="edge35_Node000001_Node000046" class="edge">
<title>Node1&#45;&gt;Node46</title>
<g id="a_edge35_Node000001_Node000046"><a xlink:title=" ">
<path fill="none" stroke="#63b8ff" d="M416.11,-472.34C404.95,-493.82 383.74,-528.29 355,-546.5 342.23,-554.59 326.49,-559.12 311.92,-561.64"/>
<polygon fill="#63b8ff" stroke="#63b8ff" points="419.32,-473.74 420.64,-463.23 413.05,-470.62 419.32,-473.74"/>
</a>
</g>
</g>
<!-- Node847 -->
<g id="Node000847" class="node">
<title>Node847</title>
<g id="a_Node000847"><a xlink:href="HopFunc_8cpp.html#aee99e6eb1ab1199a9668119486fe1ca2" target="_top" xlink:title=" ">
<polygon fill="#fff0f0" stroke="red" points="322,-537 212,-537 212,-518 322,-518 322,-537"/>
<text text-anchor="middle" x="267" y="-525" font-family="Ubuntu Mono" font-size="10.00">remoteFieldGetVec</text>
</a>
</g>
</g>
<!-- Node1&#45;&gt;Node847 -->
<g id="edge36_Node000001_Node000847" class="edge">
<title>Node1&#45;&gt;Node847</title>
<g id="a_edge36_Node000001_Node000847"><a xlink:title=" ">
<path fill="none" stroke="#63b8ff" d="M408.66,-470.34C395.37,-483.04 375.53,-499.85 355,-509.5 344.81,-514.29 333.36,-517.81 322.19,-520.4"/>
<polygon fill="#63b8ff" stroke="#63b8ff" points="411.36,-472.59 416.03,-463.07 406.45,-467.6 411.36,-472.59"/>
</a>
</g>
</g>
<!-- Node850 -->
<g id="Node000850" class="node">
<title>Node850</title>
<g id="a_Node000850"><a xlink:href="HopFunc_8cpp.html#afe48babbfee7e5f6ab5e5d615c4f9b63" target="_top" xlink:title=" ">
<polygon fill="#fff0f0" stroke="red" points="301.5,-500 232.5,-500 232.5,-481 301.5,-481 301.5,-500"/>
<text text-anchor="middle" x="267" y="-488" font-family="Ubuntu Mono" font-size="10.00">remoteGet</text>
</a>
</g>
</g>
<!-- Node1&#45;&gt;Node850 -->
<g id="edge37_Node000001_Node000850" class="edge">
<title>Node1&#45;&gt;Node850</title>
<g id="a_edge37_Node000001_Node000850"><a xlink:title=" ">
<path fill="none" stroke="#63b8ff" d="M381.87,-465.65C373.01,-468.02 363.72,-470.42 355,-472.5 337.45,-476.69 317.77,-480.81 301.57,-484.05"/>
<polygon fill="#63b8ff" stroke="#63b8ff" points="382.9,-469 391.64,-463 381.07,-462.24 382.9,-469"/>
</a>
</g>
</g>
<!-- Node852 -->
<g id="Node000852" class="node">
<title>Node852</title>
<g id="a_Node000852"><a xlink:href="HopFunc_8cpp.html#ae70ac8d0a46de0018ef187a945e95585" target="_top" xlink:title=" ">
<polygon fill="white" stroke="#666666" points="310,-463 224,-463 224,-444 310,-444 310,-463"/>
<text text-anchor="middle" x="267" y="-451" font-family="Ubuntu Mono" font-size="10.00">remoteGetVec</text>
</a>
</g>
</g>
<!-- Node1&#45;&gt;Node852 -->
<g id="edge38_Node000001_Node000852" class="edge">
<title>Node1&#45;&gt;Node852</title>
<g id="a_edge38_Node000001_Node000852"><a xlink:title=" ">
<path fill="none" stroke="#63b8ff" d="M380.79,-453.5C358.64,-453.5 331.97,-453.5 310.12,-453.5"/>
<polygon fill="#63b8ff" stroke="#63b8ff" points="380.93,-457 390.93,-453.5 380.93,-450 380.93,-457"/>
</a>
</g>
</g>
<!-- Node413 -->
<g id="Node000413" class="node">
<title>Node413</title>
<g id="a_Node000413"><a xlink:href="classEnz.html#a369dd4f9a9e8718d312b91d289edccc4" target="_top" xlink:title=" ">
<polygon fill="#fff0f0" stroke="red" points="310,-426 224,-426 224,-407 310,-407 310,-426"/>
<text text-anchor="middle" x="267" y="-414" font-family="Ubuntu Mono" font-size="10.00">Enz::setSolver</text>
</a>
</g>
</g>
<!-- Node1&#45;&gt;Node413 -->
<g id="edge39_Node000001_Node000413" class="edge">
<title>Node1&#45;&gt;Node413</title>
<g id="a_edge39_Node000001_Node000413"><a xlink:title=" ">
<path fill="none" stroke="#63b8ff" d="M381.87,-441.35C373.01,-438.98 363.72,-436.58 355,-434.5 340.45,-431.02 324.43,-427.6 310.15,-424.68"/>
<polygon fill="#63b8ff" stroke="#63b8ff" points="381.07,-444.76 391.64,-444 382.9,-438 381.07,-444.76"/>
</a>
</g>
</g>
<!-- Node356 -->
<g id="Node000356" class="node">
<title>Node356</title>
<g id="a_Node000356"><a xlink:href="classMMenz.html#ad391949741ca05d043245f9d93d14c7e" target="_top" xlink:title=" ">
<polygon fill="#fff0f0" stroke="red" points="319,-389 215,-389 215,-370 319,-370 319,-389"/>
<text text-anchor="middle" x="267" y="-377" font-family="Ubuntu Mono" font-size="10.00">MMenz::setSolver</text>
</a>
</g>
</g>
<!-- Node1&#45;&gt;Node356 -->
<g id="edge40_Node000001_Node000356" class="edge">
<title>Node1&#45;&gt;Node356</title>
<g id="a_edge40_Node000001_Node000356"><a xlink:title=" ">
<path fill="none" stroke="#63b8ff" d="M408.66,-436.66C395.37,-423.96 375.53,-407.15 355,-397.5 343.97,-392.32 331.47,-388.62 319.44,-385.98"/>
<polygon fill="#63b8ff" stroke="#63b8ff" points="406.45,-439.4 416.03,-443.93 411.36,-434.41 406.45,-439.4"/>
</a>
</g>
</g>
<!-- Node853 -->
<g id="Node000853" class="node">
<title>Node853</title>
<g id="a_Node000853"><a xlink:href="classPoolBase.html#a31ca4d8f4eb21dc21027f93698cd5fdb" target="_top" xlink:title=" ">
<polygon fill="#fff0f0" stroke="red" points="326.5,-352 207.5,-352 207.5,-333 326.5,-333 326.5,-352"/>
<text text-anchor="middle" x="267" y="-340" font-family="Ubuntu Mono" font-size="10.00">PoolBase::setSolvers</text>
</a>
</g>
</g>
<!-- Node1&#45;&gt;Node853 -->
<g id="edge41_Node000001_Node000853" class="edge">
<title>Node1&#45;&gt;Node853</title>
<g id="a_edge41_Node000001_Node000853"><a xlink:title=" ">
<path fill="none" stroke="#63b8ff" d="M416.11,-434.66C404.95,-413.18 383.74,-378.71 355,-360.5 346.53,-355.13 336.75,-351.33 326.88,-348.65"/>
<polygon fill="#63b8ff" stroke="#63b8ff" points="413.05,-436.38 420.64,-443.77 419.32,-433.26 413.05,-436.38"/>
</a>
</g>
</g>
<!-- Node478 -->
<g id="Node000478" class="node">
<title>Node478</title>
<g id="a_Node000478"><a xlink:href="classEndoMesh.html#ab54d8a97aec689de6e7b556304175b54" target="_top" xlink:title=" ">
<polygon fill="#fff0f0" stroke="red" points="332.5,-315 201.5,-315 201.5,-296 332.5,-296 332.5,-315"/>
<text text-anchor="middle" x="267" y="-303" font-family="Ubuntu Mono" font-size="10.00">EndoMesh::setSurround</text>
</a>
</g>
</g>
<!-- Node1&#45;&gt;Node478 -->
<g id="edge42_Node000001_Node000478" class="edge">
<title>Node1&#45;&gt;Node478</title>
<g id="a_edge42_Node000001_Node000478"><a xlink:title=" ">
<path fill="none" stroke="#63b8ff" d="M420.18,-434.07C411.96,-405.19 392.36,-351.34 355,-323.5 348.32,-318.52 340.59,-314.84 332.55,-312.14"/>
<polygon fill="#63b8ff" stroke="#63b8ff" points="416.82,-435.06 422.79,-443.82 423.58,-433.25 416.82,-435.06"/>
</a>
</g>
</g>
<!-- Node323 -->
<g id="Node000323" class="node">
<title>Node323</title>
<g id="a_Node000323"><a xlink:href="testAsync_8cpp.html#a02bfd9535ad935ed1e0c5e5004b31c12" target="_top" xlink:title=" ">
<polygon fill="white" stroke="#666666" points="312.5,-278 221.5,-278 221.5,-259 312.5,-259 312.5,-278"/>
<text text-anchor="middle" x="267" y="-266" font-family="Ubuntu Mono" font-size="10.00">test2ArgSetVec</text>
</a>
</g>
</g>
<!-- Node1&#45;&gt;Node323 -->
<g id="edge43_Node000001_Node000323" class="edge">
<title>Node1&#45;&gt;Node323</title>
<g id="a_edge43_Node000001_Node000323"><a xlink:title=" ">
<path fill="none" stroke="#63b8ff" d="M422.67,-433.72C417.4,-398.38 401.2,-324.55 355,-286.5 343.21,-276.79 327.53,-271.9 312.73,-269.55"/>
<polygon fill="#63b8ff" stroke="#63b8ff" points="419.21,-434.3 424.02,-443.74 426.15,-433.36 419.21,-434.3"/>
</a>
</g>
</g>
<!-- Node328 -->
<g id="Node000328" class="node">
<title>Node328</title>
<g id="a_Node000328"><a xlink:href="testAsync_8cpp.html#acacf1d75459344c62faa215a53ea68b5" target="_top" xlink:title=" ">
<polygon fill="white" stroke="#666666" points="318.5,-241 215.5,-241 215.5,-222 318.5,-222 318.5,-241"/>
<text text-anchor="middle" x="267" y="-229" font-family="Ubuntu Mono" font-size="10.00">testLookupSetGet</text>
</a>
</g>
</g>
<!-- Node1&#45;&gt;Node328 -->
<g id="edge44_Node000001_Node000328" class="edge">
<title>Node1&#45;&gt;Node328</title>
<g id="a_edge44_Node000001_Node000328"><a xlink:title=" ">
<path fill="none" stroke="#63b8ff" d="M424.36,-433.46C421.91,-392.32 410.22,-298.14 355,-249.5 344.93,-240.63 331.66,-235.71 318.52,-233.08"/>
<polygon fill="#63b8ff" stroke="#63b8ff" points="420.87,-433.75 424.84,-443.57 427.86,-433.42 420.87,-433.75"/>
</a>
</g>
</g>
<!-- Node329 -->
<g id="Node000329" class="node">
<title>Node329</title>
<g id="a_Node000329"><a xlink:href="testAsync_8cpp.html#ac44591c7444604ba199b0f3c410410d9" target="_top" xlink:title=" ">
<polygon fill="white" stroke="#666666" points="306.5,-204 227.5,-204 227.5,-185 306.5,-185 306.5,-204"/>
<text text-anchor="middle" x="267" y="-192" font-family="Ubuntu Mono" font-size="10.00">testMsgField</text>
</a>
</g>
</g>
<!-- Node1&#45;&gt;Node329 -->
<g id="edge45_Node000001_Node000329" class="edge">
<title>Node1&#45;&gt;Node329</title>
<g id="a_edge45_Node000001_Node000329"><a xlink:title=" ">
<path fill="none" stroke="#63b8ff" d="M425.6,-433.75C425.84,-387.63 419.6,-272.21 355,-212.5 342.09,-200.57 323.42,-195.69 306.69,-193.95"/>
<polygon fill="#63b8ff" stroke="#63b8ff" points="422.1,-433.85 425.43,-443.91 429.09,-433.97 422.1,-433.85"/>
</a>
</g>
</g>
<!-- Node236 -->
<g id="Node000236" class="node">
<title>Node236</title>
<g id="a_Node000236"><a xlink:href="testAsync_8cpp.html#af909cc929cd17f4ce42b63e4a462120d" target="_top" xlink:title=" ">
<polygon fill="white" stroke="#666666" points="310,-167 224,-167 224,-148 310,-148 310,-167"/>
<text text-anchor="middle" x="267" y="-155" font-family="Ubuntu Mono" font-size="10.00">testSendSpike</text>
</a>
</g>
</g>
<!-- Node1&#45;&gt;Node236 -->
<g id="edge46_Node000001_Node000236" class="edge">
<title>Node1&#45;&gt;Node236</title>
<g id="a_edge46_Node000001_Node000236"><a xlink:title=" ">
<path fill="none" stroke="#63b8ff" d="M422.74,-433.71C415.77,-376.34 392.82,-211.74 355,-175.5 343.2,-164.19 326.25,-159.16 310.45,-157.15"/>
<polygon fill="#63b8ff" stroke="#63b8ff" points="419.3,-434.44 423.95,-443.96 426.25,-433.62 419.3,-434.44"/>
</a>
</g>
</g>
<!-- Node237 -->
<g id="Node000237" class="node">
<title>Node237</title>
<g id="a_Node000237"><a xlink:href="testAsync_8cpp.html#a15622d9bbd8efd516be27a451d8d3242" target="_top" xlink:title=" ">
<polygon fill="white" stroke="#666666" points="301,-130 233,-130 233,-111 301,-111 301,-130"/>
<text text-anchor="middle" x="267" y="-118" font-family="Ubuntu Mono" font-size="10.00">testSetGet</text>
</a>
</g>
</g>
<!-- Node1&#45;&gt;Node237 -->
<g id="edge47_Node000001_Node000237" class="edge">
<title>Node1&#45;&gt;Node237</title>
<g id="a_edge47_Node000001_Node000237"><a xlink:title=" ">
<path fill="none" stroke="#63b8ff" d="M423.35,-433.57C417.78,-371.04 397.54,-180.42 355,-138.5 341.05,-124.75 319.53,-120.21 301.38,-119.13"/>
<polygon fill="#63b8ff" stroke="#63b8ff" points="419.88,-434.03 424.23,-443.69 426.85,-433.43 419.88,-434.03"/>
</a>
</g>
</g>
<!-- Node238 -->
<g id="Node000238" class="node">
<title>Node238</title>
<g id="a_Node000238"><a xlink:href="testAsync_8cpp.html#a4381556b7374a5cb6c4ae7c1e9843276" target="_top" xlink:title=" ">
<polygon fill="white" stroke="#666666" points="318.5,-93 215.5,-93 215.5,-74 318.5,-74 318.5,-93"/>
<text text-anchor="middle" x="267" y="-81" font-family="Ubuntu Mono" font-size="10.00">testSetGetDouble</text>
</a>
</g>
</g>
<!-- Node1&#45;&gt;Node238 -->
<g id="edge48_Node000001_Node000238" class="edge">
<title>Node1&#45;&gt;Node238</title>
<g id="a_edge48_Node000001_Node000238"><a xlink:title=" ">
<path fill="none" stroke="#63b8ff" d="M423.88,-433.91C419.65,-367.03 402.4,-149.27 355,-101.5 345.44,-91.87 332.17,-86.73 318.87,-84.13"/>
<polygon fill="#63b8ff" stroke="#63b8ff" points="420.39,-434.17 424.49,-443.94 427.38,-433.74 420.39,-434.17"/>
</a>
</g>
</g>
<!-- Node239 -->
<g id="Node000239" class="node">
<title>Node239</title>
<g id="a_Node000239"><a xlink:href="testAsync_8cpp.html#a53399e0be4d02cdf1a0b2b0e95762a1c" target="_top" xlink:title=" ">
<polygon fill="white" stroke="#666666" points="320.5,-56 213.5,-56 213.5,-37 320.5,-37 320.5,-56"/>
<text text-anchor="middle" x="267" y="-44" font-family="Ubuntu Mono" font-size="10.00">testSetGetExtField</text>
</a>
</g>
</g>
<!-- Node1&#45;&gt;Node239 -->
<g id="edge49_Node000001_Node000239" class="edge">
<title>Node1&#45;&gt;Node239</title>
<g id="a_edge49_Node000001_Node000239"><a xlink:title=" ">
<path fill="none" stroke="#63b8ff" d="M424.26,-433.28C421.18,-361.14 407.05,-117.92 355,-64.5 345.96,-55.22 333.48,-50.09 320.8,-47.39"/>
<polygon fill="#63b8ff" stroke="#63b8ff" points="420.77,-433.82 424.67,-443.67 427.77,-433.54 420.77,-433.82"/>
</a>
</g>
</g>
<!-- Node331 -->
<g id="Node000331" class="node">
<title>Node331</title>
<g id="a_Node000331"><a xlink:href="testAsync_8cpp.html#af8b0efc90939c2247b1d6de7987d3c71" target="_top" xlink:title=" ">
<polygon fill="white" stroke="#666666" points="300,-19 234,-19 234,0 300,0 300,-19"/>
<text text-anchor="middle" x="267" y="-7" font-family="Ubuntu Mono" font-size="10.00">testStrGet</text>
</a>
</g>
</g>
<!-- Node1&#45;&gt;Node331 -->
<g id="edge50_Node000001_Node000331" class="edge">
<title>Node1&#45;&gt;Node331</title>
<g id="a_edge50_Node000001_Node000331"><a xlink:title=" ">
<path fill="none" stroke="#63b8ff" d="M424.62,-433.84C422.72,-358.15 412.01,-86.91 355,-27.5 341.12,-13.03 318.9,-8.62 300.39,-7.78"/>
<polygon fill="#63b8ff" stroke="#63b8ff" points="421.12,-433.97 424.84,-443.89 428.12,-433.82 421.12,-433.97"/>
</a>
</g>
</g>
<!-- Node4 -->
<g id="Node000004" class="node">
<title>Node4</title>
<g id="a_Node000004"><a xlink:href="classHopFunc0.html#a5e329805eab0c4302edb5b5454cb8b0f" target="_top" xlink:title=" ">
<polygon fill="white" stroke="#666666" points="113,-1314 30,-1314 30,-1295 113,-1295 113,-1314"/>
<text text-anchor="middle" x="71.5" y="-1302" font-family="Ubuntu Mono" font-size="10.00">HopFunc0::op</text>
</a>
</g>
</g>
<!-- Node3&#45;&gt;Node4 -->
<g id="edge3_Node000003_Node000004" class="edge">
<title>Node3&#45;&gt;Node4</title>
<g id="a_edge3_Node000003_Node000004"><a xlink:title=" ">
<path fill="none" stroke="#63b8ff" d="M225.59,-1175.25C209.5,-1177.46 191.81,-1182.53 179,-1193.5 145.34,-1222.33 176.15,-1257.08 143,-1286.5 134.78,-1293.79 124,-1298.21 113.36,-1300.86"/>
<polygon fill="#63b8ff" stroke="#63b8ff" points="226.28,-1178.7 235.86,-1174.18 225.55,-1171.74 226.28,-1178.7"/>
</a>
</g>
</g>
<!-- Node5&#45;&gt;Node4 -->
<g id="edge5_Node000005_Node000004" class="edge">
<title>Node5&#45;&gt;Node4</title>
<g id="a_edge5_Node000005_Node000004"><a xlink:title=" ">
<path fill="none" stroke="#63b8ff" d="M211.07,-1140.25C199.29,-1143.19 187.77,-1148.2 179,-1156.5 135.45,-1197.71 185.82,-1244.54 143,-1286.5 134.97,-1294.37 124,-1298.94 113.11,-1301.56"/>
<polygon fill="#63b8ff" stroke="#63b8ff" points="211.86,-1143.66 220.96,-1138.23 210.47,-1136.8 211.86,-1143.66"/>
</a>
</g>
</g>
<!-- Node6 -->
<g id="Node000006" class="node">
<title>Node6</title>
<g id="a_Node000006"><a xlink:href="classHopFunc1.html#afb618530cd9f2e3593fe246867c32aae" target="_top" xlink:title=" ">
<polygon fill="white" stroke="#666666" points="113,-1277 30,-1277 30,-1258 113,-1258 113,-1277"/>
<text text-anchor="middle" x="71.5" y="-1265" font-family="Ubuntu Mono" font-size="10.00">HopFunc1::op</text>
</a>
</g>
</g>
<!-- Node5&#45;&gt;Node6 -->
<g id="edge6_Node000005_Node000006" class="edge">
<title>Node5&#45;&gt;Node6</title>
<g id="a_edge6_Node000005_Node000006"><a xlink:title=" ">
<path fill="none" stroke="#63b8ff" d="M210.59,-1141.16C199.16,-1144.1 187.9,-1148.88 179,-1156.5 145.34,-1185.33 176.15,-1220.08 143,-1249.5 134.78,-1256.79 124,-1261.21 113.36,-1263.86"/>
<polygon fill="#63b8ff" stroke="#63b8ff" points="211.59,-1144.53 220.64,-1139.02 210.13,-1137.68 211.59,-1144.53"/>
</a>
</g>
</g>
<!-- Node7 -->
<g id="Node000007" class="node">
<title>Node7</title>
<g id="a_Node000007"><a xlink:href="classHopFunc2.html#a19b966c84c791f56f88bacbd90f694a5" target="_top" xlink:title=" ">
<polygon fill="#fff0f0" stroke="red" points="113,-1240 30,-1240 30,-1221 113,-1221 113,-1240"/>
<text text-anchor="middle" x="71.5" y="-1228" font-family="Ubuntu Mono" font-size="10.00">HopFunc2::op</text>
</a>
</g>
</g>
<!-- Node5&#45;&gt;Node7 -->
<g id="edge7_Node000005_Node000007" class="edge">
<title>Node5&#45;&gt;Node7</title>
<g id="a_edge7_Node000005_Node000007"><a xlink:title=" ">
<path fill="none" stroke="#63b8ff" d="M210.97,-1142.73C199.7,-1145.6 188.43,-1149.95 179,-1156.5 154.7,-1173.38 167,-1195.19 143,-1212.5 134.29,-1218.78 123.59,-1222.87 113.19,-1225.54"/>
<polygon fill="#63b8ff" stroke="#63b8ff" points="211.8,-1146.13 220.81,-1140.56 210.29,-1139.29 211.8,-1146.13"/>
</a>
</g>
</g>
<!-- Node9 -->
<g id="Node000009" class="node">
<title>Node9</title>
<g id="a_Node000009"><a xlink:href="classHopFunc3.html#a6d855e9afbfcd0d3869d58b977ea80c0" target="_top" xlink:title=" ">
<polygon fill="#fff0f0" stroke="red" points="113,-1203 30,-1203 30,-1184 113,-1184 113,-1203"/>
<text text-anchor="middle" x="71.5" y="-1191" font-family="Ubuntu Mono" font-size="10.00">HopFunc3::op</text>
</a>
</g>
</g>
<!-- Node5&#45;&gt;Node9 -->
<g id="edge8_Node000005_Node000009" class="edge">
<title>Node5&#45;&gt;Node9</title>
<g id="a_edge8_Node000005_Node000009"><a xlink:title=" ">
<path fill="none" stroke="#63b8ff" d="M210.57,-1147.25C199.95,-1149.77 189.01,-1152.84 179,-1156.5 162.01,-1162.71 159.88,-1168.99 143,-1175.5 133.57,-1179.13 123.15,-1182.25 113.28,-1184.83"/>
<polygon fill="#63b8ff" stroke="#63b8ff" points="211.64,-1150.59 220.63,-1144.99 210.11,-1143.76 211.64,-1150.59"/>
</a>
</g>
</g>
<!-- Node10 -->
<g id="Node000010" class="node">
<title>Node10</title>
<g id="a_Node000010"><a xlink:href="classHopFunc4.html#ae5e9eea6bca4ade7e669814129267249" target="_top" xlink:title=" ">
<polygon fill="white" stroke="#666666" points="113,-1166 30,-1166 30,-1147 113,-1147 113,-1166"/>
<text text-anchor="middle" x="71.5" y="-1154" font-family="Ubuntu Mono" font-size="10.00">HopFunc4::op</text>
</a>
</g>
</g>
<!-- Node5&#45;&gt;Node10 -->
<g id="edge9_Node000005_Node000010" class="edge">
<title>Node5&#45;&gt;Node10</title>
<g id="a_edge9_Node000005_Node000010"><a xlink:title=" ">
<path fill="none" stroke="#63b8ff" d="M210.42,-1142.96C179.43,-1146 141.53,-1149.72 113.3,-1152.49"/>
<polygon fill="#63b8ff" stroke="#63b8ff" points="211.02,-1146.42 220.63,-1141.95 210.34,-1139.45 211.02,-1146.42"/>
</a>
</g>
</g>
<!-- Node11 -->
<g id="Node000011" class="node">
<title>Node11</title>
<g id="a_Node000011"><a xlink:href="classHopFunc5.html#ab8c7212270c4cfd6a29fdc900934aa4d" target="_top" xlink:title=" ">
<polygon fill="white" stroke="#666666" points="113,-1129 30,-1129 30,-1110 113,-1110 113,-1129"/>
<text text-anchor="middle" x="71.5" y="-1117" font-family="Ubuntu Mono" font-size="10.00">HopFunc5::op</text>
</a>
</g>
</g>
<!-- Node5&#45;&gt;Node11 -->
<g id="edge10_Node000005_Node000011" class="edge">
<title>Node5&#45;&gt;Node11</title>
<g id="a_edge10_Node000005_Node000011"><a xlink:title=" ">
<path fill="none" stroke="#63b8ff" d="M210.42,-1132.33C179.43,-1129.45 141.53,-1125.92 113.3,-1123.3"/>
<polygon fill="#63b8ff" stroke="#63b8ff" points="210.35,-1135.84 220.63,-1133.28 211,-1128.87 210.35,-1135.84"/>
</a>
</g>
</g>
<!-- Node12 -->
<g id="Node000012" class="node">
<title>Node12</title>
<g id="a_Node000012"><a xlink:href="classHopFunc6.html#a5fafa10131da027589b9618cc9a2a3d7" target="_top" xlink:title=" ">
<polygon fill="white" stroke="#666666" points="113,-1092 30,-1092 30,-1073 113,-1073 113,-1092"/>
<text text-anchor="middle" x="71.5" y="-1080" font-family="Ubuntu Mono" font-size="10.00">HopFunc6::op</text>
</a>
</g>
</g>
<!-- Node5&#45;&gt;Node12 -->
<g id="edge11_Node000005_Node000012" class="edge">
<title>Node5&#45;&gt;Node12</title>
<g id="a_edge11_Node000005_Node000012"><a xlink:title=" ">
<path fill="none" stroke="#63b8ff" d="M224.43,-1125.09C200.63,-1118.05 170.18,-1109.14 143,-1101.5 131.77,-1098.34 119.51,-1095 108.41,-1092.02"/>
<polygon fill="#63b8ff" stroke="#63b8ff" points="223.62,-1128.5 234.2,-1127.99 225.61,-1121.79 223.62,-1128.5"/>
</a>
</g>
</g>
<!-- Node13 -->
<g id="Node000013" class="node">
<title>Node13</title>
<g id="a_Node000013"><a xlink:href="classHopFunc2.html#ac53edb90b460a4d9c61a8abf21ff0d24" target="_top" xlink:title=" ">
<polygon fill="white" stroke="#666666" points="121.5,-1055 21.5,-1055 21.5,-1036 121.5,-1036 121.5,-1055"/>
<text text-anchor="middle" x="71.5" y="-1043" font-family="Ubuntu Mono" font-size="10.00">HopFunc2::opVec</text>
</a>
</g>
</g>
<!-- Node5&#45;&gt;Node13 -->
<g id="edge12_Node000005_Node000013" class="edge">
<title>Node5&#45;&gt;Node13</title>
<g id="a_edge12_Node000005_Node000013"><a xlink:title=" ">
<path fill="none" stroke="#63b8ff" d="M244.32,-1122.14C220.47,-1105.86 180.53,-1080.34 143,-1064.5 134.24,-1060.8 124.56,-1057.64 115.26,-1055.02"/>
<polygon fill="#63b8ff" stroke="#63b8ff" points="242.42,-1125.08 252.63,-1127.89 246.4,-1119.33 242.42,-1125.08"/>
</a>
</g>
</g>
<!-- Node15 -->
<g id="Node000015" class="node">
<title>Node15</title>
<g id="a_Node000015"><a xlink:href="testMsg_8cpp.html#a54ea8605933a0f2d273e5c7bb10a390d" target="_top" xlink:title=" ">
<polygon fill="white" stroke="#666666" points="117.5,-1018 25.5,-1018 25.5,-999 117.5,-999 117.5,-1018"/>
<text text-anchor="middle" x="71.5" y="-1006" font-family="Ubuntu Mono" font-size="10.00">benchmarkMsg</text>
</a>
</g>
</g>
<!-- Node14&#45;&gt;Node15 -->
<g id="edge14_Node000014_Node000015" class="edge">
<title>Node14&#45;&gt;Node15</title>
<g id="a_edge14_Node000014_Node000015"><a xlink:title=" ">
<path fill="none" stroke="#63b8ff" d="M259.91,-806.04C246.12,-846.95 208.51,-941.81 143,-990.5 135.6,-996 126.69,-999.83 117.72,-1002.49"/>
<polygon fill="#63b8ff" stroke="#63b8ff" points="263.27,-807.03 263.04,-796.44 256.61,-804.86 263.27,-807.03"/>
</a>
</g>
</g>
<!-- Node16 -->
<g id="Node000016" class="node">
<title>Node16</title>
<g id="a_Node000016"><a xlink:href="classReadKkit.html#a1491eaffbb56f52d1e168fd5b58b53db" target="_top" xlink:title=" ">
<polygon fill="#fff0f0" stroke="red" points="113,-981 30,-981 30,-962 113,-962 113,-981"/>
<text text-anchor="middle" x="71.5" y="-969" font-family="Ubuntu Mono" font-size="10.00">ReadKkit::run</text>
</a>
</g>
</g>
<!-- Node14&#45;&gt;Node16 -->
<g id="edge15_Node000014_Node000016" class="edge">
<title>Node14&#45;&gt;Node16</title>
<g id="a_edge15_Node000014_Node000016"><a xlink:title=" ">
<path fill="none" stroke="#63b8ff" d="M257.54,-805.33C240.87,-840.21 200.35,-914.86 143,-953.5 134.2,-959.43 123.59,-963.41 113.29,-966.07"/>
<polygon fill="#63b8ff" stroke="#63b8ff" points="260.73,-806.77 261.77,-796.23 254.38,-803.82 260.73,-806.77"/>
</a>
</g>
</g>
<!-- Node18 -->
<g id="Node000018" class="node">
<title>Node18</title>
<g id="a_Node000018"><a xlink:href="namespacepymoose.html#aeb8f138bffd660be625851c64ece0e94" target="_top" xlink:title=" ">
<polygon fill="white" stroke="#666666" points="116.5,-944 26.5,-944 26.5,-925 116.5,-925 116.5,-944"/>
<text text-anchor="middle" x="71.5" y="-932" font-family="Ubuntu Mono" font-size="10.00">pymoose::start</text>
</a>
</g>
</g>
<!-- Node14&#45;&gt;Node18 -->
<g id="edge16_Node000014_Node000018" class="edge">
<title>Node14&#45;&gt;Node18</title>
<g id="a_edge16_Node000014_Node000018"><a xlink:title=" ">
<path fill="none" stroke="#63b8ff" d="M254.04,-804.61C234.35,-832.94 192.33,-887.5 143,-916.5 134.94,-921.24 125.65,-924.74 116.51,-927.33"/>
<polygon fill="#63b8ff" stroke="#63b8ff" points="257.11,-806.32 259.84,-796.08 251.32,-802.38 257.11,-806.32"/>
</a>
</g>
</g>
<!-- Node19 -->
<g id="Node000019" class="node">
<title>Node19</title>
<g id="a_Node000019"><a xlink:href="testDiffusion_8cpp.html#a7a195f69ab90f31794c50ab37f0520b9" target="_top" xlink:title=" ">
<polygon fill="#fff0f0" stroke="red" points="119,-907 24,-907 24,-888 119,-888 119,-907"/>
<text text-anchor="middle" x="71.5" y="-895" font-family="Ubuntu Mono" font-size="10.00">testCalcJunction</text>
</a>
</g>
</g>
<!-- Node14&#45;&gt;Node19 -->
<g id="edge17_Node000014_Node000019" class="edge">
<title>Node14&#45;&gt;Node19</title>
<g id="a_edge17_Node000014_Node000019"><a xlink:title=" ">
<path fill="none" stroke="#63b8ff" d="M248.67,-803.23C226.13,-824.09 184.68,-859.44 143,-879.5 135.6,-883.06 127.42,-885.98 119.32,-888.34"/>
<polygon fill="#63b8ff" stroke="#63b8ff" points="251.2,-805.66 256.09,-796.26 246.4,-800.56 251.2,-805.66"/>
</a>
</g>
</g>
<!-- Node21 -->
<g id="Node000021" class="node">
<title>Node21</title>
<g id="a_Node000021"><a xlink:href="testDiffusion_8cpp.html#a1d6246d49507e6abd2cf028040a79d3e" target="_top" xlink:title=" ">
<polygon fill="#fff0f0" stroke="red" points="110,-870 33,-870 33,-851 110,-851 110,-870"/>
<text text-anchor="middle" x="71.5" y="-858" font-family="Ubuntu Mono" font-size="10.00">testCellDiffn</text>
</a>
</g>
</g>
<!-- Node14&#45;&gt;Node21 -->
<g id="edge18_Node000014_Node000021" class="edge">
<title>Node14&#45;&gt;Node21</title>
<g id="a_edge18_Node000014_Node000021"><a xlink:title=" ">
<path fill="none" stroke="#63b8ff" d="M238.6,-800.68C214.05,-812.96 176.8,-830.6 143,-842.5 132.51,-846.19 120.91,-849.47 110.19,-852.19"/>
<polygon fill="#63b8ff" stroke="#63b8ff" points="240.32,-803.73 247.67,-796.09 237.17,-797.48 240.32,-803.73"/>
</a>
</g>
</g>
<!-- Node22 -->
<g id="Node000022" class="node">
<title>Node22</title>
<g id="a_Node000022"><a xlink:href="testDiffusion_8cpp.html#a2dc040eac718807eca494285edbe4456" target="_top" xlink:title=" ">
<polygon fill="#fff0f0" stroke="red" points="108.5,-833 34.5,-833 34.5,-814 108.5,-814 108.5,-833"/>
<text text-anchor="middle" x="71.5" y="-821" font-family="Ubuntu Mono" font-size="10.00">testCylDiffn</text>
</a>
</g>
</g>
<!-- Node14&#45;&gt;Node22 -->
<g id="edge19_Node000014_Node000022" class="edge">
<title>Node14&#45;&gt;Node22</title>
<g id="a_edge19_Node000014_Node000022"><a xlink:title=" ">
<path fill="none" stroke="#63b8ff" d="M215.83,-796.09C182.25,-802.52 138.83,-810.82 108.63,-816.59"/>
<polygon fill="#63b8ff" stroke="#63b8ff" points="216.74,-799.48 225.91,-794.17 215.43,-792.61 216.74,-799.48"/>
</a>
</g>
</g>
<!-- Node23 -->
<g id="Node000023" class="node">
<title>Node23</title>
<g id="a_Node000023"><a xlink:href="testDiffusion_8cpp.html#a238b7de92925883788a1b3a0b4ad9c53" target="_top" xlink:title=" ">
<polygon fill="#fff0f0" stroke="red" points="135,-796 8,-796 8,-777 135,-777 135,-796"/>
<text text-anchor="middle" x="71.5" y="-784" font-family="Ubuntu Mono" font-size="10.00">testCylDiffnWithStoich</text>
</a>
</g>
</g>
<!-- Node14&#45;&gt;Node23 -->
<g id="edge20_Node000014_Node000023" class="edge">
<title>Node14&#45;&gt;Node23</title>
<g id="a_edge20_Node000014_Node000023"><a xlink:title=" ">
<path fill="none" stroke="#63b8ff" d="M215.69,-786.5C191.04,-786.5 161.12,-786.5 135.02,-786.5"/>
<polygon fill="#63b8ff" stroke="#63b8ff" points="215.91,-790 225.91,-786.5 215.91,-783 215.91,-790"/>
</a>
</g>
</g>
<!-- Node24 -->
<g id="Node000024" class="node">
<title>Node24</title>
<g id="a_Node000024"><a xlink:href="testBuiltins_8cpp.html#a0b23c31b7503dd93064294b42d4ff085" target="_top" xlink:title=" ">
<polygon fill="white" stroke="#666666" points="112,-759 31,-759 31,-740 112,-740 112,-759"/>
<text text-anchor="middle" x="71.5" y="-747" font-family="Ubuntu Mono" font-size="10.00">testFibonacci</text>
</a>
</g>
</g>
<!-- Node14&#45;&gt;Node24 -->
<g id="edge21_Node000014_Node000024" class="edge">
<title>Node14&#45;&gt;Node24</title>
<g id="a_edge21_Node000014_Node000024"><a xlink:title=" ">
<path fill="none" stroke="#63b8ff" d="M215.77,-776.9C183.51,-770.73 142.18,-762.82 112.21,-757.09"/>
<polygon fill="#63b8ff" stroke="#63b8ff" points="215.43,-780.39 225.91,-778.83 216.74,-773.52 215.43,-780.39"/>
</a>
</g>
</g>
<!-- Node25 -->
<g id="Node000025" class="node">
<title>Node25</title>
<g id="a_Node000025"><a xlink:href="testBuiltins_8cpp.html#ae0e71e5c15d8c5e9258b1c3bc4df7ce8" target="_top" xlink:title=" ">
<polygon fill="#fff0f0" stroke="red" points="108,-722 35,-722 35,-703 108,-703 108,-722"/>
<text text-anchor="middle" x="71.5" y="-710" font-family="Ubuntu Mono" font-size="10.00">testGetMsg</text>
</a>
</g>
</g>
<!-- Node14&#45;&gt;Node25 -->
<g id="edge22_Node000014_Node000025" class="edge">
<title>Node14&#45;&gt;Node25</title>
<g id="a_edge22_Node000014_Node000025"><a xlink:title=" ">
<path fill="none" stroke="#63b8ff" d="M215.82,-781.37C203.27,-778.7 190.21,-774.64 179,-768.5 158.88,-757.47 162.78,-743.12 143,-731.5 132.4,-725.27 119.71,-721.04 108.04,-718.18"/>
<polygon fill="#63b8ff" stroke="#63b8ff" points="215.25,-784.82 225.72,-783.23 216.54,-777.94 215.25,-784.82"/>
</a>
</g>
</g>
<!-- Node27 -->
<g id="Node000027" class="node">
<title>Node27</title>
<g id="a_Node000027"><a xlink:href="testKinetics_8cpp.html#aecb5ba8faf06279dca27fa2fe90d620e" target="_top" xlink:title=" ">
<polygon fill="#fff0f0" stroke="red" points="125.5,-685 17.5,-685 17.5,-666 125.5,-666 125.5,-685"/>
<text text-anchor="middle" x="71.5" y="-673" font-family="Ubuntu Mono" font-size="10.00">testMMenzProcess</text>
</a>
</g>
</g>
<!-- Node14&#45;&gt;Node27 -->
<g id="edge23_Node000014_Node000027" class="edge">
<title>Node14&#45;&gt;Node27</title>
<g id="a_edge23_Node000014_Node000027"><a xlink:title=" ">
<path fill="none" stroke="#63b8ff" d="M215.36,-783.93C202.48,-781.26 189.38,-776.57 179,-768.5 150.13,-746.05 171.19,-717.8 143,-694.5 137.92,-690.3 131.99,-687.02 125.78,-684.47"/>
<polygon fill="#63b8ff" stroke="#63b8ff" points="215.13,-787.44 225.57,-785.66 216.3,-780.54 215.13,-787.44"/>
</a>
</g>
</g>
<!-- Node29 -->
<g id="Node000029" class="node">
<title>Node29</title>
<g id="a_Node000029"><a xlink:href="testBuiltins_8cpp.html#ae0ef11dccb7ea317c737e2b6c18f7a82" target="_top" xlink:title=" ">
<polygon fill="white" stroke="#666666" points="121,-648 22,-648 22,-629 121,-629 121,-648"/>
<text text-anchor="middle" x="71.5" y="-636" font-family="Ubuntu Mono" font-size="10.00">testMpiFibonacci</text>
</a>
</g>
</g>
<!-- Node14&#45;&gt;Node29 -->
<g id="edge24_Node000014_Node000029" class="edge">
<title>Node14&#45;&gt;Node29</title>
<g id="a_edge24_Node000014_Node000029"><a xlink:title=" ">
<path fill="none" stroke="#63b8ff" d="M215.68,-785.09C202.44,-782.48 189.07,-777.52 179,-768.5 140.37,-733.89 180.58,-693.24 143,-657.5 136.94,-651.73 129.31,-647.68 121.34,-644.84"/>
<polygon fill="#63b8ff" stroke="#63b8ff" points="215.29,-788.57 225.71,-786.66 216.38,-781.66 215.29,-788.57"/>
</a>
</g>
</g>
<!-- Node30 -->
<g id="Node000030" class="node">
<title>Node30</title>
<g id="a_Node000030"><a xlink:href="testKsolve_8cpp.html#a5c674b9e01f6de9aa1bc59b30b478732" target="_top" xlink:title=" ">
<polygon fill="#fff0f0" stroke="red" points="115.5,-611 27.5,-611 27.5,-592 115.5,-592 115.5,-611"/>
<text text-anchor="middle" x="71.5" y="-599" font-family="Ubuntu Mono" font-size="10.00">testRunGsolve</text>
</a>
</g>
</g>
<!-- Node14&#45;&gt;Node30 -->
<g id="edge25_Node000014_Node000030" class="edge">
<title>Node14&#45;&gt;Node30</title>
<g id="a_edge25_Node000014_Node000030"><a xlink:title=" ">
<path fill="none" stroke="#63b8ff" d="M215.59,-785.64C202.23,-783.06 188.81,-777.98 179,-768.5 130.31,-721.47 190.27,-668.95 143,-620.5 135.65,-612.97 125.66,-608.32 115.51,-605.49"/>
<polygon fill="#63b8ff" stroke="#63b8ff" points="215.33,-789.14 225.74,-787.17 216.37,-782.22 215.33,-789.14"/>
</a>
</g>
</g>
<!-- Node32 -->
<g id="Node000032" class="node">
<title>Node32</title>
<g id="a_Node000032"><a xlink:href="testKsolve_8cpp.html#ac26dd54083d1323f446df615420b29c4" target="_top" xlink:title=" ">
<polygon fill="#fff0f0" stroke="red" points="115,-574 28,-574 28,-555 115,-555 115,-574"/>
<text text-anchor="middle" x="71.5" y="-562" font-family="Ubuntu Mono" font-size="10.00">testRunKsolve</text>
</a>
</g>
</g>
<!-- Node14&#45;&gt;Node32 -->
<g id="edge26_Node000014_Node000032" class="edge">
<title>Node14&#45;&gt;Node32</title>
<g id="a_edge26_Node000014_Node000032"><a xlink:title=" ">
<path fill="none" stroke="#63b8ff" d="M215.67,-786C202.18,-783.44 188.68,-778.29 179,-768.5 120.12,-708.92 200.09,-644.8 143,-583.5 135.66,-575.62 125.42,-570.87 115.01,-568.05"/>
<polygon fill="#63b8ff" stroke="#63b8ff" points="215.51,-789.52 225.91,-787.48 216.52,-782.59 215.51,-789.52"/>
</a>
</g>
</g>
<!-- Node33 -->
<g id="Node000033" class="node">
<title>Node33</title>
<g id="a_Node000033"><a xlink:href="testKsolve_8cpp.html#a9668b431312f7fdd499139cd42e12084" target="_top" xlink:title=" ">
<polygon fill="white" stroke="#666666" points="143,-537 0,-537 0,-518 143,-518 143,-537"/>
<text text-anchor="middle" x="71.5" y="-525" font-family="Ubuntu Mono" font-size="10.00">testRunKsolveWithLSODA</text>
</a>
</g>
</g>
<!-- Node14&#45;&gt;Node33 -->
<g id="edge27_Node000014_Node000033" class="edge">
<title>Node14&#45;&gt;Node33</title>
<g id="a_edge27_Node000014_Node000033"><a xlink:title=" ">
<path fill="none" stroke="#63b8ff" d="M215.47,-786.19C201.98,-783.64 188.52,-778.44 179,-768.5 109.87,-696.31 209.97,-620.71 143,-546.5 139.52,-542.64 135.34,-539.53 130.79,-537.03"/>
<polygon fill="#63b8ff" stroke="#63b8ff" points="215.33,-789.71 225.73,-787.66 216.33,-782.78 215.33,-789.71"/>
</a>
</g>
</g>
<!-- Node34 -->
<g id="Node000034" class="node">
<title>Node34</title>
<g id="a_Node000034"><a xlink:href="testKsolve_8cpp.html#ae6e4d05873e453809a5efca4f3784664" target="_top" xlink:title=" ">
<polygon fill="#fff0f0" stroke="red" points="115,-500 28,-500 28,-481 115,-481 115,-500"/>
<text text-anchor="middle" x="71.5" y="-488" font-family="Ubuntu Mono" font-size="10.00">testSetupReac</text>
</a>
</g>
</g>
<!-- Node14&#45;&gt;Node34 -->
<g id="edge28_Node000014_Node000034" class="edge">
<title>Node14&#45;&gt;Node34</title>
<g id="a_edge28_Node000014_Node000034"><a xlink:title=" ">
<path fill="none" stroke="#63b8ff" d="M215.32,-786.33C201.83,-783.78 188.41,-778.55 179,-768.5 99.57,-683.66 219.88,-596.66 143,-509.5 135.87,-501.42 125.71,-496.61 115.3,-493.79"/>
<polygon fill="#63b8ff" stroke="#63b8ff" points="215.2,-789.85 225.59,-787.79 216.19,-782.92 215.2,-789.85"/>
</a>
</g>
</g>
<!-- Node35 -->
<g id="Node000035" class="node">
<title>Node35</title>
<g id="a_Node000035"><a xlink:href="testShell_8cpp.html#ae735a0a41a973dd5976fee234f11149c" target="_top" xlink:title=" ">
<polygon fill="#fff0f0" stroke="red" points="120.5,-463 22.5,-463 22.5,-444 120.5,-444 120.5,-463"/>
<text text-anchor="middle" x="71.5" y="-451" font-family="Ubuntu Mono" font-size="10.00">testShellAddMsg</text>
</a>
</g>
</g>
<!-- Node14&#45;&gt;Node35 -->
<g id="edge29_Node000014_Node000035" class="edge">
<title>Node14&#45;&gt;Node35</title>
<g id="a_edge29_Node000014_Node000035"><a xlink:title=" ">
<path fill="none" stroke="#63b8ff" d="M215.98,-786.57C202.22,-784.08 188.5,-778.82 179,-768.5 89.26,-670.98 229.81,-572.63 143,-472.5 137.1,-465.7 129.06,-461.21 120.5,-458.27"/>
<polygon fill="#63b8ff" stroke="#63b8ff" points="215.56,-790.05 225.94,-787.93 216.5,-783.11 215.56,-790.05"/>
</a>
</g>
</g>
</g>
</svg>

<g id="navigator" transform="translate(0 0)" fill="#404254">
  <rect fill="#f2f5e9" fill-opacity="0.5" stroke="#606060" stroke-width=".5" x="0" y="0" width="60" height="60"/>
  <use id="zoomplus" xlink:href="#zoomPlus" x="17" y="9" onmousedown="handleZoom(evt,'in')"/>
  <use id="zoomminus" xlink:href="#zoomMin" x="42" y="9" onmousedown="handleZoom(evt,'out')"/>
  <use id="reset" xlink:href="#resetDef" x="30" y="36" onmousedown="handleReset()"/>
   <use id="arrowup" xlink:href="#arrowUp" x="0" y="0" onmousedown="handlePan(0,-1)"/>
  <use id="arrowright" xlink:href="#arrowRight" x="0" y="0" onmousedown="handlePan(1,0)"/>
  <use id="arrowdown" xlink:href="#arrowDown" x="0" y="0" onmousedown="handlePan(0,1)"/>
  <use id="arrowleft" xlink:href="#arrowLeft" x="0" y="0" onmousedown="handlePan(-1,0)"/>
</g>
<svg viewBox="0 0 15 15" width="100%" height="30px" preserveAspectRatio="xMaxYMin meet">
 <g id="arrow_out" transform="scale(0.3 0.3)">
  <a xlink:href="classObjId_a1e5933713d6a73550b0923cf63f5bfd8_icgraph_org.svg" target="_base">
   <rect id="button" ry="5" rx="5" y="6" x="6" height="38" width="38"
        fill="#f2f5e9" fill-opacity="0.5" stroke="#606060" stroke-width="1.0"/>
   <path id="arrow"
     d="M 11.500037,31.436501 C 11.940474,20.09759 22.043105,11.32322 32.158766,21.979434 L 37.068811,17.246167 C 37.068811,17.246167 37.088388,32 37.088388,32 L 22.160133,31.978069 C 22.160133,31.978069 26.997745,27.140456 26.997745,27.140456 C 18.528582,18.264221 13.291696,25.230495 11.500037,31.436501 z"
     style="fill:#404040;"/>
  </a>
 </g>
</svg>

<style type='text/css'>
<![CDATA[
[data-mouse-over-selected='false'] { opacity: 0.7; }
[data-mouse-over-selected='true']  { opacity: 1.0; }
]]>
</style>
<script type="application/ecmascript"><![CDATA[
document.addEventListener('DOMContentLoaded', (event) => {
  highlightEdges();
  highlightAdjacentNodes();
});
]]></script>
</svg>
