<?xml version="1.0" encoding="UTF-8" standalone="no"?>
<!DOCTYPE svg PUBLIC "-//W3C//DTD SVG 1.1//EN"
 "http://www.w3.org/Graphics/SVG/1.1/DTD/svg11.dtd">
<!-- Generated by graphviz version 2.43.0 (0)
 -->
<!-- Title: Dsolve::setConcInit Pages: 1 -->
<svg width="510pt" height="101pt"
 viewBox="0.00 0.00 510.00 101.00" xmlns="http://www.w3.org/2000/svg" xmlns:xlink="http://www.w3.org/1999/xlink">
<g id="graph0" class="graph" transform="scale(1 1) rotate(0) translate(4 97)">
<title>Dsolve::setConcInit</title>
<!-- Node1 -->
<g id="Node000001" class="node">
<title>Node1</title>
<g id="a_Node000001"><a xlink:title="Set initial conc of molecules in given pool and voxel. Bdry cond.">
<polygon fill="#999999" stroke="#666666" points="111,-56 0,-56 0,-37 111,-37 111,-56"/>
<text text-anchor="middle" x="55.5" y="-44" font-family="Ubuntu Mono" font-size="10.00">Dsolve::setConcInit</text>
</a>
</g>
</g>
<!-- Node2 -->
<g id="Node000002" class="node">
<title>Node2</title>
<g id="a_Node000002"><a xlink:href="classDsolve.html#a8b291f8e61e5cf358e4953d81ea37f99" target="_top" xlink:title=" ">
<polygon fill="white" stroke="#666666" points="308,-93 147,-93 147,-74 308,-74 308,-93"/>
<text text-anchor="middle" x="227.5" y="-81" font-family="Ubuntu Mono" font-size="10.00">Dsolve::convertIdToPoolIndex</text>
</a>
</g>
</g>
<!-- Node1&#45;&gt;Node2 -->
<g id="edge1_Node000001_Node000002" class="edge">
<title>Node1&#45;&gt;Node2</title>
<g id="a_edge1_Node000001_Node000002"><a xlink:title=" ">
<path fill="none" stroke="#63b8ff" d="M100.28,-56.03C122.3,-60.82 149.2,-66.68 172.5,-71.75"/>
<polygon fill="#63b8ff" stroke="#63b8ff" points="172.06,-75.23 182.57,-73.94 173.55,-68.39 172.06,-75.23"/>
</a>
</g>
</g>
<!-- Node5 -->
<g id="Node000005" class="node">
<title>Node5</title>
<g id="a_Node000005"><a xlink:href="classEref.html#aca13ad32862935d4a33109785d0f01d7" target="_top" xlink:title=" ">
<polygon fill="white" stroke="#666666" points="272.5,-56 182.5,-56 182.5,-37 272.5,-37 272.5,-56"/>
<text text-anchor="middle" x="227.5" y="-44" font-family="Ubuntu Mono" font-size="10.00">Eref::dataIndex</text>
</a>
</g>
</g>
<!-- Node1&#45;&gt;Node5 -->
<g id="edge4_Node000001_Node000005" class="edge">
<title>Node1&#45;&gt;Node5</title>
<g id="a_edge4_Node000001_Node000005"><a xlink:title=" ">
<path fill="none" stroke="#63b8ff" d="M111.22,-46.5C130.72,-46.5 152.67,-46.5 172.14,-46.5"/>
<polygon fill="#63b8ff" stroke="#63b8ff" points="172.37,-50 182.37,-46.5 172.37,-43 172.37,-50"/>
</a>
</g>
</g>
<!-- Node6 -->
<g id="Node000006" class="node">
<title>Node6</title>
<g id="a_Node000006"><a xlink:href="classDiffPoolVec.html#a27dc343a9b07b32492c671ecd151ab8b" target="_top" xlink:title=" ">
<polygon fill="white" stroke="#666666" points="294,-19 161,-19 161,0 294,0 294,-19"/>
<text text-anchor="middle" x="227.5" y="-7" font-family="Ubuntu Mono" font-size="10.00">DiffPoolVec::setConcInit</text>
</a>
</g>
</g>
<!-- Node1&#45;&gt;Node6 -->
<g id="edge5_Node000001_Node000006" class="edge">
<title>Node1&#45;&gt;Node6</title>
<g id="a_edge5_Node000001_Node000006"><a xlink:title=" ">
<path fill="none" stroke="#63b8ff" d="M100.28,-36.97C122.3,-32.18 149.2,-26.32 172.5,-21.25"/>
<polygon fill="#63b8ff" stroke="#63b8ff" points="173.55,-24.61 182.57,-19.06 172.06,-17.77 173.55,-24.61"/>
</a>
</g>
</g>
<!-- Node3 -->
<g id="Node000003" class="node">
<title>Node3</title>
<g id="a_Node000003"><a xlink:href="classEref.html#aa96699f886e00b8eb3759c71cc8747bb" target="_top" xlink:title=" ">
<polygon fill="white" stroke="#666666" points="394,-93 344,-93 344,-74 394,-74 394,-93"/>
<text text-anchor="middle" x="369" y="-81" font-family="Ubuntu Mono" font-size="10.00">Eref::id</text>
</a>
</g>
</g>
<!-- Node2&#45;&gt;Node3 -->
<g id="edge2_Node000002_Node000003" class="edge">
<title>Node2&#45;&gt;Node3</title>
<g id="a_edge2_Node000002_Node000003"><a xlink:title=" ">
<path fill="none" stroke="#63b8ff" d="M308.03,-83.5C316.95,-83.5 325.65,-83.5 333.53,-83.5"/>
<polygon fill="#63b8ff" stroke="#63b8ff" points="333.72,-87 343.72,-83.5 333.72,-80 333.72,-87"/>
</a>
</g>
</g>
<!-- Node4 -->
<g id="Node000004" class="node">
<title>Node4</title>
<g id="a_Node000004"><a xlink:href="classElement.html#a934907c01faf58e21f545d53a54cfefc" target="_top" xlink:title=" ">
<polygon fill="white" stroke="#666666" points="502,-93 430,-93 430,-74 502,-74 502,-93"/>
<text text-anchor="middle" x="466" y="-81" font-family="Ubuntu Mono" font-size="10.00">Element::id</text>
</a>
</g>
</g>
<!-- Node3&#45;&gt;Node4 -->
<g id="edge3_Node000003_Node000004" class="edge">
<title>Node3&#45;&gt;Node4</title>
<g id="a_edge3_Node000003_Node000004"><a xlink:title=" ">
<path fill="none" stroke="#63b8ff" d="M394.46,-83.5C402.21,-83.5 411.03,-83.5 419.75,-83.5"/>
<polygon fill="#63b8ff" stroke="#63b8ff" points="419.87,-87 429.87,-83.5 419.87,-80 419.87,-87"/>
</a>
</g>
</g>
</g>
</svg>
