<?xml version="1.0" encoding="UTF-8" standalone="no"?>
<!DOCTYPE svg PUBLIC "-//W3C//DTD SVG 1.1//EN"
 "http://www.w3.org/Graphics/SVG/1.1/DTD/svg11.dtd">
<!-- Generated by graphviz version 2.43.0 (0)
 -->
<!-- Title: Stoich::makeHalfReaction Pages: 1 -->
<!--zoomable 177 -->

<svg id="main" version="1.1" xmlns="http://www.w3.org/2000/svg" xmlns:xlink="http://www.w3.org/1999/xlink" xml:space="preserve" onload="init(evt)">
<style type="text/css"><![CDATA[
.node, .edge {opacity: 0.7;}
.node.selected, .edge.selected {opacity: 1;}
.edge:hover path { stroke: red; }
.edge:hover polygon { stroke: red; fill: red; }
]]></style>

<defs>
  <circle id="rim" cx="0" cy="0" r="7"/>
  <circle id="rim2" cx="0" cy="0" r="3.5"/>
  <g id="zoomPlus">
    <use xlink:href="#rim" fill="#404040"><set attributeName="fill" to="#808080" begin="zoomplus.mouseover" end="zoomplus.mouseout"/></use>
    <path d="M-4,0h8M0,-4v8" fill="none" stroke="white" stroke-width="1.5" pointer-events="none"/>
  </g>
  <g id="zoomMin">
    <use xlink:href="#rim" fill="#404040"><set attributeName="fill" to="#808080" begin="zoomminus.mouseover" end="zoomminus.mouseout"/></use>
    <path d="M-4,0h8" fill="none" stroke="white" stroke-width="1.5" pointer-events="none"/>
  </g>
  <g id="arrowUp" transform="translate(30 24)">
    <use xlink:href="#rim"/>
    <path pointer-events="none" fill="none" stroke="white" stroke-width="1.5" d="M0,-3.0v7 M-2.5,-0.5L0,-3.0L2.5,-0.5"/>
  </g>
  <g id="arrowRight" transform="rotate(90) translate(36 -43)">
    <use xlink:href="#rim"/>
    <path pointer-events="none" fill="none" stroke="white" stroke-width="1.5" d="M0,-3.0v7 M-2.5,-0.5L0,-3.0L2.5,-0.5"/>
  </g>
  <g id="arrowDown" transform="rotate(180) translate(-30 -48)">
    <use xlink:href="#rim"/>
    <path pointer-events="none" fill="none" stroke="white" stroke-width="1.5" d="M0,-3.0v7 M-2.5,-0.5L0,-3.0L2.5,-0.5"/>
  </g>
  <g id="arrowLeft" transform="rotate(270) translate(-36 17)">
    <use xlink:href="#rim"/>
    <path pointer-events="none" fill="none" stroke="white" stroke-width="1.5" d="M0,-3.0v7 M-2.5,-0.5L0,-3.0L2.5,-0.5"/>
  </g>
  <g id="resetDef">
    <use xlink:href="#rim2" fill="#404040"><set attributeName="fill" to="#808080" begin="reset.mouseover" end="reset.mouseout"/></use>
  </g>
</defs>
<script type="application/ecmascript">
var viewWidth = 502;
var viewHeight = 177;
var sectionId = 'dynsection-84';
</script>
<script type="application/ecmascript" xlink:href="svg.min.js"/>
<svg id="graph" class="graph">
<g id="viewport">
<title>Stoich::makeHalfReaction</title>
<!-- Node1 -->
<g id="Node000001" class="node">
<title>Node1</title>
<g id="a_Node000001"><a xlink:title="Utility function to make a half reac and return the rate term.">
<polygon fill="#999999" stroke="#666666" points="143,-94 0,-94 0,-75 143,-75 143,-94"/>
<text text-anchor="middle" x="71.5" y="-82" font-family="Ubuntu Mono" font-size="10.00">Stoich::makeHalfReaction</text>
</a>
</g>
</g>
<!-- Node2 -->
<g id="Node000002" class="node">
<title>Node2</title>
<g id="a_Node000002"><a xlink:href="classStoich.html#a0eeca8773e3b19ad9b771a9efc66d5ed" target="_top" xlink:title=" ">
<polygon fill="white" stroke="#666666" points="336,-169 179,-169 179,-150 336,-150 336,-169"/>
<text text-anchor="middle" x="257.5" y="-157" font-family="Ubuntu Mono" font-size="10.00">Stoich::convertIdToPoolIndex</text>
</a>
</g>
</g>
<!-- Node1&#45;&gt;Node2 -->
<g id="edge1_Node000001_Node000002" class="edge">
<title>Node1&#45;&gt;Node2</title>
<g id="a_edge1_Node000001_Node000002"><a xlink:title=" ">
<path fill="none" stroke="#63b8ff" d="M87.42,-94.13C107.5,-106.69 144.65,-128.58 179,-141.5 184.77,-143.67 190.88,-145.63 197.04,-147.39"/>
<polygon fill="#63b8ff" stroke="#63b8ff" points="196.16,-150.78 206.72,-149.99 197.97,-144.01 196.16,-150.78"/>
</a>
</g>
</g>
<!-- Node3 -->
<g id="Node000003" class="node">
<title>Node3</title>
<g id="a_Node000003"><a xlink:href="classFirstOrder.html#af465953753329ce1b18fc8bd4b847630" target="_top" xlink:title=" ">
<polygon fill="white" stroke="#666666" points="317,-132 198,-132 198,-113 317,-113 317,-132"/>
<text text-anchor="middle" x="257.5" y="-120" font-family="Ubuntu Mono" font-size="10.00">FirstOrder::FirstOrder</text>
</a>
</g>
</g>
<!-- Node1&#45;&gt;Node3 -->
<g id="edge2_Node000001_Node000003" class="edge">
<title>Node1&#45;&gt;Node3</title>
<g id="a_edge2_Node000001_Node000003"><a xlink:title=" ">
<path fill="none" stroke="#63b8ff" d="M118.93,-94.09C143.65,-99.19 174.24,-105.51 200.29,-110.89"/>
<polygon fill="#63b8ff" stroke="#63b8ff" points="199.9,-114.39 210.4,-112.98 201.32,-107.53 199.9,-114.39"/>
</a>
</g>
</g>
<!-- Node4 -->
<g id="Node000004" class="node">
<title>Node4</title>
<g id="a_Node000004"><a xlink:href="classZeroOrder.html#ad578154a7360bc42bd883465270b8dbf" target="_top" xlink:title=" ">
<polygon fill="white" stroke="#666666" points="494,-75 372,-75 372,-56 494,-56 494,-75"/>
<text text-anchor="middle" x="433" y="-63" font-family="Ubuntu Mono" font-size="10.00">ZeroOrder::ZeroOrder</text>
</a>
</g>
</g>
<!-- Node1&#45;&gt;Node4 -->
<g id="edge8_Node000001_Node000004" class="edge">
<title>Node1&#45;&gt;Node4</title>
<g id="a_edge8_Node000001_Node000004"><a xlink:title=" ">
<path fill="none" stroke="#63b8ff" d="M143.1,-80.77C206.24,-77.43 298.31,-72.57 361.45,-69.23"/>
<polygon fill="#63b8ff" stroke="#63b8ff" points="361.91,-72.71 371.71,-68.69 361.54,-65.72 361.91,-72.71"/>
</a>
</g>
</g>
<!-- Node5 -->
<g id="Node000005" class="node">
<title>Node5</title>
<g id="a_Node000005"><a xlink:href="classNOrder.html#adfee440fb72270cdfc207a4a1f26eda4" target="_top" xlink:title=" ">
<polygon fill="white" stroke="#666666" points="303.5,-56 211.5,-56 211.5,-37 303.5,-37 303.5,-56"/>
<text text-anchor="middle" x="257.5" y="-44" font-family="Ubuntu Mono" font-size="10.00">NOrder::NOrder</text>
</a>
</g>
</g>
<!-- Node1&#45;&gt;Node5 -->
<g id="edge4_Node000001_Node000005" class="edge">
<title>Node1&#45;&gt;Node5</title>
<g id="a_edge4_Node000001_Node000005"><a xlink:title=" ">
<path fill="none" stroke="#63b8ff" d="M118.93,-74.91C144.04,-69.73 175.21,-63.29 201.53,-57.85"/>
<polygon fill="#63b8ff" stroke="#63b8ff" points="202.27,-61.27 211.36,-55.82 200.85,-54.42 202.27,-61.27"/>
</a>
</g>
</g>
<!-- Node6 -->
<g id="Node000006" class="node">
<title>Node6</title>
<g id="a_Node000006"><a xlink:href="classSecondOrder.html#aab31eb29b84bcd474aeec476d2a37357" target="_top" xlink:title=" ">
<polygon fill="white" stroke="#666666" points="331,-19 184,-19 184,0 331,0 331,-19"/>
<text text-anchor="middle" x="257.5" y="-7" font-family="Ubuntu Mono" font-size="10.00">SecondOrder::SecondOrder</text>
</a>
</g>
</g>
<!-- Node1&#45;&gt;Node6 -->
<g id="edge6_Node000001_Node000006" class="edge">
<title>Node1&#45;&gt;Node6</title>
<g id="a_edge6_Node000001_Node000006"><a xlink:title=" ">
<path fill="none" stroke="#63b8ff" d="M87.82,-74.91C108.03,-62.62 145.01,-41.38 179,-28.5 185.68,-25.97 192.81,-23.69 199.94,-21.65"/>
<polygon fill="#63b8ff" stroke="#63b8ff" points="200.89,-25.03 209.63,-19.04 199.06,-18.27 200.89,-25.03"/>
</a>
</g>
</g>
<!-- Node3&#45;&gt;Node4 -->
<g id="edge3_Node000003_Node000004" class="edge">
<title>Node3&#45;&gt;Node4</title>
<g id="a_edge3_Node000003_Node000004"><a xlink:title=" ">
<path fill="none" stroke="#63b8ff" d="M290.24,-112.91C304.3,-108.6 321,-103.4 336,-98.5 355.65,-92.08 377.44,-84.62 395.29,-78.41"/>
<polygon fill="#63b8ff" stroke="#63b8ff" points="396.47,-81.71 404.76,-75.11 394.17,-75.1 396.47,-81.71"/>
</a>
</g>
</g>
<!-- Node5&#45;&gt;Node4 -->
<g id="edge5_Node000005_Node000004" class="edge">
<title>Node5&#45;&gt;Node4</title>
<g id="a_edge5_Node000005_Node000004"><a xlink:title=" ">
<path fill="none" stroke="#63b8ff" d="M303.63,-51.44C321.33,-53.38 342.06,-55.65 361.63,-57.79"/>
<polygon fill="#63b8ff" stroke="#63b8ff" points="361.42,-61.29 371.74,-58.9 362.18,-54.33 361.42,-61.29"/>
</a>
</g>
</g>
<!-- Node6&#45;&gt;Node4 -->
<g id="edge7_Node000006_Node000004" class="edge">
<title>Node6&#45;&gt;Node4</title>
<g id="a_edge7_Node000006_Node000004"><a xlink:title=" ">
<path fill="none" stroke="#63b8ff" d="M301.81,-19.09C313.03,-21.85 325.03,-25.06 336,-28.5 357.67,-35.3 381.49,-44.47 399.99,-51.98"/>
<polygon fill="#63b8ff" stroke="#63b8ff" points="398.82,-55.29 409.4,-55.85 401.48,-48.81 398.82,-55.29"/>
</a>
</g>
</g>
</g>
</svg>

<g id="navigator" transform="translate(0 0)" fill="#404254">
  <rect fill="#f2f5e9" fill-opacity="0.5" stroke="#606060" stroke-width=".5" x="0" y="0" width="60" height="60"/>
  <use id="zoomplus" xlink:href="#zoomPlus" x="17" y="9" onmousedown="handleZoom(evt,'in')"/>
  <use id="zoomminus" xlink:href="#zoomMin" x="42" y="9" onmousedown="handleZoom(evt,'out')"/>
  <use id="reset" xlink:href="#resetDef" x="30" y="36" onmousedown="handleReset()"/>
   <use id="arrowup" xlink:href="#arrowUp" x="0" y="0" onmousedown="handlePan(0,-1)"/>
  <use id="arrowright" xlink:href="#arrowRight" x="0" y="0" onmousedown="handlePan(1,0)"/>
  <use id="arrowdown" xlink:href="#arrowDown" x="0" y="0" onmousedown="handlePan(0,1)"/>
  <use id="arrowleft" xlink:href="#arrowLeft" x="0" y="0" onmousedown="handlePan(-1,0)"/>
</g>
<svg viewBox="0 0 15 15" width="100%" height="30px" preserveAspectRatio="xMaxYMin meet">
 <g id="arrow_out" transform="scale(0.3 0.3)">
  <a xlink:href="classStoich_a299133482ccfce38d615907472c68d78_cgraph_org.svg" target="_base">
   <rect id="button" ry="5" rx="5" y="6" x="6" height="38" width="38"
        fill="#f2f5e9" fill-opacity="0.5" stroke="#606060" stroke-width="1.0"/>
   <path id="arrow"
     d="M 11.500037,31.436501 C 11.940474,20.09759 22.043105,11.32322 32.158766,21.979434 L 37.068811,17.246167 C 37.068811,17.246167 37.088388,32 37.088388,32 L 22.160133,31.978069 C 22.160133,31.978069 26.997745,27.140456 26.997745,27.140456 C 18.528582,18.264221 13.291696,25.230495 11.500037,31.436501 z"
     style="fill:#404040;"/>
  </a>
 </g>
</svg>

<style type='text/css'>
<![CDATA[
[data-mouse-over-selected='false'] { opacity: 0.7; }
[data-mouse-over-selected='true']  { opacity: 1.0; }
]]>
</style>
<script type="application/ecmascript"><![CDATA[
document.addEventListener('DOMContentLoaded', (event) => {
  highlightEdges();
  highlightAdjacentNodes();
});
]]></script>
</svg>
