<?xml version="1.0" encoding="UTF-8" standalone="no"?>
<!DOCTYPE svg PUBLIC "-//W3C//DTD SVG 1.1//EN"
 "http://www.w3.org/Graphics/SVG/1.1/DTD/svg11.dtd">
<!-- Generated by graphviz version 2.43.0 (0)
 -->
<!-- Title: MarkovRateTable::getListOfConstantRates Pages: 1 -->
<svg width="844pt" height="38pt"
 viewBox="0.00 0.00 844.00 38.00" xmlns="http://www.w3.org/2000/svg" xmlns:xlink="http://www.w3.org/1999/xlink">
<g id="graph0" class="graph" transform="scale(1 1) rotate(0) translate(4 34)">
<title>MarkovRateTable::getListOfConstantRates</title>
<!-- Node1 -->
<g id="Node000001" class="node">
<title>Node1</title>
<g id="a_Node000001"><a xlink:title=" ">
<polygon fill="#999999" stroke="#666666" points="836,-30 696,-30 696,0 836,0 836,-30"/>
<text text-anchor="start" x="704" y="-18" font-family="Ubuntu Mono" font-size="10.00">MarkovRateTable::getList</text>
<text text-anchor="middle" x="766" y="-7" font-family="Ubuntu Mono" font-size="10.00">OfConstantRates</text>
</a>
</g>
</g>
<!-- Node2 -->
<g id="Node000002" class="node">
<title>Node2</title>
<g id="a_Node000002"><a xlink:href="classMarkovSolverBase.html#adfacc80226d6417e728d81f092e15c6c" target="_top" xlink:title=" ">
<polygon fill="white" stroke="#666666" points="660,-30 523,-30 523,0 660,0 660,-30"/>
<text text-anchor="start" x="531" y="-18" font-family="Ubuntu Mono" font-size="10.00">MarkovSolverBase::fillup</text>
<text text-anchor="middle" x="591.5" y="-7" font-family="Ubuntu Mono" font-size="10.00">Table</text>
</a>
</g>
</g>
<!-- Node1&#45;&gt;Node2 -->
<g id="edge1_Node000001_Node000002" class="edge">
<title>Node1&#45;&gt;Node2</title>
<g id="a_edge1_Node000001_Node000002"><a xlink:title=" ">
<path fill="none" stroke="#63b8ff" d="M685.58,-15C677.13,-15 668.58,-15 660.28,-15"/>
<polygon fill="#63b8ff" stroke="#63b8ff" points="685.83,-18.5 695.83,-15 685.83,-11.5 685.83,-18.5"/>
</a>
</g>
</g>
<!-- Node3 -->
<g id="Node000003" class="node">
<title>Node3</title>
<g id="a_Node000003"><a xlink:href="classMarkovSolverBase.html#a7d7019f4bb80b05815ede3c4252d2b51" target="_top" xlink:title=" ">
<polygon fill="white" stroke="#666666" points="487,-24.5 358,-24.5 358,-5.5 487,-5.5 487,-24.5"/>
<text text-anchor="middle" x="422.5" y="-12.5" font-family="Ubuntu Mono" font-size="10.00">MarkovSolverBase::init</text>
</a>
</g>
</g>
<!-- Node2&#45;&gt;Node3 -->
<g id="edge2_Node000002_Node000003" class="edge">
<title>Node2&#45;&gt;Node3</title>
<g id="a_edge2_Node000002_Node000003"><a xlink:title=" ">
<path fill="none" stroke="#63b8ff" d="M512.31,-15C503.85,-15 495.31,-15 487.05,-15"/>
<polygon fill="#63b8ff" stroke="#63b8ff" points="512.57,-18.5 522.57,-15 512.57,-11.5 512.57,-18.5"/>
</a>
</g>
</g>
<!-- Node4 -->
<g id="Node000004" class="node">
<title>Node4</title>
<g id="a_Node000004"><a xlink:href="classMarkovSolverBase.html#a8d94098ef919eb390369a92c6d551500" target="_top" xlink:title=" ">
<polygon fill="white" stroke="#666666" points="322,-24.5 167,-24.5 167,-5.5 322,-5.5 322,-24.5"/>
<text text-anchor="middle" x="244.5" y="-12.5" font-family="Ubuntu Mono" font-size="10.00">MarkovSolverBase::initCinfo</text>
</a>
</g>
</g>
<!-- Node3&#45;&gt;Node4 -->
<g id="edge3_Node000003_Node000004" class="edge">
<title>Node3&#45;&gt;Node4</title>
<g id="a_edge3_Node000003_Node000004"><a xlink:title=" ">
<path fill="none" stroke="#63b8ff" d="M347.75,-15C339.29,-15 330.65,-15 322.15,-15"/>
<polygon fill="#63b8ff" stroke="#63b8ff" points="347.96,-18.5 357.96,-15 347.96,-11.5 347.96,-18.5"/>
</a>
</g>
</g>
<!-- Node5 -->
<g id="Node000005" class="node">
<title>Node5</title>
<g id="a_Node000005"><a xlink:href="classMarkovSolver.html#a780b0cc742d99f1eef6996f08f85bf34" target="_top" xlink:title=" ">
<polygon fill="white" stroke="#666666" points="131,-24.5 0,-24.5 0,-5.5 131,-5.5 131,-24.5"/>
<text text-anchor="middle" x="65.5" y="-12.5" font-family="Ubuntu Mono" font-size="10.00">MarkovSolver::initCinfo</text>
</a>
</g>
</g>
<!-- Node4&#45;&gt;Node5 -->
<g id="edge4_Node000004_Node000005" class="edge">
<title>Node4&#45;&gt;Node5</title>
<g id="a_edge4_Node000004_Node000005"><a xlink:title=" ">
<path fill="none" stroke="#63b8ff" d="M156.75,-15C148.09,-15 139.4,-15 131.03,-15"/>
<polygon fill="#63b8ff" stroke="#63b8ff" points="156.89,-18.5 166.89,-15 156.89,-11.5 156.89,-18.5"/>
</a>
</g>
</g>
</g>
</svg>
