<?xml version="1.0" encoding="UTF-8" standalone="no"?>
<!DOCTYPE svg PUBLIC "-//W3C//DTD SVG 1.1//EN"
 "http://www.w3.org/Graphics/SVG/1.1/DTD/svg11.dtd">
<!-- Generated by graphviz version 2.43.0 (0)
 -->
<!-- Title: HHChannel::innerDestroyGate Pages: 1 -->
<!--zoomable 643 -->

<svg id="main" version="1.1" xmlns="http://www.w3.org/2000/svg" xmlns:xlink="http://www.w3.org/1999/xlink" xml:space="preserve" onload="init(evt)">
<style type="text/css"><![CDATA[
.node, .edge {opacity: 0.7;}
.node.selected, .edge.selected {opacity: 1;}
.edge:hover path { stroke: red; }
.edge:hover polygon { stroke: red; fill: red; }
]]></style>

<defs>
  <circle id="rim" cx="0" cy="0" r="7"/>
  <circle id="rim2" cx="0" cy="0" r="3.5"/>
  <g id="zoomPlus">
    <use xlink:href="#rim" fill="#404040"><set attributeName="fill" to="#808080" begin="zoomplus.mouseover" end="zoomplus.mouseout"/></use>
    <path d="M-4,0h8M0,-4v8" fill="none" stroke="white" stroke-width="1.5" pointer-events="none"/>
  </g>
  <g id="zoomMin">
    <use xlink:href="#rim" fill="#404040"><set attributeName="fill" to="#808080" begin="zoomminus.mouseover" end="zoomminus.mouseout"/></use>
    <path d="M-4,0h8" fill="none" stroke="white" stroke-width="1.5" pointer-events="none"/>
  </g>
  <g id="arrowUp" transform="translate(30 24)">
    <use xlink:href="#rim"/>
    <path pointer-events="none" fill="none" stroke="white" stroke-width="1.5" d="M0,-3.0v7 M-2.5,-0.5L0,-3.0L2.5,-0.5"/>
  </g>
  <g id="arrowRight" transform="rotate(90) translate(36 -43)">
    <use xlink:href="#rim"/>
    <path pointer-events="none" fill="none" stroke="white" stroke-width="1.5" d="M0,-3.0v7 M-2.5,-0.5L0,-3.0L2.5,-0.5"/>
  </g>
  <g id="arrowDown" transform="rotate(180) translate(-30 -48)">
    <use xlink:href="#rim"/>
    <path pointer-events="none" fill="none" stroke="white" stroke-width="1.5" d="M0,-3.0v7 M-2.5,-0.5L0,-3.0L2.5,-0.5"/>
  </g>
  <g id="arrowLeft" transform="rotate(270) translate(-36 17)">
    <use xlink:href="#rim"/>
    <path pointer-events="none" fill="none" stroke="white" stroke-width="1.5" d="M0,-3.0v7 M-2.5,-0.5L0,-3.0L2.5,-0.5"/>
  </g>
  <g id="resetDef">
    <use xlink:href="#rim2" fill="#404040"><set attributeName="fill" to="#808080" begin="reset.mouseover" end="reset.mouseout"/></use>
  </g>
</defs>
<script type="application/ecmascript">
var viewWidth = 1123;
var viewHeight = 643;
var sectionId = 'dynsection-15';
</script>
<script type="application/ecmascript" xlink:href="svg.min.js"/>
<svg id="graph" class="graph">
<g id="viewport">
<title>HHChannel::innerDestroyGate</title>
<!-- Node1 -->
<g id="Node000001" class="node">
<title>Node1</title>
<g id="a_Node000001"><a xlink:title=" ">
<polygon fill="#999999" stroke="#666666" points="164,-336 0,-336 0,-317 164,-317 164,-336"/>
<text text-anchor="middle" x="82" y="-324" font-family="Ubuntu Mono" font-size="10.00">HHChannel::innerDestroyGate</text>
</a>
</g>
</g>
<!-- Node2 -->
<g id="Node000002" class="node">
<title>Node2</title>
<g id="a_Node000002"><a xlink:href="classId.html#ad0984685af5a98bc7aa429b03a97bd01" target="_top" xlink:title=" ">
<polygon fill="white" stroke="#666666" points="253,-336 200,-336 200,-317 253,-317 253,-336"/>
<text text-anchor="middle" x="226.5" y="-324" font-family="Ubuntu Mono" font-size="10.00">Id::path</text>
</a>
</g>
</g>
<!-- Node1&#45;&gt;Node2 -->
<g id="edge1_Node000001_Node000002" class="edge">
<title>Node1&#45;&gt;Node2</title>
<g id="a_edge1_Node000001_Node000002"><a xlink:title=" ">
<path fill="none" stroke="#63b8ff" d="M164.24,-326.5C173.09,-326.5 181.73,-326.5 189.61,-326.5"/>
<polygon fill="#63b8ff" stroke="#63b8ff" points="189.81,-330 199.81,-326.5 189.81,-323 189.81,-330"/>
</a>
</g>
</g>
<!-- Node3 -->
<g id="Node000003" class="node">
<title>Node3</title>
<g id="a_Node000003"><a xlink:href="classId.html#adac7a40d04024a7b9dcb7eae7b9fdf9b" target="_top" xlink:title=" ">
<polygon fill="white" stroke="#666666" points="485.5,-618 434.5,-618 434.5,-599 485.5,-599 485.5,-618"/>
<text text-anchor="middle" x="460" y="-606" font-family="Ubuntu Mono" font-size="10.00">Id::eref</text>
</a>
</g>
</g>
<!-- Node2&#45;&gt;Node3 -->
<g id="edge2_Node000002_Node000003" class="edge">
<title>Node2&#45;&gt;Node3</title>
<g id="a_edge2_Node000002_Node000003"><a xlink:title=" ">
<path fill="none" stroke="#63b8ff" d="M231.35,-336.24C246.94,-374.43 309.09,-515.42 405,-589.5 410.71,-593.91 417.52,-597.34 424.35,-600"/>
<polygon fill="#63b8ff" stroke="#63b8ff" points="423.65,-603.46 434.24,-603.37 425.9,-596.84 423.65,-603.46"/>
</a>
</g>
</g>
<!-- Node6 -->
<g id="Node000006" class="node">
<title>Node6</title>
<g id="a_Node000006"><a xlink:href="classNeutral.html#a93bee6d27f95c8c4c7eb3640cd883a98" target="_top" xlink:title=" ">
<polygon fill="white" stroke="#666666" points="369,-317 289,-317 289,-298 369,-298 369,-317"/>
<text text-anchor="middle" x="329" y="-305" font-family="Ubuntu Mono" font-size="10.00">Neutral::path</text>
</a>
</g>
</g>
<!-- Node2&#45;&gt;Node6 -->
<g id="edge5_Node000002_Node000006" class="edge">
<title>Node2&#45;&gt;Node6</title>
<g id="a_edge5_Node000002_Node000006"><a xlink:title=" ">
<path fill="none" stroke="#63b8ff" d="M253.12,-321.66C260.98,-320.17 269.91,-318.48 278.79,-316.8"/>
<polygon fill="#63b8ff" stroke="#63b8ff" points="279.57,-320.22 288.74,-314.92 278.27,-313.34 279.57,-320.22"/>
</a>
</g>
</g>
<!-- Node4 -->
<g id="Node000004" class="node">
<title>Node4</title>
<g id="a_Node000004"><a xlink:href="classId.html#a2d5e7b4d5d918aadfe45102691c2be27" target="_top" xlink:title=" ">
<polygon fill="white" stroke="#666666" points="1115,-617 1038,-617 1038,-598 1115,-598 1115,-617"/>
<text text-anchor="middle" x="1076.5" y="-605" font-family="Ubuntu Mono" font-size="10.00">Id::elements</text>
</a>
</g>
</g>
<!-- Node3&#45;&gt;Node4 -->
<g id="edge3_Node000003_Node000004" class="edge">
<title>Node3&#45;&gt;Node4</title>
<g id="a_edge3_Node000003_Node000004"><a xlink:title=" ">
<path fill="none" stroke="#63b8ff" d="M485.61,-615.14C503.58,-619.64 528.6,-625.16 551,-627.5 725.97,-645.77 935.34,-625.11 1027.71,-613.85"/>
<polygon fill="#63b8ff" stroke="#63b8ff" points="1028.36,-617.29 1037.86,-612.59 1027.5,-610.34 1028.36,-617.29"/>
</a>
</g>
</g>
<!-- Node5 -->
<g id="Node000005" class="node">
<title>Node5</title>
<g id="a_Node000005"><a xlink:href="classEref.html#a3addb850bc6cbac7771a07de219d909d" target="_top" xlink:title=" ">
<polygon fill="white" stroke="#666666" points="672.5,-618 611.5,-618 611.5,-599 672.5,-599 672.5,-618"/>
<text text-anchor="middle" x="642" y="-606" font-family="Ubuntu Mono" font-size="10.00">Eref::Eref</text>
</a>
</g>
</g>
<!-- Node3&#45;&gt;Node5 -->
<g id="edge4_Node000003_Node000005" class="edge">
<title>Node3&#45;&gt;Node5</title>
<g id="a_edge4_Node000003_Node000005"><a xlink:title=" ">
<path fill="none" stroke="#63b8ff" d="M485.65,-608.5C515.32,-608.5 565.54,-608.5 600.83,-608.5"/>
<polygon fill="#63b8ff" stroke="#63b8ff" points="601.27,-612 611.27,-608.5 601.27,-605 601.27,-612"/>
</a>
</g>
</g>
<!-- Node7 -->
<g id="Node000007" class="node">
<title>Node7</title>
<g id="a_Node000007"><a xlink:href="classEref.html#a47b59ab86165cceb0bde80c76c3f7fa2" target="_top" xlink:title=" ">
<polygon fill="white" stroke="#666666" points="501,-391 419,-391 419,-372 501,-372 501,-391"/>
<text text-anchor="middle" x="460" y="-379" font-family="Ubuntu Mono" font-size="10.00">Eref::element</text>
</a>
</g>
</g>
<!-- Node6&#45;&gt;Node7 -->
<g id="edge6_Node000006_Node000007" class="edge">
<title>Node6&#45;&gt;Node7</title>
<g id="a_edge6_Node000006_Node000007"><a xlink:title=" ">
<path fill="none" stroke="#63b8ff" d="M340.44,-317.03C354.3,-329.24 379.94,-350.4 405,-363.5 408.3,-365.23 411.81,-366.83 415.38,-368.32"/>
<polygon fill="#63b8ff" stroke="#63b8ff" points="414.31,-371.66 424.9,-371.98 416.82,-365.13 414.31,-371.66"/>
</a>
</g>
</g>
<!-- Node8 -->
<g id="Node000008" class="node">
<title>Node8</title>
<g id="a_Node000008"><a xlink:href="classObjId.html#ad87d6d712e4bceb381d1d324aa137d6e" target="_top" xlink:title=" ">
<polygon fill="white" stroke="#666666" points="858,-541 769,-541 769,-522 858,-522 858,-541"/>
<text text-anchor="middle" x="813.5" y="-529" font-family="Ubuntu Mono" font-size="10.00">ObjId::element</text>
</a>
</g>
</g>
<!-- Node6&#45;&gt;Node8 -->
<g id="edge7_Node000006_Node000008" class="edge">
<title>Node6&#45;&gt;Node8</title>
<g id="a_edge7_Node000006_Node000008"><a xlink:title=" ">
<path fill="none" stroke="#63b8ff" d="M331.41,-317.36C336.02,-345.79 353.5,-428.34 405,-466.5 523.38,-554.21 588,-488.42 733,-514.5 741.98,-516.11 751.49,-518 760.69,-519.91"/>
<polygon fill="#63b8ff" stroke="#63b8ff" points="760.01,-523.34 770.52,-521.99 761.46,-516.49 760.01,-523.34"/>
</a>
</g>
</g>
<!-- Node10 -->
<g id="Node000010" class="node">
<title>Node10</title>
<g id="a_Node000010"><a xlink:href="classObjId.html#a76a3d4b89944235a24eff983030a5e91" target="_top" xlink:title=" ">
<polygon fill="white" stroke="#666666" points="494,-580 426,-580 426,-561 494,-561 494,-580"/>
<text text-anchor="middle" x="460" y="-568" font-family="Ubuntu Mono" font-size="10.00">ObjId::eref</text>
</a>
</g>
</g>
<!-- Node6&#45;&gt;Node10 -->
<g id="edge10_Node000006_Node000010" class="edge">
<title>Node6&#45;&gt;Node10</title>
<g id="a_edge10_Node000006_Node000010"><a xlink:title=" ">
<path fill="none" stroke="#63b8ff" d="M332.42,-317.15C343.28,-360.21 387.81,-533.6 405,-551.5 408.35,-554.99 412.38,-557.84 416.71,-560.17"/>
<polygon fill="#63b8ff" stroke="#63b8ff" points="415.34,-563.38 425.9,-564.24 418.18,-556.99 415.34,-563.38"/>
</a>
</g>
</g>
<!-- Node11 -->
<g id="Node000011" class="node">
<title>Node11</title>
<g id="a_Node000011"><a xlink:href="classEref.html#aed748cb72c986c869e4c650dd28d8d02" target="_top" xlink:title=" ">
<polygon fill="white" stroke="#666666" points="504.5,-354 415.5,-354 415.5,-335 504.5,-335 504.5,-354"/>
<text text-anchor="middle" x="460" y="-342" font-family="Ubuntu Mono" font-size="10.00">Eref::fieldIndex</text>
</a>
</g>
</g>
<!-- Node6&#45;&gt;Node11 -->
<g id="edge13_Node000006_Node000011" class="edge">
<title>Node6&#45;&gt;Node11</title>
<g id="a_edge13_Node000006_Node000011"><a xlink:title=" ">
<path fill="none" stroke="#63b8ff" d="M363.22,-317.03C379.2,-321.61 398.55,-327.16 415.67,-332.07"/>
<polygon fill="#63b8ff" stroke="#63b8ff" points="414.87,-335.48 425.44,-334.88 416.8,-328.75 414.87,-335.48"/>
</a>
</g>
</g>
<!-- Node12 -->
<g id="Node000012" class="node">
<title>Node12</title>
<g id="a_Node000012"><a xlink:href="classElement.html#a3c07cf6355e6127827ce67682e3bb2a0" target="_top" xlink:title=" ">
<polygon fill="white" stroke="#666666" points="515,-428 405,-428 405,-409 515,-409 515,-428"/>
<text text-anchor="middle" x="460" y="-416" font-family="Ubuntu Mono" font-size="10.00">Element::findCaller</text>
</a>
</g>
</g>
<!-- Node6&#45;&gt;Node12 -->
<g id="edge14_Node000006_Node000012" class="edge">
<title>Node6&#45;&gt;Node12</title>
<g id="a_edge14_Node000006_Node000012"><a xlink:title=" ">
<path fill="none" stroke="#63b8ff" d="M335.25,-317.18C345.92,-335.98 371.95,-377.55 405,-400.5 407.21,-402.03 409.55,-403.44 411.99,-404.74"/>
<polygon fill="#63b8ff" stroke="#63b8ff" points="410.53,-407.92 421.07,-408.95 413.47,-401.57 410.53,-407.92"/>
</a>
</g>
</g>
<!-- Node16 -->
<g id="Node000016" class="node">
<title>Node16</title>
<g id="a_Node000016"><a xlink:href="classMsg.html#a1a57001709e44ab056a704c24760c105" target="_top" xlink:title=" ">
<polygon fill="white" stroke="#666666" points="681.5,-466 602.5,-466 602.5,-447 681.5,-447 681.5,-466"/>
<text text-anchor="middle" x="642" y="-454" font-family="Ubuntu Mono" font-size="10.00">Msg::getMsg</text>
</a>
</g>
</g>
<!-- Node6&#45;&gt;Node16 -->
<g id="edge29_Node000006_Node000016" class="edge">
<title>Node6&#45;&gt;Node16</title>
<g id="a_edge29_Node000006_Node000016"><a xlink:title=" ">
<path fill="none" stroke="#63b8ff" d="M332.27,-317.16C338.72,-342.12 359.64,-408.81 405,-437.5 461.55,-473.27 541.61,-471.23 592.41,-465"/>
<polygon fill="#63b8ff" stroke="#63b8ff" points="593.02,-468.45 602.48,-463.67 592.1,-461.51 593.02,-468.45"/>
</a>
</g>
</g>
<!-- Node23 -->
<g id="Node000023" class="node">
<title>Node23</title>
<g id="a_Node000023"><a xlink:href="classCinfo.html#a7642d2a9ffe54cc8008df39de171ab63" target="_top" xlink:title=" ">
<polygon fill="white" stroke="#666666" points="505,-280 415,-280 415,-261 505,-261 505,-280"/>
<text text-anchor="middle" x="460" y="-268" font-family="Ubuntu Mono" font-size="10.00">Cinfo::findFinfo</text>
</a>
</g>
</g>
<!-- Node6&#45;&gt;Node23 -->
<g id="edge26_Node000006_Node000023" class="edge">
<title>Node6&#45;&gt;Node23</title>
<g id="a_edge26_Node000006_Node000023"><a xlink:title=" ">
<path fill="none" stroke="#63b8ff" d="M363.22,-297.97C379.2,-293.39 398.55,-287.84 415.67,-282.93"/>
<polygon fill="#63b8ff" stroke="#63b8ff" points="416.8,-286.25 425.44,-280.12 414.87,-279.52 416.8,-286.25"/>
</a>
</g>
</g>
<!-- Node24 -->
<g id="Node000024" class="node">
<title>Node24</title>
<g id="a_Node000024"><a xlink:href="classMsg.html#a326ed96ece35f632b16de59838db6c29" target="_top" xlink:title=" ">
<polygon fill="white" stroke="#666666" points="513,-243 407,-243 407,-224 513,-224 513,-243"/>
<text text-anchor="middle" x="460" y="-231" font-family="Ubuntu Mono" font-size="10.00">Msg::findOtherEnd</text>
</a>
</g>
</g>
<!-- Node6&#45;&gt;Node24 -->
<g id="edge27_Node000006_Node000024" class="edge">
<title>Node6&#45;&gt;Node24</title>
<g id="a_edge27_Node000006_Node000024"><a xlink:title=" ">
<path fill="none" stroke="#63b8ff" d="M340.99,-297.81C355.02,-285.83 380.44,-265.46 405,-252.5 408.96,-250.41 413.21,-248.46 417.51,-246.68"/>
<polygon fill="#63b8ff" stroke="#63b8ff" points="418.86,-249.91 426.93,-243.04 416.34,-243.38 418.86,-249.91"/>
</a>
</g>
</g>
<!-- Node25 -->
<g id="Node000025" class="node">
<title>Node25</title>
<g id="a_Node000025"><a xlink:href="classDestFinfo.html#a6efef23ddcfbaef03eca8aa75fdd98cd" target="_top" xlink:title=" ">
<polygon fill="white" stroke="#666666" points="509.5,-206 410.5,-206 410.5,-187 509.5,-187 509.5,-206"/>
<text text-anchor="middle" x="460" y="-194" font-family="Ubuntu Mono" font-size="10.00">DestFinfo::getFid</text>
</a>
</g>
</g>
<!-- Node6&#45;&gt;Node25 -->
<g id="edge28_Node000006_Node000025" class="edge">
<title>Node6&#45;&gt;Node25</title>
<g id="a_edge28_Node000006_Node000025"><a xlink:title=" ">
<path fill="none" stroke="#63b8ff" d="M335.31,-297.97C346.09,-279.47 372.29,-238.49 405,-215.5 407.72,-213.59 410.66,-211.85 413.71,-210.27"/>
<polygon fill="#63b8ff" stroke="#63b8ff" points="415.41,-213.34 423.07,-206.02 412.52,-206.97 415.41,-213.34"/>
</a>
</g>
</g>
<!-- Node26 -->
<g id="Node000026" class="node">
<title>Node26</title>
<g id="a_Node000026"><a xlink:href="classElement.html#a1a2068a4e70da0f951bc3e73b758ef4a" target="_top" xlink:title=" ">
<polygon fill="white" stroke="#666666" points="514,-169 406,-169 406,-150 514,-150 514,-169"/>
<text text-anchor="middle" x="460" y="-157" font-family="Ubuntu Mono" font-size="10.00">Element::getName</text>
</a>
</g>
</g>
<!-- Node6&#45;&gt;Node26 -->
<g id="edge30_Node000006_Node000026" class="edge">
<title>Node6&#45;&gt;Node26</title>
<g id="a_edge30_Node000006_Node000026"><a xlink:title=" ">
<path fill="none" stroke="#63b8ff" d="M332.93,-297.75C340.65,-273.71 363.82,-211.11 405,-177.5 406.58,-176.21 408.25,-175.01 410,-173.9"/>
<polygon fill="#63b8ff" stroke="#63b8ff" points="412.01,-176.79 419.19,-169.01 408.72,-170.62 412.01,-176.79"/>
</a>
</g>
</g>
<!-- Node27 -->
<g id="Node000027" class="node">
<title>Node27</title>
<g id="a_Node000027"><a xlink:href="classElement.html#a8489d936deee408d78042cf199694bb5" target="_top" xlink:title=" ">
<polygon fill="white" stroke="#666666" points="514.5,-132 405.5,-132 405.5,-113 514.5,-113 514.5,-132"/>
<text text-anchor="middle" x="460" y="-120" font-family="Ubuntu Mono" font-size="10.00">Element::hasFields</text>
</a>
</g>
</g>
<!-- Node6&#45;&gt;Node27 -->
<g id="edge31_Node000006_Node000027" class="edge">
<title>Node6&#45;&gt;Node27</title>
<g id="a_edge31_Node000006_Node000027"><a xlink:title=" ">
<path fill="none" stroke="#63b8ff" d="M331.6,-297.6C336.74,-268.97 355.5,-185.27 405,-140.5 406.31,-139.32 407.7,-138.21 409.15,-137.17"/>
<polygon fill="#63b8ff" stroke="#63b8ff" points="411.15,-140.06 418.04,-132.01 407.64,-134.01 411.15,-140.06"/>
</a>
</g>
</g>
<!-- Node28 -->
<g id="Node000028" class="node">
<title>Node28</title>
<g id="a_Node000028"><a xlink:href="classId.html#ac094968605676d63b55ca33b7e318948" target="_top" xlink:title=" ">
<polygon fill="white" stroke="#666666" points="662.5,-76 621.5,-76 621.5,-57 662.5,-57 662.5,-76"/>
<text text-anchor="middle" x="642" y="-64" font-family="Ubuntu Mono" font-size="10.00">Id::Id</text>
</a>
</g>
</g>
<!-- Node6&#45;&gt;Node28 -->
<g id="edge32_Node000006_Node000028" class="edge">
<title>Node6&#45;&gt;Node28</title>
<g id="a_edge32_Node000006_Node000028"><a xlink:title=" ">
<path fill="none" stroke="#63b8ff" d="M329.43,-297.93C327.78,-260.56 327.36,-123.65 405,-66.5 466.33,-21.36 563,-41.76 611.37,-56.33"/>
<polygon fill="#63b8ff" stroke="#63b8ff" points="610.62,-59.77 621.21,-59.42 612.71,-53.09 610.62,-59.77"/>
</a>
</g>
</g>
<!-- Node29 -->
<g id="Node000029" class="node">
<title>Node29</title>
<g id="a_Node000029"><a xlink:href="classObjId.html#aad3d714ee57757ed3754a58edc9ad4a9" target="_top" xlink:title=" ">
<polygon fill="white" stroke="#666666" points="497,-95 423,-95 423,-76 497,-76 497,-95"/>
<text text-anchor="middle" x="460" y="-83" font-family="Ubuntu Mono" font-size="10.00">ObjId::ObjId</text>
</a>
</g>
</g>
<!-- Node6&#45;&gt;Node29 -->
<g id="edge33_Node000006_Node000029" class="edge">
<title>Node6&#45;&gt;Node29</title>
<g id="a_edge33_Node000006_Node000029"><a xlink:title=" ">
<path fill="none" stroke="#63b8ff" d="M330.67,-297.82C333.45,-265.48 346.76,-159.98 405,-103.5 407.56,-101.02 410.47,-98.88 413.59,-97.03"/>
<polygon fill="#63b8ff" stroke="#63b8ff" points="415.3,-100.09 422.77,-92.57 412.24,-93.79 415.3,-100.09"/>
</a>
</g>
</g>
<!-- Node30 -->
<g id="Node000030" class="node">
<title>Node30</title>
<g id="a_Node000030"><a xlink:href="classEref.html#ab305a4ab972b50443b7d35cfd516861a" target="_top" xlink:title=" ">
<polygon fill="white" stroke="#666666" points="492.5,-317 427.5,-317 427.5,-298 492.5,-298 492.5,-317"/>
<text text-anchor="middle" x="460" y="-305" font-family="Ubuntu Mono" font-size="10.00">Eref::objId</text>
</a>
</g>
</g>
<!-- Node6&#45;&gt;Node30 -->
<g id="edge35_Node000006_Node000030" class="edge">
<title>Node6&#45;&gt;Node30</title>
<g id="a_edge35_Node000006_Node000030"><a xlink:title=" ">
<path fill="none" stroke="#63b8ff" d="M369.05,-307.5C384.24,-307.5 401.66,-307.5 417.11,-307.5"/>
<polygon fill="#63b8ff" stroke="#63b8ff" points="417.43,-311 427.43,-307.5 417.43,-304 417.43,-311"/>
</a>
</g>
</g>
<!-- Node32 -->
<g id="Node000032" class="node">
<title>Node32</title>
<g id="a_Node000032"><a xlink:href="classId.html#a6a4a7d5c9e8524644febc6b6e8dc1ab9" target="_top" xlink:title=" ">
<polygon fill="white" stroke="#666666" points="502.5,-19 417.5,-19 417.5,0 502.5,0 502.5,-19"/>
<text text-anchor="middle" x="460" y="-7" font-family="Ubuntu Mono" font-size="10.00">Id::operator!=</text>
</a>
</g>
</g>
<!-- Node6&#45;&gt;Node32 -->
<g id="edge38_Node000006_Node000032" class="edge">
<title>Node6&#45;&gt;Node32</title>
<g id="a_edge38_Node000006_Node000032"><a xlink:title=" ">
<path fill="none" stroke="#63b8ff" d="M329.84,-297.91C329.7,-259.65 334.12,-115.98 405,-33.5 408.18,-29.8 412.03,-26.65 416.21,-23.97"/>
<polygon fill="#63b8ff" stroke="#63b8ff" points="418.01,-26.97 425.11,-19.11 414.66,-20.83 418.01,-26.97"/>
</a>
</g>
</g>
<!-- Node33 -->
<g id="Node000033" class="node">
<title>Node33</title>
<g id="a_Node000033"><a xlink:href="classObjId.html#a6a7e5a3ee84c58803fe025943941e67e" target="_top" xlink:title=" ">
<polygon fill="white" stroke="#666666" points="513,-542 407,-542 407,-523 513,-523 513,-542"/>
<text text-anchor="middle" x="460" y="-530" font-family="Ubuntu Mono" font-size="10.00">ObjId::operator==</text>
</a>
</g>
</g>
<!-- Node6&#45;&gt;Node33 -->
<g id="edge39_Node000006_Node000033" class="edge">
<title>Node6&#45;&gt;Node33</title>
<g id="a_edge39_Node000006_Node000033"><a xlink:title=" ">
<path fill="none" stroke="#63b8ff" d="M330.98,-317.27C334.67,-348.99 350.39,-450.44 405,-508.5 408.56,-512.28 412.81,-515.5 417.36,-518.24"/>
<polygon fill="#63b8ff" stroke="#63b8ff" points="415.86,-521.41 426.34,-522.93 419.1,-515.2 415.86,-521.41"/>
</a>
</g>
</g>
<!-- Node9 -->
<g id="Node000009" class="node">
<title>Node9</title>
<g id="a_Node000009"><a xlink:href="classId.html#a574e06330597163aef0ea4c99de7ff4a" target="_top" xlink:title="Synonym for Id::operator()()">
<polygon fill="white" stroke="#666666" points="984,-560 912,-560 912,-541 984,-541 984,-560"/>
<text text-anchor="middle" x="948" y="-548" font-family="Ubuntu Mono" font-size="10.00">Id::element</text>
</a>
</g>
</g>
<!-- Node8&#45;&gt;Node9 -->
<g id="edge8_Node000008_Node000009" class="edge">
<title>Node8&#45;&gt;Node9</title>
<g id="a_edge8_Node000008_Node000009"><a xlink:title=" ">
<path fill="none" stroke="#63b8ff" d="M858.25,-537.77C872.2,-539.77 887.67,-541.99 901.72,-544.01"/>
<polygon fill="#63b8ff" stroke="#63b8ff" points="901.27,-547.48 911.67,-545.43 902.27,-540.55 901.27,-547.48"/>
</a>
</g>
</g>
<!-- Node9&#45;&gt;Node4 -->
<g id="edge9_Node000009_Node000004" class="edge">
<title>Node9&#45;&gt;Node4</title>
<g id="a_edge9_Node000009_Node000004"><a xlink:title=" ">
<path fill="none" stroke="#63b8ff" d="M970.17,-560.04C990.61,-569.25 1021.76,-583.28 1044.89,-593.71"/>
<polygon fill="#63b8ff" stroke="#63b8ff" points="1043.7,-597.01 1054.26,-597.93 1046.58,-590.63 1043.7,-597.01"/>
</a>
</g>
</g>
<!-- Node10&#45;&gt;Node5 -->
<g id="edge12_Node000010_Node000005" class="edge">
<title>Node10&#45;&gt;Node5</title>
<g id="a_edge12_Node000010_Node000005"><a xlink:title=" ">
<path fill="none" stroke="#63b8ff" d="M494.01,-577.47C524.33,-583.87 569.29,-593.36 601.5,-600.16"/>
<polygon fill="#63b8ff" stroke="#63b8ff" points="600.97,-603.63 611.48,-602.27 602.41,-596.78 600.97,-603.63"/>
</a>
</g>
</g>
<!-- Node10&#45;&gt;Node9 -->
<g id="edge11_Node000010_Node000009" class="edge">
<title>Node10&#45;&gt;Node9</title>
<g id="a_edge11_Node000010_Node000009"><a xlink:title=" ">
<path fill="none" stroke="#63b8ff" d="M494.02,-569.14C578.95,-565.65 805.05,-556.34 901.92,-552.36"/>
<polygon fill="#63b8ff" stroke="#63b8ff" points="902.14,-555.85 911.98,-551.94 901.85,-548.86 902.14,-555.85"/>
</a>
</g>
</g>
<!-- Node13 -->
<g id="Node000013" class="node">
<title>Node13</title>
<g id="a_Node000013"><a xlink:href="classMsg.html#a5be9f4dd643f5f662e8fb3c029273390" target="_top" xlink:title=" ">
<polygon fill="white" stroke="#666666" points="669.5,-429 614.5,-429 614.5,-410 669.5,-410 669.5,-429"/>
<text text-anchor="middle" x="642" y="-417" font-family="Ubuntu Mono" font-size="10.00">Msg::e1</text>
</a>
</g>
</g>
<!-- Node12&#45;&gt;Node13 -->
<g id="edge15_Node000012_Node000013" class="edge">
<title>Node12&#45;&gt;Node13</title>
<g id="a_edge15_Node000012_Node000013"><a xlink:title=" ">
<path fill="none" stroke="#63b8ff" d="M515.01,-418.8C543.77,-418.96 578.4,-419.15 604.07,-419.29"/>
<polygon fill="#63b8ff" stroke="#63b8ff" points="604.11,-422.8 614.13,-419.35 604.15,-415.8 604.11,-422.8"/>
</a>
</g>
</g>
<!-- Node14 -->
<g id="Node000014" class="node">
<title>Node14</title>
<g id="a_Node000014"><a xlink:href="classMsg.html#a893ed6b44cd4c529f0f10af38ae6743a" target="_top" xlink:title=" ">
<polygon fill="white" stroke="#666666" points="669.5,-392 614.5,-392 614.5,-373 669.5,-373 669.5,-392"/>
<text text-anchor="middle" x="642" y="-380" font-family="Ubuntu Mono" font-size="10.00">Msg::e2</text>
</a>
</g>
</g>
<!-- Node12&#45;&gt;Node14 -->
<g id="edge16_Node000012_Node000014" class="edge">
<title>Node12&#45;&gt;Node14</title>
<g id="a_edge16_Node000012_Node000014"><a xlink:title=" ">
<path fill="none" stroke="#63b8ff" d="M508.76,-408.95C538.69,-402.96 576.66,-395.37 604.24,-389.85"/>
<polygon fill="#63b8ff" stroke="#63b8ff" points="605.14,-393.24 614.26,-387.85 603.76,-386.38 605.14,-393.24"/>
</a>
</g>
</g>
<!-- Node15 -->
<g id="Node000015" class="node">
<title>Node15</title>
<g id="a_Node000015"><a xlink:href="classElement.html#a0f7aa6c77f30cb8865cdd0a0dde03854" target="_top" xlink:title=" ">
<polygon fill="white" stroke="#666666" points="701,-355 583,-355 583,-336 701,-336 701,-355"/>
<text text-anchor="middle" x="642" y="-343" font-family="Ubuntu Mono" font-size="10.00">Element::findBinding</text>
</a>
</g>
</g>
<!-- Node12&#45;&gt;Node15 -->
<g id="edge17_Node000012_Node000015" class="edge">
<title>Node12&#45;&gt;Node15</title>
<g id="a_edge17_Node000012_Node000015"><a xlink:title=" ">
<path fill="none" stroke="#63b8ff" d="M497.48,-408.92C503.56,-406.61 509.62,-403.83 515,-400.5 534.25,-388.6 531.11,-375.28 551,-364.5 557.81,-360.81 565.27,-357.83 572.89,-355.44"/>
<polygon fill="#63b8ff" stroke="#63b8ff" points="573.92,-358.78 582.6,-352.7 572.02,-352.05 573.92,-358.78"/>
</a>
</g>
</g>
<!-- Node12&#45;&gt;Node16 -->
<g id="edge18_Node000012_Node000016" class="edge">
<title>Node12&#45;&gt;Node16</title>
<g id="a_edge18_Node000012_Node000016"><a xlink:title=" ">
<path fill="none" stroke="#63b8ff" d="M503.08,-428.05C518.18,-431.42 535.34,-435.19 551,-438.5 564.42,-441.33 578.99,-444.29 592.41,-446.98"/>
<polygon fill="#63b8ff" stroke="#63b8ff" points="591.93,-450.45 602.42,-448.97 593.3,-443.59 591.93,-450.45"/>
</a>
</g>
</g>
<!-- Node20 -->
<g id="Node000020" class="node">
<title>Node20</title>
<g id="a_Node000020"><a xlink:href="classMsgFuncBinding.html#ad0172d166d6629ed092500ea64473eb5" target="_top" xlink:title=" ">
<polygon fill="white" stroke="#666666" points="733,-318 551,-318 551,-299 733,-299 733,-318"/>
<text text-anchor="middle" x="642" y="-306" font-family="Ubuntu Mono" font-size="10.00">MsgFuncBinding::MsgFuncBinding</text>
</a>
</g>
</g>
<!-- Node12&#45;&gt;Node20 -->
<g id="edge23_Node000012_Node000020" class="edge">
<title>Node12&#45;&gt;Node20</title>
<g id="a_edge23_Node000012_Node000020"><a xlink:title=" ">
<path fill="none" stroke="#63b8ff" d="M501.57,-408.99C506.43,-406.73 511.05,-403.94 515,-400.5 542.26,-376.72 522.43,-349.69 551,-327.5 553.31,-325.71 555.74,-324.08 558.28,-322.59"/>
<polygon fill="#63b8ff" stroke="#63b8ff" points="559.88,-325.7 567.23,-318.08 556.73,-319.45 559.88,-325.7"/>
</a>
</g>
</g>
<!-- Node22 -->
<g id="Node000022" class="node">
<title>Node22</title>
<g id="a_Node000022"><a xlink:href="classObjId.html#ab6b120d314aab5abc3ea8bb7ead5ae41" target="_top" xlink:title=" ">
<polygon fill="white" stroke="#666666" points="679,-281 605,-281 605,-262 679,-262 679,-281"/>
<text text-anchor="middle" x="642" y="-269" font-family="Ubuntu Mono" font-size="10.00">ObjId::ObjId</text>
</a>
</g>
</g>
<!-- Node12&#45;&gt;Node22 -->
<g id="edge25_Node000012_Node000022" class="edge">
<title>Node12&#45;&gt;Node22</title>
<g id="a_edge25_Node000012_Node000022"><a xlink:title=" ">
<path fill="none" stroke="#63b8ff" d="M503.12,-408.96C507.5,-406.71 511.59,-403.93 515,-400.5 551.27,-364.03 512.71,-324.85 551,-290.5 562.9,-279.83 579.24,-274.59 594.75,-272.18"/>
<polygon fill="#63b8ff" stroke="#63b8ff" points="595.25,-275.65 604.76,-270.97 594.41,-268.7 595.25,-275.65"/>
</a>
</g>
</g>
<!-- Node17 -->
<g id="Node000017" class="node">
<title>Node17</title>
<g id="a_Node000017"><a xlink:href="classObjId.html#a1e5933713d6a73550b0923cf63f5bfd8" target="_top" xlink:title=" ">
<polygon fill="white" stroke="#666666" points="848.5,-475 778.5,-475 778.5,-456 848.5,-456 848.5,-475"/>
<text text-anchor="middle" x="813.5" y="-463" font-family="Ubuntu Mono" font-size="10.00">ObjId::data</text>
</a>
</g>
</g>
<!-- Node16&#45;&gt;Node17 -->
<g id="edge19_Node000016_Node000017" class="edge">
<title>Node16&#45;&gt;Node17</title>
<g id="a_edge19_Node000016_Node000017"><a xlink:title=" ">
<path fill="none" stroke="#63b8ff" d="M681.89,-458.56C707.6,-459.93 741.37,-461.72 768.13,-463.14"/>
<polygon fill="#63b8ff" stroke="#63b8ff" points="768.21,-466.65 778.39,-463.69 768.59,-459.66 768.21,-466.65"/>
</a>
</g>
</g>
<!-- Node17&#45;&gt;Node9 -->
<g id="edge21_Node000017_Node000009" class="edge">
<title>Node17&#45;&gt;Node9</title>
<g id="a_edge21_Node000017_Node000009"><a xlink:title=" ">
<path fill="none" stroke="#63b8ff" d="M829.44,-475.09C852.3,-489.75 896.17,-517.89 923.38,-535.35"/>
<polygon fill="#63b8ff" stroke="#63b8ff" points="921.6,-538.37 931.91,-540.82 925.38,-532.47 921.6,-538.37"/>
</a>
</g>
</g>
<!-- Node18 -->
<g id="Node000018" class="node">
<title>Node18</title>
<g id="a_Node000018"><a xlink:href="classElement.html#a1978a0a584f1b10ea4a7c67e69880042" target="_top" xlink:title=" ">
<polygon fill="white" stroke="#666666" points="990.5,-494 905.5,-494 905.5,-475 990.5,-475 990.5,-494"/>
<text text-anchor="middle" x="948" y="-482" font-family="Ubuntu Mono" font-size="10.00">Element::data</text>
</a>
</g>
</g>
<!-- Node17&#45;&gt;Node18 -->
<g id="edge20_Node000017_Node000018" class="edge">
<title>Node17&#45;&gt;Node18</title>
<g id="a_edge20_Node000017_Node000018"><a xlink:title=" ">
<path fill="none" stroke="#63b8ff" d="M848.62,-470.39C862.84,-472.43 879.66,-474.84 895.33,-477.09"/>
<polygon fill="#63b8ff" stroke="#63b8ff" points="895.03,-480.58 905.43,-478.54 896.02,-473.65 895.03,-480.58"/>
</a>
</g>
</g>
<!-- Node19 -->
<g id="Node000019" class="node">
<title>Node19</title>
<g id="a_Node000019"><a xlink:href="classElement.html#a73a0e468a3d6cfd6475fff4a56459075" target="_top" xlink:title=" ">
<polygon fill="white" stroke="#666666" points="1002,-457 894,-457 894,-438 1002,-438 1002,-457"/>
<text text-anchor="middle" x="948" y="-445" font-family="Ubuntu Mono" font-size="10.00">Element::rawIndex</text>
</a>
</g>
</g>
<!-- Node17&#45;&gt;Node19 -->
<g id="edge22_Node000017_Node000019" class="edge">
<title>Node17&#45;&gt;Node19</title>
<g id="a_edge22_Node000017_Node000019"><a xlink:title=" ">
<path fill="none" stroke="#63b8ff" d="M848.62,-460.86C859.4,-459.4 871.69,-457.73 883.83,-456.08"/>
<polygon fill="#63b8ff" stroke="#63b8ff" points="884.52,-459.52 893.96,-454.71 883.58,-452.58 884.52,-459.52"/>
</a>
</g>
</g>
<!-- Node21 -->
<g id="Node000021" class="node">
<title>Node21</title>
<g id="a_Node000021"><a xlink:href="classObjId.html#a02a8374ceddca0d8f4a672005aef8ffc" target="_top" xlink:title=" ">
<polygon fill="white" stroke="#666666" points="850.5,-318 776.5,-318 776.5,-299 850.5,-299 850.5,-318"/>
<text text-anchor="middle" x="813.5" y="-306" font-family="Ubuntu Mono" font-size="10.00">ObjId::ObjId</text>
</a>
</g>
</g>
<!-- Node20&#45;&gt;Node21 -->
<g id="edge24_Node000020_Node000021" class="edge">
<title>Node20&#45;&gt;Node21</title>
<g id="a_edge24_Node000020_Node000021"><a xlink:title=" ">
<path fill="none" stroke="#63b8ff" d="M733.21,-308.5C744.71,-308.5 756.08,-308.5 766.46,-308.5"/>
<polygon fill="#63b8ff" stroke="#63b8ff" points="766.48,-312 776.48,-308.5 766.48,-305 766.48,-312"/>
</a>
</g>
</g>
<!-- Node29&#45;&gt;Node28 -->
<g id="edge34_Node000029_Node000028" class="edge">
<title>Node29&#45;&gt;Node28</title>
<g id="a_edge34_Node000029_Node000028"><a xlink:title=" ">
<path fill="none" stroke="#63b8ff" d="M497.43,-81.66C530.87,-78.12 579.85,-72.96 611.07,-69.66"/>
<polygon fill="#63b8ff" stroke="#63b8ff" points="611.74,-73.11 621.32,-68.58 611.01,-66.15 611.74,-73.11"/>
</a>
</g>
</g>
<!-- Node30&#45;&gt;Node22 -->
<g id="edge37_Node000030_Node000022" class="edge">
<title>Node30&#45;&gt;Node22</title>
<g id="a_edge37_Node000030_Node000022"><a xlink:title=" ">
<path fill="none" stroke="#63b8ff" d="M492.77,-301.15C521.09,-295.48 562.9,-287.12 594.9,-280.72"/>
<polygon fill="#63b8ff" stroke="#63b8ff" points="595.79,-284.11 604.91,-278.72 594.42,-277.25 595.79,-284.11"/>
</a>
</g>
</g>
<!-- Node31 -->
<g id="Node000031" class="node">
<title>Node31</title>
<g id="a_Node000031"><a xlink:href="classElement.html#a934907c01faf58e21f545d53a54cfefc" target="_top" xlink:title=" ">
<polygon fill="white" stroke="#666666" points="678,-244 606,-244 606,-225 678,-225 678,-244"/>
<text text-anchor="middle" x="642" y="-232" font-family="Ubuntu Mono" font-size="10.00">Element::id</text>
</a>
</g>
</g>
<!-- Node30&#45;&gt;Node31 -->
<g id="edge36_Node000030_Node000031" class="edge">
<title>Node30&#45;&gt;Node31</title>
<g id="a_edge36_Node000030_Node000031"><a xlink:title=" ">
<path fill="none" stroke="#63b8ff" d="M492.66,-299.67C500.28,-297.06 508.19,-293.71 515,-289.5 534.25,-277.6 531.11,-264.28 551,-253.5 564.57,-246.14 580.73,-241.63 595.59,-238.87"/>
<polygon fill="#63b8ff" stroke="#63b8ff" points="596.32,-242.29 605.62,-237.22 595.18,-235.39 596.32,-242.29"/>
</a>
</g>
</g>
<!-- Node34 -->
<g id="Node000034" class="node">
<title>Node34</title>
<g id="a_Node000034"><a xlink:href="classId.html#a38206d79367649ab0056b93e6da3b789" target="_top" xlink:title=" ">
<polygon fill="white" stroke="#666666" points="686.5,-542 597.5,-542 597.5,-523 686.5,-523 686.5,-542"/>
<text text-anchor="middle" x="642" y="-530" font-family="Ubuntu Mono" font-size="10.00">Id::operator==</text>
</a>
</g>
</g>
<!-- Node33&#45;&gt;Node34 -->
<g id="edge40_Node000033_Node000034" class="edge">
<title>Node33&#45;&gt;Node34</title>
<g id="a_edge40_Node000033_Node000034"><a xlink:title=" ">
<path fill="none" stroke="#63b8ff" d="M513.06,-532.5C536.31,-532.5 563.68,-532.5 587.14,-532.5"/>
<polygon fill="#63b8ff" stroke="#63b8ff" points="587.26,-536 597.26,-532.5 587.26,-529 587.26,-536"/>
</a>
</g>
</g>
</g>
</svg>

<g id="navigator" transform="translate(0 0)" fill="#404254">
  <rect fill="#f2f5e9" fill-opacity="0.5" stroke="#606060" stroke-width=".5" x="0" y="0" width="60" height="60"/>
  <use id="zoomplus" xlink:href="#zoomPlus" x="17" y="9" onmousedown="handleZoom(evt,'in')"/>
  <use id="zoomminus" xlink:href="#zoomMin" x="42" y="9" onmousedown="handleZoom(evt,'out')"/>
  <use id="reset" xlink:href="#resetDef" x="30" y="36" onmousedown="handleReset()"/>
   <use id="arrowup" xlink:href="#arrowUp" x="0" y="0" onmousedown="handlePan(0,-1)"/>
  <use id="arrowright" xlink:href="#arrowRight" x="0" y="0" onmousedown="handlePan(1,0)"/>
  <use id="arrowdown" xlink:href="#arrowDown" x="0" y="0" onmousedown="handlePan(0,1)"/>
  <use id="arrowleft" xlink:href="#arrowLeft" x="0" y="0" onmousedown="handlePan(-1,0)"/>
</g>
<svg viewBox="0 0 15 15" width="100%" height="30px" preserveAspectRatio="xMaxYMin meet">
 <g id="arrow_out" transform="scale(0.3 0.3)">
  <a xlink:href="classHHChannel_aa1046d9b6fadc75050bb60c65e271531_cgraph_org.svg" target="_base">
   <rect id="button" ry="5" rx="5" y="6" x="6" height="38" width="38"
        fill="#f2f5e9" fill-opacity="0.5" stroke="#606060" stroke-width="1.0"/>
   <path id="arrow"
     d="M 11.500037,31.436501 C 11.940474,20.09759 22.043105,11.32322 32.158766,21.979434 L 37.068811,17.246167 C 37.068811,17.246167 37.088388,32 37.088388,32 L 22.160133,31.978069 C 22.160133,31.978069 26.997745,27.140456 26.997745,27.140456 C 18.528582,18.264221 13.291696,25.230495 11.500037,31.436501 z"
     style="fill:#404040;"/>
  </a>
 </g>
</svg>

<style type='text/css'>
<![CDATA[
[data-mouse-over-selected='false'] { opacity: 0.7; }
[data-mouse-over-selected='true']  { opacity: 1.0; }
]]>
</style>
<script type="application/ecmascript"><![CDATA[
document.addEventListener('DOMContentLoaded', (event) => {
  highlightEdges();
  highlightAdjacentNodes();
});
]]></script>
</svg>
