<?xml version="1.0" encoding="UTF-8" standalone="no"?>
<!DOCTYPE svg PUBLIC "-//W3C//DTD SVG 1.1//EN"
 "http://www.w3.org/Graphics/SVG/1.1/DTD/svg11.dtd">
<!-- Generated by graphviz version 2.43.0 (0)
 -->
<!-- Title: Dsolve::calcJnChan Pages: 1 -->
<svg width="255pt" height="101pt"
 viewBox="0.00 0.00 255.00 101.00" xmlns="http://www.w3.org/2000/svg" xmlns:xlink="http://www.w3.org/1999/xlink">

<svg id="main" version="1.1" xmlns="http://www.w3.org/2000/svg" xmlns:xlink="http://www.w3.org/1999/xlink" xml:space="preserve" onload="init(evt)">
<style type="text/css"><![CDATA[
.node, .edge {opacity: 0.7;}
.node.selected, .edge.selected {opacity: 1;}
.edge:hover path { stroke: red; }
.edge:hover polygon { stroke: red; fill: red; }
]]></style>
<script type="application/ecmascript" xlink:href="svg.min.js"/>
<svg id="graph" class="graph">
<g id="graph0" class="graph" transform="scale(1 1) rotate(0) translate(4 97)">
<title>Dsolve::calcJnChan</title>
<!-- Node1 -->
<g id="Node000001" class="node">
<title>Node1</title>
<g id="a_Node000001"><a xlink:title=" ">
<polygon fill="#999999" stroke="#666666" points="110,-56 0,-56 0,-37 110,-37 110,-56"/>
<text text-anchor="middle" x="55" y="-44" font-family="Ubuntu Mono" font-size="10.00">Dsolve::calcJnChan</text>
</a>
</g>
</g>
<!-- Node2 -->
<g id="Node000002" class="node">
<title>Node2</title>
<g id="a_Node000002"><a xlink:href="classDiffPoolVec.html#adff89de588238c0796720423f85312ac" target="_top" xlink:title=" ">
<polygon fill="white" stroke="#666666" points="247,-93 146,-93 146,-74 247,-74 247,-93"/>
<text text-anchor="middle" x="196.5" y="-81" font-family="Ubuntu Mono" font-size="10.00">DiffPoolVec::getN</text>
</a>
</g>
</g>
<!-- Node1&#45;&gt;Node2 -->
<g id="edge1_Node000001_Node000002" class="edge">
<title>Node1&#45;&gt;Node2</title>
<g id="a_edge1_Node000001_Node000002"><a xlink:title=" ">
<path fill="none" stroke="#63b8ff" d="M91.92,-56.03C109.44,-60.67 130.72,-66.32 149.42,-71.28"/>
<polygon fill="#63b8ff" stroke="#63b8ff" points="148.65,-74.69 159.21,-73.88 150.44,-67.93 148.65,-74.69"/>
</a>
</g>
</g>
<!-- Node3 -->
<g id="Node000003" class="node">
<title>Node3</title>
<g id="a_Node000003"><a xlink:href="Dsolve_8cpp.html#a6d4604496e6d004f9e5f51fd96c6acf9" target="_top" xlink:title=" ">
<polygon fill="white" stroke="#666666" points="217,-56 176,-56 176,-37 217,-37 217,-56"/>
<text text-anchor="middle" x="196.5" y="-44" font-family="Ubuntu Mono" font-size="10.00">integ</text>
</a>
</g>
</g>
<!-- Node1&#45;&gt;Node3 -->
<g id="edge2_Node000001_Node000003" class="edge">
<title>Node1&#45;&gt;Node3</title>
<g id="a_edge2_Node000001_Node000003"><a xlink:title=" ">
<path fill="none" stroke="#63b8ff" d="M110.33,-46.5C129.11,-46.5 149.45,-46.5 165.54,-46.5"/>
<polygon fill="#63b8ff" stroke="#63b8ff" points="165.93,-50 175.93,-46.5 165.93,-43 165.93,-50"/>
</a>
</g>
</g>
<!-- Node4 -->
<g id="Node000004" class="node">
<title>Node4</title>
<g id="a_Node000004"><a xlink:href="classDiffPoolVec.html#a2c1afbd06c6d141bbe43060341730534" target="_top" xlink:title=" ">
<polygon fill="white" stroke="#666666" points="247,-19 146,-19 146,0 247,0 247,-19"/>
<text text-anchor="middle" x="196.5" y="-7" font-family="Ubuntu Mono" font-size="10.00">DiffPoolVec::setN</text>
</a>
</g>
</g>
<!-- Node1&#45;&gt;Node4 -->
<g id="edge3_Node000001_Node000004" class="edge">
<title>Node1&#45;&gt;Node4</title>
<g id="a_edge3_Node000001_Node000004"><a xlink:title=" ">
<path fill="none" stroke="#63b8ff" d="M91.92,-36.97C109.44,-32.33 130.72,-26.68 149.42,-21.72"/>
<polygon fill="#63b8ff" stroke="#63b8ff" points="150.44,-25.07 159.21,-19.12 148.65,-18.31 150.44,-25.07"/>
</a>
</g>
</g>
</g>
</svg>
</svg>

<style type='text/css'>
<![CDATA[
[data-mouse-over-selected='false'] { opacity: 0.7; }
[data-mouse-over-selected='true']  { opacity: 1.0; }
]]>
</style>
<script type="application/ecmascript"><![CDATA[
document.addEventListener('DOMContentLoaded', (event) => {
  highlightEdges();
  highlightAdjacentNodes();
});
]]></script>
</svg>
