<?xml version="1.0" encoding="UTF-8" standalone="no"?>
<!DOCTYPE svg PUBLIC "-//W3C//DTD SVG 1.1//EN"
 "http://www.w3.org/Graphics/SVG/1.1/DTD/svg11.dtd">
<!-- Generated by graphviz version 2.43.0 (0)
 -->
<!-- Title: NeuroMesh::putSomaAtStart Pages: 1 -->
<svg width="442pt" height="212pt"
 viewBox="0.00 0.00 442.00 212.00" xmlns="http://www.w3.org/2000/svg" xmlns:xlink="http://www.w3.org/1999/xlink">
<g id="graph0" class="graph" transform="scale(1 1) rotate(0) translate(4 208)">
<title>NeuroMesh::putSomaAtStart</title>
<!-- Node1 -->
<g id="Node000001" class="node">
<title>Node1</title>
<g id="a_Node000001"><a xlink:title="This shuffles the nodes_ vector to put soma node at the start.">
<polygon fill="#999999" stroke="#666666" points="155,-111 0,-111 0,-92 155,-92 155,-111"/>
<text text-anchor="middle" x="77.5" y="-99" font-family="Ubuntu Mono" font-size="10.00">NeuroMesh::putSomaAtStart</text>
</a>
</g>
</g>
<!-- Node2 -->
<g id="Node000002" class="node">
<title>Node2</title>
<g id="a_Node000002"><a xlink:href="classNeuroNode.html#ad8fc3f43e0851b0d42ea6bdf2cdd6552" target="_top" xlink:title=" ">
<polygon fill="white" stroke="#666666" points="321,-204 191,-204 191,-185 321,-185 321,-204"/>
<text text-anchor="middle" x="256" y="-192" font-family="Ubuntu Mono" font-size="10.00">NeuroNode::elecCompt</text>
</a>
</g>
</g>
<!-- Node1&#45;&gt;Node2 -->
<g id="edge1_Node000001_Node000002" class="edge">
<title>Node1&#45;&gt;Node2</title>
<g id="a_edge1_Node000001_Node000002"><a xlink:title=" ">
<path fill="none" stroke="#63b8ff" d="M90.24,-111.16C109.92,-126.93 151.33,-158.26 191,-176.5 195.12,-178.4 199.49,-180.13 203.92,-181.72"/>
<polygon fill="#63b8ff" stroke="#63b8ff" points="203.09,-185.13 213.68,-184.94 205.29,-178.48 203.09,-185.13"/>
</a>
</g>
</g>
<!-- Node3 -->
<g id="Node000003" class="node">
<title>Node3</title>
<g id="a_Node000003"><a xlink:href="classId.html#a574e06330597163aef0ea4c99de7ff4a" target="_top" xlink:title="Synonym for Id::operator()()">
<polygon fill="white" stroke="#666666" points="292,-167 220,-167 220,-148 292,-148 292,-167"/>
<text text-anchor="middle" x="256" y="-155" font-family="Ubuntu Mono" font-size="10.00">Id::element</text>
</a>
</g>
</g>
<!-- Node1&#45;&gt;Node3 -->
<g id="edge2_Node000001_Node000003" class="edge">
<title>Node1&#45;&gt;Node3</title>
<g id="a_edge2_Node000001_Node000003"><a xlink:title=" ">
<path fill="none" stroke="#63b8ff" d="M105.65,-111.11C128.36,-119.04 161.65,-130.42 191,-139.5 197.08,-141.38 203.51,-143.29 209.85,-145.12"/>
<polygon fill="#63b8ff" stroke="#63b8ff" points="209.12,-148.55 219.69,-147.92 211.04,-141.81 209.12,-148.55"/>
</a>
</g>
</g>
<!-- Node5 -->
<g id="Node000005" class="node">
<title>Node5</title>
<g id="a_Node000005"><a xlink:href="classElement.html#a1a2068a4e70da0f951bc3e73b758ef4a" target="_top" xlink:title=" ">
<polygon fill="white" stroke="#666666" points="310,-130 202,-130 202,-111 310,-111 310,-130"/>
<text text-anchor="middle" x="256" y="-118" font-family="Ubuntu Mono" font-size="10.00">Element::getName</text>
</a>
</g>
</g>
<!-- Node1&#45;&gt;Node5 -->
<g id="edge4_Node000001_Node000005" class="edge">
<title>Node1&#45;&gt;Node5</title>
<g id="a_edge4_Node000001_Node000005"><a xlink:title=" ">
<path fill="none" stroke="#63b8ff" d="M155.15,-109.75C167.31,-111.06 179.77,-112.4 191.58,-113.67"/>
<polygon fill="#63b8ff" stroke="#63b8ff" points="191.45,-117.18 201.77,-114.77 192.2,-110.22 191.45,-117.18"/>
</a>
</g>
</g>
<!-- Node6 -->
<g id="Node000006" class="node">
<title>Node6</title>
<g id="a_Node000006"><a xlink:href="classId.html#ac094968605676d63b55ca33b7e318948" target="_top" xlink:title=" ">
<polygon fill="white" stroke="#666666" points="276.5,-93 235.5,-93 235.5,-74 276.5,-74 276.5,-93"/>
<text text-anchor="middle" x="256" y="-81" font-family="Ubuntu Mono" font-size="10.00">Id::Id</text>
</a>
</g>
</g>
<!-- Node1&#45;&gt;Node6 -->
<g id="edge5_Node000001_Node000006" class="edge">
<title>Node1&#45;&gt;Node6</title>
<g id="a_edge5_Node000001_Node000006"><a xlink:title=" ">
<path fill="none" stroke="#63b8ff" d="M155.15,-93.68C179.95,-91.15 206,-88.5 225.27,-86.53"/>
<polygon fill="#63b8ff" stroke="#63b8ff" points="225.64,-90.01 235.23,-85.52 224.92,-83.05 225.64,-90.01"/>
</a>
</g>
</g>
<!-- Node7 -->
<g id="Node000007" class="node">
<title>Node7</title>
<g id="a_Node000007"><a xlink:href="classId.html#a38206d79367649ab0056b93e6da3b789" target="_top" xlink:title=" ">
<polygon fill="white" stroke="#666666" points="300.5,-56 211.5,-56 211.5,-37 300.5,-37 300.5,-56"/>
<text text-anchor="middle" x="256" y="-44" font-family="Ubuntu Mono" font-size="10.00">Id::operator==</text>
</a>
</g>
</g>
<!-- Node1&#45;&gt;Node7 -->
<g id="edge6_Node000001_Node000007" class="edge">
<title>Node1&#45;&gt;Node7</title>
<g id="a_edge6_Node000001_Node000007"><a xlink:title=" ">
<path fill="none" stroke="#63b8ff" d="M108.05,-91.85C130.71,-84.51 162.78,-74.2 191,-65.5 198.01,-63.34 205.46,-61.09 212.7,-58.92"/>
<polygon fill="#63b8ff" stroke="#63b8ff" points="213.82,-62.24 222.4,-56.03 211.82,-55.53 213.82,-62.24"/>
</a>
</g>
</g>
<!-- Node8 -->
<g id="Node000008" class="node">
<title>Node8</title>
<g id="a_Node000008"><a xlink:href="namespacemoose.html#a7cbddc96a9404d810f1d2e1f7b2795c2" target="_top" xlink:title="Compares the two strings a and b for first n characters, ignoring the case of the characters....">
<polygon fill="white" stroke="#666666" points="315,-19 197,-19 197,0 315,0 315,-19"/>
<text text-anchor="middle" x="256" y="-7" font-family="Ubuntu Mono" font-size="10.00">moose::strncasecmp</text>
</a>
</g>
</g>
<!-- Node1&#45;&gt;Node8 -->
<g id="edge7_Node000001_Node000008" class="edge">
<title>Node1&#45;&gt;Node8</title>
<g id="a_edge7_Node000001_Node000008"><a xlink:title=" ">
<path fill="none" stroke="#63b8ff" d="M90.63,-91.93C110.55,-76.63 151.89,-46.54 191,-28.5 195.93,-26.22 201.21,-24.15 206.53,-22.27"/>
<polygon fill="#63b8ff" stroke="#63b8ff" points="207.7,-25.57 216.1,-19.1 205.51,-18.92 207.7,-25.57"/>
</a>
</g>
</g>
<!-- Node4 -->
<g id="Node000004" class="node">
<title>Node4</title>
<g id="a_Node000004"><a xlink:href="classId.html#a2d5e7b4d5d918aadfe45102691c2be27" target="_top" xlink:title=" ">
<polygon fill="white" stroke="#666666" points="434,-167 357,-167 357,-148 434,-148 434,-167"/>
<text text-anchor="middle" x="395.5" y="-155" font-family="Ubuntu Mono" font-size="10.00">Id::elements</text>
</a>
</g>
</g>
<!-- Node3&#45;&gt;Node4 -->
<g id="edge3_Node000003_Node000004" class="edge">
<title>Node3&#45;&gt;Node4</title>
<g id="a_edge3_Node000003_Node000004"><a xlink:title=" ">
<path fill="none" stroke="#63b8ff" d="M292.05,-157.5C308.62,-157.5 328.67,-157.5 346.61,-157.5"/>
<polygon fill="#63b8ff" stroke="#63b8ff" points="346.61,-161 356.61,-157.5 346.61,-154 346.61,-161"/>
</a>
</g>
</g>
</g>
</svg>
