<?xml version="1.0" encoding="UTF-8" standalone="no"?>
<!DOCTYPE svg PUBLIC "-//W3C//DTD SVG 1.1//EN"
 "http://www.w3.org/Graphics/SVG/1.1/DTD/svg11.dtd">
<!-- Generated by graphviz version 2.43.0 (0)
 -->
<!-- Title: Neutral::getValueFields Pages: 1 -->
<svg width="463pt" height="195pt"
 viewBox="0.00 0.00 463.00 195.00" xmlns="http://www.w3.org/2000/svg" xmlns:xlink="http://www.w3.org/1999/xlink">
<g id="graph0" class="graph" transform="scale(1 1) rotate(0) translate(4 191)">
<title>Neutral::getValueFields</title>
<!-- Node1 -->
<g id="Node000001" class="node">
<title>Node1</title>
<g id="a_Node000001"><a xlink:title="Information function to return names of all value Finfos.">
<polygon fill="#999999" stroke="#666666" points="130,-112 0,-112 0,-93 130,-93 130,-112"/>
<text text-anchor="middle" x="65" y="-100" font-family="Ubuntu Mono" font-size="10.00">Neutral::getValueFields</text>
</a>
</g>
</g>
<!-- Node2 -->
<g id="Node000002" class="node">
<title>Node2</title>
<g id="a_Node000002"><a xlink:href="classElement.html#a33610036b72724ca3b7fedaf7e692841" target="_top" xlink:title=" ">
<polygon fill="white" stroke="#666666" points="267,-187 180,-187 180,-168 267,-168 267,-187"/>
<text text-anchor="middle" x="223.5" y="-175" font-family="Ubuntu Mono" font-size="10.00">Element::cinfo</text>
</a>
</g>
</g>
<!-- Node1&#45;&gt;Node2 -->
<g id="edge1_Node000001_Node000002" class="edge">
<title>Node1&#45;&gt;Node2</title>
<g id="a_edge1_Node000001_Node000002"><a xlink:title=" ">
<path fill="none" stroke="#63b8ff" d="M80.41,-112C99.4,-124.22 134.16,-145.54 166,-159.5 170.14,-161.32 174.53,-163.04 178.95,-164.65"/>
<polygon fill="#63b8ff" stroke="#63b8ff" points="178.01,-168.03 188.61,-167.98 180.3,-161.41 178.01,-168.03"/>
</a>
</g>
</g>
<!-- Node3 -->
<g id="Node000003" class="node">
<title>Node3</title>
<g id="a_Node000003"><a xlink:href="classEref.html#a47b59ab86165cceb0bde80c76c3f7fa2" target="_top" xlink:title=" ">
<polygon fill="white" stroke="#666666" points="264.5,-150 182.5,-150 182.5,-131 264.5,-131 264.5,-150"/>
<text text-anchor="middle" x="223.5" y="-138" font-family="Ubuntu Mono" font-size="10.00">Eref::element</text>
</a>
</g>
</g>
<!-- Node1&#45;&gt;Node3 -->
<g id="edge2_Node000001_Node000003" class="edge">
<title>Node1&#45;&gt;Node3</title>
<g id="a_edge2_Node000001_Node000003"><a xlink:title=" ">
<path fill="none" stroke="#63b8ff" d="M105.49,-112.09C126.14,-117.1 151.61,-123.29 173.51,-128.61"/>
<polygon fill="#63b8ff" stroke="#63b8ff" points="172.75,-132.02 183.29,-130.98 174.4,-125.22 172.75,-132.02"/>
</a>
</g>
</g>
<!-- Node4 -->
<g id="Node000004" class="node">
<title>Node4</title>
<g id="a_Node000004"><a xlink:href="classCinfo.html#aa1fdaccf22b864e586890121ab2d8705" target="_top" xlink:title=" ">
<polygon fill="white" stroke="#666666" points="455,-84 317,-84 317,-65 455,-65 455,-84"/>
<text text-anchor="middle" x="386" y="-72" font-family="Ubuntu Mono" font-size="10.00">Cinfo::getNumValueFinfo</text>
</a>
</g>
</g>
<!-- Node1&#45;&gt;Node4 -->
<g id="edge3_Node000001_Node000004" class="edge">
<title>Node1&#45;&gt;Node4</title>
<g id="a_edge3_Node000001_Node000004"><a xlink:title=" ">
<path fill="none" stroke="#63b8ff" d="M130.17,-96.87C181.02,-92.4 252.29,-86.15 306.53,-81.39"/>
<polygon fill="#63b8ff" stroke="#63b8ff" points="307.14,-84.85 316.8,-80.49 306.53,-77.87 307.14,-84.85"/>
</a>
</g>
</g>
<!-- Node5 -->
<g id="Node000005" class="node">
<title>Node5</title>
<g id="a_Node000005"><a xlink:href="classCinfo.html#a7e5da534d61ef2f8f54f96294d6ad8e5" target="_top" xlink:title=" ">
<polygon fill="white" stroke="#666666" points="281,-56 166,-56 166,-37 281,-37 281,-56"/>
<text text-anchor="middle" x="223.5" y="-44" font-family="Ubuntu Mono" font-size="10.00">Cinfo::getValueFinfo</text>
</a>
</g>
</g>
<!-- Node1&#45;&gt;Node5 -->
<g id="edge5_Node000001_Node000005" class="edge">
<title>Node1&#45;&gt;Node5</title>
<g id="a_edge5_Node000001_Node000005"><a xlink:title=" ">
<path fill="none" stroke="#63b8ff" d="M92.9,-92.87C118.7,-83.64 157.83,-69.64 186.34,-59.44"/>
<polygon fill="#63b8ff" stroke="#63b8ff" points="187.71,-62.67 195.95,-56 185.35,-56.07 187.71,-62.67"/>
</a>
</g>
</g>
<!-- Node6 -->
<g id="Node000006" class="node">
<title>Node6</title>
<g id="a_Node000006"><a xlink:href="classFinfo.html#a61d1ed4e356444e2c94611a419b3440a" target="_top" xlink:title=" ">
<polygon fill="white" stroke="#666666" points="260.5,-19 186.5,-19 186.5,0 260.5,0 260.5,-19"/>
<text text-anchor="middle" x="223.5" y="-7" font-family="Ubuntu Mono" font-size="10.00">Finfo::name</text>
</a>
</g>
</g>
<!-- Node1&#45;&gt;Node6 -->
<g id="edge8_Node000001_Node000006" class="edge">
<title>Node1&#45;&gt;Node6</title>
<g id="a_edge8_Node000001_Node000006"><a xlink:title=" ">
<path fill="none" stroke="#63b8ff" d="M76.63,-92.84C94.13,-77.39 130.57,-46.98 166,-28.5 170.03,-26.4 174.34,-24.46 178.72,-22.68"/>
<polygon fill="#63b8ff" stroke="#63b8ff" points="180.19,-25.87 188.33,-19.08 177.73,-19.32 180.19,-25.87"/>
</a>
</g>
</g>
<!-- Node4&#45;&gt;Node4 -->
<g id="edge4_Node000004_Node000004" class="edge">
<title>Node4&#45;&gt;Node4</title>
<g id="a_edge4_Node000004_Node000004"><a xlink:title=" ">
<path fill="none" stroke="#63b8ff" d="M361.03,-84.08C348.88,-92.73 357.21,-102 386,-102 404.9,-102 414.98,-98.01 416.24,-92.82"/>
<polygon fill="#63b8ff" stroke="#63b8ff" points="419.13,-90.84 410.97,-84.08 413.14,-94.45 419.13,-90.84"/>
</a>
</g>
</g>
<!-- Node5&#45;&gt;Node4 -->
<g id="edge6_Node000005_Node000004" class="edge">
<title>Node5&#45;&gt;Node4</title>
<g id="a_edge6_Node000005_Node000004"><a xlink:title=" ">
<path fill="none" stroke="#63b8ff" d="M279.29,-56.06C292.46,-58.36 306.65,-60.83 320.23,-63.2"/>
<polygon fill="#63b8ff" stroke="#63b8ff" points="320.01,-66.71 330.46,-64.99 321.21,-59.82 320.01,-66.71"/>
</a>
</g>
</g>
<!-- Node5&#45;&gt;Node5 -->
<g id="edge7_Node000005_Node000005" class="edge">
<title>Node5&#45;&gt;Node5</title>
<g id="a_edge7_Node000005_Node000005"><a xlink:title=" ">
<path fill="none" stroke="#63b8ff" d="M199.15,-56.08C187.3,-64.73 195.42,-74 223.5,-74 241.93,-74 251.76,-70.01 252.99,-64.82"/>
<polygon fill="#63b8ff" stroke="#63b8ff" points="255.94,-62.93 247.85,-56.08 249.91,-66.48 255.94,-62.93"/>
</a>
</g>
</g>
</g>
</svg>
