<?xml version="1.0" encoding="UTF-8" standalone="no"?>
<!DOCTYPE svg PUBLIC "-//W3C//DTD SVG 1.1//EN"
 "http://www.w3.org/Graphics/SVG/1.1/DTD/svg11.dtd">
<!-- Generated by graphviz version 2.43.0 (0)
 -->
<!-- Title: OneToOneMsg::copy Pages: 1 -->
<svg width="1098pt" height="363pt"
 viewBox="0.00 0.00 1098.00 363.00" xmlns="http://www.w3.org/2000/svg" xmlns:xlink="http://www.w3.org/1999/xlink">
<g id="graph0" class="graph" transform="scale(1 1) rotate(0) translate(4 359)">
<title>OneToOneMsg::copy</title>
<!-- Node1 -->
<g id="Node000001" class="node">
<title>Node1</title>
<g id="a_Node000001"><a xlink:title=" ">
<polygon fill="#999999" stroke="#666666" points="116,-243 0,-243 0,-224 116,-224 116,-243"/>
<text text-anchor="middle" x="58" y="-231" font-family="Ubuntu Mono" font-size="10.00">OneToOneMsg::copy</text>
</a>
</g>
</g>
<!-- Node2 -->
<g id="Node000002" class="node">
<title>Node2</title>
<g id="a_Node000002"><a xlink:href="classElement.html#a2939c6987ceef653ba246c750d55bf57" target="_top" xlink:title=" ">
<polygon fill="white" stroke="#666666" points="304.5,-205 161.5,-205 161.5,-186 304.5,-186 304.5,-205"/>
<text text-anchor="middle" x="233" y="-193" font-family="Ubuntu Mono" font-size="10.00">Element::addMsgAndFunc</text>
</a>
</g>
</g>
<!-- Node1&#45;&gt;Node2 -->
<g id="edge1_Node000001_Node000002" class="edge">
<title>Node1&#45;&gt;Node2</title>
<g id="a_edge1_Node000001_Node000002"><a xlink:title=" ">
<path fill="none" stroke="#63b8ff" d="M102.66,-223.91C125.79,-218.83 154.4,-212.54 178.83,-207.18"/>
<polygon fill="#63b8ff" stroke="#63b8ff" points="179.64,-210.58 188.66,-205.02 178.14,-203.75 179.64,-210.58"/>
</a>
</g>
</g>
<!-- Node6 -->
<g id="Node000006" class="node">
<title>Node6</title>
<g id="a_Node000006"><a xlink:href="classMsg.html#a5be9f4dd643f5f662e8fb3c029273390" target="_top" xlink:title=" ">
<polygon fill="white" stroke="#666666" points="260.5,-318 205.5,-318 205.5,-299 260.5,-299 260.5,-318"/>
<text text-anchor="middle" x="233" y="-306" font-family="Ubuntu Mono" font-size="10.00">Msg::e1</text>
</a>
</g>
</g>
<!-- Node1&#45;&gt;Node6 -->
<g id="edge5_Node000001_Node000006" class="edge">
<title>Node1&#45;&gt;Node6</title>
<g id="a_edge5_Node000001_Node000006"><a xlink:title=" ">
<path fill="none" stroke="#63b8ff" d="M71.52,-243.05C88.74,-255.72 121.12,-277.96 152,-290.5 165.66,-296.05 181.37,-300.05 195.23,-302.85"/>
<polygon fill="#63b8ff" stroke="#63b8ff" points="194.92,-306.36 205.4,-304.77 196.22,-299.48 194.92,-306.36"/>
</a>
</g>
</g>
<!-- Node7 -->
<g id="Node000007" class="node">
<title>Node7</title>
<g id="a_Node000007"><a xlink:href="classMsg.html#a893ed6b44cd4c529f0f10af38ae6743a" target="_top" xlink:title=" ">
<polygon fill="white" stroke="#666666" points="260.5,-281 205.5,-281 205.5,-262 260.5,-262 260.5,-281"/>
<text text-anchor="middle" x="233" y="-269" font-family="Ubuntu Mono" font-size="10.00">Msg::e2</text>
</a>
</g>
</g>
<!-- Node1&#45;&gt;Node7 -->
<g id="edge6_Node000001_Node000007" class="edge">
<title>Node1&#45;&gt;Node7</title>
<g id="a_edge6_Node000001_Node000007"><a xlink:title=" ">
<path fill="none" stroke="#63b8ff" d="M102.66,-243.09C131.32,-249.39 168.39,-257.53 195.49,-263.48"/>
<polygon fill="#63b8ff" stroke="#63b8ff" points="194.84,-266.92 205.35,-265.65 196.34,-260.08 194.84,-266.92"/>
</a>
</g>
</g>
<!-- Node8 -->
<g id="Node000008" class="node">
<title>Node8</title>
<g id="a_Node000008"><a xlink:href="classId.html#a574e06330597163aef0ea4c99de7ff4a" target="_top" xlink:title="Synonym for Id::operator()()">
<polygon fill="white" stroke="#666666" points="959,-243 887,-243 887,-224 959,-224 959,-243"/>
<text text-anchor="middle" x="923" y="-231" font-family="Ubuntu Mono" font-size="10.00">Id::element</text>
</a>
</g>
</g>
<!-- Node1&#45;&gt;Node8 -->
<g id="edge7_Node000001_Node000008" class="edge">
<title>Node1&#45;&gt;Node8</title>
<g id="a_edge7_Node000001_Node000008"><a xlink:title=" ">
<path fill="none" stroke="#63b8ff" d="M116.12,-233.5C190.64,-233.5 325.07,-233.5 440,-233.5 440,-233.5 440,-233.5 619.5,-233.5 710.66,-233.5 817.27,-233.5 876.47,-233.5"/>
<polygon fill="#63b8ff" stroke="#63b8ff" points="876.61,-237 886.61,-233.5 876.61,-230 876.61,-237"/>
</a>
</g>
</g>
<!-- Node10 -->
<g id="Node000010" class="node">
<title>Node10</title>
<g id="a_Node000010"><a xlink:href="classId.html#adac7a40d04024a7b9dcb7eae7b9fdf9b" target="_top" xlink:title=" ">
<polygon fill="white" stroke="#666666" points="258.5,-355 207.5,-355 207.5,-336 258.5,-336 258.5,-355"/>
<text text-anchor="middle" x="233" y="-343" font-family="Ubuntu Mono" font-size="10.00">Id::eref</text>
</a>
</g>
</g>
<!-- Node1&#45;&gt;Node10 -->
<g id="edge9_Node000001_Node000010" class="edge">
<title>Node1&#45;&gt;Node10</title>
<g id="a_edge9_Node000001_Node000010"><a xlink:title=" ">
<path fill="none" stroke="#63b8ff" d="M65.66,-243.27C79.38,-262.62 112.84,-305.8 152,-327.5 165.73,-335.11 182.47,-339.5 197.08,-342.04"/>
<polygon fill="#63b8ff" stroke="#63b8ff" points="196.86,-345.54 207.27,-343.58 197.9,-338.62 196.86,-345.54"/>
</a>
</g>
</g>
<!-- Node12 -->
<g id="Node000012" class="node">
<title>Node12</title>
<g id="a_Node000012"><a xlink:href="classMsg.html#a269143731802782ca4b74511228543bf" target="_top" xlink:title=" ">
<polygon fill="white" stroke="#666666" points="264,-168 202,-168 202,-149 264,-149 264,-168"/>
<text text-anchor="middle" x="233" y="-156" font-family="Ubuntu Mono" font-size="10.00">Msg::mid</text>
</a>
</g>
</g>
<!-- Node1&#45;&gt;Node12 -->
<g id="edge12_Node000001_Node000012" class="edge">
<title>Node1&#45;&gt;Node12</title>
<g id="a_edge12_Node000001_Node000012"><a xlink:title=" ">
<path fill="none" stroke="#63b8ff" d="M71.87,-223.97C89.22,-211.56 121.46,-189.97 152,-177.5 164.51,-172.39 178.72,-168.46 191.64,-165.54"/>
<polygon fill="#63b8ff" stroke="#63b8ff" points="192.63,-168.91 201.68,-163.41 191.17,-162.06 192.63,-168.91"/>
</a>
</g>
</g>
<!-- Node13 -->
<g id="Node000013" class="node">
<title>Node13</title>
<g id="a_Node000013"><a xlink:href="classOneToOneMsg.html#a65b2449fee39993013fa0b9629259e9b" target="_top" xlink:title=" ">
<polygon fill="white" stroke="#666666" points="314,-93 152,-93 152,-74 314,-74 314,-93"/>
<text text-anchor="middle" x="233" y="-81" font-family="Ubuntu Mono" font-size="10.00">OneToOneMsg::OneToOneMsg</text>
</a>
</g>
</g>
<!-- Node1&#45;&gt;Node13 -->
<g id="edge13_Node000001_Node000013" class="edge">
<title>Node1&#45;&gt;Node13</title>
<g id="a_edge13_Node000001_Node000013"><a xlink:title=" ">
<path fill="none" stroke="#63b8ff" d="M67.75,-223.73C83.69,-206.18 118.88,-168.52 152,-140.5 170.12,-125.16 192.2,-109.65 208.56,-98.69"/>
<polygon fill="#63b8ff" stroke="#63b8ff" points="210.6,-101.54 217,-93.1 206.73,-95.7 210.6,-101.54"/>
</a>
</g>
</g>
<!-- Node3 -->
<g id="Node000003" class="node">
<title>Node3</title>
<g id="a_Node000003"><a xlink:href="classElement.html#a91ba2615cb1c7a30cca2327d2003f34c" target="_top" xlink:title=" ">
<polygon fill="white" stroke="#666666" points="833,-196 705,-196 705,-177 833,-177 833,-196"/>
<text text-anchor="middle" x="769" y="-184" font-family="Ubuntu Mono" font-size="10.00">Element::markRewired</text>
</a>
</g>
</g>
<!-- Node2&#45;&gt;Node3 -->
<g id="edge2_Node000002_Node000003" class="edge">
<title>Node2&#45;&gt;Node3</title>
<g id="a_edge2_Node000002_Node000003"><a xlink:title=" ">
<path fill="none" stroke="#63b8ff" d="M304.64,-194.31C405.9,-192.6 591.42,-189.48 694.34,-187.74"/>
<polygon fill="#63b8ff" stroke="#63b8ff" points="694.7,-191.24 704.64,-187.57 694.58,-184.24 694.7,-191.24"/>
</a>
</g>
</g>
<!-- Node4 -->
<g id="Node000004" class="node">
<title>Node4</title>
<g id="a_Node000004"><a xlink:href="classMsgFuncBinding.html#ad0172d166d6629ed092500ea64473eb5" target="_top" xlink:title=" ">
<polygon fill="white" stroke="#666666" points="532,-167 350,-167 350,-148 532,-148 532,-167"/>
<text text-anchor="middle" x="441" y="-155" font-family="Ubuntu Mono" font-size="10.00">MsgFuncBinding::MsgFuncBinding</text>
</a>
</g>
</g>
<!-- Node2&#45;&gt;Node4 -->
<g id="edge3_Node000002_Node000004" class="edge">
<title>Node2&#45;&gt;Node4</title>
<g id="a_edge3_Node000002_Node000004"><a xlink:title=" ">
<path fill="none" stroke="#63b8ff" d="M285.72,-185.96C313.76,-180.79 348.6,-174.36 378.08,-168.92"/>
<polygon fill="#63b8ff" stroke="#63b8ff" points="379.06,-172.3 388.26,-167.04 377.79,-165.42 379.06,-172.3"/>
</a>
</g>
</g>
<!-- Node5 -->
<g id="Node000005" class="node">
<title>Node5</title>
<g id="a_Node000005"><a xlink:href="classObjId.html#a02a8374ceddca0d8f4a672005aef8ffc" target="_top" xlink:title=" ">
<polygon fill="white" stroke="#666666" points="655.5,-167 581.5,-167 581.5,-148 655.5,-148 655.5,-167"/>
<text text-anchor="middle" x="618.5" y="-155" font-family="Ubuntu Mono" font-size="10.00">ObjId::ObjId</text>
</a>
</g>
</g>
<!-- Node4&#45;&gt;Node5 -->
<g id="edge4_Node000004_Node000005" class="edge">
<title>Node4&#45;&gt;Node5</title>
<g id="a_edge4_Node000004_Node000005"><a xlink:title=" ">
<path fill="none" stroke="#63b8ff" d="M532.06,-157.5C545.6,-157.5 559.07,-157.5 571.17,-157.5"/>
<polygon fill="#63b8ff" stroke="#63b8ff" points="571.42,-161 581.42,-157.5 571.42,-154 571.42,-161"/>
</a>
</g>
</g>
<!-- Node9 -->
<g id="Node000009" class="node">
<title>Node9</title>
<g id="a_Node000009"><a xlink:href="classId.html#a2d5e7b4d5d918aadfe45102691c2be27" target="_top" xlink:title=" ">
<polygon fill="white" stroke="#666666" points="1090,-299 1013,-299 1013,-280 1090,-280 1090,-299"/>
<text text-anchor="middle" x="1051.5" y="-287" font-family="Ubuntu Mono" font-size="10.00">Id::elements</text>
</a>
</g>
</g>
<!-- Node8&#45;&gt;Node9 -->
<g id="edge8_Node000008_Node000009" class="edge">
<title>Node8&#45;&gt;Node9</title>
<g id="a_edge8_Node000008_Node000009"><a xlink:title=" ">
<path fill="none" stroke="#63b8ff" d="M945.75,-243.13C966.14,-252.16 996.85,-265.75 1019.75,-275.89"/>
<polygon fill="#63b8ff" stroke="#63b8ff" points="1018.48,-279.15 1029.04,-280 1021.31,-272.75 1018.48,-279.15"/>
</a>
</g>
</g>
<!-- Node10&#45;&gt;Node9 -->
<g id="edge10_Node000010_Node000009" class="edge">
<title>Node10&#45;&gt;Node9</title>
<g id="a_edge10_Node000010_Node000009"><a xlink:title=" ">
<path fill="none" stroke="#63b8ff" d="M258.68,-345.5C319.59,-345.5 482.01,-345.5 617.5,-345.5 617.5,-345.5 617.5,-345.5 770,-345.5 857.94,-345.5 958.44,-318.7 1012.04,-302.18"/>
<polygon fill="#63b8ff" stroke="#63b8ff" points="1013.31,-305.45 1021.8,-299.13 1011.21,-298.77 1013.31,-305.45"/>
</a>
</g>
</g>
<!-- Node11 -->
<g id="Node000011" class="node">
<title>Node11</title>
<g id="a_Node000011"><a xlink:href="classEref.html#a3addb850bc6cbac7771a07de219d909d" target="_top" xlink:title=" ">
<polygon fill="white" stroke="#666666" points="471.5,-317 410.5,-317 410.5,-298 471.5,-298 471.5,-317"/>
<text text-anchor="middle" x="441" y="-305" font-family="Ubuntu Mono" font-size="10.00">Eref::Eref</text>
</a>
</g>
</g>
<!-- Node10&#45;&gt;Node11 -->
<g id="edge11_Node000010_Node000011" class="edge">
<title>Node10&#45;&gt;Node11</title>
<g id="a_edge11_Node000010_Node000011"><a xlink:title=" ">
<path fill="none" stroke="#63b8ff" d="M258.85,-340.92C294.04,-334.42 358.77,-322.48 400.56,-314.77"/>
<polygon fill="#63b8ff" stroke="#63b8ff" points="401.21,-318.22 410.41,-312.96 399.94,-311.33 401.21,-318.22"/>
</a>
</g>
</g>
<!-- Node14 -->
<g id="Node000014" class="node">
<title>Node14</title>
<g id="a_Node000014"><a xlink:href="classEref.html#aca13ad32862935d4a33109785d0f01d7" target="_top" xlink:title=" ">
<polygon fill="white" stroke="#666666" points="486,-93 396,-93 396,-74 486,-74 486,-93"/>
<text text-anchor="middle" x="441" y="-81" font-family="Ubuntu Mono" font-size="10.00">Eref::dataIndex</text>
</a>
</g>
</g>
<!-- Node13&#45;&gt;Node14 -->
<g id="edge14_Node000013_Node000014" class="edge">
<title>Node13&#45;&gt;Node14</title>
<g id="a_edge14_Node000013_Node000014"><a xlink:title=" ">
<path fill="none" stroke="#63b8ff" d="M314.23,-83.5C338.23,-83.5 363.95,-83.5 385.85,-83.5"/>
<polygon fill="#63b8ff" stroke="#63b8ff" points="385.94,-87 395.94,-83.5 385.94,-80 385.94,-87"/>
</a>
</g>
</g>
<!-- Node15 -->
<g id="Node000015" class="node">
<title>Node15</title>
<g id="a_Node000015"><a xlink:href="classEref.html#a47b59ab86165cceb0bde80c76c3f7fa2" target="_top" xlink:title=" ">
<polygon fill="white" stroke="#666666" points="482,-56 400,-56 400,-37 482,-37 482,-56"/>
<text text-anchor="middle" x="441" y="-44" font-family="Ubuntu Mono" font-size="10.00">Eref::element</text>
</a>
</g>
</g>
<!-- Node13&#45;&gt;Node15 -->
<g id="edge15_Node000013_Node000015" class="edge">
<title>Node13&#45;&gt;Node15</title>
<g id="a_edge15_Node000013_Node000015"><a xlink:title=" ">
<path fill="none" stroke="#63b8ff" d="M287.05,-73.97C318.65,-68.3 358.52,-61.14 389.63,-55.55"/>
<polygon fill="#63b8ff" stroke="#63b8ff" points="390.59,-58.93 399.82,-53.72 389.36,-52.04 390.59,-58.93"/>
</a>
</g>
</g>
<!-- Node16 -->
<g id="Node000016" class="node">
<title>Node16</title>
<g id="a_Node000016"><a xlink:href="classMsg.html#af23c81e6efdb16e46039d89f35a97f00" target="_top" xlink:title="Constructor.">
<polygon fill="white" stroke="#666666" points="472.5,-19 409.5,-19 409.5,0 472.5,0 472.5,-19"/>
<text text-anchor="middle" x="441" y="-7" font-family="Ubuntu Mono" font-size="10.00">Msg::Msg</text>
</a>
</g>
</g>
<!-- Node13&#45;&gt;Node16 -->
<g id="edge16_Node000013_Node000016" class="edge">
<title>Node13&#45;&gt;Node16</title>
<g id="a_edge16_Node000013_Node000016"><a xlink:title=" ">
<path fill="none" stroke="#63b8ff" d="M250.35,-73.97C272.31,-61.54 312.9,-39.94 350,-27.5 365.74,-22.22 383.57,-18.26 399.19,-15.41"/>
<polygon fill="#63b8ff" stroke="#63b8ff" points="399.83,-18.86 409.09,-13.7 398.64,-11.96 399.83,-18.86"/>
</a>
</g>
</g>
<!-- Node20 -->
<g id="Node000020" class="node">
<title>Node20</title>
<g id="a_Node000020"><a xlink:href="classObjId.html#ab6b120d314aab5abc3ea8bb7ead5ae41" target="_top" xlink:title=" ">
<polygon fill="white" stroke="#666666" points="478,-130 404,-130 404,-111 478,-111 478,-130"/>
<text text-anchor="middle" x="441" y="-118" font-family="Ubuntu Mono" font-size="10.00">ObjId::ObjId</text>
</a>
</g>
</g>
<!-- Node13&#45;&gt;Node20 -->
<g id="edge23_Node000013_Node000020" class="edge">
<title>Node13&#45;&gt;Node20</title>
<g id="a_edge23_Node000013_Node000020"><a xlink:title=" ">
<path fill="none" stroke="#63b8ff" d="M287.05,-93.03C320.18,-98.98 362.41,-106.56 394.1,-112.26"/>
<polygon fill="#63b8ff" stroke="#63b8ff" points="393.53,-115.71 403.99,-114.03 394.77,-108.82 393.53,-115.71"/>
</a>
</g>
</g>
<!-- Node16&#45;&gt;Node5 -->
<g id="edge22_Node000016_Node000005" class="edge">
<title>Node16&#45;&gt;Node5</title>
<g id="a_edge22_Node000016_Node000005"><a xlink:title=" ">
<path fill="none" stroke="#63b8ff" d="M472.56,-8.16C491.8,-8.95 515.95,-13.18 532,-27.5 571.01,-62.31 531.73,-101.84 568,-139.5 569.4,-140.96 570.93,-142.3 572.56,-143.53"/>
<polygon fill="#63b8ff" stroke="#63b8ff" points="570.96,-146.65 581.32,-148.83 574.58,-140.66 570.96,-146.65"/>
</a>
</g>
</g>
<!-- Node17 -->
<g id="Node000017" class="node">
<title>Node17</title>
<g id="a_Node000017"><a xlink:href="classElement.html#adc7e3a3053b8874f9041a9aee7a6f857" target="_top" xlink:title=" ">
<polygon fill="white" stroke="#666666" points="669,-130 568,-130 568,-111 669,-111 669,-130"/>
<text text-anchor="middle" x="618.5" y="-118" font-family="Ubuntu Mono" font-size="10.00">Element::addMsg</text>
</a>
</g>
</g>
<!-- Node16&#45;&gt;Node17 -->
<g id="edge17_Node000016_Node000017" class="edge">
<title>Node16&#45;&gt;Node17</title>
<g id="a_edge17_Node000016_Node000017"><a xlink:title=" ">
<path fill="none" stroke="#63b8ff" d="M472.82,-10.91C491.02,-12.86 513.95,-17.34 532,-27.5 564.47,-45.76 591.49,-80.74 606,-102.2"/>
<polygon fill="#63b8ff" stroke="#63b8ff" points="603.19,-104.3 611.6,-110.75 609.05,-100.46 603.19,-104.3"/>
</a>
</g>
</g>
<!-- Node17&#45;&gt;Node3 -->
<g id="edge21_Node000017_Node000003" class="edge">
<title>Node17&#45;&gt;Node3</title>
<g id="a_edge21_Node000017_Node000003"><a xlink:title=" ">
<path fill="none" stroke="#63b8ff" d="M645.6,-130.09C653.19,-132.99 661.47,-136.27 669,-139.5 693.2,-149.87 720.16,-162.76 739.82,-172.42"/>
<polygon fill="#63b8ff" stroke="#63b8ff" points="738.33,-175.58 748.85,-176.87 741.43,-169.31 738.33,-175.58"/>
</a>
</g>
</g>
<!-- Node18 -->
<g id="Node000018" class="node">
<title>Node18</title>
<g id="a_Node000018"><a xlink:href="classObjId.html#a79e041eb24b2bcfcdf62a488cf7b0572" target="_top" xlink:title=" ">
<polygon fill="white" stroke="#666666" points="802,-140 736,-140 736,-121 802,-121 802,-140"/>
<text text-anchor="middle" x="769" y="-128" font-family="Ubuntu Mono" font-size="10.00">ObjId::bad</text>
</a>
</g>
</g>
<!-- Node17&#45;&gt;Node18 -->
<g id="edge18_Node000017_Node000018" class="edge">
<title>Node17&#45;&gt;Node18</title>
<g id="a_edge18_Node000017_Node000018"><a xlink:title=" ">
<path fill="none" stroke="#63b8ff" d="M669.36,-123.86C687.5,-125.08 707.83,-126.45 725.3,-127.62"/>
<polygon fill="#63b8ff" stroke="#63b8ff" points="725.55,-131.15 735.76,-128.33 726.02,-124.16 725.55,-131.15"/>
</a>
</g>
</g>
<!-- Node18&#45;&gt;Node8 -->
<g id="edge19_Node000018_Node000008" class="edge">
<title>Node18&#45;&gt;Node8</title>
<g id="a_edge19_Node000018_Node000008"><a xlink:title=" ">
<path fill="none" stroke="#63b8ff" d="M786.83,-140.11C799.66,-147.57 817.68,-158.32 833,-168.5 857.1,-184.52 883.79,-204.3 901.6,-217.81"/>
<polygon fill="#63b8ff" stroke="#63b8ff" points="899.5,-220.61 909.57,-223.89 903.74,-215.04 899.5,-220.61"/>
</a>
</g>
</g>
<!-- Node19 -->
<g id="Node000019" class="node">
<title>Node19</title>
<g id="a_Node000019"><a xlink:href="classElement.html#ae764f4baa2a88e55072eb0a5b15718c4" target="_top" xlink:title="Returns number of data entries across all nodes.">
<polygon fill="white" stroke="#666666" points="977,-140 869,-140 869,-121 977,-121 977,-140"/>
<text text-anchor="middle" x="923" y="-128" font-family="Ubuntu Mono" font-size="10.00">Element::numData</text>
</a>
</g>
</g>
<!-- Node18&#45;&gt;Node19 -->
<g id="edge20_Node000018_Node000019" class="edge">
<title>Node18&#45;&gt;Node19</title>
<g id="a_edge20_Node000018_Node000019"><a xlink:title=" ">
<path fill="none" stroke="#63b8ff" d="M802.24,-130.5C818.71,-130.5 839.35,-130.5 858.83,-130.5"/>
<polygon fill="#63b8ff" stroke="#63b8ff" points="858.88,-134 868.88,-130.5 858.88,-127 858.88,-134"/>
</a>
</g>
</g>
</g>
</svg>
