<?xml version="1.0" encoding="UTF-8" standalone="no"?>
<!DOCTYPE svg PUBLIC "-//W3C//DTD SVG 1.1//EN"
 "http://www.w3.org/Graphics/SVG/1.1/DTD/svg11.dtd">
<!-- Generated by graphviz version 2.43.0 (0)
 -->
<!-- Title: GssaVoxelPools::setVolumeAndDependencies Pages: 1 -->
<svg width="460pt" height="38pt"
 viewBox="0.00 0.00 460.00 38.00" xmlns="http://www.w3.org/2000/svg" xmlns:xlink="http://www.w3.org/1999/xlink">
<g id="graph0" class="graph" transform="scale(1 1) rotate(0) translate(4 34)">
<title>GssaVoxelPools::setVolumeAndDependencies</title>
<!-- Node1 -->
<g id="Node000001" class="node">
<title>Node1</title>
<g id="a_Node000001"><a xlink:title=" ">
<polygon fill="#999999" stroke="#666666" points="452,-30 301,-30 301,0 452,0 452,-30"/>
<text text-anchor="start" x="309" y="-18" font-family="Ubuntu Mono" font-size="10.00">GssaVoxelPools::setVolume</text>
<text text-anchor="middle" x="376.5" y="-7" font-family="Ubuntu Mono" font-size="10.00">AndDependencies</text>
</a>
</g>
</g>
<!-- Node2 -->
<g id="Node000002" class="node">
<title>Node2</title>
<g id="a_Node000002"><a xlink:href="classGsolve.html#a0c9b99f7f533fd7a76be35c50cd572a9" target="_top" xlink:title=" ">
<polygon fill="white" stroke="#666666" points="265,-24.5 134,-24.5 134,-5.5 265,-5.5 265,-24.5"/>
<text text-anchor="middle" x="199.5" y="-12.5" font-family="Ubuntu Mono" font-size="10.00">Gsolve::updateVoxelVol</text>
</a>
</g>
</g>
<!-- Node1&#45;&gt;Node2 -->
<g id="edge1_Node000001_Node000002" class="edge">
<title>Node1&#45;&gt;Node2</title>
<g id="a_edge1_Node000001_Node000002"><a xlink:title=" ">
<path fill="none" stroke="#63b8ff" d="M290.69,-15C282.06,-15 273.4,-15 265.04,-15"/>
<polygon fill="#63b8ff" stroke="#63b8ff" points="290.78,-18.5 300.78,-15 290.78,-11.5 290.78,-18.5"/>
</a>
</g>
</g>
<!-- Node3 -->
<g id="Node000003" class="node">
<title>Node3</title>
<g id="a_Node000003"><a xlink:href="classGsolve.html#a957882fd0d9709d0bf6b8baf869330c5" target="_top" xlink:title=" ">
<polygon fill="white" stroke="#666666" points="98,-24.5 0,-24.5 0,-5.5 98,-5.5 98,-24.5"/>
<text text-anchor="middle" x="49" y="-12.5" font-family="Ubuntu Mono" font-size="10.00">Gsolve::initCinfo</text>
</a>
</g>
</g>
<!-- Node2&#45;&gt;Node3 -->
<g id="edge2_Node000002_Node000003" class="edge">
<title>Node2&#45;&gt;Node3</title>
<g id="a_edge2_Node000002_Node000003"><a xlink:title=" ">
<path fill="none" stroke="#63b8ff" d="M123.72,-15C115.12,-15 106.53,-15 98.41,-15"/>
<polygon fill="#63b8ff" stroke="#63b8ff" points="123.8,-18.5 133.8,-15 123.8,-11.5 123.8,-18.5"/>
</a>
</g>
</g>
</g>
</svg>
