<?xml version="1.0" encoding="UTF-8" standalone="no"?>
<!DOCTYPE svg PUBLIC "-//W3C//DTD SVG 1.1//EN"
 "http://www.w3.org/Graphics/SVG/1.1/DTD/svg11.dtd">
<!-- Generated by graphviz version 2.43.0 (0)
 -->
<!-- Title: OpFunc1Base::opVecBuffer Pages: 1 -->
<svg width="325pt" height="286pt"
 viewBox="0.00 0.00 325.00 286.00" xmlns="http://www.w3.org/2000/svg" xmlns:xlink="http://www.w3.org/1999/xlink">

<svg id="main" version="1.1" xmlns="http://www.w3.org/2000/svg" xmlns:xlink="http://www.w3.org/1999/xlink" xml:space="preserve" onload="init(evt)">
<style type="text/css"><![CDATA[
.node, .edge {opacity: 0.7;}
.node.selected, .edge.selected {opacity: 1;}
.edge:hover path { stroke: red; }
.edge:hover polygon { stroke: red; fill: red; }
]]></style>
<script type="application/ecmascript" xlink:href="svg.min.js"/>
<svg id="graph" class="graph">
<g id="graph0" class="graph" transform="scale(1 1) rotate(0) translate(4 282)">
<title>OpFunc1Base::opVecBuffer</title>
<!-- Node1 -->
<g id="Node000001" class="node">
<title>Node1</title>
<g id="a_Node000001"><a xlink:title="Executes the OpFunc for all data by converting a vector of args.">
<polygon fill="#999999" stroke="#666666" points="147,-148 0,-148 0,-129 147,-129 147,-148"/>
<text text-anchor="middle" x="73.5" y="-136" font-family="Ubuntu Mono" font-size="10.00">OpFunc1Base::opVecBuffer</text>
</a>
</g>
</g>
<!-- Node2 -->
<g id="Node000002" class="node">
<title>Node2</title>
<g id="a_Node000002"><a xlink:href="classEref.html#aca13ad32862935d4a33109785d0f01d7" target="_top" xlink:title=" ">
<polygon fill="white" stroke="#666666" points="295,-278 205,-278 205,-259 295,-259 295,-278"/>
<text text-anchor="middle" x="250" y="-266" font-family="Ubuntu Mono" font-size="10.00">Eref::dataIndex</text>
</a>
</g>
</g>
<!-- Node1&#45;&gt;Node2 -->
<g id="edge1_Node000001_Node000002" class="edge">
<title>Node1&#45;&gt;Node2</title>
<g id="a_edge1_Node000001_Node000002"><a xlink:title=" ">
<path fill="none" stroke="#63b8ff" d="M81.11,-148.28C96.38,-170.09 136.39,-222.95 183,-250.5 186.84,-252.77 190.98,-254.76 195.24,-256.51"/>
<polygon fill="#63b8ff" stroke="#63b8ff" points="194.11,-259.82 204.7,-259.95 196.5,-253.24 194.11,-259.82"/>
</a>
</g>
</g>
<!-- Node3 -->
<g id="Node000003" class="node">
<title>Node3</title>
<g id="a_Node000003"><a xlink:href="classEref.html#a47b59ab86165cceb0bde80c76c3f7fa2" target="_top" xlink:title=" ">
<polygon fill="white" stroke="#666666" points="291,-241 209,-241 209,-222 291,-222 291,-241"/>
<text text-anchor="middle" x="250" y="-229" font-family="Ubuntu Mono" font-size="10.00">Eref::element</text>
</a>
</g>
</g>
<!-- Node1&#45;&gt;Node3 -->
<g id="edge2_Node000001_Node000003" class="edge">
<title>Node1&#45;&gt;Node3</title>
<g id="a_edge2_Node000001_Node000003"><a xlink:title=" ">
<path fill="none" stroke="#63b8ff" d="M85.74,-148.23C104.61,-164.08 144.38,-195.53 183,-213.5 188.05,-215.85 193.46,-217.94 198.93,-219.79"/>
<polygon fill="#63b8ff" stroke="#63b8ff" points="198.2,-223.23 208.79,-222.87 200.28,-216.55 198.2,-223.23"/>
</a>
</g>
</g>
<!-- Node4 -->
<g id="Node000004" class="node">
<title>Node4</title>
<g id="a_Node000004"><a xlink:href="classEref.html#a3addb850bc6cbac7771a07de219d909d" target="_top" xlink:title=" ">
<polygon fill="white" stroke="#666666" points="280.5,-204 219.5,-204 219.5,-185 280.5,-185 280.5,-204"/>
<text text-anchor="middle" x="250" y="-192" font-family="Ubuntu Mono" font-size="10.00">Eref::Eref</text>
</a>
</g>
</g>
<!-- Node1&#45;&gt;Node4 -->
<g id="edge3_Node000001_Node000004" class="edge">
<title>Node1&#45;&gt;Node4</title>
<g id="a_edge3_Node000001_Node000004"><a xlink:title=" ">
<path fill="none" stroke="#63b8ff" d="M100.2,-148.08C122.08,-156.09 154.41,-167.61 183,-176.5 191.57,-179.17 200.83,-181.83 209.63,-184.25"/>
<polygon fill="#63b8ff" stroke="#63b8ff" points="208.73,-187.64 219.3,-186.88 210.57,-180.88 208.73,-187.64"/>
</a>
</g>
</g>
<!-- Node5 -->
<g id="Node000005" class="node">
<title>Node5</title>
<g id="a_Node000005"><a xlink:href="classElement.html#a8489d936deee408d78042cf199694bb5" target="_top" xlink:title=" ">
<polygon fill="white" stroke="#666666" points="304.5,-167 195.5,-167 195.5,-148 304.5,-148 304.5,-167"/>
<text text-anchor="middle" x="250" y="-155" font-family="Ubuntu Mono" font-size="10.00">Element::hasFields</text>
</a>
</g>
</g>
<!-- Node1&#45;&gt;Node5 -->
<g id="edge4_Node000001_Node000005" class="edge">
<title>Node1&#45;&gt;Node5</title>
<g id="a_edge4_Node000001_Node000005"><a xlink:title=" ">
<path fill="none" stroke="#63b8ff" d="M147.24,-146.42C159.81,-147.79 172.79,-149.2 185.1,-150.54"/>
<polygon fill="#63b8ff" stroke="#63b8ff" points="184.94,-154.05 195.26,-151.65 185.69,-147.09 184.94,-154.05"/>
</a>
</g>
</g>
<!-- Node6 -->
<g id="Node000006" class="node">
<title>Node6</title>
<g id="a_Node000006"><a xlink:href="classElement.html#a8d7debb27e67d5fc97697cddc9d69542" target="_top" xlink:title="Returns index of first data entry on this node.">
<polygon fill="white" stroke="#666666" points="316.5,-130 183.5,-130 183.5,-111 316.5,-111 316.5,-130"/>
<text text-anchor="middle" x="250" y="-118" font-family="Ubuntu Mono" font-size="10.00">Element::localDataStart</text>
</a>
</g>
</g>
<!-- Node1&#45;&gt;Node6 -->
<g id="edge5_Node000001_Node000006" class="edge">
<title>Node1&#45;&gt;Node6</title>
<g id="a_edge5_Node000001_Node000006"><a xlink:title=" ">
<path fill="none" stroke="#63b8ff" d="M147.24,-131C155.84,-130.11 164.64,-129.2 173.28,-128.31"/>
<polygon fill="#63b8ff" stroke="#63b8ff" points="173.75,-131.78 183.34,-127.27 173.03,-124.82 173.75,-131.78"/>
</a>
</g>
</g>
<!-- Node7 -->
<g id="Node000007" class="node">
<title>Node7</title>
<g id="a_Node000007"><a xlink:href="classElement.html#aeb84ff73ecda4ab0a6feadb1ea443339" target="_top" xlink:title="Returns number of field entries for specified data.">
<polygon fill="white" stroke="#666666" points="304,-93 196,-93 196,-74 304,-74 304,-93"/>
<text text-anchor="middle" x="250" y="-81" font-family="Ubuntu Mono" font-size="10.00">Element::numField</text>
</a>
</g>
</g>
<!-- Node1&#45;&gt;Node7 -->
<g id="edge6_Node000001_Node000007" class="edge">
<title>Node1&#45;&gt;Node7</title>
<g id="a_edge6_Node000001_Node000007"><a xlink:title=" ">
<path fill="none" stroke="#63b8ff" d="M102.5,-128.87C124.35,-121.43 155.51,-111.01 183,-102.5 190.21,-100.27 197.88,-97.98 205.36,-95.8"/>
<polygon fill="#63b8ff" stroke="#63b8ff" points="206.37,-99.15 215.01,-93 204.43,-92.42 206.37,-99.15"/>
</a>
</g>
</g>
<!-- Node8 -->
<g id="Node000008" class="node">
<title>Node8</title>
<g id="a_Node000008"><a xlink:href="classElement.html#abee6d5e3b26374c8c196c6065543706d" target="_top" xlink:title="Returns number of local data entries on this node.">
<polygon fill="white" stroke="#666666" points="317,-56 183,-56 183,-37 317,-37 317,-56"/>
<text text-anchor="middle" x="250" y="-44" font-family="Ubuntu Mono" font-size="10.00">Element::numLocalData</text>
</a>
</g>
</g>
<!-- Node1&#45;&gt;Node8 -->
<g id="edge7_Node000001_Node000008" class="edge">
<title>Node1&#45;&gt;Node8</title>
<g id="a_edge7_Node000001_Node000008"><a xlink:title=" ">
<path fill="none" stroke="#63b8ff" d="M86.12,-128.86C105.22,-113.47 144.93,-83.25 183,-65.5 188,-63.17 193.34,-61.06 198.75,-59.17"/>
<polygon fill="#63b8ff" stroke="#63b8ff" points="200.06,-62.43 208.48,-56 197.89,-55.77 200.06,-62.43"/>
</a>
</g>
</g>
<!-- Node9 -->
<g id="Node000009" class="node">
<title>Node9</title>
<g id="a_Node000009"><a xlink:href="classOpFunc1Base.html#a16ccb3c6d6ddb50d332bb6a247eaeea1" target="_top" xlink:title=" ">
<polygon fill="white" stroke="#666666" points="300.5,-19 199.5,-19 199.5,0 300.5,0 300.5,-19"/>
<text text-anchor="middle" x="250" y="-7" font-family="Ubuntu Mono" font-size="10.00">OpFunc1Base::op</text>
</a>
</g>
</g>
<!-- Node1&#45;&gt;Node9 -->
<g id="edge8_Node000001_Node000009" class="edge">
<title>Node1&#45;&gt;Node9</title>
<g id="a_edge8_Node000001_Node000009"><a xlink:title=" ">
<path fill="none" stroke="#63b8ff" d="M81.18,-128.95C96.6,-107.63 136.88,-55.91 183,-28.5 186.63,-26.34 190.52,-24.42 194.53,-22.7"/>
<polygon fill="#63b8ff" stroke="#63b8ff" points="195.94,-25.91 204.03,-19.07 193.44,-19.37 195.94,-25.91"/>
</a>
</g>
</g>
</g>
</svg>
</svg>

<style type='text/css'>
<![CDATA[
[data-mouse-over-selected='false'] { opacity: 0.7; }
[data-mouse-over-selected='true']  { opacity: 1.0; }
]]>
</style>
<script type="application/ecmascript"><![CDATA[
document.addEventListener('DOMContentLoaded', (event) => {
  highlightEdges();
  highlightAdjacentNodes();
});
]]></script>
</svg>
