<?xml version="1.0" encoding="UTF-8" standalone="no"?>
<!DOCTYPE svg PUBLIC "-//W3C//DTD SVG 1.1//EN"
 "http://www.w3.org/Graphics/SVG/1.1/DTD/svg11.dtd">
<!-- Generated by graphviz version 2.43.0 (0)
 -->
<!-- Title: Neuron::getSpineFromCompartment Pages: 1 -->
<svg width="435pt" height="249pt"
 viewBox="0.00 0.00 435.00 249.00" xmlns="http://www.w3.org/2000/svg" xmlns:xlink="http://www.w3.org/1999/xlink">
<g id="graph0" class="graph" transform="scale(1 1) rotate(0) translate(4 245)">
<title>Neuron::getSpineFromCompartment</title>
<!-- Node1 -->
<g id="Node000001" class="node">
<title>Node1</title>
<g id="a_Node000001"><a xlink:title=" ">
<polygon fill="#999999" stroke="#666666" points="193,-130 0,-130 0,-111 193,-111 193,-130"/>
<text text-anchor="middle" x="96.5" y="-118" font-family="Ubuntu Mono" font-size="10.00">Neuron::getSpineFromCompartment</text>
</a>
</g>
</g>
<!-- Node2 -->
<g id="Node000002" class="node">
<title>Node2</title>
<g id="a_Node000002"><a xlink:href="classEref.html#aca13ad32862935d4a33109785d0f01d7" target="_top" xlink:title=" ">
<polygon fill="white" stroke="#666666" points="319,-241 229,-241 229,-222 319,-222 319,-241"/>
<text text-anchor="middle" x="274" y="-229" font-family="Ubuntu Mono" font-size="10.00">Eref::dataIndex</text>
</a>
</g>
</g>
<!-- Node1&#45;&gt;Node2 -->
<g id="edge1_Node000001_Node000002" class="edge">
<title>Node1&#45;&gt;Node2</title>
<g id="a_edge1_Node000001_Node000002"><a xlink:title=" ">
<path fill="none" stroke="#63b8ff" d="M109.22,-130.19C131.5,-148.27 181.93,-187.67 229,-213.5 231.73,-215 234.62,-216.45 237.55,-217.83"/>
<polygon fill="#63b8ff" stroke="#63b8ff" points="236.39,-221.14 246.95,-221.99 239.22,-214.74 236.39,-221.14"/>
</a>
</g>
</g>
<!-- Node3 -->
<g id="Node000003" class="node">
<title>Node3</title>
<g id="a_Node000003"><a xlink:href="classEref.html#aa96699f886e00b8eb3759c71cc8747bb" target="_top" xlink:title=" ">
<polygon fill="white" stroke="#666666" points="299,-204 249,-204 249,-185 299,-185 299,-204"/>
<text text-anchor="middle" x="274" y="-192" font-family="Ubuntu Mono" font-size="10.00">Eref::id</text>
</a>
</g>
</g>
<!-- Node1&#45;&gt;Node3 -->
<g id="edge2_Node000001_Node000003" class="edge">
<title>Node1&#45;&gt;Node3</title>
<g id="a_edge2_Node000001_Node000003"><a xlink:title=" ">
<path fill="none" stroke="#63b8ff" d="M119.8,-130.11C145.92,-141.34 190.53,-160.44 229,-176.5 232.48,-177.95 236.12,-179.46 239.75,-180.96"/>
<polygon fill="#63b8ff" stroke="#63b8ff" points="238.65,-184.29 249.23,-184.85 241.3,-177.81 238.65,-184.29"/>
</a>
</g>
</g>
<!-- Node5 -->
<g id="Node000005" class="node">
<title>Node5</title>
<g id="a_Node000005"><a xlink:href="classId.html#a93dba2b91874b368b751a73a035523e0" target="_top" xlink:title=" ">
<polygon fill="white" stroke="#666666" points="294.5,-167 253.5,-167 253.5,-148 294.5,-148 294.5,-167"/>
<text text-anchor="middle" x="274" y="-155" font-family="Ubuntu Mono" font-size="10.00">Id::Id</text>
</a>
</g>
</g>
<!-- Node1&#45;&gt;Node5 -->
<g id="edge4_Node000001_Node000005" class="edge">
<title>Node1&#45;&gt;Node5</title>
<g id="a_edge4_Node000001_Node000005"><a xlink:title=" ">
<path fill="none" stroke="#63b8ff" d="M142.7,-130.03C174.4,-136.71 215.87,-145.46 243.42,-151.26"/>
<polygon fill="#63b8ff" stroke="#63b8ff" points="242.74,-154.7 253.25,-153.34 244.19,-147.85 242.74,-154.7"/>
</a>
</g>
</g>
<!-- Node6 -->
<g id="Node000006" class="node">
<title>Node6</title>
<g id="a_Node000006"><a xlink:href="classObjId.html#aad3d714ee57757ed3754a58edc9ad4a9" target="_top" xlink:title=" ">
<polygon fill="white" stroke="#666666" points="311,-130 237,-130 237,-111 311,-111 311,-130"/>
<text text-anchor="middle" x="274" y="-118" font-family="Ubuntu Mono" font-size="10.00">ObjId::ObjId</text>
</a>
</g>
</g>
<!-- Node1&#45;&gt;Node6 -->
<g id="edge5_Node000001_Node000006" class="edge">
<title>Node1&#45;&gt;Node6</title>
<g id="a_edge5_Node000001_Node000006"><a xlink:title=" ">
<path fill="none" stroke="#63b8ff" d="M193.21,-120.5C204.88,-120.5 216.36,-120.5 226.82,-120.5"/>
<polygon fill="#63b8ff" stroke="#63b8ff" points="226.9,-124 236.9,-120.5 226.9,-117 226.9,-124"/>
</a>
</g>
</g>
<!-- Node8 -->
<g id="Node000008" class="node">
<title>Node8</title>
<g id="a_Node000008"><a xlink:href="classObjId.html#ab6b120d314aab5abc3ea8bb7ead5ae41" target="_top" xlink:title=" ">
<polygon fill="white" stroke="#666666" points="311,-93 237,-93 237,-74 311,-74 311,-93"/>
<text text-anchor="middle" x="274" y="-81" font-family="Ubuntu Mono" font-size="10.00">ObjId::ObjId</text>
</a>
</g>
</g>
<!-- Node1&#45;&gt;Node8 -->
<g id="edge7_Node000001_Node000008" class="edge">
<title>Node1&#45;&gt;Node8</title>
<g id="a_edge7_Node000001_Node000008"><a xlink:title=" ">
<path fill="none" stroke="#63b8ff" d="M142.7,-110.97C168.52,-105.53 200.83,-98.72 226.81,-93.24"/>
<polygon fill="#63b8ff" stroke="#63b8ff" points="227.73,-96.62 236.8,-91.13 226.29,-89.77 227.73,-96.62"/>
</a>
</g>
</g>
<!-- Node9 -->
<g id="Node000009" class="node">
<title>Node9</title>
<g id="a_Node000009"><a xlink:href="classId.html#a38206d79367649ab0056b93e6da3b789" target="_top" xlink:title=" ">
<polygon fill="white" stroke="#666666" points="318.5,-56 229.5,-56 229.5,-37 318.5,-37 318.5,-56"/>
<text text-anchor="middle" x="274" y="-44" font-family="Ubuntu Mono" font-size="10.00">Id::operator==</text>
</a>
</g>
</g>
<!-- Node1&#45;&gt;Node9 -->
<g id="edge8_Node000001_Node000009" class="edge">
<title>Node1&#45;&gt;Node9</title>
<g id="a_edge8_Node000001_Node000009"><a xlink:title=" ">
<path fill="none" stroke="#63b8ff" d="M120.08,-110.98C150.8,-98.03 205.93,-74.78 240.92,-60.02"/>
<polygon fill="#63b8ff" stroke="#63b8ff" points="242.37,-63.21 250.22,-56.1 239.65,-56.76 242.37,-63.21"/>
</a>
</g>
</g>
<!-- Node10 -->
<g id="Node000010" class="node">
<title>Node10</title>
<g id="a_Node000010"><a xlink:href="classId.html#a123c4b585336d50834324026daed286e" target="_top" xlink:title=" ">
<polygon fill="white" stroke="#666666" points="303.5,-19 244.5,-19 244.5,0 303.5,0 303.5,-19"/>
<text text-anchor="middle" x="274" y="-7" font-family="Ubuntu Mono" font-size="10.00">Id::value</text>
</a>
</g>
</g>
<!-- Node1&#45;&gt;Node10 -->
<g id="edge9_Node000001_Node000010" class="edge">
<title>Node1&#45;&gt;Node10</title>
<g id="a_edge9_Node000001_Node000010"><a xlink:title=" ">
<path fill="none" stroke="#63b8ff" d="M109.64,-110.73C132.2,-92.88 182.53,-54.44 229,-28.5 232.24,-26.69 235.69,-24.93 239.18,-23.27"/>
<polygon fill="#63b8ff" stroke="#63b8ff" points="240.71,-26.42 248.37,-19.09 237.82,-20.04 240.71,-26.42"/>
</a>
</g>
</g>
<!-- Node4 -->
<g id="Node000004" class="node">
<title>Node4</title>
<g id="a_Node000004"><a xlink:href="classElement.html#a934907c01faf58e21f545d53a54cfefc" target="_top" xlink:title=" ">
<polygon fill="white" stroke="#666666" points="427,-204 355,-204 355,-185 427,-185 427,-204"/>
<text text-anchor="middle" x="391" y="-192" font-family="Ubuntu Mono" font-size="10.00">Element::id</text>
</a>
</g>
</g>
<!-- Node3&#45;&gt;Node4 -->
<g id="edge3_Node000003_Node000004" class="edge">
<title>Node3&#45;&gt;Node4</title>
<g id="a_edge3_Node000003_Node000004"><a xlink:title=" ">
<path fill="none" stroke="#63b8ff" d="M299.11,-194.5C312.17,-194.5 328.74,-194.5 344.15,-194.5"/>
<polygon fill="#63b8ff" stroke="#63b8ff" points="344.57,-198 354.57,-194.5 344.57,-191 344.57,-198"/>
</a>
</g>
</g>
<!-- Node7 -->
<g id="Node000007" class="node">
<title>Node7</title>
<g id="a_Node000007"><a xlink:href="classId.html#ac094968605676d63b55ca33b7e318948" target="_top" xlink:title=" ">
<polygon fill="white" stroke="#666666" points="411.5,-130 370.5,-130 370.5,-111 411.5,-111 411.5,-130"/>
<text text-anchor="middle" x="391" y="-118" font-family="Ubuntu Mono" font-size="10.00">Id::Id</text>
</a>
</g>
</g>
<!-- Node6&#45;&gt;Node7 -->
<g id="edge6_Node000006_Node000007" class="edge">
<title>Node6&#45;&gt;Node7</title>
<g id="a_edge6_Node000006_Node000007"><a xlink:title=" ">
<path fill="none" stroke="#63b8ff" d="M311.07,-120.5C326.87,-120.5 345.18,-120.5 360.19,-120.5"/>
<polygon fill="#63b8ff" stroke="#63b8ff" points="360.45,-124 370.45,-120.5 360.45,-117 360.45,-124"/>
</a>
</g>
</g>
</g>
</svg>
