<?xml version="1.0" encoding="UTF-8" standalone="no"?>
<!DOCTYPE svg PUBLIC "-//W3C//DTD SVG 1.1//EN"
 "http://www.w3.org/Graphics/SVG/1.1/DTD/svg11.dtd">
<!-- Generated by graphviz version 2.43.0 (0)
 -->
<!-- Title: HSolveUtils::caTarget Pages: 1 -->
<svg width="848pt" height="27pt"
 viewBox="0.00 0.00 848.00 27.00" xmlns="http://www.w3.org/2000/svg" xmlns:xlink="http://www.w3.org/1999/xlink">
<g id="graph0" class="graph" transform="scale(1 1) rotate(0) translate(4 23)">
<title>HSolveUtils::caTarget</title>
<!-- Node1 -->
<g id="Node000001" class="node">
<title>Node1</title>
<g id="a_Node000001"><a xlink:title=" ">
<polygon fill="#999999" stroke="#666666" points="840,-19 719,-19 719,0 840,0 840,-19"/>
<text text-anchor="middle" x="779.5" y="-7" font-family="Ubuntu Mono" font-size="10.00">HSolveUtils::caTarget</text>
</a>
</g>
</g>
<!-- Node2 -->
<g id="Node000002" class="node">
<title>Node2</title>
<g id="a_Node000002"><a xlink:href="classHSolveActive.html#a389bd2da94abe67bdf477b9cb8207fe6" target="_top" xlink:title=" ">
<polygon fill="white" stroke="#666666" points="683,-19 534,-19 534,0 683,0 683,-19"/>
<text text-anchor="middle" x="608.5" y="-7" font-family="Ubuntu Mono" font-size="10.00">HSolveActive::readCalcium</text>
</a>
</g>
</g>
<!-- Node1&#45;&gt;Node2 -->
<g id="edge1_Node000001_Node000002" class="edge">
<title>Node1&#45;&gt;Node2</title>
<g id="a_edge1_Node000001_Node000002"><a xlink:title=" ">
<path fill="none" stroke="#63b8ff" d="M708.71,-9.5C700.25,-9.5 691.58,-9.5 683.06,-9.5"/>
<polygon fill="#63b8ff" stroke="#63b8ff" points="708.92,-13 718.92,-9.5 708.92,-6 708.92,-13"/>
</a>
</g>
</g>
<!-- Node3 -->
<g id="Node000003" class="node">
<title>Node3</title>
<g id="a_Node000003"><a xlink:href="classHSolveActive.html#abe1e04be095f6b2e77e0de5ff3c56b3d" target="_top" xlink:title=" ">
<polygon fill="white" stroke="#666666" points="498,-19 383,-19 383,0 498,0 498,-19"/>
<text text-anchor="middle" x="440.5" y="-7" font-family="Ubuntu Mono" font-size="10.00">HSolveActive::setup</text>
</a>
</g>
</g>
<!-- Node2&#45;&gt;Node3 -->
<g id="edge2_Node000002_Node000003" class="edge">
<title>Node2&#45;&gt;Node3</title>
<g id="a_edge2_Node000002_Node000003"><a xlink:title=" ">
<path fill="none" stroke="#63b8ff" d="M523.6,-9.5C514.97,-9.5 506.34,-9.5 498.11,-9.5"/>
<polygon fill="#63b8ff" stroke="#63b8ff" points="523.72,-13 533.72,-9.5 523.72,-6 523.72,-13"/>
</a>
</g>
</g>
<!-- Node4 -->
<g id="Node000004" class="node">
<title>Node4</title>
<g id="a_Node000004"><a xlink:href="classHSolve.html#a2e768e9eb17b2c732c9129c018889f79" target="_top" xlink:title=" ">
<polygon fill="white" stroke="#666666" points="347,-19 263,-19 263,0 347,0 347,-19"/>
<text text-anchor="middle" x="305" y="-7" font-family="Ubuntu Mono" font-size="10.00">HSolve::setup</text>
</a>
</g>
</g>
<!-- Node3&#45;&gt;Node4 -->
<g id="edge3_Node000003_Node000004" class="edge">
<title>Node3&#45;&gt;Node4</title>
<g id="a_edge3_Node000003_Node000004"><a xlink:title=" ">
<path fill="none" stroke="#63b8ff" d="M372.74,-9.5C364.07,-9.5 355.4,-9.5 347.31,-9.5"/>
<polygon fill="#63b8ff" stroke="#63b8ff" points="372.88,-13 382.88,-9.5 372.88,-6 372.88,-13"/>
</a>
</g>
</g>
<!-- Node5 -->
<g id="Node000005" class="node">
<title>Node5</title>
<g id="a_Node000005"><a xlink:href="classHSolve.html#a4d36de840ae2ff289981e77f779eb9dc" target="_top" xlink:title=" ">
<polygon fill="white" stroke="#666666" points="227,-19 134,-19 134,0 227,0 227,-19"/>
<text text-anchor="middle" x="180.5" y="-7" font-family="Ubuntu Mono" font-size="10.00">HSolve::setPath</text>
</a>
</g>
</g>
<!-- Node4&#45;&gt;Node5 -->
<g id="edge4_Node000004_Node000005" class="edge">
<title>Node4&#45;&gt;Node5</title>
<g id="a_edge4_Node000004_Node000005"><a xlink:title=" ">
<path fill="none" stroke="#63b8ff" d="M252.77,-9.5C244.34,-9.5 235.66,-9.5 227.37,-9.5"/>
<polygon fill="#63b8ff" stroke="#63b8ff" points="252.87,-13 262.87,-9.5 252.87,-6 252.87,-13"/>
</a>
</g>
</g>
<!-- Node6 -->
<g id="Node000006" class="node">
<title>Node6</title>
<g id="a_Node000006"><a xlink:href="classHSolve.html#a3d60964bbc6441f73c04fe702faba848" target="_top" xlink:title="Interface to external channels.">
<polygon fill="white" stroke="#666666" points="98,-19 0,-19 0,0 98,0 98,-19"/>
<text text-anchor="middle" x="49" y="-7" font-family="Ubuntu Mono" font-size="10.00">HSolve::initCinfo</text>
</a>
</g>
</g>
<!-- Node5&#45;&gt;Node6 -->
<g id="edge5_Node000005_Node000006" class="edge">
<title>Node5&#45;&gt;Node6</title>
<g id="a_edge5_Node000005_Node000006"><a xlink:title=" ">
<path fill="none" stroke="#63b8ff" d="M123.68,-9.5C115.24,-9.5 106.59,-9.5 98.32,-9.5"/>
<polygon fill="#63b8ff" stroke="#63b8ff" points="123.84,-13 133.84,-9.5 123.84,-6 123.84,-13"/>
</a>
</g>
</g>
</g>
</svg>
