<?xml version="1.0" encoding="UTF-8" standalone="no"?>
<!DOCTYPE svg PUBLIC "-//W3C//DTD SVG 1.1//EN"
 "http://www.w3.org/Graphics/SVG/1.1/DTD/svg11.dtd">
<!-- Generated by graphviz version 2.43.0 (0)
 -->
<!-- Title: FuncRate Pages: 1 -->
<svg width="133pt" height="662pt"
 viewBox="0.00 0.00 133.00 662.00" xmlns="http://www.w3.org/2000/svg" xmlns:xlink="http://www.w3.org/1999/xlink">
<g id="graph0" class="graph" transform="scale(1 1) rotate(0) translate(4 658)">
<title>FuncRate</title>
<!-- Node1 -->
<g id="Node000001" class="node">
<title>Node1</title>
<g id="a_Node000001"><a xlink:title=" ">
<polygon fill="#999999" stroke="transparent" points="125,-214 0,-214 0,0 125,0 125,-214"/>
<text text-anchor="start" x="40" y="-202" font-family="Ubuntu Mono" font-size="10.00">FuncRate</text>
<text text-anchor="start" x="4.5" y="-187" font-family="Ubuntu Mono" font-size="10.00">#</text>
<text text-anchor="start" x="17.5" y="-187" font-family="Ubuntu Mono" font-size="10.00">func_</text>
<text text-anchor="start" x="4.5" y="-172" font-family="Ubuntu Mono" font-size="10.00">#</text>
<text text-anchor="start" x="17.5" y="-172" font-family="Ubuntu Mono" font-size="10.00">funcVolPower_</text>
<text text-anchor="start" x="4.5" y="-157" font-family="Ubuntu Mono" font-size="10.00">#</text>
<text text-anchor="start" x="17.5" y="-157" font-family="Ubuntu Mono" font-size="10.00">k_</text>
<text text-anchor="start" x="4.5" y="-142" font-family="Ubuntu Mono" font-size="10.00">+</text>
<text text-anchor="start" x="17.5" y="-142" font-family="Ubuntu Mono" font-size="10.00">copyWithVolScaling()</text>
<text text-anchor="start" x="4.5" y="-127" font-family="Ubuntu Mono" font-size="10.00">+</text>
<text text-anchor="start" x="17.5" y="-127" font-family="Ubuntu Mono" font-size="10.00">FuncRate()</text>
<text text-anchor="start" x="4.5" y="-112" font-family="Ubuntu Mono" font-size="10.00">+</text>
<text text-anchor="start" x="17.5" y="-112" font-family="Ubuntu Mono" font-size="10.00">getExpr()</text>
<text text-anchor="start" x="4.5" y="-97" font-family="Ubuntu Mono" font-size="10.00">+</text>
<text text-anchor="start" x="17.5" y="-97" font-family="Ubuntu Mono" font-size="10.00">getFuncArgIndex()</text>
<text text-anchor="start" x="4.5" y="-82" font-family="Ubuntu Mono" font-size="10.00">+</text>
<text text-anchor="start" x="17.5" y="-82" font-family="Ubuntu Mono" font-size="10.00">getR1()</text>
<text text-anchor="start" x="4.5" y="-67" font-family="Ubuntu Mono" font-size="10.00">+</text>
<text text-anchor="start" x="17.5" y="-67" font-family="Ubuntu Mono" font-size="10.00">getReactants()</text>
<text text-anchor="start" x="4.5" y="-52" font-family="Ubuntu Mono" font-size="10.00">+</text>
<text text-anchor="start" x="17.5" y="-52" font-family="Ubuntu Mono" font-size="10.00">operator()()</text>
<text text-anchor="start" x="4.5" y="-37" font-family="Ubuntu Mono" font-size="10.00">+</text>
<text text-anchor="start" x="17.5" y="-37" font-family="Ubuntu Mono" font-size="10.00">setExpr()</text>
<text text-anchor="start" x="4.5" y="-22" font-family="Ubuntu Mono" font-size="10.00">+</text>
<text text-anchor="start" x="17.5" y="-22" font-family="Ubuntu Mono" font-size="10.00">setFuncArgIndex()</text>
<text text-anchor="start" x="4.5" y="-7" font-family="Ubuntu Mono" font-size="10.00">+</text>
<text text-anchor="start" x="17.5" y="-7" font-family="Ubuntu Mono" font-size="10.00">setReactants()</text>
<polygon fill="#666666" stroke="#666666" points="0.5,-197 0.5,-197 125.5,-197 125.5,-197 0.5,-197"/>
<polygon fill="#666666" stroke="#666666" points="0.5,-152 0.5,-152 15.5,-152 15.5,-152 0.5,-152"/>
<polygon fill="#666666" stroke="#666666" points="15.5,-152 15.5,-152 125.5,-152 125.5,-152 15.5,-152"/>
<polygon fill="none" stroke="#666666" points="0,0 0,-214 125,-214 125,0 0,0"/>
</a>
</g>
</g>
<!-- Node2 -->
<g id="Node000002" class="node">
<title>Node2</title>
<g id="a_Node000002"><a xlink:href="classExternReac.html" target="_top" xlink:title=" ">
<polygon fill="white" stroke="transparent" points="125,-419 0,-419 0,-250 125,-250 125,-419"/>
<text text-anchor="start" x="35" y="-406.5" font-family="Ubuntu Mono" font-size="10.00">ExternReac</text>
<text text-anchor="start" x="61" y="-391.5" font-family="Ubuntu Mono" font-size="10.00"> </text>
<text text-anchor="start" x="4.5" y="-376.5" font-family="Ubuntu Mono" font-size="10.00">+</text>
<text text-anchor="start" x="17.5" y="-376.5" font-family="Ubuntu Mono" font-size="10.00">copyWithVolScaling()</text>
<text text-anchor="start" x="4.5" y="-361.5" font-family="Ubuntu Mono" font-size="10.00">+</text>
<text text-anchor="start" x="17.5" y="-361.5" font-family="Ubuntu Mono" font-size="10.00">getR1()</text>
<text text-anchor="start" x="4.5" y="-346.5" font-family="Ubuntu Mono" font-size="10.00">+</text>
<text text-anchor="start" x="17.5" y="-346.5" font-family="Ubuntu Mono" font-size="10.00">getR2()</text>
<text text-anchor="start" x="4.5" y="-331.5" font-family="Ubuntu Mono" font-size="10.00">+</text>
<text text-anchor="start" x="17.5" y="-331.5" font-family="Ubuntu Mono" font-size="10.00">getReactants()</text>
<text text-anchor="start" x="4.5" y="-316.5" font-family="Ubuntu Mono" font-size="10.00">+</text>
<text text-anchor="start" x="17.5" y="-316.5" font-family="Ubuntu Mono" font-size="10.00">operator()()</text>
<text text-anchor="start" x="4.5" y="-301.5" font-family="Ubuntu Mono" font-size="10.00">+</text>
<text text-anchor="start" x="17.5" y="-301.5" font-family="Ubuntu Mono" font-size="10.00">rescaleVolume()</text>
<text text-anchor="start" x="4.5" y="-286.5" font-family="Ubuntu Mono" font-size="10.00">+</text>
<text text-anchor="start" x="17.5" y="-286.5" font-family="Ubuntu Mono" font-size="10.00">setR1()</text>
<text text-anchor="start" x="4.5" y="-271.5" font-family="Ubuntu Mono" font-size="10.00">+</text>
<text text-anchor="start" x="17.5" y="-271.5" font-family="Ubuntu Mono" font-size="10.00">setR2()</text>
<text text-anchor="start" x="4.5" y="-256.5" font-family="Ubuntu Mono" font-size="10.00">+</text>
<text text-anchor="start" x="17.5" y="-256.5" font-family="Ubuntu Mono" font-size="10.00">setRates()</text>
<polygon fill="#666666" stroke="#666666" points="0.5,-401.5 0.5,-401.5 125.5,-401.5 125.5,-401.5 0.5,-401.5"/>
<polygon fill="#666666" stroke="#666666" points="0.5,-386.5 0.5,-386.5 125.5,-386.5 125.5,-386.5 0.5,-386.5"/>
<polygon fill="none" stroke="#666666" points="0,-250 0,-419 125,-419 125,-250 0,-250"/>
</a>
</g>
</g>
<!-- Node2&#45;&gt;Node1 -->
<g id="edge1_Node000001_Node000002" class="edge">
<title>Node2&#45;&gt;Node1</title>
<g id="a_edge1_Node000001_Node000002"><a xlink:title=" ">
<path fill="none" stroke="#63b8ff" d="M62.5,-239.65C62.5,-231.21 62.5,-222.62 62.5,-214.09"/>
<polygon fill="none" stroke="#63b8ff" points="59,-239.85 62.5,-249.85 66,-239.85 59,-239.85"/>
</a>
</g>
</g>
<!-- Node3 -->
<g id="Node000003" class="node">
<title>Node3</title>
<g id="a_Node000003"><a xlink:href="classRateTerm.html" target="_top" xlink:title=" ">
<polygon fill="white" stroke="transparent" points="125,-654 0,-654 0,-455 125,-455 125,-654"/>
<text text-anchor="start" x="39.5" y="-641.5" font-family="Ubuntu Mono" font-size="10.00">RateTerm</text>
<text text-anchor="start" x="4.5" y="-626.5" font-family="Ubuntu Mono" font-size="10.00">+</text>
<text text-anchor="start" x="17.5" y="-626.5" font-family="Ubuntu Mono" font-size="10.00">EPSILON</text>
<text text-anchor="start" x="4.5" y="-611.5" font-family="Ubuntu Mono" font-size="10.00">+</text>
<text text-anchor="start" x="17.5" y="-611.5" font-family="Ubuntu Mono" font-size="10.00">copyWithVolScaling()</text>
<text text-anchor="start" x="4.5" y="-596.5" font-family="Ubuntu Mono" font-size="10.00">+</text>
<text text-anchor="start" x="17.5" y="-596.5" font-family="Ubuntu Mono" font-size="10.00">getR1()</text>
<text text-anchor="start" x="4.5" y="-581.5" font-family="Ubuntu Mono" font-size="10.00">+</text>
<text text-anchor="start" x="17.5" y="-581.5" font-family="Ubuntu Mono" font-size="10.00">getR2()</text>
<text text-anchor="start" x="4.5" y="-566.5" font-family="Ubuntu Mono" font-size="10.00">+</text>
<text text-anchor="start" x="17.5" y="-566.5" font-family="Ubuntu Mono" font-size="10.00">getReactants()</text>
<text text-anchor="start" x="4.5" y="-551.5" font-family="Ubuntu Mono" font-size="10.00">+</text>
<text text-anchor="start" x="17.5" y="-551.5" font-family="Ubuntu Mono" font-size="10.00">operator()()</text>
<text text-anchor="start" x="4.5" y="-536.5" font-family="Ubuntu Mono" font-size="10.00">+</text>
<text text-anchor="start" x="17.5" y="-536.5" font-family="Ubuntu Mono" font-size="10.00">RateTerm()</text>
<text text-anchor="start" x="4.5" y="-521.5" font-family="Ubuntu Mono" font-size="10.00">+</text>
<text text-anchor="start" x="17.5" y="-521.5" font-family="Ubuntu Mono" font-size="10.00">rescaleVolume()</text>
<text text-anchor="start" x="4.5" y="-506.5" font-family="Ubuntu Mono" font-size="10.00">+</text>
<text text-anchor="start" x="17.5" y="-506.5" font-family="Ubuntu Mono" font-size="10.00">setR1()</text>
<text text-anchor="start" x="4.5" y="-491.5" font-family="Ubuntu Mono" font-size="10.00">+</text>
<text text-anchor="start" x="17.5" y="-491.5" font-family="Ubuntu Mono" font-size="10.00">setR2()</text>
<text text-anchor="start" x="4.5" y="-476.5" font-family="Ubuntu Mono" font-size="10.00">+</text>
<text text-anchor="start" x="17.5" y="-476.5" font-family="Ubuntu Mono" font-size="10.00">setRates()</text>
<text text-anchor="start" x="4.5" y="-461.5" font-family="Ubuntu Mono" font-size="10.00">+</text>
<text text-anchor="start" x="17.5" y="-461.5" font-family="Ubuntu Mono" font-size="10.00">~RateTerm()</text>
<polygon fill="#666666" stroke="#666666" points="0.5,-636.5 0.5,-636.5 125.5,-636.5 125.5,-636.5 0.5,-636.5"/>
<polygon fill="#666666" stroke="#666666" points="0.5,-621.5 0.5,-621.5 15.5,-621.5 15.5,-621.5 0.5,-621.5"/>
<polygon fill="#666666" stroke="#666666" points="15.5,-621.5 15.5,-621.5 125.5,-621.5 125.5,-621.5 15.5,-621.5"/>
<polygon fill="none" stroke="#666666" points="0,-455 0,-654 125,-654 125,-455 0,-455"/>
</a>
</g>
</g>
<!-- Node3&#45;&gt;Node2 -->
<g id="edge2_Node000002_Node000003" class="edge">
<title>Node3&#45;&gt;Node2</title>
<g id="a_edge2_Node000002_Node000003"><a xlink:title=" ">
<path fill="none" stroke="#63b8ff" d="M62.5,-444.7C62.5,-436.16 62.5,-427.63 62.5,-419.3"/>
<polygon fill="none" stroke="#63b8ff" points="59,-444.71 62.5,-454.71 66,-444.71 59,-444.71"/>
</a>
</g>
</g>
</g>
</svg>
