<?xml version="1.0" encoding="UTF-8" standalone="no"?>
<!DOCTYPE svg PUBLIC "-//W3C//DTD SVG 1.1//EN"
 "http://www.w3.org/Graphics/SVG/1.1/DTD/svg11.dtd">
<!-- Generated by graphviz version 2.43.0 (0)
 -->
<!-- Title: SparseMatrix::getRow Pages: 1 -->
<svg width="1315pt" height="586pt"
 viewBox="0.00 0.00 1315.00 586.28" xmlns="http://www.w3.org/2000/svg" xmlns:xlink="http://www.w3.org/1999/xlink">
<g id="graph0" class="graph" transform="scale(1 1) rotate(0) translate(4 582.28)">
<title>SparseMatrix::getRow</title>
<!-- Node1 -->
<g id="Node000001" class="node">
<title>Node1</title>
<g id="a_Node000001"><a xlink:title=" ">
<polygon fill="#999999" stroke="#666666" points="1307,-294.28 1183,-294.28 1183,-275.28 1307,-275.28 1307,-294.28"/>
<text text-anchor="middle" x="1245" y="-282.28" font-family="Ubuntu Mono" font-size="10.00">SparseMatrix::getRow</text>
</a>
</g>
</g>
<!-- Node2 -->
<g id="Node000002" class="node">
<title>Node2</title>
<g id="a_Node000002"><a xlink:href="classKinSparseMatrix.html#a75d4b8170757a0b0135b5de29c55470c" target="_top" xlink:title=" ">
<polygon fill="white" stroke="#666666" points="1130.5,-546.78 984.5,-546.78 984.5,-516.78 1130.5,-516.78 1130.5,-546.78"/>
<text text-anchor="start" x="992.5" y="-534.78" font-family="Ubuntu Mono" font-size="10.00">KinSparseMatrix::compute</text>
<text text-anchor="middle" x="1057.5" y="-523.78" font-family="Ubuntu Mono" font-size="10.00">RowRate</text>
</a>
</g>
</g>
<!-- Node1&#45;&gt;Node2 -->
<g id="edge1_Node000001_Node000002" class="edge">
<title>Node1&#45;&gt;Node2</title>
<g id="a_edge1_Node000001_Node000002"><a xlink:title=" ">
<path fill="none" stroke="#63b8ff" d="M1241.24,-304.44C1234.07,-347.91 1210.77,-452.67 1147,-507.78 1142.18,-511.94 1136.71,-515.39 1130.9,-518.24"/>
<polygon fill="#63b8ff" stroke="#63b8ff" points="1244.7,-304.97 1242.76,-294.56 1237.78,-303.91 1244.7,-304.97"/>
</a>
</g>
</g>
<!-- Node10 -->
<g id="Node000010" class="node">
<title>Node10</title>
<g id="a_Node000010"><a xlink:href="classMeshCompt.html#abb421136c1f46decfb6ec994b01a3453" target="_top" xlink:title="Add boundary voxels to stencil for cross&#45;solver junctions.">
<polygon fill="white" stroke="#666666" points="1131.5,-350.28 983.5,-350.28 983.5,-331.28 1131.5,-331.28 1131.5,-350.28"/>
<text text-anchor="middle" x="1057.5" y="-338.28" font-family="Ubuntu Mono" font-size="10.00">MeshCompt::extendStencil</text>
</a>
</g>
</g>
<!-- Node1&#45;&gt;Node10 -->
<g id="edge10_Node000001_Node000010" class="edge">
<title>Node1&#45;&gt;Node10</title>
<g id="a_edge10_Node000001_Node000010"><a xlink:title=" ">
<path fill="none" stroke="#63b8ff" d="M1213.52,-298.29C1194.64,-306.26 1169.75,-316.06 1147,-322.78 1136.17,-325.97 1124.44,-328.8 1113.16,-331.2"/>
<polygon fill="#63b8ff" stroke="#63b8ff" points="1214.98,-301.47 1222.8,-294.31 1212.23,-295.03 1214.98,-301.47"/>
</a>
</g>
</g>
<!-- Node13 -->
<g id="Node000013" class="node">
<title>Node13</title>
<g id="a_Node000013"><a xlink:href="SparseMsg_8cpp.html#a1532e03dd11128068b6bdb6a07126231" target="_top" xlink:title=" ">
<polygon fill="white" stroke="#666666" points="1112.5,-498.28 1002.5,-498.28 1002.5,-479.28 1112.5,-479.28 1112.5,-498.28"/>
<text text-anchor="middle" x="1057.5" y="-486.28" font-family="Ubuntu Mono" font-size="10.00">fillErefsFromMatrix</text>
</a>
</g>
</g>
<!-- Node1&#45;&gt;Node13 -->
<g id="edge13_Node000001_Node000013" class="edge">
<title>Node1&#45;&gt;Node13</title>
<g id="a_edge13_Node000001_Node000013"><a xlink:title=" ">
<path fill="none" stroke="#63b8ff" d="M1239.73,-304.28C1230.26,-342.7 1203.67,-428.11 1147,-470.78 1137.1,-478.23 1124.89,-482.79 1112.73,-485.55"/>
<polygon fill="#63b8ff" stroke="#63b8ff" points="1243.18,-304.9 1242.05,-294.37 1236.37,-303.31 1243.18,-304.9"/>
</a>
</g>
</g>
<!-- Node16 -->
<g id="Node000016" class="node">
<title>Node16</title>
<g id="a_Node000016"><a xlink:href="classGsolve.html#ad15ab23459af91a514ab945914a639ea" target="_top" xlink:title=" ">
<polygon fill="white" stroke="#666666" points="1137.5,-461.28 977.5,-461.28 977.5,-442.28 1137.5,-442.28 1137.5,-461.28"/>
<text text-anchor="middle" x="1057.5" y="-449.28" font-family="Ubuntu Mono" font-size="10.00">Gsolve::fillIncrementFuncDep</text>
</a>
</g>
</g>
<!-- Node1&#45;&gt;Node16 -->
<g id="edge16_Node000001_Node000016" class="edge">
<title>Node1&#45;&gt;Node16</title>
<g id="a_edge16_Node000001_Node000016"><a xlink:title=" ">
<path fill="none" stroke="#63b8ff" d="M1237.22,-303.94C1224.73,-336.24 1194.93,-401.19 1147,-433.78 1142.07,-437.13 1136.66,-439.88 1131.01,-442.14"/>
<polygon fill="#63b8ff" stroke="#63b8ff" points="1240.58,-304.92 1240.79,-294.33 1234.02,-302.49 1240.58,-304.92"/>
</a>
</g>
</g>
<!-- Node20 -->
<g id="Node000020" class="node">
<title>Node20</title>
<g id="a_Node000020"><a xlink:href="classGsolve.html#a32d30dfc9149e4589b9ad99108aab01d" target="_top" xlink:title=" ">
<polygon fill="white" stroke="#666666" points="1119.5,-424.28 995.5,-424.28 995.5,-405.28 1119.5,-405.28 1119.5,-424.28"/>
<text text-anchor="middle" x="1057.5" y="-412.28" font-family="Ubuntu Mono" font-size="10.00">Gsolve::fillMmEnzDep</text>
</a>
</g>
</g>
<!-- Node1&#45;&gt;Node20 -->
<g id="edge20_Node000001_Node000020" class="edge">
<title>Node1&#45;&gt;Node20</title>
<g id="a_edge20_Node000001_Node000020"><a xlink:title=" ">
<path fill="none" stroke="#63b8ff" d="M1233.54,-303.1C1218.07,-328.44 1186.58,-373.65 1147,-396.78 1138.74,-401.6 1129.4,-405.15 1119.95,-407.76"/>
<polygon fill="#63b8ff" stroke="#63b8ff" points="1236.58,-304.84 1238.67,-294.45 1230.56,-301.27 1236.58,-304.84"/>
</a>
</g>
</g>
<!-- Node21 -->
<g id="Node000021" class="node">
<title>Node21</title>
<g id="a_Node000021"><a xlink:href="classGsolve.html#a8353dba4e64c9dc91704a1864716c535" target="_top" xlink:title=" ">
<polygon fill="white" stroke="#666666" points="1123,-387.28 992,-387.28 992,-368.28 1123,-368.28 1123,-387.28"/>
<text text-anchor="middle" x="1057.5" y="-375.28" font-family="Ubuntu Mono" font-size="10.00">Gsolve::fillPoolFuncDep</text>
</a>
</g>
</g>
<!-- Node1&#45;&gt;Node21 -->
<g id="edge22_Node000001_Node000021" class="edge">
<title>Node1&#45;&gt;Node21</title>
<g id="a_edge22_Node000001_Node000021"><a xlink:title=" ">
<path fill="none" stroke="#63b8ff" d="M1227.4,-301.55C1209.26,-318.87 1178.55,-345.33 1147,-359.78 1139.59,-363.17 1131.53,-365.93 1123.41,-368.17"/>
<polygon fill="#63b8ff" stroke="#63b8ff" points="1230.1,-303.81 1234.81,-294.31 1225.21,-298.8 1230.1,-303.81"/>
</a>
</g>
</g>
<!-- Node22 -->
<g id="Node000022" class="node">
<title>Node22</title>
<g id="a_Node000022"><a xlink:href="classSparseMsg.html#aef31df2fc8a5037694ce557a71834f33" target="_top" xlink:title=" ">
<polygon fill="white" stroke="#666666" points="1127,-313.28 988,-313.28 988,-294.28 1127,-294.28 1127,-313.28"/>
<text text-anchor="middle" x="1057.5" y="-301.28" font-family="Ubuntu Mono" font-size="10.00">SparseMsg::findOtherEnd</text>
</a>
</g>
</g>
<!-- Node1&#45;&gt;Node22 -->
<g id="edge24_Node000001_Node000022" class="edge">
<title>Node1&#45;&gt;Node22</title>
<g id="a_edge24_Node000001_Node000022"><a xlink:title=" ">
<path fill="none" stroke="#63b8ff" d="M1172.55,-292.1C1157.61,-293.63 1141.89,-295.24 1127.06,-296.76"/>
<polygon fill="#63b8ff" stroke="#63b8ff" points="1173.15,-295.55 1182.75,-291.05 1172.44,-288.59 1173.15,-295.55"/>
</a>
</g>
</g>
<!-- Node23 -->
<g id="Node000023" class="node">
<title>Node23</title>
<g id="a_Node000023"><a xlink:href="classSparseMsg.html#a20909cc415c34251e8a9e750e6a39bf1" target="_top" xlink:title=" ">
<polygon fill="white" stroke="#666666" points="1112.5,-276.28 1002.5,-276.28 1002.5,-257.28 1112.5,-257.28 1112.5,-276.28"/>
<text text-anchor="middle" x="1057.5" y="-264.28" font-family="Ubuntu Mono" font-size="10.00">SparseMsg::firstTgt</text>
</a>
</g>
</g>
<!-- Node1&#45;&gt;Node23 -->
<g id="edge25_Node000001_Node000023" class="edge">
<title>Node1&#45;&gt;Node23</title>
<g id="a_edge25_Node000001_Node000023"><a xlink:title=" ">
<path fill="none" stroke="#63b8ff" d="M1172.75,-277.86C1152.75,-275.92 1131.33,-273.84 1112.52,-272.02"/>
<polygon fill="#63b8ff" stroke="#63b8ff" points="1172.45,-281.35 1182.75,-278.83 1173.13,-274.38 1172.45,-281.35"/>
</a>
</g>
</g>
<!-- Node24 -->
<g id="Node000024" class="node">
<title>Node24</title>
<g id="a_Node000024"><a xlink:href="classMeshCompt.html#a0852f23b48db2fa5ec925a640b43d516" target="_top" xlink:title="Looks up stencil to return vector of indices of coupled voxels.">
<polygon fill="white" stroke="#666666" points="1130.5,-202.28 984.5,-202.28 984.5,-183.28 1130.5,-183.28 1130.5,-202.28"/>
<text text-anchor="middle" x="1057.5" y="-190.28" font-family="Ubuntu Mono" font-size="10.00">MeshCompt::getNeighbors</text>
</a>
</g>
</g>
<!-- Node1&#45;&gt;Node24 -->
<g id="edge26_Node000001_Node000024" class="edge">
<title>Node1&#45;&gt;Node24</title>
<g id="a_edge26_Node000001_Node000024"><a xlink:title=" ">
<path fill="none" stroke="#63b8ff" d="M1226.69,-268C1208.39,-251.2 1177.92,-225.9 1147,-211.78 1138.57,-207.93 1129.32,-204.84 1120.08,-202.37"/>
<polygon fill="#63b8ff" stroke="#63b8ff" points="1224.52,-270.75 1234.21,-275.04 1229.31,-265.65 1224.52,-270.75"/>
</a>
</g>
</g>
<!-- Node27 -->
<g id="Node000027" class="node">
<title>Node27</title>
<g id="a_Node000027"><a xlink:href="classMeshCompt.html#aae2b570a057a43104858c5f6c02f423e" target="_top" xlink:title=" ">
<polygon fill="white" stroke="#666666" points="1133,-239.28 982,-239.28 982,-220.28 1133,-220.28 1133,-239.28"/>
<text text-anchor="middle" x="1057.5" y="-227.28" font-family="Ubuntu Mono" font-size="10.00">MeshCompt::getStencilRow</text>
</a>
</g>
</g>
<!-- Node1&#45;&gt;Node27 -->
<g id="edge30_Node000001_Node000027" class="edge">
<title>Node1&#45;&gt;Node27</title>
<g id="a_edge30_Node000001_Node000027"><a xlink:title=" ">
<path fill="none" stroke="#63b8ff" d="M1211.68,-271.45C1193,-264.09 1168.93,-255.16 1147,-248.78 1134.78,-245.22 1121.43,-242.01 1108.89,-239.28"/>
<polygon fill="#63b8ff" stroke="#63b8ff" points="1210.6,-274.79 1221.19,-275.25 1213.2,-268.29 1210.6,-274.79"/>
</a>
</g>
</g>
<!-- Node28 -->
<g id="Node000028" class="node">
<title>Node28</title>
<g id="a_Node000028"><a xlink:href="classMeshCompt.html#a7b8e15d0a73de4f467efcf733e095cb7" target="_top" xlink:title=" ">
<polygon fill="white" stroke="#666666" points="1147,-165.28 968,-165.28 968,-146.28 1147,-146.28 1147,-165.28"/>
<text text-anchor="middle" x="1057.5" y="-153.28" font-family="Ubuntu Mono" font-size="10.00">MeshCompt::innerGetStencilRate</text>
</a>
</g>
</g>
<!-- Node1&#45;&gt;Node28 -->
<g id="edge32_Node000001_Node000028" class="edge">
<title>Node1&#45;&gt;Node28</title>
<g id="a_edge32_Node000001_Node000028"><a xlink:title=" ">
<path fill="none" stroke="#63b8ff" d="M1232.98,-266.14C1217.22,-241.2 1185.79,-197.5 1147,-174.78 1140.36,-170.89 1133.01,-167.79 1125.48,-165.32"/>
<polygon fill="#63b8ff" stroke="#63b8ff" points="1230.2,-268.29 1238.41,-274.98 1236.16,-264.63 1230.2,-268.29"/>
</a>
</g>
</g>
<!-- Node29 -->
<g id="Node000029" class="node">
<title>Node29</title>
<g id="a_Node000029"><a xlink:href="testAsync_8cpp.html#a99df4beb8b1a87e829186889781e860e" target="_top" xlink:title=" ">
<polygon fill="white" stroke="#666666" points="1109.5,-128.28 1005.5,-128.28 1005.5,-109.28 1109.5,-109.28 1109.5,-128.28"/>
<text text-anchor="middle" x="1057.5" y="-116.28" font-family="Ubuntu Mono" font-size="10.00">printSparseMatrix</text>
</a>
</g>
</g>
<!-- Node1&#45;&gt;Node29 -->
<g id="edge33_Node000001_Node000029" class="edge">
<title>Node1&#45;&gt;Node29</title>
<g id="a_edge33_Node000001_Node000029"><a xlink:title=" ">
<path fill="none" stroke="#63b8ff" d="M1236.92,-265.46C1224.17,-233.52 1194.18,-170.02 1147,-137.78 1136.1,-130.33 1122.83,-125.72 1109.91,-122.9"/>
<polygon fill="#63b8ff" stroke="#63b8ff" points="1233.73,-266.92 1240.59,-275 1240.26,-264.41 1233.73,-266.92"/>
</a>
</g>
</g>
<!-- Node30 -->
<g id="Node000030" class="node">
<title>Node30</title>
<g id="a_Node000030"><a xlink:href="testAsync_8cpp.html#a8a63d6ea1e230a00457f4c3ea941f880" target="_top" xlink:title=" ">
<polygon fill="white" stroke="#666666" points="1107.5,-91.28 1007.5,-91.28 1007.5,-72.28 1107.5,-72.28 1107.5,-91.28"/>
<text text-anchor="middle" x="1057.5" y="-79.28" font-family="Ubuntu Mono" font-size="10.00">testSparseMatrix</text>
</a>
</g>
</g>
<!-- Node1&#45;&gt;Node30 -->
<g id="edge34_Node000001_Node000030" class="edge">
<title>Node1&#45;&gt;Node30</title>
<g id="a_edge34_Node000001_Node000030"><a xlink:title=" ">
<path fill="none" stroke="#63b8ff" d="M1239.49,-264.99C1229.71,-226.82 1202.79,-143.06 1147,-100.78 1135.73,-92.23 1121.44,-87.35 1107.66,-84.61"/>
<polygon fill="#63b8ff" stroke="#63b8ff" points="1236.13,-265.99 1241.9,-274.88 1242.93,-264.34 1236.13,-265.99"/>
</a>
</g>
</g>
<!-- Node31 -->
<g id="Node000031" class="node">
<title>Node31</title>
<g id="a_Node000031"><a xlink:href="classSparseMsg.html#aa6f161e4c1afcdba8f5f4ee0e477a23f" target="_top" xlink:title=" ">
<polygon fill="white" stroke="#666666" points="1131,-54.28 984,-54.28 984,-35.28 1131,-35.28 1131,-54.28"/>
<text text-anchor="middle" x="1057.5" y="-42.28" font-family="Ubuntu Mono" font-size="10.00">SparseMsg::updateAfterFill</text>
</a>
</g>
</g>
<!-- Node1&#45;&gt;Node31 -->
<g id="edge35_Node000001_Node000031" class="edge">
<title>Node1&#45;&gt;Node31</title>
<g id="a_edge35_Node000001_Node000031"><a xlink:title=" ">
<path fill="none" stroke="#63b8ff" d="M1241.46,-264.9C1234.74,-221.01 1212.3,-115.56 1147,-62.78 1142.24,-58.93 1136.88,-55.84 1131.21,-53.37"/>
<polygon fill="#63b8ff" stroke="#63b8ff" points="1238.01,-265.47 1242.87,-274.88 1244.94,-264.49 1238.01,-265.47"/>
</a>
</g>
</g>
<!-- Node3 -->
<g id="Node000003" class="node">
<title>Node3</title>
<g id="a_Node000003"><a xlink:href="classVoxelPools.html#ab473f3886b4c10ba216a3e09c659c045" target="_top" xlink:title=" ">
<polygon fill="white" stroke="#666666" points="920.5,-541.28 783.5,-541.28 783.5,-522.28 920.5,-522.28 920.5,-541.28"/>
<text text-anchor="middle" x="852" y="-529.28" font-family="Ubuntu Mono" font-size="10.00">VoxelPools::updateRates</text>
</a>
</g>
</g>
<!-- Node2&#45;&gt;Node3 -->
<g id="edge2_Node000002_Node000003" class="edge">
<title>Node2&#45;&gt;Node3</title>
<g id="a_edge2_Node000002_Node000003"><a xlink:title=" ">
<path fill="none" stroke="#63b8ff" d="M974.1,-531.78C956.29,-531.78 937.66,-531.78 920.51,-531.78"/>
<polygon fill="#63b8ff" stroke="#63b8ff" points="974.47,-535.28 984.47,-531.78 974.47,-528.28 974.47,-535.28"/>
</a>
</g>
</g>
<!-- Node4 -->
<g id="Node000004" class="node">
<title>Node4</title>
<g id="a_Node000004"><a xlink:href="classVoxelPools.html#a9fea259924a72a148ec3307eacb72354" target="_top" xlink:title=" ">
<polygon fill="white" stroke="#666666" points="725.5,-541.28 606.5,-541.28 606.5,-522.28 725.5,-522.28 725.5,-541.28"/>
<text text-anchor="middle" x="666" y="-529.28" font-family="Ubuntu Mono" font-size="10.00">VoxelPools::lsodaSys</text>
</a>
</g>
</g>
<!-- Node3&#45;&gt;Node4 -->
<g id="edge3_Node000003_Node000004" class="edge">
<title>Node3&#45;&gt;Node4</title>
<g id="a_edge3_Node000003_Node000004"><a xlink:title=" ">
<path fill="none" stroke="#63b8ff" d="M772.93,-531.78C757.03,-531.78 740.57,-531.78 725.5,-531.78"/>
<polygon fill="#63b8ff" stroke="#63b8ff" points="773.27,-535.28 783.27,-531.78 773.27,-528.28 773.27,-535.28"/>
</a>
</g>
</g>
<!-- Node5 -->
<g id="Node000005" class="node">
<title>Node5</title>
<g id="a_Node000005"><a xlink:href="classVoxelPools.html#a51be6a923d1147f72e665be2a1f5fb41" target="_top" xlink:title="Do the numerical integration. Advance the simulation.">
<polygon fill="white" stroke="#666666" points="559.5,-541.28 443.5,-541.28 443.5,-522.28 559.5,-522.28 559.5,-541.28"/>
<text text-anchor="middle" x="501.5" y="-529.28" font-family="Ubuntu Mono" font-size="10.00">VoxelPools::advance</text>
</a>
</g>
</g>
<!-- Node4&#45;&gt;Node5 -->
<g id="edge4_Node000004_Node000005" class="edge">
<title>Node4&#45;&gt;Node5</title>
<g id="a_edge4_Node000004_Node000005"><a xlink:title=" ">
<path fill="none" stroke="#63b8ff" d="M596.23,-531.78C584.07,-531.78 571.52,-531.78 559.72,-531.78"/>
<polygon fill="#63b8ff" stroke="#63b8ff" points="596.33,-535.28 606.33,-531.78 596.33,-528.28 596.33,-535.28"/>
</a>
</g>
</g>
<!-- Node6 -->
<g id="Node000006" class="node">
<title>Node6</title>
<g id="a_Node000006"><a xlink:href="classKsolve.html#af2745d07ee61be7eaaba394941f1c796" target="_top" xlink:title=" ">
<polygon fill="white" stroke="#666666" points="407,-541.28 276,-541.28 276,-522.28 407,-522.28 407,-541.28"/>
<text text-anchor="middle" x="341.5" y="-529.28" font-family="Ubuntu Mono" font-size="10.00">Ksolve::advance_chunk</text>
</a>
</g>
</g>
<!-- Node5&#45;&gt;Node6 -->
<g id="edge5_Node000005_Node000006" class="edge">
<title>Node5&#45;&gt;Node6</title>
<g id="a_edge5_Node000005_Node000006"><a xlink:title=" ">
<path fill="none" stroke="#63b8ff" d="M433.4,-531.78C424.73,-531.78 415.86,-531.78 407.23,-531.78"/>
<polygon fill="#63b8ff" stroke="#63b8ff" points="433.46,-535.28 443.46,-531.78 433.46,-528.28 433.46,-535.28"/>
</a>
</g>
</g>
<!-- Node7 -->
<g id="Node000007" class="node">
<title>Node7</title>
<g id="a_Node000007"><a xlink:href="classKsolve.html#a595f7ab8fe6fc96b6df95b3d63af465a" target="_top" xlink:title=" ">
<polygon fill="white" stroke="#666666" points="233,-522.28 140,-522.28 140,-503.28 233,-503.28 233,-522.28"/>
<text text-anchor="middle" x="186.5" y="-510.28" font-family="Ubuntu Mono" font-size="10.00">Ksolve::process</text>
</a>
</g>
</g>
<!-- Node5&#45;&gt;Node7 -->
<g id="edge9_Node000005_Node000007" class="edge">
<title>Node5&#45;&gt;Node7</title>
<g id="a_edge9_Node000005_Node000007"><a xlink:title=" ">
<path fill="none" stroke="#63b8ff" d="M449.94,-520.27C436.1,-517.6 421.03,-515.15 407,-513.78 347.07,-507.92 277.51,-508.91 233.03,-510.53"/>
<polygon fill="#63b8ff" stroke="#63b8ff" points="449.29,-523.71 459.78,-522.23 450.66,-516.84 449.29,-523.71"/>
</a>
</g>
</g>
<!-- Node9 -->
<g id="Node000009" class="node">
<title>Node9</title>
<g id="a_Node000009"><a xlink:href="classKsolve.html#a70c6ebd8b5c35522b19de3a2d004243c" target="_top" xlink:title=" ">
<polygon fill="white" stroke="#666666" points="403,-578.28 280,-578.28 280,-559.28 403,-559.28 403,-578.28"/>
<text text-anchor="middle" x="341.5" y="-566.28" font-family="Ubuntu Mono" font-size="10.00">Ksolve::advance_pool</text>
</a>
</g>
</g>
<!-- Node5&#45;&gt;Node9 -->
<g id="edge8_Node000005_Node000009" class="edge">
<title>Node5&#45;&gt;Node9</title>
<g id="a_edge8_Node000005_Node000009"><a xlink:title=" ">
<path fill="none" stroke="#63b8ff" d="M449.87,-543.63C428.37,-548.67 403.63,-554.46 383.33,-559.22"/>
<polygon fill="#63b8ff" stroke="#63b8ff" points="450.87,-546.99 459.81,-541.31 449.28,-540.18 450.87,-546.99"/>
</a>
</g>
</g>
<!-- Node6&#45;&gt;Node7 -->
<g id="edge6_Node000006_Node000007" class="edge">
<title>Node6&#45;&gt;Node7</title>
<g id="a_edge6_Node000006_Node000007"><a xlink:title=" ">
<path fill="none" stroke="#63b8ff" d="M265.47,-522.46C254.38,-521.08 243.25,-519.7 233.02,-518.43"/>
<polygon fill="#63b8ff" stroke="#63b8ff" points="265.26,-525.96 275.61,-523.72 266.12,-519.01 265.26,-525.96"/>
</a>
</g>
</g>
<!-- Node8 -->
<g id="Node000008" class="node">
<title>Node8</title>
<g id="a_Node000008"><a xlink:href="classKsolve.html#a55f3a588c1ed27ffd822d7fe7744be32" target="_top" xlink:title=" ">
<polygon fill="white" stroke="#666666" points="97,-522.28 0,-522.28 0,-503.28 97,-503.28 97,-522.28"/>
<text text-anchor="middle" x="48.5" y="-510.28" font-family="Ubuntu Mono" font-size="10.00">Ksolve::initCinfo</text>
</a>
</g>
</g>
<!-- Node7&#45;&gt;Node8 -->
<g id="edge7_Node000007_Node000008" class="edge">
<title>Node7&#45;&gt;Node8</title>
<g id="a_edge7_Node000007_Node000008"><a xlink:title=" ">
<path fill="none" stroke="#63b8ff" d="M129.65,-512.78C118.86,-512.78 107.64,-512.78 97.14,-512.78"/>
<polygon fill="#63b8ff" stroke="#63b8ff" points="129.84,-516.28 139.84,-512.78 129.84,-509.28 129.84,-516.28"/>
</a>
</g>
</g>
<!-- Node11 -->
<g id="Node000011" class="node">
<title>Node11</title>
<g id="a_Node000011"><a xlink:href="testMesh_8cpp.html#a18d83fbb87a6057ceee2198c71f061f5" target="_top" xlink:title=" ">
<polygon fill="white" stroke="#666666" points="928.5,-257.28 775.5,-257.28 775.5,-238.28 928.5,-238.28 928.5,-257.28"/>
<text text-anchor="middle" x="852" y="-245.28" font-family="Ubuntu Mono" font-size="10.00">testCubeMeshExtendStencil</text>
</a>
</g>
</g>
<!-- Node10&#45;&gt;Node11 -->
<g id="edge11_Node000010_Node000011" class="edge">
<title>Node10&#45;&gt;Node11</title>
<g id="a_edge11_Node000010_Node000011"><a xlink:title=" ">
<path fill="none" stroke="#63b8ff" d="M984.15,-328.44C978.61,-326.78 973.17,-324.9 968,-322.78 926.76,-305.86 884.41,-273.64 864.57,-257.5"/>
<polygon fill="#63b8ff" stroke="#63b8ff" points="983.63,-331.92 994.2,-331.21 985.49,-325.18 983.63,-331.92"/>
</a>
</g>
</g>
<!-- Node12 -->
<g id="Node000012" class="node">
<title>Node12</title>
<g id="a_Node000012"><a xlink:href="testMesh_8cpp.html#a02dc1e0f9b4ca2aaf1c8ad1903d71165" target="_top" xlink:title=" ">
<polygon fill="white" stroke="#666666" points="697,-239.28 635,-239.28 635,-220.28 697,-220.28 697,-239.28"/>
<text text-anchor="middle" x="666" y="-227.28" font-family="Ubuntu Mono" font-size="10.00">testMesh</text>
</a>
</g>
</g>
<!-- Node11&#45;&gt;Node12 -->
<g id="edge12_Node000011_Node000012" class="edge">
<title>Node11&#45;&gt;Node12</title>
<g id="a_edge12_Node000011_Node000012"><a xlink:title=" ">
<path fill="none" stroke="#63b8ff" d="M765.36,-239.4C741.02,-237.02 716.08,-234.58 697.41,-232.75"/>
<polygon fill="#63b8ff" stroke="#63b8ff" points="765.07,-242.89 775.36,-240.38 765.75,-235.92 765.07,-242.89"/>
</a>
</g>
</g>
<!-- Node14 -->
<g id="Node000014" class="node">
<title>Node14</title>
<g id="a_Node000014"><a xlink:href="classSparseMsg.html#aa905d06a5bbd4e88bd29691e125a9baf" target="_top" xlink:title=" ">
<polygon fill="white" stroke="#666666" points="908.5,-464.28 795.5,-464.28 795.5,-445.28 908.5,-445.28 908.5,-464.28"/>
<text text-anchor="middle" x="852" y="-452.28" font-family="Ubuntu Mono" font-size="10.00">SparseMsg::sources</text>
</a>
</g>
</g>
<!-- Node13&#45;&gt;Node14 -->
<g id="edge14_Node000013_Node000014" class="edge">
<title>Node13&#45;&gt;Node14</title>
<g id="a_edge14_Node000013_Node000014"><a xlink:title=" ">
<path fill="none" stroke="#63b8ff" d="M992.15,-478.03C965.29,-473.54 934.38,-468.37 908.53,-464.06"/>
<polygon fill="#63b8ff" stroke="#63b8ff" points="991.79,-481.51 1002.23,-479.71 992.95,-474.61 991.79,-481.51"/>
</a>
</g>
</g>
<!-- Node15 -->
<g id="Node000015" class="node">
<title>Node15</title>
<g id="a_Node000015"><a xlink:href="classSparseMsg.html#ae4e52b912546eca2904cd44103969a1a" target="_top" xlink:title=" ">
<polygon fill="white" stroke="#666666" points="907,-501.28 797,-501.28 797,-482.28 907,-482.28 907,-501.28"/>
<text text-anchor="middle" x="852" y="-489.28" font-family="Ubuntu Mono" font-size="10.00">SparseMsg::targets</text>
</a>
</g>
</g>
<!-- Node13&#45;&gt;Node15 -->
<g id="edge15_Node000013_Node000015" class="edge">
<title>Node13&#45;&gt;Node15</title>
<g id="a_edge15_Node000013_Node000015"><a xlink:title=" ">
<path fill="none" stroke="#63b8ff" d="M991.99,-489.73C964.67,-490.13 933.2,-490.6 907.12,-490.98"/>
<polygon fill="#63b8ff" stroke="#63b8ff" points="992.29,-493.22 1002.23,-489.58 992.18,-486.23 992.29,-493.22"/>
</a>
</g>
</g>
<!-- Node17 -->
<g id="Node000017" class="node">
<title>Node17</title>
<g id="a_Node000017"><a xlink:href="classGsolve.html#a20e6c958da9b8a188b3ae503adfc0a36" target="_top" xlink:title=" ">
<polygon fill="white" stroke="#666666" points="927.5,-424.28 776.5,-424.28 776.5,-405.28 927.5,-405.28 927.5,-424.28"/>
<text text-anchor="middle" x="852" y="-412.28" font-family="Ubuntu Mono" font-size="10.00">Gsolve::rebuildGssaSystem</text>
</a>
</g>
</g>
<!-- Node16&#45;&gt;Node17 -->
<g id="edge17_Node000016_Node000017" class="edge">
<title>Node16&#45;&gt;Node17</title>
<g id="a_edge17_Node000016_Node000017"><a xlink:title=" ">
<path fill="none" stroke="#63b8ff" d="M993.91,-440.4C965.62,-435.25 932.56,-429.24 905.58,-424.34"/>
<polygon fill="#63b8ff" stroke="#63b8ff" points="993.63,-443.9 1004.09,-442.25 994.88,-437.02 993.63,-443.9"/>
</a>
</g>
</g>
<!-- Node18 -->
<g id="Node000018" class="node">
<title>Node18</title>
<g id="a_Node000018"><a xlink:href="classGsolve.html#a65bd2d080e751fc5c26730742b526b0f" target="_top" xlink:title=" ">
<polygon fill="white" stroke="#666666" points="707,-424.28 625,-424.28 625,-405.28 707,-405.28 707,-424.28"/>
<text text-anchor="middle" x="666" y="-412.28" font-family="Ubuntu Mono" font-size="10.00">Gsolve::reinit</text>
</a>
</g>
</g>
<!-- Node17&#45;&gt;Node18 -->
<g id="edge18_Node000017_Node000018" class="edge">
<title>Node17&#45;&gt;Node18</title>
<g id="a_edge18_Node000017_Node000018"><a xlink:title=" ">
<path fill="none" stroke="#63b8ff" d="M766.35,-414.78C745.7,-414.78 724.55,-414.78 707.1,-414.78"/>
<polygon fill="#63b8ff" stroke="#63b8ff" points="766.43,-418.28 776.43,-414.78 766.43,-411.28 766.43,-418.28"/>
</a>
</g>
</g>
<!-- Node19 -->
<g id="Node000019" class="node">
<title>Node19</title>
<g id="a_Node000019"><a xlink:href="classGsolve.html#a957882fd0d9709d0bf6b8baf869330c5" target="_top" xlink:title=" ">
<polygon fill="white" stroke="#666666" points="550.5,-424.28 452.5,-424.28 452.5,-405.28 550.5,-405.28 550.5,-424.28"/>
<text text-anchor="middle" x="501.5" y="-412.28" font-family="Ubuntu Mono" font-size="10.00">Gsolve::initCinfo</text>
</a>
</g>
</g>
<!-- Node18&#45;&gt;Node19 -->
<g id="edge19_Node000018_Node000019" class="edge">
<title>Node18&#45;&gt;Node19</title>
<g id="a_edge19_Node000018_Node000019"><a xlink:title=" ">
<path fill="none" stroke="#63b8ff" d="M614.77,-414.78C594.33,-414.78 570.81,-414.78 550.59,-414.78"/>
<polygon fill="#63b8ff" stroke="#63b8ff" points="614.83,-418.28 624.83,-414.78 614.83,-411.28 614.83,-418.28"/>
</a>
</g>
</g>
<!-- Node20&#45;&gt;Node17 -->
<g id="edge21_Node000020_Node000017" class="edge">
<title>Node20&#45;&gt;Node17</title>
<g id="a_edge21_Node000020_Node000017"><a xlink:title=" ">
<path fill="none" stroke="#63b8ff" d="M985.26,-414.78C966.63,-414.78 946.49,-414.78 927.69,-414.78"/>
<polygon fill="#63b8ff" stroke="#63b8ff" points="985.44,-418.28 995.44,-414.78 985.44,-411.28 985.44,-418.28"/>
</a>
</g>
</g>
<!-- Node21&#45;&gt;Node17 -->
<g id="edge23_Node000021_Node000017" class="edge">
<title>Node21&#45;&gt;Node17</title>
<g id="a_edge23_Node000021_Node000017"><a xlink:title=" ">
<path fill="none" stroke="#63b8ff" d="M993.91,-389.16C965.62,-394.3 932.56,-400.31 905.58,-405.22"/>
<polygon fill="#63b8ff" stroke="#63b8ff" points="994.88,-392.54 1004.09,-387.31 993.63,-385.65 994.88,-392.54"/>
</a>
</g>
</g>
<!-- Node25 -->
<g id="Node000025" class="node">
<title>Node25</title>
<g id="a_Node000025"><a xlink:href="classNeuroMesh.html#a957bff17a5b461240f3c05571de0ead4" target="_top" xlink:title="Virtual function to return diffusion X&#45;section area.">
<polygon fill="white" stroke="#666666" points="932,-183.28 772,-183.28 772,-164.28 932,-164.28 932,-183.28"/>
<text text-anchor="middle" x="852" y="-171.28" font-family="Ubuntu Mono" font-size="10.00">NeuroMesh::getDiffusionArea</text>
</a>
</g>
</g>
<!-- Node24&#45;&gt;Node25 -->
<g id="edge27_Node000024_Node000025" class="edge">
<title>Node24&#45;&gt;Node25</title>
<g id="a_edge27_Node000024_Node000025"><a xlink:title=" ">
<path fill="none" stroke="#63b8ff" d="M974.43,-185.11C960.5,-183.81 946.06,-182.47 932.2,-181.17"/>
<polygon fill="#63b8ff" stroke="#63b8ff" points="974.19,-188.61 984.47,-186.05 974.84,-181.64 974.19,-188.61"/>
</a>
</g>
</g>
<!-- Node26 -->
<g id="Node000026" class="node">
<title>Node26</title>
<g id="a_Node000026"><a xlink:href="testMesh_8cpp.html#a15465209926d048327e50a93ad4cddd3" target="_top" xlink:title=" ">
<polygon fill="white" stroke="#666666" points="895,-220.28 809,-220.28 809,-201.28 895,-201.28 895,-220.28"/>
<text text-anchor="middle" x="852" y="-208.28" font-family="Ubuntu Mono" font-size="10.00">testCubeMesh</text>
</a>
</g>
</g>
<!-- Node24&#45;&gt;Node26 -->
<g id="edge28_Node000024_Node000026" class="edge">
<title>Node24&#45;&gt;Node26</title>
<g id="a_edge28_Node000024_Node000026"><a xlink:title=" ">
<path fill="none" stroke="#63b8ff" d="M974.2,-200.06C947.12,-202.45 918.13,-205.02 895.29,-207.04"/>
<polygon fill="#63b8ff" stroke="#63b8ff" points="974.81,-203.52 984.47,-199.15 974.2,-196.54 974.81,-203.52"/>
</a>
</g>
</g>
<!-- Node26&#45;&gt;Node12 -->
<g id="edge29_Node000026_Node000012" class="edge">
<title>Node26&#45;&gt;Node12</title>
<g id="a_edge29_Node000026_Node000012"><a xlink:title=" ">
<path fill="none" stroke="#63b8ff" d="M798.46,-216.2C765.69,-219.59 724.68,-223.82 697.25,-226.65"/>
<polygon fill="#63b8ff" stroke="#63b8ff" points="799.2,-219.64 808.79,-215.14 798.48,-212.68 799.2,-219.64"/>
</a>
</g>
</g>
<!-- Node27&#45;&gt;Node11 -->
<g id="edge31_Node000027_Node000011" class="edge">
<title>Node27&#45;&gt;Node11</title>
<g id="a_edge31_Node000027_Node000011"><a xlink:title=" ">
<path fill="none" stroke="#63b8ff" d="M971.6,-237.29C957.34,-238.55 942.63,-239.85 928.63,-241.09"/>
<polygon fill="#63b8ff" stroke="#63b8ff" points="972.23,-240.75 981.88,-236.38 971.61,-233.77 972.23,-240.75"/>
</a>
</g>
</g>
<!-- Node32 -->
<g id="Node000032" class="node">
<title>Node32</title>
<g id="a_Node000032"><a xlink:href="classSparseMsg.html#a0acfe2a1a7c98c9a3e5c8488fed97639" target="_top" xlink:title=" ">
<polygon fill="white" stroke="#666666" points="906.5,-35.28 797.5,-35.28 797.5,-16.28 906.5,-16.28 906.5,-35.28"/>
<text text-anchor="middle" x="852" y="-23.28" font-family="Ubuntu Mono" font-size="10.00">SparseMsg::pairFill</text>
</a>
</g>
</g>
<!-- Node31&#45;&gt;Node32 -->
<g id="edge36_Node000031_Node000032" class="edge">
<title>Node31&#45;&gt;Node32</title>
<g id="a_edge36_Node000031_Node000032"><a xlink:title=" ">
<path fill="none" stroke="#63b8ff" d="M973.93,-37.07C951.27,-34.95 927.28,-32.71 906.7,-30.79"/>
<polygon fill="#63b8ff" stroke="#63b8ff" points="973.61,-40.55 983.89,-38 974.26,-33.58 973.61,-40.55"/>
</a>
</g>
</g>
<!-- Node40 -->
<g id="Node000040" class="node">
<title>Node40</title>
<g id="a_Node000040"><a xlink:href="classSparseMsg.html#a560e49edfe66dce3c4b424f6060622e2" target="_top" xlink:title=" ">
<polygon fill="white" stroke="#666666" points="911.5,-73.28 792.5,-73.28 792.5,-54.28 911.5,-54.28 911.5,-73.28"/>
<text text-anchor="middle" x="852" y="-61.28" font-family="Ubuntu Mono" font-size="10.00">SparseMsg::tripletFill</text>
</a>
</g>
</g>
<!-- Node31&#45;&gt;Node40 -->
<g id="edge45_Node000031_Node000040" class="edge">
<title>Node31&#45;&gt;Node40</title>
<g id="a_edge45_Node000031_Node000040"><a xlink:title=" ">
<path fill="none" stroke="#63b8ff" d="M973.76,-52.5C952.89,-54.45 930.92,-56.5 911.53,-58.31"/>
<polygon fill="#63b8ff" stroke="#63b8ff" points="974.26,-55.97 983.89,-51.56 973.61,-49 974.26,-55.97"/>
</a>
</g>
</g>
<!-- Node33 -->
<g id="Node000033" class="node">
<title>Node33</title>
<g id="a_Node000033"><a xlink:href="classSparseMsg.html#ab0ecf3046d28351986deb6790d2c7668" target="_top" xlink:title=" ">
<polygon fill="white" stroke="#666666" points="560,-54.28 443,-54.28 443,-35.28 560,-35.28 560,-54.28"/>
<text text-anchor="middle" x="501.5" y="-42.28" font-family="Ubuntu Mono" font-size="10.00">SparseMsg::initCinfo</text>
</a>
</g>
</g>
<!-- Node32&#45;&gt;Node33 -->
<g id="edge37_Node000032_Node000033" class="edge">
<title>Node32&#45;&gt;Node33</title>
<g id="a_edge37_Node000032_Node000033"><a xlink:title=" ">
<path fill="none" stroke="#63b8ff" d="M800.93,-14.25C749.18,-4.15 666.26,6.95 596,-6.78 568.31,-12.19 538.47,-25.82 520.13,-35.2"/>
<polygon fill="#63b8ff" stroke="#63b8ff" points="800.36,-17.71 810.86,-16.25 801.75,-10.85 800.36,-17.71"/>
</a>
</g>
</g>
<!-- Node39 -->
<g id="Node000039" class="node">
<title>Node39</title>
<g id="a_Node000039"><a xlink:href="classSparseMsg.html#a5d3f2f4e9c8af8cd5f833f8ef269b5d5" target="_top" xlink:title=" ">
<polygon fill="white" stroke="#666666" points="736,-35.28 596,-35.28 596,-16.28 736,-16.28 736,-35.28"/>
<text text-anchor="middle" x="666" y="-23.28" font-family="Ubuntu Mono" font-size="10.00">SparseMsg::setEntryPairs</text>
</a>
</g>
</g>
<!-- Node32&#45;&gt;Node39 -->
<g id="edge43_Node000032_Node000039" class="edge">
<title>Node32&#45;&gt;Node39</title>
<g id="a_edge43_Node000032_Node000039"><a xlink:title=" ">
<path fill="none" stroke="#63b8ff" d="M787.22,-25.78C770.75,-25.78 752.95,-25.78 736.21,-25.78"/>
<polygon fill="#63b8ff" stroke="#63b8ff" points="787.28,-29.28 797.28,-25.78 787.28,-22.28 787.28,-29.28"/>
</a>
</g>
</g>
<!-- Node34 -->
<g id="Node000034" class="node">
<title>Node34</title>
<g id="a_Node000034"><a xlink:href="classMsg.html#af3de05897dc7602c64678a31c58ebece" target="_top" xlink:title=" ">
<polygon fill="white" stroke="#666666" points="405,-54.28 278,-54.28 278,-35.28 405,-35.28 405,-54.28"/>
<text text-anchor="middle" x="341.5" y="-42.28" font-family="Ubuntu Mono" font-size="10.00">Msg::initMsgManagers</text>
</a>
</g>
</g>
<!-- Node33&#45;&gt;Node34 -->
<g id="edge38_Node000033_Node000034" class="edge">
<title>Node33&#45;&gt;Node34</title>
<g id="a_edge38_Node000033_Node000034"><a xlink:title=" ">
<path fill="none" stroke="#63b8ff" d="M432.46,-44.78C423.41,-44.78 414.17,-44.78 405.22,-44.78"/>
<polygon fill="#63b8ff" stroke="#63b8ff" points="432.56,-48.28 442.56,-44.78 432.56,-41.28 432.56,-48.28"/>
</a>
</g>
</g>
<!-- Node35 -->
<g id="Node000035" class="node">
<title>Node35</title>
<g id="a_Node000035"><a xlink:href="main_8cpp.html#a6e304b494f9a324f952d9f2033b2b136" target="_top" xlink:title=" ">
<polygon fill="white" stroke="#666666" points="202.5,-36.28 170.5,-36.28 170.5,-17.28 202.5,-17.28 202.5,-36.28"/>
<text text-anchor="middle" x="186.5" y="-24.28" font-family="Ubuntu Mono" font-size="10.00">init</text>
</a>
</g>
</g>
<!-- Node34&#45;&gt;Node35 -->
<g id="edge39_Node000034_Node000035" class="edge">
<title>Node34&#45;&gt;Node35</title>
<g id="a_edge39_Node000034_Node000035"><a xlink:title=" ">
<path fill="none" stroke="#63b8ff" d="M267.73,-36.22C243.17,-33.33 218.1,-30.38 202.67,-28.56"/>
<polygon fill="#63b8ff" stroke="#63b8ff" points="267.49,-39.71 277.83,-37.4 268.31,-32.76 267.49,-39.71"/>
</a>
</g>
</g>
<!-- Node37 -->
<g id="Node000037" class="node">
<title>Node37</title>
<g id="a_Node000037"><a xlink:href="namespacepymoose.html#ac084ce08f68367317e7c014c61520ac9" target="_top" xlink:title="Initialize shell object.">
<polygon fill="white" stroke="#666666" points="240,-73.28 133,-73.28 133,-54.28 240,-54.28 240,-73.28"/>
<text text-anchor="middle" x="186.5" y="-61.28" font-family="Ubuntu Mono" font-size="10.00">pymoose::initShell</text>
</a>
</g>
</g>
<!-- Node34&#45;&gt;Node37 -->
<g id="edge41_Node000034_Node000037" class="edge">
<title>Node34&#45;&gt;Node37</title>
<g id="a_edge41_Node000034_Node000037"><a xlink:title=" ">
<path fill="none" stroke="#63b8ff" d="M267.75,-53.81C258.41,-54.97 249,-56.14 240.07,-57.25"/>
<polygon fill="#63b8ff" stroke="#63b8ff" points="268.34,-57.27 277.83,-52.56 267.47,-50.32 268.34,-57.27"/>
</a>
</g>
</g>
<!-- Node36 -->
<g id="Node000036" class="node">
<title>Node36</title>
<g id="a_Node000036"><a xlink:href="main_8cpp.html#a3c04138a5bfe5d72780bb7e82a18e627" target="_top" xlink:title=" ">
<polygon fill="white" stroke="#666666" points="69,-36.28 28,-36.28 28,-17.28 69,-17.28 69,-36.28"/>
<text text-anchor="middle" x="48.5" y="-24.28" font-family="Ubuntu Mono" font-size="10.00">main</text>
</a>
</g>
</g>
<!-- Node35&#45;&gt;Node36 -->
<g id="edge40_Node000035_Node000036" class="edge">
<title>Node35&#45;&gt;Node36</title>
<g id="a_edge40_Node000035_Node000036"><a xlink:title=" ">
<path fill="none" stroke="#63b8ff" d="M160.08,-26.78C133.69,-26.78 92.99,-26.78 69.02,-26.78"/>
<polygon fill="#63b8ff" stroke="#63b8ff" points="160.43,-30.28 170.43,-26.78 160.43,-23.28 160.43,-30.28"/>
</a>
</g>
</g>
<!-- Node38 -->
<g id="Node000038" class="node">
<title>Node38</title>
<g id="a_Node000038"><a xlink:href="pymoose_8cpp.html#a8650e41c2375717fa66fb61a653d866e" target="_top" xlink:title=" ">
<polygon fill="white" stroke="#666666" points="88,-73.28 9,-73.28 9,-54.28 88,-54.28 88,-73.28"/>
<text text-anchor="middle" x="48.5" y="-61.28" font-family="Ubuntu Mono" font-size="10.00">NB_MODULE</text>
</a>
</g>
</g>
<!-- Node37&#45;&gt;Node38 -->
<g id="edge42_Node000037_Node000038" class="edge">
<title>Node37&#45;&gt;Node38</title>
<g id="a_edge42_Node000037_Node000038"><a xlink:title=" ">
<path fill="none" stroke="#63b8ff" d="M122.63,-63.78C110.83,-63.78 98.81,-63.78 88.02,-63.78"/>
<polygon fill="#63b8ff" stroke="#63b8ff" points="122.92,-67.28 132.92,-63.78 122.92,-60.28 122.92,-67.28"/>
</a>
</g>
</g>
<!-- Node39&#45;&gt;Node33 -->
<g id="edge44_Node000039_Node000033" class="edge">
<title>Node39&#45;&gt;Node33</title>
<g id="a_edge44_Node000039_Node000033"><a xlink:title=" ">
<path fill="none" stroke="#63b8ff" d="M585.58,-35.06C577.01,-36.07 568.41,-37.07 560.16,-38.04"/>
<polygon fill="#63b8ff" stroke="#63b8ff" points="586.09,-38.53 595.61,-33.89 585.28,-31.58 586.09,-38.53"/>
</a>
</g>
</g>
<!-- Node40&#45;&gt;Node33 -->
<g id="edge46_Node000040_Node000033" class="edge">
<title>Node40&#45;&gt;Node33</title>
<g id="a_edge46_Node000040_Node000033"><a xlink:title=" ">
<path fill="none" stroke="#63b8ff" d="M782.13,-60.02C717.19,-56.48 620.96,-51.24 560.01,-47.91"/>
<polygon fill="#63b8ff" stroke="#63b8ff" points="782.1,-63.53 792.28,-60.58 782.48,-56.54 782.1,-63.53"/>
</a>
</g>
</g>
<!-- Node41 -->
<g id="Node000041" class="node">
<title>Node41</title>
<g id="a_Node000041"><a xlink:href="classSparseMsg.html#a81fe252d7c6517ca142d569b25e3a2fa" target="_top" xlink:title=" ">
<polygon fill="white" stroke="#666666" points="728.5,-111.28 603.5,-111.28 603.5,-92.28 728.5,-92.28 728.5,-111.28"/>
<text text-anchor="middle" x="666" y="-99.28" font-family="Ubuntu Mono" font-size="10.00">SparseMsg::tripletFill1</text>
</a>
</g>
</g>
<!-- Node40&#45;&gt;Node41 -->
<g id="edge47_Node000040_Node000041" class="edge">
<title>Node40&#45;&gt;Node41</title>
<g id="a_edge47_Node000040_Node000041"><a xlink:title=" ">
<path fill="none" stroke="#63b8ff" d="M794.44,-75.46C768.35,-80.85 737.76,-87.16 713.1,-92.26"/>
<polygon fill="#63b8ff" stroke="#63b8ff" points="795.48,-78.82 804.57,-73.37 794.07,-71.96 795.48,-78.82"/>
</a>
</g>
</g>
<!-- Node41&#45;&gt;Node33 -->
<g id="edge48_Node000041_Node000033" class="edge">
<title>Node41&#45;&gt;Node33</title>
<g id="a_edge48_Node000041_Node000033"><a xlink:title=" ">
<path fill="none" stroke="#63b8ff" d="M627.89,-88.9C617.56,-85.31 606.34,-81.4 596,-77.78 573.58,-69.92 548.16,-60.95 529.49,-54.34"/>
<polygon fill="#63b8ff" stroke="#63b8ff" points="626.86,-92.25 637.46,-92.23 629.16,-85.64 626.86,-92.25"/>
</a>
</g>
</g>
</g>
</svg>
