<?xml version="1.0" encoding="UTF-8" standalone="no"?>
<!DOCTYPE svg PUBLIC "-//W3C//DTD SVG 1.1//EN"
 "http://www.w3.org/Graphics/SVG/1.1/DTD/svg11.dtd">
<!-- Generated by graphviz version 2.43.0 (0)
 -->
<!-- Title: TgtInfo::set Pages: 1 -->
<svg width="479pt" height="101pt"
 viewBox="0.00 0.00 479.00 101.00" xmlns="http://www.w3.org/2000/svg" xmlns:xlink="http://www.w3.org/1999/xlink">
<g id="graph0" class="graph" transform="scale(1 1) rotate(0) translate(4 97)">
<title>TgtInfo::set</title>
<!-- Node1 -->
<g id="Node000001" class="node">
<title>Node1</title>
<g id="a_Node000001"><a xlink:title=" ">
<polygon fill="#999999" stroke="#666666" points="471,-56 399,-56 399,-37 471,-37 471,-56"/>
<text text-anchor="middle" x="435" y="-44" font-family="Ubuntu Mono" font-size="10.00">TgtInfo::set</text>
</a>
</g>
</g>
<!-- Node2 -->
<g id="Node000002" class="node">
<title>Node2</title>
<g id="a_Node000002"><a xlink:href="classPostMaster.html#a876a2e38d1d67403600ab9be82819479" target="_top" xlink:title="Returns pointer to Send buffer for filling in arguments.">
<polygon fill="white" stroke="#666666" points="363,-93 217,-93 217,-74 363,-74 363,-93"/>
<text text-anchor="middle" x="290" y="-81" font-family="Ubuntu Mono" font-size="10.00">PostMaster::addToSendBuf</text>
</a>
</g>
</g>
<!-- Node1&#45;&gt;Node2 -->
<g id="edge1_Node000001_Node000002" class="edge">
<title>Node1&#45;&gt;Node2</title>
<g id="a_edge1_Node000001_Node000002"><a xlink:title=" ">
<path fill="none" stroke="#63b8ff" d="M388.79,-58.72C380.23,-61 371.35,-63.34 363,-65.5 352.15,-68.31 340.36,-71.29 329.52,-74"/>
<polygon fill="#63b8ff" stroke="#63b8ff" points="389.88,-62.05 398.64,-56.09 388.07,-55.29 389.88,-62.05"/>
</a>
</g>
</g>
<!-- Node5 -->
<g id="Node000005" class="node">
<title>Node5</title>
<g id="a_Node000005"><a xlink:href="classPostMaster.html#ac43e8705dfcb019e2851b426817d0f79" target="_top" xlink:title="Returns pointer to Set buffer for filling in arguments.">
<polygon fill="white" stroke="#666666" points="359,-56 221,-56 221,-37 359,-37 359,-56"/>
<text text-anchor="middle" x="290" y="-44" font-family="Ubuntu Mono" font-size="10.00">PostMaster::addToSetBuf</text>
</a>
</g>
</g>
<!-- Node1&#45;&gt;Node5 -->
<g id="edge4_Node000001_Node000005" class="edge">
<title>Node1&#45;&gt;Node5</title>
<g id="a_edge4_Node000001_Node000005"><a xlink:title=" ">
<path fill="none" stroke="#63b8ff" d="M388.44,-46.5C379.11,-46.5 369.09,-46.5 359.15,-46.5"/>
<polygon fill="#63b8ff" stroke="#63b8ff" points="388.65,-50 398.65,-46.5 388.65,-43 388.65,-50"/>
</a>
</g>
</g>
<!-- Node6 -->
<g id="Node000006" class="node">
<title>Node6</title>
<g id="a_Node000006"><a xlink:href="HopFunc_8cpp.html#a6fc3877660f687eea8e754c09cee400a" target="_top" xlink:title=" ">
<polygon fill="white" stroke="#666666" points="330.5,-19 249.5,-19 249.5,0 330.5,0 330.5,-19"/>
<text text-anchor="middle" x="290" y="-7" font-family="Ubuntu Mono" font-size="10.00">addToTestBuf</text>
</a>
</g>
</g>
<!-- Node1&#45;&gt;Node6 -->
<g id="edge6_Node000001_Node000006" class="edge">
<title>Node1&#45;&gt;Node6</title>
<g id="a_edge6_Node000001_Node000006"><a xlink:title=" ">
<path fill="none" stroke="#63b8ff" d="M388.72,-34.78C369.13,-29.72 346.49,-23.86 327.94,-19.06"/>
<polygon fill="#63b8ff" stroke="#63b8ff" points="388.09,-38.24 398.65,-37.35 389.85,-31.46 388.09,-38.24"/>
</a>
</g>
</g>
<!-- Node3 -->
<g id="Node000003" class="node">
<title>Node3</title>
<g id="a_Node000003"><a xlink:href="HopFunc_8cpp.html#aa27d93ddd8e90d543c8462d00cf102e0" target="_top" xlink:title=" ">
<polygon fill="white" stroke="#666666" points="181,-56 119,-56 119,-37 181,-37 181,-56"/>
<text text-anchor="middle" x="150" y="-44" font-family="Ubuntu Mono" font-size="10.00">addToBuf</text>
</a>
</g>
</g>
<!-- Node2&#45;&gt;Node3 -->
<g id="edge2_Node000002_Node000003" class="edge">
<title>Node2&#45;&gt;Node3</title>
<g id="a_edge2_Node000002_Node000003"><a xlink:title=" ">
<path fill="none" stroke="#63b8ff" d="M239.79,-71.44C232.15,-69.5 224.35,-67.48 217,-65.5 205.25,-62.34 192.39,-58.68 181.17,-55.43"/>
<polygon fill="#63b8ff" stroke="#63b8ff" points="239.15,-74.89 249.7,-73.94 240.86,-68.1 239.15,-74.89"/>
</a>
</g>
</g>
<!-- Node4 -->
<g id="Node000004" class="node">
<title>Node4</title>
<g id="a_Node000004"><a xlink:href="classHopFunc0.html#a5e329805eab0c4302edb5b5454cb8b0f" target="_top" xlink:title=" ">
<polygon fill="white" stroke="#666666" points="83,-56 0,-56 0,-37 83,-37 83,-56"/>
<text text-anchor="middle" x="41.5" y="-44" font-family="Ubuntu Mono" font-size="10.00">HopFunc0::op</text>
</a>
</g>
</g>
<!-- Node3&#45;&gt;Node4 -->
<g id="edge3_Node000003_Node000004" class="edge">
<title>Node3&#45;&gt;Node4</title>
<g id="a_edge3_Node000003_Node000004"><a xlink:title=" ">
<path fill="none" stroke="#63b8ff" d="M108.54,-46.5C100.23,-46.5 91.47,-46.5 83.15,-46.5"/>
<polygon fill="#63b8ff" stroke="#63b8ff" points="108.77,-50 118.77,-46.5 108.77,-43 108.77,-50"/>
</a>
</g>
</g>
<!-- Node5&#45;&gt;Node3 -->
<g id="edge5_Node000005_Node000003" class="edge">
<title>Node5&#45;&gt;Node3</title>
<g id="a_edge5_Node000005_Node000003"><a xlink:title=" ">
<path fill="none" stroke="#63b8ff" d="M210.67,-46.5C200.16,-46.5 189.94,-46.5 181.01,-46.5"/>
<polygon fill="#63b8ff" stroke="#63b8ff" points="210.81,-50 220.81,-46.5 210.81,-43 210.81,-50"/>
</a>
</g>
</g>
<!-- Node6&#45;&gt;Node3 -->
<g id="edge7_Node000006_Node000003" class="edge">
<title>Node6&#45;&gt;Node3</title>
<g id="a_edge7_Node000006_Node000003"><a xlink:title=" ">
<path fill="none" stroke="#63b8ff" d="M242.83,-21.62C234.24,-23.9 225.35,-26.26 217,-28.5 205.3,-31.64 192.45,-35.13 181.21,-38.2"/>
<polygon fill="#63b8ff" stroke="#63b8ff" points="243.95,-24.95 252.73,-19.01 242.16,-18.18 243.95,-24.95"/>
</a>
</g>
</g>
</g>
</svg>
