<?xml version="1.0" encoding="UTF-8" standalone="no"?>
<!DOCTYPE svg PUBLIC "-//W3C//DTD SVG 1.1//EN"
 "http://www.w3.org/Graphics/SVG/1.1/DTD/svg11.dtd">
<!-- Generated by graphviz version 2.43.0 (0)
 -->
<!-- Title: MgBlock Pages: 1 -->
<svg width="123pt" height="932pt"
 viewBox="0.00 0.00 123.00 932.00" xmlns="http://www.w3.org/2000/svg" xmlns:xlink="http://www.w3.org/1999/xlink">
<g id="graph0" class="graph" transform="scale(1 1) rotate(0) translate(4 928)">
<title>MgBlock</title>
<!-- Node1 -->
<g id="Node000001" class="node">
<title>Node1</title>
<g id="a_Node000001"><a xlink:title=" ">
<polygon fill="#999999" stroke="transparent" points="101.5,-289 13.5,-289 13.5,0 101.5,0 101.5,-289"/>
<text text-anchor="start" x="36" y="-276.5" font-family="Ubuntu Mono" font-size="10.00">MgBlock</text>
<text text-anchor="start" x="20" y="-261.5" font-family="Ubuntu Mono" font-size="10.00">&#45;</text>
<text text-anchor="start" x="30.5" y="-261.5" font-family="Ubuntu Mono" font-size="10.00">CMg_</text>
<text text-anchor="start" x="20" y="-246.5" font-family="Ubuntu Mono" font-size="10.00">&#45;</text>
<text text-anchor="start" x="30.5" y="-246.5" font-family="Ubuntu Mono" font-size="10.00">KMg_A_</text>
<text text-anchor="start" x="20" y="-231.5" font-family="Ubuntu Mono" font-size="10.00">&#45;</text>
<text text-anchor="start" x="30.5" y="-231.5" font-family="Ubuntu Mono" font-size="10.00">KMg_B_</text>
<text text-anchor="start" x="20" y="-216.5" font-family="Ubuntu Mono" font-size="10.00">&#45;</text>
<text text-anchor="start" x="30.5" y="-216.5" font-family="Ubuntu Mono" font-size="10.00">origGk_</text>
<text text-anchor="start" x="20" y="-201.5" font-family="Ubuntu Mono" font-size="10.00">&#45;</text>
<text text-anchor="start" x="30.5" y="-201.5" font-family="Ubuntu Mono" font-size="10.00">Zk_</text>
<text text-anchor="start" x="17.5" y="-186.5" font-family="Ubuntu Mono" font-size="10.00">+</text>
<text text-anchor="start" x="30.5" y="-186.5" font-family="Ubuntu Mono" font-size="10.00">getCMg()</text>
<text text-anchor="start" x="17.5" y="-171.5" font-family="Ubuntu Mono" font-size="10.00">+</text>
<text text-anchor="start" x="30.5" y="-171.5" font-family="Ubuntu Mono" font-size="10.00">getKMg_A()</text>
<text text-anchor="start" x="17.5" y="-156.5" font-family="Ubuntu Mono" font-size="10.00">+</text>
<text text-anchor="start" x="30.5" y="-156.5" font-family="Ubuntu Mono" font-size="10.00">getKMg_B()</text>
<text text-anchor="start" x="17.5" y="-141.5" font-family="Ubuntu Mono" font-size="10.00">+</text>
<text text-anchor="start" x="30.5" y="-141.5" font-family="Ubuntu Mono" font-size="10.00">getZk()</text>
<text text-anchor="start" x="17.5" y="-126.5" font-family="Ubuntu Mono" font-size="10.00">+</text>
<text text-anchor="start" x="30.5" y="-126.5" font-family="Ubuntu Mono" font-size="10.00">MgBlock()</text>
<text text-anchor="start" x="17.5" y="-111.5" font-family="Ubuntu Mono" font-size="10.00">+</text>
<text text-anchor="start" x="30.5" y="-111.5" font-family="Ubuntu Mono" font-size="10.00">origChannel()</text>
<text text-anchor="start" x="17.5" y="-96.5" font-family="Ubuntu Mono" font-size="10.00">+</text>
<text text-anchor="start" x="30.5" y="-96.5" font-family="Ubuntu Mono" font-size="10.00">setCMg()</text>
<text text-anchor="start" x="17.5" y="-81.5" font-family="Ubuntu Mono" font-size="10.00">+</text>
<text text-anchor="start" x="30.5" y="-81.5" font-family="Ubuntu Mono" font-size="10.00">setKMg_A()</text>
<text text-anchor="start" x="17.5" y="-66.5" font-family="Ubuntu Mono" font-size="10.00">+</text>
<text text-anchor="start" x="30.5" y="-66.5" font-family="Ubuntu Mono" font-size="10.00">setKMg_B()</text>
<text text-anchor="start" x="17.5" y="-51.5" font-family="Ubuntu Mono" font-size="10.00">+</text>
<text text-anchor="start" x="30.5" y="-51.5" font-family="Ubuntu Mono" font-size="10.00">setZk()</text>
<text text-anchor="start" x="17.5" y="-36.5" font-family="Ubuntu Mono" font-size="10.00">+</text>
<text text-anchor="start" x="30.5" y="-36.5" font-family="Ubuntu Mono" font-size="10.00">vProcess()</text>
<text text-anchor="start" x="17.5" y="-21.5" font-family="Ubuntu Mono" font-size="10.00">+</text>
<text text-anchor="start" x="30.5" y="-21.5" font-family="Ubuntu Mono" font-size="10.00">vReinit()</text>
<text text-anchor="start" x="17.5" y="-6.5" font-family="Ubuntu Mono" font-size="10.00">+</text>
<text text-anchor="start" x="30.5" y="-6.5" font-family="Ubuntu Mono" font-size="10.00">initCinfo()</text>
<polygon fill="#666666" stroke="#666666" points="13.5,-271.5 13.5,-271.5 101.5,-271.5 101.5,-271.5 13.5,-271.5"/>
<polygon fill="#666666" stroke="#666666" points="13.5,-196.5 13.5,-196.5 28.5,-196.5 28.5,-196.5 13.5,-196.5"/>
<polygon fill="#666666" stroke="#666666" points="28.5,-196.5 28.5,-196.5 101.5,-196.5 101.5,-196.5 28.5,-196.5"/>
<polygon fill="none" stroke="#666666" points="13.5,0 13.5,-289 101.5,-289 101.5,0 13.5,0"/>
</a>
</g>
</g>
<!-- Node2 -->
<g id="Node000002" class="node">
<title>Node2</title>
<g id="a_Node000002"><a xlink:href="classChanCommon.html" target="_top" xlink:title=" ">
<polygon fill="white" stroke="transparent" points="115,-629 0,-629 0,-325 115,-325 115,-629"/>
<text text-anchor="start" x="23" y="-617" font-family="Ubuntu Mono" font-size="10.00">ChanCommon</text>
<text text-anchor="start" x="4.5" y="-602" font-family="Ubuntu Mono" font-size="10.00">#</text>
<text text-anchor="start" x="17.5" y="-602" font-family="Ubuntu Mono" font-size="10.00">Vm_</text>
<text text-anchor="start" x="7" y="-587" font-family="Ubuntu Mono" font-size="10.00">&#45;</text>
<text text-anchor="start" x="17.5" y="-587" font-family="Ubuntu Mono" font-size="10.00">Ek_</text>
<text text-anchor="start" x="7" y="-572" font-family="Ubuntu Mono" font-size="10.00">&#45;</text>
<text text-anchor="start" x="17.5" y="-572" font-family="Ubuntu Mono" font-size="10.00">Gbar_</text>
<text text-anchor="start" x="7" y="-557" font-family="Ubuntu Mono" font-size="10.00">&#45;</text>
<text text-anchor="start" x="17.5" y="-557" font-family="Ubuntu Mono" font-size="10.00">Gk_</text>
<text text-anchor="start" x="7" y="-542" font-family="Ubuntu Mono" font-size="10.00">&#45;</text>
<text text-anchor="start" x="17.5" y="-542" font-family="Ubuntu Mono" font-size="10.00">Ik_</text>
<text text-anchor="start" x="7" y="-527" font-family="Ubuntu Mono" font-size="10.00">&#45;</text>
<text text-anchor="start" x="17.5" y="-527" font-family="Ubuntu Mono" font-size="10.00">modulation_</text>
<text text-anchor="start" x="4.5" y="-512" font-family="Ubuntu Mono" font-size="10.00">+</text>
<text text-anchor="start" x="17.5" y="-512" font-family="Ubuntu Mono" font-size="10.00">ChanCommon()</text>
<text text-anchor="start" x="4.5" y="-497" font-family="Ubuntu Mono" font-size="10.00">+</text>
<text text-anchor="start" x="17.5" y="-497" font-family="Ubuntu Mono" font-size="10.00">getGbar()</text>
<text text-anchor="start" x="4.5" y="-482" font-family="Ubuntu Mono" font-size="10.00">+</text>
<text text-anchor="start" x="17.5" y="-482" font-family="Ubuntu Mono" font-size="10.00">getVm()</text>
<text text-anchor="start" x="4.5" y="-467" font-family="Ubuntu Mono" font-size="10.00">+</text>
<text text-anchor="start" x="17.5" y="-467" font-family="Ubuntu Mono" font-size="10.00">sendProcessMsgs()</text>
<text text-anchor="start" x="4.5" y="-452" font-family="Ubuntu Mono" font-size="10.00">+</text>
<text text-anchor="start" x="17.5" y="-452" font-family="Ubuntu Mono" font-size="10.00">sendReinitMsgs()</text>
<text text-anchor="start" x="4.5" y="-437" font-family="Ubuntu Mono" font-size="10.00">+</text>
<text text-anchor="start" x="17.5" y="-437" font-family="Ubuntu Mono" font-size="10.00">updateIk()</text>
<text text-anchor="start" x="4.5" y="-422" font-family="Ubuntu Mono" font-size="10.00">+</text>
<text text-anchor="start" x="17.5" y="-422" font-family="Ubuntu Mono" font-size="10.00">vGetEk()</text>
<text text-anchor="start" x="4.5" y="-407" font-family="Ubuntu Mono" font-size="10.00">+</text>
<text text-anchor="start" x="17.5" y="-407" font-family="Ubuntu Mono" font-size="10.00">vGetGbar()</text>
<text text-anchor="start" x="4.5" y="-392" font-family="Ubuntu Mono" font-size="10.00">+</text>
<text text-anchor="start" x="17.5" y="-392" font-family="Ubuntu Mono" font-size="10.00">vGetGk()</text>
<text text-anchor="start" x="4.5" y="-377" font-family="Ubuntu Mono" font-size="10.00">+</text>
<text text-anchor="start" x="17.5" y="-377" font-family="Ubuntu Mono" font-size="10.00">vGetIk()</text>
<text text-anchor="start" x="17.5" y="-362" font-family="Ubuntu Mono" font-size="10.00">and 8 more...</text>
<text text-anchor="start" x="4.5" y="-347" font-family="Ubuntu Mono" font-size="10.00">+</text>
<text text-anchor="start" x="17.5" y="-347" font-family="Ubuntu Mono" font-size="10.00">initCinfo()</text>
<text text-anchor="start" x="4.5" y="-332" font-family="Ubuntu Mono" font-size="10.00">#</text>
<text text-anchor="start" x="17.5" y="-332" font-family="Ubuntu Mono" font-size="10.00">getModulation()</text>
<polygon fill="#666666" stroke="#666666" points="0.5,-612 0.5,-612 115.5,-612 115.5,-612 0.5,-612"/>
<polygon fill="#666666" stroke="#666666" points="0.5,-522 0.5,-522 15.5,-522 15.5,-522 0.5,-522"/>
<polygon fill="#666666" stroke="#666666" points="15.5,-522 15.5,-522 115.5,-522 115.5,-522 15.5,-522"/>
<polygon fill="none" stroke="#666666" points="0,-325 0,-629 115,-629 115,-325 0,-325"/>
</a>
</g>
</g>
<!-- Node2&#45;&gt;Node1 -->
<g id="edge1_Node000001_Node000002" class="edge">
<title>Node2&#45;&gt;Node1</title>
<g id="a_edge1_Node000001_Node000002"><a xlink:title=" ">
<path fill="none" stroke="#63b8ff" d="M57.5,-314.72C57.5,-306.14 57.5,-297.55 57.5,-289.04"/>
<polygon fill="none" stroke="#63b8ff" points="54,-314.77 57.5,-324.77 61,-314.77 54,-314.77"/>
</a>
</g>
</g>
<!-- Node3 -->
<g id="Node000003" class="node">
<title>Node3</title>
<g id="a_Node000003"><a xlink:href="classChanBase.html" target="_top" xlink:title=" ">
<polygon fill="white" stroke="transparent" points="107.5,-924 7.5,-924 7.5,-665 107.5,-665 107.5,-924"/>
<text text-anchor="start" x="33" y="-911.5" font-family="Ubuntu Mono" font-size="10.00">ChanBase</text>
<text text-anchor="start" x="55.5" y="-896.5" font-family="Ubuntu Mono" font-size="10.00"> </text>
<text text-anchor="start" x="11.5" y="-881.5" font-family="Ubuntu Mono" font-size="10.00">+</text>
<text text-anchor="start" x="24.5" y="-881.5" font-family="Ubuntu Mono" font-size="10.00">ChanBase()</text>
<text text-anchor="start" x="11.5" y="-866.5" font-family="Ubuntu Mono" font-size="10.00">+</text>
<text text-anchor="start" x="24.5" y="-866.5" font-family="Ubuntu Mono" font-size="10.00">getEk()</text>
<text text-anchor="start" x="11.5" y="-851.5" font-family="Ubuntu Mono" font-size="10.00">+</text>
<text text-anchor="start" x="24.5" y="-851.5" font-family="Ubuntu Mono" font-size="10.00">getGbar()</text>
<text text-anchor="start" x="11.5" y="-836.5" font-family="Ubuntu Mono" font-size="10.00">+</text>
<text text-anchor="start" x="24.5" y="-836.5" font-family="Ubuntu Mono" font-size="10.00">getGk()</text>
<text text-anchor="start" x="11.5" y="-821.5" font-family="Ubuntu Mono" font-size="10.00">+</text>
<text text-anchor="start" x="24.5" y="-821.5" font-family="Ubuntu Mono" font-size="10.00">getIk()</text>
<text text-anchor="start" x="11.5" y="-806.5" font-family="Ubuntu Mono" font-size="10.00">+</text>
<text text-anchor="start" x="24.5" y="-806.5" font-family="Ubuntu Mono" font-size="10.00">getModulation()</text>
<text text-anchor="start" x="11.5" y="-791.5" font-family="Ubuntu Mono" font-size="10.00">+</text>
<text text-anchor="start" x="24.5" y="-791.5" font-family="Ubuntu Mono" font-size="10.00">handleVm()</text>
<text text-anchor="start" x="11.5" y="-776.5" font-family="Ubuntu Mono" font-size="10.00">+</text>
<text text-anchor="start" x="24.5" y="-776.5" font-family="Ubuntu Mono" font-size="10.00">process()</text>
<text text-anchor="start" x="11.5" y="-761.5" font-family="Ubuntu Mono" font-size="10.00">+</text>
<text text-anchor="start" x="24.5" y="-761.5" font-family="Ubuntu Mono" font-size="10.00">reinit()</text>
<text text-anchor="start" x="11.5" y="-746.5" font-family="Ubuntu Mono" font-size="10.00">+</text>
<text text-anchor="start" x="24.5" y="-746.5" font-family="Ubuntu Mono" font-size="10.00">setEk()</text>
<text text-anchor="start" x="24.5" y="-731.5" font-family="Ubuntu Mono" font-size="10.00">and 18 more...</text>
<text text-anchor="start" x="11.5" y="-716.5" font-family="Ubuntu Mono" font-size="10.00">+</text>
<text text-anchor="start" x="24.5" y="-716.5" font-family="Ubuntu Mono" font-size="10.00">channelOut()</text>
<text text-anchor="start" x="11.5" y="-701.5" font-family="Ubuntu Mono" font-size="10.00">+</text>
<text text-anchor="start" x="24.5" y="-701.5" font-family="Ubuntu Mono" font-size="10.00">IkOut()</text>
<text text-anchor="start" x="11.5" y="-686.5" font-family="Ubuntu Mono" font-size="10.00">+</text>
<text text-anchor="start" x="24.5" y="-686.5" font-family="Ubuntu Mono" font-size="10.00">initCinfo()</text>
<text text-anchor="start" x="11.5" y="-671.5" font-family="Ubuntu Mono" font-size="10.00">+</text>
<text text-anchor="start" x="24.5" y="-671.5" font-family="Ubuntu Mono" font-size="10.00">permeability()</text>
<polygon fill="#666666" stroke="#666666" points="7.5,-906.5 7.5,-906.5 107.5,-906.5 107.5,-906.5 7.5,-906.5"/>
<polygon fill="#666666" stroke="#666666" points="7.5,-891.5 7.5,-891.5 107.5,-891.5 107.5,-891.5 7.5,-891.5"/>
<polygon fill="none" stroke="#666666" points="7.5,-665 7.5,-924 107.5,-924 107.5,-665 7.5,-665"/>
</a>
</g>
</g>
<!-- Node3&#45;&gt;Node2 -->
<g id="edge2_Node000002_Node000003" class="edge">
<title>Node3&#45;&gt;Node2</title>
<g id="a_edge2_Node000002_Node000003"><a xlink:title=" ">
<path fill="none" stroke="#63b8ff" d="M57.5,-654.47C57.5,-646.04 57.5,-637.54 57.5,-629.06"/>
<polygon fill="none" stroke="#63b8ff" points="54,-654.72 57.5,-664.72 61,-654.72 54,-654.72"/>
</a>
</g>
</g>
</g>
</svg>
