<?xml version="1.0" encoding="UTF-8" standalone="no"?>
<!DOCTYPE svg PUBLIC "-//W3C//DTD SVG 1.1//EN"
 "http://www.w3.org/Graphics/SVG/1.1/DTD/svg11.dtd">
<!-- Generated by graphviz version 2.43.0 (0)
 -->
<!-- Title: OpFunc0&lt; T &gt; Pages: 1 -->
<!--zoomable 467 -->

<svg id="main" version="1.1" xmlns="http://www.w3.org/2000/svg" xmlns:xlink="http://www.w3.org/1999/xlink" xml:space="preserve" onload="init(evt)">
<style type="text/css"><![CDATA[
.node, .edge {opacity: 0.7;}
.node.selected, .edge.selected {opacity: 1;}
.edge:hover path { stroke: red; }
.edge:hover polygon { stroke: red; fill: red; }
]]></style>

<defs>
  <circle id="rim" cx="0" cy="0" r="7"/>
  <circle id="rim2" cx="0" cy="0" r="3.5"/>
  <g id="zoomPlus">
    <use xlink:href="#rim" fill="#404040"><set attributeName="fill" to="#808080" begin="zoomplus.mouseover" end="zoomplus.mouseout"/></use>
    <path d="M-4,0h8M0,-4v8" fill="none" stroke="white" stroke-width="1.5" pointer-events="none"/>
  </g>
  <g id="zoomMin">
    <use xlink:href="#rim" fill="#404040"><set attributeName="fill" to="#808080" begin="zoomminus.mouseover" end="zoomminus.mouseout"/></use>
    <path d="M-4,0h8" fill="none" stroke="white" stroke-width="1.5" pointer-events="none"/>
  </g>
  <g id="arrowUp" transform="translate(30 24)">
    <use xlink:href="#rim"/>
    <path pointer-events="none" fill="none" stroke="white" stroke-width="1.5" d="M0,-3.0v7 M-2.5,-0.5L0,-3.0L2.5,-0.5"/>
  </g>
  <g id="arrowRight" transform="rotate(90) translate(36 -43)">
    <use xlink:href="#rim"/>
    <path pointer-events="none" fill="none" stroke="white" stroke-width="1.5" d="M0,-3.0v7 M-2.5,-0.5L0,-3.0L2.5,-0.5"/>
  </g>
  <g id="arrowDown" transform="rotate(180) translate(-30 -48)">
    <use xlink:href="#rim"/>
    <path pointer-events="none" fill="none" stroke="white" stroke-width="1.5" d="M0,-3.0v7 M-2.5,-0.5L0,-3.0L2.5,-0.5"/>
  </g>
  <g id="arrowLeft" transform="rotate(270) translate(-36 17)">
    <use xlink:href="#rim"/>
    <path pointer-events="none" fill="none" stroke="white" stroke-width="1.5" d="M0,-3.0v7 M-2.5,-0.5L0,-3.0L2.5,-0.5"/>
  </g>
  <g id="resetDef">
    <use xlink:href="#rim2" fill="#404040"><set attributeName="fill" to="#808080" begin="reset.mouseover" end="reset.mouseout"/></use>
  </g>
</defs>
<script type="application/ecmascript">
var viewWidth = 111;
var viewHeight = 467;
var sectionId = 'dynsection-0';
</script>
<script type="application/ecmascript" xlink:href="svg.min.js"/>
<svg id="graph" class="graph">
<g id="viewport">
<title>OpFunc0&lt; T &gt;</title>
<!-- Node1 -->
<g id="Node000001" class="node">
<title>Node1</title>
<g id="a_Node000001"><a xlink:title=" ">
<polygon fill="#999999" stroke="transparent" points="92,-64 11,-64 11,0 92,0 92,-64"/>
<text text-anchor="start" x="16.5" y="-52" font-family="Ubuntu Mono" font-size="10.00">OpFunc0&lt; T &gt;</text>
<text text-anchor="start" x="20.5" y="-37" font-family="Ubuntu Mono" font-size="10.00">&#45;</text>
<text text-anchor="start" x="33.5" y="-37" font-family="Ubuntu Mono" font-size="10.00">func_</text>
<text text-anchor="start" x="18" y="-22" font-family="Ubuntu Mono" font-size="10.00">+</text>
<text text-anchor="start" x="33.5" y="-22" font-family="Ubuntu Mono" font-size="10.00">op()</text>
<text text-anchor="start" x="18" y="-7" font-family="Ubuntu Mono" font-size="10.00">+</text>
<text text-anchor="start" x="33.5" y="-7" font-family="Ubuntu Mono" font-size="10.00">OpFunc0()</text>
<polygon fill="#666666" stroke="#666666" points="11.5,-47 11.5,-47 92.5,-47 92.5,-47 11.5,-47"/>
<polygon fill="#666666" stroke="#666666" points="11.5,-32 11.5,-32 31.5,-32 31.5,-32 11.5,-32"/>
<polygon fill="#666666" stroke="#666666" points="31.5,-32 31.5,-32 92.5,-32 92.5,-32 31.5,-32"/>
<polygon fill="none" stroke="#666666" points="11,0 11,-64 92,-64 92,0 11,0"/>
</a>
</g>
</g>
<!-- Node2 -->
<g id="Node000002" class="node">
<title>Node2</title>
<g id="a_Node000002"><a xlink:href="classOpFunc0Base.html" target="_top" xlink:title=" ">
<polygon fill="white" stroke="transparent" points="100.5,-209 2.5,-209 2.5,-100 100.5,-100 100.5,-209"/>
<text text-anchor="start" x="18" y="-196.5" font-family="Ubuntu Mono" font-size="10.00">OpFunc0Base</text>
<text text-anchor="start" x="49.5" y="-181.5" font-family="Ubuntu Mono" font-size="10.00"> </text>
<text text-anchor="start" x="6.5" y="-166.5" font-family="Ubuntu Mono" font-size="10.00">+</text>
<text text-anchor="start" x="19.5" y="-166.5" font-family="Ubuntu Mono" font-size="10.00">checkFinfo()</text>
<text text-anchor="start" x="6.5" y="-151.5" font-family="Ubuntu Mono" font-size="10.00">+</text>
<text text-anchor="start" x="19.5" y="-151.5" font-family="Ubuntu Mono" font-size="10.00">makeHopFunc()</text>
<text text-anchor="start" x="6.5" y="-136.5" font-family="Ubuntu Mono" font-size="10.00">+</text>
<text text-anchor="start" x="19.5" y="-136.5" font-family="Ubuntu Mono" font-size="10.00">op()</text>
<text text-anchor="start" x="6.5" y="-121.5" font-family="Ubuntu Mono" font-size="10.00">+</text>
<text text-anchor="start" x="19.5" y="-121.5" font-family="Ubuntu Mono" font-size="10.00">opBuffer()</text>
<text text-anchor="start" x="6.5" y="-106.5" font-family="Ubuntu Mono" font-size="10.00">+</text>
<text text-anchor="start" x="19.5" y="-106.5" font-family="Ubuntu Mono" font-size="10.00">rttiType()</text>
<polygon fill="#666666" stroke="#666666" points="2.5,-191.5 2.5,-191.5 100.5,-191.5 100.5,-191.5 2.5,-191.5"/>
<polygon fill="#666666" stroke="#666666" points="2.5,-176.5 2.5,-176.5 100.5,-176.5 100.5,-176.5 2.5,-176.5"/>
<polygon fill="none" stroke="#666666" points="2.5,-100 2.5,-209 100.5,-209 100.5,-100 2.5,-100"/>
</a>
</g>
</g>
<!-- Node2&#45;&gt;Node1 -->
<g id="edge1_Node000001_Node000002" class="edge">
<title>Node2&#45;&gt;Node1</title>
<g id="a_edge1_Node000001_Node000002"><a xlink:title=" ">
<path fill="none" stroke="#63b8ff" d="M51.5,-89.9C51.5,-81 51.5,-72.2 51.5,-64.28"/>
<polygon fill="none" stroke="#63b8ff" points="48,-89.95 51.5,-99.95 55,-89.95 48,-89.95"/>
</a>
</g>
</g>
<!-- Node3 -->
<g id="Node000003" class="node">
<title>Node3</title>
<g id="a_Node000003"><a xlink:href="classOpFunc.html" target="_top" xlink:title=" ">
<polygon fill="white" stroke="transparent" points="103,-459 0,-459 0,-245 103,-245 103,-459"/>
<text text-anchor="start" x="33.5" y="-447" font-family="Ubuntu Mono" font-size="10.00">OpFunc</text>
<text text-anchor="start" x="7" y="-432" font-family="Ubuntu Mono" font-size="10.00">&#45;</text>
<text text-anchor="start" x="17.5" y="-432" font-family="Ubuntu Mono" font-size="10.00">opIndex_</text>
<text text-anchor="start" x="4.5" y="-417" font-family="Ubuntu Mono" font-size="10.00">+</text>
<text text-anchor="start" x="17.5" y="-417" font-family="Ubuntu Mono" font-size="10.00">checkFinfo()</text>
<text text-anchor="start" x="4.5" y="-402" font-family="Ubuntu Mono" font-size="10.00">+</text>
<text text-anchor="start" x="17.5" y="-402" font-family="Ubuntu Mono" font-size="10.00">makeHopFunc()</text>
<text text-anchor="start" x="4.5" y="-387" font-family="Ubuntu Mono" font-size="10.00">+</text>
<text text-anchor="start" x="17.5" y="-387" font-family="Ubuntu Mono" font-size="10.00">opBuffer()</text>
<text text-anchor="start" x="4.5" y="-372" font-family="Ubuntu Mono" font-size="10.00">+</text>
<text text-anchor="start" x="17.5" y="-372" font-family="Ubuntu Mono" font-size="10.00">OpFunc()</text>
<text text-anchor="start" x="4.5" y="-357" font-family="Ubuntu Mono" font-size="10.00">+</text>
<text text-anchor="start" x="17.5" y="-357" font-family="Ubuntu Mono" font-size="10.00">opIndex()</text>
<text text-anchor="start" x="4.5" y="-342" font-family="Ubuntu Mono" font-size="10.00">+</text>
<text text-anchor="start" x="17.5" y="-342" font-family="Ubuntu Mono" font-size="10.00">opVecBuffer()</text>
<text text-anchor="start" x="4.5" y="-327" font-family="Ubuntu Mono" font-size="10.00">+</text>
<text text-anchor="start" x="17.5" y="-327" font-family="Ubuntu Mono" font-size="10.00">rttiType()</text>
<text text-anchor="start" x="4.5" y="-312" font-family="Ubuntu Mono" font-size="10.00">+</text>
<text text-anchor="start" x="17.5" y="-312" font-family="Ubuntu Mono" font-size="10.00">setIndex()</text>
<text text-anchor="start" x="4.5" y="-297" font-family="Ubuntu Mono" font-size="10.00">+</text>
<text text-anchor="start" x="17.5" y="-297" font-family="Ubuntu Mono" font-size="10.00">~OpFunc()</text>
<text text-anchor="start" x="4.5" y="-282" font-family="Ubuntu Mono" font-size="10.00">+</text>
<text text-anchor="start" x="17.5" y="-282" font-family="Ubuntu Mono" font-size="10.00">lookop()</text>
<text text-anchor="start" x="4.5" y="-267" font-family="Ubuntu Mono" font-size="10.00">+</text>
<text text-anchor="start" x="17.5" y="-267" font-family="Ubuntu Mono" font-size="10.00">rebuildOpIndex()</text>
<text text-anchor="start" x="7" y="-252" font-family="Ubuntu Mono" font-size="10.00">&#45;</text>
<text text-anchor="start" x="17.5" y="-252" font-family="Ubuntu Mono" font-size="10.00">ops()</text>
<polygon fill="#666666" stroke="#666666" points="0.5,-442 0.5,-442 103.5,-442 103.5,-442 0.5,-442"/>
<polygon fill="#666666" stroke="#666666" points="0.5,-427 0.5,-427 15.5,-427 15.5,-427 0.5,-427"/>
<polygon fill="#666666" stroke="#666666" points="15.5,-427 15.5,-427 103.5,-427 103.5,-427 15.5,-427"/>
<polygon fill="none" stroke="#666666" points="0,-245 0,-459 103,-459 103,-245 0,-245"/>
</a>
</g>
</g>
<!-- Node3&#45;&gt;Node2 -->
<g id="edge2_Node000002_Node000003" class="edge">
<title>Node3&#45;&gt;Node2</title>
<g id="a_edge2_Node000002_Node000003"><a xlink:title=" ">
<path fill="none" stroke="#63b8ff" d="M51.5,-234.85C51.5,-225.96 51.5,-217.29 51.5,-209.13"/>
<polygon fill="none" stroke="#63b8ff" points="48,-234.95 51.5,-244.95 55,-234.95 48,-234.95"/>
</a>
</g>
</g>
</g>
</svg>

<g id="navigator" transform="translate(0 0)" fill="#404254">
  <rect fill="#f2f5e9" fill-opacity="0.5" stroke="#606060" stroke-width=".5" x="0" y="0" width="60" height="60"/>
  <use id="zoomplus" xlink:href="#zoomPlus" x="17" y="9" onmousedown="handleZoom(evt,'in')"/>
  <use id="zoomminus" xlink:href="#zoomMin" x="42" y="9" onmousedown="handleZoom(evt,'out')"/>
  <use id="reset" xlink:href="#resetDef" x="30" y="36" onmousedown="handleReset()"/>
   <use id="arrowup" xlink:href="#arrowUp" x="0" y="0" onmousedown="handlePan(0,-1)"/>
  <use id="arrowright" xlink:href="#arrowRight" x="0" y="0" onmousedown="handlePan(1,0)"/>
  <use id="arrowdown" xlink:href="#arrowDown" x="0" y="0" onmousedown="handlePan(0,1)"/>
  <use id="arrowleft" xlink:href="#arrowLeft" x="0" y="0" onmousedown="handlePan(-1,0)"/>
</g>
<svg viewBox="0 0 15 15" width="100%" height="30px" preserveAspectRatio="xMaxYMin meet">
 <g id="arrow_out" transform="scale(0.3 0.3)">
  <a xlink:href="classOpFunc0__inherit__graph_org.svg" target="_base">
   <rect id="button" ry="5" rx="5" y="6" x="6" height="38" width="38"
        fill="#f2f5e9" fill-opacity="0.5" stroke="#606060" stroke-width="1.0"/>
   <path id="arrow"
     d="M 11.500037,31.436501 C 11.940474,20.09759 22.043105,11.32322 32.158766,21.979434 L 37.068811,17.246167 C 37.068811,17.246167 37.088388,32 37.088388,32 L 22.160133,31.978069 C 22.160133,31.978069 26.997745,27.140456 26.997745,27.140456 C 18.528582,18.264221 13.291696,25.230495 11.500037,31.436501 z"
     style="fill:#404040;"/>
  </a>
 </g>
</svg>

<style type='text/css'>
<![CDATA[
[data-mouse-over-selected='false'] { opacity: 0.7; }
[data-mouse-over-selected='true']  { opacity: 1.0; }
]]>
</style>
<script type="application/ecmascript"><![CDATA[
document.addEventListener('DOMContentLoaded', (event) => {
  highlightEdges();
  highlightAdjacentNodes();
});
]]></script>
</svg>
