<?xml version="1.0" encoding="UTF-8" standalone="no"?>
<!DOCTYPE svg PUBLIC "-//W3C//DTD SVG 1.1//EN"
 "http://www.w3.org/Graphics/SVG/1.1/DTD/svg11.dtd">
<!-- Generated by graphviz version 2.43.0 (0)
 -->
<!-- Title: NeuroMesh::vGetVoxelMidpoint Pages: 1 -->
<svg width="523pt" height="140pt"
 viewBox="0.00 0.00 523.00 140.00" xmlns="http://www.w3.org/2000/svg" xmlns:xlink="http://www.w3.org/1999/xlink">
<g id="graph0" class="graph" transform="scale(1 1) rotate(0) translate(4 136)">
<title>NeuroMesh::vGetVoxelMidpoint</title>
<!-- Node1 -->
<g id="Node000001" class="node">
<title>Node1</title>
<g id="a_Node000001"><a xlink:title="Virtual func so that derived classes can return voxel midpoint.">
<polygon fill="#999999" stroke="#666666" points="170,-75 0,-75 0,-56 170,-56 170,-75"/>
<text text-anchor="middle" x="85" y="-63" font-family="Ubuntu Mono" font-size="10.00">NeuroMesh::vGetVoxelMidpoint</text>
</a>
</g>
</g>
<!-- Node2 -->
<g id="Node000002" class="node">
<title>Node2</title>
<g id="a_Node000002"><a xlink:href="classCylBase.html#ac07adfff6aca8dd297fd9790359ff551" target="_top" xlink:title=" ">
<polygon fill="white" stroke="#666666" points="349.5,-132 212.5,-132 212.5,-113 349.5,-113 349.5,-132"/>
<text text-anchor="middle" x="281" y="-120" font-family="Ubuntu Mono" font-size="10.00">CylBase::getCoordinates</text>
</a>
</g>
</g>
<!-- Node1&#45;&gt;Node2 -->
<g id="edge1_Node000001_Node000002" class="edge">
<title>Node1&#45;&gt;Node2</title>
<g id="a_edge1_Node000001_Node000002"><a xlink:title=" ">
<path fill="none" stroke="#63b8ff" d="M118.47,-75.04C151.21,-84.66 201.88,-99.55 237.73,-110.08"/>
<polygon fill="#63b8ff" stroke="#63b8ff" points="236.84,-113.47 247.42,-112.93 238.82,-106.75 236.84,-113.47"/>
</a>
</g>
</g>
<!-- Node3 -->
<g id="Node000003" class="node">
<title>Node3</title>
<g id="a_Node000003"><a xlink:href="classCylBase.html#a1fa6d6203b2286cc3d0b26b6ec8e5176" target="_top" xlink:title=" ">
<polygon fill="white" stroke="#666666" points="515,-75 392,-75 392,-56 515,-56 515,-75"/>
<text text-anchor="middle" x="453.5" y="-63" font-family="Ubuntu Mono" font-size="10.00">CylBase::getNumDivs</text>
</a>
</g>
</g>
<!-- Node1&#45;&gt;Node3 -->
<g id="edge2_Node000001_Node000003" class="edge">
<title>Node1&#45;&gt;Node3</title>
<g id="a_edge2_Node000001_Node000003"><a xlink:title=" ">
<path fill="none" stroke="#63b8ff" d="M170.08,-65.5C234.11,-65.5 321.25,-65.5 381.74,-65.5"/>
<polygon fill="#63b8ff" stroke="#63b8ff" points="381.96,-69 391.96,-65.5 381.96,-62 381.96,-69"/>
</a>
</g>
</g>
<!-- Node4 -->
<g id="Node000004" class="node">
<title>Node4</title>
<g id="a_Node000004"><a xlink:href="classNeuroNode.html#a4943fb2e254169fa5aad788c67bd0a75" target="_top" xlink:title=" ">
<polygon fill="white" stroke="#666666" points="356,-56 206,-56 206,-37 356,-37 356,-56"/>
<text text-anchor="middle" x="281" y="-44" font-family="Ubuntu Mono" font-size="10.00">NeuroNode::isDummyNode</text>
</a>
</g>
</g>
<!-- Node1&#45;&gt;Node4 -->
<g id="edge3_Node000001_Node000004" class="edge">
<title>Node1&#45;&gt;Node4</title>
<g id="a_edge3_Node000001_Node000004"><a xlink:title=" ">
<path fill="none" stroke="#63b8ff" d="M170.24,-57.25C178.68,-56.42 187.24,-55.58 195.68,-54.76"/>
<polygon fill="#63b8ff" stroke="#63b8ff" points="196.27,-58.22 205.88,-53.76 195.59,-51.25 196.27,-58.22"/>
</a>
</g>
</g>
<!-- Node5 -->
<g id="Node000005" class="node">
<title>Node5</title>
<g id="a_Node000005"><a xlink:href="classNeuroNode.html#a1e96ea764e9c00e07133aec18c638a17" target="_top" xlink:title=" ">
<polygon fill="white" stroke="#666666" points="335.5,-19 226.5,-19 226.5,0 335.5,0 335.5,-19"/>
<text text-anchor="middle" x="281" y="-7" font-family="Ubuntu Mono" font-size="10.00">NeuroNode::parent</text>
</a>
</g>
</g>
<!-- Node1&#45;&gt;Node5 -->
<g id="edge5_Node000001_Node000005" class="edge">
<title>Node1&#45;&gt;Node5</title>
<g id="a_edge5_Node000001_Node000005"><a xlink:title=" ">
<path fill="none" stroke="#63b8ff" d="M115.47,-55.98C139.69,-48.26 174.95,-37.27 206,-28.5 214.26,-26.17 223.07,-23.8 231.62,-21.57"/>
<polygon fill="#63b8ff" stroke="#63b8ff" points="232.69,-24.91 241.5,-19.01 230.94,-18.13 232.69,-24.91"/>
</a>
</g>
</g>
<!-- Node4&#45;&gt;Node3 -->
<g id="edge4_Node000004_Node000003" class="edge">
<title>Node4&#45;&gt;Node3</title>
<g id="a_edge4_Node000004_Node000003"><a xlink:title=" ">
<path fill="none" stroke="#63b8ff" d="M356.29,-54.78C364.71,-55.72 373.28,-56.67 381.65,-57.6"/>
<polygon fill="#63b8ff" stroke="#63b8ff" points="381.42,-61.1 391.75,-58.73 382.2,-54.14 381.42,-61.1"/>
</a>
</g>
</g>
</g>
</svg>
