<?xml version="1.0" encoding="UTF-8" standalone="no"?>
<!DOCTYPE svg PUBLIC "-//W3C//DTD SVG 1.1//EN"
 "http://www.w3.org/Graphics/SVG/1.1/DTD/svg11.dtd">
<!-- Generated by graphviz version 2.43.0 (0)
 -->
<!-- Title: DataElement Pages: 1 -->
<svg width="415pt" height="1569pt"
 viewBox="0.00 0.00 415.00 1569.00" xmlns="http://www.w3.org/2000/svg" xmlns:xlink="http://www.w3.org/1999/xlink">
<g id="graph0" class="graph" transform="scale(1 1) rotate(0) translate(4 1565)">
<title>DataElement</title>
<!-- Node1 -->
<g id="Node000001" class="node">
<title>Node1</title>
<g id="a_Node000001"><a xlink:title=" ">
<polygon fill="#999999" stroke="transparent" points="135.5,-229 20.5,-229 20.5,0 135.5,0 135.5,-229"/>
<text text-anchor="start" x="46.5" y="-216.5" font-family="Ubuntu Mono" font-size="10.00">DataElement</text>
<text text-anchor="start" x="27.5" y="-201.5" font-family="Ubuntu Mono" font-size="10.00">&#45;</text>
<text text-anchor="start" x="38" y="-201.5" font-family="Ubuntu Mono" font-size="10.00">data_</text>
<text text-anchor="start" x="27.5" y="-186.5" font-family="Ubuntu Mono" font-size="10.00">&#45;</text>
<text text-anchor="start" x="38" y="-186.5" font-family="Ubuntu Mono" font-size="10.00">numLocalData_</text>
<text text-anchor="start" x="27.5" y="-171.5" font-family="Ubuntu Mono" font-size="10.00">&#45;</text>
<text text-anchor="start" x="38" y="-171.5" font-family="Ubuntu Mono" font-size="10.00">size_</text>
<text text-anchor="start" x="25" y="-156.5" font-family="Ubuntu Mono" font-size="10.00">+</text>
<text text-anchor="start" x="38" y="-156.5" font-family="Ubuntu Mono" font-size="10.00">data()</text>
<text text-anchor="start" x="25" y="-141.5" font-family="Ubuntu Mono" font-size="10.00">+</text>
<text text-anchor="start" x="38" y="-141.5" font-family="Ubuntu Mono" font-size="10.00">DataElement()</text>
<text text-anchor="start" x="25" y="-126.5" font-family="Ubuntu Mono" font-size="10.00">+</text>
<text text-anchor="start" x="38" y="-126.5" font-family="Ubuntu Mono" font-size="10.00">DataElement()</text>
<text text-anchor="start" x="25" y="-111.5" font-family="Ubuntu Mono" font-size="10.00">+</text>
<text text-anchor="start" x="38" y="-111.5" font-family="Ubuntu Mono" font-size="10.00">hasFields()</text>
<text text-anchor="start" x="25" y="-96.5" font-family="Ubuntu Mono" font-size="10.00">+</text>
<text text-anchor="start" x="38" y="-96.5" font-family="Ubuntu Mono" font-size="10.00">numField()</text>
<text text-anchor="start" x="25" y="-81.5" font-family="Ubuntu Mono" font-size="10.00">+</text>
<text text-anchor="start" x="38" y="-81.5" font-family="Ubuntu Mono" font-size="10.00">numLocalData()</text>
<text text-anchor="start" x="25" y="-66.5" font-family="Ubuntu Mono" font-size="10.00">+</text>
<text text-anchor="start" x="38" y="-66.5" font-family="Ubuntu Mono" font-size="10.00">resize()</text>
<text text-anchor="start" x="25" y="-51.5" font-family="Ubuntu Mono" font-size="10.00">+</text>
<text text-anchor="start" x="38" y="-51.5" font-family="Ubuntu Mono" font-size="10.00">resizeField()</text>
<text text-anchor="start" x="25" y="-36.5" font-family="Ubuntu Mono" font-size="10.00">+</text>
<text text-anchor="start" x="38" y="-36.5" font-family="Ubuntu Mono" font-size="10.00">totNumLocalField()</text>
<text text-anchor="start" x="25" y="-21.5" font-family="Ubuntu Mono" font-size="10.00">+</text>
<text text-anchor="start" x="38" y="-21.5" font-family="Ubuntu Mono" font-size="10.00">zombieSwap()</text>
<text text-anchor="start" x="25" y="-6.5" font-family="Ubuntu Mono" font-size="10.00">+</text>
<text text-anchor="start" x="38" y="-6.5" font-family="Ubuntu Mono" font-size="10.00">~DataElement()</text>
<polygon fill="#666666" stroke="#666666" points="21,-211.5 21,-211.5 136,-211.5 136,-211.5 21,-211.5"/>
<polygon fill="#666666" stroke="#666666" points="21,-166.5 21,-166.5 36,-166.5 36,-166.5 21,-166.5"/>
<polygon fill="#666666" stroke="#666666" points="36,-166.5 36,-166.5 136,-166.5 136,-166.5 36,-166.5"/>
<polygon fill="none" stroke="#666666" points="20.5,0 20.5,-229 135.5,-229 135.5,0 20.5,0"/>
</a>
</g>
</g>
<!-- Node2 -->
<g id="Node000002" class="node">
<title>Node2</title>
<g id="a_Node000002"><a xlink:href="classElement.html" target="_top" xlink:title=" ">
<polygon fill="white" stroke="transparent" points="142.5,-600 13.5,-600 13.5,-266 142.5,-266 142.5,-600"/>
<text text-anchor="start" x="58" y="-588" font-family="Ubuntu Mono" font-size="10.00">Element</text>
<text text-anchor="start" x="20.5" y="-573" font-family="Ubuntu Mono" font-size="10.00">&#45;</text>
<text text-anchor="start" x="31" y="-573" font-family="Ubuntu Mono" font-size="10.00">isDoomed_</text>
<text text-anchor="start" x="20.5" y="-558" font-family="Ubuntu Mono" font-size="10.00">&#45;</text>
<text text-anchor="start" x="31" y="-558" font-family="Ubuntu Mono" font-size="10.00">isRewired_</text>
<text text-anchor="start" x="20.5" y="-543" font-family="Ubuntu Mono" font-size="10.00">&#45;</text>
<text text-anchor="start" x="31" y="-543" font-family="Ubuntu Mono" font-size="10.00">m_</text>
<text text-anchor="start" x="20.5" y="-528" font-family="Ubuntu Mono" font-size="10.00">&#45;</text>
<text text-anchor="start" x="31" y="-528" font-family="Ubuntu Mono" font-size="10.00">msgBinding_</text>
<text text-anchor="start" x="20.5" y="-513" font-family="Ubuntu Mono" font-size="10.00">&#45;</text>
<text text-anchor="start" x="31" y="-513" font-family="Ubuntu Mono" font-size="10.00">msgDigest_</text>
<text text-anchor="start" x="20.5" y="-498" font-family="Ubuntu Mono" font-size="10.00">&#45;</text>
<text text-anchor="start" x="31" y="-498" font-family="Ubuntu Mono" font-size="10.00">name_</text>
<text text-anchor="start" x="20.5" y="-483" font-family="Ubuntu Mono" font-size="10.00">&#45;</text>
<text text-anchor="start" x="31" y="-483" font-family="Ubuntu Mono" font-size="10.00">tick_</text>
<text text-anchor="start" x="18" y="-468" font-family="Ubuntu Mono" font-size="10.00">+</text>
<text text-anchor="start" x="31" y="-468" font-family="Ubuntu Mono" font-size="10.00">addMsg()</text>
<text text-anchor="start" x="18" y="-453" font-family="Ubuntu Mono" font-size="10.00">+</text>
<text text-anchor="start" x="31" y="-453" font-family="Ubuntu Mono" font-size="10.00">addMsgAndFunc()</text>
<text text-anchor="start" x="18" y="-438" font-family="Ubuntu Mono" font-size="10.00">+</text>
<text text-anchor="start" x="31" y="-438" font-family="Ubuntu Mono" font-size="10.00">cinfo()</text>
<text text-anchor="start" x="18" y="-423" font-family="Ubuntu Mono" font-size="10.00">+</text>
<text text-anchor="start" x="31" y="-423" font-family="Ubuntu Mono" font-size="10.00">clearAllMsgs()</text>
<text text-anchor="start" x="18" y="-408" font-family="Ubuntu Mono" font-size="10.00">+</text>
<text text-anchor="start" x="31" y="-408" font-family="Ubuntu Mono" font-size="10.00">clearBinding()</text>
<text text-anchor="start" x="18" y="-393" font-family="Ubuntu Mono" font-size="10.00">+</text>
<text text-anchor="start" x="31" y="-393" font-family="Ubuntu Mono" font-size="10.00">copyElement()</text>
<text text-anchor="start" x="18" y="-378" font-family="Ubuntu Mono" font-size="10.00">+</text>
<text text-anchor="start" x="31" y="-378" font-family="Ubuntu Mono" font-size="10.00">data()</text>
<text text-anchor="start" x="18" y="-363" font-family="Ubuntu Mono" font-size="10.00">+</text>
<text text-anchor="start" x="31" y="-363" font-family="Ubuntu Mono" font-size="10.00">digestMessages()</text>
<text text-anchor="start" x="18" y="-348" font-family="Ubuntu Mono" font-size="10.00">+</text>
<text text-anchor="start" x="31" y="-348" font-family="Ubuntu Mono" font-size="10.00">dropAllMsgsFromSrc()</text>
<text text-anchor="start" x="18" y="-333" font-family="Ubuntu Mono" font-size="10.00">+</text>
<text text-anchor="start" x="31" y="-333" font-family="Ubuntu Mono" font-size="10.00">dropMsg()</text>
<text text-anchor="start" x="31" y="-318" font-family="Ubuntu Mono" font-size="10.00">and 44 more...</text>
<text text-anchor="start" x="18" y="-303" font-family="Ubuntu Mono" font-size="10.00">+</text>
<text text-anchor="start" x="31" y="-303" font-family="Ubuntu Mono" font-size="10.00">destroyElementTree()</text>
<text text-anchor="start" x="20.5" y="-288" font-family="Ubuntu Mono" font-size="10.00">&#45;</text>
<text text-anchor="start" x="31" y="-288" font-family="Ubuntu Mono" font-size="10.00">getInputs()</text>
<text text-anchor="start" x="20.5" y="-273" font-family="Ubuntu Mono" font-size="10.00">&#45;</text>
<text text-anchor="start" x="31" y="-273" font-family="Ubuntu Mono" font-size="10.00">getOutputs()</text>
<polygon fill="#666666" stroke="#666666" points="14,-583 14,-583 143,-583 143,-583 14,-583"/>
<polygon fill="#666666" stroke="#666666" points="14,-478 14,-478 29,-478 29,-478 14,-478"/>
<polygon fill="#666666" stroke="#666666" points="29,-478 29,-478 143,-478 143,-478 29,-478"/>
<polygon fill="none" stroke="#666666" points="13.5,-266 13.5,-600 142.5,-600 142.5,-266 13.5,-266"/>
</a>
</g>
</g>
<!-- Node2&#45;&gt;Node1 -->
<g id="edge1_Node000001_Node000002" class="edge">
<title>Node2&#45;&gt;Node1</title>
<g id="a_edge1_Node000001_Node000002"><a xlink:title=" ">
<path fill="none" stroke="#63b8ff" d="M78,-255.73C78,-246.77 78,-237.89 78,-229.21"/>
<polygon fill="none" stroke="#63b8ff" points="74.5,-255.87 78,-265.87 81.5,-255.87 74.5,-255.87"/>
</a>
</g>
</g>
<!-- Node3 -->
<g id="Node000003" class="node">
<title>Node3</title>
<g id="a_Node000003"><a xlink:href="classId.html" target="_top" xlink:title=" ">
<polygon fill="white" stroke="transparent" points="112,-1063.5 0,-1063.5 0,-684.5 112,-684.5 112,-1063.5"/>
<text text-anchor="start" x="51" y="-1051" font-family="Ubuntu Mono" font-size="10.00">Id</text>
<text text-anchor="start" x="6.5" y="-1036" font-family="Ubuntu Mono" font-size="10.00">&#45;</text>
<text text-anchor="start" x="17" y="-1036" font-family="Ubuntu Mono" font-size="10.00">id_</text>
<text text-anchor="start" x="4" y="-1021" font-family="Ubuntu Mono" font-size="10.00">+</text>
<text text-anchor="start" x="17" y="-1021" font-family="Ubuntu Mono" font-size="10.00">bindIdToElement()</text>
<text text-anchor="start" x="4" y="-1006" font-family="Ubuntu Mono" font-size="10.00">+</text>
<text text-anchor="start" x="17" y="-1006" font-family="Ubuntu Mono" font-size="10.00">destroy()</text>
<text text-anchor="start" x="4" y="-991" font-family="Ubuntu Mono" font-size="10.00">+</text>
<text text-anchor="start" x="17" y="-991" font-family="Ubuntu Mono" font-size="10.00">element()</text>
<text text-anchor="start" x="4" y="-976" font-family="Ubuntu Mono" font-size="10.00">+</text>
<text text-anchor="start" x="17" y="-976" font-family="Ubuntu Mono" font-size="10.00">eref()</text>
<text text-anchor="start" x="4" y="-961" font-family="Ubuntu Mono" font-size="10.00">+</text>
<text text-anchor="start" x="17" y="-961" font-family="Ubuntu Mono" font-size="10.00">Id()</text>
<text text-anchor="start" x="4" y="-946" font-family="Ubuntu Mono" font-size="10.00">+</text>
<text text-anchor="start" x="17" y="-946" font-family="Ubuntu Mono" font-size="10.00">Id()</text>
<text text-anchor="start" x="4" y="-931" font-family="Ubuntu Mono" font-size="10.00">+</text>
<text text-anchor="start" x="17" y="-931" font-family="Ubuntu Mono" font-size="10.00">Id()</text>
<text text-anchor="start" x="4" y="-916" font-family="Ubuntu Mono" font-size="10.00">+</text>
<text text-anchor="start" x="17" y="-916" font-family="Ubuntu Mono" font-size="10.00">Id()</text>
<text text-anchor="start" x="4" y="-901" font-family="Ubuntu Mono" font-size="10.00">+</text>
<text text-anchor="start" x="17" y="-901" font-family="Ubuntu Mono" font-size="10.00">operator!=()</text>
<text text-anchor="start" x="4" y="-886" font-family="Ubuntu Mono" font-size="10.00">+</text>
<text text-anchor="start" x="17" y="-886" font-family="Ubuntu Mono" font-size="10.00">operator&lt;()</text>
<text text-anchor="start" x="4" y="-871" font-family="Ubuntu Mono" font-size="10.00">+</text>
<text text-anchor="start" x="17" y="-871" font-family="Ubuntu Mono" font-size="10.00">operator==()</text>
<text text-anchor="start" x="4" y="-856" font-family="Ubuntu Mono" font-size="10.00">+</text>
<text text-anchor="start" x="17" y="-856" font-family="Ubuntu Mono" font-size="10.00">path()</text>
<text text-anchor="start" x="4" y="-841" font-family="Ubuntu Mono" font-size="10.00">+</text>
<text text-anchor="start" x="17" y="-841" font-family="Ubuntu Mono" font-size="10.00">value()</text>
<text text-anchor="start" x="4" y="-826" font-family="Ubuntu Mono" font-size="10.00">+</text>
<text text-anchor="start" x="17" y="-826" font-family="Ubuntu Mono" font-size="10.00">zeroOut()</text>
<text text-anchor="start" x="4" y="-811" font-family="Ubuntu Mono" font-size="10.00">+</text>
<text text-anchor="start" x="17" y="-811" font-family="Ubuntu Mono" font-size="10.00">~Id()</text>
<text text-anchor="start" x="4" y="-796" font-family="Ubuntu Mono" font-size="10.00">+</text>
<text text-anchor="start" x="17" y="-796" font-family="Ubuntu Mono" font-size="10.00">clearAllElements()</text>
<text text-anchor="start" x="4" y="-781" font-family="Ubuntu Mono" font-size="10.00">+</text>
<text text-anchor="start" x="17" y="-781" font-family="Ubuntu Mono" font-size="10.00">id2str()</text>
<text text-anchor="start" x="4" y="-766" font-family="Ubuntu Mono" font-size="10.00">+</text>
<text text-anchor="start" x="17" y="-766" font-family="Ubuntu Mono" font-size="10.00">isValid()</text>
<text text-anchor="start" x="4" y="-751" font-family="Ubuntu Mono" font-size="10.00">+</text>
<text text-anchor="start" x="17" y="-751" font-family="Ubuntu Mono" font-size="10.00">isValid()</text>
<text text-anchor="start" x="4" y="-736" font-family="Ubuntu Mono" font-size="10.00">+</text>
<text text-anchor="start" x="17" y="-736" font-family="Ubuntu Mono" font-size="10.00">nextId()</text>
<text text-anchor="start" x="4" y="-721" font-family="Ubuntu Mono" font-size="10.00">+</text>
<text text-anchor="start" x="17" y="-721" font-family="Ubuntu Mono" font-size="10.00">numIds()</text>
<text text-anchor="start" x="4" y="-706" font-family="Ubuntu Mono" font-size="10.00">+</text>
<text text-anchor="start" x="17" y="-706" font-family="Ubuntu Mono" font-size="10.00">str2Id()</text>
<text text-anchor="start" x="6.5" y="-691" font-family="Ubuntu Mono" font-size="10.00">&#45;</text>
<text text-anchor="start" x="17" y="-691" font-family="Ubuntu Mono" font-size="10.00">elements()</text>
<polygon fill="#666666" stroke="#666666" points="0,-1046 0,-1046 112,-1046 112,-1046 0,-1046"/>
<polygon fill="#666666" stroke="#666666" points="0,-1031 0,-1031 15,-1031 15,-1031 0,-1031"/>
<polygon fill="#666666" stroke="#666666" points="15,-1031 15,-1031 112,-1031 112,-1031 15,-1031"/>
<polygon fill="none" stroke="#666666" points="0,-684.5 0,-1063.5 112,-1063.5 112,-684.5 0,-684.5"/>
</a>
</g>
</g>
<!-- Node3&#45;&gt;Node2 -->
<g id="edge2_Node000002_Node000003" class="edge">
<title>Node3&#45;&gt;Node2</title>
<g id="a_edge2_Node000002_Node000003"><a xlink:title=" ">
<path fill="none" stroke="#63b8ff" d="M65.46,-684.28C66.66,-660.32 67.88,-635.87 69.08,-612.08"/>
<polygon fill="none" stroke="#63b8ff" points="69.08,-612.08 65.38,-605.89 69.68,-600.09 73.37,-606.29 69.08,-612.08"/>
</a>
</g>
<text text-anchor="middle" x="80" y="-621" font-family="Ubuntu Mono" font-size="10.00" fill="grey"> &#45;id_</text>
</g>
<!-- Node4 -->
<g id="Node000004" class="node">
<title>Node4</title>
<g id="a_Node000004"><a xlink:href="classCinfo.html" target="_top" xlink:title=" ">
<polygon fill="white" stroke="transparent" points="257.5,-1101 130.5,-1101 130.5,-647 257.5,-647 257.5,-1101"/>
<text text-anchor="start" x="181.5" y="-1089" font-family="Ubuntu Mono" font-size="10.00">Cinfo</text>
<text text-anchor="start" x="137.5" y="-1074" font-family="Ubuntu Mono" font-size="10.00">&#45;</text>
<text text-anchor="start" x="148" y="-1074" font-family="Ubuntu Mono" font-size="10.00">banCreation_</text>
<text text-anchor="start" x="137.5" y="-1059" font-family="Ubuntu Mono" font-size="10.00">&#45;</text>
<text text-anchor="start" x="148" y="-1059" font-family="Ubuntu Mono" font-size="10.00">destFinfos_</text>
<text text-anchor="start" x="137.5" y="-1044" font-family="Ubuntu Mono" font-size="10.00">&#45;</text>
<text text-anchor="start" x="148" y="-1044" font-family="Ubuntu Mono" font-size="10.00">fieldElementFinfos_</text>
<text text-anchor="start" x="137.5" y="-1029" font-family="Ubuntu Mono" font-size="10.00">&#45;</text>
<text text-anchor="start" x="148" y="-1029" font-family="Ubuntu Mono" font-size="10.00">finfoMap_</text>
<text text-anchor="start" x="137.5" y="-1014" font-family="Ubuntu Mono" font-size="10.00">&#45;</text>
<text text-anchor="start" x="148" y="-1014" font-family="Ubuntu Mono" font-size="10.00">funcs_</text>
<text text-anchor="start" x="137.5" y="-999" font-family="Ubuntu Mono" font-size="10.00">&#45;</text>
<text text-anchor="start" x="148" y="-999" font-family="Ubuntu Mono" font-size="10.00">lookupFinfos_</text>
<text text-anchor="start" x="137.5" y="-984" font-family="Ubuntu Mono" font-size="10.00">&#45;</text>
<text text-anchor="start" x="148" y="-984" font-family="Ubuntu Mono" font-size="10.00">name_</text>
<text text-anchor="start" x="137.5" y="-969" font-family="Ubuntu Mono" font-size="10.00">&#45;</text>
<text text-anchor="start" x="148" y="-969" font-family="Ubuntu Mono" font-size="10.00">numBindIndex_</text>
<text text-anchor="start" x="137.5" y="-954" font-family="Ubuntu Mono" font-size="10.00">&#45;</text>
<text text-anchor="start" x="148" y="-954" font-family="Ubuntu Mono" font-size="10.00">postCreationFinfos_</text>
<text text-anchor="start" x="137.5" y="-939" font-family="Ubuntu Mono" font-size="10.00">&#45;</text>
<text text-anchor="start" x="148" y="-939" font-family="Ubuntu Mono" font-size="10.00">sharedFinfos_</text>
<text text-anchor="start" x="137.5" y="-924" font-family="Ubuntu Mono" font-size="10.00">&#45;</text>
<text text-anchor="start" x="148" y="-924" font-family="Ubuntu Mono" font-size="10.00">srcFinfos_</text>
<text text-anchor="start" x="137.5" y="-909" font-family="Ubuntu Mono" font-size="10.00">&#45;</text>
<text text-anchor="start" x="148" y="-909" font-family="Ubuntu Mono" font-size="10.00">valueFinfos_</text>
<text text-anchor="start" x="137.5" y="-894" font-family="Ubuntu Mono" font-size="10.00">&#45;</text>
<text text-anchor="start" x="148" y="-894" font-family="Ubuntu Mono" font-size="10.00">numCoreOpFunc_</text>
<text text-anchor="start" x="135" y="-879" font-family="Ubuntu Mono" font-size="10.00">+</text>
<text text-anchor="start" x="148" y="-879" font-family="Ubuntu Mono" font-size="10.00">banCreation()</text>
<text text-anchor="start" x="135" y="-864" font-family="Ubuntu Mono" font-size="10.00">+</text>
<text text-anchor="start" x="148" y="-864" font-family="Ubuntu Mono" font-size="10.00">baseCinfo()</text>
<text text-anchor="start" x="135" y="-849" font-family="Ubuntu Mono" font-size="10.00">+</text>
<text text-anchor="start" x="148" y="-849" font-family="Ubuntu Mono" font-size="10.00">Cinfo()</text>
<text text-anchor="start" x="135" y="-834" font-family="Ubuntu Mono" font-size="10.00">+</text>
<text text-anchor="start" x="148" y="-834" font-family="Ubuntu Mono" font-size="10.00">Cinfo()</text>
<text text-anchor="start" x="135" y="-819" font-family="Ubuntu Mono" font-size="10.00">+</text>
<text text-anchor="start" x="148" y="-819" font-family="Ubuntu Mono" font-size="10.00">Cinfo()</text>
<text text-anchor="start" x="135" y="-804" font-family="Ubuntu Mono" font-size="10.00">+</text>
<text text-anchor="start" x="148" y="-804" font-family="Ubuntu Mono" font-size="10.00">destFinfoName()</text>
<text text-anchor="start" x="135" y="-789" font-family="Ubuntu Mono" font-size="10.00">+</text>
<text text-anchor="start" x="148" y="-789" font-family="Ubuntu Mono" font-size="10.00">dinfo()</text>
<text text-anchor="start" x="135" y="-774" font-family="Ubuntu Mono" font-size="10.00">+</text>
<text text-anchor="start" x="148" y="-774" font-family="Ubuntu Mono" font-size="10.00">findFinfo()</text>
<text text-anchor="start" x="135" y="-759" font-family="Ubuntu Mono" font-size="10.00">+</text>
<text text-anchor="start" x="148" y="-759" font-family="Ubuntu Mono" font-size="10.00">findFinfoWrapper()</text>
<text text-anchor="start" x="135" y="-744" font-family="Ubuntu Mono" font-size="10.00">+</text>
<text text-anchor="start" x="148" y="-744" font-family="Ubuntu Mono" font-size="10.00">finfoMap()</text>
<text text-anchor="start" x="148" y="-729" font-family="Ubuntu Mono" font-size="10.00">and 31 more...</text>
<text text-anchor="start" x="135" y="-714" font-family="Ubuntu Mono" font-size="10.00">+</text>
<text text-anchor="start" x="148" y="-714" font-family="Ubuntu Mono" font-size="10.00">find()</text>
<text text-anchor="start" x="135" y="-699" font-family="Ubuntu Mono" font-size="10.00">+</text>
<text text-anchor="start" x="148" y="-699" font-family="Ubuntu Mono" font-size="10.00">initCinfo()</text>
<text text-anchor="start" x="135" y="-684" font-family="Ubuntu Mono" font-size="10.00">+</text>
<text text-anchor="start" x="148" y="-684" font-family="Ubuntu Mono" font-size="10.00">makeCinfoElements()</text>
<text text-anchor="start" x="135" y="-669" font-family="Ubuntu Mono" font-size="10.00">+</text>
<text text-anchor="start" x="148" y="-669" font-family="Ubuntu Mono" font-size="10.00">rebuildOpIndex()</text>
<text text-anchor="start" x="137.5" y="-654" font-family="Ubuntu Mono" font-size="10.00">&#45;</text>
<text text-anchor="start" x="148" y="-654" font-family="Ubuntu Mono" font-size="10.00">cinfoMap()</text>
<polygon fill="#666666" stroke="#666666" points="131,-1084 131,-1084 258,-1084 258,-1084 131,-1084"/>
<polygon fill="#666666" stroke="#666666" points="131,-889 131,-889 146,-889 146,-889 131,-889"/>
<polygon fill="#666666" stroke="#666666" points="146,-889 146,-889 258,-889 258,-889 146,-889"/>
<polygon fill="none" stroke="#666666" points="130.5,-647 130.5,-1101 257.5,-1101 257.5,-647 130.5,-647"/>
</a>
</g>
</g>
<!-- Node4&#45;&gt;Node2 -->
<g id="edge3_Node000002_Node000004" class="edge">
<title>Node4&#45;&gt;Node2</title>
<g id="a_edge3_Node000002_Node000004"><a xlink:title=" ">
<path fill="none" stroke="#63b8ff" d="M134.22,-646.75C131.15,-635.14 128.09,-623.57 125.07,-612.14"/>
<polygon fill="none" stroke="#63b8ff" points="125.01,-611.9 119.61,-607.12 121.94,-600.3 127.34,-605.08 125.01,-611.9"/>
</a>
</g>
<text text-anchor="middle" x="148.5" y="-621" font-family="Ubuntu Mono" font-size="10.00" fill="grey"> &#45;cinfo_</text>
</g>
<!-- Node4&#45;&gt;Node4 -->
<g id="edge4_Node000004_Node000004" class="edge">
<title>Node4&#45;&gt;Node4</title>
<g id="a_edge4_Node000004_Node000004"><a xlink:title=" ">
<path fill="none" stroke="#63b8ff" d="M257.56,-917.57C268.17,-911.47 275.5,-896.95 275.5,-874 275.5,-858.22 272.04,-846.43 266.42,-838.62"/>
<polygon fill="none" stroke="#63b8ff" points="266.38,-838.57 259.25,-837.44 257.56,-830.43 264.68,-831.56 266.38,-838.57"/>
</a>
</g>
<text text-anchor="middle" x="306" y="-871.5" font-family="Ubuntu Mono" font-size="10.00" fill="grey"> &#45;baseCinfo_</text>
</g>
<!-- Node5 -->
<g id="Node000005" class="node">
<title>Node5</title>
<g id="a_Node000005"><a xlink:href="classDinfoBase.html" target="_top" xlink:title=" ">
<polygon fill="white" stroke="transparent" points="197,-1347 99,-1347 99,-1148 197,-1148 197,-1347"/>
<text text-anchor="start" x="122.5" y="-1334.5" font-family="Ubuntu Mono" font-size="10.00">DinfoBase</text>
<text text-anchor="start" x="105.5" y="-1319.5" font-family="Ubuntu Mono" font-size="10.00">&#45;</text>
<text text-anchor="start" x="116" y="-1319.5" font-family="Ubuntu Mono" font-size="10.00">isOneZombie_</text>
<text text-anchor="start" x="103" y="-1304.5" font-family="Ubuntu Mono" font-size="10.00">+</text>
<text text-anchor="start" x="116" y="-1304.5" font-family="Ubuntu Mono" font-size="10.00">allocData()</text>
<text text-anchor="start" x="103" y="-1289.5" font-family="Ubuntu Mono" font-size="10.00">+</text>
<text text-anchor="start" x="116" y="-1289.5" font-family="Ubuntu Mono" font-size="10.00">assignData()</text>
<text text-anchor="start" x="103" y="-1274.5" font-family="Ubuntu Mono" font-size="10.00">+</text>
<text text-anchor="start" x="116" y="-1274.5" font-family="Ubuntu Mono" font-size="10.00">copyData()</text>
<text text-anchor="start" x="103" y="-1259.5" font-family="Ubuntu Mono" font-size="10.00">+</text>
<text text-anchor="start" x="116" y="-1259.5" font-family="Ubuntu Mono" font-size="10.00">destroyData()</text>
<text text-anchor="start" x="103" y="-1244.5" font-family="Ubuntu Mono" font-size="10.00">+</text>
<text text-anchor="start" x="116" y="-1244.5" font-family="Ubuntu Mono" font-size="10.00">DinfoBase()</text>
<text text-anchor="start" x="103" y="-1229.5" font-family="Ubuntu Mono" font-size="10.00">+</text>
<text text-anchor="start" x="116" y="-1229.5" font-family="Ubuntu Mono" font-size="10.00">DinfoBase()</text>
<text text-anchor="start" x="103" y="-1214.5" font-family="Ubuntu Mono" font-size="10.00">+</text>
<text text-anchor="start" x="116" y="-1214.5" font-family="Ubuntu Mono" font-size="10.00">isA()</text>
<text text-anchor="start" x="103" y="-1199.5" font-family="Ubuntu Mono" font-size="10.00">+</text>
<text text-anchor="start" x="116" y="-1199.5" font-family="Ubuntu Mono" font-size="10.00">isOneZombie()</text>
<text text-anchor="start" x="103" y="-1184.5" font-family="Ubuntu Mono" font-size="10.00">+</text>
<text text-anchor="start" x="116" y="-1184.5" font-family="Ubuntu Mono" font-size="10.00">size()</text>
<text text-anchor="start" x="103" y="-1169.5" font-family="Ubuntu Mono" font-size="10.00">+</text>
<text text-anchor="start" x="116" y="-1169.5" font-family="Ubuntu Mono" font-size="10.00">sizeIncrement()</text>
<text text-anchor="start" x="103" y="-1154.5" font-family="Ubuntu Mono" font-size="10.00">+</text>
<text text-anchor="start" x="116" y="-1154.5" font-family="Ubuntu Mono" font-size="10.00">~DinfoBase()</text>
<polygon fill="#666666" stroke="#666666" points="99,-1329.5 99,-1329.5 197,-1329.5 197,-1329.5 99,-1329.5"/>
<polygon fill="#666666" stroke="#666666" points="99,-1314.5 99,-1314.5 114,-1314.5 114,-1314.5 99,-1314.5"/>
<polygon fill="#666666" stroke="#666666" points="114,-1314.5 114,-1314.5 197,-1314.5 197,-1314.5 114,-1314.5"/>
<polygon fill="none" stroke="#666666" points="99,-1148 99,-1347 197,-1347 197,-1148 99,-1148"/>
</a>
</g>
</g>
<!-- Node5&#45;&gt;Node4 -->
<g id="edge5_Node000004_Node000005" class="edge">
<title>Node5&#45;&gt;Node4</title>
<g id="a_edge5_Node000004_Node000005"><a xlink:title=" ">
<path fill="none" stroke="#63b8ff" d="M160.21,-1147.92C161.58,-1136.8 163.03,-1125.13 164.51,-1113.15"/>
<polygon fill="none" stroke="#63b8ff" points="164.53,-1112.98 161.3,-1106.54 166.01,-1101.07 169.24,-1107.52 164.53,-1112.98"/>
</a>
</g>
<text text-anchor="middle" x="181.5" y="-1122" font-family="Ubuntu Mono" font-size="10.00" fill="grey"> &#45;dinfo_</text>
</g>
<!-- Node6 -->
<g id="Node000006" class="node">
<title>Node6</title>
<g id="a_Node000006"><a xlink:title=" ">
<polygon fill="white" stroke="transparent" points="331,-1277.5 215,-1277.5 215,-1217.5 331,-1217.5 331,-1277.5"/>
<text text-anchor="start" x="220" y="-1265.5" font-family="Ubuntu Mono" font-size="10.00">std::map&lt; std::string,</text>
<text text-anchor="start" x="241" y="-1254.5" font-family="Ubuntu Mono" font-size="10.00"> std::string &gt;</text>
<text text-anchor="start" x="271" y="-1239.5" font-family="Ubuntu Mono" font-size="10.00"> </text>
<text text-anchor="start" x="271" y="-1224.5" font-family="Ubuntu Mono" font-size="10.00"> </text>
<polygon fill="#666666" stroke="#666666" points="215,-1249.5 215,-1249.5 331,-1249.5 331,-1249.5 215,-1249.5"/>
<polygon fill="#666666" stroke="#666666" points="215,-1234.5 215,-1234.5 331,-1234.5 331,-1234.5 215,-1234.5"/>
<polygon fill="none" stroke="#666666" points="215,-1217.5 215,-1277.5 331,-1277.5 331,-1217.5 215,-1217.5"/>
</a>
</g>
</g>
<!-- Node6&#45;&gt;Node4 -->
<g id="edge6_Node000004_Node000006" class="edge">
<title>Node6&#45;&gt;Node4</title>
<g id="a_edge6_Node000004_Node000006"><a xlink:title=" ">
<path fill="none" stroke="#63b8ff" d="M266.8,-1217.35C261.56,-1192.72 253.52,-1154.88 244.65,-1113.2"/>
<polygon fill="none" stroke="#63b8ff" points="244.63,-1113.08 239.47,-1108.05 242.13,-1101.35 247.29,-1106.38 244.63,-1113.08"/>
</a>
</g>
<text text-anchor="middle" x="263" y="-1122" font-family="Ubuntu Mono" font-size="10.00" fill="grey"> &#45;doc_</text>
</g>
<!-- Node7 -->
<g id="Node000007" class="node">
<title>Node7</title>
<g id="a_Node000007"><a xlink:title=" ">
<polygon fill="white" stroke="transparent" points="253.5,-1454 194.5,-1454 194.5,-1405 253.5,-1405 253.5,-1454"/>
<text text-anchor="start" x="200" y="-1441.5" font-family="Ubuntu Mono" font-size="10.00">std::string</text>
<text text-anchor="start" x="222.5" y="-1426.5" font-family="Ubuntu Mono" font-size="10.00"> </text>
<text text-anchor="start" x="222.5" y="-1411.5" font-family="Ubuntu Mono" font-size="10.00"> </text>
<polygon fill="#666666" stroke="#666666" points="195,-1436.5 195,-1436.5 254,-1436.5 254,-1436.5 195,-1436.5"/>
<polygon fill="#666666" stroke="#666666" points="195,-1421.5 195,-1421.5 254,-1421.5 254,-1421.5 195,-1421.5"/>
<polygon fill="none" stroke="#666666" points="194.5,-1405 194.5,-1454 253.5,-1454 253.5,-1405 194.5,-1405"/>
</a>
</g>
</g>
<!-- Node7&#45;&gt;Node6 -->
<g id="edge7_Node000006_Node000007" class="edge">
<title>Node7&#45;&gt;Node6</title>
<g id="a_edge7_Node000006_Node000007"><a xlink:title=" ">
<path fill="none" stroke="#63b8ff" d="M230.26,-1404.97C233.46,-1393 237.42,-1378.22 241,-1365 247.81,-1339.89 255.53,-1311.77 261.68,-1289.44"/>
<polygon fill="none" stroke="#63b8ff" points="261.73,-1289.26 259.47,-1282.41 264.93,-1277.69 267.19,-1284.54 261.73,-1289.26"/>
</a>
</g>
<text text-anchor="middle" x="270" y="-1379" font-family="Ubuntu Mono" font-size="10.00" fill="grey"> +elements</text>
<text text-anchor="middle" x="270" y="-1368" font-family="Ubuntu Mono" font-size="10.00" fill="grey">+keys</text>
</g>
<!-- Node8 -->
<g id="Node000008" class="node">
<title>Node8</title>
<g id="a_Node000008"><a xlink:title=" ">
<polygon fill="white" stroke="transparent" points="273,-1561 175,-1561 175,-1501 273,-1501 273,-1561"/>
<text text-anchor="start" x="180" y="-1549" font-family="Ubuntu Mono" font-size="10.00">std::basic_string&lt;</text>
<text text-anchor="start" x="205.5" y="-1538" font-family="Ubuntu Mono" font-size="10.00"> Char &gt;</text>
<text text-anchor="start" x="222" y="-1523" font-family="Ubuntu Mono" font-size="10.00"> </text>
<text text-anchor="start" x="222" y="-1508" font-family="Ubuntu Mono" font-size="10.00"> </text>
<polygon fill="#666666" stroke="#666666" points="175,-1533 175,-1533 273,-1533 273,-1533 175,-1533"/>
<polygon fill="#666666" stroke="#666666" points="175,-1518 175,-1518 273,-1518 273,-1518 175,-1518"/>
<polygon fill="none" stroke="#666666" points="175,-1501 175,-1561 273,-1561 273,-1501 175,-1501"/>
</a>
</g>
</g>
<!-- Node8&#45;&gt;Node7 -->
<g id="edge8_Node000007_Node000008" class="edge">
<title>Node8&#45;&gt;Node7</title>
<g id="a_edge8_Node000007_Node000008"><a xlink:title=" ">
<path fill="none" stroke="#63b8ff" d="M224,-1490.8C224,-1478.38 224,-1465.03 224,-1454.06"/>
<polygon fill="none" stroke="#63b8ff" points="220.5,-1490.95 224,-1500.95 227.5,-1490.95 220.5,-1490.95"/>
</a>
</g>
</g>
<!-- Node9 -->
<g id="Node000009" class="node">
<title>Node9</title>
<g id="a_Node000009"><a xlink:title=" ">
<polygon fill="white" stroke="transparent" points="366.5,-1454 271.5,-1454 271.5,-1405 366.5,-1405 366.5,-1454"/>
<text text-anchor="start" x="277" y="-1441.5" font-family="Ubuntu Mono" font-size="10.00">std::map&lt; K, T &gt;</text>
<text text-anchor="start" x="317.5" y="-1426.5" font-family="Ubuntu Mono" font-size="10.00"> </text>
<text text-anchor="start" x="317.5" y="-1411.5" font-family="Ubuntu Mono" font-size="10.00"> </text>
<polygon fill="#666666" stroke="#666666" points="272,-1436.5 272,-1436.5 367,-1436.5 367,-1436.5 272,-1436.5"/>
<polygon fill="#666666" stroke="#666666" points="272,-1421.5 272,-1421.5 367,-1421.5 367,-1421.5 272,-1421.5"/>
<polygon fill="none" stroke="#666666" points="271.5,-1405 271.5,-1454 366.5,-1454 366.5,-1405 271.5,-1405"/>
</a>
</g>
</g>
<!-- Node9&#45;&gt;Node6 -->
<g id="edge9_Node000006_Node000009" class="edge">
<title>Node9&#45;&gt;Node6</title>
<g id="a_edge9_Node000006_Node000009"><a xlink:title=" ">
<path fill="none" stroke="orange" d="M310.47,-1395.12C301.85,-1361.41 288.68,-1309.84 280.46,-1277.7"/>
<polygon fill="orange" stroke="orange" points="307.12,-1396.15 312.99,-1404.97 313.9,-1394.41 307.12,-1396.15"/>
</a>
</g>
<text text-anchor="start" x="308" y="-1379" font-family="Ubuntu Mono" font-size="10.00" fill="grey"> &lt; std::string, std</text>
<text text-anchor="middle" x="350.5" y="-1368" font-family="Ubuntu Mono" font-size="10.00" fill="grey">::string &gt;</text>
</g>
<!-- Node10 -->
<g id="Node000010" class="node">
<title>Node10</title>
<g id="a_Node000010"><a xlink:title=" ">
<polygon fill="white" stroke="transparent" points="317.5,-1555.5 300.5,-1555.5 300.5,-1506.5 317.5,-1506.5 317.5,-1555.5"/>
<text text-anchor="start" x="306" y="-1543" font-family="Ubuntu Mono" font-size="10.00">K</text>
<text text-anchor="start" x="307.5" y="-1528" font-family="Ubuntu Mono" font-size="10.00"> </text>
<text text-anchor="start" x="307.5" y="-1513" font-family="Ubuntu Mono" font-size="10.00"> </text>
<polygon fill="#666666" stroke="#666666" points="301,-1538 301,-1538 318,-1538 318,-1538 301,-1538"/>
<polygon fill="#666666" stroke="#666666" points="301,-1523 301,-1523 318,-1523 318,-1523 301,-1523"/>
<polygon fill="none" stroke="#666666" points="300.5,-1506.5 300.5,-1555.5 317.5,-1555.5 317.5,-1506.5 300.5,-1506.5"/>
</a>
</g>
</g>
<!-- Node10&#45;&gt;Node9 -->
<g id="edge10_Node000009_Node000010" class="edge">
<title>Node10&#45;&gt;Node9</title>
<g id="a_edge10_Node000009_Node000010"><a xlink:title=" ">
<path fill="none" stroke="#63b8ff" d="M308.36,-1506.23C308.35,-1495.71 308.7,-1483.2 310,-1472 310.22,-1470.08 310.49,-1468.11 310.8,-1466.14"/>
<polygon fill="none" stroke="#63b8ff" points="310.85,-1465.86 308.02,-1459.23 313.05,-1454.07 315.88,-1460.7 310.85,-1465.86"/>
</a>
</g>
<text text-anchor="middle" x="327" y="-1475" font-family="Ubuntu Mono" font-size="10.00" fill="grey"> +keys</text>
</g>
<!-- Node11 -->
<g id="Node000011" class="node">
<title>Node11</title>
<g id="a_Node000011"><a xlink:title=" ">
<polygon fill="white" stroke="transparent" points="374.5,-1555.5 357.5,-1555.5 357.5,-1506.5 374.5,-1506.5 374.5,-1555.5"/>
<text text-anchor="start" x="363" y="-1543" font-family="Ubuntu Mono" font-size="10.00">T</text>
<text text-anchor="start" x="364.5" y="-1528" font-family="Ubuntu Mono" font-size="10.00"> </text>
<text text-anchor="start" x="364.5" y="-1513" font-family="Ubuntu Mono" font-size="10.00"> </text>
<polygon fill="#666666" stroke="#666666" points="358,-1538 358,-1538 375,-1538 375,-1538 358,-1538"/>
<polygon fill="#666666" stroke="#666666" points="358,-1523 358,-1523 375,-1523 375,-1523 358,-1523"/>
<polygon fill="none" stroke="#666666" points="357.5,-1506.5 357.5,-1555.5 374.5,-1555.5 374.5,-1506.5 357.5,-1506.5"/>
</a>
</g>
</g>
<!-- Node11&#45;&gt;Node9 -->
<g id="edge11_Node000009_Node000011" class="edge">
<title>Node11&#45;&gt;Node9</title>
<g id="a_edge11_Node000009_Node000011"><a xlink:title=" ">
<path fill="none" stroke="#63b8ff" d="M358.16,-1506.45C354.32,-1495.75 349.37,-1483.04 344,-1472 342.84,-1469.6 341.58,-1467.16 340.26,-1464.73"/>
<polygon fill="none" stroke="#63b8ff" points="340.22,-1464.66 333.78,-1461.42 334.29,-1454.23 340.74,-1457.47 340.22,-1464.66"/>
</a>
</g>
<text text-anchor="middle" x="378" y="-1475" font-family="Ubuntu Mono" font-size="10.00" fill="grey"> +elements</text>
</g>
</g>
</svg>
