<?xml version="1.0" encoding="UTF-8" standalone="no"?>
<!DOCTYPE svg PUBLIC "-//W3C//DTD SVG 1.1//EN"
 "http://www.w3.org/Graphics/SVG/1.1/DTD/svg11.dtd">
<!-- Generated by graphviz version 2.43.0 (0)
 -->
<!-- Title: FieldElementFinfo&lt; T, F &gt; Pages: 1 -->
<svg width="570pt" height="1396pt"
 viewBox="0.00 0.00 570.00 1396.00" xmlns="http://www.w3.org/2000/svg" xmlns:xlink="http://www.w3.org/1999/xlink">
<g id="graph0" class="graph" transform="scale(1 1) rotate(0) translate(4 1392)">
<title>FieldElementFinfo&lt; T, F &gt;</title>
<!-- Node1 -->
<g id="Node000001" class="node">
<title>Node1</title>
<g id="a_Node000001"><a xlink:title=" ">
<polygon fill="#999999" stroke="transparent" points="216.5,-150 99.5,-150 99.5,0 216.5,0 216.5,-150"/>
<text text-anchor="start" x="110" y="-138" font-family="Ubuntu Mono" font-size="10.00">FieldElementFinfo&lt;</text>
<text text-anchor="start" x="142" y="-127" font-family="Ubuntu Mono" font-size="10.00"> T, F &gt;</text>
<text text-anchor="start" x="106.5" y="-112" font-family="Ubuntu Mono" font-size="10.00">&#45;</text>
<text text-anchor="start" x="117" y="-112" font-family="Ubuntu Mono" font-size="10.00">getNumField_</text>
<text text-anchor="start" x="106.5" y="-97" font-family="Ubuntu Mono" font-size="10.00">&#45;</text>
<text text-anchor="start" x="117" y="-97" font-family="Ubuntu Mono" font-size="10.00">lookupField_</text>
<text text-anchor="start" x="106.5" y="-82" font-family="Ubuntu Mono" font-size="10.00">&#45;</text>
<text text-anchor="start" x="117" y="-82" font-family="Ubuntu Mono" font-size="10.00">setNumField_</text>
<text text-anchor="start" x="104" y="-67" font-family="Ubuntu Mono" font-size="10.00">+</text>
<text text-anchor="start" x="117" y="-67" font-family="Ubuntu Mono" font-size="10.00">FieldElementFinfo()</text>
<text text-anchor="start" x="104" y="-52" font-family="Ubuntu Mono" font-size="10.00">+</text>
<text text-anchor="start" x="117" y="-52" font-family="Ubuntu Mono" font-size="10.00">getNumField()</text>
<text text-anchor="start" x="104" y="-37" font-family="Ubuntu Mono" font-size="10.00">+</text>
<text text-anchor="start" x="117" y="-37" font-family="Ubuntu Mono" font-size="10.00">lookupField()</text>
<text text-anchor="start" x="104" y="-22" font-family="Ubuntu Mono" font-size="10.00">+</text>
<text text-anchor="start" x="117" y="-22" font-family="Ubuntu Mono" font-size="10.00">rttiType()</text>
<text text-anchor="start" x="104" y="-7" font-family="Ubuntu Mono" font-size="10.00">+</text>
<text text-anchor="start" x="117" y="-7" font-family="Ubuntu Mono" font-size="10.00">setNumField()</text>
<polygon fill="#666666" stroke="#666666" points="100,-122 100,-122 217,-122 217,-122 100,-122"/>
<polygon fill="#666666" stroke="#666666" points="100,-77 100,-77 115,-77 115,-77 100,-77"/>
<polygon fill="#666666" stroke="#666666" points="115,-77 115,-77 217,-77 217,-77 115,-77"/>
<polygon fill="none" stroke="#666666" points="99.5,0 99.5,-150 216.5,-150 216.5,0 99.5,0"/>
</a>
</g>
</g>
<!-- Node2 -->
<g id="Node000002" class="node">
<title>Node2</title>
<g id="a_Node000002"><a xlink:href="classFieldElementFinfoBase.html" target="_top" xlink:title=" ">
<polygon fill="white" stroke="transparent" points="232.5,-356 83.5,-356 83.5,-187 232.5,-187 232.5,-356"/>
<text text-anchor="start" x="102.5" y="-343.5" font-family="Ubuntu Mono" font-size="10.00">FieldElementFinfoBase</text>
<text text-anchor="start" x="88" y="-328.5" font-family="Ubuntu Mono" font-size="10.00">#</text>
<text text-anchor="start" x="101" y="-328.5" font-family="Ubuntu Mono" font-size="10.00">deferCreate_</text>
<text text-anchor="start" x="88" y="-313.5" font-family="Ubuntu Mono" font-size="10.00">+</text>
<text text-anchor="start" x="101" y="-313.5" font-family="Ubuntu Mono" font-size="10.00">FieldElementFinfoBase()</text>
<text text-anchor="start" x="88" y="-298.5" font-family="Ubuntu Mono" font-size="10.00">+</text>
<text text-anchor="start" x="101" y="-298.5" font-family="Ubuntu Mono" font-size="10.00">getNumField()</text>
<text text-anchor="start" x="88" y="-283.5" font-family="Ubuntu Mono" font-size="10.00">+</text>
<text text-anchor="start" x="101" y="-283.5" font-family="Ubuntu Mono" font-size="10.00">lookupField()</text>
<text text-anchor="start" x="88" y="-268.5" font-family="Ubuntu Mono" font-size="10.00">+</text>
<text text-anchor="start" x="101" y="-268.5" font-family="Ubuntu Mono" font-size="10.00">postCreationFunc()</text>
<text text-anchor="start" x="88" y="-253.5" font-family="Ubuntu Mono" font-size="10.00">+</text>
<text text-anchor="start" x="101" y="-253.5" font-family="Ubuntu Mono" font-size="10.00">registerFinfo()</text>
<text text-anchor="start" x="88" y="-238.5" font-family="Ubuntu Mono" font-size="10.00">+</text>
<text text-anchor="start" x="101" y="-238.5" font-family="Ubuntu Mono" font-size="10.00">setNumField()</text>
<text text-anchor="start" x="88" y="-223.5" font-family="Ubuntu Mono" font-size="10.00">+</text>
<text text-anchor="start" x="101" y="-223.5" font-family="Ubuntu Mono" font-size="10.00">strGet()</text>
<text text-anchor="start" x="88" y="-208.5" font-family="Ubuntu Mono" font-size="10.00">+</text>
<text text-anchor="start" x="101" y="-208.5" font-family="Ubuntu Mono" font-size="10.00">strSet()</text>
<text text-anchor="start" x="88" y="-193.5" font-family="Ubuntu Mono" font-size="10.00">+</text>
<text text-anchor="start" x="101" y="-193.5" font-family="Ubuntu Mono" font-size="10.00">~FieldElementFinfoBase()</text>
<polygon fill="#666666" stroke="#666666" points="84,-338.5 84,-338.5 233,-338.5 233,-338.5 84,-338.5"/>
<polygon fill="#666666" stroke="#666666" points="84,-323.5 84,-323.5 99,-323.5 99,-323.5 84,-323.5"/>
<polygon fill="#666666" stroke="#666666" points="99,-323.5 99,-323.5 233,-323.5 233,-323.5 99,-323.5"/>
<polygon fill="none" stroke="#666666" points="83.5,-187 83.5,-356 232.5,-356 232.5,-187 83.5,-187"/>
</a>
</g>
</g>
<!-- Node2&#45;&gt;Node1 -->
<g id="edge1_Node000001_Node000002" class="edge">
<title>Node2&#45;&gt;Node1</title>
<g id="a_edge1_Node000001_Node000002"><a xlink:title=" ">
<path fill="none" stroke="#63b8ff" d="M158,-176.79C158,-167.81 158,-158.79 158,-150.04"/>
<polygon fill="none" stroke="#63b8ff" points="154.5,-176.89 158,-186.89 161.5,-176.89 154.5,-176.89"/>
</a>
</g>
</g>
<!-- Node3 -->
<g id="Node000003" class="node">
<title>Node3</title>
<g id="a_Node000003"><a xlink:href="classFinfo.html" target="_top" xlink:title=" ">
<polygon fill="white" stroke="transparent" points="114,-1174 0,-1174 0,-915 114,-915 114,-1174"/>
<text text-anchor="start" x="44.5" y="-1161.5" font-family="Ubuntu Mono" font-size="10.00">Finfo</text>
<text text-anchor="start" x="6.5" y="-1146.5" font-family="Ubuntu Mono" font-size="10.00">&#45;</text>
<text text-anchor="start" x="17" y="-1146.5" font-family="Ubuntu Mono" font-size="10.00">doc_</text>
<text text-anchor="start" x="6.5" y="-1131.5" font-family="Ubuntu Mono" font-size="10.00">&#45;</text>
<text text-anchor="start" x="17" y="-1131.5" font-family="Ubuntu Mono" font-size="10.00">name_</text>
<text text-anchor="start" x="4" y="-1116.5" font-family="Ubuntu Mono" font-size="10.00">+</text>
<text text-anchor="start" x="17" y="-1116.5" font-family="Ubuntu Mono" font-size="10.00">addMsg()</text>
<text text-anchor="start" x="4" y="-1101.5" font-family="Ubuntu Mono" font-size="10.00">+</text>
<text text-anchor="start" x="17" y="-1101.5" font-family="Ubuntu Mono" font-size="10.00">checkTarget()</text>
<text text-anchor="start" x="4" y="-1086.5" font-family="Ubuntu Mono" font-size="10.00">+</text>
<text text-anchor="start" x="17" y="-1086.5" font-family="Ubuntu Mono" font-size="10.00">docs()</text>
<text text-anchor="start" x="4" y="-1071.5" font-family="Ubuntu Mono" font-size="10.00">+</text>
<text text-anchor="start" x="17" y="-1071.5" font-family="Ubuntu Mono" font-size="10.00">Finfo()</text>
<text text-anchor="start" x="4" y="-1056.5" font-family="Ubuntu Mono" font-size="10.00">+</text>
<text text-anchor="start" x="17" y="-1056.5" font-family="Ubuntu Mono" font-size="10.00">innerDest()</text>
<text text-anchor="start" x="4" y="-1041.5" font-family="Ubuntu Mono" font-size="10.00">+</text>
<text text-anchor="start" x="17" y="-1041.5" font-family="Ubuntu Mono" font-size="10.00">innerSrc()</text>
<text text-anchor="start" x="4" y="-1026.5" font-family="Ubuntu Mono" font-size="10.00">+</text>
<text text-anchor="start" x="17" y="-1026.5" font-family="Ubuntu Mono" font-size="10.00">name()</text>
<text text-anchor="start" x="4" y="-1011.5" font-family="Ubuntu Mono" font-size="10.00">+</text>
<text text-anchor="start" x="17" y="-1011.5" font-family="Ubuntu Mono" font-size="10.00">postCreationFunc()</text>
<text text-anchor="start" x="4" y="-996.5" font-family="Ubuntu Mono" font-size="10.00">+</text>
<text text-anchor="start" x="17" y="-996.5" font-family="Ubuntu Mono" font-size="10.00">registerFinfo()</text>
<text text-anchor="start" x="4" y="-981.5" font-family="Ubuntu Mono" font-size="10.00">+</text>
<text text-anchor="start" x="17" y="-981.5" font-family="Ubuntu Mono" font-size="10.00">rttiType()</text>
<text text-anchor="start" x="4" y="-966.5" font-family="Ubuntu Mono" font-size="10.00">+</text>
<text text-anchor="start" x="17" y="-966.5" font-family="Ubuntu Mono" font-size="10.00">strGet()</text>
<text text-anchor="start" x="4" y="-951.5" font-family="Ubuntu Mono" font-size="10.00">+</text>
<text text-anchor="start" x="17" y="-951.5" font-family="Ubuntu Mono" font-size="10.00">strSet()</text>
<text text-anchor="start" x="4" y="-936.5" font-family="Ubuntu Mono" font-size="10.00">+</text>
<text text-anchor="start" x="17" y="-936.5" font-family="Ubuntu Mono" font-size="10.00">~Finfo()</text>
<text text-anchor="start" x="4" y="-921.5" font-family="Ubuntu Mono" font-size="10.00">+</text>
<text text-anchor="start" x="17" y="-921.5" font-family="Ubuntu Mono" font-size="10.00">initCinfo()</text>
<polygon fill="#666666" stroke="#666666" points="0,-1156.5 0,-1156.5 114,-1156.5 114,-1156.5 0,-1156.5"/>
<polygon fill="#666666" stroke="#666666" points="0,-1126.5 0,-1126.5 15,-1126.5 15,-1126.5 0,-1126.5"/>
<polygon fill="#666666" stroke="#666666" points="15,-1126.5 15,-1126.5 114,-1126.5 114,-1126.5 15,-1126.5"/>
<polygon fill="none" stroke="#666666" points="0,-915 0,-1174 114,-1174 114,-915 0,-915"/>
</a>
</g>
</g>
<!-- Node3&#45;&gt;Node2 -->
<g id="edge2_Node000002_Node000003" class="edge">
<title>Node3&#45;&gt;Node2</title>
<g id="a_edge2_Node000002_Node000003"><a xlink:title=" ">
<path fill="none" stroke="#63b8ff" d="M55.38,-904.66C56.63,-775.94 65.59,-579.87 103,-414 107.32,-394.85 113.78,-374.86 120.78,-356.14"/>
<polygon fill="none" stroke="#63b8ff" points="51.87,-904.94 55.29,-914.97 58.87,-905 51.87,-904.94"/>
</a>
</g>
</g>
<!-- Node4 -->
<g id="Node000004" class="node">
<title>Node4</title>
<g id="a_Node000004"><a xlink:href="classDestFinfo.html" target="_top" xlink:title=" ">
<polygon fill="white" stroke="transparent" points="203.5,-718 112.5,-718 112.5,-564 203.5,-564 203.5,-718"/>
<text text-anchor="start" x="135" y="-706" font-family="Ubuntu Mono" font-size="10.00">DestFinfo</text>
<text text-anchor="start" x="119.5" y="-691" font-family="Ubuntu Mono" font-size="10.00">&#45;</text>
<text text-anchor="start" x="130" y="-691" font-family="Ubuntu Mono" font-size="10.00">fid_</text>
<text text-anchor="start" x="117" y="-676" font-family="Ubuntu Mono" font-size="10.00">+</text>
<text text-anchor="start" x="130" y="-676" font-family="Ubuntu Mono" font-size="10.00">DestFinfo()</text>
<text text-anchor="start" x="117" y="-661" font-family="Ubuntu Mono" font-size="10.00">+</text>
<text text-anchor="start" x="130" y="-661" font-family="Ubuntu Mono" font-size="10.00">getFid()</text>
<text text-anchor="start" x="117" y="-646" font-family="Ubuntu Mono" font-size="10.00">+</text>
<text text-anchor="start" x="130" y="-646" font-family="Ubuntu Mono" font-size="10.00">getOpFunc()</text>
<text text-anchor="start" x="117" y="-631" font-family="Ubuntu Mono" font-size="10.00">+</text>
<text text-anchor="start" x="130" y="-631" font-family="Ubuntu Mono" font-size="10.00">registerFinfo()</text>
<text text-anchor="start" x="117" y="-616" font-family="Ubuntu Mono" font-size="10.00">+</text>
<text text-anchor="start" x="130" y="-616" font-family="Ubuntu Mono" font-size="10.00">rttiType()</text>
<text text-anchor="start" x="117" y="-601" font-family="Ubuntu Mono" font-size="10.00">+</text>
<text text-anchor="start" x="130" y="-601" font-family="Ubuntu Mono" font-size="10.00">strGet()</text>
<text text-anchor="start" x="117" y="-586" font-family="Ubuntu Mono" font-size="10.00">+</text>
<text text-anchor="start" x="130" y="-586" font-family="Ubuntu Mono" font-size="10.00">strSet()</text>
<text text-anchor="start" x="117" y="-571" font-family="Ubuntu Mono" font-size="10.00">+</text>
<text text-anchor="start" x="130" y="-571" font-family="Ubuntu Mono" font-size="10.00">~DestFinfo()</text>
<polygon fill="#666666" stroke="#666666" points="113,-701 113,-701 204,-701 204,-701 113,-701"/>
<polygon fill="#666666" stroke="#666666" points="113,-686 113,-686 128,-686 128,-686 113,-686"/>
<polygon fill="#666666" stroke="#666666" points="128,-686 128,-686 204,-686 204,-686 128,-686"/>
<polygon fill="none" stroke="#666666" points="112.5,-564 112.5,-718 203.5,-718 203.5,-564 112.5,-564"/>
</a>
</g>
</g>
<!-- Node3&#45;&gt;Node4 -->
<g id="edge4_Node000004_Node000003" class="edge">
<title>Node3&#45;&gt;Node4</title>
<g id="a_edge4_Node000004_Node000003"><a xlink:title=" ">
<path fill="none" stroke="#63b8ff" d="M91.88,-904.85C107.61,-842.31 125.59,-770.85 138.82,-718.24"/>
<polygon fill="none" stroke="#63b8ff" points="88.42,-904.25 89.37,-914.81 95.21,-905.96 88.42,-904.25"/>
</a>
</g>
</g>
<!-- Node4&#45;&gt;Node2 -->
<g id="edge3_Node000002_Node000004" class="edge">
<title>Node4&#45;&gt;Node2</title>
<g id="a_edge3_Node000002_Node000004"><a xlink:title=" ">
<path fill="none" stroke="#63b8ff" d="M158,-563.85C158,-507.21 158,-429.49 158,-368.58"/>
<polygon fill="none" stroke="#63b8ff" points="158,-368.24 154,-362.24 158,-356.24 162,-362.24 158,-368.24"/>
</a>
</g>
<text text-anchor="middle" x="186" y="-388" font-family="Ubuntu Mono" font-size="10.00" fill="grey"> #getNum_</text>
<text text-anchor="middle" x="186" y="-377" font-family="Ubuntu Mono" font-size="10.00" fill="grey">#setNum_</text>
</g>
<!-- Node5 -->
<g id="Node000005" class="node">
<title>Node5</title>
<g id="a_Node000005"><a xlink:href="classOpFunc.html" target="_top" xlink:title=" ">
<polygon fill="white" stroke="transparent" points="235.5,-1151.5 132.5,-1151.5 132.5,-937.5 235.5,-937.5 235.5,-1151.5"/>
<text text-anchor="start" x="166" y="-1139.5" font-family="Ubuntu Mono" font-size="10.00">OpFunc</text>
<text text-anchor="start" x="139.5" y="-1124.5" font-family="Ubuntu Mono" font-size="10.00">&#45;</text>
<text text-anchor="start" x="150" y="-1124.5" font-family="Ubuntu Mono" font-size="10.00">opIndex_</text>
<text text-anchor="start" x="137" y="-1109.5" font-family="Ubuntu Mono" font-size="10.00">+</text>
<text text-anchor="start" x="150" y="-1109.5" font-family="Ubuntu Mono" font-size="10.00">checkFinfo()</text>
<text text-anchor="start" x="137" y="-1094.5" font-family="Ubuntu Mono" font-size="10.00">+</text>
<text text-anchor="start" x="150" y="-1094.5" font-family="Ubuntu Mono" font-size="10.00">makeHopFunc()</text>
<text text-anchor="start" x="137" y="-1079.5" font-family="Ubuntu Mono" font-size="10.00">+</text>
<text text-anchor="start" x="150" y="-1079.5" font-family="Ubuntu Mono" font-size="10.00">opBuffer()</text>
<text text-anchor="start" x="137" y="-1064.5" font-family="Ubuntu Mono" font-size="10.00">+</text>
<text text-anchor="start" x="150" y="-1064.5" font-family="Ubuntu Mono" font-size="10.00">OpFunc()</text>
<text text-anchor="start" x="137" y="-1049.5" font-family="Ubuntu Mono" font-size="10.00">+</text>
<text text-anchor="start" x="150" y="-1049.5" font-family="Ubuntu Mono" font-size="10.00">opIndex()</text>
<text text-anchor="start" x="137" y="-1034.5" font-family="Ubuntu Mono" font-size="10.00">+</text>
<text text-anchor="start" x="150" y="-1034.5" font-family="Ubuntu Mono" font-size="10.00">opVecBuffer()</text>
<text text-anchor="start" x="137" y="-1019.5" font-family="Ubuntu Mono" font-size="10.00">+</text>
<text text-anchor="start" x="150" y="-1019.5" font-family="Ubuntu Mono" font-size="10.00">rttiType()</text>
<text text-anchor="start" x="137" y="-1004.5" font-family="Ubuntu Mono" font-size="10.00">+</text>
<text text-anchor="start" x="150" y="-1004.5" font-family="Ubuntu Mono" font-size="10.00">setIndex()</text>
<text text-anchor="start" x="137" y="-989.5" font-family="Ubuntu Mono" font-size="10.00">+</text>
<text text-anchor="start" x="150" y="-989.5" font-family="Ubuntu Mono" font-size="10.00">~OpFunc()</text>
<text text-anchor="start" x="137" y="-974.5" font-family="Ubuntu Mono" font-size="10.00">+</text>
<text text-anchor="start" x="150" y="-974.5" font-family="Ubuntu Mono" font-size="10.00">lookop()</text>
<text text-anchor="start" x="137" y="-959.5" font-family="Ubuntu Mono" font-size="10.00">+</text>
<text text-anchor="start" x="150" y="-959.5" font-family="Ubuntu Mono" font-size="10.00">rebuildOpIndex()</text>
<text text-anchor="start" x="139.5" y="-944.5" font-family="Ubuntu Mono" font-size="10.00">&#45;</text>
<text text-anchor="start" x="150" y="-944.5" font-family="Ubuntu Mono" font-size="10.00">ops()</text>
<polygon fill="#666666" stroke="#666666" points="133,-1134.5 133,-1134.5 236,-1134.5 236,-1134.5 133,-1134.5"/>
<polygon fill="#666666" stroke="#666666" points="133,-1119.5 133,-1119.5 148,-1119.5 148,-1119.5 133,-1119.5"/>
<polygon fill="#666666" stroke="#666666" points="148,-1119.5 148,-1119.5 236,-1119.5 236,-1119.5 148,-1119.5"/>
<polygon fill="none" stroke="#666666" points="132.5,-937.5 132.5,-1151.5 235.5,-1151.5 235.5,-937.5 132.5,-937.5"/>
</a>
</g>
</g>
<!-- Node5&#45;&gt;Node4 -->
<g id="edge5_Node000004_Node000005" class="edge">
<title>Node5&#45;&gt;Node4</title>
<g id="a_edge5_Node000004_Node000005"><a xlink:title=" ">
<path fill="none" stroke="#63b8ff" d="M177.13,-937.49C172.95,-872.93 167.68,-791.42 163.72,-730.37"/>
<polygon fill="none" stroke="#63b8ff" points="163.7,-730.03 159.32,-724.3 162.92,-718.05 167.3,-723.78 163.7,-730.03"/>
</a>
</g>
<text text-anchor="middle" x="192" y="-889" font-family="Ubuntu Mono" font-size="10.00" fill="grey"> &#45;func_</text>
</g>
<!-- Node6 -->
<g id="Node000006" class="node">
<title>Node6</title>
<g id="a_Node000006"><a xlink:href="classCinfo.html" target="_top" xlink:title=" ">
<polygon fill="white" stroke="transparent" points="366.5,-868 239.5,-868 239.5,-414 366.5,-414 366.5,-868"/>
<text text-anchor="start" x="290.5" y="-856" font-family="Ubuntu Mono" font-size="10.00">Cinfo</text>
<text text-anchor="start" x="246.5" y="-841" font-family="Ubuntu Mono" font-size="10.00">&#45;</text>
<text text-anchor="start" x="257" y="-841" font-family="Ubuntu Mono" font-size="10.00">banCreation_</text>
<text text-anchor="start" x="246.5" y="-826" font-family="Ubuntu Mono" font-size="10.00">&#45;</text>
<text text-anchor="start" x="257" y="-826" font-family="Ubuntu Mono" font-size="10.00">destFinfos_</text>
<text text-anchor="start" x="246.5" y="-811" font-family="Ubuntu Mono" font-size="10.00">&#45;</text>
<text text-anchor="start" x="257" y="-811" font-family="Ubuntu Mono" font-size="10.00">fieldElementFinfos_</text>
<text text-anchor="start" x="246.5" y="-796" font-family="Ubuntu Mono" font-size="10.00">&#45;</text>
<text text-anchor="start" x="257" y="-796" font-family="Ubuntu Mono" font-size="10.00">finfoMap_</text>
<text text-anchor="start" x="246.5" y="-781" font-family="Ubuntu Mono" font-size="10.00">&#45;</text>
<text text-anchor="start" x="257" y="-781" font-family="Ubuntu Mono" font-size="10.00">funcs_</text>
<text text-anchor="start" x="246.5" y="-766" font-family="Ubuntu Mono" font-size="10.00">&#45;</text>
<text text-anchor="start" x="257" y="-766" font-family="Ubuntu Mono" font-size="10.00">lookupFinfos_</text>
<text text-anchor="start" x="246.5" y="-751" font-family="Ubuntu Mono" font-size="10.00">&#45;</text>
<text text-anchor="start" x="257" y="-751" font-family="Ubuntu Mono" font-size="10.00">name_</text>
<text text-anchor="start" x="246.5" y="-736" font-family="Ubuntu Mono" font-size="10.00">&#45;</text>
<text text-anchor="start" x="257" y="-736" font-family="Ubuntu Mono" font-size="10.00">numBindIndex_</text>
<text text-anchor="start" x="246.5" y="-721" font-family="Ubuntu Mono" font-size="10.00">&#45;</text>
<text text-anchor="start" x="257" y="-721" font-family="Ubuntu Mono" font-size="10.00">postCreationFinfos_</text>
<text text-anchor="start" x="246.5" y="-706" font-family="Ubuntu Mono" font-size="10.00">&#45;</text>
<text text-anchor="start" x="257" y="-706" font-family="Ubuntu Mono" font-size="10.00">sharedFinfos_</text>
<text text-anchor="start" x="246.5" y="-691" font-family="Ubuntu Mono" font-size="10.00">&#45;</text>
<text text-anchor="start" x="257" y="-691" font-family="Ubuntu Mono" font-size="10.00">srcFinfos_</text>
<text text-anchor="start" x="246.5" y="-676" font-family="Ubuntu Mono" font-size="10.00">&#45;</text>
<text text-anchor="start" x="257" y="-676" font-family="Ubuntu Mono" font-size="10.00">valueFinfos_</text>
<text text-anchor="start" x="246.5" y="-661" font-family="Ubuntu Mono" font-size="10.00">&#45;</text>
<text text-anchor="start" x="257" y="-661" font-family="Ubuntu Mono" font-size="10.00">numCoreOpFunc_</text>
<text text-anchor="start" x="244" y="-646" font-family="Ubuntu Mono" font-size="10.00">+</text>
<text text-anchor="start" x="257" y="-646" font-family="Ubuntu Mono" font-size="10.00">banCreation()</text>
<text text-anchor="start" x="244" y="-631" font-family="Ubuntu Mono" font-size="10.00">+</text>
<text text-anchor="start" x="257" y="-631" font-family="Ubuntu Mono" font-size="10.00">baseCinfo()</text>
<text text-anchor="start" x="244" y="-616" font-family="Ubuntu Mono" font-size="10.00">+</text>
<text text-anchor="start" x="257" y="-616" font-family="Ubuntu Mono" font-size="10.00">Cinfo()</text>
<text text-anchor="start" x="244" y="-601" font-family="Ubuntu Mono" font-size="10.00">+</text>
<text text-anchor="start" x="257" y="-601" font-family="Ubuntu Mono" font-size="10.00">Cinfo()</text>
<text text-anchor="start" x="244" y="-586" font-family="Ubuntu Mono" font-size="10.00">+</text>
<text text-anchor="start" x="257" y="-586" font-family="Ubuntu Mono" font-size="10.00">Cinfo()</text>
<text text-anchor="start" x="244" y="-571" font-family="Ubuntu Mono" font-size="10.00">+</text>
<text text-anchor="start" x="257" y="-571" font-family="Ubuntu Mono" font-size="10.00">destFinfoName()</text>
<text text-anchor="start" x="244" y="-556" font-family="Ubuntu Mono" font-size="10.00">+</text>
<text text-anchor="start" x="257" y="-556" font-family="Ubuntu Mono" font-size="10.00">dinfo()</text>
<text text-anchor="start" x="244" y="-541" font-family="Ubuntu Mono" font-size="10.00">+</text>
<text text-anchor="start" x="257" y="-541" font-family="Ubuntu Mono" font-size="10.00">findFinfo()</text>
<text text-anchor="start" x="244" y="-526" font-family="Ubuntu Mono" font-size="10.00">+</text>
<text text-anchor="start" x="257" y="-526" font-family="Ubuntu Mono" font-size="10.00">findFinfoWrapper()</text>
<text text-anchor="start" x="244" y="-511" font-family="Ubuntu Mono" font-size="10.00">+</text>
<text text-anchor="start" x="257" y="-511" font-family="Ubuntu Mono" font-size="10.00">finfoMap()</text>
<text text-anchor="start" x="257" y="-496" font-family="Ubuntu Mono" font-size="10.00">and 31 more...</text>
<text text-anchor="start" x="244" y="-481" font-family="Ubuntu Mono" font-size="10.00">+</text>
<text text-anchor="start" x="257" y="-481" font-family="Ubuntu Mono" font-size="10.00">find()</text>
<text text-anchor="start" x="244" y="-466" font-family="Ubuntu Mono" font-size="10.00">+</text>
<text text-anchor="start" x="257" y="-466" font-family="Ubuntu Mono" font-size="10.00">initCinfo()</text>
<text text-anchor="start" x="244" y="-451" font-family="Ubuntu Mono" font-size="10.00">+</text>
<text text-anchor="start" x="257" y="-451" font-family="Ubuntu Mono" font-size="10.00">makeCinfoElements()</text>
<text text-anchor="start" x="244" y="-436" font-family="Ubuntu Mono" font-size="10.00">+</text>
<text text-anchor="start" x="257" y="-436" font-family="Ubuntu Mono" font-size="10.00">rebuildOpIndex()</text>
<text text-anchor="start" x="246.5" y="-421" font-family="Ubuntu Mono" font-size="10.00">&#45;</text>
<text text-anchor="start" x="257" y="-421" font-family="Ubuntu Mono" font-size="10.00">cinfoMap()</text>
<polygon fill="#666666" stroke="#666666" points="240,-851 240,-851 367,-851 367,-851 240,-851"/>
<polygon fill="#666666" stroke="#666666" points="240,-656 240,-656 255,-656 255,-656 240,-656"/>
<polygon fill="#666666" stroke="#666666" points="255,-656 255,-656 367,-656 367,-656 255,-656"/>
<polygon fill="none" stroke="#666666" points="239.5,-414 239.5,-868 366.5,-868 366.5,-414 239.5,-414"/>
</a>
</g>
</g>
<!-- Node6&#45;&gt;Node2 -->
<g id="edge6_Node000002_Node000006" class="edge">
<title>Node6&#45;&gt;Node2</title>
<g id="a_edge6_Node000002_Node000006"><a xlink:title=" ">
<path fill="none" stroke="#63b8ff" d="M239.46,-426.41C232.71,-408.49 225.54,-390.81 218,-374 216.97,-371.7 215.9,-369.39 214.8,-367.07"/>
<polygon fill="none" stroke="#63b8ff" points="214.73,-366.95 208.49,-363.35 209.41,-356.19 215.66,-359.8 214.73,-366.95"/>
</a>
</g>
<text text-anchor="middle" x="259" y="-382.5" font-family="Ubuntu Mono" font-size="10.00" fill="grey"> #fieldCinfo_</text>
</g>
<!-- Node6&#45;&gt;Node6 -->
<g id="edge7_Node000006_Node000006" class="edge">
<title>Node6&#45;&gt;Node6</title>
<g id="a_edge7_Node000006_Node000006"><a xlink:title=" ">
<path fill="none" stroke="#63b8ff" d="M366.56,-684.57C377.17,-678.47 384.5,-663.95 384.5,-641 384.5,-625.22 381.04,-613.43 375.42,-605.62"/>
<polygon fill="none" stroke="#63b8ff" points="375.38,-605.57 368.25,-604.44 366.56,-597.43 373.68,-598.56 375.38,-605.57"/>
</a>
</g>
<text text-anchor="middle" x="415" y="-638.5" font-family="Ubuntu Mono" font-size="10.00" fill="grey"> &#45;baseCinfo_</text>
</g>
<!-- Node7 -->
<g id="Node000007" class="node">
<title>Node7</title>
<g id="a_Node000007"><a xlink:href="classDinfoBase.html" target="_top" xlink:title=" ">
<polygon fill="white" stroke="transparent" points="352,-1144 254,-1144 254,-945 352,-945 352,-1144"/>
<text text-anchor="start" x="277.5" y="-1131.5" font-family="Ubuntu Mono" font-size="10.00">DinfoBase</text>
<text text-anchor="start" x="260.5" y="-1116.5" font-family="Ubuntu Mono" font-size="10.00">&#45;</text>
<text text-anchor="start" x="271" y="-1116.5" font-family="Ubuntu Mono" font-size="10.00">isOneZombie_</text>
<text text-anchor="start" x="258" y="-1101.5" font-family="Ubuntu Mono" font-size="10.00">+</text>
<text text-anchor="start" x="271" y="-1101.5" font-family="Ubuntu Mono" font-size="10.00">allocData()</text>
<text text-anchor="start" x="258" y="-1086.5" font-family="Ubuntu Mono" font-size="10.00">+</text>
<text text-anchor="start" x="271" y="-1086.5" font-family="Ubuntu Mono" font-size="10.00">assignData()</text>
<text text-anchor="start" x="258" y="-1071.5" font-family="Ubuntu Mono" font-size="10.00">+</text>
<text text-anchor="start" x="271" y="-1071.5" font-family="Ubuntu Mono" font-size="10.00">copyData()</text>
<text text-anchor="start" x="258" y="-1056.5" font-family="Ubuntu Mono" font-size="10.00">+</text>
<text text-anchor="start" x="271" y="-1056.5" font-family="Ubuntu Mono" font-size="10.00">destroyData()</text>
<text text-anchor="start" x="258" y="-1041.5" font-family="Ubuntu Mono" font-size="10.00">+</text>
<text text-anchor="start" x="271" y="-1041.5" font-family="Ubuntu Mono" font-size="10.00">DinfoBase()</text>
<text text-anchor="start" x="258" y="-1026.5" font-family="Ubuntu Mono" font-size="10.00">+</text>
<text text-anchor="start" x="271" y="-1026.5" font-family="Ubuntu Mono" font-size="10.00">DinfoBase()</text>
<text text-anchor="start" x="258" y="-1011.5" font-family="Ubuntu Mono" font-size="10.00">+</text>
<text text-anchor="start" x="271" y="-1011.5" font-family="Ubuntu Mono" font-size="10.00">isA()</text>
<text text-anchor="start" x="258" y="-996.5" font-family="Ubuntu Mono" font-size="10.00">+</text>
<text text-anchor="start" x="271" y="-996.5" font-family="Ubuntu Mono" font-size="10.00">isOneZombie()</text>
<text text-anchor="start" x="258" y="-981.5" font-family="Ubuntu Mono" font-size="10.00">+</text>
<text text-anchor="start" x="271" y="-981.5" font-family="Ubuntu Mono" font-size="10.00">size()</text>
<text text-anchor="start" x="258" y="-966.5" font-family="Ubuntu Mono" font-size="10.00">+</text>
<text text-anchor="start" x="271" y="-966.5" font-family="Ubuntu Mono" font-size="10.00">sizeIncrement()</text>
<text text-anchor="start" x="258" y="-951.5" font-family="Ubuntu Mono" font-size="10.00">+</text>
<text text-anchor="start" x="271" y="-951.5" font-family="Ubuntu Mono" font-size="10.00">~DinfoBase()</text>
<polygon fill="#666666" stroke="#666666" points="254,-1126.5 254,-1126.5 352,-1126.5 352,-1126.5 254,-1126.5"/>
<polygon fill="#666666" stroke="#666666" points="254,-1111.5 254,-1111.5 269,-1111.5 269,-1111.5 254,-1111.5"/>
<polygon fill="#666666" stroke="#666666" points="269,-1111.5 269,-1111.5 352,-1111.5 352,-1111.5 269,-1111.5"/>
<polygon fill="none" stroke="#666666" points="254,-945 254,-1144 352,-1144 352,-945 254,-945"/>
</a>
</g>
</g>
<!-- Node7&#45;&gt;Node6 -->
<g id="edge8_Node000006_Node000007" class="edge">
<title>Node7&#45;&gt;Node6</title>
<g id="a_edge8_Node000006_Node000007"><a xlink:title=" ">
<path fill="none" stroke="#63b8ff" d="M303,-944.77C303,-924.79 303,-902.98 303,-880.51"/>
<polygon fill="none" stroke="#63b8ff" points="303,-880.34 299,-874.34 303,-868.34 307,-874.34 303,-880.34"/>
</a>
</g>
<text text-anchor="middle" x="321.5" y="-889" font-family="Ubuntu Mono" font-size="10.00" fill="grey"> &#45;dinfo_</text>
</g>
<!-- Node8 -->
<g id="Node000008" class="node">
<title>Node8</title>
<g id="a_Node000008"><a xlink:title=" ">
<polygon fill="white" stroke="transparent" points="486,-1074.5 370,-1074.5 370,-1014.5 486,-1014.5 486,-1074.5"/>
<text text-anchor="start" x="375" y="-1062.5" font-family="Ubuntu Mono" font-size="10.00">std::map&lt; std::string,</text>
<text text-anchor="start" x="396" y="-1051.5" font-family="Ubuntu Mono" font-size="10.00"> std::string &gt;</text>
<text text-anchor="start" x="426" y="-1036.5" font-family="Ubuntu Mono" font-size="10.00"> </text>
<text text-anchor="start" x="426" y="-1021.5" font-family="Ubuntu Mono" font-size="10.00"> </text>
<polygon fill="#666666" stroke="#666666" points="370,-1046.5 370,-1046.5 486,-1046.5 486,-1046.5 370,-1046.5"/>
<polygon fill="#666666" stroke="#666666" points="370,-1031.5 370,-1031.5 486,-1031.5 486,-1031.5 370,-1031.5"/>
<polygon fill="none" stroke="#666666" points="370,-1014.5 370,-1074.5 486,-1074.5 486,-1014.5 370,-1014.5"/>
</a>
</g>
</g>
<!-- Node8&#45;&gt;Node6 -->
<g id="edge9_Node000006_Node000008" class="edge">
<title>Node8&#45;&gt;Node6</title>
<g id="a_edge9_Node000006_Node000008"><a xlink:title=" ">
<path fill="none" stroke="#63b8ff" d="M418.91,-1014.3C408.23,-979.99 389.49,-919.8 370.15,-857.7"/>
<polygon fill="none" stroke="#63b8ff" points="370.11,-857.55 364.5,-853.01 366.54,-846.09 372.14,-850.63 370.11,-857.55"/>
</a>
</g>
<text text-anchor="middle" x="396" y="-889" font-family="Ubuntu Mono" font-size="10.00" fill="grey"> &#45;doc_</text>
</g>
<!-- Node9 -->
<g id="Node000009" class="node">
<title>Node9</title>
<g id="a_Node000009"><a xlink:title=" ">
<polygon fill="white" stroke="transparent" points="408.5,-1281 349.5,-1281 349.5,-1232 408.5,-1232 408.5,-1281"/>
<text text-anchor="start" x="355" y="-1268.5" font-family="Ubuntu Mono" font-size="10.00">std::string</text>
<text text-anchor="start" x="377.5" y="-1253.5" font-family="Ubuntu Mono" font-size="10.00"> </text>
<text text-anchor="start" x="377.5" y="-1238.5" font-family="Ubuntu Mono" font-size="10.00"> </text>
<polygon fill="#666666" stroke="#666666" points="350,-1263.5 350,-1263.5 409,-1263.5 409,-1263.5 350,-1263.5"/>
<polygon fill="#666666" stroke="#666666" points="350,-1248.5 350,-1248.5 409,-1248.5 409,-1248.5 350,-1248.5"/>
<polygon fill="none" stroke="#666666" points="349.5,-1232 349.5,-1281 408.5,-1281 408.5,-1232 349.5,-1232"/>
</a>
</g>
</g>
<!-- Node9&#45;&gt;Node8 -->
<g id="edge10_Node000008_Node000009" class="edge">
<title>Node9&#45;&gt;Node8</title>
<g id="a_edge10_Node000008_Node000009"><a xlink:title=" ">
<path fill="none" stroke="#63b8ff" d="M384.53,-1231.82C392.74,-1196.6 408.3,-1129.92 418.41,-1086.62"/>
<polygon fill="none" stroke="#63b8ff" points="418.44,-1086.49 415.9,-1079.74 421.16,-1074.8 423.69,-1081.56 418.44,-1086.49"/>
</a>
</g>
<text text-anchor="middle" x="423" y="-1206" font-family="Ubuntu Mono" font-size="10.00" fill="grey"> +elements</text>
<text text-anchor="middle" x="423" y="-1195" font-family="Ubuntu Mono" font-size="10.00" fill="grey">+keys</text>
</g>
<!-- Node10 -->
<g id="Node000010" class="node">
<title>Node10</title>
<g id="a_Node000010"><a xlink:title=" ">
<polygon fill="white" stroke="transparent" points="428,-1388 330,-1388 330,-1328 428,-1328 428,-1388"/>
<text text-anchor="start" x="335" y="-1376" font-family="Ubuntu Mono" font-size="10.00">std::basic_string&lt;</text>
<text text-anchor="start" x="360.5" y="-1365" font-family="Ubuntu Mono" font-size="10.00"> Char &gt;</text>
<text text-anchor="start" x="377" y="-1350" font-family="Ubuntu Mono" font-size="10.00"> </text>
<text text-anchor="start" x="377" y="-1335" font-family="Ubuntu Mono" font-size="10.00"> </text>
<polygon fill="#666666" stroke="#666666" points="330,-1360 330,-1360 428,-1360 428,-1360 330,-1360"/>
<polygon fill="#666666" stroke="#666666" points="330,-1345 330,-1345 428,-1345 428,-1345 330,-1345"/>
<polygon fill="none" stroke="#666666" points="330,-1328 330,-1388 428,-1388 428,-1328 330,-1328"/>
</a>
</g>
</g>
<!-- Node10&#45;&gt;Node9 -->
<g id="edge11_Node000009_Node000010" class="edge">
<title>Node10&#45;&gt;Node9</title>
<g id="a_edge11_Node000009_Node000010"><a xlink:title=" ">
<path fill="none" stroke="#63b8ff" d="M379,-1317.8C379,-1305.38 379,-1292.03 379,-1281.06"/>
<polygon fill="none" stroke="#63b8ff" points="375.5,-1317.95 379,-1327.95 382.5,-1317.95 375.5,-1317.95"/>
</a>
</g>
</g>
<!-- Node11 -->
<g id="Node000011" class="node">
<title>Node11</title>
<g id="a_Node000011"><a xlink:title=" ">
<polygon fill="white" stroke="transparent" points="521.5,-1281 426.5,-1281 426.5,-1232 521.5,-1232 521.5,-1281"/>
<text text-anchor="start" x="432" y="-1268.5" font-family="Ubuntu Mono" font-size="10.00">std::map&lt; K, T &gt;</text>
<text text-anchor="start" x="472.5" y="-1253.5" font-family="Ubuntu Mono" font-size="10.00"> </text>
<text text-anchor="start" x="472.5" y="-1238.5" font-family="Ubuntu Mono" font-size="10.00"> </text>
<polygon fill="#666666" stroke="#666666" points="427,-1263.5 427,-1263.5 522,-1263.5 522,-1263.5 427,-1263.5"/>
<polygon fill="#666666" stroke="#666666" points="427,-1248.5 427,-1248.5 522,-1248.5 522,-1248.5 427,-1248.5"/>
<polygon fill="none" stroke="#666666" points="426.5,-1232 426.5,-1281 521.5,-1281 521.5,-1232 426.5,-1232"/>
</a>
</g>
</g>
<!-- Node11&#45;&gt;Node8 -->
<g id="edge12_Node000008_Node000011" class="edge">
<title>Node11&#45;&gt;Node8</title>
<g id="a_edge12_Node000008_Node000011"><a xlink:title=" ">
<path fill="none" stroke="orange" d="M466.63,-1221.85C457.72,-1181.18 442.88,-1113.42 434.42,-1074.8"/>
<polygon fill="orange" stroke="orange" points="463.25,-1222.8 468.81,-1231.82 470.09,-1221.3 463.25,-1222.8"/>
</a>
</g>
<text text-anchor="start" x="465" y="-1206" font-family="Ubuntu Mono" font-size="10.00" fill="grey"> &lt; std::string, std</text>
<text text-anchor="middle" x="507.5" y="-1195" font-family="Ubuntu Mono" font-size="10.00" fill="grey">::string &gt;</text>
</g>
<!-- Node12 -->
<g id="Node000012" class="node">
<title>Node12</title>
<g id="a_Node000012"><a xlink:title=" ">
<polygon fill="white" stroke="transparent" points="472.5,-1382.5 455.5,-1382.5 455.5,-1333.5 472.5,-1333.5 472.5,-1382.5"/>
<text text-anchor="start" x="461" y="-1370" font-family="Ubuntu Mono" font-size="10.00">K</text>
<text text-anchor="start" x="462.5" y="-1355" font-family="Ubuntu Mono" font-size="10.00"> </text>
<text text-anchor="start" x="462.5" y="-1340" font-family="Ubuntu Mono" font-size="10.00"> </text>
<polygon fill="#666666" stroke="#666666" points="456,-1365 456,-1365 473,-1365 473,-1365 456,-1365"/>
<polygon fill="#666666" stroke="#666666" points="456,-1350 456,-1350 473,-1350 473,-1350 456,-1350"/>
<polygon fill="none" stroke="#666666" points="455.5,-1333.5 455.5,-1382.5 472.5,-1382.5 472.5,-1333.5 455.5,-1333.5"/>
</a>
</g>
</g>
<!-- Node12&#45;&gt;Node11 -->
<g id="edge13_Node000011_Node000012" class="edge">
<title>Node12&#45;&gt;Node11</title>
<g id="a_edge13_Node000011_Node000012"><a xlink:title=" ">
<path fill="none" stroke="#63b8ff" d="M463.36,-1333.23C463.35,-1322.71 463.7,-1310.2 465,-1299 465.22,-1297.08 465.49,-1295.11 465.8,-1293.14"/>
<polygon fill="none" stroke="#63b8ff" points="465.85,-1292.86 463.02,-1286.23 468.05,-1281.07 470.88,-1287.7 465.85,-1292.86"/>
</a>
</g>
<text text-anchor="middle" x="482" y="-1302" font-family="Ubuntu Mono" font-size="10.00" fill="grey"> +keys</text>
</g>
<!-- Node13 -->
<g id="Node000013" class="node">
<title>Node13</title>
<g id="a_Node000013"><a xlink:title=" ">
<polygon fill="white" stroke="transparent" points="529.5,-1382.5 512.5,-1382.5 512.5,-1333.5 529.5,-1333.5 529.5,-1382.5"/>
<text text-anchor="start" x="518" y="-1370" font-family="Ubuntu Mono" font-size="10.00">T</text>
<text text-anchor="start" x="519.5" y="-1355" font-family="Ubuntu Mono" font-size="10.00"> </text>
<text text-anchor="start" x="519.5" y="-1340" font-family="Ubuntu Mono" font-size="10.00"> </text>
<polygon fill="#666666" stroke="#666666" points="513,-1365 513,-1365 530,-1365 530,-1365 513,-1365"/>
<polygon fill="#666666" stroke="#666666" points="513,-1350 513,-1350 530,-1350 530,-1350 513,-1350"/>
<polygon fill="none" stroke="#666666" points="512.5,-1333.5 512.5,-1382.5 529.5,-1382.5 529.5,-1333.5 512.5,-1333.5"/>
</a>
</g>
</g>
<!-- Node13&#45;&gt;Node11 -->
<g id="edge14_Node000011_Node000013" class="edge">
<title>Node13&#45;&gt;Node11</title>
<g id="a_edge14_Node000011_Node000013"><a xlink:title=" ">
<path fill="none" stroke="#63b8ff" d="M513.16,-1333.45C509.32,-1322.75 504.37,-1310.04 499,-1299 497.84,-1296.6 496.58,-1294.16 495.26,-1291.73"/>
<polygon fill="none" stroke="#63b8ff" points="495.22,-1291.66 488.78,-1288.42 489.29,-1281.23 495.74,-1284.47 495.22,-1291.66"/>
</a>
</g>
<text text-anchor="middle" x="533" y="-1302" font-family="Ubuntu Mono" font-size="10.00" fill="grey"> +elements</text>
</g>
</g>
</svg>
