<?xml version="1.0" encoding="UTF-8" standalone="no"?>
<!DOCTYPE svg PUBLIC "-//W3C//DTD SVG 1.1//EN"
 "http://www.w3.org/Graphics/SVG/1.1/DTD/svg11.dtd">
<!-- Generated by graphviz version 2.43.0 (0)
 -->
<!-- Title: FuncReac::FuncReac Pages: 1 -->
<svg width="425pt" height="64pt"
 viewBox="0.00 0.00 425.00 64.00" xmlns="http://www.w3.org/2000/svg" xmlns:xlink="http://www.w3.org/1999/xlink">

<svg id="main" version="1.1" xmlns="http://www.w3.org/2000/svg" xmlns:xlink="http://www.w3.org/1999/xlink" xml:space="preserve" onload="init(evt)">
<style type="text/css"><![CDATA[
.node, .edge {opacity: 0.7;}
.node.selected, .edge.selected {opacity: 1;}
.edge:hover path { stroke: red; }
.edge:hover polygon { stroke: red; fill: red; }
]]></style>
<script type="application/ecmascript" xlink:href="svg.min.js"/>
<svg id="graph" class="graph">
<g id="graph0" class="graph" transform="scale(1 1) rotate(0) translate(4 60)">
<title>FuncReac::FuncReac</title>
<!-- Node1 -->
<g id="Node000001" class="node">
<title>Node1</title>
<g id="a_Node000001"><a xlink:title=" ">
<polygon fill="#999999" stroke="#666666" points="116,-37 0,-37 0,-18 116,-18 116,-37"/>
<text text-anchor="middle" x="58" y="-25" font-family="Ubuntu Mono" font-size="10.00">FuncReac::FuncReac</text>
</a>
</g>
</g>
<!-- Node2 -->
<g id="Node000002" class="node">
<title>Node2</title>
<g id="a_Node000002"><a xlink:href="classFuncRate.html#af72315bca742d4225e0674e64b871ac4" target="_top" xlink:title=" ">
<polygon fill="white" stroke="#666666" points="265,-37 152,-37 152,-18 265,-18 265,-37"/>
<text text-anchor="middle" x="208.5" y="-25" font-family="Ubuntu Mono" font-size="10.00">FuncRate::FuncRate</text>
</a>
</g>
</g>
<!-- Node1&#45;&gt;Node2 -->
<g id="edge1_Node000001_Node000002" class="edge">
<title>Node1&#45;&gt;Node2</title>
<g id="a_edge1_Node000001_Node000002"><a xlink:title=" ">
<path fill="none" stroke="#63b8ff" d="M116.41,-27.5C124.65,-27.5 133.18,-27.5 141.57,-27.5"/>
<polygon fill="#63b8ff" stroke="#63b8ff" points="141.7,-31 151.7,-27.5 141.7,-24 141.7,-31"/>
</a>
</g>
</g>
<!-- Node3 -->
<g id="Node000003" class="node">
<title>Node3</title>
<g id="a_Node000003"><a xlink:href="classFuncTerm.html#a3aff33ff21e2a6be5fc25af1b26db124" target="_top" xlink:title=" ">
<polygon fill="white" stroke="#666666" points="417,-56 301,-56 301,-37 417,-37 417,-56"/>
<text text-anchor="middle" x="359" y="-44" font-family="Ubuntu Mono" font-size="10.00">FuncTerm::FuncTerm</text>
</a>
</g>
</g>
<!-- Node2&#45;&gt;Node3 -->
<g id="edge2_Node000002_Node000003" class="edge">
<title>Node2&#45;&gt;Node3</title>
<g id="a_edge2_Node000002_Node000003"><a xlink:title=" ">
<path fill="none" stroke="#63b8ff" d="M265.22,-34.63C273.62,-35.7 282.36,-36.82 290.96,-37.92"/>
<polygon fill="#63b8ff" stroke="#63b8ff" points="290.62,-41.41 300.98,-39.2 291.5,-34.46 290.62,-41.41"/>
</a>
</g>
</g>
<!-- Node4 -->
<g id="Node000004" class="node">
<title>Node4</title>
<g id="a_Node000004"><a xlink:href="classFuncTerm.html#a2c3b133e6b60af6a92e8fb2e4dc456e9" target="_top" xlink:title=" ">
<polygon fill="white" stroke="#666666" points="416,-19 302,-19 302,0 416,0 416,-19"/>
<text text-anchor="middle" x="359" y="-7" font-family="Ubuntu Mono" font-size="10.00">FuncTerm::setTarget</text>
</a>
</g>
</g>
<!-- Node2&#45;&gt;Node4 -->
<g id="edge3_Node000002_Node000004" class="edge">
<title>Node2&#45;&gt;Node4</title>
<g id="a_edge3_Node000002_Node000004"><a xlink:title=" ">
<path fill="none" stroke="#63b8ff" d="M265.22,-20.75C273.95,-19.69 283.04,-18.59 291.98,-17.5"/>
<polygon fill="#63b8ff" stroke="#63b8ff" points="292.46,-20.97 301.97,-16.29 291.62,-14.02 292.46,-20.97"/>
</a>
</g>
</g>
</g>
</svg>
</svg>

<style type='text/css'>
<![CDATA[
[data-mouse-over-selected='false'] { opacity: 0.7; }
[data-mouse-over-selected='true']  { opacity: 1.0; }
]]>
</style>
<script type="application/ecmascript"><![CDATA[
document.addEventListener('DOMContentLoaded', (event) => {
  highlightEdges();
  highlightAdjacentNodes();
});
]]></script>
</svg>
