<?xml version="1.0" encoding="UTF-8" standalone="no"?>
<!DOCTYPE svg PUBLIC "-//W3C//DTD SVG 1.1//EN"
 "http://www.w3.org/Graphics/SVG/1.1/DTD/svg11.dtd">
<!-- Generated by graphviz version 2.43.0 (0)
 -->
<!-- Title: SocketStreamer::removeTable Pages: 1 -->
<svg width="552pt" height="46pt"
 viewBox="0.00 0.00 552.00 46.00" xmlns="http://www.w3.org/2000/svg" xmlns:xlink="http://www.w3.org/1999/xlink">
<g id="graph0" class="graph" transform="scale(1 1) rotate(0) translate(4 42)">
<title>SocketStreamer::removeTable</title>
<!-- Node1 -->
<g id="Node000001" class="node">
<title>Node1</title>
<g id="a_Node000001"><a xlink:title="Remove a table from SocketStreamer.">
<polygon fill="#999999" stroke="#666666" points="544,-38 381,-38 381,-19 544,-19 544,-38"/>
<text text-anchor="middle" x="462.5" y="-26" font-family="Ubuntu Mono" font-size="10.00">SocketStreamer::removeTable</text>
</a>
</g>
</g>
<!-- Node2 -->
<g id="Node000002" class="node">
<title>Node2</title>
<g id="a_Node000002"><a xlink:href="classSocketStreamer.html#a8f6995482d6f639362e1508b37297404" target="_top" xlink:title=" ">
<polygon fill="white" stroke="#666666" points="141,-38 0,-38 0,-19 141,-19 141,-38"/>
<text text-anchor="middle" x="70.5" y="-26" font-family="Ubuntu Mono" font-size="10.00">SocketStreamer::initCinfo</text>
</a>
</g>
</g>
<!-- Node1&#45;&gt;Node2 -->
<g id="edge1_Node000001_Node000002" class="edge">
<title>Node1&#45;&gt;Node2</title>
<g id="a_edge1_Node000001_Node000002"><a xlink:title=" ">
<path fill="none" stroke="#63b8ff" d="M370.55,-28.5C300.51,-28.5 205.14,-28.5 141.11,-28.5"/>
<polygon fill="#63b8ff" stroke="#63b8ff" points="370.69,-32 380.69,-28.5 370.69,-25 370.69,-32"/>
</a>
</g>
</g>
<!-- Node3 -->
<g id="Node000003" class="node">
<title>Node3</title>
<g id="a_Node000003"><a xlink:href="classSocketStreamer.html#ab2f3a215d51818ca67175110feaad910" target="_top" xlink:title="Remove multiple tables – if found – from SocketStreamer.">
<polygon fill="white" stroke="#666666" points="345,-19 177,-19 177,0 345,0 345,-19"/>
<text text-anchor="middle" x="261" y="-7" font-family="Ubuntu Mono" font-size="10.00">SocketStreamer::removeTables</text>
</a>
</g>
</g>
<!-- Node1&#45;&gt;Node3 -->
<g id="edge2_Node000001_Node000003" class="edge">
<title>Node1&#45;&gt;Node3</title>
<g id="a_edge2_Node000001_Node000003"><a xlink:title=" ">
<path fill="none" stroke="#63b8ff" d="M370.91,-19.87C362.33,-19.06 353.66,-18.23 345.15,-17.42"/>
<polygon fill="#63b8ff" stroke="#63b8ff" points="370.64,-23.36 380.93,-20.83 371.31,-16.39 370.64,-23.36"/>
</a>
</g>
</g>
<!-- Node3&#45;&gt;Node2 -->
<g id="edge3_Node000003_Node000002" class="edge">
<title>Node3&#45;&gt;Node2</title>
<g id="a_edge3_Node000003_Node000002"><a xlink:title=" ">
<path fill="none" stroke="#63b8ff" d="M166.66,-18.91C158.03,-19.78 149.39,-20.65 141.03,-21.49"/>
<polygon fill="#63b8ff" stroke="#63b8ff" points="167.17,-22.37 176.77,-17.89 166.47,-15.41 167.17,-22.37"/>
</a>
</g>
</g>
</g>
</svg>
