<?xml version="1.0" encoding="UTF-8" standalone="no"?>
<!DOCTYPE svg PUBLIC "-//W3C//DTD SVG 1.1//EN"
 "http://www.w3.org/Graphics/SVG/1.1/DTD/svg11.dtd">
<!-- Generated by graphviz version 2.43.0 (0)
 -->
<!-- Title: CubeMesh::surface Pages: 1 -->
<svg width="428pt" height="161pt"
 viewBox="0.00 0.00 428.00 161.00" xmlns="http://www.w3.org/2000/svg" xmlns:xlink="http://www.w3.org/1999/xlink">

<svg id="main" version="1.1" xmlns="http://www.w3.org/2000/svg" xmlns:xlink="http://www.w3.org/1999/xlink" xml:space="preserve" onload="init(evt)">
<style type="text/css"><![CDATA[
.node, .edge {opacity: 0.7;}
.node.selected, .edge.selected {opacity: 1;}
.edge:hover path { stroke: red; }
.edge:hover polygon { stroke: red; fill: red; }
]]></style>
<script type="application/ecmascript" xlink:href="svg.min.js"/>
<svg id="graph" class="graph">
<g id="graph0" class="graph" transform="scale(1 1) rotate(0) translate(4 157)">
<title>CubeMesh::surface</title>
<!-- Node1 -->
<g id="Node000001" class="node">
<title>Node1</title>
<g id="a_Node000001"><a xlink:title="Utility and test function to read surface.">
<polygon fill="#999999" stroke="#666666" points="420,-86 310,-86 310,-67 420,-67 420,-86"/>
<text text-anchor="middle" x="365" y="-74" font-family="Ubuntu Mono" font-size="10.00">CubeMesh::surface</text>
</a>
</g>
</g>
<!-- Node2 -->
<g id="Node000002" class="node">
<title>Node2</title>
<g id="a_Node000002"><a xlink:href="testMesh_8cpp.html#af9142d95222e9406d3e8ee0ad327e4a9" target="_top" xlink:title=" ">
<polygon fill="white" stroke="#666666" points="274,-153 98,-153 98,-134 274,-134 274,-153"/>
<text text-anchor="middle" x="186" y="-141" font-family="Ubuntu Mono" font-size="10.00">testCubeMeshFillTwoDimSurface</text>
</a>
</g>
</g>
<!-- Node1&#45;&gt;Node2 -->
<g id="edge1_Node000001_Node000002" class="edge">
<title>Node1&#45;&gt;Node2</title>
<g id="a_edge1_Node000001_Node000002"><a xlink:title=" ">
<path fill="none" stroke="#63b8ff" d="M339.98,-91.66C322.32,-102.21 297.42,-115.89 274,-124.5 263.84,-128.24 252.74,-131.35 241.96,-133.9"/>
<polygon fill="#63b8ff" stroke="#63b8ff" points="342.28,-94.36 348.99,-86.17 338.63,-88.38 342.28,-94.36"/>
</a>
</g>
</g>
<!-- Node4 -->
<g id="Node000004" class="node">
<title>Node4</title>
<g id="a_Node000004"><a xlink:href="testMesh_8cpp.html#aa1be082304257fa19c2b78cc76269402" target="_top" xlink:title=" ">
<polygon fill="white" stroke="#666666" points="257.5,-115.5 114.5,-115.5 114.5,-85.5 257.5,-85.5 257.5,-115.5"/>
<text text-anchor="start" x="122.5" y="-103.5" font-family="Ubuntu Mono" font-size="10.00">testCubeMeshJunctionDiff</text>
<text text-anchor="middle" x="186" y="-92.5" font-family="Ubuntu Mono" font-size="10.00">SizeMesh</text>
</a>
</g>
</g>
<!-- Node1&#45;&gt;Node4 -->
<g id="edge3_Node000001_Node000004" class="edge">
<title>Node1&#45;&gt;Node4</title>
<g id="a_edge3_Node000001_Node000004"><a xlink:title=" ">
<path fill="none" stroke="#63b8ff" d="M299.69,-85.22C286.05,-87.07 271.57,-89.03 257.71,-90.91"/>
<polygon fill="#63b8ff" stroke="#63b8ff" points="300.49,-88.64 309.93,-83.83 299.55,-81.71 300.49,-88.64"/>
</a>
</g>
</g>
<!-- Node5 -->
<g id="Node000005" class="node">
<title>Node5</title>
<g id="a_Node000005"><a xlink:href="testMesh_8cpp.html#a36ab78666a2324434478067a6c5295f1" target="_top" xlink:title=" ">
<polygon fill="white" stroke="#666666" points="268,-67.5 104,-67.5 104,-37.5 268,-37.5 268,-67.5"/>
<text text-anchor="start" x="112" y="-55.5" font-family="Ubuntu Mono" font-size="10.00">testCubeMeshJunctionTwoDim</text>
<text text-anchor="middle" x="186" y="-44.5" font-family="Ubuntu Mono" font-size="10.00">Surface</text>
</a>
</g>
</g>
<!-- Node1&#45;&gt;Node5 -->
<g id="edge5_Node000001_Node000005" class="edge">
<title>Node1&#45;&gt;Node5</title>
<g id="a_edge5_Node000001_Node000005"><a xlink:title=" ">
<path fill="none" stroke="#63b8ff" d="M299.82,-67.8C289.52,-66.4 278.74,-64.94 268.11,-63.5"/>
<polygon fill="#63b8ff" stroke="#63b8ff" points="299.55,-71.29 309.93,-69.17 300.49,-64.36 299.55,-71.29"/>
</a>
</g>
</g>
<!-- Node6 -->
<g id="Node000006" class="node">
<title>Node6</title>
<g id="a_Node000006"><a xlink:href="testMesh_8cpp.html#aa028febf00de28513fba5fc9009fc555" target="_top" xlink:title=" ">
<polygon fill="white" stroke="#666666" points="274,-19 98,-19 98,0 274,0 274,-19"/>
<text text-anchor="middle" x="186" y="-7" font-family="Ubuntu Mono" font-size="10.00">testCubeMeshMultiJunctionTwoD</text>
</a>
</g>
</g>
<!-- Node1&#45;&gt;Node6 -->
<g id="edge7_Node000001_Node000006" class="edge">
<title>Node1&#45;&gt;Node6</title>
<g id="a_edge7_Node000001_Node000006"><a xlink:title=" ">
<path fill="none" stroke="#63b8ff" d="M339.98,-61.34C322.32,-50.79 297.42,-37.11 274,-28.5 263.84,-24.76 252.74,-21.65 241.96,-19.1"/>
<polygon fill="#63b8ff" stroke="#63b8ff" points="338.63,-64.62 348.99,-66.83 342.28,-58.64 338.63,-64.62"/>
</a>
</g>
</g>
<!-- Node3 -->
<g id="Node000003" class="node">
<title>Node3</title>
<g id="a_Node000003"><a xlink:href="testMesh_8cpp.html#a02dc1e0f9b4ca2aaf1c8ad1903d71165" target="_top" xlink:title=" ">
<polygon fill="white" stroke="#666666" points="62,-86 0,-86 0,-67 62,-67 62,-86"/>
<text text-anchor="middle" x="31" y="-74" font-family="Ubuntu Mono" font-size="10.00">testMesh</text>
</a>
</g>
</g>
<!-- Node2&#45;&gt;Node3 -->
<g id="edge2_Node000002_Node000003" class="edge">
<title>Node2&#45;&gt;Node3</title>
<g id="a_edge2_Node000002_Node000003"><a xlink:title=" ">
<path fill="none" stroke="#63b8ff" d="M115.77,-131.16C109.65,-129.24 103.65,-127.03 98,-124.5 76.28,-114.75 54.65,-97.13 42.34,-86.16"/>
<polygon fill="#63b8ff" stroke="#63b8ff" points="114.86,-134.54 125.44,-133.94 116.8,-127.81 114.86,-134.54"/>
</a>
</g>
</g>
<!-- Node4&#45;&gt;Node3 -->
<g id="edge4_Node000004_Node000003" class="edge">
<title>Node4&#45;&gt;Node3</title>
<g id="a_edge4_Node000004_Node000003"><a xlink:title=" ">
<path fill="none" stroke="#63b8ff" d="M104.43,-87.86C89.38,-85.5 74.54,-83.17 62.25,-81.24"/>
<polygon fill="#63b8ff" stroke="#63b8ff" points="103.9,-91.32 114.32,-89.41 104.99,-84.41 103.9,-91.32"/>
</a>
</g>
</g>
<!-- Node5&#45;&gt;Node3 -->
<g id="edge6_Node000005_Node000003" class="edge">
<title>Node5&#45;&gt;Node3</title>
<g id="a_edge6_Node000005_Node000003"><a xlink:title=" ">
<path fill="none" stroke="#63b8ff" d="M93.55,-66.85C82.24,-68.62 71.39,-70.32 62.03,-71.79"/>
<polygon fill="#63b8ff" stroke="#63b8ff" points="94.24,-70.28 103.57,-65.27 93.15,-63.37 94.24,-70.28"/>
</a>
</g>
</g>
<!-- Node6&#45;&gt;Node3 -->
<g id="edge8_Node000006_Node000003" class="edge">
<title>Node6&#45;&gt;Node3</title>
<g id="a_edge8_Node000006_Node000003"><a xlink:title=" ">
<path fill="none" stroke="#63b8ff" d="M115.77,-21.84C109.65,-23.76 103.65,-25.97 98,-28.5 76.28,-38.25 54.65,-55.87 42.34,-66.84"/>
<polygon fill="#63b8ff" stroke="#63b8ff" points="116.8,-25.19 125.44,-19.06 114.86,-18.46 116.8,-25.19"/>
</a>
</g>
</g>
</g>
</svg>
</svg>

<style type='text/css'>
<![CDATA[
[data-mouse-over-selected='false'] { opacity: 0.7; }
[data-mouse-over-selected='true']  { opacity: 1.0; }
]]>
</style>
<script type="application/ecmascript"><![CDATA[
document.addEventListener('DOMContentLoaded', (event) => {
  highlightEdges();
  highlightAdjacentNodes();
});
]]></script>
</svg>
