<?xml version="1.0" encoding="UTF-8" standalone="no"?>
<!DOCTYPE svg PUBLIC "-//W3C//DTD SVG 1.1//EN"
 "http://www.w3.org/Graphics/SVG/1.1/DTD/svg11.dtd">
<!-- Generated by graphviz version 2.43.0 (0)
 -->
<!-- Title: Table::~Table Pages: 1 -->
<svg width="990pt" height="230pt"
 viewBox="0.00 0.00 990.00 230.00" xmlns="http://www.w3.org/2000/svg" xmlns:xlink="http://www.w3.org/1999/xlink">
<g id="graph0" class="graph" transform="scale(1 1) rotate(0) translate(4 226)">
<title>Table::~Table</title>
<!-- Node1 -->
<g id="Node000001" class="node">
<title>Node1</title>
<g id="a_Node000001"><a xlink:title=" ">
<polygon fill="#999999" stroke="#666666" points="82,-185 0,-185 0,-166 82,-166 82,-185"/>
<text text-anchor="middle" x="41" y="-173" font-family="Ubuntu Mono" font-size="10.00">Table::~Table</text>
</a>
</g>
</g>
<!-- Node2 -->
<g id="Node000002" class="node">
<title>Node2</title>
<g id="a_Node000002"><a xlink:href="classTable.html#a7329dce7415115f145edda28fc9b8eec" target="_top" xlink:title=" ">
<polygon fill="white" stroke="#666666" points="252,-222 145,-222 145,-203 252,-203 252,-222"/>
<text text-anchor="middle" x="198.5" y="-210" font-family="Ubuntu Mono" font-size="10.00">Table::clearAllVecs</text>
</a>
</g>
</g>
<!-- Node1&#45;&gt;Node2 -->
<g id="edge1_Node000001_Node000002" class="edge">
<title>Node1&#45;&gt;Node2</title>
<g id="a_edge1_Node000001_Node000002"><a xlink:title=" ">
<path fill="none" stroke="#63b8ff" d="M79.46,-185.04C91.72,-188.12 105.43,-191.51 118,-194.5 126.6,-196.55 135.74,-198.67 144.64,-200.71"/>
<polygon fill="#63b8ff" stroke="#63b8ff" points="144.02,-204.15 154.55,-202.96 145.58,-197.33 144.02,-204.15"/>
</a>
</g>
</g>
<!-- Node4 -->
<g id="Node000004" class="node">
<title>Node4</title>
<g id="a_Node000004"><a xlink:href="classTable.html#add72832f99faac8775495eb090e785f2" target="_top" xlink:title="Take the vector from table and timestamp it. It must only be called when packing the data for writing...">
<polygon fill="white" stroke="#666666" points="262,-185 135,-185 135,-166 262,-166 262,-185"/>
<text text-anchor="middle" x="198.5" y="-173" font-family="Ubuntu Mono" font-size="10.00">Table::mergeWithTime</text>
</a>
</g>
</g>
<!-- Node1&#45;&gt;Node4 -->
<g id="edge3_Node000001_Node000004" class="edge">
<title>Node1&#45;&gt;Node4</title>
<g id="a_edge3_Node000001_Node000004"><a xlink:title=" ">
<path fill="none" stroke="#63b8ff" d="M82.05,-175.5C95.13,-175.5 110.1,-175.5 124.83,-175.5"/>
<polygon fill="#63b8ff" stroke="#63b8ff" points="124.95,-179 134.95,-175.5 124.95,-172 124.95,-179"/>
</a>
</g>
</g>
<!-- Node6 -->
<g id="Node000006" class="node">
<title>Node6</title>
<g id="a_Node000006"><a xlink:href="classStreamerBase.html#abf7df5b1b422e67f40f0c2b4c33d946a" target="_top" xlink:title="Write to a output file in given format.">
<polygon fill="white" stroke="#666666" points="279,-148 118,-148 118,-129 279,-129 279,-148"/>
<text text-anchor="middle" x="198.5" y="-136" font-family="Ubuntu Mono" font-size="10.00">StreamerBase::writeToOutFile</text>
</a>
</g>
</g>
<!-- Node1&#45;&gt;Node6 -->
<g id="edge5_Node000001_Node000006" class="edge">
<title>Node1&#45;&gt;Node6</title>
<g id="a_edge5_Node000001_Node000006"><a xlink:title=" ">
<path fill="none" stroke="#63b8ff" d="M82.05,-165.97C102.01,-161.22 126.35,-155.43 147.53,-150.39"/>
<polygon fill="#63b8ff" stroke="#63b8ff" points="148.4,-153.78 157.32,-148.06 146.78,-146.97 148.4,-153.78"/>
</a>
</g>
</g>
<!-- Node3 -->
<g id="Node000003" class="node">
<title>Node3</title>
<g id="a_Node000003"><a xlink:href="classTableBase.html#aa09e17d475b3eda3d9c568baaa93ec27" target="_top" xlink:title=" ">
<polygon fill="white" stroke="#666666" points="453.5,-222 340.5,-222 340.5,-203 453.5,-203 453.5,-222"/>
<text text-anchor="middle" x="397" y="-210" font-family="Ubuntu Mono" font-size="10.00">TableBase::clearVec</text>
</a>
</g>
</g>
<!-- Node2&#45;&gt;Node3 -->
<g id="edge2_Node000002_Node000003" class="edge">
<title>Node2&#45;&gt;Node3</title>
<g id="a_edge2_Node000002_Node000003"><a xlink:title=" ">
<path fill="none" stroke="#63b8ff" d="M252.16,-212.5C276.14,-212.5 304.77,-212.5 330.16,-212.5"/>
<polygon fill="#63b8ff" stroke="#63b8ff" points="330.45,-216 340.45,-212.5 330.45,-209 330.45,-216"/>
</a>
</g>
</g>
<!-- Node5 -->
<g id="Node000005" class="node">
<title>Node5</title>
<g id="a_Node000005"><a xlink:href="classTableBase.html#ac012d3d3c34dc3e6cfecf40b8a7f62fe" target="_top" xlink:title=" ">
<polygon fill="white" stroke="#666666" points="441.5,-185 352.5,-185 352.5,-166 441.5,-166 441.5,-185"/>
<text text-anchor="middle" x="397" y="-173" font-family="Ubuntu Mono" font-size="10.00">TableBase::vec</text>
</a>
</g>
</g>
<!-- Node4&#45;&gt;Node5 -->
<g id="edge4_Node000004_Node000005" class="edge">
<title>Node4&#45;&gt;Node5</title>
<g id="a_edge4_Node000004_Node000005"><a xlink:title=" ">
<path fill="none" stroke="#63b8ff" d="M262.21,-175.5C287.86,-175.5 317.25,-175.5 341.94,-175.5"/>
<polygon fill="#63b8ff" stroke="#63b8ff" points="342.2,-179 352.2,-175.5 342.2,-172 342.2,-179"/>
</a>
</g>
</g>
<!-- Node7 -->
<g id="Node000007" class="node">
<title>Node7</title>
<g id="a_Node000007"><a xlink:href="classStreamerBase.html#a96e077e9a458acb84d9fbec6fc88fdda" target="_top" xlink:title="Write data to csv file. See the documentation of writeToOutfile for details.">
<polygon fill="white" stroke="#666666" points="479,-148 315,-148 315,-129 479,-129 479,-148"/>
<text text-anchor="middle" x="397" y="-136" font-family="Ubuntu Mono" font-size="10.00">StreamerBase::writeToCSVFile</text>
</a>
</g>
</g>
<!-- Node6&#45;&gt;Node7 -->
<g id="edge6_Node000006_Node000007" class="edge">
<title>Node6&#45;&gt;Node7</title>
<g id="a_edge6_Node000006_Node000007"><a xlink:title=" ">
<path fill="none" stroke="#63b8ff" d="M279.14,-138.5C287.63,-138.5 296.31,-138.5 304.91,-138.5"/>
<polygon fill="#63b8ff" stroke="#63b8ff" points="304.97,-142 314.97,-138.5 304.97,-135 304.97,-142"/>
</a>
</g>
</g>
<!-- Node9 -->
<g id="Node000009" class="node">
<title>Node9</title>
<g id="a_Node000009"><a xlink:href="classStreamerBase.html#a67d4903235cdfb7624b6ff15b8edd8e4" target="_top" xlink:title="Write to NPY format. See the documentation of writeToOutfile for more details.">
<polygon fill="white" stroke="#666666" points="479,-111 315,-111 315,-92 479,-92 479,-111"/>
<text text-anchor="middle" x="397" y="-99" font-family="Ubuntu Mono" font-size="10.00">StreamerBase::writeToNPYFile</text>
</a>
</g>
</g>
<!-- Node6&#45;&gt;Node9 -->
<g id="edge8_Node000006_Node000009" class="edge">
<title>Node6&#45;&gt;Node9</title>
<g id="a_edge8_Node000006_Node000009"><a xlink:title=" ">
<path fill="none" stroke="#63b8ff" d="M250.1,-128.97C276.13,-124.07 308.05,-118.06 335.38,-112.91"/>
<polygon fill="#63b8ff" stroke="#63b8ff" points="336.05,-116.35 345.23,-111.06 334.75,-109.47 336.05,-116.35"/>
</a>
</g>
</g>
<!-- Node8 -->
<g id="Node000008" class="node">
<title>Node8</title>
<g id="a_Node000008"><a xlink:href="namespacemoose.html#a34bb86d97bed6458eb2a215e1c55270a" target="_top" xlink:title="Convert a given value to string.">
<polygon fill="white" stroke="#666666" points="623.5,-148 529.5,-148 529.5,-129 623.5,-129 623.5,-148"/>
<text text-anchor="middle" x="576.5" y="-136" font-family="Ubuntu Mono" font-size="10.00">moose::toString</text>
</a>
</g>
</g>
<!-- Node7&#45;&gt;Node8 -->
<g id="edge7_Node000007_Node000008" class="edge">
<title>Node7&#45;&gt;Node8</title>
<g id="a_edge7_Node000007_Node000008"><a xlink:title=" ">
<path fill="none" stroke="#63b8ff" d="M479.22,-138.5C492.63,-138.5 506.26,-138.5 518.9,-138.5"/>
<polygon fill="#63b8ff" stroke="#63b8ff" points="519.25,-142 529.25,-138.5 519.25,-135 519.25,-142"/>
</a>
</g>
</g>
<!-- Node10 -->
<g id="Node000010" class="node">
<title>Node10</title>
<g id="a_Node000010"><a xlink:href="namespacecnpy2.html#aac32c7fd663a3f968fc5b91160562675" target="_top" xlink:title=" ">
<polygon fill="white" stroke="#666666" points="638,-111 515,-111 515,-92 638,-92 638,-111"/>
<text text-anchor="middle" x="576.5" y="-99" font-family="Ubuntu Mono" font-size="10.00">cnpy2::appendNumpy</text>
</a>
</g>
</g>
<!-- Node9&#45;&gt;Node10 -->
<g id="edge9_Node000009_Node000010" class="edge">
<title>Node9&#45;&gt;Node10</title>
<g id="a_edge9_Node000009_Node000010"><a xlink:title=" ">
<path fill="none" stroke="#63b8ff" d="M479.22,-101.5C487.72,-101.5 496.31,-101.5 504.69,-101.5"/>
<polygon fill="#63b8ff" stroke="#63b8ff" points="504.77,-105 514.77,-101.5 504.77,-98 504.77,-105"/>
</a>
</g>
</g>
<!-- Node16 -->
<g id="Node000016" class="node">
<title>Node16</title>
<g id="a_Node000016"><a xlink:href="namespacecnpy2.html#a96817135fed81483ebd20e3e6696b514" target="_top" xlink:title=" ">
<polygon fill="white" stroke="#666666" points="632.5,-74 520.5,-74 520.5,-55 632.5,-55 632.5,-74"/>
<text text-anchor="middle" x="576.5" y="-62" font-family="Ubuntu Mono" font-size="10.00">cnpy2::writeNumpy</text>
</a>
</g>
</g>
<!-- Node9&#45;&gt;Node16 -->
<g id="edge15_Node000009_Node000016" class="edge">
<title>Node9&#45;&gt;Node16</title>
<g id="a_edge15_Node000009_Node000016"><a xlink:title=" ">
<path fill="none" stroke="#63b8ff" d="M443.71,-91.97C466.91,-87.14 495.29,-81.22 519.77,-76.12"/>
<polygon fill="#63b8ff" stroke="#63b8ff" points="520.56,-79.53 529.64,-74.06 519.13,-72.67 520.56,-79.53"/>
</a>
</g>
</g>
<!-- Node11 -->
<g id="Node000011" class="node">
<title>Node11</title>
<g id="a_Node000011"><a xlink:href="namespacecnpy2.html#a5286412a1368ae7bc74df4193a206331" target="_top" xlink:title="Change shape in numpy header.">
<polygon fill="white" stroke="#666666" points="826,-130 674,-130 674,-111 826,-111 826,-130"/>
<text text-anchor="middle" x="750" y="-118" font-family="Ubuntu Mono" font-size="10.00">cnpy2::changeHeaderShape</text>
</a>
</g>
</g>
<!-- Node10&#45;&gt;Node11 -->
<g id="edge10_Node000010_Node000011" class="edge">
<title>Node10&#45;&gt;Node11</title>
<g id="a_edge10_Node000010_Node000011"><a xlink:title=" ">
<path fill="none" stroke="#63b8ff" d="M638.45,-108.25C646.68,-109.16 655.25,-110.11 663.81,-111.06"/>
<polygon fill="#63b8ff" stroke="#63b8ff" points="663.51,-114.55 673.84,-112.17 664.28,-107.59 663.51,-114.55"/>
</a>
</g>
</g>
<!-- Node14 -->
<g id="Node000014" class="node">
<title>Node14</title>
<g id="a_Node000014"><a xlink:href="namespacemoose.html#aaa8177709dd15cbdaa6534a6a2aeb7eb" target="_top" xlink:title=" ">
<polygon fill="white" stroke="#666666" points="803,-93 697,-93 697,-74 803,-74 803,-93"/>
<text text-anchor="middle" x="750" y="-81" font-family="Ubuntu Mono" font-size="10.00">moose::showWarn</text>
</a>
</g>
</g>
<!-- Node10&#45;&gt;Node14 -->
<g id="edge13_Node000010_Node000014" class="edge">
<title>Node10&#45;&gt;Node14</title>
<g id="a_edge13_Node000010_Node000014"><a xlink:title=" ">
<path fill="none" stroke="#63b8ff" d="M638.45,-95.1C654.08,-93.46 670.93,-91.69 686.63,-90.05"/>
<polygon fill="#63b8ff" stroke="#63b8ff" points="687.19,-93.51 696.77,-88.98 686.46,-86.54 687.19,-93.51"/>
</a>
</g>
</g>
<!-- Node12 -->
<g id="Node000012" class="node">
<title>Node12</title>
<g id="a_Node000012"><a xlink:href="namespacecnpy2.html#a9ba4966983f75857a9914d4ed0faa330" target="_top" xlink:title="Parser header from a numpy file. Store it in vector.">
<polygon fill="white" stroke="#666666" points="974.5,-167 869.5,-167 869.5,-148 974.5,-148 974.5,-167"/>
<text text-anchor="middle" x="922" y="-155" font-family="Ubuntu Mono" font-size="10.00">cnpy2::findHeader</text>
</a>
</g>
</g>
<!-- Node11&#45;&gt;Node12 -->
<g id="edge11_Node000011_Node000012" class="edge">
<title>Node11&#45;&gt;Node12</title>
<g id="a_edge11_Node000011_Node000012"><a xlink:title=" ">
<path fill="none" stroke="#63b8ff" d="M794.78,-130.03C816.8,-134.82 843.7,-140.68 867,-145.75"/>
<polygon fill="#63b8ff" stroke="#63b8ff" points="866.56,-149.23 877.07,-147.94 868.05,-142.39 866.56,-149.23"/>
</a>
</g>
</g>
<!-- Node13 -->
<g id="Node000013" class="node">
<title>Node13</title>
<g id="a_Node000013"><a xlink:href="namespacecnpy2.html#a3df316e69c0fbbc0b09020dc2a47b441" target="_top" xlink:title=" ">
<polygon fill="white" stroke="#666666" points="958.5,-130 885.5,-130 885.5,-111 958.5,-111 958.5,-130"/>
<text text-anchor="middle" x="922" y="-118" font-family="Ubuntu Mono" font-size="10.00">cnpy2::split</text>
</a>
</g>
</g>
<!-- Node11&#45;&gt;Node13 -->
<g id="edge12_Node000011_Node000013" class="edge">
<title>Node11&#45;&gt;Node13</title>
<g id="a_edge12_Node000011_Node000013"><a xlink:title=" ">
<path fill="none" stroke="#63b8ff" d="M826.06,-120.5C842.83,-120.5 860.12,-120.5 875.27,-120.5"/>
<polygon fill="#63b8ff" stroke="#63b8ff" points="875.39,-124 885.39,-120.5 875.39,-117 875.39,-124"/>
</a>
</g>
</g>
<!-- Node15 -->
<g id="Node000015" class="node">
<title>Node15</title>
<g id="a_Node000015"><a xlink:href="namespacemoose.html#a294009be1efe8d8936f855e12caae79a" target="_top" xlink:title=" ">
<polygon fill="white" stroke="#666666" points="974,-93 870,-93 870,-74 974,-74 974,-93"/>
<text text-anchor="middle" x="922" y="-81" font-family="Ubuntu Mono" font-size="10.00">moose::__dump__</text>
</a>
</g>
</g>
<!-- Node14&#45;&gt;Node15 -->
<g id="edge14_Node000014_Node000015" class="edge">
<title>Node14&#45;&gt;Node15</title>
<g id="a_edge14_Node000014_Node000015"><a xlink:title=" ">
<path fill="none" stroke="#63b8ff" d="M803.39,-83.5C821.26,-83.5 841.38,-83.5 859.87,-83.5"/>
<polygon fill="#63b8ff" stroke="#63b8ff" points="859.95,-87 869.95,-83.5 859.95,-80 859.95,-87"/>
</a>
</g>
</g>
<!-- Node16&#45;&gt;Node14 -->
<g id="edge16_Node000016_Node000014" class="edge">
<title>Node16&#45;&gt;Node14</title>
<g id="a_edge16_Node000016_Node000014"><a xlink:title=" ">
<path fill="none" stroke="#63b8ff" d="M632.71,-70.62C649.9,-72.52 668.97,-74.63 686.61,-76.59"/>
<polygon fill="#63b8ff" stroke="#63b8ff" points="686.49,-80.1 696.81,-77.72 687.26,-73.14 686.49,-80.1"/>
</a>
</g>
</g>
<!-- Node17 -->
<g id="Node000017" class="node">
<title>Node17</title>
<g id="a_Node000017"><a xlink:href="namespacecnpy2.html#a7a1986336cb2c545270663a80c1ee682" target="_top" xlink:title=" ">
<polygon fill="white" stroke="#666666" points="806,-56 694,-56 694,-37 806,-37 806,-56"/>
<text text-anchor="middle" x="750" y="-44" font-family="Ubuntu Mono" font-size="10.00">cnpy2::writeHeader</text>
</a>
</g>
</g>
<!-- Node16&#45;&gt;Node17 -->
<g id="edge17_Node000016_Node000017" class="edge">
<title>Node16&#45;&gt;Node17</title>
<g id="a_edge17_Node000016_Node000017"><a xlink:title=" ">
<path fill="none" stroke="#63b8ff" d="M632.71,-58.71C648.93,-57 666.82,-55.13 683.61,-53.36"/>
<polygon fill="#63b8ff" stroke="#63b8ff" points="684.32,-56.81 693.9,-52.28 683.59,-49.85 684.32,-56.81"/>
</a>
</g>
</g>
<!-- Node18 -->
<g id="Node000018" class="node">
<title>Node18</title>
<g id="a_Node000018"><a xlink:href="namespacecnpy2.html#a4a02a1f1960c7ce923785e2ba78adc2e" target="_top" xlink:title=" ">
<polygon fill="white" stroke="#666666" points="982,-56 862,-56 862,-37 982,-37 982,-56"/>
<text text-anchor="middle" x="922" y="-44" font-family="Ubuntu Mono" font-size="10.00">cnpy2::BigEndianTest</text>
</a>
</g>
</g>
<!-- Node17&#45;&gt;Node18 -->
<g id="edge18_Node000017_Node000018" class="edge">
<title>Node17&#45;&gt;Node18</title>
<g id="a_edge18_Node000017_Node000018"><a xlink:title=" ">
<path fill="none" stroke="#63b8ff" d="M806.19,-46.5C820.69,-46.5 836.51,-46.5 851.64,-46.5"/>
<polygon fill="#63b8ff" stroke="#63b8ff" points="851.98,-50 861.98,-46.5 851.98,-43 851.98,-50"/>
</a>
</g>
</g>
<!-- Node19 -->
<g id="Node000019" class="node">
<title>Node19</title>
<g id="a_Node000019"><a xlink:href="namespacecnpy2.html#a643bbacbd8e11b87ba0251434b5805bf" target="_top" xlink:title=" ">
<polygon fill="white" stroke="#666666" points="982,-19 862,-19 862,0 982,0 982,-19"/>
<text text-anchor="middle" x="922" y="-7" font-family="Ubuntu Mono" font-size="10.00">cnpy2::shapeToString</text>
</a>
</g>
</g>
<!-- Node17&#45;&gt;Node19 -->
<g id="edge19_Node000017_Node000019" class="edge">
<title>Node17&#45;&gt;Node19</title>
<g id="a_edge19_Node000017_Node000019"><a xlink:title=" ">
<path fill="none" stroke="#63b8ff" d="M794.78,-36.97C816.8,-32.18 843.7,-26.32 867,-21.25"/>
<polygon fill="#63b8ff" stroke="#63b8ff" points="868.05,-24.61 877.07,-19.06 866.56,-17.77 868.05,-24.61"/>
</a>
</g>
</g>
</g>
</svg>
