<?xml version="1.0" encoding="UTF-8" standalone="no"?>
<!DOCTYPE svg PUBLIC "-//W3C//DTD SVG 1.1//EN"
 "http://www.w3.org/Graphics/SVG/1.1/DTD/svg11.dtd">
<!-- Generated by graphviz version 2.43.0 (0)
 -->
<!-- Title: SrcFinfo3::SrcFinfo3 Pages: 1 -->
<!--zoomable 92 -->

<svg id="main" version="1.1" xmlns="http://www.w3.org/2000/svg" xmlns:xlink="http://www.w3.org/1999/xlink" xml:space="preserve" onload="init(evt)">
<style type="text/css"><![CDATA[
.node, .edge {opacity: 0.7;}
.node.selected, .edge.selected {opacity: 1;}
.edge:hover path { stroke: red; }
.edge:hover polygon { stroke: red; fill: red; }
]]></style>

<defs>
  <circle id="rim" cx="0" cy="0" r="7"/>
  <circle id="rim2" cx="0" cy="0" r="3.5"/>
  <g id="zoomPlus">
    <use xlink:href="#rim" fill="#404040"><set attributeName="fill" to="#808080" begin="zoomplus.mouseover" end="zoomplus.mouseout"/></use>
    <path d="M-4,0h8M0,-4v8" fill="none" stroke="white" stroke-width="1.5" pointer-events="none"/>
  </g>
  <g id="zoomMin">
    <use xlink:href="#rim" fill="#404040"><set attributeName="fill" to="#808080" begin="zoomminus.mouseover" end="zoomminus.mouseout"/></use>
    <path d="M-4,0h8" fill="none" stroke="white" stroke-width="1.5" pointer-events="none"/>
  </g>
  <g id="arrowUp" transform="translate(30 24)">
    <use xlink:href="#rim"/>
    <path pointer-events="none" fill="none" stroke="white" stroke-width="1.5" d="M0,-3.0v7 M-2.5,-0.5L0,-3.0L2.5,-0.5"/>
  </g>
  <g id="arrowRight" transform="rotate(90) translate(36 -43)">
    <use xlink:href="#rim"/>
    <path pointer-events="none" fill="none" stroke="white" stroke-width="1.5" d="M0,-3.0v7 M-2.5,-0.5L0,-3.0L2.5,-0.5"/>
  </g>
  <g id="arrowDown" transform="rotate(180) translate(-30 -48)">
    <use xlink:href="#rim"/>
    <path pointer-events="none" fill="none" stroke="white" stroke-width="1.5" d="M0,-3.0v7 M-2.5,-0.5L0,-3.0L2.5,-0.5"/>
  </g>
  <g id="arrowLeft" transform="rotate(270) translate(-36 17)">
    <use xlink:href="#rim"/>
    <path pointer-events="none" fill="none" stroke="white" stroke-width="1.5" d="M0,-3.0v7 M-2.5,-0.5L0,-3.0L2.5,-0.5"/>
  </g>
  <g id="resetDef">
    <use xlink:href="#rim2" fill="#404040"><set attributeName="fill" to="#808080" begin="reset.mouseover" end="reset.mouseout"/></use>
  </g>
</defs>
<script type="application/ecmascript">
var viewWidth = 945;
var viewHeight = 92;
var sectionId = 'dynsection-2';
</script>
<script type="application/ecmascript" xlink:href="svg.min.js"/>
<svg id="graph" class="graph">
<g id="viewport">
<title>SrcFinfo3::SrcFinfo3</title>
<!-- Node1 -->
<g id="Node000001" class="node">
<title>Node1</title>
<g id="a_Node000001"><a xlink:title=" ">
<polygon fill="#999999" stroke="#666666" points="937,-64.93 824,-64.93 824,-45.93 937,-45.93 937,-64.93"/>
<text text-anchor="middle" x="880.5" y="-52.93" font-family="Ubuntu Mono" font-size="10.00">SrcFinfo3::SrcFinfo3</text>
</a>
</g>
</g>
<!-- Node2 -->
<g id="Node000002" class="node">
<title>Node2</title>
<g id="a_Node000002"><a xlink:href="NeuroMesh_8cpp.html#a7f9f4b4f4b66db02cafc1f0b8a606f82" target="_top" xlink:title=" ">
<polygon fill="white" stroke="#666666" points="783.5,-83.93 715.5,-83.93 715.5,-64.93 783.5,-64.93 783.5,-83.93"/>
<text text-anchor="middle" x="749.5" y="-71.93" font-family="Ubuntu Mono" font-size="10.00">psdListOut</text>
</a>
</g>
</g>
<!-- Node1&#45;&gt;Node2 -->
<g id="edge1_Node000001_Node000002" class="edge">
<title>Node1&#45;&gt;Node2</title>
<g id="a_edge1_Node000001_Node000002"><a xlink:title=" ">
<path fill="none" stroke="#63b8ff" d="M813.72,-65.12C803.31,-66.65 792.96,-68.18 783.73,-69.54"/>
<polygon fill="#63b8ff" stroke="#63b8ff" points="814.29,-68.57 823.67,-63.65 813.27,-61.65 814.29,-68.57"/>
</a>
</g>
</g>
<!-- Node7 -->
<g id="Node000007" class="node">
<title>Node7</title>
<g id="a_Node000007"><a xlink:href="NeuroMesh_8cpp.html#a369fa065f341737d7bb7c53d7d3d1768" target="_top" xlink:title=" ">
<polygon fill="white" stroke="#666666" points="788,-46.93 711,-46.93 711,-27.93 788,-27.93 788,-46.93"/>
<text text-anchor="middle" x="749.5" y="-34.93" font-family="Ubuntu Mono" font-size="10.00">spineListOut</text>
</a>
</g>
</g>
<!-- Node1&#45;&gt;Node7 -->
<g id="edge8_Node000001_Node000007" class="edge">
<title>Node1&#45;&gt;Node7</title>
<g id="a_edge8_Node000001_Node000007"><a xlink:title=" ">
<path fill="none" stroke="#63b8ff" d="M813.5,-46.22C804.82,-45.01 796.17,-43.8 788.19,-42.69"/>
<polygon fill="#63b8ff" stroke="#63b8ff" points="813.28,-49.72 823.67,-47.64 814.25,-42.79 813.28,-49.72"/>
</a>
</g>
</g>
<!-- Node3 -->
<g id="Node000003" class="node">
<title>Node3</title>
<g id="a_Node000003"><a xlink:href="classNeuroMesh.html#a131784a1f5af526113a98464ab4c4357" target="_top" xlink:title=" ">
<polygon fill="white" stroke="#666666" points="119,-65.93 0,-65.93 0,-46.93 119,-46.93 119,-65.93"/>
<text text-anchor="middle" x="59.5" y="-53.93" font-family="Ubuntu Mono" font-size="10.00">NeuroMesh::initCinfo</text>
</a>
</g>
</g>
<!-- Node2&#45;&gt;Node3 -->
<g id="edge2_Node000002_Node000003" class="edge">
<title>Node2&#45;&gt;Node3</title>
<g id="a_edge2_Node000002_Node000003"><a xlink:title=" ">
<path fill="none" stroke="#63b8ff" d="M705.14,-76.51C606.98,-80.69 360.27,-88.3 155,-70.43 142.69,-69.36 129.54,-67.73 117.09,-65.95"/>
<polygon fill="#63b8ff" stroke="#63b8ff" points="705.44,-80 715.27,-76.07 705.13,-73.01 705.44,-80"/>
</a>
</g>
</g>
<!-- Node4 -->
<g id="Node000004" class="node">
<title>Node4</title>
<g id="a_Node000004"><a xlink:href="classNeuroMesh.html#a0e774aa59d4aafb215c2723d2040830a" target="_top" xlink:title=" ">
<polygon fill="white" stroke="#666666" points="675,-65.93 510,-65.93 510,-46.93 675,-46.93 675,-65.93"/>
<text text-anchor="middle" x="592.5" y="-53.93" font-family="Ubuntu Mono" font-size="10.00">NeuroMesh::transmitSpineInfo</text>
</a>
</g>
</g>
<!-- Node2&#45;&gt;Node4 -->
<g id="edge3_Node000002_Node000004" class="edge">
<title>Node2&#45;&gt;Node4</title>
<g id="a_edge3_Node000002_Node000004"><a xlink:title=" ">
<path fill="none" stroke="#63b8ff" d="M705.04,-69.38C695.65,-68.29 685.43,-67.11 675.1,-65.91"/>
<polygon fill="#63b8ff" stroke="#63b8ff" points="704.91,-72.89 715.25,-70.57 705.72,-65.94 704.91,-72.89"/>
</a>
</g>
</g>
<!-- Node5 -->
<g id="Node000005" class="node">
<title>Node5</title>
<g id="a_Node000005"><a xlink:href="classNeuroMesh.html#a35e1c3ce3edeae2652b9d5ee2729f9df" target="_top" xlink:title=" ">
<polygon fill="white" stroke="#666666" points="474,-65.93 343,-65.93 343,-46.93 474,-46.93 474,-65.93"/>
<text text-anchor="middle" x="408.5" y="-53.93" font-family="Ubuntu Mono" font-size="10.00">NeuroMesh::setSubTree</text>
</a>
</g>
</g>
<!-- Node4&#45;&gt;Node5 -->
<g id="edge4_Node000004_Node000005" class="edge">
<title>Node4&#45;&gt;Node5</title>
<g id="a_edge4_Node000004_Node000005"><a xlink:title=" ">
<path fill="none" stroke="#63b8ff" d="M499.66,-56.43C490.99,-56.43 482.34,-56.43 474,-56.43"/>
<polygon fill="#63b8ff" stroke="#63b8ff" points="499.82,-59.93 509.82,-56.43 499.82,-52.93 499.82,-59.93"/>
</a>
</g>
</g>
<!-- Node5&#45;&gt;Node3 -->
<g id="edge5_Node000005_Node000003" class="edge">
<title>Node5&#45;&gt;Node3</title>
<g id="a_edge5_Node000005_Node000003"><a xlink:title=" ">
<path fill="none" stroke="#63b8ff" d="M332.62,-56.43C268.7,-56.43 178.05,-56.43 119.26,-56.43"/>
<polygon fill="#63b8ff" stroke="#63b8ff" points="332.64,-59.93 342.64,-56.43 332.64,-52.93 332.64,-59.93"/>
</a>
</g>
</g>
<!-- Node6 -->
<g id="Node000006" class="node">
<title>Node6</title>
<g id="a_Node000006"><a xlink:href="classNeuroMesh.html#a5544eb3267ffffc2ba356d50ec2a4633" target="_top" xlink:title=" ">
<polygon fill="white" stroke="#666666" points="307,-46.93 155,-46.93 155,-27.93 307,-27.93 307,-46.93"/>
<text text-anchor="middle" x="231" y="-34.93" font-family="Ubuntu Mono" font-size="10.00">NeuroMesh::setSubTreePath</text>
</a>
</g>
</g>
<!-- Node5&#45;&gt;Node6 -->
<g id="edge6_Node000005_Node000006" class="edge">
<title>Node5&#45;&gt;Node6</title>
<g id="a_edge6_Node000005_Node000006"><a xlink:title=" ">
<path fill="none" stroke="#63b8ff" d="M332.54,-48.31C324.16,-47.41 315.63,-46.48 307.26,-45.58"/>
<polygon fill="#63b8ff" stroke="#63b8ff" points="332.33,-51.81 342.65,-49.41 333.08,-44.85 332.33,-51.81"/>
</a>
</g>
</g>
<!-- Node6&#45;&gt;Node3 -->
<g id="edge7_Node000006_Node000003" class="edge">
<title>Node6&#45;&gt;Node3</title>
<g id="a_edge7_Node000006_Node000003"><a xlink:title=" ">
<path fill="none" stroke="#63b8ff" d="M144.56,-47.01C135.93,-47.98 127.31,-48.94 119.06,-49.87"/>
<polygon fill="#63b8ff" stroke="#63b8ff" points="145.12,-50.47 154.67,-45.87 144.34,-43.51 145.12,-50.47"/>
</a>
</g>
</g>
<!-- Node7&#45;&gt;Node3 -->
<g id="edge9_Node000007_Node000003" class="edge">
<title>Node7&#45;&gt;Node3</title>
<g id="a_edge9_Node000007_Node000003"><a xlink:title=" ">
<path fill="none" stroke="#63b8ff" d="M700.95,-28.84C599.52,-12.05 354.86,20.25 155,-18.43 127.05,-23.84 96.88,-37.48 78.33,-46.85"/>
<polygon fill="#63b8ff" stroke="#63b8ff" points="700.45,-32.3 710.89,-30.51 701.61,-25.4 700.45,-32.3"/>
</a>
</g>
</g>
<!-- Node7&#45;&gt;Node4 -->
<g id="edge10_Node000007_Node000004" class="edge">
<title>Node7&#45;&gt;Node4</title>
<g id="a_edge10_Node000007_Node000004"><a xlink:title=" ">
<path fill="none" stroke="#63b8ff" d="M701,-43.25C691.51,-44.42 681.31,-45.67 671.11,-46.92"/>
<polygon fill="#63b8ff" stroke="#63b8ff" points="701.48,-46.72 710.98,-42.03 700.63,-39.77 701.48,-46.72"/>
</a>
</g>
</g>
</g>
</svg>

<g id="navigator" transform="translate(0 0)" fill="#404254">
  <rect fill="#f2f5e9" fill-opacity="0.5" stroke="#606060" stroke-width=".5" x="0" y="0" width="60" height="60"/>
  <use id="zoomplus" xlink:href="#zoomPlus" x="17" y="9" onmousedown="handleZoom(evt,'in')"/>
  <use id="zoomminus" xlink:href="#zoomMin" x="42" y="9" onmousedown="handleZoom(evt,'out')"/>
  <use id="reset" xlink:href="#resetDef" x="30" y="36" onmousedown="handleReset()"/>
   <use id="arrowup" xlink:href="#arrowUp" x="0" y="0" onmousedown="handlePan(0,-1)"/>
  <use id="arrowright" xlink:href="#arrowRight" x="0" y="0" onmousedown="handlePan(1,0)"/>
  <use id="arrowdown" xlink:href="#arrowDown" x="0" y="0" onmousedown="handlePan(0,1)"/>
  <use id="arrowleft" xlink:href="#arrowLeft" x="0" y="0" onmousedown="handlePan(-1,0)"/>
</g>
<svg viewBox="0 0 15 15" width="100%" height="30px" preserveAspectRatio="xMaxYMin meet">
 <g id="arrow_out" transform="scale(0.3 0.3)">
  <a xlink:href="classSrcFinfo3_a442267dc803e0848586c6b9d26b93dae_icgraph_org.svg" target="_base">
   <rect id="button" ry="5" rx="5" y="6" x="6" height="38" width="38"
        fill="#f2f5e9" fill-opacity="0.5" stroke="#606060" stroke-width="1.0"/>
   <path id="arrow"
     d="M 11.500037,31.436501 C 11.940474,20.09759 22.043105,11.32322 32.158766,21.979434 L 37.068811,17.246167 C 37.068811,17.246167 37.088388,32 37.088388,32 L 22.160133,31.978069 C 22.160133,31.978069 26.997745,27.140456 26.997745,27.140456 C 18.528582,18.264221 13.291696,25.230495 11.500037,31.436501 z"
     style="fill:#404040;"/>
  </a>
 </g>
</svg>

<style type='text/css'>
<![CDATA[
[data-mouse-over-selected='false'] { opacity: 0.7; }
[data-mouse-over-selected='true']  { opacity: 1.0; }
]]>
</style>
<script type="application/ecmascript"><![CDATA[
document.addEventListener('DOMContentLoaded', (event) => {
  highlightEdges();
  highlightAdjacentNodes();
});
]]></script>
</svg>
