<?xml version="1.0" encoding="UTF-8" standalone="no"?>
<!DOCTYPE svg PUBLIC "-//W3C//DTD SVG 1.1//EN"
 "http://www.w3.org/Graphics/SVG/1.1/DTD/svg11.dtd">
<!-- Generated by graphviz version 2.43.0 (0)
 -->
<!-- Title: PsdMesh::matchCubeMeshEntries Pages: 1 -->
<!--zoomable 492 -->

<svg id="main" version="1.1" xmlns="http://www.w3.org/2000/svg" xmlns:xlink="http://www.w3.org/1999/xlink" xml:space="preserve" onload="init(evt)">
<style type="text/css"><![CDATA[
.node, .edge {opacity: 0.7;}
.node.selected, .edge.selected {opacity: 1;}
.edge:hover path { stroke: red; }
.edge:hover polygon { stroke: red; fill: red; }
]]></style>

<defs>
  <circle id="rim" cx="0" cy="0" r="7"/>
  <circle id="rim2" cx="0" cy="0" r="3.5"/>
  <g id="zoomPlus">
    <use xlink:href="#rim" fill="#404040"><set attributeName="fill" to="#808080" begin="zoomplus.mouseover" end="zoomplus.mouseout"/></use>
    <path d="M-4,0h8M0,-4v8" fill="none" stroke="white" stroke-width="1.5" pointer-events="none"/>
  </g>
  <g id="zoomMin">
    <use xlink:href="#rim" fill="#404040"><set attributeName="fill" to="#808080" begin="zoomminus.mouseover" end="zoomminus.mouseout"/></use>
    <path d="M-4,0h8" fill="none" stroke="white" stroke-width="1.5" pointer-events="none"/>
  </g>
  <g id="arrowUp" transform="translate(30 24)">
    <use xlink:href="#rim"/>
    <path pointer-events="none" fill="none" stroke="white" stroke-width="1.5" d="M0,-3.0v7 M-2.5,-0.5L0,-3.0L2.5,-0.5"/>
  </g>
  <g id="arrowRight" transform="rotate(90) translate(36 -43)">
    <use xlink:href="#rim"/>
    <path pointer-events="none" fill="none" stroke="white" stroke-width="1.5" d="M0,-3.0v7 M-2.5,-0.5L0,-3.0L2.5,-0.5"/>
  </g>
  <g id="arrowDown" transform="rotate(180) translate(-30 -48)">
    <use xlink:href="#rim"/>
    <path pointer-events="none" fill="none" stroke="white" stroke-width="1.5" d="M0,-3.0v7 M-2.5,-0.5L0,-3.0L2.5,-0.5"/>
  </g>
  <g id="arrowLeft" transform="rotate(270) translate(-36 17)">
    <use xlink:href="#rim"/>
    <path pointer-events="none" fill="none" stroke="white" stroke-width="1.5" d="M0,-3.0v7 M-2.5,-0.5L0,-3.0L2.5,-0.5"/>
  </g>
  <g id="resetDef">
    <use xlink:href="#rim2" fill="#404040"><set attributeName="fill" to="#808080" begin="reset.mouseover" end="reset.mouseout"/></use>
  </g>
</defs>
<script type="application/ecmascript">
var viewWidth = 921;
var viewHeight = 492;
var sectionId = 'dynsection-20';
</script>
<script type="application/ecmascript" xlink:href="svg.min.js"/>
<svg id="graph" class="graph">
<g id="viewport">
<title>PsdMesh::matchCubeMeshEntries</title>
<!-- Node1 -->
<g id="Node000001" class="node">
<title>Node1</title>
<g id="a_Node000001"><a xlink:title=" ">
<polygon fill="#999999" stroke="#666666" points="182,-320 0,-320 0,-301 182,-301 182,-320"/>
<text text-anchor="middle" x="91" y="-308" font-family="Ubuntu Mono" font-size="10.00">PsdMesh::matchCubeMeshEntries</text>
</a>
</g>
</g>
<!-- Node2 -->
<g id="Node000002" class="node">
<title>Node2</title>
<g id="a_Node000002"><a xlink:href="classCylBase.html#afb7f14b8bb133072656c780053b36de8" target="_top" xlink:title=" ">
<polygon fill="white" stroke="#666666" points="396,-320 218,-320 218,-301 396,-301 396,-320"/>
<text text-anchor="middle" x="307" y="-308" font-family="Ubuntu Mono" font-size="10.00">CylBase::matchCubeMeshEntries</text>
</a>
</g>
</g>
<!-- Node1&#45;&gt;Node2 -->
<g id="edge1_Node000001_Node000002" class="edge">
<title>Node1&#45;&gt;Node2</title>
<g id="a_edge1_Node000001_Node000002"><a xlink:title=" ">
<path fill="none" stroke="#63b8ff" d="M182.14,-310.5C190.5,-310.5 199.01,-310.5 207.44,-310.5"/>
<polygon fill="#63b8ff" stroke="#63b8ff" points="207.68,-314 217.68,-310.5 207.68,-307 207.68,-314"/>
</a>
</g>
</g>
<!-- Node3 -->
<g id="Node000003" class="node">
<title>Node3</title>
<g id="a_Node000003"><a xlink:href="classVec.html#a226019f1225faafaec3dc235724a418d" target="_top" xlink:title=" ">
<polygon fill="white" stroke="#666666" points="741,-470 689,-470 689,-451 741,-451 741,-470"/>
<text text-anchor="middle" x="715" y="-458" font-family="Ubuntu Mono" font-size="10.00">Vec::a0</text>
</a>
</g>
</g>
<!-- Node2&#45;&gt;Node3 -->
<g id="edge2_Node000002_Node000003" class="edge">
<title>Node2&#45;&gt;Node3</title>
<g id="a_edge2_Node000002_Node000003"><a xlink:title=" ">
<path fill="none" stroke="#63b8ff" d="M312.38,-320.29C325.58,-348.41 368.06,-429.39 432,-459.5 513.35,-497.81 623.12,-481.67 678.66,-469.48"/>
<polygon fill="#63b8ff" stroke="#63b8ff" points="679.73,-472.83 688.7,-467.19 678.18,-466 679.73,-472.83"/>
</a>
</g>
</g>
<!-- Node4 -->
<g id="Node000004" class="node">
<title>Node4</title>
<g id="a_Node000004"><a xlink:href="classVec.html#a702d1ea183ea05e153f22e4631b57e3f" target="_top" xlink:title=" ">
<polygon fill="white" stroke="#666666" points="741,-433 689,-433 689,-414 741,-414 741,-433"/>
<text text-anchor="middle" x="715" y="-421" font-family="Ubuntu Mono" font-size="10.00">Vec::a1</text>
</a>
</g>
</g>
<!-- Node2&#45;&gt;Node4 -->
<g id="edge3_Node000002_Node000004" class="edge">
<title>Node2&#45;&gt;Node4</title>
<g id="a_edge3_Node000002_Node000004"><a xlink:title=" ">
<path fill="none" stroke="#63b8ff" d="M313.32,-320.32C328.06,-346.3 372.27,-416.66 432,-442.5 475.39,-461.27 613.23,-441.02 678.75,-429.86"/>
<polygon fill="#63b8ff" stroke="#63b8ff" points="679.36,-433.3 688.62,-428.15 678.17,-426.4 679.36,-433.3"/>
</a>
</g>
</g>
<!-- Node5 -->
<g id="Node000005" class="node">
<title>Node5</title>
<g id="a_Node000005"><a xlink:href="classVec.html#a445c0d24660fdd56d4dc4179518c4d80" target="_top" xlink:title=" ">
<polygon fill="white" stroke="#666666" points="741,-359 689,-359 689,-340 741,-340 741,-359"/>
<text text-anchor="middle" x="715" y="-347" font-family="Ubuntu Mono" font-size="10.00">Vec::a2</text>
</a>
</g>
</g>
<!-- Node2&#45;&gt;Node5 -->
<g id="edge4_Node000002_Node000005" class="edge">
<title>Node2&#45;&gt;Node5</title>
<g id="a_edge4_Node000002_Node000005"><a xlink:title=" ">
<path fill="none" stroke="#63b8ff" d="M363.74,-320.03C385.04,-323.41 409.6,-326.99 432,-329.5 520.48,-339.4 625.17,-345.31 678.66,-347.92"/>
<polygon fill="#63b8ff" stroke="#63b8ff" points="678.5,-351.41 688.66,-348.39 678.84,-344.42 678.5,-351.41"/>
</a>
</g>
</g>
<!-- Node6 -->
<g id="Node000006" class="node">
<title>Node6</title>
<g id="a_Node000006"><a xlink:href="CylBase_8cpp.html#a74c250ecc70974c51768b7462e57d882" target="_top" xlink:title=" ">
<polygon fill="white" stroke="#666666" points="560,-396 460,-396 460,-377 560,-377 560,-396"/>
<text text-anchor="middle" x="510" y="-384" font-family="Ubuntu Mono" font-size="10.00">fillPointsOnCircle</text>
</a>
</g>
</g>
<!-- Node2&#45;&gt;Node6 -->
<g id="edge5_Node000002_Node000006" class="edge">
<title>Node2&#45;&gt;Node6</title>
<g id="a_edge5_Node000002_Node000006"><a xlink:title=" ">
<path fill="none" stroke="#63b8ff" d="M329.26,-320.14C353.76,-331.09 395.37,-349.15 432,-362.5 442.99,-366.51 455,-370.45 466.21,-373.95"/>
<polygon fill="#63b8ff" stroke="#63b8ff" points="465.21,-377.31 475.8,-376.9 467.27,-370.62 465.21,-377.31"/>
</a>
</g>
</g>
<!-- Node8 -->
<g id="Node000008" class="node">
<title>Node8</title>
<g id="a_Node000008"><a xlink:href="CylBase_8cpp.html#a10862ef029afd6b8e4b4bf112b2633ec" target="_top" xlink:title=" ">
<polygon fill="white" stroke="#666666" points="556.5,-433 463.5,-433 463.5,-414 556.5,-414 556.5,-433"/>
<text text-anchor="middle" x="510" y="-421" font-family="Ubuntu Mono" font-size="10.00">fillPointsOnDisc</text>
</a>
</g>
</g>
<!-- Node2&#45;&gt;Node8 -->
<g id="edge10_Node000002_Node000008" class="edge">
<title>Node2&#45;&gt;Node8</title>
<g id="a_edge10_Node000002_Node000008"><a xlink:title=" ">
<path fill="none" stroke="#63b8ff" d="M317.62,-320.26C337.27,-339.61 384.19,-382.89 432,-405.5 438.66,-408.65 445.9,-411.27 453.2,-413.44"/>
<polygon fill="#63b8ff" stroke="#63b8ff" points="452.56,-416.89 463.13,-416.13 454.4,-410.14 452.56,-416.89"/>
</a>
</g>
</g>
<!-- Node9 -->
<g id="Node000009" class="node">
<title>Node9</title>
<g id="a_Node000009"><a xlink:href="classCubeMesh.html#abcd3c5f9090c3c9a5c042d70722e9728" target="_top" xlink:title=" ">
<polygon fill="white" stroke="#666666" points="561.5,-320 458.5,-320 458.5,-301 561.5,-301 561.5,-320"/>
<text text-anchor="middle" x="510" y="-308" font-family="Ubuntu Mono" font-size="10.00">CubeMesh::getDx</text>
</a>
</g>
</g>
<!-- Node2&#45;&gt;Node9 -->
<g id="edge15_Node000002_Node000009" class="edge">
<title>Node2&#45;&gt;Node9</title>
<g id="a_edge15_Node000002_Node000009"><a xlink:title=" ">
<path fill="none" stroke="#63b8ff" d="M396.16,-310.5C413.81,-310.5 431.97,-310.5 448.42,-310.5"/>
<polygon fill="#63b8ff" stroke="#63b8ff" points="448.43,-314 458.43,-310.5 448.43,-307 448.43,-314"/>
</a>
</g>
</g>
<!-- Node10 -->
<g id="Node000010" class="node">
<title>Node10</title>
<g id="a_Node000010"><a xlink:href="classChemCompt.html#adc7adf60b1bb45b961e444556941ac8a" target="_top" xlink:title=" ">
<polygon fill="white" stroke="#666666" points="588,-283 432,-283 432,-264 588,-264 588,-283"/>
<text text-anchor="middle" x="510" y="-271" font-family="Ubuntu Mono" font-size="10.00">ChemCompt::getNumEntries</text>
</a>
</g>
</g>
<!-- Node2&#45;&gt;Node10 -->
<g id="edge16_Node000002_Node000010" class="edge">
<title>Node2&#45;&gt;Node10</title>
<g id="a_edge16_Node000002_Node000010"><a xlink:title=" ">
<path fill="none" stroke="#63b8ff" d="M359.76,-300.97C386.39,-296.07 419.03,-290.06 446.99,-284.91"/>
<polygon fill="#63b8ff" stroke="#63b8ff" points="447.86,-288.31 457.06,-283.06 446.6,-281.43 447.86,-288.31"/>
</a>
</g>
</g>
<!-- Node12 -->
<g id="Node000012" class="node">
<title>Node12</title>
<g id="a_Node000012"><a xlink:href="classVec.html#a8fc75e9d530bb96ef7d39688c7928479" target="_top" xlink:title="Generates vectors u and v to form a mutually orthogonal system.">
<polygon fill="white" stroke="#666666" points="568,-169 452,-169 452,-150 568,-150 568,-169"/>
<text text-anchor="middle" x="510" y="-157" font-family="Ubuntu Mono" font-size="10.00">Vec::orthogonalAxes</text>
</a>
</g>
</g>
<!-- Node2&#45;&gt;Node12 -->
<g id="edge18_Node000002_Node000012" class="edge">
<title>Node2&#45;&gt;Node12</title>
<g id="a_edge18_Node000002_Node000012"><a xlink:title=" ">
<path fill="none" stroke="#63b8ff" d="M320.88,-300.82C354.77,-275.36 446.69,-206.31 488.18,-175.14"/>
<polygon fill="#63b8ff" stroke="#63b8ff" points="490.34,-177.9 496.23,-169.09 486.13,-172.3 490.34,-177.9"/>
</a>
</g>
</g>
<!-- Node14 -->
<g id="Node000014" class="node">
<title>Node14</title>
<g id="a_Node000014"><a xlink:href="classVec.html#ae9852b7e40650f19652ffb59cd664442" target="_top" xlink:title=" ">
<polygon fill="white" stroke="#666666" points="906,-207 849,-207 849,-188 906,-188 906,-207"/>
<text text-anchor="middle" x="877.5" y="-195" font-family="Ubuntu Mono" font-size="10.00">Vec::Vec</text>
</a>
</g>
</g>
<!-- Node2&#45;&gt;Node14 -->
<g id="edge28_Node000002_Node000014" class="edge">
<title>Node2&#45;&gt;Node14</title>
<g id="a_edge28_Node000002_Node000014"><a xlink:title=" ">
<path fill="none" stroke="#63b8ff" d="M325.47,-300.81C348.94,-288.25 392.32,-266.64 432,-255.5 578.7,-214.33 761.01,-202.21 838.65,-198.78"/>
<polygon fill="#63b8ff" stroke="#63b8ff" points="839.05,-202.27 848.89,-198.36 838.76,-195.28 839.05,-202.27"/>
</a>
</g>
</g>
<!-- Node19 -->
<g id="Node000019" class="node">
<title>Node19</title>
<g id="a_Node000019"><a xlink:href="classCylBase.html#a536135d45b2b4abe8fb64a633b83a358" target="_top" xlink:title=" ">
<polygon fill="white" stroke="#666666" points="576,-132 444,-132 444,-113 576,-113 576,-132"/>
<text text-anchor="middle" x="510" y="-120" font-family="Ubuntu Mono" font-size="10.00">CylBase::selectGridSize</text>
</a>
</g>
</g>
<!-- Node2&#45;&gt;Node19 -->
<g id="edge27_Node000002_Node000019" class="edge">
<title>Node2&#45;&gt;Node19</title>
<g id="a_edge27_Node000002_Node000019"><a xlink:title=" ">
<path fill="none" stroke="#63b8ff" d="M312.23,-300.63C325.33,-271.32 368.19,-184.21 432,-141.5 435.1,-139.42 438.41,-137.58 441.84,-135.93"/>
<polygon fill="#63b8ff" stroke="#63b8ff" points="443.3,-139.11 451.18,-132.02 440.6,-132.65 443.3,-139.11"/>
</a>
</g>
</g>
<!-- Node20 -->
<g id="Node000020" class="node">
<title>Node20</title>
<g id="a_Node000020"><a xlink:href="classVoxelJunction.html#aee2e9d56c68e5cbd462d805a3ceeabe9" target="_top" xlink:title=" ">
<polygon fill="white" stroke="#666666" points="586.5,-95 433.5,-95 433.5,-76 586.5,-76 586.5,-95"/>
<text text-anchor="middle" x="510" y="-83" font-family="Ubuntu Mono" font-size="10.00">VoxelJunction::VoxelJunction</text>
</a>
</g>
</g>
<!-- Node2&#45;&gt;Node20 -->
<g id="edge29_Node000002_Node000020" class="edge">
<title>Node2&#45;&gt;Node20</title>
<g id="a_edge29_Node000002_Node000020"><a xlink:title=" ">
<path fill="none" stroke="#63b8ff" d="M310.82,-300.9C321.05,-267.88 359.43,-158.02 432,-104.5 434.52,-102.64 437.21,-100.96 440,-99.44"/>
<polygon fill="#63b8ff" stroke="#63b8ff" points="441.66,-102.53 449.25,-95.13 438.71,-96.19 441.66,-102.53"/>
</a>
</g>
</g>
<!-- Node6&#45;&gt;Node3 -->
<g id="edge6_Node000006_Node000003" class="edge">
<title>Node6&#45;&gt;Node3</title>
<g id="a_edge6_Node000006_Node000003"><a xlink:title=" ">
<path fill="none" stroke="#63b8ff" d="M560.23,-394.31C569.82,-397.01 579.52,-400.64 588,-405.5 607.91,-416.91 603.85,-431.54 624,-442.5 640.69,-451.58 661.36,-456.11 678.68,-458.35"/>
<polygon fill="#63b8ff" stroke="#63b8ff" points="678.65,-461.87 688.97,-459.48 679.41,-454.91 678.65,-461.87"/>
</a>
</g>
</g>
<!-- Node6&#45;&gt;Node4 -->
<g id="edge7_Node000006_Node000004" class="edge">
<title>Node6&#45;&gt;Node4</title>
<g id="a_edge7_Node000006_Node000004"><a xlink:title=" ">
<path fill="none" stroke="#63b8ff" d="M560.14,-395.46C596.78,-402.13 645.94,-411.1 678.74,-417.07"/>
<polygon fill="#63b8ff" stroke="#63b8ff" points="678.31,-420.55 688.77,-418.9 679.56,-413.67 678.31,-420.55"/>
</a>
</g>
</g>
<!-- Node6&#45;&gt;Node5 -->
<g id="edge8_Node000006_Node000005" class="edge">
<title>Node6&#45;&gt;Node5</title>
<g id="a_edge8_Node000006_Node000005"><a xlink:title=" ">
<path fill="none" stroke="#63b8ff" d="M560.14,-377.54C596.78,-370.87 645.94,-361.9 678.74,-355.93"/>
<polygon fill="#63b8ff" stroke="#63b8ff" points="679.56,-359.33 688.77,-354.1 678.31,-352.45 679.56,-359.33"/>
</a>
</g>
</g>
<!-- Node7 -->
<g id="Node000007" class="node">
<title>Node7</title>
<g id="a_Node000007"><a xlink:href="classCubeMesh.html#aa9ebdbca1b7a24f2b7ecc792334e6a16" target="_top" xlink:title="Converts the 3&#45;D coords to an index. EMPTY if out of range.">
<polygon fill="white" stroke="#666666" points="785,-396 645,-396 645,-377 785,-377 785,-396"/>
<text text-anchor="middle" x="715" y="-384" font-family="Ubuntu Mono" font-size="10.00">CubeMesh::spaceToIndex</text>
</a>
</g>
</g>
<!-- Node6&#45;&gt;Node7 -->
<g id="edge9_Node000006_Node000007" class="edge">
<title>Node6&#45;&gt;Node7</title>
<g id="a_edge9_Node000006_Node000007"><a xlink:title=" ">
<path fill="none" stroke="#63b8ff" d="M560.14,-386.5C582.52,-386.5 609.58,-386.5 634.72,-386.5"/>
<polygon fill="#63b8ff" stroke="#63b8ff" points="634.99,-390 644.99,-386.5 634.99,-383 634.99,-390"/>
</a>
</g>
</g>
<!-- Node8&#45;&gt;Node3 -->
<g id="edge11_Node000008_Node000003" class="edge">
<title>Node8&#45;&gt;Node3</title>
<g id="a_edge11_Node000008_Node000003"><a xlink:title=" ">
<path fill="none" stroke="#63b8ff" d="M556.56,-431.8C593.64,-438.56 645.2,-447.96 679.07,-454.13"/>
<polygon fill="#63b8ff" stroke="#63b8ff" points="678.51,-457.59 688.98,-455.94 679.77,-450.7 678.51,-457.59"/>
</a>
</g>
</g>
<!-- Node8&#45;&gt;Node4 -->
<g id="edge12_Node000008_Node000004" class="edge">
<title>Node8&#45;&gt;Node4</title>
<g id="a_edge12_Node000008_Node000004"><a xlink:title=" ">
<path fill="none" stroke="#63b8ff" d="M556.56,-423.5C593.48,-423.5 644.75,-423.5 678.63,-423.5"/>
<polygon fill="#63b8ff" stroke="#63b8ff" points="678.98,-427 688.98,-423.5 678.98,-420 678.98,-427"/>
</a>
</g>
</g>
<!-- Node8&#45;&gt;Node5 -->
<g id="edge13_Node000008_Node000005" class="edge">
<title>Node8&#45;&gt;Node5</title>
<g id="a_edge13_Node000008_Node000005"><a xlink:title=" ">
<path fill="none" stroke="#63b8ff" d="M556.58,-417.34C567.33,-414.69 578.44,-410.9 588,-405.5 607.97,-394.21 603.9,-379.57 624,-368.5 640.68,-359.31 661.35,-354.56 678.67,-352.11"/>
<polygon fill="#63b8ff" stroke="#63b8ff" points="679.45,-355.54 688.96,-350.86 678.61,-348.59 679.45,-355.54"/>
</a>
</g>
</g>
<!-- Node8&#45;&gt;Node7 -->
<g id="edge14_Node000008_Node000007" class="edge">
<title>Node8&#45;&gt;Node7</title>
<g id="a_edge14_Node000008_Node000007"><a xlink:title=" ">
<path fill="none" stroke="#63b8ff" d="M556.56,-415.2C584.6,-410.09 620.92,-403.46 651.62,-397.87"/>
<polygon fill="#63b8ff" stroke="#63b8ff" points="652.58,-401.25 661.79,-396.02 651.32,-394.37 652.58,-401.25"/>
</a>
</g>
</g>
<!-- Node11 -->
<g id="Node000011" class="node">
<title>Node11</title>
<g id="a_Node000011"><a xlink:href="classChemCompt.html#a470081742eabd0580f158c1b165549f7" target="_top" xlink:title=" ">
<polygon fill="white" stroke="#666666" points="806,-283 624,-283 624,-264 806,-264 806,-283"/>
<text text-anchor="middle" x="715" y="-271" font-family="Ubuntu Mono" font-size="10.00">ChemCompt::innerGetNumEntries</text>
</a>
</g>
</g>
<!-- Node10&#45;&gt;Node11 -->
<g id="edge17_Node000010_Node000011" class="edge">
<title>Node10&#45;&gt;Node11</title>
<g id="a_edge17_Node000010_Node000011"><a xlink:title=" ">
<path fill="none" stroke="#63b8ff" d="M588.04,-273.5C596.42,-273.5 605.04,-273.5 613.65,-273.5"/>
<polygon fill="#63b8ff" stroke="#63b8ff" points="613.74,-277 623.74,-273.5 613.74,-270 613.74,-277"/>
</a>
</g>
</g>
<!-- Node13 -->
<g id="Node000013" class="node">
<title>Node13</title>
<g id="a_Node000013"><a xlink:href="classVec.html#a2d2ce63e0a72df8122436bc4f5e23eae" target="_top" xlink:title=" ">
<polygon fill="white" stroke="#666666" points="766,-169 664,-169 664,-150 766,-150 766,-169"/>
<text text-anchor="middle" x="715" y="-157" font-family="Ubuntu Mono" font-size="10.00">Vec::crossProduct</text>
</a>
</g>
</g>
<!-- Node12&#45;&gt;Node13 -->
<g id="edge19_Node000012_Node000013" class="edge">
<title>Node12&#45;&gt;Node13</title>
<g id="a_edge19_Node000012_Node000013"><a xlink:title=" ">
<path fill="none" stroke="#63b8ff" d="M568.09,-159.5C594.81,-159.5 626.65,-159.5 653.76,-159.5"/>
<polygon fill="#63b8ff" stroke="#63b8ff" points="653.9,-163 663.9,-159.5 653.9,-156 653.9,-163"/>
</a>
</g>
</g>
<!-- Node12&#45;&gt;Node14 -->
<g id="edge26_Node000012_Node000014" class="edge">
<title>Node12&#45;&gt;Node14</title>
<g id="a_edge26_Node000012_Node000014"><a xlink:title=" ">
<path fill="none" stroke="#63b8ff" d="M561.48,-169C580.96,-172.4 603.46,-176.01 624,-178.5 699.83,-187.71 789.04,-193.17 838.54,-195.73"/>
<polygon fill="#63b8ff" stroke="#63b8ff" points="838.61,-199.24 848.77,-196.24 838.96,-192.24 838.61,-199.24"/>
</a>
</g>
</g>
<!-- Node15 -->
<g id="Node000015" class="node">
<title>Node15</title>
<g id="a_Node000015"><a xlink:href="doubleEq_8cpp.html#a31471cf6c91778aa12bcdb8b13477699" target="_top" xlink:title=" ">
<polygon fill="white" stroke="#666666" points="757,-132 673,-132 673,-113 757,-113 757,-132"/>
<text text-anchor="middle" x="715" y="-120" font-family="Ubuntu Mono" font-size="10.00">doubleApprox</text>
</a>
</g>
</g>
<!-- Node12&#45;&gt;Node15 -->
<g id="edge21_Node000012_Node000015" class="edge">
<title>Node12&#45;&gt;Node15</title>
<g id="a_edge21_Node000012_Node000015"><a xlink:title=" ">
<path fill="none" stroke="#63b8ff" d="M563.28,-149.97C593.89,-144.39 632.37,-137.38 662.79,-131.83"/>
<polygon fill="#63b8ff" stroke="#63b8ff" points="663.57,-135.25 672.78,-130.01 662.31,-128.36 663.57,-135.25"/>
</a>
</g>
</g>
<!-- Node16 -->
<g id="Node000016" class="node">
<title>Node16</title>
<g id="a_Node000016"><a xlink:href="doubleEq_8cpp.html#accfeefca4825a69921a3916e4f7538b7" target="_top" xlink:title=" ">
<polygon fill="white" stroke="#666666" points="746,-95 684,-95 684,-76 746,-76 746,-95"/>
<text text-anchor="middle" x="715" y="-83" font-family="Ubuntu Mono" font-size="10.00">doubleEq</text>
</a>
</g>
</g>
<!-- Node12&#45;&gt;Node16 -->
<g id="edge22_Node000012_Node000016" class="edge">
<title>Node12&#45;&gt;Node16</title>
<g id="a_edge22_Node000012_Node000016"><a xlink:title=" ">
<path fill="none" stroke="#63b8ff" d="M568.32,-149.99C575.18,-147.73 581.9,-144.94 588,-141.5 607.97,-130.21 603.9,-115.57 624,-104.5 639.03,-96.22 657.3,-91.54 673.44,-88.9"/>
<polygon fill="#63b8ff" stroke="#63b8ff" points="674.28,-92.32 683.69,-87.45 673.29,-85.39 674.28,-92.32"/>
</a>
</g>
</g>
<!-- Node17 -->
<g id="Node000017" class="node">
<title>Node17</title>
<g id="a_Node000017"><a xlink:href="classVec.html#a8ca1500a4af59994b8c7014a3916e817" target="_top" xlink:title=" ">
<polygon fill="white" stroke="#666666" points="913,-38 842,-38 842,-19 913,-19 913,-38"/>
<text text-anchor="middle" x="877.5" y="-26" font-family="Ubuntu Mono" font-size="10.00">Vec::length</text>
</a>
</g>
</g>
<!-- Node12&#45;&gt;Node17 -->
<g id="edge23_Node000012_Node000017" class="edge">
<title>Node12&#45;&gt;Node17</title>
<g id="a_edge23_Node000012_Node000017"><a xlink:title=" ">
<path fill="none" stroke="#63b8ff" d="M568.35,-152.21C575.43,-149.6 582.21,-146.13 588,-141.5 616.58,-118.68 594.57,-89.21 624,-67.5 656.12,-43.8 767.88,-34.15 831.42,-30.51"/>
<polygon fill="#63b8ff" stroke="#63b8ff" points="831.77,-33.99 841.57,-29.95 831.39,-27 831.77,-33.99"/>
</a>
</g>
</g>
<!-- Node18 -->
<g id="Node000018" class="node">
<title>Node18</title>
<g id="a_Node000018"><a xlink:href="classVec.html#a1c4a0acef36cdf6f4d5a8d19857da781" target="_top" xlink:title="Rescales vector so it has unit length.">
<polygon fill="white" stroke="#666666" points="761,-19 669,-19 669,0 761,0 761,-19"/>
<text text-anchor="middle" x="715" y="-7" font-family="Ubuntu Mono" font-size="10.00">Vec::unitLength</text>
</a>
</g>
</g>
<!-- Node12&#45;&gt;Node18 -->
<g id="edge24_Node000012_Node000018" class="edge">
<title>Node12&#45;&gt;Node18</title>
<g id="a_edge24_Node000012_Node000018"><a xlink:title=" ">
<path fill="none" stroke="#63b8ff" d="M568.16,-153.19C575.44,-150.46 582.32,-146.68 588,-141.5 625.39,-107.41 587.15,-68.17 624,-33.5 633.67,-24.41 646.39,-18.68 659.21,-15.09"/>
<polygon fill="#63b8ff" stroke="#63b8ff" points="660.08,-18.48 668.98,-12.74 658.44,-11.67 660.08,-18.48"/>
</a>
</g>
</g>
<!-- Node13&#45;&gt;Node14 -->
<g id="edge20_Node000013_Node000014" class="edge">
<title>Node13&#45;&gt;Node14</title>
<g id="a_edge20_Node000013_Node000014"><a xlink:title=" ">
<path fill="none" stroke="#63b8ff" d="M756.5,-169.09C781.8,-175.08 814.16,-182.74 838.89,-188.6"/>
<polygon fill="#63b8ff" stroke="#63b8ff" points="838.11,-192.01 848.65,-190.91 839.72,-185.2 838.11,-192.01"/>
</a>
</g>
</g>
<!-- Node18&#45;&gt;Node17 -->
<g id="edge25_Node000018_Node000017" class="edge">
<title>Node18&#45;&gt;Node17</title>
<g id="a_edge25_Node000018_Node000017"><a xlink:title=" ">
<path fill="none" stroke="#63b8ff" d="M761.14,-14.84C783.23,-17.46 809.74,-20.6 831.78,-23.21"/>
<polygon fill="#63b8ff" stroke="#63b8ff" points="831.53,-26.7 841.87,-24.4 832.36,-19.75 831.53,-26.7"/>
</a>
</g>
</g>
</g>
</svg>

<g id="navigator" transform="translate(0 0)" fill="#404254">
  <rect fill="#f2f5e9" fill-opacity="0.5" stroke="#606060" stroke-width=".5" x="0" y="0" width="60" height="60"/>
  <use id="zoomplus" xlink:href="#zoomPlus" x="17" y="9" onmousedown="handleZoom(evt,'in')"/>
  <use id="zoomminus" xlink:href="#zoomMin" x="42" y="9" onmousedown="handleZoom(evt,'out')"/>
  <use id="reset" xlink:href="#resetDef" x="30" y="36" onmousedown="handleReset()"/>
   <use id="arrowup" xlink:href="#arrowUp" x="0" y="0" onmousedown="handlePan(0,-1)"/>
  <use id="arrowright" xlink:href="#arrowRight" x="0" y="0" onmousedown="handlePan(1,0)"/>
  <use id="arrowdown" xlink:href="#arrowDown" x="0" y="0" onmousedown="handlePan(0,1)"/>
  <use id="arrowleft" xlink:href="#arrowLeft" x="0" y="0" onmousedown="handlePan(-1,0)"/>
</g>
<svg viewBox="0 0 15 15" width="100%" height="30px" preserveAspectRatio="xMaxYMin meet">
 <g id="arrow_out" transform="scale(0.3 0.3)">
  <a xlink:href="classPsdMesh_aa8e9d9838c04dcb37e9b870c7b6ae85a_cgraph_org.svg" target="_base">
   <rect id="button" ry="5" rx="5" y="6" x="6" height="38" width="38"
        fill="#f2f5e9" fill-opacity="0.5" stroke="#606060" stroke-width="1.0"/>
   <path id="arrow"
     d="M 11.500037,31.436501 C 11.940474,20.09759 22.043105,11.32322 32.158766,21.979434 L 37.068811,17.246167 C 37.068811,17.246167 37.088388,32 37.088388,32 L 22.160133,31.978069 C 22.160133,31.978069 26.997745,27.140456 26.997745,27.140456 C 18.528582,18.264221 13.291696,25.230495 11.500037,31.436501 z"
     style="fill:#404040;"/>
  </a>
 </g>
</svg>

<style type='text/css'>
<![CDATA[
[data-mouse-over-selected='false'] { opacity: 0.7; }
[data-mouse-over-selected='true']  { opacity: 1.0; }
]]>
</style>
<script type="application/ecmascript"><![CDATA[
document.addEventListener('DOMContentLoaded', (event) => {
  highlightEdges();
  highlightAdjacentNodes();
});
]]></script>
</svg>
