<?xml version="1.0" encoding="UTF-8" standalone="no"?>
<!DOCTYPE svg PUBLIC "-//W3C//DTD SVG 1.1//EN"
 "http://www.w3.org/Graphics/SVG/1.1/DTD/svg11.dtd">
<!-- Generated by graphviz version 2.43.0 (0)
 -->
<!-- Title: OneToOneDataIndexMsg::findOtherEnd Pages: 1 -->
<svg width="491pt" height="175pt"
 viewBox="0.00 0.00 491.00 175.00" xmlns="http://www.w3.org/2000/svg" xmlns:xlink="http://www.w3.org/1999/xlink">

<svg id="main" version="1.1" xmlns="http://www.w3.org/2000/svg" xmlns:xlink="http://www.w3.org/1999/xlink" xml:space="preserve" onload="init(evt)">
<style type="text/css"><![CDATA[
.node, .edge {opacity: 0.7;}
.node.selected, .edge.selected {opacity: 1;}
.edge:hover path { stroke: red; }
.edge:hover polygon { stroke: red; fill: red; }
]]></style>
<script type="application/ecmascript" xlink:href="svg.min.js"/>
<svg id="graph" class="graph">
<g id="graph0" class="graph" transform="scale(1 1) rotate(0) translate(4 171)">
<title>OneToOneDataIndexMsg::findOtherEnd</title>
<!-- Node1 -->
<g id="Node000001" class="node">
<title>Node1</title>
<g id="a_Node000001"><a xlink:title=" ">
<polygon fill="#999999" stroke="#666666" points="137,-98.5 0,-98.5 0,-68.5 137,-68.5 137,-98.5"/>
<text text-anchor="start" x="8" y="-86.5" font-family="Ubuntu Mono" font-size="10.00">OneToOneDataIndexMsg</text>
<text text-anchor="middle" x="68.5" y="-75.5" font-family="Ubuntu Mono" font-size="10.00">::findOtherEnd</text>
</a>
</g>
</g>
<!-- Node2 -->
<g id="Node000002" class="node">
<title>Node2</title>
<g id="a_Node000002"><a xlink:href="classMsg.html#a5be9f4dd643f5f662e8fb3c029273390" target="_top" xlink:title=" ">
<polygon fill="white" stroke="#666666" points="245,-167 190,-167 190,-148 245,-148 245,-167"/>
<text text-anchor="middle" x="217.5" y="-155" font-family="Ubuntu Mono" font-size="10.00">Msg::e1</text>
</a>
</g>
</g>
<!-- Node1&#45;&gt;Node2 -->
<g id="edge1_Node000001_Node000002" class="edge">
<title>Node1&#45;&gt;Node2</title>
<g id="a_edge1_Node000001_Node000002"><a xlink:title=" ">
<path fill="none" stroke="#63b8ff" d="M95.49,-98.53C116.19,-110.27 146.07,-126.68 173,-139.5 176.12,-140.98 179.4,-142.47 182.69,-143.92"/>
<polygon fill="#63b8ff" stroke="#63b8ff" points="181.35,-147.15 191.92,-147.85 184.09,-140.71 181.35,-147.15"/>
</a>
</g>
</g>
<!-- Node3 -->
<g id="Node000003" class="node">
<title>Node3</title>
<g id="a_Node000003"><a xlink:href="classMsg.html#a893ed6b44cd4c529f0f10af38ae6743a" target="_top" xlink:title=" ">
<polygon fill="white" stroke="#666666" points="245,-130 190,-130 190,-111 245,-111 245,-130"/>
<text text-anchor="middle" x="217.5" y="-118" font-family="Ubuntu Mono" font-size="10.00">Msg::e2</text>
</a>
</g>
</g>
<!-- Node1&#45;&gt;Node3 -->
<g id="edge2_Node000001_Node000003" class="edge">
<title>Node1&#45;&gt;Node3</title>
<g id="a_edge2_Node000001_Node000003"><a xlink:title=" ">
<path fill="none" stroke="#63b8ff" d="M129.29,-98.55C146.34,-102.84 164.41,-107.39 179.65,-111.23"/>
<polygon fill="#63b8ff" stroke="#63b8ff" points="179.16,-114.71 189.71,-113.76 180.87,-107.92 179.16,-114.71"/>
</a>
</g>
</g>
<!-- Node4 -->
<g id="Node000004" class="node">
<title>Node4</title>
<g id="a_Node000004"><a xlink:href="classObjId.html#ad87d6d712e4bceb381d1d324aa137d6e" target="_top" xlink:title=" ">
<polygon fill="white" stroke="#666666" points="262,-93 173,-93 173,-74 262,-74 262,-93"/>
<text text-anchor="middle" x="217.5" y="-81" font-family="Ubuntu Mono" font-size="10.00">ObjId::element</text>
</a>
</g>
</g>
<!-- Node1&#45;&gt;Node4 -->
<g id="edge3_Node000001_Node000004" class="edge">
<title>Node1&#45;&gt;Node4</title>
<g id="a_edge3_Node000001_Node000004"><a xlink:title=" ">
<path fill="none" stroke="#63b8ff" d="M137.41,-83.5C145.87,-83.5 154.43,-83.5 162.64,-83.5"/>
<polygon fill="#63b8ff" stroke="#63b8ff" points="162.82,-87 172.82,-83.5 162.82,-80 162.82,-87"/>
</a>
</g>
</g>
<!-- Node7 -->
<g id="Node000007" class="node">
<title>Node7</title>
<g id="a_Node000007"><a xlink:href="classElement.html#a934907c01faf58e21f545d53a54cfefc" target="_top" xlink:title=" ">
<polygon fill="white" stroke="#666666" points="253.5,-56 181.5,-56 181.5,-37 253.5,-37 253.5,-56"/>
<text text-anchor="middle" x="217.5" y="-44" font-family="Ubuntu Mono" font-size="10.00">Element::id</text>
</a>
</g>
</g>
<!-- Node1&#45;&gt;Node7 -->
<g id="edge6_Node000001_Node000007" class="edge">
<title>Node1&#45;&gt;Node7</title>
<g id="a_edge6_Node000001_Node000007"><a xlink:title=" ">
<path fill="none" stroke="#63b8ff" d="M129.29,-68.45C143.35,-64.91 158.11,-61.2 171.4,-57.85"/>
<polygon fill="#63b8ff" stroke="#63b8ff" points="172.4,-61.21 181.24,-55.37 170.69,-54.42 172.4,-61.21"/>
</a>
</g>
</g>
<!-- Node8 -->
<g id="Node000008" class="node">
<title>Node8</title>
<g id="a_Node000008"><a xlink:href="classObjId.html#ab6b120d314aab5abc3ea8bb7ead5ae41" target="_top" xlink:title=" ">
<polygon fill="white" stroke="#666666" points="254.5,-19 180.5,-19 180.5,0 254.5,0 254.5,-19"/>
<text text-anchor="middle" x="217.5" y="-7" font-family="Ubuntu Mono" font-size="10.00">ObjId::ObjId</text>
</a>
</g>
</g>
<!-- Node1&#45;&gt;Node8 -->
<g id="edge7_Node000001_Node000008" class="edge">
<title>Node1&#45;&gt;Node8</title>
<g id="a_edge7_Node000001_Node000008"><a xlink:title=" ">
<path fill="none" stroke="#63b8ff" d="M96.45,-68.45C117.17,-57.06 146.62,-41.25 173,-28.5 176.65,-26.74 180.51,-24.95 184.35,-23.21"/>
<polygon fill="#63b8ff" stroke="#63b8ff" points="186.05,-26.29 193.77,-19.04 183.21,-19.89 186.05,-26.29"/>
</a>
</g>
</g>
<!-- Node5 -->
<g id="Node000005" class="node">
<title>Node5</title>
<g id="a_Node000005"><a xlink:href="classId.html#a574e06330597163aef0ea4c99de7ff4a" target="_top" xlink:title="Synonym for Id::operator()()">
<polygon fill="white" stroke="#666666" points="370,-93 298,-93 298,-74 370,-74 370,-93"/>
<text text-anchor="middle" x="334" y="-81" font-family="Ubuntu Mono" font-size="10.00">Id::element</text>
</a>
</g>
</g>
<!-- Node4&#45;&gt;Node5 -->
<g id="edge4_Node000004_Node000005" class="edge">
<title>Node4&#45;&gt;Node5</title>
<g id="a_edge4_Node000004_Node000005"><a xlink:title=" ">
<path fill="none" stroke="#63b8ff" d="M262.11,-83.5C270.47,-83.5 279.24,-83.5 287.65,-83.5"/>
<polygon fill="#63b8ff" stroke="#63b8ff" points="287.68,-87 297.68,-83.5 287.68,-80 287.68,-87"/>
</a>
</g>
</g>
<!-- Node6 -->
<g id="Node000006" class="node">
<title>Node6</title>
<g id="a_Node000006"><a xlink:href="classId.html#a2d5e7b4d5d918aadfe45102691c2be27" target="_top" xlink:title=" ">
<polygon fill="white" stroke="#666666" points="483,-93 406,-93 406,-74 483,-74 483,-93"/>
<text text-anchor="middle" x="444.5" y="-81" font-family="Ubuntu Mono" font-size="10.00">Id::elements</text>
</a>
</g>
</g>
<!-- Node5&#45;&gt;Node6 -->
<g id="edge5_Node000005_Node000006" class="edge">
<title>Node5&#45;&gt;Node6</title>
<g id="a_edge5_Node000005_Node000006"><a xlink:title=" ">
<path fill="none" stroke="#63b8ff" d="M370.23,-83.5C378.32,-83.5 387.06,-83.5 395.59,-83.5"/>
<polygon fill="#63b8ff" stroke="#63b8ff" points="395.83,-87 405.83,-83.5 395.83,-80 395.83,-87"/>
</a>
</g>
</g>
</g>
</svg>
</svg>

<style type='text/css'>
<![CDATA[
[data-mouse-over-selected='false'] { opacity: 0.7; }
[data-mouse-over-selected='true']  { opacity: 1.0; }
]]>
</style>
<script type="application/ecmascript"><![CDATA[
document.addEventListener('DOMContentLoaded', (event) => {
  highlightEdges();
  highlightAdjacentNodes();
});
]]></script>
</svg>
