<?xml version="1.0" encoding="UTF-8" standalone="no"?>
<!DOCTYPE svg PUBLIC "-//W3C//DTD SVG 1.1//EN"
 "http://www.w3.org/Graphics/SVG/1.1/DTD/svg11.dtd">
<!-- Generated by graphviz version 2.43.0 (0)
 -->
<!-- Title: Gsolve::advance_chunk Pages: 1 -->
<!--zoomable 339 -->

<svg id="main" version="1.1" xmlns="http://www.w3.org/2000/svg" xmlns:xlink="http://www.w3.org/1999/xlink" xml:space="preserve" onload="init(evt)">
<style type="text/css"><![CDATA[
.node, .edge {opacity: 0.7;}
.node.selected, .edge.selected {opacity: 1;}
.edge:hover path { stroke: red; }
.edge:hover polygon { stroke: red; fill: red; }
]]></style>

<defs>
  <circle id="rim" cx="0" cy="0" r="7"/>
  <circle id="rim2" cx="0" cy="0" r="3.5"/>
  <g id="zoomPlus">
    <use xlink:href="#rim" fill="#404040"><set attributeName="fill" to="#808080" begin="zoomplus.mouseover" end="zoomplus.mouseout"/></use>
    <path d="M-4,0h8M0,-4v8" fill="none" stroke="white" stroke-width="1.5" pointer-events="none"/>
  </g>
  <g id="zoomMin">
    <use xlink:href="#rim" fill="#404040"><set attributeName="fill" to="#808080" begin="zoomminus.mouseover" end="zoomminus.mouseout"/></use>
    <path d="M-4,0h8" fill="none" stroke="white" stroke-width="1.5" pointer-events="none"/>
  </g>
  <g id="arrowUp" transform="translate(30 24)">
    <use xlink:href="#rim"/>
    <path pointer-events="none" fill="none" stroke="white" stroke-width="1.5" d="M0,-3.0v7 M-2.5,-0.5L0,-3.0L2.5,-0.5"/>
  </g>
  <g id="arrowRight" transform="rotate(90) translate(36 -43)">
    <use xlink:href="#rim"/>
    <path pointer-events="none" fill="none" stroke="white" stroke-width="1.5" d="M0,-3.0v7 M-2.5,-0.5L0,-3.0L2.5,-0.5"/>
  </g>
  <g id="arrowDown" transform="rotate(180) translate(-30 -48)">
    <use xlink:href="#rim"/>
    <path pointer-events="none" fill="none" stroke="white" stroke-width="1.5" d="M0,-3.0v7 M-2.5,-0.5L0,-3.0L2.5,-0.5"/>
  </g>
  <g id="arrowLeft" transform="rotate(270) translate(-36 17)">
    <use xlink:href="#rim"/>
    <path pointer-events="none" fill="none" stroke="white" stroke-width="1.5" d="M0,-3.0v7 M-2.5,-0.5L0,-3.0L2.5,-0.5"/>
  </g>
  <g id="resetDef">
    <use xlink:href="#rim2" fill="#404040"><set attributeName="fill" to="#808080" begin="reset.mouseover" end="reset.mouseout"/></use>
  </g>
</defs>
<script type="application/ecmascript">
var viewWidth = 1285;
var viewHeight = 339;
var sectionId = 'dynsection-3';
</script>
<script type="application/ecmascript" xlink:href="svg.min.js"/>
<svg id="graph" class="graph">
<g id="viewport">
<title>Gsolve::advance_chunk</title>
<!-- Node1 -->
<g id="Node000001" class="node">
<title>Node1</title>
<g id="a_Node000001"><a xlink:title=" ">
<polygon fill="#999999" stroke="#666666" points="132,-176 0,-176 0,-157 132,-157 132,-176"/>
<text text-anchor="middle" x="66" y="-164" font-family="Ubuntu Mono" font-size="10.00">Gsolve::advance_chunk</text>
</a>
</g>
</g>
<!-- Node2 -->
<g id="Node000002" class="node">
<title>Node2</title>
<g id="a_Node000002"><a xlink:href="classGssaVoxelPools.html#a74bee940e747819eafbdb179df6833e9" target="_top" xlink:title=" ">
<polygon fill="white" stroke="#666666" points="308,-176 168,-176 168,-157 308,-157 308,-176"/>
<text text-anchor="middle" x="238" y="-164" font-family="Ubuntu Mono" font-size="10.00">GssaVoxelPools::advance</text>
</a>
</g>
</g>
<!-- Node1&#45;&gt;Node2 -->
<g id="edge1_Node000001_Node000002" class="edge">
<title>Node1&#45;&gt;Node2</title>
<g id="a_edge1_Node000001_Node000002"><a xlink:title=" ">
<path fill="none" stroke="#63b8ff" d="M132.24,-166.5C140.65,-166.5 149.34,-166.5 157.94,-166.5"/>
<polygon fill="#63b8ff" stroke="#63b8ff" points="157.98,-170 167.98,-166.5 157.98,-163 157.98,-170"/>
</a>
</g>
</g>
<!-- Node3 -->
<g id="Node000003" class="node">
<title>Node3</title>
<g id="a_Node000003"><a xlink:href="classKinSparseMatrix.html#a497304dc594faad57c85d78bf9173ff7" target="_top" xlink:title=" ">
<polygon fill="white" stroke="#666666" points="508.5,-331 365.5,-331 365.5,-312 508.5,-312 508.5,-331"/>
<text text-anchor="middle" x="437" y="-319" font-family="Ubuntu Mono" font-size="10.00">KinSparseMatrix::fireReac</text>
</a>
</g>
</g>
<!-- Node2&#45;&gt;Node3 -->
<g id="edge2_Node000002_Node000003" class="edge">
<title>Node2&#45;&gt;Node3</title>
<g id="a_edge2_Node000002_Node000003"><a xlink:title=" ">
<path fill="none" stroke="#63b8ff" d="M243.27,-176.04C255.17,-201.41 291.28,-270.81 344,-303.5 347.66,-305.77 351.54,-307.76 355.56,-309.51"/>
<polygon fill="#63b8ff" stroke="#63b8ff" points="354.57,-312.87 365.16,-313.16 357.06,-306.33 354.57,-312.87"/>
</a>
</g>
</g>
<!-- Node4 -->
<g id="Node000004" class="node">
<title>Node4</title>
<g id="a_Node000004"><a xlink:href="classStoich.html#a39d1868cebe3c20837e974cbb1d336de" target="_top" xlink:title=" ">
<polygon fill="white" stroke="#666666" points="496.5,-294 377.5,-294 377.5,-275 496.5,-275 496.5,-294"/>
<text text-anchor="middle" x="437" y="-282" font-family="Ubuntu Mono" font-size="10.00">Stoich::getNumRates</text>
</a>
</g>
</g>
<!-- Node2&#45;&gt;Node4 -->
<g id="edge3_Node000002_Node000004" class="edge">
<title>Node2&#45;&gt;Node4</title>
<g id="a_edge3_Node000002_Node000004"><a xlink:title=" ">
<path fill="none" stroke="#63b8ff" d="M245.91,-176.05C261.13,-196.31 299.72,-243.61 344,-266.5 351.38,-270.31 359.47,-273.32 367.7,-275.7"/>
<polygon fill="#63b8ff" stroke="#63b8ff" points="366.83,-279.09 377.39,-278.2 368.58,-272.31 366.83,-279.09"/>
</a>
</g>
</g>
<!-- Node5 -->
<g id="Node000005" class="node">
<title>Node5</title>
<g id="a_Node000005"><a xlink:href="classGssaVoxelPools.html#a3a687ddce118faade0a1e7cd569d824c" target="_top" xlink:title=" ">
<polygon fill="white" stroke="#666666" points="508.5,-257 365.5,-257 365.5,-238 508.5,-238 508.5,-257"/>
<text text-anchor="middle" x="437" y="-245" font-family="Ubuntu Mono" font-size="10.00">GssaVoxelPools::pickReac</text>
</a>
</g>
</g>
<!-- Node2&#45;&gt;Node5 -->
<g id="edge4_Node000002_Node000005" class="edge">
<title>Node2&#45;&gt;Node5</title>
<g id="a_edge4_Node000002_Node000005"><a xlink:title=" ">
<path fill="none" stroke="#63b8ff" d="M253.74,-176C273.57,-188.42 310.24,-210.16 344,-223.5 355.63,-228.09 368.43,-232.07 380.69,-235.39"/>
<polygon fill="#63b8ff" stroke="#63b8ff" points="379.82,-238.78 390.38,-237.92 381.59,-232.01 379.82,-238.78"/>
</a>
</g>
</g>
<!-- Node6 -->
<g id="Node000006" class="node">
<title>Node6</title>
<g id="a_Node000006"><a xlink:href="classmoose_1_1RNG.html#a6fec47558673d4d721a6918bb43b3fd3" target="_top" xlink:title="Return a uniformly distributed random number between 0 and 1 (exclusive).">
<polygon fill="white" stroke="#666666" points="716,-253 594,-253 594,-234 716,-234 716,-253"/>
<text text-anchor="middle" x="655" y="-241" font-family="Ubuntu Mono" font-size="10.00">moose::RNG::uniform</text>
</a>
</g>
</g>
<!-- Node2&#45;&gt;Node6 -->
<g id="edge19_Node000002_Node000006" class="edge">
<title>Node2&#45;&gt;Node6</title>
<g id="a_edge19_Node000002_Node000006"><a xlink:title=" ">
<path fill="none" stroke="#63b8ff" d="M278.28,-176.02C297.96,-180.65 322.18,-186.14 344,-190.5 425.91,-206.85 520.63,-222.59 583.6,-232.6"/>
<polygon fill="#63b8ff" stroke="#63b8ff" points="583.39,-236.11 593.81,-234.22 584.48,-229.2 583.39,-236.11"/>
</a>
</g>
</g>
<!-- Node7 -->
<g id="Node000007" class="node">
<title>Node7</title>
<g id="a_Node000007"><a xlink:href="classGssaVoxelPools.html#a646ded62d273f2ca7b17d0ffeb87c966" target="_top" xlink:title=" ">
<polygon fill="white" stroke="#666666" points="514,-133 360,-133 360,-114 514,-114 514,-133"/>
<text text-anchor="middle" x="437" y="-121" font-family="Ubuntu Mono" font-size="10.00">GssaVoxelPools::refreshAtot</text>
</a>
</g>
</g>
<!-- Node2&#45;&gt;Node7 -->
<g id="edge6_Node000002_Node000007" class="edge">
<title>Node2&#45;&gt;Node7</title>
<g id="a_edge6_Node000002_Node000007"><a xlink:title=" ">
<path fill="none" stroke="#63b8ff" d="M279.84,-156.95C299.26,-152.47 322.8,-147.11 344,-142.5 355.22,-140.06 367.22,-137.53 378.73,-135.13"/>
<polygon fill="#63b8ff" stroke="#63b8ff" points="379.6,-138.53 388.68,-133.07 378.18,-131.67 379.6,-138.53"/>
</a>
</g>
</g>
<!-- Node9 -->
<g id="Node000009" class="node">
<title>Node9</title>
<g id="a_Node000009"><a xlink:href="classStoich.html#acf8597b477b135eb38e301d8a9257b77" target="_top" xlink:title="Updates the function values, within s.">
<polygon fill="white" stroke="#666666" points="712,-92 598,-92 598,-73 712,-73 712,-92"/>
<text text-anchor="middle" x="655" y="-80" font-family="Ubuntu Mono" font-size="10.00">Stoich::updateFuncs</text>
</a>
</g>
</g>
<!-- Node2&#45;&gt;Node9 -->
<g id="edge24_Node000002_Node000009" class="edge">
<title>Node2&#45;&gt;Node9</title>
<g id="a_edge24_Node000002_Node000009"><a xlink:title=" ">
<path fill="none" stroke="#63b8ff" d="M251.06,-157C269.74,-142.89 307.35,-116.85 344,-105.5 425.07,-80.41 523.51,-77.46 587.39,-78.93"/>
<polygon fill="#63b8ff" stroke="#63b8ff" points="587.64,-82.43 597.73,-79.21 587.83,-75.44 587.64,-82.43"/>
</a>
</g>
</g>
<!-- Node18 -->
<g id="Node000018" class="node">
<title>Node18</title>
<g id="a_Node000018"><a xlink:href="classVoxelPoolsBase.html#ad248a47e4e7e09ccf040649179096007" target="_top" xlink:title=" ">
<polygon fill="white" stroke="#666666" points="715.5,-55 594.5,-55 594.5,-36 715.5,-36 715.5,-55"/>
<text text-anchor="middle" x="655" y="-43" font-family="Ubuntu Mono" font-size="10.00">VoxelPoolsBase::varS</text>
</a>
</g>
</g>
<!-- Node2&#45;&gt;Node18 -->
<g id="edge25_Node000002_Node000018" class="edge">
<title>Node2&#45;&gt;Node18</title>
<g id="a_edge25_Node000002_Node000018"><a xlink:title=" ">
<path fill="none" stroke="#63b8ff" d="M246.44,-156.92C262.08,-137.58 300.55,-94.14 344,-75.5 421.35,-42.31 519.26,-38.39 584.12,-40.42"/>
<polygon fill="#63b8ff" stroke="#63b8ff" points="584.12,-43.92 594.24,-40.79 584.38,-36.93 584.12,-43.92"/>
</a>
</g>
</g>
<!-- Node19 -->
<g id="Node000019" class="node">
<title>Node19</title>
<g id="a_Node000019"><a xlink:href="classVoxelPoolsBase.html#af5e1c75777f866323c53c267f6eae9c5" target="_top" xlink:title="Returns a handle to the mol # vector.">
<polygon fill="white" stroke="#666666" points="498,-19 376,-19 376,0 498,0 498,-19"/>
<text text-anchor="middle" x="437" y="-7" font-family="Ubuntu Mono" font-size="10.00">VoxelPoolsBase::Svec</text>
</a>
</g>
</g>
<!-- Node2&#45;&gt;Node19 -->
<g id="edge18_Node000002_Node000019" class="edge">
<title>Node2&#45;&gt;Node19</title>
<g id="a_edge18_Node000002_Node000019"><a xlink:title=" ">
<path fill="none" stroke="#63b8ff" d="M243.83,-156.7C256.55,-131.93 293.52,-66.49 344,-33.5 350.88,-29.01 358.56,-25.35 366.47,-22.38"/>
<polygon fill="#63b8ff" stroke="#63b8ff" points="367.84,-25.61 376.19,-19.09 365.6,-18.98 367.84,-25.61"/>
</a>
</g>
</g>
<!-- Node20 -->
<g id="Node000020" class="node">
<title>Node20</title>
<g id="a_Node000020"><a xlink:href="classGssaVoxelPools.html#a930db119e72272d520c45e1fb99793c9" target="_top" xlink:title=" ">
<polygon fill="white" stroke="#666666" points="530,-181.5 344,-181.5 344,-151.5 530,-151.5 530,-181.5"/>
<text text-anchor="start" x="352" y="-169.5" font-family="Ubuntu Mono" font-size="10.00">GssaVoxelPools::updateDependent</text>
<text text-anchor="middle" x="437" y="-158.5" font-family="Ubuntu Mono" font-size="10.00">Rates</text>
</a>
</g>
</g>
<!-- Node2&#45;&gt;Node20 -->
<g id="edge20_Node000002_Node000020" class="edge">
<title>Node2&#45;&gt;Node20</title>
<g id="a_edge20_Node000002_Node000020"><a xlink:title=" ">
<path fill="none" stroke="#63b8ff" d="M308.18,-166.5C316.47,-166.5 325.06,-166.5 333.69,-166.5"/>
<polygon fill="#63b8ff" stroke="#63b8ff" points="333.82,-170 343.82,-166.5 333.82,-163 333.82,-170"/>
</a>
</g>
</g>
<!-- Node5&#45;&gt;Node6 -->
<g id="edge5_Node000005_Node000006" class="edge">
<title>Node5&#45;&gt;Node6</title>
<g id="a_edge5_Node000005_Node000006"><a xlink:title=" ">
<path fill="none" stroke="#63b8ff" d="M508.73,-246.19C532.84,-245.74 559.78,-245.24 583.85,-244.8"/>
<polygon fill="#63b8ff" stroke="#63b8ff" points="584.04,-248.3 593.98,-244.61 583.91,-241.3 584.04,-248.3"/>
</a>
</g>
</g>
<!-- Node8 -->
<g id="Node000008" class="node">
<title>Node8</title>
<g id="a_Node000008"><a xlink:href="classVoxelPoolsBase.html#a14f40161f05d91149be12bdcd5fc5f79" target="_top" xlink:title=" ">
<polygon fill="white" stroke="#666666" points="707.5,-178 602.5,-178 602.5,-159 707.5,-159 707.5,-178"/>
<text text-anchor="middle" x="655" y="-166" font-family="Ubuntu Mono" font-size="10.00">VoxelPoolsBase::S</text>
</a>
</g>
</g>
<!-- Node7&#45;&gt;Node8 -->
<g id="edge7_Node000007_Node000008" class="edge">
<title>Node7&#45;&gt;Node8</title>
<g id="a_edge7_Node000007_Node000008"><a xlink:title=" ">
<path fill="none" stroke="#63b8ff" d="M484.34,-133.04C498.95,-136.06 515.15,-139.41 530,-142.5 552.49,-147.18 577.28,-152.37 598.74,-156.87"/>
<polygon fill="#63b8ff" stroke="#63b8ff" points="598.15,-160.33 608.66,-158.96 599.59,-153.48 598.15,-160.33"/>
</a>
</g>
</g>
<!-- Node7&#45;&gt;Node9 -->
<g id="edge8_Node000007_Node000009" class="edge">
<title>Node7&#45;&gt;Node9</title>
<g id="a_edge8_Node000007_Node000009"><a xlink:title=" ">
<path fill="none" stroke="#63b8ff" d="M488.1,-113.99C519.61,-108.01 560.46,-100.26 593.73,-93.94"/>
<polygon fill="#63b8ff" stroke="#63b8ff" points="594.63,-97.33 603.8,-92.03 593.32,-90.45 594.63,-97.33"/>
</a>
</g>
</g>
<!-- Node14 -->
<g id="Node000014" class="node">
<title>Node14</title>
<g id="a_Node000014"><a xlink:href="classGssaVoxelPools.html#ad4fc6515575ad28ed614c09647fdf20d" target="_top" xlink:title=" ">
<polygon fill="white" stroke="#666666" points="733.5,-140.5 576.5,-140.5 576.5,-110.5 733.5,-110.5 733.5,-140.5"/>
<text text-anchor="start" x="584.5" y="-128.5" font-family="Ubuntu Mono" font-size="10.00">GssaVoxelPools::updateReac</text>
<text text-anchor="middle" x="655" y="-117.5" font-family="Ubuntu Mono" font-size="10.00">Velocities</text>
</a>
</g>
</g>
<!-- Node7&#45;&gt;Node14 -->
<g id="edge13_Node000007_Node000014" class="edge">
<title>Node7&#45;&gt;Node14</title>
<g id="a_edge13_Node000007_Node000014"><a xlink:title=" ">
<path fill="none" stroke="#63b8ff" d="M514.15,-124.21C531.01,-124.36 549,-124.53 566.27,-124.69"/>
<polygon fill="#63b8ff" stroke="#63b8ff" points="566.31,-128.19 576.35,-124.78 566.38,-121.19 566.31,-128.19"/>
</a>
</g>
</g>
<!-- Node7&#45;&gt;Node18 -->
<g id="edge17_Node000007_Node000018" class="edge">
<title>Node7&#45;&gt;Node18</title>
<g id="a_edge17_Node000007_Node000018"><a xlink:title=" ">
<path fill="none" stroke="#63b8ff" d="M455.26,-113.79C479.36,-100.62 524.77,-77.17 566,-63.5 572.82,-61.24 580.03,-59.21 587.28,-57.4"/>
<polygon fill="#63b8ff" stroke="#63b8ff" points="588.22,-60.78 597.14,-55.07 586.61,-53.96 588.22,-60.78"/>
</a>
</g>
</g>
<!-- Node10 -->
<g id="Node000010" class="node">
<title>Node10</title>
<g id="a_Node000010"><a xlink:href="classFuncTerm.html#a722ac441511e1d4c721c757422c728c4" target="_top" xlink:title=" ">
<polygon fill="white" stroke="#666666" points="904,-92 793,-92 793,-73 904,-73 904,-92"/>
<text text-anchor="middle" x="848.5" y="-80" font-family="Ubuntu Mono" font-size="10.00">FuncTerm::evalPool</text>
</a>
</g>
</g>
<!-- Node9&#45;&gt;Node10 -->
<g id="edge9_Node000009_Node000010" class="edge">
<title>Node9&#45;&gt;Node10</title>
<g id="a_edge9_Node000009_Node000010"><a xlink:title=" ">
<path fill="none" stroke="#63b8ff" d="M712.16,-82.5C734.27,-82.5 759.8,-82.5 782.68,-82.5"/>
<polygon fill="#63b8ff" stroke="#63b8ff" points="782.99,-86 792.99,-82.5 782.99,-79 782.99,-86"/>
</a>
</g>
</g>
<!-- Node11 -->
<g id="Node000011" class="node">
<title>Node11</title>
<g id="a_Node000011"><a xlink:href="classmoose_1_1MooseParser.html#a86af0b5331150fcd830bb02c93f356fe" target="_top" xlink:title=" ">
<polygon fill="white" stroke="#666666" points="1071,-119.5 953,-119.5 953,-89.5 1071,-89.5 1071,-119.5"/>
<text text-anchor="start" x="961" y="-107.5" font-family="Ubuntu Mono" font-size="10.00">moose::MooseParser</text>
<text text-anchor="middle" x="1012" y="-96.5" font-family="Ubuntu Mono" font-size="10.00">::Eval</text>
</a>
</g>
</g>
<!-- Node10&#45;&gt;Node11 -->
<g id="edge10_Node000010_Node000011" class="edge">
<title>Node10&#45;&gt;Node11</title>
<g id="a_edge10_Node000010_Node000011"><a xlink:title=" ">
<path fill="none" stroke="#63b8ff" d="M904.18,-89.95C916.52,-91.63 929.78,-93.44 942.61,-95.18"/>
<polygon fill="#63b8ff" stroke="#63b8ff" points="942.41,-98.69 952.79,-96.57 943.35,-91.75 942.41,-98.69"/>
</a>
</g>
</g>
<!-- Node12 -->
<g id="Node000012" class="node">
<title>Node12</title>
<g id="a_Node000012"><a xlink:href="FuncTerm_8cpp.html#a8dc230d56c66041eabde94cf00a45495" target="_top" xlink:title=" ">
<polygon fill="white" stroke="#666666" points="1044.5,-71 979.5,-71 979.5,-52 1044.5,-52 1044.5,-71"/>
<text text-anchor="middle" x="1012" y="-59" font-family="Ubuntu Mono" font-size="10.00">showError</text>
</a>
</g>
</g>
<!-- Node10&#45;&gt;Node12 -->
<g id="edge11_Node000010_Node000012" class="edge">
<title>Node10&#45;&gt;Node12</title>
<g id="a_edge11_Node000010_Node000012"><a xlink:title=" ">
<path fill="none" stroke="#63b8ff" d="M904.18,-75.39C925.53,-72.61 949.6,-69.48 969.49,-66.9"/>
<polygon fill="#63b8ff" stroke="#63b8ff" points="970,-70.36 979.47,-65.6 969.1,-63.42 970,-70.36"/>
</a>
</g>
</g>
<!-- Node13 -->
<g id="Node000013" class="node">
<title>Node13</title>
<g id="a_Node000013"><a xlink:href="structmoose_1_1Parser_1_1ParserException.html#ac9c3c6f3dc862c7f00bf0273e0af34af" target="_top" xlink:title=" ">
<polygon fill="white" stroke="#666666" points="1277,-76.5 1107,-76.5 1107,-46.5 1277,-46.5 1277,-76.5"/>
<text text-anchor="start" x="1115" y="-64.5" font-family="Ubuntu Mono" font-size="10.00">moose::Parser::ParserException</text>
<text text-anchor="middle" x="1192" y="-53.5" font-family="Ubuntu Mono" font-size="10.00">::GetMsg</text>
</a>
</g>
</g>
<!-- Node12&#45;&gt;Node13 -->
<g id="edge12_Node000012_Node000013" class="edge">
<title>Node12&#45;&gt;Node13</title>
<g id="a_edge12_Node000012_Node000013"><a xlink:title=" ">
<path fill="none" stroke="#63b8ff" d="M1044.82,-61.5C1059.57,-61.5 1077.95,-61.5 1096.65,-61.5"/>
<polygon fill="#63b8ff" stroke="#63b8ff" points="1096.74,-65 1106.74,-61.5 1096.74,-58 1096.74,-65"/>
</a>
</g>
</g>
<!-- Node15 -->
<g id="Node000015" class="node">
<title>Node15</title>
<g id="a_Node000015"><a xlink:href="classStoich.html#a2e9ff77fe6dbfb8dd3b92602ab32ccc1" target="_top" xlink:title="Updates the rates for cross&#45;compartment reactions.">
<polygon fill="white" stroke="#666666" points="917,-177.5 780,-177.5 780,-147.5 917,-147.5 917,-177.5"/>
<text text-anchor="start" x="788" y="-165.5" font-family="Ubuntu Mono" font-size="10.00">Stoich::getStoichiometry</text>
<text text-anchor="middle" x="848.5" y="-154.5" font-family="Ubuntu Mono" font-size="10.00">Matrix</text>
</a>
</g>
</g>
<!-- Node14&#45;&gt;Node15 -->
<g id="edge14_Node000014_Node000015" class="edge">
<title>Node14&#45;&gt;Node15</title>
<g id="a_edge14_Node000014_Node000015"><a xlink:title=" ">
<path fill="none" stroke="#63b8ff" d="M733.61,-140.5C745.6,-142.81 757.98,-145.2 769.97,-147.52"/>
<polygon fill="#63b8ff" stroke="#63b8ff" points="769.45,-150.98 779.93,-149.44 770.77,-144.11 769.45,-150.98"/>
</a>
</g>
</g>
<!-- Node16 -->
<g id="Node000016" class="node">
<title>Node16</title>
<g id="a_Node000016"><a xlink:href="classSparseMatrix.html#a34a568e3db0bafd38cf0ccc37cd2086b" target="_top" xlink:title=" ">
<polygon fill="white" stroke="#666666" points="916.5,-129 780.5,-129 780.5,-110 916.5,-110 916.5,-129"/>
<text text-anchor="middle" x="848.5" y="-117" font-family="Ubuntu Mono" font-size="10.00">SparseMatrix::nColumns</text>
</a>
</g>
</g>
<!-- Node14&#45;&gt;Node16 -->
<g id="edge15_Node000014_Node000016" class="edge">
<title>Node14&#45;&gt;Node16</title>
<g id="a_edge15_Node000014_Node000016"><a xlink:title=" ">
<path fill="none" stroke="#63b8ff" d="M733.61,-123.07C745.68,-122.69 758.15,-122.3 770.21,-121.92"/>
<polygon fill="#63b8ff" stroke="#63b8ff" points="770.35,-125.42 780.23,-121.61 770.13,-118.42 770.35,-125.42"/>
</a>
</g>
</g>
<!-- Node17 -->
<g id="Node000017" class="node">
<title>Node17</title>
<g id="a_Node000017"><a xlink:href="classRateTerm.html#a47058d3e308f2499045035f4f76a9ec6" target="_top" xlink:title="Computes the rate. The argument is the molecule array.">
<polygon fill="white" stroke="#666666" points="907.5,-215 789.5,-215 789.5,-196 907.5,-196 907.5,-215"/>
<text text-anchor="middle" x="848.5" y="-203" font-family="Ubuntu Mono" font-size="10.00">RateTerm::operator()</text>
</a>
</g>
</g>
<!-- Node14&#45;&gt;Node17 -->
<g id="edge16_Node000014_Node000017" class="edge">
<title>Node14&#45;&gt;Node17</title>
<g id="a_edge16_Node000014_Node000017"><a xlink:title=" ">
<path fill="none" stroke="#63b8ff" d="M722.86,-140.55C730.22,-143.35 737.43,-146.64 744,-150.5 763.51,-161.96 760.48,-175.06 780,-186.5 783.83,-188.74 787.93,-190.73 792.15,-192.49"/>
<polygon fill="#63b8ff" stroke="#63b8ff" points="790.94,-195.77 801.54,-196 793.39,-189.22 790.94,-195.77"/>
</a>
</g>
</g>
<!-- Node20&#45;&gt;Node8 -->
<g id="edge23_Node000020_Node000008" class="edge">
<title>Node20&#45;&gt;Node8</title>
<g id="a_edge23_Node000020_Node000008"><a xlink:title=" ">
<path fill="none" stroke="#63b8ff" d="M530.23,-167.35C551.13,-167.55 572.83,-167.75 592.12,-167.93"/>
<polygon fill="#63b8ff" stroke="#63b8ff" points="592.23,-171.43 602.26,-168.02 592.29,-164.43 592.23,-171.43"/>
</a>
</g>
</g>
<!-- Node21 -->
<g id="Node000021" class="node">
<title>Node21</title>
<g id="a_Node000021"><a xlink:href="classGssaVoxelPools.html#a6f675fb978d518280508c0dfdbe0fd27" target="_top" xlink:title=" ">
<polygon fill="white" stroke="#666666" points="744,-215 566,-215 566,-196 744,-196 744,-215"/>
<text text-anchor="middle" x="655" y="-203" font-family="Ubuntu Mono" font-size="10.00">GssaVoxelPools::getReacVelocity</text>
</a>
</g>
</g>
<!-- Node20&#45;&gt;Node21 -->
<g id="edge21_Node000020_Node000021" class="edge">
<title>Node20&#45;&gt;Node21</title>
<g id="a_edge21_Node000020_Node000021"><a xlink:title=" ">
<path fill="none" stroke="#63b8ff" d="M521.2,-181.52C544.39,-185.71 569.19,-190.19 591,-194.13"/>
<polygon fill="#63b8ff" stroke="#63b8ff" points="590.66,-197.62 601.12,-195.95 591.91,-190.73 590.66,-197.62"/>
</a>
</g>
</g>
<!-- Node21&#45;&gt;Node17 -->
<g id="edge22_Node000021_Node000017" class="edge">
<title>Node21&#45;&gt;Node17</title>
<g id="a_edge22_Node000021_Node000017"><a xlink:title=" ">
<path fill="none" stroke="#63b8ff" d="M744.18,-205.5C755.91,-205.5 767.78,-205.5 779.1,-205.5"/>
<polygon fill="#63b8ff" stroke="#63b8ff" points="779.32,-209 789.32,-205.5 779.32,-202 779.32,-209"/>
</a>
</g>
</g>
</g>
</svg>

<g id="navigator" transform="translate(0 0)" fill="#404254">
  <rect fill="#f2f5e9" fill-opacity="0.5" stroke="#606060" stroke-width=".5" x="0" y="0" width="60" height="60"/>
  <use id="zoomplus" xlink:href="#zoomPlus" x="17" y="9" onmousedown="handleZoom(evt,'in')"/>
  <use id="zoomminus" xlink:href="#zoomMin" x="42" y="9" onmousedown="handleZoom(evt,'out')"/>
  <use id="reset" xlink:href="#resetDef" x="30" y="36" onmousedown="handleReset()"/>
   <use id="arrowup" xlink:href="#arrowUp" x="0" y="0" onmousedown="handlePan(0,-1)"/>
  <use id="arrowright" xlink:href="#arrowRight" x="0" y="0" onmousedown="handlePan(1,0)"/>
  <use id="arrowdown" xlink:href="#arrowDown" x="0" y="0" onmousedown="handlePan(0,1)"/>
  <use id="arrowleft" xlink:href="#arrowLeft" x="0" y="0" onmousedown="handlePan(-1,0)"/>
</g>
<svg viewBox="0 0 15 15" width="100%" height="30px" preserveAspectRatio="xMaxYMin meet">
 <g id="arrow_out" transform="scale(0.3 0.3)">
  <a xlink:href="classGsolve_a8d03efe04937ea9c76102fdc4599de6b_cgraph_org.svg" target="_base">
   <rect id="button" ry="5" rx="5" y="6" x="6" height="38" width="38"
        fill="#f2f5e9" fill-opacity="0.5" stroke="#606060" stroke-width="1.0"/>
   <path id="arrow"
     d="M 11.500037,31.436501 C 11.940474,20.09759 22.043105,11.32322 32.158766,21.979434 L 37.068811,17.246167 C 37.068811,17.246167 37.088388,32 37.088388,32 L 22.160133,31.978069 C 22.160133,31.978069 26.997745,27.140456 26.997745,27.140456 C 18.528582,18.264221 13.291696,25.230495 11.500037,31.436501 z"
     style="fill:#404040;"/>
  </a>
 </g>
</svg>

<style type='text/css'>
<![CDATA[
[data-mouse-over-selected='false'] { opacity: 0.7; }
[data-mouse-over-selected='true']  { opacity: 1.0; }
]]>
</style>
<script type="application/ecmascript"><![CDATA[
document.addEventListener('DOMContentLoaded', (event) => {
  highlightEdges();
  highlightAdjacentNodes();
});
]]></script>
</svg>
