<?xml version="1.0" encoding="UTF-8" standalone="no"?>
<!DOCTYPE svg PUBLIC "-//W3C//DTD SVG 1.1//EN"
 "http://www.w3.org/Graphics/SVG/1.1/DTD/svg11.dtd">
<!-- Generated by graphviz version 2.43.0 (0)
 -->
<!-- Title: SimpleLogger::timeStamp Pages: 1 -->
<svg width="343pt" height="64pt"
 viewBox="0.00 0.00 343.00 64.00" xmlns="http://www.w3.org/2000/svg" xmlns:xlink="http://www.w3.org/1999/xlink">
<g id="graph0" class="graph" transform="scale(1 1) rotate(0) translate(4 60)">
<title>SimpleLogger::timeStamp</title>
<!-- Node1 -->
<g id="Node000001" class="node">
<title>Node1</title>
<g id="a_Node000001"><a xlink:title="Get current timestamp.">
<polygon fill="#999999" stroke="#666666" points="335,-37 192,-37 192,-18 335,-18 335,-37"/>
<text text-anchor="middle" x="263.5" y="-25" font-family="Ubuntu Mono" font-size="10.00">SimpleLogger::timeStamp</text>
</a>
</g>
</g>
<!-- Node2 -->
<g id="Node000002" class="node">
<title>Node2</title>
<g id="a_Node000002"><a xlink:href="classSimpleLogger.html#a7fedd895d187e02c1ddd7388eccbc8c5" target="_top" xlink:title="Convert this logger to XML.">
<polygon fill="white" stroke="#666666" points="134.5,-56 21.5,-56 21.5,-37 134.5,-37 134.5,-56"/>
<text text-anchor="middle" x="78" y="-44" font-family="Ubuntu Mono" font-size="10.00">SimpleLogger::save</text>
</a>
</g>
</g>
<!-- Node1&#45;&gt;Node2 -->
<g id="edge1_Node000001_Node000002" class="edge">
<title>Node1&#45;&gt;Node2</title>
<g id="a_edge1_Node000001_Node000002"><a xlink:title=" ">
<path fill="none" stroke="#63b8ff" d="M181.48,-35.89C165.63,-37.53 149.34,-39.22 134.55,-40.75"/>
<polygon fill="#63b8ff" stroke="#63b8ff" points="182.23,-39.33 191.82,-34.82 181.51,-32.37 182.23,-39.33"/>
</a>
</g>
</g>
<!-- Node3 -->
<g id="Node000003" class="node">
<title>Node3</title>
<g id="a_Node000003"><a xlink:href="classSimpleLogger.html#a47572c49785a4476dc014f523695b877" target="_top" xlink:title="Constructor of logger. The wrapper script of moose must make sure that $HOME/.moose is created....">
<polygon fill="white" stroke="#666666" points="156,-19 0,-19 0,0 156,0 156,-19"/>
<text text-anchor="middle" x="78" y="-7" font-family="Ubuntu Mono" font-size="10.00">SimpleLogger::SimpleLogger</text>
</a>
</g>
</g>
<!-- Node1&#45;&gt;Node3 -->
<g id="edge2_Node000001_Node000003" class="edge">
<title>Node1&#45;&gt;Node3</title>
<g id="a_edge2_Node000001_Node000003"><a xlink:title=" ">
<path fill="none" stroke="#63b8ff" d="M181.84,-19.59C173.27,-18.75 164.57,-17.89 156.05,-17.06"/>
<polygon fill="#63b8ff" stroke="#63b8ff" points="181.52,-23.07 191.82,-20.57 182.21,-16.11 181.52,-23.07"/>
</a>
</g>
</g>
</g>
</svg>
