<?xml version="1.0" encoding="UTF-8" standalone="no"?>
<!DOCTYPE svg PUBLIC "-//W3C//DTD SVG 1.1//EN"
 "http://www.w3.org/Graphics/SVG/1.1/DTD/svg11.dtd">
<!-- Generated by graphviz version 2.43.0 (0)
 -->
<!-- Title: CuboidStencil::addFlux Pages: 1 -->
<svg width="228pt" height="64pt"
 viewBox="0.00 0.00 228.00 64.00" xmlns="http://www.w3.org/2000/svg" xmlns:xlink="http://www.w3.org/1999/xlink">
<g id="graph0" class="graph" transform="scale(1 1) rotate(0) translate(4 60)">
<title>CuboidStencil::addFlux</title>
<!-- Node1 -->
<g id="Node000001" class="node">
<title>Node1</title>
<g id="a_Node000001"><a xlink:title=" ">
<polygon fill="#999999" stroke="#666666" points="128,-37 0,-37 0,-18 128,-18 128,-37"/>
<text text-anchor="middle" x="64" y="-25" font-family="Ubuntu Mono" font-size="10.00">CuboidStencil::addFlux</text>
</a>
</g>
</g>
<!-- Node2 -->
<g id="Node000002" class="node">
<title>Node2</title>
<g id="a_Node000002"><a xlink:href="Stencil_8cpp.html#a95e5003768054ad7044604ae8967ad68" target="_top" xlink:title=" ">
<polygon fill="white" stroke="#666666" points="219.5,-56 164.5,-56 164.5,-37 219.5,-37 219.5,-56"/>
<text text-anchor="middle" x="192" y="-44" font-family="Ubuntu Mono" font-size="10.00">stencil1</text>
</a>
</g>
</g>
<!-- Node1&#45;&gt;Node2 -->
<g id="edge1_Node000001_Node000002" class="edge">
<title>Node1&#45;&gt;Node2</title>
<g id="a_edge1_Node000001_Node000002"><a xlink:title=" ">
<path fill="none" stroke="#63b8ff" d="M128.37,-37.06C137.33,-38.41 146.28,-39.76 154.5,-41"/>
<polygon fill="#63b8ff" stroke="#63b8ff" points="154.05,-44.47 164.46,-42.5 155.1,-37.55 154.05,-44.47"/>
</a>
</g>
</g>
<!-- Node3 -->
<g id="Node000003" class="node">
<title>Node3</title>
<g id="a_Node000003"><a xlink:href="Stencil_8cpp.html#ae9cf8582edd080a7f6e21dd67c4f464f" target="_top" xlink:title=" ">
<polygon fill="white" stroke="#666666" points="220,-19 164,-19 164,0 220,0 220,-19"/>
<text text-anchor="middle" x="192" y="-7" font-family="Ubuntu Mono" font-size="10.00">stencilN</text>
</a>
</g>
</g>
<!-- Node1&#45;&gt;Node3 -->
<g id="edge2_Node000001_Node000003" class="edge">
<title>Node1&#45;&gt;Node3</title>
<g id="a_edge2_Node000001_Node000003"><a xlink:title=" ">
<path fill="none" stroke="#63b8ff" d="M128.37,-18.45C137.06,-17.21 145.74,-15.97 153.76,-14.82"/>
<polygon fill="#63b8ff" stroke="#63b8ff" points="154.44,-18.26 163.85,-13.38 153.45,-11.33 154.44,-18.26"/>
</a>
</g>
</g>
</g>
</svg>
