<?xml version="1.0" encoding="UTF-8" standalone="no"?>
<!DOCTYPE svg PUBLIC "-//W3C//DTD SVG 1.1//EN"
 "http://www.w3.org/Graphics/SVG/1.1/DTD/svg11.dtd">
<!-- Generated by graphviz version 2.43.0 (0)
 -->
<!-- Title: HHGate Pages: 1 -->
<svg width="142pt" height="577pt"
 viewBox="0.00 0.00 142.00 577.00" xmlns="http://www.w3.org/2000/svg" xmlns:xlink="http://www.w3.org/1999/xlink">
<g id="graph0" class="graph" transform="scale(1 1) rotate(0) translate(4 573)">
<title>HHGate</title>
<!-- Node1 -->
<g id="Node000001" class="node">
<title>Node1</title>
<g id="a_Node000001"><a xlink:title=" ">
<polygon fill="#999999" stroke="transparent" points="134,-364 0,-364 0,0 134,0 134,-364"/>
<text text-anchor="start" x="47.5" y="-352" font-family="Ubuntu Mono" font-size="10.00">HHGate</text>
<text text-anchor="start" x="6.5" y="-337" font-family="Ubuntu Mono" font-size="10.00">&#45;</text>
<text text-anchor="start" x="17" y="-337" font-family="Ubuntu Mono" font-size="10.00">A_</text>
<text text-anchor="start" x="6.5" y="-322" font-family="Ubuntu Mono" font-size="10.00">&#45;</text>
<text text-anchor="start" x="17" y="-322" font-family="Ubuntu Mono" font-size="10.00">alpha_</text>
<text text-anchor="start" x="6.5" y="-307" font-family="Ubuntu Mono" font-size="10.00">&#45;</text>
<text text-anchor="start" x="17" y="-307" font-family="Ubuntu Mono" font-size="10.00">alphaExpr_</text>
<text text-anchor="start" x="6.5" y="-292" font-family="Ubuntu Mono" font-size="10.00">&#45;</text>
<text text-anchor="start" x="17" y="-292" font-family="Ubuntu Mono" font-size="10.00">B_</text>
<text text-anchor="start" x="6.5" y="-277" font-family="Ubuntu Mono" font-size="10.00">&#45;</text>
<text text-anchor="start" x="17" y="-277" font-family="Ubuntu Mono" font-size="10.00">beta_</text>
<text text-anchor="start" x="6.5" y="-262" font-family="Ubuntu Mono" font-size="10.00">&#45;</text>
<text text-anchor="start" x="17" y="-262" font-family="Ubuntu Mono" font-size="10.00">betaExpr_</text>
<text text-anchor="start" x="6.5" y="-247" font-family="Ubuntu Mono" font-size="10.00">&#45;</text>
<text text-anchor="start" x="17" y="-247" font-family="Ubuntu Mono" font-size="10.00">form_</text>
<text text-anchor="start" x="6.5" y="-232" font-family="Ubuntu Mono" font-size="10.00">&#45;</text>
<text text-anchor="start" x="17" y="-232" font-family="Ubuntu Mono" font-size="10.00">invDx_</text>
<text text-anchor="start" x="6.5" y="-217" font-family="Ubuntu Mono" font-size="10.00">&#45;</text>
<text text-anchor="start" x="17" y="-217" font-family="Ubuntu Mono" font-size="10.00">isDirectTable_</text>
<text text-anchor="start" x="6.5" y="-202" font-family="Ubuntu Mono" font-size="10.00">&#45;</text>
<text text-anchor="start" x="17" y="-202" font-family="Ubuntu Mono" font-size="10.00">lookupByInterpolation_</text>
<text text-anchor="start" x="17" y="-187" font-family="Ubuntu Mono" font-size="10.00">and 6 more...</text>
<text text-anchor="start" x="4" y="-172" font-family="Ubuntu Mono" font-size="10.00">+</text>
<text text-anchor="start" x="17" y="-172" font-family="Ubuntu Mono" font-size="10.00">computeTable()</text>
<text text-anchor="start" x="4" y="-157" font-family="Ubuntu Mono" font-size="10.00">+</text>
<text text-anchor="start" x="17" y="-157" font-family="Ubuntu Mono" font-size="10.00">fillFromExpr()</text>
<text text-anchor="start" x="4" y="-142" font-family="Ubuntu Mono" font-size="10.00">+</text>
<text text-anchor="start" x="17" y="-142" font-family="Ubuntu Mono" font-size="10.00">getAlpha()</text>
<text text-anchor="start" x="4" y="-127" font-family="Ubuntu Mono" font-size="10.00">+</text>
<text text-anchor="start" x="17" y="-127" font-family="Ubuntu Mono" font-size="10.00">getAlphaExpr()</text>
<text text-anchor="start" x="4" y="-112" font-family="Ubuntu Mono" font-size="10.00">+</text>
<text text-anchor="start" x="17" y="-112" font-family="Ubuntu Mono" font-size="10.00">getAlphaParms()</text>
<text text-anchor="start" x="4" y="-97" font-family="Ubuntu Mono" font-size="10.00">+</text>
<text text-anchor="start" x="17" y="-97" font-family="Ubuntu Mono" font-size="10.00">getBeta()</text>
<text text-anchor="start" x="4" y="-82" font-family="Ubuntu Mono" font-size="10.00">+</text>
<text text-anchor="start" x="17" y="-82" font-family="Ubuntu Mono" font-size="10.00">getBetaExpr()</text>
<text text-anchor="start" x="4" y="-67" font-family="Ubuntu Mono" font-size="10.00">+</text>
<text text-anchor="start" x="17" y="-67" font-family="Ubuntu Mono" font-size="10.00">getDivs()</text>
<text text-anchor="start" x="4" y="-52" font-family="Ubuntu Mono" font-size="10.00">+</text>
<text text-anchor="start" x="17" y="-52" font-family="Ubuntu Mono" font-size="10.00">getForm()</text>
<text text-anchor="start" x="4" y="-37" font-family="Ubuntu Mono" font-size="10.00">+</text>
<text text-anchor="start" x="17" y="-37" font-family="Ubuntu Mono" font-size="10.00">getInfExpr()</text>
<text text-anchor="start" x="17" y="-22" font-family="Ubuntu Mono" font-size="10.00">and 39 more...</text>
<text text-anchor="start" x="4" y="-7" font-family="Ubuntu Mono" font-size="10.00">+</text>
<text text-anchor="start" x="17" y="-7" font-family="Ubuntu Mono" font-size="10.00">initCinfo()</text>
<polygon fill="#666666" stroke="#666666" points="0,-347 0,-347 134,-347 134,-347 0,-347"/>
<polygon fill="#666666" stroke="#666666" points="0,-182 0,-182 15,-182 15,-182 0,-182"/>
<polygon fill="#666666" stroke="#666666" points="15,-182 15,-182 134,-182 134,-182 15,-182"/>
<polygon fill="none" stroke="#666666" points="0,0 0,-364 134,-364 134,0 0,0"/>
</a>
</g>
</g>
<!-- Node2 -->
<g id="Node000002" class="node">
<title>Node2</title>
<g id="a_Node000002"><a xlink:href="classHHGateBase.html" target="_top" xlink:title=" ">
<polygon fill="white" stroke="transparent" points="124.5,-569 9.5,-569 9.5,-400 124.5,-400 124.5,-569"/>
<text text-anchor="start" x="36" y="-556.5" font-family="Ubuntu Mono" font-size="10.00">HHGateBase</text>
<text text-anchor="start" x="14" y="-541.5" font-family="Ubuntu Mono" font-size="10.00">#</text>
<text text-anchor="start" x="27" y="-541.5" font-family="Ubuntu Mono" font-size="10.00">originalChanId_</text>
<text text-anchor="start" x="14" y="-526.5" font-family="Ubuntu Mono" font-size="10.00">#</text>
<text text-anchor="start" x="27" y="-526.5" font-family="Ubuntu Mono" font-size="10.00">originalGateId_</text>
<text text-anchor="start" x="14" y="-511.5" font-family="Ubuntu Mono" font-size="10.00">+</text>
<text text-anchor="start" x="27" y="-511.5" font-family="Ubuntu Mono" font-size="10.00">checkOriginal()</text>
<text text-anchor="start" x="14" y="-496.5" font-family="Ubuntu Mono" font-size="10.00">+</text>
<text text-anchor="start" x="27" y="-496.5" font-family="Ubuntu Mono" font-size="10.00">HHGateBase()</text>
<text text-anchor="start" x="14" y="-481.5" font-family="Ubuntu Mono" font-size="10.00">+</text>
<text text-anchor="start" x="27" y="-481.5" font-family="Ubuntu Mono" font-size="10.00">HHGateBase()</text>
<text text-anchor="start" x="14" y="-466.5" font-family="Ubuntu Mono" font-size="10.00">+</text>
<text text-anchor="start" x="27" y="-466.5" font-family="Ubuntu Mono" font-size="10.00">isOriginalChannel()</text>
<text text-anchor="start" x="14" y="-451.5" font-family="Ubuntu Mono" font-size="10.00">+</text>
<text text-anchor="start" x="27" y="-451.5" font-family="Ubuntu Mono" font-size="10.00">isOriginalGate()</text>
<text text-anchor="start" x="14" y="-436.5" font-family="Ubuntu Mono" font-size="10.00">+</text>
<text text-anchor="start" x="27" y="-436.5" font-family="Ubuntu Mono" font-size="10.00">originalChannelId()</text>
<text text-anchor="start" x="14" y="-421.5" font-family="Ubuntu Mono" font-size="10.00">+</text>
<text text-anchor="start" x="27" y="-421.5" font-family="Ubuntu Mono" font-size="10.00">originalGateId()</text>
<text text-anchor="start" x="14" y="-406.5" font-family="Ubuntu Mono" font-size="10.00">+</text>
<text text-anchor="start" x="27" y="-406.5" font-family="Ubuntu Mono" font-size="10.00">initCinfo()</text>
<polygon fill="#666666" stroke="#666666" points="10,-551.5 10,-551.5 125,-551.5 125,-551.5 10,-551.5"/>
<polygon fill="#666666" stroke="#666666" points="10,-521.5 10,-521.5 25,-521.5 25,-521.5 10,-521.5"/>
<polygon fill="#666666" stroke="#666666" points="25,-521.5 25,-521.5 125,-521.5 125,-521.5 25,-521.5"/>
<polygon fill="none" stroke="#666666" points="9.5,-400 9.5,-569 124.5,-569 124.5,-400 9.5,-400"/>
</a>
</g>
</g>
<!-- Node2&#45;&gt;Node1 -->
<g id="edge1_Node000001_Node000002" class="edge">
<title>Node2&#45;&gt;Node1</title>
<g id="a_edge1_Node000001_Node000002"><a xlink:title=" ">
<path fill="none" stroke="#63b8ff" d="M67,-389.78C67,-381.45 67,-372.85 67,-364.11"/>
<polygon fill="none" stroke="#63b8ff" points="63.5,-389.79 67,-399.79 70.5,-389.79 63.5,-389.79"/>
</a>
</g>
</g>
</g>
</svg>
