<?xml version="1.0" encoding="UTF-8" standalone="no"?>
<!DOCTYPE svg PUBLIC "-//W3C//DTD SVG 1.1//EN"
 "http://www.w3.org/Graphics/SVG/1.1/DTD/svg11.dtd">
<!-- Generated by graphviz version 2.43.0 (0)
 -->
<!-- Title: Function::clearAll Pages: 1 -->
<!--zoomable 954 -->

<svg id="main" version="1.1" xmlns="http://www.w3.org/2000/svg" xmlns:xlink="http://www.w3.org/1999/xlink" xml:space="preserve" onload="init(evt)">
<style type="text/css"><![CDATA[
.node, .edge {opacity: 0.7;}
.node.selected, .edge.selected {opacity: 1;}
.edge:hover path { stroke: red; }
.edge:hover polygon { stroke: red; fill: red; }
]]></style>

<defs>
  <circle id="rim" cx="0" cy="0" r="7"/>
  <circle id="rim2" cx="0" cy="0" r="3.5"/>
  <g id="zoomPlus">
    <use xlink:href="#rim" fill="#404040"><set attributeName="fill" to="#808080" begin="zoomplus.mouseover" end="zoomplus.mouseout"/></use>
    <path d="M-4,0h8M0,-4v8" fill="none" stroke="white" stroke-width="1.5" pointer-events="none"/>
  </g>
  <g id="zoomMin">
    <use xlink:href="#rim" fill="#404040"><set attributeName="fill" to="#808080" begin="zoomminus.mouseover" end="zoomminus.mouseout"/></use>
    <path d="M-4,0h8" fill="none" stroke="white" stroke-width="1.5" pointer-events="none"/>
  </g>
  <g id="arrowUp" transform="translate(30 24)">
    <use xlink:href="#rim"/>
    <path pointer-events="none" fill="none" stroke="white" stroke-width="1.5" d="M0,-3.0v7 M-2.5,-0.5L0,-3.0L2.5,-0.5"/>
  </g>
  <g id="arrowRight" transform="rotate(90) translate(36 -43)">
    <use xlink:href="#rim"/>
    <path pointer-events="none" fill="none" stroke="white" stroke-width="1.5" d="M0,-3.0v7 M-2.5,-0.5L0,-3.0L2.5,-0.5"/>
  </g>
  <g id="arrowDown" transform="rotate(180) translate(-30 -48)">
    <use xlink:href="#rim"/>
    <path pointer-events="none" fill="none" stroke="white" stroke-width="1.5" d="M0,-3.0v7 M-2.5,-0.5L0,-3.0L2.5,-0.5"/>
  </g>
  <g id="arrowLeft" transform="rotate(270) translate(-36 17)">
    <use xlink:href="#rim"/>
    <path pointer-events="none" fill="none" stroke="white" stroke-width="1.5" d="M0,-3.0v7 M-2.5,-0.5L0,-3.0L2.5,-0.5"/>
  </g>
  <g id="resetDef">
    <use xlink:href="#rim2" fill="#404040"><set attributeName="fill" to="#808080" begin="reset.mouseover" end="reset.mouseout"/></use>
  </g>
</defs>
<script type="application/ecmascript">
var viewWidth = 1488;
var viewHeight = 954;
var sectionId = 'dynsection-1';
</script>
<script type="application/ecmascript" xlink:href="svg.min.js"/>
<svg id="graph" class="graph">
<g id="viewport">
<title>Function::clearAll</title>
<!-- Node1 -->
<g id="Node000001" class="node">
<title>Node1</title>
<g id="a_Node000001"><a xlink:title=" ">
<polygon fill="#999999" stroke="#666666" points="101,-831.5 0,-831.5 0,-812.5 101,-812.5 101,-831.5"/>
<text text-anchor="middle" x="50.5" y="-819.5" font-family="Ubuntu Mono" font-size="10.00">Function::clearAll</text>
</a>
</g>
</g>
<!-- Node2 -->
<g id="Node000002" class="node">
<title>Node2</title>
<g id="a_Node000002"><a xlink:href="Function_8cpp.html#a2078d624aae5198ba038f3ef46631bdb" target="_top" xlink:title=" ">
<polygon fill="white" stroke="#666666" points="209,-897.5 156,-897.5 156,-878.5 209,-878.5 209,-897.5"/>
<text text-anchor="middle" x="182.5" y="-885.5" font-family="Ubuntu Mono" font-size="10.00">rateOut</text>
</a>
</g>
</g>
<!-- Node1&#45;&gt;Node2 -->
<g id="edge1_Node000001_Node000002" class="edge">
<title>Node1&#45;&gt;Node2</title>
<g id="a_edge1_Node000001_Node000002"><a xlink:title=" ">
<path fill="none" stroke="#63b8ff" d="M70.4,-831.6C92.26,-842.69 128.44,-861.06 153.55,-873.81"/>
<polygon fill="#63b8ff" stroke="#63b8ff" points="152.07,-876.99 162.57,-878.39 155.24,-870.74 152.07,-876.99"/>
</a>
</g>
</g>
<!-- Node4 -->
<g id="Node000004" class="node">
<title>Node4</title>
<g id="a_Node000004"><a xlink:href="classSrcFinfo1.html#af6ead5e2fe7259ae6ad46a943ca0284c" target="_top" xlink:title=" ">
<polygon fill="white" stroke="#666666" points="228,-813.5 137,-813.5 137,-794.5 228,-794.5 228,-813.5"/>
<text text-anchor="middle" x="182.5" y="-801.5" font-family="Ubuntu Mono" font-size="10.00">SrcFinfo1::send</text>
</a>
</g>
</g>
<!-- Node1&#45;&gt;Node4 -->
<g id="edge3_Node000001_Node000004" class="edge">
<title>Node1&#45;&gt;Node4</title>
<g id="a_edge3_Node000001_Node000004"><a xlink:title=" ">
<path fill="none" stroke="#63b8ff" d="M101.02,-815.14C109.48,-813.97 118.31,-812.75 126.89,-811.56"/>
<polygon fill="#63b8ff" stroke="#63b8ff" points="127.38,-815.03 136.81,-810.19 126.42,-808.09 127.38,-815.03"/>
</a>
</g>
</g>
<!-- Node3 -->
<g id="Node000003" class="node">
<title>Node3</title>
<g id="a_Node000003"><a xlink:href="classSrcFinfo1.html#a530c4cec4de6226aa2a32c28f8448b7e" target="_top" xlink:title=" ">
<polygon fill="white" stroke="#666666" points="383.5,-945.5 270.5,-945.5 270.5,-926.5 383.5,-926.5 383.5,-945.5"/>
<text text-anchor="middle" x="327" y="-933.5" font-family="Ubuntu Mono" font-size="10.00">SrcFinfo1::SrcFinfo1</text>
</a>
</g>
</g>
<!-- Node2&#45;&gt;Node3 -->
<g id="edge2_Node000002_Node000003" class="edge">
<title>Node2&#45;&gt;Node3</title>
<g id="a_edge2_Node000002_Node000003"><a xlink:title=" ">
<path fill="none" stroke="#63b8ff" d="M207.64,-897.53C223.54,-903.68 244.89,-911.67 264,-918 269.66,-919.87 275.64,-921.74 281.57,-923.53"/>
<polygon fill="#63b8ff" stroke="#63b8ff" points="280.84,-926.97 291.43,-926.45 282.83,-920.26 280.84,-926.97"/>
</a>
</g>
</g>
<!-- Node5 -->
<g id="Node000005" class="node">
<title>Node5</title>
<g id="a_Node000005"><a xlink:href="classEref.html#aca13ad32862935d4a33109785d0f01d7" target="_top" xlink:title=" ">
<polygon fill="white" stroke="#666666" points="1216.5,-758.5 1126.5,-758.5 1126.5,-739.5 1216.5,-739.5 1216.5,-758.5"/>
<text text-anchor="middle" x="1171.5" y="-746.5" font-family="Ubuntu Mono" font-size="10.00">Eref::dataIndex</text>
</a>
</g>
</g>
<!-- Node4&#45;&gt;Node5 -->
<g id="edge4_Node000004_Node000005" class="edge">
<title>Node4&#45;&gt;Node5</title>
<g id="a_edge4_Node000004_Node000005"><a xlink:title=" ">
<path fill="none" stroke="#63b8ff" d="M202.5,-813.57C218.5,-821.19 242.19,-831.46 264,-837 359.55,-861.27 385.92,-861 484.5,-861 484.5,-861 484.5,-861 837.5,-861 947.57,-861 984.67,-884.43 1084,-837 1116.84,-821.32 1144.18,-787.7 1158.86,-766.86"/>
<polygon fill="#63b8ff" stroke="#63b8ff" points="1161.79,-768.78 1164.53,-758.54 1156.01,-764.84 1161.79,-768.78"/>
</a>
</g>
</g>
<!-- Node6 -->
<g id="Node000006" class="node">
<title>Node6</title>
<g id="a_Node000006"><a xlink:href="classEref.html#a47b59ab86165cceb0bde80c76c3f7fa2" target="_top" xlink:title=" ">
<polygon fill="white" stroke="#666666" points="1212.5,-497.5 1130.5,-497.5 1130.5,-478.5 1212.5,-478.5 1212.5,-497.5"/>
<text text-anchor="middle" x="1171.5" y="-485.5" font-family="Ubuntu Mono" font-size="10.00">Eref::element</text>
</a>
</g>
</g>
<!-- Node4&#45;&gt;Node6 -->
<g id="edge5_Node000004_Node000006" class="edge">
<title>Node4&#45;&gt;Node6</title>
<g id="a_edge5_Node000004_Node000006"><a xlink:title=" ">
<path fill="none" stroke="#63b8ff" d="M228.07,-808.58C286.77,-814.2 393.26,-823 484.5,-823 484.5,-823 484.5,-823 837.5,-823 892.44,-823 1043.56,-841.19 1084,-804 1157.58,-736.34 1087.91,-676.66 1120,-582 1129.47,-554.06 1146.7,-524.51 1158.37,-506.16"/>
<polygon fill="#63b8ff" stroke="#63b8ff" points="1161.38,-507.95 1163.9,-497.66 1155.51,-504.13 1161.38,-507.95"/>
</a>
</g>
</g>
<!-- Node7 -->
<g id="Node000007" class="node">
<title>Node7</title>
<g id="a_Node000007"><a xlink:href="classEref.html#a3addb850bc6cbac7771a07de219d909d" target="_top" xlink:title=" ">
<polygon fill="white" stroke="#666666" points="1047.5,-794.5 986.5,-794.5 986.5,-775.5 1047.5,-775.5 1047.5,-794.5"/>
<text text-anchor="middle" x="1017" y="-782.5" font-family="Ubuntu Mono" font-size="10.00">Eref::Eref</text>
</a>
</g>
</g>
<!-- Node4&#45;&gt;Node7 -->
<g id="edge6_Node000004_Node000007" class="edge">
<title>Node4&#45;&gt;Node7</title>
<g id="a_edge6_Node000004_Node000007"><a xlink:title=" ">
<path fill="none" stroke="#63b8ff" d="M228.07,-799.42C286.77,-793.8 393.26,-785 484.5,-785 484.5,-785 484.5,-785 653,-785 770.55,-785 909.51,-785 976.27,-785"/>
<polygon fill="#63b8ff" stroke="#63b8ff" points="976.36,-788.5 986.36,-785 976.36,-781.5 976.36,-788.5"/>
</a>
</g>
</g>
<!-- Node8 -->
<g id="Node000008" class="node">
<title>Node8</title>
<g id="a_Node000008"><a xlink:href="classSrcFinfo.html#aa90db29c818e71d31322c35bfec2f731" target="_top" xlink:title=" ">
<polygon fill="white" stroke="#666666" points="390,-908.5 264,-908.5 264,-889.5 390,-889.5 390,-908.5"/>
<text text-anchor="middle" x="327" y="-896.5" font-family="Ubuntu Mono" font-size="10.00">SrcFinfo::getBindIndex</text>
</a>
</g>
</g>
<!-- Node4&#45;&gt;Node8 -->
<g id="edge7_Node000004_Node000008" class="edge">
<title>Node4&#45;&gt;Node8</title>
<g id="a_edge7_Node000004_Node000008"><a xlink:title=" ">
<path fill="none" stroke="#63b8ff" d="M192.53,-813.95C206.56,-828.93 235.02,-857.39 264,-875 270.73,-879.09 278.27,-882.7 285.72,-885.8"/>
<polygon fill="#63b8ff" stroke="#63b8ff" points="284.44,-889.06 295.03,-889.45 287,-882.55 284.44,-889.06"/>
</a>
</g>
</g>
<!-- Node9 -->
<g id="Node000009" class="node">
<title>Node9</title>
<g id="a_Node000009"><a xlink:href="classElement.html#a8d7debb27e67d5fc97697cddc9d69542" target="_top" xlink:title="Returns index of first data entry on this node.">
<polygon fill="white" stroke="#666666" points="1083.5,-122.5 950.5,-122.5 950.5,-103.5 1083.5,-103.5 1083.5,-122.5"/>
<text text-anchor="middle" x="1017" y="-110.5" font-family="Ubuntu Mono" font-size="10.00">Element::localDataStart</text>
</a>
</g>
</g>
<!-- Node4&#45;&gt;Node9 -->
<g id="edge8_Node000004_Node000009" class="edge">
<title>Node4&#45;&gt;Node9</title>
<g id="a_edge8_Node000004_Node000009"><a xlink:title=" ">
<path fill="none" stroke="#63b8ff" d="M183.62,-794.47C185.14,-717.24 205.72,-197 484.5,-197 484.5,-197 484.5,-197 653,-197 777.03,-197 918.9,-149.88 982.31,-126.22"/>
<polygon fill="#63b8ff" stroke="#63b8ff" points="983.68,-129.44 991.8,-122.64 981.21,-122.9 983.68,-129.44"/>
</a>
</g>
</g>
<!-- Node10 -->
<g id="Node000010" class="node">
<title>Node10</title>
<g id="a_Node000010"><a xlink:href="classEref.html#a5c15b71e3463adaa4623267ada92c898" target="_top" xlink:title=" ">
<polygon fill="white" stroke="#666666" points="374,-737.5 280,-737.5 280,-718.5 374,-718.5 374,-737.5"/>
<text text-anchor="middle" x="327" y="-725.5" font-family="Ubuntu Mono" font-size="10.00">Eref::msgDigest</text>
</a>
</g>
</g>
<!-- Node4&#45;&gt;Node10 -->
<g id="edge9_Node000004_Node000010" class="edge">
<title>Node4&#45;&gt;Node10</title>
<g id="a_edge9_Node000004_Node000010"><a xlink:title=" ">
<path fill="none" stroke="#63b8ff" d="M201.55,-794.37C226.17,-781.24 270.5,-757.6 299.07,-742.36"/>
<polygon fill="#63b8ff" stroke="#63b8ff" points="300.92,-745.34 308.1,-737.55 297.63,-739.16 300.92,-745.34"/>
</a>
</g>
</g>
<!-- Node39 -->
<g id="Node000039" class="node">
<title>Node39</title>
<g id="a_Node000039"><a xlink:href="classElement.html#abee6d5e3b26374c8c196c6065543706d" target="_top" xlink:title="Returns number of local data entries on this node.">
<polygon fill="white" stroke="#666666" points="1084,-85.5 950,-85.5 950,-66.5 1084,-66.5 1084,-85.5"/>
<text text-anchor="middle" x="1017" y="-73.5" font-family="Ubuntu Mono" font-size="10.00">Element::numLocalData</text>
</a>
</g>
</g>
<!-- Node4&#45;&gt;Node39 -->
<g id="edge61_Node000004_Node000039" class="edge">
<title>Node4&#45;&gt;Node39</title>
<g id="a_edge61_Node000004_Node000039"><a xlink:title=" ">
<path fill="none" stroke="#63b8ff" d="M183.99,-794.14C187.5,-726.08 210.25,-325.46 264,-218 325.65,-94.75 346.69,0 484.5,0 484.5,0 484.5,0 653,0 774.62,0 914.4,-41.38 979.32,-63.07"/>
<polygon fill="#63b8ff" stroke="#63b8ff" points="978.49,-66.48 989.08,-66.37 980.73,-59.85 978.49,-66.48"/>
</a>
</g>
</g>
<!-- Node11 -->
<g id="Node000011" class="node">
<title>Node11</title>
<g id="a_Node000011"><a xlink:href="classElement.html#a33610036b72724ca3b7fedaf7e692841" target="_top" xlink:title=" ">
<polygon fill="white" stroke="#666666" points="1060.5,-757.5 973.5,-757.5 973.5,-738.5 1060.5,-738.5 1060.5,-757.5"/>
<text text-anchor="middle" x="1017" y="-745.5" font-family="Ubuntu Mono" font-size="10.00">Element::cinfo</text>
</a>
</g>
</g>
<!-- Node10&#45;&gt;Node11 -->
<g id="edge10_Node000010_Node000011" class="edge">
<title>Node10&#45;&gt;Node11</title>
<g id="a_edge10_Node000010_Node000011"><a xlink:title=" ">
<path fill="none" stroke="#63b8ff" d="M374.21,-729.34C497.27,-732.92 832.41,-742.66 962.95,-746.46"/>
<polygon fill="#63b8ff" stroke="#63b8ff" points="963,-749.96 973.1,-746.75 963.21,-742.96 963,-749.96"/>
</a>
</g>
</g>
<!-- Node12 -->
<g id="Node000012" class="node">
<title>Node12</title>
<g id="a_Node000012"><a xlink:href="classElement.html#af00354d706575077c20c9865f340f93f" target="_top" xlink:title=" ">
<polygon fill="white" stroke="#666666" points="543.5,-718.5 427.5,-718.5 427.5,-699.5 543.5,-699.5 543.5,-718.5"/>
<text text-anchor="middle" x="485.5" y="-706.5" font-family="Ubuntu Mono" font-size="10.00">Element::msgDigest</text>
</a>
</g>
</g>
<!-- Node10&#45;&gt;Node12 -->
<g id="edge11_Node000010_Node000012" class="edge">
<title>Node10&#45;&gt;Node12</title>
<g id="a_edge11_Node000010_Node000012"><a xlink:title=" ">
<path fill="none" stroke="#63b8ff" d="M374.11,-722.4C387.66,-720.76 402.77,-718.92 417.36,-717.15"/>
<polygon fill="#63b8ff" stroke="#63b8ff" points="417.84,-720.62 427.34,-715.94 416.99,-713.67 417.84,-720.62"/>
</a>
</g>
</g>
<!-- Node42 -->
<g id="Node000042" class="node">
<title>Node42</title>
<g id="a_Node000042"><a xlink:href="classCinfo.html#a2fc76e571de8791c7d2e4ca04c770ffb" target="_top" xlink:title=" ">
<polygon fill="white" stroke="#666666" points="545,-681.5 426,-681.5 426,-662.5 545,-662.5 545,-681.5"/>
<text text-anchor="middle" x="485.5" y="-669.5" font-family="Ubuntu Mono" font-size="10.00">Cinfo::numBindIndex</text>
</a>
</g>
</g>
<!-- Node10&#45;&gt;Node42 -->
<g id="edge60_Node000010_Node000042" class="edge">
<title>Node10&#45;&gt;Node42</title>
<g id="a_edge60_Node000010_Node000042"><a xlink:title=" ">
<path fill="none" stroke="#63b8ff" d="M352.45,-718.4C372.21,-710.74 400.77,-699.85 426,-691 431.95,-688.91 438.27,-686.78 444.47,-684.72"/>
<polygon fill="#63b8ff" stroke="#63b8ff" points="445.63,-688.03 454.05,-681.59 443.45,-681.37 445.63,-688.03"/>
</a>
</g>
</g>
<!-- Node13 -->
<g id="Node000013" class="node">
<title>Node13</title>
<g id="a_Node000013"><a xlink:href="classElement.html#a722a219697e0d390675dff185ae8de28" target="_top" xlink:title=" ">
<polygon fill="white" stroke="#666666" points="723,-624.5 581,-624.5 581,-605.5 723,-605.5 723,-624.5"/>
<text text-anchor="middle" x="652" y="-612.5" font-family="Ubuntu Mono" font-size="10.00">Element::digestMessages</text>
</a>
</g>
</g>
<!-- Node12&#45;&gt;Node13 -->
<g id="edge12_Node000012_Node000013" class="edge">
<title>Node12&#45;&gt;Node13</title>
<g id="a_edge12_Node000012_Node000013"><a xlink:title=" ">
<path fill="none" stroke="#63b8ff" d="M524.03,-699.43C531.15,-697.07 538.43,-694.26 545,-691 578.02,-674.63 611.9,-648.36 632.2,-631.39"/>
<polygon fill="#63b8ff" stroke="#63b8ff" points="634.67,-633.88 640.02,-624.74 630.13,-628.55 634.67,-633.88"/>
</a>
</g>
</g>
<!-- Node14 -->
<g id="Node000014" class="node">
<title>Node14</title>
<g id="a_Node000014"><a xlink:href="Element_8cpp.html#af36606da2859789d69ab11f9ae6354e7" target="_top" xlink:title=" ">
<polygon fill="white" stroke="#666666" points="881,-718.5 792,-718.5 792,-699.5 881,-699.5 881,-718.5"/>
<text text-anchor="middle" x="836.5" y="-706.5" font-family="Ubuntu Mono" font-size="10.00">findNumDigest</text>
</a>
</g>
</g>
<!-- Node13&#45;&gt;Node14 -->
<g id="edge13_Node000013_Node000014" class="edge">
<title>Node13&#45;&gt;Node14</title>
<g id="a_edge13_Node000013_Node000014"><a xlink:title=" ">
<path fill="none" stroke="#63b8ff" d="M663.26,-624.51C681.24,-640.66 720.24,-673.39 759,-691 766.16,-694.25 773.98,-696.96 781.79,-699.19"/>
<polygon fill="#63b8ff" stroke="#63b8ff" points="781.07,-702.62 791.63,-701.77 782.85,-695.85 781.07,-702.62"/>
</a>
</g>
</g>
<!-- Node15 -->
<g id="Node000015" class="node">
<title>Node15</title>
<g id="a_Node000015"><a xlink:href="classFuncOrder.html#a1e3804483f62e1b894dbaed343711033" target="_top" xlink:title=" ">
<polygon fill="white" stroke="#666666" points="886,-681.5 787,-681.5 787,-662.5 886,-662.5 886,-681.5"/>
<text text-anchor="middle" x="836.5" y="-669.5" font-family="Ubuntu Mono" font-size="10.00">FuncOrder::index</text>
</a>
</g>
</g>
<!-- Node13&#45;&gt;Node15 -->
<g id="edge14_Node000013_Node000015" class="edge">
<title>Node13&#45;&gt;Node15</title>
<g id="a_edge14_Node000013_Node000015"><a xlink:title=" ">
<path fill="none" stroke="#63b8ff" d="M683.55,-624.54C714.21,-634.12 761.61,-648.92 795.3,-659.45"/>
<polygon fill="#63b8ff" stroke="#63b8ff" points="794.27,-662.79 804.85,-662.43 796.35,-656.11 794.27,-662.79"/>
</a>
</g>
</g>
<!-- Node16 -->
<g id="Node000016" class="node">
<title>Node16</title>
<g id="a_Node000016"><a xlink:href="classElement.html#ae764f4baa2a88e55072eb0a5b15718c4" target="_top" xlink:title="Returns number of data entries across all nodes.">
<polygon fill="white" stroke="#666666" points="1071,-720.5 963,-720.5 963,-701.5 1071,-701.5 1071,-720.5"/>
<text text-anchor="middle" x="1017" y="-708.5" font-family="Ubuntu Mono" font-size="10.00">Element::numData</text>
</a>
</g>
</g>
<!-- Node13&#45;&gt;Node16 -->
<g id="edge15_Node000013_Node000016" class="edge">
<title>Node13&#45;&gt;Node16</title>
<g id="a_edge15_Node000013_Node000016"><a xlink:title=" ">
<path fill="none" stroke="#63b8ff" d="M723.15,-620.21C788.92,-626.04 881.81,-636.96 914,-654 934.85,-665.04 929.84,-680.75 950,-693 952.79,-694.7 955.75,-696.23 958.79,-697.63"/>
<polygon fill="#63b8ff" stroke="#63b8ff" points="957.57,-700.91 968.16,-701.41 960.19,-694.42 957.57,-700.91"/>
</a>
</g>
</g>
<!-- Node17 -->
<g id="Node000017" class="node">
<title>Node17</title>
<g id="a_Node000017"><a xlink:href="classShell.html#a2191e15a0bcd49569fbb297b0724a765" target="_top" xlink:title=" ">
<polygon fill="white" stroke="#666666" points="1221,-235.5 1122,-235.5 1122,-216.5 1221,-216.5 1221,-235.5"/>
<text text-anchor="middle" x="1171.5" y="-223.5" font-family="Ubuntu Mono" font-size="10.00">Shell::numNodes</text>
</a>
</g>
</g>
<!-- Node13&#45;&gt;Node17 -->
<g id="edge16_Node000013_Node000017" class="edge">
<title>Node13&#45;&gt;Node17</title>
<g id="a_edge16_Node000013_Node000017"><a xlink:title=" ">
<path fill="none" stroke="#63b8ff" d="M654.14,-605.42C662.4,-540.91 719.52,-169 950,-57 1003.57,-30.97 1033.19,-25.93 1084,-57 1138.28,-90.19 1159.88,-169.42 1167.23,-206.38"/>
<polygon fill="#63b8ff" stroke="#63b8ff" points="1163.82,-207.2 1169.07,-216.4 1170.7,-205.93 1163.82,-207.2"/>
</a>
</g>
</g>
<!-- Node18 -->
<g id="Node000018" class="node">
<title>Node18</title>
<g id="a_Node000018"><a xlink:href="Element_8cpp.html#ae676123d090f0874314d4469a1f3fe90" target="_top" xlink:title=" ">
<polygon fill="white" stroke="#666666" points="884.5,-605.5 788.5,-605.5 788.5,-586.5 884.5,-586.5 884.5,-605.5"/>
<text text-anchor="middle" x="836.5" y="-593.5" font-family="Ubuntu Mono" font-size="10.00">putFuncsInOrder</text>
</a>
</g>
</g>
<!-- Node13&#45;&gt;Node18 -->
<g id="edge17_Node000013_Node000018" class="edge">
<title>Node13&#45;&gt;Node18</title>
<g id="a_edge17_Node000013_Node000018"><a xlink:title=" ">
<path fill="none" stroke="#63b8ff" d="M723.04,-607.71C741.27,-605.81 760.7,-603.79 778.19,-601.97"/>
<polygon fill="#63b8ff" stroke="#63b8ff" points="778.66,-605.44 788.24,-600.92 777.93,-598.47 778.66,-605.44"/>
</a>
</g>
</g>
<!-- Node29 -->
<g id="Node000029" class="node">
<title>Node29</title>
<g id="a_Node000029"><a xlink:href="classElement.html#a0782085917c558ec4d56be9566688743" target="_top" xlink:title=" ">
<polygon fill="white" stroke="#666666" points="913.5,-568 759.5,-568 759.5,-538 913.5,-538 913.5,-568"/>
<text text-anchor="start" x="767.5" y="-556" font-family="Ubuntu Mono" font-size="10.00">Element::putOffNodeTargets</text>
<text text-anchor="middle" x="836.5" y="-545" font-family="Ubuntu Mono" font-size="10.00">InDigest</text>
</a>
</g>
</g>
<!-- Node13&#45;&gt;Node29 -->
<g id="edge29_Node000013_Node000029" class="edge">
<title>Node13&#45;&gt;Node29</title>
<g id="a_edge29_Node000013_Node000029"><a xlink:title=" ">
<path fill="none" stroke="#63b8ff" d="M679.96,-605.42C701.35,-597.86 732.04,-587.11 759,-578 765.49,-575.81 772.31,-573.54 779.08,-571.3"/>
<polygon fill="#63b8ff" stroke="#63b8ff" points="780.52,-574.51 788.93,-568.06 778.33,-567.86 780.52,-574.51"/>
</a>
</g>
</g>
<!-- Node32 -->
<g id="Node000032" class="node">
<title>Node32</title>
<g id="a_Node000032"><a xlink:href="classElement.html#ae5b80db45c08265b98ff433504fab66b" target="_top" xlink:title=" ">
<polygon fill="white" stroke="#666666" points="914,-328.5 759,-328.5 759,-309.5 914,-309.5 914,-328.5"/>
<text text-anchor="middle" x="836.5" y="-316.5" font-family="Ubuntu Mono" font-size="10.00">Element::putTargetsInDigest</text>
</a>
</g>
</g>
<!-- Node13&#45;&gt;Node32 -->
<g id="edge40_Node000013_Node000032" class="edge">
<title>Node13&#45;&gt;Node32</title>
<g id="a_edge40_Node000013_Node000032"><a xlink:title=" ">
<path fill="none" stroke="#63b8ff" d="M658.87,-605.49C684.82,-563.39 789.58,-393.48 824.27,-337.21"/>
<polygon fill="#63b8ff" stroke="#63b8ff" points="827.3,-338.98 829.56,-328.63 821.34,-335.3 827.3,-338.98"/>
</a>
</g>
</g>
<!-- Node18&#45;&gt;Node11 -->
<g id="edge18_Node000018_Node000011" class="edge">
<title>Node18&#45;&gt;Node11</title>
<g id="a_edge18_Node000018_Node000011"><a xlink:title=" ">
<path fill="none" stroke="#63b8ff" d="M854.61,-605.62C871.51,-615.82 897.19,-633.3 914,-654 937.57,-683.01 921.35,-706 950,-730 954.05,-733.39 958.69,-736.15 963.58,-738.39"/>
<polygon fill="#63b8ff" stroke="#63b8ff" points="962.64,-741.78 973.23,-742.09 965.15,-735.24 962.64,-741.78"/>
</a>
</g>
</g>
<!-- Node19 -->
<g id="Node000019" class="node">
<title>Node19</title>
<g id="a_Node000019"><a xlink:href="classMsg.html#a5be9f4dd643f5f662e8fb3c029273390" target="_top" xlink:title=" ">
<polygon fill="white" stroke="#666666" points="1044.5,-459.5 989.5,-459.5 989.5,-440.5 1044.5,-440.5 1044.5,-459.5"/>
<text text-anchor="middle" x="1017" y="-447.5" font-family="Ubuntu Mono" font-size="10.00">Msg::e1</text>
</a>
</g>
</g>
<!-- Node18&#45;&gt;Node19 -->
<g id="edge19_Node000018_Node000019" class="edge">
<title>Node18&#45;&gt;Node19</title>
<g id="a_edge19_Node000018_Node000019"><a xlink:title=" ">
<path fill="none" stroke="#63b8ff" d="M884.86,-591.95C895.48,-589.07 905.96,-584.43 914,-577 951.15,-542.65 913.49,-504.03 950,-469 957.95,-461.37 968.77,-456.77 979.35,-454.01"/>
<polygon fill="#63b8ff" stroke="#63b8ff" points="980.26,-457.4 989.31,-451.89 978.8,-450.55 980.26,-457.4"/>
</a>
</g>
</g>
<!-- Node20 -->
<g id="Node000020" class="node">
<title>Node20</title>
<g id="a_Node000020"><a xlink:href="classMsg.html#a893ed6b44cd4c529f0f10af38ae6743a" target="_top" xlink:title=" ">
<polygon fill="white" stroke="#666666" points="1044.5,-496.5 989.5,-496.5 989.5,-477.5 1044.5,-477.5 1044.5,-496.5"/>
<text text-anchor="middle" x="1017" y="-484.5" font-family="Ubuntu Mono" font-size="10.00">Msg::e2</text>
</a>
</g>
</g>
<!-- Node18&#45;&gt;Node20 -->
<g id="edge20_Node000018_Node000020" class="edge">
<title>Node18&#45;&gt;Node20</title>
<g id="a_edge20_Node000018_Node000020"><a xlink:title=" ">
<path fill="none" stroke="#63b8ff" d="M884.51,-590.97C895.02,-588.12 905.54,-583.73 914,-577 941.68,-554.96 922.73,-528.55 950,-506 958.36,-499.09 969.1,-494.69 979.49,-491.89"/>
<polygon fill="#63b8ff" stroke="#63b8ff" points="980.27,-495.3 989.25,-489.67 978.72,-488.48 980.27,-495.3"/>
</a>
</g>
</g>
<!-- Node21 -->
<g id="Node000021" class="node">
<title>Node21</title>
<g id="a_Node000021"><a xlink:href="classMsg.html#a1a57001709e44ab056a704c24760c105" target="_top" xlink:title=" ">
<polygon fill="white" stroke="#666666" points="1056.5,-609.5 977.5,-609.5 977.5,-590.5 1056.5,-590.5 1056.5,-609.5"/>
<text text-anchor="middle" x="1017" y="-597.5" font-family="Ubuntu Mono" font-size="10.00">Msg::getMsg</text>
</a>
</g>
</g>
<!-- Node18&#45;&gt;Node21 -->
<g id="edge21_Node000018_Node000021" class="edge">
<title>Node18&#45;&gt;Node21</title>
<g id="a_edge21_Node000018_Node000021"><a xlink:title=" ">
<path fill="none" stroke="#63b8ff" d="M884.87,-597.06C910.28,-597.63 941.56,-598.33 967.2,-598.91"/>
<polygon fill="#63b8ff" stroke="#63b8ff" points="967.36,-602.41 977.44,-599.14 967.52,-595.41 967.36,-602.41"/>
</a>
</g>
</g>
<!-- Node27 -->
<g id="Node000027" class="node">
<title>Node27</title>
<g id="a_Node000027"><a xlink:href="classCinfo.html#aa111a219c2868af6b8d7d181d5714e9d" target="_top" xlink:title=" ">
<polygon fill="white" stroke="#666666" points="1067,-646.5 967,-646.5 967,-627.5 1067,-627.5 1067,-646.5"/>
<text text-anchor="middle" x="1017" y="-634.5" font-family="Ubuntu Mono" font-size="10.00">Cinfo::getOpFunc</text>
</a>
</g>
</g>
<!-- Node18&#45;&gt;Node27 -->
<g id="edge27_Node000018_Node000027" class="edge">
<title>Node18&#45;&gt;Node27</title>
<g id="a_edge27_Node000018_Node000027"><a xlink:title=" ">
<path fill="none" stroke="#63b8ff" d="M878.9,-605.51C904.49,-611.39 937.53,-618.98 964.77,-625.23"/>
<polygon fill="#63b8ff" stroke="#63b8ff" points="963.99,-628.64 974.52,-627.47 965.55,-621.82 963.99,-628.64"/>
</a>
</g>
</g>
<!-- Node28 -->
<g id="Node000028" class="node">
<title>Node28</title>
<g id="a_Node000028"><a xlink:href="classFuncOrder.html#a4551f612b57ed99396fb4f5376c3ec71" target="_top" xlink:title=" ">
<polygon fill="white" stroke="#666666" points="1060.5,-683.5 973.5,-683.5 973.5,-664.5 1060.5,-664.5 1060.5,-683.5"/>
<text text-anchor="middle" x="1017" y="-671.5" font-family="Ubuntu Mono" font-size="10.00">FuncOrder::set</text>
</a>
</g>
</g>
<!-- Node18&#45;&gt;Node28 -->
<g id="edge28_Node000018_Node000028" class="edge">
<title>Node18&#45;&gt;Node28</title>
<g id="a_edge28_Node000018_Node000028"><a xlink:title=" ">
<path fill="none" stroke="#63b8ff" d="M880.75,-605.61C892.05,-609.16 903.88,-613.87 914,-620 933.35,-631.72 930.43,-644.64 950,-656 954.38,-658.54 959.14,-660.74 964.02,-662.63"/>
<polygon fill="#63b8ff" stroke="#63b8ff" points="962.9,-665.95 973.49,-665.91 965.19,-659.33 962.9,-665.95"/>
</a>
</g>
</g>
<!-- Node22 -->
<g id="Node000022" class="node">
<title>Node22</title>
<g id="a_Node000022"><a xlink:href="classObjId.html#a1e5933713d6a73550b0923cf63f5bfd8" target="_top" xlink:title=" ">
<polygon fill="white" stroke="#666666" points="1206.5,-609.5 1136.5,-609.5 1136.5,-590.5 1206.5,-590.5 1206.5,-609.5"/>
<text text-anchor="middle" x="1171.5" y="-597.5" font-family="Ubuntu Mono" font-size="10.00">ObjId::data</text>
</a>
</g>
</g>
<!-- Node21&#45;&gt;Node22 -->
<g id="edge22_Node000021_Node000022" class="edge">
<title>Node21&#45;&gt;Node22</title>
<g id="a_edge22_Node000021_Node000022"><a xlink:title=" ">
<path fill="none" stroke="#63b8ff" d="M1056.88,-600C1078.06,-600 1104.34,-600 1126.3,-600"/>
<polygon fill="#63b8ff" stroke="#63b8ff" points="1126.37,-603.5 1136.37,-600 1126.37,-596.5 1126.37,-603.5"/>
</a>
</g>
</g>
<!-- Node23 -->
<g id="Node000023" class="node">
<title>Node23</title>
<g id="a_Node000023"><a xlink:href="classElement.html#a1978a0a584f1b10ea4a7c67e69880042" target="_top" xlink:title=" ">
<polygon fill="white" stroke="#666666" points="1355.5,-609.5 1270.5,-609.5 1270.5,-590.5 1355.5,-590.5 1355.5,-609.5"/>
<text text-anchor="middle" x="1313" y="-597.5" font-family="Ubuntu Mono" font-size="10.00">Element::data</text>
</a>
</g>
</g>
<!-- Node22&#45;&gt;Node23 -->
<g id="edge23_Node000022_Node000023" class="edge">
<title>Node22&#45;&gt;Node23</title>
<g id="a_edge23_Node000022_Node000023"><a xlink:title=" ">
<path fill="none" stroke="#63b8ff" d="M1206.63,-600C1222.75,-600 1242.34,-600 1260.24,-600"/>
<polygon fill="#63b8ff" stroke="#63b8ff" points="1260.26,-603.5 1270.26,-600 1260.26,-596.5 1260.26,-603.5"/>
</a>
</g>
</g>
<!-- Node24 -->
<g id="Node000024" class="node">
<title>Node24</title>
<g id="a_Node000024"><a xlink:href="classId.html#a574e06330597163aef0ea4c99de7ff4a" target="_top" xlink:title="Synonym for Id::operator()()">
<polygon fill="white" stroke="#666666" points="1349,-572.5 1277,-572.5 1277,-553.5 1349,-553.5 1349,-572.5"/>
<text text-anchor="middle" x="1313" y="-560.5" font-family="Ubuntu Mono" font-size="10.00">Id::element</text>
</a>
</g>
</g>
<!-- Node22&#45;&gt;Node24 -->
<g id="edge24_Node000022_Node000024" class="edge">
<title>Node22&#45;&gt;Node24</title>
<g id="a_edge24_Node000022_Node000024"><a xlink:title=" ">
<path fill="none" stroke="#63b8ff" d="M1206.63,-590.95C1224.76,-586.14 1247.28,-580.16 1266.85,-574.98"/>
<polygon fill="#63b8ff" stroke="#63b8ff" points="1268,-578.29 1276.77,-572.34 1266.21,-571.52 1268,-578.29"/>
</a>
</g>
</g>
<!-- Node26 -->
<g id="Node000026" class="node">
<title>Node26</title>
<g id="a_Node000026"><a xlink:href="classElement.html#a73a0e468a3d6cfd6475fff4a56459075" target="_top" xlink:title=" ">
<polygon fill="white" stroke="#666666" points="1367,-646.5 1259,-646.5 1259,-627.5 1367,-627.5 1367,-646.5"/>
<text text-anchor="middle" x="1313" y="-634.5" font-family="Ubuntu Mono" font-size="10.00">Element::rawIndex</text>
</a>
</g>
</g>
<!-- Node22&#45;&gt;Node26 -->
<g id="edge26_Node000022_Node000026" class="edge">
<title>Node22&#45;&gt;Node26</title>
<g id="a_edge26_Node000022_Node000026"><a xlink:title=" ">
<path fill="none" stroke="#63b8ff" d="M1206.63,-609.05C1224.48,-613.79 1246.6,-619.65 1265.96,-624.79"/>
<polygon fill="#63b8ff" stroke="#63b8ff" points="1265.23,-628.21 1275.79,-627.4 1267.02,-621.45 1265.23,-628.21"/>
</a>
</g>
</g>
<!-- Node25 -->
<g id="Node000025" class="node">
<title>Node25</title>
<g id="a_Node000025"><a xlink:href="classId.html#a2d5e7b4d5d918aadfe45102691c2be27" target="_top" xlink:title=" ">
<polygon fill="white" stroke="#666666" points="1480,-572.5 1403,-572.5 1403,-553.5 1480,-553.5 1480,-572.5"/>
<text text-anchor="middle" x="1441.5" y="-560.5" font-family="Ubuntu Mono" font-size="10.00">Id::elements</text>
</a>
</g>
</g>
<!-- Node24&#45;&gt;Node25 -->
<g id="edge25_Node000024_Node000025" class="edge">
<title>Node24&#45;&gt;Node25</title>
<g id="a_edge25_Node000024_Node000025"><a xlink:title=" ">
<path fill="none" stroke="#63b8ff" d="M1349.24,-563C1362.65,-563 1378.17,-563 1392.56,-563"/>
<polygon fill="#63b8ff" stroke="#63b8ff" points="1392.8,-566.5 1402.8,-563 1392.8,-559.5 1392.8,-566.5"/>
</a>
</g>
</g>
<!-- Node29&#45;&gt;Node7 -->
<g id="edge33_Node000029_Node000007" class="edge">
<title>Node29&#45;&gt;Node7</title>
<g id="a_edge33_Node000029_Node000007"><a xlink:title=" ">
<path fill="none" stroke="#63b8ff" d="M902.17,-568.06C906.56,-570.84 910.58,-574.12 914,-578 970.49,-642.2 891.94,-704.22 950,-767 956.96,-774.52 966.72,-779.02 976.6,-781.67"/>
<polygon fill="#63b8ff" stroke="#63b8ff" points="975.92,-785.11 986.43,-783.76 977.37,-778.26 975.92,-785.11"/>
</a>
</g>
</g>
<!-- Node29&#45;&gt;Node11 -->
<g id="edge30_Node000029_Node000011" class="edge">
<title>Node29&#45;&gt;Node11</title>
<g id="a_edge30_Node000029_Node000011"><a xlink:title=" ">
<path fill="none" stroke="#63b8ff" d="M901.62,-568.01C906.19,-570.79 910.41,-574.09 914,-578 961,-629.09 901.74,-680.09 950,-730 953.92,-734.06 958.66,-737.23 963.78,-739.7"/>
<polygon fill="#63b8ff" stroke="#63b8ff" points="962.72,-743.04 973.3,-743.44 965.27,-736.53 962.72,-743.04"/>
</a>
</g>
</g>
<!-- Node29&#45;&gt;Node16 -->
<g id="edge38_Node000029_Node000016" class="edge">
<title>Node29&#45;&gt;Node16</title>
<g id="a_edge38_Node000029_Node000016"><a xlink:title=" ">
<path fill="none" stroke="#63b8ff" d="M900.96,-568.08C905.73,-570.85 910.17,-574.12 914,-578 951.63,-616.11 911.43,-655.84 950,-693 951.29,-694.25 952.66,-695.41 954.1,-696.49"/>
<polygon fill="#63b8ff" stroke="#63b8ff" points="952.56,-699.65 962.92,-701.87 956.21,-693.68 952.56,-699.65"/>
</a>
</g>
</g>
<!-- Node29&#45;&gt;Node17 -->
<g id="edge39_Node000029_Node000017" class="edge">
<title>Node29&#45;&gt;Node17</title>
<g id="a_edge39_Node000029_Node000017"><a xlink:title=" ">
<path fill="none" stroke="#63b8ff" d="M889.27,-568.01C944.55,-580.57 1031.31,-589.77 1084,-543 1159.41,-476.06 1087.48,-414.44 1120,-319 1129.44,-291.31 1146.67,-262.08 1158.36,-243.95"/>
<polygon fill="#63b8ff" stroke="#63b8ff" points="1161.31,-245.82 1163.89,-235.54 1155.47,-241.97 1161.31,-245.82"/>
</a>
</g>
</g>
<!-- Node29&#45;&gt;Node19 -->
<g id="edge31_Node000029_Node000019" class="edge">
<title>Node29&#45;&gt;Node19</title>
<g id="a_edge31_Node000029_Node000019"><a xlink:title=" ">
<path fill="none" stroke="#63b8ff" d="M853.76,-537.83C874.57,-519.15 912.45,-487.64 950,-469 959.19,-464.43 969.67,-460.79 979.52,-457.97"/>
<polygon fill="#63b8ff" stroke="#63b8ff" points="980.73,-461.27 989.49,-455.31 978.92,-454.5 980.73,-461.27"/>
</a>
</g>
</g>
<!-- Node29&#45;&gt;Node20 -->
<g id="edge32_Node000029_Node000020" class="edge">
<title>Node29&#45;&gt;Node20</title>
<g id="a_edge32_Node000029_Node000020"><a xlink:title=" ">
<path fill="none" stroke="#63b8ff" d="M870.58,-537.99C892.79,-528.21 922.84,-515.55 950,-506 959.52,-502.65 969.95,-499.44 979.66,-496.65"/>
<polygon fill="#63b8ff" stroke="#63b8ff" points="980.77,-499.97 989.44,-493.89 978.87,-493.23 980.77,-499.97"/>
</a>
</g>
</g>
<!-- Node29&#45;&gt;Node21 -->
<g id="edge34_Node000029_Node000021" class="edge">
<title>Node29&#45;&gt;Node21</title>
<g id="a_edge34_Node000029_Node000021"><a xlink:title=" ">
<path fill="none" stroke="#63b8ff" d="M894.47,-568C918.82,-574.41 946.88,-581.8 969.9,-587.86"/>
<polygon fill="#63b8ff" stroke="#63b8ff" points="969.19,-591.29 979.76,-590.46 970.98,-584.53 969.19,-591.29"/>
</a>
</g>
</g>
<!-- Node29&#45;&gt;Node27 -->
<g id="edge35_Node000029_Node000027" class="edge">
<title>Node29&#45;&gt;Node27</title>
<g id="a_edge35_Node000029_Node000027"><a xlink:title=" ">
<path fill="none" stroke="#63b8ff" d="M895.06,-568.04C901.7,-570.86 908.17,-574.15 914,-578 934.24,-591.35 929.43,-606.15 950,-619 952.63,-620.65 955.42,-622.14 958.3,-623.5"/>
<polygon fill="#63b8ff" stroke="#63b8ff" points="957.15,-626.82 967.73,-627.41 959.83,-620.35 957.15,-626.82"/>
</a>
</g>
</g>
<!-- Node30 -->
<g id="Node000030" class="node">
<title>Node30</title>
<g id="a_Node000030"><a xlink:href="classOpFunc.html#acebf5db12a82f08ca7aed646dfc4a99a" target="_top" xlink:title=" ">
<polygon fill="white" stroke="#666666" points="1081,-533.5 953,-533.5 953,-514.5 1081,-514.5 1081,-533.5"/>
<text text-anchor="middle" x="1017" y="-521.5" font-family="Ubuntu Mono" font-size="10.00">OpFunc::makeHopFunc</text>
</a>
</g>
</g>
<!-- Node29&#45;&gt;Node30 -->
<g id="edge36_Node000029_Node000030" class="edge">
<title>Node29&#45;&gt;Node30</title>
<g id="a_edge36_Node000029_Node000030"><a xlink:title=" ">
<path fill="none" stroke="#63b8ff" d="M913.72,-540.62C924.89,-538.8 936.34,-536.94 947.35,-535.15"/>
<polygon fill="#63b8ff" stroke="#63b8ff" points="948.01,-538.59 957.31,-533.53 946.88,-531.68 948.01,-538.59"/>
</a>
</g>
</g>
<!-- Node31 -->
<g id="Node000031" class="node">
<title>Node31</title>
<g id="a_Node000031"><a xlink:href="classMsgDigest.html#aed14727a58012c32839433c2ae957aac" target="_top" xlink:title=" ">
<polygon fill="white" stroke="#666666" points="1080,-422.5 954,-422.5 954,-403.5 1080,-403.5 1080,-422.5"/>
<text text-anchor="middle" x="1017" y="-410.5" font-family="Ubuntu Mono" font-size="10.00">MsgDigest::MsgDigest</text>
</a>
</g>
</g>
<!-- Node29&#45;&gt;Node31 -->
<g id="edge37_Node000029_Node000031" class="edge">
<title>Node29&#45;&gt;Node31</title>
<g id="a_edge37_Node000029_Node000031"><a xlink:title=" ">
<path fill="none" stroke="#63b8ff" d="M847.37,-537.9C864.92,-512.26 904.06,-460.23 950,-432 953.54,-429.82 957.35,-427.89 961.27,-426.16"/>
<polygon fill="#63b8ff" stroke="#63b8ff" points="962.55,-429.42 970.59,-422.53 960,-422.9 962.55,-429.42"/>
</a>
</g>
</g>
<!-- Node32&#45;&gt;Node9 -->
<g id="edge53_Node000032_Node000009" class="edge">
<title>Node32&#45;&gt;Node9</title>
<g id="a_edge53_Node000032_Node000009"><a xlink:title=" ">
<path fill="none" stroke="#63b8ff" d="M845.24,-309.24C859.73,-290.73 891.53,-248.96 914,-211 932.63,-179.53 922.83,-161.48 950,-137 954.47,-132.97 959.66,-129.61 965.14,-126.8"/>
<polygon fill="#63b8ff" stroke="#63b8ff" points="966.86,-129.86 974.55,-122.57 963.99,-123.48 966.86,-129.86"/>
</a>
</g>
</g>
<!-- Node32&#45;&gt;Node17 -->
<g id="edge57_Node000032_Node000017" class="edge">
<title>Node32&#45;&gt;Node17</title>
<g id="a_edge57_Node000032_Node000017"><a xlink:title=" ">
<path fill="none" stroke="#63b8ff" d="M844.63,-309.06C868.15,-276.34 942.2,-173.88 950,-170 1003.31,-143.45 1026.89,-153.13 1084,-170 1110.15,-177.73 1135.83,-196.11 1152.32,-209.71"/>
<polygon fill="#63b8ff" stroke="#63b8ff" points="1150.18,-212.49 1160.07,-216.31 1154.73,-207.16 1150.18,-212.49"/>
</a>
</g>
</g>
<!-- Node32&#45;&gt;Node19 -->
<g id="edge41_Node000032_Node000019" class="edge">
<title>Node32&#45;&gt;Node19</title>
<g id="a_edge41_Node000032_Node000019"><a xlink:title=" ">
<path fill="none" stroke="#63b8ff" d="M844.19,-328.53C859.98,-350.32 901.91,-404.02 950,-432 959.01,-437.24 969.6,-441 979.62,-443.69"/>
<polygon fill="#63b8ff" stroke="#63b8ff" points="978.84,-447.1 989.38,-446.02 980.47,-440.29 978.84,-447.1"/>
</a>
</g>
</g>
<!-- Node32&#45;&gt;Node20 -->
<g id="edge42_Node000032_Node000020" class="edge">
<title>Node32&#45;&gt;Node20</title>
<g id="a_edge42_Node000032_Node000020"><a xlink:title=" ">
<path fill="none" stroke="#63b8ff" d="M841.98,-328.83C854.73,-355.71 893.99,-430.95 950,-469 958.69,-474.91 969.26,-478.88 979.38,-481.55"/>
<polygon fill="#63b8ff" stroke="#63b8ff" points="978.72,-484.99 989.25,-483.81 980.28,-478.17 978.72,-484.99"/>
</a>
</g>
</g>
<!-- Node32&#45;&gt;Node21 -->
<g id="edge51_Node000032_Node000021" class="edge">
<title>Node32&#45;&gt;Node21</title>
<g id="a_edge51_Node000032_Node000021"><a xlink:title=" ">
<path fill="none" stroke="#63b8ff" d="M840.81,-328.72C852.23,-361.36 892.49,-469.2 950,-543 962.48,-559.02 980.01,-573.9 993.86,-584.44"/>
<polygon fill="#63b8ff" stroke="#63b8ff" points="991.82,-587.28 1001.94,-590.41 995.98,-581.65 991.82,-587.28"/>
</a>
</g>
</g>
<!-- Node32&#45;&gt;Node31 -->
<g id="edge54_Node000032_Node000031" class="edge">
<title>Node32&#45;&gt;Node31</title>
<g id="a_edge54_Node000032_Node000031"><a xlink:title=" ">
<path fill="none" stroke="#63b8ff" d="M848.88,-328.58C868.38,-344.54 909.94,-376.62 950,-395 954.29,-396.97 958.85,-398.76 963.48,-400.39"/>
<polygon fill="#63b8ff" stroke="#63b8ff" points="962.43,-403.73 973.02,-403.48 964.59,-397.07 962.43,-403.73"/>
</a>
</g>
</g>
<!-- Node33 -->
<g id="Node000033" class="node">
<title>Node33</title>
<g id="a_Node000033"><a xlink:href="Element_8cpp.html#a57a0a78418a1071569a8d86e7e8b7fc6" target="_top" xlink:title=" ">
<polygon fill="white" stroke="#666666" points="1074,-385.5 960,-385.5 960,-366.5 1074,-366.5 1074,-385.5"/>
<text text-anchor="middle" x="1017" y="-373.5" font-family="Ubuntu Mono" font-size="10.00">filterOffNodeTargets</text>
</a>
</g>
</g>
<!-- Node32&#45;&gt;Node33 -->
<g id="edge43_Node000032_Node000033" class="edge">
<title>Node32&#45;&gt;Node33</title>
<g id="a_edge43_Node000032_Node000033"><a xlink:title=" ">
<path fill="none" stroke="#63b8ff" d="M867.38,-328.54C897.24,-338.08 943.33,-352.79 976.26,-363.31"/>
<polygon fill="#63b8ff" stroke="#63b8ff" points="975.43,-366.72 986.03,-366.43 977.56,-360.05 975.43,-366.72"/>
</a>
</g>
</g>
<!-- Node36 -->
<g id="Node000036" class="node">
<title>Node36</title>
<g id="a_Node000036"><a xlink:href="classElement.html#a695b42ddcfcbedf97d74718b92da5020" target="_top" xlink:title="True if there is a copy of every dataEntry on all nodes.">
<polygon fill="white" stroke="#666666" points="1223,-347.5 1120,-347.5 1120,-328.5 1223,-328.5 1223,-347.5"/>
<text text-anchor="middle" x="1171.5" y="-335.5" font-family="Ubuntu Mono" font-size="10.00">Element::isGlobal</text>
</a>
</g>
</g>
<!-- Node32&#45;&gt;Node36 -->
<g id="edge52_Node000032_Node000036" class="edge">
<title>Node32&#45;&gt;Node36</title>
<g id="a_edge52_Node000032_Node000036"><a xlink:title=" ">
<path fill="none" stroke="#63b8ff" d="M914.32,-323.38C973.68,-326.77 1054.73,-331.39 1109.65,-334.53"/>
<polygon fill="#63b8ff" stroke="#63b8ff" points="1109.75,-338.04 1119.93,-335.11 1110.15,-331.05 1109.75,-338.04"/>
</a>
</g>
</g>
<!-- Node37 -->
<g id="Node000037" class="node">
<title>Node37</title>
<g id="a_Node000037"><a xlink:href="classFuncOrder.html#ac395ecf9872fda11b5636dcec9d6652e" target="_top" xlink:title=" ">
<polygon fill="white" stroke="#666666" points="1063.5,-309.5 970.5,-309.5 970.5,-290.5 1063.5,-290.5 1063.5,-309.5"/>
<text text-anchor="middle" x="1017" y="-297.5" font-family="Ubuntu Mono" font-size="10.00">FuncOrder::func</text>
</a>
</g>
</g>
<!-- Node32&#45;&gt;Node37 -->
<g id="edge50_Node000032_Node000037" class="edge">
<title>Node32&#45;&gt;Node37</title>
<g id="a_edge50_Node000032_Node000037"><a xlink:title=" ">
<path fill="none" stroke="#63b8ff" d="M914.24,-310.83C929.6,-309.2 945.46,-307.51 959.96,-305.97"/>
<polygon fill="#63b8ff" stroke="#63b8ff" points="960.68,-309.41 970.25,-304.87 959.93,-302.45 960.68,-309.41"/>
</a>
</g>
</g>
<!-- Node38 -->
<g id="Node000038" class="node">
<title>Node38</title>
<g id="a_Node000038"><a xlink:href="classShell.html#a4c3608b6ca5fcec63a13b12c49b9d530" target="_top" xlink:title=" ">
<polygon fill="white" stroke="#666666" points="1061,-272.5 973,-272.5 973,-253.5 1061,-253.5 1061,-272.5"/>
<text text-anchor="middle" x="1017" y="-260.5" font-family="Ubuntu Mono" font-size="10.00">Shell::myNode</text>
</a>
</g>
</g>
<!-- Node32&#45;&gt;Node38 -->
<g id="edge55_Node000032_Node000038" class="edge">
<title>Node32&#45;&gt;Node38</title>
<g id="a_edge55_Node000032_Node000038"><a xlink:title=" ">
<path fill="none" stroke="#63b8ff" d="M864.18,-309.49C886.88,-301.52 920.42,-290.02 950,-281 956.41,-279.04 963.2,-277.08 969.9,-275.2"/>
<polygon fill="#63b8ff" stroke="#63b8ff" points="970.87,-278.56 979.58,-272.52 969.01,-271.81 970.87,-278.56"/>
</a>
</g>
</g>
<!-- Node32&#45;&gt;Node39 -->
<g id="edge56_Node000032_Node000039" class="edge">
<title>Node32&#45;&gt;Node39</title>
<g id="a_edge56_Node000032_Node000039"><a xlink:title=" ">
<path fill="none" stroke="#63b8ff" d="M839.43,-309.11C846.84,-273.97 876.71,-154.08 950,-94 951.55,-92.73 953.18,-91.55 954.88,-90.45"/>
<polygon fill="#63b8ff" stroke="#63b8ff" points="956.69,-93.45 963.82,-85.62 953.36,-87.29 956.69,-93.45"/>
</a>
</g>
</g>
<!-- Node40 -->
<g id="Node000040" class="node">
<title>Node40</title>
<g id="a_Node000040"><a xlink:href="classMsg.html#a75bb9c90ff83027b60f24b1d8304128e" target="_top" xlink:title=" ">
<polygon fill="white" stroke="#666666" points="1057,-235.5 977,-235.5 977,-216.5 1057,-216.5 1057,-235.5"/>
<text text-anchor="middle" x="1017" y="-223.5" font-family="Ubuntu Mono" font-size="10.00">Msg::sources</text>
</a>
</g>
</g>
<!-- Node32&#45;&gt;Node40 -->
<g id="edge58_Node000032_Node000040" class="edge">
<title>Node32&#45;&gt;Node40</title>
<g id="a_edge58_Node000032_Node000040"><a xlink:title=" ">
<path fill="none" stroke="#63b8ff" d="M849.22,-309.3C868.88,-293.48 910.26,-262.09 950,-244 955.4,-241.54 961.21,-239.36 967.06,-237.43"/>
<polygon fill="#63b8ff" stroke="#63b8ff" points="968.33,-240.7 976.88,-234.44 966.29,-234.01 968.33,-240.7"/>
</a>
</g>
</g>
<!-- Node41 -->
<g id="Node000041" class="node">
<title>Node41</title>
<g id="a_Node000041"><a xlink:href="classMsg.html#a24399903558da20171f6bd8e317c6c38" target="_top" xlink:title=" ">
<polygon fill="white" stroke="#666666" points="1055.5,-198.5 978.5,-198.5 978.5,-179.5 1055.5,-179.5 1055.5,-198.5"/>
<text text-anchor="middle" x="1017" y="-186.5" font-family="Ubuntu Mono" font-size="10.00">Msg::targets</text>
</a>
</g>
</g>
<!-- Node32&#45;&gt;Node41 -->
<g id="edge59_Node000032_Node000041" class="edge">
<title>Node32&#45;&gt;Node41</title>
<g id="a_edge59_Node000032_Node000041"><a xlink:title=" ">
<path fill="none" stroke="#63b8ff" d="M844.45,-309.23C860.46,-287.44 902.3,-234.61 950,-207 955.8,-203.64 962.25,-200.89 968.78,-198.64"/>
<polygon fill="#63b8ff" stroke="#63b8ff" points="969.82,-201.98 978.35,-195.69 967.76,-195.29 969.82,-201.98"/>
</a>
</g>
</g>
<!-- Node33&#45;&gt;Node5 -->
<g id="edge44_Node000033_Node000005" class="edge">
<title>Node33&#45;&gt;Node5</title>
<g id="a_edge44_Node000033_Node000005"><a xlink:title=" ">
<path fill="none" stroke="#63b8ff" d="M1071.98,-385.6C1076.48,-388.08 1080.6,-391.16 1084,-395 1150.86,-470.48 1093.6,-521.69 1120,-619 1131.04,-659.69 1150.42,-705.17 1161.7,-730.1"/>
<polygon fill="#63b8ff" stroke="#63b8ff" points="1158.63,-731.82 1165.98,-739.45 1165,-728.9 1158.63,-731.82"/>
</a>
</g>
</g>
<!-- Node33&#45;&gt;Node6 -->
<g id="edge45_Node000033_Node000006" class="edge">
<title>Node33&#45;&gt;Node6</title>
<g id="a_edge45_Node000033_Node000006"><a xlink:title=" ">
<path fill="none" stroke="#63b8ff" d="M1063.41,-385.53C1070.58,-388.02 1077.7,-391.13 1084,-395 1115.75,-414.51 1143.28,-448.79 1158.32,-469.83"/>
<polygon fill="#63b8ff" stroke="#63b8ff" points="1155.57,-472.01 1164.15,-478.22 1161.31,-468.01 1155.57,-472.01"/>
</a>
</g>
</g>
<!-- Node33&#45;&gt;Node17 -->
<g id="edge49_Node000033_Node000017" class="edge">
<title>Node33&#45;&gt;Node17</title>
<g id="a_edge49_Node000033_Node000017"><a xlink:title=" ">
<path fill="none" stroke="#63b8ff" d="M1029.5,-366.47C1042.91,-355.23 1065.58,-335.81 1084,-318 1109.95,-292.91 1138.3,-262.04 1155.23,-243.2"/>
<polygon fill="#63b8ff" stroke="#63b8ff" points="1157.89,-245.48 1161.95,-235.69 1152.67,-240.81 1157.89,-245.48"/>
</a>
</g>
</g>
<!-- Node34 -->
<g id="Node000034" class="node">
<title>Node34</title>
<g id="a_Node000034"><a xlink:href="classEref.html#a5dee1e5d3e0a76726286eccbb0ffda24" target="_top" xlink:title=" ">
<polygon fill="white" stroke="#666666" points="1213,-385.5 1130,-385.5 1130,-366.5 1213,-366.5 1213,-385.5"/>
<text text-anchor="middle" x="1171.5" y="-373.5" font-family="Ubuntu Mono" font-size="10.00">Eref::getNode</text>
</a>
</g>
</g>
<!-- Node33&#45;&gt;Node34 -->
<g id="edge46_Node000033_Node000034" class="edge">
<title>Node33&#45;&gt;Node34</title>
<g id="a_edge46_Node000033_Node000034"><a xlink:title=" ">
<path fill="none" stroke="#63b8ff" d="M1074.35,-376C1089.1,-376 1104.91,-376 1119.37,-376"/>
<polygon fill="#63b8ff" stroke="#63b8ff" points="1119.63,-379.5 1129.63,-376 1119.63,-372.5 1119.63,-379.5"/>
</a>
</g>
</g>
<!-- Node33&#45;&gt;Node36 -->
<g id="edge48_Node000033_Node000036" class="edge">
<title>Node33&#45;&gt;Node36</title>
<g id="a_edge48_Node000033_Node000036"><a xlink:title=" ">
<path fill="none" stroke="#63b8ff" d="M1056.48,-366.41C1076.52,-361.42 1101.2,-355.27 1122.48,-349.97"/>
<polygon fill="#63b8ff" stroke="#63b8ff" points="1123.44,-353.33 1132.29,-347.52 1121.74,-346.54 1123.44,-353.33"/>
</a>
</g>
</g>
<!-- Node35 -->
<g id="Node000035" class="node">
<title>Node35</title>
<g id="a_Node000035"><a xlink:href="classElement.html#a6350d721871c508fbf68286a3907e4a1" target="_top" xlink:title="Returns node number of specified dataIndex.">
<polygon fill="white" stroke="#666666" points="1365,-385.5 1261,-385.5 1261,-366.5 1365,-366.5 1365,-385.5"/>
<text text-anchor="middle" x="1313" y="-373.5" font-family="Ubuntu Mono" font-size="10.00">Element::getNode</text>
</a>
</g>
</g>
<!-- Node34&#45;&gt;Node35 -->
<g id="edge47_Node000034_Node000035" class="edge">
<title>Node34&#45;&gt;Node35</title>
<g id="a_edge47_Node000034_Node000035"><a xlink:title=" ">
<path fill="none" stroke="#63b8ff" d="M1213.22,-376C1224.96,-376 1238.04,-376 1250.73,-376"/>
<polygon fill="#63b8ff" stroke="#63b8ff" points="1250.8,-379.5 1260.8,-376 1250.8,-372.5 1250.8,-379.5"/>
</a>
</g>
</g>
</g>
</svg>

<g id="navigator" transform="translate(0 0)" fill="#404254">
  <rect fill="#f2f5e9" fill-opacity="0.5" stroke="#606060" stroke-width=".5" x="0" y="0" width="60" height="60"/>
  <use id="zoomplus" xlink:href="#zoomPlus" x="17" y="9" onmousedown="handleZoom(evt,'in')"/>
  <use id="zoomminus" xlink:href="#zoomMin" x="42" y="9" onmousedown="handleZoom(evt,'out')"/>
  <use id="reset" xlink:href="#resetDef" x="30" y="36" onmousedown="handleReset()"/>
   <use id="arrowup" xlink:href="#arrowUp" x="0" y="0" onmousedown="handlePan(0,-1)"/>
  <use id="arrowright" xlink:href="#arrowRight" x="0" y="0" onmousedown="handlePan(1,0)"/>
  <use id="arrowdown" xlink:href="#arrowDown" x="0" y="0" onmousedown="handlePan(0,1)"/>
  <use id="arrowleft" xlink:href="#arrowLeft" x="0" y="0" onmousedown="handlePan(-1,0)"/>
</g>
<svg viewBox="0 0 15 15" width="100%" height="30px" preserveAspectRatio="xMaxYMin meet">
 <g id="arrow_out" transform="scale(0.3 0.3)">
  <a xlink:href="classFunction_a9941ed57eade7fe467f8fd171371961c_cgraph_org.svg" target="_base">
   <rect id="button" ry="5" rx="5" y="6" x="6" height="38" width="38"
        fill="#f2f5e9" fill-opacity="0.5" stroke="#606060" stroke-width="1.0"/>
   <path id="arrow"
     d="M 11.500037,31.436501 C 11.940474,20.09759 22.043105,11.32322 32.158766,21.979434 L 37.068811,17.246167 C 37.068811,17.246167 37.088388,32 37.088388,32 L 22.160133,31.978069 C 22.160133,31.978069 26.997745,27.140456 26.997745,27.140456 C 18.528582,18.264221 13.291696,25.230495 11.500037,31.436501 z"
     style="fill:#404040;"/>
  </a>
 </g>
</svg>

<style type='text/css'>
<![CDATA[
[data-mouse-over-selected='false'] { opacity: 0.7; }
[data-mouse-over-selected='true']  { opacity: 1.0; }
]]>
</style>
<script type="application/ecmascript"><![CDATA[
document.addEventListener('DOMContentLoaded', (event) => {
  highlightEdges();
  highlightAdjacentNodes();
});
]]></script>
</svg>
