<?xml version="1.0" encoding="UTF-8" standalone="no"?>
<!DOCTYPE svg PUBLIC "-//W3C//DTD SVG 1.1//EN"
 "http://www.w3.org/Graphics/SVG/1.1/DTD/svg11.dtd">
<!-- Generated by graphviz version 2.43.0 (0)
 -->
<!-- Title: HHGateF2D Pages: 1 -->
<!--zoomable 1227 -->

<svg id="main" version="1.1" xmlns="http://www.w3.org/2000/svg" xmlns:xlink="http://www.w3.org/1999/xlink" xml:space="preserve" onload="init(evt)">
<style type="text/css"><![CDATA[
.node, .edge {opacity: 0.7;}
.node.selected, .edge.selected {opacity: 1;}
.edge:hover path { stroke: red; }
.edge:hover polygon { stroke: red; fill: red; }
]]></style>

<defs>
  <circle id="rim" cx="0" cy="0" r="7"/>
  <circle id="rim2" cx="0" cy="0" r="3.5"/>
  <g id="zoomPlus">
    <use xlink:href="#rim" fill="#404040"><set attributeName="fill" to="#808080" begin="zoomplus.mouseover" end="zoomplus.mouseout"/></use>
    <path d="M-4,0h8M0,-4v8" fill="none" stroke="white" stroke-width="1.5" pointer-events="none"/>
  </g>
  <g id="zoomMin">
    <use xlink:href="#rim" fill="#404040"><set attributeName="fill" to="#808080" begin="zoomminus.mouseover" end="zoomminus.mouseout"/></use>
    <path d="M-4,0h8" fill="none" stroke="white" stroke-width="1.5" pointer-events="none"/>
  </g>
  <g id="arrowUp" transform="translate(30 24)">
    <use xlink:href="#rim"/>
    <path pointer-events="none" fill="none" stroke="white" stroke-width="1.5" d="M0,-3.0v7 M-2.5,-0.5L0,-3.0L2.5,-0.5"/>
  </g>
  <g id="arrowRight" transform="rotate(90) translate(36 -43)">
    <use xlink:href="#rim"/>
    <path pointer-events="none" fill="none" stroke="white" stroke-width="1.5" d="M0,-3.0v7 M-2.5,-0.5L0,-3.0L2.5,-0.5"/>
  </g>
  <g id="arrowDown" transform="rotate(180) translate(-30 -48)">
    <use xlink:href="#rim"/>
    <path pointer-events="none" fill="none" stroke="white" stroke-width="1.5" d="M0,-3.0v7 M-2.5,-0.5L0,-3.0L2.5,-0.5"/>
  </g>
  <g id="arrowLeft" transform="rotate(270) translate(-36 17)">
    <use xlink:href="#rim"/>
    <path pointer-events="none" fill="none" stroke="white" stroke-width="1.5" d="M0,-3.0v7 M-2.5,-0.5L0,-3.0L2.5,-0.5"/>
  </g>
  <g id="resetDef">
    <use xlink:href="#rim2" fill="#404040"><set attributeName="fill" to="#808080" begin="reset.mouseover" end="reset.mouseout"/></use>
  </g>
</defs>
<script type="application/ecmascript">
var viewWidth = 236;
var viewHeight = 1227;
var sectionId = 'dynsection-1';
</script>
<script type="application/ecmascript" xlink:href="svg.min.js"/>
<svg id="graph" class="graph">
<g id="viewport">
<title>HHGateF2D</title>
<!-- Node1 -->
<g id="Node000001" class="node">
<title>Node1</title>
<g id="a_Node000001"><a xlink:title=" ">
<polygon fill="#999999" stroke="transparent" points="156.5,-139 69.5,-139 69.5,0 156.5,0 156.5,-139"/>
<text text-anchor="start" x="84.5" y="-126.5" font-family="Ubuntu Mono" font-size="10.00">HHGateF2D</text>
<text text-anchor="start" x="76.5" y="-111.5" font-family="Ubuntu Mono" font-size="10.00">&#45;</text>
<text text-anchor="start" x="87" y="-111.5" font-family="Ubuntu Mono" font-size="10.00">conc_</text>
<text text-anchor="start" x="74" y="-96.5" font-family="Ubuntu Mono" font-size="10.00">+</text>
<text text-anchor="start" x="87" y="-96.5" font-family="Ubuntu Mono" font-size="10.00">HHGateF2D()</text>
<text text-anchor="start" x="74" y="-81.5" font-family="Ubuntu Mono" font-size="10.00">+</text>
<text text-anchor="start" x="87" y="-81.5" font-family="Ubuntu Mono" font-size="10.00">HHGateF2D()</text>
<text text-anchor="start" x="74" y="-66.5" font-family="Ubuntu Mono" font-size="10.00">+</text>
<text text-anchor="start" x="87" y="-66.5" font-family="Ubuntu Mono" font-size="10.00">lookupA()</text>
<text text-anchor="start" x="74" y="-51.5" font-family="Ubuntu Mono" font-size="10.00">+</text>
<text text-anchor="start" x="87" y="-51.5" font-family="Ubuntu Mono" font-size="10.00">lookupB()</text>
<text text-anchor="start" x="74" y="-36.5" font-family="Ubuntu Mono" font-size="10.00">+</text>
<text text-anchor="start" x="87" y="-36.5" font-family="Ubuntu Mono" font-size="10.00">lookupBoth()</text>
<text text-anchor="start" x="74" y="-21.5" font-family="Ubuntu Mono" font-size="10.00">+</text>
<text text-anchor="start" x="87" y="-21.5" font-family="Ubuntu Mono" font-size="10.00">operator=()</text>
<text text-anchor="start" x="74" y="-6.5" font-family="Ubuntu Mono" font-size="10.00">+</text>
<text text-anchor="start" x="87" y="-6.5" font-family="Ubuntu Mono" font-size="10.00">initCinfo()</text>
<polygon fill="#666666" stroke="#666666" points="70,-121.5 70,-121.5 157,-121.5 157,-121.5 70,-121.5"/>
<polygon fill="#666666" stroke="#666666" points="70,-106.5 70,-106.5 85,-106.5 85,-106.5 70,-106.5"/>
<polygon fill="#666666" stroke="#666666" points="85,-106.5 85,-106.5 157,-106.5 157,-106.5 85,-106.5"/>
<polygon fill="none" stroke="#666666" points="69.5,0 69.5,-139 156.5,-139 156.5,0 69.5,0"/>
</a>
</g>
</g>
<!-- Node2 -->
<g id="Node000002" class="node">
<title>Node2</title>
<g id="a_Node000002"><a xlink:href="classHHGateF.html" target="_top" xlink:title=" ">
<polygon fill="white" stroke="transparent" points="155,-570 71,-570 71,-176 155,-176 155,-570"/>
<text text-anchor="start" x="90.5" y="-558" font-family="Ubuntu Mono" font-size="10.00">HHGateF</text>
<text text-anchor="start" x="75" y="-543" font-family="Ubuntu Mono" font-size="10.00">#</text>
<text text-anchor="start" x="88" y="-543" font-family="Ubuntu Mono" font-size="10.00">alpha_</text>
<text text-anchor="start" x="75" y="-528" font-family="Ubuntu Mono" font-size="10.00">#</text>
<text text-anchor="start" x="88" y="-528" font-family="Ubuntu Mono" font-size="10.00">alphav_</text>
<text text-anchor="start" x="75" y="-513" font-family="Ubuntu Mono" font-size="10.00">#</text>
<text text-anchor="start" x="88" y="-513" font-family="Ubuntu Mono" font-size="10.00">beta_</text>
<text text-anchor="start" x="75" y="-498" font-family="Ubuntu Mono" font-size="10.00">#</text>
<text text-anchor="start" x="88" y="-498" font-family="Ubuntu Mono" font-size="10.00">betav_</text>
<text text-anchor="start" x="75" y="-483" font-family="Ubuntu Mono" font-size="10.00">#</text>
<text text-anchor="start" x="88" y="-483" font-family="Ubuntu Mono" font-size="10.00">infv_</text>
<text text-anchor="start" x="75" y="-468" font-family="Ubuntu Mono" font-size="10.00">#</text>
<text text-anchor="start" x="88" y="-468" font-family="Ubuntu Mono" font-size="10.00">parser_</text>
<text text-anchor="start" x="75" y="-453" font-family="Ubuntu Mono" font-size="10.00">#</text>
<text text-anchor="start" x="88" y="-453" font-family="Ubuntu Mono" font-size="10.00">symTab_</text>
<text text-anchor="start" x="75" y="-438" font-family="Ubuntu Mono" font-size="10.00">#</text>
<text text-anchor="start" x="88" y="-438" font-family="Ubuntu Mono" font-size="10.00">tauInf_</text>
<text text-anchor="start" x="75" y="-423" font-family="Ubuntu Mono" font-size="10.00">#</text>
<text text-anchor="start" x="88" y="-423" font-family="Ubuntu Mono" font-size="10.00">tauv_</text>
<text text-anchor="start" x="75" y="-408" font-family="Ubuntu Mono" font-size="10.00">#</text>
<text text-anchor="start" x="88" y="-408" font-family="Ubuntu Mono" font-size="10.00">v_</text>
<text text-anchor="start" x="75" y="-393" font-family="Ubuntu Mono" font-size="10.00">+</text>
<text text-anchor="start" x="88" y="-393" font-family="Ubuntu Mono" font-size="10.00">getAlpha()</text>
<text text-anchor="start" x="75" y="-378" font-family="Ubuntu Mono" font-size="10.00">+</text>
<text text-anchor="start" x="88" y="-378" font-family="Ubuntu Mono" font-size="10.00">getBeta()</text>
<text text-anchor="start" x="75" y="-363" font-family="Ubuntu Mono" font-size="10.00">+</text>
<text text-anchor="start" x="88" y="-363" font-family="Ubuntu Mono" font-size="10.00">getInf()</text>
<text text-anchor="start" x="75" y="-348" font-family="Ubuntu Mono" font-size="10.00">+</text>
<text text-anchor="start" x="88" y="-348" font-family="Ubuntu Mono" font-size="10.00">getTau()</text>
<text text-anchor="start" x="75" y="-333" font-family="Ubuntu Mono" font-size="10.00">+</text>
<text text-anchor="start" x="88" y="-333" font-family="Ubuntu Mono" font-size="10.00">HHGateF()</text>
<text text-anchor="start" x="75" y="-318" font-family="Ubuntu Mono" font-size="10.00">+</text>
<text text-anchor="start" x="88" y="-318" font-family="Ubuntu Mono" font-size="10.00">HHGateF()</text>
<text text-anchor="start" x="75" y="-303" font-family="Ubuntu Mono" font-size="10.00">+</text>
<text text-anchor="start" x="88" y="-303" font-family="Ubuntu Mono" font-size="10.00">lookupA()</text>
<text text-anchor="start" x="75" y="-288" font-family="Ubuntu Mono" font-size="10.00">+</text>
<text text-anchor="start" x="88" y="-288" font-family="Ubuntu Mono" font-size="10.00">lookupB()</text>
<text text-anchor="start" x="75" y="-273" font-family="Ubuntu Mono" font-size="10.00">+</text>
<text text-anchor="start" x="88" y="-273" font-family="Ubuntu Mono" font-size="10.00">lookupBoth()</text>
<text text-anchor="start" x="75" y="-258" font-family="Ubuntu Mono" font-size="10.00">+</text>
<text text-anchor="start" x="88" y="-258" font-family="Ubuntu Mono" font-size="10.00">operator=()</text>
<text text-anchor="start" x="75" y="-243" font-family="Ubuntu Mono" font-size="10.00">+</text>
<text text-anchor="start" x="88" y="-243" font-family="Ubuntu Mono" font-size="10.00">setAlpha()</text>
<text text-anchor="start" x="75" y="-228" font-family="Ubuntu Mono" font-size="10.00">+</text>
<text text-anchor="start" x="88" y="-228" font-family="Ubuntu Mono" font-size="10.00">setBeta()</text>
<text text-anchor="start" x="75" y="-213" font-family="Ubuntu Mono" font-size="10.00">+</text>
<text text-anchor="start" x="88" y="-213" font-family="Ubuntu Mono" font-size="10.00">setInf()</text>
<text text-anchor="start" x="75" y="-198" font-family="Ubuntu Mono" font-size="10.00">+</text>
<text text-anchor="start" x="88" y="-198" font-family="Ubuntu Mono" font-size="10.00">setTau()</text>
<text text-anchor="start" x="75" y="-183" font-family="Ubuntu Mono" font-size="10.00">+</text>
<text text-anchor="start" x="88" y="-183" font-family="Ubuntu Mono" font-size="10.00">initCinfo()</text>
<polygon fill="#666666" stroke="#666666" points="71,-553 71,-553 155,-553 155,-553 71,-553"/>
<polygon fill="#666666" stroke="#666666" points="71,-403 71,-403 86,-403 86,-403 71,-403"/>
<polygon fill="#666666" stroke="#666666" points="86,-403 86,-403 155,-403 155,-403 86,-403"/>
<polygon fill="none" stroke="#666666" points="71,-176 71,-570 155,-570 155,-176 71,-176"/>
</a>
</g>
</g>
<!-- Node2&#45;&gt;Node1 -->
<g id="edge1_Node000001_Node000002" class="edge">
<title>Node2&#45;&gt;Node1</title>
<g id="a_edge1_Node000001_Node000002"><a xlink:title=" ">
<path fill="none" stroke="#63b8ff" d="M113,-165.75C113,-156.47 113,-147.51 113,-139.05"/>
<polygon fill="none" stroke="#63b8ff" points="109.5,-165.95 113,-175.95 116.5,-165.95 109.5,-165.95"/>
</a>
</g>
</g>
<!-- Node3 -->
<g id="Node000003" class="node">
<title>Node3</title>
<g id="a_Node000003"><a xlink:href="classHHGateBase.html" target="_top" xlink:title=" ">
<polygon fill="white" stroke="transparent" points="118.5,-782 3.5,-782 3.5,-628 118.5,-628 118.5,-782"/>
<text text-anchor="start" x="30" y="-770" font-family="Ubuntu Mono" font-size="10.00">HHGateBase</text>
<text text-anchor="start" x="59.5" y="-755" font-family="Ubuntu Mono" font-size="10.00"> </text>
<text text-anchor="start" x="8" y="-740" font-family="Ubuntu Mono" font-size="10.00">+</text>
<text text-anchor="start" x="21" y="-740" font-family="Ubuntu Mono" font-size="10.00">checkOriginal()</text>
<text text-anchor="start" x="8" y="-725" font-family="Ubuntu Mono" font-size="10.00">+</text>
<text text-anchor="start" x="21" y="-725" font-family="Ubuntu Mono" font-size="10.00">HHGateBase()</text>
<text text-anchor="start" x="8" y="-710" font-family="Ubuntu Mono" font-size="10.00">+</text>
<text text-anchor="start" x="21" y="-710" font-family="Ubuntu Mono" font-size="10.00">HHGateBase()</text>
<text text-anchor="start" x="8" y="-695" font-family="Ubuntu Mono" font-size="10.00">+</text>
<text text-anchor="start" x="21" y="-695" font-family="Ubuntu Mono" font-size="10.00">isOriginalChannel()</text>
<text text-anchor="start" x="8" y="-680" font-family="Ubuntu Mono" font-size="10.00">+</text>
<text text-anchor="start" x="21" y="-680" font-family="Ubuntu Mono" font-size="10.00">isOriginalGate()</text>
<text text-anchor="start" x="8" y="-665" font-family="Ubuntu Mono" font-size="10.00">+</text>
<text text-anchor="start" x="21" y="-665" font-family="Ubuntu Mono" font-size="10.00">originalChannelId()</text>
<text text-anchor="start" x="8" y="-650" font-family="Ubuntu Mono" font-size="10.00">+</text>
<text text-anchor="start" x="21" y="-650" font-family="Ubuntu Mono" font-size="10.00">originalGateId()</text>
<text text-anchor="start" x="8" y="-635" font-family="Ubuntu Mono" font-size="10.00">+</text>
<text text-anchor="start" x="21" y="-635" font-family="Ubuntu Mono" font-size="10.00">initCinfo()</text>
<polygon fill="#666666" stroke="#666666" points="4,-765 4,-765 119,-765 119,-765 4,-765"/>
<polygon fill="#666666" stroke="#666666" points="4,-750 4,-750 119,-750 119,-750 4,-750"/>
<polygon fill="none" stroke="#666666" points="3.5,-628 3.5,-782 118.5,-782 118.5,-628 3.5,-628"/>
</a>
</g>
</g>
<!-- Node3&#45;&gt;Node2 -->
<g id="edge2_Node000002_Node000003" class="edge">
<title>Node3&#45;&gt;Node2</title>
<g id="a_edge2_Node000002_Node000003"><a xlink:title=" ">
<path fill="none" stroke="#63b8ff" d="M74.6,-617.72C76.95,-602.78 79.48,-586.72 82.08,-570.23"/>
<polygon fill="none" stroke="#63b8ff" points="71.09,-617.45 73,-627.88 78.01,-618.54 71.09,-617.45"/>
</a>
</g>
</g>
<!-- Node4 -->
<g id="Node000004" class="node">
<title>Node4</title>
<g id="a_Node000004"><a xlink:href="classId.html" target="_top" xlink:title=" ">
<polygon fill="white" stroke="transparent" points="112,-1219 0,-1219 0,-840 112,-840 112,-1219"/>
<text text-anchor="start" x="51" y="-1206.5" font-family="Ubuntu Mono" font-size="10.00">Id</text>
<text text-anchor="start" x="6.5" y="-1191.5" font-family="Ubuntu Mono" font-size="10.00">&#45;</text>
<text text-anchor="start" x="17" y="-1191.5" font-family="Ubuntu Mono" font-size="10.00">id_</text>
<text text-anchor="start" x="4" y="-1176.5" font-family="Ubuntu Mono" font-size="10.00">+</text>
<text text-anchor="start" x="17" y="-1176.5" font-family="Ubuntu Mono" font-size="10.00">bindIdToElement()</text>
<text text-anchor="start" x="4" y="-1161.5" font-family="Ubuntu Mono" font-size="10.00">+</text>
<text text-anchor="start" x="17" y="-1161.5" font-family="Ubuntu Mono" font-size="10.00">destroy()</text>
<text text-anchor="start" x="4" y="-1146.5" font-family="Ubuntu Mono" font-size="10.00">+</text>
<text text-anchor="start" x="17" y="-1146.5" font-family="Ubuntu Mono" font-size="10.00">element()</text>
<text text-anchor="start" x="4" y="-1131.5" font-family="Ubuntu Mono" font-size="10.00">+</text>
<text text-anchor="start" x="17" y="-1131.5" font-family="Ubuntu Mono" font-size="10.00">eref()</text>
<text text-anchor="start" x="4" y="-1116.5" font-family="Ubuntu Mono" font-size="10.00">+</text>
<text text-anchor="start" x="17" y="-1116.5" font-family="Ubuntu Mono" font-size="10.00">Id()</text>
<text text-anchor="start" x="4" y="-1101.5" font-family="Ubuntu Mono" font-size="10.00">+</text>
<text text-anchor="start" x="17" y="-1101.5" font-family="Ubuntu Mono" font-size="10.00">Id()</text>
<text text-anchor="start" x="4" y="-1086.5" font-family="Ubuntu Mono" font-size="10.00">+</text>
<text text-anchor="start" x="17" y="-1086.5" font-family="Ubuntu Mono" font-size="10.00">Id()</text>
<text text-anchor="start" x="4" y="-1071.5" font-family="Ubuntu Mono" font-size="10.00">+</text>
<text text-anchor="start" x="17" y="-1071.5" font-family="Ubuntu Mono" font-size="10.00">Id()</text>
<text text-anchor="start" x="4" y="-1056.5" font-family="Ubuntu Mono" font-size="10.00">+</text>
<text text-anchor="start" x="17" y="-1056.5" font-family="Ubuntu Mono" font-size="10.00">operator!=()</text>
<text text-anchor="start" x="4" y="-1041.5" font-family="Ubuntu Mono" font-size="10.00">+</text>
<text text-anchor="start" x="17" y="-1041.5" font-family="Ubuntu Mono" font-size="10.00">operator&lt;()</text>
<text text-anchor="start" x="4" y="-1026.5" font-family="Ubuntu Mono" font-size="10.00">+</text>
<text text-anchor="start" x="17" y="-1026.5" font-family="Ubuntu Mono" font-size="10.00">operator==()</text>
<text text-anchor="start" x="4" y="-1011.5" font-family="Ubuntu Mono" font-size="10.00">+</text>
<text text-anchor="start" x="17" y="-1011.5" font-family="Ubuntu Mono" font-size="10.00">path()</text>
<text text-anchor="start" x="4" y="-996.5" font-family="Ubuntu Mono" font-size="10.00">+</text>
<text text-anchor="start" x="17" y="-996.5" font-family="Ubuntu Mono" font-size="10.00">value()</text>
<text text-anchor="start" x="4" y="-981.5" font-family="Ubuntu Mono" font-size="10.00">+</text>
<text text-anchor="start" x="17" y="-981.5" font-family="Ubuntu Mono" font-size="10.00">zeroOut()</text>
<text text-anchor="start" x="4" y="-966.5" font-family="Ubuntu Mono" font-size="10.00">+</text>
<text text-anchor="start" x="17" y="-966.5" font-family="Ubuntu Mono" font-size="10.00">~Id()</text>
<text text-anchor="start" x="4" y="-951.5" font-family="Ubuntu Mono" font-size="10.00">+</text>
<text text-anchor="start" x="17" y="-951.5" font-family="Ubuntu Mono" font-size="10.00">clearAllElements()</text>
<text text-anchor="start" x="4" y="-936.5" font-family="Ubuntu Mono" font-size="10.00">+</text>
<text text-anchor="start" x="17" y="-936.5" font-family="Ubuntu Mono" font-size="10.00">id2str()</text>
<text text-anchor="start" x="4" y="-921.5" font-family="Ubuntu Mono" font-size="10.00">+</text>
<text text-anchor="start" x="17" y="-921.5" font-family="Ubuntu Mono" font-size="10.00">isValid()</text>
<text text-anchor="start" x="4" y="-906.5" font-family="Ubuntu Mono" font-size="10.00">+</text>
<text text-anchor="start" x="17" y="-906.5" font-family="Ubuntu Mono" font-size="10.00">isValid()</text>
<text text-anchor="start" x="4" y="-891.5" font-family="Ubuntu Mono" font-size="10.00">+</text>
<text text-anchor="start" x="17" y="-891.5" font-family="Ubuntu Mono" font-size="10.00">nextId()</text>
<text text-anchor="start" x="4" y="-876.5" font-family="Ubuntu Mono" font-size="10.00">+</text>
<text text-anchor="start" x="17" y="-876.5" font-family="Ubuntu Mono" font-size="10.00">numIds()</text>
<text text-anchor="start" x="4" y="-861.5" font-family="Ubuntu Mono" font-size="10.00">+</text>
<text text-anchor="start" x="17" y="-861.5" font-family="Ubuntu Mono" font-size="10.00">str2Id()</text>
<text text-anchor="start" x="6.5" y="-846.5" font-family="Ubuntu Mono" font-size="10.00">&#45;</text>
<text text-anchor="start" x="17" y="-846.5" font-family="Ubuntu Mono" font-size="10.00">elements()</text>
<polygon fill="#666666" stroke="#666666" points="0,-1201.5 0,-1201.5 112,-1201.5 112,-1201.5 0,-1201.5"/>
<polygon fill="#666666" stroke="#666666" points="0,-1186.5 0,-1186.5 15,-1186.5 15,-1186.5 0,-1186.5"/>
<polygon fill="#666666" stroke="#666666" points="15,-1186.5 15,-1186.5 112,-1186.5 112,-1186.5 15,-1186.5"/>
<polygon fill="none" stroke="#666666" points="0,-840 0,-1219 112,-1219 112,-840 0,-840"/>
</a>
</g>
</g>
<!-- Node4&#45;&gt;Node3 -->
<g id="edge3_Node000003_Node000004" class="edge">
<title>Node4&#45;&gt;Node3</title>
<g id="a_edge3_Node000003_Node000004"><a xlink:title=" ">
<path fill="none" stroke="#63b8ff" d="M58.92,-839.97C59.17,-824.3 59.4,-808.98 59.63,-794.63"/>
<polygon fill="none" stroke="#63b8ff" points="59.63,-794.28 55.72,-788.22 59.82,-782.29 63.72,-788.35 59.63,-794.28"/>
</a>
</g>
<text text-anchor="middle" x="104" y="-814" font-family="Ubuntu Mono" font-size="10.00" fill="grey"> #originalChanId_</text>
<text text-anchor="middle" x="104" y="-803" font-family="Ubuntu Mono" font-size="10.00" fill="grey">#originalGateId_</text>
</g>
<!-- Node5 -->
<g id="Node000005" class="node">
<title>Node5</title>
<g id="a_Node000005"><a xlink:title=" ">
<polygon fill="white" stroke="transparent" points="204.5,-729.5 145.5,-729.5 145.5,-680.5 204.5,-680.5 204.5,-729.5"/>
<text text-anchor="start" x="151" y="-717" font-family="Ubuntu Mono" font-size="10.00">std::string</text>
<text text-anchor="start" x="173.5" y="-702" font-family="Ubuntu Mono" font-size="10.00"> </text>
<text text-anchor="start" x="173.5" y="-687" font-family="Ubuntu Mono" font-size="10.00"> </text>
<polygon fill="#666666" stroke="#666666" points="146,-712 146,-712 205,-712 205,-712 146,-712"/>
<polygon fill="#666666" stroke="#666666" points="146,-697 146,-697 205,-697 205,-697 146,-697"/>
<polygon fill="none" stroke="#666666" points="145.5,-680.5 145.5,-729.5 204.5,-729.5 204.5,-680.5 145.5,-680.5"/>
</a>
</g>
</g>
<!-- Node5&#45;&gt;Node2 -->
<g id="edge4_Node000002_Node000005" class="edge">
<title>Node5&#45;&gt;Node2</title>
<g id="a_edge4_Node000002_Node000005"><a xlink:title=" ">
<path fill="none" stroke="#63b8ff" d="M170.54,-680.27C166.32,-657.8 159.54,-621.69 152.08,-582"/>
<polygon fill="none" stroke="#63b8ff" points="152.07,-581.95 147.03,-576.79 149.85,-570.16 154.89,-575.31 152.07,-581.95"/>
</a>
</g>
<text text-anchor="middle" x="189" y="-602" font-family="Ubuntu Mono" font-size="10.00" fill="grey"> #alphaExpr_</text>
<text text-anchor="middle" x="189" y="-591" font-family="Ubuntu Mono" font-size="10.00" fill="grey">#betaExpr_</text>
</g>
<!-- Node6 -->
<g id="Node000006" class="node">
<title>Node6</title>
<g id="a_Node000006"><a xlink:title=" ">
<polygon fill="white" stroke="transparent" points="228,-1059.5 130,-1059.5 130,-999.5 228,-999.5 228,-1059.5"/>
<text text-anchor="start" x="135" y="-1047.5" font-family="Ubuntu Mono" font-size="10.00">std::basic_string&lt;</text>
<text text-anchor="start" x="160.5" y="-1036.5" font-family="Ubuntu Mono" font-size="10.00"> Char &gt;</text>
<text text-anchor="start" x="177" y="-1021.5" font-family="Ubuntu Mono" font-size="10.00"> </text>
<text text-anchor="start" x="177" y="-1006.5" font-family="Ubuntu Mono" font-size="10.00"> </text>
<polygon fill="#666666" stroke="#666666" points="130,-1031.5 130,-1031.5 228,-1031.5 228,-1031.5 130,-1031.5"/>
<polygon fill="#666666" stroke="#666666" points="130,-1016.5 130,-1016.5 228,-1016.5 228,-1016.5 130,-1016.5"/>
<polygon fill="none" stroke="#666666" points="130,-999.5 130,-1059.5 228,-1059.5 228,-999.5 130,-999.5"/>
</a>
</g>
</g>
<!-- Node6&#45;&gt;Node5 -->
<g id="edge5_Node000005_Node000006" class="edge">
<title>Node6&#45;&gt;Node5</title>
<g id="a_edge5_Node000005_Node000006"><a xlink:title=" ">
<path fill="none" stroke="#63b8ff" d="M178.51,-989.04C177.67,-921.18 175.97,-784.42 175.29,-729.56"/>
<polygon fill="none" stroke="#63b8ff" points="175.01,-989.36 178.64,-999.31 182.01,-989.27 175.01,-989.36"/>
</a>
</g>
</g>
</g>
</svg>

<g id="navigator" transform="translate(0 0)" fill="#404254">
  <rect fill="#f2f5e9" fill-opacity="0.5" stroke="#606060" stroke-width=".5" x="0" y="0" width="60" height="60"/>
  <use id="zoomplus" xlink:href="#zoomPlus" x="17" y="9" onmousedown="handleZoom(evt,'in')"/>
  <use id="zoomminus" xlink:href="#zoomMin" x="42" y="9" onmousedown="handleZoom(evt,'out')"/>
  <use id="reset" xlink:href="#resetDef" x="30" y="36" onmousedown="handleReset()"/>
   <use id="arrowup" xlink:href="#arrowUp" x="0" y="0" onmousedown="handlePan(0,-1)"/>
  <use id="arrowright" xlink:href="#arrowRight" x="0" y="0" onmousedown="handlePan(1,0)"/>
  <use id="arrowdown" xlink:href="#arrowDown" x="0" y="0" onmousedown="handlePan(0,1)"/>
  <use id="arrowleft" xlink:href="#arrowLeft" x="0" y="0" onmousedown="handlePan(-1,0)"/>
</g>
<svg viewBox="0 0 15 15" width="100%" height="30px" preserveAspectRatio="xMaxYMin meet">
 <g id="arrow_out" transform="scale(0.3 0.3)">
  <a xlink:href="classHHGateF2D__coll__graph_org.svg" target="_base">
   <rect id="button" ry="5" rx="5" y="6" x="6" height="38" width="38"
        fill="#f2f5e9" fill-opacity="0.5" stroke="#606060" stroke-width="1.0"/>
   <path id="arrow"
     d="M 11.500037,31.436501 C 11.940474,20.09759 22.043105,11.32322 32.158766,21.979434 L 37.068811,17.246167 C 37.068811,17.246167 37.088388,32 37.088388,32 L 22.160133,31.978069 C 22.160133,31.978069 26.997745,27.140456 26.997745,27.140456 C 18.528582,18.264221 13.291696,25.230495 11.500037,31.436501 z"
     style="fill:#404040;"/>
  </a>
 </g>
</svg>

<style type='text/css'>
<![CDATA[
[data-mouse-over-selected='false'] { opacity: 0.7; }
[data-mouse-over-selected='true']  { opacity: 1.0; }
]]>
</style>
<script type="application/ecmascript"><![CDATA[
document.addEventListener('DOMContentLoaded', (event) => {
  highlightEdges();
  highlightAdjacentNodes();
});
]]></script>
</svg>
