<?xml version="1.0" encoding="UTF-8" standalone="no"?>
<!DOCTYPE svg PUBLIC "-//W3C//DTD SVG 1.1//EN"
 "http://www.w3.org/Graphics/SVG/1.1/DTD/svg11.dtd">
<!-- Generated by graphviz version 2.43.0 (0)
 -->
<!-- Title: Gsolve::process Pages: 1 -->
<svg width="1454pt" height="562pt"
 viewBox="0.00 0.00 1454.00 561.73" xmlns="http://www.w3.org/2000/svg" xmlns:xlink="http://www.w3.org/1999/xlink">
<g id="graph0" class="graph" transform="scale(1 1) rotate(0) translate(4 557.73)">
<title>Gsolve::process</title>
<!-- Node1 -->
<g id="Node000001" class="node">
<title>Node1</title>
<g id="a_Node000001"><a xlink:title=" ">
<polygon fill="#999999" stroke="#666666" points="94,-261 0,-261 0,-242 94,-242 94,-261"/>
<text text-anchor="middle" x="47" y="-249" font-family="Ubuntu Mono" font-size="10.00">Gsolve::process</text>
</a>
</g>
</g>
<!-- Node2 -->
<g id="Node000002" class="node">
<title>Node2</title>
<g id="a_Node000002"><a xlink:href="classGssaVoxelPools.html#a74bee940e747819eafbdb179df6833e9" target="_top" xlink:title=" ">
<polygon fill="white" stroke="#666666" points="470.5,-409 330.5,-409 330.5,-390 470.5,-390 470.5,-409"/>
<text text-anchor="middle" x="400.5" y="-397" font-family="Ubuntu Mono" font-size="10.00">GssaVoxelPools::advance</text>
</a>
</g>
</g>
<!-- Node1&#45;&gt;Node2 -->
<g id="edge1_Node000001_Node000002" class="edge">
<title>Node1&#45;&gt;Node2</title>
<g id="a_edge1_Node000001_Node000002"><a xlink:title=" ">
<path fill="none" stroke="#63b8ff" d="M48.71,-261.19C51.65,-293.46 65.95,-397.56 130,-439.5 207.14,-490.01 323.07,-440.4 373.98,-413.86"/>
<polygon fill="#63b8ff" stroke="#63b8ff" points="375.82,-416.85 382.99,-409.05 372.52,-410.68 375.82,-416.85"/>
</a>
</g>
</g>
<!-- Node7 -->
<g id="Node000007" class="node">
<title>Node7</title>
<g id="a_Node000007"><a xlink:href="classGssaVoxelPools.html#a646ded62d273f2ca7b17d0ffeb87c966" target="_top" xlink:title=" ">
<polygon fill="white" stroke="#666666" points="683,-209 529,-209 529,-190 683,-190 683,-209"/>
<text text-anchor="middle" x="606" y="-197" font-family="Ubuntu Mono" font-size="10.00">GssaVoxelPools::refreshAtot</text>
</a>
</g>
</g>
<!-- Node1&#45;&gt;Node7 -->
<g id="edge41_Node000001_Node000007" class="edge">
<title>Node1&#45;&gt;Node7</title>
<g id="a_edge41_Node000001_Node000007"><a xlink:title=" ">
<path fill="none" stroke="#63b8ff" d="M64.28,-241.83C80.36,-232.86 105.96,-220.07 130,-214.5 263,-183.68 422.52,-186.43 518.71,-192.24"/>
<polygon fill="#63b8ff" stroke="#63b8ff" points="518.76,-195.75 528.96,-192.88 519.2,-188.76 518.76,-195.75"/>
</a>
</g>
</g>
<!-- Node22 -->
<g id="Node000022" class="node">
<title>Node22</title>
<g id="a_Node000022"><a xlink:href="classGsolve.html#a8d03efe04937ea9c76102fdc4599de6b" target="_top" xlink:title=" ">
<polygon fill="white" stroke="#666666" points="275,-430 143,-430 143,-411 275,-411 275,-430"/>
<text text-anchor="middle" x="209" y="-418" font-family="Ubuntu Mono" font-size="10.00">Gsolve::advance_chunk</text>
</a>
</g>
</g>
<!-- Node1&#45;&gt;Node22 -->
<g id="edge26_Node000001_Node000022" class="edge">
<title>Node1&#45;&gt;Node22</title>
<g id="a_edge26_Node000001_Node000022"><a xlink:title=" ">
<path fill="none" stroke="#63b8ff" d="M50.74,-261.28C58.53,-287.33 83.35,-358.98 130,-396.5 135.27,-400.74 141.28,-404.23 147.58,-407.1"/>
<polygon fill="#63b8ff" stroke="#63b8ff" points="146.37,-410.39 156.95,-410.89 148.99,-403.9 146.37,-410.39"/>
</a>
</g>
</g>
<!-- Node23 -->
<g id="Node000023" class="node">
<title>Node23</title>
<g id="a_Node000023"><a xlink:href="numutil_8cpp.html#a2ebbef1d22f42f5542acfa9b80c76b7b" target="_top" xlink:title=" ">
<polygon fill="white" stroke="#666666" points="468.5,-545 332.5,-545 332.5,-526 468.5,-526 468.5,-545"/>
<text text-anchor="middle" x="400.5" y="-533" font-family="Ubuntu Mono" font-size="10.00">approximateWithInteger</text>
</a>
</g>
</g>
<!-- Node1&#45;&gt;Node23 -->
<g id="edge28_Node000001_Node000023" class="edge">
<title>Node1&#45;&gt;Node23</title>
<g id="a_edge28_Node000001_Node000023"><a xlink:title=" ">
<path fill="none" stroke="#63b8ff" d="M48.73,-261.24C51.8,-294.78 66.56,-406.57 130,-463.5 182.64,-510.74 262.94,-527.51 322.2,-533.21"/>
<polygon fill="#63b8ff" stroke="#63b8ff" points="321.99,-536.7 332.26,-534.09 322.6,-529.73 321.99,-536.7"/>
</a>
</g>
</g>
<!-- Node24 -->
<g id="Node000024" class="node">
<title>Node24</title>
<g id="a_Node000024"><a xlink:href="classGsolve.html#ae3263e36e69b24e76d8f5788c04539c0" target="_top" xlink:title=" ">
<polygon fill="white" stroke="#666666" points="258.5,-167 159.5,-167 159.5,-148 258.5,-148 258.5,-167"/>
<text text-anchor="middle" x="209" y="-155" font-family="Ubuntu Mono" font-size="10.00">Gsolve::getBlock</text>
</a>
</g>
</g>
<!-- Node1&#45;&gt;Node24 -->
<g id="edge30_Node000001_Node000024" class="edge">
<title>Node1&#45;&gt;Node24</title>
<g id="a_edge30_Node000001_Node000024"><a xlink:title=" ">
<path fill="none" stroke="#63b8ff" d="M56.65,-241.94C70.66,-226.99 99.82,-198.09 130,-181.5 138.12,-177.04 147.17,-173.29 156.16,-170.18"/>
<polygon fill="#63b8ff" stroke="#63b8ff" points="157.39,-173.46 165.84,-167.06 155.24,-166.8 157.39,-173.46"/>
</a>
</g>
</g>
<!-- Node26 -->
<g id="Node000026" class="node">
<title>Node26</title>
<g id="a_Node000026"><a xlink:href="classKsolveBase.html#a8ec5a60cca2fe836a5821f171907db34" target="_top" xlink:title=" ">
<polygon fill="white" stroke="#666666" points="270,-317 148,-317 148,-298 270,-298 270,-317"/>
<text text-anchor="middle" x="209" y="-305" font-family="Ubuntu Mono" font-size="10.00">KsolveBase::getBlock</text>
</a>
</g>
</g>
<!-- Node1&#45;&gt;Node26 -->
<g id="edge33_Node000001_Node000026" class="edge">
<title>Node1&#45;&gt;Node26</title>
<g id="a_edge33_Node000001_Node000026"><a xlink:title=" ">
<path fill="none" stroke="#63b8ff" d="M66.49,-261.03C82.85,-269.18 107.55,-280.78 130,-288.5 137.32,-291.02 145.14,-293.34 152.89,-295.43"/>
<polygon fill="#63b8ff" stroke="#63b8ff" points="152.07,-298.83 162.63,-297.95 153.83,-292.06 152.07,-298.83"/>
</a>
</g>
</g>
<!-- Node27 -->
<g id="Node000027" class="node">
<title>Node27</title>
<g id="a_Node000027"><a xlink:href="classGsolve.html#ae4611942a86525ea466e7f07a68bbb26" target="_top" xlink:title="Number of voxels here. pools_.size() == getNumLocalVoxels.">
<polygon fill="white" stroke="#666666" points="285,-280 133,-280 133,-261 285,-261 285,-280"/>
<text text-anchor="middle" x="209" y="-268" font-family="Ubuntu Mono" font-size="10.00">Gsolve::getNumLocalVoxels</text>
</a>
</g>
</g>
<!-- Node1&#45;&gt;Node27 -->
<g id="edge34_Node000001_Node000027" class="edge">
<title>Node1&#45;&gt;Node27</title>
<g id="a_edge34_Node000001_Node000027"><a xlink:title=" ">
<path fill="none" stroke="#63b8ff" d="M94.28,-257C103.25,-258.06 112.92,-259.21 122.69,-260.37"/>
<polygon fill="#63b8ff" stroke="#63b8ff" points="122.55,-263.88 132.89,-261.58 123.37,-256.93 122.55,-263.88"/>
</a>
</g>
</g>
<!-- Node28 -->
<g id="Node000028" class="node">
<title>Node28</title>
<g id="a_Node000028"><a xlink:href="classStoich.html#a9b29e415b8c69dc92a59c06d943d1094" target="_top" xlink:title="Returns number of local pools that are updated by solver.">
<polygon fill="white" stroke="#666666" points="276,-243 142,-243 142,-224 276,-224 276,-243"/>
<text text-anchor="middle" x="209" y="-231" font-family="Ubuntu Mono" font-size="10.00">Stoich::getNumVarPools</text>
</a>
</g>
</g>
<!-- Node1&#45;&gt;Node28 -->
<g id="edge35_Node000001_Node000028" class="edge">
<title>Node1&#45;&gt;Node28</title>
<g id="a_edge35_Node000001_Node000028"><a xlink:title=" ">
<path fill="none" stroke="#63b8ff" d="M94.28,-246.29C106,-244.97 118.91,-243.52 131.69,-242.08"/>
<polygon fill="#63b8ff" stroke="#63b8ff" points="132.35,-245.53 141.89,-240.94 131.56,-238.58 132.35,-245.53"/>
</a>
</g>
</g>
<!-- Node29 -->
<g id="Node000029" class="node">
<title>Node29</title>
<g id="a_Node000029"><a xlink:href="classGssaVoxelPools.html#aa67869cf153fd4efc6b9b143b60a3a32" target="_top" xlink:title=" ">
<polygon fill="white" stroke="#666666" points="477,-343 324,-343 324,-324 477,-324 477,-343"/>
<text text-anchor="middle" x="400.5" y="-331" font-family="Ubuntu Mono" font-size="10.00">GssaVoxelPools::recalcTime</text>
</a>
</g>
</g>
<!-- Node1&#45;&gt;Node29 -->
<g id="edge36_Node000001_Node000029" class="edge">
<title>Node1&#45;&gt;Node29</title>
<g id="a_edge36_Node000001_Node000029"><a xlink:title=" ">
<path fill="none" stroke="#63b8ff" d="M51.48,-261.07C60.37,-283.91 86.37,-341.37 130,-363.5 209.08,-403.61 317.69,-368.46 369.56,-347.08"/>
<polygon fill="#63b8ff" stroke="#63b8ff" points="371.02,-350.26 378.86,-343.14 368.29,-343.82 371.02,-350.26"/>
</a>
</g>
</g>
<!-- Node30 -->
<g id="Node000030" class="node">
<title>Node30</title>
<g id="a_Node000030"><a xlink:href="classGsolve.html#afbe3d81cfa938280aa7bdc927662ae6c" target="_top" xlink:title=" ">
<polygon fill="white" stroke="#666666" points="279.5,-354 138.5,-354 138.5,-335 279.5,-335 279.5,-354"/>
<text text-anchor="middle" x="209" y="-342" font-family="Ubuntu Mono" font-size="10.00">Gsolve::recalcTimeChunk</text>
</a>
</g>
</g>
<!-- Node1&#45;&gt;Node30 -->
<g id="edge39_Node000001_Node000030" class="edge">
<title>Node1&#45;&gt;Node30</title>
<g id="a_edge39_Node000001_Node000030"><a xlink:title=" ">
<path fill="none" stroke="#63b8ff" d="M55.75,-261.08C69.16,-276.98 98.3,-308.73 130,-325.5 134.32,-327.78 138.91,-329.8 143.63,-331.57"/>
<polygon fill="#63b8ff" stroke="#63b8ff" points="142.84,-335 153.43,-334.89 145.08,-328.37 142.84,-335"/>
</a>
</g>
</g>
<!-- Node31 -->
<g id="Node000031" class="node">
<title>Node31</title>
<g id="a_Node000031"><a xlink:href="classGsolve.html#a28b2eef67f156528448a96cbb76e21c2" target="_top" xlink:title=" ">
<polygon fill="white" stroke="#666666" points="258,-130 160,-130 160,-111 258,-111 258,-130"/>
<text text-anchor="middle" x="209" y="-118" font-family="Ubuntu Mono" font-size="10.00">Gsolve::setBlock</text>
</a>
</g>
</g>
<!-- Node1&#45;&gt;Node31 -->
<g id="edge42_Node000001_Node000031" class="edge">
<title>Node1&#45;&gt;Node31</title>
<g id="a_edge42_Node000001_Node000031"><a xlink:title=" ">
<path fill="none" stroke="#63b8ff" d="M52.1,-241.82C62,-219.72 89.38,-165.4 130,-138.5 136.05,-134.49 142.89,-131.37 149.93,-128.94"/>
<polygon fill="#63b8ff" stroke="#63b8ff" points="151.03,-132.26 159.6,-126.03 149.02,-125.56 151.03,-132.26"/>
</a>
</g>
</g>
<!-- Node32 -->
<g id="Node000032" class="node">
<title>Node32</title>
<g id="a_Node000032"><a xlink:href="classKsolveBase.html#a9104a48730d53b4fde53b4cde7805bdc" target="_top" xlink:title=" ">
<polygon fill="white" stroke="#666666" points="270,-93 148,-93 148,-74 270,-74 270,-93"/>
<text text-anchor="middle" x="209" y="-81" font-family="Ubuntu Mono" font-size="10.00">KsolveBase::setBlock</text>
</a>
</g>
</g>
<!-- Node1&#45;&gt;Node32 -->
<g id="edge45_Node000001_Node000032" class="edge">
<title>Node1&#45;&gt;Node32</title>
<g id="a_edge45_Node000001_Node000032"><a xlink:title=" ">
<path fill="none" stroke="#63b8ff" d="M50.28,-241.98C57.2,-215.24 80.57,-138.97 130,-101.5 132.66,-99.49 135.5,-97.69 138.48,-96.09"/>
<polygon fill="#63b8ff" stroke="#63b8ff" points="140.09,-99.2 147.73,-91.86 137.18,-92.84 140.09,-99.2"/>
</a>
</g>
</g>
<!-- Node33 -->
<g id="Node000033" class="node">
<title>Node33</title>
<g id="a_Node000033"><a xlink:href="classKsolveBase.html#aee0cc3f669082a7a732f22b8b4319947" target="_top" xlink:title="Used to tell Dsolver to assign &#39;prev&#39; values.">
<polygon fill="white" stroke="#666666" points="267,-56 151,-56 151,-37 267,-37 267,-56"/>
<text text-anchor="middle" x="209" y="-44" font-family="Ubuntu Mono" font-size="10.00">KsolveBase::setPrev</text>
</a>
</g>
</g>
<!-- Node1&#45;&gt;Node33 -->
<g id="edge46_Node000001_Node000033" class="edge">
<title>Node1&#45;&gt;Node33</title>
<g id="a_edge46_Node000001_Node000033"><a xlink:title=" ">
<path fill="none" stroke="#63b8ff" d="M49.18,-241.96C53.54,-211.06 71.6,-112.92 130,-64.5 133.53,-61.58 137.44,-59.11 141.57,-57.03"/>
<polygon fill="#63b8ff" stroke="#63b8ff" points="143.09,-60.18 150.93,-53.06 140.36,-53.74 143.09,-60.18"/>
</a>
</g>
</g>
<!-- Node34 -->
<g id="Node000034" class="node">
<title>Node34</title>
<g id="a_Node000034"><a xlink:href="classKsolveBase.html#a34c11a2dce316e45706d12cdbfa054ff" target="_top" xlink:title="Used for telling Dsolver to handle all ops across Junctions.">
<polygon fill="white" stroke="#666666" points="288,-19 130,-19 130,0 288,0 288,-19"/>
<text text-anchor="middle" x="209" y="-7" font-family="Ubuntu Mono" font-size="10.00">KsolveBase::updateJunctions</text>
</a>
</g>
</g>
<!-- Node1&#45;&gt;Node34 -->
<g id="edge47_Node000001_Node000034" class="edge">
<title>Node1&#45;&gt;Node34</title>
<g id="a_edge47_Node000001_Node000034"><a xlink:title=" ">
<path fill="none" stroke="#63b8ff" d="M48.44,-241.63C50.56,-206.57 62.64,-86.98 130,-27.5 131.32,-26.33 132.71,-25.23 134.15,-24.2"/>
<polygon fill="#63b8ff" stroke="#63b8ff" points="136.07,-27.13 142.88,-19.01 132.5,-21.11 136.07,-27.13"/>
</a>
</g>
</g>
<!-- Node3 -->
<g id="Node000003" class="node">
<title>Node3</title>
<g id="a_Node000003"><a xlink:href="classKinSparseMatrix.html#a497304dc594faad57c85d78bf9173ff7" target="_top" xlink:title=" ">
<polygon fill="white" stroke="#666666" points="677.5,-521 534.5,-521 534.5,-502 677.5,-502 677.5,-521"/>
<text text-anchor="middle" x="606" y="-509" font-family="Ubuntu Mono" font-size="10.00">KinSparseMatrix::fireReac</text>
</a>
</g>
</g>
<!-- Node2&#45;&gt;Node3 -->
<g id="edge2_Node000002_Node000003" class="edge">
<title>Node2&#45;&gt;Node3</title>
<g id="a_edge2_Node000002_Node000003"><a xlink:title=" ">
<path fill="none" stroke="#63b8ff" d="M409.63,-409.04C426.66,-428.35 468.25,-472.06 513,-493.5 517.27,-495.55 521.76,-497.36 526.36,-498.97"/>
<polygon fill="#63b8ff" stroke="#63b8ff" points="525.34,-502.31 535.93,-501.99 527.44,-495.64 525.34,-502.31"/>
</a>
</g>
</g>
<!-- Node4 -->
<g id="Node000004" class="node">
<title>Node4</title>
<g id="a_Node000004"><a xlink:href="classStoich.html#a39d1868cebe3c20837e974cbb1d336de" target="_top" xlink:title=" ">
<polygon fill="white" stroke="#666666" points="665.5,-484 546.5,-484 546.5,-465 665.5,-465 665.5,-484"/>
<text text-anchor="middle" x="606" y="-472" font-family="Ubuntu Mono" font-size="10.00">Stoich::getNumRates</text>
</a>
</g>
</g>
<!-- Node2&#45;&gt;Node4 -->
<g id="edge3_Node000002_Node000004" class="edge">
<title>Node2&#45;&gt;Node4</title>
<g id="a_edge3_Node000002_Node000004"><a xlink:title=" ">
<path fill="none" stroke="#63b8ff" d="M416.77,-409.06C437.7,-421.74 476.84,-444 513,-456.5 520.55,-459.11 528.58,-461.38 536.63,-463.34"/>
<polygon fill="#63b8ff" stroke="#63b8ff" points="535.91,-466.77 546.44,-465.59 537.47,-459.95 535.91,-466.77"/>
</a>
</g>
</g>
<!-- Node5 -->
<g id="Node000005" class="node">
<title>Node5</title>
<g id="a_Node000005"><a xlink:href="classGssaVoxelPools.html#a3a687ddce118faade0a1e7cd569d824c" target="_top" xlink:title=" ">
<polygon fill="white" stroke="#666666" points="677.5,-447 534.5,-447 534.5,-428 677.5,-428 677.5,-447"/>
<text text-anchor="middle" x="606" y="-435" font-family="Ubuntu Mono" font-size="10.00">GssaVoxelPools::pickReac</text>
</a>
</g>
</g>
<!-- Node2&#45;&gt;Node5 -->
<g id="edge4_Node000002_Node000005" class="edge">
<title>Node2&#45;&gt;Node5</title>
<g id="a_edge4_Node000002_Node000005"><a xlink:title=" ">
<path fill="none" stroke="#63b8ff" d="M452.59,-409.04C480.29,-414.21 514.71,-420.64 543.83,-426.08"/>
<polygon fill="#63b8ff" stroke="#63b8ff" points="543.42,-429.56 553.89,-427.96 544.7,-422.68 543.42,-429.56"/>
</a>
</g>
</g>
<!-- Node6 -->
<g id="Node000006" class="node">
<title>Node6</title>
<g id="a_Node000006"><a xlink:href="classmoose_1_1RNG.html#a6fec47558673d4d721a6918bb43b3fd3" target="_top" xlink:title="Return a uniformly distributed random number between 0 and 1 (exclusive).">
<polygon fill="white" stroke="#666666" points="885,-428 763,-428 763,-409 885,-409 885,-428"/>
<text text-anchor="middle" x="824" y="-416" font-family="Ubuntu Mono" font-size="10.00">moose::RNG::uniform</text>
</a>
</g>
</g>
<!-- Node2&#45;&gt;Node6 -->
<g id="edge19_Node000002_Node000006" class="edge">
<title>Node2&#45;&gt;Node6</title>
<g id="a_edge19_Node000002_Node000006"><a xlink:title=" ">
<path fill="none" stroke="#63b8ff" d="M470.63,-402.62C548.41,-406.12 674.1,-411.79 752.46,-415.32"/>
<polygon fill="#63b8ff" stroke="#63b8ff" points="752.57,-418.83 762.72,-415.78 752.89,-411.84 752.57,-418.83"/>
</a>
</g>
</g>
<!-- Node2&#45;&gt;Node7 -->
<g id="edge6_Node000002_Node000007" class="edge">
<title>Node2&#45;&gt;Node7</title>
<g id="a_edge6_Node000002_Node000007"><a xlink:title=" ">
<path fill="none" stroke="#63b8ff" d="M425.3,-389.99C442.13,-382.09 463.93,-369.26 477,-351.5 513.3,-302.18 468.4,-260.47 513,-218.5 515.17,-216.46 517.5,-214.61 519.96,-212.94"/>
<polygon fill="#63b8ff" stroke="#63b8ff" points="521.8,-215.92 528.74,-207.92 518.32,-209.84 521.8,-215.92"/>
</a>
</g>
</g>
<!-- Node9 -->
<g id="Node000009" class="node">
<title>Node9</title>
<g id="a_Node000009"><a xlink:href="classStoich.html#acf8597b477b135eb38e301d8a9257b77" target="_top" xlink:title="Updates the function values, within s.">
<polygon fill="white" stroke="#666666" points="881,-292 767,-292 767,-273 881,-273 881,-292"/>
<text text-anchor="middle" x="824" y="-280" font-family="Ubuntu Mono" font-size="10.00">Stoich::updateFuncs</text>
</a>
</g>
</g>
<!-- Node2&#45;&gt;Node9 -->
<g id="edge24_Node000002_Node000009" class="edge">
<title>Node2&#45;&gt;Node9</title>
<g id="a_edge24_Node000002_Node000009"><a xlink:title=" ">
<path fill="none" stroke="#63b8ff" d="M416.76,-389.93C437.69,-377.23 476.82,-354.97 513,-342.5 594.66,-314.36 693.24,-298.13 756.97,-289.81"/>
<polygon fill="#63b8ff" stroke="#63b8ff" points="757.42,-293.28 766.9,-288.54 756.53,-286.34 757.42,-293.28"/>
</a>
</g>
</g>
<!-- Node18 -->
<g id="Node000018" class="node">
<title>Node18</title>
<g id="a_Node000018"><a xlink:href="classVoxelPoolsBase.html#ad248a47e4e7e09ccf040649179096007" target="_top" xlink:title=" ">
<polygon fill="white" stroke="#666666" points="884.5,-130 763.5,-130 763.5,-111 884.5,-111 884.5,-130"/>
<text text-anchor="middle" x="824" y="-118" font-family="Ubuntu Mono" font-size="10.00">VoxelPoolsBase::varS</text>
</a>
</g>
</g>
<!-- Node2&#45;&gt;Node18 -->
<g id="edge25_Node000002_Node000018" class="edge">
<title>Node2&#45;&gt;Node18</title>
<g id="a_edge25_Node000002_Node000018"><a xlink:title=" ">
<path fill="none" stroke="#63b8ff" d="M426.33,-389.87C443.2,-382.05 464.61,-369.37 477,-351.5 521.24,-287.66 457.64,-234.97 513,-180.5 576.13,-118.39 683.04,-110.78 753.33,-113.61"/>
<polygon fill="#63b8ff" stroke="#63b8ff" points="753.27,-117.11 763.43,-114.1 753.61,-110.12 753.27,-117.11"/>
</a>
</g>
</g>
<!-- Node19 -->
<g id="Node000019" class="node">
<title>Node19</title>
<g id="a_Node000019"><a xlink:href="classVoxelPoolsBase.html#af5e1c75777f866323c53c267f6eae9c5" target="_top" xlink:title="Returns a handle to the mol # vector.">
<polygon fill="white" stroke="#666666" points="667,-371 545,-371 545,-352 667,-352 667,-371"/>
<text text-anchor="middle" x="606" y="-359" font-family="Ubuntu Mono" font-size="10.00">VoxelPoolsBase::Svec</text>
</a>
</g>
</g>
<!-- Node2&#45;&gt;Node19 -->
<g id="edge18_Node000002_Node000019" class="edge">
<title>Node2&#45;&gt;Node19</title>
<g id="a_edge18_Node000002_Node000019"><a xlink:title=" ">
<path fill="none" stroke="#63b8ff" d="M452.59,-389.96C480.29,-384.79 514.71,-378.36 543.83,-372.92"/>
<polygon fill="#63b8ff" stroke="#63b8ff" points="544.7,-376.32 553.89,-371.04 543.42,-369.44 544.7,-376.32"/>
</a>
</g>
</g>
<!-- Node20 -->
<g id="Node000020" class="node">
<title>Node20</title>
<g id="a_Node000020"><a xlink:href="classGssaVoxelPools.html#a930db119e72272d520c45e1fb99793c9" target="_top" xlink:title=" ">
<polygon fill="white" stroke="#666666" points="699,-257.5 513,-257.5 513,-227.5 699,-227.5 699,-257.5"/>
<text text-anchor="start" x="521" y="-245.5" font-family="Ubuntu Mono" font-size="10.00">GssaVoxelPools::updateDependent</text>
<text text-anchor="middle" x="606" y="-234.5" font-family="Ubuntu Mono" font-size="10.00">Rates</text>
</a>
</g>
</g>
<!-- Node2&#45;&gt;Node20 -->
<g id="edge20_Node000002_Node000020" class="edge">
<title>Node2&#45;&gt;Node20</title>
<g id="a_edge20_Node000002_Node000020"><a xlink:title=" ">
<path fill="none" stroke="#63b8ff" d="M423.46,-389.86C439.99,-381.66 462.26,-368.53 477,-351.5 502.52,-322.03 483.86,-297.4 513,-271.5 516.89,-268.04 521.19,-265 525.75,-262.31"/>
<polygon fill="#63b8ff" stroke="#63b8ff" points="527.54,-265.33 534.78,-257.59 524.3,-259.12 527.54,-265.33"/>
</a>
</g>
</g>
<!-- Node5&#45;&gt;Node6 -->
<g id="edge5_Node000005_Node000006" class="edge">
<title>Node5&#45;&gt;Node6</title>
<g id="a_edge5_Node000005_Node000006"><a xlink:title=" ">
<path fill="none" stroke="#63b8ff" d="M677.73,-431.28C701.84,-429.16 728.78,-426.79 752.85,-424.67"/>
<polygon fill="#63b8ff" stroke="#63b8ff" points="753.32,-428.14 762.98,-423.78 752.71,-421.17 753.32,-428.14"/>
</a>
</g>
</g>
<!-- Node8 -->
<g id="Node000008" class="node">
<title>Node8</title>
<g id="a_Node000008"><a xlink:href="classVoxelPoolsBase.html#a14f40161f05d91149be12bdcd5fc5f79" target="_top" xlink:title=" ">
<polygon fill="white" stroke="#666666" points="876.5,-168 771.5,-168 771.5,-149 876.5,-149 876.5,-168"/>
<text text-anchor="middle" x="824" y="-156" font-family="Ubuntu Mono" font-size="10.00">VoxelPoolsBase::S</text>
</a>
</g>
</g>
<!-- Node7&#45;&gt;Node8 -->
<g id="edge7_Node000007_Node000008" class="edge">
<title>Node7&#45;&gt;Node8</title>
<g id="a_edge7_Node000007_Node000008"><a xlink:title=" ">
<path fill="none" stroke="#63b8ff" d="M657.1,-189.99C688.61,-184.01 729.46,-176.26 762.73,-169.94"/>
<polygon fill="#63b8ff" stroke="#63b8ff" points="763.63,-173.33 772.8,-168.03 762.32,-166.45 763.63,-173.33"/>
</a>
</g>
</g>
<!-- Node7&#45;&gt;Node9 -->
<g id="edge8_Node000007_Node000009" class="edge">
<title>Node7&#45;&gt;Node9</title>
<g id="a_edge8_Node000007_Node000009"><a xlink:title=" ">
<path fill="none" stroke="#63b8ff" d="M678.2,-209.04C685.5,-211.51 692.58,-214.61 699,-218.5 720.61,-231.59 713.52,-249.2 735,-262.5 741.82,-266.72 749.43,-270.05 757.24,-272.68"/>
<polygon fill="#63b8ff" stroke="#63b8ff" points="756.25,-276.04 766.83,-275.56 758.26,-269.33 756.25,-276.04"/>
</a>
</g>
</g>
<!-- Node14 -->
<g id="Node000014" class="node">
<title>Node14</title>
<g id="a_Node000014"><a xlink:href="classGssaVoxelPools.html#ad4fc6515575ad28ed614c09647fdf20d" target="_top" xlink:title=" ">
<polygon fill="white" stroke="#666666" points="902.5,-216.5 745.5,-216.5 745.5,-186.5 902.5,-186.5 902.5,-216.5"/>
<text text-anchor="start" x="753.5" y="-204.5" font-family="Ubuntu Mono" font-size="10.00">GssaVoxelPools::updateReac</text>
<text text-anchor="middle" x="824" y="-193.5" font-family="Ubuntu Mono" font-size="10.00">Velocities</text>
</a>
</g>
</g>
<!-- Node7&#45;&gt;Node14 -->
<g id="edge13_Node000007_Node000014" class="edge">
<title>Node7&#45;&gt;Node14</title>
<g id="a_edge13_Node000007_Node000014"><a xlink:title=" ">
<path fill="none" stroke="#63b8ff" d="M683.15,-200.21C700.01,-200.36 718,-200.53 735.27,-200.69"/>
<polygon fill="#63b8ff" stroke="#63b8ff" points="735.31,-204.19 745.35,-200.78 735.38,-197.19 735.31,-204.19"/>
</a>
</g>
</g>
<!-- Node7&#45;&gt;Node18 -->
<g id="edge17_Node000007_Node000018" class="edge">
<title>Node7&#45;&gt;Node18</title>
<g id="a_edge17_Node000007_Node000018"><a xlink:title=" ">
<path fill="none" stroke="#63b8ff" d="M624.29,-189.85C648.41,-176.76 693.84,-153.39 735,-139.5 742.88,-136.84 751.28,-134.47 759.65,-132.37"/>
<polygon fill="#63b8ff" stroke="#63b8ff" points="760.51,-135.77 769.42,-130.05 758.89,-128.96 760.51,-135.77"/>
</a>
</g>
</g>
<!-- Node10 -->
<g id="Node000010" class="node">
<title>Node10</title>
<g id="a_Node000010"><a xlink:href="classFuncTerm.html#a722ac441511e1d4c721c757422c728c4" target="_top" xlink:title=" ">
<polygon fill="white" stroke="#666666" points="1073,-292 962,-292 962,-273 1073,-273 1073,-292"/>
<text text-anchor="middle" x="1017.5" y="-280" font-family="Ubuntu Mono" font-size="10.00">FuncTerm::evalPool</text>
</a>
</g>
</g>
<!-- Node9&#45;&gt;Node10 -->
<g id="edge9_Node000009_Node000010" class="edge">
<title>Node9&#45;&gt;Node10</title>
<g id="a_edge9_Node000009_Node000010"><a xlink:title=" ">
<path fill="none" stroke="#63b8ff" d="M881.16,-282.5C903.27,-282.5 928.8,-282.5 951.68,-282.5"/>
<polygon fill="#63b8ff" stroke="#63b8ff" points="951.99,-286 961.99,-282.5 951.99,-279 951.99,-286"/>
</a>
</g>
</g>
<!-- Node11 -->
<g id="Node000011" class="node">
<title>Node11</title>
<g id="a_Node000011"><a xlink:href="classmoose_1_1MooseParser.html#a86af0b5331150fcd830bb02c93f356fe" target="_top" xlink:title=" ">
<polygon fill="white" stroke="#666666" points="1240,-318.5 1122,-318.5 1122,-288.5 1240,-288.5 1240,-318.5"/>
<text text-anchor="start" x="1130" y="-306.5" font-family="Ubuntu Mono" font-size="10.00">moose::MooseParser</text>
<text text-anchor="middle" x="1181" y="-295.5" font-family="Ubuntu Mono" font-size="10.00">::Eval</text>
</a>
</g>
</g>
<!-- Node10&#45;&gt;Node11 -->
<g id="edge10_Node000010_Node000011" class="edge">
<title>Node10&#45;&gt;Node11</title>
<g id="a_edge10_Node000010_Node000011"><a xlink:title=" ">
<path fill="none" stroke="#63b8ff" d="M1073.18,-289.61C1085.52,-291.22 1098.78,-292.94 1111.61,-294.61"/>
<polygon fill="#63b8ff" stroke="#63b8ff" points="1111.42,-298.11 1121.79,-295.93 1112.32,-291.17 1111.42,-298.11"/>
</a>
</g>
</g>
<!-- Node12 -->
<g id="Node000012" class="node">
<title>Node12</title>
<g id="a_Node000012"><a xlink:href="FuncTerm_8cpp.html#a8dc230d56c66041eabde94cf00a45495" target="_top" xlink:title=" ">
<polygon fill="white" stroke="#666666" points="1213.5,-270 1148.5,-270 1148.5,-251 1213.5,-251 1213.5,-270"/>
<text text-anchor="middle" x="1181" y="-258" font-family="Ubuntu Mono" font-size="10.00">showError</text>
</a>
</g>
</g>
<!-- Node10&#45;&gt;Node12 -->
<g id="edge11_Node000010_Node000012" class="edge">
<title>Node10&#45;&gt;Node12</title>
<g id="a_edge11_Node000010_Node000012"><a xlink:title=" ">
<path fill="none" stroke="#63b8ff" d="M1073.18,-275.05C1094.53,-272.14 1118.6,-268.86 1138.49,-266.16"/>
<polygon fill="#63b8ff" stroke="#63b8ff" points="1139.03,-269.61 1148.47,-264.8 1138.08,-262.68 1139.03,-269.61"/>
</a>
</g>
</g>
<!-- Node13 -->
<g id="Node000013" class="node">
<title>Node13</title>
<g id="a_Node000013"><a xlink:href="structmoose_1_1Parser_1_1ParserException.html#ac9c3c6f3dc862c7f00bf0273e0af34af" target="_top" xlink:title=" ">
<polygon fill="white" stroke="#666666" points="1446,-275.5 1276,-275.5 1276,-245.5 1446,-245.5 1446,-275.5"/>
<text text-anchor="start" x="1284" y="-263.5" font-family="Ubuntu Mono" font-size="10.00">moose::Parser::ParserException</text>
<text text-anchor="middle" x="1361" y="-252.5" font-family="Ubuntu Mono" font-size="10.00">::GetMsg</text>
</a>
</g>
</g>
<!-- Node12&#45;&gt;Node13 -->
<g id="edge12_Node000012_Node000013" class="edge">
<title>Node12&#45;&gt;Node13</title>
<g id="a_edge12_Node000012_Node000013"><a xlink:title=" ">
<path fill="none" stroke="#63b8ff" d="M1213.82,-260.5C1228.57,-260.5 1246.95,-260.5 1265.65,-260.5"/>
<polygon fill="#63b8ff" stroke="#63b8ff" points="1265.74,-264 1275.74,-260.5 1265.74,-257 1265.74,-264"/>
</a>
</g>
</g>
<!-- Node15 -->
<g id="Node000015" class="node">
<title>Node15</title>
<g id="a_Node000015"><a xlink:href="classStoich.html#a2e9ff77fe6dbfb8dd3b92602ab32ccc1" target="_top" xlink:title="Updates the rates for cross&#45;compartment reactions.">
<polygon fill="white" stroke="#666666" points="1086,-175.5 949,-175.5 949,-145.5 1086,-145.5 1086,-175.5"/>
<text text-anchor="start" x="957" y="-163.5" font-family="Ubuntu Mono" font-size="10.00">Stoich::getStoichiometry</text>
<text text-anchor="middle" x="1017.5" y="-152.5" font-family="Ubuntu Mono" font-size="10.00">Matrix</text>
</a>
</g>
</g>
<!-- Node14&#45;&gt;Node15 -->
<g id="edge14_Node000014_Node000015" class="edge">
<title>Node14&#45;&gt;Node15</title>
<g id="a_edge14_Node000014_Node000015"><a xlink:title=" ">
<path fill="none" stroke="#63b8ff" d="M895.22,-186.47C909.44,-183.42 924.48,-180.2 938.94,-177.11"/>
<polygon fill="#63b8ff" stroke="#63b8ff" points="939.8,-180.5 948.84,-174.99 938.33,-173.66 939.8,-180.5"/>
</a>
</g>
</g>
<!-- Node16 -->
<g id="Node000016" class="node">
<title>Node16</title>
<g id="a_Node000016"><a xlink:href="classSparseMatrix.html#a34a568e3db0bafd38cf0ccc37cd2086b" target="_top" xlink:title=" ">
<polygon fill="white" stroke="#666666" points="1085.5,-213 949.5,-213 949.5,-194 1085.5,-194 1085.5,-213"/>
<text text-anchor="middle" x="1017.5" y="-201" font-family="Ubuntu Mono" font-size="10.00">SparseMatrix::nColumns</text>
</a>
</g>
</g>
<!-- Node14&#45;&gt;Node16 -->
<g id="edge15_Node000014_Node000016" class="edge">
<title>Node14&#45;&gt;Node16</title>
<g id="a_edge15_Node000014_Node000016"><a xlink:title=" ">
<path fill="none" stroke="#63b8ff" d="M902.61,-202.31C914.68,-202.44 927.15,-202.57 939.21,-202.69"/>
<polygon fill="#63b8ff" stroke="#63b8ff" points="939.19,-206.19 949.23,-202.8 939.27,-199.19 939.19,-206.19"/>
</a>
</g>
</g>
<!-- Node17 -->
<g id="Node000017" class="node">
<title>Node17</title>
<g id="a_Node000017"><a xlink:href="classRateTerm.html#a47058d3e308f2499045035f4f76a9ec6" target="_top" xlink:title="Computes the rate. The argument is the molecule array.">
<polygon fill="white" stroke="#666666" points="1076.5,-253 958.5,-253 958.5,-234 1076.5,-234 1076.5,-253"/>
<text text-anchor="middle" x="1017.5" y="-241" font-family="Ubuntu Mono" font-size="10.00">RateTerm::operator()</text>
</a>
</g>
</g>
<!-- Node14&#45;&gt;Node17 -->
<g id="edge16_Node000014_Node000017" class="edge">
<title>Node14&#45;&gt;Node17</title>
<g id="a_edge16_Node000014_Node000017"><a xlink:title=" ">
<path fill="none" stroke="#63b8ff" d="M893.59,-216.54C916.48,-221.56 941.62,-227.08 963.17,-231.8"/>
<polygon fill="#63b8ff" stroke="#63b8ff" points="962.59,-235.26 973.11,-233.98 964.09,-228.42 962.59,-235.26"/>
</a>
</g>
</g>
<!-- Node20&#45;&gt;Node8 -->
<g id="edge23_Node000020_Node000008" class="edge">
<title>Node20&#45;&gt;Node8</title>
<g id="a_edge23_Node000020_Node000008"><a xlink:title=" ">
<path fill="none" stroke="#63b8ff" d="M679.02,-227.31C686.01,-224.56 692.8,-221.32 699,-217.5 719.37,-204.96 714.31,-189.49 735,-177.5 743.04,-172.84 752.1,-169.32 761.27,-166.66"/>
<polygon fill="#63b8ff" stroke="#63b8ff" points="762.4,-169.98 771.21,-164.1 760.65,-163.2 762.4,-169.98"/>
</a>
</g>
</g>
<!-- Node21 -->
<g id="Node000021" class="node">
<title>Node21</title>
<g id="a_Node000021"><a xlink:href="classGssaVoxelPools.html#a6f675fb978d518280508c0dfdbe0fd27" target="_top" xlink:title=" ">
<polygon fill="white" stroke="#666666" points="913,-254 735,-254 735,-235 913,-235 913,-254"/>
<text text-anchor="middle" x="824" y="-242" font-family="Ubuntu Mono" font-size="10.00">GssaVoxelPools::getReacVelocity</text>
</a>
</g>
</g>
<!-- Node20&#45;&gt;Node21 -->
<g id="edge21_Node000020_Node000021" class="edge">
<title>Node20&#45;&gt;Node21</title>
<g id="a_edge21_Node000020_Node000021"><a xlink:title=" ">
<path fill="none" stroke="#63b8ff" d="M699.23,-243.35C707.63,-243.43 716.15,-243.51 724.6,-243.59"/>
<polygon fill="#63b8ff" stroke="#63b8ff" points="724.82,-247.09 734.85,-243.68 724.88,-240.09 724.82,-247.09"/>
</a>
</g>
</g>
<!-- Node21&#45;&gt;Node17 -->
<g id="edge22_Node000021_Node000017" class="edge">
<title>Node21&#45;&gt;Node17</title>
<g id="a_edge22_Node000021_Node000017"><a xlink:title=" ">
<path fill="none" stroke="#63b8ff" d="M913.18,-244.04C924.91,-243.98 936.78,-243.92 948.1,-243.86"/>
<polygon fill="#63b8ff" stroke="#63b8ff" points="948.34,-247.36 958.32,-243.8 948.3,-240.36 948.34,-247.36"/>
</a>
</g>
</g>
<!-- Node22&#45;&gt;Node2 -->
<g id="edge27_Node000022_Node000002" class="edge">
<title>Node22&#45;&gt;Node2</title>
<g id="a_edge27_Node000022_Node000002"><a xlink:title=" ">
<path fill="none" stroke="#63b8ff" d="M275.22,-413.27C289.66,-411.67 305.11,-409.96 320.05,-408.3"/>
<polygon fill="#63b8ff" stroke="#63b8ff" points="320.73,-411.75 330.29,-407.17 319.96,-404.79 320.73,-411.75"/>
</a>
</g>
</g>
<!-- Node23&#45;&gt;Node6 -->
<g id="edge29_Node000023_Node000006" class="edge">
<title>Node23&#45;&gt;Node6</title>
<g id="a_edge29_Node000023_Node000006"><a xlink:title=" ">
<path fill="none" stroke="#63b8ff" d="M451.47,-545.01C512.31,-554.3 617.07,-562.82 699,-530.5 748,-511.17 789.88,-462.91 810.08,-436.49"/>
<polygon fill="#63b8ff" stroke="#63b8ff" points="813.14,-438.25 816.3,-428.14 807.52,-434.07 813.14,-438.25"/>
</a>
</g>
</g>
<!-- Node24&#45;&gt;Node8 -->
<g id="edge31_Node000024_Node000008" class="edge">
<title>Node24&#45;&gt;Node8</title>
<g id="a_edge31_Node000024_Node000008"><a xlink:title=" ">
<path fill="none" stroke="#63b8ff" d="M258.61,-157.58C369.09,-157.76 638.89,-158.2 761.07,-158.4"/>
<polygon fill="#63b8ff" stroke="#63b8ff" points="761.36,-161.9 771.37,-158.42 761.38,-154.9 761.36,-161.9"/>
</a>
</g>
</g>
<!-- Node25 -->
<g id="Node000025" class="node">
<title>Node25</title>
<g id="a_Node000025"><a xlink:href="classVoxelPoolsBase.html#ab77b743ec417b4879106490e5663816b" target="_top" xlink:title=" ">
<polygon fill="white" stroke="#666666" points="460,-130 341,-130 341,-111 460,-111 460,-130"/>
<text text-anchor="middle" x="400.5" y="-118" font-family="Ubuntu Mono" font-size="10.00">VoxelPoolsBase::size</text>
</a>
</g>
</g>
<!-- Node24&#45;&gt;Node25 -->
<g id="edge32_Node000024_Node000025" class="edge">
<title>Node24&#45;&gt;Node25</title>
<g id="a_edge32_Node000024_Node000025"><a xlink:title=" ">
<path fill="none" stroke="#63b8ff" d="M258.8,-147.97C283.79,-143.09 314.41,-137.11 340.69,-131.98"/>
<polygon fill="#63b8ff" stroke="#63b8ff" points="341.39,-135.41 350.54,-130.06 340.05,-128.54 341.39,-135.41"/>
</a>
</g>
</g>
<!-- Node29&#45;&gt;Node6 -->
<g id="edge38_Node000029_Node000006" class="edge">
<title>Node29&#45;&gt;Node6</title>
<g id="a_edge38_Node000029_Node000006"><a xlink:title=" ">
<path fill="none" stroke="#63b8ff" d="M477.16,-325.23C538.33,-321.03 625.97,-320.7 699,-342.5 739.98,-354.73 781.01,-384.04 804.09,-402.48"/>
<polygon fill="#63b8ff" stroke="#63b8ff" points="802.06,-405.34 812.01,-408.96 806.48,-399.92 802.06,-405.34"/>
</a>
</g>
</g>
<!-- Node29&#45;&gt;Node7 -->
<g id="edge37_Node000029_Node000007" class="edge">
<title>Node29&#45;&gt;Node7</title>
<g id="a_edge37_Node000029_Node000007"><a xlink:title=" ">
<path fill="none" stroke="#63b8ff" d="M407.72,-323.92C422.81,-301.51 463.76,-245.54 513,-218.5 517.16,-216.22 521.56,-214.21 526.1,-212.44"/>
<polygon fill="#63b8ff" stroke="#63b8ff" points="527.27,-215.73 535.56,-209.13 524.97,-209.12 527.27,-215.73"/>
</a>
</g>
</g>
<!-- Node30&#45;&gt;Node29 -->
<g id="edge40_Node000030_Node000029" class="edge">
<title>Node30&#45;&gt;Node29</title>
<g id="a_edge40_Node000030_Node000029"><a xlink:title=" ">
<path fill="none" stroke="#63b8ff" d="M279.76,-340.45C290.74,-339.81 302.22,-339.15 313.52,-338.49"/>
<polygon fill="#63b8ff" stroke="#63b8ff" points="314.05,-341.97 323.83,-337.89 313.65,-334.98 314.05,-341.97"/>
</a>
</g>
</g>
<!-- Node31&#45;&gt;Node18 -->
<g id="edge44_Node000031_Node000018" class="edge">
<title>Node31&#45;&gt;Node18</title>
<g id="a_edge44_Node000031_Node000018"><a xlink:title=" ">
<path fill="none" stroke="#63b8ff" d="M256.37,-110.99C276.98,-107.22 301.6,-103.35 324,-101.5 476.76,-88.86 656.54,-102.74 753.14,-112.54"/>
<polygon fill="#63b8ff" stroke="#63b8ff" points="753.06,-116.05 763.37,-113.59 753.78,-109.09 753.06,-116.05"/>
</a>
</g>
</g>
<!-- Node31&#45;&gt;Node25 -->
<g id="edge43_Node000031_Node000025" class="edge">
<title>Node31&#45;&gt;Node25</title>
<g id="a_edge43_Node000031_Node000025"><a xlink:title=" ">
<path fill="none" stroke="#63b8ff" d="M258.31,-120.5C280.28,-120.5 306.68,-120.5 330.68,-120.5"/>
<polygon fill="#63b8ff" stroke="#63b8ff" points="330.79,-124 340.79,-120.5 330.79,-117 330.79,-124"/>
</a>
</g>
</g>
</g>
</svg>
