<?xml version="1.0" encoding="UTF-8" standalone="no"?>
<!DOCTYPE svg PUBLIC "-//W3C//DTD SVG 1.1//EN"
 "http://www.w3.org/Graphics/SVG/1.1/DTD/svg11.dtd">
<!-- Generated by graphviz version 2.43.0 (0)
 -->
<!-- Title: Stoich::innerInstallReaction Pages: 1 -->
<svg width="705pt" height="262pt"
 viewBox="0.00 0.00 705.00 261.50" xmlns="http://www.w3.org/2000/svg" xmlns:xlink="http://www.w3.org/1999/xlink">
<g id="graph0" class="graph" transform="scale(1 1) rotate(0) translate(4 257.5)">
<title>Stoich::innerInstallReaction</title>
<!-- Node1 -->
<g id="Node000001" class="node">
<title>Node1</title>
<g id="a_Node000001"><a xlink:title=" ">
<polygon fill="#999999" stroke="#666666" points="150,-149 0,-149 0,-130 150,-130 150,-149"/>
<text text-anchor="middle" x="75" y="-137" font-family="Ubuntu Mono" font-size="10.00">Stoich::innerInstallReaction</text>
</a>
</g>
</g>
<!-- Node2 -->
<g id="Node000002" class="node">
<title>Node2</title>
<g id="a_Node000002"><a xlink:href="classBidirectionalReaction.html#a09e53b92c2c0fcd4dfe7781e7c7efae4" target="_top" xlink:title=" ">
<polygon fill="white" stroke="#666666" points="329.5,-253.5 202.5,-253.5 202.5,-223.5 329.5,-223.5 329.5,-253.5"/>
<text text-anchor="start" x="210.5" y="-241.5" font-family="Ubuntu Mono" font-size="10.00">BidirectionalReaction</text>
<text text-anchor="middle" x="266" y="-230.5" font-family="Ubuntu Mono" font-size="10.00">::BidirectionalReaction</text>
</a>
</g>
</g>
<!-- Node1&#45;&gt;Node2 -->
<g id="edge1_Node000001_Node000002" class="edge">
<title>Node1&#45;&gt;Node2</title>
<g id="a_edge1_Node000001_Node000002"><a xlink:title=" ">
<path fill="none" stroke="#63b8ff" d="M87.48,-149.09C106.73,-164.75 147.23,-195.93 186,-214.5 190.04,-216.43 194.26,-218.25 198.57,-219.95"/>
<polygon fill="#63b8ff" stroke="#63b8ff" points="197.51,-223.29 208.1,-223.5 199.95,-216.73 197.51,-223.29"/>
</a>
</g>
</g>
<!-- Node3 -->
<g id="Node000003" class="node">
<title>Node3</title>
<g id="a_Node000003"><a xlink:href="classStoich.html#aec594bfef9a6dc7c12bb6683bbbdaccb" target="_top" xlink:title=" ">
<polygon fill="white" stroke="#666666" points="346,-205 186,-205 186,-186 346,-186 346,-205"/>
<text text-anchor="middle" x="266" y="-193" font-family="Ubuntu Mono" font-size="10.00">Stoich::convertIdToReacIndex</text>
</a>
</g>
</g>
<!-- Node1&#45;&gt;Node3 -->
<g id="edge2_Node000001_Node000003" class="edge">
<title>Node1&#45;&gt;Node3</title>
<g id="a_edge2_Node000001_Node000003"><a xlink:title=" ">
<path fill="none" stroke="#63b8ff" d="M101.09,-149.04C123.23,-157.25 156.47,-169.06 186,-177.5 193.51,-179.65 201.48,-181.71 209.36,-183.62"/>
<polygon fill="#63b8ff" stroke="#63b8ff" points="208.71,-187.07 219.25,-185.96 210.33,-180.25 208.71,-187.07"/>
</a>
</g>
</g>
<!-- Node4 -->
<g id="Node000004" class="node">
<title>Node4</title>
<g id="a_Node000004"><a xlink:href="classSparseMatrix.html#aa7910d9d8252b628ac1d13ba31eef66c" target="_top" xlink:title=" ">
<polygon fill="white" stroke="#666666" points="317.5,-168 214.5,-168 214.5,-149 317.5,-149 317.5,-168"/>
<text text-anchor="middle" x="266" y="-156" font-family="Ubuntu Mono" font-size="10.00">SparseMatrix::get</text>
</a>
</g>
</g>
<!-- Node1&#45;&gt;Node4 -->
<g id="edge3_Node000001_Node000004" class="edge">
<title>Node1&#45;&gt;Node4</title>
<g id="a_edge3_Node000001_Node000004"><a xlink:title=" ">
<path fill="none" stroke="#63b8ff" d="M150.16,-146.95C167.97,-148.75 186.79,-150.64 203.94,-152.36"/>
<polygon fill="#63b8ff" stroke="#63b8ff" points="204.07,-155.89 214.37,-153.41 204.77,-148.93 204.07,-155.89"/>
</a>
</g>
</g>
<!-- Node5 -->
<g id="Node000005" class="node">
<title>Node5</title>
<g id="a_Node000005"><a xlink:href="classZeroOrder.html#a2ca165a4cbce02de259a494b525119f0" target="_top" xlink:title=" ">
<polygon fill="white" stroke="#666666" points="334.5,-131 197.5,-131 197.5,-112 334.5,-112 334.5,-131"/>
<text text-anchor="middle" x="266" y="-119" font-family="Ubuntu Mono" font-size="10.00">ZeroOrder::getReactants</text>
</a>
</g>
</g>
<!-- Node1&#45;&gt;Node5 -->
<g id="edge4_Node000001_Node000005" class="edge">
<title>Node1&#45;&gt;Node5</title>
<g id="a_edge4_Node000001_Node000005"><a xlink:title=" ">
<path fill="none" stroke="#63b8ff" d="M150.16,-132.44C162.27,-131.28 174.86,-130.08 187.07,-128.92"/>
<polygon fill="#63b8ff" stroke="#63b8ff" points="187.59,-132.39 197.22,-127.96 186.93,-125.42 187.59,-132.39"/>
</a>
</g>
</g>
<!-- Node6 -->
<g id="Node000006" class="node">
<title>Node6</title>
<g id="a_Node000006"><a xlink:href="classStoich.html#a299133482ccfce38d615907472c68d78" target="_top" xlink:title="Utility function to make a half reac and return the rate term.">
<polygon fill="white" stroke="#666666" points="337.5,-94 194.5,-94 194.5,-75 337.5,-75 337.5,-94"/>
<text text-anchor="middle" x="266" y="-82" font-family="Ubuntu Mono" font-size="10.00">Stoich::makeHalfReaction</text>
</a>
</g>
</g>
<!-- Node1&#45;&gt;Node6 -->
<g id="edge5_Node000001_Node000006" class="edge">
<title>Node1&#45;&gt;Node6</title>
<g id="a_edge5_Node000001_Node000006"><a xlink:title=" ">
<path fill="none" stroke="#63b8ff" d="M103.39,-129.86C125.53,-122.23 157.58,-111.55 186,-103.5 194.58,-101.07 203.74,-98.68 212.67,-96.46"/>
<polygon fill="#63b8ff" stroke="#63b8ff" points="213.72,-99.81 222.61,-94.03 212.06,-93.01 213.72,-99.81"/>
</a>
</g>
</g>
<!-- Node12 -->
<g id="Node000012" class="node">
<title>Node12</title>
<g id="a_Node000012"><a xlink:href="classSparseMatrix.html#a0dddc631322ef8cae33f24b770bafe60" target="_top" xlink:title=" ">
<polygon fill="white" stroke="#666666" points="317,-57 215,-57 215,-38 317,-38 317,-57"/>
<text text-anchor="middle" x="266" y="-45" font-family="Ubuntu Mono" font-size="10.00">SparseMatrix::set</text>
</a>
</g>
</g>
<!-- Node1&#45;&gt;Node12 -->
<g id="edge14_Node000001_Node000012" class="edge">
<title>Node1&#45;&gt;Node12</title>
<g id="a_edge14_Node000001_Node000012"><a xlink:title=" ">
<path fill="none" stroke="#63b8ff" d="M87.41,-129.93C106.56,-114.35 146.92,-83.53 186,-66.5 192.08,-63.85 198.6,-61.53 205.18,-59.51"/>
<polygon fill="#63b8ff" stroke="#63b8ff" points="206.17,-62.87 214.83,-56.77 204.25,-56.14 206.17,-62.87"/>
</a>
</g>
</g>
<!-- Node7 -->
<g id="Node000007" class="node">
<title>Node7</title>
<g id="a_Node000007"><a xlink:href="classStoich.html#a0eeca8773e3b19ad9b771a9efc66d5ed" target="_top" xlink:title=" ">
<polygon fill="white" stroke="#666666" points="539,-169 382,-169 382,-150 539,-150 539,-169"/>
<text text-anchor="middle" x="460.5" y="-157" font-family="Ubuntu Mono" font-size="10.00">Stoich::convertIdToPoolIndex</text>
</a>
</g>
</g>
<!-- Node6&#45;&gt;Node7 -->
<g id="edge6_Node000006_Node000007" class="edge">
<title>Node6&#45;&gt;Node7</title>
<g id="a_edge6_Node000006_Node000007"><a xlink:title=" ">
<path fill="none" stroke="#63b8ff" d="M324.21,-94.06C331.81,-96.52 339.28,-99.62 346,-103.5 366.14,-115.14 361.81,-129.93 382,-141.5 385.09,-143.27 388.34,-144.87 391.7,-146.31"/>
<polygon fill="#63b8ff" stroke="#63b8ff" points="390.76,-149.7 401.36,-149.96 393.24,-143.15 390.76,-149.7"/>
</a>
</g>
</g>
<!-- Node8 -->
<g id="Node000008" class="node">
<title>Node8</title>
<g id="a_Node000008"><a xlink:href="classFirstOrder.html#af465953753329ce1b18fc8bd4b847630" target="_top" xlink:title=" ">
<polygon fill="white" stroke="#666666" points="520,-132 401,-132 401,-113 520,-113 520,-132"/>
<text text-anchor="middle" x="460.5" y="-120" font-family="Ubuntu Mono" font-size="10.00">FirstOrder::FirstOrder</text>
</a>
</g>
</g>
<!-- Node6&#45;&gt;Node8 -->
<g id="edge7_Node000006_Node000008" class="edge">
<title>Node6&#45;&gt;Node8</title>
<g id="a_edge7_Node000006_Node000008"><a xlink:title=" ">
<path fill="none" stroke="#63b8ff" d="M315.58,-94.09C341.66,-99.24 374.01,-105.62 401.42,-111.03"/>
<polygon fill="#63b8ff" stroke="#63b8ff" points="400.78,-114.48 411.27,-112.98 402.14,-107.61 400.78,-114.48"/>
</a>
</g>
</g>
<!-- Node9 -->
<g id="Node000009" class="node">
<title>Node9</title>
<g id="a_Node000009"><a xlink:href="classZeroOrder.html#ad578154a7360bc42bd883465270b8dbf" target="_top" xlink:title=" ">
<polygon fill="white" stroke="#666666" points="697,-75 575,-75 575,-56 697,-56 697,-75"/>
<text text-anchor="middle" x="636" y="-63" font-family="Ubuntu Mono" font-size="10.00">ZeroOrder::ZeroOrder</text>
</a>
</g>
</g>
<!-- Node6&#45;&gt;Node9 -->
<g id="edge13_Node000006_Node000009" class="edge">
<title>Node6&#45;&gt;Node9</title>
<g id="a_edge13_Node000006_Node000009"><a xlink:title=" ">
<path fill="none" stroke="#63b8ff" d="M337.52,-80.86C402.79,-77.49 499.33,-72.5 564.57,-69.14"/>
<polygon fill="#63b8ff" stroke="#63b8ff" points="564.96,-72.62 574.77,-68.61 564.6,-65.63 564.96,-72.62"/>
</a>
</g>
</g>
<!-- Node10 -->
<g id="Node000010" class="node">
<title>Node10</title>
<g id="a_Node000010"><a xlink:href="classNOrder.html#adfee440fb72270cdfc207a4a1f26eda4" target="_top" xlink:title=" ">
<polygon fill="white" stroke="#666666" points="506.5,-56 414.5,-56 414.5,-37 506.5,-37 506.5,-56"/>
<text text-anchor="middle" x="460.5" y="-44" font-family="Ubuntu Mono" font-size="10.00">NOrder::NOrder</text>
</a>
</g>
</g>
<!-- Node6&#45;&gt;Node10 -->
<g id="edge9_Node000006_Node000010" class="edge">
<title>Node6&#45;&gt;Node10</title>
<g id="a_edge9_Node000006_Node000010"><a xlink:title=" ">
<path fill="none" stroke="#63b8ff" d="M315.58,-74.91C342.56,-69.58 376.23,-62.94 404.21,-57.41"/>
<polygon fill="#63b8ff" stroke="#63b8ff" points="405.11,-60.8 414.25,-55.43 403.76,-53.94 405.11,-60.8"/>
</a>
</g>
</g>
<!-- Node11 -->
<g id="Node000011" class="node">
<title>Node11</title>
<g id="a_Node000011"><a xlink:href="classSecondOrder.html#aab31eb29b84bcd474aeec476d2a37357" target="_top" xlink:title=" ">
<polygon fill="white" stroke="#666666" points="534,-19 387,-19 387,0 534,0 534,-19"/>
<text text-anchor="middle" x="460.5" y="-7" font-family="Ubuntu Mono" font-size="10.00">SecondOrder::SecondOrder</text>
</a>
</g>
</g>
<!-- Node6&#45;&gt;Node11 -->
<g id="edge11_Node000006_Node000011" class="edge">
<title>Node6&#45;&gt;Node11</title>
<g id="a_edge11_Node000006_Node000011"><a xlink:title=" ">
<path fill="none" stroke="#63b8ff" d="M326.72,-75C333.46,-72.74 340.03,-69.95 346,-66.5 366.42,-54.68 361.61,-39.36 382,-27.5 385.02,-25.75 388.19,-24.16 391.47,-22.73"/>
<polygon fill="#63b8ff" stroke="#63b8ff" points="392.83,-25.96 400.91,-19.1 390.32,-19.43 392.83,-25.96"/>
</a>
</g>
</g>
<!-- Node8&#45;&gt;Node9 -->
<g id="edge8_Node000008_Node000009" class="edge">
<title>Node8&#45;&gt;Node9</title>
<g id="a_edge8_Node000008_Node000009"><a xlink:title=" ">
<path fill="none" stroke="#63b8ff" d="M493.24,-112.91C507.3,-108.6 524,-103.4 539,-98.5 558.65,-92.08 580.44,-84.62 598.29,-78.41"/>
<polygon fill="#63b8ff" stroke="#63b8ff" points="599.47,-81.71 607.76,-75.11 597.17,-75.1 599.47,-81.71"/>
</a>
</g>
</g>
<!-- Node10&#45;&gt;Node9 -->
<g id="edge10_Node000010_Node000009" class="edge">
<title>Node10&#45;&gt;Node9</title>
<g id="a_edge10_Node000010_Node000009"><a xlink:title=" ">
<path fill="none" stroke="#63b8ff" d="M506.63,-51.44C524.33,-53.38 545.06,-55.65 564.63,-57.79"/>
<polygon fill="#63b8ff" stroke="#63b8ff" points="564.42,-61.29 574.74,-58.9 565.18,-54.33 564.42,-61.29"/>
</a>
</g>
</g>
<!-- Node11&#45;&gt;Node9 -->
<g id="edge12_Node000011_Node000009" class="edge">
<title>Node11&#45;&gt;Node9</title>
<g id="a_edge12_Node000011_Node000009"><a xlink:title=" ">
<path fill="none" stroke="#63b8ff" d="M507.7,-19.04C518.08,-21.51 528.98,-24.37 539,-27.5 561.19,-34.43 585.54,-44.09 604.16,-51.94"/>
<polygon fill="#63b8ff" stroke="#63b8ff" points="603.03,-55.26 613.6,-55.96 605.77,-48.82 603.03,-55.26"/>
</a>
</g>
</g>
</g>
</svg>
