<?xml version="1.0" encoding="UTF-8" standalone="no"?>
<!DOCTYPE svg PUBLIC "-//W3C//DTD SVG 1.1//EN"
 "http://www.w3.org/Graphics/SVG/1.1/DTD/svg11.dtd">
<!-- Generated by graphviz version 2.43.0 (0)
 -->
<!-- Title: VoxelPoolsBase::size Pages: 1 -->
<!--zoomable 427 -->

<svg id="main" version="1.1" xmlns="http://www.w3.org/2000/svg" xmlns:xlink="http://www.w3.org/1999/xlink" xml:space="preserve" onload="init(evt)">
<style type="text/css"><![CDATA[
.node, .edge {opacity: 0.7;}
.node.selected, .edge.selected {opacity: 1;}
.edge:hover path { stroke: red; }
.edge:hover polygon { stroke: red; fill: red; }
]]></style>

<defs>
  <circle id="rim" cx="0" cy="0" r="7"/>
  <circle id="rim2" cx="0" cy="0" r="3.5"/>
  <g id="zoomPlus">
    <use xlink:href="#rim" fill="#404040"><set attributeName="fill" to="#808080" begin="zoomplus.mouseover" end="zoomplus.mouseout"/></use>
    <path d="M-4,0h8M0,-4v8" fill="none" stroke="white" stroke-width="1.5" pointer-events="none"/>
  </g>
  <g id="zoomMin">
    <use xlink:href="#rim" fill="#404040"><set attributeName="fill" to="#808080" begin="zoomminus.mouseover" end="zoomminus.mouseout"/></use>
    <path d="M-4,0h8" fill="none" stroke="white" stroke-width="1.5" pointer-events="none"/>
  </g>
  <g id="arrowUp" transform="translate(30 24)">
    <use xlink:href="#rim"/>
    <path pointer-events="none" fill="none" stroke="white" stroke-width="1.5" d="M0,-3.0v7 M-2.5,-0.5L0,-3.0L2.5,-0.5"/>
  </g>
  <g id="arrowRight" transform="rotate(90) translate(36 -43)">
    <use xlink:href="#rim"/>
    <path pointer-events="none" fill="none" stroke="white" stroke-width="1.5" d="M0,-3.0v7 M-2.5,-0.5L0,-3.0L2.5,-0.5"/>
  </g>
  <g id="arrowDown" transform="rotate(180) translate(-30 -48)">
    <use xlink:href="#rim"/>
    <path pointer-events="none" fill="none" stroke="white" stroke-width="1.5" d="M0,-3.0v7 M-2.5,-0.5L0,-3.0L2.5,-0.5"/>
  </g>
  <g id="arrowLeft" transform="rotate(270) translate(-36 17)">
    <use xlink:href="#rim"/>
    <path pointer-events="none" fill="none" stroke="white" stroke-width="1.5" d="M0,-3.0v7 M-2.5,-0.5L0,-3.0L2.5,-0.5"/>
  </g>
  <g id="resetDef">
    <use xlink:href="#rim2" fill="#404040"><set attributeName="fill" to="#808080" begin="reset.mouseover" end="reset.mouseout"/></use>
  </g>
</defs>
<script type="application/ecmascript">
var viewWidth = 901;
var viewHeight = 427;
var sectionId = 'dynsection-27';
</script>
<script type="application/ecmascript" xlink:href="svg.min.js"/>
<svg id="graph" class="graph">
<g id="viewport">
<title>VoxelPoolsBase::size</title>
<!-- Node1 -->
<g id="Node000001" class="node">
<title>Node1</title>
<g id="a_Node000001"><a xlink:title=" ">
<polygon fill="#999999" stroke="#666666" points="893,-207 774,-207 774,-188 893,-188 893,-207"/>
<text text-anchor="middle" x="833.5" y="-195" font-family="Ubuntu Mono" font-size="10.00">VoxelPoolsBase::size</text>
</a>
</g>
</g>
<!-- Node2 -->
<g id="Node000002" class="node">
<title>Node2</title>
<g id="a_Node000002"><a xlink:href="classVoxelPools.html#a51be6a923d1147f72e665be2a1f5fb41" target="_top" xlink:title="Do the numerical integration. Advance the simulation.">
<polygon fill="white" stroke="#666666" points="576,-396 460,-396 460,-377 576,-377 576,-396"/>
<text text-anchor="middle" x="518" y="-384" font-family="Ubuntu Mono" font-size="10.00">VoxelPools::advance</text>
</a>
</g>
</g>
<!-- Node1&#45;&gt;Node2 -->
<g id="edge1_Node000001_Node000002" class="edge">
<title>Node1&#45;&gt;Node2</title>
<g id="a_edge1_Node000001_Node000002"><a xlink:title=" ">
<path fill="none" stroke="#63b8ff" d="M822.24,-216.01C807.07,-241.72 776.29,-288.05 738,-314.5 688.93,-348.39 622.8,-367.22 576.08,-377.04"/>
<polygon fill="#63b8ff" stroke="#63b8ff" points="825.32,-217.66 827.27,-207.25 819.25,-214.18 825.32,-217.66"/>
</a>
</g>
</g>
<!-- Node7 -->
<g id="Node000007" class="node">
<title>Node7</title>
<g id="a_Node000007"><a xlink:href="classGsolve.html#ae3263e36e69b24e76d8f5788c04539c0" target="_top" xlink:title=" ">
<polygon fill="white" stroke="#666666" points="726,-95 627,-95 627,-76 726,-76 726,-95"/>
<text text-anchor="middle" x="676.5" y="-83" font-family="Ubuntu Mono" font-size="10.00">Gsolve::getBlock</text>
</a>
</g>
</g>
<!-- Node1&#45;&gt;Node7 -->
<g id="edge7_Node000001_Node000007" class="edge">
<title>Node1&#45;&gt;Node7</title>
<g id="a_edge7_Node000001_Node000007"><a xlink:title=" ">
<path fill="none" stroke="#63b8ff" d="M819.31,-179.84C802.62,-158.71 771.95,-123.66 738,-103.5 732.35,-100.14 726.02,-97.37 719.65,-95.09"/>
<polygon fill="#63b8ff" stroke="#63b8ff" points="816.69,-182.18 825.57,-187.96 822.23,-177.9 816.69,-182.18"/>
</a>
</g>
</g>
<!-- Node10 -->
<g id="Node000010" class="node">
<title>Node10</title>
<g id="a_Node000010"><a xlink:href="classKsolve.html#a1e2ca729ecb9d7115c22e607b7f9a4f3" target="_top" xlink:title=" ">
<polygon fill="white" stroke="#666666" points="567,-321 469,-321 469,-302 567,-302 567,-321"/>
<text text-anchor="middle" x="518" y="-309" font-family="Ubuntu Mono" font-size="10.00">Ksolve::getBlock</text>
</a>
</g>
</g>
<!-- Node1&#45;&gt;Node10 -->
<g id="edge10_Node000001_Node000010" class="edge">
<title>Node1&#45;&gt;Node10</title>
<g id="a_edge10_Node000001_Node000010"><a xlink:title=" ">
<path fill="none" stroke="#63b8ff" d="M819.68,-215.42C803.36,-236.65 773.06,-271.21 738,-287.5 683.37,-312.89 613.07,-316.12 567.05,-314.85"/>
<polygon fill="#63b8ff" stroke="#63b8ff" points="822.61,-217.33 825.78,-207.22 817,-213.15 822.61,-217.33"/>
</a>
</g>
</g>
<!-- Node11 -->
<g id="Node000011" class="node">
<title>Node11</title>
<g id="a_Node000011"><a xlink:href="classGsolve.html#abc65b1993348b637fac781d24ac12da8" target="_top" xlink:title="Inherited.">
<polygon fill="white" stroke="#666666" points="579,-207 457,-207 457,-188 579,-188 579,-207"/>
<text text-anchor="middle" x="518" y="-195" font-family="Ubuntu Mono" font-size="10.00">Gsolve::getNumPools</text>
</a>
</g>
</g>
<!-- Node1&#45;&gt;Node11 -->
<g id="edge12_Node000001_Node000011" class="edge">
<title>Node1&#45;&gt;Node11</title>
<g id="a_edge12_Node000001_Node000011"><a xlink:title=" ">
<path fill="none" stroke="#63b8ff" d="M763.86,-197.5C708.7,-197.5 631.97,-197.5 579.18,-197.5"/>
<polygon fill="#63b8ff" stroke="#63b8ff" points="763.9,-201 773.9,-197.5 763.9,-194 763.9,-201"/>
</a>
</g>
</g>
<!-- Node12 -->
<g id="Node000012" class="node">
<title>Node12</title>
<g id="a_Node000012"><a xlink:href="classKsolve.html#a79eaff86bf0e6609c23a848c04be19ff" target="_top" xlink:title="gets number of pools (species) handled by system.">
<polygon fill="white" stroke="#666666" points="254,-57 133,-57 133,-38 254,-38 254,-57"/>
<text text-anchor="middle" x="193.5" y="-45" font-family="Ubuntu Mono" font-size="10.00">Ksolve::getNumPools</text>
</a>
</g>
</g>
<!-- Node1&#45;&gt;Node12 -->
<g id="edge14_Node000001_Node000012" class="edge">
<title>Node1&#45;&gt;Node12</title>
<g id="a_edge14_Node000001_Node000012"><a xlink:title=" ">
<path fill="none" stroke="#63b8ff" d="M825.32,-178.58C812.79,-148.57 783.81,-90.96 738,-66.5 655.86,-22.64 377.63,-35.09 254.26,-43.11"/>
<polygon fill="#63b8ff" stroke="#63b8ff" points="822.1,-179.96 829.07,-187.94 828.6,-177.36 822.1,-179.96"/>
</a>
</g>
</g>
<!-- Node13 -->
<g id="Node000013" class="node">
<title>Node13</title>
<g id="a_Node000013"><a xlink:href="classVoxelPools.html#a9fea259924a72a148ec3307eacb72354" target="_top" xlink:title=" ">
<polygon fill="white" stroke="#666666" points="736,-397 617,-397 617,-378 736,-378 736,-397"/>
<text text-anchor="middle" x="676.5" y="-385" font-family="Ubuntu Mono" font-size="10.00">VoxelPools::lsodaSys</text>
</a>
</g>
</g>
<!-- Node1&#45;&gt;Node13 -->
<g id="edge16_Node000001_Node000013" class="edge">
<title>Node1&#45;&gt;Node13</title>
<g id="a_edge16_Node000001_Node000013"><a xlink:title=" ">
<path fill="none" stroke="#63b8ff" d="M826.28,-216.94C814.42,-251.13 785.43,-322.28 738,-363.5 730.84,-369.73 721.86,-374.45 713.03,-377.99"/>
<polygon fill="#63b8ff" stroke="#63b8ff" points="829.68,-217.82 829.53,-207.23 823.04,-215.6 829.68,-217.82"/>
</a>
</g>
</g>
<!-- Node14 -->
<g id="Node000014" class="node">
<title>Node14</title>
<g id="a_Node000014"><a xlink:href="classKsolve.html#a7b8fd9685bb071318964ac4d9b903c06" target="_top" xlink:title=" ">
<polygon fill="white" stroke="#666666" points="738,-169 615,-169 615,-150 738,-150 738,-169"/>
<text text-anchor="middle" x="676.5" y="-157" font-family="Ubuntu Mono" font-size="10.00">Ksolve::notifyAddPool</text>
</a>
</g>
</g>
<!-- Node1&#45;&gt;Node14 -->
<g id="edge18_Node000001_Node000014" class="edge">
<title>Node1&#45;&gt;Node14</title>
<g id="a_edge18_Node000001_Node000014"><a xlink:title=" ">
<path fill="none" stroke="#63b8ff" d="M783.39,-185.46C761.74,-180.15 736.65,-174 716.33,-169.02"/>
<polygon fill="#63b8ff" stroke="#63b8ff" points="782.84,-188.93 793.39,-187.91 784.51,-182.13 782.84,-188.93"/>
</a>
</g>
</g>
<!-- Node15 -->
<g id="Node000015" class="node">
<title>Node15</title>
<g id="a_Node000015"><a xlink:href="classGsolve.html#a28b2eef67f156528448a96cbb76e21c2" target="_top" xlink:title=" ">
<polygon fill="white" stroke="#666666" points="725.5,-132 627.5,-132 627.5,-113 725.5,-113 725.5,-132"/>
<text text-anchor="middle" x="676.5" y="-120" font-family="Ubuntu Mono" font-size="10.00">Gsolve::setBlock</text>
</a>
</g>
</g>
<!-- Node1&#45;&gt;Node15 -->
<g id="edge19_Node000001_Node000015" class="edge">
<title>Node1&#45;&gt;Node15</title>
<g id="a_edge19_Node000001_Node000015"><a xlink:title=" ">
<path fill="none" stroke="#63b8ff" d="M810.66,-182.13C792.04,-169.58 764.21,-152.08 738,-140.5 730.78,-137.31 722.84,-134.49 715.15,-132.09"/>
<polygon fill="#63b8ff" stroke="#63b8ff" points="808.78,-185.09 819.01,-187.85 812.74,-179.31 808.78,-185.09"/>
</a>
</g>
</g>
<!-- Node16 -->
<g id="Node000016" class="node">
<title>Node16</title>
<g id="a_Node000016"><a xlink:href="classKsolve.html#a75af3cd45399052b3104963c02108f48" target="_top" xlink:title=" ">
<polygon fill="white" stroke="#666666" points="404.5,-283 306.5,-283 306.5,-264 404.5,-264 404.5,-283"/>
<text text-anchor="middle" x="355.5" y="-271" font-family="Ubuntu Mono" font-size="10.00">Ksolve::setBlock</text>
</a>
</g>
</g>
<!-- Node1&#45;&gt;Node16 -->
<g id="edge21_Node000001_Node000016" class="edge">
<title>Node1&#45;&gt;Node16</title>
<g id="a_edge21_Node000001_Node000016"><a xlink:title=" ">
<path fill="none" stroke="#63b8ff" d="M812.83,-213.38C794.62,-227.05 766.19,-245.9 738,-254.5 622.57,-289.74 478.44,-284.47 404.77,-278.49"/>
<polygon fill="#63b8ff" stroke="#63b8ff" points="815.12,-216.03 820.9,-207.15 810.84,-210.49 815.12,-216.03"/>
</a>
</g>
</g>
<!-- Node17 -->
<g id="Node000017" class="node">
<title>Node17</title>
<g id="a_Node000017"><a xlink:href="classGsolve.html#aa4839e4180f01a7d984d30aaca5a1096" target="_top" xlink:title=" ">
<polygon fill="white" stroke="#666666" points="724.5,-245 628.5,-245 628.5,-226 724.5,-226 724.5,-245"/>
<text text-anchor="middle" x="676.5" y="-233" font-family="Ubuntu Mono" font-size="10.00">Gsolve::setNvec</text>
</a>
</g>
</g>
<!-- Node1&#45;&gt;Node17 -->
<g id="edge23_Node000001_Node000017" class="edge">
<title>Node1&#45;&gt;Node17</title>
<g id="a_edge23_Node000001_Node000017"><a xlink:title=" ">
<path fill="none" stroke="#63b8ff" d="M783.39,-209.54C761.74,-214.85 736.65,-221 716.33,-225.98"/>
<polygon fill="#63b8ff" stroke="#63b8ff" points="784.51,-212.87 793.39,-207.09 782.84,-206.07 784.51,-212.87"/>
</a>
</g>
</g>
<!-- Node18 -->
<g id="Node000018" class="node">
<title>Node18</title>
<g id="a_Node000018"><a xlink:href="classKsolve.html#a4b60162796b1f75c558631bf49382b19" target="_top" xlink:title=" ">
<polygon fill="white" stroke="#666666" points="565.5,-19 470.5,-19 470.5,0 565.5,0 565.5,-19"/>
<text text-anchor="middle" x="518" y="-7" font-family="Ubuntu Mono" font-size="10.00">Ksolve::setNvec</text>
</a>
</g>
</g>
<!-- Node1&#45;&gt;Node18 -->
<g id="edge25_Node000001_Node000018" class="edge">
<title>Node1&#45;&gt;Node18</title>
<g id="a_edge25_Node000001_Node000018"><a xlink:title=" ">
<path fill="none" stroke="#63b8ff" d="M827.51,-177.91C817.35,-142.39 790.61,-67.86 738,-33.5 686.44,0.18 613.12,0.99 565.79,-3.05"/>
<polygon fill="#63b8ff" stroke="#63b8ff" points="824.15,-178.86 830.15,-187.59 830.9,-177.03 824.15,-178.86"/>
</a>
</g>
</g>
<!-- Node3 -->
<g id="Node000003" class="node">
<title>Node3</title>
<g id="a_Node000003"><a xlink:href="classKsolve.html#af2745d07ee61be7eaaba394941f1c796" target="_top" xlink:title=" ">
<polygon fill="white" stroke="#666666" points="421,-359 290,-359 290,-340 421,-340 421,-359"/>
<text text-anchor="middle" x="355.5" y="-347" font-family="Ubuntu Mono" font-size="10.00">Ksolve::advance_chunk</text>
</a>
</g>
</g>
<!-- Node2&#45;&gt;Node3 -->
<g id="edge2_Node000002_Node000003" class="edge">
<title>Node2&#45;&gt;Node3</title>
<g id="a_edge2_Node000002_Node000003"><a xlink:title=" ">
<path fill="none" stroke="#63b8ff" d="M465.86,-374.71C443.95,-369.66 418.69,-363.84 397.97,-359.06"/>
<polygon fill="#63b8ff" stroke="#63b8ff" points="465.14,-378.14 475.67,-376.97 466.71,-371.31 465.14,-378.14"/>
</a>
</g>
</g>
<!-- Node4 -->
<g id="Node000004" class="node">
<title>Node4</title>
<g id="a_Node000004"><a xlink:href="classKsolve.html#a595f7ab8fe6fc96b6df95b3d63af465a" target="_top" xlink:title=" ">
<polygon fill="white" stroke="#666666" points="240,-321 147,-321 147,-302 240,-302 240,-321"/>
<text text-anchor="middle" x="193.5" y="-309" font-family="Ubuntu Mono" font-size="10.00">Ksolve::process</text>
</a>
</g>
</g>
<!-- Node2&#45;&gt;Node4 -->
<g id="edge6_Node000002_Node000004" class="edge">
<title>Node2&#45;&gt;Node4</title>
<g id="a_edge6_Node000002_Node000004"><a xlink:title=" ">
<path fill="none" stroke="#63b8ff" d="M481.53,-399.16C435.52,-413.46 353.62,-431.56 290,-405.5 247.37,-388.04 213.56,-341.36 200.42,-321.1"/>
<polygon fill="#63b8ff" stroke="#63b8ff" points="482.89,-402.4 491.33,-396.01 480.74,-395.74 482.89,-402.4"/>
</a>
</g>
</g>
<!-- Node6 -->
<g id="Node000006" class="node">
<title>Node6</title>
<g id="a_Node000006"><a xlink:href="classKsolve.html#a70c6ebd8b5c35522b19de3a2d004243c" target="_top" xlink:title=" ">
<polygon fill="white" stroke="#666666" points="417,-396 294,-396 294,-377 417,-377 417,-396"/>
<text text-anchor="middle" x="355.5" y="-384" font-family="Ubuntu Mono" font-size="10.00">Ksolve::advance_pool</text>
</a>
</g>
</g>
<!-- Node2&#45;&gt;Node6 -->
<g id="edge5_Node000002_Node000006" class="edge">
<title>Node2&#45;&gt;Node6</title>
<g id="a_edge5_Node000002_Node000006"><a xlink:title=" ">
<path fill="none" stroke="#63b8ff" d="M449.73,-386.5C438.92,-386.5 427.8,-386.5 417.16,-386.5"/>
<polygon fill="#63b8ff" stroke="#63b8ff" points="449.96,-390 459.96,-386.5 449.96,-383 449.96,-390"/>
</a>
</g>
</g>
<!-- Node3&#45;&gt;Node4 -->
<g id="edge3_Node000003_Node000004" class="edge">
<title>Node3&#45;&gt;Node4</title>
<g id="a_edge3_Node000003_Node000004"><a xlink:title=" ">
<path fill="none" stroke="#63b8ff" d="M304.11,-337.53C281.69,-332.21 255.65,-326.02 234.58,-321.02"/>
<polygon fill="#63b8ff" stroke="#63b8ff" points="303.59,-341.01 314.13,-339.91 305.2,-334.19 303.59,-341.01"/>
</a>
</g>
</g>
<!-- Node5 -->
<g id="Node000005" class="node">
<title>Node5</title>
<g id="a_Node000005"><a xlink:href="classKsolve.html#a55f3a588c1ed27ffd822d7fe7744be32" target="_top" xlink:title=" ">
<polygon fill="white" stroke="#666666" points="97,-57 0,-57 0,-38 97,-38 97,-57"/>
<text text-anchor="middle" x="48.5" y="-45" font-family="Ubuntu Mono" font-size="10.00">Ksolve::initCinfo</text>
</a>
</g>
</g>
<!-- Node4&#45;&gt;Node5 -->
<g id="edge4_Node000004_Node000005" class="edge">
<title>Node4&#45;&gt;Node5</title>
<g id="a_edge4_Node000004_Node000005"><a xlink:title=" ">
<path fill="none" stroke="#63b8ff" d="M182.47,-292.98C154.37,-241.11 75.58,-95.65 54.66,-57.02"/>
<polygon fill="#63b8ff" stroke="#63b8ff" points="179.4,-294.67 187.24,-301.79 185.56,-291.33 179.4,-294.67"/>
</a>
</g>
</g>
<!-- Node8 -->
<g id="Node000008" class="node">
<title>Node8</title>
<g id="a_Node000008"><a xlink:href="classGsolve.html#a5914475e8690bb9d7f9784df94fbe8ec" target="_top" xlink:title=" ">
<polygon fill="white" stroke="#666666" points="565,-132 471,-132 471,-113 565,-113 565,-132"/>
<text text-anchor="middle" x="518" y="-120" font-family="Ubuntu Mono" font-size="10.00">Gsolve::process</text>
</a>
</g>
</g>
<!-- Node7&#45;&gt;Node8 -->
<g id="edge8_Node000007_Node000008" class="edge">
<title>Node7&#45;&gt;Node8</title>
<g id="a_edge8_Node000007_Node000008"><a xlink:title=" ">
<path fill="none" stroke="#63b8ff" d="M625.35,-97.36C604.05,-102.39 579.55,-108.18 559.44,-112.94"/>
<polygon fill="#63b8ff" stroke="#63b8ff" points="626.27,-100.74 635.2,-95.03 624.66,-93.92 626.27,-100.74"/>
</a>
</g>
</g>
<!-- Node9 -->
<g id="Node000009" class="node">
<title>Node9</title>
<g id="a_Node000009"><a xlink:href="classGsolve.html#a957882fd0d9709d0bf6b8baf869330c5" target="_top" xlink:title=" ">
<polygon fill="white" stroke="#666666" points="404.5,-207 306.5,-207 306.5,-188 404.5,-188 404.5,-207"/>
<text text-anchor="middle" x="355.5" y="-195" font-family="Ubuntu Mono" font-size="10.00">Gsolve::initCinfo</text>
</a>
</g>
</g>
<!-- Node8&#45;&gt;Node9 -->
<g id="edge9_Node000008_Node000009" class="edge">
<title>Node8&#45;&gt;Node9</title>
<g id="a_edge9_Node000008_Node000009"><a xlink:title=" ">
<path fill="none" stroke="#63b8ff" d="M487.01,-136.51C454.95,-151.5 404.96,-174.85 377.07,-187.89"/>
<polygon fill="#63b8ff" stroke="#63b8ff" points="488.77,-139.56 496.35,-132.15 485.8,-133.21 488.77,-139.56"/>
</a>
</g>
</g>
<!-- Node10&#45;&gt;Node4 -->
<g id="edge11_Node000010_Node000004" class="edge">
<title>Node10&#45;&gt;Node4</title>
<g id="a_edge11_Node000010_Node000004"><a xlink:title=" ">
<path fill="none" stroke="#63b8ff" d="M458.59,-311.5C395.88,-311.5 297.56,-311.5 240.24,-311.5"/>
<polygon fill="#63b8ff" stroke="#63b8ff" points="458.72,-315 468.72,-311.5 458.72,-308 458.72,-315"/>
</a>
</g>
</g>
<!-- Node11&#45;&gt;Node9 -->
<g id="edge13_Node000011_Node000009" class="edge">
<title>Node11&#45;&gt;Node9</title>
<g id="a_edge13_Node000011_Node000009"><a xlink:title=" ">
<path fill="none" stroke="#63b8ff" d="M446.54,-197.5C432.35,-197.5 417.74,-197.5 404.53,-197.5"/>
<polygon fill="#63b8ff" stroke="#63b8ff" points="446.78,-201 456.78,-197.5 446.78,-194 446.78,-201"/>
</a>
</g>
</g>
<!-- Node12&#45;&gt;Node5 -->
<g id="edge15_Node000012_Node000005" class="edge">
<title>Node12&#45;&gt;Node5</title>
<g id="a_edge15_Node000012_Node000005"><a xlink:title=" ">
<path fill="none" stroke="#63b8ff" d="M122.67,-47.5C114.09,-47.5 105.49,-47.5 97.35,-47.5"/>
<polygon fill="#63b8ff" stroke="#63b8ff" points="122.68,-51 132.68,-47.5 122.68,-44 122.68,-51"/>
</a>
</g>
</g>
<!-- Node13&#45;&gt;Node2 -->
<g id="edge17_Node000013_Node000002" class="edge">
<title>Node13&#45;&gt;Node2</title>
<g id="a_edge17_Node000013_Node000002"><a xlink:title=" ">
<path fill="none" stroke="#63b8ff" d="M606.7,-387.06C596.53,-387 586.14,-386.93 576.23,-386.87"/>
<polygon fill="#63b8ff" stroke="#63b8ff" points="606.76,-390.56 616.78,-387.12 606.8,-383.56 606.76,-390.56"/>
</a>
</g>
</g>
<!-- Node15&#45;&gt;Node8 -->
<g id="edge20_Node000015_Node000008" class="edge">
<title>Node15&#45;&gt;Node8</title>
<g id="a_edge20_Node000015_Node000008"><a xlink:title=" ">
<path fill="none" stroke="#63b8ff" d="M616.84,-122.5C599.78,-122.5 581.38,-122.5 565.2,-122.5"/>
<polygon fill="#63b8ff" stroke="#63b8ff" points="617.27,-126 627.27,-122.5 617.27,-119 617.27,-126"/>
</a>
</g>
</g>
<!-- Node16&#45;&gt;Node4 -->
<g id="edge22_Node000016_Node000004" class="edge">
<title>Node16&#45;&gt;Node4</title>
<g id="a_edge22_Node000016_Node000004"><a xlink:title=" ">
<path fill="none" stroke="#63b8ff" d="M304.11,-285.47C281.69,-290.79 255.65,-296.98 234.58,-301.98"/>
<polygon fill="#63b8ff" stroke="#63b8ff" points="305.2,-288.81 314.13,-283.09 303.59,-281.99 305.2,-288.81"/>
</a>
</g>
</g>
<!-- Node17&#45;&gt;Node9 -->
<g id="edge24_Node000017_Node000009" class="edge">
<title>Node17&#45;&gt;Node9</title>
<g id="a_edge24_Node000017_Node000009"><a xlink:title=" ">
<path fill="none" stroke="#63b8ff" d="M618.21,-232.09C574.03,-229.08 511.48,-224 457,-216.5 438.79,-213.99 418.88,-210.41 401.62,-207.03"/>
<polygon fill="#63b8ff" stroke="#63b8ff" points="618.25,-235.6 628.46,-232.78 618.72,-228.62 618.25,-235.6"/>
</a>
</g>
</g>
<!-- Node18&#45;&gt;Node5 -->
<g id="edge26_Node000018_Node000005" class="edge">
<title>Node18&#45;&gt;Node5</title>
<g id="a_edge26_Node000018_Node000005"><a xlink:title=" ">
<path fill="none" stroke="#63b8ff" d="M460.16,-9.23C384.95,-9.57 248.42,-12.64 133,-28.5 117.09,-30.69 99.75,-34.41 85.01,-37.98"/>
<polygon fill="#63b8ff" stroke="#63b8ff" points="460.37,-12.73 470.36,-9.2 460.35,-5.73 460.37,-12.73"/>
</a>
</g>
</g>
</g>
</svg>

<g id="navigator" transform="translate(0 0)" fill="#404254">
  <rect fill="#f2f5e9" fill-opacity="0.5" stroke="#606060" stroke-width=".5" x="0" y="0" width="60" height="60"/>
  <use id="zoomplus" xlink:href="#zoomPlus" x="17" y="9" onmousedown="handleZoom(evt,'in')"/>
  <use id="zoomminus" xlink:href="#zoomMin" x="42" y="9" onmousedown="handleZoom(evt,'out')"/>
  <use id="reset" xlink:href="#resetDef" x="30" y="36" onmousedown="handleReset()"/>
   <use id="arrowup" xlink:href="#arrowUp" x="0" y="0" onmousedown="handlePan(0,-1)"/>
  <use id="arrowright" xlink:href="#arrowRight" x="0" y="0" onmousedown="handlePan(1,0)"/>
  <use id="arrowdown" xlink:href="#arrowDown" x="0" y="0" onmousedown="handlePan(0,1)"/>
  <use id="arrowleft" xlink:href="#arrowLeft" x="0" y="0" onmousedown="handlePan(-1,0)"/>
</g>
<svg viewBox="0 0 15 15" width="100%" height="30px" preserveAspectRatio="xMaxYMin meet">
 <g id="arrow_out" transform="scale(0.3 0.3)">
  <a xlink:href="classVoxelPoolsBase_ab77b743ec417b4879106490e5663816b_icgraph_org.svg" target="_base">
   <rect id="button" ry="5" rx="5" y="6" x="6" height="38" width="38"
        fill="#f2f5e9" fill-opacity="0.5" stroke="#606060" stroke-width="1.0"/>
   <path id="arrow"
     d="M 11.500037,31.436501 C 11.940474,20.09759 22.043105,11.32322 32.158766,21.979434 L 37.068811,17.246167 C 37.068811,17.246167 37.088388,32 37.088388,32 L 22.160133,31.978069 C 22.160133,31.978069 26.997745,27.140456 26.997745,27.140456 C 18.528582,18.264221 13.291696,25.230495 11.500037,31.436501 z"
     style="fill:#404040;"/>
  </a>
 </g>
</svg>

<style type='text/css'>
<![CDATA[
[data-mouse-over-selected='false'] { opacity: 0.7; }
[data-mouse-over-selected='true']  { opacity: 1.0; }
]]>
</style>
<script type="application/ecmascript"><![CDATA[
document.addEventListener('DOMContentLoaded', (event) => {
  highlightEdges();
  highlightAdjacentNodes();
});
]]></script>
</svg>
