<?xml version="1.0" encoding="UTF-8" standalone="no"?>
<!DOCTYPE svg PUBLIC "-//W3C//DTD SVG 1.1//EN"
 "http://www.w3.org/Graphics/SVG/1.1/DTD/svg11.dtd">
<!-- Generated by graphviz version 2.43.0 (0)
 -->
<!-- Title: ReadOnlyLookupElementValueFinfo::registerFinfo Pages: 1 -->
<svg width="464pt" height="64pt"
 viewBox="0.00 0.00 464.00 64.00" xmlns="http://www.w3.org/2000/svg" xmlns:xlink="http://www.w3.org/1999/xlink">
<g id="graph0" class="graph" transform="scale(1 1) rotate(0) translate(4 60)">
<title>ReadOnlyLookupElementValueFinfo::registerFinfo</title>
<!-- Node1 -->
<g id="Node000001" class="node">
<title>Node1</title>
<g id="a_Node000001"><a xlink:title=" ">
<polygon fill="#999999" stroke="#666666" points="166,-42.5 0,-42.5 0,-12.5 166,-12.5 166,-42.5"/>
<text text-anchor="start" x="8" y="-30.5" font-family="Ubuntu Mono" font-size="10.00">ReadOnlyLookupElementValue</text>
<text text-anchor="middle" x="83" y="-19.5" font-family="Ubuntu Mono" font-size="10.00">Finfo::registerFinfo</text>
</a>
</g>
</g>
<!-- Node2 -->
<g id="Node000002" class="node">
<title>Node2</title>
<g id="a_Node000002"><a xlink:href="classCinfo.html#af7df887215d3a7119115d82fb3fff2ba" target="_top" xlink:title=" ">
<polygon fill="white" stroke="#666666" points="312,-37 202,-37 202,-18 312,-18 312,-37"/>
<text text-anchor="middle" x="257" y="-25" font-family="Ubuntu Mono" font-size="10.00">Cinfo::registerFinfo</text>
</a>
</g>
</g>
<!-- Node1&#45;&gt;Node2 -->
<g id="edge1_Node000001_Node000002" class="edge">
<title>Node1&#45;&gt;Node2</title>
<g id="a_edge1_Node000001_Node000002"><a xlink:title=" ">
<path fill="none" stroke="#63b8ff" d="M166.22,-27.5C174.82,-27.5 183.47,-27.5 191.82,-27.5"/>
<polygon fill="#63b8ff" stroke="#63b8ff" points="191.84,-31 201.84,-27.5 191.84,-24 191.84,-31"/>
</a>
</g>
</g>
<!-- Node3 -->
<g id="Node000003" class="node">
<title>Node3</title>
<g id="a_Node000003"><a xlink:href="classFinfo.html#a61d1ed4e356444e2c94611a419b3440a" target="_top" xlink:title=" ">
<polygon fill="white" stroke="#666666" points="439,-56 365,-56 365,-37 439,-37 439,-56"/>
<text text-anchor="middle" x="402" y="-44" font-family="Ubuntu Mono" font-size="10.00">Finfo::name</text>
</a>
</g>
</g>
<!-- Node2&#45;&gt;Node3 -->
<g id="edge2_Node000002_Node000003" class="edge">
<title>Node2&#45;&gt;Node3</title>
<g id="a_edge2_Node000002_Node000003"><a xlink:title=" ">
<path fill="none" stroke="#63b8ff" d="M312.06,-34.68C326.05,-36.54 340.99,-38.53 354.56,-40.33"/>
<polygon fill="#63b8ff" stroke="#63b8ff" points="354.25,-43.82 364.62,-41.67 355.17,-36.88 354.25,-43.82"/>
</a>
</g>
</g>
<!-- Node4 -->
<g id="Node000004" class="node">
<title>Node4</title>
<g id="a_Node000004"><a xlink:href="classFinfo.html#a30a976008e91d627563e2a3ef49f7e66" target="_top" xlink:title=" ">
<polygon fill="white" stroke="#666666" points="456,-19 348,-19 348,0 456,0 456,-19"/>
<text text-anchor="middle" x="402" y="-7" font-family="Ubuntu Mono" font-size="10.00">Finfo::registerFinfo</text>
</a>
</g>
</g>
<!-- Node2&#45;&gt;Node4 -->
<g id="edge3_Node000002_Node000004" class="edge">
<title>Node2&#45;&gt;Node4</title>
<g id="a_edge3_Node000002_Node000004"><a xlink:title=" ">
<path fill="none" stroke="#63b8ff" d="M312.06,-20.69C320.48,-19.64 329.23,-18.53 337.83,-17.45"/>
<polygon fill="#63b8ff" stroke="#63b8ff" points="338.32,-20.92 347.81,-16.2 337.45,-13.97 338.32,-20.92"/>
</a>
</g>
</g>
</g>
</svg>
