<?xml version="1.0" encoding="UTF-8" standalone="no"?>
<!DOCTYPE svg PUBLIC "-//W3C//DTD SVG 1.1//EN"
 "http://www.w3.org/Graphics/SVG/1.1/DTD/svg11.dtd">
<!-- Generated by graphviz version 2.43.0 (0)
 -->
<!-- Title: KinSparseMatrix::getGillespieDependence Pages: 1 -->
<svg width="608pt" height="38pt"
 viewBox="0.00 0.00 608.00 38.00" xmlns="http://www.w3.org/2000/svg" xmlns:xlink="http://www.w3.org/1999/xlink">
<g id="graph0" class="graph" transform="scale(1 1) rotate(0) translate(4 34)">
<title>KinSparseMatrix::getGillespieDependence</title>
<!-- Node1 -->
<g id="Node000001" class="node">
<title>Node1</title>
<g id="a_Node000001"><a xlink:title=" ">
<polygon fill="#999999" stroke="#666666" points="600,-30 439,-30 439,0 600,0 600,-30"/>
<text text-anchor="start" x="447" y="-18" font-family="Ubuntu Mono" font-size="10.00">KinSparseMatrix::getGillespie</text>
<text text-anchor="middle" x="519.5" y="-7" font-family="Ubuntu Mono" font-size="10.00">Dependence</text>
</a>
</g>
</g>
<!-- Node2 -->
<g id="Node000002" class="node">
<title>Node2</title>
<g id="a_Node000002"><a xlink:href="classGsolve.html#a20e6c958da9b8a188b3ae503adfc0a36" target="_top" xlink:title=" ">
<polygon fill="white" stroke="#666666" points="403,-24.5 252,-24.5 252,-5.5 403,-5.5 403,-24.5"/>
<text text-anchor="middle" x="327.5" y="-12.5" font-family="Ubuntu Mono" font-size="10.00">Gsolve::rebuildGssaSystem</text>
</a>
</g>
</g>
<!-- Node1&#45;&gt;Node2 -->
<g id="edge1_Node000001_Node000002" class="edge">
<title>Node1&#45;&gt;Node2</title>
<g id="a_edge1_Node000001_Node000002"><a xlink:title=" ">
<path fill="none" stroke="#63b8ff" d="M428.47,-15C420.01,-15 411.49,-15 403.19,-15"/>
<polygon fill="#63b8ff" stroke="#63b8ff" points="428.75,-18.5 438.75,-15 428.75,-11.5 428.75,-18.5"/>
</a>
</g>
</g>
<!-- Node3 -->
<g id="Node000003" class="node">
<title>Node3</title>
<g id="a_Node000003"><a xlink:href="classGsolve.html#a65bd2d080e751fc5c26730742b526b0f" target="_top" xlink:title=" ">
<polygon fill="white" stroke="#666666" points="216,-24.5 134,-24.5 134,-5.5 216,-5.5 216,-24.5"/>
<text text-anchor="middle" x="175" y="-12.5" font-family="Ubuntu Mono" font-size="10.00">Gsolve::reinit</text>
</a>
</g>
</g>
<!-- Node2&#45;&gt;Node3 -->
<g id="edge2_Node000002_Node000003" class="edge">
<title>Node2&#45;&gt;Node3</title>
<g id="a_edge2_Node000002_Node000003"><a xlink:title=" ">
<path fill="none" stroke="#63b8ff" d="M241.67,-15C232.83,-15 224.18,-15 216.2,-15"/>
<polygon fill="#63b8ff" stroke="#63b8ff" points="241.69,-18.5 251.69,-15 241.69,-11.5 241.69,-18.5"/>
</a>
</g>
</g>
<!-- Node4 -->
<g id="Node000004" class="node">
<title>Node4</title>
<g id="a_Node000004"><a xlink:href="classGsolve.html#a957882fd0d9709d0bf6b8baf869330c5" target="_top" xlink:title=" ">
<polygon fill="white" stroke="#666666" points="98,-24.5 0,-24.5 0,-5.5 98,-5.5 98,-24.5"/>
<text text-anchor="middle" x="49" y="-12.5" font-family="Ubuntu Mono" font-size="10.00">Gsolve::initCinfo</text>
</a>
</g>
</g>
<!-- Node3&#45;&gt;Node4 -->
<g id="edge3_Node000003_Node000004" class="edge">
<title>Node3&#45;&gt;Node4</title>
<g id="a_edge3_Node000003_Node000004"><a xlink:title=" ">
<path fill="none" stroke="#63b8ff" d="M123.69,-15C115.3,-15 106.61,-15 98.27,-15"/>
<polygon fill="#63b8ff" stroke="#63b8ff" points="123.74,-18.5 133.74,-15 123.74,-11.5 123.74,-18.5"/>
</a>
</g>
</g>
</g>
</svg>
