<?xml version="1.0" encoding="UTF-8" standalone="no"?>
<!DOCTYPE svg PUBLIC "-//W3C//DTD SVG 1.1//EN"
 "http://www.w3.org/Graphics/SVG/1.1/DTD/svg11.dtd">
<!-- Generated by graphviz version 2.43.0 (0)
 -->
<!-- Title: Adaptor::process Pages: 1 -->
<svg width="366pt" height="46pt"
 viewBox="0.00 0.00 366.00 46.00" xmlns="http://www.w3.org/2000/svg" xmlns:xlink="http://www.w3.org/1999/xlink">

<svg id="main" version="1.1" xmlns="http://www.w3.org/2000/svg" xmlns:xlink="http://www.w3.org/1999/xlink" xml:space="preserve" onload="init(evt)">
<style type="text/css"><![CDATA[
.node, .edge {opacity: 0.7;}
.node.selected, .edge.selected {opacity: 1;}
.edge:hover path { stroke: red; }
.edge:hover polygon { stroke: red; fill: red; }
]]></style>
<script type="application/ecmascript" xlink:href="svg.min.js"/>
<svg id="graph" class="graph">
<g id="graph0" class="graph" transform="scale(1 1) rotate(0) translate(4 42)">
<title>Adaptor::process</title>
<!-- Node1 -->
<g id="Node000001" class="node">
<title>Node1</title>
<g id="a_Node000001"><a xlink:title=" ">
<polygon fill="#999999" stroke="#666666" points="358,-38 260,-38 260,-19 358,-19 358,-38"/>
<text text-anchor="middle" x="309" y="-26" font-family="Ubuntu Mono" font-size="10.00">Adaptor::process</text>
</a>
</g>
</g>
<!-- Node2 -->
<g id="Node000002" class="node">
<title>Node2</title>
<g id="a_Node000002"><a xlink:href="classAdaptor.html#a8e1b2a4b22f97c03480629da237578bf" target="_top" xlink:title=" ">
<polygon fill="white" stroke="#666666" points="102,-38 0,-38 0,-19 102,-19 102,-38"/>
<text text-anchor="middle" x="51" y="-26" font-family="Ubuntu Mono" font-size="10.00">Adaptor::initCinfo</text>
</a>
</g>
</g>
<!-- Node1&#45;&gt;Node2 -->
<g id="edge1_Node000001_Node000002" class="edge">
<title>Node1&#45;&gt;Node2</title>
<g id="a_edge1_Node000001_Node000002"><a xlink:title=" ">
<path fill="none" stroke="#63b8ff" d="M249.76,-28.5C205.23,-28.5 144.49,-28.5 102.12,-28.5"/>
<polygon fill="#63b8ff" stroke="#63b8ff" points="249.85,-32 259.85,-28.5 249.85,-25 249.85,-32"/>
</a>
</g>
</g>
<!-- Node3 -->
<g id="Node000003" class="node">
<title>Node3</title>
<g id="a_Node000003"><a xlink:href="classAdaptor.html#a34e79351530696c46b275eded1235e94" target="_top" xlink:title=" ">
<polygon fill="white" stroke="#666666" points="224,-19 138,-19 138,0 224,0 224,-19"/>
<text text-anchor="middle" x="181" y="-7" font-family="Ubuntu Mono" font-size="10.00">Adaptor::reinit</text>
</a>
</g>
</g>
<!-- Node1&#45;&gt;Node3 -->
<g id="edge2_Node000001_Node000003" class="edge">
<title>Node1&#45;&gt;Node3</title>
<g id="a_edge2_Node000001_Node000003"><a xlink:title=" ">
<path fill="none" stroke="#63b8ff" d="M249.68,-19.71C241.11,-18.41 232.42,-17.1 224.26,-15.87"/>
<polygon fill="#63b8ff" stroke="#63b8ff" points="249.24,-23.18 259.65,-21.21 250.28,-16.26 249.24,-23.18"/>
</a>
</g>
</g>
<!-- Node3&#45;&gt;Node2 -->
<g id="edge3_Node000003_Node000002" class="edge">
<title>Node3&#45;&gt;Node2</title>
<g id="a_edge3_Node000003_Node000002"><a xlink:title=" ">
<path fill="none" stroke="#63b8ff" d="M127.66,-17.27C119.26,-18.52 110.58,-19.8 102.23,-21.04"/>
<polygon fill="#63b8ff" stroke="#63b8ff" points="128.36,-20.7 137.73,-15.77 127.33,-13.78 128.36,-20.7"/>
</a>
</g>
</g>
</g>
</svg>
</svg>

<style type='text/css'>
<![CDATA[
[data-mouse-over-selected='false'] { opacity: 0.7; }
[data-mouse-over-selected='true']  { opacity: 1.0; }
]]>
</style>
<script type="application/ecmascript"><![CDATA[
document.addEventListener('DOMContentLoaded', (event) => {
  highlightEdges();
  highlightAdjacentNodes();
});
]]></script>
</svg>
