<?xml version="1.0" encoding="UTF-8" standalone="no"?>
<!DOCTYPE svg PUBLIC "-//W3C//DTD SVG 1.1//EN"
 "http://www.w3.org/Graphics/SVG/1.1/DTD/svg11.dtd">
<!-- Generated by graphviz version 2.43.0 (0)
 -->
<!-- Title: Element::addMsgAndFunc Pages: 1 -->
<svg width="479pt" height="335pt"
 viewBox="0.00 0.00 479.00 335.00" xmlns="http://www.w3.org/2000/svg" xmlns:xlink="http://www.w3.org/1999/xlink">
<g id="graph0" class="graph" transform="scale(1 1) rotate(0) translate(4 331)">
<title>Element::addMsgAndFunc</title>
<!-- Node1 -->
<g id="Node000001" class="node">
<title>Node1</title>
<g id="a_Node000001"><a xlink:title=" ">
<polygon fill="#999999" stroke="#666666" points="471,-167 328,-167 328,-148 471,-148 471,-167"/>
<text text-anchor="middle" x="399.5" y="-155" font-family="Ubuntu Mono" font-size="10.00">Element::addMsgAndFunc</text>
</a>
</g>
</g>
<!-- Node2 -->
<g id="Node000002" class="node">
<title>Node2</title>
<g id="a_Node000002"><a xlink:href="classSrcFinfo.html#a8dcc10c1a8350c1c0a2497a6509a84f6" target="_top" xlink:title=" ">
<polygon fill="white" stroke="#666666" points="273.5,-327 173.5,-327 173.5,-308 273.5,-308 273.5,-327"/>
<text text-anchor="middle" x="223.5" y="-315" font-family="Ubuntu Mono" font-size="10.00">SrcFinfo::addMsg</text>
</a>
</g>
</g>
<!-- Node1&#45;&gt;Node2 -->
<g id="edge1_Node000001_Node000002" class="edge">
<title>Node1&#45;&gt;Node2</title>
<g id="a_edge1_Node000001_Node000002"><a xlink:title=" ">
<path fill="none" stroke="#63b8ff" d="M389.62,-176.36C374.19,-207.01 339.5,-267.43 292,-299.5 286.47,-303.23 280.2,-306.19 273.77,-308.54"/>
<polygon fill="#63b8ff" stroke="#63b8ff" points="392.85,-177.71 394.1,-167.19 386.56,-174.64 392.85,-177.71"/>
</a>
</g>
</g>
<!-- Node4 -->
<g id="Node000004" class="node">
<title>Node4</title>
<g id="a_Node000004"><a xlink:href="classDiagonalMsg.html#adea517eba59288484947a761fd798077" target="_top" xlink:title=" ">
<polygon fill="white" stroke="#666666" points="278.5,-290 168.5,-290 168.5,-271 278.5,-271 278.5,-290"/>
<text text-anchor="middle" x="223.5" y="-278" font-family="Ubuntu Mono" font-size="10.00">DiagonalMsg::copy</text>
</a>
</g>
</g>
<!-- Node1&#45;&gt;Node4 -->
<g id="edge3_Node000001_Node000004" class="edge">
<title>Node1&#45;&gt;Node4</title>
<g id="a_edge3_Node000001_Node000004"><a xlink:title=" ">
<path fill="none" stroke="#63b8ff" d="M385.29,-175.38C366.96,-198.89 331.57,-239.87 292,-262.5 286.1,-265.87 279.56,-268.63 272.93,-270.88"/>
<polygon fill="#63b8ff" stroke="#63b8ff" points="388.17,-177.37 391.45,-167.3 382.6,-173.13 388.17,-177.37"/>
</a>
</g>
</g>
<!-- Node5 -->
<g id="Node000005" class="node">
<title>Node5</title>
<g id="a_Node000005"><a xlink:href="classOneToAllMsg.html#a89de764573c7ac7e2b397542b2134497" target="_top" xlink:title=" ">
<polygon fill="white" stroke="#666666" points="278,-253 169,-253 169,-234 278,-234 278,-253"/>
<text text-anchor="middle" x="223.5" y="-241" font-family="Ubuntu Mono" font-size="10.00">OneToAllMsg::copy</text>
</a>
</g>
</g>
<!-- Node1&#45;&gt;Node5 -->
<g id="edge4_Node000001_Node000005" class="edge">
<title>Node1&#45;&gt;Node5</title>
<g id="a_edge4_Node000001_Node000005"><a xlink:title=" ">
<path fill="none" stroke="#63b8ff" d="M377.99,-172.93C357.24,-187.9 323.79,-210.38 292,-224.5 283.66,-228.21 274.41,-231.37 265.5,-233.99"/>
<polygon fill="#63b8ff" stroke="#63b8ff" points="380.06,-175.75 386.06,-167.01 375.92,-170.1 380.06,-175.75"/>
</a>
</g>
</g>
<!-- Node6 -->
<g id="Node000006" class="node">
<title>Node6</title>
<g id="a_Node000006"><a xlink:href="classOneToOneDataIndexMsg.html#a03d0a250dc4a29eaea70883d2487242f" target="_top" xlink:title=" ">
<polygon fill="white" stroke="#666666" points="292,-215.5 155,-215.5 155,-185.5 292,-185.5 292,-215.5"/>
<text text-anchor="start" x="163" y="-203.5" font-family="Ubuntu Mono" font-size="10.00">OneToOneDataIndexMsg</text>
<text text-anchor="middle" x="223.5" y="-192.5" font-family="Ubuntu Mono" font-size="10.00">::copy</text>
</a>
</g>
</g>
<!-- Node1&#45;&gt;Node6 -->
<g id="edge5_Node000001_Node000006" class="edge">
<title>Node1&#45;&gt;Node6</title>
<g id="a_edge5_Node000001_Node000006"><a xlink:title=" ">
<path fill="none" stroke="#63b8ff" d="M350.03,-169.48C329.95,-174.44 306.44,-180.25 285.22,-185.49"/>
<polygon fill="#63b8ff" stroke="#63b8ff" points="351.02,-172.84 359.88,-167.04 349.34,-166.04 351.02,-172.84"/>
</a>
</g>
</g>
<!-- Node7 -->
<g id="Node000007" class="node">
<title>Node7</title>
<g id="a_Node000007"><a xlink:href="classOneToOneMsg.html#a88241eab1ceebe5863224d655c665f39" target="_top" xlink:title=" ">
<polygon fill="white" stroke="#666666" points="281.5,-167 165.5,-167 165.5,-148 281.5,-148 281.5,-167"/>
<text text-anchor="middle" x="223.5" y="-155" font-family="Ubuntu Mono" font-size="10.00">OneToOneMsg::copy</text>
</a>
</g>
</g>
<!-- Node1&#45;&gt;Node7 -->
<g id="edge6_Node000001_Node000007" class="edge">
<title>Node1&#45;&gt;Node7</title>
<g id="a_edge6_Node000001_Node000007"><a xlink:title=" ">
<path fill="none" stroke="#63b8ff" d="M317.76,-157.5C305.52,-157.5 293.11,-157.5 281.52,-157.5"/>
<polygon fill="#63b8ff" stroke="#63b8ff" points="317.98,-161 327.98,-157.5 317.98,-154 317.98,-161"/>
</a>
</g>
</g>
<!-- Node8 -->
<g id="Node000008" class="node">
<title>Node8</title>
<g id="a_Node000008"><a xlink:href="classSingleMsg.html#afd4e29175e21ddaf884424a4c97a35a6" target="_top" xlink:title=" ">
<polygon fill="white" stroke="#666666" points="271.5,-130 175.5,-130 175.5,-111 271.5,-111 271.5,-130"/>
<text text-anchor="middle" x="223.5" y="-118" font-family="Ubuntu Mono" font-size="10.00">SingleMsg::copy</text>
</a>
</g>
</g>
<!-- Node1&#45;&gt;Node8 -->
<g id="edge7_Node000001_Node000008" class="edge">
<title>Node1&#45;&gt;Node8</title>
<g id="a_edge7_Node000001_Node000008"><a xlink:title=" ">
<path fill="none" stroke="#63b8ff" d="M343.7,-145.85C319.8,-140.77 292.13,-134.88 269.46,-130.06"/>
<polygon fill="#63b8ff" stroke="#63b8ff" points="343.18,-149.32 353.69,-147.97 344.64,-142.47 343.18,-149.32"/>
</a>
</g>
</g>
<!-- Node9 -->
<g id="Node000009" class="node">
<title>Node9</title>
<g id="a_Node000009"><a xlink:href="classSparseMsg.html#aa4587791f801348497bebcd060c84d7c" target="_top" xlink:title=" ">
<polygon fill="white" stroke="#666666" points="273,-93 174,-93 174,-74 273,-74 273,-93"/>
<text text-anchor="middle" x="223.5" y="-81" font-family="Ubuntu Mono" font-size="10.00">SparseMsg::copy</text>
</a>
</g>
</g>
<!-- Node1&#45;&gt;Node9 -->
<g id="edge8_Node000001_Node000009" class="edge">
<title>Node1&#45;&gt;Node9</title>
<g id="a_edge8_Node000001_Node000009"><a xlink:title=" ">
<path fill="none" stroke="#63b8ff" d="M373.71,-142.87C352.54,-130.83 321.01,-113.94 292,-102.5 282.94,-98.93 272.95,-95.73 263.5,-93.03"/>
<polygon fill="#63b8ff" stroke="#63b8ff" points="371.97,-145.9 382.38,-147.86 375.46,-139.84 371.97,-145.9"/>
</a>
</g>
</g>
<!-- Node10 -->
<g id="Node000010" class="node">
<title>Node10</title>
<g id="a_Node000010"><a xlink:href="testAsync_8cpp.html#ac44591c7444604ba199b0f3c410410d9" target="_top" xlink:title=" ">
<polygon fill="white" stroke="#666666" points="263,-56 184,-56 184,-37 263,-37 263,-56"/>
<text text-anchor="middle" x="223.5" y="-44" font-family="Ubuntu Mono" font-size="10.00">testMsgField</text>
</a>
</g>
</g>
<!-- Node1&#45;&gt;Node10 -->
<g id="edge9_Node000001_Node000010" class="edge">
<title>Node1&#45;&gt;Node10</title>
<g id="a_edge9_Node000001_Node000010"><a xlink:title=" ">
<path fill="none" stroke="#63b8ff" d="M383.33,-140.45C364.06,-119.8 328.85,-85.32 292,-65.5 283.1,-60.71 272.88,-57.03 263.12,-54.25"/>
<polygon fill="#63b8ff" stroke="#63b8ff" points="380.8,-142.86 390.13,-147.88 385.96,-138.14 380.8,-142.86"/>
</a>
</g>
</g>
<!-- Node11 -->
<g id="Node000011" class="node">
<title>Node11</title>
<g id="a_Node000011"><a xlink:href="testAsync_8cpp.html#adeff2e00c34ac98a6804d92045d9bc14" target="_top" xlink:title=" ">
<polygon fill="white" stroke="#666666" points="263.5,-19 183.5,-19 183.5,0 263.5,0 263.5,-19"/>
<text text-anchor="middle" x="223.5" y="-7" font-family="Ubuntu Mono" font-size="10.00">testSendMsg</text>
</a>
</g>
</g>
<!-- Node1&#45;&gt;Node11 -->
<g id="edge10_Node000001_Node000011" class="edge">
<title>Node1&#45;&gt;Node11</title>
<g id="a_edge10_Node000001_Node000011"><a xlink:title=" ">
<path fill="none" stroke="#63b8ff" d="M388.18,-138.85C371.62,-110.67 336.4,-57.43 292,-28.5 283.53,-22.98 273.46,-19.05 263.72,-16.25"/>
<polygon fill="#63b8ff" stroke="#63b8ff" points="385.24,-140.76 393.25,-147.7 391.31,-137.28 385.24,-140.76"/>
</a>
</g>
</g>
<!-- Node3 -->
<g id="Node000003" class="node">
<title>Node3</title>
<g id="a_Node000003"><a xlink:href="classSharedFinfo.html#ac7e4267009d99b35669155a2cd64848f" target="_top" xlink:title=" ">
<polygon fill="white" stroke="#666666" points="119,-327 0,-327 0,-308 119,-308 119,-327"/>
<text text-anchor="middle" x="59.5" y="-315" font-family="Ubuntu Mono" font-size="10.00">SharedFinfo::addMsg</text>
</a>
</g>
</g>
<!-- Node2&#45;&gt;Node3 -->
<g id="edge2_Node000002_Node000003" class="edge">
<title>Node2&#45;&gt;Node3</title>
<g id="a_edge2_Node000002_Node000003"><a xlink:title=" ">
<path fill="none" stroke="#63b8ff" d="M163.18,-317.5C148.8,-317.5 133.43,-317.5 119.08,-317.5"/>
<polygon fill="#63b8ff" stroke="#63b8ff" points="163.46,-321 173.46,-317.5 163.45,-314 163.46,-321"/>
</a>
</g>
</g>
</g>
</svg>
