<?xml version="1.0" encoding="UTF-8" standalone="no"?>
<!DOCTYPE svg PUBLIC "-//W3C//DTD SVG 1.1//EN"
 "http://www.w3.org/Graphics/SVG/1.1/DTD/svg11.dtd">
<!-- Generated by graphviz version 2.43.0 (0)
 -->
<!-- Title: Test Pages: 1 -->
<!--zoomable 565 -->

<svg id="main" version="1.1" xmlns="http://www.w3.org/2000/svg" xmlns:xlink="http://www.w3.org/1999/xlink" xml:space="preserve" onload="init(evt)">
<style type="text/css"><![CDATA[
.node, .edge {opacity: 0.7;}
.node.selected, .edge.selected {opacity: 1;}
.edge:hover path { stroke: red; }
.edge:hover polygon { stroke: red; fill: red; }
]]></style>

<defs>
  <circle id="rim" cx="0" cy="0" r="7"/>
  <circle id="rim2" cx="0" cy="0" r="3.5"/>
  <g id="zoomPlus">
    <use xlink:href="#rim" fill="#404040"><set attributeName="fill" to="#808080" begin="zoomplus.mouseover" end="zoomplus.mouseout"/></use>
    <path d="M-4,0h8M0,-4v8" fill="none" stroke="white" stroke-width="1.5" pointer-events="none"/>
  </g>
  <g id="zoomMin">
    <use xlink:href="#rim" fill="#404040"><set attributeName="fill" to="#808080" begin="zoomminus.mouseover" end="zoomminus.mouseout"/></use>
    <path d="M-4,0h8" fill="none" stroke="white" stroke-width="1.5" pointer-events="none"/>
  </g>
  <g id="arrowUp" transform="translate(30 24)">
    <use xlink:href="#rim"/>
    <path pointer-events="none" fill="none" stroke="white" stroke-width="1.5" d="M0,-3.0v7 M-2.5,-0.5L0,-3.0L2.5,-0.5"/>
  </g>
  <g id="arrowRight" transform="rotate(90) translate(36 -43)">
    <use xlink:href="#rim"/>
    <path pointer-events="none" fill="none" stroke="white" stroke-width="1.5" d="M0,-3.0v7 M-2.5,-0.5L0,-3.0L2.5,-0.5"/>
  </g>
  <g id="arrowDown" transform="rotate(180) translate(-30 -48)">
    <use xlink:href="#rim"/>
    <path pointer-events="none" fill="none" stroke="white" stroke-width="1.5" d="M0,-3.0v7 M-2.5,-0.5L0,-3.0L2.5,-0.5"/>
  </g>
  <g id="arrowLeft" transform="rotate(270) translate(-36 17)">
    <use xlink:href="#rim"/>
    <path pointer-events="none" fill="none" stroke="white" stroke-width="1.5" d="M0,-3.0v7 M-2.5,-0.5L0,-3.0L2.5,-0.5"/>
  </g>
  <g id="resetDef">
    <use xlink:href="#rim2" fill="#404040"><set attributeName="fill" to="#808080" begin="reset.mouseover" end="reset.mouseout"/></use>
  </g>
</defs>
<script type="application/ecmascript">
var viewWidth = 219;
var viewHeight = 565;
var sectionId = 'dynsection-0';
</script>
<script type="application/ecmascript" xlink:href="svg.min.js"/>
<svg id="graph" class="graph">
<g id="viewport">
<title>Test</title>
<!-- Node1 -->
<g id="Node000001" class="node">
<title>Node1</title>
<g id="a_Node000001"><a xlink:title=" ">
<polygon fill="#999999" stroke="transparent" points="136,-154 62,-154 62,0 136,0 136,-154"/>
<text text-anchor="start" x="89" y="-142" font-family="Ubuntu Mono" font-size="10.00">Test</text>
<text text-anchor="start" x="66" y="-127" font-family="Ubuntu Mono" font-size="10.00">+</text>
<text text-anchor="start" x="79" y="-127" font-family="Ubuntu Mono" font-size="10.00">i1_</text>
<text text-anchor="start" x="66" y="-112" font-family="Ubuntu Mono" font-size="10.00">+</text>
<text text-anchor="start" x="79" y="-112" font-family="Ubuntu Mono" font-size="10.00">i2_</text>
<text text-anchor="start" x="66" y="-97" font-family="Ubuntu Mono" font-size="10.00">+</text>
<text text-anchor="start" x="79" y="-97" font-family="Ubuntu Mono" font-size="10.00">numAcks_</text>
<text text-anchor="start" x="66" y="-82" font-family="Ubuntu Mono" font-size="10.00">+</text>
<text text-anchor="start" x="79" y="-82" font-family="Ubuntu Mono" font-size="10.00">handleS0()</text>
<text text-anchor="start" x="66" y="-67" font-family="Ubuntu Mono" font-size="10.00">+</text>
<text text-anchor="start" x="79" y="-67" font-family="Ubuntu Mono" font-size="10.00">handleS1()</text>
<text text-anchor="start" x="66" y="-52" font-family="Ubuntu Mono" font-size="10.00">+</text>
<text text-anchor="start" x="79" y="-52" font-family="Ubuntu Mono" font-size="10.00">handleS2()</text>
<text text-anchor="start" x="66" y="-37" font-family="Ubuntu Mono" font-size="10.00">+</text>
<text text-anchor="start" x="79" y="-37" font-family="Ubuntu Mono" font-size="10.00">process()</text>
<text text-anchor="start" x="66" y="-22" font-family="Ubuntu Mono" font-size="10.00">+</text>
<text text-anchor="start" x="79" y="-22" font-family="Ubuntu Mono" font-size="10.00">Test()</text>
<text text-anchor="start" x="66" y="-7" font-family="Ubuntu Mono" font-size="10.00">+</text>
<text text-anchor="start" x="79" y="-7" font-family="Ubuntu Mono" font-size="10.00">initCinfo()</text>
<polygon fill="#666666" stroke="#666666" points="62,-137 62,-137 136,-137 136,-137 62,-137"/>
<polygon fill="#666666" stroke="#666666" points="62,-92 62,-92 77,-92 77,-92 62,-92"/>
<polygon fill="#666666" stroke="#666666" points="77,-92 77,-92 136,-92 136,-92 77,-92"/>
<polygon fill="none" stroke="#666666" points="62,0 62,-154 136,-154 136,0 62,0"/>
</a>
</g>
</g>
<!-- Node2 -->
<g id="Node000002" class="node">
<title>Node2</title>
<g id="a_Node000002"><a xlink:href="classFinfo.html" target="_top" xlink:title=" ">
<polygon fill="white" stroke="transparent" points="114,-460 0,-460 0,-201 114,-201 114,-460"/>
<text text-anchor="start" x="44.5" y="-447.5" font-family="Ubuntu Mono" font-size="10.00">Finfo</text>
<text text-anchor="start" x="6.5" y="-432.5" font-family="Ubuntu Mono" font-size="10.00">&#45;</text>
<text text-anchor="start" x="17" y="-432.5" font-family="Ubuntu Mono" font-size="10.00">doc_</text>
<text text-anchor="start" x="6.5" y="-417.5" font-family="Ubuntu Mono" font-size="10.00">&#45;</text>
<text text-anchor="start" x="17" y="-417.5" font-family="Ubuntu Mono" font-size="10.00">name_</text>
<text text-anchor="start" x="4" y="-402.5" font-family="Ubuntu Mono" font-size="10.00">+</text>
<text text-anchor="start" x="17" y="-402.5" font-family="Ubuntu Mono" font-size="10.00">addMsg()</text>
<text text-anchor="start" x="4" y="-387.5" font-family="Ubuntu Mono" font-size="10.00">+</text>
<text text-anchor="start" x="17" y="-387.5" font-family="Ubuntu Mono" font-size="10.00">checkTarget()</text>
<text text-anchor="start" x="4" y="-372.5" font-family="Ubuntu Mono" font-size="10.00">+</text>
<text text-anchor="start" x="17" y="-372.5" font-family="Ubuntu Mono" font-size="10.00">docs()</text>
<text text-anchor="start" x="4" y="-357.5" font-family="Ubuntu Mono" font-size="10.00">+</text>
<text text-anchor="start" x="17" y="-357.5" font-family="Ubuntu Mono" font-size="10.00">Finfo()</text>
<text text-anchor="start" x="4" y="-342.5" font-family="Ubuntu Mono" font-size="10.00">+</text>
<text text-anchor="start" x="17" y="-342.5" font-family="Ubuntu Mono" font-size="10.00">innerDest()</text>
<text text-anchor="start" x="4" y="-327.5" font-family="Ubuntu Mono" font-size="10.00">+</text>
<text text-anchor="start" x="17" y="-327.5" font-family="Ubuntu Mono" font-size="10.00">innerSrc()</text>
<text text-anchor="start" x="4" y="-312.5" font-family="Ubuntu Mono" font-size="10.00">+</text>
<text text-anchor="start" x="17" y="-312.5" font-family="Ubuntu Mono" font-size="10.00">name()</text>
<text text-anchor="start" x="4" y="-297.5" font-family="Ubuntu Mono" font-size="10.00">+</text>
<text text-anchor="start" x="17" y="-297.5" font-family="Ubuntu Mono" font-size="10.00">postCreationFunc()</text>
<text text-anchor="start" x="4" y="-282.5" font-family="Ubuntu Mono" font-size="10.00">+</text>
<text text-anchor="start" x="17" y="-282.5" font-family="Ubuntu Mono" font-size="10.00">registerFinfo()</text>
<text text-anchor="start" x="4" y="-267.5" font-family="Ubuntu Mono" font-size="10.00">+</text>
<text text-anchor="start" x="17" y="-267.5" font-family="Ubuntu Mono" font-size="10.00">rttiType()</text>
<text text-anchor="start" x="4" y="-252.5" font-family="Ubuntu Mono" font-size="10.00">+</text>
<text text-anchor="start" x="17" y="-252.5" font-family="Ubuntu Mono" font-size="10.00">strGet()</text>
<text text-anchor="start" x="4" y="-237.5" font-family="Ubuntu Mono" font-size="10.00">+</text>
<text text-anchor="start" x="17" y="-237.5" font-family="Ubuntu Mono" font-size="10.00">strSet()</text>
<text text-anchor="start" x="4" y="-222.5" font-family="Ubuntu Mono" font-size="10.00">+</text>
<text text-anchor="start" x="17" y="-222.5" font-family="Ubuntu Mono" font-size="10.00">~Finfo()</text>
<text text-anchor="start" x="4" y="-207.5" font-family="Ubuntu Mono" font-size="10.00">+</text>
<text text-anchor="start" x="17" y="-207.5" font-family="Ubuntu Mono" font-size="10.00">initCinfo()</text>
<polygon fill="#666666" stroke="#666666" points="0,-442.5 0,-442.5 114,-442.5 114,-442.5 0,-442.5"/>
<polygon fill="#666666" stroke="#666666" points="0,-412.5 0,-412.5 15,-412.5 15,-412.5 0,-412.5"/>
<polygon fill="#666666" stroke="#666666" points="15,-412.5 15,-412.5 114,-412.5 114,-412.5 15,-412.5"/>
<polygon fill="none" stroke="#666666" points="0,-201 0,-460 114,-460 114,-201 0,-201"/>
</a>
</g>
</g>
<!-- Node2&#45;&gt;Node1 -->
<g id="edge1_Node000001_Node000002" class="edge">
<title>Node2&#45;&gt;Node1</title>
<g id="a_edge1_Node000001_Node000002"><a xlink:title=" ">
<path fill="none" stroke="#63b8ff" d="M63.36,-200.65C64.64,-190.92 66.18,-181.28 68,-172 68.4,-169.97 68.83,-167.93 69.29,-165.87"/>
<polygon fill="none" stroke="#63b8ff" points="69.33,-165.67 66.87,-158.9 72.17,-154.02 74.64,-160.79 69.33,-165.67"/>
</a>
</g>
<text text-anchor="middle" x="99" y="-175" font-family="Ubuntu Mono" font-size="10.00" fill="grey"> +sharedVec</text>
</g>
<!-- Node3 -->
<g id="Node000003" class="node">
<title>Node3</title>
<g id="a_Node000003"><a xlink:title=" ">
<polygon fill="white" stroke="transparent" points="191.5,-355 132.5,-355 132.5,-306 191.5,-306 191.5,-355"/>
<text text-anchor="start" x="138" y="-342.5" font-family="Ubuntu Mono" font-size="10.00">std::string</text>
<text text-anchor="start" x="160.5" y="-327.5" font-family="Ubuntu Mono" font-size="10.00"> </text>
<text text-anchor="start" x="160.5" y="-312.5" font-family="Ubuntu Mono" font-size="10.00"> </text>
<polygon fill="#666666" stroke="#666666" points="133,-337.5 133,-337.5 192,-337.5 192,-337.5 133,-337.5"/>
<polygon fill="#666666" stroke="#666666" points="133,-322.5 133,-322.5 192,-322.5 192,-322.5 133,-322.5"/>
<polygon fill="none" stroke="#666666" points="132.5,-306 132.5,-355 191.5,-355 191.5,-306 132.5,-306"/>
</a>
</g>
</g>
<!-- Node3&#45;&gt;Node1 -->
<g id="edge2_Node000001_Node000003" class="edge">
<title>Node3&#45;&gt;Node1</title>
<g id="a_edge2_Node000001_Node000003"><a xlink:title=" ">
<path fill="none" stroke="#63b8ff" d="M158.09,-305.82C152.76,-274.82 142.46,-218.92 130,-172 129.47,-170 128.92,-167.98 128.36,-165.95"/>
<polygon fill="none" stroke="#63b8ff" points="128.3,-165.74 122.79,-161.09 124.97,-154.21 130.48,-158.87 128.3,-165.74"/>
</a>
</g>
<text text-anchor="middle" x="144" y="-175" font-family="Ubuntu Mono" font-size="10.00" fill="grey"> +s_</text>
</g>
<!-- Node4 -->
<g id="Node000004" class="node">
<title>Node4</title>
<g id="a_Node000004"><a xlink:title=" ">
<polygon fill="white" stroke="transparent" points="211,-557 113,-557 113,-497 211,-497 211,-557"/>
<text text-anchor="start" x="118" y="-545" font-family="Ubuntu Mono" font-size="10.00">std::basic_string&lt;</text>
<text text-anchor="start" x="143.5" y="-534" font-family="Ubuntu Mono" font-size="10.00"> Char &gt;</text>
<text text-anchor="start" x="160" y="-519" font-family="Ubuntu Mono" font-size="10.00"> </text>
<text text-anchor="start" x="160" y="-504" font-family="Ubuntu Mono" font-size="10.00"> </text>
<polygon fill="#666666" stroke="#666666" points="113,-529 113,-529 211,-529 211,-529 113,-529"/>
<polygon fill="#666666" stroke="#666666" points="113,-514 113,-514 211,-514 211,-514 113,-514"/>
<polygon fill="none" stroke="#666666" points="113,-497 113,-557 211,-557 211,-497 113,-497"/>
</a>
</g>
</g>
<!-- Node4&#45;&gt;Node3 -->
<g id="edge3_Node000003_Node000004" class="edge">
<title>Node4&#45;&gt;Node3</title>
<g id="a_edge3_Node000003_Node000004"><a xlink:title=" ">
<path fill="none" stroke="#63b8ff" d="M162,-486.81C162,-447.33 162,-387.7 162,-355"/>
<polygon fill="none" stroke="#63b8ff" points="158.5,-486.88 162,-496.88 165.5,-486.88 158.5,-486.88"/>
</a>
</g>
</g>
</g>
</svg>

<g id="navigator" transform="translate(0 0)" fill="#404254">
  <rect fill="#f2f5e9" fill-opacity="0.5" stroke="#606060" stroke-width=".5" x="0" y="0" width="60" height="60"/>
  <use id="zoomplus" xlink:href="#zoomPlus" x="17" y="9" onmousedown="handleZoom(evt,'in')"/>
  <use id="zoomminus" xlink:href="#zoomMin" x="42" y="9" onmousedown="handleZoom(evt,'out')"/>
  <use id="reset" xlink:href="#resetDef" x="30" y="36" onmousedown="handleReset()"/>
   <use id="arrowup" xlink:href="#arrowUp" x="0" y="0" onmousedown="handlePan(0,-1)"/>
  <use id="arrowright" xlink:href="#arrowRight" x="0" y="0" onmousedown="handlePan(1,0)"/>
  <use id="arrowdown" xlink:href="#arrowDown" x="0" y="0" onmousedown="handlePan(0,1)"/>
  <use id="arrowleft" xlink:href="#arrowLeft" x="0" y="0" onmousedown="handlePan(-1,0)"/>
</g>
<svg viewBox="0 0 15 15" width="100%" height="30px" preserveAspectRatio="xMaxYMin meet">
 <g id="arrow_out" transform="scale(0.3 0.3)">
  <a xlink:href="classTest__coll__graph_org.svg" target="_base">
   <rect id="button" ry="5" rx="5" y="6" x="6" height="38" width="38"
        fill="#f2f5e9" fill-opacity="0.5" stroke="#606060" stroke-width="1.0"/>
   <path id="arrow"
     d="M 11.500037,31.436501 C 11.940474,20.09759 22.043105,11.32322 32.158766,21.979434 L 37.068811,17.246167 C 37.068811,17.246167 37.088388,32 37.088388,32 L 22.160133,31.978069 C 22.160133,31.978069 26.997745,27.140456 26.997745,27.140456 C 18.528582,18.264221 13.291696,25.230495 11.500037,31.436501 z"
     style="fill:#404040;"/>
  </a>
 </g>
</svg>

<style type='text/css'>
<![CDATA[
[data-mouse-over-selected='false'] { opacity: 0.7; }
[data-mouse-over-selected='true']  { opacity: 1.0; }
]]>
</style>
<script type="application/ecmascript"><![CDATA[
document.addEventListener('DOMContentLoaded', (event) => {
  highlightEdges();
  highlightAdjacentNodes();
});
]]></script>
</svg>
