<?xml version="1.0" encoding="UTF-8" standalone="no"?>
<!DOCTYPE svg PUBLIC "-//W3C//DTD SVG 1.1//EN"
 "http://www.w3.org/Graphics/SVG/1.1/DTD/svg11.dtd">
<!-- Generated by graphviz version 2.43.0 (0)
 -->
<!-- Title: OneToOneMsg::firstTgt Pages: 1 -->
<svg width="280pt" height="138pt"
 viewBox="0.00 0.00 280.00 138.00" xmlns="http://www.w3.org/2000/svg" xmlns:xlink="http://www.w3.org/1999/xlink">
<g id="graph0" class="graph" transform="scale(1 1) rotate(0) translate(4 134)">
<title>OneToOneMsg::firstTgt</title>
<!-- Node1 -->
<g id="Node000001" class="node">
<title>Node1</title>
<g id="a_Node000001"><a xlink:title=" ">
<polygon fill="#999999" stroke="#666666" points="127,-74 0,-74 0,-55 127,-55 127,-74"/>
<text text-anchor="middle" x="63.5" y="-62" font-family="Ubuntu Mono" font-size="10.00">OneToOneMsg::firstTgt</text>
</a>
</g>
</g>
<!-- Node2 -->
<g id="Node000002" class="node">
<title>Node2</title>
<g id="a_Node000002"><a xlink:href="classEref.html#aca13ad32862935d4a33109785d0f01d7" target="_top" xlink:title=" ">
<polygon fill="white" stroke="#666666" points="262.5,-130 172.5,-130 172.5,-111 262.5,-111 262.5,-130"/>
<text text-anchor="middle" x="217.5" y="-118" font-family="Ubuntu Mono" font-size="10.00">Eref::dataIndex</text>
</a>
</g>
</g>
<!-- Node1&#45;&gt;Node2 -->
<g id="edge1_Node000001_Node000002" class="edge">
<title>Node1&#45;&gt;Node2</title>
<g id="a_edge1_Node000001_Node000002"><a xlink:title=" ">
<path fill="none" stroke="#63b8ff" d="M88.28,-74.01C108.16,-81.88 137.31,-93.23 163,-102.5 167.65,-104.18 172.55,-105.9 177.41,-107.57"/>
<polygon fill="#63b8ff" stroke="#63b8ff" points="176.67,-111.01 187.27,-110.92 178.93,-104.39 176.67,-111.01"/>
</a>
</g>
</g>
<!-- Node3 -->
<g id="Node000003" class="node">
<title>Node3</title>
<g id="a_Node000003"><a xlink:href="classEref.html#a47b59ab86165cceb0bde80c76c3f7fa2" target="_top" xlink:title=" ">
<polygon fill="white" stroke="#666666" points="258.5,-93 176.5,-93 176.5,-74 258.5,-74 258.5,-93"/>
<text text-anchor="middle" x="217.5" y="-81" font-family="Ubuntu Mono" font-size="10.00">Eref::element</text>
</a>
</g>
</g>
<!-- Node1&#45;&gt;Node3 -->
<g id="edge2_Node000001_Node000003" class="edge">
<title>Node1&#45;&gt;Node3</title>
<g id="a_edge2_Node000001_Node000003"><a xlink:title=" ">
<path fill="none" stroke="#63b8ff" d="M127.2,-72.34C140.11,-73.95 153.54,-75.63 165.95,-77.18"/>
<polygon fill="#63b8ff" stroke="#63b8ff" points="165.74,-80.68 176.1,-78.45 166.61,-73.74 165.74,-80.68"/>
</a>
</g>
</g>
<!-- Node4 -->
<g id="Node000004" class="node">
<title>Node4</title>
<g id="a_Node000004"><a xlink:href="classEref.html#a3addb850bc6cbac7771a07de219d909d" target="_top" xlink:title=" ">
<polygon fill="white" stroke="#666666" points="248,-56 187,-56 187,-37 248,-37 248,-56"/>
<text text-anchor="middle" x="217.5" y="-44" font-family="Ubuntu Mono" font-size="10.00">Eref::Eref</text>
</a>
</g>
</g>
<!-- Node1&#45;&gt;Node4 -->
<g id="edge3_Node000001_Node000004" class="edge">
<title>Node1&#45;&gt;Node4</title>
<g id="a_edge3_Node000001_Node000004"><a xlink:title=" ">
<path fill="none" stroke="#63b8ff" d="M127.2,-57.07C143.95,-55.09 161.58,-53 176.71,-51.21"/>
<polygon fill="#63b8ff" stroke="#63b8ff" points="177.23,-54.68 186.75,-50.02 176.41,-47.72 177.23,-54.68"/>
</a>
</g>
</g>
<!-- Node5 -->
<g id="Node000005" class="node">
<title>Node5</title>
<g id="a_Node000005"><a xlink:href="classElement.html#a8489d936deee408d78042cf199694bb5" target="_top" xlink:title=" ">
<polygon fill="white" stroke="#666666" points="272,-19 163,-19 163,0 272,0 272,-19"/>
<text text-anchor="middle" x="217.5" y="-7" font-family="Ubuntu Mono" font-size="10.00">Element::hasFields</text>
</a>
</g>
</g>
<!-- Node1&#45;&gt;Node5 -->
<g id="edge4_Node000001_Node000005" class="edge">
<title>Node1&#45;&gt;Node5</title>
<g id="a_edge4_Node000001_Node000005"><a xlink:title=" ">
<path fill="none" stroke="#63b8ff" d="M90.4,-54.96C110.25,-47.67 138.33,-37.39 163,-28.5 168.52,-26.51 174.38,-24.42 180.1,-22.38"/>
<polygon fill="#63b8ff" stroke="#63b8ff" points="181.29,-25.67 189.54,-19.02 178.95,-19.07 181.29,-25.67"/>
</a>
</g>
</g>
</g>
</svg>
