<?xml version="1.0" encoding="UTF-8" standalone="no"?>
<!DOCTYPE svg PUBLIC "-//W3C//DTD SVG 1.1//EN"
 "http://www.w3.org/Graphics/SVG/1.1/DTD/svg11.dtd">
<!-- Generated by graphviz version 2.43.0 (0)
 -->
<!-- Title: HSolveActive::sendValues Pages: 1 -->
<svg width="565pt" height="64pt"
 viewBox="0.00 0.00 565.00 64.00" xmlns="http://www.w3.org/2000/svg" xmlns:xlink="http://www.w3.org/1999/xlink">
<g id="graph0" class="graph" transform="scale(1 1) rotate(0) translate(4 60)">
<title>HSolveActive::sendValues</title>
<!-- Node1 -->
<g id="Node000001" class="node">
<title>Node1</title>
<g id="a_Node000001"><a xlink:title=" ">
<polygon fill="#999999" stroke="#666666" points="557,-37 414,-37 414,-18 557,-18 557,-37"/>
<text text-anchor="middle" x="485.5" y="-25" font-family="Ubuntu Mono" font-size="10.00">HSolveActive::sendValues</text>
</a>
</g>
</g>
<!-- Node2 -->
<g id="Node000002" class="node">
<title>Node2</title>
<g id="a_Node000002"><a xlink:href="classHSolveActive.html#aaff65b0f1078b16d328f0cab1facf75a" target="_top" xlink:title=" ">
<polygon fill="white" stroke="#666666" points="378,-56 265,-56 265,-37 378,-37 378,-56"/>
<text text-anchor="middle" x="321.5" y="-44" font-family="Ubuntu Mono" font-size="10.00">HSolveActive::reinit</text>
</a>
</g>
</g>
<!-- Node1&#45;&gt;Node2 -->
<g id="edge1_Node000001_Node000002" class="edge">
<title>Node1&#45;&gt;Node2</title>
<g id="a_edge1_Node000001_Node000002"><a xlink:title=" ">
<path fill="none" stroke="#63b8ff" d="M403.79,-36.97C395.15,-37.98 386.5,-38.99 378.24,-39.96"/>
<polygon fill="#63b8ff" stroke="#63b8ff" points="404.39,-40.42 413.92,-35.78 403.58,-33.47 404.39,-40.42"/>
</a>
</g>
</g>
<!-- Node5 -->
<g id="Node000005" class="node">
<title>Node5</title>
<g id="a_Node000005"><a xlink:href="classHSolveActive.html#a2fa4c89fc57e5a3bf48933f1f71b331c" target="_top" xlink:title="Equivalent to process.">
<polygon fill="white" stroke="#666666" points="376,-19 267,-19 267,0 376,0 376,-19"/>
<text text-anchor="middle" x="321.5" y="-7" font-family="Ubuntu Mono" font-size="10.00">HSolveActive::step</text>
</a>
</g>
</g>
<!-- Node1&#45;&gt;Node5 -->
<g id="edge4_Node000001_Node000005" class="edge">
<title>Node1&#45;&gt;Node5</title>
<g id="a_edge4_Node000001_Node000005"><a xlink:title=" ">
<path fill="none" stroke="#63b8ff" d="M403.81,-18.53C394.47,-17.5 385.13,-16.46 376.28,-15.48"/>
<polygon fill="#63b8ff" stroke="#63b8ff" points="403.59,-22.03 413.92,-19.66 404.36,-15.07 403.59,-22.03"/>
</a>
</g>
</g>
<!-- Node3 -->
<g id="Node000003" class="node">
<title>Node3</title>
<g id="a_Node000003"><a xlink:href="classHSolve.html#a8d6ce28ba426ce033ddf0d8bba021bdc" target="_top" xlink:title=" ">
<polygon fill="white" stroke="#666666" points="223,-56 140,-56 140,-37 223,-37 223,-56"/>
<text text-anchor="middle" x="181.5" y="-44" font-family="Ubuntu Mono" font-size="10.00">HSolve::reinit</text>
</a>
</g>
</g>
<!-- Node2&#45;&gt;Node3 -->
<g id="edge2_Node000002_Node000003" class="edge">
<title>Node2&#45;&gt;Node3</title>
<g id="a_edge2_Node000002_Node000003"><a xlink:title=" ">
<path fill="none" stroke="#63b8ff" d="M254.56,-46.5C243.85,-46.5 233.04,-46.5 223.16,-46.5"/>
<polygon fill="#63b8ff" stroke="#63b8ff" points="254.77,-50 264.77,-46.5 254.77,-43 254.77,-50"/>
</a>
</g>
</g>
<!-- Node4 -->
<g id="Node000004" class="node">
<title>Node4</title>
<g id="a_Node000004"><a xlink:href="classHSolve.html#a3d60964bbc6441f73c04fe702faba848" target="_top" xlink:title="Interface to external channels.">
<polygon fill="white" stroke="#666666" points="98,-37 0,-37 0,-18 98,-18 98,-37"/>
<text text-anchor="middle" x="49" y="-25" font-family="Ubuntu Mono" font-size="10.00">HSolve::initCinfo</text>
</a>
</g>
</g>
<!-- Node3&#45;&gt;Node4 -->
<g id="edge3_Node000003_Node000004" class="edge">
<title>Node3&#45;&gt;Node4</title>
<g id="a_edge3_Node000003_Node000004"><a xlink:title=" ">
<path fill="none" stroke="#63b8ff" d="M129.79,-39.12C119.45,-37.61 108.6,-36.03 98.34,-34.54"/>
<polygon fill="#63b8ff" stroke="#63b8ff" points="129.52,-42.62 139.92,-40.59 130.53,-35.69 129.52,-42.62"/>
</a>
</g>
</g>
<!-- Node6 -->
<g id="Node000006" class="node">
<title>Node6</title>
<g id="a_Node000006"><a xlink:href="classHSolve.html#aad6ce3589e253fe6ad19cb4c247f83d2" target="_top" xlink:title=" ">
<polygon fill="white" stroke="#666666" points="229,-19 134,-19 134,0 229,0 229,-19"/>
<text text-anchor="middle" x="181.5" y="-7" font-family="Ubuntu Mono" font-size="10.00">HSolve::process</text>
</a>
</g>
</g>
<!-- Node5&#45;&gt;Node6 -->
<g id="edge5_Node000005_Node000006" class="edge">
<title>Node5&#45;&gt;Node6</title>
<g id="a_edge5_Node000005_Node000006"><a xlink:title=" ">
<path fill="none" stroke="#63b8ff" d="M256.75,-9.5C247.45,-9.5 238.03,-9.5 229.15,-9.5"/>
<polygon fill="#63b8ff" stroke="#63b8ff" points="256.75,-13 266.75,-9.5 256.75,-6 256.75,-13"/>
</a>
</g>
</g>
<!-- Node6&#45;&gt;Node4 -->
<g id="edge6_Node000006_Node000004" class="edge">
<title>Node6&#45;&gt;Node4</title>
<g id="a_edge6_Node000006_Node000004"><a xlink:title=" ">
<path fill="none" stroke="#63b8ff" d="M123.84,-17.32C115.29,-18.49 106.53,-19.7 98.18,-20.85"/>
<polygon fill="#63b8ff" stroke="#63b8ff" points="124.33,-20.78 133.76,-15.95 123.37,-13.85 124.33,-20.78"/>
</a>
</g>
</g>
</g>
</svg>
