<?xml version="1.0" encoding="UTF-8" standalone="no"?>
<!DOCTYPE svg PUBLIC "-//W3C//DTD SVG 1.1//EN"
 "http://www.w3.org/Graphics/SVG/1.1/DTD/svg11.dtd">
<!-- Generated by graphviz version 2.43.0 (0)
 -->
<!-- Title: NeuroMesh::getAdx Pages: 1 -->
<svg width="466pt" height="214pt"
 viewBox="0.00 0.00 466.00 214.00" xmlns="http://www.w3.org/2000/svg" xmlns:xlink="http://www.w3.org/1999/xlink">

<svg id="main" version="1.1" xmlns="http://www.w3.org/2000/svg" xmlns:xlink="http://www.w3.org/1999/xlink" xml:space="preserve" onload="init(evt)">
<style type="text/css"><![CDATA[
.node, .edge {opacity: 0.7;}
.node.selected, .edge.selected {opacity: 1;}
.edge:hover path { stroke: red; }
.edge:hover polygon { stroke: red; fill: red; }
]]></style>
<script type="application/ecmascript" xlink:href="svg.min.js"/>
<svg id="graph" class="graph">
<g id="graph0" class="graph" transform="scale(1 1) rotate(0) translate(4 210)">
<title>NeuroMesh::getAdx</title>
<!-- Node1 -->
<g id="Node000001" class="node">
<title>Node1</title>
<g id="a_Node000001"><a xlink:title=" ">
<polygon fill="#999999" stroke="#666666" points="113,-112 0,-112 0,-93 113,-93 113,-112"/>
<text text-anchor="middle" x="56.5" y="-100" font-family="Ubuntu Mono" font-size="10.00">NeuroMesh::getAdx</text>
</a>
</g>
</g>
<!-- Node2 -->
<g id="Node000002" class="node">
<title>Node2</title>
<g id="a_Node000002"><a xlink:href="classCylBase.html#abb8d94642f60b69fa70e425fe03b6aeb" target="_top" xlink:title=" ">
<polygon fill="white" stroke="#666666" points="296,-206 152,-206 152,-187 296,-187 296,-206"/>
<text text-anchor="middle" x="224" y="-194" font-family="Ubuntu Mono" font-size="10.00">CylBase::getDiffusionArea</text>
</a>
</g>
</g>
<!-- Node1&#45;&gt;Node2 -->
<g id="edge1_Node000001_Node000002" class="edge">
<title>Node1&#45;&gt;Node2</title>
<g id="a_edge1_Node000001_Node000002"><a xlink:title=" ">
<path fill="none" stroke="#63b8ff" d="M66.1,-112.05C81.23,-128.25 114.31,-161.06 149,-178.5 152.79,-180.4 156.79,-182.11 160.89,-183.65"/>
<polygon fill="#63b8ff" stroke="#63b8ff" points="159.98,-187.04 170.58,-186.92 162.22,-180.4 159.98,-187.04"/>
</a>
</g>
</g>
<!-- Node3 -->
<g id="Node000003" class="node">
<title>Node3</title>
<g id="a_Node000003"><a xlink:href="classCylBase.html#a8ee5f8e88924d3be2cdcc01c23efb2b9" target="_top" xlink:title=" ">
<polygon fill="white" stroke="#666666" points="279.5,-169 168.5,-169 168.5,-150 279.5,-150 279.5,-169"/>
<text text-anchor="middle" x="224" y="-157" font-family="Ubuntu Mono" font-size="10.00">CylBase::getLength</text>
</a>
</g>
</g>
<!-- Node1&#45;&gt;Node3 -->
<g id="edge2_Node000001_Node000003" class="edge">
<title>Node1&#45;&gt;Node3</title>
<g id="a_edge2_Node000001_Node000003"><a xlink:title=" ">
<path fill="none" stroke="#63b8ff" d="M83.45,-112.11C101.73,-118.82 126.79,-127.9 149,-135.5 159.96,-139.25 171.88,-143.18 182.88,-146.75"/>
<polygon fill="#63b8ff" stroke="#63b8ff" points="182.09,-150.17 192.68,-149.91 184.24,-143.51 182.09,-150.17"/>
</a>
</g>
</g>
<!-- Node4 -->
<g id="Node000004" class="node">
<title>Node4</title>
<g id="a_Node000004"><a xlink:href="classCylBase.html#a1fa6d6203b2286cc3d0b26b6ec8e5176" target="_top" xlink:title=" ">
<polygon fill="white" stroke="#666666" points="458,-112 335,-112 335,-93 458,-93 458,-112"/>
<text text-anchor="middle" x="396.5" y="-100" font-family="Ubuntu Mono" font-size="10.00">CylBase::getNumDivs</text>
</a>
</g>
</g>
<!-- Node1&#45;&gt;Node4 -->
<g id="edge3_Node000001_Node000004" class="edge">
<title>Node1&#45;&gt;Node4</title>
<g id="a_edge3_Node000001_Node000004"><a xlink:title=" ">
<path fill="none" stroke="#63b8ff" d="M113.31,-102.5C171.13,-102.5 261.65,-102.5 324.51,-102.5"/>
<polygon fill="#63b8ff" stroke="#63b8ff" points="324.75,-106 334.75,-102.5 324.75,-99 324.75,-106"/>
</a>
</g>
</g>
<!-- Node5 -->
<g id="Node000005" class="node">
<title>Node5</title>
<g id="a_Node000005"><a xlink:href="classNeuroNode.html#a4943fb2e254169fa5aad788c67bd0a75" target="_top" xlink:title=" ">
<polygon fill="white" stroke="#666666" points="299,-93 149,-93 149,-74 299,-74 299,-93"/>
<text text-anchor="middle" x="224" y="-81" font-family="Ubuntu Mono" font-size="10.00">NeuroNode::isDummyNode</text>
</a>
</g>
</g>
<!-- Node1&#45;&gt;Node5 -->
<g id="edge4_Node000001_Node000005" class="edge">
<title>Node1&#45;&gt;Node5</title>
<g id="a_edge4_Node000001_Node000005"><a xlink:title=" ">
<path fill="none" stroke="#63b8ff" d="M113.07,-96.12C121.3,-95.18 129.94,-94.18 138.6,-93.19"/>
<polygon fill="#63b8ff" stroke="#63b8ff" points="139.23,-96.64 148.76,-92.02 138.43,-89.69 139.23,-96.64"/>
</a>
</g>
</g>
<!-- Node6 -->
<g id="Node000006" class="node">
<title>Node6</title>
<g id="a_Node000006"><a xlink:href="classNeuroNode.html#a1e96ea764e9c00e07133aec18c638a17" target="_top" xlink:title=" ">
<polygon fill="white" stroke="#666666" points="278.5,-56 169.5,-56 169.5,-37 278.5,-37 278.5,-56"/>
<text text-anchor="middle" x="224" y="-44" font-family="Ubuntu Mono" font-size="10.00">NeuroNode::parent</text>
</a>
</g>
</g>
<!-- Node1&#45;&gt;Node6 -->
<g id="edge6_Node000001_Node000006" class="edge">
<title>Node1&#45;&gt;Node6</title>
<g id="a_edge6_Node000001_Node000006"><a xlink:title=" ">
<path fill="none" stroke="#63b8ff" d="M79.01,-92.85C97.37,-84.85 124.58,-73.53 149,-65.5 156.35,-63.08 164.2,-60.78 171.93,-58.66"/>
<polygon fill="#63b8ff" stroke="#63b8ff" points="172.85,-62.04 181.62,-56.09 171.06,-55.27 172.85,-62.04"/>
</a>
</g>
</g>
<!-- Node7 -->
<g id="Node000007" class="node">
<title>Node7</title>
<g id="a_Node000007"><a xlink:href="classNeuroNode.html#a43f60efefe682bd8070a3113284b67ad" target="_top" xlink:title=" ">
<polygon fill="white" stroke="#666666" points="281,-19 167,-19 167,0 281,0 281,-19"/>
<text text-anchor="middle" x="224" y="-7" font-family="Ubuntu Mono" font-size="10.00">NeuroNode::startFid</text>
</a>
</g>
</g>
<!-- Node1&#45;&gt;Node7 -->
<g id="edge7_Node000001_Node000007" class="edge">
<title>Node1&#45;&gt;Node7</title>
<g id="a_edge7_Node000001_Node000007"><a xlink:title=" ">
<path fill="none" stroke="#63b8ff" d="M66.67,-92.75C82.13,-76.9 115.05,-45.56 149,-28.5 153.62,-26.18 158.55,-24.12 163.59,-22.3"/>
<polygon fill="#63b8ff" stroke="#63b8ff" points="164.95,-25.54 173.36,-19.1 162.77,-18.89 164.95,-25.54"/>
</a>
</g>
</g>
<!-- Node5&#45;&gt;Node4 -->
<g id="edge5_Node000005_Node000004" class="edge">
<title>Node5&#45;&gt;Node4</title>
<g id="a_edge5_Node000005_Node000004"><a xlink:title=" ">
<path fill="none" stroke="#63b8ff" d="M299.29,-91.78C307.71,-92.72 316.28,-93.67 324.65,-94.6"/>
<polygon fill="#63b8ff" stroke="#63b8ff" points="324.42,-98.1 334.75,-95.73 325.2,-91.14 324.42,-98.1"/>
</a>
</g>
</g>
</g>
</svg>
</svg>

<style type='text/css'>
<![CDATA[
[data-mouse-over-selected='false'] { opacity: 0.7; }
[data-mouse-over-selected='true']  { opacity: 1.0; }
]]>
</style>
<script type="application/ecmascript"><![CDATA[
document.addEventListener('DOMContentLoaded', (event) => {
  highlightEdges();
  highlightAdjacentNodes();
});
]]></script>
</svg>
