<?xml version="1.0" encoding="UTF-8" standalone="no"?>
<!DOCTYPE svg PUBLIC "-//W3C//DTD SVG 1.1//EN"
 "http://www.w3.org/Graphics/SVG/1.1/DTD/svg11.dtd">
<!-- Generated by graphviz version 2.43.0 (0)
 -->
<!-- Title: SeqSynHandler::numHistory Pages: 1 -->
<!--zoomable 334 -->

<svg id="main" version="1.1" xmlns="http://www.w3.org/2000/svg" xmlns:xlink="http://www.w3.org/1999/xlink" xml:space="preserve" onload="init(evt)">
<style type="text/css"><![CDATA[
.node, .edge {opacity: 0.7;}
.node.selected, .edge.selected {opacity: 1;}
.edge:hover path { stroke: red; }
.edge:hover polygon { stroke: red; fill: red; }
]]></style>

<defs>
  <circle id="rim" cx="0" cy="0" r="7"/>
  <circle id="rim2" cx="0" cy="0" r="3.5"/>
  <g id="zoomPlus">
    <use xlink:href="#rim" fill="#404040"><set attributeName="fill" to="#808080" begin="zoomplus.mouseover" end="zoomplus.mouseout"/></use>
    <path d="M-4,0h8M0,-4v8" fill="none" stroke="white" stroke-width="1.5" pointer-events="none"/>
  </g>
  <g id="zoomMin">
    <use xlink:href="#rim" fill="#404040"><set attributeName="fill" to="#808080" begin="zoomminus.mouseover" end="zoomminus.mouseout"/></use>
    <path d="M-4,0h8" fill="none" stroke="white" stroke-width="1.5" pointer-events="none"/>
  </g>
  <g id="arrowUp" transform="translate(30 24)">
    <use xlink:href="#rim"/>
    <path pointer-events="none" fill="none" stroke="white" stroke-width="1.5" d="M0,-3.0v7 M-2.5,-0.5L0,-3.0L2.5,-0.5"/>
  </g>
  <g id="arrowRight" transform="rotate(90) translate(36 -43)">
    <use xlink:href="#rim"/>
    <path pointer-events="none" fill="none" stroke="white" stroke-width="1.5" d="M0,-3.0v7 M-2.5,-0.5L0,-3.0L2.5,-0.5"/>
  </g>
  <g id="arrowDown" transform="rotate(180) translate(-30 -48)">
    <use xlink:href="#rim"/>
    <path pointer-events="none" fill="none" stroke="white" stroke-width="1.5" d="M0,-3.0v7 M-2.5,-0.5L0,-3.0L2.5,-0.5"/>
  </g>
  <g id="arrowLeft" transform="rotate(270) translate(-36 17)">
    <use xlink:href="#rim"/>
    <path pointer-events="none" fill="none" stroke="white" stroke-width="1.5" d="M0,-3.0v7 M-2.5,-0.5L0,-3.0L2.5,-0.5"/>
  </g>
  <g id="resetDef">
    <use xlink:href="#rim2" fill="#404040"><set attributeName="fill" to="#808080" begin="reset.mouseover" end="reset.mouseout"/></use>
  </g>
</defs>
<script type="application/ecmascript">
var viewWidth = 767;
var viewHeight = 334;
var sectionId = 'dynsection-24';
</script>
<script type="application/ecmascript" xlink:href="svg.min.js"/>
<svg id="graph" class="graph">
<g id="viewport">
<title>SeqSynHandler::numHistory</title>
<!-- Node1 -->
<g id="Node000001" class="node">
<title>Node1</title>
<g id="a_Node000001"><a xlink:title=" ">
<polygon fill="#999999" stroke="#666666" points="759,-170 605,-170 605,-151 759,-151 759,-170"/>
<text text-anchor="middle" x="682" y="-158" font-family="Ubuntu Mono" font-size="10.00">SeqSynHandler::numHistory</text>
</a>
</g>
</g>
<!-- Node2 -->
<g id="Node000002" class="node">
<title>Node2</title>
<g id="a_Node000002"><a xlink:href="classSeqSynHandler.html#a96a52c5a704e21a94aeeeab7c2ef8094" target="_top" xlink:title=" ">
<polygon fill="white" stroke="#666666" points="342,-322 194,-322 194,-303 342,-303 342,-322"/>
<text text-anchor="middle" x="268" y="-310" font-family="Ubuntu Mono" font-size="10.00">SeqSynHandler::getHistory</text>
</a>
</g>
</g>
<!-- Node1&#45;&gt;Node2 -->
<g id="edge1_Node000001_Node000002" class="edge">
<title>Node1&#45;&gt;Node2</title>
<g id="a_edge1_Node000001_Node000002"><a xlink:title=" ">
<path fill="none" stroke="#63b8ff" d="M671.65,-179.08C655.41,-209.07 618.91,-267.34 569,-292.5 494.3,-330.15 395.57,-328.5 332.16,-322"/>
<polygon fill="#63b8ff" stroke="#63b8ff" points="674.82,-180.56 676.37,-170.08 668.62,-177.31 674.82,-180.56"/>
</a>
</g>
</g>
<!-- Node4 -->
<g id="Node000004" class="node">
<title>Node4</title>
<g id="a_Node000004"><a xlink:href="classSeqSynHandler.html#a01825475fe51bab1543f5716e2b2ded4" target="_top" xlink:title=" ">
<polygon fill="white" stroke="#666666" points="555,-283 412,-283 412,-264 555,-264 555,-283"/>
<text text-anchor="middle" x="483.5" y="-271" font-family="Ubuntu Mono" font-size="10.00">SeqSynHandler::getKernel</text>
</a>
</g>
</g>
<!-- Node1&#45;&gt;Node4 -->
<g id="edge3_Node000001_Node000004" class="edge">
<title>Node1&#45;&gt;Node4</title>
<g id="a_edge3_Node000001_Node000004"><a xlink:title=" ">
<path fill="none" stroke="#63b8ff" d="M666.07,-177.55C646.16,-199.17 608.77,-235.96 569,-255.5 562,-258.94 554.36,-261.72 546.62,-263.98"/>
<polygon fill="#63b8ff" stroke="#63b8ff" points="668.72,-179.85 672.82,-170.08 663.52,-175.16 668.72,-179.85"/>
</a>
</g>
</g>
<!-- Node5 -->
<g id="Node000005" class="node">
<title>Node5</title>
<g id="a_Node000005"><a xlink:href="classSeqSynHandler.html#ab2283035143f8166df8be38eddd61b41" target="_top" xlink:title=" ">
<polygon fill="white" stroke="#666666" points="569,-56 398,-56 398,-37 569,-37 569,-56"/>
<text text-anchor="middle" x="483.5" y="-44" font-family="Ubuntu Mono" font-size="10.00">SeqSynHandler::SeqSynHandler</text>
</a>
</g>
</g>
<!-- Node1&#45;&gt;Node5 -->
<g id="edge5_Node000001_Node000005" class="edge">
<title>Node1&#45;&gt;Node5</title>
<g id="a_edge5_Node000001_Node000005"><a xlink:title=" ">
<path fill="none" stroke="#63b8ff" d="M664.47,-143.58C643.87,-123.41 606.76,-90.01 569,-70.5 557.21,-64.41 543.68,-59.69 530.94,-56.11"/>
<polygon fill="#63b8ff" stroke="#63b8ff" points="662.21,-146.27 671.76,-150.85 667.15,-141.31 662.21,-146.27"/>
</a>
</g>
</g>
<!-- Node6 -->
<g id="Node000006" class="node">
<title>Node6</title>
<g id="a_Node000006"><a xlink:href="classSeqSynHandler.html#a6e12320bee3a90c0bc4d4ca34a5c470c" target="_top" xlink:title=" ">
<polygon fill="white" stroke="#666666" points="354,-208 182,-208 182,-189 354,-189 354,-208"/>
<text text-anchor="middle" x="268" y="-196" font-family="Ubuntu Mono" font-size="10.00">SeqSynHandler::setHistoryTime</text>
</a>
</g>
</g>
<!-- Node1&#45;&gt;Node6 -->
<g id="edge6_Node000001_Node000006" class="edge">
<title>Node1&#45;&gt;Node6</title>
<g id="a_edge6_Node000001_Node000006"><a xlink:title=" ">
<path fill="none" stroke="#63b8ff" d="M598.78,-171.2C588.75,-172.38 578.65,-173.51 569,-174.5 496.62,-181.92 414.22,-188.36 354.11,-192.7"/>
<polygon fill="#63b8ff" stroke="#63b8ff" points="599.24,-174.67 608.76,-170.01 598.41,-167.72 599.24,-174.67"/>
</a>
</g>
</g>
<!-- Node7 -->
<g id="Node000007" class="node">
<title>Node7</title>
<g id="a_Node000007"><a xlink:href="classSeqSynHandler.html#a1bd6056ce0a89c5dee40ddf685c807e5" target="_top" xlink:title=" ">
<polygon fill="white" stroke="#666666" points="555,-246 412,-246 412,-227 555,-227 555,-246"/>
<text text-anchor="middle" x="483.5" y="-234" font-family="Ubuntu Mono" font-size="10.00">SeqSynHandler::setKernel</text>
</a>
</g>
</g>
<!-- Node1&#45;&gt;Node7 -->
<g id="edge8_Node000001_Node000007" class="edge">
<title>Node1&#45;&gt;Node7</title>
<g id="a_edge8_Node000001_Node000007"><a xlink:title=" ">
<path fill="none" stroke="#63b8ff" d="M653.54,-174.74C631.18,-185.96 598.58,-201.51 569,-212.5 554.28,-217.97 537.72,-222.92 523.19,-226.89"/>
<polygon fill="#63b8ff" stroke="#63b8ff" points="655.42,-177.71 662.75,-170.06 652.25,-171.47 655.42,-177.71"/>
</a>
</g>
</g>
<!-- Node8 -->
<g id="Node000008" class="node">
<title>Node8</title>
<g id="a_Node000008"><a xlink:href="classSeqSynHandler.html#aa88f8d8b2ad77cf65e8df2d30e323437" target="_top" xlink:title=" ">
<polygon fill="white" stroke="#666666" points="338.5,-171 197.5,-171 197.5,-152 338.5,-152 338.5,-171"/>
<text text-anchor="middle" x="268" y="-159" font-family="Ubuntu Mono" font-size="10.00">SeqSynHandler::setSeqDt</text>
</a>
</g>
</g>
<!-- Node1&#45;&gt;Node8 -->
<g id="edge10_Node000001_Node000008" class="edge">
<title>Node1&#45;&gt;Node8</title>
<g id="a_edge10_Node000001_Node000008"><a xlink:title=" ">
<path fill="none" stroke="#63b8ff" d="M594.92,-160.71C518.9,-160.89 409.45,-161.16 338.77,-161.33"/>
<polygon fill="#63b8ff" stroke="#63b8ff" points="594.96,-164.21 604.95,-160.68 594.94,-157.21 594.96,-164.21"/>
</a>
</g>
</g>
<!-- Node9 -->
<g id="Node000009" class="node">
<title>Node9</title>
<g id="a_Node000009"><a xlink:href="classSeqSynHandler.html#ab6191d9be162cedaff8e69f06d494ff2" target="_top" xlink:title=" ">
<polygon fill="white" stroke="#666666" points="564,-132 403,-132 403,-113 564,-113 564,-132"/>
<text text-anchor="middle" x="483.5" y="-120" font-family="Ubuntu Mono" font-size="10.00">SeqSynHandler::updateKernel</text>
</a>
</g>
</g>
<!-- Node1&#45;&gt;Node9 -->
<g id="edge12_Node000001_Node000009" class="edge">
<title>Node1&#45;&gt;Node9</title>
<g id="a_edge12_Node000001_Node000009"><a xlink:title=" ">
<path fill="none" stroke="#63b8ff" d="M621.59,-149.01C593.55,-143.59 560.48,-137.19 533.85,-132.04"/>
<polygon fill="#63b8ff" stroke="#63b8ff" points="621.19,-152.5 631.67,-150.96 622.51,-145.62 621.19,-152.5"/>
</a>
</g>
</g>
<!-- Node12 -->
<g id="Node000012" class="node">
<title>Node12</title>
<g id="a_Node000012"><a xlink:href="classSeqSynHandler.html#a182b9836cc4e3b0243f9ce3dcf0b544b" target="_top" xlink:title=" ">
<polygon fill="white" stroke="#666666" points="362,-37 174,-37 174,-18 362,-18 362,-37"/>
<text text-anchor="middle" x="268" y="-25" font-family="Ubuntu Mono" font-size="10.00">SeqSynHandler::vSetNumSynapses</text>
</a>
</g>
</g>
<!-- Node1&#45;&gt;Node12 -->
<g id="edge21_Node000001_Node000012" class="edge">
<title>Node1&#45;&gt;Node12</title>
<g id="a_edge21_Node000001_Node000012"><a xlink:title=" ">
<path fill="none" stroke="#63b8ff" d="M656.06,-145.9C633.85,-133.42 600.13,-115.75 569,-104.5 495.59,-77.98 471.41,-91.02 398,-64.5 381.18,-58.42 378.91,-52.34 362,-46.5 351.1,-42.73 339.2,-39.61 327.67,-37.05"/>
<polygon fill="#63b8ff" stroke="#63b8ff" points="654.42,-148.99 664.84,-150.9 657.88,-142.91 654.42,-148.99"/>
</a>
</g>
</g>
<!-- Node13 -->
<g id="Node000013" class="node">
<title>Node13</title>
<g id="a_Node000013"><a xlink:href="classSeqSynHandler.html#a9eaf79c20e405819834915233316cf75" target="_top" xlink:title=" ">
<polygon fill="white" stroke="#666666" points="553.5,-19 413.5,-19 413.5,0 553.5,0 553.5,-19"/>
<text text-anchor="middle" x="483.5" y="-7" font-family="Ubuntu Mono" font-size="10.00">SeqSynHandler::vProcess</text>
</a>
</g>
</g>
<!-- Node1&#45;&gt;Node13 -->
<g id="edge20_Node000001_Node000013" class="edge">
<title>Node1&#45;&gt;Node13</title>
<g id="a_edge20_Node000001_Node000013"><a xlink:title=" ">
<path fill="none" stroke="#63b8ff" d="M671.01,-142.15C654.08,-112.94 616.91,-56.24 569,-27.5 563.34,-24.1 557.13,-21.34 550.73,-19.1"/>
<polygon fill="#63b8ff" stroke="#63b8ff" points="667.99,-143.93 675.95,-150.92 674.09,-140.49 667.99,-143.93"/>
</a>
</g>
</g>
<!-- Node3 -->
<g id="Node000003" class="node">
<title>Node3</title>
<g id="a_Node000003"><a xlink:href="classSeqSynHandler.html#a84c8323e49f09a53f04459715a5baa61" target="_top" xlink:title=" ">
<polygon fill="white" stroke="#666666" points="138,-208 0,-208 0,-189 138,-189 138,-208"/>
<text text-anchor="middle" x="69" y="-196" font-family="Ubuntu Mono" font-size="10.00">SeqSynHandler::initCinfo</text>
</a>
</g>
</g>
<!-- Node2&#45;&gt;Node3 -->
<g id="edge2_Node000002_Node000003" class="edge">
<title>Node2&#45;&gt;Node3</title>
<g id="a_edge2_Node000002_Node000003"><a xlink:title=" ">
<path fill="none" stroke="#63b8ff" d="M203.19,-300.22C193.13,-297.11 183.06,-293.25 174,-288.5 133.19,-267.1 94.8,-226.81 78.38,-208.28"/>
<polygon fill="#63b8ff" stroke="#63b8ff" points="202.23,-303.58 212.81,-302.98 204.16,-296.86 202.23,-303.58"/>
</a>
</g>
</g>
<!-- Node4&#45;&gt;Node3 -->
<g id="edge4_Node000004_Node000003" class="edge">
<title>Node4&#45;&gt;Node3</title>
<g id="a_edge4_Node000004_Node000003"><a xlink:title=" ">
<path fill="none" stroke="#63b8ff" d="M401.53,-269.94C338.72,-265.84 249.88,-257.08 174,-238.5 143.94,-231.14 110.83,-217.36 90.22,-208.05"/>
<polygon fill="#63b8ff" stroke="#63b8ff" points="401.57,-273.45 411.77,-270.58 402.01,-266.46 401.57,-273.45"/>
</a>
</g>
</g>
<!-- Node6&#45;&gt;Node3 -->
<g id="edge7_Node000006_Node000003" class="edge">
<title>Node6&#45;&gt;Node3</title>
<g id="a_edge7_Node000006_Node000003"><a xlink:title=" ">
<path fill="none" stroke="#63b8ff" d="M171.45,-198.5C160.22,-198.5 148.94,-198.5 138.19,-198.5"/>
<polygon fill="#63b8ff" stroke="#63b8ff" points="171.74,-202 181.74,-198.5 171.74,-195 171.74,-202"/>
</a>
</g>
</g>
<!-- Node7&#45;&gt;Node3 -->
<g id="edge9_Node000007_Node000003" class="edge">
<title>Node7&#45;&gt;Node3</title>
<g id="a_edge9_Node000007_Node000003"><a xlink:title=" ">
<path fill="none" stroke="#63b8ff" d="M401.66,-234.16C339.29,-231.71 250.95,-226.86 174,-217.5 154.69,-215.15 133.54,-211.49 115.38,-208"/>
<polygon fill="#63b8ff" stroke="#63b8ff" points="401.7,-237.66 411.83,-234.54 401.97,-230.66 401.7,-237.66"/>
</a>
</g>
</g>
<!-- Node8&#45;&gt;Node3 -->
<g id="edge11_Node000008_Node000003" class="edge">
<title>Node8&#45;&gt;Node3</title>
<g id="a_edge11_Node000008_Node000003"><a xlink:title=" ">
<path fill="none" stroke="#63b8ff" d="M206.41,-172.88C179.02,-178.02 147.02,-184.03 120.9,-188.94"/>
<polygon fill="#63b8ff" stroke="#63b8ff" points="207.09,-176.31 216.27,-171.03 205.79,-169.43 207.09,-176.31"/>
</a>
</g>
</g>
<!-- Node9&#45;&gt;Node6 -->
<g id="edge13_Node000009_Node000006" class="edge">
<title>Node9&#45;&gt;Node6</title>
<g id="a_edge13_Node000009_Node000006"><a xlink:title=" ">
<path fill="none" stroke="#63b8ff" d="M457.16,-137.08C433.31,-150.22 396.24,-169.16 362,-180.5 352.01,-183.81 341.2,-186.59 330.61,-188.9"/>
<polygon fill="#63b8ff" stroke="#63b8ff" points="458.89,-140.12 465.92,-132.19 455.48,-134.01 458.89,-140.12"/>
</a>
</g>
</g>
<!-- Node9&#45;&gt;Node8 -->
<g id="edge18_Node000009_Node000008" class="edge">
<title>Node9&#45;&gt;Node8</title>
<g id="a_edge18_Node000009_Node000008"><a xlink:title=" ">
<path fill="none" stroke="#63b8ff" d="M420.29,-133.86C388.79,-139.62 350.99,-146.52 321.06,-151.99"/>
<polygon fill="#63b8ff" stroke="#63b8ff" points="421.06,-137.28 430.27,-132.04 419.81,-130.39 421.06,-137.28"/>
</a>
</g>
</g>
<!-- Node10 -->
<g id="Node000010" class="node">
<title>Node10</title>
<g id="a_Node000010"><a xlink:href="classSeqSynHandler.html#ad548af814d9438e7d0a718f5c9116e83" target="_top" xlink:title=" ">
<polygon fill="white" stroke="#666666" points="339.5,-85.5 196.5,-85.5 196.5,-55.5 339.5,-55.5 339.5,-85.5"/>
<text text-anchor="start" x="204.5" y="-73.5" font-family="Ubuntu Mono" font-size="10.00">SeqSynHandler::setKernel</text>
<text text-anchor="middle" x="268" y="-62.5" font-family="Ubuntu Mono" font-size="10.00">Equation</text>
</a>
</g>
</g>
<!-- Node9&#45;&gt;Node10 -->
<g id="edge14_Node000009_Node000010" class="edge">
<title>Node9&#45;&gt;Node10</title>
<g id="a_edge14_Node000009_Node000010"><a xlink:title=" ">
<path fill="none" stroke="#63b8ff" d="M433.38,-110.54C402.93,-103.12 363.55,-93.53 330.96,-85.59"/>
<polygon fill="#63b8ff" stroke="#63b8ff" points="432.8,-114 443.34,-112.96 434.45,-107.2 432.8,-114"/>
</a>
</g>
</g>
<!-- Node11 -->
<g id="Node000011" class="node">
<title>Node11</title>
<g id="a_Node000011"><a xlink:href="classSeqSynHandler.html#aa1faaeb5f539f86e66090f7dd1a97a8e" target="_top" xlink:title=" ">
<polygon fill="white" stroke="#666666" points="339.5,-133.5 196.5,-133.5 196.5,-103.5 339.5,-103.5 339.5,-133.5"/>
<text text-anchor="start" x="204.5" y="-121.5" font-family="Ubuntu Mono" font-size="10.00">SeqSynHandler::setKernel</text>
<text text-anchor="middle" x="268" y="-110.5" font-family="Ubuntu Mono" font-size="10.00">Width</text>
</a>
</g>
</g>
<!-- Node9&#45;&gt;Node11 -->
<g id="edge16_Node000009_Node000011" class="edge">
<title>Node9&#45;&gt;Node11</title>
<g id="a_edge16_Node000009_Node000011"><a xlink:title=" ">
<path fill="none" stroke="#63b8ff" d="M392.39,-120.81C374.75,-120.48 356.48,-120.14 339.58,-119.82"/>
<polygon fill="#63b8ff" stroke="#63b8ff" points="392.63,-124.32 402.7,-121 392.76,-117.32 392.63,-124.32"/>
</a>
</g>
</g>
<!-- Node9&#45;&gt;Node12 -->
<g id="edge19_Node000009_Node000012" class="edge">
<title>Node9&#45;&gt;Node12</title>
<g id="a_edge19_Node000009_Node000012"><a xlink:title=" ">
<path fill="none" stroke="#63b8ff" d="M417.94,-109.3C410.87,-106.38 404.05,-102.83 398,-98.5 375.14,-82.14 385.46,-61.98 362,-46.5 356.22,-42.69 349.84,-39.61 343.2,-37.14"/>
<polygon fill="#63b8ff" stroke="#63b8ff" points="417.1,-112.71 427.69,-112.88 419.52,-106.15 417.1,-112.71"/>
</a>
</g>
</g>
<!-- Node10&#45;&gt;Node3 -->
<g id="edge15_Node000010_Node000003" class="edge">
<title>Node10&#45;&gt;Node3</title>
<g id="a_edge15_Node000010_Node000003"><a xlink:title=" ">
<path fill="none" stroke="#63b8ff" d="M186.98,-88.09C182.49,-90.01 178.13,-92.14 174,-94.5 130.1,-119.58 91.89,-168.08 76.84,-188.77"/>
<polygon fill="#63b8ff" stroke="#63b8ff" points="188.31,-91.33 196.35,-84.42 185.76,-84.81 188.31,-91.33"/>
</a>
</g>
</g>
<!-- Node11&#45;&gt;Node3 -->
<g id="edge17_Node000011_Node000003" class="edge">
<title>Node11&#45;&gt;Node3</title>
<g id="a_edge17_Node000011_Node000003"><a xlink:title=" ">
<path fill="none" stroke="#63b8ff" d="M193.55,-136.58C186.88,-138.73 180.27,-141.03 174,-143.5 141.11,-156.43 105.18,-177 85.34,-188.98"/>
<polygon fill="#63b8ff" stroke="#63b8ff" points="194.82,-139.86 203.35,-133.57 192.76,-133.17 194.82,-139.86"/>
</a>
</g>
</g>
</g>
</svg>

<g id="navigator" transform="translate(0 0)" fill="#404254">
  <rect fill="#f2f5e9" fill-opacity="0.5" stroke="#606060" stroke-width=".5" x="0" y="0" width="60" height="60"/>
  <use id="zoomplus" xlink:href="#zoomPlus" x="17" y="9" onmousedown="handleZoom(evt,'in')"/>
  <use id="zoomminus" xlink:href="#zoomMin" x="42" y="9" onmousedown="handleZoom(evt,'out')"/>
  <use id="reset" xlink:href="#resetDef" x="30" y="36" onmousedown="handleReset()"/>
   <use id="arrowup" xlink:href="#arrowUp" x="0" y="0" onmousedown="handlePan(0,-1)"/>
  <use id="arrowright" xlink:href="#arrowRight" x="0" y="0" onmousedown="handlePan(1,0)"/>
  <use id="arrowdown" xlink:href="#arrowDown" x="0" y="0" onmousedown="handlePan(0,1)"/>
  <use id="arrowleft" xlink:href="#arrowLeft" x="0" y="0" onmousedown="handlePan(-1,0)"/>
</g>
<svg viewBox="0 0 15 15" width="100%" height="30px" preserveAspectRatio="xMaxYMin meet">
 <g id="arrow_out" transform="scale(0.3 0.3)">
  <a xlink:href="classSeqSynHandler_a8dec4415ad4c25ca8c2c6aa22633578e_icgraph_org.svg" target="_base">
   <rect id="button" ry="5" rx="5" y="6" x="6" height="38" width="38"
        fill="#f2f5e9" fill-opacity="0.5" stroke="#606060" stroke-width="1.0"/>
   <path id="arrow"
     d="M 11.500037,31.436501 C 11.940474,20.09759 22.043105,11.32322 32.158766,21.979434 L 37.068811,17.246167 C 37.068811,17.246167 37.088388,32 37.088388,32 L 22.160133,31.978069 C 22.160133,31.978069 26.997745,27.140456 26.997745,27.140456 C 18.528582,18.264221 13.291696,25.230495 11.500037,31.436501 z"
     style="fill:#404040;"/>
  </a>
 </g>
</svg>

<style type='text/css'>
<![CDATA[
[data-mouse-over-selected='false'] { opacity: 0.7; }
[data-mouse-over-selected='true']  { opacity: 1.0; }
]]>
</style>
<script type="application/ecmascript"><![CDATA[
document.addEventListener('DOMContentLoaded', (event) => {
  highlightEdges();
  highlightAdjacentNodes();
});
]]></script>
</svg>
