<?xml version="1.0" encoding="UTF-8" standalone="no"?>
<!DOCTYPE svg PUBLIC "-//W3C//DTD SVG 1.1//EN"
 "http://www.w3.org/Graphics/SVG/1.1/DTD/svg11.dtd">
<!-- Generated by graphviz version 2.43.0 (0)
 -->
<!-- Title: Table::getColumnName Pages: 1 -->
<svg width="680pt" height="140pt"
 viewBox="0.00 0.00 680.00 140.00" xmlns="http://www.w3.org/2000/svg" xmlns:xlink="http://www.w3.org/1999/xlink">
<g id="graph0" class="graph" transform="scale(1 1) rotate(0) translate(4 136)">
<title>Table::getColumnName</title>
<!-- Node1 -->
<g id="Node000001" class="node">
<title>Node1</title>
<g id="a_Node000001"><a xlink:title=" ">
<polygon fill="#999999" stroke="#666666" points="672,-56 541,-56 541,-37 672,-37 672,-56"/>
<text text-anchor="middle" x="606.5" y="-44" font-family="Ubuntu Mono" font-size="10.00">Table::getColumnName</text>
</a>
</g>
</g>
<!-- Node2 -->
<g id="Node000002" class="node">
<title>Node2</title>
<g id="a_Node000002"><a xlink:href="classSocketStreamer.html#a28742cc43dfb6474916051c3a28a460e" target="_top" xlink:title="Add a table to streamer.">
<polygon fill="white" stroke="#666666" points="505,-94 362,-94 362,-75 505,-75 505,-94"/>
<text text-anchor="middle" x="433.5" y="-82" font-family="Ubuntu Mono" font-size="10.00">SocketStreamer::addTable</text>
</a>
</g>
</g>
<!-- Node1&#45;&gt;Node2 -->
<g id="edge1_Node000001_Node000002" class="edge">
<title>Node1&#45;&gt;Node2</title>
<g id="a_edge1_Node000001_Node000002"><a xlink:title=" ">
<path fill="none" stroke="#63b8ff" d="M552.29,-58.32C528.18,-63.68 500.06,-69.93 477.34,-74.98"/>
<polygon fill="#63b8ff" stroke="#63b8ff" points="553.35,-61.68 562.35,-56.09 551.83,-54.84 553.35,-61.68"/>
</a>
</g>
</g>
<!-- Node5 -->
<g id="Node000005" class="node">
<title>Node5</title>
<g id="a_Node000005"><a xlink:href="classStreamer.html#a443ec87c302abbdbb3f55417fcb9d225" target="_top" xlink:title="Add a table to streamer.">
<polygon fill="white" stroke="#666666" points="489,-56 378,-56 378,-37 489,-37 489,-56"/>
<text text-anchor="middle" x="433.5" y="-44" font-family="Ubuntu Mono" font-size="10.00">Streamer::addTable</text>
</a>
</g>
</g>
<!-- Node1&#45;&gt;Node5 -->
<g id="edge5_Node000001_Node000005" class="edge">
<title>Node1&#45;&gt;Node5</title>
<g id="a_edge5_Node000001_Node000005"><a xlink:title=" ">
<path fill="none" stroke="#63b8ff" d="M530.76,-46.5C516.79,-46.5 502.42,-46.5 489.19,-46.5"/>
<polygon fill="#63b8ff" stroke="#63b8ff" points="530.85,-50 540.85,-46.5 530.85,-43 530.85,-50"/>
</a>
</g>
</g>
<!-- Node8 -->
<g id="Node000008" class="node">
<title>Node8</title>
<g id="a_Node000008"><a xlink:href="classTable.html#a510dd5d32479feb8100fc46ee5245240" target="_top" xlink:title=" ">
<polygon fill="white" stroke="#666666" points="478,-19 389,-19 389,0 478,0 478,-19"/>
<text text-anchor="middle" x="433.5" y="-7" font-family="Ubuntu Mono" font-size="10.00">Table::initCinfo</text>
</a>
</g>
</g>
<!-- Node1&#45;&gt;Node8 -->
<g id="edge9_Node000001_Node000008" class="edge">
<title>Node1&#45;&gt;Node8</title>
<g id="a_edge9_Node000001_Node000008"><a xlink:title=" ">
<path fill="none" stroke="#63b8ff" d="M551.57,-34.83C527.89,-29.71 500.45,-23.77 478.09,-18.93"/>
<polygon fill="#63b8ff" stroke="#63b8ff" points="550.95,-38.28 561.46,-36.97 552.43,-31.44 550.95,-38.28"/>
</a>
</g>
</g>
<!-- Node3 -->
<g id="Node000003" class="node">
<title>Node3</title>
<g id="a_Node000003"><a xlink:href="classSocketStreamer.html#a45ceb266102af547388dff0f5785f7db" target="_top" xlink:title="Add multiple tables to SocketStreamer.">
<polygon fill="white" stroke="#666666" points="326,-132 177,-132 177,-113 326,-113 326,-132"/>
<text text-anchor="middle" x="251.5" y="-120" font-family="Ubuntu Mono" font-size="10.00">SocketStreamer::addTables</text>
</a>
</g>
</g>
<!-- Node2&#45;&gt;Node3 -->
<g id="edge2_Node000002_Node000003" class="edge">
<title>Node2&#45;&gt;Node3</title>
<g id="a_edge2_Node000002_Node000003"><a xlink:title=" ">
<path fill="none" stroke="#63b8ff" d="M377.17,-96.18C351.64,-101.57 321.72,-107.89 297.59,-112.98"/>
<polygon fill="#63b8ff" stroke="#63b8ff" points="378.02,-99.58 387.08,-94.09 376.57,-92.73 378.02,-99.58"/>
</a>
</g>
</g>
<!-- Node4 -->
<g id="Node000004" class="node">
<title>Node4</title>
<g id="a_Node000004"><a xlink:href="classSocketStreamer.html#a8f6995482d6f639362e1508b37297404" target="_top" xlink:title=" ">
<polygon fill="white" stroke="#666666" points="141,-113 0,-113 0,-94 141,-94 141,-113"/>
<text text-anchor="middle" x="70.5" y="-101" font-family="Ubuntu Mono" font-size="10.00">SocketStreamer::initCinfo</text>
</a>
</g>
</g>
<!-- Node2&#45;&gt;Node4 -->
<g id="edge4_Node000002_Node000004" class="edge">
<title>Node2&#45;&gt;Node4</title>
<g id="a_edge4_Node000002_Node000004"><a xlink:title=" ">
<path fill="none" stroke="#63b8ff" d="M351.27,-88.78C287.99,-92.11 201.08,-96.68 141,-99.84"/>
<polygon fill="#63b8ff" stroke="#63b8ff" points="351.81,-92.25 361.61,-88.23 351.44,-85.26 351.81,-92.25"/>
</a>
</g>
</g>
<!-- Node3&#45;&gt;Node4 -->
<g id="edge3_Node000003_Node000004" class="edge">
<title>Node3&#45;&gt;Node4</title>
<g id="a_edge3_Node000003_Node000004"><a xlink:title=" ">
<path fill="none" stroke="#63b8ff" d="M166.84,-113.62C158.21,-112.7 149.5,-111.78 141.05,-110.88"/>
<polygon fill="#63b8ff" stroke="#63b8ff" points="166.61,-117.11 176.92,-114.69 167.34,-110.15 166.61,-117.11"/>
</a>
</g>
</g>
<!-- Node6 -->
<g id="Node000006" class="node">
<title>Node6</title>
<g id="a_Node000006"><a xlink:href="classStreamer.html#af9717a4ee55be57c871ff40869a9010f" target="_top" xlink:title="Add multiple tables to Streamer.">
<polygon fill="white" stroke="#666666" points="309.5,-56 193.5,-56 193.5,-37 309.5,-37 309.5,-56"/>
<text text-anchor="middle" x="251.5" y="-44" font-family="Ubuntu Mono" font-size="10.00">Streamer::addTables</text>
</a>
</g>
</g>
<!-- Node5&#45;&gt;Node6 -->
<g id="edge6_Node000005_Node000006" class="edge">
<title>Node5&#45;&gt;Node6</title>
<g id="a_edge6_Node000005_Node000006"><a xlink:title=" ">
<path fill="none" stroke="#63b8ff" d="M367.49,-46.5C348.56,-46.5 328.04,-46.5 309.64,-46.5"/>
<polygon fill="#63b8ff" stroke="#63b8ff" points="367.52,-50 377.52,-46.5 367.52,-43 367.52,-50"/>
</a>
</g>
</g>
<!-- Node7 -->
<g id="Node000007" class="node">
<title>Node7</title>
<g id="a_Node000007"><a xlink:href="classStreamer.html#ac907f2b6e6605333f338367f2712e7e3" target="_top" xlink:title=" ">
<polygon fill="white" stroke="#666666" points="125,-37 16,-37 16,-18 125,-18 125,-37"/>
<text text-anchor="middle" x="70.5" y="-25" font-family="Ubuntu Mono" font-size="10.00">Streamer::initCinfo</text>
</a>
</g>
</g>
<!-- Node5&#45;&gt;Node7 -->
<g id="edge8_Node000005_Node000007" class="edge">
<title>Node5&#45;&gt;Node7</title>
<g id="a_edge8_Node000005_Node000007"><a xlink:title=" ">
<path fill="none" stroke="#63b8ff" d="M375.77,-35.14C359.74,-32.42 342.25,-29.9 326,-28.5 256.89,-22.56 176.82,-23.53 125.24,-25.17"/>
<polygon fill="#63b8ff" stroke="#63b8ff" points="375.6,-38.67 386.05,-36.95 376.81,-31.77 375.6,-38.67"/>
</a>
</g>
</g>
<!-- Node6&#45;&gt;Node7 -->
<g id="edge7_Node000006_Node000007" class="edge">
<title>Node6&#45;&gt;Node7</title>
<g id="a_edge7_Node000006_Node000007"><a xlink:title=" ">
<path fill="none" stroke="#63b8ff" d="M183.18,-39.35C163.97,-37.32 143.31,-35.12 125.04,-33.18"/>
<polygon fill="#63b8ff" stroke="#63b8ff" points="183.06,-42.86 193.37,-40.44 183.8,-35.9 183.06,-42.86"/>
</a>
</g>
</g>
</g>
</svg>
