<?xml version="1.0" encoding="UTF-8" standalone="no"?>
<!DOCTYPE svg PUBLIC "-//W3C//DTD SVG 1.1//EN"
 "http://www.w3.org/Graphics/SVG/1.1/DTD/svg11.dtd">
<!-- Generated by graphviz version 2.43.0 (0)
 -->
<!-- Title: GetHopFunc&lt; A &gt; Pages: 1 -->
<svg width="188pt" height="760pt"
 viewBox="0.00 0.00 188.00 760.00" xmlns="http://www.w3.org/2000/svg" xmlns:xlink="http://www.w3.org/1999/xlink">
<g id="graph0" class="graph" transform="scale(1 1) rotate(0) translate(4 756)">
<title>GetHopFunc&lt; A &gt;</title>
<!-- Node1 -->
<g id="Node000001" class="node">
<title>Node1</title>
<g id="a_Node000001"><a xlink:title=" ">
<polygon fill="#999999" stroke="transparent" points="124,-139 0,-139 0,0 124,0 124,-139"/>
<text text-anchor="start" x="17.5" y="-126.5" font-family="Ubuntu Mono" font-size="10.00">GetHopFunc&lt; A &gt;</text>
<text text-anchor="start" x="6.5" y="-111.5" font-family="Ubuntu Mono" font-size="10.00">&#45;</text>
<text text-anchor="start" x="17" y="-111.5" font-family="Ubuntu Mono" font-size="10.00">hopIndex_</text>
<text text-anchor="start" x="4" y="-96.5" font-family="Ubuntu Mono" font-size="10.00">+</text>
<text text-anchor="start" x="17" y="-96.5" font-family="Ubuntu Mono" font-size="10.00">GetHopFunc()</text>
<text text-anchor="start" x="4" y="-81.5" font-family="Ubuntu Mono" font-size="10.00">+</text>
<text text-anchor="start" x="17" y="-81.5" font-family="Ubuntu Mono" font-size="10.00">getLocalFieldVec()</text>
<text text-anchor="start" x="4" y="-66.5" font-family="Ubuntu Mono" font-size="10.00">+</text>
<text text-anchor="start" x="17" y="-66.5" font-family="Ubuntu Mono" font-size="10.00">getLocalVec()</text>
<text text-anchor="start" x="4" y="-51.5" font-family="Ubuntu Mono" font-size="10.00">+</text>
<text text-anchor="start" x="17" y="-51.5" font-family="Ubuntu Mono" font-size="10.00">getMultiNodeVec()</text>
<text text-anchor="start" x="4" y="-36.5" font-family="Ubuntu Mono" font-size="10.00">+</text>
<text text-anchor="start" x="17" y="-36.5" font-family="Ubuntu Mono" font-size="10.00">getRemoteFieldVec()</text>
<text text-anchor="start" x="4" y="-21.5" font-family="Ubuntu Mono" font-size="10.00">+</text>
<text text-anchor="start" x="17" y="-21.5" font-family="Ubuntu Mono" font-size="10.00">op()</text>
<text text-anchor="start" x="4" y="-6.5" font-family="Ubuntu Mono" font-size="10.00">+</text>
<text text-anchor="start" x="17" y="-6.5" font-family="Ubuntu Mono" font-size="10.00">opGetVec()</text>
<polygon fill="#666666" stroke="#666666" points="0,-121.5 0,-121.5 124,-121.5 124,-121.5 0,-121.5"/>
<polygon fill="#666666" stroke="#666666" points="0,-106.5 0,-106.5 15,-106.5 15,-106.5 0,-106.5"/>
<polygon fill="#666666" stroke="#666666" points="15,-106.5 15,-106.5 124,-106.5 124,-106.5 15,-106.5"/>
<polygon fill="none" stroke="#666666" points="0,0 0,-139 124,-139 124,0 0,0"/>
</a>
</g>
</g>
<!-- Node2 -->
<g id="Node000002" class="node">
<title>Node2</title>
<g id="a_Node000002"><a xlink:href="classOpFunc1Base.html" target="_top" xlink:title=" ">
<polygon fill="white" stroke="transparent" points="119,-315 5,-315 5,-176 119,-176 119,-315"/>
<text text-anchor="start" x="10" y="-302.5" font-family="Ubuntu Mono" font-size="10.00">OpFunc1Base&lt; A * &gt;</text>
<text text-anchor="start" x="60" y="-287.5" font-family="Ubuntu Mono" font-size="10.00"> </text>
<text text-anchor="start" x="13" y="-272.5" font-family="Ubuntu Mono" font-size="10.00">+</text>
<text text-anchor="start" x="30" y="-272.5" font-family="Ubuntu Mono" font-size="10.00">checkFinfo()</text>
<text text-anchor="start" x="13" y="-257.5" font-family="Ubuntu Mono" font-size="10.00">+</text>
<text text-anchor="start" x="30" y="-257.5" font-family="Ubuntu Mono" font-size="10.00">makeHopFunc()</text>
<text text-anchor="start" x="13" y="-242.5" font-family="Ubuntu Mono" font-size="10.00">+</text>
<text text-anchor="start" x="30" y="-242.5" font-family="Ubuntu Mono" font-size="10.00">op()</text>
<text text-anchor="start" x="13" y="-227.5" font-family="Ubuntu Mono" font-size="10.00">+</text>
<text text-anchor="start" x="30" y="-227.5" font-family="Ubuntu Mono" font-size="10.00">opBuffer()</text>
<text text-anchor="start" x="13" y="-212.5" font-family="Ubuntu Mono" font-size="10.00">+</text>
<text text-anchor="start" x="30" y="-212.5" font-family="Ubuntu Mono" font-size="10.00">opVec()</text>
<text text-anchor="start" x="13" y="-197.5" font-family="Ubuntu Mono" font-size="10.00">+</text>
<text text-anchor="start" x="30" y="-197.5" font-family="Ubuntu Mono" font-size="10.00">opVecBuffer()</text>
<text text-anchor="start" x="13" y="-182.5" font-family="Ubuntu Mono" font-size="10.00">+</text>
<text text-anchor="start" x="30" y="-182.5" font-family="Ubuntu Mono" font-size="10.00">rttiType()</text>
<polygon fill="#666666" stroke="#666666" points="5,-297.5 5,-297.5 119,-297.5 119,-297.5 5,-297.5"/>
<polygon fill="#666666" stroke="#666666" points="5,-282.5 5,-282.5 119,-282.5 119,-282.5 5,-282.5"/>
<polygon fill="none" stroke="#666666" points="5,-176 5,-315 119,-315 119,-176 5,-176"/>
</a>
</g>
</g>
<!-- Node2&#45;&gt;Node1 -->
<g id="edge1_Node000001_Node000002" class="edge">
<title>Node2&#45;&gt;Node1</title>
<g id="a_edge1_Node000001_Node000002"><a xlink:title=" ">
<path fill="none" stroke="#63b8ff" d="M62,-165.46C62,-156.64 62,-147.72 62,-139.05"/>
<polygon fill="none" stroke="#63b8ff" points="58.5,-165.73 62,-175.73 65.5,-165.73 58.5,-165.73"/>
</a>
</g>
</g>
<!-- Node3 -->
<g id="Node000003" class="node">
<title>Node3</title>
<g id="a_Node000003"><a xlink:href="classOpFunc.html" target="_top" xlink:title=" ">
<polygon fill="white" stroke="transparent" points="109.5,-752 6.5,-752 6.5,-538 109.5,-538 109.5,-752"/>
<text text-anchor="start" x="40" y="-740" font-family="Ubuntu Mono" font-size="10.00">OpFunc</text>
<text text-anchor="start" x="13.5" y="-725" font-family="Ubuntu Mono" font-size="10.00">&#45;</text>
<text text-anchor="start" x="24" y="-725" font-family="Ubuntu Mono" font-size="10.00">opIndex_</text>
<text text-anchor="start" x="11" y="-710" font-family="Ubuntu Mono" font-size="10.00">+</text>
<text text-anchor="start" x="24" y="-710" font-family="Ubuntu Mono" font-size="10.00">checkFinfo()</text>
<text text-anchor="start" x="11" y="-695" font-family="Ubuntu Mono" font-size="10.00">+</text>
<text text-anchor="start" x="24" y="-695" font-family="Ubuntu Mono" font-size="10.00">makeHopFunc()</text>
<text text-anchor="start" x="11" y="-680" font-family="Ubuntu Mono" font-size="10.00">+</text>
<text text-anchor="start" x="24" y="-680" font-family="Ubuntu Mono" font-size="10.00">opBuffer()</text>
<text text-anchor="start" x="11" y="-665" font-family="Ubuntu Mono" font-size="10.00">+</text>
<text text-anchor="start" x="24" y="-665" font-family="Ubuntu Mono" font-size="10.00">OpFunc()</text>
<text text-anchor="start" x="11" y="-650" font-family="Ubuntu Mono" font-size="10.00">+</text>
<text text-anchor="start" x="24" y="-650" font-family="Ubuntu Mono" font-size="10.00">opIndex()</text>
<text text-anchor="start" x="11" y="-635" font-family="Ubuntu Mono" font-size="10.00">+</text>
<text text-anchor="start" x="24" y="-635" font-family="Ubuntu Mono" font-size="10.00">opVecBuffer()</text>
<text text-anchor="start" x="11" y="-620" font-family="Ubuntu Mono" font-size="10.00">+</text>
<text text-anchor="start" x="24" y="-620" font-family="Ubuntu Mono" font-size="10.00">rttiType()</text>
<text text-anchor="start" x="11" y="-605" font-family="Ubuntu Mono" font-size="10.00">+</text>
<text text-anchor="start" x="24" y="-605" font-family="Ubuntu Mono" font-size="10.00">setIndex()</text>
<text text-anchor="start" x="11" y="-590" font-family="Ubuntu Mono" font-size="10.00">+</text>
<text text-anchor="start" x="24" y="-590" font-family="Ubuntu Mono" font-size="10.00">~OpFunc()</text>
<text text-anchor="start" x="11" y="-575" font-family="Ubuntu Mono" font-size="10.00">+</text>
<text text-anchor="start" x="24" y="-575" font-family="Ubuntu Mono" font-size="10.00">lookop()</text>
<text text-anchor="start" x="11" y="-560" font-family="Ubuntu Mono" font-size="10.00">+</text>
<text text-anchor="start" x="24" y="-560" font-family="Ubuntu Mono" font-size="10.00">rebuildOpIndex()</text>
<text text-anchor="start" x="13.5" y="-545" font-family="Ubuntu Mono" font-size="10.00">&#45;</text>
<text text-anchor="start" x="24" y="-545" font-family="Ubuntu Mono" font-size="10.00">ops()</text>
<polygon fill="#666666" stroke="#666666" points="7,-735 7,-735 110,-735 110,-735 7,-735"/>
<polygon fill="#666666" stroke="#666666" points="7,-720 7,-720 22,-720 22,-720 7,-720"/>
<polygon fill="#666666" stroke="#666666" points="22,-720 22,-720 110,-720 110,-720 22,-720"/>
<polygon fill="none" stroke="#666666" points="6.5,-538 6.5,-752 109.5,-752 109.5,-538 6.5,-538"/>
</a>
</g>
</g>
<!-- Node3&#45;&gt;Node2 -->
<g id="edge2_Node000002_Node000003" class="edge">
<title>Node3&#45;&gt;Node2</title>
<g id="a_edge2_Node000002_Node000003"><a xlink:title=" ">
<path fill="none" stroke="#63b8ff" d="M59.17,-527.93C59.86,-458.82 60.72,-373.48 61.31,-315.02"/>
<polygon fill="none" stroke="#63b8ff" points="55.67,-527.96 59.07,-538 62.67,-528.04 55.67,-527.96"/>
</a>
</g>
</g>
<!-- Node4 -->
<g id="Node000004" class="node">
<title>Node4</title>
<g id="a_Node000004"><a xlink:href="classOpFunc1Base.html" target="_top" xlink:title=" ">
<polygon fill="white" stroke="transparent" points="180,-501 74,-501 74,-362 180,-362 180,-501"/>
<text text-anchor="start" x="79" y="-488.5" font-family="Ubuntu Mono" font-size="10.00">OpFunc1Base&lt; A &gt;</text>
<text text-anchor="start" x="125" y="-473.5" font-family="Ubuntu Mono" font-size="10.00"> </text>
<text text-anchor="start" x="80" y="-458.5" font-family="Ubuntu Mono" font-size="10.00">+</text>
<text text-anchor="start" x="95" y="-458.5" font-family="Ubuntu Mono" font-size="10.00">checkFinfo()</text>
<text text-anchor="start" x="80" y="-443.5" font-family="Ubuntu Mono" font-size="10.00">+</text>
<text text-anchor="start" x="95" y="-443.5" font-family="Ubuntu Mono" font-size="10.00">makeHopFunc()</text>
<text text-anchor="start" x="80" y="-428.5" font-family="Ubuntu Mono" font-size="10.00">+</text>
<text text-anchor="start" x="95" y="-428.5" font-family="Ubuntu Mono" font-size="10.00">op()</text>
<text text-anchor="start" x="80" y="-413.5" font-family="Ubuntu Mono" font-size="10.00">+</text>
<text text-anchor="start" x="95" y="-413.5" font-family="Ubuntu Mono" font-size="10.00">opBuffer()</text>
<text text-anchor="start" x="80" y="-398.5" font-family="Ubuntu Mono" font-size="10.00">+</text>
<text text-anchor="start" x="95" y="-398.5" font-family="Ubuntu Mono" font-size="10.00">opVec()</text>
<text text-anchor="start" x="80" y="-383.5" font-family="Ubuntu Mono" font-size="10.00">+</text>
<text text-anchor="start" x="95" y="-383.5" font-family="Ubuntu Mono" font-size="10.00">opVecBuffer()</text>
<text text-anchor="start" x="80" y="-368.5" font-family="Ubuntu Mono" font-size="10.00">+</text>
<text text-anchor="start" x="95" y="-368.5" font-family="Ubuntu Mono" font-size="10.00">rttiType()</text>
<polygon fill="#666666" stroke="#666666" points="74,-483.5 74,-483.5 180,-483.5 180,-483.5 74,-483.5"/>
<polygon fill="#666666" stroke="#666666" points="74,-468.5 74,-468.5 180,-468.5 180,-468.5 74,-468.5"/>
<polygon fill="none" stroke="#666666" points="74,-362 74,-501 180,-501 180,-362 74,-362"/>
</a>
</g>
</g>
<!-- Node3&#45;&gt;Node4 -->
<g id="edge4_Node000004_Node000003" class="edge">
<title>Node3&#45;&gt;Node4</title>
<g id="a_edge4_Node000004_Node000003"><a xlink:title=" ">
<path fill="none" stroke="#63b8ff" d="M95.74,-528.31C98.75,-519.09 101.73,-509.97 104.58,-501.24"/>
<polygon fill="none" stroke="#63b8ff" points="92.38,-527.35 92.6,-537.94 99.03,-529.52 92.38,-527.35"/>
</a>
</g>
</g>
<!-- Node4&#45;&gt;Node2 -->
<g id="edge3_Node000002_Node000004" class="edge">
<title>Node4&#45;&gt;Node2</title>
<g id="a_edge3_Node000002_Node000004"><a xlink:title=" ">
<path fill="none" stroke="orange" d="M99.46,-352.55C95.06,-340.09 90.54,-327.29 86.22,-315.07"/>
<polygon fill="orange" stroke="orange" points="96.17,-353.72 102.8,-361.99 102.77,-351.39 96.17,-353.72"/>
</a>
</g>
<text text-anchor="middle" x="114.5" y="-336" font-family="Ubuntu Mono" font-size="10.00" fill="grey"> &lt; A * &gt;</text>
</g>
</g>
</svg>
