<?xml version="1.0" encoding="UTF-8" standalone="no"?>
<!DOCTYPE svg PUBLIC "-//W3C//DTD SVG 1.1//EN"
 "http://www.w3.org/Graphics/SVG/1.1/DTD/svg11.dtd">
<!-- Generated by graphviz version 2.43.0 (0)
 -->
<!-- Title: FieldElementFinfoBase::postCreationFunc Pages: 1 -->
<svg width="666pt" height="1724pt"
 viewBox="0.00 0.00 666.00 1723.50" xmlns="http://www.w3.org/2000/svg" xmlns:xlink="http://www.w3.org/1999/xlink">
<g id="graph0" class="graph" transform="scale(1 1) rotate(0) translate(4 1719.5)">
<title>FieldElementFinfoBase::postCreationFunc</title>
<!-- Node1 -->
<g id="Node000001" class="node">
<title>Node1</title>
<g id="a_Node000001"><a xlink:title=" ">
<polygon fill="#999999" stroke="#666666" points="128,-1218 0,-1218 0,-1188 128,-1188 128,-1218"/>
<text text-anchor="start" x="8" y="-1206" font-family="Ubuntu Mono" font-size="10.00">FieldElementFinfoBase</text>
<text text-anchor="middle" x="64" y="-1195" font-family="Ubuntu Mono" font-size="10.00">::postCreationFunc</text>
</a>
</g>
</g>
<!-- Node2 -->
<g id="Node000002" class="node">
<title>Node2</title>
<g id="a_Node000002"><a xlink:href="classFinfo.html#abc99f255aaa20e41d102c51bf6eff186" target="_top" xlink:title=" ">
<polygon fill="white" stroke="#666666" points="281.5,-1715.5 196.5,-1715.5 196.5,-1696.5 281.5,-1696.5 281.5,-1715.5"/>
<text text-anchor="middle" x="239" y="-1703.5" font-family="Ubuntu Mono" font-size="10.00">Finfo::addMsg</text>
</a>
</g>
</g>
<!-- Node1&#45;&gt;Node2 -->
<g id="edge1_Node000001_Node000002" class="edge">
<title>Node1&#45;&gt;Node2</title>
<g id="a_edge1_Node000001_Node000002"><a xlink:title=" ">
<path fill="none" stroke="#63b8ff" d="M65.95,-1218.04C70.94,-1292.18 96.47,-1617.91 164,-1688 170.07,-1694.3 177.94,-1698.54 186.27,-1701.37"/>
<polygon fill="#63b8ff" stroke="#63b8ff" points="185.62,-1704.82 196.19,-1704.09 187.47,-1698.07 185.62,-1704.82"/>
</a>
</g>
</g>
<!-- Node3 -->
<g id="Node000003" class="node">
<title>Node3</title>
<g id="a_Node000003"><a xlink:href="classId.html#a574e06330597163aef0ea4c99de7ff4a" target="_top" xlink:title="Synonym for Id::operator()()">
<polygon fill="white" stroke="#666666" points="275,-1678.5 203,-1678.5 203,-1659.5 275,-1659.5 275,-1678.5"/>
<text text-anchor="middle" x="239" y="-1666.5" font-family="Ubuntu Mono" font-size="10.00">Id::element</text>
</a>
</g>
</g>
<!-- Node1&#45;&gt;Node3 -->
<g id="edge2_Node000001_Node000003" class="edge">
<title>Node1&#45;&gt;Node3</title>
<g id="a_edge2_Node000001_Node000003"><a xlink:title=" ">
<path fill="none" stroke="#63b8ff" d="M66.25,-1218.3C72.34,-1289.42 101.31,-1586.97 164,-1651 171.72,-1658.88 182.27,-1663.54 192.99,-1666.24"/>
<polygon fill="#63b8ff" stroke="#63b8ff" points="192.3,-1669.67 202.8,-1668.2 193.68,-1662.81 192.3,-1669.67"/>
</a>
</g>
</g>
<!-- Node5 -->
<g id="Node000005" class="node">
<title>Node5</title>
<g id="a_Node000005"><a xlink:href="classId.html#adac7a40d04024a7b9dcb7eae7b9fdf9b" target="_top" xlink:title=" ">
<polygon fill="white" stroke="#666666" points="264.5,-1604.5 213.5,-1604.5 213.5,-1585.5 264.5,-1585.5 264.5,-1604.5"/>
<text text-anchor="middle" x="239" y="-1592.5" font-family="Ubuntu Mono" font-size="10.00">Id::eref</text>
</a>
</g>
</g>
<!-- Node1&#45;&gt;Node5 -->
<g id="edge4_Node000001_Node000005" class="edge">
<title>Node1&#45;&gt;Node5</title>
<g id="a_edge4_Node000001_Node000005"><a xlink:title=" ">
<path fill="none" stroke="#63b8ff" d="M64.33,-1218.01C62.71,-1273.11 64.64,-1466.46 164,-1571 174.26,-1581.79 189.4,-1587.74 203.33,-1591.01"/>
<polygon fill="#63b8ff" stroke="#63b8ff" points="202.67,-1594.45 213.16,-1592.96 204.03,-1587.59 202.67,-1594.45"/>
</a>
</g>
</g>
<!-- Node6 -->
<g id="Node000006" class="node">
<title>Node6</title>
<g id="a_Node000006"><a xlink:href="classEref.html#a3addb850bc6cbac7771a07de219d909d" target="_top" xlink:title=" ">
<polygon fill="white" stroke="#666666" points="634.5,-1566.5 573.5,-1566.5 573.5,-1547.5 634.5,-1547.5 634.5,-1566.5"/>
<text text-anchor="middle" x="604" y="-1554.5" font-family="Ubuntu Mono" font-size="10.00">Eref::Eref</text>
</a>
</g>
</g>
<!-- Node1&#45;&gt;Node6 -->
<g id="edge7_Node000001_Node000006" class="edge">
<title>Node1&#45;&gt;Node6</title>
<g id="a_edge7_Node000001_Node000006"><a xlink:title=" ">
<path fill="none" stroke="#63b8ff" d="M67.94,-1218.13C76.31,-1257.52 103.62,-1364.65 164,-1429 271.95,-1544.04 476.82,-1557.61 563.1,-1557.92"/>
<polygon fill="#63b8ff" stroke="#63b8ff" points="563.27,-1561.42 573.27,-1557.9 563.26,-1554.42 563.27,-1561.42"/>
</a>
</g>
</g>
<!-- Node7 -->
<g id="Node000007" class="node">
<title>Node7</title>
<g id="a_Node000007"><a xlink:href="classFieldElement.html#ac1b599b712edc07f0a34081a45798e89" target="_top" xlink:title=" ">
<polygon fill="white" stroke="#666666" points="314,-67.5 164,-67.5 164,-48.5 314,-48.5 314,-67.5"/>
<text text-anchor="middle" x="239" y="-55.5" font-family="Ubuntu Mono" font-size="10.00">FieldElement::FieldElement</text>
</a>
</g>
</g>
<!-- Node1&#45;&gt;Node7 -->
<g id="edge8_Node000001_Node000007" class="edge">
<title>Node1&#45;&gt;Node7</title>
<g id="a_edge8_Node000001_Node000007"><a xlink:title=" ">
<path fill="none" stroke="#63b8ff" d="M65.34,-1187.71C68.35,-1059.95 91.72,-172.74 164,-82 166.92,-78.34 170.41,-75.22 174.25,-72.58"/>
<polygon fill="#63b8ff" stroke="#63b8ff" points="176.2,-75.5 183.17,-67.52 172.74,-69.41 176.2,-75.5"/>
</a>
</g>
</g>
<!-- Node11 -->
<g id="Node000011" class="node">
<title>Node11</title>
<g id="a_Node000011"><a xlink:href="classCinfo.html#a7642d2a9ffe54cc8008df39de171ab63" target="_top" xlink:title=" ">
<polygon fill="white" stroke="#666666" points="649,-1397.5 559,-1397.5 559,-1378.5 649,-1378.5 649,-1397.5"/>
<text text-anchor="middle" x="604" y="-1385.5" font-family="Ubuntu Mono" font-size="10.00">Cinfo::findFinfo</text>
</a>
</g>
</g>
<!-- Node1&#45;&gt;Node11 -->
<g id="edge10_Node000001_Node000011" class="edge">
<title>Node1&#45;&gt;Node11</title>
<g id="a_edge10_Node000001_Node000011"><a xlink:title=" ">
<path fill="none" stroke="#63b8ff" d="M73.3,-1218.05C102.73,-1269.64 208.01,-1439.46 350,-1500 417.05,-1528.59 448.36,-1531.68 514,-1500 554.08,-1480.65 581.66,-1433.51 594.6,-1406.96"/>
<polygon fill="#63b8ff" stroke="#63b8ff" points="597.92,-1408.14 598.97,-1397.6 591.57,-1405.18 597.92,-1408.14"/>
</a>
</g>
</g>
<!-- Node12 -->
<g id="Node000012" class="node">
<title>Node12</title>
<g id="a_Node000012"><a xlink:href="classElement.html#a1a2068a4e70da0f951bc3e73b758ef4a" target="_top" xlink:title=" ">
<polygon fill="white" stroke="#666666" points="658,-180.5 550,-180.5 550,-161.5 658,-161.5 658,-180.5"/>
<text text-anchor="middle" x="604" y="-168.5" font-family="Ubuntu Mono" font-size="10.00">Element::getName</text>
</a>
</g>
</g>
<!-- Node1&#45;&gt;Node12 -->
<g id="edge11_Node000001_Node000012" class="edge">
<title>Node1&#45;&gt;Node12</title>
<g id="a_edge11_Node000001_Node000012"><a xlink:title=" ">
<path fill="none" stroke="#63b8ff" d="M64.8,-1187.69C63.61,-1079.27 60.88,-426.96 164,-265 215.83,-183.6 257.03,-178.83 350,-153 421.4,-133.16 508.25,-147.18 559.39,-159.12"/>
<polygon fill="#63b8ff" stroke="#63b8ff" points="558.59,-162.53 569.13,-161.47 560.23,-155.72 558.59,-162.53"/>
</a>
</g>
</g>
<!-- Node13 -->
<g id="Node000013" class="node">
<title>Node13</title>
<g id="a_Node000013"><a xlink:href="classNeutral.html#a70fe1de93fce8611988faacd5cc96dd3" target="_top" xlink:title=" ">
<polygon fill="#fff0f0" stroke="red" points="289,-879.5 189,-879.5 189,-860.5 289,-860.5 289,-879.5"/>
<text text-anchor="middle" x="239" y="-867.5" font-family="Ubuntu Mono" font-size="10.00">Neutral::initCinfo</text>
</a>
</g>
</g>
<!-- Node1&#45;&gt;Node13 -->
<g id="edge12_Node000001_Node000013" class="edge">
<title>Node1&#45;&gt;Node13</title>
<g id="a_edge12_Node000001_Node000013"><a xlink:title=" ">
<path fill="none" stroke="#63b8ff" d="M72.88,-1187.83C101.13,-1133.46 197.22,-948.49 228.25,-888.76"/>
<polygon fill="#63b8ff" stroke="#63b8ff" points="231.46,-890.19 232.96,-879.7 225.24,-886.96 231.46,-890.19"/>
</a>
</g>
</g>
<!-- Node19 -->
<g id="Node000019" class="node">
<title>Node19</title>
<g id="a_Node000019"><a xlink:href="classFinfo.html#a61d1ed4e356444e2c94611a419b3440a" target="_top" xlink:title=" ">
<polygon fill="white" stroke="#666666" points="641,-423.5 567,-423.5 567,-404.5 641,-404.5 641,-423.5"/>
<text text-anchor="middle" x="604" y="-411.5" font-family="Ubuntu Mono" font-size="10.00">Finfo::name</text>
</a>
</g>
</g>
<!-- Node1&#45;&gt;Node19 -->
<g id="edge58_Node000001_Node000019" class="edge">
<title>Node1&#45;&gt;Node19</title>
<g id="a_edge58_Node000001_Node000019"><a xlink:title=" ">
<path fill="none" stroke="#63b8ff" d="M66.99,-1187.65C82.17,-1073.1 183.64,-352.95 350,-229 408.45,-185.45 452.29,-190.21 514,-229 573.17,-266.2 593.92,-354.96 600.38,-394.47"/>
<polygon fill="#63b8ff" stroke="#63b8ff" points="596.93,-395.05 601.87,-404.42 603.85,-394.01 596.93,-395.05"/>
</a>
</g>
</g>
<!-- Node92 -->
<g id="Node000092" class="node">
<title>Node92</title>
<g id="a_Node000092"><a xlink:href="classMsg.html#a269143731802782ca4b74511228543bf" target="_top" xlink:title=" ">
<polygon fill="white" stroke="#666666" points="635,-143.5 573,-143.5 573,-124.5 635,-124.5 635,-143.5"/>
<text text-anchor="middle" x="604" y="-131.5" font-family="Ubuntu Mono" font-size="10.00">Msg::mid</text>
</a>
</g>
</g>
<!-- Node1&#45;&gt;Node92 -->
<g id="edge57_Node000001_Node000092" class="edge">
<title>Node1&#45;&gt;Node92</title>
<g id="a_edge57_Node000001_Node000092"><a xlink:title=" ">
<path fill="none" stroke="#63b8ff" d="M65.3,-1187.88C67.91,-1065.31 88.27,-236.68 164,-160 271.34,-51.31 479.05,-96.63 564.67,-121.62"/>
<polygon fill="#63b8ff" stroke="#63b8ff" points="563.67,-124.97 574.26,-124.48 565.68,-118.27 563.67,-124.97"/>
</a>
</g>
</g>
<!-- Node154 -->
<g id="Node000154" class="node">
<title>Node154</title>
<g id="a_Node000154"><a xlink:href="classId.html#a83690e0c3ab7632a2d61d91a4161cad8" target="_top" xlink:title=" ">
<polygon fill="#fff0f0" stroke="red" points="270,-1641.5 208,-1641.5 208,-1622.5 270,-1622.5 270,-1641.5"/>
<text text-anchor="middle" x="239" y="-1629.5" font-family="Ubuntu Mono" font-size="10.00">Id::nextId</text>
</a>
</g>
</g>
<!-- Node1&#45;&gt;Node154 -->
<g id="edge59_Node000001_Node000154" class="edge">
<title>Node1&#45;&gt;Node154</title>
<g id="a_edge59_Node000001_Node000154"><a xlink:title=" ">
<path fill="none" stroke="#63b8ff" d="M66.58,-1218.38C73.83,-1285.99 106.07,-1555.94 164,-1614 172.9,-1622.92 185.43,-1627.69 197.66,-1630.17"/>
<polygon fill="#63b8ff" stroke="#63b8ff" points="197.34,-1633.67 207.77,-1631.75 198.43,-1626.75 197.34,-1633.67"/>
</a>
</g>
</g>
<!-- Node155 -->
<g id="Node000155" class="node">
<title>Node155</title>
<g id="a_Node000155"><a xlink:href="classOneToOneDataIndexMsg.html#a74db500cd919bba0d5c128469d4d4480" target="_top" xlink:title=" ">
<polygon fill="#fff0f0" stroke="red" points="310.5,-30 167.5,-30 167.5,0 310.5,0 310.5,-30"/>
<text text-anchor="start" x="175.5" y="-18" font-family="Ubuntu Mono" font-size="10.00">OneToOneDataIndexMsg</text>
<text text-anchor="middle" x="239" y="-7" font-family="Ubuntu Mono" font-size="10.00">::OneToOneDataIndexMsg</text>
</a>
</g>
</g>
<!-- Node1&#45;&gt;Node155 -->
<g id="edge61_Node000001_Node000155" class="edge">
<title>Node1&#45;&gt;Node155</title>
<g id="a_edge61_Node000001_Node000155"><a xlink:title=" ">
<path fill="none" stroke="#63b8ff" d="M65.29,-1187.95C67.88,-1058.36 88.97,-133.51 164,-39 164.59,-38.26 165.2,-37.54 165.83,-36.85"/>
<polygon fill="#63b8ff" stroke="#63b8ff" points="168.18,-39.44 173.35,-30.19 163.54,-34.2 168.18,-39.44"/>
</a>
</g>
</g>
<!-- Node4 -->
<g id="Node000004" class="node">
<title>Node4</title>
<g id="a_Node000004"><a xlink:href="classId.html#a2d5e7b4d5d918aadfe45102691c2be27" target="_top" xlink:title=" ">
<polygon fill="white" stroke="#666666" points="470.5,-1642.5 393.5,-1642.5 393.5,-1623.5 470.5,-1623.5 470.5,-1642.5"/>
<text text-anchor="middle" x="432" y="-1630.5" font-family="Ubuntu Mono" font-size="10.00">Id::elements</text>
</a>
</g>
</g>
<!-- Node3&#45;&gt;Node4 -->
<g id="edge3_Node000003_Node000004" class="edge">
<title>Node3&#45;&gt;Node4</title>
<g id="a_edge3_Node000003_Node000004"><a xlink:title=" ">
<path fill="none" stroke="#63b8ff" d="M275.03,-1662.4C305.39,-1656.68 349.58,-1648.35 383.19,-1642.01"/>
<polygon fill="#63b8ff" stroke="#63b8ff" points="384.07,-1645.41 393.25,-1640.12 382.77,-1638.53 384.07,-1645.41"/>
</a>
</g>
</g>
<!-- Node5&#45;&gt;Node4 -->
<g id="edge5_Node000005_Node000004" class="edge">
<title>Node5&#45;&gt;Node4</title>
<g id="a_edge5_Node000005_Node000004"><a xlink:title=" ">
<path fill="none" stroke="#63b8ff" d="M264.58,-1599.89C294.42,-1605.83 345.42,-1615.97 383.12,-1623.47"/>
<polygon fill="#63b8ff" stroke="#63b8ff" points="382.88,-1626.99 393.37,-1625.51 384.24,-1620.13 382.88,-1626.99"/>
</a>
</g>
</g>
<!-- Node5&#45;&gt;Node6 -->
<g id="edge6_Node000005_Node000006" class="edge">
<title>Node5&#45;&gt;Node6</title>
<g id="a_edge6_Node000005_Node000006"><a xlink:title=" ">
<path fill="none" stroke="#63b8ff" d="M264.62,-1593.41C312.67,-1590.19 422.28,-1582.22 514,-1571 530.15,-1569.03 547.86,-1566.34 563.21,-1563.86"/>
<polygon fill="#63b8ff" stroke="#63b8ff" points="564.11,-1567.26 573.4,-1562.18 562.97,-1560.35 564.11,-1567.26"/>
</a>
</g>
</g>
<!-- Node8 -->
<g id="Node000008" class="node">
<title>Node8</title>
<g id="a_Node000008"><a xlink:href="classElement.html#afb56f1407c9b66cda3248246dfe3d91d" target="_top" xlink:title=" ">
<polygon fill="#fff0f0" stroke="red" points="484,-67.5 380,-67.5 380,-48.5 484,-48.5 484,-67.5"/>
<text text-anchor="middle" x="432" y="-55.5" font-family="Ubuntu Mono" font-size="10.00">Element::Element</text>
</a>
</g>
</g>
<!-- Node7&#45;&gt;Node8 -->
<g id="edge9_Node000007_Node000008" class="edge">
<title>Node7&#45;&gt;Node8</title>
<g id="a_edge9_Node000007_Node000008"><a xlink:title=" ">
<path fill="none" stroke="#63b8ff" d="M314.12,-58C332.53,-58 352.05,-58 369.76,-58"/>
<polygon fill="#63b8ff" stroke="#63b8ff" points="369.96,-61.5 379.96,-58 369.96,-54.5 369.96,-61.5"/>
</a>
</g>
</g>
<!-- Node14 -->
<g id="Node000014" class="node">
<title>Node14</title>
<g id="a_Node000014"><a xlink:href="classNeutral.html#a9914118f1eab1c69e28d0e814e5b5824" target="_top" xlink:title=" ">
<polygon fill="white" stroke="#666666" points="506.5,-861.5 357.5,-861.5 357.5,-842.5 506.5,-842.5 506.5,-861.5"/>
<text text-anchor="middle" x="432" y="-849.5" font-family="Ubuntu Mono" font-size="10.00">Neutral::blockNodeBalance</text>
</a>
</g>
</g>
<!-- Node13&#45;&gt;Node14 -->
<g id="edge13_Node000013_Node000014" class="edge">
<title>Node13&#45;&gt;Node14</title>
<g id="a_edge13_Node000013_Node000014"><a xlink:title=" ">
<path fill="none" stroke="#63b8ff" d="M289.19,-865.36C306.96,-863.69 327.57,-861.75 347.46,-859.87"/>
<polygon fill="#63b8ff" stroke="#63b8ff" points="347.84,-863.35 357.47,-858.93 347.19,-856.38 347.84,-863.35"/>
</a>
</g>
</g>
<!-- Node15 -->
<g id="Node000015" class="node">
<title>Node15</title>
<g id="a_Node000015"><a xlink:href="classCinfo.html#ac9f6af2943b20ce3b02c1adc84504cd2" target="_top" xlink:title=" ">
<polygon fill="#fff0f0" stroke="red" points="469,-824.5 395,-824.5 395,-805.5 469,-805.5 469,-824.5"/>
<text text-anchor="middle" x="432" y="-812.5" font-family="Ubuntu Mono" font-size="10.00">Cinfo::Cinfo</text>
</a>
</g>
</g>
<!-- Node13&#45;&gt;Node15 -->
<g id="edge14_Node000013_Node000015" class="edge">
<title>Node13&#45;&gt;Node15</title>
<g id="a_edge14_Node000013_Node000015"><a xlink:title=" ">
<path fill="none" stroke="#63b8ff" d="M266.93,-860.47C289.07,-852.81 321.37,-842.03 350,-834 361.29,-830.83 373.57,-827.76 385.08,-825.05"/>
<polygon fill="#63b8ff" stroke="#63b8ff" points="385.99,-828.43 394.94,-822.76 384.41,-821.61 385.99,-828.43"/>
</a>
</g>
</g>
<!-- Node21 -->
<g id="Node000021" class="node">
<title>Node21</title>
<g id="a_Node000021"><a xlink:href="classDestFinfo.html#a200c3d77c0c62f54de9cb3fb0ff30d25" target="_top" xlink:title=" ">
<polygon fill="#fff0f0" stroke="red" points="490,-787.5 374,-787.5 374,-768.5 490,-768.5 490,-787.5"/>
<text text-anchor="middle" x="432" y="-775.5" font-family="Ubuntu Mono" font-size="10.00">DestFinfo::DestFinfo</text>
</a>
</g>
</g>
<!-- Node13&#45;&gt;Node21 -->
<g id="edge15_Node000013_Node000021" class="edge">
<title>Node13&#45;&gt;Node21</title>
<g id="a_edge15_Node000013_Node000021"><a xlink:title=" ">
<path fill="none" stroke="#63b8ff" d="M251.4,-860.41C270.53,-844.79 310.87,-813.92 350,-797 355.74,-794.52 361.86,-792.33 368.06,-790.41"/>
<polygon fill="#63b8ff" stroke="#63b8ff" points="369.19,-793.73 377.84,-787.61 367.26,-787 369.19,-793.73"/>
</a>
</g>
</g>
<!-- Node23 -->
<g id="Node000023" class="node">
<title>Node23</title>
<g id="a_Node000023"><a xlink:href="classNeutral.html#aa2c79f5c59b166602381680987c84165" target="_top" xlink:title=" ">
<polygon fill="#fff0f0" stroke="red" points="479.5,-1490.5 384.5,-1490.5 384.5,-1471.5 479.5,-1471.5 479.5,-1490.5"/>
<text text-anchor="middle" x="432" y="-1478.5" font-family="Ubuntu Mono" font-size="10.00">Neutral::destroy</text>
</a>
</g>
</g>
<!-- Node13&#45;&gt;Node23 -->
<g id="edge16_Node000013_Node000023" class="edge">
<title>Node13&#45;&gt;Node23</title>
<g id="a_edge16_Node000013_Node000023"><a xlink:title=" ">
<path fill="none" stroke="#63b8ff" d="M240.37,-879.53C243.29,-948.78 264.55,-1374.48 350,-1463 356.68,-1469.92 365.39,-1474.46 374.62,-1477.38"/>
<polygon fill="#63b8ff" stroke="#63b8ff" points="373.8,-1480.78 384.35,-1479.88 375.53,-1474 373.8,-1480.78"/>
</a>
</g>
</g>
<!-- Node49 -->
<g id="Node000049" class="node">
<title>Node49</title>
<g id="a_Node000049"><a xlink:href="classElementValueFinfo.html#a920b84a2ae5d17c07322009467413ca1" target="_top" xlink:title=" ">
<polygon fill="white" stroke="#666666" points="489,-750 375,-750 375,-720 489,-720 489,-750"/>
<text text-anchor="start" x="383" y="-738" font-family="Ubuntu Mono" font-size="10.00">ElementValueFinfo::</text>
<text text-anchor="middle" x="432" y="-727" font-family="Ubuntu Mono" font-size="10.00">ElementValueFinfo</text>
</a>
</g>
</g>
<!-- Node13&#45;&gt;Node49 -->
<g id="edge18_Node000013_Node000049" class="edge">
<title>Node13&#45;&gt;Node49</title>
<g id="a_edge18_Node000013_Node000049"><a xlink:title=" ">
<path fill="none" stroke="#63b8ff" d="M247.09,-860.19C263.03,-838.82 303.97,-787.74 350,-760 354.81,-757.1 359.98,-754.52 365.3,-752.21"/>
<polygon fill="#63b8ff" stroke="#63b8ff" points="366.99,-755.3 374.99,-748.35 364.4,-748.8 366.99,-755.3"/>
</a>
</g>
</g>
<!-- Node50 -->
<g id="Node000050" class="node">
<title>Node50</title>
<g id="a_Node000050"><a xlink:href="classEpFunc0.html#a65a165d2b5236827e20b5f84536e3ecb" target="_top" xlink:title=" ">
<polygon fill="white" stroke="#666666" points="484,-701.5 380,-701.5 380,-682.5 484,-682.5 484,-701.5"/>
<text text-anchor="middle" x="432" y="-689.5" font-family="Ubuntu Mono" font-size="10.00">EpFunc0::EpFunc0</text>
</a>
</g>
</g>
<!-- Node13&#45;&gt;Node50 -->
<g id="edge19_Node000013_Node000050" class="edge">
<title>Node13&#45;&gt;Node50</title>
<g id="a_edge19_Node000013_Node000050"><a xlink:title=" ">
<path fill="none" stroke="#63b8ff" d="M243.74,-860.29C255.04,-832.25 291.74,-750.68 350,-711 356.07,-706.86 362.93,-703.62 370.02,-701.08"/>
<polygon fill="#63b8ff" stroke="#63b8ff" points="371.28,-704.35 379.79,-698.03 369.2,-697.67 371.28,-704.35"/>
</a>
</g>
</g>
<!-- Node51 -->
<g id="Node000051" class="node">
<title>Node51</title>
<g id="a_Node000051"><a xlink:href="classEpFunc1.html#aa6a9cc9446afac48f3e2f51a116766c0" target="_top" xlink:title=" ">
<polygon fill="white" stroke="#666666" points="484,-664.5 380,-664.5 380,-645.5 484,-645.5 484,-664.5"/>
<text text-anchor="middle" x="432" y="-652.5" font-family="Ubuntu Mono" font-size="10.00">EpFunc1::EpFunc1</text>
</a>
</g>
</g>
<!-- Node13&#45;&gt;Node51 -->
<g id="edge20_Node000013_Node000051" class="edge">
<title>Node13&#45;&gt;Node51</title>
<g id="a_edge20_Node000013_Node000051"><a xlink:title=" ">
<path fill="none" stroke="#63b8ff" d="M242.4,-860.41C250.94,-828.4 282.95,-724.43 350,-674 355.95,-669.52 362.79,-666.08 369.92,-663.43"/>
<polygon fill="#63b8ff" stroke="#63b8ff" points="371.3,-666.67 379.77,-660.3 369.18,-660 371.3,-666.67"/>
</a>
</g>
</g>
<!-- Node52 -->
<g id="Node000052" class="node">
<title>Node52</title>
<g id="a_Node000052"><a xlink:href="classEpFunc2.html#a449f38ac36c9f1fdc9cc7a244841bbee" target="_top" xlink:title=" ">
<polygon fill="white" stroke="#666666" points="484,-627.5 380,-627.5 380,-608.5 484,-608.5 484,-627.5"/>
<text text-anchor="middle" x="432" y="-615.5" font-family="Ubuntu Mono" font-size="10.00">EpFunc2::EpFunc2</text>
</a>
</g>
</g>
<!-- Node13&#45;&gt;Node52 -->
<g id="edge21_Node000013_Node000052" class="edge">
<title>Node13&#45;&gt;Node52</title>
<g id="a_edge21_Node000013_Node000052"><a xlink:title=" ">
<path fill="none" stroke="#63b8ff" d="M241.54,-860.18C247.72,-824.17 274.18,-698.32 350,-637 355.87,-632.25 362.72,-628.65 369.9,-625.93"/>
<polygon fill="#63b8ff" stroke="#63b8ff" points="371.39,-629.13 379.84,-622.73 369.25,-622.46 371.39,-629.13"/>
</a>
</g>
</g>
<!-- Node53 -->
<g id="Node000053" class="node">
<title>Node53</title>
<g id="a_Node000053"><a xlink:href="classEpFunc3.html#a17dc91b7c23ff8ed38f968e673375c25" target="_top" xlink:title=" ">
<polygon fill="white" stroke="#666666" points="484,-590.5 380,-590.5 380,-571.5 484,-571.5 484,-590.5"/>
<text text-anchor="middle" x="432" y="-578.5" font-family="Ubuntu Mono" font-size="10.00">EpFunc3::EpFunc3</text>
</a>
</g>
</g>
<!-- Node13&#45;&gt;Node53 -->
<g id="edge22_Node000013_Node000053" class="edge">
<title>Node13&#45;&gt;Node53</title>
<g id="a_edge22_Node000013_Node000053"><a xlink:title=" ">
<path fill="none" stroke="#63b8ff" d="M240.84,-860.31C244.77,-821.09 264.96,-672.67 350,-600 355.94,-594.92 363,-591.14 370.43,-588.33"/>
<polygon fill="#63b8ff" stroke="#63b8ff" points="371.52,-591.66 379.98,-585.28 369.39,-584.99 371.52,-591.66"/>
</a>
</g>
</g>
<!-- Node54 -->
<g id="Node000054" class="node">
<title>Node54</title>
<g id="a_Node000054"><a xlink:href="classNeutral.html#a2baaa0ca5d06deb02b5a20dd26eb2c6c" target="_top" xlink:title=" ">
<polygon fill="white" stroke="#666666" points="512,-553.5 352,-553.5 352,-534.5 512,-534.5 512,-553.5"/>
<text text-anchor="middle" x="432" y="-541.5" font-family="Ubuntu Mono" font-size="10.00">Neutral::generalNodeBalance</text>
</a>
</g>
</g>
<!-- Node13&#45;&gt;Node54 -->
<g id="edge23_Node000013_Node000054" class="edge">
<title>Node13&#45;&gt;Node54</title>
<g id="a_edge23_Node000013_Node000054"><a xlink:title=" ">
<path fill="none" stroke="#63b8ff" d="M240.3,-860.49C242.18,-818.39 255.59,-647.25 350,-563 351.75,-561.44 353.61,-560 355.55,-558.67"/>
<polygon fill="#63b8ff" stroke="#63b8ff" points="357.58,-561.54 364.52,-553.54 354.1,-555.46 357.58,-561.54"/>
</a>
</g>
</g>
<!-- Node26 -->
<g id="Node000026" class="node">
<title>Node26</title>
<g id="a_Node000026"><a xlink:href="classNeutral.html#adfa2d6bebf99a0edf034775aaa25c5e6" target="_top" xlink:title=" ">
<polygon fill="#fff0f0" stroke="red" points="489.5,-516.5 374.5,-516.5 374.5,-497.5 489.5,-497.5 489.5,-516.5"/>
<text text-anchor="middle" x="432" y="-504.5" font-family="Ubuntu Mono" font-size="10.00">Neutral::getChildren</text>
</a>
</g>
</g>
<!-- Node13&#45;&gt;Node26 -->
<g id="edge24_Node000013_Node000026" class="edge">
<title>Node13&#45;&gt;Node26</title>
<g id="a_edge24_Node000013_Node000026"><a xlink:title=" ">
<path fill="none" stroke="#63b8ff" d="M239.89,-860.3C239.93,-814.92 246.38,-621.74 350,-526 354.35,-521.98 359.38,-518.76 364.77,-516.19"/>
<polygon fill="#63b8ff" stroke="#63b8ff" points="366.13,-519.41 374.11,-512.45 363.53,-512.92 366.13,-519.41"/>
</a>
</g>
</g>
<!-- Node55 -->
<g id="Node000055" class="node">
<title>Node55</title>
<g id="a_Node000055"><a xlink:href="classNeutral.html#a91602cb96e211f185ae85c02ffc081be" target="_top" xlink:title=" ">
<polygon fill="#fff0f0" stroke="red" points="482.5,-479.5 381.5,-479.5 381.5,-460.5 482.5,-460.5 482.5,-479.5"/>
<text text-anchor="middle" x="432" y="-467.5" font-family="Ubuntu Mono" font-size="10.00">Neutral::getClass</text>
</a>
</g>
</g>
<!-- Node13&#45;&gt;Node55 -->
<g id="edge25_Node000013_Node000055" class="edge">
<title>Node13&#45;&gt;Node55</title>
<g id="a_edge25_Node000013_Node000055"><a xlink:title=" ">
<path fill="none" stroke="#63b8ff" d="M239.54,-860.27C237.84,-812.01 236.98,-596.44 350,-489 356.03,-483.27 363.44,-479.16 371.32,-476.22"/>
<polygon fill="#63b8ff" stroke="#63b8ff" points="372.57,-479.5 381.08,-473.2 370.5,-472.81 372.57,-479.5"/>
</a>
</g>
</g>
<!-- Node57 -->
<g id="Node000057" class="node">
<title>Node57</title>
<g id="a_Node000057"><a xlink:href="classNeutral.html#abe6b34eb0f9783ec836d9096cafeff12" target="_top" xlink:title="Information function to return names of all DestFinfos.">
<polygon fill="#fff0f0" stroke="red" points="494.5,-935.5 369.5,-935.5 369.5,-916.5 494.5,-916.5 494.5,-935.5"/>
<text text-anchor="middle" x="432" y="-923.5" font-family="Ubuntu Mono" font-size="10.00">Neutral::getDestFields</text>
</a>
</g>
</g>
<!-- Node13&#45;&gt;Node57 -->
<g id="edge26_Node000013_Node000057" class="edge">
<title>Node13&#45;&gt;Node57</title>
<g id="a_edge26_Node000013_Node000057"><a xlink:title=" ">
<path fill="none" stroke="#63b8ff" d="M265.08,-879.58C287.21,-887.81 320.45,-899.64 350,-908 357.69,-910.17 365.84,-912.25 373.91,-914.17"/>
<polygon fill="#63b8ff" stroke="#63b8ff" points="373.13,-917.58 383.66,-916.43 374.71,-910.76 373.13,-917.58"/>
</a>
</g>
</g>
<!-- Node60 -->
<g id="Node000060" class="node">
<title>Node60</title>
<g id="a_Node000060"><a xlink:href="classNeutral.html#a3b8747ab78837f78ef8130807b8de0fa" target="_top" xlink:title="Returns dt associated with this object based on its clock tick.">
<polygon fill="#fff0f0" stroke="red" points="475,-368.5 389,-368.5 389,-349.5 475,-349.5 475,-368.5"/>
<text text-anchor="middle" x="432" y="-356.5" font-family="Ubuntu Mono" font-size="10.00">Neutral::getDt</text>
</a>
</g>
</g>
<!-- Node13&#45;&gt;Node60 -->
<g id="edge28_Node000013_Node000060" class="edge">
<title>Node13&#45;&gt;Node60</title>
<g id="a_edge28_Node000013_Node000060"><a xlink:title=" ">
<path fill="none" stroke="#63b8ff" d="M240.8,-860.15C246.13,-797.1 278.43,-450.32 350,-378 357.78,-370.14 368.15,-365.28 378.87,-362.33"/>
<polygon fill="#63b8ff" stroke="#63b8ff" points="379.74,-365.72 388.74,-360.13 378.22,-358.89 379.74,-365.72"/>
</a>
</g>
</g>
<!-- Node88 -->
<g id="Node000088" class="node">
<title>Node88</title>
<g id="a_Node000088"><a xlink:href="classNeutral.html#af9a9493d31ec12e2e7b002212f13979a" target="_top" xlink:title="fieldIndex specifies field entry if FieldElement. Otherwise zero">
<polygon fill="#fff0f0" stroke="red" points="494.5,-331.5 369.5,-331.5 369.5,-312.5 494.5,-312.5 494.5,-331.5"/>
<text text-anchor="middle" x="432" y="-319.5" font-family="Ubuntu Mono" font-size="10.00">Neutral::getFieldIndex</text>
</a>
</g>
</g>
<!-- Node13&#45;&gt;Node88 -->
<g id="edge29_Node000013_Node000088" class="edge">
<title>Node13&#45;&gt;Node88</title>
<g id="a_edge29_Node000013_Node000088"><a xlink:title=" ">
<path fill="none" stroke="#63b8ff" d="M240.61,-860.25C244.94,-794.66 272.97,-418.12 350,-340 353.07,-336.88 356.56,-334.25 360.31,-332.04"/>
<polygon fill="#63b8ff" stroke="#63b8ff" points="362.02,-335.1 369.49,-327.59 358.97,-328.8 362.02,-335.1"/>
</a>
</g>
</g>
<!-- Node89 -->
<g id="Node000089" class="node">
<title>Node89</title>
<g id="a_Node000089"><a xlink:href="classNeutral.html#ad99308d75d8fe040563d26e2abc09dbc" target="_top" xlink:title="Id is the Id of the object, converted to unsigned int.">
<polygon fill="#fff0f0" stroke="red" points="473.5,-294.5 390.5,-294.5 390.5,-275.5 473.5,-275.5 473.5,-294.5"/>
<text text-anchor="middle" x="432" y="-282.5" font-family="Ubuntu Mono" font-size="10.00">Neutral::getId</text>
</a>
</g>
</g>
<!-- Node13&#45;&gt;Node89 -->
<g id="edge30_Node000013_Node000089" class="edge">
<title>Node13&#45;&gt;Node89</title>
<g id="a_edge30_Node000013_Node000089"><a xlink:title=" ">
<path fill="none" stroke="#63b8ff" d="M240.46,-860.46C243.93,-792.91 268,-387.25 350,-303 358.08,-294.7 369.08,-289.83 380.37,-287.07"/>
<polygon fill="#63b8ff" stroke="#63b8ff" points="381.14,-290.48 390.29,-285.15 379.81,-283.61 381.14,-290.48"/>
</a>
</g>
</g>
<!-- Node91 -->
<g id="Node000091" class="node">
<title>Node91</title>
<g id="a_Node000091"><a xlink:href="classNeutral.html#ace36d1d6562095fc8f4c1015cfe7b78e" target="_top" xlink:title=" ">
<polygon fill="#fff0f0" stroke="red" points="504.5,-181.5 359.5,-181.5 359.5,-162.5 504.5,-162.5 504.5,-181.5"/>
<text text-anchor="middle" x="432" y="-169.5" font-family="Ubuntu Mono" font-size="10.00">Neutral::getIncomingMsgs</text>
</a>
</g>
</g>
<!-- Node13&#45;&gt;Node91 -->
<g id="edge31_Node000013_Node000091" class="edge">
<title>Node13&#45;&gt;Node91</title>
<g id="a_edge31_Node000013_Node000091"><a xlink:title=" ">
<path fill="none" stroke="#63b8ff" d="M240.64,-860.49C245.53,-789.45 278.95,-341.38 350,-229 361.78,-210.36 382.09,-196.09 399.42,-186.49"/>
<polygon fill="#63b8ff" stroke="#63b8ff" points="401.44,-189.38 408.67,-181.64 398.19,-183.18 401.44,-189.38"/>
</a>
</g>
</g>
<!-- Node94 -->
<g id="Node000094" class="node">
<title>Node94</title>
<g id="a_Node000094"><a xlink:href="classNeutral.html#a58a3e0eb03adeacdb408d83566c21f28" target="_top" xlink:title="Index is the dataIndex of the object.">
<polygon fill="#fff0f0" stroke="red" points="482.5,-1453.5 381.5,-1453.5 381.5,-1434.5 482.5,-1434.5 482.5,-1453.5"/>
<text text-anchor="middle" x="432" y="-1441.5" font-family="Ubuntu Mono" font-size="10.00">Neutral::getIndex</text>
</a>
</g>
</g>
<!-- Node13&#45;&gt;Node94 -->
<g id="edge33_Node000013_Node000094" class="edge">
<title>Node13&#45;&gt;Node94</title>
<g id="a_edge33_Node000013_Node000094"><a xlink:title=" ">
<path fill="none" stroke="#63b8ff" d="M240.52,-879.79C244.27,-947.3 269.55,-1343.65 350,-1426 356.01,-1432.15 363.61,-1436.41 371.74,-1439.33"/>
<polygon fill="#63b8ff" stroke="#63b8ff" points="370.89,-1442.72 381.47,-1442.17 372.85,-1436 370.89,-1442.72"/>
</a>
</g>
</g>
<!-- Node95 -->
<g id="Node000095" class="node">
<title>Node95</title>
<g id="a_Node000095"><a xlink:href="classNeutral.html#afd9ceac0b4ee764763bd900c9b430bc2" target="_top" xlink:title=" ">
<polygon fill="#fff0f0" stroke="red" points="514,-1379.5 350,-1379.5 350,-1360.5 514,-1360.5 514,-1379.5"/>
<text text-anchor="middle" x="432" y="-1367.5" font-family="Ubuntu Mono" font-size="10.00">Neutral::getMsgDestFunctions</text>
</a>
</g>
</g>
<!-- Node13&#45;&gt;Node95 -->
<g id="edge34_Node000013_Node000095" class="edge">
<title>Node13&#45;&gt;Node95</title>
<g id="a_edge34_Node000013_Node000095"><a xlink:title=" ">
<path fill="none" stroke="#63b8ff" d="M240.82,-879.66C246.28,-941.51 279.24,-1281.65 350,-1352 350.95,-1352.94 351.93,-1353.84 352.95,-1354.7"/>
<polygon fill="#63b8ff" stroke="#63b8ff" points="351.14,-1357.69 361.36,-1360.45 355.09,-1351.92 351.14,-1357.69"/>
</a>
</g>
</g>
<!-- Node99 -->
<g id="Node000099" class="node">
<title>Node99</title>
<g id="a_Node000099"><a xlink:href="classNeutral.html#a3ae4401b14809a2995f2bb2304250b52" target="_top" xlink:title=" ">
<polygon fill="#fff0f0" stroke="red" points="493,-1342.5 371,-1342.5 371,-1323.5 493,-1323.5 493,-1342.5"/>
<text text-anchor="middle" x="432" y="-1330.5" font-family="Ubuntu Mono" font-size="10.00">Neutral::getMsgDests</text>
</a>
</g>
</g>
<!-- Node13&#45;&gt;Node99 -->
<g id="edge36_Node000013_Node000099" class="edge">
<title>Node13&#45;&gt;Node99</title>
<g id="a_edge36_Node000013_Node000099"><a xlink:title=" ">
<path fill="none" stroke="#63b8ff" d="M241.02,-879.68C247.43,-938.78 284.1,-1250.64 350,-1315 353.49,-1318.41 357.47,-1321.23 361.75,-1323.56"/>
<polygon fill="#63b8ff" stroke="#63b8ff" points="360.35,-1326.76 370.91,-1327.68 363.23,-1320.38 360.35,-1326.76"/>
</a>
</g>
</g>
<!-- Node100 -->
<g id="Node000100" class="node">
<title>Node100</title>
<g id="a_Node000100"><a xlink:href="classNeutral.html#ae10b61740b9b9cf7b25cd1ca2d7cd7c2" target="_top" xlink:title=" ">
<polygon fill="#fff0f0" stroke="red" points="484,-257.5 380,-257.5 380,-238.5 484,-238.5 484,-257.5"/>
<text text-anchor="middle" x="432" y="-245.5" font-family="Ubuntu Mono" font-size="10.00">Neutral::getName</text>
</a>
</g>
</g>
<!-- Node13&#45;&gt;Node100 -->
<g id="edge38_Node000013_Node000100" class="edge">
<title>Node13&#45;&gt;Node100</title>
<g id="a_edge38_Node000013_Node000100"><a xlink:title=" ">
<path fill="none" stroke="#63b8ff" d="M240.35,-860.3C243.06,-789.78 263.17,-356.25 350,-266 355.55,-260.23 362.5,-256.12 369.99,-253.22"/>
<polygon fill="#63b8ff" stroke="#63b8ff" points="371.21,-256.5 379.7,-250.15 369.11,-249.83 371.21,-256.5"/>
</a>
</g>
</g>
<!-- Node101 -->
<g id="Node000101" class="node">
<title>Node101</title>
<g id="a_Node000101"><a xlink:href="classNeutral.html#a56224f109c11e5f632569a728c565a8e" target="_top" xlink:title=" ">
<polygon fill="#fff0f0" stroke="red" points="494,-1416.5 370,-1416.5 370,-1397.5 494,-1397.5 494,-1416.5"/>
<text text-anchor="middle" x="432" y="-1404.5" font-family="Ubuntu Mono" font-size="10.00">Neutral::getNeighbors</text>
</a>
</g>
</g>
<!-- Node13&#45;&gt;Node101 -->
<g id="edge40_Node000013_Node000101" class="edge">
<title>Node13&#45;&gt;Node101</title>
<g id="a_edge40_Node000013_Node000101"><a xlink:title=" ">
<path fill="none" stroke="#63b8ff" d="M240.65,-879.55C245.19,-943.79 274.34,-1312.59 350,-1389 353.22,-1392.25 356.89,-1394.98 360.85,-1397.25"/>
<polygon fill="#63b8ff" stroke="#63b8ff" points="359.38,-1400.43 369.92,-1401.55 362.38,-1394.1 359.38,-1400.43"/>
</a>
</g>
</g>
<!-- Node108 -->
<g id="Node000108" class="node">
<title>Node108</title>
<g id="a_Node000108"><a xlink:href="classNeutral.html#ae8da2420c20c485d9081ffeb376cd153" target="_top" xlink:title=" ">
<polygon fill="#fff0f0" stroke="red" points="492.5,-1305.5 371.5,-1305.5 371.5,-1286.5 492.5,-1286.5 492.5,-1305.5"/>
<text text-anchor="middle" x="432" y="-1293.5" font-family="Ubuntu Mono" font-size="10.00">Neutral::getNumData</text>
</a>
</g>
</g>
<!-- Node13&#45;&gt;Node108 -->
<g id="edge42_Node000013_Node000108" class="edge">
<title>Node13&#45;&gt;Node108</title>
<g id="a_edge42_Node000013_Node000108"><a xlink:title=" ">
<path fill="none" stroke="#63b8ff" d="M241.24,-879.6C248.65,-935.59 288.89,-1219.56 350,-1278 353.59,-1281.43 357.67,-1284.26 362.06,-1286.59"/>
<polygon fill="#63b8ff" stroke="#63b8ff" points="360.86,-1289.89 371.43,-1290.72 363.68,-1283.48 360.86,-1289.89"/>
</a>
</g>
</g>
<!-- Node109 -->
<g id="Node000109" class="node">
<title>Node109</title>
<g id="a_Node000109"><a xlink:href="classNeutral.html#a74a4bec828fb2ef92b88481d42715a61" target="_top" xlink:title=" ">
<polygon fill="#fff0f0" stroke="red" points="492.5,-1268.5 371.5,-1268.5 371.5,-1249.5 492.5,-1249.5 492.5,-1268.5"/>
<text text-anchor="middle" x="432" y="-1256.5" font-family="Ubuntu Mono" font-size="10.00">Neutral::getNumField</text>
</a>
</g>
</g>
<!-- Node13&#45;&gt;Node109 -->
<g id="edge43_Node000013_Node000109" class="edge">
<title>Node13&#45;&gt;Node109</title>
<g id="a_edge43_Node000013_Node000109"><a xlink:title=" ">
<path fill="none" stroke="#63b8ff" d="M239.61,-879.51C238.25,-926.66 238.73,-1137.21 350,-1241 353.57,-1244.33 357.6,-1247.09 361.93,-1249.37"/>
<polygon fill="#63b8ff" stroke="#63b8ff" points="360.58,-1252.61 371.14,-1253.43 363.4,-1246.2 360.58,-1252.61"/>
</a>
</g>
</g>
<!-- Node112 -->
<g id="Node000112" class="node">
<title>Node112</title>
<g id="a_Node000112"><a xlink:href="classNeutral.html#a9f7c3b86a68a1bdb323b5e1ac246bfde" target="_top" xlink:title=" ">
<polygon fill="#fff0f0" stroke="red" points="482,-1231.5 382,-1231.5 382,-1212.5 482,-1212.5 482,-1231.5"/>
<text text-anchor="middle" x="432" y="-1219.5" font-family="Ubuntu Mono" font-size="10.00">Neutral::getObjId</text>
</a>
</g>
</g>
<!-- Node13&#45;&gt;Node112 -->
<g id="edge44_Node000013_Node000112" class="edge">
<title>Node13&#45;&gt;Node112</title>
<g id="a_edge44_Node000013_Node000112"><a xlink:title=" ">
<path fill="none" stroke="#63b8ff" d="M239.97,-879.75C240.4,-924.5 248.39,-1112.02 350,-1204 356.29,-1209.7 363.98,-1213.73 372.09,-1216.55"/>
<polygon fill="#63b8ff" stroke="#63b8ff" points="371.17,-1219.93 381.75,-1219.34 373.11,-1213.2 371.17,-1219.93"/>
</a>
</g>
</g>
<!-- Node113 -->
<g id="Node000113" class="node">
<title>Node113</title>
<g id="a_Node000113"><a xlink:href="classNeutral.html#a9d687793edfff56f864bea03d8117880" target="_top" xlink:title=" ">
<polygon fill="#fff0f0" stroke="red" points="504,-1194.5 360,-1194.5 360,-1175.5 504,-1175.5 504,-1194.5"/>
<text text-anchor="middle" x="432" y="-1182.5" font-family="Ubuntu Mono" font-size="10.00">Neutral::getOutgoingMsgs</text>
</a>
</g>
</g>
<!-- Node13&#45;&gt;Node113 -->
<g id="edge45_Node000013_Node000113" class="edge">
<title>Node13&#45;&gt;Node113</title>
<g id="a_edge45_Node000013_Node000113"><a xlink:title=" ">
<path fill="none" stroke="#63b8ff" d="M240.41,-879.51C242.71,-920.85 257.6,-1086.39 350,-1167 351.19,-1168.04 352.42,-1169.02 353.69,-1169.94"/>
<polygon fill="#63b8ff" stroke="#63b8ff" points="352.25,-1173.16 362.62,-1175.33 355.87,-1167.17 352.25,-1173.16"/>
</a>
</g>
</g>
<!-- Node114 -->
<g id="Node000114" class="node">
<title>Node114</title>
<g id="a_Node000114"><a xlink:href="classNeutral.html#a98c8e80e8f6c9b09c5ec1970f9b61062" target="_top" xlink:title=" ">
<polygon fill="#fff0f0" stroke="red" points="484.5,-1157.5 379.5,-1157.5 379.5,-1138.5 484.5,-1138.5 484.5,-1157.5"/>
<text text-anchor="middle" x="432" y="-1145.5" font-family="Ubuntu Mono" font-size="10.00">Neutral::getParent</text>
</a>
</g>
</g>
<!-- Node13&#45;&gt;Node114 -->
<g id="edge46_Node000013_Node000114" class="edge">
<title>Node13&#45;&gt;Node114</title>
<g id="a_edge46_Node000013_Node000114"><a xlink:title=" ">
<path fill="none" stroke="#63b8ff" d="M240.97,-879.62C245.36,-917.92 266.97,-1060.82 350,-1130 355.71,-1134.75 362.4,-1138.32 369.45,-1140.99"/>
<polygon fill="#63b8ff" stroke="#63b8ff" points="368.64,-1144.41 379.23,-1144.1 370.76,-1137.74 368.64,-1144.41"/>
</a>
</g>
</g>
<!-- Node118 -->
<g id="Node000118" class="node">
<title>Node118</title>
<g id="a_Node000118"><a xlink:href="classNeutral.html#ae387a50962f43736e0b6bfa657501d9a" target="_top" xlink:title=" ">
<polygon fill="#fff0f0" stroke="red" points="479.5,-1120.5 384.5,-1120.5 384.5,-1101.5 479.5,-1101.5 479.5,-1120.5"/>
<text text-anchor="middle" x="432" y="-1108.5" font-family="Ubuntu Mono" font-size="10.00">Neutral::getPath</text>
</a>
</g>
</g>
<!-- Node13&#45;&gt;Node118 -->
<g id="edge47_Node000013_Node000118" class="edge">
<title>Node13&#45;&gt;Node118</title>
<g id="a_edge47_Node000013_Node000118"><a xlink:title=" ">
<path fill="none" stroke="#63b8ff" d="M241.75,-879.92C248.51,-915.14 276.32,-1035.15 350,-1093 357.08,-1098.56 365.53,-1102.48 374.26,-1105.22"/>
<polygon fill="#63b8ff" stroke="#63b8ff" points="373.61,-1108.67 384.17,-1107.85 375.4,-1101.91 373.61,-1108.67"/>
</a>
</g>
</g>
<!-- Node119 -->
<g id="Node000119" class="node">
<title>Node119</title>
<g id="a_Node000119"><a xlink:href="classNeutral.html#a1d88260108f963f874a96fb10c4f10b9" target="_top" xlink:title="Information function to return names of all SrcFinfos.">
<polygon fill="#fff0f0" stroke="red" points="500,-442.5 364,-442.5 364,-423.5 500,-423.5 500,-442.5"/>
<text text-anchor="middle" x="432" y="-430.5" font-family="Ubuntu Mono" font-size="10.00">Neutral::getSourceFields</text>
</a>
</g>
</g>
<!-- Node13&#45;&gt;Node119 -->
<g id="edge48_Node000013_Node000119" class="edge">
<title>Node13&#45;&gt;Node119</title>
<g id="a_edge48_Node000013_Node000119"><a xlink:title=" ">
<path fill="none" stroke="#63b8ff" d="M241.21,-860.18C248.48,-802.89 288.03,-512.32 350,-452 351.64,-450.4 353.39,-448.93 355.22,-447.58"/>
<polygon fill="#63b8ff" stroke="#63b8ff" points="357.07,-450.55 363.77,-442.34 353.41,-444.58 357.07,-450.55"/>
</a>
</g>
</g>
<!-- Node122 -->
<g id="Node000122" class="node">
<title>Node122</title>
<g id="a_Node000122"><a xlink:href="classNeutral.html#a3292a6b25797db522fb65fce7cd35527" target="_top" xlink:title=" ">
<polygon fill="white" stroke="#666666" points="479.5,-1083.5 384.5,-1083.5 384.5,-1064.5 479.5,-1064.5 479.5,-1083.5"/>
<text text-anchor="middle" x="432" y="-1071.5" font-family="Ubuntu Mono" font-size="10.00">Neutral::getThis</text>
</a>
</g>
</g>
<!-- Node13&#45;&gt;Node122 -->
<g id="edge50_Node000013_Node000122" class="edge">
<title>Node13&#45;&gt;Node122</title>
<g id="a_edge50_Node000013_Node000122"><a xlink:title=" ">
<path fill="none" stroke="#63b8ff" d="M242.66,-879.57C251.81,-910.55 285.02,-1008.85 350,-1056 357.2,-1061.22 365.64,-1064.98 374.3,-1067.66"/>
<polygon fill="#63b8ff" stroke="#63b8ff" points="373.56,-1071.09 384.13,-1070.26 375.35,-1064.32 373.56,-1071.09"/>
</a>
</g>
</g>
<!-- Node123 -->
<g id="Node000123" class="node">
<title>Node123</title>
<g id="a_Node000123"><a xlink:href="classNeutral.html#ab748a50fa2f6e6cd39f4ff8babf71e66" target="_top" xlink:title="Returns clock tick of this object.">
<polygon fill="#fff0f0" stroke="red" points="479.5,-1046.5 384.5,-1046.5 384.5,-1027.5 479.5,-1027.5 479.5,-1046.5"/>
<text text-anchor="middle" x="432" y="-1034.5" font-family="Ubuntu Mono" font-size="10.00">Neutral::getTick</text>
</a>
</g>
</g>
<!-- Node13&#45;&gt;Node123 -->
<g id="edge51_Node000013_Node000123" class="edge">
<title>Node13&#45;&gt;Node123</title>
<g id="a_edge51_Node000013_Node000123"><a xlink:title=" ">
<path fill="none" stroke="#63b8ff" d="M244.07,-879.52C256,-906.23 293.67,-982.35 350,-1019 357.37,-1023.79 365.83,-1027.33 374.44,-1029.92"/>
<polygon fill="#63b8ff" stroke="#63b8ff" points="373.62,-1033.33 384.18,-1032.48 375.39,-1026.56 373.62,-1033.33"/>
</a>
</g>
</g>
<!-- Node124 -->
<g id="Node000124" class="node">
<title>Node124</title>
<g id="a_Node000124"><a xlink:href="classNeutral.html#a388e87ca6500925fb4c927bfd170375f" target="_top" xlink:title="Information function to return names of all value Finfos.">
<polygon fill="#fff0f0" stroke="red" points="497,-405.5 367,-405.5 367,-386.5 497,-386.5 497,-405.5"/>
<text text-anchor="middle" x="432" y="-393.5" font-family="Ubuntu Mono" font-size="10.00">Neutral::getValueFields</text>
</a>
</g>
</g>
<!-- Node13&#45;&gt;Node124 -->
<g id="edge52_Node000013_Node000124" class="edge">
<title>Node13&#45;&gt;Node124</title>
<g id="a_edge52_Node000013_Node000124"><a xlink:title=" ">
<path fill="none" stroke="#63b8ff" d="M241,-860.12C247.27,-799.77 283.26,-481.29 350,-415 352.41,-412.61 355.06,-410.5 357.88,-408.63"/>
<polygon fill="#63b8ff" stroke="#63b8ff" points="359.72,-411.61 366.82,-403.75 356.37,-405.47 359.72,-411.61"/>
</a>
</g>
</g>
<!-- Node127 -->
<g id="Node000127" class="node">
<title>Node127</title>
<g id="a_Node000127"><a xlink:href="classNeutral.html#a6e8efad5b38207a8a86bb03fbb154f78" target="_top" xlink:title=" ">
<polygon fill="#fff0f0" stroke="red" points="469,-1009.5 395,-1009.5 395,-990.5 469,-990.5 469,-1009.5"/>
<text text-anchor="middle" x="432" y="-997.5" font-family="Ubuntu Mono" font-size="10.00">Neutral::isA</text>
</a>
</g>
</g>
<!-- Node13&#45;&gt;Node127 -->
<g id="edge54_Node000013_Node000127" class="edge">
<title>Node13&#45;&gt;Node127</title>
<g id="a_edge54_Node000013_Node000127"><a xlink:title=" ">
<path fill="none" stroke="#63b8ff" d="M246.42,-879.61C261.61,-901.54 302.1,-955.42 350,-982 360.52,-987.84 372.8,-991.78 384.57,-994.45"/>
<polygon fill="#63b8ff" stroke="#63b8ff" points="384.23,-997.95 394.73,-996.48 385.61,-991.09 384.23,-997.95"/>
</a>
</g>
</g>
<!-- Node128 -->
<g id="Node000128" class="node">
<title>Node128</title>
<g id="a_Node000128"><a xlink:href="classNeutral.html#a389c91ebc97ab74b573747af3b0645d0" target="_top" xlink:title=" ">
<polygon fill="white" stroke="#666666" points="506,-972.5 358,-972.5 358,-953.5 506,-953.5 506,-972.5"/>
<text text-anchor="middle" x="432" y="-960.5" font-family="Ubuntu Mono" font-size="10.00">Neutral::notifyAddMsgDest</text>
</a>
</g>
</g>
<!-- Node13&#45;&gt;Node128 -->
<g id="edge55_Node000013_Node000128" class="edge">
<title>Node13&#45;&gt;Node128</title>
<g id="a_edge55_Node000013_Node000128"><a xlink:title=" ">
<path fill="none" stroke="#63b8ff" d="M251.02,-879.67C269.92,-895.72 310.33,-927.83 350,-945 354.75,-947.06 359.77,-948.89 364.88,-950.53"/>
<polygon fill="#63b8ff" stroke="#63b8ff" points="364.2,-953.97 374.78,-953.43 366.17,-947.26 364.2,-953.97"/>
</a>
</g>
</g>
<!-- Node129 -->
<g id="Node000129" class="node">
<title>Node129</title>
<g id="a_Node000129"><a xlink:href="classNeutral.html#ae399081df18bbb882e23810409cce337" target="_top" xlink:title=" ">
<polygon fill="white" stroke="#666666" points="502,-898.5 362,-898.5 362,-879.5 502,-879.5 502,-898.5"/>
<text text-anchor="middle" x="432" y="-886.5" font-family="Ubuntu Mono" font-size="10.00">Neutral::notifyAddMsgSrc</text>
</a>
</g>
</g>
<!-- Node13&#45;&gt;Node129 -->
<g id="edge56_Node000013_Node000129" class="edge">
<title>Node13&#45;&gt;Node129</title>
<g id="a_edge56_Node000013_Node000129"><a xlink:title=" ">
<path fill="none" stroke="#63b8ff" d="M289.19,-874.89C308.27,-876.79 330.61,-879.01 351.84,-881.13"/>
<polygon fill="#63b8ff" stroke="#63b8ff" points="351.53,-884.61 361.83,-882.12 352.22,-877.65 351.53,-884.61"/>
</a>
</g>
</g>
<!-- Node23&#45;&gt;Node6 -->
<g id="edge17_Node000023_Node000006" class="edge">
<title>Node23&#45;&gt;Node6</title>
<g id="a_edge17_Node000023_Node000006"><a xlink:title=" ">
<path fill="none" stroke="#63b8ff" d="M454.53,-1490.63C484.29,-1503.93 538.18,-1528.02 572.19,-1543.23"/>
<polygon fill="#63b8ff" stroke="#63b8ff" points="571.09,-1546.57 581.64,-1547.45 573.94,-1540.18 571.09,-1546.57"/>
</a>
</g>
</g>
<!-- Node57&#45;&gt;Node19 -->
<g id="edge27_Node000057_Node000019" class="edge">
<title>Node57&#45;&gt;Node19</title>
<g id="a_edge27_Node000057_Node000019"><a xlink:title=" ">
<path fill="none" stroke="#63b8ff" d="M494.64,-920.54C501.89,-917.66 508.61,-913.61 514,-908 581.02,-838.22 598.74,-517.81 602.26,-434.07"/>
<polygon fill="#63b8ff" stroke="#63b8ff" points="605.76,-434.01 602.66,-423.88 598.77,-433.73 605.76,-434.01"/>
</a>
</g>
</g>
<!-- Node91&#45;&gt;Node92 -->
<g id="edge32_Node000091_Node000092" class="edge">
<title>Node91&#45;&gt;Node92</title>
<g id="a_edge32_Node000091_Node000092"><a xlink:title=" ">
<path fill="none" stroke="#63b8ff" d="M475.9,-162.41C502.64,-156.43 536.83,-148.79 563.01,-142.94"/>
<polygon fill="#63b8ff" stroke="#63b8ff" points="563.98,-146.31 572.97,-140.71 562.45,-139.48 563.98,-146.31"/>
</a>
</g>
</g>
<!-- Node95&#45;&gt;Node11 -->
<g id="edge35_Node000095_Node000011" class="edge">
<title>Node95&#45;&gt;Node11</title>
<g id="a_edge35_Node000095_Node000011"><a xlink:title=" ">
<path fill="none" stroke="#63b8ff" d="M514.02,-1378.58C525.68,-1379.81 537.45,-1381.06 548.43,-1382.22"/>
<polygon fill="#63b8ff" stroke="#63b8ff" points="548.38,-1385.74 558.7,-1383.31 549.12,-1378.78 548.38,-1385.74"/>
</a>
</g>
</g>
<!-- Node99&#45;&gt;Node11 -->
<g id="edge37_Node000099_Node000011" class="edge">
<title>Node99&#45;&gt;Node11</title>
<g id="a_edge37_Node000099_Node000011"><a xlink:title=" ">
<path fill="none" stroke="#63b8ff" d="M479.17,-1342.53C490.64,-1345.26 502.85,-1348.46 514,-1352 533.92,-1358.32 555.68,-1367.09 572.69,-1374.39"/>
<polygon fill="#63b8ff" stroke="#63b8ff" points="571.55,-1377.71 582.12,-1378.49 574.34,-1371.29 571.55,-1377.71"/>
</a>
</g>
</g>
<!-- Node100&#45;&gt;Node12 -->
<g id="edge39_Node000100_Node000012" class="edge">
<title>Node100&#45;&gt;Node12</title>
<g id="a_edge39_Node000100_Node000012"><a xlink:title=" ">
<path fill="none" stroke="#63b8ff" d="M454.19,-238.4C483.92,-224.94 538.19,-200.35 572.33,-184.89"/>
<polygon fill="#63b8ff" stroke="#63b8ff" points="574.15,-187.91 581.81,-180.6 571.26,-181.53 574.15,-187.91"/>
</a>
</g>
</g>
<!-- Node101&#45;&gt;Node11 -->
<g id="edge41_Node000101_Node000011" class="edge">
<title>Node101&#45;&gt;Node11</title>
<g id="a_edge41_Node000101_Node000011"><a xlink:title=" ">
<path fill="none" stroke="#63b8ff" d="M494.37,-1400.14C512.18,-1398.15 531.49,-1395.99 548.83,-1394.05"/>
<polygon fill="#63b8ff" stroke="#63b8ff" points="549.23,-1397.53 558.78,-1392.94 548.45,-1390.57 549.23,-1397.53"/>
</a>
</g>
</g>
<!-- Node119&#45;&gt;Node19 -->
<g id="edge49_Node000119_Node000019" class="edge">
<title>Node119&#45;&gt;Node19</title>
<g id="a_edge49_Node000119_Node000019"><a xlink:title=" ">
<path fill="none" stroke="#63b8ff" d="M500.19,-425.49C518.94,-423.39 538.91,-421.16 556.2,-419.23"/>
<polygon fill="#63b8ff" stroke="#63b8ff" points="557.05,-422.66 566.6,-418.07 556.27,-415.7 557.05,-422.66"/>
</a>
</g>
</g>
<!-- Node124&#45;&gt;Node19 -->
<g id="edge53_Node000124_Node000019" class="edge">
<title>Node124&#45;&gt;Node19</title>
<g id="a_edge53_Node000124_Node000019"><a xlink:title=" ">
<path fill="none" stroke="#63b8ff" d="M497.27,-402.81C517.01,-404.9 538.34,-407.15 556.64,-409.09"/>
<polygon fill="#63b8ff" stroke="#63b8ff" points="556.43,-412.59 566.74,-410.16 557.17,-405.63 556.43,-412.59"/>
</a>
</g>
</g>
<!-- Node154&#45;&gt;Node4 -->
<g id="edge60_Node000154_Node000004" class="edge">
<title>Node154&#45;&gt;Node4</title>
<g id="a_edge60_Node000154_Node000004"><a xlink:title=" ">
<path fill="none" stroke="#63b8ff" d="M270.26,-1632.16C300.61,-1632.32 347.8,-1632.56 383.21,-1632.75"/>
<polygon fill="#63b8ff" stroke="#63b8ff" points="383.31,-1636.25 393.32,-1632.8 383.34,-1629.25 383.31,-1636.25"/>
</a>
</g>
</g>
</g>
</svg>
