<?xml version="1.0" encoding="UTF-8" standalone="no"?>
<!DOCTYPE svg PUBLIC "-//W3C//DTD SVG 1.1//EN"
 "http://www.w3.org/Graphics/SVG/1.1/DTD/svg11.dtd">
<!-- Generated by graphviz version 2.43.0 (0)
 -->
<!-- Title: GlobalDataElement::GlobalDataElement Pages: 1 -->
<!--zoomable 286 -->

<svg id="main" version="1.1" xmlns="http://www.w3.org/2000/svg" xmlns:xlink="http://www.w3.org/1999/xlink" xml:space="preserve" onload="init(evt)">
<style type="text/css"><![CDATA[
.node, .edge {opacity: 0.7;}
.node.selected, .edge.selected {opacity: 1;}
.edge:hover path { stroke: red; }
.edge:hover polygon { stroke: red; fill: red; }
]]></style>

<defs>
  <circle id="rim" cx="0" cy="0" r="7"/>
  <circle id="rim2" cx="0" cy="0" r="3.5"/>
  <g id="zoomPlus">
    <use xlink:href="#rim" fill="#404040"><set attributeName="fill" to="#808080" begin="zoomplus.mouseover" end="zoomplus.mouseout"/></use>
    <path d="M-4,0h8M0,-4v8" fill="none" stroke="white" stroke-width="1.5" pointer-events="none"/>
  </g>
  <g id="zoomMin">
    <use xlink:href="#rim" fill="#404040"><set attributeName="fill" to="#808080" begin="zoomminus.mouseover" end="zoomminus.mouseout"/></use>
    <path d="M-4,0h8" fill="none" stroke="white" stroke-width="1.5" pointer-events="none"/>
  </g>
  <g id="arrowUp" transform="translate(30 24)">
    <use xlink:href="#rim"/>
    <path pointer-events="none" fill="none" stroke="white" stroke-width="1.5" d="M0,-3.0v7 M-2.5,-0.5L0,-3.0L2.5,-0.5"/>
  </g>
  <g id="arrowRight" transform="rotate(90) translate(36 -43)">
    <use xlink:href="#rim"/>
    <path pointer-events="none" fill="none" stroke="white" stroke-width="1.5" d="M0,-3.0v7 M-2.5,-0.5L0,-3.0L2.5,-0.5"/>
  </g>
  <g id="arrowDown" transform="rotate(180) translate(-30 -48)">
    <use xlink:href="#rim"/>
    <path pointer-events="none" fill="none" stroke="white" stroke-width="1.5" d="M0,-3.0v7 M-2.5,-0.5L0,-3.0L2.5,-0.5"/>
  </g>
  <g id="arrowLeft" transform="rotate(270) translate(-36 17)">
    <use xlink:href="#rim"/>
    <path pointer-events="none" fill="none" stroke="white" stroke-width="1.5" d="M0,-3.0v7 M-2.5,-0.5L0,-3.0L2.5,-0.5"/>
  </g>
  <g id="resetDef">
    <use xlink:href="#rim2" fill="#404040"><set attributeName="fill" to="#808080" begin="reset.mouseover" end="reset.mouseout"/></use>
  </g>
</defs>
<script type="application/ecmascript">
var viewWidth = 758;
var viewHeight = 286;
var sectionId = 'dynsection-4';
</script>
<script type="application/ecmascript" xlink:href="svg.min.js"/>
<svg id="graph" class="graph">
<g id="viewport">
<title>GlobalDataElement::GlobalDataElement</title>
<!-- Node1 -->
<g id="Node000001" class="node">
<title>Node1</title>
<g id="a_Node000001"><a xlink:title=" ">
<polygon fill="#999999" stroke="#666666" points="118,-153.5 0,-153.5 0,-123.5 118,-123.5 118,-153.5"/>
<text text-anchor="start" x="8" y="-141.5" font-family="Ubuntu Mono" font-size="10.00">GlobalDataElement::</text>
<text text-anchor="middle" x="59" y="-130.5" font-family="Ubuntu Mono" font-size="10.00">GlobalDataElement</text>
</a>
</g>
</g>
<!-- Node2 -->
<g id="Node000002" class="node">
<title>Node2</title>
<g id="a_Node000002"><a xlink:href="classDataElement.html#ae615b746f85bd758b0c3731bd67e574c" target="_top" xlink:title=" ">
<polygon fill="white" stroke="#666666" points="304,-148 154,-148 154,-129 304,-129 304,-148"/>
<text text-anchor="middle" x="229" y="-136" font-family="Ubuntu Mono" font-size="10.00">DataElement::DataElement</text>
</a>
</g>
</g>
<!-- Node1&#45;&gt;Node2 -->
<g id="edge1_Node000001_Node000002" class="edge">
<title>Node1&#45;&gt;Node2</title>
<g id="a_edge1_Node000001_Node000002"><a xlink:title=" ">
<path fill="none" stroke="#63b8ff" d="M118.29,-138.5C126.53,-138.5 135.14,-138.5 143.75,-138.5"/>
<polygon fill="#63b8ff" stroke="#63b8ff" points="143.84,-142 153.84,-138.5 143.84,-135 143.84,-142"/>
</a>
</g>
</g>
<!-- Node3 -->
<g id="Node000003" class="node">
<title>Node3</title>
<g id="a_Node000003"><a xlink:href="classElement.html#a33610036b72724ca3b7fedaf7e692841" target="_top" xlink:title=" ">
<polygon fill="white" stroke="#666666" points="454.5,-278 367.5,-278 367.5,-259 454.5,-259 454.5,-278"/>
<text text-anchor="middle" x="411" y="-266" font-family="Ubuntu Mono" font-size="10.00">Element::cinfo</text>
</a>
</g>
</g>
<!-- Node2&#45;&gt;Node3 -->
<g id="edge2_Node000002_Node000003" class="edge">
<title>Node2&#45;&gt;Node3</title>
<g id="a_edge2_Node000002_Node000003"><a xlink:title=" ">
<path fill="none" stroke="#63b8ff" d="M236.71,-148.32C252.2,-170.23 292.78,-223.27 340,-250.5 345.49,-253.67 351.54,-256.29 357.72,-258.45"/>
<polygon fill="#63b8ff" stroke="#63b8ff" points="356.88,-261.85 367.47,-261.48 358.96,-255.17 356.88,-261.85"/>
</a>
</g>
</g>
<!-- Node4 -->
<g id="Node000004" class="node">
<title>Node4</title>
<g id="a_Node000004"><a xlink:href="classDinfoBase.html#ade373fc88cf54e30c2006cd2dca8d683" target="_top" xlink:title=" ">
<polygon fill="white" stroke="#666666" points="470.5,-241 351.5,-241 351.5,-222 470.5,-222 470.5,-241"/>
<text text-anchor="middle" x="411" y="-229" font-family="Ubuntu Mono" font-size="10.00">DinfoBase::copyData</text>
</a>
</g>
</g>
<!-- Node2&#45;&gt;Node4 -->
<g id="edge3_Node000002_Node000004" class="edge">
<title>Node2&#45;&gt;Node4</title>
<g id="a_edge3_Node000002_Node000004"><a xlink:title=" ">
<path fill="none" stroke="#63b8ff" d="M241.08,-148.02C260.08,-163.87 300.62,-195.68 340,-213.5 344.34,-215.47 348.94,-217.25 353.62,-218.85"/>
<polygon fill="#63b8ff" stroke="#63b8ff" points="352.69,-222.23 363.28,-221.9 354.8,-215.55 352.69,-222.23"/>
</a>
</g>
</g>
<!-- Node5 -->
<g id="Node000005" class="node">
<title>Node5</title>
<g id="a_Node000005"><a xlink:href="classElement.html#a1978a0a584f1b10ea4a7c67e69880042" target="_top" xlink:title=" ">
<polygon fill="white" stroke="#666666" points="453.5,-204 368.5,-204 368.5,-185 453.5,-185 453.5,-204"/>
<text text-anchor="middle" x="411" y="-192" font-family="Ubuntu Mono" font-size="10.00">Element::data</text>
</a>
</g>
</g>
<!-- Node2&#45;&gt;Node5 -->
<g id="edge4_Node000002_Node000005" class="edge">
<title>Node2&#45;&gt;Node5</title>
<g id="a_edge4_Node000002_Node000005"><a xlink:title=" ">
<path fill="none" stroke="#63b8ff" d="M256.03,-148.16C278.2,-156.23 310.98,-167.77 340,-176.5 346.62,-178.49 353.63,-180.46 360.56,-182.32"/>
<polygon fill="#63b8ff" stroke="#63b8ff" points="360.04,-185.8 370.6,-184.96 361.82,-179.03 360.04,-185.8"/>
</a>
</g>
</g>
<!-- Node6 -->
<g id="Node000006" class="node">
<title>Node6</title>
<g id="a_Node000006"><a xlink:href="classCinfo.html#a197ed61c7def496cad9884eab93578a4" target="_top" xlink:title=" ">
<polygon fill="white" stroke="#666666" points="447.5,-167 374.5,-167 374.5,-148 447.5,-148 447.5,-167"/>
<text text-anchor="middle" x="411" y="-155" font-family="Ubuntu Mono" font-size="10.00">Cinfo::dinfo</text>
</a>
</g>
</g>
<!-- Node2&#45;&gt;Node6 -->
<g id="edge5_Node000002_Node000006" class="edge">
<title>Node2&#45;&gt;Node6</title>
<g id="a_edge5_Node000002_Node000006"><a xlink:title=" ">
<path fill="none" stroke="#63b8ff" d="M304.25,-146.34C324.59,-148.48 346.02,-150.75 364.24,-152.67"/>
<polygon fill="#63b8ff" stroke="#63b8ff" points="363.97,-156.16 374.29,-153.73 364.71,-149.2 363.97,-156.16"/>
</a>
</g>
</g>
<!-- Node7 -->
<g id="Node000007" class="node">
<title>Node7</title>
<g id="a_Node000007"><a xlink:href="classElement.html#afb56f1407c9b66cda3248246dfe3d91d" target="_top" xlink:title=" ">
<polygon fill="white" stroke="#666666" points="463,-130 359,-130 359,-111 463,-111 463,-130"/>
<text text-anchor="middle" x="411" y="-118" font-family="Ubuntu Mono" font-size="10.00">Element::Element</text>
</a>
</g>
</g>
<!-- Node2&#45;&gt;Node7 -->
<g id="edge6_Node000002_Node000007" class="edge">
<title>Node2&#45;&gt;Node7</title>
<g id="a_edge6_Node000002_Node000007"><a xlink:title=" ">
<path fill="none" stroke="#63b8ff" d="M304.25,-131.07C319.06,-129.59 334.45,-128.05 348.76,-126.62"/>
<polygon fill="#63b8ff" stroke="#63b8ff" points="349.36,-130.08 358.96,-125.6 348.67,-123.12 349.36,-130.08"/>
</a>
</g>
</g>
<!-- Node11 -->
<g id="Node000011" class="node">
<title>Node11</title>
<g id="a_Node000011"><a xlink:href="classElement.html#a1a2068a4e70da0f951bc3e73b758ef4a" target="_top" xlink:title=" ">
<polygon fill="white" stroke="#666666" points="465,-93 357,-93 357,-74 465,-74 465,-93"/>
<text text-anchor="middle" x="411" y="-81" font-family="Ubuntu Mono" font-size="10.00">Element::getName</text>
</a>
</g>
</g>
<!-- Node2&#45;&gt;Node11 -->
<g id="edge10_Node000002_Node000011" class="edge">
<title>Node2&#45;&gt;Node11</title>
<g id="a_edge10_Node000002_Node000011"><a xlink:title=" ">
<path fill="none" stroke="#63b8ff" d="M257.91,-128.93C280.07,-121.43 311.89,-110.91 340,-102.5 347.63,-100.22 355.77,-97.9 363.7,-95.71"/>
<polygon fill="#63b8ff" stroke="#63b8ff" points="364.85,-99.02 373.57,-93.01 363,-92.27 364.85,-99.02"/>
</a>
</g>
</g>
<!-- Node12 -->
<g id="Node000012" class="node">
<title>Node12</title>
<g id="a_Node000012"><a xlink:href="classElement.html#ae764f4baa2a88e55072eb0a5b15718c4" target="_top" xlink:title="Returns number of data entries across all nodes.">
<polygon fill="white" stroke="#666666" points="465,-56 357,-56 357,-37 465,-37 465,-56"/>
<text text-anchor="middle" x="411" y="-44" font-family="Ubuntu Mono" font-size="10.00">Element::numData</text>
</a>
</g>
</g>
<!-- Node2&#45;&gt;Node12 -->
<g id="edge11_Node000002_Node000012" class="edge">
<title>Node2&#45;&gt;Node12</title>
<g id="a_edge11_Node000002_Node000012"><a xlink:title=" ">
<path fill="none" stroke="#63b8ff" d="M241.42,-128.86C260.57,-113.15 300.94,-82.03 340,-64.5 344.42,-62.52 349.09,-60.72 353.85,-59.1"/>
<polygon fill="#63b8ff" stroke="#63b8ff" points="355.18,-62.36 363.67,-56.03 353.08,-55.68 355.18,-62.36"/>
</a>
</g>
</g>
<!-- Node13 -->
<g id="Node000013" class="node">
<title>Node13</title>
<g id="a_Node000013"><a xlink:href="classDinfoBase.html#ab53fff4b0b9ca9edb354817d5e8cb636" target="_top" xlink:title=" ">
<polygon fill="white" stroke="#666666" points="482,-19 340,-19 340,0 482,0 482,-19"/>
<text text-anchor="middle" x="411" y="-7" font-family="Ubuntu Mono" font-size="10.00">DinfoBase::sizeIncrement</text>
</a>
</g>
</g>
<!-- Node2&#45;&gt;Node13 -->
<g id="edge12_Node000002_Node000013" class="edge">
<title>Node2&#45;&gt;Node13</title>
<g id="a_edge12_Node000002_Node000013"><a xlink:title=" ">
<path fill="none" stroke="#63b8ff" d="M236.73,-128.77C252.27,-107.06 292.93,-54.5 340,-27.5 343.18,-25.68 346.55,-24.03 350.01,-22.56"/>
<polygon fill="#63b8ff" stroke="#63b8ff" points="351.26,-25.83 359.38,-19.01 348.78,-19.28 351.26,-25.83"/>
</a>
</g>
</g>
<!-- Node8 -->
<g id="Node000008" class="node">
<title>Node8</title>
<g id="a_Node000008"><a xlink:href="classId.html#aadc74d3e93f058d3d60631223551f822" target="_top" xlink:title=" ">
<polygon fill="white" stroke="#666666" points="634,-148 521,-148 521,-129 634,-129 634,-148"/>
<text text-anchor="middle" x="577.5" y="-136" font-family="Ubuntu Mono" font-size="10.00">Id::bindIdToElement</text>
</a>
</g>
</g>
<!-- Node7&#45;&gt;Node8 -->
<g id="edge7_Node000007_Node000008" class="edge">
<title>Node7&#45;&gt;Node8</title>
<g id="a_edge7_Node000007_Node000008"><a xlink:title=" ">
<path fill="none" stroke="#63b8ff" d="M463.15,-126.1C478.16,-127.74 494.79,-129.56 510.58,-131.29"/>
<polygon fill="#63b8ff" stroke="#63b8ff" points="510.49,-134.8 520.81,-132.41 511.25,-127.84 510.49,-134.8"/>
</a>
</g>
</g>
<!-- Node10 -->
<g id="Node000010" class="node">
<title>Node10</title>
<g id="a_Node000010"><a xlink:href="classCinfo.html#a2fc76e571de8791c7d2e4ca04c770ffb" target="_top" xlink:title=" ">
<polygon fill="white" stroke="#666666" points="637,-111 518,-111 518,-92 637,-92 637,-111"/>
<text text-anchor="middle" x="577.5" y="-99" font-family="Ubuntu Mono" font-size="10.00">Cinfo::numBindIndex</text>
</a>
</g>
</g>
<!-- Node7&#45;&gt;Node10 -->
<g id="edge9_Node000007_Node000010" class="edge">
<title>Node7&#45;&gt;Node10</title>
<g id="a_edge9_Node000007_Node000010"><a xlink:title=" ">
<path fill="none" stroke="#63b8ff" d="M463.15,-114.59C477.25,-112.96 492.78,-111.17 507.7,-109.45"/>
<polygon fill="#63b8ff" stroke="#63b8ff" points="508.38,-112.89 517.91,-108.27 507.57,-105.94 508.38,-112.89"/>
</a>
</g>
</g>
<!-- Node9 -->
<g id="Node000009" class="node">
<title>Node9</title>
<g id="a_Node000009"><a xlink:href="classId.html#a2d5e7b4d5d918aadfe45102691c2be27" target="_top" xlink:title=" ">
<polygon fill="white" stroke="#666666" points="750,-148 673,-148 673,-129 750,-129 750,-148"/>
<text text-anchor="middle" x="711.5" y="-136" font-family="Ubuntu Mono" font-size="10.00">Id::elements</text>
</a>
</g>
</g>
<!-- Node8&#45;&gt;Node9 -->
<g id="edge8_Node000008_Node000009" class="edge">
<title>Node8&#45;&gt;Node9</title>
<g id="a_edge8_Node000008_Node000009"><a xlink:title=" ">
<path fill="none" stroke="#63b8ff" d="M634.1,-138.5C643.62,-138.5 653.44,-138.5 662.73,-138.5"/>
<polygon fill="#63b8ff" stroke="#63b8ff" points="662.96,-142 672.96,-138.5 662.96,-135 662.96,-142"/>
</a>
</g>
</g>
</g>
</svg>

<g id="navigator" transform="translate(0 0)" fill="#404254">
  <rect fill="#f2f5e9" fill-opacity="0.5" stroke="#606060" stroke-width=".5" x="0" y="0" width="60" height="60"/>
  <use id="zoomplus" xlink:href="#zoomPlus" x="17" y="9" onmousedown="handleZoom(evt,'in')"/>
  <use id="zoomminus" xlink:href="#zoomMin" x="42" y="9" onmousedown="handleZoom(evt,'out')"/>
  <use id="reset" xlink:href="#resetDef" x="30" y="36" onmousedown="handleReset()"/>
   <use id="arrowup" xlink:href="#arrowUp" x="0" y="0" onmousedown="handlePan(0,-1)"/>
  <use id="arrowright" xlink:href="#arrowRight" x="0" y="0" onmousedown="handlePan(1,0)"/>
  <use id="arrowdown" xlink:href="#arrowDown" x="0" y="0" onmousedown="handlePan(0,1)"/>
  <use id="arrowleft" xlink:href="#arrowLeft" x="0" y="0" onmousedown="handlePan(-1,0)"/>
</g>
<svg viewBox="0 0 15 15" width="100%" height="30px" preserveAspectRatio="xMaxYMin meet">
 <g id="arrow_out" transform="scale(0.3 0.3)">
  <a xlink:href="classGlobalDataElement_a09bc23252f8b17c25c034b0947c80965_cgraph_org.svg" target="_base">
   <rect id="button" ry="5" rx="5" y="6" x="6" height="38" width="38"
        fill="#f2f5e9" fill-opacity="0.5" stroke="#606060" stroke-width="1.0"/>
   <path id="arrow"
     d="M 11.500037,31.436501 C 11.940474,20.09759 22.043105,11.32322 32.158766,21.979434 L 37.068811,17.246167 C 37.068811,17.246167 37.088388,32 37.088388,32 L 22.160133,31.978069 C 22.160133,31.978069 26.997745,27.140456 26.997745,27.140456 C 18.528582,18.264221 13.291696,25.230495 11.500037,31.436501 z"
     style="fill:#404040;"/>
  </a>
 </g>
</svg>

<style type='text/css'>
<![CDATA[
[data-mouse-over-selected='false'] { opacity: 0.7; }
[data-mouse-over-selected='true']  { opacity: 1.0; }
]]>
</style>
<script type="application/ecmascript"><![CDATA[
document.addEventListener('DOMContentLoaded', (event) => {
  highlightEdges();
  highlightAdjacentNodes();
});
]]></script>
</svg>
