<?xml version="1.0" encoding="UTF-8" standalone="no"?>
<!DOCTYPE svg PUBLIC "-//W3C//DTD SVG 1.1//EN"
 "http://www.w3.org/Graphics/SVG/1.1/DTD/svg11.dtd">
<!-- Generated by graphviz version 2.43.0 (0)
 -->
<!-- Title: HHGate Pages: 1 -->
<!--zoomable 1127 -->

<svg id="main" version="1.1" xmlns="http://www.w3.org/2000/svg" xmlns:xlink="http://www.w3.org/1999/xlink" xml:space="preserve" onload="init(evt)">
<style type="text/css"><![CDATA[
.node, .edge {opacity: 0.7;}
.node.selected, .edge.selected {opacity: 1;}
.edge:hover path { stroke: red; }
.edge:hover polygon { stroke: red; fill: red; }
]]></style>

<defs>
  <circle id="rim" cx="0" cy="0" r="7"/>
  <circle id="rim2" cx="0" cy="0" r="3.5"/>
  <g id="zoomPlus">
    <use xlink:href="#rim" fill="#404040"><set attributeName="fill" to="#808080" begin="zoomplus.mouseover" end="zoomplus.mouseout"/></use>
    <path d="M-4,0h8M0,-4v8" fill="none" stroke="white" stroke-width="1.5" pointer-events="none"/>
  </g>
  <g id="zoomMin">
    <use xlink:href="#rim" fill="#404040"><set attributeName="fill" to="#808080" begin="zoomminus.mouseover" end="zoomminus.mouseout"/></use>
    <path d="M-4,0h8" fill="none" stroke="white" stroke-width="1.5" pointer-events="none"/>
  </g>
  <g id="arrowUp" transform="translate(30 24)">
    <use xlink:href="#rim"/>
    <path pointer-events="none" fill="none" stroke="white" stroke-width="1.5" d="M0,-3.0v7 M-2.5,-0.5L0,-3.0L2.5,-0.5"/>
  </g>
  <g id="arrowRight" transform="rotate(90) translate(36 -43)">
    <use xlink:href="#rim"/>
    <path pointer-events="none" fill="none" stroke="white" stroke-width="1.5" d="M0,-3.0v7 M-2.5,-0.5L0,-3.0L2.5,-0.5"/>
  </g>
  <g id="arrowDown" transform="rotate(180) translate(-30 -48)">
    <use xlink:href="#rim"/>
    <path pointer-events="none" fill="none" stroke="white" stroke-width="1.5" d="M0,-3.0v7 M-2.5,-0.5L0,-3.0L2.5,-0.5"/>
  </g>
  <g id="arrowLeft" transform="rotate(270) translate(-36 17)">
    <use xlink:href="#rim"/>
    <path pointer-events="none" fill="none" stroke="white" stroke-width="1.5" d="M0,-3.0v7 M-2.5,-0.5L0,-3.0L2.5,-0.5"/>
  </g>
  <g id="resetDef">
    <use xlink:href="#rim2" fill="#404040"><set attributeName="fill" to="#808080" begin="reset.mouseover" end="reset.mouseout"/></use>
  </g>
</defs>
<script type="application/ecmascript">
var viewWidth = 369;
var viewHeight = 1127;
var sectionId = 'dynsection-1';
</script>
<script type="application/ecmascript" xlink:href="svg.min.js"/>
<svg id="graph" class="graph">
<g id="viewport">
<title>HHGate</title>
<!-- Node1 -->
<g id="Node000001" class="node">
<title>Node1</title>
<g id="a_Node000001"><a xlink:title=" ">
<polygon fill="#999999" stroke="transparent" points="234,-319 100,-319 100,0 234,0 234,-319"/>
<text text-anchor="start" x="147.5" y="-306.5" font-family="Ubuntu Mono" font-size="10.00">HHGate</text>
<text text-anchor="start" x="106.5" y="-291.5" font-family="Ubuntu Mono" font-size="10.00">&#45;</text>
<text text-anchor="start" x="117" y="-291.5" font-family="Ubuntu Mono" font-size="10.00">alphaExpr_</text>
<text text-anchor="start" x="106.5" y="-276.5" font-family="Ubuntu Mono" font-size="10.00">&#45;</text>
<text text-anchor="start" x="117" y="-276.5" font-family="Ubuntu Mono" font-size="10.00">betaExpr_</text>
<text text-anchor="start" x="106.5" y="-261.5" font-family="Ubuntu Mono" font-size="10.00">&#45;</text>
<text text-anchor="start" x="117" y="-261.5" font-family="Ubuntu Mono" font-size="10.00">form_</text>
<text text-anchor="start" x="106.5" y="-246.5" font-family="Ubuntu Mono" font-size="10.00">&#45;</text>
<text text-anchor="start" x="117" y="-246.5" font-family="Ubuntu Mono" font-size="10.00">invDx_</text>
<text text-anchor="start" x="106.5" y="-231.5" font-family="Ubuntu Mono" font-size="10.00">&#45;</text>
<text text-anchor="start" x="117" y="-231.5" font-family="Ubuntu Mono" font-size="10.00">isDirectTable_</text>
<text text-anchor="start" x="106.5" y="-216.5" font-family="Ubuntu Mono" font-size="10.00">&#45;</text>
<text text-anchor="start" x="117" y="-216.5" font-family="Ubuntu Mono" font-size="10.00">lookupByInterpolation_</text>
<text text-anchor="start" x="106.5" y="-201.5" font-family="Ubuntu Mono" font-size="10.00">&#45;</text>
<text text-anchor="start" x="117" y="-201.5" font-family="Ubuntu Mono" font-size="10.00">xmax_</text>
<text text-anchor="start" x="106.5" y="-186.5" font-family="Ubuntu Mono" font-size="10.00">&#45;</text>
<text text-anchor="start" x="117" y="-186.5" font-family="Ubuntu Mono" font-size="10.00">xmin_</text>
<text text-anchor="start" x="104" y="-171.5" font-family="Ubuntu Mono" font-size="10.00">+</text>
<text text-anchor="start" x="117" y="-171.5" font-family="Ubuntu Mono" font-size="10.00">computeTable()</text>
<text text-anchor="start" x="104" y="-156.5" font-family="Ubuntu Mono" font-size="10.00">+</text>
<text text-anchor="start" x="117" y="-156.5" font-family="Ubuntu Mono" font-size="10.00">fillFromExpr()</text>
<text text-anchor="start" x="104" y="-141.5" font-family="Ubuntu Mono" font-size="10.00">+</text>
<text text-anchor="start" x="117" y="-141.5" font-family="Ubuntu Mono" font-size="10.00">getAlpha()</text>
<text text-anchor="start" x="104" y="-126.5" font-family="Ubuntu Mono" font-size="10.00">+</text>
<text text-anchor="start" x="117" y="-126.5" font-family="Ubuntu Mono" font-size="10.00">getAlphaExpr()</text>
<text text-anchor="start" x="104" y="-111.5" font-family="Ubuntu Mono" font-size="10.00">+</text>
<text text-anchor="start" x="117" y="-111.5" font-family="Ubuntu Mono" font-size="10.00">getAlphaParms()</text>
<text text-anchor="start" x="104" y="-96.5" font-family="Ubuntu Mono" font-size="10.00">+</text>
<text text-anchor="start" x="117" y="-96.5" font-family="Ubuntu Mono" font-size="10.00">getBeta()</text>
<text text-anchor="start" x="104" y="-81.5" font-family="Ubuntu Mono" font-size="10.00">+</text>
<text text-anchor="start" x="117" y="-81.5" font-family="Ubuntu Mono" font-size="10.00">getBetaExpr()</text>
<text text-anchor="start" x="104" y="-66.5" font-family="Ubuntu Mono" font-size="10.00">+</text>
<text text-anchor="start" x="117" y="-66.5" font-family="Ubuntu Mono" font-size="10.00">getDivs()</text>
<text text-anchor="start" x="104" y="-51.5" font-family="Ubuntu Mono" font-size="10.00">+</text>
<text text-anchor="start" x="117" y="-51.5" font-family="Ubuntu Mono" font-size="10.00">getForm()</text>
<text text-anchor="start" x="104" y="-36.5" font-family="Ubuntu Mono" font-size="10.00">+</text>
<text text-anchor="start" x="117" y="-36.5" font-family="Ubuntu Mono" font-size="10.00">getInfExpr()</text>
<text text-anchor="start" x="117" y="-21.5" font-family="Ubuntu Mono" font-size="10.00">and 39 more...</text>
<text text-anchor="start" x="104" y="-6.5" font-family="Ubuntu Mono" font-size="10.00">+</text>
<text text-anchor="start" x="117" y="-6.5" font-family="Ubuntu Mono" font-size="10.00">initCinfo()</text>
<polygon fill="#666666" stroke="#666666" points="100,-301.5 100,-301.5 234,-301.5 234,-301.5 100,-301.5"/>
<polygon fill="#666666" stroke="#666666" points="100,-181.5 100,-181.5 115,-181.5 115,-181.5 100,-181.5"/>
<polygon fill="#666666" stroke="#666666" points="115,-181.5 115,-181.5 234,-181.5 234,-181.5 115,-181.5"/>
<polygon fill="none" stroke="#666666" points="100,0 100,-319 234,-319 234,0 100,0"/>
</a>
</g>
</g>
<!-- Node2 -->
<g id="Node000002" class="node">
<title>Node2</title>
<g id="a_Node000002"><a xlink:href="classHHGateBase.html" target="_top" xlink:title=" ">
<polygon fill="white" stroke="transparent" points="224.5,-586 109.5,-586 109.5,-432 224.5,-432 224.5,-586"/>
<text text-anchor="start" x="136" y="-574" font-family="Ubuntu Mono" font-size="10.00">HHGateBase</text>
<text text-anchor="start" x="165.5" y="-559" font-family="Ubuntu Mono" font-size="10.00"> </text>
<text text-anchor="start" x="114" y="-544" font-family="Ubuntu Mono" font-size="10.00">+</text>
<text text-anchor="start" x="127" y="-544" font-family="Ubuntu Mono" font-size="10.00">checkOriginal()</text>
<text text-anchor="start" x="114" y="-529" font-family="Ubuntu Mono" font-size="10.00">+</text>
<text text-anchor="start" x="127" y="-529" font-family="Ubuntu Mono" font-size="10.00">HHGateBase()</text>
<text text-anchor="start" x="114" y="-514" font-family="Ubuntu Mono" font-size="10.00">+</text>
<text text-anchor="start" x="127" y="-514" font-family="Ubuntu Mono" font-size="10.00">HHGateBase()</text>
<text text-anchor="start" x="114" y="-499" font-family="Ubuntu Mono" font-size="10.00">+</text>
<text text-anchor="start" x="127" y="-499" font-family="Ubuntu Mono" font-size="10.00">isOriginalChannel()</text>
<text text-anchor="start" x="114" y="-484" font-family="Ubuntu Mono" font-size="10.00">+</text>
<text text-anchor="start" x="127" y="-484" font-family="Ubuntu Mono" font-size="10.00">isOriginalGate()</text>
<text text-anchor="start" x="114" y="-469" font-family="Ubuntu Mono" font-size="10.00">+</text>
<text text-anchor="start" x="127" y="-469" font-family="Ubuntu Mono" font-size="10.00">originalChannelId()</text>
<text text-anchor="start" x="114" y="-454" font-family="Ubuntu Mono" font-size="10.00">+</text>
<text text-anchor="start" x="127" y="-454" font-family="Ubuntu Mono" font-size="10.00">originalGateId()</text>
<text text-anchor="start" x="114" y="-439" font-family="Ubuntu Mono" font-size="10.00">+</text>
<text text-anchor="start" x="127" y="-439" font-family="Ubuntu Mono" font-size="10.00">initCinfo()</text>
<polygon fill="#666666" stroke="#666666" points="110,-569 110,-569 225,-569 225,-569 110,-569"/>
<polygon fill="#666666" stroke="#666666" points="110,-554 110,-554 225,-554 225,-554 110,-554"/>
<polygon fill="none" stroke="#666666" points="109.5,-432 109.5,-586 224.5,-586 224.5,-432 109.5,-432"/>
</a>
</g>
</g>
<!-- Node2&#45;&gt;Node1 -->
<g id="edge1_Node000001_Node000002" class="edge">
<title>Node2&#45;&gt;Node1</title>
<g id="a_edge1_Node000001_Node000002"><a xlink:title=" ">
<path fill="none" stroke="#63b8ff" d="M167,-421.43C167,-390.43 167,-354.43 167,-319.25"/>
<polygon fill="none" stroke="#63b8ff" points="163.5,-421.74 167,-431.74 170.5,-421.74 163.5,-421.74"/>
</a>
</g>
</g>
<!-- Node3 -->
<g id="Node000003" class="node">
<title>Node3</title>
<g id="a_Node000003"><a xlink:href="classId.html" target="_top" xlink:title=" ">
<polygon fill="white" stroke="transparent" points="112,-1023 0,-1023 0,-644 112,-644 112,-1023"/>
<text text-anchor="start" x="51" y="-1010.5" font-family="Ubuntu Mono" font-size="10.00">Id</text>
<text text-anchor="start" x="6.5" y="-995.5" font-family="Ubuntu Mono" font-size="10.00">&#45;</text>
<text text-anchor="start" x="17" y="-995.5" font-family="Ubuntu Mono" font-size="10.00">id_</text>
<text text-anchor="start" x="4" y="-980.5" font-family="Ubuntu Mono" font-size="10.00">+</text>
<text text-anchor="start" x="17" y="-980.5" font-family="Ubuntu Mono" font-size="10.00">bindIdToElement()</text>
<text text-anchor="start" x="4" y="-965.5" font-family="Ubuntu Mono" font-size="10.00">+</text>
<text text-anchor="start" x="17" y="-965.5" font-family="Ubuntu Mono" font-size="10.00">destroy()</text>
<text text-anchor="start" x="4" y="-950.5" font-family="Ubuntu Mono" font-size="10.00">+</text>
<text text-anchor="start" x="17" y="-950.5" font-family="Ubuntu Mono" font-size="10.00">element()</text>
<text text-anchor="start" x="4" y="-935.5" font-family="Ubuntu Mono" font-size="10.00">+</text>
<text text-anchor="start" x="17" y="-935.5" font-family="Ubuntu Mono" font-size="10.00">eref()</text>
<text text-anchor="start" x="4" y="-920.5" font-family="Ubuntu Mono" font-size="10.00">+</text>
<text text-anchor="start" x="17" y="-920.5" font-family="Ubuntu Mono" font-size="10.00">Id()</text>
<text text-anchor="start" x="4" y="-905.5" font-family="Ubuntu Mono" font-size="10.00">+</text>
<text text-anchor="start" x="17" y="-905.5" font-family="Ubuntu Mono" font-size="10.00">Id()</text>
<text text-anchor="start" x="4" y="-890.5" font-family="Ubuntu Mono" font-size="10.00">+</text>
<text text-anchor="start" x="17" y="-890.5" font-family="Ubuntu Mono" font-size="10.00">Id()</text>
<text text-anchor="start" x="4" y="-875.5" font-family="Ubuntu Mono" font-size="10.00">+</text>
<text text-anchor="start" x="17" y="-875.5" font-family="Ubuntu Mono" font-size="10.00">Id()</text>
<text text-anchor="start" x="4" y="-860.5" font-family="Ubuntu Mono" font-size="10.00">+</text>
<text text-anchor="start" x="17" y="-860.5" font-family="Ubuntu Mono" font-size="10.00">operator!=()</text>
<text text-anchor="start" x="4" y="-845.5" font-family="Ubuntu Mono" font-size="10.00">+</text>
<text text-anchor="start" x="17" y="-845.5" font-family="Ubuntu Mono" font-size="10.00">operator&lt;()</text>
<text text-anchor="start" x="4" y="-830.5" font-family="Ubuntu Mono" font-size="10.00">+</text>
<text text-anchor="start" x="17" y="-830.5" font-family="Ubuntu Mono" font-size="10.00">operator==()</text>
<text text-anchor="start" x="4" y="-815.5" font-family="Ubuntu Mono" font-size="10.00">+</text>
<text text-anchor="start" x="17" y="-815.5" font-family="Ubuntu Mono" font-size="10.00">path()</text>
<text text-anchor="start" x="4" y="-800.5" font-family="Ubuntu Mono" font-size="10.00">+</text>
<text text-anchor="start" x="17" y="-800.5" font-family="Ubuntu Mono" font-size="10.00">value()</text>
<text text-anchor="start" x="4" y="-785.5" font-family="Ubuntu Mono" font-size="10.00">+</text>
<text text-anchor="start" x="17" y="-785.5" font-family="Ubuntu Mono" font-size="10.00">zeroOut()</text>
<text text-anchor="start" x="4" y="-770.5" font-family="Ubuntu Mono" font-size="10.00">+</text>
<text text-anchor="start" x="17" y="-770.5" font-family="Ubuntu Mono" font-size="10.00">~Id()</text>
<text text-anchor="start" x="4" y="-755.5" font-family="Ubuntu Mono" font-size="10.00">+</text>
<text text-anchor="start" x="17" y="-755.5" font-family="Ubuntu Mono" font-size="10.00">clearAllElements()</text>
<text text-anchor="start" x="4" y="-740.5" font-family="Ubuntu Mono" font-size="10.00">+</text>
<text text-anchor="start" x="17" y="-740.5" font-family="Ubuntu Mono" font-size="10.00">id2str()</text>
<text text-anchor="start" x="4" y="-725.5" font-family="Ubuntu Mono" font-size="10.00">+</text>
<text text-anchor="start" x="17" y="-725.5" font-family="Ubuntu Mono" font-size="10.00">isValid()</text>
<text text-anchor="start" x="4" y="-710.5" font-family="Ubuntu Mono" font-size="10.00">+</text>
<text text-anchor="start" x="17" y="-710.5" font-family="Ubuntu Mono" font-size="10.00">isValid()</text>
<text text-anchor="start" x="4" y="-695.5" font-family="Ubuntu Mono" font-size="10.00">+</text>
<text text-anchor="start" x="17" y="-695.5" font-family="Ubuntu Mono" font-size="10.00">nextId()</text>
<text text-anchor="start" x="4" y="-680.5" font-family="Ubuntu Mono" font-size="10.00">+</text>
<text text-anchor="start" x="17" y="-680.5" font-family="Ubuntu Mono" font-size="10.00">numIds()</text>
<text text-anchor="start" x="4" y="-665.5" font-family="Ubuntu Mono" font-size="10.00">+</text>
<text text-anchor="start" x="17" y="-665.5" font-family="Ubuntu Mono" font-size="10.00">str2Id()</text>
<text text-anchor="start" x="6.5" y="-650.5" font-family="Ubuntu Mono" font-size="10.00">&#45;</text>
<text text-anchor="start" x="17" y="-650.5" font-family="Ubuntu Mono" font-size="10.00">elements()</text>
<polygon fill="#666666" stroke="#666666" points="0,-1005.5 0,-1005.5 112,-1005.5 112,-1005.5 0,-1005.5"/>
<polygon fill="#666666" stroke="#666666" points="0,-990.5 0,-990.5 15,-990.5 15,-990.5 0,-990.5"/>
<polygon fill="#666666" stroke="#666666" points="15,-990.5 15,-990.5 112,-990.5 112,-990.5 15,-990.5"/>
<polygon fill="none" stroke="#666666" points="0,-644 0,-1023 112,-1023 112,-644 0,-644"/>
</a>
</g>
</g>
<!-- Node3&#45;&gt;Node1 -->
<g id="edge6_Node000001_Node000003" class="edge">
<title>Node3&#45;&gt;Node1</title>
<g id="a_edge6_Node000001_Node000003"><a xlink:title=" ">
<path fill="none" stroke="#63b8ff" d="M10.91,-643.96C1.71,-576.32 -0.53,-499.99 17,-432 32.25,-372.85 63.44,-312.82 93.44,-264.29"/>
<polygon fill="none" stroke="#63b8ff" points="93.45,-264.28 93.25,-257.08 99.82,-254.12 100.02,-261.32 93.45,-264.28"/>
</a>
</g>
<text text-anchor="middle" x="58.5" y="-512" font-family="Ubuntu Mono" font-size="10.00" fill="grey"> &#45;originalChanId_</text>
<text text-anchor="middle" x="58.5" y="-501" font-family="Ubuntu Mono" font-size="10.00" fill="grey">&#45;originalGateId_</text>
</g>
<!-- Node3&#45;&gt;Node2 -->
<g id="edge2_Node000002_Node000003" class="edge">
<title>Node3&#45;&gt;Node2</title>
<g id="a_edge2_Node000002_Node000003"><a xlink:title=" ">
<path fill="none" stroke="#63b8ff" d="M112.15,-669.36C120.67,-644.61 129.16,-619.93 136.84,-597.63"/>
<polygon fill="none" stroke="#63b8ff" points="136.87,-597.55 135.04,-590.58 140.77,-586.2 142.6,-593.18 136.87,-597.55"/>
</a>
</g>
<text text-anchor="middle" x="179" y="-618" font-family="Ubuntu Mono" font-size="10.00" fill="grey"> #originalChanId_</text>
<text text-anchor="middle" x="179" y="-607" font-family="Ubuntu Mono" font-size="10.00" fill="grey">#originalGateId_</text>
</g>
<!-- Node4 -->
<g id="Node000004" class="node">
<title>Node4</title>
<g id="a_Node000004"><a xlink:title=" ">
<polygon fill="white" stroke="transparent" points="361,-533.5 243,-533.5 243,-484.5 361,-484.5 361,-533.5"/>
<text text-anchor="start" x="248" y="-521" font-family="Ubuntu Mono" font-size="10.00">std::vector&lt; double &gt;</text>
<text text-anchor="start" x="259.5" y="-506" font-family="Ubuntu Mono" font-size="10.00">+</text>
<text text-anchor="start" x="285" y="-506" font-family="Ubuntu Mono" font-size="10.00">elements</text>
<text text-anchor="start" x="300" y="-491" font-family="Ubuntu Mono" font-size="10.00"> </text>
<polygon fill="#666666" stroke="#666666" points="243,-516 243,-516 361,-516 361,-516 243,-516"/>
<polygon fill="#666666" stroke="#666666" points="243,-501 243,-501 283,-501 283,-501 243,-501"/>
<polygon fill="#666666" stroke="#666666" points="283,-501 283,-501 361,-501 361,-501 283,-501"/>
<polygon fill="none" stroke="#666666" points="243,-484.5 243,-533.5 361,-533.5 361,-484.5 243,-484.5"/>
</a>
</g>
</g>
<!-- Node4&#45;&gt;Node1 -->
<g id="edge3_Node000001_Node000004" class="edge">
<title>Node4&#45;&gt;Node1</title>
<g id="a_edge3_Node000001_Node000004"><a xlink:title=" ">
<path fill="none" stroke="#63b8ff" d="M292.83,-484.39C280.26,-452.03 256.55,-391.01 233.08,-330.59"/>
<polygon fill="none" stroke="#63b8ff" points="233.04,-330.5 227.14,-326.36 228.7,-319.32 234.6,-323.46 233.04,-330.5"/>
</a>
</g>
<text text-anchor="middle" x="287" y="-406" font-family="Ubuntu Mono" font-size="10.00" fill="grey"> &#45;A_</text>
<text text-anchor="middle" x="287" y="-395" font-family="Ubuntu Mono" font-size="10.00" fill="grey">&#45;B_</text>
<text text-anchor="middle" x="287" y="-384" font-family="Ubuntu Mono" font-size="10.00" fill="grey">&#45;alpha_</text>
<text text-anchor="middle" x="287" y="-373" font-family="Ubuntu Mono" font-size="10.00" fill="grey">&#45;beta_</text>
<text text-anchor="start" x="263" y="-362" font-family="Ubuntu Mono" font-size="10.00" fill="grey">&#45;mInfinity</text>
<text text-anchor="middle" x="287" y="-351" font-family="Ubuntu Mono" font-size="10.00" fill="grey">_</text>
<text text-anchor="middle" x="287" y="-340" font-family="Ubuntu Mono" font-size="10.00" fill="grey">&#45;tau_</text>
</g>
<!-- Node5 -->
<g id="Node000005" class="node">
<title>Node5</title>
<g id="a_Node000005"><a xlink:title=" ">
<polygon fill="white" stroke="transparent" points="347.5,-858 256.5,-858 256.5,-809 347.5,-809 347.5,-858"/>
<text text-anchor="start" x="262" y="-845.5" font-family="Ubuntu Mono" font-size="10.00">std::vector&lt; T &gt;</text>
<text text-anchor="start" x="300.5" y="-830.5" font-family="Ubuntu Mono" font-size="10.00"> </text>
<text text-anchor="start" x="300.5" y="-815.5" font-family="Ubuntu Mono" font-size="10.00"> </text>
<polygon fill="#666666" stroke="#666666" points="257,-840.5 257,-840.5 348,-840.5 348,-840.5 257,-840.5"/>
<polygon fill="#666666" stroke="#666666" points="257,-825.5 257,-825.5 348,-825.5 348,-825.5 257,-825.5"/>
<polygon fill="none" stroke="#666666" points="256.5,-809 256.5,-858 347.5,-858 347.5,-809 256.5,-809"/>
</a>
</g>
</g>
<!-- Node5&#45;&gt;Node4 -->
<g id="edge4_Node000004_Node000005" class="edge">
<title>Node5&#45;&gt;Node4</title>
<g id="a_edge4_Node000004_Node000005"><a xlink:title=" ">
<path fill="none" stroke="orange" d="M302,-798.58C302,-732.99 302,-590.28 302,-533.75"/>
<polygon fill="orange" stroke="orange" points="298.5,-798.79 302,-808.79 305.5,-798.79 298.5,-798.79"/>
</a>
</g>
<text text-anchor="middle" x="331.5" y="-612.5" font-family="Ubuntu Mono" font-size="10.00" fill="grey"> &lt; double &gt;</text>
</g>
<!-- Node6 -->
<g id="Node000006" class="node">
<title>Node6</title>
<g id="a_Node000006"><a xlink:title=" ">
<polygon fill="white" stroke="transparent" points="310.5,-1119 293.5,-1119 293.5,-1070 310.5,-1070 310.5,-1119"/>
<text text-anchor="start" x="299" y="-1106.5" font-family="Ubuntu Mono" font-size="10.00">T</text>
<text text-anchor="start" x="300.5" y="-1091.5" font-family="Ubuntu Mono" font-size="10.00"> </text>
<text text-anchor="start" x="300.5" y="-1076.5" font-family="Ubuntu Mono" font-size="10.00"> </text>
<polygon fill="#666666" stroke="#666666" points="294,-1101.5 294,-1101.5 311,-1101.5 311,-1101.5 294,-1101.5"/>
<polygon fill="#666666" stroke="#666666" points="294,-1086.5 294,-1086.5 311,-1086.5 311,-1086.5 294,-1086.5"/>
<polygon fill="none" stroke="#666666" points="293.5,-1070 293.5,-1119 310.5,-1119 310.5,-1070 293.5,-1070"/>
</a>
</g>
</g>
<!-- Node6&#45;&gt;Node5 -->
<g id="edge5_Node000005_Node000006" class="edge">
<title>Node6&#45;&gt;Node5</title>
<g id="a_edge5_Node000005_Node000006"><a xlink:title=" ">
<path fill="none" stroke="#63b8ff" d="M302,-1069.6C302,-1024.02 302,-924.43 302,-870.65"/>
<polygon fill="none" stroke="#63b8ff" points="302,-870.34 298,-864.34 302,-858.34 306,-864.34 302,-870.34"/>
</a>
</g>
<text text-anchor="middle" x="331" y="-1044" font-family="Ubuntu Mono" font-size="10.00" fill="grey"> +elements</text>
</g>
</g>
</svg>

<g id="navigator" transform="translate(0 0)" fill="#404254">
  <rect fill="#f2f5e9" fill-opacity="0.5" stroke="#606060" stroke-width=".5" x="0" y="0" width="60" height="60"/>
  <use id="zoomplus" xlink:href="#zoomPlus" x="17" y="9" onmousedown="handleZoom(evt,'in')"/>
  <use id="zoomminus" xlink:href="#zoomMin" x="42" y="9" onmousedown="handleZoom(evt,'out')"/>
  <use id="reset" xlink:href="#resetDef" x="30" y="36" onmousedown="handleReset()"/>
   <use id="arrowup" xlink:href="#arrowUp" x="0" y="0" onmousedown="handlePan(0,-1)"/>
  <use id="arrowright" xlink:href="#arrowRight" x="0" y="0" onmousedown="handlePan(1,0)"/>
  <use id="arrowdown" xlink:href="#arrowDown" x="0" y="0" onmousedown="handlePan(0,1)"/>
  <use id="arrowleft" xlink:href="#arrowLeft" x="0" y="0" onmousedown="handlePan(-1,0)"/>
</g>
<svg viewBox="0 0 15 15" width="100%" height="30px" preserveAspectRatio="xMaxYMin meet">
 <g id="arrow_out" transform="scale(0.3 0.3)">
  <a xlink:href="classHHGate__coll__graph_org.svg" target="_base">
   <rect id="button" ry="5" rx="5" y="6" x="6" height="38" width="38"
        fill="#f2f5e9" fill-opacity="0.5" stroke="#606060" stroke-width="1.0"/>
   <path id="arrow"
     d="M 11.500037,31.436501 C 11.940474,20.09759 22.043105,11.32322 32.158766,21.979434 L 37.068811,17.246167 C 37.068811,17.246167 37.088388,32 37.088388,32 L 22.160133,31.978069 C 22.160133,31.978069 26.997745,27.140456 26.997745,27.140456 C 18.528582,18.264221 13.291696,25.230495 11.500037,31.436501 z"
     style="fill:#404040;"/>
  </a>
 </g>
</svg>

<style type='text/css'>
<![CDATA[
[data-mouse-over-selected='false'] { opacity: 0.7; }
[data-mouse-over-selected='true']  { opacity: 1.0; }
]]>
</style>
<script type="application/ecmascript"><![CDATA[
document.addEventListener('DOMContentLoaded', (event) => {
  highlightEdges();
  highlightAdjacentNodes();
});
]]></script>
</svg>
