<?xml version="1.0" encoding="UTF-8" standalone="no"?>
<!DOCTYPE svg PUBLIC "-//W3C//DTD SVG 1.1//EN"
 "http://www.w3.org/Graphics/SVG/1.1/DTD/svg11.dtd">
<!-- Generated by graphviz version 2.43.0 (0)
 -->
<!-- Title: SrcFinfo2&lt; T1, T2 &gt; Pages: 1 -->
<svg width="122pt" height="662pt"
 viewBox="0.00 0.00 122.00 662.00" xmlns="http://www.w3.org/2000/svg" xmlns:xlink="http://www.w3.org/1999/xlink">
<g id="graph0" class="graph" transform="scale(1 1) rotate(0) translate(4 658)">
<title>SrcFinfo2&lt; T1, T2 &gt;</title>
<!-- Node1 -->
<g id="Node000001" class="node">
<title>Node1</title>
<g id="a_Node000001"><a xlink:title=" ">
<polygon fill="#999999" stroke="transparent" points="111,-124 3,-124 3,0 111,0 111,-124"/>
<text text-anchor="start" x="8" y="-112" font-family="Ubuntu Mono" font-size="10.00">SrcFinfo2&lt; T1, T2 &gt;</text>
<text text-anchor="start" x="55" y="-97" font-family="Ubuntu Mono" font-size="10.00"> </text>
<text text-anchor="start" x="13.5" y="-82" font-family="Ubuntu Mono" font-size="10.00">+</text>
<text text-anchor="start" x="33" y="-82" font-family="Ubuntu Mono" font-size="10.00">rttiType()</text>
<text text-anchor="start" x="13.5" y="-67" font-family="Ubuntu Mono" font-size="10.00">+</text>
<text text-anchor="start" x="33" y="-67" font-family="Ubuntu Mono" font-size="10.00">send()</text>
<text text-anchor="start" x="13.5" y="-52" font-family="Ubuntu Mono" font-size="10.00">+</text>
<text text-anchor="start" x="33" y="-52" font-family="Ubuntu Mono" font-size="10.00">sendBuffer()</text>
<text text-anchor="start" x="13.5" y="-37" font-family="Ubuntu Mono" font-size="10.00">+</text>
<text text-anchor="start" x="33" y="-37" font-family="Ubuntu Mono" font-size="10.00">sendTo()</text>
<text text-anchor="start" x="13.5" y="-22" font-family="Ubuntu Mono" font-size="10.00">+</text>
<text text-anchor="start" x="33" y="-22" font-family="Ubuntu Mono" font-size="10.00">SrcFinfo2()</text>
<text text-anchor="start" x="13.5" y="-7" font-family="Ubuntu Mono" font-size="10.00">+</text>
<text text-anchor="start" x="33" y="-7" font-family="Ubuntu Mono" font-size="10.00">~SrcFinfo2()</text>
<polygon fill="#666666" stroke="#666666" points="3,-107 3,-107 111,-107 111,-107 3,-107"/>
<polygon fill="#666666" stroke="#666666" points="3,-92 3,-92 111,-92 111,-92 3,-92"/>
<polygon fill="none" stroke="#666666" points="3,0 3,-124 111,-124 111,0 3,0"/>
</a>
</g>
</g>
<!-- Node2 -->
<g id="Node000002" class="node">
<title>Node2</title>
<g id="a_Node000002"><a xlink:href="classSrcFinfo.html" target="_top" xlink:title=" ">
<polygon fill="white" stroke="transparent" points="104,-359 10,-359 10,-160 104,-160 104,-359"/>
<text text-anchor="start" x="37" y="-346.5" font-family="Ubuntu Mono" font-size="10.00">SrcFinfo</text>
<text text-anchor="start" x="14" y="-331.5" font-family="Ubuntu Mono" font-size="10.00">+</text>
<text text-anchor="start" x="27" y="-331.5" font-family="Ubuntu Mono" font-size="10.00">BadBindIndex</text>
<text text-anchor="start" x="16.5" y="-316.5" font-family="Ubuntu Mono" font-size="10.00">&#45;</text>
<text text-anchor="start" x="27" y="-316.5" font-family="Ubuntu Mono" font-size="10.00">bindIndex_</text>
<text text-anchor="start" x="14" y="-301.5" font-family="Ubuntu Mono" font-size="10.00">+</text>
<text text-anchor="start" x="27" y="-301.5" font-family="Ubuntu Mono" font-size="10.00">addMsg()</text>
<text text-anchor="start" x="14" y="-286.5" font-family="Ubuntu Mono" font-size="10.00">+</text>
<text text-anchor="start" x="27" y="-286.5" font-family="Ubuntu Mono" font-size="10.00">checkTarget()</text>
<text text-anchor="start" x="14" y="-271.5" font-family="Ubuntu Mono" font-size="10.00">+</text>
<text text-anchor="start" x="27" y="-271.5" font-family="Ubuntu Mono" font-size="10.00">getBindIndex()</text>
<text text-anchor="start" x="14" y="-256.5" font-family="Ubuntu Mono" font-size="10.00">+</text>
<text text-anchor="start" x="27" y="-256.5" font-family="Ubuntu Mono" font-size="10.00">registerFinfo()</text>
<text text-anchor="start" x="14" y="-241.5" font-family="Ubuntu Mono" font-size="10.00">+</text>
<text text-anchor="start" x="27" y="-241.5" font-family="Ubuntu Mono" font-size="10.00">sendBuffer()</text>
<text text-anchor="start" x="14" y="-226.5" font-family="Ubuntu Mono" font-size="10.00">+</text>
<text text-anchor="start" x="27" y="-226.5" font-family="Ubuntu Mono" font-size="10.00">setBindIndex()</text>
<text text-anchor="start" x="14" y="-211.5" font-family="Ubuntu Mono" font-size="10.00">+</text>
<text text-anchor="start" x="27" y="-211.5" font-family="Ubuntu Mono" font-size="10.00">SrcFinfo()</text>
<text text-anchor="start" x="14" y="-196.5" font-family="Ubuntu Mono" font-size="10.00">+</text>
<text text-anchor="start" x="27" y="-196.5" font-family="Ubuntu Mono" font-size="10.00">strGet()</text>
<text text-anchor="start" x="14" y="-181.5" font-family="Ubuntu Mono" font-size="10.00">+</text>
<text text-anchor="start" x="27" y="-181.5" font-family="Ubuntu Mono" font-size="10.00">strSet()</text>
<text text-anchor="start" x="14" y="-166.5" font-family="Ubuntu Mono" font-size="10.00">+</text>
<text text-anchor="start" x="27" y="-166.5" font-family="Ubuntu Mono" font-size="10.00">~SrcFinfo()</text>
<polygon fill="#666666" stroke="#666666" points="10,-341.5 10,-341.5 104,-341.5 104,-341.5 10,-341.5"/>
<polygon fill="#666666" stroke="#666666" points="10,-311.5 10,-311.5 25,-311.5 25,-311.5 10,-311.5"/>
<polygon fill="#666666" stroke="#666666" points="25,-311.5 25,-311.5 104,-311.5 104,-311.5 25,-311.5"/>
<polygon fill="none" stroke="#666666" points="10,-160 10,-359 104,-359 104,-160 10,-160"/>
</a>
</g>
</g>
<!-- Node2&#45;&gt;Node1 -->
<g id="edge1_Node000001_Node000002" class="edge">
<title>Node2&#45;&gt;Node1</title>
<g id="a_edge1_Node000001_Node000002"><a xlink:title=" ">
<path fill="none" stroke="#63b8ff" d="M57,-149.66C57,-140.98 57,-132.42 57,-124.25"/>
<polygon fill="none" stroke="#63b8ff" points="53.5,-149.89 57,-159.89 60.5,-149.89 53.5,-149.89"/>
</a>
</g>
</g>
<!-- Node3 -->
<g id="Node000003" class="node">
<title>Node3</title>
<g id="a_Node000003"><a xlink:href="classFinfo.html" target="_top" xlink:title=" ">
<polygon fill="white" stroke="transparent" points="114,-654 0,-654 0,-395 114,-395 114,-654"/>
<text text-anchor="start" x="44.5" y="-641.5" font-family="Ubuntu Mono" font-size="10.00">Finfo</text>
<text text-anchor="start" x="6.5" y="-626.5" font-family="Ubuntu Mono" font-size="10.00">&#45;</text>
<text text-anchor="start" x="17" y="-626.5" font-family="Ubuntu Mono" font-size="10.00">doc_</text>
<text text-anchor="start" x="6.5" y="-611.5" font-family="Ubuntu Mono" font-size="10.00">&#45;</text>
<text text-anchor="start" x="17" y="-611.5" font-family="Ubuntu Mono" font-size="10.00">name_</text>
<text text-anchor="start" x="4" y="-596.5" font-family="Ubuntu Mono" font-size="10.00">+</text>
<text text-anchor="start" x="17" y="-596.5" font-family="Ubuntu Mono" font-size="10.00">addMsg()</text>
<text text-anchor="start" x="4" y="-581.5" font-family="Ubuntu Mono" font-size="10.00">+</text>
<text text-anchor="start" x="17" y="-581.5" font-family="Ubuntu Mono" font-size="10.00">checkTarget()</text>
<text text-anchor="start" x="4" y="-566.5" font-family="Ubuntu Mono" font-size="10.00">+</text>
<text text-anchor="start" x="17" y="-566.5" font-family="Ubuntu Mono" font-size="10.00">docs()</text>
<text text-anchor="start" x="4" y="-551.5" font-family="Ubuntu Mono" font-size="10.00">+</text>
<text text-anchor="start" x="17" y="-551.5" font-family="Ubuntu Mono" font-size="10.00">Finfo()</text>
<text text-anchor="start" x="4" y="-536.5" font-family="Ubuntu Mono" font-size="10.00">+</text>
<text text-anchor="start" x="17" y="-536.5" font-family="Ubuntu Mono" font-size="10.00">innerDest()</text>
<text text-anchor="start" x="4" y="-521.5" font-family="Ubuntu Mono" font-size="10.00">+</text>
<text text-anchor="start" x="17" y="-521.5" font-family="Ubuntu Mono" font-size="10.00">innerSrc()</text>
<text text-anchor="start" x="4" y="-506.5" font-family="Ubuntu Mono" font-size="10.00">+</text>
<text text-anchor="start" x="17" y="-506.5" font-family="Ubuntu Mono" font-size="10.00">name()</text>
<text text-anchor="start" x="4" y="-491.5" font-family="Ubuntu Mono" font-size="10.00">+</text>
<text text-anchor="start" x="17" y="-491.5" font-family="Ubuntu Mono" font-size="10.00">postCreationFunc()</text>
<text text-anchor="start" x="4" y="-476.5" font-family="Ubuntu Mono" font-size="10.00">+</text>
<text text-anchor="start" x="17" y="-476.5" font-family="Ubuntu Mono" font-size="10.00">registerFinfo()</text>
<text text-anchor="start" x="4" y="-461.5" font-family="Ubuntu Mono" font-size="10.00">+</text>
<text text-anchor="start" x="17" y="-461.5" font-family="Ubuntu Mono" font-size="10.00">rttiType()</text>
<text text-anchor="start" x="4" y="-446.5" font-family="Ubuntu Mono" font-size="10.00">+</text>
<text text-anchor="start" x="17" y="-446.5" font-family="Ubuntu Mono" font-size="10.00">strGet()</text>
<text text-anchor="start" x="4" y="-431.5" font-family="Ubuntu Mono" font-size="10.00">+</text>
<text text-anchor="start" x="17" y="-431.5" font-family="Ubuntu Mono" font-size="10.00">strSet()</text>
<text text-anchor="start" x="4" y="-416.5" font-family="Ubuntu Mono" font-size="10.00">+</text>
<text text-anchor="start" x="17" y="-416.5" font-family="Ubuntu Mono" font-size="10.00">~Finfo()</text>
<text text-anchor="start" x="4" y="-401.5" font-family="Ubuntu Mono" font-size="10.00">+</text>
<text text-anchor="start" x="17" y="-401.5" font-family="Ubuntu Mono" font-size="10.00">initCinfo()</text>
<polygon fill="#666666" stroke="#666666" points="0,-636.5 0,-636.5 114,-636.5 114,-636.5 0,-636.5"/>
<polygon fill="#666666" stroke="#666666" points="0,-606.5 0,-606.5 15,-606.5 15,-606.5 0,-606.5"/>
<polygon fill="#666666" stroke="#666666" points="15,-606.5 15,-606.5 114,-606.5 114,-606.5 15,-606.5"/>
<polygon fill="none" stroke="#666666" points="0,-395 0,-654 114,-654 114,-395 0,-395"/>
</a>
</g>
</g>
<!-- Node3&#45;&gt;Node2 -->
<g id="edge2_Node000002_Node000003" class="edge">
<title>Node3&#45;&gt;Node2</title>
<g id="a_edge2_Node000002_Node000003"><a xlink:title=" ">
<path fill="none" stroke="#63b8ff" d="M57,-384.6C57,-376 57,-367.45 57,-359.08"/>
<polygon fill="none" stroke="#63b8ff" points="53.5,-384.7 57,-394.7 60.5,-384.7 53.5,-384.7"/>
</a>
</g>
</g>
</g>
</svg>
