<?xml version="1.0" encoding="UTF-8" standalone="no"?>
<!DOCTYPE svg PUBLIC "-//W3C//DTD SVG 1.1//EN"
 "http://www.w3.org/Graphics/SVG/1.1/DTD/svg11.dtd">
<!-- Generated by graphviz version 2.43.0 (0)
 -->
<!-- Title: Stoich::convertIdToPoolIndex Pages: 1 -->
<!--zoomable 555 -->

<svg id="main" version="1.1" xmlns="http://www.w3.org/2000/svg" xmlns:xlink="http://www.w3.org/1999/xlink" xml:space="preserve" onload="init(evt)">
<style type="text/css"><![CDATA[
.node, .edge {opacity: 0.7;}
.node.selected, .edge.selected {opacity: 1;}
.edge:hover path { stroke: red; }
.edge:hover polygon { stroke: red; fill: red; }
]]></style>

<defs>
  <circle id="rim" cx="0" cy="0" r="7"/>
  <circle id="rim2" cx="0" cy="0" r="3.5"/>
  <g id="zoomPlus">
    <use xlink:href="#rim" fill="#404040"><set attributeName="fill" to="#808080" begin="zoomplus.mouseover" end="zoomplus.mouseout"/></use>
    <path d="M-4,0h8M0,-4v8" fill="none" stroke="white" stroke-width="1.5" pointer-events="none"/>
  </g>
  <g id="zoomMin">
    <use xlink:href="#rim" fill="#404040"><set attributeName="fill" to="#808080" begin="zoomminus.mouseover" end="zoomminus.mouseout"/></use>
    <path d="M-4,0h8" fill="none" stroke="white" stroke-width="1.5" pointer-events="none"/>
  </g>
  <g id="arrowUp" transform="translate(30 24)">
    <use xlink:href="#rim"/>
    <path pointer-events="none" fill="none" stroke="white" stroke-width="1.5" d="M0,-3.0v7 M-2.5,-0.5L0,-3.0L2.5,-0.5"/>
  </g>
  <g id="arrowRight" transform="rotate(90) translate(36 -43)">
    <use xlink:href="#rim"/>
    <path pointer-events="none" fill="none" stroke="white" stroke-width="1.5" d="M0,-3.0v7 M-2.5,-0.5L0,-3.0L2.5,-0.5"/>
  </g>
  <g id="arrowDown" transform="rotate(180) translate(-30 -48)">
    <use xlink:href="#rim"/>
    <path pointer-events="none" fill="none" stroke="white" stroke-width="1.5" d="M0,-3.0v7 M-2.5,-0.5L0,-3.0L2.5,-0.5"/>
  </g>
  <g id="arrowLeft" transform="rotate(270) translate(-36 17)">
    <use xlink:href="#rim"/>
    <path pointer-events="none" fill="none" stroke="white" stroke-width="1.5" d="M0,-3.0v7 M-2.5,-0.5L0,-3.0L2.5,-0.5"/>
  </g>
  <g id="resetDef">
    <use xlink:href="#rim2" fill="#404040"><set attributeName="fill" to="#808080" begin="reset.mouseover" end="reset.mouseout"/></use>
  </g>
</defs>
<script type="application/ecmascript">
var viewWidth = 1919;
var viewHeight = 555;
var sectionId = 'dynsection-12';
</script>
<script type="application/ecmascript" xlink:href="svg.min.js"/>
<svg id="graph" class="graph">
<g id="viewport">
<title>Stoich::convertIdToPoolIndex</title>
<!-- Node1 -->
<g id="Node000001" class="node">
<title>Node1</title>
<g id="a_Node000001"><a xlink:title=" ">
<polygon fill="#999999" stroke="#666666" points="1911,-169 1754,-169 1754,-150 1911,-150 1911,-169"/>
<text text-anchor="middle" x="1832.5" y="-157" font-family="Ubuntu Mono" font-size="10.00">Stoich::convertIdToPoolIndex</text>
</a>
</g>
</g>
<!-- Node2 -->
<g id="Node000002" class="node">
<title>Node2</title>
<g id="a_Node000002"><a xlink:href="classGsolve.html#a8615a2d5e031ac88b6584ad9d52edae2" target="_top" xlink:title="Return pool index, using Stoich ptr to do lookup.">
<polygon fill="white" stroke="#666666" points="1695,-473 1575,-473 1575,-454 1695,-454 1695,-473"/>
<text text-anchor="middle" x="1635" y="-461" font-family="Ubuntu Mono" font-size="10.00">Gsolve::getPoolIndex</text>
</a>
</g>
</g>
<!-- Node1&#45;&gt;Node2 -->
<g id="edge1_Node000001_Node000002" class="edge">
<title>Node1&#45;&gt;Node2</title>
<g id="a_edge1_Node000001_Node000002"><a xlink:title=" ">
<path fill="none" stroke="#63b8ff" d="M1819.79,-177.71C1782.89,-235.09 1669.84,-410.88 1642.16,-453.92"/>
<polygon fill="#63b8ff" stroke="#63b8ff" points="1822.75,-179.57 1825.22,-169.27 1816.86,-175.79 1822.75,-179.57"/>
</a>
</g>
</g>
<!-- Node7 -->
<g id="Node000007" class="node">
<title>Node7</title>
<g id="a_Node000007"><a xlink:href="classKsolve.html#a55e77828f061910da4f7cca4ba3a314b" target="_top" xlink:title="Return pool index, using Stoich ptr to do lookup.">
<polygon fill="white" stroke="#666666" points="1694.5,-325 1575.5,-325 1575.5,-306 1694.5,-306 1694.5,-325"/>
<text text-anchor="middle" x="1635" y="-313" font-family="Ubuntu Mono" font-size="10.00">Ksolve::getPoolIndex</text>
</a>
</g>
</g>
<!-- Node1&#45;&gt;Node7 -->
<g id="edge6_Node000001_Node000007" class="edge">
<title>Node1&#45;&gt;Node7</title>
<g id="a_edge6_Node000001_Node000007"><a xlink:title=" ">
<path fill="none" stroke="#63b8ff" d="M1817.31,-177.17C1797.16,-201.41 1758.24,-245.3 1718,-274.5 1699.97,-287.59 1677.13,-298.62 1660.14,-305.94"/>
<polygon fill="#63b8ff" stroke="#63b8ff" points="1820.21,-179.14 1823.84,-169.19 1814.8,-174.7 1820.21,-179.14"/>
</a>
</g>
</g>
<!-- Node12 -->
<g id="Node000012" class="node">
<title>Node12</title>
<g id="a_Node000012"><a xlink:href="classStoich.html#a2193691f5b33c944bfe09b7792b7ceef" target="_top" xlink:title=" ">
<polygon fill="white" stroke="#666666" points="1718,-169 1552,-169 1552,-150 1718,-150 1718,-169"/>
<text text-anchor="middle" x="1635" y="-157" font-family="Ubuntu Mono" font-size="10.00">Stoich::installAndUnschedFunc</text>
</a>
</g>
</g>
<!-- Node1&#45;&gt;Node12 -->
<g id="edge11_Node000001_Node000012" class="edge">
<title>Node1&#45;&gt;Node12</title>
<g id="a_edge11_Node000001_Node000012"><a xlink:title=" ">
<path fill="none" stroke="#63b8ff" d="M1743.7,-159.5C1735.24,-159.5 1726.68,-159.5 1718.27,-159.5"/>
<polygon fill="#63b8ff" stroke="#63b8ff" points="1743.95,-163 1753.95,-159.5 1743.95,-156 1743.95,-163"/>
</a>
</g>
</g>
<!-- Node19 -->
<g id="Node000019" class="node">
<title>Node19</title>
<g id="a_Node000019"><a xlink:href="classStoich.html#a6952c6a4bf12b226fb6ebffb71b44de5" target="_top" xlink:title=" ">
<polygon fill="white" stroke="#666666" points="1706.5,-265.5 1563.5,-265.5 1563.5,-235.5 1706.5,-235.5 1706.5,-265.5"/>
<text text-anchor="start" x="1571.5" y="-253.5" font-family="Ubuntu Mono" font-size="10.00">Stoich::installAndUnsched</text>
<text text-anchor="middle" x="1635" y="-242.5" font-family="Ubuntu Mono" font-size="10.00">FuncRate</text>
</a>
</g>
</g>
<!-- Node1&#45;&gt;Node19 -->
<g id="edge18_Node000001_Node000019" class="edge">
<title>Node1&#45;&gt;Node19</title>
<g id="a_edge18_Node000001_Node000019"><a xlink:title=" ">
<path fill="none" stroke="#63b8ff" d="M1809.38,-174.81C1787.12,-189.67 1751.4,-212.02 1718,-226.5 1710.38,-229.8 1702.17,-232.81 1693.99,-235.49"/>
<polygon fill="#63b8ff" stroke="#63b8ff" points="1811.44,-177.64 1817.77,-169.14 1807.52,-171.84 1811.44,-177.64"/>
</a>
</g>
</g>
<!-- Node20 -->
<g id="Node000020" class="node">
<title>Node20</title>
<g id="a_Node000020"><a xlink:href="classStoich.html#a6d85bca9ec449a768b8b5d22f51e8145" target="_top" xlink:title=" ">
<polygon fill="white" stroke="#666666" points="1706.5,-217.5 1563.5,-217.5 1563.5,-187.5 1706.5,-187.5 1706.5,-217.5"/>
<text text-anchor="start" x="1571.5" y="-205.5" font-family="Ubuntu Mono" font-size="10.00">Stoich::installAndUnsched</text>
<text text-anchor="middle" x="1635" y="-194.5" font-family="Ubuntu Mono" font-size="10.00">FuncReac</text>
</a>
</g>
</g>
<!-- Node1&#45;&gt;Node20 -->
<g id="edge20_Node000001_Node000020" class="edge">
<title>Node1&#45;&gt;Node20</title>
<g id="a_edge20_Node000001_Node000020"><a xlink:title=" ">
<path fill="none" stroke="#63b8ff" d="M1778.27,-171.21C1755.44,-176.23 1728.49,-182.16 1704.23,-187.49"/>
<polygon fill="#63b8ff" stroke="#63b8ff" points="1779.1,-174.61 1788.11,-169.04 1777.59,-167.77 1779.1,-174.61"/>
</a>
</g>
</g>
<!-- Node21 -->
<g id="Node000021" class="node">
<title>Node21</title>
<g id="a_Node000021"><a xlink:href="classStoich.html#aee8cafb68f97a6c9feae551b312334bc" target="_top" xlink:title=" ">
<polygon fill="white" stroke="#666666" points="1696,-132 1574,-132 1574,-113 1696,-113 1696,-132"/>
<text text-anchor="middle" x="1635" y="-120" font-family="Ubuntu Mono" font-size="10.00">Stoich::installEnzyme</text>
</a>
</g>
</g>
<!-- Node1&#45;&gt;Node21 -->
<g id="edge22_Node000001_Node000021" class="edge">
<title>Node1&#45;&gt;Node21</title>
<g id="a_edge22_Node000001_Node000021"><a xlink:title=" ">
<path fill="none" stroke="#63b8ff" d="M1771.01,-148.05C1743.91,-142.92 1712.32,-136.94 1686.51,-132.06"/>
<polygon fill="#63b8ff" stroke="#63b8ff" points="1770.68,-151.55 1781.15,-149.97 1771.98,-144.67 1770.68,-151.55"/>
</a>
</g>
</g>
<!-- Node25 -->
<g id="Node000025" class="node">
<title>Node25</title>
<g id="a_Node000025"><a xlink:href="classStoich.html#a3a48bf980e4a78ea15a42987f75c44f0" target="_top" xlink:title=" ">
<polygon fill="white" stroke="#666666" points="1496,-36 1378,-36 1378,-17 1496,-17 1496,-36"/>
<text text-anchor="middle" x="1437" y="-24" font-family="Ubuntu Mono" font-size="10.00">Stoich::installMMenz</text>
</a>
</g>
</g>
<!-- Node1&#45;&gt;Node25 -->
<g id="edge26_Node000001_Node000025" class="edge">
<title>Node1&#45;&gt;Node25</title>
<g id="a_edge26_Node000001_Node000025"><a xlink:title=" ">
<path fill="none" stroke="#63b8ff" d="M1816.44,-142.4C1796.34,-120.81 1758.53,-84.32 1718,-66.5 1646.08,-34.88 1554.68,-27.16 1496.25,-25.82"/>
<polygon fill="#63b8ff" stroke="#63b8ff" points="1813.93,-144.84 1823.25,-149.88 1819.11,-140.13 1813.93,-144.84"/>
</a>
</g>
</g>
<!-- Node28 -->
<g id="Node000028" class="node">
<title>Node28</title>
<g id="a_Node000028"><a xlink:href="classStoich.html#a3cd10d88c35426875c6f2b9dc88e6758" target="_top" xlink:title="This is the internal variant to install the MMenz.">
<polygon fill="white" stroke="#666666" points="1694,-19 1576,-19 1576,0 1694,0 1694,-19"/>
<text text-anchor="middle" x="1635" y="-7" font-family="Ubuntu Mono" font-size="10.00">Stoich::installMMenz</text>
</a>
</g>
</g>
<!-- Node1&#45;&gt;Node28 -->
<g id="edge29_Node000001_Node000028" class="edge">
<title>Node1&#45;&gt;Node28</title>
<g id="a_edge29_Node000001_Node000028"><a xlink:title=" ">
<path fill="none" stroke="#63b8ff" d="M1820.05,-141.37C1801.8,-113.94 1763.49,-62.09 1718,-33.5 1708.08,-27.26 1696.47,-22.59 1685.16,-19.11"/>
<polygon fill="#63b8ff" stroke="#63b8ff" points="1817.26,-143.5 1825.65,-149.97 1823.13,-139.68 1817.26,-143.5"/>
</a>
</g>
</g>
<!-- Node29 -->
<g id="Node000029" class="node">
<title>Node29</title>
<g id="a_Node000029"><a xlink:href="classStoich.html#a299133482ccfce38d615907472c68d78" target="_top" xlink:title="Utility function to make a half reac and return the rate term.">
<polygon fill="white" stroke="#666666" points="1706.5,-95 1563.5,-95 1563.5,-76 1706.5,-76 1706.5,-95"/>
<text text-anchor="middle" x="1635" y="-83" font-family="Ubuntu Mono" font-size="10.00">Stoich::makeHalfReaction</text>
</a>
</g>
</g>
<!-- Node1&#45;&gt;Node29 -->
<g id="edge31_Node000001_Node000029" class="edge">
<title>Node1&#45;&gt;Node29</title>
<g id="a_edge31_Node000001_Node000029"><a xlink:title=" ">
<path fill="none" stroke="#63b8ff" d="M1805.78,-144.98C1783.23,-132.75 1749.25,-115.54 1718,-104.5 1707.67,-100.85 1696.35,-97.71 1685.51,-95.09"/>
<polygon fill="#63b8ff" stroke="#63b8ff" points="1804.26,-148.14 1814.71,-149.88 1807.63,-142 1804.26,-148.14"/>
</a>
</g>
</g>
<!-- Node3 -->
<g id="Node000003" class="node">
<title>Node3</title>
<g id="a_Node000003"><a xlink:href="classGsolve.html#a8235e5b90e20752b0206a3ec414cc3ae" target="_top" xlink:title="get initial conc of molecules in given pool and voxel. Bdry cond.">
<polygon fill="white" stroke="#666666" points="1493,-473 1381,-473 1381,-454 1493,-454 1493,-473"/>
<text text-anchor="middle" x="1437" y="-461" font-family="Ubuntu Mono" font-size="10.00">Gsolve::getConcInit</text>
</a>
</g>
</g>
<!-- Node2&#45;&gt;Node3 -->
<g id="edge2_Node000002_Node000003" class="edge">
<title>Node2&#45;&gt;Node3</title>
<g id="a_edge2_Node000002_Node000003"><a xlink:title=" ">
<path fill="none" stroke="#63b8ff" d="M1564.71,-463.5C1541.28,-463.5 1515.45,-463.5 1493.26,-463.5"/>
<polygon fill="#63b8ff" stroke="#63b8ff" points="1564.93,-467 1574.93,-463.5 1564.93,-460 1564.93,-467"/>
</a>
</g>
</g>
<!-- Node4 -->
<g id="Node000004" class="node">
<title>Node4</title>
<g id="a_Node000004"><a xlink:href="classGsolve.html#a585e65a543d2a4e4ecb2a3a269369dd0" target="_top" xlink:title="Get # of molecules in given pool and voxel. Varies with time.">
<polygon fill="white" stroke="#666666" points="1477,-436 1397,-436 1397,-417 1477,-417 1477,-436"/>
<text text-anchor="middle" x="1437" y="-424" font-family="Ubuntu Mono" font-size="10.00">Gsolve::getN</text>
</a>
</g>
</g>
<!-- Node2&#45;&gt;Node4 -->
<g id="edge3_Node000002_Node000004" class="edge">
<title>Node2&#45;&gt;Node4</title>
<g id="a_edge3_Node000002_Node000004"><a xlink:title=" ">
<path fill="none" stroke="#63b8ff" d="M1573.57,-452.09C1542.19,-446.17 1504.75,-439.1 1477.17,-433.89"/>
<polygon fill="#63b8ff" stroke="#63b8ff" points="1573.05,-455.56 1583.53,-453.97 1574.35,-448.68 1573.05,-455.56"/>
</a>
</g>
</g>
<!-- Node5 -->
<g id="Node000005" class="node">
<title>Node5</title>
<g id="a_Node000005"><a xlink:href="classGsolve.html#ae9dacc0488b805d5cbaf49b206e6fa6e" target="_top" xlink:title="Set initial conc of molecules in given pool and voxel. Bdry cond.">
<polygon fill="white" stroke="#666666" points="1492.5,-547 1381.5,-547 1381.5,-528 1492.5,-528 1492.5,-547"/>
<text text-anchor="middle" x="1437" y="-535" font-family="Ubuntu Mono" font-size="10.00">Gsolve::setConcInit</text>
</a>
</g>
</g>
<!-- Node2&#45;&gt;Node5 -->
<g id="edge4_Node000002_Node000005" class="edge">
<title>Node2&#45;&gt;Node5</title>
<g id="a_edge4_Node000002_Node000005"><a xlink:title=" ">
<path fill="none" stroke="#63b8ff" d="M1607.95,-477.88C1584.48,-490.34 1548.75,-508.1 1516,-519.5 1506.68,-522.74 1496.53,-525.57 1486.73,-527.97"/>
<polygon fill="#63b8ff" stroke="#63b8ff" points="1609.75,-480.88 1616.91,-473.06 1606.44,-474.72 1609.75,-480.88"/>
</a>
</g>
</g>
<!-- Node6 -->
<g id="Node000006" class="node">
<title>Node6</title>
<g id="a_Node000006"><a xlink:href="classGsolve.html#a90b6c968aaa0c4fb5aa199e9606e8aab" target="_top" xlink:title="Set # of molecules in given pool and voxel. Varies with time.">
<polygon fill="white" stroke="#666666" points="1476.5,-510 1397.5,-510 1397.5,-491 1476.5,-491 1476.5,-510"/>
<text text-anchor="middle" x="1437" y="-498" font-family="Ubuntu Mono" font-size="10.00">Gsolve::setN</text>
</a>
</g>
</g>
<!-- Node2&#45;&gt;Node6 -->
<g id="edge5_Node000002_Node000006" class="edge">
<title>Node2&#45;&gt;Node6</title>
<g id="a_edge5_Node000002_Node000006"><a xlink:title=" ">
<path fill="none" stroke="#63b8ff" d="M1573.5,-474.92C1541.89,-480.89 1504.16,-488.01 1476.54,-493.22"/>
<polygon fill="#63b8ff" stroke="#63b8ff" points="1574.35,-478.32 1583.53,-473.03 1573.05,-471.44 1574.35,-478.32"/>
</a>
</g>
</g>
<!-- Node8 -->
<g id="Node000008" class="node">
<title>Node8</title>
<g id="a_Node000008"><a xlink:href="classKsolve.html#abb7543d8958db5d9dfef445986fa0723" target="_top" xlink:title="get initial conc of molecules in given pool and voxel. Bdry cond.">
<polygon fill="white" stroke="#666666" points="1492.5,-325 1381.5,-325 1381.5,-306 1492.5,-306 1492.5,-325"/>
<text text-anchor="middle" x="1437" y="-313" font-family="Ubuntu Mono" font-size="10.00">Ksolve::getConcInit</text>
</a>
</g>
</g>
<!-- Node7&#45;&gt;Node8 -->
<g id="edge7_Node000007_Node000008" class="edge">
<title>Node7&#45;&gt;Node8</title>
<g id="a_edge7_Node000007_Node000008"><a xlink:title=" ">
<path fill="none" stroke="#63b8ff" d="M1565.41,-315.5C1541.55,-315.5 1515.12,-315.5 1492.55,-315.5"/>
<polygon fill="#63b8ff" stroke="#63b8ff" points="1565.46,-319 1575.46,-315.5 1565.46,-312 1565.46,-319"/>
</a>
</g>
</g>
<!-- Node9 -->
<g id="Node000009" class="node">
<title>Node9</title>
<g id="a_Node000009"><a xlink:href="classKsolve.html#a779cfdec2d88315dfe192219ba7ec766" target="_top" xlink:title="Get # of molecules in given pool and voxel. Varies with time.">
<polygon fill="white" stroke="#666666" points="1476.5,-288 1397.5,-288 1397.5,-269 1476.5,-269 1476.5,-288"/>
<text text-anchor="middle" x="1437" y="-276" font-family="Ubuntu Mono" font-size="10.00">Ksolve::getN</text>
</a>
</g>
</g>
<!-- Node7&#45;&gt;Node9 -->
<g id="edge8_Node000007_Node000009" class="edge">
<title>Node7&#45;&gt;Node9</title>
<g id="a_edge8_Node000007_Node000009"><a xlink:title=" ">
<path fill="none" stroke="#63b8ff" d="M1573.5,-304.08C1541.89,-298.11 1504.16,-290.99 1476.54,-285.78"/>
<polygon fill="#63b8ff" stroke="#63b8ff" points="1573.05,-307.56 1583.53,-305.97 1574.35,-300.68 1573.05,-307.56"/>
</a>
</g>
</g>
<!-- Node10 -->
<g id="Node000010" class="node">
<title>Node10</title>
<g id="a_Node000010"><a xlink:href="classKsolve.html#a7b2059f37836c559ec0e4aa01faca034" target="_top" xlink:title="Set initial conc of molecules in given pool and voxel. Bdry cond.">
<polygon fill="white" stroke="#666666" points="1492,-399 1382,-399 1382,-380 1492,-380 1492,-399"/>
<text text-anchor="middle" x="1437" y="-387" font-family="Ubuntu Mono" font-size="10.00">Ksolve::setConcInit</text>
</a>
</g>
</g>
<!-- Node7&#45;&gt;Node10 -->
<g id="edge9_Node000007_Node000010" class="edge">
<title>Node7&#45;&gt;Node10</title>
<g id="a_edge9_Node000007_Node000010"><a xlink:title=" ">
<path fill="none" stroke="#63b8ff" d="M1607.95,-329.88C1584.48,-342.34 1548.75,-360.1 1516,-371.5 1506.68,-374.74 1496.53,-377.57 1486.73,-379.97"/>
<polygon fill="#63b8ff" stroke="#63b8ff" points="1609.75,-332.88 1616.91,-325.06 1606.44,-326.72 1609.75,-332.88"/>
</a>
</g>
</g>
<!-- Node11 -->
<g id="Node000011" class="node">
<title>Node11</title>
<g id="a_Node000011"><a xlink:href="classKsolve.html#a1ef0c618cb9fca2280427ba11ae85a46" target="_top" xlink:title="Set # of molecules in given pool and voxel. Varies with time.">
<polygon fill="white" stroke="#666666" points="1476,-362 1398,-362 1398,-343 1476,-343 1476,-362"/>
<text text-anchor="middle" x="1437" y="-350" font-family="Ubuntu Mono" font-size="10.00">Ksolve::setN</text>
</a>
</g>
</g>
<!-- Node7&#45;&gt;Node11 -->
<g id="edge10_Node000007_Node000011" class="edge">
<title>Node7&#45;&gt;Node11</title>
<g id="a_edge10_Node000007_Node000011"><a xlink:title=" ">
<path fill="none" stroke="#63b8ff" d="M1573.46,-326.93C1541.74,-332.92 1503.86,-340.07 1476.23,-345.28"/>
<polygon fill="#63b8ff" stroke="#63b8ff" points="1574.35,-330.32 1583.53,-325.03 1573.05,-323.44 1574.35,-330.32"/>
</a>
</g>
</g>
<!-- Node13 -->
<g id="Node000013" class="node">
<title>Node13</title>
<g id="a_Node000013"><a xlink:href="classStoich.html#a76eb61b91eb52a6d439099fb91fed977" target="_top" xlink:title=" ">
<polygon fill="white" stroke="#666666" points="1516,-174.5 1358,-174.5 1358,-144.5 1516,-144.5 1516,-174.5"/>
<text text-anchor="start" x="1366" y="-162.5" font-family="Ubuntu Mono" font-size="10.00">Stoich::zombifyPoolFuncWith</text>
<text text-anchor="middle" x="1437" y="-151.5" font-family="Ubuntu Mono" font-size="10.00">Scaling</text>
</a>
</g>
</g>
<!-- Node12&#45;&gt;Node13 -->
<g id="edge12_Node000012_Node000013" class="edge">
<title>Node12&#45;&gt;Node13</title>
<g id="a_edge12_Node000012_Node000013"><a xlink:title=" ">
<path fill="none" stroke="#63b8ff" d="M1541.49,-159.5C1533.07,-159.5 1524.59,-159.5 1516.3,-159.5"/>
<polygon fill="#63b8ff" stroke="#63b8ff" points="1541.73,-163 1551.73,-159.5 1541.73,-156 1541.73,-163"/>
</a>
</g>
</g>
<!-- Node14 -->
<g id="Node000014" class="node">
<title>Node14</title>
<g id="a_Node000014"><a xlink:href="classStoich.html#ab56684804de4012037cb0c1bc180991d" target="_top" xlink:title=" ">
<polygon fill="white" stroke="#666666" points="1320.5,-212 1198.5,-212 1198.5,-193 1320.5,-193 1320.5,-212"/>
<text text-anchor="middle" x="1259.5" y="-200" font-family="Ubuntu Mono" font-size="10.00">Stoich::zombifyModel</text>
</a>
</g>
</g>
<!-- Node13&#45;&gt;Node14 -->
<g id="edge13_Node000013_Node000014" class="edge">
<title>Node13&#45;&gt;Node14</title>
<g id="a_edge13_Node000013_Node000014"><a xlink:title=" ">
<path fill="none" stroke="#63b8ff" d="M1364.81,-176.94C1342.45,-182.42 1318.61,-188.26 1299.36,-192.98"/>
<polygon fill="#63b8ff" stroke="#63b8ff" points="1365.74,-180.32 1374.62,-174.54 1364.07,-173.52 1365.74,-180.32"/>
</a>
</g>
</g>
<!-- Node15 -->
<g id="Node000015" class="node">
<title>Node15</title>
<g id="a_Node000015"><a xlink:href="classStoich.html#a44698a8a652534dc594bd87f450d93c0" target="_top" xlink:title=" ">
<polygon fill="white" stroke="#666666" points="1156,-212 1067,-212 1067,-193 1156,-193 1156,-212"/>
<text text-anchor="middle" x="1111.5" y="-200" font-family="Ubuntu Mono" font-size="10.00">Stoich::setElist</text>
</a>
</g>
</g>
<!-- Node14&#45;&gt;Node15 -->
<g id="edge14_Node000014_Node000015" class="edge">
<title>Node14&#45;&gt;Node15</title>
<g id="a_edge14_Node000014_Node000015"><a xlink:title=" ">
<path fill="none" stroke="#63b8ff" d="M1188.25,-202.5C1177.28,-202.5 1166.23,-202.5 1156.09,-202.5"/>
<polygon fill="#63b8ff" stroke="#63b8ff" points="1188.27,-206 1198.27,-202.5 1188.27,-199 1188.27,-206"/>
</a>
</g>
</g>
<!-- Node16 -->
<g id="Node000016" class="node">
<title>Node16</title>
<g id="a_Node000016"><a xlink:href="classStoich.html#a0a32cb242e6fd1f6af653a48189feda5" target="_top" xlink:title=" ">
<polygon fill="white" stroke="#666666" points="1026,-212 877,-212 877,-193 1026,-193 1026,-212"/>
<text text-anchor="middle" x="951.5" y="-200" font-family="Ubuntu Mono" font-size="10.00">Stoich::setReacSystemPath</text>
</a>
</g>
</g>
<!-- Node15&#45;&gt;Node16 -->
<g id="edge15_Node000015_Node000016" class="edge">
<title>Node15&#45;&gt;Node16</title>
<g id="a_edge15_Node000015_Node000016"><a xlink:title=" ">
<path fill="none" stroke="#63b8ff" d="M1056.89,-202.5C1047.04,-202.5 1036.6,-202.5 1026.28,-202.5"/>
<polygon fill="#63b8ff" stroke="#63b8ff" points="1056.91,-206 1066.91,-202.5 1056.91,-199 1056.91,-206"/>
</a>
</g>
</g>
<!-- Node17 -->
<g id="Node000017" class="node">
<title>Node17</title>
<g id="a_Node000017"><a xlink:href="classStoich.html#ad8c6117d11f46222476ef4a464ecdc09" target="_top" xlink:title=" ">
<polygon fill="white" stroke="#666666" points="815.5,-231 721.5,-231 721.5,-212 815.5,-212 815.5,-231"/>
<text text-anchor="middle" x="768.5" y="-219" font-family="Ubuntu Mono" font-size="10.00">Stoich::initCinfo</text>
</a>
</g>
</g>
<!-- Node16&#45;&gt;Node17 -->
<g id="edge16_Node000016_Node000017" class="edge">
<title>Node16&#45;&gt;Node17</title>
<g id="a_edge16_Node000016_Node000017"><a xlink:title=" ">
<path fill="none" stroke="#63b8ff" d="M866.59,-211.31C849.01,-213.15 831.1,-215.03 815.53,-216.67"/>
<polygon fill="#63b8ff" stroke="#63b8ff" points="867.3,-214.75 876.88,-210.23 866.57,-207.79 867.3,-214.75"/>
</a>
</g>
</g>
<!-- Node18 -->
<g id="Node000018" class="node">
<title>Node18</title>
<g id="a_Node000018"><a xlink:href="classStoich.html#aec019d0f2ceb1d021062c1a3e712803a" target="_top" xlink:title=" ">
<polygon fill="white" stroke="#666666" points="813,-194 724,-194 724,-175 813,-175 813,-194"/>
<text text-anchor="middle" x="768.5" y="-182" font-family="Ubuntu Mono" font-size="10.00">Stoich::setPath</text>
</a>
</g>
</g>
<!-- Node16&#45;&gt;Node18 -->
<g id="edge17_Node000016_Node000018" class="edge">
<title>Node16&#45;&gt;Node18</title>
<g id="a_edge17_Node000016_Node000018"><a xlink:title=" ">
<path fill="none" stroke="#63b8ff" d="M866.92,-194.19C848.34,-192.34 829.37,-190.45 813.17,-188.84"/>
<polygon fill="#63b8ff" stroke="#63b8ff" points="866.58,-197.67 876.88,-195.18 867.28,-190.71 866.58,-197.67"/>
</a>
</g>
</g>
<!-- Node19&#45;&gt;Node14 -->
<g id="edge19_Node000019_Node000014" class="edge">
<title>Node19&#45;&gt;Node14</title>
<g id="a_edge19_Node000019_Node000014"><a xlink:title=" ">
<path fill="none" stroke="#63b8ff" d="M1553.28,-240.99C1498.22,-234.39 1423.66,-225.26 1358,-216.5 1345.88,-214.88 1332.92,-213.08 1320.55,-211.31"/>
<polygon fill="#63b8ff" stroke="#63b8ff" points="1552.99,-244.48 1563.33,-242.19 1553.82,-237.53 1552.99,-244.48"/>
</a>
</g>
</g>
<!-- Node20&#45;&gt;Node14 -->
<g id="edge21_Node000020_Node000014" class="edge">
<title>Node20&#45;&gt;Node14</title>
<g id="a_edge21_Node000020_Node000014"><a xlink:title=" ">
<path fill="none" stroke="#63b8ff" d="M1553.22,-202.5C1483.33,-202.5 1383.83,-202.5 1320.73,-202.5"/>
<polygon fill="#63b8ff" stroke="#63b8ff" points="1553.31,-206 1563.31,-202.5 1553.31,-199 1553.31,-206"/>
</a>
</g>
</g>
<!-- Node22 -->
<g id="Node000022" class="node">
<title>Node22</title>
<g id="a_Node000022"><a xlink:href="classStoich.html#a94c42faac56d3fc658d4ca704b4c56b0" target="_top" xlink:title=" ">
<polygon fill="white" stroke="#666666" points="1498,-126 1376,-126 1376,-107 1498,-107 1498,-126"/>
<text text-anchor="middle" x="1437" y="-114" font-family="Ubuntu Mono" font-size="10.00">Stoich::installEnzyme</text>
</a>
</g>
</g>
<!-- Node21&#45;&gt;Node22 -->
<g id="edge23_Node000021_Node000022" class="edge">
<title>Node21&#45;&gt;Node22</title>
<g id="a_edge23_Node000021_Node000022"><a xlink:title=" ">
<path fill="none" stroke="#63b8ff" d="M1563.8,-120.35C1542.28,-119.69 1518.8,-118.97 1498.02,-118.34"/>
<polygon fill="#63b8ff" stroke="#63b8ff" points="1563.76,-123.85 1573.86,-120.66 1563.97,-116.85 1563.76,-123.85"/>
</a>
</g>
</g>
<!-- Node23 -->
<g id="Node000023" class="node">
<title>Node23</title>
<g id="a_Node000023"><a xlink:href="classEnz.html#a369dd4f9a9e8718d312b91d289edccc4" target="_top" xlink:title=" ">
<polygon fill="white" stroke="#666666" points="1302.5,-126 1216.5,-126 1216.5,-107 1302.5,-107 1302.5,-126"/>
<text text-anchor="middle" x="1259.5" y="-114" font-family="Ubuntu Mono" font-size="10.00">Enz::setSolver</text>
</a>
</g>
</g>
<!-- Node22&#45;&gt;Node23 -->
<g id="edge24_Node000022_Node000023" class="edge">
<title>Node22&#45;&gt;Node23</title>
<g id="a_edge24_Node000022_Node000023"><a xlink:title=" ">
<path fill="none" stroke="#63b8ff" d="M1365.32,-116.5C1344.11,-116.5 1321.51,-116.5 1302.75,-116.5"/>
<polygon fill="#63b8ff" stroke="#63b8ff" points="1365.6,-120 1375.6,-116.5 1365.6,-113 1365.6,-120"/>
</a>
</g>
</g>
<!-- Node24 -->
<g id="Node000024" class="node">
<title>Node24</title>
<g id="a_Node000024"><a xlink:href="classEnz.html#a3e5ca82f4ac57afcbfa71949ce0cf749" target="_top" xlink:title=" ">
<polygon fill="white" stroke="#666666" points="1152,-126 1071,-126 1071,-107 1152,-107 1152,-126"/>
<text text-anchor="middle" x="1111.5" y="-114" font-family="Ubuntu Mono" font-size="10.00">Enz::initCinfo</text>
</a>
</g>
</g>
<!-- Node23&#45;&gt;Node24 -->
<g id="edge25_Node000023_Node000024" class="edge">
<title>Node23&#45;&gt;Node24</title>
<g id="a_edge25_Node000023_Node000024"><a xlink:title=" ">
<path fill="none" stroke="#63b8ff" d="M1206.05,-116.5C1188.28,-116.5 1168.74,-116.5 1152.13,-116.5"/>
<polygon fill="#63b8ff" stroke="#63b8ff" points="1206.27,-120 1216.27,-116.5 1206.27,-113 1206.27,-120"/>
</a>
</g>
</g>
<!-- Node26 -->
<g id="Node000026" class="node">
<title>Node26</title>
<g id="a_Node000026"><a xlink:href="classMMenz.html#ad391949741ca05d043245f9d93d14c7e" target="_top" xlink:title=" ">
<polygon fill="white" stroke="#666666" points="1311.5,-36 1207.5,-36 1207.5,-17 1311.5,-17 1311.5,-36"/>
<text text-anchor="middle" x="1259.5" y="-24" font-family="Ubuntu Mono" font-size="10.00">MMenz::setSolver</text>
</a>
</g>
</g>
<!-- Node25&#45;&gt;Node26 -->
<g id="edge27_Node000025_Node000026" class="edge">
<title>Node25&#45;&gt;Node26</title>
<g id="a_edge27_Node000025_Node000026"><a xlink:title=" ">
<path fill="none" stroke="#63b8ff" d="M1367.39,-26.5C1348.82,-26.5 1329.04,-26.5 1311.62,-26.5"/>
<polygon fill="#63b8ff" stroke="#63b8ff" points="1367.56,-30 1377.56,-26.5 1367.56,-23 1367.56,-30"/>
</a>
</g>
</g>
<!-- Node27 -->
<g id="Node000027" class="node">
<title>Node27</title>
<g id="a_Node000027"><a xlink:href="classMMenz.html#aac1466097d1b877b61236241c572174f" target="_top" xlink:title=" ">
<polygon fill="white" stroke="#666666" points="1161,-36 1062,-36 1062,-17 1161,-17 1161,-36"/>
<text text-anchor="middle" x="1111.5" y="-24" font-family="Ubuntu Mono" font-size="10.00">MMenz::initCinfo</text>
</a>
</g>
</g>
<!-- Node26&#45;&gt;Node27 -->
<g id="edge28_Node000026_Node000027" class="edge">
<title>Node26&#45;&gt;Node27</title>
<g id="a_edge28_Node000026_Node000027"><a xlink:title=" ">
<path fill="none" stroke="#63b8ff" d="M1197.09,-26.5C1185.15,-26.5 1172.79,-26.5 1161.33,-26.5"/>
<polygon fill="#63b8ff" stroke="#63b8ff" points="1197.44,-30 1207.44,-26.5 1197.44,-23 1197.44,-30"/>
</a>
</g>
</g>
<!-- Node28&#45;&gt;Node25 -->
<g id="edge30_Node000028_Node000025" class="edge">
<title>Node28&#45;&gt;Node25</title>
<g id="a_edge30_Node000028_Node000025"><a xlink:title=" ">
<path fill="none" stroke="#63b8ff" d="M1565.75,-15.42C1543.08,-17.39 1518.05,-19.56 1496.2,-21.45"/>
<polygon fill="#63b8ff" stroke="#63b8ff" points="1566.33,-18.88 1575.99,-14.53 1565.72,-11.91 1566.33,-18.88"/>
</a>
</g>
</g>
<!-- Node29&#45;&gt;Node22 -->
<g id="edge44_Node000029_Node000022" class="edge">
<title>Node29&#45;&gt;Node22</title>
<g id="a_edge44_Node000029_Node000022"><a xlink:title=" ">
<path fill="none" stroke="#63b8ff" d="M1563.8,-96.6C1542.28,-100.01 1518.8,-103.72 1498.02,-107.01"/>
<polygon fill="#63b8ff" stroke="#63b8ff" points="1564.53,-100.03 1573.86,-95.01 1563.44,-93.12 1564.53,-100.03"/>
</a>
</g>
</g>
<!-- Node30 -->
<g id="Node000030" class="node">
<title>Node30</title>
<g id="a_Node000030"><a xlink:href="classStoich.html#a718e97592f762fa5fe91dc773afc750a" target="_top" xlink:title=" ">
<polygon fill="white" stroke="#666666" points="1512,-89 1362,-89 1362,-70 1512,-70 1512,-89"/>
<text text-anchor="middle" x="1437" y="-77" font-family="Ubuntu Mono" font-size="10.00">Stoich::innerInstallReaction</text>
</a>
</g>
</g>
<!-- Node29&#45;&gt;Node30 -->
<g id="edge32_Node000029_Node000030" class="edge">
<title>Node29&#45;&gt;Node30</title>
<g id="a_edge32_Node000029_Node000030"><a xlink:title=" ">
<path fill="none" stroke="#63b8ff" d="M1553.03,-83.02C1539.54,-82.61 1525.6,-82.18 1512.29,-81.77"/>
<polygon fill="#63b8ff" stroke="#63b8ff" points="1553.14,-86.53 1563.24,-83.33 1553.35,-79.53 1553.14,-86.53"/>
</a>
</g>
</g>
<!-- Node31 -->
<g id="Node000031" class="node">
<title>Node31</title>
<g id="a_Node000031"><a xlink:href="classStoich.html#a4834b255ae58f9cbef18370b15411d26" target="_top" xlink:title=" ">
<polygon fill="white" stroke="#666666" points="1322,-89 1197,-89 1197,-70 1322,-70 1322,-89"/>
<text text-anchor="middle" x="1259.5" y="-77" font-family="Ubuntu Mono" font-size="10.00">Stoich::installReaction</text>
</a>
</g>
</g>
<!-- Node30&#45;&gt;Node31 -->
<g id="edge33_Node000030_Node000031" class="edge">
<title>Node30&#45;&gt;Node31</title>
<g id="a_edge33_Node000030_Node000031"><a xlink:title=" ">
<path fill="none" stroke="#63b8ff" d="M1351.56,-79.5C1341.67,-79.5 1331.73,-79.5 1322.23,-79.5"/>
<polygon fill="#63b8ff" stroke="#63b8ff" points="1351.83,-83 1361.83,-79.5 1351.83,-76 1351.83,-83"/>
</a>
</g>
</g>
<!-- Node32 -->
<g id="Node000032" class="node">
<title>Node32</title>
<g id="a_Node000032"><a xlink:href="classReac.html#a9cdc940efa24585f62bdc57933b3d31f" target="_top" xlink:title=" ">
<polygon fill="white" stroke="#666666" points="1157.5,-89 1065.5,-89 1065.5,-70 1157.5,-70 1157.5,-89"/>
<text text-anchor="middle" x="1111.5" y="-77" font-family="Ubuntu Mono" font-size="10.00">Reac::setSolver</text>
</a>
</g>
</g>
<!-- Node31&#45;&gt;Node32 -->
<g id="edge34_Node000031_Node000032" class="edge">
<title>Node31&#45;&gt;Node32</title>
<g id="a_edge34_Node000031_Node000032"><a xlink:title=" ">
<path fill="none" stroke="#63b8ff" d="M1186.42,-79.5C1176.63,-79.5 1166.81,-79.5 1157.68,-79.5"/>
<polygon fill="#63b8ff" stroke="#63b8ff" points="1186.58,-83 1196.58,-79.5 1186.58,-76 1186.58,-83"/>
</a>
</g>
</g>
<!-- Node33 -->
<g id="Node000033" class="node">
<title>Node33</title>
<g id="a_Node000033"><a xlink:href="classReac.html#aab2f9c8fbeaf29950b58cad7950e2a51" target="_top" xlink:title=" ">
<polygon fill="white" stroke="#666666" points="995.5,-89 907.5,-89 907.5,-70 995.5,-70 995.5,-89"/>
<text text-anchor="middle" x="951.5" y="-77" font-family="Ubuntu Mono" font-size="10.00">Reac::initCinfo</text>
</a>
</g>
</g>
<!-- Node32&#45;&gt;Node33 -->
<g id="edge35_Node000032_Node000033" class="edge">
<title>Node32&#45;&gt;Node33</title>
<g id="a_edge35_Node000032_Node000033"><a xlink:title=" ">
<path fill="none" stroke="#63b8ff" d="M1054.96,-79.5C1035.48,-79.5 1013.91,-79.5 995.61,-79.5"/>
<polygon fill="#63b8ff" stroke="#63b8ff" points="1055.22,-83 1065.22,-79.5 1055.22,-76 1055.22,-83"/>
</a>
</g>
</g>
<!-- Node34 -->
<g id="Node000034" class="node">
<title>Node34</title>
<g id="a_Node000034"><a xlink:href="ReadKkit_8cpp.html#a561c92f10cca29ac656918f73b3ecad0" target="_top" xlink:title=" ">
<polygon fill="white" stroke="#666666" points="835,-108 702,-108 702,-89 835,-89 835,-108"/>
<text text-anchor="middle" x="768.5" y="-96" font-family="Ubuntu Mono" font-size="10.00">findParentComptOfReac</text>
</a>
</g>
</g>
<!-- Node33&#45;&gt;Node34 -->
<g id="edge36_Node000033_Node000034" class="edge">
<title>Node33&#45;&gt;Node34</title>
<g id="a_edge36_Node000033_Node000034"><a xlink:title=" ">
<path fill="none" stroke="#63b8ff" d="M896.98,-85.12C877.59,-87.15 855.46,-89.48 835.14,-91.61"/>
<polygon fill="#63b8ff" stroke="#63b8ff" points="897.57,-88.58 907.15,-84.05 896.84,-81.61 897.57,-88.58"/>
</a>
</g>
</g>
<!-- Node40 -->
<g id="Node000040" class="node">
<title>Node40</title>
<g id="a_Node000040"><a xlink:href="testKinetics_8cpp.html#ad1be508afbede7b4565b0a81e470139a" target="_top" xlink:title=" ">
<polygon fill="white" stroke="#666666" points="841,-71 696,-71 696,-52 841,-52 841,-71"/>
<text text-anchor="middle" x="768.5" y="-59" font-family="Ubuntu Mono" font-size="10.00">testTwoReacGetNeighbors</text>
</a>
</g>
</g>
<!-- Node33&#45;&gt;Node40 -->
<g id="edge42_Node000033_Node000040" class="edge">
<title>Node33&#45;&gt;Node40</title>
<g id="a_edge42_Node000033_Node000040"><a xlink:title=" ">
<path fill="none" stroke="#63b8ff" d="M897.11,-74.19C879.57,-72.45 859.79,-70.48 841.12,-68.62"/>
<polygon fill="#63b8ff" stroke="#63b8ff" points="896.85,-77.68 907.15,-75.19 897.54,-70.72 896.85,-77.68"/>
</a>
</g>
</g>
<!-- Node35 -->
<g id="Node000035" class="node">
<title>Node35</title>
<g id="a_Node000035"><a xlink:href="classReadKkit.html#ad87da584d44e386b27a960a5d5ecbc6f" target="_top" xlink:title=" ">
<polygon fill="white" stroke="#666666" points="660,-108 465,-108 465,-89 660,-89 660,-108"/>
<text text-anchor="middle" x="562.5" y="-96" font-family="Ubuntu Mono" font-size="10.00">ReadKkit::assignReacCompartments</text>
</a>
</g>
</g>
<!-- Node34&#45;&gt;Node35 -->
<g id="edge37_Node000034_Node000035" class="edge">
<title>Node34&#45;&gt;Node35</title>
<g id="a_edge37_Node000034_Node000035"><a xlink:title=" ">
<path fill="none" stroke="#63b8ff" d="M691.71,-98.5C681.45,-98.5 670.81,-98.5 660.24,-98.5"/>
<polygon fill="#63b8ff" stroke="#63b8ff" points="691.83,-102 701.83,-98.5 691.83,-95 691.83,-102"/>
</a>
</g>
</g>
<!-- Node36 -->
<g id="Node000036" class="node">
<title>Node36</title>
<g id="a_Node000036"><a xlink:href="classReadKkit.html#a84a1ef5c83d57d8d111ead9cf48e8e20" target="_top" xlink:title=" ">
<polygon fill="white" stroke="#666666" points="429,-108 340,-108 340,-89 429,-89 429,-108"/>
<text text-anchor="middle" x="384.5" y="-96" font-family="Ubuntu Mono" font-size="10.00">ReadKkit::read</text>
</a>
</g>
</g>
<!-- Node35&#45;&gt;Node36 -->
<g id="edge38_Node000035_Node000036" class="edge">
<title>Node35&#45;&gt;Node36</title>
<g id="a_edge38_Node000035_Node000036"><a xlink:title=" ">
<path fill="none" stroke="#63b8ff" d="M454.6,-98.5C445.69,-98.5 437.06,-98.5 429.09,-98.5"/>
<polygon fill="#63b8ff" stroke="#63b8ff" points="454.75,-102 464.75,-98.5 454.75,-95 454.75,-102"/>
</a>
</g>
</g>
<!-- Node37 -->
<g id="Node000037" class="node">
<title>Node37</title>
<g id="a_Node000037"><a xlink:href="classShell.html#a506ff431369e3bce87f0e6c767fe475c" target="_top" xlink:title="Returns the Id of the loaded model.">
<polygon fill="white" stroke="#666666" points="304,-127 192,-127 192,-108 304,-108 304,-127"/>
<text text-anchor="middle" x="248" y="-115" font-family="Ubuntu Mono" font-size="10.00">Shell::doLoadModel</text>
</a>
</g>
</g>
<!-- Node36&#45;&gt;Node37 -->
<g id="edge39_Node000036_Node000037" class="edge">
<title>Node36&#45;&gt;Node37</title>
<g id="a_edge39_Node000036_Node000037"><a xlink:title=" ">
<path fill="none" stroke="#63b8ff" d="M329.77,-106.09C321.37,-107.28 312.67,-108.51 304.24,-109.7"/>
<polygon fill="#63b8ff" stroke="#63b8ff" points="330.42,-109.53 339.83,-104.67 329.44,-102.6 330.42,-109.53"/>
</a>
</g>
</g>
<!-- Node39 -->
<g id="Node000039" class="node">
<title>Node39</title>
<g id="a_Node000039"><a xlink:href="testKinetics_8cpp.html#a484ee971354e15c7a0dcf17fd1b0a8fa" target="_top" xlink:title=" ">
<polygon fill="white" stroke="#666666" points="288,-90 208,-90 208,-71 288,-71 288,-90"/>
<text text-anchor="middle" x="248" y="-78" font-family="Ubuntu Mono" font-size="10.00">testReadKkit</text>
</a>
</g>
</g>
<!-- Node36&#45;&gt;Node39 -->
<g id="edge41_Node000036_Node000039" class="edge">
<title>Node36&#45;&gt;Node39</title>
<g id="a_edge41_Node000036_Node000039"><a xlink:title=" ">
<path fill="none" stroke="#63b8ff" d="M329.91,-91.33C316.04,-89.47 301.35,-87.51 288.36,-85.77"/>
<polygon fill="#63b8ff" stroke="#63b8ff" points="329.46,-94.8 339.83,-92.66 330.38,-87.86 329.46,-94.8"/>
</a>
</g>
</g>
<!-- Node38 -->
<g id="Node000038" class="node">
<title>Node38</title>
<g id="a_Node000038"><a xlink:href="namespacepymoose.html#a995d880f6c2e5cfb0545ec3640f76eef" target="_top" xlink:title="Model loaders built into Shell, others can be implemented in Python.">
<polygon fill="white" stroke="#666666" points="156,-127 0,-127 0,-108 156,-108 156,-127"/>
<text text-anchor="middle" x="78" y="-115" font-family="Ubuntu Mono" font-size="10.00">pymoose::loadModelInternal</text>
</a>
</g>
</g>
<!-- Node37&#45;&gt;Node38 -->
<g id="edge40_Node000037_Node000038" class="edge">
<title>Node37&#45;&gt;Node38</title>
<g id="a_edge40_Node000037_Node000038"><a xlink:title=" ">
<path fill="none" stroke="#63b8ff" d="M181.85,-117.5C173.41,-117.5 164.7,-117.5 156.09,-117.5"/>
<polygon fill="#63b8ff" stroke="#63b8ff" points="181.99,-121 191.99,-117.5 181.99,-114 181.99,-121"/>
</a>
</g>
</g>
<!-- Node41 -->
<g id="Node000041" class="node">
<title>Node41</title>
<g id="a_Node000041"><a xlink:href="testKinetics_8cpp.html#aa3b1f89bca78db511bbd49a268e25309" target="_top" xlink:title=" ">
<polygon fill="white" stroke="#666666" points="599.5,-71 525.5,-71 525.5,-52 599.5,-52 599.5,-71"/>
<text text-anchor="middle" x="562.5" y="-59" font-family="Ubuntu Mono" font-size="10.00">testKinetics</text>
</a>
</g>
</g>
<!-- Node40&#45;&gt;Node41 -->
<g id="edge43_Node000040_Node000041" class="edge">
<title>Node40&#45;&gt;Node41</title>
<g id="a_edge43_Node000040_Node000041"><a xlink:title=" ">
<path fill="none" stroke="#63b8ff" d="M685.84,-61.5C655.96,-61.5 623.66,-61.5 599.75,-61.5"/>
<polygon fill="#63b8ff" stroke="#63b8ff" points="685.86,-65 695.86,-61.5 685.86,-58 685.86,-65"/>
</a>
</g>
</g>
</g>
</svg>

<g id="navigator" transform="translate(0 0)" fill="#404254">
  <rect fill="#f2f5e9" fill-opacity="0.5" stroke="#606060" stroke-width=".5" x="0" y="0" width="60" height="60"/>
  <use id="zoomplus" xlink:href="#zoomPlus" x="17" y="9" onmousedown="handleZoom(evt,'in')"/>
  <use id="zoomminus" xlink:href="#zoomMin" x="42" y="9" onmousedown="handleZoom(evt,'out')"/>
  <use id="reset" xlink:href="#resetDef" x="30" y="36" onmousedown="handleReset()"/>
   <use id="arrowup" xlink:href="#arrowUp" x="0" y="0" onmousedown="handlePan(0,-1)"/>
  <use id="arrowright" xlink:href="#arrowRight" x="0" y="0" onmousedown="handlePan(1,0)"/>
  <use id="arrowdown" xlink:href="#arrowDown" x="0" y="0" onmousedown="handlePan(0,1)"/>
  <use id="arrowleft" xlink:href="#arrowLeft" x="0" y="0" onmousedown="handlePan(-1,0)"/>
</g>
<svg viewBox="0 0 15 15" width="100%" height="30px" preserveAspectRatio="xMaxYMin meet">
 <g id="arrow_out" transform="scale(0.3 0.3)">
  <a xlink:href="classStoich_a0eeca8773e3b19ad9b771a9efc66d5ed_icgraph_org.svg" target="_base">
   <rect id="button" ry="5" rx="5" y="6" x="6" height="38" width="38"
        fill="#f2f5e9" fill-opacity="0.5" stroke="#606060" stroke-width="1.0"/>
   <path id="arrow"
     d="M 11.500037,31.436501 C 11.940474,20.09759 22.043105,11.32322 32.158766,21.979434 L 37.068811,17.246167 C 37.068811,17.246167 37.088388,32 37.088388,32 L 22.160133,31.978069 C 22.160133,31.978069 26.997745,27.140456 26.997745,27.140456 C 18.528582,18.264221 13.291696,25.230495 11.500037,31.436501 z"
     style="fill:#404040;"/>
  </a>
 </g>
</svg>

<style type='text/css'>
<![CDATA[
[data-mouse-over-selected='false'] { opacity: 0.7; }
[data-mouse-over-selected='true']  { opacity: 1.0; }
]]>
</style>
<script type="application/ecmascript"><![CDATA[
document.addEventListener('DOMContentLoaded', (event) => {
  highlightEdges();
  highlightAdjacentNodes();
});
]]></script>
</svg>
