<?xml version="1.0" encoding="UTF-8" standalone="no"?>
<!DOCTYPE svg PUBLIC "-//W3C//DTD SVG 1.1//EN"
 "http://www.w3.org/Graphics/SVG/1.1/DTD/svg11.dtd">
<!-- Generated by graphviz version 2.43.0 (0)
 -->
<!-- Title: Element::dropMsg Pages: 1 -->
<svg width="387pt" height="101pt"
 viewBox="0.00 0.00 387.00 101.00" xmlns="http://www.w3.org/2000/svg" xmlns:xlink="http://www.w3.org/1999/xlink">

<svg id="main" version="1.1" xmlns="http://www.w3.org/2000/svg" xmlns:xlink="http://www.w3.org/1999/xlink" xml:space="preserve" onload="init(evt)">
<style type="text/css"><![CDATA[
.node, .edge {opacity: 0.7;}
.node.selected, .edge.selected {opacity: 1;}
.edge:hover path { stroke: red; }
.edge:hover polygon { stroke: red; fill: red; }
]]></style>
<script type="application/ecmascript" xlink:href="svg.min.js"/>
<svg id="graph" class="graph">
<g id="graph0" class="graph" transform="scale(1 1) rotate(0) translate(4 97)">
<title>Element::dropMsg</title>
<!-- Node1 -->
<g id="Node000001" class="node">
<title>Node1</title>
<g id="a_Node000001"><a xlink:title=" ">
<polygon fill="#999999" stroke="#666666" points="105,-56 0,-56 0,-37 105,-37 105,-56"/>
<text text-anchor="middle" x="52.5" y="-44" font-family="Ubuntu Mono" font-size="10.00">Element::dropMsg</text>
</a>
</g>
</g>
<!-- Node2 -->
<g id="Node000002" class="node">
<title>Node2</title>
<g id="a_Node000002"><a xlink:href="classElement.html#ad4212c0f8e2457fb59d39cc2181cd483" target="_top" xlink:title=" ">
<polygon fill="white" stroke="#666666" points="261.5,-93 148.5,-93 148.5,-74 261.5,-74 261.5,-93"/>
<text text-anchor="middle" x="205" y="-81" font-family="Ubuntu Mono" font-size="10.00">Element::isDoomed</text>
</a>
</g>
</g>
<!-- Node1&#45;&gt;Node2 -->
<g id="edge1_Node000001_Node000002" class="edge">
<title>Node1&#45;&gt;Node2</title>
<g id="a_edge1_Node000001_Node000002"><a xlink:title=" ">
<path fill="none" stroke="#63b8ff" d="M92.26,-56.03C111.49,-60.76 134.93,-66.52 155.36,-71.54"/>
<polygon fill="#63b8ff" stroke="#63b8ff" points="154.57,-74.95 165.11,-73.94 156.24,-68.15 154.57,-74.95"/>
</a>
</g>
</g>
<!-- Node3 -->
<g id="Node000003" class="node">
<title>Node3</title>
<g id="a_Node000003"><a xlink:href="classElement.html#a91ba2615cb1c7a30cca2327d2003f34c" target="_top" xlink:title=" ">
<polygon fill="white" stroke="#666666" points="269,-56 141,-56 141,-37 269,-37 269,-56"/>
<text text-anchor="middle" x="205" y="-44" font-family="Ubuntu Mono" font-size="10.00">Element::markRewired</text>
</a>
</g>
</g>
<!-- Node1&#45;&gt;Node3 -->
<g id="edge2_Node000001_Node000003" class="edge">
<title>Node1&#45;&gt;Node3</title>
<g id="a_edge2_Node000001_Node000003"><a xlink:title=" ">
<path fill="none" stroke="#63b8ff" d="M105.29,-46.5C113.54,-46.5 122.21,-46.5 130.84,-46.5"/>
<polygon fill="#63b8ff" stroke="#63b8ff" points="130.93,-50 140.93,-46.5 130.93,-43 130.93,-50"/>
</a>
</g>
</g>
<!-- Node4 -->
<g id="Node000004" class="node">
<title>Node4</title>
<g id="a_Node000004"><a xlink:href="classmatchMid.html#a5d0b772b49f8540dd3fc5cfc2524b81a" target="_top" xlink:title=" ">
<polygon fill="white" stroke="#666666" points="265,-19 145,-19 145,0 265,0 265,-19"/>
<text text-anchor="middle" x="205" y="-7" font-family="Ubuntu Mono" font-size="10.00">matchMid::matchMid</text>
</a>
</g>
</g>
<!-- Node1&#45;&gt;Node4 -->
<g id="edge3_Node000001_Node000004" class="edge">
<title>Node1&#45;&gt;Node4</title>
<g id="a_edge3_Node000001_Node000004"><a xlink:title=" ">
<path fill="none" stroke="#63b8ff" d="M92.26,-36.97C111.49,-32.24 134.93,-26.48 155.36,-21.46"/>
<polygon fill="#63b8ff" stroke="#63b8ff" points="156.24,-24.85 165.11,-19.06 154.57,-18.05 156.24,-24.85"/>
</a>
</g>
</g>
<!-- Node5 -->
<g id="Node000005" class="node">
<title>Node5</title>
<g id="a_Node000005"><a xlink:href="classObjId.html#a02a8374ceddca0d8f4a672005aef8ffc" target="_top" xlink:title=" ">
<polygon fill="white" stroke="#666666" points="379,-19 305,-19 305,0 379,0 379,-19"/>
<text text-anchor="middle" x="342" y="-7" font-family="Ubuntu Mono" font-size="10.00">ObjId::ObjId</text>
</a>
</g>
</g>
<!-- Node4&#45;&gt;Node5 -->
<g id="edge4_Node000004_Node000005" class="edge">
<title>Node4&#45;&gt;Node5</title>
<g id="a_edge4_Node000004_Node000005"><a xlink:title=" ">
<path fill="none" stroke="#63b8ff" d="M265.21,-9.5C275.1,-9.5 285.22,-9.5 294.73,-9.5"/>
<polygon fill="#63b8ff" stroke="#63b8ff" points="294.75,-13 304.75,-9.5 294.75,-6 294.75,-13"/>
</a>
</g>
</g>
</g>
</svg>
</svg>

<style type='text/css'>
<![CDATA[
[data-mouse-over-selected='false'] { opacity: 0.7; }
[data-mouse-over-selected='true']  { opacity: 1.0; }
]]>
</style>
<script type="application/ecmascript"><![CDATA[
document.addEventListener('DOMContentLoaded', (event) => {
  highlightEdges();
  highlightAdjacentNodes();
});
]]></script>
</svg>
