<?xml version="1.0" encoding="UTF-8" standalone="no"?>
<!DOCTYPE svg PUBLIC "-//W3C//DTD SVG 1.1//EN"
 "http://www.w3.org/Graphics/SVG/1.1/DTD/svg11.dtd">
<!-- Generated by graphviz version 2.43.0 (0)
 -->
<!-- Title: ReadSwc::cleanZeroLength Pages: 1 -->
<svg width="667pt" height="268pt"
 viewBox="0.00 0.00 667.00 268.00" xmlns="http://www.w3.org/2000/svg" xmlns:xlink="http://www.w3.org/1999/xlink">
<g id="graph0" class="graph" transform="scale(1 1) rotate(0) translate(4 264)">
<title>ReadSwc::cleanZeroLength</title>
<!-- Node1 -->
<g id="Node000001" class="node">
<title>Node1</title>
<g id="a_Node000001"><a xlink:title=" ">
<polygon fill="#999999" stroke="#666666" points="149,-130 0,-130 0,-111 149,-111 149,-130"/>
<text text-anchor="middle" x="74.5" y="-118" font-family="Ubuntu Mono" font-size="10.00">ReadSwc::cleanZeroLength</text>
</a>
</g>
</g>
<!-- Node2 -->
<g id="Node000002" class="node">
<title>Node2</title>
<g id="a_Node000002"><a xlink:href="classSwcSegment.html#ac122024c107655032f13e8a49e057b38" target="_top" xlink:title=" ">
<polygon fill="white" stroke="#666666" points="320,-241 193,-241 193,-222 320,-222 320,-241"/>
<text text-anchor="middle" x="256.5" y="-229" font-family="Ubuntu Mono" font-size="10.00">SwcSegment::distance</text>
</a>
</g>
</g>
<!-- Node1&#45;&gt;Node2 -->
<g id="edge1_Node000001_Node000002" class="edge">
<title>Node1&#45;&gt;Node2</title>
<g id="a_edge1_Node000001_Node000002"><a xlink:title=" ">
<path fill="none" stroke="#63b8ff" d="M83.83,-130.02C100.88,-148.9 141.79,-191.17 185,-213.5 188.56,-215.34 192.32,-217 196.17,-218.5"/>
<polygon fill="#63b8ff" stroke="#63b8ff" points="195.3,-221.9 205.9,-221.89 197.61,-215.29 195.3,-221.9"/>
</a>
</g>
</g>
<!-- Node7 -->
<g id="Node000007" class="node">
<title>Node7</title>
<g id="a_Node000007"><a xlink:href="classSwcSegment.html#a54b6c46a62de6fc64b9bd2acf2c13d0b" target="_top" xlink:title=" ">
<polygon fill="white" stroke="#666666" points="309.5,-204 203.5,-204 203.5,-185 309.5,-185 309.5,-204"/>
<text text-anchor="middle" x="256.5" y="-192" font-family="Ubuntu Mono" font-size="10.00">SwcSegment::kids</text>
</a>
</g>
</g>
<!-- Node1&#45;&gt;Node7 -->
<g id="edge6_Node000001_Node000007" class="edge">
<title>Node1&#45;&gt;Node7</title>
<g id="a_edge6_Node000001_Node000007"><a xlink:title=" ">
<path fill="none" stroke="#63b8ff" d="M91.31,-130.01C112.15,-142.21 150.25,-163.36 185,-176.5 190.45,-178.56 196.23,-180.46 202.03,-182.2"/>
<polygon fill="#63b8ff" stroke="#63b8ff" points="201.2,-185.6 211.78,-184.95 203.11,-178.86 201.2,-185.6"/>
</a>
</g>
</g>
<!-- Node8 -->
<g id="Node000008" class="node">
<title>Node8</title>
<g id="a_Node000008"><a xlink:href="classSwcSegment.html#ac0625346df48c8b9952595987f86ce74" target="_top" xlink:title=" ">
<polygon fill="white" stroke="#666666" points="320.5,-167 192.5,-167 192.5,-148 320.5,-148 320.5,-167"/>
<text text-anchor="middle" x="256.5" y="-155" font-family="Ubuntu Mono" font-size="10.00">SwcSegment::myIndex</text>
</a>
</g>
</g>
<!-- Node1&#45;&gt;Node8 -->
<g id="edge7_Node000001_Node000008" class="edge">
<title>Node1&#45;&gt;Node8</title>
<g id="a_edge7_Node000001_Node000008"><a xlink:title=" ">
<path fill="none" stroke="#63b8ff" d="M121.85,-130.03C145.38,-134.86 174.16,-140.78 198.98,-145.88"/>
<polygon fill="#63b8ff" stroke="#63b8ff" points="198.49,-149.35 208.99,-147.94 199.9,-142.5 198.49,-149.35"/>
</a>
</g>
</g>
<!-- Node9 -->
<g id="Node000009" class="node">
<title>Node9</title>
<g id="a_Node000009"><a xlink:href="classSwcSegment.html#a6bd611aed4bd9fde19d0cd1f45bc6b66" target="_top" xlink:title=" ">
<polygon fill="white" stroke="#666666" points="315,-130 198,-130 198,-111 315,-111 315,-130"/>
<text text-anchor="middle" x="256.5" y="-118" font-family="Ubuntu Mono" font-size="10.00">SwcSegment::parent</text>
</a>
</g>
</g>
<!-- Node1&#45;&gt;Node9 -->
<g id="edge8_Node000001_Node000009" class="edge">
<title>Node1&#45;&gt;Node9</title>
<g id="a_edge8_Node000001_Node000009"><a xlink:title=" ">
<path fill="none" stroke="#63b8ff" d="M149.23,-120.5C161.9,-120.5 175.01,-120.5 187.52,-120.5"/>
<polygon fill="#63b8ff" stroke="#63b8ff" points="187.86,-124 197.86,-120.5 187.86,-117 187.86,-124"/>
</a>
</g>
</g>
<!-- Node10 -->
<g id="Node000010" class="node">
<title>Node10</title>
<g id="a_Node000010"><a xlink:href="classSwcSegment.html#a3d6d729aa0bec716cee05a921ed0fe69" target="_top" xlink:title=" ">
<polygon fill="white" stroke="#666666" points="328,-93 185,-93 185,-74 328,-74 328,-93"/>
<text text-anchor="middle" x="256.5" y="-81" font-family="Ubuntu Mono" font-size="10.00">SwcSegment::replaceKids</text>
</a>
</g>
</g>
<!-- Node1&#45;&gt;Node10 -->
<g id="edge9_Node000001_Node000010" class="edge">
<title>Node1&#45;&gt;Node10</title>
<g id="a_edge9_Node000001_Node000010"><a xlink:title=" ">
<path fill="none" stroke="#63b8ff" d="M121.85,-110.97C145.38,-106.14 174.16,-100.22 198.98,-95.12"/>
<polygon fill="#63b8ff" stroke="#63b8ff" points="199.9,-98.5 208.99,-93.06 198.49,-91.65 199.9,-98.5"/>
</a>
</g>
</g>
<!-- Node11 -->
<g id="Node000011" class="node">
<title>Node11</title>
<g id="a_Node000011"><a xlink:href="classSwcSegment.html#ab7dcc01b9fbc2983db690624dcc07fe3" target="_top" xlink:title=" ">
<polygon fill="white" stroke="#666666" points="316,-56 197,-56 197,-37 316,-37 316,-56"/>
<text text-anchor="middle" x="256.5" y="-44" font-family="Ubuntu Mono" font-size="10.00">SwcSegment::setBad</text>
</a>
</g>
</g>
<!-- Node1&#45;&gt;Node11 -->
<g id="edge10_Node000001_Node000011" class="edge">
<title>Node1&#45;&gt;Node11</title>
<g id="a_edge10_Node000001_Node000011"><a xlink:title=" ">
<path fill="none" stroke="#63b8ff" d="M92.09,-110.83C113.13,-98.88 150.81,-78.54 185,-65.5 191.29,-63.1 198,-60.88 204.69,-58.87"/>
<polygon fill="#63b8ff" stroke="#63b8ff" points="205.77,-62.2 214.42,-56.07 203.84,-55.47 205.77,-62.2"/>
</a>
</g>
</g>
<!-- Node12 -->
<g id="Node000012" class="node">
<title>Node12</title>
<g id="a_Node000012"><a xlink:href="classSwcSegment.html#a1ebc959ccd96f2c44002d6c8ae92ea05" target="_top" xlink:title=" ">
<polygon fill="white" stroke="#666666" points="322,-19 191,-19 191,0 322,0 322,-19"/>
<text text-anchor="middle" x="256.5" y="-7" font-family="Ubuntu Mono" font-size="10.00">SwcSegment::setParent</text>
</a>
</g>
</g>
<!-- Node1&#45;&gt;Node12 -->
<g id="edge11_Node000001_Node000012" class="edge">
<title>Node1&#45;&gt;Node12</title>
<g id="a_edge11_Node000001_Node000012"><a xlink:title=" ">
<path fill="none" stroke="#63b8ff" d="M84.14,-110.85C101.43,-92.13 142.3,-50.79 185,-28.5 189.34,-26.24 193.97,-24.22 198.71,-22.44"/>
<polygon fill="#63b8ff" stroke="#63b8ff" points="200.2,-25.63 208.53,-19.08 197.93,-19 200.2,-25.63"/>
</a>
</g>
</g>
<!-- Node3 -->
<g id="Node000003" class="node">
<title>Node3</title>
<g id="a_Node000003"><a xlink:href="classVec.html#a056e27a8b76e7081c3358553f85a54ec" target="_top" xlink:title=" ">
<polygon fill="white" stroke="#666666" points="445,-241 364,-241 364,-222 445,-222 445,-241"/>
<text text-anchor="middle" x="404.5" y="-229" font-family="Ubuntu Mono" font-size="10.00">Vec::distance</text>
</a>
</g>
</g>
<!-- Node2&#45;&gt;Node3 -->
<g id="edge2_Node000002_Node000003" class="edge">
<title>Node2&#45;&gt;Node3</title>
<g id="a_edge2_Node000002_Node000003"><a xlink:title=" ">
<path fill="none" stroke="#63b8ff" d="M320.26,-231.5C331.51,-231.5 343.09,-231.5 353.9,-231.5"/>
<polygon fill="#63b8ff" stroke="#63b8ff" points="353.99,-235 363.99,-231.5 353.99,-228 353.99,-235"/>
</a>
</g>
</g>
<!-- Node4 -->
<g id="Node000004" class="node">
<title>Node4</title>
<g id="a_Node000004"><a xlink:href="classVec.html#a8ca1500a4af59994b8c7014a3916e817" target="_top" xlink:title=" ">
<polygon fill="white" stroke="#666666" points="559,-260 488,-260 488,-241 559,-241 559,-260"/>
<text text-anchor="middle" x="523.5" y="-248" font-family="Ubuntu Mono" font-size="10.00">Vec::length</text>
</a>
</g>
</g>
<!-- Node3&#45;&gt;Node4 -->
<g id="edge3_Node000003_Node000004" class="edge">
<title>Node3&#45;&gt;Node4</title>
<g id="a_edge3_Node000003_Node000004"><a xlink:title=" ">
<path fill="none" stroke="#63b8ff" d="M445.11,-237.93C455.56,-239.63 466.91,-241.47 477.62,-243.21"/>
<polygon fill="#63b8ff" stroke="#63b8ff" points="477.2,-246.69 487.63,-244.84 478.32,-239.78 477.2,-246.69"/>
</a>
</g>
</g>
<!-- Node5 -->
<g id="Node000005" class="node">
<title>Node5</title>
<g id="a_Node000005"><a xlink:href="classVec.html#a01d41ba64075b7b6ceafeb37d0c810b9" target="_top" xlink:title=" ">
<polygon fill="white" stroke="#666666" points="566,-223 481,-223 481,-204 566,-204 566,-223"/>
<text text-anchor="middle" x="523.5" y="-211" font-family="Ubuntu Mono" font-size="10.00">Vec::operator&#45;</text>
</a>
</g>
</g>
<!-- Node3&#45;&gt;Node5 -->
<g id="edge4_Node000003_Node000005" class="edge">
<title>Node3&#45;&gt;Node5</title>
<g id="a_edge4_Node000003_Node000005"><a xlink:title=" ">
<path fill="none" stroke="#63b8ff" d="M445.11,-225.41C453.4,-224.13 462.26,-222.77 470.91,-221.44"/>
<polygon fill="#63b8ff" stroke="#63b8ff" points="471.58,-224.88 480.93,-219.9 470.52,-217.96 471.58,-224.88"/>
</a>
</g>
</g>
<!-- Node6 -->
<g id="Node000006" class="node">
<title>Node6</title>
<g id="a_Node000006"><a xlink:href="classVec.html#ae9852b7e40650f19652ffb59cd664442" target="_top" xlink:title=" ">
<polygon fill="white" stroke="#666666" points="659,-223 602,-223 602,-204 659,-204 659,-223"/>
<text text-anchor="middle" x="630.5" y="-211" font-family="Ubuntu Mono" font-size="10.00">Vec::Vec</text>
</a>
</g>
</g>
<!-- Node5&#45;&gt;Node6 -->
<g id="edge5_Node000005_Node000006" class="edge">
<title>Node5&#45;&gt;Node6</title>
<g id="a_edge5_Node000005_Node000006"><a xlink:title=" ">
<path fill="none" stroke="#63b8ff" d="M566.3,-213.5C574.66,-213.5 583.41,-213.5 591.63,-213.5"/>
<polygon fill="#63b8ff" stroke="#63b8ff" points="591.7,-217 601.7,-213.5 591.7,-210 591.7,-217"/>
</a>
</g>
</g>
</g>
</svg>
