<?xml version="1.0" encoding="UTF-8" standalone="no"?>
<!DOCTYPE svg PUBLIC "-//W3C//DTD SVG 1.1//EN"
 "http://www.w3.org/Graphics/SVG/1.1/DTD/svg11.dtd">
<!-- Generated by graphviz version 2.43.0 (0)
 -->
<!-- Title: NeuroNode::isDummyNode Pages: 1 -->
<svg width="1367pt" height="522pt"
 viewBox="0.00 0.00 1367.00 522.00" xmlns="http://www.w3.org/2000/svg" xmlns:xlink="http://www.w3.org/1999/xlink">
<g id="graph0" class="graph" transform="scale(1 1) rotate(0) translate(4 518)">
<title>NeuroNode::isDummyNode</title>
<!-- Node1 -->
<g id="Node000001" class="node">
<title>Node1</title>
<g id="a_Node000001"><a xlink:title=" ">
<polygon fill="#999999" stroke="#666666" points="1359,-239 1209,-239 1209,-220 1359,-220 1359,-239"/>
<text text-anchor="middle" x="1284" y="-227" font-family="Ubuntu Mono" font-size="10.00">NeuroNode::isDummyNode</text>
</a>
</g>
</g>
<!-- Node2 -->
<g id="Node000002" class="node">
<title>Node2</title>
<g id="a_Node000002"><a xlink:href="classNeuroMesh.html#ae11ad998776b0f40a46ed1fb72db40c6" target="_top" xlink:title=" ">
<polygon fill="white" stroke="#666666" points="1144.5,-438 1031.5,-438 1031.5,-419 1144.5,-419 1144.5,-438"/>
<text text-anchor="middle" x="1088" y="-426" font-family="Ubuntu Mono" font-size="10.00">NeuroMesh::getAdx</text>
</a>
</g>
</g>
<!-- Node1&#45;&gt;Node2 -->
<g id="edge1_Node000001_Node000002" class="edge">
<title>Node1&#45;&gt;Node2</title>
<g id="a_edge1_Node000001_Node000002"><a xlink:title=" ">
<path fill="none" stroke="#63b8ff" d="M1276.17,-249.02C1262.47,-285.28 1228.14,-363.11 1173,-404.5 1164.51,-410.87 1154.38,-415.56 1144.15,-419"/>
<polygon fill="#63b8ff" stroke="#63b8ff" points="1279.62,-249.78 1279.76,-239.18 1273.04,-247.38 1279.62,-249.78"/>
</a>
</g>
</g>
<!-- Node4 -->
<g id="Node000004" class="node">
<title>Node4</title>
<g id="a_Node000004"><a xlink:href="classNeuroMesh.html#a05ab531bca2ba6c4f6ca1a7c875f497e" target="_top" xlink:title=" ">
<polygon fill="white" stroke="#666666" points="747,-438 601,-438 601,-419 747,-419 747,-438"/>
<text text-anchor="middle" x="674" y="-426" font-family="Ubuntu Mono" font-size="10.00">NeuroMesh::updateCoords</text>
</a>
</g>
</g>
<!-- Node1&#45;&gt;Node4 -->
<g id="edge32_Node000001_Node000004" class="edge">
<title>Node1&#45;&gt;Node4</title>
<g id="a_edge32_Node000001_Node000004"><a xlink:title=" ">
<path fill="none" stroke="#63b8ff" d="M1279.99,-249.2C1271.98,-293.95 1245.55,-402.84 1173,-447.5 1015.87,-544.21 774.96,-466.62 698.88,-438"/>
<polygon fill="#63b8ff" stroke="#63b8ff" points="1283.46,-249.72 1281.65,-239.28 1276.55,-248.57 1283.46,-249.72"/>
</a>
</g>
</g>
<!-- Node6 -->
<g id="Node000006" class="node">
<title>Node6</title>
<g id="a_Node000006"><a xlink:href="classNeuroMesh.html#a71aa45e785032672bd4a653c95c1d2fd" target="_top" xlink:title="Inherited virtual func.">
<polygon fill="white" stroke="#666666" points="543,-400 367,-400 367,-381 543,-381 543,-400"/>
<text text-anchor="middle" x="455" y="-388" font-family="Ubuntu Mono" font-size="10.00">NeuroMesh::innerSetNumEntries</text>
</a>
</g>
</g>
<!-- Node1&#45;&gt;Node6 -->
<g id="edge26_Node000001_Node000006" class="edge">
<title>Node1&#45;&gt;Node6</title>
<g id="a_edge26_Node000001_Node000006"><a xlink:title=" ">
<path fill="none" stroke="#63b8ff" d="M1268.54,-246.84C1249.2,-268.77 1212.72,-305.9 1173,-324.5 959.75,-424.37 672.11,-413 535.02,-400.02"/>
<polygon fill="#63b8ff" stroke="#63b8ff" points="1271.21,-249.11 1275.09,-239.25 1265.91,-244.54 1271.21,-249.11"/>
</a>
</g>
</g>
<!-- Node12 -->
<g id="Node000012" class="node">
<title>Node12</title>
<g id="a_Node000012"><a xlink:href="classNeuroMesh.html#ac04d57c04d23f86321ee4dcad29f4e52" target="_top" xlink:title=" ">
<polygon fill="white" stroke="#666666" points="958,-312.5 807,-312.5 807,-282.5 958,-282.5 958,-312.5"/>
<text text-anchor="start" x="815" y="-300.5" font-family="Ubuntu Mono" font-size="10.00">NeuroMesh::getDendVoxels</text>
<text text-anchor="middle" x="882.5" y="-289.5" font-family="Ubuntu Mono" font-size="10.00">OnCompartment</text>
</a>
</g>
</g>
<!-- Node1&#45;&gt;Node12 -->
<g id="edge14_Node000001_Node000012" class="edge">
<title>Node1&#45;&gt;Node12</title>
<g id="a_edge14_Node000001_Node000012"><a xlink:title=" ">
<path fill="none" stroke="#63b8ff" d="M1247.09,-242.43C1225.8,-249.62 1198.16,-258.18 1173,-263.5 1100.84,-278.76 1017,-287.66 958.18,-292.5"/>
<polygon fill="#63b8ff" stroke="#63b8ff" points="1248.37,-245.69 1256.69,-239.13 1246.09,-239.07 1248.37,-245.69"/>
</a>
</g>
</g>
<!-- Node13 -->
<g id="Node000013" class="node">
<title>Node13</title>
<g id="a_Node000013"><a xlink:href="classNeuroMesh.html#a3a2186bf9523dce62a212a0c02183fc5" target="_top" xlink:title=" ">
<polygon fill="white" stroke="#666666" points="537,-259 373,-259 373,-240 537,-240 537,-259"/>
<text text-anchor="middle" x="455" y="-247" font-family="Ubuntu Mono" font-size="10.00">NeuroMesh::getElecComptList</text>
</a>
</g>
</g>
<!-- Node1&#45;&gt;Node13 -->
<g id="edge16_Node000001_Node000013" class="edge">
<title>Node1&#45;&gt;Node13</title>
<g id="a_edge16_Node000001_Node000013"><a xlink:title=" ">
<path fill="none" stroke="#63b8ff" d="M1198.63,-234.4C1189.97,-234.82 1181.31,-235.19 1173,-235.5 942.52,-244.03 670.15,-247.55 537.21,-248.84"/>
<polygon fill="#63b8ff" stroke="#63b8ff" points="1198.94,-237.89 1208.76,-233.9 1198.6,-230.9 1198.94,-237.89"/>
</a>
</g>
</g>
<!-- Node15 -->
<g id="Node000015" class="node">
<title>Node15</title>
<g id="a_Node000015"><a xlink:href="classNeuroMesh.html#a85e4efb7d98274c2a416df98e40b9052" target="_top" xlink:title=" ">
<polygon fill="white" stroke="#666666" points="747.5,-221.5 600.5,-221.5 600.5,-191.5 747.5,-191.5 747.5,-221.5"/>
<text text-anchor="start" x="608.5" y="-209.5" font-family="Ubuntu Mono" font-size="10.00">NeuroMesh::getEndVoxelIn</text>
<text text-anchor="middle" x="674" y="-198.5" font-family="Ubuntu Mono" font-size="10.00">Compt</text>
</a>
</g>
</g>
<!-- Node1&#45;&gt;Node15 -->
<g id="edge20_Node000001_Node000015" class="edge">
<title>Node1&#45;&gt;Node15</title>
<g id="a_edge20_Node000001_Node000015"><a xlink:title=" ">
<path fill="none" stroke="#63b8ff" d="M1198.52,-226.3C1078.61,-221.77 861.08,-213.54 747.87,-209.26"/>
<polygon fill="#63b8ff" stroke="#63b8ff" points="1198.63,-229.81 1208.75,-226.69 1198.89,-222.82 1198.63,-229.81"/>
</a>
</g>
</g>
<!-- Node16 -->
<g id="Node000016" class="node">
<title>Node16</title>
<g id="a_Node000016"><a xlink:href="classNeuroMesh.html#a994ef42f04eaa540c4f3e706e20ec363" target="_top" xlink:title=" ">
<polygon fill="white" stroke="#666666" points="322.5,-173 156.5,-173 156.5,-154 322.5,-154 322.5,-173"/>
<text text-anchor="middle" x="239.5" y="-161" font-family="Ubuntu Mono" font-size="10.00">NeuroMesh::getNumSegments</text>
</a>
</g>
</g>
<!-- Node1&#45;&gt;Node16 -->
<g id="edge22_Node000001_Node000016" class="edge">
<title>Node1&#45;&gt;Node16</title>
<g id="a_edge22_Node000001_Node000016"><a xlink:title=" ">
<path fill="none" stroke="#63b8ff" d="M1201.94,-218.75C1192.2,-217.59 1182.38,-216.47 1173,-215.5 990.72,-196.59 944.94,-193.17 762,-182.5 606.89,-173.45 425.55,-168 322.75,-165.39"/>
<polygon fill="#63b8ff" stroke="#63b8ff" points="1201.7,-222.25 1212.05,-219.98 1202.54,-215.3 1201.7,-222.25"/>
</a>
</g>
</g>
<!-- Node17 -->
<g id="Node000017" class="node">
<title>Node17</title>
<g id="a_Node000017"><a xlink:href="classNeuroMesh.html#a69c3089c425aeb5b459080976ed3d883" target="_top" xlink:title=" ">
<polygon fill="white" stroke="#666666" points="954,-142.5 811,-142.5 811,-112.5 954,-112.5 954,-142.5"/>
<text text-anchor="start" x="819" y="-130.5" font-family="Ubuntu Mono" font-size="10.00">NeuroMesh::getStartVoxel</text>
<text text-anchor="middle" x="882.5" y="-119.5" font-family="Ubuntu Mono" font-size="10.00">InCompt</text>
</a>
</g>
</g>
<!-- Node1&#45;&gt;Node17 -->
<g id="edge24_Node000001_Node000017" class="edge">
<title>Node1&#45;&gt;Node17</title>
<g id="a_edge24_Node000001_Node000017"><a xlink:title=" ">
<path fill="none" stroke="#63b8ff" d="M1264.77,-213.28C1244.12,-195.94 1208.67,-169.23 1173,-156.5 1101.52,-130.98 1014.22,-125.43 954.3,-125.2"/>
<polygon fill="#63b8ff" stroke="#63b8ff" points="1262.56,-215.99 1272.43,-219.85 1267.12,-210.68 1262.56,-215.99"/>
</a>
</g>
</g>
<!-- Node18 -->
<g id="Node000018" class="node">
<title>Node18</title>
<g id="a_Node000018"><a xlink:href="classNeuroMesh.html#adb349d751b4e32371a1818e2895e26f6" target="_top" xlink:title=" ">
<polygon fill="white" stroke="#666666" points="762,-362 586,-362 586,-343 762,-343 762,-362"/>
<text text-anchor="middle" x="674" y="-350" font-family="Ubuntu Mono" font-size="10.00">NeuroMesh::insertDummyNodes</text>
</a>
</g>
</g>
<!-- Node1&#45;&gt;Node18 -->
<g id="edge27_Node000001_Node000018" class="edge">
<title>Node1&#45;&gt;Node18</title>
<g id="a_edge27_Node000001_Node000018"><a xlink:title=" ">
<path fill="none" stroke="#63b8ff" d="M1261.14,-244.72C1239.69,-258.89 1205.56,-279.43 1173,-290.5 1034.63,-337.56 863.77,-349.57 762.41,-352.25"/>
<polygon fill="#63b8ff" stroke="#63b8ff" points="1263.17,-247.58 1269.51,-239.09 1259.26,-241.77 1263.17,-247.58"/>
</a>
</g>
</g>
<!-- Node19 -->
<g id="Node000019" class="node">
<title>Node19</title>
<g id="a_Node000019"><a xlink:href="classNeuroMesh.html#aac516e44929a7cb01361bceae4b7e134" target="_top" xlink:title=" ">
<polygon fill="white" stroke="#666666" points="1168,-104.5 1008,-104.5 1008,-74.5 1168,-74.5 1168,-104.5"/>
<text text-anchor="start" x="1016" y="-92.5" font-family="Ubuntu Mono" font-size="10.00">NeuroMesh::matchCubeMesh</text>
<text text-anchor="middle" x="1088" y="-81.5" font-family="Ubuntu Mono" font-size="10.00">Entries</text>
</a>
</g>
</g>
<!-- Node1&#45;&gt;Node19 -->
<g id="edge29_Node000001_Node000019" class="edge">
<title>Node1&#45;&gt;Node19</title>
<g id="a_edge29_Node000001_Node000019"><a xlink:title=" ">
<path fill="none" stroke="#63b8ff" d="M1269.73,-211.71C1250.78,-187.45 1213.71,-144.09 1173,-118.5 1164.25,-113 1154.32,-108.39 1144.44,-104.59"/>
<polygon fill="#63b8ff" stroke="#63b8ff" points="1267,-213.91 1275.87,-219.72 1272.56,-209.65 1267,-213.91"/>
</a>
</g>
</g>
<!-- Node21 -->
<g id="Node000021" class="node">
<title>Node21</title>
<g id="a_Node000021"><a xlink:href="classNeuroMesh.html#a23d9de4910b03e34288a30fed813fa3f" target="_top" xlink:title=" ">
<polygon fill="white" stroke="#666666" points="1145.5,-56 1030.5,-56 1030.5,-37 1145.5,-37 1145.5,-56"/>
<text text-anchor="middle" x="1088" y="-44" font-family="Ubuntu Mono" font-size="10.00">NeuroMesh::nearest</text>
</a>
</g>
</g>
<!-- Node1&#45;&gt;Node21 -->
<g id="edge31_Node000001_Node000021" class="edge">
<title>Node1&#45;&gt;Node21</title>
<g id="a_edge31_Node000001_Node000021"><a xlink:title=" ">
<path fill="none" stroke="#63b8ff" d="M1275.82,-210.43C1261.73,-175.77 1227.06,-102.58 1173,-65.5 1164.86,-59.92 1155.34,-55.95 1145.68,-53.14"/>
<polygon fill="#63b8ff" stroke="#63b8ff" points="1272.61,-211.85 1279.53,-219.87 1279.13,-209.28 1272.61,-211.85"/>
</a>
</g>
</g>
<!-- Node22 -->
<g id="Node000022" class="node">
<title>Node22</title>
<g id="a_Node000022"><a xlink:href="classNeuroMesh.html#a1f313b79fc22daf70bd1e09f156ce0e9" target="_top" xlink:title="Virtual func so that derived classes can return voxel midpoint.">
<polygon fill="white" stroke="#666666" points="1173,-19 1003,-19 1003,0 1173,0 1173,-19"/>
<text text-anchor="middle" x="1088" y="-7" font-family="Ubuntu Mono" font-size="10.00">NeuroMesh::vGetVoxelMidpoint</text>
</a>
</g>
</g>
<!-- Node1&#45;&gt;Node22 -->
<g id="edge33_Node000001_Node000022" class="edge">
<title>Node1&#45;&gt;Node22</title>
<g id="a_edge33_Node000001_Node000022"><a xlink:title=" ">
<path fill="none" stroke="#63b8ff" d="M1278.2,-209.72C1267.17,-168.77 1236,-74.57 1173,-27.5 1168.46,-24.11 1163.42,-21.33 1158.12,-19.05"/>
<polygon fill="#63b8ff" stroke="#63b8ff" points="1274.85,-210.76 1280.73,-219.57 1281.63,-209.01 1274.85,-210.76"/>
</a>
</g>
</g>
<!-- Node3 -->
<g id="Node000003" class="node">
<title>Node3</title>
<g id="a_Node000003"><a xlink:href="classNeuroMesh.html#ae5cd8716e7247e87c5a528c35e620954" target="_top" xlink:title="Utility function to set up Stencil for diffusion in NeuroMesh.">
<polygon fill="white" stroke="#666666" points="950,-438 815,-438 815,-419 950,-419 950,-438"/>
<text text-anchor="middle" x="882.5" y="-426" font-family="Ubuntu Mono" font-size="10.00">NeuroMesh::buildStencil</text>
</a>
</g>
</g>
<!-- Node2&#45;&gt;Node3 -->
<g id="edge2_Node000002_Node000003" class="edge">
<title>Node2&#45;&gt;Node3</title>
<g id="a_edge2_Node000002_Node000003"><a xlink:title=" ">
<path fill="none" stroke="#63b8ff" d="M1021.17,-428.5C998.47,-428.5 973.03,-428.5 950.26,-428.5"/>
<polygon fill="#63b8ff" stroke="#63b8ff" points="1021.39,-432 1031.39,-428.5 1021.39,-425 1021.39,-432"/>
</a>
</g>
</g>
<!-- Node3&#45;&gt;Node4 -->
<g id="edge3_Node000003_Node000004" class="edge">
<title>Node3&#45;&gt;Node4</title>
<g id="a_edge3_Node000003_Node000004"><a xlink:title=" ">
<path fill="none" stroke="#63b8ff" d="M804.73,-428.5C785.91,-428.5 765.83,-428.5 747.23,-428.5"/>
<polygon fill="#63b8ff" stroke="#63b8ff" points="804.74,-432 814.74,-428.5 804.74,-425 804.74,-432"/>
</a>
</g>
</g>
<!-- Node5 -->
<g id="Node000005" class="node">
<title>Node5</title>
<g id="a_Node000005"><a xlink:href="classNeuroMesh.html#a79cf7938a69c50fb6a126fe68d29ae8f" target="_top" xlink:title="Virtual func to make a mesh with specified size and numEntries.">
<polygon fill="white" stroke="#666666" points="550,-514 360,-514 360,-495 550,-495 550,-514"/>
<text text-anchor="middle" x="455" y="-502" font-family="Ubuntu Mono" font-size="10.00">NeuroMesh::innerBuildDefaultMesh</text>
</a>
</g>
</g>
<!-- Node4&#45;&gt;Node5 -->
<g id="edge4_Node000004_Node000005" class="edge">
<title>Node4&#45;&gt;Node5</title>
<g id="a_edge4_Node000004_Node000005"><a xlink:title=" ">
<path fill="none" stroke="#63b8ff" d="M643.75,-442.33C619.13,-453.62 582.78,-469.46 550,-480.5 533.56,-486.04 515.13,-491.01 498.98,-494.96"/>
<polygon fill="#63b8ff" stroke="#63b8ff" points="645.3,-445.48 652.9,-438.1 642.36,-439.12 645.3,-445.48"/>
</a>
</g>
</g>
<!-- Node4&#45;&gt;Node6 -->
<g id="edge5_Node000004_Node000006" class="edge">
<title>Node4&#45;&gt;Node6</title>
<g id="a_edge5_Node000004_Node000006"><a xlink:title=" ">
<path fill="none" stroke="#63b8ff" d="M608.61,-417.22C577.39,-411.76 540.3,-405.26 510.5,-400.04"/>
<polygon fill="#63b8ff" stroke="#63b8ff" points="608.07,-420.68 618.52,-418.96 609.28,-413.79 608.07,-420.68"/>
</a>
</g>
</g>
<!-- Node7 -->
<g id="Node000007" class="node">
<title>Node7</title>
<g id="a_Node000007"><a xlink:href="classNeuroMesh.html#a5a13798b0f4049fc74b1ffbd4622da5d" target="_top" xlink:title=" ">
<polygon fill="white" stroke="#666666" points="311,-476 168,-476 168,-457 311,-457 311,-476"/>
<text text-anchor="middle" x="239.5" y="-464" font-family="Ubuntu Mono" font-size="10.00">NeuroMesh::setDiffLength</text>
</a>
</g>
</g>
<!-- Node4&#45;&gt;Node7 -->
<g id="edge6_Node000004_Node000007" class="edge">
<title>Node4&#45;&gt;Node7</title>
<g id="a_edge6_Node000004_Node000007"><a xlink:title=" ">
<path fill="none" stroke="#63b8ff" d="M590.59,-439.09C577.04,-440.68 563.14,-442.21 550,-443.5 468.22,-451.52 374.05,-458.15 311.26,-462.19"/>
<polygon fill="#63b8ff" stroke="#63b8ff" points="591.35,-442.53 600.87,-437.87 590.53,-435.58 591.35,-442.53"/>
</a>
</g>
</g>
<!-- Node9 -->
<g id="Node000009" class="node">
<title>Node9</title>
<g id="a_Node000009"><a xlink:href="classNeuroMesh.html#a2fcb1e6932205d672d8e31dd4884da56" target="_top" xlink:title=" ">
<polygon fill="white" stroke="#666666" points="324,-439 155,-439 155,-420 324,-420 324,-439"/>
<text text-anchor="middle" x="239.5" y="-427" font-family="Ubuntu Mono" font-size="10.00">NeuroMesh::setSeparateSpines</text>
</a>
</g>
</g>
<!-- Node4&#45;&gt;Node9 -->
<g id="edge8_Node000004_Node000009" class="edge">
<title>Node4&#45;&gt;Node9</title>
<g id="a_edge8_Node000004_Node000009"><a xlink:title=" ">
<path fill="none" stroke="#63b8ff" d="M590.55,-428.69C514.15,-428.87 401.05,-429.13 324.24,-429.31"/>
<polygon fill="#63b8ff" stroke="#63b8ff" points="590.62,-432.19 600.61,-428.67 590.6,-425.19 590.62,-432.19"/>
</a>
</g>
</g>
<!-- Node10 -->
<g id="Node000010" class="node">
<title>Node10</title>
<g id="a_Node000010"><a xlink:href="classNeuroMesh.html#a35e1c3ce3edeae2652b9d5ee2729f9df" target="_top" xlink:title=" ">
<polygon fill="white" stroke="#666666" points="520.5,-363 389.5,-363 389.5,-344 520.5,-344 520.5,-363"/>
<text text-anchor="middle" x="455" y="-351" font-family="Ubuntu Mono" font-size="10.00">NeuroMesh::setSubTree</text>
</a>
</g>
</g>
<!-- Node4&#45;&gt;Node10 -->
<g id="edge10_Node000004_Node000010" class="edge">
<title>Node4&#45;&gt;Node10</title>
<g id="a_edge10_Node000004_Node000010"><a xlink:title=" ">
<path fill="none" stroke="#63b8ff" d="M646.64,-413.98C622.24,-401.1 584.61,-382.65 550,-371.5 539.64,-368.16 528.43,-365.36 517.48,-363.03"/>
<polygon fill="#63b8ff" stroke="#63b8ff" points="645.16,-417.15 655.63,-418.78 648.46,-410.98 645.16,-417.15"/>
</a>
</g>
</g>
<!-- Node8 -->
<g id="Node000008" class="node">
<title>Node8</title>
<g id="a_Node000008"><a xlink:href="classNeuroMesh.html#a131784a1f5af526113a98464ab4c4357" target="_top" xlink:title=" ">
<polygon fill="white" stroke="#666666" points="119,-306 0,-306 0,-287 119,-287 119,-306"/>
<text text-anchor="middle" x="59.5" y="-294" font-family="Ubuntu Mono" font-size="10.00">NeuroMesh::initCinfo</text>
</a>
</g>
</g>
<!-- Node7&#45;&gt;Node8 -->
<g id="edge7_Node000007_Node000008" class="edge">
<title>Node7&#45;&gt;Node8</title>
<g id="a_edge7_Node000007_Node000008"><a xlink:title=" ">
<path fill="none" stroke="#63b8ff" d="M161.64,-452.63C159.34,-451.37 157.12,-449.99 155,-448.5 101.9,-411.11 72.52,-333.46 63.52,-306.21"/>
<polygon fill="#63b8ff" stroke="#63b8ff" points="160.3,-455.87 170.84,-456.97 163.29,-449.54 160.3,-455.87"/>
</a>
</g>
</g>
<!-- Node9&#45;&gt;Node8 -->
<g id="edge9_Node000009_Node000008" class="edge">
<title>Node9&#45;&gt;Node8</title>
<g id="a_edge9_Node000009_Node000008"><a xlink:title=" ">
<path fill="none" stroke="#63b8ff" d="M177.99,-416.66C169.93,-413.66 162.04,-409.99 155,-405.5 112.99,-378.68 79.19,-327.69 66.22,-306.32"/>
<polygon fill="#63b8ff" stroke="#63b8ff" points="176.88,-419.98 187.48,-419.87 179.13,-413.35 176.88,-419.98"/>
</a>
</g>
</g>
<!-- Node10&#45;&gt;Node8 -->
<g id="edge11_Node000010_Node000008" class="edge">
<title>Node10&#45;&gt;Node8</title>
<g id="a_edge11_Node000010_Node000008"><a xlink:title=" ">
<path fill="none" stroke="#63b8ff" d="M387.45,-364.51C367.14,-367.38 344.71,-370.07 324,-371.5 249.07,-376.66 225.93,-396.22 155,-371.5 117.22,-358.33 83.21,-323.06 68.38,-306"/>
<polygon fill="#63b8ff" stroke="#63b8ff" points="388.15,-367.94 397.54,-363.04 387.15,-361.02 388.15,-367.94"/>
</a>
</g>
</g>
<!-- Node11 -->
<g id="Node000011" class="node">
<title>Node11</title>
<g id="a_Node000011"><a xlink:href="classNeuroMesh.html#a5544eb3267ffffc2ba356d50ec2a4633" target="_top" xlink:title=" ">
<polygon fill="white" stroke="#666666" points="315.5,-363 163.5,-363 163.5,-344 315.5,-344 315.5,-363"/>
<text text-anchor="middle" x="239.5" y="-351" font-family="Ubuntu Mono" font-size="10.00">NeuroMesh::setSubTreePath</text>
</a>
</g>
</g>
<!-- Node10&#45;&gt;Node11 -->
<g id="edge12_Node000010_Node000011" class="edge">
<title>Node10&#45;&gt;Node11</title>
<g id="a_edge12_Node000010_Node000011"><a xlink:title=" ">
<path fill="none" stroke="#63b8ff" d="M379.12,-353.5C358.6,-353.5 336.34,-353.5 315.79,-353.5"/>
<polygon fill="#63b8ff" stroke="#63b8ff" points="379.36,-357 389.36,-353.5 379.36,-350 379.36,-357"/>
</a>
</g>
</g>
<!-- Node11&#45;&gt;Node8 -->
<g id="edge13_Node000011_Node000008" class="edge">
<title>Node11&#45;&gt;Node8</title>
<g id="a_edge13_Node000011_Node000008"><a xlink:title=" ">
<path fill="none" stroke="#63b8ff" d="M193.64,-341.11C181.09,-337.5 167.48,-333.47 155,-329.5 131.82,-322.13 105.73,-312.95 86.84,-306.14"/>
<polygon fill="#63b8ff" stroke="#63b8ff" points="192.85,-344.52 203.43,-343.89 194.77,-337.79 192.85,-344.52"/>
</a>
</g>
</g>
<!-- Node12&#45;&gt;Node8 -->
<g id="edge15_Node000012_Node000008" class="edge">
<title>Node12&#45;&gt;Node8</title>
<g id="a_edge15_Node000012_Node000008"><a xlink:title=" ">
<path fill="none" stroke="#63b8ff" d="M796.61,-297.4C629.57,-297.19 262.07,-296.75 119.06,-296.57"/>
<polygon fill="#63b8ff" stroke="#63b8ff" points="796.83,-300.9 806.83,-297.41 796.83,-293.9 796.83,-300.9"/>
</a>
</g>
</g>
<!-- Node13&#45;&gt;Node8 -->
<g id="edge19_Node000013_Node000008" class="edge">
<title>Node13&#45;&gt;Node8</title>
<g id="a_edge19_Node000013_Node000008"><a xlink:title=" ">
<path fill="none" stroke="#63b8ff" d="M364.43,-260.2C289.27,-269.18 184.08,-281.74 119.21,-289.49"/>
<polygon fill="#63b8ff" stroke="#63b8ff" points="364.86,-263.67 374.37,-259.01 364.02,-256.72 364.86,-263.67"/>
</a>
</g>
</g>
<!-- Node14 -->
<g id="Node000014" class="node">
<title>Node14</title>
<g id="a_Node000014"><a xlink:href="classNeuroMesh.html#ad4b0daae8e17bb41b630d8d03296fe9d" target="_top" xlink:title=" ">
<polygon fill="white" stroke="#666666" points="305.5,-249 173.5,-249 173.5,-230 305.5,-230 305.5,-249"/>
<text text-anchor="middle" x="239.5" y="-237" font-family="Ubuntu Mono" font-size="10.00">NeuroMesh::getSubTree</text>
</a>
</g>
</g>
<!-- Node13&#45;&gt;Node14 -->
<g id="edge17_Node000013_Node000014" class="edge">
<title>Node13&#45;&gt;Node14</title>
<g id="a_edge17_Node000013_Node000014"><a xlink:title=" ">
<path fill="none" stroke="#63b8ff" d="M362.96,-245.24C343.65,-244.33 323.64,-243.39 305.53,-242.55"/>
<polygon fill="#63b8ff" stroke="#63b8ff" points="362.83,-248.73 372.98,-245.71 363.16,-241.74 362.83,-248.73"/>
</a>
</g>
</g>
<!-- Node14&#45;&gt;Node8 -->
<g id="edge18_Node000014_Node000008" class="edge">
<title>Node14&#45;&gt;Node8</title>
<g id="a_edge18_Node000014_Node000008"><a xlink:title=" ">
<path fill="none" stroke="#63b8ff" d="M193.64,-251.89C181.09,-255.5 167.48,-259.53 155,-263.5 131.82,-270.87 105.73,-280.05 86.84,-286.86"/>
<polygon fill="#63b8ff" stroke="#63b8ff" points="194.77,-255.21 203.43,-249.11 192.85,-248.48 194.77,-255.21"/>
</a>
</g>
</g>
<!-- Node15&#45;&gt;Node8 -->
<g id="edge21_Node000015_Node000008" class="edge">
<title>Node15&#45;&gt;Node8</title>
<g id="a_edge21_Node000015_Node000008"><a xlink:title=" ">
<path fill="none" stroke="#63b8ff" d="M590.12,-192.91C485.23,-179.22 300.67,-166.97 155,-220.5 117.26,-234.37 83.23,-269.85 68.38,-286.97"/>
<polygon fill="#63b8ff" stroke="#63b8ff" points="589.96,-196.42 600.33,-194.28 590.89,-189.48 589.96,-196.42"/>
</a>
</g>
</g>
<!-- Node16&#45;&gt;Node8 -->
<g id="edge23_Node000016_Node000008" class="edge">
<title>Node16&#45;&gt;Node8</title>
<g id="a_edge23_Node000016_Node000008"><a xlink:title=" ">
<path fill="none" stroke="#63b8ff" d="M177.99,-176.34C169.93,-179.34 162.04,-183.01 155,-187.5 112.99,-214.32 79.19,-265.31 66.22,-286.68"/>
<polygon fill="#63b8ff" stroke="#63b8ff" points="179.13,-179.65 187.48,-173.13 176.88,-173.02 179.13,-179.65"/>
</a>
</g>
</g>
<!-- Node17&#45;&gt;Node8 -->
<g id="edge25_Node000017_Node000008" class="edge">
<title>Node17&#45;&gt;Node8</title>
<g id="a_edge25_Node000017_Node000008"><a xlink:title=" ">
<path fill="none" stroke="#63b8ff" d="M817.15,-109.96C683.51,-77.4 370.41,-21.46 155,-144.5 98.34,-176.87 71.05,-258.41 63.07,-286.68"/>
<polygon fill="#63b8ff" stroke="#63b8ff" points="816.68,-113.45 827.23,-112.46 818.36,-106.66 816.68,-113.45"/>
</a>
</g>
</g>
<!-- Node18&#45;&gt;Node10 -->
<g id="edge28_Node000018_Node000010" class="edge">
<title>Node18&#45;&gt;Node10</title>
<g id="a_edge28_Node000018_Node000010"><a xlink:title=" ">
<path fill="none" stroke="#63b8ff" d="M575.95,-352.95C557.22,-353.03 538.03,-353.12 520.65,-353.2"/>
<polygon fill="#63b8ff" stroke="#63b8ff" points="576,-356.45 585.99,-352.9 575.97,-349.45 576,-356.45"/>
</a>
</g>
</g>
<!-- Node20 -->
<g id="Node000020" class="node">
<title>Node20</title>
<g id="a_Node000020"><a xlink:href="classNeuroMesh.html#a87f8811cba83e45b1a24c8da92aa0fc0" target="_top" xlink:title=" ">
<polygon fill="white" stroke="#666666" points="967,-94 798,-94 798,-75 967,-75 967,-94"/>
<text text-anchor="middle" x="882.5" y="-82" font-family="Ubuntu Mono" font-size="10.00">NeuroMesh::matchMeshEntries</text>
</a>
</g>
</g>
<!-- Node19&#45;&gt;Node20 -->
<g id="edge30_Node000019_Node000020" class="edge">
<title>Node19&#45;&gt;Node20</title>
<g id="a_edge30_Node000019_Node000020"><a xlink:title=" ">
<path fill="none" stroke="#63b8ff" d="M997.69,-87.31C987.58,-87.06 977.29,-86.8 967.25,-86.56"/>
<polygon fill="#63b8ff" stroke="#63b8ff" points="997.66,-90.81 1007.74,-87.55 997.83,-83.81 997.66,-90.81"/>
</a>
</g>
</g>
</g>
</svg>
