<?xml version="1.0" encoding="UTF-8" standalone="no"?>
<!DOCTYPE svg PUBLIC "-//W3C//DTD SVG 1.1//EN"
 "http://www.w3.org/Graphics/SVG/1.1/DTD/svg11.dtd">
<!-- Generated by graphviz version 2.43.0 (0)
 -->
<!-- Title: Interpol2D::setYdivs Pages: 1 -->
<svg width="398pt" height="64pt"
 viewBox="0.00 0.00 398.00 64.00" xmlns="http://www.w3.org/2000/svg" xmlns:xlink="http://www.w3.org/1999/xlink">

<svg id="main" version="1.1" xmlns="http://www.w3.org/2000/svg" xmlns:xlink="http://www.w3.org/1999/xlink" xml:space="preserve" onload="init(evt)">
<style type="text/css"><![CDATA[
.node, .edge {opacity: 0.7;}
.node.selected, .edge.selected {opacity: 1;}
.edge:hover path { stroke: red; }
.edge:hover polygon { stroke: red; fill: red; }
]]></style>
<script type="application/ecmascript" xlink:href="svg.min.js"/>
<svg id="graph" class="graph">
<g id="graph0" class="graph" transform="scale(1 1) rotate(0) translate(4 60)">
<title>Interpol2D::setYdivs</title>
<!-- Node1 -->
<g id="Node000001" class="node">
<title>Node1</title>
<g id="a_Node000001"><a xlink:title=" ">
<polygon fill="#999999" stroke="#666666" points="115,-37 0,-37 0,-18 115,-18 115,-37"/>
<text text-anchor="middle" x="57.5" y="-25" font-family="Ubuntu Mono" font-size="10.00">Interpol2D::setYdivs</text>
</a>
</g>
</g>
<!-- Node2 -->
<g id="Node000002" class="node">
<title>Node2</title>
<g id="a_Node000002"><a xlink:href="classInterpol2D.html#af1fd19bf90049ff44a29134920d617d3" target="_top" xlink:title=" ">
<polygon fill="white" stroke="#666666" points="254,-37 151,-37 151,-18 254,-18 254,-37"/>
<text text-anchor="middle" x="202.5" y="-25" font-family="Ubuntu Mono" font-size="10.00">Interpol2D::resize</text>
</a>
</g>
</g>
<!-- Node1&#45;&gt;Node2 -->
<g id="edge1_Node000001_Node000002" class="edge">
<title>Node1&#45;&gt;Node2</title>
<g id="a_edge1_Node000001_Node000002"><a xlink:title=" ">
<path fill="none" stroke="#63b8ff" d="M115.02,-27.5C123.45,-27.5 132.18,-27.5 140.7,-27.5"/>
<polygon fill="#63b8ff" stroke="#63b8ff" points="140.96,-31 150.96,-27.5 140.96,-24 140.96,-31"/>
</a>
</g>
</g>
<!-- Node3 -->
<g id="Node000003" class="node">
<title>Node3</title>
<g id="a_Node000003"><a xlink:href="classInterpol2D.html#a707c67882a472ed9bb8aaa93781b6fd3" target="_top" xlink:title=" ">
<polygon fill="white" stroke="#666666" points="390,-56 290,-56 290,-37 390,-37 390,-56"/>
<text text-anchor="middle" x="340" y="-44" font-family="Ubuntu Mono" font-size="10.00">Interpol2D::xdivs</text>
</a>
</g>
</g>
<!-- Node2&#45;&gt;Node3 -->
<g id="edge2_Node000002_Node000003" class="edge">
<title>Node2&#45;&gt;Node3</title>
<g id="a_edge2_Node000002_Node000003"><a xlink:title=" ">
<path fill="none" stroke="#63b8ff" d="M254.34,-34.63C262.56,-35.78 271.14,-36.98 279.54,-38.16"/>
<polygon fill="#63b8ff" stroke="#63b8ff" points="279.28,-41.66 289.67,-39.58 280.26,-34.73 279.28,-41.66"/>
</a>
</g>
</g>
<!-- Node4 -->
<g id="Node000004" class="node">
<title>Node4</title>
<g id="a_Node000004"><a xlink:href="classInterpol2D.html#a3c3f81c6ab85d00cd4822f0746c17760" target="_top" xlink:title=" ">
<polygon fill="white" stroke="#666666" points="390,-19 290,-19 290,0 390,0 390,-19"/>
<text text-anchor="middle" x="340" y="-7" font-family="Ubuntu Mono" font-size="10.00">Interpol2D::ydivs</text>
</a>
</g>
</g>
<!-- Node2&#45;&gt;Node4 -->
<g id="edge3_Node000002_Node000004" class="edge">
<title>Node2&#45;&gt;Node4</title>
<g id="a_edge3_Node000002_Node000004"><a xlink:title=" ">
<path fill="none" stroke="#63b8ff" d="M254.34,-20.75C262.56,-19.65 271.14,-18.51 279.54,-17.4"/>
<polygon fill="#63b8ff" stroke="#63b8ff" points="280.22,-20.84 289.67,-16.05 279.3,-13.9 280.22,-20.84"/>
</a>
</g>
</g>
</g>
</svg>
</svg>

<style type='text/css'>
<![CDATA[
[data-mouse-over-selected='false'] { opacity: 0.7; }
[data-mouse-over-selected='true']  { opacity: 1.0; }
]]>
</style>
<script type="application/ecmascript"><![CDATA[
document.addEventListener('DOMContentLoaded', (event) => {
  highlightEdges();
  highlightAdjacentNodes();
});
]]></script>
</svg>
