<?xml version="1.0" encoding="UTF-8" standalone="no"?>
<!DOCTYPE svg PUBLIC "-//W3C//DTD SVG 1.1//EN"
 "http://www.w3.org/Graphics/SVG/1.1/DTD/svg11.dtd">
<!-- Generated by graphviz version 2.43.0 (0)
 -->
<!-- Title: ChanBase::permeability Pages: 1 -->
<svg width="1270pt" height="935pt"
 viewBox="0.00 0.00 1270.00 935.00" xmlns="http://www.w3.org/2000/svg" xmlns:xlink="http://www.w3.org/1999/xlink">
<g id="graph0" class="graph" transform="scale(1 1) rotate(0) translate(4 931)">
<title>ChanBase::permeability</title>
<!-- Node1 -->
<g id="Node000001" class="node">
<title>Node1</title>
<g id="a_Node000001"><a xlink:title=" ">
<polygon fill="#999999" stroke="#666666" points="1262,-502 1128,-502 1128,-483 1262,-483 1262,-502"/>
<text text-anchor="middle" x="1195" y="-490" font-family="Ubuntu Mono" font-size="10.00">ChanBase::permeability</text>
</a>
</g>
</g>
<!-- Node2 -->
<g id="Node000002" class="node">
<title>Node2</title>
<g id="a_Node000002"><a xlink:href="classChanBase.html#a636dddba7e9e9a4519362a2a94f190bc" target="_top" xlink:title="Specify the Class Info static variable for initialization.">
<polygon fill="white" stroke="#666666" points="1059.5,-761 946.5,-761 946.5,-742 1059.5,-742 1059.5,-761"/>
<text text-anchor="middle" x="1003" y="-749" font-family="Ubuntu Mono" font-size="10.00">ChanBase::initCinfo</text>
</a>
</g>
</g>
<!-- Node1&#45;&gt;Node2 -->
<g id="edge1_Node000001_Node000002" class="edge">
<title>Node1&#45;&gt;Node2</title>
<g id="a_edge1_Node000001_Node000002"><a xlink:title=" ">
<path fill="none" stroke="#63b8ff" d="M1180.92,-510.33C1143.89,-560.8 1039.21,-703.5 1011.05,-741.89"/>
<polygon fill="#63b8ff" stroke="#63b8ff" points="1183.92,-512.16 1187.01,-502.03 1178.28,-508.02 1183.92,-512.16"/>
</a>
</g>
</g>
<!-- Node20 -->
<g id="Node000020" class="node">
<title>Node20</title>
<g id="a_Node000020"><a xlink:href="classChanCommon.html#a80540ed7a8a6ed9e94a7e56f412d4836" target="_top" xlink:title=" ">
<polygon fill="white" stroke="#666666" points="1092,-502 914,-502 914,-483 1092,-483 1092,-502"/>
<text text-anchor="middle" x="1003" y="-490" font-family="Ubuntu Mono" font-size="10.00">ChanCommon::sendProcessMsgs</text>
</a>
</g>
</g>
<!-- Node1&#45;&gt;Node20 -->
<g id="edge19_Node000001_Node000020" class="edge">
<title>Node1&#45;&gt;Node20</title>
<g id="a_edge19_Node000001_Node000020"><a xlink:title=" ">
<path fill="none" stroke="#63b8ff" d="M1117.64,-492.5C1109.21,-492.5 1100.57,-492.5 1092.01,-492.5"/>
<polygon fill="#63b8ff" stroke="#63b8ff" points="1117.81,-496 1127.81,-492.5 1117.81,-489 1117.81,-496"/>
</a>
</g>
</g>
<!-- Node30 -->
<g id="Node000030" class="node">
<title>Node30</title>
<g id="a_Node000030"><a xlink:href="classChanCommon.html#a2c17aa0f9530d2f5737975fc32825b40" target="_top" xlink:title=" ">
<polygon fill="white" stroke="#666666" points="1087.5,-186 918.5,-186 918.5,-167 1087.5,-167 1087.5,-186"/>
<text text-anchor="middle" x="1003" y="-174" font-family="Ubuntu Mono" font-size="10.00">ChanCommon::sendReinitMsgs</text>
</a>
</g>
</g>
<!-- Node1&#45;&gt;Node30 -->
<g id="edge29_Node000001_Node000030" class="edge">
<title>Node1&#45;&gt;Node30</title>
<g id="a_edge29_Node000001_Node000030"><a xlink:title=" ">
<path fill="none" stroke="#63b8ff" d="M1182.87,-474C1147.21,-414.68 1036.5,-230.55 1009.83,-186.19"/>
<polygon fill="#63b8ff" stroke="#63b8ff" points="1179.95,-475.93 1188.11,-482.7 1185.95,-472.32 1179.95,-475.93"/>
</a>
</g>
</g>
<!-- Node3 -->
<g id="Node000003" class="node">
<title>Node3</title>
<g id="a_Node000003"><a xlink:href="classHHChannelBase.html#a953c3941d807e2e680ddb5dcb62abb17" target="_top" xlink:title=" ">
<polygon fill="white" stroke="#666666" points="878,-872 735,-872 735,-853 878,-853 878,-872"/>
<text text-anchor="middle" x="806.5" y="-860" font-family="Ubuntu Mono" font-size="10.00">HHChannelBase::initCinfo</text>
</a>
</g>
</g>
<!-- Node2&#45;&gt;Node3 -->
<g id="edge2_Node000002_Node000003" class="edge">
<title>Node2&#45;&gt;Node3</title>
<g id="a_edge2_Node000002_Node000003"><a xlink:title=" ">
<path fill="none" stroke="#63b8ff" d="M984.5,-768.23C961.75,-789.08 919.93,-824.41 878,-844.5 870.94,-847.88 863.16,-850.68 855.43,-852.99"/>
<polygon fill="#63b8ff" stroke="#63b8ff" points="987.06,-770.63 991.99,-761.25 982.28,-765.51 987.06,-770.63"/>
</a>
</g>
</g>
<!-- Node14 -->
<g id="Node000014" class="node">
<title>Node14</title>
<g id="a_Node000014"><a xlink:href="classHHChannelF2D.html#a64968732fc8e6a6120034cf4641ff118" target="_top" xlink:title=" ">
<polygon fill="white" stroke="#666666" points="875.5,-835 737.5,-835 737.5,-816 875.5,-816 875.5,-835"/>
<text text-anchor="middle" x="806.5" y="-823" font-family="Ubuntu Mono" font-size="10.00">HHChannelF2D::initCinfo</text>
</a>
</g>
</g>
<!-- Node2&#45;&gt;Node14 -->
<g id="edge13_Node000002_Node000014" class="edge">
<title>Node2&#45;&gt;Node14</title>
<g id="a_edge13_Node000002_Node000014"><a xlink:title=" ">
<path fill="none" stroke="#63b8ff" d="M974.36,-765.66C949.6,-777.94 912.05,-795.57 878,-807.5 869.06,-810.63 859.31,-813.48 849.98,-815.93"/>
<polygon fill="#63b8ff" stroke="#63b8ff" points="976.14,-768.69 983.51,-761.08 973,-762.43 976.14,-768.69"/>
</a>
</g>
</g>
<!-- Node15 -->
<g id="Node000015" class="node">
<title>Node15</title>
<g id="a_Node000015"><a xlink:href="classLeakage.html#a3b26eb8a3324072970f5b758a1c30bd7" target="_top" xlink:title=" ">
<polygon fill="white" stroke="#666666" points="858.5,-798 754.5,-798 754.5,-779 858.5,-779 858.5,-798"/>
<text text-anchor="middle" x="806.5" y="-786" font-family="Ubuntu Mono" font-size="10.00">Leakage::initCinfo</text>
</a>
</g>
</g>
<!-- Node2&#45;&gt;Node15 -->
<g id="edge14_Node000002_Node000015" class="edge">
<title>Node2&#45;&gt;Node15</title>
<g id="a_edge14_Node000002_Node000015"><a xlink:title=" ">
<path fill="none" stroke="#63b8ff" d="M941.82,-762.95C914.86,-768.08 883.43,-774.06 857.76,-778.94"/>
<polygon fill="#63b8ff" stroke="#63b8ff" points="942.74,-766.34 951.91,-761.03 941.43,-759.46 942.74,-766.34"/>
</a>
</g>
</g>
<!-- Node16 -->
<g id="Node000016" class="node">
<title>Node16</title>
<g id="a_Node000016"><a xlink:href="classMarkovChannel.html#a0e2c70f630a9a7ac4c148ecac03befb7" target="_top" xlink:title=" ">
<polygon fill="white" stroke="#666666" points="876.5,-761 736.5,-761 736.5,-742 876.5,-742 876.5,-761"/>
<text text-anchor="middle" x="806.5" y="-749" font-family="Ubuntu Mono" font-size="10.00">MarkovChannel::initCinfo</text>
</a>
</g>
</g>
<!-- Node2&#45;&gt;Node16 -->
<g id="edge15_Node000002_Node000016" class="edge">
<title>Node2&#45;&gt;Node16</title>
<g id="a_edge15_Node000002_Node000016"><a xlink:title=" ">
<path fill="none" stroke="#63b8ff" d="M936.15,-751.5C917.02,-751.5 896.08,-751.5 876.75,-751.5"/>
<polygon fill="#63b8ff" stroke="#63b8ff" points="936.26,-755 946.26,-751.5 936.26,-748 936.26,-755"/>
</a>
</g>
</g>
<!-- Node17 -->
<g id="Node000017" class="node">
<title>Node17</title>
<g id="a_Node000017"><a xlink:href="classMgBlock.html#afad71753a9f36d740bfa2baa735c2e30" target="_top" xlink:title=" ">
<polygon fill="white" stroke="#666666" points="859.5,-724 753.5,-724 753.5,-705 859.5,-705 859.5,-724"/>
<text text-anchor="middle" x="806.5" y="-712" font-family="Ubuntu Mono" font-size="10.00">MgBlock::initCinfo</text>
</a>
</g>
</g>
<!-- Node2&#45;&gt;Node17 -->
<g id="edge16_Node000002_Node000017" class="edge">
<title>Node2&#45;&gt;Node17</title>
<g id="a_edge16_Node000002_Node000017"><a xlink:title=" ">
<path fill="none" stroke="#63b8ff" d="M941.82,-740.05C914.86,-734.92 883.43,-728.94 857.76,-724.06"/>
<polygon fill="#63b8ff" stroke="#63b8ff" points="941.43,-743.54 951.91,-741.97 942.74,-736.66 941.43,-743.54"/>
</a>
</g>
</g>
<!-- Node18 -->
<g id="Node000018" class="node">
<title>Node18</title>
<g id="a_Node000018"><a xlink:href="classSynChan.html#a6ca0e46ff23f036048bd93d314b730f7" target="_top" xlink:title=" ">
<polygon fill="white" stroke="#666666" points="860,-687 753,-687 753,-668 860,-668 860,-687"/>
<text text-anchor="middle" x="806.5" y="-675" font-family="Ubuntu Mono" font-size="10.00">SynChan::initCinfo</text>
</a>
</g>
</g>
<!-- Node2&#45;&gt;Node18 -->
<g id="edge17_Node000002_Node000018" class="edge">
<title>Node2&#45;&gt;Node18</title>
<g id="a_edge17_Node000002_Node000018"><a xlink:title=" ">
<path fill="none" stroke="#63b8ff" d="M973.86,-737.52C949.05,-725.56 911.71,-708.44 878,-696.5 868.2,-693.03 857.45,-689.83 847.35,-687.09"/>
<polygon fill="#63b8ff" stroke="#63b8ff" points="972.52,-740.76 983.04,-741.99 975.58,-734.47 972.52,-740.76"/>
</a>
</g>
</g>
<!-- Node4 -->
<g id="Node000004" class="node">
<title>Node4</title>
<g id="a_Node000004"><a xlink:href="classHHChannel.html#a8b1b7177a3d0b0c06b671d9d1242a4ec" target="_top" xlink:title=" ">
<polygon fill="white" stroke="#666666" points="680.5,-927 561.5,-927 561.5,-908 680.5,-908 680.5,-927"/>
<text text-anchor="middle" x="621" y="-915" font-family="Ubuntu Mono" font-size="10.00">HHChannel::initCinfo</text>
</a>
</g>
</g>
<!-- Node3&#45;&gt;Node4 -->
<g id="edge3_Node000003_Node000004" class="edge">
<title>Node3&#45;&gt;Node4</title>
<g id="a_edge3_Node000003_Node000004"><a xlink:title=" ">
<path fill="none" stroke="#63b8ff" d="M770.74,-875.61C750.07,-883.15 723.23,-892.48 699,-899.5 688.58,-902.52 677.26,-905.39 666.59,-907.91"/>
<polygon fill="#63b8ff" stroke="#63b8ff" points="772.17,-878.81 780.35,-872.07 769.75,-872.24 772.17,-878.81"/>
</a>
</g>
</g>
<!-- Node7 -->
<g id="Node000007" class="node">
<title>Node7</title>
<g id="a_Node000007"><a xlink:href="classHHChannel2D.html#a5800af098b3e10bdf6563db3504e2cae" target="_top" xlink:title=" ">
<polygon fill="white" stroke="#666666" points="687,-890 555,-890 555,-871 687,-871 687,-890"/>
<text text-anchor="middle" x="621" y="-878" font-family="Ubuntu Mono" font-size="10.00">HHChannel2D::initCinfo</text>
</a>
</g>
</g>
<!-- Node3&#45;&gt;Node7 -->
<g id="edge6_Node000003_Node000007" class="edge">
<title>Node3&#45;&gt;Node7</title>
<g id="a_edge6_Node000003_Node000007"><a xlink:title=" ">
<path fill="none" stroke="#63b8ff" d="M724.82,-870.41C712.25,-871.65 699.4,-872.91 687.23,-874.1"/>
<polygon fill="#63b8ff" stroke="#63b8ff" points="725.21,-873.89 734.82,-869.43 724.52,-866.93 725.21,-873.89"/>
</a>
</g>
</g>
<!-- Node8 -->
<g id="Node000008" class="node">
<title>Node8</title>
<g id="a_Node000008"><a xlink:href="classHHChannelF.html#af43d8d675a9077568a5d4a0f8f1990b1" target="_top" xlink:title=" ">
<polygon fill="white" stroke="#666666" points="683,-853 559,-853 559,-834 683,-834 683,-853"/>
<text text-anchor="middle" x="621" y="-841" font-family="Ubuntu Mono" font-size="10.00">HHChannelF::initCinfo</text>
</a>
</g>
</g>
<!-- Node3&#45;&gt;Node8 -->
<g id="edge7_Node000003_Node000008" class="edge">
<title>Node3&#45;&gt;Node8</title>
<g id="a_edge7_Node000003_Node000008"><a xlink:title=" ">
<path fill="none" stroke="#63b8ff" d="M724.72,-854.14C710.75,-852.69 696.43,-851.21 683.08,-849.82"/>
<polygon fill="#63b8ff" stroke="#63b8ff" points="724.51,-857.63 734.82,-855.18 725.23,-850.67 724.51,-857.63"/>
</a>
</g>
</g>
<!-- Node9 -->
<g id="Node000009" class="node">
<title>Node9</title>
<g id="a_Node000009"><a xlink:href="classZombieHHChannel.html#a053651075b45b62fe292f13cf25cc4fa" target="_top" xlink:title=" ">
<polygon fill="white" stroke="#666666" points="699,-816 543,-816 543,-797 699,-797 699,-816"/>
<text text-anchor="middle" x="621" y="-804" font-family="Ubuntu Mono" font-size="10.00">ZombieHHChannel::initCinfo</text>
</a>
</g>
</g>
<!-- Node3&#45;&gt;Node9 -->
<g id="edge8_Node000003_Node000009" class="edge">
<title>Node3&#45;&gt;Node9</title>
<g id="a_edge8_Node000003_Node000009"><a xlink:title=" ">
<path fill="none" stroke="#63b8ff" d="M751.34,-850.07C745.77,-848.37 740.23,-846.52 735,-844.5 718.12,-837.99 715.91,-831.94 699,-825.5 689.35,-821.83 678.74,-818.67 668.57,-816.05"/>
<polygon fill="#63b8ff" stroke="#63b8ff" points="750.8,-853.55 761.37,-852.94 752.72,-846.82 750.8,-853.55"/>
</a>
</g>
</g>
<!-- Node5 -->
<g id="Node000005" class="node">
<title>Node5</title>
<g id="a_Node000005"><a xlink:href="classHSolve.html#a423981576f253b33c6e9091cb3ae0ea6" target="_top" xlink:title=" ">
<polygon fill="white" stroke="#666666" points="507,-927 399,-927 399,-908 507,-908 507,-927"/>
<text text-anchor="middle" x="453" y="-915" font-family="Ubuntu Mono" font-size="10.00">HSolve::unzombify</text>
</a>
</g>
</g>
<!-- Node4&#45;&gt;Node5 -->
<g id="edge4_Node000004_Node000005" class="edge">
<title>Node4&#45;&gt;Node5</title>
<g id="a_edge4_Node000004_Node000005"><a xlink:title=" ">
<path fill="none" stroke="#63b8ff" d="M551.35,-917.5C536.55,-917.5 521.11,-917.5 507.01,-917.5"/>
<polygon fill="#63b8ff" stroke="#63b8ff" points="551.47,-921 561.47,-917.5 551.47,-914 551.47,-921"/>
</a>
</g>
</g>
<!-- Node6 -->
<g id="Node000006" class="node">
<title>Node6</title>
<g id="a_Node000006"><a xlink:href="classHSolve.html#a1fadf7cb757bf5669e45b6a95433e1ee" target="_top" xlink:title=" ">
<polygon fill="white" stroke="#666666" points="363,-927 263,-927 263,-908 363,-908 363,-927"/>
<text text-anchor="middle" x="313" y="-915" font-family="Ubuntu Mono" font-size="10.00">HSolve::~HSolve</text>
</a>
</g>
</g>
<!-- Node5&#45;&gt;Node6 -->
<g id="edge5_Node000005_Node000006" class="edge">
<title>Node5&#45;&gt;Node6</title>
<g id="a_edge5_Node000005_Node000006"><a xlink:title=" ">
<path fill="none" stroke="#63b8ff" d="M388.39,-917.5C379.91,-917.5 371.33,-917.5 363.15,-917.5"/>
<polygon fill="#63b8ff" stroke="#63b8ff" points="388.65,-921 398.65,-917.5 388.65,-914 388.65,-921"/>
</a>
</g>
</g>
<!-- Node10 -->
<g id="Node000010" class="node">
<title>Node10</title>
<g id="a_Node000010"><a xlink:href="classHSolve.html#aa86d341407e0eb9928b085c9df38b06c" target="_top" xlink:title=" ">
<polygon fill="white" stroke="#666666" points="501,-816 405,-816 405,-797 501,-797 501,-816"/>
<text text-anchor="middle" x="453" y="-804" font-family="Ubuntu Mono" font-size="10.00">HSolve::zombify</text>
</a>
</g>
</g>
<!-- Node9&#45;&gt;Node10 -->
<g id="edge9_Node000009_Node000010" class="edge">
<title>Node9&#45;&gt;Node10</title>
<g id="a_edge9_Node000009_Node000010"><a xlink:title=" ">
<path fill="none" stroke="#63b8ff" d="M532.81,-806.5C521.91,-806.5 511.11,-806.5 501.15,-806.5"/>
<polygon fill="#63b8ff" stroke="#63b8ff" points="532.83,-810 542.83,-806.5 532.83,-803 532.83,-810"/>
</a>
</g>
</g>
<!-- Node11 -->
<g id="Node000011" class="node">
<title>Node11</title>
<g id="a_Node000011"><a xlink:href="classHSolve.html#a2e768e9eb17b2c732c9129c018889f79" target="_top" xlink:title=" ">
<polygon fill="white" stroke="#666666" points="355,-816 271,-816 271,-797 355,-797 355,-816"/>
<text text-anchor="middle" x="313" y="-804" font-family="Ubuntu Mono" font-size="10.00">HSolve::setup</text>
</a>
</g>
</g>
<!-- Node10&#45;&gt;Node11 -->
<g id="edge10_Node000010_Node000011" class="edge">
<title>Node10&#45;&gt;Node11</title>
<g id="a_edge10_Node000010_Node000011"><a xlink:title=" ">
<path fill="none" stroke="#63b8ff" d="M394.52,-806.5C381.38,-806.5 367.66,-806.5 355.36,-806.5"/>
<polygon fill="#63b8ff" stroke="#63b8ff" points="394.89,-810 404.89,-806.5 394.89,-803 394.89,-810"/>
</a>
</g>
</g>
<!-- Node12 -->
<g id="Node000012" class="node">
<title>Node12</title>
<g id="a_Node000012"><a xlink:href="classHSolve.html#a4d36de840ae2ff289981e77f779eb9dc" target="_top" xlink:title=" ">
<polygon fill="white" stroke="#666666" points="227,-816 134,-816 134,-797 227,-797 227,-816"/>
<text text-anchor="middle" x="180.5" y="-804" font-family="Ubuntu Mono" font-size="10.00">HSolve::setPath</text>
</a>
</g>
</g>
<!-- Node11&#45;&gt;Node12 -->
<g id="edge11_Node000011_Node000012" class="edge">
<title>Node11&#45;&gt;Node12</title>
<g id="a_edge11_Node000011_Node000012"><a xlink:title=" ">
<path fill="none" stroke="#63b8ff" d="M260.71,-806.5C249.6,-806.5 237.92,-806.5 227.05,-806.5"/>
<polygon fill="#63b8ff" stroke="#63b8ff" points="260.71,-810 270.71,-806.5 260.71,-803 260.71,-810"/>
</a>
</g>
</g>
<!-- Node13 -->
<g id="Node000013" class="node">
<title>Node13</title>
<g id="a_Node000013"><a xlink:href="classHSolve.html#a3d60964bbc6441f73c04fe702faba848" target="_top" xlink:title="Interface to external channels.">
<polygon fill="white" stroke="#666666" points="98,-816 0,-816 0,-797 98,-797 98,-816"/>
<text text-anchor="middle" x="49" y="-804" font-family="Ubuntu Mono" font-size="10.00">HSolve::initCinfo</text>
</a>
</g>
</g>
<!-- Node12&#45;&gt;Node13 -->
<g id="edge12_Node000012_Node000013" class="edge">
<title>Node12&#45;&gt;Node13</title>
<g id="a_edge12_Node000012_Node000013"><a xlink:title=" ">
<path fill="none" stroke="#63b8ff" d="M123.68,-806.5C115.24,-806.5 106.59,-806.5 98.32,-806.5"/>
<polygon fill="#63b8ff" stroke="#63b8ff" points="123.84,-810 133.84,-806.5 123.84,-803 123.84,-810"/>
</a>
</g>
</g>
<!-- Node19 -->
<g id="Node000019" class="node">
<title>Node19</title>
<g id="a_Node000019"><a xlink:href="classNMDAChan.html#ad62ade9d8d46e00e9c4e74e647d4ce3f" target="_top" xlink:title=" ">
<polygon fill="white" stroke="#666666" points="680.5,-687 561.5,-687 561.5,-668 680.5,-668 680.5,-687"/>
<text text-anchor="middle" x="621" y="-675" font-family="Ubuntu Mono" font-size="10.00">NMDAChan::initCinfo</text>
</a>
</g>
</g>
<!-- Node18&#45;&gt;Node19 -->
<g id="edge18_Node000018_Node000019" class="edge">
<title>Node18&#45;&gt;Node19</title>
<g id="a_edge18_Node000018_Node000019"><a xlink:title=" ">
<path fill="none" stroke="#63b8ff" d="M742.91,-677.5C722.78,-677.5 700.56,-677.5 680.72,-677.5"/>
<polygon fill="#63b8ff" stroke="#63b8ff" points="742.92,-681 752.92,-677.5 742.92,-674 742.92,-681"/>
</a>
</g>
</g>
<!-- Node21 -->
<g id="Node000021" class="node">
<title>Node21</title>
<g id="a_Node000021"><a xlink:href="classMarkovChannel.html#a8929ca21a4a6d5536fdc5e267d68fc22" target="_top" xlink:title=" ">
<polygon fill="white" stroke="#666666" points="877.5,-650 735.5,-650 735.5,-631 877.5,-631 877.5,-650"/>
<text text-anchor="middle" x="806.5" y="-638" font-family="Ubuntu Mono" font-size="10.00">MarkovChannel::vProcess</text>
</a>
</g>
</g>
<!-- Node20&#45;&gt;Node21 -->
<g id="edge20_Node000020_Node000021" class="edge">
<title>Node20&#45;&gt;Node21</title>
<g id="a_edge20_Node000020_Node000021"><a xlink:title=" ">
<path fill="none" stroke="#63b8ff" d="M989.9,-510.6C970,-538.93 927.58,-593.48 878,-622.5 872.22,-625.88 865.81,-628.63 859.29,-630.87"/>
<polygon fill="#63b8ff" stroke="#63b8ff" points="992.98,-512.3 995.77,-502.08 987.22,-508.33 992.98,-512.3"/>
</a>
</g>
</g>
<!-- Node22 -->
<g id="Node000022" class="node">
<title>Node22</title>
<g id="a_Node000022"><a xlink:href="classLeakage.html#a64c688e05541a2e423506e88695447ef" target="_top" xlink:title=" ">
<polygon fill="white" stroke="#666666" points="860,-613 753,-613 753,-594 860,-594 860,-613"/>
<text text-anchor="middle" x="806.5" y="-601" font-family="Ubuntu Mono" font-size="10.00">Leakage::vProcess</text>
</a>
</g>
</g>
<!-- Node20&#45;&gt;Node22 -->
<g id="edge21_Node000020_Node000022" class="edge">
<title>Node20&#45;&gt;Node22</title>
<g id="a_edge21_Node000020_Node000022"><a xlink:title=" ">
<path fill="none" stroke="#63b8ff" d="M984.5,-509.23C961.75,-530.08 919.93,-565.41 878,-585.5 870.94,-588.88 863.16,-591.68 855.43,-593.99"/>
<polygon fill="#63b8ff" stroke="#63b8ff" points="987.06,-511.63 991.99,-502.25 982.28,-506.51 987.06,-511.63"/>
</a>
</g>
</g>
<!-- Node23 -->
<g id="Node000023" class="node">
<title>Node23</title>
<g id="a_Node000023"><a xlink:href="classMgBlock.html#a3dc6a1ad4f59b934996ab4114aac9314" target="_top" xlink:title=" ">
<polygon fill="white" stroke="#666666" points="860.5,-576 752.5,-576 752.5,-557 860.5,-557 860.5,-576"/>
<text text-anchor="middle" x="806.5" y="-564" font-family="Ubuntu Mono" font-size="10.00">MgBlock::vProcess</text>
</a>
</g>
</g>
<!-- Node20&#45;&gt;Node23 -->
<g id="edge22_Node000020_Node000023" class="edge">
<title>Node20&#45;&gt;Node23</title>
<g id="a_edge22_Node000020_Node000023"><a xlink:title=" ">
<path fill="none" stroke="#63b8ff" d="M974.36,-506.66C949.6,-518.94 912.05,-536.57 878,-548.5 869.06,-551.63 859.31,-554.48 849.98,-556.93"/>
<polygon fill="#63b8ff" stroke="#63b8ff" points="976.14,-509.69 983.51,-502.08 973,-503.43 976.14,-509.69"/>
</a>
</g>
</g>
<!-- Node24 -->
<g id="Node000024" class="node">
<title>Node24</title>
<g id="a_Node000024"><a xlink:href="classNMDAChan.html#aadca066254470dd63ca3ed4d8c1097c0" target="_top" xlink:title=" ">
<polygon fill="white" stroke="#666666" points="867.5,-539 745.5,-539 745.5,-520 867.5,-520 867.5,-539"/>
<text text-anchor="middle" x="806.5" y="-527" font-family="Ubuntu Mono" font-size="10.00">NMDAChan::vProcess</text>
</a>
</g>
</g>
<!-- Node20&#45;&gt;Node24 -->
<g id="edge23_Node000020_Node000024" class="edge">
<title>Node20&#45;&gt;Node24</title>
<g id="a_edge23_Node000020_Node000024"><a xlink:title=" ">
<path fill="none" stroke="#63b8ff" d="M941.82,-503.95C914.86,-509.08 883.43,-515.06 857.76,-519.94"/>
<polygon fill="#63b8ff" stroke="#63b8ff" points="942.74,-507.34 951.91,-502.03 941.43,-500.46 942.74,-507.34"/>
</a>
</g>
</g>
<!-- Node25 -->
<g id="Node000025" class="node">
<title>Node25</title>
<g id="a_Node000025"><a xlink:href="classSynChan.html#a56c4fffde4f60d1dac01fb35b01ea2e1" target="_top" xlink:title=" ">
<polygon fill="white" stroke="#666666" points="861,-502 752,-502 752,-483 861,-483 861,-502"/>
<text text-anchor="middle" x="806.5" y="-490" font-family="Ubuntu Mono" font-size="10.00">SynChan::vProcess</text>
</a>
</g>
</g>
<!-- Node20&#45;&gt;Node25 -->
<g id="edge24_Node000020_Node000025" class="edge">
<title>Node20&#45;&gt;Node25</title>
<g id="a_edge24_Node000020_Node000025"><a xlink:title=" ">
<path fill="none" stroke="#63b8ff" d="M903.71,-492.5C889.03,-492.5 874.39,-492.5 861.11,-492.5"/>
<polygon fill="#63b8ff" stroke="#63b8ff" points="903.86,-496 913.86,-492.5 903.86,-489 903.86,-496"/>
</a>
</g>
</g>
<!-- Node26 -->
<g id="Node000026" class="node">
<title>Node26</title>
<g id="a_Node000026"><a xlink:href="classHHChannel.html#ae4ae24e811e1d298a9ea5e1129d40c44" target="_top" xlink:title=" ">
<polygon fill="white" stroke="#666666" points="867,-465 746,-465 746,-446 867,-446 867,-465"/>
<text text-anchor="middle" x="806.5" y="-453" font-family="Ubuntu Mono" font-size="10.00">HHChannel::vProcess</text>
</a>
</g>
</g>
<!-- Node20&#45;&gt;Node26 -->
<g id="edge25_Node000020_Node000026" class="edge">
<title>Node20&#45;&gt;Node26</title>
<g id="a_edge25_Node000020_Node000026"><a xlink:title=" ">
<path fill="none" stroke="#63b8ff" d="M941.82,-481.05C914.86,-475.92 883.43,-469.94 857.76,-465.06"/>
<polygon fill="#63b8ff" stroke="#63b8ff" points="941.43,-484.54 951.91,-482.97 942.74,-477.66 941.43,-484.54"/>
</a>
</g>
</g>
<!-- Node27 -->
<g id="Node000027" class="node">
<title>Node27</title>
<g id="a_Node000027"><a xlink:href="classHHChannel2D.html#a64e960ca945790fe2bcf5dc4eee15da7" target="_top" xlink:title=" ">
<polygon fill="white" stroke="#666666" points="873.5,-428 739.5,-428 739.5,-409 873.5,-409 873.5,-428"/>
<text text-anchor="middle" x="806.5" y="-416" font-family="Ubuntu Mono" font-size="10.00">HHChannel2D::vProcess</text>
</a>
</g>
</g>
<!-- Node20&#45;&gt;Node27 -->
<g id="edge26_Node000020_Node000027" class="edge">
<title>Node20&#45;&gt;Node27</title>
<g id="a_edge26_Node000020_Node000027"><a xlink:title=" ">
<path fill="none" stroke="#63b8ff" d="M973.86,-478.52C949.05,-466.56 911.71,-449.44 878,-437.5 868.2,-434.03 857.45,-430.83 847.35,-428.09"/>
<polygon fill="#63b8ff" stroke="#63b8ff" points="972.52,-481.76 983.04,-482.99 975.58,-475.47 972.52,-481.76"/>
</a>
</g>
</g>
<!-- Node28 -->
<g id="Node000028" class="node">
<title>Node28</title>
<g id="a_Node000028"><a xlink:href="classHHChannelF.html#a25e78903e8ef9db5190db05f3491764c" target="_top" xlink:title=" ">
<polygon fill="white" stroke="#666666" points="869.5,-391 743.5,-391 743.5,-372 869.5,-372 869.5,-391"/>
<text text-anchor="middle" x="806.5" y="-379" font-family="Ubuntu Mono" font-size="10.00">HHChannelF::vProcess</text>
</a>
</g>
</g>
<!-- Node20&#45;&gt;Node28 -->
<g id="edge27_Node000020_Node000028" class="edge">
<title>Node20&#45;&gt;Node28</title>
<g id="a_edge27_Node000020_Node000028"><a xlink:title=" ">
<path fill="none" stroke="#63b8ff" d="M984.43,-476.05C961.59,-455.53 919.69,-420.68 878,-400.5 870.13,-396.69 861.38,-393.55 852.79,-391"/>
<polygon fill="#63b8ff" stroke="#63b8ff" points="982.19,-478.75 991.94,-482.91 986.91,-473.58 982.19,-478.75"/>
</a>
</g>
</g>
<!-- Node29 -->
<g id="Node000029" class="node">
<title>Node29</title>
<g id="a_Node000029"><a xlink:href="classHHChannelF2D.html#a5a5c1e86bca6c7b641de84a2fe651e04" target="_top" xlink:title=" ">
<polygon fill="white" stroke="#666666" points="876.5,-354 736.5,-354 736.5,-335 876.5,-335 876.5,-354"/>
<text text-anchor="middle" x="806.5" y="-342" font-family="Ubuntu Mono" font-size="10.00">HHChannelF2D::vProcess</text>
</a>
</g>
</g>
<!-- Node20&#45;&gt;Node29 -->
<g id="edge28_Node000020_Node000029" class="edge">
<title>Node20&#45;&gt;Node29</title>
<g id="a_edge28_Node000020_Node000029"><a xlink:title=" ">
<path fill="none" stroke="#63b8ff" d="M989.53,-474.2C969.4,-446.09 927,-392.49 878,-363.5 871.45,-359.63 864.1,-356.53 856.69,-354.05"/>
<polygon fill="#63b8ff" stroke="#63b8ff" points="986.87,-476.51 995.48,-482.69 992.6,-472.49 986.87,-476.51"/>
</a>
</g>
</g>
<!-- Node31 -->
<g id="Node000031" class="node">
<title>Node31</title>
<g id="a_Node000031"><a xlink:href="classMarkovChannel.html#aa6f0cc5bd632d6f13f64980fafc7a541" target="_top" xlink:title=" ">
<polygon fill="white" stroke="#666666" points="873,-317 740,-317 740,-298 873,-298 873,-317"/>
<text text-anchor="middle" x="806.5" y="-305" font-family="Ubuntu Mono" font-size="10.00">MarkovChannel::vReinit</text>
</a>
</g>
</g>
<!-- Node30&#45;&gt;Node31 -->
<g id="edge30_Node000030_Node000031" class="edge">
<title>Node30&#45;&gt;Node31</title>
<g id="a_edge30_Node000030_Node000031"><a xlink:title=" ">
<path fill="none" stroke="#63b8ff" d="M987.83,-193.97C966.61,-218.96 924.1,-264.65 878,-289.5 871.66,-292.92 864.65,-295.71 857.58,-297.97"/>
<polygon fill="#63b8ff" stroke="#63b8ff" points="990.71,-195.98 994.42,-186.06 985.33,-191.5 990.71,-195.98"/>
</a>
</g>
</g>
<!-- Node32 -->
<g id="Node000032" class="node">
<title>Node32</title>
<g id="a_Node000032"><a xlink:href="classLeakage.html#a558d13b93c902a33852b9a8d0b3c643f" target="_top" xlink:title=" ">
<polygon fill="white" stroke="#666666" points="855.5,-280 757.5,-280 757.5,-261 855.5,-261 855.5,-280"/>
<text text-anchor="middle" x="806.5" y="-268" font-family="Ubuntu Mono" font-size="10.00">Leakage::vReinit</text>
</a>
</g>
</g>
<!-- Node30&#45;&gt;Node32 -->
<g id="edge31_Node000030_Node000032" class="edge">
<title>Node30&#45;&gt;Node32</title>
<g id="a_edge31_Node000030_Node000032"><a xlink:title=" ">
<path fill="none" stroke="#63b8ff" d="M981.03,-192.08C957.19,-209.13 916.56,-236.2 878,-252.5 870.2,-255.8 861.66,-258.6 853.29,-260.94"/>
<polygon fill="#63b8ff" stroke="#63b8ff" points="983.27,-194.78 989.31,-186.08 979.16,-189.12 983.27,-194.78"/>
</a>
</g>
</g>
<!-- Node33 -->
<g id="Node000033" class="node">
<title>Node33</title>
<g id="a_Node000033"><a xlink:href="classMgBlock.html#a554de727c4ba471b71094ebd6bd25152" target="_top" xlink:title=" ">
<polygon fill="white" stroke="#666666" points="856,-243 757,-243 757,-224 856,-224 856,-243"/>
<text text-anchor="middle" x="806.5" y="-231" font-family="Ubuntu Mono" font-size="10.00">MgBlock::vReinit</text>
</a>
</g>
</g>
<!-- Node30&#45;&gt;Node33 -->
<g id="edge32_Node000030_Node000033" class="edge">
<title>Node30&#45;&gt;Node33</title>
<g id="a_edge32_Node000030_Node000033"><a xlink:title=" ">
<path fill="none" stroke="#63b8ff" d="M959.74,-188.88C923.83,-199.41 873.02,-214.3 840.16,-223.93"/>
<polygon fill="#63b8ff" stroke="#63b8ff" points="960.83,-192.21 969.45,-186.04 958.86,-185.49 960.83,-192.21"/>
</a>
</g>
</g>
<!-- Node34 -->
<g id="Node000034" class="node">
<title>Node34</title>
<g id="a_Node000034"><a xlink:href="classNMDAChan.html#a09ab79110384cbabe964d065b0caf9d4" target="_top" xlink:title=" ">
<polygon fill="white" stroke="#666666" points="677.5,-186 564.5,-186 564.5,-167 677.5,-167 677.5,-186"/>
<text text-anchor="middle" x="621" y="-174" font-family="Ubuntu Mono" font-size="10.00">NMDAChan::vReinit</text>
</a>
</g>
</g>
<!-- Node30&#45;&gt;Node34 -->
<g id="edge33_Node000030_Node000034" class="edge">
<title>Node30&#45;&gt;Node34</title>
<g id="a_edge33_Node000030_Node000034"><a xlink:title=" ">
<path fill="none" stroke="#63b8ff" d="M908.1,-176.5C835.77,-176.5 738.2,-176.5 677.74,-176.5"/>
<polygon fill="#63b8ff" stroke="#63b8ff" points="908.14,-180 918.14,-176.5 908.14,-173 908.14,-180"/>
</a>
</g>
</g>
<!-- Node35 -->
<g id="Node000035" class="node">
<title>Node35</title>
<g id="a_Node000035"><a xlink:href="classSynChan.html#af40098320568b64bfe54ad9ac5c6f80d" target="_top" xlink:title=" ">
<polygon fill="white" stroke="#666666" points="856.5,-167 756.5,-167 756.5,-148 856.5,-148 856.5,-167"/>
<text text-anchor="middle" x="806.5" y="-155" font-family="Ubuntu Mono" font-size="10.00">SynChan::vReinit</text>
</a>
</g>
</g>
<!-- Node30&#45;&gt;Node35 -->
<g id="edge34_Node000030_Node000035" class="edge">
<title>Node30&#45;&gt;Node35</title>
<g id="a_edge34_Node000030_Node000035"><a xlink:title=" ">
<path fill="none" stroke="#63b8ff" d="M907.94,-167.31C890.15,-165.57 872.22,-163.82 856.53,-162.29"/>
<polygon fill="#63b8ff" stroke="#63b8ff" points="908.09,-170.84 918.39,-168.33 908.77,-163.88 908.09,-170.84"/>
</a>
</g>
</g>
<!-- Node36 -->
<g id="Node000036" class="node">
<title>Node36</title>
<g id="a_Node000036"><a xlink:href="classHHChannel.html#a6aff0899c46ba1dc65bb99835e90924a" target="_top" xlink:title=" ">
<polygon fill="white" stroke="#666666" points="862.5,-130 750.5,-130 750.5,-111 862.5,-111 862.5,-130"/>
<text text-anchor="middle" x="806.5" y="-118" font-family="Ubuntu Mono" font-size="10.00">HHChannel::vReinit</text>
</a>
</g>
</g>
<!-- Node30&#45;&gt;Node36 -->
<g id="edge36_Node000030_Node000036" class="edge">
<title>Node30&#45;&gt;Node36</title>
<g id="a_edge36_Node000030_Node000036"><a xlink:title=" ">
<path fill="none" stroke="#63b8ff" d="M961.1,-164C936.97,-156.69 905.8,-147.39 878,-139.5 866.9,-136.35 854.79,-133.04 843.78,-130.08"/>
<polygon fill="#63b8ff" stroke="#63b8ff" points="960.4,-167.44 970.98,-166.99 962.43,-160.74 960.4,-167.44"/>
</a>
</g>
</g>
<!-- Node37 -->
<g id="Node000037" class="node">
<title>Node37</title>
<g id="a_Node000037"><a xlink:href="classHHChannel2D.html#a61586448a1588f3a1404ebd607f16a31" target="_top" xlink:title=" ">
<polygon fill="white" stroke="#666666" points="869,-93 744,-93 744,-74 869,-74 869,-93"/>
<text text-anchor="middle" x="806.5" y="-81" font-family="Ubuntu Mono" font-size="10.00">HHChannel2D::vReinit</text>
</a>
</g>
</g>
<!-- Node30&#45;&gt;Node37 -->
<g id="edge37_Node000030_Node000037" class="edge">
<title>Node30&#45;&gt;Node37</title>
<g id="a_edge37_Node000030_Node000037"><a xlink:title=" ">
<path fill="none" stroke="#63b8ff" d="M980.15,-160.92C956.12,-144.41 915.87,-118.54 878,-102.5 869.25,-98.79 859.57,-95.63 850.26,-93"/>
<polygon fill="#63b8ff" stroke="#63b8ff" points="978.32,-163.91 988.53,-166.76 982.32,-158.17 978.32,-163.91"/>
</a>
</g>
</g>
<!-- Node38 -->
<g id="Node000038" class="node">
<title>Node38</title>
<g id="a_Node000038"><a xlink:href="classHHChannelF.html#abadb64d9ec5f357f2da1b8af6f341ea1" target="_top" xlink:title=" ">
<polygon fill="white" stroke="#666666" points="865,-56 748,-56 748,-37 865,-37 865,-56"/>
<text text-anchor="middle" x="806.5" y="-44" font-family="Ubuntu Mono" font-size="10.00">HHChannelF::vReinit</text>
</a>
</g>
</g>
<!-- Node30&#45;&gt;Node38 -->
<g id="edge38_Node000030_Node000038" class="edge">
<title>Node30&#45;&gt;Node38</title>
<g id="a_edge38_Node000030_Node000038"><a xlink:title=" ">
<path fill="none" stroke="#63b8ff" d="M987.4,-159.06C965.93,-134.55 923.45,-90.13 878,-65.5 870.87,-61.63 862.9,-58.51 854.95,-56.01"/>
<polygon fill="#63b8ff" stroke="#63b8ff" points="984.91,-161.54 994.09,-166.84 990.22,-156.98 984.91,-161.54"/>
</a>
</g>
</g>
<!-- Node39 -->
<g id="Node000039" class="node">
<title>Node39</title>
<g id="a_Node000039"><a xlink:href="classHHChannelF2D.html#ac3f41718ccca01121f9bc7ba933566bc" target="_top" xlink:title=" ">
<polygon fill="white" stroke="#666666" points="872,-19 741,-19 741,0 872,0 872,-19"/>
<text text-anchor="middle" x="806.5" y="-7" font-family="Ubuntu Mono" font-size="10.00">HHChannelF2D::vReinit</text>
</a>
</g>
</g>
<!-- Node30&#45;&gt;Node39 -->
<g id="edge39_Node000030_Node000039" class="edge">
<title>Node30&#45;&gt;Node39</title>
<g id="a_edge39_Node000030_Node000039"><a xlink:title=" ">
<path fill="none" stroke="#63b8ff" d="M991.55,-157.74C972.95,-126.12 931.02,-62.36 878,-28.5 871.91,-24.61 865.04,-21.51 858.03,-19.04"/>
<polygon fill="#63b8ff" stroke="#63b8ff" points="988.74,-159.87 996.75,-166.8 994.81,-156.39 988.74,-159.87"/>
</a>
</g>
</g>
<!-- Node35&#45;&gt;Node34 -->
<g id="edge35_Node000035_Node000034" class="edge">
<title>Node35&#45;&gt;Node34</title>
<g id="a_edge35_Node000035_Node000034"><a xlink:title=" ">
<path fill="none" stroke="#63b8ff" d="M746.14,-163.65C724.19,-165.92 699.41,-168.48 677.8,-170.72"/>
<polygon fill="#63b8ff" stroke="#63b8ff" points="746.74,-167.1 756.33,-162.59 746.02,-160.14 746.74,-167.1"/>
</a>
</g>
</g>
</g>
</svg>
