<?xml version="1.0" encoding="UTF-8" standalone="no"?>
<!DOCTYPE svg PUBLIC "-//W3C//DTD SVG 1.1//EN"
 "http://www.w3.org/Graphics/SVG/1.1/DTD/svg11.dtd">
<!-- Generated by graphviz version 2.43.0 (0)
 -->
<!-- Title: Field::getVec Pages: 1 -->
<svg width="365pt" height="434pt"
 viewBox="0.00 0.00 365.00 434.00" xmlns="http://www.w3.org/2000/svg" xmlns:xlink="http://www.w3.org/1999/xlink">
<g id="graph0" class="graph" transform="scale(1 1) rotate(0) translate(4 430)">
<title>Field::getVec</title>
<!-- Node1 -->
<g id="Node000001" class="node">
<title>Node1</title>
<g id="a_Node000001"><a xlink:title=" ">
<polygon fill="#999999" stroke="#666666" points="357,-222 278,-222 278,-203 357,-203 357,-222"/>
<text text-anchor="middle" x="317.5" y="-210" font-family="Ubuntu Mono" font-size="10.00">Field::getVec</text>
</a>
</g>
</g>
<!-- Node2 -->
<g id="Node000002" class="node">
<title>Node2</title>
<g id="a_Node000002"><a xlink:href="testMsg_8cpp.html#a54ea8605933a0f2d273e5c7bb10a390d" target="_top" xlink:title=" ">
<polygon fill="white" stroke="#666666" points="224.5,-426 132.5,-426 132.5,-407 224.5,-407 224.5,-426"/>
<text text-anchor="middle" x="178.5" y="-414" font-family="Ubuntu Mono" font-size="10.00">benchmarkMsg</text>
</a>
</g>
</g>
<!-- Node1&#45;&gt;Node2 -->
<g id="edge1_Node000001_Node000002" class="edge">
<title>Node1&#45;&gt;Node2</title>
<g id="a_edge1_Node000001_Node000002"><a xlink:title=" ">
<path fill="none" stroke="#63b8ff" d="M314.24,-232.55C308.86,-270.59 291.81,-353.47 242,-398.5 237.06,-402.97 231.07,-406.33 224.79,-408.87"/>
<polygon fill="#63b8ff" stroke="#63b8ff" points="317.75,-232.64 315.55,-222.27 310.81,-231.75 317.75,-232.64"/>
</a>
</g>
</g>
<!-- Node3 -->
<g id="Node000003" class="node">
<title>Node3</title>
<g id="a_Node000003"><a xlink:href="testDiffusion_8cpp.html#a1d6246d49507e6abd2cf028040a79d3e" target="_top" xlink:title=" ">
<polygon fill="white" stroke="#666666" points="217,-315 140,-315 140,-296 217,-296 217,-315"/>
<text text-anchor="middle" x="178.5" y="-303" font-family="Ubuntu Mono" font-size="10.00">testCellDiffn</text>
</a>
</g>
</g>
<!-- Node1&#45;&gt;Node3 -->
<g id="edge2_Node000001_Node000003" class="edge">
<title>Node1&#45;&gt;Node3</title>
<g id="a_edge2_Node000001_Node000003"><a xlink:title=" ">
<path fill="none" stroke="#63b8ff" d="M303.39,-230.16C289.84,-247.22 267.15,-272.61 242,-287.5 234.42,-291.99 225.66,-295.41 217.14,-298"/>
<polygon fill="#63b8ff" stroke="#63b8ff" points="306.28,-232.15 309.62,-222.1 300.74,-227.88 306.28,-232.15"/>
</a>
</g>
</g>
<!-- Node5 -->
<g id="Node000005" class="node">
<title>Node5</title>
<g id="a_Node000005"><a xlink:href="testShell_8cpp.html#a350f9b84d281b96e0c1d9cc6903f149f" target="_top" xlink:title=" ">
<polygon fill="white" stroke="#666666" points="240.5,-56 116.5,-56 116.5,-37 240.5,-37 240.5,-56"/>
<text text-anchor="middle" x="178.5" y="-44" font-family="Ubuntu Mono" font-size="10.00">testCopyFieldElement</text>
</a>
</g>
</g>
<!-- Node1&#45;&gt;Node5 -->
<g id="edge4_Node000001_Node000005" class="edge">
<title>Node1&#45;&gt;Node5</title>
<g id="a_edge4_Node000001_Node000005"><a xlink:title=" ">
<path fill="none" stroke="#63b8ff" d="M311.99,-193.25C303.63,-161.86 282.77,-99.73 242,-65.5 237.4,-61.64 232.02,-58.56 226.39,-56.1"/>
<polygon fill="#63b8ff" stroke="#63b8ff" points="308.6,-194.13 314.43,-202.97 315.39,-192.42 308.6,-194.13"/>
</a>
</g>
</g>
<!-- Node7 -->
<g id="Node000007" class="node">
<title>Node7</title>
<g id="a_Node000007"><a xlink:href="testDiffusion_8cpp.html#a2dc040eac718807eca494285edbe4456" target="_top" xlink:title=" ">
<polygon fill="white" stroke="#666666" points="215.5,-278 141.5,-278 141.5,-259 215.5,-259 215.5,-278"/>
<text text-anchor="middle" x="178.5" y="-266" font-family="Ubuntu Mono" font-size="10.00">testCylDiffn</text>
</a>
</g>
</g>
<!-- Node1&#45;&gt;Node7 -->
<g id="edge6_Node000001_Node000007" class="edge">
<title>Node1&#45;&gt;Node7</title>
<g id="a_edge6_Node000001_Node000007"><a xlink:title=" ">
<path fill="none" stroke="#63b8ff" d="M290.97,-227.06C276.84,-234.72 258.79,-243.87 242,-250.5 233.6,-253.82 224.34,-256.82 215.59,-259.38"/>
<polygon fill="#63b8ff" stroke="#63b8ff" points="292.99,-229.94 300.06,-222.04 289.61,-223.81 292.99,-229.94"/>
</a>
</g>
</g>
<!-- Node8 -->
<g id="Node000008" class="node">
<title>Node8</title>
<g id="a_Node000008"><a xlink:href="testDiffusion_8cpp.html#a238b7de92925883788a1b3a0b4ad9c53" target="_top" xlink:title=" ">
<polygon fill="white" stroke="#666666" points="242,-130 115,-130 115,-111 242,-111 242,-130"/>
<text text-anchor="middle" x="178.5" y="-118" font-family="Ubuntu Mono" font-size="10.00">testCylDiffnWithStoich</text>
</a>
</g>
</g>
<!-- Node1&#45;&gt;Node8 -->
<g id="edge8_Node000001_Node000008" class="edge">
<title>Node1&#45;&gt;Node8</title>
<g id="a_edge8_Node000001_Node000008"><a xlink:title=" ">
<path fill="none" stroke="#63b8ff" d="M303.03,-195.13C289.33,-178.6 266.67,-154.13 242,-139.5 235.56,-135.68 228.29,-132.57 221.04,-130.05"/>
<polygon fill="#63b8ff" stroke="#63b8ff" points="300.34,-197.37 309.33,-202.96 305.79,-192.98 300.34,-197.37"/>
</a>
</g>
</g>
<!-- Node9 -->
<g id="Node000009" class="node">
<title>Node9</title>
<g id="a_Node000009"><a xlink:href="testBuiltins_8cpp.html#ae0ef11dccb7ea317c737e2b6c18f7a82" target="_top" xlink:title=" ">
<polygon fill="white" stroke="#666666" points="228,-241 129,-241 129,-222 228,-222 228,-241"/>
<text text-anchor="middle" x="178.5" y="-229" font-family="Ubuntu Mono" font-size="10.00">testMpiFibonacci</text>
</a>
</g>
</g>
<!-- Node1&#45;&gt;Node9 -->
<g id="edge10_Node000001_Node000009" class="edge">
<title>Node1&#45;&gt;Node9</title>
<g id="a_edge10_Node000001_Node000009"><a xlink:title=" ">
<path fill="none" stroke="#63b8ff" d="M267.86,-219.25C254.91,-221.04 240.94,-222.98 228,-224.77"/>
<polygon fill="#63b8ff" stroke="#63b8ff" points="268.55,-222.68 277.97,-217.84 267.59,-215.75 268.55,-222.68"/>
</a>
</g>
</g>
<!-- Node10 -->
<g id="Node000010" class="node">
<title>Node10</title>
<g id="a_Node000010"><a xlink:href="testAsync_8cpp.html#a09259c385754d710703c99ebca386929" target="_top" xlink:title=" ">
<polygon fill="white" stroke="#666666" points="221.5,-204 135.5,-204 135.5,-185 221.5,-185 221.5,-204"/>
<text text-anchor="middle" x="178.5" y="-192" font-family="Ubuntu Mono" font-size="10.00">testSetGetVec</text>
</a>
</g>
</g>
<!-- Node1&#45;&gt;Node10 -->
<g id="edge11_Node000001_Node000010" class="edge">
<title>Node1&#45;&gt;Node10</title>
<g id="a_edge11_Node000001_Node000010"><a xlink:title=" ">
<path fill="none" stroke="#63b8ff" d="M267.79,-206.1C252.69,-204.12 236.19,-201.95 221.58,-200.03"/>
<polygon fill="#63b8ff" stroke="#63b8ff" points="267.6,-209.61 277.97,-207.44 268.51,-202.67 267.6,-209.61"/>
</a>
</g>
</g>
<!-- Node11 -->
<g id="Node000011" class="node">
<title>Node11</title>
<g id="a_Node000011"><a xlink:href="testAsync_8cpp.html#a102fc63d5ad1b5eb0c8788f0f1d04fed" target="_top" xlink:title=" ">
<polygon fill="white" stroke="#666666" points="221.5,-167 135.5,-167 135.5,-148 221.5,-148 221.5,-167"/>
<text text-anchor="middle" x="178.5" y="-155" font-family="Ubuntu Mono" font-size="10.00">testSetRepeat</text>
</a>
</g>
</g>
<!-- Node1&#45;&gt;Node11 -->
<g id="edge12_Node000001_Node000011" class="edge">
<title>Node1&#45;&gt;Node11</title>
<g id="a_edge12_Node000001_Node000011"><a xlink:title=" ">
<path fill="none" stroke="#63b8ff" d="M289.72,-198.32C275.74,-191.23 258.2,-182.83 242,-176.5 233.13,-173.03 223.35,-169.79 214.21,-167.01"/>
<polygon fill="#63b8ff" stroke="#63b8ff" points="288.29,-201.51 298.78,-202.97 291.49,-195.29 288.29,-201.51"/>
</a>
</g>
</g>
<!-- Node12 -->
<g id="Node000012" class="node">
<title>Node12</title>
<g id="a_Node000012"><a xlink:href="testShell_8cpp.html#ae735a0a41a973dd5976fee234f11149c" target="_top" xlink:title=" ">
<polygon fill="white" stroke="#666666" points="227.5,-19 129.5,-19 129.5,0 227.5,0 227.5,-19"/>
<text text-anchor="middle" x="178.5" y="-7" font-family="Ubuntu Mono" font-size="10.00">testShellAddMsg</text>
</a>
</g>
</g>
<!-- Node1&#45;&gt;Node12 -->
<g id="edge13_Node000001_Node000012" class="edge">
<title>Node1&#45;&gt;Node12</title>
<g id="a_edge13_Node000001_Node000012"><a xlink:title=" ">
<path fill="none" stroke="#63b8ff" d="M314.2,-192.56C308.77,-154.71 291.62,-72.28 242,-27.5 237.81,-23.72 232.87,-20.73 227.64,-18.36"/>
<polygon fill="#63b8ff" stroke="#63b8ff" points="310.77,-193.31 315.53,-202.78 317.71,-192.41 310.77,-193.31"/>
</a>
</g>
</g>
<!-- Node13 -->
<g id="Node000013" class="node">
<title>Node13</title>
<g id="a_Node000013"><a xlink:href="testShell_8cpp.html#afb95937c22c84adee0992c96a03b4980" target="_top" xlink:title=" ">
<polygon fill="white" stroke="#666666" points="224.5,-93 132.5,-93 132.5,-74 224.5,-74 224.5,-93"/>
<text text-anchor="middle" x="178.5" y="-81" font-family="Ubuntu Mono" font-size="10.00">testShellSetGet</text>
</a>
</g>
</g>
<!-- Node1&#45;&gt;Node13 -->
<g id="edge15_Node000001_Node000013" class="edge">
<title>Node1&#45;&gt;Node13</title>
<g id="a_edge15_Node000001_Node000013"><a xlink:title=" ">
<path fill="none" stroke="#63b8ff" d="M308.6,-193.63C297.37,-169.06 274.49,-126.45 242,-102.5 236.71,-98.6 230.6,-95.49 224.33,-93.01"/>
<polygon fill="#63b8ff" stroke="#63b8ff" points="305.47,-195.19 312.69,-202.94 311.88,-192.38 305.47,-195.19"/>
</a>
</g>
</g>
<!-- Node14 -->
<g id="Node000014" class="node">
<title>Node14</title>
<g id="a_Node000014"><a xlink:href="testDiffusion_8cpp.html#a79f4c431fe1f8a466545f2a3bce7ab54" target="_top" xlink:title=" ">
<polygon fill="white" stroke="#666666" points="231,-389 126,-389 126,-370 231,-370 231,-389"/>
<text text-anchor="middle" x="178.5" y="-377" font-family="Ubuntu Mono" font-size="10.00">testSmallCellDiffn</text>
</a>
</g>
</g>
<!-- Node1&#45;&gt;Node14 -->
<g id="edge17_Node000001_Node000014" class="edge">
<title>Node1&#45;&gt;Node14</title>
<g id="a_edge17_Node000001_Node000014"><a xlink:title=" ">
<path fill="none" stroke="#63b8ff" d="M312.12,-232.08C303.96,-263.99 283.37,-327.09 242,-361.5 237.92,-364.89 233.23,-367.65 228.29,-369.88"/>
<polygon fill="#63b8ff" stroke="#63b8ff" points="315.56,-232.74 314.5,-222.19 308.76,-231.1 315.56,-232.74"/>
</a>
</g>
</g>
<!-- Node15 -->
<g id="Node000015" class="node">
<title>Node15</title>
<g id="a_Node000015"><a xlink:href="testDiffusion_8cpp.html#a4ddcfaa56acb38180d6cfd73e8261cb4" target="_top" xlink:title=" ">
<polygon fill="white" stroke="#666666" points="236.5,-352 120.5,-352 120.5,-333 236.5,-333 236.5,-352"/>
<text text-anchor="middle" x="178.5" y="-340" font-family="Ubuntu Mono" font-size="10.00">testTaperingCylDiffn</text>
</a>
</g>
</g>
<!-- Node1&#45;&gt;Node15 -->
<g id="edge19_Node000001_Node000015" class="edge">
<title>Node1&#45;&gt;Node15</title>
<g id="a_edge19_Node000001_Node000015"><a xlink:title=" ">
<path fill="none" stroke="#63b8ff" d="M308.75,-231.79C297.68,-256.88 274.97,-300.35 242,-324.5 237.35,-327.9 232.08,-330.66 226.61,-332.9"/>
<polygon fill="#63b8ff" stroke="#63b8ff" points="312.1,-232.85 312.77,-222.27 305.65,-230.12 312.1,-232.85"/>
</a>
</g>
</g>
<!-- Node4 -->
<g id="Node000004" class="node">
<title>Node4</title>
<g id="a_Node000004"><a xlink:href="testDiffusion_8cpp.html#a839cef97ff91dc606a720be9cdc18709" target="_top" xlink:title=" ">
<polygon fill="white" stroke="#666666" points="79,-315 0,-315 0,-296 79,-296 79,-315"/>
<text text-anchor="middle" x="39.5" y="-303" font-family="Ubuntu Mono" font-size="10.00">testDiffusion</text>
</a>
</g>
</g>
<!-- Node3&#45;&gt;Node4 -->
<g id="edge3_Node000003_Node000004" class="edge">
<title>Node3&#45;&gt;Node4</title>
<g id="a_edge3_Node000003_Node000004"><a xlink:title=" ">
<path fill="none" stroke="#63b8ff" d="M129.67,-305.5C113.14,-305.5 94.83,-305.5 79.13,-305.5"/>
<polygon fill="#63b8ff" stroke="#63b8ff" points="129.7,-309 139.7,-305.5 129.7,-302 129.7,-309"/>
</a>
</g>
</g>
<!-- Node6 -->
<g id="Node000006" class="node">
<title>Node6</title>
<g id="a_Node000006"><a xlink:href="testShell_8cpp.html#a39b69e92ca3f7b92223ebc9b1940bff7" target="_top" xlink:title=" ">
<polygon fill="white" stroke="#666666" points="78,-56 1,-56 1,-37 78,-37 78,-56"/>
<text text-anchor="middle" x="39.5" y="-44" font-family="Ubuntu Mono" font-size="10.00">testMpiShell</text>
</a>
</g>
</g>
<!-- Node5&#45;&gt;Node6 -->
<g id="edge5_Node000005_Node000006" class="edge">
<title>Node5&#45;&gt;Node6</title>
<g id="a_edge5_Node000005_Node000006"><a xlink:title=" ">
<path fill="none" stroke="#63b8ff" d="M106.15,-46.5C96.48,-46.5 86.89,-46.5 78.15,-46.5"/>
<polygon fill="#63b8ff" stroke="#63b8ff" points="106.21,-50 116.21,-46.5 106.21,-43 106.21,-50"/>
</a>
</g>
</g>
<!-- Node7&#45;&gt;Node4 -->
<g id="edge7_Node000007_Node000004" class="edge">
<title>Node7&#45;&gt;Node4</title>
<g id="a_edge7_Node000007_Node000004"><a xlink:title=" ">
<path fill="none" stroke="#63b8ff" d="M132.37,-280.69C114.1,-285.62 93.31,-291.24 76.14,-295.88"/>
<polygon fill="#63b8ff" stroke="#63b8ff" points="133.48,-284.01 142.22,-278.03 131.65,-277.26 133.48,-284.01"/>
</a>
</g>
</g>
<!-- Node8&#45;&gt;Node4 -->
<g id="edge9_Node000008_Node000004" class="edge">
<title>Node8&#45;&gt;Node4</title>
<g id="a_edge9_Node000008_Node000004"><a xlink:title=" ">
<path fill="none" stroke="#63b8ff" d="M121.22,-134.83C119.02,-136.24 116.94,-137.79 115,-139.5 64.98,-183.55 46.8,-267.76 41.96,-296"/>
<polygon fill="#63b8ff" stroke="#63b8ff" points="122.97,-137.86 130.12,-130.04 119.65,-131.69 122.97,-137.86"/>
</a>
</g>
</g>
<!-- Node12&#45;&gt;Node6 -->
<g id="edge14_Node000012_Node000006" class="edge">
<title>Node12&#45;&gt;Node6</title>
<g id="a_edge14_Node000012_Node000006"><a xlink:title=" ">
<path fill="none" stroke="#63b8ff" d="M132.37,-21.69C114.1,-26.62 93.31,-32.24 76.14,-36.88"/>
<polygon fill="#63b8ff" stroke="#63b8ff" points="133.48,-25.01 142.22,-19.03 131.65,-18.26 133.48,-25.01"/>
</a>
</g>
</g>
<!-- Node13&#45;&gt;Node6 -->
<g id="edge16_Node000013_Node000006" class="edge">
<title>Node13&#45;&gt;Node6</title>
<g id="a_edge16_Node000013_Node000006"><a xlink:title=" ">
<path fill="none" stroke="#63b8ff" d="M132.37,-71.31C114.1,-66.38 93.31,-60.76 76.14,-56.12"/>
<polygon fill="#63b8ff" stroke="#63b8ff" points="131.65,-74.74 142.22,-73.97 133.48,-67.99 131.65,-74.74"/>
</a>
</g>
</g>
<!-- Node14&#45;&gt;Node4 -->
<g id="edge18_Node000014_Node000004" class="edge">
<title>Node14&#45;&gt;Node4</title>
<g id="a_edge18_Node000014_Node000004"><a xlink:title=" ">
<path fill="none" stroke="#63b8ff" d="M126.79,-366.63C122.73,-365.08 118.75,-363.37 115,-361.5 89.8,-348.94 64.44,-327.58 50.78,-315.19"/>
<polygon fill="#63b8ff" stroke="#63b8ff" points="125.75,-369.97 136.34,-369.97 128.06,-363.36 125.75,-369.97"/>
</a>
</g>
</g>
<!-- Node15&#45;&gt;Node4 -->
<g id="edge20_Node000015_Node000004" class="edge">
<title>Node15&#45;&gt;Node4</title>
<g id="a_edge20_Node000015_Node000004"><a xlink:title=" ">
<path fill="none" stroke="#63b8ff" d="M132.37,-330.31C114.1,-325.38 93.31,-319.76 76.14,-315.12"/>
<polygon fill="#63b8ff" stroke="#63b8ff" points="131.65,-333.74 142.22,-332.97 133.48,-326.99 131.65,-333.74"/>
</a>
</g>
</g>
</g>
</svg>
