<?xml version="1.0" encoding="UTF-8" standalone="no"?>
<!DOCTYPE svg PUBLIC "-//W3C//DTD SVG 1.1//EN"
 "http://www.w3.org/Graphics/SVG/1.1/DTD/svg11.dtd">
<!-- Generated by graphviz version 2.43.0 (0)
 -->
<!-- Title: HHChannelF::checkOriginal Pages: 1 -->
<svg width="337pt" height="64pt"
 viewBox="0.00 0.00 337.00 64.00" xmlns="http://www.w3.org/2000/svg" xmlns:xlink="http://www.w3.org/1999/xlink">
<g id="graph0" class="graph" transform="scale(1 1) rotate(0) translate(4 60)">
<title>HHChannelF::checkOriginal</title>
<!-- Node1 -->
<g id="Node000001" class="node">
<title>Node1</title>
<g id="a_Node000001"><a xlink:title="Returns true if channel is original, false if copy.">
<polygon fill="#999999" stroke="#666666" points="329,-37 180,-37 180,-18 329,-18 329,-37"/>
<text text-anchor="middle" x="254.5" y="-25" font-family="Ubuntu Mono" font-size="10.00">HHChannelF::checkOriginal</text>
</a>
</g>
</g>
<!-- Node2 -->
<g id="Node000002" class="node">
<title>Node2</title>
<g id="a_Node000002"><a xlink:href="classHHChannelF.html#a62970357640c1dafb904e4d6208a1d54" target="_top" xlink:title=" ">
<polygon fill="white" stroke="#666666" points="143.5,-56 0.5,-56 0.5,-37 143.5,-37 143.5,-56"/>
<text text-anchor="middle" x="72" y="-44" font-family="Ubuntu Mono" font-size="10.00">HHChannelF::destroyGate</text>
</a>
</g>
</g>
<!-- Node1&#45;&gt;Node2 -->
<g id="edge1_Node000001_Node000002" class="edge">
<title>Node1&#45;&gt;Node2</title>
<g id="a_edge1_Node000001_Node000002"><a xlink:title=" ">
<path fill="none" stroke="#63b8ff" d="M169.63,-36.33C160.9,-37.25 152.09,-38.17 143.53,-39.08"/>
<polygon fill="#63b8ff" stroke="#63b8ff" points="170.24,-39.78 179.82,-35.26 169.51,-32.82 170.24,-39.78"/>
</a>
</g>
</g>
<!-- Node3 -->
<g id="Node000003" class="node">
<title>Node3</title>
<g id="a_Node000003"><a xlink:href="classHHChannelF.html#a8ac8ce4fe69e72dcfe8b04e0fe93fc38" target="_top" xlink:title=" ">
<polygon fill="white" stroke="#666666" points="144,-19 0,-19 0,0 144,0 144,-19"/>
<text text-anchor="middle" x="72" y="-7" font-family="Ubuntu Mono" font-size="10.00">HHChannelF::vCreateGate</text>
</a>
</g>
</g>
<!-- Node1&#45;&gt;Node3 -->
<g id="edge2_Node000001_Node000003" class="edge">
<title>Node1&#45;&gt;Node3</title>
<g id="a_edge2_Node000001_Node000003"><a xlink:title=" ">
<path fill="none" stroke="#63b8ff" d="M169.8,-19.15C161.21,-18.3 152.54,-17.43 144.11,-16.59"/>
<polygon fill="#63b8ff" stroke="#63b8ff" points="169.53,-22.64 179.82,-20.15 170.22,-15.68 169.53,-22.64"/>
</a>
</g>
</g>
</g>
</svg>
