<?xml version="1.0" encoding="UTF-8" standalone="no"?>
<!DOCTYPE svg PUBLIC "-//W3C//DTD SVG 1.1//EN"
 "http://www.w3.org/Graphics/SVG/1.1/DTD/svg11.dtd">
<!-- Generated by graphviz version 2.43.0 (0)
 -->
<!-- Title: Ksolve::initCinfo Pages: 1 -->
<svg width="649pt" height="1330pt"
 viewBox="0.00 0.00 649.00 1330.45" xmlns="http://www.w3.org/2000/svg" xmlns:xlink="http://www.w3.org/1999/xlink">
<g id="graph0" class="graph" transform="scale(1 1) rotate(0) translate(4 1326.45)">
<title>Ksolve::initCinfo</title>
<!-- Node1 -->
<g id="Node000001" class="node">
<title>Node1</title>
<g id="a_Node000001"><a xlink:title=" ">
<polygon fill="#999999" stroke="#666666" points="97,-683 0,-683 0,-664 97,-664 97,-683"/>
<text text-anchor="middle" x="48.5" y="-671" font-family="Ubuntu Mono" font-size="10.00">Ksolve::initCinfo</text>
</a>
</g>
</g>
<!-- Node2 -->
<g id="Node000002" class="node">
<title>Node2</title>
<g id="a_Node000002"><a xlink:href="classCinfo.html#ac9f6af2943b20ce3b02c1adc84504cd2" target="_top" xlink:title=" ">
<polygon fill="white" stroke="#666666" points="459,-1299 385,-1299 385,-1280 459,-1280 459,-1299"/>
<text text-anchor="middle" x="422" y="-1287" font-family="Ubuntu Mono" font-size="10.00">Cinfo::Cinfo</text>
</a>
</g>
</g>
<!-- Node1&#45;&gt;Node2 -->
<g id="edge1_Node000001_Node000002" class="edge">
<title>Node1&#45;&gt;Node2</title>
<g id="a_edge1_Node000001_Node000002"><a xlink:title=" ">
<path fill="none" stroke="#63b8ff" d="M50.09,-683.3C54.7,-758.38 86.06,-1240.54 133,-1282.5 202.44,-1344.57 323.26,-1320.04 383.96,-1302.06"/>
<polygon fill="#63b8ff" stroke="#63b8ff" points="385.33,-1305.3 393.86,-1299.02 383.28,-1298.6 385.33,-1305.3"/>
</a>
</g>
</g>
<!-- Node8 -->
<g id="Node000008" class="node">
<title>Node8</title>
<g id="a_Node000008"><a xlink:href="classDestFinfo.html#a200c3d77c0c62f54de9cb3fb0ff30d25" target="_top" xlink:title=" ">
<polygon fill="white" stroke="#666666" points="480,-1243 364,-1243 364,-1224 480,-1224 480,-1243"/>
<text text-anchor="middle" x="422" y="-1231" font-family="Ubuntu Mono" font-size="10.00">DestFinfo::DestFinfo</text>
</a>
</g>
</g>
<!-- Node1&#45;&gt;Node8 -->
<g id="edge4_Node000001_Node000008" class="edge">
<title>Node1&#45;&gt;Node8</title>
<g id="a_edge4_Node000001_Node000008"><a xlink:title=" ">
<path fill="none" stroke="#63b8ff" d="M49.26,-683.42C47.82,-753.57 42.99,-1174.54 133,-1252.5 206.76,-1316.38 334.95,-1272.08 392.08,-1247.22"/>
<polygon fill="#63b8ff" stroke="#63b8ff" points="393.56,-1250.4 401.26,-1243.13 390.7,-1244 393.56,-1250.4"/>
</a>
</g>
</g>
<!-- Node10 -->
<g id="Node000010" class="node">
<title>Node10</title>
<g id="a_Node000010"><a xlink:href="classKsolveBase.html#afa7e256330b276ccb042761413a387cb" target="_top" xlink:title=" ">
<polygon fill="white" stroke="#666666" points="296,-1129 133,-1129 133,-1110 296,-1110 296,-1129"/>
<text text-anchor="middle" x="214.5" y="-1117" font-family="Ubuntu Mono" font-size="10.00">KsolveBase::getCompartment</text>
</a>
</g>
</g>
<!-- Node1&#45;&gt;Node10 -->
<g id="edge6_Node000001_Node000010" class="edge">
<title>Node1&#45;&gt;Node10</title>
<g id="a_edge6_Node000001_Node000010"><a xlink:title=" ">
<path fill="none" stroke="#63b8ff" d="M49.99,-683.16C53.1,-740.77 72.02,-1038.83 133,-1101.5 133.8,-1102.32 134.63,-1103.11 135.48,-1103.86"/>
<polygon fill="#63b8ff" stroke="#63b8ff" points="133.63,-1106.84 143.8,-1109.82 137.7,-1101.15 133.63,-1106.84"/>
</a>
</g>
</g>
<!-- Node11 -->
<g id="Node000011" class="node">
<title>Node11</title>
<g id="a_Node000011"><a xlink:href="classKsolve.html#a3e0add1ff0b452972e1338a32b4db9d5" target="_top" xlink:title="Assigns Absolute tolerance for integration.">
<polygon fill="white" stroke="#666666" points="268,-1092 161,-1092 161,-1073 268,-1073 268,-1092"/>
<text text-anchor="middle" x="214.5" y="-1080" font-family="Ubuntu Mono" font-size="10.00">Ksolve::getEpsAbs</text>
</a>
</g>
</g>
<!-- Node1&#45;&gt;Node11 -->
<g id="edge7_Node000001_Node000011" class="edge">
<title>Node1&#45;&gt;Node11</title>
<g id="a_edge7_Node000001_Node000011"><a xlink:title=" ">
<path fill="none" stroke="#63b8ff" d="M50.17,-683.03C54.19,-737.37 76.83,-1007.79 133,-1064.5 138.01,-1069.56 144.11,-1073.33 150.69,-1076.13"/>
<polygon fill="#63b8ff" stroke="#63b8ff" points="150,-1079.59 160.6,-1079.56 152.29,-1072.98 150,-1079.59"/>
</a>
</g>
</g>
<!-- Node12 -->
<g id="Node000012" class="node">
<title>Node12</title>
<g id="a_Node000012"><a xlink:href="classKsolve.html#ab74ae44bceeb96158ed5e565188c0bdc" target="_top" xlink:title="Assigns Relative tolerance for integration.">
<polygon fill="white" stroke="#666666" points="266.5,-1055 162.5,-1055 162.5,-1036 266.5,-1036 266.5,-1055"/>
<text text-anchor="middle" x="214.5" y="-1043" font-family="Ubuntu Mono" font-size="10.00">Ksolve::getEpsRel</text>
</a>
</g>
</g>
<!-- Node1&#45;&gt;Node12 -->
<g id="edge8_Node000001_Node000012" class="edge">
<title>Node1&#45;&gt;Node12</title>
<g id="a_edge8_Node000001_Node000012"><a xlink:title=" ">
<path fill="none" stroke="#63b8ff" d="M50.41,-683.12C55.45,-734.57 81.69,-976.79 133,-1027.5 138.59,-1033.02 145.47,-1037 152.85,-1039.85"/>
<polygon fill="#63b8ff" stroke="#63b8ff" points="151.8,-1043.19 162.39,-1042.88 153.92,-1036.52 151.8,-1043.19"/>
</a>
</g>
</g>
<!-- Node13 -->
<g id="Node000013" class="node">
<title>Node13</title>
<g id="a_Node000013"><a xlink:href="classKsolve.html#a0e3a6f08da8d6baece034d0dbed3da4d" target="_top" xlink:title=" ">
<polygon fill="white" stroke="#666666" points="280.5,-1018 148.5,-1018 148.5,-999 280.5,-999 280.5,-1018"/>
<text text-anchor="middle" x="214.5" y="-1006" font-family="Ubuntu Mono" font-size="10.00">Ksolve::getEstimatedDt</text>
</a>
</g>
</g>
<!-- Node1&#45;&gt;Node13 -->
<g id="edge9_Node000001_Node000013" class="edge">
<title>Node1&#45;&gt;Node13</title>
<g id="a_edge9_Node000001_Node000013"><a xlink:title=" ">
<path fill="none" stroke="#63b8ff" d="M50.68,-683.06C56.81,-731.1 86.47,-945.69 133,-990.5 134.94,-992.37 137.03,-994.06 139.24,-995.59"/>
<polygon fill="#63b8ff" stroke="#63b8ff" points="137.84,-998.82 148.26,-1000.72 141.3,-992.74 137.84,-998.82"/>
</a>
</g>
</g>
<!-- Node20 -->
<g id="Node000020" class="node">
<title>Node20</title>
<g id="a_Node000020"><a xlink:href="classKsolve.html#a5cd3917437c2e1c25c0ddf63c201f5d3" target="_top" xlink:title="Assigns integration method.">
<polygon fill="white" stroke="#666666" points="268.5,-981 160.5,-981 160.5,-962 268.5,-962 268.5,-981"/>
<text text-anchor="middle" x="214.5" y="-969" font-family="Ubuntu Mono" font-size="10.00">Ksolve::getMethod</text>
</a>
</g>
</g>
<!-- Node1&#45;&gt;Node20 -->
<g id="edge13_Node000001_Node000020" class="edge">
<title>Node1&#45;&gt;Node20</title>
<g id="a_edge13_Node000001_Node000020"><a xlink:title=" ">
<path fill="none" stroke="#63b8ff" d="M49.16,-683.21C48.34,-723.23 50.82,-876.87 133,-953.5 138.07,-958.22 144.09,-961.81 150.54,-964.51"/>
<polygon fill="#63b8ff" stroke="#63b8ff" points="149.61,-967.89 160.21,-967.87 151.91,-961.28 149.61,-967.89"/>
</a>
</g>
</g>
<!-- Node21 -->
<g id="Node000021" class="node">
<title>Node21</title>
<g id="a_Node000021"><a xlink:href="classKsolve.html#a0a2556221b602019da3ffb685ea04cc6" target="_top" xlink:title=" ">
<polygon fill="white" stroke="#666666" points="284,-944 145,-944 145,-925 284,-925 284,-944"/>
<text text-anchor="middle" x="214.5" y="-932" font-family="Ubuntu Mono" font-size="10.00">Ksolve::getNumAllVoxels</text>
</a>
</g>
</g>
<!-- Node1&#45;&gt;Node21 -->
<g id="edge14_Node000001_Node000021" class="edge">
<title>Node1&#45;&gt;Node21</title>
<g id="a_edge14_Node000001_Node000021"><a xlink:title=" ">
<path fill="none" stroke="#63b8ff" d="M49.67,-683.18C50.85,-719.84 60.2,-851.36 133,-916.5 134.17,-917.54 135.38,-918.53 136.64,-919.47"/>
<polygon fill="#63b8ff" stroke="#63b8ff" points="135.1,-922.63 145.45,-924.89 138.77,-916.67 135.1,-922.63"/>
</a>
</g>
</g>
<!-- Node22 -->
<g id="Node000022" class="node">
<title>Node22</title>
<g id="a_Node000022"><a xlink:href="classKsolve.html#aa88370ba7bd0c00c64096e3825ce65e7" target="_top" xlink:title="Inherited from KsolveBase.">
<polygon fill="white" stroke="#666666" points="498,-888 346,-888 346,-869 498,-869 498,-888"/>
<text text-anchor="middle" x="422" y="-876" font-family="Ubuntu Mono" font-size="10.00">Ksolve::getNumLocalVoxels</text>
</a>
</g>
</g>
<!-- Node1&#45;&gt;Node22 -->
<g id="edge15_Node000001_Node000022" class="edge">
<title>Node1&#45;&gt;Node22</title>
<g id="a_edge15_Node000001_Node000022"><a xlink:title=" ">
<path fill="none" stroke="#63b8ff" d="M51.09,-683.07C56.5,-712.26 77.04,-800.62 133,-840.5 164.68,-863.07 262.73,-872.24 335.68,-875.96"/>
<polygon fill="#63b8ff" stroke="#63b8ff" points="335.64,-879.46 345.8,-876.45 335.98,-872.47 335.64,-879.46"/>
</a>
</g>
</g>
<!-- Node23 -->
<g id="Node000023" class="node">
<title>Node23</title>
<g id="a_Node000023"><a xlink:href="classKsolve.html#a79eaff86bf0e6609c23a848c04be19ff" target="_top" xlink:title="gets number of pools (species) handled by system.">
<polygon fill="white" stroke="#666666" points="275,-794 154,-794 154,-775 275,-775 275,-794"/>
<text text-anchor="middle" x="214.5" y="-782" font-family="Ubuntu Mono" font-size="10.00">Ksolve::getNumPools</text>
</a>
</g>
</g>
<!-- Node1&#45;&gt;Node23 -->
<g id="edge16_Node000001_Node000023" class="edge">
<title>Node1&#45;&gt;Node23</title>
<g id="a_edge16_Node000001_Node000023"><a xlink:title=" ">
<path fill="none" stroke="#63b8ff" d="M55.24,-683.18C67.15,-702.35 96.48,-745.12 133,-766.5 136.62,-768.62 140.45,-770.48 144.42,-772.13"/>
<polygon fill="#63b8ff" stroke="#63b8ff" points="143.26,-775.44 153.86,-775.59 145.67,-768.86 143.26,-775.44"/>
</a>
</g>
</g>
<!-- Node25 -->
<g id="Node000025" class="node">
<title>Node25</title>
<g id="a_Node000025"><a xlink:href="classKsolve.html#a43a6361ed1e37546de18a7e62c186ab8" target="_top" xlink:title=" ">
<polygon fill="white" stroke="#666666" points="281.5,-757 147.5,-757 147.5,-738 281.5,-738 281.5,-757"/>
<text text-anchor="middle" x="214.5" y="-745" font-family="Ubuntu Mono" font-size="10.00">Ksolve::getNumThreads</text>
</a>
</g>
</g>
<!-- Node1&#45;&gt;Node25 -->
<g id="edge18_Node000001_Node000025" class="edge">
<title>Node1&#45;&gt;Node25</title>
<g id="a_edge18_Node000001_Node000025"><a xlink:title=" ">
<path fill="none" stroke="#63b8ff" d="M60.86,-683.15C76.22,-695.71 104.93,-717.45 133,-729.5 137.94,-731.62 143.15,-733.5 148.46,-735.17"/>
<polygon fill="#63b8ff" stroke="#63b8ff" points="147.5,-738.54 158.08,-737.96 149.45,-731.82 147.5,-738.54"/>
</a>
</g>
</g>
<!-- Node26 -->
<g id="Node000026" class="node">
<title>Node26</title>
<g id="a_Node000026"><a xlink:href="classKsolve.html#a12eecef784f79687f1d96c9da6154092" target="_top" xlink:title="Returns the vector of pool Num at the specified voxel.">
<polygon fill="white" stroke="#666666" points="262.5,-720 166.5,-720 166.5,-701 262.5,-701 262.5,-720"/>
<text text-anchor="middle" x="214.5" y="-708" font-family="Ubuntu Mono" font-size="10.00">Ksolve::getNvec</text>
</a>
</g>
</g>
<!-- Node1&#45;&gt;Node26 -->
<g id="edge19_Node000001_Node000026" class="edge">
<title>Node1&#45;&gt;Node26</title>
<g id="a_edge19_Node000001_Node000026"><a xlink:title=" ">
<path fill="none" stroke="#63b8ff" d="M91.12,-683C104.49,-686.05 119.37,-689.42 133,-692.5 141.93,-694.51 151.41,-696.64 160.62,-698.71"/>
<polygon fill="#63b8ff" stroke="#63b8ff" points="159.94,-702.14 170.46,-700.91 161.47,-695.31 159.94,-702.14"/>
</a>
</g>
</g>
<!-- Node28 -->
<g id="Node000028" class="node">
<title>Node28</title>
<g id="a_Node000028"><a xlink:href="classKsolve.html#a9bb9517ab7e71ffc5b1967623e6bc328" target="_top" xlink:title="Unlike getNvec, this returns vector of R1 for this reac across voxels.">
<polygon fill="white" stroke="#666666" points="293,-683 136,-683 136,-664 293,-664 293,-683"/>
<text text-anchor="middle" x="214.5" y="-671" font-family="Ubuntu Mono" font-size="10.00">Ksolve::getRateVecFromPath</text>
</a>
</g>
</g>
<!-- Node1&#45;&gt;Node28 -->
<g id="edge21_Node000001_Node000028" class="edge">
<title>Node1&#45;&gt;Node28</title>
<g id="a_edge21_Node000001_Node000028"><a xlink:title=" ">
<path fill="none" stroke="#63b8ff" d="M97.38,-673.5C106.36,-673.5 116,-673.5 125.76,-673.5"/>
<polygon fill="#63b8ff" stroke="#63b8ff" points="125.94,-677 135.94,-673.5 125.94,-670 125.94,-677"/>
</a>
</g>
</g>
<!-- Node81 -->
<g id="Node000081" class="node">
<title>Node81</title>
<g id="a_Node000081"><a xlink:href="classKsolve.html#ad27ba5a85307744b8364191c23b4b8d9" target="_top" xlink:title="Assigns Stoich object to Ksolve.">
<polygon fill="white" stroke="#666666" points="265,-646 164,-646 164,-627 265,-627 265,-646"/>
<text text-anchor="middle" x="214.5" y="-634" font-family="Ubuntu Mono" font-size="10.00">Ksolve::getStoich</text>
</a>
</g>
</g>
<!-- Node1&#45;&gt;Node81 -->
<g id="edge29_Node000001_Node000081" class="edge">
<title>Node1&#45;&gt;Node81</title>
<g id="a_edge29_Node000001_Node000081"><a xlink:title=" ">
<path fill="none" stroke="#63b8ff" d="M91.73,-663.97C112.89,-659.2 138.69,-653.38 161.1,-648.32"/>
<polygon fill="#63b8ff" stroke="#63b8ff" points="162.14,-651.68 171.12,-646.06 160.6,-644.85 162.14,-651.68"/>
</a>
</g>
</g>
<!-- Node82 -->
<g id="Node000082" class="node">
<title>Node82</title>
<g id="a_Node000082"><a xlink:href="classNeutral.html#a70fe1de93fce8611988faacd5cc96dd3" target="_top" xlink:title=" ">
<polygon fill="#fff0f0" stroke="red" points="264.5,-1243 164.5,-1243 164.5,-1224 264.5,-1224 264.5,-1243"/>
<text text-anchor="middle" x="214.5" y="-1231" font-family="Ubuntu Mono" font-size="10.00">Neutral::initCinfo</text>
</a>
</g>
</g>
<!-- Node1&#45;&gt;Node82 -->
<g id="edge30_Node000001_Node000082" class="edge">
<title>Node1&#45;&gt;Node82</title>
<g id="a_edge30_Node000001_Node000082"><a xlink:title=" ">
<path fill="none" stroke="#63b8ff" d="M49.65,-683.27C50.82,-749.02 60.68,-1126.68 133,-1209.5 138.85,-1216.2 146.49,-1221.08 154.73,-1224.61"/>
<polygon fill="#63b8ff" stroke="#63b8ff" points="153.63,-1227.93 164.23,-1228.05 156.02,-1221.35 153.63,-1227.93"/>
</a>
</g>
</g>
<!-- Node180 -->
<g id="Node000180" class="node">
<title>Node180</title>
<g id="a_Node000180"><a xlink:href="classValueFinfo.html#afc85efa500f5640f0ef55da08396bbf8" target="_top" xlink:title=" ">
<polygon fill="white" stroke="#666666" points="484.5,-1205 359.5,-1205 359.5,-1186 484.5,-1186 484.5,-1205"/>
<text text-anchor="middle" x="422" y="-1193" font-family="Ubuntu Mono" font-size="10.00">ValueFinfo::ValueFinfo</text>
</a>
</g>
</g>
<!-- Node1&#45;&gt;Node180 -->
<g id="edge56_Node000001_Node000180" class="edge">
<title>Node1&#45;&gt;Node180</title>
<g id="a_edge56_Node000001_Node000180"><a xlink:title=" ">
<path fill="none" stroke="#63b8ff" d="M49.62,-683.03C50.6,-745.53 59.37,-1096.46 133,-1165.5 196.53,-1225.07 305.96,-1217.75 370.07,-1206.8"/>
<polygon fill="#63b8ff" stroke="#63b8ff" points="370.74,-1210.24 379.96,-1205.02 369.5,-1203.35 370.74,-1210.24"/>
</a>
</g>
</g>
<!-- Node181 -->
<g id="Node000181" class="node">
<title>Node181</title>
<g id="a_Node000181"><a xlink:href="classKsolve.html#ae53707906343fb2359e41b6f6dffef7c" target="_top" xlink:title=" ">
<polygon fill="white" stroke="#666666" points="260.5,-609 168.5,-609 168.5,-590 260.5,-590 260.5,-609"/>
<text text-anchor="middle" x="214.5" y="-597" font-family="Ubuntu Mono" font-size="10.00">Ksolve::initProc</text>
</a>
</g>
</g>
<!-- Node1&#45;&gt;Node181 -->
<g id="edge34_Node000001_Node000181" class="edge">
<title>Node1&#45;&gt;Node181</title>
<g id="a_edge34_Node000001_Node000181"><a xlink:title=" ">
<path fill="none" stroke="#63b8ff" d="M61.18,-663.87C76.66,-651.57 105.26,-630.46 133,-618.5 141.05,-615.03 149.83,-612.13 158.55,-609.74"/>
<polygon fill="#63b8ff" stroke="#63b8ff" points="159.49,-613.11 168.31,-607.24 157.76,-606.33 159.49,-613.11"/>
</a>
</g>
</g>
<!-- Node182 -->
<g id="Node000182" class="node">
<title>Node182</title>
<g id="a_Node000182"><a xlink:href="classKsolve.html#aeb9312a0b49950cf84b53385e8b64d00" target="_top" xlink:title=" ">
<polygon fill="#fff0f0" stroke="red" points="264.5,-572 164.5,-572 164.5,-553 264.5,-553 264.5,-572"/>
<text text-anchor="middle" x="214.5" y="-560" font-family="Ubuntu Mono" font-size="10.00">Ksolve::initReinit</text>
</a>
</g>
</g>
<!-- Node1&#45;&gt;Node182 -->
<g id="edge35_Node000001_Node000182" class="edge">
<title>Node1&#45;&gt;Node182</title>
<g id="a_edge35_Node000001_Node000182"><a xlink:title=" ">
<path fill="none" stroke="#63b8ff" d="M55.29,-663.96C67.29,-645.06 96.77,-602.86 133,-581.5 139.7,-577.55 147.16,-574.42 154.77,-571.94"/>
<polygon fill="#63b8ff" stroke="#63b8ff" points="155.81,-575.29 164.44,-569.14 153.86,-568.56 155.81,-575.29"/>
</a>
</g>
</g>
<!-- Node187 -->
<g id="Node000187" class="node">
<title>Node187</title>
<g id="a_Node000187"><a xlink:href="classLookupValueFinfo.html#ae091b10e988ce9da6099127e1374293b" target="_top" xlink:title=" ">
<polygon fill="white" stroke="#666666" points="286,-534.5 143,-534.5 143,-504.5 286,-504.5 286,-534.5"/>
<text text-anchor="start" x="151" y="-522.5" font-family="Ubuntu Mono" font-size="10.00">LookupValueFinfo::Lookup</text>
<text text-anchor="middle" x="214.5" y="-511.5" font-family="Ubuntu Mono" font-size="10.00">ValueFinfo</text>
</a>
</g>
</g>
<!-- Node1&#45;&gt;Node187 -->
<g id="edge36_Node000001_Node000187" class="edge">
<title>Node1&#45;&gt;Node187</title>
<g id="a_edge36_Node000001_Node000187"><a xlink:title=" ">
<path fill="none" stroke="#63b8ff" d="M53.02,-663.66C62.21,-639.41 89.27,-576.39 133,-543.5 134.85,-542.11 136.77,-540.8 138.76,-539.57"/>
<polygon fill="#63b8ff" stroke="#63b8ff" points="140.73,-542.49 147.83,-534.63 137.38,-536.34 140.73,-542.49"/>
</a>
</g>
</g>
<!-- Node188 -->
<g id="Node000188" class="node">
<title>Node188</title>
<g id="a_Node000188"><a xlink:href="classOpFunc1.html#abc0aeb50c1657a6777c508d17c872809" target="_top" xlink:title=" ">
<polygon fill="white" stroke="#666666" points="268,-486 161,-486 161,-467 268,-467 268,-486"/>
<text text-anchor="middle" x="214.5" y="-474" font-family="Ubuntu Mono" font-size="10.00">OpFunc1::OpFunc1</text>
</a>
</g>
</g>
<!-- Node1&#45;&gt;Node188 -->
<g id="edge37_Node000001_Node000188" class="edge">
<title>Node1&#45;&gt;Node188</title>
<g id="a_edge37_Node000001_Node000188"><a xlink:title=" ">
<path fill="none" stroke="#63b8ff" d="M51.07,-663.58C56.43,-633.25 76.82,-541.11 133,-495.5 138.39,-491.12 144.62,-487.72 151.18,-485.08"/>
<polygon fill="#63b8ff" stroke="#63b8ff" points="152.63,-488.28 160.96,-481.74 150.37,-481.66 152.63,-488.28"/>
</a>
</g>
</g>
<!-- Node189 -->
<g id="Node000189" class="node">
<title>Node189</title>
<g id="a_Node000189"><a xlink:href="classKsolve.html#a595f7ab8fe6fc96b6df95b3d63af465a" target="_top" xlink:title=" ">
<polygon fill="#fff0f0" stroke="red" points="261,-907 168,-907 168,-888 261,-888 261,-907"/>
<text text-anchor="middle" x="214.5" y="-895" font-family="Ubuntu Mono" font-size="10.00">Ksolve::process</text>
</a>
</g>
</g>
<!-- Node1&#45;&gt;Node189 -->
<g id="edge38_Node000001_Node000189" class="edge">
<title>Node1&#45;&gt;Node189</title>
<g id="a_edge38_Node000001_Node000189"><a xlink:title=" ">
<path fill="none" stroke="#63b8ff" d="M50.61,-683.08C54.84,-715.1 72.85,-819.4 133,-873.5 140.16,-879.94 148.99,-884.66 158.14,-888.11"/>
<polygon fill="#63b8ff" stroke="#63b8ff" points="157.15,-891.47 167.74,-891.27 159.34,-884.82 157.15,-891.47"/>
</a>
</g>
</g>
<!-- Node216 -->
<g id="Node000216" class="node">
<title>Node216</title>
<g id="a_Node000216"><a xlink:href="classProcOpFunc.html#a09abf4cb6cd3d1ed513fee1ed18054f4" target="_top" xlink:title=" ">
<polygon fill="white" stroke="#666666" points="283,-449 146,-449 146,-430 283,-430 283,-449"/>
<text text-anchor="middle" x="214.5" y="-437" font-family="Ubuntu Mono" font-size="10.00">ProcOpFunc::ProcOpFunc</text>
</a>
</g>
</g>
<!-- Node1&#45;&gt;Node216 -->
<g id="edge40_Node000001_Node000216" class="edge">
<title>Node1&#45;&gt;Node216</title>
<g id="a_edge40_Node000001_Node000216"><a xlink:title=" ">
<path fill="none" stroke="#63b8ff" d="M50.12,-663.95C52.86,-630.05 66.89,-514.43 133,-457.5 134.34,-456.34 135.74,-455.26 137.19,-454.24"/>
<polygon fill="#63b8ff" stroke="#63b8ff" points="139.13,-457.16 145.98,-449.08 135.59,-451.12 139.13,-457.16"/>
</a>
</g>
</g>
<!-- Node217 -->
<g id="Node000217" class="node">
<title>Node217</title>
<g id="a_Node000217"><a xlink:href="classReadOnlyLookupValueFinfo.html#a3aa6c363601e4483657919db3355ff1a" target="_top" xlink:title=" ">
<polygon fill="white" stroke="#666666" points="292,-411.5 137,-411.5 137,-381.5 292,-381.5 292,-411.5"/>
<text text-anchor="start" x="145" y="-399.5" font-family="Ubuntu Mono" font-size="10.00">ReadOnlyLookupValueFinfo</text>
<text text-anchor="middle" x="214.5" y="-388.5" font-family="Ubuntu Mono" font-size="10.00">::ReadOnlyLookupValueFinfo</text>
</a>
</g>
</g>
<!-- Node1&#45;&gt;Node217 -->
<g id="edge41_Node000001_Node000217" class="edge">
<title>Node1&#45;&gt;Node217</title>
<g id="a_edge41_Node000001_Node000217"><a xlink:title=" ">
<path fill="none" stroke="#63b8ff" d="M49.67,-663.85C50.85,-626.67 60.17,-491.24 133,-420.5 134.11,-419.42 135.27,-418.39 136.47,-417.4"/>
<polygon fill="#63b8ff" stroke="#63b8ff" points="138.69,-420.12 144.91,-411.55 134.7,-414.37 138.69,-420.12"/>
</a>
</g>
</g>
<!-- Node218 -->
<g id="Node000218" class="node">
<title>Node218</title>
<g id="a_Node000218"><a xlink:href="classReadOnlyValueFinfo.html#a45da388415fe4e2aebb7fc6eb8e16b07" target="_top" xlink:title=" ">
<polygon fill="white" stroke="#666666" points="275,-363.5 154,-363.5 154,-333.5 275,-333.5 275,-363.5"/>
<text text-anchor="start" x="162" y="-351.5" font-family="Ubuntu Mono" font-size="10.00">ReadOnlyValueFinfo</text>
<text text-anchor="middle" x="214.5" y="-340.5" font-family="Ubuntu Mono" font-size="10.00">::ReadOnlyValueFinfo</text>
</a>
</g>
</g>
<!-- Node1&#45;&gt;Node218 -->
<g id="edge42_Node000001_Node000218" class="edge">
<title>Node1&#45;&gt;Node218</title>
<g id="a_edge42_Node000001_Node000218"><a xlink:title=" ">
<path fill="none" stroke="#63b8ff" d="M49.07,-663.81C47.81,-622.42 48.5,-458.63 133,-372.5 136.46,-368.98 140.41,-365.97 144.66,-363.39"/>
<polygon fill="#63b8ff" stroke="#63b8ff" points="146.47,-366.4 153.75,-358.7 143.26,-360.18 146.47,-366.4"/>
</a>
</g>
</g>
<!-- Node219 -->
<g id="Node000219" class="node">
<title>Node219</title>
<g id="a_Node000219"><a xlink:href="classKsolve.html#a7bb4889f57026475d9f2b5b6673ef960" target="_top" xlink:title=" ">
<polygon fill="#fff0f0" stroke="red" points="255,-315 174,-315 174,-296 255,-296 255,-315"/>
<text text-anchor="middle" x="214.5" y="-303" font-family="Ubuntu Mono" font-size="10.00">Ksolve::reinit</text>
</a>
</g>
</g>
<!-- Node1&#45;&gt;Node219 -->
<g id="edge43_Node000001_Node000219" class="edge">
<title>Node1&#45;&gt;Node219</title>
<g id="a_edge43_Node000001_Node000219"><a xlink:title=" ">
<path fill="none" stroke="#63b8ff" d="M50.47,-663.69C55.76,-612.3 82.7,-374.64 133,-324.5 141.26,-316.27 152.38,-311.34 163.71,-308.46"/>
<polygon fill="#63b8ff" stroke="#63b8ff" points="164.57,-311.86 173.66,-306.42 163.16,-305 164.57,-311.86"/>
</a>
</g>
</g>
<!-- Node222 -->
<g id="Node000222" class="node">
<title>Node222</title>
<g id="a_Node000222"><a xlink:href="classKsolveBase.html#a6ed77ac8af133e020a81d2fcca38a124" target="_top" xlink:title="Assigns compartment.">
<polygon fill="#fff0f0" stroke="red" points="295.5,-278 133.5,-278 133.5,-259 295.5,-259 295.5,-278"/>
<text text-anchor="middle" x="214.5" y="-266" font-family="Ubuntu Mono" font-size="10.00">KsolveBase::setCompartment</text>
</a>
</g>
</g>
<!-- Node1&#45;&gt;Node222 -->
<g id="edge44_Node000001_Node000222" class="edge">
<title>Node1&#45;&gt;Node222</title>
<g id="a_edge44_Node000001_Node000222"><a xlink:title=" ">
<path fill="none" stroke="#63b8ff" d="M50.21,-663.72C54.39,-609.12 77.44,-342.48 133,-286.5 133.94,-285.56 134.91,-284.66 135.92,-283.8"/>
<polygon fill="#63b8ff" stroke="#63b8ff" points="138.01,-286.61 144.25,-278.04 134.03,-280.85 138.01,-286.61"/>
</a>
</g>
</g>
<!-- Node227 -->
<g id="Node000227" class="node">
<title>Node227</title>
<g id="a_Node000227"><a xlink:href="classKsolve.html#aff6aa39148f9394c63b3d8f0d7623f1a" target="_top" xlink:title=" ">
<polygon fill="white" stroke="#666666" points="267.5,-241 161.5,-241 161.5,-222 267.5,-222 267.5,-241"/>
<text text-anchor="middle" x="214.5" y="-229" font-family="Ubuntu Mono" font-size="10.00">Ksolve::setEpsAbs</text>
</a>
</g>
</g>
<!-- Node1&#45;&gt;Node227 -->
<g id="edge45_Node000001_Node000227" class="edge">
<title>Node1&#45;&gt;Node227</title>
<g id="a_edge45_Node000001_Node000227"><a xlink:title=" ">
<path fill="none" stroke="#63b8ff" d="M50,-663.93C53.2,-606.85 72.51,-311.55 133,-249.5 138.22,-244.14 144.67,-240.22 151.62,-237.37"/>
<polygon fill="#63b8ff" stroke="#63b8ff" points="152.97,-240.61 161.34,-234.12 150.75,-233.98 152.97,-240.61"/>
</a>
</g>
</g>
<!-- Node228 -->
<g id="Node000228" class="node">
<title>Node228</title>
<g id="a_Node000228"><a xlink:href="classKsolve.html#aa1dd3a65cff6ac5ab3fb850fd8193117" target="_top" xlink:title=" ">
<polygon fill="white" stroke="#666666" points="266.5,-204 162.5,-204 162.5,-185 266.5,-185 266.5,-204"/>
<text text-anchor="middle" x="214.5" y="-192" font-family="Ubuntu Mono" font-size="10.00">Ksolve::setEpsRel</text>
</a>
</g>
</g>
<!-- Node1&#45;&gt;Node228 -->
<g id="edge46_Node000001_Node000228" class="edge">
<title>Node1&#45;&gt;Node228</title>
<g id="a_edge46_Node000001_Node000228"><a xlink:title=" ">
<path fill="none" stroke="#63b8ff" d="M49.84,-663.9C52.17,-603.88 67.66,-280.56 133,-212.5 138.32,-206.96 144.94,-202.95 152.09,-200.08"/>
<polygon fill="#63b8ff" stroke="#63b8ff" points="153.66,-203.24 162.09,-196.82 151.49,-196.59 153.66,-203.24"/>
</a>
</g>
</g>
<!-- Node229 -->
<g id="Node000229" class="node">
<title>Node229</title>
<g id="a_Node000229"><a xlink:href="classKsolve.html#a9b195c55d9f2960057377f574ac2a9d0" target="_top" xlink:title=" ">
<polygon fill="#fff0f0" stroke="red" points="268,-167 161,-167 161,-148 268,-148 268,-167"/>
<text text-anchor="middle" x="214.5" y="-155" font-family="Ubuntu Mono" font-size="10.00">Ksolve::setMethod</text>
</a>
</g>
</g>
<!-- Node1&#45;&gt;Node229 -->
<g id="edge47_Node000001_Node000229" class="edge">
<title>Node1&#45;&gt;Node229</title>
<g id="a_edge47_Node000001_Node000229"><a xlink:title=" ">
<path fill="none" stroke="#63b8ff" d="M49.7,-663.96C51.21,-601.36 62.75,-249.64 133,-175.5 138.08,-170.14 144.38,-166.21 151.2,-163.35"/>
<polygon fill="#63b8ff" stroke="#63b8ff" points="152.43,-166.63 160.76,-160.08 150.16,-160 152.43,-166.63"/>
</a>
</g>
</g>
<!-- Node232 -->
<g id="Node000232" class="node">
<title>Node232</title>
<g id="a_Node000232"><a xlink:href="classKsolve.html#a68467c61fdd1fce4598227d73710f0a3" target="_top" xlink:title=" ">
<polygon fill="white" stroke="#666666" points="283.5,-130 145.5,-130 145.5,-111 283.5,-111 283.5,-130"/>
<text text-anchor="middle" x="214.5" y="-118" font-family="Ubuntu Mono" font-size="10.00">Ksolve::setNumAllVoxels</text>
</a>
</g>
</g>
<!-- Node1&#45;&gt;Node232 -->
<g id="edge48_Node000001_Node000232" class="edge">
<title>Node1&#45;&gt;Node232</title>
<g id="a_edge48_Node000001_Node000232"><a xlink:title=" ">
<path fill="none" stroke="#63b8ff" d="M49.58,-663.68C50.34,-597.67 57.96,-218.59 133,-138.5 134.21,-137.21 135.49,-136 136.84,-134.86"/>
<polygon fill="#63b8ff" stroke="#63b8ff" points="138.85,-137.73 145.14,-129.2 134.91,-131.95 138.85,-137.73"/>
</a>
</g>
</g>
<!-- Node233 -->
<g id="Node000233" class="node">
<title>Node233</title>
<g id="a_Node000233"><a xlink:href="classKsolve.html#a34ed2d806559b67d7e025c03cd4c2e88" target="_top" xlink:title=" ">
<polygon fill="#fff0f0" stroke="red" points="274.5,-93 154.5,-93 154.5,-74 274.5,-74 274.5,-93"/>
<text text-anchor="middle" x="214.5" y="-81" font-family="Ubuntu Mono" font-size="10.00">Ksolve::setNumPools</text>
</a>
</g>
</g>
<!-- Node1&#45;&gt;Node233 -->
<g id="edge49_Node000001_Node000233" class="edge">
<title>Node1&#45;&gt;Node233</title>
<g id="a_edge49_Node000001_Node000233"><a xlink:title=" ">
<path fill="none" stroke="#63b8ff" d="M49.47,-663.9C49.49,-595.95 52.97,-187.77 133,-101.5 136.56,-97.66 140.75,-94.55 145.31,-92.04"/>
<polygon fill="#63b8ff" stroke="#63b8ff" points="146.79,-95.21 154.47,-87.92 143.91,-88.83 146.79,-95.21"/>
</a>
</g>
</g>
<!-- Node235 -->
<g id="Node000235" class="node">
<title>Node235</title>
<g id="a_Node000235"><a xlink:href="classKsolve.html#adfdddb7b208cee8661c2026cf312275c" target="_top" xlink:title=" ">
<polygon fill="white" stroke="#666666" points="281,-56 148,-56 148,-37 281,-37 281,-56"/>
<text text-anchor="middle" x="214.5" y="-44" font-family="Ubuntu Mono" font-size="10.00">Ksolve::setNumThreads</text>
</a>
</g>
</g>
<!-- Node1&#45;&gt;Node235 -->
<g id="edge50_Node000001_Node000235" class="edge">
<title>Node1&#45;&gt;Node235</title>
<g id="a_edge50_Node000001_Node000235"><a xlink:title=" ">
<path fill="none" stroke="#63b8ff" d="M49.38,-663.74C48.71,-592.83 48.12,-156.8 133,-64.5 134.82,-62.52 136.81,-60.73 138.94,-59.12"/>
<polygon fill="#63b8ff" stroke="#63b8ff" points="141.01,-61.95 147.71,-53.73 137.35,-55.98 141.01,-61.95"/>
</a>
</g>
</g>
<!-- Node236 -->
<g id="Node000236" class="node">
<title>Node236</title>
<g id="a_Node000236"><a xlink:href="classKsolve.html#a4b60162796b1f75c558631bf49382b19" target="_top" xlink:title=" ">
<polygon fill="#fff0f0" stroke="red" points="262,-831 167,-831 167,-812 262,-812 262,-831"/>
<text text-anchor="middle" x="214.5" y="-819" font-family="Ubuntu Mono" font-size="10.00">Ksolve::setNvec</text>
</a>
</g>
</g>
<!-- Node1&#45;&gt;Node236 -->
<g id="edge51_Node000001_Node000236" class="edge">
<title>Node1&#45;&gt;Node236</title>
<g id="a_edge51_Node000001_Node000236"><a xlink:title=" ">
<path fill="none" stroke="#63b8ff" d="M52.75,-683.17C61.5,-707.59 87.93,-772 133,-803.5 140.09,-808.45 148.31,-812.07 156.74,-814.71"/>
<polygon fill="#63b8ff" stroke="#63b8ff" points="156.1,-818.16 166.67,-817.37 157.92,-811.4 156.1,-818.16"/>
</a>
</g>
</g>
<!-- Node237 -->
<g id="Node000237" class="node">
<title>Node237</title>
<g id="a_Node000237"><a xlink:href="classSharedFinfo.html#a64b94efcbd56f0e785f92d027541ae29" target="_top" xlink:title=" ">
<polygon fill="white" stroke="#666666" points="491,-1168 353,-1168 353,-1149 491,-1149 491,-1168"/>
<text text-anchor="middle" x="422" y="-1156" font-family="Ubuntu Mono" font-size="10.00">SharedFinfo::SharedFinfo</text>
</a>
</g>
</g>
<!-- Node1&#45;&gt;Node237 -->
<g id="edge53_Node000001_Node000237" class="edge">
<title>Node1&#45;&gt;Node237</title>
<g id="a_edge53_Node000001_Node000237"><a xlink:title=" ">
<path fill="none" stroke="#63b8ff" d="M49.7,-683.32C51.14,-744.69 62.18,-1074.96 133,-1138.5 162.84,-1165.27 267.85,-1166.39 342.43,-1163.47"/>
<polygon fill="#63b8ff" stroke="#63b8ff" points="342.9,-1166.95 352.74,-1163.03 342.6,-1159.96 342.9,-1166.95"/>
</a>
</g>
</g>
<!-- Node238 -->
<g id="Node000238" class="node">
<title>Node238</title>
<g id="a_Node000238"><a xlink:href="classKsolve.html#a1febe5af0cafdabe1a2db07ef46a5b83" target="_top" xlink:title=" ">
<polygon fill="#fff0f0" stroke="red" points="280,-19 149,-19 149,0 280,0 280,-19"/>
<text text-anchor="middle" x="214.5" y="-7" font-family="Ubuntu Mono" font-size="10.00">Ksolve::updateVoxelVol</text>
</a>
</g>
</g>
<!-- Node1&#45;&gt;Node238 -->
<g id="edge55_Node000001_Node000238" class="edge">
<title>Node1&#45;&gt;Node238</title>
<g id="a_edge55_Node000001_Node000238"><a xlink:title=" ">
<path fill="none" stroke="#63b8ff" d="M49.29,-663.63C47.96,-589.93 43.24,-125.86 133,-27.5 135.08,-25.22 137.38,-23.19 139.85,-21.4"/>
<polygon fill="#63b8ff" stroke="#63b8ff" points="141.97,-24.22 148.83,-16.14 138.43,-18.18 141.97,-24.22"/>
</a>
</g>
</g>
<!-- Node3 -->
<g id="Node000003" class="node">
<title>Node3</title>
<g id="a_Node000003"><a xlink:href="classCinfo.html#a4f32262aa0cc7c19bc520885a5dc9509" target="_top" xlink:title=" ">
<polygon fill="white" stroke="#666666" points="641,-1317 548,-1317 548,-1298 641,-1298 641,-1317"/>
<text text-anchor="middle" x="594.5" y="-1305" font-family="Ubuntu Mono" font-size="10.00">Cinfo::cinfoMap</text>
</a>
</g>
</g>
<!-- Node2&#45;&gt;Node3 -->
<g id="edge2_Node000002_Node000003" class="edge">
<title>Node2&#45;&gt;Node3</title>
<g id="a_edge2_Node000002_Node000003"><a xlink:title=" ">
<path fill="none" stroke="#63b8ff" d="M459.16,-1293.32C482.03,-1295.73 512.05,-1298.9 537.9,-1301.63"/>
<polygon fill="#63b8ff" stroke="#63b8ff" points="537.64,-1305.12 547.96,-1302.69 538.38,-1298.16 537.64,-1305.12"/>
</a>
</g>
</g>
<!-- Node4 -->
<g id="Node000004" class="node">
<title>Node4</title>
<g id="a_Node000004"><a xlink:href="classCinfo.html#a794a4e6f88c66438308ca177d9c92751" target="_top" xlink:title=" ">
<polygon fill="#fff0f0" stroke="red" points="626.5,-1280 562.5,-1280 562.5,-1261 626.5,-1261 626.5,-1280"/>
<text text-anchor="middle" x="594.5" y="-1268" font-family="Ubuntu Mono" font-size="10.00">Cinfo::init</text>
</a>
</g>
</g>
<!-- Node2&#45;&gt;Node4 -->
<g id="edge3_Node000002_Node000004" class="edge">
<title>Node2&#45;&gt;Node4</title>
<g id="a_edge3_Node000002_Node000004"><a xlink:title=" ">
<path fill="none" stroke="#63b8ff" d="M459.16,-1285.47C486.41,-1282.43 523.81,-1278.27 552.23,-1275.1"/>
<polygon fill="#63b8ff" stroke="#63b8ff" points="552.71,-1278.57 562.26,-1273.98 551.93,-1271.61 552.71,-1278.57"/>
</a>
</g>
</g>
<!-- Node9 -->
<g id="Node000009" class="node">
<title>Node9</title>
<g id="a_Node000009"><a xlink:href="classFinfo.html#a1988dedc8761bf072a396354fe2d1672" target="_top" xlink:title=" ">
<polygon fill="white" stroke="#666666" points="630,-1205 559,-1205 559,-1186 630,-1186 630,-1205"/>
<text text-anchor="middle" x="594.5" y="-1193" font-family="Ubuntu Mono" font-size="10.00">Finfo::Finfo</text>
</a>
</g>
</g>
<!-- Node8&#45;&gt;Node9 -->
<g id="edge5_Node000008_Node000009" class="edge">
<title>Node8&#45;&gt;Node9</title>
<g id="a_edge5_Node000008_Node000009"><a xlink:title=" ">
<path fill="none" stroke="#63b8ff" d="M468.31,-1224C482.33,-1221.01 497.81,-1217.67 512,-1214.5 523.96,-1211.83 536.89,-1208.85 548.86,-1206.07"/>
<polygon fill="#63b8ff" stroke="#63b8ff" points="549.69,-1209.47 558.63,-1203.78 548.1,-1202.65 549.69,-1209.47"/>
</a>
</g>
</g>
<!-- Node14 -->
<g id="Node000014" class="node">
<title>Node14</title>
<g id="a_Node000014"><a xlink:href="classStoich.html#ab73081eaab28cb65be3ceb376f559e73" target="_top" xlink:title=" ">
<polygon fill="white" stroke="#666666" points="487.5,-1055 356.5,-1055 356.5,-1036 487.5,-1036 487.5,-1055"/>
<text text-anchor="middle" x="422" y="-1043" font-family="Ubuntu Mono" font-size="10.00">Stoich::getNumAllPools</text>
</a>
</g>
</g>
<!-- Node13&#45;&gt;Node14 -->
<g id="edge10_Node000013_Node000014" class="edge">
<title>Node13&#45;&gt;Node14</title>
<g id="a_edge10_Node000013_Node000014"><a xlink:title=" ">
<path fill="none" stroke="#63b8ff" d="M268.42,-1018.03C295.76,-1022.95 329.31,-1028.99 357.98,-1034.15"/>
<polygon fill="#63b8ff" stroke="#63b8ff" points="357.44,-1037.61 367.9,-1035.94 358.68,-1030.72 357.44,-1037.61"/>
</a>
</g>
</g>
<!-- Node15 -->
<g id="Node000015" class="node">
<title>Node15</title>
<g id="a_Node000015"><a xlink:href="classStoich.html#a39d1868cebe3c20837e974cbb1d336de" target="_top" xlink:title=" ">
<polygon fill="white" stroke="#666666" points="481.5,-1018 362.5,-1018 362.5,-999 481.5,-999 481.5,-1018"/>
<text text-anchor="middle" x="422" y="-1006" font-family="Ubuntu Mono" font-size="10.00">Stoich::getNumRates</text>
</a>
</g>
</g>
<!-- Node13&#45;&gt;Node15 -->
<g id="edge11_Node000013_Node000015" class="edge">
<title>Node13&#45;&gt;Node15</title>
<g id="a_edge11_Node000013_Node000015"><a xlink:title=" ">
<path fill="none" stroke="#63b8ff" d="M280.52,-1008.5C303.36,-1008.5 329.09,-1008.5 352.23,-1008.5"/>
<polygon fill="#63b8ff" stroke="#63b8ff" points="352.32,-1012 362.32,-1008.5 352.32,-1005 352.32,-1012"/>
</a>
</g>
</g>
<!-- Node16 -->
<g id="Node000016" class="node">
<title>Node16</title>
<g id="a_Node000016"><a xlink:href="classVoxelPools.html#ad752502b7293130ca142bb7dd9b17fdf" target="_top" xlink:title=" ">
<polygon fill="#fff0f0" stroke="red" points="512,-981 332,-981 332,-962 512,-962 512,-981"/>
<text text-anchor="middle" x="422" y="-969" font-family="Ubuntu Mono" font-size="10.00">VoxelPools::updateReacVelocities</text>
</a>
</g>
</g>
<!-- Node13&#45;&gt;Node16 -->
<g id="edge12_Node000013_Node000016" class="edge">
<title>Node13&#45;&gt;Node16</title>
<g id="a_edge12_Node000013_Node000016"><a xlink:title=" ">
<path fill="none" stroke="#63b8ff" d="M268.42,-998.97C295.76,-994.05 329.31,-988.01 357.98,-982.85"/>
<polygon fill="#63b8ff" stroke="#63b8ff" points="358.68,-986.28 367.9,-981.06 357.44,-979.39 358.68,-986.28"/>
</a>
</g>
</g>
<!-- Node24 -->
<g id="Node000024" class="node">
<title>Node24</title>
<g id="a_Node000024"><a xlink:href="classVoxelPoolsBase.html#ab77b743ec417b4879106490e5663816b" target="_top" xlink:title=" ">
<polygon fill="white" stroke="#666666" points="481.5,-831 362.5,-831 362.5,-812 481.5,-812 481.5,-831"/>
<text text-anchor="middle" x="422" y="-819" font-family="Ubuntu Mono" font-size="10.00">VoxelPoolsBase::size</text>
</a>
</g>
</g>
<!-- Node23&#45;&gt;Node24 -->
<g id="edge17_Node000023_Node000024" class="edge">
<title>Node23&#45;&gt;Node24</title>
<g id="a_edge17_Node000023_Node000024"><a xlink:title=" ">
<path fill="none" stroke="#63b8ff" d="M268.42,-794.03C295.76,-798.95 329.31,-804.99 357.98,-810.15"/>
<polygon fill="#63b8ff" stroke="#63b8ff" points="357.44,-813.61 367.9,-811.94 358.68,-806.72 357.44,-813.61"/>
</a>
</g>
</g>
<!-- Node27 -->
<g id="Node000027" class="node">
<title>Node27</title>
<g id="a_Node000027"><a xlink:href="classVoxelPoolsBase.html#af5e1c75777f866323c53c267f6eae9c5" target="_top" xlink:title="Returns a handle to the mol # vector.">
<polygon fill="white" stroke="#666666" points="483,-794 361,-794 361,-775 483,-775 483,-794"/>
<text text-anchor="middle" x="422" y="-782" font-family="Ubuntu Mono" font-size="10.00">VoxelPoolsBase::Svec</text>
</a>
</g>
</g>
<!-- Node26&#45;&gt;Node27 -->
<g id="edge20_Node000026_Node000027" class="edge">
<title>Node26&#45;&gt;Node27</title>
<g id="a_edge20_Node000026_Node000027"><a xlink:title=" ">
<path fill="none" stroke="#63b8ff" d="M262.74,-716.96C274.1,-719.76 285.88,-723.77 296,-729.5 315.96,-740.81 311.86,-755.51 332,-766.5 337.95,-769.75 344.41,-772.41 351.05,-774.59"/>
<polygon fill="#63b8ff" stroke="#63b8ff" points="350.27,-778.01 360.85,-777.46 352.24,-771.3 350.27,-778.01"/>
</a>
</g>
</g>
<!-- Node29 -->
<g id="Node000029" class="node">
<title>Node29</title>
<g id="a_Node000029"><a xlink:href="classStoich.html#aec594bfef9a6dc7c12bb6683bbbdaccb" target="_top" xlink:title=" ">
<polygon fill="white" stroke="#666666" points="502,-757 342,-757 342,-738 502,-738 502,-757"/>
<text text-anchor="middle" x="422" y="-745" font-family="Ubuntu Mono" font-size="10.00">Stoich::convertIdToReacIndex</text>
</a>
</g>
</g>
<!-- Node28&#45;&gt;Node29 -->
<g id="edge22_Node000028_Node000029" class="edge">
<title>Node28&#45;&gt;Node29</title>
<g id="a_edge22_Node000028_Node000029"><a xlink:title=" ">
<path fill="none" stroke="#63b8ff" d="M273.74,-683.05C281.49,-685.51 289.13,-688.61 296,-692.5 315.96,-703.81 311.86,-718.51 332,-729.5 335.31,-731.3 338.78,-732.93 342.34,-734.39"/>
<polygon fill="#63b8ff" stroke="#63b8ff" points="341.38,-737.77 351.98,-737.9 343.77,-731.19 341.38,-737.77"/>
</a>
</g>
</g>
<!-- Node30 -->
<g id="Node000030" class="node">
<title>Node30</title>
<g id="a_Node000030"><a xlink:href="classKsolve.html#a39feccbf14210b05d18b953bfa9bf96c" target="_top" xlink:title="Unlike getNvec, this returns vector of R1 for this reac across voxels.">
<polygon fill="#fff0f0" stroke="red" points="472.5,-720 371.5,-720 371.5,-701 472.5,-701 472.5,-720"/>
<text text-anchor="middle" x="422" y="-708" font-family="Ubuntu Mono" font-size="10.00">Ksolve::getR1vec</text>
</a>
</g>
</g>
<!-- Node28&#45;&gt;Node30 -->
<g id="edge23_Node000028_Node000030" class="edge">
<title>Node28&#45;&gt;Node30</title>
<g id="a_edge23_Node000028_Node000030"><a xlink:title=" ">
<path fill="none" stroke="#63b8ff" d="M268.42,-683.03C296.82,-688.14 331.93,-694.46 361.31,-699.75"/>
<polygon fill="#63b8ff" stroke="#63b8ff" points="360.97,-703.25 371.44,-701.58 362.21,-696.36 360.97,-703.25"/>
</a>
</g>
</g>
<!-- Node33 -->
<g id="Node000033" class="node">
<title>Node33</title>
<g id="a_Node000033"><a xlink:href="classId.html#ac094968605676d63b55ca33b7e318948" target="_top" xlink:title=" ">
<polygon fill="white" stroke="#666666" points="615,-663 574,-663 574,-644 615,-644 615,-663"/>
<text text-anchor="middle" x="594.5" y="-651" font-family="Ubuntu Mono" font-size="10.00">Id::Id</text>
</a>
</g>
</g>
<!-- Node28&#45;&gt;Node33 -->
<g id="edge24_Node000028_Node000033" class="edge">
<title>Node28&#45;&gt;Node33</title>
<g id="a_edge24_Node000028_Node000033"><a xlink:title=" ">
<path fill="none" stroke="#63b8ff" d="M293.36,-669.38C377.01,-664.95 505.71,-658.14 563.55,-655.08"/>
<polygon fill="#63b8ff" stroke="#63b8ff" points="564.01,-658.57 573.81,-654.54 563.64,-651.57 564.01,-658.57"/>
</a>
</g>
</g>
<!-- Node34 -->
<g id="Node000034" class="node">
<title>Node34</title>
<g id="a_Node000034"><a xlink:href="classId.html#a2b250429848a6c800e8405bbdebc8536" target="_top" xlink:title=" ">
<polygon fill="#fff0f0" stroke="red" points="442.5,-644 401.5,-644 401.5,-625 442.5,-625 442.5,-644"/>
<text text-anchor="middle" x="422" y="-632" font-family="Ubuntu Mono" font-size="10.00">Id::Id</text>
</a>
</g>
</g>
<!-- Node28&#45;&gt;Node34 -->
<g id="edge25_Node000028_Node000034" class="edge">
<title>Node28&#45;&gt;Node34</title>
<g id="a_edge25_Node000028_Node000034"><a xlink:title=" ">
<path fill="none" stroke="#63b8ff" d="M265.77,-663.96C305.23,-656.47 358.8,-646.3 391.58,-640.08"/>
<polygon fill="#63b8ff" stroke="#63b8ff" points="392.27,-643.51 401.45,-638.21 390.97,-636.64 392.27,-643.51"/>
</a>
</g>
</g>
<!-- Node79 -->
<g id="Node000079" class="node">
<title>Node79</title>
<g id="a_Node000079"><a xlink:href="classId.html#a6a4a7d5c9e8524644febc6b6e8dc1ab9" target="_top" xlink:title=" ">
<polygon fill="white" stroke="#666666" points="464.5,-607 379.5,-607 379.5,-588 464.5,-588 464.5,-607"/>
<text text-anchor="middle" x="422" y="-595" font-family="Ubuntu Mono" font-size="10.00">Id::operator!=</text>
</a>
</g>
</g>
<!-- Node28&#45;&gt;Node79 -->
<g id="edge27_Node000028_Node000079" class="edge">
<title>Node28&#45;&gt;Node79</title>
<g id="a_edge27_Node000028_Node000079"><a xlink:title=" ">
<path fill="none" stroke="#63b8ff" d="M276.77,-663.96C283.49,-661.71 290.04,-658.93 296,-655.5 316.44,-643.72 311.5,-628.18 332,-616.5 343.27,-610.08 356.45,-605.83 369.17,-603.01"/>
<polygon fill="#63b8ff" stroke="#63b8ff" points="370.09,-606.39 379.23,-601.04 368.74,-599.52 370.09,-606.39"/>
</a>
</g>
</g>
<!-- Node62 -->
<g id="Node000062" class="node">
<title>Node62</title>
<g id="a_Node000062"><a xlink:href="classId.html#a38206d79367649ab0056b93e6da3b789" target="_top" xlink:title=" ">
<polygon fill="white" stroke="#666666" points="466.5,-570 377.5,-570 377.5,-551 466.5,-551 466.5,-570"/>
<text text-anchor="middle" x="422" y="-558" font-family="Ubuntu Mono" font-size="10.00">Id::operator==</text>
</a>
</g>
</g>
<!-- Node28&#45;&gt;Node62 -->
<g id="edge28_Node000028_Node000062" class="edge">
<title>Node28&#45;&gt;Node62</title>
<g id="a_edge28_Node000028_Node000062"><a xlink:title=" ">
<path fill="none" stroke="#63b8ff" d="M281.96,-663.96C286.99,-661.68 291.75,-658.9 296,-655.5 325.2,-632.17 302.69,-602.69 332,-579.5 342.07,-571.53 354.72,-566.71 367.29,-563.84"/>
<polygon fill="#63b8ff" stroke="#63b8ff" points="368.14,-567.24 377.3,-561.93 366.83,-560.36 368.14,-567.24"/>
</a>
</g>
</g>
<!-- Node34&#45;&gt;Node33 -->
<g id="edge26_Node000034_Node000033" class="edge">
<title>Node34&#45;&gt;Node33</title>
<g id="a_edge26_Node000034_Node000033"><a xlink:title=" ">
<path fill="none" stroke="#63b8ff" d="M442.56,-636.68C472.28,-639.99 529.05,-646.32 563.86,-650.2"/>
<polygon fill="#63b8ff" stroke="#63b8ff" points="563.58,-653.69 573.91,-651.32 564.36,-646.73 563.58,-653.69"/>
</a>
</g>
</g>
<!-- Node82&#45;&gt;Node2 -->
<g id="edge31_Node000082_Node000002" class="edge">
<title>Node82&#45;&gt;Node2</title>
<g id="a_edge31_Node000082_Node000002"><a xlink:title=" ">
<path fill="none" stroke="#63b8ff" d="M250.83,-1243.13C285.59,-1252.6 338.79,-1267.1 376.44,-1277.36"/>
<polygon fill="#63b8ff" stroke="#63b8ff" points="375.57,-1280.75 386.13,-1280 377.41,-1273.99 375.57,-1280.75"/>
</a>
</g>
</g>
<!-- Node82&#45;&gt;Node8 -->
<g id="edge32_Node000082_Node000008" class="edge">
<title>Node82&#45;&gt;Node8</title>
<g id="a_edge32_Node000082_Node000008"><a xlink:title=" ">
<path fill="none" stroke="#63b8ff" d="M264.72,-1233.5C291.38,-1233.5 324.71,-1233.5 353.74,-1233.5"/>
<polygon fill="#63b8ff" stroke="#63b8ff" points="353.81,-1237 363.81,-1233.5 353.81,-1230 353.81,-1237"/>
</a>
</g>
</g>
<!-- Node82&#45;&gt;Node180 -->
<g id="edge33_Node000082_Node000180" class="edge">
<title>Node82&#45;&gt;Node180</title>
<g id="a_edge33_Node000082_Node000180"><a xlink:title=" ">
<path fill="none" stroke="#63b8ff" d="M264.72,-1224.4C293.1,-1219.15 329.03,-1212.51 359.29,-1206.91"/>
<polygon fill="#63b8ff" stroke="#63b8ff" points="360.11,-1210.32 369.31,-1205.06 358.84,-1203.43 360.11,-1210.32"/>
</a>
</g>
</g>
<!-- Node189&#45;&gt;Node22 -->
<g id="edge39_Node000189_Node000022" class="edge">
<title>Node189&#45;&gt;Node22</title>
<g id="a_edge39_Node000189_Node000022"><a xlink:title=" ">
<path fill="none" stroke="#63b8ff" d="M261.11,-893.28C283.03,-891.26 310.04,-888.76 335.58,-886.4"/>
<polygon fill="#63b8ff" stroke="#63b8ff" points="336.02,-889.87 345.66,-885.47 335.38,-882.9 336.02,-889.87"/>
</a>
</g>
</g>
<!-- Node236&#45;&gt;Node24 -->
<g id="edge52_Node000236_Node000024" class="edge">
<title>Node236&#45;&gt;Node24</title>
<g id="a_edge52_Node000236_Node000024"><a xlink:title=" ">
<path fill="none" stroke="#63b8ff" d="M262.13,-821.5C288.72,-821.5 322.54,-821.5 352.14,-821.5"/>
<polygon fill="#63b8ff" stroke="#63b8ff" points="352.41,-825 362.41,-821.5 352.41,-818 352.41,-825"/>
</a>
</g>
</g>
<!-- Node237&#45;&gt;Node9 -->
<g id="edge54_Node000237_Node000009" class="edge">
<title>Node237&#45;&gt;Node9</title>
<g id="a_edge54_Node000237_Node000009"><a xlink:title=" ">
<path fill="none" stroke="#63b8ff" d="M467.83,-1168.01C481.97,-1171.02 497.64,-1174.38 512,-1177.5 523.95,-1180.09 536.87,-1182.93 548.83,-1185.58"/>
<polygon fill="#63b8ff" stroke="#63b8ff" points="548.09,-1189 558.61,-1187.74 549.6,-1182.16 548.09,-1189"/>
</a>
</g>
</g>
</g>
</svg>
