<?xml version="1.0" encoding="UTF-8" standalone="no"?>
<!DOCTYPE svg PUBLIC "-//W3C//DTD SVG 1.1//EN"
 "http://www.w3.org/Graphics/SVG/1.1/DTD/svg11.dtd">
<!-- Generated by graphviz version 2.43.0 (0)
 -->
<!-- Title: MarkovRateTable Pages: 1 -->
<svg width="184pt" height="692pt"
 viewBox="0.00 0.00 184.00 692.00" xmlns="http://www.w3.org/2000/svg" xmlns:xlink="http://www.w3.org/1999/xlink">
<g id="graph0" class="graph" transform="scale(1 1) rotate(0) translate(4 688)">
<title>MarkovRateTable</title>
<!-- Node1 -->
<g id="Node000001" class="node">
<title>Node1</title>
<g id="a_Node000001"><a xlink:title=" ">
<polygon fill="#999999" stroke="transparent" points="148,-319 0,-319 0,0 148,0 148,-319"/>
<text text-anchor="start" x="31.5" y="-306.5" font-family="Ubuntu Mono" font-size="10.00">MarkovRateTable</text>
<text text-anchor="start" x="6.5" y="-291.5" font-family="Ubuntu Mono" font-size="10.00">&#45;</text>
<text text-anchor="start" x="17" y="-291.5" font-family="Ubuntu Mono" font-size="10.00">int2dTables_</text>
<text text-anchor="start" x="6.5" y="-276.5" font-family="Ubuntu Mono" font-size="10.00">&#45;</text>
<text text-anchor="start" x="17" y="-276.5" font-family="Ubuntu Mono" font-size="10.00">ligandConc_</text>
<text text-anchor="start" x="6.5" y="-261.5" font-family="Ubuntu Mono" font-size="10.00">&#45;</text>
<text text-anchor="start" x="17" y="-261.5" font-family="Ubuntu Mono" font-size="10.00">Q_</text>
<text text-anchor="start" x="6.5" y="-246.5" font-family="Ubuntu Mono" font-size="10.00">&#45;</text>
<text text-anchor="start" x="17" y="-246.5" font-family="Ubuntu Mono" font-size="10.00">size_</text>
<text text-anchor="start" x="6.5" y="-231.5" font-family="Ubuntu Mono" font-size="10.00">&#45;</text>
<text text-anchor="start" x="17" y="-231.5" font-family="Ubuntu Mono" font-size="10.00">useLigandConc_</text>
<text text-anchor="start" x="6.5" y="-216.5" font-family="Ubuntu Mono" font-size="10.00">&#45;</text>
<text text-anchor="start" x="17" y="-216.5" font-family="Ubuntu Mono" font-size="10.00">Vm_</text>
<text text-anchor="start" x="6.5" y="-201.5" font-family="Ubuntu Mono" font-size="10.00">&#45;</text>
<text text-anchor="start" x="17" y="-201.5" font-family="Ubuntu Mono" font-size="10.00">vtTables_</text>
<text text-anchor="start" x="4" y="-186.5" font-family="Ubuntu Mono" font-size="10.00">+</text>
<text text-anchor="start" x="17" y="-186.5" font-family="Ubuntu Mono" font-size="10.00">areAllRates1d()</text>
<text text-anchor="start" x="4" y="-171.5" font-family="Ubuntu Mono" font-size="10.00">+</text>
<text text-anchor="start" x="17" y="-171.5" font-family="Ubuntu Mono" font-size="10.00">areAllRates2d()</text>
<text text-anchor="start" x="4" y="-156.5" font-family="Ubuntu Mono" font-size="10.00">+</text>
<text text-anchor="start" x="17" y="-156.5" font-family="Ubuntu Mono" font-size="10.00">areAllRatesConstant()</text>
<text text-anchor="start" x="4" y="-141.5" font-family="Ubuntu Mono" font-size="10.00">+</text>
<text text-anchor="start" x="17" y="-141.5" font-family="Ubuntu Mono" font-size="10.00">areAllRatesLigandDep()</text>
<text text-anchor="start" x="4" y="-126.5" font-family="Ubuntu Mono" font-size="10.00">+</text>
<text text-anchor="start" x="17" y="-126.5" font-family="Ubuntu Mono" font-size="10.00">areAllRatesVoltageDep()</text>
<text text-anchor="start" x="4" y="-111.5" font-family="Ubuntu Mono" font-size="10.00">+</text>
<text text-anchor="start" x="17" y="-111.5" font-family="Ubuntu Mono" font-size="10.00">areAnyRates1d()</text>
<text text-anchor="start" x="4" y="-96.5" font-family="Ubuntu Mono" font-size="10.00">+</text>
<text text-anchor="start" x="17" y="-96.5" font-family="Ubuntu Mono" font-size="10.00">areAnyRates2d()</text>
<text text-anchor="start" x="4" y="-81.5" font-family="Ubuntu Mono" font-size="10.00">+</text>
<text text-anchor="start" x="17" y="-81.5" font-family="Ubuntu Mono" font-size="10.00">areAnyRatesLigandDep()</text>
<text text-anchor="start" x="4" y="-66.5" font-family="Ubuntu Mono" font-size="10.00">+</text>
<text text-anchor="start" x="17" y="-66.5" font-family="Ubuntu Mono" font-size="10.00">areAnyRatesVoltageDep()</text>
<text text-anchor="start" x="4" y="-51.5" font-family="Ubuntu Mono" font-size="10.00">+</text>
<text text-anchor="start" x="17" y="-51.5" font-family="Ubuntu Mono" font-size="10.00">areIndicesOutOfBounds()</text>
<text text-anchor="start" x="17" y="-36.5" font-family="Ubuntu Mono" font-size="10.00">and 36 more...</text>
<text text-anchor="start" x="4" y="-21.5" font-family="Ubuntu Mono" font-size="10.00">+</text>
<text text-anchor="start" x="17" y="-21.5" font-family="Ubuntu Mono" font-size="10.00">initCinfo()</text>
<text text-anchor="start" x="6.5" y="-6.5" font-family="Ubuntu Mono" font-size="10.00">&#45;</text>
<text text-anchor="start" x="17" y="-6.5" font-family="Ubuntu Mono" font-size="10.00">isInitialized()</text>
<polygon fill="#666666" stroke="#666666" points="0,-301.5 0,-301.5 148,-301.5 148,-301.5 0,-301.5"/>
<polygon fill="#666666" stroke="#666666" points="0,-196.5 0,-196.5 15,-196.5 15,-196.5 0,-196.5"/>
<polygon fill="#666666" stroke="#666666" points="15,-196.5 15,-196.5 148,-196.5 148,-196.5 15,-196.5"/>
<polygon fill="none" stroke="#666666" points="0,0 0,-319 148,-319 148,0 0,0"/>
</a>
</g>
</g>
<!-- Node2 -->
<g id="Node000002" class="node">
<title>Node2</title>
<g id="a_Node000002"><a xlink:title=" ">
<polygon fill="white" stroke="transparent" points="133,-492 15,-492 15,-432 133,-432 133,-492"/>
<text text-anchor="start" x="20" y="-480" font-family="Ubuntu Mono" font-size="10.00">std::vector&lt; unsigned</text>
<text text-anchor="start" x="60" y="-469" font-family="Ubuntu Mono" font-size="10.00"> int &gt;</text>
<text text-anchor="start" x="31.5" y="-454" font-family="Ubuntu Mono" font-size="10.00">+</text>
<text text-anchor="start" x="57" y="-454" font-family="Ubuntu Mono" font-size="10.00">elements</text>
<text text-anchor="start" x="72" y="-439" font-family="Ubuntu Mono" font-size="10.00"> </text>
<polygon fill="#666666" stroke="#666666" points="15,-464 15,-464 133,-464 133,-464 15,-464"/>
<polygon fill="#666666" stroke="#666666" points="15,-449 15,-449 55,-449 55,-449 15,-449"/>
<polygon fill="#666666" stroke="#666666" points="55,-449 55,-449 133,-449 133,-449 55,-449"/>
<polygon fill="none" stroke="#666666" points="15,-432 15,-492 133,-492 133,-432 15,-432"/>
</a>
</g>
</g>
<!-- Node2&#45;&gt;Node1 -->
<g id="edge1_Node000001_Node000002" class="edge">
<title>Node2&#45;&gt;Node1</title>
<g id="a_edge1_Node000001_Node000002"><a xlink:title=" ">
<path fill="none" stroke="#63b8ff" d="M74,-431.91C74,-407.49 74,-370.41 74,-331.43"/>
<polygon fill="none" stroke="#63b8ff" points="74,-331.29 70,-325.29 74,-319.29 78,-325.29 74,-331.29"/>
</a>
</g>
<text text-anchor="middle" x="125" y="-406" font-family="Ubuntu Mono" font-size="10.00" fill="grey"> &#45;listOf1dRates_</text>
<text text-anchor="middle" x="125" y="-395" font-family="Ubuntu Mono" font-size="10.00" fill="grey">&#45;listOf2dRates_</text>
<text text-anchor="start" x="74" y="-384" font-family="Ubuntu Mono" font-size="10.00" fill="grey">&#45;listOfConstantRates</text>
<text text-anchor="middle" x="125" y="-373" font-family="Ubuntu Mono" font-size="10.00" fill="grey">_</text>
<text text-anchor="start" x="74" y="-362" font-family="Ubuntu Mono" font-size="10.00" fill="grey">&#45;listOfLigandRates</text>
<text text-anchor="middle" x="125" y="-351" font-family="Ubuntu Mono" font-size="10.00" fill="grey">_</text>
<text text-anchor="middle" x="125" y="-340" font-family="Ubuntu Mono" font-size="10.00" fill="grey">&#45;listOfVoltageRates_</text>
</g>
<!-- Node3 -->
<g id="Node000003" class="node">
<title>Node3</title>
<g id="a_Node000003"><a xlink:title=" ">
<polygon fill="white" stroke="transparent" points="119.5,-588 28.5,-588 28.5,-539 119.5,-539 119.5,-588"/>
<text text-anchor="start" x="34" y="-575.5" font-family="Ubuntu Mono" font-size="10.00">std::vector&lt; T &gt;</text>
<text text-anchor="start" x="72.5" y="-560.5" font-family="Ubuntu Mono" font-size="10.00"> </text>
<text text-anchor="start" x="72.5" y="-545.5" font-family="Ubuntu Mono" font-size="10.00"> </text>
<polygon fill="#666666" stroke="#666666" points="29,-570.5 29,-570.5 120,-570.5 120,-570.5 29,-570.5"/>
<polygon fill="#666666" stroke="#666666" points="29,-555.5 29,-555.5 120,-555.5 120,-555.5 29,-555.5"/>
<polygon fill="none" stroke="#666666" points="28.5,-539 28.5,-588 119.5,-588 119.5,-539 28.5,-539"/>
</a>
</g>
</g>
<!-- Node3&#45;&gt;Node2 -->
<g id="edge2_Node000002_Node000003" class="edge">
<title>Node3&#45;&gt;Node2</title>
<g id="a_edge2_Node000002_Node000003"><a xlink:title=" ">
<path fill="none" stroke="orange" d="M74,-528.87C74,-516.94 74,-503.62 74,-492.1"/>
<polygon fill="orange" stroke="orange" points="70.5,-528.92 74,-538.92 77.5,-528.92 70.5,-528.92"/>
</a>
</g>
<text text-anchor="middle" x="117" y="-513" font-family="Ubuntu Mono" font-size="10.00" fill="grey"> &lt; unsigned int &gt;</text>
</g>
<!-- Node4 -->
<g id="Node000004" class="node">
<title>Node4</title>
<g id="a_Node000004"><a xlink:title=" ">
<polygon fill="white" stroke="transparent" points="82.5,-684 65.5,-684 65.5,-635 82.5,-635 82.5,-684"/>
<text text-anchor="start" x="71" y="-671.5" font-family="Ubuntu Mono" font-size="10.00">T</text>
<text text-anchor="start" x="72.5" y="-656.5" font-family="Ubuntu Mono" font-size="10.00"> </text>
<text text-anchor="start" x="72.5" y="-641.5" font-family="Ubuntu Mono" font-size="10.00"> </text>
<polygon fill="#666666" stroke="#666666" points="66,-666.5 66,-666.5 83,-666.5 83,-666.5 66,-666.5"/>
<polygon fill="#666666" stroke="#666666" points="66,-651.5 66,-651.5 83,-651.5 83,-651.5 66,-651.5"/>
<polygon fill="none" stroke="#666666" points="65.5,-635 65.5,-684 82.5,-684 82.5,-635 65.5,-635"/>
</a>
</g>
</g>
<!-- Node4&#45;&gt;Node3 -->
<g id="edge3_Node000003_Node000004" class="edge">
<title>Node4&#45;&gt;Node3</title>
<g id="a_edge3_Node000003_Node000004"><a xlink:title=" ">
<path fill="none" stroke="#63b8ff" d="M74,-634.78C74,-624.32 74,-611.79 74,-600.23"/>
<polygon fill="none" stroke="#63b8ff" points="74,-600.21 70,-594.21 74,-588.21 78,-594.21 74,-600.21"/>
</a>
</g>
<text text-anchor="middle" x="103" y="-609" font-family="Ubuntu Mono" font-size="10.00" fill="grey"> +elements</text>
</g>
</g>
</svg>
