<?xml version="1.0" encoding="UTF-8" standalone="no"?>
<!DOCTYPE svg PUBLIC "-//W3C//DTD SVG 1.1//EN"
 "http://www.w3.org/Graphics/SVG/1.1/DTD/svg11.dtd">
<!-- Generated by graphviz version 2.43.0 (0)
 -->
<!-- Title: SimpleSynHandler Pages: 1 -->
<svg width="319pt" height="870pt"
 viewBox="0.00 0.00 318.50 870.00" xmlns="http://www.w3.org/2000/svg" xmlns:xlink="http://www.w3.org/1999/xlink">
<g id="graph0" class="graph" transform="scale(1 1) rotate(0) translate(4 866)">
<title>SimpleSynHandler</title>
<!-- Node1 -->
<g id="Node000001" class="node">
<title>Node1</title>
<g id="a_Node000001"><a xlink:title=" ">
<polygon fill="#999999" stroke="transparent" points="127,-229 0,-229 0,0 127,0 127,-229"/>
<text text-anchor="start" x="18.5" y="-216.5" font-family="Ubuntu Mono" font-size="10.00">SimpleSynHandler</text>
<text text-anchor="start" x="7" y="-201.5" font-family="Ubuntu Mono" font-size="10.00">&#45;</text>
<text text-anchor="start" x="17.5" y="-201.5" font-family="Ubuntu Mono" font-size="10.00">events_</text>
<text text-anchor="start" x="4.5" y="-186.5" font-family="Ubuntu Mono" font-size="10.00">+</text>
<text text-anchor="start" x="17.5" y="-186.5" font-family="Ubuntu Mono" font-size="10.00">addSpike()</text>
<text text-anchor="start" x="4.5" y="-171.5" font-family="Ubuntu Mono" font-size="10.00">+</text>
<text text-anchor="start" x="17.5" y="-171.5" font-family="Ubuntu Mono" font-size="10.00">addSynapse()</text>
<text text-anchor="start" x="4.5" y="-156.5" font-family="Ubuntu Mono" font-size="10.00">+</text>
<text text-anchor="start" x="17.5" y="-156.5" font-family="Ubuntu Mono" font-size="10.00">dropSynapse()</text>
<text text-anchor="start" x="4.5" y="-141.5" font-family="Ubuntu Mono" font-size="10.00">+</text>
<text text-anchor="start" x="17.5" y="-141.5" font-family="Ubuntu Mono" font-size="10.00">getTopSpike()</text>
<text text-anchor="start" x="4.5" y="-126.5" font-family="Ubuntu Mono" font-size="10.00">+</text>
<text text-anchor="start" x="17.5" y="-126.5" font-family="Ubuntu Mono" font-size="10.00">operator=()</text>
<text text-anchor="start" x="4.5" y="-111.5" font-family="Ubuntu Mono" font-size="10.00">+</text>
<text text-anchor="start" x="17.5" y="-111.5" font-family="Ubuntu Mono" font-size="10.00">SimpleSynHandler()</text>
<text text-anchor="start" x="4.5" y="-96.5" font-family="Ubuntu Mono" font-size="10.00">+</text>
<text text-anchor="start" x="17.5" y="-96.5" font-family="Ubuntu Mono" font-size="10.00">vGetNumSynapses()</text>
<text text-anchor="start" x="4.5" y="-81.5" font-family="Ubuntu Mono" font-size="10.00">+</text>
<text text-anchor="start" x="17.5" y="-81.5" font-family="Ubuntu Mono" font-size="10.00">vGetSynapse()</text>
<text text-anchor="start" x="4.5" y="-66.5" font-family="Ubuntu Mono" font-size="10.00">+</text>
<text text-anchor="start" x="17.5" y="-66.5" font-family="Ubuntu Mono" font-size="10.00">vProcess()</text>
<text text-anchor="start" x="4.5" y="-51.5" font-family="Ubuntu Mono" font-size="10.00">+</text>
<text text-anchor="start" x="17.5" y="-51.5" font-family="Ubuntu Mono" font-size="10.00">vReinit()</text>
<text text-anchor="start" x="4.5" y="-36.5" font-family="Ubuntu Mono" font-size="10.00">+</text>
<text text-anchor="start" x="17.5" y="-36.5" font-family="Ubuntu Mono" font-size="10.00">vSetNumSynapses()</text>
<text text-anchor="start" x="4.5" y="-21.5" font-family="Ubuntu Mono" font-size="10.00">+</text>
<text text-anchor="start" x="17.5" y="-21.5" font-family="Ubuntu Mono" font-size="10.00">~SimpleSynHandler()</text>
<text text-anchor="start" x="4.5" y="-6.5" font-family="Ubuntu Mono" font-size="10.00">+</text>
<text text-anchor="start" x="17.5" y="-6.5" font-family="Ubuntu Mono" font-size="10.00">initCinfo()</text>
<polygon fill="#666666" stroke="#666666" points="0.5,-211.5 0.5,-211.5 127.5,-211.5 127.5,-211.5 0.5,-211.5"/>
<polygon fill="#666666" stroke="#666666" points="0.5,-196.5 0.5,-196.5 15.5,-196.5 15.5,-196.5 0.5,-196.5"/>
<polygon fill="#666666" stroke="#666666" points="15.5,-196.5 15.5,-196.5 127.5,-196.5 127.5,-196.5 15.5,-196.5"/>
<polygon fill="none" stroke="#666666" points="0,0 0,-229 127,-229 127,0 0,0"/>
</a>
</g>
</g>
<!-- Node2 -->
<g id="Node000002" class="node">
<title>Node2</title>
<g id="a_Node000002"><a xlink:href="classSynHandlerBase.html" target="_top" xlink:title=" ">
<polygon fill="white" stroke="transparent" points="135,-862 20,-862 20,-633 135,-633 135,-862"/>
<text text-anchor="start" x="37.5" y="-849.5" font-family="Ubuntu Mono" font-size="10.00">SynHandlerBase</text>
<text text-anchor="start" x="76" y="-834.5" font-family="Ubuntu Mono" font-size="10.00"> </text>
<text text-anchor="start" x="24.5" y="-819.5" font-family="Ubuntu Mono" font-size="10.00">+</text>
<text text-anchor="start" x="37.5" y="-819.5" font-family="Ubuntu Mono" font-size="10.00">addSpike()</text>
<text text-anchor="start" x="24.5" y="-804.5" font-family="Ubuntu Mono" font-size="10.00">+</text>
<text text-anchor="start" x="37.5" y="-804.5" font-family="Ubuntu Mono" font-size="10.00">addSynapse()</text>
<text text-anchor="start" x="24.5" y="-789.5" font-family="Ubuntu Mono" font-size="10.00">+</text>
<text text-anchor="start" x="37.5" y="-789.5" font-family="Ubuntu Mono" font-size="10.00">dropSynapse()</text>
<text text-anchor="start" x="24.5" y="-774.5" font-family="Ubuntu Mono" font-size="10.00">+</text>
<text text-anchor="start" x="37.5" y="-774.5" font-family="Ubuntu Mono" font-size="10.00">getNumSynapses()</text>
<text text-anchor="start" x="24.5" y="-759.5" font-family="Ubuntu Mono" font-size="10.00">+</text>
<text text-anchor="start" x="37.5" y="-759.5" font-family="Ubuntu Mono" font-size="10.00">getSynapse()</text>
<text text-anchor="start" x="24.5" y="-744.5" font-family="Ubuntu Mono" font-size="10.00">+</text>
<text text-anchor="start" x="37.5" y="-744.5" font-family="Ubuntu Mono" font-size="10.00">getTopSpike()</text>
<text text-anchor="start" x="24.5" y="-729.5" font-family="Ubuntu Mono" font-size="10.00">+</text>
<text text-anchor="start" x="37.5" y="-729.5" font-family="Ubuntu Mono" font-size="10.00">process()</text>
<text text-anchor="start" x="24.5" y="-714.5" font-family="Ubuntu Mono" font-size="10.00">+</text>
<text text-anchor="start" x="37.5" y="-714.5" font-family="Ubuntu Mono" font-size="10.00">rangeWarning()</text>
<text text-anchor="start" x="24.5" y="-699.5" font-family="Ubuntu Mono" font-size="10.00">+</text>
<text text-anchor="start" x="37.5" y="-699.5" font-family="Ubuntu Mono" font-size="10.00">reinit()</text>
<text text-anchor="start" x="24.5" y="-684.5" font-family="Ubuntu Mono" font-size="10.00">+</text>
<text text-anchor="start" x="37.5" y="-684.5" font-family="Ubuntu Mono" font-size="10.00">setNumSynapses()</text>
<text text-anchor="start" x="37.5" y="-669.5" font-family="Ubuntu Mono" font-size="10.00">and 7 more...</text>
<text text-anchor="start" x="24.5" y="-654.5" font-family="Ubuntu Mono" font-size="10.00">+</text>
<text text-anchor="start" x="37.5" y="-654.5" font-family="Ubuntu Mono" font-size="10.00">activationOut()</text>
<text text-anchor="start" x="24.5" y="-639.5" font-family="Ubuntu Mono" font-size="10.00">+</text>
<text text-anchor="start" x="37.5" y="-639.5" font-family="Ubuntu Mono" font-size="10.00">initCinfo()</text>
<polygon fill="#666666" stroke="#666666" points="20.5,-844.5 20.5,-844.5 135.5,-844.5 135.5,-844.5 20.5,-844.5"/>
<polygon fill="#666666" stroke="#666666" points="20.5,-829.5 20.5,-829.5 135.5,-829.5 135.5,-829.5 20.5,-829.5"/>
<polygon fill="none" stroke="#666666" points="20,-633 20,-862 135,-862 135,-633 20,-633"/>
</a>
</g>
</g>
<!-- Node2&#45;&gt;Node1 -->
<g id="edge1_Node000001_Node000002" class="edge">
<title>Node2&#45;&gt;Node1</title>
<g id="a_edge1_Node000001_Node000002"><a xlink:title=" ">
<path fill="none" stroke="#63b8ff" d="M68.26,-622.99C67.56,-610.5 66.95,-598 66.5,-586 61.94,-464.17 61.68,-324.47 62.25,-229.15"/>
<polygon fill="none" stroke="#63b8ff" points="64.77,-623.22 68.84,-633 71.75,-622.81 64.77,-623.22"/>
</a>
</g>
</g>
<!-- Node4 -->
<g id="Node000004" class="node">
<title>Node4</title>
<g id="a_Node000004"><a xlink:href="classSynapse.html" target="_top" xlink:title=" ">
<polygon fill="white" stroke="transparent" points="189,-586 76,-586 76,-372 189,-372 189,-586"/>
<text text-anchor="start" x="112" y="-574" font-family="Ubuntu Mono" font-size="10.00">Synapse</text>
<text text-anchor="start" x="83" y="-559" font-family="Ubuntu Mono" font-size="10.00">&#45;</text>
<text text-anchor="start" x="93.5" y="-559" font-family="Ubuntu Mono" font-size="10.00">delay_</text>
<text text-anchor="start" x="83" y="-544" font-family="Ubuntu Mono" font-size="10.00">&#45;</text>
<text text-anchor="start" x="93.5" y="-544" font-family="Ubuntu Mono" font-size="10.00">weight_</text>
<text text-anchor="start" x="80.5" y="-529" font-family="Ubuntu Mono" font-size="10.00">+</text>
<text text-anchor="start" x="93.5" y="-529" font-family="Ubuntu Mono" font-size="10.00">addSpike()</text>
<text text-anchor="start" x="80.5" y="-514" font-family="Ubuntu Mono" font-size="10.00">+</text>
<text text-anchor="start" x="93.5" y="-514" font-family="Ubuntu Mono" font-size="10.00">getDelay()</text>
<text text-anchor="start" x="80.5" y="-499" font-family="Ubuntu Mono" font-size="10.00">+</text>
<text text-anchor="start" x="93.5" y="-499" font-family="Ubuntu Mono" font-size="10.00">getTopSpike()</text>
<text text-anchor="start" x="80.5" y="-484" font-family="Ubuntu Mono" font-size="10.00">+</text>
<text text-anchor="start" x="93.5" y="-484" font-family="Ubuntu Mono" font-size="10.00">getWeight()</text>
<text text-anchor="start" x="80.5" y="-469" font-family="Ubuntu Mono" font-size="10.00">+</text>
<text text-anchor="start" x="93.5" y="-469" font-family="Ubuntu Mono" font-size="10.00">setDelay()</text>
<text text-anchor="start" x="80.5" y="-454" font-family="Ubuntu Mono" font-size="10.00">+</text>
<text text-anchor="start" x="93.5" y="-454" font-family="Ubuntu Mono" font-size="10.00">setHandler()</text>
<text text-anchor="start" x="80.5" y="-439" font-family="Ubuntu Mono" font-size="10.00">+</text>
<text text-anchor="start" x="93.5" y="-439" font-family="Ubuntu Mono" font-size="10.00">setWeight()</text>
<text text-anchor="start" x="80.5" y="-424" font-family="Ubuntu Mono" font-size="10.00">+</text>
<text text-anchor="start" x="93.5" y="-424" font-family="Ubuntu Mono" font-size="10.00">Synapse()</text>
<text text-anchor="start" x="80.5" y="-409" font-family="Ubuntu Mono" font-size="10.00">+</text>
<text text-anchor="start" x="93.5" y="-409" font-family="Ubuntu Mono" font-size="10.00">addMsgCallback()</text>
<text text-anchor="start" x="80.5" y="-394" font-family="Ubuntu Mono" font-size="10.00">+</text>
<text text-anchor="start" x="93.5" y="-394" font-family="Ubuntu Mono" font-size="10.00">dropMsgCallback()</text>
<text text-anchor="start" x="80.5" y="-379" font-family="Ubuntu Mono" font-size="10.00">+</text>
<text text-anchor="start" x="93.5" y="-379" font-family="Ubuntu Mono" font-size="10.00">initCinfo()</text>
<polygon fill="#666666" stroke="#666666" points="76.5,-569 76.5,-569 189.5,-569 189.5,-569 76.5,-569"/>
<polygon fill="#666666" stroke="#666666" points="76.5,-539 76.5,-539 91.5,-539 91.5,-539 76.5,-539"/>
<polygon fill="#666666" stroke="#666666" points="91.5,-539 91.5,-539 189.5,-539 189.5,-539 91.5,-539"/>
<polygon fill="none" stroke="#666666" points="76,-372 76,-586 189,-586 189,-372 76,-372"/>
</a>
</g>
</g>
<!-- Node2&#45;&gt;Node4 -->
<g id="edge4_Node000004_Node000002" class="edge">
<title>Node2&#45;&gt;Node4</title>
<g id="a_edge4_Node000004_Node000002"><a xlink:title=" ">
<path fill="none" stroke="#63b8ff" d="M100.98,-632.71C103.35,-621.26 105.75,-609.62 108.12,-598.13"/>
<polygon fill="none" stroke="#63b8ff" points="108.15,-597.98 105.45,-591.3 110.58,-586.23 113.28,-592.91 108.15,-597.98"/>
</a>
</g>
<text text-anchor="middle" x="132" y="-607" font-family="Ubuntu Mono" font-size="10.00" fill="grey"> &#45;handler_</text>
</g>
<!-- Node3 -->
<g id="Node000003" class="node">
<title>Node3</title>
<g id="a_Node000003"><a xlink:title=" ">
<polygon fill="white" stroke="transparent" points="201.5,-325 75.5,-325 75.5,-276 201.5,-276 201.5,-325"/>
<text text-anchor="start" x="80.5" y="-312.5" font-family="Ubuntu Mono" font-size="10.00">std::vector&lt; Synapse &gt;</text>
<text text-anchor="start" x="136.5" y="-297.5" font-family="Ubuntu Mono" font-size="10.00"> </text>
<text text-anchor="start" x="136.5" y="-282.5" font-family="Ubuntu Mono" font-size="10.00"> </text>
<polygon fill="#666666" stroke="#666666" points="75.5,-307.5 75.5,-307.5 201.5,-307.5 201.5,-307.5 75.5,-307.5"/>
<polygon fill="#666666" stroke="#666666" points="75.5,-292.5 75.5,-292.5 201.5,-292.5 201.5,-292.5 75.5,-292.5"/>
<polygon fill="none" stroke="#666666" points="75.5,-276 75.5,-325 201.5,-325 201.5,-276 75.5,-276"/>
</a>
</g>
</g>
<!-- Node3&#45;&gt;Node1 -->
<g id="edge2_Node000001_Node000003" class="edge">
<title>Node3&#45;&gt;Node1</title>
<g id="a_edge2_Node000001_Node000003"><a xlink:title=" ">
<path fill="none" stroke="#63b8ff" d="M128.85,-275.82C124.86,-266.04 119.91,-253.9 114.53,-240.7"/>
<polygon fill="none" stroke="#63b8ff" points="114.46,-240.51 108.49,-236.47 109.93,-229.4 115.9,-233.45 114.46,-240.51"/>
</a>
</g>
<text text-anchor="middle" x="149.5" y="-250" font-family="Ubuntu Mono" font-size="10.00" fill="grey"> &#45;synapses_</text>
</g>
<!-- Node4&#45;&gt;Node3 -->
<g id="edge3_Node000003_Node000004" class="edge">
<title>Node4&#45;&gt;Node3</title>
<g id="a_edge3_Node000003_Node000004"><a xlink:title=" ">
<path fill="none" stroke="#63b8ff" d="M136.11,-371.76C136.53,-359.44 136.93,-347.61 137.28,-337.29"/>
<polygon fill="none" stroke="#63b8ff" points="137.29,-337.08 133.5,-330.95 137.7,-325.09 141.49,-331.22 137.29,-337.08"/>
</a>
</g>
<text text-anchor="middle" x="166.5" y="-346" font-family="Ubuntu Mono" font-size="10.00" fill="grey"> +elements</text>
</g>
<!-- Node5 -->
<g id="Node000005" class="node">
<title>Node5</title>
<g id="a_Node000005"><a xlink:title=" ">
<polygon fill="white" stroke="transparent" points="298,-503.5 207,-503.5 207,-454.5 298,-454.5 298,-503.5"/>
<text text-anchor="start" x="212.5" y="-491" font-family="Ubuntu Mono" font-size="10.00">std::vector&lt; T &gt;</text>
<text text-anchor="start" x="251" y="-476" font-family="Ubuntu Mono" font-size="10.00"> </text>
<text text-anchor="start" x="251" y="-461" font-family="Ubuntu Mono" font-size="10.00"> </text>
<polygon fill="#666666" stroke="#666666" points="207.5,-486 207.5,-486 298.5,-486 298.5,-486 207.5,-486"/>
<polygon fill="#666666" stroke="#666666" points="207.5,-471 207.5,-471 298.5,-471 298.5,-471 207.5,-471"/>
<polygon fill="none" stroke="#666666" points="207,-454.5 207,-503.5 298,-503.5 298,-454.5 207,-454.5"/>
</a>
</g>
</g>
<!-- Node5&#45;&gt;Node3 -->
<g id="edge5_Node000003_Node000005" class="edge">
<title>Node5&#45;&gt;Node3</title>
<g id="a_edge5_Node000003_Node000005"><a xlink:title=" ">
<path fill="none" stroke="orange" d="M245.33,-444.62C237.77,-415.43 223.53,-373.1 199.5,-343 194.23,-336.39 187.62,-330.44 180.71,-325.23"/>
<polygon fill="orange" stroke="orange" points="241.94,-445.49 247.74,-454.36 248.74,-443.82 241.94,-445.49"/>
</a>
</g>
<text text-anchor="middle" x="240" y="-346" font-family="Ubuntu Mono" font-size="10.00" fill="grey"> &lt; Synapse &gt;</text>
</g>
<!-- Node6 -->
<g id="Node000006" class="node">
<title>Node6</title>
<g id="a_Node000006"><a xlink:title=" ">
<polygon fill="white" stroke="transparent" points="261,-772 244,-772 244,-723 261,-723 261,-772"/>
<text text-anchor="start" x="249.5" y="-759.5" font-family="Ubuntu Mono" font-size="10.00">T</text>
<text text-anchor="start" x="251" y="-744.5" font-family="Ubuntu Mono" font-size="10.00"> </text>
<text text-anchor="start" x="251" y="-729.5" font-family="Ubuntu Mono" font-size="10.00"> </text>
<polygon fill="#666666" stroke="#666666" points="244.5,-754.5 244.5,-754.5 261.5,-754.5 261.5,-754.5 244.5,-754.5"/>
<polygon fill="#666666" stroke="#666666" points="244.5,-739.5 244.5,-739.5 261.5,-739.5 261.5,-739.5 244.5,-739.5"/>
<polygon fill="none" stroke="#666666" points="244,-723 244,-772 261,-772 261,-723 244,-723"/>
</a>
</g>
</g>
<!-- Node6&#45;&gt;Node5 -->
<g id="edge6_Node000005_Node000006" class="edge">
<title>Node6&#45;&gt;Node5</title>
<g id="a_edge6_Node000005_Node000006"><a xlink:title=" ">
<path fill="none" stroke="#63b8ff" d="M252.5,-722.85C252.5,-676.03 252.5,-571.29 252.5,-515.91"/>
<polygon fill="none" stroke="#63b8ff" points="252.5,-515.6 248.5,-509.6 252.5,-503.6 256.5,-509.6 252.5,-515.6"/>
</a>
</g>
<text text-anchor="middle" x="281.5" y="-607" font-family="Ubuntu Mono" font-size="10.00" fill="grey"> +elements</text>
</g>
</g>
</svg>
