<?xml version="1.0" encoding="UTF-8" standalone="no"?>
<!DOCTYPE svg PUBLIC "-//W3C//DTD SVG 1.1//EN"
 "http://www.w3.org/Graphics/SVG/1.1/DTD/svg11.dtd">
<!-- Generated by graphviz version 2.43.0 (0)
 -->
<!-- Title: HSolve::setCaBasal Pages: 1 -->
<svg width="299pt" height="64pt"
 viewBox="0.00 0.00 299.00 64.00" xmlns="http://www.w3.org/2000/svg" xmlns:xlink="http://www.w3.org/1999/xlink">
<g id="graph0" class="graph" transform="scale(1 1) rotate(0) translate(4 60)">
<title>HSolve::setCaBasal</title>
<!-- Node1 -->
<g id="Node000001" class="node">
<title>Node1</title>
<g id="a_Node000001"><a xlink:title=" ">
<polygon fill="#999999" stroke="#666666" points="112,-37 0,-37 0,-18 112,-18 112,-37"/>
<text text-anchor="middle" x="56" y="-25" font-family="Ubuntu Mono" font-size="10.00">HSolve::setCaBasal</text>
</a>
</g>
</g>
<!-- Node2 -->
<g id="Node000002" class="node">
<title>Node2</title>
<g id="a_Node000002"><a xlink:href="classHSolve.html#a477abe17043ce185923f054da61c50b3" target="_top" xlink:title=" ">
<polygon fill="white" stroke="#666666" points="273,-56 166,-56 166,-37 273,-37 273,-56"/>
<text text-anchor="middle" x="219.5" y="-44" font-family="Ubuntu Mono" font-size="10.00">HSolve::localIndex</text>
</a>
</g>
</g>
<!-- Node1&#45;&gt;Node2 -->
<g id="edge1_Node000001_Node000002" class="edge">
<title>Node1&#45;&gt;Node2</title>
<g id="a_edge1_Node000001_Node000002"><a xlink:title=" ">
<path fill="none" stroke="#63b8ff" d="M112.13,-33.99C126.1,-35.63 141.21,-37.41 155.54,-39.09"/>
<polygon fill="#63b8ff" stroke="#63b8ff" points="155.46,-42.61 165.8,-40.3 156.28,-35.66 155.46,-42.61"/>
</a>
</g>
</g>
<!-- Node3 -->
<g id="Node000003" class="node">
<title>Node3</title>
<g id="a_Node000003"><a xlink:href="structCaConcStruct.html#a06a23aca7badf8d4036035e98658c09c" target="_top" xlink:title=" ">
<polygon fill="white" stroke="#666666" points="291,-19 148,-19 148,0 291,0 291,-19"/>
<text text-anchor="middle" x="219.5" y="-7" font-family="Ubuntu Mono" font-size="10.00">CaConcStruct::setCaBasal</text>
</a>
</g>
</g>
<!-- Node1&#45;&gt;Node3 -->
<g id="edge2_Node000001_Node000003" class="edge">
<title>Node1&#45;&gt;Node3</title>
<g id="a_edge2_Node000001_Node000003"><a xlink:title=" ">
<path fill="none" stroke="#63b8ff" d="M112.13,-21.36C120.4,-20.43 129.08,-19.47 137.75,-18.5"/>
<polygon fill="#63b8ff" stroke="#63b8ff" points="138.36,-21.95 147.92,-17.37 137.59,-15 138.36,-21.95"/>
</a>
</g>
</g>
</g>
</svg>
