<?xml version="1.0" encoding="UTF-8" standalone="no"?>
<!DOCTYPE svg PUBLIC "-//W3C//DTD SVG 1.1//EN"
 "http://www.w3.org/Graphics/SVG/1.1/DTD/svg11.dtd">
<!-- Generated by graphviz version 2.43.0 (0)
 -->
<!-- Title: PoolBase::notifyCreate Pages: 1 -->
<svg width="508pt" height="64pt"
 viewBox="0.00 0.00 508.00 64.00" xmlns="http://www.w3.org/2000/svg" xmlns:xlink="http://www.w3.org/1999/xlink">
<g id="graph0" class="graph" transform="scale(1 1) rotate(0) translate(4 60)">
<title>PoolBase::notifyCreate</title>
<!-- Node1 -->
<g id="Node000001" class="node">
<title>Node1</title>
<g id="a_Node000001"><a xlink:title=" ">
<polygon fill="#999999" stroke="#666666" points="500,-37 372,-37 372,-18 500,-18 500,-37"/>
<text text-anchor="middle" x="436" y="-25" font-family="Ubuntu Mono" font-size="10.00">PoolBase::notifyCreate</text>
</a>
</g>
</g>
<!-- Node2 -->
<g id="Node000002" class="node">
<title>Node2</title>
<g id="a_Node000002"><a xlink:href="classPoolBase.html#ab1f8c9dd618b024f576b9cfb9872ac41" target="_top" xlink:title=" ">
<polygon fill="white" stroke="#666666" points="336,-37 182,-37 182,-18 336,-18 336,-37"/>
<text text-anchor="middle" x="259" y="-25" font-family="Ubuntu Mono" font-size="10.00">PoolBase::initPoolBaseCinfo</text>
</a>
</g>
</g>
<!-- Node1&#45;&gt;Node2 -->
<g id="edge1_Node000001_Node000002" class="edge">
<title>Node1&#45;&gt;Node2</title>
<g id="a_edge1_Node000001_Node000002"><a xlink:title=" ">
<path fill="none" stroke="#63b8ff" d="M361.67,-27.5C353.26,-27.5 344.67,-27.5 336.22,-27.5"/>
<polygon fill="#63b8ff" stroke="#63b8ff" points="361.82,-31 371.82,-27.5 361.82,-24 361.82,-31"/>
</a>
</g>
</g>
<!-- Node3 -->
<g id="Node000003" class="node">
<title>Node3</title>
<g id="a_Node000003"><a xlink:href="classPoolBase.html#aa1dccbc9ddb85bc4be60826c59ae5fd5" target="_top" xlink:title=" ">
<polygon fill="white" stroke="#666666" points="146,-56 0,-56 0,-37 146,-37 146,-56"/>
<text text-anchor="middle" x="73" y="-44" font-family="Ubuntu Mono" font-size="10.00">PoolBase::initBufPoolCinfo</text>
</a>
</g>
</g>
<!-- Node2&#45;&gt;Node3 -->
<g id="edge2_Node000002_Node000003" class="edge">
<title>Node2&#45;&gt;Node3</title>
<g id="a_edge2_Node000002_Node000003"><a xlink:title=" ">
<path fill="none" stroke="#63b8ff" d="M171.84,-36.4C163.28,-37.28 154.66,-38.17 146.27,-39.04"/>
<polygon fill="#63b8ff" stroke="#63b8ff" points="172.24,-39.87 181.83,-35.37 171.53,-32.91 172.24,-39.87"/>
</a>
</g>
</g>
<!-- Node4 -->
<g id="Node000004" class="node">
<title>Node4</title>
<g id="a_Node000004"><a xlink:href="classPoolBase.html#ac24e395c1def55e706526d5031e8f528" target="_top" xlink:title=" ">
<polygon fill="white" stroke="#666666" points="138,-19 8,-19 8,0 138,0 138,-19"/>
<text text-anchor="middle" x="73" y="-7" font-family="Ubuntu Mono" font-size="10.00">PoolBase::initPoolCinfo</text>
</a>
</g>
</g>
<!-- Node2&#45;&gt;Node4 -->
<g id="edge3_Node000002_Node000004" class="edge">
<title>Node2&#45;&gt;Node4</title>
<g id="a_edge3_Node000002_Node000004"><a xlink:title=" ">
<path fill="none" stroke="#63b8ff" d="M171.54,-19.04C160.28,-17.94 148.91,-16.83 138.11,-15.77"/>
<polygon fill="#63b8ff" stroke="#63b8ff" points="171.54,-22.56 181.83,-20.05 172.22,-15.59 171.54,-22.56"/>
</a>
</g>
</g>
</g>
</svg>
