<?xml version="1.0" encoding="UTF-8" standalone="no"?>
<!DOCTYPE svg PUBLIC "-//W3C//DTD SVG 1.1//EN"
 "http://www.w3.org/Graphics/SVG/1.1/DTD/svg11.dtd">
<!-- Generated by graphviz version 2.43.0 (0)
 -->
<!-- Title: moose::CompartmentBase::vGetRa Pages: 1 -->
<svg width="1907pt" height="298pt"
 viewBox="0.00 0.00 1907.00 298.00" xmlns="http://www.w3.org/2000/svg" xmlns:xlink="http://www.w3.org/1999/xlink">
<g id="graph0" class="graph" transform="scale(1 1) rotate(0) translate(4 294)">
<title>moose::CompartmentBase::vGetRa</title>
<!-- Node1 -->
<g id="Node000001" class="node">
<title>Node1</title>
<g id="a_Node000001"><a xlink:title=" ">
<polygon fill="#999999" stroke="#666666" points="1899,-69.5 1752,-69.5 1752,-39.5 1899,-39.5 1899,-69.5"/>
<text text-anchor="start" x="1760" y="-57.5" font-family="Ubuntu Mono" font-size="10.00">moose::CompartmentBase</text>
<text text-anchor="middle" x="1825.5" y="-46.5" font-family="Ubuntu Mono" font-size="10.00">::vGetRa</text>
</a>
</g>
</g>
<!-- Node2 -->
<g id="Node000002" class="node">
<title>Node2</title>
<g id="a_Node000002"><a xlink:href="classmoose_1_1CompartmentBase.html#acc7aabaf752972e7090fccd644a9f287" target="_top" xlink:title=" ">
<polygon fill="white" stroke="#666666" points="1716,-45.5 1569,-45.5 1569,-15.5 1716,-15.5 1716,-45.5"/>
<text text-anchor="start" x="1577" y="-33.5" font-family="Ubuntu Mono" font-size="10.00">moose::CompartmentBase</text>
<text text-anchor="middle" x="1642.5" y="-22.5" font-family="Ubuntu Mono" font-size="10.00">::getRa</text>
</a>
</g>
</g>
<!-- Node1&#45;&gt;Node2 -->
<g id="edge1_Node000001_Node000002" class="edge">
<title>Node1&#45;&gt;Node2</title>
<g id="a_edge1_Node000001_Node000002"><a xlink:title=" ">
<path fill="none" stroke="#63b8ff" d="M1741.88,-43.55C1733.28,-42.4 1724.58,-41.25 1716.09,-40.13"/>
<polygon fill="#63b8ff" stroke="#63b8ff" points="1741.55,-47.03 1751.92,-44.88 1742.47,-40.09 1741.55,-47.03"/>
</a>
</g>
</g>
<!-- Node28 -->
<g id="Node000028" class="node">
<title>Node28</title>
<g id="a_Node000028"><a xlink:href="classmoose_1_1CompartmentBase.html#ae4e8e57f9150deb4a080c04d5e1469e9" target="_top" xlink:title="Scales electrical values along with setting length, dia.">
<polygon fill="white" stroke="#666666" points="1716,-93.5 1569,-93.5 1569,-63.5 1716,-63.5 1716,-93.5"/>
<text text-anchor="start" x="1577" y="-81.5" font-family="Ubuntu Mono" font-size="10.00">moose::CompartmentBase</text>
<text text-anchor="middle" x="1642.5" y="-70.5" font-family="Ubuntu Mono" font-size="10.00">::setGeomAndElec</text>
</a>
</g>
</g>
<!-- Node1&#45;&gt;Node28 -->
<g id="edge29_Node000001_Node000028" class="edge">
<title>Node1&#45;&gt;Node28</title>
<g id="a_edge29_Node000001_Node000028"><a xlink:title=" ">
<path fill="none" stroke="#63b8ff" d="M1741.88,-65.45C1733.28,-66.6 1724.58,-67.75 1716.09,-68.87"/>
<polygon fill="#63b8ff" stroke="#63b8ff" points="1742.47,-68.91 1751.92,-64.12 1741.55,-61.97 1742.47,-68.91"/>
</a>
</g>
</g>
<!-- Node3 -->
<g id="Node000003" class="node">
<title>Node3</title>
<g id="a_Node000003"><a xlink:href="classmoose_1_1CompartmentBase.html#ac8948ff4655adb71da12b8aa21462122" target="_top" xlink:title=" ">
<polygon fill="white" stroke="#666666" points="1517,-93.5 1370,-93.5 1370,-63.5 1517,-63.5 1517,-93.5"/>
<text text-anchor="start" x="1378" y="-81.5" font-family="Ubuntu Mono" font-size="10.00">moose::CompartmentBase</text>
<text text-anchor="middle" x="1443.5" y="-70.5" font-family="Ubuntu Mono" font-size="10.00">::initCinfo</text>
</a>
</g>
</g>
<!-- Node2&#45;&gt;Node3 -->
<g id="edge2_Node000002_Node000003" class="edge">
<title>Node2&#45;&gt;Node3</title>
<g id="a_edge2_Node000002_Node000003"><a xlink:title=" ">
<path fill="none" stroke="#63b8ff" d="M1569.92,-47.94C1548.99,-53.04 1526.32,-58.57 1506.07,-63.5"/>
<polygon fill="#63b8ff" stroke="#63b8ff" points="1570.82,-51.32 1579.71,-45.56 1569.16,-44.52 1570.82,-51.32"/>
</a>
</g>
</g>
<!-- Node26 -->
<g id="Node000026" class="node">
<title>Node26</title>
<g id="a_Node000026"><a xlink:href="classmoose_1_1CompartmentDataHolder.html#af34b49047ece38ddb8dae83811bbe514" target="_top" xlink:title=" ">
<polygon fill="white" stroke="#666666" points="1533,-45.5 1354,-45.5 1354,-15.5 1533,-15.5 1533,-45.5"/>
<text text-anchor="start" x="1362" y="-33.5" font-family="Ubuntu Mono" font-size="10.00">moose::CompartmentDataHolder</text>
<text text-anchor="middle" x="1443.5" y="-22.5" font-family="Ubuntu Mono" font-size="10.00">::readData</text>
</a>
</g>
</g>
<!-- Node2&#45;&gt;Node26 -->
<g id="edge25_Node000002_Node000026" class="edge">
<title>Node2&#45;&gt;Node26</title>
<g id="a_edge25_Node000002_Node000026"><a xlink:title=" ">
<path fill="none" stroke="#63b8ff" d="M1558.79,-30.5C1550.35,-30.5 1541.75,-30.5 1533.25,-30.5"/>
<polygon fill="#63b8ff" stroke="#63b8ff" points="1558.98,-34 1568.98,-30.5 1558.98,-27 1558.98,-34"/>
</a>
</g>
</g>
<!-- Node4 -->
<g id="Node000004" class="node">
<title>Node4</title>
<g id="a_Node000004"><a xlink:href="classmoose_1_1Compartment.html#aa5bd02bc40798f360f386c918ec52f2d" target="_top" xlink:title=" ">
<polygon fill="white" stroke="#666666" points="1306,-148.5 1183,-148.5 1183,-118.5 1306,-118.5 1306,-148.5"/>
<text text-anchor="start" x="1191" y="-136.5" font-family="Ubuntu Mono" font-size="10.00">moose::Compartment</text>
<text text-anchor="middle" x="1244.5" y="-125.5" font-family="Ubuntu Mono" font-size="10.00">::initCinfo</text>
</a>
</g>
</g>
<!-- Node3&#45;&gt;Node4 -->
<g id="edge3_Node000003_Node000004" class="edge">
<title>Node3&#45;&gt;Node4</title>
<g id="a_edge3_Node000003_Node000004"><a xlink:title=" ">
<path fill="none" stroke="#63b8ff" d="M1379.01,-96.23C1353.29,-103.41 1323.91,-111.61 1299.27,-118.49"/>
<polygon fill="#63b8ff" stroke="#63b8ff" points="1379.98,-99.59 1388.67,-93.53 1378.1,-92.85 1379.98,-99.59"/>
</a>
</g>
</g>
<!-- Node21 -->
<g id="Node000021" class="node">
<title>Node21</title>
<g id="a_Node000021"><a xlink:href="classZombieCompartment.html#a12aa5199ad8afd5f6da20814c12c3b65" target="_top" xlink:title=" ">
<polygon fill="white" stroke="#666666" points="1308.5,-93.5 1180.5,-93.5 1180.5,-63.5 1308.5,-63.5 1308.5,-93.5"/>
<text text-anchor="start" x="1188.5" y="-81.5" font-family="Ubuntu Mono" font-size="10.00">ZombieCompartment::</text>
<text text-anchor="middle" x="1244.5" y="-70.5" font-family="Ubuntu Mono" font-size="10.00">initCinfo</text>
</a>
</g>
</g>
<!-- Node3&#45;&gt;Node21 -->
<g id="edge20_Node000003_Node000021" class="edge">
<title>Node3&#45;&gt;Node21</title>
<g id="a_edge20_Node000003_Node000021"><a xlink:title=" ">
<path fill="none" stroke="#63b8ff" d="M1359.51,-78.5C1342.54,-78.5 1324.93,-78.5 1308.77,-78.5"/>
<polygon fill="#63b8ff" stroke="#63b8ff" points="1359.98,-82 1369.98,-78.5 1359.98,-75 1359.98,-82"/>
</a>
</g>
</g>
<!-- Node5 -->
<g id="Node000005" class="node">
<title>Node5</title>
<g id="a_Node000005"><a xlink:href="classSymCompartment.html#a0cc18476081046e605602f9ec745650c" target="_top" xlink:title=" ">
<polygon fill="white" stroke="#666666" points="1135,-248 982,-248 982,-229 1135,-229 1135,-248"/>
<text text-anchor="middle" x="1058.5" y="-236" font-family="Ubuntu Mono" font-size="10.00">SymCompartment::initCinfo</text>
</a>
</g>
</g>
<!-- Node4&#45;&gt;Node5 -->
<g id="edge4_Node000004_Node000005" class="edge">
<title>Node4&#45;&gt;Node5</title>
<g id="a_edge4_Node000004_Node000005"><a xlink:title=" ">
<path fill="none" stroke="#63b8ff" d="M1208.1,-153.7C1168.58,-176.25 1106.27,-211.81 1076.47,-228.81"/>
<polygon fill="#63b8ff" stroke="#63b8ff" points="1210.19,-156.54 1217.14,-148.54 1206.72,-150.46 1210.19,-156.54"/>
</a>
</g>
</g>
<!-- Node12 -->
<g id="Node000012" class="node">
<title>Node12</title>
<g id="a_Node000012"><a xlink:href="classmoose_1_1IntFireBase.html#afc83677d7097cb48a5c8de1934880183" target="_top" xlink:title=" ">
<polygon fill="white" stroke="#666666" points="1113.5,-152.5 1003.5,-152.5 1003.5,-122.5 1113.5,-122.5 1113.5,-152.5"/>
<text text-anchor="start" x="1011.5" y="-140.5" font-family="Ubuntu Mono" font-size="10.00">moose::IntFireBase</text>
<text text-anchor="middle" x="1058.5" y="-129.5" font-family="Ubuntu Mono" font-size="10.00">::initCinfo</text>
</a>
</g>
</g>
<!-- Node4&#45;&gt;Node12 -->
<g id="edge11_Node000004_Node000012" class="edge">
<title>Node4&#45;&gt;Node12</title>
<g id="a_edge11_Node000004_Node000012"><a xlink:title=" ">
<path fill="none" stroke="#63b8ff" d="M1172.85,-135.04C1153.16,-135.46 1132.09,-135.92 1113.53,-136.33"/>
<polygon fill="#63b8ff" stroke="#63b8ff" points="1173.08,-138.53 1183,-134.82 1172.92,-131.53 1173.08,-138.53"/>
</a>
</g>
</g>
<!-- Node19 -->
<g id="Node000019" class="node">
<title>Node19</title>
<g id="a_Node000019"><a xlink:href="classHSolve.html#a423981576f253b33c6e9091cb3ae0ea6" target="_top" xlink:title=" ">
<polygon fill="white" stroke="#666666" points="1112.5,-58 1004.5,-58 1004.5,-39 1112.5,-39 1112.5,-58"/>
<text text-anchor="middle" x="1058.5" y="-46" font-family="Ubuntu Mono" font-size="10.00">HSolve::unzombify</text>
</a>
</g>
</g>
<!-- Node4&#45;&gt;Node19 -->
<g id="edge18_Node000004_Node000019" class="edge">
<title>Node4&#45;&gt;Node19</title>
<g id="a_edge18_Node000004_Node000019"><a xlink:title=" ">
<path fill="none" stroke="#63b8ff" d="M1198.02,-114.44C1189.03,-110.56 1179.69,-106.46 1171,-102.5 1138.31,-87.61 1100.82,-69.16 1078.71,-58.14"/>
<polygon fill="#63b8ff" stroke="#63b8ff" points="1196.64,-117.66 1207.21,-118.38 1199.4,-111.22 1196.64,-117.66"/>
</a>
</g>
</g>
<!-- Node6 -->
<g id="Node000006" class="node">
<title>Node6</title>
<g id="a_Node000006"><a xlink:href="classReadCell.html#a1113d754c8abecf8a46850596bd074bd" target="_top" xlink:title=" ">
<polygon fill="white" stroke="#666666" points="946,-290 788,-290 788,-271 946,-271 946,-290"/>
<text text-anchor="middle" x="867" y="-278" font-family="Ubuntu Mono" font-size="10.00">ReadCell::buildCompartment</text>
</a>
</g>
</g>
<!-- Node5&#45;&gt;Node6 -->
<g id="edge5_Node000005_Node000006" class="edge">
<title>Node5&#45;&gt;Node6</title>
<g id="a_edge5_Node000005_Node000006"><a xlink:title=" ">
<path fill="none" stroke="#63b8ff" d="M1004.39,-250.27C974.96,-256.79 938.83,-264.8 911.16,-270.93"/>
<polygon fill="#63b8ff" stroke="#63b8ff" points="1005.49,-253.61 1014.5,-248.03 1003.98,-246.78 1005.49,-253.61"/>
</a>
</g>
</g>
<!-- Node7 -->
<g id="Node000007" class="node">
<title>Node7</title>
<g id="a_Node000007"><a xlink:href="classReadCell.html#ad6fca0463a6f2ea2b09d8aadb5578afc" target="_top" xlink:title=" ">
<polygon fill="white" stroke="#666666" points="739.5,-290 628.5,-290 628.5,-271 739.5,-271 739.5,-290"/>
<text text-anchor="middle" x="684" y="-278" font-family="Ubuntu Mono" font-size="10.00">ReadCell::readData</text>
</a>
</g>
</g>
<!-- Node6&#45;&gt;Node7 -->
<g id="edge6_Node000006_Node000007" class="edge">
<title>Node6&#45;&gt;Node7</title>
<g id="a_edge6_Node000006_Node000007"><a xlink:title=" ">
<path fill="none" stroke="#63b8ff" d="M777.58,-280.5C764.64,-280.5 751.64,-280.5 739.65,-280.5"/>
<polygon fill="#63b8ff" stroke="#63b8ff" points="777.93,-284 787.93,-280.5 777.93,-277 777.93,-284"/>
</a>
</g>
</g>
<!-- Node8 -->
<g id="Node000008" class="node">
<title>Node8</title>
<g id="a_Node000008"><a xlink:href="classReadCell.html#ad2bfa30e9739a7b717f468660a671a3d" target="_top" xlink:title=" ">
<polygon fill="white" stroke="#666666" points="580,-290 464,-290 464,-271 580,-271 580,-290"/>
<text text-anchor="middle" x="522" y="-278" font-family="Ubuntu Mono" font-size="10.00">ReadCell::innerRead</text>
</a>
</g>
</g>
<!-- Node7&#45;&gt;Node8 -->
<g id="edge7_Node000007_Node000008" class="edge">
<title>Node7&#45;&gt;Node8</title>
<g id="a_edge7_Node000007_Node000008"><a xlink:title=" ">
<path fill="none" stroke="#63b8ff" d="M618.37,-280.5C605.7,-280.5 592.5,-280.5 580.1,-280.5"/>
<polygon fill="#63b8ff" stroke="#63b8ff" points="618.38,-284 628.38,-280.5 618.38,-277 618.38,-284"/>
</a>
</g>
</g>
<!-- Node9 -->
<g id="Node000009" class="node">
<title>Node9</title>
<g id="a_Node000009"><a xlink:href="classReadCell.html#a98debfc03ab1b2f386d671b6a1515a40" target="_top" xlink:title=" ">
<polygon fill="white" stroke="#666666" points="428,-290 340,-290 340,-271 428,-271 428,-290"/>
<text text-anchor="middle" x="384" y="-278" font-family="Ubuntu Mono" font-size="10.00">ReadCell::read</text>
</a>
</g>
</g>
<!-- Node8&#45;&gt;Node9 -->
<g id="edge8_Node000008_Node000009" class="edge">
<title>Node8&#45;&gt;Node9</title>
<g id="a_edge8_Node000008_Node000009"><a xlink:title=" ">
<path fill="none" stroke="#63b8ff" d="M453.6,-280.5C444.95,-280.5 436.28,-280.5 428.16,-280.5"/>
<polygon fill="#63b8ff" stroke="#63b8ff" points="453.72,-284 463.72,-280.5 453.72,-277 453.72,-284"/>
</a>
</g>
</g>
<!-- Node10 -->
<g id="Node000010" class="node">
<title>Node10</title>
<g id="a_Node000010"><a xlink:href="classShell.html#a506ff431369e3bce87f0e6c767fe475c" target="_top" xlink:title="Returns the Id of the loaded model.">
<polygon fill="white" stroke="#666666" points="304,-290 192,-290 192,-271 304,-271 304,-290"/>
<text text-anchor="middle" x="248" y="-278" font-family="Ubuntu Mono" font-size="10.00">Shell::doLoadModel</text>
</a>
</g>
</g>
<!-- Node9&#45;&gt;Node10 -->
<g id="edge9_Node000009_Node000010" class="edge">
<title>Node9&#45;&gt;Node10</title>
<g id="a_edge9_Node000009_Node000010"><a xlink:title=" ">
<path fill="none" stroke="#63b8ff" d="M329.82,-280.5C321.43,-280.5 312.74,-280.5 304.31,-280.5"/>
<polygon fill="#63b8ff" stroke="#63b8ff" points="329.86,-284 339.86,-280.5 329.86,-277 329.86,-284"/>
</a>
</g>
</g>
<!-- Node11 -->
<g id="Node000011" class="node">
<title>Node11</title>
<g id="a_Node000011"><a xlink:href="namespacepymoose.html#a995d880f6c2e5cfb0545ec3640f76eef" target="_top" xlink:title="Model loaders built into Shell, others can be implemented in Python.">
<polygon fill="white" stroke="#666666" points="156,-290 0,-290 0,-271 156,-271 156,-290"/>
<text text-anchor="middle" x="78" y="-278" font-family="Ubuntu Mono" font-size="10.00">pymoose::loadModelInternal</text>
</a>
</g>
</g>
<!-- Node10&#45;&gt;Node11 -->
<g id="edge10_Node000010_Node000011" class="edge">
<title>Node10&#45;&gt;Node11</title>
<g id="a_edge10_Node000010_Node000011"><a xlink:title=" ">
<path fill="none" stroke="#63b8ff" d="M181.85,-280.5C173.41,-280.5 164.7,-280.5 156.09,-280.5"/>
<polygon fill="#63b8ff" stroke="#63b8ff" points="181.99,-284 191.99,-280.5 181.99,-277 181.99,-284"/>
</a>
</g>
</g>
<!-- Node13 -->
<g id="Node000013" class="node">
<title>Node13</title>
<g id="a_Node000013"><a xlink:href="classmoose_1_1AdThreshIF.html#a19264ff38bf8a81afd894f9a776f5ffc" target="_top" xlink:title=" ">
<polygon fill="white" stroke="#666666" points="925,-252.5 809,-252.5 809,-222.5 925,-222.5 925,-252.5"/>
<text text-anchor="start" x="817" y="-240.5" font-family="Ubuntu Mono" font-size="10.00">moose::AdThreshIF::</text>
<text text-anchor="middle" x="867" y="-229.5" font-family="Ubuntu Mono" font-size="10.00">initCinfo</text>
</a>
</g>
</g>
<!-- Node12&#45;&gt;Node13 -->
<g id="edge12_Node000012_Node000013" class="edge">
<title>Node12&#45;&gt;Node13</title>
<g id="a_edge12_Node000012_Node000013"><a xlink:title=" ">
<path fill="none" stroke="#63b8ff" d="M1031.14,-158.84C1009.38,-175.59 977.12,-198.53 946,-213.5 939.11,-216.82 931.65,-219.8 924.17,-222.45"/>
<polygon fill="#63b8ff" stroke="#63b8ff" points="1033.5,-161.43 1039.22,-152.52 1029.19,-155.92 1033.5,-161.43"/>
</a>
</g>
</g>
<!-- Node14 -->
<g id="Node000014" class="node">
<title>Node14</title>
<g id="a_Node000014"><a xlink:href="classmoose_1_1ExIF.html#a2f94f332c13af3937e73c319e831585f" target="_top" xlink:title=" ">
<polygon fill="white" stroke="#666666" points="928.5,-204 805.5,-204 805.5,-185 928.5,-185 928.5,-204"/>
<text text-anchor="middle" x="867" y="-192" font-family="Ubuntu Mono" font-size="10.00">moose::ExIF::initCinfo</text>
</a>
</g>
</g>
<!-- Node12&#45;&gt;Node14 -->
<g id="edge13_Node000012_Node000014" class="edge">
<title>Node12&#45;&gt;Node14</title>
<g id="a_edge13_Node000012_Node000014"><a xlink:title=" ">
<path fill="none" stroke="#63b8ff" d="M1008.36,-155.99C989.07,-162.91 966.64,-170.53 946,-176.5 935.45,-179.55 923.99,-182.43 913.18,-184.96"/>
<polygon fill="#63b8ff" stroke="#63b8ff" points="1009.64,-159.25 1017.85,-152.56 1007.25,-152.67 1009.64,-159.25"/>
</a>
</g>
</g>
<!-- Node16 -->
<g id="Node000016" class="node">
<title>Node16</title>
<g id="a_Node000016"><a xlink:href="classmoose_1_1IzhIF.html#a9d3e3bd1af4ca696187203cfd0199538" target="_top" xlink:title=" ">
<polygon fill="white" stroke="#666666" points="929.5,-167 804.5,-167 804.5,-148 929.5,-148 929.5,-167"/>
<text text-anchor="middle" x="867" y="-155" font-family="Ubuntu Mono" font-size="10.00">moose::IzhIF::initCinfo</text>
</a>
</g>
</g>
<!-- Node12&#45;&gt;Node16 -->
<g id="edge15_Node000012_Node000016" class="edge">
<title>Node12&#45;&gt;Node16</title>
<g id="a_edge15_Node000012_Node000016"><a xlink:title=" ">
<path fill="none" stroke="#63b8ff" d="M993.26,-144.28C972.76,-146.44 950.13,-148.83 929.8,-150.98"/>
<polygon fill="#63b8ff" stroke="#63b8ff" points="993.87,-147.73 1003.45,-143.2 993.14,-140.77 993.87,-147.73"/>
</a>
</g>
</g>
<!-- Node17 -->
<g id="Node000017" class="node">
<title>Node17</title>
<g id="a_Node000017"><a xlink:href="classmoose_1_1LIF.html#ad72c597343ca86ad836c8416d9ff717e" target="_top" xlink:title=" ">
<polygon fill="white" stroke="#666666" points="925,-130 809,-130 809,-111 925,-111 925,-130"/>
<text text-anchor="middle" x="867" y="-118" font-family="Ubuntu Mono" font-size="10.00">moose::LIF::initCinfo</text>
</a>
</g>
</g>
<!-- Node12&#45;&gt;Node17 -->
<g id="edge16_Node000012_Node000017" class="edge">
<title>Node12&#45;&gt;Node17</title>
<g id="a_edge16_Node000012_Node000017"><a xlink:title=" ">
<path fill="none" stroke="#63b8ff" d="M993.47,-131.76C971.32,-129.77 946.65,-127.56 925.1,-125.62"/>
<polygon fill="#63b8ff" stroke="#63b8ff" points="993.18,-135.24 1003.45,-132.65 993.8,-128.27 993.18,-135.24"/>
</a>
</g>
</g>
<!-- Node18 -->
<g id="Node000018" class="node">
<title>Node18</title>
<g id="a_Node000018"><a xlink:href="classmoose_1_1QIF.html#a918ed01017a8bc01bc5dd9055aaa7dd6" target="_top" xlink:title=" ">
<polygon fill="white" stroke="#666666" points="926.5,-93 807.5,-93 807.5,-74 926.5,-74 926.5,-93"/>
<text text-anchor="middle" x="867" y="-81" font-family="Ubuntu Mono" font-size="10.00">moose::QIF::initCinfo</text>
</a>
</g>
</g>
<!-- Node12&#45;&gt;Node18 -->
<g id="edge17_Node000012_Node000018" class="edge">
<title>Node12&#45;&gt;Node18</title>
<g id="a_edge17_Node000012_Node000018"><a xlink:title=" ">
<path fill="none" stroke="#63b8ff" d="M1002.18,-119.35C984.32,-113.7 964.39,-107.62 946,-102.5 934.18,-99.21 921.28,-95.94 909.42,-93.06"/>
<polygon fill="#63b8ff" stroke="#63b8ff" points="1001.27,-122.74 1011.86,-122.43 1003.39,-116.07 1001.27,-122.74"/>
</a>
</g>
</g>
<!-- Node15 -->
<g id="Node000015" class="node">
<title>Node15</title>
<g id="a_Node000015"><a xlink:href="classmoose_1_1AdExIF.html#ab4854f96e91c68ea0299d836fdd5c3f3" target="_top" xlink:title=" ">
<polygon fill="white" stroke="#666666" points="752,-204 616,-204 616,-185 752,-185 752,-204"/>
<text text-anchor="middle" x="684" y="-192" font-family="Ubuntu Mono" font-size="10.00">moose::AdExIF::initCinfo</text>
</a>
</g>
</g>
<!-- Node14&#45;&gt;Node15 -->
<g id="edge14_Node000014_Node000015" class="edge">
<title>Node14&#45;&gt;Node15</title>
<g id="a_edge14_Node000014_Node000015"><a xlink:title=" ">
<path fill="none" stroke="#63b8ff" d="M795.26,-194.5C781.03,-194.5 766.11,-194.5 752.01,-194.5"/>
<polygon fill="#63b8ff" stroke="#63b8ff" points="795.48,-198 805.48,-194.5 795.48,-191 795.48,-198"/>
</a>
</g>
</g>
<!-- Node20 -->
<g id="Node000020" class="node">
<title>Node20</title>
<g id="a_Node000020"><a xlink:href="classHSolve.html#a1fadf7cb757bf5669e45b6a95433e1ee" target="_top" xlink:title=" ">
<polygon fill="white" stroke="#666666" points="917,-56 817,-56 817,-37 917,-37 917,-56"/>
<text text-anchor="middle" x="867" y="-44" font-family="Ubuntu Mono" font-size="10.00">HSolve::~HSolve</text>
</a>
</g>
</g>
<!-- Node19&#45;&gt;Node20 -->
<g id="edge19_Node000019_Node000020" class="edge">
<title>Node19&#45;&gt;Node20</title>
<g id="a_edge19_Node000019_Node000020"><a xlink:title=" ">
<path fill="none" stroke="#63b8ff" d="M994.28,-47.83C969.15,-47.57 940.67,-47.27 917.13,-47.02"/>
<polygon fill="#63b8ff" stroke="#63b8ff" points="994.43,-51.33 1004.46,-47.94 994.5,-44.33 994.43,-51.33"/>
</a>
</g>
</g>
<!-- Node22 -->
<g id="Node000022" class="node">
<title>Node22</title>
<g id="a_Node000022"><a xlink:href="classHSolve.html#aa86d341407e0eb9928b085c9df38b06c" target="_top" xlink:title=" ">
<polygon fill="white" stroke="#666666" points="1106.5,-21 1010.5,-21 1010.5,-2 1106.5,-2 1106.5,-21"/>
<text text-anchor="middle" x="1058.5" y="-9" font-family="Ubuntu Mono" font-size="10.00">HSolve::zombify</text>
</a>
</g>
</g>
<!-- Node21&#45;&gt;Node22 -->
<g id="edge21_Node000021_Node000022" class="edge">
<title>Node21&#45;&gt;Node22</title>
<g id="a_edge21_Node000021_Node000022"><a xlink:title=" ">
<path fill="none" stroke="#63b8ff" d="M1182.68,-59.73C1178.68,-58.07 1174.75,-56.33 1171,-54.5 1153.72,-46.07 1152.58,-38.29 1135,-30.5 1126.1,-26.56 1116.24,-23.33 1106.65,-20.72"/>
<polygon fill="#63b8ff" stroke="#63b8ff" points="1181.52,-63.03 1192.11,-63.4 1184.07,-56.51 1181.52,-63.03"/>
</a>
</g>
</g>
<!-- Node23 -->
<g id="Node000023" class="node">
<title>Node23</title>
<g id="a_Node000023"><a xlink:href="classHSolve.html#a2e768e9eb17b2c732c9129c018889f79" target="_top" xlink:title=" ">
<polygon fill="white" stroke="#666666" points="909,-19 825,-19 825,0 909,0 909,-19"/>
<text text-anchor="middle" x="867" y="-7" font-family="Ubuntu Mono" font-size="10.00">HSolve::setup</text>
</a>
</g>
</g>
<!-- Node22&#45;&gt;Node23 -->
<g id="edge22_Node000022_Node000023" class="edge">
<title>Node22&#45;&gt;Node23</title>
<g id="a_edge22_Node000022_Node000023"><a xlink:title=" ">
<path fill="none" stroke="#63b8ff" d="M1000.07,-10.89C970.79,-10.58 935.85,-10.22 909.26,-9.94"/>
<polygon fill="#63b8ff" stroke="#63b8ff" points="1000.13,-14.39 1010.17,-11 1000.21,-7.4 1000.13,-14.39"/>
</a>
</g>
</g>
<!-- Node24 -->
<g id="Node000024" class="node">
<title>Node24</title>
<g id="a_Node000024"><a xlink:href="classHSolve.html#a4d36de840ae2ff289981e77f779eb9dc" target="_top" xlink:title=" ">
<polygon fill="white" stroke="#666666" points="730.5,-19 637.5,-19 637.5,0 730.5,0 730.5,-19"/>
<text text-anchor="middle" x="684" y="-7" font-family="Ubuntu Mono" font-size="10.00">HSolve::setPath</text>
</a>
</g>
</g>
<!-- Node23&#45;&gt;Node24 -->
<g id="edge23_Node000023_Node000024" class="edge">
<title>Node23&#45;&gt;Node24</title>
<g id="a_edge23_Node000023_Node000024"><a xlink:title=" ">
<path fill="none" stroke="#63b8ff" d="M814.72,-9.5C788.26,-9.5 756.27,-9.5 730.68,-9.5"/>
<polygon fill="#63b8ff" stroke="#63b8ff" points="814.93,-13 824.93,-9.5 814.93,-6 814.93,-13"/>
</a>
</g>
</g>
<!-- Node25 -->
<g id="Node000025" class="node">
<title>Node25</title>
<g id="a_Node000025"><a xlink:href="classHSolve.html#a3d60964bbc6441f73c04fe702faba848" target="_top" xlink:title="Interface to external channels.">
<polygon fill="white" stroke="#666666" points="571,-19 473,-19 473,0 571,0 571,-19"/>
<text text-anchor="middle" x="522" y="-7" font-family="Ubuntu Mono" font-size="10.00">HSolve::initCinfo</text>
</a>
</g>
</g>
<!-- Node24&#45;&gt;Node25 -->
<g id="edge24_Node000024_Node000025" class="edge">
<title>Node24&#45;&gt;Node25</title>
<g id="a_edge24_Node000024_Node000025"><a xlink:title=" ">
<path fill="none" stroke="#63b8ff" d="M626.95,-9.5C608.73,-9.5 588.68,-9.5 571.09,-9.5"/>
<polygon fill="#63b8ff" stroke="#63b8ff" points="627.15,-13 637.15,-9.5 627.15,-6 627.15,-13"/>
</a>
</g>
</g>
<!-- Node27 -->
<g id="Node000027" class="node">
<title>Node27</title>
<g id="a_Node000027"><a xlink:href="classmoose_1_1CompartmentBase.html#a58b5cedfccc5f14cf368caf446b57632" target="_top" xlink:title=" ">
<polygon fill="white" stroke="#666666" points="1318,-45.5 1171,-45.5 1171,-15.5 1318,-15.5 1318,-45.5"/>
<text text-anchor="start" x="1179" y="-33.5" font-family="Ubuntu Mono" font-size="10.00">moose::CompartmentBase</text>
<text text-anchor="middle" x="1244.5" y="-22.5" font-family="Ubuntu Mono" font-size="10.00">::zombify</text>
</a>
</g>
</g>
<!-- Node26&#45;&gt;Node27 -->
<g id="edge26_Node000026_Node000027" class="edge">
<title>Node26&#45;&gt;Node27</title>
<g id="a_edge26_Node000026_Node000027"><a xlink:title=" ">
<path fill="none" stroke="#63b8ff" d="M1343.69,-30.5C1335.06,-30.5 1326.44,-30.5 1318.08,-30.5"/>
<polygon fill="#63b8ff" stroke="#63b8ff" points="1343.8,-34 1353.8,-30.5 1343.8,-27 1343.8,-34"/>
</a>
</g>
</g>
<!-- Node27&#45;&gt;Node19 -->
<g id="edge27_Node000027_Node000019" class="edge">
<title>Node27&#45;&gt;Node19</title>
<g id="a_edge27_Node000027_Node000019"><a xlink:title=" ">
<path fill="none" stroke="#63b8ff" d="M1160.69,-38.6C1144.39,-40.2 1127.69,-41.83 1112.69,-43.3"/>
<polygon fill="#63b8ff" stroke="#63b8ff" points="1161.17,-42.07 1170.78,-37.61 1160.49,-35.1 1161.17,-42.07"/>
</a>
</g>
</g>
<!-- Node27&#45;&gt;Node22 -->
<g id="edge28_Node000027_Node000022" class="edge">
<title>Node27&#45;&gt;Node22</title>
<g id="a_edge28_Node000027_Node000022"><a xlink:title=" ">
<path fill="none" stroke="#63b8ff" d="M1160.82,-21.96C1142.23,-20.04 1123.13,-18.07 1106.59,-16.36"/>
<polygon fill="#63b8ff" stroke="#63b8ff" points="1160.47,-25.44 1170.78,-22.99 1161.19,-18.48 1160.47,-25.44"/>
</a>
</g>
</g>
<!-- Node28&#45;&gt;Node3 -->
<g id="edge30_Node000028_Node000003" class="edge">
<title>Node28&#45;&gt;Node3</title>
<g id="a_edge30_Node000028_Node000003"><a xlink:title=" ">
<path fill="none" stroke="#63b8ff" d="M1558.97,-78.5C1545.1,-78.5 1530.79,-78.5 1517.19,-78.5"/>
<polygon fill="#63b8ff" stroke="#63b8ff" points="1558.98,-82 1568.98,-78.5 1558.98,-75 1558.98,-82"/>
</a>
</g>
</g>
</g>
</svg>
