<?xml version="1.0" encoding="UTF-8" standalone="no"?>
<!DOCTYPE svg PUBLIC "-//W3C//DTD SVG 1.1//EN"
 "http://www.w3.org/Graphics/SVG/1.1/DTD/svg11.dtd">
<!-- Generated by graphviz version 2.43.0 (0)
 -->
<!-- Title: STDPSynapse::setAPlus Pages: 1 -->
<svg width="505pt" height="64pt"
 viewBox="0.00 0.00 505.00 64.00" xmlns="http://www.w3.org/2000/svg" xmlns:xlink="http://www.w3.org/1999/xlink">
<g id="graph0" class="graph" transform="scale(1 1) rotate(0) translate(4 60)">
<title>STDPSynapse::setAPlus</title>
<!-- Node1 -->
<g id="Node000001" class="node">
<title>Node1</title>
<g id="a_Node000001"><a xlink:title=" ">
<polygon fill="#999999" stroke="#666666" points="497,-37 366,-37 366,-18 497,-18 497,-37"/>
<text text-anchor="middle" x="431.5" y="-25" font-family="Ubuntu Mono" font-size="10.00">STDPSynapse::setAPlus</text>
</a>
</g>
</g>
<!-- Node2 -->
<g id="Node000002" class="node">
<title>Node2</title>
<g id="a_Node000002"><a xlink:href="classSTDPSynapse.html#a0d2b406fdc890303bb0616340acb1a67" target="_top" xlink:title=" ">
<polygon fill="white" stroke="#666666" points="321.5,-56 190.5,-56 190.5,-37 321.5,-37 321.5,-56"/>
<text text-anchor="middle" x="256" y="-44" font-family="Ubuntu Mono" font-size="10.00">STDPSynapse::initCinfo</text>
</a>
</g>
</g>
<!-- Node1&#45;&gt;Node2 -->
<g id="edge1_Node000001_Node000002" class="edge">
<title>Node1&#45;&gt;Node2</title>
<g id="a_edge1_Node000001_Node000002"><a xlink:title=" ">
<path fill="none" stroke="#63b8ff" d="M355.61,-35.7C344.31,-36.94 332.73,-38.21 321.66,-39.42"/>
<polygon fill="#63b8ff" stroke="#63b8ff" points="356.34,-39.14 365.9,-34.57 355.57,-32.18 356.34,-39.14"/>
</a>
</g>
</g>
<!-- Node4 -->
<g id="Node000004" class="node">
<title>Node4</title>
<g id="a_Node000004"><a xlink:href="classSTDPSynHandler.html#ac4de05c3d3a8e1d1a0670b813695c08d" target="_top" xlink:title=" ">
<polygon fill="white" stroke="#666666" points="330,-19 182,-19 182,0 330,0 330,-19"/>
<text text-anchor="middle" x="256" y="-7" font-family="Ubuntu Mono" font-size="10.00">STDPSynHandler::vProcess</text>
</a>
</g>
</g>
<!-- Node1&#45;&gt;Node4 -->
<g id="edge3_Node000001_Node000004" class="edge">
<title>Node1&#45;&gt;Node4</title>
<g id="a_edge3_Node000001_Node000004"><a xlink:title=" ">
<path fill="none" stroke="#63b8ff" d="M355.94,-19.77C347.39,-18.88 338.67,-17.97 330.13,-17.09"/>
<polygon fill="#63b8ff" stroke="#63b8ff" points="355.59,-23.25 365.9,-20.8 356.31,-16.28 355.59,-23.25"/>
</a>
</g>
</g>
<!-- Node3 -->
<g id="Node000003" class="node">
<title>Node3</title>
<g id="a_Node000003"><a xlink:href="classSTDPSynHandler.html#acf8fa8af063775b3c862b3909f4ae934" target="_top" xlink:title=" ">
<polygon fill="white" stroke="#666666" points="146,-56 0,-56 0,-37 146,-37 146,-56"/>
<text text-anchor="middle" x="73" y="-44" font-family="Ubuntu Mono" font-size="10.00">STDPSynHandler::initCinfo</text>
</a>
</g>
</g>
<!-- Node2&#45;&gt;Node3 -->
<g id="edge2_Node000002_Node000003" class="edge">
<title>Node2&#45;&gt;Node3</title>
<g id="a_edge2_Node000002_Node000003"><a xlink:title=" ">
<path fill="none" stroke="#63b8ff" d="M180.22,-46.5C168.99,-46.5 157.42,-46.5 146.25,-46.5"/>
<polygon fill="#63b8ff" stroke="#63b8ff" points="180.42,-50 190.42,-46.5 180.42,-43 180.42,-50"/>
</a>
</g>
</g>
</g>
</svg>
