<?xml version="1.0" encoding="UTF-8" standalone="no"?>
<!DOCTYPE svg PUBLIC "-//W3C//DTD SVG 1.1//EN"
 "http://www.w3.org/Graphics/SVG/1.1/DTD/svg11.dtd">
<!-- Generated by graphviz version 2.43.0 (0)
 -->
<!-- Title: FastMatrixElim::hinesReorder Pages: 1 -->
<!--zoomable 175 -->

<svg id="main" version="1.1" xmlns="http://www.w3.org/2000/svg" xmlns:xlink="http://www.w3.org/1999/xlink" xml:space="preserve" onload="init(evt)">
<style type="text/css"><![CDATA[
.node, .edge {opacity: 0.7;}
.node.selected, .edge.selected {opacity: 1;}
.edge:hover path { stroke: red; }
.edge:hover polygon { stroke: red; fill: red; }
]]></style>

<defs>
  <circle id="rim" cx="0" cy="0" r="7"/>
  <circle id="rim2" cx="0" cy="0" r="3.5"/>
  <g id="zoomPlus">
    <use xlink:href="#rim" fill="#404040"><set attributeName="fill" to="#808080" begin="zoomplus.mouseover" end="zoomplus.mouseout"/></use>
    <path d="M-4,0h8M0,-4v8" fill="none" stroke="white" stroke-width="1.5" pointer-events="none"/>
  </g>
  <g id="zoomMin">
    <use xlink:href="#rim" fill="#404040"><set attributeName="fill" to="#808080" begin="zoomminus.mouseover" end="zoomminus.mouseout"/></use>
    <path d="M-4,0h8" fill="none" stroke="white" stroke-width="1.5" pointer-events="none"/>
  </g>
  <g id="arrowUp" transform="translate(30 24)">
    <use xlink:href="#rim"/>
    <path pointer-events="none" fill="none" stroke="white" stroke-width="1.5" d="M0,-3.0v7 M-2.5,-0.5L0,-3.0L2.5,-0.5"/>
  </g>
  <g id="arrowRight" transform="rotate(90) translate(36 -43)">
    <use xlink:href="#rim"/>
    <path pointer-events="none" fill="none" stroke="white" stroke-width="1.5" d="M0,-3.0v7 M-2.5,-0.5L0,-3.0L2.5,-0.5"/>
  </g>
  <g id="arrowDown" transform="rotate(180) translate(-30 -48)">
    <use xlink:href="#rim"/>
    <path pointer-events="none" fill="none" stroke="white" stroke-width="1.5" d="M0,-3.0v7 M-2.5,-0.5L0,-3.0L2.5,-0.5"/>
  </g>
  <g id="arrowLeft" transform="rotate(270) translate(-36 17)">
    <use xlink:href="#rim"/>
    <path pointer-events="none" fill="none" stroke="white" stroke-width="1.5" d="M0,-3.0v7 M-2.5,-0.5L0,-3.0L2.5,-0.5"/>
  </g>
  <g id="resetDef">
    <use xlink:href="#rim2" fill="#404040"><set attributeName="fill" to="#808080" begin="reset.mouseover" end="reset.mouseout"/></use>
  </g>
</defs>
<script type="application/ecmascript">
var viewWidth = 521;
var viewHeight = 175;
var sectionId = 'dynsection-14';
</script>
<script type="application/ecmascript" xlink:href="svg.min.js"/>
<svg id="graph" class="graph">
<g id="viewport">
<title>FastMatrixElim::hinesReorder</title>
<!-- Node1 -->
<g id="Node000001" class="node">
<title>Node1</title>
<g id="a_Node000001"><a xlink:title=" ">
<polygon fill="#999999" stroke="#666666" points="160,-111 0,-111 0,-92 160,-92 160,-111"/>
<text text-anchor="middle" x="80" y="-99" font-family="Ubuntu Mono" font-size="10.00">FastMatrixElim::hinesReorder</text>
</a>
</g>
</g>
<!-- Node2 -->
<g id="Node000002" class="node">
<title>Node2</title>
<g id="a_Node000002"><a xlink:href="FastMatrixElim_8cpp.html#a48925cd4c1d345063d8dae8fcb2743d5" target="_top" xlink:title=" ">
<polygon fill="white" stroke="#666666" points="317,-130 230,-130 230,-111 317,-111 317,-130"/>
<text text-anchor="middle" x="273.5" y="-118" font-family="Ubuntu Mono" font-size="10.00">EMPTY_VOXEL</text>
</a>
</g>
</g>
<!-- Node1&#45;&gt;Node2 -->
<g id="edge1_Node000001_Node000002" class="edge">
<title>Node1&#45;&gt;Node2</title>
<g id="a_edge1_Node000001_Node000002"><a xlink:title=" ">
<path fill="none" stroke="#63b8ff" d="M160.27,-109.37C180.32,-111.35 201.36,-113.44 219.74,-115.27"/>
<polygon fill="#63b8ff" stroke="#63b8ff" points="219.64,-118.77 229.94,-116.28 220.33,-111.81 219.64,-118.77"/>
</a>
</g>
</g>
<!-- Node3 -->
<g id="Node000003" class="node">
<title>Node3</title>
<g id="a_Node000003"><a xlink:href="classFastMatrixElim.html#ad534bd7ba1876a591d78fd1bc907441d" target="_top" xlink:title=" ">
<polygon fill="white" stroke="#666666" points="351,-93 196,-93 196,-74 351,-74 351,-93"/>
<text text-anchor="middle" x="273.5" y="-81" font-family="Ubuntu Mono" font-size="10.00">FastMatrixElim::shuffleRows</text>
</a>
</g>
</g>
<!-- Node1&#45;&gt;Node3 -->
<g id="edge2_Node000001_Node000003" class="edge">
<title>Node1&#45;&gt;Node3</title>
<g id="a_edge2_Node000001_Node000003"><a xlink:title=" ">
<path fill="none" stroke="#63b8ff" d="M160.27,-94.05C168.61,-93.26 177.12,-92.46 185.54,-91.67"/>
<polygon fill="#63b8ff" stroke="#63b8ff" points="186.12,-95.13 195.75,-90.71 185.47,-88.17 186.12,-95.13"/>
</a>
</g>
</g>
<!-- Node4 -->
<g id="Node000004" class="node">
<title>Node4</title>
<g id="a_Node000004"><a xlink:href="classSparseMatrix.html#a873cc36079017efce916136e0bc50c20" target="_top" xlink:title=" ">
<polygon fill="white" stroke="#666666" points="513,-167 387,-167 387,-148 513,-148 513,-167"/>
<text text-anchor="middle" x="450" y="-155" font-family="Ubuntu Mono" font-size="10.00">SparseMatrix::addRow</text>
</a>
</g>
</g>
<!-- Node3&#45;&gt;Node4 -->
<g id="edge3_Node000003_Node000004" class="edge">
<title>Node3&#45;&gt;Node4</title>
<g id="a_edge3_Node000003_Node000004"><a xlink:title=" ">
<path fill="none" stroke="#63b8ff" d="M329.05,-93.05C336.69,-95.52 344.24,-98.62 351,-102.5 370.9,-113.93 367.33,-127.69 387,-139.5 389.83,-141.2 392.84,-142.75 395.94,-144.16"/>
<polygon fill="#63b8ff" stroke="#63b8ff" points="394.85,-147.49 405.43,-147.98 397.46,-141 394.85,-147.49"/>
</a>
</g>
</g>
<!-- Node5 -->
<g id="Node000005" class="node">
<title>Node5</title>
<g id="a_Node000005"><a xlink:href="classSparseMatrix.html#aabc77208663f5a59bb2bbb0559b614f7" target="_top" xlink:title=" ">
<polygon fill="white" stroke="#666666" points="505.5,-130 394.5,-130 394.5,-111 505.5,-111 505.5,-130"/>
<text text-anchor="middle" x="450" y="-118" font-family="Ubuntu Mono" font-size="10.00">SparseMatrix::clear</text>
</a>
</g>
</g>
<!-- Node3&#45;&gt;Node5 -->
<g id="edge4_Node000003_Node000005" class="edge">
<title>Node3&#45;&gt;Node5</title>
<g id="a_edge4_Node000003_Node000005"><a xlink:title=" ">
<path fill="none" stroke="#63b8ff" d="M319.44,-93.03C342.15,-97.84 369.9,-103.73 393.89,-108.81"/>
<polygon fill="#63b8ff" stroke="#63b8ff" points="393.4,-112.29 403.91,-110.94 394.85,-105.44 393.4,-112.29"/>
</a>
</g>
</g>
<!-- Node6 -->
<g id="Node000006" class="node">
<title>Node6</title>
<g id="a_Node000006"><a xlink:href="classSparseMatrix.html#a5d8d69c9a34cbf241483691d6eda63a8" target="_top" xlink:title=" ">
<polygon fill="white" stroke="#666666" points="512,-93 388,-93 388,-74 512,-74 512,-93"/>
<text text-anchor="middle" x="450" y="-81" font-family="Ubuntu Mono" font-size="10.00">SparseMatrix::getRow</text>
</a>
</g>
</g>
<!-- Node3&#45;&gt;Node6 -->
<g id="edge5_Node000003_Node000006" class="edge">
<title>Node3&#45;&gt;Node6</title>
<g id="a_edge5_Node000003_Node000006"><a xlink:title=" ">
<path fill="none" stroke="#63b8ff" d="M351.04,-83.5C359.92,-83.5 368.96,-83.5 377.77,-83.5"/>
<polygon fill="#63b8ff" stroke="#63b8ff" points="377.99,-87 387.99,-83.5 377.99,-80 377.99,-87"/>
</a>
</g>
</g>
<!-- Node7 -->
<g id="Node000007" class="node">
<title>Node7</title>
<g id="a_Node000007"><a xlink:href="classSparseMatrix.html#a6ceeff27e7ff6df253e88f3c6a24f820" target="_top" xlink:title=" ">
<polygon fill="white" stroke="#666666" points="511,-56 389,-56 389,-37 511,-37 511,-56"/>
<text text-anchor="middle" x="450" y="-44" font-family="Ubuntu Mono" font-size="10.00">SparseMatrix::setSize</text>
</a>
</g>
</g>
<!-- Node3&#45;&gt;Node7 -->
<g id="edge6_Node000003_Node000007" class="edge">
<title>Node3&#45;&gt;Node7</title>
<g id="a_edge6_Node000003_Node000007"><a xlink:title=" ">
<path fill="none" stroke="#63b8ff" d="M319.44,-73.97C342.15,-69.16 369.9,-63.27 393.89,-58.19"/>
<polygon fill="#63b8ff" stroke="#63b8ff" points="394.85,-61.56 403.91,-56.06 393.4,-54.71 394.85,-61.56"/>
</a>
</g>
</g>
<!-- Node8 -->
<g id="Node000008" class="node">
<title>Node8</title>
<g id="a_Node000008"><a xlink:href="standaloneTestFastElim_8cpp.html#a725cf7fc869d3738916ef41c6ba83ea4" target="_top" xlink:title=" ">
<polygon fill="white" stroke="#666666" points="493,-19 407,-19 407,0 493,0 493,-19"/>
<text text-anchor="middle" x="450" y="-7" font-family="Ubuntu Mono" font-size="10.00">sortByColumn</text>
</a>
</g>
</g>
<!-- Node3&#45;&gt;Node8 -->
<g id="edge7_Node000003_Node000008" class="edge">
<title>Node3&#45;&gt;Node8</title>
<g id="a_edge7_Node000003_Node000008"><a xlink:title=" ">
<path fill="none" stroke="#63b8ff" d="M292.04,-73.85C313.84,-62.11 352.42,-42.15 387,-28.5 392.63,-26.28 398.64,-24.15 404.61,-22.17"/>
<polygon fill="#63b8ff" stroke="#63b8ff" points="406.09,-25.37 414.56,-19 403.97,-18.7 406.09,-25.37"/>
</a>
</g>
</g>
</g>
</svg>

<g id="navigator" transform="translate(0 0)" fill="#404254">
  <rect fill="#f2f5e9" fill-opacity="0.5" stroke="#606060" stroke-width=".5" x="0" y="0" width="60" height="60"/>
  <use id="zoomplus" xlink:href="#zoomPlus" x="17" y="9" onmousedown="handleZoom(evt,'in')"/>
  <use id="zoomminus" xlink:href="#zoomMin" x="42" y="9" onmousedown="handleZoom(evt,'out')"/>
  <use id="reset" xlink:href="#resetDef" x="30" y="36" onmousedown="handleReset()"/>
   <use id="arrowup" xlink:href="#arrowUp" x="0" y="0" onmousedown="handlePan(0,-1)"/>
  <use id="arrowright" xlink:href="#arrowRight" x="0" y="0" onmousedown="handlePan(1,0)"/>
  <use id="arrowdown" xlink:href="#arrowDown" x="0" y="0" onmousedown="handlePan(0,1)"/>
  <use id="arrowleft" xlink:href="#arrowLeft" x="0" y="0" onmousedown="handlePan(-1,0)"/>
</g>
<svg viewBox="0 0 15 15" width="100%" height="30px" preserveAspectRatio="xMaxYMin meet">
 <g id="arrow_out" transform="scale(0.3 0.3)">
  <a xlink:href="classFastMatrixElim_af840ef3842f9cf41b688245d69f29b3a_cgraph_org.svg" target="_base">
   <rect id="button" ry="5" rx="5" y="6" x="6" height="38" width="38"
        fill="#f2f5e9" fill-opacity="0.5" stroke="#606060" stroke-width="1.0"/>
   <path id="arrow"
     d="M 11.500037,31.436501 C 11.940474,20.09759 22.043105,11.32322 32.158766,21.979434 L 37.068811,17.246167 C 37.068811,17.246167 37.088388,32 37.088388,32 L 22.160133,31.978069 C 22.160133,31.978069 26.997745,27.140456 26.997745,27.140456 C 18.528582,18.264221 13.291696,25.230495 11.500037,31.436501 z"
     style="fill:#404040;"/>
  </a>
 </g>
</svg>

<style type='text/css'>
<![CDATA[
[data-mouse-over-selected='false'] { opacity: 0.7; }
[data-mouse-over-selected='true']  { opacity: 1.0; }
]]>
</style>
<script type="application/ecmascript"><![CDATA[
document.addEventListener('DOMContentLoaded', (event) => {
  highlightEdges();
  highlightAdjacentNodes();
});
]]></script>
</svg>
