<?xml version="1.0" encoding="UTF-8" standalone="no"?>
<!DOCTYPE svg PUBLIC "-//W3C//DTD SVG 1.1//EN"
 "http://www.w3.org/Graphics/SVG/1.1/DTD/svg11.dtd">
<!-- Generated by graphviz version 2.43.0 (0)
 -->
<!-- Title: MeshCompt Pages: 1 -->
<svg width="621pt" height="1185pt"
 viewBox="0.00 0.00 621.00 1185.00" xmlns="http://www.w3.org/2000/svg" xmlns:xlink="http://www.w3.org/1999/xlink">
<g id="graph0" class="graph" transform="scale(1 1) rotate(0) translate(4 1181)">
<title>MeshCompt</title>
<!-- Node1 -->
<g id="Node000001" class="node">
<title>Node1</title>
<g id="a_Node000001"><a xlink:title=" ">
<polygon fill="#999999" stroke="transparent" points="335.5,-259 148.5,-259 148.5,0 335.5,0 335.5,-259"/>
<text text-anchor="start" x="213" y="-246.5" font-family="Ubuntu Mono" font-size="10.00">MeshCompt</text>
<text text-anchor="start" x="240.5" y="-231.5" font-family="Ubuntu Mono" font-size="10.00"> </text>
<text text-anchor="start" x="153" y="-216.5" font-family="Ubuntu Mono" font-size="10.00">+</text>
<text text-anchor="start" x="166" y="-216.5" font-family="Ubuntu Mono" font-size="10.00">addRow()</text>
<text text-anchor="start" x="153" y="-201.5" font-family="Ubuntu Mono" font-size="10.00">+</text>
<text text-anchor="start" x="166" y="-201.5" font-family="Ubuntu Mono" font-size="10.00">clearExtendedMeshEntryVolume()</text>
<text text-anchor="start" x="153" y="-186.5" font-family="Ubuntu Mono" font-size="10.00">+</text>
<text text-anchor="start" x="166" y="-186.5" font-family="Ubuntu Mono" font-size="10.00">extendedMeshEntryVolume()</text>
<text text-anchor="start" x="153" y="-171.5" font-family="Ubuntu Mono" font-size="10.00">+</text>
<text text-anchor="start" x="166" y="-171.5" font-family="Ubuntu Mono" font-size="10.00">extendStencil()</text>
<text text-anchor="start" x="153" y="-156.5" font-family="Ubuntu Mono" font-size="10.00">+</text>
<text text-anchor="start" x="166" y="-156.5" font-family="Ubuntu Mono" font-size="10.00">getNeighbors()</text>
<text text-anchor="start" x="153" y="-141.5" font-family="Ubuntu Mono" font-size="10.00">+</text>
<text text-anchor="start" x="166" y="-141.5" font-family="Ubuntu Mono" font-size="10.00">getParentVoxel()</text>
<text text-anchor="start" x="153" y="-126.5" font-family="Ubuntu Mono" font-size="10.00">+</text>
<text text-anchor="start" x="166" y="-126.5" font-family="Ubuntu Mono" font-size="10.00">getStencil()</text>
<text text-anchor="start" x="153" y="-111.5" font-family="Ubuntu Mono" font-size="10.00">+</text>
<text text-anchor="start" x="166" y="-111.5" font-family="Ubuntu Mono" font-size="10.00">getStencilRow()</text>
<text text-anchor="start" x="153" y="-96.5" font-family="Ubuntu Mono" font-size="10.00">+</text>
<text text-anchor="start" x="166" y="-96.5" font-family="Ubuntu Mono" font-size="10.00">getVoxelArea()</text>
<text text-anchor="start" x="153" y="-81.5" font-family="Ubuntu Mono" font-size="10.00">+</text>
<text text-anchor="start" x="166" y="-81.5" font-family="Ubuntu Mono" font-size="10.00">getVoxelLength()</text>
<text text-anchor="start" x="153" y="-66.5" font-family="Ubuntu Mono" font-size="10.00">+</text>
<text text-anchor="start" x="166" y="-66.5" font-family="Ubuntu Mono" font-size="10.00">innerGetStencilRate()</text>
<text text-anchor="start" x="153" y="-51.5" font-family="Ubuntu Mono" font-size="10.00">+</text>
<text text-anchor="start" x="166" y="-51.5" font-family="Ubuntu Mono" font-size="10.00">innerResetStencil()</text>
<text text-anchor="start" x="153" y="-36.5" font-family="Ubuntu Mono" font-size="10.00">+</text>
<text text-anchor="start" x="166" y="-36.5" font-family="Ubuntu Mono" font-size="10.00">MeshCompt()</text>
<text text-anchor="start" x="153" y="-21.5" font-family="Ubuntu Mono" font-size="10.00">+</text>
<text text-anchor="start" x="166" y="-21.5" font-family="Ubuntu Mono" font-size="10.00">setStencilSize()</text>
<text text-anchor="start" x="153" y="-6.5" font-family="Ubuntu Mono" font-size="10.00">+</text>
<text text-anchor="start" x="166" y="-6.5" font-family="Ubuntu Mono" font-size="10.00">~MeshCompt()</text>
<polygon fill="#666666" stroke="#666666" points="149,-241.5 149,-241.5 336,-241.5 336,-241.5 149,-241.5"/>
<polygon fill="#666666" stroke="#666666" points="149,-226.5 149,-226.5 336,-226.5 336,-226.5 149,-226.5"/>
<polygon fill="none" stroke="#666666" points="148.5,0 148.5,-259 335.5,-259 335.5,0 148.5,0"/>
</a>
</g>
</g>
<!-- Node2 -->
<g id="Node000002" class="node">
<title>Node2</title>
<g id="a_Node000002"><a xlink:href="classChemCompt.html" target="_top" xlink:title=" ">
<polygon fill="white" stroke="transparent" points="205.5,-591 18.5,-591 18.5,-317 205.5,-317 205.5,-591"/>
<text text-anchor="start" x="82" y="-579" font-family="Ubuntu Mono" font-size="10.00">ChemCompt</text>
<text text-anchor="start" x="25.5" y="-564" font-family="Ubuntu Mono" font-size="10.00">&#45;</text>
<text text-anchor="start" x="36" y="-564" font-family="Ubuntu Mono" font-size="10.00">boundaries_</text>
<text text-anchor="start" x="25.5" y="-549" font-family="Ubuntu Mono" font-size="10.00">&#45;</text>
<text text-anchor="start" x="36" y="-549" font-family="Ubuntu Mono" font-size="10.00">isMembraneBound_</text>
<text text-anchor="start" x="25.5" y="-534" font-family="Ubuntu Mono" font-size="10.00">&#45;</text>
<text text-anchor="start" x="36" y="-534" font-family="Ubuntu Mono" font-size="10.00">method_</text>
<text text-anchor="start" x="23" y="-519" font-family="Ubuntu Mono" font-size="10.00">+</text>
<text text-anchor="start" x="36" y="-519" font-family="Ubuntu Mono" font-size="10.00">buildDefaultMesh()</text>
<text text-anchor="start" x="23" y="-504" font-family="Ubuntu Mono" font-size="10.00">+</text>
<text text-anchor="start" x="36" y="-504" font-family="Ubuntu Mono" font-size="10.00">buildJunction()</text>
<text text-anchor="start" x="23" y="-489" font-family="Ubuntu Mono" font-size="10.00">+</text>
<text text-anchor="start" x="36" y="-489" font-family="Ubuntu Mono" font-size="10.00">ChemCompt()</text>
<text text-anchor="start" x="23" y="-474" font-family="Ubuntu Mono" font-size="10.00">+</text>
<text text-anchor="start" x="36" y="-474" font-family="Ubuntu Mono" font-size="10.00">clearExtendedMeshEntryVolume()</text>
<text text-anchor="start" x="23" y="-459" font-family="Ubuntu Mono" font-size="10.00">+</text>
<text text-anchor="start" x="36" y="-459" font-family="Ubuntu Mono" font-size="10.00">extendedMeshEntryVolume()</text>
<text text-anchor="start" x="23" y="-444" font-family="Ubuntu Mono" font-size="10.00">+</text>
<text text-anchor="start" x="36" y="-444" font-family="Ubuntu Mono" font-size="10.00">extendStencil()</text>
<text text-anchor="start" x="23" y="-429" font-family="Ubuntu Mono" font-size="10.00">+</text>
<text text-anchor="start" x="36" y="-429" font-family="Ubuntu Mono" font-size="10.00">flipRet()</text>
<text text-anchor="start" x="23" y="-414" font-family="Ubuntu Mono" font-size="10.00">+</text>
<text text-anchor="start" x="36" y="-414" font-family="Ubuntu Mono" font-size="10.00">getChildConcs()</text>
<text text-anchor="start" x="23" y="-399" font-family="Ubuntu Mono" font-size="10.00">+</text>
<text text-anchor="start" x="36" y="-399" font-family="Ubuntu Mono" font-size="10.00">getCoordinates()</text>
<text text-anchor="start" x="23" y="-384" font-family="Ubuntu Mono" font-size="10.00">+</text>
<text text-anchor="start" x="36" y="-384" font-family="Ubuntu Mono" font-size="10.00">getDiffusionArea()</text>
<text text-anchor="start" x="36" y="-369" font-family="Ubuntu Mono" font-size="10.00">and 43 more...</text>
<text text-anchor="start" x="23" y="-354" font-family="Ubuntu Mono" font-size="10.00">+</text>
<text text-anchor="start" x="36" y="-354" font-family="Ubuntu Mono" font-size="10.00">distance()</text>
<text text-anchor="start" x="23" y="-339" font-family="Ubuntu Mono" font-size="10.00">+</text>
<text text-anchor="start" x="36" y="-339" font-family="Ubuntu Mono" font-size="10.00">initCinfo()</text>
<text text-anchor="start" x="23" y="-324" font-family="Ubuntu Mono" font-size="10.00">+</text>
<text text-anchor="start" x="36" y="-324" font-family="Ubuntu Mono" font-size="10.00">voxelVolOut()</text>
<polygon fill="#666666" stroke="#666666" points="19,-574 19,-574 206,-574 206,-574 19,-574"/>
<polygon fill="#666666" stroke="#666666" points="19,-529 19,-529 34,-529 34,-529 19,-529"/>
<polygon fill="#666666" stroke="#666666" points="34,-529 34,-529 206,-529 206,-529 34,-529"/>
<polygon fill="none" stroke="#666666" points="18.5,-317 18.5,-591 205.5,-591 205.5,-317 18.5,-317"/>
</a>
</g>
</g>
<!-- Node2&#45;&gt;Node1 -->
<g id="edge1_Node000001_Node000002" class="edge">
<title>Node2&#45;&gt;Node1</title>
<g id="a_edge1_Node000001_Node000002"><a xlink:title=" ">
<path fill="none" stroke="#63b8ff" d="M170.74,-307.27C177.22,-291.22 183.77,-274.95 190.15,-259.12"/>
<polygon fill="none" stroke="#63b8ff" points="167.44,-306.12 166.94,-316.7 173.93,-308.73 167.44,-306.12"/>
</a>
</g>
</g>
<!-- Node3 -->
<g id="Node000003" class="node">
<title>Node3</title>
<g id="a_Node000003"><a xlink:href="classMeshEntry.html" target="_top" xlink:title=" ">
<polygon fill="white" stroke="transparent" points="124,-251.5 0,-251.5 0,-7.5 124,-7.5 124,-251.5"/>
<text text-anchor="start" x="36" y="-239.5" font-family="Ubuntu Mono" font-size="10.00">MeshEntry</text>
<text text-anchor="start" x="6.5" y="-224.5" font-family="Ubuntu Mono" font-size="10.00">&#45;</text>
<text text-anchor="start" x="17" y="-224.5" font-family="Ubuntu Mono" font-size="10.00">volume_</text>
<text text-anchor="start" x="4" y="-209.5" font-family="Ubuntu Mono" font-size="10.00">+</text>
<text text-anchor="start" x="17" y="-209.5" font-family="Ubuntu Mono" font-size="10.00">extent()</text>
<text text-anchor="start" x="4" y="-194.5" font-family="Ubuntu Mono" font-size="10.00">+</text>
<text text-anchor="start" x="17" y="-194.5" font-family="Ubuntu Mono" font-size="10.00">getCoordinates()</text>
<text text-anchor="start" x="4" y="-179.5" font-family="Ubuntu Mono" font-size="10.00">+</text>
<text text-anchor="start" x="17" y="-179.5" font-family="Ubuntu Mono" font-size="10.00">getDiffusionArea()</text>
<text text-anchor="start" x="4" y="-164.5" font-family="Ubuntu Mono" font-size="10.00">+</text>
<text text-anchor="start" x="17" y="-164.5" font-family="Ubuntu Mono" font-size="10.00">getDiffusionScaling()</text>
<text text-anchor="start" x="4" y="-149.5" font-family="Ubuntu Mono" font-size="10.00">+</text>
<text text-anchor="start" x="17" y="-149.5" font-family="Ubuntu Mono" font-size="10.00">getDimensions()</text>
<text text-anchor="start" x="4" y="-134.5" font-family="Ubuntu Mono" font-size="10.00">+</text>
<text text-anchor="start" x="17" y="-134.5" font-family="Ubuntu Mono" font-size="10.00">getMeshType()</text>
<text text-anchor="start" x="4" y="-119.5" font-family="Ubuntu Mono" font-size="10.00">+</text>
<text text-anchor="start" x="17" y="-119.5" font-family="Ubuntu Mono" font-size="10.00">getNeighbors()</text>
<text text-anchor="start" x="4" y="-104.5" font-family="Ubuntu Mono" font-size="10.00">+</text>
<text text-anchor="start" x="17" y="-104.5" font-family="Ubuntu Mono" font-size="10.00">getVolume()</text>
<text text-anchor="start" x="4" y="-89.5" font-family="Ubuntu Mono" font-size="10.00">+</text>
<text text-anchor="start" x="17" y="-89.5" font-family="Ubuntu Mono" font-size="10.00">MeshEntry()</text>
<text text-anchor="start" x="4" y="-74.5" font-family="Ubuntu Mono" font-size="10.00">+</text>
<text text-anchor="start" x="17" y="-74.5" font-family="Ubuntu Mono" font-size="10.00">MeshEntry()</text>
<text text-anchor="start" x="4" y="-59.5" font-family="Ubuntu Mono" font-size="10.00">+</text>
<text text-anchor="start" x="17" y="-59.5" font-family="Ubuntu Mono" font-size="10.00">process()</text>
<text text-anchor="start" x="4" y="-44.5" font-family="Ubuntu Mono" font-size="10.00">+</text>
<text text-anchor="start" x="17" y="-44.5" font-family="Ubuntu Mono" font-size="10.00">reinit()</text>
<text text-anchor="start" x="4" y="-29.5" font-family="Ubuntu Mono" font-size="10.00">+</text>
<text text-anchor="start" x="17" y="-29.5" font-family="Ubuntu Mono" font-size="10.00">triggerRemesh()</text>
<text text-anchor="start" x="4" y="-14.5" font-family="Ubuntu Mono" font-size="10.00">+</text>
<text text-anchor="start" x="17" y="-14.5" font-family="Ubuntu Mono" font-size="10.00">initCinfo()</text>
<polygon fill="#666666" stroke="#666666" points="0,-234.5 0,-234.5 124,-234.5 124,-234.5 0,-234.5"/>
<polygon fill="#666666" stroke="#666666" points="0,-219.5 0,-219.5 15,-219.5 15,-219.5 0,-219.5"/>
<polygon fill="#666666" stroke="#666666" points="15,-219.5 15,-219.5 124,-219.5 124,-219.5 15,-219.5"/>
<polygon fill="none" stroke="#666666" points="0,-7.5 0,-251.5 124,-251.5 124,-7.5 0,-7.5"/>
</a>
</g>
</g>
<!-- Node2&#45;&gt;Node3 -->
<g id="edge3_Node000003_Node000002" class="edge">
<title>Node2&#45;&gt;Node3</title>
<g id="a_edge3_Node000003_Node000002"><a xlink:title=" ">
<path fill="none" stroke="#63b8ff" d="M52.11,-316.58C50.55,-310.7 49.16,-304.82 48,-299 45.72,-287.56 44.48,-275.61 44.02,-263.58"/>
<polygon fill="none" stroke="#63b8ff" points="44.02,-263.54 39.92,-257.61 43.81,-251.54 47.91,-257.47 44.02,-263.54"/>
</a>
</g>
<text text-anchor="middle" x="70" y="-285.5" font-family="Ubuntu Mono" font-size="10.00" fill="grey"> &#45;parent_</text>
</g>
<!-- Node3&#45;&gt;Node2 -->
<g id="edge2_Node000002_Node000003" class="edge">
<title>Node3&#45;&gt;Node2</title>
<g id="a_edge2_Node000002_Node000003"><a xlink:title=" ">
<path fill="none" stroke="#63b8ff" d="M91.49,-251.76C93.15,-260.27 94.67,-268.75 96,-277 97.45,-286.05 98.79,-295.39 100.01,-304.82"/>
<polygon fill="none" stroke="#63b8ff" points="100.02,-304.9 104.73,-310.36 101.49,-316.81 96.79,-311.34 100.02,-304.9"/>
</a>
</g>
<text text-anchor="middle" x="118" y="-285.5" font-family="Ubuntu Mono" font-size="10.00" fill="grey"> &#45;entry_</text>
</g>
<!-- Node4 -->
<g id="Node000004" class="node">
<title>Node4</title>
<g id="a_Node000004"><a xlink:href="classSparseMatrix.html" target="_top" xlink:title=" ">
<polygon fill="white" stroke="transparent" points="538.5,-561 407.5,-561 407.5,-347 538.5,-347 538.5,-561"/>
<text text-anchor="start" x="413" y="-549" font-family="Ubuntu Mono" font-size="10.00">SparseMatrix&lt; double &gt;</text>
<text text-anchor="start" x="421.5" y="-534" font-family="Ubuntu Mono" font-size="10.00">#</text>
<text text-anchor="start" x="444" y="-534" font-family="Ubuntu Mono" font-size="10.00">ncolumns_</text>
<text text-anchor="start" x="421.5" y="-519" font-family="Ubuntu Mono" font-size="10.00">#</text>
<text text-anchor="start" x="444" y="-519" font-family="Ubuntu Mono" font-size="10.00">nrows_</text>
<text text-anchor="start" x="421.5" y="-504" font-family="Ubuntu Mono" font-size="10.00">+</text>
<text text-anchor="start" x="444" y="-504" font-family="Ubuntu Mono" font-size="10.00">addRow()</text>
<text text-anchor="start" x="421.5" y="-489" font-family="Ubuntu Mono" font-size="10.00">+</text>
<text text-anchor="start" x="444" y="-489" font-family="Ubuntu Mono" font-size="10.00">addRow()</text>
<text text-anchor="start" x="421.5" y="-474" font-family="Ubuntu Mono" font-size="10.00">+</text>
<text text-anchor="start" x="444" y="-474" font-family="Ubuntu Mono" font-size="10.00">clear()</text>
<text text-anchor="start" x="421.5" y="-459" font-family="Ubuntu Mono" font-size="10.00">+</text>
<text text-anchor="start" x="444" y="-459" font-family="Ubuntu Mono" font-size="10.00">colIndex()</text>
<text text-anchor="start" x="421.5" y="-444" font-family="Ubuntu Mono" font-size="10.00">+</text>
<text text-anchor="start" x="444" y="-444" font-family="Ubuntu Mono" font-size="10.00">get()</text>
<text text-anchor="start" x="421.5" y="-429" font-family="Ubuntu Mono" font-size="10.00">+</text>
<text text-anchor="start" x="444" y="-429" font-family="Ubuntu Mono" font-size="10.00">getColumn()</text>
<text text-anchor="start" x="421.5" y="-414" font-family="Ubuntu Mono" font-size="10.00">+</text>
<text text-anchor="start" x="444" y="-414" font-family="Ubuntu Mono" font-size="10.00">getRow()</text>
<text text-anchor="start" x="421.5" y="-399" font-family="Ubuntu Mono" font-size="10.00">+</text>
<text text-anchor="start" x="444" y="-399" font-family="Ubuntu Mono" font-size="10.00">getRow()</text>
<text text-anchor="start" x="421.5" y="-384" font-family="Ubuntu Mono" font-size="10.00">+</text>
<text text-anchor="start" x="444" y="-384" font-family="Ubuntu Mono" font-size="10.00">matrixEntry()</text>
<text text-anchor="start" x="421.5" y="-369" font-family="Ubuntu Mono" font-size="10.00">+</text>
<text text-anchor="start" x="444" y="-369" font-family="Ubuntu Mono" font-size="10.00">nColumns()</text>
<text text-anchor="start" x="444" y="-354" font-family="Ubuntu Mono" font-size="10.00">and 15 more...</text>
<polygon fill="#666666" stroke="#666666" points="408,-544 408,-544 539,-544 539,-544 408,-544"/>
<polygon fill="#666666" stroke="#666666" points="408,-514 408,-514 442,-514 442,-514 408,-514"/>
<polygon fill="#666666" stroke="#666666" points="442,-514 442,-514 539,-514 539,-514 442,-514"/>
<polygon fill="none" stroke="#666666" points="407.5,-347 407.5,-561 538.5,-561 538.5,-347 407.5,-347"/>
</a>
</g>
</g>
<!-- Node4&#45;&gt;Node1 -->
<g id="edge4_Node000001_Node000004" class="edge">
<title>Node4&#45;&gt;Node1</title>
<g id="a_edge4_Node000001_Node000004"><a xlink:title=" ">
<path fill="none" stroke="#63b8ff" d="M412.72,-346.96C406.27,-336.71 399.63,-326.57 393,-317 377.7,-294.93 360.53,-272.15 343.41,-250.42"/>
<polygon fill="none" stroke="#63b8ff" points="343.27,-250.24 336.41,-248.03 335.81,-240.84 342.67,-243.06 343.27,-250.24"/>
</a>
</g>
<text text-anchor="middle" x="411.5" y="-291" font-family="Ubuntu Mono" font-size="10.00" fill="grey"> &#45;coreStencil_</text>
<text text-anchor="middle" x="411.5" y="-280" font-family="Ubuntu Mono" font-size="10.00" fill="grey">&#45;m_</text>
</g>
<!-- Node5 -->
<g id="Node000005" class="node">
<title>Node5</title>
<g id="a_Node000005"><a xlink:title=" ">
<polygon fill="white" stroke="transparent" points="375,-777 257,-777 257,-728 375,-728 375,-777"/>
<text text-anchor="start" x="262" y="-764.5" font-family="Ubuntu Mono" font-size="10.00">std::vector&lt; double &gt;</text>
<text text-anchor="start" x="273.5" y="-749.5" font-family="Ubuntu Mono" font-size="10.00">+</text>
<text text-anchor="start" x="299" y="-749.5" font-family="Ubuntu Mono" font-size="10.00">elements</text>
<text text-anchor="start" x="314" y="-734.5" font-family="Ubuntu Mono" font-size="10.00"> </text>
<polygon fill="#666666" stroke="#666666" points="257,-759.5 257,-759.5 375,-759.5 375,-759.5 257,-759.5"/>
<polygon fill="#666666" stroke="#666666" points="257,-744.5 257,-744.5 297,-744.5 297,-744.5 257,-744.5"/>
<polygon fill="#666666" stroke="#666666" points="297,-744.5 297,-744.5 375,-744.5 375,-744.5 297,-744.5"/>
<polygon fill="none" stroke="#666666" points="257,-728 257,-777 375,-777 375,-728 257,-728"/>
</a>
</g>
</g>
<!-- Node5&#45;&gt;Node1 -->
<g id="edge12_Node000001_Node000005" class="edge">
<title>Node5&#45;&gt;Node1</title>
<g id="a_edge12_Node000001_Node000005"><a xlink:title=" ">
<path fill="none" stroke="#63b8ff" d="M303.23,-727.89C287.46,-697.33 261.44,-641.95 251,-591 229.37,-485.48 228.01,-363.51 231.58,-271.61"/>
<polygon fill="none" stroke="#63b8ff" points="231.59,-271.41 227.84,-265.25 232.09,-259.42 235.84,-265.58 231.59,-271.41"/>
</a>
</g>
<text text-anchor="middle" x="324.5" y="-451.5" font-family="Ubuntu Mono" font-size="10.00" fill="grey"> &#45;extendedMeshEntryVolume_</text>
</g>
<!-- Node5&#45;&gt;Node4 -->
<g id="edge5_Node000004_Node000005" class="edge">
<title>Node5&#45;&gt;Node4</title>
<g id="a_edge5_Node000004_Node000005"><a xlink:title=" ">
<path fill="none" stroke="#63b8ff" d="M328.45,-727.99C346.34,-694.2 380.54,-629.62 411.18,-571.75"/>
<polygon fill="none" stroke="#63b8ff" points="411.24,-571.63 410.51,-564.46 416.86,-561.03 417.58,-568.2 411.24,-571.63"/>
</a>
</g>
<text text-anchor="middle" x="402.5" y="-612" font-family="Ubuntu Mono" font-size="10.00" fill="grey"> #N_</text>
</g>
<!-- Node6 -->
<g id="Node000006" class="node">
<title>Node6</title>
<g id="a_Node000006"><a xlink:title=" ">
<polygon fill="white" stroke="transparent" points="377.5,-1081 286.5,-1081 286.5,-1032 377.5,-1032 377.5,-1081"/>
<text text-anchor="start" x="292" y="-1068.5" font-family="Ubuntu Mono" font-size="10.00">std::vector&lt; T &gt;</text>
<text text-anchor="start" x="330.5" y="-1053.5" font-family="Ubuntu Mono" font-size="10.00"> </text>
<text text-anchor="start" x="330.5" y="-1038.5" font-family="Ubuntu Mono" font-size="10.00"> </text>
<polygon fill="#666666" stroke="#666666" points="287,-1063.5 287,-1063.5 378,-1063.5 378,-1063.5 287,-1063.5"/>
<polygon fill="#666666" stroke="#666666" points="287,-1048.5 287,-1048.5 378,-1048.5 378,-1048.5 287,-1048.5"/>
<polygon fill="none" stroke="#666666" points="286.5,-1032 286.5,-1081 377.5,-1081 377.5,-1032 286.5,-1032"/>
</a>
</g>
</g>
<!-- Node6&#45;&gt;Node5 -->
<g id="edge6_Node000005_Node000006" class="edge">
<title>Node6&#45;&gt;Node5</title>
<g id="a_edge6_Node000005_Node000006"><a xlink:title=" ">
<path fill="none" stroke="orange" d="M328.21,-1021.55C327.03,-1009.97 325.82,-996.93 325,-985 319.77,-909.16 317.35,-819.12 316.45,-777.19"/>
<polygon fill="orange" stroke="orange" points="324.75,-1022.13 329.28,-1031.71 331.72,-1021.4 324.75,-1022.13"/>
</a>
</g>
<text text-anchor="middle" x="354.5" y="-952.5" font-family="Ubuntu Mono" font-size="10.00" fill="grey"> &lt; double &gt;</text>
</g>
<!-- Node8 -->
<g id="Node000008" class="node">
<title>Node8</title>
<g id="a_Node000008"><a xlink:title=" ">
<polygon fill="white" stroke="transparent" points="511,-985 393,-985 393,-925 511,-925 511,-985"/>
<text text-anchor="start" x="398" y="-973" font-family="Ubuntu Mono" font-size="10.00">std::vector&lt; unsigned</text>
<text text-anchor="start" x="438" y="-962" font-family="Ubuntu Mono" font-size="10.00"> int &gt;</text>
<text text-anchor="start" x="409.5" y="-947" font-family="Ubuntu Mono" font-size="10.00">+</text>
<text text-anchor="start" x="435" y="-947" font-family="Ubuntu Mono" font-size="10.00">elements</text>
<text text-anchor="start" x="450" y="-932" font-family="Ubuntu Mono" font-size="10.00"> </text>
<polygon fill="#666666" stroke="#666666" points="393,-957 393,-957 511,-957 511,-957 393,-957"/>
<polygon fill="#666666" stroke="#666666" points="393,-942 393,-942 433,-942 433,-942 393,-942"/>
<polygon fill="#666666" stroke="#666666" points="433,-942 433,-942 511,-942 511,-942 433,-942"/>
<polygon fill="none" stroke="#666666" points="393,-925 393,-985 511,-985 511,-925 393,-925"/>
</a>
</g>
</g>
<!-- Node6&#45;&gt;Node8 -->
<g id="edge9_Node000008_Node000006" class="edge">
<title>Node6&#45;&gt;Node8</title>
<g id="a_edge9_Node000008_Node000006"><a xlink:title=" ">
<path fill="none" stroke="orange" d="M368.25,-1025.44C383.68,-1012.65 401.6,-997.79 416.9,-985.1"/>
<polygon fill="orange" stroke="orange" points="365.9,-1022.84 360.44,-1031.92 370.37,-1028.23 365.9,-1022.84"/>
</a>
</g>
<text text-anchor="middle" x="435" y="-1006" font-family="Ubuntu Mono" font-size="10.00" fill="grey"> &lt; unsigned int &gt;</text>
</g>
<!-- Node7 -->
<g id="Node000007" class="node">
<title>Node7</title>
<g id="a_Node000007"><a xlink:title=" ">
<polygon fill="white" stroke="transparent" points="340.5,-1177 323.5,-1177 323.5,-1128 340.5,-1128 340.5,-1177"/>
<text text-anchor="start" x="329" y="-1164.5" font-family="Ubuntu Mono" font-size="10.00">T</text>
<text text-anchor="start" x="330.5" y="-1149.5" font-family="Ubuntu Mono" font-size="10.00"> </text>
<text text-anchor="start" x="330.5" y="-1134.5" font-family="Ubuntu Mono" font-size="10.00"> </text>
<polygon fill="#666666" stroke="#666666" points="324,-1159.5 324,-1159.5 341,-1159.5 341,-1159.5 324,-1159.5"/>
<polygon fill="#666666" stroke="#666666" points="324,-1144.5 324,-1144.5 341,-1144.5 341,-1144.5 324,-1144.5"/>
<polygon fill="none" stroke="#666666" points="323.5,-1128 323.5,-1177 340.5,-1177 340.5,-1128 323.5,-1128"/>
</a>
</g>
</g>
<!-- Node7&#45;&gt;Node6 -->
<g id="edge7_Node000006_Node000007" class="edge">
<title>Node7&#45;&gt;Node6</title>
<g id="a_edge7_Node000006_Node000007"><a xlink:title=" ">
<path fill="none" stroke="#63b8ff" d="M332,-1127.78C332,-1117.32 332,-1104.79 332,-1093.23"/>
<polygon fill="none" stroke="#63b8ff" points="332,-1093.21 328,-1087.21 332,-1081.21 336,-1087.21 332,-1093.21"/>
</a>
</g>
<text text-anchor="middle" x="361" y="-1102" font-family="Ubuntu Mono" font-size="10.00" fill="grey"> +elements</text>
</g>
<!-- Node8&#45;&gt;Node4 -->
<g id="edge8_Node000004_Node000008" class="edge">
<title>Node8&#45;&gt;Node4</title>
<g id="a_edge8_Node000004_Node000008"><a xlink:title=" ">
<path fill="none" stroke="#63b8ff" d="M447.78,-924.67C445.57,-907.84 443.1,-886.28 442,-867 436.18,-765.39 433.47,-739.42 442,-638 443.78,-616.87 446.69,-594.51 450.04,-572.94"/>
<polygon fill="none" stroke="#63b8ff" points="450.04,-572.91 447.04,-566.35 451.93,-561.06 454.94,-567.62 450.04,-572.91"/>
</a>
</g>
<text text-anchor="middle" x="471" y="-755.5" font-family="Ubuntu Mono" font-size="10.00" fill="grey"> #colIndex_</text>
<text text-anchor="middle" x="471" y="-744.5" font-family="Ubuntu Mono" font-size="10.00" fill="grey">#rowStart_</text>
</g>
<!-- Node9 -->
<g id="Node000009" class="node">
<title>Node9</title>
<g id="a_Node000009"><a xlink:href="classSparseMatrix.html" target="_top" xlink:title=" ">
<polygon fill="white" stroke="transparent" points="613,-867 509,-867 509,-638 613,-638 613,-867"/>
<text text-anchor="start" x="514" y="-854.5" font-family="Ubuntu Mono" font-size="10.00">SparseMatrix&lt; T &gt;</text>
<text text-anchor="start" x="516" y="-839.5" font-family="Ubuntu Mono" font-size="10.00">#</text>
<text text-anchor="start" x="532" y="-839.5" font-family="Ubuntu Mono" font-size="10.00">N_</text>
<text text-anchor="start" x="516" y="-824.5" font-family="Ubuntu Mono" font-size="10.00">#</text>
<text text-anchor="start" x="532" y="-824.5" font-family="Ubuntu Mono" font-size="10.00">ncolumns_</text>
<text text-anchor="start" x="516" y="-809.5" font-family="Ubuntu Mono" font-size="10.00">#</text>
<text text-anchor="start" x="532" y="-809.5" font-family="Ubuntu Mono" font-size="10.00">nrows_</text>
<text text-anchor="start" x="516" y="-794.5" font-family="Ubuntu Mono" font-size="10.00">+</text>
<text text-anchor="start" x="532" y="-794.5" font-family="Ubuntu Mono" font-size="10.00">addRow()</text>
<text text-anchor="start" x="516" y="-779.5" font-family="Ubuntu Mono" font-size="10.00">+</text>
<text text-anchor="start" x="532" y="-779.5" font-family="Ubuntu Mono" font-size="10.00">addRow()</text>
<text text-anchor="start" x="516" y="-764.5" font-family="Ubuntu Mono" font-size="10.00">+</text>
<text text-anchor="start" x="532" y="-764.5" font-family="Ubuntu Mono" font-size="10.00">clear()</text>
<text text-anchor="start" x="516" y="-749.5" font-family="Ubuntu Mono" font-size="10.00">+</text>
<text text-anchor="start" x="532" y="-749.5" font-family="Ubuntu Mono" font-size="10.00">colIndex()</text>
<text text-anchor="start" x="516" y="-734.5" font-family="Ubuntu Mono" font-size="10.00">+</text>
<text text-anchor="start" x="532" y="-734.5" font-family="Ubuntu Mono" font-size="10.00">get()</text>
<text text-anchor="start" x="516" y="-719.5" font-family="Ubuntu Mono" font-size="10.00">+</text>
<text text-anchor="start" x="532" y="-719.5" font-family="Ubuntu Mono" font-size="10.00">getColumn()</text>
<text text-anchor="start" x="516" y="-704.5" font-family="Ubuntu Mono" font-size="10.00">+</text>
<text text-anchor="start" x="532" y="-704.5" font-family="Ubuntu Mono" font-size="10.00">getRow()</text>
<text text-anchor="start" x="516" y="-689.5" font-family="Ubuntu Mono" font-size="10.00">+</text>
<text text-anchor="start" x="532" y="-689.5" font-family="Ubuntu Mono" font-size="10.00">getRow()</text>
<text text-anchor="start" x="516" y="-674.5" font-family="Ubuntu Mono" font-size="10.00">+</text>
<text text-anchor="start" x="532" y="-674.5" font-family="Ubuntu Mono" font-size="10.00">matrixEntry()</text>
<text text-anchor="start" x="516" y="-659.5" font-family="Ubuntu Mono" font-size="10.00">+</text>
<text text-anchor="start" x="532" y="-659.5" font-family="Ubuntu Mono" font-size="10.00">nColumns()</text>
<text text-anchor="start" x="532" y="-644.5" font-family="Ubuntu Mono" font-size="10.00">and 15 more...</text>
<polygon fill="#666666" stroke="#666666" points="509,-849.5 509,-849.5 613,-849.5 613,-849.5 509,-849.5"/>
<polygon fill="#666666" stroke="#666666" points="509,-804.5 509,-804.5 530,-804.5 530,-804.5 509,-804.5"/>
<polygon fill="#666666" stroke="#666666" points="530,-804.5 530,-804.5 613,-804.5 613,-804.5 530,-804.5"/>
<polygon fill="none" stroke="#666666" points="509,-638 509,-867 613,-867 613,-638 509,-638"/>
</a>
</g>
</g>
<!-- Node8&#45;&gt;Node9 -->
<g id="edge11_Node000009_Node000008" class="edge">
<title>Node8&#45;&gt;Node9</title>
<g id="a_edge11_Node000009_Node000008"><a xlink:title=" ">
<path fill="none" stroke="#63b8ff" d="M467.85,-924.85C477.36,-907.34 490.12,-883.88 503.13,-859.95"/>
<polygon fill="none" stroke="#63b8ff" points="503.18,-859.86 502.53,-852.67 508.91,-849.31 509.56,-856.49 503.18,-859.86"/>
</a>
</g>
<text text-anchor="middle" x="516" y="-899" font-family="Ubuntu Mono" font-size="10.00" fill="grey"> #colIndex_</text>
<text text-anchor="middle" x="516" y="-888" font-family="Ubuntu Mono" font-size="10.00" fill="grey">#rowStart_</text>
</g>
<!-- Node9&#45;&gt;Node4 -->
<g id="edge10_Node000004_Node000009" class="edge">
<title>Node9&#45;&gt;Node4</title>
<g id="a_edge10_Node000004_Node000009"><a xlink:title=" ">
<path fill="none" stroke="orange" d="M524.32,-627.92C517.74,-605.75 510.93,-582.81 504.51,-561.18"/>
<polygon fill="orange" stroke="orange" points="521.03,-629.12 527.23,-637.71 527.74,-627.13 521.03,-629.12"/>
</a>
</g>
<text text-anchor="middle" x="548.5" y="-612" font-family="Ubuntu Mono" font-size="10.00" fill="grey"> &lt; double &gt;</text>
</g>
</g>
</svg>
