<?xml version="1.0" encoding="UTF-8" standalone="no"?>
<!DOCTYPE svg PUBLIC "-//W3C//DTD SVG 1.1//EN"
 "http://www.w3.org/Graphics/SVG/1.1/DTD/svg11.dtd">
<!-- Generated by graphviz version 2.43.0 (0)
 -->
<!-- Title: Dsolve::calcOtherJnChan Pages: 1 -->
<svg width="282pt" height="101pt"
 viewBox="0.00 0.00 282.00 101.00" xmlns="http://www.w3.org/2000/svg" xmlns:xlink="http://www.w3.org/1999/xlink">

<svg id="main" version="1.1" xmlns="http://www.w3.org/2000/svg" xmlns:xlink="http://www.w3.org/1999/xlink" xml:space="preserve" onload="init(evt)">
<style type="text/css"><![CDATA[
.node, .edge {opacity: 0.7;}
.node.selected, .edge.selected {opacity: 1;}
.edge:hover path { stroke: red; }
.edge:hover polygon { stroke: red; fill: red; }
]]></style>
<script type="application/ecmascript" xlink:href="svg.min.js"/>
<svg id="graph" class="graph">
<g id="graph0" class="graph" transform="scale(1 1) rotate(0) translate(4 97)">
<title>Dsolve::calcOtherJnChan</title>
<!-- Node1 -->
<g id="Node000001" class="node">
<title>Node1</title>
<g id="a_Node000001"><a xlink:title=" ">
<polygon fill="#999999" stroke="#666666" points="137,-56 0,-56 0,-37 137,-37 137,-56"/>
<text text-anchor="middle" x="68.5" y="-44" font-family="Ubuntu Mono" font-size="10.00">Dsolve::calcOtherJnChan</text>
</a>
</g>
</g>
<!-- Node2 -->
<g id="Node000002" class="node">
<title>Node2</title>
<g id="a_Node000002"><a xlink:href="classDiffPoolVec.html#adff89de588238c0796720423f85312ac" target="_top" xlink:title=" ">
<polygon fill="white" stroke="#666666" points="274,-93 173,-93 173,-74 274,-74 274,-93"/>
<text text-anchor="middle" x="223.5" y="-81" font-family="Ubuntu Mono" font-size="10.00">DiffPoolVec::getN</text>
</a>
</g>
</g>
<!-- Node1&#45;&gt;Node2 -->
<g id="edge1_Node000001_Node000002" class="edge">
<title>Node1&#45;&gt;Node2</title>
<g id="a_edge1_Node000001_Node000002"><a xlink:title=" ">
<path fill="none" stroke="#63b8ff" d="M108.9,-56.03C128.46,-60.76 152.28,-66.52 173.05,-71.54"/>
<polygon fill="#63b8ff" stroke="#63b8ff" points="172.42,-74.99 182.97,-73.94 174.07,-68.19 172.42,-74.99"/>
</a>
</g>
</g>
<!-- Node3 -->
<g id="Node000003" class="node">
<title>Node3</title>
<g id="a_Node000003"><a xlink:href="Dsolve_8cpp.html#a6d4604496e6d004f9e5f51fd96c6acf9" target="_top" xlink:title=" ">
<polygon fill="white" stroke="#666666" points="244,-56 203,-56 203,-37 244,-37 244,-56"/>
<text text-anchor="middle" x="223.5" y="-44" font-family="Ubuntu Mono" font-size="10.00">integ</text>
</a>
</g>
</g>
<!-- Node1&#45;&gt;Node3 -->
<g id="edge2_Node000001_Node000003" class="edge">
<title>Node1&#45;&gt;Node3</title>
<g id="a_edge2_Node000001_Node000003"><a xlink:title=" ">
<path fill="none" stroke="#63b8ff" d="M137.05,-46.5C156.44,-46.5 176.6,-46.5 192.46,-46.5"/>
<polygon fill="#63b8ff" stroke="#63b8ff" points="192.7,-50 202.7,-46.5 192.7,-43 192.7,-50"/>
</a>
</g>
</g>
<!-- Node4 -->
<g id="Node000004" class="node">
<title>Node4</title>
<g id="a_Node000004"><a xlink:href="classDiffPoolVec.html#a2c1afbd06c6d141bbe43060341730534" target="_top" xlink:title=" ">
<polygon fill="white" stroke="#666666" points="274,-19 173,-19 173,0 274,0 274,-19"/>
<text text-anchor="middle" x="223.5" y="-7" font-family="Ubuntu Mono" font-size="10.00">DiffPoolVec::setN</text>
</a>
</g>
</g>
<!-- Node1&#45;&gt;Node4 -->
<g id="edge3_Node000001_Node000004" class="edge">
<title>Node1&#45;&gt;Node4</title>
<g id="a_edge3_Node000001_Node000004"><a xlink:title=" ">
<path fill="none" stroke="#63b8ff" d="M108.9,-36.97C128.46,-32.24 152.28,-26.48 173.05,-21.46"/>
<polygon fill="#63b8ff" stroke="#63b8ff" points="174.07,-24.81 182.97,-19.06 172.42,-18.01 174.07,-24.81"/>
</a>
</g>
</g>
</g>
</svg>
</svg>

<style type='text/css'>
<![CDATA[
[data-mouse-over-selected='false'] { opacity: 0.7; }
[data-mouse-over-selected='true']  { opacity: 1.0; }
]]>
</style>
<script type="application/ecmascript"><![CDATA[
document.addEventListener('DOMContentLoaded', (event) => {
  highlightEdges();
  highlightAdjacentNodes();
});
]]></script>
</svg>
