<?xml version="1.0" encoding="UTF-8" standalone="no"?>
<!DOCTYPE svg PUBLIC "-//W3C//DTD SVG 1.1//EN"
 "http://www.w3.org/Graphics/SVG/1.1/DTD/svg11.dtd">
<!-- Generated by graphviz version 2.43.0 (0)
 -->
<!-- Title: DinfoBase::allocData Pages: 1 -->
<!--zoomable 958 -->

<svg id="main" version="1.1" xmlns="http://www.w3.org/2000/svg" xmlns:xlink="http://www.w3.org/1999/xlink" xml:space="preserve" onload="init(evt)">
<style type="text/css"><![CDATA[
.node, .edge {opacity: 0.7;}
.node.selected, .edge.selected {opacity: 1;}
.edge:hover path { stroke: red; }
.edge:hover polygon { stroke: red; fill: red; }
]]></style>

<defs>
  <circle id="rim" cx="0" cy="0" r="7"/>
  <circle id="rim2" cx="0" cy="0" r="3.5"/>
  <g id="zoomPlus">
    <use xlink:href="#rim" fill="#404040"><set attributeName="fill" to="#808080" begin="zoomplus.mouseover" end="zoomplus.mouseout"/></use>
    <path d="M-4,0h8M0,-4v8" fill="none" stroke="white" stroke-width="1.5" pointer-events="none"/>
  </g>
  <g id="zoomMin">
    <use xlink:href="#rim" fill="#404040"><set attributeName="fill" to="#808080" begin="zoomminus.mouseover" end="zoomminus.mouseout"/></use>
    <path d="M-4,0h8" fill="none" stroke="white" stroke-width="1.5" pointer-events="none"/>
  </g>
  <g id="arrowUp" transform="translate(30 24)">
    <use xlink:href="#rim"/>
    <path pointer-events="none" fill="none" stroke="white" stroke-width="1.5" d="M0,-3.0v7 M-2.5,-0.5L0,-3.0L2.5,-0.5"/>
  </g>
  <g id="arrowRight" transform="rotate(90) translate(36 -43)">
    <use xlink:href="#rim"/>
    <path pointer-events="none" fill="none" stroke="white" stroke-width="1.5" d="M0,-3.0v7 M-2.5,-0.5L0,-3.0L2.5,-0.5"/>
  </g>
  <g id="arrowDown" transform="rotate(180) translate(-30 -48)">
    <use xlink:href="#rim"/>
    <path pointer-events="none" fill="none" stroke="white" stroke-width="1.5" d="M0,-3.0v7 M-2.5,-0.5L0,-3.0L2.5,-0.5"/>
  </g>
  <g id="arrowLeft" transform="rotate(270) translate(-36 17)">
    <use xlink:href="#rim"/>
    <path pointer-events="none" fill="none" stroke="white" stroke-width="1.5" d="M0,-3.0v7 M-2.5,-0.5L0,-3.0L2.5,-0.5"/>
  </g>
  <g id="resetDef">
    <use xlink:href="#rim2" fill="#404040"><set attributeName="fill" to="#808080" begin="reset.mouseover" end="reset.mouseout"/></use>
  </g>
</defs>
<script type="application/ecmascript">
var viewWidth = 1189;
var viewHeight = 958;
var sectionId = 'dynsection-2';
</script>
<script type="application/ecmascript" xlink:href="svg.min.js"/>
<svg id="graph" class="graph">
<g id="viewport">
<title>DinfoBase::allocData</title>
<!-- Node1 -->
<g id="Node000001" class="node">
<title>Node1</title>
<g id="a_Node000001"><a xlink:title=" ">
<polygon fill="#999999" stroke="#666666" points="1181,-678 1062,-678 1062,-659 1181,-659 1181,-678"/>
<text text-anchor="middle" x="1121.5" y="-666" font-family="Ubuntu Mono" font-size="10.00">DinfoBase::allocData</text>
</a>
</g>
</g>
<!-- Node2 -->
<g id="Node000002" class="node">
<title>Node2</title>
<g id="a_Node000002"><a xlink:href="classDataElement.html#a3ad941ae390cd501ec9a755d62ce7557" target="_top" xlink:title=" ">
<polygon fill="white" stroke="#666666" points="1026,-697 876,-697 876,-678 1026,-678 1026,-697"/>
<text text-anchor="middle" x="951" y="-685" font-family="Ubuntu Mono" font-size="10.00">DataElement::DataElement</text>
</a>
</g>
</g>
<!-- Node1&#45;&gt;Node2 -->
<g id="edge1_Node000001_Node000002" class="edge">
<title>Node1&#45;&gt;Node2</title>
<g id="a_edge1_Node000001_Node000002"><a xlink:title=" ">
<path fill="none" stroke="#63b8ff" d="M1051.46,-676.29C1043.07,-677.23 1034.47,-678.2 1026.01,-679.15"/>
<polygon fill="#63b8ff" stroke="#63b8ff" points="1052.02,-679.74 1061.57,-675.15 1051.24,-672.79 1052.02,-679.74"/>
</a>
</g>
</g>
<!-- Node42 -->
<g id="Node000042" class="node">
<title>Node42</title>
<g id="a_Node000042"><a xlink:href="classDataElement.html#a7c7851377bcf11ce85ec2b6bdd0d3adb" target="_top" xlink:title="Virtual func.">
<polygon fill="white" stroke="#666666" points="1025.5,-660 876.5,-660 876.5,-641 1025.5,-641 1025.5,-660"/>
<text text-anchor="middle" x="951" y="-648" font-family="Ubuntu Mono" font-size="10.00">DataElement::zombieSwap</text>
</a>
</g>
</g>
<!-- Node1&#45;&gt;Node42 -->
<g id="edge48_Node000001_Node000042" class="edge">
<title>Node1&#45;&gt;Node42</title>
<g id="a_edge48_Node000001_Node000042"><a xlink:title=" ">
<path fill="none" stroke="#63b8ff" d="M1051.37,-661.12C1042.91,-660.21 1034.24,-659.29 1025.72,-658.37"/>
<polygon fill="#63b8ff" stroke="#63b8ff" points="1051.25,-664.62 1061.57,-662.2 1052,-657.66 1051.25,-664.62"/>
</a>
</g>
</g>
<!-- Node3 -->
<g id="Node000003" class="node">
<title>Node3</title>
<g id="a_Node000003"><a xlink:href="classGlobalDataElement.html#ae0984684c6e1a9523bce6368befc570e" target="_top" xlink:title=" ">
<polygon fill="white" stroke="#666666" points="818.5,-487.5 700.5,-487.5 700.5,-457.5 818.5,-457.5 818.5,-487.5"/>
<text text-anchor="start" x="708.5" y="-475.5" font-family="Ubuntu Mono" font-size="10.00">GlobalDataElement::</text>
<text text-anchor="middle" x="759.5" y="-464.5" font-family="Ubuntu Mono" font-size="10.00">GlobalDataElement</text>
</a>
</g>
</g>
<!-- Node2&#45;&gt;Node3 -->
<g id="edge2_Node000002_Node000003" class="edge">
<title>Node2&#45;&gt;Node3</title>
<g id="a_edge2_Node000002_Node000003"><a xlink:title=" ">
<path fill="none" stroke="#63b8ff" d="M881.81,-673.33C879.8,-672.15 877.85,-670.88 876,-669.5 811.11,-621.23 776.29,-524.79 764.83,-487.61"/>
<polygon fill="#63b8ff" stroke="#63b8ff" points="880.52,-676.6 891.04,-677.9 883.63,-670.32 880.52,-676.6"/>
</a>
</g>
</g>
<!-- Node40 -->
<g id="Node000040" class="node">
<title>Node40</title>
<g id="a_Node000040"><a xlink:href="classLocalDataElement.html#aca94feb65168d07988f034228d6efb0b" target="_top" xlink:title=" ">
<polygon fill="white" stroke="#666666" points="840,-918.5 679,-918.5 679,-888.5 840,-888.5 840,-918.5"/>
<text text-anchor="start" x="687" y="-906.5" font-family="Ubuntu Mono" font-size="10.00">LocalDataElement::LocalData</text>
<text text-anchor="middle" x="759.5" y="-895.5" font-family="Ubuntu Mono" font-size="10.00">Element</text>
</a>
</g>
</g>
<!-- Node2&#45;&gt;Node40 -->
<g id="edge45_Node000002_Node000040" class="edge">
<title>Node2&#45;&gt;Node40</title>
<g id="a_edge45_Node000002_Node000040"><a xlink:title=" ">
<path fill="none" stroke="#63b8ff" d="M934.98,-704.62C898.95,-745.69 808.03,-849.32 773.81,-888.33"/>
<polygon fill="#63b8ff" stroke="#63b8ff" points="937.65,-706.89 941.61,-697.06 932.39,-702.27 937.65,-706.89"/>
</a>
</g>
</g>
<!-- Node4 -->
<g id="Node000004" class="node">
<title>Node4</title>
<g id="a_Node000004"><a xlink:href="Cinfo_8cpp.html#a25b781c96b2ec955ad279a65bde0960e" target="_top" xlink:title=" ">
<polygon fill="white" stroke="#666666" points="634.5,-613 529.5,-613 529.5,-594 634.5,-594 634.5,-613"/>
<text text-anchor="middle" x="582" y="-601" font-family="Ubuntu Mono" font-size="10.00">buildFinfoElement</text>
</a>
</g>
</g>
<!-- Node3&#45;&gt;Node4 -->
<g id="edge3_Node000003_Node000004" class="edge">
<title>Node3&#45;&gt;Node4</title>
<g id="a_edge3_Node000003_Node000004"><a xlink:title=" ">
<path fill="none" stroke="#63b8ff" d="M738.6,-495.34C717.01,-518.99 680.57,-555.74 643,-579.5 633.8,-585.32 622.96,-590.17 613.04,-593.96"/>
<polygon fill="#63b8ff" stroke="#63b8ff" points="741.25,-497.64 745.34,-487.86 736.04,-492.95 741.25,-497.64"/>
</a>
</g>
</g>
<!-- Node5 -->
<g id="Node000005" class="node">
<title>Node5</title>
<g id="a_Node000005"><a xlink:href="classCinfo.html#a5735ded022b359ea9253b98acdb63eed" target="_top" xlink:title=" ">
<polygon fill="white" stroke="#666666" points="485,-651 339,-651 339,-632 485,-632 485,-651"/>
<text text-anchor="middle" x="412" y="-639" font-family="Ubuntu Mono" font-size="10.00">Cinfo::makeCinfoElements</text>
</a>
</g>
</g>
<!-- Node3&#45;&gt;Node5 -->
<g id="edge22_Node000003_Node000005" class="edge">
<title>Node3&#45;&gt;Node5</title>
<g id="a_edge22_Node000003_Node000005"><a xlink:title=" ">
<path fill="none" stroke="#63b8ff" d="M747.55,-497.24C730.67,-532.03 694.76,-594.32 643,-622.5 594.97,-648.65 532.76,-652.31 485.16,-650.04"/>
<polygon fill="#63b8ff" stroke="#63b8ff" points="750.9,-498.34 751.98,-487.8 744.56,-495.36 750.9,-498.34"/>
</a>
</g>
</g>
<!-- Node6 -->
<g id="Node000006" class="node">
<title>Node6</title>
<g id="a_Node000006"><a xlink:href="main_8cpp.html#a6e304b494f9a324f952d9f2033b2b136" target="_top" xlink:title=" ">
<polygon fill="white" stroke="#666666" points="134.5,-708 102.5,-708 102.5,-689 134.5,-689 134.5,-708"/>
<text text-anchor="middle" x="118.5" y="-696" font-family="Ubuntu Mono" font-size="10.00">init</text>
</a>
</g>
</g>
<!-- Node3&#45;&gt;Node6 -->
<g id="edge9_Node000003_Node000006" class="edge">
<title>Node3&#45;&gt;Node6</title>
<g id="a_edge9_Node000003_Node000006"><a xlink:title=" ">
<path fill="none" stroke="#63b8ff" d="M754.33,-497.76C744.74,-546.76 716.03,-653.81 643,-698.5 555.01,-752.34 211.45,-710.7 134.74,-700.57"/>
<polygon fill="#63b8ff" stroke="#63b8ff" points="757.82,-498.16 756.19,-487.7 750.93,-496.89 757.82,-498.16"/>
</a>
</g>
</g>
<!-- Node10 -->
<g id="Node000010" class="node">
<title>Node10</title>
<g id="a_Node000010"><a xlink:href="classMsg.html#af3de05897dc7602c64678a31c58ebece" target="_top" xlink:title=" ">
<polygon fill="white" stroke="#666666" points="475.5,-613 348.5,-613 348.5,-594 475.5,-594 475.5,-613"/>
<text text-anchor="middle" x="412" y="-601" font-family="Ubuntu Mono" font-size="10.00">Msg::initMsgManagers</text>
</a>
</g>
</g>
<!-- Node3&#45;&gt;Node10 -->
<g id="edge10_Node000003_Node000010" class="edge">
<title>Node3&#45;&gt;Node10</title>
<g id="a_edge10_Node000003_Node000010"><a xlink:title=" ">
<path fill="none" stroke="#63b8ff" d="M731.09,-493.73C708.56,-510.26 675.2,-532.64 643,-546.5 588.21,-570.08 521.7,-585.23 474.32,-593.94"/>
<polygon fill="#63b8ff" stroke="#63b8ff" points="733.24,-496.49 739.18,-487.71 729.06,-490.88 733.24,-496.49"/>
</a>
</g>
</g>
<!-- Node11 -->
<g id="Node000011" class="node">
<title>Node11</title>
<g id="a_Node000011"><a xlink:href="classShell.html#ab970c2c6e17af730804e810b4431107c" target="_top" xlink:title=" ">
<polygon fill="white" stroke="#666666" points="634,-913 530,-913 530,-894 634,-894 634,-913"/>
<text text-anchor="middle" x="582" y="-901" font-family="Ubuntu Mono" font-size="10.00">Shell::innerCreate</text>
</a>
</g>
</g>
<!-- Node3&#45;&gt;Node11 -->
<g id="edge13_Node000003_Node000011" class="edge">
<title>Node3&#45;&gt;Node11</title>
<g id="a_edge13_Node000003_Node000011"><a xlink:title=" ">
<path fill="none" stroke="#63b8ff" d="M759.27,-498.1C759.99,-569.79 751.9,-774.53 643,-885.5 639.65,-888.92 635.68,-891.69 631.4,-893.94"/>
<polygon fill="#63b8ff" stroke="#63b8ff" points="762.77,-497.71 759.1,-487.77 755.77,-497.83 762.77,-497.71"/>
</a>
</g>
</g>
<!-- Node18 -->
<g id="Node000018" class="node">
<title>Node18</title>
<g id="a_Node000018"><a xlink:href="testAsync_8cpp.html#acbff4808242142581c8898a51ee8f6de" target="_top" xlink:title=" ">
<polygon fill="white" stroke="#666666" points="617.5,-500 546.5,-500 546.5,-481 617.5,-481 617.5,-500"/>
<text text-anchor="middle" x="582" y="-488" font-family="Ubuntu Mono" font-size="10.00">showFields</text>
</a>
</g>
</g>
<!-- Node3&#45;&gt;Node18 -->
<g id="edge23_Node000003_Node000018" class="edge">
<title>Node3&#45;&gt;Node18</title>
<g id="a_edge23_Node000003_Node000018"><a xlink:title=" ">
<path fill="none" stroke="#63b8ff" d="M689.97,-479.53C665.2,-482.07 638.29,-484.83 617.66,-486.95"/>
<polygon fill="#63b8ff" stroke="#63b8ff" points="690.47,-483 700.06,-478.49 689.76,-476.03 690.47,-483"/>
</a>
</g>
</g>
<!-- Node20 -->
<g id="Node000020" class="node">
<title>Node20</title>
<g id="a_Node000020"><a xlink:href="testAsync_8cpp.html#a02bfd9535ad935ed1e0c5e5004b31c12" target="_top" xlink:title=" ">
<polygon fill="white" stroke="#666666" points="627.5,-463 536.5,-463 536.5,-444 627.5,-444 627.5,-463"/>
<text text-anchor="middle" x="582" y="-451" font-family="Ubuntu Mono" font-size="10.00">test2ArgSetVec</text>
</a>
</g>
</g>
<!-- Node3&#45;&gt;Node20 -->
<g id="edge25_Node000003_Node000020" class="edge">
<title>Node3&#45;&gt;Node20</title>
<g id="a_edge25_Node000003_Node000020"><a xlink:title=" ">
<path fill="none" stroke="#63b8ff" d="M689.92,-465.08C668.98,-462.81 646.5,-460.37 627.58,-458.33"/>
<polygon fill="#63b8ff" stroke="#63b8ff" points="689.74,-468.58 700.06,-466.17 690.5,-461.62 689.74,-468.58"/>
</a>
</g>
</g>
<!-- Node21 -->
<g id="Node000021" class="node">
<title>Node21</title>
<g id="a_Node000021"><a xlink:href="testBuiltins_8cpp.html#ab1428045390d120d14e78c3551f2e906" target="_top" xlink:title=" ">
<polygon fill="white" stroke="#666666" points="611.5,-426 552.5,-426 552.5,-407 611.5,-407 611.5,-426"/>
<text text-anchor="middle" x="582" y="-414" font-family="Ubuntu Mono" font-size="10.00">testArith</text>
</a>
</g>
</g>
<!-- Node3&#45;&gt;Node21 -->
<g id="edge26_Node000003_Node000021" class="edge">
<title>Node3&#45;&gt;Node21</title>
<g id="a_edge26_Node000003_Node000021"><a xlink:title=" ">
<path fill="none" stroke="#63b8ff" d="M704.09,-454.27C684.83,-447.91 662.98,-440.78 643,-434.5 632.83,-431.3 621.66,-427.92 611.74,-424.95"/>
<polygon fill="#63b8ff" stroke="#63b8ff" points="703.02,-457.6 713.61,-457.43 705.22,-450.96 703.02,-457.6"/>
</a>
</g>
</g>
<!-- Node23 -->
<g id="Node000023" class="node">
<title>Node23</title>
<g id="a_Node000023"><a xlink:href="testAsync_8cpp.html#a12781c290bf52156517375db5eaab110" target="_top" xlink:title=" ">
<polygon fill="white" stroke="#666666" points="626,-389 538,-389 538,-370 626,-370 626,-389"/>
<text text-anchor="middle" x="582" y="-377" font-family="Ubuntu Mono" font-size="10.00">testCreateMsg</text>
</a>
</g>
</g>
<!-- Node3&#45;&gt;Node23 -->
<g id="edge28_Node000003_Node000023" class="edge">
<title>Node3&#45;&gt;Node23</title>
<g id="a_edge28_Node000003_Node000023"><a xlink:title=" ">
<path fill="none" stroke="#63b8ff" d="M730.95,-451.39C708.33,-434.87 674.93,-412.29 643,-397.5 635.99,-394.26 628.26,-391.43 620.74,-389.03"/>
<polygon fill="#63b8ff" stroke="#63b8ff" points="728.94,-454.26 739.06,-457.39 733.11,-448.63 728.94,-454.26"/>
</a>
</g>
</g>
<!-- Node24 -->
<g id="Node000024" class="node">
<title>Node24</title>
<g id="a_Node000024"><a xlink:href="testAsync_8cpp.html#ae34f7c6c5570c6e570b2b69d74fba402" target="_top" xlink:title=" ">
<polygon fill="white" stroke="#666666" points="608.5,-352 555.5,-352 555.5,-333 608.5,-333 608.5,-352"/>
<text text-anchor="middle" x="582" y="-340" font-family="Ubuntu Mono" font-size="10.00">testGet</text>
</a>
</g>
</g>
<!-- Node3&#45;&gt;Node24 -->
<g id="edge29_Node000003_Node000024" class="edge">
<title>Node3&#45;&gt;Node24</title>
<g id="a_edge29_Node000003_Node000024"><a xlink:title=" ">
<path fill="none" stroke="#63b8ff" d="M740.62,-449.5C719.77,-424.2 683.04,-384 643,-360.5 632.5,-354.33 619.7,-350.12 608.62,-347.33"/>
<polygon fill="#63b8ff" stroke="#63b8ff" points="738.05,-451.89 747.06,-457.47 743.49,-447.49 738.05,-451.89"/>
</a>
</g>
</g>
<!-- Node25 -->
<g id="Node000025" class="node">
<title>Node25</title>
<g id="a_Node000025"><a xlink:href="testAsync_8cpp.html#acacf1d75459344c62faa215a53ea68b5" target="_top" xlink:title=" ">
<polygon fill="white" stroke="#666666" points="633.5,-315 530.5,-315 530.5,-296 633.5,-296 633.5,-315"/>
<text text-anchor="middle" x="582" y="-303" font-family="Ubuntu Mono" font-size="10.00">testLookupSetGet</text>
</a>
</g>
</g>
<!-- Node3&#45;&gt;Node25 -->
<g id="edge30_Node000003_Node000025" class="edge">
<title>Node3&#45;&gt;Node25</title>
<g id="a_edge30_Node000003_Node000025"><a xlink:title=" ">
<path fill="none" stroke="#63b8ff" d="M746.09,-448.32C727.9,-415.28 690.9,-356.37 643,-323.5 638.07,-320.12 632.49,-317.35 626.76,-315.11"/>
<polygon fill="#63b8ff" stroke="#63b8ff" points="743.1,-450.15 750.92,-457.3 749.26,-446.84 743.1,-450.15"/>
</a>
</g>
</g>
<!-- Node26 -->
<g id="Node000026" class="node">
<title>Node26</title>
<g id="a_Node000026"><a xlink:href="testAsync_8cpp.html#ac44591c7444604ba199b0f3c410410d9" target="_top" xlink:title=" ">
<polygon fill="white" stroke="#666666" points="621.5,-278 542.5,-278 542.5,-259 621.5,-259 621.5,-278"/>
<text text-anchor="middle" x="582" y="-266" font-family="Ubuntu Mono" font-size="10.00">testMsgField</text>
</a>
</g>
</g>
<!-- Node3&#45;&gt;Node26 -->
<g id="edge31_Node000003_Node000026" class="edge">
<title>Node3&#45;&gt;Node26</title>
<g id="a_edge31_Node000003_Node000026"><a xlink:title=" ">
<path fill="none" stroke="#63b8ff" d="M749.87,-447.91C734.61,-408.04 699.09,-329.43 643,-286.5 636.78,-281.74 629.32,-278.23 621.79,-275.65"/>
<polygon fill="#63b8ff" stroke="#63b8ff" points="746.63,-449.24 753.39,-457.39 753.19,-446.8 746.63,-449.24"/>
</a>
</g>
</g>
<!-- Node27 -->
<g id="Node000027" class="node">
<title>Node27</title>
<g id="a_Node000027"><a xlink:href="testAsync_8cpp.html#aedd009166fe036ab749af39395261a98" target="_top" xlink:title=" ">
<polygon fill="white" stroke="#666666" points="643,-241 521,-241 521,-222 643,-222 643,-241"/>
<text text-anchor="middle" x="582" y="-229" font-family="Ubuntu Mono" font-size="10.00">testMsgSrcDestFields</text>
</a>
</g>
</g>
<!-- Node3&#45;&gt;Node27 -->
<g id="edge32_Node000003_Node000027" class="edge">
<title>Node3&#45;&gt;Node27</title>
<g id="a_edge32_Node000003_Node000027"><a xlink:title=" ">
<path fill="none" stroke="#63b8ff" d="M752.54,-447.7C740.21,-401.69 707.46,-302.94 643,-249.5 638.9,-246.1 634.17,-243.34 629.2,-241.1"/>
<polygon fill="#63b8ff" stroke="#63b8ff" points="749.17,-448.64 755.06,-457.45 755.95,-446.89 749.17,-448.64"/>
</a>
</g>
</g>
<!-- Node28 -->
<g id="Node000028" class="node">
<title>Node28</title>
<g id="a_Node000028"><a xlink:href="testAsync_8cpp.html#adeff2e00c34ac98a6804d92045d9bc14" target="_top" xlink:title=" ">
<polygon fill="white" stroke="#666666" points="622,-204 542,-204 542,-185 622,-185 622,-204"/>
<text text-anchor="middle" x="582" y="-192" font-family="Ubuntu Mono" font-size="10.00">testSendMsg</text>
</a>
</g>
</g>
<!-- Node3&#45;&gt;Node28 -->
<g id="edge33_Node000003_Node000028" class="edge">
<title>Node3&#45;&gt;Node28</title>
<g id="a_edge33_Node000003_Node000028"><a xlink:title=" ">
<path fill="none" stroke="#63b8ff" d="M754.49,-447.31C744.91,-395.53 715.84,-276.66 643,-212.5 637.04,-207.25 629.6,-203.53 622.01,-200.9"/>
<polygon fill="#63b8ff" stroke="#63b8ff" points="751.07,-448.05 756.25,-457.29 757.96,-446.84 751.07,-448.05"/>
</a>
</g>
</g>
<!-- Node29 -->
<g id="Node000029" class="node">
<title>Node29</title>
<g id="a_Node000029"><a xlink:href="testAsync_8cpp.html#af909cc929cd17f4ce42b63e4a462120d" target="_top" xlink:title=" ">
<polygon fill="white" stroke="#666666" points="625,-167 539,-167 539,-148 625,-148 625,-167"/>
<text text-anchor="middle" x="582" y="-155" font-family="Ubuntu Mono" font-size="10.00">testSendSpike</text>
</a>
</g>
</g>
<!-- Node3&#45;&gt;Node29 -->
<g id="edge34_Node000003_Node000029" class="edge">
<title>Node3&#45;&gt;Node29</title>
<g id="a_edge34_Node000003_Node000029"><a xlink:title=" ">
<path fill="none" stroke="#63b8ff" d="M756.07,-447.35C749.2,-390.42 724.52,-250.79 643,-175.5 637.97,-170.85 631.78,-167.4 625.3,-164.84"/>
<polygon fill="#63b8ff" stroke="#63b8ff" points="752.59,-447.74 757.18,-457.29 759.54,-446.96 752.59,-447.74"/>
</a>
</g>
</g>
<!-- Node30 -->
<g id="Node000030" class="node">
<title>Node30</title>
<g id="a_Node000030"><a xlink:href="testAsync_8cpp.html#a15622d9bbd8efd516be27a451d8d3242" target="_top" xlink:title=" ">
<polygon fill="white" stroke="#666666" points="616,-130 548,-130 548,-111 616,-111 616,-130"/>
<text text-anchor="middle" x="582" y="-118" font-family="Ubuntu Mono" font-size="10.00">testSetGet</text>
</a>
</g>
</g>
<!-- Node3&#45;&gt;Node30 -->
<g id="edge35_Node000003_Node000030" class="edge">
<title>Node3&#45;&gt;Node30</title>
<g id="a_edge35_Node000003_Node000030"><a xlink:title=" ">
<path fill="none" stroke="#63b8ff" d="M757.3,-447.27C752.99,-385.43 733.22,-225.05 643,-138.5 635.7,-131.5 625.79,-127.21 616.12,-124.58"/>
<polygon fill="#63b8ff" stroke="#63b8ff" points="753.81,-447.54 757.93,-457.31 760.8,-447.11 753.81,-447.54"/>
</a>
</g>
</g>
<!-- Node31 -->
<g id="Node000031" class="node">
<title>Node31</title>
<g id="a_Node000031"><a xlink:href="testAsync_8cpp.html#a4381556b7374a5cb6c4ae7c1e9843276" target="_top" xlink:title=" ">
<polygon fill="white" stroke="#666666" points="633.5,-93 530.5,-93 530.5,-74 633.5,-74 633.5,-93"/>
<text text-anchor="middle" x="582" y="-81" font-family="Ubuntu Mono" font-size="10.00">testSetGetDouble</text>
</a>
</g>
</g>
<!-- Node3&#45;&gt;Node31 -->
<g id="edge36_Node000003_Node000031" class="edge">
<title>Node3&#45;&gt;Node31</title>
<g id="a_edge36_Node000003_Node000031"><a xlink:title=" ">
<path fill="none" stroke="#63b8ff" d="M758.31,-446.83C756.38,-380.05 741.81,-199.29 643,-101.5 639.52,-98.06 635.41,-95.27 631,-93.01"/>
<polygon fill="#63b8ff" stroke="#63b8ff" points="754.82,-447.32 758.53,-457.24 761.82,-447.17 754.82,-447.32"/>
</a>
</g>
</g>
<!-- Node32 -->
<g id="Node000032" class="node">
<title>Node32</title>
<g id="a_Node000032"><a xlink:href="testAsync_8cpp.html#a53399e0be4d02cdf1a0b2b0e95762a1c" target="_top" xlink:title=" ">
<polygon fill="white" stroke="#666666" points="635.5,-56 528.5,-56 528.5,-37 635.5,-37 635.5,-56"/>
<text text-anchor="middle" x="582" y="-44" font-family="Ubuntu Mono" font-size="10.00">testSetGetExtField</text>
</a>
</g>
</g>
<!-- Node3&#45;&gt;Node32 -->
<g id="edge37_Node000003_Node000032" class="edge">
<title>Node3&#45;&gt;Node32</title>
<g id="a_edge37_Node000003_Node000032"><a xlink:title=" ">
<path fill="none" stroke="#63b8ff" d="M759.17,-447.2C759.6,-376.36 750.86,-174.05 643,-64.5 639.64,-61.09 635.67,-58.32 631.39,-56.07"/>
<polygon fill="#63b8ff" stroke="#63b8ff" points="755.66,-447.37 759.03,-457.41 762.66,-447.46 755.66,-447.37"/>
</a>
</g>
</g>
<!-- Node33 -->
<g id="Node000033" class="node">
<title>Node33</title>
<g id="a_Node000033"><a xlink:href="testAsync_8cpp.html#a7c50c5998d50f456e03096a1a90e883d" target="_top" xlink:title=" ">
<polygon fill="white" stroke="#666666" points="637,-19 527,-19 527,0 637,0 637,-19"/>
<text text-anchor="middle" x="582" y="-7" font-family="Ubuntu Mono" font-size="10.00">testSetGetSynapse</text>
</a>
</g>
</g>
<!-- Node3&#45;&gt;Node33 -->
<g id="edge38_Node000003_Node000033" class="edge">
<title>Node3&#45;&gt;Node33</title>
<g id="a_edge38_Node000003_Node000033"><a xlink:title=" ">
<path fill="none" stroke="#63b8ff" d="M755.23,-447.32C743.74,-362.57 702.68,-89.46 643,-27.5 639.76,-24.13 635.91,-21.39 631.75,-19.15"/>
<polygon fill="#63b8ff" stroke="#63b8ff" points="751.78,-447.9 756.57,-457.35 758.71,-446.97 751.78,-447.9"/>
</a>
</g>
</g>
<!-- Node34 -->
<g id="Node000034" class="node">
<title>Node34</title>
<g id="a_Node000034"><a xlink:href="testAsync_8cpp.html#a09259c385754d710703c99ebca386929" target="_top" xlink:title=" ">
<polygon fill="white" stroke="#666666" points="625,-876 539,-876 539,-857 625,-857 625,-876"/>
<text text-anchor="middle" x="582" y="-864" font-family="Ubuntu Mono" font-size="10.00">testSetGetVec</text>
</a>
</g>
</g>
<!-- Node3&#45;&gt;Node34 -->
<g id="edge39_Node000003_Node000034" class="edge">
<title>Node3&#45;&gt;Node34</title>
<g id="a_edge39_Node000003_Node000034"><a xlink:title=" ">
<path fill="none" stroke="#63b8ff" d="M758.45,-497.62C756.9,-564.56 743.27,-748.89 643,-848.5 638.06,-853.41 631.84,-856.98 625.29,-859.59"/>
<polygon fill="#63b8ff" stroke="#63b8ff" points="761.95,-497.63 758.61,-487.57 754.95,-497.51 761.95,-497.63"/>
</a>
</g>
</g>
<!-- Node35 -->
<g id="Node000035" class="node">
<title>Node35</title>
<g id="a_Node000035"><a xlink:href="testAsync_8cpp.html#a102fc63d5ad1b5eb0c8788f0f1d04fed" target="_top" xlink:title=" ">
<polygon fill="white" stroke="#666666" points="625,-839 539,-839 539,-820 625,-820 625,-839"/>
<text text-anchor="middle" x="582" y="-827" font-family="Ubuntu Mono" font-size="10.00">testSetRepeat</text>
</a>
</g>
</g>
<!-- Node3&#45;&gt;Node35 -->
<g id="edge40_Node000003_Node000035" class="edge">
<title>Node3&#45;&gt;Node35</title>
<g id="a_edge40_Node000003_Node000035"><a xlink:title=" ">
<path fill="none" stroke="#63b8ff" d="M757.46,-497.67C753.49,-560.09 734.44,-723.38 643,-811.5 637.99,-816.33 631.73,-819.87 625.17,-822.46"/>
<polygon fill="#63b8ff" stroke="#63b8ff" points="760.96,-497.73 758.02,-487.55 753.97,-497.34 760.96,-497.73"/>
</a>
</g>
</g>
<!-- Node36 -->
<g id="Node000036" class="node">
<title>Node36</title>
<g id="a_Node000036"><a xlink:href="testAsync_8cpp.html#a7ed5b43f4ffea47885e28545cdc9a106" target="_top" xlink:title=" ">
<polygon fill="white" stroke="#666666" points="626.5,-802 537.5,-802 537.5,-783 626.5,-783 626.5,-802"/>
<text text-anchor="middle" x="582" y="-790" font-family="Ubuntu Mono" font-size="10.00">testSharedMsg</text>
</a>
</g>
</g>
<!-- Node3&#45;&gt;Node36 -->
<g id="edge41_Node000003_Node000036" class="edge">
<title>Node3&#45;&gt;Node36</title>
<g id="a_edge41_Node000003_Node000036"><a xlink:title=" ">
<path fill="none" stroke="#63b8ff" d="M756.25,-497.66C749.74,-555.27 725.69,-697.7 643,-774.5 638.3,-778.87 632.58,-782.18 626.56,-784.68"/>
<polygon fill="#63b8ff" stroke="#63b8ff" points="759.74,-497.93 757.3,-487.62 752.78,-497.2 759.74,-497.93"/>
</a>
</g>
</g>
<!-- Node37 -->
<g id="Node000037" class="node">
<title>Node37</title>
<g id="a_Node000037"><a xlink:href="testAsync_8cpp.html#a5c9622ce2d8da21ebf145351a41856d7" target="_top" xlink:title=" ">
<polygon fill="white" stroke="#666666" points="626.5,-765 537.5,-765 537.5,-746 626.5,-746 626.5,-765"/>
<text text-anchor="middle" x="582" y="-753" font-family="Ubuntu Mono" font-size="10.00">testSparseMsg</text>
</a>
</g>
</g>
<!-- Node3&#45;&gt;Node37 -->
<g id="edge42_Node000003_Node000037" class="edge">
<title>Node3&#45;&gt;Node37</title>
<g id="a_edge42_Node000003_Node000037"><a xlink:title=" ">
<path fill="none" stroke="#63b8ff" d="M753.91,-497.45C743.32,-548.26 712.57,-664.59 643,-731.5 636.53,-737.72 628.25,-742.4 619.91,-745.89"/>
<polygon fill="#63b8ff" stroke="#63b8ff" points="757.34,-498.13 755.87,-487.64 750.48,-496.76 757.34,-498.13"/>
</a>
</g>
</g>
<!-- Node38 -->
<g id="Node000038" class="node">
<title>Node38</title>
<g id="a_Node000038"><a xlink:href="testAsync_8cpp.html#af8b0efc90939c2247b1d6de7987d3c71" target="_top" xlink:title=" ">
<polygon fill="white" stroke="#666666" points="615,-689 549,-689 549,-670 615,-670 615,-689"/>
<text text-anchor="middle" x="582" y="-677" font-family="Ubuntu Mono" font-size="10.00">testStrGet</text>
</a>
</g>
</g>
<!-- Node3&#45;&gt;Node38 -->
<g id="edge43_Node000003_Node000038" class="edge">
<title>Node3&#45;&gt;Node38</title>
<g id="a_edge43_Node000003_Node000038"><a xlink:title=" ">
<path fill="none" stroke="#63b8ff" d="M748.97,-496.97C732.76,-535.67 696.28,-611.15 643,-655.5 634.98,-662.17 624.87,-667.17 615.24,-670.82"/>
<polygon fill="#63b8ff" stroke="#63b8ff" points="752.29,-498.1 752.83,-487.52 745.81,-495.45 752.29,-498.1"/>
</a>
</g>
</g>
<!-- Node39 -->
<g id="Node000039" class="node">
<title>Node39</title>
<g id="a_Node000039"><a xlink:href="testAsync_8cpp.html#adbb0b720827d0faa5b02e7abfa95ca9c" target="_top" xlink:title=" ">
<polygon fill="white" stroke="#666666" points="614.5,-537 549.5,-537 549.5,-518 614.5,-518 614.5,-537"/>
<text text-anchor="middle" x="582" y="-525" font-family="Ubuntu Mono" font-size="10.00">testStrSet</text>
</a>
</g>
</g>
<!-- Node3&#45;&gt;Node39 -->
<g id="edge44_Node000003_Node000039" class="edge">
<title>Node3&#45;&gt;Node39</title>
<g id="a_edge44_Node000003_Node000039"><a xlink:title=" ">
<path fill="none" stroke="#63b8ff" d="M702.55,-490.65C683.66,-496.72 662.44,-503.47 643,-509.5 633.86,-512.33 623.91,-515.35 614.79,-518.08"/>
<polygon fill="#63b8ff" stroke="#63b8ff" points="703.75,-493.94 712.2,-487.55 701.61,-487.28 703.75,-493.94"/>
</a>
</g>
</g>
<!-- Node4&#45;&gt;Node5 -->
<g id="edge4_Node000004_Node000005" class="edge">
<title>Node4&#45;&gt;Node5</title>
<g id="a_edge4_Node000004_Node000005"><a xlink:title=" ">
<path fill="none" stroke="#63b8ff" d="M528.72,-615.32C505.04,-620.68 477.41,-626.93 455.09,-631.98"/>
<polygon fill="#63b8ff" stroke="#63b8ff" points="529.63,-618.71 538.61,-613.09 528.08,-611.88 529.63,-618.71"/>
</a>
</g>
</g>
<!-- Node5&#45;&gt;Node6 -->
<g id="edge5_Node000005_Node000006" class="edge">
<title>Node5&#45;&gt;Node6</title>
<g id="a_edge5_Node000005_Node000006"><a xlink:title=" ">
<path fill="none" stroke="#63b8ff" d="M351.99,-653.04C283.44,-666.44 174.65,-687.72 134.79,-695.51"/>
<polygon fill="#63b8ff" stroke="#63b8ff" points="353.07,-656.39 362.21,-651.04 351.72,-649.52 353.07,-656.39"/>
</a>
</g>
</g>
<!-- Node8 -->
<g id="Node000008" class="node">
<title>Node8</title>
<g id="a_Node000008"><a xlink:href="namespacepymoose.html#ac084ce08f68367317e7c014c61520ac9" target="_top" xlink:title="Initialize shell object.">
<polygon fill="white" stroke="#666666" points="303,-651 196,-651 196,-632 303,-632 303,-651"/>
<text text-anchor="middle" x="249.5" y="-639" font-family="Ubuntu Mono" font-size="10.00">pymoose::initShell</text>
</a>
</g>
</g>
<!-- Node5&#45;&gt;Node8 -->
<g id="edge7_Node000005_Node000008" class="edge">
<title>Node5&#45;&gt;Node8</title>
<g id="a_edge7_Node000005_Node000008"><a xlink:title=" ">
<path fill="none" stroke="#63b8ff" d="M328.59,-641.5C319.94,-641.5 311.33,-641.5 303.15,-641.5"/>
<polygon fill="#63b8ff" stroke="#63b8ff" points="328.73,-645 338.73,-641.5 328.73,-638 328.73,-645"/>
</a>
</g>
</g>
<!-- Node7 -->
<g id="Node000007" class="node">
<title>Node7</title>
<g id="a_Node000007"><a xlink:href="main_8cpp.html#a3c04138a5bfe5d72780bb7e82a18e627" target="_top" xlink:title=" ">
<polygon fill="white" stroke="#666666" points="41,-708 0,-708 0,-689 41,-689 41,-708"/>
<text text-anchor="middle" x="20.5" y="-696" font-family="Ubuntu Mono" font-size="10.00">main</text>
</a>
</g>
</g>
<!-- Node6&#45;&gt;Node7 -->
<g id="edge6_Node000006_Node000007" class="edge">
<title>Node6&#45;&gt;Node7</title>
<g id="a_edge6_Node000006_Node000007"><a xlink:title=" ">
<path fill="none" stroke="#63b8ff" d="M91.86,-698.5C75.97,-698.5 55.86,-698.5 41.21,-698.5"/>
<polygon fill="#63b8ff" stroke="#63b8ff" points="92.08,-702 102.08,-698.5 92.08,-695 92.08,-702"/>
</a>
</g>
</g>
<!-- Node9 -->
<g id="Node000009" class="node">
<title>Node9</title>
<g id="a_Node000009"><a xlink:href="pymoose_8cpp.html#a8650e41c2375717fa66fb61a653d866e" target="_top" xlink:title=" ">
<polygon fill="white" stroke="#666666" points="158,-651 79,-651 79,-632 158,-632 158,-651"/>
<text text-anchor="middle" x="118.5" y="-639" font-family="Ubuntu Mono" font-size="10.00">NB_MODULE</text>
</a>
</g>
</g>
<!-- Node8&#45;&gt;Node9 -->
<g id="edge8_Node000008_Node000009" class="edge">
<title>Node8&#45;&gt;Node9</title>
<g id="a_edge8_Node000008_Node000009"><a xlink:title=" ">
<path fill="none" stroke="#63b8ff" d="M185.59,-641.5C176.25,-641.5 166.88,-641.5 158.24,-641.5"/>
<polygon fill="#63b8ff" stroke="#63b8ff" points="185.66,-645 195.66,-641.5 185.66,-638 185.66,-645"/>
</a>
</g>
</g>
<!-- Node10&#45;&gt;Node6 -->
<g id="edge11_Node000010_Node000006" class="edge">
<title>Node10&#45;&gt;Node6</title>
<g id="a_edge11_Node000010_Node000006"><a xlink:title=" ">
<path fill="none" stroke="#63b8ff" d="M338.05,-597.99C294.78,-597.65 239.99,-602.47 196,-623.5 175.3,-633.4 176.37,-644.42 160,-660.5 149.96,-670.36 138.2,-681.34 129.94,-688.94"/>
<polygon fill="#63b8ff" stroke="#63b8ff" points="338.16,-601.49 348.22,-598.17 338.28,-594.49 338.16,-601.49"/>
</a>
</g>
</g>
<!-- Node10&#45;&gt;Node8 -->
<g id="edge12_Node000010_Node000008" class="edge">
<title>Node10&#45;&gt;Node8</title>
<g id="a_edge12_Node000010_Node000008"><a xlink:title=" ">
<path fill="none" stroke="#63b8ff" d="M360.75,-615.4C338.19,-620.74 311.94,-626.95 290.71,-631.98"/>
<polygon fill="#63b8ff" stroke="#63b8ff" points="361.57,-618.8 370.5,-613.09 359.96,-611.99 361.57,-618.8"/>
</a>
</g>
</g>
<!-- Node12 -->
<g id="Node000012" class="node">
<title>Node12</title>
<g id="a_Node000012"><a xlink:href="classShell.html#a7e404fc56cbbe0337fc7f747fe0a518e" target="_top" xlink:title=" ">
<polygon fill="white" stroke="#666666" points="468,-843 356,-843 356,-824 468,-824 468,-843"/>
<text text-anchor="middle" x="412" y="-831" font-family="Ubuntu Mono" font-size="10.00">Shell::handleCreate</text>
</a>
</g>
</g>
<!-- Node11&#45;&gt;Node12 -->
<g id="edge14_Node000011_Node000012" class="edge">
<title>Node11&#45;&gt;Node12</title>
<g id="a_edge14_Node000011_Node000012"><a xlink:title=" ">
<path fill="none" stroke="#63b8ff" d="M536.02,-890.85C530.92,-889.17 525.82,-887.37 521,-885.5 488.21,-872.78 451.65,-854.19 430.58,-843.03"/>
<polygon fill="#63b8ff" stroke="#63b8ff" points="535.2,-894.26 545.79,-893.94 537.31,-887.59 535.2,-894.26"/>
</a>
</g>
</g>
<!-- Node14 -->
<g id="Node000014" class="node">
<title>Node14</title>
<g id="a_Node000014"><a xlink:href="classCell.html#a3f8faf8b966374b6a903d3c821b6699e" target="_top" xlink:title=" ">
<polygon fill="white" stroke="#666666" points="461.5,-913 362.5,-913 362.5,-894 461.5,-894 461.5,-913"/>
<text text-anchor="middle" x="412" y="-901" font-family="Ubuntu Mono" font-size="10.00">Cell::setupSolver</text>
</a>
</g>
</g>
<!-- Node11&#45;&gt;Node14 -->
<g id="edge17_Node000011_Node000014" class="edge">
<title>Node11&#45;&gt;Node14</title>
<g id="a_edge17_Node000011_Node000014"><a xlink:title=" ">
<path fill="none" stroke="#63b8ff" d="M519.59,-903.5C500.52,-903.5 479.78,-903.5 461.71,-903.5"/>
<polygon fill="#63b8ff" stroke="#63b8ff" points="519.68,-907 529.68,-903.5 519.68,-900 519.68,-907"/>
</a>
</g>
</g>
<!-- Node13 -->
<g id="Node000013" class="node">
<title>Node13</title>
<g id="a_Node000013"><a xlink:href="classShell.html#a907372fb6d91df75ff6a682da3d60487" target="_top" xlink:title=" ">
<polygon fill="white" stroke="#666666" points="293.5,-811 205.5,-811 205.5,-792 293.5,-792 293.5,-811"/>
<text text-anchor="middle" x="249.5" y="-799" font-family="Ubuntu Mono" font-size="10.00">Shell::initCinfo</text>
</a>
</g>
</g>
<!-- Node12&#45;&gt;Node13 -->
<g id="edge15_Node000012_Node000013" class="edge">
<title>Node12&#45;&gt;Node13</title>
<g id="a_edge15_Node000012_Node000013"><a xlink:title=" ">
<path fill="none" stroke="#63b8ff" d="M353.21,-821.98C333.56,-818.06 311.96,-813.75 293.66,-810.11"/>
<polygon fill="#63b8ff" stroke="#63b8ff" points="352.79,-825.46 363.28,-823.99 354.16,-818.6 352.79,-825.46"/>
</a>
</g>
</g>
<!-- Node13&#45;&gt;Node6 -->
<g id="edge16_Node000013_Node000006" class="edge">
<title>Node13&#45;&gt;Node6</title>
<g id="a_edge16_Node000013_Node000006"><a xlink:title=" ">
<path fill="none" stroke="#63b8ff" d="M228.6,-785.61C201.57,-764.03 154.08,-726.11 131.75,-708.28"/>
<polygon fill="#63b8ff" stroke="#63b8ff" points="226.6,-788.49 236.6,-791.99 230.96,-783.02 226.6,-788.49"/>
</a>
</g>
</g>
<!-- Node15 -->
<g id="Node000015" class="node">
<title>Node15</title>
<g id="a_Node000015"><a xlink:href="classCell.html#a25545de02864c5ec75481e3516bf66b7" target="_top" xlink:title=" ">
<polygon fill="white" stroke="#666666" points="283,-931 216,-931 216,-912 283,-912 283,-931"/>
<text text-anchor="middle" x="249.5" y="-919" font-family="Ubuntu Mono" font-size="10.00">Cell::reinit</text>
</a>
</g>
</g>
<!-- Node14&#45;&gt;Node15 -->
<g id="edge18_Node000014_Node000015" class="edge">
<title>Node14&#45;&gt;Node15</title>
<g id="a_edge18_Node000014_Node000015"><a xlink:title=" ">
<path fill="none" stroke="#63b8ff" d="M352.26,-910.09C328.96,-912.7 303.03,-915.61 283.19,-917.83"/>
<polygon fill="#63b8ff" stroke="#63b8ff" points="352.86,-913.54 362.41,-908.95 352.08,-906.59 352.86,-913.54"/>
</a>
</g>
</g>
<!-- Node17 -->
<g id="Node000017" class="node">
<title>Node17</title>
<g id="a_Node000017"><a xlink:href="classCell.html#a9cf3eee53011c2b283c6d616dcbd2336" target="_top" xlink:title=" ">
<polygon fill="white" stroke="#666666" points="285.5,-894 213.5,-894 213.5,-875 285.5,-875 285.5,-894"/>
<text text-anchor="middle" x="249.5" y="-882" font-family="Ubuntu Mono" font-size="10.00">Cell::setupf</text>
</a>
</g>
</g>
<!-- Node14&#45;&gt;Node17 -->
<g id="edge20_Node000014_Node000017" class="edge">
<title>Node14&#45;&gt;Node17</title>
<g id="a_edge20_Node000014_Node000017"><a xlink:title=" ">
<path fill="none" stroke="#63b8ff" d="M352.33,-896.55C329.97,-893.91 305.19,-890.97 285.68,-888.66"/>
<polygon fill="#63b8ff" stroke="#63b8ff" points="352.07,-900.05 362.41,-897.75 352.89,-893.1 352.07,-900.05"/>
</a>
</g>
</g>
<!-- Node16 -->
<g id="Node000016" class="node">
<title>Node16</title>
<g id="a_Node000016"><a xlink:href="classCell.html#a0b9e9376e5b4462c74e7c785e00745d1" target="_top" xlink:title=" ">
<polygon fill="white" stroke="#666666" points="160,-912 77,-912 77,-893 160,-893 160,-912"/>
<text text-anchor="middle" x="118.5" y="-900" font-family="Ubuntu Mono" font-size="10.00">Cell::initCinfo</text>
</a>
</g>
</g>
<!-- Node15&#45;&gt;Node16 -->
<g id="edge19_Node000015_Node000016" class="edge">
<title>Node15&#45;&gt;Node16</title>
<g id="a_edge19_Node000015_Node000016"><a xlink:title=" ">
<path fill="none" stroke="#63b8ff" d="M205.67,-915.19C191.07,-913.04 174.81,-910.65 160.37,-908.52"/>
<polygon fill="#63b8ff" stroke="#63b8ff" points="205.54,-918.71 215.95,-916.71 206.56,-911.79 205.54,-918.71"/>
</a>
</g>
</g>
<!-- Node17&#45;&gt;Node16 -->
<g id="edge21_Node000017_Node000016" class="edge">
<title>Node17&#45;&gt;Node16</title>
<g id="a_edge21_Node000017_Node000016"><a xlink:title=" ">
<path fill="none" stroke="#63b8ff" d="M203.31,-890.81C189.27,-892.76 173.89,-894.91 160.18,-896.82"/>
<polygon fill="#63b8ff" stroke="#63b8ff" points="203.83,-894.27 213.25,-889.42 202.86,-887.33 203.83,-894.27"/>
</a>
</g>
</g>
<!-- Node19 -->
<g id="Node000019" class="node">
<title>Node19</title>
<g id="a_Node000019"><a xlink:href="testAsync_8cpp.html#a2a3789579f2fa8291174f482f986ca92" target="_top" xlink:title=" ">
<polygon fill="white" stroke="#666666" points="444.5,-500 379.5,-500 379.5,-481 444.5,-481 444.5,-500"/>
<text text-anchor="middle" x="412" y="-488" font-family="Ubuntu Mono" font-size="10.00">testAsync</text>
</a>
</g>
</g>
<!-- Node18&#45;&gt;Node19 -->
<g id="edge24_Node000018_Node000019" class="edge">
<title>Node18&#45;&gt;Node19</title>
<g id="a_edge24_Node000018_Node000019"><a xlink:title=" ">
<path fill="none" stroke="#63b8ff" d="M535.96,-490.5C507.12,-490.5 470.41,-490.5 444.64,-490.5"/>
<polygon fill="#63b8ff" stroke="#63b8ff" points="536.19,-494 546.19,-490.5 536.19,-487 536.19,-494"/>
</a>
</g>
</g>
<!-- Node22 -->
<g id="Node000022" class="node">
<title>Node22</title>
<g id="a_Node000022"><a xlink:href="testBuiltins_8cpp.html#a7ab6d854a57ffd12234aa6d0e54e7520" target="_top" xlink:title=" ">
<polygon fill="white" stroke="#666666" points="448,-426 376,-426 376,-407 448,-407 448,-426"/>
<text text-anchor="middle" x="412" y="-414" font-family="Ubuntu Mono" font-size="10.00">testBuiltins</text>
</a>
</g>
</g>
<!-- Node21&#45;&gt;Node22 -->
<g id="edge27_Node000021_Node000022" class="edge">
<title>Node21&#45;&gt;Node22</title>
<g id="a_edge27_Node000021_Node000022"><a xlink:title=" ">
<path fill="none" stroke="#63b8ff" d="M541.78,-416.5C513.46,-416.5 475.54,-416.5 448.2,-416.5"/>
<polygon fill="#63b8ff" stroke="#63b8ff" points="542.12,-420 552.12,-416.5 542.12,-413 542.12,-420"/>
</a>
</g>
</g>
<!-- Node40&#45;&gt;Node11 -->
<g id="edge46_Node000040_Node000011" class="edge">
<title>Node40&#45;&gt;Node11</title>
<g id="a_edge46_Node000040_Node000011"><a xlink:title=" ">
<path fill="none" stroke="#63b8ff" d="M668.94,-903.5C656.99,-903.5 645.09,-903.5 634.12,-903.5"/>
<polygon fill="#63b8ff" stroke="#63b8ff" points="668.97,-907 678.97,-903.5 668.97,-900 668.97,-907"/>
</a>
</g>
</g>
<!-- Node41 -->
<g id="Node000041" class="node">
<title>Node41</title>
<g id="a_Node000041"><a xlink:href="testBuiltins_8cpp.html#a0b23c31b7503dd93064294b42d4ff085" target="_top" xlink:title=" ">
<polygon fill="white" stroke="#666666" points="622.5,-950 541.5,-950 541.5,-931 622.5,-931 622.5,-950"/>
<text text-anchor="middle" x="582" y="-938" font-family="Ubuntu Mono" font-size="10.00">testFibonacci</text>
</a>
</g>
</g>
<!-- Node40&#45;&gt;Node41 -->
<g id="edge47_Node000040_Node000041" class="edge">
<title>Node40&#45;&gt;Node41</title>
<g id="a_edge47_Node000040_Node000041"><a xlink:title=" ">
<path fill="none" stroke="#63b8ff" d="M677.24,-920.63C658.24,-924.64 638.83,-928.73 622.6,-932.15"/>
<polygon fill="#63b8ff" stroke="#63b8ff" points="678.05,-924.04 687.12,-918.55 676.61,-917.19 678.05,-924.04"/>
</a>
</g>
</g>
</g>
</svg>

<g id="navigator" transform="translate(0 0)" fill="#404254">
  <rect fill="#f2f5e9" fill-opacity="0.5" stroke="#606060" stroke-width=".5" x="0" y="0" width="60" height="60"/>
  <use id="zoomplus" xlink:href="#zoomPlus" x="17" y="9" onmousedown="handleZoom(evt,'in')"/>
  <use id="zoomminus" xlink:href="#zoomMin" x="42" y="9" onmousedown="handleZoom(evt,'out')"/>
  <use id="reset" xlink:href="#resetDef" x="30" y="36" onmousedown="handleReset()"/>
   <use id="arrowup" xlink:href="#arrowUp" x="0" y="0" onmousedown="handlePan(0,-1)"/>
  <use id="arrowright" xlink:href="#arrowRight" x="0" y="0" onmousedown="handlePan(1,0)"/>
  <use id="arrowdown" xlink:href="#arrowDown" x="0" y="0" onmousedown="handlePan(0,1)"/>
  <use id="arrowleft" xlink:href="#arrowLeft" x="0" y="0" onmousedown="handlePan(-1,0)"/>
</g>
<svg viewBox="0 0 15 15" width="100%" height="30px" preserveAspectRatio="xMaxYMin meet">
 <g id="arrow_out" transform="scale(0.3 0.3)">
  <a xlink:href="classDinfoBase_a6f391ad711ead96caad23c576d35b2f5_icgraph_org.svg" target="_base">
   <rect id="button" ry="5" rx="5" y="6" x="6" height="38" width="38"
        fill="#f2f5e9" fill-opacity="0.5" stroke="#606060" stroke-width="1.0"/>
   <path id="arrow"
     d="M 11.500037,31.436501 C 11.940474,20.09759 22.043105,11.32322 32.158766,21.979434 L 37.068811,17.246167 C 37.068811,17.246167 37.088388,32 37.088388,32 L 22.160133,31.978069 C 22.160133,31.978069 26.997745,27.140456 26.997745,27.140456 C 18.528582,18.264221 13.291696,25.230495 11.500037,31.436501 z"
     style="fill:#404040;"/>
  </a>
 </g>
</svg>

<style type='text/css'>
<![CDATA[
[data-mouse-over-selected='false'] { opacity: 0.7; }
[data-mouse-over-selected='true']  { opacity: 1.0; }
]]>
</style>
<script type="application/ecmascript"><![CDATA[
document.addEventListener('DOMContentLoaded', (event) => {
  highlightEdges();
  highlightAdjacentNodes();
});
]]></script>
</svg>
