<?xml version="1.0" encoding="UTF-8" standalone="no"?>
<!DOCTYPE svg PUBLIC "-//W3C//DTD SVG 1.1//EN"
 "http://www.w3.org/Graphics/SVG/1.1/DTD/svg11.dtd">
<!-- Generated by graphviz version 2.43.0 (0)
 -->
<!-- Title: KinSparseMatrix Pages: 1 -->
<!--zoomable 954 -->

<svg id="main" version="1.1" xmlns="http://www.w3.org/2000/svg" xmlns:xlink="http://www.w3.org/1999/xlink" xml:space="preserve" onload="init(evt)">
<style type="text/css"><![CDATA[
.node, .edge {opacity: 0.7;}
.node.selected, .edge.selected {opacity: 1;}
.edge:hover path { stroke: red; }
.edge:hover polygon { stroke: red; fill: red; }
]]></style>

<defs>
  <circle id="rim" cx="0" cy="0" r="7"/>
  <circle id="rim2" cx="0" cy="0" r="3.5"/>
  <g id="zoomPlus">
    <use xlink:href="#rim" fill="#404040"><set attributeName="fill" to="#808080" begin="zoomplus.mouseover" end="zoomplus.mouseout"/></use>
    <path d="M-4,0h8M0,-4v8" fill="none" stroke="white" stroke-width="1.5" pointer-events="none"/>
  </g>
  <g id="zoomMin">
    <use xlink:href="#rim" fill="#404040"><set attributeName="fill" to="#808080" begin="zoomminus.mouseover" end="zoomminus.mouseout"/></use>
    <path d="M-4,0h8" fill="none" stroke="white" stroke-width="1.5" pointer-events="none"/>
  </g>
  <g id="arrowUp" transform="translate(30 24)">
    <use xlink:href="#rim"/>
    <path pointer-events="none" fill="none" stroke="white" stroke-width="1.5" d="M0,-3.0v7 M-2.5,-0.5L0,-3.0L2.5,-0.5"/>
  </g>
  <g id="arrowRight" transform="rotate(90) translate(36 -43)">
    <use xlink:href="#rim"/>
    <path pointer-events="none" fill="none" stroke="white" stroke-width="1.5" d="M0,-3.0v7 M-2.5,-0.5L0,-3.0L2.5,-0.5"/>
  </g>
  <g id="arrowDown" transform="rotate(180) translate(-30 -48)">
    <use xlink:href="#rim"/>
    <path pointer-events="none" fill="none" stroke="white" stroke-width="1.5" d="M0,-3.0v7 M-2.5,-0.5L0,-3.0L2.5,-0.5"/>
  </g>
  <g id="arrowLeft" transform="rotate(270) translate(-36 17)">
    <use xlink:href="#rim"/>
    <path pointer-events="none" fill="none" stroke="white" stroke-width="1.5" d="M0,-3.0v7 M-2.5,-0.5L0,-3.0L2.5,-0.5"/>
  </g>
  <g id="resetDef">
    <use xlink:href="#rim2" fill="#404040"><set attributeName="fill" to="#808080" begin="reset.mouseover" end="reset.mouseout"/></use>
  </g>
</defs>
<script type="application/ecmascript">
var viewWidth = 343;
var viewHeight = 954;
var sectionId = 'dynsection-1';
</script>
<script type="application/ecmascript" xlink:href="svg.min.js"/>
<svg id="graph" class="graph">
<g id="viewport">
<title>KinSparseMatrix</title>
<!-- Node1 -->
<g id="Node000001" class="node">
<title>Node1</title>
<g id="a_Node000001"><a xlink:title=" ">
<polygon fill="#999999" stroke="transparent" points="148,-94 0,-94 0,0 148,0 148,-94"/>
<text text-anchor="start" x="33.5" y="-82" font-family="Ubuntu Mono" font-size="10.00">KinSparseMatrix</text>
<text text-anchor="start" x="72" y="-67" font-family="Ubuntu Mono" font-size="10.00"> </text>
<text text-anchor="start" x="4" y="-52" font-family="Ubuntu Mono" font-size="10.00">+</text>
<text text-anchor="start" x="17" y="-52" font-family="Ubuntu Mono" font-size="10.00">computeRowRate()</text>
<text text-anchor="start" x="4" y="-37" font-family="Ubuntu Mono" font-size="10.00">+</text>
<text text-anchor="start" x="17" y="-37" font-family="Ubuntu Mono" font-size="10.00">fireReac()</text>
<text text-anchor="start" x="4" y="-22" font-family="Ubuntu Mono" font-size="10.00">+</text>
<text text-anchor="start" x="17" y="-22" font-family="Ubuntu Mono" font-size="10.00">getGillespieDependence()</text>
<text text-anchor="start" x="4" y="-7" font-family="Ubuntu Mono" font-size="10.00">+</text>
<text text-anchor="start" x="17" y="-7" font-family="Ubuntu Mono" font-size="10.00">truncateRow()</text>
<polygon fill="#666666" stroke="#666666" points="0,-77 0,-77 148,-77 148,-77 0,-77"/>
<polygon fill="#666666" stroke="#666666" points="0,-62 0,-62 148,-62 148,-62 0,-62"/>
<polygon fill="none" stroke="#666666" points="0,0 0,-94 148,-94 148,0 0,0"/>
</a>
</g>
</g>
<!-- Node2 -->
<g id="Node000002" class="node">
<title>Node2</title>
<g id="a_Node000002"><a xlink:href="classSparseMatrix.html" target="_top" xlink:title=" ">
<polygon fill="white" stroke="transparent" points="210,-360 100,-360 100,-131 210,-131 210,-360"/>
<text text-anchor="start" x="105" y="-347.5" font-family="Ubuntu Mono" font-size="10.00">SparseMatrix&lt; int &gt;</text>
<text text-anchor="start" x="108.5" y="-332.5" font-family="Ubuntu Mono" font-size="10.00">#</text>
<text text-anchor="start" x="126" y="-332.5" font-family="Ubuntu Mono" font-size="10.00">N_</text>
<text text-anchor="start" x="108.5" y="-317.5" font-family="Ubuntu Mono" font-size="10.00">#</text>
<text text-anchor="start" x="126" y="-317.5" font-family="Ubuntu Mono" font-size="10.00">ncolumns_</text>
<text text-anchor="start" x="108.5" y="-302.5" font-family="Ubuntu Mono" font-size="10.00">#</text>
<text text-anchor="start" x="126" y="-302.5" font-family="Ubuntu Mono" font-size="10.00">nrows_</text>
<text text-anchor="start" x="108.5" y="-287.5" font-family="Ubuntu Mono" font-size="10.00">+</text>
<text text-anchor="start" x="126" y="-287.5" font-family="Ubuntu Mono" font-size="10.00">addRow()</text>
<text text-anchor="start" x="108.5" y="-272.5" font-family="Ubuntu Mono" font-size="10.00">+</text>
<text text-anchor="start" x="126" y="-272.5" font-family="Ubuntu Mono" font-size="10.00">addRow()</text>
<text text-anchor="start" x="108.5" y="-257.5" font-family="Ubuntu Mono" font-size="10.00">+</text>
<text text-anchor="start" x="126" y="-257.5" font-family="Ubuntu Mono" font-size="10.00">clear()</text>
<text text-anchor="start" x="108.5" y="-242.5" font-family="Ubuntu Mono" font-size="10.00">+</text>
<text text-anchor="start" x="126" y="-242.5" font-family="Ubuntu Mono" font-size="10.00">colIndex()</text>
<text text-anchor="start" x="108.5" y="-227.5" font-family="Ubuntu Mono" font-size="10.00">+</text>
<text text-anchor="start" x="126" y="-227.5" font-family="Ubuntu Mono" font-size="10.00">get()</text>
<text text-anchor="start" x="108.5" y="-212.5" font-family="Ubuntu Mono" font-size="10.00">+</text>
<text text-anchor="start" x="126" y="-212.5" font-family="Ubuntu Mono" font-size="10.00">getColumn()</text>
<text text-anchor="start" x="108.5" y="-197.5" font-family="Ubuntu Mono" font-size="10.00">+</text>
<text text-anchor="start" x="126" y="-197.5" font-family="Ubuntu Mono" font-size="10.00">getRow()</text>
<text text-anchor="start" x="108.5" y="-182.5" font-family="Ubuntu Mono" font-size="10.00">+</text>
<text text-anchor="start" x="126" y="-182.5" font-family="Ubuntu Mono" font-size="10.00">getRow()</text>
<text text-anchor="start" x="108.5" y="-167.5" font-family="Ubuntu Mono" font-size="10.00">+</text>
<text text-anchor="start" x="126" y="-167.5" font-family="Ubuntu Mono" font-size="10.00">matrixEntry()</text>
<text text-anchor="start" x="108.5" y="-152.5" font-family="Ubuntu Mono" font-size="10.00">+</text>
<text text-anchor="start" x="126" y="-152.5" font-family="Ubuntu Mono" font-size="10.00">nColumns()</text>
<text text-anchor="start" x="126" y="-137.5" font-family="Ubuntu Mono" font-size="10.00">and 15 more...</text>
<polygon fill="#666666" stroke="#666666" points="100,-342.5 100,-342.5 210,-342.5 210,-342.5 100,-342.5"/>
<polygon fill="#666666" stroke="#666666" points="100,-297.5 100,-297.5 124,-297.5 124,-297.5 100,-297.5"/>
<polygon fill="#666666" stroke="#666666" points="124,-297.5 124,-297.5 210,-297.5 210,-297.5 124,-297.5"/>
<polygon fill="none" stroke="#666666" points="100,-131 100,-360 210,-360 210,-131 100,-131"/>
</a>
</g>
</g>
<!-- Node2&#45;&gt;Node1 -->
<g id="edge1_Node000001_Node000002" class="edge">
<title>Node2&#45;&gt;Node1</title>
<g id="a_edge1_Node000001_Node000002"><a xlink:title=" ">
<path fill="none" stroke="#63b8ff" d="M104.28,-121.47C100.33,-111.87 96.51,-102.6 92.99,-94.08"/>
<polygon fill="none" stroke="#63b8ff" points="101.07,-122.85 108.12,-130.76 107.54,-120.18 101.07,-122.85"/>
</a>
</g>
</g>
<!-- Node3 -->
<g id="Node000003" class="node">
<title>Node3</title>
<g id="a_Node000003"><a xlink:title=" ">
<polygon fill="white" stroke="transparent" points="214,-754 96,-754 96,-694 214,-694 214,-754"/>
<text text-anchor="start" x="101" y="-742" font-family="Ubuntu Mono" font-size="10.00">std::vector&lt; unsigned</text>
<text text-anchor="start" x="141" y="-731" font-family="Ubuntu Mono" font-size="10.00"> int &gt;</text>
<text text-anchor="start" x="112.5" y="-716" font-family="Ubuntu Mono" font-size="10.00">+</text>
<text text-anchor="start" x="138" y="-716" font-family="Ubuntu Mono" font-size="10.00">elements</text>
<text text-anchor="start" x="153" y="-701" font-family="Ubuntu Mono" font-size="10.00"> </text>
<polygon fill="#666666" stroke="#666666" points="96,-726 96,-726 214,-726 214,-726 96,-726"/>
<polygon fill="#666666" stroke="#666666" points="96,-711 96,-711 136,-711 136,-711 96,-711"/>
<polygon fill="#666666" stroke="#666666" points="136,-711 136,-711 214,-711 214,-711 136,-711"/>
<polygon fill="none" stroke="#666666" points="96,-694 96,-754 214,-754 214,-694 96,-694"/>
</a>
</g>
</g>
<!-- Node3&#45;&gt;Node1 -->
<g id="edge7_Node000001_Node000003" class="edge">
<title>Node3&#45;&gt;Node1</title>
<g id="a_edge7_Node000001_Node000003"><a xlink:title=" ">
<path fill="none" stroke="#63b8ff" d="M145.35,-693.95C126.83,-636.51 86.91,-504 73,-389 61.07,-290.38 65.21,-174.53 69.48,-106.41"/>
<polygon fill="none" stroke="#63b8ff" points="69.49,-106.24 65.89,-99.99 70.27,-94.27 73.87,-100.51 69.49,-106.24"/>
</a>
</g>
<text text-anchor="middle" x="112" y="-381" font-family="Ubuntu Mono" font-size="10.00" fill="grey"> &#45;rowTruncated_</text>
</g>
<!-- Node3&#45;&gt;Node2 -->
<g id="edge2_Node000002_Node000003" class="edge">
<title>Node3&#45;&gt;Node2</title>
<g id="a_edge2_Node000002_Node000003"><a xlink:title=" ">
<path fill="none" stroke="#63b8ff" d="M155,-693.91C155,-631.44 155,-481.28 155,-372.11"/>
<polygon fill="none" stroke="#63b8ff" points="155,-372.01 151,-366.01 155,-360.01 159,-366.01 155,-372.01"/>
</a>
</g>
<text text-anchor="middle" x="184" y="-524.5" font-family="Ubuntu Mono" font-size="10.00" fill="grey"> #colIndex_</text>
<text text-anchor="middle" x="184" y="-513.5" font-family="Ubuntu Mono" font-size="10.00" fill="grey">#rowStart_</text>
</g>
<!-- Node6 -->
<g id="Node000006" class="node">
<title>Node6</title>
<g id="a_Node000006"><a xlink:href="classSparseMatrix.html" target="_top" xlink:title=" ">
<polygon fill="white" stroke="transparent" points="335,-636 231,-636 231,-407 335,-407 335,-636"/>
<text text-anchor="start" x="236" y="-623.5" font-family="Ubuntu Mono" font-size="10.00">SparseMatrix&lt; T &gt;</text>
<text text-anchor="start" x="238" y="-608.5" font-family="Ubuntu Mono" font-size="10.00">#</text>
<text text-anchor="start" x="254" y="-608.5" font-family="Ubuntu Mono" font-size="10.00">N_</text>
<text text-anchor="start" x="238" y="-593.5" font-family="Ubuntu Mono" font-size="10.00">#</text>
<text text-anchor="start" x="254" y="-593.5" font-family="Ubuntu Mono" font-size="10.00">ncolumns_</text>
<text text-anchor="start" x="238" y="-578.5" font-family="Ubuntu Mono" font-size="10.00">#</text>
<text text-anchor="start" x="254" y="-578.5" font-family="Ubuntu Mono" font-size="10.00">nrows_</text>
<text text-anchor="start" x="238" y="-563.5" font-family="Ubuntu Mono" font-size="10.00">+</text>
<text text-anchor="start" x="254" y="-563.5" font-family="Ubuntu Mono" font-size="10.00">addRow()</text>
<text text-anchor="start" x="238" y="-548.5" font-family="Ubuntu Mono" font-size="10.00">+</text>
<text text-anchor="start" x="254" y="-548.5" font-family="Ubuntu Mono" font-size="10.00">addRow()</text>
<text text-anchor="start" x="238" y="-533.5" font-family="Ubuntu Mono" font-size="10.00">+</text>
<text text-anchor="start" x="254" y="-533.5" font-family="Ubuntu Mono" font-size="10.00">clear()</text>
<text text-anchor="start" x="238" y="-518.5" font-family="Ubuntu Mono" font-size="10.00">+</text>
<text text-anchor="start" x="254" y="-518.5" font-family="Ubuntu Mono" font-size="10.00">colIndex()</text>
<text text-anchor="start" x="238" y="-503.5" font-family="Ubuntu Mono" font-size="10.00">+</text>
<text text-anchor="start" x="254" y="-503.5" font-family="Ubuntu Mono" font-size="10.00">get()</text>
<text text-anchor="start" x="238" y="-488.5" font-family="Ubuntu Mono" font-size="10.00">+</text>
<text text-anchor="start" x="254" y="-488.5" font-family="Ubuntu Mono" font-size="10.00">getColumn()</text>
<text text-anchor="start" x="238" y="-473.5" font-family="Ubuntu Mono" font-size="10.00">+</text>
<text text-anchor="start" x="254" y="-473.5" font-family="Ubuntu Mono" font-size="10.00">getRow()</text>
<text text-anchor="start" x="238" y="-458.5" font-family="Ubuntu Mono" font-size="10.00">+</text>
<text text-anchor="start" x="254" y="-458.5" font-family="Ubuntu Mono" font-size="10.00">getRow()</text>
<text text-anchor="start" x="238" y="-443.5" font-family="Ubuntu Mono" font-size="10.00">+</text>
<text text-anchor="start" x="254" y="-443.5" font-family="Ubuntu Mono" font-size="10.00">matrixEntry()</text>
<text text-anchor="start" x="238" y="-428.5" font-family="Ubuntu Mono" font-size="10.00">+</text>
<text text-anchor="start" x="254" y="-428.5" font-family="Ubuntu Mono" font-size="10.00">nColumns()</text>
<text text-anchor="start" x="254" y="-413.5" font-family="Ubuntu Mono" font-size="10.00">and 15 more...</text>
<polygon fill="#666666" stroke="#666666" points="231,-618.5 231,-618.5 335,-618.5 335,-618.5 231,-618.5"/>
<polygon fill="#666666" stroke="#666666" points="231,-573.5 231,-573.5 252,-573.5 252,-573.5 231,-573.5"/>
<polygon fill="#666666" stroke="#666666" points="252,-573.5 252,-573.5 335,-573.5 335,-573.5 252,-573.5"/>
<polygon fill="none" stroke="#666666" points="231,-407 231,-636 335,-636 335,-407 231,-407"/>
</a>
</g>
</g>
<!-- Node3&#45;&gt;Node6 -->
<g id="edge6_Node000006_Node000003" class="edge">
<title>Node3&#45;&gt;Node6</title>
<g id="a_edge6_Node000006_Node000003"><a xlink:title=" ">
<path fill="none" stroke="#63b8ff" d="M176.93,-693.67C189.11,-677.02 204.33,-655.64 217,-636 219.53,-632.07 222.09,-628.04 224.64,-623.96"/>
<polygon fill="none" stroke="#63b8ff" points="224.66,-623.92 224.41,-616.71 230.96,-613.71 231.21,-620.92 224.66,-623.92"/>
</a>
</g>
<text text-anchor="middle" x="233" y="-668" font-family="Ubuntu Mono" font-size="10.00" fill="grey"> #colIndex_</text>
<text text-anchor="middle" x="233" y="-657" font-family="Ubuntu Mono" font-size="10.00" fill="grey">#rowStart_</text>
</g>
<!-- Node4 -->
<g id="Node000004" class="node">
<title>Node4</title>
<g id="a_Node000004"><a xlink:title=" ">
<polygon fill="white" stroke="transparent" points="200.5,-850 109.5,-850 109.5,-801 200.5,-801 200.5,-850"/>
<text text-anchor="start" x="115" y="-837.5" font-family="Ubuntu Mono" font-size="10.00">std::vector&lt; T &gt;</text>
<text text-anchor="start" x="153.5" y="-822.5" font-family="Ubuntu Mono" font-size="10.00"> </text>
<text text-anchor="start" x="153.5" y="-807.5" font-family="Ubuntu Mono" font-size="10.00"> </text>
<polygon fill="#666666" stroke="#666666" points="110,-832.5 110,-832.5 201,-832.5 201,-832.5 110,-832.5"/>
<polygon fill="#666666" stroke="#666666" points="110,-817.5 110,-817.5 201,-817.5 201,-817.5 110,-817.5"/>
<polygon fill="none" stroke="#666666" points="109.5,-801 109.5,-850 200.5,-850 200.5,-801 109.5,-801"/>
</a>
</g>
</g>
<!-- Node4&#45;&gt;Node3 -->
<g id="edge3_Node000003_Node000004" class="edge">
<title>Node4&#45;&gt;Node3</title>
<g id="a_edge3_Node000003_Node000004"><a xlink:title=" ">
<path fill="none" stroke="orange" d="M155,-790.87C155,-778.94 155,-765.62 155,-754.1"/>
<polygon fill="orange" stroke="orange" points="151.5,-790.92 155,-800.92 158.5,-790.92 151.5,-790.92"/>
</a>
</g>
<text text-anchor="middle" x="198" y="-775" font-family="Ubuntu Mono" font-size="10.00" fill="grey"> &lt; unsigned int &gt;</text>
</g>
<!-- Node5 -->
<g id="Node000005" class="node">
<title>Node5</title>
<g id="a_Node000005"><a xlink:title=" ">
<polygon fill="white" stroke="transparent" points="163.5,-946 146.5,-946 146.5,-897 163.5,-897 163.5,-946"/>
<text text-anchor="start" x="152" y="-933.5" font-family="Ubuntu Mono" font-size="10.00">T</text>
<text text-anchor="start" x="153.5" y="-918.5" font-family="Ubuntu Mono" font-size="10.00"> </text>
<text text-anchor="start" x="153.5" y="-903.5" font-family="Ubuntu Mono" font-size="10.00"> </text>
<polygon fill="#666666" stroke="#666666" points="147,-928.5 147,-928.5 164,-928.5 164,-928.5 147,-928.5"/>
<polygon fill="#666666" stroke="#666666" points="147,-913.5 147,-913.5 164,-913.5 164,-913.5 147,-913.5"/>
<polygon fill="none" stroke="#666666" points="146.5,-897 146.5,-946 163.5,-946 163.5,-897 146.5,-897"/>
</a>
</g>
</g>
<!-- Node5&#45;&gt;Node4 -->
<g id="edge4_Node000004_Node000005" class="edge">
<title>Node5&#45;&gt;Node4</title>
<g id="a_edge4_Node000004_Node000005"><a xlink:title=" ">
<path fill="none" stroke="#63b8ff" d="M155,-896.78C155,-886.32 155,-873.79 155,-862.23"/>
<polygon fill="none" stroke="#63b8ff" points="155,-862.21 151,-856.21 155,-850.21 159,-856.21 155,-862.21"/>
</a>
</g>
<text text-anchor="middle" x="184" y="-871" font-family="Ubuntu Mono" font-size="10.00" fill="grey"> +elements</text>
</g>
<!-- Node6&#45;&gt;Node2 -->
<g id="edge5_Node000002_Node000006" class="edge">
<title>Node6&#45;&gt;Node2</title>
<g id="a_edge5_Node000002_Node000006"><a xlink:title=" ">
<path fill="none" stroke="orange" d="M226.67,-399.92C220.49,-386.68 214.2,-373.23 208.06,-360.07"/>
<polygon fill="orange" stroke="orange" points="223.53,-401.47 230.94,-409.05 229.88,-398.51 223.53,-401.47"/>
</a>
</g>
<text text-anchor="middle" x="238.5" y="-381" font-family="Ubuntu Mono" font-size="10.00" fill="grey"> &lt; int &gt;</text>
</g>
</g>
</svg>

<g id="navigator" transform="translate(0 0)" fill="#404254">
  <rect fill="#f2f5e9" fill-opacity="0.5" stroke="#606060" stroke-width=".5" x="0" y="0" width="60" height="60"/>
  <use id="zoomplus" xlink:href="#zoomPlus" x="17" y="9" onmousedown="handleZoom(evt,'in')"/>
  <use id="zoomminus" xlink:href="#zoomMin" x="42" y="9" onmousedown="handleZoom(evt,'out')"/>
  <use id="reset" xlink:href="#resetDef" x="30" y="36" onmousedown="handleReset()"/>
   <use id="arrowup" xlink:href="#arrowUp" x="0" y="0" onmousedown="handlePan(0,-1)"/>
  <use id="arrowright" xlink:href="#arrowRight" x="0" y="0" onmousedown="handlePan(1,0)"/>
  <use id="arrowdown" xlink:href="#arrowDown" x="0" y="0" onmousedown="handlePan(0,1)"/>
  <use id="arrowleft" xlink:href="#arrowLeft" x="0" y="0" onmousedown="handlePan(-1,0)"/>
</g>
<svg viewBox="0 0 15 15" width="100%" height="30px" preserveAspectRatio="xMaxYMin meet">
 <g id="arrow_out" transform="scale(0.3 0.3)">
  <a xlink:href="classKinSparseMatrix__coll__graph_org.svg" target="_base">
   <rect id="button" ry="5" rx="5" y="6" x="6" height="38" width="38"
        fill="#f2f5e9" fill-opacity="0.5" stroke="#606060" stroke-width="1.0"/>
   <path id="arrow"
     d="M 11.500037,31.436501 C 11.940474,20.09759 22.043105,11.32322 32.158766,21.979434 L 37.068811,17.246167 C 37.068811,17.246167 37.088388,32 37.088388,32 L 22.160133,31.978069 C 22.160133,31.978069 26.997745,27.140456 26.997745,27.140456 C 18.528582,18.264221 13.291696,25.230495 11.500037,31.436501 z"
     style="fill:#404040;"/>
  </a>
 </g>
</svg>

<style type='text/css'>
<![CDATA[
[data-mouse-over-selected='false'] { opacity: 0.7; }
[data-mouse-over-selected='true']  { opacity: 1.0; }
]]>
</style>
<script type="application/ecmascript"><![CDATA[
document.addEventListener('DOMContentLoaded', (event) => {
  highlightEdges();
  highlightAdjacentNodes();
});
]]></script>
</svg>
