<?xml version="1.0" encoding="UTF-8" standalone="no"?>
<!DOCTYPE svg PUBLIC "-//W3C//DTD SVG 1.1//EN"
 "http://www.w3.org/Graphics/SVG/1.1/DTD/svg11.dtd">
<!-- Generated by graphviz version 2.43.0 (0)
 -->
<!-- Title: HSolve::setPowers Pages: 1 -->
<svg width="324pt" height="101pt"
 viewBox="0.00 0.00 324.00 101.00" xmlns="http://www.w3.org/2000/svg" xmlns:xlink="http://www.w3.org/1999/xlink">
<g id="graph0" class="graph" transform="scale(1 1) rotate(0) translate(4 97)">
<title>HSolve::setPowers</title>
<!-- Node1 -->
<g id="Node000001" class="node">
<title>Node1</title>
<g id="a_Node000001"><a xlink:title="Interface to channels.">
<polygon fill="#999999" stroke="#666666" points="316,-56 209,-56 209,-37 316,-37 316,-56"/>
<text text-anchor="middle" x="262.5" y="-44" font-family="Ubuntu Mono" font-size="10.00">HSolve::setPowers</text>
</a>
</g>
</g>
<!-- Node2 -->
<g id="Node000002" class="node">
<title>Node2</title>
<g id="a_Node000002"><a xlink:href="classZombieHHChannel.html#ab7e59e7bbc27b716783ab8e9fa1af742" target="_top" xlink:title=" ">
<polygon fill="white" stroke="#666666" points="173,-93 0,-93 0,-74 173,-74 173,-93"/>
<text text-anchor="middle" x="86.5" y="-81" font-family="Ubuntu Mono" font-size="10.00">ZombieHHChannel::vSetXpower</text>
</a>
</g>
</g>
<!-- Node1&#45;&gt;Node2 -->
<g id="edge1_Node000001_Node000002" class="edge">
<title>Node1&#45;&gt;Node2</title>
<g id="a_edge1_Node000001_Node000002"><a xlink:title=" ">
<path fill="none" stroke="#63b8ff" d="M207.55,-58.12C196.14,-60.57 184.18,-63.12 173,-65.5 160.09,-68.24 146.08,-71.2 133.21,-73.91"/>
<polygon fill="#63b8ff" stroke="#63b8ff" points="208.35,-61.53 217.39,-56.01 206.88,-54.68 208.35,-61.53"/>
</a>
</g>
</g>
<!-- Node3 -->
<g id="Node000003" class="node">
<title>Node3</title>
<g id="a_Node000003"><a xlink:href="classZombieHHChannel.html#ad10ca0bec7c12dca1d6e24e01996e0f0" target="_top" xlink:title=" ">
<polygon fill="white" stroke="#666666" points="173,-56 0,-56 0,-37 173,-37 173,-56"/>
<text text-anchor="middle" x="86.5" y="-44" font-family="Ubuntu Mono" font-size="10.00">ZombieHHChannel::vSetYpower</text>
</a>
</g>
</g>
<!-- Node1&#45;&gt;Node3 -->
<g id="edge2_Node000001_Node000003" class="edge">
<title>Node1&#45;&gt;Node3</title>
<g id="a_edge2_Node000001_Node000003"><a xlink:title=" ">
<path fill="none" stroke="#63b8ff" d="M198.81,-46.5C190.46,-46.5 181.77,-46.5 173.11,-46.5"/>
<polygon fill="#63b8ff" stroke="#63b8ff" points="198.82,-50 208.82,-46.5 198.82,-43 198.82,-50"/>
</a>
</g>
</g>
<!-- Node4 -->
<g id="Node000004" class="node">
<title>Node4</title>
<g id="a_Node000004"><a xlink:href="classZombieHHChannel.html#aec934cede00fdd6322b5de4e9bf2d93b" target="_top" xlink:title=" ">
<polygon fill="white" stroke="#666666" points="173,-19 0,-19 0,0 173,0 173,-19"/>
<text text-anchor="middle" x="86.5" y="-7" font-family="Ubuntu Mono" font-size="10.00">ZombieHHChannel::vSetZpower</text>
</a>
</g>
</g>
<!-- Node1&#45;&gt;Node4 -->
<g id="edge3_Node000001_Node000004" class="edge">
<title>Node1&#45;&gt;Node4</title>
<g id="a_edge3_Node000001_Node000004"><a xlink:title=" ">
<path fill="none" stroke="#63b8ff" d="M206.7,-34.85C182.8,-29.77 155.13,-23.88 132.46,-19.06"/>
<polygon fill="#63b8ff" stroke="#63b8ff" points="206.18,-38.32 216.69,-36.97 207.64,-31.47 206.18,-38.32"/>
</a>
</g>
</g>
</g>
</svg>
