<?xml version="1.0" encoding="UTF-8" standalone="no"?>
<!DOCTYPE svg PUBLIC "-//W3C//DTD SVG 1.1//EN"
 "http://www.w3.org/Graphics/SVG/1.1/DTD/svg11.dtd">
<!-- Generated by graphviz version 2.43.0 (0)
 -->
<!-- Title: Interpol2D::getXmax Pages: 1 -->
<svg width="848pt" height="113pt"
 viewBox="0.00 0.00 848.00 112.50" xmlns="http://www.w3.org/2000/svg" xmlns:xlink="http://www.w3.org/1999/xlink">
<g id="graph0" class="graph" transform="scale(1 1) rotate(0) translate(4 108.5)">
<title>Interpol2D::getXmax</title>
<!-- Node1 -->
<g id="Node000001" class="node">
<title>Node1</title>
<g id="a_Node000001"><a xlink:title=" ">
<polygon fill="#999999" stroke="#666666" points="840,-67.5 722,-67.5 722,-48.5 840,-48.5 840,-67.5"/>
<text text-anchor="middle" x="781" y="-55.5" font-family="Ubuntu Mono" font-size="10.00">Interpol2D::getXmax</text>
</a>
</g>
</g>
<!-- Node2 -->
<g id="Node000002" class="node">
<title>Node2</title>
<g id="a_Node000002"><a xlink:href="classHHGate2D.html#a7863f0aca0b8685487c6205ace233802" target="_top" xlink:title=" ">
<polygon fill="white" stroke="#666666" points="664,-104.5 545,-104.5 545,-85.5 664,-85.5 664,-104.5"/>
<text text-anchor="middle" x="604.5" y="-92.5" font-family="Ubuntu Mono" font-size="10.00">HHGate2D::getXmax</text>
</a>
</g>
</g>
<!-- Node1&#45;&gt;Node2 -->
<g id="edge1_Node000001_Node000002" class="edge">
<title>Node1&#45;&gt;Node2</title>
<g id="a_edge1_Node000001_Node000002"><a xlink:title=" ">
<path fill="none" stroke="#63b8ff" d="M725.05,-69.65C701.08,-74.73 673.32,-80.62 650.59,-85.44"/>
<polygon fill="#63b8ff" stroke="#63b8ff" points="726.01,-73.03 735.06,-67.53 724.55,-66.18 726.01,-73.03"/>
</a>
</g>
</g>
<!-- Node5 -->
<g id="Node000005" class="node">
<title>Node5</title>
<g id="a_Node000005"><a xlink:href="classInterpol2D.html#a4b9c9fad0a71a377f98959de440a4544" target="_top" xlink:title=" ">
<polygon fill="white" stroke="#666666" points="662,-67.5 547,-67.5 547,-48.5 662,-48.5 662,-67.5"/>
<text text-anchor="middle" x="604.5" y="-55.5" font-family="Ubuntu Mono" font-size="10.00">Interpol2D::initCinfo</text>
</a>
</g>
</g>
<!-- Node1&#45;&gt;Node5 -->
<g id="edge4_Node000001_Node000005" class="edge">
<title>Node1&#45;&gt;Node5</title>
<g id="a_edge4_Node000001_Node000005"><a xlink:title=" ">
<path fill="none" stroke="#63b8ff" d="M711.81,-58C695.38,-58 678,-58 662.17,-58"/>
<polygon fill="#63b8ff" stroke="#63b8ff" points="711.89,-61.5 721.89,-58 711.89,-54.5 711.89,-61.5"/>
</a>
</g>
</g>
<!-- Node6 -->
<g id="Node000006" class="node">
<title>Node6</title>
<g id="a_Node000006"><a xlink:href="classMarkovSolverBase.html#a099b652344dd857b876061cd65cdd835" target="_top" xlink:title=" ">
<polygon fill="white" stroke="#666666" points="686,-30 523,-30 523,0 686,0 686,-30"/>
<text text-anchor="start" x="531" y="-18" font-family="Ubuntu Mono" font-size="10.00">MarkovSolverBase::setLookup</text>
<text text-anchor="middle" x="604.5" y="-7" font-family="Ubuntu Mono" font-size="10.00">Params</text>
</a>
</g>
</g>
<!-- Node1&#45;&gt;Node6 -->
<g id="edge5_Node000001_Node000006" class="edge">
<title>Node1&#45;&gt;Node6</title>
<g id="a_edge5_Node000001_Node000006"><a xlink:title=" ">
<path fill="none" stroke="#63b8ff" d="M731.39,-46.02C711.25,-41.06 687.67,-35.25 666.4,-30.01"/>
<polygon fill="#63b8ff" stroke="#63b8ff" points="730.73,-49.46 741.27,-48.46 732.4,-42.67 730.73,-49.46"/>
</a>
</g>
</g>
<!-- Node3 -->
<g id="Node000003" class="node">
<title>Node3</title>
<g id="a_Node000003"><a xlink:href="classHHGate2D.html#a2f3690fb810e9629e9a95482518ae042" target="_top" xlink:title=" ">
<polygon fill="white" stroke="#666666" points="480.5,-104.5 364.5,-104.5 364.5,-85.5 480.5,-85.5 480.5,-104.5"/>
<text text-anchor="middle" x="422.5" y="-92.5" font-family="Ubuntu Mono" font-size="10.00">HHGate2D::initCinfo</text>
</a>
</g>
</g>
<!-- Node2&#45;&gt;Node3 -->
<g id="edge2_Node000002_Node000003" class="edge">
<title>Node2&#45;&gt;Node3</title>
<g id="a_edge2_Node000002_Node000003"><a xlink:title=" ">
<path fill="none" stroke="#63b8ff" d="M534.29,-95C516.59,-95 497.76,-95 480.73,-95"/>
<polygon fill="#63b8ff" stroke="#63b8ff" points="534.56,-98.5 544.56,-95 534.56,-91.5 534.56,-98.5"/>
</a>
</g>
</g>
<!-- Node4 -->
<g id="Node000004" class="node">
<title>Node4</title>
<g id="a_Node000004"><a xlink:href="classHHChannel2D.html#a5800af098b3e10bdf6563db3504e2cae" target="_top" xlink:title=" ">
<polygon fill="white" stroke="#666666" points="310.5,-104.5 178.5,-104.5 178.5,-85.5 310.5,-85.5 310.5,-104.5"/>
<text text-anchor="middle" x="244.5" y="-92.5" font-family="Ubuntu Mono" font-size="10.00">HHChannel2D::initCinfo</text>
</a>
</g>
</g>
<!-- Node3&#45;&gt;Node4 -->
<g id="edge3_Node000003_Node000004" class="edge">
<title>Node3&#45;&gt;Node4</title>
<g id="a_edge3_Node000003_Node000004"><a xlink:title=" ">
<path fill="none" stroke="#63b8ff" d="M354.12,-95C339.84,-95 324.79,-95 310.6,-95"/>
<polygon fill="#63b8ff" stroke="#63b8ff" points="354.36,-98.5 364.36,-95 354.36,-91.5 354.36,-98.5"/>
</a>
</g>
</g>
<!-- Node7 -->
<g id="Node000007" class="node">
<title>Node7</title>
<g id="a_Node000007"><a xlink:href="classMarkovSolverBase.html#a7d7019f4bb80b05815ede3c4252d2b51" target="_top" xlink:title=" ">
<polygon fill="white" stroke="#666666" points="487,-24.5 358,-24.5 358,-5.5 487,-5.5 487,-24.5"/>
<text text-anchor="middle" x="422.5" y="-12.5" font-family="Ubuntu Mono" font-size="10.00">MarkovSolverBase::init</text>
</a>
</g>
</g>
<!-- Node6&#45;&gt;Node7 -->
<g id="edge6_Node000006_Node000007" class="edge">
<title>Node6&#45;&gt;Node7</title>
<g id="a_edge6_Node000006_Node000007"><a xlink:title=" ">
<path fill="none" stroke="#63b8ff" d="M512.83,-15C504.18,-15 495.53,-15 487.21,-15"/>
<polygon fill="#63b8ff" stroke="#63b8ff" points="512.98,-18.5 522.98,-15 512.98,-11.5 512.98,-18.5"/>
</a>
</g>
</g>
<!-- Node8 -->
<g id="Node000008" class="node">
<title>Node8</title>
<g id="a_Node000008"><a xlink:href="classMarkovSolverBase.html#a8d94098ef919eb390369a92c6d551500" target="_top" xlink:title=" ">
<polygon fill="white" stroke="#666666" points="322,-24.5 167,-24.5 167,-5.5 322,-5.5 322,-24.5"/>
<text text-anchor="middle" x="244.5" y="-12.5" font-family="Ubuntu Mono" font-size="10.00">MarkovSolverBase::initCinfo</text>
</a>
</g>
</g>
<!-- Node7&#45;&gt;Node8 -->
<g id="edge7_Node000007_Node000008" class="edge">
<title>Node7&#45;&gt;Node8</title>
<g id="a_edge7_Node000007_Node000008"><a xlink:title=" ">
<path fill="none" stroke="#63b8ff" d="M347.75,-15C339.29,-15 330.65,-15 322.15,-15"/>
<polygon fill="#63b8ff" stroke="#63b8ff" points="347.96,-18.5 357.96,-15 347.96,-11.5 347.96,-18.5"/>
</a>
</g>
</g>
<!-- Node9 -->
<g id="Node000009" class="node">
<title>Node9</title>
<g id="a_Node000009"><a xlink:href="classMarkovSolver.html#a780b0cc742d99f1eef6996f08f85bf34" target="_top" xlink:title=" ">
<polygon fill="white" stroke="#666666" points="131,-24.5 0,-24.5 0,-5.5 131,-5.5 131,-24.5"/>
<text text-anchor="middle" x="65.5" y="-12.5" font-family="Ubuntu Mono" font-size="10.00">MarkovSolver::initCinfo</text>
</a>
</g>
</g>
<!-- Node8&#45;&gt;Node9 -->
<g id="edge8_Node000008_Node000009" class="edge">
<title>Node8&#45;&gt;Node9</title>
<g id="a_edge8_Node000008_Node000009"><a xlink:title=" ">
<path fill="none" stroke="#63b8ff" d="M156.75,-15C148.09,-15 139.4,-15 131.03,-15"/>
<polygon fill="#63b8ff" stroke="#63b8ff" points="156.89,-18.5 166.89,-15 156.89,-11.5 156.89,-18.5"/>
</a>
</g>
</g>
</g>
</svg>
