<?xml version="1.0" encoding="UTF-8" standalone="no"?>
<!DOCTYPE svg PUBLIC "-//W3C//DTD SVG 1.1//EN"
 "http://www.w3.org/Graphics/SVG/1.1/DTD/svg11.dtd">
<!-- Generated by graphviz version 2.43.0 (0)
 -->
<!-- Title: CaConcBase::vSetB Pages: 1 -->
<!--zoomable 139 -->

<svg id="main" version="1.1" xmlns="http://www.w3.org/2000/svg" xmlns:xlink="http://www.w3.org/1999/xlink" xml:space="preserve" onload="init(evt)">
<style type="text/css"><![CDATA[
.node, .edge {opacity: 0.7;}
.node.selected, .edge.selected {opacity: 1;}
.edge:hover path { stroke: red; }
.edge:hover polygon { stroke: red; fill: red; }
]]></style>

<defs>
  <circle id="rim" cx="0" cy="0" r="7"/>
  <circle id="rim2" cx="0" cy="0" r="3.5"/>
  <g id="zoomPlus">
    <use xlink:href="#rim" fill="#404040"><set attributeName="fill" to="#808080" begin="zoomplus.mouseover" end="zoomplus.mouseout"/></use>
    <path d="M-4,0h8M0,-4v8" fill="none" stroke="white" stroke-width="1.5" pointer-events="none"/>
  </g>
  <g id="zoomMin">
    <use xlink:href="#rim" fill="#404040"><set attributeName="fill" to="#808080" begin="zoomminus.mouseover" end="zoomminus.mouseout"/></use>
    <path d="M-4,0h8" fill="none" stroke="white" stroke-width="1.5" pointer-events="none"/>
  </g>
  <g id="arrowUp" transform="translate(30 24)">
    <use xlink:href="#rim"/>
    <path pointer-events="none" fill="none" stroke="white" stroke-width="1.5" d="M0,-3.0v7 M-2.5,-0.5L0,-3.0L2.5,-0.5"/>
  </g>
  <g id="arrowRight" transform="rotate(90) translate(36 -43)">
    <use xlink:href="#rim"/>
    <path pointer-events="none" fill="none" stroke="white" stroke-width="1.5" d="M0,-3.0v7 M-2.5,-0.5L0,-3.0L2.5,-0.5"/>
  </g>
  <g id="arrowDown" transform="rotate(180) translate(-30 -48)">
    <use xlink:href="#rim"/>
    <path pointer-events="none" fill="none" stroke="white" stroke-width="1.5" d="M0,-3.0v7 M-2.5,-0.5L0,-3.0L2.5,-0.5"/>
  </g>
  <g id="arrowLeft" transform="rotate(270) translate(-36 17)">
    <use xlink:href="#rim"/>
    <path pointer-events="none" fill="none" stroke="white" stroke-width="1.5" d="M0,-3.0v7 M-2.5,-0.5L0,-3.0L2.5,-0.5"/>
  </g>
  <g id="resetDef">
    <use xlink:href="#rim2" fill="#404040"><set attributeName="fill" to="#808080" begin="reset.mouseover" end="reset.mouseout"/></use>
  </g>
</defs>
<script type="application/ecmascript">
var viewWidth = 1392;
var viewHeight = 139;
var sectionId = 'dynsection-66';
</script>
<script type="application/ecmascript" xlink:href="svg.min.js"/>
<svg id="graph" class="graph">
<g id="viewport">
<title>CaConcBase::vSetB</title>
<!-- Node1 -->
<g id="Node000001" class="node">
<title>Node1</title>
<g id="a_Node000001"><a xlink:title=" ">
<polygon fill="#999999" stroke="#666666" points="1384,-93 1272,-93 1272,-74 1384,-74 1384,-93"/>
<text text-anchor="middle" x="1328" y="-81" font-family="Ubuntu Mono" font-size="10.00">CaConcBase::vSetB</text>
</a>
</g>
</g>
<!-- Node2 -->
<g id="Node000002" class="node">
<title>Node2</title>
<g id="a_Node000002"><a xlink:href="classCaConcBase.html#ae14fde88dba941faeca0696ed91ccbcf" target="_top" xlink:title=" ">
<polygon fill="white" stroke="#666666" points="1004,-130 899,-130 899,-111 1004,-111 1004,-130"/>
<text text-anchor="middle" x="951.5" y="-118" font-family="Ubuntu Mono" font-size="10.00">CaConcBase::setB</text>
</a>
</g>
</g>
<!-- Node1&#45;&gt;Node2 -->
<g id="edge1_Node000001_Node000002" class="edge">
<title>Node1&#45;&gt;Node2</title>
<g id="a_edge1_Node000001_Node000002"><a xlink:title=" ">
<path fill="none" stroke="#63b8ff" d="M1261.71,-89.95C1188.47,-97.19 1071.17,-108.78 1004.07,-115.41"/>
<polygon fill="#63b8ff" stroke="#63b8ff" points="1262.13,-93.43 1271.74,-88.96 1261.45,-86.46 1262.13,-93.43"/>
</a>
</g>
</g>
<!-- Node13 -->
<g id="Node000013" class="node">
<title>Node13</title>
<g id="a_Node000013"><a xlink:href="classCaConcBase.html#a01defb7ba8e014f0f6b4a6d0923ddbee" target="_top" xlink:title=" ">
<polygon fill="white" stroke="#666666" points="1236,-74 1061,-74 1061,-55 1236,-55 1236,-74"/>
<text text-anchor="middle" x="1148.5" y="-62" font-family="Ubuntu Mono" font-size="10.00">CaConcBase::updateDimensions</text>
</a>
</g>
</g>
<!-- Node1&#45;&gt;Node13 -->
<g id="edge14_Node000001_Node000013" class="edge">
<title>Node1&#45;&gt;Node13</title>
<g id="a_edge14_Node000001_Node000013"><a xlink:title=" ">
<path fill="none" stroke="#63b8ff" d="M1261.82,-76.52C1253.5,-75.63 1244.87,-74.71 1236.27,-73.79"/>
<polygon fill="#63b8ff" stroke="#63b8ff" points="1261.5,-80.01 1271.81,-77.59 1262.24,-73.05 1261.5,-80.01"/>
</a>
</g>
</g>
<!-- Node3 -->
<g id="Node000003" class="node">
<title>Node3</title>
<g id="a_Node000003"><a xlink:href="classCaConcBase.html#a11b4a454361bd05ad9fa135a931f0e88" target="_top" xlink:title=" ">
<polygon fill="white" stroke="#666666" points="842,-93 717,-93 717,-74 842,-74 842,-93"/>
<text text-anchor="middle" x="779.5" y="-81" font-family="Ubuntu Mono" font-size="10.00">CaConcBase::initCinfo</text>
</a>
</g>
</g>
<!-- Node2&#45;&gt;Node3 -->
<g id="edge2_Node000002_Node000003" class="edge">
<title>Node2&#45;&gt;Node3</title>
<g id="a_edge2_Node000002_Node000003"><a xlink:title=" ">
<path fill="none" stroke="#63b8ff" d="M896.65,-108.78C873.37,-103.71 846.47,-97.86 824.43,-93.06"/>
<polygon fill="#63b8ff" stroke="#63b8ff" points="896.21,-112.26 906.72,-110.97 897.69,-105.42 896.21,-112.26"/>
</a>
</g>
</g>
<!-- Node12 -->
<g id="Node000012" class="node">
<title>Node12</title>
<g id="a_Node000012"><a xlink:href="classCaConcBase.html#a6f85962bb1f7f8dc2085c30042632819" target="_top" xlink:title=" ">
<polygon fill="white" stroke="#666666" points="840.5,-56 718.5,-56 718.5,-37 840.5,-37 840.5,-56"/>
<text text-anchor="middle" x="779.5" y="-44" font-family="Ubuntu Mono" font-size="10.00">CaConcBase::zombify</text>
</a>
</g>
</g>
<!-- Node2&#45;&gt;Node12 -->
<g id="edge11_Node000002_Node000012" class="edge">
<title>Node2&#45;&gt;Node12</title>
<g id="a_edge11_Node000002_Node000012"><a xlink:title=" ">
<path fill="none" stroke="#63b8ff" d="M889.4,-108.03C885.45,-106.4 881.61,-104.57 878,-102.5 858.1,-91.08 861.57,-77.48 842,-65.5 835.81,-61.71 828.79,-58.62 821.77,-56.11"/>
<polygon fill="#63b8ff" stroke="#63b8ff" points="888.21,-111.32 898.8,-111.45 890.6,-104.74 888.21,-111.32"/>
</a>
</g>
</g>
<!-- Node4 -->
<g id="Node000004" class="node">
<title>Node4</title>
<g id="a_Node000004"><a xlink:href="classCaConc.html#a5364ccac336082a8a1f38ba233e6f868" target="_top" xlink:title=" ">
<polygon fill="white" stroke="#666666" points="662.5,-131 561.5,-131 561.5,-112 662.5,-112 662.5,-131"/>
<text text-anchor="middle" x="612" y="-119" font-family="Ubuntu Mono" font-size="10.00">CaConc::initCinfo</text>
</a>
</g>
</g>
<!-- Node3&#45;&gt;Node4 -->
<g id="edge3_Node000003_Node000004" class="edge">
<title>Node3&#45;&gt;Node4</title>
<g id="a_edge3_Node000003_Node000004"><a xlink:title=" ">
<path fill="none" stroke="#63b8ff" d="M726.69,-95.4C703.43,-100.74 676.35,-106.95 654.46,-111.98"/>
<polygon fill="#63b8ff" stroke="#63b8ff" points="727.77,-98.74 736.74,-93.09 726.21,-91.92 727.77,-98.74"/>
</a>
</g>
</g>
<!-- Node7 -->
<g id="Node000007" class="node">
<title>Node7</title>
<g id="a_Node000007"><a xlink:href="classZombieCaConc.html#adeaaa39d51af18e0212ebce3b4013c3e" target="_top" xlink:title=" ">
<polygon fill="white" stroke="#666666" points="681,-94 543,-94 543,-75 681,-75 681,-94"/>
<text text-anchor="middle" x="612" y="-82" font-family="Ubuntu Mono" font-size="10.00">ZombieCaConc::initCinfo</text>
</a>
</g>
</g>
<!-- Node3&#45;&gt;Node7 -->
<g id="edge6_Node000003_Node000007" class="edge">
<title>Node3&#45;&gt;Node7</title>
<g id="a_edge6_Node000003_Node000007"><a xlink:title=" ">
<path fill="none" stroke="#63b8ff" d="M706.63,-83.93C698.14,-83.99 689.5,-84.04 681.07,-84.09"/>
<polygon fill="#63b8ff" stroke="#63b8ff" points="706.9,-87.43 716.87,-83.87 706.85,-80.43 706.9,-87.43"/>
</a>
</g>
</g>
<!-- Node5 -->
<g id="Node000005" class="node">
<title>Node5</title>
<g id="a_Node000005"><a xlink:href="classHSolve.html#a423981576f253b33c6e9091cb3ae0ea6" target="_top" xlink:title=" ">
<polygon fill="white" stroke="#666666" points="507,-93 399,-93 399,-74 507,-74 507,-93"/>
<text text-anchor="middle" x="453" y="-81" font-family="Ubuntu Mono" font-size="10.00">HSolve::unzombify</text>
</a>
</g>
</g>
<!-- Node4&#45;&gt;Node5 -->
<g id="edge4_Node000004_Node000005" class="edge">
<title>Node4&#45;&gt;Node5</title>
<g id="a_edge4_Node000004_Node000005"><a xlink:title=" ">
<path fill="none" stroke="#63b8ff" d="M561.55,-109.53C539.55,-104.21 514.01,-98.02 493.33,-93.02"/>
<polygon fill="#63b8ff" stroke="#63b8ff" points="560.84,-112.96 571.38,-111.91 562.49,-106.16 560.84,-112.96"/>
</a>
</g>
</g>
<!-- Node6 -->
<g id="Node000006" class="node">
<title>Node6</title>
<g id="a_Node000006"><a xlink:href="classHSolve.html#a1fadf7cb757bf5669e45b6a95433e1ee" target="_top" xlink:title=" ">
<polygon fill="white" stroke="#666666" points="363,-93 263,-93 263,-74 363,-74 363,-93"/>
<text text-anchor="middle" x="313" y="-81" font-family="Ubuntu Mono" font-size="10.00">HSolve::~HSolve</text>
</a>
</g>
</g>
<!-- Node5&#45;&gt;Node6 -->
<g id="edge5_Node000005_Node000006" class="edge">
<title>Node5&#45;&gt;Node6</title>
<g id="a_edge5_Node000005_Node000006"><a xlink:title=" ">
<path fill="none" stroke="#63b8ff" d="M388.39,-83.5C379.91,-83.5 371.33,-83.5 363.15,-83.5"/>
<polygon fill="#63b8ff" stroke="#63b8ff" points="388.65,-87 398.65,-83.5 388.65,-80 388.65,-87"/>
</a>
</g>
</g>
<!-- Node8 -->
<g id="Node000008" class="node">
<title>Node8</title>
<g id="a_Node000008"><a xlink:href="classHSolve.html#aa86d341407e0eb9928b085c9df38b06c" target="_top" xlink:title=" ">
<polygon fill="white" stroke="#666666" points="501,-56 405,-56 405,-37 501,-37 501,-56"/>
<text text-anchor="middle" x="453" y="-44" font-family="Ubuntu Mono" font-size="10.00">HSolve::zombify</text>
</a>
</g>
</g>
<!-- Node7&#45;&gt;Node8 -->
<g id="edge7_Node000007_Node000008" class="edge">
<title>Node7&#45;&gt;Node8</title>
<g id="a_edge7_Node000007_Node000008"><a xlink:title=" ">
<path fill="none" stroke="#63b8ff" d="M561.55,-72.53C539.55,-67.21 514.01,-61.02 493.33,-56.02"/>
<polygon fill="#63b8ff" stroke="#63b8ff" points="560.84,-75.96 571.38,-74.91 562.49,-69.16 560.84,-75.96"/>
</a>
</g>
</g>
<!-- Node9 -->
<g id="Node000009" class="node">
<title>Node9</title>
<g id="a_Node000009"><a xlink:href="classHSolve.html#a2e768e9eb17b2c732c9129c018889f79" target="_top" xlink:title=" ">
<polygon fill="white" stroke="#666666" points="355,-56 271,-56 271,-37 355,-37 355,-56"/>
<text text-anchor="middle" x="313" y="-44" font-family="Ubuntu Mono" font-size="10.00">HSolve::setup</text>
</a>
</g>
</g>
<!-- Node8&#45;&gt;Node9 -->
<g id="edge8_Node000008_Node000009" class="edge">
<title>Node8&#45;&gt;Node9</title>
<g id="a_edge8_Node000008_Node000009"><a xlink:title=" ">
<path fill="none" stroke="#63b8ff" d="M394.52,-46.5C381.38,-46.5 367.66,-46.5 355.36,-46.5"/>
<polygon fill="#63b8ff" stroke="#63b8ff" points="394.89,-50 404.89,-46.5 394.89,-43 394.89,-50"/>
</a>
</g>
</g>
<!-- Node10 -->
<g id="Node000010" class="node">
<title>Node10</title>
<g id="a_Node000010"><a xlink:href="classHSolve.html#a4d36de840ae2ff289981e77f779eb9dc" target="_top" xlink:title=" ">
<polygon fill="white" stroke="#666666" points="227,-56 134,-56 134,-37 227,-37 227,-56"/>
<text text-anchor="middle" x="180.5" y="-44" font-family="Ubuntu Mono" font-size="10.00">HSolve::setPath</text>
</a>
</g>
</g>
<!-- Node9&#45;&gt;Node10 -->
<g id="edge9_Node000009_Node000010" class="edge">
<title>Node9&#45;&gt;Node10</title>
<g id="a_edge9_Node000009_Node000010"><a xlink:title=" ">
<path fill="none" stroke="#63b8ff" d="M260.71,-46.5C249.6,-46.5 237.92,-46.5 227.05,-46.5"/>
<polygon fill="#63b8ff" stroke="#63b8ff" points="260.71,-50 270.71,-46.5 260.71,-43 260.71,-50"/>
</a>
</g>
</g>
<!-- Node11 -->
<g id="Node000011" class="node">
<title>Node11</title>
<g id="a_Node000011"><a xlink:href="classHSolve.html#a3d60964bbc6441f73c04fe702faba848" target="_top" xlink:title="Interface to external channels.">
<polygon fill="white" stroke="#666666" points="98,-56 0,-56 0,-37 98,-37 98,-56"/>
<text text-anchor="middle" x="49" y="-44" font-family="Ubuntu Mono" font-size="10.00">HSolve::initCinfo</text>
</a>
</g>
</g>
<!-- Node10&#45;&gt;Node11 -->
<g id="edge10_Node000010_Node000011" class="edge">
<title>Node10&#45;&gt;Node11</title>
<g id="a_edge10_Node000010_Node000011"><a xlink:title=" ">
<path fill="none" stroke="#63b8ff" d="M123.68,-46.5C115.24,-46.5 106.59,-46.5 98.32,-46.5"/>
<polygon fill="#63b8ff" stroke="#63b8ff" points="123.84,-50 133.84,-46.5 123.84,-43 123.84,-50"/>
</a>
</g>
</g>
<!-- Node12&#45;&gt;Node5 -->
<g id="edge12_Node000012_Node000005" class="edge">
<title>Node12&#45;&gt;Node5</title>
<g id="a_edge12_Node000012_Node000005"><a xlink:title=" ">
<path fill="none" stroke="#63b8ff" d="M708.24,-50.55C661.31,-53.72 598.29,-58.89 543,-66.5 528.66,-68.47 513.14,-71.22 499.13,-73.94"/>
<polygon fill="#63b8ff" stroke="#63b8ff" points="708.55,-54.04 718.3,-49.88 708.09,-47.05 708.55,-54.04"/>
</a>
</g>
</g>
<!-- Node12&#45;&gt;Node8 -->
<g id="edge13_Node000012_Node000008" class="edge">
<title>Node12&#45;&gt;Node8</title>
<g id="a_edge13_Node000012_Node000008"><a xlink:title=" ">
<path fill="none" stroke="#63b8ff" d="M711.76,-35.63C701.49,-34.33 690.98,-33.21 681,-32.5 619.82,-28.13 604.15,-27.72 543,-32.5 529.43,-33.56 514.81,-35.52 501.41,-37.64"/>
<polygon fill="#63b8ff" stroke="#63b8ff" points="711.56,-39.14 721.94,-36.99 712.48,-32.2 711.56,-39.14"/>
</a>
</g>
</g>
<!-- Node14 -->
<g id="Node000014" class="node">
<title>Node14</title>
<g id="a_Node000014"><a xlink:href="classCaConcBase.html#a4081e4e003ba28f1934bb6de3953ce7f" target="_top" xlink:title=" ">
<polygon fill="white" stroke="#666666" points="1023.5,-93 879.5,-93 879.5,-74 1023.5,-74 1023.5,-93"/>
<text text-anchor="middle" x="951.5" y="-81" font-family="Ubuntu Mono" font-size="10.00">CaConcBase::setDiameter</text>
</a>
</g>
</g>
<!-- Node13&#45;&gt;Node14 -->
<g id="edge15_Node000013_Node000014" class="edge">
<title>Node13&#45;&gt;Node14</title>
<g id="a_edge15_Node000013_Node000014"><a xlink:title=" ">
<path fill="none" stroke="#63b8ff" d="M1050.62,-73.94C1041.55,-74.82 1032.48,-75.71 1023.71,-76.56"/>
<polygon fill="#63b8ff" stroke="#63b8ff" points="1051.22,-77.4 1060.83,-72.94 1050.54,-70.43 1051.22,-77.4"/>
</a>
</g>
</g>
<!-- Node15 -->
<g id="Node000015" class="node">
<title>Node15</title>
<g id="a_Node000015"><a xlink:href="classCaConcBase.html#ab7ca9cbab65b29b9a45fc8f20a881f44" target="_top" xlink:title=" ">
<polygon fill="white" stroke="#666666" points="1017,-56 886,-56 886,-37 1017,-37 1017,-56"/>
<text text-anchor="middle" x="951.5" y="-44" font-family="Ubuntu Mono" font-size="10.00">CaConcBase::setLength</text>
</a>
</g>
</g>
<!-- Node13&#45;&gt;Node15 -->
<g id="edge18_Node000013_Node000015" class="edge">
<title>Node13&#45;&gt;Node15</title>
<g id="a_edge18_Node000013_Node000015"><a xlink:title=" ">
<path fill="none" stroke="#63b8ff" d="M1050.84,-55.58C1039.45,-54.53 1028.05,-53.47 1017.25,-52.48"/>
<polygon fill="#63b8ff" stroke="#63b8ff" points="1050.56,-59.07 1060.83,-56.5 1051.2,-52.1 1050.56,-59.07"/>
</a>
</g>
</g>
<!-- Node16 -->
<g id="Node000016" class="node">
<title>Node16</title>
<g id="a_Node000016"><a xlink:href="classCaConcBase.html#a0eb05d8c1d3f928fa0a07c773ee82e52" target="_top" xlink:title=" ">
<polygon fill="white" stroke="#666666" points="1025,-19 878,-19 878,0 1025,0 1025,-19"/>
<text text-anchor="middle" x="951.5" y="-7" font-family="Ubuntu Mono" font-size="10.00">CaConcBase::setThickness</text>
</a>
</g>
</g>
<!-- Node13&#45;&gt;Node16 -->
<g id="edge21_Node000013_Node000016" class="edge">
<title>Node13&#45;&gt;Node16</title>
<g id="a_edge21_Node000013_Node000016"><a xlink:title=" ">
<path fill="none" stroke="#63b8ff" d="M1107.65,-51.91C1083.76,-44.51 1052.74,-35.13 1025,-27.5 1014.5,-24.61 1003.08,-21.68 992.48,-19.05"/>
<polygon fill="#63b8ff" stroke="#63b8ff" points="1106.83,-55.32 1117.42,-54.96 1108.91,-48.64 1106.83,-55.32"/>
</a>
</g>
</g>
<!-- Node14&#45;&gt;Node3 -->
<g id="edge16_Node000014_Node000003" class="edge">
<title>Node14&#45;&gt;Node3</title>
<g id="a_edge16_Node000014_Node000003"><a xlink:title=" ">
<path fill="none" stroke="#63b8ff" d="M869.17,-83.5C860.08,-83.5 850.93,-83.5 842.14,-83.5"/>
<polygon fill="#63b8ff" stroke="#63b8ff" points="869.39,-87 879.39,-83.5 869.39,-80 869.39,-87"/>
</a>
</g>
</g>
<!-- Node14&#45;&gt;Node12 -->
<g id="edge17_Node000014_Node000012" class="edge">
<title>Node14&#45;&gt;Node12</title>
<g id="a_edge17_Node000014_Node000012"><a xlink:title=" ">
<path fill="none" stroke="#63b8ff" d="M896.65,-71.78C873.37,-66.71 846.47,-60.86 824.43,-56.06"/>
<polygon fill="#63b8ff" stroke="#63b8ff" points="896.21,-75.26 906.72,-73.97 897.69,-68.42 896.21,-75.26"/>
</a>
</g>
</g>
<!-- Node15&#45;&gt;Node3 -->
<g id="edge19_Node000015_Node000003" class="edge">
<title>Node15&#45;&gt;Node3</title>
<g id="a_edge19_Node000015_Node000003"><a xlink:title=" ">
<path fill="none" stroke="#63b8ff" d="M896.65,-58.22C873.37,-63.29 846.47,-69.14 824.43,-73.94"/>
<polygon fill="#63b8ff" stroke="#63b8ff" points="897.69,-61.58 906.72,-56.03 896.21,-54.74 897.69,-61.58"/>
</a>
</g>
</g>
<!-- Node15&#45;&gt;Node12 -->
<g id="edge20_Node000015_Node000012" class="edge">
<title>Node15&#45;&gt;Node12</title>
<g id="a_edge20_Node000015_Node000012"><a xlink:title=" ">
<path fill="none" stroke="#63b8ff" d="M875.56,-46.5C863.86,-46.5 851.91,-46.5 840.6,-46.5"/>
<polygon fill="#63b8ff" stroke="#63b8ff" points="875.75,-50 885.75,-46.5 875.75,-43 875.75,-50"/>
</a>
</g>
</g>
<!-- Node16&#45;&gt;Node3 -->
<g id="edge22_Node000016_Node000003" class="edge">
<title>Node16&#45;&gt;Node3</title>
<g id="a_edge22_Node000016_Node000003"><a xlink:title=" ">
<path fill="none" stroke="#63b8ff" d="M887.44,-22.74C884.17,-24.17 881,-25.75 878,-27.5 857.9,-39.22 861.85,-53.37 842,-65.5 836.49,-68.86 830.33,-71.63 824.08,-73.89"/>
<polygon fill="#63b8ff" stroke="#63b8ff" points="888.79,-25.97 896.86,-19.1 886.27,-19.44 888.79,-25.97"/>
</a>
</g>
</g>
<!-- Node16&#45;&gt;Node12 -->
<g id="edge23_Node000016_Node000012" class="edge">
<title>Node16&#45;&gt;Node12</title>
<g id="a_edge23_Node000016_Node000012"><a xlink:title=" ">
<path fill="none" stroke="#63b8ff" d="M896.65,-21.22C873.37,-26.29 846.47,-32.14 824.43,-36.94"/>
<polygon fill="#63b8ff" stroke="#63b8ff" points="897.69,-24.58 906.72,-19.03 896.21,-17.74 897.69,-24.58"/>
</a>
</g>
</g>
</g>
</svg>

<g id="navigator" transform="translate(0 0)" fill="#404254">
  <rect fill="#f2f5e9" fill-opacity="0.5" stroke="#606060" stroke-width=".5" x="0" y="0" width="60" height="60"/>
  <use id="zoomplus" xlink:href="#zoomPlus" x="17" y="9" onmousedown="handleZoom(evt,'in')"/>
  <use id="zoomminus" xlink:href="#zoomMin" x="42" y="9" onmousedown="handleZoom(evt,'out')"/>
  <use id="reset" xlink:href="#resetDef" x="30" y="36" onmousedown="handleReset()"/>
   <use id="arrowup" xlink:href="#arrowUp" x="0" y="0" onmousedown="handlePan(0,-1)"/>
  <use id="arrowright" xlink:href="#arrowRight" x="0" y="0" onmousedown="handlePan(1,0)"/>
  <use id="arrowdown" xlink:href="#arrowDown" x="0" y="0" onmousedown="handlePan(0,1)"/>
  <use id="arrowleft" xlink:href="#arrowLeft" x="0" y="0" onmousedown="handlePan(-1,0)"/>
</g>
<svg viewBox="0 0 15 15" width="100%" height="30px" preserveAspectRatio="xMaxYMin meet">
 <g id="arrow_out" transform="scale(0.3 0.3)">
  <a xlink:href="classCaConcBase_a99e1735f805de784a5a4e634fdde022b_icgraph_org.svg" target="_base">
   <rect id="button" ry="5" rx="5" y="6" x="6" height="38" width="38"
        fill="#f2f5e9" fill-opacity="0.5" stroke="#606060" stroke-width="1.0"/>
   <path id="arrow"
     d="M 11.500037,31.436501 C 11.940474,20.09759 22.043105,11.32322 32.158766,21.979434 L 37.068811,17.246167 C 37.068811,17.246167 37.088388,32 37.088388,32 L 22.160133,31.978069 C 22.160133,31.978069 26.997745,27.140456 26.997745,27.140456 C 18.528582,18.264221 13.291696,25.230495 11.500037,31.436501 z"
     style="fill:#404040;"/>
  </a>
 </g>
</svg>

<style type='text/css'>
<![CDATA[
[data-mouse-over-selected='false'] { opacity: 0.7; }
[data-mouse-over-selected='true']  { opacity: 1.0; }
]]>
</style>
<script type="application/ecmascript"><![CDATA[
document.addEventListener('DOMContentLoaded', (event) => {
  highlightEdges();
  highlightAdjacentNodes();
});
]]></script>
</svg>
