<?xml version="1.0" encoding="UTF-8" standalone="no"?>
<!DOCTYPE svg PUBLIC "-//W3C//DTD SVG 1.1//EN"
 "http://www.w3.org/Graphics/SVG/1.1/DTD/svg11.dtd">
<!-- Generated by graphviz version 2.43.0 (0)
 -->
<!-- Title: SpineEntry::rootArea Pages: 1 -->
<svg width="527pt" height="104pt"
 viewBox="0.00 0.00 527.00 104.00" xmlns="http://www.w3.org/2000/svg" xmlns:xlink="http://www.w3.org/1999/xlink">
<g id="graph0" class="graph" transform="scale(1 1) rotate(0) translate(4 100)">
<title>SpineEntry::rootArea</title>
<!-- Node1 -->
<g id="Node000001" class="node">
<title>Node1</title>
<g id="a_Node000001"><a xlink:title=" ">
<polygon fill="#999999" stroke="#666666" points="519,-74 403,-74 403,-55 519,-55 519,-74"/>
<text text-anchor="middle" x="461" y="-62" font-family="Ubuntu Mono" font-size="10.00">SpineEntry::rootArea</text>
</a>
</g>
</g>
<!-- Node2 -->
<g id="Node000002" class="node">
<title>Node2</title>
<g id="a_Node000002"><a xlink:href="classSpineMesh.html#abf7db6994f920d5966037928321fe3c5" target="_top" xlink:title=" ">
<polygon fill="white" stroke="#666666" points="362.5,-96 209.5,-96 209.5,-77 362.5,-77 362.5,-96"/>
<text text-anchor="middle" x="286" y="-84" font-family="Ubuntu Mono" font-size="10.00">SpineMesh::handleSpineList</text>
</a>
</g>
</g>
<!-- Node1&#45;&gt;Node2 -->
<g id="edge1_Node000001_Node000002" class="edge">
<title>Node1&#45;&gt;Node2</title>
<g id="a_edge1_Node000001_Node000002"><a xlink:title=" ">
<path fill="none" stroke="#63b8ff" d="M392.89,-73.03C382.75,-74.32 372.25,-75.66 361.96,-76.97"/>
<polygon fill="#63b8ff" stroke="#63b8ff" points="393.4,-76.5 402.87,-71.76 392.51,-69.55 393.4,-76.5"/>
</a>
</g>
</g>
<!-- Node4 -->
<g id="Node000004" class="node">
<title>Node4</title>
<g id="a_Node000004"><a xlink:href="classSpineMesh.html#a0e2e7d002152dfc0562accc9932e8a00" target="_top" xlink:title=" ">
<polygon fill="white" stroke="#666666" points="367,-58.5 205,-58.5 205,-28.5 367,-28.5 367,-58.5"/>
<text text-anchor="start" x="213" y="-46.5" font-family="Ubuntu Mono" font-size="10.00">SpineMesh::matchNeuroMesh</text>
<text text-anchor="middle" x="286" y="-35.5" font-family="Ubuntu Mono" font-size="10.00">Entries</text>
</a>
</g>
</g>
<!-- Node1&#45;&gt;Node4 -->
<g id="edge3_Node000001_Node000004" class="edge">
<title>Node1&#45;&gt;Node4</title>
<g id="a_edge3_Node000001_Node000004"><a xlink:title=" ">
<path fill="none" stroke="#63b8ff" d="M392.8,-56.34C384.42,-55.33 375.79,-54.28 367.24,-53.24"/>
<polygon fill="#63b8ff" stroke="#63b8ff" points="392.52,-59.83 402.87,-57.57 393.37,-52.89 392.52,-59.83"/>
</a>
</g>
</g>
<!-- Node3 -->
<g id="Node000003" class="node">
<title>Node3</title>
<g id="a_Node000003"><a xlink:href="classSpineMesh.html#ae7bb51c2e7cf67fe3df6881eb256c4f4" target="_top" xlink:title=" ">
<polygon fill="white" stroke="#666666" points="143,-96 26,-96 26,-77 143,-77 143,-96"/>
<text text-anchor="middle" x="84.5" y="-84" font-family="Ubuntu Mono" font-size="10.00">SpineMesh::initCinfo</text>
</a>
</g>
</g>
<!-- Node2&#45;&gt;Node3 -->
<g id="edge2_Node000002_Node000003" class="edge">
<title>Node2&#45;&gt;Node3</title>
<g id="a_edge2_Node000002_Node000003"><a xlink:title=" ">
<path fill="none" stroke="#63b8ff" d="M199.17,-86.5C180.24,-86.5 160.63,-86.5 143.13,-86.5"/>
<polygon fill="#63b8ff" stroke="#63b8ff" points="199.29,-90 209.29,-86.5 199.29,-83 199.29,-90"/>
</a>
</g>
</g>
<!-- Node5 -->
<g id="Node000005" class="node">
<title>Node5</title>
<g id="a_Node000005"><a xlink:href="classNeuroMesh.html#a87f8811cba83e45b1a24c8da92aa0fc0" target="_top" xlink:title=" ">
<polygon fill="white" stroke="#666666" points="169,-56 0,-56 0,-37 169,-37 169,-56"/>
<text text-anchor="middle" x="84.5" y="-44" font-family="Ubuntu Mono" font-size="10.00">NeuroMesh::matchMeshEntries</text>
</a>
</g>
</g>
<!-- Node4&#45;&gt;Node5 -->
<g id="edge4_Node000004_Node000005" class="edge">
<title>Node4&#45;&gt;Node5</title>
<g id="a_edge4_Node000004_Node000005"><a xlink:title=" ">
<path fill="none" stroke="#63b8ff" d="M194.5,-44.86C186.08,-44.99 177.56,-45.12 169.2,-45.24"/>
<polygon fill="#63b8ff" stroke="#63b8ff" points="194.77,-48.36 204.72,-44.71 194.67,-41.36 194.77,-48.36"/>
</a>
</g>
</g>
<!-- Node6 -->
<g id="Node000006" class="node">
<title>Node6</title>
<g id="a_Node000006"><a xlink:href="classSpineMesh.html#a64e7b686dbb5cbda0c92b0e4dfc43393" target="_top" xlink:title=" ">
<polygon fill="white" stroke="#666666" points="168,-19 1,-19 1,0 168,0 168,-19"/>
<text text-anchor="middle" x="84.5" y="-7" font-family="Ubuntu Mono" font-size="10.00">SpineMesh::matchMeshEntries</text>
</a>
</g>
</g>
<!-- Node4&#45;&gt;Node6 -->
<g id="edge5_Node000004_Node000006" class="edge">
<title>Node4&#45;&gt;Node6</title>
<g id="a_edge5_Node000004_Node000006"><a xlink:title=" ">
<path fill="none" stroke="#63b8ff" d="M194.7,-28.11C176.55,-25.02 157.99,-21.85 141.43,-19.03"/>
<polygon fill="#63b8ff" stroke="#63b8ff" points="194.27,-31.59 204.72,-29.82 195.45,-24.69 194.27,-31.59"/>
</a>
</g>
</g>
</g>
</svg>
