<?xml version="1.0" encoding="UTF-8" standalone="no"?>
<!DOCTYPE svg PUBLIC "-//W3C//DTD SVG 1.1//EN"
 "http://www.w3.org/Graphics/SVG/1.1/DTD/svg11.dtd">
<!-- Generated by graphviz version 2.43.0 (0)
 -->
<!-- Title: SocketStreamer::removeTables Pages: 1 -->
<svg width="1343pt" height="663pt"
 viewBox="0.00 0.00 1343.00 663.00" xmlns="http://www.w3.org/2000/svg" xmlns:xlink="http://www.w3.org/1999/xlink">
<g id="graph0" class="graph" transform="scale(1 1) rotate(0) translate(4 659)">
<title>SocketStreamer::removeTables</title>
<!-- Node1 -->
<g id="Node000001" class="node">
<title>Node1</title>
<g id="a_Node000001"><a xlink:title="Remove multiple tables – if found – from SocketStreamer.">
<polygon fill="#999999" stroke="#666666" points="168,-372 0,-372 0,-353 168,-353 168,-372"/>
<text text-anchor="middle" x="84" y="-360" font-family="Ubuntu Mono" font-size="10.00">SocketStreamer::removeTables</text>
</a>
</g>
</g>
<!-- Node2 -->
<g id="Node000002" class="node">
<title>Node2</title>
<g id="a_Node000002"><a xlink:href="classSocketStreamer.html#a3db9e71c4f660606781ed9cedcb82177" target="_top" xlink:title="Remove a table from SocketStreamer.">
<polygon fill="white" stroke="#666666" points="367,-372 204,-372 204,-353 367,-353 367,-372"/>
<text text-anchor="middle" x="285.5" y="-360" font-family="Ubuntu Mono" font-size="10.00">SocketStreamer::removeTable</text>
</a>
</g>
</g>
<!-- Node1&#45;&gt;Node2 -->
<g id="edge1_Node000001_Node000002" class="edge">
<title>Node1&#45;&gt;Node2</title>
<g id="a_edge1_Node000001_Node000002"><a xlink:title=" ">
<path fill="none" stroke="#63b8ff" d="M168.16,-362.5C176.52,-362.5 185.04,-362.5 193.48,-362.5"/>
<polygon fill="#63b8ff" stroke="#63b8ff" points="193.71,-366 203.71,-362.5 193.71,-359 193.71,-366"/>
</a>
</g>
</g>
<!-- Node3 -->
<g id="Node000003" class="node">
<title>Node3</title>
<g id="a_Node000003"><a xlink:href="classId.html#ad0984685af5a98bc7aa429b03a97bd01" target="_top" xlink:title=" ">
<polygon fill="white" stroke="#666666" points="464.5,-391 411.5,-391 411.5,-372 464.5,-372 464.5,-391"/>
<text text-anchor="middle" x="438" y="-379" font-family="Ubuntu Mono" font-size="10.00">Id::path</text>
</a>
</g>
</g>
<!-- Node2&#45;&gt;Node3 -->
<g id="edge2_Node000002_Node000003" class="edge">
<title>Node2&#45;&gt;Node3</title>
<g id="a_edge2_Node000002_Node000003"><a xlink:title=" ">
<path fill="none" stroke="#63b8ff" d="M362.19,-372.06C375.75,-373.77 389.3,-375.48 401.06,-376.96"/>
<polygon fill="#63b8ff" stroke="#63b8ff" points="400.95,-380.48 411.31,-378.26 401.83,-373.53 400.95,-380.48"/>
</a>
</g>
</g>
<!-- Node36 -->
<g id="Node000036" class="node">
<title>Node36</title>
<g id="a_Node000036"><a xlink:href="classObjId.html#a4d6f6e6b6f3c279334cf9f10a277df49" target="_top" xlink:title=" ">
<polygon fill="white" stroke="#666666" points="473,-354 403,-354 403,-335 473,-335 473,-354"/>
<text text-anchor="middle" x="438" y="-342" font-family="Ubuntu Mono" font-size="10.00">ObjId::path</text>
</a>
</g>
</g>
<!-- Node2&#45;&gt;Node36 -->
<g id="edge42_Node000002_Node000036" class="edge">
<title>Node2&#45;&gt;Node36</title>
<g id="a_edge42_Node000002_Node000036"><a xlink:title=" ">
<path fill="none" stroke="#63b8ff" d="M366.16,-352.97C375.18,-351.89 384.12,-350.82 392.45,-349.83"/>
<polygon fill="#63b8ff" stroke="#63b8ff" points="393.13,-353.27 402.64,-348.61 392.3,-346.32 393.13,-353.27"/>
</a>
</g>
</g>
<!-- Node4 -->
<g id="Node000004" class="node">
<title>Node4</title>
<g id="a_Node000004"><a xlink:href="classId.html#adac7a40d04024a7b9dcb7eae7b9fdf9b" target="_top" xlink:title=" ">
<polygon fill="white" stroke="#666666" points="705.5,-655 654.5,-655 654.5,-636 705.5,-636 705.5,-655"/>
<text text-anchor="middle" x="680" y="-643" font-family="Ubuntu Mono" font-size="10.00">Id::eref</text>
</a>
</g>
</g>
<!-- Node3&#45;&gt;Node4 -->
<g id="edge3_Node000003_Node000004" class="edge">
<title>Node3&#45;&gt;Node4</title>
<g id="a_edge3_Node000003_Node000004"><a xlink:title=" ">
<path fill="none" stroke="#63b8ff" d="M444.1,-391.11C463.27,-426.41 534.56,-550.6 625,-621.5 630.99,-626.2 638.06,-630.19 645.06,-633.49"/>
<polygon fill="#63b8ff" stroke="#63b8ff" points="643.9,-636.8 654.47,-637.56 646.68,-630.38 643.9,-636.8"/>
</a>
</g>
</g>
<!-- Node7 -->
<g id="Node000007" class="node">
<title>Node7</title>
<g id="a_Node000007"><a xlink:href="classNeutral.html#a93bee6d27f95c8c4c7eb3640cd883a98" target="_top" xlink:title=" ">
<polygon fill="white" stroke="#666666" points="589,-335 509,-335 509,-316 589,-316 589,-335"/>
<text text-anchor="middle" x="549" y="-323" font-family="Ubuntu Mono" font-size="10.00">Neutral::path</text>
</a>
</g>
</g>
<!-- Node3&#45;&gt;Node7 -->
<g id="edge6_Node000003_Node000007" class="edge">
<title>Node3&#45;&gt;Node7</title>
<g id="a_edge6_Node000003_Node000007"><a xlink:title=" ">
<path fill="none" stroke="#63b8ff" d="M457.99,-371.75C475.18,-362.91 500.72,-349.79 520.21,-339.78"/>
<polygon fill="#63b8ff" stroke="#63b8ff" points="521.94,-342.83 529.23,-335.14 518.74,-336.6 521.94,-342.83"/>
</a>
</g>
</g>
<!-- Node5 -->
<g id="Node000005" class="node">
<title>Node5</title>
<g id="a_Node000005"><a xlink:href="classId.html#a2d5e7b4d5d918aadfe45102691c2be27" target="_top" xlink:title=" ">
<polygon fill="white" stroke="#666666" points="1335,-626 1258,-626 1258,-607 1335,-607 1335,-626"/>
<text text-anchor="middle" x="1296.5" y="-614" font-family="Ubuntu Mono" font-size="10.00">Id::elements</text>
</a>
</g>
</g>
<!-- Node4&#45;&gt;Node5 -->
<g id="edge4_Node000004_Node000005" class="edge">
<title>Node4&#45;&gt;Node5</title>
<g id="a_edge4_Node000004_Node000005"><a xlink:title=" ">
<path fill="none" stroke="#63b8ff" d="M705.85,-644.33C798.36,-639.96 1123.79,-624.6 1247.39,-618.77"/>
<polygon fill="#63b8ff" stroke="#63b8ff" points="1247.84,-622.25 1257.67,-618.29 1247.51,-615.26 1247.84,-622.25"/>
</a>
</g>
</g>
<!-- Node6 -->
<g id="Node000006" class="node">
<title>Node6</title>
<g id="a_Node000006"><a xlink:href="classEref.html#a3addb850bc6cbac7771a07de219d909d" target="_top" xlink:title=" ">
<polygon fill="white" stroke="#666666" points="892.5,-579 831.5,-579 831.5,-560 892.5,-560 892.5,-579"/>
<text text-anchor="middle" x="862" y="-567" font-family="Ubuntu Mono" font-size="10.00">Eref::Eref</text>
</a>
</g>
</g>
<!-- Node4&#45;&gt;Node6 -->
<g id="edge5_Node000004_Node000006" class="edge">
<title>Node4&#45;&gt;Node6</title>
<g id="a_edge5_Node000004_Node000006"><a xlink:title=" ">
<path fill="none" stroke="#63b8ff" d="M703.8,-635.87C735.45,-622.51 792.85,-598.27 828.84,-583.08"/>
<polygon fill="#63b8ff" stroke="#63b8ff" points="830.54,-586.16 838.39,-579.05 827.81,-579.71 830.54,-586.16"/>
</a>
</g>
</g>
<!-- Node8 -->
<g id="Node000008" class="node">
<title>Node8</title>
<g id="a_Node000008"><a xlink:href="classEref.html#a47b59ab86165cceb0bde80c76c3f7fa2" target="_top" xlink:title=" ">
<polygon fill="white" stroke="#666666" points="721,-428 639,-428 639,-409 721,-409 721,-428"/>
<text text-anchor="middle" x="680" y="-416" font-family="Ubuntu Mono" font-size="10.00">Eref::element</text>
</a>
</g>
</g>
<!-- Node7&#45;&gt;Node8 -->
<g id="edge7_Node000007_Node000008" class="edge">
<title>Node7&#45;&gt;Node8</title>
<g id="a_edge7_Node000007_Node000008"><a xlink:title=" ">
<path fill="none" stroke="#63b8ff" d="M557.22,-335.22C569.47,-351.06 595.86,-382.49 625,-400.5 627.61,-402.11 630.37,-403.59 633.22,-404.96"/>
<polygon fill="#63b8ff" stroke="#63b8ff" points="631.94,-408.22 642.52,-408.92 634.69,-401.78 631.94,-408.22"/>
</a>
</g>
</g>
<!-- Node9 -->
<g id="Node000009" class="node">
<title>Node9</title>
<g id="a_Node000009"><a xlink:href="classObjId.html#ad87d6d712e4bceb381d1d324aa137d6e" target="_top" xlink:title=" ">
<polygon fill="white" stroke="#666666" points="1078,-598 989,-598 989,-579 1078,-579 1078,-598"/>
<text text-anchor="middle" x="1033.5" y="-586" font-family="Ubuntu Mono" font-size="10.00">ObjId::element</text>
</a>
</g>
</g>
<!-- Node7&#45;&gt;Node9 -->
<g id="edge8_Node000007_Node000009" class="edge">
<title>Node7&#45;&gt;Node9</title>
<g id="a_edge8_Node000007_Node000009"><a xlink:title=" ">
<path fill="none" stroke="#63b8ff" d="M551.96,-335.22C560.02,-374.32 591.77,-519.43 625,-550.5 724.15,-643.2 902.24,-618.71 986.24,-600.31"/>
<polygon fill="#63b8ff" stroke="#63b8ff" points="987.27,-603.67 996.25,-598.05 985.73,-596.84 987.27,-603.67"/>
</a>
</g>
</g>
<!-- Node11 -->
<g id="Node000011" class="node">
<title>Node11</title>
<g id="a_Node000011"><a xlink:href="classObjId.html#a76a3d4b89944235a24eff983030a5e91" target="_top" xlink:title=" ">
<polygon fill="white" stroke="#666666" points="714,-541 646,-541 646,-522 714,-522 714,-541"/>
<text text-anchor="middle" x="680" y="-529" font-family="Ubuntu Mono" font-size="10.00">ObjId::eref</text>
</a>
</g>
</g>
<!-- Node7&#45;&gt;Node11 -->
<g id="edge11_Node000007_Node000011" class="edge">
<title>Node7&#45;&gt;Node11</title>
<g id="a_edge11_Node000007_Node000011"><a xlink:title=" ">
<path fill="none" stroke="#63b8ff" d="M553.61,-335.46C566.76,-371.56 612.01,-494.15 625,-507.5 628.66,-511.26 633.02,-514.48 637.65,-517.22"/>
<polygon fill="#63b8ff" stroke="#63b8ff" points="636.27,-520.45 646.77,-521.92 639.48,-514.23 636.27,-520.45"/>
</a>
</g>
</g>
<!-- Node12 -->
<g id="Node000012" class="node">
<title>Node12</title>
<g id="a_Node000012"><a xlink:href="classEref.html#aed748cb72c986c869e4c650dd28d8d02" target="_top" xlink:title=" ">
<polygon fill="white" stroke="#666666" points="724.5,-391 635.5,-391 635.5,-372 724.5,-372 724.5,-391"/>
<text text-anchor="middle" x="680" y="-379" font-family="Ubuntu Mono" font-size="10.00">Eref::fieldIndex</text>
</a>
</g>
</g>
<!-- Node7&#45;&gt;Node12 -->
<g id="edge14_Node000007_Node000012" class="edge">
<title>Node7&#45;&gt;Node12</title>
<g id="a_edge14_Node000007_Node000012"><a xlink:title=" ">
<path fill="none" stroke="#63b8ff" d="M567.24,-335.15C582.22,-343.32 604.66,-355.01 625,-363.5 629.22,-365.26 633.67,-366.97 638.15,-368.6"/>
<polygon fill="#63b8ff" stroke="#63b8ff" points="637.27,-372 647.87,-371.99 639.58,-365.39 637.27,-372"/>
</a>
</g>
</g>
<!-- Node13 -->
<g id="Node000013" class="node">
<title>Node13</title>
<g id="a_Node000013"><a xlink:href="classElement.html#a3c07cf6355e6127827ce67682e3bb2a0" target="_top" xlink:title=" ">
<polygon fill="white" stroke="#666666" points="735,-465 625,-465 625,-446 735,-446 735,-465"/>
<text text-anchor="middle" x="680" y="-453" font-family="Ubuntu Mono" font-size="10.00">Element::findCaller</text>
</a>
</g>
</g>
<!-- Node7&#45;&gt;Node13 -->
<g id="edge15_Node000007_Node000013" class="edge">
<title>Node7&#45;&gt;Node13</title>
<g id="a_edge15_Node000007_Node000013"><a xlink:title=" ">
<path fill="none" stroke="#63b8ff" d="M553.85,-335.16C562.94,-356.73 587.78,-409.13 625,-437.5 626.82,-438.89 628.75,-440.17 630.76,-441.36"/>
<polygon fill="#63b8ff" stroke="#63b8ff" points="629.45,-444.62 639.96,-445.97 632.59,-438.36 629.45,-444.62"/>
</a>
</g>
</g>
<!-- Node17 -->
<g id="Node000017" class="node">
<title>Node17</title>
<g id="a_Node000017"><a xlink:href="classMsg.html#a1a57001709e44ab056a704c24760c105" target="_top" xlink:title=" ">
<polygon fill="white" stroke="#666666" points="901.5,-503 822.5,-503 822.5,-484 901.5,-484 901.5,-503"/>
<text text-anchor="middle" x="862" y="-491" font-family="Ubuntu Mono" font-size="10.00">Msg::getMsg</text>
</a>
</g>
</g>
<!-- Node7&#45;&gt;Node17 -->
<g id="edge30_Node000007_Node000017" class="edge">
<title>Node7&#45;&gt;Node17</title>
<g id="a_edge30_Node000007_Node000017"><a xlink:title=" ">
<path fill="none" stroke="#63b8ff" d="M553.47,-335.24C564.48,-365.57 599.41,-457.28 625,-474.5 680.51,-511.86 760.85,-509.39 812,-502.64"/>
<polygon fill="#63b8ff" stroke="#63b8ff" points="812.73,-506.07 822.13,-501.19 811.74,-499.14 812.73,-506.07"/>
</a>
</g>
</g>
<!-- Node24 -->
<g id="Node000024" class="node">
<title>Node24</title>
<g id="a_Node000024"><a xlink:href="classCinfo.html#a7642d2a9ffe54cc8008df39de171ab63" target="_top" xlink:title=" ">
<polygon fill="white" stroke="#666666" points="725,-317 635,-317 635,-298 725,-298 725,-317"/>
<text text-anchor="middle" x="680" y="-305" font-family="Ubuntu Mono" font-size="10.00">Cinfo::findFinfo</text>
</a>
</g>
</g>
<!-- Node7&#45;&gt;Node24 -->
<g id="edge27_Node000007_Node000024" class="edge">
<title>Node7&#45;&gt;Node24</title>
<g id="a_edge27_Node000007_Node000024"><a xlink:title=" ">
<path fill="none" stroke="#63b8ff" d="M589.05,-320.05C600.29,-318.48 612.76,-316.74 624.74,-315.07"/>
<polygon fill="#63b8ff" stroke="#63b8ff" points="625.24,-318.54 634.66,-313.69 624.27,-311.6 625.24,-318.54"/>
</a>
</g>
</g>
<!-- Node25 -->
<g id="Node000025" class="node">
<title>Node25</title>
<g id="a_Node000025"><a xlink:href="classMsg.html#a326ed96ece35f632b16de59838db6c29" target="_top" xlink:title=" ">
<polygon fill="white" stroke="#666666" points="733,-280 627,-280 627,-261 733,-261 733,-280"/>
<text text-anchor="middle" x="680" y="-268" font-family="Ubuntu Mono" font-size="10.00">Msg::findOtherEnd</text>
</a>
</g>
</g>
<!-- Node7&#45;&gt;Node25 -->
<g id="edge28_Node000007_Node000025" class="edge">
<title>Node7&#45;&gt;Node25</title>
<g id="a_edge28_Node000007_Node000025"><a xlink:title=" ">
<path fill="none" stroke="#63b8ff" d="M568.54,-315.9C583.57,-308.29 605.39,-297.63 625,-289.5 629.87,-287.48 635.03,-285.49 640.17,-283.59"/>
<polygon fill="#63b8ff" stroke="#63b8ff" points="641.69,-286.76 649.91,-280.08 639.32,-280.17 641.69,-286.76"/>
</a>
</g>
</g>
<!-- Node26 -->
<g id="Node000026" class="node">
<title>Node26</title>
<g id="a_Node000026"><a xlink:href="classDestFinfo.html#a6efef23ddcfbaef03eca8aa75fdd98cd" target="_top" xlink:title=" ">
<polygon fill="white" stroke="#666666" points="729.5,-243 630.5,-243 630.5,-224 729.5,-224 729.5,-243"/>
<text text-anchor="middle" x="680" y="-231" font-family="Ubuntu Mono" font-size="10.00">DestFinfo::getFid</text>
</a>
</g>
</g>
<!-- Node7&#45;&gt;Node26 -->
<g id="edge29_Node000007_Node000026" class="edge">
<title>Node7&#45;&gt;Node26</title>
<g id="a_edge29_Node000007_Node000026"><a xlink:title=" ">
<path fill="none" stroke="#63b8ff" d="M557.72,-315.61C570.27,-300.12 596.59,-270.12 625,-252.5 628.19,-250.52 631.61,-248.72 635.12,-247.08"/>
<polygon fill="#63b8ff" stroke="#63b8ff" points="636.7,-250.21 644.55,-243.1 633.98,-243.76 636.7,-250.21"/>
</a>
</g>
</g>
<!-- Node27 -->
<g id="Node000027" class="node">
<title>Node27</title>
<g id="a_Node000027"><a xlink:href="classElement.html#a1a2068a4e70da0f951bc3e73b758ef4a" target="_top" xlink:title=" ">
<polygon fill="white" stroke="#666666" points="734,-206 626,-206 626,-187 734,-187 734,-206"/>
<text text-anchor="middle" x="680" y="-194" font-family="Ubuntu Mono" font-size="10.00">Element::getName</text>
</a>
</g>
</g>
<!-- Node7&#45;&gt;Node27 -->
<g id="edge31_Node000007_Node000027" class="edge">
<title>Node7&#45;&gt;Node27</title>
<g id="a_edge31_Node000007_Node000027"><a xlink:title=" ">
<path fill="none" stroke="#63b8ff" d="M554.08,-315.74C563.44,-294.45 588.53,-243.53 625,-215.5 627.33,-213.71 629.84,-212.08 632.45,-210.6"/>
<polygon fill="#63b8ff" stroke="#63b8ff" points="634.21,-213.64 641.67,-206.11 631.14,-207.35 634.21,-213.64"/>
</a>
</g>
</g>
<!-- Node28 -->
<g id="Node000028" class="node">
<title>Node28</title>
<g id="a_Node000028"><a xlink:href="classElement.html#a8489d936deee408d78042cf199694bb5" target="_top" xlink:title=" ">
<polygon fill="white" stroke="#666666" points="734.5,-169 625.5,-169 625.5,-150 734.5,-150 734.5,-169"/>
<text text-anchor="middle" x="680" y="-157" font-family="Ubuntu Mono" font-size="10.00">Element::hasFields</text>
</a>
</g>
</g>
<!-- Node7&#45;&gt;Node28 -->
<g id="edge32_Node000007_Node000028" class="edge">
<title>Node7&#45;&gt;Node28</title>
<g id="a_edge32_Node000007_Node000028"><a xlink:title=" ">
<path fill="none" stroke="#63b8ff" d="M552.29,-315.7C558.87,-289.56 580.36,-217.55 625,-178.5 626.93,-176.81 629.02,-175.27 631.22,-173.86"/>
<polygon fill="#63b8ff" stroke="#63b8ff" points="632.97,-176.9 640.12,-169.08 629.66,-170.73 632.97,-176.9"/>
</a>
</g>
</g>
<!-- Node29 -->
<g id="Node000029" class="node">
<title>Node29</title>
<g id="a_Node000029"><a xlink:href="classId.html#ac094968605676d63b55ca33b7e318948" target="_top" xlink:title=" ">
<polygon fill="white" stroke="#666666" points="882.5,-112 841.5,-112 841.5,-93 882.5,-93 882.5,-112"/>
<text text-anchor="middle" x="862" y="-100" font-family="Ubuntu Mono" font-size="10.00">Id::Id</text>
</a>
</g>
</g>
<!-- Node7&#45;&gt;Node29 -->
<g id="edge33_Node000007_Node000029" class="edge">
<title>Node7&#45;&gt;Node29</title>
<g id="a_edge33_Node000007_Node000029"><a xlink:title=" ">
<path fill="none" stroke="#63b8ff" d="M550.74,-315.99C553.66,-285.19 567.31,-187.56 625,-141.5 656.4,-116.43 775.2,-106.98 831.31,-103.85"/>
<polygon fill="#63b8ff" stroke="#63b8ff" points="831.53,-107.35 841.33,-103.33 831.16,-100.36 831.53,-107.35"/>
</a>
</g>
</g>
<!-- Node30 -->
<g id="Node000030" class="node">
<title>Node30</title>
<g id="a_Node000030"><a xlink:href="classObjId.html#aad3d714ee57757ed3754a58edc9ad4a9" target="_top" xlink:title=" ">
<polygon fill="white" stroke="#666666" points="717,-93 643,-93 643,-74 717,-74 717,-93"/>
<text text-anchor="middle" x="680" y="-81" font-family="Ubuntu Mono" font-size="10.00">ObjId::ObjId</text>
</a>
</g>
</g>
<!-- Node7&#45;&gt;Node30 -->
<g id="edge34_Node000007_Node000030" class="edge">
<title>Node7&#45;&gt;Node30</title>
<g id="a_edge34_Node000007_Node000030"><a xlink:title=" ">
<path fill="none" stroke="#63b8ff" d="M550.64,-315.86C553.35,-282.61 566.58,-171.23 625,-107.5 628.46,-103.72 632.63,-100.5 637.1,-97.77"/>
<polygon fill="#63b8ff" stroke="#63b8ff" points="638.74,-100.86 645.95,-93.1 635.47,-94.67 638.74,-100.86"/>
</a>
</g>
</g>
<!-- Node31 -->
<g id="Node000031" class="node">
<title>Node31</title>
<g id="a_Node000031"><a xlink:href="classEref.html#ab305a4ab972b50443b7d35cfd516861a" target="_top" xlink:title=" ">
<polygon fill="white" stroke="#666666" points="712.5,-354 647.5,-354 647.5,-335 712.5,-335 712.5,-354"/>
<text text-anchor="middle" x="680" y="-342" font-family="Ubuntu Mono" font-size="10.00">Eref::objId</text>
</a>
</g>
</g>
<!-- Node7&#45;&gt;Node31 -->
<g id="edge36_Node000007_Node000031" class="edge">
<title>Node7&#45;&gt;Node31</title>
<g id="a_edge36_Node000007_Node000031"><a xlink:title=" ">
<path fill="none" stroke="#63b8ff" d="M589.05,-331.25C604.24,-333.49 621.66,-336.05 637.11,-338.33"/>
<polygon fill="#63b8ff" stroke="#63b8ff" points="637.03,-341.86 647.43,-339.85 638.05,-334.93 637.03,-341.86"/>
</a>
</g>
</g>
<!-- Node33 -->
<g id="Node000033" class="node">
<title>Node33</title>
<g id="a_Node000033"><a xlink:href="classId.html#a6a4a7d5c9e8524644febc6b6e8dc1ab9" target="_top" xlink:title=" ">
<polygon fill="white" stroke="#666666" points="722.5,-56 637.5,-56 637.5,-37 722.5,-37 722.5,-56"/>
<text text-anchor="middle" x="680" y="-44" font-family="Ubuntu Mono" font-size="10.00">Id::operator!=</text>
</a>
</g>
</g>
<!-- Node7&#45;&gt;Node33 -->
<g id="edge39_Node000007_Node000033" class="edge">
<title>Node7&#45;&gt;Node33</title>
<g id="a_edge39_Node000007_Node000033"><a xlink:title=" ">
<path fill="none" stroke="#63b8ff" d="M549.82,-315.98C549.66,-278.65 554.05,-140.65 625,-65.5 626.38,-64.04 627.88,-62.69 629.48,-61.44"/>
<polygon fill="#63b8ff" stroke="#63b8ff" points="631.47,-64.32 638.08,-56.03 627.75,-58.39 631.47,-64.32"/>
</a>
</g>
</g>
<!-- Node34 -->
<g id="Node000034" class="node">
<title>Node34</title>
<g id="a_Node000034"><a xlink:href="classObjId.html#a6a7e5a3ee84c58803fe025943941e67e" target="_top" xlink:title=" ">
<polygon fill="white" stroke="#666666" points="733,-19 627,-19 627,0 733,0 733,-19"/>
<text text-anchor="middle" x="680" y="-7" font-family="Ubuntu Mono" font-size="10.00">ObjId::operator==</text>
</a>
</g>
</g>
<!-- Node7&#45;&gt;Node34 -->
<g id="edge40_Node000007_Node000034" class="edge">
<title>Node7&#45;&gt;Node34</title>
<g id="a_edge40_Node000007_Node000034"><a xlink:title=" ">
<path fill="none" stroke="#63b8ff" d="M551.2,-315.7C557.06,-269.23 584.1,-71.6 625,-27.5 625.89,-26.54 626.83,-25.64 627.81,-24.78"/>
<polygon fill="#63b8ff" stroke="#63b8ff" points="629.84,-27.63 636.11,-19.09 625.88,-21.86 629.84,-27.63"/>
</a>
</g>
</g>
<!-- Node10 -->
<g id="Node000010" class="node">
<title>Node10</title>
<g id="a_Node000010"><a xlink:href="classId.html#a574e06330597163aef0ea4c99de7ff4a" target="_top" xlink:title="Synonym for Id::operator()()">
<polygon fill="white" stroke="#666666" points="1204,-569 1132,-569 1132,-550 1204,-550 1204,-569"/>
<text text-anchor="middle" x="1168" y="-557" font-family="Ubuntu Mono" font-size="10.00">Id::element</text>
</a>
</g>
</g>
<!-- Node9&#45;&gt;Node10 -->
<g id="edge9_Node000009_Node000010" class="edge">
<title>Node9&#45;&gt;Node10</title>
<g id="a_edge9_Node000009_Node000010"><a xlink:title=" ">
<path fill="none" stroke="#63b8ff" d="M1078.25,-578.92C1092.2,-575.87 1107.67,-572.49 1121.72,-569.41"/>
<polygon fill="#63b8ff" stroke="#63b8ff" points="1122.65,-572.79 1131.67,-567.23 1121.15,-565.95 1122.65,-572.79"/>
</a>
</g>
</g>
<!-- Node10&#45;&gt;Node5 -->
<g id="edge10_Node000010_Node000005" class="edge">
<title>Node10&#45;&gt;Node5</title>
<g id="a_edge10_Node000010_Node000005"><a xlink:title=" ">
<path fill="none" stroke="#63b8ff" d="M1190.17,-569.04C1210.61,-578.25 1241.76,-592.28 1264.89,-602.71"/>
<polygon fill="#63b8ff" stroke="#63b8ff" points="1263.7,-606.01 1274.26,-606.93 1266.58,-599.63 1263.7,-606.01"/>
</a>
</g>
</g>
<!-- Node11&#45;&gt;Node6 -->
<g id="edge13_Node000011_Node000006" class="edge">
<title>Node11&#45;&gt;Node6</title>
<g id="a_edge13_Node000011_Node000006"><a xlink:title=" ">
<path fill="none" stroke="#63b8ff" d="M714.01,-538.47C744.33,-544.87 789.29,-554.36 821.5,-561.16"/>
<polygon fill="#63b8ff" stroke="#63b8ff" points="820.97,-564.63 831.48,-563.27 822.41,-557.78 820.97,-564.63"/>
</a>
</g>
</g>
<!-- Node11&#45;&gt;Node10 -->
<g id="edge12_Node000011_Node000010" class="edge">
<title>Node11&#45;&gt;Node10</title>
<g id="a_edge12_Node000011_Node000010"><a xlink:title=" ">
<path fill="none" stroke="#63b8ff" d="M714.02,-533.4C798.95,-538.3 1025.05,-551.32 1121.92,-556.9"/>
<polygon fill="#63b8ff" stroke="#63b8ff" points="1121.8,-560.4 1131.98,-557.48 1122.2,-553.41 1121.8,-560.4"/>
</a>
</g>
</g>
<!-- Node14 -->
<g id="Node000014" class="node">
<title>Node14</title>
<g id="a_Node000014"><a xlink:href="classMsg.html#a5be9f4dd643f5f662e8fb3c029273390" target="_top" xlink:title=" ">
<polygon fill="white" stroke="#666666" points="889.5,-466 834.5,-466 834.5,-447 889.5,-447 889.5,-466"/>
<text text-anchor="middle" x="862" y="-454" font-family="Ubuntu Mono" font-size="10.00">Msg::e1</text>
</a>
</g>
</g>
<!-- Node13&#45;&gt;Node14 -->
<g id="edge16_Node000013_Node000014" class="edge">
<title>Node13&#45;&gt;Node14</title>
<g id="a_edge16_Node000013_Node000014"><a xlink:title=" ">
<path fill="none" stroke="#63b8ff" d="M735.01,-455.8C763.77,-455.96 798.4,-456.15 824.07,-456.29"/>
<polygon fill="#63b8ff" stroke="#63b8ff" points="824.11,-459.8 834.13,-456.35 824.15,-452.8 824.11,-459.8"/>
</a>
</g>
</g>
<!-- Node15 -->
<g id="Node000015" class="node">
<title>Node15</title>
<g id="a_Node000015"><a xlink:href="classMsg.html#a893ed6b44cd4c529f0f10af38ae6743a" target="_top" xlink:title=" ">
<polygon fill="white" stroke="#666666" points="889.5,-429 834.5,-429 834.5,-410 889.5,-410 889.5,-429"/>
<text text-anchor="middle" x="862" y="-417" font-family="Ubuntu Mono" font-size="10.00">Msg::e2</text>
</a>
</g>
</g>
<!-- Node13&#45;&gt;Node15 -->
<g id="edge17_Node000013_Node000015" class="edge">
<title>Node13&#45;&gt;Node15</title>
<g id="a_edge17_Node000013_Node000015"><a xlink:title=" ">
<path fill="none" stroke="#63b8ff" d="M728.76,-445.95C758.69,-439.96 796.66,-432.37 824.24,-426.85"/>
<polygon fill="#63b8ff" stroke="#63b8ff" points="825.14,-430.24 834.26,-424.85 823.76,-423.38 825.14,-430.24"/>
</a>
</g>
</g>
<!-- Node16 -->
<g id="Node000016" class="node">
<title>Node16</title>
<g id="a_Node000016"><a xlink:href="classElement.html#a0f7aa6c77f30cb8865cdd0a0dde03854" target="_top" xlink:title=" ">
<polygon fill="white" stroke="#666666" points="921,-392 803,-392 803,-373 921,-373 921,-392"/>
<text text-anchor="middle" x="862" y="-380" font-family="Ubuntu Mono" font-size="10.00">Element::findBinding</text>
</a>
</g>
</g>
<!-- Node13&#45;&gt;Node16 -->
<g id="edge18_Node000013_Node000016" class="edge">
<title>Node13&#45;&gt;Node16</title>
<g id="a_edge18_Node000013_Node000016"><a xlink:title=" ">
<path fill="none" stroke="#63b8ff" d="M717.48,-445.92C723.56,-443.61 729.62,-440.83 735,-437.5 754.25,-425.6 751.11,-412.28 771,-401.5 777.81,-397.81 785.27,-394.83 792.89,-392.44"/>
<polygon fill="#63b8ff" stroke="#63b8ff" points="793.92,-395.78 802.6,-389.7 792.02,-389.05 793.92,-395.78"/>
</a>
</g>
</g>
<!-- Node13&#45;&gt;Node17 -->
<g id="edge19_Node000013_Node000017" class="edge">
<title>Node13&#45;&gt;Node17</title>
<g id="a_edge19_Node000013_Node000017"><a xlink:title=" ">
<path fill="none" stroke="#63b8ff" d="M723.08,-465.05C738.18,-468.42 755.34,-472.19 771,-475.5 784.42,-478.33 798.99,-481.29 812.41,-483.98"/>
<polygon fill="#63b8ff" stroke="#63b8ff" points="811.93,-487.45 822.42,-485.97 813.3,-480.59 811.93,-487.45"/>
</a>
</g>
</g>
<!-- Node21 -->
<g id="Node000021" class="node">
<title>Node21</title>
<g id="a_Node000021"><a xlink:href="classMsgFuncBinding.html#ad0172d166d6629ed092500ea64473eb5" target="_top" xlink:title=" ">
<polygon fill="white" stroke="#666666" points="953,-355 771,-355 771,-336 953,-336 953,-355"/>
<text text-anchor="middle" x="862" y="-343" font-family="Ubuntu Mono" font-size="10.00">MsgFuncBinding::MsgFuncBinding</text>
</a>
</g>
</g>
<!-- Node13&#45;&gt;Node21 -->
<g id="edge24_Node000013_Node000021" class="edge">
<title>Node13&#45;&gt;Node21</title>
<g id="a_edge24_Node000013_Node000021"><a xlink:title=" ">
<path fill="none" stroke="#63b8ff" d="M721.57,-445.99C726.43,-443.73 731.05,-440.94 735,-437.5 762.26,-413.72 742.43,-386.69 771,-364.5 773.31,-362.71 775.74,-361.08 778.28,-359.59"/>
<polygon fill="#63b8ff" stroke="#63b8ff" points="779.88,-362.7 787.23,-355.08 776.73,-356.45 779.88,-362.7"/>
</a>
</g>
</g>
<!-- Node23 -->
<g id="Node000023" class="node">
<title>Node23</title>
<g id="a_Node000023"><a xlink:href="classObjId.html#ab6b120d314aab5abc3ea8bb7ead5ae41" target="_top" xlink:title=" ">
<polygon fill="white" stroke="#666666" points="899,-318 825,-318 825,-299 899,-299 899,-318"/>
<text text-anchor="middle" x="862" y="-306" font-family="Ubuntu Mono" font-size="10.00">ObjId::ObjId</text>
</a>
</g>
</g>
<!-- Node13&#45;&gt;Node23 -->
<g id="edge26_Node000013_Node000023" class="edge">
<title>Node13&#45;&gt;Node23</title>
<g id="a_edge26_Node000013_Node000023"><a xlink:title=" ">
<path fill="none" stroke="#63b8ff" d="M723.12,-445.96C727.5,-443.71 731.59,-440.93 735,-437.5 771.27,-401.03 732.71,-361.85 771,-327.5 782.9,-316.83 799.24,-311.59 814.75,-309.18"/>
<polygon fill="#63b8ff" stroke="#63b8ff" points="815.25,-312.65 824.76,-307.97 814.41,-305.7 815.25,-312.65"/>
</a>
</g>
</g>
<!-- Node18 -->
<g id="Node000018" class="node">
<title>Node18</title>
<g id="a_Node000018"><a xlink:href="classObjId.html#a1e5933713d6a73550b0923cf63f5bfd8" target="_top" xlink:title=" ">
<polygon fill="white" stroke="#666666" points="1068.5,-503 998.5,-503 998.5,-484 1068.5,-484 1068.5,-503"/>
<text text-anchor="middle" x="1033.5" y="-491" font-family="Ubuntu Mono" font-size="10.00">ObjId::data</text>
</a>
</g>
</g>
<!-- Node17&#45;&gt;Node18 -->
<g id="edge20_Node000017_Node000018" class="edge">
<title>Node17&#45;&gt;Node18</title>
<g id="a_edge20_Node000017_Node000018"><a xlink:title=" ">
<path fill="none" stroke="#63b8ff" d="M901.89,-493.5C927.6,-493.5 961.37,-493.5 988.13,-493.5"/>
<polygon fill="#63b8ff" stroke="#63b8ff" points="988.39,-497 998.39,-493.5 988.39,-490 988.39,-497"/>
</a>
</g>
</g>
<!-- Node18&#45;&gt;Node10 -->
<g id="edge22_Node000018_Node000010" class="edge">
<title>Node18&#45;&gt;Node10</title>
<g id="a_edge22_Node000018_Node000010"><a xlink:title=" ">
<path fill="none" stroke="#63b8ff" d="M1053.77,-503.1C1076.04,-514.19 1112.92,-532.56 1138.51,-545.31"/>
<polygon fill="#63b8ff" stroke="#63b8ff" points="1137.2,-548.57 1147.71,-549.89 1140.32,-542.3 1137.2,-548.57"/>
</a>
</g>
</g>
<!-- Node19 -->
<g id="Node000019" class="node">
<title>Node19</title>
<g id="a_Node000019"><a xlink:href="classElement.html#a1978a0a584f1b10ea4a7c67e69880042" target="_top" xlink:title=" ">
<polygon fill="white" stroke="#666666" points="1210.5,-517 1125.5,-517 1125.5,-498 1210.5,-498 1210.5,-517"/>
<text text-anchor="middle" x="1168" y="-505" font-family="Ubuntu Mono" font-size="10.00">Element::data</text>
</a>
</g>
</g>
<!-- Node18&#45;&gt;Node19 -->
<g id="edge21_Node000018_Node000019" class="edge">
<title>Node18&#45;&gt;Node19</title>
<g id="a_edge21_Node000018_Node000019"><a xlink:title=" ">
<path fill="none" stroke="#63b8ff" d="M1068.62,-497.11C1082.84,-498.61 1099.66,-500.38 1115.33,-502.04"/>
<polygon fill="#63b8ff" stroke="#63b8ff" points="1115.11,-505.54 1125.43,-503.11 1115.85,-498.58 1115.11,-505.54"/>
</a>
</g>
</g>
<!-- Node20 -->
<g id="Node000020" class="node">
<title>Node20</title>
<g id="a_Node000020"><a xlink:href="classElement.html#a73a0e468a3d6cfd6475fff4a56459075" target="_top" xlink:title=" ">
<polygon fill="white" stroke="#666666" points="1222,-480 1114,-480 1114,-461 1222,-461 1222,-480"/>
<text text-anchor="middle" x="1168" y="-468" font-family="Ubuntu Mono" font-size="10.00">Element::rawIndex</text>
</a>
</g>
</g>
<!-- Node18&#45;&gt;Node20 -->
<g id="edge23_Node000018_Node000020" class="edge">
<title>Node18&#45;&gt;Node20</title>
<g id="a_edge23_Node000018_Node000020"><a xlink:title=" ">
<path fill="none" stroke="#63b8ff" d="M1068.62,-487.58C1079.4,-485.71 1091.69,-483.57 1103.83,-481.47"/>
<polygon fill="#63b8ff" stroke="#63b8ff" points="1104.71,-484.87 1113.96,-479.71 1103.51,-477.97 1104.71,-484.87"/>
</a>
</g>
</g>
<!-- Node22 -->
<g id="Node000022" class="node">
<title>Node22</title>
<g id="a_Node000022"><a xlink:href="classObjId.html#a02a8374ceddca0d8f4a672005aef8ffc" target="_top" xlink:title=" ">
<polygon fill="white" stroke="#666666" points="1070.5,-355 996.5,-355 996.5,-336 1070.5,-336 1070.5,-355"/>
<text text-anchor="middle" x="1033.5" y="-343" font-family="Ubuntu Mono" font-size="10.00">ObjId::ObjId</text>
</a>
</g>
</g>
<!-- Node21&#45;&gt;Node22 -->
<g id="edge25_Node000021_Node000022" class="edge">
<title>Node21&#45;&gt;Node22</title>
<g id="a_edge25_Node000021_Node000022"><a xlink:title=" ">
<path fill="none" stroke="#63b8ff" d="M953.21,-345.5C964.71,-345.5 976.08,-345.5 986.46,-345.5"/>
<polygon fill="#63b8ff" stroke="#63b8ff" points="986.48,-349 996.48,-345.5 986.48,-342 986.48,-349"/>
</a>
</g>
</g>
<!-- Node30&#45;&gt;Node29 -->
<g id="edge35_Node000030_Node000029" class="edge">
<title>Node30&#45;&gt;Node29</title>
<g id="a_edge35_Node000030_Node000029"><a xlink:title=" ">
<path fill="none" stroke="#63b8ff" d="M717.43,-87.34C750.87,-90.88 799.85,-96.04 831.07,-99.34"/>
<polygon fill="#63b8ff" stroke="#63b8ff" points="831.01,-102.85 841.32,-100.42 831.74,-95.89 831.01,-102.85"/>
</a>
</g>
</g>
<!-- Node31&#45;&gt;Node23 -->
<g id="edge38_Node000031_Node000023" class="edge">
<title>Node31&#45;&gt;Node23</title>
<g id="a_edge38_Node000031_Node000023"><a xlink:title=" ">
<path fill="none" stroke="#63b8ff" d="M712.77,-338.15C741.09,-332.48 782.9,-324.12 814.9,-317.72"/>
<polygon fill="#63b8ff" stroke="#63b8ff" points="815.79,-321.11 824.91,-315.72 814.42,-314.25 815.79,-321.11"/>
</a>
</g>
</g>
<!-- Node32 -->
<g id="Node000032" class="node">
<title>Node32</title>
<g id="a_Node000032"><a xlink:href="classElement.html#a934907c01faf58e21f545d53a54cfefc" target="_top" xlink:title=" ">
<polygon fill="white" stroke="#666666" points="898,-281 826,-281 826,-262 898,-262 898,-281"/>
<text text-anchor="middle" x="862" y="-269" font-family="Ubuntu Mono" font-size="10.00">Element::id</text>
</a>
</g>
</g>
<!-- Node31&#45;&gt;Node32 -->
<g id="edge37_Node000031_Node000032" class="edge">
<title>Node31&#45;&gt;Node32</title>
<g id="a_edge37_Node000031_Node000032"><a xlink:title=" ">
<path fill="none" stroke="#63b8ff" d="M712.66,-336.67C720.28,-334.06 728.19,-330.71 735,-326.5 754.25,-314.6 751.11,-301.28 771,-290.5 784.57,-283.14 800.73,-278.63 815.59,-275.87"/>
<polygon fill="#63b8ff" stroke="#63b8ff" points="816.32,-279.29 825.62,-274.22 815.18,-272.39 816.32,-279.29"/>
</a>
</g>
</g>
<!-- Node35 -->
<g id="Node000035" class="node">
<title>Node35</title>
<g id="a_Node000035"><a xlink:href="classId.html#a38206d79367649ab0056b93e6da3b789" target="_top" xlink:title=" ">
<polygon fill="white" stroke="#666666" points="906.5,-19 817.5,-19 817.5,0 906.5,0 906.5,-19"/>
<text text-anchor="middle" x="862" y="-7" font-family="Ubuntu Mono" font-size="10.00">Id::operator==</text>
</a>
</g>
</g>
<!-- Node34&#45;&gt;Node35 -->
<g id="edge41_Node000034_Node000035" class="edge">
<title>Node34&#45;&gt;Node35</title>
<g id="a_edge41_Node000034_Node000035"><a xlink:title=" ">
<path fill="none" stroke="#63b8ff" d="M733.06,-9.5C756.31,-9.5 783.68,-9.5 807.14,-9.5"/>
<polygon fill="#63b8ff" stroke="#63b8ff" points="807.26,-13 817.26,-9.5 807.26,-6 807.26,-13"/>
</a>
</g>
</g>
<!-- Node36&#45;&gt;Node7 -->
<g id="edge44_Node000036_Node000007" class="edge">
<title>Node36&#45;&gt;Node7</title>
<g id="a_edge44_Node000036_Node000007"><a xlink:title=" ">
<path fill="none" stroke="#63b8ff" d="M473.19,-338.54C481.36,-337.12 490.23,-335.57 498.92,-334.05"/>
<polygon fill="#63b8ff" stroke="#63b8ff" points="499.74,-337.47 508.99,-332.3 498.54,-330.57 499.74,-337.47"/>
</a>
</g>
</g>
<!-- Node36&#45;&gt;Node11 -->
<g id="edge43_Node000036_Node000011" class="edge">
<title>Node36&#45;&gt;Node11</title>
<g id="a_edge43_Node000036_Node000011"><a xlink:title=" ">
<path fill="none" stroke="#63b8ff" d="M458.19,-354.19C463.16,-356.98 468.4,-360.17 473,-363.5 547.38,-417.38 549.79,-450.78 625,-503.5 632.27,-508.6 640.59,-513.37 648.49,-517.47"/>
<polygon fill="#63b8ff" stroke="#63b8ff" points="646.97,-520.63 657.48,-521.97 650.1,-514.37 646.97,-520.63"/>
</a>
</g>
</g>
</g>
</svg>
