<?xml version="1.0" encoding="UTF-8" standalone="no"?>
<!DOCTYPE svg PUBLIC "-//W3C//DTD SVG 1.1//EN"
 "http://www.w3.org/Graphics/SVG/1.1/DTD/svg11.dtd">
<!-- Generated by graphviz version 2.43.0 (0)
 -->
<!-- Title: TableBase::compareXplot Pages: 1 -->
<svg width="474pt" height="212pt"
 viewBox="0.00 0.00 474.00 212.00" xmlns="http://www.w3.org/2000/svg" xmlns:xlink="http://www.w3.org/1999/xlink">
<g id="graph0" class="graph" transform="scale(1 1) rotate(0) translate(4 208)">
<title>TableBase::compareXplot</title>
<!-- Node1 -->
<g id="Node000001" class="node">
<title>Node1</title>
<g id="a_Node000001"><a xlink:title=" ">
<polygon fill="#999999" stroke="#666666" points="466,-111 326,-111 326,-92 466,-92 466,-111"/>
<text text-anchor="middle" x="396" y="-99" font-family="Ubuntu Mono" font-size="10.00">TableBase::compareXplot</text>
</a>
</g>
</g>
<!-- Node2 -->
<g id="Node000002" class="node">
<title>Node2</title>
<g id="a_Node000002"><a xlink:href="classTableBase.html#a743b983e93984115449360b4def6a17c" target="_top" xlink:title=" ">
<polygon fill="white" stroke="#666666" points="290,-111 177,-111 177,-92 290,-92 290,-111"/>
<text text-anchor="middle" x="233.5" y="-99" font-family="Ubuntu Mono" font-size="10.00">TableBase::initCinfo</text>
</a>
</g>
</g>
<!-- Node1&#45;&gt;Node2 -->
<g id="edge1_Node000001_Node000002" class="edge">
<title>Node1&#45;&gt;Node2</title>
<g id="a_edge1_Node000001_Node000002"><a xlink:title=" ">
<path fill="none" stroke="#63b8ff" d="M315.48,-101.5C306.88,-101.5 298.28,-101.5 290.05,-101.5"/>
<polygon fill="#63b8ff" stroke="#63b8ff" points="315.54,-105 325.54,-101.5 315.54,-98 315.54,-105"/>
</a>
</g>
</g>
<!-- Node3 -->
<g id="Node000003" class="node">
<title>Node3</title>
<g id="a_Node000003"><a xlink:href="classInterpol.html#a61a7a1a821ccd6ef218390259564f15c" target="_top" xlink:title=" ">
<polygon fill="white" stroke="#666666" points="121,-204 20,-204 20,-185 121,-185 121,-204"/>
<text text-anchor="middle" x="70.5" y="-192" font-family="Ubuntu Mono" font-size="10.00">Interpol::initCinfo</text>
</a>
</g>
</g>
<!-- Node2&#45;&gt;Node3 -->
<g id="edge2_Node000002_Node000003" class="edge">
<title>Node2&#45;&gt;Node3</title>
<g id="a_edge2_Node000002_Node000003"><a xlink:title=" ">
<path fill="none" stroke="#63b8ff" d="M216.6,-118.26C199.49,-135.35 170.7,-161.41 141,-176.5 134.33,-179.89 126.97,-182.68 119.61,-184.96"/>
<polygon fill="#63b8ff" stroke="#63b8ff" points="219.1,-120.71 223.6,-111.12 214.11,-115.81 219.1,-120.71"/>
</a>
</g>
</g>
<!-- Node4 -->
<g id="Node000004" class="node">
<title>Node4</title>
<g id="a_Node000004"><a xlink:href="classSocketStreamer.html#a8f6995482d6f639362e1508b37297404" target="_top" xlink:title=" ">
<polygon fill="white" stroke="#666666" points="141,-167 0,-167 0,-148 141,-148 141,-167"/>
<text text-anchor="middle" x="70.5" y="-155" font-family="Ubuntu Mono" font-size="10.00">SocketStreamer::initCinfo</text>
</a>
</g>
</g>
<!-- Node2&#45;&gt;Node4 -->
<g id="edge3_Node000002_Node000004" class="edge">
<title>Node2&#45;&gt;Node4</title>
<g id="a_edge3_Node000002_Node000004"><a xlink:title=" ">
<path fill="none" stroke="#63b8ff" d="M202.51,-115.2C184.84,-122.96 161.92,-132.49 141,-139.5 131.78,-142.59 121.73,-145.47 112.21,-147.98"/>
<polygon fill="#63b8ff" stroke="#63b8ff" points="204.02,-118.36 211.74,-111.1 201.18,-111.97 204.02,-118.36"/>
</a>
</g>
</g>
<!-- Node5 -->
<g id="Node000005" class="node">
<title>Node5</title>
<g id="a_Node000005"><a xlink:href="classStimulusTable.html#a511798470c8a03e18c4bcc03d3f5abbf" target="_top" xlink:title=" ">
<polygon fill="white" stroke="#666666" points="136.5,-130 4.5,-130 4.5,-111 136.5,-111 136.5,-130"/>
<text text-anchor="middle" x="70.5" y="-118" font-family="Ubuntu Mono" font-size="10.00">StimulusTable::initCinfo</text>
</a>
</g>
</g>
<!-- Node2&#45;&gt;Node5 -->
<g id="edge4_Node000002_Node000005" class="edge">
<title>Node2&#45;&gt;Node5</title>
<g id="a_edge4_Node000002_Node000005"><a xlink:title=" ">
<path fill="none" stroke="#63b8ff" d="M166.51,-109.29C156.65,-110.45 146.5,-111.65 136.66,-112.81"/>
<polygon fill="#63b8ff" stroke="#63b8ff" points="167.12,-112.74 176.64,-108.09 166.3,-105.79 167.12,-112.74"/>
</a>
</g>
</g>
<!-- Node6 -->
<g id="Node000006" class="node">
<title>Node6</title>
<g id="a_Node000006"><a xlink:href="classStreamer.html#ac907f2b6e6605333f338367f2712e7e3" target="_top" xlink:title=" ">
<polygon fill="white" stroke="#666666" points="125,-93 16,-93 16,-74 125,-74 125,-93"/>
<text text-anchor="middle" x="70.5" y="-81" font-family="Ubuntu Mono" font-size="10.00">Streamer::initCinfo</text>
</a>
</g>
</g>
<!-- Node2&#45;&gt;Node6 -->
<g id="edge5_Node000002_Node000006" class="edge">
<title>Node2&#45;&gt;Node6</title>
<g id="a_edge5_Node000002_Node000006"><a xlink:title=" ">
<path fill="none" stroke="#63b8ff" d="M166.7,-94.14C152.86,-92.6 138.42,-90.98 125.09,-89.49"/>
<polygon fill="#63b8ff" stroke="#63b8ff" points="166.31,-97.62 176.64,-95.25 167.09,-90.67 166.31,-97.62"/>
</a>
</g>
</g>
<!-- Node7 -->
<g id="Node000007" class="node">
<title>Node7</title>
<g id="a_Node000007"><a xlink:href="classTable.html#a510dd5d32479feb8100fc46ee5245240" target="_top" xlink:title=" ">
<polygon fill="white" stroke="#666666" points="115,-56 26,-56 26,-37 115,-37 115,-56"/>
<text text-anchor="middle" x="70.5" y="-44" font-family="Ubuntu Mono" font-size="10.00">Table::initCinfo</text>
</a>
</g>
</g>
<!-- Node2&#45;&gt;Node7 -->
<g id="edge6_Node000002_Node000007" class="edge">
<title>Node2&#45;&gt;Node7</title>
<g id="a_edge6_Node000002_Node000007"><a xlink:title=" ">
<path fill="none" stroke="#63b8ff" d="M200.51,-87.93C183.08,-80.79 161.04,-72.16 141,-65.5 130.79,-62.11 119.6,-58.85 109.23,-56.02"/>
<polygon fill="#63b8ff" stroke="#63b8ff" points="199.61,-91.35 210.19,-91.94 202.29,-84.88 199.61,-91.35"/>
</a>
</g>
</g>
<!-- Node8 -->
<g id="Node000008" class="node">
<title>Node8</title>
<g id="a_Node000008"><a xlink:href="classTimeTable.html#ac4c9635d822ba8716e350bce976401f1" target="_top" xlink:title=" ">
<polygon fill="white" stroke="#666666" points="127.5,-19 13.5,-19 13.5,0 127.5,0 127.5,-19"/>
<text text-anchor="middle" x="70.5" y="-7" font-family="Ubuntu Mono" font-size="10.00">TimeTable::initCinfo</text>
</a>
</g>
</g>
<!-- Node2&#45;&gt;Node8 -->
<g id="edge7_Node000002_Node000008" class="edge">
<title>Node2&#45;&gt;Node8</title>
<g id="a_edge7_Node000002_Node000008"><a xlink:title=" ">
<path fill="none" stroke="#63b8ff" d="M215.73,-84.57C198.43,-68.01 169.96,-43.21 141,-28.5 133.53,-24.7 125.21,-21.59 116.99,-19.07"/>
<polygon fill="#63b8ff" stroke="#63b8ff" points="213.68,-87.46 223.28,-91.95 218.57,-82.46 213.68,-87.46"/>
</a>
</g>
</g>
</g>
</svg>
