<?xml version="1.0" encoding="UTF-8" standalone="no"?>
<!DOCTYPE svg PUBLIC "-//W3C//DTD SVG 1.1//EN"
 "http://www.w3.org/Graphics/SVG/1.1/DTD/svg11.dtd">
<!-- Generated by graphviz version 2.43.0 (0)
 -->
<!-- Title: StimulusTable Pages: 1 -->
<!--zoomable 911 -->

<svg id="main" version="1.1" xmlns="http://www.w3.org/2000/svg" xmlns:xlink="http://www.w3.org/1999/xlink" xml:space="preserve" onload="init(evt)">
<style type="text/css"><![CDATA[
.node, .edge {opacity: 0.7;}
.node.selected, .edge.selected {opacity: 1;}
.edge:hover path { stroke: red; }
.edge:hover polygon { stroke: red; fill: red; }
]]></style>

<defs>
  <circle id="rim" cx="0" cy="0" r="7"/>
  <circle id="rim2" cx="0" cy="0" r="3.5"/>
  <g id="zoomPlus">
    <use xlink:href="#rim" fill="#404040"><set attributeName="fill" to="#808080" begin="zoomplus.mouseover" end="zoomplus.mouseout"/></use>
    <path d="M-4,0h8M0,-4v8" fill="none" stroke="white" stroke-width="1.5" pointer-events="none"/>
  </g>
  <g id="zoomMin">
    <use xlink:href="#rim" fill="#404040"><set attributeName="fill" to="#808080" begin="zoomminus.mouseover" end="zoomminus.mouseout"/></use>
    <path d="M-4,0h8" fill="none" stroke="white" stroke-width="1.5" pointer-events="none"/>
  </g>
  <g id="arrowUp" transform="translate(30 24)">
    <use xlink:href="#rim"/>
    <path pointer-events="none" fill="none" stroke="white" stroke-width="1.5" d="M0,-3.0v7 M-2.5,-0.5L0,-3.0L2.5,-0.5"/>
  </g>
  <g id="arrowRight" transform="rotate(90) translate(36 -43)">
    <use xlink:href="#rim"/>
    <path pointer-events="none" fill="none" stroke="white" stroke-width="1.5" d="M0,-3.0v7 M-2.5,-0.5L0,-3.0L2.5,-0.5"/>
  </g>
  <g id="arrowDown" transform="rotate(180) translate(-30 -48)">
    <use xlink:href="#rim"/>
    <path pointer-events="none" fill="none" stroke="white" stroke-width="1.5" d="M0,-3.0v7 M-2.5,-0.5L0,-3.0L2.5,-0.5"/>
  </g>
  <g id="arrowLeft" transform="rotate(270) translate(-36 17)">
    <use xlink:href="#rim"/>
    <path pointer-events="none" fill="none" stroke="white" stroke-width="1.5" d="M0,-3.0v7 M-2.5,-0.5L0,-3.0L2.5,-0.5"/>
  </g>
  <g id="resetDef">
    <use xlink:href="#rim2" fill="#404040"><set attributeName="fill" to="#808080" begin="reset.mouseover" end="reset.mouseout"/></use>
  </g>
</defs>
<script type="application/ecmascript">
var viewWidth = 126;
var viewHeight = 911;
var sectionId = 'dynsection-1';
</script>
<script type="application/ecmascript" xlink:href="svg.min.js"/>
<svg id="graph" class="graph">
<g id="viewport">
<title>StimulusTable</title>
<!-- Node1 -->
<g id="Node000001" class="node">
<title>Node1</title>
<g id="a_Node000001"><a xlink:title=" ">
<polygon fill="#999999" stroke="transparent" points="112,-349 6,-349 6,0 112,0 112,-349"/>
<text text-anchor="start" x="24.5" y="-336.5" font-family="Ubuntu Mono" font-size="10.00">StimulusTable</text>
<text text-anchor="start" x="12.5" y="-321.5" font-family="Ubuntu Mono" font-size="10.00">&#45;</text>
<text text-anchor="start" x="23" y="-321.5" font-family="Ubuntu Mono" font-size="10.00">doLoop_</text>
<text text-anchor="start" x="12.5" y="-306.5" font-family="Ubuntu Mono" font-size="10.00">&#45;</text>
<text text-anchor="start" x="23" y="-306.5" font-family="Ubuntu Mono" font-size="10.00">loopTime_</text>
<text text-anchor="start" x="12.5" y="-291.5" font-family="Ubuntu Mono" font-size="10.00">&#45;</text>
<text text-anchor="start" x="23" y="-291.5" font-family="Ubuntu Mono" font-size="10.00">start_</text>
<text text-anchor="start" x="12.5" y="-276.5" font-family="Ubuntu Mono" font-size="10.00">&#45;</text>
<text text-anchor="start" x="23" y="-276.5" font-family="Ubuntu Mono" font-size="10.00">stepPosition_</text>
<text text-anchor="start" x="12.5" y="-261.5" font-family="Ubuntu Mono" font-size="10.00">&#45;</text>
<text text-anchor="start" x="23" y="-261.5" font-family="Ubuntu Mono" font-size="10.00">stepSize_</text>
<text text-anchor="start" x="12.5" y="-246.5" font-family="Ubuntu Mono" font-size="10.00">&#45;</text>
<text text-anchor="start" x="23" y="-246.5" font-family="Ubuntu Mono" font-size="10.00">stop_</text>
<text text-anchor="start" x="10" y="-231.5" font-family="Ubuntu Mono" font-size="10.00">+</text>
<text text-anchor="start" x="23" y="-231.5" font-family="Ubuntu Mono" font-size="10.00">getDoLoop()</text>
<text text-anchor="start" x="10" y="-216.5" font-family="Ubuntu Mono" font-size="10.00">+</text>
<text text-anchor="start" x="23" y="-216.5" font-family="Ubuntu Mono" font-size="10.00">getLoopTime()</text>
<text text-anchor="start" x="10" y="-201.5" font-family="Ubuntu Mono" font-size="10.00">+</text>
<text text-anchor="start" x="23" y="-201.5" font-family="Ubuntu Mono" font-size="10.00">getStartTime()</text>
<text text-anchor="start" x="10" y="-186.5" font-family="Ubuntu Mono" font-size="10.00">+</text>
<text text-anchor="start" x="23" y="-186.5" font-family="Ubuntu Mono" font-size="10.00">getStepPosition()</text>
<text text-anchor="start" x="10" y="-171.5" font-family="Ubuntu Mono" font-size="10.00">+</text>
<text text-anchor="start" x="23" y="-171.5" font-family="Ubuntu Mono" font-size="10.00">getStepSize()</text>
<text text-anchor="start" x="10" y="-156.5" font-family="Ubuntu Mono" font-size="10.00">+</text>
<text text-anchor="start" x="23" y="-156.5" font-family="Ubuntu Mono" font-size="10.00">getStopTime()</text>
<text text-anchor="start" x="10" y="-141.5" font-family="Ubuntu Mono" font-size="10.00">+</text>
<text text-anchor="start" x="23" y="-141.5" font-family="Ubuntu Mono" font-size="10.00">process()</text>
<text text-anchor="start" x="10" y="-126.5" font-family="Ubuntu Mono" font-size="10.00">+</text>
<text text-anchor="start" x="23" y="-126.5" font-family="Ubuntu Mono" font-size="10.00">reinit()</text>
<text text-anchor="start" x="10" y="-111.5" font-family="Ubuntu Mono" font-size="10.00">+</text>
<text text-anchor="start" x="23" y="-111.5" font-family="Ubuntu Mono" font-size="10.00">setDoLoop()</text>
<text text-anchor="start" x="10" y="-96.5" font-family="Ubuntu Mono" font-size="10.00">+</text>
<text text-anchor="start" x="23" y="-96.5" font-family="Ubuntu Mono" font-size="10.00">setLoopTime()</text>
<text text-anchor="start" x="10" y="-81.5" font-family="Ubuntu Mono" font-size="10.00">+</text>
<text text-anchor="start" x="23" y="-81.5" font-family="Ubuntu Mono" font-size="10.00">setStartTime()</text>
<text text-anchor="start" x="10" y="-66.5" font-family="Ubuntu Mono" font-size="10.00">+</text>
<text text-anchor="start" x="23" y="-66.5" font-family="Ubuntu Mono" font-size="10.00">setStepPosition()</text>
<text text-anchor="start" x="10" y="-51.5" font-family="Ubuntu Mono" font-size="10.00">+</text>
<text text-anchor="start" x="23" y="-51.5" font-family="Ubuntu Mono" font-size="10.00">setStepSize()</text>
<text text-anchor="start" x="10" y="-36.5" font-family="Ubuntu Mono" font-size="10.00">+</text>
<text text-anchor="start" x="23" y="-36.5" font-family="Ubuntu Mono" font-size="10.00">setStopTime()</text>
<text text-anchor="start" x="10" y="-21.5" font-family="Ubuntu Mono" font-size="10.00">+</text>
<text text-anchor="start" x="23" y="-21.5" font-family="Ubuntu Mono" font-size="10.00">StimulusTable()</text>
<text text-anchor="start" x="10" y="-6.5" font-family="Ubuntu Mono" font-size="10.00">+</text>
<text text-anchor="start" x="23" y="-6.5" font-family="Ubuntu Mono" font-size="10.00">initCinfo()</text>
<polygon fill="#666666" stroke="#666666" points="6,-331.5 6,-331.5 112,-331.5 112,-331.5 6,-331.5"/>
<polygon fill="#666666" stroke="#666666" points="6,-241.5 6,-241.5 21,-241.5 21,-241.5 6,-241.5"/>
<polygon fill="#666666" stroke="#666666" points="21,-241.5 21,-241.5 112,-241.5 112,-241.5 21,-241.5"/>
<polygon fill="none" stroke="#666666" points="6,0 6,-349 112,-349 112,0 6,0"/>
</a>
</g>
</g>
<!-- Node2 -->
<g id="Node000002" class="node">
<title>Node2</title>
<g id="a_Node000002"><a xlink:href="classTableBase.html" target="_top" xlink:title=" ">
<polygon fill="white" stroke="transparent" points="111.5,-615 6.5,-615 6.5,-386 111.5,-386 111.5,-615"/>
<text text-anchor="start" x="34.5" y="-602.5" font-family="Ubuntu Mono" font-size="10.00">TableBase</text>
<text text-anchor="start" x="13.5" y="-587.5" font-family="Ubuntu Mono" font-size="10.00">&#45;</text>
<text text-anchor="start" x="24" y="-587.5" font-family="Ubuntu Mono" font-size="10.00">output_</text>
<text text-anchor="start" x="11" y="-572.5" font-family="Ubuntu Mono" font-size="10.00">+</text>
<text text-anchor="start" x="24" y="-572.5" font-family="Ubuntu Mono" font-size="10.00">clearVec()</text>
<text text-anchor="start" x="11" y="-557.5" font-family="Ubuntu Mono" font-size="10.00">+</text>
<text text-anchor="start" x="24" y="-557.5" font-family="Ubuntu Mono" font-size="10.00">compareVec()</text>
<text text-anchor="start" x="11" y="-542.5" font-family="Ubuntu Mono" font-size="10.00">+</text>
<text text-anchor="start" x="24" y="-542.5" font-family="Ubuntu Mono" font-size="10.00">compareXplot()</text>
<text text-anchor="start" x="11" y="-527.5" font-family="Ubuntu Mono" font-size="10.00">+</text>
<text text-anchor="start" x="24" y="-527.5" font-family="Ubuntu Mono" font-size="10.00">data()</text>
<text text-anchor="start" x="11" y="-512.5" font-family="Ubuntu Mono" font-size="10.00">+</text>
<text text-anchor="start" x="24" y="-512.5" font-family="Ubuntu Mono" font-size="10.00">getOutputValue()</text>
<text text-anchor="start" x="11" y="-497.5" font-family="Ubuntu Mono" font-size="10.00">+</text>
<text text-anchor="start" x="24" y="-497.5" font-family="Ubuntu Mono" font-size="10.00">getPlotDump()</text>
<text text-anchor="start" x="11" y="-482.5" font-family="Ubuntu Mono" font-size="10.00">+</text>
<text text-anchor="start" x="24" y="-482.5" font-family="Ubuntu Mono" font-size="10.00">getVecSize()</text>
<text text-anchor="start" x="11" y="-467.5" font-family="Ubuntu Mono" font-size="10.00">+</text>
<text text-anchor="start" x="24" y="-467.5" font-family="Ubuntu Mono" font-size="10.00">getVector()</text>
<text text-anchor="start" x="11" y="-452.5" font-family="Ubuntu Mono" font-size="10.00">+</text>
<text text-anchor="start" x="24" y="-452.5" font-family="Ubuntu Mono" font-size="10.00">getY()</text>
<text text-anchor="start" x="11" y="-437.5" font-family="Ubuntu Mono" font-size="10.00">+</text>
<text text-anchor="start" x="24" y="-437.5" font-family="Ubuntu Mono" font-size="10.00">interpolate()</text>
<text text-anchor="start" x="24" y="-422.5" font-family="Ubuntu Mono" font-size="10.00">and 12 more...</text>
<text text-anchor="start" x="11" y="-407.5" font-family="Ubuntu Mono" font-size="10.00">+</text>
<text text-anchor="start" x="24" y="-407.5" font-family="Ubuntu Mono" font-size="10.00">initCinfo()</text>
<text text-anchor="start" x="11" y="-392.5" font-family="Ubuntu Mono" font-size="10.00">#</text>
<text text-anchor="start" x="24" y="-392.5" font-family="Ubuntu Mono" font-size="10.00">vec()</text>
<polygon fill="#666666" stroke="#666666" points="7,-597.5 7,-597.5 112,-597.5 112,-597.5 7,-597.5"/>
<polygon fill="#666666" stroke="#666666" points="7,-582.5 7,-582.5 22,-582.5 22,-582.5 7,-582.5"/>
<polygon fill="#666666" stroke="#666666" points="22,-582.5 22,-582.5 112,-582.5 112,-582.5 22,-582.5"/>
<polygon fill="none" stroke="#666666" points="6.5,-386 6.5,-615 111.5,-615 111.5,-386 6.5,-386"/>
</a>
</g>
</g>
<!-- Node2&#45;&gt;Node1 -->
<g id="edge1_Node000001_Node000002" class="edge">
<title>Node2&#45;&gt;Node1</title>
<g id="a_edge1_Node000001_Node000002"><a xlink:title=" ">
<path fill="none" stroke="#63b8ff" d="M59,-375.56C59,-366.84 59,-357.96 59,-349.04"/>
<polygon fill="none" stroke="#63b8ff" points="55.5,-375.73 59,-385.73 62.5,-375.73 55.5,-375.73"/>
</a>
</g>
</g>
<!-- Node3 -->
<g id="Node000003" class="node">
<title>Node3</title>
<g id="a_Node000003"><a xlink:title=" ">
<polygon fill="white" stroke="transparent" points="118,-711 0,-711 0,-662 118,-662 118,-711"/>
<text text-anchor="start" x="5" y="-698.5" font-family="Ubuntu Mono" font-size="10.00">std::vector&lt; double &gt;</text>
<text text-anchor="start" x="16.5" y="-683.5" font-family="Ubuntu Mono" font-size="10.00">+</text>
<text text-anchor="start" x="42" y="-683.5" font-family="Ubuntu Mono" font-size="10.00">elements</text>
<text text-anchor="start" x="57" y="-668.5" font-family="Ubuntu Mono" font-size="10.00"> </text>
<polygon fill="#666666" stroke="#666666" points="0,-693.5 0,-693.5 118,-693.5 118,-693.5 0,-693.5"/>
<polygon fill="#666666" stroke="#666666" points="0,-678.5 0,-678.5 40,-678.5 40,-678.5 0,-678.5"/>
<polygon fill="#666666" stroke="#666666" points="40,-678.5 40,-678.5 118,-678.5 118,-678.5 40,-678.5"/>
<polygon fill="none" stroke="#666666" points="0,-662 0,-711 118,-711 118,-662 0,-662"/>
</a>
</g>
</g>
<!-- Node3&#45;&gt;Node2 -->
<g id="edge2_Node000002_Node000003" class="edge">
<title>Node3&#45;&gt;Node2</title>
<g id="a_edge2_Node000002_Node000003"><a xlink:title=" ">
<path fill="none" stroke="#63b8ff" d="M59,-661.82C59,-652.24 59,-640.38 59,-627.49"/>
<polygon fill="none" stroke="#63b8ff" points="59,-627.4 55,-621.4 59,-615.4 63,-621.4 59,-627.4"/>
</a>
</g>
<text text-anchor="middle" x="73.5" y="-636" font-family="Ubuntu Mono" font-size="10.00" fill="grey"> &#45;vec_</text>
</g>
<!-- Node4 -->
<g id="Node000004" class="node">
<title>Node4</title>
<g id="a_Node000004"><a xlink:title=" ">
<polygon fill="white" stroke="transparent" points="104.5,-807 13.5,-807 13.5,-758 104.5,-758 104.5,-807"/>
<text text-anchor="start" x="19" y="-794.5" font-family="Ubuntu Mono" font-size="10.00">std::vector&lt; T &gt;</text>
<text text-anchor="start" x="57.5" y="-779.5" font-family="Ubuntu Mono" font-size="10.00"> </text>
<text text-anchor="start" x="57.5" y="-764.5" font-family="Ubuntu Mono" font-size="10.00"> </text>
<polygon fill="#666666" stroke="#666666" points="14,-789.5 14,-789.5 105,-789.5 105,-789.5 14,-789.5"/>
<polygon fill="#666666" stroke="#666666" points="14,-774.5 14,-774.5 105,-774.5 105,-774.5 14,-774.5"/>
<polygon fill="none" stroke="#666666" points="13.5,-758 13.5,-807 104.5,-807 104.5,-758 13.5,-758"/>
</a>
</g>
</g>
<!-- Node4&#45;&gt;Node3 -->
<g id="edge3_Node000003_Node000004" class="edge">
<title>Node4&#45;&gt;Node3</title>
<g id="a_edge3_Node000003_Node000004"><a xlink:title=" ">
<path fill="none" stroke="orange" d="M59,-747.6C59,-735.54 59,-722.23 59,-711.21"/>
<polygon fill="orange" stroke="orange" points="55.5,-747.78 59,-757.78 62.5,-747.78 55.5,-747.78"/>
</a>
</g>
<text text-anchor="middle" x="88.5" y="-732" font-family="Ubuntu Mono" font-size="10.00" fill="grey"> &lt; double &gt;</text>
</g>
<!-- Node5 -->
<g id="Node000005" class="node">
<title>Node5</title>
<g id="a_Node000005"><a xlink:title=" ">
<polygon fill="white" stroke="transparent" points="67.5,-903 50.5,-903 50.5,-854 67.5,-854 67.5,-903"/>
<text text-anchor="start" x="56" y="-890.5" font-family="Ubuntu Mono" font-size="10.00">T</text>
<text text-anchor="start" x="57.5" y="-875.5" font-family="Ubuntu Mono" font-size="10.00"> </text>
<text text-anchor="start" x="57.5" y="-860.5" font-family="Ubuntu Mono" font-size="10.00"> </text>
<polygon fill="#666666" stroke="#666666" points="51,-885.5 51,-885.5 68,-885.5 68,-885.5 51,-885.5"/>
<polygon fill="#666666" stroke="#666666" points="51,-870.5 51,-870.5 68,-870.5 68,-870.5 51,-870.5"/>
<polygon fill="none" stroke="#666666" points="50.5,-854 50.5,-903 67.5,-903 67.5,-854 50.5,-854"/>
</a>
</g>
</g>
<!-- Node5&#45;&gt;Node4 -->
<g id="edge4_Node000004_Node000005" class="edge">
<title>Node5&#45;&gt;Node4</title>
<g id="a_edge4_Node000004_Node000005"><a xlink:title=" ">
<path fill="none" stroke="#63b8ff" d="M59,-853.78C59,-843.32 59,-830.79 59,-819.23"/>
<polygon fill="none" stroke="#63b8ff" points="59,-819.21 55,-813.21 59,-807.21 63,-813.21 59,-819.21"/>
</a>
</g>
<text text-anchor="middle" x="88" y="-828" font-family="Ubuntu Mono" font-size="10.00" fill="grey"> +elements</text>
</g>
</g>
</svg>

<g id="navigator" transform="translate(0 0)" fill="#404254">
  <rect fill="#f2f5e9" fill-opacity="0.5" stroke="#606060" stroke-width=".5" x="0" y="0" width="60" height="60"/>
  <use id="zoomplus" xlink:href="#zoomPlus" x="17" y="9" onmousedown="handleZoom(evt,'in')"/>
  <use id="zoomminus" xlink:href="#zoomMin" x="42" y="9" onmousedown="handleZoom(evt,'out')"/>
  <use id="reset" xlink:href="#resetDef" x="30" y="36" onmousedown="handleReset()"/>
   <use id="arrowup" xlink:href="#arrowUp" x="0" y="0" onmousedown="handlePan(0,-1)"/>
  <use id="arrowright" xlink:href="#arrowRight" x="0" y="0" onmousedown="handlePan(1,0)"/>
  <use id="arrowdown" xlink:href="#arrowDown" x="0" y="0" onmousedown="handlePan(0,1)"/>
  <use id="arrowleft" xlink:href="#arrowLeft" x="0" y="0" onmousedown="handlePan(-1,0)"/>
</g>
<svg viewBox="0 0 15 15" width="100%" height="30px" preserveAspectRatio="xMaxYMin meet">
 <g id="arrow_out" transform="scale(0.3 0.3)">
  <a xlink:href="classStimulusTable__coll__graph_org.svg" target="_base">
   <rect id="button" ry="5" rx="5" y="6" x="6" height="38" width="38"
        fill="#f2f5e9" fill-opacity="0.5" stroke="#606060" stroke-width="1.0"/>
   <path id="arrow"
     d="M 11.500037,31.436501 C 11.940474,20.09759 22.043105,11.32322 32.158766,21.979434 L 37.068811,17.246167 C 37.068811,17.246167 37.088388,32 37.088388,32 L 22.160133,31.978069 C 22.160133,31.978069 26.997745,27.140456 26.997745,27.140456 C 18.528582,18.264221 13.291696,25.230495 11.500037,31.436501 z"
     style="fill:#404040;"/>
  </a>
 </g>
</svg>

<style type='text/css'>
<![CDATA[
[data-mouse-over-selected='false'] { opacity: 0.7; }
[data-mouse-over-selected='true']  { opacity: 1.0; }
]]>
</style>
<script type="application/ecmascript"><![CDATA[
document.addEventListener('DOMContentLoaded', (event) => {
  highlightEdges();
  highlightAdjacentNodes();
});
]]></script>
</svg>
