<?xml version="1.0" encoding="UTF-8" standalone="no"?>
<!DOCTYPE svg PUBLIC "-//W3C//DTD SVG 1.1//EN"
 "http://www.w3.org/Graphics/SVG/1.1/DTD/svg11.dtd">
<!-- Generated by graphviz version 2.43.0 (0)
 -->
<!-- Title: /home/runner/work/mooseneuro.github.io/mooseneuro.github.io/docs/moose&#45;core/scheduling/Clock.h Pages: 1 -->
<!--zoomable 203 -->

<svg id="main" version="1.1" xmlns="http://www.w3.org/2000/svg" xmlns:xlink="http://www.w3.org/1999/xlink" xml:space="preserve" onload="init(evt)">
<style type="text/css"><![CDATA[
.node, .edge {opacity: 0.7;}
.node.selected, .edge.selected {opacity: 1;}
.edge:hover path { stroke: red; }
.edge:hover polygon { stroke: red; fill: red; }
]]></style>

<defs>
  <circle id="rim" cx="0" cy="0" r="7"/>
  <circle id="rim2" cx="0" cy="0" r="3.5"/>
  <g id="zoomPlus">
    <use xlink:href="#rim" fill="#404040"><set attributeName="fill" to="#808080" begin="zoomplus.mouseover" end="zoomplus.mouseout"/></use>
    <path d="M-4,0h8M0,-4v8" fill="none" stroke="white" stroke-width="1.5" pointer-events="none"/>
  </g>
  <g id="zoomMin">
    <use xlink:href="#rim" fill="#404040"><set attributeName="fill" to="#808080" begin="zoomminus.mouseover" end="zoomminus.mouseout"/></use>
    <path d="M-4,0h8" fill="none" stroke="white" stroke-width="1.5" pointer-events="none"/>
  </g>
  <g id="arrowUp" transform="translate(30 24)">
    <use xlink:href="#rim"/>
    <path pointer-events="none" fill="none" stroke="white" stroke-width="1.5" d="M0,-3.0v7 M-2.5,-0.5L0,-3.0L2.5,-0.5"/>
  </g>
  <g id="arrowRight" transform="rotate(90) translate(36 -43)">
    <use xlink:href="#rim"/>
    <path pointer-events="none" fill="none" stroke="white" stroke-width="1.5" d="M0,-3.0v7 M-2.5,-0.5L0,-3.0L2.5,-0.5"/>
  </g>
  <g id="arrowDown" transform="rotate(180) translate(-30 -48)">
    <use xlink:href="#rim"/>
    <path pointer-events="none" fill="none" stroke="white" stroke-width="1.5" d="M0,-3.0v7 M-2.5,-0.5L0,-3.0L2.5,-0.5"/>
  </g>
  <g id="arrowLeft" transform="rotate(270) translate(-36 17)">
    <use xlink:href="#rim"/>
    <path pointer-events="none" fill="none" stroke="white" stroke-width="1.5" d="M0,-3.0v7 M-2.5,-0.5L0,-3.0L2.5,-0.5"/>
  </g>
  <g id="resetDef">
    <use xlink:href="#rim2" fill="#404040"><set attributeName="fill" to="#808080" begin="reset.mouseover" end="reset.mouseout"/></use>
  </g>
</defs>
<script type="application/ecmascript">
var viewWidth = 3568;
var viewHeight = 203;
var sectionId = 'dynsection-0';
</script>
<script type="application/ecmascript" xlink:href="svg.min.js"/>
<svg id="graph" class="graph">
<g id="viewport">
<title>/home/runner/work/mooseneuro.github.io/mooseneuro.github.io/docs/moose&#45;core/scheduling/Clock.h</title>
<!-- Node1 -->
<g id="Node000001" class="node">
<title>Node1</title>
<g id="a_Node000001"><a xlink:title=" ">
<polygon fill="#999999" stroke="#666666" points="1988,-195 1770,-195 1770,-154 1988,-154 1988,-195"/>
<text text-anchor="start" x="1778" y="-183" font-family="Ubuntu Mono" font-size="10.00">/home/runner/work/mooseneuro.github.io</text>
<text text-anchor="start" x="1778" y="-172" font-family="Ubuntu Mono" font-size="10.00">/mooseneuro.github.io/docs/moose</text>
<text text-anchor="middle" x="1879" y="-161" font-family="Ubuntu Mono" font-size="10.00">&#45;core/scheduling/Clock.h</text>
</a>
</g>
</g>
<!-- Node2 -->
<g id="Node000002" class="node">
<title>Node2</title>
<g id="a_Node000002"><a xlink:href="Element_8cpp.html" target="_top" xlink:title=" ">
<polygon fill="white" stroke="#666666" points="218,-118 0,-118 0,-77 218,-77 218,-118"/>
<text text-anchor="start" x="8" y="-106" font-family="Ubuntu Mono" font-size="10.00">/home/runner/work/mooseneuro.github.io</text>
<text text-anchor="start" x="8" y="-95" font-family="Ubuntu Mono" font-size="10.00">/mooseneuro.github.io/docs/moose</text>
<text text-anchor="middle" x="109" y="-84" font-family="Ubuntu Mono" font-size="10.00">&#45;core/basecode/Element.cpp</text>
</a>
</g>
</g>
<!-- Node1&#45;&gt;Node2 -->
<g id="edge1_Node000001_Node000002" class="edge">
<title>Node1&#45;&gt;Node2</title>
<g id="a_edge1_Node000001_Node000002"><a xlink:title=" ">
<path fill="none" stroke="#63b8ff" d="M1759.29,-171.5C1431.57,-165.72 524.42,-147.44 227,-118 224.11,-117.71 221.18,-117.4 218.22,-117.06"/>
<polygon fill="#63b8ff" stroke="#63b8ff" points="1759.7,-175.01 1769.76,-171.69 1759.82,-168.01 1759.7,-175.01"/>
</a>
</g>
</g>
<!-- Node3 -->
<g id="Node000003" class="node">
<title>Node3</title>
<g id="a_Node000003"><a xlink:href="main_8cpp.html" target="_top" xlink:title=" ">
<polygon fill="white" stroke="#666666" points="454,-118 236,-118 236,-77 454,-77 454,-118"/>
<text text-anchor="start" x="244" y="-106" font-family="Ubuntu Mono" font-size="10.00">/home/runner/work/mooseneuro.github.io</text>
<text text-anchor="start" x="244" y="-95" font-family="Ubuntu Mono" font-size="10.00">/mooseneuro.github.io/docs/moose</text>
<text text-anchor="middle" x="345" y="-84" font-family="Ubuntu Mono" font-size="10.00">&#45;core/basecode/main.cpp</text>
</a>
</g>
</g>
<!-- Node1&#45;&gt;Node3 -->
<g id="edge2_Node000001_Node000003" class="edge">
<title>Node1&#45;&gt;Node3</title>
<g id="a_edge2_Node000001_Node000003"><a xlink:title=" ">
<path fill="none" stroke="#63b8ff" d="M1759.55,-173.83C1515.36,-173.4 941.66,-166.74 463,-118 460.11,-117.71 457.18,-117.38 454.23,-117.04"/>
<polygon fill="#63b8ff" stroke="#63b8ff" points="1759.86,-177.33 1769.86,-173.84 1759.87,-170.33 1759.86,-177.33"/>
</a>
</g>
</g>
<!-- Node4 -->
<g id="Node000004" class="node">
<title>Node4</title>
<g id="a_Node000004"><a xlink:href="testAsync_8cpp.html" target="_top" xlink:title=" ">
<polygon fill="white" stroke="#666666" points="690,-118 472,-118 472,-77 690,-77 690,-118"/>
<text text-anchor="start" x="480" y="-106" font-family="Ubuntu Mono" font-size="10.00">/home/runner/work/mooseneuro.github.io</text>
<text text-anchor="start" x="480" y="-95" font-family="Ubuntu Mono" font-size="10.00">/mooseneuro.github.io/docs/moose</text>
<text text-anchor="middle" x="581" y="-84" font-family="Ubuntu Mono" font-size="10.00">&#45;core/basecode/testAsync.cpp</text>
</a>
</g>
</g>
<!-- Node1&#45;&gt;Node4 -->
<g id="edge3_Node000001_Node000004" class="edge">
<title>Node1&#45;&gt;Node4</title>
<g id="a_edge3_Node000001_Node000004"><a xlink:title=" ">
<path fill="none" stroke="#63b8ff" d="M1759.39,-172.48C1545.87,-169.64 1085.28,-158.86 699,-118 696.11,-117.69 693.18,-117.36 690.23,-117.01"/>
<polygon fill="#63b8ff" stroke="#63b8ff" points="1759.63,-175.99 1769.68,-172.62 1759.72,-168.99 1759.63,-175.99"/>
</a>
</g>
</g>
<!-- Node5 -->
<g id="Node000005" class="node">
<title>Node5</title>
<g id="a_Node000005"><a xlink:href="SocketStreamer_8cpp.html" target="_top" xlink:title=" ">
<polygon fill="white" stroke="#666666" points="926,-118 708,-118 708,-77 926,-77 926,-118"/>
<text text-anchor="start" x="716" y="-106" font-family="Ubuntu Mono" font-size="10.00">/home/runner/work/mooseneuro.github.io</text>
<text text-anchor="start" x="716" y="-95" font-family="Ubuntu Mono" font-size="10.00">/mooseneuro.github.io/docs/moose</text>
<text text-anchor="middle" x="817" y="-84" font-family="Ubuntu Mono" font-size="10.00">&#45;core/builtins/SocketStreamer.cpp</text>
</a>
</g>
</g>
<!-- Node1&#45;&gt;Node5 -->
<g id="edge4_Node000001_Node000005" class="edge">
<title>Node1&#45;&gt;Node5</title>
<g id="a_edge4_Node000001_Node000005"><a xlink:title=" ">
<path fill="none" stroke="#63b8ff" d="M1759.4,-170.49C1579.88,-165.07 1230.29,-150.99 935,-118 932.11,-117.68 929.19,-117.33 926.23,-116.97"/>
<polygon fill="#63b8ff" stroke="#63b8ff" points="1759.56,-174 1769.66,-170.8 1759.77,-167 1759.56,-174"/>
</a>
</g>
</g>
<!-- Node6 -->
<g id="Node000006" class="node">
<title>Node6</title>
<g id="a_Node000006"><a xlink:href="Streamer_8cpp.html" target="_top" xlink:title=" ">
<polygon fill="white" stroke="#666666" points="1162,-118 944,-118 944,-77 1162,-77 1162,-118"/>
<text text-anchor="start" x="952" y="-106" font-family="Ubuntu Mono" font-size="10.00">/home/runner/work/mooseneuro.github.io</text>
<text text-anchor="start" x="952" y="-95" font-family="Ubuntu Mono" font-size="10.00">/mooseneuro.github.io/docs/moose</text>
<text text-anchor="middle" x="1053" y="-84" font-family="Ubuntu Mono" font-size="10.00">&#45;core/builtins/Streamer.cpp</text>
</a>
</g>
</g>
<!-- Node1&#45;&gt;Node6 -->
<g id="edge5_Node000001_Node000006" class="edge">
<title>Node1&#45;&gt;Node6</title>
<g id="a_edge5_Node000001_Node000006"><a xlink:title=" ">
<path fill="none" stroke="#63b8ff" d="M1759.46,-167.26C1618.45,-159.17 1377.12,-143.06 1171,-118 1168.11,-117.65 1165.19,-117.28 1162.24,-116.89"/>
<polygon fill="#63b8ff" stroke="#63b8ff" points="1759.67,-170.77 1769.85,-167.85 1760.07,-163.79 1759.67,-170.77"/>
</a>
</g>
</g>
<!-- Node7 -->
<g id="Node000007" class="node">
<title>Node7</title>
<g id="a_Node000007"><a xlink:href="StreamerBase_8cpp.html" target="_top" xlink:title=" ">
<polygon fill="white" stroke="#666666" points="1398,-118 1180,-118 1180,-77 1398,-77 1398,-118"/>
<text text-anchor="start" x="1188" y="-106" font-family="Ubuntu Mono" font-size="10.00">/home/runner/work/mooseneuro.github.io</text>
<text text-anchor="start" x="1188" y="-95" font-family="Ubuntu Mono" font-size="10.00">/mooseneuro.github.io/docs/moose</text>
<text text-anchor="middle" x="1289" y="-84" font-family="Ubuntu Mono" font-size="10.00">&#45;core/builtins/StreamerBase.cpp</text>
</a>
</g>
</g>
<!-- Node1&#45;&gt;Node7 -->
<g id="edge6_Node000001_Node000007" class="edge">
<title>Node1&#45;&gt;Node7</title>
<g id="a_edge6_Node000001_Node000007"><a xlink:title=" ">
<path fill="none" stroke="#63b8ff" d="M1759.62,-161.02C1664.08,-150.66 1526.74,-134.92 1407,-118 1404.12,-117.59 1401.21,-117.17 1398.26,-116.74"/>
<polygon fill="#63b8ff" stroke="#63b8ff" points="1759.29,-164.51 1769.61,-162.1 1760.04,-157.55 1759.29,-164.51"/>
</a>
</g>
</g>
<!-- Node8 -->
<g id="Node000008" class="node">
<title>Node8</title>
<g id="a_Node000008"><a xlink:href="Table_8cpp.html" target="_top" xlink:title=" ">
<polygon fill="white" stroke="#666666" points="1634,-118 1416,-118 1416,-77 1634,-77 1634,-118"/>
<text text-anchor="start" x="1424" y="-106" font-family="Ubuntu Mono" font-size="10.00">/home/runner/work/mooseneuro.github.io</text>
<text text-anchor="start" x="1424" y="-95" font-family="Ubuntu Mono" font-size="10.00">/mooseneuro.github.io/docs/moose</text>
<text text-anchor="middle" x="1525" y="-84" font-family="Ubuntu Mono" font-size="10.00">&#45;core/builtins/Table.cpp</text>
</a>
</g>
</g>
<!-- Node1&#45;&gt;Node8 -->
<g id="edge7_Node000001_Node000008" class="edge">
<title>Node1&#45;&gt;Node8</title>
<g id="a_edge7_Node000001_Node000008"><a xlink:title=" ">
<path fill="none" stroke="#63b8ff" d="M1776.97,-151.88C1726.58,-141.21 1666.24,-128.42 1617.24,-118.04"/>
<polygon fill="#63b8ff" stroke="#63b8ff" points="1776.41,-155.34 1786.91,-153.99 1777.86,-148.49 1776.41,-155.34"/>
</a>
</g>
</g>
<!-- Node9 -->
<g id="Node000009" class="node">
<title>Node9</title>
<g id="a_Node000009"><a xlink:href="testBuiltins_8cpp.html" target="_top" xlink:title=" ">
<polygon fill="white" stroke="#666666" points="1870,-118 1652,-118 1652,-77 1870,-77 1870,-118"/>
<text text-anchor="start" x="1660" y="-106" font-family="Ubuntu Mono" font-size="10.00">/home/runner/work/mooseneuro.github.io</text>
<text text-anchor="start" x="1660" y="-95" font-family="Ubuntu Mono" font-size="10.00">/mooseneuro.github.io/docs/moose</text>
<text text-anchor="middle" x="1761" y="-84" font-family="Ubuntu Mono" font-size="10.00">&#45;core/builtins/testBuiltins.cpp</text>
</a>
</g>
</g>
<!-- Node1&#45;&gt;Node9 -->
<g id="edge8_Node000001_Node000009" class="edge">
<title>Node1&#45;&gt;Node9</title>
<g id="a_edge8_Node000001_Node000009"><a xlink:title=" ">
<path fill="none" stroke="#63b8ff" d="M1839.46,-148.37C1823.98,-138.53 1806.49,-127.41 1791.95,-118.17"/>
<polygon fill="#63b8ff" stroke="#63b8ff" points="1837.99,-151.58 1848.3,-153.99 1841.74,-145.67 1837.99,-151.58"/>
</a>
</g>
</g>
<!-- Node10 -->
<g id="Node000010" class="node">
<title>Node10</title>
<g id="a_Node000010"><a xlink:href="Stoich_8cpp.html" target="_top" xlink:title=" ">
<polygon fill="white" stroke="#666666" points="2106,-118 1888,-118 1888,-77 2106,-77 2106,-118"/>
<text text-anchor="start" x="1896" y="-106" font-family="Ubuntu Mono" font-size="10.00">/home/runner/work/mooseneuro.github.io</text>
<text text-anchor="start" x="1896" y="-95" font-family="Ubuntu Mono" font-size="10.00">/mooseneuro.github.io/docs/moose</text>
<text text-anchor="middle" x="1997" y="-84" font-family="Ubuntu Mono" font-size="10.00">&#45;core/ksolve/Stoich.cpp</text>
</a>
</g>
</g>
<!-- Node1&#45;&gt;Node10 -->
<g id="edge9_Node000001_Node000010" class="edge">
<title>Node1&#45;&gt;Node10</title>
<g id="a_edge9_Node000001_Node000010"><a xlink:title=" ">
<path fill="none" stroke="#63b8ff" d="M1918.54,-148.37C1934.02,-138.53 1951.51,-127.41 1966.05,-118.17"/>
<polygon fill="#63b8ff" stroke="#63b8ff" points="1916.26,-145.67 1909.7,-153.99 1920.01,-151.58 1916.26,-145.67"/>
</a>
</g>
</g>
<!-- Node11 -->
<g id="Node000011" class="node">
<title>Node11</title>
<g id="a_Node000011"><a xlink:href="pymoose_2Finfo_8h.html" target="_top" xlink:title=" ">
<polygon fill="white" stroke="#666666" points="2342,-118 2124,-118 2124,-77 2342,-77 2342,-118"/>
<text text-anchor="start" x="2132" y="-106" font-family="Ubuntu Mono" font-size="10.00">/home/runner/work/mooseneuro.github.io</text>
<text text-anchor="start" x="2132" y="-95" font-family="Ubuntu Mono" font-size="10.00">/mooseneuro.github.io/docs/moose</text>
<text text-anchor="middle" x="2233" y="-84" font-family="Ubuntu Mono" font-size="10.00">&#45;core/pymoose/Finfo.h</text>
</a>
</g>
</g>
<!-- Node1&#45;&gt;Node11 -->
<g id="edge10_Node000001_Node000011" class="edge">
<title>Node1&#45;&gt;Node11</title>
<g id="a_edge10_Node000001_Node000011"><a xlink:title=" ">
<path fill="none" stroke="#63b8ff" d="M1981.03,-151.88C2031.42,-141.21 2091.76,-128.42 2140.76,-118.04"/>
<polygon fill="#63b8ff" stroke="#63b8ff" points="1980.14,-148.49 1971.09,-153.99 1981.59,-155.34 1980.14,-148.49"/>
</a>
</g>
</g>
<!-- Node14 -->
<g id="Node000014" class="node">
<title>Node14</title>
<g id="a_Node000014"><a xlink:href="helper_8cpp.html" target="_top" xlink:title=" ">
<polygon fill="white" stroke="#666666" points="2578,-41 2360,-41 2360,0 2578,0 2578,-41"/>
<text text-anchor="start" x="2368" y="-29" font-family="Ubuntu Mono" font-size="10.00">/home/runner/work/mooseneuro.github.io</text>
<text text-anchor="start" x="2368" y="-18" font-family="Ubuntu Mono" font-size="10.00">/mooseneuro.github.io/docs/moose</text>
<text text-anchor="middle" x="2469" y="-7" font-family="Ubuntu Mono" font-size="10.00">&#45;core/pymoose/helper.cpp</text>
</a>
</g>
</g>
<!-- Node1&#45;&gt;Node14 -->
<g id="edge15_Node000001_Node000014" class="edge">
<title>Node1&#45;&gt;Node14</title>
<g id="a_edge15_Node000001_Node000014"><a xlink:title=" ">
<path fill="none" stroke="#63b8ff" d="M1998.49,-168.83C2117.65,-162.51 2291.32,-148.33 2351,-118 2373.15,-106.74 2370.24,-93.29 2389,-77 2404.06,-63.92 2422.24,-51.11 2437.45,-41.1"/>
<polygon fill="#63b8ff" stroke="#63b8ff" points="1998.01,-165.35 1988.21,-169.36 1998.38,-172.34 1998.01,-165.35"/>
</a>
</g>
</g>
<!-- Node16 -->
<g id="Node000016" class="node">
<title>Node16</title>
<g id="a_Node000016"><a xlink:href="Clock_8cpp.html" target="_top" xlink:title=" ">
<polygon fill="white" stroke="#666666" points="2616,-118 2398,-118 2398,-77 2616,-77 2616,-118"/>
<text text-anchor="start" x="2406" y="-106" font-family="Ubuntu Mono" font-size="10.00">/home/runner/work/mooseneuro.github.io</text>
<text text-anchor="start" x="2406" y="-95" font-family="Ubuntu Mono" font-size="10.00">/mooseneuro.github.io/docs/moose</text>
<text text-anchor="middle" x="2507" y="-84" font-family="Ubuntu Mono" font-size="10.00">&#45;core/scheduling/Clock.cpp</text>
</a>
</g>
</g>
<!-- Node1&#45;&gt;Node16 -->
<g id="edge16_Node000001_Node000016" class="edge">
<title>Node1&#45;&gt;Node16</title>
<g id="a_edge16_Node000001_Node000016"><a xlink:title=" ">
<path fill="none" stroke="#63b8ff" d="M1998.11,-162.03C2100.56,-151.78 2252.23,-135.68 2384,-118 2388.5,-117.4 2393.09,-116.76 2397.72,-116.1"/>
<polygon fill="#63b8ff" stroke="#63b8ff" points="1997.64,-158.56 1988.04,-163.04 1998.33,-165.52 1997.64,-158.56"/>
</a>
</g>
</g>
<!-- Node17 -->
<g id="Node000017" class="node">
<title>Node17</title>
<g id="a_Node000017"><a xlink:href="testScheduling_8cpp.html" target="_top" xlink:title=" ">
<polygon fill="white" stroke="#666666" points="2852,-118 2634,-118 2634,-77 2852,-77 2852,-118"/>
<text text-anchor="start" x="2642" y="-106" font-family="Ubuntu Mono" font-size="10.00">/home/runner/work/mooseneuro.github.io</text>
<text text-anchor="start" x="2642" y="-95" font-family="Ubuntu Mono" font-size="10.00">/mooseneuro.github.io/docs/moose</text>
<text text-anchor="middle" x="2743" y="-84" font-family="Ubuntu Mono" font-size="10.00">&#45;core/scheduling/testScheduling.cpp</text>
</a>
</g>
</g>
<!-- Node1&#45;&gt;Node17 -->
<g id="edge17_Node000001_Node000017" class="edge">
<title>Node1&#45;&gt;Node17</title>
<g id="a_edge17_Node000001_Node000017"><a xlink:title=" ">
<path fill="none" stroke="#63b8ff" d="M1998,-167.94C2145.51,-160.29 2404.4,-144.38 2625,-118 2627.89,-117.65 2630.81,-117.29 2633.76,-116.91"/>
<polygon fill="#63b8ff" stroke="#63b8ff" points="1997.82,-164.44 1988.01,-168.45 1998.18,-171.43 1997.82,-164.44"/>
</a>
</g>
</g>
<!-- Node18 -->
<g id="Node000018" class="node">
<title>Node18</title>
<g id="a_Node000018"><a xlink:href="Shell_8cpp.html" target="_top" xlink:title=" ">
<polygon fill="white" stroke="#666666" points="3088,-118 2870,-118 2870,-77 3088,-77 3088,-118"/>
<text text-anchor="start" x="2878" y="-106" font-family="Ubuntu Mono" font-size="10.00">/home/runner/work/mooseneuro.github.io</text>
<text text-anchor="start" x="2878" y="-95" font-family="Ubuntu Mono" font-size="10.00">/mooseneuro.github.io/docs/moose</text>
<text text-anchor="middle" x="2979" y="-84" font-family="Ubuntu Mono" font-size="10.00">&#45;core/shell/Shell.cpp</text>
</a>
</g>
</g>
<!-- Node1&#45;&gt;Node18 -->
<g id="edge18_Node000001_Node000018" class="edge">
<title>Node1&#45;&gt;Node18</title>
<g id="a_edge18_Node000001_Node000018"><a xlink:title=" ">
<path fill="none" stroke="#63b8ff" d="M1998.34,-170.88C2183.51,-165.89 2551.02,-152.27 2861,-118 2863.89,-117.68 2866.82,-117.34 2869.77,-116.98"/>
<polygon fill="#63b8ff" stroke="#63b8ff" points="1998.21,-167.38 1988.3,-171.15 1998.39,-174.38 1998.21,-167.38"/>
</a>
</g>
</g>
<!-- Node19 -->
<g id="Node000019" class="node">
<title>Node19</title>
<g id="a_Node000019"><a xlink:href="ShellCopy_8cpp.html" target="_top" xlink:title=" ">
<polygon fill="white" stroke="#666666" points="3324,-118 3106,-118 3106,-77 3324,-77 3324,-118"/>
<text text-anchor="start" x="3114" y="-106" font-family="Ubuntu Mono" font-size="10.00">/home/runner/work/mooseneuro.github.io</text>
<text text-anchor="start" x="3114" y="-95" font-family="Ubuntu Mono" font-size="10.00">/mooseneuro.github.io/docs/moose</text>
<text text-anchor="middle" x="3215" y="-84" font-family="Ubuntu Mono" font-size="10.00">&#45;core/shell/ShellCopy.cpp</text>
</a>
</g>
</g>
<!-- Node1&#45;&gt;Node19 -->
<g id="edge19_Node000001_Node000019" class="edge">
<title>Node1&#45;&gt;Node19</title>
<g id="a_edge19_Node000001_Node000019"><a xlink:title=" ">
<path fill="none" stroke="#63b8ff" d="M1998.3,-172.74C2216.82,-170.3 2695.75,-160.15 3097,-118 3099.89,-117.7 3102.82,-117.37 3105.77,-117.02"/>
<polygon fill="#63b8ff" stroke="#63b8ff" points="1998.05,-169.24 1988.09,-172.85 1998.13,-176.24 1998.05,-169.24"/>
</a>
</g>
</g>
<!-- Node20 -->
<g id="Node000020" class="node">
<title>Node20</title>
<g id="a_Node000020"><a xlink:href="testShell_8cpp.html" target="_top" xlink:title=" ">
<polygon fill="white" stroke="#666666" points="3560,-118 3342,-118 3342,-77 3560,-77 3560,-118"/>
<text text-anchor="start" x="3350" y="-106" font-family="Ubuntu Mono" font-size="10.00">/home/runner/work/mooseneuro.github.io</text>
<text text-anchor="start" x="3350" y="-95" font-family="Ubuntu Mono" font-size="10.00">/mooseneuro.github.io/docs/moose</text>
<text text-anchor="middle" x="3451" y="-84" font-family="Ubuntu Mono" font-size="10.00">&#45;core/shell/testShell.cpp</text>
</a>
</g>
</g>
<!-- Node1&#45;&gt;Node20 -->
<g id="edge20_Node000001_Node000020" class="edge">
<title>Node1&#45;&gt;Node20</title>
<g id="a_edge20_Node000001_Node000020"><a xlink:title=" ">
<path fill="none" stroke="#63b8ff" d="M1998.46,-174.01C2247.36,-173.95 2839.39,-168.01 3333,-118 3335.89,-117.71 3338.82,-117.39 3341.77,-117.05"/>
<polygon fill="#63b8ff" stroke="#63b8ff" points="1998.31,-170.51 1988.31,-174.01 1998.31,-177.51 1998.31,-170.51"/>
</a>
</g>
</g>
<!-- Node12 -->
<g id="Node000012" class="node">
<title>Node12</title>
<g id="a_Node000012"><a xlink:href="pymoose_2Finfo_8cpp.html" target="_top" xlink:title=" ">
<polygon fill="white" stroke="#666666" points="1870,-41 1652,-41 1652,0 1870,0 1870,-41"/>
<text text-anchor="start" x="1660" y="-29" font-family="Ubuntu Mono" font-size="10.00">/home/runner/work/mooseneuro.github.io</text>
<text text-anchor="start" x="1660" y="-18" font-family="Ubuntu Mono" font-size="10.00">/mooseneuro.github.io/docs/moose</text>
<text text-anchor="middle" x="1761" y="-7" font-family="Ubuntu Mono" font-size="10.00">&#45;core/pymoose/Finfo.cpp</text>
</a>
</g>
</g>
<!-- Node11&#45;&gt;Node12 -->
<g id="edge11_Node000011_Node000012" class="edge">
<title>Node11&#45;&gt;Node12</title>
<g id="a_edge11_Node000011_Node000012"><a xlink:title=" ">
<path fill="none" stroke="#63b8ff" d="M2113.64,-76.79C2008.54,-60.17 1980.62,-57.15 1879,-41 1876.13,-40.54 1873.22,-40.08 1870.28,-39.61"/>
<polygon fill="#63b8ff" stroke="#63b8ff" points="2113.29,-80.28 2123.72,-78.39 2114.39,-73.37 2113.29,-80.28"/>
</a>
</g>
</g>
<!-- Node13 -->
<g id="Node000013" class="node">
<title>Node13</title>
<g id="a_Node000013"><a xlink:href="MooseVec_8cpp.html" target="_top" xlink:title=" ">
<polygon fill="white" stroke="#666666" points="2106,-41 1888,-41 1888,0 2106,0 2106,-41"/>
<text text-anchor="start" x="1896" y="-29" font-family="Ubuntu Mono" font-size="10.00">/home/runner/work/mooseneuro.github.io</text>
<text text-anchor="start" x="1896" y="-18" font-family="Ubuntu Mono" font-size="10.00">/mooseneuro.github.io/docs/moose</text>
<text text-anchor="middle" x="1997" y="-7" font-family="Ubuntu Mono" font-size="10.00">&#45;core/pymoose/MooseVec.cpp</text>
</a>
</g>
</g>
<!-- Node11&#45;&gt;Node13 -->
<g id="edge12_Node000011_Node000013" class="edge">
<title>Node11&#45;&gt;Node13</title>
<g id="a_edge12_Node000011_Node000013"><a xlink:title=" ">
<path fill="none" stroke="#63b8ff" d="M2162.03,-73.94C2129.05,-63.46 2090.2,-51.12 2058.49,-41.04"/>
<polygon fill="#63b8ff" stroke="#63b8ff" points="2161.02,-77.3 2171.61,-76.99 2163.14,-70.63 2161.02,-77.3"/>
</a>
</g>
</g>
<!-- Node11&#45;&gt;Node14 -->
<g id="edge13_Node000011_Node000014" class="edge">
<title>Node11&#45;&gt;Node14</title>
<g id="a_edge13_Node000011_Node000014"><a xlink:title=" ">
<path fill="none" stroke="#63b8ff" d="M2303.97,-73.94C2336.95,-63.46 2375.8,-51.12 2407.51,-41.04"/>
<polygon fill="#63b8ff" stroke="#63b8ff" points="2302.86,-70.63 2294.39,-76.99 2304.98,-77.3 2302.86,-70.63"/>
</a>
</g>
</g>
<!-- Node15 -->
<g id="Node000015" class="node">
<title>Node15</title>
<g id="a_Node000015"><a xlink:href="pymoose_8cpp.html" target="_top" xlink:title=" ">
<polygon fill="white" stroke="#666666" points="2342,-41 2124,-41 2124,0 2342,0 2342,-41"/>
<text text-anchor="start" x="2132" y="-29" font-family="Ubuntu Mono" font-size="10.00">/home/runner/work/mooseneuro.github.io</text>
<text text-anchor="start" x="2132" y="-18" font-family="Ubuntu Mono" font-size="10.00">/mooseneuro.github.io/docs/moose</text>
<text text-anchor="middle" x="2233" y="-7" font-family="Ubuntu Mono" font-size="10.00">&#45;core/pymoose/pymoose.cpp</text>
</a>
</g>
</g>
<!-- Node11&#45;&gt;Node15 -->
<g id="edge14_Node000011_Node000015" class="edge">
<title>Node11&#45;&gt;Node15</title>
<g id="a_edge14_Node000011_Node000015"><a xlink:title=" ">
<path fill="none" stroke="#63b8ff" d="M2233,-66.69C2233,-58.08 2233,-48.9 2233,-41.07"/>
<polygon fill="#63b8ff" stroke="#63b8ff" points="2229.5,-66.79 2233,-76.79 2236.5,-66.79 2229.5,-66.79"/>
</a>
</g>
</g>
</g>
</svg>

<g id="navigator" transform="translate(0 0)" fill="#404254">
  <rect fill="#f2f5e9" fill-opacity="0.5" stroke="#606060" stroke-width=".5" x="0" y="0" width="60" height="60"/>
  <use id="zoomplus" xlink:href="#zoomPlus" x="17" y="9" onmousedown="handleZoom(evt,'in')"/>
  <use id="zoomminus" xlink:href="#zoomMin" x="42" y="9" onmousedown="handleZoom(evt,'out')"/>
  <use id="reset" xlink:href="#resetDef" x="30" y="36" onmousedown="handleReset()"/>
   <use id="arrowup" xlink:href="#arrowUp" x="0" y="0" onmousedown="handlePan(0,-1)"/>
  <use id="arrowright" xlink:href="#arrowRight" x="0" y="0" onmousedown="handlePan(1,0)"/>
  <use id="arrowdown" xlink:href="#arrowDown" x="0" y="0" onmousedown="handlePan(0,1)"/>
  <use id="arrowleft" xlink:href="#arrowLeft" x="0" y="0" onmousedown="handlePan(-1,0)"/>
</g>
<svg viewBox="0 0 15 15" width="100%" height="30px" preserveAspectRatio="xMaxYMin meet">
 <g id="arrow_out" transform="scale(0.3 0.3)">
  <a xlink:href="Clock_8h__dep__incl_org.svg" target="_base">
   <rect id="button" ry="5" rx="5" y="6" x="6" height="38" width="38"
        fill="#f2f5e9" fill-opacity="0.5" stroke="#606060" stroke-width="1.0"/>
   <path id="arrow"
     d="M 11.500037,31.436501 C 11.940474,20.09759 22.043105,11.32322 32.158766,21.979434 L 37.068811,17.246167 C 37.068811,17.246167 37.088388,32 37.088388,32 L 22.160133,31.978069 C 22.160133,31.978069 26.997745,27.140456 26.997745,27.140456 C 18.528582,18.264221 13.291696,25.230495 11.500037,31.436501 z"
     style="fill:#404040;"/>
  </a>
 </g>
</svg>

<style type='text/css'>
<![CDATA[
[data-mouse-over-selected='false'] { opacity: 0.7; }
[data-mouse-over-selected='true']  { opacity: 1.0; }
]]>
</style>
<script type="application/ecmascript"><![CDATA[
document.addEventListener('DOMContentLoaded', (event) => {
  highlightEdges();
  highlightAdjacentNodes();
});
]]></script>
</svg>
