<?xml version="1.0" encoding="UTF-8" standalone="no"?>
<!DOCTYPE svg PUBLIC "-//W3C//DTD SVG 1.1//EN"
 "http://www.w3.org/Graphics/SVG/1.1/DTD/svg11.dtd">
<!-- Generated by graphviz version 2.43.0 (0)
 -->
<!-- Title: /home/runner/work/mooseneuro.github.io/mooseneuro.github.io/docs/moose&#45;core/biophysics/CompartmentBase.h Pages: 1 -->
<!--zoomable 357 -->

<svg id="main" version="1.1" xmlns="http://www.w3.org/2000/svg" xmlns:xlink="http://www.w3.org/1999/xlink" xml:space="preserve" onload="init(evt)">
<style type="text/css"><![CDATA[
.node, .edge {opacity: 0.7;}
.node.selected, .edge.selected {opacity: 1;}
.edge:hover path { stroke: red; }
.edge:hover polygon { stroke: red; fill: red; }
]]></style>

<defs>
  <circle id="rim" cx="0" cy="0" r="7"/>
  <circle id="rim2" cx="0" cy="0" r="3.5"/>
  <g id="zoomPlus">
    <use xlink:href="#rim" fill="#404040"><set attributeName="fill" to="#808080" begin="zoomplus.mouseover" end="zoomplus.mouseout"/></use>
    <path d="M-4,0h8M0,-4v8" fill="none" stroke="white" stroke-width="1.5" pointer-events="none"/>
  </g>
  <g id="zoomMin">
    <use xlink:href="#rim" fill="#404040"><set attributeName="fill" to="#808080" begin="zoomminus.mouseover" end="zoomminus.mouseout"/></use>
    <path d="M-4,0h8" fill="none" stroke="white" stroke-width="1.5" pointer-events="none"/>
  </g>
  <g id="arrowUp" transform="translate(30 24)">
    <use xlink:href="#rim"/>
    <path pointer-events="none" fill="none" stroke="white" stroke-width="1.5" d="M0,-3.0v7 M-2.5,-0.5L0,-3.0L2.5,-0.5"/>
  </g>
  <g id="arrowRight" transform="rotate(90) translate(36 -43)">
    <use xlink:href="#rim"/>
    <path pointer-events="none" fill="none" stroke="white" stroke-width="1.5" d="M0,-3.0v7 M-2.5,-0.5L0,-3.0L2.5,-0.5"/>
  </g>
  <g id="arrowDown" transform="rotate(180) translate(-30 -48)">
    <use xlink:href="#rim"/>
    <path pointer-events="none" fill="none" stroke="white" stroke-width="1.5" d="M0,-3.0v7 M-2.5,-0.5L0,-3.0L2.5,-0.5"/>
  </g>
  <g id="arrowLeft" transform="rotate(270) translate(-36 17)">
    <use xlink:href="#rim"/>
    <path pointer-events="none" fill="none" stroke="white" stroke-width="1.5" d="M0,-3.0v7 M-2.5,-0.5L0,-3.0L2.5,-0.5"/>
  </g>
  <g id="resetDef">
    <use xlink:href="#rim2" fill="#404040"><set attributeName="fill" to="#808080" begin="reset.mouseover" end="reset.mouseout"/></use>
  </g>
</defs>
<script type="application/ecmascript">
var viewWidth = 3866;
var viewHeight = 357;
var sectionId = 'dynsection-0';
</script>
<script type="application/ecmascript" xlink:href="svg.min.js"/>
<svg id="graph" class="graph">
<g id="viewport">
<title>/home/runner/work/mooseneuro.github.io/mooseneuro.github.io/docs/moose&#45;core/biophysics/CompartmentBase.h</title>
<!-- Node1 -->
<g id="Node000001" class="node">
<title>Node1</title>
<g id="a_Node000001"><a xlink:title=" ">
<polygon fill="#999999" stroke="#666666" points="2000,-349 1782,-349 1782,-308 2000,-308 2000,-349"/>
<text text-anchor="start" x="1790" y="-337" font-family="Ubuntu Mono" font-size="10.00">/home/runner/work/mooseneuro.github.io</text>
<text text-anchor="start" x="1790" y="-326" font-family="Ubuntu Mono" font-size="10.00">/mooseneuro.github.io/docs/moose</text>
<text text-anchor="middle" x="1891" y="-315" font-family="Ubuntu Mono" font-size="10.00">&#45;core/biophysics/CompartmentBase.h</text>
</a>
</g>
</g>
<!-- Node2 -->
<g id="Node000002" class="node">
<title>Node2</title>
<g id="a_Node000002"><a xlink:href="Compartment_8cpp.html" target="_top" xlink:title=" ">
<polygon fill="white" stroke="#666666" points="218,-272 0,-272 0,-231 218,-231 218,-272"/>
<text text-anchor="start" x="8" y="-260" font-family="Ubuntu Mono" font-size="10.00">/home/runner/work/mooseneuro.github.io</text>
<text text-anchor="start" x="8" y="-249" font-family="Ubuntu Mono" font-size="10.00">/mooseneuro.github.io/docs/moose</text>
<text text-anchor="middle" x="109" y="-238" font-family="Ubuntu Mono" font-size="10.00">&#45;core/biophysics/Compartment.cpp</text>
</a>
</g>
</g>
<!-- Node1&#45;&gt;Node2 -->
<g id="edge1_Node000001_Node000002" class="edge">
<title>Node1&#45;&gt;Node2</title>
<g id="a_edge1_Node000001_Node000002"><a xlink:title=" ">
<path fill="none" stroke="#63b8ff" d="M1771.79,-325.55C1442.85,-319.83 527,-301.66 227,-272 224.11,-271.71 221.18,-271.4 218.22,-271.06"/>
<polygon fill="#63b8ff" stroke="#63b8ff" points="1771.76,-329.05 1781.82,-325.72 1771.88,-322.05 1771.76,-329.05"/>
</a>
</g>
</g>
<!-- Node3 -->
<g id="Node000003" class="node">
<title>Node3</title>
<g id="a_Node000003"><a xlink:href="CompartmentBase_8cpp.html" target="_top" xlink:title=" ">
<polygon fill="white" stroke="#666666" points="454,-272 236,-272 236,-231 454,-231 454,-272"/>
<text text-anchor="start" x="244" y="-260" font-family="Ubuntu Mono" font-size="10.00">/home/runner/work/mooseneuro.github.io</text>
<text text-anchor="start" x="244" y="-249" font-family="Ubuntu Mono" font-size="10.00">/mooseneuro.github.io/docs/moose</text>
<text text-anchor="middle" x="345" y="-238" font-family="Ubuntu Mono" font-size="10.00">&#45;core/biophysics/CompartmentBase.cpp</text>
</a>
</g>
</g>
<!-- Node1&#45;&gt;Node3 -->
<g id="edge2_Node000001_Node000003" class="edge">
<title>Node1&#45;&gt;Node3</title>
<g id="a_edge2_Node000001_Node000003"><a xlink:title=" ">
<path fill="none" stroke="#63b8ff" d="M1771.83,-327.89C1526.31,-327.58 946.57,-321.16 463,-272 460.11,-271.71 457.18,-271.39 454.23,-271.04"/>
<polygon fill="#63b8ff" stroke="#63b8ff" points="1771.84,-331.39 1781.84,-327.9 1771.85,-324.39 1771.84,-331.39"/>
</a>
</g>
</g>
<!-- Node4 -->
<g id="Node000004" class="node">
<title>Node4</title>
<g id="a_Node000004"><a xlink:href="CompartmentDataHolder_8cpp.html" target="_top" xlink:title=" ">
<polygon fill="white" stroke="#666666" points="714,-272 472,-272 472,-231 714,-231 714,-272"/>
<text text-anchor="start" x="480" y="-260" font-family="Ubuntu Mono" font-size="10.00">/home/runner/work/mooseneuro.github.io</text>
<text text-anchor="start" x="480" y="-249" font-family="Ubuntu Mono" font-size="10.00">/mooseneuro.github.io/docs/moose</text>
<text text-anchor="middle" x="593" y="-238" font-family="Ubuntu Mono" font-size="10.00">&#45;core/biophysics/CompartmentDataHolder.cpp</text>
</a>
</g>
</g>
<!-- Node1&#45;&gt;Node4 -->
<g id="edge3_Node000001_Node000004" class="edge">
<title>Node1&#45;&gt;Node4</title>
<g id="a_edge3_Node000001_Node000004"><a xlink:title=" ">
<path fill="none" stroke="#63b8ff" d="M1771.43,-325.82C1559.64,-321.94 1104.89,-309.62 723,-272 720.05,-271.71 717.06,-271.4 714.05,-271.07"/>
<polygon fill="#63b8ff" stroke="#63b8ff" points="1771.57,-329.32 1781.63,-326 1771.7,-322.32 1771.57,-329.32"/>
</a>
</g>
</g>
<!-- Node5 -->
<g id="Node000005" class="node">
<title>Node5</title>
<g id="a_Node000005"><a xlink:href="ReadCell_8cpp.html" target="_top" xlink:title=" ">
<polygon fill="white" stroke="#666666" points="950,-272 732,-272 732,-231 950,-231 950,-272"/>
<text text-anchor="start" x="740" y="-260" font-family="Ubuntu Mono" font-size="10.00">/home/runner/work/mooseneuro.github.io</text>
<text text-anchor="start" x="740" y="-249" font-family="Ubuntu Mono" font-size="10.00">/mooseneuro.github.io/docs/moose</text>
<text text-anchor="middle" x="841" y="-238" font-family="Ubuntu Mono" font-size="10.00">&#45;core/biophysics/ReadCell.cpp</text>
</a>
</g>
</g>
<!-- Node1&#45;&gt;Node5 -->
<g id="edge4_Node000001_Node000005" class="edge">
<title>Node1&#45;&gt;Node5</title>
<g id="a_edge4_Node000001_Node000005"><a xlink:title=" ">
<path fill="none" stroke="#63b8ff" d="M1771.84,-324.38C1594.28,-318.83 1249.95,-304.61 959,-272 956.11,-271.68 953.19,-271.33 950.24,-270.96"/>
<polygon fill="#63b8ff" stroke="#63b8ff" points="1771.89,-327.88 1781.99,-324.69 1772.1,-320.89 1771.89,-327.88"/>
</a>
</g>
</g>
<!-- Node6 -->
<g id="Node000006" class="node">
<title>Node6</title>
<g id="a_Node000006"><a xlink:href="ReadSwc_8cpp.html" target="_top" xlink:title=" ">
<polygon fill="white" stroke="#666666" points="1186,-272 968,-272 968,-231 1186,-231 1186,-272"/>
<text text-anchor="start" x="976" y="-260" font-family="Ubuntu Mono" font-size="10.00">/home/runner/work/mooseneuro.github.io</text>
<text text-anchor="start" x="976" y="-249" font-family="Ubuntu Mono" font-size="10.00">/mooseneuro.github.io/docs/moose</text>
<text text-anchor="middle" x="1077" y="-238" font-family="Ubuntu Mono" font-size="10.00">&#45;core/biophysics/ReadSwc.cpp</text>
</a>
</g>
</g>
<!-- Node1&#45;&gt;Node6 -->
<g id="edge5_Node000001_Node000006" class="edge">
<title>Node1&#45;&gt;Node6</title>
<g id="a_edge5_Node000001_Node000006"><a xlink:title=" ">
<path fill="none" stroke="#63b8ff" d="M1771.67,-321.05C1632.81,-312.83 1396.75,-296.67 1195,-272 1192.11,-271.65 1189.19,-271.27 1186.24,-270.89"/>
<polygon fill="#63b8ff" stroke="#63b8ff" points="1771.73,-324.56 1781.92,-321.65 1772.14,-317.57 1771.73,-324.56"/>
</a>
</g>
</g>
<!-- Node7 -->
<g id="Node000007" class="node">
<title>Node7</title>
<g id="a_Node000007"><a xlink:href="SymCompartment_8cpp.html" target="_top" xlink:title=" ">
<polygon fill="white" stroke="#666666" points="1422,-272 1204,-272 1204,-231 1422,-231 1422,-272"/>
<text text-anchor="start" x="1212" y="-260" font-family="Ubuntu Mono" font-size="10.00">/home/runner/work/mooseneuro.github.io</text>
<text text-anchor="start" x="1212" y="-249" font-family="Ubuntu Mono" font-size="10.00">/mooseneuro.github.io/docs/moose</text>
<text text-anchor="middle" x="1313" y="-238" font-family="Ubuntu Mono" font-size="10.00">&#45;core/biophysics/SymCompartment.cpp</text>
</a>
</g>
</g>
<!-- Node1&#45;&gt;Node7 -->
<g id="edge6_Node000001_Node000007" class="edge">
<title>Node1&#45;&gt;Node7</title>
<g id="a_edge6_Node000001_Node000007"><a xlink:title=" ">
<path fill="none" stroke="#63b8ff" d="M1771.61,-314.54C1678.65,-304.11 1546.44,-288.49 1431,-272 1428.12,-271.59 1425.21,-271.16 1422.27,-270.73"/>
<polygon fill="#63b8ff" stroke="#63b8ff" points="1771.29,-318.03 1781.62,-315.66 1772.07,-311.07 1771.29,-318.03"/>
</a>
</g>
</g>
<!-- Node8 -->
<g id="Node000008" class="node">
<title>Node8</title>
<g id="a_Node000008"><a xlink:href="testBiophysics_8cpp.html" target="_top" xlink:title=" ">
<polygon fill="white" stroke="#666666" points="1658,-272 1440,-272 1440,-231 1658,-231 1658,-272"/>
<text text-anchor="start" x="1448" y="-260" font-family="Ubuntu Mono" font-size="10.00">/home/runner/work/mooseneuro.github.io</text>
<text text-anchor="start" x="1448" y="-249" font-family="Ubuntu Mono" font-size="10.00">/mooseneuro.github.io/docs/moose</text>
<text text-anchor="middle" x="1549" y="-238" font-family="Ubuntu Mono" font-size="10.00">&#45;core/biophysics/testBiophysics.cpp</text>
</a>
</g>
</g>
<!-- Node1&#45;&gt;Node8 -->
<g id="edge7_Node000001_Node000008" class="edge">
<title>Node1&#45;&gt;Node8</title>
<g id="a_edge7_Node000001_Node000008"><a xlink:title=" ">
<path fill="none" stroke="#63b8ff" d="M1792.13,-305.82C1743.5,-295.15 1685.35,-282.4 1638.11,-272.04"/>
<polygon fill="#63b8ff" stroke="#63b8ff" points="1791.52,-309.27 1802.04,-307.99 1793.02,-302.43 1791.52,-309.27"/>
</a>
</g>
</g>
<!-- Node9 -->
<g id="Node000009" class="node">
<title>Node9</title>
<g id="a_Node000009"><a xlink:href="HSolveActive_8cpp.html" target="_top" xlink:title=" ">
<polygon fill="white" stroke="#666666" points="1019,-118 801,-118 801,-77 1019,-77 1019,-118"/>
<text text-anchor="start" x="809" y="-106" font-family="Ubuntu Mono" font-size="10.00">/home/runner/work/mooseneuro.github.io</text>
<text text-anchor="start" x="809" y="-95" font-family="Ubuntu Mono" font-size="10.00">/mooseneuro.github.io/docs/moose</text>
<text text-anchor="middle" x="910" y="-84" font-family="Ubuntu Mono" font-size="10.00">&#45;core/hsolve/HSolveActive.cpp</text>
</a>
</g>
</g>
<!-- Node1&#45;&gt;Node9 -->
<g id="edge8_Node000001_Node000009" class="edge">
<title>Node1&#45;&gt;Node9</title>
<g id="a_edge8_Node000001_Node000009"><a xlink:title=" ">
<path fill="none" stroke="#63b8ff" d="M1780.4,-305.01C1754.51,-296.95 1727.83,-286.21 1705,-272 1683.91,-258.87 1689.17,-242.21 1667,-231 1540.47,-167.01 1489.88,-218.22 1350,-195 1221.93,-173.74 1074.95,-139.48 987.42,-118.01"/>
<polygon fill="#63b8ff" stroke="#63b8ff" points="1779.7,-308.45 1790.28,-307.97 1781.71,-301.75 1779.7,-308.45"/>
</a>
</g>
</g>
<!-- Node10 -->
<g id="Node000010" class="node">
<title>Node10</title>
<g id="a_Node000010"><a xlink:href="HSolvePassive_8h.html" target="_top" xlink:title=" ">
<polygon fill="white" stroke="#666666" points="1932,-272 1714,-272 1714,-231 1932,-231 1932,-272"/>
<text text-anchor="start" x="1722" y="-260" font-family="Ubuntu Mono" font-size="10.00">/home/runner/work/mooseneuro.github.io</text>
<text text-anchor="start" x="1722" y="-249" font-family="Ubuntu Mono" font-size="10.00">/mooseneuro.github.io/docs/moose</text>
<text text-anchor="middle" x="1823" y="-238" font-family="Ubuntu Mono" font-size="10.00">&#45;core/hsolve/HSolvePassive.h</text>
</a>
</g>
</g>
<!-- Node1&#45;&gt;Node10 -->
<g id="edge9_Node000001_Node000010" class="edge">
<title>Node1&#45;&gt;Node10</title>
<g id="a_edge9_Node000001_Node000010"><a xlink:title=" ">
<path fill="none" stroke="#63b8ff" d="M1866.28,-300.23C1857.82,-290.91 1848.54,-280.67 1840.75,-272.07"/>
<polygon fill="#63b8ff" stroke="#63b8ff" points="1863.82,-302.74 1873.13,-307.79 1869.01,-298.04 1863.82,-302.74"/>
</a>
</g>
</g>
<!-- Node17 -->
<g id="Node000017" class="node">
<title>Node17</title>
<g id="a_Node000017"><a xlink:href="ZombieCompartment_8h.html" target="_top" xlink:title=" ">
<polygon fill="white" stroke="#666666" points="2511,-118 2293,-118 2293,-77 2511,-77 2511,-118"/>
<text text-anchor="start" x="2301" y="-106" font-family="Ubuntu Mono" font-size="10.00">/home/runner/work/mooseneuro.github.io</text>
<text text-anchor="start" x="2301" y="-95" font-family="Ubuntu Mono" font-size="10.00">/mooseneuro.github.io/docs/moose</text>
<text text-anchor="middle" x="2402" y="-84" font-family="Ubuntu Mono" font-size="10.00">&#45;core/hsolve/ZombieCompartment.h</text>
</a>
</g>
</g>
<!-- Node1&#45;&gt;Node17 -->
<g id="edge31_Node000001_Node000017" class="edge">
<title>Node1&#45;&gt;Node17</title>
<g id="a_edge31_Node000001_Node000017"><a xlink:title=" ">
<path fill="none" stroke="#63b8ff" d="M1915.85,-300.02C1941.51,-271.69 1977.96,-231.55 1979,-231 2080.62,-177.38 2126.37,-232.43 2235,-195 2288.34,-176.62 2343.82,-140.63 2375.5,-118.17"/>
<polygon fill="#63b8ff" stroke="#63b8ff" points="1913.06,-297.9 1908.94,-307.66 1918.25,-302.59 1913.06,-297.9"/>
</a>
</g>
</g>
<!-- Node22 -->
<g id="Node000022" class="node">
<title>Node22</title>
<g id="a_Node000022"><a xlink:href="AdExIF_8cpp.html" target="_top" xlink:title=" ">
<polygon fill="white" stroke="#666666" points="2206,-272 1988,-272 1988,-231 2206,-231 2206,-272"/>
<text text-anchor="start" x="1996" y="-260" font-family="Ubuntu Mono" font-size="10.00">/home/runner/work/mooseneuro.github.io</text>
<text text-anchor="start" x="1996" y="-249" font-family="Ubuntu Mono" font-size="10.00">/mooseneuro.github.io/docs/moose</text>
<text text-anchor="middle" x="2097" y="-238" font-family="Ubuntu Mono" font-size="10.00">&#45;core/intfire/AdExIF.cpp</text>
</a>
</g>
</g>
<!-- Node1&#45;&gt;Node22 -->
<g id="edge32_Node000001_Node000022" class="edge">
<title>Node1&#45;&gt;Node22</title>
<g id="a_edge32_Node000001_Node000022"><a xlink:title=" ">
<path fill="none" stroke="#63b8ff" d="M1954.07,-304.54C1982.61,-294.15 2016,-281.99 2043.32,-272.04"/>
<polygon fill="#63b8ff" stroke="#63b8ff" points="1952.79,-301.28 1944.59,-307.99 1955.18,-307.86 1952.79,-301.28"/>
</a>
</g>
</g>
<!-- Node23 -->
<g id="Node000023" class="node">
<title>Node23</title>
<g id="a_Node000023"><a xlink:href="AdThreshIF_8cpp.html" target="_top" xlink:title=" ">
<polygon fill="white" stroke="#666666" points="2442,-272 2224,-272 2224,-231 2442,-231 2442,-272"/>
<text text-anchor="start" x="2232" y="-260" font-family="Ubuntu Mono" font-size="10.00">/home/runner/work/mooseneuro.github.io</text>
<text text-anchor="start" x="2232" y="-249" font-family="Ubuntu Mono" font-size="10.00">/mooseneuro.github.io/docs/moose</text>
<text text-anchor="middle" x="2333" y="-238" font-family="Ubuntu Mono" font-size="10.00">&#45;core/intfire/AdThreshIF.cpp</text>
</a>
</g>
</g>
<!-- Node1&#45;&gt;Node23 -->
<g id="edge33_Node000001_Node000023" class="edge">
<title>Node1&#45;&gt;Node23</title>
<g id="a_edge33_Node000001_Node000023"><a xlink:title=" ">
<path fill="none" stroke="#63b8ff" d="M2010.37,-307.24C2076.87,-295.96 2159.07,-282.01 2223.85,-271.02"/>
<polygon fill="#63b8ff" stroke="#63b8ff" points="2009.53,-303.84 2000.26,-308.96 2010.7,-310.74 2009.53,-303.84"/>
</a>
</g>
</g>
<!-- Node24 -->
<g id="Node000024" class="node">
<title>Node24</title>
<g id="a_Node000024"><a xlink:href="ExIF_8cpp.html" target="_top" xlink:title=" ">
<polygon fill="white" stroke="#666666" points="2678,-272 2460,-272 2460,-231 2678,-231 2678,-272"/>
<text text-anchor="start" x="2468" y="-260" font-family="Ubuntu Mono" font-size="10.00">/home/runner/work/mooseneuro.github.io</text>
<text text-anchor="start" x="2468" y="-249" font-family="Ubuntu Mono" font-size="10.00">/mooseneuro.github.io/docs/moose</text>
<text text-anchor="middle" x="2569" y="-238" font-family="Ubuntu Mono" font-size="10.00">&#45;core/intfire/ExIF.cpp</text>
</a>
</g>
</g>
<!-- Node1&#45;&gt;Node24 -->
<g id="edge34_Node000001_Node000024" class="edge">
<title>Node1&#45;&gt;Node24</title>
<g id="a_edge34_Node000001_Node000024"><a xlink:title=" ">
<path fill="none" stroke="#63b8ff" d="M2010.28,-317.94C2123.83,-308.31 2299.39,-292.02 2451,-272 2453.88,-271.62 2456.8,-271.22 2459.75,-270.81"/>
<polygon fill="#63b8ff" stroke="#63b8ff" points="2009.84,-314.46 2000.17,-318.79 2010.43,-321.44 2009.84,-314.46"/>
</a>
</g>
</g>
<!-- Node25 -->
<g id="Node000025" class="node">
<title>Node25</title>
<g id="a_Node000025"><a xlink:href="IntFireBase_8cpp.html" target="_top" xlink:title=" ">
<polygon fill="white" stroke="#666666" points="2914,-272 2696,-272 2696,-231 2914,-231 2914,-272"/>
<text text-anchor="start" x="2704" y="-260" font-family="Ubuntu Mono" font-size="10.00">/home/runner/work/mooseneuro.github.io</text>
<text text-anchor="start" x="2704" y="-249" font-family="Ubuntu Mono" font-size="10.00">/mooseneuro.github.io/docs/moose</text>
<text text-anchor="middle" x="2805" y="-238" font-family="Ubuntu Mono" font-size="10.00">&#45;core/intfire/IntFireBase.cpp</text>
</a>
</g>
</g>
<!-- Node1&#45;&gt;Node25 -->
<g id="edge35_Node000001_Node000025" class="edge">
<title>Node1&#45;&gt;Node25</title>
<g id="a_edge35_Node000001_Node000025"><a xlink:title=" ">
<path fill="none" stroke="#63b8ff" d="M2010.19,-322.69C2166.12,-315.61 2447.69,-300.05 2687,-272 2689.89,-271.66 2692.81,-271.3 2695.76,-270.92"/>
<polygon fill="#63b8ff" stroke="#63b8ff" points="2009.93,-319.2 2000.1,-323.15 2010.25,-326.2 2009.93,-319.2"/>
</a>
</g>
</g>
<!-- Node26 -->
<g id="Node000026" class="node">
<title>Node26</title>
<g id="a_Node000026"><a xlink:href="IzhIF_8cpp.html" target="_top" xlink:title=" ">
<polygon fill="white" stroke="#666666" points="3150,-272 2932,-272 2932,-231 3150,-231 3150,-272"/>
<text text-anchor="start" x="2940" y="-260" font-family="Ubuntu Mono" font-size="10.00">/home/runner/work/mooseneuro.github.io</text>
<text text-anchor="start" x="2940" y="-249" font-family="Ubuntu Mono" font-size="10.00">/mooseneuro.github.io/docs/moose</text>
<text text-anchor="middle" x="3041" y="-238" font-family="Ubuntu Mono" font-size="10.00">&#45;core/intfire/IzhIF.cpp</text>
</a>
</g>
</g>
<!-- Node1&#45;&gt;Node26 -->
<g id="edge36_Node000001_Node000026" class="edge">
<title>Node1&#45;&gt;Node26</title>
<g id="a_edge36_Node000001_Node000026"><a xlink:title=" ">
<path fill="none" stroke="#63b8ff" d="M2010.3,-325.34C2202.83,-320.91 2593.79,-307.94 2923,-272 2925.89,-271.68 2928.82,-271.35 2931.77,-270.99"/>
<polygon fill="#63b8ff" stroke="#63b8ff" points="2010.08,-321.85 2000.16,-325.57 2010.24,-328.85 2010.08,-321.85"/>
</a>
</g>
</g>
<!-- Node27 -->
<g id="Node000027" class="node">
<title>Node27</title>
<g id="a_Node000027"><a xlink:href="LIF_8cpp.html" target="_top" xlink:title=" ">
<polygon fill="white" stroke="#666666" points="3386,-272 3168,-272 3168,-231 3386,-231 3386,-272"/>
<text text-anchor="start" x="3176" y="-260" font-family="Ubuntu Mono" font-size="10.00">/home/runner/work/mooseneuro.github.io</text>
<text text-anchor="start" x="3176" y="-249" font-family="Ubuntu Mono" font-size="10.00">/mooseneuro.github.io/docs/moose</text>
<text text-anchor="middle" x="3277" y="-238" font-family="Ubuntu Mono" font-size="10.00">&#45;core/intfire/LIF.cpp</text>
</a>
</g>
</g>
<!-- Node1&#45;&gt;Node27 -->
<g id="edge37_Node000001_Node000027" class="edge">
<title>Node1&#45;&gt;Node27</title>
<g id="a_edge37_Node000001_Node000027"><a xlink:title=" ">
<path fill="none" stroke="#63b8ff" d="M2010.49,-327.04C2235.74,-325.12 2738.37,-315.8 3159,-272 3161.89,-271.7 3164.82,-271.37 3167.77,-271.02"/>
<polygon fill="#63b8ff" stroke="#63b8ff" points="2010.27,-323.54 2000.3,-327.13 2010.33,-330.54 2010.27,-323.54"/>
</a>
</g>
</g>
<!-- Node28 -->
<g id="Node000028" class="node">
<title>Node28</title>
<g id="a_Node000028"><a xlink:href="QIF_8cpp.html" target="_top" xlink:title=" ">
<polygon fill="white" stroke="#666666" points="3622,-272 3404,-272 3404,-231 3622,-231 3622,-272"/>
<text text-anchor="start" x="3412" y="-260" font-family="Ubuntu Mono" font-size="10.00">/home/runner/work/mooseneuro.github.io</text>
<text text-anchor="start" x="3412" y="-249" font-family="Ubuntu Mono" font-size="10.00">/mooseneuro.github.io/docs/moose</text>
<text text-anchor="middle" x="3513" y="-238" font-family="Ubuntu Mono" font-size="10.00">&#45;core/intfire/QIF.cpp</text>
</a>
</g>
</g>
<!-- Node1&#45;&gt;Node28 -->
<g id="edge38_Node000001_Node000028" class="edge">
<title>Node1&#45;&gt;Node28</title>
<g id="a_edge38_Node000001_Node000028"><a xlink:title=" ">
<path fill="none" stroke="#63b8ff" d="M2010.34,-328.23C2265.26,-328.66 2881.58,-323.68 3395,-272 3397.89,-271.71 3400.82,-271.39 3403.77,-271.05"/>
<polygon fill="#63b8ff" stroke="#63b8ff" points="2010.32,-324.73 2000.31,-328.21 2010.31,-331.73 2010.32,-324.73"/>
</a>
</g>
</g>
<!-- Node29 -->
<g id="Node000029" class="node">
<title>Node29</title>
<g id="a_Node000029"><a xlink:href="testIntFire_8cpp.html" target="_top" xlink:title=" ">
<polygon fill="white" stroke="#666666" points="3858,-272 3640,-272 3640,-231 3858,-231 3858,-272"/>
<text text-anchor="start" x="3648" y="-260" font-family="Ubuntu Mono" font-size="10.00">/home/runner/work/mooseneuro.github.io</text>
<text text-anchor="start" x="3648" y="-249" font-family="Ubuntu Mono" font-size="10.00">/mooseneuro.github.io/docs/moose</text>
<text text-anchor="middle" x="3749" y="-238" font-family="Ubuntu Mono" font-size="10.00">&#45;core/intfire/testIntFire.cpp</text>
</a>
</g>
</g>
<!-- Node1&#45;&gt;Node29 -->
<g id="edge39_Node000001_Node000029" class="edge">
<title>Node1&#45;&gt;Node29</title>
<g id="a_edge39_Node000001_Node000029"><a xlink:title=" ">
<path fill="none" stroke="#63b8ff" d="M2010.25,-325.75C2349.47,-320.43 3315.63,-302.95 3631,-272 3633.89,-271.72 3636.82,-271.4 3639.78,-271.07"/>
<polygon fill="#63b8ff" stroke="#63b8ff" points="2010.1,-322.25 2000.15,-325.9 2010.21,-329.25 2010.1,-322.25"/>
</a>
</g>
</g>
<!-- Node10&#45;&gt;Node9 -->
<g id="edge12_Node000010_Node000009" class="edge">
<title>Node10&#45;&gt;Node9</title>
<g id="a_edge12_Node000010_Node000009"><a xlink:title=" ">
<path fill="none" stroke="#63b8ff" d="M1703.82,-231.53C1702.54,-231.35 1701.27,-231.17 1700,-231 1563.91,-212.24 1517.34,-253.41 1393,-195 1369.1,-183.77 1373.93,-165.16 1350,-154 1219.5,-93.12 1170.64,-137.75 1028,-118 1025.12,-117.6 1022.2,-117.19 1019.26,-116.76"/>
<polygon fill="#63b8ff" stroke="#63b8ff" points="1703.32,-235 1713.72,-232.94 1704.31,-228.07 1703.32,-235"/>
</a>
</g>
</g>
<!-- Node11 -->
<g id="Node000011" class="node">
<title>Node11</title>
<g id="a_Node000011"><a xlink:href="Cell_8cpp.html" target="_top" xlink:title=" ">
<polygon fill="white" stroke="#666666" points="2001,-118 1783,-118 1783,-77 2001,-77 2001,-118"/>
<text text-anchor="start" x="1791" y="-106" font-family="Ubuntu Mono" font-size="10.00">/home/runner/work/mooseneuro.github.io</text>
<text text-anchor="start" x="1791" y="-95" font-family="Ubuntu Mono" font-size="10.00">/mooseneuro.github.io/docs/moose</text>
<text text-anchor="middle" x="1892" y="-84" font-family="Ubuntu Mono" font-size="10.00">&#45;core/hsolve/Cell.cpp</text>
</a>
</g>
</g>
<!-- Node10&#45;&gt;Node11 -->
<g id="edge10_Node000010_Node000011" class="edge">
<title>Node10&#45;&gt;Node11</title>
<g id="a_edge10_Node000010_Node000011"><a xlink:title=" ">
<path fill="none" stroke="#63b8ff" d="M1906.32,-226.14C1920.08,-218.39 1932.59,-208.25 1941,-195 1950.77,-179.62 1947.45,-171.04 1941,-154 1935.82,-140.29 1925.53,-127.79 1915.72,-118.13"/>
<polygon fill="#63b8ff" stroke="#63b8ff" points="1904.39,-223.19 1897.12,-230.89 1907.61,-229.41 1904.39,-223.19"/>
</a>
</g>
</g>
<!-- Node12 -->
<g id="Node000012" class="node">
<title>Node12</title>
<g id="a_Node000012"><a xlink:href="HSolve_8cpp.html" target="_top" xlink:title=" ">
<polygon fill="white" stroke="#666666" points="2070,-41 1852,-41 1852,0 2070,0 2070,-41"/>
<text text-anchor="start" x="1860" y="-29" font-family="Ubuntu Mono" font-size="10.00">/home/runner/work/mooseneuro.github.io</text>
<text text-anchor="start" x="1860" y="-18" font-family="Ubuntu Mono" font-size="10.00">/mooseneuro.github.io/docs/moose</text>
<text text-anchor="middle" x="1961" y="-7" font-family="Ubuntu Mono" font-size="10.00">&#45;core/hsolve/HSolve.cpp</text>
</a>
</g>
</g>
<!-- Node10&#45;&gt;Node12 -->
<g id="edge11_Node000010_Node000012" class="edge">
<title>Node10&#45;&gt;Node12</title>
<g id="a_edge11_Node000010_Node000012"><a xlink:title=" ">
<path fill="none" stroke="#63b8ff" d="M1912.73,-228.44C2030.85,-198.5 2225.95,-145.59 2246,-118 2295.44,-49.96 2169.97,-29.33 2070.04,-23.39"/>
<polygon fill="#63b8ff" stroke="#63b8ff" points="1911.8,-225.07 1902.96,-230.91 1913.51,-231.85 1911.8,-225.07"/>
</a>
</g>
</g>
<!-- Node13 -->
<g id="Node000013" class="node">
<title>Node13</title>
<g id="a_Node000013"><a xlink:href="HSolveActive_8h.html" target="_top" xlink:title=" ">
<polygon fill="white" stroke="#666666" points="1932,-195 1714,-195 1714,-154 1932,-154 1932,-195"/>
<text text-anchor="start" x="1722" y="-183" font-family="Ubuntu Mono" font-size="10.00">/home/runner/work/mooseneuro.github.io</text>
<text text-anchor="start" x="1722" y="-172" font-family="Ubuntu Mono" font-size="10.00">/mooseneuro.github.io/docs/moose</text>
<text text-anchor="middle" x="1823" y="-161" font-family="Ubuntu Mono" font-size="10.00">&#45;core/hsolve/HSolveActive.h</text>
</a>
</g>
</g>
<!-- Node10&#45;&gt;Node13 -->
<g id="edge13_Node000010_Node000013" class="edge">
<title>Node10&#45;&gt;Node13</title>
<g id="a_edge13_Node000010_Node000013"><a xlink:title=" ">
<path fill="none" stroke="#63b8ff" d="M1823,-220.69C1823,-212.08 1823,-202.9 1823,-195.07"/>
<polygon fill="#63b8ff" stroke="#63b8ff" points="1819.5,-220.79 1823,-230.79 1826.5,-220.79 1819.5,-220.79"/>
</a>
</g>
</g>
<!-- Node15 -->
<g id="Node000015" class="node">
<title>Node15</title>
<g id="a_Node000015"><a xlink:href="HSolveInterface_8cpp.html" target="_top" xlink:title=" ">
<polygon fill="white" stroke="#666666" points="2237,-118 2019,-118 2019,-77 2237,-77 2237,-118"/>
<text text-anchor="start" x="2027" y="-106" font-family="Ubuntu Mono" font-size="10.00">/home/runner/work/mooseneuro.github.io</text>
<text text-anchor="start" x="2027" y="-95" font-family="Ubuntu Mono" font-size="10.00">/mooseneuro.github.io/docs/moose</text>
<text text-anchor="middle" x="2128" y="-84" font-family="Ubuntu Mono" font-size="10.00">&#45;core/hsolve/HSolveInterface.cpp</text>
</a>
</g>
</g>
<!-- Node10&#45;&gt;Node15 -->
<g id="edge26_Node000010_Node000015" class="edge">
<title>Node10&#45;&gt;Node15</title>
<g id="a_edge26_Node000010_Node000015"><a xlink:title=" ">
<path fill="none" stroke="#63b8ff" d="M1884.4,-227.16C1907.73,-217.8 1934.37,-206.51 1958,-195 2007.58,-170.86 2062.72,-138.48 2096.38,-118.05"/>
<polygon fill="#63b8ff" stroke="#63b8ff" points="1882.96,-223.97 1874.96,-230.92 1885.54,-230.47 1882.96,-223.97"/>
</a>
</g>
</g>
<!-- Node16 -->
<g id="Node000016" class="node">
<title>Node16</title>
<g id="a_Node000016"><a xlink:href="ZombieCaConc_8cpp.html" target="_top" xlink:title=" ">
<polygon fill="white" stroke="#666666" points="1255,-118 1037,-118 1037,-77 1255,-77 1255,-118"/>
<text text-anchor="start" x="1045" y="-106" font-family="Ubuntu Mono" font-size="10.00">/home/runner/work/mooseneuro.github.io</text>
<text text-anchor="start" x="1045" y="-95" font-family="Ubuntu Mono" font-size="10.00">/mooseneuro.github.io/docs/moose</text>
<text text-anchor="middle" x="1146" y="-84" font-family="Ubuntu Mono" font-size="10.00">&#45;core/hsolve/ZombieCaConc.cpp</text>
</a>
</g>
</g>
<!-- Node10&#45;&gt;Node16 -->
<g id="edge28_Node000010_Node000016" class="edge">
<title>Node10&#45;&gt;Node16</title>
<g id="a_edge28_Node000010_Node000016"><a xlink:title=" ">
<path fill="none" stroke="#63b8ff" d="M1727.94,-227.57C1705.12,-219.48 1681.69,-208.83 1662,-195 1642.86,-181.55 1649.58,-165.13 1629,-154 1557.31,-115.23 1344.81,-128.65 1264,-118 1261.12,-117.62 1258.2,-117.22 1255.25,-116.81"/>
<polygon fill="#63b8ff" stroke="#63b8ff" points="1727.07,-230.97 1737.67,-230.88 1729.33,-224.34 1727.07,-230.97"/>
</a>
</g>
</g>
<!-- Node10&#45;&gt;Node17 -->
<g id="edge29_Node000010_Node000017" class="edge">
<title>Node10&#45;&gt;Node17</title>
<g id="a_edge29_Node000010_Node000017"><a xlink:title=" ">
<path fill="none" stroke="#63b8ff" d="M1942.19,-231.58C1943.47,-231.38 1944.74,-231.19 1946,-231 2057.43,-214.18 2094.31,-241.43 2197,-195 2222.56,-183.44 2220.7,-168.02 2245,-154 2271.04,-138.97 2301.84,-127 2329.22,-118.07"/>
<polygon fill="#63b8ff" stroke="#63b8ff" points="1941.66,-228.12 1932.3,-233.09 1942.72,-235.04 1941.66,-228.12"/>
</a>
</g>
</g>
<!-- Node19 -->
<g id="Node000019" class="node">
<title>Node19</title>
<g id="a_Node000019"><a xlink:href="ZombieHHChannel_8h.html" target="_top" xlink:title=" ">
<polygon fill="white" stroke="#666666" points="1491,-118 1273,-118 1273,-77 1491,-77 1491,-118"/>
<text text-anchor="start" x="1281" y="-106" font-family="Ubuntu Mono" font-size="10.00">/home/runner/work/mooseneuro.github.io</text>
<text text-anchor="start" x="1281" y="-95" font-family="Ubuntu Mono" font-size="10.00">/mooseneuro.github.io/docs/moose</text>
<text text-anchor="middle" x="1382" y="-84" font-family="Ubuntu Mono" font-size="10.00">&#45;core/hsolve/ZombieHHChannel.h</text>
</a>
</g>
</g>
<!-- Node10&#45;&gt;Node19 -->
<g id="edge30_Node000010_Node000019" class="edge">
<title>Node10&#45;&gt;Node19</title>
<g id="a_edge30_Node000010_Node000019"><a xlink:title=" ">
<path fill="none" stroke="#63b8ff" d="M1762.98,-226.79C1743.74,-218.02 1722.82,-207.2 1705,-195 1683.22,-180.08 1685.44,-166.16 1662,-154 1646.49,-145.95 1563.13,-129.94 1491.36,-117.17"/>
<polygon fill="#63b8ff" stroke="#63b8ff" points="1761.71,-230.05 1772.27,-230.92 1764.56,-223.66 1761.71,-230.05"/>
</a>
</g>
</g>
<!-- Node21 -->
<g id="Node000021" class="node">
<title>Node21</title>
<g id="a_Node000021"><a xlink:href="HSolvePassive_8cpp.html" target="_top" xlink:title=" ">
<polygon fill="white" stroke="#666666" points="1620,-195 1402,-195 1402,-154 1620,-154 1620,-195"/>
<text text-anchor="start" x="1410" y="-183" font-family="Ubuntu Mono" font-size="10.00">/home/runner/work/mooseneuro.github.io</text>
<text text-anchor="start" x="1410" y="-172" font-family="Ubuntu Mono" font-size="10.00">/mooseneuro.github.io/docs/moose</text>
<text text-anchor="middle" x="1511" y="-161" font-family="Ubuntu Mono" font-size="10.00">&#45;core/hsolve/HSolvePassive.cpp</text>
</a>
</g>
</g>
<!-- Node10&#45;&gt;Node21 -->
<g id="edge27_Node000010_Node000021" class="edge">
<title>Node10&#45;&gt;Node21</title>
<g id="a_edge27_Node000010_Node000021"><a xlink:title=" ">
<path fill="none" stroke="#63b8ff" d="M1731.97,-228.62C1687.78,-217.99 1635.12,-205.34 1592.29,-195.04"/>
<polygon fill="#63b8ff" stroke="#63b8ff" points="1731.3,-232.06 1741.84,-230.99 1732.94,-225.25 1731.3,-232.06"/>
</a>
</g>
</g>
<!-- Node13&#45;&gt;Node9 -->
<g id="edge16_Node000013_Node000009" class="edge">
<title>Node13&#45;&gt;Node9</title>
<g id="a_edge16_Node000013_Node000009"><a xlink:title=" ">
<path fill="none" stroke="#63b8ff" d="M1703.68,-160.74C1679,-158.32 1653.17,-155.94 1629,-154 1362.27,-132.61 1293.92,-147.85 1028,-118 1025.11,-117.68 1022.19,-117.33 1019.24,-116.96"/>
<polygon fill="#63b8ff" stroke="#63b8ff" points="1703.5,-164.24 1713.8,-161.74 1704.19,-157.28 1703.5,-164.24"/>
</a>
</g>
</g>
<!-- Node13&#45;&gt;Node11 -->
<g id="edge14_Node000013_Node000011" class="edge">
<title>Node13&#45;&gt;Node11</title>
<g id="a_edge14_Node000013_Node000011"><a xlink:title=" ">
<path fill="none" stroke="#63b8ff" d="M1848.09,-146.23C1856.66,-136.91 1866.08,-126.67 1873.99,-118.07"/>
<polygon fill="#63b8ff" stroke="#63b8ff" points="1845.32,-144.07 1841.13,-153.79 1850.48,-148.81 1845.32,-144.07"/>
</a>
</g>
</g>
<!-- Node13&#45;&gt;Node12 -->
<g id="edge15_Node000013_Node000012" class="edge">
<title>Node13&#45;&gt;Node12</title>
<g id="a_edge15_Node000013_Node000012"><a xlink:title=" ">
<path fill="none" stroke="#63b8ff" d="M1793.64,-146.55C1775.26,-126.37 1757.86,-98.63 1774,-77 1784.94,-62.34 1819.93,-50.18 1856.73,-41.01"/>
<polygon fill="#63b8ff" stroke="#63b8ff" points="1791.22,-149.09 1800.67,-153.89 1796.28,-144.25 1791.22,-149.09"/>
</a>
</g>
</g>
<!-- Node14 -->
<g id="Node000014" class="node">
<title>Node14</title>
<g id="a_Node000014"><a xlink:href="HSolveActiveSetup_8cpp.html" target="_top" xlink:title=" ">
<polygon fill="white" stroke="#666666" points="1727,-118 1509,-118 1509,-77 1727,-77 1727,-118"/>
<text text-anchor="start" x="1517" y="-106" font-family="Ubuntu Mono" font-size="10.00">/home/runner/work/mooseneuro.github.io</text>
<text text-anchor="start" x="1517" y="-95" font-family="Ubuntu Mono" font-size="10.00">/mooseneuro.github.io/docs/moose</text>
<text text-anchor="middle" x="1618" y="-84" font-family="Ubuntu Mono" font-size="10.00">&#45;core/hsolve/HSolveActiveSetup.cpp</text>
</a>
</g>
</g>
<!-- Node13&#45;&gt;Node14 -->
<g id="edge17_Node000013_Node000014" class="edge">
<title>Node13&#45;&gt;Node14</title>
<g id="a_edge17_Node000013_Node000014"><a xlink:title=" ">
<path fill="none" stroke="#63b8ff" d="M1760.24,-150.54C1731.83,-140.15 1698.61,-127.99 1671.41,-118.04"/>
<polygon fill="#63b8ff" stroke="#63b8ff" points="1759.08,-153.84 1769.67,-153.99 1761.49,-147.27 1759.08,-153.84"/>
</a>
</g>
</g>
<!-- Node13&#45;&gt;Node15 -->
<g id="edge18_Node000013_Node000015" class="edge">
<title>Node13&#45;&gt;Node15</title>
<g id="a_edge18_Node000013_Node000015"><a xlink:title=" ">
<path fill="none" stroke="#63b8ff" d="M1912.26,-151.55C1955.41,-140.94 2006.75,-128.31 2048.53,-118.04"/>
<polygon fill="#63b8ff" stroke="#63b8ff" points="1911.21,-148.2 1902.34,-153.99 1912.89,-155 1911.21,-148.2"/>
</a>
</g>
</g>
<!-- Node13&#45;&gt;Node16 -->
<g id="edge19_Node000013_Node000016" class="edge">
<title>Node13&#45;&gt;Node16</title>
<g id="a_edge19_Node000013_Node000016"><a xlink:title=" ">
<path fill="none" stroke="#63b8ff" d="M1703.72,-158.64C1689.66,-157.01 1675.52,-155.43 1662,-154 1485.37,-135.32 1440.18,-140.49 1264,-118 1261.12,-117.63 1258.2,-117.25 1255.25,-116.84"/>
<polygon fill="#63b8ff" stroke="#63b8ff" points="1703.59,-162.15 1713.93,-159.84 1704.4,-155.2 1703.59,-162.15"/>
</a>
</g>
</g>
<!-- Node13&#45;&gt;Node17 -->
<g id="edge20_Node000013_Node000017" class="edge">
<title>Node13&#45;&gt;Node17</title>
<g id="a_edge20_Node000013_Node000017"><a xlink:title=" ">
<path fill="none" stroke="#63b8ff" d="M1942.38,-158.04C2045.35,-144.7 2192.82,-125.6 2292.73,-112.65"/>
<polygon fill="#63b8ff" stroke="#63b8ff" points="1941.71,-154.59 1932.25,-159.35 1942.61,-161.54 1941.71,-154.59"/>
</a>
</g>
</g>
<!-- Node13&#45;&gt;Node19 -->
<g id="edge23_Node000013_Node000019" class="edge">
<title>Node13&#45;&gt;Node19</title>
<g id="a_edge23_Node000013_Node000019"><a xlink:title=" ">
<path fill="none" stroke="#63b8ff" d="M1703.92,-153.25C1637.7,-141.99 1555.87,-128.07 1491.29,-117.09"/>
<polygon fill="#63b8ff" stroke="#63b8ff" points="1703.54,-156.73 1713.99,-154.96 1704.72,-149.83 1703.54,-156.73"/>
</a>
</g>
</g>
<!-- Node17&#45;&gt;Node12 -->
<g id="edge21_Node000017_Node000012" class="edge">
<title>Node17&#45;&gt;Node12</title>
<g id="a_edge21_Node000017_Node000012"><a xlink:title=" ">
<path fill="none" stroke="#63b8ff" d="M2282.92,-76.25C2216.7,-64.99 2134.87,-51.07 2070.29,-40.09"/>
<polygon fill="#63b8ff" stroke="#63b8ff" points="2282.54,-79.73 2292.99,-77.96 2283.72,-72.83 2282.54,-79.73"/>
</a>
</g>
</g>
<!-- Node18 -->
<g id="Node000018" class="node">
<title>Node18</title>
<g id="a_Node000018"><a xlink:href="ZombieCompartment_8cpp.html" target="_top" xlink:title=" ">
<polygon fill="white" stroke="#666666" points="2511,-41 2293,-41 2293,0 2511,0 2511,-41"/>
<text text-anchor="start" x="2301" y="-29" font-family="Ubuntu Mono" font-size="10.00">/home/runner/work/mooseneuro.github.io</text>
<text text-anchor="start" x="2301" y="-18" font-family="Ubuntu Mono" font-size="10.00">/mooseneuro.github.io/docs/moose</text>
<text text-anchor="middle" x="2402" y="-7" font-family="Ubuntu Mono" font-size="10.00">&#45;core/hsolve/ZombieCompartment.cpp</text>
</a>
</g>
</g>
<!-- Node17&#45;&gt;Node18 -->
<g id="edge22_Node000017_Node000018" class="edge">
<title>Node17&#45;&gt;Node18</title>
<g id="a_edge22_Node000017_Node000018"><a xlink:title=" ">
<path fill="none" stroke="#63b8ff" d="M2402,-66.69C2402,-58.08 2402,-48.9 2402,-41.07"/>
<polygon fill="#63b8ff" stroke="#63b8ff" points="2398.5,-66.79 2402,-76.79 2405.5,-66.79 2398.5,-66.79"/>
</a>
</g>
</g>
<!-- Node19&#45;&gt;Node12 -->
<g id="edge24_Node000019_Node000012" class="edge">
<title>Node19&#45;&gt;Node12</title>
<g id="a_edge24_Node000019_Node000012"><a xlink:title=" ">
<path fill="none" stroke="#63b8ff" d="M1501.47,-76.82C1627.36,-59.01 1760.79,-43.41 1851.84,-33.27"/>
<polygon fill="#63b8ff" stroke="#63b8ff" points="1500.67,-73.4 1491.26,-78.27 1501.66,-80.33 1500.67,-73.4"/>
</a>
</g>
</g>
<!-- Node20 -->
<g id="Node000020" class="node">
<title>Node20</title>
<g id="a_Node000020"><a xlink:href="ZombieHHChannel_8cpp.html" target="_top" xlink:title=" ">
<polygon fill="white" stroke="#666666" points="1491,-41 1273,-41 1273,0 1491,0 1491,-41"/>
<text text-anchor="start" x="1281" y="-29" font-family="Ubuntu Mono" font-size="10.00">/home/runner/work/mooseneuro.github.io</text>
<text text-anchor="start" x="1281" y="-18" font-family="Ubuntu Mono" font-size="10.00">/mooseneuro.github.io/docs/moose</text>
<text text-anchor="middle" x="1382" y="-7" font-family="Ubuntu Mono" font-size="10.00">&#45;core/hsolve/ZombieHHChannel.cpp</text>
</a>
</g>
</g>
<!-- Node19&#45;&gt;Node20 -->
<g id="edge25_Node000019_Node000020" class="edge">
<title>Node19&#45;&gt;Node20</title>
<g id="a_edge25_Node000019_Node000020"><a xlink:title=" ">
<path fill="none" stroke="#63b8ff" d="M1382,-66.69C1382,-58.08 1382,-48.9 1382,-41.07"/>
<polygon fill="#63b8ff" stroke="#63b8ff" points="1378.5,-66.79 1382,-76.79 1385.5,-66.79 1378.5,-66.79"/>
</a>
</g>
</g>
</g>
</svg>

<g id="navigator" transform="translate(0 0)" fill="#404254">
  <rect fill="#f2f5e9" fill-opacity="0.5" stroke="#606060" stroke-width=".5" x="0" y="0" width="60" height="60"/>
  <use id="zoomplus" xlink:href="#zoomPlus" x="17" y="9" onmousedown="handleZoom(evt,'in')"/>
  <use id="zoomminus" xlink:href="#zoomMin" x="42" y="9" onmousedown="handleZoom(evt,'out')"/>
  <use id="reset" xlink:href="#resetDef" x="30" y="36" onmousedown="handleReset()"/>
   <use id="arrowup" xlink:href="#arrowUp" x="0" y="0" onmousedown="handlePan(0,-1)"/>
  <use id="arrowright" xlink:href="#arrowRight" x="0" y="0" onmousedown="handlePan(1,0)"/>
  <use id="arrowdown" xlink:href="#arrowDown" x="0" y="0" onmousedown="handlePan(0,1)"/>
  <use id="arrowleft" xlink:href="#arrowLeft" x="0" y="0" onmousedown="handlePan(-1,0)"/>
</g>
<svg viewBox="0 0 15 15" width="100%" height="30px" preserveAspectRatio="xMaxYMin meet">
 <g id="arrow_out" transform="scale(0.3 0.3)">
  <a xlink:href="CompartmentBase_8h__dep__incl_org.svg" target="_base">
   <rect id="button" ry="5" rx="5" y="6" x="6" height="38" width="38"
        fill="#f2f5e9" fill-opacity="0.5" stroke="#606060" stroke-width="1.0"/>
   <path id="arrow"
     d="M 11.500037,31.436501 C 11.940474,20.09759 22.043105,11.32322 32.158766,21.979434 L 37.068811,17.246167 C 37.068811,17.246167 37.088388,32 37.088388,32 L 22.160133,31.978069 C 22.160133,31.978069 26.997745,27.140456 26.997745,27.140456 C 18.528582,18.264221 13.291696,25.230495 11.500037,31.436501 z"
     style="fill:#404040;"/>
  </a>
 </g>
</svg>

<style type='text/css'>
<![CDATA[
[data-mouse-over-selected='false'] { opacity: 0.7; }
[data-mouse-over-selected='true']  { opacity: 1.0; }
]]>
</style>
<script type="application/ecmascript"><![CDATA[
document.addEventListener('DOMContentLoaded', (event) => {
  highlightEdges();
  highlightAdjacentNodes();
});
]]></script>
</svg>
