<?xml version="1.0" encoding="UTF-8" standalone="no"?>
<!DOCTYPE svg PUBLIC "-//W3C//DTD SVG 1.1//EN"
 "http://www.w3.org/Graphics/SVG/1.1/DTD/svg11.dtd">
<!-- Generated by graphviz version 2.43.0 (0)
 -->
<!-- Title: swapIfBackward Pages: 1 -->
<svg width="960pt" height="778pt"
 viewBox="0.00 0.00 960.00 777.65" xmlns="http://www.w3.org/2000/svg" xmlns:xlink="http://www.w3.org/1999/xlink">
<g id="graph0" class="graph" transform="scale(1 1) rotate(0) translate(4 773.65)">
<title>swapIfBackward</title>
<!-- Node1 -->
<g id="Node000001" class="node">
<title>Node1</title>
<g id="a_Node000001"><a xlink:title=" ">
<polygon fill="#999999" stroke="#666666" points="952,-315.65 855,-315.65 855,-296.65 952,-296.65 952,-315.65"/>
<text text-anchor="middle" x="903.5" y="-303.65" font-family="Ubuntu Mono" font-size="10.00">swapIfBackward</text>
</a>
</g>
</g>
<!-- Node2 -->
<g id="Node000002" class="node">
<title>Node2</title>
<g id="a_Node000002"><a xlink:href="classCubeMesh.html#a336692d899edab419d0d908d59ae57cf" target="_top" xlink:title="Defines a cuboid volume of intersection between self and other.">
<polygon fill="white" stroke="#666666" points="819,-530.65 658,-530.65 658,-511.65 819,-511.65 819,-530.65"/>
<text text-anchor="middle" x="738.5" y="-518.65" font-family="Ubuntu Mono" font-size="10.00">CubeMesh::defineIntersection</text>
</a>
</g>
</g>
<!-- Node1&#45;&gt;Node2 -->
<g id="edge1_Node000001_Node000002" class="edge">
<title>Node1&#45;&gt;Node2</title>
<g id="a_edge1_Node000001_Node000002"><a xlink:title=" ">
<path fill="none" stroke="#63b8ff" d="M889.08,-323.85C856.22,-367.19 772.53,-477.59 747,-511.25"/>
<polygon fill="#63b8ff" stroke="#63b8ff" points="892.03,-325.75 895.29,-315.67 886.46,-321.52 892.03,-325.75"/>
</a>
</g>
</g>
<!-- Node8 -->
<g id="Node000008" class="node">
<title>Node8</title>
<g id="a_Node000008"><a xlink:href="classCubeMesh.html#af13c8ae7776a0188d695921274f7a226" target="_top" xlink:title=" ">
<polygon fill="white" stroke="#666666" points="809,-297.65 668,-297.65 668,-278.65 809,-278.65 809,-297.65"/>
<text text-anchor="middle" x="738.5" y="-285.65" font-family="Ubuntu Mono" font-size="10.00">CubeMesh::updateCoords</text>
</a>
</g>
</g>
<!-- Node1&#45;&gt;Node8 -->
<g id="edge9_Node000001_Node000008" class="edge">
<title>Node1&#45;&gt;Node8</title>
<g id="a_edge9_Node000001_Node000008"><a xlink:title=" ">
<path fill="none" stroke="#63b8ff" d="M844.97,-299.8C833.42,-298.52 821.17,-297.17 809.25,-295.85"/>
<polygon fill="#63b8ff" stroke="#63b8ff" points="844.59,-303.28 854.92,-300.9 845.36,-296.32 844.59,-303.28"/>
</a>
</g>
</g>
<!-- Node3 -->
<g id="Node000003" class="node">
<title>Node3</title>
<g id="a_Node000003"><a xlink:href="classCubeMesh.html#a6fcb94a3d173f908d73f3ca560d740e5" target="_top" xlink:title=" ">
<polygon fill="white" stroke="#666666" points="622,-726.65 433,-726.65 433,-707.65 622,-707.65 622,-726.65"/>
<text text-anchor="middle" x="527.5" y="-714.65" font-family="Ubuntu Mono" font-size="10.00">CubeMesh::matchCubeMeshEntries</text>
</a>
</g>
</g>
<!-- Node2&#45;&gt;Node3 -->
<g id="edge2_Node000002_Node000003" class="edge">
<title>Node2&#45;&gt;Node3</title>
<g id="a_edge2_Node000002_Node000003"><a xlink:title=" ">
<path fill="none" stroke="#63b8ff" d="M719.81,-537.74C677.69,-577.24 572.44,-675.94 538.93,-707.37"/>
<polygon fill="#63b8ff" stroke="#63b8ff" points="722.24,-540.26 727.14,-530.87 717.45,-535.16 722.24,-540.26"/>
</a>
</g>
</g>
<!-- Node4 -->
<g id="Node000004" class="node">
<title>Node4</title>
<g id="a_Node000004"><a xlink:href="classCubeMesh.html#a70f68ef447c9887db376e002e4cecaa2" target="_top" xlink:title=" ">
<polygon fill="white" stroke="#666666" points="391,-769.65 227,-769.65 227,-750.65 391,-750.65 391,-769.65"/>
<text text-anchor="middle" x="309" y="-757.65" font-family="Ubuntu Mono" font-size="10.00">CubeMesh::matchMeshEntries</text>
</a>
</g>
</g>
<!-- Node3&#45;&gt;Node4 -->
<g id="edge3_Node000003_Node000004" class="edge">
<title>Node3&#45;&gt;Node4</title>
<g id="a_edge3_Node000003_Node000004"><a xlink:title=" ">
<path fill="none" stroke="#63b8ff" d="M435.38,-728.57C398.94,-735.49 359.84,-743.97 335.18,-750.63"/>
<polygon fill="#63b8ff" stroke="#63b8ff" points="436.39,-731.95 445.58,-726.67 435.1,-725.06 436.39,-731.95"/>
</a>
</g>
</g>
<!-- Node5 -->
<g id="Node000005" class="node">
<title>Node5</title>
<g id="a_Node000005"><a xlink:href="testMesh_8cpp.html#aa1be082304257fa19c2b78cc76269402" target="_top" xlink:title=" ">
<polygon fill="white" stroke="#666666" points="380.5,-684.15 237.5,-684.15 237.5,-654.15 380.5,-654.15 380.5,-684.15"/>
<text text-anchor="start" x="245.5" y="-672.15" font-family="Ubuntu Mono" font-size="10.00">testCubeMeshJunctionDiff</text>
<text text-anchor="middle" x="309" y="-661.15" font-family="Ubuntu Mono" font-size="10.00">SizeMesh</text>
</a>
</g>
</g>
<!-- Node3&#45;&gt;Node5 -->
<g id="edge5_Node000003_Node000005" class="edge">
<title>Node3&#45;&gt;Node5</title>
<g id="a_edge5_Node000003_Node000005"><a xlink:title=" ">
<path fill="none" stroke="#63b8ff" d="M473.57,-705.41C444.67,-699.01 408.59,-691.01 377.67,-684.15"/>
<polygon fill="#63b8ff" stroke="#63b8ff" points="472.95,-708.86 483.47,-707.61 474.46,-702.03 472.95,-708.86"/>
</a>
</g>
</g>
<!-- Node7 -->
<g id="Node000007" class="node">
<title>Node7</title>
<g id="a_Node000007"><a xlink:href="testMesh_8cpp.html#a36ab78666a2324434478067a6c5295f1" target="_top" xlink:title=" ">
<polygon fill="white" stroke="#666666" points="391,-732.15 227,-732.15 227,-702.15 391,-702.15 391,-732.15"/>
<text text-anchor="start" x="235" y="-720.15" font-family="Ubuntu Mono" font-size="10.00">testCubeMeshJunctionTwoDim</text>
<text text-anchor="middle" x="309" y="-709.15" font-family="Ubuntu Mono" font-size="10.00">Surface</text>
</a>
</g>
</g>
<!-- Node3&#45;&gt;Node7 -->
<g id="edge7_Node000003_Node000007" class="edge">
<title>Node3&#45;&gt;Node7</title>
<g id="a_edge7_Node000003_Node000007"><a xlink:title=" ">
<path fill="none" stroke="#63b8ff" d="M422.71,-717.15C412.15,-717.15 401.54,-717.15 391.27,-717.15"/>
<polygon fill="#63b8ff" stroke="#63b8ff" points="422.8,-720.65 432.8,-717.15 422.8,-713.65 422.8,-720.65"/>
</a>
</g>
</g>
<!-- Node4&#45;&gt;Node3 -->
<g id="edge4_Node000004_Node000003" class="edge">
<title>Node4&#45;&gt;Node3</title>
<g id="a_edge4_Node000004_Node000003"><a xlink:title=" ">
<path fill="none" stroke="#63b8ff" d="M401.12,-748.73C437.52,-741.82 476.57,-733.35 501.24,-726.69"/>
<polygon fill="#63b8ff" stroke="#63b8ff" points="400.12,-745.35 390.94,-750.63 401.41,-752.23 400.12,-745.35"/>
</a>
</g>
</g>
<!-- Node6 -->
<g id="Node000006" class="node">
<title>Node6</title>
<g id="a_Node000006"><a xlink:href="testMesh_8cpp.html#a02dc1e0f9b4ca2aaf1c8ad1903d71165" target="_top" xlink:title=" ">
<polygon fill="white" stroke="#666666" points="123.5,-616.65 61.5,-616.65 61.5,-597.65 123.5,-597.65 123.5,-616.65"/>
<text text-anchor="middle" x="92.5" y="-604.65" font-family="Ubuntu Mono" font-size="10.00">testMesh</text>
</a>
</g>
</g>
<!-- Node5&#45;&gt;Node6 -->
<g id="edge6_Node000005_Node000006" class="edge">
<title>Node5&#45;&gt;Node6</title>
<g id="a_edge6_Node000005_Node000006"><a xlink:title=" ">
<path fill="none" stroke="#63b8ff" d="M243.01,-651.38C235.58,-649.3 228.12,-647.19 221,-645.15 187.59,-635.56 149.39,-624.11 123.59,-616.31"/>
<polygon fill="#63b8ff" stroke="#63b8ff" points="242.15,-654.77 252.72,-654.08 244.03,-648.03 242.15,-654.77"/>
</a>
</g>
</g>
<!-- Node7&#45;&gt;Node6 -->
<g id="edge8_Node000007_Node000006" class="edge">
<title>Node7&#45;&gt;Node6</title>
<g id="a_edge8_Node000007_Node000006"><a xlink:title=" ">
<path fill="none" stroke="#63b8ff" d="M234.42,-698.7C229.82,-696.98 225.31,-695.13 221,-693.15 174.67,-671.83 126.5,-634.45 105.03,-616.84"/>
<polygon fill="#63b8ff" stroke="#63b8ff" points="233.35,-702.04 243.95,-702.05 235.67,-695.44 233.35,-702.04"/>
</a>
</g>
</g>
<!-- Node9 -->
<g id="Node000009" class="node">
<title>Node9</title>
<g id="a_Node000009"><a xlink:href="classCubeMesh.html#aa096a7e837e8da5fb18b9e463ef9ea20" target="_top" xlink:title=" ">
<polygon fill="white" stroke="#666666" points="590,-446.65 465,-446.65 465,-427.65 590,-427.65 590,-446.65"/>
<text text-anchor="middle" x="527.5" y="-434.65" font-family="Ubuntu Mono" font-size="10.00">CubeMesh::CubeMesh</text>
</a>
</g>
</g>
<!-- Node8&#45;&gt;Node9 -->
<g id="edge10_Node000008_Node000009" class="edge">
<title>Node8&#45;&gt;Node9</title>
<g id="a_edge10_Node000008_Node000009"><a xlink:title=" ">
<path fill="none" stroke="#63b8ff" d="M726.71,-306.55C708.82,-335.29 670.19,-390.4 622,-418.15 612.38,-423.69 601.39,-427.63 590.41,-430.43"/>
<polygon fill="#63b8ff" stroke="#63b8ff" points="729.76,-308.26 731.96,-297.9 723.78,-304.63 729.76,-308.26"/>
</a>
</g>
</g>
<!-- Node10 -->
<g id="Node000010" class="node">
<title>Node10</title>
<g id="a_Node000010"><a xlink:href="classCubeMesh.html#a4800a01578c9e0c4e1de72ff566ba37e" target="_top" xlink:title=" ">
<polygon fill="white" stroke="#666666" points="601.5,-579.65 453.5,-579.65 453.5,-560.65 601.5,-560.65 601.5,-579.65"/>
<text text-anchor="middle" x="527.5" y="-567.65" font-family="Ubuntu Mono" font-size="10.00">CubeMesh::innerSetCoords</text>
</a>
</g>
</g>
<!-- Node8&#45;&gt;Node10 -->
<g id="edge11_Node000008_Node000010" class="edge">
<title>Node8&#45;&gt;Node10</title>
<g id="a_edge11_Node000008_Node000010"><a xlink:title=" ">
<path fill="none" stroke="#63b8ff" d="M729.54,-307.18C713.12,-345.02 672.77,-431.31 622,-492.15 598.16,-520.72 562.91,-546.87 543.2,-560.43"/>
<polygon fill="#63b8ff" stroke="#63b8ff" points="732.81,-308.42 733.52,-297.85 726.37,-305.67 732.81,-308.42"/>
</a>
</g>
</g>
<!-- Node18 -->
<g id="Node000018" class="node">
<title>Node18</title>
<g id="a_Node000018"><a xlink:href="classCubeMesh.html#ac3e7d718e78153f76f08331f43149562" target="_top" xlink:title=" ">
<polygon fill="white" stroke="#666666" points="360,-144.65 258,-144.65 258,-125.65 360,-125.65 360,-144.65"/>
<text text-anchor="middle" x="309" y="-132.65" font-family="Ubuntu Mono" font-size="10.00">CubeMesh::setDx</text>
</a>
</g>
</g>
<!-- Node8&#45;&gt;Node18 -->
<g id="edge25_Node000008_Node000018" class="edge">
<title>Node8&#45;&gt;Node18</title>
<g id="a_edge25_Node000008_Node000018"><a xlink:title=" ">
<path fill="none" stroke="#63b8ff" d="M727.35,-269.45C710.12,-239.81 672.09,-182.91 622,-158.15 537.52,-116.4 424.24,-120.68 360,-127.77"/>
<polygon fill="#63b8ff" stroke="#63b8ff" points="724.42,-271.37 732.38,-278.36 730.52,-267.93 724.42,-271.37"/>
</a>
</g>
</g>
<!-- Node19 -->
<g id="Node000019" class="node">
<title>Node19</title>
<g id="a_Node000019"><a xlink:href="classCubeMesh.html#aae715b788f7a6b03670eca28d0d2ddc8" target="_top" xlink:title=" ">
<polygon fill="white" stroke="#666666" points="360,-107.65 258,-107.65 258,-88.65 360,-88.65 360,-107.65"/>
<text text-anchor="middle" x="309" y="-95.65" font-family="Ubuntu Mono" font-size="10.00">CubeMesh::setDy</text>
</a>
</g>
</g>
<!-- Node8&#45;&gt;Node19 -->
<g id="edge27_Node000008_Node000019" class="edge">
<title>Node8&#45;&gt;Node19</title>
<g id="a_edge27_Node000008_Node000019"><a xlink:title=" ">
<path fill="none" stroke="#63b8ff" d="M730.72,-268.77C716.82,-232.29 681.29,-154.05 622,-120.15 539.86,-73.18 424.99,-79.96 360,-89.08"/>
<polygon fill="#63b8ff" stroke="#63b8ff" points="727.48,-270.09 734.21,-278.27 734.05,-267.67 727.48,-270.09"/>
</a>
</g>
</g>
<!-- Node20 -->
<g id="Node000020" class="node">
<title>Node20</title>
<g id="a_Node000020"><a xlink:href="classCubeMesh.html#a40f6661162f75b326a5585992909adf3" target="_top" xlink:title=" ">
<polygon fill="white" stroke="#666666" points="359.5,-70.65 258.5,-70.65 258.5,-51.65 359.5,-51.65 359.5,-70.65"/>
<text text-anchor="middle" x="309" y="-58.65" font-family="Ubuntu Mono" font-size="10.00">CubeMesh::setDz</text>
</a>
</g>
</g>
<!-- Node8&#45;&gt;Node20 -->
<g id="edge29_Node000008_Node000020" class="edge">
<title>Node8&#45;&gt;Node20</title>
<g id="a_edge29_Node000008_Node000020"><a xlink:title=" ">
<path fill="none" stroke="#63b8ff" d="M733.35,-268.62C723.08,-225.65 692.04,-123.23 622,-79.15 538.43,-26.55 415.99,-39.64 352.19,-51.61"/>
<polygon fill="#63b8ff" stroke="#63b8ff" points="729.95,-269.44 735.58,-278.41 736.78,-267.89 729.95,-269.44"/>
</a>
</g>
</g>
<!-- Node21 -->
<g id="Node000021" class="node">
<title>Node21</title>
<g id="a_Node000021"><a xlink:href="classCubeMesh.html#ade604c64045021368b07ae2721798d9d" target="_top" xlink:title=" ">
<polygon fill="white" stroke="#666666" points="360,-33.65 258,-33.65 258,-14.65 360,-14.65 360,-33.65"/>
<text text-anchor="middle" x="309" y="-21.65" font-family="Ubuntu Mono" font-size="10.00">CubeMesh::setNx</text>
</a>
</g>
</g>
<!-- Node8&#45;&gt;Node21 -->
<g id="edge31_Node000008_Node000021" class="edge">
<title>Node8&#45;&gt;Node21</title>
<g id="a_edge31_Node000008_Node000021"><a xlink:title=" ">
<path fill="none" stroke="#63b8ff" d="M735.14,-268.32C728.14,-219.48 702.71,-93.45 622,-39.15 537.64,17.61 409.48,-0.73 346.94,-14.61"/>
<polygon fill="#63b8ff" stroke="#63b8ff" points="731.7,-269.04 736.48,-278.5 738.64,-268.12 731.7,-269.04"/>
</a>
</g>
</g>
<!-- Node22 -->
<g id="Node000022" class="node">
<title>Node22</title>
<g id="a_Node000022"><a xlink:href="classCubeMesh.html#a7559695bfb38478ea05c751b07c2f94a" target="_top" xlink:title=" ">
<polygon fill="white" stroke="#666666" points="578.5,-223.65 476.5,-223.65 476.5,-204.65 578.5,-204.65 578.5,-223.65"/>
<text text-anchor="middle" x="527.5" y="-211.65" font-family="Ubuntu Mono" font-size="10.00">CubeMesh::setNy</text>
</a>
</g>
</g>
<!-- Node8&#45;&gt;Node22 -->
<g id="edge33_Node000008_Node000022" class="edge">
<title>Node8&#45;&gt;Node22</title>
<g id="a_edge33_Node000008_Node000022"><a xlink:title=" ">
<path fill="none" stroke="#63b8ff" d="M712.22,-273.5C689.35,-260.83 654.38,-242.91 622,-232.15 608.2,-227.56 592.83,-224 578.62,-221.3"/>
<polygon fill="#63b8ff" stroke="#63b8ff" points="710.81,-276.72 721.24,-278.57 714.24,-270.62 710.81,-276.72"/>
</a>
</g>
</g>
<!-- Node23 -->
<g id="Node000023" class="node">
<title>Node23</title>
<g id="a_Node000023"><a xlink:href="classCubeMesh.html#a572d199d288742bcf6006a3b3bf452bc" target="_top" xlink:title=" ">
<polygon fill="white" stroke="#666666" points="578,-186.65 477,-186.65 477,-167.65 578,-167.65 578,-186.65"/>
<text text-anchor="middle" x="527.5" y="-174.65" font-family="Ubuntu Mono" font-size="10.00">CubeMesh::setNz</text>
</a>
</g>
</g>
<!-- Node8&#45;&gt;Node23 -->
<g id="edge35_Node000008_Node000023" class="edge">
<title>Node8&#45;&gt;Node23</title>
<g id="a_edge35_Node000008_Node000023"><a xlink:title=" ">
<path fill="none" stroke="#63b8ff" d="M721.66,-271.03C700.91,-249.73 662.39,-213.87 622,-195.15 608.5,-188.89 592.94,-184.81 578.43,-182.15"/>
<polygon fill="#63b8ff" stroke="#63b8ff" points="719.27,-273.6 728.71,-278.42 724.34,-268.77 719.27,-273.6"/>
</a>
</g>
</g>
<!-- Node24 -->
<g id="Node000024" class="node">
<title>Node24</title>
<g id="a_Node000024"><a xlink:href="classCubeMesh.html#ac618607b04f4dd8dc6c18fcab16bdabe" target="_top" xlink:title=" ">
<polygon fill="white" stroke="#666666" points="578,-372.65 477,-372.65 477,-353.65 578,-353.65 578,-372.65"/>
<text text-anchor="middle" x="527.5" y="-360.65" font-family="Ubuntu Mono" font-size="10.00">CubeMesh::setX0</text>
</a>
</g>
</g>
<!-- Node8&#45;&gt;Node24 -->
<g id="edge37_Node000008_Node000024" class="edge">
<title>Node8&#45;&gt;Node24</title>
<g id="a_edge37_Node000008_Node000024"><a xlink:title=" ">
<path fill="none" stroke="#63b8ff" d="M711.34,-302.78C688.4,-315.08 653.83,-332.33 622,-343.15 608.01,-347.9 592.45,-351.77 578.1,-354.79"/>
<polygon fill="#63b8ff" stroke="#63b8ff" points="713.31,-305.7 720.42,-297.85 709.96,-299.55 713.31,-305.7"/>
</a>
</g>
</g>
<!-- Node25 -->
<g id="Node000025" class="node">
<title>Node25</title>
<g id="a_Node000025"><a xlink:href="classCubeMesh.html#a0889e278ed6e58672bf25de4bb685a5e" target="_top" xlink:title=" ">
<polygon fill="white" stroke="#666666" points="578,-334.65 477,-334.65 477,-315.65 578,-315.65 578,-334.65"/>
<text text-anchor="middle" x="527.5" y="-322.65" font-family="Ubuntu Mono" font-size="10.00">CubeMesh::setX1</text>
</a>
</g>
</g>
<!-- Node8&#45;&gt;Node25 -->
<g id="edge40_Node000008_Node000025" class="edge">
<title>Node8&#45;&gt;Node25</title>
<g id="a_edge40_Node000008_Node000025"><a xlink:title=" ">
<path fill="none" stroke="#63b8ff" d="M673.52,-299.48C642.87,-304.9 606.73,-311.3 578.2,-316.35"/>
<polygon fill="#63b8ff" stroke="#63b8ff" points="674.44,-302.87 683.68,-297.68 673.22,-295.98 674.44,-302.87"/>
</a>
</g>
</g>
<!-- Node26 -->
<g id="Node000026" class="node">
<title>Node26</title>
<g id="a_Node000026"><a xlink:href="classCubeMesh.html#a3e9d88e7c0b053d666343ddebd224625" target="_top" xlink:title=" ">
<polygon fill="white" stroke="#666666" points="578,-297.65 477,-297.65 477,-278.65 578,-278.65 578,-297.65"/>
<text text-anchor="middle" x="527.5" y="-285.65" font-family="Ubuntu Mono" font-size="10.00">CubeMesh::setY0</text>
</a>
</g>
</g>
<!-- Node8&#45;&gt;Node26 -->
<g id="edge43_Node000008_Node000026" class="edge">
<title>Node8&#45;&gt;Node26</title>
<g id="a_edge43_Node000008_Node000026"><a xlink:title=" ">
<path fill="none" stroke="#63b8ff" d="M657.79,-288.15C631.08,-288.15 602.07,-288.15 578.31,-288.15"/>
<polygon fill="#63b8ff" stroke="#63b8ff" points="657.91,-291.65 667.91,-288.15 657.91,-284.65 657.91,-291.65"/>
</a>
</g>
</g>
<!-- Node27 -->
<g id="Node000027" class="node">
<title>Node27</title>
<g id="a_Node000027"><a xlink:href="classCubeMesh.html#a28eea4622063757676f54e5d4f0fd994" target="_top" xlink:title=" ">
<polygon fill="white" stroke="#666666" points="578,-260.65 477,-260.65 477,-241.65 578,-241.65 578,-260.65"/>
<text text-anchor="middle" x="527.5" y="-248.65" font-family="Ubuntu Mono" font-size="10.00">CubeMesh::setY1</text>
</a>
</g>
</g>
<!-- Node8&#45;&gt;Node27 -->
<g id="edge46_Node000008_Node000027" class="edge">
<title>Node8&#45;&gt;Node27</title>
<g id="a_edge46_Node000008_Node000027"><a xlink:title=" ">
<path fill="none" stroke="#63b8ff" d="M673.52,-276.82C642.87,-271.4 606.73,-265 578.2,-259.95"/>
<polygon fill="#63b8ff" stroke="#63b8ff" points="673.22,-280.32 683.68,-278.62 674.44,-273.43 673.22,-280.32"/>
</a>
</g>
</g>
<!-- Node28 -->
<g id="Node000028" class="node">
<title>Node28</title>
<g id="a_Node000028"><a xlink:href="classCubeMesh.html#ad4f6bb41d3e23386d3e46c2110154a35" target="_top" xlink:title=" ">
<polygon fill="white" stroke="#666666" points="578,-483.65 477,-483.65 477,-464.65 578,-464.65 578,-483.65"/>
<text text-anchor="middle" x="527.5" y="-471.65" font-family="Ubuntu Mono" font-size="10.00">CubeMesh::setZ0</text>
</a>
</g>
</g>
<!-- Node8&#45;&gt;Node28 -->
<g id="edge49_Node000008_Node000028" class="edge">
<title>Node8&#45;&gt;Node28</title>
<g id="a_edge49_Node000008_Node000028"><a xlink:title=" ">
<path fill="none" stroke="#63b8ff" d="M729.86,-307.69C714.92,-343.19 678.27,-418.03 622,-455.15 609.14,-463.63 593.28,-468.46 578.31,-471.17"/>
<polygon fill="#63b8ff" stroke="#63b8ff" points="733.27,-308.6 733.8,-298.02 726.79,-305.96 733.27,-308.6"/>
</a>
</g>
</g>
<!-- Node29 -->
<g id="Node000029" class="node">
<title>Node29</title>
<g id="a_Node000029"><a xlink:href="classCubeMesh.html#a8a881323040e90c2f6747972160c7a1a" target="_top" xlink:title=" ">
<polygon fill="white" stroke="#666666" points="578,-409.65 477,-409.65 477,-390.65 578,-390.65 578,-409.65"/>
<text text-anchor="middle" x="527.5" y="-397.65" font-family="Ubuntu Mono" font-size="10.00">CubeMesh::setZ1</text>
</a>
</g>
</g>
<!-- Node8&#45;&gt;Node29 -->
<g id="edge52_Node000008_Node000029" class="edge">
<title>Node8&#45;&gt;Node29</title>
<g id="a_edge52_Node000008_Node000029"><a xlink:title=" ">
<path fill="none" stroke="#63b8ff" d="M721.63,-305.2C700.85,-326.44 662.29,-362.22 622,-381.15 608.51,-387.49 592.94,-391.72 578.44,-394.54"/>
<polygon fill="#63b8ff" stroke="#63b8ff" points="724.29,-307.48 728.69,-297.84 719.24,-302.63 724.29,-307.48"/>
</a>
</g>
</g>
<!-- Node10&#45;&gt;Node5 -->
<g id="edge21_Node000010_Node000005" class="edge">
<title>Node10&#45;&gt;Node5</title>
<g id="a_edge21_Node000010_Node000005"><a xlink:title=" ">
<path fill="none" stroke="#63b8ff" d="M504.33,-585.36C479.24,-602 436.69,-628.51 397,-645.15 389.2,-648.42 380.82,-651.38 372.45,-654.01"/>
<polygon fill="#63b8ff" stroke="#63b8ff" points="506.39,-588.19 512.74,-579.71 502.49,-582.38 506.39,-588.19"/>
</a>
</g>
</g>
<!-- Node10&#45;&gt;Node7 -->
<g id="edge22_Node000010_Node000007" class="edge">
<title>Node10&#45;&gt;Node7</title>
<g id="a_edge22_Node000010_Node000007"><a xlink:title=" ">
<path fill="none" stroke="#63b8ff" d="M512.75,-587.91C491.04,-614.72 446.23,-665.32 397,-693.15 391,-696.54 384.49,-699.48 377.83,-702.01"/>
<polygon fill="#63b8ff" stroke="#63b8ff" points="515.71,-589.81 519.19,-579.8 510.23,-585.45 515.71,-589.81"/>
</a>
</g>
</g>
<!-- Node11 -->
<g id="Node000011" class="node">
<title>Node11</title>
<g id="a_Node000011"><a xlink:href="classCubeMesh.html#a9a6bed3f99e8a96645049b29db93c151" target="_top" xlink:title=" ">
<polygon fill="white" stroke="#666666" points="370,-524.65 248,-524.65 248,-505.65 370,-505.65 370,-524.65"/>
<text text-anchor="middle" x="309" y="-512.65" font-family="Ubuntu Mono" font-size="10.00">CubeMesh::setCoords</text>
</a>
</g>
</g>
<!-- Node10&#45;&gt;Node11 -->
<g id="edge12_Node000010_Node000011" class="edge">
<title>Node10&#45;&gt;Node11</title>
<g id="a_edge12_Node000010_Node000011"><a xlink:title=" ">
<path fill="none" stroke="#63b8ff" d="M485.87,-557.7C460.46,-550.13 426.97,-540.52 397,-533.15 384.87,-530.17 371.7,-527.27 359.37,-524.7"/>
<polygon fill="#63b8ff" stroke="#63b8ff" points="484.95,-561.08 495.53,-560.6 486.96,-554.38 484.95,-561.08"/>
</a>
</g>
</g>
<!-- Node14 -->
<g id="Node000014" class="node">
<title>Node14</title>
<g id="a_Node000014"><a xlink:href="testMesh_8cpp.html#a15465209926d048327e50a93ad4cddd3" target="_top" xlink:title=" ">
<polygon fill="white" stroke="#666666" points="352,-410.65 266,-410.65 266,-391.65 352,-391.65 352,-410.65"/>
<text text-anchor="middle" x="309" y="-398.65" font-family="Ubuntu Mono" font-size="10.00">testCubeMesh</text>
</a>
</g>
</g>
<!-- Node10&#45;&gt;Node14 -->
<g id="edge15_Node000010_Node000014" class="edge">
<title>Node10&#45;&gt;Node14</title>
<g id="a_edge15_Node000010_Node000014"><a xlink:title=" ">
<path fill="none" stroke="#63b8ff" d="M506.24,-554.34C462.07,-519.86 358.21,-438.78 322.39,-410.83"/>
<polygon fill="#63b8ff" stroke="#63b8ff" points="504.2,-557.19 514.24,-560.58 508.51,-551.67 504.2,-557.19"/>
</a>
</g>
</g>
<!-- Node15 -->
<g id="Node000015" class="node">
<title>Node15</title>
<g id="a_Node000015"><a xlink:href="testMesh_8cpp.html#a18d83fbb87a6057ceee2198c71f061f5" target="_top" xlink:title=" ">
<polygon fill="white" stroke="#666666" points="385.5,-598.65 232.5,-598.65 232.5,-579.65 385.5,-579.65 385.5,-598.65"/>
<text text-anchor="middle" x="309" y="-586.65" font-family="Ubuntu Mono" font-size="10.00">testCubeMeshExtendStencil</text>
</a>
</g>
</g>
<!-- Node10&#45;&gt;Node15 -->
<g id="edge17_Node000010_Node000015" class="edge">
<title>Node10&#45;&gt;Node15</title>
<g id="a_edge17_Node000010_Node000015"><a xlink:title=" ">
<path fill="none" stroke="#63b8ff" d="M443.15,-577.47C424.28,-579.12 404.34,-580.87 385.81,-582.5"/>
<polygon fill="#63b8ff" stroke="#63b8ff" points="443.55,-580.94 453.2,-576.58 442.94,-573.97 443.55,-580.94"/>
</a>
</g>
</g>
<!-- Node16 -->
<g id="Node000016" class="node">
<title>Node16</title>
<g id="a_Node000016"><a xlink:href="testMesh_8cpp.html#af9142d95222e9406d3e8ee0ad327e4a9" target="_top" xlink:title=" ">
<polygon fill="white" stroke="#666666" points="397,-561.65 221,-561.65 221,-542.65 397,-542.65 397,-561.65"/>
<text text-anchor="middle" x="309" y="-549.65" font-family="Ubuntu Mono" font-size="10.00">testCubeMeshFillTwoDimSurface</text>
</a>
</g>
</g>
<!-- Node10&#45;&gt;Node16 -->
<g id="edge19_Node000010_Node000016" class="edge">
<title>Node10&#45;&gt;Node16</title>
<g id="a_edge19_Node000010_Node000016"><a xlink:title=" ">
<path fill="none" stroke="#63b8ff" d="M442.92,-563.2C427.89,-561.95 412.2,-560.65 397.07,-559.39"/>
<polygon fill="#63b8ff" stroke="#63b8ff" points="442.95,-566.72 453.2,-564.06 443.53,-559.74 442.95,-566.72"/>
</a>
</g>
</g>
<!-- Node17 -->
<g id="Node000017" class="node">
<title>Node17</title>
<g id="a_Node000017"><a xlink:href="testMesh_8cpp.html#aa028febf00de28513fba5fc9009fc555" target="_top" xlink:title=" ">
<polygon fill="white" stroke="#666666" points="397,-635.65 221,-635.65 221,-616.65 397,-616.65 397,-635.65"/>
<text text-anchor="middle" x="309" y="-623.65" font-family="Ubuntu Mono" font-size="10.00">testCubeMeshMultiJunctionTwoD</text>
</a>
</g>
</g>
<!-- Node10&#45;&gt;Node17 -->
<g id="edge23_Node000010_Node000017" class="edge">
<title>Node10&#45;&gt;Node17</title>
<g id="a_edge23_Node000010_Node000017"><a xlink:title=" ">
<path fill="none" stroke="#63b8ff" d="M486.91,-582.68C461.39,-590.53 427.4,-600.56 397,-608.15 385.03,-611.14 372.04,-614.02 359.85,-616.56"/>
<polygon fill="#63b8ff" stroke="#63b8ff" points="488.08,-585.98 496.6,-579.68 486.01,-579.29 488.08,-585.98"/>
</a>
</g>
</g>
<!-- Node12 -->
<g id="Node000012" class="node">
<title>Node12</title>
<g id="a_Node000012"><a xlink:href="classCubeMesh.html#a32d11717019490a8e18666da3f1e4b3b" target="_top" xlink:title=" ">
<polygon fill="white" stroke="#666666" points="150,-258.65 35,-258.65 35,-239.65 150,-239.65 150,-258.65"/>
<text text-anchor="middle" x="92.5" y="-246.65" font-family="Ubuntu Mono" font-size="10.00">CubeMesh::initCinfo</text>
</a>
</g>
</g>
<!-- Node11&#45;&gt;Node12 -->
<g id="edge13_Node000011_Node000012" class="edge">
<title>Node11&#45;&gt;Node12</title>
<g id="a_edge13_Node000011_Node000012"><a xlink:title=" ">
<path fill="none" stroke="#63b8ff" d="M238.44,-501.73C232.19,-498.86 226.25,-495.37 221,-491.15 139.97,-425.96 104.27,-295.2 95.64,-258.77"/>
<polygon fill="#63b8ff" stroke="#63b8ff" points="237.2,-505 247.78,-505.51 239.82,-498.51 237.2,-505"/>
</a>
</g>
</g>
<!-- Node13 -->
<g id="Node000013" class="node">
<title>Node13</title>
<g id="a_Node000013"><a xlink:href="classCubeMesh.html#a3742b4fa234428947a651332defa8940" target="_top" xlink:title="Virtual func to make a mesh with specified Volume and numEntries.">
<polygon fill="white" stroke="#666666" points="185,-524.65 0,-524.65 0,-505.65 185,-505.65 185,-524.65"/>
<text text-anchor="middle" x="92.5" y="-512.65" font-family="Ubuntu Mono" font-size="10.00">CubeMesh::innerBuildDefaultMesh</text>
</a>
</g>
</g>
<!-- Node11&#45;&gt;Node13 -->
<g id="edge14_Node000011_Node000013" class="edge">
<title>Node11&#45;&gt;Node13</title>
<g id="a_edge14_Node000011_Node000013"><a xlink:title=" ">
<path fill="none" stroke="#63b8ff" d="M237.72,-515.15C220.95,-515.15 202.81,-515.15 185.24,-515.15"/>
<polygon fill="#63b8ff" stroke="#63b8ff" points="237.96,-518.65 247.96,-515.15 237.96,-511.65 237.96,-518.65"/>
</a>
</g>
</g>
<!-- Node14&#45;&gt;Node6 -->
<g id="edge16_Node000014_Node000006" class="edge">
<title>Node14&#45;&gt;Node6</title>
<g id="a_edge16_Node000014_Node000006"><a xlink:title=" ">
<path fill="none" stroke="#63b8ff" d="M292.05,-418.54C261.36,-451.95 196.14,-522.76 185,-533.15 158.4,-557.95 124.55,-584.04 106.4,-597.63"/>
<polygon fill="#63b8ff" stroke="#63b8ff" points="294.87,-420.64 299.05,-410.91 289.71,-415.91 294.87,-420.64"/>
</a>
</g>
</g>
<!-- Node15&#45;&gt;Node6 -->
<g id="edge18_Node000015_Node000006" class="edge">
<title>Node15&#45;&gt;Node6</title>
<g id="a_edge18_Node000015_Node000006"><a xlink:title=" ">
<path fill="none" stroke="#63b8ff" d="M222.14,-596.35C187.23,-599.29 149.16,-602.48 123.56,-604.63"/>
<polygon fill="#63b8ff" stroke="#63b8ff" points="222.7,-599.82 232.38,-595.5 222.12,-592.84 222.7,-599.82"/>
</a>
</g>
</g>
<!-- Node16&#45;&gt;Node6 -->
<g id="edge20_Node000016_Node000006" class="edge">
<title>Node16&#45;&gt;Node6</title>
<g id="a_edge20_Node000016_Node000006"><a xlink:title=" ">
<path fill="none" stroke="#63b8ff" d="M248.65,-563.78C239.37,-565.79 229.9,-567.94 221,-570.15 187.44,-578.48 149.44,-589.75 123.72,-597.66"/>
<polygon fill="#63b8ff" stroke="#63b8ff" points="249.56,-567.16 258.62,-561.67 248.11,-560.32 249.56,-567.16"/>
</a>
</g>
</g>
<!-- Node17&#45;&gt;Node6 -->
<g id="edge24_Node000017_Node000006" class="edge">
<title>Node17&#45;&gt;Node6</title>
<g id="a_edge24_Node000017_Node000006"><a xlink:title=" ">
<path fill="none" stroke="#63b8ff" d="M210.59,-617.52C179.14,-614.74 146.54,-611.85 123.75,-609.83"/>
<polygon fill="#63b8ff" stroke="#63b8ff" points="210.48,-621.03 220.75,-618.42 211.1,-614.05 210.48,-621.03"/>
</a>
</g>
</g>
<!-- Node18&#45;&gt;Node12 -->
<g id="edge26_Node000018_Node000012" class="edge">
<title>Node18&#45;&gt;Node12</title>
<g id="a_edge26_Node000018_Node000012"><a xlink:title=" ">
<path fill="none" stroke="#63b8ff" d="M252.15,-147.47C241.57,-150.66 230.76,-154.53 221,-159.15 173.73,-181.51 125.27,-221.31 104.28,-239.54"/>
<polygon fill="#63b8ff" stroke="#63b8ff" points="253.12,-150.84 261.78,-144.73 251.2,-144.1 253.12,-150.84"/>
</a>
</g>
</g>
<!-- Node19&#45;&gt;Node12 -->
<g id="edge28_Node000019_Node000012" class="edge">
<title>Node19&#45;&gt;Node12</title>
<g id="a_edge28_Node000019_Node000012"><a xlink:title=" ">
<path fill="none" stroke="#63b8ff" d="M248.07,-105.57C238.66,-108.12 229.31,-111.55 221,-116.15 163.34,-148.04 115.92,-214.73 99.59,-239.56"/>
<polygon fill="#63b8ff" stroke="#63b8ff" points="248.95,-108.96 257.85,-103.21 247.31,-102.15 248.95,-108.96"/>
</a>
</g>
</g>
<!-- Node20&#45;&gt;Node12 -->
<g id="edge30_Node000020_Node000012" class="edge">
<title>Node20&#45;&gt;Node12</title>
<g id="a_edge30_Node000020_Node000012"><a xlink:title=" ">
<path fill="none" stroke="#63b8ff" d="M248.24,-67.52C238.66,-70.2 229.21,-73.93 221,-79.15 154.97,-121.07 110.86,-210.14 97.65,-239.53"/>
<polygon fill="#63b8ff" stroke="#63b8ff" points="249.32,-70.86 258.22,-65.11 247.68,-64.06 249.32,-70.86"/>
</a>
</g>
</g>
<!-- Node21&#45;&gt;Node12 -->
<g id="edge32_Node000021_Node000012" class="edge">
<title>Node21&#45;&gt;Node12</title>
<g id="a_edge32_Node000021_Node000012"><a xlink:title=" ">
<path fill="none" stroke="#63b8ff" d="M247.82,-29.89C238.29,-32.64 228.97,-36.56 221,-42.15 146.35,-94.48 106.9,-205.87 96.4,-239.4"/>
<polygon fill="#63b8ff" stroke="#63b8ff" points="248.9,-33.23 257.77,-27.44 247.23,-26.44 248.9,-33.23"/>
</a>
</g>
</g>
<!-- Node22&#45;&gt;Node12 -->
<g id="edge34_Node000022_Node000012" class="edge">
<title>Node22&#45;&gt;Node12</title>
<g id="a_edge34_Node000022_Node000012"><a xlink:title=" ">
<path fill="none" stroke="#63b8ff" d="M466.29,-219.02C382.6,-225.78 232.17,-237.94 150.32,-244.56"/>
<polygon fill="#63b8ff" stroke="#63b8ff" points="466.72,-222.49 476.41,-218.2 466.16,-215.52 466.72,-222.49"/>
</a>
</g>
</g>
<!-- Node23&#45;&gt;Node12 -->
<g id="edge36_Node000023_Node000012" class="edge">
<title>Node23&#45;&gt;Node12</title>
<g id="a_edge36_Node000023_Node000012"><a xlink:title=" ">
<path fill="none" stroke="#63b8ff" d="M466.92,-184.81C405.22,-193 306.1,-206.89 221,-222.15 192.27,-227.3 160.12,-234.12 135.29,-239.61"/>
<polygon fill="#63b8ff" stroke="#63b8ff" points="467.42,-188.27 476.87,-183.49 466.5,-181.33 467.42,-188.27"/>
</a>
</g>
</g>
<!-- Node24&#45;&gt;Node12 -->
<g id="edge38_Node000024_Node000012" class="edge">
<title>Node24&#45;&gt;Node12</title>
<g id="a_edge38_Node000024_Node000012"><a xlink:title=" ">
<path fill="none" stroke="#63b8ff" d="M466.9,-359.12C404.37,-353.62 303.84,-341.17 221,-314.15 178.01,-300.13 131.7,-273.19 108.52,-258.79"/>
<polygon fill="#63b8ff" stroke="#63b8ff" points="466.72,-362.62 476.98,-359.97 467.31,-355.64 466.72,-362.62"/>
</a>
</g>
</g>
<!-- Node24&#45;&gt;Node14 -->
<g id="edge39_Node000024_Node000014" class="edge">
<title>Node24&#45;&gt;Node14</title>
<g id="a_edge39_Node000024_Node000014"><a xlink:title=" ">
<path fill="none" stroke="#63b8ff" d="M466.83,-373.62C430.43,-380.01 384.79,-388.02 352.15,-393.75"/>
<polygon fill="#63b8ff" stroke="#63b8ff" points="467.59,-377.04 476.83,-371.87 466.38,-370.15 467.59,-377.04"/>
</a>
</g>
</g>
<!-- Node25&#45;&gt;Node12 -->
<g id="edge41_Node000025_Node000012" class="edge">
<title>Node25&#45;&gt;Node12</title>
<g id="a_edge41_Node000025_Node000012"><a xlink:title=" ">
<path fill="none" stroke="#63b8ff" d="M466.92,-320.31C405.02,-314.63 305.55,-303.7 221,-286.15 186.25,-278.93 147.17,-267.01 121.54,-258.65"/>
<polygon fill="#63b8ff" stroke="#63b8ff" points="466.63,-323.79 476.9,-321.21 467.26,-316.82 466.63,-323.79"/>
</a>
</g>
</g>
<!-- Node25&#45;&gt;Node14 -->
<g id="edge42_Node000025_Node000014" class="edge">
<title>Node25&#45;&gt;Node14</title>
<g id="a_edge42_Node000025_Node000014"><a xlink:title=" ">
<path fill="none" stroke="#63b8ff" d="M467.02,-335.06C455.6,-337.58 443.83,-340.59 433,-344.15 393.87,-357 350.76,-378.92 327.4,-391.5"/>
<polygon fill="#63b8ff" stroke="#63b8ff" points="467.86,-338.46 476.93,-332.99 466.42,-331.61 467.86,-338.46"/>
</a>
</g>
</g>
<!-- Node26&#45;&gt;Node12 -->
<g id="edge44_Node000026_Node000012" class="edge">
<title>Node26&#45;&gt;Node12</title>
<g id="a_edge44_Node000026_Node000012"><a xlink:title=" ">
<path fill="none" stroke="#63b8ff" d="M466.66,-284.14C405.03,-279.84 306.21,-272.51 221,-264.15 197.82,-261.88 172.32,-258.96 150.25,-256.3"/>
<polygon fill="#63b8ff" stroke="#63b8ff" points="466.76,-287.65 476.97,-284.85 467.24,-280.67 466.76,-287.65"/>
</a>
</g>
</g>
<!-- Node26&#45;&gt;Node14 -->
<g id="edge45_Node000026_Node000014" class="edge">
<title>Node26&#45;&gt;Node14</title>
<g id="a_edge45_Node000026_Node000014"><a xlink:title=" ">
<path fill="none" stroke="#63b8ff" d="M466.66,-295.35C455.19,-297.93 443.49,-301.42 433,-306.15 384.8,-327.9 338.3,-372.03 319.16,-391.53"/>
<polygon fill="#63b8ff" stroke="#63b8ff" points="467.55,-298.74 476.65,-293.32 466.15,-291.89 467.55,-298.74"/>
</a>
</g>
</g>
<!-- Node27&#45;&gt;Node12 -->
<g id="edge47_Node000027_Node000012" class="edge">
<title>Node27&#45;&gt;Node12</title>
<g id="a_edge47_Node000027_Node000012"><a xlink:title=" ">
<path fill="none" stroke="#63b8ff" d="M466.72,-250.87C383.03,-250.49 232.04,-249.79 150.1,-249.41"/>
<polygon fill="#63b8ff" stroke="#63b8ff" points="466.81,-254.37 476.83,-250.92 466.85,-247.37 466.81,-254.37"/>
</a>
</g>
</g>
<!-- Node27&#45;&gt;Node14 -->
<g id="edge48_Node000027_Node000014" class="edge">
<title>Node27&#45;&gt;Node14</title>
<g id="a_edge48_Node000027_Node000014"><a xlink:title=" ">
<path fill="none" stroke="#63b8ff" d="M467.11,-256.76C455.32,-259.46 443.4,-263.4 433,-269.15 376.54,-300.39 331.3,-366.83 315.78,-391.59"/>
<polygon fill="#63b8ff" stroke="#63b8ff" points="467.82,-260.19 476.93,-254.78 466.44,-253.33 467.82,-260.19"/>
</a>
</g>
</g>
<!-- Node28&#45;&gt;Node12 -->
<g id="edge50_Node000028_Node000012" class="edge">
<title>Node28&#45;&gt;Node12</title>
<g id="a_edge50_Node000028_Node000012"><a xlink:title=" ">
<path fill="none" stroke="#63b8ff" d="M466.86,-481.11C401.62,-485.71 296.32,-484.05 221,-438.15 148.33,-393.87 107.79,-290.66 96.67,-258.73"/>
<polygon fill="#63b8ff" stroke="#63b8ff" points="467.27,-484.58 476.97,-480.32 466.73,-477.61 467.27,-484.58"/>
</a>
</g>
</g>
<!-- Node28&#45;&gt;Node14 -->
<g id="edge51_Node000028_Node000014" class="edge">
<title>Node28&#45;&gt;Node14</title>
<g id="a_edge51_Node000028_Node000014"><a xlink:title=" ">
<path fill="none" stroke="#63b8ff" d="M467.07,-464.06C455.65,-461.56 443.87,-458.6 433,-455.15 394.54,-442.95 351.89,-422.58 328.28,-410.65"/>
<polygon fill="#63b8ff" stroke="#63b8ff" points="466.48,-467.51 476.99,-466.13 467.91,-460.66 466.48,-467.51"/>
</a>
</g>
</g>
<!-- Node29&#45;&gt;Node12 -->
<g id="edge53_Node000029_Node000012" class="edge">
<title>Node29&#45;&gt;Node12</title>
<g id="a_edge53_Node000029_Node000012"><a xlink:title=" ">
<path fill="none" stroke="#63b8ff" d="M466.77,-410.87C390.28,-423.4 262.62,-439.96 221,-419.15 150.72,-384.01 109.12,-289.66 97.13,-258.95"/>
<polygon fill="#63b8ff" stroke="#63b8ff" points="467.46,-414.3 476.75,-409.21 466.31,-407.4 467.46,-414.3"/>
</a>
</g>
</g>
<!-- Node29&#45;&gt;Node14 -->
<g id="edge54_Node000029_Node000014" class="edge">
<title>Node29&#45;&gt;Node14</title>
<g id="a_edge54_Node000029_Node000014"><a xlink:title=" ">
<path fill="none" stroke="#63b8ff" d="M466.83,-400.43C430.43,-400.59 384.79,-400.8 352.15,-400.96"/>
<polygon fill="#63b8ff" stroke="#63b8ff" points="466.85,-403.93 476.83,-400.38 466.81,-396.93 466.85,-403.93"/>
</a>
</g>
</g>
</g>
</svg>
