<?xml version="1.0" encoding="UTF-8" standalone="no"?>
<!DOCTYPE svg PUBLIC "-//W3C//DTD SVG 1.1//EN"
 "http://www.w3.org/Graphics/SVG/1.1/DTD/svg11.dtd">
<!-- Generated by graphviz version 2.43.0 (0)
 -->
<!-- Title: fillPointsOnCircle Pages: 1 -->
<svg width="284pt" height="138pt"
 viewBox="0.00 0.00 284.00 138.00" xmlns="http://www.w3.org/2000/svg" xmlns:xlink="http://www.w3.org/1999/xlink">
<g id="graph0" class="graph" transform="scale(1 1) rotate(0) translate(4 134)">
<title>fillPointsOnCircle</title>
<!-- Node1 -->
<g id="Node000001" class="node">
<title>Node1</title>
<g id="a_Node000001"><a xlink:title=" ">
<polygon fill="#999999" stroke="#666666" points="100,-74 0,-74 0,-55 100,-55 100,-74"/>
<text text-anchor="middle" x="50" y="-62" font-family="Ubuntu Mono" font-size="10.00">fillPointsOnCircle</text>
</a>
</g>
</g>
<!-- Node2 -->
<g id="Node000002" class="node">
<title>Node2</title>
<g id="a_Node000002"><a xlink:href="classVec.html#a226019f1225faafaec3dc235724a418d" target="_top" xlink:title=" ">
<polygon fill="white" stroke="#666666" points="232,-130 180,-130 180,-111 232,-111 232,-130"/>
<text text-anchor="middle" x="206" y="-118" font-family="Ubuntu Mono" font-size="10.00">Vec::a0</text>
</a>
</g>
</g>
<!-- Node1&#45;&gt;Node2 -->
<g id="edge1_Node000001_Node000002" class="edge">
<title>Node1&#45;&gt;Node2</title>
<g id="a_edge1_Node000001_Node000002"><a xlink:title=" ">
<path fill="none" stroke="#63b8ff" d="M69.88,-74.02C86.86,-82.33 112.67,-94.3 136,-102.5 146.91,-106.33 159.04,-109.76 170.06,-112.58"/>
<polygon fill="#63b8ff" stroke="#63b8ff" points="169.24,-115.98 179.79,-114.98 170.92,-109.19 169.24,-115.98"/>
</a>
</g>
</g>
<!-- Node3 -->
<g id="Node000003" class="node">
<title>Node3</title>
<g id="a_Node000003"><a xlink:href="classVec.html#a702d1ea183ea05e153f22e4631b57e3f" target="_top" xlink:title=" ">
<polygon fill="white" stroke="#666666" points="232,-93 180,-93 180,-74 232,-74 232,-93"/>
<text text-anchor="middle" x="206" y="-81" font-family="Ubuntu Mono" font-size="10.00">Vec::a1</text>
</a>
</g>
</g>
<!-- Node1&#45;&gt;Node3 -->
<g id="edge2_Node000001_Node000003" class="edge">
<title>Node1&#45;&gt;Node3</title>
<g id="a_edge2_Node000001_Node000003"><a xlink:title=" ">
<path fill="none" stroke="#63b8ff" d="M100.15,-70.56C122.89,-73.37 149.38,-76.64 170.04,-79.19"/>
<polygon fill="#63b8ff" stroke="#63b8ff" points="169.62,-82.66 179.97,-80.41 170.47,-75.71 169.62,-82.66"/>
</a>
</g>
</g>
<!-- Node4 -->
<g id="Node000004" class="node">
<title>Node4</title>
<g id="a_Node000004"><a xlink:href="classVec.html#a445c0d24660fdd56d4dc4179518c4d80" target="_top" xlink:title=" ">
<polygon fill="white" stroke="#666666" points="232,-56 180,-56 180,-37 232,-37 232,-56"/>
<text text-anchor="middle" x="206" y="-44" font-family="Ubuntu Mono" font-size="10.00">Vec::a2</text>
</a>
</g>
</g>
<!-- Node1&#45;&gt;Node4 -->
<g id="edge3_Node000001_Node000004" class="edge">
<title>Node1&#45;&gt;Node4</title>
<g id="a_edge3_Node000001_Node000004"><a xlink:title=" ">
<path fill="none" stroke="#63b8ff" d="M100.15,-58.76C122.79,-56.11 149.14,-53.03 169.76,-50.62"/>
<polygon fill="#63b8ff" stroke="#63b8ff" points="170.44,-54.06 179.97,-49.43 169.63,-47.11 170.44,-54.06"/>
</a>
</g>
</g>
<!-- Node5 -->
<g id="Node000005" class="node">
<title>Node5</title>
<g id="a_Node000005"><a xlink:href="classCubeMesh.html#aa9ebdbca1b7a24f2b7ecc792334e6a16" target="_top" xlink:title="Converts the 3&#45;D coords to an index. EMPTY if out of range.">
<polygon fill="white" stroke="#666666" points="276,-19 136,-19 136,0 276,0 276,-19"/>
<text text-anchor="middle" x="206" y="-7" font-family="Ubuntu Mono" font-size="10.00">CubeMesh::spaceToIndex</text>
</a>
</g>
</g>
<!-- Node1&#45;&gt;Node5 -->
<g id="edge4_Node000001_Node000005" class="edge">
<title>Node1&#45;&gt;Node5</title>
<g id="a_edge4_Node000001_Node000005"><a xlink:title=" ">
<path fill="none" stroke="#63b8ff" d="M71.66,-54.84C88.69,-47.11 113.6,-36.29 136,-28.5 142.62,-26.2 149.68,-23.99 156.66,-21.94"/>
<polygon fill="#63b8ff" stroke="#63b8ff" points="158.1,-25.17 166.76,-19.06 156.19,-18.43 158.1,-25.17"/>
</a>
</g>
</g>
</g>
</svg>
