<?xml version="1.0" encoding="UTF-8" standalone="no"?>
<!DOCTYPE svg PUBLIC "-//W3C//DTD SVG 1.1//EN"
 "http://www.w3.org/Graphics/SVG/1.1/DTD/svg11.dtd">
<!-- Generated by graphviz version 2.43.0 (0)
 -->
<!-- Title: putFuncsInOrder Pages: 1 -->
<svg width="603pt" height="212pt"
 viewBox="0.00 0.00 603.00 212.00" xmlns="http://www.w3.org/2000/svg" xmlns:xlink="http://www.w3.org/1999/xlink">
<g id="graph0" class="graph" transform="scale(1 1) rotate(0) translate(4 208)">
<title>putFuncsInOrder</title>
<!-- Node1 -->
<g id="Node000001" class="node">
<title>Node1</title>
<g id="a_Node000001"><a xlink:title=" ">
<polygon fill="#999999" stroke="#666666" points="96,-111 0,-111 0,-92 96,-92 96,-111"/>
<text text-anchor="middle" x="48" y="-99" font-family="Ubuntu Mono" font-size="10.00">putFuncsInOrder</text>
</a>
</g>
</g>
<!-- Node2 -->
<g id="Node000002" class="node">
<title>Node2</title>
<g id="a_Node000002"><a xlink:href="classElement.html#a33610036b72724ca3b7fedaf7e692841" target="_top" xlink:title=" ">
<polygon fill="white" stroke="#666666" points="225.5,-204 138.5,-204 138.5,-185 225.5,-185 225.5,-204"/>
<text text-anchor="middle" x="182" y="-192" font-family="Ubuntu Mono" font-size="10.00">Element::cinfo</text>
</a>
</g>
</g>
<!-- Node1&#45;&gt;Node2 -->
<g id="edge1_Node000001_Node000002" class="edge">
<title>Node1&#45;&gt;Node2</title>
<g id="a_edge1_Node000001_Node000002"><a xlink:title=" ">
<path fill="none" stroke="#63b8ff" d="M57.29,-111.07C71.28,-126.69 101.08,-157.82 132,-176.5 134.63,-178.09 137.42,-179.57 140.29,-180.95"/>
<polygon fill="#63b8ff" stroke="#63b8ff" points="139.02,-184.22 149.59,-185 141.81,-177.8 139.02,-184.22"/>
</a>
</g>
</g>
<!-- Node3 -->
<g id="Node000003" class="node">
<title>Node3</title>
<g id="a_Node000003"><a xlink:href="classMsg.html#a5be9f4dd643f5f662e8fb3c029273390" target="_top" xlink:title=" ">
<polygon fill="white" stroke="#666666" points="209.5,-167 154.5,-167 154.5,-148 209.5,-148 209.5,-167"/>
<text text-anchor="middle" x="182" y="-155" font-family="Ubuntu Mono" font-size="10.00">Msg::e1</text>
</a>
</g>
</g>
<!-- Node1&#45;&gt;Node3 -->
<g id="edge2_Node000001_Node000003" class="edge">
<title>Node1&#45;&gt;Node3</title>
<g id="a_edge2_Node000001_Node000003"><a xlink:title=" ">
<path fill="none" stroke="#63b8ff" d="M68.94,-111.15C85.63,-119.11 110.17,-130.51 132,-139.5 136.17,-141.22 140.56,-142.94 144.94,-144.62"/>
<polygon fill="#63b8ff" stroke="#63b8ff" points="143.82,-147.93 154.41,-148.16 146.27,-141.37 143.82,-147.93"/>
</a>
</g>
</g>
<!-- Node4 -->
<g id="Node000004" class="node">
<title>Node4</title>
<g id="a_Node000004"><a xlink:href="classMsg.html#a893ed6b44cd4c529f0f10af38ae6743a" target="_top" xlink:title=" ">
<polygon fill="white" stroke="#666666" points="209.5,-130 154.5,-130 154.5,-111 209.5,-111 209.5,-130"/>
<text text-anchor="middle" x="182" y="-118" font-family="Ubuntu Mono" font-size="10.00">Msg::e2</text>
</a>
</g>
</g>
<!-- Node1&#45;&gt;Node4 -->
<g id="edge3_Node000001_Node000004" class="edge">
<title>Node1&#45;&gt;Node4</title>
<g id="a_edge3_Node000001_Node000004"><a xlink:title=" ">
<path fill="none" stroke="#63b8ff" d="M96.28,-108.31C112,-110.57 129.26,-113.05 144.07,-115.18"/>
<polygon fill="#63b8ff" stroke="#63b8ff" points="143.98,-118.71 154.37,-116.67 144.97,-111.78 143.98,-118.71"/>
</a>
</g>
</g>
<!-- Node5 -->
<g id="Node000005" class="node">
<title>Node5</title>
<g id="a_Node000005"><a xlink:href="classMsg.html#a1a57001709e44ab056a704c24760c105" target="_top" xlink:title=" ">
<polygon fill="white" stroke="#666666" points="221.5,-93 142.5,-93 142.5,-74 221.5,-74 221.5,-93"/>
<text text-anchor="middle" x="182" y="-81" font-family="Ubuntu Mono" font-size="10.00">Msg::getMsg</text>
</a>
</g>
</g>
<!-- Node1&#45;&gt;Node5 -->
<g id="edge4_Node000001_Node000005" class="edge">
<title>Node1&#45;&gt;Node5</title>
<g id="a_edge4_Node000001_Node000005"><a xlink:title=" ">
<path fill="none" stroke="#63b8ff" d="M96.28,-95.05C107.95,-93.46 120.48,-91.75 132.22,-90.15"/>
<polygon fill="#63b8ff" stroke="#63b8ff" points="132.86,-93.6 142.3,-88.78 131.91,-86.66 132.86,-93.6"/>
</a>
</g>
</g>
<!-- Node11 -->
<g id="Node000011" class="node">
<title>Node11</title>
<g id="a_Node000011"><a xlink:href="classCinfo.html#aa111a219c2868af6b8d7d181d5714e9d" target="_top" xlink:title=" ">
<polygon fill="white" stroke="#666666" points="232,-56 132,-56 132,-37 232,-37 232,-56"/>
<text text-anchor="middle" x="182" y="-44" font-family="Ubuntu Mono" font-size="10.00">Cinfo::getOpFunc</text>
</a>
</g>
</g>
<!-- Node1&#45;&gt;Node11 -->
<g id="edge10_Node000001_Node000011" class="edge">
<title>Node1&#45;&gt;Node11</title>
<g id="a_edge10_Node000001_Node000011"><a xlink:title=" ">
<path fill="none" stroke="#63b8ff" d="M70.4,-91.94C87.1,-84.55 110.93,-74.15 132,-65.5 136.56,-63.63 141.38,-61.7 146.14,-59.82"/>
<polygon fill="#63b8ff" stroke="#63b8ff" points="147.7,-62.97 155.75,-56.07 145.16,-56.45 147.7,-62.97"/>
</a>
</g>
</g>
<!-- Node12 -->
<g id="Node000012" class="node">
<title>Node12</title>
<g id="a_Node000012"><a xlink:href="classFuncOrder.html#a4551f612b57ed99396fb4f5376c3ec71" target="_top" xlink:title=" ">
<polygon fill="white" stroke="#666666" points="225.5,-19 138.5,-19 138.5,0 225.5,0 225.5,-19"/>
<text text-anchor="middle" x="182" y="-7" font-family="Ubuntu Mono" font-size="10.00">FuncOrder::set</text>
</a>
</g>
</g>
<!-- Node1&#45;&gt;Node12 -->
<g id="edge11_Node000001_Node000012" class="edge">
<title>Node1&#45;&gt;Node12</title>
<g id="a_edge11_Node000001_Node000012"><a xlink:title=" ">
<path fill="none" stroke="#63b8ff" d="M57.77,-91.57C71.99,-76 101.53,-45.77 132,-27.5 134.64,-25.92 137.43,-24.44 140.3,-23.07"/>
<polygon fill="#63b8ff" stroke="#63b8ff" points="141.82,-26.22 149.6,-19.03 139.04,-19.8 141.82,-26.22"/>
</a>
</g>
</g>
<!-- Node6 -->
<g id="Node000006" class="node">
<title>Node6</title>
<g id="a_Node000006"><a xlink:href="classObjId.html#a1e5933713d6a73550b0923cf63f5bfd8" target="_top" xlink:title=" ">
<polygon fill="white" stroke="#666666" points="338,-93 268,-93 268,-74 338,-74 338,-93"/>
<text text-anchor="middle" x="303" y="-81" font-family="Ubuntu Mono" font-size="10.00">ObjId::data</text>
</a>
</g>
</g>
<!-- Node5&#45;&gt;Node6 -->
<g id="edge5_Node000005_Node000006" class="edge">
<title>Node5&#45;&gt;Node6</title>
<g id="a_edge5_Node000005_Node000006"><a xlink:title=" ">
<path fill="none" stroke="#63b8ff" d="M221.64,-83.5C233.18,-83.5 245.93,-83.5 257.81,-83.5"/>
<polygon fill="#63b8ff" stroke="#63b8ff" points="257.97,-87 267.97,-83.5 257.97,-80 257.97,-87"/>
</a>
</g>
</g>
<!-- Node7 -->
<g id="Node000007" class="node">
<title>Node7</title>
<g id="a_Node000007"><a xlink:href="classElement.html#a1978a0a584f1b10ea4a7c67e69880042" target="_top" xlink:title=" ">
<polygon fill="white" stroke="#666666" points="470.5,-130 385.5,-130 385.5,-111 470.5,-111 470.5,-130"/>
<text text-anchor="middle" x="428" y="-118" font-family="Ubuntu Mono" font-size="10.00">Element::data</text>
</a>
</g>
</g>
<!-- Node6&#45;&gt;Node7 -->
<g id="edge6_Node000006_Node000007" class="edge">
<title>Node6&#45;&gt;Node7</title>
<g id="a_edge6_Node000006_Node000007"><a xlink:title=" ">
<path fill="none" stroke="#63b8ff" d="M335.68,-93.03C350.77,-97.57 369.02,-103.06 385.22,-107.93"/>
<polygon fill="#63b8ff" stroke="#63b8ff" points="384.42,-111.35 395,-110.88 386.44,-104.64 384.42,-111.35"/>
</a>
</g>
</g>
<!-- Node8 -->
<g id="Node000008" class="node">
<title>Node8</title>
<g id="a_Node000008"><a xlink:href="classId.html#a574e06330597163aef0ea4c99de7ff4a" target="_top" xlink:title="Synonym for Id::operator()()">
<polygon fill="white" stroke="#666666" points="464,-93 392,-93 392,-74 464,-74 464,-93"/>
<text text-anchor="middle" x="428" y="-81" font-family="Ubuntu Mono" font-size="10.00">Id::element</text>
</a>
</g>
</g>
<!-- Node6&#45;&gt;Node8 -->
<g id="edge7_Node000006_Node000008" class="edge">
<title>Node6&#45;&gt;Node8</title>
<g id="a_edge7_Node000006_Node000008"><a xlink:title=" ">
<path fill="none" stroke="#63b8ff" d="M338.26,-83.5C351.65,-83.5 367.19,-83.5 381.49,-83.5"/>
<polygon fill="#63b8ff" stroke="#63b8ff" points="381.64,-87 391.64,-83.5 381.64,-80 381.64,-87"/>
</a>
</g>
</g>
<!-- Node10 -->
<g id="Node000010" class="node">
<title>Node10</title>
<g id="a_Node000010"><a xlink:href="classElement.html#a73a0e468a3d6cfd6475fff4a56459075" target="_top" xlink:title=" ">
<polygon fill="white" stroke="#666666" points="482,-56 374,-56 374,-37 482,-37 482,-56"/>
<text text-anchor="middle" x="428" y="-44" font-family="Ubuntu Mono" font-size="10.00">Element::rawIndex</text>
</a>
</g>
</g>
<!-- Node6&#45;&gt;Node10 -->
<g id="edge9_Node000006_Node000010" class="edge">
<title>Node6&#45;&gt;Node10</title>
<g id="a_edge9_Node000006_Node000010"><a xlink:title=" ">
<path fill="none" stroke="#63b8ff" d="M335.68,-73.97C350.77,-69.43 369.02,-63.94 385.22,-59.07"/>
<polygon fill="#63b8ff" stroke="#63b8ff" points="386.44,-62.36 395,-56.12 384.42,-55.65 386.44,-62.36"/>
</a>
</g>
</g>
<!-- Node9 -->
<g id="Node000009" class="node">
<title>Node9</title>
<g id="a_Node000009"><a xlink:href="classId.html#a2d5e7b4d5d918aadfe45102691c2be27" target="_top" xlink:title=" ">
<polygon fill="white" stroke="#666666" points="595,-93 518,-93 518,-74 595,-74 595,-93"/>
<text text-anchor="middle" x="556.5" y="-81" font-family="Ubuntu Mono" font-size="10.00">Id::elements</text>
</a>
</g>
</g>
<!-- Node8&#45;&gt;Node9 -->
<g id="edge8_Node000008_Node000009" class="edge">
<title>Node8&#45;&gt;Node9</title>
<g id="a_edge8_Node000008_Node000009"><a xlink:title=" ">
<path fill="none" stroke="#63b8ff" d="M464.24,-83.5C477.65,-83.5 493.17,-83.5 507.56,-83.5"/>
<polygon fill="#63b8ff" stroke="#63b8ff" points="507.8,-87 517.8,-83.5 507.8,-80 507.8,-87"/>
</a>
</g>
</g>
</g>
</svg>
