<?xml version="1.0" encoding="UTF-8" standalone="no"?>
<!DOCTYPE svg PUBLIC "-//W3C//DTD SVG 1.1//EN"
 "http://www.w3.org/Graphics/SVG/1.1/DTD/svg11.dtd">
<!-- Generated by graphviz version 2.43.0 (0)
 -->
<!-- Title: prdOut Pages: 1 -->
<svg width="629pt" height="179pt"
 viewBox="0.00 0.00 629.00 179.00" xmlns="http://www.w3.org/2000/svg" xmlns:xlink="http://www.w3.org/1999/xlink">
<g id="graph0" class="graph" transform="scale(1 1) rotate(0) translate(4 175)">
<title>prdOut</title>
<!-- Node1 -->
<g id="Node000001" class="node">
<title>Node1</title>
<g id="a_Node000001"><a xlink:title=" ">
<polygon fill="#999999" stroke="#666666" points="621,-95 571,-95 571,-76 621,-76 621,-95"/>
<text text-anchor="middle" x="596" y="-83" font-family="Ubuntu Mono" font-size="10.00">prdOut</text>
</a>
</g>
</g>
<!-- Node2 -->
<g id="Node000002" class="node">
<title>Node2</title>
<g id="a_Node000002"><a xlink:href="classEnzBase.html#a68c259b7e1982512eb196dce9a8550c9" target="_top" xlink:title=" ">
<polygon fill="white" stroke="#666666" points="535,-114 416,-114 416,-95 535,-95 535,-114"/>
<text text-anchor="middle" x="475.5" y="-102" font-family="Ubuntu Mono" font-size="10.00">EnzBase::getNumPrd</text>
</a>
</g>
</g>
<!-- Node1&#45;&gt;Node2 -->
<g id="edge1_Node000001_Node000002" class="edge">
<title>Node1&#45;&gt;Node2</title>
<g id="a_edge1_Node000001_Node000002"><a xlink:title=" ">
<path fill="none" stroke="#63b8ff" d="M560.78,-90.99C552.83,-92.26 544.16,-93.65 535.48,-95.04"/>
<polygon fill="#63b8ff" stroke="#63b8ff" points="561.41,-94.43 570.73,-89.39 560.31,-87.52 561.41,-94.43"/>
</a>
</g>
</g>
<!-- Node3 -->
<g id="Node000003" class="node">
<title>Node3</title>
<g id="a_Node000003"><a xlink:href="classEnzBase.html#af1fc2c11b195775a43ddc1f630029a14" target="_top" xlink:title=" ">
<polygon fill="white" stroke="#666666" points="380,-95 275,-95 275,-76 380,-76 380,-95"/>
<text text-anchor="middle" x="327.5" y="-83" font-family="Ubuntu Mono" font-size="10.00">EnzBase::initCinfo</text>
</a>
</g>
</g>
<!-- Node1&#45;&gt;Node3 -->
<g id="edge10_Node000001_Node000003" class="edge">
<title>Node1&#45;&gt;Node3</title>
<g id="a_edge10_Node000001_Node000003"><a xlink:title=" ">
<path fill="none" stroke="#63b8ff" d="M560.88,-85.5C515.14,-85.5 433.56,-85.5 380.24,-85.5"/>
<polygon fill="#63b8ff" stroke="#63b8ff" points="560.88,-89 570.88,-85.5 560.88,-82 560.88,-89"/>
</a>
</g>
</g>
<!-- Node2&#45;&gt;Node3 -->
<g id="edge2_Node000002_Node000003" class="edge">
<title>Node2&#45;&gt;Node3</title>
<g id="a_edge2_Node000002_Node000003"><a xlink:title=" ">
<path fill="none" stroke="#63b8ff" d="M405.96,-95.58C397.38,-94.46 388.72,-93.34 380.46,-92.26"/>
<polygon fill="#63b8ff" stroke="#63b8ff" points="405.59,-99.06 415.96,-96.88 406.49,-92.12 405.59,-99.06"/>
</a>
</g>
</g>
<!-- Node4 -->
<g id="Node000004" class="node">
<title>Node4</title>
<g id="a_Node000004"><a xlink:href="Enz_8cpp.html#ade181cea56a63db2a4a1295f06ad0680" target="_top" xlink:title=" ">
<polygon fill="white" stroke="#666666" points="215,-171 159,-171 159,-152 215,-152 215,-171"/>
<text text-anchor="middle" x="187" y="-159" font-family="Ubuntu Mono" font-size="10.00">enzDest</text>
</a>
</g>
</g>
<!-- Node3&#45;&gt;Node4 -->
<g id="edge3_Node000003_Node000004" class="edge">
<title>Node3&#45;&gt;Node4</title>
<g id="a_edge3_Node000003_Node000004"><a xlink:title=" ">
<path fill="none" stroke="#63b8ff" d="M302.37,-100.69C284.99,-111.42 260.86,-125.89 239,-137.5 229.49,-142.55 218.74,-147.69 209.57,-151.91"/>
<polygon fill="#63b8ff" stroke="#63b8ff" points="304.62,-103.41 311.27,-95.16 300.93,-97.47 304.62,-103.41"/>
</a>
</g>
</g>
<!-- Node5 -->
<g id="Node000005" class="node">
<title>Node5</title>
<g id="a_Node000005"><a xlink:href="classEnz.html#a3e5ca82f4ac57afcbfa71949ce0cf749" target="_top" xlink:title=" ">
<polygon fill="white" stroke="#666666" points="90,-152 9,-152 9,-133 90,-133 90,-152"/>
<text text-anchor="middle" x="49.5" y="-140" font-family="Ubuntu Mono" font-size="10.00">Enz::initCinfo</text>
</a>
</g>
</g>
<!-- Node3&#45;&gt;Node5 -->
<g id="edge6_Node000003_Node000005" class="edge">
<title>Node3&#45;&gt;Node5</title>
<g id="a_edge6_Node000003_Node000005"><a xlink:title=" ">
<path fill="none" stroke="#63b8ff" d="M273.54,-97.13C262.15,-99.6 250.18,-102.16 239,-104.5 187.7,-115.24 128.42,-127.1 90.25,-134.67"/>
<polygon fill="#63b8ff" stroke="#63b8ff" points="274.33,-100.54 283.36,-95 272.84,-93.7 274.33,-100.54"/>
</a>
</g>
</g>
<!-- Node6 -->
<g id="Node000006" class="node">
<title>Node6</title>
<g id="a_Node000006"><a xlink:href="ReadKkit_8cpp.html#ac6c4d9e185b6d74d16dde20a24a8388e" target="_top" xlink:title=" ">
<polygon fill="white" stroke="#666666" points="231.5,-95 142.5,-95 142.5,-76 231.5,-76 231.5,-95"/>
<text text-anchor="middle" x="187" y="-83" font-family="Ubuntu Mono" font-size="10.00">findMeshOfEnz</text>
</a>
</g>
</g>
<!-- Node3&#45;&gt;Node6 -->
<g id="edge5_Node000003_Node000006" class="edge">
<title>Node3&#45;&gt;Node6</title>
<g id="a_edge5_Node000003_Node000006"><a xlink:title=" ">
<path fill="none" stroke="#63b8ff" d="M264.84,-85.5C253.73,-85.5 242.36,-85.5 231.89,-85.5"/>
<polygon fill="#63b8ff" stroke="#63b8ff" points="264.93,-89 274.93,-85.5 264.93,-82 264.93,-89"/>
</a>
</g>
</g>
<!-- Node7 -->
<g id="Node000007" class="node">
<title>Node7</title>
<g id="a_Node000007"><a xlink:href="classMMenz.html#aac1466097d1b877b61236241c572174f" target="_top" xlink:title=" ">
<polygon fill="white" stroke="#666666" points="99,-38 0,-38 0,-19 99,-19 99,-38"/>
<text text-anchor="middle" x="49.5" y="-26" font-family="Ubuntu Mono" font-size="10.00">MMenz::initCinfo</text>
</a>
</g>
</g>
<!-- Node3&#45;&gt;Node7 -->
<g id="edge7_Node000003_Node000007" class="edge">
<title>Node3&#45;&gt;Node7</title>
<g id="a_edge7_Node000003_Node000007"><a xlink:title=" ">
<path fill="none" stroke="#63b8ff" d="M273.54,-73.87C262.15,-71.4 250.18,-68.84 239,-66.5 191.46,-56.55 137.07,-45.63 98.97,-38.06"/>
<polygon fill="#63b8ff" stroke="#63b8ff" points="272.84,-77.3 283.36,-76 274.33,-70.46 272.84,-77.3"/>
</a>
</g>
</g>
<!-- Node8 -->
<g id="Node000008" class="node">
<title>Node8</title>
<g id="a_Node000008"><a xlink:href="classMMenz.html#ad391949741ca05d043245f9d93d14c7e" target="_top" xlink:title=" ">
<polygon fill="white" stroke="#666666" points="239,-19 135,-19 135,0 239,0 239,-19"/>
<text text-anchor="middle" x="187" y="-7" font-family="Ubuntu Mono" font-size="10.00">MMenz::setSolver</text>
</a>
</g>
</g>
<!-- Node3&#45;&gt;Node8 -->
<g id="edge8_Node000003_Node000008" class="edge">
<title>Node3&#45;&gt;Node8</title>
<g id="a_edge8_Node000003_Node000008"><a xlink:title=" ">
<path fill="none" stroke="#63b8ff" d="M302.37,-70.31C284.99,-59.58 260.86,-45.11 239,-33.5 229.49,-28.45 218.74,-23.31 209.57,-19.09"/>
<polygon fill="#63b8ff" stroke="#63b8ff" points="300.93,-73.53 311.27,-75.84 304.62,-67.59 300.93,-73.53"/>
</a>
</g>
</g>
<!-- Node4&#45;&gt;Node5 -->
<g id="edge4_Node000004_Node000005" class="edge">
<title>Node4&#45;&gt;Node5</title>
<g id="a_edge4_Node000004_Node000005"><a xlink:title=" ">
<path fill="none" stroke="#63b8ff" d="M148.93,-156.3C130.7,-153.75 108.7,-150.66 90.13,-148.06"/>
<polygon fill="#63b8ff" stroke="#63b8ff" points="148.52,-159.78 158.91,-157.7 149.49,-152.85 148.52,-159.78"/>
</a>
</g>
</g>
<!-- Node8&#45;&gt;Node7 -->
<g id="edge9_Node000008_Node000007" class="edge">
<title>Node8&#45;&gt;Node7</title>
<g id="a_edge9_Node000008_Node000007"><a xlink:title=" ">
<path fill="none" stroke="#63b8ff" d="M124.78,-18.08C116.18,-19.29 107.44,-20.52 99.11,-21.68"/>
<polygon fill="#63b8ff" stroke="#63b8ff" points="125.36,-21.54 134.77,-16.68 124.38,-14.61 125.36,-21.54"/>
</a>
</g>
</g>
</g>
</svg>
