<?xml version="1.0" encoding="UTF-8" standalone="no"?>
<!DOCTYPE svg PUBLIC "-//W3C//DTD SVG 1.1//EN"
 "http://www.w3.org/Graphics/SVG/1.1/DTD/svg11.dtd">
<!-- Generated by graphviz version 2.43.0 (0)
 -->
<!-- Title: /home/runner/work/mooseneuro.github.io/mooseneuro.github.io/docs/moose&#45;core/basecode/FieldElementFinfo.cpp Pages: 1 -->
<!--zoomable 225 -->

<svg id="main" version="1.1" xmlns="http://www.w3.org/2000/svg" xmlns:xlink="http://www.w3.org/1999/xlink" xml:space="preserve" onload="init(evt)">
<style type="text/css"><![CDATA[
.node, .edge {opacity: 0.7;}
.node.selected, .edge.selected {opacity: 1;}
.edge:hover path { stroke: red; }
.edge:hover polygon { stroke: red; fill: red; }
]]></style>

<defs>
  <circle id="rim" cx="0" cy="0" r="7"/>
  <circle id="rim2" cx="0" cy="0" r="3.5"/>
  <g id="zoomPlus">
    <use xlink:href="#rim" fill="#404040"><set attributeName="fill" to="#808080" begin="zoomplus.mouseover" end="zoomplus.mouseout"/></use>
    <path d="M-4,0h8M0,-4v8" fill="none" stroke="white" stroke-width="1.5" pointer-events="none"/>
  </g>
  <g id="zoomMin">
    <use xlink:href="#rim" fill="#404040"><set attributeName="fill" to="#808080" begin="zoomminus.mouseover" end="zoomminus.mouseout"/></use>
    <path d="M-4,0h8" fill="none" stroke="white" stroke-width="1.5" pointer-events="none"/>
  </g>
  <g id="arrowUp" transform="translate(30 24)">
    <use xlink:href="#rim"/>
    <path pointer-events="none" fill="none" stroke="white" stroke-width="1.5" d="M0,-3.0v7 M-2.5,-0.5L0,-3.0L2.5,-0.5"/>
  </g>
  <g id="arrowRight" transform="rotate(90) translate(36 -43)">
    <use xlink:href="#rim"/>
    <path pointer-events="none" fill="none" stroke="white" stroke-width="1.5" d="M0,-3.0v7 M-2.5,-0.5L0,-3.0L2.5,-0.5"/>
  </g>
  <g id="arrowDown" transform="rotate(180) translate(-30 -48)">
    <use xlink:href="#rim"/>
    <path pointer-events="none" fill="none" stroke="white" stroke-width="1.5" d="M0,-3.0v7 M-2.5,-0.5L0,-3.0L2.5,-0.5"/>
  </g>
  <g id="arrowLeft" transform="rotate(270) translate(-36 17)">
    <use xlink:href="#rim"/>
    <path pointer-events="none" fill="none" stroke="white" stroke-width="1.5" d="M0,-3.0v7 M-2.5,-0.5L0,-3.0L2.5,-0.5"/>
  </g>
  <g id="resetDef">
    <use xlink:href="#rim2" fill="#404040"><set attributeName="fill" to="#808080" begin="reset.mouseover" end="reset.mouseout"/></use>
  </g>
</defs>
<script type="application/ecmascript">
var viewWidth = 3444;
var viewHeight = 225;
var sectionId = 'dynsection-0';
</script>
<script type="application/ecmascript" xlink:href="svg.min.js"/>
<svg id="graph" class="graph">
<g id="viewport">
<title>/home/runner/work/mooseneuro.github.io/mooseneuro.github.io/docs/moose&#45;core/basecode/FieldElementFinfo.cpp</title>
<!-- Node1 -->
<g id="Node000001" class="node">
<title>Node1</title>
<g id="a_Node000001"><a xlink:title=" ">
<polygon fill="#999999" stroke="#666666" points="1639,-217 1421,-217 1421,-176 1639,-176 1639,-217"/>
<text text-anchor="start" x="1429" y="-205" font-family="Ubuntu Mono" font-size="10.00">/home/runner/work/mooseneuro.github.io</text>
<text text-anchor="start" x="1429" y="-194" font-family="Ubuntu Mono" font-size="10.00">/mooseneuro.github.io/docs/moose</text>
<text text-anchor="middle" x="1530" y="-183" font-family="Ubuntu Mono" font-size="10.00">&#45;core/basecode/FieldElementFinfo.cpp</text>
</a>
</g>
</g>
<!-- Node2 -->
<g id="Node000002" class="node">
<title>Node2</title>
<g id="a_Node000002"><a xlink:href="header_8h.html" target="_top" xlink:title=" ">
<polygon fill="white" stroke="#666666" points="1559.5,-134.5 1500.5,-134.5 1500.5,-115.5 1559.5,-115.5 1559.5,-134.5"/>
<text text-anchor="middle" x="1530" y="-122.5" font-family="Ubuntu Mono" font-size="10.00">header.h</text>
</a>
</g>
</g>
<!-- Node1&#45;&gt;Node2 -->
<g id="edge1_Node000001_Node000002" class="edge">
<title>Node1&#45;&gt;Node2</title>
<g id="a_edge1_Node000001_Node000002"><a xlink:title=" ">
<path fill="none" stroke="#63b8ff" d="M1530,-175.77C1530,-166.08 1530,-154.46 1530,-144.88"/>
<polygon fill="#63b8ff" stroke="#63b8ff" points="1533.5,-144.82 1530,-134.82 1526.5,-144.82 1533.5,-144.82"/>
</a>
</g>
</g>
<!-- Node44 -->
<g id="Node000044" class="node">
<title>Node44</title>
<g id="a_Node000044"><a xlink:href="Shell_8h.html" target="_top" xlink:title=" ">
<polygon fill="white" stroke="#666666" points="773.5,-134.5 688.5,-134.5 688.5,-115.5 773.5,-115.5 773.5,-134.5"/>
<text text-anchor="middle" x="731" y="-122.5" font-family="Ubuntu Mono" font-size="10.00">../shell/Shell.h</text>
</a>
</g>
</g>
<!-- Node1&#45;&gt;Node44 -->
<g id="edge45_Node000001_Node000044" class="edge">
<title>Node1&#45;&gt;Node44</title>
<g id="a_edge45_Node000001_Node000044"><a xlink:title=" ">
<path fill="none" stroke="#63b8ff" d="M1421,-186.02C1246.99,-170.88 912.94,-141.83 783.78,-130.59"/>
<polygon fill="#63b8ff" stroke="#63b8ff" points="784.01,-127.1 773.75,-129.72 783.41,-134.07 784.01,-127.1"/>
</a>
</g>
</g>
<!-- Node45 -->
<g id="Node000045" class="node">
<title>Node45</title>
<g id="a_Node000045"><a xlink:href="OneToOneDataIndexMsg_8h.html" target="_top" xlink:title=" ">
<polygon fill="white" stroke="#666666" points="1726.5,-140 1577.5,-140 1577.5,-110 1726.5,-110 1726.5,-140"/>
<text text-anchor="start" x="1585.5" y="-128" font-family="Ubuntu Mono" font-size="10.00">../msg/OneToOneDataIndex</text>
<text text-anchor="middle" x="1652" y="-117" font-family="Ubuntu Mono" font-size="10.00">Msg.h</text>
</a>
</g>
</g>
<!-- Node1&#45;&gt;Node45 -->
<g id="edge47_Node000001_Node000045" class="edge">
<title>Node1&#45;&gt;Node45</title>
<g id="a_edge47_Node000001_Node000045"><a xlink:title=" ">
<path fill="none" stroke="#63b8ff" d="M1564.31,-175.96C1581.2,-166.33 1601.48,-154.78 1618.29,-145.2"/>
<polygon fill="#63b8ff" stroke="#63b8ff" points="1620.27,-148.1 1627.23,-140.11 1616.81,-142.02 1620.27,-148.1"/>
</a>
</g>
</g>
<!-- Node3 -->
<g id="Node000003" class="node">
<title>Node3</title>
<g id="a_Node000003"><a xlink:title=" ">
<polygon fill="#e0e0e0" stroke="#999999" points="3435.5,-74 3384.5,-74 3384.5,-55 3435.5,-55 3435.5,-74"/>
<text text-anchor="middle" x="3410" y="-62" font-family="Ubuntu Mono" font-size="10.00">math.h</text>
</a>
</g>
</g>
<!-- Node2&#45;&gt;Node3 -->
<g id="edge2_Node000002_Node000003" class="edge">
<title>Node2&#45;&gt;Node3</title>
<g id="a_edge2_Node000002_Node000003"><a xlink:title=" ">
<path fill="none" stroke="#63b8ff" d="M1549.37,-115.45C1555.24,-113.25 1561.78,-111.17 1568,-110 1959.71,-36.11 2961.35,-125.6 3374.55,-73.82"/>
<polygon fill="#63b8ff" stroke="#63b8ff" points="3375.03,-77.29 3384.5,-72.53 3374.13,-70.34 3375.03,-77.29"/>
</a>
</g>
</g>
<!-- Node4 -->
<g id="Node000004" class="node">
<title>Node4</title>
<g id="a_Node000004"><a xlink:title=" ">
<polygon fill="#e0e0e0" stroke="#999999" points="126,-74 62,-74 62,-55 126,-55 126,-74"/>
<text text-anchor="middle" x="94" y="-62" font-family="Ubuntu Mono" font-size="10.00">algorithm</text>
</a>
</g>
</g>
<!-- Node2&#45;&gt;Node4 -->
<g id="edge3_Node000002_Node000004" class="edge">
<title>Node2&#45;&gt;Node4</title>
<g id="a_edge3_Node000002_Node000004"><a xlink:title=" ">
<path fill="none" stroke="#63b8ff" d="M1500.35,-123.62C1326.2,-121.28 434,-107.84 136.48,-73.91"/>
<polygon fill="#63b8ff" stroke="#63b8ff" points="136.48,-70.39 126.14,-72.7 135.67,-77.34 136.48,-70.39"/>
</a>
</g>
</g>
<!-- Node5 -->
<g id="Node000005" class="node">
<title>Node5</title>
<g id="a_Node000005"><a xlink:title=" ">
<polygon fill="#e0e0e0" stroke="#999999" points="191.5,-74 144.5,-74 144.5,-55 191.5,-55 191.5,-74"/>
<text text-anchor="middle" x="168" y="-62" font-family="Ubuntu Mono" font-size="10.00">vector</text>
</a>
</g>
</g>
<!-- Node2&#45;&gt;Node5 -->
<g id="edge4_Node000002_Node000005" class="edge">
<title>Node2&#45;&gt;Node5</title>
<g id="a_edge4_Node000002_Node000005"><a xlink:title=" ">
<path fill="none" stroke="#63b8ff" d="M1500.35,-123.75C1331.09,-122.19 485.05,-112.61 201.91,-73.7"/>
<polygon fill="#63b8ff" stroke="#63b8ff" points="202.06,-70.19 191.67,-72.24 201.08,-77.12 202.06,-70.19"/>
</a>
</g>
</g>
<!-- Node6 -->
<g id="Node000006" class="node">
<title>Node6</title>
<g id="a_Node000006"><a xlink:title=" ">
<polygon fill="#e0e0e0" stroke="#999999" points="44,-74 0,-74 0,-55 44,-55 44,-74"/>
<text text-anchor="middle" x="22" y="-62" font-family="Ubuntu Mono" font-size="10.00">string</text>
</a>
</g>
</g>
<!-- Node2&#45;&gt;Node6 -->
<g id="edge5_Node000002_Node000006" class="edge">
<title>Node2&#45;&gt;Node6</title>
<g id="a_edge5_Node000002_Node000006"><a xlink:title=" ">
<path fill="none" stroke="#63b8ff" d="M1500.27,-123.41C1307.99,-119.55 242.53,-97.32 54.18,-73.64"/>
<polygon fill="#63b8ff" stroke="#63b8ff" points="54.6,-70.17 44.22,-72.26 53.64,-77.1 54.6,-70.17"/>
</a>
</g>
</g>
<!-- Node7 -->
<g id="Node000007" class="node">
<title>Node7</title>
<g id="a_Node000007"><a xlink:title=" ">
<polygon fill="#e0e0e0" stroke="#999999" points="248,-74 210,-74 210,-55 248,-55 248,-74"/>
<text text-anchor="middle" x="229" y="-62" font-family="Ubuntu Mono" font-size="10.00">map</text>
</a>
</g>
</g>
<!-- Node2&#45;&gt;Node7 -->
<g id="edge6_Node000002_Node000007" class="edge">
<title>Node2&#45;&gt;Node7</title>
<g id="a_edge6_Node000002_Node000007"><a xlink:title=" ">
<path fill="none" stroke="#63b8ff" d="M1500.43,-123.29C1325.17,-119.03 424.91,-96.32 258.42,-73.58"/>
<polygon fill="#63b8ff" stroke="#63b8ff" points="258.54,-70.05 248.13,-72.01 257.48,-76.98 258.54,-70.05"/>
</a>
</g>
</g>
<!-- Node8 -->
<g id="Node000008" class="node">
<title>Node8</title>
<g id="a_Node000008"><a xlink:title=" ">
<polygon fill="#e0e0e0" stroke="#999999" points="359.5,-74 266.5,-74 266.5,-55 359.5,-55 359.5,-74"/>
<text text-anchor="middle" x="313" y="-62" font-family="Ubuntu Mono" font-size="10.00">unordered_map</text>
</a>
</g>
</g>
<!-- Node2&#45;&gt;Node8 -->
<g id="edge7_Node000002_Node000008" class="edge">
<title>Node2&#45;&gt;Node8</title>
<g id="a_edge7_Node000002_Node000008"><a xlink:title=" ">
<path fill="none" stroke="#63b8ff" d="M1500.32,-123.9C1368.85,-123.19 825.83,-117.68 369.78,-73.95"/>
<polygon fill="#63b8ff" stroke="#63b8ff" points="369.99,-70.45 359.7,-72.97 369.32,-77.42 369.99,-70.45"/>
</a>
</g>
</g>
<!-- Node9 -->
<g id="Node000009" class="node">
<title>Node9</title>
<g id="a_Node000009"><a xlink:title=" ">
<polygon fill="#e0e0e0" stroke="#999999" points="438,-74 378,-74 378,-55 438,-55 438,-74"/>
<text text-anchor="middle" x="408" y="-62" font-family="Ubuntu Mono" font-size="10.00">iostream</text>
</a>
</g>
</g>
<!-- Node2&#45;&gt;Node9 -->
<g id="edge8_Node000002_Node000009" class="edge">
<title>Node2&#45;&gt;Node9</title>
<g id="a_edge8_Node000002_Node000009"><a xlink:title=" ">
<path fill="none" stroke="#63b8ff" d="M1500.11,-123.3C1350.26,-119.7 679.12,-102.32 448.15,-73.87"/>
<polygon fill="#63b8ff" stroke="#63b8ff" points="448.51,-70.39 438.15,-72.6 447.62,-77.33 448.51,-70.39"/>
</a>
</g>
</g>
<!-- Node10 -->
<g id="Node000010" class="node">
<title>Node10</title>
<g id="a_Node000010"><a xlink:title=" ">
<polygon fill="#e0e0e0" stroke="#999999" points="512,-74 456,-74 456,-55 512,-55 512,-74"/>
<text text-anchor="middle" x="484" y="-62" font-family="Ubuntu Mono" font-size="10.00">sstream</text>
</a>
</g>
</g>
<!-- Node2&#45;&gt;Node10 -->
<g id="edge9_Node000002_Node000010" class="edge">
<title>Node2&#45;&gt;Node10</title>
<g id="a_edge9_Node000002_Node000010"><a xlink:title=" ">
<path fill="none" stroke="#63b8ff" d="M1500.11,-124.43C1378.99,-125.8 913,-127.17 522.27,-73.9"/>
<polygon fill="#63b8ff" stroke="#63b8ff" points="522.57,-70.41 512.19,-72.51 521.62,-77.35 522.57,-70.41"/>
</a>
</g>
</g>
<!-- Node11 -->
<g id="Node000011" class="node">
<title>Node11</title>
<g id="a_Node000011"><a xlink:title=" ">
<polygon fill="#e0e0e0" stroke="#999999" points="1360.5,-19 1303.5,-19 1303.5,0 1360.5,0 1360.5,-19"/>
<text text-anchor="middle" x="1332" y="-7" font-family="Ubuntu Mono" font-size="10.00">typeinfo</text>
</a>
</g>
</g>
<!-- Node2&#45;&gt;Node11 -->
<g id="edge10_Node000002_Node000011" class="edge">
<title>Node2&#45;&gt;Node11</title>
<g id="a_edge10_Node000002_Node000011"><a xlink:title=" ">
<path fill="none" stroke="#63b8ff" d="M1549.8,-115.49C1555.57,-113.35 1561.95,-111.29 1568,-110 1685.11,-85.04 2186.19,-142.07 2104,-55 2078.6,-28.1 1524.43,-14.53 1371.04,-11.28"/>
<polygon fill="#63b8ff" stroke="#63b8ff" points="1370.77,-7.77 1360.7,-11.06 1370.63,-14.77 1370.77,-7.77"/>
</a>
</g>
</g>
<!-- Node12 -->
<g id="Node000012" class="node">
<title>Node12</title>
<g id="a_Node000012"><a xlink:title=" ">
<polygon fill="#e0e0e0" stroke="#999999" points="660,-74 608,-74 608,-55 660,-55 660,-74"/>
<text text-anchor="middle" x="634" y="-62" font-family="Ubuntu Mono" font-size="10.00">cassert</text>
</a>
</g>
</g>
<!-- Node2&#45;&gt;Node12 -->
<g id="edge11_Node000002_Node000012" class="edge">
<title>Node2&#45;&gt;Node12</title>
<g id="a_edge11_Node000002_Node000012"><a xlink:title=" ">
<path fill="none" stroke="#63b8ff" d="M1500.44,-124.21C1391.25,-124.56 1000.34,-122.28 670.5,-73.94"/>
<polygon fill="#63b8ff" stroke="#63b8ff" points="670.68,-70.42 660.27,-72.42 669.65,-77.35 670.68,-70.42"/>
</a>
</g>
</g>
<!-- Node13 -->
<g id="Node000013" class="node">
<title>Node13</title>
<g id="a_Node000013"><a xlink:href="doubleEq_8h.html" target="_top" xlink:title=" ">
<polygon fill="white" stroke="#666666" points="749.5,-74 678.5,-74 678.5,-55 749.5,-55 749.5,-74"/>
<text text-anchor="middle" x="714" y="-62" font-family="Ubuntu Mono" font-size="10.00">doubleEq.h</text>
</a>
</g>
</g>
<!-- Node2&#45;&gt;Node13 -->
<g id="edge12_Node000002_Node000013" class="edge">
<title>Node2&#45;&gt;Node13</title>
<g id="a_edge12_Node000002_Node000013"><a xlink:title=" ">
<path fill="none" stroke="#63b8ff" d="M1500.42,-123.43C1398.67,-121.17 1053.61,-111.19 759.94,-74.1"/>
<polygon fill="#63b8ff" stroke="#63b8ff" points="760.32,-70.62 749.96,-72.83 759.44,-77.57 760.32,-70.62"/>
</a>
</g>
</g>
<!-- Node14 -->
<g id="Node000014" class="node">
<title>Node14</title>
<g id="a_Node000014"><a xlink:href="Id_8h.html" target="_top" xlink:title=" ">
<polygon fill="white" stroke="#666666" points="802.5,-74 767.5,-74 767.5,-55 802.5,-55 802.5,-74"/>
<text text-anchor="middle" x="785" y="-62" font-family="Ubuntu Mono" font-size="10.00">Id.h</text>
</a>
</g>
</g>
<!-- Node2&#45;&gt;Node14 -->
<g id="edge13_Node000002_Node000014" class="edge">
<title>Node2&#45;&gt;Node14</title>
<g id="a_edge13_Node000002_Node000014"><a xlink:title=" ">
<path fill="none" stroke="#63b8ff" d="M1500.21,-124.54C1402.4,-125.75 1082.37,-125.41 812.72,-73.88"/>
<polygon fill="#63b8ff" stroke="#63b8ff" points="813.23,-70.41 802.75,-71.94 811.9,-77.28 813.23,-70.41"/>
</a>
</g>
</g>
<!-- Node15 -->
<g id="Node000015" class="node">
<title>Node15</title>
<g id="a_Node000015"><a xlink:href="ObjId_8h.html" target="_top" xlink:title=" ">
<polygon fill="white" stroke="#666666" points="871.5,-74 820.5,-74 820.5,-55 871.5,-55 871.5,-74"/>
<text text-anchor="middle" x="846" y="-62" font-family="Ubuntu Mono" font-size="10.00">ObjId.h</text>
</a>
</g>
</g>
<!-- Node2&#45;&gt;Node15 -->
<g id="edge14_Node000002_Node000015" class="edge">
<title>Node2&#45;&gt;Node15</title>
<g id="a_edge14_Node000002_Node000015"><a xlink:title=" ">
<path fill="none" stroke="#63b8ff" d="M1500.31,-123.49C1409.13,-121.55 1125.04,-112.73 881.62,-74"/>
<polygon fill="#63b8ff" stroke="#63b8ff" points="881.95,-70.51 871.52,-72.37 880.84,-77.42 881.95,-70.51"/>
</a>
</g>
</g>
<!-- Node16 -->
<g id="Node000016" class="node">
<title>Node16</title>
<g id="a_Node000016"><a xlink:href="Cinfo_8h.html" target="_top" xlink:title=" ">
<polygon fill="white" stroke="#666666" points="940.5,-74 889.5,-74 889.5,-55 940.5,-55 940.5,-74"/>
<text text-anchor="middle" x="915" y="-62" font-family="Ubuntu Mono" font-size="10.00">Cinfo.h</text>
</a>
</g>
</g>
<!-- Node2&#45;&gt;Node16 -->
<g id="edge15_Node000002_Node000016" class="edge">
<title>Node2&#45;&gt;Node16</title>
<g id="a_edge15_Node000002_Node000016"><a xlink:title=" ">
<path fill="none" stroke="#63b8ff" d="M1500.23,-123.03C1415.64,-119.95 1166.65,-108.53 950.47,-73.79"/>
<polygon fill="#63b8ff" stroke="#63b8ff" points="950.95,-70.33 940.52,-72.17 949.83,-77.23 950.95,-70.33"/>
</a>
</g>
</g>
<!-- Node17 -->
<g id="Node000017" class="node">
<title>Node17</title>
<g id="a_Node000017"><a xlink:href="basecode_2Finfo_8h.html" target="_top" xlink:title=" ">
<polygon fill="white" stroke="#666666" points="1009,-74 959,-74 959,-55 1009,-55 1009,-74"/>
<text text-anchor="middle" x="984" y="-62" font-family="Ubuntu Mono" font-size="10.00">Finfo.h</text>
</a>
</g>
</g>
<!-- Node2&#45;&gt;Node17 -->
<g id="edge16_Node000002_Node000017" class="edge">
<title>Node2&#45;&gt;Node17</title>
<g id="a_edge16_Node000002_Node000017"><a xlink:title=" ">
<path fill="none" stroke="#63b8ff" d="M1500.36,-122.64C1422.81,-118.75 1207.48,-105.88 1019.24,-73.96"/>
<polygon fill="#63b8ff" stroke="#63b8ff" points="1019.61,-70.47 1009.16,-72.23 1018.43,-77.37 1019.61,-70.47"/>
</a>
</g>
</g>
<!-- Node18 -->
<g id="Node000018" class="node">
<title>Node18</title>
<g id="a_Node000018"><a xlink:href="DestFinfo_8h.html" target="_top" xlink:title=" ">
<polygon fill="white" stroke="#666666" points="1099,-74 1027,-74 1027,-55 1099,-55 1099,-74"/>
<text text-anchor="middle" x="1063" y="-62" font-family="Ubuntu Mono" font-size="10.00">DestFinfo.h</text>
</a>
</g>
</g>
<!-- Node2&#45;&gt;Node18 -->
<g id="edge17_Node000002_Node000018" class="edge">
<title>Node2&#45;&gt;Node18</title>
<g id="a_edge17_Node000002_Node000018"><a xlink:title=" ">
<path fill="none" stroke="#63b8ff" d="M1500.49,-121.21C1433.05,-114.68 1262.3,-97.3 1109.36,-74.12"/>
<polygon fill="#63b8ff" stroke="#63b8ff" points="1109.73,-70.63 1099.31,-72.58 1108.67,-77.55 1109.73,-70.63"/>
</a>
</g>
</g>
<!-- Node19 -->
<g id="Node000019" class="node">
<title>Node19</title>
<g id="a_Node000019"><a xlink:href="ProcInfo_8h.html" target="_top" xlink:title=" ">
<polygon fill="white" stroke="#666666" points="1182.5,-74 1117.5,-74 1117.5,-55 1182.5,-55 1182.5,-74"/>
<text text-anchor="middle" x="1150" y="-62" font-family="Ubuntu Mono" font-size="10.00">ProcInfo.h</text>
</a>
</g>
</g>
<!-- Node2&#45;&gt;Node19 -->
<g id="edge18_Node000002_Node000019" class="edge">
<title>Node2&#45;&gt;Node19</title>
<g id="a_edge18_Node000002_Node000019"><a xlink:title=" ">
<path fill="none" stroke="#63b8ff" d="M1500.43,-120.23C1443.04,-112.77 1312.34,-95.19 1192.7,-74.22"/>
<polygon fill="#63b8ff" stroke="#63b8ff" points="1193.1,-70.74 1182.64,-72.44 1191.88,-77.63 1193.1,-70.74"/>
</a>
</g>
</g>
<!-- Node20 -->
<g id="Node000020" class="node">
<title>Node20</title>
<g id="a_Node000020"><a xlink:href="MsgFuncBinding_8h.html" target="_top" xlink:title=" ">
<polygon fill="white" stroke="#666666" points="1305.5,-74 1200.5,-74 1200.5,-55 1305.5,-55 1305.5,-74"/>
<text text-anchor="middle" x="1253" y="-62" font-family="Ubuntu Mono" font-size="10.00">MsgFuncBinding.h</text>
</a>
</g>
</g>
<!-- Node2&#45;&gt;Node20 -->
<g id="edge19_Node000002_Node000020" class="edge">
<title>Node2&#45;&gt;Node20</title>
<g id="a_edge19_Node000002_Node000020"><a xlink:title=" ">
<path fill="none" stroke="#63b8ff" d="M1500.36,-117.74C1453.35,-107.81 1361.16,-88.34 1303.57,-76.18"/>
<polygon fill="#63b8ff" stroke="#63b8ff" points="1304.09,-72.71 1293.58,-74.07 1302.65,-79.56 1304.09,-72.71"/>
</a>
</g>
</g>
<!-- Node21 -->
<g id="Node000021" class="node">
<title>Node21</title>
<g id="a_Node000021"><a xlink:href="Msg_8h.html" target="_top" xlink:title=" ">
<polygon fill="white" stroke="#666666" points="1402.5,-74 1323.5,-74 1323.5,-55 1402.5,-55 1402.5,-74"/>
<text text-anchor="middle" x="1363" y="-62" font-family="Ubuntu Mono" font-size="10.00">../msg/Msg.h</text>
</a>
</g>
</g>
<!-- Node2&#45;&gt;Node21 -->
<g id="edge20_Node000002_Node000021" class="edge">
<title>Node2&#45;&gt;Node21</title>
<g id="a_edge20_Node000002_Node000021"><a xlink:title=" ">
<path fill="none" stroke="#63b8ff" d="M1505.72,-115.49C1477.02,-105.44 1429.11,-88.66 1396.8,-77.34"/>
<polygon fill="#63b8ff" stroke="#63b8ff" points="1397.91,-74.02 1387.31,-74.02 1395.59,-80.63 1397.91,-74.02"/>
</a>
</g>
</g>
<!-- Node22 -->
<g id="Node000022" class="node">
<title>Node22</title>
<g id="a_Node000022"><a xlink:href="Dinfo_8h.html" target="_top" xlink:title=" ">
<polygon fill="white" stroke="#666666" points="1473,-74 1421,-74 1421,-55 1473,-55 1473,-74"/>
<text text-anchor="middle" x="1447" y="-62" font-family="Ubuntu Mono" font-size="10.00">Dinfo.h</text>
</a>
</g>
</g>
<!-- Node2&#45;&gt;Node22 -->
<g id="edge21_Node000002_Node000022" class="edge">
<title>Node2&#45;&gt;Node22</title>
<g id="a_edge21_Node000002_Node000022"><a xlink:title=" ">
<path fill="none" stroke="#63b8ff" d="M1517.75,-115.37C1504.64,-106.12 1483.58,-91.28 1467.85,-80.19"/>
<polygon fill="#63b8ff" stroke="#63b8ff" points="1469.49,-77.07 1459.3,-74.17 1465.45,-82.79 1469.49,-77.07"/>
</a>
</g>
</g>
<!-- Node23 -->
<g id="Node000023" class="node">
<title>Node23</title>
<g id="a_Node000023"><a xlink:href="MsgDigest_8h.html" target="_top" xlink:title=" ">
<polygon fill="white" stroke="#666666" points="1568.5,-74 1491.5,-74 1491.5,-55 1568.5,-55 1568.5,-74"/>
<text text-anchor="middle" x="1530" y="-62" font-family="Ubuntu Mono" font-size="10.00">MsgDigest.h</text>
</a>
</g>
</g>
<!-- Node2&#45;&gt;Node23 -->
<g id="edge22_Node000002_Node000023" class="edge">
<title>Node2&#45;&gt;Node23</title>
<g id="a_edge22_Node000002_Node000023"><a xlink:title=" ">
<path fill="none" stroke="#63b8ff" d="M1530,-115.37C1530,-107.25 1530,-94.81 1530,-84.39"/>
<polygon fill="#63b8ff" stroke="#63b8ff" points="1533.5,-84.17 1530,-74.17 1526.5,-84.17 1533.5,-84.17"/>
</a>
</g>
</g>
<!-- Node24 -->
<g id="Node000024" class="node">
<title>Node24</title>
<g id="a_Node000024"><a xlink:href="Element_8h.html" target="_top" xlink:title=" ">
<polygon fill="white" stroke="#666666" points="1653,-74 1587,-74 1587,-55 1653,-55 1653,-74"/>
<text text-anchor="middle" x="1620" y="-62" font-family="Ubuntu Mono" font-size="10.00">Element.h</text>
</a>
</g>
</g>
<!-- Node2&#45;&gt;Node24 -->
<g id="edge23_Node000002_Node000024" class="edge">
<title>Node2&#45;&gt;Node24</title>
<g id="a_edge23_Node000002_Node000024"><a xlink:title=" ">
<path fill="none" stroke="#63b8ff" d="M1543.28,-115.37C1557.64,-106.04 1580.76,-91.01 1597.87,-79.88"/>
<polygon fill="#63b8ff" stroke="#63b8ff" points="1600.19,-82.55 1606.67,-74.17 1596.37,-76.68 1600.19,-82.55"/>
</a>
</g>
</g>
<!-- Node25 -->
<g id="Node000025" class="node">
<title>Node25</title>
<g id="a_Node000025"><a xlink:href="DataElement_8h.html" target="_top" xlink:title=" ">
<polygon fill="white" stroke="#666666" points="1760.5,-74 1671.5,-74 1671.5,-55 1760.5,-55 1760.5,-74"/>
<text text-anchor="middle" x="1716" y="-62" font-family="Ubuntu Mono" font-size="10.00">DataElement.h</text>
</a>
</g>
</g>
<!-- Node2&#45;&gt;Node25 -->
<g id="edge24_Node000002_Node000025" class="edge">
<title>Node2&#45;&gt;Node25</title>
<g id="a_edge24_Node000002_Node000025"><a xlink:title=" ">
<path fill="none" stroke="#63b8ff" d="M1552.42,-115.48C1557.52,-113.62 1562.93,-111.69 1568,-110 1604.35,-97.85 1646.22,-85.4 1676.13,-76.78"/>
<polygon fill="#63b8ff" stroke="#63b8ff" points="1677.14,-80.13 1685.78,-74 1675.21,-73.4 1677.14,-80.13"/>
</a>
</g>
</g>
<!-- Node26 -->
<g id="Node000026" class="node">
<title>Node26</title>
<g id="a_Node000026"><a xlink:href="GlobalDataElement_8h.html" target="_top" xlink:title=" ">
<polygon fill="white" stroke="#666666" points="1899.5,-74 1778.5,-74 1778.5,-55 1899.5,-55 1899.5,-74"/>
<text text-anchor="middle" x="1839" y="-62" font-family="Ubuntu Mono" font-size="10.00">GlobalDataElement.h</text>
</a>
</g>
</g>
<!-- Node2&#45;&gt;Node26 -->
<g id="edge25_Node000002_Node000026" class="edge">
<title>Node2&#45;&gt;Node26</title>
<g id="a_edge25_Node000002_Node000026"><a xlink:title=" ">
<path fill="none" stroke="#63b8ff" d="M1551.08,-115.43C1556.52,-113.44 1562.43,-111.47 1568,-110 1604.83,-100.28 1701.28,-85.36 1768.56,-75.51"/>
<polygon fill="#63b8ff" stroke="#63b8ff" points="1769.29,-78.94 1778.68,-74.04 1768.28,-72.02 1769.29,-78.94"/>
</a>
</g>
</g>
<!-- Node27 -->
<g id="Node000027" class="node">
<title>Node27</title>
<g id="a_Node000027"><a xlink:href="LocalDataElement_8h.html" target="_top" xlink:title=" ">
<polygon fill="white" stroke="#666666" points="2032.5,-74 1917.5,-74 1917.5,-55 2032.5,-55 2032.5,-74"/>
<text text-anchor="middle" x="1975" y="-62" font-family="Ubuntu Mono" font-size="10.00">LocalDataElement.h</text>
</a>
</g>
</g>
<!-- Node2&#45;&gt;Node27 -->
<g id="edge26_Node000002_Node000027" class="edge">
<title>Node2&#45;&gt;Node27</title>
<g id="a_edge26_Node000002_Node000027"><a xlink:title=" ">
<path fill="none" stroke="#63b8ff" d="M1550.23,-115.5C1555.89,-113.4 1562.11,-111.37 1568,-110 1712.8,-76.21 1755.25,-90.9 1907.1,-74.06"/>
<polygon fill="#63b8ff" stroke="#63b8ff" points="1907.73,-77.51 1917.27,-72.9 1906.93,-70.55 1907.73,-77.51"/>
</a>
</g>
</g>
<!-- Node28 -->
<g id="Node000028" class="node">
<title>Node28</title>
<g id="a_Node000028"><a xlink:href="Eref_8h.html" target="_top" xlink:title=" ">
<polygon fill="white" stroke="#666666" points="2095,-74 2051,-74 2051,-55 2095,-55 2095,-74"/>
<text text-anchor="middle" x="2073" y="-62" font-family="Ubuntu Mono" font-size="10.00">Eref.h</text>
</a>
</g>
</g>
<!-- Node2&#45;&gt;Node28 -->
<g id="edge27_Node000002_Node000028" class="edge">
<title>Node2&#45;&gt;Node28</title>
<g id="a_edge27_Node000002_Node000028"><a xlink:title=" ">
<path fill="none" stroke="#63b8ff" d="M1550.2,-115.38C1555.87,-113.29 1562.09,-111.29 1568,-110 1770.78,-65.83 1831.25,-107.85 2040.65,-73.66"/>
<polygon fill="#63b8ff" stroke="#63b8ff" points="2041.45,-77.07 2050.74,-71.97 2040.29,-70.17 2041.45,-77.07"/>
</a>
</g>
</g>
<!-- Node29 -->
<g id="Node000029" class="node">
<title>Node29</title>
<g id="a_Node000029"><a xlink:href="Conv_8h.html" target="_top" xlink:title=" ">
<polygon fill="white" stroke="#666666" points="2201,-74 2151,-74 2151,-55 2201,-55 2201,-74"/>
<text text-anchor="middle" x="2176" y="-62" font-family="Ubuntu Mono" font-size="10.00">Conv.h</text>
</a>
</g>
</g>
<!-- Node2&#45;&gt;Node29 -->
<g id="edge28_Node000002_Node000029" class="edge">
<title>Node2&#45;&gt;Node29</title>
<g id="a_edge28_Node000002_Node000029"><a xlink:title=" ">
<path fill="none" stroke="#63b8ff" d="M1549.8,-115.48C1555.56,-113.33 1561.95,-111.28 1568,-110 1815.93,-57.65 1886.05,-109.08 2137,-74 2138.27,-73.82 2139.57,-73.62 2140.87,-73.41"/>
<polygon fill="#63b8ff" stroke="#63b8ff" points="2141.73,-76.81 2150.93,-71.55 2140.46,-69.93 2141.73,-76.81"/>
</a>
</g>
</g>
<!-- Node31 -->
<g id="Node000031" class="node">
<title>Node31</title>
<g id="a_Node000031"><a xlink:href="SrcFinfo_8h.html" target="_top" xlink:title=" ">
<polygon fill="white" stroke="#666666" points="2351.5,-19 2286.5,-19 2286.5,0 2351.5,0 2351.5,-19"/>
<text text-anchor="middle" x="2319" y="-7" font-family="Ubuntu Mono" font-size="10.00">SrcFinfo.h</text>
</a>
</g>
</g>
<!-- Node2&#45;&gt;Node31 -->
<g id="edge30_Node000002_Node000031" class="edge">
<title>Node2&#45;&gt;Node31</title>
<g id="a_edge30_Node000002_Node000031"><a xlink:title=" ">
<path fill="none" stroke="#63b8ff" d="M1549.79,-115.45C1555.56,-113.3 1561.94,-111.26 1568,-110 1847.83,-51.96 1936.3,-156.2 2210,-74 2219.23,-71.23 2267.26,-42.27 2296.4,-24.43"/>
<polygon fill="#63b8ff" stroke="#63b8ff" points="2298.43,-27.29 2305.12,-19.07 2294.77,-21.32 2298.43,-27.29"/>
</a>
</g>
</g>
<!-- Node32 -->
<g id="Node000032" class="node">
<title>Node32</title>
<g id="a_Node000032"><a xlink:href="OpFuncBase_8h.html" target="_top" xlink:title=" ">
<polygon fill="white" stroke="#666666" points="2429,-74 2343,-74 2343,-55 2429,-55 2429,-74"/>
<text text-anchor="middle" x="2386" y="-62" font-family="Ubuntu Mono" font-size="10.00">OpFuncBase.h</text>
</a>
</g>
</g>
<!-- Node2&#45;&gt;Node32 -->
<g id="edge31_Node000002_Node000032" class="edge">
<title>Node2&#45;&gt;Node32</title>
<g id="a_edge31_Node000002_Node000032"><a xlink:title=" ">
<path fill="none" stroke="#63b8ff" d="M1549.78,-115.41C1555.55,-113.27 1561.94,-111.23 1568,-110 1898.77,-42.96 1993.2,-108.25 2332.8,-73.98"/>
<polygon fill="#63b8ff" stroke="#63b8ff" points="2333.33,-77.44 2342.92,-72.93 2332.61,-70.48 2333.33,-77.44"/>
</a>
</g>
</g>
<!-- Node33 -->
<g id="Node000033" class="node">
<title>Node33</title>
<g id="a_Node000033"><a xlink:href="HopFunc_8h.html" target="_top" xlink:title=" ">
<polygon fill="white" stroke="#666666" points="2325,-74 2257,-74 2257,-55 2325,-55 2325,-74"/>
<text text-anchor="middle" x="2291" y="-62" font-family="Ubuntu Mono" font-size="10.00">HopFunc.h</text>
</a>
</g>
</g>
<!-- Node2&#45;&gt;Node33 -->
<g id="edge33_Node000002_Node000033" class="edge">
<title>Node2&#45;&gt;Node33</title>
<g id="a_edge33_Node000002_Node000033"><a xlink:title=" ">
<path fill="none" stroke="#63b8ff" d="M1549.79,-115.44C1555.56,-113.29 1561.94,-111.25 1568,-110 1862.25,-49.39 1944.53,-108.26 2243,-74 2244.28,-73.85 2245.57,-73.69 2246.88,-73.52"/>
<polygon fill="#63b8ff" stroke="#63b8ff" points="2247.6,-76.96 2256.99,-72.05 2246.59,-70.03 2247.6,-76.96"/>
</a>
</g>
</g>
<!-- Node34 -->
<g id="Node000034" class="node">
<title>Node34</title>
<g id="a_Node000034"><a xlink:href="SetGet_8h.html" target="_top" xlink:title=" ">
<polygon fill="white" stroke="#666666" points="589.5,-74 530.5,-74 530.5,-55 589.5,-55 589.5,-74"/>
<text text-anchor="middle" x="560" y="-62" font-family="Ubuntu Mono" font-size="10.00">SetGet.h</text>
</a>
</g>
</g>
<!-- Node2&#45;&gt;Node34 -->
<g id="edge34_Node000002_Node000034" class="edge">
<title>Node2&#45;&gt;Node34</title>
<g id="a_edge34_Node000002_Node000034"><a xlink:title=" ">
<path fill="none" stroke="#63b8ff" d="M1500.49,-124.14C1385.91,-124.31 959.52,-121.62 599.81,-73.85"/>
<polygon fill="#63b8ff" stroke="#63b8ff" points="600.1,-70.36 589.72,-72.49 599.17,-77.29 600.1,-70.36"/>
</a>
</g>
</g>
<!-- Node35 -->
<g id="Node000035" class="node">
<title>Node35</title>
<g id="a_Node000035"><a xlink:href="OpFunc_8h.html" target="_top" xlink:title=" ">
<polygon fill="white" stroke="#666666" points="2509,-74 2447,-74 2447,-55 2509,-55 2509,-74"/>
<text text-anchor="middle" x="2478" y="-62" font-family="Ubuntu Mono" font-size="10.00">OpFunc.h</text>
</a>
</g>
</g>
<!-- Node2&#45;&gt;Node35 -->
<g id="edge36_Node000002_Node000035" class="edge">
<title>Node2&#45;&gt;Node35</title>
<g id="a_edge36_Node000002_Node000035"><a xlink:title=" ">
<path fill="none" stroke="#63b8ff" d="M1549.78,-115.39C1555.55,-113.25 1561.93,-111.21 1568,-110 1944.26,-34.84 2052.2,-120.9 2436.64,-73.93"/>
<polygon fill="#63b8ff" stroke="#63b8ff" points="2437.15,-77.39 2446.64,-72.68 2436.29,-70.45 2437.15,-77.39"/>
</a>
</g>
</g>
<!-- Node36 -->
<g id="Node000036" class="node">
<title>Node36</title>
<g id="a_Node000036"><a xlink:href="EpFunc_8h.html" target="_top" xlink:title=" ">
<polygon fill="white" stroke="#666666" points="2587,-74 2527,-74 2527,-55 2587,-55 2587,-74"/>
<text text-anchor="middle" x="2557" y="-62" font-family="Ubuntu Mono" font-size="10.00">EpFunc.h</text>
</a>
</g>
</g>
<!-- Node2&#45;&gt;Node36 -->
<g id="edge37_Node000002_Node000036" class="edge">
<title>Node2&#45;&gt;Node36</title>
<g id="a_edge37_Node000002_Node000036"><a xlink:title=" ">
<path fill="none" stroke="#63b8ff" d="M1549.77,-115.38C1555.54,-113.23 1561.93,-111.2 1568,-110 1979.24,-28.59 2097,-125.66 2516.88,-73.87"/>
<polygon fill="#63b8ff" stroke="#63b8ff" points="2517.37,-77.34 2526.86,-72.62 2516.5,-70.39 2517.37,-77.34"/>
</a>
</g>
</g>
<!-- Node37 -->
<g id="Node000037" class="node">
<title>Node37</title>
<g id="a_Node000037"><a xlink:href="ProcOpFunc_8h.html" target="_top" xlink:title=" ">
<polygon fill="white" stroke="#666666" points="2688.5,-74 2605.5,-74 2605.5,-55 2688.5,-55 2688.5,-74"/>
<text text-anchor="middle" x="2647" y="-62" font-family="Ubuntu Mono" font-size="10.00">ProcOpFunc.h</text>
</a>
</g>
</g>
<!-- Node2&#45;&gt;Node37 -->
<g id="edge38_Node000002_Node000037" class="edge">
<title>Node2&#45;&gt;Node37</title>
<g id="a_edge38_Node000002_Node000037"><a xlink:title=" ">
<path fill="none" stroke="#63b8ff" d="M1549.77,-115.37C1555.54,-113.22 1561.93,-111.19 1568,-110 1789.12,-66.56 2352.31,-95.98 2595.05,-73.89"/>
<polygon fill="#63b8ff" stroke="#63b8ff" points="2595.69,-77.34 2605.31,-72.9 2595.02,-70.37 2595.69,-77.34"/>
</a>
</g>
</g>
<!-- Node38 -->
<g id="Node000038" class="node">
<title>Node38</title>
<g id="a_Node000038"><a xlink:href="ValueFinfo_8h.html" target="_top" xlink:title=" ">
<polygon fill="white" stroke="#666666" points="2783.5,-74 2706.5,-74 2706.5,-55 2783.5,-55 2783.5,-74"/>
<text text-anchor="middle" x="2745" y="-62" font-family="Ubuntu Mono" font-size="10.00">ValueFinfo.h</text>
</a>
</g>
</g>
<!-- Node2&#45;&gt;Node38 -->
<g id="edge39_Node000002_Node000038" class="edge">
<title>Node2&#45;&gt;Node38</title>
<g id="a_edge39_Node000002_Node000038"><a xlink:title=" ">
<path fill="none" stroke="#63b8ff" d="M1549.77,-115.35C1555.54,-113.21 1561.93,-111.18 1568,-110 1811.47,-62.56 2432.13,-99.46 2696.32,-73.97"/>
<polygon fill="#63b8ff" stroke="#63b8ff" points="2696.74,-77.45 2706.34,-72.96 2696.03,-70.48 2696.74,-77.45"/>
</a>
</g>
</g>
<!-- Node39 -->
<g id="Node000039" class="node">
<title>Node39</title>
<g id="a_Node000039"><a xlink:href="LookupValueFinfo_8h.html" target="_top" xlink:title=" ">
<polygon fill="white" stroke="#666666" points="2912.5,-74 2801.5,-74 2801.5,-55 2912.5,-55 2912.5,-74"/>
<text text-anchor="middle" x="2857" y="-62" font-family="Ubuntu Mono" font-size="10.00">LookupValueFinfo.h</text>
</a>
</g>
</g>
<!-- Node2&#45;&gt;Node39 -->
<g id="edge40_Node000002_Node000039" class="edge">
<title>Node2&#45;&gt;Node39</title>
<g id="a_edge40_Node000002_Node000039"><a xlink:title=" ">
<path fill="none" stroke="#63b8ff" d="M1549.38,-115.49C1555.25,-113.29 1561.79,-111.2 1568,-110 1832.24,-58.86 2505.52,-95.09 2791.19,-74.03"/>
<polygon fill="#63b8ff" stroke="#63b8ff" points="2791.49,-77.52 2801.19,-73.26 2790.95,-70.54 2791.49,-77.52"/>
</a>
</g>
</g>
<!-- Node40 -->
<g id="Node000040" class="node">
<title>Node40</title>
<g id="a_Node000040"><a xlink:href="SharedFinfo_8h.html" target="_top" xlink:title=" ">
<polygon fill="white" stroke="#666666" points="3013.5,-74 2930.5,-74 2930.5,-55 3013.5,-55 3013.5,-74"/>
<text text-anchor="middle" x="2972" y="-62" font-family="Ubuntu Mono" font-size="10.00">SharedFinfo.h</text>
</a>
</g>
</g>
<!-- Node2&#45;&gt;Node40 -->
<g id="edge41_Node000002_Node000040" class="edge">
<title>Node2&#45;&gt;Node40</title>
<g id="a_edge41_Node000002_Node000040"><a xlink:title=" ">
<path fill="none" stroke="#63b8ff" d="M1549.37,-115.48C1555.24,-113.28 1561.79,-111.19 1568,-110 1860.42,-53.83 2606.18,-102.23 2920.24,-73.99"/>
<polygon fill="#63b8ff" stroke="#63b8ff" points="2920.69,-77.46 2930.32,-73.04 2920.03,-70.49 2920.69,-77.46"/>
</a>
</g>
</g>
<!-- Node41 -->
<g id="Node000041" class="node">
<title>Node41</title>
<g id="a_Node000041"><a xlink:href="FieldElementFinfo_8h.html" target="_top" xlink:title=" ">
<polygon fill="white" stroke="#666666" points="3144.5,-74 3031.5,-74 3031.5,-55 3144.5,-55 3144.5,-74"/>
<text text-anchor="middle" x="3088" y="-62" font-family="Ubuntu Mono" font-size="10.00">FieldElementFinfo.h</text>
</a>
</g>
</g>
<!-- Node2&#45;&gt;Node41 -->
<g id="edge42_Node000002_Node000041" class="edge">
<title>Node2&#45;&gt;Node41</title>
<g id="a_edge42_Node000002_Node000041"><a xlink:title=" ">
<path fill="none" stroke="#63b8ff" d="M1549.37,-115.47C1555.24,-113.27 1561.78,-111.19 1568,-110 1882.42,-49.9 2683.88,-98 3020.99,-74.04"/>
<polygon fill="#63b8ff" stroke="#63b8ff" points="3021.6,-77.5 3031.32,-73.27 3021.08,-70.52 3021.6,-77.5"/>
</a>
</g>
</g>
<!-- Node42 -->
<g id="Node000042" class="node">
<title>Node42</title>
<g id="a_Node000042"><a xlink:href="FieldElement_8h.html" target="_top" xlink:title=" ">
<polygon fill="white" stroke="#666666" points="3251.5,-74 3162.5,-74 3162.5,-55 3251.5,-55 3251.5,-74"/>
<text text-anchor="middle" x="3207" y="-62" font-family="Ubuntu Mono" font-size="10.00">FieldElement.h</text>
</a>
</g>
</g>
<!-- Node2&#45;&gt;Node42 -->
<g id="edge43_Node000002_Node000042" class="edge">
<title>Node2&#45;&gt;Node42</title>
<g id="a_edge43_Node000002_Node000042"><a xlink:title=" ">
<path fill="none" stroke="#63b8ff" d="M1549.37,-115.46C1555.24,-113.26 1561.78,-111.18 1568,-110 1911.12,-44.78 2786.48,-104.85 3152.1,-74.01"/>
<polygon fill="#63b8ff" stroke="#63b8ff" points="3152.58,-77.48 3162.23,-73.12 3151.97,-70.51 3152.58,-77.48"/>
</a>
</g>
</g>
<!-- Node43 -->
<g id="Node000043" class="node">
<title>Node43</title>
<g id="a_Node000043"><a xlink:href="Neutral_8h.html" target="_top" xlink:title=" ">
<polygon fill="white" stroke="#666666" points="3366.5,-74 3269.5,-74 3269.5,-55 3366.5,-55 3366.5,-74"/>
<text text-anchor="middle" x="3318" y="-62" font-family="Ubuntu Mono" font-size="10.00">../shell/Neutral.h</text>
</a>
</g>
</g>
<!-- Node2&#45;&gt;Node43 -->
<g id="edge44_Node000002_Node000043" class="edge">
<title>Node2&#45;&gt;Node43</title>
<g id="a_edge44_Node000002_Node000043"><a xlink:title=" ">
<path fill="none" stroke="#63b8ff" d="M1549.37,-115.46C1555.24,-113.26 1561.78,-111.18 1568,-110 1934.49,-40.61 2869.42,-104.67 3259,-74.03"/>
<polygon fill="#63b8ff" stroke="#63b8ff" points="3259.55,-77.49 3269.23,-73.19 3258.98,-70.52 3259.55,-77.49"/>
</a>
</g>
</g>
<!-- Node30 -->
<g id="Node000030" class="node">
<title>Node30</title>
<g id="a_Node000030"><a xlink:title=" ">
<polygon fill="#e0e0e0" stroke="#999999" points="2201,-19 2151,-19 2151,0 2201,0 2201,-19"/>
<text text-anchor="middle" x="2176" y="-7" font-family="Ubuntu Mono" font-size="10.00">cstring</text>
</a>
</g>
</g>
<!-- Node29&#45;&gt;Node30 -->
<g id="edge29_Node000029_Node000030" class="edge">
<title>Node29&#45;&gt;Node30</title>
<g id="a_edge29_Node000029_Node000030"><a xlink:title=" ">
<path fill="none" stroke="#63b8ff" d="M2176,-54.75C2176,-47.8 2176,-37.85 2176,-29.13"/>
<polygon fill="#63b8ff" stroke="#63b8ff" points="2179.5,-29.09 2176,-19.09 2172.5,-29.09 2179.5,-29.09"/>
</a>
</g>
</g>
<!-- Node32&#45;&gt;Node31 -->
<g id="edge32_Node000032_Node000031" class="edge">
<title>Node32&#45;&gt;Node31</title>
<g id="a_edge32_Node000032_Node000031"><a xlink:title=" ">
<path fill="none" stroke="#63b8ff" d="M2375.24,-54.98C2365.23,-47.07 2350.11,-35.11 2338.07,-25.58"/>
<polygon fill="#63b8ff" stroke="#63b8ff" points="2339.97,-22.63 2329.96,-19.17 2335.63,-28.12 2339.97,-22.63"/>
</a>
</g>
</g>
<!-- Node34&#45;&gt;Node11 -->
<g id="edge35_Node000034_Node000011" class="edge">
<title>Node34&#45;&gt;Node11</title>
<g id="a_edge35_Node000034_Node000011"><a xlink:title=" ">
<path fill="none" stroke="#63b8ff" d="M589.73,-56.53C592.85,-55.94 595.98,-55.42 599,-55 862.38,-18.53 1183.1,-11.95 1292.94,-10.76"/>
<polygon fill="#63b8ff" stroke="#63b8ff" points="1293.24,-14.26 1303.2,-10.66 1293.17,-7.26 1293.24,-14.26"/>
</a>
</g>
</g>
<!-- Node44&#45;&gt;Node6 -->
<g id="edge46_Node000044_Node000006" class="edge">
<title>Node44&#45;&gt;Node6</title>
<g id="a_edge46_Node000044_Node000006"><a xlink:title=" ">
<path fill="none" stroke="#63b8ff" d="M688.21,-123.71C582.11,-122.39 298.47,-115.13 54.36,-73.89"/>
<polygon fill="#63b8ff" stroke="#63b8ff" points="54.68,-70.39 44.23,-72.15 53.5,-77.29 54.68,-70.39"/>
</a>
</g>
</g>
</g>
</svg>

<g id="navigator" transform="translate(0 0)" fill="#404254">
  <rect fill="#f2f5e9" fill-opacity="0.5" stroke="#606060" stroke-width=".5" x="0" y="0" width="60" height="60"/>
  <use id="zoomplus" xlink:href="#zoomPlus" x="17" y="9" onmousedown="handleZoom(evt,'in')"/>
  <use id="zoomminus" xlink:href="#zoomMin" x="42" y="9" onmousedown="handleZoom(evt,'out')"/>
  <use id="reset" xlink:href="#resetDef" x="30" y="36" onmousedown="handleReset()"/>
   <use id="arrowup" xlink:href="#arrowUp" x="0" y="0" onmousedown="handlePan(0,-1)"/>
  <use id="arrowright" xlink:href="#arrowRight" x="0" y="0" onmousedown="handlePan(1,0)"/>
  <use id="arrowdown" xlink:href="#arrowDown" x="0" y="0" onmousedown="handlePan(0,1)"/>
  <use id="arrowleft" xlink:href="#arrowLeft" x="0" y="0" onmousedown="handlePan(-1,0)"/>
</g>
<svg viewBox="0 0 15 15" width="100%" height="30px" preserveAspectRatio="xMaxYMin meet">
 <g id="arrow_out" transform="scale(0.3 0.3)">
  <a xlink:href="FieldElementFinfo_8cpp__incl_org.svg" target="_base">
   <rect id="button" ry="5" rx="5" y="6" x="6" height="38" width="38"
        fill="#f2f5e9" fill-opacity="0.5" stroke="#606060" stroke-width="1.0"/>
   <path id="arrow"
     d="M 11.500037,31.436501 C 11.940474,20.09759 22.043105,11.32322 32.158766,21.979434 L 37.068811,17.246167 C 37.068811,17.246167 37.088388,32 37.088388,32 L 22.160133,31.978069 C 22.160133,31.978069 26.997745,27.140456 26.997745,27.140456 C 18.528582,18.264221 13.291696,25.230495 11.500037,31.436501 z"
     style="fill:#404040;"/>
  </a>
 </g>
</svg>

<style type='text/css'>
<![CDATA[
[data-mouse-over-selected='false'] { opacity: 0.7; }
[data-mouse-over-selected='true']  { opacity: 1.0; }
]]>
</style>
<script type="application/ecmascript"><![CDATA[
document.addEventListener('DOMContentLoaded', (event) => {
  highlightEdges();
  highlightAdjacentNodes();
});
]]></script>
</svg>
