<?xml version="1.0" encoding="UTF-8" standalone="no"?>
<!DOCTYPE svg PUBLIC "-//W3C//DTD SVG 1.1//EN"
 "http://www.w3.org/Graphics/SVG/1.1/DTD/svg11.dtd">
<!-- Generated by graphviz version 2.43.0 (0)
 -->
<!-- Title: /home/runner/work/mooseneuro.github.io/mooseneuro.github.io/docs/moose&#45;core/ksolve/FuncTerm.h Pages: 1 -->
<svg width="2350pt" height="126pt"
 viewBox="0.00 0.00 2350.00 126.00" xmlns="http://www.w3.org/2000/svg" xmlns:xlink="http://www.w3.org/1999/xlink">
<g id="graph0" class="graph" transform="scale(1 1) rotate(0) translate(4 122)">
<title>/home/runner/work/mooseneuro.github.io/mooseneuro.github.io/docs/moose&#45;core/ksolve/FuncTerm.h</title>
<!-- Node1 -->
<g id="Node000001" class="node">
<title>Node1</title>
<g id="a_Node000001"><a xlink:title=" ">
<polygon fill="#999999" stroke="#666666" points="1280,-118 1062,-118 1062,-77 1280,-77 1280,-118"/>
<text text-anchor="start" x="1070" y="-106" font-family="Ubuntu Mono" font-size="10.00">/home/runner/work/mooseneuro.github.io</text>
<text text-anchor="start" x="1070" y="-95" font-family="Ubuntu Mono" font-size="10.00">/mooseneuro.github.io/docs/moose</text>
<text text-anchor="middle" x="1171" y="-84" font-family="Ubuntu Mono" font-size="10.00">&#45;core/ksolve/FuncTerm.h</text>
</a>
</g>
</g>
<!-- Node2 -->
<g id="Node000002" class="node">
<title>Node2</title>
<g id="a_Node000002"><a xlink:href="FuncTerm_8cpp.html" target="_top" xlink:title=" ">
<polygon fill="white" stroke="#666666" points="218,-41 0,-41 0,0 218,0 218,-41"/>
<text text-anchor="start" x="8" y="-29" font-family="Ubuntu Mono" font-size="10.00">/home/runner/work/mooseneuro.github.io</text>
<text text-anchor="start" x="8" y="-18" font-family="Ubuntu Mono" font-size="10.00">/mooseneuro.github.io/docs/moose</text>
<text text-anchor="middle" x="109" y="-7" font-family="Ubuntu Mono" font-size="10.00">&#45;core/ksolve/FuncTerm.cpp</text>
</a>
</g>
</g>
<!-- Node1&#45;&gt;Node2 -->
<g id="edge1_Node000001_Node000002" class="edge">
<title>Node1&#45;&gt;Node2</title>
<g id="a_edge1_Node000001_Node000002"><a xlink:title=" ">
<path fill="none" stroke="#63b8ff" d="M1051.4,-93.49C871.88,-88.07 522.29,-73.99 227,-41 224.11,-40.68 221.19,-40.33 218.23,-39.97"/>
<polygon fill="#63b8ff" stroke="#63b8ff" points="1051.56,-97 1061.66,-93.8 1051.77,-90 1051.56,-97"/>
</a>
</g>
</g>
<!-- Node3 -->
<g id="Node000003" class="node">
<title>Node3</title>
<g id="a_Node000003"><a xlink:href="Gsolve_8cpp.html" target="_top" xlink:title=" ">
<polygon fill="white" stroke="#666666" points="454,-41 236,-41 236,0 454,0 454,-41"/>
<text text-anchor="start" x="244" y="-29" font-family="Ubuntu Mono" font-size="10.00">/home/runner/work/mooseneuro.github.io</text>
<text text-anchor="start" x="244" y="-18" font-family="Ubuntu Mono" font-size="10.00">/mooseneuro.github.io/docs/moose</text>
<text text-anchor="middle" x="345" y="-7" font-family="Ubuntu Mono" font-size="10.00">&#45;core/ksolve/Gsolve.cpp</text>
</a>
</g>
</g>
<!-- Node1&#45;&gt;Node3 -->
<g id="edge2_Node000001_Node000003" class="edge">
<title>Node1&#45;&gt;Node3</title>
<g id="a_edge2_Node000001_Node000003"><a xlink:title=" ">
<path fill="none" stroke="#63b8ff" d="M1051.46,-90.26C910.45,-82.17 669.12,-66.06 463,-41 460.11,-40.65 457.19,-40.28 454.24,-39.89"/>
<polygon fill="#63b8ff" stroke="#63b8ff" points="1051.67,-93.77 1061.85,-90.85 1052.07,-86.79 1051.67,-93.77"/>
</a>
</g>
</g>
<!-- Node4 -->
<g id="Node000004" class="node">
<title>Node4</title>
<g id="a_Node000004"><a xlink:href="GssaVoxelPools_8cpp.html" target="_top" xlink:title=" ">
<polygon fill="white" stroke="#666666" points="690,-41 472,-41 472,0 690,0 690,-41"/>
<text text-anchor="start" x="480" y="-29" font-family="Ubuntu Mono" font-size="10.00">/home/runner/work/mooseneuro.github.io</text>
<text text-anchor="start" x="480" y="-18" font-family="Ubuntu Mono" font-size="10.00">/mooseneuro.github.io/docs/moose</text>
<text text-anchor="middle" x="581" y="-7" font-family="Ubuntu Mono" font-size="10.00">&#45;core/ksolve/GssaVoxelPools.cpp</text>
</a>
</g>
</g>
<!-- Node1&#45;&gt;Node4 -->
<g id="edge3_Node000001_Node000004" class="edge">
<title>Node1&#45;&gt;Node4</title>
<g id="a_edge3_Node000001_Node000004"><a xlink:title=" ">
<path fill="none" stroke="#63b8ff" d="M1051.62,-84.02C956.08,-73.66 818.74,-57.92 699,-41 696.12,-40.59 693.21,-40.17 690.26,-39.74"/>
<polygon fill="#63b8ff" stroke="#63b8ff" points="1051.29,-87.51 1061.61,-85.1 1052.04,-80.55 1051.29,-87.51"/>
</a>
</g>
</g>
<!-- Node5 -->
<g id="Node000005" class="node">
<title>Node5</title>
<g id="a_Node000005"><a xlink:href="KsolveBase_8cpp.html" target="_top" xlink:title=" ">
<polygon fill="white" stroke="#666666" points="926,-41 708,-41 708,0 926,0 926,-41"/>
<text text-anchor="start" x="716" y="-29" font-family="Ubuntu Mono" font-size="10.00">/home/runner/work/mooseneuro.github.io</text>
<text text-anchor="start" x="716" y="-18" font-family="Ubuntu Mono" font-size="10.00">/mooseneuro.github.io/docs/moose</text>
<text text-anchor="middle" x="817" y="-7" font-family="Ubuntu Mono" font-size="10.00">&#45;core/ksolve/KsolveBase.cpp</text>
</a>
</g>
</g>
<!-- Node1&#45;&gt;Node5 -->
<g id="edge4_Node000001_Node000005" class="edge">
<title>Node1&#45;&gt;Node5</title>
<g id="a_edge4_Node000001_Node000005"><a xlink:title=" ">
<path fill="none" stroke="#63b8ff" d="M1068.97,-74.88C1018.58,-64.21 958.24,-51.42 909.24,-41.04"/>
<polygon fill="#63b8ff" stroke="#63b8ff" points="1068.41,-78.34 1078.91,-76.99 1069.86,-71.49 1068.41,-78.34"/>
</a>
</g>
</g>
<!-- Node6 -->
<g id="Node000006" class="node">
<title>Node6</title>
<g id="a_Node000006"><a xlink:href="SteadyStateBoost_8cpp.html" target="_top" xlink:title=" ">
<polygon fill="white" stroke="#666666" points="1162,-41 944,-41 944,0 1162,0 1162,-41"/>
<text text-anchor="start" x="952" y="-29" font-family="Ubuntu Mono" font-size="10.00">/home/runner/work/mooseneuro.github.io</text>
<text text-anchor="start" x="952" y="-18" font-family="Ubuntu Mono" font-size="10.00">/mooseneuro.github.io/docs/moose</text>
<text text-anchor="middle" x="1053" y="-7" font-family="Ubuntu Mono" font-size="10.00">&#45;core/ksolve/SteadyStateBoost.cpp</text>
</a>
</g>
</g>
<!-- Node1&#45;&gt;Node6 -->
<g id="edge5_Node000001_Node000006" class="edge">
<title>Node1&#45;&gt;Node6</title>
<g id="a_edge5_Node000001_Node000006"><a xlink:title=" ">
<path fill="none" stroke="#63b8ff" d="M1131.46,-71.37C1115.98,-61.53 1098.49,-50.41 1083.95,-41.17"/>
<polygon fill="#63b8ff" stroke="#63b8ff" points="1129.99,-74.58 1140.3,-76.99 1133.74,-68.67 1129.99,-74.58"/>
</a>
</g>
</g>
<!-- Node7 -->
<g id="Node000007" class="node">
<title>Node7</title>
<g id="a_Node000007"><a xlink:href="SteadyStateGsl_8cpp.html" target="_top" xlink:title=" ">
<polygon fill="white" stroke="#666666" points="1398,-41 1180,-41 1180,0 1398,0 1398,-41"/>
<text text-anchor="start" x="1188" y="-29" font-family="Ubuntu Mono" font-size="10.00">/home/runner/work/mooseneuro.github.io</text>
<text text-anchor="start" x="1188" y="-18" font-family="Ubuntu Mono" font-size="10.00">/mooseneuro.github.io/docs/moose</text>
<text text-anchor="middle" x="1289" y="-7" font-family="Ubuntu Mono" font-size="10.00">&#45;core/ksolve/SteadyStateGsl.cpp</text>
</a>
</g>
</g>
<!-- Node1&#45;&gt;Node7 -->
<g id="edge6_Node000001_Node000007" class="edge">
<title>Node1&#45;&gt;Node7</title>
<g id="a_edge6_Node000001_Node000007"><a xlink:title=" ">
<path fill="none" stroke="#63b8ff" d="M1210.54,-71.37C1226.02,-61.53 1243.51,-50.41 1258.05,-41.17"/>
<polygon fill="#63b8ff" stroke="#63b8ff" points="1208.26,-68.67 1201.7,-76.99 1212.01,-74.58 1208.26,-68.67"/>
</a>
</g>
</g>
<!-- Node8 -->
<g id="Node000008" class="node">
<title>Node8</title>
<g id="a_Node000008"><a xlink:href="Stoich_8cpp.html" target="_top" xlink:title=" ">
<polygon fill="white" stroke="#666666" points="1634,-41 1416,-41 1416,0 1634,0 1634,-41"/>
<text text-anchor="start" x="1424" y="-29" font-family="Ubuntu Mono" font-size="10.00">/home/runner/work/mooseneuro.github.io</text>
<text text-anchor="start" x="1424" y="-18" font-family="Ubuntu Mono" font-size="10.00">/mooseneuro.github.io/docs/moose</text>
<text text-anchor="middle" x="1525" y="-7" font-family="Ubuntu Mono" font-size="10.00">&#45;core/ksolve/Stoich.cpp</text>
</a>
</g>
</g>
<!-- Node1&#45;&gt;Node8 -->
<g id="edge7_Node000001_Node000008" class="edge">
<title>Node1&#45;&gt;Node8</title>
<g id="a_edge7_Node000001_Node000008"><a xlink:title=" ">
<path fill="none" stroke="#63b8ff" d="M1273.03,-74.88C1323.42,-64.21 1383.76,-51.42 1432.76,-41.04"/>
<polygon fill="#63b8ff" stroke="#63b8ff" points="1272.14,-71.49 1263.09,-76.99 1273.59,-78.34 1272.14,-71.49"/>
</a>
</g>
</g>
<!-- Node9 -->
<g id="Node000009" class="node">
<title>Node9</title>
<g id="a_Node000009"><a xlink:href="VoxelPools_8cpp.html" target="_top" xlink:title=" ">
<polygon fill="white" stroke="#666666" points="1870,-41 1652,-41 1652,0 1870,0 1870,-41"/>
<text text-anchor="start" x="1660" y="-29" font-family="Ubuntu Mono" font-size="10.00">/home/runner/work/mooseneuro.github.io</text>
<text text-anchor="start" x="1660" y="-18" font-family="Ubuntu Mono" font-size="10.00">/mooseneuro.github.io/docs/moose</text>
<text text-anchor="middle" x="1761" y="-7" font-family="Ubuntu Mono" font-size="10.00">&#45;core/ksolve/VoxelPools.cpp</text>
</a>
</g>
</g>
<!-- Node1&#45;&gt;Node9 -->
<g id="edge8_Node000001_Node000009" class="edge">
<title>Node1&#45;&gt;Node9</title>
<g id="a_edge8_Node000001_Node000009"><a xlink:title=" ">
<path fill="none" stroke="#63b8ff" d="M1290.38,-84.02C1385.92,-73.66 1523.26,-57.92 1643,-41 1645.88,-40.59 1648.79,-40.17 1651.74,-39.74"/>
<polygon fill="#63b8ff" stroke="#63b8ff" points="1289.96,-80.55 1280.39,-85.1 1290.71,-87.51 1289.96,-80.55"/>
</a>
</g>
</g>
<!-- Node10 -->
<g id="Node000010" class="node">
<title>Node10</title>
<g id="a_Node000010"><a xlink:href="VoxelPoolsBase_8cpp.html" target="_top" xlink:title=" ">
<polygon fill="white" stroke="#666666" points="2106,-41 1888,-41 1888,0 2106,0 2106,-41"/>
<text text-anchor="start" x="1896" y="-29" font-family="Ubuntu Mono" font-size="10.00">/home/runner/work/mooseneuro.github.io</text>
<text text-anchor="start" x="1896" y="-18" font-family="Ubuntu Mono" font-size="10.00">/mooseneuro.github.io/docs/moose</text>
<text text-anchor="middle" x="1997" y="-7" font-family="Ubuntu Mono" font-size="10.00">&#45;core/ksolve/VoxelPoolsBase.cpp</text>
</a>
</g>
</g>
<!-- Node1&#45;&gt;Node10 -->
<g id="edge9_Node000001_Node000010" class="edge">
<title>Node1&#45;&gt;Node10</title>
<g id="a_edge9_Node000001_Node000010"><a xlink:title=" ">
<path fill="none" stroke="#63b8ff" d="M1290.54,-90.26C1431.55,-82.17 1672.88,-66.06 1879,-41 1881.89,-40.65 1884.81,-40.28 1887.76,-39.89"/>
<polygon fill="#63b8ff" stroke="#63b8ff" points="1289.93,-86.79 1280.15,-90.85 1290.33,-93.77 1289.93,-86.79"/>
</a>
</g>
</g>
<!-- Node11 -->
<g id="Node000011" class="node">
<title>Node11</title>
<g id="a_Node000011"><a xlink:href="testKsolve_8cpp.html" target="_top" xlink:title=" ">
<polygon fill="white" stroke="#666666" points="2342,-41 2124,-41 2124,0 2342,0 2342,-41"/>
<text text-anchor="start" x="2132" y="-29" font-family="Ubuntu Mono" font-size="10.00">/home/runner/work/mooseneuro.github.io</text>
<text text-anchor="start" x="2132" y="-18" font-family="Ubuntu Mono" font-size="10.00">/mooseneuro.github.io/docs/moose</text>
<text text-anchor="middle" x="2233" y="-7" font-family="Ubuntu Mono" font-size="10.00">&#45;core/ksolve/testKsolve.cpp</text>
</a>
</g>
</g>
<!-- Node1&#45;&gt;Node11 -->
<g id="edge10_Node000001_Node000011" class="edge">
<title>Node1&#45;&gt;Node11</title>
<g id="a_edge10_Node000001_Node000011"><a xlink:title=" ">
<path fill="none" stroke="#63b8ff" d="M1290.6,-93.49C1470.12,-88.07 1819.71,-73.99 2115,-41 2117.89,-40.68 2120.81,-40.33 2123.77,-39.97"/>
<polygon fill="#63b8ff" stroke="#63b8ff" points="1290.23,-90 1280.34,-93.8 1290.44,-97 1290.23,-90"/>
</a>
</g>
</g>
</g>
</svg>
