<?xml version="1.0" encoding="UTF-8" standalone="no"?>
<!DOCTYPE svg PUBLIC "-//W3C//DTD SVG 1.1//EN"
 "http://www.w3.org/Graphics/SVG/1.1/DTD/svg11.dtd">
<!-- Generated by graphviz version 2.43.0 (0)
 -->
<!-- Title: mooseNumNodes Pages: 1 -->
<svg width="613pt" height="178pt"
 viewBox="0.00 0.00 613.00 178.00" xmlns="http://www.w3.org/2000/svg" xmlns:xlink="http://www.w3.org/1999/xlink">
<g id="graph0" class="graph" transform="scale(1 1) rotate(0) translate(4 174)">
<title>mooseNumNodes</title>
<!-- Node1 -->
<g id="Node000001" class="node">
<title>Node1</title>
<g id="a_Node000001"><a xlink:title=" ">
<polygon fill="#999999" stroke="#666666" points="605,-94 501,-94 501,-75 605,-75 605,-94"/>
<text text-anchor="middle" x="553" y="-82" font-family="Ubuntu Mono" font-size="10.00">mooseNumNodes</text>
</a>
</g>
</g>
<!-- Node2 -->
<g id="Node000002" class="node">
<title>Node2</title>
<g id="a_Node000002"><a xlink:href="classHopFunc1.html#ab40e5ad1a833d9a470cffbdbc9517a01" target="_top" xlink:title=" ">
<polygon fill="white" stroke="#666666" points="261.5,-57 138.5,-57 138.5,-38 261.5,-38 261.5,-57"/>
<text text-anchor="middle" x="200" y="-45" font-family="Ubuntu Mono" font-size="10.00">HopFunc1::dataOpVec</text>
</a>
</g>
</g>
<!-- Node1&#45;&gt;Node2 -->
<g id="edge1_Node000001_Node000002" class="edge">
<title>Node1&#45;&gt;Node2</title>
<g id="a_edge1_Node000001_Node000002"><a xlink:title=" ">
<path fill="none" stroke="#63b8ff" d="M490.48,-81.18C439.36,-78.05 364.78,-72.62 300,-64.5 284.08,-62.51 266.82,-59.75 251.23,-57.04"/>
<polygon fill="#63b8ff" stroke="#63b8ff" points="490.51,-84.69 500.7,-81.8 490.93,-77.7 490.51,-84.69"/>
</a>
</g>
</g>
<!-- Node4 -->
<g id="Node000004" class="node">
<title>Node4</title>
<g id="a_Node000004"><a xlink:href="classGetHopFunc.html#a1ba4e4ed41caa62b966464e5b90ebeb2" target="_top" xlink:title=" ">
<polygon fill="white" stroke="#666666" points="465,-170 300,-170 300,-151 465,-151 465,-170"/>
<text text-anchor="middle" x="382.5" y="-158" font-family="Ubuntu Mono" font-size="10.00">GetHopFunc::getMultiNodeVec</text>
</a>
</g>
</g>
<!-- Node1&#45;&gt;Node4 -->
<g id="edge3_Node000001_Node000004" class="edge">
<title>Node1&#45;&gt;Node4</title>
<g id="a_edge3_Node000001_Node000004"><a xlink:title=" ">
<path fill="none" stroke="#63b8ff" d="M529.74,-99.95C512.65,-111.28 488.12,-126.38 465,-136.5 451.76,-142.3 436.71,-147.17 423.18,-150.98"/>
<polygon fill="#63b8ff" stroke="#63b8ff" points="532.08,-102.59 538.42,-94.1 528.17,-96.79 532.08,-102.59"/>
</a>
</g>
</g>
<!-- Node5 -->
<g id="Node000005" class="node">
<title>Node5</title>
<g id="a_Node000005"><a xlink:href="classGetHopFunc.html#afea649cca65d964f57e336d99e34da05" target="_top" xlink:title=" ">
<polygon fill="white" stroke="#666666" points="264,-151 136,-151 136,-132 264,-132 264,-151"/>
<text text-anchor="middle" x="200" y="-139" font-family="Ubuntu Mono" font-size="10.00">GetHopFunc::opGetVec</text>
</a>
</g>
</g>
<!-- Node1&#45;&gt;Node5 -->
<g id="edge5_Node000001_Node000005" class="edge">
<title>Node1&#45;&gt;Node5</title>
<g id="a_edge5_Node000001_Node000005"><a xlink:title=" ">
<path fill="none" stroke="#63b8ff" d="M490.86,-94.43C425.86,-104.98 323.78,-121.56 259.72,-131.96"/>
<polygon fill="#63b8ff" stroke="#63b8ff" points="491.65,-97.85 500.96,-92.79 490.53,-90.94 491.65,-97.85"/>
</a>
</g>
</g>
<!-- Node6 -->
<g id="Node000006" class="node">
<title>Node6</title>
<g id="a_Node000006"><a xlink:href="classHopFunc2.html#ac53edb90b460a4d9c61a8abf21ff0d24" target="_top" xlink:title=" ">
<polygon fill="white" stroke="#666666" points="432.5,-56 332.5,-56 332.5,-37 432.5,-37 432.5,-56"/>
<text text-anchor="middle" x="382.5" y="-44" font-family="Ubuntu Mono" font-size="10.00">HopFunc2::opVec</text>
</a>
</g>
</g>
<!-- Node1&#45;&gt;Node6 -->
<g id="edge6_Node000001_Node000006" class="edge">
<title>Node1&#45;&gt;Node6</title>
<g id="a_edge6_Node000001_Node000006"><a xlink:title=" ">
<path fill="none" stroke="#63b8ff" d="M499.57,-72.68C475.81,-67.32 448.1,-61.07 425.71,-56.02"/>
<polygon fill="#63b8ff" stroke="#63b8ff" points="498.96,-76.13 509.48,-74.91 500.5,-69.3 498.96,-76.13"/>
</a>
</g>
</g>
<!-- Node7 -->
<g id="Node000007" class="node">
<title>Node7</title>
<g id="a_Node000007"><a xlink:href="classHopFunc1.html#aef7e32e6efc0455eabb1847950f0651f" target="_top" xlink:title="Dispatches remote vector assignment. start and end are arg index.">
<polygon fill="white" stroke="#666666" points="451,-19 314,-19 314,0 451,0 451,-19"/>
<text text-anchor="middle" x="382.5" y="-7" font-family="Ubuntu Mono" font-size="10.00">HopFunc1::remoteOpVec</text>
</a>
</g>
</g>
<!-- Node1&#45;&gt;Node7 -->
<g id="edge7_Node000001_Node000007" class="edge">
<title>Node1&#45;&gt;Node7</title>
<g id="a_edge7_Node000001_Node000007"><a xlink:title=" ">
<path fill="none" stroke="#63b8ff" d="M532.4,-68.65C515.5,-55.75 489.94,-38.01 465,-27.5 456.99,-24.12 448.25,-21.34 439.58,-19.06"/>
<polygon fill="#63b8ff" stroke="#63b8ff" points="530.37,-71.5 540.4,-74.89 534.67,-65.98 530.37,-71.5"/>
</a>
</g>
</g>
<!-- Node3 -->
<g id="Node000003" class="node">
<title>Node3</title>
<g id="a_Node000003"><a xlink:href="classHopFunc1.html#a853c994560564a9ee892ed66b6e57419" target="_top" xlink:title=" ">
<polygon fill="white" stroke="#666666" points="100,-38 0,-38 0,-19 100,-19 100,-38"/>
<text text-anchor="middle" x="50" y="-26" font-family="Ubuntu Mono" font-size="10.00">HopFunc1::opVec</text>
</a>
</g>
</g>
<!-- Node2&#45;&gt;Node3 -->
<g id="edge2_Node000002_Node000003" class="edge">
<title>Node2&#45;&gt;Node3</title>
<g id="a_edge2_Node000002_Node000003"><a xlink:title=" ">
<path fill="none" stroke="#63b8ff" d="M128.24,-38.42C118.85,-37.21 109.39,-36 100.46,-34.85"/>
<polygon fill="#63b8ff" stroke="#63b8ff" points="128.01,-41.92 138.38,-39.72 128.9,-34.97 128.01,-41.92"/>
</a>
</g>
</g>
<!-- Node4&#45;&gt;Node5 -->
<g id="edge4_Node000004_Node000005" class="edge">
<title>Node4&#45;&gt;Node5</title>
<g id="a_edge4_Node000004_Node000005"><a xlink:title=" ">
<path fill="none" stroke="#63b8ff" d="M289.76,-150.84C281.07,-149.93 272.39,-149.01 264.05,-148.14"/>
<polygon fill="#63b8ff" stroke="#63b8ff" points="289.65,-154.35 299.96,-151.92 290.38,-147.39 289.65,-154.35"/>
</a>
</g>
</g>
<!-- Node7&#45;&gt;Node2 -->
<g id="edge8_Node000007_Node000002" class="edge">
<title>Node7&#45;&gt;Node2</title>
<g id="a_edge8_Node000007_Node000002"><a xlink:title=" ">
<path fill="none" stroke="#63b8ff" d="M326.02,-21.18C300.42,-26.57 270.42,-32.89 246.22,-37.98"/>
<polygon fill="#63b8ff" stroke="#63b8ff" points="326.89,-24.57 335.95,-19.09 325.45,-17.72 326.89,-24.57"/>
</a>
</g>
</g>
<!-- Node7&#45;&gt;Node3 -->
<g id="edge9_Node000007_Node000003" class="edge">
<title>Node7&#45;&gt;Node3</title>
<g id="a_edge9_Node000007_Node000003"><a xlink:title=" ">
<path fill="none" stroke="#63b8ff" d="M303.53,-13.98C240.51,-17.61 153.74,-22.59 100.07,-25.68"/>
<polygon fill="#63b8ff" stroke="#63b8ff" points="304.04,-17.46 313.82,-13.39 303.64,-10.47 304.04,-17.46"/>
</a>
</g>
</g>
</g>
</svg>
