<?xml version="1.0" encoding="UTF-8" standalone="no"?>
<!DOCTYPE svg PUBLIC "-//W3C//DTD SVG 1.1//EN"
 "http://www.w3.org/Graphics/SVG/1.1/DTD/svg11.dtd">
<!-- Generated by graphviz version 2.43.0 (0)
 -->
<!-- Title: /home/runner/work/mooseneuro.github.io/mooseneuro.github.io/docs/moose&#45;core/hsolve/HSolveActive.h Pages: 1 -->
<svg width="2766pt" height="544pt"
 viewBox="0.00 0.00 2765.50 544.00" xmlns="http://www.w3.org/2000/svg" xmlns:xlink="http://www.w3.org/1999/xlink">
<g id="graph0" class="graph" transform="scale(1 1) rotate(0) translate(4 540)">
<title>/home/runner/work/mooseneuro.github.io/mooseneuro.github.io/docs/moose&#45;core/hsolve/HSolveActive.h</title>
<!-- Node1 -->
<g id="Node000001" class="node">
<title>Node1</title>
<g id="a_Node000001"><a xlink:title=" ">
<polygon fill="#999999" stroke="#666666" points="1549.5,-536 1331.5,-536 1331.5,-495 1549.5,-495 1549.5,-536"/>
<text text-anchor="start" x="1339.5" y="-524" font-family="Ubuntu Mono" font-size="10.00">/home/runner/work/mooseneuro.github.io</text>
<text text-anchor="start" x="1339.5" y="-513" font-family="Ubuntu Mono" font-size="10.00">/mooseneuro.github.io/docs/moose</text>
<text text-anchor="middle" x="1440.5" y="-502" font-family="Ubuntu Mono" font-size="10.00">&#45;core/hsolve/HSolveActive.h</text>
</a>
</g>
</g>
<!-- Node2 -->
<g id="Node000002" class="node">
<title>Node2</title>
<g id="a_Node000002"><a xlink:href="header_8h.html" target="_top" xlink:title=" ">
<polygon fill="#fff0f0" stroke="red" points="1377,-129 1260,-129 1260,-110 1377,-110 1377,-129"/>
<text text-anchor="middle" x="1318.5" y="-117" font-family="Ubuntu Mono" font-size="10.00">../basecode/header.h</text>
</a>
</g>
</g>
<!-- Node1&#45;&gt;Node2 -->
<g id="edge1_Node000001_Node000002" class="edge">
<title>Node1&#45;&gt;Node2</title>
<g id="a_edge1_Node000001_Node000002"><a xlink:title=" ">
<path fill="none" stroke="#63b8ff" d="M1412.49,-494.94C1401.19,-485.46 1389.24,-473.08 1382.5,-459 1349.06,-389.2 1367.5,-362.9 1367.5,-285.5 1367.5,-285.5 1367.5,-285.5 1367.5,-228.5 1367.5,-193.68 1346.12,-157.74 1331.6,-137.35"/>
<polygon fill="#63b8ff" stroke="#63b8ff" points="1334.29,-135.09 1325.52,-129.13 1328.66,-139.25 1334.29,-135.09"/>
</a>
</g>
</g>
<!-- Node44 -->
<g id="Node000044" class="node">
<title>Node44</title>
<g id="a_Node000044"><a xlink:title=" ">
<polygon fill="#e0e0e0" stroke="#999999" points="1615.5,-459 1583.5,-459 1583.5,-440 1615.5,-440 1615.5,-459"/>
<text text-anchor="middle" x="1599.5" y="-447" font-family="Ubuntu Mono" font-size="10.00">set</text>
</a>
</g>
</g>
<!-- Node1&#45;&gt;Node44 -->
<g id="edge38_Node000001_Node000044" class="edge">
<title>Node1&#45;&gt;Node44</title>
<g id="a_edge38_Node000001_Node000044"><a xlink:title=" ">
<path fill="none" stroke="#63b8ff" d="M1489.07,-494.95C1517.07,-483.68 1551.14,-469.97 1573.97,-460.78"/>
<polygon fill="#63b8ff" stroke="#63b8ff" points="1575.34,-464 1583.31,-457.02 1572.72,-457.51 1575.34,-464"/>
</a>
</g>
</g>
<!-- Node45 -->
<g id="Node000045" class="node">
<title>Node45</title>
<g id="a_Node000045"><a xlink:title=" ">
<polygon fill="#e0e0e0" stroke="#999999" points="1677.5,-459 1633.5,-459 1633.5,-440 1677.5,-440 1677.5,-459"/>
<text text-anchor="middle" x="1655.5" y="-447" font-family="Ubuntu Mono" font-size="10.00">limits</text>
</a>
</g>
</g>
<!-- Node1&#45;&gt;Node45 -->
<g id="edge39_Node000001_Node000045" class="edge">
<title>Node1&#45;&gt;Node45</title>
<g id="a_edge39_Node000001_Node000045"><a xlink:title=" ">
<path fill="none" stroke="#63b8ff" d="M1506.18,-494.95C1545.12,-483.36 1592.74,-469.18 1623.57,-460"/>
<polygon fill="#63b8ff" stroke="#63b8ff" points="1624.76,-463.3 1633.35,-457.09 1622.77,-456.59 1624.76,-463.3"/>
</a>
</g>
</g>
<!-- Node46 -->
<g id="Node000046" class="node">
<title>Node46</title>
<g id="a_Node000046"><a xlink:href="CaConcBase_8h.html" target="_top" xlink:title=" ">
<polygon fill="white" stroke="#666666" points="1845.5,-459 1695.5,-459 1695.5,-440 1845.5,-440 1845.5,-459"/>
<text text-anchor="middle" x="1770.5" y="-447" font-family="Ubuntu Mono" font-size="10.00">../biophysics/CaConcBase.h</text>
</a>
</g>
</g>
<!-- Node1&#45;&gt;Node46 -->
<g id="edge40_Node000001_Node000046" class="edge">
<title>Node1&#45;&gt;Node46</title>
<g id="a_edge40_Node000001_Node000046"><a xlink:title=" ">
<path fill="none" stroke="#63b8ff" d="M1541.3,-494.95C1599.05,-483.75 1669.22,-470.14 1716.59,-460.96"/>
<polygon fill="#63b8ff" stroke="#63b8ff" points="1717.48,-464.35 1726.63,-459.01 1716.15,-457.48 1717.48,-464.35"/>
</a>
</g>
</g>
<!-- Node47 -->
<g id="Node000047" class="node">
<title>Node47</title>
<g id="a_Node000047"><a xlink:href="HHGate_8h.html" target="_top" xlink:title=" ">
<polygon fill="#fff0f0" stroke="red" points="1025.5,-349 897.5,-349 897.5,-330 1025.5,-330 1025.5,-349"/>
<text text-anchor="middle" x="961.5" y="-337" font-family="Ubuntu Mono" font-size="10.00">../biophysics/HHGate.h</text>
</a>
</g>
</g>
<!-- Node1&#45;&gt;Node47 -->
<g id="edge41_Node000001_Node000047" class="edge">
<title>Node1&#45;&gt;Node47</title>
<g id="a_edge41_Node000001_Node000047"><a xlink:title=" ">
<path fill="none" stroke="#63b8ff" d="M1386.48,-494.88C1286.66,-458.62 1076.08,-382.12 994.63,-352.54"/>
<polygon fill="#63b8ff" stroke="#63b8ff" points="995.73,-349.21 985.13,-349.09 993.34,-355.79 995.73,-349.21"/>
</a>
</g>
</g>
<!-- Node49 -->
<g id="Node000049" class="node">
<title>Node49</title>
<g id="a_Node000049"><a xlink:href="ChanBase_8h.html" target="_top" xlink:title=" ">
<polygon fill="white" stroke="#666666" points="1272.5,-184 1134.5,-184 1134.5,-165 1272.5,-165 1272.5,-184"/>
<text text-anchor="middle" x="1203.5" y="-172" font-family="Ubuntu Mono" font-size="10.00">../biophysics/ChanBase.h</text>
</a>
</g>
</g>
<!-- Node1&#45;&gt;Node49 -->
<g id="edge42_Node000001_Node000049" class="edge">
<title>Node1&#45;&gt;Node49</title>
<g id="a_edge42_Node000001_Node000049"><a xlink:title=" ">
<path fill="none" stroke="#63b8ff" d="M1331.25,-512.47C1187.01,-508.36 941.81,-496 860.5,-459 823.16,-442.01 793.5,-436.53 793.5,-395.5 793.5,-395.5 793.5,-395.5 793.5,-283.5 793.5,-215.82 1005.05,-189.65 1124.23,-180.27"/>
<polygon fill="#63b8ff" stroke="#63b8ff" points="1124.71,-183.74 1134.41,-179.49 1124.18,-176.76 1124.71,-183.74"/>
</a>
</g>
</g>
<!-- Node50 -->
<g id="Node000050" class="node">
<title>Node50</title>
<g id="a_Node000050"><a xlink:href="ChanCommon_8h.html" target="_top" xlink:title=" ">
<polygon fill="white" stroke="#666666" points="1175.5,-239 1017.5,-239 1017.5,-220 1175.5,-220 1175.5,-239"/>
<text text-anchor="middle" x="1096.5" y="-227" font-family="Ubuntu Mono" font-size="10.00">../biophysics/ChanCommon.h</text>
</a>
</g>
</g>
<!-- Node1&#45;&gt;Node50 -->
<g id="edge44_Node000001_Node000050" class="edge">
<title>Node1&#45;&gt;Node50</title>
<g id="a_edge44_Node000001_Node000050"><a xlink:title=" ">
<path fill="none" stroke="#63b8ff" d="M1331.27,-515.17C1156.02,-513.27 831.5,-496.16 831.5,-395.5 831.5,-395.5 831.5,-395.5 831.5,-338.5 831.5,-293.45 964.5,-258.03 1042.05,-241.2"/>
<polygon fill="#63b8ff" stroke="#63b8ff" points="1043.1,-244.56 1052.14,-239.05 1041.63,-237.71 1043.1,-244.56"/>
</a>
</g>
</g>
<!-- Node51 -->
<g id="Node000051" class="node">
<title>Node51</title>
<g id="a_Node000051"><a xlink:href="HHChannelBase_8h.html" target="_top" xlink:title=" ">
<polygon fill="white" stroke="#666666" points="1131.5,-294 963.5,-294 963.5,-275 1131.5,-275 1131.5,-294"/>
<text text-anchor="middle" x="1047.5" y="-282" font-family="Ubuntu Mono" font-size="10.00">../biophysics/HHChannelBase.h</text>
</a>
</g>
</g>
<!-- Node1&#45;&gt;Node51 -->
<g id="edge46_Node000001_Node000051" class="edge">
<title>Node1&#45;&gt;Node51</title>
<g id="a_edge46_Node000001_Node000051"><a xlink:title=" ">
<path fill="none" stroke="#63b8ff" d="M1331.44,-497.55C1186.09,-472.46 941.04,-420.58 888.5,-349 865.6,-317.79 907.15,-301.9 953.5,-293.82"/>
<polygon fill="#63b8ff" stroke="#63b8ff" points="954.13,-297.27 963.44,-292.21 953.01,-290.36 954.13,-297.27"/>
</a>
</g>
</g>
<!-- Node52 -->
<g id="Node000052" class="node">
<title>Node52</title>
<g id="a_Node000052"><a xlink:href="HHChannel_8h.html" target="_top" xlink:title=" ">
<polygon fill="white" stroke="#666666" points="1225.5,-349 1081.5,-349 1081.5,-330 1225.5,-330 1225.5,-349"/>
<text text-anchor="middle" x="1153.5" y="-337" font-family="Ubuntu Mono" font-size="10.00">../biophysics/HHChannel.h</text>
</a>
</g>
</g>
<!-- Node1&#45;&gt;Node52 -->
<g id="edge48_Node000001_Node000052" class="edge">
<title>Node1&#45;&gt;Node52</title>
<g id="a_edge48_Node000001_Node000052"><a xlink:title=" ">
<path fill="none" stroke="#63b8ff" d="M1397.4,-494.96C1375.81,-484.81 1349.44,-471.87 1326.5,-459 1286.93,-436.81 1277.95,-429.61 1240.5,-404 1216.97,-387.91 1190.62,-368.47 1173.14,-355.37"/>
<polygon fill="#63b8ff" stroke="#63b8ff" points="1174.97,-352.37 1164.88,-349.15 1170.76,-357.96 1174.97,-352.37"/>
</a>
</g>
</g>
<!-- Node53 -->
<g id="Node000053" class="node">
<title>Node53</title>
<g id="a_Node000053"><a xlink:href="SpikeGen_8h.html" target="_top" xlink:title=" ">
<polygon fill="white" stroke="#666666" points="1999,-459 1864,-459 1864,-440 1999,-440 1999,-459"/>
<text text-anchor="middle" x="1931.5" y="-447" font-family="Ubuntu Mono" font-size="10.00">../biophysics/SpikeGen.h</text>
</a>
</g>
</g>
<!-- Node1&#45;&gt;Node53 -->
<g id="edge52_Node000001_Node000053" class="edge">
<title>Node1&#45;&gt;Node53</title>
<g id="a_edge52_Node000001_Node000053"><a xlink:title=" ">
<path fill="none" stroke="#63b8ff" d="M1549.77,-500.26C1642.95,-488.11 1774.44,-470.97 1856.25,-460.31"/>
<polygon fill="#63b8ff" stroke="#63b8ff" points="1856.76,-463.77 1866.22,-459.01 1855.85,-456.83 1856.76,-463.77"/>
</a>
</g>
</g>
<!-- Node54 -->
<g id="Node000054" class="node">
<title>Node54</title>
<g id="a_Node000054"><a xlink:href="HSolveUtils_8h.html" target="_top" xlink:title=" ">
<polygon fill="#fff0f0" stroke="red" points="1333,-404 1250,-404 1250,-385 1333,-385 1333,-404"/>
<text text-anchor="middle" x="1291.5" y="-392" font-family="Ubuntu Mono" font-size="10.00">HSolveUtils.h</text>
</a>
</g>
</g>
<!-- Node1&#45;&gt;Node54 -->
<g id="edge53_Node000001_Node000054" class="edge">
<title>Node1&#45;&gt;Node54</title>
<g id="a_edge53_Node000001_Node000054"><a xlink:title=" ">
<path fill="none" stroke="#63b8ff" d="M1403.04,-494.85C1385.96,-485.11 1365.92,-472.53 1349.5,-459 1332.3,-444.83 1315.43,-425.59 1304.36,-412.01"/>
<polygon fill="#63b8ff" stroke="#63b8ff" points="1306.95,-409.65 1297.98,-404.02 1301.48,-414.02 1306.95,-409.65"/>
</a>
</g>
</g>
<!-- Node70 -->
<g id="Node000070" class="node">
<title>Node70</title>
<g id="a_Node000070"><a xlink:href="HSolveStruct_8h.html" target="_top" xlink:title=" ">
<polygon fill="white" stroke="#666666" points="1561,-404 1472,-404 1472,-385 1561,-385 1561,-404"/>
<text text-anchor="middle" x="1516.5" y="-392" font-family="Ubuntu Mono" font-size="10.00">HSolveStruct.h</text>
</a>
</g>
</g>
<!-- Node1&#45;&gt;Node70 -->
<g id="edge61_Node000001_Node000070" class="edge">
<title>Node1&#45;&gt;Node70</title>
<g id="a_edge61_Node000001_Node000070"><a xlink:title=" ">
<path fill="none" stroke="#63b8ff" d="M1465.84,-494.9C1476.93,-485.16 1489.27,-472.58 1497.5,-459 1505.89,-445.16 1510.79,-427.36 1513.51,-414.13"/>
<polygon fill="#63b8ff" stroke="#63b8ff" points="1516.96,-414.75 1515.31,-404.28 1510.07,-413.49 1516.96,-414.75"/>
</a>
</g>
</g>
<!-- Node71 -->
<g id="Node000071" class="node">
<title>Node71</title>
<g id="a_Node000071"><a xlink:href="HinesMatrix_8h.html" target="_top" xlink:title=" ">
<polygon fill="white" stroke="#666666" points="1664,-404 1579,-404 1579,-385 1664,-385 1664,-404"/>
<text text-anchor="middle" x="1621.5" y="-392" font-family="Ubuntu Mono" font-size="10.00">HinesMatrix.h</text>
</a>
</g>
</g>
<!-- Node1&#45;&gt;Node71 -->
<g id="edge62_Node000001_Node000071" class="edge">
<title>Node1&#45;&gt;Node71</title>
<g id="a_edge62_Node000001_Node000071"><a xlink:title=" ">
<path fill="none" stroke="#63b8ff" d="M1470.39,-494.85C1506.76,-470.94 1567.31,-431.13 1599.61,-409.89"/>
<polygon fill="#63b8ff" stroke="#63b8ff" points="1601.87,-412.59 1608.31,-404.18 1598.03,-406.74 1601.87,-412.59"/>
</a>
</g>
</g>
<!-- Node72 -->
<g id="Node000072" class="node">
<title>Node72</title>
<g id="a_Node000072"><a xlink:href="HSolvePassive_8h.html" target="_top" xlink:title=" ">
<polygon fill="#fff0f0" stroke="red" points="1489,-459 1392,-459 1392,-440 1489,-440 1489,-459"/>
<text text-anchor="middle" x="1440.5" y="-447" font-family="Ubuntu Mono" font-size="10.00">HSolvePassive.h</text>
</a>
</g>
</g>
<!-- Node1&#45;&gt;Node72 -->
<g id="edge63_Node000001_Node000072" class="edge">
<title>Node1&#45;&gt;Node72</title>
<g id="a_edge63_Node000001_Node000072"><a xlink:title=" ">
<path fill="none" stroke="#63b8ff" d="M1440.5,-494.95C1440.5,-486.85 1440.5,-477.5 1440.5,-469.47"/>
<polygon fill="#63b8ff" stroke="#63b8ff" points="1444,-469.26 1440.5,-459.26 1437,-469.26 1444,-469.26"/>
</a>
</g>
</g>
<!-- Node75 -->
<g id="Node000075" class="node">
<title>Node75</title>
<g id="a_Node000075"><a xlink:href="RateLookup_8h.html" target="_top" xlink:title=" ">
<polygon fill="white" stroke="#666666" points="2100,-459 2017,-459 2017,-440 2100,-440 2100,-459"/>
<text text-anchor="middle" x="2058.5" y="-447" font-family="Ubuntu Mono" font-size="10.00">RateLookup.h</text>
</a>
</g>
</g>
<!-- Node1&#45;&gt;Node75 -->
<g id="edge68_Node000001_Node000075" class="edge">
<title>Node1&#45;&gt;Node75</title>
<g id="a_edge68_Node000001_Node000075"><a xlink:title=" ">
<path fill="none" stroke="#63b8ff" d="M1549.65,-506.15C1661.86,-497.03 1841.84,-480.95 2006.47,-459.19"/>
<polygon fill="#63b8ff" stroke="#63b8ff" points="2007.34,-462.61 2016.79,-457.82 2006.42,-455.67 2007.34,-462.61"/>
</a>
</g>
</g>
<!-- Node3 -->
<g id="Node000003" class="node">
<title>Node3</title>
<g id="a_Node000003"><a xlink:title=" ">
<polygon fill="#e0e0e0" stroke="#999999" points="2595,-74 2544,-74 2544,-55 2595,-55 2595,-74"/>
<text text-anchor="middle" x="2569.5" y="-62" font-family="Ubuntu Mono" font-size="10.00">math.h</text>
</a>
</g>
</g>
<!-- Node2&#45;&gt;Node3 -->
<g id="edge2_Node000002_Node000003" class="edge">
<title>Node2&#45;&gt;Node3</title>
<g id="a_edge2_Node000002_Node000003"><a xlink:title=" ">
<path fill="none" stroke="#63b8ff" d="M1377.03,-111.24C1381.92,-110.77 1386.79,-110.35 1391.5,-110 1895.47,-72.8 2029.89,-143.15 2533.91,-73.89"/>
<polygon fill="#63b8ff" stroke="#63b8ff" points="2534.57,-77.34 2544,-72.5 2533.61,-70.4 2534.57,-77.34"/>
</a>
</g>
</g>
<!-- Node4 -->
<g id="Node000004" class="node">
<title>Node4</title>
<g id="a_Node000004"><a xlink:title=" ">
<polygon fill="#e0e0e0" stroke="#999999" points="2677.5,-74 2613.5,-74 2613.5,-55 2677.5,-55 2677.5,-74"/>
<text text-anchor="middle" x="2645.5" y="-62" font-family="Ubuntu Mono" font-size="10.00">algorithm</text>
</a>
</g>
</g>
<!-- Node2&#45;&gt;Node4 -->
<g id="edge3_Node000002_Node000004" class="edge">
<title>Node2&#45;&gt;Node4</title>
<g id="a_edge3_Node000002_Node000004"><a xlink:title=" ">
<path fill="none" stroke="#63b8ff" d="M1377.03,-111.24C1381.92,-110.77 1386.79,-110.34 1391.5,-110 1926.01,-71.02 2067.06,-136.15 2603.04,-73.93"/>
<polygon fill="#63b8ff" stroke="#63b8ff" points="2603.83,-77.36 2613.36,-72.72 2603.02,-70.4 2603.83,-77.36"/>
</a>
</g>
</g>
<!-- Node5 -->
<g id="Node000005" class="node">
<title>Node5</title>
<g id="a_Node000005"><a xlink:title=" ">
<polygon fill="#e0e0e0" stroke="#999999" points="47,-74 0,-74 0,-55 47,-55 47,-74"/>
<text text-anchor="middle" x="23.5" y="-62" font-family="Ubuntu Mono" font-size="10.00">vector</text>
</a>
</g>
</g>
<!-- Node2&#45;&gt;Node5 -->
<g id="edge4_Node000002_Node000005" class="edge">
<title>Node2&#45;&gt;Node5</title>
<g id="a_edge4_Node000002_Node000005"><a xlink:title=" ">
<path fill="none" stroke="#63b8ff" d="M1259.71,-118.12C1046.43,-116.47 312.96,-108.47 57.16,-73.66"/>
<polygon fill="#63b8ff" stroke="#63b8ff" points="57.56,-70.18 47.17,-72.25 56.58,-77.11 57.56,-70.18"/>
</a>
</g>
</g>
<!-- Node6 -->
<g id="Node000006" class="node">
<title>Node6</title>
<g id="a_Node000006"><a xlink:title=" ">
<polygon fill="#e0e0e0" stroke="#999999" points="109.5,-74 65.5,-74 65.5,-55 109.5,-55 109.5,-74"/>
<text text-anchor="middle" x="87.5" y="-62" font-family="Ubuntu Mono" font-size="10.00">string</text>
</a>
</g>
</g>
<!-- Node2&#45;&gt;Node6 -->
<g id="edge5_Node000002_Node000006" class="edge">
<title>Node2&#45;&gt;Node6</title>
<g id="a_edge5_Node000002_Node000006"><a xlink:title=" ">
<path fill="none" stroke="#63b8ff" d="M1259.73,-118.11C1053.44,-116.48 362.29,-108.59 119.88,-73.77"/>
<polygon fill="#63b8ff" stroke="#63b8ff" points="120.13,-70.27 109.72,-72.25 119.09,-77.19 120.13,-70.27"/>
</a>
</g>
</g>
<!-- Node7 -->
<g id="Node000007" class="node">
<title>Node7</title>
<g id="a_Node000007"><a xlink:title=" ">
<polygon fill="#e0e0e0" stroke="#999999" points="165.5,-74 127.5,-74 127.5,-55 165.5,-55 165.5,-74"/>
<text text-anchor="middle" x="146.5" y="-62" font-family="Ubuntu Mono" font-size="10.00">map</text>
</a>
</g>
</g>
<!-- Node2&#45;&gt;Node7 -->
<g id="edge6_Node000002_Node000007" class="edge">
<title>Node2&#45;&gt;Node7</title>
<g id="a_edge6_Node000002_Node000007"><a xlink:title=" ">
<path fill="none" stroke="#63b8ff" d="M1259.65,-118.2C1059.6,-116.85 405.96,-109.89 175.61,-73.65"/>
<polygon fill="#63b8ff" stroke="#63b8ff" points="176.06,-70.17 165.63,-72.01 174.93,-77.08 176.06,-70.17"/>
</a>
</g>
</g>
<!-- Node8 -->
<g id="Node000008" class="node">
<title>Node8</title>
<g id="a_Node000008"><a xlink:title=" ">
<polygon fill="#e0e0e0" stroke="#999999" points="277,-74 184,-74 184,-55 277,-55 277,-74"/>
<text text-anchor="middle" x="230.5" y="-62" font-family="Ubuntu Mono" font-size="10.00">unordered_map</text>
</a>
</g>
</g>
<!-- Node2&#45;&gt;Node8 -->
<g id="edge7_Node000002_Node000008" class="edge">
<title>Node2&#45;&gt;Node8</title>
<g id="a_edge7_Node000002_Node000008"><a xlink:title=" ">
<path fill="none" stroke="#63b8ff" d="M1259.87,-118.18C1103.53,-116.84 663.58,-110 287.2,-73.94"/>
<polygon fill="#63b8ff" stroke="#63b8ff" points="287.49,-70.45 277.2,-72.97 286.82,-77.42 287.49,-70.45"/>
</a>
</g>
</g>
<!-- Node9 -->
<g id="Node000009" class="node">
<title>Node9</title>
<g id="a_Node000009"><a xlink:title=" ">
<polygon fill="#e0e0e0" stroke="#999999" points="355.5,-74 295.5,-74 295.5,-55 355.5,-55 355.5,-74"/>
<text text-anchor="middle" x="325.5" y="-62" font-family="Ubuntu Mono" font-size="10.00">iostream</text>
</a>
</g>
</g>
<!-- Node2&#45;&gt;Node9 -->
<g id="edge8_Node000002_Node000009" class="edge">
<title>Node2&#45;&gt;Node9</title>
<g id="a_edge8_Node000002_Node000009"><a xlink:title=" ">
<path fill="none" stroke="#63b8ff" d="M1259.85,-119.18C1111.49,-120.16 709.26,-118.28 365.79,-73.92"/>
<polygon fill="#63b8ff" stroke="#63b8ff" points="366.01,-70.42 355.65,-72.59 365.11,-77.36 366.01,-70.42"/>
</a>
</g>
</g>
<!-- Node10 -->
<g id="Node000010" class="node">
<title>Node10</title>
<g id="a_Node000010"><a xlink:title=" ">
<polygon fill="#e0e0e0" stroke="#999999" points="429.5,-74 373.5,-74 373.5,-55 429.5,-55 429.5,-74"/>
<text text-anchor="middle" x="401.5" y="-62" font-family="Ubuntu Mono" font-size="10.00">sstream</text>
</a>
</g>
</g>
<!-- Node2&#45;&gt;Node10 -->
<g id="edge9_Node000002_Node000010" class="edge">
<title>Node2&#45;&gt;Node10</title>
<g id="a_edge9_Node000002_Node000010"><a xlink:title=" ">
<path fill="none" stroke="#63b8ff" d="M1259.87,-118.52C1118.72,-117.93 749.1,-112.48 443.5,-74 442.39,-73.86 441.27,-73.71 440.14,-73.55"/>
<polygon fill="#63b8ff" stroke="#63b8ff" points="440.31,-70.03 429.87,-71.84 439.16,-76.93 440.31,-70.03"/>
</a>
</g>
</g>
<!-- Node11 -->
<g id="Node000011" class="node">
<title>Node11</title>
<g id="a_Node000011"><a xlink:title=" ">
<polygon fill="#e0e0e0" stroke="#999999" points="515,-19 458,-19 458,0 515,0 515,-19"/>
<text text-anchor="middle" x="486.5" y="-7" font-family="Ubuntu Mono" font-size="10.00">typeinfo</text>
</a>
</g>
</g>
<!-- Node2&#45;&gt;Node11 -->
<g id="edge10_Node000002_Node000011" class="edge">
<title>Node2&#45;&gt;Node11</title>
<g id="a_edge10_Node000002_Node000011"><a xlink:title=" ">
<path fill="none" stroke="#63b8ff" d="M1259.79,-117.59C1073.06,-114.4 503.43,-102.39 476.5,-74 465.13,-62.01 470.26,-42.65 476.6,-28.45"/>
<polygon fill="#63b8ff" stroke="#63b8ff" points="479.88,-29.72 481.22,-19.21 473.62,-26.59 479.88,-29.72"/>
</a>
</g>
</g>
<!-- Node12 -->
<g id="Node000012" class="node">
<title>Node12</title>
<g id="a_Node000012"><a xlink:title=" ">
<polygon fill="#e0e0e0" stroke="#999999" points="615.5,-74 563.5,-74 563.5,-55 615.5,-55 615.5,-74"/>
<text text-anchor="middle" x="589.5" y="-62" font-family="Ubuntu Mono" font-size="10.00">cassert</text>
</a>
</g>
</g>
<!-- Node2&#45;&gt;Node12 -->
<g id="edge11_Node000002_Node000012" class="edge">
<title>Node2&#45;&gt;Node12</title>
<g id="a_edge11_Node000002_Node000012"><a xlink:title=" ">
<path fill="none" stroke="#63b8ff" d="M1259.64,-118.17C1141.17,-116.77 865.52,-109.73 625.73,-73.91"/>
<polygon fill="#63b8ff" stroke="#63b8ff" points="626.19,-70.44 615.78,-72.4 625.14,-77.36 626.19,-70.44"/>
</a>
</g>
</g>
<!-- Node13 -->
<g id="Node000013" class="node">
<title>Node13</title>
<g id="a_Node000013"><a xlink:href="doubleEq_8h.html" target="_top" xlink:title=" ">
<polygon fill="white" stroke="#666666" points="705,-74 634,-74 634,-55 705,-55 705,-74"/>
<text text-anchor="middle" x="669.5" y="-62" font-family="Ubuntu Mono" font-size="10.00">doubleEq.h</text>
</a>
</g>
</g>
<!-- Node2&#45;&gt;Node13 -->
<g id="edge12_Node000002_Node000013" class="edge">
<title>Node2&#45;&gt;Node13</title>
<g id="a_edge12_Node000002_Node000013"><a xlink:title=" ">
<path fill="none" stroke="#63b8ff" d="M1259.86,-116.48C1153.28,-112.3 920.56,-100.88 715.51,-74.13"/>
<polygon fill="#63b8ff" stroke="#63b8ff" points="715.83,-70.64 705.46,-72.8 714.92,-77.58 715.83,-70.64"/>
</a>
</g>
</g>
<!-- Node14 -->
<g id="Node000014" class="node">
<title>Node14</title>
<g id="a_Node000014"><a xlink:href="Id_8h.html" target="_top" xlink:title=" ">
<polygon fill="white" stroke="#666666" points="758,-74 723,-74 723,-55 758,-55 758,-74"/>
<text text-anchor="middle" x="740.5" y="-62" font-family="Ubuntu Mono" font-size="10.00">Id.h</text>
</a>
</g>
</g>
<!-- Node2&#45;&gt;Node14 -->
<g id="edge13_Node000002_Node000014" class="edge">
<title>Node2&#45;&gt;Node14</title>
<g id="a_edge13_Node000002_Node000014"><a xlink:title=" ">
<path fill="none" stroke="#63b8ff" d="M1259.86,-118.28C1160.18,-116.93 951.43,-109.85 768.33,-73.93"/>
<polygon fill="#63b8ff" stroke="#63b8ff" points="768.75,-70.44 758.25,-71.92 767.38,-77.31 768.75,-70.44"/>
</a>
</g>
</g>
<!-- Node15 -->
<g id="Node000015" class="node">
<title>Node15</title>
<g id="a_Node000015"><a xlink:href="ObjId_8h.html" target="_top" xlink:title=" ">
<polygon fill="white" stroke="#666666" points="827,-74 776,-74 776,-55 827,-55 827,-74"/>
<text text-anchor="middle" x="801.5" y="-62" font-family="Ubuntu Mono" font-size="10.00">ObjId.h</text>
</a>
</g>
</g>
<!-- Node2&#45;&gt;Node15 -->
<g id="edge14_Node000002_Node000015" class="edge">
<title>Node2&#45;&gt;Node15</title>
<g id="a_edge14_Node000002_Node000015"><a xlink:title=" ">
<path fill="none" stroke="#63b8ff" d="M1259.76,-115.99C1170.33,-111.53 994.61,-100.27 836.91,-74"/>
<polygon fill="#63b8ff" stroke="#63b8ff" points="837.47,-70.54 827.03,-72.33 836.31,-77.45 837.47,-70.54"/>
</a>
</g>
</g>
<!-- Node16 -->
<g id="Node000016" class="node">
<title>Node16</title>
<g id="a_Node000016"><a xlink:href="Cinfo_8h.html" target="_top" xlink:title=" ">
<polygon fill="white" stroke="#666666" points="896,-74 845,-74 845,-55 896,-55 896,-74"/>
<text text-anchor="middle" x="870.5" y="-62" font-family="Ubuntu Mono" font-size="10.00">Cinfo.h</text>
</a>
</g>
</g>
<!-- Node2&#45;&gt;Node16 -->
<g id="edge15_Node000002_Node000016" class="edge">
<title>Node2&#45;&gt;Node16</title>
<g id="a_edge15_Node000002_Node000016"><a xlink:title=" ">
<path fill="none" stroke="#63b8ff" d="M1259.69,-114.6C1181.24,-108.85 1037.93,-96.48 905.92,-73.83"/>
<polygon fill="#63b8ff" stroke="#63b8ff" points="906.48,-70.37 896.03,-72.11 905.29,-77.27 906.48,-70.37"/>
</a>
</g>
</g>
<!-- Node17 -->
<g id="Node000017" class="node">
<title>Node17</title>
<g id="a_Node000017"><a xlink:href="basecode_2Finfo_8h.html" target="_top" xlink:title=" ">
<polygon fill="white" stroke="#666666" points="964.5,-74 914.5,-74 914.5,-55 964.5,-55 964.5,-74"/>
<text text-anchor="middle" x="939.5" y="-62" font-family="Ubuntu Mono" font-size="10.00">Finfo.h</text>
</a>
</g>
</g>
<!-- Node2&#45;&gt;Node17 -->
<g id="edge16_Node000002_Node000017" class="edge">
<title>Node2&#45;&gt;Node17</title>
<g id="a_edge16_Node000002_Node000017"><a xlink:title=" ">
<path fill="none" stroke="#63b8ff" d="M1259.88,-113.04C1193.06,-106.36 1080.42,-93.65 974.57,-74"/>
<polygon fill="#63b8ff" stroke="#63b8ff" points="975.15,-70.55 964.68,-72.14 973.86,-77.43 975.15,-70.55"/>
</a>
</g>
</g>
<!-- Node18 -->
<g id="Node000018" class="node">
<title>Node18</title>
<g id="a_Node000018"><a xlink:href="DestFinfo_8h.html" target="_top" xlink:title=" ">
<polygon fill="white" stroke="#666666" points="1054.5,-74 982.5,-74 982.5,-55 1054.5,-55 1054.5,-74"/>
<text text-anchor="middle" x="1018.5" y="-62" font-family="Ubuntu Mono" font-size="10.00">DestFinfo.h</text>
</a>
</g>
</g>
<!-- Node2&#45;&gt;Node18 -->
<g id="edge17_Node000002_Node000018" class="edge">
<title>Node2&#45;&gt;Node18</title>
<g id="a_edge17_Node000002_Node000018"><a xlink:title=" ">
<path fill="none" stroke="#63b8ff" d="M1268.14,-109.93C1218.89,-101.49 1141.48,-88.11 1065.12,-74.27"/>
<polygon fill="#63b8ff" stroke="#63b8ff" points="1065.31,-70.75 1054.84,-72.41 1064.06,-77.64 1065.31,-70.75"/>
</a>
</g>
</g>
<!-- Node19 -->
<g id="Node000019" class="node">
<title>Node19</title>
<g id="a_Node000019"><a xlink:href="ProcInfo_8h.html" target="_top" xlink:title=" ">
<polygon fill="white" stroke="#666666" points="1138,-74 1073,-74 1073,-55 1138,-55 1138,-74"/>
<text text-anchor="middle" x="1105.5" y="-62" font-family="Ubuntu Mono" font-size="10.00">ProcInfo.h</text>
</a>
</g>
</g>
<!-- Node2&#45;&gt;Node19 -->
<g id="edge18_Node000002_Node000019" class="edge">
<title>Node2&#45;&gt;Node19</title>
<g id="a_edge18_Node000002_Node000019"><a xlink:title=" ">
<path fill="none" stroke="#63b8ff" d="M1284.28,-109.98C1247.2,-100.76 1188,-86.03 1147.97,-76.07"/>
<polygon fill="#63b8ff" stroke="#63b8ff" points="1148.79,-72.66 1138.24,-73.65 1147.1,-79.46 1148.79,-72.66"/>
</a>
</g>
</g>
<!-- Node20 -->
<g id="Node000020" class="node">
<title>Node20</title>
<g id="a_Node000020"><a xlink:href="MsgFuncBinding_8h.html" target="_top" xlink:title=" ">
<polygon fill="white" stroke="#666666" points="1261,-74 1156,-74 1156,-55 1261,-55 1261,-74"/>
<text text-anchor="middle" x="1208.5" y="-62" font-family="Ubuntu Mono" font-size="10.00">MsgFuncBinding.h</text>
</a>
</g>
</g>
<!-- Node2&#45;&gt;Node20 -->
<g id="edge19_Node000002_Node000020" class="edge">
<title>Node2&#45;&gt;Node20</title>
<g id="a_edge19_Node000002_Node000020"><a xlink:title=" ">
<path fill="none" stroke="#63b8ff" d="M1300.83,-109.98C1283.21,-101.5 1255.92,-88.35 1235.57,-78.54"/>
<polygon fill="#63b8ff" stroke="#63b8ff" points="1237.02,-75.36 1226.49,-74.17 1233.98,-81.66 1237.02,-75.36"/>
</a>
</g>
</g>
<!-- Node21 -->
<g id="Node000021" class="node">
<title>Node21</title>
<g id="a_Node000021"><a xlink:href="Msg_8h.html" target="_top" xlink:title=" ">
<polygon fill="white" stroke="#666666" points="1358,-74 1279,-74 1279,-55 1358,-55 1358,-74"/>
<text text-anchor="middle" x="1318.5" y="-62" font-family="Ubuntu Mono" font-size="10.00">../msg/Msg.h</text>
</a>
</g>
</g>
<!-- Node2&#45;&gt;Node21 -->
<g id="edge20_Node000002_Node000021" class="edge">
<title>Node2&#45;&gt;Node21</title>
<g id="a_edge20_Node000002_Node000021"><a xlink:title=" ">
<path fill="none" stroke="#63b8ff" d="M1318.5,-109.75C1318.5,-102.8 1318.5,-92.85 1318.5,-84.13"/>
<polygon fill="#63b8ff" stroke="#63b8ff" points="1322,-84.09 1318.5,-74.09 1315,-84.09 1322,-84.09"/>
</a>
</g>
</g>
<!-- Node22 -->
<g id="Node000022" class="node">
<title>Node22</title>
<g id="a_Node000022"><a xlink:href="Dinfo_8h.html" target="_top" xlink:title=" ">
<polygon fill="white" stroke="#666666" points="1428.5,-74 1376.5,-74 1376.5,-55 1428.5,-55 1428.5,-74"/>
<text text-anchor="middle" x="1402.5" y="-62" font-family="Ubuntu Mono" font-size="10.00">Dinfo.h</text>
</a>
</g>
</g>
<!-- Node2&#45;&gt;Node22 -->
<g id="edge21_Node000002_Node000022" class="edge">
<title>Node2&#45;&gt;Node22</title>
<g id="a_edge21_Node000002_Node000022"><a xlink:title=" ">
<path fill="none" stroke="#63b8ff" d="M1332,-109.98C1344.9,-101.84 1364.6,-89.41 1379.9,-79.76"/>
<polygon fill="#63b8ff" stroke="#63b8ff" points="1382.17,-82.47 1388.76,-74.17 1378.43,-76.55 1382.17,-82.47"/>
</a>
</g>
</g>
<!-- Node23 -->
<g id="Node000023" class="node">
<title>Node23</title>
<g id="a_Node000023"><a xlink:href="MsgDigest_8h.html" target="_top" xlink:title=" ">
<polygon fill="white" stroke="#666666" points="1524,-74 1447,-74 1447,-55 1524,-55 1524,-74"/>
<text text-anchor="middle" x="1485.5" y="-62" font-family="Ubuntu Mono" font-size="10.00">MsgDigest.h</text>
</a>
</g>
</g>
<!-- Node2&#45;&gt;Node23 -->
<g id="edge22_Node000002_Node000023" class="edge">
<title>Node2&#45;&gt;Node23</title>
<g id="a_edge22_Node000002_Node000023"><a xlink:title=" ">
<path fill="none" stroke="#63b8ff" d="M1345.33,-109.98C1373.37,-101.09 1417.55,-87.07 1448.8,-77.15"/>
<polygon fill="#63b8ff" stroke="#63b8ff" points="1449.99,-80.44 1458.46,-74.08 1447.87,-73.77 1449.99,-80.44"/>
</a>
</g>
</g>
<!-- Node24 -->
<g id="Node000024" class="node">
<title>Node24</title>
<g id="a_Node000024"><a xlink:href="Element_8h.html" target="_top" xlink:title=" ">
<polygon fill="white" stroke="#666666" points="1608.5,-74 1542.5,-74 1542.5,-55 1608.5,-55 1608.5,-74"/>
<text text-anchor="middle" x="1575.5" y="-62" font-family="Ubuntu Mono" font-size="10.00">Element.h</text>
</a>
</g>
</g>
<!-- Node2&#45;&gt;Node24 -->
<g id="edge23_Node000002_Node000024" class="edge">
<title>Node2&#45;&gt;Node24</title>
<g id="a_edge23_Node000002_Node000024"><a xlink:title=" ">
<path fill="none" stroke="#63b8ff" d="M1359.79,-109.98C1407.12,-100.23 1484.32,-84.3 1532.39,-74.39"/>
<polygon fill="#63b8ff" stroke="#63b8ff" points="1533.39,-77.76 1542.48,-72.31 1531.98,-70.9 1533.39,-77.76"/>
</a>
</g>
</g>
<!-- Node25 -->
<g id="Node000025" class="node">
<title>Node25</title>
<g id="a_Node000025"><a xlink:href="DataElement_8h.html" target="_top" xlink:title=" ">
<polygon fill="white" stroke="#666666" points="1716,-74 1627,-74 1627,-55 1716,-55 1716,-74"/>
<text text-anchor="middle" x="1671.5" y="-62" font-family="Ubuntu Mono" font-size="10.00">DataElement.h</text>
</a>
</g>
</g>
<!-- Node2&#45;&gt;Node25 -->
<g id="edge24_Node000002_Node000025" class="edge">
<title>Node2&#45;&gt;Node25</title>
<g id="a_edge24_Node000002_Node000025"><a xlink:title=" ">
<path fill="none" stroke="#63b8ff" d="M1376.68,-109.99C1434.77,-101.46 1526.89,-87.84 1616.63,-74.12"/>
<polygon fill="#63b8ff" stroke="#63b8ff" points="1617.36,-77.55 1626.72,-72.58 1616.3,-70.63 1617.36,-77.55"/>
</a>
</g>
</g>
<!-- Node26 -->
<g id="Node000026" class="node">
<title>Node26</title>
<g id="a_Node000026"><a xlink:href="GlobalDataElement_8h.html" target="_top" xlink:title=" ">
<polygon fill="white" stroke="#666666" points="1855,-74 1734,-74 1734,-55 1855,-55 1855,-74"/>
<text text-anchor="middle" x="1794.5" y="-62" font-family="Ubuntu Mono" font-size="10.00">GlobalDataElement.h</text>
</a>
</g>
</g>
<!-- Node2&#45;&gt;Node26 -->
<g id="edge25_Node000002_Node000026" class="edge">
<title>Node2&#45;&gt;Node26</title>
<g id="a_edge25_Node000002_Node000026"><a xlink:title=" ">
<path fill="none" stroke="#63b8ff" d="M1377.07,-111.64C1381.95,-111.08 1386.81,-110.53 1391.5,-110 1536.69,-93.72 1575.53,-91.23 1723.98,-74.16"/>
<polygon fill="#63b8ff" stroke="#63b8ff" points="1724.39,-77.64 1733.92,-73.02 1723.59,-70.68 1724.39,-77.64"/>
</a>
</g>
</g>
<!-- Node27 -->
<g id="Node000027" class="node">
<title>Node27</title>
<g id="a_Node000027"><a xlink:href="LocalDataElement_8h.html" target="_top" xlink:title=" ">
<polygon fill="white" stroke="#666666" points="1988,-74 1873,-74 1873,-55 1988,-55 1988,-74"/>
<text text-anchor="middle" x="1930.5" y="-62" font-family="Ubuntu Mono" font-size="10.00">LocalDataElement.h</text>
</a>
</g>
</g>
<!-- Node2&#45;&gt;Node27 -->
<g id="edge26_Node000002_Node000027" class="edge">
<title>Node2&#45;&gt;Node27</title>
<g id="a_edge26_Node000002_Node000027"><a xlink:title=" ">
<path fill="none" stroke="#63b8ff" d="M1377.05,-111.47C1381.94,-110.95 1386.8,-110.45 1391.5,-110 1598.08,-90.12 1653.06,-95.3 1862.82,-74.12"/>
<polygon fill="#63b8ff" stroke="#63b8ff" points="1863.33,-77.59 1872.93,-73.09 1862.62,-70.62 1863.33,-77.59"/>
</a>
</g>
</g>
<!-- Node28 -->
<g id="Node000028" class="node">
<title>Node28</title>
<g id="a_Node000028"><a xlink:href="Eref_8h.html" target="_top" xlink:title=" ">
<polygon fill="white" stroke="#666666" points="2050.5,-74 2006.5,-74 2006.5,-55 2050.5,-55 2050.5,-74"/>
<text text-anchor="middle" x="2028.5" y="-62" font-family="Ubuntu Mono" font-size="10.00">Eref.h</text>
</a>
</g>
</g>
<!-- Node2&#45;&gt;Node28 -->
<g id="edge27_Node000002_Node000028" class="edge">
<title>Node2&#45;&gt;Node28</title>
<g id="a_edge27_Node000002_Node000028"><a xlink:title=" ">
<path fill="none" stroke="#63b8ff" d="M1377.04,-111.39C1381.93,-110.88 1386.8,-110.41 1391.5,-110 1656.99,-86.68 1729.53,-117.15 1996.29,-73.83"/>
<polygon fill="#63b8ff" stroke="#63b8ff" points="1996.97,-77.27 2006.27,-72.19 1995.84,-70.36 1996.97,-77.27"/>
</a>
</g>
</g>
<!-- Node29 -->
<g id="Node000029" class="node">
<title>Node29</title>
<g id="a_Node000029"><a xlink:href="Conv_8h.html" target="_top" xlink:title=" ">
<polygon fill="#fff0f0" stroke="red" points="2118.5,-74 2068.5,-74 2068.5,-55 2118.5,-55 2118.5,-74"/>
<text text-anchor="middle" x="2093.5" y="-62" font-family="Ubuntu Mono" font-size="10.00">Conv.h</text>
</a>
</g>
</g>
<!-- Node2&#45;&gt;Node29 -->
<g id="edge28_Node000002_Node000029" class="edge">
<title>Node2&#45;&gt;Node29</title>
<g id="a_edge28_Node000002_Node000029"><a xlink:title=" ">
<path fill="none" stroke="#63b8ff" d="M1377.04,-111.36C1381.93,-110.86 1386.8,-110.4 1391.5,-110 1684.42,-85.08 1763.72,-117.51 2058.24,-73.87"/>
<polygon fill="#63b8ff" stroke="#63b8ff" points="2058.99,-77.3 2068.36,-72.35 2057.95,-70.38 2058.99,-77.3"/>
</a>
</g>
</g>
<!-- Node31 -->
<g id="Node000031" class="node">
<title>Node31</title>
<g id="a_Node000031"><a xlink:href="SrcFinfo_8h.html" target="_top" xlink:title=" ">
<polygon fill="white" stroke="#666666" points="2214,-19 2149,-19 2149,0 2214,0 2214,-19"/>
<text text-anchor="middle" x="2181.5" y="-7" font-family="Ubuntu Mono" font-size="10.00">SrcFinfo.h</text>
</a>
</g>
</g>
<!-- Node2&#45;&gt;Node31 -->
<g id="edge29_Node000002_Node000031" class="edge">
<title>Node2&#45;&gt;Node31</title>
<g id="a_edge29_Node000002_Node000031"><a xlink:title=" ">
<path fill="none" stroke="#63b8ff" d="M1377.04,-111.33C1381.93,-110.84 1386.8,-110.39 1391.5,-110 1473.1,-103.26 2054.04,-110.16 2127.5,-74 2147.52,-64.14 2163.02,-43.12 2172.17,-27.96"/>
<polygon fill="#63b8ff" stroke="#63b8ff" points="2175.36,-29.44 2177.26,-19.02 2169.27,-25.98 2175.36,-29.44"/>
</a>
</g>
</g>
<!-- Node32 -->
<g id="Node000032" class="node">
<title>Node32</title>
<g id="a_Node000032"><a xlink:href="OpFuncBase_8h.html" target="_top" xlink:title=" ">
<polygon fill="white" stroke="#666666" points="2260.5,-74 2174.5,-74 2174.5,-55 2260.5,-55 2260.5,-74"/>
<text text-anchor="middle" x="2217.5" y="-62" font-family="Ubuntu Mono" font-size="10.00">OpFuncBase.h</text>
</a>
</g>
</g>
<!-- Node2&#45;&gt;Node32 -->
<g id="edge30_Node000002_Node000032" class="edge">
<title>Node2&#45;&gt;Node32</title>
<g id="a_edge30_Node000002_Node000032"><a xlink:title=" ">
<path fill="none" stroke="#63b8ff" d="M1377.04,-111.32C1381.92,-110.83 1386.79,-110.38 1391.5,-110 1732.52,-82.2 1819.97,-107.27 2160.5,-74 2161.76,-73.88 2163.04,-73.75 2164.32,-73.61"/>
<polygon fill="#63b8ff" stroke="#63b8ff" points="2164.78,-77.08 2174.3,-72.41 2163.95,-70.13 2164.78,-77.08"/>
</a>
</g>
</g>
<!-- Node33 -->
<g id="Node000033" class="node">
<title>Node33</title>
<g id="a_Node000033"><a xlink:href="HopFunc_8h.html" target="_top" xlink:title=" ">
<polygon fill="white" stroke="#666666" points="2346.5,-74 2278.5,-74 2278.5,-55 2346.5,-55 2346.5,-74"/>
<text text-anchor="middle" x="2312.5" y="-62" font-family="Ubuntu Mono" font-size="10.00">HopFunc.h</text>
</a>
</g>
</g>
<!-- Node2&#45;&gt;Node33 -->
<g id="edge32_Node000002_Node000033" class="edge">
<title>Node2&#45;&gt;Node33</title>
<g id="a_edge32_Node000002_Node000033"><a xlink:title=" ">
<path fill="none" stroke="#63b8ff" d="M1377.03,-111.29C1381.92,-110.81 1386.79,-110.37 1391.5,-110 1777.52,-79.66 1879.92,-119.32 2268.2,-73.94"/>
<polygon fill="#63b8ff" stroke="#63b8ff" points="2268.79,-77.4 2278.31,-72.75 2267.97,-70.45 2268.79,-77.4"/>
</a>
</g>
</g>
<!-- Node34 -->
<g id="Node000034" class="node">
<title>Node34</title>
<g id="a_Node000034"><a xlink:href="SetGet_8h.html" target="_top" xlink:title=" ">
<polygon fill="white" stroke="#666666" points="545,-74 486,-74 486,-55 545,-55 545,-74"/>
<text text-anchor="middle" x="515.5" y="-62" font-family="Ubuntu Mono" font-size="10.00">SetGet.h</text>
</a>
</g>
</g>
<!-- Node2&#45;&gt;Node34 -->
<g id="edge33_Node000002_Node000034" class="edge">
<title>Node2&#45;&gt;Node34</title>
<g id="a_edge33_Node000002_Node000034"><a xlink:title=" ">
<path fill="none" stroke="#63b8ff" d="M1259.73,-118.2C1132.78,-116.88 823.46,-110.03 555.15,-73.84"/>
<polygon fill="#63b8ff" stroke="#63b8ff" points="555.61,-70.36 545.22,-72.48 554.66,-77.3 555.61,-70.36"/>
</a>
</g>
</g>
<!-- Node35 -->
<g id="Node000035" class="node">
<title>Node35</title>
<g id="a_Node000035"><a xlink:href="OpFunc_8h.html" target="_top" xlink:title=" ">
<polygon fill="white" stroke="#666666" points="2757.5,-74 2695.5,-74 2695.5,-55 2757.5,-55 2757.5,-74"/>
<text text-anchor="middle" x="2726.5" y="-62" font-family="Ubuntu Mono" font-size="10.00">OpFunc.h</text>
</a>
</g>
</g>
<!-- Node2&#45;&gt;Node35 -->
<g id="edge35_Node000002_Node000035" class="edge">
<title>Node2&#45;&gt;Node35</title>
<g id="a_edge35_Node000002_Node000035"><a xlink:title=" ">
<path fill="none" stroke="#63b8ff" d="M1377.03,-111.23C1381.92,-110.76 1386.79,-110.34 1391.5,-110 1962.43,-68.91 2113.01,-141.26 2684.99,-73.93"/>
<polygon fill="#63b8ff" stroke="#63b8ff" points="2685.63,-77.38 2695.15,-72.72 2684.8,-70.43 2685.63,-77.38"/>
</a>
</g>
</g>
<!-- Node36 -->
<g id="Node000036" class="node">
<title>Node36</title>
<g id="a_Node000036"><a xlink:href="EpFunc_8h.html" target="_top" xlink:title=" ">
<polygon fill="white" stroke="#666666" points="2424.5,-74 2364.5,-74 2364.5,-55 2424.5,-55 2424.5,-74"/>
<text text-anchor="middle" x="2394.5" y="-62" font-family="Ubuntu Mono" font-size="10.00">EpFunc.h</text>
</a>
</g>
</g>
<!-- Node2&#45;&gt;Node36 -->
<g id="edge36_Node000002_Node000036" class="edge">
<title>Node2&#45;&gt;Node36</title>
<g id="a_edge36_Node000002_Node000036"><a xlink:title=" ">
<path fill="none" stroke="#63b8ff" d="M1377.03,-111.27C1381.92,-110.8 1386.79,-110.36 1391.5,-110 1815.65,-77.44 1928.4,-127.07 2354.24,-73.9"/>
<polygon fill="#63b8ff" stroke="#63b8ff" points="2354.87,-77.35 2364.36,-72.62 2354,-70.4 2354.87,-77.35"/>
</a>
</g>
</g>
<!-- Node37 -->
<g id="Node000037" class="node">
<title>Node37</title>
<g id="a_Node000037"><a xlink:href="ProcOpFunc_8h.html" target="_top" xlink:title=" ">
<polygon fill="white" stroke="#666666" points="2526,-74 2443,-74 2443,-55 2526,-55 2526,-74"/>
<text text-anchor="middle" x="2484.5" y="-62" font-family="Ubuntu Mono" font-size="10.00">ProcOpFunc.h</text>
</a>
</g>
</g>
<!-- Node2&#45;&gt;Node37 -->
<g id="edge37_Node000002_Node000037" class="edge">
<title>Node2&#45;&gt;Node37</title>
<g id="a_edge37_Node000002_Node000037"><a xlink:title=" ">
<path fill="none" stroke="#63b8ff" d="M1377.03,-111.26C1381.92,-110.78 1386.79,-110.35 1391.5,-110 1850.19,-75.43 1970.66,-119.53 2432.53,-73.93"/>
<polygon fill="#63b8ff" stroke="#63b8ff" points="2433.21,-77.38 2442.81,-72.9 2432.51,-70.41 2433.21,-77.38"/>
</a>
</g>
</g>
<!-- Node32&#45;&gt;Node31 -->
<g id="edge31_Node000032_Node000031" class="edge">
<title>Node32&#45;&gt;Node31</title>
<g id="a_edge31_Node000032_Node000031"><a xlink:title=" ">
<path fill="none" stroke="#63b8ff" d="M2211.56,-54.75C2206.52,-47.34 2199.16,-36.5 2192.99,-27.41"/>
<polygon fill="#63b8ff" stroke="#63b8ff" points="2195.85,-25.39 2187.33,-19.09 2190.06,-29.33 2195.85,-25.39"/>
</a>
</g>
</g>
<!-- Node34&#45;&gt;Node11 -->
<g id="edge34_Node000034_Node000011" class="edge">
<title>Node34&#45;&gt;Node11</title>
<g id="a_edge34_Node000034_Node000011"><a xlink:title=" ">
<path fill="none" stroke="#63b8ff" d="M510.71,-54.75C506.74,-47.49 500.97,-36.95 496.07,-27.98"/>
<polygon fill="#63b8ff" stroke="#63b8ff" points="499.07,-26.18 491.2,-19.09 492.93,-29.54 499.07,-26.18"/>
</a>
</g>
</g>
<!-- Node49&#45;&gt;Node2 -->
<g id="edge43_Node000049_Node000002" class="edge">
<title>Node49&#45;&gt;Node2</title>
<g id="a_edge43_Node000049_Node000002"><a xlink:title=" ">
<path fill="none" stroke="#63b8ff" d="M1221.98,-164.98C1240.48,-156.46 1269.18,-143.23 1290.48,-133.41"/>
<polygon fill="#63b8ff" stroke="#63b8ff" points="1292.07,-136.53 1299.69,-129.17 1289.14,-130.18 1292.07,-136.53"/>
</a>
</g>
</g>
<!-- Node50&#45;&gt;Node49 -->
<g id="edge45_Node000050_Node000049" class="edge">
<title>Node50&#45;&gt;Node49</title>
<g id="a_edge45_Node000050_Node000049"><a xlink:title=" ">
<path fill="none" stroke="#63b8ff" d="M1113.69,-219.98C1130.75,-211.54 1157.13,-198.47 1176.9,-188.68"/>
<polygon fill="#63b8ff" stroke="#63b8ff" points="1178.59,-191.75 1186,-184.17 1175.48,-185.47 1178.59,-191.75"/>
</a>
</g>
</g>
<!-- Node51&#45;&gt;Node50 -->
<g id="edge47_Node000051_Node000050" class="edge">
<title>Node51&#45;&gt;Node50</title>
<g id="a_edge47_Node000051_Node000050"><a xlink:title=" ">
<path fill="none" stroke="#63b8ff" d="M1055.59,-274.75C1062.66,-267.11 1073.09,-255.82 1081.65,-246.56"/>
<polygon fill="#63b8ff" stroke="#63b8ff" points="1084.34,-248.81 1088.56,-239.09 1079.2,-244.06 1084.34,-248.81"/>
</a>
</g>
</g>
<!-- Node52&#45;&gt;Node49 -->
<g id="edge49_Node000052_Node000049" class="edge">
<title>Node52&#45;&gt;Node49</title>
<g id="a_edge49_Node000052_Node000049"><a xlink:title=" ">
<path fill="none" stroke="#63b8ff" d="M1156.19,-329.99C1161.6,-312.81 1174.2,-272.74 1184.5,-239 1189.13,-223.85 1194.27,-206.63 1198.04,-193.95"/>
<polygon fill="#63b8ff" stroke="#63b8ff" points="1201.46,-194.72 1200.95,-184.14 1194.75,-192.73 1201.46,-194.72"/>
</a>
</g>
</g>
<!-- Node52&#45;&gt;Node50 -->
<g id="edge50_Node000052_Node000050" class="edge">
<title>Node52&#45;&gt;Node50</title>
<g id="a_edge50_Node000052_Node000050"><a xlink:title=" ">
<path fill="none" stroke="#63b8ff" d="M1153.27,-329.76C1152.6,-317 1150.05,-292.86 1140.5,-275 1134.46,-263.7 1124.65,-253.37 1115.83,-245.51"/>
<polygon fill="#63b8ff" stroke="#63b8ff" points="1118.04,-242.8 1108.13,-239.04 1113.53,-248.15 1118.04,-242.8"/>
</a>
</g>
</g>
<!-- Node52&#45;&gt;Node51 -->
<g id="edge51_Node000052_Node000051" class="edge">
<title>Node52&#45;&gt;Node51</title>
<g id="a_edge51_Node000052_Node000051"><a xlink:title=" ">
<path fill="none" stroke="#63b8ff" d="M1136.47,-329.98C1119.57,-321.54 1093.44,-308.47 1073.86,-298.68"/>
<polygon fill="#63b8ff" stroke="#63b8ff" points="1075.35,-295.51 1064.84,-294.17 1072.22,-301.77 1075.35,-295.51"/>
</a>
</g>
</g>
<!-- Node54&#45;&gt;Node2 -->
<g id="edge54_Node000054_Node000002" class="edge">
<title>Node54&#45;&gt;Node2</title>
<g id="a_edge54_Node000054_Node000002"><a xlink:title=" ">
<path fill="none" stroke="#63b8ff" d="M1296.78,-384.9C1307.23,-367.07 1329.5,-324.46 1329.5,-285.5 1329.5,-285.5 1329.5,-285.5 1329.5,-228.5 1329.5,-197.03 1324.82,-160.66 1321.56,-139.18"/>
<polygon fill="#63b8ff" stroke="#63b8ff" points="1325,-138.48 1319.98,-129.15 1318.08,-139.57 1325,-138.48"/>
</a>
</g>
</g>
<!-- Node54&#45;&gt;Node35 -->
<g id="edge60_Node000054_Node000035" class="edge">
<title>Node54&#45;&gt;Node35</title>
<g id="a_edge60_Node000054_Node000035"><a xlink:title=" ">
<path fill="none" stroke="#63b8ff" d="M1312.68,-384.95C1345.64,-370.06 1405.5,-336.07 1405.5,-285.5 1405.5,-285.5 1405.5,-285.5 1405.5,-173.5 1405.5,-33.6 2500.03,-91.94 2684.95,-73.79"/>
<polygon fill="#63b8ff" stroke="#63b8ff" points="2685.61,-77.23 2695.13,-72.58 2684.78,-70.28 2685.61,-77.23"/>
</a>
</g>
</g>
<!-- Node54&#45;&gt;Node47 -->
<g id="edge55_Node000054_Node000047" class="edge">
<title>Node54&#45;&gt;Node47</title>
<g id="a_edge55_Node000054_Node000047"><a xlink:title=" ">
<path fill="none" stroke="#63b8ff" d="M1249.71,-386.79C1192.87,-377.66 1090.74,-361.26 1024.57,-350.63"/>
<polygon fill="#63b8ff" stroke="#63b8ff" points="1025.1,-347.17 1014.67,-349.04 1023.99,-354.08 1025.1,-347.17"/>
</a>
</g>
</g>
<!-- Node54&#45;&gt;Node49 -->
<g id="edge56_Node000054_Node000049" class="edge">
<title>Node54&#45;&gt;Node49</title>
<g id="a_edge56_Node000054_Node000049"><a xlink:title=" ">
<path fill="none" stroke="#63b8ff" d="M1288.05,-384.95C1275.05,-352.74 1228.82,-238.23 1210.78,-193.55"/>
<polygon fill="#63b8ff" stroke="#63b8ff" points="1214.01,-192.19 1207.02,-184.22 1207.52,-194.81 1214.01,-192.19"/>
</a>
</g>
</g>
<!-- Node54&#45;&gt;Node50 -->
<g id="edge57_Node000054_Node000050" class="edge">
<title>Node54&#45;&gt;Node50</title>
<g id="a_edge57_Node000054_Node000050"><a xlink:title=" ">
<path fill="none" stroke="#63b8ff" d="M1284.65,-384.75C1274.45,-371.99 1254.32,-347.84 1234.5,-330 1203.51,-302.11 1192.33,-299.38 1158.5,-275 1144.62,-265 1128.98,-253.77 1116.87,-245.09"/>
<polygon fill="#63b8ff" stroke="#63b8ff" points="1118.56,-242 1108.4,-239.02 1114.49,-247.69 1118.56,-242"/>
</a>
</g>
</g>
<!-- Node54&#45;&gt;Node51 -->
<g id="edge58_Node000054_Node000051" class="edge">
<title>Node54&#45;&gt;Node51</title>
<g id="a_edge58_Node000054_Node000051"><a xlink:title=" ">
<path fill="none" stroke="#63b8ff" d="M1249.79,-389.76C1193.96,-383.97 1098.88,-371.13 1072.5,-349 1059.32,-337.94 1053.05,-319 1050.09,-304.68"/>
<polygon fill="#63b8ff" stroke="#63b8ff" points="1053.47,-303.7 1048.36,-294.42 1046.57,-304.86 1053.47,-303.7"/>
</a>
</g>
</g>
<!-- Node54&#45;&gt;Node52 -->
<g id="edge59_Node000054_Node000052" class="edge">
<title>Node54&#45;&gt;Node52</title>
<g id="a_edge59_Node000054_Node000052"><a xlink:title=" ">
<path fill="none" stroke="#63b8ff" d="M1269.33,-384.98C1246.73,-376.3 1211.44,-362.75 1185.75,-352.88"/>
<polygon fill="#63b8ff" stroke="#63b8ff" points="1186.67,-349.49 1176.08,-349.17 1184.16,-356.02 1186.67,-349.49"/>
</a>
</g>
</g>
<!-- Node72&#45;&gt;Node2 -->
<g id="edge64_Node000072_Node000002" class="edge">
<title>Node72&#45;&gt;Node2</title>
<g id="a_edge64_Node000072_Node000002"><a xlink:title=" ">
<path fill="none" stroke="#63b8ff" d="M1440.9,-439.82C1441.72,-421.49 1443.5,-377.45 1443.5,-340.5 1443.5,-340.5 1443.5,-340.5 1443.5,-228.5 1443.5,-180.32 1389.67,-148.87 1352.66,-132.93"/>
<polygon fill="#63b8ff" stroke="#63b8ff" points="1353.78,-129.61 1343.2,-129.03 1351.11,-136.08 1353.78,-129.61"/>
</a>
</g>
</g>
<!-- Node72&#45;&gt;Node54 -->
<g id="edge65_Node000072_Node000054" class="edge">
<title>Node72&#45;&gt;Node54</title>
<g id="a_edge65_Node000072_Node000054"><a xlink:title=" ">
<path fill="none" stroke="#63b8ff" d="M1416.56,-439.98C1391.94,-431.23 1353.38,-417.51 1325.58,-407.62"/>
<polygon fill="#63b8ff" stroke="#63b8ff" points="1326.47,-404.22 1315.88,-404.17 1324.12,-410.82 1326.47,-404.22"/>
</a>
</g>
</g>
<!-- Node72&#45;&gt;Node70 -->
<g id="edge66_Node000072_Node000070" class="edge">
<title>Node72&#45;&gt;Node70</title>
<g id="a_edge66_Node000072_Node000070"><a xlink:title=" ">
<path fill="none" stroke="#63b8ff" d="M1452.71,-439.98C1464.28,-431.92 1481.88,-419.65 1495.66,-410.03"/>
<polygon fill="#63b8ff" stroke="#63b8ff" points="1497.87,-412.76 1504.07,-404.17 1493.86,-407.02 1497.87,-412.76"/>
</a>
</g>
</g>
<!-- Node72&#45;&gt;Node71 -->
<g id="edge67_Node000072_Node000071" class="edge">
<title>Node72&#45;&gt;Node71</title>
<g id="a_edge67_Node000072_Node000071"><a xlink:title=" ">
<path fill="none" stroke="#63b8ff" d="M1469.58,-439.98C1500.1,-431.05 1548.26,-416.94 1582.16,-407.02"/>
<polygon fill="#63b8ff" stroke="#63b8ff" points="1583.58,-410.25 1592.19,-404.08 1581.61,-403.53 1583.58,-410.25"/>
</a>
</g>
</g>
</g>
</svg>
