<?xml version="1.0" encoding="UTF-8" standalone="no"?>
<!DOCTYPE svg PUBLIC "-//W3C//DTD SVG 1.1//EN"
 "http://www.w3.org/Graphics/SVG/1.1/DTD/svg11.dtd">
<!-- Generated by graphviz version 2.43.0 (0)
 -->
<!-- Title: Graphical Class Hierarchy Pages: 1 -->
<svg width="336pt" height="27pt"
 viewBox="0.00 0.00 336.00 27.00" xmlns="http://www.w3.org/2000/svg" xmlns:xlink="http://www.w3.org/1999/xlink">
<g id="graph0" class="graph" transform="scale(1 1) rotate(0) translate(4 23)">
<title>Graphical Class Hierarchy</title>
<!-- Node0 -->
<g id="Node000000" class="node">
<title>Node0</title>
<g id="a_Node000000"><a xlink:href="classDinfoBase.html" target="_top" xlink:title=" ">
<polygon fill="white" stroke="#666666" points="67,-19 0,-19 0,0 67,0 67,-19"/>
<text text-anchor="middle" x="33.5" y="-7" font-family="Ubuntu Mono" font-size="10.00">DinfoBase</text>
</a>
</g>
</g>
<!-- Node1 -->
<g id="Node000001" class="node">
<title>Node1</title>
<g id="a_Node000001"><a xlink:href="classDinfo.html" target="_top" xlink:title=" ">
<polygon fill="white" stroke="#666666" points="176,-19 103,-19 103,0 176,0 176,-19"/>
<text text-anchor="middle" x="139.5" y="-7" font-family="Ubuntu Mono" font-size="10.00">Dinfo&lt; D &gt;</text>
</a>
</g>
</g>
<!-- Node0&#45;&gt;Node1 -->
<g id="edge26_Node000000_Node000001" class="edge">
<title>Node0&#45;&gt;Node1</title>
<g id="a_edge26_Node000000_Node000001"><a xlink:title=" ">
<path fill="none" stroke="#63b8ff" d="M77.23,-9.5C85.71,-9.5 94.53,-9.5 102.74,-9.5"/>
<polygon fill="#63b8ff" stroke="#63b8ff" points="77.12,-6 67.12,-9.5 77.12,-13 77.12,-6"/>
</a>
</g>
</g>
<!-- Node2 -->
<g id="Node000002" class="node">
<title>Node2</title>
<g id="a_Node000002"><a xlink:href="classZeroSizeDinfo.html" target="_top" xlink:title=" ">
<polygon fill="white" stroke="#666666" points="328,-19 212,-19 212,0 328,0 328,-19"/>
<text text-anchor="middle" x="270" y="-7" font-family="Ubuntu Mono" font-size="10.00">ZeroSizeDinfo&lt; D &gt;</text>
</a>
</g>
</g>
<!-- Node1&#45;&gt;Node2 -->
<g id="edge27_Node000001_Node000002" class="edge">
<title>Node1&#45;&gt;Node2</title>
<g id="a_edge27_Node000001_Node000002"><a xlink:title=" ">
<path fill="none" stroke="#63b8ff" d="M186.41,-9.5C194.61,-9.5 203.25,-9.5 211.72,-9.5"/>
<polygon fill="#63b8ff" stroke="#63b8ff" points="186.29,-6 176.29,-9.5 186.29,-13 186.29,-6"/>
</a>
</g>
</g>
</g>
</svg>
