<?xml version="1.0" encoding="UTF-8" standalone="no"?>
<!DOCTYPE svg PUBLIC "-//W3C//DTD SVG 1.1//EN"
 "http://www.w3.org/Graphics/SVG/1.1/DTD/svg11.dtd">
<!-- Generated by graphviz version 2.43.0 (0)
 -->
<!-- Title: /home/runner/work/mooseneuro.github.io/mooseneuro.github.io/docs/moose&#45;core/builtins/MooseParser.h Pages: 1 -->
<!--zoomable 203 -->

<svg id="main" version="1.1" xmlns="http://www.w3.org/2000/svg" xmlns:xlink="http://www.w3.org/1999/xlink" xml:space="preserve" onload="init(evt)">
<style type="text/css"><![CDATA[
.node, .edge {opacity: 0.7;}
.node.selected, .edge.selected {opacity: 1;}
.edge:hover path { stroke: red; }
.edge:hover polygon { stroke: red; fill: red; }
]]></style>

<defs>
  <circle id="rim" cx="0" cy="0" r="7"/>
  <circle id="rim2" cx="0" cy="0" r="3.5"/>
  <g id="zoomPlus">
    <use xlink:href="#rim" fill="#404040"><set attributeName="fill" to="#808080" begin="zoomplus.mouseover" end="zoomplus.mouseout"/></use>
    <path d="M-4,0h8M0,-4v8" fill="none" stroke="white" stroke-width="1.5" pointer-events="none"/>
  </g>
  <g id="zoomMin">
    <use xlink:href="#rim" fill="#404040"><set attributeName="fill" to="#808080" begin="zoomminus.mouseover" end="zoomminus.mouseout"/></use>
    <path d="M-4,0h8" fill="none" stroke="white" stroke-width="1.5" pointer-events="none"/>
  </g>
  <g id="arrowUp" transform="translate(30 24)">
    <use xlink:href="#rim"/>
    <path pointer-events="none" fill="none" stroke="white" stroke-width="1.5" d="M0,-3.0v7 M-2.5,-0.5L0,-3.0L2.5,-0.5"/>
  </g>
  <g id="arrowRight" transform="rotate(90) translate(36 -43)">
    <use xlink:href="#rim"/>
    <path pointer-events="none" fill="none" stroke="white" stroke-width="1.5" d="M0,-3.0v7 M-2.5,-0.5L0,-3.0L2.5,-0.5"/>
  </g>
  <g id="arrowDown" transform="rotate(180) translate(-30 -48)">
    <use xlink:href="#rim"/>
    <path pointer-events="none" fill="none" stroke="white" stroke-width="1.5" d="M0,-3.0v7 M-2.5,-0.5L0,-3.0L2.5,-0.5"/>
  </g>
  <g id="arrowLeft" transform="rotate(270) translate(-36 17)">
    <use xlink:href="#rim"/>
    <path pointer-events="none" fill="none" stroke="white" stroke-width="1.5" d="M0,-3.0v7 M-2.5,-0.5L0,-3.0L2.5,-0.5"/>
  </g>
  <g id="resetDef">
    <use xlink:href="#rim2" fill="#404040"><set attributeName="fill" to="#808080" begin="reset.mouseover" end="reset.mouseout"/></use>
  </g>
</defs>
<script type="application/ecmascript">
var viewWidth = 2350;
var viewHeight = 203;
var sectionId = 'dynsection-1';
</script>
<script type="application/ecmascript" xlink:href="svg.min.js"/>
<svg id="graph" class="graph">
<g id="viewport">
<title>/home/runner/work/mooseneuro.github.io/mooseneuro.github.io/docs/moose&#45;core/builtins/MooseParser.h</title>
<!-- Node1 -->
<g id="Node000001" class="node">
<title>Node1</title>
<g id="a_Node000001"><a xlink:title=" ">
<polygon fill="#999999" stroke="#666666" points="1044,-195 826,-195 826,-154 1044,-154 1044,-195"/>
<text text-anchor="start" x="834" y="-183" font-family="Ubuntu Mono" font-size="10.00">/home/runner/work/mooseneuro.github.io</text>
<text text-anchor="start" x="834" y="-172" font-family="Ubuntu Mono" font-size="10.00">/mooseneuro.github.io/docs/moose</text>
<text text-anchor="middle" x="935" y="-161" font-family="Ubuntu Mono" font-size="10.00">&#45;core/builtins/MooseParser.h</text>
</a>
</g>
</g>
<!-- Node2 -->
<g id="Node000002" class="node">
<title>Node2</title>
<g id="a_Node000002"><a xlink:href="HHGate_8cpp.html" target="_top" xlink:title=" ">
<polygon fill="white" stroke="#666666" points="218,-118 0,-118 0,-77 218,-77 218,-118"/>
<text text-anchor="start" x="8" y="-106" font-family="Ubuntu Mono" font-size="10.00">/home/runner/work/mooseneuro.github.io</text>
<text text-anchor="start" x="8" y="-95" font-family="Ubuntu Mono" font-size="10.00">/mooseneuro.github.io/docs/moose</text>
<text text-anchor="middle" x="109" y="-84" font-family="Ubuntu Mono" font-size="10.00">&#45;core/biophysics/HHGate.cpp</text>
</a>
</g>
</g>
<!-- Node1&#45;&gt;Node2 -->
<g id="edge1_Node000001_Node000002" class="edge">
<title>Node1&#45;&gt;Node2</title>
<g id="a_edge1_Node000001_Node000002"><a xlink:title=" ">
<path fill="none" stroke="#63b8ff" d="M815.46,-167.26C674.45,-159.17 433.12,-143.06 227,-118 224.11,-117.65 221.19,-117.28 218.24,-116.89"/>
<polygon fill="#63b8ff" stroke="#63b8ff" points="815.67,-170.77 825.85,-167.85 816.07,-163.79 815.67,-170.77"/>
</a>
</g>
</g>
<!-- Node3 -->
<g id="Node000003" class="node">
<title>Node3</title>
<g id="a_Node000003"><a xlink:href="Neuron_8cpp.html" target="_top" xlink:title=" ">
<polygon fill="white" stroke="#666666" points="454,-118 236,-118 236,-77 454,-77 454,-118"/>
<text text-anchor="start" x="244" y="-106" font-family="Ubuntu Mono" font-size="10.00">/home/runner/work/mooseneuro.github.io</text>
<text text-anchor="start" x="244" y="-95" font-family="Ubuntu Mono" font-size="10.00">/mooseneuro.github.io/docs/moose</text>
<text text-anchor="middle" x="345" y="-84" font-family="Ubuntu Mono" font-size="10.00">&#45;core/biophysics/Neuron.cpp</text>
</a>
</g>
</g>
<!-- Node1&#45;&gt;Node3 -->
<g id="edge2_Node000001_Node000003" class="edge">
<title>Node1&#45;&gt;Node3</title>
<g id="a_edge2_Node000001_Node000003"><a xlink:title=" ">
<path fill="none" stroke="#63b8ff" d="M815.62,-161.02C720.08,-150.66 582.74,-134.92 463,-118 460.12,-117.59 457.21,-117.17 454.26,-116.74"/>
<polygon fill="#63b8ff" stroke="#63b8ff" points="815.29,-164.51 825.61,-162.1 816.04,-157.55 815.29,-164.51"/>
</a>
</g>
</g>
<!-- Node4 -->
<g id="Node000004" class="node">
<title>Node4</title>
<g id="a_Node000004"><a xlink:href="Function_8cpp.html" target="_top" xlink:title=" ">
<polygon fill="white" stroke="#666666" points="690,-118 472,-118 472,-77 690,-77 690,-118"/>
<text text-anchor="start" x="480" y="-106" font-family="Ubuntu Mono" font-size="10.00">/home/runner/work/mooseneuro.github.io</text>
<text text-anchor="start" x="480" y="-95" font-family="Ubuntu Mono" font-size="10.00">/mooseneuro.github.io/docs/moose</text>
<text text-anchor="middle" x="581" y="-84" font-family="Ubuntu Mono" font-size="10.00">&#45;core/builtins/Function.cpp</text>
</a>
</g>
</g>
<!-- Node1&#45;&gt;Node4 -->
<g id="edge3_Node000001_Node000004" class="edge">
<title>Node1&#45;&gt;Node4</title>
<g id="a_edge3_Node000001_Node000004"><a xlink:title=" ">
<path fill="none" stroke="#63b8ff" d="M832.97,-151.88C782.58,-141.21 722.24,-128.42 673.24,-118.04"/>
<polygon fill="#63b8ff" stroke="#63b8ff" points="832.41,-155.34 842.91,-153.99 833.86,-148.49 832.41,-155.34"/>
</a>
</g>
</g>
<!-- Node5 -->
<g id="Node000005" class="node">
<title>Node5</title>
<g id="a_Node000005"><a xlink:href="MooseParser_8cpp.html" target="_top" xlink:title=" ">
<polygon fill="white" stroke="#666666" points="926,-118 708,-118 708,-77 926,-77 926,-118"/>
<text text-anchor="start" x="716" y="-106" font-family="Ubuntu Mono" font-size="10.00">/home/runner/work/mooseneuro.github.io</text>
<text text-anchor="start" x="716" y="-95" font-family="Ubuntu Mono" font-size="10.00">/mooseneuro.github.io/docs/moose</text>
<text text-anchor="middle" x="817" y="-84" font-family="Ubuntu Mono" font-size="10.00">&#45;core/builtins/MooseParser.cpp</text>
</a>
</g>
</g>
<!-- Node1&#45;&gt;Node5 -->
<g id="edge4_Node000001_Node000005" class="edge">
<title>Node1&#45;&gt;Node5</title>
<g id="a_edge4_Node000001_Node000005"><a xlink:title=" ">
<path fill="none" stroke="#63b8ff" d="M895.46,-148.37C879.98,-138.53 862.49,-127.41 847.95,-118.17"/>
<polygon fill="#63b8ff" stroke="#63b8ff" points="893.99,-151.58 904.3,-153.99 897.74,-145.67 893.99,-151.58"/>
</a>
</g>
</g>
<!-- Node6 -->
<g id="Node000006" class="node">
<title>Node6</title>
<g id="a_Node000006"><a xlink:href="Variable_8cpp.html" target="_top" xlink:title=" ">
<polygon fill="white" stroke="#666666" points="1162,-118 944,-118 944,-77 1162,-77 1162,-118"/>
<text text-anchor="start" x="952" y="-106" font-family="Ubuntu Mono" font-size="10.00">/home/runner/work/mooseneuro.github.io</text>
<text text-anchor="start" x="952" y="-95" font-family="Ubuntu Mono" font-size="10.00">/mooseneuro.github.io/docs/moose</text>
<text text-anchor="middle" x="1053" y="-84" font-family="Ubuntu Mono" font-size="10.00">&#45;core/builtins/Variable.cpp</text>
</a>
</g>
</g>
<!-- Node1&#45;&gt;Node6 -->
<g id="edge5_Node000001_Node000006" class="edge">
<title>Node1&#45;&gt;Node6</title>
<g id="a_edge5_Node000001_Node000006"><a xlink:title=" ">
<path fill="none" stroke="#63b8ff" d="M974.54,-148.37C990.02,-138.53 1007.51,-127.41 1022.05,-118.17"/>
<polygon fill="#63b8ff" stroke="#63b8ff" points="972.26,-145.67 965.7,-153.99 976.01,-151.58 972.26,-145.67"/>
</a>
</g>
</g>
<!-- Node7 -->
<g id="Node000007" class="node">
<title>Node7</title>
<g id="a_Node000007"><a xlink:href="FuncTerm_8h.html" target="_top" xlink:title=" ">
<polygon fill="white" stroke="#666666" points="1398,-118 1180,-118 1180,-77 1398,-77 1398,-118"/>
<text text-anchor="start" x="1188" y="-106" font-family="Ubuntu Mono" font-size="10.00">/home/runner/work/mooseneuro.github.io</text>
<text text-anchor="start" x="1188" y="-95" font-family="Ubuntu Mono" font-size="10.00">/mooseneuro.github.io/docs/moose</text>
<text text-anchor="middle" x="1289" y="-84" font-family="Ubuntu Mono" font-size="10.00">&#45;core/ksolve/FuncTerm.h</text>
</a>
</g>
</g>
<!-- Node1&#45;&gt;Node7 -->
<g id="edge6_Node000001_Node000007" class="edge">
<title>Node1&#45;&gt;Node7</title>
<g id="a_edge6_Node000001_Node000007"><a xlink:title=" ">
<path fill="none" stroke="#63b8ff" d="M1037.03,-151.88C1087.42,-141.21 1147.76,-128.42 1196.76,-118.04"/>
<polygon fill="#63b8ff" stroke="#63b8ff" points="1036.14,-148.49 1027.09,-153.99 1037.59,-155.34 1036.14,-148.49"/>
</a>
</g>
</g>
<!-- Node17 -->
<g id="Node000017" class="node">
<title>Node17</title>
<g id="a_Node000017"><a xlink:href="testKsolve_8cpp.html" target="_top" xlink:title=" ">
<polygon fill="white" stroke="#666666" points="2342,-41 2124,-41 2124,0 2342,0 2342,-41"/>
<text text-anchor="start" x="2132" y="-29" font-family="Ubuntu Mono" font-size="10.00">/home/runner/work/mooseneuro.github.io</text>
<text text-anchor="start" x="2132" y="-18" font-family="Ubuntu Mono" font-size="10.00">/mooseneuro.github.io/docs/moose</text>
<text text-anchor="middle" x="2233" y="-7" font-family="Ubuntu Mono" font-size="10.00">&#45;core/ksolve/testKsolve.cpp</text>
</a>
</g>
</g>
<!-- Node1&#45;&gt;Node17 -->
<g id="edge17_Node000001_Node000017" class="edge">
<title>Node1&#45;&gt;Node17</title>
<g id="a_edge17_Node000001_Node000017"><a xlink:title=" ">
<path fill="none" stroke="#63b8ff" d="M1054.49,-168.83C1173.65,-162.51 1347.32,-148.33 1407,-118 1429.15,-106.74 1422.51,-87.55 1445,-77 1580,-13.69 1966.78,-57.18 2115,-41 2117.89,-40.68 2120.82,-40.35 2123.77,-39.99"/>
<polygon fill="#63b8ff" stroke="#63b8ff" points="1054.01,-165.35 1044.21,-169.36 1054.38,-172.34 1054.01,-165.35"/>
</a>
</g>
</g>
<!-- Node18 -->
<g id="Node000018" class="node">
<title>Node18</title>
<g id="a_Node000018"><a xlink:href="SeqSynHandler_8cpp.html" target="_top" xlink:title=" ">
<polygon fill="white" stroke="#666666" points="1672,-118 1454,-118 1454,-77 1672,-77 1672,-118"/>
<text text-anchor="start" x="1462" y="-106" font-family="Ubuntu Mono" font-size="10.00">/home/runner/work/mooseneuro.github.io</text>
<text text-anchor="start" x="1462" y="-95" font-family="Ubuntu Mono" font-size="10.00">/mooseneuro.github.io/docs/moose</text>
<text text-anchor="middle" x="1563" y="-84" font-family="Ubuntu Mono" font-size="10.00">&#45;core/synapse/SeqSynHandler.cpp</text>
</a>
</g>
</g>
<!-- Node1&#45;&gt;Node18 -->
<g id="edge18_Node000001_Node000018" class="edge">
<title>Node1&#45;&gt;Node18</title>
<g id="a_edge18_Node000001_Node000018"><a xlink:title=" ">
<path fill="none" stroke="#63b8ff" d="M1054.11,-162.03C1156.56,-151.78 1308.23,-135.68 1440,-118 1444.5,-117.4 1449.09,-116.76 1453.72,-116.1"/>
<polygon fill="#63b8ff" stroke="#63b8ff" points="1053.64,-158.56 1044.04,-163.04 1054.33,-165.52 1053.64,-158.56"/>
</a>
</g>
</g>
<!-- Node8 -->
<g id="Node000008" class="node">
<title>Node8</title>
<g id="a_Node000008"><a xlink:href="FuncTerm_8cpp.html" target="_top" xlink:title=" ">
<polygon fill="white" stroke="#666666" points="218,-41 0,-41 0,0 218,0 218,-41"/>
<text text-anchor="start" x="8" y="-29" font-family="Ubuntu Mono" font-size="10.00">/home/runner/work/mooseneuro.github.io</text>
<text text-anchor="start" x="8" y="-18" font-family="Ubuntu Mono" font-size="10.00">/mooseneuro.github.io/docs/moose</text>
<text text-anchor="middle" x="109" y="-7" font-family="Ubuntu Mono" font-size="10.00">&#45;core/ksolve/FuncTerm.cpp</text>
</a>
</g>
</g>
<!-- Node7&#45;&gt;Node8 -->
<g id="edge7_Node000007_Node000008" class="edge">
<title>Node7&#45;&gt;Node8</title>
<g id="a_edge7_Node000007_Node000008"><a xlink:title=" ">
<path fill="none" stroke="#63b8ff" d="M1169.53,-76.93C751.51,-35.47 641.36,-82.97 227,-41 224.11,-40.71 221.18,-40.39 218.23,-40.05"/>
<polygon fill="#63b8ff" stroke="#63b8ff" points="1169.47,-80.44 1179.77,-77.95 1170.17,-73.47 1169.47,-80.44"/>
</a>
</g>
</g>
<!-- Node9 -->
<g id="Node000009" class="node">
<title>Node9</title>
<g id="a_Node000009"><a xlink:href="Gsolve_8cpp.html" target="_top" xlink:title=" ">
<polygon fill="white" stroke="#666666" points="454,-41 236,-41 236,0 454,0 454,-41"/>
<text text-anchor="start" x="244" y="-29" font-family="Ubuntu Mono" font-size="10.00">/home/runner/work/mooseneuro.github.io</text>
<text text-anchor="start" x="244" y="-18" font-family="Ubuntu Mono" font-size="10.00">/mooseneuro.github.io/docs/moose</text>
<text text-anchor="middle" x="345" y="-7" font-family="Ubuntu Mono" font-size="10.00">&#45;core/ksolve/Gsolve.cpp</text>
</a>
</g>
</g>
<!-- Node7&#45;&gt;Node9 -->
<g id="edge8_Node000007_Node000009" class="edge">
<title>Node7&#45;&gt;Node9</title>
<g id="a_edge8_Node000007_Node000009"><a xlink:title=" ">
<path fill="none" stroke="#63b8ff" d="M1169.47,-76.91C855.96,-43.93 772.9,-74.38 463,-41 460.11,-40.69 457.18,-40.35 454.23,-40"/>
<polygon fill="#63b8ff" stroke="#63b8ff" points="1169.45,-80.42 1179.77,-78 1170.2,-73.46 1169.45,-80.42"/>
</a>
</g>
</g>
<!-- Node10 -->
<g id="Node000010" class="node">
<title>Node10</title>
<g id="a_Node000010"><a xlink:href="GssaVoxelPools_8cpp.html" target="_top" xlink:title=" ">
<polygon fill="white" stroke="#666666" points="690,-41 472,-41 472,0 690,0 690,-41"/>
<text text-anchor="start" x="480" y="-29" font-family="Ubuntu Mono" font-size="10.00">/home/runner/work/mooseneuro.github.io</text>
<text text-anchor="start" x="480" y="-18" font-family="Ubuntu Mono" font-size="10.00">/mooseneuro.github.io/docs/moose</text>
<text text-anchor="middle" x="581" y="-7" font-family="Ubuntu Mono" font-size="10.00">&#45;core/ksolve/GssaVoxelPools.cpp</text>
</a>
</g>
</g>
<!-- Node7&#45;&gt;Node10 -->
<g id="edge9_Node000007_Node000010" class="edge">
<title>Node7&#45;&gt;Node10</title>
<g id="a_edge9_Node000007_Node000010"><a xlink:title=" ">
<path fill="none" stroke="#63b8ff" d="M1169.67,-76.9C960.39,-52.26 904.61,-65.78 699,-41 696.11,-40.65 693.19,-40.28 690.24,-39.9"/>
<polygon fill="#63b8ff" stroke="#63b8ff" points="1169.41,-80.39 1179.76,-78.1 1170.24,-73.44 1169.41,-80.39"/>
</a>
</g>
</g>
<!-- Node11 -->
<g id="Node000011" class="node">
<title>Node11</title>
<g id="a_Node000011"><a xlink:href="KsolveBase_8cpp.html" target="_top" xlink:title=" ">
<polygon fill="white" stroke="#666666" points="926,-41 708,-41 708,0 926,0 926,-41"/>
<text text-anchor="start" x="716" y="-29" font-family="Ubuntu Mono" font-size="10.00">/home/runner/work/mooseneuro.github.io</text>
<text text-anchor="start" x="716" y="-18" font-family="Ubuntu Mono" font-size="10.00">/mooseneuro.github.io/docs/moose</text>
<text text-anchor="middle" x="817" y="-7" font-family="Ubuntu Mono" font-size="10.00">&#45;core/ksolve/KsolveBase.cpp</text>
</a>
</g>
</g>
<!-- Node7&#45;&gt;Node11 -->
<g id="edge10_Node000007_Node000011" class="edge">
<title>Node7&#45;&gt;Node11</title>
<g id="a_edge10_Node000007_Node000011"><a xlink:title=" ">
<path fill="none" stroke="#63b8ff" d="M1169.64,-76.79C1064.54,-60.17 1036.62,-57.15 935,-41 932.13,-40.54 929.22,-40.08 926.28,-39.61"/>
<polygon fill="#63b8ff" stroke="#63b8ff" points="1169.29,-80.28 1179.72,-78.39 1170.39,-73.37 1169.29,-80.28"/>
</a>
</g>
</g>
<!-- Node12 -->
<g id="Node000012" class="node">
<title>Node12</title>
<g id="a_Node000012"><a xlink:href="SteadyStateBoost_8cpp.html" target="_top" xlink:title=" ">
<polygon fill="white" stroke="#666666" points="1162,-41 944,-41 944,0 1162,0 1162,-41"/>
<text text-anchor="start" x="952" y="-29" font-family="Ubuntu Mono" font-size="10.00">/home/runner/work/mooseneuro.github.io</text>
<text text-anchor="start" x="952" y="-18" font-family="Ubuntu Mono" font-size="10.00">/mooseneuro.github.io/docs/moose</text>
<text text-anchor="middle" x="1053" y="-7" font-family="Ubuntu Mono" font-size="10.00">&#45;core/ksolve/SteadyStateBoost.cpp</text>
</a>
</g>
</g>
<!-- Node7&#45;&gt;Node12 -->
<g id="edge11_Node000007_Node000012" class="edge">
<title>Node7&#45;&gt;Node12</title>
<g id="a_edge11_Node000007_Node000012"><a xlink:title=" ">
<path fill="none" stroke="#63b8ff" d="M1218.03,-73.94C1185.05,-63.46 1146.2,-51.12 1114.49,-41.04"/>
<polygon fill="#63b8ff" stroke="#63b8ff" points="1217.02,-77.3 1227.61,-76.99 1219.14,-70.63 1217.02,-77.3"/>
</a>
</g>
</g>
<!-- Node13 -->
<g id="Node000013" class="node">
<title>Node13</title>
<g id="a_Node000013"><a xlink:href="SteadyStateGsl_8cpp.html" target="_top" xlink:title=" ">
<polygon fill="white" stroke="#666666" points="1398,-41 1180,-41 1180,0 1398,0 1398,-41"/>
<text text-anchor="start" x="1188" y="-29" font-family="Ubuntu Mono" font-size="10.00">/home/runner/work/mooseneuro.github.io</text>
<text text-anchor="start" x="1188" y="-18" font-family="Ubuntu Mono" font-size="10.00">/mooseneuro.github.io/docs/moose</text>
<text text-anchor="middle" x="1289" y="-7" font-family="Ubuntu Mono" font-size="10.00">&#45;core/ksolve/SteadyStateGsl.cpp</text>
</a>
</g>
</g>
<!-- Node7&#45;&gt;Node13 -->
<g id="edge12_Node000007_Node000013" class="edge">
<title>Node7&#45;&gt;Node13</title>
<g id="a_edge12_Node000007_Node000013"><a xlink:title=" ">
<path fill="none" stroke="#63b8ff" d="M1289,-66.69C1289,-58.08 1289,-48.9 1289,-41.07"/>
<polygon fill="#63b8ff" stroke="#63b8ff" points="1285.5,-66.79 1289,-76.79 1292.5,-66.79 1285.5,-66.79"/>
</a>
</g>
</g>
<!-- Node14 -->
<g id="Node000014" class="node">
<title>Node14</title>
<g id="a_Node000014"><a xlink:href="Stoich_8cpp.html" target="_top" xlink:title=" ">
<polygon fill="white" stroke="#666666" points="1634,-41 1416,-41 1416,0 1634,0 1634,-41"/>
<text text-anchor="start" x="1424" y="-29" font-family="Ubuntu Mono" font-size="10.00">/home/runner/work/mooseneuro.github.io</text>
<text text-anchor="start" x="1424" y="-18" font-family="Ubuntu Mono" font-size="10.00">/mooseneuro.github.io/docs/moose</text>
<text text-anchor="middle" x="1525" y="-7" font-family="Ubuntu Mono" font-size="10.00">&#45;core/ksolve/Stoich.cpp</text>
</a>
</g>
</g>
<!-- Node7&#45;&gt;Node14 -->
<g id="edge13_Node000007_Node000014" class="edge">
<title>Node7&#45;&gt;Node14</title>
<g id="a_edge13_Node000007_Node000014"><a xlink:title=" ">
<path fill="none" stroke="#63b8ff" d="M1359.97,-73.94C1392.95,-63.46 1431.8,-51.12 1463.51,-41.04"/>
<polygon fill="#63b8ff" stroke="#63b8ff" points="1358.86,-70.63 1350.39,-76.99 1360.98,-77.3 1358.86,-70.63"/>
</a>
</g>
</g>
<!-- Node15 -->
<g id="Node000015" class="node">
<title>Node15</title>
<g id="a_Node000015"><a xlink:href="VoxelPools_8cpp.html" target="_top" xlink:title=" ">
<polygon fill="white" stroke="#666666" points="1870,-41 1652,-41 1652,0 1870,0 1870,-41"/>
<text text-anchor="start" x="1660" y="-29" font-family="Ubuntu Mono" font-size="10.00">/home/runner/work/mooseneuro.github.io</text>
<text text-anchor="start" x="1660" y="-18" font-family="Ubuntu Mono" font-size="10.00">/mooseneuro.github.io/docs/moose</text>
<text text-anchor="middle" x="1761" y="-7" font-family="Ubuntu Mono" font-size="10.00">&#45;core/ksolve/VoxelPools.cpp</text>
</a>
</g>
</g>
<!-- Node7&#45;&gt;Node15 -->
<g id="edge14_Node000007_Node000015" class="edge">
<title>Node7&#45;&gt;Node15</title>
<g id="a_edge14_Node000007_Node000015"><a xlink:title=" ">
<path fill="none" stroke="#63b8ff" d="M1408.19,-77.6C1409.47,-77.4 1410.74,-77.2 1412,-77 1514.65,-60.87 1540.41,-57.47 1643,-41 1645.87,-40.54 1648.78,-40.07 1651.71,-39.6"/>
<polygon fill="#63b8ff" stroke="#63b8ff" points="1407.65,-74.14 1398.31,-79.15 1408.74,-81.06 1407.65,-74.14"/>
</a>
</g>
</g>
<!-- Node16 -->
<g id="Node000016" class="node">
<title>Node16</title>
<g id="a_Node000016"><a xlink:href="VoxelPoolsBase_8cpp.html" target="_top" xlink:title=" ">
<polygon fill="white" stroke="#666666" points="2106,-41 1888,-41 1888,0 2106,0 2106,-41"/>
<text text-anchor="start" x="1896" y="-29" font-family="Ubuntu Mono" font-size="10.00">/home/runner/work/mooseneuro.github.io</text>
<text text-anchor="start" x="1896" y="-18" font-family="Ubuntu Mono" font-size="10.00">/mooseneuro.github.io/docs/moose</text>
<text text-anchor="middle" x="1997" y="-7" font-family="Ubuntu Mono" font-size="10.00">&#45;core/ksolve/VoxelPoolsBase.cpp</text>
</a>
</g>
</g>
<!-- Node7&#45;&gt;Node16 -->
<g id="edge15_Node000007_Node000016" class="edge">
<title>Node7&#45;&gt;Node16</title>
<g id="a_edge15_Node000007_Node000016"><a xlink:title=" ">
<path fill="none" stroke="#63b8ff" d="M1408.18,-77.46C1409.46,-77.3 1410.73,-77.15 1412,-77 1618.75,-52.68 1672.33,-65.99 1879,-41 1881.89,-40.65 1884.81,-40.28 1887.76,-39.9"/>
<polygon fill="#63b8ff" stroke="#63b8ff" points="1407.73,-73.99 1398.25,-78.71 1408.61,-80.93 1407.73,-73.99"/>
</a>
</g>
</g>
<!-- Node7&#45;&gt;Node17 -->
<g id="edge16_Node000007_Node000017" class="edge">
<title>Node7&#45;&gt;Node17</title>
<g id="a_edge16_Node000007_Node000017"><a xlink:title=" ">
<path fill="none" stroke="#63b8ff" d="M1408.17,-77.41C1409.45,-77.27 1410.73,-77.13 1412,-77 1723.16,-44.46 1803.95,-74.56 2115,-41 2117.89,-40.69 2120.82,-40.35 2123.77,-40"/>
<polygon fill="#63b8ff" stroke="#63b8ff" points="1407.77,-73.93 1398.24,-78.57 1408.57,-80.89 1407.77,-73.93"/>
</a>
</g>
</g>
</g>
</svg>

<g id="navigator" transform="translate(0 0)" fill="#404254">
  <rect fill="#f2f5e9" fill-opacity="0.5" stroke="#606060" stroke-width=".5" x="0" y="0" width="60" height="60"/>
  <use id="zoomplus" xlink:href="#zoomPlus" x="17" y="9" onmousedown="handleZoom(evt,'in')"/>
  <use id="zoomminus" xlink:href="#zoomMin" x="42" y="9" onmousedown="handleZoom(evt,'out')"/>
  <use id="reset" xlink:href="#resetDef" x="30" y="36" onmousedown="handleReset()"/>
   <use id="arrowup" xlink:href="#arrowUp" x="0" y="0" onmousedown="handlePan(0,-1)"/>
  <use id="arrowright" xlink:href="#arrowRight" x="0" y="0" onmousedown="handlePan(1,0)"/>
  <use id="arrowdown" xlink:href="#arrowDown" x="0" y="0" onmousedown="handlePan(0,1)"/>
  <use id="arrowleft" xlink:href="#arrowLeft" x="0" y="0" onmousedown="handlePan(-1,0)"/>
</g>
<svg viewBox="0 0 15 15" width="100%" height="30px" preserveAspectRatio="xMaxYMin meet">
 <g id="arrow_out" transform="scale(0.3 0.3)">
  <a xlink:href="MooseParser_8h__dep__incl_org.svg" target="_base">
   <rect id="button" ry="5" rx="5" y="6" x="6" height="38" width="38"
        fill="#f2f5e9" fill-opacity="0.5" stroke="#606060" stroke-width="1.0"/>
   <path id="arrow"
     d="M 11.500037,31.436501 C 11.940474,20.09759 22.043105,11.32322 32.158766,21.979434 L 37.068811,17.246167 C 37.068811,17.246167 37.088388,32 37.088388,32 L 22.160133,31.978069 C 22.160133,31.978069 26.997745,27.140456 26.997745,27.140456 C 18.528582,18.264221 13.291696,25.230495 11.500037,31.436501 z"
     style="fill:#404040;"/>
  </a>
 </g>
</svg>

<style type='text/css'>
<![CDATA[
[data-mouse-over-selected='false'] { opacity: 0.7; }
[data-mouse-over-selected='true']  { opacity: 1.0; }
]]>
</style>
<script type="application/ecmascript"><![CDATA[
document.addEventListener('DOMContentLoaded', (event) => {
  highlightEdges();
  highlightAdjacentNodes();
});
]]></script>
</svg>
