<?xml version="1.0" encoding="UTF-8" standalone="no"?>
<!DOCTYPE svg PUBLIC "-//W3C//DTD SVG 1.1//EN"
 "http://www.w3.org/Graphics/SVG/1.1/DTD/svg11.dtd">
<!-- Generated by graphviz version 2.43.0 (0)
 -->
<!-- Title: /home/runner/work/mooseneuro.github.io/mooseneuro.github.io/docs/moose&#45;core/builtins/MooseParser.cpp Pages: 1 -->
<svg width="3686pt" height="280pt"
 viewBox="0.00 0.00 3686.01 280.00" xmlns="http://www.w3.org/2000/svg" xmlns:xlink="http://www.w3.org/1999/xlink">
<g id="graph0" class="graph" transform="scale(1 1) rotate(0) translate(4 276)">
<title>/home/runner/work/mooseneuro.github.io/mooseneuro.github.io/docs/moose&#45;core/builtins/MooseParser.cpp</title>
<!-- Node1 -->
<g id="Node000001" class="node">
<title>Node1</title>
<g id="a_Node000001"><a xlink:title=" ">
<polygon fill="#999999" stroke="#666666" points="3318,-272 3100,-272 3100,-231 3318,-231 3318,-272"/>
<text text-anchor="start" x="3108" y="-260" font-family="Ubuntu Mono" font-size="10.00">/home/runner/work/mooseneuro.github.io</text>
<text text-anchor="start" x="3108" y="-249" font-family="Ubuntu Mono" font-size="10.00">/mooseneuro.github.io/docs/moose</text>
<text text-anchor="middle" x="3209" y="-238" font-family="Ubuntu Mono" font-size="10.00">&#45;core/builtins/MooseParser.cpp</text>
</a>
</g>
</g>
<!-- Node2 -->
<g id="Node000002" class="node">
<title>Node2</title>
<g id="a_Node000002"><a xlink:title=" ">
<polygon fill="#e0e0e0" stroke="#999999" points="3163.5,-74 3116.5,-74 3116.5,-55 3163.5,-55 3163.5,-74"/>
<text text-anchor="middle" x="3140" y="-62" font-family="Ubuntu Mono" font-size="10.00">vector</text>
</a>
</g>
</g>
<!-- Node1&#45;&gt;Node2 -->
<g id="edge1_Node000001_Node000002" class="edge">
<title>Node1&#45;&gt;Node2</title>
<g id="a_edge1_Node000001_Node000002"><a xlink:title=" ">
<path fill="none" stroke="#63b8ff" d="M3120.88,-230.92C3100.54,-222.75 3080.62,-211.22 3066,-195 3040.15,-166.31 3027.48,-142.71 3048,-110 3054.84,-99.1 3083.45,-86.27 3106.97,-77.19"/>
<polygon fill="#63b8ff" stroke="#63b8ff" points="3108.21,-80.47 3116.34,-73.67 3105.75,-73.92 3108.21,-80.47"/>
</a>
</g>
</g>
<!-- Node3 -->
<g id="Node000003" class="node">
<title>Node3</title>
<g id="a_Node000003"><a xlink:title=" ">
<polygon fill="#e0e0e0" stroke="#999999" points="52,-74 0,-74 0,-55 52,-55 52,-74"/>
<text text-anchor="middle" x="26" y="-62" font-family="Ubuntu Mono" font-size="10.00">cassert</text>
</a>
</g>
</g>
<!-- Node1&#45;&gt;Node3 -->
<g id="edge2_Node000001_Node000003" class="edge">
<title>Node1&#45;&gt;Node3</title>
<g id="a_edge2_Node000001_Node000003"><a xlink:title=" ">
<path fill="none" stroke="#63b8ff" d="M3099.74,-247.05C2618.85,-231.46 687.34,-164.45 62.28,-73.89"/>
<polygon fill="#63b8ff" stroke="#63b8ff" points="62.67,-70.41 52.27,-72.42 61.66,-77.34 62.67,-70.41"/>
</a>
</g>
</g>
<!-- Node4 -->
<g id="Node000004" class="node">
<title>Node4</title>
<g id="a_Node000004"><a xlink:title=" ">
<polygon fill="#e0e0e0" stroke="#999999" points="3603,-74 3559,-74 3559,-55 3603,-55 3603,-74"/>
<text text-anchor="middle" x="3581" y="-62" font-family="Ubuntu Mono" font-size="10.00">regex</text>
</a>
</g>
</g>
<!-- Node1&#45;&gt;Node4 -->
<g id="edge3_Node000001_Node000004" class="edge">
<title>Node1&#45;&gt;Node4</title>
<g id="a_edge3_Node000001_Node000004"><a xlink:title=" ">
<path fill="none" stroke="#63b8ff" d="M3318.27,-244.79C3446.64,-236.93 3645.16,-220.77 3668,-195 3701.79,-156.88 3638.98,-104.88 3603.27,-79.97"/>
<polygon fill="#63b8ff" stroke="#63b8ff" points="3605.08,-76.97 3594.85,-74.24 3601.15,-82.76 3605.08,-76.97"/>
</a>
</g>
</g>
<!-- Node5 -->
<g id="Node000005" class="node">
<title>Node5</title>
<g id="a_Node000005"><a xlink:title=" ">
<polygon fill="#e0e0e0" stroke="#999999" points="3098,-74 3034,-74 3034,-55 3098,-55 3098,-74"/>
<text text-anchor="middle" x="3066" y="-62" font-family="Ubuntu Mono" font-size="10.00">algorithm</text>
</a>
</g>
</g>
<!-- Node1&#45;&gt;Node5 -->
<g id="edge4_Node000001_Node000005" class="edge">
<title>Node1&#45;&gt;Node5</title>
<g id="a_edge4_Node000001_Node000005"><a xlink:title=" ">
<path fill="none" stroke="#63b8ff" d="M3099.93,-235.14C3076.9,-226.84 3055.05,-214.2 3040,-195 3016.66,-165.21 3023.66,-146.11 3035,-110 3038.23,-99.71 3044.78,-89.72 3051.03,-81.82"/>
<polygon fill="#63b8ff" stroke="#63b8ff" points="3053.73,-84.04 3057.52,-74.15 3048.39,-79.52 3053.73,-84.04"/>
</a>
</g>
</g>
<!-- Node6 -->
<g id="Node000006" class="node">
<title>Node6</title>
<g id="a_Node000006"><a xlink:href="header_8h.html" target="_top" xlink:title=" ">
<polygon fill="white" stroke="#666666" points="1944.5,-129 1827.5,-129 1827.5,-110 1944.5,-110 1944.5,-129"/>
<text text-anchor="middle" x="1886" y="-117" font-family="Ubuntu Mono" font-size="10.00">../basecode/header.h</text>
</a>
</g>
</g>
<!-- Node1&#45;&gt;Node6 -->
<g id="edge5_Node000001_Node000006" class="edge">
<title>Node1&#45;&gt;Node6</title>
<g id="a_edge5_Node000001_Node000006"><a xlink:title=" ">
<path fill="none" stroke="#63b8ff" d="M3099.89,-239.78C2836.35,-213.88 2170.94,-148.5 1954.9,-127.27"/>
<polygon fill="#63b8ff" stroke="#63b8ff" points="1954.94,-123.76 1944.65,-126.26 1954.26,-130.72 1954.94,-123.76"/>
</a>
</g>
</g>
<!-- Node45 -->
<g id="Node000045" class="node">
<title>Node45</title>
<g id="a_Node000045"><a xlink:href="randnum_8h.html" target="_top" xlink:title=" ">
<polygon fill="#fff0f0" stroke="red" points="3208.5,-189.5 3083.5,-189.5 3083.5,-170.5 3208.5,-170.5 3208.5,-189.5"/>
<text text-anchor="middle" x="3146" y="-177.5" font-family="Ubuntu Mono" font-size="10.00">../randnum/randnum.h</text>
</a>
</g>
</g>
<!-- Node1&#45;&gt;Node45 -->
<g id="edge48_Node000001_Node000045" class="edge">
<title>Node1&#45;&gt;Node45</title>
<g id="a_edge48_Node000001_Node000045"><a xlink:title=" ">
<path fill="none" stroke="#63b8ff" d="M3191.12,-230.77C3181.57,-220.24 3169.95,-207.42 3160.9,-197.43"/>
<polygon fill="#63b8ff" stroke="#63b8ff" points="3163.3,-194.88 3153.99,-189.82 3158.12,-199.58 3163.3,-194.88"/>
</a>
</g>
</g>
<!-- Node52 -->
<g id="Node000052" class="node">
<title>Node52</title>
<g id="a_Node000052"><a xlink:href="testing__macros_8hpp.html" target="_top" xlink:title=" ">
<polygon fill="#fff0f0" stroke="red" points="3317.5,-195 3226.5,-195 3226.5,-165 3317.5,-165 3317.5,-195"/>
<text text-anchor="start" x="3234.5" y="-183" font-family="Ubuntu Mono" font-size="10.00">../utility/testing</text>
<text text-anchor="middle" x="3272" y="-172" font-family="Ubuntu Mono" font-size="10.00">_macros.hpp</text>
</a>
</g>
</g>
<!-- Node1&#45;&gt;Node52 -->
<g id="edge49_Node000001_Node000052" class="edge">
<title>Node1&#45;&gt;Node52</title>
<g id="a_edge49_Node000001_Node000052"><a xlink:title=" ">
<path fill="none" stroke="#63b8ff" d="M3226.88,-230.77C3234.88,-221.95 3244.31,-211.54 3252.49,-202.53"/>
<polygon fill="#63b8ff" stroke="#63b8ff" points="3255.15,-204.8 3259.27,-195.04 3249.97,-200.1 3255.15,-204.8"/>
</a>
</g>
</g>
<!-- Node57 -->
<g id="Node000057" class="node">
<title>Node57</title>
<g id="a_Node000057"><a xlink:href="print__function_8hpp.html" target="_top" xlink:title=" ">
<polygon fill="#fff0f0" stroke="red" points="3313.5,-129 3208.5,-129 3208.5,-110 3313.5,-110 3313.5,-129"/>
<text text-anchor="middle" x="3261" y="-117" font-family="Ubuntu Mono" font-size="10.00">print_function.hpp</text>
</a>
</g>
</g>
<!-- Node1&#45;&gt;Node57 -->
<g id="edge59_Node000001_Node000057" class="edge">
<title>Node1&#45;&gt;Node57</title>
<g id="a_edge59_Node000001_Node000057"><a xlink:title=" ">
<path fill="none" stroke="#63b8ff" d="M3283.12,-230.89C3300.41,-222.69 3316.75,-211.15 3327,-195 3334.15,-183.74 3333.26,-176.77 3327,-165 3319.69,-151.25 3306.03,-140.99 3293.03,-133.8"/>
<polygon fill="#63b8ff" stroke="#63b8ff" points="3294.28,-130.51 3283.78,-129.11 3291.11,-136.75 3294.28,-130.51"/>
</a>
</g>
</g>
<!-- Node61 -->
<g id="Node000061" class="node">
<title>Node61</title>
<g id="a_Node000061"><a xlink:href="strutil_8h.html" target="_top" xlink:title=" ">
<polygon fill="#fff0f0" stroke="red" points="3151.5,-129 3056.5,-129 3056.5,-110 3151.5,-110 3151.5,-129"/>
<text text-anchor="middle" x="3104" y="-117" font-family="Ubuntu Mono" font-size="10.00">../utility/strutil.h</text>
</a>
</g>
</g>
<!-- Node1&#45;&gt;Node61 -->
<g id="edge60_Node000001_Node000061" class="edge">
<title>Node1&#45;&gt;Node61</title>
<g id="a_edge60_Node000001_Node000061"><a xlink:title=" ">
<path fill="none" stroke="#63b8ff" d="M3120.22,-230.85C3102.4,-222.71 3085.84,-211.23 3075,-195 3062.9,-176.89 3076.53,-152.99 3088.9,-137.2"/>
<polygon fill="#63b8ff" stroke="#63b8ff" points="3091.73,-139.27 3095.46,-129.35 3086.36,-134.77 3091.73,-139.27"/>
</a>
</g>
</g>
<!-- Node63 -->
<g id="Node000063" class="node">
<title>Node63</title>
<g id="a_Node000063"><a xlink:href="Variable_8h.html" target="_top" xlink:title=" ">
<polygon fill="white" stroke="#666666" points="3525.5,-189.5 3412.5,-189.5 3412.5,-170.5 3525.5,-170.5 3525.5,-189.5"/>
<text text-anchor="middle" x="3469" y="-177.5" font-family="Ubuntu Mono" font-size="10.00">../builtins/Variable.h</text>
</a>
</g>
</g>
<!-- Node1&#45;&gt;Node63 -->
<g id="edge64_Node000001_Node000063" class="edge">
<title>Node1&#45;&gt;Node63</title>
<g id="a_edge64_Node000001_Node000063"><a xlink:title=" ">
<path fill="none" stroke="#63b8ff" d="M3282.12,-230.96C3328.99,-218.42 3388.17,-202.61 3427.22,-192.17"/>
<polygon fill="#63b8ff" stroke="#63b8ff" points="3428.43,-195.47 3437.19,-189.5 3426.62,-188.7 3428.43,-195.47"/>
</a>
</g>
</g>
<!-- Node64 -->
<g id="Node000064" class="node">
<title>Node64</title>
<g id="a_Node000064"><a xlink:href="Function_8h.html" target="_top" xlink:title=" ">
<polygon fill="#fff0f0" stroke="red" points="3658.5,-189.5 3543.5,-189.5 3543.5,-170.5 3658.5,-170.5 3658.5,-189.5"/>
<text text-anchor="middle" x="3601" y="-177.5" font-family="Ubuntu Mono" font-size="10.00">../builtins/Function.h</text>
</a>
</g>
</g>
<!-- Node1&#45;&gt;Node64 -->
<g id="edge66_Node000001_Node000064" class="edge">
<title>Node1&#45;&gt;Node64</title>
<g id="a_edge66_Node000001_Node000064"><a xlink:title=" ">
<path fill="none" stroke="#63b8ff" d="M3318.24,-233.03C3381.64,-222.61 3462.96,-208.77 3535,-195 3540.46,-193.96 3546.17,-192.82 3551.85,-191.65"/>
<polygon fill="#63b8ff" stroke="#63b8ff" points="3552.89,-195.01 3561.97,-189.55 3551.46,-188.16 3552.89,-195.01"/>
</a>
</g>
</g>
<!-- Node66 -->
<g id="Node000066" class="node">
<title>Node66</title>
<g id="a_Node000066"><a xlink:href="MooseParser_8h.html" target="_top" xlink:title=" ">
<polygon fill="#fff0f0" stroke="red" points="3457.5,-129 3370.5,-129 3370.5,-110 3457.5,-110 3457.5,-129"/>
<text text-anchor="middle" x="3414" y="-117" font-family="Ubuntu Mono" font-size="10.00">MooseParser.h</text>
</a>
</g>
</g>
<!-- Node1&#45;&gt;Node66 -->
<g id="edge67_Node000001_Node000066" class="edge">
<title>Node1&#45;&gt;Node66</title>
<g id="a_edge67_Node000001_Node000066"><a xlink:title=" ">
<path fill="none" stroke="#63b8ff" d="M3271.1,-230.96C3294.73,-221.98 3321.19,-209.95 3343,-195 3366.37,-178.97 3388.04,-154.2 3401.14,-137.68"/>
<polygon fill="#63b8ff" stroke="#63b8ff" points="3404.15,-139.51 3407.5,-129.46 3398.61,-135.23 3404.15,-139.51"/>
</a>
</g>
</g>
<!-- Node6&#45;&gt;Node2 -->
<g id="edge8_Node000006_Node000002" class="edge">
<title>Node6&#45;&gt;Node2</title>
<g id="a_edge8_Node000006_Node000002"><a xlink:title=" ">
<path fill="none" stroke="#63b8ff" d="M1944.69,-118.04C2153.25,-116.13 2858.93,-107.43 3106.31,-73.67"/>
<polygon fill="#63b8ff" stroke="#63b8ff" points="3106.92,-77.11 3116.33,-72.25 3105.94,-70.18 3106.92,-77.11"/>
</a>
</g>
</g>
<!-- Node6&#45;&gt;Node3 -->
<g id="edge15_Node000006_Node000003" class="edge">
<title>Node6&#45;&gt;Node3</title>
<g id="a_edge15_Node000006_Node000003"><a xlink:title=" ">
<path fill="none" stroke="#63b8ff" d="M1827.43,-117.82C1539.77,-114.36 281.96,-98.09 62.48,-73.75"/>
<polygon fill="#63b8ff" stroke="#63b8ff" points="62.61,-70.24 52.26,-72.52 61.77,-77.19 62.61,-70.24"/>
</a>
</g>
</g>
<!-- Node6&#45;&gt;Node5 -->
<g id="edge7_Node000006_Node000005" class="edge">
<title>Node6&#45;&gt;Node5</title>
<g id="a_edge7_Node000006_Node000005"><a xlink:title=" ">
<path fill="none" stroke="#63b8ff" d="M1944.84,-117.49C2144.1,-113.86 2793.33,-100.37 3023.85,-73.88"/>
<polygon fill="#63b8ff" stroke="#63b8ff" points="3024.34,-77.35 3033.85,-72.69 3023.51,-70.39 3024.34,-77.35"/>
</a>
</g>
</g>
<!-- Node7 -->
<g id="Node000007" class="node">
<title>Node7</title>
<g id="a_Node000007"><a xlink:title=" ">
<polygon fill="#e0e0e0" stroke="#999999" points="1727.5,-74 1676.5,-74 1676.5,-55 1727.5,-55 1727.5,-74"/>
<text text-anchor="middle" x="1702" y="-62" font-family="Ubuntu Mono" font-size="10.00">math.h</text>
</a>
</g>
</g>
<!-- Node6&#45;&gt;Node7 -->
<g id="edge6_Node000006_Node000007" class="edge">
<title>Node6&#45;&gt;Node7</title>
<g id="a_edge6_Node000006_Node000007"><a xlink:title=" ">
<path fill="none" stroke="#63b8ff" d="M1856.44,-109.98C1823.98,-100.64 1771.9,-85.64 1737.32,-75.67"/>
<polygon fill="#63b8ff" stroke="#63b8ff" points="1738.21,-72.29 1727.63,-72.88 1736.27,-79.01 1738.21,-72.29"/>
</a>
</g>
</g>
<!-- Node8 -->
<g id="Node000008" class="node">
<title>Node8</title>
<g id="a_Node000008"><a xlink:title=" ">
<polygon fill="#e0e0e0" stroke="#999999" points="3434,-74 3390,-74 3390,-55 3434,-55 3434,-74"/>
<text text-anchor="middle" x="3412" y="-62" font-family="Ubuntu Mono" font-size="10.00">string</text>
</a>
</g>
</g>
<!-- Node6&#45;&gt;Node8 -->
<g id="edge9_Node000006_Node000008" class="edge">
<title>Node6&#45;&gt;Node8</title>
<g id="a_edge9_Node000006_Node000008"><a xlink:title=" ">
<path fill="none" stroke="#63b8ff" d="M1944.64,-118.61C2182.44,-118.79 3076.21,-116.65 3379.67,-73.75"/>
<polygon fill="#63b8ff" stroke="#63b8ff" points="3380.4,-77.18 3389.78,-72.27 3379.38,-70.25 3380.4,-77.18"/>
</a>
</g>
</g>
<!-- Node9 -->
<g id="Node000009" class="node">
<title>Node9</title>
<g id="a_Node000009"><a xlink:title=" ">
<polygon fill="#e0e0e0" stroke="#999999" points="3294,-74 3256,-74 3256,-55 3294,-55 3294,-74"/>
<text text-anchor="middle" x="3275" y="-62" font-family="Ubuntu Mono" font-size="10.00">map</text>
</a>
</g>
</g>
<!-- Node6&#45;&gt;Node9 -->
<g id="edge10_Node000006_Node000009" class="edge">
<title>Node6&#45;&gt;Node9</title>
<g id="a_edge10_Node000006_Node000009"><a xlink:title=" ">
<path fill="none" stroke="#63b8ff" d="M1944.72,-118.62C2168.8,-118.78 2970.81,-116.39 3245.92,-73.63"/>
<polygon fill="#63b8ff" stroke="#63b8ff" points="3246.56,-77.07 3255.88,-72.03 3245.45,-70.16 3246.56,-77.07"/>
</a>
</g>
</g>
<!-- Node10 -->
<g id="Node000010" class="node">
<title>Node10</title>
<g id="a_Node000010"><a xlink:title=" ">
<polygon fill="#e0e0e0" stroke="#999999" points="1838.5,-74 1745.5,-74 1745.5,-55 1838.5,-55 1838.5,-74"/>
<text text-anchor="middle" x="1792" y="-62" font-family="Ubuntu Mono" font-size="10.00">unordered_map</text>
</a>
</g>
</g>
<!-- Node6&#45;&gt;Node10 -->
<g id="edge11_Node000006_Node000010" class="edge">
<title>Node6&#45;&gt;Node10</title>
<g id="a_edge11_Node000006_Node000010"><a xlink:title=" ">
<path fill="none" stroke="#63b8ff" d="M1870.9,-109.98C1856.18,-101.69 1833.58,-88.94 1816.33,-79.22"/>
<polygon fill="#63b8ff" stroke="#63b8ff" points="1817.81,-76.03 1807.38,-74.17 1814.37,-82.13 1817.81,-76.03"/>
</a>
</g>
</g>
<!-- Node11 -->
<g id="Node000011" class="node">
<title>Node11</title>
<g id="a_Node000011"><a xlink:title=" ">
<polygon fill="#e0e0e0" stroke="#999999" points="3372,-74 3312,-74 3312,-55 3372,-55 3372,-74"/>
<text text-anchor="middle" x="3342" y="-62" font-family="Ubuntu Mono" font-size="10.00">iostream</text>
</a>
</g>
</g>
<!-- Node6&#45;&gt;Node11 -->
<g id="edge12_Node000006_Node000011" class="edge">
<title>Node6&#45;&gt;Node11</title>
<g id="a_edge12_Node000006_Node000011"><a xlink:title=" ">
<path fill="none" stroke="#63b8ff" d="M1944.65,-118.09C2174.33,-116.27 3013.7,-107.5 3301.84,-73.85"/>
<polygon fill="#63b8ff" stroke="#63b8ff" points="3302.35,-77.31 3311.86,-72.64 3301.51,-70.36 3302.35,-77.31"/>
</a>
</g>
</g>
<!-- Node12 -->
<g id="Node000012" class="node">
<title>Node12</title>
<g id="a_Node000012"><a xlink:title=" ">
<polygon fill="#e0e0e0" stroke="#999999" points="3238,-74 3182,-74 3182,-55 3238,-55 3238,-74"/>
<text text-anchor="middle" x="3210" y="-62" font-family="Ubuntu Mono" font-size="10.00">sstream</text>
</a>
</g>
</g>
<!-- Node6&#45;&gt;Node12 -->
<g id="edge13_Node000006_Node000012" class="edge">
<title>Node6&#45;&gt;Node12</title>
<g id="a_edge13_Node000006_Node000012"><a xlink:title=" ">
<path fill="none" stroke="#63b8ff" d="M1944.79,-117.96C2160.72,-115.75 2910.55,-105.99 3171.62,-73.86"/>
<polygon fill="#63b8ff" stroke="#63b8ff" points="3172.34,-77.29 3181.82,-72.56 3171.46,-70.35 3172.34,-77.29"/>
</a>
</g>
</g>
<!-- Node13 -->
<g id="Node000013" class="node">
<title>Node13</title>
<g id="a_Node000013"><a xlink:title=" ">
<polygon fill="#e0e0e0" stroke="#999999" points="1326.5,-19 1269.5,-19 1269.5,0 1326.5,0 1326.5,-19"/>
<text text-anchor="middle" x="1298" y="-7" font-family="Ubuntu Mono" font-size="10.00">typeinfo</text>
</a>
</g>
</g>
<!-- Node6&#45;&gt;Node13 -->
<g id="edge14_Node000006_Node000013" class="edge">
<title>Node6&#45;&gt;Node13</title>
<g id="a_edge14_Node000006_Node000013"><a xlink:title=" ">
<path fill="none" stroke="#63b8ff" d="M1827.3,-118.47C1597.33,-118.07 768.36,-113.87 730,-74 724.14,-67.92 724.27,-61.2 730,-55 765.85,-16.23 1137.05,-11.18 1259.24,-10.57"/>
<polygon fill="#63b8ff" stroke="#63b8ff" points="1259.29,-14.07 1269.28,-10.52 1259.26,-7.07 1259.29,-14.07"/>
</a>
</g>
</g>
<!-- Node14 -->
<g id="Node000014" class="node">
<title>Node14</title>
<g id="a_Node000014"><a xlink:href="doubleEq_8h.html" target="_top" xlink:title=" ">
<polygon fill="white" stroke="#666666" points="2004.5,-74 1933.5,-74 1933.5,-55 2004.5,-55 2004.5,-74"/>
<text text-anchor="middle" x="1969" y="-62" font-family="Ubuntu Mono" font-size="10.00">doubleEq.h</text>
</a>
</g>
</g>
<!-- Node6&#45;&gt;Node14 -->
<g id="edge16_Node000006_Node000014" class="edge">
<title>Node6&#45;&gt;Node14</title>
<g id="a_edge16_Node000006_Node000014"><a xlink:title=" ">
<path fill="none" stroke="#63b8ff" d="M1899.34,-109.98C1912.09,-101.84 1931.55,-89.41 1946.67,-79.76"/>
<polygon fill="#63b8ff" stroke="#63b8ff" points="1948.88,-82.5 1955.42,-74.17 1945.11,-76.6 1948.88,-82.5"/>
</a>
</g>
</g>
<!-- Node15 -->
<g id="Node000015" class="node">
<title>Node15</title>
<g id="a_Node000015"><a xlink:href="Id_8h.html" target="_top" xlink:title=" ">
<polygon fill="white" stroke="#666666" points="2057.5,-74 2022.5,-74 2022.5,-55 2057.5,-55 2057.5,-74"/>
<text text-anchor="middle" x="2040" y="-62" font-family="Ubuntu Mono" font-size="10.00">Id.h</text>
</a>
</g>
</g>
<!-- Node6&#45;&gt;Node15 -->
<g id="edge17_Node000006_Node000015" class="edge">
<title>Node6&#45;&gt;Node15</title>
<g id="a_edge17_Node000006_Node000015"><a xlink:title=" ">
<path fill="none" stroke="#63b8ff" d="M1910.74,-109.98C1938.58,-100.4 1983.67,-84.89 2012.56,-74.94"/>
<polygon fill="#63b8ff" stroke="#63b8ff" points="2013.74,-78.24 2022.05,-71.68 2011.46,-71.62 2013.74,-78.24"/>
</a>
</g>
</g>
<!-- Node16 -->
<g id="Node000016" class="node">
<title>Node16</title>
<g id="a_Node000016"><a xlink:href="ObjId_8h.html" target="_top" xlink:title=" ">
<polygon fill="white" stroke="#666666" points="2126.5,-74 2075.5,-74 2075.5,-55 2126.5,-55 2126.5,-74"/>
<text text-anchor="middle" x="2101" y="-62" font-family="Ubuntu Mono" font-size="10.00">ObjId.h</text>
</a>
</g>
</g>
<!-- Node6&#45;&gt;Node16 -->
<g id="edge18_Node000006_Node000016" class="edge">
<title>Node6&#45;&gt;Node16</title>
<g id="a_edge18_Node000006_Node000016"><a xlink:title=" ">
<path fill="none" stroke="#63b8ff" d="M1920.54,-109.98C1960.29,-100.19 2025.23,-84.18 2065.42,-74.27"/>
<polygon fill="#63b8ff" stroke="#63b8ff" points="2066.44,-77.62 2075.31,-71.83 2064.77,-70.83 2066.44,-77.62"/>
</a>
</g>
</g>
<!-- Node17 -->
<g id="Node000017" class="node">
<title>Node17</title>
<g id="a_Node000017"><a xlink:href="Cinfo_8h.html" target="_top" xlink:title=" ">
<polygon fill="white" stroke="#666666" points="2195.5,-74 2144.5,-74 2144.5,-55 2195.5,-55 2195.5,-74"/>
<text text-anchor="middle" x="2170" y="-62" font-family="Ubuntu Mono" font-size="10.00">Cinfo.h</text>
</a>
</g>
</g>
<!-- Node6&#45;&gt;Node17 -->
<g id="edge19_Node000006_Node000017" class="edge">
<title>Node6&#45;&gt;Node17</title>
<g id="a_edge19_Node000006_Node000017"><a xlink:title=" ">
<path fill="none" stroke="#63b8ff" d="M1939.13,-109.98C1987.49,-102 2061.09,-89.31 2134.54,-73.98"/>
<polygon fill="#63b8ff" stroke="#63b8ff" points="2135.36,-77.39 2144.43,-71.9 2133.92,-70.54 2135.36,-77.39"/>
</a>
</g>
</g>
<!-- Node18 -->
<g id="Node000018" class="node">
<title>Node18</title>
<g id="a_Node000018"><a xlink:href="basecode_2Finfo_8h.html" target="_top" xlink:title=" ">
<polygon fill="white" stroke="#666666" points="2264,-74 2214,-74 2214,-55 2264,-55 2264,-74"/>
<text text-anchor="middle" x="2239" y="-62" font-family="Ubuntu Mono" font-size="10.00">Finfo.h</text>
</a>
</g>
</g>
<!-- Node6&#45;&gt;Node18 -->
<g id="edge20_Node000006_Node000018" class="edge">
<title>Node6&#45;&gt;Node18</title>
<g id="a_edge20_Node000006_Node000018"><a xlink:title=" ">
<path fill="none" stroke="#63b8ff" d="M1944.6,-112.07C2008.63,-104.63 2114.06,-91.17 2204,-74 2204.1,-73.98 2204.2,-73.96 2204.3,-73.94"/>
<polygon fill="#63b8ff" stroke="#63b8ff" points="2204.77,-77.42 2213.83,-71.93 2203.32,-70.57 2204.77,-77.42"/>
</a>
</g>
</g>
<!-- Node19 -->
<g id="Node000019" class="node">
<title>Node19</title>
<g id="a_Node000019"><a xlink:href="DestFinfo_8h.html" target="_top" xlink:title=" ">
<polygon fill="white" stroke="#666666" points="2354,-74 2282,-74 2282,-55 2354,-55 2354,-74"/>
<text text-anchor="middle" x="2318" y="-62" font-family="Ubuntu Mono" font-size="10.00">DestFinfo.h</text>
</a>
</g>
</g>
<!-- Node6&#45;&gt;Node19 -->
<g id="edge21_Node000006_Node000019" class="edge">
<title>Node6&#45;&gt;Node19</title>
<g id="a_edge21_Node000006_Node000019"><a xlink:title=" ">
<path fill="none" stroke="#63b8ff" d="M1944.53,-113.1C2018.39,-105.99 2149.57,-92.37 2271.43,-74.14"/>
<polygon fill="#63b8ff" stroke="#63b8ff" points="2272.32,-77.55 2281.69,-72.59 2271.28,-70.62 2272.32,-77.55"/>
</a>
</g>
</g>
<!-- Node20 -->
<g id="Node000020" class="node">
<title>Node20</title>
<g id="a_Node000020"><a xlink:href="ProcInfo_8h.html" target="_top" xlink:title=" ">
<polygon fill="white" stroke="#666666" points="2437.5,-74 2372.5,-74 2372.5,-55 2437.5,-55 2437.5,-74"/>
<text text-anchor="middle" x="2405" y="-62" font-family="Ubuntu Mono" font-size="10.00">ProcInfo.h</text>
</a>
</g>
</g>
<!-- Node6&#45;&gt;Node20 -->
<g id="edge22_Node000006_Node000020" class="edge">
<title>Node6&#45;&gt;Node20</title>
<g id="a_edge22_Node000006_Node000020"><a xlink:title=" ">
<path fill="none" stroke="#63b8ff" d="M1944.62,-115.05C2032.9,-109.41 2205.42,-96.67 2361.77,-74.02"/>
<polygon fill="#63b8ff" stroke="#63b8ff" points="2362.66,-77.43 2372.04,-72.52 2361.64,-70.5 2362.66,-77.43"/>
</a>
</g>
</g>
<!-- Node21 -->
<g id="Node000021" class="node">
<title>Node21</title>
<g id="a_Node000021"><a xlink:href="MsgFuncBinding_8h.html" target="_top" xlink:title=" ">
<polygon fill="white" stroke="#666666" points="2560.5,-74 2455.5,-74 2455.5,-55 2560.5,-55 2560.5,-74"/>
<text text-anchor="middle" x="2508" y="-62" font-family="Ubuntu Mono" font-size="10.00">MsgFuncBinding.h</text>
</a>
</g>
</g>
<!-- Node6&#45;&gt;Node21 -->
<g id="edge23_Node000006_Node000021" class="edge">
<title>Node6&#45;&gt;Node21</title>
<g id="a_edge23_Node000006_Node000021"><a xlink:title=" ">
<path fill="none" stroke="#63b8ff" d="M1944.66,-115C2045.07,-108.75 2256.56,-94.49 2445.34,-74.12"/>
<polygon fill="#63b8ff" stroke="#63b8ff" points="2445.89,-77.58 2455.45,-73.02 2445.13,-70.62 2445.89,-77.58"/>
</a>
</g>
</g>
<!-- Node22 -->
<g id="Node000022" class="node">
<title>Node22</title>
<g id="a_Node000022"><a xlink:href="Msg_8h.html" target="_top" xlink:title=" ">
<polygon fill="white" stroke="#666666" points="2657.5,-74 2578.5,-74 2578.5,-55 2657.5,-55 2657.5,-74"/>
<text text-anchor="middle" x="2618" y="-62" font-family="Ubuntu Mono" font-size="10.00">../msg/Msg.h</text>
</a>
</g>
</g>
<!-- Node6&#45;&gt;Node22 -->
<g id="edge24_Node000006_Node000022" class="edge">
<title>Node6&#45;&gt;Node22</title>
<g id="a_edge24_Node000006_Node000022"><a xlink:title=" ">
<path fill="none" stroke="#63b8ff" d="M1944.76,-116.86C2061.66,-113.12 2331.83,-102.12 2568.33,-74.07"/>
<polygon fill="#63b8ff" stroke="#63b8ff" points="2568.99,-77.52 2578.5,-72.85 2568.15,-70.57 2568.99,-77.52"/>
</a>
</g>
</g>
<!-- Node23 -->
<g id="Node000023" class="node">
<title>Node23</title>
<g id="a_Node000023"><a xlink:href="Dinfo_8h.html" target="_top" xlink:title=" ">
<polygon fill="white" stroke="#666666" points="2728,-74 2676,-74 2676,-55 2728,-55 2728,-74"/>
<text text-anchor="middle" x="2702" y="-62" font-family="Ubuntu Mono" font-size="10.00">Dinfo.h</text>
</a>
</g>
</g>
<!-- Node6&#45;&gt;Node23 -->
<g id="edge25_Node000006_Node000023" class="edge">
<title>Node6&#45;&gt;Node23</title>
<g id="a_edge25_Node000006_Node000023"><a xlink:title=" ">
<path fill="none" stroke="#63b8ff" d="M1944.66,-118.78C2073.62,-118.6 2391.46,-113.91 2665.59,-73.92"/>
<polygon fill="#63b8ff" stroke="#63b8ff" points="2666.35,-77.35 2675.73,-72.42 2665.32,-70.42 2666.35,-77.35"/>
</a>
</g>
</g>
<!-- Node24 -->
<g id="Node000024" class="node">
<title>Node24</title>
<g id="a_Node000024"><a xlink:href="MsgDigest_8h.html" target="_top" xlink:title=" ">
<polygon fill="white" stroke="#666666" points="2823.5,-74 2746.5,-74 2746.5,-55 2823.5,-55 2823.5,-74"/>
<text text-anchor="middle" x="2785" y="-62" font-family="Ubuntu Mono" font-size="10.00">MsgDigest.h</text>
</a>
</g>
</g>
<!-- Node6&#45;&gt;Node24 -->
<g id="edge26_Node000006_Node000024" class="edge">
<title>Node6&#45;&gt;Node24</title>
<g id="a_edge26_Node000006_Node000024"><a xlink:title=" ">
<path fill="none" stroke="#63b8ff" d="M1944.76,-117.91C2081.66,-116.01 2432.63,-108.04 2735.97,-73.95"/>
<polygon fill="#63b8ff" stroke="#63b8ff" points="2736.75,-77.38 2746.29,-72.78 2735.96,-70.43 2736.75,-77.38"/>
</a>
</g>
</g>
<!-- Node25 -->
<g id="Node000025" class="node">
<title>Node25</title>
<g id="a_Node000025"><a xlink:href="Element_8h.html" target="_top" xlink:title=" ">
<polygon fill="white" stroke="#666666" points="2908,-74 2842,-74 2842,-55 2908,-55 2908,-74"/>
<text text-anchor="middle" x="2875" y="-62" font-family="Ubuntu Mono" font-size="10.00">Element.h</text>
</a>
</g>
</g>
<!-- Node6&#45;&gt;Node25 -->
<g id="edge27_Node000006_Node000025" class="edge">
<title>Node6&#45;&gt;Node25</title>
<g id="a_edge27_Node000006_Node000025"><a xlink:title=" ">
<path fill="none" stroke="#63b8ff" d="M1944.73,-118.85C2092.35,-119.06 2490.88,-115.5 2831.54,-73.98"/>
<polygon fill="#63b8ff" stroke="#63b8ff" points="2832.11,-77.43 2841.6,-72.74 2831.25,-70.49 2832.11,-77.43"/>
</a>
</g>
</g>
<!-- Node26 -->
<g id="Node000026" class="node">
<title>Node26</title>
<g id="a_Node000026"><a xlink:href="DataElement_8h.html" target="_top" xlink:title=" ">
<polygon fill="white" stroke="#666666" points="3015.5,-74 2926.5,-74 2926.5,-55 3015.5,-55 3015.5,-74"/>
<text text-anchor="middle" x="2971" y="-62" font-family="Ubuntu Mono" font-size="10.00">DataElement.h</text>
</a>
</g>
</g>
<!-- Node6&#45;&gt;Node26 -->
<g id="edge28_Node000006_Node000026" class="edge">
<title>Node6&#45;&gt;Node26</title>
<g id="a_edge28_Node000006_Node000026"><a xlink:title=" ">
<path fill="none" stroke="#63b8ff" d="M1944.58,-118.29C2100.8,-117.22 2540.38,-110.98 2916.28,-73.93"/>
<polygon fill="#63b8ff" stroke="#63b8ff" points="2916.66,-77.41 2926.26,-72.94 2915.96,-70.45 2916.66,-77.41"/>
</a>
</g>
</g>
<!-- Node27 -->
<g id="Node000027" class="node">
<title>Node27</title>
<g id="a_Node000027"><a xlink:href="GlobalDataElement_8h.html" target="_top" xlink:title=" ">
<polygon fill="white" stroke="#666666" points="191.5,-74 70.5,-74 70.5,-55 191.5,-55 191.5,-74"/>
<text text-anchor="middle" x="131" y="-62" font-family="Ubuntu Mono" font-size="10.00">GlobalDataElement.h</text>
</a>
</g>
</g>
<!-- Node6&#45;&gt;Node27 -->
<g id="edge29_Node000006_Node000027" class="edge">
<title>Node6&#45;&gt;Node27</title>
<g id="a_edge29_Node000006_Node000027"><a xlink:title=" ">
<path fill="none" stroke="#63b8ff" d="M1827.29,-118.99C1611.87,-120.36 844.5,-121.46 201.95,-74.07"/>
<polygon fill="#63b8ff" stroke="#63b8ff" points="201.78,-70.54 191.55,-73.29 201.26,-77.52 201.78,-70.54"/>
</a>
</g>
</g>
<!-- Node28 -->
<g id="Node000028" class="node">
<title>Node28</title>
<g id="a_Node000028"><a xlink:href="LocalDataElement_8h.html" target="_top" xlink:title=" ">
<polygon fill="white" stroke="#666666" points="324.5,-74 209.5,-74 209.5,-55 324.5,-55 324.5,-74"/>
<text text-anchor="middle" x="267" y="-62" font-family="Ubuntu Mono" font-size="10.00">LocalDataElement.h</text>
</a>
</g>
</g>
<!-- Node6&#45;&gt;Node28 -->
<g id="edge30_Node000006_Node000028" class="edge">
<title>Node6&#45;&gt;Node28</title>
<g id="a_edge30_Node000006_Node000028"><a xlink:title=" ">
<path fill="none" stroke="#63b8ff" d="M1827.4,-118.88C1623.13,-119.75 923.43,-119.1 335.1,-73.99"/>
<polygon fill="#63b8ff" stroke="#63b8ff" points="334.95,-70.46 324.71,-73.18 334.41,-77.44 334.95,-70.46"/>
</a>
</g>
</g>
<!-- Node29 -->
<g id="Node000029" class="node">
<title>Node29</title>
<g id="a_Node000029"><a xlink:href="Eref_8h.html" target="_top" xlink:title=" ">
<polygon fill="white" stroke="#666666" points="387,-74 343,-74 343,-55 387,-55 387,-74"/>
<text text-anchor="middle" x="365" y="-62" font-family="Ubuntu Mono" font-size="10.00">Eref.h</text>
</a>
</g>
</g>
<!-- Node6&#45;&gt;Node29 -->
<g id="edge31_Node000006_Node000029" class="edge">
<title>Node6&#45;&gt;Node29</title>
<g id="a_edge31_Node000006_Node000029"><a xlink:title=" ">
<path fill="none" stroke="#63b8ff" d="M1827.15,-118.61C1589.53,-118.76 699.59,-116.5 397.29,-73.74"/>
<polygon fill="#63b8ff" stroke="#63b8ff" points="397.62,-70.25 387.22,-72.27 396.6,-77.18 397.62,-70.25"/>
</a>
</g>
</g>
<!-- Node30 -->
<g id="Node000030" class="node">
<title>Node30</title>
<g id="a_Node000030"><a xlink:href="Conv_8h.html" target="_top" xlink:title=" ">
<polygon fill="#fff0f0" stroke="red" points="455,-74 405,-74 405,-55 455,-55 455,-74"/>
<text text-anchor="middle" x="430" y="-62" font-family="Ubuntu Mono" font-size="10.00">Conv.h</text>
</a>
</g>
</g>
<!-- Node6&#45;&gt;Node30 -->
<g id="edge32_Node000006_Node000030" class="edge">
<title>Node6&#45;&gt;Node30</title>
<g id="a_edge32_Node000006_Node000030"><a xlink:title=" ">
<path fill="none" stroke="#63b8ff" d="M1827.35,-118.09C1594.94,-116.25 738.31,-107.29 469,-74 467.72,-73.84 466.43,-73.66 465.12,-73.47"/>
<polygon fill="#63b8ff" stroke="#63b8ff" points="465.52,-69.98 455.06,-71.67 464.29,-76.87 465.52,-69.98"/>
</a>
</g>
</g>
<!-- Node32 -->
<g id="Node000032" class="node">
<title>Node32</title>
<g id="a_Node000032"><a xlink:href="SrcFinfo_8h.html" target="_top" xlink:title=" ">
<polygon fill="white" stroke="#666666" points="551.5,-19 486.5,-19 486.5,0 551.5,0 551.5,-19"/>
<text text-anchor="middle" x="519" y="-7" font-family="Ubuntu Mono" font-size="10.00">SrcFinfo.h</text>
</a>
</g>
</g>
<!-- Node6&#45;&gt;Node32 -->
<g id="edge33_Node000006_Node000032" class="edge">
<title>Node6&#45;&gt;Node32</title>
<g id="a_edge33_Node000006_Node000032"><a xlink:title=" ">
<path fill="none" stroke="#63b8ff" d="M1827.19,-117.72C1566.32,-114.1 525.4,-98.16 502,-74 490.02,-61.63 498.07,-41.77 506.71,-27.55"/>
<polygon fill="#63b8ff" stroke="#63b8ff" points="509.66,-29.44 512.26,-19.16 503.82,-25.57 509.66,-29.44"/>
</a>
</g>
</g>
<!-- Node33 -->
<g id="Node000033" class="node">
<title>Node33</title>
<g id="a_Node000033"><a xlink:href="OpFuncBase_8h.html" target="_top" xlink:title=" ">
<polygon fill="white" stroke="#666666" points="597,-74 511,-74 511,-55 597,-55 597,-74"/>
<text text-anchor="middle" x="554" y="-62" font-family="Ubuntu Mono" font-size="10.00">OpFuncBase.h</text>
</a>
</g>
</g>
<!-- Node6&#45;&gt;Node33 -->
<g id="edge34_Node000006_Node000033" class="edge">
<title>Node6&#45;&gt;Node33</title>
<g id="a_edge34_Node000006_Node000033"><a xlink:title=" ">
<path fill="none" stroke="#63b8ff" d="M1827.46,-119.11C1647.03,-120.43 1083.45,-120.33 607.25,-73.97"/>
<polygon fill="#63b8ff" stroke="#63b8ff" points="607.37,-70.47 597.07,-72.97 606.68,-77.43 607.37,-70.47"/>
</a>
</g>
</g>
<!-- Node34 -->
<g id="Node000034" class="node">
<title>Node34</title>
<g id="a_Node000034"><a xlink:href="HopFunc_8h.html" target="_top" xlink:title=" ">
<polygon fill="white" stroke="#666666" points="683,-74 615,-74 615,-55 683,-55 683,-74"/>
<text text-anchor="middle" x="649" y="-62" font-family="Ubuntu Mono" font-size="10.00">HopFunc.h</text>
</a>
</g>
</g>
<!-- Node6&#45;&gt;Node34 -->
<g id="edge36_Node000006_Node000034" class="edge">
<title>Node6&#45;&gt;Node34</title>
<g id="a_edge36_Node000006_Node000034"><a xlink:title=" ">
<path fill="none" stroke="#63b8ff" d="M1827.34,-119.16C1653.98,-120.49 1129.11,-120.12 697,-74 695.72,-73.86 694.43,-73.71 693.12,-73.55"/>
<polygon fill="#63b8ff" stroke="#63b8ff" points="693.4,-70.06 683.01,-72.12 692.42,-76.99 693.4,-70.06"/>
</a>
</g>
</g>
<!-- Node35 -->
<g id="Node000035" class="node">
<title>Node35</title>
<g id="a_Node000035"><a xlink:href="SetGet_8h.html" target="_top" xlink:title=" ">
<polygon fill="white" stroke="#666666" points="1915.5,-74 1856.5,-74 1856.5,-55 1915.5,-55 1915.5,-74"/>
<text text-anchor="middle" x="1886" y="-62" font-family="Ubuntu Mono" font-size="10.00">SetGet.h</text>
</a>
</g>
</g>
<!-- Node6&#45;&gt;Node35 -->
<g id="edge37_Node000006_Node000035" class="edge">
<title>Node6&#45;&gt;Node35</title>
<g id="a_edge37_Node000006_Node000035"><a xlink:title=" ">
<path fill="none" stroke="#63b8ff" d="M1886,-109.75C1886,-102.8 1886,-92.85 1886,-84.13"/>
<polygon fill="#63b8ff" stroke="#63b8ff" points="1889.5,-84.09 1886,-74.09 1882.5,-84.09 1889.5,-84.09"/>
</a>
</g>
</g>
<!-- Node36 -->
<g id="Node000036" class="node">
<title>Node36</title>
<g id="a_Node000036"><a xlink:href="OpFunc_8h.html" target="_top" xlink:title=" ">
<polygon fill="white" stroke="#666666" points="801,-74 739,-74 739,-55 801,-55 801,-74"/>
<text text-anchor="middle" x="770" y="-62" font-family="Ubuntu Mono" font-size="10.00">OpFunc.h</text>
</a>
</g>
</g>
<!-- Node6&#45;&gt;Node36 -->
<g id="edge39_Node000006_Node000036" class="edge">
<title>Node6&#45;&gt;Node36</title>
<g id="a_edge39_Node000006_Node000036"><a xlink:title=" ">
<path fill="none" stroke="#63b8ff" d="M1827.39,-117.38C1635.86,-113.5 1028.79,-99.57 811.41,-73.91"/>
<polygon fill="#63b8ff" stroke="#63b8ff" points="811.71,-70.43 801.36,-72.68 810.86,-77.37 811.71,-70.43"/>
</a>
</g>
</g>
<!-- Node37 -->
<g id="Node000037" class="node">
<title>Node37</title>
<g id="a_Node000037"><a xlink:href="EpFunc_8h.html" target="_top" xlink:title=" ">
<polygon fill="white" stroke="#666666" points="879,-74 819,-74 819,-55 879,-55 879,-74"/>
<text text-anchor="middle" x="849" y="-62" font-family="Ubuntu Mono" font-size="10.00">EpFunc.h</text>
</a>
</g>
</g>
<!-- Node6&#45;&gt;Node37 -->
<g id="edge40_Node000006_Node000037" class="edge">
<title>Node6&#45;&gt;Node37</title>
<g id="a_edge40_Node000006_Node000037"><a xlink:title=" ">
<path fill="none" stroke="#63b8ff" d="M1827.47,-117.2C1645.59,-112.95 1090.89,-98.42 889.33,-73.89"/>
<polygon fill="#63b8ff" stroke="#63b8ff" points="889.5,-70.38 879.14,-72.6 888.63,-77.33 889.5,-70.38"/>
</a>
</g>
</g>
<!-- Node38 -->
<g id="Node000038" class="node">
<title>Node38</title>
<g id="a_Node000038"><a xlink:href="ProcOpFunc_8h.html" target="_top" xlink:title=" ">
<polygon fill="white" stroke="#666666" points="980.5,-74 897.5,-74 897.5,-55 980.5,-55 980.5,-74"/>
<text text-anchor="middle" x="939" y="-62" font-family="Ubuntu Mono" font-size="10.00">ProcOpFunc.h</text>
</a>
</g>
</g>
<!-- Node6&#45;&gt;Node38 -->
<g id="edge41_Node000006_Node000038" class="edge">
<title>Node6&#45;&gt;Node38</title>
<g id="a_edge41_Node000006_Node000038"><a xlink:title=" ">
<path fill="none" stroke="#63b8ff" d="M1827.3,-118C1685.25,-116.26 1311.6,-108.61 990.65,-74.05"/>
<polygon fill="#63b8ff" stroke="#63b8ff" points="991.01,-70.57 980.69,-72.97 990.25,-77.53 991.01,-70.57"/>
</a>
</g>
</g>
<!-- Node39 -->
<g id="Node000039" class="node">
<title>Node39</title>
<g id="a_Node000039"><a xlink:href="ValueFinfo_8h.html" target="_top" xlink:title=" ">
<polygon fill="white" stroke="#666666" points="1075.5,-74 998.5,-74 998.5,-55 1075.5,-55 1075.5,-74"/>
<text text-anchor="middle" x="1037" y="-62" font-family="Ubuntu Mono" font-size="10.00">ValueFinfo.h</text>
</a>
</g>
</g>
<!-- Node6&#45;&gt;Node39 -->
<g id="edge42_Node000006_Node000039" class="edge">
<title>Node6&#45;&gt;Node39</title>
<g id="a_edge42_Node000006_Node000039"><a xlink:title=" ">
<path fill="none" stroke="#63b8ff" d="M1827.42,-117.72C1696.24,-115.45 1368.78,-106.81 1085.72,-74.06"/>
<polygon fill="#63b8ff" stroke="#63b8ff" points="1086.01,-70.57 1075.67,-72.88 1085.2,-77.52 1086.01,-70.57"/>
</a>
</g>
</g>
<!-- Node40 -->
<g id="Node000040" class="node">
<title>Node40</title>
<g id="a_Node000040"><a xlink:href="LookupValueFinfo_8h.html" target="_top" xlink:title=" ">
<polygon fill="white" stroke="#666666" points="1204.5,-74 1093.5,-74 1093.5,-55 1204.5,-55 1204.5,-74"/>
<text text-anchor="middle" x="1149" y="-62" font-family="Ubuntu Mono" font-size="10.00">LookupValueFinfo.h</text>
</a>
</g>
</g>
<!-- Node6&#45;&gt;Node40 -->
<g id="edge43_Node000006_Node000040" class="edge">
<title>Node6&#45;&gt;Node40</title>
<g id="a_edge43_Node000006_Node000040"><a xlink:title=" ">
<path fill="none" stroke="#63b8ff" d="M1827.38,-115.93C1712.03,-110.58 1447.27,-96.91 1214.82,-74.12"/>
<polygon fill="#63b8ff" stroke="#63b8ff" points="1215.12,-70.63 1204.82,-73.13 1214.43,-77.6 1215.12,-70.63"/>
</a>
</g>
</g>
<!-- Node41 -->
<g id="Node000041" class="node">
<title>Node41</title>
<g id="a_Node000041"><a xlink:href="SharedFinfo_8h.html" target="_top" xlink:title=" ">
<polygon fill="white" stroke="#666666" points="1305.5,-74 1222.5,-74 1222.5,-55 1305.5,-55 1305.5,-74"/>
<text text-anchor="middle" x="1264" y="-62" font-family="Ubuntu Mono" font-size="10.00">SharedFinfo.h</text>
</a>
</g>
</g>
<!-- Node6&#45;&gt;Node41 -->
<g id="edge44_Node000006_Node000041" class="edge">
<title>Node6&#45;&gt;Node41</title>
<g id="a_edge44_Node000006_Node000041"><a xlink:title=" ">
<path fill="none" stroke="#63b8ff" d="M1827.36,-115.7C1725.34,-110.44 1508.41,-97.55 1315.73,-74.11"/>
<polygon fill="#63b8ff" stroke="#63b8ff" points="1316.05,-70.63 1305.7,-72.88 1315.2,-77.57 1316.05,-70.63"/>
</a>
</g>
</g>
<!-- Node42 -->
<g id="Node000042" class="node">
<title>Node42</title>
<g id="a_Node000042"><a xlink:href="FieldElementFinfo_8h.html" target="_top" xlink:title=" ">
<polygon fill="white" stroke="#666666" points="1436.5,-74 1323.5,-74 1323.5,-55 1436.5,-55 1436.5,-74"/>
<text text-anchor="middle" x="1380" y="-62" font-family="Ubuntu Mono" font-size="10.00">FieldElementFinfo.h</text>
</a>
</g>
</g>
<!-- Node6&#45;&gt;Node42 -->
<g id="edge45_Node000006_Node000042" class="edge">
<title>Node6&#45;&gt;Node42</title>
<g id="a_edge45_Node000006_Node000042"><a xlink:title=" ">
<path fill="none" stroke="#63b8ff" d="M1827.45,-113.15C1744.9,-105.47 1589.34,-90.57 1446.94,-74.2"/>
<polygon fill="#63b8ff" stroke="#63b8ff" points="1447.04,-70.69 1436.71,-73.02 1446.24,-77.64 1447.04,-70.69"/>
</a>
</g>
</g>
<!-- Node43 -->
<g id="Node000043" class="node">
<title>Node43</title>
<g id="a_Node000043"><a xlink:href="FieldElement_8h.html" target="_top" xlink:title=" ">
<polygon fill="white" stroke="#666666" points="1543.5,-74 1454.5,-74 1454.5,-55 1543.5,-55 1543.5,-74"/>
<text text-anchor="middle" x="1499" y="-62" font-family="Ubuntu Mono" font-size="10.00">FieldElement.h</text>
</a>
</g>
</g>
<!-- Node6&#45;&gt;Node43 -->
<g id="edge46_Node000006_Node000043" class="edge">
<title>Node6&#45;&gt;Node43</title>
<g id="a_edge46_Node000006_Node000043"><a xlink:title=" ">
<path fill="none" stroke="#63b8ff" d="M1827.41,-111.17C1762.82,-102.99 1655.56,-89.08 1553.68,-74.22"/>
<polygon fill="#63b8ff" stroke="#63b8ff" points="1553.92,-70.71 1543.52,-72.73 1552.91,-77.64 1553.92,-70.71"/>
</a>
</g>
</g>
<!-- Node44 -->
<g id="Node000044" class="node">
<title>Node44</title>
<g id="a_Node000044"><a xlink:href="Neutral_8h.html" target="_top" xlink:title=" ">
<polygon fill="white" stroke="#666666" points="1658.5,-74 1561.5,-74 1561.5,-55 1658.5,-55 1658.5,-74"/>
<text text-anchor="middle" x="1610" y="-62" font-family="Ubuntu Mono" font-size="10.00">../shell/Neutral.h</text>
</a>
</g>
</g>
<!-- Node6&#45;&gt;Node44 -->
<g id="edge47_Node000006_Node000044" class="edge">
<title>Node6&#45;&gt;Node44</title>
<g id="a_edge47_Node000006_Node000044"><a xlink:title=" ">
<path fill="none" stroke="#63b8ff" d="M1841.66,-109.98C1793.51,-100.74 1716.58,-85.97 1664.71,-76.01"/>
<polygon fill="#63b8ff" stroke="#63b8ff" points="1665.17,-72.53 1654.69,-74.08 1663.85,-79.41 1665.17,-72.53"/>
</a>
</g>
</g>
<!-- Node33&#45;&gt;Node32 -->
<g id="edge35_Node000033_Node000032" class="edge">
<title>Node33&#45;&gt;Node32</title>
<g id="a_edge35_Node000033_Node000032"><a xlink:title=" ">
<path fill="none" stroke="#63b8ff" d="M548.22,-54.75C543.38,-47.42 536.32,-36.73 530.36,-27.7"/>
<polygon fill="#63b8ff" stroke="#63b8ff" points="533.1,-25.5 524.67,-19.09 527.26,-29.36 533.1,-25.5"/>
</a>
</g>
</g>
<!-- Node35&#45;&gt;Node13 -->
<g id="edge38_Node000035_Node000013" class="edge">
<title>Node35&#45;&gt;Node13</title>
<g id="a_edge38_Node000035_Node000013"><a xlink:title=" ">
<path fill="none" stroke="#63b8ff" d="M1856.27,-56.59C1853.15,-55.99 1850.02,-55.45 1847,-55 1656.85,-26.7 1426.78,-15.41 1336.75,-11.86"/>
<polygon fill="#63b8ff" stroke="#63b8ff" points="1336.86,-8.36 1326.73,-11.47 1336.59,-15.36 1336.86,-8.36"/>
</a>
</g>
</g>
<!-- Node52&#45;&gt;Node11 -->
<g id="edge51_Node000052_Node000011" class="edge">
<title>Node52&#45;&gt;Node11</title>
<g id="a_edge51_Node000052_Node000011"><a xlink:title=" ">
<path fill="none" stroke="#63b8ff" d="M3290.85,-164.62C3301.65,-155.48 3314.67,-142.8 3323,-129 3331.36,-115.15 3336.27,-97.35 3339,-84.13"/>
<polygon fill="#63b8ff" stroke="#63b8ff" points="3342.44,-84.74 3340.8,-74.28 3335.56,-83.48 3342.44,-84.74"/>
</a>
</g>
</g>
<!-- Node52&#45;&gt;Node12 -->
<g id="edge50_Node000052_Node000012" class="edge">
<title>Node52&#45;&gt;Node12</title>
<g id="a_edge50_Node000052_Node000012"><a xlink:title=" ">
<path fill="none" stroke="#63b8ff" d="M3239.05,-164.95C3224.27,-156.78 3208.32,-144.91 3200,-129 3192.65,-114.95 3196.54,-96.95 3201.45,-83.7"/>
<polygon fill="#63b8ff" stroke="#63b8ff" points="3204.77,-84.84 3205.42,-74.26 3198.32,-82.12 3204.77,-84.84"/>
</a>
</g>
</g>
<!-- Node52&#45;&gt;Node57 -->
<g id="edge52_Node000052_Node000057" class="edge">
<title>Node52&#45;&gt;Node57</title>
<g id="a_edge52_Node000052_Node000057"><a xlink:title=" ">
<path fill="none" stroke="#63b8ff" d="M3269.34,-164.84C3267.89,-157.13 3266.07,-147.49 3264.51,-139.17"/>
<polygon fill="#63b8ff" stroke="#63b8ff" points="3267.94,-138.45 3262.65,-129.27 3261.06,-139.74 3267.94,-138.45"/>
</a>
</g>
</g>
<!-- Node57&#45;&gt;Node2 -->
<g id="edge55_Node000057_Node000002" class="edge">
<title>Node57&#45;&gt;Node2</title>
<g id="a_edge55_Node000057_Node000002"><a xlink:title=" ">
<path fill="none" stroke="#63b8ff" d="M3241.56,-109.98C3222.01,-101.42 3191.62,-88.11 3169.18,-78.28"/>
<polygon fill="#63b8ff" stroke="#63b8ff" points="3170.36,-74.98 3159.79,-74.17 3167.55,-81.39 3170.36,-74.98"/>
</a>
</g>
</g>
<!-- Node57&#45;&gt;Node5 -->
<g id="edge58_Node000057_Node000005" class="edge">
<title>Node57&#45;&gt;Node5</title>
<g id="a_edge58_Node000057_Node000005"><a xlink:title=" ">
<path fill="none" stroke="#63b8ff" d="M3229.67,-109.98C3196.51,-100.97 3144,-86.7 3107.44,-76.76"/>
<polygon fill="#63b8ff" stroke="#63b8ff" points="3108.14,-73.33 3097.58,-74.08 3106.31,-80.08 3108.14,-73.33"/>
</a>
</g>
</g>
<!-- Node57&#45;&gt;Node8 -->
<g id="edge56_Node000057_Node000008" class="edge">
<title>Node57&#45;&gt;Node8</title>
<g id="a_edge56_Node000057_Node000008"><a xlink:title=" ">
<path fill="none" stroke="#63b8ff" d="M3285.26,-109.98C3311.06,-100.93 3351.98,-86.56 3380.32,-76.62"/>
<polygon fill="#63b8ff" stroke="#63b8ff" points="3381.49,-79.92 3389.77,-73.3 3379.17,-73.31 3381.49,-79.92"/>
</a>
</g>
</g>
<!-- Node57&#45;&gt;Node9 -->
<g id="edge57_Node000057_Node000009" class="edge">
<title>Node57&#45;&gt;Node9</title>
<g id="a_edge57_Node000057_Node000009"><a xlink:title=" ">
<path fill="none" stroke="#63b8ff" d="M3263.31,-109.75C3265.17,-102.72 3267.84,-92.62 3270.15,-83.84"/>
<polygon fill="#63b8ff" stroke="#63b8ff" points="3273.56,-84.65 3272.73,-74.09 3266.79,-82.86 3273.56,-84.65"/>
</a>
</g>
</g>
<!-- Node57&#45;&gt;Node11 -->
<g id="edge53_Node000057_Node000011" class="edge">
<title>Node57&#45;&gt;Node11</title>
<g id="a_edge53_Node000057_Node000011"><a xlink:title=" ">
<path fill="none" stroke="#63b8ff" d="M3274.01,-109.98C3286.46,-101.84 3305.46,-89.41 3320.21,-79.76"/>
<polygon fill="#63b8ff" stroke="#63b8ff" points="3322.3,-82.57 3328.75,-74.17 3318.46,-76.72 3322.3,-82.57"/>
</a>
</g>
</g>
<!-- Node57&#45;&gt;Node12 -->
<g id="edge54_Node000057_Node000012" class="edge">
<title>Node57&#45;&gt;Node12</title>
<g id="a_edge54_Node000057_Node000012"><a xlink:title=" ">
<path fill="none" stroke="#63b8ff" d="M3252.58,-109.75C3245.23,-102.11 3234.37,-90.82 3225.46,-81.56"/>
<polygon fill="#63b8ff" stroke="#63b8ff" points="3227.72,-78.87 3218.26,-74.09 3222.68,-83.72 3227.72,-78.87"/>
</a>
</g>
</g>
<!-- Node61&#45;&gt;Node2 -->
<g id="edge63_Node000061_Node000002" class="edge">
<title>Node61&#45;&gt;Node2</title>
<g id="a_edge63_Node000061_Node000002"><a xlink:title=" ">
<path fill="none" stroke="#63b8ff" d="M3109.94,-109.75C3114.98,-102.34 3122.34,-91.5 3128.51,-82.41"/>
<polygon fill="#63b8ff" stroke="#63b8ff" points="3131.44,-84.33 3134.17,-74.09 3125.65,-80.39 3131.44,-84.33"/>
</a>
</g>
</g>
<!-- Node61&#45;&gt;Node8 -->
<g id="edge61_Node000061_Node000008" class="edge">
<title>Node61&#45;&gt;Node8</title>
<g id="a_edge61_Node000061_Node000008"><a xlink:title=" ">
<path fill="none" stroke="#63b8ff" d="M3151.84,-112.42C3205.23,-105.28 3294.35,-92.29 3379.85,-74.05"/>
<polygon fill="#63b8ff" stroke="#63b8ff" points="3380.69,-77.45 3389.72,-71.92 3379.21,-70.61 3380.69,-77.45"/>
</a>
</g>
</g>
<!-- Node61&#45;&gt;Node12 -->
<g id="edge62_Node000061_Node000012" class="edge">
<title>Node61&#45;&gt;Node12</title>
<g id="a_edge62_Node000061_Node000012"><a xlink:title=" ">
<path fill="none" stroke="#63b8ff" d="M3121.03,-109.98C3137.93,-101.54 3164.06,-88.47 3183.64,-78.68"/>
<polygon fill="#63b8ff" stroke="#63b8ff" points="3185.28,-81.77 3192.66,-74.17 3182.15,-75.51 3185.28,-81.77"/>
</a>
</g>
</g>
<!-- Node63&#45;&gt;Node8 -->
<g id="edge65_Node000063_Node000008" class="edge">
<title>Node63&#45;&gt;Node8</title>
<g id="a_edge65_Node000063_Node000008"><a xlink:title=" ">
<path fill="none" stroke="#63b8ff" d="M3470.94,-170.39C3473.54,-156.76 3476.78,-129.76 3467,-110 3460.68,-97.23 3448.79,-86.9 3437.69,-79.42"/>
<polygon fill="#63b8ff" stroke="#63b8ff" points="3439.4,-76.36 3429.06,-74.03 3435.69,-82.3 3439.4,-76.36"/>
</a>
</g>
</g>
<!-- Node66&#45;&gt;Node4 -->
<g id="edge69_Node000066_Node000004" class="edge">
<title>Node66&#45;&gt;Node4</title>
<g id="a_edge69_Node000066_Node000004"><a xlink:title=" ">
<path fill="none" stroke="#63b8ff" d="M3440.83,-109.98C3470.37,-100.61 3517.81,-85.55 3549.19,-75.59"/>
<polygon fill="#63b8ff" stroke="#63b8ff" points="3550.3,-78.91 3558.78,-72.55 3548.19,-72.24 3550.3,-78.91"/>
</a>
</g>
</g>
<!-- Node66&#45;&gt;Node8 -->
<g id="edge68_Node000066_Node000008" class="edge">
<title>Node66&#45;&gt;Node8</title>
<g id="a_edge68_Node000066_Node000008"><a xlink:title=" ">
<path fill="none" stroke="#63b8ff" d="M3413.67,-109.75C3413.41,-102.8 3413.03,-92.85 3412.7,-84.13"/>
<polygon fill="#63b8ff" stroke="#63b8ff" points="3416.2,-83.95 3412.32,-74.09 3409.2,-84.21 3416.2,-83.95"/>
</a>
</g>
</g>
<!-- Node66&#45;&gt;Node9 -->
<g id="edge70_Node000066_Node000009" class="edge">
<title>Node66&#45;&gt;Node9</title>
<g id="a_edge70_Node000066_Node000009"><a xlink:title=" ">
<path fill="none" stroke="#63b8ff" d="M3391.67,-109.98C3367.71,-100.85 3329.61,-86.32 3303.51,-76.37"/>
<polygon fill="#63b8ff" stroke="#63b8ff" points="3304.74,-73.09 3294.14,-72.8 3302.24,-79.63 3304.74,-73.09"/>
</a>
</g>
</g>
<!-- Node66&#45;&gt;Node11 -->
<g id="edge71_Node000066_Node000011" class="edge">
<title>Node66&#45;&gt;Node11</title>
<g id="a_edge71_Node000066_Node000011"><a xlink:title=" ">
<path fill="none" stroke="#63b8ff" d="M3402.43,-109.98C3391.58,-102 3375.12,-89.88 3362.12,-80.31"/>
<polygon fill="#63b8ff" stroke="#63b8ff" points="3363.91,-77.28 3353.78,-74.17 3359.76,-82.92 3363.91,-77.28"/>
</a>
</g>
</g>
</g>
</svg>
