<?xml version="1.0" encoding="UTF-8" standalone="no"?>
<!DOCTYPE svg PUBLIC "-//W3C//DTD SVG 1.1//EN"
 "http://www.w3.org/Graphics/SVG/1.1/DTD/svg11.dtd">
<!-- Generated by graphviz version 2.43.0 (0)
 -->
<!-- Title: /home/runner/work/mooseneuro.github.io/mooseneuro.github.io/docs/moose&#45;core/msg/Msg.cpp Pages: 1 -->
<svg width="3593pt" height="214pt"
 viewBox="0.00 0.00 3593.00 214.00" xmlns="http://www.w3.org/2000/svg" xmlns:xlink="http://www.w3.org/1999/xlink">
<g id="graph0" class="graph" transform="scale(1 1) rotate(0) translate(4 210)">
<title>/home/runner/work/mooseneuro.github.io/mooseneuro.github.io/docs/moose&#45;core/msg/Msg.cpp</title>
<!-- Node1 -->
<g id="Node000001" class="node">
<title>Node1</title>
<g id="a_Node000001"><a xlink:title=" ">
<polygon fill="#999999" stroke="#666666" points="3179.5,-206 2961.5,-206 2961.5,-165 3179.5,-165 3179.5,-206"/>
<text text-anchor="start" x="2969.5" y="-194" font-family="Ubuntu Mono" font-size="10.00">/home/runner/work/mooseneuro.github.io</text>
<text text-anchor="start" x="2969.5" y="-183" font-family="Ubuntu Mono" font-size="10.00">/mooseneuro.github.io/docs/moose</text>
<text text-anchor="middle" x="3070.5" y="-172" font-family="Ubuntu Mono" font-size="10.00">&#45;core/msg/Msg.cpp</text>
</a>
</g>
</g>
<!-- Node2 -->
<g id="Node000002" class="node">
<title>Node2</title>
<g id="a_Node000002"><a xlink:href="header_8h.html" target="_top" xlink:title=" ">
<polygon fill="#fff0f0" stroke="red" points="1664,-129 1547,-129 1547,-110 1664,-110 1664,-129"/>
<text text-anchor="middle" x="1605.5" y="-117" font-family="Ubuntu Mono" font-size="10.00">../basecode/header.h</text>
</a>
</g>
</g>
<!-- Node1&#45;&gt;Node2 -->
<g id="edge1_Node000001_Node000002" class="edge">
<title>Node1&#45;&gt;Node2</title>
<g id="a_edge1_Node000001_Node000002"><a xlink:title=" ">
<path fill="none" stroke="#63b8ff" d="M2961.29,-179.73C2674.84,-167.22 1907.96,-133.71 1674.13,-123.5"/>
<polygon fill="#63b8ff" stroke="#63b8ff" points="1674.2,-120 1664.06,-123.06 1673.9,-126.99 1674.2,-120"/>
</a>
</g>
</g>
<!-- Node44 -->
<g id="Node000044" class="node">
<title>Node44</title>
<g id="a_Node000044"><a xlink:href="SingleMsg_8h.html" target="_top" xlink:title=" ">
<polygon fill="white" stroke="#666666" points="2690.5,-129 2614.5,-129 2614.5,-110 2690.5,-110 2690.5,-129"/>
<text text-anchor="middle" x="2652.5" y="-117" font-family="Ubuntu Mono" font-size="10.00">SingleMsg.h</text>
</a>
</g>
</g>
<!-- Node1&#45;&gt;Node44 -->
<g id="edge43_Node000001_Node000044" class="edge">
<title>Node1&#45;&gt;Node44</title>
<g id="a_edge43_Node000001_Node000044"><a xlink:title=" ">
<path fill="none" stroke="#63b8ff" d="M2961.1,-168.86C2889.9,-158.5 2794.76,-144.32 2700.72,-129"/>
<polygon fill="#63b8ff" stroke="#63b8ff" points="2701.17,-125.52 2690.74,-127.36 2700.04,-132.43 2701.17,-125.52"/>
</a>
</g>
</g>
<!-- Node45 -->
<g id="Node000045" class="node">
<title>Node45</title>
<g id="a_Node000045"><a xlink:href="DiagonalMsg_8h.html" target="_top" xlink:title=" ">
<polygon fill="white" stroke="#666666" points="2798,-129 2709,-129 2709,-110 2798,-110 2798,-129"/>
<text text-anchor="middle" x="2753.5" y="-117" font-family="Ubuntu Mono" font-size="10.00">DiagonalMsg.h</text>
</a>
</g>
</g>
<!-- Node1&#45;&gt;Node45 -->
<g id="edge44_Node000001_Node000045" class="edge">
<title>Node1&#45;&gt;Node45</title>
<g id="a_edge44_Node000001_Node000045"><a xlink:title=" ">
<path fill="none" stroke="#63b8ff" d="M2973.67,-164.95C2918.31,-153.77 2851.07,-140.2 2805.58,-131.01"/>
<polygon fill="#63b8ff" stroke="#63b8ff" points="2806.14,-127.56 2795.64,-129.01 2804.75,-134.42 2806.14,-127.56"/>
</a>
</g>
</g>
<!-- Node46 -->
<g id="Node000046" class="node">
<title>Node46</title>
<g id="a_Node000046"><a xlink:href="OneToOneMsg_8h.html" target="_top" xlink:title=" ">
<polygon fill="white" stroke="#666666" points="2911,-129 2816,-129 2816,-110 2911,-110 2911,-129"/>
<text text-anchor="middle" x="2863.5" y="-117" font-family="Ubuntu Mono" font-size="10.00">OneToOneMsg.h</text>
</a>
</g>
</g>
<!-- Node1&#45;&gt;Node46 -->
<g id="edge45_Node000001_Node000046" class="edge">
<title>Node1&#45;&gt;Node46</title>
<g id="a_edge45_Node000001_Node000046"><a xlink:title=" ">
<path fill="none" stroke="#63b8ff" d="M3007.27,-164.95C2972.49,-154.2 2930.52,-141.22 2900.94,-132.07"/>
<polygon fill="#63b8ff" stroke="#63b8ff" points="2901.61,-128.62 2891.02,-129.01 2899.54,-135.31 2901.61,-128.62"/>
</a>
</g>
</g>
<!-- Node47 -->
<g id="Node000047" class="node">
<title>Node47</title>
<g id="a_Node000047"><a xlink:href="OneToOneDataIndexMsg_8h.html" target="_top" xlink:title=" ">
<polygon fill="white" stroke="#666666" points="3075.5,-129 2929.5,-129 2929.5,-110 3075.5,-110 3075.5,-129"/>
<text text-anchor="middle" x="3002.5" y="-117" font-family="Ubuntu Mono" font-size="10.00">OneToOneDataIndexMsg.h</text>
</a>
</g>
</g>
<!-- Node1&#45;&gt;Node47 -->
<g id="edge46_Node000001_Node000047" class="edge">
<title>Node1&#45;&gt;Node47</title>
<g id="a_edge46_Node000001_Node000047"><a xlink:title=" ">
<path fill="none" stroke="#63b8ff" d="M3049.73,-164.95C3039.94,-155.74 3028.42,-144.9 3019.21,-136.23"/>
<polygon fill="#63b8ff" stroke="#63b8ff" points="3021.49,-133.57 3011.81,-129.26 3016.69,-138.66 3021.49,-133.57"/>
</a>
</g>
</g>
<!-- Node48 -->
<g id="Node000048" class="node">
<title>Node48</title>
<g id="a_Node000048"><a xlink:href="OneToAllMsg_8h.html" target="_top" xlink:title=" ">
<polygon fill="white" stroke="#666666" points="3183,-129 3094,-129 3094,-110 3183,-110 3183,-129"/>
<text text-anchor="middle" x="3138.5" y="-117" font-family="Ubuntu Mono" font-size="10.00">OneToAllMsg.h</text>
</a>
</g>
</g>
<!-- Node1&#45;&gt;Node48 -->
<g id="edge47_Node000001_Node000048" class="edge">
<title>Node1&#45;&gt;Node48</title>
<g id="a_edge47_Node000001_Node000048"><a xlink:title=" ">
<path fill="none" stroke="#63b8ff" d="M3091.27,-164.95C3101.06,-155.74 3112.58,-144.9 3121.79,-136.23"/>
<polygon fill="#63b8ff" stroke="#63b8ff" points="3124.31,-138.66 3129.19,-129.26 3119.51,-133.57 3124.31,-138.66"/>
</a>
</g>
</g>
<!-- Node49 -->
<g id="Node000049" class="node">
<title>Node49</title>
<g id="a_Node000049"><a xlink:href="SparseMatrix_8h.html" target="_top" xlink:title=" ">
<polygon fill="white" stroke="#666666" points="3459,-74 3310,-74 3310,-55 3459,-55 3459,-74"/>
<text text-anchor="middle" x="3384.5" y="-62" font-family="Ubuntu Mono" font-size="10.00">../basecode/SparseMatrix.h</text>
</a>
</g>
</g>
<!-- Node1&#45;&gt;Node49 -->
<g id="edge48_Node000001_Node000049" class="edge">
<title>Node1&#45;&gt;Node49</title>
<g id="a_edge48_Node000001_Node000049"><a xlink:title=" ">
<path fill="none" stroke="#63b8ff" d="M3179.63,-180.34C3262.06,-174.64 3365.46,-161.11 3392.5,-129 3403,-116.54 3398.84,-97.52 3393.38,-83.55"/>
<polygon fill="#63b8ff" stroke="#63b8ff" points="3396.42,-81.76 3389.17,-74.03 3390.02,-84.59 3396.42,-81.76"/>
</a>
</g>
</g>
<!-- Node50 -->
<g id="Node000050" class="node">
<title>Node50</title>
<g id="a_Node000050"><a xlink:href="SparseMsg_8h.html" target="_top" xlink:title=" ">
<polygon fill="#fff0f0" stroke="red" points="3383,-129 3304,-129 3304,-110 3383,-110 3383,-129"/>
<text text-anchor="middle" x="3343.5" y="-117" font-family="Ubuntu Mono" font-size="10.00">SparseMsg.h</text>
</a>
</g>
</g>
<!-- Node1&#45;&gt;Node50 -->
<g id="edge50_Node000001_Node000050" class="edge">
<title>Node1&#45;&gt;Node50</title>
<g id="a_edge50_Node000001_Node000050"><a xlink:title=" ">
<path fill="none" stroke="#63b8ff" d="M3153.89,-164.95C3201.06,-153.89 3258.25,-140.48 3297.41,-131.3"/>
<polygon fill="#63b8ff" stroke="#63b8ff" points="3298.27,-134.7 3307.21,-129.01 3296.67,-127.88 3298.27,-134.7"/>
</a>
</g>
</g>
<!-- Node58 -->
<g id="Node000058" class="node">
<title>Node58</title>
<g id="a_Node000058"><a xlink:href="Shell_8h.html" target="_top" xlink:title=" ">
<polygon fill="white" stroke="#666666" points="3286,-129 3201,-129 3201,-110 3286,-110 3286,-129"/>
<text text-anchor="middle" x="3243.5" y="-117" font-family="Ubuntu Mono" font-size="10.00">../shell/Shell.h</text>
</a>
</g>
</g>
<!-- Node1&#45;&gt;Node58 -->
<g id="edge52_Node000001_Node000058" class="edge">
<title>Node1&#45;&gt;Node58</title>
<g id="a_edge52_Node000001_Node000058"><a xlink:title=" ">
<path fill="none" stroke="#63b8ff" d="M3123.35,-164.95C3151.82,-154.42 3186.05,-141.75 3210.68,-132.64"/>
<polygon fill="#63b8ff" stroke="#63b8ff" points="3212.11,-135.84 3220.28,-129.09 3209.68,-129.28 3212.11,-135.84"/>
</a>
</g>
</g>
<!-- Node59 -->
<g id="Node000059" class="node">
<title>Node59</title>
<g id="a_Node000059"><a xlink:href="MsgElement_8h.html" target="_top" xlink:title=" ">
<polygon fill="white" stroke="#666666" points="3585,-129 3440,-129 3440,-110 3585,-110 3585,-129"/>
<text text-anchor="middle" x="3512.5" y="-117" font-family="Ubuntu Mono" font-size="10.00">../basecode/MsgElement.h</text>
</a>
</g>
</g>
<!-- Node1&#45;&gt;Node59 -->
<g id="edge54_Node000001_Node000059" class="edge">
<title>Node1&#45;&gt;Node59</title>
<g id="a_edge54_Node000001_Node000059"><a xlink:title=" ">
<path fill="none" stroke="#63b8ff" d="M3179.76,-168.68C3262.24,-156.74 3372.89,-140.71 3443.47,-130.5"/>
<polygon fill="#63b8ff" stroke="#63b8ff" points="3444.18,-133.93 3453.58,-129.03 3443.18,-127 3444.18,-133.93"/>
</a>
</g>
</g>
<!-- Node3 -->
<g id="Node000003" class="node">
<title>Node3</title>
<g id="a_Node000003"><a xlink:title=" ">
<polygon fill="#e0e0e0" stroke="#999999" points="3110,-74 3059,-74 3059,-55 3110,-55 3110,-74"/>
<text text-anchor="middle" x="3084.5" y="-62" font-family="Ubuntu Mono" font-size="10.00">math.h</text>
</a>
</g>
</g>
<!-- Node2&#45;&gt;Node3 -->
<g id="edge2_Node000002_Node000003" class="edge">
<title>Node2&#45;&gt;Node3</title>
<g id="a_edge2_Node000002_Node000003"><a xlink:title=" ">
<path fill="none" stroke="#63b8ff" d="M1664.14,-118.37C1896.73,-117.59 2755.49,-112.23 3048.8,-73.88"/>
<polygon fill="#63b8ff" stroke="#63b8ff" points="3049.55,-77.31 3059,-72.5 3048.62,-70.37 3049.55,-77.31"/>
</a>
</g>
</g>
<!-- Node4 -->
<g id="Node000004" class="node">
<title>Node4</title>
<g id="a_Node000004"><a xlink:title=" ">
<polygon fill="#e0e0e0" stroke="#999999" points="3192.5,-74 3128.5,-74 3128.5,-55 3192.5,-55 3192.5,-74"/>
<text text-anchor="middle" x="3160.5" y="-62" font-family="Ubuntu Mono" font-size="10.00">algorithm</text>
</a>
</g>
</g>
<!-- Node2&#45;&gt;Node4 -->
<g id="edge3_Node000002_Node000004" class="edge">
<title>Node2&#45;&gt;Node4</title>
<g id="a_edge3_Node000002_Node000004"><a xlink:title=" ">
<path fill="none" stroke="#63b8ff" d="M1664.41,-118.15C1904.35,-116.5 2809.45,-108.18 3118.07,-73.9"/>
<polygon fill="#63b8ff" stroke="#63b8ff" points="3118.82,-77.33 3128.36,-72.72 3118.02,-70.38 3118.82,-77.33"/>
</a>
</g>
</g>
<!-- Node5 -->
<g id="Node000005" class="node">
<title>Node5</title>
<g id="a_Node000005"><a xlink:title=" ">
<polygon fill="#e0e0e0" stroke="#999999" points="3326,-19 3279,-19 3279,0 3326,0 3326,-19"/>
<text text-anchor="middle" x="3302.5" y="-7" font-family="Ubuntu Mono" font-size="10.00">vector</text>
</a>
</g>
</g>
<!-- Node2&#45;&gt;Node5 -->
<g id="edge4_Node000002_Node000005" class="edge">
<title>Node2&#45;&gt;Node5</title>
<g id="a_edge4_Node000002_Node000005"><a xlink:title=" ">
<path fill="none" stroke="#63b8ff" d="M1664.42,-117.73C1944.02,-113.95 3126.69,-96.7 3201.5,-74 3218.53,-68.83 3258.23,-41.98 3282.47,-24.89"/>
<polygon fill="#63b8ff" stroke="#63b8ff" points="3284.51,-27.73 3290.64,-19.09 3280.46,-22.03 3284.51,-27.73"/>
</a>
</g>
</g>
<!-- Node6 -->
<g id="Node000006" class="node">
<title>Node6</title>
<g id="a_Node000006"><a xlink:title=" ">
<polygon fill="#e0e0e0" stroke="#999999" points="3292.5,-74 3248.5,-74 3248.5,-55 3292.5,-55 3292.5,-74"/>
<text text-anchor="middle" x="3270.5" y="-62" font-family="Ubuntu Mono" font-size="10.00">string</text>
</a>
</g>
</g>
<!-- Node2&#45;&gt;Node6 -->
<g id="edge5_Node000002_Node000006" class="edge">
<title>Node2&#45;&gt;Node6</title>
<g id="a_edge5_Node000002_Node000006"><a xlink:title=" ">
<path fill="none" stroke="#63b8ff" d="M1664.13,-118.5C1917.76,-118.28 2921.69,-114.76 3234.5,-74 3235.75,-73.84 3237.03,-73.65 3238.31,-73.44"/>
<polygon fill="#63b8ff" stroke="#63b8ff" points="3239.02,-76.87 3248.16,-71.52 3237.68,-70 3239.02,-76.87"/>
</a>
</g>
</g>
<!-- Node7 -->
<g id="Node000007" class="node">
<title>Node7</title>
<g id="a_Node000007"><a xlink:title=" ">
<polygon fill="#e0e0e0" stroke="#999999" points="115.5,-74 77.5,-74 77.5,-55 115.5,-55 115.5,-74"/>
<text text-anchor="middle" x="96.5" y="-62" font-family="Ubuntu Mono" font-size="10.00">map</text>
</a>
</g>
</g>
<!-- Node2&#45;&gt;Node7 -->
<g id="edge6_Node000002_Node000007" class="edge">
<title>Node2&#45;&gt;Node7</title>
<g id="a_edge6_Node000002_Node000007"><a xlink:title=" ">
<path fill="none" stroke="#63b8ff" d="M1546.97,-118.8C1310.66,-119.72 425.67,-120.03 125.62,-73.63"/>
<polygon fill="#63b8ff" stroke="#63b8ff" points="126.05,-70.16 115.62,-72.03 124.94,-77.07 126.05,-70.16"/>
</a>
</g>
</g>
<!-- Node8 -->
<g id="Node000008" class="node">
<title>Node8</title>
<g id="a_Node000008"><a xlink:title=" ">
<polygon fill="#e0e0e0" stroke="#999999" points="227,-74 134,-74 134,-55 227,-55 227,-74"/>
<text text-anchor="middle" x="180.5" y="-62" font-family="Ubuntu Mono" font-size="10.00">unordered_map</text>
</a>
</g>
</g>
<!-- Node2&#45;&gt;Node8 -->
<g id="edge7_Node000002_Node000008" class="edge">
<title>Node2&#45;&gt;Node8</title>
<g id="a_edge7_Node000002_Node000008"><a xlink:title=" ">
<path fill="none" stroke="#63b8ff" d="M1546.97,-119.06C1358.52,-120.36 750.46,-120.45 237.4,-73.94"/>
<polygon fill="#63b8ff" stroke="#63b8ff" points="237.48,-70.43 227.2,-73.01 236.84,-77.41 237.48,-70.43"/>
</a>
</g>
</g>
<!-- Node9 -->
<g id="Node000009" class="node">
<title>Node9</title>
<g id="a_Node000009"><a xlink:title=" ">
<polygon fill="#e0e0e0" stroke="#999999" points="305.5,-74 245.5,-74 245.5,-55 305.5,-55 305.5,-74"/>
<text text-anchor="middle" x="275.5" y="-62" font-family="Ubuntu Mono" font-size="10.00">iostream</text>
</a>
</g>
</g>
<!-- Node2&#45;&gt;Node9 -->
<g id="edge8_Node000002_Node000009" class="edge">
<title>Node2&#45;&gt;Node9</title>
<g id="a_edge8_Node000002_Node000009"><a xlink:title=" ">
<path fill="none" stroke="#63b8ff" d="M1546.91,-117.88C1330.85,-115.39 578.1,-104.75 315.89,-73.88"/>
<polygon fill="#63b8ff" stroke="#63b8ff" points="315.99,-70.37 305.64,-72.63 315.14,-77.31 315.99,-70.37"/>
</a>
</g>
</g>
<!-- Node10 -->
<g id="Node000010" class="node">
<title>Node10</title>
<g id="a_Node000010"><a xlink:title=" ">
<polygon fill="#e0e0e0" stroke="#999999" points="379.5,-74 323.5,-74 323.5,-55 379.5,-55 379.5,-74"/>
<text text-anchor="middle" x="351.5" y="-62" font-family="Ubuntu Mono" font-size="10.00">sstream</text>
</a>
</g>
</g>
<!-- Node2&#45;&gt;Node10 -->
<g id="edge9_Node000002_Node000010" class="edge">
<title>Node2&#45;&gt;Node10</title>
<g id="a_edge9_Node000002_Node000010"><a xlink:title=" ">
<path fill="none" stroke="#63b8ff" d="M1546.94,-117.62C1336.76,-114.24 620.88,-101 393.5,-74 392.39,-73.87 391.27,-73.72 390.14,-73.57"/>
<polygon fill="#63b8ff" stroke="#63b8ff" points="390.3,-70.05 379.87,-71.89 389.17,-76.95 390.3,-70.05"/>
</a>
</g>
</g>
<!-- Node11 -->
<g id="Node000011" class="node">
<title>Node11</title>
<g id="a_Node000011"><a xlink:title=" ">
<polygon fill="#e0e0e0" stroke="#999999" points="247,-19 190,-19 190,0 247,0 247,-19"/>
<text text-anchor="middle" x="218.5" y="-7" font-family="Ubuntu Mono" font-size="10.00">typeinfo</text>
</a>
</g>
</g>
<!-- Node2&#45;&gt;Node11 -->
<g id="edge10_Node000002_Node000011" class="edge">
<title>Node2&#45;&gt;Node11</title>
<g id="a_edge10_Node000002_Node000011"><a xlink:title=" ">
<path fill="none" stroke="#63b8ff" d="M1546.69,-117.74C1323.42,-114.65 535.33,-101.87 426.5,-74 408.21,-69.32 406.17,-61.65 388.5,-55 344.45,-38.43 291.75,-25.67 256.83,-18.15"/>
<polygon fill="#63b8ff" stroke="#63b8ff" points="257.54,-14.72 247.03,-16.07 256.09,-21.57 257.54,-14.72"/>
</a>
</g>
</g>
<!-- Node12 -->
<g id="Node000012" class="node">
<title>Node12</title>
<g id="a_Node000012"><a xlink:title=" ">
<polygon fill="#e0e0e0" stroke="#999999" points="487.5,-74 435.5,-74 435.5,-55 487.5,-55 487.5,-74"/>
<text text-anchor="middle" x="461.5" y="-62" font-family="Ubuntu Mono" font-size="10.00">cassert</text>
</a>
</g>
</g>
<!-- Node2&#45;&gt;Node12 -->
<g id="edge11_Node000002_Node000012" class="edge">
<title>Node2&#45;&gt;Node12</title>
<g id="a_edge11_Node000002_Node000012"><a xlink:title=" ">
<path fill="none" stroke="#63b8ff" d="M1546.8,-117.68C1351.18,-114.71 721.69,-103.18 497.8,-73.84"/>
<polygon fill="#63b8ff" stroke="#63b8ff" points="498.15,-70.35 487.77,-72.47 497.2,-77.29 498.15,-70.35"/>
</a>
</g>
</g>
<!-- Node13 -->
<g id="Node000013" class="node">
<title>Node13</title>
<g id="a_Node000013"><a xlink:href="doubleEq_8h.html" target="_top" xlink:title=" ">
<polygon fill="white" stroke="#666666" points="577,-74 506,-74 506,-55 577,-55 577,-74"/>
<text text-anchor="middle" x="541.5" y="-62" font-family="Ubuntu Mono" font-size="10.00">doubleEq.h</text>
</a>
</g>
</g>
<!-- Node2&#45;&gt;Node13 -->
<g id="edge12_Node000002_Node000013" class="edge">
<title>Node2&#45;&gt;Node13</title>
<g id="a_edge12_Node000002_Node000013"><a xlink:title=" ">
<path fill="none" stroke="#63b8ff" d="M1546.9,-118.95C1391.71,-119.51 957.18,-116.88 587.54,-74.07"/>
<polygon fill="#63b8ff" stroke="#63b8ff" points="587.79,-70.58 577.45,-72.89 586.98,-77.53 587.79,-70.58"/>
</a>
</g>
</g>
<!-- Node14 -->
<g id="Node000014" class="node">
<title>Node14</title>
<g id="a_Node000014"><a xlink:href="Id_8h.html" target="_top" xlink:title=" ">
<polygon fill="white" stroke="#666666" points="630,-74 595,-74 595,-55 630,-55 630,-74"/>
<text text-anchor="middle" x="612.5" y="-62" font-family="Ubuntu Mono" font-size="10.00">Id.h</text>
</a>
</g>
</g>
<!-- Node2&#45;&gt;Node14 -->
<g id="edge13_Node000002_Node000014" class="edge">
<title>Node2&#45;&gt;Node14</title>
<g id="a_edge13_Node000002_Node000014"><a xlink:title=" ">
<path fill="none" stroke="#63b8ff" d="M1546.76,-117.87C1368.32,-115.64 833.5,-106.49 640.28,-73.78"/>
<polygon fill="#63b8ff" stroke="#63b8ff" points="640.7,-70.3 630.24,-72 639.47,-77.19 640.7,-70.3"/>
</a>
</g>
</g>
<!-- Node15 -->
<g id="Node000015" class="node">
<title>Node15</title>
<g id="a_Node000015"><a xlink:href="ObjId_8h.html" target="_top" xlink:title=" ">
<polygon fill="white" stroke="#666666" points="699,-74 648,-74 648,-55 699,-55 699,-74"/>
<text text-anchor="middle" x="673.5" y="-62" font-family="Ubuntu Mono" font-size="10.00">ObjId.h</text>
</a>
</g>
</g>
<!-- Node2&#45;&gt;Node15 -->
<g id="edge14_Node000002_Node000015" class="edge">
<title>Node2&#45;&gt;Node15</title>
<g id="a_edge14_Node000002_Node000015"><a xlink:title=" ">
<path fill="none" stroke="#63b8ff" d="M1546.81,-117.09C1377.5,-112.79 889.37,-98.7 709.15,-73.9"/>
<polygon fill="#63b8ff" stroke="#63b8ff" points="709.41,-70.4 699.01,-72.45 708.41,-77.33 709.41,-70.4"/>
</a>
</g>
</g>
<!-- Node16 -->
<g id="Node000016" class="node">
<title>Node16</title>
<g id="a_Node000016"><a xlink:href="Cinfo_8h.html" target="_top" xlink:title=" ">
<polygon fill="white" stroke="#666666" points="768,-74 717,-74 717,-55 768,-55 768,-74"/>
<text text-anchor="middle" x="742.5" y="-62" font-family="Ubuntu Mono" font-size="10.00">Cinfo.h</text>
</a>
</g>
</g>
<!-- Node2&#45;&gt;Node16 -->
<g id="edge15_Node000002_Node000016" class="edge">
<title>Node2&#45;&gt;Node16</title>
<g id="a_edge15_Node000002_Node000016"><a xlink:title=" ">
<path fill="none" stroke="#63b8ff" d="M1546.91,-119.05C1412.47,-119.51 1071.55,-116.16 777.99,-73.73"/>
<polygon fill="#63b8ff" stroke="#63b8ff" points="778.41,-70.26 768.01,-72.27 777.4,-77.18 778.41,-70.26"/>
</a>
</g>
</g>
<!-- Node17 -->
<g id="Node000017" class="node">
<title>Node17</title>
<g id="a_Node000017"><a xlink:href="basecode_2Finfo_8h.html" target="_top" xlink:title=" ">
<polygon fill="white" stroke="#666666" points="836.5,-74 786.5,-74 786.5,-55 836.5,-55 836.5,-74"/>
<text text-anchor="middle" x="811.5" y="-62" font-family="Ubuntu Mono" font-size="10.00">Finfo.h</text>
</a>
</g>
</g>
<!-- Node2&#45;&gt;Node17 -->
<g id="edge16_Node000002_Node000017" class="edge">
<title>Node2&#45;&gt;Node17</title>
<g id="a_edge16_Node000002_Node000017"><a xlink:title=" ">
<path fill="none" stroke="#63b8ff" d="M1546.95,-118.78C1420.56,-118.57 1112.79,-113.78 846.88,-73.9"/>
<polygon fill="#63b8ff" stroke="#63b8ff" points="847.06,-70.38 836.64,-72.34 846.01,-77.3 847.06,-70.38"/>
</a>
</g>
</g>
<!-- Node18 -->
<g id="Node000018" class="node">
<title>Node18</title>
<g id="a_Node000018"><a xlink:href="DestFinfo_8h.html" target="_top" xlink:title=" ">
<polygon fill="white" stroke="#666666" points="926.5,-74 854.5,-74 854.5,-55 926.5,-55 926.5,-74"/>
<text text-anchor="middle" x="890.5" y="-62" font-family="Ubuntu Mono" font-size="10.00">DestFinfo.h</text>
</a>
</g>
</g>
<!-- Node2&#45;&gt;Node18 -->
<g id="edge17_Node000002_Node000018" class="edge">
<title>Node2&#45;&gt;Node18</title>
<g id="a_edge17_Node000002_Node000018"><a xlink:title=" ">
<path fill="none" stroke="#63b8ff" d="M1546.57,-116.97C1431.29,-113.45 1167.74,-102.88 936.72,-74"/>
<polygon fill="#63b8ff" stroke="#63b8ff" points="937.15,-70.52 926.79,-72.74 936.27,-77.47 937.15,-70.52"/>
</a>
</g>
</g>
<!-- Node19 -->
<g id="Node000019" class="node">
<title>Node19</title>
<g id="a_Node000019"><a xlink:href="ProcInfo_8h.html" target="_top" xlink:title=" ">
<polygon fill="white" stroke="#666666" points="1010,-74 945,-74 945,-55 1010,-55 1010,-74"/>
<text text-anchor="middle" x="977.5" y="-62" font-family="Ubuntu Mono" font-size="10.00">ProcInfo.h</text>
</a>
</g>
</g>
<!-- Node2&#45;&gt;Node19 -->
<g id="edge18_Node000002_Node000019" class="edge">
<title>Node2&#45;&gt;Node19</title>
<g id="a_edge18_Node000002_Node000019"><a xlink:title=" ">
<path fill="none" stroke="#63b8ff" d="M1546.91,-116.56C1442.75,-112.56 1218.39,-101.48 1020.13,-74.06"/>
<polygon fill="#63b8ff" stroke="#63b8ff" points="1020.5,-70.58 1010.11,-72.65 1019.53,-77.51 1020.5,-70.58"/>
</a>
</g>
</g>
<!-- Node20 -->
<g id="Node000020" class="node">
<title>Node20</title>
<g id="a_Node000020"><a xlink:href="MsgFuncBinding_8h.html" target="_top" xlink:title=" ">
<polygon fill="white" stroke="#666666" points="1133,-74 1028,-74 1028,-55 1133,-55 1133,-74"/>
<text text-anchor="middle" x="1080.5" y="-62" font-family="Ubuntu Mono" font-size="10.00">MsgFuncBinding.h</text>
</a>
</g>
</g>
<!-- Node2&#45;&gt;Node20 -->
<g id="edge19_Node000002_Node000020" class="edge">
<title>Node2&#45;&gt;Node20</title>
<g id="a_edge19_Node000002_Node000020"><a xlink:title=" ">
<path fill="none" stroke="#63b8ff" d="M1546.82,-113.68C1460.58,-106.43 1294.31,-91.75 1143,-74.13"/>
<polygon fill="#63b8ff" stroke="#63b8ff" points="1143.39,-70.66 1133.05,-72.97 1142.58,-77.61 1143.39,-70.66"/>
</a>
</g>
</g>
<!-- Node21 -->
<g id="Node000021" class="node">
<title>Node21</title>
<g id="a_Node000021"><a xlink:href="Msg_8h.html" target="_top" xlink:title=" ">
<polygon fill="white" stroke="#666666" points="1230,-74 1151,-74 1151,-55 1230,-55 1230,-74"/>
<text text-anchor="middle" x="1190.5" y="-62" font-family="Ubuntu Mono" font-size="10.00">../msg/Msg.h</text>
</a>
</g>
</g>
<!-- Node2&#45;&gt;Node21 -->
<g id="edge20_Node000002_Node000021" class="edge">
<title>Node2&#45;&gt;Node21</title>
<g id="a_edge20_Node000002_Node000021"><a xlink:title=" ">
<path fill="none" stroke="#63b8ff" d="M1546.74,-112.29C1476.39,-104.64 1354.76,-90.76 1240.06,-74.01"/>
<polygon fill="#63b8ff" stroke="#63b8ff" points="1240.46,-70.53 1230.05,-72.54 1239.44,-77.46 1240.46,-70.53"/>
</a>
</g>
</g>
<!-- Node22 -->
<g id="Node000022" class="node">
<title>Node22</title>
<g id="a_Node000022"><a xlink:href="Dinfo_8h.html" target="_top" xlink:title=" ">
<polygon fill="white" stroke="#666666" points="1300.5,-74 1248.5,-74 1248.5,-55 1300.5,-55 1300.5,-74"/>
<text text-anchor="middle" x="1274.5" y="-62" font-family="Ubuntu Mono" font-size="10.00">Dinfo.h</text>
</a>
</g>
</g>
<!-- Node2&#45;&gt;Node22 -->
<g id="edge21_Node000002_Node000022" class="edge">
<title>Node2&#45;&gt;Node22</title>
<g id="a_edge21_Node000002_Node000022"><a xlink:title=" ">
<path fill="none" stroke="#63b8ff" d="M1546.83,-111.25C1489.08,-103.75 1398.21,-91.02 1310.65,-74.08"/>
<polygon fill="#63b8ff" stroke="#63b8ff" points="1311.3,-70.64 1300.82,-72.16 1309.96,-77.51 1311.3,-70.64"/>
</a>
</g>
</g>
<!-- Node23 -->
<g id="Node000023" class="node">
<title>Node23</title>
<g id="a_Node000023"><a xlink:href="MsgDigest_8h.html" target="_top" xlink:title=" ">
<polygon fill="white" stroke="#666666" points="1396,-74 1319,-74 1319,-55 1396,-55 1396,-74"/>
<text text-anchor="middle" x="1357.5" y="-62" font-family="Ubuntu Mono" font-size="10.00">MsgDigest.h</text>
</a>
</g>
</g>
<!-- Node2&#45;&gt;Node23 -->
<g id="edge22_Node000002_Node000023" class="edge">
<title>Node2&#45;&gt;Node23</title>
<g id="a_edge22_Node000002_Node000023"><a xlink:title=" ">
<path fill="none" stroke="#63b8ff" d="M1565.65,-109.98C1522.16,-100.69 1452.5,-85.8 1405.89,-75.84"/>
<polygon fill="#63b8ff" stroke="#63b8ff" points="1406.53,-72.4 1396.02,-73.73 1405.07,-79.25 1406.53,-72.4"/>
</a>
</g>
</g>
<!-- Node24 -->
<g id="Node000024" class="node">
<title>Node24</title>
<g id="a_Node000024"><a xlink:href="Element_8h.html" target="_top" xlink:title=" ">
<polygon fill="white" stroke="#666666" points="1480.5,-74 1414.5,-74 1414.5,-55 1480.5,-55 1480.5,-74"/>
<text text-anchor="middle" x="1447.5" y="-62" font-family="Ubuntu Mono" font-size="10.00">Element.h</text>
</a>
</g>
</g>
<!-- Node2&#45;&gt;Node24 -->
<g id="edge23_Node000002_Node000024" class="edge">
<title>Node2&#45;&gt;Node24</title>
<g id="a_edge23_Node000002_Node000024"><a xlink:title=" ">
<path fill="none" stroke="#63b8ff" d="M1580.11,-109.98C1553.7,-101.13 1512.15,-87.19 1482.61,-77.28"/>
<polygon fill="#63b8ff" stroke="#63b8ff" points="1483.68,-73.94 1473.08,-74.08 1481.45,-80.58 1483.68,-73.94"/>
</a>
</g>
</g>
<!-- Node25 -->
<g id="Node000025" class="node">
<title>Node25</title>
<g id="a_Node000025"><a xlink:href="DataElement_8h.html" target="_top" xlink:title=" ">
<polygon fill="white" stroke="#666666" points="1588,-74 1499,-74 1499,-55 1588,-55 1588,-74"/>
<text text-anchor="middle" x="1543.5" y="-62" font-family="Ubuntu Mono" font-size="10.00">DataElement.h</text>
</a>
</g>
</g>
<!-- Node2&#45;&gt;Node25 -->
<g id="edge24_Node000002_Node000025" class="edge">
<title>Node2&#45;&gt;Node25</title>
<g id="a_edge24_Node000002_Node000025"><a xlink:title=" ">
<path fill="none" stroke="#63b8ff" d="M1595.54,-109.98C1586.37,-102.15 1572.56,-90.34 1561.47,-80.86"/>
<polygon fill="#63b8ff" stroke="#63b8ff" points="1563.52,-78.01 1553.64,-74.17 1558.97,-83.33 1563.52,-78.01"/>
</a>
</g>
</g>
<!-- Node26 -->
<g id="Node000026" class="node">
<title>Node26</title>
<g id="a_Node000026"><a xlink:href="GlobalDataElement_8h.html" target="_top" xlink:title=" ">
<polygon fill="white" stroke="#666666" points="1727,-74 1606,-74 1606,-55 1727,-55 1727,-74"/>
<text text-anchor="middle" x="1666.5" y="-62" font-family="Ubuntu Mono" font-size="10.00">GlobalDataElement.h</text>
</a>
</g>
</g>
<!-- Node2&#45;&gt;Node26 -->
<g id="edge25_Node000002_Node000026" class="edge">
<title>Node2&#45;&gt;Node26</title>
<g id="a_edge25_Node000002_Node000026"><a xlink:title=" ">
<path fill="none" stroke="#63b8ff" d="M1615.3,-109.98C1624.32,-102.15 1637.91,-90.34 1648.82,-80.86"/>
<polygon fill="#63b8ff" stroke="#63b8ff" points="1651.27,-83.37 1656.52,-74.17 1646.68,-78.09 1651.27,-83.37"/>
</a>
</g>
</g>
<!-- Node27 -->
<g id="Node000027" class="node">
<title>Node27</title>
<g id="a_Node000027"><a xlink:href="LocalDataElement_8h.html" target="_top" xlink:title=" ">
<polygon fill="white" stroke="#666666" points="1860,-74 1745,-74 1745,-55 1860,-55 1860,-74"/>
<text text-anchor="middle" x="1802.5" y="-62" font-family="Ubuntu Mono" font-size="10.00">LocalDataElement.h</text>
</a>
</g>
</g>
<!-- Node2&#45;&gt;Node27 -->
<g id="edge26_Node000002_Node000027" class="edge">
<title>Node2&#45;&gt;Node27</title>
<g id="a_edge26_Node000002_Node000027"><a xlink:title=" ">
<path fill="none" stroke="#63b8ff" d="M1637.15,-109.98C1670.66,-100.97 1723.7,-86.7 1760.64,-76.76"/>
<polygon fill="#63b8ff" stroke="#63b8ff" points="1761.85,-80.06 1770.6,-74.08 1760.03,-73.3 1761.85,-80.06"/>
</a>
</g>
</g>
<!-- Node28 -->
<g id="Node000028" class="node">
<title>Node28</title>
<g id="a_Node000028"><a xlink:href="Eref_8h.html" target="_top" xlink:title=" ">
<polygon fill="white" stroke="#666666" points="1922.5,-74 1878.5,-74 1878.5,-55 1922.5,-55 1922.5,-74"/>
<text text-anchor="middle" x="1900.5" y="-62" font-family="Ubuntu Mono" font-size="10.00">Eref.h</text>
</a>
</g>
</g>
<!-- Node2&#45;&gt;Node28 -->
<g id="edge27_Node000002_Node000028" class="edge">
<title>Node2&#45;&gt;Node28</title>
<g id="a_edge27_Node000002_Node000028"><a xlink:title=" ">
<path fill="none" stroke="#63b8ff" d="M1664.03,-110.18C1715.33,-102.52 1792.08,-90.21 1868.4,-73.83"/>
<polygon fill="#63b8ff" stroke="#63b8ff" points="1869.15,-77.25 1878.18,-71.71 1867.67,-70.41 1869.15,-77.25"/>
</a>
</g>
</g>
<!-- Node29 -->
<g id="Node000029" class="node">
<title>Node29</title>
<g id="a_Node000029"><a xlink:href="Conv_8h.html" target="_top" xlink:title=" ">
<polygon fill="#fff0f0" stroke="red" points="1990.5,-74 1940.5,-74 1940.5,-55 1990.5,-55 1990.5,-74"/>
<text text-anchor="middle" x="1965.5" y="-62" font-family="Ubuntu Mono" font-size="10.00">Conv.h</text>
</a>
</g>
</g>
<!-- Node2&#45;&gt;Node29 -->
<g id="edge28_Node000002_Node000029" class="edge">
<title>Node2&#45;&gt;Node29</title>
<g id="a_edge28_Node000002_Node000029"><a xlink:title=" ">
<path fill="none" stroke="#63b8ff" d="M1664.11,-112.45C1727.51,-105.48 1831.69,-92.74 1930.47,-74.01"/>
<polygon fill="#63b8ff" stroke="#63b8ff" points="1931.16,-77.44 1940.32,-72.12 1929.84,-70.57 1931.16,-77.44"/>
</a>
</g>
</g>
<!-- Node31 -->
<g id="Node000031" class="node">
<title>Node31</title>
<g id="a_Node000031"><a xlink:href="SrcFinfo_8h.html" target="_top" xlink:title=" ">
<polygon fill="white" stroke="#666666" points="2129,-19 2064,-19 2064,0 2129,0 2129,-19"/>
<text text-anchor="middle" x="2096.5" y="-7" font-family="Ubuntu Mono" font-size="10.00">SrcFinfo.h</text>
</a>
</g>
</g>
<!-- Node2&#45;&gt;Node31 -->
<g id="edge29_Node000002_Node000031" class="edge">
<title>Node2&#45;&gt;Node31</title>
<g id="a_edge29_Node000002_Node000031"><a xlink:title=" ">
<path fill="none" stroke="#63b8ff" d="M1664.26,-115.21C1758.58,-109.37 1939.28,-95.71 1999.5,-74 2015.62,-68.19 2053.2,-42.02 2076.57,-25.14"/>
<polygon fill="#63b8ff" stroke="#63b8ff" points="2078.72,-27.9 2084.75,-19.19 2074.61,-22.24 2078.72,-27.9"/>
</a>
</g>
</g>
<!-- Node32 -->
<g id="Node000032" class="node">
<title>Node32</title>
<g id="a_Node000032"><a xlink:href="OpFuncBase_8h.html" target="_top" xlink:title=" ">
<polygon fill="white" stroke="#666666" points="2218.5,-74 2132.5,-74 2132.5,-55 2218.5,-55 2218.5,-74"/>
<text text-anchor="middle" x="2175.5" y="-62" font-family="Ubuntu Mono" font-size="10.00">OpFuncBase.h</text>
</a>
</g>
</g>
<!-- Node2&#45;&gt;Node32 -->
<g id="edge30_Node000002_Node000032" class="edge">
<title>Node2&#45;&gt;Node32</title>
<g id="a_edge30_Node000002_Node000032"><a xlink:title=" ">
<path fill="none" stroke="#63b8ff" d="M1664.3,-114.92C1758.7,-108.84 1950.1,-95.19 2122.39,-74.04"/>
<polygon fill="#63b8ff" stroke="#63b8ff" points="2122.91,-77.51 2132.41,-72.8 2122.05,-70.56 2122.91,-77.51"/>
</a>
</g>
</g>
<!-- Node33 -->
<g id="Node000033" class="node">
<title>Node33</title>
<g id="a_Node000033"><a xlink:href="HopFunc_8h.html" target="_top" xlink:title=" ">
<polygon fill="white" stroke="#666666" points="2114.5,-74 2046.5,-74 2046.5,-55 2114.5,-55 2114.5,-74"/>
<text text-anchor="middle" x="2080.5" y="-62" font-family="Ubuntu Mono" font-size="10.00">HopFunc.h</text>
</a>
</g>
</g>
<!-- Node2&#45;&gt;Node33 -->
<g id="edge32_Node000002_Node000033" class="edge">
<title>Node2&#45;&gt;Node33</title>
<g id="a_edge32_Node000002_Node000033"><a xlink:title=" ">
<path fill="none" stroke="#63b8ff" d="M1664.02,-113.73C1746.44,-106.72 1901.3,-92.43 2032.5,-74 2033.77,-73.82 2035.06,-73.63 2036.37,-73.44"/>
<polygon fill="#63b8ff" stroke="#63b8ff" points="2037.13,-76.86 2046.46,-71.84 2036.03,-69.95 2037.13,-76.86"/>
</a>
</g>
</g>
<!-- Node34 -->
<g id="Node000034" class="node">
<title>Node34</title>
<g id="a_Node000034"><a xlink:href="SetGet_8h.html" target="_top" xlink:title=" ">
<polygon fill="white" stroke="#666666" points="59,-74 0,-74 0,-55 59,-55 59,-74"/>
<text text-anchor="middle" x="29.5" y="-62" font-family="Ubuntu Mono" font-size="10.00">SetGet.h</text>
</a>
</g>
</g>
<!-- Node2&#45;&gt;Node34 -->
<g id="edge33_Node000002_Node000034" class="edge">
<title>Node2&#45;&gt;Node34</title>
<g id="a_edge33_Node000002_Node000034"><a xlink:title=" ">
<path fill="none" stroke="#63b8ff" d="M1546.93,-118.26C1305.1,-117.04 382.73,-110.14 69.21,-73.77"/>
<polygon fill="#63b8ff" stroke="#63b8ff" points="69.56,-70.28 59.21,-72.57 68.73,-77.23 69.56,-70.28"/>
</a>
</g>
</g>
<!-- Node35 -->
<g id="Node000035" class="node">
<title>Node35</title>
<g id="a_Node000035"><a xlink:href="OpFunc_8h.html" target="_top" xlink:title=" ">
<polygon fill="white" stroke="#666666" points="2298.5,-74 2236.5,-74 2236.5,-55 2298.5,-55 2298.5,-74"/>
<text text-anchor="middle" x="2267.5" y="-62" font-family="Ubuntu Mono" font-size="10.00">OpFunc.h</text>
</a>
</g>
</g>
<!-- Node2&#45;&gt;Node35 -->
<g id="edge35_Node000002_Node000035" class="edge">
<title>Node2&#45;&gt;Node35</title>
<g id="a_edge35_Node000002_Node000035"><a xlink:title=" ">
<path fill="none" stroke="#63b8ff" d="M1664.1,-117C1772.99,-113.63 2014,-103.41 2226.05,-74.01"/>
<polygon fill="#63b8ff" stroke="#63b8ff" points="2226.71,-77.45 2236.13,-72.59 2225.74,-70.52 2226.71,-77.45"/>
</a>
</g>
</g>
<!-- Node36 -->
<g id="Node000036" class="node">
<title>Node36</title>
<g id="a_Node000036"><a xlink:href="EpFunc_8h.html" target="_top" xlink:title=" ">
<polygon fill="white" stroke="#666666" points="2376.5,-74 2316.5,-74 2316.5,-55 2376.5,-55 2376.5,-74"/>
<text text-anchor="middle" x="2346.5" y="-62" font-family="Ubuntu Mono" font-size="10.00">EpFunc.h</text>
</a>
</g>
</g>
<!-- Node2&#45;&gt;Node36 -->
<g id="edge36_Node000002_Node000036" class="edge">
<title>Node2&#45;&gt;Node36</title>
<g id="a_edge36_Node000002_Node000036"><a xlink:title=" ">
<path fill="none" stroke="#63b8ff" d="M1664.05,-117.78C1783.23,-115.65 2062.67,-107.38 2306.24,-73.95"/>
<polygon fill="#63b8ff" stroke="#63b8ff" points="2306.92,-77.39 2316.35,-72.54 2305.96,-70.45 2306.92,-77.39"/>
</a>
</g>
</g>
<!-- Node37 -->
<g id="Node000037" class="node">
<title>Node37</title>
<g id="a_Node000037"><a xlink:href="ProcOpFunc_8h.html" target="_top" xlink:title=" ">
<polygon fill="white" stroke="#666666" points="2478,-74 2395,-74 2395,-55 2478,-55 2478,-74"/>
<text text-anchor="middle" x="2436.5" y="-62" font-family="Ubuntu Mono" font-size="10.00">ProcOpFunc.h</text>
</a>
</g>
</g>
<!-- Node2&#45;&gt;Node37 -->
<g id="edge37_Node000002_Node000037" class="edge">
<title>Node2&#45;&gt;Node37</title>
<g id="a_edge37_Node000002_Node000037"><a xlink:title=" ">
<path fill="none" stroke="#63b8ff" d="M1664.39,-117.31C1793.13,-114.25 2109.4,-104.17 2384.62,-73.96"/>
<polygon fill="#63b8ff" stroke="#63b8ff" points="2385.25,-77.41 2394.8,-72.83 2384.48,-70.45 2385.25,-77.41"/>
</a>
</g>
</g>
<!-- Node38 -->
<g id="Node000038" class="node">
<title>Node38</title>
<g id="a_Node000038"><a xlink:href="ValueFinfo_8h.html" target="_top" xlink:title=" ">
<polygon fill="white" stroke="#666666" points="2573,-74 2496,-74 2496,-55 2573,-55 2573,-74"/>
<text text-anchor="middle" x="2534.5" y="-62" font-family="Ubuntu Mono" font-size="10.00">ValueFinfo.h</text>
</a>
</g>
</g>
<!-- Node2&#45;&gt;Node38 -->
<g id="edge38_Node000002_Node000038" class="edge">
<title>Node2&#45;&gt;Node38</title>
<g id="a_edge38_Node000002_Node000038"><a xlink:title=" ">
<path fill="none" stroke="#63b8ff" d="M1664.02,-118.14C1804.27,-116.72 2170.7,-109.72 2485.59,-74.07"/>
<polygon fill="#63b8ff" stroke="#63b8ff" points="2486.29,-77.51 2495.83,-72.9 2485.5,-70.56 2486.29,-77.51"/>
</a>
</g>
</g>
<!-- Node39 -->
<g id="Node000039" class="node">
<title>Node39</title>
<g id="a_Node000039"><a xlink:href="LookupValueFinfo_8h.html" target="_top" xlink:title=" ">
<polygon fill="white" stroke="#666666" points="2702,-74 2591,-74 2591,-55 2702,-55 2702,-74"/>
<text text-anchor="middle" x="2646.5" y="-62" font-family="Ubuntu Mono" font-size="10.00">LookupValueFinfo.h</text>
</a>
</g>
</g>
<!-- Node2&#45;&gt;Node39 -->
<g id="edge39_Node000002_Node000039" class="edge">
<title>Node2&#45;&gt;Node39</title>
<g id="a_edge39_Node000002_Node000039"><a xlink:title=" ">
<path fill="none" stroke="#63b8ff" d="M1664.26,-117.59C1814.88,-114.89 2227.21,-105.11 2580.51,-74.1"/>
<polygon fill="#63b8ff" stroke="#63b8ff" points="2581.03,-77.57 2590.68,-73.2 2580.41,-70.6 2581.03,-77.57"/>
</a>
</g>
</g>
<!-- Node40 -->
<g id="Node000040" class="node">
<title>Node40</title>
<g id="a_Node000040"><a xlink:href="SharedFinfo_8h.html" target="_top" xlink:title=" ">
<polygon fill="white" stroke="#666666" points="2803,-74 2720,-74 2720,-55 2803,-55 2803,-74"/>
<text text-anchor="middle" x="2761.5" y="-62" font-family="Ubuntu Mono" font-size="10.00">SharedFinfo.h</text>
</a>
</g>
</g>
<!-- Node2&#45;&gt;Node40 -->
<g id="edge40_Node000002_Node000040" class="edge">
<title>Node2&#45;&gt;Node40</title>
<g id="a_edge40_Node000002_Node000040"><a xlink:title=" ">
<path fill="none" stroke="#63b8ff" d="M1664.15,-118.78C1828.02,-119 2304.76,-115.79 2709.66,-74.05"/>
<polygon fill="#63b8ff" stroke="#63b8ff" points="2710.23,-77.51 2719.81,-73 2709.5,-70.55 2710.23,-77.51"/>
</a>
</g>
</g>
<!-- Node41 -->
<g id="Node000041" class="node">
<title>Node41</title>
<g id="a_Node000041"><a xlink:href="FieldElementFinfo_8h.html" target="_top" xlink:title=" ">
<polygon fill="white" stroke="#666666" points="2934,-74 2821,-74 2821,-55 2934,-55 2934,-74"/>
<text text-anchor="middle" x="2877.5" y="-62" font-family="Ubuntu Mono" font-size="10.00">FieldElementFinfo.h</text>
</a>
</g>
</g>
<!-- Node2&#45;&gt;Node41 -->
<g id="edge41_Node000002_Node000041" class="edge">
<title>Node2&#45;&gt;Node41</title>
<g id="a_edge41_Node000002_Node000041"><a xlink:title=" ">
<path fill="none" stroke="#63b8ff" d="M1664.02,-118.27C1837.48,-117.19 2364.06,-110.93 2810.61,-74.08"/>
<polygon fill="#63b8ff" stroke="#63b8ff" points="2811.14,-77.55 2820.81,-73.23 2810.56,-70.57 2811.14,-77.55"/>
</a>
</g>
</g>
<!-- Node42 -->
<g id="Node000042" class="node">
<title>Node42</title>
<g id="a_Node000042"><a xlink:href="FieldElement_8h.html" target="_top" xlink:title=" ">
<polygon fill="white" stroke="#666666" points="3041,-74 2952,-74 2952,-55 3041,-55 3041,-74"/>
<text text-anchor="middle" x="2996.5" y="-62" font-family="Ubuntu Mono" font-size="10.00">FieldElement.h</text>
</a>
</g>
</g>
<!-- Node2&#45;&gt;Node42 -->
<g id="edge42_Node000002_Node000042" class="edge">
<title>Node2&#45;&gt;Node42</title>
<g id="a_edge42_Node000002_Node000042"><a xlink:title=" ">
<path fill="none" stroke="#63b8ff" d="M1664.24,-117.53C1885.51,-113.73 2669.49,-98.85 2941.49,-74.05"/>
<polygon fill="#63b8ff" stroke="#63b8ff" points="2942.1,-77.51 2951.73,-73.09 2941.45,-70.54 2942.1,-77.51"/>
</a>
</g>
</g>
<!-- Node32&#45;&gt;Node31 -->
<g id="edge31_Node000032_Node000031" class="edge">
<title>Node32&#45;&gt;Node31</title>
<g id="a_edge31_Node000032_Node000031"><a xlink:title=" ">
<path fill="none" stroke="#63b8ff" d="M2162.81,-54.98C2150.67,-46.84 2132.14,-34.41 2117.75,-24.76"/>
<polygon fill="#63b8ff" stroke="#63b8ff" points="2119.68,-21.84 2109.42,-19.17 2115.78,-27.65 2119.68,-21.84"/>
</a>
</g>
</g>
<!-- Node34&#45;&gt;Node11 -->
<g id="edge34_Node000034_Node000011" class="edge">
<title>Node34&#45;&gt;Node11</title>
<g id="a_edge34_Node000034_Node000011"><a xlink:title=" ">
<path fill="none" stroke="#63b8ff" d="M59.03,-55.22C91.54,-46.1 143.92,-31.41 179.71,-21.38"/>
<polygon fill="#63b8ff" stroke="#63b8ff" points="181.11,-24.62 189.79,-18.55 179.22,-17.88 181.11,-24.62"/>
</a>
</g>
</g>
<!-- Node49&#45;&gt;Node5 -->
<g id="edge49_Node000049_Node000005" class="edge">
<title>Node49&#45;&gt;Node5</title>
<g id="a_edge49_Node000049_Node000005"><a xlink:title=" ">
<path fill="none" stroke="#63b8ff" d="M3371.33,-54.98C3358.73,-46.84 3339.5,-34.41 3324.56,-24.76"/>
<polygon fill="#63b8ff" stroke="#63b8ff" points="3326.21,-21.66 3315.91,-19.17 3322.41,-27.54 3326.21,-21.66"/>
</a>
</g>
</g>
<!-- Node50&#45;&gt;Node49 -->
<g id="edge51_Node000050_Node000049" class="edge">
<title>Node50&#45;&gt;Node49</title>
<g id="a_edge51_Node000050_Node000049"><a xlink:title=" ">
<path fill="none" stroke="#63b8ff" d="M3350.27,-109.75C3356.06,-102.26 3364.56,-91.28 3371.64,-82.13"/>
<polygon fill="#63b8ff" stroke="#63b8ff" points="3374.51,-84.14 3377.86,-74.09 3368.97,-79.86 3374.51,-84.14"/>
</a>
</g>
</g>
<!-- Node58&#45;&gt;Node6 -->
<g id="edge53_Node000058_Node000006" class="edge">
<title>Node58&#45;&gt;Node6</title>
<g id="a_edge53_Node000058_Node000006"><a xlink:title=" ">
<path fill="none" stroke="#63b8ff" d="M3247.96,-109.75C3251.62,-102.57 3256.91,-92.18 3261.45,-83.27"/>
<polygon fill="#63b8ff" stroke="#63b8ff" points="3264.7,-84.59 3266.12,-74.09 3258.47,-81.41 3264.7,-84.59"/>
</a>
</g>
</g>
</g>
</svg>
