<?xml version="1.0" encoding="UTF-8" standalone="no"?>
<!DOCTYPE svg PUBLIC "-//W3C//DTD SVG 1.1//EN"
 "http://www.w3.org/Graphics/SVG/1.1/DTD/svg11.dtd">
<!-- Generated by graphviz version 2.43.0 (0)
 -->
<!-- Title: moose::getEnvInt Pages: 1 -->
<svg width="236pt" height="64pt"
 viewBox="0.00 0.00 236.00 64.00" xmlns="http://www.w3.org/2000/svg" xmlns:xlink="http://www.w3.org/1999/xlink">
<g id="graph0" class="graph" transform="scale(1 1) rotate(0) translate(4 60)">
<title>moose::getEnvInt</title>
<!-- Node1 -->
<g id="Node000001" class="node">
<title>Node1</title>
<g id="a_Node000001"><a xlink:title=" ">
<polygon fill="#999999" stroke="#666666" points="228,-37 126,-37 126,-18 228,-18 228,-37"/>
<text text-anchor="middle" x="177" y="-25" font-family="Ubuntu Mono" font-size="10.00">moose::getEnvInt</text>
</a>
</g>
</g>
<!-- Node2 -->
<g id="Node000002" class="node">
<title>Node2</title>
<g id="a_Node000002"><a xlink:href="classGsolve.html#abb5ec860d8008579d1dc48afe6c7f366" target="_top" xlink:title=" ">
<polygon fill="white" stroke="#666666" points="90,-56 0,-56 0,-37 90,-37 90,-56"/>
<text text-anchor="middle" x="45" y="-44" font-family="Ubuntu Mono" font-size="10.00">Gsolve::Gsolve</text>
</a>
</g>
</g>
<!-- Node1&#45;&gt;Node2 -->
<g id="edge1_Node000001_Node000002" class="edge">
<title>Node1&#45;&gt;Node2</title>
<g id="a_edge1_Node000001_Node000002"><a xlink:title=" ">
<path fill="none" stroke="#63b8ff" d="M115.73,-36.31C107.13,-37.57 98.41,-38.84 90.2,-40.04"/>
<polygon fill="#63b8ff" stroke="#63b8ff" points="116.35,-39.76 125.74,-34.85 115.34,-32.83 116.35,-39.76"/>
</a>
</g>
</g>
<!-- Node3 -->
<g id="Node000003" class="node">
<title>Node3</title>
<g id="a_Node000003"><a xlink:href="classKsolve.html#af1bf4418f80351e05745ca73d50f77bf" target="_top" xlink:title=" ">
<polygon fill="white" stroke="#666666" points="89.5,-19 0.5,-19 0.5,0 89.5,0 89.5,-19"/>
<text text-anchor="middle" x="45" y="-7" font-family="Ubuntu Mono" font-size="10.00">Ksolve::Ksolve</text>
</a>
</g>
</g>
<!-- Node1&#45;&gt;Node3 -->
<g id="edge2_Node000001_Node000003" class="edge">
<title>Node1&#45;&gt;Node3</title>
<g id="a_edge2_Node000001_Node000003"><a xlink:title=" ">
<path fill="none" stroke="#63b8ff" d="M115.6,-19.14C106.9,-17.93 98.08,-16.71 89.78,-15.56"/>
<polygon fill="#63b8ff" stroke="#63b8ff" points="115.35,-22.64 125.74,-20.54 116.31,-15.7 115.35,-22.64"/>
</a>
</g>
</g>
</g>
</svg>
