<?xml version="1.0" encoding="UTF-8" standalone="no"?>
<!DOCTYPE svg PUBLIC "-//W3C//DTD SVG 1.1//EN"
 "http://www.w3.org/Graphics/SVG/1.1/DTD/svg11.dtd">
<!-- Generated by graphviz version 2.43.0 (0)
 -->
<!-- Title: pymoose::getDoc Pages: 1 -->
<svg width="385pt" height="175pt"
 viewBox="0.00 0.00 385.00 175.00" xmlns="http://www.w3.org/2000/svg" xmlns:xlink="http://www.w3.org/1999/xlink">

<svg id="main" version="1.1" xmlns="http://www.w3.org/2000/svg" xmlns:xlink="http://www.w3.org/1999/xlink" xml:space="preserve" onload="init(evt)">
<style type="text/css"><![CDATA[
.node, .edge {opacity: 0.7;}
.node.selected, .edge.selected {opacity: 1;}
.edge:hover path { stroke: red; }
.edge:hover polygon { stroke: red; fill: red; }
]]></style>
<script type="application/ecmascript" xlink:href="svg.min.js"/>
<svg id="graph" class="graph">
<g id="graph0" class="graph" transform="scale(1 1) rotate(0) translate(4 171)">
<title>pymoose::getDoc</title>
<!-- Node1 -->
<g id="Node000001" class="node">
<title>Node1</title>
<g id="a_Node000001"><a xlink:title=" ">
<polygon fill="#999999" stroke="#666666" points="102,-93 0,-93 0,-74 102,-74 102,-93"/>
<text text-anchor="middle" x="51" y="-81" font-family="Ubuntu Mono" font-size="10.00">pymoose::getDoc</text>
</a>
</g>
</g>
<!-- Node2 -->
<g id="Node000002" class="node">
<title>Node2</title>
<g id="a_Node000002"><a xlink:href="classFinfo.html#a8b3be310749ef6664b3535942f8a9eec" target="_top" xlink:title="Returns documentation string.">
<polygon fill="white" stroke="#666666" points="227.5,-167 158.5,-167 158.5,-148 227.5,-148 227.5,-167"/>
<text text-anchor="middle" x="193" y="-155" font-family="Ubuntu Mono" font-size="10.00">Finfo::docs</text>
</a>
</g>
</g>
<!-- Node1&#45;&gt;Node2 -->
<g id="edge1_Node000001_Node000002" class="edge">
<title>Node1&#45;&gt;Node2</title>
<g id="a_edge1_Node000001_Node000002"><a xlink:title=" ">
<path fill="none" stroke="#63b8ff" d="M64.5,-93.12C80.72,-105.24 110.24,-126.11 138,-139.5 141.6,-141.24 145.41,-142.88 149.28,-144.4"/>
<polygon fill="#63b8ff" stroke="#63b8ff" points="148.32,-147.78 158.91,-147.96 150.75,-141.21 148.32,-147.78"/>
</a>
</g>
</g>
<!-- Node3 -->
<g id="Node000003" class="node">
<title>Node3</title>
<g id="a_Node000003"><a xlink:href="classCinfo.html#a05a9d8143d9eb2db55eb3690e1b865f5" target="_top" xlink:title=" ">
<polygon fill="white" stroke="#666666" points="226,-130 160,-130 160,-111 226,-111 226,-130"/>
<text text-anchor="middle" x="193" y="-118" font-family="Ubuntu Mono" font-size="10.00">Cinfo::find</text>
</a>
</g>
</g>
<!-- Node1&#45;&gt;Node3 -->
<g id="edge2_Node000001_Node000003" class="edge">
<title>Node1&#45;&gt;Node3</title>
<g id="a_edge2_Node000001_Node000003"><a xlink:title=" ">
<path fill="none" stroke="#63b8ff" d="M88.05,-93.03C107.04,-98.05 130.43,-104.23 150.21,-109.46"/>
<polygon fill="#63b8ff" stroke="#63b8ff" points="149.33,-112.84 159.89,-112.01 151.12,-106.07 149.33,-112.84"/>
</a>
</g>
</g>
<!-- Node5 -->
<g id="Node000005" class="node">
<title>Node5</title>
<g id="a_Node000005"><a xlink:href="classCinfo.html#a7642d2a9ffe54cc8008df39de171ab63" target="_top" xlink:title=" ">
<polygon fill="white" stroke="#666666" points="238,-93 148,-93 148,-74 238,-74 238,-93"/>
<text text-anchor="middle" x="193" y="-81" font-family="Ubuntu Mono" font-size="10.00">Cinfo::findFinfo</text>
</a>
</g>
</g>
<!-- Node1&#45;&gt;Node5 -->
<g id="edge4_Node000001_Node000005" class="edge">
<title>Node1&#45;&gt;Node5</title>
<g id="a_edge4_Node000001_Node000005"><a xlink:title=" ">
<path fill="none" stroke="#63b8ff" d="M102.15,-83.5C113.68,-83.5 125.99,-83.5 137.69,-83.5"/>
<polygon fill="#63b8ff" stroke="#63b8ff" points="137.77,-87 147.77,-83.5 137.77,-80 137.77,-87"/>
</a>
</g>
</g>
<!-- Node6 -->
<g id="Node000006" class="node">
<title>Node6</title>
<g id="a_Node000006"><a xlink:href="classCinfo.html#ac081aff51edfa22c9a8ddee674a362e7" target="_top" xlink:title=" ">
<polygon fill="white" stroke="#666666" points="248,-56 138,-56 138,-37 248,-37 248,-56"/>
<text text-anchor="middle" x="193" y="-44" font-family="Ubuntu Mono" font-size="10.00">Cinfo::getFinfoType</text>
</a>
</g>
</g>
<!-- Node1&#45;&gt;Node6 -->
<g id="edge5_Node000001_Node000006" class="edge">
<title>Node1&#45;&gt;Node6</title>
<g id="a_edge5_Node000001_Node000006"><a xlink:title=" ">
<path fill="none" stroke="#63b8ff" d="M88.05,-73.97C105.63,-69.33 126.98,-63.68 145.75,-58.72"/>
<polygon fill="#63b8ff" stroke="#63b8ff" points="146.81,-62.06 155.58,-56.12 145.02,-55.3 146.81,-62.06"/>
</a>
</g>
</g>
<!-- Node7 -->
<g id="Node000007" class="node">
<title>Node7</title>
<g id="a_Node000007"><a xlink:href="classFinfo.html#aead9ffc3d851ba7ee6ebdb954fc2b7e2" target="_top" xlink:title=" ">
<polygon fill="white" stroke="#666666" points="234.5,-19 151.5,-19 151.5,0 234.5,0 234.5,-19"/>
<text text-anchor="middle" x="193" y="-7" font-family="Ubuntu Mono" font-size="10.00">Finfo::rttiType</text>
</a>
</g>
</g>
<!-- Node1&#45;&gt;Node7 -->
<g id="edge6_Node000001_Node000007" class="edge">
<title>Node1&#45;&gt;Node7</title>
<g id="a_edge6_Node000001_Node000007"><a xlink:title=" ">
<path fill="none" stroke="#63b8ff" d="M64.85,-73.94C81.2,-62.09 110.6,-41.86 138,-28.5 142.3,-26.41 146.88,-24.43 151.5,-22.6"/>
<polygon fill="#63b8ff" stroke="#63b8ff" points="152.81,-25.84 160.94,-19.05 150.35,-19.29 152.81,-25.84"/>
</a>
</g>
</g>
<!-- Node4 -->
<g id="Node000004" class="node">
<title>Node4</title>
<g id="a_Node000004"><a xlink:href="classCinfo.html#a4f32262aa0cc7c19bc520885a5dc9509" target="_top" xlink:title=" ">
<polygon fill="white" stroke="#666666" points="377,-130 284,-130 284,-111 377,-111 377,-130"/>
<text text-anchor="middle" x="330.5" y="-118" font-family="Ubuntu Mono" font-size="10.00">Cinfo::cinfoMap</text>
</a>
</g>
</g>
<!-- Node3&#45;&gt;Node4 -->
<g id="edge3_Node000003_Node000004" class="edge">
<title>Node3&#45;&gt;Node4</title>
<g id="a_edge3_Node000003_Node000004"><a xlink:title=" ">
<path fill="none" stroke="#63b8ff" d="M226.11,-120.5C240.24,-120.5 257.25,-120.5 273.36,-120.5"/>
<polygon fill="#63b8ff" stroke="#63b8ff" points="273.77,-124 283.77,-120.5 273.77,-117 273.77,-124"/>
</a>
</g>
</g>
</g>
</svg>
</svg>

<style type='text/css'>
<![CDATA[
[data-mouse-over-selected='false'] { opacity: 0.7; }
[data-mouse-over-selected='true']  { opacity: 1.0; }
]]>
</style>
<script type="application/ecmascript"><![CDATA[
document.addEventListener('DOMContentLoaded', (event) => {
  highlightEdges();
  highlightAdjacentNodes();
});
]]></script>
</svg>
