<?xml version="1.0" encoding="UTF-8" standalone="no"?>
<!DOCTYPE svg PUBLIC "-//W3C//DTD SVG 1.1//EN"
 "http://www.w3.org/Graphics/SVG/1.1/DTD/svg11.dtd">
<!-- Generated by graphviz version 2.43.0 (0)
 -->
<!-- Title: moose::trim Pages: 1 -->
<svg width="1093pt" height="364pt"
 viewBox="0.00 0.00 1093.00 364.00" xmlns="http://www.w3.org/2000/svg" xmlns:xlink="http://www.w3.org/1999/xlink">
<g id="graph0" class="graph" transform="scale(1 1) rotate(0) translate(4 360)">
<title>moose::trim</title>
<!-- Node1 -->
<g id="Node000001" class="node">
<title>Node1</title>
<g id="a_Node000001"><a xlink:title=" ">
<polygon fill="#999999" stroke="#666666" points="1085,-167 1009,-167 1009,-148 1085,-148 1085,-167"/>
<text text-anchor="middle" x="1047" y="-155" font-family="Ubuntu Mono" font-size="10.00">moose::trim</text>
</a>
</g>
</g>
<!-- Node2 -->
<g id="Node000002" class="node">
<title>Node2</title>
<g id="a_Node000002"><a xlink:href="ReadKkit_8cpp.html#a223596f08460f7c46bb4659096d356a9" target="_top" xlink:title=" ">
<polygon fill="white" stroke="#666666" points="943.5,-319 883.5,-319 883.5,-300 943.5,-300 943.5,-319"/>
<text text-anchor="middle" x="913.5" y="-307" font-family="Ubuntu Mono" font-size="10.00">chopLine</text>
</a>
</g>
</g>
<!-- Node1&#45;&gt;Node2 -->
<g id="edge1_Node000001_Node000002" class="edge">
<title>Node1&#45;&gt;Node2</title>
<g id="a_edge1_Node000001_Node000002"><a xlink:title=" ">
<path fill="none" stroke="#63b8ff" d="M1039.53,-176.97C1029.44,-204.62 1007.44,-255.24 973,-285.5 964.67,-292.82 953.81,-298.1 943.71,-301.81"/>
<polygon fill="#63b8ff" stroke="#63b8ff" points="1042.92,-177.87 1042.93,-167.28 1036.32,-175.56 1042.92,-177.87"/>
</a>
</g>
</g>
<!-- Node4 -->
<g id="Node000004" class="node">
<title>Node4</title>
<g id="a_Node000004"><a xlink:href="classReadKkit.html#a0eb4a1be06a60d1c55e9d0e2b2389b84" target="_top" xlink:title=" ">
<polygon fill="white" stroke="#666666" points="633,-318 517,-318 517,-299 633,-299 633,-318"/>
<text text-anchor="middle" x="575" y="-306" font-family="Ubuntu Mono" font-size="10.00">ReadKkit::innerRead</text>
</a>
</g>
</g>
<!-- Node1&#45;&gt;Node4 -->
<g id="edge31_Node000001_Node000004" class="edge">
<title>Node1&#45;&gt;Node4</title>
<g id="a_edge31_Node000001_Node000004"><a xlink:title=" ">
<path fill="none" stroke="#63b8ff" d="M1037.37,-176.17C1026.01,-198.41 1003.81,-234.79 973,-252.5 854.9,-320.37 803.6,-270.58 669,-291.5 654.89,-293.69 639.63,-296.36 625.63,-298.92"/>
<polygon fill="#63b8ff" stroke="#63b8ff" points="1040.57,-177.58 1041.82,-167.06 1034.28,-174.51 1040.57,-177.58"/>
</a>
</g>
</g>
<!-- Node10 -->
<g id="Node000010" class="node">
<title>Node10</title>
<g id="a_Node000010"><a xlink:href="classHHGate.html#a398b7b3e3c0d9ad7b4b7d86dfdade67d" target="_top" xlink:title="Fill the tables by evaluating expressions.">
<polygon fill="white" stroke="#666666" points="973,-243 854,-243 854,-224 973,-224 973,-243"/>
<text text-anchor="middle" x="913.5" y="-231" font-family="Ubuntu Mono" font-size="10.00">HHGate::fillFromExpr</text>
</a>
</g>
</g>
<!-- Node1&#45;&gt;Node10 -->
<g id="edge10_Node000001_Node000010" class="edge">
<title>Node1&#45;&gt;Node10</title>
<g id="a_edge10_Node000001_Node000010"><a xlink:title=" ">
<path fill="none" stroke="#63b8ff" d="M1026.1,-173.58C1011.87,-184.59 991.95,-199.04 973,-209.5 963,-215.01 951.47,-220.01 941.31,-224"/>
<polygon fill="#63b8ff" stroke="#63b8ff" points="1028.47,-176.17 1034.17,-167.23 1024.14,-170.67 1028.47,-176.17"/>
</a>
</g>
</g>
<!-- Node12 -->
<g id="Node000012" class="node">
<title>Node12</title>
<g id="a_Node000012"><a xlink:href="LoadModels_8cpp.html#acddeee8ad25f0746bfc25ce65105fc8e" target="_top" xlink:title=" ">
<polygon fill="white" stroke="#666666" points="618.5,-242 531.5,-242 531.5,-223 618.5,-223 618.5,-242"/>
<text text-anchor="middle" x="575" y="-230" font-family="Ubuntu Mono" font-size="10.00">findModelType</text>
</a>
</g>
</g>
<!-- Node1&#45;&gt;Node12 -->
<g id="edge12_Node000001_Node000012" class="edge">
<title>Node1&#45;&gt;Node12</title>
<g id="a_edge12_Node000001_Node000012"><a xlink:title=" ">
<path fill="none" stroke="#63b8ff" d="M1003.46,-169.54C993.52,-172.09 982.93,-174.58 973,-176.5 839.26,-202.37 803.6,-194.58 669,-215.5 652.46,-218.07 634.33,-221.29 618.51,-224.24"/>
<polygon fill="#63b8ff" stroke="#63b8ff" points="1004.35,-172.93 1013.13,-167 1002.57,-166.16 1004.35,-172.93"/>
</a>
</g>
</g>
<!-- Node13 -->
<g id="Node000013" class="node">
<title>Node13</title>
<g id="a_Node000013"><a xlink:href="namespacemoose.html#a1b62308154affd4f59665548229c982d" target="_top" xlink:title=" ">
<polygon fill="white" stroke="#666666" points="947.5,-167 879.5,-167 879.5,-148 947.5,-148 947.5,-167"/>
<text text-anchor="middle" x="913.5" y="-155" font-family="Ubuntu Mono" font-size="10.00">moose::fix</text>
</a>
</g>
</g>
<!-- Node1&#45;&gt;Node13 -->
<g id="edge14_Node000001_Node000013" class="edge">
<title>Node1&#45;&gt;Node13</title>
<g id="a_edge14_Node000001_Node000013"><a xlink:title=" ">
<path fill="none" stroke="#63b8ff" d="M998.49,-157.5C981.72,-157.5 963.24,-157.5 947.88,-157.5"/>
<polygon fill="#63b8ff" stroke="#63b8ff" points="998.67,-161 1008.67,-157.5 998.67,-154 998.67,-161"/>
</a>
</g>
</g>
<!-- Node14 -->
<g id="Node000014" class="node">
<title>Node14</title>
<g id="a_Node000014"><a xlink:href="TableBase_8cpp.html#adf41c97bc76f1802028ccc8ce6245a38" target="_top" xlink:title=" ">
<polygon fill="white" stroke="#666666" points="958.5,-130 868.5,-130 868.5,-111 958.5,-111 958.5,-130"/>
<text text-anchor="middle" x="913.5" y="-118" font-family="Ubuntu Mono" font-size="10.00">innerLoadXplot</text>
</a>
</g>
</g>
<!-- Node1&#45;&gt;Node14 -->
<g id="edge15_Node000001_Node000014" class="edge">
<title>Node1&#45;&gt;Node14</title>
<g id="a_edge15_Node000001_Node000014"><a xlink:title=" ">
<path fill="none" stroke="#63b8ff" d="M1002.19,-145.17C984.78,-140.27 965.04,-134.72 948.71,-130.12"/>
<polygon fill="#63b8ff" stroke="#63b8ff" points="1001.56,-148.63 1012.14,-147.97 1003.46,-141.89 1001.56,-148.63"/>
</a>
</g>
</g>
<!-- Node25 -->
<g id="Node000025" class="node">
<title>Node25</title>
<g id="a_Node000025"><a xlink:href="classReadCell.html#ad2bfa30e9739a7b717f468660a671a3d" target="_top" xlink:title=" ">
<polygon fill="white" stroke="#666666" points="971.5,-93 855.5,-93 855.5,-74 971.5,-74 971.5,-93"/>
<text text-anchor="middle" x="913.5" y="-81" font-family="Ubuntu Mono" font-size="10.00">ReadCell::innerRead</text>
</a>
</g>
</g>
<!-- Node1&#45;&gt;Node25 -->
<g id="edge28_Node000001_Node000025" class="edge">
<title>Node1&#45;&gt;Node25</title>
<g id="a_edge28_Node000001_Node000025"><a xlink:title=" ">
<path fill="none" stroke="#63b8ff" d="M1027.49,-140.79C1013.39,-128.78 993.05,-112.93 973,-102.5 965.9,-98.8 957.93,-95.64 950.22,-93.02"/>
<polygon fill="#63b8ff" stroke="#63b8ff" points="1025.56,-143.76 1035.4,-147.69 1030.16,-138.48 1025.56,-143.76"/>
</a>
</g>
</g>
<!-- Node27 -->
<g id="Node000027" class="node">
<title>Node27</title>
<g id="a_Node000027"><a xlink:href="classInterpol2D.html#ad55cda5a924fc1fd25156603c1460f5d" target="_top" xlink:title=" ">
<polygon fill="white" stroke="#666666" points="961,-56 866,-56 866,-37 961,-37 961,-56"/>
<text text-anchor="middle" x="913.5" y="-44" font-family="Ubuntu Mono" font-size="10.00">Interpol2D::load</text>
</a>
</g>
</g>
<!-- Node1&#45;&gt;Node27 -->
<g id="edge32_Node000001_Node000027" class="edge">
<title>Node1&#45;&gt;Node27</title>
<g id="a_edge32_Node000001_Node000027"><a xlink:title=" ">
<path fill="none" stroke="#63b8ff" d="M1036.01,-138.81C1023.84,-117.76 1001.33,-83.96 973,-64.5 968.01,-61.07 962.34,-58.28 956.54,-56"/>
<polygon fill="#63b8ff" stroke="#63b8ff" points="1033.07,-140.72 1041,-147.74 1039.18,-137.31 1033.07,-140.72"/>
</a>
</g>
</g>
<!-- Node28 -->
<g id="Node000028" class="node">
<title>Node28</title>
<g id="a_Node000028"><a xlink:href="namespacemoose.html#ab3a9f956809233cb141f73e7375fb91d" target="_top" xlink:title=" ">
<polygon fill="white" stroke="#666666" points="961,-19 866,-19 866,0 961,0 961,-19"/>
<text text-anchor="middle" x="913.5" y="-7" font-family="Ubuntu Mono" font-size="10.00">moose::testTrim</text>
</a>
</g>
</g>
<!-- Node1&#45;&gt;Node28 -->
<g id="edge33_Node000001_Node000028" class="edge">
<title>Node1&#45;&gt;Node28</title>
<g id="a_edge33_Node000001_Node000028"><a xlink:title=" ">
<path fill="none" stroke="#63b8ff" d="M1040.25,-138.09C1030.83,-109.66 1009.44,-56.9 973,-27.5 968.78,-24.1 963.92,-21.34 958.85,-19.1"/>
<polygon fill="#63b8ff" stroke="#63b8ff" points="1036.93,-139.21 1043.27,-147.69 1043.61,-137.1 1036.93,-139.21"/>
</a>
</g>
</g>
<!-- Node3 -->
<g id="Node000003" class="node">
<title>Node3</title>
<g id="a_Node000003"><a xlink:href="classReadKkit.html#a7eb605788fc0533b4f0bf9017fa5e366" target="_top" xlink:title=" ">
<polygon fill="white" stroke="#666666" points="799.5,-356 687.5,-356 687.5,-337 799.5,-337 799.5,-356"/>
<text text-anchor="middle" x="743.5" y="-344" font-family="Ubuntu Mono" font-size="10.00">ReadKkit::readData</text>
</a>
</g>
</g>
<!-- Node2&#45;&gt;Node3 -->
<g id="edge2_Node000002_Node000003" class="edge">
<title>Node2&#45;&gt;Node3</title>
<g id="a_edge2_Node000002_Node000003"><a xlink:title=" ">
<path fill="none" stroke="#63b8ff" d="M873.15,-318.17C847.6,-323.79 814.26,-331.14 787.93,-336.94"/>
<polygon fill="#63b8ff" stroke="#63b8ff" points="874.22,-321.51 883.24,-315.94 872.72,-314.68 874.22,-321.51"/>
</a>
</g>
</g>
<!-- Node9 -->
<g id="Node000009" class="node">
<title>Node9</title>
<g id="a_Node000009"><a xlink:href="classReadKkit.html#ac9709f69df67c792da2f9ea4e7072d53" target="_top" xlink:title=" ">
<polygon fill="white" stroke="#666666" points="795.5,-319 691.5,-319 691.5,-300 795.5,-300 795.5,-319"/>
<text text-anchor="middle" x="743.5" y="-307" font-family="Ubuntu Mono" font-size="10.00">ReadKkit::readInit</text>
</a>
</g>
</g>
<!-- Node2&#45;&gt;Node9 -->
<g id="edge8_Node000002_Node000009" class="edge">
<title>Node2&#45;&gt;Node9</title>
<g id="a_edge8_Node000002_Node000009"><a xlink:title=" ">
<path fill="none" stroke="#63b8ff" d="M873.12,-309.5C850.06,-309.5 820.68,-309.5 795.82,-309.5"/>
<polygon fill="#63b8ff" stroke="#63b8ff" points="873.24,-313 883.24,-309.5 873.24,-306 873.24,-313"/>
</a>
</g>
</g>
<!-- Node3&#45;&gt;Node4 -->
<g id="edge3_Node000003_Node000004" class="edge">
<title>Node3&#45;&gt;Node4</title>
<g id="a_edge3_Node000003_Node000004"><a xlink:title=" ">
<path fill="none" stroke="#63b8ff" d="M690.69,-334.68C667.22,-329.32 639.83,-323.07 617.71,-318.02"/>
<polygon fill="#63b8ff" stroke="#63b8ff" points="689.96,-338.1 700.49,-336.91 691.51,-331.27 689.96,-338.1"/>
</a>
</g>
</g>
<!-- Node5 -->
<g id="Node000005" class="node">
<title>Node5</title>
<g id="a_Node000005"><a xlink:href="classReadKkit.html#a84a1ef5c83d57d8d111ead9cf48e8e20" target="_top" xlink:title=" ">
<polygon fill="white" stroke="#666666" points="455,-318 366,-318 366,-299 455,-299 455,-318"/>
<text text-anchor="middle" x="410.5" y="-306" font-family="Ubuntu Mono" font-size="10.00">ReadKkit::read</text>
</a>
</g>
</g>
<!-- Node4&#45;&gt;Node5 -->
<g id="edge4_Node000004_Node000005" class="edge">
<title>Node4&#45;&gt;Node5</title>
<g id="a_edge4_Node000004_Node000005"><a xlink:title=" ">
<path fill="none" stroke="#63b8ff" d="M506.62,-308.5C489.27,-308.5 471.05,-308.5 455.25,-308.5"/>
<polygon fill="#63b8ff" stroke="#63b8ff" points="506.71,-312 516.71,-308.5 506.71,-305 506.71,-312"/>
</a>
</g>
</g>
<!-- Node6 -->
<g id="Node000006" class="node">
<title>Node6</title>
<g id="a_Node000006"><a xlink:href="classShell.html#a506ff431369e3bce87f0e6c767fe475c" target="_top" xlink:title="Returns the Id of the loaded model.">
<polygon fill="white" stroke="#666666" points="304,-280 192,-280 192,-261 304,-261 304,-280"/>
<text text-anchor="middle" x="248" y="-268" font-family="Ubuntu Mono" font-size="10.00">Shell::doLoadModel</text>
</a>
</g>
</g>
<!-- Node5&#45;&gt;Node6 -->
<g id="edge5_Node000005_Node000006" class="edge">
<title>Node5&#45;&gt;Node6</title>
<g id="a_edge5_Node000005_Node000006"><a xlink:title=" ">
<path fill="none" stroke="#63b8ff" d="M359.25,-296.6C336.69,-291.26 310.44,-285.05 289.21,-280.02"/>
<polygon fill="#63b8ff" stroke="#63b8ff" points="358.46,-300.01 369,-298.91 360.07,-293.2 358.46,-300.01"/>
</a>
</g>
</g>
<!-- Node8 -->
<g id="Node000008" class="node">
<title>Node8</title>
<g id="a_Node000008"><a xlink:href="testKinetics_8cpp.html#a484ee971354e15c7a0dcf17fd1b0a8fa" target="_top" xlink:title=" ">
<polygon fill="white" stroke="#666666" points="288,-318 208,-318 208,-299 288,-299 288,-318"/>
<text text-anchor="middle" x="248" y="-306" font-family="Ubuntu Mono" font-size="10.00">testReadKkit</text>
</a>
</g>
</g>
<!-- Node5&#45;&gt;Node8 -->
<g id="edge7_Node000005_Node000008" class="edge">
<title>Node5&#45;&gt;Node8</title>
<g id="a_edge7_Node000005_Node000008"><a xlink:title=" ">
<path fill="none" stroke="#63b8ff" d="M355.42,-308.5C333.38,-308.5 308.38,-308.5 288.15,-308.5"/>
<polygon fill="#63b8ff" stroke="#63b8ff" points="355.64,-312 365.64,-308.5 355.64,-305 355.64,-312"/>
</a>
</g>
</g>
<!-- Node7 -->
<g id="Node000007" class="node">
<title>Node7</title>
<g id="a_Node000007"><a xlink:href="namespacepymoose.html#a995d880f6c2e5cfb0545ec3640f76eef" target="_top" xlink:title="Model loaders built into Shell, others can be implemented in Python.">
<polygon fill="white" stroke="#666666" points="156,-280 0,-280 0,-261 156,-261 156,-280"/>
<text text-anchor="middle" x="78" y="-268" font-family="Ubuntu Mono" font-size="10.00">pymoose::loadModelInternal</text>
</a>
</g>
</g>
<!-- Node6&#45;&gt;Node7 -->
<g id="edge6_Node000006_Node000007" class="edge">
<title>Node6&#45;&gt;Node7</title>
<g id="a_edge6_Node000006_Node000007"><a xlink:title=" ">
<path fill="none" stroke="#63b8ff" d="M181.85,-270.5C173.41,-270.5 164.7,-270.5 156.09,-270.5"/>
<polygon fill="#63b8ff" stroke="#63b8ff" points="181.99,-274 191.99,-270.5 181.99,-267 181.99,-274"/>
</a>
</g>
</g>
<!-- Node9&#45;&gt;Node4 -->
<g id="edge9_Node000009_Node000004" class="edge">
<title>Node9&#45;&gt;Node4</title>
<g id="a_edge9_Node000009_Node000004"><a xlink:title=" ">
<path fill="none" stroke="#63b8ff" d="M681.09,-309.13C665.43,-309.04 648.68,-308.94 633.24,-308.84"/>
<polygon fill="#63b8ff" stroke="#63b8ff" points="681.17,-312.63 691.19,-309.19 681.21,-305.63 681.17,-312.63"/>
</a>
</g>
</g>
<!-- Node11 -->
<g id="Node000011" class="node">
<title>Node11</title>
<g id="a_Node000011"><a xlink:href="classHHChannel.html#a6aff0899c46ba1dc65bb99835e90924a" target="_top" xlink:title=" ">
<polygon fill="white" stroke="#666666" points="799.5,-243 687.5,-243 687.5,-224 799.5,-224 799.5,-243"/>
<text text-anchor="middle" x="743.5" y="-231" font-family="Ubuntu Mono" font-size="10.00">HHChannel::vReinit</text>
</a>
</g>
</g>
<!-- Node10&#45;&gt;Node11 -->
<g id="edge11_Node000010_Node000011" class="edge">
<title>Node10&#45;&gt;Node11</title>
<g id="a_edge11_Node000010_Node000011"><a xlink:title=" ">
<path fill="none" stroke="#63b8ff" d="M843.69,-233.5C829,-233.5 813.66,-233.5 799.56,-233.5"/>
<polygon fill="#63b8ff" stroke="#63b8ff" points="843.74,-237 853.74,-233.5 843.74,-230 843.74,-237"/>
</a>
</g>
</g>
<!-- Node12&#45;&gt;Node6 -->
<g id="edge13_Node000012_Node000006" class="edge">
<title>Node12&#45;&gt;Node6</title>
<g id="a_edge13_Node000012_Node000006"><a xlink:title=" ">
<path fill="none" stroke="#63b8ff" d="M522.48,-244.17C509.03,-246.9 494.52,-249.57 481,-251.5 420.79,-260.08 351.19,-265.14 304.05,-267.85"/>
<polygon fill="#63b8ff" stroke="#63b8ff" points="523.44,-247.55 532.52,-242.08 522.02,-240.69 523.44,-247.55"/>
</a>
</g>
</g>
<!-- Node15 -->
<g id="Node000015" class="node">
<title>Node15</title>
<g id="a_Node000015"><a xlink:href="classTableBase.html#a99504b26217948b725d7ffa639229be6" target="_top" xlink:title=" ">
<polygon fill="white" stroke="#666666" points="813.5,-167 673.5,-167 673.5,-148 813.5,-148 813.5,-167"/>
<text text-anchor="middle" x="743.5" y="-155" font-family="Ubuntu Mono" font-size="10.00">TableBase::compareXplot</text>
</a>
</g>
</g>
<!-- Node14&#45;&gt;Node15 -->
<g id="edge16_Node000014_Node000015" class="edge">
<title>Node14&#45;&gt;Node15</title>
<g id="a_edge16_Node000014_Node000015"><a xlink:title=" ">
<path fill="none" stroke="#63b8ff" d="M859.28,-132.22C836.28,-137.29 809.7,-143.14 787.91,-147.94"/>
<polygon fill="#63b8ff" stroke="#63b8ff" points="860.22,-135.6 869.24,-130.03 858.72,-128.76 860.22,-135.6"/>
</a>
</g>
</g>
<!-- Node23 -->
<g id="Node000023" class="node">
<title>Node23</title>
<g id="a_Node000023"><a xlink:href="classTableBase.html#a9f456133fe9686f58d0737738d9ce7d1" target="_top" xlink:title=" ">
<polygon fill="white" stroke="#666666" points="803,-130 684,-130 684,-111 803,-111 803,-130"/>
<text text-anchor="middle" x="743.5" y="-118" font-family="Ubuntu Mono" font-size="10.00">TableBase::loadXplot</text>
</a>
</g>
</g>
<!-- Node14&#45;&gt;Node23 -->
<g id="edge24_Node000014_Node000023" class="edge">
<title>Node14&#45;&gt;Node23</title>
<g id="a_edge24_Node000014_Node000023"><a xlink:title=" ">
<path fill="none" stroke="#63b8ff" d="M858.26,-120.5C840.68,-120.5 821.09,-120.5 803.2,-120.5"/>
<polygon fill="#63b8ff" stroke="#63b8ff" points="858.36,-124 868.36,-120.5 858.36,-117 858.36,-124"/>
</a>
</g>
</g>
<!-- Node24 -->
<g id="Node000024" class="node">
<title>Node24</title>
<g id="a_Node000024"><a xlink:href="classTableBase.html#af82fce462c4e0411102c782536989433" target="_top" xlink:title=" ">
<polygon fill="white" stroke="#666666" points="818,-93 669,-93 669,-74 818,-74 818,-93"/>
<text text-anchor="middle" x="743.5" y="-81" font-family="Ubuntu Mono" font-size="10.00">TableBase::loadXplotRange</text>
</a>
</g>
</g>
<!-- Node14&#45;&gt;Node24 -->
<g id="edge26_Node000014_Node000024" class="edge">
<title>Node14&#45;&gt;Node24</title>
<g id="a_edge26_Node000014_Node000024"><a xlink:title=" ">
<path fill="none" stroke="#63b8ff" d="M859.28,-108.78C836.28,-103.71 809.7,-97.86 787.91,-93.06"/>
<polygon fill="#63b8ff" stroke="#63b8ff" points="858.72,-112.24 869.24,-110.97 860.22,-105.4 858.72,-112.24"/>
</a>
</g>
</g>
<!-- Node16 -->
<g id="Node000016" class="node">
<title>Node16</title>
<g id="a_Node000016"><a xlink:href="classTableBase.html#a743b983e93984115449360b4def6a17c" target="_top" xlink:title=" ">
<polygon fill="white" stroke="#666666" points="631.5,-131 518.5,-131 518.5,-112 631.5,-112 631.5,-131"/>
<text text-anchor="middle" x="575" y="-119" font-family="Ubuntu Mono" font-size="10.00">TableBase::initCinfo</text>
</a>
</g>
</g>
<!-- Node15&#45;&gt;Node16 -->
<g id="edge17_Node000015_Node000016" class="edge">
<title>Node15&#45;&gt;Node16</title>
<g id="a_edge17_Node000015_Node000016"><a xlink:title=" ">
<path fill="none" stroke="#63b8ff" d="M688.41,-145.8C666.3,-141.03 641.06,-135.57 620.1,-131.03"/>
<polygon fill="#63b8ff" stroke="#63b8ff" points="687.8,-149.25 698.32,-147.95 689.28,-142.41 687.8,-149.25"/>
</a>
</g>
</g>
<!-- Node17 -->
<g id="Node000017" class="node">
<title>Node17</title>
<g id="a_Node000017"><a xlink:href="classInterpol.html#a61a7a1a821ccd6ef218390259564f15c" target="_top" xlink:title=" ">
<polygon fill="white" stroke="#666666" points="461,-242 360,-242 360,-223 461,-223 461,-242"/>
<text text-anchor="middle" x="410.5" y="-230" font-family="Ubuntu Mono" font-size="10.00">Interpol::initCinfo</text>
</a>
</g>
</g>
<!-- Node16&#45;&gt;Node17 -->
<g id="edge18_Node000016_Node000017" class="edge">
<title>Node16&#45;&gt;Node17</title>
<g id="a_edge18_Node000016_Node000017"><a xlink:title=" ">
<path fill="none" stroke="#63b8ff" d="M561.15,-139.18C544.87,-160.29 514.82,-195.16 481,-214.5 474.83,-218.03 467.97,-220.87 461.02,-223.17"/>
<polygon fill="#63b8ff" stroke="#63b8ff" points="564.05,-141.16 567.26,-131.06 558.45,-136.95 564.05,-141.16"/>
</a>
</g>
</g>
<!-- Node18 -->
<g id="Node000018" class="node">
<title>Node18</title>
<g id="a_Node000018"><a xlink:href="classSocketStreamer.html#a8f6995482d6f639362e1508b37297404" target="_top" xlink:title=" ">
<polygon fill="white" stroke="#666666" points="481,-205 340,-205 340,-186 481,-186 481,-205"/>
<text text-anchor="middle" x="410.5" y="-193" font-family="Ubuntu Mono" font-size="10.00">SocketStreamer::initCinfo</text>
</a>
</g>
</g>
<!-- Node16&#45;&gt;Node18 -->
<g id="edge19_Node000016_Node000018" class="edge">
<title>Node16&#45;&gt;Node18</title>
<g id="a_edge19_Node000016_Node000018"><a xlink:title=" ">
<path fill="none" stroke="#63b8ff" d="M552.35,-137.01C534.09,-149.47 506.86,-166.63 481,-177.5 473.19,-180.78 464.62,-183.59 456.25,-185.95"/>
<polygon fill="#63b8ff" stroke="#63b8ff" points="554.58,-139.73 560.79,-131.15 550.58,-133.98 554.58,-139.73"/>
</a>
</g>
</g>
<!-- Node19 -->
<g id="Node000019" class="node">
<title>Node19</title>
<g id="a_Node000019"><a xlink:href="classStimulusTable.html#a511798470c8a03e18c4bcc03d3f5abbf" target="_top" xlink:title=" ">
<polygon fill="white" stroke="#666666" points="476.5,-168 344.5,-168 344.5,-149 476.5,-149 476.5,-168"/>
<text text-anchor="middle" x="410.5" y="-156" font-family="Ubuntu Mono" font-size="10.00">StimulusTable::initCinfo</text>
</a>
</g>
</g>
<!-- Node16&#45;&gt;Node19 -->
<g id="edge20_Node000016_Node000019" class="edge">
<title>Node16&#45;&gt;Node19</title>
<g id="a_edge20_Node000016_Node000019"><a xlink:title=" ">
<path fill="none" stroke="#63b8ff" d="M522.23,-133.29C500.04,-138.34 474.47,-144.16 453.49,-148.94"/>
<polygon fill="#63b8ff" stroke="#63b8ff" points="523.18,-136.66 532.15,-131.03 521.62,-129.84 523.18,-136.66"/>
</a>
</g>
</g>
<!-- Node20 -->
<g id="Node000020" class="node">
<title>Node20</title>
<g id="a_Node000020"><a xlink:href="classStreamer.html#ac907f2b6e6605333f338367f2712e7e3" target="_top" xlink:title=" ">
<polygon fill="white" stroke="#666666" points="465,-131 356,-131 356,-112 465,-112 465,-131"/>
<text text-anchor="middle" x="410.5" y="-119" font-family="Ubuntu Mono" font-size="10.00">Streamer::initCinfo</text>
</a>
</g>
</g>
<!-- Node16&#45;&gt;Node20 -->
<g id="edge21_Node000016_Node000020" class="edge">
<title>Node16&#45;&gt;Node20</title>
<g id="a_edge21_Node000016_Node000020"><a xlink:title=" ">
<path fill="none" stroke="#63b8ff" d="M507.85,-121.5C493.62,-121.5 478.74,-121.5 465.06,-121.5"/>
<polygon fill="#63b8ff" stroke="#63b8ff" points="508.08,-125 518.08,-121.5 508.08,-118 508.08,-125"/>
</a>
</g>
</g>
<!-- Node21 -->
<g id="Node000021" class="node">
<title>Node21</title>
<g id="a_Node000021"><a xlink:href="classTable.html#a510dd5d32479feb8100fc46ee5245240" target="_top" xlink:title=" ">
<polygon fill="white" stroke="#666666" points="455,-94 366,-94 366,-75 455,-75 455,-94"/>
<text text-anchor="middle" x="410.5" y="-82" font-family="Ubuntu Mono" font-size="10.00">Table::initCinfo</text>
</a>
</g>
</g>
<!-- Node16&#45;&gt;Node21 -->
<g id="edge22_Node000016_Node000021" class="edge">
<title>Node16&#45;&gt;Node21</title>
<g id="a_edge22_Node000016_Node000021"><a xlink:title=" ">
<path fill="none" stroke="#63b8ff" d="M522.23,-109.71C500.04,-104.66 474.47,-98.84 453.49,-94.06"/>
<polygon fill="#63b8ff" stroke="#63b8ff" points="521.62,-113.16 532.15,-111.97 523.18,-106.34 521.62,-113.16"/>
</a>
</g>
</g>
<!-- Node22 -->
<g id="Node000022" class="node">
<title>Node22</title>
<g id="a_Node000022"><a xlink:href="classTimeTable.html#ac4c9635d822ba8716e350bce976401f1" target="_top" xlink:title=" ">
<polygon fill="white" stroke="#666666" points="467.5,-57 353.5,-57 353.5,-38 467.5,-38 467.5,-57"/>
<text text-anchor="middle" x="410.5" y="-45" font-family="Ubuntu Mono" font-size="10.00">TimeTable::initCinfo</text>
</a>
</g>
</g>
<!-- Node16&#45;&gt;Node22 -->
<g id="edge23_Node000016_Node000022" class="edge">
<title>Node16&#45;&gt;Node22</title>
<g id="a_edge23_Node000016_Node000022"><a xlink:title=" ">
<path fill="none" stroke="#63b8ff" d="M552.35,-105.99C534.09,-93.53 506.86,-76.37 481,-65.5 473.19,-62.22 464.62,-59.41 456.25,-57.05"/>
<polygon fill="#63b8ff" stroke="#63b8ff" points="550.58,-109.02 560.79,-111.85 554.58,-103.27 550.58,-109.02"/>
</a>
</g>
</g>
<!-- Node23&#45;&gt;Node16 -->
<g id="edge25_Node000023_Node000016" class="edge">
<title>Node23&#45;&gt;Node16</title>
<g id="a_edge25_Node000023_Node000016"><a xlink:title=" ">
<path fill="none" stroke="#63b8ff" d="M673.72,-120.91C659.71,-121 645.14,-121.08 631.66,-121.17"/>
<polygon fill="#63b8ff" stroke="#63b8ff" points="673.82,-124.41 683.8,-120.85 673.78,-117.41 673.82,-124.41"/>
</a>
</g>
</g>
<!-- Node24&#45;&gt;Node16 -->
<g id="edge27_Node000024_Node000016" class="edge">
<title>Node24&#45;&gt;Node16</title>
<g id="a_edge27_Node000024_Node000016"><a xlink:title=" ">
<path fill="none" stroke="#63b8ff" d="M690.69,-95.32C667.22,-100.68 639.83,-106.93 617.71,-111.98"/>
<polygon fill="#63b8ff" stroke="#63b8ff" points="691.51,-98.73 700.49,-93.09 689.96,-91.9 691.51,-98.73"/>
</a>
</g>
</g>
<!-- Node26 -->
<g id="Node000026" class="node">
<title>Node26</title>
<g id="a_Node000026"><a xlink:href="classReadCell.html#a98debfc03ab1b2f386d671b6a1515a40" target="_top" xlink:title=" ">
<polygon fill="white" stroke="#666666" points="619,-37 531,-37 531,-18 619,-18 619,-37"/>
<text text-anchor="middle" x="575" y="-25" font-family="Ubuntu Mono" font-size="10.00">ReadCell::read</text>
</a>
</g>
</g>
<!-- Node25&#45;&gt;Node26 -->
<g id="edge29_Node000025_Node000026" class="edge">
<title>Node25&#45;&gt;Node26</title>
<g id="a_edge29_Node000025_Node000026"><a xlink:title=" ">
<path fill="none" stroke="#63b8ff" d="M857.28,-71.95C844.41,-69.38 830.74,-66.75 818,-64.5 748.73,-52.25 667.88,-40.37 619.38,-33.51"/>
<polygon fill="#63b8ff" stroke="#63b8ff" points="856.9,-75.44 867.4,-73.99 858.29,-68.58 856.9,-75.44"/>
</a>
</g>
</g>
<!-- Node26&#45;&gt;Node6 -->
<g id="edge30_Node000026_Node000006" class="edge">
<title>Node26&#45;&gt;Node6</title>
<g id="a_edge30_Node000026_Node000006"><a xlink:title=" ">
<path fill="none" stroke="#63b8ff" d="M534.82,-15.22C484.82,-2.11 397.88,11.76 340,-28.5 258.93,-84.88 249.99,-223.08 249.08,-260.83"/>
<polygon fill="#63b8ff" stroke="#63b8ff" points="534.04,-18.63 544.61,-17.9 535.89,-11.88 534.04,-18.63"/>
</a>
</g>
</g>
</g>
</svg>
