<?xml version="1.0" encoding="UTF-8" standalone="no"?>
<!DOCTYPE svg PUBLIC "-//W3C//DTD SVG 1.1//EN"
 "http://www.w3.org/Graphics/SVG/1.1/DTD/svg11.dtd">
<!-- Generated by graphviz version 2.43.0 (0)
 -->
<!-- Title: pymoose::getFieldValue Pages: 1 -->
<svg width="261pt" height="64pt"
 viewBox="0.00 0.00 261.00 64.00" xmlns="http://www.w3.org/2000/svg" xmlns:xlink="http://www.w3.org/1999/xlink">
<g id="graph0" class="graph" transform="scale(1 1) rotate(0) translate(4 60)">
<title>pymoose::getFieldValue</title>
<!-- Node1 -->
<g id="Node000001" class="node">
<title>Node1</title>
<g id="a_Node000001"><a xlink:title="Common function to get value fiields.">
<polygon fill="#999999" stroke="#666666" points="134,-37 0,-37 0,-18 134,-18 134,-37"/>
<text text-anchor="middle" x="67" y="-25" font-family="Ubuntu Mono" font-size="10.00">pymoose::getFieldValue</text>
</a>
</g>
</g>
<!-- Node2 -->
<g id="Node000002" class="node">
<title>Node2</title>
<g id="a_Node000002"><a xlink:href="classFinfo.html#a61d1ed4e356444e2c94611a419b3440a" target="_top" xlink:title=" ">
<polygon fill="white" stroke="#666666" points="248.5,-56 174.5,-56 174.5,-37 248.5,-37 248.5,-56"/>
<text text-anchor="middle" x="211.5" y="-44" font-family="Ubuntu Mono" font-size="10.00">Finfo::name</text>
</a>
</g>
</g>
<!-- Node1&#45;&gt;Node2 -->
<g id="edge1_Node000001_Node000002" class="edge">
<title>Node1&#45;&gt;Node2</title>
<g id="a_edge1_Node000001_Node000002"><a xlink:title=" ">
<path fill="none" stroke="#63b8ff" d="M134.24,-36.33C144.39,-37.68 154.66,-39.06 164.25,-40.33"/>
<polygon fill="#63b8ff" stroke="#63b8ff" points="163.96,-43.83 174.34,-41.68 164.89,-36.89 163.96,-43.83"/>
</a>
</g>
</g>
<!-- Node3 -->
<g id="Node000003" class="node">
<title>Node3</title>
<g id="a_Node000003"><a xlink:href="classFinfo.html#aead9ffc3d851ba7ee6ebdb954fc2b7e2" target="_top" xlink:title=" ">
<polygon fill="white" stroke="#666666" points="253,-19 170,-19 170,0 253,0 253,-19"/>
<text text-anchor="middle" x="211.5" y="-7" font-family="Ubuntu Mono" font-size="10.00">Finfo::rttiType</text>
</a>
</g>
</g>
<!-- Node1&#45;&gt;Node3 -->
<g id="edge2_Node000001_Node000003" class="edge">
<title>Node1&#45;&gt;Node3</title>
<g id="a_edge2_Node000001_Node000003"><a xlink:title=" ">
<path fill="none" stroke="#63b8ff" d="M134.24,-19.13C142.73,-18.06 151.31,-16.98 159.49,-15.94"/>
<polygon fill="#63b8ff" stroke="#63b8ff" points="160.14,-19.39 169.62,-14.66 159.26,-12.44 160.14,-19.39"/>
</a>
</g>
</g>
</g>
</svg>
