<?xml version="1.0" encoding="UTF-8" standalone="no"?>
<!DOCTYPE svg PUBLIC "-//W3C//DTD SVG 1.1//EN"
 "http://www.w3.org/Graphics/SVG/1.1/DTD/svg11.dtd">
<!-- Generated by graphviz version 2.43.0 (0)
 -->
<!-- Title: addPos Pages: 1 -->
<svg width="345pt" height="27pt"
 viewBox="0.00 0.00 345.00 27.00" xmlns="http://www.w3.org/2000/svg" xmlns:xlink="http://www.w3.org/1999/xlink">
<g id="graph0" class="graph" transform="scale(1 1) rotate(0) translate(4 23)">
<title>addPos</title>
<!-- Node1 -->
<g id="Node000001" class="node">
<title>Node1</title>
<g id="a_Node000001"><a xlink:title="Add entries into the pos vector for a given compartment i.">
<polygon fill="#999999" stroke="#666666" points="52,-19 0,-19 0,0 52,0 52,-19"/>
<text text-anchor="middle" x="26" y="-7" font-family="Ubuntu Mono" font-size="10.00">addPos</text>
</a>
</g>
</g>
<!-- Node2 -->
<g id="Node000002" class="node">
<title>Node2</title>
<g id="a_Node000002"><a xlink:href="namespacemoose.html#ae65f9d4e187c732b37450b5cb8dab7a7" target="_top" xlink:title="Generate a random double between 0 and 1.">
<polygon fill="white" stroke="#666666" points="179,-19 88,-19 88,0 179,0 179,-19"/>
<text text-anchor="middle" x="133.5" y="-7" font-family="Ubuntu Mono" font-size="10.00">moose::mtrand</text>
</a>
</g>
</g>
<!-- Node1&#45;&gt;Node2 -->
<g id="edge1_Node000001_Node000002" class="edge">
<title>Node1&#45;&gt;Node2</title>
<g id="a_edge1_Node000001_Node000002"><a xlink:title=" ">
<path fill="none" stroke="#63b8ff" d="M52,-9.5C59.79,-9.5 68.71,-9.5 77.72,-9.5"/>
<polygon fill="#63b8ff" stroke="#63b8ff" points="77.85,-13 87.85,-9.5 77.85,-6 77.85,-13"/>
</a>
</g>
</g>
<!-- Node3 -->
<g id="Node000003" class="node">
<title>Node3</title>
<g id="a_Node000003"><a xlink:href="classmoose_1_1RNG.html#a6fec47558673d4d721a6918bb43b3fd3" target="_top" xlink:title="Return a uniformly distributed random number between 0 and 1 (exclusive).">
<polygon fill="white" stroke="#666666" points="337,-19 215,-19 215,0 337,0 337,-19"/>
<text text-anchor="middle" x="276" y="-7" font-family="Ubuntu Mono" font-size="10.00">moose::RNG::uniform</text>
</a>
</g>
</g>
<!-- Node2&#45;&gt;Node3 -->
<g id="edge2_Node000002_Node000003" class="edge">
<title>Node2&#45;&gt;Node3</title>
<g id="a_edge2_Node000002_Node000003"><a xlink:title=" ">
<path fill="none" stroke="#63b8ff" d="M179.34,-9.5C187.48,-9.5 196.14,-9.5 204.81,-9.5"/>
<polygon fill="#63b8ff" stroke="#63b8ff" points="204.95,-13 214.95,-9.5 204.95,-6 204.95,-13"/>
</a>
</g>
</g>
</g>
</svg>
