<?xml version="1.0" encoding="UTF-8" standalone="no"?>
<!DOCTYPE svg PUBLIC "-//W3C//DTD SVG 1.1//EN"
 "http://www.w3.org/Graphics/SVG/1.1/DTD/svg11.dtd">
<!-- Generated by graphviz version 2.43.0 (0)
 -->
<!-- Title: findAllConnectedCompartments Pages: 1 -->
<!--zoomable 114 -->

<svg id="main" version="1.1" xmlns="http://www.w3.org/2000/svg" xmlns:xlink="http://www.w3.org/1999/xlink" xml:space="preserve" onload="init(evt)">
<style type="text/css"><![CDATA[
.node, .edge {opacity: 0.7;}
.node.selected, .edge.selected {opacity: 1;}
.edge:hover path { stroke: red; }
.edge:hover polygon { stroke: red; fill: red; }
]]></style>

<defs>
  <circle id="rim" cx="0" cy="0" r="7"/>
  <circle id="rim2" cx="0" cy="0" r="3.5"/>
  <g id="zoomPlus">
    <use xlink:href="#rim" fill="#404040"><set attributeName="fill" to="#808080" begin="zoomplus.mouseover" end="zoomplus.mouseout"/></use>
    <path d="M-4,0h8M0,-4v8" fill="none" stroke="white" stroke-width="1.5" pointer-events="none"/>
  </g>
  <g id="zoomMin">
    <use xlink:href="#rim" fill="#404040"><set attributeName="fill" to="#808080" begin="zoomminus.mouseover" end="zoomminus.mouseout"/></use>
    <path d="M-4,0h8" fill="none" stroke="white" stroke-width="1.5" pointer-events="none"/>
  </g>
  <g id="arrowUp" transform="translate(30 24)">
    <use xlink:href="#rim"/>
    <path pointer-events="none" fill="none" stroke="white" stroke-width="1.5" d="M0,-3.0v7 M-2.5,-0.5L0,-3.0L2.5,-0.5"/>
  </g>
  <g id="arrowRight" transform="rotate(90) translate(36 -43)">
    <use xlink:href="#rim"/>
    <path pointer-events="none" fill="none" stroke="white" stroke-width="1.5" d="M0,-3.0v7 M-2.5,-0.5L0,-3.0L2.5,-0.5"/>
  </g>
  <g id="arrowDown" transform="rotate(180) translate(-30 -48)">
    <use xlink:href="#rim"/>
    <path pointer-events="none" fill="none" stroke="white" stroke-width="1.5" d="M0,-3.0v7 M-2.5,-0.5L0,-3.0L2.5,-0.5"/>
  </g>
  <g id="arrowLeft" transform="rotate(270) translate(-36 17)">
    <use xlink:href="#rim"/>
    <path pointer-events="none" fill="none" stroke="white" stroke-width="1.5" d="M0,-3.0v7 M-2.5,-0.5L0,-3.0L2.5,-0.5"/>
  </g>
  <g id="resetDef">
    <use xlink:href="#rim2" fill="#404040"><set attributeName="fill" to="#808080" begin="reset.mouseover" end="reset.mouseout"/></use>
  </g>
</defs>
<script type="application/ecmascript">
var viewWidth = 1178;
var viewHeight = 114;
var sectionId = 'dynsection-6';
</script>
<script type="application/ecmascript" xlink:href="svg.min.js"/>
<svg id="graph" class="graph">
<g id="viewport">
<title>findAllConnectedCompartments</title>
<!-- Node1 -->
<g id="Node000001" class="node">
<title>Node1</title>
<g id="a_Node000001"><a xlink:title=" ">
<polygon fill="#999999" stroke="#666666" points="1170,-67.5 998,-67.5 998,-48.5 1170,-48.5 1170,-67.5"/>
<text text-anchor="middle" x="1084" y="-55.5" font-family="Ubuntu Mono" font-size="10.00">findAllConnectedCompartments</text>
</a>
</g>
</g>
<!-- Node2 -->
<g id="Node000002" class="node">
<title>Node2</title>
<g id="a_Node000002"><a xlink:href="NeuroNode_8cpp.html#a5f1fa553bc4ed76fa289667c9612bfdc" target="_top" xlink:title=" ">
<polygon fill="white" stroke="#666666" points="932,-105.5 845,-105.5 845,-86.5 932,-86.5 932,-105.5"/>
<text text-anchor="middle" x="888.5" y="-93.5" font-family="Ubuntu Mono" font-size="10.00">checkForSpine</text>
</a>
</g>
</g>
<!-- Node1&#45;&gt;Node2 -->
<g id="edge1_Node000001_Node000002" class="edge">
<title>Node1&#45;&gt;Node2</title>
<g id="a_edge1_Node000001_Node000002"><a xlink:title=" ">
<path fill="none" stroke="#63b8ff" d="M1024.33,-69.52C994.59,-75.36 959.15,-82.32 932.06,-87.64"/>
<polygon fill="#63b8ff" stroke="#63b8ff" points="1025.03,-72.95 1034.17,-67.59 1023.68,-66.08 1025.03,-72.95"/>
</a>
</g>
</g>
<!-- Node3 -->
<g id="Node000003" class="node">
<title>Node3</title>
<g id="a_Node000003"><a xlink:href="NeuroNode_8cpp.html#aafe6f73e212ef99a832c7af3d1ac5d2e" target="_top" xlink:title=" ">
<polygon fill="white" stroke="#666666" points="779,-67.5 695,-67.5 695,-48.5 779,-48.5 779,-67.5"/>
<text text-anchor="middle" x="737" y="-55.5" font-family="Ubuntu Mono" font-size="10.00">spinyTraverse</text>
</a>
</g>
</g>
<!-- Node1&#45;&gt;Node3 -->
<g id="edge12_Node000001_Node000003" class="edge">
<title>Node1&#45;&gt;Node3</title>
<g id="a_edge12_Node000001_Node000003"><a xlink:title=" ">
<path fill="none" stroke="#63b8ff" d="M987.34,-58C918.87,-58 830.08,-58 779.03,-58"/>
<polygon fill="#63b8ff" stroke="#63b8ff" points="987.72,-61.5 997.72,-58 987.72,-54.5 987.72,-61.5"/>
</a>
</g>
</g>
<!-- Node8 -->
<g id="Node000008" class="node">
<title>Node8</title>
<g id="a_Node000008"><a xlink:href="classNeuroNode.html#a6eae291497c4d5ff2712d5ad9e32ca6b" target="_top" xlink:title=" ">
<polygon fill="white" stroke="#666666" points="962,-30 815,-30 815,0 962,0 962,-30"/>
<text text-anchor="start" x="823" y="-18" font-family="Ubuntu Mono" font-size="10.00">NeuroNode::findConnected</text>
<text text-anchor="middle" x="888.5" y="-7" font-family="Ubuntu Mono" font-size="10.00">Compartments</text>
</a>
</g>
</g>
<!-- Node1&#45;&gt;Node8 -->
<g id="edge9_Node000001_Node000008" class="edge">
<title>Node1&#45;&gt;Node8</title>
<g id="a_edge9_Node000001_Node000008"><a xlink:title=" ">
<path fill="none" stroke="#63b8ff" d="M1030.01,-46.22C1007.48,-41.22 980.94,-35.32 957.03,-30.01"/>
<polygon fill="#63b8ff" stroke="#63b8ff" points="1029.53,-49.7 1040.06,-48.46 1031.05,-42.87 1029.53,-49.7"/>
</a>
</g>
</g>
<!-- Node2&#45;&gt;Node3 -->
<g id="edge2_Node000002_Node000003" class="edge">
<title>Node2&#45;&gt;Node3</title>
<g id="a_edge2_Node000002_Node000003"><a xlink:title=" ">
<path fill="none" stroke="#63b8ff" d="M839.85,-83.89C819.03,-78.6 794.96,-72.48 775.45,-67.52"/>
<polygon fill="#63b8ff" stroke="#63b8ff" points="839.22,-87.34 849.77,-86.41 840.95,-80.56 839.22,-87.34"/>
</a>
</g>
</g>
<!-- Node3&#45;&gt;Node3 -->
<g id="edge8_Node000003_Node000003" class="edge">
<title>Node3&#45;&gt;Node3</title>
<g id="a_edge8_Node000003_Node000003"><a xlink:title=" ">
<path fill="none" stroke="#63b8ff" d="M765,-76.32C763.83,-81.51 754.5,-85.5 737,-85.5 710.34,-85.5 702.63,-76.23 713.88,-67.58"/>
<polygon fill="#63b8ff" stroke="#63b8ff" points="768.05,-74.61 760.12,-67.58 761.94,-78.02 768.05,-74.61"/>
</a>
</g>
</g>
<!-- Node4 -->
<g id="Node000004" class="node">
<title>Node4</title>
<g id="a_Node000004"><a xlink:href="classNeuroNode.html#aba7020383a8baff44448479b5eece512" target="_top" xlink:title=" ">
<polygon fill="white" stroke="#666666" points="659,-64.5 510,-64.5 510,-45.5 659,-45.5 659,-64.5"/>
<text text-anchor="middle" x="584.5" y="-52.5" font-family="Ubuntu Mono" font-size="10.00">NeuroNode::buildSpinyTree</text>
</a>
</g>
</g>
<!-- Node3&#45;&gt;Node4 -->
<g id="edge3_Node000003_Node000004" class="edge">
<title>Node3&#45;&gt;Node4</title>
<g id="a_edge3_Node000003_Node000004"><a xlink:title=" ">
<path fill="none" stroke="#63b8ff" d="M684.74,-56.98C676.52,-56.81 667.89,-56.64 659.28,-56.47"/>
<polygon fill="#63b8ff" stroke="#63b8ff" points="684.81,-60.48 694.88,-57.18 684.95,-53.48 684.81,-60.48"/>
</a>
</g>
</g>
<!-- Node5 -->
<g id="Node000005" class="node">
<title>Node5</title>
<g id="a_Node000005"><a xlink:href="classNeuroMesh.html#a35e1c3ce3edeae2652b9d5ee2729f9df" target="_top" xlink:title=" ">
<polygon fill="white" stroke="#666666" points="474,-45.5 343,-45.5 343,-26.5 474,-26.5 474,-45.5"/>
<text text-anchor="middle" x="408.5" y="-33.5" font-family="Ubuntu Mono" font-size="10.00">NeuroMesh::setSubTree</text>
</a>
</g>
</g>
<!-- Node4&#45;&gt;Node5 -->
<g id="edge4_Node000004_Node000005" class="edge">
<title>Node4&#45;&gt;Node5</title>
<g id="a_edge4_Node000004_Node000005"><a xlink:title=" ">
<path fill="none" stroke="#63b8ff" d="M499.88,-45.87C491.26,-44.93 482.6,-43.98 474.23,-43.07"/>
<polygon fill="#63b8ff" stroke="#63b8ff" points="499.64,-49.36 509.96,-46.97 500.4,-42.4 499.64,-49.36"/>
</a>
</g>
</g>
<!-- Node6 -->
<g id="Node000006" class="node">
<title>Node6</title>
<g id="a_Node000006"><a xlink:href="classNeuroMesh.html#a131784a1f5af526113a98464ab4c4357" target="_top" xlink:title=" ">
<polygon fill="white" stroke="#666666" points="119,-45.5 0,-45.5 0,-26.5 119,-26.5 119,-45.5"/>
<text text-anchor="middle" x="59.5" y="-33.5" font-family="Ubuntu Mono" font-size="10.00">NeuroMesh::initCinfo</text>
</a>
</g>
</g>
<!-- Node5&#45;&gt;Node6 -->
<g id="edge5_Node000005_Node000006" class="edge">
<title>Node5&#45;&gt;Node6</title>
<g id="a_edge5_Node000005_Node000006"><a xlink:title=" ">
<path fill="none" stroke="#63b8ff" d="M332.62,-36C268.7,-36 178.05,-36 119.26,-36"/>
<polygon fill="#63b8ff" stroke="#63b8ff" points="332.64,-39.5 342.64,-36 332.64,-32.5 332.64,-39.5"/>
</a>
</g>
</g>
<!-- Node7 -->
<g id="Node000007" class="node">
<title>Node7</title>
<g id="a_Node000007"><a xlink:href="classNeuroMesh.html#a5544eb3267ffffc2ba356d50ec2a4633" target="_top" xlink:title=" ">
<polygon fill="white" stroke="#666666" points="307,-26.5 155,-26.5 155,-7.5 307,-7.5 307,-26.5"/>
<text text-anchor="middle" x="231" y="-14.5" font-family="Ubuntu Mono" font-size="10.00">NeuroMesh::setSubTreePath</text>
</a>
</g>
</g>
<!-- Node5&#45;&gt;Node7 -->
<g id="edge6_Node000005_Node000007" class="edge">
<title>Node5&#45;&gt;Node7</title>
<g id="a_edge6_Node000005_Node000007"><a xlink:title=" ">
<path fill="none" stroke="#63b8ff" d="M332.54,-27.88C324.16,-26.98 315.63,-26.05 307.26,-25.15"/>
<polygon fill="#63b8ff" stroke="#63b8ff" points="332.33,-31.38 342.65,-28.98 333.08,-24.42 332.33,-31.38"/>
</a>
</g>
</g>
<!-- Node7&#45;&gt;Node6 -->
<g id="edge7_Node000007_Node000006" class="edge">
<title>Node7&#45;&gt;Node6</title>
<g id="a_edge7_Node000007_Node000006"><a xlink:title=" ">
<path fill="none" stroke="#63b8ff" d="M144.56,-26.58C135.93,-27.54 127.31,-28.51 119.06,-29.44"/>
<polygon fill="#63b8ff" stroke="#63b8ff" points="145.12,-30.04 154.67,-25.44 144.34,-23.08 145.12,-30.04"/>
</a>
</g>
</g>
<!-- Node9 -->
<g id="Node000009" class="node">
<title>Node9</title>
<g id="a_Node000009"><a xlink:href="classNeuroNode.html#a3f4fe78639e7175e0a9e157c937fe4f7" target="_top" xlink:title=" ">
<polygon fill="white" stroke="#666666" points="645.5,-27.5 523.5,-27.5 523.5,-8.5 645.5,-8.5 645.5,-27.5"/>
<text text-anchor="middle" x="584.5" y="-15.5" font-family="Ubuntu Mono" font-size="10.00">NeuroNode::buildTree</text>
</a>
</g>
</g>
<!-- Node8&#45;&gt;Node9 -->
<g id="edge10_Node000008_Node000009" class="edge">
<title>Node8&#45;&gt;Node9</title>
<g id="a_edge10_Node000008_Node000009"><a xlink:title=" ">
<path fill="none" stroke="#63b8ff" d="M804.59,-15.82C754.36,-16.32 691.42,-16.95 645.91,-17.4"/>
<polygon fill="#63b8ff" stroke="#63b8ff" points="804.81,-19.32 814.78,-15.72 804.74,-12.32 804.81,-19.32"/>
</a>
</g>
</g>
<!-- Node9&#45;&gt;Node5 -->
<g id="edge11_Node000009_Node000005" class="edge">
<title>Node9&#45;&gt;Node5</title>
<g id="a_edge11_Node000009_Node000005"><a xlink:title=" ">
<path fill="none" stroke="#63b8ff" d="M512.98,-25.3C500.16,-26.62 486.85,-28 474.21,-29.31"/>
<polygon fill="#63b8ff" stroke="#63b8ff" points="513.54,-28.76 523.13,-24.25 512.82,-21.79 513.54,-28.76"/>
</a>
</g>
</g>
</g>
</svg>

<g id="navigator" transform="translate(0 0)" fill="#404254">
  <rect fill="#f2f5e9" fill-opacity="0.5" stroke="#606060" stroke-width=".5" x="0" y="0" width="60" height="60"/>
  <use id="zoomplus" xlink:href="#zoomPlus" x="17" y="9" onmousedown="handleZoom(evt,'in')"/>
  <use id="zoomminus" xlink:href="#zoomMin" x="42" y="9" onmousedown="handleZoom(evt,'out')"/>
  <use id="reset" xlink:href="#resetDef" x="30" y="36" onmousedown="handleReset()"/>
   <use id="arrowup" xlink:href="#arrowUp" x="0" y="0" onmousedown="handlePan(0,-1)"/>
  <use id="arrowright" xlink:href="#arrowRight" x="0" y="0" onmousedown="handlePan(1,0)"/>
  <use id="arrowdown" xlink:href="#arrowDown" x="0" y="0" onmousedown="handlePan(0,1)"/>
  <use id="arrowleft" xlink:href="#arrowLeft" x="0" y="0" onmousedown="handlePan(-1,0)"/>
</g>
<svg viewBox="0 0 15 15" width="100%" height="30px" preserveAspectRatio="xMaxYMin meet">
 <g id="arrow_out" transform="scale(0.3 0.3)">
  <a xlink:href="NeuroNode_8cpp_a8852cf5158e1704e13ecbb1723c66cee_icgraph_org.svg" target="_base">
   <rect id="button" ry="5" rx="5" y="6" x="6" height="38" width="38"
        fill="#f2f5e9" fill-opacity="0.5" stroke="#606060" stroke-width="1.0"/>
   <path id="arrow"
     d="M 11.500037,31.436501 C 11.940474,20.09759 22.043105,11.32322 32.158766,21.979434 L 37.068811,17.246167 C 37.068811,17.246167 37.088388,32 37.088388,32 L 22.160133,31.978069 C 22.160133,31.978069 26.997745,27.140456 26.997745,27.140456 C 18.528582,18.264221 13.291696,25.230495 11.500037,31.436501 z"
     style="fill:#404040;"/>
  </a>
 </g>
</svg>

<style type='text/css'>
<![CDATA[
[data-mouse-over-selected='false'] { opacity: 0.7; }
[data-mouse-over-selected='true']  { opacity: 1.0; }
]]>
</style>
<script type="application/ecmascript"><![CDATA[
document.addEventListener('DOMContentLoaded', (event) => {
  highlightEdges();
  highlightAdjacentNodes();
});
]]></script>
</svg>
