<?xml version="1.0" encoding="UTF-8" standalone="no"?>
<!DOCTYPE svg PUBLIC "-//W3C//DTD SVG 1.1//EN"
 "http://www.w3.org/Graphics/SVG/1.1/DTD/svg11.dtd">
<!-- Generated by graphviz version 2.43.0 (0)
 -->
<!-- Title: /home/runner/work/mooseneuro.github.io/mooseneuro.github.io/docs/moose&#45;core/shell/Neutral.cpp Pages: 1 -->
<!--zoomable 225 -->

<svg id="main" version="1.1" xmlns="http://www.w3.org/2000/svg" xmlns:xlink="http://www.w3.org/1999/xlink" xml:space="preserve" onload="init(evt)">
<style type="text/css"><![CDATA[
.node, .edge {opacity: 0.7;}
.node.selected, .edge.selected {opacity: 1;}
.edge:hover path { stroke: red; }
.edge:hover polygon { stroke: red; fill: red; }
]]></style>

<defs>
  <circle id="rim" cx="0" cy="0" r="7"/>
  <circle id="rim2" cx="0" cy="0" r="3.5"/>
  <g id="zoomPlus">
    <use xlink:href="#rim" fill="#404040"><set attributeName="fill" to="#808080" begin="zoomplus.mouseover" end="zoomplus.mouseout"/></use>
    <path d="M-4,0h8M0,-4v8" fill="none" stroke="white" stroke-width="1.5" pointer-events="none"/>
  </g>
  <g id="zoomMin">
    <use xlink:href="#rim" fill="#404040"><set attributeName="fill" to="#808080" begin="zoomminus.mouseover" end="zoomminus.mouseout"/></use>
    <path d="M-4,0h8" fill="none" stroke="white" stroke-width="1.5" pointer-events="none"/>
  </g>
  <g id="arrowUp" transform="translate(30 24)">
    <use xlink:href="#rim"/>
    <path pointer-events="none" fill="none" stroke="white" stroke-width="1.5" d="M0,-3.0v7 M-2.5,-0.5L0,-3.0L2.5,-0.5"/>
  </g>
  <g id="arrowRight" transform="rotate(90) translate(36 -43)">
    <use xlink:href="#rim"/>
    <path pointer-events="none" fill="none" stroke="white" stroke-width="1.5" d="M0,-3.0v7 M-2.5,-0.5L0,-3.0L2.5,-0.5"/>
  </g>
  <g id="arrowDown" transform="rotate(180) translate(-30 -48)">
    <use xlink:href="#rim"/>
    <path pointer-events="none" fill="none" stroke="white" stroke-width="1.5" d="M0,-3.0v7 M-2.5,-0.5L0,-3.0L2.5,-0.5"/>
  </g>
  <g id="arrowLeft" transform="rotate(270) translate(-36 17)">
    <use xlink:href="#rim"/>
    <path pointer-events="none" fill="none" stroke="white" stroke-width="1.5" d="M0,-3.0v7 M-2.5,-0.5L0,-3.0L2.5,-0.5"/>
  </g>
  <g id="resetDef">
    <use xlink:href="#rim2" fill="#404040"><set attributeName="fill" to="#808080" begin="reset.mouseover" end="reset.mouseout"/></use>
  </g>
</defs>
<script type="application/ecmascript">
var viewWidth = 3511;
var viewHeight = 225;
var sectionId = 'dynsection-0';
</script>
<script type="application/ecmascript" xlink:href="svg.min.js"/>
<svg id="graph" class="graph">
<g id="viewport">
<title>/home/runner/work/mooseneuro.github.io/mooseneuro.github.io/docs/moose&#45;core/shell/Neutral.cpp</title>
<!-- Node1 -->
<g id="Node000001" class="node">
<title>Node1</title>
<g id="a_Node000001"><a xlink:title=" ">
<polygon fill="#999999" stroke="#666666" points="2619,-217 2401,-217 2401,-176 2619,-176 2619,-217"/>
<text text-anchor="start" x="2409" y="-205" font-family="Ubuntu Mono" font-size="10.00">/home/runner/work/mooseneuro.github.io</text>
<text text-anchor="start" x="2409" y="-194" font-family="Ubuntu Mono" font-size="10.00">/mooseneuro.github.io/docs/moose</text>
<text text-anchor="middle" x="2510" y="-183" font-family="Ubuntu Mono" font-size="10.00">&#45;core/shell/Neutral.cpp</text>
</a>
</g>
</g>
<!-- Node2 -->
<g id="Node000002" class="node">
<title>Node2</title>
<g id="a_Node000002"><a xlink:href="header_8h.html" target="_top" xlink:title=" ">
<polygon fill="white" stroke="#666666" points="1782.5,-134.5 1665.5,-134.5 1665.5,-115.5 1782.5,-115.5 1782.5,-134.5"/>
<text text-anchor="middle" x="1724" y="-122.5" font-family="Ubuntu Mono" font-size="10.00">../basecode/header.h</text>
</a>
</g>
</g>
<!-- Node1&#45;&gt;Node2 -->
<g id="edge1_Node000001_Node000002" class="edge">
<title>Node1&#45;&gt;Node2</title>
<g id="a_edge1_Node000001_Node000002"><a xlink:title=" ">
<path fill="none" stroke="#63b8ff" d="M2400.71,-185.84C2236.27,-171.3 1929.92,-144.21 1793.1,-132.11"/>
<polygon fill="#63b8ff" stroke="#63b8ff" points="1793.03,-128.59 1782.76,-131.2 1792.41,-135.56 1793.03,-128.59"/>
</a>
</g>
</g>
<!-- Node22 -->
<g id="Node000022" class="node">
<title>Node22</title>
<g id="a_Node000022"><a xlink:href="Dinfo_8h.html" target="_top" xlink:title=" ">
<polygon fill="white" stroke="#666666" points="52,-74 0,-74 0,-55 52,-55 52,-74"/>
<text text-anchor="middle" x="26" y="-62" font-family="Ubuntu Mono" font-size="10.00">Dinfo.h</text>
</a>
</g>
</g>
<!-- Node1&#45;&gt;Node22 -->
<g id="edge45_Node000001_Node000022" class="edge">
<title>Node1&#45;&gt;Node22</title>
<g id="a_edge45_Node000001_Node000022"><a xlink:title=" ">
<path fill="none" stroke="#63b8ff" d="M2400.93,-192.83C1991.19,-182.36 543.28,-141.47 62.41,-73.89"/>
<polygon fill="#63b8ff" stroke="#63b8ff" points="62.66,-70.39 52.27,-72.44 61.67,-77.32 62.66,-70.39"/>
</a>
</g>
</g>
<!-- Node44 -->
<g id="Node000044" class="node">
<title>Node44</title>
<g id="a_Node000044"><a xlink:href="ElementValueFinfo_8h.html" target="_top" xlink:title=" ">
<polygon fill="white" stroke="#666666" points="3206.5,-140 3063.5,-140 3063.5,-110 3206.5,-110 3206.5,-140"/>
<text text-anchor="start" x="3071.5" y="-128" font-family="Ubuntu Mono" font-size="10.00">../basecode/ElementValue</text>
<text text-anchor="middle" x="3135" y="-117" font-family="Ubuntu Mono" font-size="10.00">Finfo.h</text>
</a>
</g>
</g>
<!-- Node1&#45;&gt;Node44 -->
<g id="edge46_Node000001_Node000044" class="edge">
<title>Node1&#45;&gt;Node44</title>
<g id="a_edge46_Node000001_Node000044"><a xlink:title=" ">
<path fill="none" stroke="#63b8ff" d="M2619.22,-183.35C2743.08,-169.58 2942.18,-147.44 3053.3,-135.08"/>
<polygon fill="#63b8ff" stroke="#63b8ff" points="3053.9,-138.54 3063.45,-133.96 3053.12,-131.58 3053.9,-138.54"/>
</a>
</g>
</g>
<!-- Node46 -->
<g id="Node000046" class="node">
<title>Node46</title>
<g id="a_Node000046"><a xlink:href="LookupElementValueFinfo_8h.html" target="_top" xlink:title=" ">
<polygon fill="white" stroke="#666666" points="2703,-140 2553,-140 2553,-110 2703,-110 2703,-140"/>
<text text-anchor="start" x="2561" y="-128" font-family="Ubuntu Mono" font-size="10.00">../basecode/LookupElement</text>
<text text-anchor="middle" x="2628" y="-117" font-family="Ubuntu Mono" font-size="10.00">ValueFinfo.h</text>
</a>
</g>
</g>
<!-- Node1&#45;&gt;Node46 -->
<g id="edge48_Node000001_Node000046" class="edge">
<title>Node1&#45;&gt;Node46</title>
<g id="a_edge48_Node000001_Node000046"><a xlink:title=" ">
<path fill="none" stroke="#63b8ff" d="M2543.18,-175.96C2559.52,-166.33 2579.14,-154.78 2595.4,-145.2"/>
<polygon fill="#63b8ff" stroke="#63b8ff" points="2597.2,-148.2 2604.04,-140.11 2593.65,-142.17 2597.2,-148.2"/>
</a>
</g>
</g>
<!-- Node47 -->
<g id="Node000047" class="node">
<title>Node47</title>
<g id="a_Node000047"><a xlink:href="Shell_8h.html" target="_top" xlink:title=" ">
<polygon fill="white" stroke="#666666" points="2535,-134.5 2485,-134.5 2485,-115.5 2535,-115.5 2535,-134.5"/>
<text text-anchor="middle" x="2510" y="-122.5" font-family="Ubuntu Mono" font-size="10.00">Shell.h</text>
</a>
</g>
</g>
<!-- Node1&#45;&gt;Node47 -->
<g id="edge49_Node000001_Node000047" class="edge">
<title>Node1&#45;&gt;Node47</title>
<g id="a_edge49_Node000001_Node000047"><a xlink:title=" ">
<path fill="none" stroke="#63b8ff" d="M2510,-175.77C2510,-166.08 2510,-154.46 2510,-144.88"/>
<polygon fill="#63b8ff" stroke="#63b8ff" points="2513.5,-144.82 2510,-134.82 2506.5,-144.82 2513.5,-144.82"/>
</a>
</g>
</g>
<!-- Node3 -->
<g id="Node000003" class="node">
<title>Node3</title>
<g id="a_Node000003"><a xlink:title=" ">
<polygon fill="#e0e0e0" stroke="#999999" points="3224.5,-74 3173.5,-74 3173.5,-55 3224.5,-55 3224.5,-74"/>
<text text-anchor="middle" x="3199" y="-62" font-family="Ubuntu Mono" font-size="10.00">math.h</text>
</a>
</g>
</g>
<!-- Node2&#45;&gt;Node3 -->
<g id="edge2_Node000002_Node000003" class="edge">
<title>Node2&#45;&gt;Node3</title>
<g id="a_edge2_Node000002_Node000003"><a xlink:title=" ">
<path fill="none" stroke="#63b8ff" d="M1782.73,-122.67C2030.51,-116.95 2985.54,-93.94 3163.01,-73.68"/>
<polygon fill="#63b8ff" stroke="#63b8ff" points="3163.63,-77.13 3173.12,-72.41 3162.76,-70.18 3163.63,-77.13"/>
</a>
</g>
</g>
<!-- Node4 -->
<g id="Node000004" class="node">
<title>Node4</title>
<g id="a_Node000004"><a xlink:title=" ">
<polygon fill="#e0e0e0" stroke="#999999" points="3307,-74 3243,-74 3243,-55 3307,-55 3307,-74"/>
<text text-anchor="middle" x="3275" y="-62" font-family="Ubuntu Mono" font-size="10.00">algorithm</text>
</a>
</g>
</g>
<!-- Node2&#45;&gt;Node4 -->
<g id="edge3_Node000002_Node000004" class="edge">
<title>Node2&#45;&gt;Node4</title>
<g id="a_edge3_Node000002_Node000004"><a xlink:title=" ">
<path fill="none" stroke="#63b8ff" d="M1782.92,-122.65C2038.68,-116.69 3047.81,-92.36 3232.8,-73.81"/>
<polygon fill="#63b8ff" stroke="#63b8ff" points="3233.3,-77.27 3242.86,-72.71 3232.54,-70.32 3233.3,-77.27"/>
</a>
</g>
</g>
<!-- Node5 -->
<g id="Node000005" class="node">
<title>Node5</title>
<g id="a_Node000005"><a xlink:title=" ">
<polygon fill="#e0e0e0" stroke="#999999" points="3372.5,-74 3325.5,-74 3325.5,-55 3372.5,-55 3372.5,-74"/>
<text text-anchor="middle" x="3349" y="-62" font-family="Ubuntu Mono" font-size="10.00">vector</text>
</a>
</g>
</g>
<!-- Node2&#45;&gt;Node5 -->
<g id="edge4_Node000002_Node000005" class="edge">
<title>Node2&#45;&gt;Node5</title>
<g id="a_edge4_Node000002_Node000005"><a xlink:title=" ">
<path fill="none" stroke="#63b8ff" d="M1782.5,-122.93C2046.41,-117.99 3121.25,-96.76 3315.28,-73.58"/>
<polygon fill="#63b8ff" stroke="#63b8ff" points="3315.87,-77.03 3325.33,-72.26 3314.96,-70.09 3315.87,-77.03"/>
</a>
</g>
</g>
<!-- Node6 -->
<g id="Node000006" class="node">
<title>Node6</title>
<g id="a_Node000006"><a xlink:title=" ">
<polygon fill="#e0e0e0" stroke="#999999" points="3435,-74 3391,-74 3391,-55 3435,-55 3435,-74"/>
<text text-anchor="middle" x="3413" y="-62" font-family="Ubuntu Mono" font-size="10.00">string</text>
</a>
</g>
</g>
<!-- Node2&#45;&gt;Node6 -->
<g id="edge5_Node000002_Node000006" class="edge">
<title>Node2&#45;&gt;Node6</title>
<g id="a_edge5_Node000002_Node000006"><a xlink:title=" ">
<path fill="none" stroke="#63b8ff" d="M1782.62,-123.06C2053.58,-118.59 3179.81,-98.8 3380.65,-73.66"/>
<polygon fill="#63b8ff" stroke="#63b8ff" points="3381.35,-77.1 3390.78,-72.27 3380.4,-70.16 3381.35,-77.1"/>
</a>
</g>
</g>
<!-- Node7 -->
<g id="Node000007" class="node">
<title>Node7</title>
<g id="a_Node000007"><a xlink:title=" ">
<polygon fill="#e0e0e0" stroke="#999999" points="108,-74 70,-74 70,-55 108,-55 108,-74"/>
<text text-anchor="middle" x="89" y="-62" font-family="Ubuntu Mono" font-size="10.00">map</text>
</a>
</g>
</g>
<!-- Node2&#45;&gt;Node7 -->
<g id="edge6_Node000002_Node000007" class="edge">
<title>Node2&#45;&gt;Node7</title>
<g id="a_edge6_Node000002_Node000007"><a xlink:title=" ">
<path fill="none" stroke="#63b8ff" d="M1665.38,-123.09C1399.67,-118.85 313.22,-100.16 118.21,-73.55"/>
<polygon fill="#63b8ff" stroke="#63b8ff" points="118.53,-70.06 108.12,-72.03 117.49,-76.98 118.53,-70.06"/>
</a>
</g>
</g>
<!-- Node8 -->
<g id="Node000008" class="node">
<title>Node8</title>
<g id="a_Node000008"><a xlink:title=" ">
<polygon fill="#e0e0e0" stroke="#999999" points="219.5,-74 126.5,-74 126.5,-55 219.5,-55 219.5,-74"/>
<text text-anchor="middle" x="173" y="-62" font-family="Ubuntu Mono" font-size="10.00">unordered_map</text>
</a>
</g>
</g>
<!-- Node2&#45;&gt;Node8 -->
<g id="edge7_Node000002_Node000008" class="edge">
<title>Node2&#45;&gt;Node8</title>
<g id="a_edge7_Node000002_Node000008"><a xlink:title=" ">
<path fill="none" stroke="#63b8ff" d="M1665.47,-122.96C1428.09,-118.61 535.75,-100.84 229.89,-73.93"/>
<polygon fill="#63b8ff" stroke="#63b8ff" points="229.98,-70.42 219.7,-73.01 229.35,-77.39 229.98,-70.42"/>
</a>
</g>
</g>
<!-- Node9 -->
<g id="Node000009" class="node">
<title>Node9</title>
<g id="a_Node000009"><a xlink:title=" ">
<polygon fill="#e0e0e0" stroke="#999999" points="298,-74 238,-74 238,-55 298,-55 298,-74"/>
<text text-anchor="middle" x="268" y="-62" font-family="Ubuntu Mono" font-size="10.00">iostream</text>
</a>
</g>
</g>
<!-- Node2&#45;&gt;Node9 -->
<g id="edge8_Node000002_Node000009" class="edge">
<title>Node2&#45;&gt;Node9</title>
<g id="a_edge8_Node000002_Node000009"><a xlink:title=" ">
<path fill="none" stroke="#63b8ff" d="M1665.35,-123.33C1435.66,-120.51 596.27,-108.11 308.16,-73.86"/>
<polygon fill="#63b8ff" stroke="#63b8ff" points="308.49,-70.37 298.14,-72.63 307.64,-77.32 308.49,-70.37"/>
</a>
</g>
</g>
<!-- Node10 -->
<g id="Node000010" class="node">
<title>Node10</title>
<g id="a_Node000010"><a xlink:title=" ">
<polygon fill="#e0e0e0" stroke="#999999" points="372,-74 316,-74 316,-55 372,-55 372,-74"/>
<text text-anchor="middle" x="344" y="-62" font-family="Ubuntu Mono" font-size="10.00">sstream</text>
</a>
</g>
</g>
<!-- Node2&#45;&gt;Node10 -->
<g id="edge9_Node000002_Node000010" class="edge">
<title>Node2&#45;&gt;Node10</title>
<g id="a_edge9_Node000002_Node000010"><a xlink:title=" ">
<path fill="none" stroke="#63b8ff" d="M1665.22,-123.07C1440.98,-119.34 639.18,-104.15 386,-74 384.89,-73.87 383.77,-73.72 382.64,-73.57"/>
<polygon fill="#63b8ff" stroke="#63b8ff" points="382.8,-70.05 372.37,-71.89 381.67,-76.95 382.8,-70.05"/>
</a>
</g>
</g>
<!-- Node11 -->
<g id="Node000011" class="node">
<title>Node11</title>
<g id="a_Node000011"><a xlink:title=" ">
<polygon fill="#e0e0e0" stroke="#999999" points="1174.5,-19 1117.5,-19 1117.5,0 1174.5,0 1174.5,-19"/>
<text text-anchor="middle" x="1146" y="-7" font-family="Ubuntu Mono" font-size="10.00">typeinfo</text>
</a>
</g>
</g>
<!-- Node2&#45;&gt;Node11 -->
<g id="edge10_Node000002_Node000011" class="edge">
<title>Node2&#45;&gt;Node11</title>
<g id="a_edge10_Node000002_Node000011"><a xlink:title=" ">
<path fill="none" stroke="#63b8ff" d="M1665.21,-122.85C1413.8,-117.79 440.9,-96.76 419,-74 413.14,-67.92 413.21,-61.15 419,-55 442.75,-29.76 959.13,-15.11 1106.85,-11.43"/>
<polygon fill="#63b8ff" stroke="#63b8ff" points="1107.32,-14.92 1117.23,-11.17 1107.15,-7.92 1107.32,-14.92"/>
</a>
</g>
</g>
<!-- Node12 -->
<g id="Node000012" class="node">
<title>Node12</title>
<g id="a_Node000012"><a xlink:title=" ">
<polygon fill="#e0e0e0" stroke="#999999" points="480,-74 428,-74 428,-55 480,-55 480,-74"/>
<text text-anchor="middle" x="454" y="-62" font-family="Ubuntu Mono" font-size="10.00">cassert</text>
</a>
</g>
</g>
<!-- Node2&#45;&gt;Node12 -->
<g id="edge11_Node000002_Node000012" class="edge">
<title>Node2&#45;&gt;Node12</title>
<g id="a_edge11_Node000002_Node000012"><a xlink:title=" ">
<path fill="none" stroke="#63b8ff" d="M1665.39,-123.16C1455.41,-119.93 740.42,-106.84 490.39,-73.85"/>
<polygon fill="#63b8ff" stroke="#63b8ff" points="490.65,-70.35 480.27,-72.47 489.7,-77.29 490.65,-70.35"/>
</a>
</g>
</g>
<!-- Node13 -->
<g id="Node000013" class="node">
<title>Node13</title>
<g id="a_Node000013"><a xlink:href="doubleEq_8h.html" target="_top" xlink:title=" ">
<polygon fill="white" stroke="#666666" points="569.5,-74 498.5,-74 498.5,-55 569.5,-55 569.5,-74"/>
<text text-anchor="middle" x="534" y="-62" font-family="Ubuntu Mono" font-size="10.00">doubleEq.h</text>
</a>
</g>
</g>
<!-- Node2&#45;&gt;Node13 -->
<g id="edge12_Node000002_Node000013" class="edge">
<title>Node2&#45;&gt;Node13</title>
<g id="a_edge12_Node000002_Node000013"><a xlink:title=" ">
<path fill="none" stroke="#63b8ff" d="M1665.32,-124.48C1497.38,-125.21 1000.45,-122.83 580.18,-74.09"/>
<polygon fill="#63b8ff" stroke="#63b8ff" points="580.29,-70.58 569.95,-72.89 579.48,-77.53 580.29,-70.58"/>
</a>
</g>
</g>
<!-- Node14 -->
<g id="Node000014" class="node">
<title>Node14</title>
<g id="a_Node000014"><a xlink:href="Id_8h.html" target="_top" xlink:title=" ">
<polygon fill="white" stroke="#666666" points="622.5,-74 587.5,-74 587.5,-55 622.5,-55 622.5,-74"/>
<text text-anchor="middle" x="605" y="-62" font-family="Ubuntu Mono" font-size="10.00">Id.h</text>
</a>
</g>
</g>
<!-- Node2&#45;&gt;Node14 -->
<g id="edge13_Node000002_Node000014" class="edge">
<title>Node2&#45;&gt;Node14</title>
<g id="a_edge13_Node000002_Node000014"><a xlink:title=" ">
<path fill="none" stroke="#63b8ff" d="M1665.36,-123.4C1471.57,-121.1 852,-111.11 632.87,-73.8"/>
<polygon fill="#63b8ff" stroke="#63b8ff" points="633.2,-70.3 622.74,-72 631.97,-77.19 633.2,-70.3"/>
</a>
</g>
</g>
<!-- Node15 -->
<g id="Node000015" class="node">
<title>Node15</title>
<g id="a_Node000015"><a xlink:href="ObjId_8h.html" target="_top" xlink:title=" ">
<polygon fill="white" stroke="#666666" points="691.5,-74 640.5,-74 640.5,-55 691.5,-55 691.5,-74"/>
<text text-anchor="middle" x="666" y="-62" font-family="Ubuntu Mono" font-size="10.00">ObjId.h</text>
</a>
</g>
</g>
<!-- Node2&#45;&gt;Node15 -->
<g id="edge14_Node000002_Node000015" class="edge">
<title>Node2&#45;&gt;Node15</title>
<g id="a_edge14_Node000002_Node000015"><a xlink:title=" ">
<path fill="none" stroke="#63b8ff" d="M1665.24,-122.65C1479.82,-118.14 907.71,-102.39 701.63,-73.9"/>
<polygon fill="#63b8ff" stroke="#63b8ff" points="701.91,-70.41 691.51,-72.45 700.91,-77.33 701.91,-70.41"/>
</a>
</g>
</g>
<!-- Node16 -->
<g id="Node000016" class="node">
<title>Node16</title>
<g id="a_Node000016"><a xlink:href="Cinfo_8h.html" target="_top" xlink:title=" ">
<polygon fill="white" stroke="#666666" points="760.5,-74 709.5,-74 709.5,-55 760.5,-55 760.5,-74"/>
<text text-anchor="middle" x="735" y="-62" font-family="Ubuntu Mono" font-size="10.00">Cinfo.h</text>
</a>
</g>
</g>
<!-- Node2&#45;&gt;Node16 -->
<g id="edge15_Node000002_Node000016" class="edge">
<title>Node2&#45;&gt;Node16</title>
<g id="a_edge15_Node000002_Node000016"><a xlink:title=" ">
<path fill="none" stroke="#63b8ff" d="M1665.28,-124.7C1516.76,-125.66 1114.17,-123.25 770.65,-73.75"/>
<polygon fill="#63b8ff" stroke="#63b8ff" points="770.91,-70.25 760.51,-72.27 769.9,-77.18 770.91,-70.25"/>
</a>
</g>
</g>
<!-- Node17 -->
<g id="Node000017" class="node">
<title>Node17</title>
<g id="a_Node000017"><a xlink:href="basecode_2Finfo_8h.html" target="_top" xlink:title=" ">
<polygon fill="white" stroke="#666666" points="829,-74 779,-74 779,-55 829,-55 829,-74"/>
<text text-anchor="middle" x="804" y="-62" font-family="Ubuntu Mono" font-size="10.00">Finfo.h</text>
</a>
</g>
</g>
<!-- Node2&#45;&gt;Node17 -->
<g id="edge16_Node000002_Node000017" class="edge">
<title>Node2&#45;&gt;Node17</title>
<g id="a_edge16_Node000002_Node000017"><a xlink:title=" ">
<path fill="none" stroke="#63b8ff" d="M1665.29,-124.5C1524.22,-124.87 1155.06,-121 839.41,-73.9"/>
<polygon fill="#63b8ff" stroke="#63b8ff" points="839.55,-70.38 829.14,-72.35 838.51,-77.3 839.55,-70.38"/>
</a>
</g>
</g>
<!-- Node18 -->
<g id="Node000018" class="node">
<title>Node18</title>
<g id="a_Node000018"><a xlink:href="DestFinfo_8h.html" target="_top" xlink:title=" ">
<polygon fill="white" stroke="#666666" points="919,-74 847,-74 847,-55 919,-55 919,-74"/>
<text text-anchor="middle" x="883" y="-62" font-family="Ubuntu Mono" font-size="10.00">DestFinfo.h</text>
</a>
</g>
</g>
<!-- Node2&#45;&gt;Node18 -->
<g id="edge17_Node000002_Node000018" class="edge">
<title>Node2&#45;&gt;Node18</title>
<g id="a_edge17_Node000002_Node000018"><a xlink:title=" ">
<path fill="none" stroke="#63b8ff" d="M1665.35,-122.8C1534.78,-119.6 1210.16,-108.66 929.26,-74"/>
<polygon fill="#63b8ff" stroke="#63b8ff" points="929.64,-70.52 919.29,-72.75 928.78,-77.46 929.64,-70.52"/>
</a>
</g>
</g>
<!-- Node19 -->
<g id="Node000019" class="node">
<title>Node19</title>
<g id="a_Node000019"><a xlink:href="ProcInfo_8h.html" target="_top" xlink:title=" ">
<polygon fill="white" stroke="#666666" points="1002.5,-74 937.5,-74 937.5,-55 1002.5,-55 1002.5,-74"/>
<text text-anchor="middle" x="970" y="-62" font-family="Ubuntu Mono" font-size="10.00">ProcInfo.h</text>
</a>
</g>
</g>
<!-- Node2&#45;&gt;Node19 -->
<g id="edge18_Node000002_Node000019" class="edge">
<title>Node2&#45;&gt;Node19</title>
<g id="a_edge18_Node000002_Node000019"><a xlink:title=" ">
<path fill="none" stroke="#63b8ff" d="M1665.5,-122.56C1545.03,-119.01 1260.46,-107.67 1012.88,-74.08"/>
<polygon fill="#63b8ff" stroke="#63b8ff" points="1012.99,-70.56 1002.61,-72.67 1012.04,-77.5 1012.99,-70.56"/>
</a>
</g>
</g>
<!-- Node20 -->
<g id="Node000020" class="node">
<title>Node20</title>
<g id="a_Node000020"><a xlink:href="MsgFuncBinding_8h.html" target="_top" xlink:title=" ">
<polygon fill="white" stroke="#666666" points="1125.5,-74 1020.5,-74 1020.5,-55 1125.5,-55 1125.5,-74"/>
<text text-anchor="middle" x="1073" y="-62" font-family="Ubuntu Mono" font-size="10.00">MsgFuncBinding.h</text>
</a>
</g>
</g>
<!-- Node2&#45;&gt;Node20 -->
<g id="edge19_Node000002_Node000020" class="edge">
<title>Node2&#45;&gt;Node20</title>
<g id="a_edge19_Node000002_Node000020"><a xlink:title=" ">
<path fill="none" stroke="#63b8ff" d="M1665.28,-120.08C1560.84,-112.87 1335.74,-96.29 1135.66,-74.13"/>
<polygon fill="#63b8ff" stroke="#63b8ff" points="1135.88,-70.64 1125.55,-73.01 1135.1,-77.59 1135.88,-70.64"/>
</a>
</g>
</g>
<!-- Node21 -->
<g id="Node000021" class="node">
<title>Node21</title>
<g id="a_Node000021"><a xlink:href="Msg_8h.html" target="_top" xlink:title=" ">
<polygon fill="white" stroke="#666666" points="1222.5,-74 1143.5,-74 1143.5,-55 1222.5,-55 1222.5,-74"/>
<text text-anchor="middle" x="1183" y="-62" font-family="Ubuntu Mono" font-size="10.00">../msg/Msg.h</text>
</a>
</g>
</g>
<!-- Node2&#45;&gt;Node21 -->
<g id="edge20_Node000002_Node000021" class="edge">
<title>Node2&#45;&gt;Node21</title>
<g id="a_edge20_Node000002_Node000021"><a xlink:title=" ">
<path fill="none" stroke="#63b8ff" d="M1665.4,-119.47C1574.76,-112.16 1394.93,-96.41 1232.68,-74.14"/>
<polygon fill="#63b8ff" stroke="#63b8ff" points="1232.9,-70.64 1222.52,-72.74 1231.94,-77.57 1232.9,-70.64"/>
</a>
</g>
</g>
<!-- Node2&#45;&gt;Node22 -->
<g id="edge21_Node000002_Node000022" class="edge">
<title>Node2&#45;&gt;Node22</title>
<g id="a_edge21_Node000002_Node000022"><a xlink:title=" ">
<path fill="none" stroke="#63b8ff" d="M1665.22,-122.96C1393.5,-118.05 264.13,-96.56 62.44,-73.76"/>
<polygon fill="#63b8ff" stroke="#63b8ff" points="62.62,-70.25 52.26,-72.5 61.76,-77.2 62.62,-70.25"/>
</a>
</g>
</g>
<!-- Node23 -->
<g id="Node000023" class="node">
<title>Node23</title>
<g id="a_Node000023"><a xlink:href="MsgDigest_8h.html" target="_top" xlink:title=" ">
<polygon fill="white" stroke="#666666" points="1317.5,-74 1240.5,-74 1240.5,-55 1317.5,-55 1317.5,-74"/>
<text text-anchor="middle" x="1279" y="-62" font-family="Ubuntu Mono" font-size="10.00">MsgDigest.h</text>
</a>
</g>
</g>
<!-- Node2&#45;&gt;Node23 -->
<g id="edge22_Node000002_Node000023" class="edge">
<title>Node2&#45;&gt;Node23</title>
<g id="a_edge22_Node000002_Node000023"><a xlink:title=" ">
<path fill="none" stroke="#63b8ff" d="M1665.35,-117.54C1589.82,-109.02 1454.24,-93.02 1327.98,-74.08"/>
<polygon fill="#63b8ff" stroke="#63b8ff" points="1328.16,-70.56 1317.75,-72.53 1327.11,-77.49 1328.16,-70.56"/>
</a>
</g>
</g>
<!-- Node24 -->
<g id="Node000024" class="node">
<title>Node24</title>
<g id="a_Node000024"><a xlink:href="Element_8h.html" target="_top" xlink:title=" ">
<polygon fill="white" stroke="#666666" points="1402,-74 1336,-74 1336,-55 1402,-55 1402,-74"/>
<text text-anchor="middle" x="1369" y="-62" font-family="Ubuntu Mono" font-size="10.00">Element.h</text>
</a>
</g>
</g>
<!-- Node2&#45;&gt;Node24 -->
<g id="edge23_Node000002_Node000024" class="edge">
<title>Node2&#45;&gt;Node24</title>
<g id="a_edge23_Node000002_Node000024"><a xlink:title=" ">
<path fill="none" stroke="#63b8ff" d="M1666.19,-115.5C1605.43,-106.39 1506.83,-91.16 1412.45,-74.2"/>
<polygon fill="#63b8ff" stroke="#63b8ff" points="1412.91,-70.73 1402.45,-72.4 1411.67,-77.62 1412.91,-70.73"/>
</a>
</g>
</g>
<!-- Node25 -->
<g id="Node000025" class="node">
<title>Node25</title>
<g id="a_Node000025"><a xlink:href="DataElement_8h.html" target="_top" xlink:title=" ">
<polygon fill="white" stroke="#666666" points="1509.5,-74 1420.5,-74 1420.5,-55 1509.5,-55 1509.5,-74"/>
<text text-anchor="middle" x="1465" y="-62" font-family="Ubuntu Mono" font-size="10.00">DataElement.h</text>
</a>
</g>
</g>
<!-- Node2&#45;&gt;Node25 -->
<g id="edge24_Node000002_Node000025" class="edge">
<title>Node2&#45;&gt;Node25</title>
<g id="a_edge24_Node000002_Node000025"><a xlink:title=" ">
<path fill="none" stroke="#63b8ff" d="M1686.34,-115.49C1640.4,-105.12 1562.69,-87.57 1512.64,-76.26"/>
<polygon fill="#63b8ff" stroke="#63b8ff" points="1513.23,-72.81 1502.71,-74.02 1511.69,-79.63 1513.23,-72.81"/>
</a>
</g>
</g>
<!-- Node26 -->
<g id="Node000026" class="node">
<title>Node26</title>
<g id="a_Node000026"><a xlink:href="GlobalDataElement_8h.html" target="_top" xlink:title=" ">
<polygon fill="white" stroke="#666666" points="1648.5,-74 1527.5,-74 1527.5,-55 1648.5,-55 1648.5,-74"/>
<text text-anchor="middle" x="1588" y="-62" font-family="Ubuntu Mono" font-size="10.00">GlobalDataElement.h</text>
</a>
</g>
</g>
<!-- Node2&#45;&gt;Node26 -->
<g id="edge25_Node000002_Node000026" class="edge">
<title>Node2&#45;&gt;Node26</title>
<g id="a_edge25_Node000002_Node000026"><a xlink:title=" ">
<path fill="none" stroke="#63b8ff" d="M1704.22,-115.49C1681.36,-105.66 1643.51,-89.38 1617.24,-78.08"/>
<polygon fill="#63b8ff" stroke="#63b8ff" points="1618.37,-74.75 1607.8,-74.02 1615.6,-81.18 1618.37,-74.75"/>
</a>
</g>
</g>
<!-- Node27 -->
<g id="Node000027" class="node">
<title>Node27</title>
<g id="a_Node000027"><a xlink:href="LocalDataElement_8h.html" target="_top" xlink:title=" ">
<polygon fill="white" stroke="#666666" points="1781.5,-74 1666.5,-74 1666.5,-55 1781.5,-55 1781.5,-74"/>
<text text-anchor="middle" x="1724" y="-62" font-family="Ubuntu Mono" font-size="10.00">LocalDataElement.h</text>
</a>
</g>
</g>
<!-- Node2&#45;&gt;Node27 -->
<g id="edge26_Node000002_Node000027" class="edge">
<title>Node2&#45;&gt;Node27</title>
<g id="a_edge26_Node000002_Node000027"><a xlink:title=" ">
<path fill="none" stroke="#63b8ff" d="M1724,-115.37C1724,-107.25 1724,-94.81 1724,-84.39"/>
<polygon fill="#63b8ff" stroke="#63b8ff" points="1727.5,-84.17 1724,-74.17 1720.5,-84.17 1727.5,-84.17"/>
</a>
</g>
</g>
<!-- Node28 -->
<g id="Node000028" class="node">
<title>Node28</title>
<g id="a_Node000028"><a xlink:href="Eref_8h.html" target="_top" xlink:title=" ">
<polygon fill="white" stroke="#666666" points="1844,-74 1800,-74 1800,-55 1844,-55 1844,-74"/>
<text text-anchor="middle" x="1822" y="-62" font-family="Ubuntu Mono" font-size="10.00">Eref.h</text>
</a>
</g>
</g>
<!-- Node2&#45;&gt;Node28 -->
<g id="edge27_Node000002_Node000028" class="edge">
<title>Node2&#45;&gt;Node28</title>
<g id="a_edge27_Node000002_Node000028"><a xlink:title=" ">
<path fill="none" stroke="#63b8ff" d="M1738.46,-115.37C1754.31,-105.91 1779.97,-90.59 1798.68,-79.42"/>
<polygon fill="#63b8ff" stroke="#63b8ff" points="1800.69,-82.3 1807.48,-74.17 1797.1,-76.29 1800.69,-82.3"/>
</a>
</g>
</g>
<!-- Node29 -->
<g id="Node000029" class="node">
<title>Node29</title>
<g id="a_Node000029"><a xlink:href="Conv_8h.html" target="_top" xlink:title=" ">
<polygon fill="white" stroke="#666666" points="1990,-74 1940,-74 1940,-55 1990,-55 1990,-74"/>
<text text-anchor="middle" x="1965" y="-62" font-family="Ubuntu Mono" font-size="10.00">Conv.h</text>
</a>
</g>
</g>
<!-- Node2&#45;&gt;Node29 -->
<g id="edge28_Node000002_Node000029" class="edge">
<title>Node2&#45;&gt;Node29</title>
<g id="a_edge28_Node000002_Node000029"><a xlink:title=" ">
<path fill="none" stroke="#63b8ff" d="M1759.04,-115.49C1804.8,-104.39 1884.43,-85.06 1930.11,-73.97"/>
<polygon fill="#63b8ff" stroke="#63b8ff" points="1930.97,-77.36 1939.86,-71.6 1929.32,-70.56 1930.97,-77.36"/>
</a>
</g>
</g>
<!-- Node31 -->
<g id="Node000031" class="node">
<title>Node31</title>
<g id="a_Node000031"><a xlink:href="SrcFinfo_8h.html" target="_top" xlink:title=" ">
<polygon fill="white" stroke="#666666" points="2161.5,-19 2096.5,-19 2096.5,0 2161.5,0 2161.5,-19"/>
<text text-anchor="middle" x="2129" y="-7" font-family="Ubuntu Mono" font-size="10.00">SrcFinfo.h</text>
</a>
</g>
</g>
<!-- Node2&#45;&gt;Node31 -->
<g id="edge30_Node000002_Node000031" class="edge">
<title>Node2&#45;&gt;Node31</title>
<g id="a_edge30_Node000002_Node000031"><a xlink:title=" ">
<path fill="none" stroke="#63b8ff" d="M1782.91,-121.98C1901.98,-117.29 2162.31,-103.71 2189,-74 2204.77,-56.45 2179.21,-36.78 2156.74,-24.05"/>
<polygon fill="#63b8ff" stroke="#63b8ff" points="2158.2,-20.86 2147.74,-19.2 2154.89,-27.02 2158.2,-20.86"/>
</a>
</g>
</g>
<!-- Node32 -->
<g id="Node000032" class="node">
<title>Node32</title>
<g id="a_Node000032"><a xlink:href="OpFuncBase_8h.html" target="_top" xlink:title=" ">
<polygon fill="white" stroke="#666666" points="2094,-74 2008,-74 2008,-55 2094,-55 2094,-74"/>
<text text-anchor="middle" x="2051" y="-62" font-family="Ubuntu Mono" font-size="10.00">OpFuncBase.h</text>
</a>
</g>
</g>
<!-- Node2&#45;&gt;Node32 -->
<g id="edge31_Node000002_Node000032" class="edge">
<title>Node2&#45;&gt;Node32</title>
<g id="a_edge31_Node000002_Node000032"><a xlink:title=" ">
<path fill="none" stroke="#63b8ff" d="M1771.55,-115.49C1831.7,-104.73 1935,-86.25 1997.74,-75.03"/>
<polygon fill="#63b8ff" stroke="#63b8ff" points="1998.6,-78.43 2007.83,-73.22 1997.37,-71.54 1998.6,-78.43"/>
</a>
</g>
</g>
<!-- Node33 -->
<g id="Node000033" class="node">
<title>Node33</title>
<g id="a_Node000033"><a xlink:href="HopFunc_8h.html" target="_top" xlink:title=" ">
<polygon fill="white" stroke="#666666" points="2180,-74 2112,-74 2112,-55 2180,-55 2180,-74"/>
<text text-anchor="middle" x="2146" y="-62" font-family="Ubuntu Mono" font-size="10.00">HopFunc.h</text>
</a>
</g>
</g>
<!-- Node2&#45;&gt;Node33 -->
<g id="edge33_Node000002_Node000033" class="edge">
<title>Node2&#45;&gt;Node33</title>
<g id="a_edge33_Node000002_Node000033"><a xlink:title=" ">
<path fill="none" stroke="#63b8ff" d="M1782.61,-117.45C1855.18,-109.07 1982.81,-93.48 2101.76,-74.11"/>
<polygon fill="#63b8ff" stroke="#63b8ff" points="2102.47,-77.54 2111.77,-72.47 2101.33,-70.64 2102.47,-77.54"/>
</a>
</g>
</g>
<!-- Node34 -->
<g id="Node000034" class="node">
<title>Node34</title>
<g id="a_Node000034"><a xlink:href="SetGet_8h.html" target="_top" xlink:title=" ">
<polygon fill="white" stroke="#666666" points="1921.5,-74 1862.5,-74 1862.5,-55 1921.5,-55 1921.5,-74"/>
<text text-anchor="middle" x="1892" y="-62" font-family="Ubuntu Mono" font-size="10.00">SetGet.h</text>
</a>
</g>
</g>
<!-- Node2&#45;&gt;Node34 -->
<g id="edge34_Node000002_Node000034" class="edge">
<title>Node2&#45;&gt;Node34</title>
<g id="a_edge34_Node000002_Node000034"><a xlink:title=" ">
<path fill="none" stroke="#63b8ff" d="M1748.43,-115.49C1777.29,-105.44 1825.5,-88.66 1858,-77.34"/>
<polygon fill="#63b8ff" stroke="#63b8ff" points="1859.25,-80.61 1867.54,-74.02 1856.95,-74 1859.25,-80.61"/>
</a>
</g>
</g>
<!-- Node35 -->
<g id="Node000035" class="node">
<title>Node35</title>
<g id="a_Node000035"><a xlink:href="OpFunc_8h.html" target="_top" xlink:title=" ">
<polygon fill="white" stroke="#666666" points="2298,-74 2236,-74 2236,-55 2298,-55 2298,-74"/>
<text text-anchor="middle" x="2267" y="-62" font-family="Ubuntu Mono" font-size="10.00">OpFunc.h</text>
</a>
</g>
</g>
<!-- Node2&#45;&gt;Node35 -->
<g id="edge36_Node000002_Node000035" class="edge">
<title>Node2&#45;&gt;Node35</title>
<g id="a_edge36_Node000002_Node000035"><a xlink:title=" ">
<path fill="none" stroke="#63b8ff" d="M1782.85,-119.75C1876.23,-112.64 2063.97,-96.81 2222,-74 2223.1,-73.84 2224.22,-73.67 2225.34,-73.5"/>
<polygon fill="#63b8ff" stroke="#63b8ff" points="2226.3,-76.89 2235.59,-71.79 2225.15,-69.98 2226.3,-76.89"/>
</a>
</g>
</g>
<!-- Node36 -->
<g id="Node000036" class="node">
<title>Node36</title>
<g id="a_Node000036"><a xlink:href="EpFunc_8h.html" target="_top" xlink:title=" ">
<polygon fill="white" stroke="#666666" points="2376,-74 2316,-74 2316,-55 2376,-55 2376,-74"/>
<text text-anchor="middle" x="2346" y="-62" font-family="Ubuntu Mono" font-size="10.00">EpFunc.h</text>
</a>
</g>
</g>
<!-- Node2&#45;&gt;Node36 -->
<g id="edge37_Node000002_Node000036" class="edge">
<title>Node2&#45;&gt;Node36</title>
<g id="a_edge37_Node000002_Node000036"><a xlink:title=" ">
<path fill="none" stroke="#63b8ff" d="M1782.63,-121.48C1886.31,-116.47 2108.86,-103.27 2305.88,-73.97"/>
<polygon fill="#63b8ff" stroke="#63b8ff" points="2306.47,-77.42 2315.84,-72.48 2305.43,-70.5 2306.47,-77.42"/>
</a>
</g>
</g>
<!-- Node37 -->
<g id="Node000037" class="node">
<title>Node37</title>
<g id="a_Node000037"><a xlink:href="ProcOpFunc_8h.html" target="_top" xlink:title=" ">
<polygon fill="white" stroke="#666666" points="2477.5,-74 2394.5,-74 2394.5,-55 2477.5,-55 2477.5,-74"/>
<text text-anchor="middle" x="2436" y="-62" font-family="Ubuntu Mono" font-size="10.00">ProcOpFunc.h</text>
</a>
</g>
</g>
<!-- Node2&#45;&gt;Node37 -->
<g id="edge38_Node000002_Node000037" class="edge">
<title>Node2&#45;&gt;Node37</title>
<g id="a_edge38_Node000002_Node000037"><a xlink:title=" ">
<path fill="none" stroke="#63b8ff" d="M1782.53,-121.34C1896.35,-115.78 2155.61,-101.23 2384.12,-73.99"/>
<polygon fill="#63b8ff" stroke="#63b8ff" points="2384.79,-77.43 2394.3,-72.76 2383.95,-70.48 2384.79,-77.43"/>
</a>
</g>
</g>
<!-- Node38 -->
<g id="Node000038" class="node">
<title>Node38</title>
<g id="a_Node000038"><a xlink:href="ValueFinfo_8h.html" target="_top" xlink:title=" ">
<polygon fill="white" stroke="#666666" points="2572.5,-74 2495.5,-74 2495.5,-55 2572.5,-55 2572.5,-74"/>
<text text-anchor="middle" x="2534" y="-62" font-family="Ubuntu Mono" font-size="10.00">ValueFinfo.h</text>
</a>
</g>
</g>
<!-- Node2&#45;&gt;Node38 -->
<g id="edge39_Node000002_Node000038" class="edge">
<title>Node2&#45;&gt;Node38</title>
<g id="a_edge39_Node000002_Node000038"><a xlink:title=" ">
<path fill="none" stroke="#63b8ff" d="M1782.52,-122.35C1908.88,-118.31 2216.79,-105.93 2484.96,-73.97"/>
<polygon fill="#63b8ff" stroke="#63b8ff" points="2485.77,-77.4 2495.28,-72.73 2484.94,-70.45 2485.77,-77.4"/>
</a>
</g>
</g>
<!-- Node39 -->
<g id="Node000039" class="node">
<title>Node39</title>
<g id="a_Node000039"><a xlink:href="LookupValueFinfo_8h.html" target="_top" xlink:title=" ">
<polygon fill="white" stroke="#666666" points="2701.5,-74 2590.5,-74 2590.5,-55 2701.5,-55 2701.5,-74"/>
<text text-anchor="middle" x="2646" y="-62" font-family="Ubuntu Mono" font-size="10.00">LookupValueFinfo.h</text>
</a>
</g>
</g>
<!-- Node2&#45;&gt;Node39 -->
<g id="edge40_Node000002_Node000039" class="edge">
<title>Node2&#45;&gt;Node39</title>
<g id="a_edge40_Node000002_Node000039"><a xlink:title=" ">
<path fill="none" stroke="#63b8ff" d="M1782.56,-122.03C1919.92,-117.11 2273.75,-102.6 2580.39,-73.98"/>
<polygon fill="#63b8ff" stroke="#63b8ff" points="2580.73,-77.46 2590.36,-73.04 2580.08,-70.49 2580.73,-77.46"/>
</a>
</g>
</g>
<!-- Node40 -->
<g id="Node000040" class="node">
<title>Node40</title>
<g id="a_Node000040"><a xlink:href="SharedFinfo_8h.html" target="_top" xlink:title=" ">
<polygon fill="white" stroke="#666666" points="2802.5,-74 2719.5,-74 2719.5,-55 2802.5,-55 2802.5,-74"/>
<text text-anchor="middle" x="2761" y="-62" font-family="Ubuntu Mono" font-size="10.00">SharedFinfo.h</text>
</a>
</g>
</g>
<!-- Node2&#45;&gt;Node40 -->
<g id="edge41_Node000002_Node000040" class="edge">
<title>Node2&#45;&gt;Node40</title>
<g id="a_edge41_Node000002_Node000040"><a xlink:title=" ">
<path fill="none" stroke="#63b8ff" d="M1782.53,-123.37C1934.03,-121.23 2351.55,-112.15 2709.27,-73.93"/>
<polygon fill="#63b8ff" stroke="#63b8ff" points="2709.74,-77.4 2719.31,-72.85 2708.99,-70.44 2709.74,-77.4"/>
</a>
</g>
</g>
<!-- Node41 -->
<g id="Node000041" class="node">
<title>Node41</title>
<g id="a_Node000041"><a xlink:href="FieldElementFinfo_8h.html" target="_top" xlink:title=" ">
<polygon fill="white" stroke="#666666" points="2933.5,-74 2820.5,-74 2820.5,-55 2933.5,-55 2933.5,-74"/>
<text text-anchor="middle" x="2877" y="-62" font-family="Ubuntu Mono" font-size="10.00">FieldElementFinfo.h</text>
</a>
</g>
</g>
<!-- Node2&#45;&gt;Node41 -->
<g id="edge42_Node000002_Node000041" class="edge">
<title>Node2&#45;&gt;Node41</title>
<g id="a_edge42_Node000002_Node000041"><a xlink:title=" ">
<path fill="none" stroke="#63b8ff" d="M1782.73,-122.99C1944.69,-119.86 2411.47,-108.37 2810.15,-73.99"/>
<polygon fill="#63b8ff" stroke="#63b8ff" points="2810.49,-77.47 2820.15,-73.12 2809.89,-70.5 2810.49,-77.47"/>
</a>
</g>
</g>
<!-- Node42 -->
<g id="Node000042" class="node">
<title>Node42</title>
<g id="a_Node000042"><a xlink:href="FieldElement_8h.html" target="_top" xlink:title=" ">
<polygon fill="white" stroke="#666666" points="3040.5,-74 2951.5,-74 2951.5,-55 3040.5,-55 3040.5,-74"/>
<text text-anchor="middle" x="2996" y="-62" font-family="Ubuntu Mono" font-size="10.00">FieldElement.h</text>
</a>
</g>
</g>
<!-- Node2&#45;&gt;Node42 -->
<g id="edge43_Node000002_Node000042" class="edge">
<title>Node2&#45;&gt;Node42</title>
<g id="a_edge43_Node000002_Node000042"><a xlink:title=" ">
<path fill="none" stroke="#63b8ff" d="M1782.79,-123.98C1957.69,-123.42 2490,-118 2941.29,-73.93"/>
<polygon fill="#63b8ff" stroke="#63b8ff" points="2941.65,-77.41 2951.26,-72.95 2940.97,-70.44 2941.65,-77.41"/>
</a>
</g>
</g>
<!-- Node43 -->
<g id="Node000043" class="node">
<title>Node43</title>
<g id="a_Node000043"><a xlink:href="Neutral_8h.html" target="_top" xlink:title=" ">
<polygon fill="white" stroke="#666666" points="3155.5,-74 3058.5,-74 3058.5,-55 3155.5,-55 3155.5,-74"/>
<text text-anchor="middle" x="3107" y="-62" font-family="Ubuntu Mono" font-size="10.00">../shell/Neutral.h</text>
</a>
</g>
</g>
<!-- Node2&#45;&gt;Node43 -->
<g id="edge44_Node000002_Node000043" class="edge">
<title>Node2&#45;&gt;Node43</title>
<g id="a_edge44_Node000002_Node000043"><a xlink:title=" ">
<path fill="none" stroke="#63b8ff" d="M1782.59,-124.04C1967.13,-123.68 2552.94,-118.9 3048.1,-73.96"/>
<polygon fill="#63b8ff" stroke="#63b8ff" points="3048.67,-77.42 3058.31,-73.02 3048.03,-70.45 3048.67,-77.42"/>
</a>
</g>
</g>
<!-- Node30 -->
<g id="Node000030" class="node">
<title>Node30</title>
<g id="a_Node000030"><a xlink:title=" ">
<polygon fill="#e0e0e0" stroke="#999999" points="1990,-19 1940,-19 1940,0 1990,0 1990,-19"/>
<text text-anchor="middle" x="1965" y="-7" font-family="Ubuntu Mono" font-size="10.00">cstring</text>
</a>
</g>
</g>
<!-- Node29&#45;&gt;Node30 -->
<g id="edge29_Node000029_Node000030" class="edge">
<title>Node29&#45;&gt;Node30</title>
<g id="a_edge29_Node000029_Node000030"><a xlink:title=" ">
<path fill="none" stroke="#63b8ff" d="M1965,-54.75C1965,-47.8 1965,-37.85 1965,-29.13"/>
<polygon fill="#63b8ff" stroke="#63b8ff" points="1968.5,-29.09 1965,-19.09 1961.5,-29.09 1968.5,-29.09"/>
</a>
</g>
</g>
<!-- Node32&#45;&gt;Node31 -->
<g id="edge32_Node000032_Node000031" class="edge">
<title>Node32&#45;&gt;Node31</title>
<g id="a_edge32_Node000032_Node000031"><a xlink:title=" ">
<path fill="none" stroke="#63b8ff" d="M2063.53,-54.98C2075.4,-46.92 2093.46,-34.65 2107.61,-25.03"/>
<polygon fill="#63b8ff" stroke="#63b8ff" points="2109.94,-27.69 2116.24,-19.17 2106,-21.9 2109.94,-27.69"/>
</a>
</g>
</g>
<!-- Node34&#45;&gt;Node11 -->
<g id="edge35_Node000034_Node000011" class="edge">
<title>Node34&#45;&gt;Node11</title>
<g id="a_edge35_Node000034_Node000011"><a xlink:title=" ">
<path fill="none" stroke="#63b8ff" d="M1862.27,-56.53C1859.15,-55.95 1856.02,-55.42 1853,-55 1599.85,-19.66 1291.77,-12.37 1184.79,-10.88"/>
<polygon fill="#63b8ff" stroke="#63b8ff" points="1184.82,-7.38 1174.78,-10.75 1184.73,-14.38 1184.82,-7.38"/>
</a>
</g>
</g>
<!-- Node45 -->
<g id="Node000045" class="node">
<title>Node45</title>
<g id="a_Node000045"><a xlink:title=" ">
<polygon fill="#e0e0e0" stroke="#999999" points="3502.5,-74 3453.5,-74 3453.5,-55 3502.5,-55 3502.5,-74"/>
<text text-anchor="middle" x="3478" y="-62" font-family="Ubuntu Mono" font-size="10.00">cctype</text>
</a>
</g>
</g>
<!-- Node44&#45;&gt;Node45 -->
<g id="edge47_Node000044_Node000045" class="edge">
<title>Node44&#45;&gt;Node45</title>
<g id="a_edge47_Node000044_Node000045"><a xlink:title=" ">
<path fill="none" stroke="#63b8ff" d="M3206.81,-114.14C3267.3,-105.43 3356.32,-91.67 3443.15,-74.02"/>
<polygon fill="#63b8ff" stroke="#63b8ff" points="3444.08,-77.4 3453.17,-71.96 3442.67,-70.55 3444.08,-77.4"/>
</a>
</g>
</g>
<!-- Node47&#45;&gt;Node6 -->
<g id="edge50_Node000047_Node000006" class="edge">
<title>Node47&#45;&gt;Node6</title>
<g id="a_edge50_Node000047_Node000006"><a xlink:title=" ">
<path fill="none" stroke="#63b8ff" d="M2527.62,-115.39C2532.78,-113.24 2538.51,-111.21 2544,-110 2904.78,-30.55 3011.77,-129.83 3380.63,-73.81"/>
<polygon fill="#63b8ff" stroke="#63b8ff" points="3381.43,-77.22 3390.78,-72.24 3380.36,-70.31 3381.43,-77.22"/>
</a>
</g>
</g>
</g>
</svg>

<g id="navigator" transform="translate(0 0)" fill="#404254">
  <rect fill="#f2f5e9" fill-opacity="0.5" stroke="#606060" stroke-width=".5" x="0" y="0" width="60" height="60"/>
  <use id="zoomplus" xlink:href="#zoomPlus" x="17" y="9" onmousedown="handleZoom(evt,'in')"/>
  <use id="zoomminus" xlink:href="#zoomMin" x="42" y="9" onmousedown="handleZoom(evt,'out')"/>
  <use id="reset" xlink:href="#resetDef" x="30" y="36" onmousedown="handleReset()"/>
   <use id="arrowup" xlink:href="#arrowUp" x="0" y="0" onmousedown="handlePan(0,-1)"/>
  <use id="arrowright" xlink:href="#arrowRight" x="0" y="0" onmousedown="handlePan(1,0)"/>
  <use id="arrowdown" xlink:href="#arrowDown" x="0" y="0" onmousedown="handlePan(0,1)"/>
  <use id="arrowleft" xlink:href="#arrowLeft" x="0" y="0" onmousedown="handlePan(-1,0)"/>
</g>
<svg viewBox="0 0 15 15" width="100%" height="30px" preserveAspectRatio="xMaxYMin meet">
 <g id="arrow_out" transform="scale(0.3 0.3)">
  <a xlink:href="Neutral_8cpp__incl_org.svg" target="_base">
   <rect id="button" ry="5" rx="5" y="6" x="6" height="38" width="38"
        fill="#f2f5e9" fill-opacity="0.5" stroke="#606060" stroke-width="1.0"/>
   <path id="arrow"
     d="M 11.500037,31.436501 C 11.940474,20.09759 22.043105,11.32322 32.158766,21.979434 L 37.068811,17.246167 C 37.068811,17.246167 37.088388,32 37.088388,32 L 22.160133,31.978069 C 22.160133,31.978069 26.997745,27.140456 26.997745,27.140456 C 18.528582,18.264221 13.291696,25.230495 11.500037,31.436501 z"
     style="fill:#404040;"/>
  </a>
 </g>
</svg>

<style type='text/css'>
<![CDATA[
[data-mouse-over-selected='false'] { opacity: 0.7; }
[data-mouse-over-selected='true']  { opacity: 1.0; }
]]>
</style>
<script type="application/ecmascript"><![CDATA[
document.addEventListener('DOMContentLoaded', (event) => {
  highlightEdges();
  highlightAdjacentNodes();
});
]]></script>
</svg>
