<?xml version="1.0" encoding="UTF-8" standalone="no"?>
<!DOCTYPE svg PUBLIC "-//W3C//DTD SVG 1.1//EN"
 "http://www.w3.org/Graphics/SVG/1.1/DTD/svg11.dtd">
<!-- Generated by graphviz version 2.43.0 (0)
 -->
<!-- Title: ICaOut Pages: 1 -->
<svg width="216pt" height="101pt"
 viewBox="0.00 0.00 216.00 101.00" xmlns="http://www.w3.org/2000/svg" xmlns:xlink="http://www.w3.org/1999/xlink">

<svg id="main" version="1.1" xmlns="http://www.w3.org/2000/svg" xmlns:xlink="http://www.w3.org/1999/xlink" xml:space="preserve" onload="init(evt)">
<style type="text/css"><![CDATA[
.node, .edge {opacity: 0.7;}
.node.selected, .edge.selected {opacity: 1;}
.edge:hover path { stroke: red; }
.edge:hover polygon { stroke: red; fill: red; }
]]></style>
<script type="application/ecmascript" xlink:href="svg.min.js"/>
<svg id="graph" class="graph">
<g id="graph0" class="graph" transform="scale(1 1) rotate(0) translate(4 97)">
<title>ICaOut</title>
<!-- Node1 -->
<g id="Node000001" class="node">
<title>Node1</title>
<g id="a_Node000001"><a xlink:title=" ">
<polygon fill="#999999" stroke="#666666" points="208,-56 158,-56 158,-37 208,-37 208,-56"/>
<text text-anchor="middle" x="183" y="-44" font-family="Ubuntu Mono" font-size="10.00">ICaOut</text>
</a>
</g>
</g>
<!-- Node2 -->
<g id="Node000002" class="node">
<title>Node2</title>
<g id="a_Node000002"><a xlink:href="classNMDAChan.html#ad62ade9d8d46e00e9c4e74e647d4ce3f" target="_top" xlink:title=" ">
<polygon fill="white" stroke="#666666" points="120.5,-93 1.5,-93 1.5,-74 120.5,-74 120.5,-93"/>
<text text-anchor="middle" x="61" y="-81" font-family="Ubuntu Mono" font-size="10.00">NMDAChan::initCinfo</text>
</a>
</g>
</g>
<!-- Node1&#45;&gt;Node2 -->
<g id="edge1_Node000001_Node000002" class="edge">
<title>Node1&#45;&gt;Node2</title>
<g id="a_edge1_Node000001_Node000002"><a xlink:title=" ">
<path fill="none" stroke="#63b8ff" d="M148.14,-57.32C139.62,-60.02 130.48,-62.89 122,-65.5 112.96,-68.29 103.13,-71.26 94.1,-73.97"/>
<polygon fill="#63b8ff" stroke="#63b8ff" points="149.32,-60.62 157.8,-54.26 147.21,-53.95 149.32,-60.62"/>
</a>
</g>
</g>
<!-- Node3 -->
<g id="Node000003" class="node">
<title>Node3</title>
<g id="a_Node000003"><a xlink:href="classNMDAChan.html#aadca066254470dd63ca3ed4d8c1097c0" target="_top" xlink:title=" ">
<polygon fill="white" stroke="#666666" points="122,-56 0,-56 0,-37 122,-37 122,-56"/>
<text text-anchor="middle" x="61" y="-44" font-family="Ubuntu Mono" font-size="10.00">NMDAChan::vProcess</text>
</a>
</g>
</g>
<!-- Node1&#45;&gt;Node3 -->
<g id="edge2_Node000001_Node000003" class="edge">
<title>Node1&#45;&gt;Node3</title>
<g id="a_edge2_Node000001_Node000003"><a xlink:title=" ">
<path fill="none" stroke="#63b8ff" d="M147.51,-46.5C139.65,-46.5 131.07,-46.5 122.48,-46.5"/>
<polygon fill="#63b8ff" stroke="#63b8ff" points="147.72,-50 157.72,-46.5 147.72,-43 147.72,-50"/>
</a>
</g>
</g>
<!-- Node4 -->
<g id="Node000004" class="node">
<title>Node4</title>
<g id="a_Node000004"><a xlink:href="classNMDAChan.html#a09ab79110384cbabe964d065b0caf9d4" target="_top" xlink:title=" ">
<polygon fill="white" stroke="#666666" points="117.5,-19 4.5,-19 4.5,0 117.5,0 117.5,-19"/>
<text text-anchor="middle" x="61" y="-7" font-family="Ubuntu Mono" font-size="10.00">NMDAChan::vReinit</text>
</a>
</g>
</g>
<!-- Node1&#45;&gt;Node4 -->
<g id="edge3_Node000001_Node000004" class="edge">
<title>Node1&#45;&gt;Node4</title>
<g id="a_edge3_Node000001_Node000004"><a xlink:title=" ">
<path fill="none" stroke="#63b8ff" d="M148.02,-36.02C130.76,-30.7 109.93,-24.28 93.1,-19.09"/>
<polygon fill="#63b8ff" stroke="#63b8ff" points="147.13,-39.41 157.72,-39.01 149.19,-32.72 147.13,-39.41"/>
</a>
</g>
</g>
</g>
</svg>
</svg>

<style type='text/css'>
<![CDATA[
[data-mouse-over-selected='false'] { opacity: 0.7; }
[data-mouse-over-selected='true']  { opacity: 1.0; }
]]>
</style>
<script type="application/ecmascript"><![CDATA[
document.addEventListener('DOMContentLoaded', (event) => {
  highlightEdges();
  highlightAdjacentNodes();
});
]]></script>
</svg>
