<?xml version="1.0" encoding="UTF-8" standalone="no"?>
<!DOCTYPE svg PUBLIC "-//W3C//DTD SVG 1.1//EN"
 "http://www.w3.org/Graphics/SVG/1.1/DTD/svg11.dtd">
<!-- Generated by graphviz version 2.43.0 (0)
 -->
<!-- Title: /home/runner/work/mooseneuro.github.io/mooseneuro.github.io/docs/moose&#45;core/ksolve/NonlinearSystem.h Pages: 1 -->
<svg width="1275pt" height="236pt"
 viewBox="0.00 0.00 1275.00 236.00" xmlns="http://www.w3.org/2000/svg" xmlns:xlink="http://www.w3.org/1999/xlink">
<g id="graph0" class="graph" transform="scale(1 1) rotate(0) translate(4 232)">
<title>/home/runner/work/mooseneuro.github.io/mooseneuro.github.io/docs/moose&#45;core/ksolve/NonlinearSystem.h</title>
<!-- Node1 -->
<g id="Node000001" class="node">
<title>Node1</title>
<g id="a_Node000001"><a xlink:title=" ">
<polygon fill="#999999" stroke="#666666" points="542,-228 324,-228 324,-187 542,-187 542,-228"/>
<text text-anchor="start" x="332" y="-216" font-family="Ubuntu Mono" font-size="10.00">/home/runner/work/mooseneuro.github.io</text>
<text text-anchor="start" x="332" y="-205" font-family="Ubuntu Mono" font-size="10.00">/mooseneuro.github.io/docs/moose</text>
<text text-anchor="middle" x="433" y="-194" font-family="Ubuntu Mono" font-size="10.00">&#45;core/ksolve/NonlinearSystem.h</text>
</a>
</g>
</g>
<!-- Node2 -->
<g id="Node000002" class="node">
<title>Node2</title>
<g id="a_Node000002"><a xlink:title=" ">
<polygon fill="#e0e0e0" stroke="#999999" points="60,-145.5 0,-145.5 0,-126.5 60,-126.5 60,-145.5"/>
<text text-anchor="middle" x="30" y="-133.5" font-family="Ubuntu Mono" font-size="10.00">iostream</text>
</a>
</g>
</g>
<!-- Node1&#45;&gt;Node2 -->
<g id="edge1_Node000001_Node000002" class="edge">
<title>Node1&#45;&gt;Node2</title>
<g id="a_edge1_Node000001_Node000002"><a xlink:title=" ">
<path fill="none" stroke="#63b8ff" d="M324,-195.46C251.1,-186.72 153.43,-172.38 69,-151 66.5,-150.37 63.93,-149.64 61.37,-148.85"/>
<polygon fill="#63b8ff" stroke="#63b8ff" points="62.23,-145.44 51.63,-145.6 60.01,-152.09 62.23,-145.44"/>
</a>
</g>
</g>
<!-- Node3 -->
<g id="Node000003" class="node">
<title>Node3</title>
<g id="a_Node000003"><a xlink:title=" ">
<polygon fill="#e0e0e0" stroke="#999999" points="134,-145.5 78,-145.5 78,-126.5 134,-126.5 134,-145.5"/>
<text text-anchor="middle" x="106" y="-133.5" font-family="Ubuntu Mono" font-size="10.00">sstream</text>
</a>
</g>
</g>
<!-- Node1&#45;&gt;Node3 -->
<g id="edge2_Node000001_Node000003" class="edge">
<title>Node1&#45;&gt;Node3</title>
<g id="a_edge2_Node000001_Node000003"><a xlink:title=" ">
<path fill="none" stroke="#63b8ff" d="M323.86,-190.2C269.05,-180.86 201.95,-167.66 143,-151 140.85,-150.39 138.65,-149.71 136.45,-148.99"/>
<polygon fill="#63b8ff" stroke="#63b8ff" points="137.52,-145.66 126.92,-145.63 135.19,-152.26 137.52,-145.66"/>
</a>
</g>
</g>
<!-- Node4 -->
<g id="Node000004" class="node">
<title>Node4</title>
<g id="a_Node000004"><a xlink:title=" ">
<polygon fill="#e0e0e0" stroke="#999999" points="217.5,-145.5 152.5,-145.5 152.5,-126.5 217.5,-126.5 217.5,-145.5"/>
<text text-anchor="middle" x="185" y="-133.5" font-family="Ubuntu Mono" font-size="10.00">functional</text>
</a>
</g>
</g>
<!-- Node1&#45;&gt;Node4 -->
<g id="edge3_Node000001_Node000004" class="edge">
<title>Node1&#45;&gt;Node4</title>
<g id="a_edge3_Node000001_Node000004"><a xlink:title=" ">
<path fill="none" stroke="#63b8ff" d="M354.99,-186.91C316.06,-176.79 268.36,-163.89 226,-151 223.69,-150.3 221.32,-149.55 218.94,-148.78"/>
<polygon fill="#63b8ff" stroke="#63b8ff" points="219.79,-145.38 209.19,-145.56 217.59,-152.03 219.79,-145.38"/>
</a>
</g>
</g>
<!-- Node5 -->
<g id="Node000005" class="node">
<title>Node5</title>
<g id="a_Node000005"><a xlink:title=" ">
<polygon fill="#e0e0e0" stroke="#999999" points="282.5,-145.5 235.5,-145.5 235.5,-126.5 282.5,-126.5 282.5,-145.5"/>
<text text-anchor="middle" x="259" y="-133.5" font-family="Ubuntu Mono" font-size="10.00">cerrno</text>
</a>
</g>
</g>
<!-- Node1&#45;&gt;Node5 -->
<g id="edge4_Node000001_Node000005" class="edge">
<title>Node1&#45;&gt;Node5</title>
<g id="a_edge4_Node000001_Node000005"><a xlink:title=" ">
<path fill="none" stroke="#63b8ff" d="M382.29,-186.91C355.4,-176.43 321.83,-163.2 292,-151 290.8,-150.51 289.58,-150.01 288.35,-149.5"/>
<polygon fill="#63b8ff" stroke="#63b8ff" points="289.43,-146.16 278.86,-145.52 286.73,-152.61 289.43,-146.16"/>
</a>
</g>
</g>
<!-- Node6 -->
<g id="Node000006" class="node">
<title>Node6</title>
<g id="a_Node000006"><a xlink:title=" ">
<polygon fill="#e0e0e0" stroke="#999999" points="357,-145.5 301,-145.5 301,-126.5 357,-126.5 357,-145.5"/>
<text text-anchor="middle" x="329" y="-133.5" font-family="Ubuntu Mono" font-size="10.00">iomanip</text>
</a>
</g>
</g>
<!-- Node1&#45;&gt;Node6 -->
<g id="edge5_Node000001_Node000006" class="edge">
<title>Node1&#45;&gt;Node6</title>
<g id="a_edge5_Node000001_Node000006"><a xlink:title=" ">
<path fill="none" stroke="#63b8ff" d="M403.75,-186.96C386.68,-175.54 365.52,-161.41 350.08,-151.09"/>
<polygon fill="#63b8ff" stroke="#63b8ff" points="351.98,-148.15 341.72,-145.5 348.09,-153.97 351.98,-148.15"/>
</a>
</g>
</g>
<!-- Node7 -->
<g id="Node000007" class="node">
<title>Node7</title>
<g id="a_Node000007"><a xlink:title=" ">
<polygon fill="#e0e0e0" stroke="#999999" points="419,-145.5 375,-145.5 375,-126.5 419,-126.5 419,-145.5"/>
<text text-anchor="middle" x="397" y="-133.5" font-family="Ubuntu Mono" font-size="10.00">limits</text>
</a>
</g>
</g>
<!-- Node1&#45;&gt;Node7 -->
<g id="edge6_Node000001_Node000007" class="edge">
<title>Node1&#45;&gt;Node7</title>
<g id="a_edge6_Node000001_Node000007"><a xlink:title=" ">
<path fill="none" stroke="#63b8ff" d="M422.78,-186.77C417.6,-176.76 411.35,-164.7 406.3,-154.95"/>
<polygon fill="#63b8ff" stroke="#63b8ff" points="409.28,-153.09 401.57,-145.82 403.06,-156.31 409.28,-153.09"/>
</a>
</g>
</g>
<!-- Node8 -->
<g id="Node000008" class="node">
<title>Node8</title>
<g id="a_Node000008"><a xlink:title=" ">
<polygon fill="#e0e0e0" stroke="#999999" points="501,-145.5 437,-145.5 437,-126.5 501,-126.5 501,-145.5"/>
<text text-anchor="middle" x="469" y="-133.5" font-family="Ubuntu Mono" font-size="10.00">algorithm</text>
</a>
</g>
</g>
<!-- Node1&#45;&gt;Node8 -->
<g id="edge7_Node000001_Node000008" class="edge">
<title>Node1&#45;&gt;Node8</title>
<g id="a_edge7_Node000001_Node000008"><a xlink:title=" ">
<path fill="none" stroke="#63b8ff" d="M443.22,-186.77C448.4,-176.76 454.65,-164.7 459.7,-154.95"/>
<polygon fill="#63b8ff" stroke="#63b8ff" points="462.94,-156.31 464.43,-145.82 456.72,-153.09 462.94,-156.31"/>
</a>
</g>
</g>
<!-- Node9 -->
<g id="Node000009" class="node">
<title>Node9</title>
<g id="a_Node000009"><a xlink:title=" ">
<polygon fill="#e0e0e0" stroke="#999999" points="635,-151 519,-151 519,-121 635,-121 635,-151"/>
<text text-anchor="start" x="527" y="-139" font-family="Ubuntu Mono" font-size="10.00">boost/numeric/ublas</text>
<text text-anchor="middle" x="577" y="-128" font-family="Ubuntu Mono" font-size="10.00">/matrix.hpp</text>
</a>
</g>
</g>
<!-- Node1&#45;&gt;Node9 -->
<g id="edge8_Node000001_Node000009" class="edge">
<title>Node1&#45;&gt;Node9</title>
<g id="a_edge8_Node000001_Node000009"><a xlink:title=" ">
<path fill="none" stroke="#63b8ff" d="M473.5,-186.96C493.89,-177.11 518.49,-165.24 538.58,-155.54"/>
<polygon fill="#63b8ff" stroke="#63b8ff" points="540.27,-158.61 547.76,-151.11 537.23,-152.31 540.27,-158.61"/>
</a>
</g>
</g>
<!-- Node10 -->
<g id="Node000010" class="node">
<title>Node10</title>
<g id="a_Node000010"><a xlink:title=" ">
<polygon fill="#e0e0e0" stroke="#999999" points="769,-151 653,-151 653,-121 769,-121 769,-151"/>
<text text-anchor="start" x="661" y="-139" font-family="Ubuntu Mono" font-size="10.00">boost/numeric/ublas</text>
<text text-anchor="middle" x="711" y="-128" font-family="Ubuntu Mono" font-size="10.00">/lu.hpp</text>
</a>
</g>
</g>
<!-- Node1&#45;&gt;Node10 -->
<g id="edge9_Node000001_Node000010" class="edge">
<title>Node1&#45;&gt;Node10</title>
<g id="a_edge9_Node000001_Node000010"><a xlink:title=" ">
<path fill="none" stroke="#63b8ff" d="M511.18,-186.96C553.37,-176.41 604.88,-163.53 645.03,-153.49"/>
<polygon fill="#63b8ff" stroke="#63b8ff" points="646.13,-156.82 654.98,-151 644.43,-150.03 646.13,-156.82"/>
</a>
</g>
</g>
<!-- Node11 -->
<g id="Node000011" class="node">
<title>Node11</title>
<g id="a_Node000011"><a xlink:title=" ">
<polygon fill="#e0e0e0" stroke="#999999" points="903,-151 787,-151 787,-121 903,-121 903,-151"/>
<text text-anchor="start" x="795" y="-139" font-family="Ubuntu Mono" font-size="10.00">boost/numeric/ublas</text>
<text text-anchor="middle" x="845" y="-128" font-family="Ubuntu Mono" font-size="10.00">/vector.hpp</text>
</a>
</g>
</g>
<!-- Node1&#45;&gt;Node11 -->
<g id="edge10_Node000001_Node000011" class="edge">
<title>Node1&#45;&gt;Node11</title>
<g id="a_edge10_Node000001_Node000011"><a xlink:title=" ">
<path fill="none" stroke="#63b8ff" d="M542.38,-190.23C607.74,-180.2 692.65,-166.61 776.92,-151.15"/>
<polygon fill="#63b8ff" stroke="#63b8ff" points="777.73,-154.56 786.93,-149.31 776.46,-147.68 777.73,-154.56"/>
</a>
</g>
</g>
<!-- Node12 -->
<g id="Node000012" class="node">
<title>Node12</title>
<g id="a_Node000012"><a xlink:title=" ">
<polygon fill="#e0e0e0" stroke="#999999" points="1037,-151 921,-151 921,-121 1037,-121 1037,-151"/>
<text text-anchor="start" x="929" y="-139" font-family="Ubuntu Mono" font-size="10.00">boost/numeric/ublas</text>
<text text-anchor="middle" x="979" y="-128" font-family="Ubuntu Mono" font-size="10.00">/io.hpp</text>
</a>
</g>
</g>
<!-- Node1&#45;&gt;Node12 -->
<g id="edge11_Node000001_Node000012" class="edge">
<title>Node1&#45;&gt;Node12</title>
<g id="a_edge11_Node000001_Node000012"><a xlink:title=" ">
<path fill="none" stroke="#63b8ff" d="M542.3,-196.68C637.27,-187.49 778.66,-172.23 911.04,-151.06"/>
<polygon fill="#63b8ff" stroke="#63b8ff" points="911.64,-154.51 920.96,-149.46 910.53,-147.6 911.64,-154.51"/>
</a>
</g>
</g>
<!-- Node13 -->
<g id="Node000013" class="node">
<title>Node13</title>
<g id="a_Node000013"><a xlink:href="VoxelPools_8h.html" target="_top" xlink:title=" ">
<polygon fill="white" stroke="#666666" points="1133,-145.5 1055,-145.5 1055,-126.5 1133,-126.5 1133,-145.5"/>
<text text-anchor="middle" x="1094" y="-133.5" font-family="Ubuntu Mono" font-size="10.00">VoxelPools.h</text>
</a>
</g>
</g>
<!-- Node1&#45;&gt;Node13 -->
<g id="edge12_Node000001_Node000013" class="edge">
<title>Node1&#45;&gt;Node13</title>
<g id="a_edge12_Node000001_Node000013"><a xlink:title=" ">
<path fill="none" stroke="#63b8ff" d="M542.12,-202.99C665.39,-197.55 871.58,-184.01 1046,-151 1049.96,-150.25 1054.07,-149.31 1058.14,-148.28"/>
<polygon fill="#63b8ff" stroke="#63b8ff" points="1059.34,-151.57 1068.07,-145.56 1057.5,-144.82 1059.34,-151.57"/>
</a>
</g>
</g>
<!-- Node14 -->
<g id="Node000014" class="node">
<title>Node14</title>
<g id="a_Node000014"><a xlink:href="OdeSystem_8h.html" target="_top" xlink:title=" ">
<polygon fill="white" stroke="#666666" points="1025,-79.5 943,-79.5 943,-60.5 1025,-60.5 1025,-79.5"/>
<text text-anchor="middle" x="984" y="-67.5" font-family="Ubuntu Mono" font-size="10.00">OdeSystem.h</text>
</a>
</g>
</g>
<!-- Node13&#45;&gt;Node14 -->
<g id="edge13_Node000013_Node000014" class="edge">
<title>Node13&#45;&gt;Node14</title>
<g id="a_edge13_Node000013_Node000014"><a xlink:title=" ">
<path fill="none" stroke="#63b8ff" d="M1079.16,-126.37C1060.88,-115.73 1029.56,-97.51 1007.87,-84.89"/>
<polygon fill="#63b8ff" stroke="#63b8ff" points="1009.36,-81.7 998.95,-79.7 1005.83,-87.75 1009.36,-81.7"/>
</a>
</g>
</g>
<!-- Node15 -->
<g id="Node000015" class="node">
<title>Node15</title>
<g id="a_Node000015"><a xlink:href="VoxelPoolsBase_8h.html" target="_top" xlink:title=" ">
<polygon fill="white" stroke="#666666" points="1145,-79.5 1043,-79.5 1043,-60.5 1145,-60.5 1145,-79.5"/>
<text text-anchor="middle" x="1094" y="-67.5" font-family="Ubuntu Mono" font-size="10.00">VoxelPoolsBase.h</text>
</a>
</g>
</g>
<!-- Node13&#45;&gt;Node15 -->
<g id="edge14_Node000013_Node000015" class="edge">
<title>Node13&#45;&gt;Node15</title>
<g id="a_edge14_Node000013_Node000015"><a xlink:title=" ">
<path fill="none" stroke="#63b8ff" d="M1094,-126.37C1094,-117.16 1094,-102.29 1094,-90.27"/>
<polygon fill="#63b8ff" stroke="#63b8ff" points="1097.5,-89.91 1094,-79.91 1090.5,-89.91 1097.5,-89.91"/>
</a>
</g>
</g>
<!-- Node18 -->
<g id="Node000018" class="node">
<title>Node18</title>
<g id="a_Node000018"><a xlink:title=" ">
<polygon fill="#e0e0e0" stroke="#999999" points="1267,-85 1163,-85 1163,-55 1267,-55 1267,-85"/>
<text text-anchor="start" x="1171" y="-73" font-family="Ubuntu Mono" font-size="10.00">../external/libsoda</text>
<text text-anchor="middle" x="1215" y="-62" font-family="Ubuntu Mono" font-size="10.00">/LSODA.h</text>
</a>
</g>
</g>
<!-- Node13&#45;&gt;Node18 -->
<g id="edge17_Node000013_Node000018" class="edge">
<title>Node13&#45;&gt;Node18</title>
<g id="a_edge17_Node000013_Node000018"><a xlink:title=" ">
<path fill="none" stroke="#63b8ff" d="M1110.32,-126.37C1127.89,-117.07 1156.41,-101.99 1179.24,-89.91"/>
<polygon fill="#63b8ff" stroke="#63b8ff" points="1181.11,-92.89 1188.31,-85.12 1177.84,-86.7 1181.11,-92.89"/>
</a>
</g>
</g>
<!-- Node16 -->
<g id="Node000016" class="node">
<title>Node16</title>
<g id="a_Node000016"><a xlink:title=" ">
<polygon fill="#e0e0e0" stroke="#999999" points="1082,-19 1044,-19 1044,0 1082,0 1082,-19"/>
<text text-anchor="middle" x="1063" y="-7" font-family="Ubuntu Mono" font-size="10.00">map</text>
</a>
</g>
</g>
<!-- Node15&#45;&gt;Node16 -->
<g id="edge15_Node000015_Node000016" class="edge">
<title>Node15&#45;&gt;Node16</title>
<g id="a_edge15_Node000015_Node000016"><a xlink:title=" ">
<path fill="none" stroke="#63b8ff" d="M1089.43,-60.37C1084.94,-51.9 1077.97,-38.74 1072.31,-28.07"/>
<polygon fill="#63b8ff" stroke="#63b8ff" points="1075.37,-26.36 1067.59,-19.17 1069.18,-29.64 1075.37,-26.36"/>
</a>
</g>
</g>
<!-- Node17 -->
<g id="Node000017" class="node">
<title>Node17</title>
<g id="a_Node000017"><a xlink:title=" ">
<polygon fill="#e0e0e0" stroke="#999999" points="1147.5,-19 1100.5,-19 1100.5,0 1147.5,0 1147.5,-19"/>
<text text-anchor="middle" x="1124" y="-7" font-family="Ubuntu Mono" font-size="10.00">vector</text>
</a>
</g>
</g>
<!-- Node15&#45;&gt;Node17 -->
<g id="edge16_Node000015_Node000017" class="edge">
<title>Node15&#45;&gt;Node17</title>
<g id="a_edge16_Node000015_Node000017"><a xlink:title=" ">
<path fill="none" stroke="#63b8ff" d="M1098.43,-60.37C1102.77,-51.9 1109.52,-38.74 1114.99,-28.07"/>
<polygon fill="#63b8ff" stroke="#63b8ff" points="1118.11,-29.66 1119.56,-19.17 1111.88,-26.47 1118.11,-29.66"/>
</a>
</g>
</g>
</g>
</svg>
