<?xml version="1.0" encoding="UTF-8" standalone="no"?>
<!DOCTYPE svg PUBLIC "-//W3C//DTD SVG 1.1//EN"
 "http://www.w3.org/Graphics/SVG/1.1/DTD/svg11.dtd">
<!-- Generated by graphviz version 2.43.0 (0)
 -->
<!-- Title: /home/runner/work/mooseneuro.github.io/mooseneuro.github.io/docs/moose&#45;core/ksolve/OdeSystem.h Pages: 1 -->
<svg width="1462pt" height="280pt"
 viewBox="0.00 0.00 1461.69 280.00" xmlns="http://www.w3.org/2000/svg" xmlns:xlink="http://www.w3.org/1999/xlink">
<g id="graph0" class="graph" transform="scale(1 1) rotate(0) translate(4 276)">
<title>/home/runner/work/mooseneuro.github.io/mooseneuro.github.io/docs/moose&#45;core/ksolve/OdeSystem.h</title>
<!-- Node1 -->
<g id="Node000001" class="node">
<title>Node1</title>
<g id="a_Node000001"><a xlink:title=" ">
<polygon fill="#999999" stroke="#666666" points="745.69,-272 527.69,-272 527.69,-231 745.69,-231 745.69,-272"/>
<text text-anchor="start" x="535.69" y="-260" font-family="Ubuntu Mono" font-size="10.00">/home/runner/work/mooseneuro.github.io</text>
<text text-anchor="start" x="535.69" y="-249" font-family="Ubuntu Mono" font-size="10.00">/mooseneuro.github.io/docs/moose</text>
<text text-anchor="middle" x="636.69" y="-238" font-family="Ubuntu Mono" font-size="10.00">&#45;core/ksolve/OdeSystem.h</text>
</a>
</g>
</g>
<!-- Node2 -->
<g id="Node000002" class="node">
<title>Node2</title>
<g id="a_Node000002"><a xlink:href="Ksolve_8cpp.html" target="_top" xlink:title=" ">
<polygon fill="white" stroke="#666666" points="235.69,-118 17.69,-118 17.69,-77 235.69,-77 235.69,-118"/>
<text text-anchor="start" x="25.69" y="-106" font-family="Ubuntu Mono" font-size="10.00">/home/runner/work/mooseneuro.github.io</text>
<text text-anchor="start" x="25.69" y="-95" font-family="Ubuntu Mono" font-size="10.00">/mooseneuro.github.io/docs/moose</text>
<text text-anchor="middle" x="126.69" y="-84" font-family="Ubuntu Mono" font-size="10.00">&#45;core/ksolve/Ksolve.cpp</text>
</a>
</g>
</g>
<!-- Node1&#45;&gt;Node2 -->
<g id="edge1_Node000001_Node000002" class="edge">
<title>Node1&#45;&gt;Node2</title>
<g id="a_edge1_Node000001_Node000002"><a xlink:title=" ">
<path fill="none" stroke="#63b8ff" d="M561.34,-228.04C461.57,-198.31 287.2,-146.34 192.47,-118.11"/>
<polygon fill="#63b8ff" stroke="#63b8ff" points="560.48,-231.44 571.06,-230.94 562.48,-224.73 560.48,-231.44"/>
</a>
</g>
</g>
<!-- Node3 -->
<g id="Node000003" class="node">
<title>Node3</title>
<g id="a_Node000003"><a xlink:href="SteadyStateBoost_8cpp.html" target="_top" xlink:title=" ">
<polygon fill="white" stroke="#666666" points="471.69,-41 253.69,-41 253.69,0 471.69,0 471.69,-41"/>
<text text-anchor="start" x="261.69" y="-29" font-family="Ubuntu Mono" font-size="10.00">/home/runner/work/mooseneuro.github.io</text>
<text text-anchor="start" x="261.69" y="-18" font-family="Ubuntu Mono" font-size="10.00">/mooseneuro.github.io/docs/moose</text>
<text text-anchor="middle" x="362.69" y="-7" font-family="Ubuntu Mono" font-size="10.00">&#45;core/ksolve/SteadyStateBoost.cpp</text>
</a>
</g>
</g>
<!-- Node1&#45;&gt;Node3 -->
<g id="edge2_Node000001_Node000003" class="edge">
<title>Node1&#45;&gt;Node3</title>
<g id="a_edge2_Node000001_Node000003"><a xlink:title=" ">
<path fill="none" stroke="#63b8ff" d="M517.43,-243.1C353.05,-230.1 70.14,-196.64 8.69,-118 -2.53,-103.64 -3.16,-90.85 8.69,-77 39.78,-40.66 161.21,-27.95 253.26,-23.6"/>
<polygon fill="#63b8ff" stroke="#63b8ff" points="517.36,-246.61 527.6,-243.89 517.9,-239.63 517.36,-246.61"/>
</a>
</g>
</g>
<!-- Node4 -->
<g id="Node000004" class="node">
<title>Node4</title>
<g id="a_Node000004"><a xlink:href="SteadyStateGsl_8cpp.html" target="_top" xlink:title=" ">
<polygon fill="white" stroke="#666666" points="1217.69,-118 999.69,-118 999.69,-77 1217.69,-77 1217.69,-118"/>
<text text-anchor="start" x="1007.69" y="-106" font-family="Ubuntu Mono" font-size="10.00">/home/runner/work/mooseneuro.github.io</text>
<text text-anchor="start" x="1007.69" y="-95" font-family="Ubuntu Mono" font-size="10.00">/mooseneuro.github.io/docs/moose</text>
<text text-anchor="middle" x="1108.69" y="-84" font-family="Ubuntu Mono" font-size="10.00">&#45;core/ksolve/SteadyStateGsl.cpp</text>
</a>
</g>
</g>
<!-- Node1&#45;&gt;Node4 -->
<g id="edge3_Node000001_Node000004" class="edge">
<title>Node1&#45;&gt;Node4</title>
<g id="a_edge3_Node000001_Node000004"><a xlink:title=" ">
<path fill="none" stroke="#63b8ff" d="M706.98,-227.86C799.41,-198.1 960.32,-146.28 1047.81,-118.11"/>
<polygon fill="#63b8ff" stroke="#63b8ff" points="705.87,-224.54 697.43,-230.94 708.02,-231.21 705.87,-224.54"/>
</a>
</g>
</g>
<!-- Node5 -->
<g id="Node000005" class="node">
<title>Node5</title>
<g id="a_Node000005"><a xlink:href="VoxelPools_8cpp.html" target="_top" xlink:title=" ">
<polygon fill="white" stroke="#666666" points="1453.69,-118 1235.69,-118 1235.69,-77 1453.69,-77 1453.69,-118"/>
<text text-anchor="start" x="1243.69" y="-106" font-family="Ubuntu Mono" font-size="10.00">/home/runner/work/mooseneuro.github.io</text>
<text text-anchor="start" x="1243.69" y="-95" font-family="Ubuntu Mono" font-size="10.00">/mooseneuro.github.io/docs/moose</text>
<text text-anchor="middle" x="1344.69" y="-84" font-family="Ubuntu Mono" font-size="10.00">&#45;core/ksolve/VoxelPools.cpp</text>
</a>
</g>
</g>
<!-- Node1&#45;&gt;Node5 -->
<g id="edge4_Node000001_Node000005" class="edge">
<title>Node1&#45;&gt;Node5</title>
<g id="a_edge4_Node000001_Node000005"><a xlink:title=" ">
<path fill="none" stroke="#63b8ff" d="M737.96,-228.76C875.99,-199.12 1121.15,-146.49 1253.65,-118.05"/>
<polygon fill="#63b8ff" stroke="#63b8ff" points="736.84,-225.42 727.8,-230.94 738.31,-232.26 736.84,-225.42"/>
</a>
</g>
</g>
<!-- Node6 -->
<g id="Node000006" class="node">
<title>Node6</title>
<g id="a_Node000006"><a xlink:href="VoxelPools_8h.html" target="_top" xlink:title=" ">
<polygon fill="white" stroke="#666666" points="745.69,-195 527.69,-195 527.69,-154 745.69,-154 745.69,-195"/>
<text text-anchor="start" x="535.69" y="-183" font-family="Ubuntu Mono" font-size="10.00">/home/runner/work/mooseneuro.github.io</text>
<text text-anchor="start" x="535.69" y="-172" font-family="Ubuntu Mono" font-size="10.00">/mooseneuro.github.io/docs/moose</text>
<text text-anchor="middle" x="636.69" y="-161" font-family="Ubuntu Mono" font-size="10.00">&#45;core/ksolve/VoxelPools.h</text>
</a>
</g>
</g>
<!-- Node1&#45;&gt;Node6 -->
<g id="edge5_Node000001_Node000006" class="edge">
<title>Node1&#45;&gt;Node6</title>
<g id="a_edge5_Node000001_Node000006"><a xlink:title=" ">
<path fill="none" stroke="#63b8ff" d="M636.69,-220.69C636.69,-212.08 636.69,-202.9 636.69,-195.07"/>
<polygon fill="#63b8ff" stroke="#63b8ff" points="633.19,-220.79 636.69,-230.79 640.19,-220.79 633.19,-220.79"/>
</a>
</g>
</g>
<!-- Node6&#45;&gt;Node2 -->
<g id="edge8_Node000006_Node000002" class="edge">
<title>Node6&#45;&gt;Node2</title>
<g id="a_edge8_Node000006_Node000002"><a xlink:title=" ">
<path fill="none" stroke="#63b8ff" d="M517.29,-157.33C439.58,-146.62 336.04,-132.01 244.69,-118 241.82,-117.56 238.9,-117.11 235.97,-116.65"/>
<polygon fill="#63b8ff" stroke="#63b8ff" points="517.22,-160.85 527.6,-158.74 518.17,-153.91 517.22,-160.85"/>
</a>
</g>
</g>
<!-- Node6&#45;&gt;Node3 -->
<g id="edge11_Node000006_Node000003" class="edge">
<title>Node6&#45;&gt;Node3</title>
<g id="a_edge11_Node000006_Node000003"><a xlink:title=" ">
<path fill="none" stroke="#63b8ff" d="M574.91,-149.84C556.01,-141.21 535.73,-130.46 518.69,-118 498.63,-103.33 500.74,-91.67 480.69,-77 460.86,-62.5 436.65,-50.32 415.32,-41.1"/>
<polygon fill="#63b8ff" stroke="#63b8ff" points="573.5,-153.04 584.06,-153.9 576.34,-146.64 573.5,-153.04"/>
</a>
</g>
</g>
<!-- Node6&#45;&gt;Node4 -->
<g id="edge12_Node000006_Node000004" class="edge">
<title>Node6&#45;&gt;Node4</title>
<g id="a_edge12_Node000006_Node000004"><a xlink:title=" ">
<path fill="none" stroke="#63b8ff" d="M755.95,-155.05C824.62,-144.37 912.54,-130.58 990.69,-118 993.56,-117.54 996.47,-117.07 999.4,-116.59"/>
<polygon fill="#63b8ff" stroke="#63b8ff" points="755.31,-151.61 745.96,-156.61 756.38,-158.53 755.31,-151.61"/>
</a>
</g>
</g>
<!-- Node6&#45;&gt;Node5 -->
<g id="edge13_Node000006_Node000005" class="edge">
<title>Node6&#45;&gt;Node5</title>
<g id="a_edge13_Node000006_Node000005"><a xlink:title=" ">
<path fill="none" stroke="#63b8ff" d="M756.22,-164.72C875.6,-155.38 1064.22,-139.04 1226.69,-118 1229.57,-117.63 1232.49,-117.24 1235.44,-116.83"/>
<polygon fill="#63b8ff" stroke="#63b8ff" points="755.65,-161.26 745.96,-165.52 756.2,-168.24 755.65,-161.26"/>
</a>
</g>
</g>
<!-- Node7 -->
<g id="Node000007" class="node">
<title>Node7</title>
<g id="a_Node000007"><a xlink:href="PoolBase_8cpp.html" target="_top" xlink:title=" ">
<polygon fill="white" stroke="#666666" points="745.69,-118 527.69,-118 527.69,-77 745.69,-77 745.69,-118"/>
<text text-anchor="start" x="535.69" y="-106" font-family="Ubuntu Mono" font-size="10.00">/home/runner/work/mooseneuro.github.io</text>
<text text-anchor="start" x="535.69" y="-95" font-family="Ubuntu Mono" font-size="10.00">/mooseneuro.github.io/docs/moose</text>
<text text-anchor="middle" x="636.69" y="-84" font-family="Ubuntu Mono" font-size="10.00">&#45;core/kinetics/PoolBase.cpp</text>
</a>
</g>
</g>
<!-- Node6&#45;&gt;Node7 -->
<g id="edge6_Node000006_Node000007" class="edge">
<title>Node6&#45;&gt;Node7</title>
<g id="a_edge6_Node000006_Node000007"><a xlink:title=" ">
<path fill="none" stroke="#63b8ff" d="M636.69,-143.69C636.69,-135.08 636.69,-125.9 636.69,-118.07"/>
<polygon fill="#63b8ff" stroke="#63b8ff" points="633.19,-143.79 636.69,-153.79 640.19,-143.79 633.19,-143.79"/>
</a>
</g>
</g>
<!-- Node8 -->
<g id="Node000008" class="node">
<title>Node8</title>
<g id="a_Node000008"><a xlink:href="BoostSys_8cpp.html" target="_top" xlink:title=" ">
<polygon fill="white" stroke="#666666" points="981.69,-118 763.69,-118 763.69,-77 981.69,-77 981.69,-118"/>
<text text-anchor="start" x="771.69" y="-106" font-family="Ubuntu Mono" font-size="10.00">/home/runner/work/mooseneuro.github.io</text>
<text text-anchor="start" x="771.69" y="-95" font-family="Ubuntu Mono" font-size="10.00">/mooseneuro.github.io/docs/moose</text>
<text text-anchor="middle" x="872.69" y="-84" font-family="Ubuntu Mono" font-size="10.00">&#45;core/ksolve/BoostSys.cpp</text>
</a>
</g>
</g>
<!-- Node6&#45;&gt;Node8 -->
<g id="edge7_Node000006_Node000008" class="edge">
<title>Node6&#45;&gt;Node8</title>
<g id="a_edge7_Node000006_Node000008"><a xlink:title=" ">
<path fill="none" stroke="#63b8ff" d="M707.66,-150.94C740.64,-140.46 779.48,-128.12 811.2,-118.04"/>
<polygon fill="#63b8ff" stroke="#63b8ff" points="706.55,-147.63 698.08,-153.99 708.67,-154.3 706.55,-147.63"/>
</a>
</g>
</g>
<!-- Node9 -->
<g id="Node000009" class="node">
<title>Node9</title>
<g id="a_Node000009"><a xlink:href="NonlinearSystem_8h.html" target="_top" xlink:title=" ">
<polygon fill="white" stroke="#666666" points="471.69,-118 253.69,-118 253.69,-77 471.69,-77 471.69,-118"/>
<text text-anchor="start" x="261.69" y="-106" font-family="Ubuntu Mono" font-size="10.00">/home/runner/work/mooseneuro.github.io</text>
<text text-anchor="start" x="261.69" y="-95" font-family="Ubuntu Mono" font-size="10.00">/mooseneuro.github.io/docs/moose</text>
<text text-anchor="middle" x="362.69" y="-84" font-family="Ubuntu Mono" font-size="10.00">&#45;core/ksolve/NonlinearSystem.h</text>
</a>
</g>
</g>
<!-- Node6&#45;&gt;Node9 -->
<g id="edge9_Node000006_Node000009" class="edge">
<title>Node6&#45;&gt;Node9</title>
<g id="a_edge9_Node000006_Node000009"><a xlink:title=" ">
<path fill="none" stroke="#63b8ff" d="M555.76,-151.35C517.16,-140.78 471.38,-128.25 434.08,-118.04"/>
<polygon fill="#63b8ff" stroke="#63b8ff" points="554.84,-154.73 565.41,-153.99 556.69,-147.97 554.84,-154.73"/>
</a>
</g>
</g>
<!-- Node9&#45;&gt;Node3 -->
<g id="edge10_Node000009_Node000003" class="edge">
<title>Node9&#45;&gt;Node3</title>
<g id="a_edge10_Node000009_Node000003"><a xlink:title=" ">
<path fill="none" stroke="#63b8ff" d="M362.69,-66.69C362.69,-58.08 362.69,-48.9 362.69,-41.07"/>
<polygon fill="#63b8ff" stroke="#63b8ff" points="359.19,-66.79 362.69,-76.79 366.19,-66.79 359.19,-66.79"/>
</a>
</g>
</g>
</g>
</svg>
