<?xml version="1.0" encoding="UTF-8" standalone="no"?>
<!DOCTYPE svg PUBLIC "-//W3C//DTD SVG 1.1//EN"
 "http://www.w3.org/Graphics/SVG/1.1/DTD/svg11.dtd">
<!-- Generated by graphviz version 2.43.0 (0)
 -->
<!-- Title: /home/runner/work/mooseneuro.github.io/mooseneuro.github.io/docs/moose&#45;core/basecode/OpFuncBase.cpp Pages: 1 -->
<svg width="3445pt" height="214pt"
 viewBox="0.00 0.00 3444.50 214.00" xmlns="http://www.w3.org/2000/svg" xmlns:xlink="http://www.w3.org/1999/xlink">
<g id="graph0" class="graph" transform="scale(1 1) rotate(0) translate(4 210)">
<title>/home/runner/work/mooseneuro.github.io/mooseneuro.github.io/docs/moose&#45;core/basecode/OpFuncBase.cpp</title>
<!-- Node1 -->
<g id="Node000001" class="node">
<title>Node1</title>
<g id="a_Node000001"><a xlink:title=" ">
<polygon fill="#999999" stroke="#666666" points="1697.5,-206 1479.5,-206 1479.5,-165 1697.5,-165 1697.5,-206"/>
<text text-anchor="start" x="1487.5" y="-194" font-family="Ubuntu Mono" font-size="10.00">/home/runner/work/mooseneuro.github.io</text>
<text text-anchor="start" x="1487.5" y="-183" font-family="Ubuntu Mono" font-size="10.00">/mooseneuro.github.io/docs/moose</text>
<text text-anchor="middle" x="1588.5" y="-172" font-family="Ubuntu Mono" font-size="10.00">&#45;core/basecode/OpFuncBase.cpp</text>
</a>
</g>
</g>
<!-- Node2 -->
<g id="Node000002" class="node">
<title>Node2</title>
<g id="a_Node000002"><a xlink:href="header_8h.html" target="_top" xlink:title=" ">
<polygon fill="white" stroke="#666666" points="1589,-129 1530,-129 1530,-110 1589,-110 1589,-129"/>
<text text-anchor="middle" x="1559.5" y="-117" font-family="Ubuntu Mono" font-size="10.00">header.h</text>
</a>
</g>
</g>
<!-- Node1&#45;&gt;Node2 -->
<g id="edge1_Node000001_Node000002" class="edge">
<title>Node1&#45;&gt;Node2</title>
<g id="a_edge1_Node000001_Node000002"><a xlink:title=" ">
<path fill="none" stroke="#63b8ff" d="M1579.64,-164.95C1575.85,-156.58 1571.44,-146.85 1567.72,-138.64"/>
<polygon fill="#63b8ff" stroke="#63b8ff" points="1570.78,-136.92 1563.47,-129.26 1564.41,-139.81 1570.78,-136.92"/>
</a>
</g>
</g>
<!-- Node33 -->
<g id="Node000033" class="node">
<title>Node33</title>
<g id="a_Node000033"><a xlink:href="HopFunc_8h.html" target="_top" xlink:title=" ">
<polygon fill="white" stroke="#666666" points="3436.5,-74 3368.5,-74 3368.5,-55 3436.5,-55 3436.5,-74"/>
<text text-anchor="middle" x="3402.5" y="-62" font-family="Ubuntu Mono" font-size="10.00">HopFunc.h</text>
</a>
</g>
</g>
<!-- Node1&#45;&gt;Node33 -->
<g id="edge45_Node000001_Node000033" class="edge">
<title>Node1&#45;&gt;Node33</title>
<g id="a_edge45_Node000001_Node000033"><a xlink:title=" ">
<path fill="none" stroke="#63b8ff" d="M1697.55,-182.73C1974.2,-177.15 2725.64,-155.24 3358.06,-74.01"/>
<polygon fill="#63b8ff" stroke="#63b8ff" points="3358.83,-77.44 3368.3,-72.69 3357.93,-70.5 3358.83,-77.44"/>
</a>
</g>
</g>
<!-- Node3 -->
<g id="Node000003" class="node">
<title>Node3</title>
<g id="a_Node000003"><a xlink:title=" ">
<polygon fill="#e0e0e0" stroke="#999999" points="51,-74 0,-74 0,-55 51,-55 51,-74"/>
<text text-anchor="middle" x="25.5" y="-62" font-family="Ubuntu Mono" font-size="10.00">math.h</text>
</a>
</g>
</g>
<!-- Node2&#45;&gt;Node3 -->
<g id="edge2_Node000002_Node000003" class="edge">
<title>Node2&#45;&gt;Node3</title>
<g id="a_edge2_Node000002_Node000003"><a xlink:title=" ">
<path fill="none" stroke="#63b8ff" d="M1529.74,-118.46C1347.58,-118.11 380.58,-114.38 61.54,-73.76"/>
<polygon fill="#63b8ff" stroke="#63b8ff" points="61.75,-70.26 51.38,-72.42 60.84,-77.2 61.75,-70.26"/>
</a>
</g>
</g>
<!-- Node4 -->
<g id="Node000004" class="node">
<title>Node4</title>
<g id="a_Node000004"><a xlink:title=" ">
<polygon fill="#e0e0e0" stroke="#999999" points="133.5,-74 69.5,-74 69.5,-55 133.5,-55 133.5,-74"/>
<text text-anchor="middle" x="101.5" y="-62" font-family="Ubuntu Mono" font-size="10.00">algorithm</text>
</a>
</g>
</g>
<!-- Node2&#45;&gt;Node4 -->
<g id="edge3_Node000002_Node000004" class="edge">
<title>Node2&#45;&gt;Node4</title>
<g id="a_edge3_Node000002_Node000004"><a xlink:title=" ">
<path fill="none" stroke="#63b8ff" d="M1529.96,-118.27C1354.39,-116.79 445.69,-107.67 143.7,-73.87"/>
<polygon fill="#63b8ff" stroke="#63b8ff" points="143.98,-70.38 133.64,-72.71 143.18,-77.34 143.98,-70.38"/>
</a>
</g>
</g>
<!-- Node5 -->
<g id="Node000005" class="node">
<title>Node5</title>
<g id="a_Node000005"><a xlink:title=" ">
<polygon fill="#e0e0e0" stroke="#999999" points="199,-74 152,-74 152,-55 199,-55 199,-74"/>
<text text-anchor="middle" x="175.5" y="-62" font-family="Ubuntu Mono" font-size="10.00">vector</text>
</a>
</g>
</g>
<!-- Node2&#45;&gt;Node5 -->
<g id="edge4_Node000002_Node000005" class="edge">
<title>Node2&#45;&gt;Node5</title>
<g id="a_edge4_Node000002_Node000005"><a xlink:title=" ">
<path fill="none" stroke="#63b8ff" d="M1529.93,-118.41C1359.12,-117.74 496.77,-112.54 209.15,-73.66"/>
<polygon fill="#63b8ff" stroke="#63b8ff" points="209.56,-70.18 199.17,-72.26 208.59,-77.11 209.56,-70.18"/>
</a>
</g>
</g>
<!-- Node6 -->
<g id="Node000006" class="node">
<title>Node6</title>
<g id="a_Node000006"><a xlink:title=" ">
<polygon fill="#e0e0e0" stroke="#999999" points="261.5,-74 217.5,-74 217.5,-55 261.5,-55 261.5,-74"/>
<text text-anchor="middle" x="239.5" y="-62" font-family="Ubuntu Mono" font-size="10.00">string</text>
</a>
</g>
</g>
<!-- Node2&#45;&gt;Node6 -->
<g id="edge5_Node000002_Node000006" class="edge">
<title>Node2&#45;&gt;Node6</title>
<g id="a_edge5_Node000002_Node000006"><a xlink:title=" ">
<path fill="none" stroke="#63b8ff" d="M1529.92,-118.41C1363.82,-117.79 545.27,-112.85 271.61,-73.72"/>
<polygon fill="#63b8ff" stroke="#63b8ff" points="272.12,-70.26 261.72,-72.26 271.1,-77.19 272.12,-70.26"/>
</a>
</g>
</g>
<!-- Node7 -->
<g id="Node000007" class="node">
<title>Node7</title>
<g id="a_Node000007"><a xlink:title=" ">
<polygon fill="#e0e0e0" stroke="#999999" points="317.5,-74 279.5,-74 279.5,-55 317.5,-55 317.5,-74"/>
<text text-anchor="middle" x="298.5" y="-62" font-family="Ubuntu Mono" font-size="10.00">map</text>
</a>
</g>
</g>
<!-- Node2&#45;&gt;Node7 -->
<g id="edge6_Node000002_Node000007" class="edge">
<title>Node2&#45;&gt;Node7</title>
<g id="a_edge6_Node000002_Node000007"><a xlink:title=" ">
<path fill="none" stroke="#63b8ff" d="M1529.86,-118.47C1368.06,-118.14 589.59,-114.52 327.84,-73.68"/>
<polygon fill="#63b8ff" stroke="#63b8ff" points="328.06,-70.17 317.62,-72.02 326.93,-77.07 328.06,-70.17"/>
</a>
</g>
</g>
<!-- Node8 -->
<g id="Node000008" class="node">
<title>Node8</title>
<g id="a_Node000008"><a xlink:title=" ">
<polygon fill="#e0e0e0" stroke="#999999" points="429,-74 336,-74 336,-55 429,-55 429,-74"/>
<text text-anchor="middle" x="382.5" y="-62" font-family="Ubuntu Mono" font-size="10.00">unordered_map</text>
</a>
</g>
</g>
<!-- Node2&#45;&gt;Node8 -->
<g id="edge7_Node000002_Node000008" class="edge">
<title>Node2&#45;&gt;Node8</title>
<g id="a_edge7_Node000002_Node000008"><a xlink:title=" ">
<path fill="none" stroke="#63b8ff" d="M1529.97,-118.53C1401.57,-118.41 878.87,-115.32 439.25,-73.94"/>
<polygon fill="#63b8ff" stroke="#63b8ff" points="439.49,-70.45 429.2,-72.99 438.83,-77.41 439.49,-70.45"/>
</a>
</g>
</g>
<!-- Node9 -->
<g id="Node000009" class="node">
<title>Node9</title>
<g id="a_Node000009"><a xlink:title=" ">
<polygon fill="#e0e0e0" stroke="#999999" points="507.5,-74 447.5,-74 447.5,-55 507.5,-55 507.5,-74"/>
<text text-anchor="middle" x="477.5" y="-62" font-family="Ubuntu Mono" font-size="10.00">iostream</text>
</a>
</g>
</g>
<!-- Node2&#45;&gt;Node9 -->
<g id="edge8_Node000002_Node000009" class="edge">
<title>Node2&#45;&gt;Node9</title>
<g id="a_edge8_Node000002_Node000009"><a xlink:title=" ">
<path fill="none" stroke="#63b8ff" d="M1529.74,-117.92C1383.59,-114.98 740.18,-100.79 517.61,-73.86"/>
<polygon fill="#63b8ff" stroke="#63b8ff" points="518,-70.38 507.64,-72.61 517.13,-77.33 518,-70.38"/>
</a>
</g>
</g>
<!-- Node10 -->
<g id="Node000010" class="node">
<title>Node10</title>
<g id="a_Node000010"><a xlink:title=" ">
<polygon fill="#e0e0e0" stroke="#999999" points="581.5,-74 525.5,-74 525.5,-55 581.5,-55 581.5,-74"/>
<text text-anchor="middle" x="553.5" y="-62" font-family="Ubuntu Mono" font-size="10.00">sstream</text>
</a>
</g>
</g>
<!-- Node2&#45;&gt;Node10 -->
<g id="edge9_Node000002_Node000010" class="edge">
<title>Node2&#45;&gt;Node10</title>
<g id="a_edge9_Node000002_Node000010"><a xlink:title=" ">
<path fill="none" stroke="#63b8ff" d="M1529.78,-118.79C1411.34,-119.57 961.72,-119.24 595.5,-74 594.39,-73.86 593.27,-73.71 592.14,-73.55"/>
<polygon fill="#63b8ff" stroke="#63b8ff" points="592.31,-70.03 581.87,-71.86 591.17,-76.94 592.31,-70.03"/>
</a>
</g>
</g>
<!-- Node11 -->
<g id="Node000011" class="node">
<title>Node11</title>
<g id="a_Node000011"><a xlink:title=" ">
<polygon fill="#e0e0e0" stroke="#999999" points="1420,-19 1363,-19 1363,0 1420,0 1420,-19"/>
<text text-anchor="middle" x="1391.5" y="-7" font-family="Ubuntu Mono" font-size="10.00">typeinfo</text>
</a>
</g>
</g>
<!-- Node2&#45;&gt;Node11 -->
<g id="edge10_Node000002_Node000011" class="edge">
<title>Node2&#45;&gt;Node11</title>
<g id="a_edge10_Node000002_Node000011"><a xlink:title=" ">
<path fill="none" stroke="#63b8ff" d="M1529.92,-118.22C1374.72,-116.61 660.34,-107.4 628.5,-74 622.67,-67.89 622.71,-61.14 628.5,-55 653.56,-28.43 1200.1,-14.64 1352.41,-11.31"/>
<polygon fill="#63b8ff" stroke="#63b8ff" points="1352.76,-14.8 1362.68,-11.09 1352.61,-7.8 1352.76,-14.8"/>
</a>
</g>
</g>
<!-- Node12 -->
<g id="Node000012" class="node">
<title>Node12</title>
<g id="a_Node000012"><a xlink:title=" ">
<polygon fill="#e0e0e0" stroke="#999999" points="689.5,-74 637.5,-74 637.5,-55 689.5,-55 689.5,-74"/>
<text text-anchor="middle" x="663.5" y="-62" font-family="Ubuntu Mono" font-size="10.00">cassert</text>
</a>
</g>
</g>
<!-- Node2&#45;&gt;Node12 -->
<g id="edge11_Node000002_Node000012" class="edge">
<title>Node2&#45;&gt;Node12</title>
<g id="a_edge11_Node000002_Node000012"><a xlink:title=" ">
<path fill="none" stroke="#63b8ff" d="M1529.94,-118.96C1420.76,-120.25 1029.88,-121.16 700,-73.92"/>
<polygon fill="#63b8ff" stroke="#63b8ff" points="700.17,-70.41 689.77,-72.44 699.16,-77.34 700.17,-70.41"/>
</a>
</g>
</g>
<!-- Node13 -->
<g id="Node000013" class="node">
<title>Node13</title>
<g id="a_Node000013"><a xlink:href="doubleEq_8h.html" target="_top" xlink:title=" ">
<polygon fill="white" stroke="#666666" points="779,-74 708,-74 708,-55 779,-55 779,-74"/>
<text text-anchor="middle" x="743.5" y="-62" font-family="Ubuntu Mono" font-size="10.00">doubleEq.h</text>
</a>
</g>
</g>
<!-- Node2&#45;&gt;Node13 -->
<g id="edge12_Node000002_Node000013" class="edge">
<title>Node2&#45;&gt;Node13</title>
<g id="a_edge12_Node000002_Node000013"><a xlink:title=" ">
<path fill="none" stroke="#63b8ff" d="M1529.92,-118.21C1428.17,-116.92 1083.12,-110.08 789.44,-74.09"/>
<polygon fill="#63b8ff" stroke="#63b8ff" points="789.81,-70.61 779.46,-72.85 788.95,-77.55 789.81,-70.61"/>
</a>
</g>
</g>
<!-- Node14 -->
<g id="Node000014" class="node">
<title>Node14</title>
<g id="a_Node000014"><a xlink:href="Id_8h.html" target="_top" xlink:title=" ">
<polygon fill="white" stroke="#666666" points="832,-74 797,-74 797,-55 832,-55 832,-74"/>
<text text-anchor="middle" x="814.5" y="-62" font-family="Ubuntu Mono" font-size="10.00">Id.h</text>
</a>
</g>
</g>
<!-- Node2&#45;&gt;Node14 -->
<g id="edge13_Node000002_Node000014" class="edge">
<title>Node2&#45;&gt;Node14</title>
<g id="a_edge13_Node000002_Node000014"><a xlink:title=" ">
<path fill="none" stroke="#63b8ff" d="M1529.67,-117.66C1414.13,-114.27 995.34,-100.53 842.36,-73.82"/>
<polygon fill="#63b8ff" stroke="#63b8ff" points="842.71,-70.33 832.25,-71.96 841.45,-77.21 842.71,-70.33"/>
</a>
</g>
</g>
<!-- Node15 -->
<g id="Node000015" class="node">
<title>Node15</title>
<g id="a_Node000015"><a xlink:href="ObjId_8h.html" target="_top" xlink:title=" ">
<polygon fill="white" stroke="#666666" points="901,-74 850,-74 850,-55 901,-55 901,-74"/>
<text text-anchor="middle" x="875.5" y="-62" font-family="Ubuntu Mono" font-size="10.00">ObjId.h</text>
</a>
</g>
</g>
<!-- Node2&#45;&gt;Node15 -->
<g id="edge14_Node000002_Node000015" class="edge">
<title>Node2&#45;&gt;Node15</title>
<g id="a_edge14_Node000002_Node000015"><a xlink:title=" ">
<path fill="none" stroke="#63b8ff" d="M1529.81,-118.33C1438.63,-117.41 1154.55,-111.62 911.12,-73.98"/>
<polygon fill="#63b8ff" stroke="#63b8ff" points="911.44,-70.49 901.02,-72.39 910.36,-77.4 911.44,-70.49"/>
</a>
</g>
</g>
<!-- Node16 -->
<g id="Node000016" class="node">
<title>Node16</title>
<g id="a_Node000016"><a xlink:href="Cinfo_8h.html" target="_top" xlink:title=" ">
<polygon fill="white" stroke="#666666" points="970,-74 919,-74 919,-55 970,-55 970,-74"/>
<text text-anchor="middle" x="944.5" y="-62" font-family="Ubuntu Mono" font-size="10.00">Cinfo.h</text>
</a>
</g>
</g>
<!-- Node2&#45;&gt;Node16 -->
<g id="edge15_Node000002_Node000016" class="edge">
<title>Node2&#45;&gt;Node16</title>
<g id="a_edge15_Node000002_Node000016"><a xlink:title=" ">
<path fill="none" stroke="#63b8ff" d="M1529.73,-117.91C1445.14,-115.88 1196.15,-107.43 979.96,-73.77"/>
<polygon fill="#63b8ff" stroke="#63b8ff" points="980.44,-70.3 970.02,-72.2 979.35,-77.22 980.44,-70.3"/>
</a>
</g>
</g>
<!-- Node17 -->
<g id="Node000017" class="node">
<title>Node17</title>
<g id="a_Node000017"><a xlink:href="basecode_2Finfo_8h.html" target="_top" xlink:title=" ">
<polygon fill="white" stroke="#666666" points="1038.5,-74 988.5,-74 988.5,-55 1038.5,-55 1038.5,-74"/>
<text text-anchor="middle" x="1013.5" y="-62" font-family="Ubuntu Mono" font-size="10.00">Finfo.h</text>
</a>
</g>
</g>
<!-- Node2&#45;&gt;Node17 -->
<g id="edge16_Node000002_Node000017" class="edge">
<title>Node2&#45;&gt;Node17</title>
<g id="a_edge16_Node000002_Node000017"><a xlink:title=" ">
<path fill="none" stroke="#63b8ff" d="M1529.86,-117.56C1452.3,-114.77 1236.97,-104.78 1048.73,-73.94"/>
<polygon fill="#63b8ff" stroke="#63b8ff" points="1049.1,-70.45 1038.66,-72.26 1047.95,-77.35 1049.1,-70.45"/>
</a>
</g>
</g>
<!-- Node18 -->
<g id="Node000018" class="node">
<title>Node18</title>
<g id="a_Node000018"><a xlink:href="DestFinfo_8h.html" target="_top" xlink:title=" ">
<polygon fill="white" stroke="#666666" points="1128.5,-74 1056.5,-74 1056.5,-55 1128.5,-55 1128.5,-74"/>
<text text-anchor="middle" x="1092.5" y="-62" font-family="Ubuntu Mono" font-size="10.00">DestFinfo.h</text>
</a>
</g>
</g>
<!-- Node2&#45;&gt;Node18 -->
<g id="edge17_Node000002_Node000018" class="edge">
<title>Node2&#45;&gt;Node18</title>
<g id="a_edge17_Node000002_Node000018"><a xlink:title=" ">
<path fill="none" stroke="#63b8ff" d="M1529.98,-116.22C1462.52,-110.84 1291.74,-96.2 1138.85,-74.09"/>
<polygon fill="#63b8ff" stroke="#63b8ff" points="1139.21,-70.6 1128.81,-72.62 1138.2,-77.53 1139.21,-70.6"/>
</a>
</g>
</g>
<!-- Node19 -->
<g id="Node000019" class="node">
<title>Node19</title>
<g id="a_Node000019"><a xlink:href="ProcInfo_8h.html" target="_top" xlink:title=" ">
<polygon fill="white" stroke="#666666" points="1212,-74 1147,-74 1147,-55 1212,-55 1212,-74"/>
<text text-anchor="middle" x="1179.5" y="-62" font-family="Ubuntu Mono" font-size="10.00">ProcInfo.h</text>
</a>
</g>
</g>
<!-- Node2&#45;&gt;Node19 -->
<g id="edge18_Node000002_Node000019" class="edge">
<title>Node2&#45;&gt;Node19</title>
<g id="a_edge18_Node000002_Node000019"><a xlink:title=" ">
<path fill="none" stroke="#63b8ff" d="M1529.92,-115.36C1472.5,-109.11 1341.75,-94.1 1222.19,-74.18"/>
<polygon fill="#63b8ff" stroke="#63b8ff" points="1222.57,-70.7 1212.13,-72.49 1221.41,-77.6 1222.57,-70.7"/>
</a>
</g>
</g>
<!-- Node20 -->
<g id="Node000020" class="node">
<title>Node20</title>
<g id="a_Node000020"><a xlink:href="MsgFuncBinding_8h.html" target="_top" xlink:title=" ">
<polygon fill="white" stroke="#666666" points="1335,-74 1230,-74 1230,-55 1335,-55 1335,-74"/>
<text text-anchor="middle" x="1282.5" y="-62" font-family="Ubuntu Mono" font-size="10.00">MsgFuncBinding.h</text>
</a>
</g>
</g>
<!-- Node2&#45;&gt;Node20 -->
<g id="edge19_Node000002_Node000020" class="edge">
<title>Node2&#45;&gt;Node20</title>
<g id="a_edge19_Node000002_Node000020"><a xlink:title=" ">
<path fill="none" stroke="#63b8ff" d="M1529.86,-112.83C1483.91,-104.04 1394.77,-86.98 1336.99,-75.93"/>
<polygon fill="#63b8ff" stroke="#63b8ff" points="1337.42,-72.44 1326.94,-74 1336.1,-79.32 1337.42,-72.44"/>
</a>
</g>
</g>
<!-- Node21 -->
<g id="Node000021" class="node">
<title>Node21</title>
<g id="a_Node000021"><a xlink:href="Msg_8h.html" target="_top" xlink:title=" ">
<polygon fill="white" stroke="#666666" points="1432,-74 1353,-74 1353,-55 1432,-55 1432,-74"/>
<text text-anchor="middle" x="1392.5" y="-62" font-family="Ubuntu Mono" font-size="10.00">../msg/Msg.h</text>
</a>
</g>
</g>
<!-- Node2&#45;&gt;Node21 -->
<g id="edge20_Node000002_Node000021" class="edge">
<title>Node2&#45;&gt;Node21</title>
<g id="a_edge20_Node000002_Node000021"><a xlink:title=" ">
<path fill="none" stroke="#63b8ff" d="M1532.67,-109.98C1504.63,-101.09 1460.45,-87.07 1429.2,-77.15"/>
<polygon fill="#63b8ff" stroke="#63b8ff" points="1430.13,-73.77 1419.54,-74.08 1428.01,-80.44 1430.13,-73.77"/>
</a>
</g>
</g>
<!-- Node22 -->
<g id="Node000022" class="node">
<title>Node22</title>
<g id="a_Node000022"><a xlink:href="Dinfo_8h.html" target="_top" xlink:title=" ">
<polygon fill="white" stroke="#666666" points="1502.5,-74 1450.5,-74 1450.5,-55 1502.5,-55 1502.5,-74"/>
<text text-anchor="middle" x="1476.5" y="-62" font-family="Ubuntu Mono" font-size="10.00">Dinfo.h</text>
</a>
</g>
</g>
<!-- Node2&#45;&gt;Node22 -->
<g id="edge21_Node000002_Node000022" class="edge">
<title>Node2&#45;&gt;Node22</title>
<g id="a_edge21_Node000002_Node000022"><a xlink:title=" ">
<path fill="none" stroke="#63b8ff" d="M1546.16,-109.98C1533.41,-101.84 1513.95,-89.41 1498.83,-79.76"/>
<polygon fill="#63b8ff" stroke="#63b8ff" points="1500.39,-76.6 1490.08,-74.17 1496.62,-82.5 1500.39,-76.6"/>
</a>
</g>
</g>
<!-- Node23 -->
<g id="Node000023" class="node">
<title>Node23</title>
<g id="a_Node000023"><a xlink:href="MsgDigest_8h.html" target="_top" xlink:title=" ">
<polygon fill="white" stroke="#666666" points="1598,-74 1521,-74 1521,-55 1598,-55 1598,-74"/>
<text text-anchor="middle" x="1559.5" y="-62" font-family="Ubuntu Mono" font-size="10.00">MsgDigest.h</text>
</a>
</g>
</g>
<!-- Node2&#45;&gt;Node23 -->
<g id="edge22_Node000002_Node000023" class="edge">
<title>Node2&#45;&gt;Node23</title>
<g id="a_edge22_Node000002_Node000023"><a xlink:title=" ">
<path fill="none" stroke="#63b8ff" d="M1559.5,-109.75C1559.5,-102.8 1559.5,-92.85 1559.5,-84.13"/>
<polygon fill="#63b8ff" stroke="#63b8ff" points="1563,-84.09 1559.5,-74.09 1556,-84.09 1563,-84.09"/>
</a>
</g>
</g>
<!-- Node24 -->
<g id="Node000024" class="node">
<title>Node24</title>
<g id="a_Node000024"><a xlink:href="Element_8h.html" target="_top" xlink:title=" ">
<polygon fill="white" stroke="#666666" points="1682.5,-74 1616.5,-74 1616.5,-55 1682.5,-55 1682.5,-74"/>
<text text-anchor="middle" x="1649.5" y="-62" font-family="Ubuntu Mono" font-size="10.00">Element.h</text>
</a>
</g>
</g>
<!-- Node2&#45;&gt;Node24 -->
<g id="edge23_Node000002_Node000024" class="edge">
<title>Node2&#45;&gt;Node24</title>
<g id="a_edge23_Node000002_Node000024"><a xlink:title=" ">
<path fill="none" stroke="#63b8ff" d="M1573.96,-109.98C1587.92,-101.77 1609.29,-89.18 1625.75,-79.49"/>
<polygon fill="#63b8ff" stroke="#63b8ff" points="1627.94,-82.26 1634.78,-74.17 1624.38,-76.23 1627.94,-82.26"/>
</a>
</g>
</g>
<!-- Node25 -->
<g id="Node000025" class="node">
<title>Node25</title>
<g id="a_Node000025"><a xlink:href="DataElement_8h.html" target="_top" xlink:title=" ">
<polygon fill="white" stroke="#666666" points="1790,-74 1701,-74 1701,-55 1790,-55 1790,-74"/>
<text text-anchor="middle" x="1745.5" y="-62" font-family="Ubuntu Mono" font-size="10.00">DataElement.h</text>
</a>
</g>
</g>
<!-- Node2&#45;&gt;Node25 -->
<g id="edge24_Node000002_Node000025" class="edge">
<title>Node2&#45;&gt;Node25</title>
<g id="a_edge24_Node000002_Node000025"><a xlink:title=" ">
<path fill="none" stroke="#63b8ff" d="M1589.38,-109.98C1620.88,-101.01 1670.67,-86.82 1705.53,-76.89"/>
<polygon fill="#63b8ff" stroke="#63b8ff" points="1706.72,-80.19 1715.38,-74.08 1704.81,-73.46 1706.72,-80.19"/>
</a>
</g>
</g>
<!-- Node26 -->
<g id="Node000026" class="node">
<title>Node26</title>
<g id="a_Node000026"><a xlink:href="GlobalDataElement_8h.html" target="_top" xlink:title=" ">
<polygon fill="white" stroke="#666666" points="1929,-74 1808,-74 1808,-55 1929,-55 1929,-74"/>
<text text-anchor="middle" x="1868.5" y="-62" font-family="Ubuntu Mono" font-size="10.00">GlobalDataElement.h</text>
</a>
</g>
</g>
<!-- Node2&#45;&gt;Node26 -->
<g id="edge25_Node000002_Node000026" class="edge">
<title>Node2&#45;&gt;Node26</title>
<g id="a_edge25_Node000002_Node000026"><a xlink:title=" ">
<path fill="none" stroke="#63b8ff" d="M1589.13,-113.42C1639.46,-104.79 1742.59,-87.1 1808.48,-75.79"/>
<polygon fill="#63b8ff" stroke="#63b8ff" points="1809.46,-79.18 1818.73,-74.04 1808.28,-72.28 1809.46,-79.18"/>
</a>
</g>
</g>
<!-- Node27 -->
<g id="Node000027" class="node">
<title>Node27</title>
<g id="a_Node000027"><a xlink:href="LocalDataElement_8h.html" target="_top" xlink:title=" ">
<polygon fill="white" stroke="#666666" points="2062,-74 1947,-74 1947,-55 2062,-55 2062,-74"/>
<text text-anchor="middle" x="2004.5" y="-62" font-family="Ubuntu Mono" font-size="10.00">LocalDataElement.h</text>
</a>
</g>
</g>
<!-- Node2&#45;&gt;Node27 -->
<g id="edge26_Node000002_Node000027" class="edge">
<title>Node2&#45;&gt;Node27</title>
<g id="a_edge26_Node000002_Node000027"><a xlink:title=" ">
<path fill="none" stroke="#63b8ff" d="M1589.4,-115.07C1651.75,-107.91 1800.46,-90.71 1936.57,-74.1"/>
<polygon fill="#63b8ff" stroke="#63b8ff" points="1937.26,-77.55 1946.76,-72.86 1936.41,-70.6 1937.26,-77.55"/>
</a>
</g>
</g>
<!-- Node28 -->
<g id="Node000028" class="node">
<title>Node28</title>
<g id="a_Node000028"><a xlink:href="Eref_8h.html" target="_top" xlink:title=" ">
<polygon fill="white" stroke="#666666" points="2124.5,-74 2080.5,-74 2080.5,-55 2124.5,-55 2124.5,-74"/>
<text text-anchor="middle" x="2102.5" y="-62" font-family="Ubuntu Mono" font-size="10.00">Eref.h</text>
</a>
</g>
</g>
<!-- Node2&#45;&gt;Node28 -->
<g id="edge27_Node000002_Node000028" class="edge">
<title>Node2&#45;&gt;Node28</title>
<g id="a_edge27_Node000002_Node000028"><a xlink:title=" ">
<path fill="none" stroke="#63b8ff" d="M1589.11,-117.71C1666.57,-115.26 1881.62,-106.03 2070.14,-73.7"/>
<polygon fill="#63b8ff" stroke="#63b8ff" points="2070.98,-77.11 2080.23,-71.94 2069.78,-70.21 2070.98,-77.11"/>
</a>
</g>
</g>
<!-- Node29 -->
<g id="Node000029" class="node">
<title>Node29</title>
<g id="a_Node000029"><a xlink:href="Conv_8h.html" target="_top" xlink:title=" ">
<polygon fill="white" stroke="#666666" points="2270.5,-74 2220.5,-74 2220.5,-55 2270.5,-55 2270.5,-74"/>
<text text-anchor="middle" x="2245.5" y="-62" font-family="Ubuntu Mono" font-size="10.00">Conv.h</text>
</a>
</g>
</g>
<!-- Node2&#45;&gt;Node29 -->
<g id="edge28_Node000002_Node000029" class="edge">
<title>Node2&#45;&gt;Node29</title>
<g id="a_edge28_Node000002_Node000029"><a xlink:title=" ">
<path fill="none" stroke="#63b8ff" d="M1589.22,-118.26C1681.78,-117.13 1972.87,-110.7 2210.5,-74 2210.6,-73.98 2210.7,-73.97 2210.8,-73.95"/>
<polygon fill="#63b8ff" stroke="#63b8ff" points="2211.19,-77.44 2220.37,-72.14 2209.89,-70.56 2211.19,-77.44"/>
</a>
</g>
</g>
<!-- Node31 -->
<g id="Node000031" class="node">
<title>Node31</title>
<g id="a_Node000031"><a xlink:href="SrcFinfo_8h.html" target="_top" xlink:title=" ">
<polygon fill="white" stroke="#666666" points="2378,-19 2313,-19 2313,0 2378,0 2378,-19"/>
<text text-anchor="middle" x="2345.5" y="-7" font-family="Ubuntu Mono" font-size="10.00">SrcFinfo.h</text>
</a>
</g>
</g>
<!-- Node2&#45;&gt;Node31 -->
<g id="edge30_Node000002_Node000031" class="edge">
<title>Node2&#45;&gt;Node31</title>
<g id="a_edge30_Node000002_Node000031"><a xlink:title=" ">
<path fill="none" stroke="#63b8ff" d="M1589.12,-117.87C1716.68,-115.01 2215.58,-102.08 2279.5,-74 2302.38,-63.95 2322.04,-42.31 2333.81,-27.09"/>
<polygon fill="#63b8ff" stroke="#63b8ff" points="2336.66,-29.13 2339.8,-19.02 2331.03,-24.97 2336.66,-29.13"/>
</a>
</g>
</g>
<!-- Node32 -->
<g id="Node000032" class="node">
<title>Node32</title>
<g id="a_Node000032"><a xlink:href="OpFuncBase_8h.html" target="_top" xlink:title=" ">
<polygon fill="white" stroke="#666666" points="2412.5,-74 2326.5,-74 2326.5,-55 2412.5,-55 2412.5,-74"/>
<text text-anchor="middle" x="2369.5" y="-62" font-family="Ubuntu Mono" font-size="10.00">OpFuncBase.h</text>
</a>
</g>
</g>
<!-- Node2&#45;&gt;Node32 -->
<g id="edge31_Node000002_Node000032" class="edge">
<title>Node2&#45;&gt;Node32</title>
<g id="a_edge31_Node000002_Node000032"><a xlink:title=" ">
<path fill="none" stroke="#63b8ff" d="M1589.35,-117.69C1690.88,-114.73 2032.12,-103.13 2312.5,-74 2313.76,-73.87 2315.03,-73.73 2316.32,-73.58"/>
<polygon fill="#63b8ff" stroke="#63b8ff" points="2316.79,-77.05 2326.29,-72.36 2315.94,-70.11 2316.79,-77.05"/>
</a>
</g>
</g>
<!-- Node2&#45;&gt;Node33 -->
<g id="edge33_Node000002_Node000033" class="edge">
<title>Node2&#45;&gt;Node33</title>
<g id="a_edge33_Node000002_Node000033"><a xlink:title=" ">
<path fill="none" stroke="#63b8ff" d="M1589.04,-118.46C1791.31,-118.08 2974.9,-114.2 3358.31,-73.88"/>
<polygon fill="#63b8ff" stroke="#63b8ff" points="3358.75,-77.36 3368.31,-72.8 3358,-70.4 3358.75,-77.36"/>
</a>
</g>
</g>
<!-- Node34 -->
<g id="Node000034" class="node">
<title>Node34</title>
<g id="a_Node000034"><a xlink:href="SetGet_8h.html" target="_top" xlink:title=" ">
<polygon fill="white" stroke="#666666" points="2202,-74 2143,-74 2143,-55 2202,-55 2202,-74"/>
<text text-anchor="middle" x="2172.5" y="-62" font-family="Ubuntu Mono" font-size="10.00">SetGet.h</text>
</a>
</g>
</g>
<!-- Node2&#45;&gt;Node34 -->
<g id="edge34_Node000002_Node000034" class="edge">
<title>Node2&#45;&gt;Node34</title>
<g id="a_edge34_Node000002_Node000034"><a xlink:title=" ">
<path fill="none" stroke="#63b8ff" d="M1589.23,-117.63C1673.1,-114.89 1918.74,-104.75 2132.61,-73.9"/>
<polygon fill="#63b8ff" stroke="#63b8ff" points="2133.38,-77.33 2142.77,-72.42 2132.37,-70.4 2133.38,-77.33"/>
</a>
</g>
</g>
<!-- Node35 -->
<g id="Node000035" class="node">
<title>Node35</title>
<g id="a_Node000035"><a xlink:href="OpFunc_8h.html" target="_top" xlink:title=" ">
<polygon fill="white" stroke="#666666" points="2492.5,-74 2430.5,-74 2430.5,-55 2492.5,-55 2492.5,-74"/>
<text text-anchor="middle" x="2461.5" y="-62" font-family="Ubuntu Mono" font-size="10.00">OpFunc.h</text>
</a>
</g>
</g>
<!-- Node2&#45;&gt;Node35 -->
<g id="edge36_Node000002_Node000035" class="edge">
<title>Node2&#45;&gt;Node35</title>
<g id="a_edge36_Node000002_Node000035"><a xlink:title=" ">
<path fill="none" stroke="#63b8ff" d="M1589.05,-118.66C1698.21,-118.89 2089.1,-116.6 2419.88,-73.99"/>
<polygon fill="#63b8ff" stroke="#63b8ff" points="2420.67,-77.42 2430.14,-72.65 2419.77,-70.48 2420.67,-77.42"/>
</a>
</g>
</g>
<!-- Node36 -->
<g id="Node000036" class="node">
<title>Node36</title>
<g id="a_Node000036"><a xlink:href="EpFunc_8h.html" target="_top" xlink:title=" ">
<polygon fill="white" stroke="#666666" points="2570.5,-74 2510.5,-74 2510.5,-55 2570.5,-55 2570.5,-74"/>
<text text-anchor="middle" x="2540.5" y="-62" font-family="Ubuntu Mono" font-size="10.00">EpFunc.h</text>
</a>
</g>
</g>
<!-- Node2&#45;&gt;Node36 -->
<g id="edge37_Node000002_Node000036" class="edge">
<title>Node2&#45;&gt;Node36</title>
<g id="a_edge37_Node000002_Node000036"><a xlink:title=" ">
<path fill="none" stroke="#63b8ff" d="M1589.36,-118.9C1705.31,-120.08 2136.9,-120.95 2500.43,-73.89"/>
<polygon fill="#63b8ff" stroke="#63b8ff" points="2500.89,-77.36 2510.35,-72.59 2499.98,-70.42 2500.89,-77.36"/>
</a>
</g>
</g>
<!-- Node37 -->
<g id="Node000037" class="node">
<title>Node37</title>
<g id="a_Node000037"><a xlink:href="ProcOpFunc_8h.html" target="_top" xlink:title=" ">
<polygon fill="white" stroke="#666666" points="2672,-74 2589,-74 2589,-55 2672,-55 2672,-74"/>
<text text-anchor="middle" x="2630.5" y="-62" font-family="Ubuntu Mono" font-size="10.00">ProcOpFunc.h</text>
</a>
</g>
</g>
<!-- Node2&#45;&gt;Node37 -->
<g id="edge38_Node000002_Node000037" class="edge">
<title>Node2&#45;&gt;Node37</title>
<g id="a_edge38_Node000002_Node000037"><a xlink:title=" ">
<path fill="none" stroke="#63b8ff" d="M1589.22,-118.52C1710.71,-118.33 2181.56,-114.92 2578.85,-73.91"/>
<polygon fill="#63b8ff" stroke="#63b8ff" points="2579.22,-77.39 2588.81,-72.87 2578.5,-70.43 2579.22,-77.39"/>
</a>
</g>
</g>
<!-- Node38 -->
<g id="Node000038" class="node">
<title>Node38</title>
<g id="a_Node000038"><a xlink:href="ValueFinfo_8h.html" target="_top" xlink:title=" ">
<polygon fill="white" stroke="#666666" points="2767,-74 2690,-74 2690,-55 2767,-55 2767,-74"/>
<text text-anchor="middle" x="2728.5" y="-62" font-family="Ubuntu Mono" font-size="10.00">ValueFinfo.h</text>
</a>
</g>
</g>
<!-- Node2&#45;&gt;Node38 -->
<g id="edge39_Node000002_Node000038" class="edge">
<title>Node2&#45;&gt;Node38</title>
<g id="a_edge39_Node000002_Node000038"><a xlink:title=" ">
<path fill="none" stroke="#63b8ff" d="M1589.05,-118.79C1717.57,-119.77 2240.66,-120.58 2679.76,-73.9"/>
<polygon fill="#63b8ff" stroke="#63b8ff" points="2680.22,-77.37 2689.79,-72.82 2679.48,-70.41 2680.22,-77.37"/>
</a>
</g>
</g>
<!-- Node39 -->
<g id="Node000039" class="node">
<title>Node39</title>
<g id="a_Node000039"><a xlink:href="LookupValueFinfo_8h.html" target="_top" xlink:title=" ">
<polygon fill="white" stroke="#666666" points="2896,-74 2785,-74 2785,-55 2896,-55 2896,-74"/>
<text text-anchor="middle" x="2840.5" y="-62" font-family="Ubuntu Mono" font-size="10.00">LookupValueFinfo.h</text>
</a>
</g>
</g>
<!-- Node2&#45;&gt;Node39 -->
<g id="edge40_Node000002_Node000039" class="edge">
<title>Node2&#45;&gt;Node39</title>
<g id="a_edge40_Node000002_Node000039"><a xlink:title=" ">
<path fill="none" stroke="#63b8ff" d="M1589.19,-118.44C1724.36,-117.93 2295.25,-113.48 2774.63,-73.97"/>
<polygon fill="#63b8ff" stroke="#63b8ff" points="2775.19,-77.44 2784.87,-73.12 2774.61,-70.46 2775.19,-77.44"/>
</a>
</g>
</g>
<!-- Node40 -->
<g id="Node000040" class="node">
<title>Node40</title>
<g id="a_Node000040"><a xlink:href="SharedFinfo_8h.html" target="_top" xlink:title=" ">
<polygon fill="white" stroke="#666666" points="2997,-74 2914,-74 2914,-55 2997,-55 2997,-74"/>
<text text-anchor="middle" x="2955.5" y="-62" font-family="Ubuntu Mono" font-size="10.00">SharedFinfo.h</text>
</a>
</g>
</g>
<!-- Node2&#45;&gt;Node40 -->
<g id="edge41_Node000002_Node000040" class="edge">
<title>Node2&#45;&gt;Node40</title>
<g id="a_edge41_Node000002_Node000040"><a xlink:title=" ">
<path fill="none" stroke="#63b8ff" d="M1589.18,-118.05C1759.65,-115.4 2616.29,-100.97 2903.83,-73.88"/>
<polygon fill="#63b8ff" stroke="#63b8ff" points="2904.2,-77.36 2913.81,-72.91 2903.52,-70.39 2904.2,-77.36"/>
</a>
</g>
</g>
<!-- Node41 -->
<g id="Node000041" class="node">
<title>Node41</title>
<g id="a_Node000041"><a xlink:href="FieldElementFinfo_8h.html" target="_top" xlink:title=" ">
<polygon fill="white" stroke="#666666" points="3128,-74 3015,-74 3015,-55 3128,-55 3128,-74"/>
<text text-anchor="middle" x="3071.5" y="-62" font-family="Ubuntu Mono" font-size="10.00">FieldElementFinfo.h</text>
</a>
</g>
</g>
<!-- Node2&#45;&gt;Node41 -->
<g id="edge42_Node000002_Node000041" class="edge">
<title>Node2&#45;&gt;Node41</title>
<g id="a_edge42_Node000002_Node000041"><a xlink:title=" ">
<path fill="none" stroke="#63b8ff" d="M1589.08,-118.66C1738.91,-119.23 2429.01,-119.23 3004.49,-73.98"/>
<polygon fill="#63b8ff" stroke="#63b8ff" points="3004.96,-77.46 3014.65,-73.18 3004.41,-70.48 3004.96,-77.46"/>
</a>
</g>
</g>
<!-- Node42 -->
<g id="Node000042" class="node">
<title>Node42</title>
<g id="a_Node000042"><a xlink:href="FieldElement_8h.html" target="_top" xlink:title=" ">
<polygon fill="white" stroke="#666666" points="3235,-74 3146,-74 3146,-55 3235,-55 3235,-74"/>
<text text-anchor="middle" x="3190.5" y="-62" font-family="Ubuntu Mono" font-size="10.00">FieldElement.h</text>
</a>
</g>
</g>
<!-- Node2&#45;&gt;Node42 -->
<g id="edge43_Node000002_Node000042" class="edge">
<title>Node2&#45;&gt;Node42</title>
<g id="a_edge43_Node000002_Node000042"><a xlink:title=" ">
<path fill="none" stroke="#63b8ff" d="M1589.22,-118.18C1776.71,-116.09 2798.36,-103.55 3135.51,-73.92"/>
<polygon fill="#63b8ff" stroke="#63b8ff" points="3136.12,-77.38 3145.77,-72.99 3135.49,-70.41 3136.12,-77.38"/>
</a>
</g>
</g>
<!-- Node43 -->
<g id="Node000043" class="node">
<title>Node43</title>
<g id="a_Node000043"><a xlink:href="Neutral_8h.html" target="_top" xlink:title=" ">
<polygon fill="white" stroke="#666666" points="3350,-74 3253,-74 3253,-55 3350,-55 3350,-74"/>
<text text-anchor="middle" x="3301.5" y="-62" font-family="Ubuntu Mono" font-size="10.00">../shell/Neutral.h</text>
</a>
</g>
</g>
<!-- Node2&#45;&gt;Node43 -->
<g id="edge44_Node000002_Node000043" class="edge">
<title>Node2&#45;&gt;Node43</title>
<g id="a_edge44_Node000002_Node000043"><a xlink:title=" ">
<path fill="none" stroke="#63b8ff" d="M1589.3,-118.2C1784.43,-116.15 2882.66,-103.51 3242.64,-73.92"/>
<polygon fill="#63b8ff" stroke="#63b8ff" points="3243.14,-77.39 3252.81,-73.06 3242.56,-70.42 3243.14,-77.39"/>
</a>
</g>
</g>
<!-- Node30 -->
<g id="Node000030" class="node">
<title>Node30</title>
<g id="a_Node000030"><a xlink:title=" ">
<polygon fill="#e0e0e0" stroke="#999999" points="2270.5,-19 2220.5,-19 2220.5,0 2270.5,0 2270.5,-19"/>
<text text-anchor="middle" x="2245.5" y="-7" font-family="Ubuntu Mono" font-size="10.00">cstring</text>
</a>
</g>
</g>
<!-- Node29&#45;&gt;Node30 -->
<g id="edge29_Node000029_Node000030" class="edge">
<title>Node29&#45;&gt;Node30</title>
<g id="a_edge29_Node000029_Node000030"><a xlink:title=" ">
<path fill="none" stroke="#63b8ff" d="M2245.5,-54.75C2245.5,-47.8 2245.5,-37.85 2245.5,-29.13"/>
<polygon fill="#63b8ff" stroke="#63b8ff" points="2249,-29.09 2245.5,-19.09 2242,-29.09 2249,-29.09"/>
</a>
</g>
</g>
<!-- Node32&#45;&gt;Node31 -->
<g id="edge32_Node000032_Node000031" class="edge">
<title>Node32&#45;&gt;Node31</title>
<g id="a_edge32_Node000032_Node000031"><a xlink:title=" ">
<path fill="none" stroke="#63b8ff" d="M2365.54,-54.75C2362.29,-47.57 2357.58,-37.18 2353.55,-28.27"/>
<polygon fill="#63b8ff" stroke="#63b8ff" points="2356.7,-26.75 2349.39,-19.09 2350.33,-29.64 2356.7,-26.75"/>
</a>
</g>
</g>
<!-- Node34&#45;&gt;Node11 -->
<g id="edge35_Node000034_Node000011" class="edge">
<title>Node34&#45;&gt;Node11</title>
<g id="a_edge35_Node000034_Node000011"><a xlink:title=" ">
<path fill="none" stroke="#63b8ff" d="M2142.77,-56.53C2139.65,-55.94 2136.52,-55.42 2133.5,-55 1866.31,-18.1 1540.81,-11.79 1430.32,-10.72"/>
<polygon fill="#63b8ff" stroke="#63b8ff" points="1430.34,-7.22 1420.31,-10.63 1430.27,-14.22 1430.34,-7.22"/>
</a>
</g>
</g>
</g>
</svg>
