<?xml version="1.0" encoding="UTF-8" standalone="no"?>
<!DOCTYPE svg PUBLIC "-//W3C//DTD SVG 1.1//EN"
 "http://www.w3.org/Graphics/SVG/1.1/DTD/svg11.dtd">
<!-- Generated by graphviz version 2.43.0 (0)
 -->
<!-- Title: innerGetVec Pages: 1 -->
<svg width="254pt" height="286pt"
 viewBox="0.00 0.00 254.00 286.00" xmlns="http://www.w3.org/2000/svg" xmlns:xlink="http://www.w3.org/1999/xlink">

<svg id="main" version="1.1" xmlns="http://www.w3.org/2000/svg" xmlns:xlink="http://www.w3.org/1999/xlink" xml:space="preserve" onload="init(evt)">
<style type="text/css"><![CDATA[
.node, .edge {opacity: 0.7;}
.node.selected, .edge.selected {opacity: 1;}
.edge:hover path { stroke: red; }
.edge:hover polygon { stroke: red; fill: red; }
]]></style>
<script type="application/ecmascript" xlink:href="svg.min.js"/>
<svg id="graph" class="graph">
<g id="graph0" class="graph" transform="scale(1 1) rotate(0) translate(4 282)">
<title>innerGetVec</title>
<!-- Node1 -->
<g id="Node000001" class="node">
<title>Node1</title>
<g id="a_Node000001"><a xlink:title=" ">
<polygon fill="#999999" stroke="#666666" points="76,-148 0,-148 0,-129 76,-129 76,-148"/>
<text text-anchor="middle" x="38" y="-136" font-family="Ubuntu Mono" font-size="10.00">innerGetVec</text>
</a>
</g>
</g>
<!-- Node2 -->
<g id="Node000002" class="node">
<title>Node2</title>
<g id="a_Node000002"><a xlink:href="classEref.html#aca13ad32862935d4a33109785d0f01d7" target="_top" xlink:title=" ">
<polygon fill="white" stroke="#666666" points="224,-278 134,-278 134,-259 224,-259 224,-278"/>
<text text-anchor="middle" x="179" y="-266" font-family="Ubuntu Mono" font-size="10.00">Eref::dataIndex</text>
</a>
</g>
</g>
<!-- Node1&#45;&gt;Node2 -->
<g id="edge1_Node000001_Node000002" class="edge">
<title>Node1&#45;&gt;Node2</title>
<g id="a_edge1_Node000001_Node000002"><a xlink:title=" ">
<path fill="none" stroke="#63b8ff" d="M42.57,-148.31C51.03,-170.18 74.48,-223.16 112,-250.5 115.72,-253.21 119.82,-255.51 124.11,-257.47"/>
<polygon fill="#63b8ff" stroke="#63b8ff" points="123.12,-260.84 133.71,-261.22 125.67,-254.32 123.12,-260.84"/>
</a>
</g>
</g>
<!-- Node3 -->
<g id="Node000003" class="node">
<title>Node3</title>
<g id="a_Node000003"><a xlink:href="classEref.html#a47b59ab86165cceb0bde80c76c3f7fa2" target="_top" xlink:title=" ">
<polygon fill="white" stroke="#666666" points="220,-241 138,-241 138,-222 220,-222 220,-241"/>
<text text-anchor="middle" x="179" y="-229" font-family="Ubuntu Mono" font-size="10.00">Eref::element</text>
</a>
</g>
</g>
<!-- Node1&#45;&gt;Node3 -->
<g id="edge2_Node000001_Node000003" class="edge">
<title>Node1&#45;&gt;Node3</title>
<g id="a_edge2_Node000001_Node000003"><a xlink:title=" ">
<path fill="none" stroke="#63b8ff" d="M45.67,-148.15C57.27,-164.18 82.73,-196.25 112,-213.5 117.05,-216.47 122.6,-218.97 128.28,-221.06"/>
<polygon fill="#63b8ff" stroke="#63b8ff" points="127.28,-224.42 137.88,-224.22 129.47,-217.77 127.28,-224.42"/>
</a>
</g>
</g>
<!-- Node4 -->
<g id="Node000004" class="node">
<title>Node4</title>
<g id="a_Node000004"><a xlink:href="classEref.html#a3addb850bc6cbac7771a07de219d909d" target="_top" xlink:title=" ">
<polygon fill="white" stroke="#666666" points="209.5,-204 148.5,-204 148.5,-185 209.5,-185 209.5,-204"/>
<text text-anchor="middle" x="179" y="-192" font-family="Ubuntu Mono" font-size="10.00">Eref::Eref</text>
</a>
</g>
</g>
<!-- Node1&#45;&gt;Node4 -->
<g id="edge3_Node000001_Node000004" class="edge">
<title>Node1&#45;&gt;Node4</title>
<g id="a_edge3_Node000001_Node000004"><a xlink:title=" ">
<path fill="none" stroke="#63b8ff" d="M55.06,-148.13C69.54,-156.51 91.64,-168.53 112,-176.5 120.44,-179.8 129.71,-182.74 138.56,-185.23"/>
<polygon fill="#63b8ff" stroke="#63b8ff" points="137.76,-188.63 148.32,-187.84 139.57,-181.87 137.76,-188.63"/>
</a>
</g>
</g>
<!-- Node5 -->
<g id="Node000005" class="node">
<title>Node5</title>
<g id="a_Node000005"><a xlink:href="classElement.html#a8489d936deee408d78042cf199694bb5" target="_top" xlink:title=" ">
<polygon fill="white" stroke="#666666" points="233.5,-167 124.5,-167 124.5,-148 233.5,-148 233.5,-167"/>
<text text-anchor="middle" x="179" y="-155" font-family="Ubuntu Mono" font-size="10.00">Element::hasFields</text>
</a>
</g>
</g>
<!-- Node1&#45;&gt;Node5 -->
<g id="edge4_Node000001_Node000005" class="edge">
<title>Node1&#45;&gt;Node5</title>
<g id="a_edge4_Node000001_Node000005"><a xlink:title=" ">
<path fill="none" stroke="#63b8ff" d="M76.25,-143.59C88.04,-145.2 101.42,-147.03 114.52,-148.82"/>
<polygon fill="#63b8ff" stroke="#63b8ff" points="114.06,-152.29 124.45,-150.18 115.01,-145.36 114.06,-152.29"/>
</a>
</g>
</g>
<!-- Node6 -->
<g id="Node000006" class="node">
<title>Node6</title>
<g id="a_Node000006"><a xlink:href="classElement.html#a8d7debb27e67d5fc97697cddc9d69542" target="_top" xlink:title="Returns index of first data entry on this node.">
<polygon fill="white" stroke="#666666" points="245.5,-130 112.5,-130 112.5,-111 245.5,-111 245.5,-130"/>
<text text-anchor="middle" x="179" y="-118" font-family="Ubuntu Mono" font-size="10.00">Element::localDataStart</text>
</a>
</g>
</g>
<!-- Node1&#45;&gt;Node6 -->
<g id="edge5_Node000001_Node000006" class="edge">
<title>Node1&#45;&gt;Node6</title>
<g id="a_edge5_Node000001_Node000006"><a xlink:title=" ">
<path fill="none" stroke="#63b8ff" d="M76.25,-133.68C84.46,-132.61 93.44,-131.45 102.56,-130.27"/>
<polygon fill="#63b8ff" stroke="#63b8ff" points="103.01,-133.74 112.47,-128.99 102.11,-126.8 103.01,-133.74"/>
</a>
</g>
</g>
<!-- Node7 -->
<g id="Node000007" class="node">
<title>Node7</title>
<g id="a_Node000007"><a xlink:href="classElement.html#aeb84ff73ecda4ab0a6feadb1ea443339" target="_top" xlink:title="Returns number of field entries for specified data.">
<polygon fill="white" stroke="#666666" points="233,-93 125,-93 125,-74 233,-74 233,-93"/>
<text text-anchor="middle" x="179" y="-81" font-family="Ubuntu Mono" font-size="10.00">Element::numField</text>
</a>
</g>
</g>
<!-- Node1&#45;&gt;Node7 -->
<g id="edge6_Node000001_Node000007" class="edge">
<title>Node1&#45;&gt;Node7</title>
<g id="a_edge6_Node000001_Node000007"><a xlink:title=" ">
<path fill="none" stroke="#63b8ff" d="M56.31,-128.87C70.86,-121.05 92.36,-110.1 112,-102.5 117.98,-100.18 124.37,-98 130.72,-96"/>
<polygon fill="#63b8ff" stroke="#63b8ff" points="132.05,-99.25 140.61,-93.01 130.03,-92.55 132.05,-99.25"/>
</a>
</g>
</g>
<!-- Node8 -->
<g id="Node000008" class="node">
<title>Node8</title>
<g id="a_Node000008"><a xlink:href="classElement.html#abee6d5e3b26374c8c196c6065543706d" target="_top" xlink:title="Returns number of local data entries on this node.">
<polygon fill="white" stroke="#666666" points="246,-56 112,-56 112,-37 246,-37 246,-56"/>
<text text-anchor="middle" x="179" y="-44" font-family="Ubuntu Mono" font-size="10.00">Element::numLocalData</text>
</a>
</g>
</g>
<!-- Node1&#45;&gt;Node8 -->
<g id="edge7_Node000001_Node000008" class="edge">
<title>Node1&#45;&gt;Node8</title>
<g id="a_edge7_Node000001_Node000008"><a xlink:title=" ">
<path fill="none" stroke="#63b8ff" d="M45.95,-128.91C57.76,-113.3 83.28,-82.43 112,-65.5 115.64,-63.35 119.54,-61.44 123.55,-59.73"/>
<polygon fill="#63b8ff" stroke="#63b8ff" points="124.96,-62.94 133.06,-56.11 122.47,-56.4 124.96,-62.94"/>
</a>
</g>
</g>
<!-- Node9 -->
<g id="Node000009" class="node">
<title>Node9</title>
<g id="a_Node000009"><a xlink:href="classOpFunc.html#a83f97633e96c50187e079629c9b644c8" target="_top" xlink:title="Executes the OpFunc by converting args.">
<polygon fill="white" stroke="#666666" points="229,-19 129,-19 129,0 229,0 229,-19"/>
<text text-anchor="middle" x="179" y="-7" font-family="Ubuntu Mono" font-size="10.00">OpFunc::opBuffer</text>
</a>
</g>
</g>
<!-- Node1&#45;&gt;Node9 -->
<g id="edge8_Node000001_Node000009" class="edge">
<title>Node1&#45;&gt;Node9</title>
<g id="a_edge8_Node000001_Node000009"><a xlink:title=" ">
<path fill="none" stroke="#63b8ff" d="M42.64,-128.9C51.27,-107.5 75.03,-55.6 112,-28.5 114.64,-26.56 117.48,-24.82 120.44,-23.26"/>
<polygon fill="#63b8ff" stroke="#63b8ff" points="121.96,-26.41 129.61,-19.07 119.06,-20.04 121.96,-26.41"/>
</a>
</g>
</g>
</g>
</svg>
</svg>

<style type='text/css'>
<![CDATA[
[data-mouse-over-selected='false'] { opacity: 0.7; }
[data-mouse-over-selected='true']  { opacity: 1.0; }
]]>
</style>
<script type="application/ecmascript"><![CDATA[
document.addEventListener('DOMContentLoaded', (event) => {
  highlightEdges();
  highlightAdjacentNodes();
});
]]></script>
</svg>
