<?xml version="1.0" encoding="UTF-8" standalone="no"?>
<!DOCTYPE svg PUBLIC "-//W3C//DTD SVG 1.1//EN"
 "http://www.w3.org/Graphics/SVG/1.1/DTD/svg11.dtd">
<!-- Generated by graphviz version 2.43.0 (0)
 -->
<!-- Title: /home/runner/work/mooseneuro.github.io/mooseneuro.github.io/docs/moose&#45;core/ksolve/RateTerm.cpp Pages: 1 -->
<!--zoomable 269 -->

<svg id="main" version="1.1" xmlns="http://www.w3.org/2000/svg" xmlns:xlink="http://www.w3.org/1999/xlink" xml:space="preserve" onload="init(evt)">
<style type="text/css"><![CDATA[
.node, .edge {opacity: 0.7;}
.node.selected, .edge.selected {opacity: 1;}
.edge:hover path { stroke: red; }
.edge:hover polygon { stroke: red; fill: red; }
]]></style>

<defs>
  <circle id="rim" cx="0" cy="0" r="7"/>
  <circle id="rim2" cx="0" cy="0" r="3.5"/>
  <g id="zoomPlus">
    <use xlink:href="#rim" fill="#404040"><set attributeName="fill" to="#808080" begin="zoomplus.mouseover" end="zoomplus.mouseout"/></use>
    <path d="M-4,0h8M0,-4v8" fill="none" stroke="white" stroke-width="1.5" pointer-events="none"/>
  </g>
  <g id="zoomMin">
    <use xlink:href="#rim" fill="#404040"><set attributeName="fill" to="#808080" begin="zoomminus.mouseover" end="zoomminus.mouseout"/></use>
    <path d="M-4,0h8" fill="none" stroke="white" stroke-width="1.5" pointer-events="none"/>
  </g>
  <g id="arrowUp" transform="translate(30 24)">
    <use xlink:href="#rim"/>
    <path pointer-events="none" fill="none" stroke="white" stroke-width="1.5" d="M0,-3.0v7 M-2.5,-0.5L0,-3.0L2.5,-0.5"/>
  </g>
  <g id="arrowRight" transform="rotate(90) translate(36 -43)">
    <use xlink:href="#rim"/>
    <path pointer-events="none" fill="none" stroke="white" stroke-width="1.5" d="M0,-3.0v7 M-2.5,-0.5L0,-3.0L2.5,-0.5"/>
  </g>
  <g id="arrowDown" transform="rotate(180) translate(-30 -48)">
    <use xlink:href="#rim"/>
    <path pointer-events="none" fill="none" stroke="white" stroke-width="1.5" d="M0,-3.0v7 M-2.5,-0.5L0,-3.0L2.5,-0.5"/>
  </g>
  <g id="arrowLeft" transform="rotate(270) translate(-36 17)">
    <use xlink:href="#rim"/>
    <path pointer-events="none" fill="none" stroke="white" stroke-width="1.5" d="M0,-3.0v7 M-2.5,-0.5L0,-3.0L2.5,-0.5"/>
  </g>
  <g id="resetDef">
    <use xlink:href="#rim2" fill="#404040"><set attributeName="fill" to="#808080" begin="reset.mouseover" end="reset.mouseout"/></use>
  </g>
</defs>
<script type="application/ecmascript">
var viewWidth = 3596;
var viewHeight = 269;
var sectionId = 'dynsection-0';
</script>
<script type="application/ecmascript" xlink:href="svg.min.js"/>
<svg id="graph" class="graph">
<g id="viewport">
<title>/home/runner/work/mooseneuro.github.io/mooseneuro.github.io/docs/moose&#45;core/ksolve/RateTerm.cpp</title>
<!-- Node1 -->
<g id="Node000001" class="node">
<title>Node1</title>
<g id="a_Node000001"><a xlink:title=" ">
<polygon fill="#999999" stroke="#666666" points="453.7,-261 235.7,-261 235.7,-220 453.7,-220 453.7,-261"/>
<text text-anchor="start" x="243.7" y="-249" font-family="Ubuntu Mono" font-size="10.00">/home/runner/work/mooseneuro.github.io</text>
<text text-anchor="start" x="243.7" y="-238" font-family="Ubuntu Mono" font-size="10.00">/mooseneuro.github.io/docs/moose</text>
<text text-anchor="middle" x="344.7" y="-227" font-family="Ubuntu Mono" font-size="10.00">&#45;core/ksolve/RateTerm.cpp</text>
</a>
</g>
</g>
<!-- Node2 -->
<g id="Node000002" class="node">
<title>Node2</title>
<g id="a_Node000002"><a xlink:title=" ">
<polygon fill="#e0e0e0" stroke="#999999" points="330.2,-129 279.2,-129 279.2,-110 330.2,-110 330.2,-129"/>
<text text-anchor="middle" x="304.7" y="-117" font-family="Ubuntu Mono" font-size="10.00">math.h</text>
</a>
</g>
</g>
<!-- Node1&#45;&gt;Node2 -->
<g id="edge1_Node000001_Node000002" class="edge">
<title>Node1&#45;&gt;Node2</title>
<g id="a_edge1_Node000001_Node000002"><a xlink:title=" ">
<path fill="none" stroke="#63b8ff" d="M338.09,-219.85C330.54,-197.37 318.26,-160.86 310.89,-138.91"/>
<polygon fill="#63b8ff" stroke="#63b8ff" points="314.12,-137.54 307.61,-129.18 307.48,-139.77 314.12,-137.54"/>
</a>
</g>
</g>
<!-- Node3 -->
<g id="Node000003" class="node">
<title>Node3</title>
<g id="a_Node000003"><a xlink:title=" ">
<polygon fill="#e0e0e0" stroke="#999999" points="395.2,-129 348.2,-129 348.2,-110 395.2,-110 395.2,-129"/>
<text text-anchor="middle" x="371.7" y="-117" font-family="Ubuntu Mono" font-size="10.00">vector</text>
</a>
</g>
</g>
<!-- Node1&#45;&gt;Node3 -->
<g id="edge2_Node000001_Node000003" class="edge">
<title>Node1&#45;&gt;Node3</title>
<g id="a_edge2_Node000001_Node000003"><a xlink:title=" ">
<path fill="none" stroke="#63b8ff" d="M349.16,-219.85C354.23,-197.48 362.47,-161.19 367.45,-139.21"/>
<polygon fill="#63b8ff" stroke="#63b8ff" points="370.93,-139.7 369.73,-129.18 364.1,-138.15 370.93,-139.7"/>
</a>
</g>
</g>
<!-- Node4 -->
<g id="Node000004" class="node">
<title>Node4</title>
<g id="a_Node000004"><a xlink:title=" ">
<polygon fill="#e0e0e0" stroke="#999999" points="477.7,-129 413.7,-129 413.7,-110 477.7,-110 477.7,-129"/>
<text text-anchor="middle" x="445.7" y="-117" font-family="Ubuntu Mono" font-size="10.00">algorithm</text>
</a>
</g>
</g>
<!-- Node1&#45;&gt;Node4 -->
<g id="edge3_Node000001_Node000004" class="edge">
<title>Node1&#45;&gt;Node4</title>
<g id="a_edge3_Node000001_Node000004"><a xlink:title=" ">
<path fill="none" stroke="#63b8ff" d="M361.38,-219.85C381.06,-196.65 413.44,-158.51 431.82,-136.85"/>
<polygon fill="#63b8ff" stroke="#63b8ff" points="434.53,-139.06 438.34,-129.18 429.2,-134.53 434.53,-139.06"/>
</a>
</g>
</g>
<!-- Node5 -->
<g id="Node000005" class="node">
<title>Node5</title>
<g id="a_Node000005"><a xlink:title=" ">
<polygon fill="#e0e0e0" stroke="#999999" points="299.7,-19 247.7,-19 247.7,0 299.7,0 299.7,-19"/>
<text text-anchor="middle" x="273.7" y="-7" font-family="Ubuntu Mono" font-size="10.00">cassert</text>
</a>
</g>
</g>
<!-- Node1&#45;&gt;Node5 -->
<g id="edge4_Node000001_Node000005" class="edge">
<title>Node1&#45;&gt;Node5</title>
<g id="a_edge4_Node000001_Node000005"><a xlink:title=" ">
<path fill="none" stroke="#63b8ff" d="M325.91,-219.88C307.5,-199.19 280.66,-164.68 269.7,-129 259.25,-95.01 264.72,-52.94 269.39,-29.17"/>
<polygon fill="#63b8ff" stroke="#63b8ff" points="272.88,-29.59 271.54,-19.08 266.03,-28.13 272.88,-29.59"/>
</a>
</g>
</g>
<!-- Node6 -->
<g id="Node000006" class="node">
<title>Node6</title>
<g id="a_Node000006"><a xlink:href="header_8h.html" target="_top" xlink:title=" ">
<polygon fill="white" stroke="#666666" points="2113.2,-184 1996.2,-184 1996.2,-165 2113.2,-165 2113.2,-184"/>
<text text-anchor="middle" x="2054.7" y="-172" font-family="Ubuntu Mono" font-size="10.00">../basecode/header.h</text>
</a>
</g>
</g>
<!-- Node1&#45;&gt;Node6 -->
<g id="edge5_Node000001_Node000006" class="edge">
<title>Node1&#45;&gt;Node6</title>
<g id="a_edge5_Node000001_Node000006"><a xlink:title=" ">
<path fill="none" stroke="#63b8ff" d="M453.94,-235.41C777.14,-223.32 1722.47,-187.93 1985.87,-178.08"/>
<polygon fill="#63b8ff" stroke="#63b8ff" points="1986.19,-181.57 1996.05,-177.69 1985.93,-174.57 1986.19,-181.57"/>
</a>
</g>
</g>
<!-- Node44 -->
<g id="Node000044" class="node">
<title>Node44</title>
<g id="a_Node000044"><a xlink:href="RateTerm_8h.html" target="_top" xlink:title=" ">
<polygon fill="white" stroke="#666666" points="214.7,-184 142.7,-184 142.7,-165 214.7,-165 214.7,-184"/>
<text text-anchor="middle" x="178.7" y="-172" font-family="Ubuntu Mono" font-size="10.00">RateTerm.h</text>
</a>
</g>
</g>
<!-- Node1&#45;&gt;Node44 -->
<g id="edge49_Node000001_Node000044" class="edge">
<title>Node1&#45;&gt;Node44</title>
<g id="a_edge49_Node000001_Node000044"><a xlink:title=" ">
<path fill="none" stroke="#63b8ff" d="M293.99,-219.95C266.79,-209.46 234.11,-196.87 210.5,-187.76"/>
<polygon fill="#63b8ff" stroke="#63b8ff" points="211.57,-184.42 200.98,-184.09 209.05,-190.95 211.57,-184.42"/>
</a>
</g>
</g>
<!-- Node6&#45;&gt;Node2 -->
<g id="edge6_Node000006_Node000002" class="edge">
<title>Node6&#45;&gt;Node2</title>
<g id="a_edge6_Node000006_Node000002"><a xlink:title=" ">
<path fill="none" stroke="#63b8ff" d="M1996.03,-173.7C1736.56,-174.33 689.95,-174.05 340.34,-128.86"/>
<polygon fill="#63b8ff" stroke="#63b8ff" points="340.58,-125.36 330.2,-127.51 339.65,-132.3 340.58,-125.36"/>
</a>
</g>
</g>
<!-- Node6&#45;&gt;Node3 -->
<g id="edge8_Node000006_Node000003" class="edge">
<title>Node6&#45;&gt;Node3</title>
<g id="a_edge8_Node000006_Node000003"><a xlink:title=" ">
<path fill="none" stroke="#63b8ff" d="M1996.15,-173.69C1743.2,-174.22 742.28,-173.5 405.61,-128.68"/>
<polygon fill="#63b8ff" stroke="#63b8ff" points="405.75,-125.17 395.36,-127.28 404.79,-132.1 405.75,-125.17"/>
</a>
</g>
</g>
<!-- Node6&#45;&gt;Node4 -->
<g id="edge7_Node000006_Node000004" class="edge">
<title>Node6&#45;&gt;Node4</title>
<g id="a_edge7_Node000006_Node000004"><a xlink:title=" ">
<path fill="none" stroke="#63b8ff" d="M1995.8,-173.22C1750.43,-171.82 807.83,-164.31 488.04,-128.88"/>
<polygon fill="#63b8ff" stroke="#63b8ff" points="488.17,-125.38 477.84,-127.72 487.38,-132.33 488.17,-125.38"/>
</a>
</g>
</g>
<!-- Node6&#45;&gt;Node5 -->
<g id="edge15_Node000006_Node000005" class="edge">
<title>Node6&#45;&gt;Node5</title>
<g id="a_edge15_Node000006_Node000005"><a xlink:title=" ">
<path fill="none" stroke="#63b8ff" d="M1996.09,-173.02C1812.19,-171.16 1248.15,-162.79 1068.7,-129 1042.87,-124.14 1038.29,-116 1012.7,-110 747.1,-47.68 418.01,-20.54 309.93,-12.89"/>
<polygon fill="#63b8ff" stroke="#63b8ff" points="310.1,-9.39 299.88,-12.19 309.61,-16.37 310.1,-9.39"/>
</a>
</g>
</g>
<!-- Node7 -->
<g id="Node000007" class="node">
<title>Node7</title>
<g id="a_Node000007"><a xlink:title=" ">
<polygon fill="#e0e0e0" stroke="#999999" points="2413.7,-129 2369.7,-129 2369.7,-110 2413.7,-110 2413.7,-129"/>
<text text-anchor="middle" x="2391.7" y="-117" font-family="Ubuntu Mono" font-size="10.00">string</text>
</a>
</g>
</g>
<!-- Node6&#45;&gt;Node7 -->
<g id="edge9_Node000006_Node000007" class="edge">
<title>Node6&#45;&gt;Node7</title>
<g id="a_edge9_Node000006_Node000007"><a xlink:title=" ">
<path fill="none" stroke="#63b8ff" d="M2113.21,-166.35C2174.05,-158.56 2271.91,-145.06 2355.7,-129 2356.98,-128.76 2358.28,-128.5 2359.59,-128.23"/>
<polygon fill="#63b8ff" stroke="#63b8ff" points="2360.66,-131.57 2369.68,-126.01 2359.16,-124.74 2360.66,-131.57"/>
</a>
</g>
</g>
<!-- Node8 -->
<g id="Node000008" class="node">
<title>Node8</title>
<g id="a_Node000008"><a xlink:title=" ">
<polygon fill="#e0e0e0" stroke="#999999" points="2107.7,-19 2069.7,-19 2069.7,0 2107.7,0 2107.7,-19"/>
<text text-anchor="middle" x="2088.7" y="-7" font-family="Ubuntu Mono" font-size="10.00">map</text>
</a>
</g>
</g>
<!-- Node6&#45;&gt;Node8 -->
<g id="edge10_Node000006_Node000008" class="edge">
<title>Node6&#45;&gt;Node8</title>
<g id="a_edge10_Node000006_Node000008"><a xlink:title=" ">
<path fill="none" stroke="#63b8ff" d="M2072.69,-165C2086.12,-157.57 2103.51,-145.4 2111.7,-129 2126.39,-99.57 2120.75,-86.89 2112.7,-55 2110.28,-45.44 2105.37,-35.7 2100.61,-27.78"/>
<polygon fill="#63b8ff" stroke="#63b8ff" points="2103.42,-25.68 2095.06,-19.16 2097.53,-29.46 2103.42,-25.68"/>
</a>
</g>
</g>
<!-- Node9 -->
<g id="Node000009" class="node">
<title>Node9</title>
<g id="a_Node000009"><a xlink:title=" ">
<polygon fill="#e0e0e0" stroke="#999999" points="2525.2,-129 2432.2,-129 2432.2,-110 2525.2,-110 2525.2,-129"/>
<text text-anchor="middle" x="2478.7" y="-117" font-family="Ubuntu Mono" font-size="10.00">unordered_map</text>
</a>
</g>
</g>
<!-- Node6&#45;&gt;Node9 -->
<g id="edge11_Node000006_Node000009" class="edge">
<title>Node6&#45;&gt;Node9</title>
<g id="a_edge11_Node000006_Node000009"><a xlink:title=" ">
<path fill="none" stroke="#63b8ff" d="M2113.4,-166.96C2184.04,-158.96 2306.48,-144.7 2421.89,-129.07"/>
<polygon fill="#63b8ff" stroke="#63b8ff" points="2422.53,-132.52 2431.96,-127.7 2421.58,-125.58 2422.53,-132.52"/>
</a>
</g>
</g>
<!-- Node10 -->
<g id="Node000010" class="node">
<title>Node10</title>
<g id="a_Node000010"><a xlink:title=" ">
<polygon fill="#e0e0e0" stroke="#999999" points="738.7,-19 678.7,-19 678.7,0 738.7,0 738.7,-19"/>
<text text-anchor="middle" x="708.7" y="-7" font-family="Ubuntu Mono" font-size="10.00">iostream</text>
</a>
</g>
</g>
<!-- Node6&#45;&gt;Node10 -->
<g id="edge12_Node000006_Node000010" class="edge">
<title>Node6&#45;&gt;Node10</title>
<g id="a_edge12_Node000006_Node000010"><a xlink:title=" ">
<path fill="none" stroke="#63b8ff" d="M1995.97,-174.03C1798.43,-175.37 1166.08,-175.93 1088.7,-129 1056.17,-109.27 1077.35,-76.09 1045.7,-55 997.82,-23.09 827.36,-13.97 748.83,-11.44"/>
<polygon fill="#63b8ff" stroke="#63b8ff" points="748.93,-7.94 738.83,-11.14 748.72,-14.94 748.93,-7.94"/>
</a>
</g>
</g>
<!-- Node11 -->
<g id="Node000011" class="node">
<title>Node11</title>
<g id="a_Node000011"><a xlink:title=" ">
<polygon fill="#e0e0e0" stroke="#999999" points="2531.7,-19 2475.7,-19 2475.7,0 2531.7,0 2531.7,-19"/>
<text text-anchor="middle" x="2503.7" y="-7" font-family="Ubuntu Mono" font-size="10.00">sstream</text>
</a>
</g>
</g>
<!-- Node6&#45;&gt;Node11 -->
<g id="edge13_Node000006_Node000011" class="edge">
<title>Node6&#45;&gt;Node11</title>
<g id="a_edge13_Node000006_Node000011"><a xlink:title=" ">
<path fill="none" stroke="#63b8ff" d="M2113.24,-172.14C2283.76,-167.88 2769.5,-153.63 2792.7,-129 2869.1,-47.85 2636.51,-20.62 2541.86,-13.04"/>
<polygon fill="#63b8ff" stroke="#63b8ff" points="2542.05,-9.54 2531.82,-12.27 2541.52,-16.52 2542.05,-9.54"/>
</a>
</g>
</g>
<!-- Node12 -->
<g id="Node000012" class="node">
<title>Node12</title>
<g id="a_Node000012"><a xlink:title=" ">
<polygon fill="#e0e0e0" stroke="#999999" points="2630.2,-74 2573.2,-74 2573.2,-55 2630.2,-55 2630.2,-74"/>
<text text-anchor="middle" x="2601.7" y="-62" font-family="Ubuntu Mono" font-size="10.00">typeinfo</text>
</a>
</g>
</g>
<!-- Node6&#45;&gt;Node12 -->
<g id="edge14_Node000006_Node000012" class="edge">
<title>Node6&#45;&gt;Node12</title>
<g id="a_edge14_Node000006_Node000012"><a xlink:title=" ">
<path fill="none" stroke="#63b8ff" d="M2113.4,-173.21C2249.66,-171.92 2578.4,-165.06 2611.7,-129 2622.91,-116.86 2617.81,-97.52 2611.51,-83.37"/>
<polygon fill="#63b8ff" stroke="#63b8ff" points="2614.52,-81.56 2606.93,-74.16 2608.25,-84.68 2614.52,-81.56"/>
</a>
</g>
</g>
<!-- Node13 -->
<g id="Node000013" class="node">
<title>Node13</title>
<g id="a_Node000013"><a xlink:href="doubleEq_8h.html" target="_top" xlink:title=" ">
<polygon fill="white" stroke="#666666" points="2730.2,-129 2659.2,-129 2659.2,-110 2730.2,-110 2730.2,-129"/>
<text text-anchor="middle" x="2694.7" y="-117" font-family="Ubuntu Mono" font-size="10.00">doubleEq.h</text>
</a>
</g>
</g>
<!-- Node6&#45;&gt;Node13 -->
<g id="edge16_Node000006_Node000013" class="edge">
<title>Node6&#45;&gt;Node13</title>
<g id="a_edge16_Node000006_Node000013"><a xlink:title=" ">
<path fill="none" stroke="#63b8ff" d="M2113.5,-170.88C2219.81,-165.74 2450.97,-152.72 2644.7,-129 2646,-128.84 2647.32,-128.67 2648.65,-128.49"/>
<polygon fill="#63b8ff" stroke="#63b8ff" points="2649.59,-131.89 2658.98,-126.99 2648.58,-124.97 2649.59,-131.89"/>
</a>
</g>
</g>
<!-- Node14 -->
<g id="Node000014" class="node">
<title>Node14</title>
<g id="a_Node000014"><a xlink:href="Id_8h.html" target="_top" xlink:title=" ">
<polygon fill="white" stroke="#666666" points="2783.2,-129 2748.2,-129 2748.2,-110 2783.2,-110 2783.2,-129"/>
<text text-anchor="middle" x="2765.7" y="-117" font-family="Ubuntu Mono" font-size="10.00">Id.h</text>
</a>
</g>
</g>
<!-- Node6&#45;&gt;Node14 -->
<g id="edge17_Node000006_Node000014" class="edge">
<title>Node6&#45;&gt;Node14</title>
<g id="a_edge17_Node000006_Node000014"><a xlink:title=" ">
<path fill="none" stroke="#63b8ff" d="M2113.23,-171.59C2252.6,-166.73 2601.99,-152.74 2737.78,-128.84"/>
<polygon fill="#63b8ff" stroke="#63b8ff" points="2738.76,-132.22 2747.95,-126.95 2737.48,-125.34 2738.76,-132.22"/>
</a>
</g>
</g>
<!-- Node15 -->
<g id="Node000015" class="node">
<title>Node15</title>
<g id="a_Node000015"><a xlink:href="ObjId_8h.html" target="_top" xlink:title=" ">
<polygon fill="white" stroke="#666666" points="2891.2,-129 2840.2,-129 2840.2,-110 2891.2,-110 2891.2,-129"/>
<text text-anchor="middle" x="2865.7" y="-117" font-family="Ubuntu Mono" font-size="10.00">ObjId.h</text>
</a>
</g>
</g>
<!-- Node6&#45;&gt;Node15 -->
<g id="edge18_Node000006_Node000015" class="edge">
<title>Node6&#45;&gt;Node15</title>
<g id="a_edge18_Node000006_Node000015"><a xlink:title=" ">
<path fill="none" stroke="#63b8ff" d="M2113.5,-173.14C2242.86,-171.69 2561.59,-164.47 2825.7,-129 2827.15,-128.81 2828.63,-128.59 2830.12,-128.35"/>
<polygon fill="#63b8ff" stroke="#63b8ff" points="2830.76,-131.79 2839.98,-126.57 2829.51,-124.9 2830.76,-131.79"/>
</a>
</g>
</g>
<!-- Node16 -->
<g id="Node000016" class="node">
<title>Node16</title>
<g id="a_Node000016"><a xlink:href="Cinfo_8h.html" target="_top" xlink:title=" ">
<polygon fill="white" stroke="#666666" points="2960.2,-129 2909.2,-129 2909.2,-110 2960.2,-110 2960.2,-129"/>
<text text-anchor="middle" x="2934.7" y="-117" font-family="Ubuntu Mono" font-size="10.00">Cinfo.h</text>
</a>
</g>
</g>
<!-- Node6&#45;&gt;Node16 -->
<g id="edge19_Node000006_Node000016" class="edge">
<title>Node6&#45;&gt;Node16</title>
<g id="a_edge19_Node000006_Node000016"><a xlink:title=" ">
<path fill="none" stroke="#63b8ff" d="M2113.29,-174.28C2249.78,-175.26 2599.46,-173 2899,-128.96"/>
<polygon fill="#63b8ff" stroke="#63b8ff" points="2899.81,-132.37 2909.18,-127.44 2898.78,-125.45 2899.81,-132.37"/>
</a>
</g>
</g>
<!-- Node17 -->
<g id="Node000017" class="node">
<title>Node17</title>
<g id="a_Node000017"><a xlink:href="basecode_2Finfo_8h.html" target="_top" xlink:title=" ">
<polygon fill="white" stroke="#666666" points="3028.7,-129 2978.7,-129 2978.7,-110 3028.7,-110 3028.7,-129"/>
<text text-anchor="middle" x="3003.7" y="-117" font-family="Ubuntu Mono" font-size="10.00">Finfo.h</text>
</a>
</g>
</g>
<!-- Node6&#45;&gt;Node17 -->
<g id="edge20_Node000006_Node000017" class="edge">
<title>Node6&#45;&gt;Node17</title>
<g id="a_edge20_Node000006_Node000017"><a xlink:title=" ">
<path fill="none" stroke="#63b8ff" d="M2113.26,-172.16C2284.68,-167.99 2784.41,-154.11 2968.46,-128.82"/>
<polygon fill="#63b8ff" stroke="#63b8ff" points="2969.16,-132.25 2978.56,-127.37 2968.16,-125.32 2969.16,-132.25"/>
</a>
</g>
</g>
<!-- Node18 -->
<g id="Node000018" class="node">
<title>Node18</title>
<g id="a_Node000018"><a xlink:href="DestFinfo_8h.html" target="_top" xlink:title=" ">
<polygon fill="white" stroke="#666666" points="3118.7,-129 3046.7,-129 3046.7,-110 3118.7,-110 3118.7,-129"/>
<text text-anchor="middle" x="3082.7" y="-117" font-family="Ubuntu Mono" font-size="10.00">DestFinfo.h</text>
</a>
</g>
</g>
<!-- Node6&#45;&gt;Node18 -->
<g id="edge21_Node000006_Node000018" class="edge">
<title>Node6&#45;&gt;Node18</title>
<g id="a_edge21_Node000006_Node000018"><a xlink:title=" ">
<path fill="none" stroke="#63b8ff" d="M2113.38,-173.73C2264.76,-173.71 2680.96,-169.72 3036.45,-128.96"/>
<polygon fill="#63b8ff" stroke="#63b8ff" points="3036.89,-132.44 3046.42,-127.81 3036.08,-125.48 3036.89,-132.44"/>
</a>
</g>
</g>
<!-- Node19 -->
<g id="Node000019" class="node">
<title>Node19</title>
<g id="a_Node000019"><a xlink:href="ProcInfo_8h.html" target="_top" xlink:title=" ">
<polygon fill="white" stroke="#666666" points="3202.2,-129 3137.2,-129 3137.2,-110 3202.2,-110 3202.2,-129"/>
<text text-anchor="middle" x="3169.7" y="-117" font-family="Ubuntu Mono" font-size="10.00">ProcInfo.h</text>
</a>
</g>
</g>
<!-- Node6&#45;&gt;Node19 -->
<g id="edge22_Node000006_Node000019" class="edge">
<title>Node6&#45;&gt;Node19</title>
<g id="a_edge22_Node000006_Node000019"><a xlink:title=" ">
<path fill="none" stroke="#63b8ff" d="M2113.48,-172.29C2304.82,-168.16 2909.54,-153.56 3126.72,-128.86"/>
<polygon fill="#63b8ff" stroke="#63b8ff" points="3127.24,-132.32 3136.76,-127.68 3126.42,-125.37 3127.24,-132.32"/>
</a>
</g>
</g>
<!-- Node20 -->
<g id="Node000020" class="node">
<title>Node20</title>
<g id="a_Node000020"><a xlink:href="MsgFuncBinding_8h.html" target="_top" xlink:title=" ">
<polygon fill="white" stroke="#666666" points="3325.2,-129 3220.2,-129 3220.2,-110 3325.2,-110 3325.2,-129"/>
<text text-anchor="middle" x="3272.7" y="-117" font-family="Ubuntu Mono" font-size="10.00">MsgFuncBinding.h</text>
</a>
</g>
</g>
<!-- Node6&#45;&gt;Node20 -->
<g id="edge23_Node000006_Node000020" class="edge">
<title>Node6&#45;&gt;Node20</title>
<g id="a_edge23_Node000006_Node000020"><a xlink:title=" ">
<path fill="none" stroke="#63b8ff" d="M2113.22,-173.31C2281.91,-172.34 2783.79,-166.34 3210.11,-129.05"/>
<polygon fill="#63b8ff" stroke="#63b8ff" points="3210.51,-132.53 3220.16,-128.16 3209.89,-125.55 3210.51,-132.53"/>
</a>
</g>
</g>
<!-- Node21 -->
<g id="Node000021" class="node">
<title>Node21</title>
<g id="a_Node000021"><a xlink:href="Msg_8h.html" target="_top" xlink:title=" ">
<polygon fill="white" stroke="#666666" points="3422.2,-129 3343.2,-129 3343.2,-110 3422.2,-110 3422.2,-129"/>
<text text-anchor="middle" x="3382.7" y="-117" font-family="Ubuntu Mono" font-size="10.00">../msg/Msg.h</text>
</a>
</g>
</g>
<!-- Node6&#45;&gt;Node21 -->
<g id="edge24_Node000006_Node000021" class="edge">
<title>Node6&#45;&gt;Node21</title>
<g id="a_edge24_Node000006_Node000021"><a xlink:title=" ">
<path fill="none" stroke="#63b8ff" d="M2113.5,-172.55C2328.58,-168.93 3073.12,-154.84 3332.8,-129.02"/>
<polygon fill="#63b8ff" stroke="#63b8ff" points="3333.36,-132.49 3342.95,-127.98 3332.64,-125.52 3333.36,-132.49"/>
</a>
</g>
</g>
<!-- Node22 -->
<g id="Node000022" class="node">
<title>Node22</title>
<g id="a_Node000022"><a xlink:href="Dinfo_8h.html" target="_top" xlink:title=" ">
<polygon fill="white" stroke="#666666" points="3492.7,-129 3440.7,-129 3440.7,-110 3492.7,-110 3492.7,-129"/>
<text text-anchor="middle" x="3466.7" y="-117" font-family="Ubuntu Mono" font-size="10.00">Dinfo.h</text>
</a>
</g>
</g>
<!-- Node6&#45;&gt;Node22 -->
<g id="edge25_Node000006_Node000022" class="edge">
<title>Node6&#45;&gt;Node22</title>
<g id="a_edge25_Node000006_Node000022"><a xlink:title=" ">
<path fill="none" stroke="#63b8ff" d="M2113.27,-173.21C2338.64,-171.86 3150.83,-164.66 3430.32,-128.83"/>
<polygon fill="#63b8ff" stroke="#63b8ff" points="3430.98,-132.28 3440.44,-127.49 3430.06,-125.34 3430.98,-132.28"/>
</a>
</g>
</g>
<!-- Node23 -->
<g id="Node000023" class="node">
<title>Node23</title>
<g id="a_Node000023"><a xlink:href="MsgDigest_8h.html" target="_top" xlink:title=" ">
<polygon fill="white" stroke="#666666" points="3588.2,-129 3511.2,-129 3511.2,-110 3588.2,-110 3588.2,-129"/>
<text text-anchor="middle" x="3549.7" y="-117" font-family="Ubuntu Mono" font-size="10.00">MsgDigest.h</text>
</a>
</g>
</g>
<!-- Node6&#45;&gt;Node23 -->
<g id="edge26_Node000006_Node000023" class="edge">
<title>Node6&#45;&gt;Node23</title>
<g id="a_edge26_Node000006_Node000023"><a xlink:title=" ">
<path fill="none" stroke="#63b8ff" d="M2113.35,-172.83C2346.01,-169.99 3205.14,-157.83 3500.72,-128.89"/>
<polygon fill="#63b8ff" stroke="#63b8ff" points="3501.39,-132.34 3510.99,-127.85 3500.69,-125.37 3501.39,-132.34"/>
</a>
</g>
</g>
<!-- Node24 -->
<g id="Node000024" class="node">
<title>Node24</title>
<g id="a_Node000024"><a xlink:href="Element_8h.html" target="_top" xlink:title=" ">
<polygon fill="white" stroke="#666666" points="561.7,-129 495.7,-129 495.7,-110 561.7,-110 561.7,-129"/>
<text text-anchor="middle" x="528.7" y="-117" font-family="Ubuntu Mono" font-size="10.00">Element.h</text>
</a>
</g>
</g>
<!-- Node6&#45;&gt;Node24 -->
<g id="edge27_Node000006_Node000024" class="edge">
<title>Node6&#45;&gt;Node24</title>
<g id="a_edge27_Node000006_Node000024"><a xlink:title=" ">
<path fill="none" stroke="#63b8ff" d="M1996.15,-173.07C1759.77,-171.14 874.32,-161.9 572.16,-128.92"/>
<polygon fill="#63b8ff" stroke="#63b8ff" points="572.42,-125.43 562.09,-127.79 571.63,-132.39 572.42,-125.43"/>
</a>
</g>
</g>
<!-- Node25 -->
<g id="Node000025" class="node">
<title>Node25</title>
<g id="a_Node000025"><a xlink:href="DataElement_8h.html" target="_top" xlink:title=" ">
<polygon fill="white" stroke="#666666" points="669.2,-129 580.2,-129 580.2,-110 669.2,-110 669.2,-129"/>
<text text-anchor="middle" x="624.7" y="-117" font-family="Ubuntu Mono" font-size="10.00">DataElement.h</text>
</a>
</g>
</g>
<!-- Node6&#45;&gt;Node25 -->
<g id="edge28_Node000006_Node000025" class="edge">
<title>Node6&#45;&gt;Node25</title>
<g id="a_edge28_Node000006_Node000025"><a xlink:title=" ">
<path fill="none" stroke="#63b8ff" d="M1995.81,-172.59C1770.15,-168.96 959.58,-154.48 679.6,-129.04"/>
<polygon fill="#63b8ff" stroke="#63b8ff" points="679.75,-125.54 669.47,-128.09 679.1,-132.5 679.75,-125.54"/>
</a>
</g>
</g>
<!-- Node26 -->
<g id="Node000026" class="node">
<title>Node26</title>
<g id="a_Node000026"><a xlink:href="GlobalDataElement_8h.html" target="_top" xlink:title=" ">
<polygon fill="white" stroke="#666666" points="808.2,-129 687.2,-129 687.2,-110 808.2,-110 808.2,-129"/>
<text text-anchor="middle" x="747.7" y="-117" font-family="Ubuntu Mono" font-size="10.00">GlobalDataElement.h</text>
</a>
</g>
</g>
<!-- Node6&#45;&gt;Node26 -->
<g id="edge29_Node000006_Node000026" class="edge">
<title>Node6&#45;&gt;Node26</title>
<g id="a_edge29_Node000006_Node000026"><a xlink:title=" ">
<path fill="none" stroke="#63b8ff" d="M1995.95,-173.19C1819.35,-171.89 1277.62,-165.07 818.4,-129.06"/>
<polygon fill="#63b8ff" stroke="#63b8ff" points="818.49,-125.56 808.25,-128.26 817.94,-132.54 818.49,-125.56"/>
</a>
</g>
</g>
<!-- Node27 -->
<g id="Node000027" class="node">
<title>Node27</title>
<g id="a_Node000027"><a xlink:href="LocalDataElement_8h.html" target="_top" xlink:title=" ">
<polygon fill="white" stroke="#666666" points="941.2,-129 826.2,-129 826.2,-110 941.2,-110 941.2,-129"/>
<text text-anchor="middle" x="883.7" y="-117" font-family="Ubuntu Mono" font-size="10.00">LocalDataElement.h</text>
</a>
</g>
</g>
<!-- Node6&#45;&gt;Node27 -->
<g id="edge30_Node000006_Node000027" class="edge">
<title>Node6&#45;&gt;Node27</title>
<g id="a_edge30_Node000006_Node000027"><a xlink:title=" ">
<path fill="none" stroke="#63b8ff" d="M1995.94,-172.91C1832.29,-170.88 1357.24,-162.4 951.58,-128.99"/>
<polygon fill="#63b8ff" stroke="#63b8ff" points="951.66,-125.48 941.41,-128.14 951.08,-132.46 951.66,-125.48"/>
</a>
</g>
</g>
<!-- Node28 -->
<g id="Node000028" class="node">
<title>Node28</title>
<g id="a_Node000028"><a xlink:href="Eref_8h.html" target="_top" xlink:title=" ">
<polygon fill="white" stroke="#666666" points="1003.7,-129 959.7,-129 959.7,-110 1003.7,-110 1003.7,-129"/>
<text text-anchor="middle" x="981.7" y="-117" font-family="Ubuntu Mono" font-size="10.00">Eref.h</text>
</a>
</g>
</g>
<!-- Node6&#45;&gt;Node28 -->
<g id="edge31_Node000006_Node000028" class="edge">
<title>Node6&#45;&gt;Node28</title>
<g id="a_edge31_Node000006_Node000028"><a xlink:title=" ">
<path fill="none" stroke="#63b8ff" d="M1995.88,-172.44C1805.71,-168.78 1208.81,-155.42 1017.7,-129 1016.45,-128.83 1015.17,-128.63 1013.89,-128.41"/>
<polygon fill="#63b8ff" stroke="#63b8ff" points="1014.53,-124.97 1004.04,-126.47 1013.17,-131.84 1014.53,-124.97"/>
</a>
</g>
</g>
<!-- Node29 -->
<g id="Node000029" class="node">
<title>Node29</title>
<g id="a_Node000029"><a xlink:href="Conv_8h.html" target="_top" xlink:title=" ">
<polygon fill="white" stroke="#666666" points="2209.7,-129 2159.7,-129 2159.7,-110 2209.7,-110 2209.7,-129"/>
<text text-anchor="middle" x="2184.7" y="-117" font-family="Ubuntu Mono" font-size="10.00">Conv.h</text>
</a>
</g>
</g>
<!-- Node6&#45;&gt;Node29 -->
<g id="edge32_Node000006_Node000029" class="edge">
<title>Node6&#45;&gt;Node29</title>
<g id="a_edge32_Node000006_Node000029"><a xlink:title=" ">
<path fill="none" stroke="#63b8ff" d="M2075.58,-164.98C2096.78,-156.34 2129.83,-142.87 2154,-133.02"/>
<polygon fill="#63b8ff" stroke="#63b8ff" points="2155.49,-136.19 2163.43,-129.17 2152.85,-129.7 2155.49,-136.19"/>
</a>
</g>
</g>
<!-- Node31 -->
<g id="Node000031" class="node">
<title>Node31</title>
<g id="a_Node000031"><a xlink:href="SrcFinfo_8h.html" target="_top" xlink:title=" ">
<polygon fill="white" stroke="#666666" points="2338.2,-74 2273.2,-74 2273.2,-55 2338.2,-55 2338.2,-74"/>
<text text-anchor="middle" x="2305.7" y="-62" font-family="Ubuntu Mono" font-size="10.00">SrcFinfo.h</text>
</a>
</g>
</g>
<!-- Node6&#45;&gt;Node31 -->
<g id="edge34_Node000006_Node000031" class="edge">
<title>Node6&#45;&gt;Node31</title>
<g id="a_edge34_Node000006_Node000031"><a xlink:title=" ">
<path fill="none" stroke="#63b8ff" d="M2113.24,-172.29C2183.86,-169.45 2296.39,-160.03 2322.7,-129 2333.61,-116.13 2326.24,-96.94 2318.07,-83.02"/>
<polygon fill="#63b8ff" stroke="#63b8ff" points="2320.86,-80.89 2312.5,-74.38 2314.98,-84.68 2320.86,-80.89"/>
</a>
</g>
</g>
<!-- Node32 -->
<g id="Node000032" class="node">
<title>Node32</title>
<g id="a_Node000032"><a xlink:href="OpFuncBase_8h.html" target="_top" xlink:title=" ">
<polygon fill="white" stroke="#666666" points="2313.7,-129 2227.7,-129 2227.7,-110 2313.7,-110 2313.7,-129"/>
<text text-anchor="middle" x="2270.7" y="-117" font-family="Ubuntu Mono" font-size="10.00">OpFuncBase.h</text>
</a>
</g>
</g>
<!-- Node6&#45;&gt;Node32 -->
<g id="edge35_Node000006_Node000032" class="edge">
<title>Node6&#45;&gt;Node32</title>
<g id="a_edge35_Node000006_Node000032"><a xlink:title=" ">
<path fill="none" stroke="#63b8ff" d="M2089.4,-164.98C2126.45,-155.89 2185.29,-141.46 2225.83,-131.51"/>
<polygon fill="#63b8ff" stroke="#63b8ff" points="2226.84,-134.86 2235.72,-129.08 2225.18,-128.07 2226.84,-134.86"/>
</a>
</g>
</g>
<!-- Node33 -->
<g id="Node000033" class="node">
<title>Node33</title>
<g id="a_Node000033"><a xlink:href="HopFunc_8h.html" target="_top" xlink:title=" ">
<polygon fill="white" stroke="#666666" points="1165.7,-129 1097.7,-129 1097.7,-110 1165.7,-110 1165.7,-129"/>
<text text-anchor="middle" x="1131.7" y="-117" font-family="Ubuntu Mono" font-size="10.00">HopFunc.h</text>
</a>
</g>
</g>
<!-- Node6&#45;&gt;Node33 -->
<g id="edge37_Node000006_Node000033" class="edge">
<title>Node6&#45;&gt;Node33</title>
<g id="a_edge37_Node000006_Node000033"><a xlink:title=" ">
<path fill="none" stroke="#63b8ff" d="M1996.01,-173.46C1855.8,-172.72 1490.29,-167.1 1176.11,-128.98"/>
<polygon fill="#63b8ff" stroke="#63b8ff" points="1176.25,-125.47 1165.89,-127.72 1175.39,-132.41 1176.25,-125.47"/>
</a>
</g>
</g>
<!-- Node34 -->
<g id="Node000034" class="node">
<title>Node34</title>
<g id="a_Node000034"><a xlink:href="SetGet_8h.html" target="_top" xlink:title=" ">
<polygon fill="white" stroke="#666666" points="2602.2,-129 2543.2,-129 2543.2,-110 2602.2,-110 2602.2,-129"/>
<text text-anchor="middle" x="2572.7" y="-117" font-family="Ubuntu Mono" font-size="10.00">SetGet.h</text>
</a>
</g>
</g>
<!-- Node6&#45;&gt;Node34 -->
<g id="edge38_Node000006_Node000034" class="edge">
<title>Node6&#45;&gt;Node34</title>
<g id="a_edge38_Node000006_Node000034"><a xlink:title=" ">
<path fill="none" stroke="#63b8ff" d="M2113.37,-170.48C2202.17,-165.38 2376.14,-153.3 2532.62,-129.15"/>
<polygon fill="#63b8ff" stroke="#63b8ff" points="2533.56,-132.55 2542.9,-127.54 2532.48,-125.63 2533.56,-132.55"/>
</a>
</g>
</g>
<!-- Node35 -->
<g id="Node000035" class="node">
<title>Node35</title>
<g id="a_Node000035"><a xlink:href="OpFunc_8h.html" target="_top" xlink:title=" ">
<polygon fill="white" stroke="#666666" points="1245.7,-129 1183.7,-129 1183.7,-110 1245.7,-110 1245.7,-129"/>
<text text-anchor="middle" x="1214.7" y="-117" font-family="Ubuntu Mono" font-size="10.00">OpFunc.h</text>
</a>
</g>
</g>
<!-- Node6&#45;&gt;Node35 -->
<g id="edge40_Node000006_Node000035" class="edge">
<title>Node6&#45;&gt;Node35</title>
<g id="a_edge40_Node000006_Node000035"><a xlink:title=" ">
<path fill="none" stroke="#63b8ff" d="M1996.19,-173.32C1865.18,-172.25 1538.25,-165.9 1256.08,-128.97"/>
<polygon fill="#63b8ff" stroke="#63b8ff" points="1256.43,-125.48 1246.06,-127.64 1255.52,-132.42 1256.43,-125.48"/>
</a>
</g>
</g>
<!-- Node36 -->
<g id="Node000036" class="node">
<title>Node36</title>
<g id="a_Node000036"><a xlink:href="EpFunc_8h.html" target="_top" xlink:title=" ">
<polygon fill="white" stroke="#666666" points="1323.7,-129 1263.7,-129 1263.7,-110 1323.7,-110 1323.7,-129"/>
<text text-anchor="middle" x="1293.7" y="-117" font-family="Ubuntu Mono" font-size="10.00">EpFunc.h</text>
</a>
</g>
</g>
<!-- Node6&#45;&gt;Node36 -->
<g id="edge41_Node000006_Node000036" class="edge">
<title>Node6&#45;&gt;Node36</title>
<g id="a_edge41_Node000006_Node000036"><a xlink:title=" ">
<path fill="none" stroke="#63b8ff" d="M1995.9,-172.92C1874.08,-171.05 1585.18,-163.22 1333.9,-128.94"/>
<polygon fill="#63b8ff" stroke="#63b8ff" points="1334.23,-125.45 1323.85,-127.55 1333.28,-132.38 1334.23,-125.45"/>
</a>
</g>
</g>
<!-- Node37 -->
<g id="Node000037" class="node">
<title>Node37</title>
<g id="a_Node000037"><a xlink:href="ProcOpFunc_8h.html" target="_top" xlink:title=" ">
<polygon fill="white" stroke="#666666" points="1425.2,-129 1342.2,-129 1342.2,-110 1425.2,-110 1425.2,-129"/>
<text text-anchor="middle" x="1383.7" y="-117" font-family="Ubuntu Mono" font-size="10.00">ProcOpFunc.h</text>
</a>
</g>
</g>
<!-- Node6&#45;&gt;Node37 -->
<g id="edge42_Node000006_Node000037" class="edge">
<title>Node6&#45;&gt;Node37</title>
<g id="a_edge42_Node000006_Node000037"><a xlink:title=" ">
<path fill="none" stroke="#63b8ff" d="M1995.87,-171.19C1887.12,-166.49 1647.12,-154.2 1435.45,-129.1"/>
<polygon fill="#63b8ff" stroke="#63b8ff" points="1435.74,-125.61 1425.4,-127.9 1434.91,-132.56 1435.74,-125.61"/>
</a>
</g>
</g>
<!-- Node38 -->
<g id="Node000038" class="node">
<title>Node38</title>
<g id="a_Node000038"><a xlink:href="ValueFinfo_8h.html" target="_top" xlink:title=" ">
<polygon fill="white" stroke="#666666" points="1520.2,-129 1443.2,-129 1443.2,-110 1520.2,-110 1520.2,-129"/>
<text text-anchor="middle" x="1481.7" y="-117" font-family="Ubuntu Mono" font-size="10.00">ValueFinfo.h</text>
</a>
</g>
</g>
<!-- Node6&#45;&gt;Node38 -->
<g id="edge43_Node000006_Node000038" class="edge">
<title>Node6&#45;&gt;Node38</title>
<g id="a_edge43_Node000006_Node000038"><a xlink:title=" ">
<path fill="none" stroke="#63b8ff" d="M1996.13,-170.36C1900.64,-164.84 1705.31,-151.88 1530.54,-129.13"/>
<polygon fill="#63b8ff" stroke="#63b8ff" points="1530.75,-125.63 1520.38,-127.79 1529.84,-132.57 1530.75,-125.63"/>
</a>
</g>
</g>
<!-- Node39 -->
<g id="Node000039" class="node">
<title>Node39</title>
<g id="a_Node000039"><a xlink:href="LookupValueFinfo_8h.html" target="_top" xlink:title=" ">
<polygon fill="white" stroke="#666666" points="1649.2,-129 1538.2,-129 1538.2,-110 1649.2,-110 1649.2,-129"/>
<text text-anchor="middle" x="1593.7" y="-117" font-family="Ubuntu Mono" font-size="10.00">LookupValueFinfo.h</text>
</a>
</g>
</g>
<!-- Node6&#45;&gt;Node39 -->
<g id="edge44_Node000006_Node000039" class="edge">
<title>Node6&#45;&gt;Node39</title>
<g id="a_edge44_Node000006_Node000039"><a xlink:title=" ">
<path fill="none" stroke="#63b8ff" d="M1996.13,-167.31C1920.69,-159.26 1785.21,-144.51 1659.71,-129.23"/>
<polygon fill="#63b8ff" stroke="#63b8ff" points="1659.89,-125.72 1649.54,-127.98 1659.04,-132.67 1659.89,-125.72"/>
</a>
</g>
</g>
<!-- Node40 -->
<g id="Node000040" class="node">
<title>Node40</title>
<g id="a_Node000040"><a xlink:href="SharedFinfo_8h.html" target="_top" xlink:title=" ">
<polygon fill="white" stroke="#666666" points="1750.2,-129 1667.2,-129 1667.2,-110 1750.2,-110 1750.2,-129"/>
<text text-anchor="middle" x="1708.7" y="-117" font-family="Ubuntu Mono" font-size="10.00">SharedFinfo.h</text>
</a>
</g>
</g>
<!-- Node6&#45;&gt;Node40 -->
<g id="edge45_Node000006_Node000040" class="edge">
<title>Node6&#45;&gt;Node40</title>
<g id="a_edge45_Node000006_Node000040"><a xlink:title=" ">
<path fill="none" stroke="#63b8ff" d="M1995.96,-165.01C1938.41,-156.61 1847.95,-143.21 1760.52,-129.27"/>
<polygon fill="#63b8ff" stroke="#63b8ff" points="1760.86,-125.78 1750.43,-127.66 1759.75,-132.69 1760.86,-125.78"/>
</a>
</g>
</g>
<!-- Node41 -->
<g id="Node000041" class="node">
<title>Node41</title>
<g id="a_Node000041"><a xlink:href="FieldElementFinfo_8h.html" target="_top" xlink:title=" ">
<polygon fill="white" stroke="#666666" points="1881.2,-129 1768.2,-129 1768.2,-110 1881.2,-110 1881.2,-129"/>
<text text-anchor="middle" x="1824.7" y="-117" font-family="Ubuntu Mono" font-size="10.00">FieldElementFinfo.h</text>
</a>
</g>
</g>
<!-- Node6&#45;&gt;Node41 -->
<g id="edge46_Node000006_Node000041" class="edge">
<title>Node6&#45;&gt;Node41</title>
<g id="a_edge46_Node000006_Node000041"><a xlink:title=" ">
<path fill="none" stroke="#63b8ff" d="M2017.74,-164.98C1978.13,-155.86 1915.11,-141.33 1871.92,-131.38"/>
<polygon fill="#63b8ff" stroke="#63b8ff" points="1872.47,-127.92 1861.94,-129.08 1870.9,-134.74 1872.47,-127.92"/>
</a>
</g>
</g>
<!-- Node42 -->
<g id="Node000042" class="node">
<title>Node42</title>
<g id="a_Node000042"><a xlink:href="FieldElement_8h.html" target="_top" xlink:title=" ">
<polygon fill="white" stroke="#666666" points="1988.2,-129 1899.2,-129 1899.2,-110 1988.2,-110 1988.2,-129"/>
<text text-anchor="middle" x="1943.7" y="-117" font-family="Ubuntu Mono" font-size="10.00">FieldElement.h</text>
</a>
</g>
</g>
<!-- Node6&#45;&gt;Node42 -->
<g id="edge47_Node000006_Node000042" class="edge">
<title>Node6&#45;&gt;Node42</title>
<g id="a_edge47_Node000006_Node000042"><a xlink:title=" ">
<path fill="none" stroke="#63b8ff" d="M2036.86,-164.98C2019.09,-156.5 1991.55,-143.35 1971.02,-133.54"/>
<polygon fill="#63b8ff" stroke="#63b8ff" points="1972.39,-130.32 1961.86,-129.17 1969.37,-136.64 1972.39,-130.32"/>
</a>
</g>
</g>
<!-- Node43 -->
<g id="Node000043" class="node">
<title>Node43</title>
<g id="a_Node000043"><a xlink:href="Neutral_8h.html" target="_top" xlink:title=" ">
<polygon fill="white" stroke="#666666" points="2103.2,-129 2006.2,-129 2006.2,-110 2103.2,-110 2103.2,-129"/>
<text text-anchor="middle" x="2054.7" y="-117" font-family="Ubuntu Mono" font-size="10.00">../shell/Neutral.h</text>
</a>
</g>
</g>
<!-- Node6&#45;&gt;Node43 -->
<g id="edge48_Node000006_Node000043" class="edge">
<title>Node6&#45;&gt;Node43</title>
<g id="a_edge48_Node000006_Node000043"><a xlink:title=" ">
<path fill="none" stroke="#63b8ff" d="M2054.7,-164.75C2054.7,-157.8 2054.7,-147.85 2054.7,-139.13"/>
<polygon fill="#63b8ff" stroke="#63b8ff" points="2058.2,-139.09 2054.7,-129.09 2051.2,-139.09 2058.2,-139.09"/>
</a>
</g>
</g>
<!-- Node30 -->
<g id="Node000030" class="node">
<title>Node30</title>
<g id="a_Node000030"><a xlink:title=" ">
<polygon fill="#e0e0e0" stroke="#999999" points="2209.7,-74 2159.7,-74 2159.7,-55 2209.7,-55 2209.7,-74"/>
<text text-anchor="middle" x="2184.7" y="-62" font-family="Ubuntu Mono" font-size="10.00">cstring</text>
</a>
</g>
</g>
<!-- Node29&#45;&gt;Node30 -->
<g id="edge33_Node000029_Node000030" class="edge">
<title>Node29&#45;&gt;Node30</title>
<g id="a_edge33_Node000029_Node000030"><a xlink:title=" ">
<path fill="none" stroke="#63b8ff" d="M2184.7,-109.75C2184.7,-102.8 2184.7,-92.85 2184.7,-84.13"/>
<polygon fill="#63b8ff" stroke="#63b8ff" points="2188.2,-84.09 2184.7,-74.09 2181.2,-84.09 2188.2,-84.09"/>
</a>
</g>
</g>
<!-- Node32&#45;&gt;Node31 -->
<g id="edge36_Node000032_Node000031" class="edge">
<title>Node32&#45;&gt;Node31</title>
<g id="a_edge36_Node000032_Node000031"><a xlink:title=" ">
<path fill="none" stroke="#63b8ff" d="M2276.48,-109.75C2281.32,-102.42 2288.38,-91.73 2294.34,-82.7"/>
<polygon fill="#63b8ff" stroke="#63b8ff" points="2297.44,-84.36 2300.03,-74.09 2291.59,-80.5 2297.44,-84.36"/>
</a>
</g>
</g>
<!-- Node34&#45;&gt;Node12 -->
<g id="edge39_Node000034_Node000012" class="edge">
<title>Node34&#45;&gt;Node12</title>
<g id="a_edge39_Node000034_Node000012"><a xlink:title=" ">
<path fill="none" stroke="#63b8ff" d="M2577.49,-109.75C2581.46,-102.49 2587.22,-91.95 2592.13,-82.98"/>
<polygon fill="#63b8ff" stroke="#63b8ff" points="2595.27,-84.54 2597,-74.09 2589.13,-81.18 2595.27,-84.54"/>
</a>
</g>
</g>
<!-- Node45 -->
<g id="Node000045" class="node">
<title>Node45</title>
<g id="a_Node000045"><a xlink:href="numutil_8h.html" target="_top" xlink:title=" ">
<polygon fill="white" stroke="#666666" points="199.7,-129 95.7,-129 95.7,-110 199.7,-110 199.7,-129"/>
<text text-anchor="middle" x="147.7" y="-117" font-family="Ubuntu Mono" font-size="10.00">../utility/numutil.h</text>
</a>
</g>
</g>
<!-- Node44&#45;&gt;Node45 -->
<g id="edge50_Node000044_Node000045" class="edge">
<title>Node44&#45;&gt;Node45</title>
<g id="a_edge50_Node000044_Node000045"><a xlink:title=" ">
<path fill="none" stroke="#63b8ff" d="M173.58,-164.75C169.34,-157.49 163.17,-146.95 157.92,-137.98"/>
<polygon fill="#63b8ff" stroke="#63b8ff" points="160.79,-135.95 152.72,-129.09 154.75,-139.49 160.79,-135.95"/>
</a>
</g>
</g>
<!-- Node46 -->
<g id="Node000046" class="node">
<title>Node46</title>
<g id="a_Node000046"><a xlink:title=" ">
<polygon fill="#e0e0e0" stroke="#999999" points="61.2,-74 14.2,-74 14.2,-55 61.2,-55 61.2,-74"/>
<text text-anchor="middle" x="37.7" y="-62" font-family="Ubuntu Mono" font-size="10.00">cmath</text>
</a>
</g>
</g>
<!-- Node45&#45;&gt;Node46 -->
<g id="edge51_Node000045_Node000046" class="edge">
<title>Node45&#45;&gt;Node46</title>
<g id="a_edge51_Node000045_Node000046"><a xlink:title=" ">
<path fill="none" stroke="#63b8ff" d="M130.02,-109.98C112.41,-101.5 85.12,-88.35 64.77,-78.54"/>
<polygon fill="#63b8ff" stroke="#63b8ff" points="66.22,-75.36 55.69,-74.17 63.18,-81.66 66.22,-75.36"/>
</a>
</g>
</g>
<!-- Node47 -->
<g id="Node000047" class="node">
<title>Node47</title>
<g id="a_Node000047"><a xlink:title=" ">
<polygon fill="#e0e0e0" stroke="#999999" points="123.7,-74 79.7,-74 79.7,-55 123.7,-55 123.7,-74"/>
<text text-anchor="middle" x="101.7" y="-62" font-family="Ubuntu Mono" font-size="10.00">cfloat</text>
</a>
</g>
</g>
<!-- Node45&#45;&gt;Node47 -->
<g id="edge52_Node000045_Node000047" class="edge">
<title>Node45&#45;&gt;Node47</title>
<g id="a_edge52_Node000045_Node000047"><a xlink:title=" ">
<path fill="none" stroke="#63b8ff" d="M140.1,-109.75C133.54,-102.18 123.87,-91.05 115.88,-81.84"/>
<polygon fill="#63b8ff" stroke="#63b8ff" points="118.35,-79.35 109.15,-74.09 113.06,-83.94 118.35,-79.35"/>
</a>
</g>
</g>
<!-- Node48 -->
<g id="Node000048" class="node">
<title>Node48</title>
<g id="a_Node000048"><a xlink:title=" ">
<polygon fill="#e0e0e0" stroke="#999999" points="111.7,-19 67.7,-19 67.7,0 111.7,0 111.7,-19"/>
<text text-anchor="middle" x="89.7" y="-7" font-family="Ubuntu Mono" font-size="10.00">limits</text>
</a>
</g>
</g>
<!-- Node45&#45;&gt;Node48 -->
<g id="edge53_Node000045_Node000048" class="edge">
<title>Node45&#45;&gt;Node48</title>
<g id="a_edge53_Node000045_Node000048"><a xlink:title=" ">
<path fill="none" stroke="#63b8ff" d="M95.65,-116.98C63.85,-113.02 25.43,-102.16 4.7,-74 -13.24,-49.64 26.82,-30.4 57.84,-19.74"/>
<polygon fill="#63b8ff" stroke="#63b8ff" points="59.09,-23.01 67.52,-16.58 56.92,-16.36 59.09,-23.01"/>
</a>
</g>
</g>
<!-- Node49 -->
<g id="Node000049" class="node">
<title>Node49</title>
<g id="a_Node000049"><a xlink:href="RNG_8h.html" target="_top" xlink:title=" ">
<polygon fill="#fff0f0" stroke="red" points="245.2,-74 142.2,-74 142.2,-55 245.2,-55 245.2,-74"/>
<text text-anchor="middle" x="193.7" y="-62" font-family="Ubuntu Mono" font-size="10.00">../randnum/RNG.h</text>
</a>
</g>
</g>
<!-- Node45&#45;&gt;Node49 -->
<g id="edge54_Node000045_Node000049" class="edge">
<title>Node45&#45;&gt;Node49</title>
<g id="a_edge54_Node000045_Node000049"><a xlink:title=" ">
<path fill="none" stroke="#63b8ff" d="M155.29,-109.75C161.86,-102.18 171.52,-91.05 179.51,-81.84"/>
<polygon fill="#63b8ff" stroke="#63b8ff" points="182.33,-83.94 186.24,-74.09 177.05,-79.35 182.33,-83.94"/>
</a>
</g>
</g>
<!-- Node54 -->
<g id="Node000054" class="node">
<title>Node54</title>
<g id="a_Node000054"><a xlink:href="global_8h.html" target="_top" xlink:title=" ">
<polygon fill="#fff0f0" stroke="red" points="2103.7,-74 1989.7,-74 1989.7,-55 2103.7,-55 2103.7,-74"/>
<text text-anchor="middle" x="2046.7" y="-62" font-family="Ubuntu Mono" font-size="10.00">../basecode/global.h</text>
</a>
</g>
</g>
<!-- Node45&#45;&gt;Node54 -->
<g id="edge58_Node000045_Node000054" class="edge">
<title>Node45&#45;&gt;Node54</title>
<g id="a_edge58_Node000045_Node000054"><a xlink:title=" ">
<path fill="none" stroke="#63b8ff" d="M199.91,-114.35C221.5,-112.77 246.79,-111.08 269.7,-110 936.03,-78.46 1744.05,-68.46 1979.4,-66.11"/>
<polygon fill="#63b8ff" stroke="#63b8ff" points="1979.55,-69.6 1989.51,-66.01 1979.48,-62.61 1979.55,-69.6"/>
</a>
</g>
</g>
<!-- Node49&#45;&gt;Node5 -->
<g id="edge57_Node000049_Node000005" class="edge">
<title>Node49&#45;&gt;Node5</title>
<g id="a_edge57_Node000049_Node000005"><a xlink:title=" ">
<path fill="none" stroke="#63b8ff" d="M206.55,-54.98C218.84,-46.84 237.6,-34.41 252.18,-24.76"/>
<polygon fill="#63b8ff" stroke="#63b8ff" points="254.21,-27.61 260.61,-19.17 250.34,-21.78 254.21,-27.61"/>
</a>
</g>
</g>
<!-- Node49&#45;&gt;Node10 -->
<g id="edge56_Node000049_Node000010" class="edge">
<title>Node49&#45;&gt;Node10</title>
<g id="a_edge56_Node000049_Node000010"><a xlink:title=" ">
<path fill="none" stroke="#63b8ff" d="M245.44,-58.18C348.22,-47.6 576.18,-24.14 668.61,-14.63"/>
<polygon fill="#63b8ff" stroke="#63b8ff" points="669.08,-18.1 678.67,-13.59 668.37,-11.13 669.08,-18.1"/>
</a>
</g>
</g>
<!-- Node49&#45;&gt;Node48 -->
<g id="edge55_Node000049_Node000048" class="edge">
<title>Node49&#45;&gt;Node48</title>
<g id="a_edge55_Node000049_Node000048"><a xlink:title=" ">
<path fill="none" stroke="#63b8ff" d="M176.99,-54.98C160.48,-46.57 135,-33.59 115.82,-23.81"/>
<polygon fill="#63b8ff" stroke="#63b8ff" points="117.21,-20.59 106.71,-19.17 114.03,-26.83 117.21,-20.59"/>
</a>
</g>
</g>
<!-- Node54&#45;&gt;Node8 -->
<g id="edge59_Node000054_Node000008" class="edge">
<title>Node54&#45;&gt;Node8</title>
<g id="a_edge59_Node000054_Node000008"><a xlink:title=" ">
<path fill="none" stroke="#63b8ff" d="M2053.63,-54.75C2059.57,-47.26 2068.27,-36.28 2075.52,-27.13"/>
<polygon fill="#63b8ff" stroke="#63b8ff" points="2078.42,-29.1 2081.89,-19.09 2072.94,-24.75 2078.42,-29.1"/>
</a>
</g>
</g>
<!-- Node54&#45;&gt;Node11 -->
<g id="edge60_Node000054_Node000011" class="edge">
<title>Node54&#45;&gt;Node11</title>
<g id="a_edge60_Node000054_Node000011"><a xlink:title=" ">
<path fill="none" stroke="#63b8ff" d="M2104.11,-56.84C2198.75,-45.87 2385.01,-24.26 2465.33,-14.95"/>
<polygon fill="#63b8ff" stroke="#63b8ff" points="2465.96,-18.4 2475.49,-13.77 2465.16,-11.45 2465.96,-18.4"/>
</a>
</g>
</g>
</g>
</svg>

<g id="navigator" transform="translate(0 0)" fill="#404254">
  <rect fill="#f2f5e9" fill-opacity="0.5" stroke="#606060" stroke-width=".5" x="0" y="0" width="60" height="60"/>
  <use id="zoomplus" xlink:href="#zoomPlus" x="17" y="9" onmousedown="handleZoom(evt,'in')"/>
  <use id="zoomminus" xlink:href="#zoomMin" x="42" y="9" onmousedown="handleZoom(evt,'out')"/>
  <use id="reset" xlink:href="#resetDef" x="30" y="36" onmousedown="handleReset()"/>
   <use id="arrowup" xlink:href="#arrowUp" x="0" y="0" onmousedown="handlePan(0,-1)"/>
  <use id="arrowright" xlink:href="#arrowRight" x="0" y="0" onmousedown="handlePan(1,0)"/>
  <use id="arrowdown" xlink:href="#arrowDown" x="0" y="0" onmousedown="handlePan(0,1)"/>
  <use id="arrowleft" xlink:href="#arrowLeft" x="0" y="0" onmousedown="handlePan(-1,0)"/>
</g>
<svg viewBox="0 0 15 15" width="100%" height="30px" preserveAspectRatio="xMaxYMin meet">
 <g id="arrow_out" transform="scale(0.3 0.3)">
  <a xlink:href="RateTerm_8cpp__incl_org.svg" target="_base">
   <rect id="button" ry="5" rx="5" y="6" x="6" height="38" width="38"
        fill="#f2f5e9" fill-opacity="0.5" stroke="#606060" stroke-width="1.0"/>
   <path id="arrow"
     d="M 11.500037,31.436501 C 11.940474,20.09759 22.043105,11.32322 32.158766,21.979434 L 37.068811,17.246167 C 37.068811,17.246167 37.088388,32 37.088388,32 L 22.160133,31.978069 C 22.160133,31.978069 26.997745,27.140456 26.997745,27.140456 C 18.528582,18.264221 13.291696,25.230495 11.500037,31.436501 z"
     style="fill:#404040;"/>
  </a>
 </g>
</svg>

<style type='text/css'>
<![CDATA[
[data-mouse-over-selected='false'] { opacity: 0.7; }
[data-mouse-over-selected='true']  { opacity: 1.0; }
]]>
</style>
<script type="application/ecmascript"><![CDATA[
document.addEventListener('DOMContentLoaded', (event) => {
  highlightEdges();
  highlightAdjacentNodes();
});
]]></script>
</svg>
