<?xml version="1.0" encoding="UTF-8" standalone="no"?>
<!DOCTYPE svg PUBLIC "-//W3C//DTD SVG 1.1//EN"
 "http://www.w3.org/Graphics/SVG/1.1/DTD/svg11.dtd">
<!-- Generated by graphviz version 2.43.0 (0)
 -->
<!-- Title: /home/runner/work/mooseneuro.github.io/mooseneuro.github.io/docs/moose&#45;core/biophysics/ReadSwc.cpp Pages: 1 -->
<!--zoomable 214 -->

<svg id="main" version="1.1" xmlns="http://www.w3.org/2000/svg" xmlns:xlink="http://www.w3.org/1999/xlink" xml:space="preserve" onload="init(evt)">
<style type="text/css"><![CDATA[
.node, .edge {opacity: 0.7;}
.node.selected, .edge.selected {opacity: 1;}
.edge:hover path { stroke: red; }
.edge:hover polygon { stroke: red; fill: red; }
]]></style>

<defs>
  <circle id="rim" cx="0" cy="0" r="7"/>
  <circle id="rim2" cx="0" cy="0" r="3.5"/>
  <g id="zoomPlus">
    <use xlink:href="#rim" fill="#404040"><set attributeName="fill" to="#808080" begin="zoomplus.mouseover" end="zoomplus.mouseout"/></use>
    <path d="M-4,0h8M0,-4v8" fill="none" stroke="white" stroke-width="1.5" pointer-events="none"/>
  </g>
  <g id="zoomMin">
    <use xlink:href="#rim" fill="#404040"><set attributeName="fill" to="#808080" begin="zoomminus.mouseover" end="zoomminus.mouseout"/></use>
    <path d="M-4,0h8" fill="none" stroke="white" stroke-width="1.5" pointer-events="none"/>
  </g>
  <g id="arrowUp" transform="translate(30 24)">
    <use xlink:href="#rim"/>
    <path pointer-events="none" fill="none" stroke="white" stroke-width="1.5" d="M0,-3.0v7 M-2.5,-0.5L0,-3.0L2.5,-0.5"/>
  </g>
  <g id="arrowRight" transform="rotate(90) translate(36 -43)">
    <use xlink:href="#rim"/>
    <path pointer-events="none" fill="none" stroke="white" stroke-width="1.5" d="M0,-3.0v7 M-2.5,-0.5L0,-3.0L2.5,-0.5"/>
  </g>
  <g id="arrowDown" transform="rotate(180) translate(-30 -48)">
    <use xlink:href="#rim"/>
    <path pointer-events="none" fill="none" stroke="white" stroke-width="1.5" d="M0,-3.0v7 M-2.5,-0.5L0,-3.0L2.5,-0.5"/>
  </g>
  <g id="arrowLeft" transform="rotate(270) translate(-36 17)">
    <use xlink:href="#rim"/>
    <path pointer-events="none" fill="none" stroke="white" stroke-width="1.5" d="M0,-3.0v7 M-2.5,-0.5L0,-3.0L2.5,-0.5"/>
  </g>
  <g id="resetDef">
    <use xlink:href="#rim2" fill="#404040"><set attributeName="fill" to="#808080" begin="reset.mouseover" end="reset.mouseout"/></use>
  </g>
</defs>
<script type="application/ecmascript">
var viewWidth = 3329;
var viewHeight = 214;
var sectionId = 'dynsection-0';
</script>
<script type="application/ecmascript" xlink:href="svg.min.js"/>
<svg id="graph" class="graph">
<g id="viewport">
<title>/home/runner/work/mooseneuro.github.io/mooseneuro.github.io/docs/moose&#45;core/biophysics/ReadSwc.cpp</title>
<!-- Node1 -->
<g id="Node000001" class="node">
<title>Node1</title>
<g id="a_Node000001"><a xlink:title=" ">
<polygon fill="#999999" stroke="#666666" points="1973,-206 1755,-206 1755,-165 1973,-165 1973,-206"/>
<text text-anchor="start" x="1763" y="-194" font-family="Ubuntu Mono" font-size="10.00">/home/runner/work/mooseneuro.github.io</text>
<text text-anchor="start" x="1763" y="-183" font-family="Ubuntu Mono" font-size="10.00">/mooseneuro.github.io/docs/moose</text>
<text text-anchor="middle" x="1864" y="-172" font-family="Ubuntu Mono" font-size="10.00">&#45;core/biophysics/ReadSwc.cpp</text>
</a>
</g>
</g>
<!-- Node2 -->
<g id="Node000002" class="node">
<title>Node2</title>
<g id="a_Node000002"><a xlink:href="header_8h.html" target="_top" xlink:title=" ">
<polygon fill="#fff0f0" stroke="red" points="1546.5,-129 1429.5,-129 1429.5,-110 1546.5,-110 1546.5,-129"/>
<text text-anchor="middle" x="1488" y="-117" font-family="Ubuntu Mono" font-size="10.00">../basecode/header.h</text>
</a>
</g>
</g>
<!-- Node1&#45;&gt;Node2 -->
<g id="edge1_Node000001_Node000002" class="edge">
<title>Node1&#45;&gt;Node2</title>
<g id="a_edge1_Node000001_Node000002"><a xlink:title=" ">
<path fill="none" stroke="#63b8ff" d="M1754.99,-165.95C1687.62,-154.48 1603.71,-140.2 1548.13,-130.74"/>
<polygon fill="#63b8ff" stroke="#63b8ff" points="1548.54,-127.25 1538.1,-129.03 1547.37,-134.16 1548.54,-127.25"/>
</a>
</g>
</g>
<!-- Node44 -->
<g id="Node000044" class="node">
<title>Node44</title>
<g id="a_Node000044"><a xlink:href="Shell_8h.html" target="_top" xlink:title=" ">
<polygon fill="white" stroke="#666666" points="758.5,-129 673.5,-129 673.5,-110 758.5,-110 758.5,-129"/>
<text text-anchor="middle" x="716" y="-117" font-family="Ubuntu Mono" font-size="10.00">../shell/Shell.h</text>
</a>
</g>
</g>
<!-- Node1&#45;&gt;Node44 -->
<g id="edge43_Node000001_Node000044" class="edge">
<title>Node1&#45;&gt;Node44</title>
<g id="a_edge43_Node000001_Node000044"><a xlink:title=" ">
<path fill="none" stroke="#63b8ff" d="M1754.96,-178.42C1514.2,-165 944.58,-133.24 768.67,-123.44"/>
<polygon fill="#63b8ff" stroke="#63b8ff" points="768.81,-119.94 758.63,-122.88 768.42,-126.93 768.81,-119.94"/>
</a>
</g>
</g>
<!-- Node45 -->
<g id="Node000045" class="node">
<title>Node45</title>
<g id="a_Node000045"><a xlink:href="Vec_8h.html" target="_top" xlink:title=" ">
<polygon fill="white" stroke="#666666" points="1647.5,-129 1564.5,-129 1564.5,-110 1647.5,-110 1647.5,-129"/>
<text text-anchor="middle" x="1606" y="-117" font-family="Ubuntu Mono" font-size="10.00">../utility/Vec.h</text>
</a>
</g>
</g>
<!-- Node1&#45;&gt;Node45 -->
<g id="edge45_Node000001_Node000045" class="edge">
<title>Node1&#45;&gt;Node45</title>
<g id="a_edge45_Node000001_Node000045"><a xlink:title=" ">
<path fill="none" stroke="#63b8ff" d="M1785.19,-164.95C1740.9,-153.96 1687.25,-140.65 1650.27,-131.48"/>
<polygon fill="#63b8ff" stroke="#63b8ff" points="1650.85,-128.02 1640.3,-129.01 1649.16,-134.81 1650.85,-128.02"/>
</a>
</g>
</g>
<!-- Node46 -->
<g id="Node000046" class="node">
<title>Node46</title>
<g id="a_Node000046"><a xlink:href="SwcSegment_8h.html" target="_top" xlink:title=" ">
<polygon fill="white" stroke="#666666" points="1754.5,-129 1665.5,-129 1665.5,-110 1754.5,-110 1754.5,-129"/>
<text text-anchor="middle" x="1710" y="-117" font-family="Ubuntu Mono" font-size="10.00">SwcSegment.h</text>
</a>
</g>
</g>
<!-- Node1&#45;&gt;Node46 -->
<g id="edge46_Node000001_Node000046" class="edge">
<title>Node1&#45;&gt;Node46</title>
<g id="a_edge46_Node000001_Node000046"><a xlink:title=" ">
<path fill="none" stroke="#63b8ff" d="M1816.96,-164.95C1791.95,-154.56 1761.95,-142.09 1740.1,-133.01"/>
<polygon fill="#63b8ff" stroke="#63b8ff" points="1741.25,-129.7 1730.67,-129.09 1738.57,-136.16 1741.25,-129.7"/>
</a>
</g>
</g>
<!-- Node47 -->
<g id="Node000047" class="node">
<title>Node47</title>
<g id="a_Node000047"><a xlink:href="ReadSwc_8h.html" target="_top" xlink:title=" ">
<polygon fill="white" stroke="#666666" points="1843,-129 1773,-129 1773,-110 1843,-110 1843,-129"/>
<text text-anchor="middle" x="1808" y="-117" font-family="Ubuntu Mono" font-size="10.00">ReadSwc.h</text>
</a>
</g>
</g>
<!-- Node1&#45;&gt;Node47 -->
<g id="edge47_Node000001_Node000047" class="edge">
<title>Node1&#45;&gt;Node47</title>
<g id="a_edge47_Node000001_Node000047"><a xlink:title=" ">
<path fill="none" stroke="#63b8ff" d="M1846.89,-164.95C1839.08,-156.02 1829.92,-145.55 1822.45,-137.02"/>
<polygon fill="#63b8ff" stroke="#63b8ff" points="1824.88,-134.48 1815.67,-129.26 1819.62,-139.09 1824.88,-134.48"/>
</a>
</g>
</g>
<!-- Node48 -->
<g id="Node000048" class="node">
<title>Node48</title>
<g id="a_Node000048"><a xlink:href="CompartmentBase_8h.html" target="_top" xlink:title=" ">
<polygon fill="white" stroke="#666666" points="1978.5,-129 1861.5,-129 1861.5,-110 1978.5,-110 1978.5,-129"/>
<text text-anchor="middle" x="1920" y="-117" font-family="Ubuntu Mono" font-size="10.00">CompartmentBase.h</text>
</a>
</g>
</g>
<!-- Node1&#45;&gt;Node48 -->
<g id="edge48_Node000001_Node000048" class="edge">
<title>Node1&#45;&gt;Node48</title>
<g id="a_edge48_Node000001_Node000048"><a xlink:title=" ">
<path fill="none" stroke="#63b8ff" d="M1881.11,-164.95C1888.92,-156.02 1898.08,-145.55 1905.55,-137.02"/>
<polygon fill="#63b8ff" stroke="#63b8ff" points="1908.38,-139.09 1912.33,-129.26 1903.12,-134.48 1908.38,-139.09"/>
</a>
</g>
</g>
<!-- Node49 -->
<g id="Node000049" class="node">
<title>Node49</title>
<g id="a_Node000049"><a xlink:href="Compartment_8h.html" target="_top" xlink:title=" ">
<polygon fill="white" stroke="#666666" points="2089.5,-129 1996.5,-129 1996.5,-110 2089.5,-110 2089.5,-129"/>
<text text-anchor="middle" x="2043" y="-117" font-family="Ubuntu Mono" font-size="10.00">Compartment.h</text>
</a>
</g>
</g>
<!-- Node1&#45;&gt;Node49 -->
<g id="edge49_Node000001_Node000049" class="edge">
<title>Node1&#45;&gt;Node49</title>
<g id="a_edge49_Node000001_Node000049"><a xlink:title=" ">
<path fill="none" stroke="#63b8ff" d="M1918.68,-164.95C1948.27,-154.37 1983.87,-141.64 2009.38,-132.52"/>
<polygon fill="#63b8ff" stroke="#63b8ff" points="2010.73,-135.75 2018.97,-129.09 2008.38,-129.16 2010.73,-135.75"/>
</a>
</g>
</g>
<!-- Node50 -->
<g id="Node000050" class="node">
<title>Node50</title>
<g id="a_Node000050"><a xlink:href="SymCompartment_8h.html" target="_top" xlink:title=" ">
<polygon fill="white" stroke="#666666" points="2222.5,-129 2107.5,-129 2107.5,-110 2222.5,-110 2222.5,-129"/>
<text text-anchor="middle" x="2165" y="-117" font-family="Ubuntu Mono" font-size="10.00">SymCompartment.h</text>
</a>
</g>
</g>
<!-- Node1&#45;&gt;Node50 -->
<g id="edge50_Node000001_Node000050" class="edge">
<title>Node1&#45;&gt;Node50</title>
<g id="a_edge50_Node000001_Node000050"><a xlink:title=" ">
<path fill="none" stroke="#63b8ff" d="M1955.95,-164.95C2008.28,-153.82 2071.82,-140.31 2115.01,-131.13"/>
<polygon fill="#63b8ff" stroke="#63b8ff" points="2115.93,-134.51 2124.99,-129.01 2114.48,-127.66 2115.93,-134.51"/>
</a>
</g>
</g>
<!-- Node51 -->
<g id="Node000051" class="node">
<title>Node51</title>
<g id="a_Node000051"><a xlink:title=" ">
<polygon fill="#e0e0e0" stroke="#999999" points="2295.5,-129 2240.5,-129 2240.5,-110 2295.5,-110 2295.5,-129"/>
<text text-anchor="middle" x="2268" y="-117" font-family="Ubuntu Mono" font-size="10.00">fstream</text>
</a>
</g>
</g>
<!-- Node1&#45;&gt;Node51 -->
<g id="edge51_Node000001_Node000051" class="edge">
<title>Node1&#45;&gt;Node51</title>
<g id="a_edge51_Node000001_Node000051"><a xlink:title=" ">
<path fill="none" stroke="#63b8ff" d="M1973.16,-170.2C2043.78,-160.42 2137.86,-146.43 2230.09,-129.05"/>
<polygon fill="#63b8ff" stroke="#63b8ff" points="2231,-132.44 2240.17,-127.13 2229.69,-125.56 2231,-132.44"/>
</a>
</g>
</g>
<!-- Node52 -->
<g id="Node000052" class="node">
<title>Node52</title>
<g id="a_Node000052"><a xlink:title=" ">
<polygon fill="#e0e0e0" stroke="#999999" points="2370,-129 2314,-129 2314,-110 2370,-110 2370,-129"/>
<text text-anchor="middle" x="2342" y="-117" font-family="Ubuntu Mono" font-size="10.00">iomanip</text>
</a>
</g>
</g>
<!-- Node1&#45;&gt;Node52 -->
<g id="edge52_Node000001_Node000052" class="edge">
<title>Node1&#45;&gt;Node52</title>
<g id="a_edge52_Node000001_Node000052"><a xlink:title=" ">
<path fill="none" stroke="#63b8ff" d="M1973.2,-173.85C2060.28,-164.63 2185.48,-149.78 2303.82,-129.05"/>
<polygon fill="#63b8ff" stroke="#63b8ff" points="2304.54,-132.48 2313.78,-127.29 2303.32,-125.59 2304.54,-132.48"/>
</a>
</g>
</g>
<!-- Node3 -->
<g id="Node000003" class="node">
<title>Node3</title>
<g id="a_Node000003"><a xlink:title=" ">
<polygon fill="#e0e0e0" stroke="#999999" points="3320.5,-74 3269.5,-74 3269.5,-55 3320.5,-55 3320.5,-74"/>
<text text-anchor="middle" x="3295" y="-62" font-family="Ubuntu Mono" font-size="10.00">math.h</text>
</a>
</g>
</g>
<!-- Node2&#45;&gt;Node3 -->
<g id="edge2_Node000002_Node000003" class="edge">
<title>Node2&#45;&gt;Node3</title>
<g id="a_edge2_Node000002_Node000003"><a xlink:title=" ">
<path fill="none" stroke="#63b8ff" d="M1546.79,-110.69C1549.56,-110.43 1552.31,-110.2 1555,-110 1929.94,-82.34 2868.93,-123.58 3259.52,-73.83"/>
<polygon fill="#63b8ff" stroke="#63b8ff" points="3260.04,-77.3 3269.5,-72.53 3259.13,-70.35 3260.04,-77.3"/>
</a>
</g>
</g>
<!-- Node4 -->
<g id="Node000004" class="node">
<title>Node4</title>
<g id="a_Node000004"><a xlink:title=" ">
<polygon fill="#e0e0e0" stroke="#999999" points="126,-74 62,-74 62,-55 126,-55 126,-74"/>
<text text-anchor="middle" x="94" y="-62" font-family="Ubuntu Mono" font-size="10.00">algorithm</text>
</a>
</g>
</g>
<!-- Node2&#45;&gt;Node4 -->
<g id="edge3_Node000002_Node000004" class="edge">
<title>Node2&#45;&gt;Node4</title>
<g id="a_edge3_Node000002_Node000004"><a xlink:title=" ">
<path fill="none" stroke="#63b8ff" d="M1429.34,-117.91C1206.4,-115.46 411.02,-104.81 136.1,-73.86"/>
<polygon fill="#63b8ff" stroke="#63b8ff" points="136.48,-70.39 126.14,-72.71 135.67,-77.34 136.48,-70.39"/>
</a>
</g>
</g>
<!-- Node5 -->
<g id="Node000005" class="node">
<title>Node5</title>
<g id="a_Node000005"><a xlink:title=" ">
<polygon fill="#e0e0e0" stroke="#999999" points="191.5,-74 144.5,-74 144.5,-55 191.5,-55 191.5,-74"/>
<text text-anchor="middle" x="168" y="-62" font-family="Ubuntu Mono" font-size="10.00">vector</text>
</a>
</g>
</g>
<!-- Node2&#45;&gt;Node5 -->
<g id="edge4_Node000002_Node000005" class="edge">
<title>Node2&#45;&gt;Node5</title>
<g id="a_edge4_Node000002_Node000005"><a xlink:title=" ">
<path fill="none" stroke="#63b8ff" d="M1429.18,-118.16C1213.15,-116.67 463.02,-109.11 201.87,-73.69"/>
<polygon fill="#63b8ff" stroke="#63b8ff" points="202.06,-70.18 191.67,-72.25 201.08,-77.11 202.06,-70.18"/>
</a>
</g>
</g>
<!-- Node6 -->
<g id="Node000006" class="node">
<title>Node6</title>
<g id="a_Node000006"><a xlink:title=" ">
<polygon fill="#e0e0e0" stroke="#999999" points="44,-74 0,-74 0,-55 44,-55 44,-74"/>
<text text-anchor="middle" x="22" y="-62" font-family="Ubuntu Mono" font-size="10.00">string</text>
</a>
</g>
</g>
<!-- Node2&#45;&gt;Node6 -->
<g id="edge5_Node000002_Node000006" class="edge">
<title>Node2&#45;&gt;Node6</title>
<g id="a_edge5_Node000002_Node000006"><a xlink:title=" ">
<path fill="none" stroke="#63b8ff" d="M1429.46,-117.5C1182.48,-113.19 230.58,-95.42 54.26,-73.64"/>
<polygon fill="#63b8ff" stroke="#63b8ff" points="54.6,-70.16 44.22,-72.27 53.65,-77.09 54.6,-70.16"/>
</a>
</g>
</g>
<!-- Node7 -->
<g id="Node000007" class="node">
<title>Node7</title>
<g id="a_Node000007"><a xlink:title=" ">
<polygon fill="#e0e0e0" stroke="#999999" points="248,-74 210,-74 210,-55 248,-55 248,-74"/>
<text text-anchor="middle" x="229" y="-62" font-family="Ubuntu Mono" font-size="10.00">map</text>
</a>
</g>
</g>
<!-- Node2&#45;&gt;Node7 -->
<g id="edge6_Node000002_Node000007" class="edge">
<title>Node2&#45;&gt;Node7</title>
<g id="a_edge6_Node000002_Node000007"><a xlink:title=" ">
<path fill="none" stroke="#63b8ff" d="M1429.15,-118.38C1219.16,-117.66 506.51,-112.49 258.18,-73.65"/>
<polygon fill="#63b8ff" stroke="#63b8ff" points="258.56,-70.17 248.12,-72.02 257.43,-77.08 258.56,-70.17"/>
</a>
</g>
</g>
<!-- Node8 -->
<g id="Node000008" class="node">
<title>Node8</title>
<g id="a_Node000008"><a xlink:title=" ">
<polygon fill="#e0e0e0" stroke="#999999" points="359.5,-74 266.5,-74 266.5,-55 359.5,-55 359.5,-74"/>
<text text-anchor="middle" x="313" y="-62" font-family="Ubuntu Mono" font-size="10.00">unordered_map</text>
</a>
</g>
</g>
<!-- Node2&#45;&gt;Node8 -->
<g id="edge7_Node000002_Node000008" class="edge">
<title>Node2&#45;&gt;Node8</title>
<g id="a_edge7_Node000002_Node000008"><a xlink:title=" ">
<path fill="none" stroke="#63b8ff" d="M1429.3,-118.46C1264.12,-117.84 781.13,-112.68 369.71,-73.94"/>
<polygon fill="#63b8ff" stroke="#63b8ff" points="369.99,-70.45 359.7,-72.98 369.33,-77.41 369.99,-70.45"/>
</a>
</g>
</g>
<!-- Node9 -->
<g id="Node000009" class="node">
<title>Node9</title>
<g id="a_Node000009"><a xlink:title=" ">
<polygon fill="#e0e0e0" stroke="#999999" points="438,-74 378,-74 378,-55 438,-55 438,-74"/>
<text text-anchor="middle" x="408" y="-62" font-family="Ubuntu Mono" font-size="10.00">iostream</text>
</a>
</g>
</g>
<!-- Node2&#45;&gt;Node9 -->
<g id="edge8_Node000002_Node000009" class="edge">
<title>Node2&#45;&gt;Node9</title>
<g id="a_edge8_Node000002_Node000009"><a xlink:title=" ">
<path fill="none" stroke="#63b8ff" d="M1429.3,-117.32C1241.9,-113.34 658.4,-99.32 448.17,-73.87"/>
<polygon fill="#63b8ff" stroke="#63b8ff" points="448.5,-70.38 438.14,-72.61 447.63,-77.33 448.5,-70.38"/>
</a>
</g>
</g>
<!-- Node10 -->
<g id="Node000010" class="node">
<title>Node10</title>
<g id="a_Node000010"><a xlink:title=" ">
<polygon fill="#e0e0e0" stroke="#999999" points="512,-74 456,-74 456,-55 512,-55 512,-74"/>
<text text-anchor="middle" x="484" y="-62" font-family="Ubuntu Mono" font-size="10.00">sstream</text>
</a>
</g>
</g>
<!-- Node2&#45;&gt;Node10 -->
<g id="edge9_Node000002_Node000010" class="edge">
<title>Node2&#45;&gt;Node10</title>
<g id="a_edge9_Node000002_Node000010"><a xlink:title=" ">
<path fill="none" stroke="#63b8ff" d="M1429.37,-117.19C1251.25,-112.98 717.24,-98.72 522.32,-73.87"/>
<polygon fill="#63b8ff" stroke="#63b8ff" points="522.56,-70.37 512.19,-72.52 521.64,-77.31 522.56,-70.37"/>
</a>
</g>
</g>
<!-- Node11 -->
<g id="Node000011" class="node">
<title>Node11</title>
<g id="a_Node000011"><a xlink:title=" ">
<polygon fill="#e0e0e0" stroke="#999999" points="1478.5,-19 1421.5,-19 1421.5,0 1478.5,0 1478.5,-19"/>
<text text-anchor="middle" x="1450" y="-7" font-family="Ubuntu Mono" font-size="10.00">typeinfo</text>
</a>
</g>
</g>
<!-- Node2&#45;&gt;Node11 -->
<g id="edge10_Node000002_Node000011" class="edge">
<title>Node2&#45;&gt;Node11</title>
<g id="a_edge10_Node000002_Node000011"><a xlink:title=" ">
<path fill="none" stroke="#63b8ff" d="M1546.8,-110.81C1549.57,-110.52 1552.31,-110.25 1555,-110 1623.38,-103.67 2124.88,-123.95 2172,-74 2177.79,-67.86 2177.78,-61.15 2172,-55 2148.42,-29.92 1635.58,-15.16 1488.88,-11.44"/>
<polygon fill="#63b8ff" stroke="#63b8ff" points="1488.65,-7.93 1478.57,-11.18 1488.48,-14.93 1488.65,-7.93"/>
</a>
</g>
</g>
<!-- Node12 -->
<g id="Node000012" class="node">
<title>Node12</title>
<g id="a_Node000012"><a xlink:title=" ">
<polygon fill="#e0e0e0" stroke="#999999" points="660,-74 608,-74 608,-55 660,-55 660,-74"/>
<text text-anchor="middle" x="634" y="-62" font-family="Ubuntu Mono" font-size="10.00">cassert</text>
</a>
</g>
</g>
<!-- Node2&#45;&gt;Node12 -->
<g id="edge11_Node000002_Node000012" class="edge">
<title>Node2&#45;&gt;Node12</title>
<g id="a_edge11_Node000002_Node000012"><a xlink:title=" ">
<path fill="none" stroke="#63b8ff" d="M1429.29,-119C1295.86,-119.34 959.64,-115.72 670.54,-73.93"/>
<polygon fill="#63b8ff" stroke="#63b8ff" points="670.67,-70.41 660.27,-72.43 669.66,-77.34 670.67,-70.41"/>
</a>
</g>
</g>
<!-- Node13 -->
<g id="Node000013" class="node">
<title>Node13</title>
<g id="a_Node000013"><a xlink:href="doubleEq_8h.html" target="_top" xlink:title=" ">
<polygon fill="white" stroke="#666666" points="749.5,-74 678.5,-74 678.5,-55 749.5,-55 749.5,-74"/>
<text text-anchor="middle" x="714" y="-62" font-family="Ubuntu Mono" font-size="10.00">doubleEq.h</text>
</a>
</g>
</g>
<!-- Node2&#45;&gt;Node13 -->
<g id="edge12_Node000002_Node000013" class="edge">
<title>Node2&#45;&gt;Node13</title>
<g id="a_edge12_Node000002_Node000013"><a xlink:title=" ">
<path fill="none" stroke="#63b8ff" d="M1429.09,-117.5C1306.31,-114.86 1014,-105.65 760.11,-74.12"/>
<polygon fill="#63b8ff" stroke="#63b8ff" points="760.32,-70.61 749.96,-72.84 759.44,-77.56 760.32,-70.61"/>
</a>
</g>
</g>
<!-- Node14 -->
<g id="Node000014" class="node">
<title>Node14</title>
<g id="a_Node000014"><a xlink:href="Id_8h.html" target="_top" xlink:title=" ">
<polygon fill="white" stroke="#666666" points="802.5,-74 767.5,-74 767.5,-55 802.5,-55 802.5,-74"/>
<text text-anchor="middle" x="785" y="-62" font-family="Ubuntu Mono" font-size="10.00">Id.h</text>
</a>
</g>
</g>
<!-- Node2&#45;&gt;Node14 -->
<g id="edge13_Node000002_Node000014" class="edge">
<title>Node2&#45;&gt;Node14</title>
<g id="a_edge13_Node000002_Node000014"><a xlink:title=" ">
<path fill="none" stroke="#63b8ff" d="M1429.37,-116.53C1291.1,-111.59 946.83,-97.48 812.79,-73.82"/>
<polygon fill="#63b8ff" stroke="#63b8ff" points="813.22,-70.34 802.75,-71.95 811.94,-77.22 813.22,-70.34"/>
</a>
</g>
</g>
<!-- Node15 -->
<g id="Node000015" class="node">
<title>Node15</title>
<g id="a_Node000015"><a xlink:href="ObjId_8h.html" target="_top" xlink:title=" ">
<polygon fill="white" stroke="#666666" points="871.5,-74 820.5,-74 820.5,-55 871.5,-55 871.5,-74"/>
<text text-anchor="middle" x="846" y="-62" font-family="Ubuntu Mono" font-size="10.00">ObjId.h</text>
</a>
</g>
</g>
<!-- Node2&#45;&gt;Node15 -->
<g id="edge14_Node000002_Node000015" class="edge">
<title>Node2&#45;&gt;Node15</title>
<g id="a_edge14_Node000002_Node000015"><a xlink:title=" ">
<path fill="none" stroke="#63b8ff" d="M1429.35,-117.55C1322.19,-115.09 1087.58,-106.34 881.62,-73.99"/>
<polygon fill="#63b8ff" stroke="#63b8ff" points="881.95,-70.5 871.52,-72.38 880.85,-77.41 881.95,-70.5"/>
</a>
</g>
</g>
<!-- Node16 -->
<g id="Node000016" class="node">
<title>Node16</title>
<g id="a_Node000016"><a xlink:href="Cinfo_8h.html" target="_top" xlink:title=" ">
<polygon fill="white" stroke="#666666" points="940.5,-74 889.5,-74 889.5,-55 940.5,-55 940.5,-74"/>
<text text-anchor="middle" x="915" y="-62" font-family="Ubuntu Mono" font-size="10.00">Cinfo.h</text>
</a>
</g>
</g>
<!-- Node2&#45;&gt;Node16 -->
<g id="edge15_Node000002_Node000016" class="edge">
<title>Node2&#45;&gt;Node16</title>
<g id="a_edge15_Node000002_Node000016"><a xlink:title=" ">
<path fill="none" stroke="#63b8ff" d="M1429.12,-116.63C1331.57,-112.87 1130.22,-102.34 950.42,-73.78"/>
<polygon fill="#63b8ff" stroke="#63b8ff" points="950.95,-70.32 940.52,-72.18 949.84,-77.23 950.95,-70.32"/>
</a>
</g>
</g>
<!-- Node17 -->
<g id="Node000017" class="node">
<title>Node17</title>
<g id="a_Node000017"><a xlink:href="basecode_2Finfo_8h.html" target="_top" xlink:title=" ">
<polygon fill="white" stroke="#666666" points="1009,-74 959,-74 959,-55 1009,-55 1009,-74"/>
<text text-anchor="middle" x="984" y="-62" font-family="Ubuntu Mono" font-size="10.00">Finfo.h</text>
</a>
</g>
</g>
<!-- Node2&#45;&gt;Node17 -->
<g id="edge16_Node000002_Node000017" class="edge">
<title>Node2&#45;&gt;Node17</title>
<g id="a_edge16_Node000002_Node000017"><a xlink:title=" ">
<path fill="none" stroke="#63b8ff" d="M1429.38,-115.79C1341.99,-111.13 1172.32,-99.66 1019.22,-73.95"/>
<polygon fill="#63b8ff" stroke="#63b8ff" points="1019.61,-70.47 1009.16,-72.24 1018.43,-77.37 1019.61,-70.47"/>
</a>
</g>
</g>
<!-- Node18 -->
<g id="Node000018" class="node">
<title>Node18</title>
<g id="a_Node000018"><a xlink:href="DestFinfo_8h.html" target="_top" xlink:title=" ">
<polygon fill="white" stroke="#666666" points="1099,-74 1027,-74 1027,-55 1099,-55 1099,-74"/>
<text text-anchor="middle" x="1063" y="-62" font-family="Ubuntu Mono" font-size="10.00">DestFinfo.h</text>
</a>
</g>
</g>
<!-- Node2&#45;&gt;Node18 -->
<g id="edge17_Node000002_Node000018" class="edge">
<title>Node2&#45;&gt;Node18</title>
<g id="a_edge17_Node000002_Node000018"><a xlink:title=" ">
<path fill="none" stroke="#63b8ff" d="M1429.24,-112.91C1356.47,-105.7 1228.5,-92.08 1109.34,-74.11"/>
<polygon fill="#63b8ff" stroke="#63b8ff" points="1109.72,-70.63 1099.31,-72.59 1108.67,-77.55 1109.72,-70.63"/>
</a>
</g>
</g>
<!-- Node19 -->
<g id="Node000019" class="node">
<title>Node19</title>
<g id="a_Node000019"><a xlink:href="ProcInfo_8h.html" target="_top" xlink:title=" ">
<polygon fill="white" stroke="#666666" points="1182.5,-74 1117.5,-74 1117.5,-55 1182.5,-55 1182.5,-74"/>
<text text-anchor="middle" x="1150" y="-62" font-family="Ubuntu Mono" font-size="10.00">ProcInfo.h</text>
</a>
</g>
</g>
<!-- Node2&#45;&gt;Node19 -->
<g id="edge18_Node000002_Node000019" class="edge">
<title>Node2&#45;&gt;Node19</title>
<g id="a_edge18_Node000002_Node000019"><a xlink:title=" ">
<path fill="none" stroke="#63b8ff" d="M1429.24,-110.68C1371.37,-102.76 1280.26,-89.69 1192.5,-74.19"/>
<polygon fill="#63b8ff" stroke="#63b8ff" points="1193.1,-70.74 1182.64,-72.44 1191.87,-77.64 1193.1,-70.74"/>
</a>
</g>
</g>
<!-- Node20 -->
<g id="Node000020" class="node">
<title>Node20</title>
<g id="a_Node000020"><a xlink:href="MsgFuncBinding_8h.html" target="_top" xlink:title=" ">
<polygon fill="white" stroke="#666666" points="1305.5,-74 1200.5,-74 1200.5,-55 1305.5,-55 1305.5,-74"/>
<text text-anchor="middle" x="1253" y="-62" font-family="Ubuntu Mono" font-size="10.00">MsgFuncBinding.h</text>
</a>
</g>
</g>
<!-- Node2&#45;&gt;Node20 -->
<g id="edge19_Node000002_Node000020" class="edge">
<title>Node2&#45;&gt;Node20</title>
<g id="a_edge19_Node000002_Node000020"><a xlink:title=" ">
<path fill="none" stroke="#63b8ff" d="M1450.24,-109.98C1409.68,-100.84 1345.11,-86.27 1300.97,-76.32"/>
<polygon fill="#63b8ff" stroke="#63b8ff" points="1301.58,-72.87 1291.05,-74.08 1300.04,-79.7 1301.58,-72.87"/>
</a>
</g>
</g>
<!-- Node21 -->
<g id="Node000021" class="node">
<title>Node21</title>
<g id="a_Node000021"><a xlink:href="Msg_8h.html" target="_top" xlink:title=" ">
<polygon fill="white" stroke="#666666" points="1402.5,-74 1323.5,-74 1323.5,-55 1402.5,-55 1402.5,-74"/>
<text text-anchor="middle" x="1363" y="-62" font-family="Ubuntu Mono" font-size="10.00">../msg/Msg.h</text>
</a>
</g>
</g>
<!-- Node2&#45;&gt;Node21 -->
<g id="edge20_Node000002_Node000021" class="edge">
<title>Node2&#45;&gt;Node21</title>
<g id="a_edge20_Node000002_Node000021"><a xlink:title=" ">
<path fill="none" stroke="#63b8ff" d="M1467.92,-109.98C1447.63,-101.38 1416.04,-87.99 1392.83,-78.15"/>
<polygon fill="#63b8ff" stroke="#63b8ff" points="1394.02,-74.85 1383.45,-74.17 1391.29,-81.3 1394.02,-74.85"/>
</a>
</g>
</g>
<!-- Node22 -->
<g id="Node000022" class="node">
<title>Node22</title>
<g id="a_Node000022"><a xlink:href="Dinfo_8h.html" target="_top" xlink:title=" ">
<polygon fill="white" stroke="#666666" points="1473,-74 1421,-74 1421,-55 1473,-55 1473,-74"/>
<text text-anchor="middle" x="1447" y="-62" font-family="Ubuntu Mono" font-size="10.00">Dinfo.h</text>
</a>
</g>
</g>
<!-- Node2&#45;&gt;Node22 -->
<g id="edge21_Node000002_Node000022" class="edge">
<title>Node2&#45;&gt;Node22</title>
<g id="a_edge21_Node000002_Node000022"><a xlink:title=" ">
<path fill="none" stroke="#63b8ff" d="M1481.23,-109.75C1475.44,-102.26 1466.94,-91.28 1459.86,-82.13"/>
<polygon fill="#63b8ff" stroke="#63b8ff" points="1462.53,-79.86 1453.64,-74.09 1456.99,-84.14 1462.53,-79.86"/>
</a>
</g>
</g>
<!-- Node23 -->
<g id="Node000023" class="node">
<title>Node23</title>
<g id="a_Node000023"><a xlink:href="MsgDigest_8h.html" target="_top" xlink:title=" ">
<polygon fill="white" stroke="#666666" points="1568.5,-74 1491.5,-74 1491.5,-55 1568.5,-55 1568.5,-74"/>
<text text-anchor="middle" x="1530" y="-62" font-family="Ubuntu Mono" font-size="10.00">MsgDigest.h</text>
</a>
</g>
</g>
<!-- Node2&#45;&gt;Node23 -->
<g id="edge22_Node000002_Node000023" class="edge">
<title>Node2&#45;&gt;Node23</title>
<g id="a_edge22_Node000002_Node000023"><a xlink:title=" ">
<path fill="none" stroke="#63b8ff" d="M1494.94,-109.75C1500.87,-102.26 1509.57,-91.28 1516.82,-82.13"/>
<polygon fill="#63b8ff" stroke="#63b8ff" points="1519.73,-84.1 1523.19,-74.09 1514.24,-79.75 1519.73,-84.1"/>
</a>
</g>
</g>
<!-- Node24 -->
<g id="Node000024" class="node">
<title>Node24</title>
<g id="a_Node000024"><a xlink:href="Element_8h.html" target="_top" xlink:title=" ">
<polygon fill="white" stroke="#666666" points="1653,-74 1587,-74 1587,-55 1653,-55 1653,-74"/>
<text text-anchor="middle" x="1620" y="-62" font-family="Ubuntu Mono" font-size="10.00">Element.h</text>
</a>
</g>
</g>
<!-- Node2&#45;&gt;Node24 -->
<g id="edge23_Node000002_Node000024" class="edge">
<title>Node2&#45;&gt;Node24</title>
<g id="a_edge23_Node000002_Node000024"><a xlink:title=" ">
<path fill="none" stroke="#63b8ff" d="M1509.21,-109.98C1530.73,-101.34 1564.28,-87.87 1588.83,-78.02"/>
<polygon fill="#63b8ff" stroke="#63b8ff" points="1590.43,-81.14 1598.41,-74.17 1587.82,-74.65 1590.43,-81.14"/>
</a>
</g>
</g>
<!-- Node25 -->
<g id="Node000025" class="node">
<title>Node25</title>
<g id="a_Node000025"><a xlink:href="DataElement_8h.html" target="_top" xlink:title=" ">
<polygon fill="white" stroke="#666666" points="1760.5,-74 1671.5,-74 1671.5,-55 1760.5,-55 1760.5,-74"/>
<text text-anchor="middle" x="1716" y="-62" font-family="Ubuntu Mono" font-size="10.00">DataElement.h</text>
</a>
</g>
</g>
<!-- Node2&#45;&gt;Node25 -->
<g id="edge24_Node000002_Node000025" class="edge">
<title>Node2&#45;&gt;Node25</title>
<g id="a_edge24_Node000002_Node000025"><a xlink:title=" ">
<path fill="none" stroke="#63b8ff" d="M1524.63,-109.98C1563.91,-100.86 1626.37,-86.33 1669.19,-76.38"/>
<polygon fill="#63b8ff" stroke="#63b8ff" points="1670.13,-79.76 1679.08,-74.08 1668.55,-72.94 1670.13,-79.76"/>
</a>
</g>
</g>
<!-- Node26 -->
<g id="Node000026" class="node">
<title>Node26</title>
<g id="a_Node000026"><a xlink:href="GlobalDataElement_8h.html" target="_top" xlink:title=" ">
<polygon fill="white" stroke="#666666" points="1899.5,-74 1778.5,-74 1778.5,-55 1899.5,-55 1899.5,-74"/>
<text text-anchor="middle" x="1839" y="-62" font-family="Ubuntu Mono" font-size="10.00">GlobalDataElement.h</text>
</a>
</g>
</g>
<!-- Node2&#45;&gt;Node26 -->
<g id="edge25_Node000002_Node000026" class="edge">
<title>Node2&#45;&gt;Node26</title>
<g id="a_edge25_Node000002_Node000026"><a xlink:title=" ">
<path fill="none" stroke="#63b8ff" d="M1544.39,-109.98C1606.48,-100.61 1706.21,-85.55 1772.17,-75.59"/>
<polygon fill="#63b8ff" stroke="#63b8ff" points="1773.09,-78.99 1782.46,-74.04 1772.04,-72.07 1773.09,-78.99"/>
</a>
</g>
</g>
<!-- Node27 -->
<g id="Node000027" class="node">
<title>Node27</title>
<g id="a_Node000027"><a xlink:href="LocalDataElement_8h.html" target="_top" xlink:title=" ">
<polygon fill="white" stroke="#666666" points="2032.5,-74 1917.5,-74 1917.5,-55 2032.5,-55 2032.5,-74"/>
<text text-anchor="middle" x="1975" y="-62" font-family="Ubuntu Mono" font-size="10.00">LocalDataElement.h</text>
</a>
</g>
</g>
<!-- Node2&#45;&gt;Node27 -->
<g id="edge26_Node000002_Node000027" class="edge">
<title>Node2&#45;&gt;Node27</title>
<g id="a_edge26_Node000002_Node000027"><a xlink:title=" ">
<path fill="none" stroke="#63b8ff" d="M1546.82,-110.96C1549.58,-110.63 1552.32,-110.31 1555,-110 1708.47,-92.44 1749.64,-91.94 1907.21,-74.06"/>
<polygon fill="#63b8ff" stroke="#63b8ff" points="1907.73,-77.53 1917.27,-72.92 1906.94,-70.57 1907.73,-77.53"/>
</a>
</g>
</g>
<!-- Node28 -->
<g id="Node000028" class="node">
<title>Node28</title>
<g id="a_Node000028"><a xlink:href="Eref_8h.html" target="_top" xlink:title=" ">
<polygon fill="white" stroke="#666666" points="2095,-74 2051,-74 2051,-55 2095,-55 2095,-74"/>
<text text-anchor="middle" x="2073" y="-62" font-family="Ubuntu Mono" font-size="10.00">Eref.h</text>
</a>
</g>
</g>
<!-- Node2&#45;&gt;Node28 -->
<g id="edge27_Node000002_Node000028" class="edge">
<title>Node2&#45;&gt;Node28</title>
<g id="a_edge27_Node000002_Node000028"><a xlink:title=" ">
<path fill="none" stroke="#63b8ff" d="M1546.81,-110.86C1549.57,-110.56 1552.32,-110.27 1555,-110 1767.25,-88.69 1825.65,-109.31 2040.71,-73.66"/>
<polygon fill="#63b8ff" stroke="#63b8ff" points="2041.45,-77.09 2050.74,-71.98 2040.29,-70.18 2041.45,-77.09"/>
</a>
</g>
</g>
<!-- Node29 -->
<g id="Node000029" class="node">
<title>Node29</title>
<g id="a_Node000029"><a xlink:href="Conv_8h.html" target="_top" xlink:title=" ">
<polygon fill="#fff0f0" stroke="red" points="2163,-74 2113,-74 2113,-55 2163,-55 2163,-74"/>
<text text-anchor="middle" x="2138" y="-62" font-family="Ubuntu Mono" font-size="10.00">Conv.h</text>
</a>
</g>
</g>
<!-- Node2&#45;&gt;Node29 -->
<g id="edge28_Node000002_Node000029" class="edge">
<title>Node2&#45;&gt;Node29</title>
<g id="a_edge28_Node000002_Node000029"><a xlink:title=" ">
<path fill="none" stroke="#63b8ff" d="M1546.8,-110.83C1549.57,-110.54 1552.32,-110.26 1555,-110 1795.07,-86.92 1860.63,-111.12 2102.68,-73.9"/>
<polygon fill="#63b8ff" stroke="#63b8ff" points="2103.51,-77.32 2112.85,-72.32 2102.43,-70.4 2103.51,-77.32"/>
</a>
</g>
</g>
<!-- Node31 -->
<g id="Node000031" class="node">
<title>Node31</title>
<g id="a_Node000031"><a xlink:href="SrcFinfo_8h.html" target="_top" xlink:title=" ">
<polygon fill="white" stroke="#666666" points="2372.5,-19 2307.5,-19 2307.5,0 2372.5,0 2372.5,-19"/>
<text text-anchor="middle" x="2340" y="-7" font-family="Ubuntu Mono" font-size="10.00">SrcFinfo.h</text>
</a>
</g>
</g>
<!-- Node2&#45;&gt;Node31 -->
<g id="edge29_Node000002_Node000031" class="edge">
<title>Node2&#45;&gt;Node31</title>
<g id="a_edge29_Node000002_Node000031"><a xlink:title=" ">
<path fill="none" stroke="#63b8ff" d="M1546.8,-110.76C1549.57,-110.48 1552.31,-110.23 1555,-110 1601.82,-106.04 2367.49,-107.92 2400,-74 2416.42,-56.87 2390.36,-36.96 2367.61,-24.07"/>
<polygon fill="#63b8ff" stroke="#63b8ff" points="2368.98,-20.83 2358.52,-19.16 2365.66,-26.99 2368.98,-20.83"/>
</a>
</g>
</g>
<!-- Node32 -->
<g id="Node000032" class="node">
<title>Node32</title>
<g id="a_Node000032"><a xlink:href="OpFuncBase_8h.html" target="_top" xlink:title=" ">
<polygon fill="white" stroke="#666666" points="2305,-74 2219,-74 2219,-55 2305,-55 2305,-74"/>
<text text-anchor="middle" x="2262" y="-62" font-family="Ubuntu Mono" font-size="10.00">OpFuncBase.h</text>
</a>
</g>
</g>
<!-- Node2&#45;&gt;Node32 -->
<g id="edge30_Node000002_Node000032" class="edge">
<title>Node2&#45;&gt;Node32</title>
<g id="a_edge30_Node000002_Node000032"><a xlink:title=" ">
<path fill="none" stroke="#63b8ff" d="M1546.8,-110.8C1549.57,-110.51 1552.31,-110.24 1555,-110 1843.14,-83.78 1917.16,-103.37 2205,-74 2206.26,-73.87 2207.53,-73.73 2208.82,-73.59"/>
<polygon fill="#63b8ff" stroke="#63b8ff" points="2209.29,-77.06 2218.79,-72.37 2208.44,-70.11 2209.29,-77.06"/>
</a>
</g>
</g>
<!-- Node33 -->
<g id="Node000033" class="node">
<title>Node33</title>
<g id="a_Node000033"><a xlink:href="HopFunc_8h.html" target="_top" xlink:title=" ">
<polygon fill="white" stroke="#666666" points="2391,-74 2323,-74 2323,-55 2391,-55 2391,-74"/>
<text text-anchor="middle" x="2357" y="-62" font-family="Ubuntu Mono" font-size="10.00">HopFunc.h</text>
</a>
</g>
</g>
<!-- Node2&#45;&gt;Node33 -->
<g id="edge32_Node000002_Node000033" class="edge">
<title>Node2&#45;&gt;Node33</title>
<g id="a_edge32_Node000002_Node000033"><a xlink:title=" ">
<path fill="none" stroke="#63b8ff" d="M1546.8,-110.77C1549.57,-110.49 1552.31,-110.23 1555,-110 1888.16,-81.01 1977.04,-114.2 2312.8,-73.95"/>
<polygon fill="#63b8ff" stroke="#63b8ff" points="2313.3,-77.41 2322.81,-72.73 2312.46,-70.46 2313.3,-77.41"/>
</a>
</g>
</g>
<!-- Node34 -->
<g id="Node000034" class="node">
<title>Node34</title>
<g id="a_Node000034"><a xlink:href="SetGet_8h.html" target="_top" xlink:title=" ">
<polygon fill="white" stroke="#666666" points="589.5,-74 530.5,-74 530.5,-55 589.5,-55 589.5,-74"/>
<text text-anchor="middle" x="560" y="-62" font-family="Ubuntu Mono" font-size="10.00">SetGet.h</text>
</a>
</g>
</g>
<!-- Node2&#45;&gt;Node34 -->
<g id="edge33_Node000002_Node000034" class="edge">
<title>Node2&#45;&gt;Node34</title>
<g id="a_edge33_Node000002_Node000034"><a xlink:title=" ">
<path fill="none" stroke="#63b8ff" d="M1429.45,-118.89C1288.29,-119.11 918.03,-115.46 600.06,-73.87"/>
<polygon fill="#63b8ff" stroke="#63b8ff" points="600.09,-70.35 589.72,-72.51 599.18,-77.29 600.09,-70.35"/>
</a>
</g>
</g>
<!-- Node35 -->
<g id="Node000035" class="node">
<title>Node35</title>
<g id="a_Node000035"><a xlink:href="OpFunc_8h.html" target="_top" xlink:title=" ">
<polygon fill="white" stroke="#666666" points="2509,-74 2447,-74 2447,-55 2509,-55 2509,-74"/>
<text text-anchor="middle" x="2478" y="-62" font-family="Ubuntu Mono" font-size="10.00">OpFunc.h</text>
</a>
</g>
</g>
<!-- Node2&#45;&gt;Node35 -->
<g id="edge35_Node000002_Node000035" class="edge">
<title>Node2&#45;&gt;Node35</title>
<g id="a_edge35_Node000002_Node000035"><a xlink:title=" ">
<path fill="none" stroke="#63b8ff" d="M1546.8,-110.75C1549.57,-110.48 1552.31,-110.23 1555,-110 1944.19,-77.39 2044.98,-118.36 2433,-74 2434.11,-73.87 2435.23,-73.74 2436.35,-73.59"/>
<polygon fill="#63b8ff" stroke="#63b8ff" points="2437.26,-76.99 2446.62,-72.03 2436.21,-70.07 2437.26,-76.99"/>
</a>
</g>
</g>
<!-- Node36 -->
<g id="Node000036" class="node">
<title>Node36</title>
<g id="a_Node000036"><a xlink:href="EpFunc_8h.html" target="_top" xlink:title=" ">
<polygon fill="white" stroke="#666666" points="2587,-74 2527,-74 2527,-55 2587,-55 2587,-74"/>
<text text-anchor="middle" x="2557" y="-62" font-family="Ubuntu Mono" font-size="10.00">EpFunc.h</text>
</a>
</g>
</g>
<!-- Node2&#45;&gt;Node36 -->
<g id="edge36_Node000002_Node000036" class="edge">
<title>Node2&#45;&gt;Node36</title>
<g id="a_edge36_Node000002_Node000036"><a xlink:title=" ">
<path fill="none" stroke="#63b8ff" d="M1546.8,-110.74C1549.57,-110.47 1552.31,-110.22 1555,-110 1978.53,-75.29 2091.34,-126.99 2516.75,-73.9"/>
<polygon fill="#63b8ff" stroke="#63b8ff" points="2517.37,-77.35 2526.86,-72.62 2516.5,-70.4 2517.37,-77.35"/>
</a>
</g>
</g>
<!-- Node37 -->
<g id="Node000037" class="node">
<title>Node37</title>
<g id="a_Node000037"><a xlink:href="ProcOpFunc_8h.html" target="_top" xlink:title=" ">
<polygon fill="white" stroke="#666666" points="2688.5,-74 2605.5,-74 2605.5,-55 2688.5,-55 2688.5,-74"/>
<text text-anchor="middle" x="2647" y="-62" font-family="Ubuntu Mono" font-size="10.00">ProcOpFunc.h</text>
</a>
</g>
</g>
<!-- Node2&#45;&gt;Node37 -->
<g id="edge37_Node000002_Node000037" class="edge">
<title>Node2&#45;&gt;Node37</title>
<g id="a_edge37_Node000002_Node000037"><a xlink:title=" ">
<path fill="none" stroke="#63b8ff" d="M1546.79,-110.73C1549.57,-110.46 1552.31,-110.22 1555,-110 2013.07,-73.1 2133.6,-119.46 2595.04,-73.93"/>
<polygon fill="#63b8ff" stroke="#63b8ff" points="2595.71,-77.38 2605.31,-72.9 2595.01,-70.41 2595.71,-77.38"/>
</a>
</g>
</g>
<!-- Node38 -->
<g id="Node000038" class="node">
<title>Node38</title>
<g id="a_Node000038"><a xlink:href="ValueFinfo_8h.html" target="_top" xlink:title=" ">
<polygon fill="white" stroke="#666666" points="2783.5,-74 2706.5,-74 2706.5,-55 2783.5,-55 2783.5,-74"/>
<text text-anchor="middle" x="2745" y="-62" font-family="Ubuntu Mono" font-size="10.00">ValueFinfo.h</text>
</a>
</g>
</g>
<!-- Node2&#45;&gt;Node38 -->
<g id="edge38_Node000002_Node000038" class="edge">
<title>Node2&#45;&gt;Node38</title>
<g id="a_edge38_Node000002_Node000038"><a xlink:title=" ">
<path fill="none" stroke="#63b8ff" d="M1546.79,-110.72C1549.57,-110.46 1552.31,-110.21 1555,-110 2058.33,-70.24 2190.82,-126.62 2696.23,-74.02"/>
<polygon fill="#63b8ff" stroke="#63b8ff" points="2696.76,-77.48 2706.34,-72.96 2696.03,-70.52 2696.76,-77.48"/>
</a>
</g>
</g>
<!-- Node39 -->
<g id="Node000039" class="node">
<title>Node39</title>
<g id="a_Node000039"><a xlink:href="LookupValueFinfo_8h.html" target="_top" xlink:title=" ">
<polygon fill="white" stroke="#666666" points="2912.5,-74 2801.5,-74 2801.5,-55 2912.5,-55 2912.5,-74"/>
<text text-anchor="middle" x="2857" y="-62" font-family="Ubuntu Mono" font-size="10.00">LookupValueFinfo.h</text>
</a>
</g>
</g>
<!-- Node2&#45;&gt;Node39 -->
<g id="edge39_Node000002_Node000039" class="edge">
<title>Node2&#45;&gt;Node39</title>
<g id="a_edge39_Node000002_Node000039"><a xlink:title=" ">
<path fill="none" stroke="#63b8ff" d="M1546.79,-110.71C1549.56,-110.45 1552.31,-110.21 1555,-110 2100.45,-67.57 2242.6,-117.68 2791.04,-74.07"/>
<polygon fill="#63b8ff" stroke="#63b8ff" points="2791.5,-77.54 2801.19,-73.26 2790.94,-70.57 2791.5,-77.54"/>
</a>
</g>
</g>
<!-- Node40 -->
<g id="Node000040" class="node">
<title>Node40</title>
<g id="a_Node000040"><a xlink:href="SharedFinfo_8h.html" target="_top" xlink:title=" ">
<polygon fill="white" stroke="#666666" points="3013.5,-74 2930.5,-74 2930.5,-55 3013.5,-55 3013.5,-74"/>
<text text-anchor="middle" x="2972" y="-62" font-family="Ubuntu Mono" font-size="10.00">SharedFinfo.h</text>
</a>
</g>
</g>
<!-- Node2&#45;&gt;Node40 -->
<g id="edge40_Node000002_Node000040" class="edge">
<title>Node2&#45;&gt;Node40</title>
<g id="a_edge40_Node000002_Node000040"><a xlink:title=" ">
<path fill="none" stroke="#63b8ff" d="M1546.79,-110.7C1549.56,-110.44 1552.31,-110.21 1555,-110 2157.6,-63.96 2315.34,-132.3 2920.03,-74.04"/>
<polygon fill="#63b8ff" stroke="#63b8ff" points="2920.7,-77.49 2930.32,-73.04 2920.03,-70.52 2920.7,-77.49"/>
</a>
</g>
</g>
<!-- Node41 -->
<g id="Node000041" class="node">
<title>Node41</title>
<g id="a_Node000041"><a xlink:href="FieldElementFinfo_8h.html" target="_top" xlink:title=" ">
<polygon fill="white" stroke="#666666" points="3144.5,-74 3031.5,-74 3031.5,-55 3144.5,-55 3144.5,-74"/>
<text text-anchor="middle" x="3088" y="-62" font-family="Ubuntu Mono" font-size="10.00">FieldElementFinfo.h</text>
</a>
</g>
</g>
<!-- Node2&#45;&gt;Node41 -->
<g id="edge41_Node000002_Node000041" class="edge">
<title>Node2&#45;&gt;Node41</title>
<g id="a_edge41_Node000002_Node000041"><a xlink:title=" ">
<path fill="none" stroke="#63b8ff" d="M1546.79,-110.7C1549.56,-110.44 1552.31,-110.2 1555,-110 2202.45,-61.12 2370.59,-123.73 3021.22,-74.05"/>
<polygon fill="#63b8ff" stroke="#63b8ff" points="3021.61,-77.53 3031.32,-73.27 3021.08,-70.55 3021.61,-77.53"/>
</a>
</g>
</g>
<!-- Node42 -->
<g id="Node000042" class="node">
<title>Node42</title>
<g id="a_Node000042"><a xlink:href="FieldElement_8h.html" target="_top" xlink:title=" ">
<polygon fill="white" stroke="#666666" points="3251.5,-74 3162.5,-74 3162.5,-55 3251.5,-55 3251.5,-74"/>
<text text-anchor="middle" x="3207" y="-62" font-family="Ubuntu Mono" font-size="10.00">FieldElement.h</text>
</a>
</g>
</g>
<!-- Node2&#45;&gt;Node42 -->
<g id="edge42_Node000002_Node000042" class="edge">
<title>Node2&#45;&gt;Node42</title>
<g id="a_edge42_Node000002_Node000042"><a xlink:title=" ">
<path fill="none" stroke="#63b8ff" d="M1546.79,-110.69C1549.56,-110.43 1552.31,-110.2 1555,-110 2260.51,-57.45 2444.33,-137.66 3152.04,-74.04"/>
<polygon fill="#63b8ff" stroke="#63b8ff" points="3152.59,-77.51 3162.23,-73.12 3151.96,-70.54 3152.59,-77.51"/>
</a>
</g>
</g>
<!-- Node32&#45;&gt;Node31 -->
<g id="edge31_Node000032_Node000031" class="edge">
<title>Node32&#45;&gt;Node31</title>
<g id="a_edge31_Node000032_Node000031"><a xlink:title=" ">
<path fill="none" stroke="#63b8ff" d="M2274.53,-54.98C2286.4,-46.92 2304.46,-34.65 2318.61,-25.03"/>
<polygon fill="#63b8ff" stroke="#63b8ff" points="2320.94,-27.69 2327.24,-19.17 2317,-21.9 2320.94,-27.69"/>
</a>
</g>
</g>
<!-- Node34&#45;&gt;Node11 -->
<g id="edge34_Node000034_Node000011" class="edge">
<title>Node34&#45;&gt;Node11</title>
<g id="a_edge34_Node000034_Node000011"><a xlink:title=" ">
<path fill="none" stroke="#63b8ff" d="M589.72,-56.5C592.84,-55.92 595.98,-55.41 599,-55 910,-13.26 1289.82,-10.14 1410.94,-10.29"/>
<polygon fill="#63b8ff" stroke="#63b8ff" points="1411.18,-13.79 1421.19,-10.32 1411.2,-6.8 1411.18,-13.79"/>
</a>
</g>
</g>
<!-- Node44&#45;&gt;Node6 -->
<g id="edge44_Node000044_Node000006" class="edge">
<title>Node44&#45;&gt;Node6</title>
<g id="a_edge44_Node000044_Node000006"><a xlink:title=" ">
<path fill="none" stroke="#63b8ff" d="M673.38,-118.59C569.04,-118.17 292.47,-113.28 54.12,-73.83"/>
<polygon fill="#63b8ff" stroke="#63b8ff" points="54.67,-70.37 44.23,-72.17 53.51,-77.28 54.67,-70.37"/>
</a>
</g>
</g>
</g>
</svg>

<g id="navigator" transform="translate(0 0)" fill="#404254">
  <rect fill="#f2f5e9" fill-opacity="0.5" stroke="#606060" stroke-width=".5" x="0" y="0" width="60" height="60"/>
  <use id="zoomplus" xlink:href="#zoomPlus" x="17" y="9" onmousedown="handleZoom(evt,'in')"/>
  <use id="zoomminus" xlink:href="#zoomMin" x="42" y="9" onmousedown="handleZoom(evt,'out')"/>
  <use id="reset" xlink:href="#resetDef" x="30" y="36" onmousedown="handleReset()"/>
   <use id="arrowup" xlink:href="#arrowUp" x="0" y="0" onmousedown="handlePan(0,-1)"/>
  <use id="arrowright" xlink:href="#arrowRight" x="0" y="0" onmousedown="handlePan(1,0)"/>
  <use id="arrowdown" xlink:href="#arrowDown" x="0" y="0" onmousedown="handlePan(0,1)"/>
  <use id="arrowleft" xlink:href="#arrowLeft" x="0" y="0" onmousedown="handlePan(-1,0)"/>
</g>
<svg viewBox="0 0 15 15" width="100%" height="30px" preserveAspectRatio="xMaxYMin meet">
 <g id="arrow_out" transform="scale(0.3 0.3)">
  <a xlink:href="ReadSwc_8cpp__incl_org.svg" target="_base">
   <rect id="button" ry="5" rx="5" y="6" x="6" height="38" width="38"
        fill="#f2f5e9" fill-opacity="0.5" stroke="#606060" stroke-width="1.0"/>
   <path id="arrow"
     d="M 11.500037,31.436501 C 11.940474,20.09759 22.043105,11.32322 32.158766,21.979434 L 37.068811,17.246167 C 37.068811,17.246167 37.088388,32 37.088388,32 L 22.160133,31.978069 C 22.160133,31.978069 26.997745,27.140456 26.997745,27.140456 C 18.528582,18.264221 13.291696,25.230495 11.500037,31.436501 z"
     style="fill:#404040;"/>
  </a>
 </g>
</svg>

<style type='text/css'>
<![CDATA[
[data-mouse-over-selected='false'] { opacity: 0.7; }
[data-mouse-over-selected='true']  { opacity: 1.0; }
]]>
</style>
<script type="application/ecmascript"><![CDATA[
document.addEventListener('DOMContentLoaded', (event) => {
  highlightEdges();
  highlightAdjacentNodes();
});
]]></script>
</svg>
