<?xml version="1.0" encoding="UTF-8" standalone="no"?>
<!DOCTYPE svg PUBLIC "-//W3C//DTD SVG 1.1//EN"
 "http://www.w3.org/Graphics/SVG/1.1/DTD/svg11.dtd">
<!-- Generated by graphviz version 2.43.0 (0)
 -->
<!-- Title: /home/runner/work/mooseneuro.github.io/mooseneuro.github.io/docs/moose&#45;core/kinetics/ReadCspace.cpp Pages: 1 -->
<svg width="3444pt" height="214pt"
 viewBox="0.00 0.00 3443.50 214.00" xmlns="http://www.w3.org/2000/svg" xmlns:xlink="http://www.w3.org/1999/xlink">
<g id="graph0" class="graph" transform="scale(1 1) rotate(0) translate(4 210)">
<title>/home/runner/work/mooseneuro.github.io/mooseneuro.github.io/docs/moose&#45;core/kinetics/ReadCspace.cpp</title>
<!-- Node1 -->
<g id="Node000001" class="node">
<title>Node1</title>
<g id="a_Node000001"><a xlink:title=" ">
<polygon fill="#999999" stroke="#666666" points="1579,-206 1361,-206 1361,-165 1579,-165 1579,-206"/>
<text text-anchor="start" x="1369" y="-194" font-family="Ubuntu Mono" font-size="10.00">/home/runner/work/mooseneuro.github.io</text>
<text text-anchor="start" x="1369" y="-183" font-family="Ubuntu Mono" font-size="10.00">/mooseneuro.github.io/docs/moose</text>
<text text-anchor="middle" x="1470" y="-172" font-family="Ubuntu Mono" font-size="10.00">&#45;core/kinetics/ReadCspace.cpp</text>
</a>
</g>
</g>
<!-- Node2 -->
<g id="Node000002" class="node">
<title>Node2</title>
<g id="a_Node000002"><a xlink:title=" ">
<polygon fill="#e0e0e0" stroke="#999999" points="1350.5,-129 1295.5,-129 1295.5,-110 1350.5,-110 1350.5,-129"/>
<text text-anchor="middle" x="1323" y="-117" font-family="Ubuntu Mono" font-size="10.00">fstream</text>
</a>
</g>
</g>
<!-- Node1&#45;&gt;Node2 -->
<g id="edge1_Node000001_Node000002" class="edge">
<title>Node1&#45;&gt;Node2</title>
<g id="a_edge1_Node000001_Node000002"><a xlink:title=" ">
<path fill="none" stroke="#63b8ff" d="M1425.1,-164.95C1401.33,-154.6 1372.85,-142.2 1352.01,-133.13"/>
<polygon fill="#63b8ff" stroke="#63b8ff" points="1353.3,-129.87 1342.73,-129.09 1350.51,-136.29 1353.3,-129.87"/>
</a>
</g>
</g>
<!-- Node3 -->
<g id="Node000003" class="node">
<title>Node3</title>
<g id="a_Node000003"><a xlink:href="header_8h.html" target="_top" xlink:title=" ">
<polygon fill="white" stroke="#666666" points="1588.5,-129 1471.5,-129 1471.5,-110 1588.5,-110 1588.5,-129"/>
<text text-anchor="middle" x="1530" y="-117" font-family="Ubuntu Mono" font-size="10.00">../basecode/header.h</text>
</a>
</g>
</g>
<!-- Node1&#45;&gt;Node3 -->
<g id="edge2_Node000001_Node000003" class="edge">
<title>Node1&#45;&gt;Node3</title>
<g id="a_edge2_Node000001_Node000003"><a xlink:title=" ">
<path fill="none" stroke="#63b8ff" d="M1488.33,-164.95C1496.79,-155.92 1506.72,-145.33 1514.76,-136.75"/>
<polygon fill="#63b8ff" stroke="#63b8ff" points="1517.5,-138.95 1521.79,-129.26 1512.39,-134.16 1517.5,-138.95"/>
</a>
</g>
</g>
<!-- Node45 -->
<g id="Node000045" class="node">
<title>Node45</title>
<g id="a_Node000045"><a xlink:href="Shell_8h.html" target="_top" xlink:title=" ">
<polygon fill="white" stroke="#666666" points="1453.5,-129 1368.5,-129 1368.5,-110 1453.5,-110 1453.5,-129"/>
<text text-anchor="middle" x="1411" y="-117" font-family="Ubuntu Mono" font-size="10.00">../shell/Shell.h</text>
</a>
</g>
</g>
<!-- Node1&#45;&gt;Node45 -->
<g id="edge46_Node000001_Node000045" class="edge">
<title>Node1&#45;&gt;Node45</title>
<g id="a_edge46_Node000001_Node000045"><a xlink:title=" ">
<path fill="none" stroke="#63b8ff" d="M1451.98,-164.95C1443.66,-155.92 1433.89,-145.33 1425.98,-136.75"/>
<polygon fill="#63b8ff" stroke="#63b8ff" points="1428.43,-134.24 1419.08,-129.26 1423.28,-138.99 1428.43,-134.24"/>
</a>
</g>
</g>
<!-- Node46 -->
<g id="Node000046" class="node">
<title>Node46</title>
<g id="a_Node000046"><a xlink:href="ReadCspace_8h.html" target="_top" xlink:title=" ">
<polygon fill="white" stroke="#666666" points="1693,-129 1607,-129 1607,-110 1693,-110 1693,-129"/>
<text text-anchor="middle" x="1650" y="-117" font-family="Ubuntu Mono" font-size="10.00">ReadCspace.h</text>
</a>
</g>
</g>
<!-- Node1&#45;&gt;Node46 -->
<g id="edge48_Node000001_Node000046" class="edge">
<title>Node1&#45;&gt;Node46</title>
<g id="a_edge48_Node000001_Node000046"><a xlink:title=" ">
<path fill="none" stroke="#63b8ff" d="M1524.98,-164.95C1554.74,-154.37 1590.54,-141.64 1616.19,-132.52"/>
<polygon fill="#63b8ff" stroke="#63b8ff" points="1617.59,-135.74 1625.84,-129.09 1615.24,-129.14 1617.59,-135.74"/>
</a>
</g>
</g>
<!-- Node4 -->
<g id="Node000004" class="node">
<title>Node4</title>
<g id="a_Node000004"><a xlink:title=" ">
<polygon fill="#e0e0e0" stroke="#999999" points="3435.5,-74 3384.5,-74 3384.5,-55 3435.5,-55 3435.5,-74"/>
<text text-anchor="middle" x="3410" y="-62" font-family="Ubuntu Mono" font-size="10.00">math.h</text>
</a>
</g>
</g>
<!-- Node3&#45;&gt;Node4 -->
<g id="edge3_Node000003_Node000004" class="edge">
<title>Node3&#45;&gt;Node4</title>
<g id="a_edge3_Node000003_Node000004"><a xlink:title=" ">
<path fill="none" stroke="#63b8ff" d="M1588.57,-110.79C1591.75,-110.49 1594.91,-110.22 1598,-110 1988.89,-81.69 2967.85,-125.51 3374.41,-73.85"/>
<polygon fill="#63b8ff" stroke="#63b8ff" points="3375.04,-77.29 3384.5,-72.53 3374.13,-70.35 3375.04,-77.29"/>
</a>
</g>
</g>
<!-- Node5 -->
<g id="Node000005" class="node">
<title>Node5</title>
<g id="a_Node000005"><a xlink:title=" ">
<polygon fill="#e0e0e0" stroke="#999999" points="126,-74 62,-74 62,-55 126,-55 126,-74"/>
<text text-anchor="middle" x="94" y="-62" font-family="Ubuntu Mono" font-size="10.00">algorithm</text>
</a>
</g>
</g>
<!-- Node3&#45;&gt;Node5 -->
<g id="edge4_Node000003_Node000005" class="edge">
<title>Node3&#45;&gt;Node5</title>
<g id="a_edge4_Node000003_Node000005"><a xlink:title=" ">
<path fill="none" stroke="#63b8ff" d="M1471.43,-110.81C1468.24,-110.51 1465.08,-110.23 1462,-110 877,-65.61 722.77,-141.29 136.12,-73.88"/>
<polygon fill="#63b8ff" stroke="#63b8ff" points="136.48,-70.4 126.14,-72.72 135.67,-77.35 136.48,-70.4"/>
</a>
</g>
</g>
<!-- Node6 -->
<g id="Node000006" class="node">
<title>Node6</title>
<g id="a_Node000006"><a xlink:title=" ">
<polygon fill="#e0e0e0" stroke="#999999" points="191.5,-74 144.5,-74 144.5,-55 191.5,-55 191.5,-74"/>
<text text-anchor="middle" x="168" y="-62" font-family="Ubuntu Mono" font-size="10.00">vector</text>
</a>
</g>
</g>
<!-- Node3&#45;&gt;Node6 -->
<g id="edge5_Node000003_Node000006" class="edge">
<title>Node3&#45;&gt;Node6</title>
<g id="a_edge5_Node000003_Node000006"><a xlink:title=" ">
<path fill="none" stroke="#63b8ff" d="M1471.43,-110.82C1468.24,-110.51 1465.08,-110.24 1462,-110 906.38,-67.44 757.97,-151.38 201.96,-73.72"/>
<polygon fill="#63b8ff" stroke="#63b8ff" points="202.06,-70.2 191.67,-72.27 201.08,-77.13 202.06,-70.2"/>
</a>
</g>
</g>
<!-- Node7 -->
<g id="Node000007" class="node">
<title>Node7</title>
<g id="a_Node000007"><a xlink:title=" ">
<polygon fill="#e0e0e0" stroke="#999999" points="44,-74 0,-74 0,-55 44,-55 44,-74"/>
<text text-anchor="middle" x="22" y="-62" font-family="Ubuntu Mono" font-size="10.00">string</text>
</a>
</g>
</g>
<!-- Node3&#45;&gt;Node7 -->
<g id="edge6_Node000003_Node000007" class="edge">
<title>Node3&#45;&gt;Node7</title>
<g id="a_edge6_Node000003_Node000007"><a xlink:title=" ">
<path fill="none" stroke="#63b8ff" d="M1471.43,-110.81C1468.24,-110.5 1465.08,-110.23 1462,-110 1152.87,-86.79 378.94,-119.07 54.16,-73.72"/>
<polygon fill="#63b8ff" stroke="#63b8ff" points="54.61,-70.25 44.21,-72.28 53.61,-77.17 54.61,-70.25"/>
</a>
</g>
</g>
<!-- Node8 -->
<g id="Node000008" class="node">
<title>Node8</title>
<g id="a_Node000008"><a xlink:title=" ">
<polygon fill="#e0e0e0" stroke="#999999" points="248,-74 210,-74 210,-55 248,-55 248,-74"/>
<text text-anchor="middle" x="229" y="-62" font-family="Ubuntu Mono" font-size="10.00">map</text>
</a>
</g>
</g>
<!-- Node3&#45;&gt;Node8 -->
<g id="edge7_Node000003_Node000008" class="edge">
<title>Node3&#45;&gt;Node8</title>
<g id="a_edge7_Node000003_Node000008"><a xlink:title=" ">
<path fill="none" stroke="#63b8ff" d="M1471.43,-110.82C1468.24,-110.52 1465.08,-110.24 1462,-110 1198.16,-89.61 537.76,-116.61 258.31,-73.66"/>
<polygon fill="#63b8ff" stroke="#63b8ff" points="258.55,-70.15 248.12,-72.03 257.44,-77.07 258.55,-70.15"/>
</a>
</g>
</g>
<!-- Node9 -->
<g id="Node000009" class="node">
<title>Node9</title>
<g id="a_Node000009"><a xlink:title=" ">
<polygon fill="#e0e0e0" stroke="#999999" points="359.5,-74 266.5,-74 266.5,-55 359.5,-55 359.5,-74"/>
<text text-anchor="middle" x="313" y="-62" font-family="Ubuntu Mono" font-size="10.00">unordered_map</text>
</a>
</g>
</g>
<!-- Node3&#45;&gt;Node9 -->
<g id="edge8_Node000003_Node000009" class="edge">
<title>Node3&#45;&gt;Node9</title>
<g id="a_edge8_Node000003_Node000009"><a xlink:title=" ">
<path fill="none" stroke="#63b8ff" d="M1471.43,-110.83C1468.24,-110.52 1465.08,-110.24 1462,-110 980.77,-72.08 854.71,-117.91 369.77,-73.93"/>
<polygon fill="#63b8ff" stroke="#63b8ff" points="369.98,-70.43 359.7,-73.01 369.34,-77.41 369.98,-70.43"/>
</a>
</g>
</g>
<!-- Node10 -->
<g id="Node000010" class="node">
<title>Node10</title>
<g id="a_Node000010"><a xlink:title=" ">
<polygon fill="#e0e0e0" stroke="#999999" points="438,-74 378,-74 378,-55 438,-55 438,-74"/>
<text text-anchor="middle" x="408" y="-62" font-family="Ubuntu Mono" font-size="10.00">iostream</text>
</a>
</g>
</g>
<!-- Node3&#45;&gt;Node10 -->
<g id="edge9_Node000003_Node000010" class="edge">
<title>Node3&#45;&gt;Node10</title>
<g id="a_edge9_Node000003_Node000010"><a xlink:title=" ">
<path fill="none" stroke="#63b8ff" d="M1471.43,-110.84C1468.24,-110.53 1465.08,-110.25 1462,-110 1015.34,-74.23 896.61,-129.47 448.12,-73.88"/>
<polygon fill="#63b8ff" stroke="#63b8ff" points="448.5,-70.4 438.14,-72.63 447.63,-77.34 448.5,-70.4"/>
</a>
</g>
</g>
<!-- Node11 -->
<g id="Node000011" class="node">
<title>Node11</title>
<g id="a_Node000011"><a xlink:title=" ">
<polygon fill="#e0e0e0" stroke="#999999" points="512,-74 456,-74 456,-55 512,-55 512,-74"/>
<text text-anchor="middle" x="484" y="-62" font-family="Ubuntu Mono" font-size="10.00">sstream</text>
</a>
</g>
</g>
<!-- Node3&#45;&gt;Node11 -->
<g id="edge10_Node000003_Node000011" class="edge">
<title>Node3&#45;&gt;Node11</title>
<g id="a_edge10_Node000003_Node000011"><a xlink:title=" ">
<path fill="none" stroke="#63b8ff" d="M1471.43,-110.85C1468.24,-110.54 1465.08,-110.25 1462,-110 1048.21,-76.29 937.66,-128.25 522.36,-73.89"/>
<polygon fill="#63b8ff" stroke="#63b8ff" points="522.55,-70.39 512.18,-72.55 521.64,-77.33 522.55,-70.39"/>
</a>
</g>
</g>
<!-- Node12 -->
<g id="Node000012" class="node">
<title>Node12</title>
<g id="a_Node000012"><a xlink:title=" ">
<polygon fill="#e0e0e0" stroke="#999999" points="1360.5,-19 1303.5,-19 1303.5,0 1360.5,0 1360.5,-19"/>
<text text-anchor="middle" x="1332" y="-7" font-family="Ubuntu Mono" font-size="10.00">typeinfo</text>
</a>
</g>
</g>
<!-- Node3&#45;&gt;Node12 -->
<g id="edge11_Node000003_Node000012" class="edge">
<title>Node3&#45;&gt;Node12</title>
<g id="a_edge11_Node000003_Node000012"><a xlink:title=" ">
<path fill="none" stroke="#63b8ff" d="M1588.58,-110.98C1591.77,-110.63 1594.92,-110.3 1598,-110 1710.57,-98.97 2181.64,-137.25 2104,-55 2078.6,-28.1 1524.43,-14.53 1371.04,-11.28"/>
<polygon fill="#63b8ff" stroke="#63b8ff" points="1370.77,-7.77 1360.7,-11.06 1370.63,-14.77 1370.77,-7.77"/>
</a>
</g>
</g>
<!-- Node13 -->
<g id="Node000013" class="node">
<title>Node13</title>
<g id="a_Node000013"><a xlink:title=" ">
<polygon fill="#e0e0e0" stroke="#999999" points="660,-74 608,-74 608,-55 660,-55 660,-74"/>
<text text-anchor="middle" x="634" y="-62" font-family="Ubuntu Mono" font-size="10.00">cassert</text>
</a>
</g>
</g>
<!-- Node3&#45;&gt;Node13 -->
<g id="edge12_Node000003_Node000013" class="edge">
<title>Node3&#45;&gt;Node13</title>
<g id="a_edge12_Node000003_Node000013"><a xlink:title=" ">
<path fill="none" stroke="#63b8ff" d="M1471.43,-110.88C1468.24,-110.56 1465.08,-110.26 1462,-110 1113.81,-80.38 1020.05,-123.04 670.42,-73.9"/>
<polygon fill="#63b8ff" stroke="#63b8ff" points="670.66,-70.4 660.27,-72.45 669.68,-77.33 670.66,-70.4"/>
</a>
</g>
</g>
<!-- Node14 -->
<g id="Node000014" class="node">
<title>Node14</title>
<g id="a_Node000014"><a xlink:href="doubleEq_8h.html" target="_top" xlink:title=" ">
<polygon fill="white" stroke="#666666" points="749.5,-74 678.5,-74 678.5,-55 749.5,-55 749.5,-74"/>
<text text-anchor="middle" x="714" y="-62" font-family="Ubuntu Mono" font-size="10.00">doubleEq.h</text>
</a>
</g>
</g>
<!-- Node3&#45;&gt;Node14 -->
<g id="edge13_Node000003_Node000014" class="edge">
<title>Node3&#45;&gt;Node14</title>
<g id="a_edge13_Node000003_Node000014"><a xlink:title=" ">
<path fill="none" stroke="#63b8ff" d="M1471.42,-110.9C1468.24,-110.57 1465.08,-110.27 1462,-110 1153.26,-82.85 1070.77,-111.18 760.15,-74.1"/>
<polygon fill="#63b8ff" stroke="#63b8ff" points="760.3,-70.59 749.95,-72.87 759.46,-77.54 760.3,-70.59"/>
</a>
</g>
</g>
<!-- Node15 -->
<g id="Node000015" class="node">
<title>Node15</title>
<g id="a_Node000015"><a xlink:href="Id_8h.html" target="_top" xlink:title=" ">
<polygon fill="white" stroke="#666666" points="802.5,-74 767.5,-74 767.5,-55 802.5,-55 802.5,-74"/>
<text text-anchor="middle" x="785" y="-62" font-family="Ubuntu Mono" font-size="10.00">Id.h</text>
</a>
</g>
</g>
<!-- Node3&#45;&gt;Node15 -->
<g id="edge14_Node000003_Node000015" class="edge">
<title>Node3&#45;&gt;Node15</title>
<g id="a_edge14_Node000003_Node000015"><a xlink:title=" ">
<path fill="none" stroke="#63b8ff" d="M1471.42,-110.92C1468.24,-110.59 1465.08,-110.28 1462,-110 1176.77,-84.32 1097.65,-126.47 812.96,-73.89"/>
<polygon fill="#63b8ff" stroke="#63b8ff" points="813.22,-70.37 802.74,-71.98 811.93,-77.26 813.22,-70.37"/>
</a>
</g>
</g>
<!-- Node16 -->
<g id="Node000016" class="node">
<title>Node16</title>
<g id="a_Node000016"><a xlink:href="ObjId_8h.html" target="_top" xlink:title=" ">
<polygon fill="white" stroke="#666666" points="871.5,-74 820.5,-74 820.5,-55 871.5,-55 871.5,-74"/>
<text text-anchor="middle" x="846" y="-62" font-family="Ubuntu Mono" font-size="10.00">ObjId.h</text>
</a>
</g>
</g>
<!-- Node3&#45;&gt;Node16 -->
<g id="edge15_Node000003_Node000016" class="edge">
<title>Node3&#45;&gt;Node16</title>
<g id="a_edge15_Node000003_Node000016"><a xlink:title=" ">
<path fill="none" stroke="#63b8ff" d="M1471.42,-110.94C1468.24,-110.6 1465.08,-110.29 1462,-110 1207.24,-86.22 1137.87,-112.9 881.5,-73.95"/>
<polygon fill="#63b8ff" stroke="#63b8ff" points="881.93,-70.47 871.52,-72.41 880.87,-77.39 881.93,-70.47"/>
</a>
</g>
</g>
<!-- Node17 -->
<g id="Node000017" class="node">
<title>Node17</title>
<g id="a_Node000017"><a xlink:href="Cinfo_8h.html" target="_top" xlink:title=" ">
<polygon fill="white" stroke="#666666" points="940.5,-74 889.5,-74 889.5,-55 940.5,-55 940.5,-74"/>
<text text-anchor="middle" x="915" y="-62" font-family="Ubuntu Mono" font-size="10.00">Cinfo.h</text>
</a>
</g>
</g>
<!-- Node3&#45;&gt;Node17 -->
<g id="edge16_Node000003_Node000017" class="edge">
<title>Node3&#45;&gt;Node17</title>
<g id="a_edge16_Node000003_Node000017"><a xlink:title=" ">
<path fill="none" stroke="#63b8ff" d="M1471.42,-110.97C1468.23,-110.63 1465.08,-110.3 1462,-110 1238.29,-88.17 1177.19,-108.43 950.73,-73.8"/>
<polygon fill="#63b8ff" stroke="#63b8ff" points="950.93,-70.29 940.51,-72.22 949.86,-77.21 950.93,-70.29"/>
</a>
</g>
</g>
<!-- Node18 -->
<g id="Node000018" class="node">
<title>Node18</title>
<g id="a_Node000018"><a xlink:href="basecode_2Finfo_8h.html" target="_top" xlink:title=" ">
<polygon fill="white" stroke="#666666" points="1009,-74 959,-74 959,-55 1009,-55 1009,-74"/>
<text text-anchor="middle" x="984" y="-62" font-family="Ubuntu Mono" font-size="10.00">Finfo.h</text>
</a>
</g>
</g>
<!-- Node3&#45;&gt;Node18 -->
<g id="edge17_Node000003_Node000018" class="edge">
<title>Node3&#45;&gt;Node18</title>
<g id="a_edge17_Node000003_Node000018"><a xlink:title=" ">
<path fill="none" stroke="#63b8ff" d="M1471.41,-111.01C1468.23,-110.66 1465.08,-110.32 1462,-110 1268.33,-90.05 1215.12,-105.58 1019.2,-73.92"/>
<polygon fill="#63b8ff" stroke="#63b8ff" points="1019.59,-70.44 1009.15,-72.28 1018.46,-77.35 1019.59,-70.44"/>
</a>
</g>
</g>
<!-- Node19 -->
<g id="Node000019" class="node">
<title>Node19</title>
<g id="a_Node000019"><a xlink:href="DestFinfo_8h.html" target="_top" xlink:title=" ">
<polygon fill="white" stroke="#666666" points="1099,-74 1027,-74 1027,-55 1099,-55 1099,-74"/>
<text text-anchor="middle" x="1063" y="-62" font-family="Ubuntu Mono" font-size="10.00">DestFinfo.h</text>
</a>
</g>
</g>
<!-- Node3&#45;&gt;Node19 -->
<g id="edge18_Node000003_Node000019" class="edge">
<title>Node3&#45;&gt;Node19</title>
<g id="a_edge18_Node000003_Node000019"><a xlink:title=" ">
<path fill="none" stroke="#63b8ff" d="M1471.4,-111.09C1468.22,-110.71 1465.07,-110.35 1462,-110 1308.08,-92.56 1266.21,-96.52 1109.31,-74.08"/>
<polygon fill="#63b8ff" stroke="#63b8ff" points="1109.7,-70.6 1099.3,-72.63 1108.7,-77.53 1109.7,-70.6"/>
</a>
</g>
</g>
<!-- Node20 -->
<g id="Node000020" class="node">
<title>Node20</title>
<g id="a_Node000020"><a xlink:href="ProcInfo_8h.html" target="_top" xlink:title=" ">
<polygon fill="white" stroke="#666666" points="1182.5,-74 1117.5,-74 1117.5,-55 1182.5,-55 1182.5,-74"/>
<text text-anchor="middle" x="1150" y="-62" font-family="Ubuntu Mono" font-size="10.00">ProcInfo.h</text>
</a>
</g>
</g>
<!-- Node3&#45;&gt;Node20 -->
<g id="edge19_Node000003_Node000020" class="edge">
<title>Node3&#45;&gt;Node20</title>
<g id="a_edge19_Node000003_Node000020"><a xlink:title=" ">
<path fill="none" stroke="#63b8ff" d="M1471.39,-111.05C1388.37,-100.46 1241.86,-81.63 1192.54,-74.08"/>
<polygon fill="#63b8ff" stroke="#63b8ff" points="1193.06,-70.62 1182.63,-72.49 1191.95,-77.53 1193.06,-70.62"/>
</a>
</g>
</g>
<!-- Node21 -->
<g id="Node000021" class="node">
<title>Node21</title>
<g id="a_Node000021"><a xlink:href="MsgFuncBinding_8h.html" target="_top" xlink:title=" ">
<polygon fill="white" stroke="#666666" points="1305.5,-74 1200.5,-74 1200.5,-55 1305.5,-55 1305.5,-74"/>
<text text-anchor="middle" x="1253" y="-62" font-family="Ubuntu Mono" font-size="10.00">MsgFuncBinding.h</text>
</a>
</g>
</g>
<!-- Node3&#45;&gt;Node21 -->
<g id="edge20_Node000003_Node000021" class="edge">
<title>Node3&#45;&gt;Node21</title>
<g id="a_edge20_Node000003_Node000021"><a xlink:title=" ">
<path fill="none" stroke="#63b8ff" d="M1485.5,-109.98C1437.18,-100.74 1359.96,-85.97 1307.91,-76.01"/>
<polygon fill="#63b8ff" stroke="#63b8ff" points="1308.33,-72.52 1297.85,-74.08 1307.02,-79.4 1308.33,-72.52"/>
</a>
</g>
</g>
<!-- Node22 -->
<g id="Node000022" class="node">
<title>Node22</title>
<g id="a_Node000022"><a xlink:href="Msg_8h.html" target="_top" xlink:title=" ">
<polygon fill="white" stroke="#666666" points="1402.5,-74 1323.5,-74 1323.5,-55 1402.5,-55 1402.5,-74"/>
<text text-anchor="middle" x="1363" y="-62" font-family="Ubuntu Mono" font-size="10.00">../msg/Msg.h</text>
</a>
</g>
</g>
<!-- Node3&#45;&gt;Node22 -->
<g id="edge21_Node000003_Node000022" class="edge">
<title>Node3&#45;&gt;Node22</title>
<g id="a_edge21_Node000003_Node000022"><a xlink:title=" ">
<path fill="none" stroke="#63b8ff" d="M1503.17,-109.98C1475.13,-101.09 1430.95,-87.07 1399.7,-77.15"/>
<polygon fill="#63b8ff" stroke="#63b8ff" points="1400.63,-73.77 1390.04,-74.08 1398.51,-80.44 1400.63,-73.77"/>
</a>
</g>
</g>
<!-- Node23 -->
<g id="Node000023" class="node">
<title>Node23</title>
<g id="a_Node000023"><a xlink:href="Dinfo_8h.html" target="_top" xlink:title=" ">
<polygon fill="white" stroke="#666666" points="1473,-74 1421,-74 1421,-55 1473,-55 1473,-74"/>
<text text-anchor="middle" x="1447" y="-62" font-family="Ubuntu Mono" font-size="10.00">Dinfo.h</text>
</a>
</g>
</g>
<!-- Node3&#45;&gt;Node23 -->
<g id="edge22_Node000003_Node000023" class="edge">
<title>Node3&#45;&gt;Node23</title>
<g id="a_edge22_Node000003_Node000023"><a xlink:title=" ">
<path fill="none" stroke="#63b8ff" d="M1516.66,-109.98C1503.91,-101.84 1484.45,-89.41 1469.33,-79.76"/>
<polygon fill="#63b8ff" stroke="#63b8ff" points="1470.89,-76.6 1460.58,-74.17 1467.12,-82.5 1470.89,-76.6"/>
</a>
</g>
</g>
<!-- Node24 -->
<g id="Node000024" class="node">
<title>Node24</title>
<g id="a_Node000024"><a xlink:href="MsgDigest_8h.html" target="_top" xlink:title=" ">
<polygon fill="white" stroke="#666666" points="1568.5,-74 1491.5,-74 1491.5,-55 1568.5,-55 1568.5,-74"/>
<text text-anchor="middle" x="1530" y="-62" font-family="Ubuntu Mono" font-size="10.00">MsgDigest.h</text>
</a>
</g>
</g>
<!-- Node3&#45;&gt;Node24 -->
<g id="edge23_Node000003_Node000024" class="edge">
<title>Node3&#45;&gt;Node24</title>
<g id="a_edge23_Node000003_Node000024"><a xlink:title=" ">
<path fill="none" stroke="#63b8ff" d="M1530,-109.75C1530,-102.8 1530,-92.85 1530,-84.13"/>
<polygon fill="#63b8ff" stroke="#63b8ff" points="1533.5,-84.09 1530,-74.09 1526.5,-84.09 1533.5,-84.09"/>
</a>
</g>
</g>
<!-- Node25 -->
<g id="Node000025" class="node">
<title>Node25</title>
<g id="a_Node000025"><a xlink:href="Element_8h.html" target="_top" xlink:title=" ">
<polygon fill="white" stroke="#666666" points="1653,-74 1587,-74 1587,-55 1653,-55 1653,-74"/>
<text text-anchor="middle" x="1620" y="-62" font-family="Ubuntu Mono" font-size="10.00">Element.h</text>
</a>
</g>
</g>
<!-- Node3&#45;&gt;Node25 -->
<g id="edge24_Node000003_Node000025" class="edge">
<title>Node3&#45;&gt;Node25</title>
<g id="a_edge24_Node000003_Node000025"><a xlink:title=" ">
<path fill="none" stroke="#63b8ff" d="M1544.46,-109.98C1558.42,-101.77 1579.79,-89.18 1596.25,-79.49"/>
<polygon fill="#63b8ff" stroke="#63b8ff" points="1598.44,-82.26 1605.28,-74.17 1594.88,-76.23 1598.44,-82.26"/>
</a>
</g>
</g>
<!-- Node26 -->
<g id="Node000026" class="node">
<title>Node26</title>
<g id="a_Node000026"><a xlink:href="DataElement_8h.html" target="_top" xlink:title=" ">
<polygon fill="white" stroke="#666666" points="1760.5,-74 1671.5,-74 1671.5,-55 1760.5,-55 1760.5,-74"/>
<text text-anchor="middle" x="1716" y="-62" font-family="Ubuntu Mono" font-size="10.00">DataElement.h</text>
</a>
</g>
</g>
<!-- Node3&#45;&gt;Node26 -->
<g id="edge25_Node000003_Node000026" class="edge">
<title>Node3&#45;&gt;Node26</title>
<g id="a_edge25_Node000003_Node000026"><a xlink:title=" ">
<path fill="none" stroke="#63b8ff" d="M1559.88,-109.98C1591.38,-101.01 1641.17,-86.82 1676.03,-76.89"/>
<polygon fill="#63b8ff" stroke="#63b8ff" points="1677.22,-80.19 1685.88,-74.08 1675.31,-73.46 1677.22,-80.19"/>
</a>
</g>
</g>
<!-- Node27 -->
<g id="Node000027" class="node">
<title>Node27</title>
<g id="a_Node000027"><a xlink:href="GlobalDataElement_8h.html" target="_top" xlink:title=" ">
<polygon fill="white" stroke="#666666" points="1899.5,-74 1778.5,-74 1778.5,-55 1899.5,-55 1899.5,-74"/>
<text text-anchor="middle" x="1839" y="-62" font-family="Ubuntu Mono" font-size="10.00">GlobalDataElement.h</text>
</a>
</g>
</g>
<!-- Node3&#45;&gt;Node27 -->
<g id="edge26_Node000003_Node000027" class="edge">
<title>Node3&#45;&gt;Node27</title>
<g id="a_edge26_Node000003_Node000027"><a xlink:title=" ">
<path fill="none" stroke="#63b8ff" d="M1579.65,-109.98C1633.96,-100.67 1721.02,-85.74 1779.09,-75.78"/>
<polygon fill="#63b8ff" stroke="#63b8ff" points="1779.96,-79.18 1789.22,-74.04 1778.77,-72.28 1779.96,-79.18"/>
</a>
</g>
</g>
<!-- Node28 -->
<g id="Node000028" class="node">
<title>Node28</title>
<g id="a_Node000028"><a xlink:href="LocalDataElement_8h.html" target="_top" xlink:title=" ">
<polygon fill="white" stroke="#666666" points="2032.5,-74 1917.5,-74 1917.5,-55 2032.5,-55 2032.5,-74"/>
<text text-anchor="middle" x="1975" y="-62" font-family="Ubuntu Mono" font-size="10.00">LocalDataElement.h</text>
</a>
</g>
</g>
<!-- Node3&#45;&gt;Node28 -->
<g id="edge27_Node000003_Node000028" class="edge">
<title>Node3&#45;&gt;Node28</title>
<g id="a_edge27_Node000003_Node000028"><a xlink:title=" ">
<path fill="none" stroke="#63b8ff" d="M1588.6,-111.14C1591.78,-110.75 1594.93,-110.37 1598,-110 1732.48,-93.79 1768.63,-90.86 1907.11,-74.1"/>
<polygon fill="#63b8ff" stroke="#63b8ff" points="1907.76,-77.54 1917.26,-72.86 1906.91,-70.59 1907.76,-77.54"/>
</a>
</g>
</g>
<!-- Node29 -->
<g id="Node000029" class="node">
<title>Node29</title>
<g id="a_Node000029"><a xlink:href="Eref_8h.html" target="_top" xlink:title=" ">
<polygon fill="white" stroke="#666666" points="2095,-74 2051,-74 2051,-55 2095,-55 2095,-74"/>
<text text-anchor="middle" x="2073" y="-62" font-family="Ubuntu Mono" font-size="10.00">Eref.h</text>
</a>
</g>
</g>
<!-- Node3&#45;&gt;Node29 -->
<g id="edge28_Node000003_Node000029" class="edge">
<title>Node3&#45;&gt;Node29</title>
<g id="a_edge28_Node000003_Node000029"><a xlink:title=" ">
<path fill="none" stroke="#63b8ff" d="M1588.59,-111.01C1591.77,-110.66 1594.92,-110.32 1598,-110 1791.23,-90.08 1844.56,-106.91 2040.68,-73.68"/>
<polygon fill="#63b8ff" stroke="#63b8ff" points="2041.47,-77.1 2050.73,-71.96 2040.28,-70.2 2041.47,-77.1"/>
</a>
</g>
</g>
<!-- Node30 -->
<g id="Node000030" class="node">
<title>Node30</title>
<g id="a_Node000030"><a xlink:href="Conv_8h.html" target="_top" xlink:title=" ">
<polygon fill="white" stroke="#666666" points="2201,-74 2151,-74 2151,-55 2201,-55 2201,-74"/>
<text text-anchor="middle" x="2176" y="-62" font-family="Ubuntu Mono" font-size="10.00">Conv.h</text>
</a>
</g>
</g>
<!-- Node3&#45;&gt;Node30 -->
<g id="edge29_Node000003_Node000030" class="edge">
<title>Node3&#45;&gt;Node30</title>
<g id="a_edge29_Node000003_Node000030"><a xlink:title=" ">
<path fill="none" stroke="#63b8ff" d="M1588.58,-110.96C1591.77,-110.62 1594.92,-110.3 1598,-110 1836.99,-87.1 1899.28,-107.66 2137,-74 2138.27,-73.82 2139.57,-73.62 2140.87,-73.41"/>
<polygon fill="#63b8ff" stroke="#63b8ff" points="2141.73,-76.81 2150.92,-71.54 2140.45,-69.93 2141.73,-76.81"/>
</a>
</g>
</g>
<!-- Node32 -->
<g id="Node000032" class="node">
<title>Node32</title>
<g id="a_Node000032"><a xlink:href="SrcFinfo_8h.html" target="_top" xlink:title=" ">
<polygon fill="white" stroke="#666666" points="2351.5,-19 2286.5,-19 2286.5,0 2351.5,0 2351.5,-19"/>
<text text-anchor="middle" x="2319" y="-7" font-family="Ubuntu Mono" font-size="10.00">SrcFinfo.h</text>
</a>
</g>
</g>
<!-- Node3&#45;&gt;Node32 -->
<g id="edge31_Node000003_Node000032" class="edge">
<title>Node3&#45;&gt;Node32</title>
<g id="a_edge31_Node000003_Node000032"><a xlink:title=" ">
<path fill="none" stroke="#63b8ff" d="M1588.58,-110.93C1591.76,-110.6 1594.92,-110.28 1598,-110 1733.66,-97.54 2079.58,-113.37 2210,-74 2219.22,-71.22 2267.26,-42.26 2296.4,-24.43"/>
<polygon fill="#63b8ff" stroke="#63b8ff" points="2298.43,-27.29 2305.12,-19.07 2294.77,-21.32 2298.43,-27.29"/>
</a>
</g>
</g>
<!-- Node33 -->
<g id="Node000033" class="node">
<title>Node33</title>
<g id="a_Node000033"><a xlink:href="OpFuncBase_8h.html" target="_top" xlink:title=" ">
<polygon fill="white" stroke="#666666" points="2429,-74 2343,-74 2343,-55 2429,-55 2429,-74"/>
<text text-anchor="middle" x="2386" y="-62" font-family="Ubuntu Mono" font-size="10.00">OpFuncBase.h</text>
</a>
</g>
</g>
<!-- Node3&#45;&gt;Node33 -->
<g id="edge32_Node000003_Node000033" class="edge">
<title>Node3&#45;&gt;Node33</title>
<g id="a_edge32_Node000003_Node000033"><a xlink:title=" ">
<path fill="none" stroke="#63b8ff" d="M1588.58,-110.89C1591.76,-110.57 1594.92,-110.27 1598,-110 1920.93,-81.96 2006.57,-107.93 2332.71,-74"/>
<polygon fill="#63b8ff" stroke="#63b8ff" points="2333.34,-77.45 2342.92,-72.93 2332.61,-70.49 2333.34,-77.45"/>
</a>
</g>
</g>
<!-- Node34 -->
<g id="Node000034" class="node">
<title>Node34</title>
<g id="a_Node000034"><a xlink:href="HopFunc_8h.html" target="_top" xlink:title=" ">
<polygon fill="white" stroke="#666666" points="2325,-74 2257,-74 2257,-55 2325,-55 2325,-74"/>
<text text-anchor="middle" x="2291" y="-62" font-family="Ubuntu Mono" font-size="10.00">HopFunc.h</text>
</a>
</g>
</g>
<!-- Node3&#45;&gt;Node34 -->
<g id="edge34_Node000003_Node000034" class="edge">
<title>Node3&#45;&gt;Node34</title>
<g id="a_edge34_Node000003_Node000034"><a xlink:title=" ">
<path fill="none" stroke="#63b8ff" d="M1588.58,-110.92C1591.76,-110.59 1594.92,-110.28 1598,-110 1883.95,-84.18 1957.8,-107.09 2243,-74 2244.28,-73.85 2245.57,-73.69 2246.88,-73.52"/>
<polygon fill="#63b8ff" stroke="#63b8ff" points="2247.6,-76.95 2256.99,-72.04 2246.58,-70.03 2247.6,-76.95"/>
</a>
</g>
</g>
<!-- Node35 -->
<g id="Node000035" class="node">
<title>Node35</title>
<g id="a_Node000035"><a xlink:href="SetGet_8h.html" target="_top" xlink:title=" ">
<polygon fill="white" stroke="#666666" points="589.5,-74 530.5,-74 530.5,-55 589.5,-55 589.5,-74"/>
<text text-anchor="middle" x="560" y="-62" font-family="Ubuntu Mono" font-size="10.00">SetGet.h</text>
</a>
</g>
</g>
<!-- Node3&#45;&gt;Node35 -->
<g id="edge35_Node000003_Node000035" class="edge">
<title>Node3&#45;&gt;Node35</title>
<g id="a_edge35_Node000003_Node000035"><a xlink:title=" ">
<path fill="none" stroke="#63b8ff" d="M1471.43,-110.87C1468.24,-110.55 1465.08,-110.26 1462,-110 1082.7,-78.44 981.47,-122.3 599.65,-73.81"/>
<polygon fill="#63b8ff" stroke="#63b8ff" points="600.08,-70.33 589.72,-72.53 599.19,-77.28 600.08,-70.33"/>
</a>
</g>
</g>
<!-- Node36 -->
<g id="Node000036" class="node">
<title>Node36</title>
<g id="a_Node000036"><a xlink:href="OpFunc_8h.html" target="_top" xlink:title=" ">
<polygon fill="white" stroke="#666666" points="2509,-74 2447,-74 2447,-55 2509,-55 2509,-74"/>
<text text-anchor="middle" x="2478" y="-62" font-family="Ubuntu Mono" font-size="10.00">OpFunc.h</text>
</a>
</g>
</g>
<!-- Node3&#45;&gt;Node36 -->
<g id="edge37_Node000003_Node000036" class="edge">
<title>Node3&#45;&gt;Node36</title>
<g id="a_edge37_Node000003_Node000036"><a xlink:title=" ">
<path fill="none" stroke="#63b8ff" d="M1588.57,-110.87C1591.76,-110.55 1594.92,-110.26 1598,-110 1967.1,-79.07 2065.57,-120.26 2436.7,-73.93"/>
<polygon fill="#63b8ff" stroke="#63b8ff" points="2437.16,-77.4 2446.64,-72.68 2436.28,-70.46 2437.16,-77.4"/>
</a>
</g>
</g>
<!-- Node37 -->
<g id="Node000037" class="node">
<title>Node37</title>
<g id="a_Node000037"><a xlink:href="EpFunc_8h.html" target="_top" xlink:title=" ">
<polygon fill="white" stroke="#666666" points="2587,-74 2527,-74 2527,-55 2587,-55 2587,-74"/>
<text text-anchor="middle" x="2557" y="-62" font-family="Ubuntu Mono" font-size="10.00">EpFunc.h</text>
</a>
</g>
</g>
<!-- Node3&#45;&gt;Node37 -->
<g id="edge38_Node000003_Node000037" class="edge">
<title>Node3&#45;&gt;Node37</title>
<g id="a_edge38_Node000003_Node000037"><a xlink:title=" ">
<path fill="none" stroke="#63b8ff" d="M1588.57,-110.86C1591.76,-110.54 1594.92,-110.25 1598,-110 2002.55,-76.86 2110.35,-124.98 2516.89,-73.88"/>
<polygon fill="#63b8ff" stroke="#63b8ff" points="2517.38,-77.35 2526.86,-72.62 2516.5,-70.4 2517.38,-77.35"/>
</a>
</g>
</g>
<!-- Node38 -->
<g id="Node000038" class="node">
<title>Node38</title>
<g id="a_Node000038"><a xlink:href="ProcOpFunc_8h.html" target="_top" xlink:title=" ">
<polygon fill="white" stroke="#666666" points="2688.5,-74 2605.5,-74 2605.5,-55 2688.5,-55 2688.5,-74"/>
<text text-anchor="middle" x="2647" y="-62" font-family="Ubuntu Mono" font-size="10.00">ProcOpFunc.h</text>
</a>
</g>
</g>
<!-- Node3&#45;&gt;Node38 -->
<g id="edge39_Node000003_Node000038" class="edge">
<title>Node3&#45;&gt;Node38</title>
<g id="a_edge39_Node000003_Node000038"><a xlink:title=" ">
<path fill="none" stroke="#63b8ff" d="M1588.57,-110.85C1591.76,-110.53 1594.92,-110.25 1598,-110 2037.07,-74.71 2152.66,-117.91 2595.13,-73.92"/>
<polygon fill="#63b8ff" stroke="#63b8ff" points="2595.71,-77.38 2605.31,-72.9 2595.01,-70.41 2595.71,-77.38"/>
</a>
</g>
</g>
<!-- Node39 -->
<g id="Node000039" class="node">
<title>Node39</title>
<g id="a_Node000039"><a xlink:href="ValueFinfo_8h.html" target="_top" xlink:title=" ">
<polygon fill="white" stroke="#666666" points="2783.5,-74 2706.5,-74 2706.5,-55 2783.5,-55 2783.5,-74"/>
<text text-anchor="middle" x="2745" y="-62" font-family="Ubuntu Mono" font-size="10.00">ValueFinfo.h</text>
</a>
</g>
</g>
<!-- Node3&#45;&gt;Node39 -->
<g id="edge40_Node000003_Node000039" class="edge">
<title>Node3&#45;&gt;Node39</title>
<g id="a_edge40_Node000003_Node000039"><a xlink:title=" ">
<path fill="none" stroke="#63b8ff" d="M1588.57,-110.83C1591.76,-110.52 1594.92,-110.24 1598,-110 2082.31,-71.89 2209.85,-124.93 2696.24,-74.02"/>
<polygon fill="#63b8ff" stroke="#63b8ff" points="2696.76,-77.49 2706.34,-72.95 2696.02,-70.52 2696.76,-77.49"/>
</a>
</g>
</g>
<!-- Node40 -->
<g id="Node000040" class="node">
<title>Node40</title>
<g id="a_Node000040"><a xlink:href="LookupValueFinfo_8h.html" target="_top" xlink:title=" ">
<polygon fill="white" stroke="#666666" points="2912.5,-74 2801.5,-74 2801.5,-55 2912.5,-55 2912.5,-74"/>
<text text-anchor="middle" x="2857" y="-62" font-family="Ubuntu Mono" font-size="10.00">LookupValueFinfo.h</text>
</a>
</g>
</g>
<!-- Node3&#45;&gt;Node40 -->
<g id="edge41_Node000003_Node000040" class="edge">
<title>Node3&#45;&gt;Node40</title>
<g id="a_edge41_Node000003_Node000040"><a xlink:title=" ">
<path fill="none" stroke="#63b8ff" d="M1588.57,-110.82C1591.76,-110.52 1594.92,-110.24 1598,-110 2124.41,-69.26 2261.66,-116.43 2791,-74.08"/>
<polygon fill="#63b8ff" stroke="#63b8ff" points="2791.5,-77.55 2801.19,-73.25 2790.94,-70.57 2791.5,-77.55"/>
</a>
</g>
</g>
<!-- Node41 -->
<g id="Node000041" class="node">
<title>Node41</title>
<g id="a_Node000041"><a xlink:href="SharedFinfo_8h.html" target="_top" xlink:title=" ">
<polygon fill="white" stroke="#666666" points="3013.5,-74 2930.5,-74 2930.5,-55 3013.5,-55 3013.5,-74"/>
<text text-anchor="middle" x="2972" y="-62" font-family="Ubuntu Mono" font-size="10.00">SharedFinfo.h</text>
</a>
</g>
</g>
<!-- Node3&#45;&gt;Node41 -->
<g id="edge42_Node000003_Node000041" class="edge">
<title>Node3&#45;&gt;Node41</title>
<g id="a_edge42_Node000003_Node000041"><a xlink:title=" ">
<path fill="none" stroke="#63b8ff" d="M1588.57,-110.81C1591.76,-110.51 1594.92,-110.23 1598,-110 2181.68,-65.69 2334.44,-130.73 2920.35,-74.01"/>
<polygon fill="#63b8ff" stroke="#63b8ff" points="2920.7,-77.49 2930.32,-73.04 2920.02,-70.53 2920.7,-77.49"/>
</a>
</g>
</g>
<!-- Node42 -->
<g id="Node000042" class="node">
<title>Node42</title>
<g id="a_Node000042"><a xlink:href="FieldElementFinfo_8h.html" target="_top" xlink:title=" ">
<polygon fill="white" stroke="#666666" points="3144.5,-74 3031.5,-74 3031.5,-55 3144.5,-55 3144.5,-74"/>
<text text-anchor="middle" x="3088" y="-62" font-family="Ubuntu Mono" font-size="10.00">FieldElementFinfo.h</text>
</a>
</g>
</g>
<!-- Node3&#45;&gt;Node42 -->
<g id="edge43_Node000003_Node000042" class="edge">
<title>Node3&#45;&gt;Node42</title>
<g id="a_edge43_Node000003_Node000042"><a xlink:title=" ">
<path fill="none" stroke="#63b8ff" d="M1588.57,-110.81C1591.76,-110.5 1594.92,-110.23 1598,-110 2226.37,-62.91 2389.62,-122.49 3021.05,-74.06"/>
<polygon fill="#63b8ff" stroke="#63b8ff" points="3021.62,-77.53 3031.32,-73.27 3021.08,-70.55 3021.62,-77.53"/>
</a>
</g>
</g>
<!-- Node43 -->
<g id="Node000043" class="node">
<title>Node43</title>
<g id="a_Node000043"><a xlink:href="FieldElement_8h.html" target="_top" xlink:title=" ">
<polygon fill="white" stroke="#666666" points="3251.5,-74 3162.5,-74 3162.5,-55 3251.5,-55 3251.5,-74"/>
<text text-anchor="middle" x="3207" y="-62" font-family="Ubuntu Mono" font-size="10.00">FieldElement.h</text>
</a>
</g>
</g>
<!-- Node3&#45;&gt;Node43 -->
<g id="edge44_Node000003_Node000043" class="edge">
<title>Node3&#45;&gt;Node43</title>
<g id="a_edge44_Node000003_Node000043"><a xlink:title=" ">
<path fill="none" stroke="#63b8ff" d="M1588.57,-110.8C1591.76,-110.5 1594.92,-110.23 1598,-110 2284.49,-59.28 2463.38,-136.16 3152.06,-74.04"/>
<polygon fill="#63b8ff" stroke="#63b8ff" points="3152.59,-77.51 3162.23,-73.12 3151.96,-70.54 3152.59,-77.51"/>
</a>
</g>
</g>
<!-- Node44 -->
<g id="Node000044" class="node">
<title>Node44</title>
<g id="a_Node000044"><a xlink:href="Neutral_8h.html" target="_top" xlink:title=" ">
<polygon fill="white" stroke="#666666" points="3366.5,-74 3269.5,-74 3269.5,-55 3366.5,-55 3366.5,-74"/>
<text text-anchor="middle" x="3318" y="-62" font-family="Ubuntu Mono" font-size="10.00">../shell/Neutral.h</text>
</a>
</g>
</g>
<!-- Node3&#45;&gt;Node44 -->
<g id="edge45_Node000003_Node000044" class="edge">
<title>Node3&#45;&gt;Node44</title>
<g id="a_edge45_Node000003_Node000044"><a xlink:title=" ">
<path fill="none" stroke="#63b8ff" d="M1588.57,-110.79C1591.76,-110.49 1594.91,-110.23 1598,-110 2331.99,-56.32 2522.66,-135.92 3259.17,-74.04"/>
<polygon fill="#63b8ff" stroke="#63b8ff" points="3259.56,-77.52 3269.23,-73.19 3258.97,-70.54 3259.56,-77.52"/>
</a>
</g>
</g>
<!-- Node31 -->
<g id="Node000031" class="node">
<title>Node31</title>
<g id="a_Node000031"><a xlink:title=" ">
<polygon fill="#e0e0e0" stroke="#999999" points="2201,-19 2151,-19 2151,0 2201,0 2201,-19"/>
<text text-anchor="middle" x="2176" y="-7" font-family="Ubuntu Mono" font-size="10.00">cstring</text>
</a>
</g>
</g>
<!-- Node30&#45;&gt;Node31 -->
<g id="edge30_Node000030_Node000031" class="edge">
<title>Node30&#45;&gt;Node31</title>
<g id="a_edge30_Node000030_Node000031"><a xlink:title=" ">
<path fill="none" stroke="#63b8ff" d="M2176,-54.75C2176,-47.8 2176,-37.85 2176,-29.13"/>
<polygon fill="#63b8ff" stroke="#63b8ff" points="2179.5,-29.09 2176,-19.09 2172.5,-29.09 2179.5,-29.09"/>
</a>
</g>
</g>
<!-- Node33&#45;&gt;Node32 -->
<g id="edge33_Node000033_Node000032" class="edge">
<title>Node33&#45;&gt;Node32</title>
<g id="a_edge33_Node000033_Node000032"><a xlink:title=" ">
<path fill="none" stroke="#63b8ff" d="M2375.24,-54.98C2365.23,-47.07 2350.11,-35.11 2338.07,-25.58"/>
<polygon fill="#63b8ff" stroke="#63b8ff" points="2339.97,-22.63 2329.96,-19.17 2335.63,-28.12 2339.97,-22.63"/>
</a>
</g>
</g>
<!-- Node35&#45;&gt;Node12 -->
<g id="edge36_Node000035_Node000012" class="edge">
<title>Node35&#45;&gt;Node12</title>
<g id="a_edge36_Node000035_Node000012"><a xlink:title=" ">
<path fill="none" stroke="#63b8ff" d="M589.73,-56.53C592.85,-55.94 595.98,-55.42 599,-55 862.38,-18.53 1183.1,-11.95 1292.94,-10.76"/>
<polygon fill="#63b8ff" stroke="#63b8ff" points="1293.24,-14.26 1303.2,-10.66 1293.17,-7.26 1293.24,-14.26"/>
</a>
</g>
</g>
<!-- Node45&#45;&gt;Node7 -->
<g id="edge47_Node000045_Node000007" class="edge">
<title>Node45&#45;&gt;Node7</title>
<g id="a_edge47_Node000045_Node000007"><a xlink:title=" ">
<path fill="none" stroke="#63b8ff" d="M1368.49,-111.07C1365.29,-110.66 1362.1,-110.29 1359,-110 784.33,-55.36 629.17,-158.17 54.42,-73.79"/>
<polygon fill="#63b8ff" stroke="#63b8ff" points="54.62,-70.28 44.21,-72.28 53.59,-77.2 54.62,-70.28"/>
</a>
</g>
</g>
</g>
</svg>
