<?xml version="1.0" encoding="UTF-8" standalone="no"?>
<!DOCTYPE svg PUBLIC "-//W3C//DTD SVG 1.1//EN"
 "http://www.w3.org/Graphics/SVG/1.1/DTD/svg11.dtd">
<!-- Generated by graphviz version 2.43.0 (0)
 -->
<!-- Title: findFuncMsgSrc Pages: 1 -->
<svg width="892pt" height="73pt"
 viewBox="0.00 0.00 892.00 72.50" xmlns="http://www.w3.org/2000/svg" xmlns:xlink="http://www.w3.org/1999/xlink">
<g id="graph0" class="graph" transform="scale(1 1) rotate(0) translate(4 68.5)">
<title>findFuncMsgSrc</title>
<!-- Node1 -->
<g id="Node000001" class="node">
<title>Node1</title>
<g id="a_Node000001"><a xlink:title="Returns Function, if any, acting as src of specified msg into pa.">
<polygon fill="#999999" stroke="#666666" points="884,-45.5 792,-45.5 792,-26.5 884,-26.5 884,-45.5"/>
<text text-anchor="middle" x="838" y="-33.5" font-family="Ubuntu Mono" font-size="10.00">findFuncMsgSrc</text>
</a>
</g>
</g>
<!-- Node2 -->
<g id="Node000002" class="node">
<title>Node2</title>
<g id="a_Node000002"><a xlink:href="classStoich.html#ab56684804de4012037cb0c1bc180991d" target="_top" xlink:title=" ">
<polygon fill="white" stroke="#666666" points="562,-45.5 440,-45.5 440,-26.5 562,-26.5 562,-45.5"/>
<text text-anchor="middle" x="501" y="-33.5" font-family="Ubuntu Mono" font-size="10.00">Stoich::zombifyModel</text>
</a>
</g>
</g>
<!-- Node1&#45;&gt;Node2 -->
<g id="edge1_Node000001_Node000002" class="edge">
<title>Node1&#45;&gt;Node2</title>
<g id="a_edge1_Node000001_Node000002"><a xlink:title=" ">
<path fill="none" stroke="#63b8ff" d="M781.36,-38.33C772.87,-38.61 764.2,-38.85 756,-39 685.79,-40.3 668.21,-40.1 598,-39 586.41,-38.82 574.04,-38.52 562.17,-38.17"/>
<polygon fill="#63b8ff" stroke="#63b8ff" points="781.72,-41.82 791.6,-37.98 781.48,-34.83 781.72,-41.82"/>
</a>
</g>
</g>
<!-- Node7 -->
<g id="Node000007" class="node">
<title>Node7</title>
<g id="a_Node000007"><a xlink:href="classStoich.html#a76eb61b91eb52a6d439099fb91fed977" target="_top" xlink:title=" ">
<polygon fill="white" stroke="#666666" points="756,-30 598,-30 598,0 756,0 756,-30"/>
<text text-anchor="start" x="606" y="-18" font-family="Ubuntu Mono" font-size="10.00">Stoich::zombifyPoolFuncWith</text>
<text text-anchor="middle" x="677" y="-7" font-family="Ubuntu Mono" font-size="10.00">Scaling</text>
</a>
</g>
</g>
<!-- Node1&#45;&gt;Node7 -->
<g id="edge6_Node000001_Node000007" class="edge">
<title>Node1&#45;&gt;Node7</title>
<g id="a_edge6_Node000001_Node000007"><a xlink:title=" ">
<path fill="none" stroke="#63b8ff" d="M781.89,-28.72C773.54,-27.62 764.78,-26.46 756.05,-25.31"/>
<polygon fill="#63b8ff" stroke="#63b8ff" points="781.49,-32.2 791.86,-30.04 782.41,-25.26 781.49,-32.2"/>
</a>
</g>
</g>
<!-- Node3 -->
<g id="Node000003" class="node">
<title>Node3</title>
<g id="a_Node000003"><a xlink:href="classStoich.html#a44698a8a652534dc594bd87f450d93c0" target="_top" xlink:title=" ">
<polygon fill="white" stroke="#666666" points="404,-45.5 315,-45.5 315,-26.5 404,-26.5 404,-45.5"/>
<text text-anchor="middle" x="359.5" y="-33.5" font-family="Ubuntu Mono" font-size="10.00">Stoich::setElist</text>
</a>
</g>
</g>
<!-- Node2&#45;&gt;Node3 -->
<g id="edge2_Node000002_Node000003" class="edge">
<title>Node2&#45;&gt;Node3</title>
<g id="a_edge2_Node000002_Node000003"><a xlink:title=" ">
<path fill="none" stroke="#63b8ff" d="M429.5,-36C420.86,-36 412.23,-36 404.15,-36"/>
<polygon fill="#63b8ff" stroke="#63b8ff" points="429.62,-39.5 439.62,-36 429.62,-32.5 429.62,-39.5"/>
</a>
</g>
</g>
<!-- Node4 -->
<g id="Node000004" class="node">
<title>Node4</title>
<g id="a_Node000004"><a xlink:href="classStoich.html#a0a32cb242e6fd1f6af653a48189feda5" target="_top" xlink:title=" ">
<polygon fill="white" stroke="#666666" points="279,-45.5 130,-45.5 130,-26.5 279,-26.5 279,-45.5"/>
<text text-anchor="middle" x="204.5" y="-33.5" font-family="Ubuntu Mono" font-size="10.00">Stoich::setReacSystemPath</text>
</a>
</g>
</g>
<!-- Node3&#45;&gt;Node4 -->
<g id="edge3_Node000003_Node000004" class="edge">
<title>Node3&#45;&gt;Node4</title>
<g id="a_edge3_Node000003_Node000004"><a xlink:title=" ">
<path fill="none" stroke="#63b8ff" d="M304.48,-36C296.26,-36 287.66,-36 279.11,-36"/>
<polygon fill="#63b8ff" stroke="#63b8ff" points="304.66,-39.5 314.66,-36 304.66,-32.5 304.66,-39.5"/>
</a>
</g>
</g>
<!-- Node5 -->
<g id="Node000005" class="node">
<title>Node5</title>
<g id="a_Node000005"><a xlink:href="classStoich.html#ad8c6117d11f46222476ef4a464ecdc09" target="_top" xlink:title=" ">
<polygon fill="white" stroke="#666666" points="94,-64.5 0,-64.5 0,-45.5 94,-45.5 94,-64.5"/>
<text text-anchor="middle" x="47" y="-52.5" font-family="Ubuntu Mono" font-size="10.00">Stoich::initCinfo</text>
</a>
</g>
</g>
<!-- Node4&#45;&gt;Node5 -->
<g id="edge4_Node000004_Node000005" class="edge">
<title>Node4&#45;&gt;Node5</title>
<g id="a_edge4_Node000004_Node000005"><a xlink:title=" ">
<path fill="none" stroke="#63b8ff" d="M119.64,-46.25C110.97,-47.31 102.39,-48.35 94.36,-49.34"/>
<polygon fill="#63b8ff" stroke="#63b8ff" points="120.35,-49.69 129.85,-45 119.5,-42.74 120.35,-49.69"/>
</a>
</g>
</g>
<!-- Node6 -->
<g id="Node000006" class="node">
<title>Node6</title>
<g id="a_Node000006"><a xlink:href="classStoich.html#aec019d0f2ceb1d021062c1a3e712803a" target="_top" xlink:title=" ">
<polygon fill="white" stroke="#666666" points="91.5,-27.5 2.5,-27.5 2.5,-8.5 91.5,-8.5 91.5,-27.5"/>
<text text-anchor="middle" x="47" y="-15.5" font-family="Ubuntu Mono" font-size="10.00">Stoich::setPath</text>
</a>
</g>
</g>
<!-- Node4&#45;&gt;Node6 -->
<g id="edge5_Node000004_Node000006" class="edge">
<title>Node4&#45;&gt;Node6</title>
<g id="a_edge5_Node000004_Node000006"><a xlink:title=" ">
<path fill="none" stroke="#63b8ff" d="M119.76,-26.31C110.11,-25.19 100.57,-24.09 91.76,-23.07"/>
<polygon fill="#63b8ff" stroke="#63b8ff" points="119.51,-29.8 129.85,-27.47 120.32,-22.85 119.51,-29.8"/>
</a>
</g>
</g>
<!-- Node7&#45;&gt;Node2 -->
<g id="edge7_Node000007_Node000002" class="edge">
<title>Node7&#45;&gt;Node2</title>
<g id="a_edge7_Node000007_Node000002"><a xlink:title=" ">
<path fill="none" stroke="#63b8ff" d="M587.73,-25.65C579.06,-26.7 570.4,-27.74 562.1,-28.75"/>
<polygon fill="#63b8ff" stroke="#63b8ff" points="588.4,-29.1 597.91,-24.43 587.56,-22.15 588.4,-29.1"/>
</a>
</g>
</g>
</g>
</svg>
