<?xml version="1.0" encoding="UTF-8" standalone="no"?>
<!DOCTYPE svg PUBLIC "-//W3C//DTD SVG 1.1//EN"
 "http://www.w3.org/Graphics/SVG/1.1/DTD/svg11.dtd">
<!-- Generated by graphviz version 2.43.0 (0)
 -->
<!-- Title: /home/runner/work/mooseneuro.github.io/mooseneuro.github.io/docs/moose&#45;core/utility/strutil.h Pages: 1 -->
<!--zoomable 203 -->

<svg id="main" version="1.1" xmlns="http://www.w3.org/2000/svg" xmlns:xlink="http://www.w3.org/1999/xlink" xml:space="preserve" onload="init(evt)">
<style type="text/css"><![CDATA[
.node, .edge {opacity: 0.7;}
.node.selected, .edge.selected {opacity: 1;}
.edge:hover path { stroke: red; }
.edge:hover polygon { stroke: red; fill: red; }
]]></style>

<defs>
  <circle id="rim" cx="0" cy="0" r="7"/>
  <circle id="rim2" cx="0" cy="0" r="3.5"/>
  <g id="zoomPlus">
    <use xlink:href="#rim" fill="#404040"><set attributeName="fill" to="#808080" begin="zoomplus.mouseover" end="zoomplus.mouseout"/></use>
    <path d="M-4,0h8M0,-4v8" fill="none" stroke="white" stroke-width="1.5" pointer-events="none"/>
  </g>
  <g id="zoomMin">
    <use xlink:href="#rim" fill="#404040"><set attributeName="fill" to="#808080" begin="zoomminus.mouseover" end="zoomminus.mouseout"/></use>
    <path d="M-4,0h8" fill="none" stroke="white" stroke-width="1.5" pointer-events="none"/>
  </g>
  <g id="arrowUp" transform="translate(30 24)">
    <use xlink:href="#rim"/>
    <path pointer-events="none" fill="none" stroke="white" stroke-width="1.5" d="M0,-3.0v7 M-2.5,-0.5L0,-3.0L2.5,-0.5"/>
  </g>
  <g id="arrowRight" transform="rotate(90) translate(36 -43)">
    <use xlink:href="#rim"/>
    <path pointer-events="none" fill="none" stroke="white" stroke-width="1.5" d="M0,-3.0v7 M-2.5,-0.5L0,-3.0L2.5,-0.5"/>
  </g>
  <g id="arrowDown" transform="rotate(180) translate(-30 -48)">
    <use xlink:href="#rim"/>
    <path pointer-events="none" fill="none" stroke="white" stroke-width="1.5" d="M0,-3.0v7 M-2.5,-0.5L0,-3.0L2.5,-0.5"/>
  </g>
  <g id="arrowLeft" transform="rotate(270) translate(-36 17)">
    <use xlink:href="#rim"/>
    <path pointer-events="none" fill="none" stroke="white" stroke-width="1.5" d="M0,-3.0v7 M-2.5,-0.5L0,-3.0L2.5,-0.5"/>
  </g>
  <g id="resetDef">
    <use xlink:href="#rim2" fill="#404040"><set attributeName="fill" to="#808080" begin="reset.mouseover" end="reset.mouseout"/></use>
  </g>
</defs>
<script type="application/ecmascript">
var viewWidth = 3172;
var viewHeight = 203;
var sectionId = 'dynsection-1';
</script>
<script type="application/ecmascript" xlink:href="svg.min.js"/>
<svg id="graph" class="graph">
<g id="viewport">
<title>/home/runner/work/mooseneuro.github.io/mooseneuro.github.io/docs/moose&#45;core/utility/strutil.h</title>
<!-- Node1 -->
<g id="Node000001" class="node">
<title>Node1</title>
<g id="a_Node000001"><a xlink:title=" ">
<polygon fill="#999999" stroke="#666666" points="1988,-195 1770,-195 1770,-154 1988,-154 1988,-195"/>
<text text-anchor="start" x="1778" y="-183" font-family="Ubuntu Mono" font-size="10.00">/home/runner/work/mooseneuro.github.io</text>
<text text-anchor="start" x="1778" y="-172" font-family="Ubuntu Mono" font-size="10.00">/mooseneuro.github.io/docs/moose</text>
<text text-anchor="middle" x="1879" y="-161" font-family="Ubuntu Mono" font-size="10.00">&#45;core/utility/strutil.h</text>
</a>
</g>
</g>
<!-- Node2 -->
<g id="Node000002" class="node">
<title>Node2</title>
<g id="a_Node000002"><a xlink:href="HHGate_8cpp.html" target="_top" xlink:title=" ">
<polygon fill="white" stroke="#666666" points="218,-118 0,-118 0,-77 218,-77 218,-118"/>
<text text-anchor="start" x="8" y="-106" font-family="Ubuntu Mono" font-size="10.00">/home/runner/work/mooseneuro.github.io</text>
<text text-anchor="start" x="8" y="-95" font-family="Ubuntu Mono" font-size="10.00">/mooseneuro.github.io/docs/moose</text>
<text text-anchor="middle" x="109" y="-84" font-family="Ubuntu Mono" font-size="10.00">&#45;core/biophysics/HHGate.cpp</text>
</a>
</g>
</g>
<!-- Node1&#45;&gt;Node2 -->
<g id="edge1_Node000001_Node000002" class="edge">
<title>Node1&#45;&gt;Node2</title>
<g id="a_edge1_Node000001_Node000002"><a xlink:title=" ">
<path fill="none" stroke="#63b8ff" d="M1759.29,-171.5C1431.57,-165.72 524.42,-147.44 227,-118 224.11,-117.71 221.18,-117.4 218.22,-117.06"/>
<polygon fill="#63b8ff" stroke="#63b8ff" points="1759.7,-175.01 1769.76,-171.69 1759.82,-168.01 1759.7,-175.01"/>
</a>
</g>
</g>
<!-- Node3 -->
<g id="Node000003" class="node">
<title>Node3</title>
<g id="a_Node000003"><a xlink:href="ReadCell_8cpp.html" target="_top" xlink:title=" ">
<polygon fill="white" stroke="#666666" points="454,-118 236,-118 236,-77 454,-77 454,-118"/>
<text text-anchor="start" x="244" y="-106" font-family="Ubuntu Mono" font-size="10.00">/home/runner/work/mooseneuro.github.io</text>
<text text-anchor="start" x="244" y="-95" font-family="Ubuntu Mono" font-size="10.00">/mooseneuro.github.io/docs/moose</text>
<text text-anchor="middle" x="345" y="-84" font-family="Ubuntu Mono" font-size="10.00">&#45;core/biophysics/ReadCell.cpp</text>
</a>
</g>
</g>
<!-- Node1&#45;&gt;Node3 -->
<g id="edge2_Node000001_Node000003" class="edge">
<title>Node1&#45;&gt;Node3</title>
<g id="a_edge2_Node000001_Node000003"><a xlink:title=" ">
<path fill="none" stroke="#63b8ff" d="M1759.55,-173.83C1515.36,-173.4 941.66,-166.74 463,-118 460.11,-117.71 457.18,-117.38 454.23,-117.04"/>
<polygon fill="#63b8ff" stroke="#63b8ff" points="1759.86,-177.33 1769.86,-173.84 1759.87,-170.33 1759.86,-177.33"/>
</a>
</g>
</g>
<!-- Node4 -->
<g id="Node000004" class="node">
<title>Node4</title>
<g id="a_Node000004"><a xlink:href="Function_8cpp.html" target="_top" xlink:title=" ">
<polygon fill="white" stroke="#666666" points="690,-118 472,-118 472,-77 690,-77 690,-118"/>
<text text-anchor="start" x="480" y="-106" font-family="Ubuntu Mono" font-size="10.00">/home/runner/work/mooseneuro.github.io</text>
<text text-anchor="start" x="480" y="-95" font-family="Ubuntu Mono" font-size="10.00">/mooseneuro.github.io/docs/moose</text>
<text text-anchor="middle" x="581" y="-84" font-family="Ubuntu Mono" font-size="10.00">&#45;core/builtins/Function.cpp</text>
</a>
</g>
</g>
<!-- Node1&#45;&gt;Node4 -->
<g id="edge3_Node000001_Node000004" class="edge">
<title>Node1&#45;&gt;Node4</title>
<g id="a_edge3_Node000001_Node000004"><a xlink:title=" ">
<path fill="none" stroke="#63b8ff" d="M1759.39,-172.48C1545.87,-169.64 1085.28,-158.86 699,-118 696.11,-117.69 693.18,-117.36 690.23,-117.01"/>
<polygon fill="#63b8ff" stroke="#63b8ff" points="1759.63,-175.99 1769.68,-172.62 1759.72,-168.99 1759.63,-175.99"/>
</a>
</g>
</g>
<!-- Node5 -->
<g id="Node000005" class="node">
<title>Node5</title>
<g id="a_Node000005"><a xlink:href="Interpol2D_8cpp.html" target="_top" xlink:title=" ">
<polygon fill="white" stroke="#666666" points="926,-118 708,-118 708,-77 926,-77 926,-118"/>
<text text-anchor="start" x="716" y="-106" font-family="Ubuntu Mono" font-size="10.00">/home/runner/work/mooseneuro.github.io</text>
<text text-anchor="start" x="716" y="-95" font-family="Ubuntu Mono" font-size="10.00">/mooseneuro.github.io/docs/moose</text>
<text text-anchor="middle" x="817" y="-84" font-family="Ubuntu Mono" font-size="10.00">&#45;core/builtins/Interpol2D.cpp</text>
</a>
</g>
</g>
<!-- Node1&#45;&gt;Node5 -->
<g id="edge4_Node000001_Node000005" class="edge">
<title>Node1&#45;&gt;Node5</title>
<g id="a_edge4_Node000001_Node000005"><a xlink:title=" ">
<path fill="none" stroke="#63b8ff" d="M1759.4,-170.49C1579.88,-165.07 1230.29,-150.99 935,-118 932.11,-117.68 929.19,-117.33 926.23,-116.97"/>
<polygon fill="#63b8ff" stroke="#63b8ff" points="1759.56,-174 1769.66,-170.8 1759.77,-167 1759.56,-174"/>
</a>
</g>
</g>
<!-- Node6 -->
<g id="Node000006" class="node">
<title>Node6</title>
<g id="a_Node000006"><a xlink:href="MooseParser_8cpp.html" target="_top" xlink:title=" ">
<polygon fill="white" stroke="#666666" points="1162,-118 944,-118 944,-77 1162,-77 1162,-118"/>
<text text-anchor="start" x="952" y="-106" font-family="Ubuntu Mono" font-size="10.00">/home/runner/work/mooseneuro.github.io</text>
<text text-anchor="start" x="952" y="-95" font-family="Ubuntu Mono" font-size="10.00">/mooseneuro.github.io/docs/moose</text>
<text text-anchor="middle" x="1053" y="-84" font-family="Ubuntu Mono" font-size="10.00">&#45;core/builtins/MooseParser.cpp</text>
</a>
</g>
</g>
<!-- Node1&#45;&gt;Node6 -->
<g id="edge5_Node000001_Node000006" class="edge">
<title>Node1&#45;&gt;Node6</title>
<g id="a_edge5_Node000001_Node000006"><a xlink:title=" ">
<path fill="none" stroke="#63b8ff" d="M1759.46,-167.26C1618.45,-159.17 1377.12,-143.06 1171,-118 1168.11,-117.65 1165.19,-117.28 1162.24,-116.89"/>
<polygon fill="#63b8ff" stroke="#63b8ff" points="1759.67,-170.77 1769.85,-167.85 1760.07,-163.79 1759.67,-170.77"/>
</a>
</g>
</g>
<!-- Node7 -->
<g id="Node000007" class="node">
<title>Node7</title>
<g id="a_Node000007"><a xlink:href="TableBase_8cpp.html" target="_top" xlink:title=" ">
<polygon fill="white" stroke="#666666" points="1398,-118 1180,-118 1180,-77 1398,-77 1398,-118"/>
<text text-anchor="start" x="1188" y="-106" font-family="Ubuntu Mono" font-size="10.00">/home/runner/work/mooseneuro.github.io</text>
<text text-anchor="start" x="1188" y="-95" font-family="Ubuntu Mono" font-size="10.00">/mooseneuro.github.io/docs/moose</text>
<text text-anchor="middle" x="1289" y="-84" font-family="Ubuntu Mono" font-size="10.00">&#45;core/builtins/TableBase.cpp</text>
</a>
</g>
</g>
<!-- Node1&#45;&gt;Node7 -->
<g id="edge6_Node000001_Node000007" class="edge">
<title>Node1&#45;&gt;Node7</title>
<g id="a_edge6_Node000001_Node000007"><a xlink:title=" ">
<path fill="none" stroke="#63b8ff" d="M1759.62,-161.02C1664.08,-150.66 1526.74,-134.92 1407,-118 1404.12,-117.59 1401.21,-117.17 1398.26,-116.74"/>
<polygon fill="#63b8ff" stroke="#63b8ff" points="1759.29,-164.51 1769.61,-162.1 1760.04,-157.55 1759.29,-164.51"/>
</a>
</g>
</g>
<!-- Node8 -->
<g id="Node000008" class="node">
<title>Node8</title>
<g id="a_Node000008"><a xlink:href="ReadKkit_8cpp.html" target="_top" xlink:title=" ">
<polygon fill="white" stroke="#666666" points="1634,-118 1416,-118 1416,-77 1634,-77 1634,-118"/>
<text text-anchor="start" x="1424" y="-106" font-family="Ubuntu Mono" font-size="10.00">/home/runner/work/mooseneuro.github.io</text>
<text text-anchor="start" x="1424" y="-95" font-family="Ubuntu Mono" font-size="10.00">/mooseneuro.github.io/docs/moose</text>
<text text-anchor="middle" x="1525" y="-84" font-family="Ubuntu Mono" font-size="10.00">&#45;core/kinetics/ReadKkit.cpp</text>
</a>
</g>
</g>
<!-- Node1&#45;&gt;Node8 -->
<g id="edge7_Node000001_Node000008" class="edge">
<title>Node1&#45;&gt;Node8</title>
<g id="a_edge7_Node000001_Node000008"><a xlink:title=" ">
<path fill="none" stroke="#63b8ff" d="M1776.97,-151.88C1726.58,-141.21 1666.24,-128.42 1617.24,-118.04"/>
<polygon fill="#63b8ff" stroke="#63b8ff" points="1776.41,-155.34 1786.91,-153.99 1777.86,-148.49 1776.41,-155.34"/>
</a>
</g>
</g>
<!-- Node9 -->
<g id="Node000009" class="node">
<title>Node9</title>
<g id="a_Node000009"><a xlink:href="NeuroMesh_8cpp.html" target="_top" xlink:title=" ">
<polygon fill="white" stroke="#666666" points="1870,-118 1652,-118 1652,-77 1870,-77 1870,-118"/>
<text text-anchor="start" x="1660" y="-106" font-family="Ubuntu Mono" font-size="10.00">/home/runner/work/mooseneuro.github.io</text>
<text text-anchor="start" x="1660" y="-95" font-family="Ubuntu Mono" font-size="10.00">/mooseneuro.github.io/docs/moose</text>
<text text-anchor="middle" x="1761" y="-84" font-family="Ubuntu Mono" font-size="10.00">&#45;core/mesh/NeuroMesh.cpp</text>
</a>
</g>
</g>
<!-- Node1&#45;&gt;Node9 -->
<g id="edge8_Node000001_Node000009" class="edge">
<title>Node1&#45;&gt;Node9</title>
<g id="a_edge8_Node000001_Node000009"><a xlink:title=" ">
<path fill="none" stroke="#63b8ff" d="M1839.46,-148.37C1823.98,-138.53 1806.49,-127.41 1791.95,-118.17"/>
<polygon fill="#63b8ff" stroke="#63b8ff" points="1837.99,-151.58 1848.3,-153.99 1841.74,-145.67 1837.99,-151.58"/>
</a>
</g>
</g>
<!-- Node10 -->
<g id="Node000010" class="node">
<title>Node10</title>
<g id="a_Node000010"><a xlink:href="NeuroNode_8cpp.html" target="_top" xlink:title=" ">
<polygon fill="white" stroke="#666666" points="2106,-118 1888,-118 1888,-77 2106,-77 2106,-118"/>
<text text-anchor="start" x="1896" y="-106" font-family="Ubuntu Mono" font-size="10.00">/home/runner/work/mooseneuro.github.io</text>
<text text-anchor="start" x="1896" y="-95" font-family="Ubuntu Mono" font-size="10.00">/mooseneuro.github.io/docs/moose</text>
<text text-anchor="middle" x="1997" y="-84" font-family="Ubuntu Mono" font-size="10.00">&#45;core/mesh/NeuroNode.cpp</text>
</a>
</g>
</g>
<!-- Node1&#45;&gt;Node10 -->
<g id="edge9_Node000001_Node000010" class="edge">
<title>Node1&#45;&gt;Node10</title>
<g id="a_edge9_Node000001_Node000010"><a xlink:title=" ">
<path fill="none" stroke="#63b8ff" d="M1918.54,-148.37C1934.02,-138.53 1951.51,-127.41 1966.05,-118.17"/>
<polygon fill="#63b8ff" stroke="#63b8ff" points="1916.26,-145.67 1909.7,-153.99 1920.01,-151.58 1916.26,-145.67"/>
</a>
</g>
</g>
<!-- Node11 -->
<g id="Node000011" class="node">
<title>Node11</title>
<g id="a_Node000011"><a xlink:href="pymoose_2Finfo_8cpp.html" target="_top" xlink:title=" ">
<polygon fill="white" stroke="#666666" points="2045,-41 1827,-41 1827,0 2045,0 2045,-41"/>
<text text-anchor="start" x="1835" y="-29" font-family="Ubuntu Mono" font-size="10.00">/home/runner/work/mooseneuro.github.io</text>
<text text-anchor="start" x="1835" y="-18" font-family="Ubuntu Mono" font-size="10.00">/mooseneuro.github.io/docs/moose</text>
<text text-anchor="middle" x="1936" y="-7" font-family="Ubuntu Mono" font-size="10.00">&#45;core/pymoose/Finfo.cpp</text>
</a>
</g>
</g>
<!-- Node1&#45;&gt;Node11 -->
<g id="edge10_Node000001_Node000011" class="edge">
<title>Node1&#45;&gt;Node11</title>
<g id="a_edge10_Node000001_Node000011"><a xlink:title=" ">
<path fill="none" stroke="#63b8ff" d="M1998.41,-159.29C2048.94,-150.59 2099.69,-137.33 2115,-118 2126.31,-103.72 2125.81,-91.67 2115,-77 2104.38,-62.59 2069.84,-50.32 2033.9,-41.01"/>
<polygon fill="#63b8ff" stroke="#63b8ff" points="1997.61,-155.88 1988.32,-160.97 1998.76,-162.78 1997.61,-155.88"/>
</a>
</g>
</g>
<!-- Node12 -->
<g id="Node000012" class="node">
<title>Node12</title>
<g id="a_Node000012"><a xlink:href="pymoose_2Finfo_8h.html" target="_top" xlink:title=" ">
<polygon fill="white" stroke="#666666" points="2418,-118 2200,-118 2200,-77 2418,-77 2418,-118"/>
<text text-anchor="start" x="2208" y="-106" font-family="Ubuntu Mono" font-size="10.00">/home/runner/work/mooseneuro.github.io</text>
<text text-anchor="start" x="2208" y="-95" font-family="Ubuntu Mono" font-size="10.00">/mooseneuro.github.io/docs/moose</text>
<text text-anchor="middle" x="2309" y="-84" font-family="Ubuntu Mono" font-size="10.00">&#45;core/pymoose/Finfo.h</text>
</a>
</g>
</g>
<!-- Node1&#45;&gt;Node12 -->
<g id="edge11_Node000001_Node000012" class="edge">
<title>Node1&#45;&gt;Node12</title>
<g id="a_edge11_Node000001_Node000012"><a xlink:title=" ">
<path fill="none" stroke="#63b8ff" d="M1998.07,-152.73C2061.16,-141.73 2138.11,-128.31 2199.68,-117.57"/>
<polygon fill="#63b8ff" stroke="#63b8ff" points="1997.31,-149.31 1988.06,-154.48 1998.52,-156.21 1997.31,-149.31"/>
</a>
</g>
</g>
<!-- Node13 -->
<g id="Node000013" class="node">
<title>Node13</title>
<g id="a_Node000013"><a xlink:href="MooseVec_8cpp.html" target="_top" xlink:title=" ">
<polygon fill="white" stroke="#666666" points="2281,-41 2063,-41 2063,0 2281,0 2281,-41"/>
<text text-anchor="start" x="2071" y="-29" font-family="Ubuntu Mono" font-size="10.00">/home/runner/work/mooseneuro.github.io</text>
<text text-anchor="start" x="2071" y="-18" font-family="Ubuntu Mono" font-size="10.00">/mooseneuro.github.io/docs/moose</text>
<text text-anchor="middle" x="2172" y="-7" font-family="Ubuntu Mono" font-size="10.00">&#45;core/pymoose/MooseVec.cpp</text>
</a>
</g>
</g>
<!-- Node1&#45;&gt;Node13 -->
<g id="edge16_Node000001_Node000013" class="edge">
<title>Node1&#45;&gt;Node13</title>
<g id="a_edge16_Node000001_Node000013"><a xlink:title=" ">
<path fill="none" stroke="#63b8ff" d="M1998.05,-158.33C2053.58,-149.13 2112.01,-135.71 2133,-118 2156.06,-98.54 2165.63,-63.4 2169.5,-41.32"/>
<polygon fill="#63b8ff" stroke="#63b8ff" points="1997.4,-154.89 1988.08,-159.94 1998.51,-161.8 1997.4,-154.89"/>
</a>
</g>
</g>
<!-- Node14 -->
<g id="Node000014" class="node">
<title>Node14</title>
<g id="a_Node000014"><a xlink:href="helper_8cpp.html" target="_top" xlink:title=" ">
<polygon fill="white" stroke="#666666" points="2753,-41 2535,-41 2535,0 2753,0 2753,-41"/>
<text text-anchor="start" x="2543" y="-29" font-family="Ubuntu Mono" font-size="10.00">/home/runner/work/mooseneuro.github.io</text>
<text text-anchor="start" x="2543" y="-18" font-family="Ubuntu Mono" font-size="10.00">/mooseneuro.github.io/docs/moose</text>
<text text-anchor="middle" x="2644" y="-7" font-family="Ubuntu Mono" font-size="10.00">&#45;core/pymoose/helper.cpp</text>
</a>
</g>
</g>
<!-- Node1&#45;&gt;Node14 -->
<g id="edge17_Node000001_Node000014" class="edge">
<title>Node1&#45;&gt;Node14</title>
<g id="a_edge17_Node000001_Node000014"><a xlink:title=" ">
<path fill="none" stroke="#63b8ff" d="M1998.36,-171.19C2136.47,-166.82 2354.25,-154.24 2427,-118 2449.24,-106.92 2443.98,-90.24 2465,-77 2490.33,-61.05 2520.57,-49.4 2548.92,-41.01"/>
<polygon fill="#63b8ff" stroke="#63b8ff" points="1998.03,-167.7 1988.14,-171.5 1998.25,-174.69 1998.03,-167.7"/>
</a>
</g>
</g>
<!-- Node16 -->
<g id="Node000016" class="node">
<title>Node16</title>
<g id="a_Node000016"><a xlink:href="LoadModels_8cpp.html" target="_top" xlink:title=" ">
<polygon fill="white" stroke="#666666" points="2692,-118 2474,-118 2474,-77 2692,-77 2692,-118"/>
<text text-anchor="start" x="2482" y="-106" font-family="Ubuntu Mono" font-size="10.00">/home/runner/work/mooseneuro.github.io</text>
<text text-anchor="start" x="2482" y="-95" font-family="Ubuntu Mono" font-size="10.00">/mooseneuro.github.io/docs/moose</text>
<text text-anchor="middle" x="2583" y="-84" font-family="Ubuntu Mono" font-size="10.00">&#45;core/shell/LoadModels.cpp</text>
</a>
</g>
</g>
<!-- Node1&#45;&gt;Node16 -->
<g id="edge18_Node000001_Node000016" class="edge">
<title>Node1&#45;&gt;Node16</title>
<g id="a_edge18_Node000001_Node000016"><a xlink:title=" ">
<path fill="none" stroke="#63b8ff" d="M1998.29,-164.28C2115.91,-154.68 2300.67,-138.22 2460,-118 2464.5,-117.43 2469.1,-116.82 2473.73,-116.18"/>
<polygon fill="#63b8ff" stroke="#63b8ff" points="1997.86,-160.8 1988.18,-165.1 1998.43,-167.78 1997.86,-160.8"/>
</a>
</g>
</g>
<!-- Node17 -->
<g id="Node000017" class="node">
<title>Node17</title>
<g id="a_Node000017"><a xlink:href="strutil_8cpp.html" target="_top" xlink:title=" ">
<polygon fill="white" stroke="#666666" points="2928,-118 2710,-118 2710,-77 2928,-77 2928,-118"/>
<text text-anchor="start" x="2718" y="-106" font-family="Ubuntu Mono" font-size="10.00">/home/runner/work/mooseneuro.github.io</text>
<text text-anchor="start" x="2718" y="-95" font-family="Ubuntu Mono" font-size="10.00">/mooseneuro.github.io/docs/moose</text>
<text text-anchor="middle" x="2819" y="-84" font-family="Ubuntu Mono" font-size="10.00">&#45;core/utility/strutil.cpp</text>
</a>
</g>
</g>
<!-- Node1&#45;&gt;Node17 -->
<g id="edge19_Node000001_Node000017" class="edge">
<title>Node1&#45;&gt;Node17</title>
<g id="a_edge19_Node000001_Node000017"><a xlink:title=" ">
<path fill="none" stroke="#63b8ff" d="M1998.37,-169.05C2158.61,-162.25 2451.97,-146.92 2701,-118 2703.89,-117.66 2706.81,-117.31 2709.76,-116.93"/>
<polygon fill="#63b8ff" stroke="#63b8ff" points="1997.85,-165.57 1988.01,-169.49 1998.14,-172.56 1997.85,-165.57"/>
</a>
</g>
</g>
<!-- Node18 -->
<g id="Node000018" class="node">
<title>Node18</title>
<g id="a_Node000018"><a xlink:href="test__util_8cpp.html" target="_top" xlink:title=" ">
<polygon fill="white" stroke="#666666" points="3164,-118 2946,-118 2946,-77 3164,-77 3164,-118"/>
<text text-anchor="start" x="2954" y="-106" font-family="Ubuntu Mono" font-size="10.00">/home/runner/work/mooseneuro.github.io</text>
<text text-anchor="start" x="2954" y="-95" font-family="Ubuntu Mono" font-size="10.00">/mooseneuro.github.io/docs/moose</text>
<text text-anchor="middle" x="3055" y="-84" font-family="Ubuntu Mono" font-size="10.00">&#45;core/utility/test_util.cpp</text>
</a>
</g>
</g>
<!-- Node1&#45;&gt;Node18 -->
<g id="edge20_Node000001_Node000018" class="edge">
<title>Node1&#45;&gt;Node18</title>
<g id="a_edge20_Node000001_Node000018"><a xlink:title=" ">
<path fill="none" stroke="#63b8ff" d="M1998.27,-171.57C2194.55,-167.42 2597.75,-154.81 2937,-118 2939.89,-117.69 2942.82,-117.35 2945.77,-116.99"/>
<polygon fill="#63b8ff" stroke="#63b8ff" points="1998.14,-168.07 1988.22,-171.78 1998.29,-175.07 1998.14,-168.07"/>
</a>
</g>
</g>
<!-- Node12&#45;&gt;Node11 -->
<g id="edge12_Node000012_Node000011" class="edge">
<title>Node12&#45;&gt;Node11</title>
<g id="a_edge12_Node000012_Node000011"><a xlink:title=" ">
<path fill="none" stroke="#63b8ff" d="M2202.16,-75.02C2148.93,-64.31 2085.03,-51.47 2033.19,-41.04"/>
<polygon fill="#63b8ff" stroke="#63b8ff" points="2201.48,-78.45 2211.97,-76.99 2202.86,-71.59 2201.48,-78.45"/>
</a>
</g>
</g>
<!-- Node12&#45;&gt;Node13 -->
<g id="edge13_Node000012_Node000013" class="edge">
<title>Node12&#45;&gt;Node13</title>
<g id="a_edge13_Node000012_Node000013"><a xlink:title=" ">
<path fill="none" stroke="#63b8ff" d="M2264.35,-72.06C2246.07,-62.05 2225.2,-50.63 2207.93,-41.17"/>
<polygon fill="#63b8ff" stroke="#63b8ff" points="2262.91,-75.26 2273.36,-76.99 2266.27,-69.12 2262.91,-75.26"/>
</a>
</g>
</g>
<!-- Node12&#45;&gt;Node14 -->
<g id="edge14_Node000012_Node000014" class="edge">
<title>Node12&#45;&gt;Node14</title>
<g id="a_edge14_Node000012_Node000014"><a xlink:title=" ">
<path fill="none" stroke="#63b8ff" d="M2406.15,-74.75C2453.72,-64.1 2510.54,-51.38 2556.71,-41.04"/>
<polygon fill="#63b8ff" stroke="#63b8ff" points="2405.14,-71.39 2396.14,-76.99 2406.67,-78.22 2405.14,-71.39"/>
</a>
</g>
</g>
<!-- Node15 -->
<g id="Node000015" class="node">
<title>Node15</title>
<g id="a_Node000015"><a xlink:href="pymoose_8cpp.html" target="_top" xlink:title=" ">
<polygon fill="white" stroke="#666666" points="2517,-41 2299,-41 2299,0 2517,0 2517,-41"/>
<text text-anchor="start" x="2307" y="-29" font-family="Ubuntu Mono" font-size="10.00">/home/runner/work/mooseneuro.github.io</text>
<text text-anchor="start" x="2307" y="-18" font-family="Ubuntu Mono" font-size="10.00">/mooseneuro.github.io/docs/moose</text>
<text text-anchor="middle" x="2408" y="-7" font-family="Ubuntu Mono" font-size="10.00">&#45;core/pymoose/pymoose.cpp</text>
</a>
</g>
</g>
<!-- Node12&#45;&gt;Node15 -->
<g id="edge15_Node000012_Node000015" class="edge">
<title>Node12&#45;&gt;Node15</title>
<g id="a_edge15_Node000012_Node000015"><a xlink:title=" ">
<path fill="none" stroke="#63b8ff" d="M2342.9,-70.82C2355.71,-61.11 2370.07,-50.24 2382.03,-41.17"/>
<polygon fill="#63b8ff" stroke="#63b8ff" points="2340.61,-68.16 2334.75,-76.99 2344.84,-73.74 2340.61,-68.16"/>
</a>
</g>
</g>
</g>
</svg>

<g id="navigator" transform="translate(0 0)" fill="#404254">
  <rect fill="#f2f5e9" fill-opacity="0.5" stroke="#606060" stroke-width=".5" x="0" y="0" width="60" height="60"/>
  <use id="zoomplus" xlink:href="#zoomPlus" x="17" y="9" onmousedown="handleZoom(evt,'in')"/>
  <use id="zoomminus" xlink:href="#zoomMin" x="42" y="9" onmousedown="handleZoom(evt,'out')"/>
  <use id="reset" xlink:href="#resetDef" x="30" y="36" onmousedown="handleReset()"/>
   <use id="arrowup" xlink:href="#arrowUp" x="0" y="0" onmousedown="handlePan(0,-1)"/>
  <use id="arrowright" xlink:href="#arrowRight" x="0" y="0" onmousedown="handlePan(1,0)"/>
  <use id="arrowdown" xlink:href="#arrowDown" x="0" y="0" onmousedown="handlePan(0,1)"/>
  <use id="arrowleft" xlink:href="#arrowLeft" x="0" y="0" onmousedown="handlePan(-1,0)"/>
</g>
<svg viewBox="0 0 15 15" width="100%" height="30px" preserveAspectRatio="xMaxYMin meet">
 <g id="arrow_out" transform="scale(0.3 0.3)">
  <a xlink:href="strutil_8h__dep__incl_org.svg" target="_base">
   <rect id="button" ry="5" rx="5" y="6" x="6" height="38" width="38"
        fill="#f2f5e9" fill-opacity="0.5" stroke="#606060" stroke-width="1.0"/>
   <path id="arrow"
     d="M 11.500037,31.436501 C 11.940474,20.09759 22.043105,11.32322 32.158766,21.979434 L 37.068811,17.246167 C 37.068811,17.246167 37.088388,32 37.088388,32 L 22.160133,31.978069 C 22.160133,31.978069 26.997745,27.140456 26.997745,27.140456 C 18.528582,18.264221 13.291696,25.230495 11.500037,31.436501 z"
     style="fill:#404040;"/>
  </a>
 </g>
</svg>

<style type='text/css'>
<![CDATA[
[data-mouse-over-selected='false'] { opacity: 0.7; }
[data-mouse-over-selected='true']  { opacity: 1.0; }
]]>
</style>
<script type="application/ecmascript"><![CDATA[
document.addEventListener('DOMContentLoaded', (event) => {
  highlightEdges();
  highlightAdjacentNodes();
});
]]></script>
</svg>
