<?xml version="1.0" encoding="UTF-8" standalone="no"?>
<!DOCTYPE svg PUBLIC "-//W3C//DTD SVG 1.1//EN"
 "http://www.w3.org/Graphics/SVG/1.1/DTD/svg11.dtd">
<!-- Generated by graphviz version 2.43.0 (0)
 -->
<!-- Title: ChannelStruct::setPowers Pages: 1 -->
<svg width="947pt" height="138pt"
 viewBox="0.00 0.00 947.00 138.00" xmlns="http://www.w3.org/2000/svg" xmlns:xlink="http://www.w3.org/1999/xlink">
<g id="graph0" class="graph" transform="scale(1 1) rotate(0) translate(4 134)">
<title>ChannelStruct::setPowers</title>
<!-- Node1 -->
<g id="Node000001" class="node">
<title>Node1</title>
<g id="a_Node000001"><a xlink:title=" ">
<polygon fill="#999999" stroke="#666666" points="939,-92 798,-92 798,-73 939,-73 939,-92"/>
<text text-anchor="middle" x="868.5" y="-80" font-family="Ubuntu Mono" font-size="10.00">ChannelStruct::setPowers</text>
</a>
</g>
</g>
<!-- Node2 -->
<g id="Node000002" class="node">
<title>Node2</title>
<g id="a_Node000002"><a xlink:href="classHSolveActive.html#af741be2e50555413cda5e3bfb7bde4a1" target="_top" xlink:title=" ">
<polygon fill="white" stroke="#666666" points="762,-120 592,-120 592,-101 762,-101 762,-120"/>
<text text-anchor="middle" x="677" y="-108" font-family="Ubuntu Mono" font-size="10.00">HSolveActive::readHHChannels</text>
</a>
</g>
</g>
<!-- Node1&#45;&gt;Node2 -->
<g id="edge1_Node000001_Node000002" class="edge">
<title>Node1&#45;&gt;Node2</title>
<g id="a_edge1_Node000001_Node000002"><a xlink:title=" ">
<path fill="none" stroke="#63b8ff" d="M792.86,-93.53C776.23,-95.99 758.74,-98.57 742.56,-100.96"/>
<polygon fill="#63b8ff" stroke="#63b8ff" points="793.7,-96.94 803.08,-92.02 792.68,-90.02 793.7,-96.94"/>
</a>
</g>
</g>
<!-- Node7 -->
<g id="Node000007" class="node">
<title>Node7</title>
<g id="a_Node000007"><a xlink:href="classHSolve.html#abec93d6be6b5f53f69cc2e0985f3de0c" target="_top" xlink:title="Interface to channels.">
<polygon fill="white" stroke="#666666" points="730.5,-74 623.5,-74 623.5,-55 730.5,-55 730.5,-74"/>
<text text-anchor="middle" x="677" y="-62" font-family="Ubuntu Mono" font-size="10.00">HSolve::setPowers</text>
</a>
</g>
</g>
<!-- Node1&#45;&gt;Node7 -->
<g id="edge6_Node000001_Node000007" class="edge">
<title>Node1&#45;&gt;Node7</title>
<g id="a_edge6_Node000001_Node000007"><a xlink:title=" ">
<path fill="none" stroke="#63b8ff" d="M787.76,-74.93C768.49,-73.1 748.38,-71.18 730.7,-69.51"/>
<polygon fill="#63b8ff" stroke="#63b8ff" points="787.46,-78.41 797.74,-75.87 788.12,-71.44 787.46,-78.41"/>
</a>
</g>
</g>
<!-- Node3 -->
<g id="Node000003" class="node">
<title>Node3</title>
<g id="a_Node000003"><a xlink:href="classHSolveActive.html#abe1e04be095f6b2e77e0de5ff3c56b3d" target="_top" xlink:title=" ">
<polygon fill="white" stroke="#666666" points="527,-130 412,-130 412,-111 527,-111 527,-130"/>
<text text-anchor="middle" x="469.5" y="-118" font-family="Ubuntu Mono" font-size="10.00">HSolveActive::setup</text>
</a>
</g>
</g>
<!-- Node2&#45;&gt;Node3 -->
<g id="edge2_Node000002_Node000003" class="edge">
<title>Node2&#45;&gt;Node3</title>
<g id="a_edge2_Node000002_Node000003"><a xlink:title=" ">
<path fill="none" stroke="#63b8ff" d="M581.83,-115.08C563.2,-115.99 544.19,-116.91 527.27,-117.74"/>
<polygon fill="#63b8ff" stroke="#63b8ff" points="582,-118.58 591.82,-114.6 581.66,-111.59 582,-118.58"/>
</a>
</g>
</g>
<!-- Node4 -->
<g id="Node000004" class="node">
<title>Node4</title>
<g id="a_Node000004"><a xlink:href="classHSolve.html#a2e768e9eb17b2c732c9129c018889f79" target="_top" xlink:title=" ">
<polygon fill="white" stroke="#666666" points="347,-130 263,-130 263,-111 347,-111 347,-130"/>
<text text-anchor="middle" x="305" y="-118" font-family="Ubuntu Mono" font-size="10.00">HSolve::setup</text>
</a>
</g>
</g>
<!-- Node3&#45;&gt;Node4 -->
<g id="edge3_Node000003_Node000004" class="edge">
<title>Node3&#45;&gt;Node4</title>
<g id="a_edge3_Node000003_Node000004"><a xlink:title=" ">
<path fill="none" stroke="#63b8ff" d="M401.56,-120.5C383.13,-120.5 363.69,-120.5 347.19,-120.5"/>
<polygon fill="#63b8ff" stroke="#63b8ff" points="401.67,-124 411.67,-120.5 401.67,-117 401.67,-124"/>
</a>
</g>
</g>
<!-- Node5 -->
<g id="Node000005" class="node">
<title>Node5</title>
<g id="a_Node000005"><a xlink:href="classHSolve.html#a4d36de840ae2ff289981e77f779eb9dc" target="_top" xlink:title=" ">
<polygon fill="white" stroke="#666666" points="227,-130 134,-130 134,-111 227,-111 227,-130"/>
<text text-anchor="middle" x="180.5" y="-118" font-family="Ubuntu Mono" font-size="10.00">HSolve::setPath</text>
</a>
</g>
</g>
<!-- Node4&#45;&gt;Node5 -->
<g id="edge4_Node000004_Node000005" class="edge">
<title>Node4&#45;&gt;Node5</title>
<g id="a_edge4_Node000004_Node000005"><a xlink:title=" ">
<path fill="none" stroke="#63b8ff" d="M252.77,-120.5C244.34,-120.5 235.66,-120.5 227.37,-120.5"/>
<polygon fill="#63b8ff" stroke="#63b8ff" points="252.87,-124 262.87,-120.5 252.87,-117 252.87,-124"/>
</a>
</g>
</g>
<!-- Node6 -->
<g id="Node000006" class="node">
<title>Node6</title>
<g id="a_Node000006"><a xlink:href="classHSolve.html#a3d60964bbc6441f73c04fe702faba848" target="_top" xlink:title="Interface to external channels.">
<polygon fill="white" stroke="#666666" points="98,-130 0,-130 0,-111 98,-111 98,-130"/>
<text text-anchor="middle" x="49" y="-118" font-family="Ubuntu Mono" font-size="10.00">HSolve::initCinfo</text>
</a>
</g>
</g>
<!-- Node5&#45;&gt;Node6 -->
<g id="edge5_Node000005_Node000006" class="edge">
<title>Node5&#45;&gt;Node6</title>
<g id="a_edge5_Node000005_Node000006"><a xlink:title=" ">
<path fill="none" stroke="#63b8ff" d="M123.68,-120.5C115.24,-120.5 106.59,-120.5 98.32,-120.5"/>
<polygon fill="#63b8ff" stroke="#63b8ff" points="123.84,-124 133.84,-120.5 123.84,-117 123.84,-124"/>
</a>
</g>
</g>
<!-- Node8 -->
<g id="Node000008" class="node">
<title>Node8</title>
<g id="a_Node000008"><a xlink:href="classZombieHHChannel.html#ab7e59e7bbc27b716783ab8e9fa1af742" target="_top" xlink:title=" ">
<polygon fill="white" stroke="#666666" points="556,-93 383,-93 383,-74 556,-74 556,-93"/>
<text text-anchor="middle" x="469.5" y="-81" font-family="Ubuntu Mono" font-size="10.00">ZombieHHChannel::vSetXpower</text>
</a>
</g>
</g>
<!-- Node7&#45;&gt;Node8 -->
<g id="edge7_Node000007_Node000008" class="edge">
<title>Node7&#45;&gt;Node8</title>
<g id="a_edge7_Node000007_Node000008"><a xlink:title=" ">
<path fill="none" stroke="#63b8ff" d="M613.27,-70.3C595.25,-71.97 575.28,-73.81 556.13,-75.58"/>
<polygon fill="#63b8ff" stroke="#63b8ff" points="613.71,-73.77 623.35,-69.37 613.07,-66.8 613.71,-73.77"/>
</a>
</g>
</g>
<!-- Node9 -->
<g id="Node000009" class="node">
<title>Node9</title>
<g id="a_Node000009"><a xlink:href="classZombieHHChannel.html#ad10ca0bec7c12dca1d6e24e01996e0f0" target="_top" xlink:title=" ">
<polygon fill="white" stroke="#666666" points="556,-56 383,-56 383,-37 556,-37 556,-56"/>
<text text-anchor="middle" x="469.5" y="-44" font-family="Ubuntu Mono" font-size="10.00">ZombieHHChannel::vSetYpower</text>
</a>
</g>
</g>
<!-- Node7&#45;&gt;Node9 -->
<g id="edge8_Node000007_Node000009" class="edge">
<title>Node7&#45;&gt;Node9</title>
<g id="a_edge8_Node000007_Node000009"><a xlink:title=" ">
<path fill="none" stroke="#63b8ff" d="M613.27,-59.01C595.25,-57.43 575.28,-55.68 556.13,-54"/>
<polygon fill="#63b8ff" stroke="#63b8ff" points="613.08,-62.5 623.35,-59.89 613.69,-55.53 613.08,-62.5"/>
</a>
</g>
</g>
<!-- Node10 -->
<g id="Node000010" class="node">
<title>Node10</title>
<g id="a_Node000010"><a xlink:href="classZombieHHChannel.html#aec934cede00fdd6322b5de4e9bf2d93b" target="_top" xlink:title=" ">
<polygon fill="white" stroke="#666666" points="556,-19 383,-19 383,0 556,0 556,-19"/>
<text text-anchor="middle" x="469.5" y="-7" font-family="Ubuntu Mono" font-size="10.00">ZombieHHChannel::vSetZpower</text>
</a>
</g>
</g>
<!-- Node7&#45;&gt;Node10 -->
<g id="edge9_Node000007_Node000010" class="edge">
<title>Node7&#45;&gt;Node10</title>
<g id="a_edge9_Node000007_Node000010"><a xlink:title=" ">
<path fill="none" stroke="#63b8ff" d="M638.02,-51.81C614.54,-44.21 583.7,-34.67 556,-27.5 544.25,-24.46 531.5,-21.56 519.51,-19.01"/>
<polygon fill="#63b8ff" stroke="#63b8ff" points="637.01,-55.16 647.6,-54.94 639.18,-48.51 637.01,-55.16"/>
</a>
</g>
</g>
</g>
</svg>
