<?xml version="1.0" encoding="UTF-8" standalone="no"?>
<!DOCTYPE svg PUBLIC "-//W3C//DTD SVG 1.1//EN"
 "http://www.w3.org/Graphics/SVG/1.1/DTD/svg11.dtd">
<!-- Generated by graphviz version 2.43.0 (0)
 -->
<!-- Title: pymoose::VecElementField Pages: 1 -->
<!--zoomable 558 -->

<svg id="main" version="1.1" xmlns="http://www.w3.org/2000/svg" xmlns:xlink="http://www.w3.org/1999/xlink" xml:space="preserve" onload="init(evt)">
<style type="text/css"><![CDATA[
.node, .edge {opacity: 0.7;}
.node.selected, .edge.selected {opacity: 1;}
.edge:hover path { stroke: red; }
.edge:hover polygon { stroke: red; fill: red; }
]]></style>

<defs>
  <circle id="rim" cx="0" cy="0" r="7"/>
  <circle id="rim2" cx="0" cy="0" r="3.5"/>
  <g id="zoomPlus">
    <use xlink:href="#rim" fill="#404040"><set attributeName="fill" to="#808080" begin="zoomplus.mouseover" end="zoomplus.mouseout"/></use>
    <path d="M-4,0h8M0,-4v8" fill="none" stroke="white" stroke-width="1.5" pointer-events="none"/>
  </g>
  <g id="zoomMin">
    <use xlink:href="#rim" fill="#404040"><set attributeName="fill" to="#808080" begin="zoomminus.mouseover" end="zoomminus.mouseout"/></use>
    <path d="M-4,0h8" fill="none" stroke="white" stroke-width="1.5" pointer-events="none"/>
  </g>
  <g id="arrowUp" transform="translate(30 24)">
    <use xlink:href="#rim"/>
    <path pointer-events="none" fill="none" stroke="white" stroke-width="1.5" d="M0,-3.0v7 M-2.5,-0.5L0,-3.0L2.5,-0.5"/>
  </g>
  <g id="arrowRight" transform="rotate(90) translate(36 -43)">
    <use xlink:href="#rim"/>
    <path pointer-events="none" fill="none" stroke="white" stroke-width="1.5" d="M0,-3.0v7 M-2.5,-0.5L0,-3.0L2.5,-0.5"/>
  </g>
  <g id="arrowDown" transform="rotate(180) translate(-30 -48)">
    <use xlink:href="#rim"/>
    <path pointer-events="none" fill="none" stroke="white" stroke-width="1.5" d="M0,-3.0v7 M-2.5,-0.5L0,-3.0L2.5,-0.5"/>
  </g>
  <g id="arrowLeft" transform="rotate(270) translate(-36 17)">
    <use xlink:href="#rim"/>
    <path pointer-events="none" fill="none" stroke="white" stroke-width="1.5" d="M0,-3.0v7 M-2.5,-0.5L0,-3.0L2.5,-0.5"/>
  </g>
  <g id="resetDef">
    <use xlink:href="#rim2" fill="#404040"><set attributeName="fill" to="#808080" begin="reset.mouseover" end="reset.mouseout"/></use>
  </g>
</defs>
<script type="application/ecmascript">
var viewWidth = 252;
var viewHeight = 558;
var sectionId = 'dynsection-0';
</script>
<script type="application/ecmascript" xlink:href="svg.min.js"/>
<svg id="graph" class="graph">
<g id="viewport">
<title>pymoose::VecElementField</title>
<!-- Node1 -->
<g id="Node000001" class="node">
<title>Node1</title>
<g id="a_Node000001"><a xlink:title=" ">
<polygon fill="#999999" stroke="transparent" points="192.5,-124 49.5,-124 49.5,0 192.5,0 192.5,-124"/>
<text text-anchor="start" x="55" y="-112" font-family="Ubuntu Mono" font-size="10.00">pymoose::VecElementField</text>
<text text-anchor="start" x="62" y="-97" font-family="Ubuntu Mono" font-size="10.00">+</text>
<text text-anchor="start" x="83" y="-97" font-family="Ubuntu Mono" font-size="10.00">numParents_</text>
<text text-anchor="start" x="62" y="-82" font-family="Ubuntu Mono" font-size="10.00">+</text>
<text text-anchor="start" x="83" y="-82" font-family="Ubuntu Mono" font-size="10.00">getAttribute()</text>
<text text-anchor="start" x="62" y="-67" font-family="Ubuntu Mono" font-size="10.00">+</text>
<text text-anchor="start" x="83" y="-67" font-family="Ubuntu Mono" font-size="10.00">getItem()</text>
<text text-anchor="start" x="62" y="-52" font-family="Ubuntu Mono" font-size="10.00">+</text>
<text text-anchor="start" x="83" y="-52" font-family="Ubuntu Mono" font-size="10.00">setAttribute()</text>
<text text-anchor="start" x="62" y="-37" font-family="Ubuntu Mono" font-size="10.00">+</text>
<text text-anchor="start" x="83" y="-37" font-family="Ubuntu Mono" font-size="10.00">size()</text>
<text text-anchor="start" x="62" y="-22" font-family="Ubuntu Mono" font-size="10.00">+</text>
<text text-anchor="start" x="83" y="-22" font-family="Ubuntu Mono" font-size="10.00">sizes()</text>
<text text-anchor="start" x="62" y="-7" font-family="Ubuntu Mono" font-size="10.00">+</text>
<text text-anchor="start" x="83" y="-7" font-family="Ubuntu Mono" font-size="10.00">VecElementField()</text>
<polygon fill="#666666" stroke="#666666" points="50,-107 50,-107 193,-107 193,-107 50,-107"/>
<polygon fill="#666666" stroke="#666666" points="50,-92 50,-92 81,-92 81,-92 50,-92"/>
<polygon fill="#666666" stroke="#666666" points="81,-92 81,-92 193,-92 193,-92 81,-92"/>
<polygon fill="none" stroke="#666666" points="49.5,0 49.5,-124 192.5,-124 192.5,0 49.5,0"/>
</a>
</g>
</g>
<!-- Node2 -->
<g id="Node000002" class="node">
<title>Node2</title>
<g id="a_Node000002"><a xlink:href="classId.html" target="_top" xlink:title=" ">
<polygon fill="white" stroke="transparent" points="112,-550 0,-550 0,-171 112,-171 112,-550"/>
<text text-anchor="start" x="51" y="-537.5" font-family="Ubuntu Mono" font-size="10.00">Id</text>
<text text-anchor="start" x="6.5" y="-522.5" font-family="Ubuntu Mono" font-size="10.00">&#45;</text>
<text text-anchor="start" x="17" y="-522.5" font-family="Ubuntu Mono" font-size="10.00">id_</text>
<text text-anchor="start" x="4" y="-507.5" font-family="Ubuntu Mono" font-size="10.00">+</text>
<text text-anchor="start" x="17" y="-507.5" font-family="Ubuntu Mono" font-size="10.00">bindIdToElement()</text>
<text text-anchor="start" x="4" y="-492.5" font-family="Ubuntu Mono" font-size="10.00">+</text>
<text text-anchor="start" x="17" y="-492.5" font-family="Ubuntu Mono" font-size="10.00">destroy()</text>
<text text-anchor="start" x="4" y="-477.5" font-family="Ubuntu Mono" font-size="10.00">+</text>
<text text-anchor="start" x="17" y="-477.5" font-family="Ubuntu Mono" font-size="10.00">element()</text>
<text text-anchor="start" x="4" y="-462.5" font-family="Ubuntu Mono" font-size="10.00">+</text>
<text text-anchor="start" x="17" y="-462.5" font-family="Ubuntu Mono" font-size="10.00">eref()</text>
<text text-anchor="start" x="4" y="-447.5" font-family="Ubuntu Mono" font-size="10.00">+</text>
<text text-anchor="start" x="17" y="-447.5" font-family="Ubuntu Mono" font-size="10.00">Id()</text>
<text text-anchor="start" x="4" y="-432.5" font-family="Ubuntu Mono" font-size="10.00">+</text>
<text text-anchor="start" x="17" y="-432.5" font-family="Ubuntu Mono" font-size="10.00">Id()</text>
<text text-anchor="start" x="4" y="-417.5" font-family="Ubuntu Mono" font-size="10.00">+</text>
<text text-anchor="start" x="17" y="-417.5" font-family="Ubuntu Mono" font-size="10.00">Id()</text>
<text text-anchor="start" x="4" y="-402.5" font-family="Ubuntu Mono" font-size="10.00">+</text>
<text text-anchor="start" x="17" y="-402.5" font-family="Ubuntu Mono" font-size="10.00">Id()</text>
<text text-anchor="start" x="4" y="-387.5" font-family="Ubuntu Mono" font-size="10.00">+</text>
<text text-anchor="start" x="17" y="-387.5" font-family="Ubuntu Mono" font-size="10.00">operator!=()</text>
<text text-anchor="start" x="4" y="-372.5" font-family="Ubuntu Mono" font-size="10.00">+</text>
<text text-anchor="start" x="17" y="-372.5" font-family="Ubuntu Mono" font-size="10.00">operator&lt;()</text>
<text text-anchor="start" x="4" y="-357.5" font-family="Ubuntu Mono" font-size="10.00">+</text>
<text text-anchor="start" x="17" y="-357.5" font-family="Ubuntu Mono" font-size="10.00">operator==()</text>
<text text-anchor="start" x="4" y="-342.5" font-family="Ubuntu Mono" font-size="10.00">+</text>
<text text-anchor="start" x="17" y="-342.5" font-family="Ubuntu Mono" font-size="10.00">path()</text>
<text text-anchor="start" x="4" y="-327.5" font-family="Ubuntu Mono" font-size="10.00">+</text>
<text text-anchor="start" x="17" y="-327.5" font-family="Ubuntu Mono" font-size="10.00">value()</text>
<text text-anchor="start" x="4" y="-312.5" font-family="Ubuntu Mono" font-size="10.00">+</text>
<text text-anchor="start" x="17" y="-312.5" font-family="Ubuntu Mono" font-size="10.00">zeroOut()</text>
<text text-anchor="start" x="4" y="-297.5" font-family="Ubuntu Mono" font-size="10.00">+</text>
<text text-anchor="start" x="17" y="-297.5" font-family="Ubuntu Mono" font-size="10.00">~Id()</text>
<text text-anchor="start" x="4" y="-282.5" font-family="Ubuntu Mono" font-size="10.00">+</text>
<text text-anchor="start" x="17" y="-282.5" font-family="Ubuntu Mono" font-size="10.00">clearAllElements()</text>
<text text-anchor="start" x="4" y="-267.5" font-family="Ubuntu Mono" font-size="10.00">+</text>
<text text-anchor="start" x="17" y="-267.5" font-family="Ubuntu Mono" font-size="10.00">id2str()</text>
<text text-anchor="start" x="4" y="-252.5" font-family="Ubuntu Mono" font-size="10.00">+</text>
<text text-anchor="start" x="17" y="-252.5" font-family="Ubuntu Mono" font-size="10.00">isValid()</text>
<text text-anchor="start" x="4" y="-237.5" font-family="Ubuntu Mono" font-size="10.00">+</text>
<text text-anchor="start" x="17" y="-237.5" font-family="Ubuntu Mono" font-size="10.00">isValid()</text>
<text text-anchor="start" x="4" y="-222.5" font-family="Ubuntu Mono" font-size="10.00">+</text>
<text text-anchor="start" x="17" y="-222.5" font-family="Ubuntu Mono" font-size="10.00">nextId()</text>
<text text-anchor="start" x="4" y="-207.5" font-family="Ubuntu Mono" font-size="10.00">+</text>
<text text-anchor="start" x="17" y="-207.5" font-family="Ubuntu Mono" font-size="10.00">numIds()</text>
<text text-anchor="start" x="4" y="-192.5" font-family="Ubuntu Mono" font-size="10.00">+</text>
<text text-anchor="start" x="17" y="-192.5" font-family="Ubuntu Mono" font-size="10.00">str2Id()</text>
<text text-anchor="start" x="6.5" y="-177.5" font-family="Ubuntu Mono" font-size="10.00">&#45;</text>
<text text-anchor="start" x="17" y="-177.5" font-family="Ubuntu Mono" font-size="10.00">elements()</text>
<polygon fill="#666666" stroke="#666666" points="0,-532.5 0,-532.5 112,-532.5 112,-532.5 0,-532.5"/>
<polygon fill="#666666" stroke="#666666" points="0,-517.5 0,-517.5 15,-517.5 15,-517.5 0,-517.5"/>
<polygon fill="#666666" stroke="#666666" points="15,-517.5 15,-517.5 112,-517.5 112,-517.5 15,-517.5"/>
<polygon fill="none" stroke="#666666" points="0,-171 0,-550 112,-550 112,-171 0,-171"/>
</a>
</g>
</g>
<!-- Node2&#45;&gt;Node1 -->
<g id="edge1_Node000001_Node000002" class="edge">
<title>Node2&#45;&gt;Node1</title>
<g id="a_edge1_Node000001_Node000002"><a xlink:title=" ">
<path fill="none" stroke="#63b8ff" d="M97.35,-170.88C100.01,-158.77 102.58,-147.04 104.98,-136.06"/>
<polygon fill="none" stroke="#63b8ff" points="105.06,-135.73 102.43,-129.01 107.63,-124.01 110.25,-130.72 105.06,-135.73"/>
</a>
</g>
<text text-anchor="middle" x="133" y="-145" font-family="Ubuntu Mono" font-size="10.00" fill="grey"> +parentId_</text>
</g>
<!-- Node3 -->
<g id="Node000003" class="node">
<title>Node3</title>
<g id="a_Node000003"><a xlink:href="classFinfo.html" target="_top" xlink:title=" ">
<polygon fill="white" stroke="transparent" points="244,-490 130,-490 130,-231 244,-231 244,-490"/>
<text text-anchor="start" x="174.5" y="-477.5" font-family="Ubuntu Mono" font-size="10.00">Finfo</text>
<text text-anchor="start" x="136.5" y="-462.5" font-family="Ubuntu Mono" font-size="10.00">&#45;</text>
<text text-anchor="start" x="147" y="-462.5" font-family="Ubuntu Mono" font-size="10.00">doc_</text>
<text text-anchor="start" x="136.5" y="-447.5" font-family="Ubuntu Mono" font-size="10.00">&#45;</text>
<text text-anchor="start" x="147" y="-447.5" font-family="Ubuntu Mono" font-size="10.00">name_</text>
<text text-anchor="start" x="134" y="-432.5" font-family="Ubuntu Mono" font-size="10.00">+</text>
<text text-anchor="start" x="147" y="-432.5" font-family="Ubuntu Mono" font-size="10.00">addMsg()</text>
<text text-anchor="start" x="134" y="-417.5" font-family="Ubuntu Mono" font-size="10.00">+</text>
<text text-anchor="start" x="147" y="-417.5" font-family="Ubuntu Mono" font-size="10.00">checkTarget()</text>
<text text-anchor="start" x="134" y="-402.5" font-family="Ubuntu Mono" font-size="10.00">+</text>
<text text-anchor="start" x="147" y="-402.5" font-family="Ubuntu Mono" font-size="10.00">docs()</text>
<text text-anchor="start" x="134" y="-387.5" font-family="Ubuntu Mono" font-size="10.00">+</text>
<text text-anchor="start" x="147" y="-387.5" font-family="Ubuntu Mono" font-size="10.00">Finfo()</text>
<text text-anchor="start" x="134" y="-372.5" font-family="Ubuntu Mono" font-size="10.00">+</text>
<text text-anchor="start" x="147" y="-372.5" font-family="Ubuntu Mono" font-size="10.00">innerDest()</text>
<text text-anchor="start" x="134" y="-357.5" font-family="Ubuntu Mono" font-size="10.00">+</text>
<text text-anchor="start" x="147" y="-357.5" font-family="Ubuntu Mono" font-size="10.00">innerSrc()</text>
<text text-anchor="start" x="134" y="-342.5" font-family="Ubuntu Mono" font-size="10.00">+</text>
<text text-anchor="start" x="147" y="-342.5" font-family="Ubuntu Mono" font-size="10.00">name()</text>
<text text-anchor="start" x="134" y="-327.5" font-family="Ubuntu Mono" font-size="10.00">+</text>
<text text-anchor="start" x="147" y="-327.5" font-family="Ubuntu Mono" font-size="10.00">postCreationFunc()</text>
<text text-anchor="start" x="134" y="-312.5" font-family="Ubuntu Mono" font-size="10.00">+</text>
<text text-anchor="start" x="147" y="-312.5" font-family="Ubuntu Mono" font-size="10.00">registerFinfo()</text>
<text text-anchor="start" x="134" y="-297.5" font-family="Ubuntu Mono" font-size="10.00">+</text>
<text text-anchor="start" x="147" y="-297.5" font-family="Ubuntu Mono" font-size="10.00">rttiType()</text>
<text text-anchor="start" x="134" y="-282.5" font-family="Ubuntu Mono" font-size="10.00">+</text>
<text text-anchor="start" x="147" y="-282.5" font-family="Ubuntu Mono" font-size="10.00">strGet()</text>
<text text-anchor="start" x="134" y="-267.5" font-family="Ubuntu Mono" font-size="10.00">+</text>
<text text-anchor="start" x="147" y="-267.5" font-family="Ubuntu Mono" font-size="10.00">strSet()</text>
<text text-anchor="start" x="134" y="-252.5" font-family="Ubuntu Mono" font-size="10.00">+</text>
<text text-anchor="start" x="147" y="-252.5" font-family="Ubuntu Mono" font-size="10.00">~Finfo()</text>
<text text-anchor="start" x="134" y="-237.5" font-family="Ubuntu Mono" font-size="10.00">+</text>
<text text-anchor="start" x="147" y="-237.5" font-family="Ubuntu Mono" font-size="10.00">initCinfo()</text>
<polygon fill="#666666" stroke="#666666" points="130,-472.5 130,-472.5 244,-472.5 244,-472.5 130,-472.5"/>
<polygon fill="#666666" stroke="#666666" points="130,-442.5 130,-442.5 145,-442.5 145,-442.5 130,-442.5"/>
<polygon fill="#666666" stroke="#666666" points="145,-442.5 145,-442.5 244,-442.5 244,-442.5 145,-442.5"/>
<polygon fill="none" stroke="#666666" points="130,-231 130,-490 244,-490 244,-231 130,-231"/>
</a>
</g>
</g>
<!-- Node3&#45;&gt;Node1 -->
<g id="edge2_Node000001_Node000003" class="edge">
<title>Node3&#45;&gt;Node1</title>
<g id="a_edge2_Node000001_Node000003"><a xlink:title=" ">
<path fill="none" stroke="#63b8ff" d="M182.72,-230.95C179.35,-201.26 173.85,-170.15 165,-142 164.29,-139.75 163.52,-137.5 162.69,-135.25"/>
<polygon fill="none" stroke="#63b8ff" points="162.64,-135.13 156.66,-131.09 158.09,-124.02 164.07,-128.06 162.64,-135.13"/>
</a>
</g>
<text text-anchor="middle" x="185.5" y="-145" font-family="Ubuntu Mono" font-size="10.00" fill="grey"> +finfo_</text>
</g>
</g>
</svg>

<g id="navigator" transform="translate(0 0)" fill="#404254">
  <rect fill="#f2f5e9" fill-opacity="0.5" stroke="#606060" stroke-width=".5" x="0" y="0" width="60" height="60"/>
  <use id="zoomplus" xlink:href="#zoomPlus" x="17" y="9" onmousedown="handleZoom(evt,'in')"/>
  <use id="zoomminus" xlink:href="#zoomMin" x="42" y="9" onmousedown="handleZoom(evt,'out')"/>
  <use id="reset" xlink:href="#resetDef" x="30" y="36" onmousedown="handleReset()"/>
   <use id="arrowup" xlink:href="#arrowUp" x="0" y="0" onmousedown="handlePan(0,-1)"/>
  <use id="arrowright" xlink:href="#arrowRight" x="0" y="0" onmousedown="handlePan(1,0)"/>
  <use id="arrowdown" xlink:href="#arrowDown" x="0" y="0" onmousedown="handlePan(0,1)"/>
  <use id="arrowleft" xlink:href="#arrowLeft" x="0" y="0" onmousedown="handlePan(-1,0)"/>
</g>
<svg viewBox="0 0 15 15" width="100%" height="30px" preserveAspectRatio="xMaxYMin meet">
 <g id="arrow_out" transform="scale(0.3 0.3)">
  <a xlink:href="structpymoose_1_1VecElementField__coll__graph_org.svg" target="_base">
   <rect id="button" ry="5" rx="5" y="6" x="6" height="38" width="38"
        fill="#f2f5e9" fill-opacity="0.5" stroke="#606060" stroke-width="1.0"/>
   <path id="arrow"
     d="M 11.500037,31.436501 C 11.940474,20.09759 22.043105,11.32322 32.158766,21.979434 L 37.068811,17.246167 C 37.068811,17.246167 37.088388,32 37.088388,32 L 22.160133,31.978069 C 22.160133,31.978069 26.997745,27.140456 26.997745,27.140456 C 18.528582,18.264221 13.291696,25.230495 11.500037,31.436501 z"
     style="fill:#404040;"/>
  </a>
 </g>
</svg>

<style type='text/css'>
<![CDATA[
[data-mouse-over-selected='false'] { opacity: 0.7; }
[data-mouse-over-selected='true']  { opacity: 1.0; }
]]>
</style>
<script type="application/ecmascript"><![CDATA[
document.addEventListener('DOMContentLoaded', (event) => {
  highlightEdges();
  highlightAdjacentNodes();
});
]]></script>
</svg>
