<?xml version="1.0" encoding="UTF-8" standalone="no"?>
<!DOCTYPE svg PUBLIC "-//W3C//DTD SVG 1.1//EN"
 "http://www.w3.org/Graphics/SVG/1.1/DTD/svg11.dtd">
<!-- Generated by graphviz version 2.43.0 (0)
 -->
<!-- Title: testSparseMatrix Pages: 1 -->
<svg width="467pt" height="249pt"
 viewBox="0.00 0.00 467.00 249.00" xmlns="http://www.w3.org/2000/svg" xmlns:xlink="http://www.w3.org/1999/xlink">

<svg id="main" version="1.1" xmlns="http://www.w3.org/2000/svg" xmlns:xlink="http://www.w3.org/1999/xlink" xml:space="preserve" onload="init(evt)">
<style type="text/css"><![CDATA[
.node, .edge {opacity: 0.7;}
.node.selected, .edge.selected {opacity: 1;}
.edge:hover path { stroke: red; }
.edge:hover polygon { stroke: red; fill: red; }
]]></style>
<script type="application/ecmascript" xlink:href="svg.min.js"/>
<svg id="graph" class="graph">
<g id="graph0" class="graph" transform="scale(1 1) rotate(0) translate(4 245)">
<title>testSparseMatrix</title>
<!-- Node1 -->
<g id="Node000001" class="node">
<title>Node1</title>
<g id="a_Node000001"><a xlink:title=" ">
<polygon fill="#999999" stroke="#666666" points="100,-130 0,-130 0,-111 100,-111 100,-130"/>
<text text-anchor="middle" x="50" y="-118" font-family="Ubuntu Mono" font-size="10.00">testSparseMatrix</text>
</a>
</g>
</g>
<!-- Node2 -->
<g id="Node000002" class="node">
<title>Node2</title>
<g id="a_Node000002"><a xlink:href="classSparseMatrix.html#a354ec2999a4fa10d5c1127ca769d116b" target="_top" xlink:title=" ">
<polygon fill="white" stroke="#666666" points="280.5,-241 156.5,-241 156.5,-222 280.5,-222 280.5,-241"/>
<text text-anchor="middle" x="218.5" y="-229" font-family="Ubuntu Mono" font-size="10.00">SparseMatrix::getRow</text>
</a>
</g>
</g>
<!-- Node1&#45;&gt;Node2 -->
<g id="edge1_Node000001_Node000002" class="edge">
<title>Node1&#45;&gt;Node2</title>
<g id="a_edge1_Node000001_Node000002"><a xlink:title=" ">
<path fill="none" stroke="#63b8ff" d="M56.89,-130.19C69.08,-149.37 99.07,-192.16 136,-213.5 139.43,-215.48 143.06,-217.25 146.8,-218.82"/>
<polygon fill="#63b8ff" stroke="#63b8ff" points="145.71,-222.14 156.3,-222.33 148.14,-215.58 145.71,-222.14"/>
</a>
</g>
</g>
<!-- Node3 -->
<g id="Node000003" class="node">
<title>Node3</title>
<g id="a_Node000003"><a xlink:href="classSparseMatrix.html#a34a568e3db0bafd38cf0ccc37cd2086b" target="_top" xlink:title=" ">
<polygon fill="white" stroke="#666666" points="286.5,-204 150.5,-204 150.5,-185 286.5,-185 286.5,-204"/>
<text text-anchor="middle" x="218.5" y="-192" font-family="Ubuntu Mono" font-size="10.00">SparseMatrix::nColumns</text>
</a>
</g>
</g>
<!-- Node1&#45;&gt;Node3 -->
<g id="edge2_Node000001_Node000003" class="edge">
<title>Node1&#45;&gt;Node3</title>
<g id="a_edge2_Node000001_Node000003"><a xlink:title=" ">
<path fill="none" stroke="#63b8ff" d="M62.59,-130.15C78.25,-142.71 107.52,-164.46 136,-176.5 141,-178.62 146.29,-180.5 151.67,-182.17"/>
<polygon fill="#63b8ff" stroke="#63b8ff" points="150.84,-185.57 161.41,-184.96 152.76,-178.84 150.84,-185.57"/>
</a>
</g>
</g>
<!-- Node4 -->
<g id="Node000004" class="node">
<title>Node4</title>
<g id="a_Node000004"><a xlink:href="classSparseMatrix.html#a2c51cee470d726cf04e262a4038625f5" target="_top" xlink:title=" ">
<polygon fill="white" stroke="#666666" points="278,-167 159,-167 159,-148 278,-148 278,-167"/>
<text text-anchor="middle" x="218.5" y="-155" font-family="Ubuntu Mono" font-size="10.00">SparseMatrix::nRows</text>
</a>
</g>
</g>
<!-- Node1&#45;&gt;Node4 -->
<g id="edge3_Node000001_Node000004" class="edge">
<title>Node1&#45;&gt;Node4</title>
<g id="a_edge3_Node000001_Node000004"><a xlink:title=" ">
<path fill="none" stroke="#63b8ff" d="M93.8,-130.09C107.3,-133.11 122.27,-136.45 136,-139.5 145.24,-141.55 155.07,-143.73 164.59,-145.83"/>
<polygon fill="#63b8ff" stroke="#63b8ff" points="163.83,-149.25 174.35,-147.99 165.34,-142.42 163.83,-149.25"/>
</a>
</g>
</g>
<!-- Node5 -->
<g id="Node000005" class="node">
<title>Node5</title>
<g id="a_Node000005"><a xlink:href="classSparseMatrix.html#aba47de30cd631afe8923a6bb03d7db7d" target="_top" xlink:title=" ">
<polygon fill="white" stroke="#666666" points="301,-130 136,-130 136,-111 301,-111 301,-130"/>
<text text-anchor="middle" x="218.5" y="-118" font-family="Ubuntu Mono" font-size="10.00">SparseMatrix::reorderColumns</text>
</a>
</g>
</g>
<!-- Node1&#45;&gt;Node5 -->
<g id="edge4_Node000001_Node000005" class="edge">
<title>Node1&#45;&gt;Node5</title>
<g id="a_edge4_Node000001_Node000005"><a xlink:title=" ">
<path fill="none" stroke="#63b8ff" d="M100.05,-120.5C108.12,-120.5 116.71,-120.5 125.42,-120.5"/>
<polygon fill="#63b8ff" stroke="#63b8ff" points="125.69,-124 135.69,-120.5 125.69,-117 125.69,-124"/>
</a>
</g>
</g>
<!-- Node7 -->
<g id="Node000007" class="node">
<title>Node7</title>
<g id="a_Node000007"><a xlink:href="classSparseMatrix.html#a0dddc631322ef8cae33f24b770bafe60" target="_top" xlink:title=" ">
<polygon fill="white" stroke="#666666" points="269.5,-93 167.5,-93 167.5,-74 269.5,-74 269.5,-93"/>
<text text-anchor="middle" x="218.5" y="-81" font-family="Ubuntu Mono" font-size="10.00">SparseMatrix::set</text>
</a>
</g>
</g>
<!-- Node1&#45;&gt;Node7 -->
<g id="edge6_Node000001_Node000007" class="edge">
<title>Node1&#45;&gt;Node7</title>
<g id="a_edge6_Node000001_Node000007"><a xlink:title=" ">
<path fill="none" stroke="#63b8ff" d="M93.88,-110.97C115.45,-106.18 141.79,-100.32 164.61,-95.25"/>
<polygon fill="#63b8ff" stroke="#63b8ff" points="165.48,-98.65 174.48,-93.06 163.96,-91.81 165.48,-98.65"/>
</a>
</g>
</g>
<!-- Node8 -->
<g id="Node000008" class="node">
<title>Node8</title>
<g id="a_Node000008"><a xlink:href="classSparseMatrix.html#a41427e7c9dc8a9d9a863fcca7987107d" target="_top" xlink:title=" ">
<polygon fill="white" stroke="#666666" points="294.5,-56 142.5,-56 142.5,-37 294.5,-37 294.5,-56"/>
<text text-anchor="middle" x="218.5" y="-44" font-family="Ubuntu Mono" font-size="10.00">SparseMatrix::SparseMatrix</text>
</a>
</g>
</g>
<!-- Node1&#45;&gt;Node8 -->
<g id="edge7_Node000001_Node000008" class="edge">
<title>Node1&#45;&gt;Node8</title>
<g id="a_edge7_Node000001_Node000008"><a xlink:title=" ">
<path fill="none" stroke="#63b8ff" d="M62.91,-110.87C78.7,-98.57 107.85,-77.46 136,-65.5 141.88,-63 148.14,-60.8 154.49,-58.87"/>
<polygon fill="#63b8ff" stroke="#63b8ff" points="155.8,-62.14 164.48,-56.05 153.9,-55.4 155.8,-62.14"/>
</a>
</g>
</g>
<!-- Node9 -->
<g id="Node000009" class="node">
<title>Node9</title>
<g id="a_Node000009"><a xlink:href="classSparseMatrix.html#abd7817874559248caf8bd3fdac8c242f" target="_top" xlink:title=" ">
<polygon fill="white" stroke="#666666" points="286,-19 151,-19 151,0 286,0 286,-19"/>
<text text-anchor="middle" x="218.5" y="-7" font-family="Ubuntu Mono" font-size="10.00">SparseMatrix::transpose</text>
</a>
</g>
</g>
<!-- Node1&#45;&gt;Node9 -->
<g id="edge9_Node000001_Node000009" class="edge">
<title>Node1&#45;&gt;Node9</title>
<g id="a_edge9_Node000001_Node000009"><a xlink:title=" ">
<path fill="none" stroke="#63b8ff" d="M56.94,-110.95C69.22,-92.04 99.35,-49.83 136,-28.5 139.85,-26.26 143.94,-24.29 148.17,-22.54"/>
<polygon fill="#63b8ff" stroke="#63b8ff" points="149.41,-25.82 157.59,-19.09 146.99,-19.25 149.41,-25.82"/>
</a>
</g>
</g>
<!-- Node6 -->
<g id="Node000006" class="node">
<title>Node6</title>
<g id="a_Node000006"><a xlink:href="classSparseMatrix.html#a6ceeff27e7ff6df253e88f3c6a24f820" target="_top" xlink:title=" ">
<polygon fill="white" stroke="#666666" points="459,-93 337,-93 337,-74 459,-74 459,-93"/>
<text text-anchor="middle" x="398" y="-81" font-family="Ubuntu Mono" font-size="10.00">SparseMatrix::setSize</text>
</a>
</g>
</g>
<!-- Node5&#45;&gt;Node6 -->
<g id="edge5_Node000005_Node000006" class="edge">
<title>Node5&#45;&gt;Node6</title>
<g id="a_edge5_Node000005_Node000006"><a xlink:title=" ">
<path fill="none" stroke="#63b8ff" d="M265.21,-110.97C288.41,-106.14 316.79,-100.22 341.27,-95.12"/>
<polygon fill="#63b8ff" stroke="#63b8ff" points="342.06,-98.53 351.14,-93.06 340.63,-91.67 342.06,-98.53"/>
</a>
</g>
</g>
<!-- Node8&#45;&gt;Node6 -->
<g id="edge8_Node000008_Node000006" class="edge">
<title>Node8&#45;&gt;Node6</title>
<g id="a_edge8_Node000008_Node000006"><a xlink:title=" ">
<path fill="none" stroke="#63b8ff" d="M265.21,-56.03C288.41,-60.86 316.79,-66.78 341.27,-71.88"/>
<polygon fill="#63b8ff" stroke="#63b8ff" points="340.63,-75.33 351.14,-73.94 342.06,-68.47 340.63,-75.33"/>
</a>
</g>
</g>
</g>
</svg>
</svg>

<style type='text/css'>
<![CDATA[
[data-mouse-over-selected='false'] { opacity: 0.7; }
[data-mouse-over-selected='true']  { opacity: 1.0; }
]]>
</style>
<script type="application/ecmascript"><![CDATA[
document.addEventListener('DOMContentLoaded', (event) => {
  highlightEdges();
  highlightAdjacentNodes();
});
]]></script>
</svg>
