<?xml version="1.0" encoding="UTF-8" standalone="no"?>
<!DOCTYPE svg PUBLIC "-//W3C//DTD SVG 1.1//EN"
 "http://www.w3.org/Graphics/SVG/1.1/DTD/svg11.dtd">
<!-- Generated by graphviz version 2.43.0 (0)
 -->
<!-- Title: testChopPath Pages: 1 -->
<svg width="350pt" height="64pt"
 viewBox="0.00 0.00 350.00 64.00" xmlns="http://www.w3.org/2000/svg" xmlns:xlink="http://www.w3.org/1999/xlink">
<g id="graph0" class="graph" transform="scale(1 1) rotate(0) translate(4 60)">
<title>testChopPath</title>
<!-- Node1 -->
<g id="Node000001" class="node">
<title>Node1</title>
<g id="a_Node000001"><a xlink:title=" ">
<polygon fill="#999999" stroke="#666666" points="81,-37 0,-37 0,-18 81,-18 81,-37"/>
<text text-anchor="middle" x="40.5" y="-25" font-family="Ubuntu Mono" font-size="10.00">testChopPath</text>
</a>
</g>
</g>
<!-- Node2 -->
<g id="Node000002" class="node">
<title>Node2</title>
<g id="a_Node000002"><a xlink:href="classShell.html#a7dd1b50daa9b128a51b0de3ac3f6d44b" target="_top" xlink:title=" ">
<polygon fill="white" stroke="#666666" points="208,-37 117,-37 117,-18 208,-18 208,-37"/>
<text text-anchor="middle" x="162.5" y="-25" font-family="Ubuntu Mono" font-size="10.00">Shell::chopPath</text>
</a>
</g>
</g>
<!-- Node1&#45;&gt;Node2 -->
<g id="edge1_Node000001_Node000002" class="edge">
<title>Node1&#45;&gt;Node2</title>
<g id="a_edge1_Node000001_Node000002"><a xlink:title=" ">
<path fill="none" stroke="#63b8ff" d="M81.13,-27.5C89.37,-27.5 98.19,-27.5 106.87,-27.5"/>
<polygon fill="#63b8ff" stroke="#63b8ff" points="106.94,-31 116.94,-27.5 106.94,-24 106.94,-31"/>
</a>
</g>
</g>
<!-- Node3 -->
<g id="Node000003" class="node">
<title>Node3</title>
<g id="a_Node000003"><a xlink:href="classShell.html#a07a09e87e992b9ae39130fdaf8424dc6" target="_top" xlink:title=" ">
<polygon fill="white" stroke="#666666" points="342,-56 244,-56 244,-37 342,-37 342,-56"/>
<text text-anchor="middle" x="293" y="-44" font-family="Ubuntu Mono" font-size="10.00">Shell::chopString</text>
</a>
</g>
</g>
<!-- Node2&#45;&gt;Node3 -->
<g id="edge2_Node000002_Node000003" class="edge">
<title>Node2&#45;&gt;Node3</title>
<g id="a_edge2_Node000002_Node000003"><a xlink:title=" ">
<path fill="none" stroke="#63b8ff" d="M208.08,-34.09C216.42,-35.32 225.24,-36.63 233.92,-37.91"/>
<polygon fill="#63b8ff" stroke="#63b8ff" points="233.59,-41.4 243.99,-39.4 234.61,-34.48 233.59,-41.4"/>
</a>
</g>
</g>
<!-- Node4 -->
<g id="Node000004" class="node">
<title>Node4</title>
<g id="a_Node000004"><a xlink:href="Shell_8cpp.html#a801978f3b383b45f5ac430a62b8a4b62" target="_top" xlink:title=" ">
<polygon fill="white" stroke="#666666" points="332,-19 254,-19 254,0 332,0 332,-19"/>
<text text-anchor="middle" x="293" y="-7" font-family="Ubuntu Mono" font-size="10.00">extractIndex</text>
</a>
</g>
</g>
<!-- Node2&#45;&gt;Node4 -->
<g id="edge3_Node000002_Node000004" class="edge">
<title>Node2&#45;&gt;Node4</title>
<g id="a_edge3_Node000002_Node000004"><a xlink:title=" ">
<path fill="none" stroke="#63b8ff" d="M208.08,-21.25C219.63,-19.64 232.12,-17.89 243.84,-16.25"/>
<polygon fill="#63b8ff" stroke="#63b8ff" points="244.49,-19.69 253.91,-14.84 243.52,-12.76 244.49,-19.69"/>
</a>
</g>
</g>
</g>
</svg>
