<?xml version="1.0" encoding="UTF-8" standalone="no"?>
<!DOCTYPE svg PUBLIC "-//W3C//DTD SVG 1.1//EN"
 "http://www.w3.org/Graphics/SVG/1.1/DTD/svg11.dtd">
<!-- Generated by graphviz version 2.43.0 (0)
 -->
<!-- Title: /home/runner/work/mooseneuro.github.io/mooseneuro.github.io/docs/moose&#45;core/biophysics/testBiophysics.cpp Pages: 1 -->
<!--zoomable 225 -->

<svg id="main" version="1.1" xmlns="http://www.w3.org/2000/svg" xmlns:xlink="http://www.w3.org/1999/xlink" xml:space="preserve" onload="init(evt)">
<style type="text/css"><![CDATA[
.node, .edge {opacity: 0.7;}
.node.selected, .edge.selected {opacity: 1;}
.edge:hover path { stroke: red; }
.edge:hover polygon { stroke: red; fill: red; }
]]></style>

<defs>
  <circle id="rim" cx="0" cy="0" r="7"/>
  <circle id="rim2" cx="0" cy="0" r="3.5"/>
  <g id="zoomPlus">
    <use xlink:href="#rim" fill="#404040"><set attributeName="fill" to="#808080" begin="zoomplus.mouseover" end="zoomplus.mouseout"/></use>
    <path d="M-4,0h8M0,-4v8" fill="none" stroke="white" stroke-width="1.5" pointer-events="none"/>
  </g>
  <g id="zoomMin">
    <use xlink:href="#rim" fill="#404040"><set attributeName="fill" to="#808080" begin="zoomminus.mouseover" end="zoomminus.mouseout"/></use>
    <path d="M-4,0h8" fill="none" stroke="white" stroke-width="1.5" pointer-events="none"/>
  </g>
  <g id="arrowUp" transform="translate(30 24)">
    <use xlink:href="#rim"/>
    <path pointer-events="none" fill="none" stroke="white" stroke-width="1.5" d="M0,-3.0v7 M-2.5,-0.5L0,-3.0L2.5,-0.5"/>
  </g>
  <g id="arrowRight" transform="rotate(90) translate(36 -43)">
    <use xlink:href="#rim"/>
    <path pointer-events="none" fill="none" stroke="white" stroke-width="1.5" d="M0,-3.0v7 M-2.5,-0.5L0,-3.0L2.5,-0.5"/>
  </g>
  <g id="arrowDown" transform="rotate(180) translate(-30 -48)">
    <use xlink:href="#rim"/>
    <path pointer-events="none" fill="none" stroke="white" stroke-width="1.5" d="M0,-3.0v7 M-2.5,-0.5L0,-3.0L2.5,-0.5"/>
  </g>
  <g id="arrowLeft" transform="rotate(270) translate(-36 17)">
    <use xlink:href="#rim"/>
    <path pointer-events="none" fill="none" stroke="white" stroke-width="1.5" d="M0,-3.0v7 M-2.5,-0.5L0,-3.0L2.5,-0.5"/>
  </g>
  <g id="resetDef">
    <use xlink:href="#rim2" fill="#404040"><set attributeName="fill" to="#808080" begin="reset.mouseover" end="reset.mouseout"/></use>
  </g>
</defs>
<script type="application/ecmascript">
var viewWidth = 3835;
var viewHeight = 225;
var sectionId = 'dynsection-0';
</script>
<script type="application/ecmascript" xlink:href="svg.min.js"/>
<svg id="graph" class="graph">
<g id="viewport">
<title>/home/runner/work/mooseneuro.github.io/mooseneuro.github.io/docs/moose&#45;core/biophysics/testBiophysics.cpp</title>
<!-- Node1 -->
<g id="Node000001" class="node">
<title>Node1</title>
<g id="a_Node000001"><a xlink:title=" ">
<polygon fill="#999999" stroke="#666666" points="3564,-217 3346,-217 3346,-176 3564,-176 3564,-217"/>
<text text-anchor="start" x="3354" y="-205" font-family="Ubuntu Mono" font-size="10.00">/home/runner/work/mooseneuro.github.io</text>
<text text-anchor="start" x="3354" y="-194" font-family="Ubuntu Mono" font-size="10.00">/mooseneuro.github.io/docs/moose</text>
<text text-anchor="middle" x="3455" y="-183" font-family="Ubuntu Mono" font-size="10.00">&#45;core/biophysics/testBiophysics.cpp</text>
</a>
</g>
</g>
<!-- Node2 -->
<g id="Node000002" class="node">
<title>Node2</title>
<g id="a_Node000002"><a xlink:href="header_8h.html" target="_top" xlink:title=" ">
<polygon fill="white" stroke="#666666" points="1921.5,-134.5 1804.5,-134.5 1804.5,-115.5 1921.5,-115.5 1921.5,-134.5"/>
<text text-anchor="middle" x="1863" y="-122.5" font-family="Ubuntu Mono" font-size="10.00">../basecode/header.h</text>
</a>
</g>
</g>
<!-- Node1&#45;&gt;Node2 -->
<g id="edge1_Node000001_Node000002" class="edge">
<title>Node1&#45;&gt;Node2</title>
<g id="a_edge1_Node000001_Node000002"><a xlink:title=" ">
<path fill="none" stroke="#63b8ff" d="M3345.89,-190.74C3040.09,-177.39 2180.86,-139.88 1931.59,-128.99"/>
<polygon fill="#63b8ff" stroke="#63b8ff" points="1931.72,-125.5 1921.58,-128.56 1931.42,-132.49 1931.72,-125.5"/>
</a>
</g>
</g>
<!-- Node44 -->
<g id="Node000044" class="node">
<title>Node44</title>
<g id="a_Node000044"><a xlink:href="randnum_8h.html" target="_top" xlink:title=" ">
<polygon fill="white" stroke="#666666" points="3580.5,-134.5 3455.5,-134.5 3455.5,-115.5 3580.5,-115.5 3580.5,-134.5"/>
<text text-anchor="middle" x="3518" y="-122.5" font-family="Ubuntu Mono" font-size="10.00">../randnum/randnum.h</text>
</a>
</g>
</g>
<!-- Node1&#45;&gt;Node44 -->
<g id="edge44_Node000001_Node000044" class="edge">
<title>Node1&#45;&gt;Node44</title>
<g id="a_edge44_Node000001_Node000044"><a xlink:title=" ">
<path fill="none" stroke="#63b8ff" d="M3472.88,-175.77C3482.43,-165.24 3494.05,-152.42 3503.1,-142.43"/>
<polygon fill="#63b8ff" stroke="#63b8ff" points="3505.88,-144.58 3510.01,-134.82 3500.7,-139.88 3505.88,-144.58"/>
</a>
</g>
</g>
<!-- Node51 -->
<g id="Node000051" class="node">
<title>Node51</title>
<g id="a_Node000051"><a xlink:href="Shell_8h.html" target="_top" xlink:title=" ">
<polygon fill="white" stroke="#666666" points="925.5,-134.5 840.5,-134.5 840.5,-115.5 925.5,-115.5 925.5,-134.5"/>
<text text-anchor="middle" x="883" y="-122.5" font-family="Ubuntu Mono" font-size="10.00">../shell/Shell.h</text>
</a>
</g>
</g>
<!-- Node1&#45;&gt;Node51 -->
<g id="edge50_Node000001_Node000051" class="edge">
<title>Node1&#45;&gt;Node51</title>
<g id="a_edge50_Node000001_Node000051"><a xlink:title=" ">
<path fill="none" stroke="#63b8ff" d="M3345.72,-192.55C2903.36,-180.59 1254.1,-136.03 936.21,-127.44"/>
<polygon fill="#63b8ff" stroke="#63b8ff" points="935.99,-123.93 925.9,-127.16 935.8,-130.93 935.99,-123.93"/>
</a>
</g>
</g>
<!-- Node52 -->
<g id="Node000052" class="node">
<title>Node52</title>
<g id="a_Node000052"><a xlink:href="testing__macros_8hpp.html" target="_top" xlink:title=" ">
<polygon fill="#fff0f0" stroke="red" points="3437.5,-140 3346.5,-140 3346.5,-110 3437.5,-110 3437.5,-140"/>
<text text-anchor="start" x="3354.5" y="-128" font-family="Ubuntu Mono" font-size="10.00">../utility/testing</text>
<text text-anchor="middle" x="3392" y="-117" font-family="Ubuntu Mono" font-size="10.00">_macros.hpp</text>
</a>
</g>
</g>
<!-- Node1&#45;&gt;Node52 -->
<g id="edge52_Node000001_Node000052" class="edge">
<title>Node1&#45;&gt;Node52</title>
<g id="a_edge52_Node000001_Node000052"><a xlink:title=" ">
<path fill="none" stroke="#63b8ff" d="M3437.12,-175.77C3429.12,-166.95 3419.69,-156.54 3411.51,-147.53"/>
<polygon fill="#63b8ff" stroke="#63b8ff" points="3414.03,-145.1 3404.73,-140.04 3408.85,-149.8 3414.03,-145.1"/>
</a>
</g>
</g>
<!-- Node61 -->
<g id="Node000061" class="node">
<title>Node61</title>
<g id="a_Node000061"><a xlink:href="CompartmentBase_8h.html" target="_top" xlink:title=" ">
<polygon fill="white" stroke="#666666" points="3715.5,-134.5 3598.5,-134.5 3598.5,-115.5 3715.5,-115.5 3715.5,-134.5"/>
<text text-anchor="middle" x="3657" y="-122.5" font-family="Ubuntu Mono" font-size="10.00">CompartmentBase.h</text>
</a>
</g>
</g>
<!-- Node1&#45;&gt;Node61 -->
<g id="edge56_Node000001_Node000061" class="edge">
<title>Node1&#45;&gt;Node61</title>
<g id="a_edge56_Node000001_Node000061"><a xlink:title=" ">
<path fill="none" stroke="#63b8ff" d="M3511.81,-175.96C3547.45,-163.69 3592.25,-148.28 3622.58,-137.84"/>
<polygon fill="#63b8ff" stroke="#63b8ff" points="3623.97,-141.07 3632.28,-134.5 3621.69,-134.45 3623.97,-141.07"/>
</a>
</g>
</g>
<!-- Node62 -->
<g id="Node000062" class="node">
<title>Node62</title>
<g id="a_Node000062"><a xlink:href="Compartment_8h.html" target="_top" xlink:title=" ">
<polygon fill="white" stroke="#666666" points="3826.5,-134.5 3733.5,-134.5 3733.5,-115.5 3826.5,-115.5 3826.5,-134.5"/>
<text text-anchor="middle" x="3780" y="-122.5" font-family="Ubuntu Mono" font-size="10.00">Compartment.h</text>
</a>
</g>
</g>
<!-- Node1&#45;&gt;Node62 -->
<g id="edge57_Node000001_Node000062" class="edge">
<title>Node1&#45;&gt;Node62</title>
<g id="a_edge57_Node000001_Node000062"><a xlink:title=" ">
<path fill="none" stroke="#63b8ff" d="M3555.57,-175.98C3606.47,-165.81 3669.15,-152.84 3725,-140 3729.11,-139.06 3733.37,-138.04 3737.63,-136.99"/>
<polygon fill="#63b8ff" stroke="#63b8ff" points="3738.63,-140.35 3747.49,-134.54 3736.94,-133.56 3738.63,-140.35"/>
</a>
</g>
</g>
<!-- Node3 -->
<g id="Node000003" class="node">
<title>Node3</title>
<g id="a_Node000003"><a xlink:title=" ">
<polygon fill="#e0e0e0" stroke="#999999" points="1980.5,-74 1929.5,-74 1929.5,-55 1980.5,-55 1980.5,-74"/>
<text text-anchor="middle" x="1955" y="-62" font-family="Ubuntu Mono" font-size="10.00">math.h</text>
</a>
</g>
</g>
<!-- Node2&#45;&gt;Node3 -->
<g id="edge2_Node000002_Node000003" class="edge">
<title>Node2&#45;&gt;Node3</title>
<g id="a_edge2_Node000002_Node000003"><a xlink:title=" ">
<path fill="none" stroke="#63b8ff" d="M1876.57,-115.37C1891.39,-105.95 1915.33,-90.73 1932.86,-79.58"/>
<polygon fill="#63b8ff" stroke="#63b8ff" points="1934.81,-82.49 1941.37,-74.17 1931.05,-76.58 1934.81,-82.49"/>
</a>
</g>
</g>
<!-- Node4 -->
<g id="Node000004" class="node">
<title>Node4</title>
<g id="a_Node000004"><a xlink:title=" ">
<polygon fill="#e0e0e0" stroke="#999999" points="2063,-74 1999,-74 1999,-55 2063,-55 2063,-74"/>
<text text-anchor="middle" x="2031" y="-62" font-family="Ubuntu Mono" font-size="10.00">algorithm</text>
</a>
</g>
</g>
<!-- Node2&#45;&gt;Node4 -->
<g id="edge3_Node000002_Node000004" class="edge">
<title>Node2&#45;&gt;Node4</title>
<g id="a_edge3_Node000002_Node000004"><a xlink:title=" ">
<path fill="none" stroke="#63b8ff" d="M1887.43,-115.49C1916.29,-105.44 1964.5,-88.66 1997,-77.34"/>
<polygon fill="#63b8ff" stroke="#63b8ff" points="1998.25,-80.61 2006.54,-74.02 1995.95,-74 1998.25,-80.61"/>
</a>
</g>
</g>
<!-- Node5 -->
<g id="Node000005" class="node">
<title>Node5</title>
<g id="a_Node000005"><a xlink:title=" ">
<polygon fill="#e0e0e0" stroke="#999999" points="2128.5,-74 2081.5,-74 2081.5,-55 2128.5,-55 2128.5,-74"/>
<text text-anchor="middle" x="2105" y="-62" font-family="Ubuntu Mono" font-size="10.00">vector</text>
</a>
</g>
</g>
<!-- Node2&#45;&gt;Node5 -->
<g id="edge4_Node000002_Node000005" class="edge">
<title>Node2&#45;&gt;Node5</title>
<g id="a_edge4_Node000002_Node000005"><a xlink:title=" ">
<path fill="none" stroke="#63b8ff" d="M1899.67,-115.43C1939.48,-106.08 2005.19,-90.52 2071.44,-74.11"/>
<polygon fill="#63b8ff" stroke="#63b8ff" points="2072.36,-77.48 2081.22,-71.68 2070.67,-70.69 2072.36,-77.48"/>
</a>
</g>
</g>
<!-- Node6 -->
<g id="Node000006" class="node">
<title>Node6</title>
<g id="a_Node000006"><a xlink:title=" ">
<polygon fill="#e0e0e0" stroke="#999999" points="44,-74 0,-74 0,-55 44,-55 44,-74"/>
<text text-anchor="middle" x="22" y="-62" font-family="Ubuntu Mono" font-size="10.00">string</text>
</a>
</g>
</g>
<!-- Node2&#45;&gt;Node6 -->
<g id="edge5_Node000002_Node000006" class="edge">
<title>Node2&#45;&gt;Node6</title>
<g id="a_edge5_Node000002_Node000006"><a xlink:title=" ">
<path fill="none" stroke="#63b8ff" d="M1804.42,-123.22C1518.13,-119.28 271.62,-100.84 54.33,-73.66"/>
<polygon fill="#63b8ff" stroke="#63b8ff" points="54.6,-70.17 44.21,-72.28 53.65,-77.1 54.6,-70.17"/>
</a>
</g>
</g>
<!-- Node7 -->
<g id="Node000007" class="node">
<title>Node7</title>
<g id="a_Node000007"><a xlink:title=" ">
<polygon fill="#e0e0e0" stroke="#999999" points="2185,-74 2147,-74 2147,-55 2185,-55 2185,-74"/>
<text text-anchor="middle" x="2166" y="-62" font-family="Ubuntu Mono" font-size="10.00">map</text>
</a>
</g>
</g>
<!-- Node2&#45;&gt;Node7 -->
<g id="edge6_Node000002_Node000007" class="edge">
<title>Node2&#45;&gt;Node7</title>
<g id="a_edge6_Node000002_Node000007"><a xlink:title=" ">
<path fill="none" stroke="#63b8ff" d="M1920.81,-115.47C1974.56,-107.09 2056.97,-93.11 2137.05,-74"/>
<polygon fill="#63b8ff" stroke="#63b8ff" points="2137.9,-77.4 2146.8,-71.65 2136.26,-70.59 2137.9,-77.4"/>
</a>
</g>
</g>
<!-- Node8 -->
<g id="Node000008" class="node">
<title>Node8</title>
<g id="a_Node000008"><a xlink:title=" ">
<polygon fill="#e0e0e0" stroke="#999999" points="2296.5,-74 2203.5,-74 2203.5,-55 2296.5,-55 2296.5,-74"/>
<text text-anchor="middle" x="2250" y="-62" font-family="Ubuntu Mono" font-size="10.00">unordered_map</text>
</a>
</g>
</g>
<!-- Node2&#45;&gt;Node8 -->
<g id="edge7_Node000002_Node000008" class="edge">
<title>Node2&#45;&gt;Node8</title>
<g id="a_edge7_Node000002_Node000008"><a xlink:title=" ">
<path fill="none" stroke="#63b8ff" d="M1919.52,-115.47C1983.36,-105.84 2090.64,-89.65 2193.33,-74.1"/>
<polygon fill="#63b8ff" stroke="#63b8ff" points="2193.89,-77.56 2203.25,-72.6 2192.84,-70.64 2193.89,-77.56"/>
</a>
</g>
</g>
<!-- Node9 -->
<g id="Node000009" class="node">
<title>Node9</title>
<g id="a_Node000009"><a xlink:title=" ">
<polygon fill="#e0e0e0" stroke="#999999" points="3422,-19 3362,-19 3362,0 3422,0 3422,-19"/>
<text text-anchor="middle" x="3392" y="-7" font-family="Ubuntu Mono" font-size="10.00">iostream</text>
</a>
</g>
</g>
<!-- Node2&#45;&gt;Node9 -->
<g id="edge8_Node000002_Node000009" class="edge">
<title>Node2&#45;&gt;Node9</title>
<g id="a_edge8_Node000002_Node000009"><a xlink:title=" ">
<path fill="none" stroke="#63b8ff" d="M1921.83,-123.37C2170.68,-120.51 3130.1,-107.38 3261,-74 3279.3,-69.33 3282.04,-63.3 3299,-55 3321.04,-44.22 3346.15,-32.22 3364.72,-23.4"/>
<polygon fill="#63b8ff" stroke="#63b8ff" points="3366.24,-26.55 3373.78,-19.1 3363.24,-20.23 3366.24,-26.55"/>
</a>
</g>
</g>
<!-- Node10 -->
<g id="Node000010" class="node">
<title>Node10</title>
<g id="a_Node000010"><a xlink:title=" ">
<polygon fill="#e0e0e0" stroke="#999999" points="3364,-74 3308,-74 3308,-55 3364,-55 3364,-74"/>
<text text-anchor="middle" x="3336" y="-62" font-family="Ubuntu Mono" font-size="10.00">sstream</text>
</a>
</g>
</g>
<!-- Node2&#45;&gt;Node10 -->
<g id="edge9_Node000002_Node000010" class="edge">
<title>Node2&#45;&gt;Node10</title>
<g id="a_edge9_Node000002_Node000010"><a xlink:title=" ">
<path fill="none" stroke="#63b8ff" d="M1921.82,-123.24C2155.89,-120.01 3021.66,-106.09 3294,-74 3295.11,-73.87 3296.23,-73.72 3297.36,-73.57"/>
<polygon fill="#63b8ff" stroke="#63b8ff" points="3298.33,-76.96 3307.64,-71.9 3297.2,-70.05 3298.33,-76.96"/>
</a>
</g>
</g>
<!-- Node11 -->
<g id="Node000011" class="node">
<title>Node11</title>
<g id="a_Node000011"><a xlink:title=" ">
<polygon fill="#e0e0e0" stroke="#999999" points="819.5,-19 762.5,-19 762.5,0 819.5,0 819.5,-19"/>
<text text-anchor="middle" x="791" y="-7" font-family="Ubuntu Mono" font-size="10.00">typeinfo</text>
</a>
</g>
</g>
<!-- Node2&#45;&gt;Node11 -->
<g id="edge10_Node000002_Node000011" class="edge">
<title>Node2&#45;&gt;Node11</title>
<g id="a_edge10_Node000002_Node000011"><a xlink:title=" ">
<path fill="none" stroke="#63b8ff" d="M1804.33,-123.51C1583.99,-121.37 816.57,-111.25 781,-74 769.59,-62.05 774.72,-42.68 781.08,-28.47"/>
<polygon fill="#63b8ff" stroke="#63b8ff" points="784.37,-29.73 785.71,-19.22 778.1,-26.6 784.37,-29.73"/>
</a>
</g>
</g>
<!-- Node12 -->
<g id="Node000012" class="node">
<title>Node12</title>
<g id="a_Node000012"><a xlink:title=" ">
<polygon fill="#e0e0e0" stroke="#999999" points="2899,-19 2847,-19 2847,0 2899,0 2899,-19"/>
<text text-anchor="middle" x="2873" y="-7" font-family="Ubuntu Mono" font-size="10.00">cassert</text>
</a>
</g>
</g>
<!-- Node2&#45;&gt;Node12 -->
<g id="edge11_Node000002_Node000012" class="edge">
<title>Node2&#45;&gt;Node12</title>
<g id="a_edge11_Node000002_Node000012"><a xlink:title=" ">
<path fill="none" stroke="#63b8ff" d="M1921.89,-121.3C2043.68,-115.29 2319.41,-99.29 2410,-74 2428.57,-68.82 2430.46,-60.31 2449,-55 2588.03,-15.18 2761.83,-10.22 2836.33,-10.11"/>
<polygon fill="#63b8ff" stroke="#63b8ff" points="2836.58,-13.61 2846.59,-10.12 2836.59,-6.61 2836.58,-13.61"/>
</a>
</g>
</g>
<!-- Node13 -->
<g id="Node000013" class="node">
<title>Node13</title>
<g id="a_Node000013"><a xlink:href="doubleEq_8h.html" target="_top" xlink:title=" ">
<polygon fill="white" stroke="#666666" points="2528.5,-74 2457.5,-74 2457.5,-55 2528.5,-55 2528.5,-74"/>
<text text-anchor="middle" x="2493" y="-62" font-family="Ubuntu Mono" font-size="10.00">doubleEq.h</text>
</a>
</g>
</g>
<!-- Node2&#45;&gt;Node13 -->
<g id="edge12_Node000002_Node000013" class="edge">
<title>Node2&#45;&gt;Node13</title>
<g id="a_edge12_Node000002_Node000013"><a xlink:title=" ">
<path fill="none" stroke="#63b8ff" d="M1921.62,-120.55C2026.49,-114.02 2253.02,-98.29 2443,-74 2444.3,-73.83 2445.62,-73.66 2446.95,-73.47"/>
<polygon fill="#63b8ff" stroke="#63b8ff" points="2447.9,-76.87 2457.27,-71.94 2446.87,-69.95 2447.9,-76.87"/>
</a>
</g>
</g>
<!-- Node14 -->
<g id="Node000014" class="node">
<title>Node14</title>
<g id="a_Node000014"><a xlink:href="Id_8h.html" target="_top" xlink:title=" ">
<polygon fill="white" stroke="#666666" points="2581.5,-74 2546.5,-74 2546.5,-55 2581.5,-55 2581.5,-74"/>
<text text-anchor="middle" x="2564" y="-62" font-family="Ubuntu Mono" font-size="10.00">Id.h</text>
</a>
</g>
</g>
<!-- Node2&#45;&gt;Node14 -->
<g id="edge13_Node000002_Node000014" class="edge">
<title>Node2&#45;&gt;Node14</title>
<g id="a_edge13_Node000002_Node000014"><a xlink:title=" ">
<path fill="none" stroke="#63b8ff" d="M1921.87,-124.4C2038.25,-124.15 2305.77,-118.5 2536.34,-73.88"/>
<polygon fill="#63b8ff" stroke="#63b8ff" points="2537.11,-77.29 2546.25,-71.93 2535.76,-70.42 2537.11,-77.29"/>
</a>
</g>
</g>
<!-- Node15 -->
<g id="Node000015" class="node">
<title>Node15</title>
<g id="a_Node000015"><a xlink:href="ObjId_8h.html" target="_top" xlink:title=" ">
<polygon fill="white" stroke="#666666" points="2650.5,-74 2599.5,-74 2599.5,-55 2650.5,-55 2650.5,-74"/>
<text text-anchor="middle" x="2625" y="-62" font-family="Ubuntu Mono" font-size="10.00">ObjId.h</text>
</a>
</g>
</g>
<!-- Node2&#45;&gt;Node15 -->
<g id="edge14_Node000002_Node000015" class="edge">
<title>Node2&#45;&gt;Node15</title>
<g id="a_edge14_Node000002_Node000015"><a xlink:title=" ">
<path fill="none" stroke="#63b8ff" d="M1921.9,-123.47C2044.63,-121.6 2336.66,-113.19 2589.37,-73.98"/>
<polygon fill="#63b8ff" stroke="#63b8ff" points="2590.14,-77.4 2599.48,-72.39 2589.06,-70.49 2590.14,-77.4"/>
</a>
</g>
</g>
<!-- Node16 -->
<g id="Node000016" class="node">
<title>Node16</title>
<g id="a_Node000016"><a xlink:href="Cinfo_8h.html" target="_top" xlink:title=" ">
<polygon fill="white" stroke="#666666" points="2719.5,-74 2668.5,-74 2668.5,-55 2719.5,-55 2719.5,-74"/>
<text text-anchor="middle" x="2694" y="-62" font-family="Ubuntu Mono" font-size="10.00">Cinfo.h</text>
</a>
</g>
</g>
<!-- Node2&#45;&gt;Node16 -->
<g id="edge15_Node000002_Node000016" class="edge">
<title>Node2&#45;&gt;Node16</title>
<g id="a_edge15_Node000002_Node000016"><a xlink:title=" ">
<path fill="none" stroke="#63b8ff" d="M1921.89,-123.96C2052.95,-123.1 2378.59,-116.58 2658.54,-73.94"/>
<polygon fill="#63b8ff" stroke="#63b8ff" points="2659.13,-77.39 2668.48,-72.41 2658.07,-70.47 2659.13,-77.39"/>
</a>
</g>
</g>
<!-- Node17 -->
<g id="Node000017" class="node">
<title>Node17</title>
<g id="a_Node000017"><a xlink:href="basecode_2Finfo_8h.html" target="_top" xlink:title=" ">
<polygon fill="white" stroke="#666666" points="2788,-74 2738,-74 2738,-55 2788,-55 2788,-74"/>
<text text-anchor="middle" x="2763" y="-62" font-family="Ubuntu Mono" font-size="10.00">Finfo.h</text>
</a>
</g>
</g>
<!-- Node2&#45;&gt;Node17 -->
<g id="edge16_Node000002_Node000017" class="edge">
<title>Node2&#45;&gt;Node17</title>
<g id="a_edge16_Node000002_Node000017"><a xlink:title=" ">
<path fill="none" stroke="#63b8ff" d="M1921.68,-124.39C2060.53,-124.49 2420.06,-120.01 2727.85,-73.86"/>
<polygon fill="#63b8ff" stroke="#63b8ff" points="2728.49,-77.3 2737.86,-72.34 2727.44,-70.38 2728.49,-77.3"/>
</a>
</g>
</g>
<!-- Node18 -->
<g id="Node000018" class="node">
<title>Node18</title>
<g id="a_Node000018"><a xlink:href="DestFinfo_8h.html" target="_top" xlink:title=" ">
<polygon fill="white" stroke="#666666" points="2878,-74 2806,-74 2806,-55 2878,-55 2878,-74"/>
<text text-anchor="middle" x="2842" y="-62" font-family="Ubuntu Mono" font-size="10.00">DestFinfo.h</text>
</a>
</g>
</g>
<!-- Node2&#45;&gt;Node18 -->
<g id="edge17_Node000002_Node000018" class="edge">
<title>Node2&#45;&gt;Node18</title>
<g id="a_edge17_Node000002_Node000018"><a xlink:title=" ">
<path fill="none" stroke="#63b8ff" d="M1921.7,-123.57C2067.8,-121.91 2459.57,-113.9 2795.3,-74.03"/>
<polygon fill="#63b8ff" stroke="#63b8ff" points="2796.2,-77.45 2805.72,-72.78 2795.37,-70.5 2796.2,-77.45"/>
</a>
</g>
</g>
<!-- Node19 -->
<g id="Node000019" class="node">
<title>Node19</title>
<g id="a_Node000019"><a xlink:href="ProcInfo_8h.html" target="_top" xlink:title=" ">
<polygon fill="white" stroke="#666666" points="2961.5,-74 2896.5,-74 2896.5,-55 2961.5,-55 2961.5,-74"/>
<text text-anchor="middle" x="2929" y="-62" font-family="Ubuntu Mono" font-size="10.00">ProcInfo.h</text>
</a>
</g>
</g>
<!-- Node2&#45;&gt;Node19 -->
<g id="edge18_Node000002_Node000019" class="edge">
<title>Node2&#45;&gt;Node19</title>
<g id="a_edge18_Node000002_Node000019"><a xlink:title=" ">
<path fill="none" stroke="#63b8ff" d="M1921.57,-124.22C2077.18,-124.16 2513.86,-119.68 2885.9,-73.92"/>
<polygon fill="#63b8ff" stroke="#63b8ff" points="2886.57,-77.36 2896.06,-72.65 2885.71,-70.41 2886.57,-77.36"/>
</a>
</g>
</g>
<!-- Node20 -->
<g id="Node000020" class="node">
<title>Node20</title>
<g id="a_Node000020"><a xlink:href="MsgFuncBinding_8h.html" target="_top" xlink:title=" ">
<polygon fill="white" stroke="#666666" points="3084.5,-74 2979.5,-74 2979.5,-55 3084.5,-55 3084.5,-74"/>
<text text-anchor="middle" x="3032" y="-62" font-family="Ubuntu Mono" font-size="10.00">MsgFuncBinding.h</text>
</a>
</g>
</g>
<!-- Node2&#45;&gt;Node20 -->
<g id="edge19_Node000002_Node000020" class="edge">
<title>Node2&#45;&gt;Node20</title>
<g id="a_edge19_Node000002_Node000020"><a xlink:title=" ">
<path fill="none" stroke="#63b8ff" d="M1921.69,-123.28C2085.71,-120.85 2562.96,-110.98 2969.28,-74.07"/>
<polygon fill="#63b8ff" stroke="#63b8ff" points="2969.82,-77.53 2979.46,-73.14 2969.19,-70.56 2969.82,-77.53"/>
</a>
</g>
</g>
<!-- Node21 -->
<g id="Node000021" class="node">
<title>Node21</title>
<g id="a_Node000021"><a xlink:href="Msg_8h.html" target="_top" xlink:title=" ">
<polygon fill="white" stroke="#666666" points="3181.5,-74 3102.5,-74 3102.5,-55 3181.5,-55 3181.5,-74"/>
<text text-anchor="middle" x="3142" y="-62" font-family="Ubuntu Mono" font-size="10.00">../msg/Msg.h</text>
</a>
</g>
</g>
<!-- Node2&#45;&gt;Node21 -->
<g id="edge20_Node000002_Node000021" class="edge">
<title>Node2&#45;&gt;Node21</title>
<g id="a_edge20_Node000002_Node000021"><a xlink:title=" ">
<path fill="none" stroke="#63b8ff" d="M1921.52,-124.41C2097.41,-125.06 2636.8,-122.71 3092.18,-74.05"/>
<polygon fill="#63b8ff" stroke="#63b8ff" points="3092.68,-77.52 3102.25,-72.96 3091.93,-70.56 3092.68,-77.52"/>
</a>
</g>
</g>
<!-- Node22 -->
<g id="Node000022" class="node">
<title>Node22</title>
<g id="a_Node000022"><a xlink:href="Dinfo_8h.html" target="_top" xlink:title=" ">
<polygon fill="white" stroke="#666666" points="3252,-74 3200,-74 3200,-55 3252,-55 3252,-74"/>
<text text-anchor="middle" x="3226" y="-62" font-family="Ubuntu Mono" font-size="10.00">Dinfo.h</text>
</a>
</g>
</g>
<!-- Node2&#45;&gt;Node22 -->
<g id="edge21_Node000002_Node000022" class="edge">
<title>Node2&#45;&gt;Node22</title>
<g id="a_edge21_Node000002_Node000022"><a xlink:title=" ">
<path fill="none" stroke="#63b8ff" d="M1921.76,-123.35C2142.15,-120.69 2920.37,-109.08 3189.6,-73.85"/>
<polygon fill="#63b8ff" stroke="#63b8ff" points="3190.3,-77.29 3199.74,-72.48 3189.36,-70.35 3190.3,-77.29"/>
</a>
</g>
</g>
<!-- Node23 -->
<g id="Node000023" class="node">
<title>Node23</title>
<g id="a_Node000023"><a xlink:href="MsgDigest_8h.html" target="_top" xlink:title=" ">
<polygon fill="white" stroke="#666666" points="139.5,-74 62.5,-74 62.5,-55 139.5,-55 139.5,-74"/>
<text text-anchor="middle" x="101" y="-62" font-family="Ubuntu Mono" font-size="10.00">MsgDigest.h</text>
</a>
</g>
</g>
<!-- Node2&#45;&gt;Node23 -->
<g id="edge22_Node000002_Node000023" class="edge">
<title>Node2&#45;&gt;Node23</title>
<g id="a_edge22_Node000002_Node000023"><a xlink:title=" ">
<path fill="none" stroke="#63b8ff" d="M1804.46,-123.44C1545.57,-120.8 501.17,-108.25 149.89,-73.88"/>
<polygon fill="#63b8ff" stroke="#63b8ff" points="150,-70.37 139.7,-72.85 149.3,-77.34 150,-70.37"/>
</a>
</g>
</g>
<!-- Node24 -->
<g id="Node000024" class="node">
<title>Node24</title>
<g id="a_Node000024"><a xlink:href="Element_8h.html" target="_top" xlink:title=" ">
<polygon fill="white" stroke="#666666" points="224,-74 158,-74 158,-55 224,-55 224,-74"/>
<text text-anchor="middle" x="191" y="-62" font-family="Ubuntu Mono" font-size="10.00">Element.h</text>
</a>
</g>
</g>
<!-- Node2&#45;&gt;Node24 -->
<g id="edge23_Node000002_Node000024" class="edge">
<title>Node2&#45;&gt;Node24</title>
<g id="a_edge23_Node000002_Node000024"><a xlink:title=" ">
<path fill="none" stroke="#63b8ff" d="M1804.36,-123.53C1553.3,-121.32 567.1,-110.5 234.51,-73.93"/>
<polygon fill="#63b8ff" stroke="#63b8ff" points="234.72,-70.43 224.39,-72.79 233.93,-77.39 234.72,-70.43"/>
</a>
</g>
</g>
<!-- Node25 -->
<g id="Node000025" class="node">
<title>Node25</title>
<g id="a_Node000025"><a xlink:href="DataElement_8h.html" target="_top" xlink:title=" ">
<polygon fill="white" stroke="#666666" points="331.5,-74 242.5,-74 242.5,-55 331.5,-55 331.5,-74"/>
<text text-anchor="middle" x="287" y="-62" font-family="Ubuntu Mono" font-size="10.00">DataElement.h</text>
</a>
</g>
</g>
<!-- Node2&#45;&gt;Node25 -->
<g id="edge24_Node000002_Node000025" class="edge">
<title>Node2&#45;&gt;Node25</title>
<g id="a_edge24_Node000002_Node000025"><a xlink:title=" ">
<path fill="none" stroke="#63b8ff" d="M1804.19,-123.06C1563.6,-119.08 652.75,-102.47 342.12,-74.06"/>
<polygon fill="#63b8ff" stroke="#63b8ff" points="342.05,-70.54 331.77,-73.09 341.4,-77.51 342.05,-70.54"/>
</a>
</g>
</g>
<!-- Node26 -->
<g id="Node000026" class="node">
<title>Node26</title>
<g id="a_Node000026"><a xlink:href="GlobalDataElement_8h.html" target="_top" xlink:title=" ">
<polygon fill="white" stroke="#666666" points="470.5,-74 349.5,-74 349.5,-55 470.5,-55 470.5,-74"/>
<text text-anchor="middle" x="410" y="-62" font-family="Ubuntu Mono" font-size="10.00">GlobalDataElement.h</text>
</a>
</g>
</g>
<!-- Node2&#45;&gt;Node26 -->
<g id="edge25_Node000002_Node000026" class="edge">
<title>Node2&#45;&gt;Node26</title>
<g id="a_edge25_Node000002_Node000026"><a xlink:title=" ">
<path fill="none" stroke="#63b8ff" d="M1804.21,-123.69C1614.23,-122.31 999.49,-114.83 480.86,-74.08"/>
<polygon fill="#63b8ff" stroke="#63b8ff" points="480.8,-70.56 470.55,-73.26 480.24,-77.54 480.8,-70.56"/>
</a>
</g>
</g>
<!-- Node27 -->
<g id="Node000027" class="node">
<title>Node27</title>
<g id="a_Node000027"><a xlink:href="LocalDataElement_8h.html" target="_top" xlink:title=" ">
<polygon fill="white" stroke="#666666" points="603.5,-74 488.5,-74 488.5,-55 603.5,-55 603.5,-74"/>
<text text-anchor="middle" x="546" y="-62" font-family="Ubuntu Mono" font-size="10.00">LocalDataElement.h</text>
</a>
</g>
</g>
<!-- Node2&#45;&gt;Node27 -->
<g id="edge26_Node000002_Node000027" class="edge">
<title>Node2&#45;&gt;Node27</title>
<g id="a_edge26_Node000002_Node000027"><a xlink:title=" ">
<path fill="none" stroke="#63b8ff" d="M1804.32,-123.45C1626.66,-121.4 1078.87,-112.26 613.99,-73.99"/>
<polygon fill="#63b8ff" stroke="#63b8ff" points="613.97,-70.48 603.71,-73.14 613.39,-77.46 613.97,-70.48"/>
</a>
</g>
</g>
<!-- Node28 -->
<g id="Node000028" class="node">
<title>Node28</title>
<g id="a_Node000028"><a xlink:href="Eref_8h.html" target="_top" xlink:title=" ">
<polygon fill="white" stroke="#666666" points="666,-74 622,-74 622,-55 666,-55 666,-74"/>
<text text-anchor="middle" x="644" y="-62" font-family="Ubuntu Mono" font-size="10.00">Eref.h</text>
</a>
</g>
</g>
<!-- Node2&#45;&gt;Node28 -->
<g id="edge27_Node000002_Node000028" class="edge">
<title>Node2&#45;&gt;Node28</title>
<g id="a_edge27_Node000002_Node000028"><a xlink:title=" ">
<path fill="none" stroke="#63b8ff" d="M1804.45,-123.28C1599.78,-120.5 916.16,-108.9 676.28,-73.77"/>
<polygon fill="#63b8ff" stroke="#63b8ff" points="676.63,-70.28 666.22,-72.24 675.58,-77.2 676.63,-70.28"/>
</a>
</g>
</g>
<!-- Node29 -->
<g id="Node000029" class="node">
<title>Node29</title>
<g id="a_Node000029"><a xlink:href="Conv_8h.html" target="_top" xlink:title=" ">
<polygon fill="#fff0f0" stroke="red" points="734,-74 684,-74 684,-55 734,-55 734,-74"/>
<text text-anchor="middle" x="709" y="-62" font-family="Ubuntu Mono" font-size="10.00">Conv.h</text>
</a>
</g>
</g>
<!-- Node2&#45;&gt;Node29 -->
<g id="edge28_Node000002_Node000029" class="edge">
<title>Node2&#45;&gt;Node29</title>
<g id="a_edge28_Node000002_Node000029"><a xlink:title=" ">
<path fill="none" stroke="#63b8ff" d="M1804.35,-122.69C1605.13,-118.01 955.27,-101.04 748,-74 746.72,-73.83 745.43,-73.65 744.12,-73.44"/>
<polygon fill="#63b8ff" stroke="#63b8ff" points="744.53,-69.96 734.07,-71.62 743.28,-76.85 744.53,-69.96"/>
</a>
</g>
</g>
<!-- Node31 -->
<g id="Node000031" class="node">
<title>Node31</title>
<g id="a_Node000031"><a xlink:href="SrcFinfo_8h.html" target="_top" xlink:title=" ">
<polygon fill="white" stroke="#666666" points="1693.5,-19 1628.5,-19 1628.5,0 1693.5,0 1693.5,-19"/>
<text text-anchor="middle" x="1661" y="-7" font-family="Ubuntu Mono" font-size="10.00">SrcFinfo.h</text>
</a>
</g>
</g>
<!-- Node2&#45;&gt;Node31 -->
<g id="edge29_Node000002_Node000031" class="edge">
<title>Node2&#45;&gt;Node31</title>
<g id="a_edge29_Node000002_Node000031"><a xlink:title=" ">
<path fill="none" stroke="#63b8ff" d="M1804.35,-122.86C1612.04,-118.82 1011.23,-103.88 983,-74 977.2,-67.86 977.23,-61.16 983,-55 1026.36,-8.7 1475.59,-8.79 1617.97,-10"/>
<polygon fill="#63b8ff" stroke="#63b8ff" points="1618.04,-13.5 1628.07,-10.09 1618.1,-6.5 1618.04,-13.5"/>
</a>
</g>
</g>
<!-- Node32 -->
<g id="Node000032" class="node">
<title>Node32</title>
<g id="a_Node000032"><a xlink:href="OpFuncBase_8h.html" target="_top" xlink:title=" ">
<polygon fill="white" stroke="#666666" points="2401,-74 2315,-74 2315,-55 2401,-55 2401,-74"/>
<text text-anchor="middle" x="2358" y="-62" font-family="Ubuntu Mono" font-size="10.00">OpFuncBase.h</text>
</a>
</g>
</g>
<!-- Node2&#45;&gt;Node32 -->
<g id="edge30_Node000002_Node000032" class="edge">
<title>Node2&#45;&gt;Node32</title>
<g id="a_edge30_Node000002_Node000032"><a xlink:title=" ">
<path fill="none" stroke="#63b8ff" d="M1921.52,-118.33C2004.41,-110.09 2161.01,-93.76 2304.58,-74.13"/>
<polygon fill="#63b8ff" stroke="#63b8ff" points="2305.47,-77.55 2314.89,-72.72 2304.51,-70.61 2305.47,-77.55"/>
</a>
</g>
</g>
<!-- Node33 -->
<g id="Node000033" class="node">
<title>Node33</title>
<g id="a_Node000033"><a xlink:href="HopFunc_8h.html" target="_top" xlink:title=" ">
<polygon fill="white" stroke="#666666" points="936,-74 868,-74 868,-55 936,-55 936,-74"/>
<text text-anchor="middle" x="902" y="-62" font-family="Ubuntu Mono" font-size="10.00">HopFunc.h</text>
</a>
</g>
</g>
<!-- Node2&#45;&gt;Node33 -->
<g id="edge32_Node000002_Node000033" class="edge">
<title>Node2&#45;&gt;Node33</title>
<g id="a_edge32_Node000002_Node000033"><a xlink:title=" ">
<path fill="none" stroke="#63b8ff" d="M1804.31,-123.23C1659.03,-120.81 1271.11,-111.09 950,-74 948.72,-73.85 947.43,-73.69 946.12,-73.52"/>
<polygon fill="#63b8ff" stroke="#63b8ff" points="946.41,-70.03 936.01,-72.05 945.4,-76.95 946.41,-70.03"/>
</a>
</g>
</g>
<!-- Node34 -->
<g id="Node000034" class="node">
<title>Node34</title>
<g id="a_Node000034"><a xlink:href="SetGet_8h.html" target="_top" xlink:title=" ">
<polygon fill="white" stroke="#666666" points="849.5,-74 790.5,-74 790.5,-55 849.5,-55 849.5,-74"/>
<text text-anchor="middle" x="820" y="-62" font-family="Ubuntu Mono" font-size="10.00">SetGet.h</text>
</a>
</g>
</g>
<!-- Node2&#45;&gt;Node34 -->
<g id="edge33_Node000002_Node000034" class="edge">
<title>Node2&#45;&gt;Node34</title>
<g id="a_edge33_Node000002_Node000034"><a xlink:title=" ">
<path fill="none" stroke="#63b8ff" d="M1804.41,-124.44C1650.77,-124.89 1223.62,-121.5 859.66,-73.82"/>
<polygon fill="#63b8ff" stroke="#63b8ff" points="860.09,-70.35 849.72,-72.51 859.18,-77.29 860.09,-70.35"/>
</a>
</g>
</g>
<!-- Node35 -->
<g id="Node000035" class="node">
<title>Node35</title>
<g id="a_Node000035"><a xlink:href="OpFunc_8h.html" target="_top" xlink:title=" ">
<polygon fill="white" stroke="#666666" points="1054,-74 992,-74 992,-55 1054,-55 1054,-74"/>
<text text-anchor="middle" x="1023" y="-62" font-family="Ubuntu Mono" font-size="10.00">OpFunc.h</text>
</a>
</g>
</g>
<!-- Node2&#45;&gt;Node35 -->
<g id="edge35_Node000002_Node000035" class="edge">
<title>Node2&#45;&gt;Node35</title>
<g id="a_edge35_Node000002_Node000035"><a xlink:title=" ">
<path fill="none" stroke="#63b8ff" d="M1804.49,-123.28C1673.48,-121.04 1346.53,-111.93 1064.38,-73.98"/>
<polygon fill="#63b8ff" stroke="#63b8ff" points="1064.75,-70.5 1054.37,-72.62 1063.8,-77.44 1064.75,-70.5"/>
</a>
</g>
</g>
<!-- Node36 -->
<g id="Node000036" class="node">
<title>Node36</title>
<g id="a_Node000036"><a xlink:href="EpFunc_8h.html" target="_top" xlink:title=" ">
<polygon fill="white" stroke="#666666" points="1132,-74 1072,-74 1072,-55 1132,-55 1132,-74"/>
<text text-anchor="middle" x="1102" y="-62" font-family="Ubuntu Mono" font-size="10.00">EpFunc.h</text>
</a>
</g>
</g>
<!-- Node2&#45;&gt;Node36 -->
<g id="edge36_Node000002_Node000036" class="edge">
<title>Node2&#45;&gt;Node36</title>
<g id="a_edge36_Node000002_Node000036"><a xlink:title=" ">
<path fill="none" stroke="#63b8ff" d="M1804.2,-122.82C1682.38,-119.75 1393.48,-109.24 1142.21,-73.95"/>
<polygon fill="#63b8ff" stroke="#63b8ff" points="1142.55,-70.47 1132.15,-72.53 1141.56,-77.4 1142.55,-70.47"/>
</a>
</g>
</g>
<!-- Node37 -->
<g id="Node000037" class="node">
<title>Node37</title>
<g id="a_Node000037"><a xlink:href="ProcOpFunc_8h.html" target="_top" xlink:title=" ">
<polygon fill="white" stroke="#666666" points="1233.5,-74 1150.5,-74 1150.5,-55 1233.5,-55 1233.5,-74"/>
<text text-anchor="middle" x="1192" y="-62" font-family="Ubuntu Mono" font-size="10.00">ProcOpFunc.h</text>
</a>
</g>
</g>
<!-- Node2&#45;&gt;Node37 -->
<g id="edge37_Node000002_Node000037" class="edge">
<title>Node2&#45;&gt;Node37</title>
<g id="a_edge37_Node000002_Node000037"><a xlink:title=" ">
<path fill="none" stroke="#63b8ff" d="M1804.17,-120.99C1695.43,-115.06 1455.45,-100.2 1243.76,-74.12"/>
<polygon fill="#63b8ff" stroke="#63b8ff" points="1244.06,-70.63 1233.7,-72.87 1243.19,-77.58 1244.06,-70.63"/>
</a>
</g>
</g>
<!-- Node38 -->
<g id="Node000038" class="node">
<title>Node38</title>
<g id="a_Node000038"><a xlink:href="ValueFinfo_8h.html" target="_top" xlink:title=" ">
<polygon fill="white" stroke="#666666" points="1328.5,-74 1251.5,-74 1251.5,-55 1328.5,-55 1328.5,-74"/>
<text text-anchor="middle" x="1290" y="-62" font-family="Ubuntu Mono" font-size="10.00">ValueFinfo.h</text>
</a>
</g>
</g>
<!-- Node2&#45;&gt;Node38 -->
<g id="edge38_Node000002_Node000038" class="edge">
<title>Node2&#45;&gt;Node38</title>
<g id="a_edge38_Node000002_Node000038"><a xlink:title=" ">
<path fill="none" stroke="#63b8ff" d="M1804.44,-120.05C1708.96,-113.26 1513.65,-97.88 1338.84,-74.15"/>
<polygon fill="#63b8ff" stroke="#63b8ff" points="1339.07,-70.65 1328.69,-72.76 1338.12,-77.59 1339.07,-70.65"/>
</a>
</g>
</g>
<!-- Node39 -->
<g id="Node000039" class="node">
<title>Node39</title>
<g id="a_Node000039"><a xlink:href="LookupValueFinfo_8h.html" target="_top" xlink:title=" ">
<polygon fill="white" stroke="#666666" points="1457.5,-74 1346.5,-74 1346.5,-55 1457.5,-55 1457.5,-74"/>
<text text-anchor="middle" x="1402" y="-62" font-family="Ubuntu Mono" font-size="10.00">LookupValueFinfo.h</text>
</a>
</g>
</g>
<!-- Node2&#45;&gt;Node39 -->
<g id="edge39_Node000002_Node000039" class="edge">
<title>Node2&#45;&gt;Node39</title>
<g id="a_edge39_Node000002_Node000039"><a xlink:title=" ">
<path fill="none" stroke="#63b8ff" d="M1804.46,-116.75C1729.05,-107.39 1593.6,-90.48 1468.02,-74.26"/>
<polygon fill="#63b8ff" stroke="#63b8ff" points="1468.21,-70.75 1457.84,-72.94 1467.31,-77.69 1468.21,-70.75"/>
</a>
</g>
</g>
<!-- Node40 -->
<g id="Node000040" class="node">
<title>Node40</title>
<g id="a_Node000040"><a xlink:href="SharedFinfo_8h.html" target="_top" xlink:title=" ">
<polygon fill="white" stroke="#666666" points="1558.5,-74 1475.5,-74 1475.5,-55 1558.5,-55 1558.5,-74"/>
<text text-anchor="middle" x="1517" y="-62" font-family="Ubuntu Mono" font-size="10.00">SharedFinfo.h</text>
</a>
</g>
</g>
<!-- Node2&#45;&gt;Node40 -->
<g id="edge40_Node000002_Node000040" class="edge">
<title>Node2&#45;&gt;Node40</title>
<g id="a_edge40_Node000002_Node000040"><a xlink:title=" ">
<path fill="none" stroke="#63b8ff" d="M1812.46,-115.48C1755.6,-105.89 1660.2,-89.79 1568.72,-74.29"/>
<polygon fill="#63b8ff" stroke="#63b8ff" points="1569.19,-70.82 1558.74,-72.6 1568.02,-77.72 1569.19,-70.82"/>
</a>
</g>
</g>
<!-- Node41 -->
<g id="Node000041" class="node">
<title>Node41</title>
<g id="a_Node000041"><a xlink:href="FieldElementFinfo_8h.html" target="_top" xlink:title=" ">
<polygon fill="white" stroke="#666666" points="1689.5,-74 1576.5,-74 1576.5,-55 1689.5,-55 1689.5,-74"/>
<text text-anchor="middle" x="1633" y="-62" font-family="Ubuntu Mono" font-size="10.00">FieldElementFinfo.h</text>
</a>
</g>
</g>
<!-- Node2&#45;&gt;Node41 -->
<g id="edge41_Node000002_Node000041" class="edge">
<title>Node2&#45;&gt;Node41</title>
<g id="a_edge41_Node000002_Node000041"><a xlink:title=" ">
<path fill="none" stroke="#63b8ff" d="M1829.56,-115.49C1789.1,-105.2 1720.9,-87.86 1676.42,-76.54"/>
<polygon fill="#63b8ff" stroke="#63b8ff" points="1677.04,-73.09 1666.48,-74.02 1675.31,-79.87 1677.04,-73.09"/>
</a>
</g>
</g>
<!-- Node42 -->
<g id="Node000042" class="node">
<title>Node42</title>
<g id="a_Node000042"><a xlink:href="FieldElement_8h.html" target="_top" xlink:title=" ">
<polygon fill="white" stroke="#666666" points="1796.5,-74 1707.5,-74 1707.5,-55 1796.5,-55 1796.5,-74"/>
<text text-anchor="middle" x="1752" y="-62" font-family="Ubuntu Mono" font-size="10.00">FieldElement.h</text>
</a>
</g>
</g>
<!-- Node2&#45;&gt;Node42 -->
<g id="edge42_Node000002_Node000042" class="edge">
<title>Node2&#45;&gt;Node42</title>
<g id="a_edge42_Node000002_Node000042"><a xlink:title=" ">
<path fill="none" stroke="#63b8ff" d="M1846.62,-115.37C1828.42,-105.78 1798.8,-90.17 1777.55,-78.97"/>
<polygon fill="#63b8ff" stroke="#63b8ff" points="1778.92,-75.73 1768.45,-74.17 1775.66,-81.93 1778.92,-75.73"/>
</a>
</g>
</g>
<!-- Node43 -->
<g id="Node000043" class="node">
<title>Node43</title>
<g id="a_Node000043"><a xlink:href="Neutral_8h.html" target="_top" xlink:title=" ">
<polygon fill="white" stroke="#666666" points="1911.5,-74 1814.5,-74 1814.5,-55 1911.5,-55 1911.5,-74"/>
<text text-anchor="middle" x="1863" y="-62" font-family="Ubuntu Mono" font-size="10.00">../shell/Neutral.h</text>
</a>
</g>
</g>
<!-- Node2&#45;&gt;Node43 -->
<g id="edge43_Node000002_Node000043" class="edge">
<title>Node2&#45;&gt;Node43</title>
<g id="a_edge43_Node000002_Node000043"><a xlink:title=" ">
<path fill="none" stroke="#63b8ff" d="M1863,-115.37C1863,-107.25 1863,-94.81 1863,-84.39"/>
<polygon fill="#63b8ff" stroke="#63b8ff" points="1866.5,-84.17 1863,-74.17 1859.5,-84.17 1866.5,-84.17"/>
</a>
</g>
</g>
<!-- Node32&#45;&gt;Node31 -->
<g id="edge31_Node000032_Node000031" class="edge">
<title>Node32&#45;&gt;Node31</title>
<g id="a_edge31_Node000032_Node000031"><a xlink:title=" ">
<path fill="none" stroke="#63b8ff" d="M2314.91,-56.14C2311.9,-55.72 2308.91,-55.34 2306,-55 2079.9,-28.78 1807.28,-16.18 1703.71,-12.07"/>
<polygon fill="#63b8ff" stroke="#63b8ff" points="1703.78,-8.57 1693.65,-11.68 1703.51,-15.56 1703.78,-8.57"/>
</a>
</g>
</g>
<!-- Node34&#45;&gt;Node11 -->
<g id="edge34_Node000034_Node000011" class="edge">
<title>Node34&#45;&gt;Node11</title>
<g id="a_edge34_Node000034_Node000011"><a xlink:title=" ">
<path fill="none" stroke="#63b8ff" d="M815.21,-54.75C811.24,-47.49 805.47,-36.95 800.57,-27.98"/>
<polygon fill="#63b8ff" stroke="#63b8ff" points="803.57,-26.18 795.7,-19.09 797.43,-29.54 803.57,-26.18"/>
</a>
</g>
</g>
<!-- Node45 -->
<g id="Node000045" class="node">
<title>Node45</title>
<g id="a_Node000045"><a xlink:title=" ">
<polygon fill="#e0e0e0" stroke="#999999" points="3580,-19 3526,-19 3526,0 3580,0 3580,-19"/>
<text text-anchor="middle" x="3553" y="-7" font-family="Ubuntu Mono" font-size="10.00">random</text>
</a>
</g>
</g>
<!-- Node44&#45;&gt;Node45 -->
<g id="edge45_Node000044_Node000045" class="edge">
<title>Node44&#45;&gt;Node45</title>
<g id="a_edge45_Node000044_Node000045"><a xlink:title=" ">
<path fill="none" stroke="#63b8ff" d="M3528.67,-115.37C3538.94,-106.31 3553.79,-91.04 3560,-74 3565.34,-59.35 3562.7,-41.63 3559.24,-28.64"/>
<polygon fill="#63b8ff" stroke="#63b8ff" points="3562.56,-27.55 3556.29,-19.01 3555.87,-29.59 3562.56,-27.55"/>
</a>
</g>
</g>
<!-- Node46 -->
<g id="Node000046" class="node">
<title>Node46</title>
<g id="a_Node000046"><a xlink:href="RNG_8h.html" target="_top" xlink:title=" ">
<polygon fill="#fff0f0" stroke="red" points="3550.5,-74 3503.5,-74 3503.5,-55 3550.5,-55 3550.5,-74"/>
<text text-anchor="middle" x="3527" y="-62" font-family="Ubuntu Mono" font-size="10.00">RNG.h</text>
</a>
</g>
</g>
<!-- Node44&#45;&gt;Node46 -->
<g id="edge46_Node000044_Node000046" class="edge">
<title>Node44&#45;&gt;Node46</title>
<g id="a_edge46_Node000044_Node000046"><a xlink:title=" ">
<path fill="none" stroke="#63b8ff" d="M3519.33,-115.37C3520.59,-107.16 3522.53,-94.54 3524.15,-84.05"/>
<polygon fill="#63b8ff" stroke="#63b8ff" points="3527.61,-84.58 3525.67,-74.17 3520.69,-83.52 3527.61,-84.58"/>
</a>
</g>
</g>
<!-- Node46&#45;&gt;Node9 -->
<g id="edge47_Node000046_Node000009" class="edge">
<title>Node46&#45;&gt;Node9</title>
<g id="a_edge47_Node000046_Node000009"><a xlink:title=" ">
<path fill="none" stroke="#63b8ff" d="M3505.31,-54.98C3483.2,-46.3 3448.68,-32.75 3423.55,-22.88"/>
<polygon fill="#63b8ff" stroke="#63b8ff" points="3424.67,-19.57 3414.08,-19.17 3422.11,-26.08 3424.67,-19.57"/>
</a>
</g>
</g>
<!-- Node46&#45;&gt;Node12 -->
<g id="edge49_Node000046_Node000012" class="edge">
<title>Node46&#45;&gt;Node12</title>
<g id="a_edge49_Node000046_Node000012"><a xlink:title=" ">
<path fill="none" stroke="#63b8ff" d="M3503.34,-56.68C3500.55,-56.04 3497.72,-55.45 3495,-55 3274.74,-18.21 3005.62,-11.81 2909.36,-10.72"/>
<polygon fill="#63b8ff" stroke="#63b8ff" points="2909.32,-7.22 2899.28,-10.62 2909.24,-14.22 2909.32,-7.22"/>
</a>
</g>
</g>
<!-- Node46&#45;&gt;Node45 -->
<g id="edge48_Node000046_Node000045" class="edge">
<title>Node46&#45;&gt;Node45</title>
<g id="a_edge48_Node000046_Node000045"><a xlink:title=" ">
<path fill="none" stroke="#63b8ff" d="M3531.29,-54.75C3534.81,-47.57 3539.91,-37.18 3544.28,-28.27"/>
<polygon fill="#63b8ff" stroke="#63b8ff" points="3547.52,-29.61 3548.79,-19.09 3541.24,-26.53 3547.52,-29.61"/>
</a>
</g>
</g>
<!-- Node51&#45;&gt;Node6 -->
<g id="edge51_Node000051_Node000006" class="edge">
<title>Node51&#45;&gt;Node6</title>
<g id="a_edge51_Node000051_Node000006"><a xlink:title=" ">
<path fill="none" stroke="#63b8ff" d="M840.33,-124.53C718.58,-125.4 359.21,-123.39 54.15,-73.82"/>
<polygon fill="#63b8ff" stroke="#63b8ff" points="54.66,-70.36 44.23,-72.19 53.53,-77.27 54.66,-70.36"/>
</a>
</g>
</g>
<!-- Node52&#45;&gt;Node9 -->
<g id="edge55_Node000052_Node000009" class="edge">
<title>Node52&#45;&gt;Node9</title>
<g id="a_edge55_Node000052_Node000009"><a xlink:title=" ">
<path fill="none" stroke="#63b8ff" d="M3392,-109.63C3392,-89.21 3392,-51.81 3392,-29.24"/>
<polygon fill="#63b8ff" stroke="#63b8ff" points="3395.5,-29.23 3392,-19.23 3388.5,-29.23 3395.5,-29.23"/>
</a>
</g>
</g>
<!-- Node52&#45;&gt;Node10 -->
<g id="edge53_Node000052_Node000010" class="edge">
<title>Node52&#45;&gt;Node10</title>
<g id="a_edge53_Node000052_Node000010"><a xlink:title=" ">
<path fill="none" stroke="#63b8ff" d="M3378.44,-109.84C3370.32,-101.35 3359.95,-90.52 3351.5,-81.69"/>
<polygon fill="#63b8ff" stroke="#63b8ff" points="3353.83,-79.07 3344.39,-74.27 3348.78,-83.91 3353.83,-79.07"/>
</a>
</g>
</g>
<!-- Node53 -->
<g id="Node000053" class="node">
<title>Node53</title>
<g id="a_Node000053"><a xlink:title=" ">
<polygon fill="#e0e0e0" stroke="#999999" points="3485.5,-74 3420.5,-74 3420.5,-55 3485.5,-55 3485.5,-74"/>
<text text-anchor="middle" x="3453" y="-62" font-family="Ubuntu Mono" font-size="10.00">exception</text>
</a>
</g>
</g>
<!-- Node52&#45;&gt;Node53 -->
<g id="edge54_Node000052_Node000053" class="edge">
<title>Node52&#45;&gt;Node53</title>
<g id="a_edge54_Node000052_Node000053"><a xlink:title=" ">
<path fill="none" stroke="#63b8ff" d="M3406.77,-109.84C3415.71,-101.26 3427.14,-90.3 3436.4,-81.42"/>
<polygon fill="#63b8ff" stroke="#63b8ff" points="3439.06,-83.71 3443.86,-74.27 3434.22,-78.66 3439.06,-83.71"/>
</a>
</g>
</g>
</g>
</svg>

<g id="navigator" transform="translate(0 0)" fill="#404254">
  <rect fill="#f2f5e9" fill-opacity="0.5" stroke="#606060" stroke-width=".5" x="0" y="0" width="60" height="60"/>
  <use id="zoomplus" xlink:href="#zoomPlus" x="17" y="9" onmousedown="handleZoom(evt,'in')"/>
  <use id="zoomminus" xlink:href="#zoomMin" x="42" y="9" onmousedown="handleZoom(evt,'out')"/>
  <use id="reset" xlink:href="#resetDef" x="30" y="36" onmousedown="handleReset()"/>
   <use id="arrowup" xlink:href="#arrowUp" x="0" y="0" onmousedown="handlePan(0,-1)"/>
  <use id="arrowright" xlink:href="#arrowRight" x="0" y="0" onmousedown="handlePan(1,0)"/>
  <use id="arrowdown" xlink:href="#arrowDown" x="0" y="0" onmousedown="handlePan(0,1)"/>
  <use id="arrowleft" xlink:href="#arrowLeft" x="0" y="0" onmousedown="handlePan(-1,0)"/>
</g>
<svg viewBox="0 0 15 15" width="100%" height="30px" preserveAspectRatio="xMaxYMin meet">
 <g id="arrow_out" transform="scale(0.3 0.3)">
  <a xlink:href="testBiophysics_8cpp__incl_org.svg" target="_base">
   <rect id="button" ry="5" rx="5" y="6" x="6" height="38" width="38"
        fill="#f2f5e9" fill-opacity="0.5" stroke="#606060" stroke-width="1.0"/>
   <path id="arrow"
     d="M 11.500037,31.436501 C 11.940474,20.09759 22.043105,11.32322 32.158766,21.979434 L 37.068811,17.246167 C 37.068811,17.246167 37.088388,32 37.088388,32 L 22.160133,31.978069 C 22.160133,31.978069 26.997745,27.140456 26.997745,27.140456 C 18.528582,18.264221 13.291696,25.230495 11.500037,31.436501 z"
     style="fill:#404040;"/>
  </a>
 </g>
</svg>

<style type='text/css'>
<![CDATA[
[data-mouse-over-selected='false'] { opacity: 0.7; }
[data-mouse-over-selected='true']  { opacity: 1.0; }
]]>
</style>
<script type="application/ecmascript"><![CDATA[
document.addEventListener('DOMContentLoaded', (event) => {
  highlightEdges();
  highlightAdjacentNodes();
});
]]></script>
</svg>
