<?xml version="1.0" encoding="UTF-8" standalone="no"?>
<!DOCTYPE svg PUBLIC "-//W3C//DTD SVG 1.1//EN"
 "http://www.w3.org/Graphics/SVG/1.1/DTD/svg11.dtd">
<!-- Generated by graphviz version 2.43.0 (0)
 -->
<!-- Title: /home/runner/work/mooseneuro.github.io/mooseneuro.github.io/docs/moose&#45;core/basecode/testGlobals.cpp Pages: 1 -->
<svg width="800pt" height="214pt"
 viewBox="0.00 0.00 799.50 214.00" xmlns="http://www.w3.org/2000/svg" xmlns:xlink="http://www.w3.org/1999/xlink">
<g id="graph0" class="graph" transform="scale(1 1) rotate(0) translate(4 210)">
<title>/home/runner/work/mooseneuro.github.io/mooseneuro.github.io/docs/moose&#45;core/basecode/testGlobals.cpp</title>
<!-- Node1 -->
<g id="Node000001" class="node">
<title>Node1</title>
<g id="a_Node000001"><a xlink:title=" ">
<polygon fill="#999999" stroke="#666666" points="520,-206 302,-206 302,-165 520,-165 520,-206"/>
<text text-anchor="start" x="310" y="-194" font-family="Ubuntu Mono" font-size="10.00">/home/runner/work/mooseneuro.github.io</text>
<text text-anchor="start" x="310" y="-183" font-family="Ubuntu Mono" font-size="10.00">/mooseneuro.github.io/docs/moose</text>
<text text-anchor="middle" x="411" y="-172" font-family="Ubuntu Mono" font-size="10.00">&#45;core/basecode/testGlobals.cpp</text>
</a>
</g>
</g>
<!-- Node2 -->
<g id="Node000002" class="node">
<title>Node2</title>
<g id="a_Node000002"><a xlink:href="global_8h.html" target="_top" xlink:title=" ">
<polygon fill="white" stroke="#666666" points="302,-129 246,-129 246,-110 302,-110 302,-129"/>
<text text-anchor="middle" x="274" y="-117" font-family="Ubuntu Mono" font-size="10.00">global.h</text>
</a>
</g>
</g>
<!-- Node1&#45;&gt;Node2 -->
<g id="edge1_Node000001_Node000002" class="edge">
<title>Node1&#45;&gt;Node2</title>
<g id="a_edge1_Node000001_Node000002"><a xlink:title=" ">
<path fill="none" stroke="#63b8ff" d="M369.15,-164.95C347.21,-154.7 320.94,-142.43 301.57,-133.38"/>
<polygon fill="#63b8ff" stroke="#63b8ff" points="302.93,-130.15 292.39,-129.09 299.97,-136.5 302.93,-130.15"/>
</a>
</g>
</g>
<!-- Node15 -->
<g id="Node000015" class="node">
<title>Node15</title>
<g id="a_Node000015"><a xlink:href="simple__assert_8hpp.html" target="_top" xlink:title=" ">
<polygon fill="white" stroke="#666666" points="713,-129 567,-129 567,-110 713,-110 713,-129"/>
<text text-anchor="middle" x="640" y="-117" font-family="Ubuntu Mono" font-size="10.00">../utility/simple_assert.hpp</text>
</a>
</g>
</g>
<!-- Node1&#45;&gt;Node15 -->
<g id="edge17_Node000001_Node000015" class="edge">
<title>Node1&#45;&gt;Node15</title>
<g id="a_edge17_Node000001_Node000015"><a xlink:title=" ">
<path fill="none" stroke="#63b8ff" d="M480.95,-164.95C519.93,-154.06 567.07,-140.88 599.86,-131.72"/>
<polygon fill="#63b8ff" stroke="#63b8ff" points="600.87,-135.07 609.56,-129.01 598.98,-128.33 600.87,-135.07"/>
</a>
</g>
</g>
<!-- Node3 -->
<g id="Node000003" class="node">
<title>Node3</title>
<g id="a_Node000003"><a xlink:title=" ">
<polygon fill="#e0e0e0" stroke="#999999" points="118,-19 74,-19 74,0 118,0 118,-19"/>
<text text-anchor="middle" x="96" y="-7" font-family="Ubuntu Mono" font-size="10.00">ctime</text>
</a>
</g>
</g>
<!-- Node2&#45;&gt;Node3 -->
<g id="edge2_Node000002_Node000003" class="edge">
<title>Node2&#45;&gt;Node3</title>
<g id="a_edge2_Node000002_Node000003"><a xlink:title=" ">
<path fill="none" stroke="#63b8ff" d="M266.02,-109.67C253.61,-96.37 228.47,-71.04 203,-55 179.38,-40.13 149.93,-28.3 127.91,-20.59"/>
<polygon fill="#63b8ff" stroke="#63b8ff" points="128.96,-17.25 118.36,-17.34 126.7,-23.88 128.96,-17.25"/>
</a>
</g>
</g>
<!-- Node4 -->
<g id="Node000004" class="node">
<title>Node4</title>
<g id="a_Node000004"><a xlink:title=" ">
<polygon fill="#e0e0e0" stroke="#999999" points="599,-19 561,-19 561,0 599,0 599,-19"/>
<text text-anchor="middle" x="580" y="-7" font-family="Ubuntu Mono" font-size="10.00">map</text>
</a>
</g>
</g>
<!-- Node2&#45;&gt;Node4 -->
<g id="edge3_Node000002_Node000004" class="edge">
<title>Node2&#45;&gt;Node4</title>
<g id="a_edge3_Node000002_Node000004"><a xlink:title=" ">
<path fill="none" stroke="#63b8ff" d="M299.86,-109.99C326.52,-101.17 369.26,-86.89 406,-74 457.37,-55.97 516.89,-34.02 551.31,-21.22"/>
<polygon fill="#63b8ff" stroke="#63b8ff" points="552.59,-24.47 560.74,-17.7 550.15,-17.91 552.59,-24.47"/>
</a>
</g>
</g>
<!-- Node5 -->
<g id="Node000005" class="node">
<title>Node5</title>
<g id="a_Node000005"><a xlink:title=" ">
<polygon fill="#e0e0e0" stroke="#999999" points="56,-19 0,-19 0,0 56,0 56,-19"/>
<text text-anchor="middle" x="28" y="-7" font-family="Ubuntu Mono" font-size="10.00">sstream</text>
</a>
</g>
</g>
<!-- Node2&#45;&gt;Node5 -->
<g id="edge4_Node000002_Node000005" class="edge">
<title>Node2&#45;&gt;Node5</title>
<g id="a_edge4_Node000002_Node000005"><a xlink:title=" ">
<path fill="none" stroke="#63b8ff" d="M245.73,-112.29C215.7,-105.15 167.25,-92.04 128,-74 98.35,-60.37 67.03,-39.24 47.51,-25.14"/>
<polygon fill="#63b8ff" stroke="#63b8ff" points="49.55,-22.3 39.41,-19.21 45.41,-27.95 49.55,-22.3"/>
</a>
</g>
</g>
<!-- Node6 -->
<g id="Node000006" class="node">
<title>Node6</title>
<g id="a_Node000006"><a xlink:title=" ">
<polygon fill="#e0e0e0" stroke="#999999" points="194.5,-74 137.5,-74 137.5,-55 194.5,-55 194.5,-74"/>
<text text-anchor="middle" x="166" y="-62" font-family="Ubuntu Mono" font-size="10.00">valarray</text>
</a>
</g>
</g>
<!-- Node2&#45;&gt;Node6 -->
<g id="edge5_Node000002_Node000006" class="edge">
<title>Node2&#45;&gt;Node6</title>
<g id="a_edge5_Node000002_Node000006"><a xlink:title=" ">
<path fill="none" stroke="#63b8ff" d="M256.65,-109.98C239.43,-101.54 212.8,-88.47 192.85,-78.68"/>
<polygon fill="#63b8ff" stroke="#63b8ff" points="194.19,-75.43 183.67,-74.17 191.1,-81.72 194.19,-75.43"/>
</a>
</g>
</g>
<!-- Node7 -->
<g id="Node000007" class="node">
<title>Node7</title>
<g id="a_Node000007"><a xlink:href="print__function_8hpp.html" target="_top" xlink:title=" ">
<polygon fill="white" stroke="#666666" points="397,-74 251,-74 251,-55 397,-55 397,-74"/>
<text text-anchor="middle" x="324" y="-62" font-family="Ubuntu Mono" font-size="10.00">../utility/print_function.hpp</text>
</a>
</g>
</g>
<!-- Node2&#45;&gt;Node7 -->
<g id="edge6_Node000002_Node000007" class="edge">
<title>Node2&#45;&gt;Node7</title>
<g id="a_edge6_Node000002_Node000007"><a xlink:title=" ">
<path fill="none" stroke="#63b8ff" d="M282.26,-109.75C289.46,-102.11 300.11,-90.82 308.85,-81.56"/>
<polygon fill="#63b8ff" stroke="#63b8ff" points="311.58,-83.76 315.9,-74.09 306.49,-78.96 311.58,-83.76"/>
</a>
</g>
</g>
<!-- Node7&#45;&gt;Node3 -->
<g id="edge14_Node000007_Node000003" class="edge">
<title>Node7&#45;&gt;Node3</title>
<g id="a_edge14_Node000007_Node000003"><a xlink:title=" ">
<path fill="none" stroke="#63b8ff" d="M283.88,-55C246.09,-46.86 187.66,-33.97 128.25,-19.23"/>
<polygon fill="#63b8ff" stroke="#63b8ff" points="128.87,-15.78 118.32,-16.75 127.17,-22.57 128.87,-15.78"/>
</a>
</g>
</g>
<!-- Node7&#45;&gt;Node4 -->
<g id="edge12_Node000007_Node000004" class="edge">
<title>Node7&#45;&gt;Node4</title>
<g id="a_edge12_Node000007_Node000004"><a xlink:title=" ">
<path fill="none" stroke="#63b8ff" d="M375.49,-55C419.65,-47.36 485.14,-35.2 550.7,-19.12"/>
<polygon fill="#63b8ff" stroke="#63b8ff" points="551.93,-22.42 560.79,-16.61 550.24,-15.63 551.93,-22.42"/>
</a>
</g>
</g>
<!-- Node7&#45;&gt;Node5 -->
<g id="edge8_Node000007_Node000005" class="edge">
<title>Node7&#45;&gt;Node5</title>
<g id="a_edge8_Node000007_Node000005"><a xlink:title=" ">
<path fill="none" stroke="#63b8ff" d="M269.01,-54.96C218.73,-46.95 142.06,-34.22 66.43,-19.2"/>
<polygon fill="#63b8ff" stroke="#63b8ff" points="66.74,-15.69 56.25,-17.16 65.37,-22.55 66.74,-15.69"/>
</a>
</g>
</g>
<!-- Node8 -->
<g id="Node000008" class="node">
<title>Node8</title>
<g id="a_Node000008"><a xlink:title=" ">
<polygon fill="#e0e0e0" stroke="#999999" points="677,-19 617,-19 617,0 677,0 677,-19"/>
<text text-anchor="middle" x="647" y="-7" font-family="Ubuntu Mono" font-size="10.00">iostream</text>
</a>
</g>
</g>
<!-- Node7&#45;&gt;Node8 -->
<g id="edge7_Node000007_Node000008" class="edge">
<title>Node7&#45;&gt;Node8</title>
<g id="a_edge7_Node000007_Node000008"><a xlink:title=" ">
<path fill="none" stroke="#63b8ff" d="M385.12,-54.99C440.5,-47.04 524.59,-34.36 606.79,-19.14"/>
<polygon fill="#63b8ff" stroke="#63b8ff" points="607.61,-22.54 616.8,-17.27 606.33,-15.66 607.61,-22.54"/>
</a>
</g>
</g>
<!-- Node9 -->
<g id="Node000009" class="node">
<title>Node9</title>
<g id="a_Node000009"><a xlink:title=" ">
<polygon fill="#e0e0e0" stroke="#999999" points="415.5,-19 360.5,-19 360.5,0 415.5,0 415.5,-19"/>
<text text-anchor="middle" x="388" y="-7" font-family="Ubuntu Mono" font-size="10.00">fstream</text>
</a>
</g>
</g>
<!-- Node7&#45;&gt;Node9 -->
<g id="edge9_Node000007_Node000009" class="edge">
<title>Node7&#45;&gt;Node9</title>
<g id="a_edge9_Node000007_Node000009"><a xlink:title=" ">
<path fill="none" stroke="#63b8ff" d="M334.28,-54.98C343.84,-47.07 358.28,-35.11 369.78,-25.58"/>
<polygon fill="#63b8ff" stroke="#63b8ff" points="372.06,-28.24 377.53,-19.17 367.6,-22.85 372.06,-28.24"/>
</a>
</g>
</g>
<!-- Node10 -->
<g id="Node000010" class="node">
<title>Node10</title>
<g id="a_Node000010"><a xlink:title=" ">
<polygon fill="#e0e0e0" stroke="#999999" points="480.5,-19 433.5,-19 433.5,0 480.5,0 480.5,-19"/>
<text text-anchor="middle" x="457" y="-7" font-family="Ubuntu Mono" font-size="10.00">vector</text>
</a>
</g>
</g>
<!-- Node7&#45;&gt;Node10 -->
<g id="edge10_Node000007_Node000010" class="edge">
<title>Node7&#45;&gt;Node10</title>
<g id="a_edge10_Node000007_Node000010"><a xlink:title=" ">
<path fill="none" stroke="#63b8ff" d="M345.37,-54.98C367.15,-46.3 401.16,-32.75 425.92,-22.88"/>
<polygon fill="#63b8ff" stroke="#63b8ff" points="427.25,-26.12 435.24,-19.17 424.66,-19.62 427.25,-26.12"/>
</a>
</g>
</g>
<!-- Node11 -->
<g id="Node000011" class="node">
<title>Node11</title>
<g id="a_Node000011"><a xlink:title=" ">
<polygon fill="#e0e0e0" stroke="#999999" points="543,-19 499,-19 499,0 543,0 543,-19"/>
<text text-anchor="middle" x="521" y="-7" font-family="Ubuntu Mono" font-size="10.00">string</text>
</a>
</g>
</g>
<!-- Node7&#45;&gt;Node11 -->
<g id="edge11_Node000007_Node000011" class="edge">
<title>Node7&#45;&gt;Node11</title>
<g id="a_edge11_Node000007_Node000011"><a xlink:title=" ">
<path fill="none" stroke="#63b8ff" d="M355.65,-54.98C392.34,-45.12 452.44,-28.94 489.2,-19.06"/>
<polygon fill="#63b8ff" stroke="#63b8ff" points="490.15,-22.42 498.9,-16.45 488.34,-15.66 490.15,-22.42"/>
</a>
</g>
</g>
<!-- Node12 -->
<g id="Node000012" class="node">
<title>Node12</title>
<g id="a_Node000012"><a xlink:title=" ">
<polygon fill="#e0e0e0" stroke="#999999" points="192,-19 136,-19 136,0 192,0 192,-19"/>
<text text-anchor="middle" x="164" y="-7" font-family="Ubuntu Mono" font-size="10.00">iomanip</text>
</a>
</g>
</g>
<!-- Node7&#45;&gt;Node12 -->
<g id="edge13_Node000007_Node000012" class="edge">
<title>Node7&#45;&gt;Node12</title>
<g id="a_edge13_Node000007_Node000012"><a xlink:title=" ">
<path fill="none" stroke="#63b8ff" d="M298.29,-54.98C271.55,-46.13 229.47,-32.19 199.55,-22.28"/>
<polygon fill="#63b8ff" stroke="#63b8ff" points="200.5,-18.9 189.91,-19.08 198.3,-25.55 200.5,-18.9"/>
</a>
</g>
</g>
<!-- Node13 -->
<g id="Node000013" class="node">
<title>Node13</title>
<g id="a_Node000013"><a xlink:title=" ">
<polygon fill="#e0e0e0" stroke="#999999" points="274,-19 210,-19 210,0 274,0 274,-19"/>
<text text-anchor="middle" x="242" y="-7" font-family="Ubuntu Mono" font-size="10.00">algorithm</text>
</a>
</g>
</g>
<!-- Node7&#45;&gt;Node13 -->
<g id="edge15_Node000007_Node000013" class="edge">
<title>Node7&#45;&gt;Node13</title>
<g id="a_edge15_Node000007_Node000013"><a xlink:title=" ">
<path fill="none" stroke="#63b8ff" d="M310.83,-54.98C298.23,-46.84 279,-34.41 264.06,-24.76"/>
<polygon fill="#63b8ff" stroke="#63b8ff" points="265.71,-21.66 255.41,-19.17 261.91,-27.54 265.71,-21.66"/>
</a>
</g>
</g>
<!-- Node14 -->
<g id="Node000014" class="node">
<title>Node14</title>
<g id="a_Node000014"><a xlink:title=" ">
<polygon fill="#e0e0e0" stroke="#999999" points="342,-19 292,-19 292,0 342,0 342,-19"/>
<text text-anchor="middle" x="317" y="-7" font-family="Ubuntu Mono" font-size="10.00">cstring</text>
</a>
</g>
</g>
<!-- Node7&#45;&gt;Node14 -->
<g id="edge16_Node000007_Node000014" class="edge">
<title>Node7&#45;&gt;Node14</title>
<g id="a_edge16_Node000007_Node000014"><a xlink:title=" ">
<path fill="none" stroke="#63b8ff" d="M322.84,-54.75C321.93,-47.8 320.61,-37.85 319.46,-29.13"/>
<polygon fill="#63b8ff" stroke="#63b8ff" points="322.91,-28.54 318.13,-19.09 315.97,-29.46 322.91,-28.54"/>
</a>
</g>
</g>
<!-- Node15&#45;&gt;Node8 -->
<g id="edge20_Node000015_Node000008" class="edge">
<title>Node15&#45;&gt;Node8</title>
<g id="a_edge20_Node000015_Node000008"><a xlink:title=" ">
<path fill="none" stroke="#63b8ff" d="M640.57,-109.66C641.71,-92.17 644.26,-52.8 645.78,-29.27"/>
<polygon fill="#63b8ff" stroke="#63b8ff" points="649.28,-29.36 646.44,-19.16 642.3,-28.91 649.28,-29.36"/>
</a>
</g>
</g>
<!-- Node16 -->
<g id="Node000016" class="node">
<title>Node16</title>
<g id="a_Node000016"><a xlink:title=" ">
<polygon fill="#e0e0e0" stroke="#999999" points="724,-74 668,-74 668,-55 724,-55 724,-74"/>
<text text-anchor="middle" x="696" y="-62" font-family="Ubuntu Mono" font-size="10.00">assert.h</text>
</a>
</g>
</g>
<!-- Node15&#45;&gt;Node16 -->
<g id="edge18_Node000015_Node000016" class="edge">
<title>Node15&#45;&gt;Node16</title>
<g id="a_edge18_Node000015_Node000016"><a xlink:title=" ">
<path fill="none" stroke="#63b8ff" d="M649,-109.98C657.19,-102.23 669.51,-90.58 679.47,-81.14"/>
<polygon fill="#63b8ff" stroke="#63b8ff" points="681.98,-83.59 686.84,-74.17 677.17,-78.5 681.98,-83.59"/>
</a>
</g>
</g>
<!-- Node17 -->
<g id="Node000017" class="node">
<title>Node17</title>
<g id="a_Node000017"><a xlink:title=" ">
<polygon fill="#e0e0e0" stroke="#999999" points="791.5,-74 742.5,-74 742.5,-55 791.5,-55 791.5,-74"/>
<text text-anchor="middle" x="767" y="-62" font-family="Ubuntu Mono" font-size="10.00">cstdlib</text>
</a>
</g>
</g>
<!-- Node15&#45;&gt;Node17 -->
<g id="edge19_Node000015_Node000017" class="edge">
<title>Node15&#45;&gt;Node17</title>
<g id="a_edge19_Node000015_Node000017"><a xlink:title=" ">
<path fill="none" stroke="#63b8ff" d="M660.4,-109.98C681.02,-101.38 713.11,-87.99 736.69,-78.15"/>
<polygon fill="#63b8ff" stroke="#63b8ff" points="738.34,-81.25 746.22,-74.17 735.65,-74.79 738.34,-81.25"/>
</a>
</g>
</g>
<!-- Node18 -->
<g id="Node000018" class="node">
<title>Node18</title>
<g id="a_Node000018"><a xlink:href="current__function_8hpp.html" target="_top" xlink:title=" ">
<polygon fill="white" stroke="#666666" points="611.5,-74 494.5,-74 494.5,-55 611.5,-55 611.5,-74"/>
<text text-anchor="middle" x="553" y="-62" font-family="Ubuntu Mono" font-size="10.00">current_function.hpp</text>
</a>
</g>
</g>
<!-- Node15&#45;&gt;Node18 -->
<g id="edge21_Node000015_Node000018" class="edge">
<title>Node15&#45;&gt;Node18</title>
<g id="a_edge21_Node000015_Node000018"><a xlink:title=" ">
<path fill="none" stroke="#63b8ff" d="M626.02,-109.98C612.53,-101.77 591.87,-89.18 575.96,-79.49"/>
<polygon fill="#63b8ff" stroke="#63b8ff" points="577.59,-76.38 567.23,-74.17 573.95,-82.36 577.59,-76.38"/>
</a>
</g>
</g>
</g>
</svg>
