<?xml version="1.0" encoding="UTF-8" standalone="no"?>
<!DOCTYPE svg PUBLIC "-//W3C//DTD SVG 1.1//EN"
 "http://www.w3.org/Graphics/SVG/1.1/DTD/svg11.dtd">
<!-- Generated by graphviz version 2.43.0 (0)
 -->
<!-- Title: /home/runner/work/mooseneuro.github.io/mooseneuro.github.io/docs/moose&#45;core/biophysics/VClamp.cpp Pages: 1 -->
<!--zoomable 214 -->

<svg id="main" version="1.1" xmlns="http://www.w3.org/2000/svg" xmlns:xlink="http://www.w3.org/1999/xlink" xml:space="preserve" onload="init(evt)">
<style type="text/css"><![CDATA[
.node, .edge {opacity: 0.7;}
.node.selected, .edge.selected {opacity: 1;}
.edge:hover path { stroke: red; }
.edge:hover polygon { stroke: red; fill: red; }
]]></style>

<defs>
  <circle id="rim" cx="0" cy="0" r="7"/>
  <circle id="rim2" cx="0" cy="0" r="3.5"/>
  <g id="zoomPlus">
    <use xlink:href="#rim" fill="#404040"><set attributeName="fill" to="#808080" begin="zoomplus.mouseover" end="zoomplus.mouseout"/></use>
    <path d="M-4,0h8M0,-4v8" fill="none" stroke="white" stroke-width="1.5" pointer-events="none"/>
  </g>
  <g id="zoomMin">
    <use xlink:href="#rim" fill="#404040"><set attributeName="fill" to="#808080" begin="zoomminus.mouseover" end="zoomminus.mouseout"/></use>
    <path d="M-4,0h8" fill="none" stroke="white" stroke-width="1.5" pointer-events="none"/>
  </g>
  <g id="arrowUp" transform="translate(30 24)">
    <use xlink:href="#rim"/>
    <path pointer-events="none" fill="none" stroke="white" stroke-width="1.5" d="M0,-3.0v7 M-2.5,-0.5L0,-3.0L2.5,-0.5"/>
  </g>
  <g id="arrowRight" transform="rotate(90) translate(36 -43)">
    <use xlink:href="#rim"/>
    <path pointer-events="none" fill="none" stroke="white" stroke-width="1.5" d="M0,-3.0v7 M-2.5,-0.5L0,-3.0L2.5,-0.5"/>
  </g>
  <g id="arrowDown" transform="rotate(180) translate(-30 -48)">
    <use xlink:href="#rim"/>
    <path pointer-events="none" fill="none" stroke="white" stroke-width="1.5" d="M0,-3.0v7 M-2.5,-0.5L0,-3.0L2.5,-0.5"/>
  </g>
  <g id="arrowLeft" transform="rotate(270) translate(-36 17)">
    <use xlink:href="#rim"/>
    <path pointer-events="none" fill="none" stroke="white" stroke-width="1.5" d="M0,-3.0v7 M-2.5,-0.5L0,-3.0L2.5,-0.5"/>
  </g>
  <g id="resetDef">
    <use xlink:href="#rim2" fill="#404040"><set attributeName="fill" to="#808080" begin="reset.mouseover" end="reset.mouseout"/></use>
  </g>
</defs>
<script type="application/ecmascript">
var viewWidth = 3443;
var viewHeight = 214;
var sectionId = 'dynsection-0';
</script>
<script type="application/ecmascript" xlink:href="svg.min.js"/>
<svg id="graph" class="graph">
<g id="viewport">
<title>/home/runner/work/mooseneuro.github.io/mooseneuro.github.io/docs/moose&#45;core/biophysics/VClamp.cpp</title>
<!-- Node1 -->
<g id="Node000001" class="node">
<title>Node1</title>
<g id="a_Node000001"><a xlink:title=" ">
<polygon fill="#999999" stroke="#666666" points="1638,-206 1420,-206 1420,-165 1638,-165 1638,-206"/>
<text text-anchor="start" x="1428" y="-194" font-family="Ubuntu Mono" font-size="10.00">/home/runner/work/mooseneuro.github.io</text>
<text text-anchor="start" x="1428" y="-183" font-family="Ubuntu Mono" font-size="10.00">/mooseneuro.github.io/docs/moose</text>
<text text-anchor="middle" x="1529" y="-172" font-family="Ubuntu Mono" font-size="10.00">&#45;core/biophysics/VClamp.cpp</text>
</a>
</g>
</g>
<!-- Node2 -->
<g id="Node000002" class="node">
<title>Node2</title>
<g id="a_Node000002"><a xlink:href="header_8h.html" target="_top" xlink:title=" ">
<polygon fill="white" stroke="#666666" points="1587.5,-129 1470.5,-129 1470.5,-110 1587.5,-110 1587.5,-129"/>
<text text-anchor="middle" x="1529" y="-117" font-family="Ubuntu Mono" font-size="10.00">../basecode/header.h</text>
</a>
</g>
</g>
<!-- Node1&#45;&gt;Node2 -->
<g id="edge1_Node000001_Node000002" class="edge">
<title>Node1&#45;&gt;Node2</title>
<g id="a_edge1_Node000001_Node000002"><a xlink:title=" ">
<path fill="none" stroke="#63b8ff" d="M1529,-164.95C1529,-156.85 1529,-147.5 1529,-139.47"/>
<polygon fill="#63b8ff" stroke="#63b8ff" points="1532.5,-139.26 1529,-129.26 1525.5,-139.26 1532.5,-139.26"/>
</a>
</g>
</g>
<!-- Node22 -->
<g id="Node000022" class="node">
<title>Node22</title>
<g id="a_Node000022"><a xlink:href="Dinfo_8h.html" target="_top" xlink:title=" ">
<polygon fill="white" stroke="#666666" points="52,-74 0,-74 0,-55 52,-55 52,-74"/>
<text text-anchor="middle" x="26" y="-62" font-family="Ubuntu Mono" font-size="10.00">Dinfo.h</text>
</a>
</g>
</g>
<!-- Node1&#45;&gt;Node22 -->
<g id="edge45_Node000001_Node000022" class="edge">
<title>Node1&#45;&gt;Node22</title>
<g id="a_edge45_Node000001_Node000022"><a xlink:title=" ">
<path fill="none" stroke="#63b8ff" d="M1419.64,-182.36C1176.45,-176.27 572.67,-153.86 62.43,-73.97"/>
<polygon fill="#63b8ff" stroke="#63b8ff" points="62.7,-70.47 52.28,-72.37 61.61,-77.38 62.7,-70.47"/>
</a>
</g>
</g>
<!-- Node44 -->
<g id="Node000044" class="node">
<title>Node44</title>
<g id="a_Node000044"><a xlink:href="VClamp_8h.html" target="_top" xlink:title=" ">
<polygon fill="white" stroke="#666666" points="1670,-129 1606,-129 1606,-110 1670,-110 1670,-129"/>
<text text-anchor="middle" x="1638" y="-117" font-family="Ubuntu Mono" font-size="10.00">VClamp.h</text>
</a>
</g>
</g>
<!-- Node1&#45;&gt;Node44 -->
<g id="edge46_Node000001_Node000044" class="edge">
<title>Node1&#45;&gt;Node44</title>
<g id="a_edge46_Node000001_Node000044"><a xlink:title=" ">
<path fill="none" stroke="#63b8ff" d="M1562.3,-164.95C1579.2,-155.03 1599.32,-143.21 1614.57,-134.25"/>
<polygon fill="#63b8ff" stroke="#63b8ff" points="1616.52,-137.17 1623.37,-129.09 1612.97,-131.14 1616.52,-137.17"/>
</a>
</g>
</g>
<!-- Node3 -->
<g id="Node000003" class="node">
<title>Node3</title>
<g id="a_Node000003"><a xlink:title=" ">
<polygon fill="#e0e0e0" stroke="#999999" points="3434.5,-74 3383.5,-74 3383.5,-55 3434.5,-55 3434.5,-74"/>
<text text-anchor="middle" x="3409" y="-62" font-family="Ubuntu Mono" font-size="10.00">math.h</text>
</a>
</g>
</g>
<!-- Node2&#45;&gt;Node3 -->
<g id="edge2_Node000002_Node000003" class="edge">
<title>Node2&#45;&gt;Node3</title>
<g id="a_edge2_Node000002_Node000003"><a xlink:title=" ">
<path fill="none" stroke="#63b8ff" d="M1587.57,-110.79C1590.75,-110.49 1593.91,-110.22 1597,-110 1987.89,-81.69 2966.85,-125.51 3373.41,-73.85"/>
<polygon fill="#63b8ff" stroke="#63b8ff" points="3374.04,-77.29 3383.5,-72.53 3373.13,-70.35 3374.04,-77.29"/>
</a>
</g>
</g>
<!-- Node4 -->
<g id="Node000004" class="node">
<title>Node4</title>
<g id="a_Node000004"><a xlink:title=" ">
<polygon fill="#e0e0e0" stroke="#999999" points="134,-74 70,-74 70,-55 134,-55 134,-74"/>
<text text-anchor="middle" x="102" y="-62" font-family="Ubuntu Mono" font-size="10.00">algorithm</text>
</a>
</g>
</g>
<!-- Node2&#45;&gt;Node4 -->
<g id="edge3_Node000002_Node000004" class="edge">
<title>Node2&#45;&gt;Node4</title>
<g id="a_edge3_Node000002_Node000004"><a xlink:title=" ">
<path fill="none" stroke="#63b8ff" d="M1470.47,-117.97C1244.3,-115.69 426.43,-105.52 144.35,-73.89"/>
<polygon fill="#63b8ff" stroke="#63b8ff" points="144.48,-70.38 134.14,-72.71 143.67,-77.34 144.48,-70.38"/>
</a>
</g>
</g>
<!-- Node5 -->
<g id="Node000005" class="node">
<title>Node5</title>
<g id="a_Node000005"><a xlink:title=" ">
<polygon fill="#e0e0e0" stroke="#999999" points="199.5,-74 152.5,-74 152.5,-55 199.5,-55 199.5,-74"/>
<text text-anchor="middle" x="176" y="-62" font-family="Ubuntu Mono" font-size="10.00">vector</text>
</a>
</g>
</g>
<!-- Node2&#45;&gt;Node5 -->
<g id="edge4_Node000002_Node000005" class="edge">
<title>Node2&#45;&gt;Node5</title>
<g id="a_edge4_Node000002_Node000005"><a xlink:title=" ">
<path fill="none" stroke="#63b8ff" d="M1470.2,-118.22C1250.57,-116.93 477.63,-109.96 209.75,-73.67"/>
<polygon fill="#63b8ff" stroke="#63b8ff" points="210.06,-70.18 199.67,-72.26 209.08,-77.11 210.06,-70.18"/>
</a>
</g>
</g>
<!-- Node6 -->
<g id="Node000006" class="node">
<title>Node6</title>
<g id="a_Node000006"><a xlink:title=" ">
<polygon fill="#e0e0e0" stroke="#999999" points="262,-74 218,-74 218,-55 262,-55 262,-74"/>
<text text-anchor="middle" x="240" y="-62" font-family="Ubuntu Mono" font-size="10.00">string</text>
</a>
</g>
</g>
<!-- Node2&#45;&gt;Node6 -->
<g id="edge5_Node000002_Node000006" class="edge">
<title>Node2&#45;&gt;Node6</title>
<g id="a_edge5_Node000002_Node000006"><a xlink:title=" ">
<path fill="none" stroke="#63b8ff" d="M1470.38,-118.23C1257.71,-116.97 526.38,-110.17 272.15,-73.73"/>
<polygon fill="#63b8ff" stroke="#63b8ff" points="272.62,-70.26 262.22,-72.26 271.59,-77.19 272.62,-70.26"/>
</a>
</g>
</g>
<!-- Node7 -->
<g id="Node000007" class="node">
<title>Node7</title>
<g id="a_Node000007"><a xlink:title=" ">
<polygon fill="#e0e0e0" stroke="#999999" points="318,-74 280,-74 280,-55 318,-55 318,-74"/>
<text text-anchor="middle" x="299" y="-62" font-family="Ubuntu Mono" font-size="10.00">map</text>
</a>
</g>
</g>
<!-- Node2&#45;&gt;Node7 -->
<g id="edge6_Node000002_Node000007" class="edge">
<title>Node2&#45;&gt;Node7</title>
<g id="a_edge6_Node000002_Node000007"><a xlink:title=" ">
<path fill="none" stroke="#63b8ff" d="M1470.46,-118.33C1264.16,-117.41 570.87,-111.64 328.3,-73.67"/>
<polygon fill="#63b8ff" stroke="#63b8ff" points="328.56,-70.17 318.12,-72.02 327.43,-77.08 328.56,-70.17"/>
</a>
</g>
</g>
<!-- Node8 -->
<g id="Node000008" class="node">
<title>Node8</title>
<g id="a_Node000008"><a xlink:title=" ">
<polygon fill="#e0e0e0" stroke="#999999" points="429.5,-74 336.5,-74 336.5,-55 429.5,-55 429.5,-74"/>
<text text-anchor="middle" x="383" y="-62" font-family="Ubuntu Mono" font-size="10.00">unordered_map</text>
</a>
</g>
</g>
<!-- Node2&#45;&gt;Node8 -->
<g id="edge7_Node000002_Node000008" class="edge">
<title>Node2&#45;&gt;Node8</title>
<g id="a_edge7_Node000002_Node000008"><a xlink:title=" ">
<path fill="none" stroke="#63b8ff" d="M1470.36,-118.37C1308.12,-117.52 839.47,-111.79 439.73,-73.94"/>
<polygon fill="#63b8ff" stroke="#63b8ff" points="439.99,-70.45 429.7,-72.98 439.33,-77.42 439.99,-70.45"/>
</a>
</g>
</g>
<!-- Node9 -->
<g id="Node000009" class="node">
<title>Node9</title>
<g id="a_Node000009"><a xlink:title=" ">
<polygon fill="#e0e0e0" stroke="#999999" points="508,-74 448,-74 448,-55 508,-55 508,-74"/>
<text text-anchor="middle" x="478" y="-62" font-family="Ubuntu Mono" font-size="10.00">iostream</text>
</a>
</g>
</g>
<!-- Node2&#45;&gt;Node9 -->
<g id="edge8_Node000002_Node000009" class="edge">
<title>Node2&#45;&gt;Node9</title>
<g id="a_edge8_Node000002_Node000009"><a xlink:title=" ">
<path fill="none" stroke="#63b8ff" d="M1470.31,-117.24C1286.47,-113.07 722.43,-98.7 518.18,-73.87"/>
<polygon fill="#63b8ff" stroke="#63b8ff" points="518.5,-70.38 508.14,-72.6 517.63,-77.33 518.5,-70.38"/>
</a>
</g>
</g>
<!-- Node10 -->
<g id="Node000010" class="node">
<title>Node10</title>
<g id="a_Node000010"><a xlink:title=" ">
<polygon fill="#e0e0e0" stroke="#999999" points="582,-74 526,-74 526,-55 582,-55 582,-74"/>
<text text-anchor="middle" x="554" y="-62" font-family="Ubuntu Mono" font-size="10.00">sstream</text>
</a>
</g>
</g>
<!-- Node2&#45;&gt;Node10 -->
<g id="edge9_Node000002_Node000010" class="edge">
<title>Node2&#45;&gt;Node10</title>
<g id="a_edge9_Node000002_Node000010"><a xlink:title=" ">
<path fill="none" stroke="#63b8ff" d="M1470.25,-117.09C1295.71,-112.67 781.15,-98.06 592.28,-73.87"/>
<polygon fill="#63b8ff" stroke="#63b8ff" points="592.56,-70.37 582.19,-72.52 591.64,-77.31 592.56,-70.37"/>
</a>
</g>
</g>
<!-- Node11 -->
<g id="Node000011" class="node">
<title>Node11</title>
<g id="a_Node000011"><a xlink:title=" ">
<polygon fill="#e0e0e0" stroke="#999999" points="1395.5,-19 1338.5,-19 1338.5,0 1395.5,0 1395.5,-19"/>
<text text-anchor="middle" x="1367" y="-7" font-family="Ubuntu Mono" font-size="10.00">typeinfo</text>
</a>
</g>
</g>
<!-- Node2&#45;&gt;Node11 -->
<g id="edge10_Node000002_Node000011" class="edge">
<title>Node2&#45;&gt;Node11</title>
<g id="a_edge10_Node000002_Node000011"><a xlink:title=" ">
<path fill="none" stroke="#63b8ff" d="M1587.58,-110.98C1590.77,-110.63 1593.92,-110.3 1597,-110 1709.57,-98.97 2180.53,-137.36 2103,-55 2078.9,-29.4 1553.97,-14.96 1405.69,-11.39"/>
<polygon fill="#63b8ff" stroke="#63b8ff" points="1405.76,-7.89 1395.68,-11.15 1405.59,-14.88 1405.76,-7.89"/>
</a>
</g>
</g>
<!-- Node12 -->
<g id="Node000012" class="node">
<title>Node12</title>
<g id="a_Node000012"><a xlink:title=" ">
<polygon fill="#e0e0e0" stroke="#999999" points="730,-74 678,-74 678,-55 730,-55 730,-74"/>
<text text-anchor="middle" x="704" y="-62" font-family="Ubuntu Mono" font-size="10.00">cassert</text>
</a>
</g>
</g>
<!-- Node2&#45;&gt;Node12 -->
<g id="edge11_Node000002_Node000012" class="edge">
<title>Node2&#45;&gt;Node12</title>
<g id="a_edge11_Node000002_Node000012"><a xlink:title=" ">
<path fill="none" stroke="#63b8ff" d="M1470.16,-118.83C1340.04,-118.77 1018.07,-114.32 740.54,-73.94"/>
<polygon fill="#63b8ff" stroke="#63b8ff" points="740.68,-70.42 730.27,-72.42 739.65,-77.34 740.68,-70.42"/>
</a>
</g>
</g>
<!-- Node13 -->
<g id="Node000013" class="node">
<title>Node13</title>
<g id="a_Node000013"><a xlink:href="doubleEq_8h.html" target="_top" xlink:title=" ">
<polygon fill="white" stroke="#666666" points="819.5,-74 748.5,-74 748.5,-55 819.5,-55 819.5,-74"/>
<text text-anchor="middle" x="784" y="-62" font-family="Ubuntu Mono" font-size="10.00">doubleEq.h</text>
</a>
</g>
</g>
<!-- Node2&#45;&gt;Node13 -->
<g id="edge12_Node000002_Node000013" class="edge">
<title>Node2&#45;&gt;Node13</title>
<g id="a_edge12_Node000002_Node000013"><a xlink:title=" ">
<path fill="none" stroke="#63b8ff" d="M1470.14,-117.29C1350.97,-114.3 1072.53,-104.53 830.02,-74.11"/>
<polygon fill="#63b8ff" stroke="#63b8ff" points="830.32,-70.62 819.96,-72.83 829.44,-77.56 830.32,-70.62"/>
</a>
</g>
</g>
<!-- Node14 -->
<g id="Node000014" class="node">
<title>Node14</title>
<g id="a_Node000014"><a xlink:href="Id_8h.html" target="_top" xlink:title=" ">
<polygon fill="white" stroke="#666666" points="872.5,-74 837.5,-74 837.5,-55 872.5,-55 872.5,-74"/>
<text text-anchor="middle" x="855" y="-62" font-family="Ubuntu Mono" font-size="10.00">Id.h</text>
</a>
</g>
</g>
<!-- Node2&#45;&gt;Node14 -->
<g id="edge13_Node000002_Node000014" class="edge">
<title>Node2&#45;&gt;Node14</title>
<g id="a_edge13_Node000002_Node000014"><a xlink:title=" ">
<path fill="none" stroke="#63b8ff" d="M1470.29,-119.29C1357.53,-119.78 1103.04,-115.82 882.88,-73.9"/>
<polygon fill="#63b8ff" stroke="#63b8ff" points="883.23,-70.41 872.75,-71.94 881.9,-77.28 883.23,-70.41"/>
</a>
</g>
</g>
<!-- Node15 -->
<g id="Node000015" class="node">
<title>Node15</title>
<g id="a_Node000015"><a xlink:href="ObjId_8h.html" target="_top" xlink:title=" ">
<polygon fill="white" stroke="#666666" points="941.5,-74 890.5,-74 890.5,-55 941.5,-55 941.5,-74"/>
<text text-anchor="middle" x="916" y="-62" font-family="Ubuntu Mono" font-size="10.00">ObjId.h</text>
</a>
</g>
</g>
<!-- Node2&#45;&gt;Node15 -->
<g id="edge14_Node000002_Node000015" class="edge">
<title>Node2&#45;&gt;Node15</title>
<g id="a_edge14_Node000002_Node000015"><a xlink:title=" ">
<path fill="none" stroke="#63b8ff" d="M1470.26,-117.25C1367.03,-114.33 1146.29,-104.93 951.65,-74"/>
<polygon fill="#63b8ff" stroke="#63b8ff" points="951.95,-70.51 941.52,-72.37 950.84,-77.42 951.95,-70.51"/>
</a>
</g>
</g>
<!-- Node16 -->
<g id="Node000016" class="node">
<title>Node16</title>
<g id="a_Node000016"><a xlink:href="Cinfo_8h.html" target="_top" xlink:title=" ">
<polygon fill="white" stroke="#666666" points="1010.5,-74 959.5,-74 959.5,-55 1010.5,-55 1010.5,-74"/>
<text text-anchor="middle" x="985" y="-62" font-family="Ubuntu Mono" font-size="10.00">Cinfo.h</text>
</a>
</g>
</g>
<!-- Node2&#45;&gt;Node16 -->
<g id="edge15_Node000002_Node000016" class="edge">
<title>Node2&#45;&gt;Node16</title>
<g id="a_edge15_Node000002_Node000016"><a xlink:title=" ">
<path fill="none" stroke="#63b8ff" d="M1470.24,-116.25C1376.97,-112.04 1189.23,-100.99 1020.58,-73.81"/>
<polygon fill="#63b8ff" stroke="#63b8ff" points="1020.96,-70.33 1010.52,-72.17 1019.83,-77.24 1020.96,-70.33"/>
</a>
</g>
</g>
<!-- Node17 -->
<g id="Node000017" class="node">
<title>Node17</title>
<g id="a_Node000017"><a xlink:href="basecode_2Finfo_8h.html" target="_top" xlink:title=" ">
<polygon fill="white" stroke="#666666" points="1079,-74 1029,-74 1029,-55 1079,-55 1079,-74"/>
<text text-anchor="middle" x="1054" y="-62" font-family="Ubuntu Mono" font-size="10.00">Finfo.h</text>
</a>
</g>
</g>
<!-- Node2&#45;&gt;Node17 -->
<g id="edge16_Node000002_Node000017" class="edge">
<title>Node2&#45;&gt;Node17</title>
<g id="a_edge16_Node000002_Node000017"><a xlink:title=" ">
<path fill="none" stroke="#63b8ff" d="M1470.49,-115.29C1387.67,-110.16 1231.42,-98.29 1089.37,-73.99"/>
<polygon fill="#63b8ff" stroke="#63b8ff" points="1089.62,-70.48 1079.16,-72.22 1088.42,-77.38 1089.62,-70.48"/>
</a>
</g>
</g>
<!-- Node18 -->
<g id="Node000018" class="node">
<title>Node18</title>
<g id="a_Node000018"><a xlink:href="DestFinfo_8h.html" target="_top" xlink:title=" ">
<polygon fill="white" stroke="#666666" points="1169,-74 1097,-74 1097,-55 1169,-55 1169,-74"/>
<text text-anchor="middle" x="1133" y="-62" font-family="Ubuntu Mono" font-size="10.00">DestFinfo.h</text>
</a>
</g>
</g>
<!-- Node2&#45;&gt;Node18 -->
<g id="edge17_Node000002_Node000018" class="edge">
<title>Node2&#45;&gt;Node18</title>
<g id="a_edge17_Node000002_Node000018"><a xlink:title=" ">
<path fill="none" stroke="#63b8ff" d="M1470.47,-112.18C1402.78,-104.62 1287.77,-91.02 1179.44,-74.15"/>
<polygon fill="#63b8ff" stroke="#63b8ff" points="1179.74,-70.65 1169.32,-72.56 1178.65,-77.56 1179.74,-70.65"/>
</a>
</g>
</g>
<!-- Node19 -->
<g id="Node000019" class="node">
<title>Node19</title>
<g id="a_Node000019"><a xlink:href="ProcInfo_8h.html" target="_top" xlink:title=" ">
<polygon fill="white" stroke="#666666" points="1252.5,-74 1187.5,-74 1187.5,-55 1252.5,-55 1252.5,-74"/>
<text text-anchor="middle" x="1220" y="-62" font-family="Ubuntu Mono" font-size="10.00">ProcInfo.h</text>
</a>
</g>
</g>
<!-- Node2&#45;&gt;Node19 -->
<g id="edge18_Node000002_Node000019" class="edge">
<title>Node2&#45;&gt;Node19</title>
<g id="a_edge18_Node000002_Node000019"><a xlink:title=" ">
<path fill="none" stroke="#63b8ff" d="M1473.71,-109.98C1421.67,-101.81 1341.3,-88.81 1262.72,-74.27"/>
<polygon fill="#63b8ff" stroke="#63b8ff" points="1263.12,-70.78 1252.65,-72.39 1261.84,-77.66 1263.12,-70.78"/>
</a>
</g>
</g>
<!-- Node20 -->
<g id="Node000020" class="node">
<title>Node20</title>
<g id="a_Node000020"><a xlink:href="MsgFuncBinding_8h.html" target="_top" xlink:title=" ">
<polygon fill="white" stroke="#666666" points="1375.5,-74 1270.5,-74 1270.5,-55 1375.5,-55 1375.5,-74"/>
<text text-anchor="middle" x="1323" y="-62" font-family="Ubuntu Mono" font-size="10.00">MsgFuncBinding.h</text>
</a>
</g>
</g>
<!-- Node2&#45;&gt;Node20 -->
<g id="edge19_Node000002_Node000020" class="edge">
<title>Node2&#45;&gt;Node20</title>
<g id="a_edge19_Node000002_Node000020"><a xlink:title=" ">
<path fill="none" stroke="#63b8ff" d="M1495.9,-109.98C1460.72,-100.93 1404.93,-86.58 1366.28,-76.64"/>
<polygon fill="#63b8ff" stroke="#63b8ff" points="1366.91,-73.18 1356.36,-74.08 1365.17,-79.96 1366.91,-73.18"/>
</a>
</g>
</g>
<!-- Node21 -->
<g id="Node000021" class="node">
<title>Node21</title>
<g id="a_Node000021"><a xlink:href="Msg_8h.html" target="_top" xlink:title=" ">
<polygon fill="white" stroke="#666666" points="1472.5,-74 1393.5,-74 1393.5,-55 1472.5,-55 1472.5,-74"/>
<text text-anchor="middle" x="1433" y="-62" font-family="Ubuntu Mono" font-size="10.00">../msg/Msg.h</text>
</a>
</g>
</g>
<!-- Node2&#45;&gt;Node21 -->
<g id="edge20_Node000002_Node000021" class="edge">
<title>Node2&#45;&gt;Node21</title>
<g id="a_edge20_Node000002_Node000021"><a xlink:title=" ">
<path fill="none" stroke="#63b8ff" d="M1513.58,-109.98C1498.55,-101.69 1475.46,-88.94 1457.84,-79.22"/>
<polygon fill="#63b8ff" stroke="#63b8ff" points="1459.15,-75.94 1448.7,-74.17 1455.77,-82.07 1459.15,-75.94"/>
</a>
</g>
</g>
<!-- Node2&#45;&gt;Node22 -->
<g id="edge21_Node000002_Node000022" class="edge">
<title>Node2&#45;&gt;Node22</title>
<g id="a_edge21_Node000002_Node000022"><a xlink:title=" ">
<path fill="none" stroke="#63b8ff" d="M1470.24,-118.35C1235.06,-117.49 360.33,-111.87 62.2,-73.81"/>
<polygon fill="#63b8ff" stroke="#63b8ff" points="62.63,-70.33 52.26,-72.5 61.72,-77.27 62.63,-70.33"/>
</a>
</g>
</g>
<!-- Node23 -->
<g id="Node000023" class="node">
<title>Node23</title>
<g id="a_Node000023"><a xlink:href="MsgDigest_8h.html" target="_top" xlink:title=" ">
<polygon fill="white" stroke="#666666" points="1567.5,-74 1490.5,-74 1490.5,-55 1567.5,-55 1567.5,-74"/>
<text text-anchor="middle" x="1529" y="-62" font-family="Ubuntu Mono" font-size="10.00">MsgDigest.h</text>
</a>
</g>
</g>
<!-- Node2&#45;&gt;Node23 -->
<g id="edge22_Node000002_Node000023" class="edge">
<title>Node2&#45;&gt;Node23</title>
<g id="a_edge22_Node000002_Node000023"><a xlink:title=" ">
<path fill="none" stroke="#63b8ff" d="M1529,-109.75C1529,-102.8 1529,-92.85 1529,-84.13"/>
<polygon fill="#63b8ff" stroke="#63b8ff" points="1532.5,-84.09 1529,-74.09 1525.5,-84.09 1532.5,-84.09"/>
</a>
</g>
</g>
<!-- Node24 -->
<g id="Node000024" class="node">
<title>Node24</title>
<g id="a_Node000024"><a xlink:href="Element_8h.html" target="_top" xlink:title=" ">
<polygon fill="white" stroke="#666666" points="1652,-74 1586,-74 1586,-55 1652,-55 1652,-74"/>
<text text-anchor="middle" x="1619" y="-62" font-family="Ubuntu Mono" font-size="10.00">Element.h</text>
</a>
</g>
</g>
<!-- Node2&#45;&gt;Node24 -->
<g id="edge23_Node000002_Node000024" class="edge">
<title>Node2&#45;&gt;Node24</title>
<g id="a_edge23_Node000002_Node000024"><a xlink:title=" ">
<path fill="none" stroke="#63b8ff" d="M1543.46,-109.98C1557.42,-101.77 1578.79,-89.18 1595.25,-79.49"/>
<polygon fill="#63b8ff" stroke="#63b8ff" points="1597.44,-82.26 1604.28,-74.17 1593.88,-76.23 1597.44,-82.26"/>
</a>
</g>
</g>
<!-- Node25 -->
<g id="Node000025" class="node">
<title>Node25</title>
<g id="a_Node000025"><a xlink:href="DataElement_8h.html" target="_top" xlink:title=" ">
<polygon fill="white" stroke="#666666" points="1759.5,-74 1670.5,-74 1670.5,-55 1759.5,-55 1759.5,-74"/>
<text text-anchor="middle" x="1715" y="-62" font-family="Ubuntu Mono" font-size="10.00">DataElement.h</text>
</a>
</g>
</g>
<!-- Node2&#45;&gt;Node25 -->
<g id="edge24_Node000002_Node000025" class="edge">
<title>Node2&#45;&gt;Node25</title>
<g id="a_edge24_Node000002_Node000025"><a xlink:title=" ">
<path fill="none" stroke="#63b8ff" d="M1558.88,-109.98C1590.38,-101.01 1640.17,-86.82 1675.03,-76.89"/>
<polygon fill="#63b8ff" stroke="#63b8ff" points="1676.22,-80.19 1684.88,-74.08 1674.31,-73.46 1676.22,-80.19"/>
</a>
</g>
</g>
<!-- Node26 -->
<g id="Node000026" class="node">
<title>Node26</title>
<g id="a_Node000026"><a xlink:href="GlobalDataElement_8h.html" target="_top" xlink:title=" ">
<polygon fill="white" stroke="#666666" points="1898.5,-74 1777.5,-74 1777.5,-55 1898.5,-55 1898.5,-74"/>
<text text-anchor="middle" x="1838" y="-62" font-family="Ubuntu Mono" font-size="10.00">GlobalDataElement.h</text>
</a>
</g>
</g>
<!-- Node2&#45;&gt;Node26 -->
<g id="edge25_Node000002_Node000026" class="edge">
<title>Node2&#45;&gt;Node26</title>
<g id="a_edge25_Node000002_Node000026"><a xlink:title=" ">
<path fill="none" stroke="#63b8ff" d="M1578.65,-109.98C1632.96,-100.67 1720.02,-85.74 1778.09,-75.78"/>
<polygon fill="#63b8ff" stroke="#63b8ff" points="1778.96,-79.18 1788.22,-74.04 1777.77,-72.28 1778.96,-79.18"/>
</a>
</g>
</g>
<!-- Node27 -->
<g id="Node000027" class="node">
<title>Node27</title>
<g id="a_Node000027"><a xlink:href="LocalDataElement_8h.html" target="_top" xlink:title=" ">
<polygon fill="white" stroke="#666666" points="2031.5,-74 1916.5,-74 1916.5,-55 2031.5,-55 2031.5,-74"/>
<text text-anchor="middle" x="1974" y="-62" font-family="Ubuntu Mono" font-size="10.00">LocalDataElement.h</text>
</a>
</g>
</g>
<!-- Node2&#45;&gt;Node27 -->
<g id="edge26_Node000002_Node000027" class="edge">
<title>Node2&#45;&gt;Node27</title>
<g id="a_edge26_Node000002_Node000027"><a xlink:title=" ">
<path fill="none" stroke="#63b8ff" d="M1587.6,-111.14C1590.78,-110.75 1593.93,-110.37 1597,-110 1731.48,-93.79 1767.63,-90.86 1906.11,-74.1"/>
<polygon fill="#63b8ff" stroke="#63b8ff" points="1906.76,-77.54 1916.26,-72.86 1905.91,-70.59 1906.76,-77.54"/>
</a>
</g>
</g>
<!-- Node28 -->
<g id="Node000028" class="node">
<title>Node28</title>
<g id="a_Node000028"><a xlink:href="Eref_8h.html" target="_top" xlink:title=" ">
<polygon fill="white" stroke="#666666" points="2094,-74 2050,-74 2050,-55 2094,-55 2094,-74"/>
<text text-anchor="middle" x="2072" y="-62" font-family="Ubuntu Mono" font-size="10.00">Eref.h</text>
</a>
</g>
</g>
<!-- Node2&#45;&gt;Node28 -->
<g id="edge27_Node000002_Node000028" class="edge">
<title>Node2&#45;&gt;Node28</title>
<g id="a_edge27_Node000002_Node000028"><a xlink:title=" ">
<path fill="none" stroke="#63b8ff" d="M1587.59,-111.01C1590.77,-110.66 1593.92,-110.32 1597,-110 1790.23,-90.08 1843.56,-106.91 2039.68,-73.68"/>
<polygon fill="#63b8ff" stroke="#63b8ff" points="2040.47,-77.1 2049.73,-71.96 2039.28,-70.2 2040.47,-77.1"/>
</a>
</g>
</g>
<!-- Node29 -->
<g id="Node000029" class="node">
<title>Node29</title>
<g id="a_Node000029"><a xlink:href="Conv_8h.html" target="_top" xlink:title=" ">
<polygon fill="white" stroke="#666666" points="2200,-74 2150,-74 2150,-55 2200,-55 2200,-74"/>
<text text-anchor="middle" x="2175" y="-62" font-family="Ubuntu Mono" font-size="10.00">Conv.h</text>
</a>
</g>
</g>
<!-- Node2&#45;&gt;Node29 -->
<g id="edge28_Node000002_Node000029" class="edge">
<title>Node2&#45;&gt;Node29</title>
<g id="a_edge28_Node000002_Node000029"><a xlink:title=" ">
<path fill="none" stroke="#63b8ff" d="M1587.58,-110.96C1590.77,-110.62 1593.92,-110.3 1597,-110 1835.99,-87.1 1898.28,-107.66 2136,-74 2137.27,-73.82 2138.57,-73.62 2139.87,-73.41"/>
<polygon fill="#63b8ff" stroke="#63b8ff" points="2140.73,-76.81 2149.92,-71.54 2139.45,-69.93 2140.73,-76.81"/>
</a>
</g>
</g>
<!-- Node31 -->
<g id="Node000031" class="node">
<title>Node31</title>
<g id="a_Node000031"><a xlink:href="SrcFinfo_8h.html" target="_top" xlink:title=" ">
<polygon fill="white" stroke="#666666" points="2350.5,-19 2285.5,-19 2285.5,0 2350.5,0 2350.5,-19"/>
<text text-anchor="middle" x="2318" y="-7" font-family="Ubuntu Mono" font-size="10.00">SrcFinfo.h</text>
</a>
</g>
</g>
<!-- Node2&#45;&gt;Node31 -->
<g id="edge30_Node000002_Node000031" class="edge">
<title>Node2&#45;&gt;Node31</title>
<g id="a_edge30_Node000002_Node000031"><a xlink:title=" ">
<path fill="none" stroke="#63b8ff" d="M1587.58,-110.93C1590.76,-110.6 1593.92,-110.28 1597,-110 1732.66,-97.54 2078.58,-113.37 2209,-74 2218.22,-71.22 2266.26,-42.26 2295.4,-24.43"/>
<polygon fill="#63b8ff" stroke="#63b8ff" points="2297.43,-27.29 2304.12,-19.07 2293.77,-21.32 2297.43,-27.29"/>
</a>
</g>
</g>
<!-- Node32 -->
<g id="Node000032" class="node">
<title>Node32</title>
<g id="a_Node000032"><a xlink:href="OpFuncBase_8h.html" target="_top" xlink:title=" ">
<polygon fill="white" stroke="#666666" points="2428,-74 2342,-74 2342,-55 2428,-55 2428,-74"/>
<text text-anchor="middle" x="2385" y="-62" font-family="Ubuntu Mono" font-size="10.00">OpFuncBase.h</text>
</a>
</g>
</g>
<!-- Node2&#45;&gt;Node32 -->
<g id="edge31_Node000002_Node000032" class="edge">
<title>Node2&#45;&gt;Node32</title>
<g id="a_edge31_Node000002_Node000032"><a xlink:title=" ">
<path fill="none" stroke="#63b8ff" d="M1587.58,-110.89C1590.76,-110.57 1593.92,-110.27 1597,-110 1919.93,-81.96 2005.57,-107.93 2331.71,-74"/>
<polygon fill="#63b8ff" stroke="#63b8ff" points="2332.34,-77.45 2341.92,-72.93 2331.61,-70.49 2332.34,-77.45"/>
</a>
</g>
</g>
<!-- Node33 -->
<g id="Node000033" class="node">
<title>Node33</title>
<g id="a_Node000033"><a xlink:href="HopFunc_8h.html" target="_top" xlink:title=" ">
<polygon fill="white" stroke="#666666" points="2324,-74 2256,-74 2256,-55 2324,-55 2324,-74"/>
<text text-anchor="middle" x="2290" y="-62" font-family="Ubuntu Mono" font-size="10.00">HopFunc.h</text>
</a>
</g>
</g>
<!-- Node2&#45;&gt;Node33 -->
<g id="edge33_Node000002_Node000033" class="edge">
<title>Node2&#45;&gt;Node33</title>
<g id="a_edge33_Node000002_Node000033"><a xlink:title=" ">
<path fill="none" stroke="#63b8ff" d="M1587.58,-110.92C1590.76,-110.59 1593.92,-110.28 1597,-110 1882.95,-84.18 1956.8,-107.09 2242,-74 2243.28,-73.85 2244.57,-73.69 2245.88,-73.52"/>
<polygon fill="#63b8ff" stroke="#63b8ff" points="2246.6,-76.95 2255.99,-72.04 2245.58,-70.03 2246.6,-76.95"/>
</a>
</g>
</g>
<!-- Node34 -->
<g id="Node000034" class="node">
<title>Node34</title>
<g id="a_Node000034"><a xlink:href="SetGet_8h.html" target="_top" xlink:title=" ">
<polygon fill="white" stroke="#666666" points="659.5,-74 600.5,-74 600.5,-55 659.5,-55 659.5,-74"/>
<text text-anchor="middle" x="630" y="-62" font-family="Ubuntu Mono" font-size="10.00">SetGet.h</text>
</a>
</g>
</g>
<!-- Node2&#45;&gt;Node34 -->
<g id="edge34_Node000002_Node000034" class="edge">
<title>Node2&#45;&gt;Node34</title>
<g id="a_edge34_Node000002_Node000034"><a xlink:title=" ">
<path fill="none" stroke="#63b8ff" d="M1470.3,-118.75C1332.23,-118.62 976.09,-114.19 669.69,-73.83"/>
<polygon fill="#63b8ff" stroke="#63b8ff" points="670.1,-70.35 659.72,-72.5 669.17,-77.29 670.1,-70.35"/>
</a>
</g>
</g>
<!-- Node35 -->
<g id="Node000035" class="node">
<title>Node35</title>
<g id="a_Node000035"><a xlink:href="OpFunc_8h.html" target="_top" xlink:title=" ">
<polygon fill="white" stroke="#666666" points="2508,-74 2446,-74 2446,-55 2508,-55 2508,-74"/>
<text text-anchor="middle" x="2477" y="-62" font-family="Ubuntu Mono" font-size="10.00">OpFunc.h</text>
</a>
</g>
</g>
<!-- Node2&#45;&gt;Node35 -->
<g id="edge36_Node000002_Node000035" class="edge">
<title>Node2&#45;&gt;Node35</title>
<g id="a_edge36_Node000002_Node000035"><a xlink:title=" ">
<path fill="none" stroke="#63b8ff" d="M1587.57,-110.87C1590.76,-110.55 1593.92,-110.26 1597,-110 1966.1,-79.07 2064.57,-120.26 2435.7,-73.93"/>
<polygon fill="#63b8ff" stroke="#63b8ff" points="2436.16,-77.4 2445.64,-72.68 2435.28,-70.46 2436.16,-77.4"/>
</a>
</g>
</g>
<!-- Node36 -->
<g id="Node000036" class="node">
<title>Node36</title>
<g id="a_Node000036"><a xlink:href="EpFunc_8h.html" target="_top" xlink:title=" ">
<polygon fill="white" stroke="#666666" points="2586,-74 2526,-74 2526,-55 2586,-55 2586,-74"/>
<text text-anchor="middle" x="2556" y="-62" font-family="Ubuntu Mono" font-size="10.00">EpFunc.h</text>
</a>
</g>
</g>
<!-- Node2&#45;&gt;Node36 -->
<g id="edge37_Node000002_Node000036" class="edge">
<title>Node2&#45;&gt;Node36</title>
<g id="a_edge37_Node000002_Node000036"><a xlink:title=" ">
<path fill="none" stroke="#63b8ff" d="M1587.57,-110.86C1590.76,-110.54 1593.92,-110.25 1597,-110 2001.55,-76.86 2109.35,-124.98 2515.89,-73.88"/>
<polygon fill="#63b8ff" stroke="#63b8ff" points="2516.38,-77.35 2525.86,-72.62 2515.5,-70.4 2516.38,-77.35"/>
</a>
</g>
</g>
<!-- Node37 -->
<g id="Node000037" class="node">
<title>Node37</title>
<g id="a_Node000037"><a xlink:href="ProcOpFunc_8h.html" target="_top" xlink:title=" ">
<polygon fill="white" stroke="#666666" points="2687.5,-74 2604.5,-74 2604.5,-55 2687.5,-55 2687.5,-74"/>
<text text-anchor="middle" x="2646" y="-62" font-family="Ubuntu Mono" font-size="10.00">ProcOpFunc.h</text>
</a>
</g>
</g>
<!-- Node2&#45;&gt;Node37 -->
<g id="edge38_Node000002_Node000037" class="edge">
<title>Node2&#45;&gt;Node37</title>
<g id="a_edge38_Node000002_Node000037"><a xlink:title=" ">
<path fill="none" stroke="#63b8ff" d="M1587.57,-110.85C1590.76,-110.53 1593.92,-110.25 1597,-110 2036.07,-74.71 2151.66,-117.91 2594.13,-73.92"/>
<polygon fill="#63b8ff" stroke="#63b8ff" points="2594.71,-77.38 2604.31,-72.9 2594.01,-70.41 2594.71,-77.38"/>
</a>
</g>
</g>
<!-- Node38 -->
<g id="Node000038" class="node">
<title>Node38</title>
<g id="a_Node000038"><a xlink:href="ValueFinfo_8h.html" target="_top" xlink:title=" ">
<polygon fill="white" stroke="#666666" points="2782.5,-74 2705.5,-74 2705.5,-55 2782.5,-55 2782.5,-74"/>
<text text-anchor="middle" x="2744" y="-62" font-family="Ubuntu Mono" font-size="10.00">ValueFinfo.h</text>
</a>
</g>
</g>
<!-- Node2&#45;&gt;Node38 -->
<g id="edge39_Node000002_Node000038" class="edge">
<title>Node2&#45;&gt;Node38</title>
<g id="a_edge39_Node000002_Node000038"><a xlink:title=" ">
<path fill="none" stroke="#63b8ff" d="M1587.57,-110.83C1590.76,-110.52 1593.92,-110.24 1597,-110 2081.31,-71.89 2208.85,-124.93 2695.24,-74.02"/>
<polygon fill="#63b8ff" stroke="#63b8ff" points="2695.76,-77.49 2705.34,-72.95 2695.02,-70.52 2695.76,-77.49"/>
</a>
</g>
</g>
<!-- Node39 -->
<g id="Node000039" class="node">
<title>Node39</title>
<g id="a_Node000039"><a xlink:href="LookupValueFinfo_8h.html" target="_top" xlink:title=" ">
<polygon fill="white" stroke="#666666" points="2911.5,-74 2800.5,-74 2800.5,-55 2911.5,-55 2911.5,-74"/>
<text text-anchor="middle" x="2856" y="-62" font-family="Ubuntu Mono" font-size="10.00">LookupValueFinfo.h</text>
</a>
</g>
</g>
<!-- Node2&#45;&gt;Node39 -->
<g id="edge40_Node000002_Node000039" class="edge">
<title>Node2&#45;&gt;Node39</title>
<g id="a_edge40_Node000002_Node000039"><a xlink:title=" ">
<path fill="none" stroke="#63b8ff" d="M1587.57,-110.82C1590.76,-110.52 1593.92,-110.24 1597,-110 2123.41,-69.26 2260.66,-116.43 2790,-74.08"/>
<polygon fill="#63b8ff" stroke="#63b8ff" points="2790.5,-77.55 2800.19,-73.25 2789.94,-70.57 2790.5,-77.55"/>
</a>
</g>
</g>
<!-- Node40 -->
<g id="Node000040" class="node">
<title>Node40</title>
<g id="a_Node000040"><a xlink:href="SharedFinfo_8h.html" target="_top" xlink:title=" ">
<polygon fill="white" stroke="#666666" points="3012.5,-74 2929.5,-74 2929.5,-55 3012.5,-55 3012.5,-74"/>
<text text-anchor="middle" x="2971" y="-62" font-family="Ubuntu Mono" font-size="10.00">SharedFinfo.h</text>
</a>
</g>
</g>
<!-- Node2&#45;&gt;Node40 -->
<g id="edge41_Node000002_Node000040" class="edge">
<title>Node2&#45;&gt;Node40</title>
<g id="a_edge41_Node000002_Node000040"><a xlink:title=" ">
<path fill="none" stroke="#63b8ff" d="M1587.57,-110.81C1590.76,-110.51 1593.92,-110.23 1597,-110 2180.68,-65.69 2333.44,-130.73 2919.35,-74.01"/>
<polygon fill="#63b8ff" stroke="#63b8ff" points="2919.7,-77.49 2929.32,-73.04 2919.02,-70.53 2919.7,-77.49"/>
</a>
</g>
</g>
<!-- Node41 -->
<g id="Node000041" class="node">
<title>Node41</title>
<g id="a_Node000041"><a xlink:href="FieldElementFinfo_8h.html" target="_top" xlink:title=" ">
<polygon fill="white" stroke="#666666" points="3143.5,-74 3030.5,-74 3030.5,-55 3143.5,-55 3143.5,-74"/>
<text text-anchor="middle" x="3087" y="-62" font-family="Ubuntu Mono" font-size="10.00">FieldElementFinfo.h</text>
</a>
</g>
</g>
<!-- Node2&#45;&gt;Node41 -->
<g id="edge42_Node000002_Node000041" class="edge">
<title>Node2&#45;&gt;Node41</title>
<g id="a_edge42_Node000002_Node000041"><a xlink:title=" ">
<path fill="none" stroke="#63b8ff" d="M1587.57,-110.81C1590.76,-110.5 1593.92,-110.23 1597,-110 2225.37,-62.91 2388.62,-122.49 3020.05,-74.06"/>
<polygon fill="#63b8ff" stroke="#63b8ff" points="3020.62,-77.53 3030.32,-73.27 3020.08,-70.55 3020.62,-77.53"/>
</a>
</g>
</g>
<!-- Node42 -->
<g id="Node000042" class="node">
<title>Node42</title>
<g id="a_Node000042"><a xlink:href="FieldElement_8h.html" target="_top" xlink:title=" ">
<polygon fill="white" stroke="#666666" points="3250.5,-74 3161.5,-74 3161.5,-55 3250.5,-55 3250.5,-74"/>
<text text-anchor="middle" x="3206" y="-62" font-family="Ubuntu Mono" font-size="10.00">FieldElement.h</text>
</a>
</g>
</g>
<!-- Node2&#45;&gt;Node42 -->
<g id="edge43_Node000002_Node000042" class="edge">
<title>Node2&#45;&gt;Node42</title>
<g id="a_edge43_Node000002_Node000042"><a xlink:title=" ">
<path fill="none" stroke="#63b8ff" d="M1587.57,-110.8C1590.76,-110.5 1593.92,-110.23 1597,-110 2283.49,-59.28 2462.38,-136.16 3151.06,-74.04"/>
<polygon fill="#63b8ff" stroke="#63b8ff" points="3151.59,-77.51 3161.23,-73.12 3150.96,-70.54 3151.59,-77.51"/>
</a>
</g>
</g>
<!-- Node43 -->
<g id="Node000043" class="node">
<title>Node43</title>
<g id="a_Node000043"><a xlink:href="Neutral_8h.html" target="_top" xlink:title=" ">
<polygon fill="white" stroke="#666666" points="3365.5,-74 3268.5,-74 3268.5,-55 3365.5,-55 3365.5,-74"/>
<text text-anchor="middle" x="3317" y="-62" font-family="Ubuntu Mono" font-size="10.00">../shell/Neutral.h</text>
</a>
</g>
</g>
<!-- Node2&#45;&gt;Node43 -->
<g id="edge44_Node000002_Node000043" class="edge">
<title>Node2&#45;&gt;Node43</title>
<g id="a_edge44_Node000002_Node000043"><a xlink:title=" ">
<path fill="none" stroke="#63b8ff" d="M1587.57,-110.79C1590.76,-110.49 1593.91,-110.23 1597,-110 2330.99,-56.32 2521.66,-135.92 3258.17,-74.04"/>
<polygon fill="#63b8ff" stroke="#63b8ff" points="3258.56,-77.52 3268.23,-73.19 3257.97,-70.54 3258.56,-77.52"/>
</a>
</g>
</g>
<!-- Node30 -->
<g id="Node000030" class="node">
<title>Node30</title>
<g id="a_Node000030"><a xlink:title=" ">
<polygon fill="#e0e0e0" stroke="#999999" points="2200,-19 2150,-19 2150,0 2200,0 2200,-19"/>
<text text-anchor="middle" x="2175" y="-7" font-family="Ubuntu Mono" font-size="10.00">cstring</text>
</a>
</g>
</g>
<!-- Node29&#45;&gt;Node30 -->
<g id="edge29_Node000029_Node000030" class="edge">
<title>Node29&#45;&gt;Node30</title>
<g id="a_edge29_Node000029_Node000030"><a xlink:title=" ">
<path fill="none" stroke="#63b8ff" d="M2175,-54.75C2175,-47.8 2175,-37.85 2175,-29.13"/>
<polygon fill="#63b8ff" stroke="#63b8ff" points="2178.5,-29.09 2175,-19.09 2171.5,-29.09 2178.5,-29.09"/>
</a>
</g>
</g>
<!-- Node32&#45;&gt;Node31 -->
<g id="edge32_Node000032_Node000031" class="edge">
<title>Node32&#45;&gt;Node31</title>
<g id="a_edge32_Node000032_Node000031"><a xlink:title=" ">
<path fill="none" stroke="#63b8ff" d="M2374.24,-54.98C2364.23,-47.07 2349.11,-35.11 2337.07,-25.58"/>
<polygon fill="#63b8ff" stroke="#63b8ff" points="2338.97,-22.63 2328.96,-19.17 2334.63,-28.12 2338.97,-22.63"/>
</a>
</g>
</g>
<!-- Node34&#45;&gt;Node11 -->
<g id="edge35_Node000034_Node000011" class="edge">
<title>Node34&#45;&gt;Node11</title>
<g id="a_edge35_Node000034_Node000011"><a xlink:title=" ">
<path fill="none" stroke="#63b8ff" d="M659.73,-56.54C662.85,-55.95 665.98,-55.42 669,-55 918.38,-20.08 1221.77,-12.53 1328.01,-10.93"/>
<polygon fill="#63b8ff" stroke="#63b8ff" points="1328.3,-14.42 1338.25,-10.78 1328.21,-7.42 1328.3,-14.42"/>
</a>
</g>
</g>
</g>
</svg>

<g id="navigator" transform="translate(0 0)" fill="#404254">
  <rect fill="#f2f5e9" fill-opacity="0.5" stroke="#606060" stroke-width=".5" x="0" y="0" width="60" height="60"/>
  <use id="zoomplus" xlink:href="#zoomPlus" x="17" y="9" onmousedown="handleZoom(evt,'in')"/>
  <use id="zoomminus" xlink:href="#zoomMin" x="42" y="9" onmousedown="handleZoom(evt,'out')"/>
  <use id="reset" xlink:href="#resetDef" x="30" y="36" onmousedown="handleReset()"/>
   <use id="arrowup" xlink:href="#arrowUp" x="0" y="0" onmousedown="handlePan(0,-1)"/>
  <use id="arrowright" xlink:href="#arrowRight" x="0" y="0" onmousedown="handlePan(1,0)"/>
  <use id="arrowdown" xlink:href="#arrowDown" x="0" y="0" onmousedown="handlePan(0,1)"/>
  <use id="arrowleft" xlink:href="#arrowLeft" x="0" y="0" onmousedown="handlePan(-1,0)"/>
</g>
<svg viewBox="0 0 15 15" width="100%" height="30px" preserveAspectRatio="xMaxYMin meet">
 <g id="arrow_out" transform="scale(0.3 0.3)">
  <a xlink:href="VClamp_8cpp__incl_org.svg" target="_base">
   <rect id="button" ry="5" rx="5" y="6" x="6" height="38" width="38"
        fill="#f2f5e9" fill-opacity="0.5" stroke="#606060" stroke-width="1.0"/>
   <path id="arrow"
     d="M 11.500037,31.436501 C 11.940474,20.09759 22.043105,11.32322 32.158766,21.979434 L 37.068811,17.246167 C 37.068811,17.246167 37.088388,32 37.088388,32 L 22.160133,31.978069 C 22.160133,31.978069 26.997745,27.140456 26.997745,27.140456 C 18.528582,18.264221 13.291696,25.230495 11.500037,31.436501 z"
     style="fill:#404040;"/>
  </a>
 </g>
</svg>

<style type='text/css'>
<![CDATA[
[data-mouse-over-selected='false'] { opacity: 0.7; }
[data-mouse-over-selected='true']  { opacity: 1.0; }
]]>
</style>
<script type="application/ecmascript"><![CDATA[
document.addEventListener('DOMContentLoaded', (event) => {
  highlightEdges();
  highlightAdjacentNodes();
});
]]></script>
</svg>
