<?xml version="1.0" encoding="UTF-8" standalone="no"?>
<!DOCTYPE svg PUBLIC "-//W3C//DTD SVG 1.1//EN"
 "http://www.w3.org/Graphics/SVG/1.1/DTD/svg11.dtd">
<!-- Generated by graphviz version 2.43.0 (0)
 -->
<!-- Title: storeMMenzMsgs Pages: 1 -->
<svg width="476pt" height="64pt"
 viewBox="0.00 0.00 476.00 64.00" xmlns="http://www.w3.org/2000/svg" xmlns:xlink="http://www.w3.org/1999/xlink">

<svg id="main" version="1.1" xmlns="http://www.w3.org/2000/svg" xmlns:xlink="http://www.w3.org/1999/xlink" xml:space="preserve" onload="init(evt)">
<style type="text/css"><![CDATA[
.node, .edge {opacity: 0.7;}
.node.selected, .edge.selected {opacity: 1;}
.edge:hover path { stroke: red; }
.edge:hover polygon { stroke: red; fill: red; }
]]></style>
<script type="application/ecmascript" xlink:href="svg.min.js"/>
<svg id="graph" class="graph">
<g id="graph0" class="graph" transform="scale(1 1) rotate(0) translate(4 60)">
<title>storeMMenzMsgs</title>
<!-- Node1 -->
<g id="Node000001" class="node">
<title>Node1</title>
<g id="a_Node000001"><a xlink:title=" ">
<polygon fill="#999999" stroke="#666666" points="468,-37 366,-37 366,-18 468,-18 468,-37"/>
<text text-anchor="middle" x="417" y="-25" font-family="Ubuntu Mono" font-size="10.00">storeMMenzMsgs</text>
</a>
</g>
</g>
<!-- Node2 -->
<g id="Node000002" class="node">
<title>Node2</title>
<g id="a_Node000002"><a xlink:href="WriteKkit_8cpp.html#a43dcd5f412b5ca319deddbb240b57cfb" target="_top" xlink:title=" ">
<polygon fill="white" stroke="#666666" points="330,-37 246,-37 246,-18 330,-18 330,-37"/>
<text text-anchor="middle" x="288" y="-25" font-family="Ubuntu Mono" font-size="10.00">storeEnzMsgs</text>
</a>
</g>
</g>
<!-- Node1&#45;&gt;Node2 -->
<g id="edge1_Node000001_Node000002" class="edge">
<title>Node1&#45;&gt;Node2</title>
<g id="a_edge1_Node000001_Node000002"><a xlink:title=" ">
<path fill="none" stroke="#63b8ff" d="M355.75,-27.5C347.12,-27.5 338.4,-27.5 330.25,-27.5"/>
<polygon fill="#63b8ff" stroke="#63b8ff" points="355.81,-31 365.81,-27.5 355.81,-24 355.81,-31"/>
</a>
</g>
</g>
<!-- Node3 -->
<g id="Node000003" class="node">
<title>Node3</title>
<g id="a_Node000003"><a xlink:href="WriteKkit_8cpp.html#a0819ff87dbda81cf52b83c74bebd26a2" target="_top" xlink:title=" ">
<polygon fill="white" stroke="#666666" points="210,-37 149,-37 149,-18 210,-18 210,-37"/>
<text text-anchor="middle" x="179.5" y="-25" font-family="Ubuntu Mono" font-size="10.00">writeKkit</text>
</a>
</g>
</g>
<!-- Node2&#45;&gt;Node3 -->
<g id="edge2_Node000002_Node000003" class="edge">
<title>Node2&#45;&gt;Node3</title>
<g id="a_edge2_Node000002_Node000003"><a xlink:title=" ">
<path fill="none" stroke="#63b8ff" d="M235.6,-27.5C226.82,-27.5 217.97,-27.5 210.01,-27.5"/>
<polygon fill="#63b8ff" stroke="#63b8ff" points="235.82,-31 245.82,-27.5 235.82,-24 235.82,-31"/>
</a>
</g>
</g>
<!-- Node4 -->
<g id="Node000004" class="node">
<title>Node4</title>
<g id="a_Node000004"><a xlink:href="classShell.html#a6d66c1ff326bdd262204f6b2447e6dd9" target="_top" xlink:title=" ">
<polygon fill="white" stroke="#666666" points="113,-56 0,-56 0,-37 113,-37 113,-56"/>
<text text-anchor="middle" x="56.5" y="-44" font-family="Ubuntu Mono" font-size="10.00">Shell::doSaveModel</text>
</a>
</g>
</g>
<!-- Node3&#45;&gt;Node4 -->
<g id="edge3_Node000003_Node000004" class="edge">
<title>Node3&#45;&gt;Node4</title>
<g id="a_edge3_Node000003_Node000004"><a xlink:title=" ">
<path fill="none" stroke="#63b8ff" d="M138.89,-33.72C130.69,-35.01 121.91,-36.39 113.26,-37.74"/>
<polygon fill="#63b8ff" stroke="#63b8ff" points="139.56,-37.16 148.9,-32.15 138.48,-30.24 139.56,-37.16"/>
</a>
</g>
</g>
<!-- Node5 -->
<g id="Node000005" class="node">
<title>Node5</title>
<g id="a_Node000005"><a xlink:href="testKinetics_8cpp.html#a7a9dbc2d409a4480c2e2b8d1e55f7284" target="_top" xlink:title=" ">
<polygon fill="white" stroke="#666666" points="97,-19 16,-19 16,0 97,0 97,-19"/>
<text text-anchor="middle" x="56.5" y="-7" font-family="Ubuntu Mono" font-size="10.00">testWriteKkit</text>
</a>
</g>
</g>
<!-- Node3&#45;&gt;Node5 -->
<g id="edge4_Node000003_Node000005" class="edge">
<title>Node3&#45;&gt;Node5</title>
<g id="a_edge4_Node000003_Node000005"><a xlink:title=" ">
<path fill="none" stroke="#63b8ff" d="M138.63,-21.57C125.36,-19.59 110.57,-17.4 97.3,-15.42"/>
<polygon fill="#63b8ff" stroke="#63b8ff" points="138.49,-25.09 148.9,-23.1 139.52,-18.16 138.49,-25.09"/>
</a>
</g>
</g>
</g>
</svg>
</svg>

<style type='text/css'>
<![CDATA[
[data-mouse-over-selected='false'] { opacity: 0.7; }
[data-mouse-over-selected='true']  { opacity: 1.0; }
]]>
</style>
<script type="application/ecmascript"><![CDATA[
document.addEventListener('DOMContentLoaded', (event) => {
  highlightEdges();
  highlightAdjacentNodes();
});
]]></script>
</svg>
